<?xml version="1.0" encoding="UTF-8"?>
<!--Generator: Apple Native CoreSVG 175-->
<!DOCTYPE svg
PUBLIC "-//W3C//DTD SVG 1.1//EN"
       "http://www.w3.org/Graphics/SVG/1.1/DTD/svg11.dtd">
<svg version="1.1" xmlns="http://www.w3.org/2000/svg" xmlns:xlink="http://www.w3.org/1999/xlink" width="19.1962" height="17.2363">
 <g>
  <rect height="17.2363" opacity="0" width="19.1962" x="0" y="0"/>
  <path d="M6.08398 17.2266L13.1122 17.2266Q16.2079 17.2266 17.702 15.7324Q19.1962 14.2383 19.1962 11.1426L19.1962 6.66992L14.7411 6.66992Q14.6043 7.01172 14.2953 7.21191Q13.9864 7.41211 13.5762 7.41211L5.61996 7.41211Q5.21957 7.41211 4.90707 7.21191Q4.59457 7.01172 4.45786 6.66992L0 6.66992L0 11.1426Q0 14.2383 1.49414 15.7324Q2.98828 17.2266 6.08398 17.2266ZM9.59457 11.3281Q9.21371 11.3379 8.9389 11.0596Q8.66409 10.7812 8.66409 10.4102Q8.66409 10.0195 8.9389 9.74609Q9.21371 9.47266 9.59457 9.47266Q9.98245 9.47266 10.2573 9.74609Q10.5321 10.0195 10.5321 10.4102Q10.5321 10.7617 10.2573 11.04Q9.98245 11.3184 9.59457 11.3281ZM0 5.67383L4.43832 5.67383Q4.56528 5.32227 4.87778 5.12207Q5.19028 4.92188 5.59769 4.92188L13.5594 4.92188Q13.9598 4.92188 14.2758 5.12207Q14.5918 5.32227 14.7215 5.67383L19.1571 5.67383L19.1571 5.33203Q19.1571 2.63672 17.5751 1.31836Q15.993 0 13.0731 0L6.08398 0Q3.16406 0 1.58203 1.31836Q0 2.63672 0 5.33203Z" fill="rgba(0,0,0,0.85)"/>
 </g>
</svg>
