<?xml version="1.0" encoding="UTF-8"?>
<!--Generator: Apple Native CoreSVG 175-->
<!DOCTYPE svg
PUBLIC "-//W3C//DTD SVG 1.1//EN"
       "http://www.w3.org/Graphics/SVG/1.1/DTD/svg11.dtd">
<svg version="1.1" xmlns="http://www.w3.org/2000/svg" xmlns:xlink="http://www.w3.org/1999/xlink" width="21.0266" height="19.8364">
 <g>
  <rect height="19.8364" opacity="0" width="21.0266" x="0" y="0"/>
  <path d="M3.69843 0Q3.01804 0 2.6252 0.395508Q2.23236 0.791016 2.23236 1.47705L2.23236 15.7008Q2.23236 16.377 2.6252 16.7773Q3.01804 17.1777 3.69843 17.1777L8.09448 17.1777Q8.76526 17.1777 9.1629 16.7773Q9.56055 16.377 9.56055 15.7008L9.56055 1.47705Q9.56055 0.791016 9.1629 0.395508Q8.76526 0 8.09448 0ZM3.73444 0.701141L8.05588 0.701141Q8.41843 0.701141 8.63541 0.920334Q8.85239 1.13953 8.85239 1.49658L8.85239 15.6715Q8.85239 16.0384 8.63541 16.254Q8.41843 16.4696 8.05588 16.4696L3.73444 16.4696Q3.37189 16.4696 3.15277 16.254Q2.93365 16.0384 2.93365 15.6715L2.93365 1.49658Q2.93365 1.13953 3.15277 0.920334Q3.37189 0.701141 3.73444 0.701141ZM12.9727 6.37268Q12.3019 6.37268 11.9043 6.7717Q11.5067 7.17072 11.5067 7.84973L11.5067 15.7008Q11.5067 16.377 11.9043 16.7773Q12.3019 17.1777 12.9727 17.1777L17.3688 17.1777Q18.0466 17.1777 18.4407 16.7773Q18.8348 16.377 18.8348 15.7008L18.8348 7.84973Q18.8348 7.17072 18.4407 6.7717Q18.0466 6.37268 17.3688 6.37268ZM13.0113 7.08084L17.3302 7.08084Q17.6953 7.08084 17.9144 7.30003Q18.1335 7.51923 18.1335 7.87628L18.1335 15.6715Q18.1335 16.0384 17.9144 16.254Q17.6953 16.4696 17.3302 16.4696L13.0113 16.4696Q12.6462 16.4696 12.4306 16.254Q12.215 16.0384 12.215 15.6715L12.215 7.87628Q12.215 7.51923 12.4306 7.30003Q12.6462 7.08084 13.0113 7.08084ZM0.33905 19.1376Q0.200806 19.1376 0.100403 19.2399Q0 19.3422 0 19.4876Q0 19.6231 0.100403 19.729Q0.200806 19.8349 0.33905 19.8349L20.6833 19.8349Q20.8258 19.8349 20.9262 19.729Q21.0266 19.6231 21.0266 19.4876Q21.0266 19.3422 20.9262 19.2399Q20.8258 19.1376 20.6833 19.1376Z" fill="rgba(0,0,0,0.85)"/>
 </g>
</svg>
