<?xml version="1.0" encoding="UTF-8"?>
<!--Generator: Apple Native CoreSVG 175-->
<!DOCTYPE svg
PUBLIC "-//W3C//DTD SVG 1.1//EN"
       "http://www.w3.org/Graphics/SVG/1.1/DTD/svg11.dtd">
<svg version="1.1" xmlns="http://www.w3.org/2000/svg" xmlns:xlink="http://www.w3.org/1999/xlink" width="23.6743" height="23.9575">
 <g>
  <rect height="23.9575" opacity="0" width="23.6743" x="0" y="0"/>
  <path d="M7.95273 19.5067Q8.99109 19.5067 9.84398 19.0022Q10.6969 18.4978 11.2049 17.6434Q11.713 16.7891 11.713 15.7411Q11.713 14.7195 11.2049 13.8715Q10.6969 13.0235 9.84261 12.5155Q8.98834 12.0074 7.95273 12.0074Q6.92154 12.0074 6.07208 12.5155Q5.22263 13.0235 4.72168 13.8715Q4.22073 14.7195 4.22073 15.7411Q4.22073 16.7821 4.72168 17.6364Q5.22263 18.4908 6.07208 18.9987Q6.92154 19.5067 7.95273 19.5067ZM7.95273 17.8688Q7.07733 17.8688 6.46446 17.2489Q5.85159 16.629 5.85159 15.7439Q5.85159 14.8685 6.46446 14.2555Q7.07733 13.6426 7.95273 13.6426Q8.53363 13.6426 9.01878 13.926Q9.50394 14.2094 9.79088 14.6897Q10.0778 15.17 10.0778 15.7439Q10.0778 16.629 9.45648 17.2489Q8.83514 17.8688 7.95273 17.8688ZM15.3032 12.7406Q16.5102 12.7406 17.4991 12.1504Q18.488 11.5602 19.0768 10.563Q19.6657 9.56573 19.6657 8.36838Q19.6657 7.16843 19.0768 6.18088Q18.488 5.19333 17.4991 4.60449Q16.5102 4.01566 15.3032 4.01566Q14.1058 4.01566 13.1135 4.60449Q12.1211 5.19333 11.5309 6.18088Q10.9407 7.16843 10.9407 8.36838Q10.9407 9.56573 11.5309 10.563Q12.1211 11.5602 13.1135 12.1504Q14.1058 12.7406 15.3032 12.7406ZM15.3032 10.9453Q14.6024 10.9453 14.0195 10.5914Q13.4367 10.2376 13.0899 9.6534Q12.7431 9.06921 12.7431 8.36838Q12.7431 7.66769 13.0899 7.09328Q13.4367 6.51886 14.0195 6.17332Q14.6024 5.82779 15.3032 5.82779Q16.0039 5.82779 16.5832 6.17332Q17.1625 6.51886 17.508 7.09328Q17.8535 7.66769 17.8535 8.36838Q17.8535 9.06921 17.508 9.6534Q17.1625 10.2376 16.5832 10.5914Q16.0039 10.9453 15.3032 10.9453ZM15.2962 1.57578Q15.6184 1.57578 15.8512 1.34514Q16.084 1.1145 16.084 0.787964Q16.084 0.458679 15.8512 0.22934Q15.6184 0 15.2962 0Q14.9696 0 14.7354 0.22934Q14.5012 0.458679 14.5012 0.787964Q14.5012 1.1145 14.7354 1.34514Q14.9696 1.57578 15.2962 1.57578ZM20.8626 3.86612Q21.1891 3.86612 21.4198 3.63327Q21.6504 3.40042 21.6504 3.07816Q21.6504 2.75162 21.4198 2.5174Q21.1891 2.28317 20.8626 2.28317Q20.5333 2.28317 20.3026 2.5174Q20.0719 2.75162 20.0719 3.07816Q20.0719 3.40042 20.3026 3.63327Q20.5333 3.86612 20.8626 3.86612ZM22.8864 9.1954Q23.2129 9.1954 23.4436 8.96118Q23.6743 8.72696 23.6743 8.40469Q23.6743 8.07816 23.4436 7.84401Q23.2129 7.60986 22.8864 7.60986Q22.5598 7.60986 22.3292 7.84401Q22.0985 8.07816 22.0985 8.40469Q22.0985 8.72696 22.3292 8.96118Q22.5598 9.1954 22.8864 9.1954ZM20.5836 14.7493Q20.9129 14.7493 21.1436 14.5151Q21.3742 14.2809 21.3742 13.9613Q21.3742 13.632 21.1436 13.3979Q20.9129 13.1638 20.5836 13.1638Q20.2571 13.1638 20.0264 13.3979Q19.7957 13.632 19.7957 13.9613Q19.7957 14.2809 20.0264 14.5151Q20.2571 14.7493 20.5836 14.7493ZM15.2962 16.5359Q15.6184 16.5359 15.8512 16.3018Q16.084 16.0677 16.084 15.7411Q16.084 15.4189 15.8512 15.186Q15.6184 14.9532 15.2962 14.9532Q14.9696 14.9532 14.7354 15.186Q14.5012 15.4189 14.5012 15.7411Q14.5012 16.0677 14.7354 16.3018Q14.9696 16.5359 15.2962 16.5359ZM13.1105 21.4107Q13.4302 21.4107 13.6643 21.1765Q13.8985 20.9422 13.8985 20.6227Q13.8985 20.2962 13.6643 20.062Q13.4302 19.8277 13.1105 19.8277Q12.784 19.8277 12.5498 20.062Q12.3157 20.2962 12.3157 20.6227Q12.3157 20.9422 12.5498 21.1765Q12.784 21.4107 13.1105 21.4107ZM7.95273 23.7134Q8.27927 23.7134 8.51349 23.4792Q8.74771 23.2449 8.74771 22.9184Q8.74771 22.5961 8.51349 22.362Q8.27927 22.1278 7.95273 22.1278Q7.63046 22.1278 7.39769 22.362Q7.16492 22.5961 7.16492 22.9184Q7.16492 23.2449 7.39769 23.4792Q7.63046 23.7134 7.95273 23.7134ZM3.09067 21.6603Q3.41721 21.6603 3.64784 21.4296Q3.87848 21.1989 3.87848 20.8723Q3.87848 20.5431 3.64784 20.3123Q3.41721 20.0816 3.09067 20.0816Q2.76138 20.0816 2.53204 20.3123Q2.3027 20.5431 2.3027 20.8723Q2.3027 21.1989 2.53204 21.4296Q2.76138 21.6603 3.09067 21.6603ZM0.787964 16.5485Q1.11725 16.5485 1.35002 16.3157Q1.58279 16.0829 1.58279 15.7607Q1.58279 15.434 1.35002 15.1998Q1.11725 14.9657 0.787964 14.9657Q0.468445 14.9657 0.234222 15.1998Q0 15.434 0 15.7607Q0 16.0829 0.234222 16.3157Q0.468445 16.5485 0.787964 16.5485ZM3.09067 11.4297Q3.41721 11.4297 3.64784 11.1991Q3.87848 10.9685 3.87848 10.6418Q3.87848 10.3125 3.64784 10.0819Q3.41721 9.85123 3.09067 9.85123Q2.76138 9.85123 2.53204 10.0819Q2.3027 10.3125 2.3027 10.6418Q2.3027 10.9685 2.53204 11.1991Q2.76138 11.4297 3.09067 11.4297ZM7.95273 9.15634Q8.27927 9.15634 8.51349 8.92563Q8.74771 8.69492 8.74771 8.36838Q8.74771 8.03909 8.51349 7.80846Q8.27927 7.57782 7.95273 7.57782Q7.63046 7.57782 7.39769 7.80846Q7.16492 8.03909 7.16492 8.36838Q7.16492 8.69492 7.39769 8.92563Q7.63046 9.15634 7.95273 9.15634ZM10.0015 3.60245Q10.3282 3.60245 10.5624 3.36823Q10.7965 3.134 10.7965 2.81174Q10.7965 2.4852 10.5624 2.25098Q10.3282 2.01675 10.0015 2.01675Q9.67926 2.01675 9.44649 2.25098Q9.21371 2.4852 9.21371 2.81174Q9.21371 3.134 9.44649 3.36823Q9.67926 3.60245 10.0015 3.60245Z" fill="rgba(0,0,0,0.85)"/>
 </g>
</svg>
