<?xml version="1.0" encoding="UTF-8"?>
<!--Generator: Apple Native CoreSVG 175-->
<!DOCTYPE svg
PUBLIC "-//W3C//DTD SVG 1.1//EN"
       "http://www.w3.org/Graphics/SVG/1.1/DTD/svg11.dtd">
<svg version="1.1" xmlns="http://www.w3.org/2000/svg" xmlns:xlink="http://www.w3.org/1999/xlink" width="17.0938" height="17.1097">
 <g>
  <rect height="17.1097" opacity="0" width="17.0938" x="0" y="0"/>
  <path d="M0.175018 8.31711L0.175018 8.92029L7.7684 8.92029Q7.3848 9.68597 6.79123 10.406Q6.19766 11.1261 5.52422 11.706Q4.85077 12.2859 4.21623 12.6595Q3.5817 13.0331 3.10898 13.1128Q2.85034 13.1519 2.74376 13.2626Q2.63718 13.3734 2.63718 13.5562Q2.63718 13.7167 2.76039 13.8484Q2.88361 13.9801 3.10394 13.9355Q3.60001 13.8336 4.26392 13.494Q4.92783 13.1543 5.64461 12.5863Q6.36139 12.0183 7.02232 11.2292Q7.68326 10.4402 8.16635 9.43512L8.19962 9.43512L8.19962 16.9542L8.83286 16.9542L8.83286 9.43512L8.86871 9.43512Q9.34921 10.4402 10.0101 11.2292Q10.6711 12.0183 11.3892 12.5863Q12.1074 13.1543 12.7734 13.494Q13.4395 13.8336 13.9355 13.9355Q14.1586 13.9801 14.2783 13.8484Q14.398 13.7167 14.398 13.5562Q14.398 13.3734 14.2914 13.2626Q14.1847 13.1519 13.9235 13.1128Q13.4578 13.0331 12.8197 12.6595Q12.1817 12.2859 11.5096 11.706Q10.8376 11.1261 10.2475 10.406Q9.65744 9.68597 9.27383 8.92029L16.8715 8.92029L16.8715 8.31711L11.4993 8.31711Q12.2411 8.04794 12.8693 7.58583Q13.4976 7.12372 13.8752 6.52473Q14.2528 5.92575 14.2528 5.24719Q14.2528 4.26437 13.6846 3.68568Q13.1165 3.10699 12.2023 3.10699Q11.5195 3.10699 10.863 3.46359Q10.2066 3.82019 9.67735 4.44656Q9.1481 5.07294 8.83286 5.87372L8.83286 0.291748L8.19962 0.291748L8.19962 5.87372Q7.88437 5.07294 7.35512 4.44656Q6.82587 3.82019 6.17073 3.46359Q5.51559 3.10699 4.83017 3.10699Q3.92303 3.10699 3.35136 3.68568Q2.77969 4.26437 2.77969 5.24719Q2.77969 5.92575 3.16071 6.52473Q3.54172 7.12372 4.16656 7.58583Q4.79141 8.04794 5.53314 8.31711ZM7.80823 8.29025Q6.96609 8.29025 6.18797 8.03398Q5.40985 7.77771 4.79576 7.35176Q4.18167 6.92581 3.82111 6.39084Q3.46054 5.85587 3.46054 5.29144Q3.46054 4.60815 3.8504 4.19937Q4.24026 3.79059 4.84497 3.79059Q5.45517 3.79059 6.03485 4.13437Q6.61453 4.47815 7.07481 5.07401Q7.5351 5.66986 7.81113 6.43547Q8.08716 7.20108 8.08716 8.04489L8.08716 8.29025ZM9.23126 8.29025L8.95233 8.29025L8.95233 8.04489Q8.95233 7.20108 9.22478 6.43547Q9.49722 5.66986 9.96246 5.07401Q10.4277 4.47815 11.0039 4.13437Q11.58 3.79059 12.1875 3.79059Q12.795 3.79059 13.1834 4.19937Q13.5719 4.60815 13.5719 5.29144Q13.5719 5.85587 13.2114 6.39084Q12.8508 6.92581 12.2381 7.35176Q11.6254 7.77771 10.8459 8.03398Q10.0664 8.29025 9.23126 8.29025ZM16.0777 1.05927Q15.4875 0.476074 14.6176 0.254822Q13.7477 0.0335693 12.3149 0.0335693L4.67224 0.0335693Q3.33633 0.0335693 2.47482 0.258331Q1.61331 0.483093 1.03012 1.07346Q0.442505 1.6539 0.221252 2.50702Q0 3.36014 0 4.70306L0 12.3335Q0 13.7733 0.21637 14.6384Q0.432739 15.5035 1.01608 16.084Q1.61331 16.6672 2.48184 16.8884Q3.35037 17.1097 4.77615 17.1097L12.3149 17.1097Q13.7477 17.1097 14.6211 16.8884Q15.4945 16.6672 16.0777 16.084Q16.6653 15.4965 16.8796 14.6349Q17.0938 13.7733 17.0938 12.3335L17.0938 4.80972Q17.0938 3.3699 16.8796 2.50488Q16.6653 1.63986 16.0777 1.05927ZM16.3722 4.55734L16.3722 12.5832Q16.3722 13.605 16.1744 14.3404Q15.9766 15.0757 15.5301 15.5319Q15.0766 15.9926 14.3279 16.1904Q13.5793 16.3882 12.5743 16.3882L4.52652 16.3882Q3.51456 16.3882 2.76588 16.1869Q2.01721 15.9856 1.56097 15.5319Q1.10748 15.0757 0.918045 14.3404Q0.728607 13.605 0.728607 12.5832L0.728607 4.65698Q0.728607 3.58322 0.918045 2.817Q1.10748 2.05078 1.55396 1.59729Q2.00745 1.13388 2.78343 0.944443Q3.55942 0.755005 4.62616 0.755005L12.5743 0.755005Q13.5793 0.755005 14.3279 0.956421Q15.0766 1.15784 15.5301 1.61133Q15.9863 2.06757 16.1793 2.80289Q16.3722 3.53821 16.3722 4.55734Z" fill="rgba(0,0,0,0.85)"/>
 </g>
</svg>
