<?xml version="1.0" encoding="UTF-8"?>
<!--Generator: Apple Native CoreSVG 175-->
<!DOCTYPE svg
PUBLIC "-//W3C//DTD SVG 1.1//EN"
       "http://www.w3.org/Graphics/SVG/1.1/DTD/svg11.dtd">
<svg version="1.1" xmlns="http://www.w3.org/2000/svg" xmlns:xlink="http://www.w3.org/1999/xlink" width="8.42896" height="21.3354">
 <g>
  <rect height="21.3354" opacity="0" width="8.42896" x="0" y="0"/>
  <path d="M2.13394 21.3332L6.29776 21.3332Q7.3262 21.3332 7.87758 20.7864Q8.42896 20.2397 8.42896 19.225L8.42896 2.10815Q8.42896 1.09604 7.87758 0.548019Q7.3262 0 6.29776 0L2.13394 0Q1.10275 0 0.551376 0.548019Q0 1.09604 0 2.10815L0 19.225Q0 20.2397 0.551376 20.7864Q1.10275 21.3332 2.13394 21.3332ZM2.1875 20.6386Q1.46805 20.6386 1.08406 20.2587Q0.700073 19.8788 0.700073 19.1605L0.700073 2.17529Q0.700073 1.45432 1.08406 1.07445Q1.46805 0.69458 2.1875 0.69458L6.24146 0.69458Q6.96091 0.69458 7.34489 1.07445Q7.72888 1.45432 7.72888 2.17529L7.72888 19.1605Q7.72888 19.8788 7.34489 20.2587Q6.96091 20.6386 6.24146 20.6386ZM4.2215 7.86407Q5.00702 7.86407 5.65231 7.481Q6.29761 7.09793 6.68068 6.45615Q7.06375 5.81436 7.06375 5.03159Q7.06375 4.24332 6.68068 3.5994Q6.29761 2.95547 5.65231 2.57248Q5.00702 2.18948 4.2215 2.18948Q3.42896 2.18948 2.78854 2.57248Q2.14813 2.95547 1.76506 3.5994Q1.38199 4.24332 1.38199 5.03159Q1.38199 5.81436 1.76506 6.45615Q2.14813 7.09793 2.78854 7.481Q3.42896 7.86407 4.2215 7.86407ZM2.79694 10.7523Q3.25317 10.7523 3.56918 10.4314Q3.88519 10.1105 3.88519 9.664Q3.88519 9.20074 3.56918 8.88474Q3.25317 8.56873 2.79694 8.56873Q2.3407 8.56873 2.02118 8.88474Q1.70166 9.20074 1.70166 9.664Q1.70166 10.1105 2.02118 10.4314Q2.3407 10.7523 2.79694 10.7523ZM5.6488 10.7523Q6.10504 10.7523 6.41975 10.4314Q6.73447 10.1105 6.73447 9.664Q6.73447 9.20074 6.41975 8.88474Q6.10504 8.56873 5.6488 8.56873Q5.19257 8.56873 4.87305 8.88474Q4.55353 9.20074 4.55353 9.664Q4.55353 10.1105 4.87305 10.4314Q5.19257 10.7523 5.6488 10.7523ZM2.79694 13.5164Q3.25317 13.5164 3.56918 13.1941Q3.88519 12.8719 3.88519 12.4113Q3.88519 11.9649 3.56918 11.6439Q3.25317 11.3229 2.79694 11.3229Q2.3407 11.3229 2.02118 11.6439Q1.70166 11.9649 1.70166 12.4113Q1.70166 12.8719 2.02118 13.1941Q2.3407 13.5164 2.79694 13.5164ZM2.79694 16.2706Q3.25317 16.2706 3.56918 15.9497Q3.88519 15.6288 3.88519 15.1823Q3.88519 14.7261 3.56918 14.4017Q3.25317 14.0773 2.79694 14.0773Q2.3407 14.0773 2.02118 14.4017Q1.70166 14.7261 1.70166 15.1823Q1.70166 15.6288 2.02118 15.9497Q2.3407 16.2706 2.79694 16.2706ZM5.63904 16.2706Q6.073 16.2706 6.37932 15.9692Q6.68564 15.6679 6.68564 15.2409L6.68564 12.3528Q6.68564 11.9231 6.37932 11.623Q6.073 11.3229 5.63904 11.3229Q5.21484 11.3229 4.91699 11.623Q4.61914 11.9231 4.61914 12.3528L4.61914 15.2409Q4.61914 15.6581 4.91699 15.9644Q5.21484 16.2706 5.63904 16.2706Z" fill="rgba(0,0,0,0.85)"/>
 </g>
</svg>
