<?xml version="1.0" encoding="UTF-8"?>
<!--Generator: Apple Native CoreSVG 175-->
<!DOCTYPE svg
PUBLIC "-//W3C//DTD SVG 1.1//EN"
       "http://www.w3.org/Graphics/SVG/1.1/DTD/svg11.dtd">
<svg version="1.1" xmlns="http://www.w3.org/2000/svg" xmlns:xlink="http://www.w3.org/1999/xlink" width="9.02344" height="21.3379">
 <g>
  <rect height="21.3379" opacity="0" width="9.02344" x="0" y="0"/>
  <path d="M0 19.3945Q0 20.332 0.507812 20.835Q1.01562 21.3379 1.96289 21.3379L7.06055 21.3379Q8.00781 21.3379 8.51562 20.835Q9.02344 20.332 9.02344 19.3945L9.02344 1.94336Q9.02344 1.00586 8.51562 0.50293Q8.00781 0 7.06055 0L1.96289 0Q1.01562 0 0.507812 0.50293Q0 1.00586 0 1.94336ZM2.75391 12.2852Q2.22656 12.2852 1.86035 11.9189Q1.49414 11.5527 1.49414 11.0547Q1.49414 10.5273 1.86035 10.1611Q2.22656 9.79492 2.75391 9.79492Q3.26172 9.79492 3.62793 10.1611Q3.99414 10.5273 3.99414 11.0547Q3.99414 11.5527 3.62793 11.9189Q3.26172 12.2852 2.75391 12.2852ZM6.2793 12.2852Q5.75195 12.2852 5.38574 11.9189Q5.01953 11.5527 5.01953 11.0547Q5.01953 10.5273 5.38574 10.1611Q5.75195 9.79492 6.2793 9.79492Q6.78711 9.79492 7.14844 10.1611Q7.50977 10.5273 7.50977 11.0547Q7.50977 11.5527 7.14844 11.9189Q6.78711 12.2852 6.2793 12.2852ZM4.50195 8.42773Q3.67188 8.42773 2.97363 8.0127Q2.27539 7.59766 1.86523 6.89941Q1.45508 6.20117 1.45508 5.36133Q1.45508 4.52148 1.86523 3.82812Q2.27539 3.13477 2.97363 2.71973Q3.67188 2.30469 4.50195 2.30469Q5.3418 2.30469 6.04004 2.71973Q6.73828 3.13477 7.15332 3.82812Q7.56836 4.52148 7.56836 5.36133Q7.56836 6.20117 7.15332 6.89941Q6.73828 7.59766 6.04004 8.0127Q5.3418 8.42773 4.50195 8.42773ZM4.52148 6.60156Q5.03906 6.60156 5.39551 6.23535Q5.75195 5.86914 5.75195 5.36133Q5.75195 4.85352 5.39551 4.49219Q5.03906 4.13086 4.52148 4.13086Q4.00391 4.13086 3.64258 4.49219Q3.28125 4.85352 3.28125 5.36133Q3.28125 5.86914 3.64258 6.23535Q4.00391 6.60156 4.52148 6.60156Z" fill="rgba(0,0,0,0.85)"/>
 </g>
</svg>
