<?xml version="1.0" encoding="UTF-8"?>
<!--Generator: Apple Native CoreSVG 175-->
<!DOCTYPE svg
PUBLIC "-//W3C//DTD SVG 1.1//EN"
       "http://www.w3.org/Graphics/SVG/1.1/DTD/svg11.dtd">
<svg version="1.1" xmlns="http://www.w3.org/2000/svg" xmlns:xlink="http://www.w3.org/1999/xlink" width="17.2852" height="17.4707">
 <g>
  <rect height="17.4707" opacity="0" width="17.2852" x="0" y="0"/>
  <path d="M2.62695 17.2852L14.6484 17.2852Q15.957 17.2852 16.6211 16.6162Q17.2852 15.9473 17.2852 14.6582L17.2852 2.62695Q17.2852 1.34766 16.6211 0.673828Q15.957 0 14.6484 0L2.62695 0Q1.33789 0 0.668945 0.664062Q0 1.32812 0 2.62695L0 14.6582Q0 15.957 0.668945 16.6211Q1.33789 17.2852 2.62695 17.2852ZM2.65625 16.5625Q1.70898 16.5625 1.2207 16.0742Q0.732422 15.5859 0.732422 14.6289L0.732422 2.66602Q0.732422 1.69922 1.2207 1.21582Q1.70898 0.732422 2.65625 0.732422L14.6289 0.732422Q15.5566 0.732422 16.0596 1.21582Q16.5625 1.69922 16.5625 2.66602L16.5625 14.6289Q16.5625 15.5859 16.0596 16.0742Q15.5566 16.5625 14.6289 16.5625ZM7.26562 13.1934Q8.29102 13.1934 9.04785 12.7393Q9.80469 12.2852 10.2197 11.4697Q10.6348 10.6543 10.6348 9.58984L10.6348 5.83008L10.6055 4.78516L11.0254 5.3125L12.7637 7.07031Q12.9004 7.19727 13.0469 7.19727Q13.1934 7.19727 13.2959 7.09961Q13.3984 7.00195 13.3984 6.8457Q13.3984 6.68945 13.2812 6.58203L10.6445 3.99414Q10.4883 3.83789 10.2832 3.83789Q10.0879 3.83789 9.94141 3.99414L7.29492 6.58203Q7.17773 6.69922 7.17773 6.8457Q7.17773 7.00195 7.28516 7.09961Q7.39258 7.19727 7.53906 7.19727Q7.67578 7.19727 7.8125 7.07031L9.58984 5.26367L9.98047 4.78516L9.94141 5.83008L9.94141 9.58984Q9.94141 10.8789 9.21875 11.6895Q8.49609 12.5 7.28516 12.5Q6.06445 12.5 5.32227 11.6943Q4.58008 10.8887 4.58008 9.58008Q4.58008 9.45312 4.58008 9.08203Q4.58008 8.71094 4.58008 8.37402Q4.58008 8.03711 4.58008 8.01758Q4.58008 7.86133 4.4873 7.76367Q4.39453 7.66602 4.23828 7.66602Q4.08203 7.66602 3.98926 7.76855Q3.89648 7.87109 3.89648 8.01758Q3.89648 8.04688 3.89648 8.37891Q3.89648 8.71094 3.89648 9.08203Q3.89648 9.45312 3.89648 9.58008Q3.89648 10.6543 4.31641 11.4697Q4.73633 12.2852 5.48828 12.7393Q6.24023 13.1934 7.26562 13.1934Z" fill="rgba(0,0,0,0.85)"/>
 </g>
</svg>
