<?xml version="1.0" encoding="UTF-8"?>
<!--Generator: Apple Native CoreSVG 175-->
<!DOCTYPE svg
PUBLIC "-//W3C//DTD SVG 1.1//EN"
       "http://www.w3.org/Graphics/SVG/1.1/DTD/svg11.dtd">
<svg version="1.1" xmlns="http://www.w3.org/2000/svg" xmlns:xlink="http://www.w3.org/1999/xlink" width="19.1602" height="19.1504">
 <g>
  <rect height="19.1504" opacity="0" width="19.1602" x="0" y="0"/>
  <path d="M9.57031 19.1406Q11.5527 19.1406 13.2861 18.3984Q15.0195 17.6562 16.3379 16.333Q17.6562 15.0098 18.4082 13.2764Q19.1602 11.543 19.1602 9.57031Q19.1602 7.59766 18.4082 5.86426Q17.6562 4.13086 16.3379 2.80762Q15.0195 1.48438 13.2861 0.742188Q11.5527 0 9.57031 0Q7.59766 0 5.86426 0.742188Q4.13086 1.48438 2.81738 2.80762Q1.50391 4.13086 0.751953 5.86426Q0 7.59766 0 9.57031Q0 11.543 0.74707 13.2764Q1.49414 15.0098 2.8125 16.333Q4.13086 17.6562 5.86914 18.3984Q7.60742 19.1406 9.57031 19.1406ZM9.58008 4.02344Q9.7168 4.02344 9.84375 4.14062L12.7832 7.08008Q12.8906 7.1875 12.8906 7.34375Q12.8906 7.49023 12.793 7.58301Q12.6953 7.67578 12.5586 7.67578Q12.4707 7.67578 12.4072 7.6416Q12.3438 7.60742 12.2949 7.54883L11.1426 6.39648L9.90234 5.12695L9.95117 6.61133L9.95117 12.5L9.90234 13.9844L11.1426 12.7148L12.2949 11.5625Q12.3438 11.5039 12.4072 11.4697Q12.4707 11.4355 12.5586 11.4355Q12.6953 11.4355 12.793 11.5283Q12.8906 11.6211 12.8906 11.7676Q12.8906 11.9238 12.7832 12.0312L9.84375 14.9707Q9.7168 15.0879 9.58008 15.0879Q9.44336 15.0879 9.31641 14.9707L6.38672 12.0312Q6.26953 11.9141 6.26953 11.7676Q6.26953 11.6211 6.36719 11.5283Q6.46484 11.4355 6.60156 11.4355Q6.68945 11.4355 6.75293 11.4697Q6.81641 11.5039 6.875 11.5625L8.02734 12.7148L9.25781 13.9746L9.21875 12.5L9.21875 6.61133L9.25781 5.13672L8.02734 6.39648L6.875 7.54883Q6.81641 7.60742 6.75293 7.6416Q6.68945 7.67578 6.60156 7.67578Q6.46484 7.67578 6.36719 7.58301Q6.26953 7.49023 6.26953 7.34375Q6.26953 7.19727 6.38672 7.08008L9.31641 4.14062Q9.44336 4.02344 9.58008 4.02344Z" fill="rgba(0,0,0,0.85)"/>
 </g>
</svg>
