<?xml version="1.0" encoding="UTF-8"?>
<!--Generator: Apple Native CoreSVG 175-->
<!DOCTYPE svg
PUBLIC "-//W3C//DTD SVG 1.1//EN"
       "http://www.w3.org/Graphics/SVG/1.1/DTD/svg11.dtd">
<svg version="1.1" xmlns="http://www.w3.org/2000/svg" xmlns:xlink="http://www.w3.org/1999/xlink" width="18.1754" height="14.7824">
 <g>
  <rect height="14.7824" opacity="0" width="18.1754" x="0" y="0"/>
  <path d="M17.7637 14.3938Q17.8839 14.3938 17.9599 14.3439Q18.0359 14.2941 18.0773 14.2125Q18.1187 14.1309 18.1395 14.034Q18.1673 13.9008 18.1713 13.5506Q18.1754 13.2004 18.1754 12.7777Q18.1754 9.57733 16.6976 8.16772Q15.2199 6.75812 12.1019 6.75812L3.48984 6.75812L1.20285 6.79642L3.55164 4.49875L7.38602 0.653534Q7.43988 0.592651 7.46681 0.522919Q7.49374 0.453186 7.49374 0.375824Q7.49374 0.218353 7.38319 0.109177Q7.27264 0 7.10815 0Q6.93939 0 6.73248 0.208588L0.140991 6.83243Q0 6.96793 0 7.13516Q0 7.3024 0.140991 7.44766L6.8222 14.1614Q6.93939 14.2801 7.10815 14.2801Q7.27264 14.2801 7.38319 14.1709Q7.49374 14.0617 7.49374 13.9043Q7.49374 13.8199 7.4633 13.7453Q7.43286 13.6707 7.38602 13.6238L3.55164 9.77859L1.2001 7.48093L3.48984 7.52182L12.0844 7.52182Q13.9235 7.52182 15.1025 8.06053Q16.2816 8.59924 16.8474 9.76799Q17.4132 10.9367 17.4132 12.8235Q17.4132 13.2848 17.3999 13.5836Q17.3866 13.8824 17.3866 14.0027Q17.3866 14.1727 17.4937 14.2832Q17.6007 14.3938 17.7637 14.3938Z" fill="rgba(0,0,0,0.85)"/>
 </g>
</svg>
