<?xml version="1.0" encoding="UTF-8"?>
<!--Generator: Apple Native CoreSVG 175-->
<!DOCTYPE svg
PUBLIC "-//W3C//DTD SVG 1.1//EN"
       "http://www.w3.org/Graphics/SVG/1.1/DTD/svg11.dtd">
<svg version="1.1" xmlns="http://www.w3.org/2000/svg" xmlns:xlink="http://www.w3.org/1999/xlink" width="17.2852" height="17.3145">
 <g>
  <rect height="17.3145" opacity="0" width="17.2852" x="0" y="0"/>
  <path d="M2.62695 17.3145L14.6484 17.3145Q15.957 17.3145 16.6211 16.6455Q17.2852 15.9766 17.2852 14.6875L17.2852 2.65625Q17.2852 1.37695 16.6211 0.703125Q15.957 0.0292969 14.6484 0.0292969L2.62695 0.0292969Q1.33789 0.0292969 0.668945 0.693359Q0 1.35742 0 2.65625L0 14.6875Q0 15.9863 0.668945 16.6504Q1.33789 17.3145 2.62695 17.3145ZM2.65625 16.5918Q1.70898 16.5918 1.2207 16.1035Q0.732422 15.6152 0.732422 14.6582L0.732422 2.69531Q0.732422 1.72852 1.2207 1.24512Q1.70898 0.761719 2.65625 0.761719L14.6289 0.761719Q15.5566 0.761719 16.0596 1.24512Q16.5625 1.72852 16.5625 2.69531L16.5625 14.6582Q16.5625 15.6152 16.0596 16.1035Q15.5566 16.5918 14.6289 16.5918ZM13.3203 9.79492Q13.3203 8.7793 12.8662 8.02246Q12.4121 7.26562 11.6016 6.85059Q10.791 6.43555 9.7168 6.43555L5.95703 6.43555L4.91211 6.46484L5.43945 6.04492L7.1875 4.29688Q7.32422 4.16992 7.32422 4.02344Q7.32422 3.87695 7.22656 3.77441Q7.12891 3.67188 6.97266 3.67188Q6.82617 3.67188 6.70898 3.7793L4.11133 6.42578Q3.96484 6.58203 3.96484 6.77734Q3.96484 6.97266 4.11133 7.12891L6.70898 9.77539Q6.82617 9.88281 6.97266 9.88281Q7.12891 9.88281 7.22656 9.78027Q7.32422 9.67773 7.32422 9.53125Q7.32422 9.38477 7.19727 9.25781L5.40039 7.4707L4.91211 7.08984L5.95703 7.11914L9.7168 7.11914Q11.0059 7.11914 11.8164 7.8418Q12.627 8.56445 12.627 9.78516Q12.627 11.0059 11.8213 11.7432Q11.0156 12.4805 9.7168 12.4805Q9.58008 12.4805 9.20898 12.4805Q8.83789 12.4805 8.50586 12.4805Q8.17383 12.4805 8.14453 12.4805Q7.99805 12.4805 7.89551 12.5684Q7.79297 12.6562 7.79297 12.8223Q7.79297 12.9883 7.89551 13.0811Q7.99805 13.1738 8.1543 13.1738Q8.17383 13.1738 8.51074 13.1738Q8.84766 13.1738 9.21387 13.1738Q9.58008 13.1738 9.7168 13.1738Q10.7812 13.1738 11.5967 12.7539Q12.4121 12.334 12.8662 11.5771Q13.3203 10.8203 13.3203 9.79492Z" fill="rgba(0,0,0,0.85)"/>
 </g>
</svg>
