<?xml version="1.0" encoding="UTF-8"?>
<!--Generator: Apple Native CoreSVG 175-->
<!DOCTYPE svg
PUBLIC "-//W3C//DTD SVG 1.1//EN"
       "http://www.w3.org/Graphics/SVG/1.1/DTD/svg11.dtd">
<svg version="1.1" xmlns="http://www.w3.org/2000/svg" xmlns:xlink="http://www.w3.org/1999/xlink" width="19.4727" height="23.9746">
 <g>
  <rect height="23.9746" opacity="0" width="19.4727" x="0" y="0"/>
  <path d="M4.72656 4.9707L12.4512 4.9707Q13.0273 4.9707 13.4619 5.23438Q13.8965 5.49805 14.1357 5.97656Q14.375 6.45508 14.375 7.08984L14.375 19.4043L16.8457 19.4043Q18.1348 19.4043 18.8037 18.7354Q19.4727 18.0664 19.4727 16.7676L19.4727 2.63672Q19.4727 1.34766 18.8037 0.673828Q18.1348 0 16.8457 0L7.35352 0Q6.07422 0 5.40039 0.668945Q4.72656 1.33789 4.72656 2.63672ZM9.48242 2.42188L9.48242 2.26562Q9.48242 2.09961 9.59961 1.96777Q9.7168 1.83594 9.96094 1.83594L14.2285 1.83594Q14.4727 1.83594 14.5947 1.96777Q14.7168 2.09961 14.7168 2.26562L14.7168 2.42188Q14.7168 2.59766 14.5947 2.73438Q14.4727 2.87109 14.2285 2.87109L9.96094 2.87109Q9.7168 2.87109 9.59961 2.73438Q9.48242 2.59766 9.48242 2.42188ZM0 21.3184Q0 22.6172 0.664062 23.2861Q1.32812 23.9551 2.62695 23.9551L12.1191 23.9551Q13.4082 23.9551 14.0771 23.2861Q14.7461 22.6172 14.7461 21.3184L14.7461 7.1875Q14.7461 5.88867 14.0771 5.21973Q13.4082 4.55078 12.1191 4.55078L2.62695 4.55078Q1.32812 4.55078 0.664062 5.21973Q0 5.88867 0 7.1875ZM0.732422 21.2988L0.732422 7.20703Q0.732422 6.25977 1.21582 5.77148Q1.69922 5.2832 2.65625 5.2832L12.0801 5.2832Q13.0371 5.2832 13.5254 5.77148Q14.0137 6.25977 14.0137 7.20703L14.0137 21.2988Q14.0137 22.2461 13.5254 22.7344Q13.0371 23.2227 12.0801 23.2227L2.65625 23.2227Q1.69922 23.2227 1.21582 22.7344Q0.732422 22.2461 0.732422 21.2988ZM2.79297 14.2578Q2.79297 14.3945 2.88086 14.4824Q2.96875 14.5703 3.125 14.5703L9.10156 14.5703L10.4883 14.5508L9.27734 15.7422L7.89062 17.1289Q7.76367 17.2461 7.76367 17.3828Q7.76367 17.5098 7.85156 17.5977Q7.93945 17.6855 8.07617 17.6855Q8.20312 17.6855 8.31055 17.5879L11.416 14.4824Q11.5234 14.375 11.5234 14.248Q11.5234 14.1211 11.416 14.0137L8.31055 10.9082Q8.20312 10.8008 8.07617 10.8008Q7.93945 10.8008 7.85156 10.8936Q7.76367 10.9863 7.76367 11.1133Q7.76367 11.2305 7.89062 11.3574L9.27734 12.7539L10.498 13.9551L9.10156 13.9258L3.125 13.9258Q2.97852 13.9258 2.88574 14.0088Q2.79297 14.0918 2.79297 14.2578Z" fill="rgba(0,0,0,0.85)"/>
 </g>
</svg>
