<?xml version="1.0" encoding="UTF-8"?>
<!--Generator: Apple Native CoreSVG 175-->
<!DOCTYPE svg
PUBLIC "-//W3C//DTD SVG 1.1//EN"
       "http://www.w3.org/Graphics/SVG/1.1/DTD/svg11.dtd">
<svg version="1.1" xmlns="http://www.w3.org/2000/svg" xmlns:xlink="http://www.w3.org/1999/xlink" width="19.1602" height="19.1504">
 <g>
  <rect height="19.1504" opacity="0" width="19.1602" x="0" y="0"/>
  <path d="M9.57031 19.1406Q11.5527 19.1406 13.2861 18.3984Q15.0195 17.6562 16.3379 16.333Q17.6562 15.0098 18.4082 13.2764Q19.1602 11.543 19.1602 9.57031Q19.1602 7.59766 18.4082 5.86426Q17.6562 4.13086 16.3379 2.80762Q15.0195 1.48438 13.2861 0.742188Q11.5527 0 9.57031 0Q7.59766 0 5.86426 0.742188Q4.13086 1.48438 2.81738 2.80762Q1.50391 4.13086 0.751953 5.86426Q0 7.59766 0 9.57031Q0 11.543 0.74707 13.2764Q1.49414 15.0098 2.8125 16.333Q4.13086 17.6562 5.86914 18.3984Q7.60742 19.1406 9.57031 19.1406ZM9.57031 18.3984Q7.74414 18.3984 6.14746 17.71Q4.55078 17.0215 3.33496 15.8105Q2.11914 14.5996 1.43555 12.998Q0.751953 11.3965 0.751953 9.57031Q0.751953 7.74414 1.43555 6.14258Q2.11914 4.54102 3.33496 3.3252Q4.55078 2.10938 6.14746 1.4209Q7.74414 0.732422 9.57031 0.732422Q11.4062 0.732422 13.0029 1.4209Q14.5996 2.10938 15.8154 3.3252Q17.0312 4.54102 17.7197 6.14258Q18.4082 7.74414 18.4082 9.57031Q18.4082 11.3965 17.7246 12.998Q17.041 14.5996 15.8252 15.8105Q14.6094 17.0215 13.0078 17.71Q11.4062 18.3984 9.57031 18.3984ZM8.19336 14.1309Q9.21875 14.1309 9.97559 13.6768Q10.7324 13.2227 11.1475 12.4072Q11.5625 11.5918 11.5625 10.5273L11.5625 6.76758L11.5332 5.72266L11.9531 6.25L13.6914 8.00781Q13.8281 8.13477 13.9746 8.13477Q14.1211 8.13477 14.2236 8.03711Q14.3262 7.93945 14.3262 7.7832Q14.3262 7.62695 14.209 7.51953L11.5723 4.93164Q11.416 4.77539 11.2109 4.77539Q11.0156 4.77539 10.8691 4.93164L8.22266 7.51953Q8.10547 7.63672 8.10547 7.7832Q8.10547 7.93945 8.21289 8.03711Q8.32031 8.13477 8.4668 8.13477Q8.60352 8.13477 8.74023 8.00781L10.5176 6.20117L10.9082 5.72266L10.8691 6.76758L10.8691 10.5273Q10.8691 11.8164 10.1465 12.627Q9.42383 13.4375 8.21289 13.4375Q6.99219 13.4375 6.25 12.6318Q5.50781 11.8262 5.50781 10.5176Q5.50781 10.3906 5.50781 10.0195Q5.50781 9.64844 5.50781 9.31152Q5.50781 8.97461 5.50781 8.95508Q5.50781 8.79883 5.41504 8.70117Q5.32227 8.60352 5.16602 8.60352Q5.00977 8.60352 4.91699 8.70605Q4.82422 8.80859 4.82422 8.95508Q4.82422 8.98438 4.82422 9.31641Q4.82422 9.64844 4.82422 10.0195Q4.82422 10.3906 4.82422 10.5176Q4.82422 11.5918 5.24414 12.4072Q5.66406 13.2227 6.41602 13.6768Q7.16797 14.1309 8.19336 14.1309Z" fill="rgba(0,0,0,0.85)"/>
 </g>
</svg>
