<?xml version="1.0" encoding="UTF-8"?>
<!--Generator: Apple Native CoreSVG 175-->
<!DOCTYPE svg
PUBLIC "-//W3C//DTD SVG 1.1//EN"
       "http://www.w3.org/Graphics/SVG/1.1/DTD/svg11.dtd">
<svg version="1.1" xmlns="http://www.w3.org/2000/svg" xmlns:xlink="http://www.w3.org/1999/xlink" width="18.1754" height="15.0238">
 <g>
  <rect height="15.0238" opacity="0" width="18.1754" x="0" y="0"/>
  <path d="M0.411682 0Q0.291443 0 0.215454 0.0484467Q0.139465 0.0968933 0.0980377 0.178528Q0.0566101 0.260162 0.0386047 0.364075Q0.0109863 0.497284 0.00549316 0.848846Q0 1.20041 0 1.62308Q0 4.81644 1.47774 6.22948Q2.95547 7.64252 6.08047 7.64252L14.6855 7.64252L16.9727 7.60437L14.6237 9.89929L10.7965 13.7445Q10.7425 13.7984 10.7156 13.8695Q10.6886 13.9406 10.6886 14.025Q10.6886 14.1824 10.8006 14.2916Q10.9125 14.4008 11.077 14.4008Q11.2387 14.4008 11.45 14.1922L18.0344 7.56836Q18.1754 7.4231 18.1754 7.25586Q18.1754 7.08862 18.0344 6.95312L11.3531 0.236664Q11.2387 0.120697 11.077 0.120697Q10.9125 0.120697 10.8006 0.229874Q10.6886 0.33905 10.6886 0.496521Q10.6886 0.573883 10.7204 0.650635Q10.7523 0.727386 10.7965 0.774231L14.6237 4.61945L16.9754 6.91986L14.6855 6.87881L6.09802 6.87881Q4.25201 6.87881 3.07289 6.33881Q1.89377 5.7988 1.33148 4.63005Q0.769196 3.4613 0.769196 1.57028Q0.769196 1.10626 0.780334 0.808792Q0.791473 0.511322 0.791473 0.388184Q0.791473 0.218353 0.686569 0.109177Q0.581665 0 0.411682 0Z" fill="rgba(0,0,0,0.85)"/>
 </g>
</svg>
