<?xml version="1.0" encoding="UTF-8"?>
<!--Generator: Apple Native CoreSVG 175-->
<!DOCTYPE svg
PUBLIC "-//W3C//DTD SVG 1.1//EN"
       "http://www.w3.org/Graphics/SVG/1.1/DTD/svg11.dtd">
<svg version="1.1" xmlns="http://www.w3.org/2000/svg" xmlns:xlink="http://www.w3.org/1999/xlink" width="25.6543" height="17.5879">
 <g>
  <rect height="17.5879" opacity="0" width="25.6543" x="0" y="0"/>
  <path d="M8.51562 17.5879Q8.66211 17.5879 8.78418 17.5049Q8.90625 17.4219 8.94531 17.2754Q9.44336 15.4688 10.2539 14.3945Q11.0645 13.3203 12.2754 12.8418Q13.4863 12.3633 15.1953 12.3633L15.8984 12.3828L15.8984 16.4941Q15.8984 16.8164 16.084 17.041Q16.2695 17.2656 16.6113 17.2656Q16.8555 17.2656 17.0557 17.1533Q17.2559 17.041 17.4414 16.875L25.0977 9.74609Q25.4492 9.4043 25.5518 9.17969Q25.6543 8.95508 25.6543 8.75Q25.6543 8.54492 25.5566 8.31543Q25.459 8.08594 25.0977 7.74414L17.4414 0.634766Q17.2461 0.449219 17.0508 0.336914Q16.8555 0.224609 16.6211 0.224609Q16.2793 0.224609 16.0889 0.458984Q15.8984 0.693359 15.8984 1.01562L15.8984 5.19531L15.4883 5.19531Q13.5156 5.19531 12.0605 5.9082Q10.6055 6.62109 9.71191 8.13477Q8.81836 9.64844 8.52539 12.041L8.48633 12.041Q8.18359 9.60938 7.30469 8.10059Q6.42578 6.5918 5.00488 5.89355Q3.58398 5.19531 1.66016 5.19531Q1.57227 5.19531 1.46973 5.19531Q1.36719 5.19531 1.24023 5.19531Q0.634766 5.19531 0.317383 5.49805Q0 5.80078 0 6.48438L0 11.1621Q0 11.7871 0.3125 12.0752Q0.625 12.3633 1.2207 12.3633Q1.38672 12.3633 1.55273 12.3633Q1.71875 12.3633 1.89453 12.3633Q3.59375 12.3633 4.80469 12.8711Q6.01562 13.3789 6.81152 14.4629Q7.60742 15.5469 8.07617 17.2754Q8.11523 17.4219 8.23242 17.5049Q8.34961 17.5879 8.51562 17.5879ZM8.18359 15.8887Q7.64648 14.2578 6.79688 13.3447Q5.94727 12.4316 4.73145 12.0508Q3.51562 11.6699 1.86523 11.6699Q1.70898 11.6699 1.55762 11.6699Q1.40625 11.6699 1.25 11.6699Q0.732422 11.6699 0.732422 11.0742L0.732422 6.48438Q0.732422 5.88867 1.25977 5.88867Q1.35742 5.88867 1.46484 5.88867Q1.57227 5.88867 1.67969 5.88867Q3.19336 5.89844 4.39941 6.42578Q5.60547 6.95312 6.4502 8.12012Q7.29492 9.28711 7.75391 11.2012Q8.21289 13.1152 8.22266 15.8887ZM16.7969 16.3867Q16.6309 16.3867 16.6309 16.1816L16.6309 11.9434Q16.6309 11.6797 16.3574 11.6797L15.1953 11.6699Q13.5156 11.6699 12.2852 12.0557Q11.0547 12.4414 10.21 13.3643Q9.36523 14.2871 8.83789 15.8887L8.79883 15.8887Q8.80859 12.2656 9.58008 10.0684Q10.3516 7.87109 11.8164 6.87988Q13.2812 5.88867 15.3906 5.88867L16.3574 5.89844Q16.6309 5.89844 16.6309 5.63477L16.6309 1.2793Q16.6309 1.10352 16.8066 1.10352Q16.875 1.10352 16.9336 1.14746Q16.9922 1.19141 17.0508 1.24023L24.5703 8.24219Q24.873 8.53516 24.873 8.75Q24.873 8.86719 24.8096 8.97949Q24.7461 9.0918 24.5703 9.24805L17.0508 16.25Q16.8945 16.3867 16.7969 16.3867Z" fill="rgba(0,0,0,0.85)"/>
 </g>
</svg>
