<?xml version="1.0" encoding="UTF-8"?>
<!--Generator: Apple Native CoreSVG 175-->
<!DOCTYPE svg
PUBLIC "-//W3C//DTD SVG 1.1//EN"
       "http://www.w3.org/Graphics/SVG/1.1/DTD/svg11.dtd">
<svg version="1.1" xmlns="http://www.w3.org/2000/svg" xmlns:xlink="http://www.w3.org/1999/xlink" width="19.1602" height="19.1504">
 <g>
  <rect height="19.1504" opacity="0" width="19.1602" x="0" y="0"/>
  <path d="M9.57031 19.1406Q11.5527 19.1406 13.2861 18.3984Q15.0195 17.6562 16.3379 16.333Q17.6562 15.0098 18.4082 13.2764Q19.1602 11.543 19.1602 9.57031Q19.1602 7.59766 18.4082 5.86426Q17.6562 4.13086 16.3379 2.80762Q15.0195 1.48438 13.2861 0.742188Q11.5527 0 9.57031 0Q7.59766 0 5.86426 0.742188Q4.13086 1.48438 2.81738 2.80762Q1.50391 4.13086 0.751953 5.86426Q0 7.59766 0 9.57031Q0 11.543 0.74707 13.2764Q1.49414 15.0098 2.8125 16.333Q4.13086 17.6562 5.86914 18.3984Q7.60742 19.1406 9.57031 19.1406ZM9.57031 18.3984Q7.74414 18.3984 6.14746 17.71Q4.55078 17.0215 3.33496 15.8105Q2.11914 14.5996 1.43555 12.998Q0.751953 11.3965 0.751953 9.57031Q0.751953 7.74414 1.43555 6.14258Q2.11914 4.54102 3.33496 3.3252Q4.55078 2.10938 6.14746 1.4209Q7.74414 0.732422 9.57031 0.732422Q11.4062 0.732422 13.0029 1.4209Q14.5996 2.10938 15.8154 3.3252Q17.0312 4.54102 17.7197 6.14258Q18.4082 7.74414 18.4082 9.57031Q18.4082 11.3965 17.7246 12.998Q17.041 14.5996 15.8252 15.8105Q14.6094 17.0215 13.0078 17.71Q11.4062 18.3984 9.57031 18.3984ZM7.25586 13.7695Q7.44141 13.7695 7.54883 13.6523Q7.65625 13.5352 7.65625 13.3691L7.65625 12.4707L4.82422 9.86328Q4.55078 9.59961 4.44824 9.38477Q4.3457 9.16992 4.3457 8.94531Q4.3457 8.73047 4.45312 8.50586Q4.56055 8.28125 4.82422 8.03711L7.65625 5.41992L7.65625 4.52148Q7.65625 4.36523 7.54883 4.24805Q7.44141 4.13086 7.25586 4.13086Q7.11914 4.13086 7.0166 4.18945Q6.91406 4.24805 6.80664 4.3457L2.46094 8.37891Q2.26562 8.57422 2.20703 8.70117Q2.14844 8.82812 2.14844 8.94531Q2.14844 9.07227 2.20703 9.19434Q2.26562 9.31641 2.46094 9.51172L6.80664 13.5449Q6.91406 13.6328 7.0166 13.7012Q7.11914 13.7695 7.25586 13.7695ZM9.94141 13.7695Q10.1367 13.7695 10.2393 13.6475Q10.3418 13.5254 10.3418 13.3301L10.3418 10.9961L10.5762 10.9961Q12.4805 10.9961 13.667 11.5576Q14.8535 12.1191 15.4102 13.4473Q15.4883 13.623 15.5957 13.6963Q15.7031 13.7695 15.8301 13.7695Q15.9961 13.7695 16.1035 13.6523Q16.2109 13.5352 16.2109 13.3203Q16.2109 11.123 15.5225 9.71191Q14.834 8.30078 13.5693 7.62695Q12.3047 6.95312 10.5762 6.95312L10.3418 6.95312L10.3418 4.56055Q10.3418 4.38477 10.2393 4.25781Q10.1367 4.13086 9.95117 4.13086Q9.81445 4.13086 9.70703 4.18457Q9.59961 4.23828 9.48242 4.3457L5.15625 8.37891Q4.95117 8.57422 4.89746 8.70117Q4.84375 8.82812 4.84375 8.94531Q4.84375 9.07227 4.89746 9.19922Q4.95117 9.32617 5.15625 9.51172L9.48242 13.5449Q9.58984 13.6426 9.70215 13.7061Q9.81445 13.7695 9.94141 13.7695Z" fill="rgba(0,0,0,0.85)"/>
 </g>
</svg>
