<?xml version="1.0" encoding="UTF-8"?>
<!--Generator: Apple Native CoreSVG 175-->
<!DOCTYPE svg
PUBLIC "-//W3C//DTD SVG 1.1//EN"
       "http://www.w3.org/Graphics/SVG/1.1/DTD/svg11.dtd">
<svg version="1.1" xmlns="http://www.w3.org/2000/svg" xmlns:xlink="http://www.w3.org/1999/xlink" width="18.8477" height="14.7168">
 <g>
  <rect height="14.7168" opacity="0" width="18.8477" x="0" y="0"/>
  <path d="M0.380859 14.2285Q0.546875 14.2285 0.654297 14.1211Q0.761719 14.0137 0.761719 13.8672L0.761719 0.380859Q0.761719 0.214844 0.654297 0.107422Q0.546875 0 0.380859 0Q0.224609 0 0.112305 0.107422Q0 0.214844 0 0.380859L0 13.8672Q0 14.0137 0.112305 14.1211Q0.224609 14.2285 0.380859 14.2285ZM7.82227 14.2285Q7.98828 14.2285 8.0957 14.126Q8.20312 14.0234 8.20312 13.8672Q8.20312 13.7891 8.17383 13.7158Q8.14453 13.6426 8.10547 13.5938L4.19922 9.67773L1.70898 7.28516L1.64062 7.45117L3.96484 7.49023L18.4766 7.49023Q18.6328 7.49023 18.7402 7.38281Q18.8477 7.27539 18.8477 7.11914Q18.8477 6.95312 18.7402 6.85059Q18.6328 6.74805 18.4766 6.74805L3.96484 6.74805L1.64062 6.78711L1.70898 6.95312L4.19922 4.55078L8.10547 0.644531Q8.14453 0.595703 8.17383 0.517578Q8.20312 0.439453 8.20312 0.361328Q8.20312 0.205078 8.0957 0.102539Q7.98828 0 7.82227 0Q7.67578 0 7.55859 0.117188L0.869141 6.83594Q0.800781 6.89453 0.771484 6.96289Q0.742188 7.03125 0.742188 7.11914Q0.742188 7.19727 0.771484 7.26562Q0.800781 7.33398 0.869141 7.39258L7.55859 14.1211Q7.67578 14.2285 7.82227 14.2285Z" fill="rgba(0,0,0,0.85)"/>
 </g>
</svg>
