<?xml version="1.0" encoding="UTF-8"?>
<!--Generator: Apple Native CoreSVG 175-->
<!DOCTYPE svg
PUBLIC "-//W3C//DTD SVG 1.1//EN"
       "http://www.w3.org/Graphics/SVG/1.1/DTD/svg11.dtd">
<svg version="1.1" xmlns="http://www.w3.org/2000/svg" xmlns:xlink="http://www.w3.org/1999/xlink" width="21.0657" height="17.3331">
 <g>
  <rect height="17.3331" opacity="0" width="21.0657" x="0" y="0"/>
  <path d="M5.14175 0.129261L0.146942 5.11629Q0 5.26598 0 5.43749Q0 5.60305 0.109177 5.71222Q0.218353 5.8214 0.381317 5.8214Q0.552826 5.8214 0.694122 5.67308L3.16132 3.19368L5.08514 1.2015L5.04379 3.28157L5.04379 16.9203Q5.04379 17.0761 5.15083 17.1916Q5.25787 17.307 5.42343 17.307Q5.59341 17.307 5.70045 17.1916Q5.8075 17.0761 5.8075 16.9203L5.8075 3.28157L5.76874 1.2015L7.68982 3.19368L10.1598 5.67308Q10.2985 5.8214 10.47 5.8214Q10.6328 5.8214 10.742 5.71222Q10.8511 5.60305 10.8511 5.43749Q10.8511 5.26598 10.7043 5.11629L5.71213 0.129261Q5.59341 0.00505452 5.43053 0.000171703Q5.26764-0.00471111 5.14175 0.129261ZM15.9337 17.1855L20.9259 12.2Q21.0657 12.0531 21.0657 11.8718Q21.0657 11.7133 20.96 11.6054Q20.8543 11.4975 20.6915 11.4975Q20.513 11.4975 20.3743 11.6362L17.9141 14.1156L15.9903 16.1104L16.0291 14.0303L16.0291 0.391712Q16.0291 0.23592 15.922 0.120487Q15.815 0.00505452 15.645 0.00505452Q15.475 0.00505452 15.3701 0.120487Q15.2652 0.23592 15.2652 0.391712L15.2652 14.0303L15.3067 16.1104L13.3759 14.1156L10.9157 11.6362Q10.7742 11.4975 10.5984 11.4975Q10.4356 11.4975 10.3286 11.6054Q10.2216 11.7133 10.2216 11.8718Q10.2216 12.0531 10.3711 12.2L15.3633 17.1855Q15.475 17.307 15.6401 17.3119Q15.8052 17.3168 15.9337 17.1855Z" fill="rgba(0,0,0,0.85)"/>
 </g>
</svg>
