<?xml version="1.0" encoding="UTF-8"?>
<!--Generator: Apple Native CoreSVG 175-->
<!DOCTYPE svg
PUBLIC "-//W3C//DTD SVG 1.1//EN"
       "http://www.w3.org/Graphics/SVG/1.1/DTD/svg11.dtd">
<svg version="1.1" xmlns="http://www.w3.org/2000/svg" xmlns:xlink="http://www.w3.org/1999/xlink" width="14.0652" height="14.0472">
 <g>
  <rect height="14.0472" opacity="0" width="14.0652" x="0" y="0"/>
  <path d="M0 3.42026L0.0308228 13.6383Q0.0308228 13.8121 0.144119 13.9268Q0.257416 14.0414 0.436707 14.0414L10.6618 14.0414Q10.8398 14.0414 10.9531 13.9289Q11.0664 13.8164 11.0664 13.6546Q11.0664 13.4999 10.949 13.3994Q10.8316 13.2988 10.6726 13.2988L5.33371 13.2988L1.19385 13.3566L2.78519 11.8324L13.9536 0.661316Q14.0652 0.542603 14.0652 0.390625Q14.0652 0.289764 14.0121 0.199356Q13.959 0.108948 13.8721 0.0544739Q13.7851 0 13.6746 0Q13.5339 0 13.4109 0.130005L2.23984 11.2898L0.726929 12.8741L0.776215 9.55811L0.776215 3.40942Q0.776215 3.24768 0.668564 3.13377Q0.560913 3.01987 0.396576 3.01987Q0.234833 3.01987 0.117416 3.1324Q0 3.24493 0 3.42026Z" fill="rgba(0,0,0,0.85)"/>
 </g>
</svg>
