<?xml version="1.0" encoding="UTF-8"?>
<!--Generator: Apple Native CoreSVG 175-->
<!DOCTYPE svg
PUBLIC "-//W3C//DTD SVG 1.1//EN"
       "http://www.w3.org/Graphics/SVG/1.1/DTD/svg11.dtd">
<svg version="1.1" xmlns="http://www.w3.org/2000/svg" xmlns:xlink="http://www.w3.org/1999/xlink" width="20.0977" height="17.041">
 <g>
  <rect height="17.041" opacity="0" width="20.0977" x="0" y="0"/>
  <path d="M9.0332 17.0312Q9.375 17.0312 9.56055 16.8115Q9.74609 16.5918 9.74609 16.2598L9.74609 12.1484L10.1562 12.1484Q12.3926 12.1484 14.0479 12.5781Q15.7031 13.0078 16.8457 13.9551Q17.9883 14.9023 18.6816 16.4551Q18.8281 16.7871 19.0088 16.9092Q19.1895 17.0312 19.4336 17.0312Q19.707 17.0312 19.9023 16.8164Q20.0977 16.6016 20.0977 16.2207Q20.0977 13.3203 19.4092 11.1963Q18.7207 9.07227 17.4219 7.68555Q16.123 6.29883 14.2871 5.62988Q12.4512 4.96094 10.1562 4.96094L9.74609 4.96094L9.74609 0.78125Q9.74609 0.449219 9.56055 0.224609Q9.375 0 9.02344 0Q8.78906 0 8.59375 0.107422Q8.39844 0.214844 8.21289 0.400391L0.556641 7.51953Q0.195312 7.85156 0.0976562 8.08105Q0 8.31055 0 8.51562Q0 8.7207 0.0976562 8.9502Q0.195312 9.17969 0.556641 9.51172L8.21289 16.6504Q8.38867 16.8164 8.58887 16.9238Q8.78906 17.0312 9.0332 17.0312ZM8.85742 16.1426Q8.75 16.1426 8.60352 16.0059L1.08398 9.01367Q0.898438 8.85742 0.834961 8.74023Q0.771484 8.62305 0.771484 8.51562Q0.771484 8.29102 1.08398 8.01758L8.59375 0.996094Q8.65234 0.947266 8.71094 0.908203Q8.76953 0.869141 8.84766 0.869141Q9.01367 0.869141 9.01367 1.04492L9.01367 5.40039Q9.01367 5.66406 9.28711 5.66406L10.0781 5.66406Q11.875 5.66406 13.3496 6.08398Q14.8242 6.50391 15.9521 7.34375Q17.0801 8.18359 17.8516 9.43359Q18.623 10.6836 19.0234 12.3291Q19.4238 13.9746 19.4434 16.0156Q19.4434 16.1719 19.3066 16.1719Q19.2383 16.1719 19.1992 16.1133Q19.1602 16.0547 19.1309 15.9766Q18.4961 14.4238 17.29 13.418Q16.084 12.4121 14.2871 11.9287Q12.4902 11.4453 10.0781 11.4453L9.28711 11.4453Q9.01367 11.4453 9.01367 11.709L9.01367 15.9473Q9.01367 16.1426 8.85742 16.1426Z" fill="rgba(0,0,0,0.85)"/>
 </g>
</svg>
