<?xml version="1.0" encoding="UTF-8"?>
<!--Generator: Apple Native CoreSVG 175-->
<!DOCTYPE svg
PUBLIC "-//W3C//DTD SVG 1.1//EN"
       "http://www.w3.org/Graphics/SVG/1.1/DTD/svg11.dtd">
<svg version="1.1" xmlns="http://www.w3.org/2000/svg" xmlns:xlink="http://www.w3.org/1999/xlink" width="23.2129" height="17.3145">
 <g>
  <rect height="17.3145" opacity="0" width="23.2129" x="0" y="0"/>
  <path d="M6.65039 17.3145L16.5625 17.3145Q17.8418 17.3145 18.4668 16.6357Q19.0918 15.957 19.2773 14.7168L20.7324 5.18555L2.48047 5.18555L3.93555 14.7168Q4.13086 15.9863 4.75098 16.6504Q5.37109 17.3145 6.65039 17.3145ZM1.38672 4.30664L21.8359 4.30664Q22.4805 4.30664 22.8467 3.91602Q23.2129 3.52539 23.2129 2.87109L23.2129 1.47461Q23.2129 0.820312 22.8467 0.424805Q22.4805 0.0292969 21.8359 0.0292969L1.38672 0.0292969Q0.742188 0.0292969 0.371094 0.424805Q0 0.820312 0 1.47461L0 2.87109Q0 3.52539 0.366211 3.91602Q0.732422 4.30664 1.38672 4.30664ZM11.9727 14.8926Q11.9727 15.0391 11.8652 15.1416Q11.7578 15.2441 11.6113 15.2441Q11.4551 15.2441 11.3525 15.1416Q11.25 15.0391 11.25 14.8926L11.25 10.0488L11.2793 8.01758L9.43359 9.89258L8.73047 10.6152Q8.68164 10.6641 8.6084 10.6934Q8.53516 10.7227 8.4668 10.7227Q8.31055 10.7227 8.21289 10.625Q8.11523 10.5273 8.11523 10.3711Q8.11523 10.2441 8.17871 10.1709Q8.24219 10.0977 8.31055 10.0195L11.3379 7.06055Q11.4062 7.00195 11.4746 6.96777Q11.543 6.93359 11.6113 6.93359Q11.6797 6.93359 11.748 6.96777Q11.8164 7.00195 11.875 7.06055L14.9023 10.0195Q14.9707 10.0977 15.0391 10.1709Q15.1074 10.2441 15.1074 10.3711Q15.1074 10.5273 15.0049 10.625Q14.9023 10.7227 14.7559 10.7227Q14.6777 10.7227 14.6094 10.6934Q14.541 10.6641 14.4922 10.6152L13.7793 9.89258L11.9336 8.01758L11.9727 10.0488Z" fill="rgba(0,0,0,0.85)"/>
 </g>
</svg>
