<?xml version="1.0" encoding="UTF-8"?>
<!--Generator: Apple Native CoreSVG 175-->
<!DOCTYPE svg
PUBLIC "-//W3C//DTD SVG 1.1//EN"
       "http://www.w3.org/Graphics/SVG/1.1/DTD/svg11.dtd">
<svg version="1.1" xmlns="http://www.w3.org/2000/svg" xmlns:xlink="http://www.w3.org/1999/xlink" width="25.6508" height="17.5974">
 <g>
  <rect height="17.5974" opacity="0" width="25.6508" x="0" y="0"/>
  <path d="M8.51089 17.5974Q8.6644 17.5974 8.78517 17.5114Q8.90594 17.4254 8.94608 17.2801Q9.44534 15.4735 10.2549 14.3977Q11.0645 13.322 12.2768 12.8444Q13.4891 12.3668 15.1993 12.3668L15.9023 12.3907L15.9023 16.5009Q15.9023 16.8231 16.0874 17.047Q16.2726 17.2708 16.6161 17.2708Q16.8578 17.2708 17.0578 17.1603Q17.2578 17.0497 17.4406 16.882L25.0992 9.75433Q25.45 9.4133 25.5504 9.18556Q25.6508 8.95782 25.6508 8.75168Q25.6508 8.54691 25.5539 8.31703Q25.457 8.08716 25.0992 7.75314L17.4406 0.637512Q17.2469 0.456238 17.0515 0.342941Q16.8562 0.229645 16.6216 0.229645Q16.2753 0.229645 16.0888 0.463104Q15.9023 0.696564 15.9023 1.01608L15.9023 5.19958L15.4926 5.19958Q13.5164 5.19958 12.0617 5.91408Q10.607 6.62857 9.7123 8.14316Q8.8176 9.65775 8.5289 12.0465L8.4848 12.0465Q8.18512 9.61716 7.30606 8.10799Q6.427 6.59882 5.00412 5.8992Q3.58124 5.19958 1.65817 5.19958Q1.577 5.19958 1.47247 5.19958Q1.36795 5.19958 1.23795 5.19958Q0.632782 5.19958 0.316391 5.50407Q0 5.80856 0 6.48758L0 11.1626Q0 11.7888 0.312347 12.079Q0.624695 12.3692 1.2204 12.3692Q1.3887 12.3692 1.5551 12.3692Q1.7215 12.3692 1.8898 12.3692Q3.59344 12.3692 4.80377 12.8753Q6.0141 13.3813 6.81076 14.4647Q7.60742 15.5481 8.07846 17.2774Q8.11172 17.4254 8.22968 17.5114Q8.34763 17.5974 8.51089 17.5974ZM8.18314 15.8914Q7.64328 14.2656 6.79352 13.3488Q5.94376 12.4321 4.7287 12.0538Q3.51364 11.6754 1.86417 11.6727Q1.71051 11.6727 1.55914 11.6727Q1.40778 11.6727 1.25 11.6727Q0.728607 11.6727 0.728607 11.0812L0.728607 6.48758Q0.728607 5.8934 1.25549 5.8934Q1.35986 5.8934 1.46568 5.8934Q1.5715 5.8934 1.67587 5.8934Q3.19412 5.8989 4.3998 6.42761Q5.60547 6.95633 6.45081 8.12523Q7.29614 9.29413 7.75215 11.2064Q8.20816 13.1187 8.22739 15.8914ZM16.7957 16.3875Q16.6309 16.3875 16.6309 16.1848L16.6309 11.9484Q16.6309 11.6824 16.3622 11.6824L15.1996 11.6727Q13.5136 11.6727 12.2836 12.0612Q11.0535 12.4496 10.2105 13.3705Q9.36752 14.2914 8.83438 15.8914L8.7973 15.8914Q8.8121 12.2704 9.58321 10.0727Q10.3543 7.87506 11.8189 6.88446Q13.2835 5.89386 15.3937 5.89386L16.3622 5.90088Q16.6309 5.90088 16.6309 5.64178L16.6309 1.27975Q16.6309 1.10794 16.8027 1.10794Q16.8797 1.10794 16.9363 1.1499Q16.993 1.19186 17.0531 1.24222L24.5688 8.24966Q24.873 8.53714 24.873 8.75168Q24.873 8.86795 24.81 8.98224Q24.7469 9.09653 24.5688 9.25354L17.0461 16.2505Q16.895 16.3875 16.7957 16.3875Z" fill="rgba(0,0,0,0.85)"/>
 </g>
</svg>
