<?xml version="1.0" encoding="UTF-8"?>
<!--Generator: Apple Native CoreSVG 175-->
<!DOCTYPE svg
PUBLIC "-//W3C//DTD SVG 1.1//EN"
       "http://www.w3.org/Graphics/SVG/1.1/DTD/svg11.dtd">
<svg version="1.1" xmlns="http://www.w3.org/2000/svg" xmlns:xlink="http://www.w3.org/1999/xlink" width="22.6617" height="17.323">
 <g>
  <rect height="17.323" opacity="0" width="22.6617" x="0" y="0"/>
  <path d="M0 5.80902L0 5.12268L15.2676 5.12268Q16.3605 5.12268 16.9666 5.72601Q17.5726 6.32935 17.5726 7.41684L17.5726 17.323L16.8863 17.323L16.8863 7.4675Q16.8863 6.68442 16.4513 6.24672Q16.0164 5.80902 15.2261 5.80902L12.1652 5.80902L12.1652 17.323L11.4789 17.323L11.4789 5.80902ZM2.63046 17.2992L20.0243 17.2992Q21.3281 17.2992 21.9949 16.6267Q22.6617 15.9543 22.6617 14.6753L22.6617 2.63626Q22.6617 1.36444 21.9949 0.687103Q21.3281 0.00976562 20.0243 0.00976562L2.63046 0.00976562Q1.33636 0.00976562 0.668182 0.678711Q0 1.34766 0 2.63626L0 14.6753Q0 15.9683 0.668182 16.6338Q1.33636 17.2992 2.63046 17.2992Z" fill="rgba(0,0,0,0.85)"/>
 </g>
</svg>
