<?xml version="1.0" encoding="UTF-8"?>
<!--Generator: Apple Native CoreSVG 175-->
<!DOCTYPE svg
PUBLIC "-//W3C//DTD SVG 1.1//EN"
       "http://www.w3.org/Graphics/SVG/1.1/DTD/svg11.dtd">
<svg version="1.1" xmlns="http://www.w3.org/2000/svg" xmlns:xlink="http://www.w3.org/1999/xlink" width="19.1602" height="19.1504">
 <g>
  <rect height="19.1504" opacity="0" width="19.1602" x="0" y="0"/>
  <path d="M9.57031 19.1406Q11.5527 19.1406 13.2861 18.3984Q15.0195 17.6562 16.3379 16.333Q17.6562 15.0098 18.4082 13.2764Q19.1602 11.543 19.1602 9.57031Q19.1602 7.59766 18.4082 5.86426Q17.6562 4.13086 16.3379 2.80762Q15.0195 1.48438 13.2861 0.742188Q11.5527 0 9.57031 0Q7.59766 0 5.86426 0.742188Q4.13086 1.48438 2.81738 2.80762Q1.50391 4.13086 0.751953 5.86426Q0 7.59766 0 9.57031Q0 11.543 0.74707 13.2764Q1.49414 15.0098 2.8125 16.333Q4.13086 17.6562 5.86914 18.3984Q7.60742 19.1406 9.57031 19.1406ZM9.57031 18.3984Q7.74414 18.3984 6.14746 17.71Q4.55078 17.0215 3.33496 15.8105Q2.11914 14.5996 1.43555 12.998Q0.751953 11.3965 0.751953 9.57031Q0.751953 7.74414 1.43555 6.14258Q2.11914 4.54102 3.33496 3.3252Q4.55078 2.10938 6.14746 1.4209Q7.74414 0.732422 9.57031 0.732422Q11.4062 0.732422 13.0029 1.4209Q14.5996 2.10938 15.8154 3.3252Q17.0312 4.54102 17.7197 6.14258Q18.4082 7.74414 18.4082 9.57031Q18.4082 11.3965 17.7246 12.998Q17.041 14.5996 15.8252 15.8105Q14.6094 17.0215 13.0078 17.71Q11.4062 18.3984 9.57031 18.3984ZM9.60938 15.459Q10.4199 15.459 11.001 15.4004Q11.582 15.3418 11.9238 15.2246Q12.2266 15.127 12.2266 14.8828Q12.2266 14.7461 12.1338 14.6631Q12.041 14.5801 11.9141 14.5801Q11.8359 14.5801 11.7578 14.6045Q11.6797 14.6289 11.6016 14.6484Q11.2207 14.6973 10.7324 14.7607Q10.2441 14.8242 9.64844 14.8242Q8.10547 14.8242 6.93848 14.1553Q5.77148 13.4863 5.11719 12.29Q4.46289 11.0938 4.46289 9.51172Q4.46289 7.97852 5.13184 6.79688Q5.80078 5.61523 6.97266 4.93652Q8.14453 4.25781 9.64844 4.25781Q11.1328 4.25781 12.2705 4.86328Q13.4082 5.46875 14.0479 6.54785Q14.6875 7.62695 14.6875 9.04297Q14.6875 10.4688 14.2578 11.2549Q13.8281 12.041 13.0664 12.041Q12.5195 12.041 12.2119 11.6699Q11.9043 11.2988 11.9043 10.625L11.9043 6.88477Q11.9043 6.73828 11.8115 6.64062Q11.7188 6.54297 11.582 6.54297Q11.4453 6.54297 11.3525 6.63574Q11.2598 6.72852 11.2598 6.85547L11.2598 7.53906Q10.9863 7.08008 10.498 6.81152Q10.0098 6.54297 9.43359 6.54297Q8.32031 6.54297 7.62207 7.39746Q6.92383 8.25195 6.92383 9.60938Q6.92383 10.957 7.62207 11.8018Q8.32031 12.6465 9.43359 12.6465Q10.7617 12.6465 11.3477 11.4355Q11.5137 12.002 11.9531 12.3291Q12.3926 12.6562 13.0371 12.6562Q14.1211 12.6562 14.7314 11.6895Q15.3418 10.7227 15.3418 9.0332Q15.3418 7.44141 14.6143 6.2207Q13.8867 5 12.6074 4.31152Q11.3281 3.62305 9.64844 3.62305Q7.95898 3.62305 6.63574 4.37988Q5.3125 5.13672 4.55566 6.46973Q3.79883 7.80273 3.79883 9.51172Q3.79883 11.2598 4.53613 12.6025Q5.27344 13.9453 6.5918 14.7021Q7.91016 15.459 9.60938 15.459ZM9.48242 12.002Q8.65234 12.002 8.12988 11.3379Q7.60742 10.6738 7.60742 9.59961Q7.60742 8.53516 8.14453 7.85156Q8.68164 7.16797 9.48242 7.16797Q10.3027 7.16797 10.7861 7.79785Q11.2695 8.42773 11.2695 9.52148Q11.2695 10.6543 10.7812 11.3281Q10.293 12.002 9.48242 12.002Z" fill="rgba(0,0,0,0.85)"/>
 </g>
</svg>
