<?xml version="1.0" encoding="UTF-8"?>
<!--Generator: Apple Native CoreSVG 175-->
<!DOCTYPE svg
PUBLIC "-//W3C//DTD SVG 1.1//EN"
       "http://www.w3.org/Graphics/SVG/1.1/DTD/svg11.dtd">
<svg version="1.1" xmlns="http://www.w3.org/2000/svg" xmlns:xlink="http://www.w3.org/1999/xlink" width="25.9184" height="15.1584">
 <g>
  <rect height="15.1584" opacity="0" width="25.9184" x="0" y="0"/>
  <path d="M0.373077 15.1584Q0.527802 15.1584 0.638351 15.0505Q0.748901 14.9426 0.748901 14.7906L0.748901 0.380096Q0.748901 0.225525 0.638351 0.117645Q0.527802 0.00976562 0.373077 0.00976562Q0.2211 0.00976562 0.11055 0.117645Q0 0.225525 0 0.380096L0 14.7906Q0 14.9426 0.11055 15.0505Q0.2211 15.1584 0.373077 15.1584ZM12.2896 14.7748Q12.69 14.7748 13.0136 14.4646Q13.3372 14.1544 13.3372 13.5098L13.3372 1.65131Q13.3372 0.999756 13.0136 0.693054Q12.69 0.386353 12.2896 0.386353Q12.0738 0.386353 11.8559 0.472107Q11.6379 0.557861 11.4407 0.670319L1.29959 6.63528Q1.00708 6.81412 0.853577 7.03835Q0.700073 7.26257 0.700073 7.57706Q0.700073 7.88452 0.857086 8.11928Q1.0141 8.35403 1.29959 8.51883L11.4407 14.4907Q11.6309 14.6033 11.8523 14.689Q12.0738 14.7748 12.2896 14.7748ZM12.179 13.9946Q12.095 13.9946 11.9964 13.968Q11.8977 13.9415 11.759 13.8574L1.81381 7.9982Q1.49338 7.81769 1.49338 7.57706Q1.49338 7.35046 1.81381 7.16293L11.759 1.30356Q11.9075 1.21964 12.0013 1.19308Q12.095 1.16653 12.179 1.16653Q12.3187 1.16653 12.4756 1.28548Q12.6324 1.40442 12.6324 1.71967L12.6324 13.4415Q12.6324 13.7567 12.4756 13.8757Q12.3187 13.9946 12.179 13.9946ZM24.8778 14.7748Q25.2782 14.7748 25.5983 14.4646Q25.9184 14.1544 25.9184 13.5098L25.9184 1.65131Q25.9184 0.999756 25.5983 0.693054Q25.2782 0.386353 24.8778 0.386353Q24.6622 0.386353 24.4442 0.472107Q24.2262 0.557861 24.0289 0.670319L13.8879 6.63528Q13.5954 6.81412 13.4383 7.03835Q13.2812 7.26257 13.2812 7.57706Q13.2812 7.88452 13.4418 8.11928Q13.6024 8.35403 13.8879 8.51883L24.0289 14.4907Q24.2192 14.6033 24.4407 14.689Q24.6622 14.7748 24.8778 14.7748ZM24.7673 13.9946Q24.6832 13.9946 24.5847 13.968Q24.4861 13.9415 24.3404 13.8574L14.402 7.9982Q14.0817 7.81769 14.0817 7.57706Q14.0817 7.35046 14.402 7.16293L24.3404 1.30356Q24.4958 1.21964 24.5895 1.19308Q24.6832 1.16653 24.7673 1.16653Q24.9098 1.16653 25.0653 1.28548Q25.2208 1.40442 25.2208 1.71967L25.2208 13.4415Q25.2208 13.7567 25.0653 13.8757Q24.9098 13.9946 24.7673 13.9946Z" fill="rgba(0,0,0,0.85)"/>
 </g>
</svg>
