<?xml version="1.0" encoding="UTF-8"?>
<!--Generator: Apple Native CoreSVG 175-->
<!DOCTYPE svg
PUBLIC "-//W3C//DTD SVG 1.1//EN"
       "http://www.w3.org/Graphics/SVG/1.1/DTD/svg11.dtd">
<svg version="1.1" xmlns="http://www.w3.org/2000/svg" xmlns:xlink="http://www.w3.org/1999/xlink" width="18.5938" height="22.8613">
 <g>
  <rect height="22.8613" opacity="0" width="18.5938" x="0" y="0"/>
  <path d="M8.89648 21.123Q9.74609 21.123 10.3955 20.7227Q11.0449 20.3223 11.4258 19.6289Q11.8066 18.9355 11.8262 18.0566L17.0996 18.0566Q17.4121 18.0566 17.6025 17.8809Q17.793 17.7051 17.793 17.4121Q17.793 16.9238 17.5342 16.4746Q17.2754 16.0254 16.8896 15.5957Q16.5039 15.166 16.123 14.7363Q15.5273 14.082 15.332 13.0029Q15.1367 11.9238 15.0391 10.7227Q15.0293 10.5762 15.0146 10.4297Q15 10.2832 14.9902 10.1367Q14.834 10.2344 14.6582 10.2979Q14.4824 10.3613 14.2969 10.3516Q14.3066 10.4785 14.3115 10.6006Q14.3164 10.7227 14.3359 10.8496Q14.3945 11.748 14.5117 12.5732Q14.6289 13.3984 14.8633 14.0771Q15.0977 14.7559 15.5371 15.2246Q15.8496 15.5469 16.1719 15.9131Q16.4941 16.2793 16.709 16.6357Q16.9238 16.9922 16.9531 17.2559L16.9531 17.3535L0.839844 17.3535L0.839844 17.2559Q0.859375 16.9922 1.0791 16.6357Q1.29883 16.2793 1.61621 15.9131Q1.93359 15.5469 2.24609 15.2246Q2.67578 14.7754 2.90039 14.1309Q3.125 13.4863 3.24219 12.71Q3.35938 11.9336 3.43262 11.0986Q3.50586 10.2637 3.62305 9.42383Q3.78906 8.03711 4.16016 7.06543Q4.53125 6.09375 5.13672 5.51758Q5.74219 4.94141 6.61133 4.70703Q6.85547 4.63867 7.00684 4.52637Q7.1582 4.41406 7.17773 4.17969Q7.27539 3.32031 7.82715 2.86621Q8.37891 2.41211 9.02344 2.49023Q9.14062 2.36328 9.28711 2.26562Q9.43359 2.16797 9.60449 2.11914Q9.77539 2.07031 9.9707 2.07031Q10.0586 2.07031 10.166 2.08008Q10.166 2.07031 10.166 2.07031Q10.166 2.07031 10.166 2.06055Q9.90234 1.89453 9.5752 1.81152Q9.24805 1.72852 8.89648 1.72852Q7.95898 1.72852 7.30469 2.34375Q6.65039 2.95898 6.49414 3.97461Q5.33203 4.28711 4.58496 5.03906Q3.83789 5.79102 3.44238 6.87988Q3.04688 7.96875 2.91016 9.30664Q2.76367 10.3516 2.67578 11.3916Q2.58789 12.4316 2.37793 13.3057Q2.16797 14.1797 1.66992 14.7363Q1.28906 15.166 0.90332 15.5957Q0.517578 16.0254 0.258789 16.4746Q0 16.9238 0 17.4121Q0 17.7051 0.19043 17.8809Q0.380859 18.0566 0.693359 18.0566L5.9668 18.0566Q5.98633 18.9355 6.3623 19.6289Q6.73828 20.3223 7.39258 20.7227Q8.04688 21.123 8.89648 21.123ZM8.89648 20.459Q7.96875 20.459 7.35352 19.8096Q6.73828 19.1602 6.67969 18.0566L11.1133 18.0566Q11.0547 19.1602 10.4395 19.8096Q9.82422 20.459 8.89648 20.459ZM9.98047 6.19141Q10.127 6.19141 10.2295 6.08887Q10.332 5.98633 10.332 5.84961L10.332 3.54492Q10.332 3.38867 10.2295 3.29102Q10.127 3.19336 9.98047 3.19336Q9.83398 3.19336 9.73633 3.29102Q9.63867 3.38867 9.63867 3.54492L9.63867 5.84961Q9.63867 5.98633 9.73633 6.08887Q9.83398 6.19141 9.98047 6.19141ZM12.0508 7.75391Q12.1973 7.75391 12.29 7.65625Q12.3828 7.55859 12.3828 7.40234L12.3828 1.96289Q12.3828 1.82617 12.29 1.72363Q12.1973 1.62109 12.0508 1.62109Q11.9043 1.62109 11.8066 1.72363Q11.709 1.82617 11.709 1.96289L11.709 7.40234Q11.709 7.55859 11.8066 7.65625Q11.9043 7.75391 12.0508 7.75391ZM14.1113 9.38477Q14.2578 9.38477 14.3555 9.28711Q14.4531 9.18945 14.4531 9.05273L14.4531 0.351562Q14.4531 0.205078 14.3555 0.102539Q14.2578 0 14.1113 0Q13.9746 0 13.8721 0.102539Q13.7695 0.205078 13.7695 0.351562L13.7695 9.05273Q13.7695 9.18945 13.8672 9.28711Q13.9648 9.38477 14.1113 9.38477ZM16.1816 8.33984Q16.3184 8.33984 16.4209 8.2373Q16.5234 8.13477 16.5234 7.99805L16.5234 1.38672Q16.5234 1.24023 16.4209 1.14258Q16.3184 1.04492 16.1816 1.04492Q16.0352 1.04492 15.9375 1.14258Q15.8398 1.24023 15.8398 1.38672L15.8398 7.99805Q15.8398 8.13477 15.9375 8.2373Q16.0352 8.33984 16.1816 8.33984ZM18.252 6.74805Q18.3984 6.74805 18.4961 6.65039Q18.5938 6.55273 18.5938 6.40625L18.5938 2.96875Q18.5938 2.83203 18.4961 2.72949Q18.3984 2.62695 18.252 2.62695Q18.1055 2.62695 18.0078 2.72949Q17.9102 2.83203 17.9102 2.96875L17.9102 6.40625Q17.9102 6.55273 18.0078 6.65039Q18.1055 6.74805 18.252 6.74805Z" fill="rgba(0,0,0,0.85)"/>
 </g>
</svg>
