<?xml version="1.0" encoding="UTF-8"?>
<!--Generator: Apple Native CoreSVG 175-->
<!DOCTYPE svg
PUBLIC "-//W3C//DTD SVG 1.1//EN"
       "http://www.w3.org/Graphics/SVG/1.1/DTD/svg11.dtd">
<svg version="1.1" xmlns="http://www.w3.org/2000/svg" xmlns:xlink="http://www.w3.org/1999/xlink" width="18.7793" height="19.4043">
 <g>
  <rect height="19.4043" opacity="0" width="18.7793" x="0" y="0"/>
  <path d="M8.89648 19.3945Q9.73633 19.3945 10.3857 19.0039Q11.0352 18.6133 11.416 17.9297Q11.7969 17.2461 11.8164 16.377L14.2383 16.377L13.4863 15.625L0.849609 15.625L0.849609 15.5273Q0.869141 15.2637 1.08887 14.9072Q1.30859 14.5508 1.62598 14.1846Q1.94336 13.8184 2.25586 13.4961Q2.67578 13.0469 2.90527 12.4023Q3.13477 11.7578 3.25684 10.9814Q3.37891 10.2051 3.44727 9.37012Q3.51562 8.53516 3.63281 7.69531Q3.68164 7.24609 3.76465 6.8457Q3.84766 6.44531 3.94531 6.08398L3.33008 5.46875Q3.17383 5.94727 3.07129 6.47461Q2.96875 7.00195 2.91016 7.57812Q2.76367 8.62305 2.6709 9.66309Q2.57812 10.7031 2.37793 11.5771Q2.17773 12.4512 1.67969 13.0078Q1.28906 13.4375 0.90332 13.8672Q0.517578 14.2969 0.258789 14.7461Q0 15.1953 0 15.6836Q0 15.9961 0.180664 16.1621Q0.361328 16.3281 0.712891 16.3281L5.97656 16.3281Q5.99609 17.207 6.36719 17.9004Q6.73828 18.5938 7.39258 18.9941Q8.04688 19.3945 8.89648 19.3945ZM8.89648 18.7305Q7.97852 18.7305 7.3584 18.0811Q6.73828 17.4316 6.68945 16.3281L11.1133 16.3281Q11.0547 17.4316 10.4395 18.0811Q9.82422 18.7305 8.89648 18.7305ZM4.6875 3.22266L5.20508 3.75Q5.49805 3.47656 5.84473 3.28125Q6.19141 3.08594 6.61133 2.97852Q6.86523 2.91016 7.00684 2.79785Q7.14844 2.68555 7.17773 2.45117Q7.27539 1.71875 7.71484 1.20605Q8.1543 0.693359 8.89648 0.693359Q9.64844 0.693359 10.083 1.20605Q10.5176 1.71875 10.6152 2.45117Q10.6445 2.68555 10.791 2.79785Q10.9375 2.91016 11.1914 2.97852Q12.0996 3.22266 12.749 3.8916Q13.3984 4.56055 13.7891 5.73242Q14.1797 6.9043 14.2871 8.67188Q14.3945 9.92188 14.5166 10.7812Q14.6387 11.6406 14.8682 12.2852Q15.0977 12.9297 15.5566 13.5352L17.4609 15.7715Q17.627 15.5762 17.627 15.332Q17.627 15.1465 17.4951 14.9561Q17.3633 14.7656 17.207 14.5898Q16.6113 13.8477 16.2207 13.291Q15.8301 12.7344 15.5908 12.1631Q15.3516 11.5918 15.2197 10.8203Q15.0879 10.0488 15.0293 8.86719Q14.8828 5.99609 13.9941 4.36523Q13.1055 2.73438 11.3086 2.24609Q11.1426 1.23047 10.4883 0.615234Q9.83398 0 8.89648 0Q7.96875 0 7.30957 0.615234Q6.65039 1.23047 6.49414 2.24609Q5.94727 2.38281 5.49805 2.63184Q5.04883 2.88086 4.6875 3.22266ZM0.107422 0.976562L18.1641 19.0234Q18.2715 19.1309 18.4229 19.1309Q18.5742 19.1309 18.6719 19.0234Q18.7793 18.916 18.7793 18.7695Q18.7793 18.623 18.6719 18.5156L0.625 0.46875Q0.527344 0.371094 0.380859 0.366211Q0.234375 0.361328 0.107422 0.46875Q0.00976562 0.576172 0.00976562 0.727539Q0.00976562 0.878906 0.107422 0.976562Z" fill="rgba(0,0,0,0.85)"/>
 </g>
</svg>
