<?xml version="1.0" encoding="UTF-8"?>
<!--Generator: Apple Native CoreSVG 175-->
<!DOCTYPE svg
PUBLIC "-//W3C//DTD SVG 1.1//EN"
       "http://www.w3.org/Graphics/SVG/1.1/DTD/svg11.dtd">
<svg version="1.1" xmlns="http://www.w3.org/2000/svg" xmlns:xlink="http://www.w3.org/1999/xlink" width="10.7677" height="14.0677">
 <g>
  <rect height="14.0677" opacity="0" width="10.7677" x="0" y="0"/>
  <path d="M1.06689 14.0677L5.8876 14.0677Q7.4028 14.0677 8.49655 13.5886Q9.5903 13.1094 10.179 12.2229Q10.7677 11.3364 10.7677 10.1184Q10.7677 9.16138 10.3429 8.41919Q9.91806 7.677 9.16473 7.22076Q8.41141 6.76453 7.42935 6.67343L7.42935 6.60233Q8.19061 6.47812 8.7883 6.035Q9.38599 5.59189 9.72778 4.93462Q10.0696 4.27734 10.0696 3.50586Q10.0696 2.44308 9.54086 1.65558Q9.01215 0.868073 8.06023 0.436249Q7.10831 0.00442505 5.82809 0.00442505L1.06689 0.00442505Q0.566864 0.00442505 0.283432 0.296173Q0 0.587921 0 1.10321L0 12.9785Q0 13.484 0.283432 13.7759Q0.566864 14.0677 1.06689 14.0677ZM2.14691 12.3532L2.14691 7.63245L5.25894 7.63245Q6.87149 7.63245 7.72522 8.23677Q8.57895 8.84109 8.57895 9.98245Q8.57895 11.1293 7.7623 11.7413Q6.94565 12.3532 5.40466 12.3532ZM2.14691 6.04416L2.14691 1.72974L5.28046 1.72974Q6.53091 1.72974 7.23007 2.27737Q7.92923 2.82501 7.92923 3.80859Q7.92923 4.86923 7.13844 5.4567Q6.34766 6.04416 4.90982 6.04416Z" fill="rgba(0,0,0,0.85)"/>
 </g>
</svg>
