<?xml version="1.0" encoding="UTF-8"?>
<!--Generator: Apple Native CoreSVG 175-->
<!DOCTYPE svg
PUBLIC "-//W3C//DTD SVG 1.1//EN"
       "http://www.w3.org/Graphics/SVG/1.1/DTD/svg11.dtd">
<svg version="1.1" xmlns="http://www.w3.org/2000/svg" xmlns:xlink="http://www.w3.org/1999/xlink" width="17.2852" height="17.3145">
 <g>
  <rect height="17.3145" opacity="0" width="17.2852" x="0" y="0"/>
  <path d="M2.62695 17.3145L14.6484 17.3145Q15.957 17.3145 16.6211 16.6455Q17.2852 15.9766 17.2852 14.6875L17.2852 2.65625Q17.2852 1.37695 16.6211 0.703125Q15.957 0.0292969 14.6484 0.0292969L2.62695 0.0292969Q1.33789 0.0292969 0.668945 0.693359Q0 1.35742 0 2.65625L0 14.6875Q0 15.9863 0.668945 16.6504Q1.33789 17.3145 2.62695 17.3145ZM4.58008 13.0176Q4.42383 13.0176 4.32617 12.9199Q4.22852 12.8223 4.22852 12.666L4.22852 4.89258Q4.22852 4.69727 4.32129 4.58496Q4.41406 4.47266 4.58008 4.47266L6.20117 4.47266Q7.33398 4.47266 7.91992 5.07324Q8.50586 5.67383 8.50586 6.78711Q8.50586 7.57812 8.13477 8.22266Q7.76367 8.86719 7.07031 9.0332L8.60352 12.5Q8.71094 12.7344 8.58398 12.8711Q8.45703 13.0078 8.28125 13.0078Q8.18359 13.0078 8.10059 12.9541Q8.01758 12.9004 7.96875 12.793L6.39648 9.16016Q6.28906 9.16992 6.22559 9.16992Q6.16211 9.16992 6.10352 9.16992L4.92188 9.16992L4.92188 12.666Q4.92188 12.8223 4.82422 12.9199Q4.72656 13.0176 4.58008 13.0176ZM4.92188 8.61328L6.18164 8.61328Q7.01172 8.61328 7.41699 8.12988Q7.82227 7.64648 7.82227 6.80664Q7.82227 5.95703 7.39258 5.50781Q6.96289 5.05859 6.13281 5.05859L4.92188 5.05859ZM11.6211 13.6426Q11.5137 13.6426 11.4355 13.5645Q11.3574 13.4863 11.3574 13.3691L11.3574 12.6074Q10.4297 12.5293 9.90723 11.9336Q9.38477 11.3379 9.36523 10.4492Q9.3457 10.2734 9.44336 10.1758Q9.54102 10.0781 9.6875 10.0781Q9.82422 10.0781 9.90723 10.1611Q9.99023 10.2441 10 10.3809Q10.0098 11.0938 10.3516 11.5186Q10.6934 11.9434 11.3574 12.0117L11.3574 8.82812L10.9668 8.62305Q10.332 8.32031 9.91211 7.8418Q9.49219 7.36328 9.49219 6.54297Q9.49219 5.72266 10.0098 5.22461Q10.5273 4.72656 11.3574 4.6582L11.3574 3.98438Q11.3574 3.87695 11.4355 3.79883Q11.5137 3.7207 11.6211 3.7207Q11.7285 3.7207 11.8066 3.79883Q11.8848 3.87695 11.8848 3.98438L11.8848 4.66797Q12.7246 4.76562 13.1787 5.3418Q13.6328 5.91797 13.6523 6.75781Q13.6719 6.95312 13.5693 7.05078Q13.4668 7.14844 13.3301 7.14844Q13.2031 7.14844 13.1104 7.06055Q13.0176 6.97266 13.0176 6.82617Q13.0078 6.19141 12.7002 5.77148Q12.3926 5.35156 11.8848 5.26367L11.8848 8.33984L12.1777 8.49609Q13.0273 8.92578 13.4033 9.41406Q13.7793 9.90234 13.7793 10.6348Q13.7793 11.4746 13.252 12.0068Q12.7246 12.5391 11.8848 12.6172L11.8848 13.3691Q11.8848 13.4863 11.8066 13.5645Q11.7285 13.6426 11.6211 13.6426ZM11.3574 5.24414Q10.8301 5.30273 10.4834 5.62988Q10.1367 5.95703 10.1367 6.5332Q10.1367 7.17773 10.4785 7.49023Q10.8203 7.80273 11.1523 7.96875L11.3574 8.07617ZM11.8848 12.0117Q12.4707 11.9531 12.7979 11.5869Q13.125 11.2207 13.125 10.6543Q13.125 10.0586 12.8125 9.72168Q12.5 9.38477 12.0117 9.15039L11.8848 9.08203Z" fill="rgba(0,0,0,0.85)"/>
 </g>
</svg>
