<?xml version="1.0" encoding="UTF-8"?>
<!--Generator: Apple Native CoreSVG 175-->
<!DOCTYPE svg
PUBLIC "-//W3C//DTD SVG 1.1//EN"
       "http://www.w3.org/Graphics/SVG/1.1/DTD/svg11.dtd">
<svg version="1.1" xmlns="http://www.w3.org/2000/svg" xmlns:xlink="http://www.w3.org/1999/xlink" width="20.5922" height="20.3348">
 <g>
  <rect height="20.3348" opacity="0" width="20.5922" x="0" y="0"/>
  <path d="M15.771 20.3348Q15.9843 20.3348 16.1154 20.1879Q16.2465 20.041 16.2465 19.7859L16.2465 16.9652L17.0238 16.9652Q18.1047 16.9652 18.9065 16.524Q19.7083 16.0828 20.1502 15.2756Q20.5922 14.4684 20.5922 13.3739L20.5922 4.82269Q20.5922 3.18161 19.6176 2.21992Q18.643 1.25824 17.0238 1.25824L3.56842 1.25824Q1.93008 1.25824 0.965042 2.22832Q0 3.19839 0 4.82269L0 13.3739Q0 14.9953 0.965042 15.9802Q1.93008 16.9652 3.56842 16.9652L11.6402 16.9652L15.1894 20.0333Q15.3413 20.1727 15.4765 20.2538Q15.6117 20.3348 15.771 20.3348Z" fill="rgba(0,0,0,0.85)"/>
 </g>
</svg>
