<?xml version="1.0" encoding="UTF-8"?>
<!--Generator: Apple Native CoreSVG 175-->
<!DOCTYPE svg
PUBLIC "-//W3C//DTD SVG 1.1//EN"
       "http://www.w3.org/Graphics/SVG/1.1/DTD/svg11.dtd">
<svg version="1.1" xmlns="http://www.w3.org/2000/svg" xmlns:xlink="http://www.w3.org/1999/xlink" width="20.9775" height="20.2536">
 <g>
  <rect height="20.2536" opacity="0" width="20.9775" x="0" y="0"/>
  <path d="M14.111 20.2536L19.6544 20.2536Q20.3122 20.2536 20.6448 19.9108Q20.9775 19.568 20.9775 18.898L20.9775 7.31598Q20.9775 6.64612 20.6448 6.30333Q20.3122 5.96054 19.6544 5.96054L14.4771 5.96054L14.4771 18.898Q14.4771 19.3259 14.3761 19.6612Q14.2751 19.9965 14.111 20.2536ZM16.5672 10.2481L16.5672 8.4465Q16.5672 8.19611 16.8106 8.19611L18.6426 8.19611Q18.886 8.19611 18.886 8.4465L18.886 10.2481Q18.886 10.5013 18.6426 10.5013L16.8106 10.5013Q16.5672 10.5013 16.5672 10.2481ZM16.5672 14.0114L16.5672 12.2028Q16.5672 11.9594 16.8106 11.9594L18.6426 11.9594Q18.886 11.9594 18.886 12.2028L18.886 14.0114Q18.886 14.2618 18.6426 14.2618L16.8106 14.2618Q16.5672 14.2618 16.5672 14.0114ZM16.5672 17.7747L16.5672 15.966Q16.5672 15.7199 16.8106 15.7199L18.6426 15.7199Q18.886 15.7199 18.886 15.966L18.886 17.7747Q18.886 18.0251 18.6426 18.0251L16.8106 18.0251Q16.5672 18.0251 16.5672 17.7747ZM0 18.898Q0 19.568 0.332642 19.9108Q0.665283 20.2536 1.32584 20.2536L12.2774 20.2536Q12.9379 20.2536 13.2706 19.9108Q13.6032 19.568 13.6032 18.898L13.6032 1.38641Q13.6032 0.713654 13.2706 0.372238Q12.9379 0.0308228 12.2774 0.0308228L1.32584 0.0308228Q0.665283 0.0308228 0.332642 0.372238Q0 0.713654 0 1.38641ZM3.936 19.532L3.936 16.4005Q3.936 16.136 4.09538 15.978Q4.25476 15.82 4.51645 15.82L9.41376 15.82Q9.67819 15.82 9.8362 15.978Q9.9942 16.136 9.9942 16.4005L9.9942 19.532ZM3.44498 5.16953L3.44498 3.00079Q3.44498 2.69333 3.73276 2.69333L5.93903 2.69333Q6.23245 2.69333 6.23245 3.00079L6.23245 5.16953Q6.23245 5.46997 5.93903 5.46997L3.73276 5.46997Q3.44498 5.46997 3.44498 5.16953ZM7.68356 5.16953L7.68356 3.00079Q7.68356 2.69333 7.98126 2.69333L10.1778 2.69333Q10.4712 2.69333 10.4712 3.00079L10.4712 5.16953Q10.4712 5.46997 10.1778 5.46997L7.98126 5.46997Q7.68356 5.46997 7.68356 5.16953ZM3.44498 9.44931L3.44498 7.28043Q3.44498 6.97311 3.73276 6.97311L5.93903 6.97311Q6.23245 6.97311 6.23245 7.28043L6.23245 9.44931Q6.23245 9.75662 5.93903 9.75662L3.73276 9.75662Q3.44498 9.75662 3.44498 9.44931ZM7.68356 9.44931L7.68356 7.28043Q7.68356 6.97311 7.98126 6.97311L10.1778 6.97311Q10.4712 6.97311 10.4712 7.28043L10.4712 9.44931Q10.4712 9.75662 10.1778 9.75662L7.98126 9.75662Q7.68356 9.75662 7.68356 9.44931ZM3.44498 13.736L3.44498 11.5602Q3.44498 11.2598 3.73276 11.2598L5.93903 11.2598Q6.23245 11.2598 6.23245 11.5602L6.23245 13.736Q6.23245 14.0364 5.93903 14.0364L3.73276 14.0364Q3.44498 14.0364 3.44498 13.736ZM7.68356 13.736L7.68356 11.5602Q7.68356 11.2598 7.98126 11.2598L10.1778 11.2598Q10.4712 11.2598 10.4712 11.5602L10.4712 13.736Q10.4712 14.0364 10.1778 14.0364L7.98126 14.0364Q7.68356 14.0364 7.68356 13.736Z" fill="rgba(0,0,0,0.85)"/>
 </g>
</svg>
