<?xml version="1.0" encoding="UTF-8"?>
<!--Generator: Apple Native CoreSVG 175-->
<!DOCTYPE svg
PUBLIC "-//W3C//DTD SVG 1.1//EN"
       "http://www.w3.org/Graphics/SVG/1.1/DTD/svg11.dtd">
<svg version="1.1" xmlns="http://www.w3.org/2000/svg" xmlns:xlink="http://www.w3.org/1999/xlink" width="19.6559" height="19.4754">
 <g>
  <rect height="19.4754" opacity="0" width="19.6559" x="0" y="0"/>
  <path d="M0 19.0993Q0 19.2458 0.10643 19.3536Q0.21286 19.4614 0.359344 19.4614L19.2938 19.4614Q19.4403 19.4614 19.5481 19.3536Q19.6559 19.2458 19.6559 19.0993Q19.6559 18.9528 19.5481 18.8463Q19.4403 18.7398 19.2938 18.7398L0.359344 18.7398Q0.21286 18.7398 0.10643 18.8463Q0 18.9528 0 19.0993ZM1.3855 7.40433Q1.3855 7.53555 1.45874 7.61017Q1.53198 7.68478 1.66611 7.68478L4.16611 7.68478Q4.30008 7.68478 4.37469 7.61017Q4.44931 7.53555 4.44931 7.40433L4.44931 7.24731Q4.44931 7.13287 4.37469 7.05826Q4.30008 6.98364 4.16611 6.98364L1.66611 6.98364Q1.53198 6.98364 1.45874 7.05826Q1.3855 7.13287 1.3855 7.24731ZM2.57034 17.1179L3.27148 17.1179L3.27148 7.38953L2.57034 7.38953ZM1.3855 17.2906Q1.3855 17.4246 1.45874 17.4979Q1.53198 17.5711 1.66611 17.5711L4.16611 17.5711Q4.30008 17.5711 4.37469 17.4979Q4.44931 17.4246 4.44931 17.2906L4.44931 17.1336Q4.44931 17.0192 4.37469 16.9446Q4.30008 16.87 4.16611 16.87L1.66611 16.87Q1.53198 16.87 1.45874 16.9446Q1.3855 17.0192 1.3855 17.1336ZM6.00311 7.40433Q6.00311 7.53555 6.07773 7.61017Q6.15234 7.68478 6.28357 7.68478L8.78632 7.68478Q8.91754 7.68478 8.99216 7.61017Q9.06677 7.53555 9.06677 7.40433L9.06677 7.24731Q9.06677 7.13287 8.99216 7.05826Q8.91754 6.98364 8.78632 6.98364L6.28357 6.98364Q6.15234 6.98364 6.07773 7.05826Q6.00311 7.13287 6.00311 7.24731ZM7.1907 17.1179L7.89185 17.1179L7.89185 7.38953L7.1907 7.38953ZM6.00311 17.2906Q6.00311 17.4246 6.07773 17.4979Q6.15234 17.5711 6.28357 17.5711L8.78632 17.5711Q8.91754 17.5711 8.99216 17.4979Q9.06677 17.4246 9.06677 17.2906L9.06677 17.1336Q9.06677 17.0192 8.99216 16.9446Q8.91754 16.87 8.78632 16.87L6.28357 16.87Q6.15234 16.87 6.07773 16.9446Q6.00311 17.0192 6.00311 17.1336ZM10.6235 7.40433Q10.6235 7.53555 10.6981 7.61017Q10.7727 7.68478 10.8969 7.68478L13.4067 7.68478Q13.5379 7.68478 13.6125 7.61017Q13.6871 7.53555 13.6871 7.40433L13.6871 7.24731Q13.6871 7.13287 13.6125 7.05826Q13.5379 6.98364 13.4067 6.98364L10.8969 6.98364Q10.7727 6.98364 10.6981 7.05826Q10.6235 7.13287 10.6235 7.24731ZM11.8109 17.1179L12.5122 17.1179L12.5122 7.38953L11.8109 7.38953ZM10.6235 17.2906Q10.6235 17.4246 10.6981 17.4979Q10.7727 17.5711 10.8969 17.5711L13.4067 17.5711Q13.5379 17.5711 13.6125 17.4979Q13.6871 17.4246 13.6871 17.2906L13.6871 17.1336Q13.6871 17.0192 13.6125 16.9446Q13.5379 16.87 13.4067 16.87L10.8969 16.87Q10.7727 16.87 10.6981 16.9446Q10.6235 17.0192 10.6235 17.1336ZM15.2438 7.40433Q15.2438 7.53555 15.3171 7.61017Q15.3903 7.68478 15.5173 7.68478L18.0243 7.68478Q18.1583 7.68478 18.2315 7.61017Q18.3047 7.53555 18.3047 7.40433L18.3047 7.24731Q18.3047 7.13287 18.2315 7.05826Q18.1583 6.98364 18.0243 6.98364L15.5173 6.98364Q15.3903 6.98364 15.3171 7.05826Q15.2438 7.13287 15.2438 7.24731ZM16.4285 17.1179L17.1297 17.1179L17.1297 7.38953L16.4285 7.38953ZM15.2438 17.2906Q15.2438 17.4246 15.3171 17.4979Q15.3903 17.5711 15.5173 17.5711L18.0243 17.5711Q18.1583 17.5711 18.2315 17.4979Q18.3047 17.4246 18.3047 17.2906L18.3047 17.1336Q18.3047 17.0192 18.2315 16.9446Q18.1583 16.87 18.0243 16.87L15.5173 16.87Q15.3903 16.87 15.3171 16.9446Q15.2438 17.0192 15.2438 17.1336ZM0.578918 5.81757L19.0742 5.81757Q19.2735 5.81757 19.3702 5.71053Q19.4669 5.60349 19.4669 5.45547Q19.4669 5.36713 19.4151 5.27519Q19.3633 5.18326 19.2375 5.11139L10.8203 0.278473Q10.3371 0 9.83017 0Q9.33014 0 8.83286 0.278473L0.415649 5.11139Q0.296936 5.18326 0.245132 5.27519Q0.193329 5.36713 0.193329 5.45547Q0.193329 5.60349 0.286484 5.71053Q0.379639 5.81757 0.578918 5.81757ZM1.92673 5.09613L9.2453 0.955811Q9.53476 0.792236 9.83017 0.792236Q10.1184 0.792236 10.4079 0.955811L17.7336 5.09613Z" fill="rgba(0,0,0,0.85)"/>
 </g>
</svg>
