<?xml version="1.0" encoding="UTF-8"?>
<!--Generator: Apple Native CoreSVG 175-->
<!DOCTYPE svg
PUBLIC "-//W3C//DTD SVG 1.1//EN"
       "http://www.w3.org/Graphics/SVG/1.1/DTD/svg11.dtd">
<svg version="1.1" xmlns="http://www.w3.org/2000/svg" xmlns:xlink="http://www.w3.org/1999/xlink" width="19.1602" height="19.1504">
 <g>
  <rect height="19.1504" opacity="0" width="19.1602" x="0" y="0"/>
  <path d="M9.57031 19.1406Q11.5527 19.1406 13.2861 18.3984Q15.0195 17.6562 16.3379 16.333Q17.6562 15.0098 18.4082 13.2764Q19.1602 11.543 19.1602 9.57031Q19.1602 7.59766 18.4082 5.86426Q17.6562 4.13086 16.3379 2.80762Q15.0195 1.48438 13.2861 0.742188Q11.5527 0 9.57031 0Q7.59766 0 5.86426 0.742188Q4.13086 1.48438 2.81738 2.80762Q1.50391 4.13086 0.751953 5.86426Q0 7.59766 0 9.57031Q0 11.543 0.74707 13.2764Q1.49414 15.0098 2.8125 16.333Q4.13086 17.6562 5.86914 18.3984Q7.60742 19.1406 9.57031 19.1406ZM9.57031 18.3984Q7.74414 18.3984 6.14746 17.71Q4.55078 17.0215 3.33496 15.8105Q2.11914 14.5996 1.43555 12.998Q0.751953 11.3965 0.751953 9.57031Q0.751953 7.74414 1.43555 6.14258Q2.11914 4.54102 3.33496 3.3252Q4.55078 2.10938 6.14746 1.4209Q7.74414 0.732422 9.57031 0.732422Q11.4062 0.732422 13.0029 1.4209Q14.5996 2.10938 15.8154 3.3252Q17.0312 4.54102 17.7197 6.14258Q18.4082 7.74414 18.4082 9.57031Q18.4082 11.3965 17.7246 12.998Q17.041 14.5996 15.8252 15.8105Q14.6094 17.0215 13.0078 17.71Q11.4062 18.3984 9.57031 18.3984ZM5.9375 14.1016L13.2129 14.1016Q13.8867 14.1016 14.2383 13.75Q14.5898 13.3984 14.5898 12.7246L14.5898 6.41602Q14.5898 5.75195 14.2383 5.40039Q13.8867 5.04883 13.2129 5.04883L5.9375 5.04883Q5.26367 5.04883 4.91211 5.39551Q4.56055 5.74219 4.56055 6.41602L4.56055 12.7246Q4.56055 13.3984 4.91211 13.75Q5.26367 14.1016 5.9375 14.1016ZM5.9668 13.5352Q5.53711 13.5352 5.3418 13.3398Q5.14648 13.1445 5.14648 12.7148L5.14648 8.22266Q5.14648 7.24609 6.13281 7.24609L13.0176 7.24609Q14.0039 7.24609 14.0039 8.22266L14.0039 12.7148Q14.0039 13.1445 13.8086 13.3398Q13.6133 13.5352 13.1738 13.5352ZM8.50586 9.0918L8.85742 9.0918Q8.98438 9.0918 9.01367 9.05762Q9.04297 9.02344 9.04297 8.89648L9.04297 8.55469Q9.04297 8.4375 9.01367 8.40332Q8.98438 8.36914 8.85742 8.36914L8.50586 8.36914Q8.38867 8.36914 8.35938 8.40332Q8.33008 8.4375 8.33008 8.55469L8.33008 8.89648Q8.33008 9.02344 8.35938 9.05762Q8.38867 9.0918 8.50586 9.0918ZM10.293 9.0918L10.6445 9.0918Q10.7617 9.0918 10.791 9.05762Q10.8203 9.02344 10.8203 8.89648L10.8203 8.55469Q10.8203 8.4375 10.791 8.40332Q10.7617 8.36914 10.6445 8.36914L10.293 8.36914Q10.166 8.36914 10.1367 8.40332Q10.1074 8.4375 10.1074 8.55469L10.1074 8.89648Q10.1074 9.02344 10.1367 9.05762Q10.166 9.0918 10.293 9.0918ZM12.0703 9.0918L12.4121 9.0918Q12.6172 9.0918 12.6172 8.89648L12.6172 8.55469Q12.6172 8.36914 12.4121 8.36914L12.0703 8.36914Q11.8652 8.36914 11.8652 8.55469L11.8652 8.89648Q11.8652 9.02344 11.9043 9.05762Q11.9434 9.0918 12.0703 9.0918ZM6.73828 10.8398L7.08008 10.8398Q7.20703 10.8398 7.24609 10.8057Q7.28516 10.7715 7.28516 10.6543L7.28516 10.293Q7.28516 10.1172 7.08008 10.1172L6.73828 10.1172Q6.5332 10.1172 6.5332 10.293L6.5332 10.6543Q6.5332 10.8398 6.73828 10.8398ZM8.50586 10.8398L8.85742 10.8398Q8.98438 10.8398 9.01367 10.8057Q9.04297 10.7715 9.04297 10.6543L9.04297 10.293Q9.04297 10.1758 9.01367 10.1465Q8.98438 10.1172 8.85742 10.1172L8.50586 10.1172Q8.38867 10.1172 8.35938 10.1465Q8.33008 10.1758 8.33008 10.293L8.33008 10.6543Q8.33008 10.7715 8.35938 10.8057Q8.38867 10.8398 8.50586 10.8398ZM10.293 10.8398L10.6445 10.8398Q10.7617 10.8398 10.791 10.8057Q10.8203 10.7715 10.8203 10.6543L10.8203 10.293Q10.8203 10.1758 10.791 10.1465Q10.7617 10.1172 10.6445 10.1172L10.293 10.1172Q10.166 10.1172 10.1367 10.1465Q10.1074 10.1758 10.1074 10.293L10.1074 10.6543Q10.1074 10.7715 10.1367 10.8057Q10.166 10.8398 10.293 10.8398ZM12.0703 10.8398L12.4121 10.8398Q12.6172 10.8398 12.6172 10.6543L12.6172 10.293Q12.6172 10.1172 12.4121 10.1172L12.0703 10.1172Q11.8652 10.1172 11.8652 10.293L11.8652 10.6543Q11.8652 10.7715 11.9043 10.8057Q11.9434 10.8398 12.0703 10.8398ZM6.73828 12.5781L7.08008 12.5781Q7.28516 12.5781 7.28516 12.4023L7.28516 12.0508Q7.28516 11.9238 7.24609 11.8945Q7.20703 11.8652 7.08008 11.8652L6.73828 11.8652Q6.5332 11.8652 6.5332 12.0508L6.5332 12.4023Q6.5332 12.5781 6.73828 12.5781ZM8.50586 12.5781L8.85742 12.5781Q8.98438 12.5781 9.01367 12.5488Q9.04297 12.5195 9.04297 12.4023L9.04297 12.0508Q9.04297 11.9238 9.01367 11.8945Q8.98438 11.8652 8.85742 11.8652L8.50586 11.8652Q8.38867 11.8652 8.35938 11.8945Q8.33008 11.9238 8.33008 12.0508L8.33008 12.4023Q8.33008 12.5195 8.35938 12.5488Q8.38867 12.5781 8.50586 12.5781ZM10.293 12.5781L10.6445 12.5781Q10.7617 12.5781 10.791 12.5488Q10.8203 12.5195 10.8203 12.4023L10.8203 12.0508Q10.8203 11.9238 10.791 11.8945Q10.7617 11.8652 10.6445 11.8652L10.293 11.8652Q10.166 11.8652 10.1367 11.8945Q10.1074 11.9238 10.1074 12.0508L10.1074 12.4023Q10.1074 12.5195 10.1367 12.5488Q10.166 12.5781 10.293 12.5781Z" fill="rgba(0,0,0,0.85)"/>
 </g>
</svg>
