<?xml version="1.0" encoding="UTF-8"?>
<!--Generator: Apple Native CoreSVG 175-->
<!DOCTYPE svg
PUBLIC "-//W3C//DTD SVG 1.1//EN"
       "http://www.w3.org/Graphics/SVG/1.1/DTD/svg11.dtd">
<svg version="1.1" xmlns="http://www.w3.org/2000/svg" xmlns:xlink="http://www.w3.org/1999/xlink" width="19.1554" height="19.1583">
 <g>
  <rect height="19.1583" opacity="0" width="19.1554" x="0" y="0"/>
  <path d="M9.57428 14.2918Q10.8617 14.2918 11.933 13.6481Q13.0043 13.0043 13.6516 11.9296Q14.2989 10.8548 14.2989 9.57428Q14.2989 8.28674 13.6516 7.21413Q13.0043 6.14151 11.933 5.49774Q10.8617 4.85397 9.57428 4.85397Q8.28674 4.85397 7.21542 5.49774Q6.1441 6.14151 5.50041 7.21413Q4.85672 8.28674 4.85672 9.57428Q4.85672 10.8548 5.50041 11.9296Q6.1441 13.0043 7.21893 13.6481Q8.29376 14.2918 9.57428 14.2918ZM9.57428 13.5907Q8.48602 13.5907 7.57446 13.0382Q6.6629 12.4857 6.11389 11.5741Q5.56488 10.6625 5.56488 9.57428Q5.56488 8.48328 6.11389 7.56821Q6.6629 6.65314 7.57309 6.10413Q8.48328 5.55511 9.57428 5.55511Q10.6625 5.55511 11.5775 6.10413Q12.4925 6.65314 13.0415 7.56821Q13.5905 8.48328 13.5905 9.57428Q13.5905 10.6653 13.0415 11.5755Q12.4925 12.4857 11.5789 13.0382Q10.6653 13.5907 9.57428 13.5907ZM17.6395 5.55511L17.6395 4.85672L9.58786 4.85397L9.58786 5.55511ZM17.1089 14.6078L17.7023 14.2485L13.6832 7.28439L13.0817 7.63718ZM8.98788 18.5942L9.59488 18.936L13.6195 11.9719L13.018 11.6165ZM1.50894 13.5907L1.50894 14.2891L9.56757 14.2918L9.56757 13.5907ZM2.04651 4.53522L1.45309 4.89731L5.46524 11.8614L6.07391 11.5086ZM10.1605 0.548859L9.55353 0.209808L5.53589 7.17392L6.13754 7.5293ZM9.57428 19.1486Q11.552 19.1486 13.2834 18.4024Q15.0148 17.6562 16.3355 16.3356Q17.6562 15.015 18.4058 13.28Q19.1554 11.545 19.1554 9.57428Q19.1554 7.60361 18.4058 5.86861Q17.6562 4.13361 16.3355 2.81296Q15.0148 1.49231 13.282 0.746155Q11.5492 0 9.57153 0Q7.60086 0 5.86586 0.746155Q4.13086 1.49231 2.81502 2.81296Q1.49918 4.13361 0.749588 5.86861Q0 7.60361 0 9.57428Q0 11.545 0.746078 13.28Q1.49216 15.015 2.81288 16.3356Q4.13361 17.6562 5.86853 18.4024Q7.60345 19.1486 9.57428 19.1486ZM9.57428 18.4024Q7.74734 18.4024 6.14853 17.7157Q4.54971 17.029 3.33466 15.8174Q2.1196 14.6059 1.43425 13.0035Q0.748901 11.4012 0.748901 9.57428Q0.748901 7.74734 1.43425 6.14502Q2.1196 4.54269 3.33328 3.32626Q4.54697 2.10983 6.14578 1.42448Q7.7446 0.739136 9.57153 0.739136Q11.4055 0.739136 13.0043 1.42448Q14.6031 2.10983 15.8195 3.32626Q17.036 4.54269 17.7227 6.14502Q18.4094 7.74734 18.4094 9.57428Q18.4094 11.4012 17.7241 13.0035Q17.0387 14.6059 15.8237 15.8174Q14.6086 17.029 13.0084 17.7157Q11.4082 18.4024 9.57428 18.4024Z" fill="rgba(0,0,0,0.85)"/>
 </g>
</svg>
