<?xml version="1.0" encoding="UTF-8"?>
<!--Generator: Apple Native CoreSVG 175-->
<!DOCTYPE svg
PUBLIC "-//W3C//DTD SVG 1.1//EN"
       "http://www.w3.org/Graphics/SVG/1.1/DTD/svg11.dtd">
<svg version="1.1" xmlns="http://www.w3.org/2000/svg" xmlns:xlink="http://www.w3.org/1999/xlink" width="20.0703" height="18.8428">
 <g>
  <rect height="18.8428" opacity="0" width="20.0703" x="0" y="0"/>
  <path d="M6.59225 13.5997L13.4711 13.5997Q14.166 13.5997 14.5822 13.1858Q14.9985 12.7719 14.9985 12.0863L14.9985 9.71344L19.2058 9.71344Q19.5863 9.71344 19.8283 9.50439Q20.0703 9.29535 20.0703 8.94699Q20.0703 8.73871 19.9697 8.54904Q19.8691 8.35938 19.6707 8.18878L11.0667 0.599213Q10.6938 0.26535 10.476 0.142899Q10.2582 0.0204468 10.0316 0.0204468Q9.80789 0.0204468 9.59221 0.142899Q9.37653 0.26535 9.00345 0.599213L0.399628 8.18451Q0.191345 8.36761 0.0956726 8.55316Q0 8.73871 0 8.94699Q0 9.29535 0.238495 9.50439Q0.47699 9.71344 0.857391 9.71344L5.07187 9.71344L5.07187 12.0863Q5.07187 12.7719 5.48454 13.1858Q5.89722 13.5997 6.59225 13.5997ZM6.62888 12.8986Q6.26404 12.8986 6.03691 12.6749Q5.80978 12.4512 5.80978 12.0863L5.80978 9.27383Q5.80978 9.12628 5.75058 9.0657Q5.69138 9.00513 5.54108 9.00513L1.11725 9.00513Q0.883179 9.00513 0.883179 8.84262Q0.883179 8.7207 1.0051 8.61298L9.53125 1.11771Q9.85229 0.820465 10.0316 0.820465Q10.2136 0.820465 10.5391 1.11771L19.0582 8.61298Q19.18 8.7207 19.18 8.84262Q19.18 9.00513 18.9531 9.00513L14.5222 9.00513Q14.3745 9.00513 14.3176 9.0657Q14.2606 9.12628 14.2606 9.27383L14.2606 12.0863Q14.2606 12.4486 14.0285 12.6736Q13.7965 12.8986 13.4415 12.8986ZM6.3269 18.8428L13.6977 18.8428Q14.3011 18.8428 14.6455 18.5188Q14.9899 18.1947 14.9899 17.5911L14.9899 16.49Q14.9899 15.8907 14.6455 15.5253Q14.3011 15.1599 13.6977 15.1599L6.3269 15.1599Q5.73318 15.1599 5.38536 15.5267Q5.03754 15.8934 5.03754 16.49L5.03754 17.5911Q5.03754 18.192 5.38536 18.5174Q5.73318 18.8428 6.3269 18.8428ZM6.37589 18.1548Q5.7457 18.1548 5.7457 17.5668L5.7457 16.5211Q5.7457 16.2251 5.91621 16.0365Q6.08673 15.8478 6.37589 15.8478L13.6559 15.8478Q13.9449 15.8478 14.1167 16.0365Q14.2886 16.2251 14.2886 16.5211L14.2886 17.5668Q14.2886 18.1548 13.6559 18.1548Z" fill="rgba(0,0,0,0.85)"/>
 </g>
</svg>
