<?xml version="1.0" encoding="UTF-8"?>
<!--Generator: Apple Native CoreSVG 175-->
<!DOCTYPE svg
PUBLIC "-//W3C//DTD SVG 1.1//EN"
       "http://www.w3.org/Graphics/SVG/1.1/DTD/svg11.dtd">
<svg version="1.1" xmlns="http://www.w3.org/2000/svg" xmlns:xlink="http://www.w3.org/1999/xlink" width="29.5129" height="17.612">
 <g>
  <rect height="17.612" opacity="0" width="29.5129" x="0" y="0"/>
  <path d="M18.4242 15.0812Q19.5915 15.0812 20.9235 15.0519Q22.2556 15.0226 23.5514 14.9689Q24.8473 14.9152 25.9402 14.8503Q27.0332 14.7855 27.7196 14.7003Q28.5582 14.6042 29.0356 14.1691Q29.5129 13.734 29.5129 12.8737L29.5129 11.1549Q29.5129 10.2827 29.3768 9.67316Q29.2407 9.06357 28.9743 8.58139Q28.7079 8.09921 28.336 7.60468L27.4734 6.48392Q27.2949 5.60501 27.0495 4.74564Q26.804 3.88626 26.555 3.20267Q26.306 2.51907 26.14 2.15775Q25.7564 1.34171 25.0591 0.927277Q24.3617 0.512848 23.5469 0.406952Q23.2106 0.358124 22.4202 0.328827Q21.6298 0.29953 20.5796 0.284882Q19.5294 0.270233 18.4242 0.270233Q17.3094 0.270233 16.2592 0.286255Q15.209 0.302277 14.4199 0.331573Q13.6308 0.36087 13.2918 0.406952Q12.477 0.510101 11.7797 0.925903Q11.0825 1.34171 10.6989 2.15775Q10.5328 2.51907 10.2838 3.20267Q10.0348 3.88626 9.78928 4.74564Q9.54376 5.60501 9.36523 6.48392L8.50281 7.60468Q8.13095 8.09921 7.86453 8.58139Q7.59811 9.06357 7.46193 9.67316Q7.32574 10.2827 7.32574 11.1549L7.32574 12.8737Q7.32574 13.734 7.80312 14.1691Q8.28049 14.6042 9.11911 14.7003Q9.8082 14.7855 10.8998 14.8503Q11.9914 14.9152 13.2874 14.9689Q14.5833 15.0226 15.9153 15.0519Q17.2473 15.0812 18.4242 15.0812ZM10.9019 5.76904Q11.0474 5.09415 11.235 4.48433Q11.4227 3.87451 11.611 3.4005Q11.7993 2.92648 11.9556 2.6503Q12.1817 2.26639 12.5229 2.01599Q12.8641 1.76559 13.4332 1.69296Q14.0082 1.61484 15.2908 1.58142Q16.5735 1.548 18.4242 1.548Q20.2681 1.548 21.5493 1.58005Q22.8305 1.61209 23.4082 1.69296Q23.9746 1.76559 24.3159 2.01599Q24.6571 2.26639 24.8833 2.6503Q25.0423 2.92374 25.2292 3.39775Q25.4161 3.87177 25.5989 4.48296Q25.7817 5.09415 25.9367 5.76904Q25.984 5.9581 25.8999 6.09154Q25.8157 6.22498 25.5466 6.20544Q24.6867 6.1496 23.7199 6.10428Q22.7531 6.05896 21.4817 6.03668Q20.2103 6.0144 18.4242 6.0144Q16.6286 6.0144 15.3571 6.03668Q14.0855 6.05896 13.1187 6.10428Q12.1519 6.1496 11.2923 6.20544Q11.0231 6.22498 10.9403 6.09154Q10.8575 5.9581 10.9019 5.76904ZM11.3734 12.3883Q10.822 12.3883 10.4571 12.022Q10.0922 11.6557 10.0922 11.1043Q10.0922 10.5499 10.4571 10.1816Q10.822 9.81323 11.3734 9.81323Q11.9348 9.81323 12.2997 10.1816Q12.6645 10.5499 12.6645 11.1043Q12.6645 11.6557 12.2997 12.022Q11.9348 12.3883 11.3734 12.3883ZM16.0051 12.2156Q15.5984 12.2156 15.3479 11.9663Q15.0974 11.7171 15.0974 11.3077Q15.0974 10.901 15.3479 10.6519Q15.5984 10.4027 16.0051 10.4027L20.8336 10.4027Q21.2402 10.4027 21.4909 10.6519Q21.7415 10.901 21.7415 11.3077Q21.7415 11.7171 21.4909 11.9663Q21.2402 12.2156 20.8336 12.2156ZM25.4652 12.3883Q24.904 12.3883 24.5391 12.022Q24.1742 11.6557 24.1742 11.1043Q24.1742 10.5499 24.5391 10.1816Q24.904 9.81323 25.4652 9.81323Q26.0168 9.81323 26.3817 10.1816Q26.7465 10.5499 26.7465 11.1043Q26.7465 11.6557 26.3817 12.022Q26.0168 12.3883 25.4652 12.3883ZM8.54736 17.612L9.63638 17.612Q10.148 17.612 10.498 17.262Q10.8481 16.9121 10.8481 16.3933L10.8481 14.1023L7.32574 12.4234L7.32574 16.3933Q7.32574 16.9121 7.67715 17.262Q8.02856 17.612 8.54736 17.612ZM27.2025 17.612L28.2915 17.612Q28.8103 17.612 29.1616 17.262Q29.5129 16.9121 29.5129 16.3933L29.5129 12.4234L25.9908 14.1023L25.9908 16.3933Q25.9908 16.9121 26.3407 17.262Q26.6907 17.612 27.2025 17.612ZM3.5762 5.78659Q3.72147 5.11169 3.90915 4.50188Q4.09683 3.89206 4.28513 3.41805Q4.47342 2.94403 4.62967 2.67487Q4.85321 2.28394 5.19928 2.03705Q5.54535 1.79016 6.10474 1.71051Q6.59454 1.64215 7.59003 1.61011Q8.58551 1.57806 10.0461 1.56555Q10.2359 1.15768 10.4709 0.855942Q10.7059 0.554199 11.0934 0.26474Q9.08478 0.277252 7.7494 0.312805Q6.41403 0.348358 5.96756 0.404205Q5.14572 0.497589 4.45198 0.919647Q3.75824 1.34171 3.37463 2.15775Q3.19885 2.51633 2.95471 3.20129Q2.71057 3.88626 2.46155 4.74564Q2.21252 5.60501 2.03674 6.48392L1.17691 7.60468Q0.805054 8.09921 0.542145 8.58276Q0.279236 9.06631 0.139618 9.6759Q0 10.2855 0 11.1577L0.00274658 12.8764Q0.00549316 13.7367 0.481491 14.1705Q0.957489 14.6042 1.79611 14.7003Q2.54807 14.7952 3.79341 14.865Q5.03876 14.9347 6.45203 14.9905L6.45203 11.1577Q6.45203 10.2855 6.59164 9.6759Q6.73126 9.06631 6.99417 8.58276Q7.25708 8.09921 7.62619 7.60468L8.48862 6.48392L8.62534 6.04446Q7.59537 6.064 6.78032 6.08978Q5.96527 6.11557 5.28206 6.14975Q4.59885 6.18393 3.96637 6.22299Q3.69736 6.24252 3.61313 6.11267Q3.5289 5.98282 3.5762 5.78659ZM3.68164 12.2757Q3.13675 12.2757 2.77931 11.9169Q2.42188 11.5581 2.42188 11.0229Q2.42188 10.4781 2.77931 10.1206Q3.13675 9.76318 3.68164 9.76318Q4.21677 9.76318 4.5742 10.1206Q4.93164 10.4781 4.93164 11.0229Q4.93164 11.5581 4.5742 11.9169Q4.21677 12.2757 3.68164 12.2757ZM1.21994 17.612L2.30621 17.612Q2.82776 17.612 3.17642 17.262Q3.52509 16.9121 3.52509 16.3933L3.52509 14.0413L0.00274658 12.3581L0.00274658 16.396Q0.00274658 16.9148 0.35408 17.2634Q0.705414 17.612 1.21994 17.612Z" fill="rgba(0,0,0,0.85)"/>
 </g>
</svg>
