<?xml version="1.0" encoding="UTF-8"?>
<!--Generator: Apple Native CoreSVG 175-->
<!DOCTYPE svg
PUBLIC "-//W3C//DTD SVG 1.1//EN"
       "http://www.w3.org/Graphics/SVG/1.1/DTD/svg11.dtd">
<svg version="1.1" xmlns="http://www.w3.org/2000/svg" xmlns:xlink="http://www.w3.org/1999/xlink" width="17.2852" height="17.3145">
 <g>
  <rect height="17.3145" opacity="0" width="17.2852" x="0" y="0"/>
  <path d="M2.62695 17.3145L14.6484 17.3145Q15.957 17.3145 16.6211 16.6455Q17.2852 15.9766 17.2852 14.6875L17.2852 2.65625Q17.2852 1.37695 16.6211 0.703125Q15.957 0.0292969 14.6484 0.0292969L2.62695 0.0292969Q1.33789 0.0292969 0.668945 0.693359Q0 1.35742 0 2.65625L0 14.6875Q0 15.9863 0.668945 16.6504Q1.33789 17.3145 2.62695 17.3145ZM2.65625 16.5918Q1.70898 16.5918 1.2207 16.1035Q0.732422 15.6152 0.732422 14.6582L0.732422 2.69531Q0.732422 1.72852 1.2207 1.24512Q1.70898 0.761719 2.65625 0.761719L14.6289 0.761719Q15.5566 0.761719 16.0596 1.24512Q16.5625 1.72852 16.5625 2.69531L16.5625 14.6582Q16.5625 15.6152 16.0596 16.1035Q15.5566 16.5918 14.6289 16.5918ZM5.24414 8.68164Q5.24414 10.5566 6.08398 11.7041Q6.92383 12.8516 8.4082 12.998L8.4082 13.8379Q8.4082 13.9844 8.49121 14.0625Q8.57422 14.1406 8.70117 14.1406Q8.82812 14.1406 8.91602 14.0625Q9.00391 13.9844 9.00391 13.8379L9.00391 13.0078Q10.0977 12.959 10.8398 12.3926Q11.582 11.8262 11.8359 10.9473Q11.8652 10.8398 11.8945 10.7275Q11.9238 10.6152 11.9238 10.498Q11.9238 10.3516 11.8311 10.2539Q11.7383 10.1562 11.6113 10.1562Q11.4844 10.1562 11.3867 10.2393Q11.2891 10.3223 11.2695 10.4492Q11.1523 11.2695 10.542 11.7969Q9.93164 12.3242 9.00391 12.3828L9.00391 5.08789Q9.90234 5.15625 10.5176 5.7373Q11.1328 6.31836 11.2598 7.11914Q11.2891 7.40234 11.5918 7.40234Q11.7285 7.40234 11.8213 7.30957Q11.9141 7.2168 11.8945 7.05078Q11.8945 6.94336 11.8701 6.8457Q11.8457 6.74805 11.8262 6.65039Q11.5625 5.74219 10.8008 5.12695Q10.0391 4.51172 9.00391 4.45312L9.00391 3.75Q9.00391 3.60352 8.91602 3.52539Q8.82812 3.44727 8.70117 3.44727Q8.57422 3.44727 8.49121 3.52539Q8.4082 3.60352 8.4082 3.75L8.4082 4.46289Q6.91406 4.60938 6.0791 5.73242Q5.24414 6.85547 5.24414 8.68164ZM5.91797 8.68164Q5.91797 7.14844 6.56738 6.20117Q7.2168 5.25391 8.4082 5.10742L8.4082 12.3633Q7.22656 12.2168 6.57227 11.2305Q5.91797 10.2441 5.91797 8.68164Z" fill="rgba(0,0,0,0.85)"/>
 </g>
</svg>
