<?xml version="1.0" encoding="UTF-8"?>
<!--Generator: Apple Native CoreSVG 175-->
<!DOCTYPE svg
PUBLIC "-//W3C//DTD SVG 1.1//EN"
       "http://www.w3.org/Graphics/SVG/1.1/DTD/svg11.dtd">
<svg version="1.1" xmlns="http://www.w3.org/2000/svg" xmlns:xlink="http://www.w3.org/1999/xlink" width="19.1626" height="19.1809">
 <g>
  <rect height="19.1809" opacity="0" width="19.1626" x="0" y="0"/>
  <path d="M9.57428 19.1809Q11.4235 19.1809 13.0844 18.5059Q14.7453 17.831 16.0324 16.6531L9.39499 10.0961Q9.27658 9.98047 9.23965 9.86137Q9.20273 9.74228 9.20273 9.54697L9.20273 0.0363159Q7.29141 0.110931 5.62347 0.887527Q3.95554 1.66412 2.69142 2.9731Q1.42731 4.28207 0.713654 5.98106Q0 7.68005 0 9.60663Q0 11.5773 0.746078 13.3137Q1.49216 15.05 2.81288 16.3659Q4.13361 17.6817 5.86853 18.4313Q7.60345 19.1809 9.57428 19.1809ZM19.1626 9.58557Q19.1626 8.48907 18.8911 7.40311Q18.6195 6.31714 18.1578 5.39383L10.1793 9.92035L16.4859 16.2051Q17.7364 14.9219 18.4495 13.1863Q19.1626 11.4508 19.1626 9.58557ZM9.87152 9.31686L17.8368 4.78561Q16.9731 3.28171 15.6584 2.21954Q14.3437 1.15738 12.8348 0.602341Q11.3258 0.0473022 9.87152 0.0280762Z" fill="rgba(0,0,0,0.85)"/>
 </g>
</svg>
