<?xml version="1.0" encoding="UTF-8"?>
<!--Generator: Apple Native CoreSVG 175-->
<!DOCTYPE svg
PUBLIC "-//W3C//DTD SVG 1.1//EN"
       "http://www.w3.org/Graphics/SVG/1.1/DTD/svg11.dtd">
<svg version="1.1" xmlns="http://www.w3.org/2000/svg" xmlns:xlink="http://www.w3.org/1999/xlink" width="21.1493" height="19.6152">
 <g>
  <rect height="19.6152" opacity="0" width="21.1493" x="0" y="0"/>
  <path d="M3.99811 8.02536Q5.09415 8.02536 6.0006 7.48573Q6.90704 6.94611 7.44804 6.03966Q7.98904 5.13321 7.98904 4.04419Q7.98904 2.94098 7.44804 2.02965Q6.90704 1.11832 5.99709 0.577316Q5.08713 0.0363159 3.99811 0.0363159Q2.8949 0.0363159 1.98708 0.577316Q1.07925 1.11832 0.539627 2.02965Q0 2.94098 0 4.04419Q0 5.13321 0.541 6.03966Q1.082 6.94611 1.98982 7.48573Q2.89764 8.02536 3.99811 8.02536ZM3.5141 6.30005Q3.414 6.30981 3.34389 6.25977Q3.27377 6.20972 3.21564 6.13205L1.89682 4.62387Q1.7981 4.53781 1.7981 4.35547Q1.7981 4.21799 1.90453 4.1066Q2.01096 3.99521 2.164 3.99521Q2.25433 3.99521 2.33223 4.03625Q2.41013 4.0773 2.45865 4.14093L3.50159 5.35385L5.52109 2.19528Q5.65475 1.99219 5.84106 1.99219Q5.99686 1.99219 6.10603 2.10075Q6.21521 2.20932 6.21521 2.34573Q6.21521 2.4707 6.10931 2.6265L3.8504 6.11084Q3.71674 6.30981 3.5141 6.30005ZM3.99811 19.6152Q5.08713 19.6152 5.99709 19.0742Q6.90704 18.5332 7.44804 17.6218Q7.98904 16.7105 7.98904 15.61Q7.98904 14.5113 7.44804 13.6034Q6.90704 12.6956 5.99709 12.156Q5.08713 11.6164 3.99811 11.6164Q2.8949 11.6164 1.98708 12.1574Q1.07925 12.6984 0.539627 13.6097Q0 14.521 0 15.61Q0 16.7105 0.541 17.6183Q1.082 18.5262 1.98982 19.0707Q2.89764 19.6152 3.99811 19.6152ZM3.99811 18.9206Q3.09143 18.9206 2.34062 18.4695Q1.58981 18.0183 1.1422 17.264Q0.69458 16.5097 0.69458 15.61Q0.69458 14.7078 1.14571 13.9535Q1.59683 13.1992 2.34413 12.748Q3.09143 12.2969 3.99811 12.2969Q4.89761 12.2969 5.65193 12.7515Q6.40625 13.2062 6.85745 13.9605Q7.30865 14.7148 7.30865 15.61Q7.30865 16.5097 6.85745 17.264Q6.40625 18.0183 5.65193 18.4695Q4.89761 18.9206 3.99811 18.9206ZM10.6841 4.39255L20.798 4.39255Q20.9488 4.39255 21.049 4.29375Q21.1493 4.19495 21.1493 4.04419Q21.1493 3.88901 21.049 3.79021Q20.9488 3.69141 20.798 3.69141L10.6841 3.69141Q10.5261 3.69141 10.4273 3.79021Q10.3285 3.88901 10.3285 4.04419Q10.3285 4.19495 10.4273 4.29375Q10.5261 4.39255 10.6841 4.39255ZM10.6841 15.9628L20.798 15.9628Q20.9488 15.9628 21.049 15.864Q21.1493 15.7652 21.1493 15.61Q21.1493 15.4593 21.049 15.357Q20.9488 15.2547 20.798 15.2547L10.6841 15.2547Q10.5261 15.2547 10.4273 15.357Q10.3285 15.4593 10.3285 15.61Q10.3285 15.7652 10.4273 15.864Q10.5261 15.9628 10.6841 15.9628Z" fill="rgba(0,0,0,0.85)"/>
 </g>
</svg>
