<?xml version="1.0" encoding="UTF-8"?>
<!--Generator: Apple Native CoreSVG 175-->
<!DOCTYPE svg
PUBLIC "-//W3C//DTD SVG 1.1//EN"
       "http://www.w3.org/Graphics/SVG/1.1/DTD/svg11.dtd">
<svg version="1.1" xmlns="http://www.w3.org/2000/svg" xmlns:xlink="http://www.w3.org/1999/xlink" width="17.2852" height="17.3145">
 <g>
  <rect height="17.3145" opacity="0" width="17.2852" x="0" y="0"/>
  <path d="M2.62695 17.3145L14.6484 17.3145Q15.957 17.3145 16.6211 16.6455Q17.2852 15.9766 17.2852 14.6875L17.2852 2.65625Q17.2852 1.37695 16.6211 0.703125Q15.957 0.0292969 14.6484 0.0292969L2.62695 0.0292969Q1.33789 0.0292969 0.668945 0.693359Q0 1.35742 0 2.65625L0 14.6875Q0 15.9863 0.668945 16.6504Q1.33789 17.3145 2.62695 17.3145ZM7.60742 13.3105Q7.48047 13.3105 7.39746 13.2666Q7.31445 13.2227 7.22656 13.1152L4.29688 9.70703Q4.24805 9.63867 4.21387 9.56055Q4.17969 9.48242 4.17969 9.39453Q4.17969 9.23828 4.28711 9.13574Q4.39453 9.0332 4.54102 9.0332Q4.64844 9.0332 4.72656 9.07227Q4.80469 9.11133 4.88281 9.20898L7.58789 12.373L12.5 4.7168Q12.6465 4.51172 12.832 4.51172Q12.9688 4.51172 13.0859 4.61426Q13.2031 4.7168 13.2031 4.86328Q13.2031 4.93164 13.1738 5.00488Q13.1445 5.07812 13.1152 5.13672L7.97852 13.1152Q7.90039 13.2129 7.80762 13.2617Q7.71484 13.3105 7.60742 13.3105Z" fill="rgba(0,0,0,0.85)"/>
 </g>
</svg>
