<?xml version="1.0" encoding="UTF-8"?>
<!--Generator: Apple Native CoreSVG 175-->
<!DOCTYPE svg
PUBLIC "-//W3C//DTD SVG 1.1//EN"
       "http://www.w3.org/Graphics/SVG/1.1/DTD/svg11.dtd">
<svg version="1.1" xmlns="http://www.w3.org/2000/svg" xmlns:xlink="http://www.w3.org/1999/xlink" width="3.85513" height="16.2473">
 <g>
  <rect height="16.2473" opacity="0" width="3.85513" x="0" y="0"/>
  <path d="M0.741882 15.9926L3.70361 8.70667Q3.76022 8.56873 3.80768 8.40935Q3.85513 8.24997 3.85513 8.12454Q3.85513 7.9921 3.80768 7.83134Q3.76022 7.67059 3.70361 7.53555L0.741882 0.249634Q0.690613 0.113983 0.589828 0.0569916Q0.489044 0 0.401154 0Q0.224609 0 0.112305 0.113068Q0 0.226135 0 0.402679Q0 0.491028 0.0330353 0.592957Q0.0660706 0.694885 0.0921631 0.782013L3.1723 8.36792L3.1723 7.87415L0.0921631 15.4601Q0.0660706 15.5499 0.0330353 15.6527Q0 15.7555 0 15.8394Q0 16.0161 0.112305 16.1305Q0.224609 16.245 0.401154 16.245Q0.489044 16.245 0.589828 16.1865Q0.690613 16.1281 0.741882 15.9926Z" fill="rgba(0,0,0,0.85)"/>
 </g>
</svg>
