<?xml version="1.0" encoding="UTF-8"?>
<!--Generator: Apple Native CoreSVG 175-->
<!DOCTYPE svg
PUBLIC "-//W3C//DTD SVG 1.1//EN"
       "http://www.w3.org/Graphics/SVG/1.1/DTD/svg11.dtd">
<svg version="1.1" xmlns="http://www.w3.org/2000/svg" xmlns:xlink="http://www.w3.org/1999/xlink" width="8.7001" height="15.3458">
 <g>
  <rect height="15.3458" opacity="0" width="8.7001" x="0" y="0"/>
  <path d="M0 7.668Q0 7.76215 0.0366974 7.8389Q0.0733948 7.91565 0.146942 7.98203L8.03162 15.22Q8.14774 15.336 8.31482 15.336Q8.41415 15.336 8.50182 15.2856Q8.58948 15.2353 8.64479 15.1511Q8.7001 15.0668 8.7001 14.9536Q8.7001 14.7961 8.59802 14.6915L0.947266 7.668L8.59802 0.644531Q8.7001 0.539856 8.7001 0.382385Q8.7001 0.269165 8.64479 0.181427Q8.58948 0.093689 8.50182 0.0468445Q8.41415 0 8.31482 0Q8.14774 0 8.03162 0.106201L0.146942 7.35397Q0.0733948 7.42035 0.0366974 7.49359Q0 7.56683 0 7.668Z" fill="rgba(0,0,0,0.85)"/>
 </g>
</svg>
