<?xml version="1.0" encoding="UTF-8"?>
<!--Generator: Apple Native CoreSVG 175-->
<!DOCTYPE svg
PUBLIC "-//W3C//DTD SVG 1.1//EN"
       "http://www.w3.org/Graphics/SVG/1.1/DTD/svg11.dtd">
<svg version="1.1" xmlns="http://www.w3.org/2000/svg" xmlns:xlink="http://www.w3.org/1999/xlink" width="19.1602" height="19.1504">
 <g>
  <rect height="19.1504" opacity="0" width="19.1602" x="0" y="0"/>
  <path d="M9.57031 19.1406Q11.5527 19.1406 13.2861 18.3984Q15.0195 17.6562 16.3379 16.333Q17.6562 15.0098 18.4082 13.2764Q19.1602 11.543 19.1602 9.57031Q19.1602 7.59766 18.4082 5.86426Q17.6562 4.13086 16.3379 2.80762Q15.0195 1.48438 13.2861 0.742188Q11.5527 0 9.57031 0Q7.59766 0 5.86426 0.742188Q4.13086 1.48438 2.81738 2.80762Q1.50391 4.13086 0.751953 5.86426Q0 7.59766 0 9.57031Q0 11.543 0.74707 13.2764Q1.49414 15.0098 2.8125 16.333Q4.13086 17.6562 5.86914 18.3984Q7.60742 19.1406 9.57031 19.1406ZM9.57031 18.3984Q7.74414 18.3984 6.14746 17.71Q4.55078 17.0215 3.33496 15.8105Q2.11914 14.5996 1.43555 12.998Q0.751953 11.3965 0.751953 9.57031Q0.751953 7.74414 1.43555 6.14258Q2.11914 4.54102 3.33496 3.3252Q4.55078 2.10938 6.14746 1.4209Q7.74414 0.732422 9.57031 0.732422Q11.4062 0.732422 13.0029 1.4209Q14.5996 2.10938 15.8154 3.3252Q17.0312 4.54102 17.7197 6.14258Q18.4082 7.74414 18.4082 9.57031Q18.4082 11.3965 17.7246 12.998Q17.041 14.5996 15.8252 15.8105Q14.6094 17.0215 13.0078 17.71Q11.4062 18.3984 9.57031 18.3984ZM6.12305 7.68555Q6.67969 7.68555 7.08008 7.28027Q7.48047 6.875 7.48047 6.31836Q7.48047 5.75195 7.08008 5.34668Q6.67969 4.94141 6.12305 4.94141Q5.55664 4.94141 5.15625 5.34668Q4.75586 5.75195 4.75586 6.31836Q4.75586 6.875 5.15625 7.28027Q5.55664 7.68555 6.12305 7.68555ZM9.57031 7.68555Q10.1367 7.68555 10.542 7.28027Q10.9473 6.875 10.9473 6.31836Q10.9473 5.75195 10.542 5.34668Q10.1367 4.94141 9.57031 4.94141Q9.00391 4.94141 8.60352 5.34668Q8.20312 5.75195 8.20312 6.31836Q8.20312 6.875 8.60352 7.28027Q9.00391 7.68555 9.57031 7.68555ZM13.0176 7.68555Q13.5938 7.68555 13.9893 7.28027Q14.3848 6.875 14.3848 6.31836Q14.3848 5.75195 13.9893 5.34668Q13.5938 4.94141 13.0176 4.94141Q12.4414 4.94141 12.0557 5.34668Q11.6699 5.75195 11.6699 6.31836Q11.6699 6.875 12.0654 7.28027Q12.4609 7.68555 13.0176 7.68555ZM6.12305 10.9082Q6.67969 10.9082 7.08008 10.5029Q7.48047 10.0977 7.48047 9.55078Q7.48047 8.98438 7.0752 8.5791Q6.66992 8.17383 6.12305 8.17383Q5.55664 8.17383 5.15625 8.5791Q4.75586 8.98438 4.75586 9.55078Q4.75586 10.0977 5.15625 10.5029Q5.55664 10.9082 6.12305 10.9082ZM9.57031 10.9082Q10.1367 10.9082 10.542 10.5029Q10.9473 10.0977 10.9473 9.55078Q10.9473 8.98438 10.542 8.5791Q10.1367 8.17383 9.57031 8.17383Q9.00391 8.17383 8.60352 8.5791Q8.20312 8.98438 8.20312 9.55078Q8.20312 10.0977 8.60352 10.5029Q9.00391 10.9082 9.57031 10.9082ZM13.0176 10.9082Q13.5938 10.9082 13.9893 10.5029Q14.3848 10.0977 14.3848 9.55078Q14.3848 8.98438 13.9893 8.5791Q13.5938 8.17383 13.0176 8.17383Q12.4609 8.17383 12.0654 8.5791Q11.6699 8.98438 11.6699 9.55078Q11.6699 10.0977 12.0654 10.5029Q12.4609 10.9082 13.0176 10.9082ZM6.12305 14.1309Q6.67969 14.1309 7.08008 13.7305Q7.48047 13.3301 7.48047 12.7734Q7.48047 12.207 7.0752 11.8018Q6.66992 11.3965 6.12305 11.3965Q5.55664 11.3965 5.15625 11.8018Q4.75586 12.207 4.75586 12.7734Q4.75586 13.3301 5.15625 13.7305Q5.55664 14.1309 6.12305 14.1309ZM9.57031 14.1309Q10.1367 14.1309 10.542 13.7305Q10.9473 13.3301 10.9473 12.7734Q10.9473 12.207 10.542 11.8018Q10.1367 11.3965 9.57031 11.3965Q9.00391 11.3965 8.60352 11.8018Q8.20312 12.207 8.20312 12.7734Q8.20312 13.3301 8.60352 13.7305Q9.00391 14.1309 9.57031 14.1309ZM13.0176 14.1309Q13.5938 14.1309 13.9893 13.7305Q14.3848 13.3301 14.3848 12.7734Q14.3848 12.207 13.9893 11.8018Q13.5938 11.3965 13.0176 11.3965Q12.4609 11.3965 12.0654 11.8018Q11.6699 12.207 11.6699 12.7734Q11.6699 13.3301 12.0654 13.7305Q12.4609 14.1309 13.0176 14.1309Z" fill="rgba(0,0,0,0.85)"/>
 </g>
</svg>
