<?xml version="1.0" encoding="UTF-8"?>
<!--Generator: Apple Native CoreSVG 175-->
<!DOCTYPE svg
PUBLIC "-//W3C//DTD SVG 1.1//EN"
       "http://www.w3.org/Graphics/SVG/1.1/DTD/svg11.dtd">
<svg version="1.1" xmlns="http://www.w3.org/2000/svg" xmlns:xlink="http://www.w3.org/1999/xlink" width="19.1602" height="19.1504">
 <g>
  <rect height="19.1504" opacity="0" width="19.1602" x="0" y="0"/>
  <path d="M9.57031 19.1406Q11.5527 19.1406 13.2861 18.3984Q15.0195 17.6562 16.3379 16.333Q17.6562 15.0098 18.4082 13.2764Q19.1602 11.543 19.1602 9.57031Q19.1602 7.59766 18.4082 5.86426Q17.6562 4.13086 16.3379 2.80762Q15.0195 1.48438 13.2861 0.742188Q11.5527 0 9.57031 0Q7.59766 0 5.86426 0.742188Q4.13086 1.48438 2.81738 2.80762Q1.50391 4.13086 0.751953 5.86426Q0 7.59766 0 9.57031Q0 11.543 0.74707 13.2764Q1.49414 15.0098 2.8125 16.333Q4.13086 17.6562 5.86914 18.3984Q7.60742 19.1406 9.57031 19.1406ZM6.60156 10.127L9.57031 10.127Q9.70703 10.127 9.7998 10.0488Q9.89258 9.9707 9.89258 9.83398L9.89258 5.95703Q9.89258 5.83984 9.80469 5.75684Q9.7168 5.67383 9.57031 5.67383Q9.45312 5.67383 9.37012 5.75684Q9.28711 5.83984 9.28711 5.95703L9.28711 9.54102L6.60156 9.54102Q6.46484 9.54102 6.38672 9.61914Q6.30859 9.69727 6.30859 9.83398Q6.30859 9.96094 6.38672 10.0439Q6.46484 10.127 6.60156 10.127ZM9.58008 14.8535Q8.48633 14.8535 7.5293 14.4434Q6.57227 14.0332 5.84473 13.3008Q5.11719 12.5684 4.70215 11.6162Q4.28711 10.6641 4.28711 9.57031Q4.28711 8.47656 4.70215 7.51953Q5.11719 6.5625 5.84473 5.83008Q6.57227 5.09766 7.5293 4.6875Q8.48633 4.27734 9.57031 4.27734Q10.6641 4.27734 11.626 4.6875Q12.5879 5.09766 13.3154 5.83008Q14.043 6.5625 14.4531 7.51953Q14.8633 8.47656 14.8633 9.57031Q14.8633 10.6641 14.4531 11.6162Q14.043 12.5684 13.3154 13.3008Q12.5879 14.0332 11.626 14.4434Q10.6641 14.8535 9.58008 14.8535Z" fill="rgba(0,0,0,0.85)"/>
 </g>
</svg>
