<?xml version="1.0" encoding="UTF-8"?>
<!--Generator: Apple Native CoreSVG 175-->
<!DOCTYPE svg
PUBLIC "-//W3C//DTD SVG 1.1//EN"
       "http://www.w3.org/Graphics/SVG/1.1/DTD/svg11.dtd">
<svg version="1.1" xmlns="http://www.w3.org/2000/svg" xmlns:xlink="http://www.w3.org/1999/xlink" width="21.9153" height="25.8035">
 <g>
  <rect height="25.8035" opacity="0" width="21.9153" x="0" y="0"/>
  <path d="M4.28055 17.1883L16.5543 17.1883Q17.6923 17.1883 18.6671 16.793Q19.6419 16.3977 20.3706 15.6928Q21.0992 14.9879 21.5073 14.053Q21.9153 13.118 21.9153 12.0442Q21.9153 10.9496 21.4885 10.0244Q21.0617 9.09927 20.294 8.41393Q19.5262 7.72858 18.504 7.35275Q17.4817 6.97693 16.2906 6.97693Q15.6851 5.72662 14.7779 4.7979Q13.8707 3.86917 12.673 3.35976Q11.4754 2.85034 9.98199 2.85034Q8.66837 2.85034 7.50175 3.35327Q6.33514 3.8562 5.42381 4.74838Q4.51248 5.64056 3.94981 6.8187Q3.38715 7.99683 3.26996 9.36127Q2.36008 9.60114 1.61835 10.147Q0.876617 10.6929 0.438309 11.4949Q0 12.2969 0 13.318Q0 14.3719 0.506821 15.2538Q1.01364 16.1356 1.96877 16.6619Q2.92389 17.1883 4.28055 17.1883ZM4.27505 16.4836Q3.12149 16.4836 2.32735 16.0539Q1.5332 15.6242 1.11893 14.9061Q0.704651 14.1879 0.704651 13.3246Q0.704651 12.1434 1.44844 11.2682Q2.19223 10.3931 3.50555 10.0468Q3.76099 9.98169 3.86017 9.86176Q3.95935 9.74182 3.97736 9.52148Q4.04846 8.28522 4.55803 7.20337Q5.0676 6.12152 5.89767 5.29984Q6.72775 4.47815 7.77832 4.01665Q8.82889 3.55515 9.98199 3.55515Q11.998 3.55515 13.4222 4.58733Q14.8465 5.61951 15.6375 7.27585Q15.7472 7.51053 15.9 7.59941Q16.0527 7.68829 16.3304 7.68829Q17.7406 7.68829 18.8428 8.27759Q19.9449 8.86688 20.5777 9.85901Q21.2105 10.8511 21.2105 12.0761Q21.2105 13.2883 20.5945 14.2875Q19.9785 15.2867 18.9281 15.8852Q17.8778 16.4836 16.5746 16.4836ZM5.14648 22.1387Q5.26917 22.1387 5.33104 22.0467Q5.39291 21.9547 5.39734 21.8321L5.3598 20.8102L6.22269 21.3446Q6.33713 21.4085 6.44569 21.3969Q6.55426 21.3852 6.62537 21.2848Q6.68671 21.1774 6.64062 21.0709Q6.59454 20.9645 6.47614 20.9032L5.5899 20.4297L6.47888 19.9464Q6.59454 19.8878 6.63925 19.7863Q6.68396 19.6848 6.62811 19.5676Q6.55975 19.4644 6.44844 19.4555Q6.33713 19.4466 6.22269 19.5078L5.3598 20.0591L5.39291 19.0302Q5.39841 18.9047 5.33379 18.8141Q5.26917 18.7234 5.14648 18.7234Q5.01831 18.7234 4.95293 18.8141Q4.88754 18.9047 4.89029 19.0302L4.92767 20.0591L4.06204 19.5078Q3.9476 19.4466 3.83904 19.4555Q3.73047 19.4644 3.66913 19.5676Q3.61053 19.6848 3.65387 19.7885Q3.6972 19.8923 3.80585 19.9464L4.702 20.4297L3.80585 20.9102Q3.69019 20.9785 3.6441 21.0766Q3.59802 21.1746 3.65936 21.2848Q3.72772 21.395 3.83766 21.4088Q3.9476 21.4227 4.06204 21.3544L4.92767 20.82L4.89304 21.8321Q4.89029 21.9547 4.9543 22.0467Q5.01831 22.1387 5.14648 22.1387ZM10.5566 22.1387Q10.6793 22.1387 10.7412 22.0467Q10.8031 21.9547 10.8003 21.8321L10.77 20.8102L11.6328 21.3446Q11.7473 21.4085 11.8559 21.3969Q11.9644 21.3852 12.0355 21.2848Q12.0898 21.1774 12.0473 21.0709Q12.0047 20.9645 11.8863 20.9032L10.9973 20.4297L11.882 19.9464Q12.0047 19.8878 12.0494 19.7863Q12.0941 19.6848 12.0383 19.5676Q11.9699 19.4644 11.8586 19.4555Q11.7473 19.4466 11.6328 19.5078L10.77 20.0591L10.8031 19.0302Q10.8086 18.9047 10.7439 18.8141Q10.6793 18.7234 10.5566 18.7234Q10.4285 18.7234 10.3631 18.8141Q10.2977 18.9047 10.3004 19.0302L10.3308 20.0591L9.4696 19.5078Q9.35776 19.4466 9.24919 19.4555Q9.14062 19.4644 9.07928 19.5676Q9.01794 19.6848 9.06265 19.7885Q9.10736 19.8923 9.216 19.9464L10.1122 20.4297L9.216 20.9102Q9.10034 20.9785 9.05426 21.0766Q9.00818 21.1746 9.06952 21.2848Q9.13788 21.395 9.24782 21.4088Q9.35776 21.4227 9.4696 21.3544L10.3308 20.82L10.3032 21.8321Q10.3004 21.9547 10.3645 22.0467Q10.4285 22.1387 10.5566 22.1387ZM15.9668 22.1387Q16.0895 22.1387 16.1514 22.0467Q16.2132 21.9547 16.2105 21.8321L16.1774 20.8102L17.043 21.3446Q17.1574 21.4085 17.266 21.3969Q17.3746 21.3852 17.4457 21.2848Q17.5 21.1774 17.4574 21.0709Q17.4149 20.9645 17.2964 20.9032L16.4075 20.4297L17.2922 19.9464Q17.4149 19.8878 17.4561 19.7863Q17.4973 19.6848 17.4484 19.5676Q17.3801 19.4644 17.2688 19.4555Q17.1574 19.4466 17.043 19.5078L16.1774 20.0591L16.2132 19.0302Q16.2187 18.9047 16.1541 18.8141Q16.0895 18.7234 15.9668 18.7234Q15.8386 18.7234 15.7732 18.8141Q15.7079 18.9047 15.7106 19.0302L15.741 20.0591L14.8798 19.5078Q14.7679 19.4466 14.6593 19.4555Q14.5508 19.4644 14.4894 19.5676Q14.4281 19.6848 14.4728 19.7885Q14.5175 19.8923 14.6262 19.9464L15.5223 20.4297L14.6262 20.9102Q14.5105 20.9785 14.4644 21.0766Q14.4183 21.1746 14.4797 21.2848Q14.548 21.395 14.658 21.4088Q14.7679 21.4227 14.8798 21.3544L15.741 20.82L15.7133 21.8321Q15.7106 21.9547 15.7746 22.0467Q15.8386 22.1387 15.9668 22.1387ZM3.02734 25.8035Q3.15002 25.8035 3.2119 25.7101Q3.27377 25.6168 3.2782 25.4942L3.24066 24.4749L4.10355 25.0095Q4.21799 25.0706 4.32655 25.0639Q4.43512 25.0571 4.50623 24.9469Q4.56757 24.8465 4.52148 24.7401Q4.4754 24.6336 4.35699 24.5653L3.47076 24.0945L4.35974 23.6183Q4.4754 23.55 4.52011 23.4484Q4.56482 23.3469 4.50897 23.2324Q4.44061 23.1293 4.3293 23.119Q4.21799 23.1087 4.10355 23.177L3.24066 23.7239L3.27377 22.6993Q3.27927 22.5766 3.21465 22.4846Q3.15002 22.3926 3.02734 22.3926Q2.89917 22.3926 2.83379 22.4846Q2.7684 22.5766 2.77115 22.6993L2.80853 23.7239L1.9429 23.177Q1.82846 23.1087 1.71989 23.1176Q1.61133 23.1265 1.54999 23.2324Q1.49139 23.3469 1.53473 23.4506Q1.57806 23.5544 1.68671 23.6183L2.58286 24.0945L1.68671 24.575Q1.57104 24.6407 1.52496 24.7422Q1.47888 24.8438 1.54022 24.9469Q1.60858 25.0598 1.71852 25.0723Q1.82846 25.0848 1.9429 25.0165L2.80853 24.4821L2.7739 25.4942Q2.77115 25.6168 2.83516 25.7101Q2.89917 25.8035 3.02734 25.8035ZM8.4375 25.8035Q8.56018 25.8035 8.62206 25.7101Q8.68393 25.6168 8.68118 25.4942L8.65082 24.4749L9.5137 25.0095Q9.62814 25.0706 9.73671 25.0639Q9.84528 25.0571 9.91638 24.9469Q9.97772 24.8465 9.93164 24.7401Q9.88556 24.6336 9.76715 24.5653L8.87817 24.0945L9.76288 23.6183Q9.88556 23.55 9.93027 23.4484Q9.97498 23.3469 9.91913 23.2324Q9.85077 23.1293 9.73946 23.119Q9.62814 23.1087 9.5137 23.177L8.65082 23.7239L8.68393 22.6993Q8.68942 22.5766 8.6248 22.4846Q8.56018 22.3926 8.4375 22.3926Q8.30933 22.3926 8.24394 22.4846Q8.17856 22.5766 8.1813 22.6993L8.21869 23.7239L7.35046 23.177Q7.23862 23.1087 7.13005 23.1176Q7.02148 23.1265 6.96014 23.2324Q6.90155 23.3469 6.94489 23.4506Q6.98822 23.5544 7.09686 23.6183L7.99301 24.0945L7.09686 24.575Q6.9812 24.6407 6.93512 24.7422Q6.88904 24.8438 6.95038 24.9469Q7.01874 25.0598 7.12868 25.0723Q7.23862 25.0848 7.35046 25.0165L8.21869 24.4821L8.18405 25.4942Q8.1813 25.6168 8.24532 25.7101Q8.30933 25.8035 8.4375 25.8035ZM13.8477 25.8035Q13.9703 25.8035 14.0322 25.7101Q14.0941 25.6168 14.0913 25.4942L14.0582 24.4749L14.9239 25.0095Q15.0383 25.0706 15.1469 25.0639Q15.2554 25.0571 15.3265 24.9469Q15.3809 24.8465 15.3383 24.7401Q15.2957 24.6336 15.1773 24.5653L14.2883 24.0945L15.173 23.6183Q15.2957 23.55 15.3404 23.4484Q15.3851 23.3469 15.3293 23.2324Q15.2609 23.1293 15.1496 23.119Q15.0383 23.1087 14.9239 23.177L14.0582 23.7239L14.0941 22.6993Q14.0996 22.5766 14.035 22.4846Q13.9703 22.3926 13.8477 22.3926Q13.7195 22.3926 13.6541 22.4846Q13.5887 22.5766 13.5915 22.6993L13.6218 23.7239L12.7606 23.177Q12.6488 23.1087 12.5402 23.1176Q12.4316 23.1265 12.3703 23.2324Q12.309 23.3469 12.3537 23.4506Q12.3984 23.5544 12.507 23.6183L13.4032 24.0945L12.507 24.575Q12.3914 24.6407 12.3453 24.7422Q12.2992 24.8438 12.3605 24.9469Q12.4289 25.0598 12.5388 25.0723Q12.6488 25.0848 12.7606 25.0165L13.6218 24.4821L13.5942 25.4942Q13.5915 25.6168 13.6555 25.7101Q13.7195 25.8035 13.8477 25.8035Z" fill="rgba(0,0,0,0.85)"/>
 </g>
</svg>
