<?xml version="1.0" encoding="UTF-8"?>
<!--Generator: Apple Native CoreSVG 175-->
<!DOCTYPE svg
PUBLIC "-//W3C//DTD SVG 1.1//EN"
       "http://www.w3.org/Graphics/SVG/1.1/DTD/svg11.dtd">
<svg version="1.1" xmlns="http://www.w3.org/2000/svg" xmlns:xlink="http://www.w3.org/1999/xlink" width="21.9153" height="26.4337">
 <g>
  <rect height="26.4337" opacity="0" width="21.9153" x="0" y="0"/>
  <path d="M4.28055 17.5033L16.5543 17.5033Q17.6923 17.5033 18.6671 17.1081Q19.6419 16.7128 20.3706 16.0079Q21.0992 15.303 21.5073 14.368Q21.9153 13.4331 21.9153 12.3593Q21.9153 11.2646 21.4885 10.3395Q21.0617 9.41435 20.294 8.729Q19.5262 8.04365 18.504 7.66783Q17.4817 7.292 16.2906 7.292Q15.6851 6.0417 14.7779 5.11297Q13.8707 4.18425 12.673 3.67483Q11.4754 3.16542 9.98199 3.16542Q8.66837 3.16542 7.50175 3.66835Q6.33514 4.17128 5.42381 5.06346Q4.51248 5.95564 3.94981 7.13377Q3.38715 8.3119 3.26996 9.67634Q2.36008 9.91621 1.61835 10.4621Q0.876617 11.008 0.438309 11.81Q0 12.612 0 13.6331Q0 14.687 0.506821 15.5688Q1.01364 16.4506 1.96877 16.977Q2.92389 17.5033 4.28055 17.5033ZM4.27505 16.7987Q3.12149 16.7987 2.32735 16.369Q1.5332 15.9393 1.11893 15.2212Q0.704651 14.503 0.704651 13.6397Q0.704651 12.4585 1.44844 11.5833Q2.19223 10.7081 3.50555 10.3619Q3.76099 10.2968 3.86017 10.1768Q3.95935 10.0569 3.97736 9.83656Q4.04846 8.60029 4.55803 7.51844Q5.0676 6.4366 5.89767 5.61491Q6.72775 4.79322 7.77832 4.33172Q8.82889 3.87022 9.98199 3.87022Q11.998 3.87022 13.4222 4.9024Q14.8465 5.93458 15.6375 7.59092Q15.7472 7.8256 15.9 7.91449Q16.0527 8.00337 16.3304 8.00337Q17.7406 8.00337 18.8428 8.59266Q19.9449 9.18196 20.5777 10.1741Q21.2105 11.1662 21.2105 12.3912Q21.2105 13.6033 20.5945 14.6026Q19.9785 15.6018 18.9281 16.2002Q17.8778 16.7987 16.5746 16.7987ZM12.1812 21.7171L10.302 21.7171L10.4091 22.0088L11.7903 19.3651Q11.8782 19.199 11.8196 19.0881Q11.761 18.9772 11.5977 18.9772L10.6458 18.9772Q10.4335 18.9772 10.3358 19.0553Q10.2382 19.1334 10.1698 19.2869L8.81363 22.3916Q8.72849 22.5912 8.81927 22.6903Q8.91006 22.7893 9.08859 22.7893L10.5437 22.7893L10.6706 22.1991L9.05624 26.1229Q8.96133 26.3518 9.13162 26.4174Q9.30618 26.483 9.44138 26.2846L12.3868 22.1773Q12.5079 22.0068 12.4485 21.8619Q12.3891 21.7171 12.1812 21.7171Z" fill="rgba(0,0,0,0.85)"/>
 </g>
</svg>
