<?xml version="1.0" encoding="UTF-8"?>
<!--Generator: Apple Native CoreSVG 175-->
<!DOCTYPE svg
PUBLIC "-//W3C//DTD SVG 1.1//EN"
       "http://www.w3.org/Graphics/SVG/1.1/DTD/svg11.dtd">
<svg version="1.1" xmlns="http://www.w3.org/2000/svg" xmlns:xlink="http://www.w3.org/1999/xlink" width="25.016" height="25.1948">
 <g>
  <rect height="25.1948" opacity="0" width="25.016" x="0" y="0"/>
  <path d="M3.79608 17.5211L14.503 17.5211Q15.8348 17.5211 16.9043 16.9139Q17.9738 16.3067 18.604 15.2756Q19.2343 14.2444 19.2343 12.9729Q19.2343 11.7043 18.5873 10.6927Q17.9402 9.68115 16.8273 9.09209Q15.7144 8.50302 14.3129 8.49051Q13.4676 6.87216 12.0744 5.88606Q10.6812 4.89996 8.78036 4.89996Q7.62573 4.89996 6.59935 5.33804Q5.57297 5.77612 4.77257 6.55387Q3.97217 7.33161 3.4716 8.36325Q2.97104 9.3949 2.86514 10.5891Q1.65848 10.9136 0.829239 11.8275Q0 12.7413 0 14.0862Q0 15.0324 0.457764 15.8131Q0.915527 16.5937 1.76735 17.0574Q2.61917 17.5211 3.79608 17.5211ZM3.7851 16.8233Q2.79327 16.8233 2.10388 16.4531Q1.41449 16.0828 1.05255 15.4631Q0.690613 14.8434 0.690613 14.0972Q0.690613 13.0558 1.34491 12.3086Q1.99921 11.5613 3.1395 11.2289Q3.35739 11.1664 3.44551 11.0666Q3.53363 10.9667 3.54889 10.7714Q3.62259 9.69687 4.06731 8.75525Q4.51202 7.81363 5.22903 7.10639Q5.94604 6.39914 6.85989 5.99837Q7.77374 5.5976 8.78036 5.5976Q9.9527 5.5976 10.8906 6.01889Q11.8285 6.44019 12.53 7.17261Q13.2315 7.90503 13.6905 8.82025Q13.7906 9.01328 13.9232 9.09453Q14.0558 9.17578 14.2863 9.17578Q15.5179 9.17578 16.4825 9.68611Q17.4472 10.1964 17.9941 11.0658Q18.541 11.9352 18.541 13.0077Q18.541 14.0566 18.0038 14.9219Q17.4667 15.7871 16.5533 16.3052Q15.6398 16.8233 14.5042 16.8233ZM18.9586 12.7558Q20.1508 12.7961 21.0995 12.5197Q22.0483 12.2434 22.7595 11.7695Q23.4706 11.2957 23.9497 10.7322Q24.4289 10.1687 24.6893 9.6263Q24.9496 9.08392 25.0012 8.67972Q25.0554 8.41712 24.9113 8.23859Q24.7672 8.06006 24.5145 8.06006Q24.1945 8.06006 23.6461 8.24332Q23.0977 8.42658 22.2038 8.42658Q20.9398 8.42658 20.0353 7.94005Q19.1309 7.45352 18.6436 6.58881Q18.1563 5.72409 18.1563 4.57724Q18.1563 3.87305 18.2687 3.44801Q18.3812 3.02298 18.4959 2.75618Q18.6105 2.48938 18.6105 2.25821Q18.6105 1.93396 18.3849 1.80525Q18.1593 1.67655 17.803 1.7507Q17.2426 1.8569 16.5738 2.22823Q15.905 2.59955 15.3003 3.24194Q14.6956 3.88434 14.3037 4.79117Q13.9117 5.698 13.9117 6.86133Q13.9117 7.40042 14.0078 7.92693Q14.1039 8.45343 14.2819 8.95499L14.975 8.83429Q14.5949 7.9093 14.5949 6.83631Q14.5949 5.82373 14.9224 5.04759Q15.2499 4.27146 15.7661 3.72435Q16.2823 3.17725 16.8505 2.85773Q17.4187 2.53821 17.8902 2.42926L17.9343 2.47229Q17.7609 2.82385 17.6211 3.37752Q17.4812 3.93118 17.4812 4.6453Q17.4812 5.96015 18.0619 6.96127Q18.6426 7.9624 19.6863 8.52789Q20.73 9.09339 22.132 9.09339Q22.6706 9.09339 23.2435 8.99413Q23.8164 8.89487 24.2776 8.72855L24.325 8.75739Q24.2426 9.17426 23.8834 9.75272Q23.5242 10.3312 22.8699 10.8823Q22.2156 11.4335 21.2423 11.7794Q20.269 12.1253 18.9586 12.0824ZM3.37692 22.2628L4.89258 19.641Q4.98001 19.5008 4.9482 19.3732Q4.91638 19.2457 4.79996 19.175Q4.68781 19.1112 4.5652 19.1501Q4.4426 19.1891 4.35501 19.3293L2.83661 21.9565Q2.75192 22.0914 2.77885 22.2189Q2.80579 22.3464 2.92496 22.4172Q3.05115 22.4851 3.1752 22.4428Q3.29926 22.4004 3.37692 22.2628ZM6.46866 24.9929L7.98431 22.3739Q8.0719 22.2336 8.04352 22.1061Q8.01514 21.9785 7.89169 21.9077Q7.77969 21.8413 7.65701 21.8816Q7.53433 21.9219 7.4469 22.0692L5.9285 24.6866Q5.85068 24.8311 5.87418 24.9538Q5.89767 25.0765 6.02386 25.1473Q6.14288 25.218 6.26694 25.179Q6.39099 25.1401 6.46866 24.9929ZM11.1504 22.2602L12.666 19.6383Q12.7507 19.498 12.7238 19.3705Q12.6968 19.2429 12.5706 19.1723Q12.4612 19.1085 12.3373 19.1474Q12.2133 19.1863 12.1284 19.3265L10.61 21.9538Q10.5324 22.0887 10.5593 22.2162Q10.5862 22.3437 10.7054 22.4145Q10.8218 22.4824 10.9473 22.44Q11.0727 22.3977 11.1504 22.2602ZM14.2465 24.9901L15.7648 22.3781Q15.8496 22.2309 15.8191 22.1068Q15.7886 21.9828 15.6696 21.9121Q15.5504 21.8456 15.4312 21.8824Q15.312 21.9192 15.2176 22.0664L13.6992 24.6839Q13.6241 24.8286 13.6511 24.9512Q13.6781 25.0738 13.7973 25.1446Q13.9207 25.2222 14.0426 25.1799Q14.1644 25.1375 14.2465 24.9901Z" fill="rgba(0,0,0,0.85)"/>
 </g>
</svg>
