<?xml version="1.0" encoding="UTF-8"?>
<!--Generator: Apple Native CoreSVG 175-->
<!DOCTYPE svg
PUBLIC "-//W3C//DTD SVG 1.1//EN"
       "http://www.w3.org/Graphics/SVG/1.1/DTD/svg11.dtd">
<svg version="1.1" xmlns="http://www.w3.org/2000/svg" xmlns:xlink="http://www.w3.org/1999/xlink" width="24.7997" height="25.1948">
 <g>
  <rect height="25.1948" opacity="0" width="24.7997" x="0" y="0"/>
  <path d="M3.69415 17.4137L14.4011 17.4137Q15.6937 17.4137 16.7437 16.8246Q17.7937 16.2356 18.4164 15.224Q19.039 14.2124 19.039 12.9703Q19.039 11.7141 18.3982 10.7185Q17.7574 9.72296 16.6543 9.15206Q15.5511 8.58115 14.1566 8.5784Q13.555 7.41446 12.7244 6.61482Q11.8938 5.81519 10.872 5.40152Q9.85031 4.98786 8.67569 4.98786Q7.54761 4.98786 6.53587 5.41892Q5.52414 5.84998 4.72649 6.62146Q3.92883 7.39295 3.43666 8.42322Q2.94449 9.45349 2.8511 10.6504Q1.54495 10.9933 0.772476 11.9171Q0 12.8409 0 14.0739Q0 15.055 0.470505 15.8092Q0.94101 16.5633 1.77322 16.9885Q2.60544 17.4137 3.69415 17.4137ZM19.7606 12.741Q21.107 12.5034 22.0652 11.9837Q23.0234 11.464 23.6252 10.824Q24.227 10.1839 24.5133 9.56595Q24.7997 8.94797 24.7997 8.51126Q24.7997 8.34754 24.7078 8.24988Q24.6159 8.15222 24.4659 8.15222Q24.3159 8.15222 23.9699 8.26277Q23.6238 8.37332 23.1523 8.48387Q22.6808 8.59442 22.1617 8.59442Q20.914 8.59442 19.9802 8.10164Q19.0465 7.60886 18.5328 6.72667Q18.0191 5.84448 18.0191 4.67612Q18.0191 4.07813 18.1492 3.59076Q18.2793 3.1034 18.4115 2.7558Q18.5437 2.4082 18.5437 2.2457Q18.5437 2.05344 18.4205 1.96242Q18.2973 1.8714 18.0254 1.90222Q17.166 2.00888 16.4574 2.47702Q15.7487 2.94516 15.2232 3.65515Q14.6976 4.36514 14.3829 5.22254Q14.0683 6.07993 13.9926 6.96509Q14.1469 7.14209 14.2703 7.34366Q14.3938 7.54523 14.5062 7.79959Q15.6129 7.87604 16.5426 8.25965Q17.4722 8.64325 18.1686 9.29175Q18.8649 9.94025 19.2748 10.8162Q19.6848 11.6921 19.7606 12.741ZM3.25699 22.2628L4.77539 19.641Q4.86008 19.5008 4.83177 19.3732Q4.80347 19.2457 4.68002 19.175Q4.56787 19.1112 4.44527 19.1501Q4.32266 19.1891 4.23508 19.3293L2.71683 21.9565Q2.64175 22.0914 2.66518 22.2189Q2.6886 22.3464 2.81479 22.4172Q2.93121 22.4851 3.05664 22.4428Q3.18207 22.4004 3.25699 22.2628ZM6.34888 24.9929L7.86438 22.3739Q7.95898 22.2336 7.92717 22.1061Q7.89536 21.9785 7.77893 21.9077Q7.65976 21.8413 7.53708 21.8816Q7.4144 21.9219 7.32697 22.0692L5.80856 24.6866Q5.73074 24.8311 5.75775 24.9538Q5.78476 25.0765 5.90668 25.1473Q6.02295 25.218 6.14838 25.179Q6.2738 25.1401 6.34888 24.9929ZM11.0374 22.2602L12.5531 19.6383Q12.6405 19.498 12.6087 19.3705Q12.5769 19.2429 12.4605 19.1723Q12.3483 19.1085 12.2257 19.1474Q12.1031 19.1863 12.0155 19.3265L10.4903 21.9538Q10.4124 22.0887 10.4394 22.2162Q10.4663 22.3437 10.5855 22.4145Q10.7117 22.4824 10.8322 22.44Q10.9528 22.3977 11.0374 22.2602ZM14.1293 24.9901L15.6448 22.3781Q15.7324 22.2309 15.7006 22.1068Q15.6688 21.9828 15.5496 21.9121Q15.4402 21.8456 15.3162 21.8824Q15.1921 21.9192 15.1074 22.0664L13.589 24.6839Q13.5114 24.8286 13.5348 24.9512Q13.5582 25.0738 13.6844 25.1446Q13.8008 25.2222 13.9262 25.1799Q14.0515 25.1375 14.1293 24.9901Z" fill="rgba(0,0,0,0.85)"/>
 </g>
</svg>
