<?xml version="1.0" encoding="UTF-8"?>
<!--Generator: Apple Native CoreSVG 175-->
<!DOCTYPE svg
PUBLIC "-//W3C//DTD SVG 1.1//EN"
       "http://www.w3.org/Graphics/SVG/1.1/DTD/svg11.dtd">
<svg version="1.1" xmlns="http://www.w3.org/2000/svg" xmlns:xlink="http://www.w3.org/1999/xlink" width="17.2852" height="17.3145">
 <g>
  <rect height="17.3145" opacity="0" width="17.2852" x="0" y="0"/>
  <path d="M2.62695 17.3145L14.6484 17.3145Q15.957 17.3145 16.6211 16.6455Q17.2852 15.9766 17.2852 14.6875L17.2852 2.65625Q17.2852 1.37695 16.6211 0.703125Q15.957 0.0292969 14.6484 0.0292969L2.62695 0.0292969Q1.33789 0.0292969 0.668945 0.693359Q0 1.35742 0 2.65625L0 14.6875Q0 15.9863 0.668945 16.6504Q1.33789 17.3145 2.62695 17.3145ZM2.65625 16.5918Q1.70898 16.5918 1.2207 16.1035Q0.732422 15.6152 0.732422 14.6582L0.732422 2.69531Q0.732422 1.72852 1.2207 1.24512Q1.70898 0.761719 2.65625 0.761719L14.6289 0.761719Q15.5566 0.761719 16.0596 1.24512Q16.5625 1.72852 16.5625 2.69531L16.5625 14.6582Q16.5625 15.6152 16.0596 16.1035Q15.5566 16.5918 14.6289 16.5918ZM5.05859 8.69141Q5.05859 9.88281 5.40527 10.7959Q5.75195 11.709 6.40625 12.2559L6.01562 13.6621Q5.99609 13.7207 5.99609 13.7793Q5.99609 13.916 6.08887 14.0088Q6.18164 14.1016 6.2793 14.1016Q6.52344 14.1016 6.58203 13.8672L6.93359 12.6074Q7.17773 12.7441 7.44141 12.8369Q7.70508 12.9297 7.99805 12.9688L7.8125 13.6719Q7.80273 13.7012 7.79785 13.7305Q7.79297 13.7598 7.79297 13.7891Q7.79297 14.1016 8.07617 14.1016Q8.31055 14.1016 8.38867 13.8672L8.61328 13.0176Q9.76562 12.998 10.5762 12.4463Q11.3867 11.8945 11.6504 10.957Q11.6797 10.8496 11.709 10.7275Q11.7383 10.6055 11.7383 10.5078Q11.7383 10.3613 11.6455 10.2637Q11.5527 10.166 11.4062 10.166Q11.2695 10.166 11.1865 10.2539Q11.1035 10.3418 11.084 10.459Q10.9668 11.2891 10.3467 11.8164Q9.72656 12.3438 8.78906 12.3828L10.5664 6.01562Q10.7617 6.24023 10.8984 6.52344Q11.0352 6.80664 11.0742 7.10938Q11.1035 7.25586 11.1816 7.33398Q11.2598 7.41211 11.4062 7.41211Q11.543 7.41211 11.626 7.31445Q11.709 7.2168 11.709 7.05078Q11.709 6.95312 11.6846 6.85547Q11.6602 6.75781 11.6406 6.65039Q11.3965 5.83984 10.7617 5.25391L11.123 3.95508Q11.1523 3.84766 11.1523 3.79883Q11.1523 3.49609 10.8496 3.49609Q10.6152 3.49609 10.5566 3.73047L10.2344 4.89258Q10 4.74609 9.73145 4.64844Q9.46289 4.55078 9.17969 4.50195L9.33594 3.95508Q9.35547 3.86719 9.35547 3.79883Q9.35547 3.49609 9.0625 3.49609Q8.82812 3.49609 8.75977 3.73047L8.55469 4.46289Q6.91406 4.49219 5.98633 5.62988Q5.05859 6.76758 5.05859 8.69141ZM5.73242 8.69141Q5.73242 7.11914 6.42578 6.15723Q7.11914 5.19531 8.37891 5.10742L6.60156 11.5039Q5.73242 10.5078 5.73242 8.69141ZM7.10938 11.9629L9.00391 5.11719Q9.58008 5.20508 10.0586 5.52734L8.17383 12.373Q7.55859 12.2754 7.10938 11.9629Z" fill="rgba(0,0,0,0.85)"/>
 </g>
</svg>
