<?xml version="1.0" encoding="UTF-8"?>
<!--Generator: Apple Native CoreSVG 175-->
<!DOCTYPE svg
PUBLIC "-//W3C//DTD SVG 1.1//EN"
       "http://www.w3.org/Graphics/SVG/1.1/DTD/svg11.dtd">
<svg version="1.1" xmlns="http://www.w3.org/2000/svg" xmlns:xlink="http://www.w3.org/1999/xlink" width="12.7324" height="19.931">
 <g>
  <rect height="19.931" opacity="0" width="12.7324" x="0" y="0"/>
  <path d="M0.245361 5.85754L6.02692 5.85754L6.02692 0.027771Q4.11285 0.0735474 2.90703 0.671005Q1.7012 1.26846 1.07231 2.53838Q0.44342 3.80829 0.245361 5.85754ZM6.69846 5.85754L12.4774 5.85754Q12.2794 3.81805 11.6567 2.54951Q11.0341 1.28098 9.83307 0.677261Q8.63205 0.0735474 6.69846 0.027771ZM6.35788 19.931Q9.49493 19.931 11.1137 18.0968Q12.7324 16.2627 12.7324 12.7353Q12.7324 10.9537 12.6765 9.36752Q12.6207 7.78137 12.5258 6.53168L0.196838 6.53168Q0.104675 7.78137 0.0523376 9.36752Q0 10.9537 0 12.7353Q0 16.2627 1.61034 18.0968Q3.22067 19.931 6.35788 19.931Z" fill="rgba(0,0,0,0.85)"/>
 </g>
</svg>
