<?xml version="1.0" encoding="UTF-8"?>
<!--Generator: Apple Native CoreSVG 175-->
<!DOCTYPE svg
PUBLIC "-//W3C//DTD SVG 1.1//EN"
       "http://www.w3.org/Graphics/SVG/1.1/DTD/svg11.dtd">
<svg version="1.1" xmlns="http://www.w3.org/2000/svg" xmlns:xlink="http://www.w3.org/1999/xlink" width="18.3691" height="23.1131">
 <g>
  <rect height="23.1131" opacity="0" width="18.3691" x="0" y="0"/>
  <path d="M18.3691 15.4775Q18.3691 15.3115 18.2666 15.2187Q18.1641 15.1259 18.0078 15.1259L5.85938 15.1259Q5.6543 15.1259 5.6543 14.9208L5.6543 2.82122Q5.6543 2.66497 5.55664 2.55266Q5.45898 2.44036 5.30273 2.44036Q5.13672 2.44036 5.0293 2.55266Q4.92188 2.66497 4.92188 2.82122L4.92188 15.331Q4.92188 15.5654 5.05859 15.7021Q5.19531 15.8388 5.43945 15.8388L18.0078 15.8388Q18.1641 15.8388 18.2666 15.7363Q18.3691 15.6337 18.3691 15.4775ZM0 7.70403Q0 7.87005 0.102539 7.95794Q0.205078 8.04583 0.351562 8.04583L12.5195 8.04583Q12.7344 8.04583 12.7344 8.26067L12.7344 20.37Q12.7344 20.5165 12.8271 20.6337Q12.9199 20.7509 13.0859 20.7509Q13.252 20.7509 13.3545 20.6337Q13.457 20.5165 13.457 20.37L13.457 7.86028Q13.457 7.61614 13.3203 7.47942Q13.1836 7.3427 12.9492 7.3427L0.351562 7.3427Q0.205078 7.3427 0.102539 7.44524Q0 7.54778 0 7.70403ZM0.126953 16.5419Q0.126953 17.9286 0.751953 18.9882Q1.37695 20.0478 2.5 20.6386Q3.62305 21.2294 5.13672 21.2294L5.30273 21.2294L5.30273 22.6747Q5.30273 22.997 5.55176 23.0849Q5.80078 23.1728 6.06445 22.9872L8.47656 21.3075Q8.75 21.1318 8.75 20.9218Q8.75 20.7118 8.47656 20.5263L6.06445 18.8564Q5.80078 18.6611 5.55176 18.7538Q5.30273 18.8466 5.30273 19.1591L5.30273 20.6044L5.13672 20.6044Q3.75 20.6044 2.77344 20.0527Q1.79688 19.5009 1.28906 18.5732Q0.78125 17.6454 0.78125 16.5224L0.78125 14.8232Q0.78125 14.6865 0.688477 14.5937Q0.595703 14.5009 0.458984 14.5009Q0.322266 14.5009 0.224609 14.5937Q0.126953 14.6865 0.126953 14.8232ZM9.92188 2.6552L12.3438 4.32513Q12.5977 4.52044 12.8516 4.42766Q13.1055 4.33489 13.1055 4.02239L13.1055 2.58684L13.2617 2.58684Q14.6484 2.58684 15.625 3.13372Q16.6016 3.68059 17.1094 4.60833Q17.6172 5.53606 17.6172 6.66888L17.6172 8.35833Q17.6172 8.49505 17.7148 8.58782Q17.8125 8.68059 17.9492 8.68059Q18.0762 8.68059 18.1738 8.58782Q18.2715 8.49505 18.2715 8.35833L18.2715 6.63958Q18.2715 5.26263 17.6514 4.20306Q17.0312 3.14348 15.9033 2.54778Q14.7754 1.95208 13.2617 1.95208L13.1055 1.95208L13.1055 0.506766Q13.1055 0.184501 12.8516 0.0966099Q12.5977 0.00871931 12.3438 0.194266L9.92188 1.86419Q9.64844 2.04973 9.64844 2.2597Q9.64844 2.46966 9.92188 2.6552Z" fill="rgba(0,0,0,0.85)"/>
 </g>
</svg>
