<?xml version="1.0" encoding="UTF-8"?>
<!--Generator: Apple Native CoreSVG 175-->
<!DOCTYPE svg
PUBLIC "-//W3C//DTD SVG 1.1//EN"
       "http://www.w3.org/Graphics/SVG/1.1/DTD/svg11.dtd">
<svg version="1.1" xmlns="http://www.w3.org/2000/svg" xmlns:xlink="http://www.w3.org/1999/xlink" width="19.1602" height="19.1504">
 <g>
  <rect height="19.1504" opacity="0" width="19.1602" x="0" y="0"/>
  <path d="M9.57031 19.1406Q11.5527 19.1406 13.2861 18.3984Q15.0195 17.6562 16.3379 16.333Q17.6562 15.0098 18.4082 13.2764Q19.1602 11.543 19.1602 9.57031Q19.1602 7.59766 18.4082 5.86426Q17.6562 4.13086 16.3379 2.80762Q15.0195 1.48438 13.2861 0.742188Q11.5527 0 9.57031 0Q7.59766 0 5.86426 0.742188Q4.13086 1.48438 2.81738 2.80762Q1.50391 4.13086 0.751953 5.86426Q0 7.59766 0 9.57031Q0 11.543 0.74707 13.2764Q1.49414 15.0098 2.8125 16.333Q4.13086 17.6562 5.86914 18.3984Q7.60742 19.1406 9.57031 19.1406ZM9.57031 18.3984Q7.74414 18.3984 6.14746 17.71Q4.55078 17.0215 3.33496 15.8105Q2.11914 14.5996 1.43555 12.998Q0.751953 11.3965 0.751953 9.57031Q0.751953 7.74414 1.43555 6.14258Q2.11914 4.54102 3.33496 3.3252Q4.55078 2.10938 6.14746 1.4209Q7.74414 0.732422 9.57031 0.732422Q11.4062 0.732422 13.0029 1.4209Q14.5996 2.10938 15.8154 3.3252Q17.0312 4.54102 17.7197 6.14258Q18.4082 7.74414 18.4082 9.57031Q18.4082 11.3965 17.7246 12.998Q17.041 14.5996 15.8252 15.8105Q14.6094 17.0215 13.0078 17.71Q11.4062 18.3984 9.57031 18.3984ZM4.45312 10.459Q4.45312 10.8984 4.72168 11.167Q4.99023 11.4355 5.41992 11.4355L7.68555 11.4355L7.68555 13.7012Q7.68555 14.1406 7.9541 14.4043Q8.22266 14.668 8.66211 14.668L10.498 14.668Q10.9277 14.668 11.1963 14.4043Q11.4648 14.1406 11.4648 13.7012L11.4648 11.4355L13.7305 11.4355Q14.1699 11.4355 14.4385 11.167Q14.707 10.8984 14.707 10.459L14.707 8.62305Q14.707 8.18359 14.4385 7.91504Q14.1699 7.64648 13.7305 7.64648L11.4648 7.64648L11.4648 5.39062Q11.4648 4.95117 11.1963 4.6875Q10.9277 4.42383 10.498 4.42383L8.66211 4.42383Q8.22266 4.42383 7.9541 4.6875Q7.68555 4.95117 7.68555 5.39062L7.68555 7.64648L5.41992 7.64648Q4.99023 7.64648 4.72168 7.91504Q4.45312 8.18359 4.45312 8.62305Z" fill="rgba(0,0,0,0.85)"/>
 </g>
</svg>
