<?xml version="1.0" encoding="UTF-8"?>
<!--Generator: Apple Native CoreSVG 175-->
<!DOCTYPE svg
PUBLIC "-//W3C//DTD SVG 1.1//EN"
       "http://www.w3.org/Graphics/SVG/1.1/DTD/svg11.dtd">
<svg version="1.1" xmlns="http://www.w3.org/2000/svg" xmlns:xlink="http://www.w3.org/1999/xlink" width="20.0879" height="17.3145">
 <g>
  <rect height="17.3145" opacity="0" width="20.0879" x="0" y="0"/>
  <path d="M17.4512 17.3145Q18.75 17.3145 19.4189 16.6504Q20.0879 15.9863 20.0879 14.6875L20.0879 2.65625Q20.0879 1.35742 19.4189 0.693359Q18.75 0.0292969 17.4512 0.0292969L9.27734 0.0292969Q8.74023 0.0292969 8.30566 0.107422Q7.87109 0.185547 7.48535 0.385742Q7.09961 0.585938 6.74805 0.9375L0.761719 7.04102Q0.488281 7.30469 0.322266 7.56836Q0.15625 7.83203 0.078125 8.09082Q0 8.34961 0 8.64258Q0 9.0625 0.175781 9.45312Q0.351562 9.84375 0.761719 10.2539L6.74805 16.2012Q7.10938 16.5527 7.49023 16.8018Q7.87109 17.0508 8.31055 17.1826Q8.75 17.3145 9.27734 17.3145ZM17.4316 16.5918L9.27734 16.5918Q8.66211 16.5918 8.18848 16.3623Q7.71484 16.1328 7.28516 15.6934L1.30859 9.76562Q1.01562 9.46289 0.898438 9.19922Q0.78125 8.93555 0.78125 8.64258Q0.78125 8.08594 1.30859 7.5293L7.27539 1.44531Q7.71484 0.996094 8.18848 0.878906Q8.66211 0.761719 9.26758 0.761719L17.4316 0.761719Q18.3789 0.761719 18.8672 1.24512Q19.3555 1.72852 19.3555 2.69531L19.3555 14.6582Q19.3555 15.6152 18.8672 16.1035Q18.3789 16.5918 17.4316 16.5918ZM8.26172 12.5684Q8.42773 12.5684 8.57422 12.4316L11.7676 9.22852L14.9707 12.4316Q15.1074 12.5684 15.2734 12.5684Q15.4395 12.5684 15.5518 12.4609Q15.6641 12.3535 15.6641 12.1973Q15.6641 12.0312 15.5371 11.9043L12.3145 8.68164L15.5371 5.45898Q15.6738 5.33203 15.6738 5.16602Q15.6738 5.00977 15.5566 4.90234Q15.4395 4.79492 15.2734 4.79492Q15.1172 4.79492 14.9805 4.93164L11.7676 8.13477L8.56445 4.93164Q8.42773 4.79492 8.26172 4.79492Q8.0957 4.79492 7.9834 4.90234Q7.87109 5.00977 7.87109 5.16602Q7.87109 5.33203 7.99805 5.45898L11.2207 8.68164L7.99805 11.9043Q7.87109 12.0312 7.87109 12.1973Q7.87109 12.3535 7.9834 12.4609Q8.0957 12.5684 8.26172 12.5684Z" fill="rgba(0,0,0,0.85)"/>
 </g>
</svg>
