<?xml version="1.0" encoding="UTF-8"?>
<!--Generator: Apple Native CoreSVG 175-->
<!DOCTYPE svg
PUBLIC "-//W3C//DTD SVG 1.1//EN"
       "http://www.w3.org/Graphics/SVG/1.1/DTD/svg11.dtd">
<svg version="1.1" xmlns="http://www.w3.org/2000/svg" xmlns:xlink="http://www.w3.org/1999/xlink" width="21.21" height="21.2233">
 <g>
  <rect height="21.2233" opacity="0" width="21.21" x="0" y="0"/>
  <path d="M0.924996 8.74106Q0.00275476 9.66346 8.17976e-06 10.6041Q-0.0027384 11.5447 0.916756 12.4642L8.75275 20.2762Q9.67225 21.1986 10.6164 21.2064Q11.5605 21.2142 12.4899 20.2849L20.3024 12.4697Q21.2247 11.5475 21.2098 10.5997Q21.1949 9.65201 20.2895 8.74656L12.4704 0.913456Q11.5648 0.0078471 10.6207 6.51158e-05Q9.67652-0.00771687 8.75428 0.914524ZM20.4282 10.6068L0.764168 10.6068Q0.764168 9.8841 1.43906 9.23026L9.23356 1.44004Q9.89182 0.781773 10.5933 0.773381Q11.2949 0.764988 11.9754 1.44538L19.7644 9.22751Q20.4422 9.90241 20.4282 10.6068Z" fill="rgba(0,0,0,0.85)"/>
 </g>
</svg>
