<?xml version="1.0" encoding="UTF-8"?>
<!--Generator: Apple Native CoreSVG 175-->
<!DOCTYPE svg
PUBLIC "-//W3C//DTD SVG 1.1//EN"
       "http://www.w3.org/Graphics/SVG/1.1/DTD/svg11.dtd">
<svg version="1.1" xmlns="http://www.w3.org/2000/svg" xmlns:xlink="http://www.w3.org/1999/xlink" width="21.21" height="21.2162">
 <g>
  <rect height="21.2162" opacity="0" width="21.21" x="0" y="0"/>
  <path d="M0.924996 12.4661L8.75428 20.2884Q9.67652 21.2107 10.6207 21.2064Q11.5648 21.2021 12.4704 20.2965L20.2895 12.4607Q21.1949 11.5579 21.2098 10.6089Q21.2247 9.6599 20.3024 8.73751L12.4899 0.925007Q11.5605-0.00425291 10.6164 1.95536e-05Q9.67225 0.00429201 8.75275 0.923939L0.916756 8.743Q-0.0027384 9.66524 8.17976e-06 10.6046Q0.00275476 11.5439 0.924996 12.4661ZM1.43906 11.9797Q0.766762 11.3118 0.771111 10.6102Q0.77546 9.90862 1.44181 9.24501L9.23081 1.44884Q9.90861 0.778218 10.6031 0.778218Q11.2976 0.778218 11.9727 1.44625L19.7601 9.23372Q20.4114 9.89183 20.4247 10.6018Q20.4379 11.3118 19.7644 11.9824L11.9754 19.7646Q11.2949 20.4352 10.5933 20.4282Q9.89182 20.4212 9.23356 19.7699Z" fill="rgba(0,0,0,0.85)"/>
 </g>
</svg>
