<?xml version="1.0" encoding="UTF-8"?>
<!--Generator: Apple Native CoreSVG 175-->
<!DOCTYPE svg
PUBLIC "-//W3C//DTD SVG 1.1//EN"
       "http://www.w3.org/Graphics/SVG/1.1/DTD/svg11.dtd">
<svg version="1.1" xmlns="http://www.w3.org/2000/svg" xmlns:xlink="http://www.w3.org/1999/xlink" width="15.779" height="20.6747">
 <g>
  <rect height="20.6747" opacity="0" width="15.779" x="0" y="0"/>
  <path d="M5.40985 9.83643Q4.45938 9.83643 3.80356 9.18701Q3.14774 8.5376 3.14774 7.35168Q3.14774 6.67313 3.38791 6.09406Q3.62808 5.51498 4.05243 5.05157Q4.47662 4.57703 5.05508 4.2923Q5.63354 4.00757 6.11206 4.00757Q6.38443 4.00757 6.38443 4.2395Q6.38443 4.35638 6.29944 4.4175Q6.21445 4.47861 6.0817 4.50211Q5.66803 4.57748 5.32074 4.73877Q4.97345 4.90005 4.63364 5.20081Q4.32343 5.47623 4.11873 5.82153Q3.91403 6.16684 3.83438 6.52191L3.9621 6.52191Q4.27109 6.15433 4.66095 5.98869Q5.05081 5.82306 5.46524 5.82306Q6.32111 5.82306 6.87347 6.36528Q7.42584 6.9075 7.42584 7.81601Q7.42584 8.68362 6.83754 9.26003Q6.24924 9.83643 5.40985 9.83643ZM10.6152 9.83368Q9.66766 9.83368 9.01176 9.18777Q8.35587 8.54187 8.35587 7.34894Q8.35587 6.67038 8.59962 6.09131Q8.84338 5.51224 9.26056 5.04883Q9.67926 4.57977 10.2592 4.2923Q10.8391 4.00482 11.3176 4.00482Q11.5926 4.00482 11.5926 4.23676Q11.5926 4.35364 11.5112 4.41475Q11.4297 4.47586 11.2898 4.49936Q10.8804 4.57748 10.527 4.7374Q10.1735 4.89731 9.8407 5.20355Q9.52621 5.47897 9.32777 5.82291Q9.12933 6.16684 9.04266 6.52618L9.16763 6.52618Q9.47662 6.15158 9.86778 5.98595Q10.2589 5.82031 10.6708 5.82031Q11.5294 5.82031 12.0817 6.36253Q12.634 6.90475 12.634 7.81342Q12.634 8.68088 12.0479 9.25728Q11.4618 9.83368 10.6152 9.83368ZM3.73291 12.6985Q3.58871 12.6985 3.4938 12.6036Q3.3989 12.5087 3.3989 12.3743Q3.3989 12.2398 3.4938 12.1428Q3.58871 12.0457 3.73291 12.0457L12.0515 12.0457Q12.193 12.0457 12.2879 12.1428Q12.3828 12.2398 12.3828 12.3743Q12.3828 12.5087 12.2879 12.6036Q12.193 12.6985 12.0515 12.6985ZM3.73291 16.1488Q3.58871 16.1488 3.4938 16.0553Q3.3989 15.9618 3.3989 15.8275Q3.3989 15.6931 3.4938 15.5981Q3.58871 15.5032 3.73291 15.5032L7.82196 15.5032Q7.966 15.5032 8.06313 15.5981Q8.16025 15.6931 8.16025 15.8275Q8.16025 15.9618 8.06313 16.0553Q7.966 16.1488 7.82196 16.1488ZM0 18.0399Q0 19.3411 0.665436 20.0079Q1.33087 20.6747 2.62665 20.6747L13.1523 20.6747Q14.4481 20.6747 15.1135 20.0079Q15.779 19.3411 15.779 18.0399L15.779 2.66296Q15.779 1.36459 15.1135 0.695038Q14.4481 0.0254822 13.1523 0.0254822L2.62665 0.0254822Q1.33087 0.0254822 0.665436 0.695038Q0 1.36459 0 2.66296Z" fill="rgba(0,0,0,0.85)"/>
 </g>
</svg>
