<?xml version="1.0" encoding="UTF-8"?>
<!--Generator: Apple Native CoreSVG 175-->
<!DOCTYPE svg
PUBLIC "-//W3C//DTD SVG 1.1//EN"
       "http://www.w3.org/Graphics/SVG/1.1/DTD/svg11.dtd">
<svg version="1.1" xmlns="http://www.w3.org/2000/svg" xmlns:xlink="http://www.w3.org/1999/xlink" width="19.4714" height="23.9667">
 <g>
  <rect height="23.9667" opacity="0" width="19.4714" x="0" y="0"/>
  <path d="M4.72931 4.96552L7.06482 4.96552L14.4379 12.3438L14.4379 19.4019L16.8449 19.4019Q18.1335 19.4019 18.8025 18.7323Q19.4714 18.0627 19.4714 16.7644L19.4714 2.63748Q19.4714 1.33896 18.8025 0.669479Q18.1335 0 16.8449 0L7.3558 0Q6.07422 0 5.40176 0.668106Q4.72931 1.33621 4.72931 2.63748ZM9.96368 2.86438Q9.71878 2.86438 9.599 2.72728Q9.47922 2.59018 9.47922 2.42188L9.47922 2.26593Q9.47922 2.09763 9.599 1.96404Q9.71878 1.83044 9.96368 1.83044L14.23 1.83044Q14.4724 1.83044 14.5969 1.96404Q14.7215 2.09763 14.7215 2.26593L14.7215 2.42188Q14.7215 2.59018 14.5969 2.72728Q14.4724 2.86438 14.23 2.86438ZM0 21.3139Q0 22.6152 0.665436 23.2834Q1.33087 23.9516 2.62665 23.9516L12.1156 23.9516Q13.4114 23.9516 14.0768 23.282Q14.7423 22.6125 14.7423 21.3139L14.7423 13.0121Q14.7423 12.619 14.688 12.3441Q14.6336 12.0691 14.5037 11.8462Q14.3738 11.6234 14.1309 11.3777L7.93442 5.16083Q7.58163 4.8027 7.23793 4.67613Q6.89423 4.54956 6.33392 4.54956L2.62665 4.54956Q1.34491 4.54956 0.672455 5.21912Q0 5.88867 0 7.18704ZM0.728607 21.2917L0.728607 7.20657Q0.728607 6.28708 1.21628 5.78262Q1.70395 5.27817 2.66251 5.27817L6.70227 5.27817L6.70227 11.4273Q6.70227 12.1512 7.05719 12.4871Q7.41211 12.823 8.08823 12.823L14.0137 12.823L14.0137 21.2917Q14.0137 22.2421 13.5246 22.7325Q13.0356 23.223 12.0796 23.223L2.65976 23.223Q1.70395 23.223 1.21628 22.7325Q0.728607 22.2421 0.728607 21.2917ZM8.14728 12.1147Q7.74887 12.1147 7.57622 11.9421Q7.40356 11.7694 7.40356 11.371L7.40356 5.65353L13.8445 12.1147Z" fill="rgba(0,0,0,0.85)"/>
 </g>
</svg>
