<?xml version="1.0" encoding="UTF-8"?>
<!--Generator: Apple Native CoreSVG 175-->
<!DOCTYPE svg
PUBLIC "-//W3C//DTD SVG 1.1//EN"
       "http://www.w3.org/Graphics/SVG/1.1/DTD/svg11.dtd">
<svg version="1.1" xmlns="http://www.w3.org/2000/svg" xmlns:xlink="http://www.w3.org/1999/xlink" width="17.2852" height="17.3145">
 <g>
  <rect height="17.3145" opacity="0" width="17.2852" x="0" y="0"/>
  <path d="M0 16.8066Q0 17.041 0.136719 17.1777Q0.273438 17.3145 0.507812 17.3145L16.7773 17.3145Q17.0215 17.3145 17.1533 17.1777Q17.2852 17.041 17.2852 16.8066L17.2852 0.537109Q17.2852 0.302734 17.1533 0.166016Q17.0215 0.0292969 16.7773 0.0292969L0.507812 0.0292969Q0.273438 0.0292969 0.136719 0.166016Q0 0.302734 0 0.537109ZM0.732422 16.3867L0.732422 0.966797Q0.732422 0.761719 0.9375 0.761719L16.3574 0.761719Q16.5625 0.761719 16.5625 0.966797L16.5625 16.3867Q16.5625 16.5918 16.3574 16.5918L0.9375 16.5918Q0.732422 16.5918 0.732422 16.3867ZM8.66211 11.5625Q9.45312 11.5625 10.1123 11.1719Q10.7715 10.7812 11.1719 10.1172Q11.5723 9.45312 11.5723 8.65234Q11.5723 7.86133 11.1719 7.19727Q10.7715 6.5332 10.1123 6.1377Q9.45312 5.74219 8.66211 5.74219Q7.86133 5.74219 7.19727 6.1377Q6.5332 6.5332 6.1377 7.19727Q5.74219 7.86133 5.74219 8.65234Q5.74219 9.45312 6.14258 10.1172Q6.54297 10.7812 7.20703 11.1719Q7.87109 11.5625 8.66211 11.5625Z" fill="rgba(0,0,0,0.85)"/>
 </g>
</svg>
