<?xml version="1.0" encoding="UTF-8"?>
<!--Generator: Apple Native CoreSVG 175-->
<!DOCTYPE svg
PUBLIC "-//W3C//DTD SVG 1.1//EN"
       "http://www.w3.org/Graphics/SVG/1.1/DTD/svg11.dtd">
<svg version="1.1" xmlns="http://www.w3.org/2000/svg" xmlns:xlink="http://www.w3.org/1999/xlink" width="19.1602" height="19.1504">
 <g>
  <rect height="19.1504" opacity="0" width="19.1602" x="0" y="0"/>
  <path d="M9.57031 19.1406Q11.5527 19.1406 13.2861 18.3984Q15.0195 17.6562 16.3379 16.333Q17.6562 15.0098 18.4082 13.2764Q19.1602 11.543 19.1602 9.57031Q19.1602 7.59766 18.4082 5.86426Q17.6562 4.13086 16.3379 2.80762Q15.0195 1.48438 13.2861 0.742188Q11.5527 0 9.57031 0Q7.59766 0 5.86426 0.742188Q4.13086 1.48438 2.81738 2.80762Q1.50391 4.13086 0.751953 5.86426Q0 7.59766 0 9.57031Q0 11.543 0.74707 13.2764Q1.49414 15.0098 2.8125 16.333Q4.13086 17.6562 5.86914 18.3984Q7.60742 19.1406 9.57031 19.1406ZM7.19727 13.9258Q7.02148 13.9258 6.93359 13.8086Q6.8457 13.6914 6.8457 13.4961L6.8457 5.61523Q6.8457 5.42969 6.93359 5.31738Q7.02148 5.20508 7.19727 5.20508L11.9727 5.20508Q12.1387 5.20508 12.2217 5.29785Q12.3047 5.39062 12.3047 5.53711Q12.3047 5.67383 12.2217 5.77148Q12.1387 5.86914 11.9727 5.86914L7.59766 5.86914L7.59766 9.12109L11.7383 9.12109Q11.9043 9.12109 11.9922 9.21875Q12.0801 9.31641 12.0801 9.46289Q12.0801 9.59961 11.9922 9.69238Q11.9043 9.78516 11.7383 9.78516L7.59766 9.78516L7.59766 13.252L11.9727 13.252Q12.1387 13.252 12.2217 13.3496Q12.3047 13.4473 12.3047 13.584Q12.3047 13.7305 12.2217 13.8281Q12.1387 13.9258 11.9727 13.9258Z" fill="rgba(0,0,0,0.85)"/>
 </g>
</svg>
