<?xml version="1.0" encoding="UTF-8"?>
<!--Generator: Apple Native CoreSVG 175-->
<!DOCTYPE svg
PUBLIC "-//W3C//DTD SVG 1.1//EN"
       "http://www.w3.org/Graphics/SVG/1.1/DTD/svg11.dtd">
<svg version="1.1" xmlns="http://www.w3.org/2000/svg" xmlns:xlink="http://www.w3.org/1999/xlink" width="21.736" height="20.3433">
 <g>
  <rect height="20.3433" opacity="0" width="21.736" x="0" y="0"/>
  <path d="M0 10.1668Q0 10.3714 0.140076 10.5513Q0.280151 10.7312 0.65155 10.777Q1.6864 10.8926 2.20001 11.4551Q2.71362 12.0175 2.71362 13.3539L2.71362 16.6817Q2.71362 18.5825 3.47183 19.4621Q4.23004 20.3418 6.0199 20.3418Q6.0997 20.3418 6.19217 20.3296Q6.32538 20.3093 6.40526 20.2214Q6.48514 20.1335 6.48514 19.9948Q6.48514 19.6898 6.18134 19.6683Q6.14532 19.6628 6.11427 19.6587Q6.08322 19.6547 6.0376 19.6547Q4.70154 19.637 4.08615 18.9372Q3.47076 18.2375 3.47076 16.6621L3.47076 12.8503Q3.47076 11.575 2.74734 10.9019Q2.02393 10.2289 0.902405 10.2058Q0.868835 10.2058 0.868835 10.1723Q0.868835 10.1387 0.902405 10.1387Q2.02393 10.1157 2.74734 9.4426Q3.47076 8.76953 3.47076 7.48703L3.47076 3.67264Q3.47076 2.09732 4.08615 1.39885Q4.70154 0.700378 6.0376 0.682831Q6.08444 0.680084 6.12228 0.675964Q6.16013 0.671844 6.20316 0.670776Q6.48514 0.636749 6.48514 0.346832Q6.48514 0.202789 6.4061 0.116196Q6.32706 0.0296021 6.18134 0.0120544Q6.10275 0 5.9996 0Q4.22623 0 3.46992 0.882416Q2.71362 1.76483 2.71362 3.65311L2.71362 6.99066Q2.71362 8.31711 2.20001 8.87962Q1.6864 9.44214 0.65155 9.56482Q0.280151 9.60785 0.140076 9.78416Q0 9.96048 0 10.1668ZM6.96213 11.4172Q7.47742 11.4172 7.845 11.0448Q8.21259 10.6723 8.21259 10.1668Q8.21259 9.83398 8.04482 9.54781Q7.87704 9.26163 7.59224 9.08897Q7.30743 8.91632 6.96213 8.91632Q6.61255 8.91632 6.32637 9.08897Q6.04019 9.26163 5.86754 9.54781Q5.69489 9.83398 5.69489 10.1668Q5.69489 10.6723 6.06735 11.0448Q6.43982 11.4172 6.96213 11.4172ZM10.8646 11.4172Q11.2071 11.4172 11.4919 11.2446Q11.7766 11.0719 11.9492 10.7858Q12.1219 10.4996 12.1219 10.1668Q12.1219 9.83398 11.9492 9.54781Q11.7766 9.26163 11.4919 9.08897Q11.2071 8.91632 10.8646 8.91632Q10.5316 8.91632 10.2455 9.08897Q9.95941 9.26163 9.78676 9.54781Q9.61411 9.83398 9.61411 10.1668Q9.61411 10.6723 9.98657 11.0448Q10.359 11.4172 10.8646 11.4172ZM14.7739 11.4172Q15.2892 11.4172 15.6651 11.0448Q16.0411 10.6723 16.0411 10.1668Q16.0411 9.83398 15.8685 9.54781Q15.6958 9.26163 15.4075 9.08897Q15.1192 8.91632 14.7739 8.91632Q14.4313 8.91632 14.1452 9.08897Q13.8591 9.26163 13.6913 9.54781Q13.5236 9.83398 13.5236 10.1668Q13.5236 10.6723 13.8911 11.0448Q14.2587 11.4172 14.7739 11.4172ZM21.736 10.1668Q21.736 9.96048 21.5939 9.78416Q21.4517 9.60785 21.0774 9.56482Q20.0497 9.44214 19.5361 8.87962Q19.0224 8.31711 19.0224 6.99066L19.0224 3.65311Q19.0224 1.76483 18.2661 0.882416Q17.5099 0 15.7364 0Q15.636 0 15.5505 0.0120544Q15.4091 0.0296021 15.3265 0.116196Q15.2438 0.202789 15.2438 0.346832Q15.2438 0.636749 15.5356 0.670776Q15.5688 0.671844 15.6068 0.675964Q15.6447 0.680084 15.6915 0.682831Q17.0274 0.700378 17.6442 1.39885Q18.261 2.09732 18.261 3.67264L18.261 7.48703Q18.261 8.76953 18.9866 9.4426Q19.7122 10.1157 20.8336 10.1387Q20.8603 10.1387 20.8603 10.1723Q20.8603 10.2058 20.8336 10.2058Q19.7122 10.2289 18.9866 10.9019Q18.261 11.575 18.261 12.8503L18.261 16.6621Q18.261 18.2375 17.6442 18.9372Q17.0274 19.637 15.6915 19.6547Q15.6528 19.6547 15.6217 19.6587Q15.5907 19.6628 15.5505 19.6683Q15.2438 19.6898 15.2438 19.9948Q15.2438 20.1335 15.3237 20.2214Q15.4036 20.3093 15.5396 20.3296Q15.6364 20.3418 15.7091 20.3418Q17.5017 20.3418 18.262 19.4621Q19.0224 18.5825 19.0224 16.6817L19.0224 13.3539Q19.0224 12.0175 19.5361 11.4551Q20.0497 10.8926 21.0774 10.777Q21.4517 10.7312 21.5939 10.5513Q21.736 10.3714 21.736 10.1668Z" fill="rgba(0,0,0,0.85)"/>
 </g>
</svg>
