<?xml version="1.0" encoding="UTF-8"?>
<!--Generator: Apple Native CoreSVG 175-->
<!DOCTYPE svg
PUBLIC "-//W3C//DTD SVG 1.1//EN"
       "http://www.w3.org/Graphics/SVG/1.1/DTD/svg11.dtd">
<svg version="1.1" xmlns="http://www.w3.org/2000/svg" xmlns:xlink="http://www.w3.org/1999/xlink" width="17.1985" height="17.323">
 <g>
  <rect height="17.323" opacity="0" width="17.1985" x="0" y="0"/>
  <path d="M0 14.6965Q0 15.9921 0.668182 16.6576Q1.33636 17.323 2.63046 17.323L14.561 17.323Q15.8621 17.323 16.5303 16.6505Q17.1985 15.9781 17.1985 14.6965L17.1985 2.66006Q17.1985 1.37848 16.5303 0.706024Q15.8621 0.0335693 14.561 0.0335693L2.63046 0.0335693Q1.33636 0.0335693 0.668182 0.699005Q0 1.36444 0 2.66006ZM0.728607 14.6605L0.728607 2.69608Q0.728607 1.73752 1.21765 1.24985Q1.7067 0.762177 2.65701 0.762177L3.8942 0.762177L3.8942 2.43469Q3.8942 2.57614 3.98285 2.66617Q4.0715 2.7562 4.21295 2.7562Q4.36142 2.7562 4.45145 2.66617Q4.54147 2.57614 4.54147 2.43469L4.54147 0.762177L6.81366 0.762177L6.81366 2.43469Q6.81366 2.57614 6.90369 2.66617Q6.99371 2.7562 7.13516 2.7562Q7.27386 2.7562 7.36389 2.66617Q7.45392 2.57614 7.45392 2.43469L7.45392 0.762177L9.74304 0.762177L9.74304 2.43469Q9.74304 2.57614 9.83307 2.66617Q9.9231 2.7562 10.0618 2.7562Q10.2031 2.7562 10.2932 2.66617Q10.3833 2.57614 10.3833 2.43469L10.3833 0.762177L12.6625 0.762177L12.6625 2.43469Q12.6625 2.57614 12.7525 2.66617Q12.8426 2.7562 12.984 2.7562Q13.1227 2.7562 13.2127 2.66617Q13.3028 2.57614 13.3028 2.43469L13.3028 0.762177L14.5387 0.762177Q15.461 0.762177 15.9654 1.24985Q16.4699 1.73752 16.4699 2.69608L16.4699 14.6605Q16.4699 15.619 15.9654 16.1068Q15.461 16.5945 14.5387 16.5945L13.3028 16.5945L13.3028 14.9219Q13.3028 14.7804 13.2127 14.6904Q13.1227 14.6004 12.984 14.6004Q12.8426 14.6004 12.7525 14.6904Q12.6625 14.7804 12.6625 14.9219L12.6625 16.5945L10.3833 16.5945L10.3833 14.9219Q10.3833 14.7804 10.2932 14.6904Q10.2031 14.6004 10.0618 14.6004Q9.9231 14.6004 9.83307 14.6904Q9.74304 14.7804 9.74304 14.9219L9.74304 16.5945L7.45392 16.5945L7.45392 14.9219Q7.45392 14.7804 7.36389 14.6904Q7.27386 14.6004 7.13516 14.6004Q6.99371 14.6004 6.90369 14.6904Q6.81366 14.7804 6.81366 14.9219L6.81366 16.5945L4.54147 16.5945L4.54147 14.9219Q4.54147 14.7804 4.45145 14.6904Q4.36142 14.6004 4.21295 14.6004Q4.0715 14.6004 3.98285 14.6904Q3.8942 14.7804 3.8942 14.9219L3.8942 16.5945L2.65701 16.5945Q1.7067 16.5945 1.21765 16.1068Q0.728607 15.619 0.728607 14.6605ZM3.34534 11.9101Q3.34534 12.291 3.58459 12.5253Q3.82385 12.7597 4.21448 12.7597L12.991 12.7597Q13.3817 12.7597 13.6209 12.5253Q13.8602 12.291 13.8602 11.9101L13.8602 5.44647Q13.8602 5.06287 13.6209 4.82986Q13.3817 4.59686 12.991 4.59686L4.21448 4.59686Q3.82385 4.59686 3.58459 4.82986Q3.34534 5.06287 3.34534 5.44647Z" fill="rgba(0,0,0,0.85)"/>
 </g>
</svg>
