<?xml version="1.0" encoding="UTF-8"?>
<!--Generator: Apple Native CoreSVG 175-->
<!DOCTYPE svg
PUBLIC "-//W3C//DTD SVG 1.1//EN"
       "http://www.w3.org/Graphics/SVG/1.1/DTD/svg11.dtd">
<svg version="1.1" xmlns="http://www.w3.org/2000/svg" xmlns:xlink="http://www.w3.org/1999/xlink" width="17.2852" height="17.3145">
 <g>
  <rect height="17.3145" opacity="0" width="17.2852" x="0" y="0"/>
  <path d="M2.62695 17.3145L14.6484 17.3145Q15.957 17.3145 16.6211 16.6455Q17.2852 15.9766 17.2852 14.6875L17.2852 2.65625Q17.2852 1.37695 16.6211 0.703125Q15.957 0.0292969 14.6484 0.0292969L2.62695 0.0292969Q1.33789 0.0292969 0.668945 0.693359Q0 1.35742 0 2.65625L0 14.6875Q0 15.9863 0.668945 16.6504Q1.33789 17.3145 2.62695 17.3145ZM6.47461 13.0762Q6.29883 13.0762 6.19629 12.9639Q6.09375 12.8516 6.09375 12.6758L6.09375 4.69727Q6.09375 4.51172 6.18164 4.39453Q6.26953 4.27734 6.44531 4.27734L11.1621 4.27734Q11.3281 4.27734 11.416 4.375Q11.5039 4.47266 11.5039 4.61914Q11.5039 4.75586 11.416 4.85352Q11.3281 4.95117 11.1621 4.95117L6.8457 4.95117L6.8457 8.31055L10.8105 8.31055Q10.9766 8.31055 11.0596 8.40332Q11.1426 8.49609 11.1426 8.64258Q11.1426 8.78906 11.0596 8.88184Q10.9766 8.97461 10.8105 8.97461L6.8457 8.97461L6.8457 12.6758Q6.8457 12.8613 6.74316 12.9688Q6.64062 13.0762 6.47461 13.0762Z" fill="rgba(0,0,0,0.85)"/>
 </g>
</svg>
