<?xml version="1.0" encoding="UTF-8"?>
<!--Generator: Apple Native CoreSVG 175-->
<!DOCTYPE svg
PUBLIC "-//W3C//DTD SVG 1.1//EN"
       "http://www.w3.org/Graphics/SVG/1.1/DTD/svg11.dtd">
<svg version="1.1" xmlns="http://www.w3.org/2000/svg" xmlns:xlink="http://www.w3.org/1999/xlink" width="19.1602" height="19.1504">
 <g>
  <rect height="19.1504" opacity="0" width="19.1602" x="0" y="0"/>
  <path d="M9.57031 19.1406Q11.5527 19.1406 13.2861 18.3984Q15.0195 17.6562 16.3379 16.333Q17.6562 15.0098 18.4082 13.2764Q19.1602 11.543 19.1602 9.57031Q19.1602 7.59766 18.4082 5.86426Q17.6562 4.13086 16.3379 2.80762Q15.0195 1.48438 13.2861 0.742188Q11.5527 0 9.57031 0Q7.59766 0 5.86426 0.742188Q4.13086 1.48438 2.81738 2.80762Q1.50391 4.13086 0.751953 5.86426Q0 7.59766 0 9.57031Q0 11.543 0.74707 13.2764Q1.49414 15.0098 2.8125 16.333Q4.13086 17.6562 5.86914 18.3984Q7.60742 19.1406 9.57031 19.1406ZM9.57031 14.2969Q8.63281 14.2969 7.91016 13.9404Q7.1875 13.584 6.77734 13.1348Q6.36719 12.6855 6.36719 12.3926Q6.36719 12.2852 6.44531 12.2656Q6.52344 12.2461 6.5918 12.2949Q7.05078 12.6758 7.79297 12.9736Q8.53516 13.2715 9.57031 13.2715Q10.6152 13.2715 11.3623 12.9785Q12.1094 12.6855 12.5488 12.2949Q12.6172 12.2461 12.7002 12.2656Q12.7832 12.2852 12.7832 12.3926Q12.7832 12.6855 12.373 13.1348Q11.9629 13.584 11.2402 13.9404Q10.5176 14.2969 9.57031 14.2969ZM6.61133 8.61328Q6.23047 8.61328 5.93262 8.2666Q5.63477 7.91992 5.63477 7.42188Q5.63477 6.92383 5.92773 6.57715Q6.2207 6.23047 6.61133 6.23047Q7.01172 6.23047 7.30957 6.57715Q7.60742 6.92383 7.60742 7.42188Q7.60742 7.91992 7.30469 8.2666Q7.00195 8.61328 6.61133 8.61328ZM12.5293 8.61328Q12.1484 8.61328 11.8457 8.2666Q11.543 7.91992 11.543 7.42188Q11.543 6.92383 11.8408 6.57715Q12.1387 6.23047 12.5293 6.23047Q12.9395 6.23047 13.2275 6.57715Q13.5156 6.92383 13.5156 7.42188Q13.5156 7.91992 13.2227 8.2666Q12.9297 8.61328 12.5293 8.61328Z" fill="rgba(0,0,0,0.85)"/>
 </g>
</svg>
