<?xml version="1.0" encoding="UTF-8"?>
<!--Generator: Apple Native CoreSVG 175-->
<!DOCTYPE svg
PUBLIC "-//W3C//DTD SVG 1.1//EN"
       "http://www.w3.org/Graphics/SVG/1.1/DTD/svg11.dtd">
<svg version="1.1" xmlns="http://www.w3.org/2000/svg" xmlns:xlink="http://www.w3.org/1999/xlink" width="8.98163" height="21.749">
 <g>
  <rect height="21.749" opacity="0" width="8.98163" x="0" y="0"/>
  <path d="M0 13.7091Q0 14.1692 0.241241 14.4237Q0.482483 14.6782 0.874176 14.6782Q1.26328 14.6782 1.5094 14.4237Q1.75552 14.1692 1.75552 13.7091L1.75552 8.81058Q1.75552 8.53516 1.98639 8.53516Q2.23129 8.53516 2.23129 8.81058L2.23129 20.6427Q2.23129 21.1588 2.50801 21.4411Q2.78473 21.7235 3.21991 21.7235Q3.65784 21.7235 3.93814 21.4411Q4.21844 21.1588 4.21844 20.6427L4.21844 13.5439Q4.21844 13.2254 4.48944 13.2254Q4.76334 13.2254 4.76334 13.5439L4.76334 20.6427Q4.76334 21.1588 5.04356 21.4411Q5.32379 21.7235 5.75897 21.7235Q6.1969 21.7235 6.47369 21.4411Q6.75049 21.1588 6.75049 20.6427L6.75049 8.81058Q6.75049 8.53516 6.99539 8.53516Q7.22626 8.53516 7.22626 8.81058L7.22626 13.7091Q7.22626 14.1692 7.47231 14.4237Q7.71835 14.6782 8.10745 14.6782Q8.4993 14.6782 8.74046 14.4237Q8.98163 14.1692 8.98163 13.7091L8.98163 8.7262Q8.98163 7.0134 7.80296 6.06865Q6.6243 5.1239 4.48944 5.1239Q2.35748 5.1239 1.17874 6.06865Q0 7.0134 0 8.7262ZM4.48944 4.30588Q5.08209 4.30588 5.57152 4.00963Q6.06094 3.71338 6.35101 3.22739Q6.64108 2.74139 6.64108 2.16141Q6.64108 1.56876 6.35101 1.07445Q6.06094 0.580139 5.57152 0.29007Q5.08209 0 4.48944 0Q3.88992 0 3.40393 0.29007Q2.91794 0.580139 2.63283 1.07445Q2.34772 1.56876 2.34772 2.16141Q2.34772 2.79343 2.63283 3.27583Q2.91794 3.75824 3.40393 4.03206Q3.88992 4.30588 4.48944 4.30588Z" fill="rgba(0,0,0,0.85)"/>
 </g>
</svg>
