<?xml version="1.0" encoding="UTF-8"?>
<!--Generator: Apple Native CoreSVG 175-->
<!DOCTYPE svg
PUBLIC "-//W3C//DTD SVG 1.1//EN"
       "http://www.w3.org/Graphics/SVG/1.1/DTD/svg11.dtd">
<svg version="1.1" xmlns="http://www.w3.org/2000/svg" xmlns:xlink="http://www.w3.org/1999/xlink" width="19.1602" height="19.1504">
 <g>
  <rect height="19.1504" opacity="0" width="19.1602" x="0" y="0"/>
  <path d="M9.57031 19.1406Q11.5527 19.1406 13.2861 18.3984Q15.0195 17.6562 16.3379 16.333Q17.6562 15.0098 18.4082 13.2764Q19.1602 11.543 19.1602 9.57031Q19.1602 7.59766 18.4082 5.86426Q17.6562 4.13086 16.3379 2.80762Q15.0195 1.48438 13.2861 0.742188Q11.5527 0 9.57031 0Q7.59766 0 5.86426 0.742188Q4.13086 1.48438 2.81738 2.80762Q1.50391 4.13086 0.751953 5.86426Q0 7.59766 0 9.57031Q0 11.543 0.74707 13.2764Q1.49414 15.0098 2.8125 16.333Q4.13086 17.6562 5.86914 18.3984Q7.60742 19.1406 9.57031 19.1406ZM9.57031 18.3984Q7.74414 18.3984 6.14746 17.71Q4.55078 17.0215 3.33496 15.8105Q2.11914 14.5996 1.43555 12.998Q0.751953 11.3965 0.751953 9.57031Q0.751953 7.74414 1.43555 6.14258Q2.11914 4.54102 3.33496 3.3252Q4.55078 2.10938 6.14746 1.4209Q7.74414 0.732422 9.57031 0.732422Q11.4062 0.732422 13.0029 1.4209Q14.5996 2.10938 15.8154 3.3252Q17.0312 4.54102 17.7197 6.14258Q18.4082 7.74414 18.4082 9.57031Q18.4082 11.3965 17.7246 12.998Q17.041 14.5996 15.8252 15.8105Q14.6094 17.0215 13.0078 17.71Q11.4062 18.3984 9.57031 18.3984ZM8.81836 16.0645Q9.3457 16.0645 9.3457 15.4785L9.3457 11.2402Q9.3457 10.957 9.57031 10.957Q9.77539 10.957 9.77539 11.2402L9.77539 15.4785Q9.77539 15.7422 9.93164 15.9033Q10.0879 16.0645 10.3418 16.0645Q10.8691 16.0645 10.8691 15.4785L10.8691 8.19336Q10.8691 7.91992 11.084 7.91992Q11.2988 7.91992 11.2988 8.19336L11.2988 11.2891Q11.2988 11.5332 11.4307 11.6748Q11.5625 11.8164 11.7871 11.8164Q12.2461 11.8164 12.2461 11.2891L12.2461 8.24219Q12.2461 7.11914 11.626 6.66504Q11.0059 6.21094 9.59961 6.21094L8.82812 6.21094Q8.55469 6.21094 8.41797 6.15234Q8.28125 6.09375 8.0957 5.9668L7.26562 5.40039L7.11914 3.47656Q7.09961 3.22266 6.96289 3.09082Q6.82617 2.95898 6.62109 2.96875Q6.39648 2.98828 6.27441 3.13477Q6.15234 3.28125 6.17188 3.53516L6.28906 5.3418Q6.30859 5.61523 6.41602 5.81543Q6.52344 6.01562 6.72852 6.16211L8.00781 7.08008Q8.25195 7.24609 8.25195 7.61719L8.25195 15.4785Q8.25195 15.7422 8.4082 15.9033Q8.56445 16.0645 8.81836 16.0645ZM9.59961 5.63477Q10.1074 5.63477 10.459 5.2832Q10.8105 4.93164 10.8105 4.42383Q10.8105 3.90625 10.459 3.55469Q10.1074 3.20312 9.59961 3.20312Q9.0918 3.20312 8.74023 3.55469Q8.38867 3.90625 8.38867 4.42383Q8.38867 4.92188 8.74023 5.27832Q9.0918 5.63477 9.59961 5.63477Z" fill="rgba(0,0,0,0.85)"/>
 </g>
</svg>
