<?xml version="1.0" encoding="UTF-8"?>
<!--Generator: Apple Native CoreSVG 175-->
<!DOCTYPE svg
PUBLIC "-//W3C//DTD SVG 1.1//EN"
       "http://www.w3.org/Graphics/SVG/1.1/DTD/svg11.dtd">
<svg version="1.1" xmlns="http://www.w3.org/2000/svg" xmlns:xlink="http://www.w3.org/1999/xlink" width="19.1602" height="19.1504">
 <g>
  <rect height="19.1504" opacity="0" width="19.1602" x="0" y="0"/>
  <path d="M9.57031 19.1406Q11.5527 19.1406 13.2861 18.3984Q15.0195 17.6562 16.3379 16.333Q17.6562 15.0098 18.4082 13.2764Q19.1602 11.543 19.1602 9.57031Q19.1602 7.59766 18.4082 5.86426Q17.6562 4.13086 16.3379 2.80762Q15.0195 1.48438 13.2861 0.742188Q11.5527 0 9.57031 0Q7.59766 0 5.86426 0.742188Q4.13086 1.48438 2.81738 2.80762Q1.50391 4.13086 0.751953 5.86426Q0 7.59766 0 9.57031Q0 11.543 0.74707 13.2764Q1.49414 15.0098 2.8125 16.333Q4.13086 17.6562 5.86914 18.3984Q7.60742 19.1406 9.57031 19.1406ZM11.8555 15.6738Q11.4746 15.6738 11.3184 15.3027L10.0586 12.7539Q10.0195 12.6855 9.98535 12.6221Q9.95117 12.5586 9.85352 12.4414L8.69141 10.9766Q8.44727 10.6641 8.2666 10.293Q8.08594 9.92188 8.125 9.4043L8.22266 8.13477Q8.24219 7.94922 8.11035 7.87109Q7.97852 7.79297 7.82227 7.91992L7.26562 8.39844L7.12891 9.94141Q7.08984 10.498 6.58203 10.4785Q6.34766 10.459 6.21582 10.293Q6.08398 10.127 6.10352 9.86328L6.2207 8.4668Q6.25 8.18359 6.33301 7.97852Q6.41602 7.77344 6.64062 7.56836L7.65625 6.65039Q8.10547 6.24023 8.4668 6.02051Q8.82812 5.80078 9.29688 5.80078Q9.89258 5.80078 10.2344 6.18652Q10.5762 6.57227 10.5469 7.19727L10.4297 8.90625Q10.4004 9.36523 10.3271 9.72656Q10.2539 10.0879 10.0977 10.5664L10.0391 10.7227L10.791 11.7871Q10.8789 11.8945 10.957 12.0361Q11.0352 12.1777 11.1133 12.3438L12.2852 14.6973Q12.3438 14.8145 12.3682 14.917Q12.3926 15.0195 12.3926 15.127Q12.3926 15.3516 12.2412 15.5127Q12.0898 15.6738 11.8555 15.6738ZM6.49414 15.6934Q6.25977 15.6934 6.11816 15.5469Q5.97656 15.4004 5.97656 15.1758Q5.97656 15.0293 6.04004 14.917Q6.10352 14.8047 6.23047 14.6484L7.91992 12.6465L8.20312 11.2207L9.10156 12.3535L8.97461 12.8906Q8.93555 13.0566 8.90137 13.1104Q8.86719 13.1641 8.71094 13.3496L6.93359 15.4883Q6.76758 15.6934 6.49414 15.6934ZM12.1289 9.13086Q11.875 9.13086 11.7285 9.07715Q11.582 9.02344 11.4355 8.88672L10.9766 8.4375L11.0742 7.07031L12.0215 8.10547L13.4375 8.10547Q13.7109 8.10547 13.8672 8.24707Q14.0234 8.38867 14.0234 8.62305Q14.0234 9.13086 13.4375 9.13086ZM10 5.23438Q9.50195 5.23438 9.14062 4.87305Q8.7793 4.51172 8.7793 4.01367Q8.7793 3.49609 9.13574 3.13477Q9.49219 2.77344 10 2.77344Q10.5176 2.77344 10.8789 3.12988Q11.2402 3.48633 11.2402 4.01367Q11.2402 4.51172 10.874 4.87305Q10.5078 5.23438 10 5.23438Z" fill="rgba(0,0,0,0.85)"/>
 </g>
</svg>
