<?xml version="1.0" encoding="UTF-8"?>
<!--Generator: Apple Native CoreSVG 175-->
<!DOCTYPE svg
PUBLIC "-//W3C//DTD SVG 1.1//EN"
       "http://www.w3.org/Graphics/SVG/1.1/DTD/svg11.dtd">
<svg version="1.1" xmlns="http://www.w3.org/2000/svg" xmlns:xlink="http://www.w3.org/1999/xlink" width="21.2112" height="21.211">
 <g>
  <rect height="21.211" opacity="0" width="21.2112" x="0" y="0"/>
  <path d="M0.922877 12.4658L8.75491 20.2881Q9.67288 21.2061 10.6201 21.2012Q11.5674 21.1963 12.4658 20.2979L20.2881 12.4561Q21.1963 11.5576 21.211 10.6055Q21.2256 9.65335 20.2979 8.73538L12.4854 0.922877Q11.5576-0.00485725 10.6153 2.55645e-05Q9.67288 0.00490838 8.75491 0.922877L0.913112 8.74514Q-0.00485698 9.66311 2.5835e-05 10.6006Q0.00490865 11.5381 0.922877 12.4658ZM12.876 16.7041Q12.4951 16.7041 12.3389 16.333L11.0791 13.7842Q11.0401 13.7158 11.0059 13.6524Q10.9717 13.5889 10.874 13.4717L9.71194 12.0069Q9.4678 11.6944 9.28714 11.3233Q9.10647 10.9522 9.14553 10.4346L9.24319 9.16506Q9.26272 8.97952 9.13089 8.90139Q8.99905 8.82327 8.8428 8.95022L8.28616 9.42874L8.14944 10.9717Q8.11038 11.5283 7.60256 11.5088Q7.36819 11.4893 7.23635 11.3233Q7.10452 11.1573 7.12405 10.8936L7.24124 9.4971Q7.27053 9.21389 7.35354 9.00881Q7.43655 8.80374 7.66116 8.59866L8.67678 7.68069Q9.126 7.27053 9.48733 7.05081Q9.84866 6.83108 10.3174 6.83108Q10.9131 6.83108 11.2549 7.21682Q11.5967 7.60256 11.5674 8.22756L11.4502 9.93655Q11.4209 10.3955 11.3477 10.7569Q11.2744 11.1182 11.1182 11.5967L11.0596 11.753L11.8115 12.8174Q11.8994 12.9248 11.9776 13.0664Q12.0557 13.208 12.1338 13.374L13.3057 15.7276Q13.3643 15.8448 13.3887 15.9473Q13.4131 16.0498 13.4131 16.1573Q13.4131 16.3819 13.2617 16.543Q13.1104 16.7041 12.876 16.7041ZM7.51467 16.7237Q7.2803 16.7237 7.1387 16.5772Q6.9971 16.4307 6.9971 16.2061Q6.9971 16.0596 7.06057 15.9473Q7.12405 15.835 7.251 15.6787L8.94046 13.6768L9.22366 12.251L10.1221 13.3838L9.99514 13.9209Q9.95608 14.0869 9.9219 14.1407Q9.88772 14.1944 9.73147 14.3799L7.95413 16.5186Q7.78811 16.7237 7.51467 16.7237ZM13.1494 10.1612Q12.8955 10.1612 12.749 10.1074Q12.6026 10.0537 12.4561 9.91702L11.9971 9.4678L12.0948 8.10061L13.042 9.13577L14.458 9.13577Q14.7315 9.13577 14.8877 9.27737Q15.044 9.41897 15.044 9.65335Q15.044 10.1612 14.458 10.1612ZM11.0205 6.26467Q10.5225 6.26467 10.1612 5.90335Q9.79983 5.54202 9.79983 5.04397Q9.79983 4.52639 10.1563 4.16506Q10.5127 3.80374 11.0205 3.80374Q11.5381 3.80374 11.8994 4.16018Q12.2608 4.51663 12.2608 5.04397Q12.2608 5.54202 11.8946 5.90335Q11.5283 6.26467 11.0205 6.26467Z" fill="rgba(0,0,0,0.85)"/>
 </g>
</svg>
