<?xml version="1.0" encoding="UTF-8"?>
<!--Generator: Apple Native CoreSVG 175-->
<!DOCTYPE svg
PUBLIC "-//W3C//DTD SVG 1.1//EN"
       "http://www.w3.org/Graphics/SVG/1.1/DTD/svg11.dtd">
<svg version="1.1" xmlns="http://www.w3.org/2000/svg" xmlns:xlink="http://www.w3.org/1999/xlink" width="33.1599" height="19.4724">
 <g>
  <rect height="19.4724" opacity="0" width="33.1599" x="0" y="0"/>
  <path d="M22.2558 18.8945L11.6199 0.492553Q11.4425 0.183563 11.1655 0.0832362Q10.8886-0.0170903 10.544 0.00350904Q10.0793 0.0382991 9.53024 0.260162Q8.98123 0.482025 8.496 0.770721Q7.6203 1.28677 6.95776 1.91727Q6.29522 2.54776 5.68487 3.22159Q5.07452 3.89542 4.37964 4.54559Q3.68475 5.19577 2.75381 5.73166Q1.94723 6.19492 1.29835 6.39709Q0.649473 6.59927 0.334226 6.76804Q0.0940527 6.91528 0.0240912 7.12486Q-0.0458704 7.33444 0.0873388 7.57309L4.16083 14.6329Q4.34515 14.9489 4.62706 15.0479Q4.90896 15.1469 5.25076 15.1192Q5.71127 15.0774 6.26379 14.859Q6.81631 14.6407 7.28476 14.3492Q8.16748 13.8431 8.8349 13.2091Q9.50232 12.5751 10.1113 11.8999Q10.7203 11.2247 11.4116 10.5794Q12.103 9.93408 13.034 9.38827Q13.8054 8.94806 14.446 8.73032Q15.0866 8.51257 15.3933 8.42071L21.6515 19.25Q21.7234 19.3802 21.8603 19.4175Q21.9971 19.4548 22.13 19.3829Q22.2433 19.3137 22.2841 19.1692Q22.3249 19.0247 22.2558 18.8945ZM17.1168 8.14224L17.5234 8.84064L17.7668 8.42071Q18.0735 8.51257 18.714 8.73032Q19.3546 8.94806 20.1261 9.38827Q21.057 9.93408 21.747 10.5794Q22.437 11.2247 23.0474 11.8999Q23.6577 12.5751 24.3238 13.2091Q24.9898 13.8431 25.8726 14.3492Q26.3437 14.6407 26.8963 14.859Q27.4488 15.0774 27.9066 15.1192Q28.2511 15.1469 28.5329 15.0479Q28.8148 14.9489 28.9965 14.6329L33.0726 7.57309Q33.2058 7.33444 33.1359 7.12486Q33.066 6.91528 32.8257 6.76804Q32.5106 6.59927 31.8617 6.39709Q31.2128 6.19492 30.4035 5.73166Q29.4726 5.19577 28.7791 4.54559Q28.0855 3.89542 27.4752 3.22159Q26.8648 2.54776 26.2023 1.91727Q25.5398 1.28677 24.6641 0.770721Q24.1788 0.482025 23.6263 0.260162Q23.0738 0.0382991 22.616 0.00350904Q22.2715-0.0170903 21.9945 0.0832362Q21.7176 0.183563 21.5401 0.492553ZM18.1446 7.76764L22.2352 0.688018Q22.6571 0.679321 23.0818 0.821151Q23.5065 0.962982 23.8405 1.13487Q24.1746 1.30676 24.3085 1.38214Q25.1707 1.88019 25.8214 2.50297Q26.4722 3.12576 27.0777 3.79959Q27.6832 4.47342 28.3884 5.12772Q29.0937 5.78201 30.0507 6.33865Q30.4609 6.5802 31.0255 6.83952Q31.5902 7.09885 32.378 7.35519L28.2874 14.4278Q27.8727 14.4363 27.4444 14.2981Q27.016 14.1599 26.6855 13.9893Q26.355 13.8188 26.2281 13.7407Q25.3589 13.2426 24.7046 12.6163Q24.0504 11.9899 23.4484 11.3147Q22.8464 10.6395 22.1447 9.9852Q21.4429 9.3309 20.4789 8.77701Q20.0687 8.54263 19.4957 8.28323Q18.9226 8.02383 18.1446 7.76764ZM16.0363 11.4189L15.6339 10.7036L10.9043 18.8945Q10.828 19.0247 10.8675 19.1692Q10.907 19.3137 11.03 19.3829Q11.1628 19.4548 11.2997 19.4175Q11.4367 19.3802 11.5058 19.25Z" fill="rgba(0,0,0,0.85)"/>
 </g>
</svg>
