<?xml version="1.0" encoding="UTF-8"?>
<!--Generator: Apple Native CoreSVG 175-->
<!DOCTYPE svg
PUBLIC "-//W3C//DTD SVG 1.1//EN"
       "http://www.w3.org/Graphics/SVG/1.1/DTD/svg11.dtd">
<svg version="1.1" xmlns="http://www.w3.org/2000/svg" xmlns:xlink="http://www.w3.org/1999/xlink" width="11.8903" height="18.0261">
 <g>
  <rect height="18.0261" opacity="0" width="11.8903" x="0" y="0"/>
  <path d="M5.95001 17.9797Q7.86682 17.9797 9.19617 17.3039Q10.5255 16.6281 11.2079 15.316Q11.8903 14.0039 11.8903 12.0801L11.8903 4.85703Q11.8903 3.70193 11.285 3.09433Q10.6798 2.48672 9.51523 2.48672L0.728607 2.48672L0.728607 0.36911Q0.728607 0.215607 0.622101 0.107803Q0.515594 0 0.359344 0Q0.21286 0 0.10643 0.107803Q0 0.215607 0 0.36911L0 12.0801Q0 14.0039 0.685959 15.316Q1.37192 16.6281 2.69768 17.3039Q4.02344 17.9797 5.95001 17.9797ZM5.95001 17.2621Q3.41141 17.2621 2.07001 15.9641Q0.728607 14.666 0.728607 12.1875L0.728607 3.21518L9.45084 3.21518Q10.3333 3.21518 10.751 3.62534Q11.1688 4.03549 11.1688 4.90692L11.1688 12.1875Q11.1688 14.666 9.82391 15.9641Q8.479 17.2621 5.95001 17.2621ZM3.12698 10.7484L8.76328 10.7484Q9.30435 10.7484 9.59007 10.4781Q9.87579 10.2078 9.87579 9.69055L9.87579 5.5687Q9.87579 5.05157 9.59007 4.77638Q9.30435 4.50119 8.76328 4.50119L3.12698 4.50119Q2.58591 4.50119 2.30019 4.77638Q2.01447 5.05157 2.01447 5.5687L2.01447 9.69055Q2.01447 10.2078 2.30019 10.4781Q2.58591 10.7484 3.12698 10.7484ZM4.4368 15.6668L7.45392 15.6668Q7.64297 15.6668 7.76802 15.5418Q7.89307 15.4167 7.89307 15.2277Q7.89307 15.0456 7.76802 14.9207Q7.64297 14.7957 7.45392 14.7957L4.4368 14.7957Q4.25476 14.7957 4.12621 14.9207Q3.99765 15.0456 3.99765 15.2277Q3.99765 15.4167 4.12621 15.5418Q4.25476 15.6668 4.4368 15.6668Z" fill="rgba(0,0,0,0.85)"/>
 </g>
</svg>
