<?xml version="1.0" encoding="UTF-8"?>
<!--Generator: Apple Native CoreSVG 175-->
<!DOCTYPE svg
PUBLIC "-//W3C//DTD SVG 1.1//EN"
       "http://www.w3.org/Graphics/SVG/1.1/DTD/svg11.dtd">
<svg version="1.1" xmlns="http://www.w3.org/2000/svg" xmlns:xlink="http://www.w3.org/1999/xlink" width="19.1602" height="19.1504">
 <g>
  <rect height="19.1504" opacity="0" width="19.1602" x="0" y="0"/>
  <path d="M9.57031 19.1406Q11.5527 19.1406 13.2861 18.3984Q15.0195 17.6562 16.3379 16.333Q17.6562 15.0098 18.4082 13.2764Q19.1602 11.543 19.1602 9.57031Q19.1602 7.59766 18.4082 5.86426Q17.6562 4.13086 16.3379 2.80762Q15.0195 1.48438 13.2861 0.742188Q11.5527 0 9.57031 0Q7.59766 0 5.86426 0.742188Q4.13086 1.48438 2.81738 2.80762Q1.50391 4.13086 0.751953 5.86426Q0 7.59766 0 9.57031Q0 11.543 0.74707 13.2764Q1.49414 15.0098 2.8125 16.333Q4.13086 17.6562 5.86914 18.3984Q7.60742 19.1406 9.57031 19.1406ZM7.36328 13.8867Q7.11914 13.8867 6.88477 13.8574Q6.65039 13.8281 6.48438 13.75Q6.20117 13.6328 6.20117 13.3984Q6.20117 13.2617 6.2793 13.1836Q6.35742 13.1055 6.50391 13.1055Q6.60156 13.1055 6.75781 13.1445Q6.86523 13.1836 7.00684 13.2178Q7.14844 13.252 7.35352 13.252Q8.00781 13.252 8.36914 12.876Q8.73047 12.5 8.85742 11.6797L9.24805 9.54102L7.16797 9.54102Q7.02148 9.54102 6.93848 9.45801Q6.85547 9.375 6.85547 9.23828Q6.85547 9.0918 6.94336 9.00879Q7.03125 8.92578 7.16797 8.92578L9.35547 8.92578L9.63867 7.34375Q9.83398 6.25 10.3564 5.7373Q10.8789 5.22461 11.7969 5.22461Q12.0312 5.22461 12.2656 5.25391Q12.5 5.2832 12.666 5.36133Q12.9492 5.48828 12.9492 5.72266Q12.9492 5.84961 12.876 5.93262Q12.8027 6.01562 12.6562 6.01562Q12.5488 6.01562 12.4023 5.9668Q12.2949 5.9375 12.1484 5.90332Q12.002 5.86914 11.8066 5.86914Q11.1426 5.86914 10.7861 6.24023Q10.4297 6.61133 10.293 7.43164L10.0293 8.92578L12.1875 8.92578Q12.334 8.92578 12.417 9.00879Q12.5 9.0918 12.5 9.23828Q12.5 9.375 12.417 9.45801Q12.334 9.54102 12.1875 9.54102L9.92188 9.54102L9.51172 11.7676Q9.31641 12.8613 8.79883 13.374Q8.28125 13.8867 7.36328 13.8867Z" fill="rgba(0,0,0,0.85)"/>
 </g>
</svg>
