<?xml version="1.0" encoding="UTF-8"?>
<!--Generator: Apple Native CoreSVG 175-->
<!DOCTYPE svg
PUBLIC "-//W3C//DTD SVG 1.1//EN"
       "http://www.w3.org/Graphics/SVG/1.1/DTD/svg11.dtd">
<svg version="1.1" xmlns="http://www.w3.org/2000/svg" xmlns:xlink="http://www.w3.org/1999/xlink" width="21.4957" height="17.1823">
 <g>
  <rect height="17.1823" opacity="0" width="21.4957" x="0" y="0"/>
  <path d="M0 14.4992Q0 15.7948 0.668182 16.4603Q1.33636 17.1257 2.63046 17.1257L18.9262 17.1257Q20.1715 17.1257 20.8336 16.4532Q21.4957 15.7808 21.4957 14.4992L21.4957 6.16089L0 6.16089ZM0 5.50034L21.4957 5.50034L21.4957 4.43466Q21.4957 3.16284 20.8262 2.48901Q20.1567 1.81519 18.8652 1.81519L9.33563 1.81519Q8.6969 1.81519 8.33405 1.69388Q7.97119 1.57257 7.57187 1.19675L7.04651 0.722656Q6.73126 0.42099 6.46507 0.26825Q6.19888 0.115509 5.87051 0.0577545Q5.54214 0 5.04257 0L2.27341 0Q1.13907 0 0.569534 0.577698Q0 1.1554 0 2.31369Z" fill="rgba(0,0,0,0.85)"/>
 </g>
</svg>
