<?xml version="1.0" encoding="UTF-8"?>
<!--Generator: Apple Native CoreSVG 175-->
<!DOCTYPE svg
PUBLIC "-//W3C//DTD SVG 1.1//EN"
       "http://www.w3.org/Graphics/SVG/1.1/DTD/svg11.dtd">
<svg version="1.1" xmlns="http://www.w3.org/2000/svg" xmlns:xlink="http://www.w3.org/1999/xlink" width="12.4108" height="23.2129">
 <g>
  <rect height="23.2129" opacity="0" width="12.4108" x="0" y="0"/>
  <path d="M3.04556 22.0312Q3.59243 22.0312 3.94888 21.7188Q4.30532 21.4062 4.29556 20.8496L4.10024 10.0684Q4.09048 9.78516 4.18325 9.62402Q4.27602 9.46289 4.5104 9.35547Q5.12563 9.07227 5.48208 8.73047Q5.83852 8.38867 5.97524 7.87109Q6.11196 7.35352 6.08266 6.52344L5.82876 0.732422Q5.80923 0.146484 5.23306 0.146484Q4.96938 0.146484 4.81802 0.307617Q4.66665 0.46875 4.66665 0.761719L4.72524 6.38672Q4.72524 6.66016 4.57876 6.79199Q4.43227 6.92383 4.2272 6.92383Q4.01235 6.92383 3.86587 6.79688Q3.71938 6.66992 3.71938 6.41602L3.62173 0.585938Q3.62173 0.3125 3.46548 0.15625Q3.30923 0 3.04556 0Q2.77212 0 2.62075 0.15625Q2.46938 0.3125 2.46938 0.585938L2.37173 6.41602Q2.37173 6.66992 2.22036 6.79688Q2.06899 6.92383 1.86391 6.92383Q1.37563 6.92383 1.37563 6.38672L1.42446 0.761719Q1.42446 0.46875 1.27309 0.307617Q1.12173 0.146484 0.858055 0.146484Q0.584618 0.146484 0.428368 0.302734Q0.272118 0.458984 0.262352 0.732422L0.00844595 6.52344Q-0.0306166 7.35352 0.110985 7.87109Q0.252587 8.38867 0.609032 8.73047Q0.965477 9.07227 1.58071 9.35547Q1.81509 9.46289 1.90786 9.62402Q2.00063 9.78516 1.99087 10.0684L1.79556 20.8496Q1.78579 21.4062 2.14224 21.7188Q2.49868 22.0312 3.04556 22.0312ZM10.1549 14.2578L9.88149 20.6641Q9.8522 21.3672 10.2184 21.6992Q10.5846 22.0312 11.1315 22.0312Q11.6881 22.0312 12.0495 21.7236Q12.4108 21.416 12.4108 20.8496L12.4108 0.615234Q12.4108 0.3125 12.2497 0.15625Q12.0885 0 11.8444 0Q11.6002 0 11.4293 0.136719Q11.2584 0.273438 11.0827 0.527344Q10.4967 1.33789 10.0329 2.43652Q9.56899 3.53516 9.24184 4.84863Q8.9147 6.16211 8.7438 7.62207Q8.5729 9.08203 8.5729 10.625L8.5729 11.3281Q8.5729 11.8945 8.7438 12.2461Q8.9147 12.5977 9.27602 12.8613L9.69595 13.1543Q9.94985 13.3496 10.0622 13.6084Q10.1745 13.8672 10.1549 14.2578Z" fill="rgba(0,0,0,0.85)"/>
 </g>
</svg>
