<?xml version="1.0" encoding="UTF-8"?>
<!--Generator: Apple Native CoreSVG 175-->
<!DOCTYPE svg
PUBLIC "-//W3C//DTD SVG 1.1//EN"
       "http://www.w3.org/Graphics/SVG/1.1/DTD/svg11.dtd">
<svg version="1.1" xmlns="http://www.w3.org/2000/svg" xmlns:xlink="http://www.w3.org/1999/xlink" width="17.2852" height="17.3145">
 <g>
  <rect height="17.3145" opacity="0" width="17.2852" x="0" y="0"/>
  <path d="M2.62695 17.3145L14.6484 17.3145Q15.957 17.3145 16.6211 16.6455Q17.2852 15.9766 17.2852 14.6875L17.2852 2.65625Q17.2852 1.37695 16.6211 0.703125Q15.957 0.0292969 14.6484 0.0292969L2.62695 0.0292969Q1.33789 0.0292969 0.668945 0.693359Q0 1.35742 0 2.65625L0 14.6875Q0 15.9863 0.668945 16.6504Q1.33789 17.3145 2.62695 17.3145ZM2.65625 16.5918Q1.70898 16.5918 1.2207 16.1035Q0.732422 15.6152 0.732422 14.6582L0.732422 2.69531Q0.732422 1.72852 1.2207 1.24512Q1.70898 0.761719 2.65625 0.761719L14.6289 0.761719Q15.5566 0.761719 16.0596 1.24512Q16.5625 1.72852 16.5625 2.69531L16.5625 14.6582Q16.5625 15.6152 16.0596 16.1035Q15.5566 16.5918 14.6289 16.5918ZM8.74023 13.1152Q9.77539 13.1152 10.5371 12.6855Q11.2988 12.2559 11.7188 11.4844Q12.1387 10.7129 12.1387 9.6582L12.1387 8.98438Q12.1387 8.58398 11.7773 8.58398L8.85742 8.58398Q8.71094 8.58398 8.62305 8.67676Q8.53516 8.76953 8.53516 8.90625Q8.53516 9.0332 8.62305 9.12598Q8.71094 9.21875 8.85742 9.21875L11.3965 9.21875L11.3965 9.70703Q11.3965 10.9863 10.6982 11.7188Q10 12.4512 8.74023 12.4512Q7.83203 12.4512 7.13379 11.9727Q6.43555 11.4941 6.04004 10.6299Q5.64453 9.76562 5.64453 8.64258Q5.64453 7.50977 6.04004 6.65039Q6.43555 5.79102 7.12891 5.3125Q7.82227 4.83398 8.74023 4.83398Q9.79492 4.83398 10.5322 5.38086Q11.2695 5.92773 11.4258 6.83594Q11.4648 7.00195 11.543 7.07031Q11.6211 7.13867 11.7676 7.13867Q11.9238 7.13867 12.0117 7.0459Q12.0996 6.95312 12.0996 6.77734Q12.0996 6.70898 12.0898 6.63086Q12.0801 6.55273 12.0605 6.47461Q11.9531 5.9668 11.543 5.42969Q11.1328 4.89258 10.4346 4.52637Q9.73633 4.16016 8.73047 4.16016Q7.58789 4.16016 6.72852 4.72168Q5.86914 5.2832 5.38574 6.29395Q4.90234 7.30469 4.90234 8.64258Q4.90234 9.99023 5.38574 10.9961Q5.86914 12.002 6.7334 12.5586Q7.59766 13.1152 8.74023 13.1152Z" fill="rgba(0,0,0,0.85)"/>
 </g>
</svg>
