<?xml version="1.0" encoding="UTF-8"?>
<!--Generator: Apple Native CoreSVG 175-->
<!DOCTYPE svg
PUBLIC "-//W3C//DTD SVG 1.1//EN"
       "http://www.w3.org/Graphics/SVG/1.1/DTD/svg11.dtd">
<svg version="1.1" xmlns="http://www.w3.org/2000/svg" xmlns:xlink="http://www.w3.org/1999/xlink" width="20.0235" height="20.0348">
 <g>
  <rect height="20.0348" opacity="0" width="20.0235" x="0" y="0"/>
  <path d="M9.04648 20.0348L10.977 20.0348Q11.393 20.0348 11.6602 19.8143Q11.9273 19.5938 12.0195 19.1566L12.4922 17.1419Q12.6981 17.0583 12.9082 16.9824Q13.1184 16.9066 13.3203 16.8246L15.0856 17.9277Q15.4472 18.1653 15.7912 18.1325Q16.1351 18.0997 16.427 17.8078L17.7852 16.4523Q18.084 16.1606 18.1216 15.809Q18.1593 15.4575 17.9234 15.0887L16.8134 13.336Q16.898 13.1313 16.9724 12.9238Q17.0468 12.7164 17.1277 12.509L19.1481 12.0335Q19.5824 11.9344 19.8029 11.6672Q20.0235 11.4 20.0235 10.9911L20.0235 9.06174Q20.0235 8.65555 19.8029 8.38837Q19.5824 8.12119 19.1481 8.02185L17.1332 7.54654Q17.0496 7.32819 16.9724 7.12425Q16.8953 6.92032 16.8187 6.71402L17.9219 4.95316Q18.1621 4.59137 18.1271 4.24042Q18.0922 3.88947 17.7907 3.60474L16.427 2.24655Q16.1325 1.95312 15.7919 1.91971Q15.4512 1.88629 15.0938 2.11411L13.3203 3.23242Q13.121 3.14056 12.9123 3.0648Q12.7036 2.98904 12.4922 2.91245L12.0195 0.889435Q11.9273 0.455017 11.6602 0.233154Q11.393 0.0112915 10.977 0.0112915L9.04648 0.0112915Q8.63052 0.0112915 8.36334 0.233154Q8.09616 0.455017 8.00125 0.889435L7.52853 2.9071Q7.31567 2.98355 7.10411 3.06427Q6.89255 3.14499 6.69067 3.22968L4.92264 2.11411Q4.55826 1.88629 4.21623 1.92184Q3.87421 1.9574 3.57971 2.24655L2.21878 3.60474Q1.91727 3.88947 1.88438 4.24042Q1.8515 4.59137 2.08755 4.95316L3.19489 6.71402Q3.11844 6.92032 3.03772 7.12425Q2.957 7.32819 2.88315 7.54654L0.875397 8.02185Q0.438232 8.12119 0.219116 8.38837Q0 8.65555 0 9.06174L0 10.9911Q0 11.4 0.219116 11.6672Q0.438232 11.9344 0.875397 12.0335L2.88864 12.509Q2.95975 12.7164 3.03909 12.9238Q3.11844 13.1313 3.20038 13.336L2.09305 15.0887Q1.85699 15.4575 1.89117 15.809Q1.92535 16.1606 2.22427 16.4523L3.57971 17.8078Q3.87146 18.0997 4.2189 18.1325Q4.56635 18.1653 4.93088 17.9277L6.69342 16.8246Q6.89529 16.9066 7.10548 16.9824Q7.31567 17.0583 7.52853 17.1419L8.00125 19.1566Q8.09616 19.5938 8.36334 19.8143Q8.63052 20.0348 9.04648 20.0348ZM10.0223 13.5582Q9.04694 13.5582 8.23967 13.0754Q7.4324 12.5926 6.95099 11.7854Q6.46957 10.9781 6.46957 10.0098Q6.46957 9.04846 6.95587 8.24745Q7.44217 7.44644 8.24806 6.96365Q9.05396 6.48087 10.0223 6.48087Q10.9906 6.48087 11.7944 6.96365Q12.5981 7.44644 13.0795 8.24745Q13.5609 9.04846 13.5609 10.0098Q13.5609 10.9781 13.0795 11.7854Q12.5981 12.5926 11.7944 13.0754Q10.9906 13.5582 10.0223 13.5582Z" fill="rgba(0,0,0,0.85)"/>
 </g>
</svg>
