<?xml version="1.0" encoding="UTF-8"?>
<!--Generator: Apple Native CoreSVG 175-->
<!DOCTYPE svg
PUBLIC "-//W3C//DTD SVG 1.1//EN"
       "http://www.w3.org/Graphics/SVG/1.1/DTD/svg11.dtd">
<svg version="1.1" xmlns="http://www.w3.org/2000/svg" xmlns:xlink="http://www.w3.org/1999/xlink" width="19.1602" height="22.8462">
 <g>
  <rect height="22.8462" opacity="0" width="19.1602" x="0" y="0"/>
  <path d="M0 11.4378Q0 13.4104 0.74707 15.1487Q1.49414 16.887 2.8125 18.2005Q4.13086 19.5139 5.86914 20.2659Q7.60742 21.0178 9.57031 21.0178Q11.5527 21.0178 13.2861 20.2659Q15.0195 19.5139 16.3379 18.2005Q17.6562 16.887 18.4082 15.1487Q19.1602 13.4104 19.1602 11.4378Q19.1602 9.67995 18.5547 8.10768Q17.9492 6.53541 16.875 5.27077Q15.8008 4.00612 14.3701 3.16139Q12.9395 2.31666 11.2598 2.00416L11.2598 0.412367Q11.2598 0.109633 11.0791 0.0266251Q10.8984-0.0563827 10.6348 0.119399L7.69531 2.17018Q7.48047 2.3362 7.48047 2.52174Q7.48047 2.70729 7.69531 2.86354L10.6348 4.91432Q10.8887 5.10963 11.0742 5.02174Q11.2598 4.93385 11.2598 4.64088L11.2598 2.77565Q12.793 3.06862 14.0918 3.84498Q15.3906 4.62135 16.3623 5.78346Q17.334 6.94557 17.8711 8.386Q18.4082 9.82643 18.4082 11.4378Q18.4082 13.2639 17.7197 14.8655Q17.0312 16.4671 15.8203 17.6829Q14.6094 18.8987 13.0078 19.5823Q11.4062 20.2659 9.57031 20.2659Q7.74414 20.2659 6.14746 19.5823Q4.55078 18.8987 3.33496 17.6829Q2.11914 16.4671 1.43066 14.8655Q0.742188 13.2639 0.742188 11.4378Q0.742188 9.8362 1.28418 8.39577Q1.82617 6.95534 2.78809 5.79811Q3.75 4.64088 5.03906 3.8694Q5.17578 3.78151 5.21484 3.63502Q5.25391 3.48854 5.17578 3.35182Q5.10742 3.22487 4.95117 3.19069Q4.79492 3.15651 4.64844 3.25416Q3.25195 4.09401 2.20703 5.34889Q1.16211 6.60377 0.581055 8.15651Q0 9.70924 0 11.4378ZM7.61719 15.344Q7.94922 15.344 7.94922 14.9924L7.94922 13.5569L8.87695 13.5569Q9.01367 13.5569 9.10156 13.4739Q9.18945 13.3909 9.18945 13.2639Q9.18945 13.1272 9.10156 13.0442Q9.01367 12.9612 8.87695 12.9612L7.94922 12.9612L7.94922 8.16627Q7.94922 7.91237 7.80762 7.78541Q7.66602 7.65846 7.43164 7.65846Q7.19727 7.65846 7.04102 7.74635Q6.88477 7.83424 6.73828 8.06862Q6.44531 8.48854 6.04004 9.10377Q5.63477 9.71901 5.20508 10.388Q4.77539 11.0569 4.38477 11.6624Q3.99414 12.2678 3.73047 12.6878Q3.67188 12.7952 3.64258 12.8928Q3.61328 12.9905 3.61328 13.1077Q3.61328 13.3128 3.74512 13.4348Q3.87695 13.5569 4.12109 13.5569L7.30469 13.5569L7.30469 14.9924Q7.30469 15.344 7.61719 15.344ZM4.33594 12.9612L4.33594 12.9221Q5.05859 11.7796 5.78613 10.6419Q6.51367 9.50416 7.24609 8.35182L7.30469 8.35182L7.30469 12.9612ZM12.6562 15.4514Q13.8477 15.4514 14.5801 14.7581Q15.3125 14.0647 15.3125 12.9221Q15.3125 11.8772 14.6387 11.1887Q13.9648 10.5003 12.9004 10.5003Q12.373 10.5003 11.875 10.7346Q11.377 10.969 11.1133 11.3792L11.084 11.3792L11.3184 8.44948L14.7559 8.44948Q14.8926 8.44948 14.9805 8.36159Q15.0684 8.2737 15.0684 8.14674Q15.0684 8.01002 14.9805 7.9319Q14.8926 7.85377 14.7559 7.85377L11.1914 7.85377Q10.7324 7.85377 10.7031 8.31276L10.459 11.6526Q10.4395 11.8479 10.5371 11.9553Q10.6348 12.0628 10.8203 12.0628Q10.9473 12.0628 11.0254 12.0237Q11.1035 11.9846 11.2207 11.887Q11.6113 11.4573 11.9873 11.2766Q12.3633 11.096 12.8223 11.096Q13.623 11.096 14.1357 11.6087Q14.6484 12.1214 14.6484 12.9417Q14.6484 13.7717 14.0918 14.3137Q13.5352 14.8557 12.7051 14.8557Q12.0801 14.8557 11.5771 14.5188Q11.0742 14.1819 10.9277 13.6741Q10.8789 13.5471 10.8008 13.4788Q10.7227 13.4104 10.6055 13.4104Q10.4688 13.4104 10.3906 13.4983Q10.3125 13.5862 10.3125 13.7229Q10.3125 13.7717 10.3174 13.8255Q10.3223 13.8792 10.332 13.9378Q10.5078 14.5823 11.1621 15.0169Q11.8164 15.4514 12.6562 15.4514Z" fill="rgba(0,0,0,0.85)"/>
 </g>
</svg>
