<?xml version="1.0" encoding="UTF-8"?>
<!--Generator: Apple Native CoreSVG 175-->
<!DOCTYPE svg
PUBLIC "-//W3C//DTD SVG 1.1//EN"
       "http://www.w3.org/Graphics/SVG/1.1/DTD/svg11.dtd">
<svg version="1.1" xmlns="http://www.w3.org/2000/svg" xmlns:xlink="http://www.w3.org/1999/xlink" width="19.1602" height="22.8202">
 <g>
  <rect height="22.8202" opacity="0" width="19.1602" x="0" y="0"/>
  <path d="M0 11.4247Q0 13.3974 0.74707 15.1357Q1.49414 16.874 2.8125 18.1874Q4.13086 19.5009 5.86914 20.2529Q7.60742 21.0048 9.57031 21.0048Q11.5527 21.0048 13.2861 20.2529Q15.0195 19.5009 16.3379 18.1874Q17.6562 16.874 18.4082 15.1357Q19.1602 13.3974 19.1602 11.4247Q19.1602 9.69622 18.5742 8.14348Q17.9883 6.59075 16.9434 5.33587Q15.8984 4.08098 14.5117 3.24114Q14.3555 3.14348 14.2041 3.17766Q14.0527 3.21184 13.9746 3.3388Q13.8965 3.47552 13.9355 3.622Q13.9746 3.76848 14.1113 3.85638Q15.4004 4.62786 16.3672 5.78509Q17.334 6.94231 17.8711 8.38274Q18.4082 9.82317 18.4082 11.4247Q18.4082 13.2509 17.7246 14.8525Q17.041 16.454 15.8252 17.6699Q14.6094 18.8857 13.0078 19.5693Q11.4062 20.2529 9.57031 20.2529Q7.74414 20.2529 6.14746 19.5693Q4.55078 18.8857 3.33496 17.6699Q2.11914 16.454 1.43555 14.8525Q0.751953 13.2509 0.751953 11.4247Q0.751953 9.80364 1.28906 8.36809Q1.82617 6.93255 2.79785 5.77044Q3.76953 4.60833 5.07324 3.83196Q6.37695 3.05559 7.90039 2.76263L7.90039 4.63763Q7.90039 4.93059 8.08594 5.0136Q8.27148 5.09661 8.52539 4.91106L11.4648 2.86028Q11.6797 2.7138 11.6797 2.52337Q11.6797 2.33294 11.4648 2.17669L8.53516 0.125907Q8.26172-0.0596401 8.08105 0.0282506Q7.90039 0.116141 7.90039 0.40911L7.90039 1.99114Q6.2207 2.29388 4.78516 3.1386Q3.34961 3.98333 2.27539 5.24798Q1.20117 6.51263 0.600586 8.08977Q0 9.66692 0 11.4247ZM6.45508 15.4384Q7.62695 15.4384 8.33984 14.7402Q9.05273 14.0419 9.05273 12.9091Q9.05273 11.8544 8.36914 11.1757Q7.68555 10.497 6.65039 10.497Q5.75195 10.497 5.17578 10.912Q4.59961 11.3271 4.38477 11.9325L4.42383 11.9618Q4.41406 11.8642 4.40918 11.83Q4.4043 11.7958 4.4043 11.7665Q4.4043 10.1454 4.99023 9.22259Q5.57617 8.29973 6.63086 8.29973Q7.26562 8.29973 7.6123 8.54388Q7.95898 8.78802 8.1543 9.18841Q8.28125 9.43255 8.50586 9.43255Q8.63281 9.43255 8.70117 9.34954Q8.76953 9.26653 8.76953 9.12981Q8.76953 9.07122 8.75488 9.02239Q8.74023 8.97356 8.7207 8.92473Q8.63281 8.50481 8.10547 8.09954Q7.57812 7.69427 6.65039 7.69427Q5.27344 7.69427 4.5166 8.76848Q3.75977 9.8427 3.75977 11.7958Q3.75977 12.5478 3.88184 13.1581Q4.00391 13.7685 4.21875 14.1689Q4.55078 14.7841 5.13672 15.1113Q5.72266 15.4384 6.45508 15.4384ZM6.45508 14.8427Q5.625 14.8427 5.07812 14.3056Q4.53125 13.7685 4.53125 12.9384Q4.53125 12.1376 5.08301 11.6054Q5.63477 11.0732 6.46484 11.0732Q7.30469 11.0732 7.8418 11.5908Q8.37891 12.1083 8.37891 12.9384Q8.37891 13.8075 7.84668 14.3251Q7.31445 14.8427 6.45508 14.8427ZM13.1055 15.4384Q13.8965 15.4384 14.4971 14.955Q15.0977 14.4716 15.4297 13.5976Q15.7617 12.7236 15.7617 11.5517Q15.7617 10.3798 15.4297 9.50579Q15.0977 8.63177 14.4971 8.14837Q13.8965 7.66497 13.1055 7.66497Q11.9141 7.66497 11.1816 8.73431Q10.4492 9.80364 10.4492 11.5517Q10.4492 13.3095 11.1816 14.374Q11.9141 15.4384 13.1055 15.4384ZM13.1055 14.8134Q12.207 14.8134 11.6602 13.915Q11.1133 13.0165 11.1133 11.5517Q11.1133 10.0771 11.6602 9.17864Q12.207 8.2802 13.1055 8.2802Q13.9941 8.2802 14.5459 9.17864Q15.0977 10.0771 15.0977 11.5517Q15.0977 13.0165 14.5459 13.915Q13.9941 14.8134 13.1055 14.8134Z" fill="rgba(0,0,0,0.85)"/>
 </g>
</svg>
