<?xml version="1.0" encoding="UTF-8"?>
<!--Generator: Apple Native CoreSVG 175-->
<!DOCTYPE svg
PUBLIC "-//W3C//DTD SVG 1.1//EN"
       "http://www.w3.org/Graphics/SVG/1.1/DTD/svg11.dtd">
<svg version="1.1" xmlns="http://www.w3.org/2000/svg" xmlns:xlink="http://www.w3.org/1999/xlink" width="19.1602" height="19.1504">
 <g>
  <rect height="19.1504" opacity="0" width="19.1602" x="0" y="0"/>
  <path d="M9.57031 19.1406Q11.5527 19.1406 13.2861 18.3984Q15.0195 17.6562 16.3379 16.333Q17.6562 15.0098 18.4082 13.2764Q19.1602 11.543 19.1602 9.57031Q19.1602 7.59766 18.4082 5.86426Q17.6562 4.13086 16.3379 2.80762Q15.0195 1.48438 13.2861 0.742188Q11.5527 0 9.57031 0Q7.59766 0 5.86426 0.742188Q4.13086 1.48438 2.81738 2.80762Q1.50391 4.13086 0.751953 5.86426Q0 7.59766 0 9.57031Q0 11.543 0.74707 13.2764Q1.49414 15.0098 2.8125 16.333Q4.13086 17.6562 5.86914 18.3984Q7.60742 19.1406 9.57031 19.1406ZM9.57031 18.3984Q7.74414 18.3984 6.14746 17.71Q4.55078 17.0215 3.33496 15.8105Q2.11914 14.5996 1.43555 12.998Q0.751953 11.3965 0.751953 9.57031Q0.751953 7.74414 1.43555 6.14258Q2.11914 4.54102 3.33496 3.3252Q4.55078 2.10938 6.14746 1.4209Q7.74414 0.732422 9.57031 0.732422Q11.4062 0.732422 13.0029 1.4209Q14.5996 2.10938 15.8154 3.3252Q17.0312 4.54102 17.7197 6.14258Q18.4082 7.74414 18.4082 9.57031Q18.4082 11.3965 17.7246 12.998Q17.041 14.5996 15.8252 15.8105Q14.6094 17.0215 13.0078 17.71Q11.4062 18.3984 9.57031 18.3984ZM15.7715 7.4707L10.8301 5.20508Q10.4492 5.03906 10.1514 4.96582Q9.85352 4.89258 9.57031 4.90234Q9.29688 4.89258 8.99414 4.96582Q8.69141 5.03906 8.32031 5.20508L3.36914 7.4707Q3.05664 7.61719 3.05664 7.94922Q3.05664 8.26172 3.36914 8.4082L5.79102 9.52148L8.57422 8.13477Q8.50586 8.04688 8.50586 7.93945Q8.50586 7.70508 8.83301 7.53906Q9.16016 7.37305 9.58008 7.37305Q10 7.37305 10.3174 7.53906Q10.6348 7.70508 10.6348 7.93945Q10.6348 8.18359 10.3174 8.34473Q10 8.50586 9.58008 8.50586Q9.25781 8.50586 9.05273 8.42773L6.38672 9.79492L8.32031 10.6836Q8.70117 10.8594 8.99902 10.9277Q9.29688 10.9961 9.57031 10.9961Q9.85352 10.9961 10.1514 10.9277Q10.4492 10.8594 10.8301 10.6836L15.7715 8.4082Q16.0938 8.26172 16.0938 7.94922Q16.0938 7.61719 15.7715 7.4707ZM9.57031 13.9258Q10.9668 13.9258 11.9531 13.5547Q12.9395 13.1836 13.4521 12.6465Q13.9648 12.1094 13.9648 11.6113L13.9648 9.82422L11.0254 11.1719Q10.625 11.3477 10.2686 11.4355Q9.91211 11.5234 9.57031 11.5137Q9.23828 11.5234 8.88184 11.4355Q8.52539 11.3477 8.125 11.1719L6.35742 10.3711L6.35742 13.1543Q6.92383 13.4863 7.73438 13.7061Q8.54492 13.9258 9.57031 13.9258ZM5.16602 9.82422L5.16602 11.6113Q5.16602 12.168 5.83008 12.7637L5.83008 10.1172ZM5.83008 14.0527L6.35742 14.0527L6.35742 13.1543Q6.07422 12.9883 5.83008 12.7637ZM5.56641 13.916L5.56641 15.0977Q5.56641 15.3223 5.68848 15.4492Q5.81055 15.5762 6.04492 15.5762L6.15234 15.5762Q6.38672 15.5762 6.51367 15.4492Q6.64062 15.3223 6.64062 15.0977L6.64062 13.916Q6.64062 13.6914 6.51367 13.5645Q6.38672 13.4375 6.15234 13.4375L6.04492 13.4375Q5.81055 13.4375 5.68848 13.5645Q5.56641 13.6914 5.56641 13.916Z" fill="rgba(0,0,0,0.85)"/>
 </g>
</svg>
