<?xml version="1.0" encoding="UTF-8"?>
<!--Generator: Apple Native CoreSVG 175-->
<!DOCTYPE svg
PUBLIC "-//W3C//DTD SVG 1.1//EN"
       "http://www.w3.org/Graphics/SVG/1.1/DTD/svg11.dtd">
<svg version="1.1" xmlns="http://www.w3.org/2000/svg" xmlns:xlink="http://www.w3.org/1999/xlink" width="19.1602" height="19.1504">
 <g>
  <rect height="19.1504" opacity="0" width="19.1602" x="0" y="0"/>
  <path d="M9.57031 19.1406Q11.5527 19.1406 13.2861 18.3984Q15.0195 17.6562 16.3379 16.333Q17.6562 15.0098 18.4082 13.2764Q19.1602 11.543 19.1602 9.57031Q19.1602 7.59766 18.4082 5.86426Q17.6562 4.13086 16.3379 2.80762Q15.0195 1.48438 13.2861 0.742188Q11.5527 0 9.57031 0Q7.59766 0 5.86426 0.742188Q4.13086 1.48438 2.81738 2.80762Q1.50391 4.13086 0.751953 5.86426Q0 7.59766 0 9.57031Q0 11.543 0.74707 13.2764Q1.49414 15.0098 2.8125 16.333Q4.13086 17.6562 5.86914 18.3984Q7.60742 19.1406 9.57031 19.1406ZM9.70703 15.0781Q9.58984 15.0781 9.50195 15Q9.41406 14.9219 9.41406 14.7656L9.41406 13.9355Q7.91016 13.8086 7.07031 12.6465Q6.23047 11.4844 6.23047 9.58984Q6.23047 7.74414 7.07031 6.61133Q7.91016 5.47852 9.41406 5.3418L9.41406 4.6582Q9.41406 4.51172 9.49707 4.43359Q9.58008 4.35547 9.70703 4.35547Q9.84375 4.35547 9.93164 4.43359Q10.0195 4.51172 10.0195 4.6582L10.0195 5.33203Q11.0547 5.39062 11.8018 5.98633Q12.5488 6.58203 12.793 7.49023Q12.8223 7.58789 12.8418 7.6709Q12.8613 7.75391 12.8613 7.88086Q12.8613 8.03711 12.7734 8.125Q12.6855 8.21289 12.5488 8.21289Q12.4121 8.21289 12.3291 8.13965Q12.2461 8.06641 12.207 7.90039Q12.0801 7.12891 11.4893 6.58691Q10.8984 6.04492 10.0195 5.97656L10.0195 9.57031L12.5391 9.57031Q12.7148 9.57031 12.8223 9.66797Q12.9297 9.76562 12.9297 9.9707L12.9297 10.5762Q12.9297 12.0996 12.1289 12.9932Q11.3281 13.8867 10.0195 13.9551L10.0195 14.7656Q10.0195 14.9219 9.93164 15Q9.84375 15.0781 9.70703 15.0781ZM9.41406 13.291L9.41406 5.99609Q8.22266 6.13281 7.56836 7.09473Q6.91406 8.05664 6.91406 9.58984Q6.91406 11.1621 7.57812 12.1484Q8.24219 13.1348 9.41406 13.291ZM10.0195 13.3105Q11.0059 13.2422 11.6406 12.5195Q12.2754 11.7969 12.2754 10.6152L12.2754 10.2051L10.0195 10.2051Z" fill="rgba(0,0,0,0.85)"/>
 </g>
</svg>
