<?xml version="1.0" encoding="UTF-8"?>
<!--Generator: Apple Native CoreSVG 175-->
<!DOCTYPE svg
PUBLIC "-//W3C//DTD SVG 1.1//EN"
       "http://www.w3.org/Graphics/SVG/1.1/DTD/svg11.dtd">
<svg version="1.1" xmlns="http://www.w3.org/2000/svg" xmlns:xlink="http://www.w3.org/1999/xlink" width="23.2626" height="22.121">
 <g>
  <rect height="22.121" opacity="0" width="23.2626" x="0" y="0"/>
  <path d="M0.552101 20.0138L2.0966 21.5682Q2.69184 22.1662 3.27953 22.1173Q3.86723 22.0685 4.50443 21.3814L15.0853 9.81936L14.6106 9.32787L4.05872 20.8669Q3.65437 21.3173 3.28388 21.3564Q2.9134 21.3954 2.52659 21.0158L1.10172 19.5865Q0.714913 19.2067 0.755348 18.8362Q0.795784 18.4658 1.24622 18.0588L12.7419 7.4689L12.2504 6.98718L0.728951 17.6158Q0.0500873 18.2431 0.00339537 18.833Q-0.0432965 19.4228 0.552101 20.0138ZM7.09461 2.05248Q6.82423 2.32714 6.79928 2.62637Q6.77433 2.92559 6.9289 3.1412Q7.05555 3.31622 7.29054 3.40724Q7.52552 3.49825 7.831 3.43722Q9.17774 3.20452 10.3711 3.30119Q11.5645 3.39785 12.6528 4.1994L11.9051 5.88641Q11.6935 6.37087 11.7811 6.76791Q11.8688 7.16494 12.213 7.51193L14.5079 9.81936Q14.7638 10.0778 15.0212 10.1329Q15.2787 10.188 15.6704 10.1099L16.9176 9.87246L17.8559 10.8135L17.838 11.3631Q17.8228 11.8044 17.8956 12.0748Q17.9685 12.3451 18.3298 12.6993L19.1196 13.4767Q19.3402 13.6904 19.5717 13.691Q19.8032 13.6916 20.0283 13.4665L23.0368 10.4622Q23.2618 10.2303 23.2626 10.0015Q23.2634 9.77282 23.0497 9.55203L22.2571 8.77627Q21.8915 8.41494 21.6296 8.33231Q21.3677 8.24969 20.936 8.26495L20.3809 8.2857L19.4481 7.35568L19.6642 6.25369Q19.7618 5.78448 19.6462 5.42529Q19.5305 5.06609 19.1544 4.69698L17.0485 2.60088Q15.9533 1.51537 14.63 0.937448Q13.3068 0.359521 11.9323 0.289407Q10.5579 0.219293 9.30141 0.660729Q8.04493 1.10217 7.09461 2.05248ZM7.70283 2.40954Q8.60401 1.56268 9.753 1.22324Q10.902 0.883813 12.1212 0.993371Q13.3403 1.10293 14.4538 1.59976Q15.5672 2.09658 16.3973 2.92239L18.6673 5.19396Q18.9133 5.43292 18.9854 5.66576Q19.0575 5.89861 18.9849 6.2369L18.7117 7.60165L20.0891 8.96655L20.9911 8.91497Q21.2117 8.90521 21.3727 8.96403Q21.5337 9.02285 21.7223 9.20443L22.5165 10.0057L19.5688 12.9462L18.7748 12.1521Q18.586 11.9634 18.5294 11.8025Q18.4728 11.6416 18.4826 11.4182L18.5369 10.5188L17.1692 9.14706L15.7935 9.40798Q15.458 9.47787 15.232 9.40501Q15.006 9.33215 14.7641 9.09304L12.8325 7.16143Q12.5528 6.88723 12.5038 6.62066Q12.4547 6.35409 12.6212 5.97521L13.472 4.01888Q12.3705 3.07986 11.0006 2.75134Q9.63062 2.42281 7.86106 2.78765Q7.67353 2.81695 7.6112 2.68748Q7.54887 2.55801 7.70283 2.40954Z" fill="rgba(0,0,0,0.85)"/>
 </g>
</svg>
