<?xml version="1.0" encoding="UTF-8"?>
<!--Generator: Apple Native CoreSVG 175-->
<!DOCTYPE svg
PUBLIC "-//W3C//DTD SVG 1.1//EN"
       "http://www.w3.org/Graphics/SVG/1.1/DTD/svg11.dtd">
<svg version="1.1" xmlns="http://www.w3.org/2000/svg" xmlns:xlink="http://www.w3.org/1999/xlink" width="17.467" height="17.7681">
 <g>
  <rect height="17.7681" opacity="0" width="17.467" x="0" y="0"/>
  <path d="M15.4707 15.7796Q17.1211 14.1291 17.407 12.0961Q17.693 10.0631 16.616 7.82018L14.25 2.86779Q14.0788 2.50875 13.8156 2.23852Q13.3671 1.79708 12.7773 1.8012Q12.1875 1.80532 11.7375 2.26232Q11.4323 2.56735 11.3537 3.03434Q11.275 3.50134 11.5094 4.04943L12.6768 6.75802Q12.7131 6.84042 12.6671 6.87948Q12.6182 6.93533 12.5499 6.86971L6.22541 0.545098Q5.69013 0.00997196 5.09603 0.000206339Q4.50193-0.00955929 4.04523 0.442864Q3.83039 0.654961 3.72159 0.924279Q3.6128 1.1936 3.63828 1.49786Q3.11704 1.02483 2.52233 0.984627Q1.92762 0.94442 1.45505 1.41698Q0.975317 1.89672 1.00149 2.52233Q1.02765 3.14794 1.48542 3.6495Q0.892157 3.59319 0.44248 4.04546Q-0.00322908 4.49117 0.00928313 5.0807Q0.0217953 5.67022 0.546087 6.19436L1.50037 7.14864Q1.18894 7.11782 0.917639 7.23776Q0.646338 7.35769 0.431494 7.57253Q0.13349 7.87054 0.0401059 8.23614Q-0.0532779 8.60174 0.070776 8.98985Q0.19483 9.37795 0.547613 9.72646L6.30933 15.4882Q7.88541 17.0643 9.51864 17.5317Q11.1519 17.9992 12.6787 17.5198Q14.2055 17.0405 15.4707 15.7796ZM14.9975 15.3187Q13.8472 16.469 12.4802 16.8858Q11.1133 17.3026 9.65032 16.8608Q8.18738 16.419 6.75855 14.9901L1.04291 9.28152Q0.719885 8.95849 0.681967 8.60204Q0.644049 8.2456 0.936255 7.94637Q1.23548 7.65417 1.61573 7.66821Q1.99598 7.68224 2.31626 8.00527L5.70386 11.3901Q5.85416 11.5432 5.99073 11.5391Q6.12729 11.5351 6.21595 11.4463Q6.31009 11.3549 6.31421 11.217Q6.31833 11.0792 6.16514 10.9287L1.01835 5.77917Q0.695318 5.45614 0.6574 5.09969Q0.619482 4.74325 0.911688 4.45379Q1.21091 4.15456 1.59116 4.1686Q1.97141 4.18264 2.29444 4.50292L7.08982 9.30105Q7.23585 9.45135 7.37592 9.44868Q7.516 9.44601 7.60465 9.35461Q7.69605 9.26321 7.69666 9.12527Q7.69727 8.98733 7.55384 8.83688L1.97645 3.26666Q1.65342 2.94363 1.62397 2.54926Q1.59452 2.1549 1.89374 1.85842Q2.16901 1.58025 2.54934 1.62519Q2.92966 1.67013 3.25269 1.99041L8.83008 7.5678Q8.94254 7.68301 9.08254 7.70979Q9.22254 7.73656 9.34217 7.61709Q9.45035 7.5089 9.42846 7.36395Q9.40656 7.21899 9.2941 7.10653L4.49598 2.3084Q4.17295 1.97836 4.1554 1.60299Q4.13785 1.22762 4.43433 0.928398Q4.72654 0.636193 5.08436 0.674111Q5.44217 0.712029 5.7652 1.03231L12.4003 7.66042Q12.5979 7.86077 12.8249 7.84811Q13.0519 7.83544 13.2246 7.66271Q13.3679 7.51943 13.4089 7.32877Q13.45 7.13812 13.3456 6.89092L12.0546 3.82131Q11.8715 3.38384 11.9726 3.03991Q12.0738 2.69598 12.4261 2.5295Q12.7839 2.35342 13.1076 2.52119Q13.4312 2.68896 13.6323 3.11788L16.0246 8.09286Q17.0027 10.1366 16.7334 11.9944Q16.4641 13.8521 14.9975 15.3187Z" fill="rgba(0,0,0,0.85)"/>
 </g>
</svg>
