<?xml version="1.0" encoding="UTF-8"?>
<!--Generator: Apple Native CoreSVG 175-->
<!DOCTYPE svg
PUBLIC "-//W3C//DTD SVG 1.1//EN"
       "http://www.w3.org/Graphics/SVG/1.1/DTD/svg11.dtd">
<svg version="1.1" xmlns="http://www.w3.org/2000/svg" xmlns:xlink="http://www.w3.org/1999/xlink" width="22.1111" height="22.4026">
 <g>
  <rect height="22.4026" opacity="0" width="22.1111" x="0" y="0"/>
  <path d="M1.95358 16.5933L6.29456 16.5933L6.29456 14.4859Q6.21368 14.4957 6.14471 14.4992Q6.07574 14.5027 5.99487 14.5027Q5.00748 14.5027 4.19708 14.0236Q3.38669 13.5445 2.90627 12.7341Q2.42584 11.9238 2.42584 10.9265Q2.42584 9.94598 2.90627 9.14055Q3.38669 8.33511 4.19708 7.85599Q5.00748 7.37686 5.99487 7.37411Q6.09253 7.37411 6.19019 7.38388Q6.28784 7.39365 6.44455 7.41043Q6.52847 6.96793 6.66367 6.56868Q6.79886 6.16943 6.98792 5.80658Q6.54175 6.05743 5.99762 6.05743Q5.11169 6.05743 4.48318 5.43297Q3.85468 4.8085 3.85468 3.91983Q3.85742 3.04092 4.48456 2.4173Q5.11169 1.79367 5.99762 1.79367Q6.55502 1.79367 7.02087 2.06009Q7.48672 2.32651 7.77344 2.77397Q8.06015 3.22144 8.08868 3.77213Q8.09418 3.99094 8.04489 4.24606Q8.73398 3.50967 9.71016 3.02879Q10.6863 2.54791 11.9601 2.3378L11.9601 1.76239Q11.8747 0 10.0363 0L1.95358 0Q0.992126 0 0.496063 0.493927Q0 0.987854 0 1.9519L0 14.6317Q0 15.6082 0.499649 16.1008Q0.999298 16.5933 1.95358 16.5933ZM5.99487 5.42847Q6.62964 5.42847 7.07008 4.98665Q7.51053 4.54483 7.51053 3.91983Q7.51053 3.29926 7.07008 2.86018Q6.62964 2.42111 5.99487 2.42111Q5.36987 2.42111 4.92813 2.86018Q4.48639 3.29926 4.48639 3.91983Q4.48639 4.54483 4.92813 4.98665Q5.36987 5.42847 5.99487 5.42847ZM5.99487 12.6859Q6.07574 12.6859 6.1496 12.6761Q6.22345 12.6663 6.29456 12.6608L6.29456 9.21326Q6.22345 9.20349 6.1496 9.19373Q6.07574 9.18396 5.99487 9.18396Q5.25894 9.18396 4.74861 9.68941Q4.23828 10.1949 4.23828 10.9265Q4.23828 11.6652 4.74861 12.1755Q5.25894 12.6859 5.99487 12.6859ZM14.6364 5.87418Q15.8891 5.87418 16.9743 5.70465Q18.0594 5.53513 18.7247 5.21675Q19.39 4.89838 19.39 4.46243Q19.39 4.01672 18.7247 3.70186Q18.0594 3.38699 16.9743 3.21396Q15.8891 3.04092 14.6364 3.04092Q13.3864 3.04092 12.3013 3.21396Q11.2161 3.38699 10.5508 3.70186Q9.88556 4.01672 9.88556 4.46243Q9.88556 4.89838 10.5508 5.21675Q11.2161 5.53513 12.3013 5.70465Q13.3864 5.87418 14.6364 5.87418ZM14.6364 22.2769Q18.5387 22.2769 20.3249 20.8763Q22.1111 19.4757 22.1111 16.387L22.1111 8.95538Q22.1111 7.96005 21.8921 7.23602Q21.6731 6.51199 21.363 6.01807Q21.0529 5.52414 20.7672 5.23941Q20.6055 5.08514 20.4149 5.10208Q20.2243 5.11902 20.0798 5.2948Q19.6884 5.79636 18.9067 6.11496Q18.125 6.43356 17.0381 6.59081Q15.9512 6.74805 14.6364 6.74805Q13.3243 6.74805 12.2374 6.59081Q11.1505 6.43356 10.3688 6.11496Q9.5871 5.79636 9.19571 5.2948Q9.05121 5.11902 8.86055 5.10208Q8.66989 5.08514 8.5083 5.23941Q8.22266 5.52414 7.91252 6.01807Q7.60239 6.51199 7.38342 7.23602Q7.16446 7.96005 7.16446 8.95538L7.16446 16.387Q7.16446 19.4757 8.95058 20.8763Q10.7367 22.2769 14.6364 22.2769Z" fill="rgba(0,0,0,0.85)"/>
 </g>
</svg>
