<?xml version="1.0" encoding="UTF-8"?>
<!--Generator: Apple Native CoreSVG 175-->
<!DOCTYPE svg
PUBLIC "-//W3C//DTD SVG 1.1//EN"
       "http://www.w3.org/Graphics/SVG/1.1/DTD/svg11.dtd">
<svg version="1.1" xmlns="http://www.w3.org/2000/svg" xmlns:xlink="http://www.w3.org/1999/xlink" width="13.9583" height="19.2825">
 <g>
  <rect height="19.2825" opacity="0" width="13.9583" x="0" y="0"/>
  <path d="M0 2.32346L0 16.9563Q0 18.0969 0.586548 18.6884Q1.1731 19.2798 2.3082 19.2798L11.6528 19.2798Q12.7879 19.2798 13.3731 18.6884Q13.9583 18.0969 13.9583 16.9563L13.9583 2.32346Q13.9583 1.17584 13.3766 0.587921Q12.795 0 11.6528 0L2.3082 0Q1.16333 0 0.581665 0.587921Q0 1.17584 0 2.32346ZM6.97693 16.7783Q5.84839 16.7783 4.92287 16.2314Q3.99734 15.6845 3.45261 14.7589Q2.90787 13.8333 2.90787 12.6978Q2.90787 11.5594 3.45261 10.6339Q3.99734 9.70825 4.92287 9.16Q5.84839 8.61176 6.97693 8.62152Q8.10974 8.62152 9.03183 9.16626Q9.95392 9.711 10.5035 10.6352Q11.0532 11.5594 11.0532 12.6978Q11.0532 13.8333 10.5035 14.7589Q9.95392 15.6845 9.03183 16.2314Q8.10974 16.7783 6.97693 16.7783ZM6.97693 6.73874Q6.39145 6.73874 5.90904 6.45927Q5.42664 6.17981 5.14008 5.69733Q4.85352 5.21484 4.85352 4.62936Q4.85352 4.04373 5.14008 3.56133Q5.42664 3.07892 5.90904 2.80083Q6.39145 2.52274 6.97693 2.52274Q7.56958 2.5325 8.05061 2.8141Q8.53165 3.0957 8.81821 3.56972Q9.10477 4.04373 9.10751 4.62936Q9.11026 5.21484 8.82019 5.69382Q8.53012 6.17279 8.04848 6.45576Q7.56683 6.73874 6.97693 6.73874ZM6.97693 14.7032Q7.82196 14.7032 8.40569 14.1167Q8.98941 13.5301 8.98941 12.6978Q8.98941 11.8332 8.40569 11.2565Q7.82196 10.6798 6.97693 10.6798Q6.13632 10.6798 5.55389 11.2565Q4.97147 11.8332 4.97147 12.6978Q4.97147 13.5301 5.56366 14.1167Q6.15585 14.7032 6.97693 14.7032ZM6.97693 6.12198Q7.59613 6.12198 8.03635 5.68169Q8.47656 5.24139 8.47656 4.62936Q8.47656 4.01459 8.03284 3.57918Q7.58911 3.14377 6.97693 3.14377Q6.35513 3.14377 5.9198 3.56941Q5.48447 3.99506 5.48447 4.62936Q5.48447 5.24139 5.92331 5.68169Q6.36215 6.12198 6.97693 6.12198Z" fill="rgba(0,0,0,0.85)"/>
 </g>
</svg>
