<?xml version="1.0" encoding="UTF-8"?>
<!--Generator: Apple Native CoreSVG 175-->
<!DOCTYPE svg
PUBLIC "-//W3C//DTD SVG 1.1//EN"
       "http://www.w3.org/Graphics/SVG/1.1/DTD/svg11.dtd">
<svg version="1.1" xmlns="http://www.w3.org/2000/svg" xmlns:xlink="http://www.w3.org/1999/xlink" width="20.2414" height="21.7299">
 <g>
  <rect height="21.7299" opacity="0" width="20.2414" x="0" y="0"/>
  <path d="M4.72885 15.6945L8.11874 14.4831Q8.2692 14.4358 8.34007 14.3858Q8.41095 14.3359 8.50708 14.2355L17.9442 5.04951Q18.5011 4.49943 18.5033 3.8819Q18.5054 3.26438 17.9527 2.68775L15.916 0.589363Q15.3606 0.022499 14.7311 0.000831563Q14.1016-0.0208359 13.5445 0.522072L4.09058 9.701Q3.99017 9.79438 3.93806 9.86526Q3.88596 9.93613 3.83591 10.0768L2.53204 13.4455Q2.42493 13.7154 2.45132 13.9299Q2.47772 14.1444 2.68356 14.3503L3.82416 15.5218Q4.02023 15.7249 4.2382 15.7597Q4.45618 15.7944 4.72885 15.6945ZM4.62463 14.9894Q4.47113 15.0452 4.38553 15.0249Q4.29993 15.0045 4.20547 14.91L3.31635 13.9928Q3.21487 13.8869 3.19809 13.7965Q3.1813 13.7061 3.2399 13.5554L4.52103 10.2706L14.0387 1.02531Q14.359 0.731575 14.7023 0.725319Q15.0456 0.719063 15.3465 1.01981L17.5055 3.24058Q18.1293 3.9022 17.448 4.54826L7.94449 13.7936ZM1.70074 16.1265L2.56607 16.1265Q2.72888 16.1265 2.80525 16.0952Q2.88162 16.0639 2.98157 15.9933L3.98392 15.2761L2.92221 14.2835L1.52298 15.6652Q1.37848 15.8152 1.43471 15.9708Q1.49094 16.1265 1.70074 16.1265ZM4.1597 10.2846L7.94998 14.1788L8.42499 13.7206L4.64172 9.82368ZM12.5957 2.107L16.3789 6.00105L16.861 5.53855L13.0637 1.64161ZM0.359344 19.2542L19.8793 19.2542Q20.0258 19.2542 20.1336 19.1464Q20.2414 19.0386 20.2414 18.8921Q20.2414 18.7386 20.1336 18.6356Q20.0258 18.5326 19.8793 18.5326L0.359344 18.5326Q0.21286 18.5326 0.10643 18.6356Q0 18.7386 0 18.8921Q0 19.0386 0.10643 19.1464Q0.21286 19.2542 0.359344 19.2542Z" fill="rgba(0,0,0,0.85)"/>
 </g>
</svg>
