<?xml version="1.0" encoding="UTF-8"?>
<!--Generator: Apple Native CoreSVG 175-->
<!DOCTYPE svg
PUBLIC "-//W3C//DTD SVG 1.1//EN"
       "http://www.w3.org/Graphics/SVG/1.1/DTD/svg11.dtd">
<svg version="1.1" xmlns="http://www.w3.org/2000/svg" xmlns:xlink="http://www.w3.org/1999/xlink" width="19.1602" height="19.1504">
 <g>
  <rect height="19.1504" opacity="0" width="19.1602" x="0" y="0"/>
  <path d="M9.57031 19.1406Q11.5527 19.1406 13.2861 18.3984Q15.0195 17.6562 16.3379 16.333Q17.6562 15.0098 18.4082 13.2764Q19.1602 11.543 19.1602 9.57031Q19.1602 7.59766 18.4082 5.86426Q17.6562 4.13086 16.3379 2.80762Q15.0195 1.48438 13.2861 0.742188Q11.5527 0 9.57031 0Q7.59766 0 5.86426 0.742188Q4.13086 1.48438 2.81738 2.80762Q1.50391 4.13086 0.751953 5.86426Q0 7.59766 0 9.57031Q0 11.543 0.74707 13.2764Q1.49414 15.0098 2.8125 16.333Q4.13086 17.6562 5.86914 18.3984Q7.60742 19.1406 9.57031 19.1406ZM6.23047 10.2441Q6.23047 10.127 6.31836 10.0439Q6.40625 9.96094 6.55273 9.96094L12.5977 9.96094Q12.7441 9.96094 12.8271 10.0439Q12.9102 10.127 12.9102 10.2441Q12.9102 10.5469 12.5977 10.5469L8.08594 10.5469Q7.8125 10.7227 7.69531 10.9863Q7.57812 11.25 7.57812 11.5234Q7.57812 12.2363 8.14453 12.666Q8.71094 13.0957 9.61914 13.0957Q10.3809 13.0957 10.9277 12.71Q11.4746 12.3242 11.6211 11.6992Q11.6602 11.5723 11.748 11.5088Q11.8359 11.4453 11.9434 11.4453Q12.1094 11.4453 12.1973 11.5527Q12.2852 11.6602 12.2559 11.8262Q12.2363 12.002 12.1484 12.1973Q11.9043 12.8906 11.2109 13.3057Q10.5176 13.7207 9.60938 13.7207Q8.78906 13.7207 8.17871 13.4375Q7.56836 13.1543 7.23145 12.6611Q6.89453 12.168 6.89453 11.543Q6.89453 11.3086 6.97754 11.0449Q7.06055 10.7812 7.22656 10.5469L6.55273 10.5469Q6.40625 10.5469 6.31836 10.4639Q6.23047 10.3809 6.23047 10.2441ZM6.24023 8.68164Q6.24023 8.37891 6.55273 8.37891L11.0742 8.37891Q11.3379 8.20312 11.46 7.94434Q11.582 7.68555 11.582 7.40234Q11.582 6.68945 11.0107 6.26465Q10.4395 5.83984 9.54102 5.83984Q8.76953 5.83984 8.23242 6.22559Q7.69531 6.61133 7.5293 7.23633Q7.5 7.36328 7.41211 7.42188Q7.32422 7.48047 7.2168 7.48047Q7.05078 7.48047 6.96289 7.37305Q6.875 7.26562 6.9043 7.09961Q6.92383 6.92383 7.01172 6.72852Q7.28516 6.04492 7.95898 5.625Q8.63281 5.20508 9.55078 5.20508Q10.3613 5.20508 10.9717 5.49316Q11.582 5.78125 11.9238 6.26953Q12.2656 6.75781 12.2656 7.39258Q12.2656 7.62695 12.1777 7.89062Q12.0898 8.1543 11.9336 8.37891L12.6074 8.37891Q12.7539 8.37891 12.8369 8.46191Q12.9199 8.54492 12.9199 8.68164Q12.9199 8.79883 12.8369 8.88672Q12.7539 8.97461 12.6074 8.97461L6.55273 8.97461Q6.40625 8.97461 6.32324 8.88672Q6.24023 8.79883 6.24023 8.68164Z" fill="rgba(0,0,0,0.85)"/>
 </g>
</svg>
