<?xml version="1.0" encoding="UTF-8"?>
<!--Generator: Apple Native CoreSVG 175-->
<!DOCTYPE svg
PUBLIC "-//W3C//DTD SVG 1.1//EN"
       "http://www.w3.org/Graphics/SVG/1.1/DTD/svg11.dtd">
<svg version="1.1" xmlns="http://www.w3.org/2000/svg" xmlns:xlink="http://www.w3.org/1999/xlink" width="20.501" height="18.4082">
 <g>
  <rect height="18.4082" opacity="0" width="20.501" x="0" y="0"/>
  <path d="M16.3709 18.4082Q17.5218 18.4082 18.4591 17.8691Q19.3964 17.33 19.9487 16.4185Q20.501 15.507 20.501 14.3828Q20.501 13.4355 20.1153 12.5168Q19.7295 11.5981 19.3011 10.7968L16.9969 6.51215Q16.8842 6.28555 16.736 6.18828Q16.5878 6.091 16.3709 6.091Q16.1515 6.091 16.0068 6.18477Q15.8621 6.27853 15.7424 6.49811L13.4507 10.7968Q13.0125 11.5981 12.628 12.5168Q12.2436 13.4355 12.2436 14.3828Q12.2436 15.507 12.7995 16.4185Q13.3553 17.33 14.2913 17.8691Q15.2273 18.4082 16.3709 18.4082ZM16.3709 17.7449Q15.4128 17.7449 14.6243 17.2937Q13.8358 16.8425 13.3749 16.0834Q12.9141 15.3242 12.9141 14.3828Q12.9141 13.5477 13.2617 12.7245Q13.6092 11.9012 14.0308 11.114L16.2479 6.98563Q16.287 6.90048 16.3738 6.90048Q16.4605 6.90048 16.4996 6.98563L18.7084 11.114Q19.13 11.9012 19.4839 12.7245Q19.8377 13.5477 19.8377 14.3828Q19.8377 15.3242 19.372 16.0834Q18.9062 16.8425 18.1226 17.2937Q17.339 17.7449 16.3709 17.7449ZM3.62603 6.17691Q4.84048 6.17691 5.90051 5.80582Q6.96054 5.43472 7.94953 4.88434Q8.93853 4.33395 9.93058 3.78571Q10.9226 3.23746 11.9843 2.86636Q13.046 2.49527 14.2625 2.49527Q15.1229 2.49527 15.8566 2.69569Q16.5902 2.89612 17.3324 3.31879Q17.4902 3.40317 17.6195 3.36449Q17.7488 3.32581 17.8207 3.22342Q17.9051 3.10043 17.8808 2.94357Q17.8565 2.78671 17.6925 2.69028Q16.8581 2.20474 16.0361 1.98578Q15.214 1.76682 14.2625 1.76682Q12.9554 1.76682 11.8456 2.13791Q10.7359 2.509 9.73489 3.06076Q8.73391 3.61252 7.76925 4.15939Q6.80459 4.70627 5.78782 5.08087Q4.77105 5.45547 3.62603 5.45547Q2.76284 5.45547 2.0292 5.25505Q1.29556 5.05463 0.55337 4.63196Q0.388575 4.54056 0.262766 4.57924Q0.136958 4.61792 0.0650886 4.73007Q-0.0165459 4.84604 0.00420606 5.0029Q0.024958 5.15976 0.193262 5.2536Q1.03036 5.73914 1.85105 5.95802Q2.67175 6.17691 3.62603 6.17691ZM3.6358 11.414Q4.82614 11.414 5.86442 11.0572Q6.9027 10.7004 7.87416 10.1698Q8.84561 9.63913 9.81103 9.09752Q10.7765 8.55591 11.8196 8.17383Q12.8628 7.79175 14.0542 7.75665Q14.1522 7.57309 14.2529 7.38731Q14.3537 7.20154 14.4518 7.01096Q12.9842 7.02728 11.8194 7.40036Q10.6545 7.77344 9.66455 8.32108Q8.67456 8.86871 7.73919 9.4101Q6.80383 9.95148 5.81063 10.322Q4.81744 10.6926 3.6358 10.6926Q2.77963 10.6926 2.04385 10.4908Q1.30807 10.289 0.563136 9.86633Q0.40536 9.77493 0.276041 9.81361Q0.146723 9.85229 0.0776008 9.96445Q-0.00678027 10.0874 0.0174812 10.2408Q0.0417427 10.3941 0.203028 10.488Q1.04714 10.9735 1.8657 11.1938Q2.68426 11.414 3.6358 11.414ZM3.62603 16.6554Q4.7648 16.6554 5.7689 16.3195Q6.773 15.9836 7.7089 15.4809Q8.6448 14.9782 9.57253 14.4505Q10.5003 13.9227 11.4819 13.5434Q11.4991 13.3546 11.5421 13.1303Q11.585 12.9059 11.6486 12.6941Q10.5737 13.0566 9.60282 13.5975Q8.63198 14.1383 7.68571 14.6731Q6.73944 15.2078 5.74372 15.5674Q4.74801 15.927 3.62603 15.927Q2.76284 15.927 2.0292 15.7252Q1.29556 15.5234 0.55337 15.1007Q0.388575 15.0093 0.262766 15.0515Q0.136958 15.0937 0.0650886 15.1988Q-0.0165459 15.3218 0.00420606 15.4752Q0.024958 15.6285 0.193262 15.7224Q1.03036 16.2079 1.85105 16.4317Q2.67175 16.6554 3.62603 16.6554Z" fill="rgba(0,0,0,0.85)"/>
 </g>
</svg>
