<?xml version="1.0" encoding="UTF-8"?>
<!--Generator: Apple Native CoreSVG 175-->
<!DOCTYPE svg
PUBLIC "-//W3C//DTD SVG 1.1//EN"
       "http://www.w3.org/Graphics/SVG/1.1/DTD/svg11.dtd">
<svg version="1.1" xmlns="http://www.w3.org/2000/svg" xmlns:xlink="http://www.w3.org/1999/xlink" width="23.2031" height="21.416">
 <g>
  <rect height="21.416" opacity="0" width="23.2031" x="0" y="0"/>
  <path d="M0 12.2559Q0 13.4473 0.551758 14.3994Q1.10352 15.3516 2.13867 15.9082Q3.17383 16.4648 4.62891 16.4648L11.123 16.4648L11.123 21.0645Q11.123 21.2109 11.2305 21.3135Q11.3379 21.416 11.4844 21.416Q11.6309 21.416 11.7383 21.3135Q11.8457 21.2109 11.8457 21.0645L11.8457 16.4648L19.0918 16.4648Q20.3809 16.4648 21.2988 15.9717Q22.2168 15.4785 22.71 14.624Q23.2031 13.7695 23.2031 12.6953Q23.2031 11.3672 22.4414 10.2783Q21.6797 9.18945 20.2148 8.74023Q20.2734 7.1875 19.7949 5.87402Q19.3164 4.56055 18.4229 3.58398Q17.5293 2.60742 16.3232 2.06543Q15.1172 1.52344 13.7109 1.52344Q12.373 1.52344 11.333 1.97266Q10.293 2.42188 9.53125 3.16895Q8.76953 3.91602 8.28125 4.81445Q7.46094 4.55078 6.61133 4.69238Q5.76172 4.83398 5.04883 5.31738Q4.33594 5.80078 3.90625 6.56738Q3.47656 7.33398 3.49609 8.32031Q2.45117 8.39844 1.66504 8.92578Q0.878906 9.45312 0.439453 10.3174Q0 11.1816 0 12.2559ZM11.123 16.3672L11.123 10.7812L11.1426 9.42383L10.5859 9.99023L8.08594 12.5098Q7.96875 12.627 7.82227 12.627Q7.68555 12.627 7.59277 12.5293Q7.5 12.4316 7.5 12.2949Q7.5 12.168 7.60742 12.0605L11.2207 8.4668Q11.2891 8.4082 11.3477 8.37891Q11.4062 8.34961 11.4844 8.34961Q11.5527 8.34961 11.6113 8.37891Q11.6699 8.4082 11.7383 8.4668L15.3418 12.0605Q15.459 12.168 15.459 12.2949Q15.459 12.4316 15.3564 12.5293Q15.2539 12.627 15.127 12.627Q14.9805 12.627 14.8633 12.5098L12.373 9.99023L11.8262 9.43359L11.8457 10.7812L11.8457 16.3672Q11.8457 16.5137 11.7334 16.6016Q11.6211 16.6895 11.4844 16.6895Q11.3477 16.6895 11.2354 16.6016Q11.123 16.5137 11.123 16.3672Z" fill="rgba(0,0,0,0.85)"/>
 </g>
</svg>
