<?xml version="1.0" encoding="UTF-8"?>
<!--Generator: Apple Native CoreSVG 175-->
<!DOCTYPE svg
PUBLIC "-//W3C//DTD SVG 1.1//EN"
       "http://www.w3.org/Graphics/SVG/1.1/DTD/svg11.dtd">
<svg version="1.1" xmlns="http://www.w3.org/2000/svg" xmlns:xlink="http://www.w3.org/1999/xlink" width="22.0605" height="15.7129">
 <g>
  <rect height="15.7129" opacity="0" width="22.0605" x="0" y="0"/>
  <path d="M0 11.9336Q0 12.9785 0.512695 13.8379Q1.02539 14.6973 1.89453 15.2051Q2.76367 15.7129 3.82812 15.7129L18.2324 15.7129Q19.2969 15.7129 20.166 15.2051Q21.0352 14.6973 21.5479 13.8379Q22.0605 12.9785 22.0605 11.9336Q22.0605 11.4453 21.9238 11.001Q21.7871 10.5566 21.6113 10.1465L17.8711 1.93359Q17.4512 0.996094 16.6992 0.517578Q15.9473 0.0390625 14.9316 0.0390625L7.12891 0.0390625Q6.10352 0.0390625 5.35645 0.517578Q4.60938 0.996094 4.18945 1.93359L0.429688 10.1465Q0.253906 10.5469 0.126953 10.9961Q0 11.4453 0 11.9336ZM0.732422 11.9336Q0.732422 11.084 1.1377 10.3906Q1.54297 9.69727 2.25098 9.28711Q2.95898 8.87695 3.82812 8.87695L18.2324 8.87695Q19.1016 8.87695 19.8047 9.28711Q20.5078 9.69727 20.918 10.3906Q21.3281 11.084 21.3281 11.9336Q21.3281 12.793 20.918 13.4863Q20.5078 14.1797 19.8047 14.585Q19.1016 14.9902 18.2324 14.9902L3.82812 14.9902Q2.95898 14.9902 2.25098 14.5752Q1.54297 14.1602 1.1377 13.4668Q0.732422 12.7734 0.732422 11.9336ZM1.9043 8.70117L4.88281 2.14844Q5.19531 1.43555 5.74707 1.06934Q6.29883 0.703125 7.05078 0.703125L15.0098 0.703125Q15.752 0.703125 16.3037 1.06934Q16.8555 1.43555 17.1777 2.14844L20.1367 8.69141Q19.7266 8.4375 19.2432 8.29102Q18.7598 8.14453 18.2324 8.14453L3.82812 8.14453Q3.30078 8.14453 2.80762 8.29102Q2.31445 8.4375 1.9043 8.70117ZM8.37891 12.9102Q8.37891 13.0859 8.49609 13.2031Q8.61328 13.3203 8.78906 13.3203Q8.96484 13.3203 9.08203 13.2031Q9.19922 13.0859 9.19922 12.9102L9.19922 10.9082Q9.19922 10.7324 9.08203 10.6152Q8.96484 10.498 8.78906 10.498Q8.61328 10.498 8.49609 10.6152Q8.37891 10.7324 8.37891 10.9082ZM10.625 12.9102Q10.625 13.0859 10.7422 13.2031Q10.8594 13.3203 11.0352 13.3203Q11.2109 13.3203 11.3281 13.2031Q11.4453 13.0859 11.4453 12.9102L11.4453 10.9082Q11.4453 10.7324 11.3281 10.6152Q11.2109 10.498 11.0352 10.498Q10.8594 10.498 10.7422 10.6152Q10.625 10.7324 10.625 10.9082ZM12.8711 12.9102Q12.8711 13.0859 12.9883 13.2031Q13.1055 13.3203 13.2812 13.3203Q13.457 13.3203 13.5742 13.2031Q13.6914 13.0859 13.6914 12.9102L13.6914 10.9082Q13.6914 10.7324 13.5742 10.6152Q13.457 10.498 13.2812 10.498Q13.1055 10.498 12.9883 10.6152Q12.8711 10.7324 12.8711 10.9082ZM15.1074 12.9102Q15.1074 13.0859 15.2246 13.2031Q15.3418 13.3203 15.5273 13.3203Q15.7031 13.3203 15.8203 13.2031Q15.9375 13.0859 15.9375 12.9102L15.9375 10.9082Q15.9375 10.7324 15.8203 10.6152Q15.7031 10.498 15.5273 10.498Q15.3418 10.498 15.2246 10.6152Q15.1074 10.7324 15.1074 10.9082ZM17.3535 12.9102Q17.3535 13.0859 17.4707 13.2031Q17.5879 13.3203 17.7637 13.3203Q17.9395 13.3203 18.0566 13.2031Q18.1738 13.0859 18.1738 12.9102L18.1738 10.9082Q18.1738 10.7324 18.0566 10.6152Q17.9395 10.498 17.7637 10.498Q17.5879 10.498 17.4707 10.6152Q17.3535 10.7324 17.3535 10.9082Z" fill="rgba(0,0,0,0.85)"/>
 </g>
</svg>
