<?xml version="1.0" encoding="UTF-8"?>
<!--Generator: Apple Native CoreSVG 175-->
<!DOCTYPE svg
PUBLIC "-//W3C//DTD SVG 1.1//EN"
       "http://www.w3.org/Graphics/SVG/1.1/DTD/svg11.dtd">
<svg version="1.1" xmlns="http://www.w3.org/2000/svg" xmlns:xlink="http://www.w3.org/1999/xlink" width="27.5" height="19.3457">
 <g>
  <rect height="19.3457" opacity="0" width="27.5" x="0" y="0"/>
  <path d="M3.11523 15.918Q3.21289 15.8008 3.18848 15.6494Q3.16406 15.498 3.04688 15.3711Q1.95312 14.2578 1.33789 12.7979Q0.722656 11.3379 0.722656 9.66797Q0.722656 7.98828 1.33789 6.5332Q1.95312 5.07812 3.04688 3.96484Q3.16406 3.83789 3.18848 3.68652Q3.21289 3.53516 3.11523 3.41797Q3.00781 3.29102 2.84668 3.30078Q2.68555 3.31055 2.54883 3.4375Q1.35742 4.64844 0.678711 6.25Q0 7.85156 0 9.66797Q0 11.4844 0.678711 13.0811Q1.35742 14.6777 2.54883 15.8984Q2.68555 16.0254 2.84668 16.0303Q3.00781 16.0352 3.11523 15.918ZM5.73242 13.2324Q5.83008 13.1152 5.80566 12.9639Q5.78125 12.8125 5.66406 12.6953Q5.06836 12.1387 4.78027 11.3428Q4.49219 10.5469 4.49219 9.66797Q4.49219 8.78906 4.78027 7.99316Q5.06836 7.19727 5.66406 6.64062Q5.78125 6.51367 5.80566 6.36719Q5.83008 6.2207 5.73242 6.10352Q5.61523 5.97656 5.44922 5.98145Q5.2832 5.98633 5.16602 6.13281Q4.49219 6.81641 4.13086 7.72949Q3.76953 8.64258 3.76953 9.66797Q3.76953 10.6934 4.13086 11.6016Q4.49219 12.5098 5.16602 13.2031Q5.2832 13.3398 5.44922 13.3496Q5.61523 13.3594 5.73242 13.2324ZM24.3848 15.918Q24.4922 16.0352 24.6582 16.0303Q24.8242 16.0254 24.9512 15.8984Q26.1426 14.6777 26.8213 13.0811Q27.5 11.4844 27.5 9.66797Q27.5 7.85156 26.8213 6.25Q26.1426 4.64844 24.9512 3.4375Q24.8242 3.31055 24.6582 3.30078Q24.4922 3.29102 24.3848 3.41797Q24.2773 3.53516 24.3066 3.68652Q24.3359 3.83789 24.4531 3.96484Q25.5469 5.07812 26.1572 6.5332Q26.7676 7.98828 26.7676 9.66797Q26.7676 11.3379 26.1572 12.7979Q25.5469 14.2578 24.4531 15.3711Q24.3359 15.498 24.3066 15.6494Q24.2773 15.8008 24.3848 15.918ZM21.7773 13.2324Q21.8848 13.3594 22.0508 13.3496Q22.2168 13.3398 22.3438 13.2031Q23.0078 12.5098 23.374 11.6016Q23.7402 10.6934 23.7402 9.66797Q23.7402 8.64258 23.374 7.72949Q23.0078 6.81641 22.3438 6.13281Q22.2168 5.98633 22.0508 5.98145Q21.8848 5.97656 21.7773 6.10352Q21.6699 6.2207 21.6943 6.36719Q21.7188 6.51367 21.8359 6.64062Q22.4316 7.19727 22.7197 7.99316Q23.0078 8.78906 23.0078 9.66797Q23.0078 10.5469 22.7197 11.3428Q22.4316 12.1387 21.8359 12.6953Q21.7188 12.8125 21.6943 12.9639Q21.6699 13.1152 21.7773 13.2324ZM10.625 19.3359L16.8945 19.3359Q18.0469 19.3359 18.6572 18.7305Q19.2676 18.125 19.2676 16.9727L19.2676 2.36328Q19.2676 1.21094 18.6572 0.605469Q18.0469 0 16.8945 0L10.625 0Q9.46289 0 8.85254 0.605469Q8.24219 1.21094 8.24219 2.36328L8.24219 16.9727Q8.24219 18.125 8.85254 18.7305Q9.46289 19.3359 10.625 19.3359ZM10.6934 18.6133Q9.80469 18.6133 9.38965 18.208Q8.97461 17.8027 8.97461 16.9238L8.97461 2.42188Q8.97461 1.54297 9.38965 1.13281Q9.80469 0.722656 10.6934 0.722656L11.8262 0.722656Q12.0215 0.722656 12.0215 0.908203L12.0215 1.02539Q12.0215 1.25977 12.1631 1.40625Q12.3047 1.55273 12.5391 1.55273L14.9805 1.55273Q15.2148 1.55273 15.3516 1.40625Q15.4883 1.25977 15.4883 1.02539L15.4883 0.908203Q15.4883 0.722656 15.6738 0.722656L16.8262 0.722656Q17.7148 0.722656 18.1299 1.13281Q18.5449 1.54297 18.5449 2.42188L18.5449 16.9238Q18.5449 17.8027 18.1299 18.208Q17.7148 18.6133 16.8262 18.6133ZM11.7969 17.9785L15.7227 17.9785Q15.8398 17.9785 15.9229 17.8906Q16.0059 17.8027 16.0059 17.6758Q16.0059 17.5586 15.9229 17.4756Q15.8398 17.3926 15.7227 17.3926L11.7969 17.3926Q11.6699 17.3926 11.5869 17.4756Q11.5039 17.5586 11.5039 17.6758Q11.5039 17.8027 11.5869 17.8906Q11.6699 17.9785 11.7969 17.9785Z" fill="rgba(0,0,0,0.85)"/>
 </g>
</svg>
