<?xml version="1.0" encoding="UTF-8"?>
<!--Generator: Apple Native CoreSVG 175-->
<!DOCTYPE svg
PUBLIC "-//W3C//DTD SVG 1.1//EN"
       "http://www.w3.org/Graphics/SVG/1.1/DTD/svg11.dtd">
<svg version="1.1" xmlns="http://www.w3.org/2000/svg" xmlns:xlink="http://www.w3.org/1999/xlink" width="23.8559" height="14.8065">
 <g>
  <rect height="14.8065" opacity="0" width="23.8559" x="0" y="0"/>
  <path d="M2.63046 14.7757L21.2184 14.7757Q22.5168 14.7757 23.1863 14.1019Q23.8559 13.428 23.8559 12.1562L23.8559 2.61673Q23.8559 1.34491 23.1863 0.672455Q22.5168 0 21.2184 0L2.63046 0Q1.33636 0 0.668182 0.665359Q0 1.33072 0 2.61673L0 12.1562Q0 13.4448 0.668182 14.1103Q1.33636 14.7757 2.63046 14.7757ZM3.57468 4.96323Q3.17032 4.96323 3.17032 4.55612L3.17032 3.81119Q3.17032 3.39722 3.57468 3.39722L4.31961 3.39722Q4.72931 3.39722 4.72931 3.81119L4.72931 4.55612Q4.72931 4.96323 4.31961 4.96323ZM6.7395 4.96323Q6.32538 4.96323 6.32538 4.55612L6.32538 3.81119Q6.32538 3.39722 6.7395 3.39722L7.48444 3.39722Q7.89139 3.39722 7.89139 3.81119L7.89139 4.55612Q7.89139 4.96323 7.48444 4.96323ZM9.89731 4.96323Q9.4902 4.96323 9.4902 4.55612L9.4902 3.81119Q9.4902 3.39722 9.89731 3.39722L10.6465 3.39722Q11.0562 3.39722 11.0562 3.81119L11.0562 4.55612Q11.0562 4.96323 10.6465 4.96323ZM13.0621 4.96323Q12.655 4.96323 12.655 4.55612L12.655 3.81119Q12.655 3.39722 13.0621 3.39722L13.8071 3.39722Q14.2212 3.39722 14.2212 3.81119L14.2212 4.55612Q14.2212 4.96323 13.8071 4.96323ZM16.227 4.96323Q15.8102 4.96323 15.8102 4.55612L15.8102 3.81119Q15.8102 3.39722 16.227 3.39722L16.9719 3.39722Q17.3763 3.39722 17.3763 3.81119L17.3763 4.55612Q17.3763 4.96323 16.9719 4.96323ZM19.3848 4.96323Q18.9751 4.96323 18.9751 4.55612L18.9751 3.81119Q18.9751 3.39722 19.3848 3.39722L20.134 3.39722Q20.5411 3.39722 20.5411 3.81119L20.5411 4.55612Q20.5411 4.96323 20.134 4.96323ZM3.57468 8.12805Q3.17032 8.12805 3.17032 7.7211L3.17032 6.96915Q3.17032 6.56204 3.57468 6.56204L4.31961 6.56204Q4.72931 6.56204 4.72931 6.96915L4.72931 7.7211Q4.72931 8.12805 4.31961 8.12805ZM6.7395 8.12805Q6.32538 8.12805 6.32538 7.7211L6.32538 6.96915Q6.32538 6.56204 6.7395 6.56204L7.48444 6.56204Q7.89139 6.56204 7.89139 6.96915L7.89139 7.7211Q7.89139 8.12805 7.48444 8.12805ZM9.89731 8.12805Q9.4902 8.12805 9.4902 7.7211L9.4902 6.96915Q9.4902 6.56204 9.89731 6.56204L10.6465 6.56204Q11.0562 6.56204 11.0562 6.96915L11.0562 7.7211Q11.0562 8.12805 10.6465 8.12805ZM13.0621 8.12805Q12.655 8.12805 12.655 7.7211L12.655 6.96915Q12.655 6.56204 13.0621 6.56204L13.8071 6.56204Q14.2212 6.56204 14.2212 6.96915L14.2212 7.7211Q14.2212 8.12805 13.8071 8.12805ZM16.227 8.12805Q15.8102 8.12805 15.8102 7.7211L15.8102 6.96915Q15.8102 6.56204 16.227 6.56204L16.9719 6.56204Q17.3763 6.56204 17.3763 6.96915L17.3763 7.7211Q17.3763 8.12805 16.9719 8.12805ZM19.3848 8.12805Q18.9751 8.12805 18.9751 7.7211L18.9751 6.96915Q18.9751 6.56204 19.3848 6.56204L20.134 6.56204Q20.5411 6.56204 20.5411 6.96915L20.5411 7.7211Q20.5411 8.12805 20.134 8.12805ZM3.57468 11.2929Q3.17032 11.2929 3.17032 10.8789L3.17032 10.134Q3.17032 9.72687 3.57468 9.72687L4.31961 9.72687Q4.72931 9.72687 4.72931 10.134L4.72931 10.8789Q4.72931 11.2929 4.31961 11.2929ZM6.76254 11.2929Q6.32538 11.2929 6.32538 10.8559L6.32538 10.1543Q6.32538 9.72687 6.76254 9.72687L16.9489 9.72687Q17.3763 9.72687 17.3763 10.1543L17.3763 10.8559Q17.3763 11.2929 16.9489 11.2929ZM19.3848 11.2929Q18.9751 11.2929 18.9751 10.8789L18.9751 10.134Q18.9751 9.72687 19.3848 9.72687L20.134 9.72687Q20.5411 9.72687 20.5411 10.134L20.5411 10.8789Q20.5411 11.2929 20.134 11.2929Z" fill="rgba(0,0,0,0.85)"/>
 </g>
</svg>
