<?xml version="1.0" encoding="UTF-8"?>
<!--Generator: Apple Native CoreSVG 175-->
<!DOCTYPE svg
PUBLIC "-//W3C//DTD SVG 1.1//EN"
       "http://www.w3.org/Graphics/SVG/1.1/DTD/svg11.dtd">
<svg version="1.1" xmlns="http://www.w3.org/2000/svg" xmlns:xlink="http://www.w3.org/1999/xlink" width="19.3848" height="22.666">
 <g>
  <rect height="22.666" opacity="0" width="19.3848" x="0" y="0"/>
  <path d="M9.6875 16.4941Q11.9629 16.4941 13.7549 16.0156Q15.5469 15.5371 16.8018 14.6973Q18.0566 13.8574 18.7207 12.7539Q19.3848 11.6504 19.3848 10.3809Q19.3848 9.12109 18.7207 8.0127Q18.0566 6.9043 16.8018 6.06445Q15.5469 5.22461 13.75 4.75098Q11.9531 4.27734 9.67773 4.27734Q7.41211 4.27734 5.62012 4.75098Q3.82812 5.22461 2.57324 6.06445Q1.31836 6.9043 0.65918 8.0127Q0 9.12109 0 10.3809Q0 11.6504 0.65918 12.7539Q1.31836 13.8574 2.57324 14.6973Q3.82812 15.5371 5.625 16.0156Q7.42188 16.4941 9.6875 16.4941ZM9.6875 20.1758Q11.416 20.1758 12.3828 19.4873Q13.3496 18.7988 13.3496 17.5879L13.3496 17.002Q12.5098 17.1777 11.5967 17.2705Q10.6836 17.3633 9.6875 17.3633Q8.71094 17.3633 7.79297 17.2705Q6.875 17.1777 6.03516 17.002L6.03516 17.5879Q6.03516 18.7988 7.00195 19.4873Q7.96875 20.1758 9.6875 20.1758ZM8.14453 13.3496Q7.99805 13.3496 7.90039 13.252Q7.80273 13.1543 7.80273 12.9883L7.80273 7.49023Q7.80273 7.33398 7.90039 7.23633Q7.99805 7.13867 8.14453 7.13867Q8.30078 7.13867 8.40332 7.23633Q8.50586 7.33398 8.50586 7.49023L8.50586 12.7051L11.3477 12.7051Q11.4941 12.7051 11.582 12.7881Q11.6699 12.8711 11.6699 13.0273Q11.6699 13.1738 11.582 13.2617Q11.4941 13.3496 11.3477 13.3496ZM7.59766 0.78125L9.29688 3.03711Q9.45312 3.25195 9.70703 3.24707Q9.96094 3.24219 10.1074 3.03711L11.8066 0.78125Q12.002 0.527344 11.9043 0.263672Q11.8066 0 11.4941 0L7.91016 0Q7.59766 0 7.5 0.263672Q7.40234 0.527344 7.59766 0.78125Z" fill="rgba(0,0,0,0.85)"/>
 </g>
</svg>
