<?xml version="1.0" encoding="UTF-8"?>
<!--Generator: Apple Native CoreSVG 175-->
<!DOCTYPE svg
PUBLIC "-//W3C//DTD SVG 1.1//EN"
       "http://www.w3.org/Graphics/SVG/1.1/DTD/svg11.dtd">
<svg version="1.1" xmlns="http://www.w3.org/2000/svg" xmlns:xlink="http://www.w3.org/1999/xlink" width="22.7832" height="17.3145">
 <g>
  <rect height="17.3145" opacity="0" width="22.7832" x="0" y="0"/>
  <path d="M7.59766 17.3145L15.1855 17.3145Q17.9102 17.3145 19.585 16.4697Q21.2598 15.625 22.0215 13.9453Q22.7832 12.2656 22.7832 9.77539L22.7832 2.65625Q22.7832 1.37695 22.1143 0.703125Q21.4453 0.0292969 20.1465 0.0292969L2.62695 0.0292969Q1.33789 0.0292969 0.668945 0.693359Q0 1.35742 0 2.65625L0 9.77539Q0 12.2656 0.766602 13.9453Q1.5332 15.625 3.20312 16.4697Q4.87305 17.3145 7.59766 17.3145ZM7.60742 16.582Q5.12695 16.582 3.6084 15.8203Q2.08984 15.0586 1.41113 13.5449Q0.732422 12.0312 0.732422 9.77539L0.732422 2.69531Q0.732422 0.761719 2.65625 0.761719L20.127 0.761719Q21.0449 0.761719 21.5479 1.24512Q22.0508 1.72852 22.0508 2.69531L22.0508 9.77539Q22.0508 12.0312 21.3721 13.5449Q20.6934 15.0586 19.1748 15.8203Q17.6562 16.582 15.1758 16.582ZM9.39453 13.0859L14.0234 13.0859Q14.1797 13.0859 14.2725 12.998Q14.3652 12.9102 14.3652 12.7539Q14.3652 12.6074 14.2676 12.5195Q14.1699 12.4316 14.0234 12.4316L9.76562 12.4316L9.76562 4.74609Q9.76562 4.56055 9.66797 4.45312Q9.57031 4.3457 9.39453 4.3457Q9.21875 4.3457 9.12109 4.45312Q9.02344 4.56055 9.02344 4.74609L9.02344 12.6953Q9.02344 12.8711 9.12109 12.9785Q9.21875 13.0859 9.39453 13.0859Z" fill="rgba(0,0,0,0.85)"/>
 </g>
</svg>
