<?xml version="1.0" encoding="UTF-8"?>
<!--Generator: Apple Native CoreSVG 175-->
<!DOCTYPE svg
PUBLIC "-//W3C//DTD SVG 1.1//EN"
       "http://www.w3.org/Graphics/SVG/1.1/DTD/svg11.dtd">
<svg version="1.1" xmlns="http://www.w3.org/2000/svg" xmlns:xlink="http://www.w3.org/1999/xlink" width="22.7832" height="17.3145">
 <g>
  <rect height="17.3145" opacity="0" width="22.7832" x="0" y="0"/>
  <path d="M7.59766 17.3145L15.1855 17.3145Q17.9102 17.3145 19.585 16.4697Q21.2598 15.625 22.0215 13.9453Q22.7832 12.2656 22.7832 9.77539L22.7832 2.65625Q22.7832 1.37695 22.1143 0.703125Q21.4453 0.0292969 20.1465 0.0292969L2.62695 0.0292969Q1.33789 0.0292969 0.668945 0.693359Q0 1.35742 0 2.65625L0 9.77539Q0 12.2656 0.766602 13.9453Q1.5332 15.625 3.20312 16.4697Q4.87305 17.3145 7.59766 17.3145ZM7.27539 13.125Q7.09961 13.125 6.99707 13.0127Q6.89453 12.9004 6.89453 12.7246L6.89453 4.7168Q6.89453 4.54102 6.99219 4.43359Q7.08984 4.32617 7.27539 4.32617Q7.44141 4.32617 7.54395 4.43359Q7.64648 4.54102 7.64648 4.7168L7.64648 12.4512L11.9336 12.4512Q12.0801 12.4512 12.1777 12.5439Q12.2754 12.6367 12.2754 12.7832Q12.2754 12.9395 12.1826 13.0322Q12.0898 13.125 11.9336 13.125ZM15.6055 13.2617Q15.4395 13.2617 15.3369 13.1543Q15.2344 13.0469 15.2344 12.8711L15.2344 5.22461L15.1758 5.22461L13.3301 6.42578Q13.2715 6.46484 13.2275 6.47461Q13.1836 6.48438 13.125 6.48438Q12.998 6.48438 12.9053 6.38672Q12.8125 6.28906 12.8125 6.16211Q12.8125 5.9668 12.9785 5.85938L15.0293 4.53125Q15.1953 4.41406 15.3125 4.37012Q15.4297 4.32617 15.5566 4.32617Q15.7422 4.32617 15.8594 4.43848Q15.9766 4.55078 15.9766 4.74609L15.9766 12.8711Q15.9766 13.0469 15.8838 13.1543Q15.791 13.2617 15.6055 13.2617Z" fill="rgba(0,0,0,0.85)"/>
 </g>
</svg>
