<?xml version="1.0" encoding="UTF-8"?>
<!--Generator: Apple Native CoreSVG 175-->
<!DOCTYPE svg
PUBLIC "-//W3C//DTD SVG 1.1//EN"
       "http://www.w3.org/Graphics/SVG/1.1/DTD/svg11.dtd">
<svg version="1.1" xmlns="http://www.w3.org/2000/svg" xmlns:xlink="http://www.w3.org/1999/xlink" width="12.5008" height="11.7831">
 <g>
  <rect height="11.7831" opacity="0" width="12.5008" x="0" y="0"/>
  <path d="M12.1164 11.7831Q12.2809 11.7831 12.3908 11.674Q12.5008 11.5648 12.5008 11.3895Q12.5008 11.2515 12.4368 11.1519Q12.3727 11.0522 12.2388 10.9901L1.0672 6.03119L1.0672 5.95901L12.2388 0.792999Q12.3727 0.723877 12.4368 0.627747Q12.5008 0.531616 12.5008 0.393677Q12.5008 0.214081 12.3881 0.108414Q12.2754 0.00274658 12.1126 0.00274658Q12.0087 0.00274658 11.9338 0.0374603Q11.859 0.0721741 11.7828 0.112457L0.398407 5.47058Q0.214844 5.56046 0.107422 5.69077Q0 5.82108 0 6.00861Q0 6.19614 0.0982666 6.32286Q0.196533 6.44958 0.356293 6.53244L11.7828 11.675Q11.8617 11.7082 11.9379 11.7457Q12.014 11.7831 12.1164 11.7831Z" fill="rgba(0,0,0,0.85)"/>
 </g>
</svg>
