<?xml version="1.0" encoding="UTF-8"?>
<!--Generator: Apple Native CoreSVG 175-->
<!DOCTYPE svg
PUBLIC "-//W3C//DTD SVG 1.1//EN"
       "http://www.w3.org/Graphics/SVG/1.1/DTD/svg11.dtd">
<svg version="1.1" xmlns="http://www.w3.org/2000/svg" xmlns:xlink="http://www.w3.org/1999/xlink" width="19.1602" height="19.1504">
 <g>
  <rect height="19.1504" opacity="0" width="19.1602" x="0" y="0"/>
  <path d="M9.57031 19.1406Q11.5527 19.1406 13.2861 18.3984Q15.0195 17.6562 16.3379 16.333Q17.6562 15.0098 18.4082 13.2764Q19.1602 11.543 19.1602 9.57031Q19.1602 7.59766 18.4082 5.86426Q17.6562 4.13086 16.3379 2.80762Q15.0195 1.48438 13.2861 0.742188Q11.5527 0 9.57031 0Q7.59766 0 5.86426 0.742188Q4.13086 1.48438 2.81738 2.80762Q1.50391 4.13086 0.751953 5.86426Q0 7.59766 0 9.57031Q0 11.543 0.74707 13.2764Q1.49414 15.0098 2.8125 16.333Q4.13086 17.6562 5.86914 18.3984Q7.60742 19.1406 9.57031 19.1406ZM4.0332 8.73047Q3.87695 8.73047 3.76953 8.6377Q3.66211 8.54492 3.66211 8.38867Q3.66211 8.23242 3.76953 8.13477Q3.87695 8.03711 4.0332 8.03711L15.1562 8.03711Q15.3125 8.03711 15.415 8.13477Q15.5176 8.23242 15.5176 8.38867Q15.5176 8.54492 15.415 8.6377Q15.3125 8.73047 15.1562 8.73047ZM5.45898 11.9629Q5.29297 11.9629 5.19043 11.8652Q5.08789 11.7676 5.08789 11.6113Q5.08789 11.4551 5.19043 11.3623Q5.29297 11.2695 5.45898 11.2695L13.7305 11.2695Q13.8867 11.2695 13.9893 11.3623Q14.0918 11.4551 14.0918 11.6113Q14.0918 11.7676 13.9893 11.8652Q13.8867 11.9629 13.7305 11.9629Z" fill="rgba(0,0,0,0.85)"/>
 </g>
</svg>
