<?xml version="1.0" encoding="UTF-8"?>
<!--Generator: Apple Native CoreSVG 175-->
<!DOCTYPE svg
PUBLIC "-//W3C//DTD SVG 1.1//EN"
       "http://www.w3.org/Graphics/SVG/1.1/DTD/svg11.dtd">
<svg version="1.1" xmlns="http://www.w3.org/2000/svg" xmlns:xlink="http://www.w3.org/1999/xlink" width="19.1602" height="19.1504">
 <g>
  <rect height="19.1504" opacity="0" width="19.1602" x="0" y="0"/>
  <path d="M9.57031 19.1406Q11.5527 19.1406 13.2861 18.3984Q15.0195 17.6562 16.3379 16.333Q17.6562 15.0098 18.4082 13.2764Q19.1602 11.543 19.1602 9.57031Q19.1602 7.59766 18.4082 5.86426Q17.6562 4.13086 16.3379 2.80762Q15.0195 1.48438 13.2861 0.742188Q11.5527 0 9.57031 0Q7.59766 0 5.86426 0.742188Q4.13086 1.48438 2.81738 2.80762Q1.50391 4.13086 0.751953 5.86426Q0 7.59766 0 9.57031Q0 11.543 0.74707 13.2764Q1.49414 15.0098 2.8125 16.333Q4.13086 17.6562 5.86914 18.3984Q7.60742 19.1406 9.57031 19.1406ZM6.31836 13.4766Q6.31836 13.3496 6.3916 13.2617Q6.46484 13.1738 6.60156 13.1348Q7.32422 12.9883 7.72949 12.4414Q8.13477 11.8945 8.14453 11.2305Q8.1543 10.918 8.10547 10.6934L6.83594 10.6934Q6.68945 10.6934 6.60156 10.6055Q6.51367 10.5176 6.51367 10.3906Q6.51367 10.2539 6.60156 10.166Q6.68945 10.0781 6.83594 10.0781L7.99805 10.0781Q7.93945 9.82422 7.86621 9.57031Q7.79297 9.31641 7.72461 9.0625L6.83594 9.0625Q6.68945 9.0625 6.60156 8.97461Q6.51367 8.88672 6.51367 8.75Q6.51367 8.62305 6.60156 8.53516Q6.68945 8.44727 6.83594 8.44727L7.60742 8.44727Q7.56836 8.29102 7.55859 8.13965Q7.54883 7.98828 7.54883 7.83203Q7.54883 6.66992 8.25684 5.94238Q8.96484 5.21484 10.3906 5.21484Q10.9473 5.21484 11.3721 5.33203Q11.7969 5.44922 12.0312 5.55664Q12.2656 5.67383 12.2656 5.86914Q12.2656 6.01562 12.1436 6.09863Q12.0215 6.18164 11.8555 6.13281Q11.5918 6.03516 11.2354 5.9375Q10.8789 5.83984 10.4102 5.83984Q9.28711 5.83984 8.75 6.39648Q8.21289 6.95312 8.21289 7.80273Q8.21289 7.95898 8.22754 8.125Q8.24219 8.29102 8.27148 8.44727L11.2793 8.44727Q11.4258 8.44727 11.5137 8.53516Q11.6016 8.62305 11.6016 8.75Q11.6016 8.88672 11.5137 8.97461Q11.4258 9.0625 11.2793 9.0625L8.4082 9.0625Q8.47656 9.30664 8.5498 9.56055Q8.62305 9.81445 8.68164 10.0781L11.2793 10.0781Q11.4258 10.0781 11.5137 10.166Q11.6016 10.2539 11.6016 10.3906Q11.6016 10.5176 11.5137 10.6055Q11.4258 10.6934 11.2793 10.6934L8.78906 10.6934Q8.79883 10.8301 8.80371 10.9668Q8.80859 11.1035 8.80859 11.2402Q8.78906 11.7969 8.52051 12.3291Q8.25195 12.8613 7.86133 13.1641L12.3242 13.1641Q12.4805 13.1641 12.5732 13.252Q12.666 13.3398 12.666 13.4863Q12.666 13.623 12.5732 13.7158Q12.4805 13.8086 12.3242 13.8086L6.65039 13.8086Q6.50391 13.8086 6.41113 13.7158Q6.31836 13.623 6.31836 13.4766Z" fill="rgba(0,0,0,0.85)"/>
 </g>
</svg>
