<?xml version="1.0" encoding="UTF-8"?>
<!--Generator: Apple Native CoreSVG 175-->
<!DOCTYPE svg
PUBLIC "-//W3C//DTD SVG 1.1//EN"
       "http://www.w3.org/Graphics/SVG/1.1/DTD/svg11.dtd">
<svg version="1.1" xmlns="http://www.w3.org/2000/svg" xmlns:xlink="http://www.w3.org/1999/xlink" width="18.2897" height="18.2666">
 <g>
  <rect height="18.2666" opacity="0" width="18.2897" x="0" y="0"/>
  <path d="M5.6322 5.56396L0.456414 7.98584Q0.241571 8.09326 0.129266 8.25439Q0.0169613 8.41553 0.00231291 8.59619Q-0.0123355 8.77686 0.0657895 8.93311Q0.143914 9.08936 0.305047 9.18701Q0.46618 9.28467 0.700555 9.29443L8.87438 9.3042Q8.93298 9.3042 8.97204 9.34326Q9.0111 9.38232 9.0111 9.45068L9.02087 17.5659Q9.02087 17.8101 9.12341 17.9712Q9.22595 18.1323 9.39196 18.2056Q9.55798 18.2788 9.73864 18.2642Q9.91931 18.2495 10.0804 18.1372Q10.2416 18.0249 10.3295 17.8198L12.7513 12.7026ZM13.9037 10.2417L18.1615 1.19873Q18.3177 0.88623 18.2836 0.637207Q18.2494 0.388184 18.0785 0.241699Q17.9076 0.0952148 17.6586 0.0756836Q17.4095 0.0561523 17.1166 0.192871L8.08337 4.42139ZM16.9994 15.6323Q17.097 15.73 17.2484 15.73Q17.3998 15.73 17.5072 15.6323Q17.6049 15.5347 17.6097 15.3784Q17.6146 15.2222 17.5072 15.1245L3.1322 0.739746Q3.03454 0.651855 2.87829 0.646973Q2.72204 0.64209 2.62438 0.739746Q2.5072 0.856934 2.5072 1.00342Q2.5072 1.1499 2.62438 1.25732Z" fill="rgba(0,0,0,0.85)"/>
 </g>
</svg>
