<?xml version="1.0" encoding="UTF-8"?>
<!--Generator: Apple Native CoreSVG 175-->
<!DOCTYPE svg
PUBLIC "-//W3C//DTD SVG 1.1//EN"
       "http://www.w3.org/Graphics/SVG/1.1/DTD/svg11.dtd">
<svg version="1.1" xmlns="http://www.w3.org/2000/svg" xmlns:xlink="http://www.w3.org/1999/xlink" width="22.1191" height="19.0332">
 <g>
  <rect height="19.0332" opacity="0" width="22.1191" x="0" y="0"/>
  <path d="M1.33789 15.8691L20.7812 15.8691Q21.3965 15.8691 21.7578 15.5029Q22.1191 15.1367 22.1191 14.5215L22.1191 1.9043Q22.1191 1.28906 21.7578 0.922852Q21.3965 0.556641 20.7812 0.556641L1.33789 0.556641Q0.732422 0.556641 0.366211 0.922852Q0 1.28906 0 1.9043L0 14.5215Q0 15.1367 0.366211 15.5029Q0.732422 15.8691 1.33789 15.8691ZM1.37695 15.1465Q1.08398 15.1465 0.908203 14.9707Q0.732422 14.7949 0.732422 14.502L0.732422 1.93359Q0.732422 1.64062 0.908203 1.46484Q1.08398 1.28906 1.37695 1.28906L20.7422 1.28906Q21.0449 1.28906 21.2207 1.46484Q21.3965 1.64062 21.3965 1.93359L21.3965 14.502Q21.3965 14.7949 21.2207 14.9707Q21.0449 15.1465 20.7422 15.1465ZM8.19336 18.4961L13.9258 18.4961L13.9258 15.7422L8.19336 15.7422ZM7.98828 19.0332L14.1406 19.0332Q14.2871 19.0332 14.3945 18.9307Q14.502 18.8281 14.502 18.6621Q14.502 18.5059 14.3945 18.4033Q14.2871 18.3008 14.1406 18.3008L7.98828 18.3008Q7.83203 18.3008 7.72461 18.4033Q7.61719 18.5059 7.61719 18.6621Q7.61719 18.8281 7.72461 18.9307Q7.83203 19.0332 7.98828 19.0332ZM7.69531 10.6543Q7.69531 11.4453 8.44727 11.4453L11.7383 11.4453Q12.4902 11.4453 12.4902 10.6543L12.4902 8.10547Q12.4902 7.30469 11.7383 7.30469L8.44727 7.30469Q7.69531 7.30469 7.69531 8.10547ZM11.1426 7.54883L11.7871 7.54883L11.7871 6.49414Q11.7871 5.85938 12.1143 5.48828Q12.4414 5.11719 13.0078 5.11719Q13.584 5.11719 13.916 5.48828Q14.248 5.85938 14.248 6.49414L14.248 7.00195Q14.248 7.12891 14.3359 7.22656Q14.4238 7.32422 14.5605 7.32422Q14.6973 7.32422 14.79 7.22656Q14.8828 7.12891 14.8828 7.00195L14.8828 6.49414Q14.8828 5.60547 14.3652 5.03906Q13.8477 4.47266 13.0078 4.47266Q12.1875 4.47266 11.665 5.03906Q11.1426 5.60547 11.1426 6.51367Z" fill="rgba(0,0,0,0.85)"/>
 </g>
</svg>
