<?xml version="1.0" encoding="UTF-8"?>
<!--Generator: Apple Native CoreSVG 175-->
<!DOCTYPE svg
PUBLIC "-//W3C//DTD SVG 1.1//EN"
       "http://www.w3.org/Graphics/SVG/1.1/DTD/svg11.dtd">
<svg version="1.1" xmlns="http://www.w3.org/2000/svg" xmlns:xlink="http://www.w3.org/1999/xlink" width="21.0048" height="19.1504">
 <g>
  <rect height="19.1504" opacity="0" width="21.0048" x="0" y="0"/>
  <path d="M0 9.57031Q0 11.543 0.74707 13.2764Q1.49414 15.0098 2.81738 16.333Q4.14062 17.6562 5.87402 18.3984Q7.60742 19.1406 9.58008 19.1406Q11.3086 19.1406 12.8369 18.5498Q14.3652 17.959 15.6201 16.9092Q16.875 15.8594 17.7637 14.4922Q17.8711 14.3457 17.832 14.1943Q17.793 14.043 17.666 13.9648Q17.5293 13.8965 17.3828 13.9307Q17.2363 13.9648 17.1484 14.1113Q16.3477 15.3809 15.1953 16.3477Q14.043 17.3145 12.6123 17.8564Q11.1816 18.3984 9.58008 18.3984Q7.75391 18.3984 6.15234 17.7148Q4.55078 17.0312 3.33496 15.8154Q2.11914 14.5996 1.43555 12.998Q0.751953 11.3965 0.751953 9.57031Q0.751953 7.74414 1.43555 6.14258Q2.11914 4.54102 3.33496 3.3252Q4.55078 2.10938 6.15234 1.42578Q7.75391 0.742188 9.58008 0.742188Q11.1914 0.742188 12.6318 1.28418Q14.0723 1.82617 15.2344 2.79297Q16.3965 3.75977 17.1777 5.05859Q17.959 6.35742 18.2422 7.90039L16.3672 7.90039Q16.0742 7.90039 15.9863 8.08105Q15.8984 8.26172 16.0938 8.51562L18.1445 11.4551Q18.291 11.6797 18.4814 11.6797Q18.6719 11.6797 18.8281 11.4551L20.8789 8.52539Q21.0645 8.26172 20.9766 8.08105Q20.8887 7.90039 20.5957 7.90039L19.0039 7.90039Q18.7109 6.21094 17.8662 4.77539Q17.0215 3.33984 15.7568 2.26562Q14.4922 1.19141 12.915 0.595703Q11.3379 0 9.58008 0Q7.60742 0 5.87402 0.742188Q4.14062 1.48438 2.81738 2.80762Q1.49414 4.13086 0.74707 5.86426Q0 7.59766 0 9.57031ZM7.11914 14.541L12.0996 14.541Q13.1836 14.541 13.1836 13.3887L13.1836 9.33594Q13.1836 8.18359 12.0996 8.18359L7.70508 8.18359L7.70508 6.77734Q7.70508 5.83984 8.22754 5.26855Q8.75 4.69727 9.60938 4.69727Q10.4688 4.69727 10.9961 5.24902Q11.5234 5.80078 11.5234 6.71875L11.5234 6.91406Q11.5234 7.07031 11.6211 7.14355Q11.7188 7.2168 11.8359 7.2168Q11.9531 7.2168 12.041 7.14355Q12.1289 7.07031 12.1289 6.91406L12.1289 6.71875Q12.1289 5.52734 11.4355 4.80469Q10.7422 4.08203 9.60938 4.08203Q8.48633 4.08203 7.78809 4.8291Q7.08984 5.57617 7.08984 6.79688L7.08984 8.18359Q6.04492 8.20312 6.04492 9.32617L6.04492 13.3887Q6.04492 14.541 7.11914 14.541Z" fill="rgba(0,0,0,0.85)"/>
 </g>
</svg>
