<?xml version="1.0" encoding="UTF-8"?>
<!--Generator: Apple Native CoreSVG 175-->
<!DOCTYPE svg
PUBLIC "-//W3C//DTD SVG 1.1//EN"
       "http://www.w3.org/Graphics/SVG/1.1/DTD/svg11.dtd">
<svg version="1.1" xmlns="http://www.w3.org/2000/svg" xmlns:xlink="http://www.w3.org/1999/xlink" width="23.2008" height="16.8347">
 <g>
  <rect height="16.8347" opacity="0" width="23.2008" x="0" y="0"/>
  <path d="M8.49258 11.8344Q8.49258 12.8293 9.43329 12.8293L13.7703 12.8293Q14.711 12.8293 14.711 11.8344L14.711 8.29178Q14.711 7.31598 13.7988 7.3024L13.7988 6.09146Q13.7988 5.02808 13.1946 4.3808Q12.5903 3.73352 11.6031 3.73352Q10.6203 3.73352 10.0125 4.3808Q9.40475 5.02808 9.40475 6.09146L9.40475 7.3024Q8.49258 7.31598 8.49258 8.29178ZM9.94293 7.30667L9.94293 6.07101Q9.94293 5.2504 10.401 4.75349Q10.8591 4.25659 11.6031 4.25659Q12.3515 4.25659 12.8096 4.75349Q13.2677 5.2504 13.2677 6.07101L13.2677 7.30667ZM18.3829 15.7492Q19.402 15.7492 20.2782 15.4224Q21.1543 15.0957 21.8089 14.5125Q22.4634 13.9293 22.8321 13.1488Q23.2008 12.3683 23.2008 11.4609Q23.2008 10.5058 22.8614 9.65874Q22.522 8.81165 21.8602 8.17322Q21.1984 7.53479 20.2133 7.21863Q20.2696 5.67215 19.7923 4.35287Q19.3149 3.0336 18.4206 2.05795Q17.5262 1.08231 16.3202 0.541153Q15.1141 0 13.7086 0Q12.3735 0 11.3322 0.449371Q10.291 0.898743 9.52911 1.64543Q8.76724 2.39212 8.27972 3.29361Q7.43744 2.94571 6.58966 3.07358Q5.74188 3.20145 5.03403 3.71185Q4.32617 4.22226 3.9016 5.01579Q3.47702 5.80933 3.49258 6.79245Q2.45239 6.86981 1.66428 7.43195Q0.87616 7.99408 0.43808 8.90854Q0 9.823 0 10.9581Q0 11.9621 0.400772 12.8313Q0.801544 13.7004 1.52367 14.3506Q2.24579 15.0008 3.21877 15.3645Q4.19174 15.7281 5.3363 15.7281ZM18.3688 15.0206L5.32928 15.0066Q4.01443 15.0066 2.97386 14.4658Q1.93329 13.925 1.33095 13.0064Q0.728607 12.0879 0.728607 10.9581Q0.728607 9.96048 1.11298 9.15756Q1.49734 8.35464 2.22839 7.88239Q2.95944 7.41013 3.98758 7.41013Q4.13788 7.41013 4.13788 7.24289Q4.13788 6.22971 4.5076 5.48531Q4.87732 4.74091 5.50041 4.30946Q6.1235 3.87802 6.8924 3.79974Q7.66129 3.72147 8.44849 4.04297Q8.57925 4.0918 8.65738 3.95935Q9.14307 3.10547 9.82819 2.36717Q10.5133 1.62888 11.4635 1.17867Q12.4136 0.728455 13.7086 0.728455Q15.3032 0.728455 16.5723 1.4888Q17.8415 2.24915 18.6169 3.54568Q19.3922 4.84222 19.5125 6.44913Q19.532 6.70654 19.5139 6.99463Q19.4957 7.28271 19.4945 7.56836Q19.4891 7.71866 19.6227 7.7507Q20.9438 8.10699 21.708 9.11285Q22.4722 10.1187 22.4722 11.4609Q22.4722 12.4815 21.9312 13.287Q21.3902 14.0926 20.4604 14.5566Q19.5305 15.0206 18.3688 15.0206Z" fill="rgba(0,0,0,0.85)"/>
 </g>
</svg>
