<?xml version="1.0" encoding="UTF-8"?>
<!--Generator: Apple Native CoreSVG 175-->
<!DOCTYPE svg
PUBLIC "-//W3C//DTD SVG 1.1//EN"
       "http://www.w3.org/Graphics/SVG/1.1/DTD/svg11.dtd">
<svg version="1.1" xmlns="http://www.w3.org/2000/svg" xmlns:xlink="http://www.w3.org/1999/xlink" width="20.5586" height="18.7894">
 <g>
  <rect height="18.7894" opacity="0" width="20.5586" x="0" y="0"/>
  <path d="M1.83289 18.6378L11.2492 18.6378Q12.1684 18.6378 12.6252 18.1755Q13.082 17.7132 13.082 16.702L13.082 9.30893Q13.082 8.30032 12.6252 7.83806Q12.1684 7.37579 11.2492 7.37579L1.87347 7.38129Q0.950012 7.38129 0.475006 7.84218Q0 8.30307 0 9.30893L0 16.702Q0 17.7132 0.454712 18.1755Q0.909424 18.6378 1.83289 18.6378ZM11.0066 7.67151L11.7351 7.67151L11.7351 5.12726Q11.7351 3.79135 12.2531 2.79465Q12.7711 1.79794 13.6832 1.24664Q14.5953 0.695343 15.7805 0.695343Q16.9699 0.695343 17.8869 1.24664Q18.8039 1.79794 19.3169 2.79465Q19.83 3.79135 19.83 5.12726L19.83 7.2319Q19.83 7.41409 19.9413 7.51778Q20.0526 7.62146 20.1949 7.62146Q20.3413 7.62146 20.45 7.52045Q20.5586 7.41943 20.5586 7.2319L20.5586 5.1355Q20.5586 3.9624 20.2047 3.01788Q19.8508 2.07336 19.2074 1.39816Q18.564 0.722961 17.6929 0.361481Q16.8219 0 15.7805 0Q14.7461 0 13.8701 0.361481Q12.9941 0.722961 12.3543 1.39816Q11.7145 2.07336 11.3605 3.01788Q11.0066 3.9624 11.0066 5.1355Z" fill="rgba(0,0,0,0.85)"/>
 </g>
</svg>
