<?xml version="1.0" encoding="UTF-8"?>
<!--Generator: Apple Native CoreSVG 175-->
<!DOCTYPE svg
PUBLIC "-//W3C//DTD SVG 1.1//EN"
       "http://www.w3.org/Graphics/SVG/1.1/DTD/svg11.dtd">
<svg version="1.1" xmlns="http://www.w3.org/2000/svg" xmlns:xlink="http://www.w3.org/1999/xlink" width="17.134" height="21.0449">
 <g>
  <rect height="21.0449" opacity="0" width="17.134" x="0" y="0"/>
  <path d="M3.47656 19.4922L13.9062 19.4922Q13.9551 19.4922 13.999 19.4873Q14.043 19.4824 14.082 19.4824L2.66602 8.06641Q2.14844 8.24219 1.88965 8.68652Q1.63086 9.13086 1.63086 9.89258L1.63086 17.5391Q1.63086 18.5547 2.08984 19.0234Q2.54883 19.4922 3.47656 19.4922ZM8.42773 0Q7.12891 0 6.02539 0.595703Q4.92188 1.19141 4.22363 2.33398Q3.52539 3.47656 3.45703 5.12695Q3.45703 5.15625 3.45703 5.18555Q3.45703 5.21484 3.45703 5.25391L4.12109 5.91797Q4.12109 5.78125 4.12598 5.6543Q4.13086 5.52734 4.13086 5.40039Q4.14062 3.94531 4.73633 2.89062Q5.33203 1.83594 6.30371 1.26953Q7.27539 0.703125 8.42773 0.703125Q9.61914 0.703125 10.5957 1.28418Q11.5723 1.86523 12.1484 2.94434Q12.7246 4.02344 12.7246 5.52734L12.7246 7.93945L6.15234 7.94922L15.2051 17.002L15.2051 9.88281Q15.2051 8.88672 14.7705 8.42773Q14.3359 7.96875 13.4473 7.94922L13.4473 5.53711Q13.4473 4.19922 13.0469 3.16406Q12.6465 2.12891 11.9482 1.42578Q11.25 0.722656 10.3467 0.361328Q9.44336 0 8.42773 0ZM16.5137 20.6348Q16.6211 20.7422 16.7725 20.7422Q16.9238 20.7422 17.0215 20.6348Q17.1387 20.5176 17.1338 20.376Q17.1289 20.2344 17.0215 20.127L0.625 3.7207Q0.517578 3.62305 0.371094 3.61816Q0.224609 3.61328 0.107422 3.7207Q0 3.82812 0 3.97949Q0 4.13086 0.107422 4.22852Z" fill="rgba(0,0,0,0.85)"/>
 </g>
</svg>
