<?xml version="1.0" encoding="UTF-8"?>
<!--Generator: Apple Native CoreSVG 175-->
<!DOCTYPE svg
PUBLIC "-//W3C//DTD SVG 1.1//EN"
       "http://www.w3.org/Graphics/SVG/1.1/DTD/svg11.dtd">
<svg version="1.1" xmlns="http://www.w3.org/2000/svg" xmlns:xlink="http://www.w3.org/1999/xlink" width="13.082" height="18.7894">
 <g>
  <rect height="18.7894" opacity="0" width="13.082" x="0" y="0"/>
  <path d="M1.83273 18.6378L11.2492 18.6378Q12.1683 18.6378 12.6251 18.1755Q13.082 17.7132 13.082 16.702L13.082 9.30893Q13.082 8.30032 12.6251 7.83806Q12.1683 7.37579 11.2492 7.37579L1.87347 7.38129Q0.950012 7.38129 0.475006 7.84218Q0 8.30307 0 9.30893L0 16.702Q0 17.7132 0.454712 18.1755Q0.909424 18.6378 1.83273 18.6378ZM1.76361 7.67151L2.4852 7.67151L2.4852 5.12726Q2.4852 3.79135 3.00316 2.79465Q3.52112 1.79794 4.43459 1.24664Q5.34805 0.695343 6.53748 0.695343Q7.72964 0.695343 8.64174 1.24664Q9.55383 1.79794 10.0718 2.79465Q10.5898 3.79135 10.5898 5.12726L10.5898 7.67151L11.3184 7.67151L11.3184 5.1355Q11.3184 3.9624 10.9644 3.01788Q10.6105 2.07336 9.96712 1.39816Q9.32373 0.722961 8.45131 0.361481Q7.57889 0 6.53748 0Q5.50308 0 4.62845 0.361481Q3.75381 0.722961 3.11401 1.39816Q2.47421 2.07336 2.11891 3.01788Q1.76361 3.9624 1.76361 5.1355Z" fill="rgba(0,0,0,0.85)"/>
 </g>
</svg>
