<?xml version="1.0" encoding="UTF-8"?>
<!--Generator: Apple Native CoreSVG 175-->
<!DOCTYPE svg
PUBLIC "-//W3C//DTD SVG 1.1//EN"
       "http://www.w3.org/Graphics/SVG/1.1/DTD/svg11.dtd">
<svg version="1.1" xmlns="http://www.w3.org/2000/svg" xmlns:xlink="http://www.w3.org/1999/xlink" width="26.2988" height="14.7363">
 <g>
  <rect height="14.7363" opacity="0" width="26.2988" x="0" y="0"/>
  <path d="M0 14.0137Q0 14.3262 0.205078 14.5312Q0.410156 14.7363 0.712891 14.7363L25.5859 14.7363Q25.8984 14.7363 26.0986 14.5312Q26.2988 14.3262 26.2988 14.0137Q26.2988 13.7012 26.0986 13.4912Q25.8984 13.2812 25.5859 13.2812L23.457 13.2812L23.457 1.91406Q23.457 0.976562 22.9736 0.498047Q22.4902 0.0195312 21.5625 0.0195312L4.74609 0.0195312Q3.81836 0.0195312 3.33496 0.498047Q2.85156 0.976562 2.85156 1.91406L2.85156 13.2812L0.712891 13.2812Q0.410156 13.2812 0.205078 13.4912Q0 13.7012 0 14.0137ZM3.57422 13.2812L3.57422 2.03125Q3.57422 1.38672 3.89648 1.06934Q4.21875 0.751953 4.86328 0.751953L21.4453 0.751953Q22.0898 0.751953 22.4121 1.06934Q22.7344 1.38672 22.7344 2.03125L22.7344 13.2812ZM11.5137 10.2637L14.8047 10.2637Q15.5566 10.2637 15.5566 9.47266L15.5566 6.92383Q15.5566 6.23047 15.0098 6.15234L15.0098 5.35156Q15.0098 4.45312 14.502 3.88672Q13.9941 3.32031 13.1641 3.32031Q12.3242 3.32031 11.8164 3.88672Q11.3086 4.45312 11.3086 5.35156L11.3086 6.15234Q10.7617 6.23047 10.7617 6.92383L10.7617 9.47266Q10.7617 10.2637 11.5137 10.2637ZM11.9434 6.12305L11.9434 5.33203Q11.9434 4.69727 12.2754 4.33105Q12.6074 3.96484 13.1641 3.96484Q13.7109 3.96484 14.043 4.33105Q14.375 4.69727 14.375 5.33203L14.375 6.12305Z" fill="rgba(0,0,0,0.85)"/>
 </g>
</svg>
