<?xml version="1.0" encoding="UTF-8"?>
<!--Generator: Apple Native CoreSVG 175-->
<!DOCTYPE svg
PUBLIC "-//W3C//DTD SVG 1.1//EN"
       "http://www.w3.org/Graphics/SVG/1.1/DTD/svg11.dtd">
<svg version="1.1" xmlns="http://www.w3.org/2000/svg" xmlns:xlink="http://www.w3.org/1999/xlink" width="12.4023" height="18.6426">
 <g>
  <rect height="18.6426" opacity="0" width="12.4023" x="0" y="0"/>
  <path d="M0 12.5781Q0 13.6914 0.385742 14.4385Q0.771484 15.1855 1.57227 15.6348Q1.92383 15.8301 2.09473 16.0205Q2.26562 16.2109 2.41211 16.6113L2.83203 17.959Q3.03711 18.6426 3.75977 18.6426L7.8418 18.6426Q8.58398 18.6426 8.76953 17.959L9.20898 16.6113Q9.32617 16.2109 9.50195 16.0205Q9.67773 15.8301 10.0293 15.6348Q10.8301 15.1855 11.2158 14.4385Q11.6016 13.6914 11.6016 12.5781L11.6016 6.07422Q11.6016 4.95117 11.2158 4.20898Q10.8301 3.4668 10.0293 3.00781Q9.67773 2.82227 9.50195 2.63184Q9.32617 2.44141 9.20898 2.04102L8.76953 0.683594Q8.58398 0.00976562 7.8418 0.00976562L3.75977 0.00976562Q3.03711 0.00976562 2.83203 0.683594L2.41211 2.04102Q2.27539 2.44141 2.09961 2.63184Q1.92383 2.82227 1.57227 3.00781Q0.78125 3.45703 0.390625 4.2041Q0 4.95117 0 6.07422ZM0.693359 12.5195L0.693359 6.14258Q0.693359 4.79492 1.44531 4.0332Q2.19727 3.27148 3.54492 3.27148L8.06641 3.27148Q9.4043 3.27148 10.1562 4.0332Q10.9082 4.79492 10.9082 6.14258L10.9082 12.5195Q10.9082 13.8574 10.1562 14.6191Q9.4043 15.3809 8.06641 15.3809L3.54492 15.3809Q2.19727 15.3809 1.44531 14.6191Q0.693359 13.8574 0.693359 12.5195ZM11.2988 8.75L11.7188 8.75Q12.0312 8.75 12.2168 8.54492Q12.4023 8.33984 12.4023 7.99805L12.4023 6.60156Q12.4023 6.2793 12.2168 6.07422Q12.0312 5.86914 11.7188 5.86914L11.2988 5.86914ZM2.45117 11.7578Q2.45117 12.5586 3.20312 12.5586L6.51367 12.5586Q7.26562 12.5586 7.26562 11.7578L7.26562 9.20898Q7.26562 8.4082 6.51367 8.4082L3.20312 8.4082Q2.45117 8.4082 2.45117 9.20898ZM5.9082 8.65234L6.55273 8.65234L6.55273 7.59766Q6.55273 6.96289 6.87988 6.58691Q7.20703 6.21094 7.7832 6.21094Q8.34961 6.21094 8.68652 6.58691Q9.02344 6.96289 9.02344 7.59766L9.02344 8.0957Q9.02344 8.23242 9.11133 8.33008Q9.19922 8.42773 9.33594 8.42773Q9.47266 8.42773 9.56543 8.33008Q9.6582 8.23242 9.6582 8.0957L9.6582 7.59766Q9.6582 6.69922 9.14062 6.13281Q8.62305 5.56641 7.7832 5.56641Q6.95312 5.56641 6.43066 6.13281Q5.9082 6.69922 5.9082 7.61719Z" fill="rgba(0,0,0,0.85)"/>
 </g>
</svg>
