<?xml version="1.0" encoding="UTF-8"?>
<!--Generator: Apple Native CoreSVG 175-->
<!DOCTYPE svg
PUBLIC "-//W3C//DTD SVG 1.1//EN"
       "http://www.w3.org/Graphics/SVG/1.1/DTD/svg11.dtd">
<svg version="1.1" xmlns="http://www.w3.org/2000/svg" xmlns:xlink="http://www.w3.org/1999/xlink" width="15.7812" height="20.6738">
 <g>
  <rect height="20.6738" opacity="0" width="15.7812" x="0" y="0"/>
  <path d="M2.62695 20.6738L13.1543 20.6738Q14.4434 20.6738 15.1123 20.0049Q15.7812 19.3359 15.7812 18.0371L15.7812 8.38867L8.91602 8.38867Q7.44141 8.38867 7.44141 6.89453L7.44141 0.0292969L2.62695 0.0292969Q1.34766 0.0292969 0.673828 0.698242Q0 1.36719 0 2.66602L0 18.0371Q0 19.3359 0.664062 20.0049Q1.32812 20.6738 2.62695 20.6738ZM9.01367 7.51953L15.625 7.51953Q15.5957 7.35352 15.4688 7.19238Q15.3418 7.03125 15.166 6.85547L8.97461 0.634766Q8.80859 0.46875 8.6377 0.336914Q8.4668 0.205078 8.31055 0.185547L8.31055 6.81641Q8.31055 7.51953 9.01367 7.51953ZM4.94141 17.3633L4.94141 14.0137Q4.94141 13.0664 5.81055 13.0566L5.81055 11.9043Q5.81055 10.8984 6.38672 10.2832Q6.96289 9.66797 7.89062 9.66797Q8.82812 9.66797 9.40918 10.2832Q9.99023 10.8984 9.99023 11.9043L9.99023 13.0566Q10.8594 13.0664 10.8594 14.0137L10.8594 17.3633Q10.8594 18.3203 9.96094 18.3203L5.83984 18.3203Q4.94141 18.3203 4.94141 17.3633ZM6.31836 13.0566L9.47266 13.0566L9.47266 11.8945Q9.47266 11.1133 9.03809 10.6445Q8.60352 10.1758 7.89062 10.1758Q7.1875 10.1758 6.75293 10.6445Q6.31836 11.1133 6.31836 11.8945Z" fill="rgba(0,0,0,0.85)"/>
 </g>
</svg>
