<?xml version="1.0" encoding="UTF-8"?>
<!--Generator: Apple Native CoreSVG 175-->
<!DOCTYPE svg
PUBLIC "-//W3C//DTD SVG 1.1//EN"
       "http://www.w3.org/Graphics/SVG/1.1/DTD/svg11.dtd">
<svg version="1.1" xmlns="http://www.w3.org/2000/svg" xmlns:xlink="http://www.w3.org/1999/xlink" width="22.7832" height="17.3145">
 <g>
  <rect height="17.3145" opacity="0" width="22.7832" x="0" y="0"/>
  <path d="M7.59766 0.0292969Q4.87305 0.0292969 3.20312 0.878906Q1.5332 1.72852 0.766602 3.40332Q0 5.07812 0 7.56836L0 14.6875Q0 15.9863 0.668945 16.6504Q1.33789 17.3145 2.62695 17.3145L20.1465 17.3145Q21.4453 17.3145 22.1143 16.6455Q22.7832 15.9766 22.7832 14.6875L22.7832 7.56836Q22.7832 5.07812 22.0215 3.40332Q21.2598 1.72852 19.585 0.878906Q17.9102 0.0292969 15.1855 0.0292969ZM7.60742 0.761719L15.1758 0.761719Q17.6562 0.761719 19.1748 1.52344Q20.6934 2.28516 21.3721 3.80371Q22.0508 5.32227 22.0508 7.56836L22.0508 14.6582Q22.0508 15.6152 21.5479 16.1035Q21.0449 16.5918 20.127 16.5918L2.65625 16.5918Q0.732422 16.5918 0.732422 14.6582L0.732422 7.56836Q0.732422 5.32227 1.41113 3.80371Q2.08984 2.28516 3.6084 1.52344Q5.12695 0.761719 7.60742 0.761719ZM6.48438 13.0957L11.1133 13.0957Q11.2695 13.0957 11.3623 13.0078Q11.4551 12.9199 11.4551 12.7637Q11.4551 12.6172 11.3623 12.5293Q11.2695 12.4414 11.1133 12.4414L6.85547 12.4414L6.85547 4.75586Q6.85547 4.57031 6.75781 4.46289Q6.66016 4.35547 6.48438 4.35547Q6.30859 4.35547 6.21094 4.46289Q6.11328 4.57031 6.11328 4.75586L6.11328 12.7051Q6.11328 12.8809 6.21582 12.9883Q6.31836 13.0957 6.48438 13.0957ZM14.8633 13.1738Q15.0391 13.1738 15.1367 13.0664Q15.2344 12.959 15.2344 12.7832L15.2344 5.10742L17.9785 5.10742Q18.125 5.10742 18.2227 5.00977Q18.3203 4.91211 18.3203 4.76562Q18.3203 4.60938 18.2227 4.52148Q18.125 4.43359 17.9785 4.43359L11.8457 4.43359Q11.6992 4.43359 11.6016 4.52148Q11.5039 4.60938 11.5039 4.76562Q11.5039 4.91211 11.6016 5.00977Q11.6992 5.10742 11.8457 5.10742L14.4922 5.10742L14.4922 12.7832Q14.4922 12.9492 14.5947 13.0615Q14.6973 13.1738 14.8633 13.1738Z" fill="rgba(0,0,0,0.85)"/>
 </g>
</svg>
