<?xml version="1.0" encoding="UTF-8"?>
<!--Generator: Apple Native CoreSVG 175-->
<!DOCTYPE svg
PUBLIC "-//W3C//DTD SVG 1.1//EN"
       "http://www.w3.org/Graphics/SVG/1.1/DTD/svg11.dtd">
<svg version="1.1" xmlns="http://www.w3.org/2000/svg" xmlns:xlink="http://www.w3.org/1999/xlink" width="23.4813" height="18.566">
 <g>
  <rect height="18.566" opacity="0" width="23.4813" x="0" y="0"/>
  <path d="M2.63046 14.6562L4.5871 14.6562L4.5871 13.9348L2.65701 13.9348Q1.7067 13.9348 1.21765 13.4435Q0.728607 12.9523 0.728607 12.0007L0.728607 2.68356Q0.728607 1.72501 1.21765 1.23596Q1.7067 0.746918 2.65701 0.746918L16.0374 0.746918Q16.9571 0.746918 17.4664 1.23596Q17.9758 1.72501 17.9758 2.68356L17.9758 4.5285L18.7044 4.5285L18.7044 2.64496Q18.7044 1.36597 18.0348 0.692139Q17.3653 0.0183105 16.0667 0.0183105L2.63046 0.0183105Q1.33636 0.0183105 0.668182 0.683746Q0 1.34918 0 2.64496L0 12.0297Q0 13.3253 0.668182 13.9908Q1.33636 14.6562 2.63046 14.6562ZM6.99768 18.566L20.8438 18.566Q22.1422 18.566 22.8117 17.89Q23.4813 17.2141 23.4813 15.9395L23.4813 6.5477Q23.4813 5.27573 22.8117 4.59839Q22.1422 3.92105 20.8438 3.92105L6.99768 3.92105Q5.69656 3.92105 5.02838 4.59Q4.3602 5.25894 4.3602 6.5477L4.3602 15.9395Q4.3602 17.2281 5.02838 17.897Q5.69656 18.566 6.99768 18.566ZM5.08865 8.19183L22.7527 8.19183L22.7527 15.9035Q22.7527 16.862 22.2469 17.3498Q21.741 17.8375 20.8215 17.8375L7.01721 17.8375Q6.06689 17.8375 5.57777 17.3498Q5.08865 16.862 5.08865 15.9035ZM6.91452 6.71249Q6.64459 6.71249 6.45042 6.51566Q6.25626 6.31882 6.25626 6.06125Q6.25626 5.79407 6.45042 5.59723Q6.64459 5.40039 6.91452 5.40039Q7.18445 5.40039 7.37503 5.59723Q7.56561 5.79407 7.56561 6.06125Q7.56561 6.31882 7.37503 6.51566Q7.18445 6.71249 6.91452 6.71249ZM9.17587 6.71249Q8.90594 6.71249 8.71529 6.51917Q8.52463 6.32584 8.52463 6.06125Q8.52463 5.79407 8.71529 5.59723Q8.90594 5.40039 9.17587 5.40039Q9.4458 5.40039 9.63989 5.59723Q9.83398 5.79407 9.83398 6.06125Q9.83398 6.32584 9.63989 6.51917Q9.4458 6.71249 9.17587 6.71249ZM11.4372 6.70547Q11.1743 6.70547 10.9801 6.51566Q10.786 6.32584 10.786 6.06125Q10.786 5.79407 10.9801 5.59723Q11.1743 5.40039 11.4372 5.40039Q11.7072 5.40039 11.9012 5.59723Q12.0953 5.79407 12.0953 6.06125Q12.0953 6.32584 11.9012 6.51566Q11.7072 6.70547 11.4372 6.70547Z" fill="rgba(0,0,0,0.85)"/>
 </g>
</svg>
