<?xml version="1.0" encoding="UTF-8"?>
<!--Generator: Apple Native CoreSVG 175-->
<!DOCTYPE svg
PUBLIC "-//W3C//DTD SVG 1.1//EN"
       "http://www.w3.org/Graphics/SVG/1.1/DTD/svg11.dtd">
<svg version="1.1" xmlns="http://www.w3.org/2000/svg" xmlns:xlink="http://www.w3.org/1999/xlink" width="20.3465" height="20.2301">
 <g>
  <rect height="20.2301" opacity="0" width="20.3465" x="0" y="0"/>
  <path d="M3.6348 9.3692L10.5321 9.3692Q10.6718 9.3692 10.7687 9.27094Q10.8656 9.17267 10.8656 9.0329Q10.8656 8.89023 10.7687 8.78983Q10.6718 8.68942 10.5321 8.68942L3.6348 8.68942Q3.49655 8.68942 3.39752 8.78983Q3.29849 8.89023 3.29849 9.0329Q3.29849 9.17267 3.39752 9.27094Q3.49655 9.3692 3.6348 9.3692ZM3.6348 11.6817L8.29071 11.6817Q8.42621 11.6817 8.52661 11.5826Q8.62701 11.4836 8.62701 11.3411Q8.62701 11.2054 8.52661 11.105Q8.42621 11.0046 8.29071 11.0046L3.6348 11.0046Q3.49655 11.0046 3.39752 11.105Q3.29849 11.2054 3.29849 11.3411Q3.29849 11.4836 3.39752 11.5826Q3.49655 11.6817 3.6348 11.6817ZM14.7363 12.3813Q15.3754 12.3813 15.9013 12.0702Q16.4273 11.759 16.7419 11.2282Q17.0566 10.6973 17.0566 10.0485Q17.0566 9.40674 16.7419 8.87718Q16.4273 8.34763 15.9013 8.03162Q15.3754 7.71561 14.7363 7.71561Q14.0848 7.71561 13.5553 8.03162Q13.0258 8.34763 12.7098 8.87718Q12.3938 9.40674 12.3938 10.0485Q12.3938 10.6973 12.7098 11.2282Q13.0258 11.759 13.5553 12.0702Q14.0848 12.3813 14.7363 12.3813ZM2.63046 20.2148L17.7161 20.2148Q19.0074 20.2148 19.677 19.541Q20.3465 18.8672 20.3465 17.5883L20.3465 7.33398Q20.3465 6.05515 19.677 5.38132Q19.0074 4.70749 17.7161 4.70749L2.63046 4.70749Q1.33636 4.70749 0.668182 5.37292Q0 6.03836 0 7.33398L0 17.5883Q0 18.884 0.668182 19.5494Q1.33636 20.2148 2.63046 20.2148ZM2.65701 19.4934Q1.7067 19.4934 1.21765 19.0008Q0.728607 18.5081 0.728607 17.5496L0.728607 7.37274Q0.728607 6.41403 1.21765 5.92148Q1.7067 5.42892 2.65701 5.42892L17.6868 5.42892Q18.6063 5.42892 19.1156 5.92148Q19.6249 6.41403 19.6249 7.37274L19.6249 17.5496Q19.6249 18.5081 19.1156 19.0008Q18.6063 19.4934 17.6868 19.4934ZM2.13791 2.90314L18.2114 2.90314Q18.1856 2.60468 18.0147 2.40997Q17.8438 2.21527 17.5261 2.21527L2.82303 2.21527Q2.51251 2.21527 2.33673 2.40997Q2.16095 2.60468 2.13791 2.90314ZM3.98788 0.65506L16.3614 0.65506Q16.3547 0.367584 16.1775 0.183792Q16.0004 0 15.6921 0L4.65439 0Q4.34616 0 4.16901 0.183792Q3.99185 0.367584 3.98788 0.65506Z" fill="rgba(0,0,0,0.85)"/>
 </g>
</svg>
