<?xml version="1.0" encoding="UTF-8"?>
<!--Generator: Apple Native CoreSVG 175-->
<!DOCTYPE svg
PUBLIC "-//W3C//DTD SVG 1.1//EN"
       "http://www.w3.org/Graphics/SVG/1.1/DTD/svg11.dtd">
<svg version="1.1" xmlns="http://www.w3.org/2000/svg" xmlns:xlink="http://www.w3.org/1999/xlink" width="17.2852" height="17.3145">
 <g>
  <rect height="17.3145" opacity="0" width="17.2852" x="0" y="0"/>
  <path d="M2.62695 17.3145L14.6484 17.3145Q15.957 17.3145 16.6211 16.6455Q17.2852 15.9766 17.2852 14.6875L17.2852 2.65625Q17.2852 1.37695 16.6211 0.703125Q15.957 0.0292969 14.6484 0.0292969L2.62695 0.0292969Q1.33789 0.0292969 0.668945 0.693359Q0 1.35742 0 2.65625L0 14.6875Q0 15.9863 0.668945 16.6504Q1.33789 17.3145 2.62695 17.3145ZM6.00586 12.793Q5.85938 12.793 5.76172 12.7051Q5.66406 12.6172 5.66406 12.4414L5.66406 9.0918Q5.66406 7.4707 6.40625 6.56738Q7.14844 5.66406 8.33008 5.55664L8.33008 4.33594Q8.33008 4.17969 8.42285 4.10156Q8.51562 4.02344 8.65234 4.02344Q8.7793 4.02344 8.86719 4.10156Q8.95508 4.17969 8.95508 4.33594L8.95508 5.54688Q10.1465 5.6543 10.8887 6.5625Q11.6309 7.4707 11.6309 9.0918L11.6309 12.4414Q11.6309 12.6172 11.543 12.7051Q11.4551 12.793 11.2988 12.793Q11.1426 12.793 11.0498 12.7051Q10.957 12.6172 10.957 12.4414L10.957 9.16016Q10.957 7.8125 10.4199 7.06055Q9.88281 6.30859 8.95508 6.20117L8.95508 12.4707Q8.95508 12.6172 8.86719 12.7051Q8.7793 12.793 8.65234 12.793Q8.51562 12.793 8.42285 12.7051Q8.33008 12.6172 8.33008 12.4707L8.33008 6.20117Q7.41211 6.31836 6.875 7.07031Q6.33789 7.82227 6.33789 9.16016L6.33789 12.4414Q6.33789 12.6172 6.24512 12.7051Q6.15234 12.793 6.00586 12.793Z" fill="rgba(0,0,0,0.85)"/>
 </g>
</svg>
