<?xml version="1.0" encoding="UTF-8"?>
<!--Generator: Apple Native CoreSVG 175-->
<!DOCTYPE svg
PUBLIC "-//W3C//DTD SVG 1.1//EN"
       "http://www.w3.org/Graphics/SVG/1.1/DTD/svg11.dtd">
<svg version="1.1" xmlns="http://www.w3.org/2000/svg" xmlns:xlink="http://www.w3.org/1999/xlink" width="19.1602" height="19.1504">
 <g>
  <rect height="19.1504" opacity="0" width="19.1602" x="0" y="0"/>
  <path d="M9.57031 19.1406Q11.5527 19.1406 13.2861 18.3984Q15.0195 17.6562 16.3379 16.333Q17.6562 15.0098 18.4082 13.2764Q19.1602 11.543 19.1602 9.57031Q19.1602 7.59766 18.4082 5.86426Q17.6562 4.13086 16.3379 2.80762Q15.0195 1.48438 13.2861 0.742188Q11.5527 0 9.57031 0Q7.59766 0 5.86426 0.742188Q4.13086 1.48438 2.81738 2.80762Q1.50391 4.13086 0.751953 5.86426Q0 7.59766 0 9.57031Q0 11.543 0.74707 13.2764Q1.49414 15.0098 2.8125 16.333Q4.13086 17.6562 5.86914 18.3984Q7.60742 19.1406 9.57031 19.1406ZM4.39453 13.9648L4.39453 6.75781Q4.39453 6.55273 4.47266 6.44043Q4.55078 6.32812 4.7168 6.2207L7.30469 4.6582Q7.39258 4.60938 7.47559 4.5752Q7.55859 4.54102 7.63672 4.51172L7.63672 12.8809L5.08789 14.3066Q5.00977 14.3457 4.94141 14.3701Q4.87305 14.3945 4.79492 14.3945Q4.61914 14.3945 4.50684 14.2822Q4.39453 14.1699 4.39453 13.9648ZM8.11523 12.9004L8.11523 4.52148Q8.20312 4.54102 8.28613 4.5752Q8.36914 4.60938 8.44727 4.6582L11.0156 6.21094L11.0156 14.6094Q10.957 14.5996 10.8936 14.5752Q10.8301 14.5508 10.7617 14.5117ZM11.4844 14.5898L11.4844 6.20117L14.0234 4.82422Q14.1699 4.73633 14.3262 4.73633Q14.502 4.73633 14.6094 4.83887Q14.7168 4.94141 14.7168 5.15625L14.7168 12.3828Q14.7168 12.5781 14.6387 12.6904Q14.5605 12.8027 14.4043 12.9004L11.7188 14.4922Q11.6016 14.5508 11.4844 14.5898Z" fill="rgba(0,0,0,0.85)"/>
 </g>
</svg>
