<?xml version="1.0" encoding="UTF-8"?>
<!--Generator: Apple Native CoreSVG 175-->
<!DOCTYPE svg
PUBLIC "-//W3C//DTD SVG 1.1//EN"
       "http://www.w3.org/Graphics/SVG/1.1/DTD/svg11.dtd">
<svg version="1.1" xmlns="http://www.w3.org/2000/svg" xmlns:xlink="http://www.w3.org/1999/xlink" width="22.666" height="17.2949">
 <g>
  <rect height="17.2949" opacity="0" width="22.666" x="0" y="0"/>
  <path d="M0.449219 2.76367L0.449219 3.4375L22.2168 3.4375L22.2168 2.76367ZM2.62695 17.2852L20.0195 17.2852Q21.3281 17.2852 21.9971 16.6113Q22.666 15.9375 22.666 14.6582L22.666 2.62695Q22.666 1.34766 21.9971 0.673828Q21.3281 0 20.0195 0L2.62695 0Q1.33789 0 0.668945 0.668945Q0 1.33789 0 2.62695L0 14.6582Q0 15.957 0.668945 16.6211Q1.33789 17.2852 2.62695 17.2852ZM2.65625 16.5625Q1.70898 16.5625 1.2207 16.0742Q0.732422 15.5859 0.732422 14.6191L0.732422 2.65625Q0.732422 1.69922 1.2207 1.21094Q1.70898 0.722656 2.65625 0.722656L20 0.722656Q20.9277 0.722656 21.4307 1.21094Q21.9336 1.69922 21.9336 2.65625L21.9336 14.6191Q21.9336 15.5859 21.4307 16.0742Q20.9277 16.5625 20 16.5625ZM3.78906 13.9844Q3.78906 14.3652 4.02832 14.5996Q4.26758 14.834 4.6582 14.834L18.0371 14.834Q18.4375 14.834 18.6768 14.5996Q18.916 14.3652 18.916 13.9844L18.916 12.7441Q18.916 12.3633 18.6768 12.1289Q18.4375 11.8945 18.0371 11.8945L4.6582 11.8945Q4.26758 11.8945 4.02832 12.1289Q3.78906 12.3633 3.78906 12.7441Z" fill="rgba(0,0,0,0.85)"/>
 </g>
</svg>
