<?xml version="1.0" encoding="UTF-8"?>
<!--Generator: Apple Native CoreSVG 175-->
<!DOCTYPE svg
PUBLIC "-//W3C//DTD SVG 1.1//EN"
       "http://www.w3.org/Graphics/SVG/1.1/DTD/svg11.dtd">
<svg version="1.1" xmlns="http://www.w3.org/2000/svg" xmlns:xlink="http://www.w3.org/1999/xlink" width="21.2112" height="21.211">
 <g>
  <rect height="21.211" opacity="0" width="21.2112" x="0" y="0"/>
  <path d="M0.922877 12.4658L8.75491 20.2881Q9.67288 21.2061 10.6201 21.2012Q11.5674 21.1963 12.4658 20.2979L20.2881 12.4561Q21.1963 11.5576 21.211 10.6055Q21.2256 9.65335 20.2979 8.73538L12.4854 0.922877Q11.5576-0.00485725 10.6153 2.55645e-05Q9.67288 0.00490838 8.75491 0.922877L0.913112 8.74514Q-0.00485698 9.66311 2.5835e-05 10.6006Q0.00490865 11.5381 0.922877 12.4658ZM1.44046 11.9776Q0.766627 11.3135 0.77151 10.6104Q0.776393 9.90725 1.44046 9.24319L9.23342 1.45022Q9.90725 0.776393 10.6006 0.776393Q11.294 0.776393 11.9678 1.44046L19.7608 9.23342Q20.4053 9.88772 20.4199 10.6006Q20.4346 11.3135 19.7608 11.9776L11.9776 19.7608Q11.294 20.4346 10.5908 20.4248Q9.88772 20.4151 9.23342 19.7705ZM6.13772 10.9912L15.0537 10.9912Q15.2198 10.9912 15.3369 10.8838Q15.4541 10.7764 15.4541 10.6201Q15.4541 10.4541 15.3418 10.3418Q15.2295 10.2295 15.0537 10.2295L6.13772 10.2295Q5.96194 10.2295 5.84964 10.3418Q5.73733 10.4541 5.73733 10.6201Q5.73733 10.7764 5.85452 10.8838Q5.97171 10.9912 6.13772 10.9912Z" fill="rgba(0,0,0,0.85)"/>
 </g>
</svg>
