<?xml version="1.0" encoding="UTF-8"?>
<!--Generator: Apple Native CoreSVG 175-->
<!DOCTYPE svg
PUBLIC "-//W3C//DTD SVG 1.1//EN"
       "http://www.w3.org/Graphics/SVG/1.1/DTD/svg11.dtd">
<svg version="1.1" xmlns="http://www.w3.org/2000/svg" xmlns:xlink="http://www.w3.org/1999/xlink" width="18.882" height="19.0356">
 <g>
  <rect height="19.0356" opacity="0" width="18.882" x="0" y="0"/>
  <path d="M15.0253 13.2407Q12.1922 13.2407 10.1288 12.1626Q8.06534 11.0844 6.94946 9.08798Q5.83359 7.09152 5.83359 4.3364Q5.83359 3.23715 5.99609 2.32346Q6.1586 1.40976 6.4743 0.706635Q6.52542 0.576172 6.54556 0.494919Q6.5657 0.413666 6.5657 0.344543Q6.5657 0.205841 6.47095 0.102921Q6.37619 0 6.21841 0Q6.16684 0 6.07231 0.017395Q5.97778 0.03479 5.87112 0.0805664Q4.14886 0.749664 2.82539 2.11571Q1.50192 3.48175 0.750961 5.28503Q0 7.08832 0 9.05472Q0 11.2039 0.735779 13.0143Q1.47156 14.8247 2.80281 16.1594Q4.13406 17.4942 5.94437 18.2313Q7.75467 18.9684 9.89685 18.9684Q11.8542 18.9684 13.6109 18.271Q15.3676 17.5735 16.7172 16.3114Q18.0669 15.0493 18.8086 13.3638Q18.8544 13.2669 18.8682 13.1928Q18.882 13.1187 18.882 13.0618Q18.882 12.8926 18.7811 12.795Q18.6801 12.6973 18.5258 12.6973Q18.4648 12.6973 18.3996 12.7098Q18.3344 12.7223 18.25 12.7528Q17.941 12.8906 17.4072 13.0008Q16.8735 13.111 16.246 13.1758Q15.6184 13.2407 15.0253 13.2407ZM0.717621 9.04266Q0.717621 7.30392 1.34361 5.69885Q1.9696 4.09378 3.09631 2.82776Q4.22302 1.56174 5.72189 0.827026Q5.44525 1.59927 5.28809 2.52487Q5.13092 3.45047 5.13092 4.36768Q5.13092 7.33719 6.32095 9.48112Q7.51099 11.6251 9.7213 12.7802Q11.9316 13.9352 14.9837 13.9352Q15.8128 13.9352 16.5972 13.8248Q17.3816 13.7144 18.0011 13.4996Q17.2098 14.9664 15.9612 16.0344Q14.7125 17.1024 13.1623 17.6779Q11.6121 18.2535 9.91333 18.2535Q7.92038 18.2535 6.24146 17.569Q4.56253 16.8845 3.32466 15.643Q2.08679 14.4016 1.40221 12.7178Q0.717621 11.0341 0.717621 9.04266Z" fill="rgba(0,0,0,0.85)"/>
 </g>
</svg>
