<?xml version="1.0" encoding="UTF-8"?>
<!--Generator: Apple Native CoreSVG 175-->
<!DOCTYPE svg
PUBLIC "-//W3C//DTD SVG 1.1//EN"
       "http://www.w3.org/Graphics/SVG/1.1/DTD/svg11.dtd">
<svg version="1.1" xmlns="http://www.w3.org/2000/svg" xmlns:xlink="http://www.w3.org/1999/xlink" width="24.2143" height="11.3693">
 <g>
  <rect height="11.3693" opacity="0" width="24.2143" x="0" y="0"/>
  <path d="M0.45521 4.76059Q2.38377 7.11029 4.24 8.56277Q6.09623 10.0153 8.02494 10.6844Q9.95365 11.3536 12.1071 11.3536Q14.258 11.3536 16.1881 10.6844Q18.1182 10.0153 19.9744 8.56277Q21.8306 7.11029 23.7635 4.76059Q24.1939 4.23401 24.2132 3.73367Q24.2325 3.23334 23.9151 2.89169Q23.5978 2.55005 23.0216 2.48169Q22.0372 2.36877 21.2814 2.0858Q20.5256 1.80283 19.9092 1.44653Q19.2928 1.09024 18.7189 0.761948Q18.145 0.433655 17.5345 0.216827Q16.924 0 16.1744 0Q15.3598 0 14.7255 0.248871Q14.0911 0.497742 13.6093 0.822525Q13.1275 1.14731 12.7595 1.3913Q12.3915 1.63528 12.1071 1.63528Q11.8229 1.63528 11.4549 1.3913Q11.0869 1.14731 10.6051 0.822525Q10.1232 0.497742 9.48879 0.248871Q8.85441 0 8.0373 0Q7.28764 0 6.67706 0.216827Q6.06648 0.433655 5.49267 0.761948Q4.91886 1.09024 4.30386 1.44653Q3.68885 1.80283 2.93293 2.0858Q2.17701 2.36877 1.18992 2.48169Q0.620768 2.55005 0.301248 2.89169Q-0.0182706 3.23334 0.0011081 3.73367Q0.0204868 4.23401 0.45521 4.76059ZM1.81263 4.35745Q1.64311 4.25049 1.65226 4.10225Q1.66142 3.95401 1.77983 3.87474Q1.89823 3.79547 2.06928 3.89572Q2.83726 4.36569 3.67809 4.51317Q4.51893 4.66064 5.41538 4.63135Q6.31184 4.60205 7.23835 4.53949Q7.59968 4.51187 7.94346 4.49387Q8.28724 4.47586 8.61775 4.47586Q9.58332 4.47586 10.1462 4.72939Q10.7091 4.98291 11.1518 5.21027Q11.3942 5.33569 11.6218 5.4126Q11.8494 5.4895 12.1071 5.4895Q12.365 5.4895 12.5925 5.4126Q12.82 5.33569 13.0626 5.21027Q13.5051 4.98291 14.0667 4.72939Q14.6282 4.47586 15.5939 4.47586Q15.927 4.47586 16.2694 4.49387Q16.6118 4.51187 16.9759 4.53949Q17.8997 4.61029 18.7962 4.63821Q19.6927 4.66614 20.5336 4.51591Q21.3744 4.36569 22.145 3.89572Q22.3134 3.79547 22.4331 3.87474Q22.5528 3.95401 22.5606 4.10225Q22.5684 4.25049 22.4059 4.35745Q21.538 4.91028 20.6394 5.11459Q19.7408 5.31891 18.8613 5.31654Q17.9818 5.31418 17.1741 5.23506Q16.3665 5.15594 15.6751 5.13916Q15.0225 5.13214 14.571 5.28816Q14.1196 5.44418 13.7569 5.65048Q13.3942 5.85678 13.0089 6.01494Q12.6236 6.1731 12.1071 6.1731Q11.588 6.1731 11.2027 6.01494Q10.8173 5.85678 10.4546 5.65048Q10.0919 5.44418 9.64192 5.28816Q9.19193 5.13214 8.53642 5.13916Q7.84779 5.15594 7.03884 5.23643Q6.2299 5.31693 5.35038 5.31929Q4.47087 5.32166 3.57357 5.11734Q2.67628 4.91302 1.81263 4.35745Z" fill="rgba(0,0,0,0.85)"/>
 </g>
</svg>
