<?xml version="1.0" encoding="UTF-8"?>
<!--Generator: Apple Native CoreSVG 175-->
<!DOCTYPE svg
PUBLIC "-//W3C//DTD SVG 1.1//EN"
       "http://www.w3.org/Graphics/SVG/1.1/DTD/svg11.dtd">
<svg version="1.1" xmlns="http://www.w3.org/2000/svg" xmlns:xlink="http://www.w3.org/1999/xlink" width="22.9492" height="18.3496">
 <g>
  <rect height="18.3496" opacity="0" width="22.9492" x="0" y="0"/>
  <path d="M1.98242 15.8203L20.9668 15.8203Q21.9531 15.8203 22.4512 15.3174Q22.9492 14.8145 22.9492 13.8281L22.9492 2.49023Q22.9492 1.51367 22.4512 1.01562Q21.9531 0.517578 20.9668 0.517578L1.98242 0.517578Q1.00586 0.517578 0.50293 1.01562Q0 1.51367 0 2.49023L0 13.8281Q0 14.8145 0.50293 15.3174Q1.00586 15.8203 1.98242 15.8203ZM2.02148 15.0879Q1.36719 15.0879 1.0498 14.7656Q0.732422 14.4434 0.732422 13.8086L0.732422 2.51953Q0.732422 1.875 1.0498 1.55762Q1.36719 1.24023 2.02148 1.24023L20.9375 1.24023Q21.582 1.24023 21.9043 1.55762Q22.2266 1.875 22.2266 2.51953L22.2266 13.8086Q22.2266 14.4434 21.9043 14.7656Q21.582 15.0879 20.9375 15.0879ZM6.80664 18.3496L16.1426 18.3496Q16.2988 18.3496 16.4062 18.2471Q16.5137 18.1445 16.5137 17.9883Q16.5137 17.832 16.4062 17.7295Q16.2988 17.627 16.1426 17.627L6.80664 17.627Q6.66016 17.627 6.54785 17.7295Q6.43555 17.832 6.43555 17.9883Q6.43555 18.1445 6.54785 18.2471Q6.66016 18.3496 6.80664 18.3496ZM14.0332 6.26953Q14.3457 6.19141 14.458 6.07422Q14.5703 5.95703 14.5703 5.56641L14.5703 3.93555Q14.5703 3.68164 14.458 3.58398Q14.3457 3.48633 13.9941 3.57422L11.5137 4.16016Q11.1914 4.23828 11.0986 4.36035Q11.0059 4.48242 11.0059 4.88281L11.0059 9.28711Q11.0059 9.57031 10.9277 9.66797Q10.8496 9.76562 10.5176 9.86328L9.6582 10.0977Q9.0625 10.2637 8.63281 10.6299Q8.20312 10.9961 8.20312 11.6211Q8.20312 12.1875 8.58887 12.5488Q8.97461 12.9102 9.62891 12.9102Q10.5664 12.9102 11.1084 12.3047Q11.6504 11.6992 11.6504 10.752L11.6504 7.2168Q11.6504 6.97266 11.709 6.88965Q11.7676 6.80664 11.9141 6.76758Z" fill="rgba(0,0,0,0.85)"/>
 </g>
</svg>
