<?xml version="1.0" encoding="UTF-8"?>
<!--Generator: Apple Native CoreSVG 175-->
<!DOCTYPE svg
PUBLIC "-//W3C//DTD SVG 1.1//EN"
       "http://www.w3.org/Graphics/SVG/1.1/DTD/svg11.dtd">
<svg version="1.1" xmlns="http://www.w3.org/2000/svg" xmlns:xlink="http://www.w3.org/1999/xlink" width="18.9902" height="20.0883">
 <g>
  <rect height="20.0883" opacity="0" width="18.9902" x="0" y="0"/>
  <path d="M9.61473 19.5197Q9.8874 19.5197 10.0653 19.3396Q10.2432 19.1596 10.2432 18.901L10.2432 11.5284L13.2616 8.74867Q14.1269 8.91499 15.0693 8.52749Q16.0117 8.13999 16.9307 7.22798L11.7566 2.05097Q10.8304 2.97016 10.4927 3.86273Q10.155 4.75529 10.3354 5.62596L1.23933 15.4506Q0.979931 15.7392 1.02723 16.0568Q1.07454 16.3744 1.46547 16.74L0.0326655 18.4357Q-0.00593919 18.4826 0.00107985 18.5404Q0.0080989 18.5982 0.0604365 18.6408L0.34364 18.9338Q0.40025 18.9878 0.453198 18.9904Q0.506146 18.9931 0.565502 18.9518L2.26121 17.5022Q2.60026 17.9003 2.92276 17.951Q3.24525 18.0017 3.5312 17.7353L8.98622 12.6963L8.98622 18.901Q8.98622 19.1596 9.16764 19.3396Q9.34907 19.5197 9.61473 19.5197ZM1.58433 15.9983L10.5913 6.37242Q10.7225 6.68568 10.9232 6.99139Q11.1238 7.2971 11.3725 7.59785Q11.6327 7.89585 11.9159 8.12031Q12.1991 8.34477 12.4999 8.48301L2.98906 17.4099ZM12.3956 1.43025L17.5585 6.59321Q18.4741 5.6873 18.8029 4.73805Q19.1316 3.7888 18.8834 2.87396Q18.6351 1.95912 17.8288 1.15284Q17.0155 0.349467 16.1021 0.104716Q15.1886-0.140035 14.2429 0.187266Q13.2971 0.514567 12.3956 1.43025Z" fill="rgba(0,0,0,0.85)"/>
 </g>
</svg>
