<?xml version="1.0" encoding="UTF-8"?>
<!--Generator: Apple Native CoreSVG 175-->
<!DOCTYPE svg
PUBLIC "-//W3C//DTD SVG 1.1//EN"
       "http://www.w3.org/Graphics/SVG/1.1/DTD/svg11.dtd">
<svg version="1.1" xmlns="http://www.w3.org/2000/svg" xmlns:xlink="http://www.w3.org/1999/xlink" width="26.904" height="10.3378">
 <g>
  <rect height="10.3378" opacity="0" width="26.904" x="0" y="0"/>
  <path d="M7.16919 10.3378Q9.21921 10.3378 10.8557 9.65446Q12.4922 8.9711 13.4485 7.70355Q14.4118 8.9711 16.0483 9.65446Q17.6848 10.3378 19.7348 10.3378Q21.2422 10.3378 22.5439 9.92027Q23.8457 9.50272 24.8267 8.75679Q25.8078 8.01086 26.3559 7.02591Q26.904 6.04095 26.904 4.90341Q26.904 4.21005 26.5839 3.79776Q26.2637 3.38547 25.6708 3.38547Q25.4707 3.38547 25.2592 3.47298Q25.0476 3.56049 24.8528 3.69064Q24.711 3.80264 24.3919 3.98415Q24.0727 4.16565 23.6604 4.30901Q23.248 4.45236 22.8235 4.45236Q21.9786 4.45236 21.3538 4.10484Q20.7289 3.75732 20.184 3.24387Q19.6391 2.73041 19.0436 2.21695Q18.448 1.70349 17.6715 1.35818Q16.895 1.01288 15.7922 1.01288Q15.0902 1.01288 14.5051 1.21948Q13.92 1.42609 13.4485 1.83823Q12.984 1.42609 12.3988 1.21948Q11.8137 1.01288 11.1047 1.01288Q10.002 1.01288 9.22539 1.35818Q8.44879 1.70349 7.85332 2.21695Q7.25784 2.73041 6.71646 3.24387Q6.17508 3.75732 5.55023 4.10484Q4.92538 4.45236 4.08051 4.45236Q3.65585 4.45236 3.24356 4.30901Q2.83127 4.16565 2.50862 3.98415Q2.18597 3.80264 2.04422 3.69064Q1.85623 3.56049 1.64124 3.47298Q1.42624 3.38547 1.23322 3.38547Q0.63324 3.38547 0.31662 3.79776Q0 4.21005 0 4.90341Q0 6.04095 0.548019 7.02591Q1.09604 8.01086 2.0771 8.75679Q3.05817 9.50272 4.35997 9.92027Q5.66177 10.3378 7.16919 10.3378ZM7.16919 9.60938Q5.83206 9.60938 4.6637 9.24919Q3.49533 8.88901 2.60956 8.24059Q1.72379 7.59216 1.2262 6.72516Q0.728607 5.85815 0.728607 4.85153Q0.728607 4.37225 1.03889 4.24454Q1.34918 4.11682 1.68442 4.32846Q2.0816 4.61487 2.73514 4.89784Q3.38867 5.18082 4.08051 5.18082Q4.85275 5.18082 5.46959 4.93202Q6.08643 4.68323 6.60439 4.29764Q7.12234 3.91205 7.60788 3.49213Q8.10593 3.0722 8.61824 2.66869Q9.13055 2.26517 9.73228 1.99974Q10.334 1.73431 11.1047 1.73431Q11.8008 1.73431 12.3606 1.9873Q12.9204 2.2403 13.2809 2.71286Q13.3461 2.80121 13.4485 2.80258Q13.5509 2.80396 13.6063 2.71286Q13.9738 2.2403 14.5385 1.9873Q15.1031 1.73431 15.7922 1.73431Q16.563 1.73431 17.1682 1.99974Q17.7734 2.26517 18.2858 2.66869Q18.7981 3.0722 19.2961 3.49213Q19.7746 3.91205 20.2961 4.29764Q20.8176 4.68323 21.4344 4.93202Q22.0512 5.18082 22.8235 5.18082Q23.5153 5.18082 24.1702 4.89861Q24.825 4.61639 25.2208 4.32465Q25.5586 4.10309 25.867 4.23431Q26.1754 4.36554 26.1754 4.85153Q26.1754 5.85815 25.6777 6.72516Q25.1801 7.59216 24.2944 8.24059Q23.4087 8.88901 22.2403 9.24919Q21.0719 9.60938 19.7348 9.60938Q17.6062 9.60938 16.0162 8.85017Q14.4261 8.09097 13.6633 6.73828Q13.5953 6.60538 13.4519 6.604Q13.3086 6.60263 13.2407 6.73828Q12.4805 8.09097 10.8904 8.85017Q9.30038 9.60938 7.16919 9.60938Z" fill="rgba(0,0,0,0.85)"/>
 </g>
</svg>
