<?xml version="1.0" encoding="UTF-8"?>
<!--Generator: Apple Native CoreSVG 175-->
<!DOCTYPE svg
PUBLIC "-//W3C//DTD SVG 1.1//EN"
       "http://www.w3.org/Graphics/SVG/1.1/DTD/svg11.dtd">
<svg version="1.1" xmlns="http://www.w3.org/2000/svg" xmlns:xlink="http://www.w3.org/1999/xlink" width="20.0821" height="17.9706">
 <g>
  <rect height="17.9706" opacity="0" width="20.0821" x="0" y="0"/>
  <path d="M5.26642 0L0.390625 0Q0.227814 0 0.113907 0.11322Q0 0.22644 0 0.386658Q0 0.539856 0.113907 0.654526Q0.227814 0.769196 0.390625 0.769196L5.17975 0.769196Q5.4715 0.769196 5.71815 0.93338Q5.96481 1.09756 6.07925 1.35315L13.1406 17.0578Q13.3296 17.4902 13.7064 17.7304Q14.0833 17.9706 14.6234 17.9706L19.6913 17.9706Q19.8543 17.9706 19.9682 17.856Q20.0821 17.7414 20.0821 17.5839Q20.0821 17.4307 19.9682 17.3161Q19.8543 17.2014 19.6913 17.2014L14.7183 17.2014Q14.0675 17.2014 13.8289 16.6835L6.78284 0.995636Q6.58524 0.555878 6.17996 0.277939Q5.77469 0 5.26642 0ZM19.6913 0L12.3114 0Q12.1457 0 12.0332 0.111923Q11.9206 0.223846 11.9206 0.383911Q11.9206 0.544128 12.0332 0.653915Q12.1457 0.763702 12.3114 0.763702L19.6913 0.763702Q19.8543 0.763702 19.9668 0.653915Q20.0793 0.544128 20.0793 0.383911Q20.0793 0.223846 19.9668 0.111923Q19.8543 0 19.6913 0Z" fill="rgba(0,0,0,0.85)"/>
 </g>
</svg>
