<?xml version="1.0" encoding="UTF-8"?>
<!--Generator: Apple Native CoreSVG 175-->
<!DOCTYPE svg
PUBLIC "-//W3C//DTD SVG 1.1//EN"
       "http://www.w3.org/Graphics/SVG/1.1/DTD/svg11.dtd">
<svg version="1.1" xmlns="http://www.w3.org/2000/svg" xmlns:xlink="http://www.w3.org/1999/xlink" width="23.1985" height="17.6248">
 <g>
  <rect height="17.6248" opacity="0" width="23.1985" x="0" y="0"/>
  <path d="M0 8.80753Q0 10.7021 0.852509 12.3138Q1.70502 13.9255 3.256 15.1155Q4.80698 16.3055 6.93024 16.9652Q9.0535 17.6248 11.5993 17.6248Q14.1406 17.6248 16.2625 16.9652Q18.3844 16.3055 19.9389 15.1155Q21.4934 13.9255 22.346 12.3138Q23.1985 10.7021 23.1985 8.80753Q23.1985 6.90323 22.346 5.29991Q21.4934 3.69659 19.9389 2.50793Q18.3844 1.31927 16.2625 0.659637Q14.1406 0 11.5993 0Q9.0535 0 6.93024 0.659637Q4.80698 1.31927 3.256 2.50793Q1.70502 3.69659 0.852509 5.29991Q0 6.90323 0 8.80753ZM0.728607 8.80753L22.4699 8.80753Q22.4699 10.536 21.6713 12.0109Q20.8727 13.4857 19.4157 14.5818Q17.9587 15.6778 15.9688 16.2835Q13.9789 16.8892 11.5993 16.8892Q9.21951 16.8892 7.23106 16.2835Q5.24261 15.6778 3.78418 14.5818Q2.32574 13.4857 1.52718 12.0109Q0.728607 10.536 0.728607 8.80753Z" fill="rgba(0,0,0,0.85)"/>
 </g>
</svg>
