<?xml version="1.0" encoding="UTF-8"?>
<!--Generator: Apple Native CoreSVG 175-->
<!DOCTYPE svg
PUBLIC "-//W3C//DTD SVG 1.1//EN"
       "http://www.w3.org/Graphics/SVG/1.1/DTD/svg11.dtd">
<svg version="1.1" xmlns="http://www.w3.org/2000/svg" xmlns:xlink="http://www.w3.org/1999/xlink" width="16.6594" height="21.8982">
 <g>
  <rect height="21.8982" opacity="0" width="16.6594" x="0" y="0"/>
  <path d="M8.32901 0Q6.48865 0 4.96132 0.798264Q3.43399 1.59653 2.32208 3.0571Q1.21017 4.51767 0.605087 6.52412Q0 8.53058 0 10.9442Q0 13.3578 0.605087 15.3608Q1.21017 17.3637 2.32208 18.8278Q3.43399 20.2919 4.96132 21.0902Q6.48865 21.8884 8.32901 21.8884Q10.1805 21.8884 11.7078 21.0937Q13.2352 20.2989 14.3436 18.8383Q15.452 17.3778 16.0557 15.3713Q16.6594 13.3649 16.6594 10.9442Q16.6594 8.52081 16.0557 6.51573Q15.452 4.51065 14.3436 3.05008Q13.2352 1.58951 11.7078 0.794754Q10.1805 0 8.32901 0ZM8.32901 0.721588Q10.0047 0.721588 11.3987 1.46591Q12.7927 2.21024 13.8071 3.57681Q14.8215 4.94339 15.3762 6.81648Q15.9309 8.68958 15.9309 10.9442Q15.9309 13.1989 15.3762 15.0706Q14.8215 16.9423 13.8071 18.3054Q12.7927 19.6684 11.3987 20.4141Q10.0047 21.1598 8.32901 21.1598Z" fill="rgba(0,0,0,0.85)"/>
 </g>
</svg>
