<?xml version="1.0" encoding="UTF-8"?>
<!--Generator: Apple Native CoreSVG 175-->
<!DOCTYPE svg
PUBLIC "-//W3C//DTD SVG 1.1//EN"
       "http://www.w3.org/Graphics/SVG/1.1/DTD/svg11.dtd">
<svg version="1.1" xmlns="http://www.w3.org/2000/svg" xmlns:xlink="http://www.w3.org/1999/xlink" width="22.5974" height="18.8278">
 <g>
  <rect height="18.8278" opacity="0" width="22.5974" x="0" y="0"/>
  <path d="M12.1797 18.6325Q14.0855 18.6325 15.5217 18.2346Q16.9579 17.8368 17.7645 17.1281Q18.5712 16.4195 18.5712 15.493Q18.5712 14.7984 18.3186 14.3656Q18.0661 13.9328 17.7332 13.6045Q17.4004 13.2762 17.1478 12.9218Q16.8953 12.5673 16.8953 12.0488Q16.8953 11.5247 17.309 11.1546Q17.7226 10.7845 18.3707 10.472Q19.0189 10.1595 19.745 9.81514Q20.4712 9.47083 21.1241 8.99536Q21.777 8.5199 22.1872 7.82539Q22.5974 7.13089 22.5974 6.11801Q22.5974 4.73907 21.9071 3.61252Q21.2169 2.48596 19.9339 1.67656Q18.6508 0.867157 16.8686 0.433578Q15.0864 0 12.9024 0Q9.99847 0 7.6268 0.677719Q5.25513 1.35544 3.54942 2.60918Q1.84372 3.86292 0.92186 5.60608Q0 7.34924 0 9.48715Q0 11.5302 0.873032 13.2133Q1.74606 14.8965 3.35899 16.1077Q4.97192 17.3189 7.21039 17.9757Q9.44885 18.6325 12.1797 18.6325ZM12.1797 17.8836Q9.60083 17.8836 7.49985 17.2842Q5.39886 16.6847 3.88542 15.5717Q2.37198 14.4586 1.56044 12.9143Q0.748901 11.3699 0.748901 9.48715Q0.748901 7.51648 1.61278 5.90866Q2.47665 4.30084 4.08287 3.14384Q5.68909 1.98685 7.92328 1.36436Q10.1575 0.741882 12.9024 0.741882Q15.5902 0.741882 17.6049 1.41472Q19.6196 2.08755 20.7375 3.29651Q21.8555 4.50546 21.8555 6.11801Q21.8555 7.03796 21.4404 7.65144Q21.0254 8.26492 20.376 8.67935Q19.7266 9.09378 18.999 9.42444Q18.2715 9.7551 17.6172 10.0989Q16.9629 10.4427 16.5527 10.9112Q16.1426 11.3797 16.1426 12.0938Q16.1426 12.6907 16.3965 13.0999Q16.6504 13.5091 16.9824 13.8374Q17.3145 14.1656 17.5684 14.5193Q17.8223 14.873 17.8223 15.3661Q17.8223 16.5356 16.3078 17.2096Q14.7934 17.8836 12.1797 17.8836ZM11.3789 15.354Q12.1915 15.354 12.8594 14.9561Q13.5274 14.5583 13.9217 13.8903Q14.3161 13.2224 14.3161 12.4071Q14.3161 11.6043 13.9217 10.9364Q13.5274 10.2684 12.8594 9.87053Q12.1915 9.47266 11.3789 9.47266Q10.5664 9.47266 9.89845 9.87053Q9.2305 10.2684 8.83263 10.9364Q8.43475 11.6043 8.43475 12.4071Q8.43475 13.2224 8.83263 13.8903Q9.2305 14.5583 9.89845 14.9561Q10.5664 15.354 11.3789 15.354ZM11.3789 14.7273Q10.7356 14.7273 10.2104 14.4189Q9.68521 14.1106 9.37332 13.5805Q9.06143 13.0504 9.06143 12.4071Q9.06143 11.7598 9.37607 11.2373Q9.6907 10.7149 10.2145 10.405Q10.7384 10.0951 11.3734 10.0951Q12.0087 10.0923 12.5365 10.4008Q13.0644 10.7094 13.3804 11.2318Q13.6964 11.7543 13.6964 12.4071Q13.6964 13.0504 13.3846 13.5805Q13.0727 14.1106 12.5475 14.4189Q12.0222 14.7273 11.3789 14.7273ZM4.47464 10.5649Q5.02899 10.5649 5.42877 10.1553Q5.82855 9.74579 5.82855 9.18442Q5.82855 8.61603 5.43579 8.22327Q5.04303 7.83051 4.47464 7.83051Q3.91602 7.83051 3.51135 8.22678Q3.10669 8.62305 3.10669 9.18442Q3.10669 9.74579 3.51486 10.1553Q3.92303 10.5649 4.47464 10.5649ZM8.03909 7.60864Q8.86063 7.60864 9.43306 7.03758Q10.0055 6.46652 10.0055 5.6395Q10.0055 4.84177 9.42955 4.27208Q8.85361 3.70239 8.03909 3.70239Q7.20779 3.70239 6.62834 4.26506Q6.04889 4.82773 6.04889 5.6395Q6.04889 6.46652 6.62834 7.03758Q7.20779 7.60864 8.03909 7.60864ZM12.9903 5.92819Q13.6035 5.92819 14.0223 5.50453Q14.4411 5.08087 14.4411 4.46762Q14.4411 3.86139 14.0223 3.43559Q13.6035 3.0098 12.9903 3.0098Q12.3798 3.0098 11.9477 3.44048Q11.5157 3.87115 11.5157 4.46762Q11.5157 5.07385 11.9477 5.50102Q12.3798 5.92819 12.9903 5.92819ZM17.4602 6.52512Q17.9156 6.52512 18.2346 6.20125Q18.5536 5.87738 18.5536 5.40512Q18.5536 4.94263 18.2311 4.61525Q17.9086 4.28787 17.4602 4.28787Q16.9879 4.28787 16.6521 4.61525Q16.3164 4.94263 16.3164 5.40512Q16.3164 5.87036 16.6486 6.19774Q16.9809 6.52512 17.4602 6.52512Z" fill="rgba(0,0,0,0.85)"/>
 </g>
</svg>
