<?xml version="1.0" encoding="UTF-8"?>
<!--Generator: Apple Native CoreSVG 175-->
<!DOCTYPE svg
PUBLIC "-//W3C//DTD SVG 1.1//EN"
       "http://www.w3.org/Graphics/SVG/1.1/DTD/svg11.dtd">
<svg version="1.1" xmlns="http://www.w3.org/2000/svg" xmlns:xlink="http://www.w3.org/1999/xlink" width="19.1602" height="19.6582">
 <g>
  <rect height="19.6582" opacity="0" width="19.1602" x="0" y="0"/>
  <path d="M9.57031 19.6582Q11.5527 19.6582 13.2861 18.916Q15.0195 18.1738 16.3379 16.8506Q17.6562 15.5273 18.4082 13.7939Q19.1602 12.0605 19.1602 10.0879Q19.1602 8.11523 18.4082 6.38184Q17.6562 4.64844 16.3379 3.3252Q15.0195 2.00195 13.2861 1.25977Q11.5527 0.517578 9.57031 0.517578Q7.59766 0.517578 5.86426 1.25977Q4.13086 2.00195 2.81738 3.3252Q1.50391 4.64844 0.751953 6.38184Q0 8.11523 0 10.0879Q0 12.0605 0.74707 13.7939Q1.49414 15.5273 2.8125 16.8506Q4.13086 18.1738 5.86914 18.916Q7.60742 19.6582 9.57031 19.6582ZM9.84375 16.4746Q9.60938 16.4746 9.48242 16.3037Q9.35547 16.1328 9.24805 15.791L8.08594 11.9922Q8.03711 11.8359 8.06641 11.7041Q8.0957 11.5723 8.20312 11.4648L14.1211 5.3125Q14.1992 5.19531 14.1309 5.15625Q14.0625 5.10742 13.9746 5.16602L7.82227 11.084Q7.71484 11.1816 7.58301 11.2109Q7.45117 11.2402 7.30469 11.1914L3.47656 10.0293Q3.14453 9.93164 2.97852 9.7998Q2.8125 9.66797 2.8125 9.43359Q2.8125 9.21875 2.95898 9.07227Q3.10547 8.92578 3.38867 8.81836L13.7402 4.85352Q13.9746 4.77539 14.1211 4.77539Q14.2969 4.77539 14.4043 4.87793Q14.5117 4.98047 14.5117 5.16602Q14.5117 5.3125 14.4336 5.54688L10.4688 15.8887Q10.3613 16.1816 10.21 16.3281Q10.0586 16.4746 9.84375 16.4746Z" fill="rgba(0,0,0,0.85)"/>
 </g>
</svg>
