<?xml version="1.0" encoding="UTF-8"?>
<!--Generator: Apple Native CoreSVG 175-->
<!DOCTYPE svg
PUBLIC "-//W3C//DTD SVG 1.1//EN"
       "http://www.w3.org/Graphics/SVG/1.1/DTD/svg11.dtd">
<svg version="1.1" xmlns="http://www.w3.org/2000/svg" xmlns:xlink="http://www.w3.org/1999/xlink" width="19.1602" height="19.1504">
 <g>
  <rect height="19.1504" opacity="0" width="19.1602" x="0" y="0"/>
  <path d="M9.57031 19.1406Q11.5527 19.1406 13.2861 18.3984Q15.0195 17.6562 16.3379 16.333Q17.6562 15.0098 18.4082 13.2764Q19.1602 11.543 19.1602 9.57031Q19.1602 7.59766 18.4082 5.86426Q17.6562 4.13086 16.3379 2.80762Q15.0195 1.48438 13.2861 0.742188Q11.5527 0 9.57031 0Q7.59766 0 5.86426 0.742188Q4.13086 1.48438 2.81738 2.80762Q1.50391 4.13086 0.751953 5.86426Q0 7.59766 0 9.57031Q0 11.543 0.74707 13.2764Q1.49414 15.0098 2.8125 16.333Q4.13086 17.6562 5.86914 18.3984Q7.60742 19.1406 9.57031 19.1406ZM9.57031 18.3984Q7.74414 18.3984 6.14746 17.71Q4.55078 17.0215 3.33496 15.8105Q2.11914 14.5996 1.43555 12.998Q0.751953 11.3965 0.751953 9.57031Q0.751953 7.74414 1.43555 6.14258Q2.11914 4.54102 3.33496 3.3252Q4.55078 2.10938 6.14746 1.4209Q7.74414 0.732422 9.57031 0.732422Q11.4062 0.732422 13.0029 1.4209Q14.5996 2.10938 15.8154 3.3252Q17.0312 4.54102 17.7197 6.14258Q18.4082 7.74414 18.4082 9.57031Q18.4082 11.3965 17.7246 12.998Q17.041 14.5996 15.8252 15.8105Q14.6094 17.0215 13.0078 17.71Q11.4062 18.3984 9.57031 18.3984ZM4.57031 8.69141Q4.57031 9.44336 4.8877 9.91211Q5.20508 10.3809 5.71289 10.3809Q6.2207 10.3809 6.53809 9.91211Q6.85547 9.44336 6.85547 8.69141Q6.85547 7.92969 6.53809 7.46094Q6.2207 6.99219 5.71289 6.99219Q5.20508 6.99219 4.8877 7.46094Q4.57031 7.92969 4.57031 8.69141ZM6.88477 5.9375Q6.88477 6.69922 7.20703 7.16797Q7.5293 7.63672 8.02734 7.63672Q8.54492 7.63672 8.8623 7.16797Q9.17969 6.69922 9.17969 5.9375Q9.17969 5.18555 8.8623 4.7168Q8.54492 4.24805 8.02734 4.24805Q7.5293 4.24805 7.20703 4.71191Q6.88477 5.17578 6.88477 5.9375ZM9.99023 5.9375Q9.99023 6.69922 10.3076 7.16797Q10.625 7.63672 11.1328 7.63672Q11.6504 7.63672 11.9629 7.16797Q12.2754 6.69922 12.2754 5.9375Q12.2754 5.17578 11.9629 4.71191Q11.6504 4.24805 11.1328 4.24805Q10.625 4.24805 10.3076 4.7168Q9.99023 5.18555 9.99023 5.9375ZM12.3047 8.69141Q12.3047 9.44336 12.6221 9.91211Q12.9395 10.3809 13.457 10.3809Q13.9551 10.3809 14.2725 9.91211Q14.5898 9.44336 14.5898 8.69141Q14.5898 7.92969 14.2725 7.46094Q13.9551 6.99219 13.457 6.99219Q12.9395 6.99219 12.6221 7.46094Q12.3047 7.92969 12.3047 8.69141ZM5.88867 12.5977Q5.88867 13.2812 6.35742 13.7305Q6.82617 14.1797 7.54883 14.1797Q7.90039 14.1797 8.18359 14.0918Q8.4668 14.0039 8.71094 13.9062Q8.92578 13.8184 9.13574 13.75Q9.3457 13.6816 9.58984 13.6816Q9.81445 13.6816 10.0195 13.75Q10.2246 13.8184 10.4492 13.9062Q10.6836 14.0039 10.9668 14.0918Q11.25 14.1797 11.6113 14.1797Q12.334 14.1797 12.793 13.7305Q13.252 13.2812 13.252 12.5977Q13.252 11.9336 12.9102 11.5332Q12.5684 11.1328 12.1973 10.8203Q11.9922 10.6543 11.8213 10.5029Q11.6504 10.3516 11.543 10.1758Q11.4551 10.0391 11.377 9.87793Q11.2988 9.7168 11.2402 9.54102Q11.0742 9.17969 10.874 8.81836Q10.6738 8.45703 10.3711 8.21777Q10.0684 7.97852 9.58984 7.97852Q9.0918 7.97852 8.78418 8.22266Q8.47656 8.4668 8.28125 8.82324Q8.08594 9.17969 7.92969 9.54102Q7.85156 9.70703 7.7832 9.86328Q7.71484 10.0195 7.63672 10.1465Q7.51953 10.3418 7.34375 10.498Q7.16797 10.6543 6.96289 10.8203Q6.5918 11.1328 6.24023 11.5332Q5.88867 11.9336 5.88867 12.5977Z" fill="rgba(0,0,0,0.85)"/>
 </g>
</svg>
