<?xml version="1.0" encoding="UTF-8"?>
<!--Generator: Apple Native CoreSVG 175-->
<!DOCTYPE svg
PUBLIC "-//W3C//DTD SVG 1.1//EN"
       "http://www.w3.org/Graphics/SVG/1.1/DTD/svg11.dtd">
<svg version="1.1" xmlns="http://www.w3.org/2000/svg" xmlns:xlink="http://www.w3.org/1999/xlink" width="15.4383" height="16.2629">
 <g>
  <rect height="16.2629" opacity="0" width="15.4383" x="0" y="0"/>
  <path d="M2.13605 15.2816L7.78806 9.6297L6.66257 8.50864L1.01499 14.1422L0.023929 16.0077Q-0.0374114 16.1203 0.0584901 16.2084Q0.154392 16.2964 0.252811 16.2423ZM9.58615 7.84137L13.7254 3.70197L12.6071 2.57389L8.45792 6.71604ZM14.3879 3.04492L15.1283 2.31723Q15.429 2.0235 15.4381 1.74671Q15.4471 1.46991 15.1782 1.19846L15.0853 1.10813Q14.8376 0.85773 14.5503 0.880008Q14.263 0.902286 13.9903 1.17923L13.2544 1.9028ZM14.2309 14.8102Q14.3333 14.9152 14.4854 14.9152Q14.6376 14.9152 14.74 14.8102Q14.8564 14.6981 14.8494 14.5521Q14.8423 14.4062 14.74 14.3012L2.32389 1.8851Q2.22592 1.78714 2.0773 1.78005Q1.92868 1.77295 1.81226 1.8851Q1.70987 1.98749 1.70987 2.13962Q1.70987 2.29175 1.81226 2.39414Z" fill="rgba(0,0,0,0.85)"/>
 </g>
</svg>
