<?xml version="1.0" encoding="UTF-8"?>
<!--Generator: Apple Native CoreSVG 175-->
<!DOCTYPE svg
PUBLIC "-//W3C//DTD SVG 1.1//EN"
       "http://www.w3.org/Graphics/SVG/1.1/DTD/svg11.dtd">
<svg version="1.1" xmlns="http://www.w3.org/2000/svg" xmlns:xlink="http://www.w3.org/1999/xlink" width="31.8863" height="21.9775">
 <g>
  <rect height="21.9775" opacity="0" width="31.8863" x="0" y="0"/>
  <path d="M11.9133 19.9117L24.9664 19.9117Q26.698 19.9117 26.698 18.6234Q26.698 17.6804 26.1262 16.6245Q25.5544 15.5687 24.4775 14.6455Q23.4007 13.7222 21.8729 13.1413Q20.345 12.5604 18.4398 12.5604Q16.525 12.5604 15.0005 13.1413Q13.4761 13.7222 12.3994 14.6455Q11.3226 15.5687 10.7507 16.6245Q10.1788 17.6804 10.1788 18.6234Q10.1788 19.9117 11.9133 19.9117ZM11.8172 19.2033Q11.2915 19.2033 11.096 19.0675Q10.9004 18.9316 10.9004 18.5855Q10.9004 17.7718 11.4086 16.8485Q11.9168 15.9253 12.892 15.112Q13.8672 14.2987 15.2644 13.7837Q16.6617 13.2687 18.4398 13.2687Q20.218 13.2687 21.6139 13.7837Q23.0098 14.2987 23.9828 15.112Q24.9559 15.9253 25.4662 16.8485Q25.9766 17.7718 25.9766 18.5855Q25.9766 18.9316 25.7775 19.0675Q25.5785 19.2033 25.0626 19.2033ZM18.461 11.051Q19.5668 11.051 20.4606 10.4682Q21.3544 9.88541 21.88 8.89809Q22.4055 7.91077 22.4055 6.67923Q22.4055 5.49958 21.8707 4.53095Q21.3359 3.56232 20.4422 2.98424Q19.5485 2.40616 18.461 2.40616Q17.3691 2.40616 16.4684 2.98699Q15.5676 3.56781 15.035 4.54125Q14.5024 5.51468 14.5094 6.68473Q14.5192 7.9065 15.0434 8.89733Q15.5676 9.88816 16.4578 10.4696Q17.348 11.051 18.461 11.051ZM18.461 10.3429Q17.5583 10.3429 16.8276 9.861Q16.097 9.37912 15.6674 8.5495Q15.2379 7.71988 15.2379 6.68473Q15.2238 5.70145 15.659 4.88915Q16.0942 4.07685 16.8319 3.59207Q17.5696 3.1073 18.461 3.1073Q19.348 3.1073 20.0787 3.58933Q20.8093 4.07135 21.2466 4.88366Q21.684 5.69596 21.684 6.67923Q21.684 7.71439 21.2524 8.54538Q20.8208 9.37638 20.0936 9.85962Q19.3665 10.3429 18.461 10.3429ZM1.50711 19.9117L10.0589 19.9117Q9.8761 19.8148 9.72046 19.6323Q9.56482 19.4499 9.50821 19.2186L1.45981 19.2186Q1.04614 19.2186 0.874481 19.0602Q0.70282 18.9018 0.70282 18.5332Q0.70282 17.4632 1.21643 16.5038Q1.73004 15.5444 2.62695 14.803Q3.52386 14.0616 4.6965 13.6408Q5.86914 13.2199 7.19421 13.2199Q8.04138 13.2199 8.82011 13.3843Q9.59885 13.5487 10.2901 13.8679Q10.9813 14.187 11.5652 14.6671Q11.687 14.5358 11.8163 14.4212Q11.9456 14.3065 12.0921 14.1943Q11.425 13.6479 10.6432 13.2782Q9.8613 12.9085 8.99277 12.7177Q8.12424 12.5269 7.19421 12.5269Q5.56961 12.5269 4.24789 13.0522Q2.92618 13.5776 1.97601 14.453Q1.02585 15.3284 0.512924 16.396Q0 17.4635 0 18.5507Q0 19.2416 0.374985 19.5766Q0.749969 19.9117 1.50711 19.9117ZM7.211 11.2659Q8.18161 11.2659 8.96385 10.7591Q9.74609 10.2522 10.2041 9.38835Q10.6621 8.52448 10.6621 7.44645Q10.6621 6.41861 10.1936 5.56862Q9.72504 4.71863 8.94417 4.21242Q8.1633 3.70621 7.211 3.70621Q6.26129 3.70621 5.47691 4.2173Q4.69254 4.7284 4.22966 5.57762Q3.76678 6.42685 3.7738 7.44477Q3.78784 8.52723 4.24019 9.38973Q4.69254 10.2522 5.46989 10.7591Q6.24725 11.2659 7.211 11.2659ZM7.211 10.5632Q6.44653 10.5632 5.82405 10.1546Q5.20157 9.74594 4.8391 9.03832Q4.47662 8.33069 4.47662 7.44477Q4.47662 6.62064 4.84612 5.92766Q5.21561 5.23468 5.83672 4.82178Q6.45782 4.40888 7.211 4.40888Q7.96677 4.40888 8.59276 4.82041Q9.21875 5.23194 9.59045 5.91866Q9.96216 6.60538 9.96216 7.44645Q9.96216 8.32795 9.5961 9.03694Q9.23004 9.74594 8.60764 10.1546Q7.98523 10.5632 7.211 10.5632ZM26.1516 10.7057Q26.2761 10.7901 26.4137 10.7667Q26.5512 10.7433 26.6481 10.6148Q27.2075 9.89365 27.56 8.88665Q27.9124 7.87964 27.9124 6.67923Q27.9124 5.47882 27.56 4.47174Q27.2075 3.46466 26.6481 2.74369Q26.5512 2.61505 26.4137 2.5895Q26.2761 2.56394 26.1516 2.65259Q26.0176 2.74521 25.9982 2.89658Q25.9789 3.04795 26.0867 3.19596Q26.6499 3.96469 26.9251 4.80576Q27.2003 5.64682 27.2003 6.67923Q27.2003 7.71164 26.9238 8.55126Q26.6472 9.39087 26.0867 10.1624Q25.9816 10.3131 25.9996 10.4596Q26.0176 10.6061 26.1516 10.7057ZM29.3219 13.2898Q29.4547 13.3769 29.5922 13.3534Q29.7298 13.3299 29.8267 13.2014Q30.7642 11.9757 31.3252 10.2518Q31.8863 8.52799 31.8863 6.67923Q31.8863 4.83033 31.3265 3.10379Q30.7668 1.37726 29.8267 0.156864Q29.7298 0.0283847 29.5922 0.00496248Q29.4547-0.0184598 29.3219 0.0686679Q29.1917 0.162815 29.1773 0.30167Q29.1629 0.440525 29.2625 0.588535Q30.1828 1.82694 30.6785 3.39096Q31.1742 4.95499 31.1742 6.67923Q31.1742 8.40348 30.6771 9.96613Q30.1801 11.5288 29.2625 12.7698Q29.1629 12.9108 29.1773 13.0532Q29.1917 13.1957 29.3219 13.2898Z" fill="rgba(0,0,0,0.85)"/>
 </g>
</svg>
