<?xml version="1.0" encoding="UTF-8"?>
<!--Generator: Apple Native CoreSVG 175-->
<!DOCTYPE svg
PUBLIC "-//W3C//DTD SVG 1.1//EN"
       "http://www.w3.org/Graphics/SVG/1.1/DTD/svg11.dtd">
<svg version="1.1" xmlns="http://www.w3.org/2000/svg" xmlns:xlink="http://www.w3.org/1999/xlink" width="31.752" height="21.9775">
 <g>
  <rect height="21.9775" opacity="0" width="31.752" x="0" y="0"/>
  <path d="M11.7735 19.7745L24.8293 19.7745Q25.616 19.7745 26.0166 19.5142Q26.4172 19.2538 26.4172 18.6234Q26.4172 17.6929 25.8565 16.662Q25.2957 15.6311 24.2369 14.7286Q23.1781 13.8261 21.6772 13.2619Q20.1762 12.6976 18.3 12.6976Q16.4265 12.6976 14.9256 13.2619Q13.4247 13.8261 12.3694 14.7286Q11.3141 15.6311 10.7498 16.662Q10.1855 17.6929 10.1855 18.6234Q10.1855 19.2538 10.5862 19.5142Q10.9868 19.7745 11.7735 19.7745ZM18.3238 10.9425Q19.3898 10.9425 20.2504 10.3818Q21.111 9.82102 21.6178 8.862Q22.1246 7.90299 22.1246 6.71051Q22.1246 5.57251 21.6143 4.63089Q21.104 3.68927 20.2399 3.12836Q19.3758 2.56745 18.3238 2.56745Q17.2719 2.56745 16.4043 3.13111Q15.5367 3.69477 15.0228 4.63776Q14.509 5.58075 14.516 6.70884Q14.516 7.90573 15.0263 8.86338Q15.5367 9.82102 16.3972 10.3818Q17.2578 10.9425 18.3238 10.9425ZM1.36719 19.7745L9.76639 19.7745Q9.36447 19.485 9.30527 18.8444Q9.24606 18.2037 9.50348 17.3866Q9.76089 16.5694 10.3101 15.7321Q10.8594 14.8949 11.6757 14.2093Q10.8722 13.5358 9.73045 13.095Q8.58871 12.6543 7.05978 12.6543Q5.43045 12.6543 4.12483 13.1786Q2.81921 13.703 1.90063 14.5692Q0.982056 15.4355 0.491028 16.4769Q0 17.5183 0 18.555Q0 19.1953 0.346298 19.4849Q0.692596 19.7745 1.36719 19.7745ZM7.08359 11.1601Q8.01285 11.1601 8.76328 10.6726Q9.5137 10.1851 9.95567 9.35166Q10.3976 8.51822 10.3976 7.47055Q10.3976 6.47919 9.94865 5.66101Q9.49966 4.84284 8.74924 4.35517Q7.99881 3.8675 7.08359 3.8675Q6.16837 3.8675 5.41306 4.35791Q4.65775 4.84833 4.21227 5.66788Q3.76678 6.48743 3.7738 7.47605Q3.7738 8.52097 4.21227 9.35303Q4.65073 10.1851 5.40115 10.6726Q6.15158 11.1601 7.08359 11.1601ZM26.0144 10.7057Q26.1418 10.7901 26.2793 10.7667Q26.4168 10.7433 26.5137 10.6148Q27.0731 9.89365 27.4256 8.88665Q27.7782 7.87964 27.7782 6.67923Q27.7782 5.47882 27.4256 4.47174Q27.0731 3.46466 26.5137 2.74369Q26.4168 2.61505 26.2793 2.5895Q26.1418 2.56394 26.0144 2.65259Q25.8832 2.74521 25.8639 2.89658Q25.8446 3.04795 25.9523 3.19596Q26.5157 3.96469 26.7908 4.80576Q27.066 5.64682 27.066 6.67923Q27.066 7.71164 26.7895 8.55126Q26.5129 9.39087 25.9523 10.1624Q25.8472 10.3131 25.8652 10.4596Q25.8832 10.6061 26.0144 10.7057ZM29.1875 13.2898Q29.3204 13.3769 29.4579 13.3534Q29.5953 13.3299 29.6922 13.2014Q30.6367 11.9757 31.1944 10.2518Q31.752 8.52799 31.752 6.67923Q31.752 4.83033 31.1944 3.10379Q30.6367 1.37726 29.6922 0.156864Q29.5953 0.0283847 29.4579 0.00496248Q29.3204-0.0184598 29.1875 0.0686679Q29.0547 0.162815 29.0402 0.30167Q29.0257 0.440525 29.1281 0.588535Q30.0484 1.82694 30.5441 3.39096Q31.0399 4.95499 31.0399 6.67923Q31.0399 8.40348 30.5463 9.96613Q30.0528 11.5288 29.1281 12.7698Q29.0285 12.9108 29.0416 13.0532Q29.0547 13.1957 29.1875 13.2898Z" fill="rgba(0,0,0,0.85)"/>
 </g>
</svg>
