<?xml version="1.0" encoding="UTF-8"?>
<!--Generator: Apple Native CoreSVG 175-->
<!DOCTYPE svg
PUBLIC "-//W3C//DTD SVG 1.1//EN"
       "http://www.w3.org/Graphics/SVG/1.1/DTD/svg11.dtd">
<svg version="1.1" xmlns="http://www.w3.org/2000/svg" xmlns:xlink="http://www.w3.org/1999/xlink" width="21.7075" height="21.9775">
 <g>
  <rect height="21.9775" opacity="0" width="21.7075" x="0" y="0"/>
  <path d="M1.74149 19.9117L14.7874 19.9117Q16.5262 19.9117 16.5262 18.6234Q16.5262 17.6804 15.9557 16.6245Q15.3851 15.5687 14.3049 14.6455Q13.2246 13.7222 11.6988 13.1413Q10.173 12.5604 8.26797 12.5604Q6.35315 12.5604 4.82872 13.1413Q3.30429 13.7222 2.22404 14.6455Q1.1438 15.5687 0.571899 16.6245Q0 17.6804 0 18.6234Q0 19.9117 1.74149 19.9117ZM1.63834 19.2033Q1.11954 19.2033 0.924072 19.0675Q0.728607 18.9316 0.728607 18.5855Q0.728607 17.7718 1.2368 16.8485Q1.745 15.9253 2.71667 15.112Q3.68835 14.2987 5.08911 13.7837Q6.48987 13.2687 8.26797 13.2687Q10.0461 13.2687 11.442 13.7837Q12.8378 14.2987 13.8109 15.112Q14.7839 15.9253 15.2908 16.8485Q15.7976 17.7718 15.7976 18.5855Q15.7976 18.9316 15.6021 19.0675Q15.4066 19.2033 14.8906 19.2033ZM8.28201 11.051Q9.39499 11.051 10.2887 10.4682Q11.1824 9.88541 11.708 8.89809Q12.2336 7.91077 12.2336 6.67923Q12.2336 5.49958 11.6988 4.53095Q11.1641 3.56232 10.2668 2.98424Q9.36951 2.40616 8.28201 2.40616Q7.19299 2.40616 6.29433 2.98699Q5.39566 3.56781 4.85954 4.54125Q4.32343 5.51468 4.33746 6.68473Q4.34723 7.9065 4.87282 8.89733Q5.39841 9.88816 6.28868 10.4696Q7.17896 11.051 8.28201 11.051ZM8.28201 10.3429Q7.3793 10.3429 6.64864 9.861Q5.91797 9.37912 5.48851 8.5495Q5.05905 7.71988 5.05905 6.68473Q5.05203 5.70145 5.48714 4.88915Q5.92224 4.07685 6.65993 3.59207Q7.39761 3.1073 8.28201 3.1073Q9.16916 3.1073 9.90334 3.58933Q10.6375 4.07135 11.0713 4.88366Q11.5051 5.69596 11.5051 6.67923Q11.5051 7.71439 11.077 8.54538Q10.6488 9.37638 9.91814 9.85962Q9.18747 10.3429 8.28201 10.3429ZM15.9726 10.7057Q16.0973 10.7901 16.2383 10.7667Q16.3792 10.7433 16.4691 10.6148Q17.0355 9.89365 17.3881 8.88665Q17.7406 7.87964 17.7406 6.67923Q17.7406 5.47882 17.3881 4.47174Q17.0355 3.46466 16.4691 2.74369Q16.3792 2.61505 16.2383 2.5895Q16.0973 2.56394 15.9726 2.65259Q15.8456 2.74521 15.8277 2.89658Q15.8098 3.04795 15.9148 3.19596Q16.4781 3.96469 16.7498 4.80576Q17.0215 5.64682 17.0215 6.67923Q17.0215 7.71164 16.7484 8.55126Q16.4754 9.39087 15.9148 10.1624Q15.8028 10.3131 15.8242 10.4596Q15.8456 10.6061 15.9726 10.7057ZM19.1501 13.2898Q19.2758 13.3769 19.4168 13.3534Q19.5578 13.3299 19.6477 13.2014Q20.5922 11.9757 21.1498 10.2518Q21.7075 8.52799 21.7075 6.67923Q21.7075 4.83033 21.1512 3.10379Q20.5949 1.37726 19.6477 0.156864Q19.5578 0.0283847 19.4168 0.00496248Q19.2758-0.0184598 19.1501 0.0686679Q19.0199 0.162815 19.0019 0.30167Q18.9839 0.440525 19.0933 0.588535Q20.0137 1.82694 20.5045 3.39096Q20.9953 4.95499 20.9953 6.67923Q20.9953 8.40348 20.5018 9.96613Q20.0082 11.5288 19.0933 12.7698Q18.9839 12.9108 19.0019 13.0532Q19.0199 13.1957 19.1501 13.2898Z" fill="rgba(0,0,0,0.85)"/>
 </g>
</svg>
