<?xml version="1.0" encoding="UTF-8"?>
<!--Generator: Apple Native CoreSVG 175-->
<!DOCTYPE svg
PUBLIC "-//W3C//DTD SVG 1.1//EN"
       "http://www.w3.org/Graphics/SVG/1.1/DTD/svg11.dtd">
<svg version="1.1" xmlns="http://www.w3.org/2000/svg" xmlns:xlink="http://www.w3.org/1999/xlink" width="19.1602" height="19.1504">
 <g>
  <rect height="19.1504" opacity="0" width="19.1602" x="0" y="0"/>
  <path d="M9.57031 19.1406Q11.5527 19.1406 13.2861 18.3984Q15.0195 17.6562 16.3379 16.333Q17.6562 15.0098 18.4082 13.2764Q19.1602 11.543 19.1602 9.57031Q19.1602 7.59766 18.4082 5.86426Q17.6562 4.13086 16.3379 2.80762Q15.0195 1.48438 13.2861 0.742188Q11.5527 0 9.57031 0Q7.59766 0 5.86426 0.742188Q4.13086 1.48438 2.81738 2.80762Q1.50391 4.13086 0.751953 5.86426Q0 7.59766 0 9.57031Q0 11.543 0.74707 13.2764Q1.49414 15.0098 2.8125 16.333Q4.13086 17.6562 5.86914 18.3984Q7.60742 19.1406 9.57031 19.1406ZM6.42578 8.86719Q6.42578 8.73047 6.50879 8.64746Q6.5918 8.56445 6.72852 8.56445L7.27539 8.56445L7.27539 7.71484L6.72852 7.71484Q6.5918 7.71484 6.50879 7.63184Q6.42578 7.54883 6.42578 7.40234Q6.42578 7.27539 6.50879 7.19238Q6.5918 7.10938 6.72852 7.10938L7.27539 7.10938L7.27539 5.84961Q7.27539 5.68359 7.36816 5.59082Q7.46094 5.49805 7.60742 5.49805L9.7168 5.49805Q10.7031 5.49805 11.377 5.92773Q12.0508 6.35742 12.3242 7.10938L13.0078 7.10938Q13.3008 7.10938 13.3008 7.40234Q13.3008 7.54883 13.2227 7.63184Q13.1445 7.71484 13.0078 7.71484L12.4707 7.71484Q12.4805 7.82227 12.4854 7.9248Q12.4902 8.02734 12.4902 8.13477Q12.4902 8.35938 12.4609 8.56445L13.0078 8.56445Q13.1445 8.56445 13.2227 8.64746Q13.3008 8.73047 13.3008 8.86719Q13.3008 9.00391 13.2227 9.08691Q13.1445 9.16992 13.0078 9.16992L12.3145 9.16992Q12.041 9.91211 11.3721 10.3418Q10.7031 10.7715 9.7168 10.7715L7.94922 10.7715L7.94922 13.7598Q7.94922 13.9258 7.85645 14.0137Q7.76367 14.1016 7.61719 14.1016Q7.46094 14.1016 7.36816 14.0137Q7.27539 13.9258 7.27539 13.7598L7.27539 9.16992L6.72852 9.16992Q6.5918 9.16992 6.50879 9.08691Q6.42578 9.00391 6.42578 8.86719ZM7.95898 10.127L9.67773 10.127Q11.0645 10.127 11.5625 9.16992L7.95898 9.16992ZM7.95898 8.56445L11.7871 8.56445Q11.8066 8.45703 11.8164 8.34961Q11.8262 8.24219 11.8262 8.13477Q11.8262 7.90039 11.7871 7.71484L7.95898 7.71484ZM7.95898 7.10938L11.582 7.10938Q11.3281 6.65039 10.8447 6.39648Q10.3613 6.14258 9.67773 6.14258L7.95898 6.14258Z" fill="rgba(0,0,0,0.85)"/>
 </g>
</svg>
