<?xml version="1.0" encoding="UTF-8"?>
<!--Generator: Apple Native CoreSVG 175-->
<!DOCTYPE svg
PUBLIC "-//W3C//DTD SVG 1.1//EN"
       "http://www.w3.org/Graphics/SVG/1.1/DTD/svg11.dtd">
<svg version="1.1" xmlns="http://www.w3.org/2000/svg" xmlns:xlink="http://www.w3.org/1999/xlink" width="20.7715" height="20.3223">
 <g>
  <rect height="20.3223" opacity="0" width="20.7715" x="0" y="0"/>
  <path d="M5.06836 20.3223Q5.25391 20.3223 5.39551 20.2295Q5.53711 20.1367 5.71289 19.9902L9.22852 16.9629L17.0508 16.9629Q18.2031 16.9629 19.0381 16.5088Q19.873 16.0547 20.3223 15.2197Q20.7715 14.3848 20.7715 13.252L20.7715 4.90234Q20.7715 3.75977 20.3223 2.9248Q19.873 2.08984 19.0381 1.63574Q18.2031 1.18164 17.0508 1.18164L3.7207 1.18164Q2.56836 1.18164 1.7334 1.63574Q0.898438 2.08984 0.449219 2.91992Q0 3.75 0 4.90234L0 13.252Q0 14.3945 0.449219 15.2246Q0.898438 16.0547 1.7334 16.5088Q2.56836 16.9629 3.7207 16.9629L4.55078 16.9629L4.55078 19.7168Q4.55078 20 4.69727 20.1611Q4.84375 20.3223 5.06836 20.3223ZM5.23438 19.5117L5.23438 16.582Q5.23438 16.4062 5.15625 16.3232Q5.07812 16.2402 4.88281 16.2402L3.73047 16.2402Q2.33398 16.2402 1.5332 15.4297Q0.732422 14.6191 0.732422 13.2227L0.732422 4.92188Q0.732422 3.52539 1.5332 2.71973Q2.33398 1.91406 3.73047 1.91406L17.0312 1.91406Q18.4082 1.91406 19.2236 2.71973Q20.0391 3.52539 20.0391 4.92188L20.0391 13.2227Q20.0391 14.6191 19.2236 15.4297Q18.4082 16.2402 17.0312 16.2402L9.30664 16.2402Q9.07227 16.2402 8.9209 16.2988Q8.76953 16.3574 8.58398 16.5332ZM7.73438 11.4941Q8.56445 12.3242 9.52637 12.9834Q10.4883 13.6426 11.4551 13.9893Q12.4219 14.3359 13.3057 14.2432Q14.1895 14.1504 14.8633 13.4668Q14.9023 13.4375 14.917 13.418Q14.9316 13.3984 14.9512 13.3691Q15.4102 12.9102 15.4688 12.4951Q15.5273 12.0801 15.2148 11.7676Q15.127 11.6895 14.9658 11.5723Q14.8047 11.4551 14.4141 11.1914Q14.0234 10.9277 13.2617 10.4102Q12.9395 10.1855 12.6074 10.2002Q12.2754 10.2148 11.8848 10.5859L11.4551 11.0059Q11.377 11.084 11.2598 11.0889Q11.1426 11.0938 11.0352 11.0352Q10.7812 10.8887 10.3418 10.5664Q9.90234 10.2441 9.44336 9.78516Q8.98438 9.32617 8.65723 8.88672Q8.33008 8.44727 8.21289 8.21289Q8.1543 8.10547 8.1543 8.00293Q8.1543 7.90039 8.24219 7.8125L8.66211 7.35352Q9.02344 6.94336 9.0332 6.61133Q9.04297 6.2793 8.80859 5.9668L7.51953 4.13086Q7.29492 3.79883 7.01172 3.78906Q6.72852 3.7793 6.44043 3.93555Q6.15234 4.0918 5.89844 4.24805Q5.84961 4.27734 5.82031 4.31152Q5.79102 4.3457 5.76172 4.36523Q5.07812 5.04883 4.98535 5.92773Q4.89258 6.80664 5.23926 7.77344Q5.58594 8.74023 6.24512 9.70215Q6.9043 10.6641 7.73438 11.4941Z" fill="rgba(0,0,0,0.85)"/>
 </g>
</svg>
