<?xml version="1.0" encoding="UTF-8"?>
<!--Generator: Apple Native CoreSVG 175-->
<!DOCTYPE svg
PUBLIC "-//W3C//DTD SVG 1.1//EN"
       "http://www.w3.org/Graphics/SVG/1.1/DTD/svg11.dtd">
<svg version="1.1" xmlns="http://www.w3.org/2000/svg" xmlns:xlink="http://www.w3.org/1999/xlink" width="17.3148" height="21.1816">
 <g>
  <rect height="21.1816" opacity="0" width="17.3148" x="0" y="0"/>
  <path d="M0.000305176 10.5957Q-0.00946045 12.4414 0.293274 14.1699Q0.596008 15.8984 1.22101 17.334Q1.84601 18.7695 2.80304 19.7363Q3.56476 20.4883 4.42902 20.835Q5.29327 21.1816 6.3382 21.1816Q7.13898 21.1816 7.72003 20.9033Q8.30109 20.625 8.56964 20.1074Q8.8382 19.5898 8.70148 18.877L8.07648 15.5273Q7.95929 14.8926 7.5296 14.4385Q7.09991 13.9844 6.17218 13.9844L5.55695 13.9844Q5.01984 13.9746 4.75128 13.667Q4.48273 13.3594 4.37531 12.7734Q4.29718 12.3828 4.28253 11.8213Q4.26788 11.2598 4.26788 10.5957Q4.26788 9.93164 4.28253 9.37012Q4.29718 8.80859 4.37531 8.41797Q4.48273 7.82227 4.75128 7.51953Q5.01984 7.2168 5.55695 7.2168L6.17218 7.2168Q7.09991 7.20703 7.5296 6.75293Q7.95929 6.29883 8.07648 5.66406L8.70148 2.32422Q8.8382 1.60156 8.56964 1.08887Q8.30109 0.576172 7.72003 0.292969Q7.13898 0.00976562 6.3382 0.00976562Q5.29327 0.00976562 4.42902 0.356445Q3.56476 0.703125 2.80304 1.46484Q1.84601 2.41211 1.22101 3.84766Q0.596008 5.2832 0.293274 7.0166Q-0.00946045 8.75 0.000305176 10.5957ZM0.722961 10.5957Q0.722961 8.86719 1.00616 7.23145Q1.28937 5.5957 1.87042 4.24316Q2.45148 2.89062 3.33038 2.01172Q3.95538 1.38672 4.68292 1.08398Q5.41046 0.78125 6.28937 0.78125Q7.09991 0.78125 7.60284 1.11816Q8.10577 1.45508 7.93976 2.23633L7.30499 5.50781Q7.23663 5.89844 6.97784 6.16211Q6.71906 6.42578 6.15265 6.42578L5.53741 6.42578Q4.67804 6.42578 4.26788 6.85059Q3.85773 7.27539 3.70148 8.05664Q3.61359 8.54492 3.57941 9.19434Q3.54523 9.84375 3.54523 10.5957Q3.54523 11.3477 3.57941 11.9971Q3.61359 12.6465 3.70148 13.1445Q3.85773 13.9062 4.26788 14.3359Q4.67804 14.7656 5.53741 14.7656L6.15265 14.7656Q6.71906 14.7656 6.97784 15.0342Q7.23663 15.3027 7.30499 15.6738L7.93976 18.9453Q8.10577 19.7363 7.60773 20.0732Q7.10968 20.4102 6.28937 20.4102Q5.41046 20.4102 4.68292 20.1074Q3.95538 19.8047 3.33038 19.1797Q2.45148 18.3008 1.87042 16.9531Q1.28937 15.6055 1.00616 13.9648Q0.722961 12.3242 0.722961 10.5957ZM8.26202 10.9277L14.6585 10.9277L16.2308 10.9082L14.0823 12.959L12.471 14.5898Q12.4124 14.6387 12.388 14.7021Q12.3636 14.7656 12.3636 14.834Q12.3636 14.9805 12.4612 15.0781Q12.5589 15.1758 12.7054 15.1758Q12.8421 15.1758 12.9495 15.0684L17.1976 10.8203Q17.3148 10.7129 17.3148 10.5859Q17.3148 10.459 17.1976 10.3516L12.9495 6.10352Q12.8421 5.99609 12.7054 5.99609Q12.5589 5.99609 12.4612 6.08887Q12.3636 6.18164 12.3636 6.32812Q12.3636 6.40625 12.388 6.46973Q12.4124 6.5332 12.471 6.58203L14.0823 8.21289L16.2308 10.2637L14.6585 10.2441L8.26202 10.2441Q8.10577 10.2441 8.00812 10.3467Q7.91046 10.4492 7.91046 10.5859Q7.91046 10.7227 8.00812 10.8252Q8.10577 10.9277 8.26202 10.9277Z" fill="rgba(0,0,0,0.85)"/>
 </g>
</svg>
