<?xml version="1.0" encoding="UTF-8"?>
<!--Generator: Apple Native CoreSVG 175-->
<!DOCTYPE svg
PUBLIC "-//W3C//DTD SVG 1.1//EN"
       "http://www.w3.org/Graphics/SVG/1.1/DTD/svg11.dtd">
<svg version="1.1" xmlns="http://www.w3.org/2000/svg" xmlns:xlink="http://www.w3.org/1999/xlink" width="24.3164" height="19.0332">
 <g>
  <rect height="19.0332" opacity="0" width="24.3164" x="0" y="0"/>
  <path d="M2.62695 15.1172L9.3457 15.1172L9.3457 14.4043L2.65625 14.4043Q1.70898 14.4043 1.2207 13.9111Q0.732422 13.418 0.732422 12.4609L0.732422 2.70508Q0.732422 1.73828 1.2207 1.25Q1.70898 0.761719 2.65625 0.761719L16.8848 0.761719Q17.8027 0.761719 18.3105 1.25Q18.8184 1.73828 18.8184 2.70508L18.8184 7.56836L19.541 7.56836L19.541 2.66602Q19.541 1.38672 18.8721 0.712891Q18.2031 0.0390625 16.9141 0.0390625L2.62695 0.0390625Q1.33789 0.0390625 0.668945 0.708008Q0 1.37695 0 2.66602L0 12.5Q0 13.7891 0.668945 14.4531Q1.33789 15.1172 2.62695 15.1172ZM11.7383 19.0332L21.6895 19.0332Q22.9785 19.0332 23.6475 18.3545Q24.3164 17.6758 24.3164 16.4062L24.3164 9.87305Q24.3164 8.59375 23.6475 7.91992Q22.9785 7.24609 21.6895 7.24609L11.7383 7.24609Q10.4395 7.24609 9.77051 7.91504Q9.10156 8.58398 9.10156 9.87305L9.10156 16.4062Q9.10156 17.6953 9.77051 18.3643Q10.4395 19.0332 11.7383 19.0332ZM6.8457 3.64258Q6.81641 3.47656 6.64551 3.35938Q6.47461 3.24219 6.26953 3.44727L5.10742 4.58984L3.16406 2.62695Q3.06641 2.54883 2.92969 2.54883Q2.79297 2.54883 2.69531 2.62695Q2.60742 2.72461 2.60742 2.86621Q2.60742 3.00781 2.69531 3.0957L4.6582 5.04883L3.51562 6.20117Q3.30078 6.40625 3.41797 6.58203Q3.53516 6.75781 3.71094 6.78711L6.99219 7.37305Q7.1875 7.41211 7.33398 7.26562Q7.4707 7.11914 7.43164 6.93359Z" fill="rgba(0,0,0,0.85)"/>
 </g>
</svg>
