<?xml version="1.0" encoding="UTF-8"?>
<!--Generator: Apple Native CoreSVG 175-->
<!DOCTYPE svg
PUBLIC "-//W3C//DTD SVG 1.1//EN"
       "http://www.w3.org/Graphics/SVG/1.1/DTD/svg11.dtd">
<svg version="1.1" xmlns="http://www.w3.org/2000/svg" xmlns:xlink="http://www.w3.org/1999/xlink" width="16.2012" height="16.2793">
 <g>
  <rect height="16.2793" opacity="0" width="16.2012" x="0" y="0"/>
  <path d="M10.0781 12.1777L9.56055 11.6602L3.19336 15.3809Q3.04688 15.4688 2.93945 15.4688Q2.75391 15.4688 2.75391 15.2051L2.75391 4.84375L2.02148 4.11133L2.02148 15.3516Q2.02148 15.7812 2.23145 16.0303Q2.44141 16.2793 2.79297 16.2793Q2.96875 16.2793 3.12988 16.2207Q3.29102 16.1621 3.49609 16.0352ZM12.3828 10.8301L15.5273 8.97461Q15.8691 8.7793 16.0352 8.59863Q16.2012 8.41797 16.2012 8.14453Q16.2012 7.88086 16.0352 7.69531Q15.8691 7.50977 15.5273 7.32422L3.49609 0.253906Q3.33008 0.15625 3.15918 0.0878906Q2.98828 0.0195312 2.7832 0.0195312L4.13086 1.46484L15.127 7.87109Q15.2051 7.91992 15.2832 7.9834Q15.3613 8.04688 15.3613 8.14453Q15.3613 8.24219 15.2832 8.30566Q15.2051 8.36914 15.127 8.41797L11.8652 10.3223ZM14.1895 14.9902Q14.2969 15.0977 14.4482 15.0977Q14.5996 15.0977 14.6973 14.9902Q14.8145 14.873 14.8096 14.7314Q14.8047 14.5898 14.6973 14.4824L0.615234 0.400391Q0.517578 0.3125 0.371094 0.297852Q0.224609 0.283203 0.107422 0.400391Q0 0.507812 0 0.65918Q0 0.810547 0.107422 0.908203Z" fill="rgba(0,0,0,0.85)"/>
 </g>
</svg>
