<?xml version="1.0" encoding="UTF-8"?>
<!--Generator: Apple Native CoreSVG 175-->
<!DOCTYPE svg
PUBLIC "-//W3C//DTD SVG 1.1//EN"
       "http://www.w3.org/Graphics/SVG/1.1/DTD/svg11.dtd">
<svg version="1.1" xmlns="http://www.w3.org/2000/svg" xmlns:xlink="http://www.w3.org/1999/xlink" width="25.8984" height="18.6816">
 <g>
  <rect height="18.6816" opacity="0" width="25.8984" x="0" y="0"/>
  <path d="M2.62695 17.8711L18.9258 17.8711Q20.1758 17.8711 20.835 17.1826Q21.4941 16.4941 21.4941 15.2051L21.4941 11.7871L14.7754 11.7871Q13.6914 11.7871 12.9053 11.377Q12.1191 10.9668 11.6943 10.1807Q11.2695 9.39453 11.2695 8.29102L11.2695 6.91406L0 6.91406L0 15.2441Q0 16.543 0.668945 17.207Q1.33789 17.8711 2.62695 17.8711ZM0 6.25L11.2695 6.25L11.2695 3.17383Q11.2695 3.01758 11.2695 2.87109Q11.2695 2.72461 11.2695 2.56836Q10.7812 2.56836 10.2979 2.56836Q9.81445 2.56836 9.33594 2.56836Q8.70117 2.56836 8.33496 2.44629Q7.96875 2.32422 7.56836 1.94336L7.05078 1.47461Q6.72852 1.17188 6.46484 1.02051Q6.20117 0.869141 5.87402 0.810547Q5.54688 0.751953 5.03906 0.751953L2.27539 0.751953Q1.14258 0.751953 0.571289 1.32812Q0 1.9043 0 3.06641ZM14.7754 10.9082L23.2715 10.9082Q24.5605 10.9082 25.2295 10.2441Q25.8984 9.58008 25.8984 8.29102L25.8984 2.61719Q25.8984 1.33789 25.2295 0.668945Q24.5605 0 23.2715 0L14.7754 0Q13.4863 0 12.8174 0.668945Q12.1484 1.33789 12.1484 2.61719L12.1484 8.29102Q12.1484 9.58008 12.8174 10.2441Q13.4863 10.9082 14.7754 10.9082ZM19.0234 8.50586Q18.8184 8.50586 18.7109 8.38379Q18.6035 8.26172 18.6035 8.08594L18.6035 5.87891L16.3965 5.87891Q16.2207 5.87891 16.0986 5.7666Q15.9766 5.6543 15.9766 5.45898Q15.9766 5.26367 16.0986 5.15137Q16.2207 5.03906 16.3965 5.03906L18.6035 5.03906L18.6035 2.8418Q18.6035 2.67578 18.7109 2.54883Q18.8184 2.42188 19.0234 2.42188Q19.2188 2.42188 19.3311 2.54883Q19.4434 2.67578 19.4434 2.8418L19.4434 5.03906L21.6309 5.03906Q21.8164 5.03906 21.9336 5.15137Q22.0508 5.26367 22.0508 5.45898Q22.0508 5.6543 21.9336 5.7666Q21.8164 5.87891 21.6309 5.87891L19.4434 5.87891L19.4434 8.08594Q19.4434 8.26172 19.3311 8.38379Q19.2188 8.50586 19.0234 8.50586Z" fill="rgba(0,0,0,0.85)"/>
 </g>
</svg>
