<?xml version="1.0" encoding="UTF-8"?>
<!--Generator: Apple Native CoreSVG 175-->
<!DOCTYPE svg
PUBLIC "-//W3C//DTD SVG 1.1//EN"
       "http://www.w3.org/Graphics/SVG/1.1/DTD/svg11.dtd">
<svg version="1.1" xmlns="http://www.w3.org/2000/svg" xmlns:xlink="http://www.w3.org/1999/xlink" width="18.5724" height="21.6635">
 <g>
  <rect height="21.6635" opacity="0" width="18.5724" x="0" y="0"/>
  <path d="M9.28406 1.68427Q9.62891 1.68427 9.87793 1.43745Q10.127 1.19064 10.127 0.838623Q10.127 0.490875 9.87793 0.245438Q9.62891 0 9.28406 0Q8.93631 0 8.68729 0.245438Q8.43826 0.490875 8.43826 0.838623Q8.43826 1.19064 8.68729 1.43745Q8.93631 1.68427 9.28406 1.68427ZM9.28406 6.22971Q9.62891 6.22971 9.87793 5.98419Q10.127 5.73868 10.127 5.38666Q10.127 5.03906 9.87793 4.79355Q9.62891 4.54803 9.28406 4.54803Q8.93631 4.54803 8.68729 4.79355Q8.43826 5.03906 8.43826 5.38666Q8.43826 5.73868 8.68729 5.98419Q8.93631 6.22971 9.28406 6.22971ZM9.28406 10.7875Q9.62891 10.7875 9.87793 10.542Q10.127 10.2965 10.127 9.94171Q10.127 9.60114 9.87793 9.35562Q9.62891 9.11011 9.28406 9.11011Q8.93631 9.11011 8.68729 9.35562Q8.43826 9.60114 8.43826 9.94171Q8.43826 10.2965 8.68729 10.542Q8.93631 10.7875 9.28406 10.7875ZM3.05542 5.33234Q3.40317 5.33234 3.65219 5.08682Q3.90121 4.84131 3.90121 4.48669Q3.90121 4.14169 3.65219 3.89969Q3.40317 3.65768 3.05542 3.65768Q2.70782 3.65768 2.4588 3.89969Q2.20978 4.14169 2.20978 4.48669Q2.20978 4.84131 2.4588 5.08682Q2.70782 5.33234 3.05542 5.33234ZM0.831604 9.80499Q1.17661 9.80499 1.42563 9.55948Q1.67465 9.31396 1.67465 8.96912Q1.67465 8.62137 1.42914 8.37585Q1.18362 8.13034 0.845642 8.13034Q0.498047 8.13034 0.249023 8.37585Q0 8.62137 0 8.96912Q0 9.31396 0.242004 9.55948Q0.484009 9.80499 0.831604 9.80499ZM1.03943 14.5738Q1.38443 14.5738 1.63483 14.3283Q1.88522 14.0828 1.88522 13.7308Q1.88522 13.3832 1.63483 13.1412Q1.38443 12.8992 1.03943 12.8992Q0.691833 12.8992 0.44281 13.1412Q0.193787 13.3832 0.193787 13.7308Q0.193787 14.0828 0.44281 14.3283Q0.691833 14.5738 1.03943 14.5738ZM4.25583 18.5374Q4.60083 18.5374 4.85123 18.2919Q5.10162 18.0464 5.10162 17.6944Q5.10162 17.3468 4.85123 17.1013Q4.60083 16.8558 4.25583 16.8558Q3.90823 16.8558 3.65921 17.1013Q3.41019 17.3468 3.41019 17.6944Q3.41019 18.0464 3.65921 18.2919Q3.90823 18.5374 4.25583 18.5374ZM9.28406 20.3456Q9.62891 20.3456 9.87793 20.0966Q10.127 19.8476 10.127 19.5Q10.127 19.1522 9.87793 18.9067Q9.62891 18.6612 9.28406 18.6612Q8.93631 18.6612 8.68729 18.9067Q8.43826 19.1522 8.43826 19.5Q8.43826 19.8476 8.68729 20.0966Q8.93631 20.3456 9.28406 20.3456ZM14.3164 18.5374Q14.6642 18.5374 14.9132 18.2919Q15.1622 18.0464 15.1622 17.6944Q15.1622 17.3468 14.9132 17.1013Q14.6642 16.8558 14.3164 16.8558Q13.9716 16.8558 13.7225 17.1013Q13.4735 17.3468 13.4735 17.6944Q13.4735 18.0464 13.7225 18.2919Q13.9716 18.5374 14.3164 18.5374ZM17.5328 14.5738Q17.8806 14.5738 18.1296 14.3283Q18.3786 14.0828 18.3786 13.7308Q18.3786 13.3832 18.1296 13.1412Q17.8806 12.8992 17.5328 12.8992Q17.188 12.8992 16.9376 13.1412Q16.6872 13.3832 16.6872 13.7308Q16.6872 14.0828 16.9376 14.3283Q17.188 14.5738 17.5328 14.5738ZM17.7364 9.80499Q18.0814 9.80499 18.3269 9.55948Q18.5724 9.31396 18.5724 8.96912Q18.5724 8.62137 18.3233 8.37585Q18.0742 8.13034 17.7266 8.13034Q17.3817 8.13034 17.1362 8.37585Q16.8907 8.62137 16.8907 8.96912Q16.8907 9.31396 17.1397 9.55948Q17.3888 9.80499 17.7364 9.80499ZM15.5168 5.33234Q15.8575 5.33234 16.1101 5.08682Q16.3626 4.84131 16.3626 4.48669Q16.3626 4.14169 16.1101 3.89969Q15.8575 3.65768 15.5168 3.65768Q15.172 3.65768 14.9216 3.89969Q14.6712 4.14169 14.6712 4.48669Q14.6712 4.84131 14.9216 5.08682Q15.172 5.33234 15.5168 5.33234Z" fill="rgba(0,0,0,0.85)"/>
 </g>
</svg>
