<?xml version="1.0" encoding="UTF-8"?>
<!--Generator: Apple Native CoreSVG 175-->
<!DOCTYPE svg
PUBLIC "-//W3C//DTD SVG 1.1//EN"
       "http://www.w3.org/Graphics/SVG/1.1/DTD/svg11.dtd">
<svg version="1.1" xmlns="http://www.w3.org/2000/svg" xmlns:xlink="http://www.w3.org/1999/xlink" width="17.6648" height="19.1388">
 <g>
  <rect height="19.1388" opacity="0" width="17.6648" x="0" y="0"/>
  <path d="M3.94333 5.82428Q3.94333 4.72351 4.17015 3.68111Q4.39697 2.6387 4.87732 1.71768Q4.93713 1.61057 4.90021 1.51741Q4.86328 1.42426 4.7596 1.40007Q4.65591 1.37589 4.50546 1.46637Q3.16132 2.30789 2.14394 3.55354Q1.12656 4.79919 0.563278 6.32889Q0 7.85858 0 9.56451Q0 11.5352 0.746078 13.2702Q1.49216 15.0052 2.81288 16.3258Q4.13361 17.6465 5.86853 18.3926Q7.60345 19.1388 9.57428 19.1388Q11.2648 19.1388 12.7863 18.58Q14.3079 18.0212 15.5455 17.021Q16.7831 16.0208 17.6352 14.6841Q17.6903 14.5955 17.643 14.5181Q17.5957 14.4408 17.4574 14.5049Q16.5598 14.9376 15.5695 15.1681Q14.5793 15.3986 13.5246 15.3986Q11.5469 15.3986 9.81544 14.6524Q8.08395 13.9062 6.76331 12.5856Q5.44266 11.265 4.69299 9.52995Q3.94333 7.79495 3.94333 5.82428Z" fill="rgba(0,0,0,0.85)"/>
 </g>
</svg>
