<?xml version="1.0" encoding="UTF-8"?>
<!--Generator: Apple Native CoreSVG 175-->
<!DOCTYPE svg
PUBLIC "-//W3C//DTD SVG 1.1//EN"
       "http://www.w3.org/Graphics/SVG/1.1/DTD/svg11.dtd">
<svg version="1.1" xmlns="http://www.w3.org/2000/svg" xmlns:xlink="http://www.w3.org/1999/xlink" width="13.429" height="18.1058">
 <g>
  <rect height="18.1058" opacity="0" width="13.429" x="0" y="0"/>
  <path d="M0 14.2488Q0 14.3402 0.0310516 14.4121Q0.0621033 14.4839 0.122986 14.5448L3.49213 17.9042Q3.60001 18.0148 3.72032 18.0603Q3.84064 18.1058 3.96362 18.1058Q4.09103 18.1058 4.20647 18.0554Q4.3219 18.0051 4.42276 17.9042L7.79449 14.5421Q7.85828 14.4785 7.88795 14.4066Q7.91763 14.3347 7.91763 14.2461Q7.91763 14.0968 7.81258 13.9931Q7.70752 13.8893 7.55508 13.8893Q7.45712 13.8893 7.38792 13.924Q7.31873 13.9586 7.26212 14.0125L6.3028 14.9788L4.30237 17.0464L4.34372 13.3577L4.34372 5.70663Q4.34372 4.24133 4.85916 3.1765Q5.3746 2.11166 6.3131 1.53435Q7.25159 0.957031 8.51089 0.957031Q9.75815 0.957031 10.6939 1.5004Q11.6296 2.04376 12.1519 3.02635Q12.6743 4.00894 12.6743 5.31631Q12.6743 6.53824 12.1807 7.47101Q11.6872 8.40378 10.8018 8.93448Q9.91638 9.46518 8.74451 9.46518Q8.14682 9.46518 7.93907 9.35326Q7.73132 9.24133 7.53357 9.24133Q7.38281 9.24133 7.28828 9.3277Q7.19376 9.41406 7.19376 9.55612Q7.19376 9.7316 7.35123 9.8671Q7.55005 10.0496 7.95021 10.1305Q8.35037 10.2113 8.73093 10.2113Q10.143 10.2113 11.2004 9.58672Q12.2578 8.9621 12.8434 7.86209Q13.429 6.76208 13.429 5.31631Q13.429 3.78235 12.8155 2.63603Q12.202 1.48972 11.0942 0.848923Q9.98642 0.20813 8.51089 0.20813Q7.03445 0.20813 5.92247 0.867157Q4.81049 1.52618 4.19434 2.75879Q3.57819 3.99139 3.57819 5.69763L3.57819 13.3534L3.61252 17.0464L1.61911 14.9815L0.652771 14.0152Q0.598907 13.9613 0.528336 13.9267Q0.457764 13.8921 0.362549 13.8921Q0.210114 13.8921 0.105057 13.9958Q0 14.0996 0 14.2488Z" fill="rgba(0,0,0,0.85)"/>
 </g>
</svg>
