<?xml version="1.0" encoding="UTF-8"?>
<!--Generator: Apple Native CoreSVG 175-->
<!DOCTYPE svg
PUBLIC "-//W3C//DTD SVG 1.1//EN"
       "http://www.w3.org/Graphics/SVG/1.1/DTD/svg11.dtd">
<svg version="1.1" xmlns="http://www.w3.org/2000/svg" xmlns:xlink="http://www.w3.org/1999/xlink" width="18.8497" height="21.8405">
 <g>
  <rect height="21.8405" opacity="0" width="18.8497" x="0" y="0"/>
  <path d="M0.251332 16.1981Q-0.115794 16.8404 0.0533492 17.4201Q0.222493 17.9997 0.882588 18.2942L8.25731 21.5428Q8.70409 21.7459 9.05741 21.8103Q9.41073 21.8747 9.78159 21.8019Q10.1525 21.7291 10.6442 21.5119L17.9599 18.2942Q18.6272 17.9997 18.7963 17.4201Q18.9655 16.8404 18.5982 16.1981L10.167 1.57045Q10.0463 1.35957 9.84919 1.25215Q9.65212 1.14473 9.42476 1.14473Q9.19466 1.14473 8.99759 1.25215Q8.80053 1.35957 8.67983 1.57045ZM0.940419 16.4279L9.16185 2.18843Q9.26546 2.01509 9.42476 2.01509Q9.59124 2.01509 9.68493 2.18843L17.9091 16.4279Q18.1432 16.8271 18.0191 17.1873Q17.8951 17.5475 17.4732 17.731L10.4935 20.8392Q10.0545 21.0411 9.74665 21.1064Q9.4388 21.1716 9.14293 21.1134Q8.84707 21.0552 8.45293 20.8869L1.37362 17.731Q0.954457 17.5475 0.830479 17.1873Q0.706502 16.8271 0.940419 16.4279ZM9.06939 21.5982L9.77755 21.5982L9.77755 1.69389L9.06939 1.69389Z" fill="rgba(0,0,0,0.85)"/>
 </g>
</svg>
