<?xml version="1.0" encoding="UTF-8"?>
<!--Generator: Apple Native CoreSVG 175-->
<!DOCTYPE svg
PUBLIC "-//W3C//DTD SVG 1.1//EN"
       "http://www.w3.org/Graphics/SVG/1.1/DTD/svg11.dtd">
<svg version="1.1" xmlns="http://www.w3.org/2000/svg" xmlns:xlink="http://www.w3.org/1999/xlink" width="19.3848" height="17.6855">
 <g>
  <rect height="17.6855" opacity="0" width="19.3848" x="0" y="0"/>
  <path d="M9.6875 14.0039Q11.9629 14.0039 13.7549 13.5254Q15.5469 13.0469 16.8018 12.207Q18.0566 11.3672 18.7207 10.2637Q19.3848 9.16016 19.3848 7.89062Q19.3848 6.63086 18.7207 5.52246Q18.0566 4.41406 16.8018 3.57422Q15.5469 2.73438 13.75 2.26074Q11.9531 1.78711 9.67773 1.78711Q7.41211 1.78711 5.62012 2.26074Q3.82812 2.73438 2.57324 3.57422Q1.31836 4.41406 0.65918 5.52246Q0 6.63086 0 7.89062Q0 9.16016 0.65918 10.2637Q1.31836 11.3672 2.57324 12.207Q3.82812 13.0469 5.625 13.5254Q7.42188 14.0039 9.6875 14.0039ZM9.6875 17.6855Q11.416 17.6855 12.3828 16.9971Q13.3496 16.3086 13.3496 15.0977L13.3496 14.5117Q12.5098 14.6875 11.5967 14.7803Q10.6836 14.873 9.6875 14.873Q8.71094 14.873 7.79297 14.7803Q6.875 14.6875 6.03516 14.5117L6.03516 15.0977Q6.03516 16.3086 7.00195 16.9971Q7.96875 17.6855 9.6875 17.6855ZM8.03711 10.8301Q7.72461 10.8301 7.72461 10.498L7.72461 5.11719Q7.72461 4.76562 8.02734 4.76562L9.85352 4.76562Q10.7031 4.76562 11.2402 5.26855Q11.7773 5.77148 11.7773 6.58203Q11.7773 7.2168 11.4209 7.67578Q11.0645 8.13477 10.459 8.30078L11.6406 10.2832Q11.6895 10.3613 11.7139 10.415Q11.7383 10.4688 11.7383 10.5469Q11.7383 10.6738 11.6504 10.752Q11.5625 10.8301 11.4355 10.8301Q11.3379 10.8301 11.2646 10.7764Q11.1914 10.7227 11.123 10.6152L9.82422 8.38867L8.36914 8.38867L8.36914 10.498Q8.36914 10.6445 8.27148 10.7373Q8.17383 10.8301 8.03711 10.8301ZM8.36914 7.8125L9.84375 7.8125Q10.4297 7.8125 10.7812 7.48047Q11.1328 7.14844 11.1328 6.58203Q11.1328 6.02539 10.7812 5.68359Q10.4297 5.3418 9.84375 5.3418L8.36914 5.3418Z" fill="rgba(0,0,0,0.85)"/>
 </g>
</svg>
