<?xml version="1.0" encoding="UTF-8"?>
<!--Generator: Apple Native CoreSVG 175-->
<!DOCTYPE svg
PUBLIC "-//W3C//DTD SVG 1.1//EN"
       "http://www.w3.org/Graphics/SVG/1.1/DTD/svg11.dtd">
<svg version="1.1" xmlns="http://www.w3.org/2000/svg" xmlns:xlink="http://www.w3.org/1999/xlink" width="24.9952" height="22.4902">
 <g>
  <rect height="22.4902" opacity="0" width="24.9952" x="0" y="0"/>
  <path d="M11.2402 19.5117Q12.9492 19.5117 14.4482 18.8672Q15.9473 18.2227 17.085 17.085Q18.2227 15.9473 18.8672 14.4531Q19.5117 12.959 19.5117 11.2402Q19.5117 9.52148 18.8672 8.02246Q18.2227 6.52344 17.085 5.39062Q15.9473 4.25781 14.4482 3.61328Q12.9492 2.96875 11.2402 2.96875Q9.52148 2.96875 8.02246 3.61328Q6.52344 4.25781 5.39062 5.39062Q4.25781 6.52344 3.61328 8.02246Q2.96875 9.52148 2.96875 11.2402Q2.96875 12.959 3.61328 14.4531Q4.25781 15.9473 5.39062 17.085Q6.52344 18.2227 8.02246 18.8672Q9.52148 19.5117 11.2402 19.5117ZM11.2402 18.7793Q9.66797 18.7793 8.30078 18.1982Q6.93359 17.6172 5.89844 16.5771Q4.86328 15.5371 4.27734 14.1699Q3.69141 12.8027 3.69141 11.2402Q3.69141 9.66797 4.27734 8.30078Q4.86328 6.93359 5.89844 5.89844Q6.93359 4.86328 8.30078 4.27734Q9.66797 3.69141 11.2402 3.69141Q12.8027 3.69141 14.1699 4.27734Q15.5371 4.86328 16.5771 5.89844Q17.6172 6.93359 18.2031 8.30078Q18.7891 9.66797 18.7891 11.2402Q18.7891 12.8027 18.2031 14.1699Q17.6172 15.5371 16.5771 16.5771Q15.5371 17.6172 14.1699 18.1982Q12.8027 18.7793 11.2402 18.7793ZM11.2402 0Q9.375 0 7.69043 0.566406Q6.00586 1.13281 4.59961 2.16309Q3.19336 3.19336 2.16309 4.59961Q1.13281 6.00586 0.566406 7.69043Q0 9.375 0 11.2402Q0 13.1055 0.566406 14.79Q1.13281 16.4746 2.16309 17.876Q3.19336 19.2773 4.59961 20.3076Q6.00586 21.3379 7.69043 21.9092Q9.375 22.4805 11.2402 22.4805Q13.1641 22.4805 14.9023 21.875Q16.6406 21.2695 18.0713 20.166Q19.502 19.0625 20.5225 17.5732Q21.543 16.084 22.041 14.3262Q21.8652 14.3066 21.6846 14.2432Q21.5039 14.1797 21.3672 14.0625Q20.8984 15.7227 19.9463 17.1289Q18.9941 18.5352 17.6514 19.5703Q16.3086 20.6055 14.6777 21.1768Q13.0469 21.748 11.2402 21.748Q9.0625 21.748 7.15332 20.9326Q5.24414 20.1172 3.79883 18.6719Q2.35352 17.2266 1.53809 15.3223Q0.722656 13.418 0.722656 11.2402Q0.722656 9.05273 1.54297 7.14844Q2.36328 5.24414 3.80859 3.79883Q5.25391 2.35352 7.1582 1.53809Q9.0625 0.722656 11.2402 0.722656Q13.0566 0.722656 14.6875 1.29883Q16.3184 1.875 17.6562 2.91016Q18.9941 3.94531 19.9463 5.35156Q20.8984 6.75781 21.3672 8.42773Q21.5039 8.31055 21.6846 8.2373Q21.8652 8.16406 22.041 8.16406Q21.5527 6.39648 20.5273 4.90723Q19.502 3.41797 18.0713 2.31445Q16.6406 1.21094 14.9072 0.605469Q13.1738 0 11.2402 0ZM22.5293 9.14062Q22.2852 8.94531 22.0166 9.04297Q21.748 9.14062 21.748 9.45312L21.748 13.0273Q21.748 13.3496 22.0166 13.4424Q22.2852 13.5352 22.5293 13.3496L24.7949 11.6406Q24.9902 11.4941 24.9951 11.2451Q25 10.9961 24.7949 10.8398ZM8.92578 15.4199Q9.0918 15.4199 9.18457 15.3174Q9.27734 15.2148 9.27734 15.0488L9.27734 12.002L11.4746 12.002L13.3105 15.166Q13.3984 15.3027 13.4766 15.3613Q13.5547 15.4199 13.6816 15.4199Q13.8184 15.4199 13.9062 15.332Q13.9941 15.2441 13.9941 15.1074Q13.9941 14.9805 13.8867 14.8047L12.168 11.9141Q13.0371 11.7285 13.5498 11.0938Q14.0625 10.459 14.0625 9.56055Q14.0625 8.4668 13.3398 7.78809Q12.6172 7.10938 11.4551 7.10938L8.89648 7.10938Q8.74023 7.10938 8.65723 7.22168Q8.57422 7.33398 8.57422 7.50977L8.57422 15.0488Q8.57422 15.2148 8.66699 15.3174Q8.75977 15.4199 8.92578 15.4199ZM9.27734 11.3965L9.27734 7.73438L11.4453 7.73438Q12.2949 7.73438 12.8271 8.2373Q13.3594 8.74023 13.3594 9.56055Q13.3594 10.4004 12.832 10.8984Q12.3047 11.3965 11.4355 11.3965Z" fill="rgba(0,0,0,0.85)"/>
 </g>
</svg>
