<?xml version="1.0" encoding="UTF-8"?>
<!--Generator: Apple Native CoreSVG 175-->
<!DOCTYPE svg
PUBLIC "-//W3C//DTD SVG 1.1//EN"
       "http://www.w3.org/Graphics/SVG/1.1/DTD/svg11.dtd">
<svg version="1.1" xmlns="http://www.w3.org/2000/svg" xmlns:xlink="http://www.w3.org/1999/xlink" width="19.4141" height="22.666">
 <g>
  <rect height="22.666" opacity="0" width="19.4141" x="0" y="0"/>
  <path d="M9.70703 16.5527Q11.9629 16.5527 13.7598 16.0791Q15.5566 15.6055 16.8213 14.7656Q18.0859 13.9258 18.75 12.8027Q19.4141 11.6797 19.4141 10.3809Q19.4141 9.08203 18.7451 7.95898Q18.0762 6.83594 16.8164 5.99609Q15.5566 5.15625 13.7549 4.6875Q11.9531 4.21875 9.69727 4.21875Q7.43164 4.21875 5.64453 4.6875Q3.85742 5.15625 2.59766 5.99609Q1.33789 6.83594 0.668945 7.95898Q0 9.08203 0 10.3809Q0 11.6797 0.668945 12.8027Q1.33789 13.9258 2.59766 14.7656Q3.85742 15.6055 5.64941 16.0791Q7.44141 16.5527 9.70703 16.5527ZM9.70703 15.8105Q7.05078 15.8105 5.03906 15.1123Q3.02734 14.4141 1.89941 13.1934Q0.771484 11.9727 0.771484 10.3809Q0.771484 8.78906 1.89941 7.56836Q3.02734 6.34766 5.03906 5.6543Q7.05078 4.96094 9.69727 4.96094Q12.3535 4.96094 14.3701 5.6543Q16.3867 6.34766 17.5195 7.56836Q18.6523 8.78906 18.6523 10.3809Q18.6523 11.9727 17.5195 13.1934Q16.3867 14.4141 14.375 15.1123Q12.3633 15.8105 9.70703 15.8105ZM9.70703 20.1758Q11.4355 20.1758 12.4023 19.4873Q13.3691 18.7988 13.3691 17.5879L13.3691 17.0215Q12.5293 17.1973 11.6113 17.29Q10.6934 17.3828 9.70703 17.3828Q8.7207 17.3828 7.80273 17.29Q6.88477 17.1973 6.05469 17.0215L6.05469 17.5879Q6.05469 18.7988 7.0166 19.4873Q7.97852 20.1758 9.70703 20.1758ZM8.05664 13.3008Q8.19336 13.3008 8.28613 13.208Q8.37891 13.1152 8.37891 12.9785L8.37891 10.8691L9.82422 10.8691L11.123 13.0859Q11.1816 13.1934 11.2549 13.2471Q11.3281 13.3008 11.4258 13.3008Q11.5527 13.3008 11.6406 13.2227Q11.7285 13.1445 11.7285 13.0273Q11.7285 12.9492 11.6992 12.8906Q11.6699 12.832 11.6309 12.7637L10.459 10.7812Q11.0547 10.6348 11.4062 10.1709Q11.7578 9.70703 11.7578 9.07227Q11.7578 8.28125 11.2305 7.77832Q10.7031 7.27539 9.85352 7.27539L8.04688 7.27539Q7.74414 7.27539 7.74414 7.61719L7.74414 12.9785Q7.74414 13.3008 8.05664 13.3008ZM8.37891 10.3027L8.37891 7.8418L9.84375 7.8418Q10.4297 7.8418 10.7764 8.18359Q11.123 8.52539 11.123 9.08203Q11.123 9.63867 10.7764 9.9707Q10.4297 10.3027 9.84375 10.3027ZM7.59766 0.78125L9.29688 3.03711Q9.45312 3.25195 9.70703 3.24707Q9.96094 3.24219 10.1074 3.03711L11.8066 0.78125Q12.002 0.527344 11.9043 0.263672Q11.8066 0 11.4941 0L7.91016 0Q7.59766 0 7.5 0.263672Q7.40234 0.527344 7.59766 0.78125Z" fill="rgba(0,0,0,0.85)"/>
 </g>
</svg>
