<?xml version="1.0" encoding="UTF-8"?>
<!--Generator: Apple Native CoreSVG 175-->
<!DOCTYPE svg
PUBLIC "-//W3C//DTD SVG 1.1//EN"
       "http://www.w3.org/Graphics/SVG/1.1/DTD/svg11.dtd">
<svg version="1.1" xmlns="http://www.w3.org/2000/svg" xmlns:xlink="http://www.w3.org/1999/xlink" width="22.666" height="20.1074">
 <g>
  <rect height="20.1074" opacity="0" width="22.666" x="0" y="0"/>
  <path d="M18.1543 18.6914L1.20117 1.74805Q0 2.30469 0 4.0332L0 16.0645Q0 17.3633 0.668945 18.0273Q1.33789 18.6914 2.62695 18.6914ZM4.51172 1.40625L21.4648 18.3398Q22.666 17.7539 22.666 16.0645L22.666 4.0332Q22.666 2.75391 21.9971 2.08008Q21.3281 1.40625 20.0195 1.40625ZM20.791 20.0098Q20.8984 20.1074 21.04 20.1025Q21.1816 20.0977 21.2988 20.0098Q21.416 19.9121 21.4111 19.7559Q21.4062 19.5996 21.2988 19.502L1.9043 0.0976562Q1.80664 0 1.65527 0Q1.50391 0 1.38672 0.0976562Q1.26953 0.195312 1.2793 0.351562Q1.28906 0.507812 1.38672 0.605469Z" fill="rgba(0,0,0,0.85)"/>
 </g>
</svg>
