<?xml version="1.0" encoding="UTF-8"?>
<!--Generator: Apple Native CoreSVG 175-->
<!DOCTYPE svg
PUBLIC "-//W3C//DTD SVG 1.1//EN"
       "http://www.w3.org/Graphics/SVG/1.1/DTD/svg11.dtd">
<svg version="1.1" xmlns="http://www.w3.org/2000/svg" xmlns:xlink="http://www.w3.org/1999/xlink" width="20.7169" height="23.1754">
 <g>
  <rect height="23.1754" opacity="0" width="20.7169" x="0" y="0"/>
  <path d="M2.61597 14.1827L18.1007 14.1827Q18.8551 14.1827 19.4485 13.867Q20.0418 13.5512 20.3793 12.999Q20.7169 12.4469 20.7169 11.7441L20.7169 11.1839Q20.7169 10.4742 20.3793 9.9234Q20.0418 9.37256 19.4485 9.05891Q18.8551 8.74527 18.1007 8.74527L2.61597 8.74527Q1.86172 8.74527 1.2719 9.05891Q0.682068 9.37256 0.341034 9.9234Q0 10.4742 0 11.1839L0 11.7441Q0 12.4469 0.341034 12.999Q0.682068 13.5512 1.2719 13.867Q1.86172 14.1827 2.61597 14.1827ZM2.62421 13.4816Q1.79413 13.4816 1.25862 12.9504Q0.723114 12.4191 0.723114 11.6125L0.723114 11.3086Q0.723114 10.509 1.25862 9.97772Q1.79413 9.44641 2.62421 9.44641L18.0997 9.44641Q18.9323 9.44641 19.4666 9.97772Q20.0008 10.509 20.0008 11.3086L20.0008 11.6125Q20.0008 12.4191 19.4666 12.9504Q18.9323 13.4816 18.0997 13.4816ZM10.3598 22.9211Q10.5106 22.9211 10.617 22.816Q10.7234 22.7109 10.7234 22.5699L10.7234 18.6441L10.686 16.6028L12.5383 18.4801L13.632 19.5879Q13.737 19.6957 13.8922 19.6957Q14.05 19.6957 14.1496 19.5988Q14.2493 19.502 14.2493 19.3539Q14.2493 19.2371 14.1844 19.1544Q14.1196 19.0718 14.0347 18.9899L10.631 15.6461Q10.4996 15.5258 10.3598 15.5258Q10.2809 15.5258 10.2193 15.5527Q10.1578 15.5797 10.0929 15.6461L6.68198 18.9899Q6.59729 19.0718 6.53244 19.1544Q6.46759 19.2371 6.46759 19.3539Q6.46759 19.502 6.56586 19.5988Q6.66412 19.6957 6.82892 19.6957Q6.90506 19.6957 6.96938 19.6688Q7.03369 19.6419 7.08481 19.5879L8.18832 18.4801L10.0336 16.6028L10.0005 18.6441L10.0005 22.5699Q10.0005 22.7109 10.1069 22.816Q10.2133 22.9211 10.3598 22.9211ZM10.3598 7.40509Q10.4996 7.40509 10.631 7.27493L14.0347 3.93829Q14.1196 3.84918 14.1844 3.77007Q14.2493 3.69095 14.2493 3.57422Q14.2493 3.41904 14.1496 3.32573Q14.05 3.23242 13.8922 3.23242Q13.737 3.23242 13.632 3.34015L12.5383 4.44092L10.686 6.31836L10.7234 4.28391L10.7234 0.358124Q10.7234 0.210114 10.617 0.105057Q10.5106 0 10.3598 0Q10.2133 0 10.1069 0.105057Q10.0005 0.210114 10.0005 0.358124L10.0005 4.28391L10.0336 6.31836L8.18832 4.44092L7.08481 3.34015Q7.03369 3.28903 6.96938 3.26073Q6.90506 3.23242 6.82892 3.23242Q6.66412 3.23242 6.56586 3.32573Q6.46759 3.41904 6.46759 3.57422Q6.46759 3.69095 6.53244 3.77007Q6.59729 3.84918 6.68198 3.93829L10.0929 7.27493Q10.2242 7.40509 10.3598 7.40509Z" fill="rgba(0,0,0,0.85)"/>
 </g>
</svg>
