<?xml version="1.0" encoding="UTF-8"?>
<!--Generator: Apple Native CoreSVG 175-->
<!DOCTYPE svg
PUBLIC "-//W3C//DTD SVG 1.1//EN"
       "http://www.w3.org/Graphics/SVG/1.1/DTD/svg11.dtd">
<svg version="1.1" xmlns="http://www.w3.org/2000/svg" xmlns:xlink="http://www.w3.org/1999/xlink" width="20.7715" height="20.3418">
 <g>
  <rect height="20.3418" opacity="0" width="20.7715" x="0" y="0"/>
  <path d="M5.0293 20.3418Q5.18555 20.3418 5.32227 20.2588Q5.45898 20.1758 5.60547 20.0391L9.16016 16.9727L17.0508 16.9727Q18.2031 16.9727 19.0381 16.5186Q19.873 16.0645 20.3223 15.2295Q20.7715 14.3945 20.7715 13.2617L20.7715 4.91211Q20.7715 3.76953 20.3223 2.93457Q19.873 2.09961 19.0381 1.64551Q18.2031 1.19141 17.0508 1.19141L3.7207 1.19141Q2.56836 1.19141 1.7334 1.64551Q0.898438 2.09961 0.449219 2.92969Q0 3.75977 0 4.91211L0 13.2617Q0 14.4043 0.449219 15.2344Q0.898438 16.0645 1.7334 16.5186Q2.56836 16.9727 3.7207 16.9727L4.55078 16.9727L4.55078 19.7852Q4.55078 20.0488 4.68262 20.1953Q4.81445 20.3418 5.0293 20.3418ZM4.01367 8.67188Q3.27148 8.67188 3.27148 7.92969L3.27148 5.43945Q3.27148 4.70703 4.01367 4.70703L8.95508 4.70703Q9.7168 4.70703 9.7168 5.43945L9.7168 7.92969Q9.7168 8.67188 8.95508 8.67188ZM5.2832 13.4766Q4.54102 13.4766 4.54102 12.7344L4.54102 10.8789Q4.54102 10.1367 5.2832 10.1367L9.59961 10.1367Q10.3418 10.1367 10.3418 10.8789L10.3418 12.7344Q10.3418 13.4766 9.59961 13.4766ZM12.6367 12.8027Q11.8945 12.8027 11.8945 12.0605L11.8945 6.18164Q11.8945 5.43945 12.6367 5.43945L16.2598 5.43945Q17.002 5.43945 17.002 6.18164L17.002 12.0605Q17.002 12.8027 16.2598 12.8027Z" fill="rgba(0,0,0,0.85)"/>
 </g>
</svg>
