<?xml version="1.0" encoding="UTF-8"?>
<!--Generator: Apple Native CoreSVG 175-->
<!DOCTYPE svg
PUBLIC "-//W3C//DTD SVG 1.1//EN"
       "http://www.w3.org/Graphics/SVG/1.1/DTD/svg11.dtd">
<svg version="1.1" xmlns="http://www.w3.org/2000/svg" xmlns:xlink="http://www.w3.org/1999/xlink" width="22.7837" height="17.323">
 <g>
  <rect height="17.323" opacity="0" width="22.7837" x="0" y="0"/>
  <path d="M7.59689 17.323L15.1895 17.323Q17.9141 17.323 19.5846 16.4751Q21.255 15.6273 22.0193 13.9507Q22.7837 12.2742 22.7837 9.78317L22.7837 2.66006Q22.7837 1.37848 22.1155 0.706024Q21.4473 0.0335693 20.1462 0.0335693L2.63046 0.0335693Q1.33636 0.0335693 0.668182 0.699005Q0 1.36444 0 2.66006L0 9.78317Q0 12.2742 0.76561 13.9507Q1.53122 15.6273 3.20038 16.4751Q4.86954 17.323 7.59689 17.323ZM7.61093 16.5891Q5.12543 16.5891 3.60962 15.8261Q2.09381 15.0632 1.41121 13.5482Q0.728607 12.0332 0.728607 9.78241L0.728607 2.69608Q0.728607 0.762177 2.65701 0.762177L20.1266 0.762177Q21.0461 0.762177 21.5506 1.24985Q22.0551 1.73752 22.0551 2.69608L22.0551 9.78241Q22.0551 12.0332 21.3725 13.5482Q20.6898 15.0632 19.174 15.8261Q17.6582 16.5891 15.1727 16.5891Z" fill="rgba(0,0,0,0.85)"/>
 </g>
</svg>
