<?xml version="1.0" encoding="UTF-8"?>
<!--Generator: Apple Native CoreSVG 175-->
<!DOCTYPE svg
PUBLIC "-//W3C//DTD SVG 1.1//EN"
       "http://www.w3.org/Graphics/SVG/1.1/DTD/svg11.dtd">
<svg version="1.1" xmlns="http://www.w3.org/2000/svg" xmlns:xlink="http://www.w3.org/1999/xlink" width="18.5465" height="19.6451">
 <g>
  <rect height="19.6451" opacity="0" width="18.5465" x="0" y="0"/>
  <path d="M0.137732 16.9833Q-0.201014 18.2817 0.293371 18.9634Q0.787756 19.6451 2.07255 19.6451L16.4741 19.6451Q17.7589 19.6451 18.2532 18.9634Q18.7475 18.2817 18.4088 16.9833L16.1663 8.30475Q15.9097 7.32895 15.3067 6.81763Q14.7038 6.3063 13.7928 6.3063L4.75367 6.3063Q3.84287 6.3063 3.23992 6.81763Q2.63697 7.32895 2.38032 8.30475ZM0.852606 16.9826L3.08573 8.45093Q3.46155 7.02789 4.80066 7.02789L13.746 7.02789Q15.0849 7.02789 15.4608 8.45093L17.6939 16.9826Q17.9455 17.9384 17.6418 18.4274Q17.338 18.9165 16.4588 18.9165L2.08506 18.9165Q1.20844 18.9165 0.903341 18.4274Q0.598242 17.9384 0.852606 16.9826ZM8.90757 6.70364L9.63618 6.70364L9.63618 4.73602L8.90757 4.73602ZM9.26981 5.14618Q9.97523 5.14618 10.5608 4.79477Q11.1463 4.44336 11.499 3.86276Q11.8518 3.28217 11.8518 2.58362Q11.8518 1.8782 11.4942 1.29265Q11.1366 0.707092 10.551 0.357895Q9.96546 0.00869751 9.26981 0.00869751Q8.57126 0.00869751 7.98929 0.361404Q7.40732 0.714111 7.05805 1.29967Q6.70878 1.88522 6.70878 2.58362Q6.70878 3.28217 7.05805 3.86635Q7.40732 4.45053 7.9928 4.79836Q8.57828 5.14618 9.26981 5.14618ZM9.26981 4.46365Q8.50107 4.46365 7.94405 3.91373Q7.38703 3.3638 7.38703 2.58362Q7.38703 1.81061 7.94054 1.24733Q8.49405 0.684052 9.26981 0.684052Q10.0428 0.684052 10.6047 1.24382Q11.1666 1.80359 11.1666 2.58362Q11.1666 3.35663 10.6096 3.91014Q10.0526 4.46365 9.26981 4.46365Z" fill="rgba(0,0,0,0.85)"/>
 </g>
</svg>
