<?xml version="1.0" encoding="UTF-8"?>
<!--Generator: Apple Native CoreSVG 175-->
<!DOCTYPE svg
PUBLIC "-//W3C//DTD SVG 1.1//EN"
       "http://www.w3.org/Graphics/SVG/1.1/DTD/svg11.dtd">
<svg version="1.1" xmlns="http://www.w3.org/2000/svg" xmlns:xlink="http://www.w3.org/1999/xlink" width="19.1047" height="17.6541">
 <g>
  <rect height="17.6541" opacity="0" width="19.1047" x="0" y="0"/>
  <path d="M0.109406 11.5756Q0.214539 11.6948 0.354156 11.6948Q0.493774 11.6948 0.605927 11.5756L2.32468 9.85688Q4.62769 7.55388 6.31874 5.92317Q8.0098 4.29246 9.20471 3.26417Q10.3996 2.23588 11.2129 1.74058Q12.0262 1.24528 12.5612 1.2214Q13.0962 1.19752 13.4715 1.56587Q13.8472 1.93467 13.739 2.53114Q13.6308 3.12761 13.1059 3.97332Q12.5809 4.81904 11.6832 5.94033Q10.7855 7.06163 9.57809 8.48695Q8.83362 9.3683 8.10646 10.2425Q7.3793 11.1166 6.79436 11.9497Q6.20941 12.7828 5.87677 13.5439Q5.54413 14.305 5.57678 14.9614Q5.60944 15.6178 6.12778 16.1432Q6.50467 16.5202 6.98692 16.6243Q7.46918 16.7284 8.0555 16.5667Q8.64182 16.405 9.33456 15.9837Q10.0273 15.5625 10.8254 14.8929Q11.6235 14.2233 12.5215 13.3096Q13.4184 12.3999 14.1635 11.7206Q14.9086 11.0413 15.4979 10.6297Q16.0872 10.2182 16.511 10.1125Q16.9348 10.0069 17.1863 10.2487Q17.5536 10.6159 17.2829 11.3251Q17.0122 12.0343 16.3008 13.2796Q15.9422 13.8921 15.6152 14.4735Q15.2882 15.0549 15.0875 15.5776Q14.8868 16.1003 14.9068 16.5468Q14.9269 16.9933 15.2625 17.3288Q15.7903 17.8636 16.7542 17.5192Q17.718 17.1748 18.9656 15.8179Q19.0942 15.6851 19.104 15.5427Q19.1138 15.4002 18.9876 15.2811Q18.8754 15.1788 18.7357 15.1824Q18.596 15.1859 18.477 15.305Q17.8555 15.91 17.3065 16.3122Q16.7575 16.7143 16.344 16.8507Q15.9305 16.987 15.7359 16.7925Q15.536 16.5924 15.6014 16.1995Q15.6668 15.8066 15.9779 15.1905Q16.2891 14.5744 16.8207 13.7081Q17.4989 12.596 17.8096 11.8501Q18.1203 11.1041 18.0846 10.6126Q18.0489 10.121 17.6981 9.7632Q17.2305 9.29292 16.5208 9.41827Q15.811 9.54362 14.7149 10.3624Q13.6188 11.1812 11.9872 12.7936Q10.6422 14.121 9.6032 14.9052Q8.56415 15.6894 7.82074 15.8876Q7.07733 16.0858 6.6243 15.6468Q6.07895 15.114 6.34499 14.2298Q6.61102 13.3457 7.57523 12.0374Q8.53943 10.7292 10.0981 8.93083Q11.6714 7.12144 12.6516 5.83291Q13.6317 4.54438 14.0707 3.65358Q14.5097 2.76277 14.4685 2.15066Q14.4273 1.53856 13.9653 1.06935Q13.4567 0.560772 12.8743 0.45419Q12.2919 0.347607 11.4534 0.762417Q10.6149 1.17723 9.35768 2.21002Q8.10043 3.24281 6.26251 5.00123Q4.42459 6.75966 1.8309 9.35334L0.109406 11.0721Q0 11.1842 0 11.3239Q0 11.4636 0.109406 11.5756Z" fill="rgba(0,0,0,0.85)"/>
 </g>
</svg>
