<?xml version="1.0" encoding="UTF-8"?>
<!--Generator: Apple Native CoreSVG 175-->
<!DOCTYPE svg
PUBLIC "-//W3C//DTD SVG 1.1//EN"
       "http://www.w3.org/Graphics/SVG/1.1/DTD/svg11.dtd">
<svg version="1.1" xmlns="http://www.w3.org/2000/svg" xmlns:xlink="http://www.w3.org/1999/xlink" width="15.7812" height="20.6738">
 <g>
  <rect height="20.6738" opacity="0" width="15.7812" x="0" y="0"/>
  <path d="M2.62695 20.6738L13.1543 20.6738Q14.4434 20.6738 15.1123 20.0098Q15.7812 19.3457 15.7812 18.0469L15.7812 2.66602Q15.7812 1.36719 15.1074 0.698242Q14.4336 0.0292969 13.1543 0.0292969L6.83594 0.0292969Q6.38672 0.0292969 5.99609 0.19043Q5.60547 0.351562 5.3418 0.625L0.556641 5.38086Q0.273438 5.66406 0.136719 6.02539Q0 6.38672 0 6.86523L0 18.0469Q0 19.3359 0.664062 20.0049Q1.32812 20.6738 2.62695 20.6738ZM7.03125 3.04688Q7.03125 2.90039 7.12402 2.80762Q7.2168 2.71484 7.36328 2.71484Q7.50977 2.71484 7.60254 2.80762Q7.69531 2.90039 7.69531 3.04688L7.69531 6.79688Q7.69531 6.94336 7.60254 7.03613Q7.50977 7.12891 7.36328 7.12891Q7.2168 7.12891 7.12402 7.03613Q7.03125 6.94336 7.03125 6.79688ZM8.84766 3.04688Q8.84766 2.90039 8.93555 2.80762Q9.02344 2.71484 9.17969 2.71484Q9.31641 2.71484 9.41406 2.80762Q9.51172 2.90039 9.51172 3.04688L9.51172 6.79688Q9.51172 6.94336 9.41406 7.03613Q9.31641 7.12891 9.17969 7.12891Q9.0332 7.12891 8.94043 7.03613Q8.84766 6.94336 8.84766 6.79688ZM10.6543 3.04688Q10.6543 2.90039 10.752 2.80762Q10.8496 2.71484 10.9863 2.71484Q11.1426 2.71484 11.2354 2.80762Q11.3281 2.90039 11.3281 3.04688L11.3184 6.79688Q11.3184 6.94336 11.2256 7.03613Q11.1328 7.12891 10.9863 7.12891Q10.8496 7.12891 10.752 7.03613Q10.6543 6.94336 10.6543 6.79688ZM12.4707 3.04688Q12.4707 2.90039 12.5635 2.80762Q12.6562 2.71484 12.8027 2.71484Q12.9492 2.71484 13.042 2.80762Q13.1348 2.90039 13.1348 3.04688L13.1348 6.79688Q13.1348 6.94336 13.042 7.03613Q12.9492 7.12891 12.8027 7.12891Q12.6562 7.12891 12.5635 7.03613Q12.4707 6.94336 12.4707 6.79688Z" fill="rgba(0,0,0,0.85)"/>
 </g>
</svg>
