<?xml version="1.0" encoding="UTF-8"?>
<!--Generator: Apple Native CoreSVG 175-->
<!DOCTYPE svg
PUBLIC "-//W3C//DTD SVG 1.1//EN"
       "http://www.w3.org/Graphics/SVG/1.1/DTD/svg11.dtd">
<svg version="1.1" xmlns="http://www.w3.org/2000/svg" xmlns:xlink="http://www.w3.org/1999/xlink" width="23.8513" height="15.8646">
 <g>
  <rect height="15.8646" opacity="0" width="23.8513" x="0" y="0"/>
  <path d="M7.92038 15.838Q9.53476 15.838 10.9631 15.2169Q12.3915 14.5958 13.4866 13.502Q14.5818 12.4083 15.2063 10.9751Q15.8308 9.54193 15.8308 7.9274Q15.8308 6.3031 15.2063 4.87129Q14.5818 3.43948 13.4866 2.34436Q12.3915 1.24924 10.9583 0.624619Q9.52499 0 7.90085 0Q6.28632 0 4.85802 0.624619Q3.42972 1.24924 2.33597 2.34436Q1.24222 3.43948 0.621109 4.87129Q0 6.3031 0 7.9274Q0 9.54193 0.624619 10.9751Q1.24924 12.4083 2.34436 13.502Q3.43948 14.5958 4.86778 15.2169Q6.29608 15.838 7.92038 15.838ZM7.90085 15.1192Q6.4035 15.1192 5.10239 14.5645Q3.80127 14.0099 2.81609 13.0233Q1.8309 12.0367 1.27975 10.732Q0.728607 9.42734 0.728607 7.9274Q0.728607 6.42746 1.27975 5.12276Q1.8309 3.81805 2.8125 2.83287Q3.7941 1.84769 5.09392 1.29166Q6.39374 0.735626 7.89108 0.735626Q9.39102 0.735626 10.6957 1.29166Q12.0004 1.84769 12.9905 2.83287Q13.9806 3.81805 14.5366 5.12276Q15.0926 6.42746 15.0926 7.9274Q15.0996 9.42734 14.545 10.732Q13.9903 12.0367 13.0051 13.0233Q12.02 14.0099 10.7139 14.5645Q9.40781 15.1192 7.90085 15.1192ZM7.93015 5.30273Q8.4848 5.30273 8.87779 4.90761Q9.27078 4.51248 9.27078 3.95508Q9.27078 3.38089 8.87779 2.98927Q8.4848 2.59766 7.93015 2.59766Q7.35596 2.59766 6.95946 2.99278Q6.56296 3.38791 6.56296 3.95508Q6.56296 4.51965 6.95946 4.91119Q7.35596 5.30273 7.93015 5.30273ZM18.118 11.4934Q18.2286 11.6193 18.3971 11.6109Q18.5657 11.6025 18.6888 11.4673Q19.3517 10.7677 19.7173 9.86Q20.0829 8.95233 20.0829 7.9274Q20.0829 6.90247 19.7173 5.99129Q19.3517 5.08011 18.6888 4.38751Q18.5657 4.2453 18.3971 4.24042Q18.2286 4.23553 18.118 4.36142Q18.0173 4.47739 18.0434 4.62463Q18.0696 4.77188 18.1818 4.90433Q18.7758 5.45822 19.0623 6.25221Q19.3489 7.0462 19.3489 7.9274Q19.3489 8.80859 19.0623 9.60258Q18.7758 10.3966 18.1818 10.9505Q18.0696 11.0732 18.0434 11.2253Q18.0173 11.3774 18.118 11.4934ZM20.7259 14.1782Q20.8434 14.297 21.0065 14.2908Q21.1696 14.2845 21.2981 14.1576Q22.4907 12.9349 23.171 11.3397Q23.8513 9.74457 23.8513 7.9274Q23.8513 6.11023 23.171 4.51019Q22.4907 2.91016 21.2981 1.69724Q21.1696 1.56754 21.0065 1.55914Q20.8434 1.55075 20.7259 1.67664Q20.625 1.7926 20.6541 1.9426Q20.6833 2.09259 20.802 2.21954Q21.891 3.3345 22.5041 4.79073Q23.1172 6.24695 23.1172 7.9274Q23.1172 9.59808 22.5041 11.0592Q21.891 12.5203 20.802 13.6353Q20.6833 13.7552 20.6541 13.9087Q20.625 14.0622 20.7259 14.1782Z" fill="rgba(0,0,0,0.85)"/>
 </g>
</svg>
