<?xml version="1.0" encoding="UTF-8"?>
<!--Generator: Apple Native CoreSVG 175-->
<!DOCTYPE svg
PUBLIC "-//W3C//DTD SVG 1.1//EN"
       "http://www.w3.org/Graphics/SVG/1.1/DTD/svg11.dtd">
<svg version="1.1" xmlns="http://www.w3.org/2000/svg" xmlns:xlink="http://www.w3.org/1999/xlink" width="17.2852" height="17.3145">
 <g>
  <rect height="17.3145" opacity="0" width="17.2852" x="0" y="0"/>
  <path d="M2.62695 17.3145L14.6484 17.3145Q15.957 17.3145 16.6211 16.6455Q17.2852 15.9766 17.2852 14.6875L17.2852 2.65625Q17.2852 1.37695 16.6211 0.703125Q15.957 0.0292969 14.6484 0.0292969L2.62695 0.0292969Q1.33789 0.0292969 0.668945 0.693359Q0 1.35742 0 2.65625L0 14.6875Q0 15.9863 0.668945 16.6504Q1.33789 17.3145 2.62695 17.3145ZM2.65625 16.5918Q1.70898 16.5918 1.2207 16.1035Q0.732422 15.6152 0.732422 14.6582L0.732422 2.69531Q0.732422 1.72852 1.2207 1.24512Q1.70898 0.761719 2.65625 0.761719L14.6289 0.761719Q15.5566 0.761719 16.0596 1.24512Q16.5625 1.72852 16.5625 2.69531L16.5625 14.6582Q16.5625 15.6152 16.0596 16.1035Q15.5566 16.5918 14.6289 16.5918ZM5.54688 12.793Q5.54688 12.9492 5.63965 13.0371Q5.73242 13.125 5.86914 13.125Q6.01562 13.125 6.09863 13.0371Q6.18164 12.9492 6.18164 12.793L6.18164 5.25391L7.74414 5.25391Q8.4668 5.25391 8.77441 5.58105Q9.08203 5.9082 9.08203 6.74805L9.08203 10.4688Q9.08203 10.6348 9.16992 10.7227Q9.25781 10.8105 9.39453 10.8105Q9.54102 10.8105 9.62891 10.7227Q9.7168 10.6348 9.7168 10.4688L9.7168 6.67969Q9.7168 5.56641 9.27246 5.08301Q8.82812 4.59961 7.83203 4.59961L5.89844 4.59961Q5.74219 4.59961 5.64453 4.70215Q5.54688 4.80469 5.54688 4.9707ZM7.32422 12.6953Q7.32422 12.8613 7.41699 12.959Q7.50977 13.0566 7.67578 13.0566L9.29688 13.0566Q10.4199 13.0566 10.9619 12.5293Q11.5039 12.002 11.5039 10.791L11.5039 4.92188Q11.5039 4.75586 11.4111 4.66797Q11.3184 4.58008 11.1719 4.58008Q11.0352 4.58008 10.9473 4.66797Q10.8594 4.75586 10.8594 4.92188L10.8594 10.791Q10.8594 11.7285 10.4492 12.0654Q10.0391 12.4023 9.24805 12.4023L7.95898 12.4023L7.95898 7.13867Q7.95898 6.98242 7.87109 6.89453Q7.7832 6.80664 7.64648 6.80664Q7.5 6.80664 7.41211 6.89453Q7.32422 6.98242 7.32422 7.13867Z" fill="rgba(0,0,0,0.85)"/>
 </g>
</svg>
