<?xml version="1.0" encoding="UTF-8"?>
<!--Generator: Apple Native CoreSVG 175-->
<!DOCTYPE svg
PUBLIC "-//W3C//DTD SVG 1.1//EN"
       "http://www.w3.org/Graphics/SVG/1.1/DTD/svg11.dtd">
<svg version="1.1" xmlns="http://www.w3.org/2000/svg" xmlns:xlink="http://www.w3.org/1999/xlink" width="17.2852" height="17.3145">
 <g>
  <rect height="17.3145" opacity="0" width="17.2852" x="0" y="0"/>
  <path d="M2.62695 17.3145L14.6484 17.3145Q15.957 17.3145 16.6211 16.6455Q17.2852 15.9766 17.2852 14.6875L17.2852 2.65625Q17.2852 1.37695 16.6211 0.703125Q15.957 0.0292969 14.6484 0.0292969L2.62695 0.0292969Q1.33789 0.0292969 0.668945 0.693359Q0 1.35742 0 2.65625L0 14.6875Q0 15.9863 0.668945 16.6504Q1.33789 17.3145 2.62695 17.3145ZM5.51758 12.8223L5.51758 4.94141Q5.51758 4.77539 5.62012 4.67773Q5.72266 4.58008 5.87891 4.58008L7.82227 4.58008Q8.82812 4.58008 9.27734 5.05859Q9.72656 5.53711 9.72656 6.66016L9.72656 10.4883Q9.72656 10.6445 9.63379 10.7324Q9.54102 10.8203 9.39453 10.8203Q9.24805 10.8203 9.16016 10.7324Q9.07227 10.6445 9.07227 10.4883L9.07227 6.72852Q9.07227 5.88867 8.76465 5.56152Q8.45703 5.23438 7.73438 5.23438L6.16211 5.23438L6.16211 12.8223Q6.16211 12.9785 6.0791 13.0664Q5.99609 13.1543 5.84961 13.1543Q5.70312 13.1543 5.61035 13.0664Q5.51758 12.9785 5.51758 12.8223ZM7.30469 12.7246L7.30469 7.12891Q7.30469 6.97266 7.39746 6.87988Q7.49023 6.78711 7.62695 6.78711Q7.77344 6.78711 7.86133 6.87988Q7.94922 6.97266 7.94922 7.12891L7.94922 12.4219L9.24805 12.4219Q10.0488 12.4219 10.459 12.085Q10.8691 11.748 10.8691 10.8105L10.8691 4.89258Q10.8691 4.72656 10.957 4.63867Q11.0449 4.55078 11.1914 4.55078Q11.3379 4.55078 11.4258 4.63867Q11.5137 4.72656 11.5137 4.89258L11.5137 10.8008Q11.5137 12.0215 10.9717 12.5537Q10.4297 13.0859 9.29688 13.0859L7.66602 13.0859Q7.5 13.0859 7.40234 12.9883Q7.30469 12.8906 7.30469 12.7246Z" fill="rgba(0,0,0,0.85)"/>
 </g>
</svg>
