<?xml version="1.0" encoding="UTF-8"?>
<!--Generator: Apple Native CoreSVG 175-->
<!DOCTYPE svg
PUBLIC "-//W3C//DTD SVG 1.1//EN"
       "http://www.w3.org/Graphics/SVG/1.1/DTD/svg11.dtd">
<svg version="1.1" xmlns="http://www.w3.org/2000/svg" xmlns:xlink="http://www.w3.org/1999/xlink" width="19.1602" height="19.1504">
 <g>
  <rect height="19.1504" opacity="0" width="19.1602" x="0" y="0"/>
  <path d="M9.57031 19.1406Q11.5527 19.1406 13.2861 18.3984Q15.0195 17.6562 16.3379 16.333Q17.6562 15.0098 18.4082 13.2764Q19.1602 11.543 19.1602 9.57031Q19.1602 7.59766 18.4082 5.86426Q17.6562 4.13086 16.3379 2.80762Q15.0195 1.48438 13.2861 0.742188Q11.5527 0 9.57031 0Q7.59766 0 5.86426 0.742188Q4.13086 1.48438 2.81738 2.80762Q1.50391 4.13086 0.751953 5.86426Q0 7.59766 0 9.57031Q0 11.543 0.74707 13.2764Q1.49414 15.0098 2.8125 16.333Q4.13086 17.6562 5.86914 18.3984Q7.60742 19.1406 9.57031 19.1406ZM9.57031 18.3984Q7.74414 18.3984 6.14746 17.71Q4.55078 17.0215 3.33496 15.8105Q2.11914 14.5996 1.43555 12.998Q0.751953 11.3965 0.751953 9.57031Q0.751953 7.74414 1.43555 6.14258Q2.11914 4.54102 3.33496 3.3252Q4.55078 2.10938 6.14746 1.4209Q7.74414 0.732422 9.57031 0.732422Q11.4062 0.732422 13.0029 1.4209Q14.5996 2.10938 15.8154 3.3252Q17.0312 4.54102 17.7197 6.14258Q18.4082 7.74414 18.4082 9.57031Q18.4082 11.3965 17.7246 12.998Q17.041 14.5996 15.8252 15.8105Q14.6094 17.0215 13.0078 17.71Q11.4062 18.3984 9.57031 18.3984ZM6.47461 13.7109Q6.47461 13.8672 6.56738 13.9551Q6.66016 14.043 6.79688 14.043Q6.94336 14.043 7.02637 13.9551Q7.10938 13.8672 7.10938 13.7109L7.10938 6.17188L8.67188 6.17188Q9.39453 6.17188 9.70215 6.49902Q10.0098 6.82617 10.0098 7.66602L10.0098 11.3867Q10.0098 11.5527 10.0977 11.6406Q10.1855 11.7285 10.3223 11.7285Q10.4688 11.7285 10.5566 11.6406Q10.6445 11.5527 10.6445 11.3867L10.6445 7.59766Q10.6445 6.48438 10.2002 6.00098Q9.75586 5.51758 8.75977 5.51758L6.82617 5.51758Q6.66992 5.51758 6.57227 5.62012Q6.47461 5.72266 6.47461 5.88867ZM8.25195 13.6133Q8.25195 13.7793 8.34473 13.877Q8.4375 13.9746 8.60352 13.9746L10.2246 13.9746Q11.3477 13.9746 11.8896 13.4473Q12.4316 12.9199 12.4316 11.709L12.4316 5.83984Q12.4316 5.67383 12.3389 5.58594Q12.2461 5.49805 12.0996 5.49805Q11.9629 5.49805 11.875 5.58594Q11.7871 5.67383 11.7871 5.83984L11.7871 11.709Q11.7871 12.6465 11.377 12.9834Q10.9668 13.3203 10.1758 13.3203L8.88672 13.3203L8.88672 8.05664Q8.88672 7.90039 8.79883 7.8125Q8.71094 7.72461 8.57422 7.72461Q8.42773 7.72461 8.33984 7.8125Q8.25195 7.90039 8.25195 8.05664Z" fill="rgba(0,0,0,0.85)"/>
 </g>
</svg>
