<?xml version="1.0" encoding="UTF-8"?>
<!--Generator: Apple Native CoreSVG 175-->
<!DOCTYPE svg
PUBLIC "-//W3C//DTD SVG 1.1//EN"
       "http://www.w3.org/Graphics/SVG/1.1/DTD/svg11.dtd">
<svg version="1.1" xmlns="http://www.w3.org/2000/svg" xmlns:xlink="http://www.w3.org/1999/xlink" width="20.2899" height="16.2988">
 <g>
  <rect height="16.2988" opacity="0" width="20.2899" x="0" y="0"/>
  <path d="M0 12.9039Q0 13.1105 0.13298 13.2402Q0.265961 13.3699 0.483551 13.3699L2.65396 13.3699Q3.73123 13.3699 4.44824 13.0082Q5.16525 12.6465 5.96252 11.7125L11.3602 5.30746Q11.8153 4.7699 12.2319 4.44527Q12.6485 4.12064 13.083 3.97827Q13.5176 3.83591 14.0477 3.83591L15.7938 3.83591L15.7938 6.18362Q15.7938 6.35696 15.8952 6.45836Q15.9966 6.55975 16.1938 6.55975Q16.2883 6.55975 16.3639 6.52855Q16.4395 6.49734 16.5329 6.43051L20.0906 3.67615Q20.2899 3.5231 20.2899 3.28049Q20.2899 3.03787 20.0906 2.87506L16.5329 0.131989Q16.4395 0.058136 16.3639 0.0318146Q16.2883 0.00549316 16.1938 0.00549316Q15.9966 0.00549316 15.8952 0.101929Q15.7938 0.198364 15.7938 0.378876L15.7938 2.90115L14.0973 2.90115Q13.0173 2.90115 12.2989 3.26286Q11.5805 3.62457 10.786 4.55856L5.39108 10.9566Q4.70703 11.7761 4.10408 12.107Q3.50113 12.4379 2.72385 12.4379L0.483551 12.4379Q0.280151 12.4379 0.140076 12.5711Q0 12.7043 0 12.9039ZM0 3.37692Q0 3.57651 0.140076 3.70972Q0.280151 3.84293 0.483551 3.84293L2.72385 3.84293Q3.50388 3.84293 4.10545 4.17381Q4.70703 4.5047 5.39108 5.32425L10.786 11.7223Q11.5805 12.6562 12.2989 13.0166Q13.0173 13.3769 14.0973 13.3769L15.7938 13.3769L15.7938 15.9254Q15.7938 16.106 15.8952 16.2024Q15.9966 16.2988 16.1938 16.2988Q16.2883 16.2988 16.3639 16.269Q16.4395 16.2392 16.5329 16.1723L20.0906 13.425Q20.2899 13.2649 20.2899 13.0223Q20.2899 12.7797 20.0906 12.6167L16.5329 9.87381Q16.4395 9.80698 16.3639 9.77577Q16.2883 9.74457 16.1938 9.74457Q15.9966 9.74457 15.8952 9.84238Q15.7938 9.94019 15.7938 10.1207L15.7938 12.4449L14.0477 12.4449Q13.261 12.4449 12.6526 12.114Q12.0442 11.7831 11.3602 10.9708L5.96252 4.56558Q5.16525 3.63159 4.44824 3.27126Q3.73123 2.91092 2.65396 2.91092L0.483551 2.91092Q0.265961 2.91092 0.13298 3.03925Q0 3.16757 0 3.37692Z" fill="rgba(0,0,0,0.85)"/>
 </g>
</svg>
