<?xml version="1.0" encoding="UTF-8"?>
<!--Generator: Apple Native CoreSVG 175-->
<!DOCTYPE svg
PUBLIC "-//W3C//DTD SVG 1.1//EN"
       "http://www.w3.org/Graphics/SVG/1.1/DTD/svg11.dtd">
<svg version="1.1" xmlns="http://www.w3.org/2000/svg" xmlns:xlink="http://www.w3.org/1999/xlink" width="22.666" height="17.3145">
 <g>
  <rect height="17.3145" opacity="0" width="22.666" x="0" y="0"/>
  <path d="M2.62695 17.3145L20.0195 17.3145Q21.3281 17.3145 21.9971 16.6455Q22.666 15.9766 22.666 14.6875L22.666 2.65625Q22.666 1.37695 21.9971 0.703125Q21.3281 0.0292969 20.0195 0.0292969L2.62695 0.0292969Q1.33789 0.0292969 0.668945 0.693359Q0 1.35742 0 2.65625L0 14.6875Q0 15.9863 0.668945 16.6504Q1.33789 17.3145 2.62695 17.3145ZM2.65625 16.5918Q1.70898 16.5918 1.2207 16.1035Q0.732422 15.6152 0.732422 14.6582L0.732422 2.69531Q0.732422 1.72852 1.2207 1.24512Q1.70898 0.761719 2.65625 0.761719L20 0.761719Q20.9277 0.761719 21.4307 1.24512Q21.9336 1.72852 21.9336 2.69531L21.9336 14.6582Q21.9336 15.6152 21.4307 16.1035Q20.9277 16.5918 20 16.5918ZM14.9121 16.748L15.625 16.748L15.625 0.507812L14.9121 0.507812ZM19.8242 5.5957Q20.1465 5.5957 20.1465 5.29297L20.1465 3.22266Q20.1465 2.91016 19.8242 2.91016L17.7246 2.91016Q17.4219 2.91016 17.4219 3.22266L17.4219 5.29297Q17.4219 5.42969 17.5049 5.5127Q17.5879 5.5957 17.7246 5.5957ZM19.8242 10.0098Q19.9609 10.0098 20.0537 9.91699Q20.1465 9.82422 20.1465 9.69727L20.1465 7.61719Q20.1465 7.48047 20.0586 7.39746Q19.9707 7.31445 19.8242 7.31445L17.7246 7.31445Q17.5977 7.31445 17.5098 7.39746Q17.4219 7.48047 17.4219 7.61719L17.4219 9.69727Q17.4219 9.82422 17.5049 9.91699Q17.5879 10.0098 17.7246 10.0098ZM19.8242 14.4043Q20.1465 14.4043 20.1465 14.1016L20.1465 12.0215Q20.1465 11.7188 19.8242 11.7188L17.7246 11.7188Q17.4219 11.7188 17.4219 12.0215L17.4219 14.1016Q17.4219 14.2383 17.5049 14.3213Q17.5879 14.4043 17.7246 14.4043Z" fill="rgba(0,0,0,0.85)"/>
 </g>
</svg>
