<?xml version="1.0" encoding="UTF-8"?>
<!--Generator: Apple Native CoreSVG 175-->
<!DOCTYPE svg
PUBLIC "-//W3C//DTD SVG 1.1//EN"
       "http://www.w3.org/Graphics/SVG/1.1/DTD/svg11.dtd">
<svg version="1.1" xmlns="http://www.w3.org/2000/svg" xmlns:xlink="http://www.w3.org/1999/xlink" width="18.4068" height="19.5856">
 <g>
  <rect height="19.5856" opacity="0" width="18.4068" x="0" y="0"/>
  <path d="M16.7654 10.7637Q17.5436 10.7637 17.9752 10.3348Q18.4068 9.90585 18.4068 9.14459L18.4068 4.31686Q18.4068 3.5582 17.9752 3.13278Q17.5436 2.70737 16.7654 2.70737L4.53186 2.70737Q4.01107 2.70737 3.68431 2.8521Q3.35754 2.99683 3.05679 3.27377L0.627894 5.5011Q-0.00961829 6.08826 0.000147336 6.73828Q0.00991296 7.38831 0.618128 7.94342L3.05679 10.1805Q3.35754 10.4575 3.68431 10.6043Q4.01107 10.7512 4.5346 10.7512ZM16.7545 10.0253L4.5552 10.0253Q4.21585 10.0253 4.0158 9.95483Q3.81576 9.88434 3.60183 9.68719L1.03301 7.32819Q0.749049 7.061 0.744166 6.71036Q0.739283 6.35971 1.01898 6.11649L3.59909 3.76724Q3.82019 3.57697 4.01664 3.50296Q4.2131 3.42896 4.55261 3.42896L16.7545 3.42896Q17.1858 3.42896 17.4301 3.6676Q17.6744 3.90625 17.6744 4.32343L17.6744 9.13086Q17.6744 9.54803 17.4301 9.78668Q17.1858 10.0253 16.7545 10.0253ZM10.249 3.15048L10.249 0.362091Q10.249 0.215607 10.1426 0.107803Q10.0362 0 9.88967 0Q9.73617 0 9.62837 0.107803Q9.52056 0.215607 9.52056 0.362091L9.52056 3.15048ZM10.249 10.4391L9.52056 10.4391L9.52056 19.0384L10.249 19.0384ZM13.6995 18.8895Q13.6995 18.736 13.5931 18.6282Q13.4866 18.5204 13.333 18.5204L6.42242 18.5204Q6.27593 18.5204 6.1695 18.6282Q6.06307 18.736 6.06307 18.8895Q6.06307 19.0359 6.1695 19.1424Q6.27593 19.2488 6.42242 19.2488L13.333 19.2488Q13.4866 19.2488 13.5931 19.1424Q13.6995 19.0359 13.6995 18.8895Z" fill="rgba(0,0,0,0.85)"/>
 </g>
</svg>
