<?xml version="1.0" encoding="UTF-8"?>
<!--Generator: Apple Native CoreSVG 175-->
<!DOCTYPE svg
PUBLIC "-//W3C//DTD SVG 1.1//EN"
       "http://www.w3.org/Graphics/SVG/1.1/DTD/svg11.dtd">
<svg version="1.1" xmlns="http://www.w3.org/2000/svg" xmlns:xlink="http://www.w3.org/1999/xlink" width="22.0575" height="20.242">
 <g>
  <rect height="20.242" opacity="0" width="22.0575" x="0" y="0"/>
  <path d="M0 13.6638Q0 14.1638 0.245132 14.574Q0.490265 14.9841 0.899048 15.2279Q1.30783 15.4716 1.80786 15.4716Q2.3793 15.4716 2.83279 15.153Q3.28629 14.8344 3.47977 14.3466L18.4665 18.6954Q18.5579 19.3564 19.063 19.7992Q19.568 20.242 20.2524 20.242Q20.7497 20.242 21.1584 19.9982Q21.5672 19.7545 21.8124 19.3443Q22.0575 18.9342 22.0575 18.4369Q22.0575 17.7884 21.659 17.3026Q21.2605 16.8169 20.6606 16.6853L20.4234 6.94702Q21.0794 6.85867 21.5163 6.35826Q21.9531 5.85785 21.9531 5.17319Q21.9531 4.6759 21.7094 4.26575Q21.4656 3.85559 21.0568 3.61183Q20.648 3.36807 20.1437 3.36807Q19.6507 3.36807 19.2419 3.60481Q18.8332 3.84155 18.5965 4.23294L9.87808 1.88675Q9.87549 1.38245 9.63036 0.97641Q9.38522 0.570374 8.97781 0.327988Q8.5704 0.0856018 8.07587 0.0856018Q7.56882 0.0856018 7.15866 0.330734Q6.7485 0.575867 6.50475 0.98465Q6.26099 1.39343 6.26099 1.89346Q6.26099 2.31567 6.44005 2.67723Q6.61911 3.03879 6.92307 3.29224L2.43393 11.9821Q2.13989 11.8587 1.80786 11.8587Q1.30783 11.8587 0.899048 12.0989Q0.490265 12.3392 0.245132 12.7528Q0 13.1665 0 13.6638ZM3.01727 12.3201L7.49496 3.5849Q7.95319 3.76022 8.41507 3.66959Q8.87695 3.57895 9.23454 3.2811Q9.59213 2.98325 9.73129 2.51892L18.3989 4.86023Q18.2437 5.55832 18.6412 6.17157Q19.0387 6.78482 19.7453 6.93253L19.9606 16.6536Q19.4118 16.7342 19.0076 17.1181Q18.6035 17.502 18.4981 18.0383L3.59375 13.7036Q3.58719 13.2787 3.46725 12.9446Q3.34732 12.6106 3.01727 12.3201Z" fill="rgba(0,0,0,0.85)"/>
 </g>
</svg>
