<?xml version="1.0" encoding="UTF-8"?>
<!--Generator: Apple Native CoreSVG 175-->
<!DOCTYPE svg
PUBLIC "-//W3C//DTD SVG 1.1//EN"
       "http://www.w3.org/Graphics/SVG/1.1/DTD/svg11.dtd">
<svg version="1.1" xmlns="http://www.w3.org/2000/svg" xmlns:xlink="http://www.w3.org/1999/xlink" width="19.1602" height="19.1504">
 <g>
  <rect height="19.1504" opacity="0" width="19.1602" x="0" y="0"/>
  <path d="M9.57031 19.1504Q11.5527 19.1504 13.2861 18.4082Q15.0195 17.666 16.3379 16.3428Q17.6562 15.0195 18.4082 13.2861Q19.1602 11.5527 19.1602 9.58008Q19.1602 7.60742 18.4082 5.87402Q17.6562 4.14062 16.3379 2.81738Q15.0195 1.49414 13.2861 0.751953Q11.5527 0.00976562 9.57031 0.00976562Q7.59766 0.00976562 5.86426 0.751953Q4.13086 1.49414 2.81738 2.81738Q1.50391 4.14062 0.751953 5.87402Q0 7.60742 0 9.58008Q0 11.5527 0.74707 13.2861Q1.49414 15.0195 2.8125 16.3428Q4.13086 17.666 5.86914 18.4082Q7.60742 19.1504 9.57031 19.1504ZM3.70117 9.58008Q3.70117 8.36914 4.16016 7.30469Q4.61914 6.24023 5.42969 5.43457Q6.24023 4.62891 7.30469 4.16504Q8.36914 3.70117 9.57031 3.70117Q10.7812 3.70117 11.8457 4.16504Q12.9102 4.62891 13.7207 5.43457Q14.5312 6.24023 14.9902 7.30469Q15.4492 8.36914 15.4492 9.58008Q15.4492 10.791 14.9902 11.8555Q14.5312 12.9199 13.7256 13.7256Q12.9199 14.5312 11.8555 14.9951Q10.791 15.459 9.58008 15.459Q8.36914 15.459 7.30469 14.9951Q6.24023 14.5312 5.42969 13.7256Q4.61914 12.9199 4.16016 11.8555Q3.70117 10.791 3.70117 9.58008ZM4.4043 9.58008Q4.4043 10.7129 4.88281 11.7285L14.2773 11.7285Q14.7461 10.7129 14.7461 9.58008Q14.7461 8.50586 14.3457 7.56836Q13.9453 6.63086 13.2324 5.91797Q12.5195 5.20508 11.582 4.80469Q10.6445 4.4043 9.57031 4.4043Q8.50586 4.4043 7.56836 4.80469Q6.63086 5.20508 5.91797 5.91797Q5.20508 6.63086 4.80469 7.56836Q4.4043 8.50586 4.4043 9.58008ZM5.25391 12.4023Q5.9375 13.4668 7.0752 14.1113Q8.21289 14.7559 9.58008 14.7559Q10.9375 14.7559 12.0752 14.1113Q13.2129 13.4668 13.9062 12.4023Z" fill="rgba(0,0,0,0.85)"/>
 </g>
</svg>
