<?xml version="1.0" encoding="UTF-8"?>
<!--Generator: Apple Native CoreSVG 175-->
<!DOCTYPE svg
PUBLIC "-//W3C//DTD SVG 1.1//EN"
       "http://www.w3.org/Graphics/SVG/1.1/DTD/svg11.dtd">
<svg version="1.1" xmlns="http://www.w3.org/2000/svg" xmlns:xlink="http://www.w3.org/1999/xlink" width="19.1602" height="19.1504">
 <g>
  <rect height="19.1504" opacity="0" width="19.1602" x="0" y="0"/>
  <path d="M9.57031 19.1406Q11.5527 19.1406 13.2861 18.3984Q15.0195 17.6562 16.3379 16.333Q17.6562 15.0098 18.4082 13.2764Q19.1602 11.543 19.1602 9.57031Q19.1602 7.59766 18.4082 5.86426Q17.6562 4.13086 16.3379 2.80762Q15.0195 1.48438 13.2861 0.742188Q11.5527 0 9.57031 0Q7.59766 0 5.86426 0.742188Q4.13086 1.48438 2.81738 2.80762Q1.50391 4.13086 0.751953 5.86426Q0 7.59766 0 9.57031Q0 11.543 0.74707 13.2764Q1.49414 15.0098 2.8125 16.333Q4.13086 17.6562 5.86914 18.3984Q7.60742 19.1406 9.57031 19.1406ZM9.57031 18.3984Q7.74414 18.3984 6.14746 17.71Q4.55078 17.0215 3.33496 15.8105Q2.11914 14.5996 1.43555 12.998Q0.751953 11.3965 0.751953 9.57031Q0.751953 7.74414 1.43555 6.14258Q2.11914 4.54102 3.33496 3.3252Q4.55078 2.10938 6.14746 1.4209Q7.74414 0.732422 9.57031 0.732422Q11.4062 0.732422 13.0029 1.4209Q14.5996 2.10938 15.8154 3.3252Q17.0312 4.54102 17.7197 6.14258Q18.4082 7.74414 18.4082 9.57031Q18.4082 11.3965 17.7246 12.998Q17.041 14.5996 15.8252 15.8105Q14.6094 17.0215 13.0078 17.71Q11.4062 18.3984 9.57031 18.3984ZM3.74023 9.57031Q3.74023 10.7617 4.19434 11.8213Q4.64844 12.8809 5.4541 13.6865Q6.25977 14.4922 7.31445 14.9512Q8.36914 15.4102 9.58008 15.4102Q10.7715 15.4102 11.8311 14.9512Q12.8906 14.4922 13.6963 13.6865Q14.502 12.8809 14.9561 11.8213Q15.4102 10.7617 15.4102 9.57031Q15.4102 8.36914 14.9561 7.31445Q14.502 6.25977 13.6914 5.4541Q12.8809 4.64844 11.8311 4.18945Q10.7812 3.73047 9.57031 3.73047Q8.36914 3.73047 7.31445 4.18945Q6.25977 4.64844 5.4541 5.4541Q4.64844 6.25977 4.19434 7.31445Q3.74023 8.36914 3.74023 9.57031ZM4.43359 9.57031Q4.43359 8.50586 4.8291 7.56836Q5.22461 6.63086 5.93262 5.92285Q6.64062 5.21484 7.57324 4.81934Q8.50586 4.42383 9.57031 4.42383Q10.6348 4.42383 11.5723 4.81934Q12.5098 5.21484 13.2129 5.92285Q13.916 6.63086 14.3164 7.56836Q14.7168 8.50586 14.7168 9.57031Q14.7168 10.1465 14.5947 10.6836Q14.4727 11.2207 14.248 11.709L4.90234 11.709Q4.67773 11.2207 4.55566 10.6836Q4.43359 10.1465 4.43359 9.57031ZM5.27344 12.373L13.8867 12.373Q13.1934 13.4277 12.0605 14.0723Q10.9277 14.7168 9.58008 14.7168Q8.21289 14.7168 7.08008 14.0723Q5.94727 13.4277 5.27344 12.373Z" fill="rgba(0,0,0,0.85)"/>
 </g>
</svg>
