<?xml version="1.0" encoding="UTF-8"?>
<!--Generator: Apple Native CoreSVG 175-->
<!DOCTYPE svg
PUBLIC "-//W3C//DTD SVG 1.1//EN"
       "http://www.w3.org/Graphics/SVG/1.1/DTD/svg11.dtd">
<svg version="1.1" xmlns="http://www.w3.org/2000/svg" xmlns:xlink="http://www.w3.org/1999/xlink" width="22.916" height="17.8964">
 <g>
  <rect height="17.8964" opacity="0" width="22.916" x="0" y="0"/>
  <path d="M6.60278 16.8906L18.882 16.8906Q20.0606 16.8906 20.9707 16.3984Q21.8808 15.9062 22.3984 15.0513Q22.916 14.1965 22.916 13.093Q22.916 12.157 22.4925 11.3591Q22.0691 10.5612 21.3324 10.0292Q20.5957 9.49722 19.6594 9.35379Q19.6375 8.16238 19.0714 7.16339Q18.5054 6.1644 17.5431 5.56931Q16.5808 4.97421 15.3629 4.97421Q14.1293 4.97421 13.1367 5.52109Q12.1442 6.06796 11.5121 7.07581Q10.7915 6.82144 10.1595 6.82144Q9.22897 6.82144 8.46039 7.23648Q7.6918 7.65152 7.1904 8.3812Q6.689 9.11087 6.56647 10.0569Q5.5899 10.0722 4.79668 10.5464Q4.00345 11.0207 3.53607 11.7955Q3.0687 12.5703 3.0687 13.4781Q3.0687 14.4601 3.51715 15.232Q3.96561 16.0039 4.76402 16.4472Q5.56244 16.8906 6.60278 16.8906ZM2.80075 11.7043Q3.10669 10.9999 3.56606 10.49Q4.02542 9.98001 4.63928 9.6769Q5.25314 9.37378 6.03088 9.27811Q6.23749 8.26477 6.82732 7.5177Q7.41714 6.77063 8.27301 6.36086Q9.12888 5.95108 10.1425 5.95108Q10.5223 5.95108 10.8092 5.99876Q11.096 6.04645 11.3297 6.10107Q12.0586 5.00885 13.2258 4.5253Q14.393 4.04175 15.896 4.15421Q15.607 3.15979 14.7923 2.54433Q13.9777 1.92886 12.7707 1.92886Q12.3445 1.92886 12.0467 1.97693Q11.7488 2.02499 11.4038 2.10861Q10.6961 1.07971 9.74983 0.539856Q8.80356 0 7.65976 0Q6.47263 0 5.47592 0.584564Q4.47922 1.16913 3.87047 2.15271Q3.26172 3.13629 3.24249 4.34174Q2.28241 4.51599 1.55273 5.05638Q0.823059 5.59677 0.41153 6.39328Q0 7.18979 0 8.13278Q0 9.43588 0.713272 10.4107Q1.42654 11.3855 2.80075 11.7043Z" fill="rgba(0,0,0,0.85)"/>
 </g>
</svg>
