<?xml version="1.0" encoding="UTF-8"?>
<!--Generator: Apple Native CoreSVG 175-->
<!DOCTYPE svg
PUBLIC "-//W3C//DTD SVG 1.1//EN"
       "http://www.w3.org/Graphics/SVG/1.1/DTD/svg11.dtd">
<svg version="1.1" xmlns="http://www.w3.org/2000/svg" xmlns:xlink="http://www.w3.org/1999/xlink" width="20.2637" height="20.1465">
 <g>
  <rect height="20.1465" opacity="0" width="20.2637" x="0" y="0"/>
  <path d="M2.60742 20.1367L17.6562 20.1367Q18.9355 20.1367 19.5996 19.4629Q20.2637 18.7891 20.2637 17.5293L20.2637 7.31445Q20.2637 6.05469 19.5996 5.38086Q18.9355 4.70703 17.6562 4.70703L2.60742 4.70703Q1.32812 4.70703 0.664062 5.37109Q0 6.03516 0 7.31445L0 17.5293Q0 18.8184 0.664062 19.4775Q1.32812 20.1367 2.60742 20.1367ZM2.09961 2.90039L18.1738 2.90039Q18.1445 2.60742 17.9736 2.41211Q17.8027 2.2168 17.4902 2.2168L2.7832 2.2168Q2.46094 2.2168 2.29004 2.41211Q2.11914 2.60742 2.09961 2.90039ZM3.94531 0.654297L16.3184 0.654297Q16.3184 0.371094 16.1426 0.185547Q15.9668 0 15.6543 0L4.60938 0Q4.30664 0 4.13086 0.185547Q3.95508 0.371094 3.94531 0.654297ZM10.6152 16.8945Q10.4102 16.8945 10.3809 16.6797Q10.2051 15.3125 10.0098 14.4629Q9.81445 13.6133 9.4043 13.1641Q8.99414 12.7148 8.20312 12.5439Q7.41211 12.373 6.05469 12.3535Q5.84961 12.3438 5.84961 12.1387Q5.84961 11.9531 6.05469 11.9336Q7.12891 11.7871 7.83203 11.6504Q8.53516 11.5137 8.96484 11.2695Q9.39453 11.0254 9.64355 10.5859Q9.89258 10.1465 10.0537 9.42383Q10.2148 8.70117 10.3809 7.58789Q10.4199 7.39258 10.6152 7.39258Q10.8105 7.39258 10.8301 7.58789Q10.9961 8.69141 11.1523 9.41406Q11.3086 10.1367 11.5625 10.5762Q11.8164 11.0156 12.251 11.2598Q12.6855 11.5039 13.3936 11.6455Q14.1016 11.7871 15.1855 11.9336Q15.3711 11.9531 15.3711 12.1387Q15.3711 12.3242 15.1855 12.3535Q14.1016 12.4902 13.3887 12.627Q12.6758 12.7637 12.2363 13.0127Q11.7969 13.2617 11.543 13.7012Q11.2891 14.1406 11.1377 14.8633Q10.9863 15.5859 10.8301 16.6895Q10.8008 16.8945 10.6152 16.8945ZM6.62109 18.3301Q6.51367 18.3301 6.49414 18.2227Q6.42578 17.6953 6.35742 17.3535Q6.28906 17.0117 6.12305 16.8115Q5.95703 16.6113 5.5957 16.499Q5.23438 16.3867 4.57031 16.3086Q4.47266 16.2988 4.47266 16.1914Q4.47266 16.0645 4.57031 16.0645Q5.23438 15.9766 5.5957 15.8643Q5.95703 15.752 6.12305 15.5518Q6.28906 15.3516 6.35742 15.0146Q6.42578 14.6777 6.49414 14.1504Q6.51367 14.0332 6.62109 14.0332Q6.71875 14.0332 6.73828 14.1504Q6.80664 14.6777 6.875 15.0146Q6.94336 15.3516 7.11426 15.5518Q7.28516 15.752 7.64648 15.8643Q8.00781 15.9766 8.66211 16.0645Q8.76953 16.0742 8.76953 16.1914Q8.76953 16.2988 8.66211 16.3086Q8.00781 16.3867 7.64648 16.499Q7.28516 16.6113 7.11426 16.8164Q6.94336 17.0215 6.875 17.3584Q6.80664 17.6953 6.73828 18.2324Q6.71875 18.3301 6.62109 18.3301Z" fill="rgba(0,0,0,0.85)"/>
 </g>
</svg>
