<?xml version="1.0" encoding="UTF-8"?>
<!--Generator: Apple Native CoreSVG 175-->
<!DOCTYPE svg
PUBLIC "-//W3C//DTD SVG 1.1//EN"
       "http://www.w3.org/Graphics/SVG/1.1/DTD/svg11.dtd">
<svg version="1.1" xmlns="http://www.w3.org/2000/svg" xmlns:xlink="http://www.w3.org/1999/xlink" width="17.5601" height="23.9316">
 <g>
  <rect height="23.9316" opacity="0" width="17.5601" x="0" y="0"/>
  <path d="M10.0293 22.1277Q10.1755 22.1277 10.2602 22.0443Q10.345 21.9609 10.3558 21.8332Q10.5328 20.0629 10.7565 18.8855Q10.9801 17.7081 11.3908 16.9882Q11.8016 16.2683 12.5223 15.8752Q13.243 15.482 14.3938 15.2801Q15.5446 15.0781 17.2699 14.9234Q17.3976 14.9109 17.4789 14.8269Q17.5601 14.7429 17.5601 14.6109Q17.5601 14.4887 17.4789 14.4047Q17.3976 14.3207 17.2699 14.3082Q15.5446 14.1534 14.3938 13.9515Q13.243 13.7495 12.5223 13.355Q11.8016 12.9605 11.3908 12.2406Q10.9801 11.5207 10.7565 10.3447Q10.5328 9.1687 10.3558 7.39563Q10.345 7.27066 10.2602 7.18727Q10.1755 7.10388 10.0293 7.10388Q9.88602 7.10388 9.79988 7.18727Q9.71375 7.27066 9.69849 7.39563Q9.5285 9.1687 9.30489 10.3447Q9.08127 11.5207 8.66913 12.2406Q8.25699 12.9605 7.53632 13.355Q6.81564 13.7495 5.66132 13.9515Q4.50699 14.1534 2.79144 14.3082Q2.66098 14.3207 2.57973 14.4047Q2.49847 14.4887 2.49847 14.6109Q2.49847 14.7429 2.57973 14.8269Q2.66098 14.9109 2.79144 14.9234Q4.50699 15.1285 5.64941 15.3486Q6.79184 15.5687 7.50412 15.957Q8.2164 16.3452 8.62854 17.0483Q9.04068 17.7515 9.27132 18.9072Q9.50195 20.0629 9.69849 21.8332Q9.71375 21.9609 9.79988 22.0443Q9.88602 22.1277 10.0293 22.1277ZM3.40118 11.123Q3.46756 11.123 3.51326 11.0844Q3.55896 11.0457 3.57147 10.975Q3.72665 9.99146 3.85979 9.4516Q3.99292 8.91174 4.26346 8.64746Q4.534 8.38318 5.09125 8.23883Q5.6485 8.09448 6.65009 7.89215Q6.80237 7.86163 6.80237 7.72186Q6.80237 7.64847 6.75804 7.60979Q6.71371 7.57111 6.65009 7.56134Q5.6485 7.36557 5.08987 7.22534Q4.53125 7.08511 4.26079 6.81808Q3.99033 6.55106 3.85849 6.00929Q3.72665 5.46753 3.57147 4.4812Q3.54645 4.33044 3.40118 4.33044Q3.25592 4.33044 3.2309 4.48395Q3.07846 5.46753 2.94884 6.0025Q2.81921 6.53748 2.5473 6.80038Q2.27539 7.06329 1.72035 7.21115Q1.16531 7.35901 0.152283 7.56134Q0 7.58896 0 7.72186Q0 7.86438 0.15625 7.89215Q1.16638 8.08624 1.72363 8.23273Q2.28088 8.37921 2.55142 8.64349Q2.82196 8.90778 2.95021 9.44687Q3.07846 9.98596 3.2309 10.9695Q3.25592 11.123 3.40118 11.123ZM8.26141 4.58008Q8.40195 4.58008 8.42697 4.4339Q8.4993 3.87344 8.57307 3.52112Q8.64685 3.16879 8.82126 2.967Q8.99567 2.7652 9.36485 2.65076Q9.73404 2.53632 10.4039 2.45697Q10.5501 2.43195 10.5501 2.28867Q10.5501 2.14798 10.4039 2.12997Q9.73404 2.04102 9.36485 1.93146Q8.99567 1.8219 8.82126 1.61659Q8.64685 1.41129 8.57307 1.05896Q8.4993 0.706635 8.42697 0.146027Q8.40195 0 8.26141 0Q8.11798 0 8.0957 0.146027Q8.02078 0.706635 7.9483 1.05896Q7.87582 1.41129 7.70142 1.61659Q7.52701 1.8219 7.15782 1.93146Q6.78864 2.04102 6.11877 2.12997Q5.9726 2.14798 5.9726 2.28867Q5.9726 2.43195 6.11877 2.45697Q6.78864 2.53632 7.15782 2.65076Q7.52701 2.7652 7.70142 2.967Q7.87582 3.16879 7.9483 3.52112Q8.02078 3.87344 8.0957 4.4339Q8.11798 4.58008 8.26141 4.58008Z" fill="rgba(0,0,0,0.85)"/>
 </g>
</svg>
