<?xml version="1.0" encoding="UTF-8"?>
<!--Generator: Apple Native CoreSVG 175-->
<!DOCTYPE svg
PUBLIC "-//W3C//DTD SVG 1.1//EN"
       "http://www.w3.org/Graphics/SVG/1.1/DTD/svg11.dtd">
<svg version="1.1" xmlns="http://www.w3.org/2000/svg" xmlns:xlink="http://www.w3.org/1999/xlink" width="20.3418" height="20.2246">
 <g>
  <rect height="20.2246" opacity="0" width="20.3418" x="0" y="0"/>
  <path d="M2.62695 20.2148L17.7148 20.2148Q19.0039 20.2148 19.6729 19.541Q20.3418 18.8672 20.3418 17.5879L20.3418 7.33398Q20.3418 6.05469 19.6729 5.38086Q19.0039 4.70703 17.7148 4.70703L2.62695 4.70703Q1.33789 4.70703 0.668945 5.37109Q0 6.03516 0 7.33398L0 17.5879Q0 18.877 0.668945 19.5459Q1.33789 20.2148 2.62695 20.2148ZM2.65625 19.4922Q1.70898 19.4922 1.2207 18.999Q0.732422 18.5059 0.732422 17.5488L0.732422 7.37305Q0.732422 6.41602 1.2207 5.92285Q1.70898 5.42969 2.65625 5.42969L17.6855 5.42969Q18.6035 5.42969 19.1162 5.92285Q19.6289 6.41602 19.6289 7.37305L19.6289 17.5488Q19.6289 18.5059 19.1162 18.999Q18.6035 19.4922 17.6855 19.4922ZM2.13867 2.90039L18.2129 2.90039Q18.1836 2.59766 18.0127 2.40723Q17.8418 2.2168 17.5293 2.2168L2.82227 2.2168Q2.50977 2.2168 2.33398 2.40723Q2.1582 2.59766 2.13867 2.90039ZM3.98438 0.654297L16.3574 0.654297Q16.3574 0.361328 16.1768 0.180664Q15.9961 0 15.6934 0L4.6582 0Q4.3457 0 4.16992 0.180664Q3.99414 0.361328 3.98438 0.654297ZM10.6445 16.9141Q10.8301 16.9141 10.8594 16.709Q11.0059 15.6152 11.1572 14.8926Q11.3086 14.1699 11.5625 13.7354Q11.8164 13.3008 12.251 13.0518Q12.6855 12.8027 13.3984 12.666Q14.1113 12.5293 15.1855 12.3926Q15.3711 12.373 15.3711 12.1777Q15.3711 12.002 15.1855 11.9824Q14.1113 11.8359 13.4033 11.6992Q12.6953 11.5625 12.2656 11.3184Q11.8359 11.0742 11.5869 10.6348Q11.3379 10.1953 11.1816 9.47754Q11.0254 8.75977 10.8594 7.65625Q10.8398 7.46094 10.6445 7.46094Q10.4395 7.46094 10.4102 7.65625Q10.2441 8.76953 10.0879 9.4873Q9.93164 10.2051 9.68262 10.6445Q9.43359 11.084 9.00879 11.3232Q8.58398 11.5625 7.88086 11.6992Q7.17773 11.8359 6.10352 11.9824Q5.9082 12.002 5.9082 12.1777Q5.9082 12.3828 6.10352 12.3926Q7.46094 12.4121 8.24219 12.583Q9.02344 12.7539 9.43359 13.2031Q9.84375 13.6523 10.0439 14.4922Q10.2441 15.332 10.4102 16.6992Q10.4395 16.9141 10.6445 16.9141ZM6.67969 18.3398Q6.77734 18.3398 6.78711 18.2422Q6.88477 17.5293 6.99219 17.1533Q7.09961 16.7773 7.46582 16.6016Q7.83203 16.4258 8.70117 16.3281Q8.81836 16.3184 8.81836 16.2109Q8.81836 16.084 8.70117 16.084Q7.8418 15.9766 7.4707 15.8008Q7.09961 15.625 6.99219 15.2539Q6.88477 14.8828 6.78711 14.1797Q6.77734 14.0723 6.67969 14.0723Q6.5625 14.0723 6.55273 14.1797Q6.46484 14.8828 6.35742 15.2539Q6.25 15.625 5.88379 15.8008Q5.51758 15.9766 4.63867 16.084Q4.54102 16.084 4.54102 16.2109Q4.54102 16.3184 4.64844 16.3281Q5.51758 16.4258 5.88379 16.6016Q6.25 16.7773 6.35742 17.1533Q6.46484 17.5293 6.55273 18.2324Q6.5625 18.3398 6.67969 18.3398Z" fill="rgba(0,0,0,0.85)"/>
 </g>
</svg>
