<?xml version="1.0" encoding="UTF-8"?>
<!--Generator: Apple Native CoreSVG 175-->
<!DOCTYPE svg
PUBLIC "-//W3C//DTD SVG 1.1//EN"
       "http://www.w3.org/Graphics/SVG/1.1/DTD/svg11.dtd">
<svg version="1.1" xmlns="http://www.w3.org/2000/svg" xmlns:xlink="http://www.w3.org/1999/xlink" width="24.9454" height="17.323">
 <g>
  <rect height="17.323" opacity="0" width="24.9454" x="0" y="0"/>
  <path d="M2.63046 17.323L22.3106 17.323Q23.6118 17.323 24.2786 16.6505Q24.9454 15.9781 24.9454 14.6965L24.9454 2.66006Q24.9454 1.37848 24.2786 0.706024Q23.6118 0.0335693 22.3106 0.0335693L2.63046 0.0335693Q1.33636 0.0335693 0.668182 0.699005Q0 1.36444 0 2.66006L0 14.6965Q0 15.9921 0.668182 16.6576Q1.33636 17.323 2.63046 17.323ZM2.65701 16.5945Q1.7067 16.5945 1.21765 16.1068Q0.728607 15.619 0.728607 14.6605L0.728607 2.69608Q0.728607 1.73752 1.21765 1.24985Q1.7067 0.762177 2.65701 0.762177L22.2884 0.762177Q23.2079 0.762177 23.7123 1.24985Q24.2168 1.73752 24.2168 2.69608L24.2168 14.6605Q24.2168 15.619 23.7123 16.1068Q23.2079 16.5945 22.2884 16.5945ZM0 13.0965L3.63281 13.0965Q4.52499 13.0965 4.99535 12.6261Q5.4657 12.1558 5.4657 11.2691L5.4657 6.08475Q5.4657 5.19531 4.99535 4.72633Q4.52499 4.25735 3.63281 4.25735L0 4.25735L0 4.94537L3.60901 4.94537Q4.77768 4.94537 4.77768 6.10977L4.77768 11.244Q4.77768 12.4086 3.60901 12.4086L0 12.4086ZM12.0235 16.8202L12.7113 16.8202L12.7113 0.536346L12.0235 0.536346ZM12.3668 13.0649Q13.5962 13.0649 14.5883 12.4838Q15.5804 11.9028 16.1629 10.9084Q16.7453 9.91409 16.74 8.68042Q16.7372 7.44522 16.1604 6.45226Q15.5836 5.45929 14.5907 4.87686Q13.5977 4.29443 12.3668 4.29169Q11.1388 4.29337 10.1479 4.87091Q9.1571 5.44846 8.57605 6.44279Q7.995 7.43713 7.995 8.68042Q7.995 9.91409 8.57605 10.9084Q9.1571 11.9028 10.1479 12.4838Q11.1388 13.0649 12.3668 13.0649ZM12.3695 12.3961Q11.3324 12.3961 10.4939 11.8988Q9.65546 11.4015 9.16176 10.5595Q8.66806 9.71756 8.66806 8.67767Q8.66806 7.63351 9.16176 6.79291Q9.65546 5.9523 10.4939 5.4599Q11.3324 4.9675 12.3695 4.9675Q13.4024 4.9675 14.2409 5.4599Q15.0793 5.9523 15.573 6.79291Q16.0667 7.63351 16.0667 8.67767Q16.0641 9.71756 15.5704 10.5595Q15.0766 11.4015 14.2381 11.8988Q13.3997 12.3961 12.3695 12.3961ZM24.9454 13.0965L24.9454 12.4086L21.3293 12.4086Q20.1634 12.4086 20.1634 11.244L20.1634 6.10977Q20.1634 4.94537 21.3293 4.94537L24.9454 4.94537L24.9454 4.25735L21.3055 4.25735Q20.4134 4.25735 19.9479 4.72633Q19.4824 5.19531 19.4824 6.08475L19.4824 11.2691Q19.4824 12.1558 19.9479 12.6261Q20.4134 13.0965 21.3055 13.0965Z" fill="rgba(0,0,0,0.85)"/>
 </g>
</svg>
