<?xml version="1.0" encoding="UTF-8"?>
<!--Generator: Apple Native CoreSVG 175-->
<!DOCTYPE svg
PUBLIC "-//W3C//DTD SVG 1.1//EN"
       "http://www.w3.org/Graphics/SVG/1.1/DTD/svg11.dtd">
<svg version="1.1" xmlns="http://www.w3.org/2000/svg" xmlns:xlink="http://www.w3.org/1999/xlink" width="19.834" height="21.3574">
 <g>
  <rect height="21.3574" opacity="0" width="19.834" x="0" y="0"/>
  <path d="M3.76953 7.69531L1.31836 5.24414Q0.986328 5.47852 0.986328 5.79102Q0.986328 5.98633 1.08887 6.12305Q1.19141 6.25977 1.42578 6.38672ZM11.582 10.8984L19.1406 6.54297Q19.4727 6.35742 19.6387 6.16699Q19.8047 5.97656 19.8047 5.70312Q19.8047 5.43945 19.6387 5.24902Q19.4727 5.05859 19.1406 4.87305L11.1523 0.253906Q10.9277 0.136719 10.7617 0.0683594Q10.5957 0 10.4102 0Q10.2344 0 10.0635 0.0683594Q9.89258 0.136719 9.67773 0.253906L4.14062 3.45703ZM10.4102 16.3574Q10.5859 16.3574 10.7422 16.2842Q10.8984 16.2109 11.1035 16.0938L12.3926 15.3613L11.8555 14.8145L10.7129 15.4785Q10.5176 15.5859 10.4102 15.5859Q10.3027 15.5859 10.1074 15.4785L1.17188 10.3418Q1.11328 10.3906 1.0498 10.4932Q0.986328 10.5957 0.986328 10.7422Q0.986328 10.8691 1.06934 11.001Q1.15234 11.1328 1.33789 11.2402L9.7168 16.0938Q9.92188 16.2109 10.083 16.2842Q10.2441 16.3574 10.4102 16.3574ZM14.6973 14.0137L19.4922 11.2402Q19.668 11.1328 19.751 11.001Q19.834 10.8691 19.834 10.7422Q19.834 10.5957 19.7705 10.4932Q19.707 10.3906 19.6484 10.3418L14.1797 13.4961ZM10.4102 21.0938Q10.5859 21.0938 10.7422 21.0254Q10.8984 20.957 11.1035 20.8398L15.3906 18.3496L14.8633 17.832L10.7129 20.2246Q10.625 20.2734 10.5566 20.3027Q10.4883 20.332 10.4102 20.332Q10.332 20.332 10.2637 20.3027Q10.1953 20.2734 10.1074 20.2246L1.17188 15.0781Q1.11328 15.127 1.0498 15.2344Q0.986328 15.3418 0.986328 15.4883Q0.986328 15.6152 1.06934 15.7471Q1.15234 15.8789 1.33789 15.9863L9.7168 20.8398Q9.92188 20.957 10.083 21.0254Q10.2441 21.0938 10.4102 21.0938ZM17.7051 17.0215L19.4922 15.9863Q19.668 15.8789 19.751 15.7471Q19.834 15.6152 19.834 15.4883Q19.834 15.3418 19.7705 15.2344Q19.707 15.127 19.6484 15.0781L17.1875 16.5039ZM19.209 20.8594Q19.3164 20.9668 19.4629 20.9668Q19.6094 20.9668 19.7266 20.8594Q19.834 20.7422 19.8291 20.6006Q19.8242 20.459 19.7266 20.3418L0.625 1.25Q0.517578 1.15234 0.371094 1.14258Q0.224609 1.13281 0.0976562 1.25Q0 1.35742 0 1.50391Q0 1.65039 0.0976562 1.75781Z" fill="rgba(0,0,0,0.85)"/>
 </g>
</svg>
