<?xml version="1.0" encoding="UTF-8"?>
<!--Generator: Apple Native CoreSVG 175-->
<!DOCTYPE svg
PUBLIC "-//W3C//DTD SVG 1.1//EN"
       "http://www.w3.org/Graphics/SVG/1.1/DTD/svg11.dtd">
<svg version="1.1" xmlns="http://www.w3.org/2000/svg" xmlns:xlink="http://www.w3.org/1999/xlink" width="17.2894" height="17.323">
 <g>
  <rect height="17.323" opacity="0" width="17.2894" x="0" y="0"/>
  <path d="M6.24649 16.9499L6.24649 0.406647L5.51804 0.406647L5.51804 16.9499ZM11.7645 16.9499L11.7645 0.406647L11.0429 0.406647L11.0429 16.9499ZM0.373077 6.28006L16.9164 6.28006L16.9164 5.55862L0.373077 5.55862ZM0.373077 11.7981L16.9164 11.7981L16.9164 11.0765L0.373077 11.0765ZM0 16.8089Q0 17.048 0.137482 17.1855Q0.274963 17.323 0.50705 17.323L16.7781 17.323Q17.0172 17.323 17.1533 17.1855Q17.2894 17.048 17.2894 16.8089L17.2894 0.544891Q17.2894 0.305786 17.1533 0.169678Q17.0172 0.0335693 16.7781 0.0335693L0.50705 0.0335693Q0.274963 0.0335693 0.137482 0.169678Q0 0.305786 0 0.544891ZM0.728607 16.3885L0.728607 0.968018Q0.728607 0.762177 0.934448 0.762177L16.3551 0.762177Q16.561 0.762177 16.561 0.968018L16.561 16.3885Q16.561 16.5945 16.3551 16.5945L0.934448 16.5945Q0.728607 16.5945 0.728607 16.3885Z" fill="rgba(0,0,0,0.85)"/>
 </g>
</svg>
