<?xml version="1.0" encoding="UTF-8"?>
<!--Generator: Apple Native CoreSVG 175-->
<!DOCTYPE svg
PUBLIC "-//W3C//DTD SVG 1.1//EN"
       "http://www.w3.org/Graphics/SVG/1.1/DTD/svg11.dtd">
<svg version="1.1" xmlns="http://www.w3.org/2000/svg" xmlns:xlink="http://www.w3.org/1999/xlink" width="19.1602" height="19.6582">
 <g>
  <rect height="19.6582" opacity="0" width="19.1602" x="0" y="0"/>
  <path d="M9.57031 19.6582Q11.5527 19.6582 13.2861 18.916Q15.0195 18.1738 16.3379 16.8506Q17.6562 15.5273 18.4082 13.7939Q19.1602 12.0605 19.1602 10.0879Q19.1602 8.11523 18.4082 6.38184Q17.6562 4.64844 16.3379 3.3252Q15.0195 2.00195 13.2861 1.25977Q11.5527 0.517578 9.57031 0.517578Q7.59766 0.517578 5.86426 1.25977Q4.13086 2.00195 2.81738 3.3252Q1.50391 4.64844 0.751953 6.38184Q0 8.11523 0 10.0879Q0 12.0605 0.74707 13.7939Q1.49414 15.5273 2.8125 16.8506Q4.13086 18.1738 5.86914 18.916Q7.60742 19.6582 9.57031 19.6582ZM6.65039 14.9512Q5.9375 14.9512 5.56641 14.5752Q5.19531 14.1992 5.18555 13.4863L5.18555 8.21289Q5.19531 7.5 5.56641 7.12402Q5.9375 6.74805 6.65039 6.74805L8.24219 6.75781L8.24219 7.36328L6.66016 7.36328Q5.79102 7.36328 5.79102 8.23242L5.79102 13.4766Q5.79102 14.3457 6.66016 14.3457L12.4121 14.3457Q13.3008 14.3457 13.3008 13.4766L13.3008 8.23242Q13.3008 7.36328 12.4121 7.36328L10.8496 7.36328L10.8496 6.75781L12.4219 6.74805Q13.1445 6.74805 13.5303 7.11914Q13.916 7.49023 13.916 8.21289L13.916 13.4863Q13.916 14.1992 13.5254 14.5752Q13.1348 14.9512 12.4219 14.9512ZM9.55078 10.9961Q9.42383 10.9961 9.34082 10.9033Q9.25781 10.8105 9.25781 10.6836L9.25781 5.01953L9.25781 4.56055L8.7793 5.01953L7.89062 5.92773Q7.80273 6.01562 7.65625 6.01562Q7.54883 6.01562 7.4707 5.9375Q7.39258 5.85938 7.39258 5.74219Q7.39258 5.625 7.49023 5.53711L9.33594 3.71094Q9.4043 3.59375 9.54102 3.59375Q9.64844 3.59375 9.73633 3.71094L11.6016 5.54688Q11.6406 5.58594 11.6699 5.63477Q11.6992 5.68359 11.6992 5.74219Q11.6992 5.85938 11.6211 5.94238Q11.543 6.02539 11.416 6.02539Q11.2695 6.02539 11.1914 5.9375L10.2832 5.01953L9.83398 4.56055L9.85352 5.01953L9.85352 10.6836Q9.85352 10.8105 9.77051 10.9033Q9.6875 10.9961 9.55078 10.9961Z" fill="rgba(0,0,0,0.85)"/>
 </g>
</svg>
