<?xml version="1.0" encoding="UTF-8"?>
<!--Generator: Apple Native CoreSVG 175-->
<!DOCTYPE svg
PUBLIC "-//W3C//DTD SVG 1.1//EN"
       "http://www.w3.org/Graphics/SVG/1.1/DTD/svg11.dtd">
<svg version="1.1" xmlns="http://www.w3.org/2000/svg" xmlns:xlink="http://www.w3.org/1999/xlink" width="17.2894" height="17.323">
 <g>
  <rect height="17.323" opacity="0" width="17.2894" x="0" y="0"/>
  <path d="M0 5.11673L0.728607 5.11673L0.728607 2.69608Q0.728607 1.73752 1.21765 1.24985Q1.7067 0.762177 2.65701 0.762177L5.07233 0.762177L5.07233 0.0335693L2.63046 0.0335693Q1.33636 0.0335693 0.668182 0.699005Q0 1.36444 0 2.66006ZM5.94604 0.762177L11.3434 0.762177L11.3434 0.0335693L5.94604 0.0335693ZM16.561 5.11673L17.2894 5.11673L17.2894 2.66006Q17.2894 1.37848 16.6213 0.706024Q15.9532 0.0335693 14.6519 0.0335693L12.2173 0.0335693L12.2173 0.762177L14.6324 0.762177Q15.5519 0.762177 16.0564 1.24985Q16.561 1.73752 16.561 2.69608ZM16.561 11.373L17.2894 11.373L17.2894 5.98358L16.561 5.98358ZM12.2173 17.323L14.6519 17.323Q15.9532 17.323 16.6213 16.6505Q17.2894 15.9781 17.2894 14.6965L17.2894 12.2398L16.561 12.2398L16.561 14.6605Q16.561 15.619 16.0564 16.1068Q15.5519 16.5945 14.6324 16.5945L12.2173 16.5945ZM5.94604 17.323L11.3434 17.323L11.3434 16.5945L5.94604 16.5945ZM2.63046 17.323L5.07233 17.323L5.07233 16.5945L2.65701 16.5945Q1.7067 16.5945 1.21765 16.1068Q0.728607 15.619 0.728607 14.6605L0.728607 12.2398L0 12.2398L0 14.6965Q0 15.9921 0.668182 16.6576Q1.33636 17.323 2.63046 17.323ZM0 11.373L0.728607 11.373L0.728607 5.98358L0 5.98358Z" fill="rgba(0,0,0,0.85)"/>
 </g>
</svg>
