<?xml version="1.0" encoding="UTF-8"?>
<!--Generator: Apple Native CoreSVG 175-->
<!DOCTYPE svg
PUBLIC "-//W3C//DTD SVG 1.1//EN"
       "http://www.w3.org/Graphics/SVG/1.1/DTD/svg11.dtd">
<svg version="1.1" xmlns="http://www.w3.org/2000/svg" xmlns:xlink="http://www.w3.org/1999/xlink" width="17.2894" height="17.323">
 <g>
  <rect height="17.323" opacity="0" width="17.2894" x="0" y="0"/>
  <path d="M8.134 8.68042L0.441742 0.988312Q0 1.62582 0 2.66006L0 14.6965Q0 15.7309 0.441742 16.3683ZM8.64258 8.16757L16.3278 0.489349Q15.7016 0.0335693 14.6519 0.0335693L2.63046 0.0335693Q1.59775 0.0335693 0.947723 0.472565ZM9.15558 8.68042L16.8336 16.3612Q17.2894 15.7379 17.2894 14.6965L17.2894 2.66006Q17.2894 1.6188 16.8336 0.995331ZM8.64258 9.189L0.947723 16.8813Q1.59775 17.323 2.63046 17.323L14.6519 17.323Q15.7016 17.323 16.3278 16.8672Z" fill="rgba(0,0,0,0.85)"/>
 </g>
</svg>
