<?xml version="1.0" encoding="UTF-8"?>
<!--Generator: Apple Native CoreSVG 175-->
<!DOCTYPE svg
PUBLIC "-//W3C//DTD SVG 1.1//EN"
       "http://www.w3.org/Graphics/SVG/1.1/DTD/svg11.dtd">
<svg version="1.1" xmlns="http://www.w3.org/2000/svg" xmlns:xlink="http://www.w3.org/1999/xlink" width="19.066" height="18.2849">
 <g>
  <rect height="18.2849" opacity="0" width="19.066" x="0" y="0"/>
  <path d="M1.35895 5.28015L3.88275 5.28015Q4.53598 5.28015 4.88892 4.95049Q5.24185 4.62082 5.24185 3.91724L5.24185 1.40823Q5.24185 0.70755 4.88892 0.376434Q4.53598 0.0453186 3.88275 0.0453186L1.35895 0.0453186Q0.705872 0.0453186 0.352936 0.376434Q0 0.70755 0 1.40823L0 3.91724Q0 4.62082 0.352936 4.95049Q0.705872 5.28015 1.35895 5.28015ZM8.26843 5.28015L10.795 5.28015Q11.4481 5.28015 11.7996 4.95049Q12.1512 4.62082 12.1512 3.91724L12.1512 1.40823Q12.1512 0.70755 11.7996 0.376434Q11.4481 0.0453186 10.795 0.0453186L8.26843 0.0453186Q7.6152 0.0453186 7.26364 0.376434Q6.91208 0.70755 6.91208 1.40823L6.91208 3.91724Q6.91208 4.62082 7.26364 4.95049Q7.6152 5.28015 8.26843 5.28015ZM15.1903 5.28015L17.7071 5.28015Q18.3672 5.28015 18.7166 4.95049Q19.066 4.62082 19.066 3.91724L19.066 1.40823Q19.066 0.70755 18.7166 0.376434Q18.3672 0.0453186 17.7071 0.0453186L15.1903 0.0453186Q14.53 0.0453186 14.1806 0.376434Q13.8312 0.70755 13.8312 1.40823L13.8312 3.91724Q13.8312 4.62082 14.1806 4.95049Q14.53 5.28015 15.1903 5.28015ZM1.35895 11.786L3.88275 11.786Q4.53598 11.786 4.88892 11.4528Q5.24185 11.1195 5.24185 10.4189L5.24185 7.91412Q5.24185 7.20352 4.88892 6.87386Q4.53598 6.54419 3.88275 6.54419L1.35895 6.54419Q0.705872 6.54419 0.352936 6.87386Q0 7.20352 0 7.91412L0 10.4189Q0 11.1195 0.352936 11.4528Q0.705872 11.786 1.35895 11.786ZM8.26843 11.786L10.795 11.786Q11.4481 11.786 11.7996 11.4528Q12.1512 11.1195 12.1512 10.4189L12.1512 7.91412Q12.1512 7.20352 11.7996 6.87386Q11.4481 6.54419 10.795 6.54419L8.26843 6.54419Q7.6152 6.54419 7.26364 6.87386Q6.91208 7.20352 6.91208 7.91412L6.91208 10.4189Q6.91208 11.1195 7.26364 11.4528Q7.6152 11.786 8.26843 11.786ZM15.1903 11.786L17.7071 11.786Q18.3672 11.786 18.7166 11.4528Q19.066 11.1195 19.066 10.4189L19.066 7.91412Q19.066 7.20352 18.7166 6.87386Q18.3672 6.54419 17.7071 6.54419L15.1903 6.54419Q14.53 6.54419 14.1806 6.87386Q13.8312 7.20352 13.8312 7.91412L13.8312 10.4189Q13.8312 11.1195 14.1806 11.4528Q14.53 11.786 15.1903 11.786ZM1.35895 18.2849L3.88275 18.2849Q4.53598 18.2849 4.88892 17.9517Q5.24185 17.6184 5.24185 16.915L5.24185 14.413Q5.24185 13.7024 4.88892 13.3727Q4.53598 13.0431 3.88275 13.0431L1.35895 13.0431Q0.705872 13.0431 0.352936 13.3727Q0 13.7024 0 14.413L0 16.915Q0 17.6184 0.352936 17.9517Q0.705872 18.2849 1.35895 18.2849ZM8.26843 18.2849L10.795 18.2849Q11.4481 18.2849 11.7996 17.9517Q12.1512 17.6184 12.1512 16.915L12.1512 14.413Q12.1512 13.7024 11.7996 13.3727Q11.4481 13.0431 10.795 13.0431L8.26843 13.0431Q7.6152 13.0431 7.26364 13.3727Q6.91208 13.7024 6.91208 14.413L6.91208 16.915Q6.91208 17.6184 7.26364 17.9517Q7.6152 18.2849 8.26843 18.2849ZM15.1903 18.2849L17.7071 18.2849Q18.3672 18.2849 18.7166 17.9517Q19.066 17.6184 19.066 16.915L19.066 14.413Q19.066 13.7024 18.7166 13.3727Q18.3672 13.0431 17.7071 13.0431L15.1903 13.0431Q14.53 13.0431 14.1806 13.3727Q13.8312 13.7024 13.8312 14.413L13.8312 16.915Q13.8312 17.6184 14.1806 17.9517Q14.53 18.2849 15.1903 18.2849Z" fill="rgba(0,0,0,0.85)"/>
 </g>
</svg>
