<?xml version="1.0" encoding="UTF-8"?>
<!--Generator: Apple Native CoreSVG 175-->
<!DOCTYPE svg
PUBLIC "-//W3C//DTD SVG 1.1//EN"
       "http://www.w3.org/Graphics/SVG/1.1/DTD/svg11.dtd">
<svg version="1.1" xmlns="http://www.w3.org/2000/svg" xmlns:xlink="http://www.w3.org/1999/xlink" width="16.1235" height="20.8435">
 <g>
  <rect height="20.8435" opacity="0" width="16.1235" x="0" y="0"/>
  <path d="M2.63046 20.8435L13.5539 20.8435Q14.7992 20.8435 15.4613 20.1697Q16.1235 19.4958 16.1235 18.2169L16.1235 7.3465Q16.1235 6.06491 15.4539 5.39246Q14.7844 4.72 13.493 4.72L2.63046 4.72Q1.33636 4.72 0.668182 5.38544Q0 6.05087 0 7.3465L0 18.2169Q0 19.5126 0.668182 20.1781Q1.33636 20.8435 2.63046 20.8435ZM1.73523 2.91565L14.3855 2.91565Q14.3625 2.61719 14.1867 2.42249Q14.0109 2.22778 13.6934 2.22778L2.42737 2.22778Q2.10983 2.22778 1.93405 2.42249Q1.75827 2.61719 1.73523 2.91565ZM3.23044 0.674744L12.9001 0.674744Q12.8864 0.387115 12.7092 0.199814Q12.532 0.0125122 12.2308 0.0125122L3.88992 0.0125122Q3.58871 0.0125122 3.41156 0.199814Q3.23441 0.387115 3.23044 0.674744Z" fill="rgba(0,0,0,0.85)"/>
 </g>
</svg>
