<?xml version="1.0" encoding="UTF-8"?>
<!--Generator: Apple Native CoreSVG 175-->
<!DOCTYPE svg
PUBLIC "-//W3C//DTD SVG 1.1//EN"
       "http://www.w3.org/Graphics/SVG/1.1/DTD/svg11.dtd">
<svg version="1.1" xmlns="http://www.w3.org/2000/svg" xmlns:xlink="http://www.w3.org/1999/xlink" width="19.1602" height="19.1504">
 <g>
  <rect height="19.1504" opacity="0" width="19.1602" x="0" y="0"/>
  <path d="M9.57031 19.1406Q11.5527 19.1406 13.2861 18.3984Q15.0195 17.6562 16.3379 16.333Q17.6562 15.0098 18.4082 13.2764Q19.1602 11.543 19.1602 9.57031Q19.1602 7.59766 18.4082 5.86426Q17.6562 4.13086 16.3379 2.80762Q15.0195 1.48438 13.2861 0.742188Q11.5527 0 9.57031 0Q7.59766 0 5.86426 0.742188Q4.13086 1.48438 2.81738 2.80762Q1.50391 4.13086 0.751953 5.86426Q0 7.59766 0 9.57031Q0 11.543 0.74707 13.2764Q1.49414 15.0098 2.8125 16.333Q4.13086 17.6562 5.86914 18.3984Q7.60742 19.1406 9.57031 19.1406ZM9.57031 18.3984Q7.74414 18.3984 6.14746 17.71Q4.55078 17.0215 3.33496 15.8105Q2.11914 14.5996 1.43555 12.998Q0.751953 11.3965 0.751953 9.57031Q0.751953 7.74414 1.43555 6.14258Q2.11914 4.54102 3.33496 3.3252Q4.55078 2.10938 6.14746 1.4209Q7.74414 0.732422 9.57031 0.732422Q11.4062 0.732422 13.0029 1.4209Q14.5996 2.10938 15.8154 3.3252Q17.0312 4.54102 17.7197 6.14258Q18.4082 7.74414 18.4082 9.57031Q18.4082 11.3965 17.7246 12.998Q17.041 14.5996 15.8252 15.8105Q14.6094 17.0215 13.0078 17.71Q11.4062 18.3984 9.57031 18.3984ZM6.43555 13.7402L12.1973 13.7402Q12.334 13.7402 12.4219 13.6523Q12.5098 13.5645 12.5098 13.418Q12.5098 13.2812 12.4219 13.1934Q12.334 13.1055 12.1973 13.1055L7.68555 13.1055Q8.0957 12.793 8.37402 12.2363Q8.65234 11.6797 8.65234 11.1035Q8.65234 10.7617 8.59375 10.4492Q8.53516 10.1367 8.4668 9.85352L11.1328 9.85352Q11.2695 9.85352 11.3574 9.77051Q11.4453 9.6875 11.4453 9.54102Q11.4453 9.4043 11.3574 9.32129Q11.2695 9.23828 11.1328 9.23828L8.30078 9.23828Q8.19336 8.88672 8.12012 8.52539Q8.04688 8.16406 8.04688 7.77344Q8.04688 6.93359 8.57422 6.38184Q9.10156 5.83008 10.2246 5.83008Q11.0156 5.83008 11.3525 6.00098Q11.6895 6.17188 11.8262 6.17188Q11.9824 6.17188 12.0459 6.08887Q12.1094 6.00586 12.1094 5.88867Q12.1094 5.78125 12.0557 5.69336Q12.002 5.60547 11.7871 5.51758Q11.582 5.42969 11.1865 5.31738Q10.791 5.20508 10.2051 5.20508Q8.78906 5.20508 8.08105 5.92285Q7.37305 6.64062 7.37305 7.79297Q7.37305 8.17383 7.45117 8.53516Q7.5293 8.89648 7.63672 9.23828L6.65039 9.23828Q6.51367 9.23828 6.43066 9.32129Q6.34766 9.4043 6.34766 9.54102Q6.34766 9.6875 6.43066 9.77051Q6.51367 9.85352 6.65039 9.85352L7.79297 9.85352Q7.87109 10.1562 7.92969 10.4688Q7.98828 10.7812 7.98828 11.1133Q7.98828 11.8066 7.56836 12.373Q7.14844 12.9395 6.40625 13.0762Q6.2793 13.1055 6.19629 13.1836Q6.11328 13.2617 6.11328 13.4082Q6.11328 13.5547 6.20605 13.6475Q6.29883 13.7402 6.43555 13.7402Z" fill="rgba(0,0,0,0.85)"/>
 </g>
</svg>
