<?xml version="1.0" encoding="UTF-8"?>
<!--Generator: Apple Native CoreSVG 175-->
<!DOCTYPE svg
PUBLIC "-//W3C//DTD SVG 1.1//EN"
       "http://www.w3.org/Graphics/SVG/1.1/DTD/svg11.dtd">
<svg version="1.1" xmlns="http://www.w3.org/2000/svg" xmlns:xlink="http://www.w3.org/1999/xlink" width="19.1602" height="19.1504">
 <g>
  <rect height="19.1504" opacity="0" width="19.1602" x="0" y="0"/>
  <path d="M9.57031 19.1406Q11.5527 19.1406 13.2861 18.3984Q15.0195 17.6562 16.3379 16.333Q17.6562 15.0098 18.4082 13.2764Q19.1602 11.543 19.1602 9.57031Q19.1602 7.59766 18.4082 5.86426Q17.6562 4.13086 16.3379 2.80762Q15.0195 1.48438 13.2861 0.742188Q11.5527 0 9.57031 0Q7.59766 0 5.86426 0.742188Q4.13086 1.48438 2.81738 2.80762Q1.50391 4.13086 0.751953 5.86426Q0 7.59766 0 9.57031Q0 11.543 0.74707 13.2764Q1.49414 15.0098 2.8125 16.333Q4.13086 17.6562 5.86914 18.3984Q7.60742 19.1406 9.57031 19.1406ZM9.57031 18.3984Q7.74414 18.3984 6.14746 17.71Q4.55078 17.0215 3.33496 15.8105Q2.11914 14.5996 1.43555 12.998Q0.751953 11.3965 0.751953 9.57031Q0.751953 7.74414 1.43555 6.14258Q2.11914 4.54102 3.33496 3.3252Q4.55078 2.10938 6.14746 1.4209Q7.74414 0.732422 9.57031 0.732422Q11.4062 0.732422 13.0029 1.4209Q14.5996 2.10938 15.8154 3.3252Q17.0312 4.54102 17.7197 6.14258Q18.4082 7.74414 18.4082 9.57031Q18.4082 11.3965 17.7246 12.998Q17.041 14.5996 15.8252 15.8105Q14.6094 17.0215 13.0078 17.71Q11.4062 18.3984 9.57031 18.3984ZM3.17383 6.36719Q3.17383 7.2168 3.50098 8.10547Q3.82812 8.99414 4.36035 9.75098Q4.89258 10.5078 5.52246 10.9717Q6.15234 11.4355 6.75781 11.4355L6.91406 11.4355Q7.51953 11.4355 8.14941 10.9717Q8.7793 10.5078 9.31152 9.75098Q9.84375 8.99414 10.1709 8.10547Q10.498 7.2168 10.498 6.36719Q10.498 5.56641 10.1221 5.17578Q9.74609 4.78516 8.98438 4.78516L8.53516 4.78516L8.53516 5.39062L9.10156 5.39062Q9.88281 5.39062 9.88281 6.35742Q9.88281 7.08984 9.60449 7.87598Q9.32617 8.66211 8.86719 9.33105Q8.4082 10 7.87598 10.415Q7.34375 10.8301 6.8457 10.8301Q6.34766 10.8301 5.81055 10.415Q5.27344 10 4.81934 9.33105Q4.36523 8.66211 4.07715 7.87598Q3.78906 7.08984 3.78906 6.35742Q3.78906 5.39062 4.58984 5.39062L5.14648 5.39062L5.14648 4.78516L4.70703 4.78516Q3.93555 4.78516 3.55469 5.18066Q3.17383 5.57617 3.17383 6.36719ZM8.88672 14.9609Q10.0684 14.9609 10.6641 14.1357Q11.2598 13.3105 11.5234 11.3477Q11.6797 10.1465 12.0117 9.60449Q12.3438 9.0625 12.9199 9.0625Q13.4961 9.0625 13.8135 9.6875Q14.1309 10.3125 14.1992 11.6211L14.8047 11.6211Q14.7266 10.0293 14.2578 9.24316Q13.7891 8.45703 12.9199 8.45703Q12.0801 8.45703 11.6113 9.09668Q11.1426 9.73633 10.9082 11.1816Q10.752 12.2266 10.5518 12.9297Q10.3516 13.6328 9.96582 13.9941Q9.58008 14.3555 8.87695 14.3555Q7.97852 14.3555 7.54395 13.5352Q7.10938 12.7148 7.13867 11.0645L6.52344 11.0645Q6.49414 12.9883 7.08984 13.9746Q7.68555 14.9609 8.88672 14.9609ZM5.37109 5.68359Q5.625 5.68359 5.80078 5.49805Q5.97656 5.3125 5.97656 5.06836Q5.97656 4.82422 5.80078 4.64844Q5.625 4.47266 5.37109 4.47266Q5.11719 4.47266 4.93652 4.64844Q4.75586 4.82422 4.75586 5.06836Q4.75586 5.3125 4.93652 5.49805Q5.11719 5.68359 5.37109 5.68359ZM8.31055 5.68359Q8.56445 5.68359 8.74023 5.49805Q8.91602 5.3125 8.91602 5.06836Q8.91602 4.82422 8.74023 4.64844Q8.56445 4.47266 8.31055 4.47266Q8.06641 4.47266 7.88574 4.64844Q7.70508 4.82422 7.70508 5.06836Q7.70508 5.3125 7.88574 5.49805Q8.06641 5.68359 8.31055 5.68359ZM14.4824 14.5117Q15.1855 14.5117 15.6787 14.0234Q16.1719 13.5352 16.1719 12.832Q16.1719 12.1387 15.6787 11.6504Q15.1855 11.1621 14.4824 11.1621Q13.7891 11.1621 13.2959 11.6553Q12.8027 12.1484 12.8027 12.832Q12.8027 13.5449 13.291 14.0283Q13.7793 14.5117 14.4824 14.5117ZM14.4824 13.9258Q14.0332 13.9258 13.7158 13.6084Q13.3984 13.291 13.3984 12.832Q13.3984 12.3828 13.7158 12.0654Q14.0332 11.748 14.4824 11.748Q14.9414 11.748 15.2588 12.0654Q15.5762 12.3828 15.5762 12.832Q15.5762 13.291 15.2588 13.6084Q14.9414 13.9258 14.4824 13.9258Z" fill="rgba(0,0,0,0.85)"/>
 </g>
</svg>
