<?xml version="1.0" encoding="UTF-8"?>
<!--Generator: Apple Native CoreSVG 175-->
<!DOCTYPE svg
PUBLIC "-//W3C//DTD SVG 1.1//EN"
       "http://www.w3.org/Graphics/SVG/1.1/DTD/svg11.dtd">
<svg version="1.1" xmlns="http://www.w3.org/2000/svg" xmlns:xlink="http://www.w3.org/1999/xlink" width="17.634" height="19.0091">
 <g>
  <rect height="19.0091" opacity="0" width="17.634" x="0" y="0"/>
  <path d="M0 11.0191Q0 12.1884 0.501175 13.0766Q1.00235 13.9648 1.89064 14.466Q2.77893 14.9672 3.94806 14.9672Q5.01602 14.9672 5.88631 14.544Q6.75659 14.1208 7.20047 13.3247L7.30515 13.3247Q7.22778 13.8481 6.99265 14.3122Q6.75751 14.7763 6.42548 15.1923Q6.09344 15.6082 5.72838 15.977Q5.36331 16.3458 5.02899 16.6689Q4.80743 16.893 4.74747 17.143Q4.6875 17.393 4.776 17.6194Q4.8645 17.8458 5.08263 17.9872Q5.30075 18.1287 5.61447 18.1287L12.0195 18.1287Q12.3402 18.1287 12.5536 17.9872Q12.7669 17.8458 12.8567 17.6194Q12.9465 17.393 12.89 17.143Q12.8336 16.893 12.6051 16.6689Q12.2679 16.3458 11.9043 15.977Q11.5407 15.6082 11.2086 15.1923Q10.8766 14.7763 10.6415 14.3122Q10.4063 13.8481 10.336 13.3247L10.4337 13.3247Q10.8774 14.1208 11.7477 14.544Q12.618 14.9672 13.6832 14.9672Q14.855 14.9672 15.7468 14.466Q16.6386 13.9648 17.1363 13.0766Q17.634 12.1884 17.634 11.0191Q17.634 9.95361 17.1889 9.07921Q16.7438 8.2048 16.0036 7.43156Q15.2634 6.65833 14.3606 5.90591Q13.4578 5.1535 12.5258 4.34181Q11.5938 3.53012 10.7735 2.58087Q9.95316 1.63162 9.38828 0.449982Q9.29108 0.248413 9.16077 0.124207Q9.03046 0 8.81561 0Q8.60352 0 8.47679 0.124207Q8.35007 0.248413 8.25272 0.449982Q7.68784 1.63162 6.86401 2.58087Q6.04019 3.53012 5.11032 4.34181Q4.18045 5.1535 3.2756 5.90591Q2.37076 6.65833 1.63048 7.43156Q0.890198 8.2048 0.445099 9.07921Q0 9.95361 0 11.0191Z" fill="rgba(0,0,0,0.85)"/>
 </g>
</svg>
