<?xml version="1.0" encoding="UTF-8"?>
<!--Generator: Apple Native CoreSVG 175-->
<!DOCTYPE svg
PUBLIC "-//W3C//DTD SVG 1.1//EN"
       "http://www.w3.org/Graphics/SVG/1.1/DTD/svg11.dtd">
<svg version="1.1" xmlns="http://www.w3.org/2000/svg" xmlns:xlink="http://www.w3.org/1999/xlink" width="11.1343" height="17.9785">
 <g>
  <rect height="17.9785" opacity="0" width="11.1343" x="0" y="0"/>
  <path d="M0.591431 17.9785L10.7239 17.9785Q10.891 17.9785 10.9972 17.8854Q11.1035 17.7922 11.1035 17.6222Q11.1035 17.455 10.9972 17.3556Q10.891 17.2562 10.7239 17.2562L0.900421 17.2562L0.900421 17.2386L7.12585 9.0184Q7.19879 8.91754 7.24159 8.81325Q7.28439 8.70895 7.28439 8.60825Q7.28439 8.49335 7.23808 8.3828Q7.19177 8.27225 7.1019 8.17413L0.931244 0.739899L0.931244 0.722351L10.752 0.722351Q10.9219 0.722351 11.0281 0.62294Q11.1343 0.523529 11.1343 0.356293Q11.1343 0.18631 11.0281 0.0931549Q10.9219 0 10.752 0L0.643463 0Q0.462494 0 0.327759 0.0759888Q0.193024 0.151978 0.115433 0.282669Q0.0378418 0.413361 0.0378418 0.566864Q0.0378418 0.673065 0.0814056 0.788498Q0.124969 0.903931 0.221863 1.00906L6.51047 8.59177L6.51047 8.61481L0.167236 16.9695Q0.0801086 17.0746 0.0400543 17.19Q0 17.3055 0 17.4187Q0 17.5722 0.0704956 17.6994Q0.140991 17.8265 0.275803 17.9025Q0.410614 17.9785 0.591431 17.9785Z" fill="rgba(0,0,0,0.85)"/>
 </g>
</svg>
