<?xml version="1.0" encoding="UTF-8"?>
<!--Generator: Apple Native CoreSVG 175-->
<!DOCTYPE svg
PUBLIC "-//W3C//DTD SVG 1.1//EN"
       "http://www.w3.org/Graphics/SVG/1.1/DTD/svg11.dtd">
<svg version="1.1" xmlns="http://www.w3.org/2000/svg" xmlns:xlink="http://www.w3.org/1999/xlink" width="18.732" height="18.7418">
 <g>
  <rect height="18.7418" opacity="0" width="18.732" x="0" y="0"/>
  <path d="M9.366 13.9571Q10.3043 13.9571 11.1373 13.5945Q11.9704 13.232 12.6026 12.6012Q13.2349 11.9704 13.5938 11.1373Q13.9528 10.3043 13.9528 9.366Q13.9528 8.42499 13.5938 7.59331Q13.2349 6.76163 12.6026 6.12595Q11.9704 5.49026 11.1373 5.13123Q10.3043 4.77219 9.366 4.77219Q8.42072 4.77219 7.59125 5.13123Q6.76178 5.49026 6.1274 6.12595Q5.49301 6.76163 5.13397 7.59331Q4.77493 8.42499 4.77493 9.366Q4.77493 10.3043 5.13397 11.1373Q5.49301 11.9704 6.1274 12.6012Q6.76178 13.232 7.59125 13.5945Q8.42072 13.9571 9.366 13.9571ZM9.366 13.246Q8.30353 13.246 7.42111 12.7197Q6.5387 12.1933 6.00883 11.3109Q5.47897 10.4285 5.47897 9.366Q5.47897 8.30627 6.00883 7.42249Q6.5387 6.5387 7.42111 6.01097Q8.30353 5.48325 9.366 5.48325Q10.4285 5.48325 11.3109 6.01097Q12.1933 6.5387 12.7211 7.42111Q13.2489 8.30353 13.2489 9.366Q13.2489 10.4285 12.7211 11.3109Q12.1933 12.1933 11.3109 12.7197Q10.4285 13.246 9.366 13.246ZM0.85434 10.2133Q1.20346 10.2133 1.45256 9.96429Q1.70166 9.71527 1.70166 9.366Q1.70166 9.01672 1.45256 8.76419Q1.20346 8.51166 0.85434 8.51166Q0.498047 8.51166 0.249023 8.76419Q0 9.01672 0 9.366Q0 9.71527 0.249023 9.96429Q0.498047 10.2133 0.85434 10.2133ZM3.34137 4.19571Q3.69064 4.19571 3.94318 3.94318Q4.19571 3.69064 4.19571 3.34137Q4.19571 2.9921 3.94318 2.74307Q3.69064 2.49405 3.34137 2.49405Q2.99225 2.49405 2.74323 2.74307Q2.4942 2.9921 2.4942 3.34137Q2.4942 3.69064 2.74323 3.94318Q2.99225 4.19571 3.34137 4.19571ZM9.366 1.70151Q9.71527 1.70151 9.96429 1.45248Q10.2133 1.20346 10.2133 0.85434Q10.2133 0.505066 9.96429 0.252533Q9.71527 0 9.366 0Q9.01688 0 8.76427 0.252533Q8.51166 0.505066 8.51166 0.85434Q8.51166 1.20346 8.76427 1.45248Q9.01688 1.70151 9.366 1.70151ZM15.3836 4.19571Q15.7399 4.19571 15.9889 3.94318Q16.2379 3.69064 16.2379 3.34137Q16.2379 2.9921 15.9889 2.74307Q15.7399 2.49405 15.3836 2.49405Q15.0343 2.49405 14.7853 2.74307Q14.5363 2.9921 14.5363 3.34137Q14.5363 3.69064 14.7853 3.94318Q15.0343 4.19571 15.3836 4.19571ZM17.8778 10.2133Q18.2269 10.2133 18.4795 9.96429Q18.732 9.71527 18.732 9.366Q18.732 9.01672 18.4795 8.76419Q18.2269 8.51166 17.8778 8.51166Q17.5285 8.51166 17.276 8.76419Q17.0235 9.01672 17.0235 9.366Q17.0235 9.71527 17.276 9.96429Q17.5285 10.2133 17.8778 10.2133ZM15.3836 16.2379Q15.7399 16.2379 15.9889 15.9889Q16.2379 15.7399 16.2379 15.3906Q16.2379 15.0414 15.9889 14.7888Q15.7399 14.5363 15.3836 14.5363Q15.0343 14.5363 14.7853 14.7888Q14.5363 15.0414 14.5363 15.3906Q14.5363 15.7399 14.7853 15.9889Q15.0343 16.2379 15.3836 16.2379ZM9.366 18.732Q9.71527 18.732 9.96429 18.4795Q10.2133 18.2269 10.2133 17.8777Q10.2133 17.5285 9.96429 17.2795Q9.71527 17.0305 9.366 17.0305Q9.01688 17.0305 8.76427 17.2795Q8.51166 17.5285 8.51166 17.8777Q8.51166 18.2269 8.76427 18.4795Q9.01688 18.732 9.366 18.732ZM3.34137 16.2379Q3.69064 16.2379 3.94318 15.9889Q4.19571 15.7399 4.19571 15.3906Q4.19571 15.0414 3.94318 14.7888Q3.69064 14.5363 3.34137 14.5363Q2.99225 14.5363 2.74323 14.7888Q2.4942 15.0414 2.4942 15.3906Q2.4942 15.7399 2.74323 15.9889Q2.99225 16.2379 3.34137 16.2379Z" fill="rgba(0,0,0,0.85)"/>
 </g>
</svg>
