<?xml version="1.0" encoding="UTF-8"?>
<!--Generator: Apple Native CoreSVG 175-->
<!DOCTYPE svg
PUBLIC "-//W3C//DTD SVG 1.1//EN"
       "http://www.w3.org/Graphics/SVG/1.1/DTD/svg11.dtd">
<svg version="1.1" xmlns="http://www.w3.org/2000/svg" xmlns:xlink="http://www.w3.org/1999/xlink" width="19.1602" height="19.1504">
 <g>
  <rect height="19.1504" opacity="0" width="19.1602" x="0" y="0"/>
  <path d="M9.57031 19.1504Q11.5527 19.1504 13.2861 18.4082Q15.0195 17.666 16.3379 16.3428Q17.6562 15.0195 18.4082 13.2861Q19.1602 11.5527 19.1602 9.58008Q19.1602 7.60742 18.4082 5.87402Q17.6562 4.14062 16.3379 2.81738Q15.0195 1.49414 13.2861 0.751953Q11.5527 0.00976562 9.57031 0.00976562Q7.59766 0.00976562 5.86426 0.751953Q4.13086 1.49414 2.81738 2.81738Q1.50391 4.14062 0.751953 5.87402Q0 7.60742 0 9.58008Q0 11.5527 0.74707 13.2861Q1.49414 15.0195 2.8125 16.3428Q4.13086 17.666 5.86914 18.4082Q7.60742 19.1504 9.57031 19.1504ZM9.57031 12.3926Q8.79883 12.3926 8.1543 12.0117Q7.50977 11.6309 7.12402 10.9863Q6.73828 10.3418 6.73828 9.57031Q6.73828 8.79883 7.12402 8.1543Q7.50977 7.50977 8.1543 7.12402Q8.79883 6.73828 9.57031 6.73828Q10.3418 6.73828 10.9814 7.12402Q11.6211 7.50977 12.0068 8.1543Q12.3926 8.79883 12.3926 9.57031Q12.3926 10.3418 12.0068 10.9863Q11.6211 11.6309 10.9814 12.0117Q10.3418 12.3926 9.57031 12.3926ZM9.58008 3.25195Q9.70703 3.25195 9.80469 3.35449Q9.90234 3.45703 9.90234 3.59375L9.90234 4.94141Q9.90234 5.06836 9.80469 5.16113Q9.70703 5.25391 9.58008 5.25391Q9.45312 5.25391 9.35059 5.16113Q9.24805 5.06836 9.24805 4.94141L9.24805 3.59375Q9.24805 3.45703 9.35059 3.35449Q9.45312 3.25195 9.58008 3.25195ZM14.0332 5.11719Q14.1211 5.20508 14.1211 5.3418Q14.1211 5.47852 14.0332 5.57617L13.0762 6.52344Q12.9785 6.62109 12.8467 6.62598Q12.7148 6.63086 12.627 6.52344Q12.5293 6.43555 12.5293 6.30371Q12.5293 6.17188 12.627 6.07422L13.5645 5.11719Q13.6621 5.01953 13.7988 5.02441Q13.9355 5.0293 14.0332 5.11719ZM15.8887 9.57031Q15.8887 9.69727 15.7861 9.79492Q15.6836 9.89258 15.5566 9.89258L14.1992 9.89258Q14.0723 9.89258 13.9795 9.79492Q13.8867 9.69727 13.8867 9.57031Q13.8867 9.44336 13.9795 9.34082Q14.0723 9.23828 14.1992 9.23828L15.5566 9.23828Q15.6836 9.23828 15.7861 9.34082Q15.8887 9.44336 15.8887 9.57031ZM14.0332 14.0234Q13.9355 14.1113 13.7988 14.1113Q13.6621 14.1113 13.5645 14.0234L12.627 13.0664Q12.5293 12.9688 12.5244 12.8369Q12.5195 12.7051 12.627 12.6074Q12.7148 12.5195 12.8467 12.5195Q12.9785 12.5195 13.0664 12.6074L14.0332 13.5645Q14.1211 13.6621 14.1211 13.7939Q14.1211 13.9258 14.0332 14.0234ZM9.58008 15.8789Q9.45312 15.8789 9.35059 15.7812Q9.24805 15.6836 9.24805 15.5469L9.24805 14.1992Q9.24805 14.0723 9.35059 13.9746Q9.45312 13.877 9.58008 13.877Q9.70703 13.877 9.80469 13.9746Q9.90234 14.0723 9.90234 14.1992L9.90234 15.5469Q9.90234 15.6836 9.80469 15.7812Q9.70703 15.8789 9.58008 15.8789ZM5.11719 14.0234Q5.0293 13.9258 5.02441 13.7939Q5.01953 13.6621 5.11719 13.5645L6.07422 12.6074Q6.17188 12.5195 6.30859 12.5195Q6.44531 12.5195 6.5332 12.6074Q6.63086 12.7148 6.62598 12.8467Q6.62109 12.9785 6.5332 13.0762L5.57617 14.0234Q5.47852 14.1113 5.3418 14.1113Q5.20508 14.1113 5.11719 14.0234ZM3.27148 9.57031Q3.27148 9.44336 3.36914 9.34082Q3.4668 9.23828 3.60352 9.23828L4.95117 9.23828Q5.07812 9.23828 5.17578 9.34082Q5.27344 9.44336 5.27344 9.57031Q5.27344 9.69727 5.17578 9.79492Q5.07812 9.89258 4.95117 9.89258L3.60352 9.89258Q3.4668 9.89258 3.36914 9.79492Q3.27148 9.69727 3.27148 9.57031ZM5.12695 5.11719Q5.22461 5.0293 5.35645 5.02441Q5.48828 5.01953 5.58594 5.11719L6.5332 6.07422Q6.62109 6.17188 6.62109 6.30859Q6.62109 6.44531 6.5332 6.52344Q6.44531 6.62109 6.30859 6.62598Q6.17188 6.63086 6.07422 6.52344L5.12695 5.57617Q5.0293 5.47852 5.03418 5.3418Q5.03906 5.20508 5.12695 5.11719Z" fill="rgba(0,0,0,0.85)"/>
 </g>
</svg>
