<?xml version="1.0" encoding="UTF-8"?>
<!--Generator: Apple Native CoreSVG 175-->
<!DOCTYPE svg
PUBLIC "-//W3C//DTD SVG 1.1//EN"
       "http://www.w3.org/Graphics/SVG/1.1/DTD/svg11.dtd">
<svg version="1.1" xmlns="http://www.w3.org/2000/svg" xmlns:xlink="http://www.w3.org/1999/xlink" width="21.0582" height="18.8809">
 <g>
  <rect height="18.8809" opacity="0" width="21.0582" x="0" y="0"/>
  <path d="M0 12.0703Q0.474243 12.85 1.25389 13.7482Q2.03354 14.6465 3.07617 15.5168Q4.1188 16.3872 5.40337 17.1033Q6.68793 17.8195 8.1852 18.2484Q9.68246 18.6774 11.3687 18.6774Q12.4442 18.6774 13.2398 18.51Q14.0355 18.3426 14.6527 18.0908Q15.2699 17.8391 15.7944 17.5922Q16.3188 17.3454 16.8432 17.178Q17.3676 17.0107 17.991 17.0107Q18.8586 17.0107 19.4012 17.3174Q19.9438 17.6242 20.2409 18.0092Q20.5379 18.3942 20.6676 18.6285Q20.7332 18.7387 20.8176 18.768Q20.9019 18.7973 20.9676 18.5895Q21.0066 18.4402 21.0324 18.2436Q21.0582 18.0469 21.0582 17.8Q21.0582 17.3454 20.925 16.6389Q20.7918 15.9325 20.4069 15.0671Q20.022 14.2017 19.2618 13.2532Q19.5087 12.5446 19.5686 11.8333Q19.6286 11.122 19.6286 10.6673Q19.6286 9.63089 19.2973 8.27797Q18.9661 6.92505 18.2045 5.45845Q17.4429 3.99185 16.15 2.57896Q14.857 1.16608 12.9282 0Q13.4637 0.760193 14.0453 1.78322Q14.6269 2.80624 15.0328 4.10896Q15.4387 5.41168 15.4387 7.00592Q15.4387 7.87354 15.2434 8.73756Q15.0481 9.60159 14.85 10.0829Q14.016 9.59885 12.9246 8.81561Q11.8332 8.03238 10.6441 7.09373Q9.45511 6.15509 8.30376 5.17601Q7.1524 4.19693 6.1795 3.29865Q5.2066 2.40036 4.56375 1.71844Q5.84961 3.69614 7.36992 5.53307Q8.89023 7.37 10.5794 9.24728Q8.30582 7.81219 6.17813 6.20262Q4.05045 4.59305 2.07535 2.82303Q3.97934 5.57343 6.41876 8.2682Q8.85818 10.963 12.0187 13.5126Q11.4175 13.8474 10.7627 14.1187Q10.1079 14.39 9.30237 14.5489Q8.49686 14.7078 7.4411 14.7078Q6.4801 14.7078 5.44243 14.4952Q4.40475 14.2825 3.40256 13.9087Q2.40036 13.5349 1.52168 13.0606Q0.643005 12.5864 0 12.0703Z" fill="rgba(0,0,0,0.85)"/>
 </g>
</svg>
