<?xml version="1.0" encoding="UTF-8"?>
<!--Generator: Apple Native CoreSVG 175-->
<!DOCTYPE svg
PUBLIC "-//W3C//DTD SVG 1.1//EN"
       "http://www.w3.org/Graphics/SVG/1.1/DTD/svg11.dtd">
<svg version="1.1" xmlns="http://www.w3.org/2000/svg" xmlns:xlink="http://www.w3.org/1999/xlink" width="21.1977" height="22.4695">
 <g>
  <rect height="22.4695" opacity="0" width="21.1977" x="0" y="0"/>
  <path d="M10.8809 21.5534L20.5359 11.8646Q20.8368 11.5639 20.9733 11.3398Q21.1098 11.1157 21.1537 10.8113Q21.1977 10.5068 21.1977 9.98919L21.1977 6.27124Q21.1977 5.8591 21.1401 5.59527Q21.0825 5.33145 20.9028 5.08479Q20.7231 4.83813 20.352 4.46002L18.0286 2.13656Q17.6505 1.76821 17.4051 1.58709Q17.1597 1.40597 16.8959 1.34837Q16.6321 1.29077 16.22 1.29077L12.4993 1.29077Q11.9844 1.29077 11.6786 1.33471Q11.3727 1.37866 11.1451 1.5166Q10.9175 1.65454 10.6265 1.94552L0.914021 11.5892Q-0.00425267 12.5077 1.97865e-05 13.4483Q0.00429225 14.3889 0.916768 15.3084L7.16875 21.5576Q8.08825 22.4744 9.03246 22.4695Q9.97667 22.4646 10.8809 21.5534ZM10.3887 21.0115Q9.0262 22.3838 7.65398 21.0088L1.45586 14.8134Q0.778218 14.1358 0.783101 13.4399Q0.787984 12.744 1.45311 12.0787L11.1395 2.46112Q11.3562 2.23727 11.608 2.12832Q11.8598 2.01937 12.1672 2.01937L16.2786 2.01937Q16.8547 2.01937 17.2937 2.46112L20.0301 5.19473Q20.4692 5.63372 20.4692 6.2099L20.4692 10.324Q20.4692 10.6314 20.3616 10.8818Q20.2539 11.1322 20.0301 11.3491ZM15.1618 8.32293Q15.5832 8.32293 15.8657 8.03775Q16.1481 7.75256 16.1481 7.32943Q16.1481 6.91073 15.8657 6.62341Q15.5832 6.33609 15.1618 6.33609Q14.7333 6.33609 14.4509 6.62341Q14.1684 6.91073 14.1684 7.32943Q14.1684 7.75256 14.4509 8.03775Q14.7333 8.32293 15.1618 8.32293Z" fill="rgba(0,0,0,0.85)"/>
 </g>
</svg>
