<?xml version="1.0" encoding="UTF-8"?>
<!--Generator: Apple Native CoreSVG 175-->
<!DOCTYPE svg
PUBLIC "-//W3C//DTD SVG 1.1//EN"
       "http://www.w3.org/Graphics/SVG/1.1/DTD/svg11.dtd">
<svg version="1.1" xmlns="http://www.w3.org/2000/svg" xmlns:xlink="http://www.w3.org/1999/xlink" width="23.301" height="21.4926">
 <g>
  <rect height="21.4926" opacity="0" width="23.301" x="0" y="0"/>
  <path d="M16.1458 21.4352L20.5476 21.4352Q21.3387 21.4352 21.7664 21.0307Q22.1942 20.6262 22.2736 19.8106L23.299 9.21799Q23.3168 8.94852 23.1815 8.79089Q23.0461 8.63327 22.7724 8.63327L13.9185 8.63327Q13.6473 8.63327 13.5085 8.79227Q13.3696 8.95126 13.3946 9.21799L14.42 19.8106Q14.4965 20.6262 14.9242 21.0307Q15.352 21.4352 16.1458 21.4352ZM16.1551 20.7204Q15.209 20.7204 15.1196 19.7591L14.1399 9.35516L22.5465 9.35516L21.571 19.7591Q21.4844 20.7204 20.5383 20.7204ZM18.0411 8.89221L18.756 8.89221L18.8145 8.02353Q18.8438 7.61017 18.9975 7.34764Q19.1512 7.08511 19.4949 6.84067L22.7567 4.4899Q22.9063 4.38599 22.9153 4.23691Q22.9242 4.08783 22.8369 3.97148Q22.7496 3.85513 22.6006 3.82324Q22.4516 3.79135 22.2781 3.91479L19.1336 6.18317Q18.6024 6.56525 18.3845 6.97128Q18.1665 7.37732 18.1122 7.98752ZM2.61292 20.211L13.5922 20.211Q13.5754 20.1357 13.567 20.0567Q13.5587 19.9777 13.5489 19.8953L13.5089 19.4824L2.63947 19.4824Q0.728607 19.4824 0.728607 17.5661L0.728607 7.84653Q0.728607 7.30316 0.782471 7.03011Q0.836334 6.75705 1.09146 6.40671L2.8833 4.04892Q2.94144 3.96561 2.96783 3.88161Q2.99423 3.79761 2.99423 3.68942L2.99423 2.11014Q2.99423 0.728607 4.26804 0.728607L12.2153 0.728607Q13.4863 0.728607 13.4863 2.11014L13.4863 3.68942Q13.4863 3.79761 13.5127 3.88161Q13.5391 3.96561 13.5973 4.04892L15.3821 6.40671Q15.6415 6.74454 15.6953 7.00447Q15.7492 7.2644 15.7492 7.7594L16.4806 7.7594Q16.4806 7.12036 16.3927 6.78009Q16.3048 6.43982 15.9818 6.01059L14.2149 3.65936L14.2149 2.05002Q14.2149 1.04996 13.712 0.524979Q13.2091 0 12.2321 0L4.2485 0Q3.27148 0 2.76855 0.524979Q2.26562 1.04996 2.26562 2.05002L2.26562 3.65936L0.501556 6.01059Q0.166016 6.45233 0.0830078 6.80016Q0 7.14798 0 7.83157L0 17.6019Q0 18.884 0.662689 19.5475Q1.32538 20.211 2.61292 20.211ZM5.41092 3.08014L10.9488 3.08014Q11.0832 3.08014 11.1774 2.98599Q11.2715 2.89185 11.2715 2.75467Q11.2715 2.61765 11.1774 2.51862Q11.0832 2.41959 10.9488 2.41959L5.41092 2.41959Q5.27664 2.41959 5.17899 2.51862Q5.08133 2.61765 5.08133 2.75467Q5.08133 2.89185 5.17899 2.98599Q5.27664 3.08014 5.41092 3.08014Z" fill="rgba(0,0,0,0.85)"/>
 </g>
</svg>
