<?xml version="1.0" encoding="UTF-8"?>
<!--Generator: Apple Native CoreSVG 175-->
<!DOCTYPE svg
PUBLIC "-//W3C//DTD SVG 1.1//EN"
       "http://www.w3.org/Graphics/SVG/1.1/DTD/svg11.dtd">
<svg version="1.1" xmlns="http://www.w3.org/2000/svg" xmlns:xlink="http://www.w3.org/1999/xlink" width="19.1602" height="19.1504">
 <g>
  <rect height="19.1504" opacity="0" width="19.1602" x="0" y="0"/>
  <path d="M9.57031 19.1406Q11.5527 19.1406 13.2861 18.3984Q15.0195 17.6562 16.3379 16.333Q17.6562 15.0098 18.4082 13.2764Q19.1602 11.543 19.1602 9.57031Q19.1602 7.59766 18.4082 5.86426Q17.6562 4.13086 16.3379 2.80762Q15.0195 1.48438 13.2861 0.742188Q11.5527 0 9.57031 0Q7.59766 0 5.86426 0.742188Q4.13086 1.48438 2.81738 2.80762Q1.50391 4.13086 0.751953 5.86426Q0 7.59766 0 9.57031Q0 11.543 0.74707 13.2764Q1.49414 15.0098 2.8125 16.333Q4.13086 17.6562 5.86914 18.3984Q7.60742 19.1406 9.57031 19.1406ZM9.57031 18.3984Q7.74414 18.3984 6.14746 17.71Q4.55078 17.0215 3.33496 15.8105Q2.11914 14.5996 1.43555 12.998Q0.751953 11.3965 0.751953 9.57031Q0.751953 7.74414 1.43555 6.14258Q2.11914 4.54102 3.33496 3.3252Q4.55078 2.10938 6.14746 1.4209Q7.74414 0.732422 9.57031 0.732422Q11.4062 0.732422 13.0029 1.4209Q14.5996 2.10938 15.8154 3.3252Q17.0312 4.54102 17.7197 6.14258Q18.4082 7.74414 18.4082 9.57031Q18.4082 11.3965 17.7246 12.998Q17.041 14.5996 15.8252 15.8105Q14.6094 17.0215 13.0078 17.71Q11.4062 18.3984 9.57031 18.3984ZM11.2305 14.6875Q11.5918 14.3555 11.5283 14.0088Q11.4648 13.6621 11.0156 13.3105L9.67773 12.2266Q9.27734 11.9141 8.99902 11.9824Q8.7207 12.0508 8.44727 12.334L8.31055 12.4512Q8.0957 12.666 7.69531 12.4414Q7.29492 12.2168 6.39648 11.3281Q5.50781 10.4395 5.2832 10.0293Q5.05859 9.61914 5.2832 9.4043L5.40039 9.29688Q5.70312 9.01367 5.76172 8.73047Q5.82031 8.44727 5.50781 8.04688L4.42383 6.71875Q4.05273 6.26953 3.71582 6.20605Q3.37891 6.14258 3.02734 6.50391Q2.38281 7.13867 2.42188 8.11523Q2.46094 9.0918 3.125 10.2686Q3.78906 11.4453 5.03906 12.6855Q6.28906 13.9355 7.46582 14.5996Q8.64258 15.2637 9.61426 15.3027Q10.5859 15.3418 11.2305 14.6875ZM7.30469 8.35938L8.14453 8.35938Q8.65234 8.35938 8.65234 7.8418L8.65234 6.99219Q8.65234 6.48438 8.14453 6.48438L7.30469 6.48438Q6.77734 6.48438 6.77734 6.99219L6.77734 7.8418Q6.77734 8.35938 7.30469 8.35938ZM9.85352 8.35938L10.7031 8.35938Q11.2109 8.35938 11.2109 7.8418L11.2109 6.99219Q11.2109 6.48438 10.7031 6.48438L9.85352 6.48438Q9.32617 6.48438 9.32617 6.99219L9.32617 7.8418Q9.32617 8.35938 9.85352 8.35938ZM12.4023 8.35938L13.252 8.35938Q13.7695 8.35938 13.7695 7.8418L13.7695 6.99219Q13.7695 6.48438 13.252 6.48438L12.4023 6.48438Q11.8945 6.48438 11.8945 6.99219L11.8945 7.8418Q11.8945 8.35938 12.4023 8.35938ZM14.9609 8.35938L15.8008 8.35938Q16.3281 8.35938 16.3281 7.8418L16.3281 6.99219Q16.3281 6.48438 15.8008 6.48438L14.9609 6.48438Q14.4531 6.48438 14.4531 6.99219L14.4531 7.8418Q14.4531 8.35938 14.9609 8.35938ZM7.28516 10.918L8.125 10.918Q8.65234 10.918 8.65234 10.4102L8.65234 9.55078Q8.65234 9.04297 8.125 9.04297L7.28516 9.04297Q6.77734 9.04297 6.77734 9.55078L6.77734 10.4102Q6.77734 10.918 7.28516 10.918ZM9.84375 10.918L13.2617 10.918Q13.7793 10.918 13.7793 10.4102L13.7793 9.55078Q13.7793 9.04297 13.2617 9.04297L9.84375 9.04297Q9.32617 9.04297 9.32617 9.55078L9.32617 10.4102Q9.32617 10.918 9.84375 10.918ZM14.9707 10.918L15.8105 10.918Q16.3281 10.918 16.3281 10.4102L16.3281 9.55078Q16.3281 9.04297 15.8105 9.04297L14.9707 9.04297Q14.4629 9.04297 14.4629 9.55078L14.4629 10.4102Q14.4629 10.918 14.9707 10.918Z" fill="rgba(0,0,0,0.85)"/>
 </g>
</svg>
