<?xml version="1.0" encoding="UTF-8"?>
<!--Generator: Apple Native CoreSVG 175-->
<!DOCTYPE svg
PUBLIC "-//W3C//DTD SVG 1.1//EN"
       "http://www.w3.org/Graphics/SVG/1.1/DTD/svg11.dtd">
<svg version="1.1" xmlns="http://www.w3.org/2000/svg" xmlns:xlink="http://www.w3.org/1999/xlink" width="17.2852" height="17.3145">
 <g>
  <rect height="17.3145" opacity="0" width="17.2852" x="0" y="0"/>
  <path d="M2.62695 17.3145L14.6484 17.3145Q15.957 17.3145 16.6211 16.6455Q17.2852 15.9766 17.2852 14.6875L17.2852 2.65625Q17.2852 1.37695 16.6211 0.703125Q15.957 0.0292969 14.6484 0.0292969L2.62695 0.0292969Q1.33789 0.0292969 0.668945 0.693359Q0 1.35742 0 2.65625L0 14.6875Q0 15.9863 0.668945 16.6504Q1.33789 17.3145 2.62695 17.3145ZM2.65625 16.5918Q1.70898 16.5918 1.2207 16.1035Q0.732422 15.6152 0.732422 14.6582L0.732422 2.69531Q0.732422 1.72852 1.2207 1.24512Q1.70898 0.761719 2.65625 0.761719L14.6289 0.761719Q15.5566 0.761719 16.0596 1.24512Q16.5625 1.72852 16.5625 2.69531L16.5625 14.6582Q16.5625 15.6152 16.0596 16.1035Q15.5566 16.5918 14.6289 16.5918ZM5.3418 6.65039Q5.3418 6.79688 5.42969 6.88477Q5.51758 6.97266 5.66406 6.97266L8.32031 6.97266L8.32031 12.8125Q8.32031 12.9883 8.4082 13.0762Q8.49609 13.1641 8.65234 13.1641Q8.79883 13.1641 8.8916 13.0762Q8.98438 12.9883 8.98438 12.8125L8.98438 6.97266L11.6309 6.97266Q11.7676 6.97266 11.8604 6.88477Q11.9531 6.79688 11.9531 6.65039Q11.9531 6.51367 11.8604 6.43066Q11.7676 6.34766 11.6309 6.34766L5.66406 6.34766Q5.51758 6.34766 5.42969 6.43066Q5.3418 6.51367 5.3418 6.65039ZM5.3418 4.91211Q5.3418 5.04883 5.4248 5.13184Q5.50781 5.21484 5.64453 5.21484L11.6504 5.21484Q11.7871 5.21484 11.8701 5.13184Q11.9531 5.04883 11.9531 4.91211Q11.9531 4.78516 11.8701 4.70215Q11.7871 4.61914 11.6504 4.61914L5.64453 4.61914Q5.50781 4.61914 5.4248 4.70215Q5.3418 4.78516 5.3418 4.91211Z" fill="rgba(0,0,0,0.85)"/>
 </g>
</svg>
