<?xml version="1.0" encoding="UTF-8"?>
<!--Generator: Apple Native CoreSVG 175-->
<!DOCTYPE svg
PUBLIC "-//W3C//DTD SVG 1.1//EN"
       "http://www.w3.org/Graphics/SVG/1.1/DTD/svg11.dtd">
<svg version="1.1" xmlns="http://www.w3.org/2000/svg" xmlns:xlink="http://www.w3.org/1999/xlink" width="17.6703" height="20.0987">
 <g>
  <rect height="20.0987" opacity="0" width="17.6703" x="0" y="0"/>
  <path d="M8.61923 7.90979Q10.6122 7.90979 12.2688 7.68121Q13.9255 7.45263 15.1364 7.02554Q16.3474 6.59845 17.0088 6.01442Q17.6703 5.43039 17.6703 4.71521Q17.6703 3.90847 16.8805 3.30438Q16.0907 2.70028 14.6809 2.36924Q13.2712 2.0382 11.3882 2.0382Q9.40903 2.0382 7.71347 2.41342Q6.01791 2.78863 4.67697 3.38708Q4.48013 3.47848 4.41895 3.62512Q4.35776 3.77175 4.4313 3.90618Q4.5047 4.04885 4.66385 4.07281Q4.823 4.09677 5.00351 4.0191Q6.16837 3.50976 7.73827 3.10937Q9.30817 2.70898 11.3707 2.70898Q13.0676 2.70898 14.3282 2.96655Q15.5887 3.22412 16.2813 3.67608Q16.9739 4.12805 16.9739 4.71246Q16.9739 5.21707 16.3489 5.67041Q15.7239 6.12374 14.5952 6.47355Q13.4665 6.82336 11.9391 7.02432Q10.4117 7.22528 8.60703 7.22528Q4.82269 7.22528 2.75826 6.428Q0.693817 5.63073 0.693817 4.11752Q0.693817 3.12417 1.70647 2.19491Q2.71912 1.26565 4.76089 0.63821Q4.91135 0.591365 4.98268 0.475322Q5.05402 0.359279 5.01251 0.214015Q4.9614 0.0589861 4.8278 0.0183214Q4.69421-0.0223432 4.53979 0.0272478Q3.08197 0.459377 2.0697 1.10406Q1.05743 1.74874 0.528717 2.5232Q0 3.29766 0 4.12149Q0 5.9414 2.20551 6.92559Q4.41101 7.90979 8.61923 7.90979ZM8.94028 10.9284Q11.2 10.9284 13.201 10.5945Q15.202 10.2606 16.6539 9.61007Q16.8106 9.54217 16.8737 9.41835Q16.9368 9.29452 16.8703 9.15734Q16.8066 9.02566 16.6723 9.0001Q16.5379 8.97454 16.3606 9.05236Q14.8976 9.66836 12.9694 9.97651Q11.0411 10.2847 8.94028 10.2847Q7.83203 10.2847 6.6555 10.1898Q5.47897 10.0948 4.38934 9.91418Q3.29971 9.73352 2.45361 9.48815Q2.27615 9.43978 2.14668 9.48121Q2.01721 9.52264 1.97418 9.66516Q1.9313 9.8121 2.00333 9.92692Q2.07535 10.0417 2.24136 10.0903Q3.17001 10.3735 4.31038 10.5568Q5.45074 10.7401 6.64513 10.8343Q7.83951 10.9284 8.94028 10.9284ZM9.67468 13.9292Q11.666 13.9309 13.4383 13.6139Q15.2106 13.2969 16.7133 12.7937Q16.886 12.7371 16.9457 12.6105Q17.0055 12.4839 16.9501 12.355Q16.9016 12.2207 16.7707 12.1826Q16.6399 12.1444 16.4558 12.2054Q14.9965 12.7117 13.2645 13.0042Q11.5324 13.2967 9.67468 13.2967Q8.87619 13.2967 8.10158 13.2564Q7.32697 13.216 6.6864 13.1139Q6.51489 13.0863 6.40335 13.1513Q6.29181 13.2163 6.26404 13.3395Q6.23627 13.4765 6.31248 13.5908Q6.3887 13.7051 6.57974 13.7312Q7.17422 13.8218 7.9879 13.8755Q8.80157 13.9292 9.67468 13.9292ZM8.74374 16.7867Q9.59732 16.9012 10.5788 16.9145Q11.5602 16.9277 12.5444 16.8133Q13.5286 16.6988 14.4043 16.4239Q14.5605 16.3711 14.6264 16.2473Q14.6922 16.1234 14.6422 15.989Q14.5966 15.8492 14.4684 15.8078Q14.3402 15.7664 14.1644 15.819Q12.9449 16.1527 11.5282 16.2547Q10.1114 16.3566 8.84613 16.1723Q8.67737 16.1472 8.56033 16.2129Q8.4433 16.2785 8.42117 16.4112Q8.40591 16.5484 8.48206 16.6551Q8.5582 16.7617 8.74374 16.7867ZM8.07968 19.7347Q8.4613 19.8031 9.05624 19.7912Q9.65118 19.7793 10.0804 19.7137Q10.2438 19.6887 10.3227 19.5883Q10.4016 19.4878 10.3821 19.3481Q10.3598 19.2234 10.2502 19.1508Q10.1407 19.0782 9.9411 19.103Q9.0535 19.2527 8.16605 19.127Q7.99576 19.0992 7.88834 19.1662Q7.78091 19.2332 7.75589 19.3551Q7.73361 19.4894 7.81387 19.596Q7.89413 19.7027 8.07968 19.7347Z" fill="rgba(0,0,0,0.85)"/>
 </g>
</svg>
