<?xml version="1.0" encoding="UTF-8"?>
<!--Generator: Apple Native CoreSVG 175-->
<!DOCTYPE svg
PUBLIC "-//W3C//DTD SVG 1.1//EN"
       "http://www.w3.org/Graphics/SVG/1.1/DTD/svg11.dtd">
<svg version="1.1" xmlns="http://www.w3.org/2000/svg" xmlns:xlink="http://www.w3.org/1999/xlink" width="20.4309" height="20.141">
 <g>
  <rect height="20.141" opacity="0" width="20.4309" x="0" y="0"/>
  <path d="M0.792267 13.0852Q0.922729 13.0449 0.980408 12.9326Q1.03809 12.8203 0.979492 12.6254Q0.793945 11.9534 0.713837 11.0009Q0.633728 10.0484 0.644714 9.13559Q0.647461 8.98865 0.563461 8.89839Q0.479462 8.80814 0.334961 8.80539Q0.185272 8.80707 0.0971527 8.90076Q0.0090332 8.99445 0.000946045 9.12338Q-0.0085144 9.98596 0.0766296 11.0033Q0.161774 12.0207 0.367767 12.8113Q0.410645 12.9808 0.534851 13.0495Q0.659058 13.1183 0.792267 13.0852ZM0.503265 7.51801Q0.626709 7.5679 0.762665 7.52083Q0.898621 7.47375 0.946991 7.3172Q1.70291 5.04959 3.12869 3.57208Q4.55447 2.09457 6.36676 1.36917Q8.17905 0.643768 10.0833 0.643768Q11.558 0.643768 12.6394 0.986938Q13.7209 1.33011 14.4844 1.84219Q14.6189 1.92535 14.7576 1.88255Q14.8963 1.83975 14.9544 1.70822Q15.0084 1.56677 14.9424 1.45912Q14.8763 1.35147 14.7611 1.27655Q13.908 0.713959 12.7642 0.356979Q11.6205 0 10.0833 0Q8.55945 0 7.07843 0.428925Q5.59741 0.857849 4.29332 1.72676Q2.98923 2.59567 1.96971 3.91602Q0.950195 5.23636 0.339539 7.01904Q0.280182 7.1933 0.331375 7.32361Q0.382568 7.45392 0.503265 7.51801ZM20.1126 10.6973Q20.2486 10.6973 20.3424 10.5932Q20.4361 10.489 20.4306 10.3336Q20.2553 8.59451 19.7355 7.11266Q19.2157 5.6308 18.4074 4.44016Q17.5991 3.24951 16.5532 2.38281Q16.444 2.28165 16.3073 2.27226Q16.1705 2.26288 16.0787 2.35306Q15.9841 2.44614 15.9819 2.5885Q15.9798 2.73087 16.1032 2.82776Q17.647 4.18243 18.6003 6.02051Q19.5537 7.85858 19.7908 10.3461Q19.8059 10.4988 19.8913 10.5981Q19.9767 10.6973 20.1126 10.6973ZM2.14313 15.8891Q2.21652 16.0141 2.36224 16.0342Q2.50797 16.0542 2.63568 15.9418Q3.12091 15.5376 3.36696 14.9137Q3.61301 14.2899 3.60599 13.6812Q3.59195 12.9863 3.44547 12.4673Q3.29898 11.9484 3.1525 11.3617Q3.00601 10.775 3.00601 9.85779Q3.00601 8.48557 3.55426 7.25258Q4.10251 6.01959 5.05878 5.06195Q6.01505 4.10431 7.25642 3.55606Q8.4978 3.00781 9.87704 3.00781Q12.2971 3.00781 14.0222 4.18106Q15.7474 5.35431 16.6709 7.42363Q17.5943 9.49295 17.6181 12.1805Q17.6252 13.5722 17.4322 14.7681Q17.2393 15.9641 16.8885 16.9023Q16.8259 17.0734 16.883 17.1968Q16.94 17.3203 17.0482 17.3688Q17.1619 17.4074 17.2886 17.3644Q17.4153 17.3215 17.4752 17.1645Q17.8287 16.1441 18.0348 14.8816Q18.2408 13.6191 18.2408 12.1848Q18.2408 10.0336 17.6748 8.24257Q17.1088 6.45157 16.026 5.13863Q14.9431 3.82568 13.3943 3.10539Q11.8454 2.3851 9.87704 2.3851Q8.36459 2.3851 7.01091 2.98256Q5.65723 3.58002 4.61635 4.62082Q3.57547 5.66162 2.97939 7.00699Q2.3833 8.35236 2.3833 9.85779Q2.3833 10.6938 2.53116 11.3559Q2.67902 12.018 2.82687 12.5838Q2.97473 13.1496 2.9845 13.6784Q2.9845 14.1624 2.78278 14.6363Q2.58105 15.1102 2.21805 15.434Q2.11261 15.5241 2.09384 15.6538Q2.07507 15.7835 2.14313 15.8891ZM4.0752 17.6141Q4.4295 17.4214 4.83257 16.9939Q5.23563 16.5665 5.55713 16.0245Q5.87863 15.4825 6.00131 14.9605Q6.03183 14.8047 5.95798 14.6967Q5.88412 14.5886 5.75519 14.5528Q5.64151 14.5265 5.53409 14.5882Q5.42667 14.65 5.39081 14.7929Q5.1813 15.5782 4.74055 16.1227Q4.2998 16.6672 3.78375 17.0242Q3.62552 17.1394 3.59996 17.2755Q3.5744 17.4117 3.63132 17.5075Q3.69815 17.6086 3.81808 17.6481Q3.93802 17.6875 4.0752 17.6141ZM6.07364 12.8203Q5.82477 12.2379 5.60229 11.5231Q5.37982 10.8083 5.37982 10.0851Q5.37982 8.6879 5.97751 7.62543Q6.5752 6.56296 7.63416 5.96527Q8.69312 5.36758 10.0833 5.36758Q10.5463 5.36758 10.96 5.4467Q11.3736 5.52582 11.7523 5.6852Q12.1309 5.84457 12.4932 6.07773Q12.6334 6.16409 12.7605 6.13495Q12.8876 6.1058 12.9377 6.01013Q13.0056 5.91751 12.9935 5.77728Q12.9814 5.63705 12.7794 5.49759Q12.2068 5.13 11.5134 4.93607Q10.82 4.74213 10.0833 4.74213Q8.90323 4.74213 7.92651 5.12886Q6.9498 5.51559 6.23882 6.2265Q5.52783 6.93741 5.1411 7.91771Q4.75436 8.89801 4.75436 10.0851Q4.75436 10.7246 4.93625 11.4696Q5.11813 12.2145 5.45642 13.0574Q5.52859 13.2101 5.6528 13.2621Q5.77701 13.3141 5.90717 13.2629Q6.03061 13.2172 6.07707 13.0867Q6.12354 12.9562 6.07364 12.8203ZM13.8646 7.2879Q14.5607 8.31604 14.9031 9.77287Q15.2454 11.2297 15.2454 12.8246Q15.2454 14.5157 14.7999 16.1127Q14.3544 17.7098 13.5256 18.8535Q13.4407 18.9661 13.4275 19.0993Q13.4142 19.2325 13.5099 19.3324Q13.5942 19.4421 13.7567 19.4486Q13.9193 19.4551 14.0096 19.3301Q14.9193 18.084 15.398 16.3589Q15.8766 14.6339 15.8766 12.8067Q15.8766 11.6414 15.7095 10.583Q15.5423 9.52454 15.2238 8.61382Q14.9053 7.70309 14.4446 6.97617Q14.3376 6.81213 14.196 6.77887Q14.0544 6.74561 13.9478 6.81091Q13.8384 6.88599 13.8072 7.01622Q13.776 7.14645 13.8646 7.2879ZM6.06967 18.8469Q7.18646 17.9504 7.78392 16.5778Q8.38138 15.2051 8.37161 13.5832Q8.36887 12.78 8.21964 12.1441Q8.0704 11.5082 7.92613 10.9795Q7.78186 10.4507 7.78186 9.96796Q7.78186 8.96988 8.40427 8.36617Q9.02667 7.76245 9.99072 7.76245Q10.9322 7.76245 11.5513 8.34213Q12.1704 8.92181 12.4771 10.0162Q12.7837 11.1105 12.7919 12.661Q12.7986 14.2055 12.4636 15.5103Q12.1286 16.8152 11.5525 17.8328Q10.9763 18.8504 10.2677 19.5203Q10.1622 19.6176 10.1562 19.7348Q10.1502 19.852 10.2181 19.9391Q10.2915 20.043 10.4337 20.0582Q10.5759 20.0734 10.6938 19.968Q11.4838 19.2535 12.0953 18.1219Q12.7068 16.9902 13.056 15.5842Q13.4052 14.1782 13.4024 12.646Q13.3954 10.9 13.0228 9.66888Q12.6502 8.43781 11.8951 7.78885Q11.14 7.13989 9.99072 7.13989Q9.18094 7.13989 8.54129 7.48909Q7.90164 7.83829 7.52963 8.46916Q7.15762 9.10004 7.15762 9.94766Q7.15762 10.434 7.30411 11.0168Q7.45059 11.5996 7.59349 12.251Q7.73639 12.9024 7.74615 13.5832Q7.75592 15.0523 7.21103 16.2856Q6.66614 17.5188 5.66028 18.3461Q5.53531 18.4418 5.51868 18.5779Q5.50204 18.714 5.58688 18.8081Q5.65601 18.9246 5.79684 18.9441Q5.93768 18.9636 6.06967 18.8469ZM8.17905 19.6352Q8.76926 19.2082 9.34154 18.4459Q9.91382 17.6836 10.3279 16.5141Q10.3768 16.3692 10.3301 16.2444Q10.2834 16.1195 10.1615 16.0835Q10.0438 16.0449 9.92236 16.0934Q9.8009 16.1418 9.74658 16.2738Q9.32635 17.3981 8.83006 18.059Q8.33377 18.7199 7.80322 19.1148Q7.68802 19.198 7.6546 19.3298Q7.62119 19.4617 7.69901 19.5699Q7.76691 19.6977 7.90912 19.7164Q8.05133 19.7351 8.17905 19.6352ZM10.8634 14.548Q11.0213 13.9684 11.024 13.215Q11.0266 12.4617 10.8884 11.6875Q10.7502 10.9132 10.4877 10.2792Q10.4111 10.0832 10.2861 10.0355Q10.161 9.98779 10.035 10.0351Q9.90436 10.0754 9.84622 10.2026Q9.78809 10.3297 9.845 10.4781Q10.1049 11.0898 10.239 11.8056Q10.3731 12.5215 10.3753 13.2172Q10.3775 13.9128 10.2321 14.4579Q10.1973 14.5953 10.2493 14.7Q10.3012 14.8047 10.4567 14.8367Q10.5997 14.8715 10.7106 14.7889Q10.8216 14.7063 10.8634 14.548Z" fill="rgba(0,0,0,0.85)"/>
 </g>
</svg>
