<?xml version="1.0" encoding="UTF-8"?>
<!--Generator: Apple Native CoreSVG 175-->
<!DOCTYPE svg
PUBLIC "-//W3C//DTD SVG 1.1//EN"
       "http://www.w3.org/Graphics/SVG/1.1/DTD/svg11.dtd">
<svg version="1.1" xmlns="http://www.w3.org/2000/svg" xmlns:xlink="http://www.w3.org/1999/xlink" width="20.7449" height="24.6246">
 <g>
  <rect height="24.6246" opacity="0" width="20.7449" x="0" y="0"/>
  <path d="M0 24.2628Q0 24.4093 0.10643 24.5158Q0.21286 24.6223 0.359344 24.6223Q0.515594 24.6223 0.622101 24.5158Q0.728607 24.4093 0.728607 24.2628L0.728607 9.1922Q0.728607 6.51016 1.86508 4.61914Q3.00156 2.72812 5.15976 1.72829Q7.31796 0.728455 10.3738 0.728455Q13.427 0.728455 15.5817 1.72829Q17.7364 2.72812 18.8764 4.61914Q20.0165 6.51016 20.0165 9.1922L20.0165 24.2628Q20.0165 24.4093 20.1243 24.5158Q20.2321 24.6223 20.3786 24.6223Q20.5321 24.6223 20.6385 24.5158Q20.7449 24.4093 20.7449 24.2628L20.7449 9.1922Q20.7449 6.28357 19.5206 4.22729Q18.2962 2.17102 15.9763 1.08551Q13.6563 0 10.3738 0Q7.0816 0 4.76524 1.08551Q2.44888 2.17102 1.22444 4.22729Q0 6.28357 0 9.1922ZM6.06094 21.525L14.67 21.525Q15.6778 21.525 16.2944 21.1395Q16.911 20.7539 17.1942 20.1207Q17.4774 19.4875 17.4774 18.7297L17.4774 13.2668Q17.4774 11.9128 17.3508 10.6535Q17.2243 9.39407 17.0383 8.36777Q16.8524 7.34146 16.6794 6.68869Q16.4368 5.78079 15.8 5.21973Q15.1633 4.65866 14.2633 4.55276Q13.6266 4.46869 12.6084 4.4017Q11.5903 4.33472 10.3738 4.33472Q9.15466 4.33472 8.13789 4.4017Q7.12112 4.46869 6.47461 4.55276Q5.58167 4.65866 4.94278 5.21973Q4.30389 5.78079 4.0657 6.68869Q3.87848 7.34146 3.69606 8.36777Q3.51364 9.39407 3.39066 10.6535Q3.26767 11.9128 3.26767 13.2668L3.26767 18.7297Q3.26767 19.4875 3.54736 20.1207Q3.82706 20.7539 4.44496 21.1395Q5.06287 21.525 6.06094 21.525ZM10.3738 16.2555Q9.05624 16.2387 7.98592 16.199Q6.91559 16.1594 6.12778 16.0925Q5.71259 16.0535 5.47821 15.7954Q5.24384 15.5374 5.24384 15.1112L5.24384 13.0086Q5.24384 11.9144 5.34637 10.9523Q5.44891 9.99023 5.5957 9.23874Q5.72861 8.48206 6.40396 8.42346Q7.14371 8.34259 8.10295 8.29514Q9.06219 8.24768 10.3738 8.24768Q11.6618 8.24768 12.6091 8.29514Q13.5564 8.34259 14.2345 8.40668Q14.9927 8.48907 15.1282 9.23874Q15.2724 9.99023 15.3727 10.9523Q15.473 11.9144 15.473 13.0086L15.473 15.1112Q15.473 15.5331 15.2422 15.7933Q15.0114 16.0535 14.5961 16.0925Q13.7392 16.1729 12.6737 16.2058Q11.6083 16.2387 10.3738 16.2555ZM8.12195 6.97617Q7.94968 6.97617 7.84477 6.86424Q7.73987 6.75232 7.73987 6.58707Q7.73987 6.41479 7.84477 6.30287Q7.94968 6.19095 8.12195 6.19095L12.6089 6.19095Q12.7882 6.19095 12.8931 6.30287Q12.998 6.41479 12.998 6.58707Q12.998 6.75232 12.8931 6.86424Q12.7882 6.97617 12.6089 6.97617ZM6.42029 19.6292Q5.98007 19.6292 5.69374 19.338Q5.40741 19.0468 5.40741 18.611Q5.40741 18.1734 5.69374 17.8857Q5.98007 17.598 6.42029 17.598Q6.85623 17.598 7.15096 17.8857Q7.44568 18.1734 7.44568 18.611Q7.44568 19.0468 7.15179 19.338Q6.85791 19.6292 6.42029 19.6292ZM14.3359 19.6292Q13.9027 19.6292 13.6115 19.338Q13.3203 19.0468 13.3203 18.611Q13.3203 18.1734 13.6115 17.8857Q13.9027 17.598 14.3359 17.598Q14.7691 17.598 15.0603 17.8857Q15.3516 18.1734 15.3516 18.611Q15.3516 19.0468 15.059 19.338Q14.7664 19.6292 14.3359 19.6292ZM4.64767 24.53L5.00122 24.53Q5.21805 24.53 5.33875 24.3399L7.3407 21.1316L6.26144 21.1316L4.43008 24.082Q4.32739 24.25 4.39102 24.39Q4.45465 24.53 4.64767 24.53ZM5.52109 23.5722L15.2153 23.5722L15.2153 22.6926L5.52109 22.6926ZM15.7407 24.53L16.0915 24.53Q16.2817 24.53 16.3467 24.3887Q16.4117 24.2473 16.3091 24.082L14.4777 21.1316L13.3984 21.1316L15.4004 24.3399Q15.5156 24.53 15.7407 24.53Z" fill="rgba(0,0,0,0.85)"/>
 </g>
</svg>
