<?xml version="1.0" encoding="UTF-8"?>
<!--Generator: Apple Native CoreSVG 175-->
<!DOCTYPE svg
PUBLIC "-//W3C//DTD SVG 1.1//EN"
       "http://www.w3.org/Graphics/SVG/1.1/DTD/svg11.dtd">
<svg version="1.1" xmlns="http://www.w3.org/2000/svg" xmlns:xlink="http://www.w3.org/1999/xlink" width="19.1602" height="19.1504">
 <g>
  <rect height="19.1504" opacity="0" width="19.1602" x="0" y="0"/>
  <path d="M9.57031 19.1406Q11.5527 19.1406 13.2861 18.3984Q15.0195 17.6562 16.3379 16.333Q17.6562 15.0098 18.4082 13.2764Q19.1602 11.543 19.1602 9.57031Q19.1602 7.59766 18.4082 5.86426Q17.6562 4.13086 16.3379 2.80762Q15.0195 1.48438 13.2861 0.742188Q11.5527 0 9.57031 0Q7.59766 0 5.86426 0.742188Q4.13086 1.48438 2.81738 2.80762Q1.50391 4.13086 0.751953 5.86426Q0 7.59766 0 9.57031Q0 11.543 0.74707 13.2764Q1.49414 15.0098 2.8125 16.333Q4.13086 17.6562 5.86914 18.3984Q7.60742 19.1406 9.57031 19.1406ZM9.57031 18.3984Q7.74414 18.3984 6.14746 17.71Q4.55078 17.0215 3.33496 15.8105Q2.11914 14.5996 1.43555 12.998Q0.751953 11.3965 0.751953 9.57031Q0.751953 7.74414 1.43555 6.14258Q2.11914 4.54102 3.33496 3.3252Q4.55078 2.10938 6.14746 1.4209Q7.74414 0.732422 9.57031 0.732422Q11.4062 0.732422 13.0029 1.4209Q14.5996 2.10938 15.8154 3.3252Q17.0312 4.54102 17.7197 6.14258Q18.4082 7.74414 18.4082 9.57031Q18.4082 11.3965 17.7246 12.998Q17.041 14.5996 15.8252 15.8105Q14.6094 17.0215 13.0078 17.71Q11.4062 18.3984 9.57031 18.3984ZM8.50586 13.8672Q9.38477 13.8672 10.1074 13.5547Q10.8301 13.2422 11.3574 12.7246Q11.8848 12.207 12.1777 11.5527Q12.4707 10.8984 12.4707 10.2148Q12.4707 10.0586 12.3877 9.95605Q12.3047 9.85352 12.1484 9.85352Q11.9922 9.85352 11.9141 9.94629Q11.8359 10.0391 11.8262 10.2148Q11.8066 10.9863 11.3867 11.6699Q10.9668 12.3535 10.2686 12.7783Q9.57031 13.2031 8.73047 13.2031L8.73047 9.89258L10.9961 8.86719Q11.1816 8.78906 11.1816 8.60352Q11.1816 8.32031 10.8984 8.32031Q10.8398 8.32031 10.7422 8.34961L8.73047 9.25781L8.73047 8.14453L10.9961 7.13867Q11.1816 7.05078 11.1816 6.86523Q11.1816 6.57227 10.8984 6.57227Q10.8398 6.57227 10.7422 6.62109L8.73047 7.51953L8.73047 5.67383Q8.73047 5.50781 8.64258 5.41992Q8.55469 5.33203 8.4082 5.33203Q8.26172 5.33203 8.17383 5.41992Q8.08594 5.50781 8.08594 5.67383L8.08594 7.80273L6.86523 8.34961Q6.66992 8.42773 6.66992 8.62305Q6.66992 8.90625 6.95312 8.90625Q7.01172 8.90625 7.11914 8.86719L8.08594 8.4375L8.08594 9.54102L6.86523 10.0879Q6.66992 10.166 6.66992 10.3613Q6.66992 10.6445 6.95312 10.6445Q7.01172 10.6445 7.11914 10.6152L8.08594 10.166L8.08594 13.4766Q8.08594 13.6523 8.19336 13.7598Q8.30078 13.8672 8.50586 13.8672Z" fill="rgba(0,0,0,0.85)"/>
 </g>
</svg>
