<?xml version="1.0" encoding="UTF-8"?>
<!--Generator: Apple Native CoreSVG 175-->
<!DOCTYPE svg
PUBLIC "-//W3C//DTD SVG 1.1//EN"
       "http://www.w3.org/Graphics/SVG/1.1/DTD/svg11.dtd">
<svg version="1.1" xmlns="http://www.w3.org/2000/svg" xmlns:xlink="http://www.w3.org/1999/xlink" width="22.9517" height="18.3575">
 <g>
  <rect height="18.3575" opacity="0" width="22.9517" x="0" y="0"/>
  <path d="M1.98242 15.8203L20.9692 15.8203Q21.9493 15.8203 22.4505 15.3191Q22.9517 14.818 22.9517 13.8309L22.9517 2.49893Q22.9517 1.52145 22.4505 1.02028Q21.9493 0.519104 20.9692 0.519104L1.98242 0.519104Q1.00235 0.519104 0.501175 1.02028Q0 1.52145 0 2.49893L0 13.8309Q0 14.818 0.501175 15.3191Q1.00235 15.8203 1.98242 15.8203ZM2.01874 15.0919Q1.37146 15.0919 1.05003 14.7717Q0.728607 14.4516 0.728607 13.8113L0.728607 2.52823Q0.728607 1.88095 1.05003 1.56082Q1.37146 1.24069 2.01874 1.24069L20.9329 1.24069Q21.5828 1.24069 21.9064 1.56082Q22.2301 1.88095 22.2301 2.52823L22.2301 13.8113Q22.2301 14.4516 21.9064 14.7717Q21.5828 15.0919 20.9329 15.0919ZM6.80984 18.3575L16.1418 18.3575Q16.2953 18.3575 16.4067 18.2546Q16.5181 18.1517 16.5181 17.9884Q16.5181 17.8348 16.4067 17.7305Q16.2953 17.6262 16.1418 17.6262L6.80984 17.6262Q6.65619 17.6262 6.54488 17.7305Q6.43356 17.8348 6.43356 17.9884Q6.43356 18.1517 6.54488 18.2546Q6.65619 18.3575 6.80984 18.3575Z" fill="rgba(0,0,0,0.85)"/>
 </g>
</svg>
