<?xml version="1.0" encoding="UTF-8"?>
<!--Generator: Apple Native CoreSVG 175-->
<!DOCTYPE svg
PUBLIC "-//W3C//DTD SVG 1.1//EN"
       "http://www.w3.org/Graphics/SVG/1.1/DTD/svg11.dtd">
<svg version="1.1" xmlns="http://www.w3.org/2000/svg" xmlns:xlink="http://www.w3.org/1999/xlink" width="23.2617" height="17.3145">
 <g>
  <rect height="17.3145" opacity="0" width="23.2617" x="0" y="0"/>
  <path d="M6.66992 17.3145L16.582 17.3145Q17.8613 17.3145 18.4912 16.6455Q19.1211 15.9766 19.3164 14.7363L20.9277 4.17969L20.1953 4.19922L18.5938 14.707Q18.4473 15.6543 17.9541 16.1328Q17.4609 16.6113 16.5625 16.6113L6.69922 16.6113Q5.76172 16.6113 5.2832 16.1328Q4.80469 15.6543 4.66797 14.707L3.05664 4.19922L2.33398 4.17969L3.93555 14.7363Q4.13086 16.0059 4.76074 16.6602Q5.39062 17.3145 6.66992 17.3145ZM1.42578 4.51172L21.8359 4.51172Q22.5 4.51172 22.8809 4.10156Q23.2617 3.69141 23.2617 3.02734L23.2617 1.51367Q23.2617 0.839844 22.8809 0.43457Q22.5 0.0292969 21.8359 0.0292969L1.42578 0.0292969Q0.761719 0.0292969 0.380859 0.43457Q0 0.839844 0 1.51367L0 3.02734Q0 3.69141 0.375977 4.10156Q0.751953 4.51172 1.42578 4.51172ZM1.51367 3.80859Q1.12305 3.80859 0.927734 3.58398Q0.732422 3.35938 0.732422 2.97852L0.732422 1.55273Q0.732422 1.18164 0.927734 0.961914Q1.12305 0.742188 1.51367 0.742188L21.748 0.742188Q22.1289 0.742188 22.3291 0.961914Q22.5293 1.18164 22.5293 1.55273L22.5293 2.97852Q22.5293 3.35938 22.3291 3.58398Q22.1289 3.80859 21.748 3.80859ZM8.61328 13.7793Q8.75 13.7793 8.85742 13.6719L11.6309 10.8984L14.4141 13.6719Q14.4727 13.7305 14.5312 13.7549Q14.5898 13.7793 14.668 13.7793Q14.8047 13.7793 14.9121 13.6719Q15.0195 13.5645 15.0195 13.4277Q15.0195 13.3496 14.9902 13.291Q14.9609 13.2324 14.9023 13.1836L12.1289 10.4004L14.9121 7.61719Q15.0195 7.50977 15.0195 7.38281Q15.0195 7.2168 14.917 7.11914Q14.8145 7.02148 14.668 7.02148Q14.5312 7.02148 14.4141 7.12891L11.6309 9.90234L8.84766 7.12891Q8.74023 7.02148 8.61328 7.02148Q8.4668 7.02148 8.35938 7.12402Q8.25195 7.22656 8.25195 7.38281Q8.25195 7.50977 8.35938 7.61719L11.1328 10.4004L8.35938 13.1836Q8.25195 13.291 8.25195 13.4277Q8.25195 13.5742 8.35449 13.6768Q8.45703 13.7793 8.61328 13.7793Z" fill="rgba(0,0,0,0.85)"/>
 </g>
</svg>
