<?xml version="1.0" encoding="UTF-8"?>
<!--Generator: Apple Native CoreSVG 175-->
<!DOCTYPE svg
PUBLIC "-//W3C//DTD SVG 1.1//EN"
       "http://www.w3.org/Graphics/SVG/1.1/DTD/svg11.dtd">
<svg version="1.1" xmlns="http://www.w3.org/2000/svg" xmlns:xlink="http://www.w3.org/1999/xlink" width="18.9062" height="18.4863">
 <g>
  <rect height="18.4863" opacity="0" width="18.9062" x="0" y="0"/>
  <path d="M6.91406 18.4668L11.9824 18.4668Q12.8027 18.4668 13.2959 18.3008Q13.7891 18.1348 14.1309 17.8271Q14.4727 17.5195 14.8438 17.1191L18.2031 13.5547Q18.4766 13.2617 18.6328 13.0029Q18.7891 12.7441 18.8477 12.4219Q18.9062 12.0996 18.9062 11.6406L18.9062 6.8457Q18.9062 6.37695 18.8477 6.05957Q18.7891 5.74219 18.6328 5.47852Q18.4766 5.21484 18.2031 4.92188L14.8438 1.35742Q14.4727 0.957031 14.1309 0.654297Q13.7891 0.351562 13.2959 0.175781Q12.8027 0 11.9824 0L6.91406 0Q6.09375 0 5.61035 0.175781Q5.12695 0.351562 4.78027 0.654297Q4.43359 0.957031 4.0625 1.35742L0.703125 4.92188Q0.429688 5.21484 0.273438 5.47852Q0.117188 5.74219 0.0585938 6.05957Q0 6.37695 0 6.8457L0 11.6406Q0 12.0996 0.0585938 12.4219Q0.117188 12.7441 0.273438 13.0029Q0.429688 13.2617 0.703125 13.5547L4.0625 17.1191Q4.43359 17.5195 4.78027 17.8271Q5.12695 18.1348 5.61035 18.3008Q6.09375 18.4668 6.91406 18.4668ZM7.03125 17.7734Q6.34766 17.7734 5.95703 17.6465Q5.56641 17.5195 5.27344 17.2656Q4.98047 17.0117 4.58984 16.6016L1.2793 13.0859Q0.966797 12.7539 0.869141 12.4609Q0.771484 12.168 0.771484 11.6016L0.771484 6.88477Q0.771484 6.31836 0.869141 6.02051Q0.966797 5.72266 1.2793 5.39062L4.58984 1.88477Q4.98047 1.46484 5.27344 1.20605Q5.56641 0.947266 5.95703 0.825195Q6.34766 0.703125 7.03125 0.703125L11.875 0.703125Q12.5586 0.703125 12.9492 0.825195Q13.3398 0.947266 13.6328 1.20605Q13.9258 1.46484 14.3164 1.88477L17.627 5.39062Q17.9395 5.72266 18.0371 6.02051Q18.1348 6.31836 18.1348 6.88477L18.1348 11.6016Q18.1348 12.168 18.0371 12.4609Q17.9395 12.7539 17.627 13.0859L14.3164 16.6016Q13.9258 17.0117 13.6328 17.2656Q13.3398 17.5195 12.9492 17.6465Q12.5586 17.7734 11.875 17.7734ZM5.95703 13.1348Q6.12305 13.1348 6.26953 12.998L9.46289 9.79492L12.666 12.998Q12.8027 13.1348 12.9688 13.1348Q13.1348 13.1348 13.2471 13.0273Q13.3594 12.9199 13.3594 12.7637Q13.3594 12.5977 13.2324 12.4707L10.0098 9.24805L13.2324 6.02539Q13.3691 5.89844 13.3691 5.73242Q13.3691 5.57617 13.252 5.46875Q13.1348 5.36133 12.9688 5.36133Q12.8125 5.36133 12.6758 5.49805L9.46289 8.70117L6.25977 5.49805Q6.12305 5.36133 5.95703 5.36133Q5.79102 5.36133 5.67871 5.46875Q5.56641 5.57617 5.56641 5.73242Q5.56641 5.89844 5.69336 6.02539L8.91602 9.24805L5.69336 12.4707Q5.56641 12.5977 5.56641 12.7637Q5.56641 12.9199 5.67871 13.0273Q5.79102 13.1348 5.95703 13.1348Z" fill="rgba(0,0,0,0.85)"/>
 </g>
</svg>
