<?xml version="1.0" encoding="UTF-8"?>
<!--Generator: Apple Native CoreSVG 175-->
<!DOCTYPE svg
PUBLIC "-//W3C//DTD SVG 1.1//EN"
       "http://www.w3.org/Graphics/SVG/1.1/DTD/svg11.dtd">
<svg version="1.1" xmlns="http://www.w3.org/2000/svg" xmlns:xlink="http://www.w3.org/1999/xlink" width="17.2852" height="17.3145">
 <g>
  <rect height="17.3145" opacity="0" width="17.2852" x="0" y="0"/>
  <path d="M2.62695 17.3145L14.6484 17.3145Q15.957 17.3145 16.6211 16.6455Q17.2852 15.9766 17.2852 14.6875L17.2852 2.65625Q17.2852 1.37695 16.6211 0.703125Q15.957 0.0292969 14.6484 0.0292969L2.62695 0.0292969Q1.33789 0.0292969 0.668945 0.693359Q0 1.35742 0 2.65625L0 14.6875Q0 15.9863 0.668945 16.6504Q1.33789 17.3145 2.62695 17.3145ZM2.65625 16.5918Q1.70898 16.5918 1.2207 16.1035Q0.732422 15.6152 0.732422 14.6582L0.732422 2.69531Q0.732422 1.72852 1.2207 1.24512Q1.70898 0.761719 2.65625 0.761719L14.6289 0.761719Q15.5566 0.761719 16.0596 1.24512Q16.5625 1.72852 16.5625 2.69531L16.5625 14.6582Q16.5625 15.6152 16.0596 16.1035Q15.5566 16.5918 14.6289 16.5918ZM5.87891 12.9688L11.5527 12.9688Q11.6992 12.9688 11.7969 12.876Q11.8945 12.7832 11.8945 12.6367Q11.8945 12.5 11.7969 12.4072Q11.6992 12.3145 11.5527 12.3145L6.34766 12.3145L6.34766 12.2559L11.4941 5.19531Q11.6016 5.04883 11.6357 4.96094Q11.6699 4.87305 11.6699 4.74609Q11.6699 4.56055 11.5381 4.43359Q11.4062 4.30664 11.2012 4.30664L5.78125 4.30664Q5.63477 4.30664 5.54199 4.39941Q5.44922 4.49219 5.44922 4.63867Q5.44922 4.78516 5.54199 4.88281Q5.63477 4.98047 5.78125 4.98047L10.7715 4.98047L10.7715 5.0293L5.5957 12.0996Q5.48828 12.2559 5.44922 12.3389Q5.41016 12.4219 5.41016 12.5488Q5.41016 12.7344 5.54199 12.8516Q5.67383 12.9688 5.87891 12.9688Z" fill="rgba(0,0,0,0.85)"/>
 </g>
</svg>
