<?xml version="1.0" encoding="UTF-8"?>
<!--Generator: Apple Native CoreSVG 175.5-->
<!DOCTYPE svg
PUBLIC "-//W3C//DTD SVG 1.1//EN"
       "http://www.w3.org/Graphics/SVG/1.1/DTD/svg11.dtd">
<svg version="1.1" xmlns="http://www.w3.org/2000/svg" xmlns:xlink="http://www.w3.org/1999/xlink" width="19.9219" height="19.9316">
 <g>
  <rect height="19.9316" opacity="0" width="19.9219" x="0" y="0"/>
  <path d="M9.96094 19.9219Q12.002 19.9219 13.8037 19.1406Q15.6055 18.3594 16.9824 16.9824Q18.3594 15.6055 19.1406 13.8037Q19.9219 12.002 19.9219 9.96094Q19.9219 7.91992 19.1406 6.11816Q18.3594 4.31641 16.9824 2.93945Q15.6055 1.5625 13.7988 0.78125Q11.9922 0 9.95117 0Q7.91016 0 6.1084 0.78125Q4.30664 1.5625 2.93457 2.93945Q1.5625 4.31641 0.78125 6.11816Q0 7.91992 0 9.96094Q0 12.002 0.78125 13.8037Q1.5625 15.6055 2.93945 16.9824Q4.31641 18.3594 6.11816 19.1406Q7.91992 19.9219 9.96094 19.9219Z" fill="#007aff"/>
  <path d="M9.96094 14.7559Q8.88672 14.7559 8.08594 14.1553Q7.28516 13.5547 6.84082 12.4756Q6.39648 11.3965 6.39648 9.96094Q6.39648 8.52539 6.84082 7.44629Q7.28516 6.36719 8.08594 5.7666Q8.88672 5.16602 9.96094 5.16602Q11.0254 5.16602 11.8262 5.7666Q12.627 6.36719 13.0713 7.44629Q13.5156 8.52539 13.5156 9.96094Q13.5156 11.3965 13.0713 12.4756Q12.627 13.5547 11.8262 14.1553Q11.0254 14.7559 9.96094 14.7559ZM9.96094 13.457Q10.8594 13.457 11.416 12.4951Q11.9727 11.5332 11.9727 9.96094Q11.9727 8.38867 11.416 7.42676Q10.8594 6.46484 9.96094 6.46484Q9.0625 6.46484 8.50586 7.42676Q7.94922 8.38867 7.94922 9.96094Q7.94922 11.5332 8.50586 12.4951Q9.0625 13.457 9.96094 13.457Z" fill="#ffffff"/>
 </g>
</svg>
