<?xml version="1.0" encoding="UTF-8"?>
<!--Generator: Apple Native CoreSVG 175.5-->
<!DOCTYPE svg
PUBLIC "-//W3C//DTD SVG 1.1//EN"
       "http://www.w3.org/Graphics/SVG/1.1/DTD/svg11.dtd">
<svg version="1.1" xmlns="http://www.w3.org/2000/svg" xmlns:xlink="http://www.w3.org/1999/xlink" width="19.9219" height="19.9316">
 <g>
  <rect height="19.9316" opacity="0" width="19.9219" x="0" y="0"/>
  <path d="M9.96094 19.9219Q12.002 19.9219 13.8037 19.1406Q15.6055 18.3594 16.9824 16.9824Q18.3594 15.6055 19.1406 13.8037Q19.9219 12.002 19.9219 9.96094Q19.9219 7.91992 19.1406 6.11816Q18.3594 4.31641 16.9824 2.93945Q15.6055 1.5625 13.7988 0.78125Q11.9922 0 9.95117 0Q7.91016 0 6.1084 0.78125Q4.30664 1.5625 2.93457 2.93945Q1.5625 4.31641 0.78125 6.11816Q0 7.91992 0 9.96094Q0 12.002 0.78125 13.8037Q1.5625 15.6055 2.93945 16.9824Q4.31641 18.3594 6.11816 19.1406Q7.91992 19.9219 9.96094 19.9219Z" fill="#007aff"/>
  <path d="M6.45508 14.3066Q5.58594 14.3066 4.94141 13.7793Q4.29688 13.252 3.93555 12.2803Q3.57422 11.3086 3.57422 9.96094Q3.57422 8.61328 3.93555 7.6416Q4.29688 6.66992 4.94141 6.14258Q5.58594 5.61523 6.45508 5.61523Q7.32422 5.61523 7.97363 6.14258Q8.62305 6.66992 8.97949 7.6416Q9.33594 8.61328 9.33594 9.96094Q9.33594 11.3086 8.97949 12.2803Q8.62305 13.252 7.97363 13.7793Q7.32422 14.3066 6.45508 14.3066ZM6.45508 13.0762Q7.1875 13.0762 7.59766 12.2412Q8.00781 11.4062 8.00781 9.96094Q8.00781 8.51562 7.59277 7.68066Q7.17773 6.8457 6.45508 6.8457Q5.73242 6.8457 5.31738 7.68066Q4.90234 8.51562 4.90234 9.96094Q4.90234 11.4062 5.31738 12.2412Q5.73242 13.0762 6.45508 13.0762ZM13.457 14.3066Q12.5879 14.3066 11.9385 13.7793Q11.2891 13.252 10.9326 12.2803Q10.5762 11.3086 10.5762 9.96094Q10.5762 8.61328 10.9326 7.6416Q11.2891 6.66992 11.9385 6.14258Q12.5879 5.61523 13.457 5.61523Q14.3262 5.61523 14.9707 6.14258Q15.6152 6.66992 15.9766 7.6416Q16.3379 8.61328 16.3379 9.96094Q16.3379 11.3086 15.9766 12.2803Q15.6152 13.252 14.9707 13.7793Q14.3262 14.3066 13.457 14.3066ZM13.457 13.0762Q14.1797 13.0762 14.5947 12.2412Q15.0098 11.4062 15.0098 9.96094Q15.0098 8.51562 14.5947 7.68066Q14.1797 6.8457 13.457 6.8457Q12.7344 6.8457 12.3193 7.68066Q11.9043 8.51562 11.9043 9.96094Q11.9043 11.4062 12.3193 12.2412Q12.7344 13.0762 13.457 13.0762Z" fill="#ffffff"/>
 </g>
</svg>
