<?xml version="1.0" encoding="UTF-8"?>
<!--Generator: Apple Native CoreSVG 175.5-->
<!DOCTYPE svg
PUBLIC "-//W3C//DTD SVG 1.1//EN"
       "http://www.w3.org/Graphics/SVG/1.1/DTD/svg11.dtd">
<svg version="1.1" xmlns="http://www.w3.org/2000/svg" xmlns:xlink="http://www.w3.org/1999/xlink" width="17.9785" height="17.998">
 <g>
  <rect height="17.998" opacity="0" width="17.9785" x="0" y="0"/>
  <path d="M3.06641 17.998L14.9121 17.998Q16.4453 17.998 17.2119 17.2412Q17.9785 16.4844 17.9785 14.9707L17.9785 3.04688Q17.9785 1.5332 17.2119 0.776367Q16.4453 0.0195312 14.9121 0.0195312L3.06641 0.0195312Q1.5332 0.0195312 0.766602 0.776367Q0 1.5332 0 3.04688L0 14.9707Q0 16.4844 0.766602 17.2412Q1.5332 17.998 3.06641 17.998ZM3.08594 16.4258Q2.35352 16.4258 1.96289 16.04Q1.57227 15.6543 1.57227 14.8926L1.57227 3.125Q1.57227 2.36328 1.96289 1.97754Q2.35352 1.5918 3.08594 1.5918L14.8926 1.5918Q15.6152 1.5918 16.0107 1.97754Q16.4062 2.36328 16.4062 3.125L16.4062 14.8926Q16.4062 15.6543 16.0107 16.04Q15.6152 16.4258 14.8926 16.4258Z" fill="#007aff"/>
  <path d="M6.40625 13.2031Q7.24609 13.2031 7.87598 12.6904Q8.50586 12.1777 8.85254 11.2354Q9.19922 10.293 9.19922 8.99414Q9.19922 7.69531 8.85254 6.74805Q8.50586 5.80078 7.87598 5.29297Q7.24609 4.78516 6.40625 4.78516Q5.56641 4.78516 4.93652 5.29297Q4.30664 5.80078 3.95996 6.74805Q3.61328 7.69531 3.61328 8.99414Q3.61328 10.293 3.95996 11.2354Q4.30664 12.1777 4.93652 12.6904Q5.56641 13.2031 6.40625 13.2031ZM6.40625 12.0215Q5.71289 12.0215 5.30273 11.2109Q4.89258 10.4004 4.89258 8.99414Q4.89258 7.58789 5.30273 6.77734Q5.71289 5.9668 6.40625 5.9668Q7.10938 5.9668 7.51465 6.77734Q7.91992 7.58789 7.91992 8.99414Q7.91992 10.4004 7.51465 11.2109Q7.10938 12.0215 6.40625 12.0215ZM13.1934 13.0859Q13.8086 13.0859 13.8086 12.4609L13.8086 5.54688Q13.8086 5.23438 13.6182 5.03906Q13.4277 4.84375 13.125 4.84375Q12.8809 4.84375 12.7051 4.92188Q12.5293 5 12.2656 5.17578L10.7812 6.19141Q10.4492 6.42578 10.4492 6.76758Q10.4492 7.01172 10.625 7.18262Q10.8008 7.35352 11.0156 7.35352Q11.1328 7.35352 11.2256 7.3291Q11.3184 7.30469 11.4844 7.16797L12.5293 6.39648L12.5879 6.39648L12.5879 12.4609Q12.5879 13.0859 13.1934 13.0859Z" fill="#ffffff"/>
 </g>
</svg>
