<?xml version="1.0" encoding="UTF-8"?>
<!--Generator: Apple Native CoreSVG 175.5-->
<!DOCTYPE svg
PUBLIC "-//W3C//DTD SVG 1.1//EN"
       "http://www.w3.org/Graphics/SVG/1.1/DTD/svg11.dtd">
<svg version="1.1" xmlns="http://www.w3.org/2000/svg" xmlns:xlink="http://www.w3.org/1999/xlink" width="19.9219" height="19.9512">
 <g>
  <rect height="19.9512" opacity="0" width="19.9219" x="0" y="0"/>
  <path d="M9.96094 19.9219Q12.002 19.9219 13.8037 19.1406Q15.6055 18.3594 16.9824 16.9824Q18.3594 15.6055 19.1406 13.8037Q19.9219 12.002 19.9219 9.96094Q19.9219 7.91992 19.1406 6.11816Q18.3594 4.31641 16.9824 2.93945Q15.6055 1.5625 13.7988 0.78125Q11.9922 0 9.95117 0Q7.91016 0 6.1084 0.78125Q4.30664 1.5625 2.93457 2.93945Q1.5625 4.31641 0.78125 6.11816Q0 7.91992 0 9.96094Q0 12.002 0.78125 13.8037Q1.5625 15.6055 2.93945 16.9824Q4.31641 18.3594 6.11816 19.1406Q7.91992 19.9219 9.96094 19.9219Z" fill="#007aff"/>
  <path d="M6.57227 14.3066Q5.70312 14.3066 5.05859 13.7793Q4.41406 13.252 4.05273 12.2803Q3.69141 11.3086 3.69141 9.96094Q3.69141 8.61328 4.05273 7.6416Q4.41406 6.66992 5.05859 6.14258Q5.70312 5.61523 6.57227 5.61523Q7.44141 5.61523 8.09082 6.14258Q8.74023 6.66992 9.09668 7.6416Q9.45312 8.61328 9.45312 9.96094Q9.45312 11.3086 9.09668 12.2803Q8.74023 13.252 8.09082 13.7793Q7.44141 14.3066 6.57227 14.3066ZM6.57227 13.0762Q7.30469 13.0762 7.71973 12.2412Q8.13477 11.4062 8.13477 9.96094Q8.13477 8.51562 7.71484 7.68066Q7.29492 6.8457 6.57227 6.8457Q5.85938 6.8457 5.43945 7.68066Q5.01953 8.51562 5.01953 9.96094Q5.01953 11.4062 5.43945 12.2412Q5.85938 13.0762 6.57227 13.0762ZM13.3496 14.3066Q12.3242 14.3066 11.5869 13.7695Q10.8496 13.2324 10.6445 12.5391Q10.625 12.4414 10.6104 12.3584Q10.5957 12.2754 10.5957 12.168Q10.5957 11.9043 10.7617 11.7334Q10.9277 11.5625 11.1816 11.5625Q11.5723 11.5625 11.7578 12.041Q11.9629 12.5684 12.3682 12.8516Q12.7734 13.1348 13.3594 13.1348Q14.0918 13.1348 14.5459 12.7441Q15 12.3535 15 11.7676Q15 11.1523 14.5752 10.7812Q14.1504 10.4102 13.4375 10.4102L12.8418 10.4102Q12.5977 10.4102 12.4463 10.2441Q12.2949 10.0781 12.2949 9.83398Q12.2949 9.56055 12.4463 9.39453Q12.5977 9.22852 12.8418 9.22852L13.3789 9.22852Q13.9844 9.22852 14.3652 8.87207Q14.7461 8.51562 14.7461 7.96875Q14.7461 7.44141 14.3701 7.11426Q13.9941 6.78711 13.3984 6.78711Q12.8027 6.78711 12.4365 7.07031Q12.0703 7.35352 11.9043 7.88086Q11.8262 8.125 11.6943 8.24219Q11.5625 8.35938 11.3379 8.35938Q11.0742 8.35938 10.918 8.18848Q10.7617 8.01758 10.7617 7.74414Q10.7617 7.51953 10.791 7.38281Q10.9863 6.64062 11.6943 6.12793Q12.4023 5.61523 13.4277 5.61523Q14.5508 5.61523 15.2734 6.22559Q15.9961 6.83594 15.9961 7.80273Q15.9961 8.51562 15.5615 9.07227Q15.127 9.62891 14.502 9.72656L14.502 9.78516Q15.2637 9.86328 15.7666 10.4395Q16.2695 11.0156 16.2695 11.8262Q16.2695 12.9102 15.4541 13.6084Q14.6387 14.3066 13.3496 14.3066Z" fill="#ffffff"/>
 </g>
</svg>
