<?xml version="1.0" encoding="UTF-8"?>
<!--Generator: Apple Native CoreSVG 175.5-->
<!DOCTYPE svg
PUBLIC "-//W3C//DTD SVG 1.1//EN"
       "http://www.w3.org/Graphics/SVG/1.1/DTD/svg11.dtd">
<svg version="1.1" xmlns="http://www.w3.org/2000/svg" xmlns:xlink="http://www.w3.org/1999/xlink" width="19.9219" height="19.9316">
 <g>
  <rect height="19.9316" opacity="0" width="19.9219" x="0" y="0"/>
  <path d="M9.96094 19.9219Q12.002 19.9219 13.8037 19.1406Q15.6055 18.3594 16.9824 16.9824Q18.3594 15.6055 19.1406 13.8037Q19.9219 12.002 19.9219 9.96094Q19.9219 7.91992 19.1406 6.11816Q18.3594 4.31641 16.9824 2.93945Q15.6055 1.5625 13.7988 0.78125Q11.9922 0 9.95117 0Q7.91016 0 6.1084 0.78125Q4.30664 1.5625 2.93457 2.93945Q1.5625 4.31641 0.78125 6.11816Q0 7.91992 0 9.96094Q0 12.002 0.78125 13.8037Q1.5625 15.6055 2.93945 16.9824Q4.31641 18.3594 6.11816 19.1406Q7.91992 19.9219 9.96094 19.9219ZM9.96094 18.2617Q8.23242 18.2617 6.72852 17.6172Q5.22461 16.9727 4.08691 15.835Q2.94922 14.6973 2.30957 13.1934Q1.66992 11.6895 1.66992 9.96094Q1.66992 8.23242 2.30957 6.72852Q2.94922 5.22461 4.08203 4.08203Q5.21484 2.93945 6.71875 2.2998Q8.22266 1.66016 9.95117 1.66016Q11.6797 1.66016 13.1885 2.2998Q14.6973 2.93945 15.835 4.08203Q16.9727 5.22461 17.6172 6.72852Q18.2617 8.23242 18.2617 9.96094Q18.2617 11.6895 17.6221 13.1934Q16.9824 14.6973 15.8398 15.835Q14.6973 16.9727 13.1934 17.6172Q11.6895 18.2617 9.96094 18.2617Z" fill="#007aff"/>
  <path d="M6.68945 14.1699Q7.5293 14.1699 8.15918 13.6572Q8.78906 13.1445 9.13574 12.2021Q9.48242 11.2598 9.48242 9.96094Q9.48242 8.66211 9.13574 7.71484Q8.78906 6.76758 8.15918 6.25977Q7.5293 5.75195 6.68945 5.75195Q5.84961 5.75195 5.21973 6.25977Q4.58984 6.76758 4.24316 7.71484Q3.89648 8.66211 3.89648 9.96094Q3.89648 11.2598 4.24316 12.2021Q4.58984 13.1445 5.21973 13.6572Q5.84961 14.1699 6.68945 14.1699ZM6.68945 12.9883Q5.99609 12.9883 5.58594 12.1777Q5.17578 11.3672 5.17578 9.96094Q5.17578 8.55469 5.58594 7.74414Q5.99609 6.93359 6.68945 6.93359Q7.39258 6.93359 7.79785 7.74414Q8.20312 8.55469 8.20312 9.96094Q8.20312 11.3672 7.79785 12.1777Q7.39258 12.9883 6.68945 12.9883ZM13.3398 14.1699Q14.6094 14.1699 15.4004 13.5059Q16.1914 12.8418 16.1914 11.7773Q16.1914 11.0254 15.7568 10.4688Q15.3223 9.91211 14.5312 9.75586L14.5312 9.69727Q15.2051 9.52148 15.5566 9.02832Q15.9082 8.53516 15.9082 7.90039Q15.9082 6.94336 15.1904 6.34766Q14.4727 5.75195 13.3594 5.75195Q12.2363 5.75195 11.5186 6.34766Q10.8008 6.94336 10.8008 7.90039Q10.8008 8.53516 11.1475 9.01855Q11.4941 9.50195 12.1777 9.69727L12.1777 9.75586Q11.3867 9.91211 10.9521 10.4736Q10.5176 11.0352 10.5176 11.7871Q10.5176 12.8516 11.2939 13.5107Q12.0703 14.1699 13.3398 14.1699ZM13.3691 13.1543Q12.666 13.1543 12.2119 12.749Q11.7578 12.3438 11.7578 11.6992Q11.7578 11.0645 12.2119 10.6543Q12.666 10.2441 13.3691 10.2441Q14.0723 10.2441 14.5166 10.6543Q14.9609 11.0645 14.9609 11.6992Q14.9609 12.3438 14.5068 12.749Q14.0527 13.1543 13.3691 13.1543ZM13.3594 9.30664Q12.7832 9.30664 12.417 8.94043Q12.0508 8.57422 12.0508 8.01758Q12.0508 7.46094 12.417 7.11426Q12.7832 6.76758 13.3594 6.76758Q13.9258 6.76758 14.292 7.11426Q14.6582 7.46094 14.6582 8.01758Q14.6582 8.57422 14.292 8.94043Q13.9258 9.30664 13.3594 9.30664Z" fill="#ffffff"/>
 </g>
</svg>
