<?xml version="1.0" encoding="UTF-8"?>
<!--Generator: Apple Native CoreSVG 175.5-->
<!DOCTYPE svg
PUBLIC "-//W3C//DTD SVG 1.1//EN"
       "http://www.w3.org/Graphics/SVG/1.1/DTD/svg11.dtd">
<svg version="1.1" xmlns="http://www.w3.org/2000/svg" xmlns:xlink="http://www.w3.org/1999/xlink" width="19.9219" height="19.9316">
 <g>
  <rect height="19.9316" opacity="0" width="19.9219" x="0" y="0"/>
  <path d="M9.96094 19.9219Q12.002 19.9219 13.8037 19.1406Q15.6055 18.3594 16.9824 16.9824Q18.3594 15.6055 19.1406 13.8037Q19.9219 12.002 19.9219 9.96094Q19.9219 7.91992 19.1406 6.11816Q18.3594 4.31641 16.9824 2.93945Q15.6055 1.5625 13.7988 0.78125Q11.9922 0 9.95117 0Q7.91016 0 6.1084 0.78125Q4.30664 1.5625 2.93457 2.93945Q1.5625 4.31641 0.78125 6.11816Q0 7.91992 0 9.96094Q0 12.002 0.78125 13.8037Q1.5625 15.6055 2.93945 16.9824Q4.31641 18.3594 6.11816 19.1406Q7.91992 19.9219 9.96094 19.9219Z" fill="#007aff"/>
  <path d="M10.4785 14.541Q10.1074 14.541 9.89746 14.3018Q9.6875 14.0625 9.6875 13.6328L9.6875 7.12891L9.61914 7.12891L8.31055 7.97852Q8.13477 8.10547 8.03711 8.13477Q7.93945 8.16406 7.82227 8.16406Q7.57812 8.16406 7.41211 7.97852Q7.24609 7.79297 7.24609 7.55859Q7.24609 7.37305 7.31934 7.24121Q7.39258 7.10938 7.55859 6.99219L9.375 5.76172Q9.6875 5.53711 9.92188 5.4541Q10.1562 5.37109 10.4395 5.37109Q10.8496 5.37109 11.0742 5.60547Q11.2988 5.83984 11.2988 6.2793L11.2988 13.6328Q11.2988 14.0625 11.0889 14.3018Q10.8789 14.541 10.4785 14.541Z" fill="#ffffff"/>
 </g>
</svg>
