<?xml version="1.0" encoding="UTF-8"?>
<!--Generator: Apple Native CoreSVG 175.5-->
<!DOCTYPE svg
PUBLIC "-//W3C//DTD SVG 1.1//EN"
       "http://www.w3.org/Graphics/SVG/1.1/DTD/svg11.dtd">
<svg version="1.1" xmlns="http://www.w3.org/2000/svg" xmlns:xlink="http://www.w3.org/1999/xlink" width="17.9785" height="17.998">
 <g>
  <rect height="17.998" opacity="0" width="17.9785" x="0" y="0"/>
  <path d="M3.06641 17.998L14.9121 17.998Q16.4453 17.998 17.2119 17.2412Q17.9785 16.4844 17.9785 14.9707L17.9785 3.04688Q17.9785 1.5332 17.2119 0.776367Q16.4453 0.0195312 14.9121 0.0195312L3.06641 0.0195312Q1.5332 0.0195312 0.766602 0.776367Q0 1.5332 0 3.04688L0 14.9707Q0 16.4844 0.766602 17.2412Q1.5332 17.998 3.06641 17.998Z" fill="#007aff"/>
  <path d="M9.51172 13.5742Q9.14062 13.5742 8.93066 13.335Q8.7207 13.0957 8.7207 12.666L8.7207 6.16211L8.65234 6.16211L7.34375 7.01172Q7.16797 7.13867 7.07031 7.16797Q6.97266 7.19727 6.85547 7.19727Q6.61133 7.19727 6.44531 7.01172Q6.2793 6.82617 6.2793 6.5918Q6.2793 6.40625 6.35254 6.27441Q6.42578 6.14258 6.5918 6.02539L8.4082 4.79492Q8.7207 4.57031 8.95508 4.4873Q9.18945 4.4043 9.47266 4.4043Q9.88281 4.4043 10.1074 4.63867Q10.332 4.87305 10.332 5.3125L10.332 12.666Q10.332 13.0957 10.1221 13.335Q9.91211 13.5742 9.51172 13.5742Z" fill="#ffffff"/>
 </g>
</svg>
