<?xml version="1.0" encoding="UTF-8"?>
<!--Generator: Apple Native CoreSVG 175.5-->
<!DOCTYPE svg
PUBLIC "-//W3C//DTD SVG 1.1//EN"
       "http://www.w3.org/Graphics/SVG/1.1/DTD/svg11.dtd">
<svg version="1.1" xmlns="http://www.w3.org/2000/svg" xmlns:xlink="http://www.w3.org/1999/xlink" width="17.9785" height="17.998">
 <g>
  <rect height="17.998" opacity="0" width="17.9785" x="0" y="0"/>
  <path d="M3.06641 17.998L14.9121 17.998Q16.4453 17.998 17.2119 17.2412Q17.9785 16.4844 17.9785 14.9707L17.9785 3.04688Q17.9785 1.5332 17.2119 0.776367Q16.4453 0.0195312 14.9121 0.0195312L3.06641 0.0195312Q1.5332 0.0195312 0.766602 0.776367Q0 1.5332 0 3.04688L0 14.9707Q0 16.4844 0.766602 17.2412Q1.5332 17.998 3.06641 17.998Z" fill="#007aff"/>
  <path d="M6.88477 13.2129Q6.61133 13.2129 6.44043 13.0371Q6.26953 12.8613 6.26953 12.5684L6.26953 6.31836L6.21094 6.31836L5.13672 7.11914Q4.96094 7.25586 4.86328 7.28027Q4.76562 7.30469 4.63867 7.30469Q4.42383 7.30469 4.24316 7.12891Q4.0625 6.95312 4.0625 6.69922Q4.0625 6.50391 4.15527 6.3623Q4.24805 6.2207 4.4043 6.10352L5.9375 5.05859Q6.20117 4.87305 6.38672 4.79492Q6.57227 4.7168 6.81641 4.7168Q7.12891 4.7168 7.3291 4.92188Q7.5293 5.12695 7.5293 5.43945L7.5293 12.5684Q7.5293 12.8613 7.35352 13.0371Q7.17773 13.2129 6.88477 13.2129ZM12.168 13.2129Q11.8848 13.2129 11.7139 13.0371Q11.543 12.8613 11.543 12.5684L11.543 6.31836L11.4844 6.31836L10.4199 7.11914Q10.2441 7.25586 10.1416 7.28027Q10.0391 7.30469 9.92188 7.30469Q9.70703 7.30469 9.52637 7.12891Q9.3457 6.95312 9.3457 6.69922Q9.3457 6.34766 9.6875 6.10352L11.2109 5.05859Q11.4746 4.87305 11.6602 4.79492Q11.8457 4.7168 12.0898 4.7168Q12.4121 4.7168 12.6123 4.92188Q12.8125 5.12695 12.8125 5.43945L12.8125 12.5684Q12.8125 12.8613 12.6367 13.0371Q12.4609 13.2129 12.168 13.2129Z" fill="#ffffff"/>
 </g>
</svg>
