<?xml version="1.0" encoding="UTF-8"?>
<!--Generator: Apple Native CoreSVG 175.5-->
<!DOCTYPE svg
PUBLIC "-//W3C//DTD SVG 1.1//EN"
       "http://www.w3.org/Graphics/SVG/1.1/DTD/svg11.dtd">
<svg version="1.1" xmlns="http://www.w3.org/2000/svg" xmlns:xlink="http://www.w3.org/1999/xlink" width="19.9219" height="19.9316">
 <g>
  <rect height="19.9316" opacity="0" width="19.9219" x="0" y="0"/>
  <path d="M9.96094 19.9219Q12.002 19.9219 13.8037 19.1406Q15.6055 18.3594 16.9824 16.9824Q18.3594 15.6055 19.1406 13.8037Q19.9219 12.002 19.9219 9.96094Q19.9219 7.91992 19.1406 6.11816Q18.3594 4.31641 16.9824 2.93945Q15.6055 1.5625 13.7988 0.78125Q11.9922 0 9.95117 0Q7.91016 0 6.1084 0.78125Q4.30664 1.5625 2.93457 2.93945Q1.5625 4.31641 0.78125 6.11816Q0 7.91992 0 9.96094Q0 12.002 0.78125 13.8037Q1.5625 15.6055 2.93945 16.9824Q4.31641 18.3594 6.11816 19.1406Q7.91992 19.9219 9.96094 19.9219ZM9.96094 18.2617Q8.23242 18.2617 6.72852 17.6172Q5.22461 16.9727 4.08691 15.835Q2.94922 14.6973 2.30957 13.1934Q1.66992 11.6895 1.66992 9.96094Q1.66992 8.23242 2.30957 6.72852Q2.94922 5.22461 4.08203 4.08203Q5.21484 2.93945 6.71875 2.2998Q8.22266 1.66016 9.95117 1.66016Q11.6797 1.66016 13.1885 2.2998Q14.6973 2.93945 15.835 4.08203Q16.9727 5.22461 17.6172 6.72852Q18.2617 8.23242 18.2617 9.96094Q18.2617 11.6895 17.6221 13.1934Q16.9824 14.6973 15.8398 15.835Q14.6973 16.9727 13.1934 17.6172Q11.6895 18.2617 9.96094 18.2617Z" fill="#007aff"/>
  <path d="M7.29492 14.0527Q7.91992 14.0527 7.91992 13.4277L7.91992 6.51367Q7.91992 6.20117 7.72949 6.00586Q7.53906 5.81055 7.22656 5.81055Q6.99219 5.81055 6.81152 5.88867Q6.63086 5.9668 6.37695 6.14258L4.89258 7.1582Q4.56055 7.39258 4.56055 7.73438Q4.56055 7.97852 4.73145 8.14941Q4.90234 8.32031 5.11719 8.32031Q5.23438 8.32031 5.33203 8.2959Q5.42969 8.27148 5.5957 8.13477L6.64062 7.36328L6.69922 7.36328L6.69922 13.4277Q6.69922 14.0527 7.29492 14.0527ZM10.4785 13.9453L14.5215 13.9453Q14.7461 13.9453 14.9023 13.7842Q15.0586 13.623 15.0586 13.3594Q15.0586 13.0957 14.9023 12.9443Q14.7461 12.793 14.5215 12.793L11.6797 12.793L11.6797 12.7246L13.5938 10.498Q14.1309 9.87305 14.4922 9.29199Q14.8535 8.71094 14.8535 7.97852Q14.8535 6.96289 14.165 6.35742Q13.4766 5.75195 12.3242 5.75195Q11.4551 5.75195 10.7617 6.25Q10.0684 6.74805 9.87305 7.49023Q9.86328 7.58789 9.84863 7.6709Q9.83398 7.75391 9.83398 7.8418Q9.83398 8.10547 9.98047 8.2666Q10.127 8.42773 10.3809 8.42773Q10.5859 8.42773 10.7129 8.30566Q10.8398 8.18359 10.9375 7.96875Q11.123 7.42188 11.4844 7.14844Q11.8457 6.875 12.373 6.875Q12.9688 6.875 13.3203 7.20703Q13.6719 7.53906 13.6719 8.08594Q13.6719 8.56445 13.3594 8.98438Q13.0469 9.4043 12.6953 9.81445L10.1172 12.8418Q9.90234 13.0762 9.90234 13.3691Q9.90234 13.6328 10.0586 13.7891Q10.2148 13.9453 10.4785 13.9453Z" fill="#ffffff"/>
 </g>
</svg>
