<?xml version="1.0" encoding="UTF-8"?>
<!--Generator: Apple Native CoreSVG 175.5-->
<!DOCTYPE svg
PUBLIC "-//W3C//DTD SVG 1.1//EN"
       "http://www.w3.org/Graphics/SVG/1.1/DTD/svg11.dtd">
<svg version="1.1" xmlns="http://www.w3.org/2000/svg" xmlns:xlink="http://www.w3.org/1999/xlink" width="19.9219" height="19.9316">
 <g>
  <rect height="19.9316" opacity="0" width="19.9219" x="0" y="0"/>
  <path d="M9.96094 19.9219Q12.002 19.9219 13.8037 19.1406Q15.6055 18.3594 16.9824 16.9824Q18.3594 15.6055 19.1406 13.8037Q19.9219 12.002 19.9219 9.96094Q19.9219 7.91992 19.1406 6.11816Q18.3594 4.31641 16.9824 2.93945Q15.6055 1.5625 13.7988 0.78125Q11.9922 0 9.95117 0Q7.91016 0 6.1084 0.78125Q4.30664 1.5625 2.93457 2.93945Q1.5625 4.31641 0.78125 6.11816Q0 7.91992 0 9.96094Q0 12.002 0.78125 13.8037Q1.5625 15.6055 2.93945 16.9824Q4.31641 18.3594 6.11816 19.1406Q7.91992 19.9219 9.96094 19.9219Z" fill="#007aff"/>
  <path d="M7.22656 14.1797Q6.95312 14.1797 6.78223 14.0088Q6.61133 13.8379 6.61133 13.5352L6.61133 7.29492L6.55273 7.29492L5.47852 8.08594Q5.30273 8.22266 5.20508 8.24707Q5.10742 8.27148 4.98047 8.27148Q4.76562 8.27148 4.58496 8.0957Q4.4043 7.91992 4.4043 7.66602Q4.4043 7.31445 4.74609 7.07031L6.2793 6.02539Q6.54297 5.83984 6.72852 5.76172Q6.91406 5.68359 7.1582 5.68359Q7.4707 5.68359 7.6709 5.88867Q7.87109 6.09375 7.87109 6.40625L7.87109 13.5352Q7.87109 14.1797 7.22656 14.1797ZM10.5078 14.0723Q10.2344 14.0723 10.0732 13.9062Q9.91211 13.7402 9.91211 13.4766Q9.91211 13.1738 10.1367 12.9297L12.793 9.81445Q13.1543 9.38477 13.4766 8.95508Q13.7988 8.52539 13.7988 8.02734Q13.7988 7.4707 13.4375 7.12891Q13.0762 6.78711 12.4609 6.78711Q11.9238 6.78711 11.5479 7.06543Q11.1719 7.34375 10.9863 7.91016Q10.8887 8.13477 10.7568 8.25684Q10.625 8.37891 10.4102 8.37891Q10.1465 8.37891 9.99512 8.21777Q9.84375 8.05664 9.84375 7.77344Q9.84375 7.68555 9.8584 7.59766Q9.87305 7.50977 9.88281 7.41211Q10.0879 6.64062 10.8008 6.13281Q11.5137 5.625 12.4121 5.625Q13.6035 5.625 14.3115 6.24512Q15.0195 6.86523 15.0195 7.91992Q15.0195 8.67188 14.6533 9.26758Q14.2871 9.86328 13.7207 10.5176L11.7578 12.8125L11.7578 12.8809L14.6777 12.8809Q14.9121 12.8809 15.0732 13.0371Q15.2344 13.1934 15.2344 13.4668Q15.2344 13.7402 15.0732 13.9062Q14.9121 14.0723 14.6777 14.0723Z" fill="#ffffff"/>
 </g>
</svg>
