<?xml version="1.0" encoding="UTF-8"?>
<!--Generator: Apple Native CoreSVG 175.5-->
<!DOCTYPE svg
PUBLIC "-//W3C//DTD SVG 1.1//EN"
       "http://www.w3.org/Graphics/SVG/1.1/DTD/svg11.dtd">
<svg version="1.1" xmlns="http://www.w3.org/2000/svg" xmlns:xlink="http://www.w3.org/1999/xlink" width="17.9785" height="17.998">
 <g>
  <rect height="17.998" opacity="0" width="17.9785" x="0" y="0"/>
  <path d="M3.06641 17.998L14.9121 17.998Q16.4453 17.998 17.2119 17.2412Q17.9785 16.4844 17.9785 14.9707L17.9785 3.04688Q17.9785 1.5332 17.2119 0.776367Q16.4453 0.0195312 14.9121 0.0195312L3.06641 0.0195312Q1.5332 0.0195312 0.766602 0.776367Q0 1.5332 0 3.04688L0 14.9707Q0 16.4844 0.766602 17.2412Q1.5332 17.998 3.06641 17.998Z" fill="#007aff"/>
  <path d="M5.95703 13.2129Q5.68359 13.2129 5.5127 13.0371Q5.3418 12.8613 5.3418 12.5684L5.3418 6.31836L5.2832 6.31836L4.20898 7.10938Q4.0332 7.24609 3.93555 7.27539Q3.83789 7.30469 3.71094 7.30469Q3.49609 7.30469 3.31543 7.12891Q3.13477 6.95312 3.13477 6.69922Q3.13477 6.34766 3.47656 6.10352L5.00977 5.05859Q5.27344 4.87305 5.45898 4.79492Q5.64453 4.7168 5.88867 4.7168Q6.20117 4.7168 6.40137 4.92188Q6.60156 5.12695 6.60156 5.43945L6.60156 12.5684Q6.60156 13.2129 5.95703 13.2129ZM11.4746 13.3398Q10.4395 13.3398 9.83398 12.876Q9.22852 12.4121 9.11133 11.9922Q9.08203 11.9043 9.05762 11.8066Q9.0332 11.709 9.0332 11.6309Q9.0332 11.3672 9.17969 11.2012Q9.32617 11.0352 9.56055 11.0352Q9.96094 11.0352 10.1855 11.4258Q10.3613 11.7578 10.6982 11.9629Q11.0352 12.168 11.4648 12.168Q12.041 12.168 12.4756 11.7871Q12.9102 11.4062 13.1445 10.6934Q13.3789 9.98047 13.3691 8.98438L13.3008 8.98438Q13.1055 9.49219 12.6074 9.87793Q12.1094 10.2637 11.2793 10.2637Q10.625 10.2637 10.0586 9.94629Q9.49219 9.62891 9.14062 9.02832Q8.78906 8.42773 8.78906 7.56836Q8.78906 6.24023 9.55566 5.44434Q10.3223 4.64844 11.5918 4.64844Q13.0078 4.64844 13.7891 5.68848Q14.5703 6.72852 14.5703 8.71094Q14.5703 10.9863 13.7793 12.1631Q12.9883 13.3398 11.4746 13.3398ZM11.6699 9.21875Q12.373 9.21875 12.8125 8.74023Q13.252 8.26172 13.252 7.51953Q13.252 6.73828 12.8076 6.24512Q12.3633 5.75195 11.6699 5.75195Q10.9473 5.75195 10.5078 6.23047Q10.0684 6.70898 10.0684 7.5Q10.0684 8.25195 10.5078 8.73535Q10.9473 9.21875 11.6699 9.21875Z" fill="#ffffff"/>
 </g>
</svg>
