<?xml version="1.0" encoding="UTF-8"?>
<!--Generator: Apple Native CoreSVG 175.5-->
<!DOCTYPE svg
PUBLIC "-//W3C//DTD SVG 1.1//EN"
       "http://www.w3.org/Graphics/SVG/1.1/DTD/svg11.dtd">
<svg version="1.1" xmlns="http://www.w3.org/2000/svg" xmlns:xlink="http://www.w3.org/1999/xlink" width="17.9785" height="17.998">
 <g>
  <rect height="17.998" opacity="0" width="17.9785" x="0" y="0"/>
  <path d="M3.06641 17.998L14.9121 17.998Q16.4453 17.998 17.2119 17.2412Q17.9785 16.4844 17.9785 14.9707L17.9785 3.04688Q17.9785 1.5332 17.2119 0.776367Q16.4453 0.0195312 14.9121 0.0195312L3.06641 0.0195312Q1.5332 0.0195312 0.766602 0.776367Q0 1.5332 0 3.04688L0 14.9707Q0 16.4844 0.766602 17.2412Q1.5332 17.998 3.06641 17.998ZM3.08594 16.4258Q2.35352 16.4258 1.96289 16.04Q1.57227 15.6543 1.57227 14.8926L1.57227 3.125Q1.57227 2.36328 1.96289 1.97754Q2.35352 1.5918 3.08594 1.5918L14.8926 1.5918Q15.6152 1.5918 16.0107 1.97754Q16.4062 2.36328 16.4062 3.125L16.4062 14.8926Q16.4062 15.6543 16.0107 16.04Q15.6152 16.4258 14.8926 16.4258Z" fill="#007aff"/>
  <path d="M3.96484 12.9785L8.00781 12.9785Q8.24219 12.9785 8.39355 12.8174Q8.54492 12.6562 8.54492 12.3926Q8.54492 12.1289 8.39355 11.9775Q8.24219 11.8262 8.00781 11.8262L5.16602 11.8262L5.16602 11.7578L7.08008 9.53125Q7.62695 8.90625 7.9834 8.3252Q8.33984 7.74414 8.33984 7.01172Q8.33984 5.99609 7.65137 5.39062Q6.96289 4.78516 5.81055 4.78516Q4.94141 4.78516 4.24805 5.2832Q3.55469 5.78125 3.36914 6.52344Q3.34961 6.62109 3.33496 6.7041Q3.32031 6.78711 3.32031 6.875Q3.32031 7.13867 3.4668 7.2998Q3.61328 7.46094 3.86719 7.46094Q4.07227 7.46094 4.19922 7.33887Q4.32617 7.2168 4.42383 7.00195Q4.60938 6.45508 4.97559 6.18164Q5.3418 5.9082 5.85938 5.9082Q6.45508 5.9082 6.80664 6.24023Q7.1582 6.57227 7.1582 7.11914Q7.1582 7.59766 6.8457 8.01758Q6.5332 8.4375 6.18164 8.84766L3.60352 11.875Q3.39844 12.1094 3.39844 12.4023Q3.39844 12.666 3.5498 12.8223Q3.70117 12.9785 3.96484 12.9785ZM12.3926 13.2031Q13.6328 13.2031 14.4189 12.5293Q15.2051 11.8555 15.2051 10.8008Q15.2051 10.0195 14.7217 9.45801Q14.2383 8.89648 13.5059 8.82812L13.5059 8.76953Q14.1113 8.67188 14.5264 8.12988Q14.9414 7.58789 14.9414 6.9043Q14.9414 5.9668 14.248 5.37598Q13.5547 4.78516 12.4609 4.78516Q11.4648 4.78516 10.7812 5.2832Q10.0977 5.78125 9.90234 6.49414Q9.88281 6.63086 9.88281 6.8457Q9.88281 7.10938 10.0342 7.27539Q10.1855 7.44141 10.4395 7.44141Q10.6543 7.44141 10.7812 7.32422Q10.9082 7.20703 10.9766 6.97266Q11.1426 6.45508 11.499 6.18164Q11.8555 5.9082 12.4316 5.9082Q13.0078 5.9082 13.374 6.22559Q13.7402 6.54297 13.7402 7.06055Q13.7402 7.59766 13.374 7.94434Q13.0078 8.29102 12.4219 8.29102L11.8945 8.29102Q11.6602 8.29102 11.5088 8.44727Q11.3574 8.60352 11.3574 8.86719Q11.3574 9.10156 11.5039 9.2627Q11.6504 9.42383 11.8945 9.42383L12.4707 9.42383Q13.1641 9.42383 13.5791 9.78516Q13.9941 10.1465 13.9941 10.7422Q13.9941 11.3086 13.5498 11.6943Q13.1055 12.0801 12.4023 12.0801Q11.8262 12.0801 11.4307 11.8018Q11.0352 11.5234 10.8398 11.0156Q10.6641 10.5469 10.2832 10.5469Q10.0391 10.5469 9.87793 10.7129Q9.7168 10.8789 9.7168 11.1328Q9.7168 11.2402 9.72656 11.3184Q9.73633 11.3965 9.76562 11.4941Q9.96094 12.168 10.6787 12.6855Q11.3965 13.2031 12.3926 13.2031Z" fill="#ffffff"/>
 </g>
</svg>
