<?xml version="1.0" encoding="UTF-8"?>
<!--Generator: Apple Native CoreSVG 175.5-->
<!DOCTYPE svg
PUBLIC "-//W3C//DTD SVG 1.1//EN"
       "http://www.w3.org/Graphics/SVG/1.1/DTD/svg11.dtd">
<svg version="1.1" xmlns="http://www.w3.org/2000/svg" xmlns:xlink="http://www.w3.org/1999/xlink" width="19.9219" height="19.9316">
 <g>
  <rect height="19.9316" opacity="0" width="19.9219" x="0" y="0"/>
  <path d="M9.96094 19.9219Q12.002 19.9219 13.8037 19.1406Q15.6055 18.3594 16.9824 16.9824Q18.3594 15.6055 19.1406 13.8037Q19.9219 12.002 19.9219 9.96094Q19.9219 7.91992 19.1406 6.11816Q18.3594 4.31641 16.9824 2.93945Q15.6055 1.5625 13.7988 0.78125Q11.9922 0 9.95117 0Q7.91016 0 6.1084 0.78125Q4.30664 1.5625 2.93457 2.93945Q1.5625 4.31641 0.78125 6.11816Q0 7.91992 0 9.96094Q0 12.002 0.78125 13.8037Q1.5625 15.6055 2.93945 16.9824Q4.31641 18.3594 6.11816 19.1406Q7.91992 19.9219 9.96094 19.9219ZM9.96094 18.2617Q8.23242 18.2617 6.72852 17.6172Q5.22461 16.9727 4.08691 15.835Q2.94922 14.6973 2.30957 13.1934Q1.66992 11.6895 1.66992 9.96094Q1.66992 8.23242 2.30957 6.72852Q2.94922 5.22461 4.08203 4.08203Q5.21484 2.93945 6.71875 2.2998Q8.22266 1.66016 9.95117 1.66016Q11.6797 1.66016 13.1885 2.2998Q14.6973 2.93945 15.835 4.08203Q16.9727 5.22461 17.6172 6.72852Q18.2617 8.23242 18.2617 9.96094Q18.2617 11.6895 17.6221 13.1934Q16.9824 14.6973 15.8398 15.835Q14.6973 16.9727 13.1934 17.6172Q11.6895 18.2617 9.96094 18.2617Z" fill="#007aff"/>
  <path d="M4.76562 13.9453L8.80859 13.9453Q9.04297 13.9453 9.19434 13.7842Q9.3457 13.623 9.3457 13.3594Q9.3457 13.0957 9.19434 12.9443Q9.04297 12.793 8.80859 12.793L5.9668 12.793L5.9668 12.7246L7.88086 10.498Q8.42773 9.87305 8.78418 9.29199Q9.14062 8.71094 9.14062 7.97852Q9.14062 6.96289 8.45215 6.35742Q7.76367 5.75195 6.61133 5.75195Q5.74219 5.75195 5.04883 6.25Q4.35547 6.74805 4.16992 7.49023Q4.15039 7.58789 4.13574 7.6709Q4.12109 7.75391 4.12109 7.8418Q4.12109 8.10547 4.26758 8.2666Q4.41406 8.42773 4.66797 8.42773Q4.87305 8.42773 5 8.30566Q5.12695 8.18359 5.22461 7.96875Q5.41016 7.42188 5.77637 7.14844Q6.14258 6.875 6.66016 6.875Q7.25586 6.875 7.60742 7.20703Q7.95898 7.53906 7.95898 8.08594Q7.95898 8.56445 7.64648 8.98438Q7.33398 9.4043 6.98242 9.81445L4.4043 12.8418Q4.19922 13.0762 4.19922 13.3691Q4.19922 13.6328 4.35059 13.7891Q4.50195 13.9453 4.76562 13.9453ZM13.3008 14.1797Q14.4824 14.1797 15.249 13.4326Q16.0156 12.6855 16.0156 11.3477Q16.0156 10.0879 15.2832 9.41406Q14.5508 8.74023 13.5938 8.74023Q12.8125 8.74023 12.3242 9.11621Q11.8359 9.49219 11.6602 9.9707L11.5918 9.9707Q11.5918 9.95117 11.5918 9.93164Q11.5918 9.91211 11.5918 9.88281Q11.5918 8.49609 12.0996 7.68555Q12.6074 6.875 13.4375 6.875Q13.8574 6.875 14.1553 7.06055Q14.4531 7.24609 14.6387 7.5293Q14.7656 7.71484 14.8926 7.80273Q15.0195 7.89062 15.2246 7.89062Q15.4199 7.89062 15.5615 7.74414Q15.7031 7.59766 15.7031 7.35352Q15.7031 7.16797 15.625 6.98242Q15.5078 6.66016 15.21 6.37695Q14.9121 6.09375 14.4775 5.92285Q14.043 5.75195 13.4863 5.75195Q12.0703 5.75195 11.2549 6.85547Q10.4395 7.95898 10.4395 10.1855Q10.4395 11.0742 10.5811 11.7383Q10.7227 12.4023 10.9668 12.8613Q11.3379 13.5645 11.9434 13.8721Q12.5488 14.1797 13.3008 14.1797ZM13.2422 13.1055Q12.5586 13.1055 12.1289 12.627Q11.6992 12.1484 11.6992 11.3867Q11.6992 10.6641 12.1289 10.2051Q12.5586 9.74609 13.2422 9.74609Q13.9355 9.74609 14.3604 10.2051Q14.7852 10.6641 14.7852 11.3965Q14.7852 12.1777 14.3652 12.6416Q13.9453 13.1055 13.2422 13.1055Z" fill="#ffffff"/>
 </g>
</svg>
