<?xml version="1.0" encoding="UTF-8"?>
<!--Generator: Apple Native CoreSVG 175.5-->
<!DOCTYPE svg
PUBLIC "-//W3C//DTD SVG 1.1//EN"
       "http://www.w3.org/Graphics/SVG/1.1/DTD/svg11.dtd">
<svg version="1.1" xmlns="http://www.w3.org/2000/svg" xmlns:xlink="http://www.w3.org/1999/xlink" width="19.9219" height="19.9316">
 <g>
  <rect height="19.9316" opacity="0" width="19.9219" x="0" y="0"/>
  <path d="M9.96094 19.9219Q12.002 19.9219 13.8037 19.1406Q15.6055 18.3594 16.9824 16.9824Q18.3594 15.6055 19.1406 13.8037Q19.9219 12.002 19.9219 9.96094Q19.9219 7.91992 19.1406 6.11816Q18.3594 4.31641 16.9824 2.93945Q15.6055 1.5625 13.7988 0.78125Q11.9922 0 9.95117 0Q7.91016 0 6.1084 0.78125Q4.30664 1.5625 2.93457 2.93945Q1.5625 4.31641 0.78125 6.11816Q0 7.91992 0 9.96094Q0 12.002 0.78125 13.8037Q1.5625 15.6055 2.93945 16.9824Q4.31641 18.3594 6.11816 19.1406Q7.91992 19.9219 9.96094 19.9219ZM9.96094 18.2617Q8.23242 18.2617 6.72852 17.6172Q5.22461 16.9727 4.08691 15.835Q2.94922 14.6973 2.30957 13.1934Q1.66992 11.6895 1.66992 9.96094Q1.66992 8.23242 2.30957 6.72852Q2.94922 5.22461 4.08203 4.08203Q5.21484 2.93945 6.71875 2.2998Q8.22266 1.66016 9.95117 1.66016Q11.6797 1.66016 13.1885 2.2998Q14.6973 2.93945 15.835 4.08203Q16.9727 5.22461 17.6172 6.72852Q18.2617 8.23242 18.2617 9.96094Q18.2617 11.6895 17.6221 13.1934Q16.9824 14.6973 15.8398 15.835Q14.6973 16.9727 13.1934 17.6172Q11.6895 18.2617 9.96094 18.2617Z" fill="#007aff"/>
  <path d="M4.78516 13.9453L8.82812 13.9453Q9.0625 13.9453 9.21387 13.7842Q9.36523 13.623 9.36523 13.3594Q9.36523 13.0957 9.21387 12.9443Q9.0625 12.793 8.82812 12.793L5.98633 12.793L5.98633 12.7246L7.90039 10.498Q8.44727 9.87305 8.80371 9.29199Q9.16016 8.71094 9.16016 7.97852Q9.16016 6.96289 8.47168 6.35742Q7.7832 5.75195 6.63086 5.75195Q5.76172 5.75195 5.06836 6.25Q4.375 6.74805 4.18945 7.49023Q4.16992 7.58789 4.15527 7.6709Q4.14062 7.75391 4.14062 7.8418Q4.14062 8.10547 4.28711 8.2666Q4.43359 8.42773 4.6875 8.42773Q4.89258 8.42773 5.01953 8.30566Q5.14648 8.18359 5.24414 7.96875Q5.42969 7.42188 5.7959 7.14844Q6.16211 6.875 6.67969 6.875Q7.27539 6.875 7.62695 7.20703Q7.97852 7.53906 7.97852 8.08594Q7.97852 8.56445 7.66602 8.98438Q7.35352 9.4043 7.00195 9.81445L4.42383 12.8418Q4.21875 13.0762 4.21875 13.3691Q4.21875 13.6328 4.37012 13.7891Q4.52148 13.9453 4.78516 13.9453ZM13.2227 14.1699Q14.4922 14.1699 15.2881 13.5059Q16.084 12.8418 16.084 11.7773Q16.084 11.0254 15.6445 10.4688Q15.2051 9.91211 14.4141 9.75586L14.4141 9.69727Q15.0879 9.52148 15.4395 9.02832Q15.791 8.53516 15.791 7.90039Q15.791 6.94336 15.0781 6.34766Q14.3652 5.75195 13.2422 5.75195Q12.1191 5.75195 11.4062 6.34766Q10.6934 6.94336 10.6934 7.90039Q10.6934 8.53516 11.0352 9.01855Q11.377 9.50195 12.0605 9.69727L12.0605 9.75586Q11.2695 9.91211 10.835 10.4736Q10.4004 11.0352 10.4004 11.7871Q10.4004 12.8516 11.1768 13.5107Q11.9531 14.1699 13.2227 14.1699ZM13.252 13.1543Q12.5488 13.1543 12.0947 12.749Q11.6406 12.3438 11.6406 11.6992Q11.6406 11.0645 12.0947 10.6543Q12.5488 10.2441 13.252 10.2441Q13.9551 10.2441 14.3994 10.6543Q14.8438 11.0645 14.8438 11.6992Q14.8438 12.3438 14.3896 12.749Q13.9355 13.1543 13.252 13.1543ZM13.2422 9.30664Q12.666 9.30664 12.2998 8.94043Q11.9336 8.57422 11.9336 8.01758Q11.9336 7.46094 12.2998 7.11426Q12.666 6.76758 13.2422 6.76758Q13.8184 6.76758 14.1797 7.11426Q14.541 7.46094 14.541 8.01758Q14.541 8.57422 14.1748 8.94043Q13.8086 9.30664 13.2422 9.30664Z" fill="#ffffff"/>
 </g>
</svg>
