<?xml version="1.0" encoding="UTF-8"?>
<!--Generator: Apple Native CoreSVG 175.5-->
<!DOCTYPE svg
PUBLIC "-//W3C//DTD SVG 1.1//EN"
       "http://www.w3.org/Graphics/SVG/1.1/DTD/svg11.dtd">
<svg version="1.1" xmlns="http://www.w3.org/2000/svg" xmlns:xlink="http://www.w3.org/1999/xlink" width="17.9785" height="17.998">
 <g>
  <rect height="17.998" opacity="0" width="17.9785" x="0" y="0"/>
  <path d="M3.06641 17.998L14.9121 17.998Q16.4453 17.998 17.2119 17.2412Q17.9785 16.4844 17.9785 14.9707L17.9785 3.04688Q17.9785 1.5332 17.2119 0.776367Q16.4453 0.0195312 14.9121 0.0195312L3.06641 0.0195312Q1.5332 0.0195312 0.766602 0.776367Q0 1.5332 0 3.04688L0 14.9707Q0 16.4844 0.766602 17.2412Q1.5332 17.998 3.06641 17.998Z" fill="#007aff"/>
  <path d="M3.67188 13.1055Q3.4082 13.1055 3.24707 12.9395Q3.08594 12.7734 3.08594 12.5098Q3.08594 12.3535 3.13477 12.2217Q3.18359 12.0898 3.30078 11.9629L5.95703 8.83789Q6.31836 8.41797 6.64062 7.98828Q6.96289 7.55859 6.96289 7.06055Q6.96289 6.50391 6.59668 6.16211Q6.23047 5.82031 5.625 5.82031Q5.08789 5.82031 4.7168 6.09863Q4.3457 6.37695 4.15039 6.94336Q4.04297 7.16797 3.91602 7.29004Q3.78906 7.41211 3.57422 7.41211Q3.31055 7.41211 3.15918 7.24609Q3.00781 7.08008 3.00781 6.80664Q3.00781 6.71875 3.02246 6.63086Q3.03711 6.54297 3.05664 6.44531Q3.25195 5.67383 3.96484 5.16113Q4.67773 4.64844 5.57617 4.64844Q6.76758 4.64844 7.47559 5.27344Q8.18359 5.89844 8.18359 6.95312Q8.18359 7.70508 7.8125 8.30078Q7.44141 8.89648 6.88477 9.55078L4.91211 11.8359L4.91211 11.9141L7.8418 11.9141Q8.07617 11.9141 8.2373 12.0654Q8.39844 12.2168 8.39844 12.5Q8.39844 12.7734 8.2373 12.9395Q8.07617 13.1055 7.8418 13.1055ZM12.373 13.3398Q11.0547 13.3398 10.2588 12.6611Q9.46289 11.9824 9.46289 10.8789Q9.46289 10.1074 9.90723 9.52637Q10.3516 8.94531 11.1719 8.7793L11.1719 8.7207Q10.4688 8.51562 10.1172 8.02246Q9.76562 7.5293 9.76562 6.86523Q9.76562 5.87891 10.498 5.26367Q11.2305 4.64844 12.3926 4.64844Q13.5449 4.64844 14.2822 5.26367Q15.0195 5.87891 15.0195 6.86523Q15.0195 7.5293 14.6582 8.03223Q14.2969 8.53516 13.6035 8.7207L13.6035 8.7793Q14.4141 8.94531 14.8682 9.52148Q15.3223 10.0977 15.3223 10.8691Q15.3223 11.9727 14.5068 12.6562Q13.6914 13.3398 12.373 13.3398ZM12.4023 12.2852Q13.1152 12.2852 13.5791 11.8701Q14.043 11.4551 14.043 10.791Q14.043 10.127 13.584 9.70703Q13.125 9.28711 12.4023 9.28711Q11.6797 9.28711 11.2158 9.71191Q10.752 10.1367 10.752 10.791Q10.752 11.4551 11.2158 11.8701Q11.6797 12.2852 12.4023 12.2852ZM12.3926 8.32031Q12.9785 8.32031 13.3545 7.94434Q13.7305 7.56836 13.7305 6.99219Q13.7305 6.42578 13.3545 6.06445Q12.9785 5.70312 12.3926 5.70312Q11.7969 5.70312 11.4209 6.06445Q11.0449 6.42578 11.0449 6.99219Q11.0449 7.56836 11.4258 7.94434Q11.8066 8.32031 12.3926 8.32031Z" fill="#ffffff"/>
 </g>
</svg>
