<?xml version="1.0" encoding="UTF-8"?>
<!--Generator: Apple Native CoreSVG 175.5-->
<!DOCTYPE svg
PUBLIC "-//W3C//DTD SVG 1.1//EN"
       "http://www.w3.org/Graphics/SVG/1.1/DTD/svg11.dtd">
<svg version="1.1" xmlns="http://www.w3.org/2000/svg" xmlns:xlink="http://www.w3.org/1999/xlink" width="19.9219" height="19.9316">
 <g>
  <rect height="19.9316" opacity="0" width="19.9219" x="0" y="0"/>
  <path d="M9.96094 19.9219Q12.002 19.9219 13.8037 19.1406Q15.6055 18.3594 16.9824 16.9824Q18.3594 15.6055 19.1406 13.8037Q19.9219 12.002 19.9219 9.96094Q19.9219 7.91992 19.1406 6.11816Q18.3594 4.31641 16.9824 2.93945Q15.6055 1.5625 13.7988 0.78125Q11.9922 0 9.95117 0Q7.91016 0 6.1084 0.78125Q4.30664 1.5625 2.93457 2.93945Q1.5625 4.31641 0.78125 6.11816Q0 7.91992 0 9.96094Q0 12.002 0.78125 13.8037Q1.5625 15.6055 2.93945 16.9824Q4.31641 18.3594 6.11816 19.1406Q7.91992 19.9219 9.96094 19.9219ZM9.96094 18.2617Q8.23242 18.2617 6.72852 17.6172Q5.22461 16.9727 4.08691 15.835Q2.94922 14.6973 2.30957 13.1934Q1.66992 11.6895 1.66992 9.96094Q1.66992 8.23242 2.30957 6.72852Q2.94922 5.22461 4.08203 4.08203Q5.21484 2.93945 6.71875 2.2998Q8.22266 1.66016 9.95117 1.66016Q11.6797 1.66016 13.1885 2.2998Q14.6973 2.93945 15.835 4.08203Q16.9727 5.22461 17.6172 6.72852Q18.2617 8.23242 18.2617 9.96094Q18.2617 11.6895 17.6221 13.1934Q16.9824 14.6973 15.8398 15.835Q14.6973 16.9727 13.1934 17.6172Q11.6895 18.2617 9.96094 18.2617Z" fill="#007aff"/>
  <path d="M9.88281 14.6094Q11.4551 14.6094 12.3633 13.8672Q13.2715 13.125 13.2715 11.9727Q13.2715 11.1133 12.6904 10.4932Q12.1094 9.87305 11.2207 9.79492L11.2207 9.7168Q11.9531 9.60938 12.4561 9.01367Q12.959 8.41797 12.959 7.64648Q12.959 6.63086 12.1191 5.97168Q11.2793 5.3125 9.9707 5.3125Q8.76953 5.3125 7.93945 5.8252Q7.10938 6.33789 6.91406 7.20703Q6.89453 7.31445 6.87988 7.39746Q6.86523 7.48047 6.86523 7.59766Q6.86523 7.88086 7.05566 8.06152Q7.24609 8.24219 7.53906 8.24219Q8.03711 8.24219 8.20312 7.73438Q8.36914 7.1875 8.81348 6.86523Q9.25781 6.54297 9.94141 6.54297Q10.6738 6.54297 11.0938 6.88477Q11.5137 7.22656 11.5137 7.82227Q11.5137 8.42773 11.0596 8.82324Q10.6055 9.21875 9.90234 9.21875L9.28711 9.21875Q9.02344 9.21875 8.85254 9.38477Q8.68164 9.55078 8.68164 9.82422Q8.68164 10.0781 8.85254 10.249Q9.02344 10.4199 9.28711 10.4199L9.96094 10.4199Q10.791 10.4199 11.3037 10.835Q11.8164 11.25 11.8164 11.9141Q11.8164 12.5684 11.2939 12.9688Q10.7715 13.3691 9.91211 13.3691Q9.12109 13.3691 8.66211 13.0273Q8.20312 12.6855 8.02734 12.1777Q7.83203 11.6797 7.35352 11.6797Q7.06055 11.6797 6.87012 11.8652Q6.67969 12.0508 6.67969 12.3438Q6.67969 12.5293 6.72852 12.7148Q6.94336 13.5645 7.81738 14.0869Q8.69141 14.6094 9.88281 14.6094Z" fill="#ffffff"/>
 </g>
</svg>
