<?xml version="1.0" encoding="UTF-8"?>
<!--Generator: Apple Native CoreSVG 175.5-->
<!DOCTYPE svg
PUBLIC "-//W3C//DTD SVG 1.1//EN"
       "http://www.w3.org/Graphics/SVG/1.1/DTD/svg11.dtd">
<svg version="1.1" xmlns="http://www.w3.org/2000/svg" xmlns:xlink="http://www.w3.org/1999/xlink" width="17.9785" height="17.998">
 <g>
  <rect height="17.998" opacity="0" width="17.9785" x="0" y="0"/>
  <path d="M3.06641 17.998L14.9121 17.998Q16.4453 17.998 17.2119 17.2412Q17.9785 16.4844 17.9785 14.9707L17.9785 3.04688Q17.9785 1.5332 17.2119 0.776367Q16.4453 0.0195312 14.9121 0.0195312L3.06641 0.0195312Q1.5332 0.0195312 0.766602 0.776367Q0 1.5332 0 3.04688L0 14.9707Q0 16.4844 0.766602 17.2412Q1.5332 17.998 3.06641 17.998ZM3.08594 16.4258Q2.35352 16.4258 1.96289 16.04Q1.57227 15.6543 1.57227 14.8926L1.57227 3.125Q1.57227 2.36328 1.96289 1.97754Q2.35352 1.5918 3.08594 1.5918L14.8926 1.5918Q15.6152 1.5918 16.0107 1.97754Q16.4062 2.36328 16.4062 3.125L16.4062 14.8926Q16.4062 15.6543 16.0107 16.04Q15.6152 16.4258 14.8926 16.4258Z" fill="#007aff"/>
  <path d="M5.68359 13.1934Q6.92383 13.1934 7.70996 12.5195Q8.49609 11.8457 8.49609 10.791Q8.49609 10.0098 8.0127 9.44824Q7.5293 8.88672 6.79688 8.81836L6.79688 8.75977Q7.40234 8.66211 7.81738 8.12012Q8.23242 7.57812 8.23242 6.89453Q8.23242 5.95703 7.53906 5.36621Q6.8457 4.77539 5.75195 4.77539Q4.75586 4.77539 4.07227 5.27344Q3.38867 5.77148 3.19336 6.48438Q3.17383 6.62109 3.17383 6.83594Q3.17383 7.09961 3.3252 7.26562Q3.47656 7.43164 3.73047 7.43164Q3.94531 7.43164 4.07227 7.31445Q4.19922 7.19727 4.26758 6.96289Q4.43359 6.44531 4.79004 6.17188Q5.14648 5.89844 5.72266 5.89844Q6.29883 5.89844 6.66504 6.21582Q7.03125 6.5332 7.03125 7.05078Q7.03125 7.58789 6.66504 7.93457Q6.29883 8.28125 5.71289 8.28125L5.18555 8.28125Q4.95117 8.28125 4.7998 8.4375Q4.64844 8.59375 4.64844 8.85742Q4.64844 9.0918 4.79492 9.25293Q4.94141 9.41406 5.18555 9.41406L5.76172 9.41406Q6.45508 9.41406 6.87012 9.77539Q7.28516 10.1367 7.28516 10.7324Q7.28516 11.2988 6.84082 11.6846Q6.39648 12.0703 5.69336 12.0703Q5.11719 12.0703 4.72168 11.792Q4.32617 11.5137 4.13086 11.0059Q3.95508 10.5371 3.57422 10.5371Q3.33008 10.5371 3.16895 10.7031Q3.00781 10.8691 3.00781 11.123Q3.00781 11.2305 3.01758 11.3086Q3.02734 11.3867 3.05664 11.4844Q3.25195 12.1582 3.96973 12.6758Q4.6875 13.1934 5.68359 13.1934ZM12.2559 13.1934Q13.0957 13.1934 13.7256 12.6807Q14.3555 12.168 14.7021 11.2256Q15.0488 10.2832 15.0488 8.98438Q15.0488 7.68555 14.7021 6.73828Q14.3555 5.79102 13.7256 5.2832Q13.0957 4.77539 12.2559 4.77539Q11.416 4.77539 10.7861 5.2832Q10.1562 5.79102 9.80957 6.73828Q9.46289 7.68555 9.46289 8.98438Q9.46289 10.2832 9.80957 11.2256Q10.1562 12.168 10.7861 12.6807Q11.416 13.1934 12.2559 13.1934ZM12.2559 12.0117Q11.5625 12.0117 11.1523 11.2012Q10.7422 10.3906 10.7422 8.98438Q10.7422 7.57812 11.1523 6.76758Q11.5625 5.95703 12.2559 5.95703Q12.959 5.95703 13.3643 6.76758Q13.7695 7.57812 13.7695 8.98438Q13.7695 10.3906 13.3643 11.2012Q12.959 12.0117 12.2559 12.0117Z" fill="#ffffff"/>
 </g>
</svg>
