<?xml version="1.0" encoding="UTF-8"?>
<!--Generator: Apple Native CoreSVG 175.5-->
<!DOCTYPE svg
PUBLIC "-//W3C//DTD SVG 1.1//EN"
       "http://www.w3.org/Graphics/SVG/1.1/DTD/svg11.dtd">
<svg version="1.1" xmlns="http://www.w3.org/2000/svg" xmlns:xlink="http://www.w3.org/1999/xlink" width="17.9785" height="17.998">
 <g>
  <rect height="17.998" opacity="0" width="17.9785" x="0" y="0"/>
  <path d="M3.06641 17.998L14.9121 17.998Q16.4453 17.998 17.2119 17.2412Q17.9785 16.4844 17.9785 14.9707L17.9785 3.04688Q17.9785 1.5332 17.2119 0.776367Q16.4453 0.0195312 14.9121 0.0195312L3.06641 0.0195312Q1.5332 0.0195312 0.766602 0.776367Q0 1.5332 0 3.04688L0 14.9707Q0 16.4844 0.766602 17.2412Q1.5332 17.998 3.06641 17.998Z" fill="#007aff"/>
  <path d="M5.57617 13.3301Q4.55078 13.3301 3.81348 12.793Q3.07617 12.2559 2.87109 11.5625Q2.8418 11.4648 2.83203 11.3818Q2.82227 11.2988 2.82227 11.1914Q2.82227 10.9277 2.9834 10.7568Q3.14453 10.5859 3.4082 10.5859Q3.78906 10.5859 3.98438 11.0645Q4.18945 11.5918 4.58984 11.875Q4.99023 12.1582 5.58594 12.1582Q6.30859 12.1582 6.76758 11.7676Q7.22656 11.377 7.22656 10.791Q7.22656 10.1758 6.79688 9.80469Q6.36719 9.43359 5.66406 9.43359L5.06836 9.43359Q4.82422 9.43359 4.66797 9.26758Q4.51172 9.10156 4.51172 8.85742Q4.51172 8.58398 4.66797 8.41797Q4.82422 8.25195 5.06836 8.25195L5.60547 8.25195Q6.21094 8.25195 6.58691 7.89551Q6.96289 7.53906 6.96289 6.99219Q6.96289 6.46484 6.5918 6.1377Q6.2207 5.81055 5.61523 5.81055Q5.0293 5.81055 4.66309 6.09375Q4.29688 6.37695 4.12109 6.9043Q4.05273 7.14844 3.9209 7.26562Q3.78906 7.38281 3.56445 7.38281Q3.30078 7.38281 3.14453 7.21191Q2.98828 7.04102 2.98828 6.76758Q2.98828 6.54297 3.00781 6.40625Q3.21289 5.66406 3.9209 5.15137Q4.62891 4.63867 5.6543 4.63867Q6.77734 4.63867 7.49512 5.24902Q8.21289 5.85938 8.21289 6.82617Q8.21289 7.53906 7.7832 8.0957Q7.35352 8.65234 6.72852 8.75L6.72852 8.80859Q7.49023 8.88672 7.98828 9.46289Q8.48633 10.0391 8.48633 10.8496Q8.48633 11.9336 7.67578 12.6318Q6.86523 13.3301 5.57617 13.3301ZM12.3535 13.3301Q11.4844 13.3301 10.8398 12.8027Q10.1953 12.2754 9.83398 11.3037Q9.47266 10.332 9.47266 8.98438Q9.47266 7.63672 9.83398 6.66504Q10.1953 5.69336 10.8398 5.16602Q11.4844 4.63867 12.3535 4.63867Q13.2227 4.63867 13.8721 5.16602Q14.5215 5.69336 14.8779 6.66504Q15.2344 7.63672 15.2344 8.98438Q15.2344 10.332 14.8779 11.3037Q14.5215 12.2754 13.8721 12.8027Q13.2227 13.3301 12.3535 13.3301ZM12.3535 12.0996Q13.0859 12.0996 13.501 11.2646Q13.916 10.4297 13.916 8.98438Q13.916 7.53906 13.4961 6.7041Q13.0762 5.86914 12.3535 5.86914Q11.6406 5.86914 11.2207 6.7041Q10.8008 7.53906 10.8008 8.98438Q10.8008 10.4297 11.2207 11.2646Q11.6406 12.0996 12.3535 12.0996Z" fill="#ffffff"/>
 </g>
</svg>
