<?xml version="1.0" encoding="UTF-8"?>
<!--Generator: Apple Native CoreSVG 175.5-->
<!DOCTYPE svg
PUBLIC "-//W3C//DTD SVG 1.1//EN"
       "http://www.w3.org/Graphics/SVG/1.1/DTD/svg11.dtd">
<svg version="1.1" xmlns="http://www.w3.org/2000/svg" xmlns:xlink="http://www.w3.org/1999/xlink" width="17.9785" height="17.998">
 <g>
  <rect height="17.998" opacity="0" width="17.9785" x="0" y="0"/>
  <path d="M3.06641 17.998L14.9121 17.998Q16.4453 17.998 17.2119 17.2412Q17.9785 16.4844 17.9785 14.9707L17.9785 3.04688Q17.9785 1.5332 17.2119 0.776367Q16.4453 0.0195312 14.9121 0.0195312L3.06641 0.0195312Q1.5332 0.0195312 0.766602 0.776367Q0 1.5332 0 3.04688L0 14.9707Q0 16.4844 0.766602 17.2412Q1.5332 17.998 3.06641 17.998Z" fill="#007aff"/>
  <path d="M5.55664 13.3398Q4.53125 13.3398 3.78906 12.8027Q3.04688 12.2656 2.8418 11.5723Q2.8125 11.4746 2.80273 11.3916Q2.79297 11.3086 2.79297 11.2012Q2.79297 10.9375 2.95898 10.7666Q3.125 10.5957 3.37891 10.5957Q3.7793 10.5957 3.95508 11.0742Q4.16016 11.6016 4.56543 11.8848Q4.9707 12.168 5.56641 12.168Q6.28906 12.168 6.74805 11.7773Q7.20703 11.3867 7.20703 10.8008Q7.20703 10.1855 6.77734 9.81445Q6.34766 9.44336 5.63477 9.44336L5.04883 9.44336Q4.79492 9.44336 4.64355 9.27734Q4.49219 9.11133 4.49219 8.86719Q4.49219 8.59375 4.64355 8.42773Q4.79492 8.26172 5.04883 8.26172L5.58594 8.26172Q6.18164 8.26172 6.5625 7.90527Q6.94336 7.54883 6.94336 7.00195Q6.94336 6.47461 6.56738 6.14746Q6.19141 5.82031 5.5957 5.82031Q5.00977 5.82031 4.64355 6.10352Q4.27734 6.38672 4.10156 6.91406Q4.02344 7.1582 3.89648 7.27539Q3.76953 7.39258 3.54492 7.39258Q3.28125 7.39258 3.125 7.22168Q2.96875 7.05078 2.96875 6.77734Q2.96875 6.55273 2.98828 6.41602Q3.19336 5.67383 3.89648 5.16113Q4.59961 4.64844 5.625 4.64844Q6.75781 4.64844 7.4707 5.25879Q8.18359 5.86914 8.18359 6.83594Q8.18359 7.54883 7.75391 8.10547Q7.32422 8.66211 6.70898 8.75977L6.70898 8.81836Q7.4707 8.89648 7.96387 9.47266Q8.45703 10.0488 8.45703 10.8594Q8.45703 11.9434 7.64648 12.6416Q6.83594 13.3398 5.55664 13.3398ZM12.5293 13.3398Q11.4941 13.3398 10.7568 12.8027Q10.0195 12.2656 9.81445 11.5723Q9.78516 11.4746 9.77539 11.3916Q9.76562 11.3086 9.76562 11.2012Q9.76562 10.9375 9.93164 10.7666Q10.0977 10.5957 10.3516 10.5957Q10.752 10.5957 10.9277 11.0742Q11.1328 11.6016 11.5332 11.8848Q11.9336 12.168 12.5391 12.168Q13.2617 12.168 13.7158 11.7773Q14.1699 11.3867 14.1699 10.8008Q14.1699 10.1855 13.7451 9.81445Q13.3203 9.44336 12.6074 9.44336L12.0117 9.44336Q11.7676 9.44336 11.6113 9.27734Q11.4551 9.11133 11.4551 8.86719Q11.4551 8.59375 11.6113 8.42773Q11.7676 8.26172 12.0117 8.26172L12.5586 8.26172Q13.1543 8.26172 13.5303 7.90527Q13.9062 7.54883 13.9062 7.00195Q13.9062 6.47461 13.5352 6.14746Q13.1641 5.82031 12.5684 5.82031Q11.9727 5.82031 11.6064 6.10352Q11.2402 6.38672 11.0645 6.91406Q10.9961 7.1582 10.8643 7.27539Q10.7324 7.39258 10.5078 7.39258Q10.2441 7.39258 10.0879 7.22168Q9.93164 7.05078 9.93164 6.77734Q9.93164 6.55273 9.95117 6.41602Q10.1562 5.67383 10.8643 5.16113Q11.5723 4.64844 12.5977 4.64844Q13.7305 4.64844 14.4434 5.25879Q15.1562 5.86914 15.1562 6.83594Q15.1562 7.54883 14.7266 8.10547Q14.2969 8.66211 13.6719 8.75977L13.6719 8.81836Q14.4336 8.89648 14.9316 9.47266Q15.4297 10.0488 15.4297 10.8594Q15.4297 11.9434 14.6191 12.6416Q13.8086 13.3398 12.5293 13.3398Z" fill="#ffffff"/>
 </g>
</svg>
