<?xml version="1.0" encoding="UTF-8"?>
<!--Generator: Apple Native CoreSVG 175.5-->
<!DOCTYPE svg
PUBLIC "-//W3C//DTD SVG 1.1//EN"
       "http://www.w3.org/Graphics/SVG/1.1/DTD/svg11.dtd">
<svg version="1.1" xmlns="http://www.w3.org/2000/svg" xmlns:xlink="http://www.w3.org/1999/xlink" width="19.9219" height="19.9316">
 <g>
  <rect height="19.9316" opacity="0" width="19.9219" x="0" y="0"/>
  <path d="M9.96094 19.9219Q12.002 19.9219 13.8037 19.1406Q15.6055 18.3594 16.9824 16.9824Q18.3594 15.6055 19.1406 13.8037Q19.9219 12.002 19.9219 9.96094Q19.9219 7.91992 19.1406 6.11816Q18.3594 4.31641 16.9824 2.93945Q15.6055 1.5625 13.7988 0.78125Q11.9922 0 9.95117 0Q7.91016 0 6.1084 0.78125Q4.30664 1.5625 2.93457 2.93945Q1.5625 4.31641 0.78125 6.11816Q0 7.91992 0 9.96094Q0 12.002 0.78125 13.8037Q1.5625 15.6055 2.93945 16.9824Q4.31641 18.3594 6.11816 19.1406Q7.91992 19.9219 9.96094 19.9219ZM9.96094 18.2617Q8.23242 18.2617 6.72852 17.6172Q5.22461 16.9727 4.08691 15.835Q2.94922 14.6973 2.30957 13.1934Q1.66992 11.6895 1.66992 9.96094Q1.66992 8.23242 2.30957 6.72852Q2.94922 5.22461 4.08203 4.08203Q5.21484 2.93945 6.71875 2.2998Q8.22266 1.66016 9.95117 1.66016Q11.6797 1.66016 13.1885 2.2998Q14.6973 2.93945 15.835 4.08203Q16.9727 5.22461 17.6172 6.72852Q18.2617 8.23242 18.2617 9.96094Q18.2617 11.6895 17.6221 13.1934Q16.9824 14.6973 15.8398 15.835Q14.6973 16.9727 13.1934 17.6172Q11.6895 18.2617 9.96094 18.2617Z" fill="#007aff"/>
  <path d="M6.55273 14.1699Q7.79297 14.1699 8.5791 13.4961Q9.36523 12.8223 9.36523 11.7676Q9.36523 10.9863 8.88184 10.4248Q8.39844 9.86328 7.66602 9.79492L7.66602 9.73633Q8.27148 9.63867 8.68652 9.09668Q9.10156 8.55469 9.10156 7.87109Q9.10156 6.93359 8.4082 6.34277Q7.71484 5.75195 6.62109 5.75195Q5.625 5.75195 4.94141 6.25Q4.25781 6.74805 4.0625 7.46094Q4.04297 7.59766 4.04297 7.8125Q4.04297 8.07617 4.19434 8.24219Q4.3457 8.4082 4.59961 8.4082Q4.81445 8.4082 4.94141 8.29102Q5.06836 8.17383 5.13672 7.93945Q5.30273 7.42188 5.65918 7.14844Q6.01562 6.875 6.5918 6.875Q7.16797 6.875 7.53418 7.19238Q7.90039 7.50977 7.90039 8.02734Q7.90039 8.56445 7.53418 8.91113Q7.16797 9.25781 6.58203 9.25781L6.05469 9.25781Q5.82031 9.25781 5.66895 9.41406Q5.51758 9.57031 5.51758 9.83398Q5.51758 10.0684 5.66406 10.2295Q5.81055 10.3906 6.05469 10.3906L6.63086 10.3906Q7.32422 10.3906 7.73926 10.752Q8.1543 11.1133 8.1543 11.709Q8.1543 12.2754 7.70996 12.6611Q7.26562 13.0469 6.5625 13.0469Q5.98633 13.0469 5.59082 12.7686Q5.19531 12.4902 5 11.9824Q4.82422 11.5137 4.44336 11.5137Q4.19922 11.5137 4.03809 11.6797Q3.87695 11.8457 3.87695 12.0996Q3.87695 12.207 3.88672 12.2852Q3.89648 12.3633 3.92578 12.4609Q4.12109 13.1348 4.83887 13.6523Q5.55664 14.1699 6.55273 14.1699ZM13.3887 14.1797Q14.5801 14.1797 15.3418 13.4326Q16.1035 12.6855 16.1035 11.3477Q16.1035 10.0879 15.3711 9.41406Q14.6387 8.74023 13.6816 8.74023Q12.9102 8.74023 12.4219 9.11621Q11.9336 9.49219 11.748 9.9707L11.6797 9.9707Q11.6797 9.95117 11.6797 9.93164Q11.6797 9.91211 11.6797 9.88281Q11.6797 8.49609 12.1875 7.68555Q12.6953 6.875 13.5254 6.875Q13.9453 6.875 14.2432 7.06055Q14.541 7.24609 14.7266 7.5293Q14.8535 7.71484 14.9805 7.80273Q15.1074 7.89062 15.3125 7.89062Q15.5176 7.89062 15.6543 7.74414Q15.791 7.59766 15.791 7.35352Q15.791 7.16797 15.7227 6.98242Q15.5957 6.66016 15.3027 6.37695Q15.0098 6.09375 14.5703 5.92285Q14.1309 5.75195 13.5742 5.75195Q12.168 5.75195 11.3525 6.85547Q10.5371 7.95898 10.5371 10.1855Q10.5371 11.0742 10.6738 11.7383Q10.8105 12.4023 11.0547 12.8613Q11.4355 13.5645 12.041 13.8721Q12.6465 14.1797 13.3887 14.1797ZM13.3301 13.1055Q12.6562 13.1055 12.2217 12.627Q11.7871 12.1484 11.7871 11.3867Q11.7871 10.6641 12.2168 10.2051Q12.6465 9.74609 13.3398 9.74609Q14.0234 9.74609 14.4482 10.2051Q14.873 10.6641 14.873 11.3965Q14.873 12.1777 14.458 12.6416Q14.043 13.1055 13.3301 13.1055Z" fill="#ffffff"/>
 </g>
</svg>
