<?xml version="1.0" encoding="UTF-8"?>
<!--Generator: Apple Native CoreSVG 175.5-->
<!DOCTYPE svg
PUBLIC "-//W3C//DTD SVG 1.1//EN"
       "http://www.w3.org/Graphics/SVG/1.1/DTD/svg11.dtd">
<svg version="1.1" xmlns="http://www.w3.org/2000/svg" xmlns:xlink="http://www.w3.org/1999/xlink" width="17.9785" height="17.998">
 <g>
  <rect height="17.998" opacity="0" width="17.9785" x="0" y="0"/>
  <path d="M3.06641 17.998L14.9121 17.998Q16.4453 17.998 17.2119 17.2412Q17.9785 16.4844 17.9785 14.9707L17.9785 3.04688Q17.9785 1.5332 17.2119 0.776367Q16.4453 0.0195312 14.9121 0.0195312L3.06641 0.0195312Q1.5332 0.0195312 0.766602 0.776367Q0 1.5332 0 3.04688L0 14.9707Q0 16.4844 0.766602 17.2412Q1.5332 17.998 3.06641 17.998Z" fill="#007aff"/>
  <path d="M5.76172 13.3398Q4.73633 13.3398 3.99902 12.8027Q3.26172 12.2656 3.05664 11.5723Q3.02734 11.4746 3.01758 11.3916Q3.00781 11.3086 3.00781 11.2012Q3.00781 10.9375 3.17383 10.7666Q3.33984 10.5957 3.59375 10.5957Q3.97461 10.5957 4.16992 11.0742Q4.375 11.6016 4.77539 11.8848Q5.17578 12.168 5.78125 12.168Q6.50391 12.168 6.95801 11.7773Q7.41211 11.3867 7.41211 10.8008Q7.41211 10.1855 6.98242 9.81445Q6.55273 9.44336 5.84961 9.44336L5.25391 9.44336Q5.00977 9.44336 4.85352 9.27734Q4.69727 9.11133 4.69727 8.86719Q4.69727 8.59375 4.85352 8.42773Q5.00977 8.26172 5.25391 8.26172L5.80078 8.26172Q6.39648 8.26172 6.77246 7.90527Q7.14844 7.54883 7.14844 7.00195Q7.14844 6.47461 6.77734 6.14746Q6.40625 5.82031 5.81055 5.82031Q5.21484 5.82031 4.84863 6.10352Q4.48242 6.38672 4.30664 6.91406Q4.23828 7.1582 4.10645 7.27539Q3.97461 7.39258 3.75 7.39258Q3.48633 7.39258 3.33008 7.22168Q3.17383 7.05078 3.17383 6.77734Q3.17383 6.55273 3.19336 6.41602Q3.39844 5.67383 4.10645 5.16113Q4.81445 4.64844 5.83984 4.64844Q6.97266 4.64844 7.68555 5.25879Q8.39844 5.86914 8.39844 6.83594Q8.39844 7.54883 7.96875 8.10547Q7.53906 8.66211 6.91406 8.75977L6.91406 8.81836Q7.67578 8.89648 8.17383 9.47266Q8.67188 10.0488 8.67188 10.8594Q8.67188 11.9434 7.86133 12.6416Q7.05078 13.3398 5.76172 13.3398ZM11.2598 13.2227Q10.9668 13.2227 10.7715 13.0371Q10.5762 12.8516 10.5762 12.5684Q10.5762 12.4219 10.6006 12.3193Q10.625 12.2168 10.6934 12.0996L13.7988 6.06445L13.7988 5.98633L10.2734 5.98633Q10.0098 5.98633 9.84863 5.83496Q9.6875 5.68359 9.6875 5.42969Q9.6875 5.16602 9.84863 5.00977Q10.0098 4.85352 10.2734 4.85352L14.3359 4.85352Q14.7363 4.85352 14.9805 5.1123Q15.2246 5.37109 15.2246 5.73242Q15.2246 5.88867 15.1904 6.0498Q15.1562 6.21094 15.0488 6.45508L11.8945 12.7246Q11.7676 12.9883 11.6113 13.1055Q11.4551 13.2227 11.2598 13.2227Z" fill="#ffffff"/>
 </g>
</svg>
