<?xml version="1.0" encoding="UTF-8"?>
<!--Generator: Apple Native CoreSVG 175.5-->
<!DOCTYPE svg
PUBLIC "-//W3C//DTD SVG 1.1//EN"
       "http://www.w3.org/Graphics/SVG/1.1/DTD/svg11.dtd">
<svg version="1.1" xmlns="http://www.w3.org/2000/svg" xmlns:xlink="http://www.w3.org/1999/xlink" width="19.9219" height="19.9316">
 <g>
  <rect height="19.9316" opacity="0" width="19.9219" x="0" y="0"/>
  <path d="M9.96094 19.9219Q12.002 19.9219 13.8037 19.1406Q15.6055 18.3594 16.9824 16.9824Q18.3594 15.6055 19.1406 13.8037Q19.9219 12.002 19.9219 9.96094Q19.9219 7.91992 19.1406 6.11816Q18.3594 4.31641 16.9824 2.93945Q15.6055 1.5625 13.7988 0.78125Q11.9922 0 9.95117 0Q7.91016 0 6.1084 0.78125Q4.30664 1.5625 2.93457 2.93945Q1.5625 4.31641 0.78125 6.11816Q0 7.91992 0 9.96094Q0 12.002 0.78125 13.8037Q1.5625 15.6055 2.93945 16.9824Q4.31641 18.3594 6.11816 19.1406Q7.91992 19.9219 9.96094 19.9219ZM9.96094 18.2617Q8.23242 18.2617 6.72852 17.6172Q5.22461 16.9727 4.08691 15.835Q2.94922 14.6973 2.30957 13.1934Q1.66992 11.6895 1.66992 9.96094Q1.66992 8.23242 2.30957 6.72852Q2.94922 5.22461 4.08203 4.08203Q5.21484 2.93945 6.71875 2.2998Q8.22266 1.66016 9.95117 1.66016Q11.6797 1.66016 13.1885 2.2998Q14.6973 2.93945 15.835 4.08203Q16.9727 5.22461 17.6172 6.72852Q18.2617 8.23242 18.2617 9.96094Q18.2617 11.6895 17.6221 13.1934Q16.9824 14.6973 15.8398 15.835Q14.6973 16.9727 13.1934 17.6172Q11.6895 18.2617 9.96094 18.2617Z" fill="#007aff"/>
  <path d="M6.66992 14.1699Q7.91016 14.1699 8.69629 13.4961Q9.48242 12.8223 9.48242 11.7676Q9.48242 10.9863 8.99902 10.4248Q8.51562 9.86328 7.7832 9.79492L7.7832 9.73633Q8.38867 9.63867 8.80371 9.09668Q9.21875 8.55469 9.21875 7.87109Q9.21875 6.93359 8.52539 6.34277Q7.83203 5.75195 6.73828 5.75195Q5.74219 5.75195 5.05859 6.25Q4.375 6.74805 4.17969 7.46094Q4.16016 7.59766 4.16016 7.8125Q4.16016 8.07617 4.31152 8.24219Q4.46289 8.4082 4.7168 8.4082Q4.93164 8.4082 5.05859 8.29102Q5.18555 8.17383 5.25391 7.93945Q5.41992 7.42188 5.77637 7.14844Q6.13281 6.875 6.70898 6.875Q7.28516 6.875 7.65137 7.19238Q8.01758 7.50977 8.01758 8.02734Q8.01758 8.56445 7.65137 8.91113Q7.28516 9.25781 6.69922 9.25781L6.17188 9.25781Q5.9375 9.25781 5.78613 9.41406Q5.63477 9.57031 5.63477 9.83398Q5.63477 10.0684 5.78125 10.2295Q5.92773 10.3906 6.17188 10.3906L6.74805 10.3906Q7.44141 10.3906 7.85645 10.752Q8.27148 11.1133 8.27148 11.709Q8.27148 12.2754 7.82715 12.6611Q7.38281 13.0469 6.67969 13.0469Q6.10352 13.0469 5.70801 12.7686Q5.3125 12.4902 5.11719 11.9824Q4.94141 11.5137 4.56055 11.5137Q4.31641 11.5137 4.15527 11.6797Q3.99414 11.8457 3.99414 12.0996Q3.99414 12.207 4.00391 12.2852Q4.01367 12.3633 4.04297 12.4609Q4.23828 13.1348 4.95605 13.6523Q5.67383 14.1699 6.66992 14.1699ZM13.4082 14.1699Q14.6777 14.1699 15.4688 13.5059Q16.2598 12.8418 16.2598 11.7773Q16.2598 11.0254 15.8252 10.4688Q15.3906 9.91211 14.5996 9.75586L14.5996 9.69727Q15.2734 9.52148 15.625 9.02832Q15.9766 8.53516 15.9766 7.90039Q15.9766 6.94336 15.2637 6.34766Q14.5508 5.75195 13.4277 5.75195Q12.3047 5.75195 11.5869 6.34766Q10.8691 6.94336 10.8691 7.90039Q10.8691 8.53516 11.2158 9.01855Q11.5625 9.50195 12.2461 9.69727L12.2461 9.75586Q11.4551 9.91211 11.0205 10.4736Q10.5859 11.0352 10.5859 11.7871Q10.5859 12.8516 11.3623 13.5107Q12.1387 14.1699 13.4082 14.1699ZM13.4375 13.1543Q12.7344 13.1543 12.2803 12.749Q11.8262 12.3438 11.8262 11.6992Q11.8262 11.0645 12.2803 10.6543Q12.7344 10.2441 13.4375 10.2441Q14.1406 10.2441 14.585 10.6543Q15.0293 11.0645 15.0293 11.6992Q15.0293 12.3438 14.5752 12.749Q14.1211 13.1543 13.4375 13.1543ZM13.4277 9.30664Q12.8516 9.30664 12.4854 8.94043Q12.1191 8.57422 12.1191 8.01758Q12.1191 7.46094 12.4854 7.11426Q12.8516 6.76758 13.4277 6.76758Q13.9941 6.76758 14.3604 7.11426Q14.7266 7.46094 14.7266 8.01758Q14.7266 8.57422 14.3604 8.94043Q13.9941 9.30664 13.4277 9.30664Z" fill="#ffffff"/>
 </g>
</svg>
