<?xml version="1.0" encoding="UTF-8"?>
<!--Generator: Apple Native CoreSVG 175.5-->
<!DOCTYPE svg
PUBLIC "-//W3C//DTD SVG 1.1//EN"
       "http://www.w3.org/Graphics/SVG/1.1/DTD/svg11.dtd">
<svg version="1.1" xmlns="http://www.w3.org/2000/svg" xmlns:xlink="http://www.w3.org/1999/xlink" width="19.9219" height="19.9316">
 <g>
  <rect height="19.9316" opacity="0" width="19.9219" x="0" y="0"/>
  <path d="M9.96094 19.9219Q12.002 19.9219 13.8037 19.1406Q15.6055 18.3594 16.9824 16.9824Q18.3594 15.6055 19.1406 13.8037Q19.9219 12.002 19.9219 9.96094Q19.9219 7.91992 19.1406 6.11816Q18.3594 4.31641 16.9824 2.93945Q15.6055 1.5625 13.7988 0.78125Q11.9922 0 9.95117 0Q7.91016 0 6.1084 0.78125Q4.30664 1.5625 2.93457 2.93945Q1.5625 4.31641 0.78125 6.11816Q0 7.91992 0 9.96094Q0 12.002 0.78125 13.8037Q1.5625 15.6055 2.93945 16.9824Q4.31641 18.3594 6.11816 19.1406Q7.91992 19.9219 9.96094 19.9219Z" fill="#007aff"/>
  <path d="M7.73438 14.2871Q7.44141 14.2871 7.29004 14.0918Q7.13867 13.8965 7.13867 13.6035L7.13867 12.4219L4.20898 12.4219Q3.81836 12.4219 3.5791 12.1924Q3.33984 11.9629 3.33984 11.5625Q3.33984 11.3574 3.38867 11.1719Q3.4375 10.9863 3.55469 10.752Q3.80859 10.293 4.11621 9.76074Q4.42383 9.22852 4.76074 8.65234Q5.09766 8.07617 5.43457 7.5Q5.77148 6.92383 6.08398 6.39648Q6.33789 5.97656 6.63086 5.7959Q6.92383 5.61523 7.36328 5.61523Q7.80273 5.61523 8.08594 5.87891Q8.36914 6.14258 8.36914 6.58203L8.36914 11.2891L8.90625 11.2891Q9.16016 11.2891 9.31641 11.4404Q9.47266 11.5918 9.47266 11.8652Q9.47266 12.4219 8.90625 12.4219L8.36914 12.4219L8.36914 13.6035Q8.36914 13.9062 8.20801 14.0967Q8.04688 14.2871 7.73438 14.2871ZM7.13867 11.2891L7.13867 6.98242L7.08008 6.98242Q6.83594 7.39258 6.57715 7.8418Q6.31836 8.29102 6.0498 8.75Q5.78125 9.20898 5.53223 9.65332Q5.2832 10.0977 5.05859 10.5029Q4.83398 10.9082 4.6582 11.25L4.6582 11.2891ZM14.6777 14.2871Q14.3848 14.2871 14.2334 14.0918Q14.082 13.8965 14.082 13.6035L14.082 12.4219L11.1426 12.4219Q10.752 12.4219 10.5127 12.1924Q10.2734 11.9629 10.2734 11.5625Q10.2734 11.3574 10.3223 11.1719Q10.3711 10.9863 10.498 10.752Q10.752 10.293 11.0596 9.76074Q11.3672 9.22852 11.7041 8.65234Q12.041 8.07617 12.3779 7.5Q12.7148 6.92383 13.0273 6.39648Q13.2715 5.97656 13.5645 5.7959Q13.8574 5.61523 14.3066 5.61523Q14.7461 5.61523 15.0244 5.87891Q15.3027 6.14258 15.3027 6.58203L15.3027 11.2891L15.8398 11.2891Q16.1035 11.2891 16.2549 11.4404Q16.4062 11.5918 16.4062 11.8652Q16.4062 12.1289 16.2549 12.2754Q16.1035 12.4219 15.8398 12.4219L15.3027 12.4219L15.3027 13.6035Q15.3027 13.9062 15.1416 14.0967Q14.9805 14.2871 14.6777 14.2871ZM14.082 11.2891L14.082 6.98242L14.0234 6.98242Q13.7793 7.39258 13.5205 7.8418Q13.2617 8.29102 12.998 8.75Q12.7344 9.20898 12.4805 9.65332Q12.2266 10.0977 12.002 10.5029Q11.7773 10.9082 11.6016 11.25L11.6016 11.2891Z" fill="#ffffff"/>
 </g>
</svg>
