<?xml version="1.0" encoding="UTF-8"?>
<!--Generator: Apple Native CoreSVG 175.5-->
<!DOCTYPE svg
PUBLIC "-//W3C//DTD SVG 1.1//EN"
       "http://www.w3.org/Graphics/SVG/1.1/DTD/svg11.dtd">
<svg version="1.1" xmlns="http://www.w3.org/2000/svg" xmlns:xlink="http://www.w3.org/1999/xlink" width="19.9219" height="19.9316">
 <g>
  <rect height="19.9316" opacity="0" width="19.9219" x="0" y="0"/>
  <path d="M9.96094 19.9219Q12.002 19.9219 13.8037 19.1406Q15.6055 18.3594 16.9824 16.9824Q18.3594 15.6055 19.1406 13.8037Q19.9219 12.002 19.9219 9.96094Q19.9219 7.91992 19.1406 6.11816Q18.3594 4.31641 16.9824 2.93945Q15.6055 1.5625 13.7988 0.78125Q11.9922 0 9.95117 0Q7.91016 0 6.1084 0.78125Q4.30664 1.5625 2.93457 2.93945Q1.5625 4.31641 0.78125 6.11816Q0 7.91992 0 9.96094Q0 12.002 0.78125 13.8037Q1.5625 15.6055 2.93945 16.9824Q4.31641 18.3594 6.11816 19.1406Q7.91992 19.9219 9.96094 19.9219ZM9.96094 18.2617Q8.23242 18.2617 6.72852 17.6172Q5.22461 16.9727 4.08691 15.835Q2.94922 14.6973 2.30957 13.1934Q1.66992 11.6895 1.66992 9.96094Q1.66992 8.23242 2.30957 6.72852Q2.94922 5.22461 4.08203 4.08203Q5.21484 2.93945 6.71875 2.2998Q8.22266 1.66016 9.95117 1.66016Q11.6797 1.66016 13.1885 2.2998Q14.6973 2.93945 15.835 4.08203Q16.9727 5.22461 17.6172 6.72852Q18.2617 8.23242 18.2617 9.96094Q18.2617 11.6895 17.6221 13.1934Q16.9824 14.6973 15.8398 15.835Q14.6973 16.9727 13.1934 17.6172Q11.6895 18.2617 9.96094 18.2617Z" fill="#007aff"/>
  <path d="M7.91016 14.1504Q8.20312 14.1504 8.35938 13.9648Q8.51562 13.7793 8.51562 13.4961L8.51562 12.3438L9.04297 12.3438Q9.58984 12.3438 9.58984 11.8066Q9.58984 11.543 9.43848 11.3965Q9.28711 11.25 9.04297 11.25L8.51562 11.25L8.51562 6.67969Q8.51562 6.25977 8.24219 6.00586Q7.96875 5.75195 7.54883 5.75195Q7.11914 5.75195 6.83594 5.92285Q6.55273 6.09375 6.31836 6.50391Q6.01562 7.02148 5.68359 7.57812Q5.35156 8.13477 5.0293 8.69141Q4.70703 9.24805 4.4043 9.77051Q4.10156 10.293 3.85742 10.7324Q3.74023 10.957 3.69141 11.1328Q3.64258 11.3086 3.64258 11.5137Q3.64258 11.9043 3.87695 12.124Q4.11133 12.3438 4.48242 12.3438L7.33398 12.3438L7.33398 13.4961Q7.33398 13.7793 7.48047 13.9648Q7.62695 14.1504 7.91016 14.1504ZM7.33398 11.25L4.92188 11.25L4.92188 11.2109Q5.08789 10.8789 5.30762 10.4834Q5.52734 10.0879 5.77148 9.6582Q6.01562 9.22852 6.27441 8.78418Q6.5332 8.33984 6.78711 7.90527Q7.04102 7.4707 7.27539 7.07031L7.33398 7.07031ZM13.1348 14.1699Q14.4238 14.1699 15.21 13.4277Q15.9961 12.6855 15.9961 11.3965Q15.9961 10.2734 15.2979 9.53613Q14.5996 8.79883 13.4668 8.79883Q12.9785 8.79883 12.5098 9.01367Q12.041 9.22852 11.8262 9.56055L11.7871 9.56055L11.9629 7.05078L15.1953 7.05078Q15.4004 7.05078 15.542 6.89453Q15.6836 6.73828 15.6836 6.50391Q15.6836 6.26953 15.5469 6.11328Q15.4102 5.95703 15.1953 5.95703L11.8457 5.95703Q11.4551 5.95703 11.2158 6.18164Q10.9766 6.40625 10.957 6.78711L10.7129 9.83398Q10.6934 10.2148 10.8789 10.4443Q11.0645 10.6738 11.4062 10.6738Q11.6309 10.6738 11.7969 10.6055Q11.9629 10.5371 12.1973 10.3418Q12.5 10.0781 12.7588 9.96094Q13.0176 9.84375 13.3398 9.84375Q13.9844 9.84375 14.3848 10.2979Q14.7852 10.752 14.7852 11.4258Q14.7852 12.1875 14.3457 12.627Q13.9062 13.0664 13.1934 13.0664Q12.6953 13.0664 12.29 12.8174Q11.8848 12.5684 11.6797 12.1289Q11.5723 11.9141 11.4307 11.8115Q11.2891 11.709 11.1133 11.709Q10.8691 11.709 10.7178 11.8701Q10.5664 12.0312 10.5664 12.2754Q10.5664 12.3926 10.5908 12.5049Q10.6152 12.6172 10.6543 12.7148Q10.8691 13.3203 11.543 13.7451Q12.2168 14.1699 13.1348 14.1699Z" fill="#ffffff"/>
 </g>
</svg>
