<?xml version="1.0" encoding="UTF-8"?>
<!--Generator: Apple Native CoreSVG 175.5-->
<!DOCTYPE svg
PUBLIC "-//W3C//DTD SVG 1.1//EN"
       "http://www.w3.org/Graphics/SVG/1.1/DTD/svg11.dtd">
<svg version="1.1" xmlns="http://www.w3.org/2000/svg" xmlns:xlink="http://www.w3.org/1999/xlink" width="17.9785" height="17.998">
 <g>
  <rect height="17.998" opacity="0" width="17.9785" x="0" y="0"/>
  <path d="M3.06641 17.998L14.9121 17.998Q16.4453 17.998 17.2119 17.2412Q17.9785 16.4844 17.9785 14.9707L17.9785 3.04688Q17.9785 1.5332 17.2119 0.776367Q16.4453 0.0195312 14.9121 0.0195312L3.06641 0.0195312Q1.5332 0.0195312 0.766602 0.776367Q0 1.5332 0 3.04688L0 14.9707Q0 16.4844 0.766602 17.2412Q1.5332 17.998 3.06641 17.998Z" fill="#007aff"/>
  <path d="M6.88477 13.3203Q6.5918 13.3203 6.44043 13.125Q6.28906 12.9297 6.28906 12.6367L6.28906 11.4551L3.35938 11.4551Q2.96875 11.4551 2.72949 11.2256Q2.49023 10.9961 2.49023 10.5957Q2.49023 10.3906 2.53906 10.2051Q2.58789 10.0195 2.70508 9.78516Q2.95898 9.32617 3.2666 8.79395Q3.57422 8.26172 3.91113 7.68555Q4.24805 7.10938 4.58496 6.5332Q4.92188 5.95703 5.23438 5.42969Q5.48828 5.00977 5.78125 4.8291Q6.07422 4.64844 6.51367 4.64844Q6.95312 4.64844 7.23633 4.91211Q7.51953 5.17578 7.51953 5.61523L7.51953 10.3223L8.05664 10.3223Q8.31055 10.3223 8.4668 10.4736Q8.62305 10.625 8.62305 10.8984Q8.62305 11.1621 8.4668 11.3086Q8.31055 11.4551 8.05664 11.4551L7.51953 11.4551L7.51953 12.6367Q7.51953 12.9395 7.3584 13.1299Q7.19727 13.3203 6.88477 13.3203ZM6.28906 10.3223L6.28906 6.01562L6.23047 6.01562Q5.98633 6.42578 5.72754 6.875Q5.46875 7.32422 5.2002 7.7832Q4.93164 8.24219 4.68262 8.68652Q4.43359 9.13086 4.20898 9.53613Q3.98438 9.94141 3.80859 10.2832L3.80859 10.3223ZM12.5684 13.3398Q11.2695 13.3398 10.4639 12.6611Q9.6582 11.9824 9.6582 10.8789Q9.6582 10.1074 10.1074 9.52637Q10.5566 8.94531 11.3672 8.7793L11.3672 8.7207Q10.6641 8.51562 10.3125 8.02246Q9.96094 7.5293 9.96094 6.86523Q9.96094 5.87891 10.6934 5.26367Q11.4258 4.64844 12.5879 4.64844Q13.75 4.64844 14.4824 5.26367Q15.2148 5.87891 15.2148 6.86523Q15.2148 7.5293 14.8584 8.03223Q14.502 8.53516 13.8086 8.7207L13.8086 8.7793Q14.6191 8.94531 15.0684 9.52148Q15.5176 10.0977 15.5176 10.8691Q15.5176 11.9727 14.7021 12.6562Q13.8867 13.3398 12.5684 13.3398ZM12.5977 12.2852Q13.3105 12.2852 13.7744 11.8701Q14.2383 11.4551 14.2383 10.791Q14.2383 10.127 13.7842 9.70703Q13.3301 9.28711 12.5977 9.28711Q11.8848 9.28711 11.4209 9.71191Q10.957 10.1367 10.957 10.791Q10.957 11.4551 11.4209 11.8701Q11.8848 12.2852 12.5977 12.2852ZM12.5879 8.32031Q13.1738 8.32031 13.5547 7.94434Q13.9355 7.56836 13.9355 6.99219Q13.9355 6.42578 13.5547 6.06445Q13.1738 5.70312 12.5879 5.70312Q12.002 5.70312 11.626 6.06445Q11.25 6.42578 11.25 6.99219Q11.25 7.56836 11.626 7.94434Q12.002 8.32031 12.5879 8.32031Z" fill="#ffffff"/>
 </g>
</svg>
