<?xml version="1.0" encoding="UTF-8"?>
<!--Generator: Apple Native CoreSVG 175.5-->
<!DOCTYPE svg
PUBLIC "-//W3C//DTD SVG 1.1//EN"
       "http://www.w3.org/Graphics/SVG/1.1/DTD/svg11.dtd">
<svg version="1.1" xmlns="http://www.w3.org/2000/svg" xmlns:xlink="http://www.w3.org/1999/xlink" width="19.9219" height="19.9316">
 <g>
  <rect height="19.9316" opacity="0" width="19.9219" x="0" y="0"/>
  <path d="M9.96094 19.9219Q12.002 19.9219 13.8037 19.1406Q15.6055 18.3594 16.9824 16.9824Q18.3594 15.6055 19.1406 13.8037Q19.9219 12.002 19.9219 9.96094Q19.9219 7.91992 19.1406 6.11816Q18.3594 4.31641 16.9824 2.93945Q15.6055 1.5625 13.7988 0.78125Q11.9922 0 9.95117 0Q7.91016 0 6.1084 0.78125Q4.30664 1.5625 2.93457 2.93945Q1.5625 4.31641 0.78125 6.11816Q0 7.91992 0 9.96094Q0 12.002 0.78125 13.8037Q1.5625 15.6055 2.93945 16.9824Q4.31641 18.3594 6.11816 19.1406Q7.91992 19.9219 9.96094 19.9219Z" fill="#007aff"/>
  <path d="M7.8418 14.2871Q7.53906 14.2871 7.3877 14.0918Q7.23633 13.8965 7.23633 13.6035L7.23633 12.4219L4.30664 12.4219Q3.91602 12.4219 3.67676 12.1924Q3.4375 11.9629 3.4375 11.5625Q3.4375 11.3574 3.48633 11.1719Q3.53516 10.9863 3.66211 10.752Q3.91602 10.293 4.22363 9.76074Q4.53125 9.22852 4.86328 8.65234Q5.19531 8.07617 5.53223 7.5Q5.86914 6.92383 6.19141 6.39648Q6.43555 5.97656 6.72852 5.7959Q7.02148 5.61523 7.46094 5.61523Q7.90039 5.61523 8.18359 5.87891Q8.4668 6.14258 8.4668 6.58203L8.4668 11.2891L9.00391 11.2891Q9.25781 11.2891 9.41406 11.4404Q9.57031 11.5918 9.57031 11.8652Q9.57031 12.4219 9.00391 12.4219L8.4668 12.4219L8.4668 13.6035Q8.4668 13.9062 8.30566 14.0967Q8.14453 14.2871 7.8418 14.2871ZM7.23633 11.2891L7.23633 6.98242L7.17773 6.98242Q6.94336 7.39258 6.67969 7.8418Q6.41602 8.29102 6.15234 8.75Q5.88867 9.20898 5.63477 9.65332Q5.38086 10.0977 5.15625 10.5029Q4.93164 10.9082 4.75586 11.25L4.75586 11.2891ZM13.3398 14.3066Q12.2949 14.3066 11.6895 13.8428Q11.084 13.3789 10.957 12.959Q10.9277 12.8711 10.9082 12.7734Q10.8887 12.6758 10.8887 12.5977Q10.8887 12.334 11.04 12.168Q11.1914 12.002 11.4258 12.002Q11.8164 12.002 12.041 12.3926Q12.2266 12.7246 12.5586 12.9297Q12.8906 13.1348 13.3203 13.1348Q13.9062 13.1348 14.3359 12.7539Q14.7656 12.373 15 11.6602Q15.2344 10.9473 15.2246 9.95117L15.166 9.95117Q14.9707 10.459 14.4678 10.8447Q13.9648 11.2305 13.1445 11.2305Q12.4902 11.2305 11.9189 10.9131Q11.3477 10.5957 10.9961 9.99512Q10.6445 9.39453 10.6445 8.53516Q10.6445 7.20703 11.4111 6.41113Q12.1777 5.61523 13.4473 5.61523Q14.8633 5.61523 15.6445 6.65527Q16.4258 7.69531 16.4258 9.67773Q16.4258 11.9531 15.6348 13.1299Q14.8438 14.3066 13.3398 14.3066ZM13.5254 10.1855Q14.2285 10.1855 14.6729 9.70703Q15.1172 9.22852 15.1172 8.48633Q15.1172 7.70508 14.668 7.21191Q14.2188 6.71875 13.5254 6.71875Q12.793 6.71875 12.3633 7.19727Q11.9336 7.67578 11.9336 8.4668Q11.9336 9.21875 12.373 9.70215Q12.8125 10.1855 13.5254 10.1855Z" fill="#ffffff"/>
 </g>
</svg>
