<?xml version="1.0" encoding="UTF-8"?>
<!--Generator: Apple Native CoreSVG 175-->
<!DOCTYPE svg
PUBLIC "-//W3C//DTD SVG 1.1//EN"
       "http://www.w3.org/Graphics/SVG/1.1/DTD/svg11.dtd">
<svg version="1.1" xmlns="http://www.w3.org/2000/svg" xmlns:xlink="http://www.w3.org/1999/xlink" width="36.5414" height="14.6988">
 <g>
  <rect height="14.6988" opacity="0" width="36.5414" x="0" y="0"/>
  <path d="M0.370331 14.4359Q0.536041 14.4359 0.624313 14.3607Q0.712585 14.2856 0.778961 14.1101L2.53082 9.54926L9.0097 9.54926L10.7547 14.1101Q10.8211 14.2856 10.9129 14.3607Q11.0046 14.4359 11.1606 14.4359Q11.3332 14.4359 11.4361 14.34Q11.539 14.2441 11.539 14.077Q11.539 13.9648 11.4879 13.8309L6.27502 0.419922Q6.20468 0.249176 6.08475 0.147018Q5.96481 0.0448608 5.77026 0.0448608Q5.40192 0.0448608 5.26398 0.417175L0.0511169 13.8264Q0 13.9676 0 14.0796Q0 14.2468 0.100174 14.3414Q0.200348 14.4359 0.370331 14.4359ZM2.77039 8.86917L5.74799 1.12274L5.78979 1.12274L8.76755 8.86917ZM13.6794 14.2793L18.2426 14.2793Q19.7531 14.2793 20.8405 13.8184Q21.9278 13.3574 22.513 12.5227Q23.0981 11.6879 23.0981 10.5469Q23.0981 9.51675 22.6179 8.75641Q22.1376 7.99606 21.3147 7.54135Q20.4918 7.08664 19.4789 6.98624L19.4789 6.93909Q20.3488 6.77689 20.993 6.31577Q21.6371 5.85464 21.9908 5.15839Q22.3445 4.46213 22.3445 3.61755Q22.3445 2.61017 21.8145 1.84631Q21.2845 1.08246 20.3345 0.651398Q19.3845 0.220337 18.1235 0.220337L13.6794 0.220337Q13.5083 0.220337 13.4013 0.328751Q13.2942 0.437164 13.2942 0.617981L13.2942 13.8815Q13.2942 14.0625 13.4013 14.1709Q13.5083 14.2793 13.6794 14.2793ZM14.0782 6.71524L14.0782 0.91095L18.0058 0.91095Q19.6179 0.91095 20.5906 1.67206Q21.5633 2.43317 21.5633 3.67737Q21.5633 5.08011 20.5492 5.89767Q19.5352 6.71524 17.8516 6.71524ZM14.0782 13.5913L14.0782 7.37579L17.9457 7.37579Q20.0075 7.37579 21.1623 8.22205Q22.3172 9.0683 22.3172 10.5238Q22.3172 11.9254 21.2119 12.7583Q20.1067 13.5913 18.154 13.5913ZM30.9692 14.4785Q32.1489 14.4785 33.1516 14.1318Q34.1544 13.7851 34.9102 13.1484Q35.666 12.5117 36.1024 11.6374Q36.284 11.2698 36.4127 10.8882Q36.5414 10.5066 36.5414 10.1445Q36.5414 9.95895 36.4442 9.85878Q36.3469 9.75861 36.1852 9.75861Q36.0329 9.75861 35.9422 9.84749Q35.8516 9.93637 35.798 10.1289Q35.6207 11.1559 34.951 11.9816Q34.2813 12.8073 33.2534 13.288Q32.2255 13.7688 30.9692 13.7688Q29.2903 13.7688 28.0486 12.9621Q26.8068 12.1555 26.1195 10.6707Q25.4321 9.18594 25.4321 7.1524Q25.4321 5.16907 26.1089 3.72223Q26.7856 2.27539 28.0323 1.49261Q29.279 0.709839 30.9692 0.709839Q32.188 0.709839 33.2159 1.23093Q34.2438 1.75201 34.9295 2.63847Q35.6152 3.52493 35.8153 4.61792Q35.8618 4.79645 35.9466 4.87457Q36.0313 4.9527 36.1821 4.9527Q36.3536 4.9527 36.4446 4.85252Q36.5356 4.75235 36.5356 4.58084Q36.5356 4.23508 36.4188 3.8324Q36.0872 2.71591 35.2852 1.85036Q34.4832 0.984802 33.3659 0.492401Q32.2485 0 30.9692 0Q29.0332 0 27.6154 0.874023Q26.1977 1.74805 25.4229 3.35373Q24.6481 4.95941 24.6481 7.155Q24.6481 9.39133 25.4264 11.0349Q26.2047 12.6785 27.626 13.5785Q29.0472 14.4785 30.9692 14.4785Z" fill="#ffffff"/>
 </g>
</svg>
