<?xml version="1.0" encoding="UTF-8"?>
<!--Generator: Apple Native CoreSVG 175.5-->
<!DOCTYPE svg
PUBLIC "-//W3C//DTD SVG 1.1//EN"
       "http://www.w3.org/Graphics/SVG/1.1/DTD/svg11.dtd">
<svg version="1.1" xmlns="http://www.w3.org/2000/svg" xmlns:xlink="http://www.w3.org/1999/xlink" width="19.1133" height="22.9785">
 <g>
  <rect height="22.9785" opacity="0" width="19.1133" x="0" y="0"/>
  <path d="M3.01758 21.2402L11.8262 21.2402Q13.3203 21.2402 14.0771 20.4883Q14.834 19.7363 14.834 18.2617L14.834 10.8984Q14.5703 11.0547 14.3066 11.1963Q14.043 11.3379 13.7842 11.4648Q13.5254 11.5918 13.2617 11.709L13.2617 18.1836Q13.2617 18.9062 12.876 19.2871Q12.4902 19.668 11.7969 19.668L3.03711 19.668Q2.34375 19.668 1.95801 19.2871Q1.57227 18.9062 1.57227 18.1836L1.57227 3.05664Q1.57227 2.33398 1.95801 1.95312Q2.34375 1.57227 3.03711 1.57227L12.0117 1.57227Q12.4414 1.30859 12.8906 1.0791Q13.3398 0.849609 13.7891 0.664062Q13.125 0 11.7676 0L3.01758 0Q1.52344 0 0.761719 0.74707Q0 1.49414 0 2.96875L0 18.2617Q0 19.7363 0.761719 20.4883Q1.52344 21.2402 3.01758 21.2402ZM4.16016 5.66406Q4.72656 5.66406 5.13184 5.25879Q5.53711 4.85352 5.53711 4.27734Q5.53711 3.7207 5.13184 3.31543Q4.72656 2.91016 4.16016 2.91016Q3.59375 2.91016 3.18848 3.31543Q2.7832 3.7207 2.7832 4.27734Q2.7832 4.85352 3.18848 5.25879Q3.59375 5.66406 4.16016 5.66406ZM3.33984 13.3984L6.18164 13.3984Q6.44531 13.3984 6.62598 13.2227Q6.80664 13.0469 6.80664 12.7832Q6.80664 12.5195 6.62598 12.3438Q6.44531 12.168 6.18164 12.168L3.33984 12.168Q3.08594 12.168 2.90527 12.3438Q2.72461 12.5195 2.72461 12.7832Q2.72461 13.0469 2.90527 13.2227Q3.08594 13.3984 3.33984 13.3984ZM3.33984 15.8398L6.18164 15.8398Q6.44531 15.8398 6.62598 15.6641Q6.80664 15.4883 6.80664 15.2246Q6.80664 14.9609 6.62598 14.7852Q6.44531 14.6094 6.18164 14.6094L3.33984 14.6094Q3.08594 14.6094 2.90527 14.7852Q2.72461 14.9609 2.72461 15.2246Q2.72461 15.4883 2.90527 15.6641Q3.08594 15.8398 3.33984 15.8398ZM3.33984 18.2812L6.18164 18.2812Q6.44531 18.2812 6.62598 18.1006Q6.80664 17.9199 6.80664 17.666Q6.80664 17.4023 6.62598 17.2217Q6.44531 17.041 6.18164 17.041L3.33984 17.041Q3.08594 17.041 2.90527 17.2217Q2.72461 17.4023 2.72461 17.666Q2.72461 17.9199 2.90527 18.1006Q3.08594 18.2812 3.33984 18.2812ZM8.65234 13.3984L11.4941 13.3984Q11.7578 13.3984 11.9336 13.2227Q12.1094 13.0469 12.1094 12.7832Q12.1094 12.5195 11.9336 12.3438Q11.7578 12.168 11.4941 12.168L8.65234 12.168Q8.38867 12.168 8.20801 12.3438Q8.02734 12.5195 8.02734 12.7832Q8.02734 13.0469 8.20801 13.2227Q8.38867 13.3984 8.65234 13.3984ZM8.65234 15.8398L11.4941 15.8398Q11.7578 15.8398 11.9336 15.6641Q12.1094 15.4883 12.1094 15.2246Q12.1094 14.9609 11.9336 14.7852Q11.7578 14.6094 11.4941 14.6094L8.65234 14.6094Q8.38867 14.6094 8.20801 14.7852Q8.02734 14.9609 8.02734 15.2246Q8.02734 15.4883 8.20801 15.6641Q8.38867 15.8398 8.65234 15.8398ZM8.65234 18.2812L11.4941 18.2812Q11.7578 18.2812 11.9336 18.1006Q12.1094 17.9199 12.1094 17.666Q12.1094 17.4023 11.9336 17.2217Q11.7578 17.041 11.4941 17.041L8.65234 17.041Q8.38867 17.041 8.20801 17.2217Q8.02734 17.4023 8.02734 17.666Q8.02734 17.9199 8.20801 18.1006Q8.38867 18.2812 8.65234 18.2812ZM2.83203 22.959Q3.18359 22.959 3.39844 22.7393Q3.61328 22.5195 3.61328 22.168L3.61328 20.2539L2.04102 20.2539L2.04102 22.168Q2.04102 22.5195 2.26074 22.7393Q2.48047 22.959 2.83203 22.959ZM12.002 22.959Q12.3535 22.959 12.5732 22.7393Q12.793 22.5195 12.793 22.168L12.793 20.2539L11.2207 20.2539L11.2207 22.168Q11.2207 22.5195 11.4355 22.7393Q11.6504 22.959 12.002 22.959Z" fill="#007aff"/>
  <path d="M10.4004 5.09766Q11.377 5.09766 12.1631 4.77539Q12.9492 4.45312 13.6475 4.0332Q14.3457 3.61328 15.0684 3.2959Q15.791 2.97852 16.6406 2.97852Q17.041 2.97852 17.3975 3.07129Q17.7539 3.16406 18.1738 3.39844Q18.4375 3.54492 18.6572 3.47168Q18.877 3.39844 18.9941 3.23242Q19.1406 3.01758 19.1016 2.73438Q19.0625 2.45117 18.7402 2.27539Q17.7637 1.70898 16.6406 1.70898Q15.6445 1.70898 14.8584 2.03125Q14.0723 2.35352 13.3691 2.77344Q12.666 3.19336 11.9531 3.51562Q11.2402 3.83789 10.4004 3.83789Q10.0098 3.83789 9.64844 3.74023Q9.28711 3.64258 8.86719 3.39844Q8.61328 3.26172 8.38867 3.33496Q8.16406 3.4082 8.04688 3.59375Q7.91016 3.79883 7.94922 4.07715Q7.98828 4.35547 8.30078 4.53125Q8.7793 4.82422 9.31152 4.96094Q9.84375 5.09766 10.4004 5.09766ZM10.4102 7.82227Q11.3867 7.82227 12.168 7.5Q12.9492 7.17773 13.6523 6.75781Q14.3555 6.33789 15.0732 6.01562Q15.791 5.69336 16.6406 5.69336Q17.041 5.69336 17.4023 5.79102Q17.7637 5.88867 18.1836 6.12305Q18.4375 6.26953 18.6621 6.19629Q18.8867 6.12305 19.0039 5.94727Q19.1406 5.74219 19.1064 5.45898Q19.0723 5.17578 18.7598 4.99023Q17.7734 4.42383 16.6406 4.42383Q15.6543 4.42383 14.8633 4.74609Q14.0723 5.06836 13.374 5.49316Q12.6758 5.91797 11.9629 6.24023Q11.25 6.5625 10.4102 6.5625Q10.0098 6.5625 9.65332 6.45996Q9.29688 6.35742 8.87695 6.12305Q8.62305 5.97656 8.39355 6.0498Q8.16406 6.12305 8.04688 6.31836Q7.91016 6.52344 7.9541 6.80176Q7.99805 7.08008 8.31055 7.25586Q8.78906 7.54883 9.32129 7.68555Q9.85352 7.82227 10.4102 7.82227ZM10.4004 10.5371Q11.377 10.5371 12.1631 10.2148Q12.9492 9.89258 13.6475 9.47266Q14.3457 9.05273 15.0684 8.73535Q15.791 8.41797 16.6406 8.41797Q17.041 8.41797 17.3975 8.51074Q17.7539 8.60352 18.1738 8.83789Q18.4375 8.98438 18.6572 8.91113Q18.877 8.83789 18.9941 8.67188Q19.1406 8.45703 19.1016 8.17383Q19.0625 7.89062 18.7402 7.71484Q17.7637 7.14844 16.6406 7.14844Q15.6445 7.14844 14.8584 7.4707Q14.0723 7.79297 13.3691 8.21289Q12.666 8.63281 11.9531 8.95508Q11.2402 9.27734 10.4004 9.27734Q10.0098 9.27734 9.64844 9.17969Q9.28711 9.08203 8.86719 8.83789Q8.61328 8.70117 8.38867 8.77441Q8.16406 8.84766 8.04688 9.0332Q7.91016 9.23828 7.94922 9.5166Q7.98828 9.79492 8.30078 9.9707Q8.7793 10.2734 9.31152 10.4053Q9.84375 10.5371 10.4004 10.5371Z" fill="#ffffff"/>
 </g>
</svg>
