<?xml version="1.0" encoding="UTF-8"?>
<!--Generator: Apple Native CoreSVG 175-->
<!DOCTYPE svg
PUBLIC "-//W3C//DTD SVG 1.1//EN"
       "http://www.w3.org/Graphics/SVG/1.1/DTD/svg11.dtd">
<svg version="1.1" xmlns="http://www.w3.org/2000/svg" xmlns:xlink="http://www.w3.org/1999/xlink" width="23.2411" height="10.4495">
 <g>
  <rect height="10.4495" opacity="0" width="23.2411" x="0" y="0"/>
  <path d="M18.9671 7.53906Q19.4188 7.5293 19.7428 7.20879Q20.0668 6.88828 20.0668 6.44363Q20.0668 5.98511 19.7428 5.65834Q19.4188 5.33157 18.9671 5.33157Q18.5254 5.33157 18.193 5.65834Q17.8606 5.98511 17.8606 6.44363Q17.8606 6.88828 18.193 7.21855Q18.5254 7.54883 18.9671 7.53906ZM2.63046 10.4195L20.6035 10.4195Q21.9048 10.4195 22.5729 9.7435Q23.2411 9.06754 23.2411 7.79297L23.2411 2.62375Q23.2411 1.34491 22.5729 0.672455Q21.9048 0 20.6035 0L2.63046 0Q1.33636 0 0.668182 0.665436Q0 1.33087 0 2.62375L0 7.79297Q0 9.08157 0.668182 9.75052Q1.33636 10.4195 2.63046 10.4195ZM2.65701 9.69101Q1.7067 9.69101 1.21765 9.20326Q0.728607 8.71552 0.728607 7.75696L0.728607 2.66251Q0.728607 1.7038 1.21765 1.21613Q1.7067 0.728455 2.65701 0.728455L20.584 0.728455Q21.5034 0.728455 22.008 1.21613Q22.5125 1.7038 22.5125 2.66251L22.5125 7.75696Q22.5125 8.71552 22.008 9.20326Q21.5034 9.69101 20.584 9.69101ZM22.7812 3.28903L22.7812 2.62848L0.479279 2.62848L0.479279 3.28903Z" fill="#ffffff"/>
 </g>
</svg>
