<?xml version="1.0" encoding="UTF-8"?>
<!--Generator: Apple Native CoreSVG 175-->
<!DOCTYPE svg
PUBLIC "-//W3C//DTD SVG 1.1//EN"
       "http://www.w3.org/Graphics/SVG/1.1/DTD/svg11.dtd">
<svg version="1.1" xmlns="http://www.w3.org/2000/svg" xmlns:xlink="http://www.w3.org/1999/xlink" width="22.0748" height="19.8226">
 <g>
  <rect height="19.8226" opacity="0" width="22.0748" x="0" y="0"/>
  <path d="M1.99716 9.17902L18.2967 13.6389Q19.2764 13.9068 20.085 13.8427Q20.8936 13.7786 21.4161 13.405Q21.9386 13.0314 22.0515 12.3763Q22.1519 11.7755 21.8196 11.2431Q21.4874 10.7107 20.8209 10.3183Q20.1545 9.92594 19.2362 9.74589L13.792 8.66144Q13.5499 8.60987 13.3737 8.50344Q13.1976 8.39701 13.0389 8.16614L7.71111 0.48136Q7.53457 0.235235 7.23702 0.148871L6.70526 0.0153563Q6.53375-0.0334719 6.42716 0.0729582Q6.32058 0.179388 6.36514 0.354864L8.28927 7.97083L8.58102 7.64185L3.93929 6.72037L4.67294 7.15952L1.08621 2.97907Q0.861902 2.72974 0.474786 2.80634L0.258417 2.85639Q0.105371 2.88843 0.0420471 2.98296Q-0.0212769 3.07749 0.0107666 3.23221L1.09521 8.33292Q1.16738 8.6735 1.38436 8.8714Q1.60134 9.06931 1.99716 9.17902Z" fill="#ffffff"/>
  <path d="M0.648737 18.1896L21.4135 18.1896Q21.56 18.1896 21.6664 18.0818Q21.7729 17.974 21.7729 17.8276Q21.7729 17.6811 21.6664 17.5746Q21.56 17.4681 21.4135 17.4681L0.648737 17.4681Q0.502252 17.4681 0.395746 17.5746Q0.28924 17.6811 0.28924 17.8276Q0.28924 17.974 0.395746 18.0818Q0.502252 18.1896 0.648737 18.1896Z" fill="#007aff"/>
 </g>
</svg>
