<?xml version="1.0" encoding="UTF-8"?>
<!--Generator: Apple Native CoreSVG 175.5-->
<!DOCTYPE svg
PUBLIC "-//W3C//DTD SVG 1.1//EN"
       "http://www.w3.org/Graphics/SVG/1.1/DTD/svg11.dtd">
<svg version="1.1" xmlns="http://www.w3.org/2000/svg" xmlns:xlink="http://www.w3.org/1999/xlink" width="35.0293" height="21.8652">
 <g>
  <rect height="21.8652" opacity="0" width="35.0293" x="0" y="0"/>
  <path d="M17.5098 20.2441Q19.4434 20.2441 21.1377 19.5215Q22.832 18.7988 24.1162 17.5146Q25.4004 16.2305 26.123 14.5361Q26.8457 12.8418 26.8457 10.9082Q26.8457 8.97461 26.123 7.28516Q25.4004 5.5957 24.1162 4.31152Q22.832 3.02734 21.1377 2.2998Q19.4434 1.57227 17.5098 1.57227Q15.5762 1.57227 13.8867 2.2998Q12.1973 3.02734 10.9131 4.31152Q9.62891 5.5957 8.90137 7.28516Q8.17383 8.97461 8.17383 10.9082Q8.17383 12.8418 8.90137 14.5361Q9.62891 16.2305 10.9131 17.5146Q12.1973 18.7988 13.8867 19.5215Q15.5762 20.2441 17.5098 20.2441ZM17.5098 18.584Q15.9277 18.584 14.5361 17.9883Q13.1445 17.3926 12.0898 16.3379Q11.0352 15.2832 10.4395 13.8916Q9.84375 12.5 9.84375 10.9082Q9.84375 9.32617 10.4395 7.93457Q11.0352 6.54297 12.0898 5.49316Q13.1445 4.44336 14.5361 3.84766Q15.9277 3.25195 17.5098 3.25195Q19.1016 3.25195 20.4883 3.84766Q21.875 4.44336 22.9297 5.49316Q23.9844 6.54297 24.5801 7.93457Q25.1758 9.32617 25.1758 10.9082Q25.1758 12.5 24.5801 13.8916Q23.9844 15.2832 22.9297 16.3379Q21.875 17.3926 20.4883 17.9883Q19.1016 18.584 17.5098 18.584ZM9.49219 4.08203Q9.59961 4.08203 9.6875 4.05273Q9.77539 4.02344 9.88281 3.94531L13.1543 1.48438Q13.3984 1.29883 13.3984 1.04492Q13.3984 0.761719 13.1348 0.517578Q12.8613 0.263672 12.4072 0.131836Q11.9531 0 11.5234 0Q10.752 0 10.1318 0.366211Q9.51172 0.732422 9.14062 1.35742Q8.76953 1.98242 8.76953 2.73438Q8.76953 3.00781 8.81348 3.2666Q8.85742 3.52539 8.93555 3.69141Q9.01367 3.86719 9.16016 3.97461Q9.30664 4.08203 9.49219 4.08203ZM25.5371 4.08203Q25.7129 4.08203 25.8594 3.96973Q26.0059 3.85742 26.0938 3.69141Q26.1719 3.52539 26.2109 3.2666Q26.25 3.00781 26.25 2.73438Q26.25 1.98242 25.8838 1.35742Q25.5176 0.732422 24.8926 0.366211Q24.2676 0 23.5059 0Q23.0664 0 22.6172 0.131836Q22.168 0.263672 21.8945 0.517578Q21.6211 0.761719 21.6211 1.04492Q21.6211 1.29883 21.875 1.48438L25.1465 3.94531Q25.2441 4.02344 25.332 4.05273Q25.4199 4.08203 25.5371 4.08203ZM9.3457 19.9707Q9.57031 20.1953 9.88281 20.1904Q10.1953 20.1855 10.4199 19.9609L12.2656 18.125L11.2109 17.0703L9.35547 18.916Q9.13086 19.1309 9.13086 19.4434Q9.13086 19.7559 9.3457 19.9707ZM25.6836 19.9707Q25.8984 19.7559 25.8984 19.4434Q25.8984 19.1309 25.6738 18.916L23.8184 17.0703L22.7637 18.125L24.5996 19.9609Q24.834 20.1855 25.1465 20.1904Q25.459 20.1953 25.6836 19.9707ZM13.0664 11.9922L17.5 11.9922Q17.793 11.9922 17.9883 11.7969Q18.1836 11.6016 18.1836 11.3086L18.1836 5.39062Q18.1836 5.10742 17.9883 4.91211Q17.793 4.7168 17.5 4.7168Q17.2168 4.7168 17.0215 4.91211Q16.8262 5.10742 16.8262 5.39062L16.8262 10.6348L13.0664 10.6348Q12.7832 10.6348 12.5879 10.8301Q12.3926 11.0254 12.3926 11.3086Q12.3926 11.6016 12.5879 11.7969Q12.7832 11.9922 13.0664 11.9922Z" fill="#ffffff"/>
  <path d="M6.50391 14.8242Q6.73828 14.5605 6.6748 14.2432Q6.61133 13.9258 6.37695 13.6133Q5.9375 13.0664 5.72266 12.3779Q5.50781 11.6895 5.50781 10.9277Q5.50781 10.166 5.72266 9.47754Q5.9375 8.78906 6.37695 8.24219Q6.61133 7.91992 6.6748 7.60742Q6.73828 7.29492 6.50391 7.03125Q6.25977 6.75781 5.88379 6.7627Q5.50781 6.76758 5.25391 7.09961Q4.61914 7.89062 4.26758 8.87207Q3.91602 9.85352 3.91602 10.9277Q3.91602 12.002 4.26758 12.9834Q4.61914 13.9648 5.25391 14.7559Q5.50781 15.0879 5.88379 15.0928Q6.25977 15.0977 6.50391 14.8242ZM28.5156 14.8242Q28.7598 15.0977 29.1357 15.0928Q29.5117 15.0879 29.7754 14.7559Q30.4102 13.9648 30.7617 12.9834Q31.1133 12.002 31.1133 10.9277Q31.1133 9.85352 30.7617 8.87207Q30.4102 7.89062 29.7754 7.09961Q29.5117 6.76758 29.1357 6.7627Q28.7598 6.75781 28.5156 7.03125Q28.2812 7.29492 28.3496 7.60742Q28.418 7.91992 28.6426 8.24219Q29.082 8.78906 29.3018 9.47754Q29.5215 10.166 29.5215 10.9277Q29.5215 11.6895 29.3018 12.3779Q29.082 13.0664 28.6426 13.6133Q28.418 13.9258 28.3496 14.2432Q28.2812 14.5605 28.5156 14.8242Z" fill="#007aff"/>
  <path d="M3.76953 17.6074Q4.00391 17.3438 3.9502 17.0215Q3.89648 16.6992 3.63281 16.3965Q2.64648 15.3027 2.11914 13.9014Q1.5918 12.5 1.5918 10.9277Q1.5918 9.3457 2.11914 7.94922Q2.64648 6.55273 3.63281 5.45898Q3.89648 5.15625 3.9502 4.83398Q4.00391 4.51172 3.76953 4.24805Q3.53516 3.97461 3.17871 3.97949Q2.82227 3.98438 2.53906 4.29688Q1.31836 5.61523 0.65918 7.32422Q0 9.0332 0 10.9277Q0 12.8223 0.65918 14.5264Q1.31836 16.2305 2.53906 17.5586Q2.82227 17.8613 3.17871 17.8711Q3.53516 17.8809 3.76953 17.6074ZM31.25 17.6074Q31.4941 17.8809 31.8506 17.8711Q32.207 17.8613 32.4902 17.5586Q33.7109 16.2305 34.3701 14.5264Q35.0293 12.8223 35.0293 10.9277Q35.0293 9.0332 34.3701 7.32422Q33.7109 5.61523 32.4902 4.29688Q32.207 3.98438 31.8506 3.97949Q31.4941 3.97461 31.25 4.24805Q31.0156 4.51172 31.0693 4.83398Q31.123 5.15625 31.3965 5.45898Q32.373 6.55273 32.9053 7.94922Q33.4375 9.3457 33.4375 10.9277Q33.4375 12.5 32.9053 13.9014Q32.373 15.3027 31.3965 16.3965Q31.123 16.6992 31.0693 17.0215Q31.0156 17.3438 31.25 17.6074Z" fill="#007aff"/>
 </g>
</svg>
