<?xml version="1.0" encoding="UTF-8"?>
<!--Generator: Apple Native CoreSVG 175-->
<!DOCTYPE svg
PUBLIC "-//W3C//DTD SVG 1.1//EN"
       "http://www.w3.org/Graphics/SVG/1.1/DTD/svg11.dtd">
<svg version="1.1" xmlns="http://www.w3.org/2000/svg" xmlns:xlink="http://www.w3.org/1999/xlink" width="21.0266" height="19.8364">
 <g>
  <rect height="19.8364" opacity="0" width="21.0266" x="0" y="0"/>
  <path d="M3.69843 19.8349L8.09448 19.8349Q8.76526 19.8349 9.1629 19.4359Q9.56055 19.0369 9.56055 18.3578L9.56055 4.12704Q9.56055 3.44803 9.1629 3.05252Q8.76526 2.65701 8.09448 2.65701L3.69843 2.65701Q3.01804 2.65701 2.6252 3.05252Q2.23236 3.44803 2.23236 4.12704L2.23236 18.3578Q2.23236 19.0369 2.6252 19.4359Q3.01804 19.8349 3.69843 19.8349ZM12.9727 13.4552L17.3688 13.4552Q18.0466 13.4552 18.4407 13.0583Q18.8348 12.6614 18.8348 11.9781L18.8348 4.12704Q18.8348 3.44803 18.4407 3.05252Q18.0466 2.65701 17.3688 2.65701L12.9727 2.65701Q12.3019 2.65701 11.9043 3.05252Q11.5067 3.44803 11.5067 4.12704L11.5067 11.9781Q11.5067 12.6614 11.9043 13.0583Q12.3019 13.4552 12.9727 13.4552Z" fill="#007aff"/>
  <path d="M0.33905 0.697327L20.6833 0.697327Q20.8258 0.697327 20.9262 0.593567Q21.0266 0.489807 21.0266 0.34729Q21.0266 0.204773 20.9262 0.102386Q20.8258 0 20.6833 0L0.33905 0Q0.200806 0 0.100403 0.102386Q0 0.204773 0 0.34729Q0 0.489807 0.100403 0.593567Q0.200806 0.697327 0.33905 0.697327Z" fill="#ffffff"/>
 </g>
</svg>
