<?xml version="1.0" encoding="UTF-8"?>
<!--Generator: Apple Native CoreSVG 175.5-->
<!DOCTYPE svg
PUBLIC "-//W3C//DTD SVG 1.1//EN"
       "http://www.w3.org/Graphics/SVG/1.1/DTD/svg11.dtd">
<svg version="1.1" xmlns="http://www.w3.org/2000/svg" xmlns:xlink="http://www.w3.org/1999/xlink" width="22.6367" height="22.041">
 <g>
  <rect height="22.041" opacity="0" width="22.6367" x="0" y="0"/>
  <path d="M4.78516 18.7793L8.18359 18.7793Q9.24805 18.7793 9.81445 18.2031Q10.3809 17.627 10.3809 16.543L10.3809 2.25586Q10.3809 1.17188 9.81445 0.595703Q9.24805 0.0195312 8.18359 0.0195312L4.78516 0.0195312Q3.7207 0.0195312 3.1543 0.595703Q2.58789 1.17188 2.58789 2.25586L2.58789 16.543Q2.58789 17.627 3.1543 18.2031Q3.7207 18.7793 4.78516 18.7793ZM4.87305 17.3047Q4.48242 17.3047 4.27246 17.0996Q4.0625 16.8945 4.0625 16.5137L4.0625 2.28516Q4.0625 1.9043 4.27246 1.69922Q4.48242 1.49414 4.87305 1.49414L8.0957 1.49414Q8.49609 1.49414 8.70117 1.69922Q8.90625 1.9043 8.90625 2.28516L8.90625 16.5137Q8.90625 16.8945 8.70117 17.0996Q8.49609 17.3047 8.0957 17.3047ZM14.4727 18.7793L17.8711 18.7793Q18.9355 18.7793 19.502 18.2031Q20.0684 17.627 20.0684 16.543L20.0684 9.16992Q20.0684 8.08594 19.502 7.50977Q18.9355 6.93359 17.8711 6.93359L14.4727 6.93359Q13.3984 6.93359 12.832 7.50977Q12.2656 8.08594 12.2656 9.16992L12.2656 16.543Q12.2656 17.627 12.832 18.2031Q13.3984 18.7793 14.4727 18.7793ZM14.5508 17.3047Q14.1602 17.3047 13.9502 17.0996Q13.7402 16.8945 13.7402 16.5137L13.7402 9.19922Q13.7402 8.81836 13.9502 8.61328Q14.1602 8.4082 14.5508 8.4082L17.7832 8.4082Q18.1738 8.4082 18.3838 8.61328Q18.5938 8.81836 18.5938 9.19922L18.5938 16.5137Q18.5938 16.8945 18.3838 17.0996Q18.1738 17.3047 17.7832 17.3047Z" fill="#007aff"/>
  <path d="M0.683594 22.041L21.9629 22.041Q22.2461 22.041 22.4414 21.8262Q22.6367 21.6113 22.6367 21.3281Q22.6367 21.0352 22.4414 20.8203Q22.2461 20.6055 21.9629 20.6055L0.683594 20.6055Q0.390625 20.6055 0.195312 20.8203Q0 21.0352 0 21.3281Q0 21.6113 0.195312 21.8262Q0.390625 22.041 0.683594 22.041Z" fill="#ffffff"/>
 </g>
</svg>
