<?xml version="1.0" encoding="UTF-8"?>
<!--Generator: Apple Native CoreSVG 175-->
<!DOCTYPE svg
PUBLIC "-//W3C//DTD SVG 1.1//EN"
       "http://www.w3.org/Graphics/SVG/1.1/DTD/svg11.dtd">
<svg version="1.1" xmlns="http://www.w3.org/2000/svg" xmlns:xlink="http://www.w3.org/1999/xlink" width="19.8294" height="21.0324">
 <g>
  <rect height="21.0324" opacity="0" width="19.8294" x="0" y="0"/>
  <path d="M4.12582 9.52148L11.9769 9.52148Q12.6559 9.52148 13.0515 9.12872Q13.447 8.73596 13.447 8.05542L13.447 3.65936Q13.447 2.98859 13.0515 2.59094Q12.6559 2.1933 11.9769 2.1933L4.12582 2.1933Q3.44269 2.1933 3.04581 2.59094Q2.64893 2.98859 2.64893 3.65936L2.64893 8.05542Q2.64893 8.73596 3.04581 9.12872Q3.44269 9.52148 4.12582 9.52148ZM4.1481 8.82034Q3.7883 8.82034 3.57269 8.60115Q3.35709 8.38196 3.35709 8.01956L3.35709 3.69812Q3.35709 3.33557 3.57269 3.11859Q3.7883 2.90161 4.1481 2.90161L11.9504 2.90161Q12.3074 2.90161 12.5266 3.11859Q12.7457 3.33557 12.7457 3.69812L12.7457 8.01956Q12.7457 8.38196 12.5266 8.60115Q12.3074 8.82034 11.9504 8.82034ZM4.12582 18.8055L18.3496 18.8055Q19.0286 18.8055 19.429 18.4078Q19.8294 18.0101 19.8294 17.3395L19.8294 12.9434Q19.8294 12.2629 19.429 11.8701Q19.0286 11.4774 18.3496 11.4774L4.12582 11.4774Q3.44269 11.4774 3.04581 11.8701Q2.64893 12.2629 2.64893 12.9434L2.64893 17.3395Q2.64893 18.0101 3.04581 18.4078Q3.44269 18.8055 4.12582 18.8055ZM4.1481 18.0972Q3.7883 18.0972 3.57269 17.8802Q3.35709 17.6633 3.35709 17.3007L3.35709 12.9793Q3.35709 12.6169 3.57269 12.3977Q3.7883 12.1785 4.1481 12.1785L18.3301 12.1785Q18.6899 12.1785 18.9055 12.3977Q19.1211 12.6169 19.1211 12.9793L19.1211 17.3007Q19.1211 17.6633 18.9055 17.8802Q18.6899 18.0972 18.3301 18.0972Z" fill="#007aff"/>
  <path d="M0.34729 21.0324Q0.492554 21.0324 0.59494 20.932Q0.697327 20.8316 0.697327 20.6891L0.697327 0.342102Q0.697327 0.206604 0.59494 0.106201Q0.492554 0.00579834 0.34729 0.00579834Q0.204773 0.00579834 0.102386 0.106201Q0 0.206604 0 0.342102L0 20.6891Q0 20.8316 0.102386 20.932Q0.204773 21.0324 0.34729 21.0324Z" fill="#ffffff"/>
 </g>
</svg>
