<?xml version="1.0" encoding="UTF-8"?>
<!--Generator: Apple Native CoreSVG 175.5-->
<!DOCTYPE svg
PUBLIC "-//W3C//DTD SVG 1.1//EN"
       "http://www.w3.org/Graphics/SVG/1.1/DTD/svg11.dtd">
<svg version="1.1" xmlns="http://www.w3.org/2000/svg" xmlns:xlink="http://www.w3.org/1999/xlink" width="20.845" height="7.8418">
 <g>
  <rect height="7.8418" opacity="0" width="20.845" x="0" y="0"/>
  <path d="M19.2067 3.38867Q17.7614 5.56641 15.7399 5.56641Q14.6657 5.56641 13.7917 5.16113Q12.9176 4.75586 12.1413 4.12598Q11.3649 3.49609 10.6081 2.7832Q9.85123 2.07031 9.0358 1.43555Q8.22037 0.800781 7.26822 0.400391Q6.31607 0 5.13443 0Q3.66959 0 2.40982 0.766602Q1.15006 1.5332 0.183261 2.99805Q-0.0218168 3.30078 0.00259724 3.58887Q0.0270113 3.87695 0.202793 4.08203Q0.378574 4.28711 0.63248 4.37012Q0.886386 4.45312 1.15982 4.37012Q1.43326 4.28711 1.64811 3.98438Q3.12271 1.76758 5.13443 1.76758Q6.0524 1.76758 6.83365 2.16797Q7.6149 2.56836 8.33756 3.20312Q9.06021 3.83789 9.80728 4.55078Q10.5544 5.26367 11.4186 5.89355Q12.2829 6.52344 13.3376 6.92871Q14.3922 7.33398 15.7399 7.33398Q17.195 7.33398 18.4499 6.57715Q19.7047 5.82031 20.6618 4.38477Q20.8669 4.08203 20.8424 3.79883Q20.818 3.51562 20.6422 3.30566Q20.4665 3.0957 20.2077 3.00781Q19.9489 2.91992 19.6803 3.00293Q19.4118 3.08594 19.2067 3.38867Z" fill="#ffffff"/>
 </g>
</svg>
