<?xml version="1.0" encoding="UTF-8"?>
<!--Generator: Apple Native CoreSVG 175-->
<!DOCTYPE svg
PUBLIC "-//W3C//DTD SVG 1.1//EN"
       "http://www.w3.org/Graphics/SVG/1.1/DTD/svg11.dtd">
<svg version="1.1" xmlns="http://www.w3.org/2000/svg" xmlns:xlink="http://www.w3.org/1999/xlink" width="19.1602" height="19.1504">
 <g>
  <rect height="19.1504" opacity="0" width="19.1602" x="0" y="0"/>
  <path d="M9.57031 19.1504Q11.5527 19.1504 13.2861 18.4082Q15.0195 17.666 16.3379 16.3428Q17.6562 15.0195 18.4082 13.2861Q19.1602 11.5527 19.1602 9.58008Q19.1602 7.60742 18.4082 5.87402Q17.6562 4.14062 16.3379 2.81738Q15.0195 1.49414 13.2861 0.751953Q11.5527 0.00976562 9.57031 0.00976562Q7.59766 0.00976562 5.86426 0.751953Q4.13086 1.49414 2.81738 2.81738Q1.50391 4.14062 0.751953 5.87402Q0 7.60742 0 9.58008Q0 11.5527 0.74707 13.2861Q1.49414 15.0195 2.8125 16.3428Q4.13086 17.666 5.86914 18.4082Q7.60742 19.1504 9.57031 19.1504Z" fill="#007aff"/>
  <path d="M3.49609 9.16016Q3.49609 8.02734 3.92578 6.98242Q4.35547 5.9375 5.14648 5.12695Q5.26367 5.00977 5.40527 5.00977Q5.54688 5.00977 5.64453 5.11719Q5.72266 5.21484 5.71289 5.35156Q5.70312 5.48828 5.60547 5.5957Q4.89258 6.29883 4.5166 7.22168Q4.14062 8.14453 4.14062 9.16016Q4.14062 11.2793 5.60547 12.7539Q5.83008 12.998 5.64453 13.2129Q5.53711 13.3398 5.40039 13.335Q5.26367 13.3301 5.14648 13.2227Q4.35547 12.4023 3.92578 11.3574Q3.49609 10.3125 3.49609 9.16016ZM5.92773 9.16016Q5.92773 7.80273 6.83594 6.83594Q6.94336 6.71875 7.08984 6.71875Q7.23633 6.71875 7.33398 6.83594Q7.42188 6.93359 7.40234 7.06543Q7.38281 7.19727 7.29492 7.30469Q6.93359 7.72461 6.75293 8.19336Q6.57227 8.66211 6.57227 9.16016Q6.57227 10.3223 7.27539 11.0156Q7.39258 11.1426 7.41211 11.2744Q7.43164 11.4062 7.33398 11.5137Q7.24609 11.6211 7.09473 11.6211Q6.94336 11.6211 6.83594 11.5039Q5.92773 10.5176 5.92773 9.16016ZM8.67188 9.16016Q8.67188 8.7793 8.93555 8.52051Q9.19922 8.26172 9.58008 8.26172Q9.9707 8.26172 10.2344 8.52051Q10.498 8.7793 10.498 9.16016Q10.498 9.46289 10.332 9.69238Q10.166 9.92188 9.90234 10.0098L9.90234 15.918Q9.90234 16.0645 9.81445 16.1621Q9.72656 16.2598 9.58008 16.2598Q9.44336 16.2598 9.35547 16.1621Q9.26758 16.0645 9.26758 15.918L9.26758 10.0098Q9.00391 9.92188 8.83789 9.69238Q8.67188 9.46289 8.67188 9.16016ZM12.5977 9.16016Q12.5977 8.66211 12.417 8.19336Q12.2363 7.72461 11.875 7.30469Q11.7871 7.19727 11.7676 7.06543Q11.748 6.93359 11.8262 6.83594Q11.9336 6.71875 12.0752 6.71875Q12.2168 6.71875 12.334 6.83594Q13.2422 7.80273 13.2422 9.16016Q13.2422 10.5176 12.334 11.5039Q12.2168 11.6211 12.0703 11.6211Q11.9238 11.6211 11.8262 11.5137Q11.6406 11.2793 11.8945 11.0156Q12.2461 10.6738 12.4219 10.21Q12.5977 9.74609 12.5977 9.16016ZM15.0293 9.16016Q15.0293 8.14453 14.6533 7.22168Q14.2773 6.29883 13.5547 5.5957Q13.457 5.48828 13.4521 5.35156Q13.4473 5.21484 13.5254 5.11719Q13.6133 5.00977 13.7598 5.00977Q13.9062 5.00977 14.0137 5.12695Q14.8145 5.9375 15.2441 6.98242Q15.6738 8.02734 15.6738 9.16016Q15.6738 10.3125 15.2441 11.3574Q14.8145 12.4023 14.0137 13.2227Q13.9062 13.3301 13.7646 13.335Q13.623 13.3398 13.5254 13.2129Q13.3398 12.998 13.5547 12.7539Q15.0293 11.2793 15.0293 9.16016Z" fill="#ffffff"/>
 </g>
</svg>
