<?xml version="1.0" encoding="UTF-8"?>
<!--Generator: Apple Native CoreSVG 175-->
<!DOCTYPE svg
PUBLIC "-//W3C//DTD SVG 1.1//EN"
       "http://www.w3.org/Graphics/SVG/1.1/DTD/svg11.dtd">
<svg version="1.1" xmlns="http://www.w3.org/2000/svg" xmlns:xlink="http://www.w3.org/1999/xlink" width="17.0312" height="17.0996">
 <g>
  <rect height="17.0996" opacity="0" width="17.0312" x="0" y="0"/>
  <path d="M1.26953 1.34766Q0.605469 2.01172 0.332031 2.87109Q0.0585938 3.73047 0.0488281 4.56055Q0.0488281 4.69727 0.126953 4.78516Q0.205078 4.87305 0.351562 4.87305Q0.634766 4.87305 0.654297 4.57031Q0.703125 3.86719 0.908203 3.12012Q1.11328 2.37305 1.69922 1.78711Q2.30469 1.19141 3.04688 0.986328Q3.78906 0.78125 4.52148 0.732422Q4.80469 0.712891 4.80469 0.429688Q4.80469 0.302734 4.7168 0.214844Q4.62891 0.126953 4.49219 0.126953Q3.68164 0.136719 2.81738 0.405273Q1.95312 0.673828 1.26953 1.34766ZM11.123 0.0683594L5.9082 0.0683594Q5.78125 0.0683594 5.68848 0.161133Q5.5957 0.253906 5.5957 0.380859Q5.5957 0.507812 5.68848 0.600586Q5.78125 0.693359 5.9082 0.693359L11.123 0.693359Q11.25 0.693359 11.3428 0.600586Q11.4355 0.507812 11.4355 0.380859Q11.4355 0.253906 11.3428 0.161133Q11.25 0.0683594 11.123 0.0683594ZM15.752 1.34766Q15.0781 0.673828 14.2139 0.405273Q13.3496 0.136719 12.5391 0.126953Q12.4023 0.126953 12.3096 0.214844Q12.2168 0.302734 12.2168 0.429688Q12.2168 0.712891 12.5098 0.732422Q13.2422 0.78125 13.9844 0.986328Q14.7266 1.19141 15.332 1.78711Q15.9082 2.37305 16.1182 3.12012Q16.3281 3.86719 16.3672 4.57031Q16.3867 4.87305 16.6797 4.87305Q16.8262 4.87305 16.9043 4.78516Q16.9824 4.69727 16.9824 4.56055Q16.9727 3.73047 16.6943 2.87109Q16.416 2.01172 15.752 1.34766ZM17.0312 11.2012L17.0312 5.97656Q17.0312 5.83984 16.9385 5.75195Q16.8457 5.66406 16.7188 5.66406Q16.5918 5.66406 16.499 5.75195Q16.4062 5.83984 16.4062 5.97656L16.4062 11.2012Q16.4062 11.3281 16.499 11.4209Q16.5918 11.5137 16.7188 11.5137Q16.8457 11.5137 16.9385 11.4209Q17.0312 11.3281 17.0312 11.2012ZM15.752 15.8203Q16.416 15.1465 16.6943 14.292Q16.9727 13.4375 16.9824 12.6074Q16.9824 12.4707 16.9043 12.3779Q16.8262 12.2852 16.6797 12.2852Q16.3867 12.2852 16.3672 12.5879Q16.3281 13.3008 16.1182 14.0479Q15.9082 14.7949 15.332 15.3809Q14.7266 15.9766 13.9795 16.1816Q13.2324 16.3867 12.5098 16.4355Q12.2168 16.4551 12.2168 16.7383Q12.2168 16.8652 12.3096 16.9531Q12.4023 17.041 12.5391 17.041Q13.3496 17.0312 14.2139 16.7578Q15.0781 16.4844 15.752 15.8203ZM5.9082 17.0996L11.123 17.0996Q11.25 17.0996 11.3428 17.0068Q11.4355 16.9141 11.4355 16.7871Q11.4355 16.6602 11.3428 16.5674Q11.25 16.4746 11.123 16.4746L5.9082 16.4746Q5.78125 16.4746 5.68848 16.5674Q5.5957 16.6602 5.5957 16.7871Q5.5957 16.9141 5.68848 17.0068Q5.78125 17.0996 5.9082 17.0996ZM1.26953 15.8203Q1.95312 16.4844 2.81738 16.7578Q3.68164 17.0312 4.49219 17.041Q4.62891 17.041 4.7168 16.9531Q4.80469 16.8652 4.80469 16.7383Q4.80469 16.4551 4.52148 16.4355Q3.78906 16.3867 3.04688 16.1816Q2.30469 15.9766 1.69922 15.3809Q1.11328 14.7949 0.908203 14.0479Q0.703125 13.3008 0.654297 12.5879Q0.634766 12.2852 0.351562 12.2852Q0.205078 12.2852 0.126953 12.3779Q0.0488281 12.4707 0.0488281 12.6074Q0.0585938 13.4375 0.332031 14.292Q0.605469 15.1465 1.26953 15.8203ZM0 5.97656L0 11.2012Q0 11.3281 0.0927734 11.4209Q0.185547 11.5137 0.3125 11.5137Q0.439453 11.5137 0.527344 11.4209Q0.615234 11.3281 0.615234 11.2012L0.615234 5.97656Q0.615234 5.83984 0.527344 5.75195Q0.439453 5.66406 0.3125 5.66406Q0.185547 5.66406 0.0927734 5.75195Q0 5.83984 0 5.97656Z" fill="#007aff"/>
  <path d="M13.9355 3.125Q13.5156 2.68555 12.8809 2.5293Q12.2461 2.37305 11.2109 2.37305L5.69336 2.37305Q4.72656 2.37305 4.10156 2.53906Q3.47656 2.70508 3.04688 3.125Q2.62695 3.55469 2.46582 4.16992Q2.30469 4.78516 2.30469 5.76172L2.30469 11.2695Q2.30469 12.3242 2.46094 12.9492Q2.61719 13.5742 3.04688 13.9941Q3.47656 14.4238 4.10645 14.5801Q4.73633 14.7363 5.77148 14.7363L11.2109 14.7363Q12.2461 14.7363 12.8809 14.5801Q13.5156 14.4238 13.9355 13.9941Q14.3652 13.5742 14.5215 12.9492Q14.6777 12.3242 14.6777 11.2695L14.6777 5.83984Q14.6777 4.79492 14.5215 4.16504Q14.3652 3.53516 13.9355 3.125Z" fill="#ffffff"/>
 </g>
</svg>
