<?xml version="1.0" encoding="UTF-8"?>
<!--Generator: Apple Native CoreSVG 175-->
<!DOCTYPE svg
PUBLIC "-//W3C//DTD SVG 1.1//EN"
       "http://www.w3.org/Graphics/SVG/1.1/DTD/svg11.dtd">
<svg version="1.1" xmlns="http://www.w3.org/2000/svg" xmlns:xlink="http://www.w3.org/1999/xlink" width="19.3547" height="11.041">
 <g>
  <rect height="11.041" opacity="0" width="19.3547" x="0" y="0"/>
  <path d="M2.36328 11.0284L16.9746 11.0284Q18.1242 11.0284 18.7395 10.4191Q19.3547 9.80972 19.3547 8.6438L19.3547 2.37488Q19.3547 1.21872 18.7444 0.60936Q18.134 0 16.9914 0L2.38007 0Q1.23047 0 0.618744 0.60936Q0.00701904 1.21872 0.00701904 2.37488L0 8.6438Q0 9.80972 0.606842 10.4191Q1.21368 11.0284 2.36328 11.0284ZM2.42035 10.307Q1.54617 10.307 1.1409 9.88922Q0.735626 9.47144 0.735626 8.58902L0.735626 2.43942Q0.735626 1.55701 1.14441 1.13922Q1.55319 0.721436 2.42035 0.721436L16.9344 0.721436Q17.8087 0.721436 18.2175 1.13922Q18.6263 1.55701 18.6263 2.43942L18.6192 8.58902Q18.6192 9.47144 18.2104 9.88922Q17.8017 10.307 16.9246 10.307Z" fill="#007aff"/>
  <path d="M2.88437 3.87924L3.77548 3.87924Q4.11987 3.87924 4.11987 3.53897L4.11987 2.66327Q4.11987 2.29645 3.77548 2.29645L2.88437 2.29645Q2.53281 2.29645 2.53281 2.66327L2.53281 3.53897Q2.53281 3.87924 2.88437 3.87924ZM5.41412 3.87924L6.29532 3.87924Q6.64963 3.87924 6.64963 3.53897L6.64963 2.66327Q6.64963 2.29645 6.29532 2.29645L5.41412 2.29645Q5.05981 2.29645 5.05981 2.66327L5.05981 3.53897Q5.05981 3.87924 5.41412 3.87924ZM7.93396 3.87924L8.82233 3.87924Q9.17664 3.87924 9.17664 3.53897L9.17664 2.66327Q9.17664 2.29645 8.82233 2.29645L7.93396 2.29645Q7.58682 2.29645 7.58682 2.66327L7.58682 3.53897Q7.58682 3.87924 7.93396 3.87924ZM10.4539 3.87924L11.3589 3.87924Q11.7035 3.87924 11.7035 3.53897L11.7035 2.66327Q11.7035 2.29645 11.3589 2.29645L10.461 2.29645Q10.1234 2.29645 10.1234 2.66327L10.1234 3.53897Q10.1234 3.87924 10.4539 3.87924ZM2.88437 6.3176L3.77548 6.3176Q4.11987 6.3176 4.11987 5.97733L4.11987 5.10147Q4.11987 4.74182 3.77548 4.74182L2.88437 4.74182Q2.53281 4.74182 2.53281 5.10147L2.53281 5.97733Q2.53281 6.3176 2.88437 6.3176ZM5.41412 6.3176L6.29532 6.3176Q6.64963 6.3176 6.64963 5.97733L6.64963 5.10147Q6.64963 4.74182 6.29532 4.74182L5.41412 4.74182Q5.05981 4.74182 5.05981 5.10147L5.05981 5.97733Q5.05981 6.3176 5.41412 6.3176ZM7.93671 6.3176L8.82233 6.3176Q9.15543 6.3176 9.17938 5.97733L9.17938 5.10147Q9.17938 4.74182 8.82233 4.74182L7.93671 4.74182Q7.60361 4.74182 7.58682 5.10147L7.58682 5.97733Q7.60361 6.3176 7.93671 6.3176ZM15.8305 3.87924L16.7188 3.87924Q17.066 3.87924 17.066 3.53897L17.066 2.66327Q17.066 2.29645 16.7285 2.29645L15.8235 2.29645Q15.493 2.29645 15.493 2.66327L15.493 3.53897Q15.493 3.87924 15.8305 3.87924ZM15.8235 6.3176L16.7285 6.3176Q17.066 6.3176 17.066 5.97733L17.066 5.10147Q17.066 4.74182 16.7285 4.74182L15.8305 4.74182Q15.493 4.74182 15.493 5.10147L15.493 5.97733Q15.493 6.3176 15.8235 6.3176ZM15.8235 8.76007L16.7188 8.76007Q17.066 8.76007 17.066 8.41553L17.066 7.54684Q17.066 7.18002 16.7285 7.18002L15.8305 7.18002Q15.493 7.18002 15.493 7.54684L15.493 8.41553Q15.493 8.76007 15.8235 8.76007Z" fill="#ffffff"/>
 </g>
</svg>
