<?xml version="1.0" encoding="UTF-8"?>
<!--Generator: Apple Native CoreSVG 175.5-->
<!DOCTYPE svg
PUBLIC "-//W3C//DTD SVG 1.1//EN"
       "http://www.w3.org/Graphics/SVG/1.1/DTD/svg11.dtd">
<svg version="1.1" xmlns="http://www.w3.org/2000/svg" xmlns:xlink="http://www.w3.org/1999/xlink" width="25.4492" height="24.248">
 <g>
  <rect height="24.248" opacity="0" width="25.4492" x="0" y="0"/>
  <path d="M10.6055 13.9941Q11.1328 13.9941 11.5576 13.7451Q11.9824 13.4961 12.2363 13.0664Q12.4902 12.6367 12.4902 12.1191Q12.4902 11.6016 12.2363 11.1768Q11.9824 10.752 11.5527 10.498Q11.123 10.2441 10.6055 10.2441Q10.0977 10.2441 9.67285 10.498Q9.24805 10.752 8.98926 11.1816Q8.73047 11.6113 8.73047 12.1191Q8.73047 12.6367 8.98438 13.0615Q9.23828 13.4863 9.66797 13.7402Q10.0977 13.9941 10.6055 13.9941Z" fill="#007aff"/>
  <path d="M10.6055 8.34961Q11.2988 8.34961 11.7773 7.87109Q12.2559 7.39258 12.2559 6.69922Q12.2559 6.02539 11.7725 5.54199Q11.2891 5.05859 10.6055 5.05859Q10.166 5.05859 9.79004 5.2832Q9.41406 5.50781 9.18945 5.88379Q8.96484 6.25977 8.96484 6.69922Q8.96484 7.38281 9.44824 7.86621Q9.93164 8.34961 10.6055 8.34961ZM5.94727 11.0449Q6.64062 11.0449 7.11426 10.5664Q7.58789 10.0879 7.58789 9.4043Q7.58789 8.7207 7.10449 8.24219Q6.62109 7.76367 5.94727 7.76367Q5.49805 7.76367 5.12695 7.98828Q4.75586 8.21289 4.53125 8.58398Q4.30664 8.95508 4.30664 9.4043Q4.30664 10.0781 4.78516 10.5615Q5.26367 11.0449 5.94727 11.0449ZM15.2734 11.0449Q15.9668 11.0449 16.4404 10.5664Q16.9141 10.0879 16.9141 9.4043Q16.9141 8.7207 16.4307 8.24219Q15.9473 7.76367 15.2734 7.76367Q14.8242 7.76367 14.4531 7.98828Q14.082 8.21289 13.8574 8.58398Q13.6328 8.95508 13.6328 9.4043Q13.6328 10.0781 14.1113 10.5615Q14.5898 11.0449 15.2734 11.0449ZM5.94727 16.4746Q6.63086 16.4746 7.10938 15.9961Q7.58789 15.5176 7.58789 14.834Q7.58789 14.1504 7.10449 13.667Q6.62109 13.1836 5.94727 13.1836Q5.49805 13.1836 5.12695 13.4131Q4.75586 13.6426 4.53125 14.0137Q4.30664 14.3848 4.30664 14.834Q4.30664 15.5078 4.79004 15.9912Q5.27344 16.4746 5.94727 16.4746ZM15.2734 16.4746Q15.6641 16.4746 15.9961 16.2988L16.8945 14.6777L16.8945 14.6289Q16.8262 14.0234 16.3623 13.6035Q15.8984 13.1836 15.2734 13.1836Q14.5996 13.1836 14.1162 13.6719Q13.6328 14.1602 13.6328 14.834Q13.6328 15.5078 14.1162 15.9912Q14.5996 16.4746 15.2734 16.4746ZM10.6055 19.1797Q11.2988 19.1797 11.7773 18.7012Q12.2559 18.2227 12.2559 17.5293Q12.2559 16.8555 11.7725 16.3721Q11.2891 15.8887 10.6055 15.8887Q10.166 15.8887 9.79004 16.1133Q9.41406 16.3379 9.18945 16.7139Q8.96484 17.0898 8.96484 17.5293Q8.96484 18.2129 9.44824 18.6963Q9.93164 19.1797 10.6055 19.1797Z" fill="#007aff"/>
  <path d="M10.6055 2.56836Q11.1523 2.56836 11.5234 2.19727Q11.8945 1.82617 11.8945 1.28906Q11.8945 0.751953 11.5186 0.375977Q11.1426 0 10.6055 0Q10.0879 0 9.70703 0.380859Q9.32617 0.761719 9.32617 1.28906Q9.32617 1.81641 9.70215 2.19238Q10.0781 2.56836 10.6055 2.56836ZM5.94727 5.26367Q6.49414 5.26367 6.86035 4.89258Q7.22656 4.52148 7.22656 3.97461Q7.22656 3.4375 6.85547 3.06641Q6.48438 2.69531 5.94727 2.69531Q5.41992 2.69531 5.04395 3.07129Q4.66797 3.44727 4.66797 3.97461Q4.66797 4.51172 5.03906 4.8877Q5.41016 5.26367 5.94727 5.26367ZM15.2734 5.26367Q15.8203 5.26367 16.1865 4.89258Q16.5527 4.52148 16.5527 3.97461Q16.5527 3.4375 16.1816 3.06641Q15.8105 2.69531 15.2734 2.69531Q14.7461 2.69531 14.3701 3.07129Q13.9941 3.44727 13.9941 3.97461Q13.9941 4.51172 14.3652 4.8877Q14.7363 5.26367 15.2734 5.26367ZM1.28906 7.98828Q1.82617 7.98828 2.19727 7.61719Q2.56836 7.24609 2.56836 6.69922Q2.56836 6.17188 2.19238 5.7959Q1.81641 5.41992 1.28906 5.41992Q0.761719 5.41992 0.380859 5.7959Q0 6.17188 0 6.69922Q0 7.23633 0.375977 7.6123Q0.751953 7.98828 1.28906 7.98828ZM19.9023 7.98828Q20.4395 7.98828 20.8105 7.61719Q21.1816 7.24609 21.1816 6.69922Q21.1816 6.16211 20.8105 5.79102Q20.4395 5.41992 19.9023 5.41992Q19.375 5.41992 18.9941 5.80078Q18.6133 6.18164 18.6133 6.69922Q18.6133 7.23633 18.9893 7.6123Q19.3652 7.98828 19.9023 7.98828ZM1.28906 13.3984Q1.82617 13.3984 2.19727 13.0273Q2.56836 12.6562 2.56836 12.1191Q2.56836 11.582 2.19238 11.2109Q1.81641 10.8398 1.28906 10.8398Q0.761719 10.8398 0.380859 11.2158Q0 11.5918 0 12.1191Q0 12.6562 0.375977 13.0273Q0.751953 13.3984 1.28906 13.3984ZM21.0742 12.627Q21.1816 12.3633 21.1816 12.1191Q21.1816 11.582 20.8105 11.2109Q20.4395 10.8398 19.9023 10.8398Q19.375 10.8398 18.9941 11.2158Q18.6133 11.5918 18.6133 12.1191Q18.6133 12.3633 18.7207 12.6172Q19.2871 12.3438 19.9023 12.3438Q20.5176 12.3438 21.0742 12.627ZM1.28906 18.8184Q1.82617 18.8184 2.19727 18.4473Q2.56836 18.0762 2.56836 17.5293Q2.56836 17.002 2.19238 16.626Q1.81641 16.25 1.28906 16.25Q0.761719 16.25 0.380859 16.6309Q0 17.0117 0 17.5293Q0 18.0664 0.375977 18.4424Q0.751953 18.8184 1.28906 18.8184ZM5.94727 21.543Q6.49414 21.543 6.86035 21.1719Q7.22656 20.8008 7.22656 20.2637Q7.22656 19.7266 6.85547 19.3506Q6.48438 18.9746 5.94727 18.9746Q5.41992 18.9746 5.04395 19.3555Q4.66797 19.7363 4.66797 20.2637Q4.66797 20.791 5.03906 21.167Q5.41016 21.543 5.94727 21.543ZM10.6055 24.2285Q11.1523 24.2285 11.5234 23.8623Q11.8945 23.4961 11.8945 22.9492Q11.8945 22.4121 11.5186 22.041Q11.1426 21.6699 10.6055 21.6699Q10.0879 21.6699 9.70703 22.0459Q9.32617 22.4219 9.32617 22.9492Q9.32617 23.4863 9.70215 23.8574Q10.0781 24.2285 10.6055 24.2285Z" fill="#007aff"/>
  <path d="M15.6641 23.8672L24.1211 23.8672Q24.7266 23.8672 25.0879 23.4912Q25.4492 23.1152 25.4492 22.5586Q25.4492 22.2168 25.2637 21.9043L21.0254 14.3457Q20.8398 14.0137 20.5322 13.8477Q20.2246 13.6816 19.9023 13.6816Q19.5605 13.6816 19.248 13.8477Q18.9355 14.0137 18.7598 14.3457L14.5312 21.9141Q14.3457 22.2168 14.3457 22.5586Q14.3457 23.1152 14.7021 23.4912Q15.0586 23.8672 15.6641 23.8672Z" fill="#ffffff"/>
  <path d="M19.8926 22.3828Q19.5605 22.3828 19.3164 22.1387Q19.0723 21.8945 19.0723 21.5527Q19.0723 21.2207 19.3164 20.9766Q19.5605 20.7324 19.8926 20.7324Q20.2441 20.7324 20.4834 20.9766Q20.7227 21.2207 20.7227 21.5527Q20.7227 21.8945 20.4785 22.1387Q20.2344 22.3828 19.8926 22.3828ZM19.9023 20.0488Q19.6387 20.0488 19.4775 19.8926Q19.3164 19.7363 19.3066 19.4824L19.2285 16.6992Q19.2188 16.3965 19.4043 16.2109Q19.5898 16.0254 19.9023 16.0254Q20.2051 16.0254 20.3906 16.2109Q20.5762 16.3965 20.5664 16.6992L20.4883 19.4824Q20.4785 19.7363 20.3174 19.8926Q20.1562 20.0488 19.9023 20.0488Z" fill="none"/>
 </g>
</svg>
