<?xml version="1.0" encoding="UTF-8"?>
<!--Generator: Apple Native CoreSVG 175-->
<!DOCTYPE svg
PUBLIC "-//W3C//DTD SVG 1.1//EN"
       "http://www.w3.org/Graphics/SVG/1.1/DTD/svg11.dtd">
<svg version="1.1" xmlns="http://www.w3.org/2000/svg" xmlns:xlink="http://www.w3.org/1999/xlink" width="19.1602" height="19.1504">
 <g>
  <rect height="19.1504" opacity="0" width="19.1602" x="0" y="0"/>
  <path d="M9.57031 19.1406Q11.5527 19.1406 13.2861 18.3984Q15.0195 17.6562 16.3379 16.333Q17.6562 15.0098 18.4082 13.2764Q19.1602 11.543 19.1602 9.57031Q19.1602 7.59766 18.4082 5.86426Q17.6562 4.13086 16.3379 2.80762Q15.0195 1.48438 13.2861 0.742188Q11.5527 0 9.57031 0Q7.59766 0 5.86426 0.742188Q4.13086 1.48438 2.81738 2.80762Q1.50391 4.13086 0.751953 5.86426Q0 7.59766 0 9.57031Q0 11.543 0.74707 13.2764Q1.49414 15.0098 2.8125 16.333Q4.13086 17.6562 5.86914 18.3984Q7.60742 19.1406 9.57031 19.1406ZM9.57031 18.3984Q7.74414 18.3984 6.14746 17.71Q4.55078 17.0215 3.33496 15.8105Q2.11914 14.5996 1.43555 12.998Q0.751953 11.3965 0.751953 9.57031Q0.751953 7.74414 1.43555 6.14258Q2.11914 4.54102 3.33496 3.3252Q4.55078 2.10938 6.14746 1.4209Q7.74414 0.732422 9.57031 0.732422Q11.4062 0.732422 13.0029 1.4209Q14.5996 2.10938 15.8154 3.3252Q17.0312 4.54102 17.7197 6.14258Q18.4082 7.74414 18.4082 9.57031Q18.4082 11.3965 17.7246 12.998Q17.041 14.5996 15.8252 15.8105Q14.6094 17.0215 13.0078 17.71Q11.4062 18.3984 9.57031 18.3984Z" fill="#007aff"/>
  <path d="M5.44922 9.01367Q5.5957 9.01367 5.69336 8.91602Q5.79102 8.81836 5.79102 8.67188L5.79102 7.94922L5.76172 6.18164L8.41797 8.90625Q8.52539 9.02344 8.67676 9.02344Q8.82812 9.02344 8.93555 8.90625Q9.0332 8.79883 9.0332 8.65234Q9.0332 8.50586 8.93555 8.39844L6.21094 5.74219L7.85156 5.76172L8.70117 5.78125Q8.83789 5.78125 8.94043 5.67871Q9.04297 5.57617 9.04297 5.42969Q9.04297 5.29297 8.94043 5.19531Q8.83789 5.09766 8.70117 5.09766L5.46875 5.09766Q5.3125 5.09766 5.20996 5.19043Q5.10742 5.2832 5.10742 5.45898L5.10742 8.67188Q5.10742 8.81836 5.20508 8.91602Q5.30273 9.01367 5.44922 9.01367ZM10.4492 14.0234L13.6719 14.0234Q13.8379 14.0234 13.9404 13.9307Q14.043 13.8379 14.043 13.6621L14.043 10.4395Q14.043 10.293 13.9453 10.1953Q13.8477 10.0977 13.7012 10.0977Q13.5547 10.0977 13.457 10.1953Q13.3594 10.293 13.3594 10.4395L13.3594 11.1719L13.3887 12.9395L10.7324 10.2051Q10.625 10.0977 10.4736 10.0977Q10.3223 10.0977 10.2148 10.2051Q10.1172 10.3125 10.1172 10.459Q10.1172 10.6055 10.2148 10.7129L12.9395 13.3691L11.2988 13.3496L10.4492 13.3301Q10.3125 13.3301 10.21 13.4375Q10.1074 13.5449 10.1074 13.6719Q10.1074 13.8184 10.21 13.9209Q10.3125 14.0234 10.4492 14.0234Z" fill="#ffffff"/>
 </g>
</svg>
