<?xml version="1.0" encoding="UTF-8"?>
<!--Generator: Apple Native CoreSVG 175.5-->
<!DOCTYPE svg
PUBLIC "-//W3C//DTD SVG 1.1//EN"
       "http://www.w3.org/Graphics/SVG/1.1/DTD/svg11.dtd">
<svg version="1.1" xmlns="http://www.w3.org/2000/svg" xmlns:xlink="http://www.w3.org/1999/xlink" width="19.9219" height="19.9316">
 <g>
  <rect height="19.9316" opacity="0" width="19.9219" x="0" y="0"/>
  <path d="M9.96094 19.9219Q12.002 19.9219 13.8037 19.1406Q15.6055 18.3594 16.9824 16.9824Q18.3594 15.6055 19.1406 13.8037Q19.9219 12.002 19.9219 9.96094Q19.9219 7.91992 19.1406 6.11816Q18.3594 4.31641 16.9824 2.93945Q15.6055 1.5625 13.7988 0.78125Q11.9922 0 9.95117 0Q7.91016 0 6.1084 0.78125Q4.30664 1.5625 2.93457 2.93945Q1.5625 4.31641 0.78125 6.11816Q0 7.91992 0 9.96094Q0 12.002 0.78125 13.8037Q1.5625 15.6055 2.93945 16.9824Q4.31641 18.3594 6.11816 19.1406Q7.91992 19.9219 9.96094 19.9219ZM9.96094 18.2617Q8.23242 18.2617 6.72852 17.6172Q5.22461 16.9727 4.08691 15.835Q2.94922 14.6973 2.30957 13.1934Q1.66992 11.6895 1.66992 9.96094Q1.66992 8.23242 2.30957 6.72852Q2.94922 5.22461 4.08203 4.08203Q5.21484 2.93945 6.71875 2.2998Q8.22266 1.66016 9.95117 1.66016Q11.6797 1.66016 13.1885 2.2998Q14.6973 2.93945 15.835 4.08203Q16.9727 5.22461 17.6172 6.72852Q18.2617 8.23242 18.2617 9.96094Q18.2617 11.6895 17.6221 13.1934Q16.9824 14.6973 15.8398 15.835Q14.6973 16.9727 13.1934 17.6172Q11.6895 18.2617 9.96094 18.2617Z" fill="#007aff"/>
  <path d="M9.94141 13.0664Q10.2051 13.0664 10.4297 12.8418L13.7305 9.48242Q13.8477 9.375 13.8965 9.24805Q13.9453 9.12109 13.9453 8.98438Q13.9453 8.7207 13.7695 8.53516Q13.5938 8.34961 13.3203 8.34961Q13.1934 8.34961 13.0664 8.39355Q12.9395 8.4375 12.8418 8.54492L12.2266 9.16016L10.4883 11.1328L10.5859 9.35547L10.5859 4.87305Q10.5859 4.58984 10.4004 4.4043Q10.2148 4.21875 9.94141 4.21875Q9.63867 4.21875 9.45801 4.4043Q9.27734 4.58984 9.27734 4.87305L9.27734 9.35547L9.39453 11.1426L7.61719 9.16016L7.05078 8.54492Q6.96289 8.4375 6.8457 8.39355Q6.72852 8.34961 6.58203 8.34961Q6.29883 8.34961 6.12305 8.53027Q5.94727 8.71094 5.94727 8.99414Q5.94727 9.10156 6.00586 9.24316Q6.06445 9.38477 6.15234 9.47266L9.45312 12.8418Q9.6582 13.0664 9.94141 13.0664ZM6.2793 15.127L13.6133 15.127Q13.8965 15.127 14.0771 14.9365Q14.2578 14.7461 14.2578 14.4629Q14.2578 14.1797 14.0771 13.999Q13.8965 13.8184 13.6133 13.8184L6.2793 13.8184Q5.99609 13.8184 5.81543 13.999Q5.63477 14.1797 5.63477 14.4629Q5.63477 14.7461 5.81543 14.9365Q5.99609 15.127 6.2793 15.127Z" fill="#ffffff"/>
 </g>
</svg>
