<?xml version="1.0" encoding="UTF-8"?>
<!--Generator: Apple Native CoreSVG 175.5-->
<!DOCTYPE svg
PUBLIC "-//W3C//DTD SVG 1.1//EN"
       "http://www.w3.org/Graphics/SVG/1.1/DTD/svg11.dtd">
<svg version="1.1" xmlns="http://www.w3.org/2000/svg" xmlns:xlink="http://www.w3.org/1999/xlink" width="17.9785" height="17.998">
 <g>
  <rect height="17.998" opacity="0" width="17.9785" x="0" y="0"/>
  <path d="M3.06641 17.998L14.9121 17.998Q16.4453 17.998 17.2119 17.2412Q17.9785 16.4844 17.9785 14.9707L17.9785 3.04688Q17.9785 1.5332 17.2119 0.776367Q16.4453 0.0195312 14.9121 0.0195312L3.06641 0.0195312Q1.5332 0.0195312 0.766602 0.776367Q0 1.5332 0 3.04688L0 14.9707Q0 16.4844 0.766602 17.2412Q1.5332 17.998 3.06641 17.998ZM3.08594 16.4258Q2.35352 16.4258 1.96289 16.04Q1.57227 15.6543 1.57227 14.8926L1.57227 3.125Q1.57227 2.36328 1.96289 1.97754Q2.35352 1.5918 3.08594 1.5918L14.8926 1.5918Q15.6152 1.5918 16.0107 1.97754Q16.4062 2.36328 16.4062 3.125L16.4062 14.8926Q16.4062 15.6543 16.0107 16.04Q15.6152 16.4258 14.8926 16.4258Z" fill="#007aff"/>
  <path d="M5.50781 4.43359L3.0957 6.89453Q2.90039 7.11914 2.90039 7.34375Q2.90039 7.61719 3.08105 7.79785Q3.26172 7.97852 3.52539 7.97852Q3.7793 7.97852 3.97461 7.7832L4.98047 6.73828L5.35156 6.33789L5.33203 6.81641L5.33203 13.1445Q5.33203 13.4082 5.5127 13.584Q5.69336 13.7598 5.9668 13.7598Q6.24023 13.7598 6.4209 13.584Q6.60156 13.4082 6.60156 13.1445L6.60156 6.80664L6.58203 6.33789L6.95312 6.73828L7.95898 7.79297Q8.14453 7.97852 8.4082 7.97852Q8.67188 7.97852 8.84766 7.80273Q9.02344 7.62695 9.02344 7.34375Q9.02344 7.08008 8.82812 6.89453L6.42578 4.43359Q6.25 4.25781 5.98633 4.23828Q5.72266 4.21875 5.50781 4.43359ZM12.4902 13.5742L14.8828 11.123Q15.0879 10.918 15.0879 10.6641Q15.0879 10.3906 14.9121 10.2148Q14.7363 10.0391 14.4531 10.0391Q14.1797 10.0391 14.0137 10.2246L13.0078 11.2598L12.6367 11.6602L12.6562 11.2012L12.6562 4.86328Q12.6562 4.58984 12.4707 4.41406Q12.2852 4.23828 12.0215 4.23828Q11.748 4.23828 11.5625 4.41895Q11.377 4.59961 11.377 4.86328L11.377 11.2109L11.4062 11.6699L11.0254 11.2598L10.0195 10.2246Q9.83398 10.0391 9.58008 10.0391Q9.29688 10.0391 9.12598 10.21Q8.95508 10.3809 8.95508 10.6641Q8.95508 10.9082 9.14062 11.123L11.543 13.5742Q11.7188 13.75 12.002 13.7646Q12.2852 13.7793 12.4902 13.5742Z" fill="#ffffff"/>
 </g>
</svg>
