<?xml version="1.0" encoding="UTF-8"?>
<!--Generator: Apple Native CoreSVG 175.5-->
<!DOCTYPE svg
PUBLIC "-//W3C//DTD SVG 1.1//EN"
       "http://www.w3.org/Graphics/SVG/1.1/DTD/svg11.dtd">
<svg version="1.1" xmlns="http://www.w3.org/2000/svg" xmlns:xlink="http://www.w3.org/1999/xlink" width="18.3301" height="15.4395">
 <g>
  <rect height="15.4395" opacity="0" width="18.3301" x="0" y="0"/>
  <path d="M17.4121 15.4395Q17.666 15.4395 17.8369 15.3369Q18.0078 15.2344 18.1055 15.0684Q18.2031 14.9023 18.252 14.707Q18.3008 14.4824 18.3154 14.1357Q18.3301 13.7891 18.3301 13.3594Q18.3301 9.81445 16.8066 8.20801Q15.2832 6.60156 11.8066 6.60156L4.98047 6.60156L2.58789 6.73828L5.87891 3.73047L8.04688 1.52344Q8.16406 1.40625 8.22266 1.24512Q8.28125 1.08398 8.28125 0.908203Q8.28125 0.546875 8.03711 0.307617Q7.79297 0.0683594 7.43164 0.0683594Q7.08008 0.0683594 6.76758 0.361328L0.302734 6.81641Q0 7.09961 0 7.4707Q0 7.8418 0.302734 8.13477L6.78711 14.6094Q7.08008 14.8828 7.43164 14.8828Q7.79297 14.8828 8.03711 14.6436Q8.28125 14.4043 8.28125 14.043Q8.28125 13.8672 8.22266 13.7012Q8.16406 13.5352 8.04688 13.418L5.87891 11.2109L2.57812 8.20312L4.98047 8.34961L11.7188 8.34961Q13.5156 8.34961 14.5752 8.86719Q15.6348 9.38477 16.0986 10.5078Q16.5625 11.6309 16.5625 13.4473Q16.5625 13.7891 16.5527 14.0527Q16.543 14.3164 16.543 14.5703Q16.543 14.9512 16.7871 15.1953Q17.0312 15.4395 17.4121 15.4395Z" fill="#ffffff"/>
 </g>
</svg>
