<?xml version="1.0" encoding="UTF-8"?>
<!--Generator: Apple Native CoreSVG 175-->
<!DOCTYPE svg
PUBLIC "-//W3C//DTD SVG 1.1//EN"
       "http://www.w3.org/Graphics/SVG/1.1/DTD/svg11.dtd">
<svg version="1.1" xmlns="http://www.w3.org/2000/svg" xmlns:xlink="http://www.w3.org/1999/xlink" width="19.1602" height="19.1504">
 <g>
  <rect height="19.1504" opacity="0" width="19.1602" x="0" y="0"/>
  <path d="M9.57031 19.1406Q11.5527 19.1406 13.2861 18.3984Q15.0195 17.6562 16.3379 16.333Q17.6562 15.0098 18.4082 13.2764Q19.1602 11.543 19.1602 9.57031Q19.1602 7.59766 18.4082 5.86426Q17.6562 4.13086 16.3379 2.80762Q15.0195 1.48438 13.2861 0.742188Q11.5527 0 9.57031 0Q7.59766 0 5.86426 0.742188Q4.13086 1.48438 2.81738 2.80762Q1.50391 4.13086 0.751953 5.86426Q0 7.59766 0 9.57031Q0 11.543 0.74707 13.2764Q1.49414 15.0098 2.8125 16.333Q4.13086 17.6562 5.86914 18.3984Q7.60742 19.1406 9.57031 19.1406ZM9.57031 18.3984Q7.74414 18.3984 6.14746 17.71Q4.55078 17.0215 3.33496 15.8105Q2.11914 14.5996 1.43555 12.998Q0.751953 11.3965 0.751953 9.57031Q0.751953 7.74414 1.43555 6.14258Q2.11914 4.54102 3.33496 3.3252Q4.55078 2.10938 6.14746 1.4209Q7.74414 0.732422 9.57031 0.732422Q11.4062 0.732422 13.0029 1.4209Q14.5996 2.10938 15.8154 3.3252Q17.0312 4.54102 17.7197 6.14258Q18.4082 7.74414 18.4082 9.57031Q18.4082 11.3965 17.7246 12.998Q17.041 14.5996 15.8252 15.8105Q14.6094 17.0215 13.0078 17.71Q11.4062 18.3984 9.57031 18.3984Z" fill="#007aff"/>
  <path d="M9.58008 4.0625Q9.43359 4.0625 9.31641 4.16992L6.40625 7.09961Q6.35742 7.14844 6.32324 7.21191Q6.28906 7.27539 6.28906 7.35352Q6.28906 7.50977 6.38672 7.59766Q6.48438 7.68555 6.61133 7.68555Q6.69922 7.68555 6.7627 7.65137Q6.82617 7.61719 6.875 7.55859L8.02734 6.40625L9.25781 5.15625L9.21875 6.62109L9.21875 12.4902L9.25781 13.9551L8.02734 12.7051L6.875 11.5527Q6.82617 11.4941 6.7627 11.46Q6.69922 11.4258 6.61133 11.4258Q6.48438 11.4258 6.38672 11.5137Q6.28906 11.6016 6.28906 11.7578Q6.28906 11.8359 6.32324 11.8994Q6.35742 11.9629 6.40625 12.0117L9.31641 14.9414Q9.43359 15.0488 9.58008 15.0488Q9.7168 15.0488 9.83398 14.9414L12.7539 12.0117Q12.8027 11.9629 12.832 11.8994Q12.8613 11.8359 12.8613 11.7578Q12.8613 11.6016 12.7686 11.5137Q12.6758 11.4258 12.5391 11.4258Q12.4512 11.4258 12.3877 11.46Q12.3242 11.4941 12.2754 11.5527L11.123 12.7051L9.89258 13.9551L9.93164 12.4902L9.93164 6.62109L9.89258 5.15625L11.123 6.40625L12.2754 7.55859Q12.3242 7.61719 12.3877 7.65137Q12.4512 7.68555 12.5391 7.68555Q12.6758 7.68555 12.7686 7.59766Q12.8613 7.50977 12.8613 7.35352Q12.8613 7.27539 12.832 7.21191Q12.8027 7.14844 12.7539 7.09961L9.83398 4.16992Q9.7168 4.0625 9.58008 4.0625Z" fill="#ffffff"/>
 </g>
</svg>
