<?xml version="1.0" encoding="UTF-8"?>
<!--Generator: Apple Native CoreSVG 175-->
<!DOCTYPE svg
PUBLIC "-//W3C//DTD SVG 1.1//EN"
       "http://www.w3.org/Graphics/SVG/1.1/DTD/svg11.dtd">
<svg version="1.1" xmlns="http://www.w3.org/2000/svg" xmlns:xlink="http://www.w3.org/1999/xlink" width="23.2031" height="16.8262">
 <g>
  <rect height="16.8262" opacity="0" width="23.2031" x="0" y="0"/>
  <path d="M18.3789 15.7422Q19.4043 15.7422 20.2783 15.415Q21.1523 15.0879 21.8066 14.5068Q22.4609 13.9258 22.832 13.1445Q23.2031 12.3633 23.2031 11.4551Q23.2031 10.498 22.8613 9.65332Q22.5195 8.80859 21.8604 8.16895Q21.2012 7.5293 20.2148 7.2168Q20.2734 5.66406 19.7949 4.3457Q19.3164 3.02734 18.4229 2.05078Q17.5293 1.07422 16.3232 0.537109Q15.1172 0 13.7109 0Q12.373 0 11.333 0.449219Q10.293 0.898438 9.53125 1.64551Q8.76953 2.39258 8.28125 3.29102Q7.44141 2.93945 6.5918 3.06641Q5.74219 3.19336 5.03418 3.70605Q4.32617 4.21875 3.90137 5.00977Q3.47656 5.80078 3.49609 6.78711Q2.45117 6.86523 1.66504 7.42676Q0.878906 7.98828 0.439453 8.90137Q0 9.81445 0 10.957Q0 11.9531 0.400391 12.8223Q0.800781 13.6914 1.52344 14.3457Q2.24609 15 3.21777 15.3613Q4.18945 15.7227 5.33203 15.7227Z" fill="#007aff"/>
  <path d="M15.8496 9.12109Q15.8496 10.166 15.3516 11.0156Q14.8535 11.8652 14.0088 12.3633Q13.1641 12.8613 12.1094 12.8613Q11.0742 12.8613 10.2295 12.3633Q9.38477 11.8652 8.8916 11.0205Q8.39844 10.1758 8.39844 9.12109Q8.39844 8.99414 8.49121 8.90625Q8.58398 8.81836 8.71094 8.81836Q8.84766 8.81836 8.93555 8.90625Q9.02344 8.99414 9.02344 9.12109Q9.02344 9.99023 9.43848 10.6982Q9.85352 11.4062 10.5566 11.8213Q11.2598 12.2363 12.1094 12.2363Q12.9883 12.2363 13.6865 11.8213Q14.3848 11.4062 14.7998 10.6982Q15.2148 9.99023 15.2148 9.12109Q15.2148 8.26172 14.7998 7.56348Q14.3848 6.86523 13.6865 6.45508Q12.9883 6.04492 12.1094 6.04492Q11.5527 6.04492 11.1523 6.14258L12.6172 7.60742Q12.7441 7.73438 12.7441 7.89062Q12.7441 8.01758 12.6562 8.10059Q12.5684 8.18359 12.4316 8.18359Q12.3047 8.18359 12.2168 8.10547L10.3613 6.18164Q10.2734 6.08398 10.2637 5.93262Q10.2539 5.78125 10.3613 5.67383L12.1777 3.79883Q12.2266 3.73047 12.2998 3.69629Q12.373 3.66211 12.4414 3.66211Q12.5781 3.66211 12.666 3.75Q12.7539 3.83789 12.7539 3.98438Q12.7539 4.04297 12.7295 4.10156Q12.7051 4.16016 12.6562 4.21875L11.3965 5.48828Q11.5625 5.45898 11.7578 5.44434Q11.9531 5.42969 12.1582 5.42969Q13.1738 5.42969 14.0137 5.91797Q14.8535 6.40625 15.3516 7.24609Q15.8496 8.08594 15.8496 9.12109Z" fill="#ffffff"/>
 </g>
</svg>
