<?xml version="1.0" encoding="UTF-8"?>
<!--Generator: Apple Native CoreSVG 175.5-->
<!DOCTYPE svg
PUBLIC "-//W3C//DTD SVG 1.1//EN"
       "http://www.w3.org/Graphics/SVG/1.1/DTD/svg11.dtd">
<svg version="1.1" xmlns="http://www.w3.org/2000/svg" xmlns:xlink="http://www.w3.org/1999/xlink" width="19.9219" height="19.9316">
 <g>
  <rect height="19.9316" opacity="0" width="19.9219" x="0" y="0"/>
  <path d="M9.96094 19.9219Q12.002 19.9219 13.8037 19.1406Q15.6055 18.3594 16.9824 16.9824Q18.3594 15.6055 19.1406 13.8037Q19.9219 12.002 19.9219 9.96094Q19.9219 7.91992 19.1406 6.11816Q18.3594 4.31641 16.9824 2.93945Q15.6055 1.5625 13.7988 0.78125Q11.9922 0 9.95117 0Q7.91016 0 6.1084 0.78125Q4.30664 1.5625 2.93457 2.93945Q1.5625 4.31641 0.78125 6.11816Q0 7.91992 0 9.96094Q0 12.002 0.78125 13.8037Q1.5625 15.6055 2.93945 16.9824Q4.31641 18.3594 6.11816 19.1406Q7.91992 19.9219 9.96094 19.9219ZM9.96094 18.2617Q8.23242 18.2617 6.72852 17.6172Q5.22461 16.9727 4.08691 15.835Q2.94922 14.6973 2.30957 13.1934Q1.66992 11.6895 1.66992 9.96094Q1.66992 8.23242 2.30957 6.72852Q2.94922 5.22461 4.08203 4.08203Q5.21484 2.93945 6.71875 2.2998Q8.22266 1.66016 9.95117 1.66016Q11.6797 1.66016 13.1885 2.2998Q14.6973 2.93945 15.835 4.08203Q16.9727 5.22461 17.6172 6.72852Q18.2617 8.23242 18.2617 9.96094Q18.2617 11.6895 17.6221 13.1934Q16.9824 14.6973 15.8398 15.835Q14.6973 16.9727 13.1934 17.6172Q11.6895 18.2617 9.96094 18.2617Z" fill="#007aff"/>
  <path d="M5.64453 9.82422L9.02344 9.82422Q9.4043 9.82422 9.61914 9.63867Q9.83398 9.45312 9.83398 9.02344L9.83398 5.625Q9.83398 5.33203 9.63379 5.13184Q9.43359 4.93164 9.14062 4.93164Q8.85742 4.93164 8.65723 5.13184Q8.45703 5.33203 8.45703 5.625L8.45703 6.09375L8.55469 7.64648L6.01562 4.99023Q5.80078 4.76562 5.49316 4.76562Q5.18555 4.76562 4.9707 4.98047Q4.76562 5.19531 4.77051 5.50293Q4.77539 5.81055 4.98047 6.01562L7.61719 8.55469L6.12305 8.45703L5.64453 8.44727Q5.36133 8.44727 5.15625 8.65234Q4.95117 8.85742 4.95117 9.14062Q4.95117 9.42383 5.15625 9.62402Q5.36133 9.82422 5.64453 9.82422ZM10.7617 14.9707Q11.0547 14.9707 11.2549 14.7705Q11.4551 14.5703 11.4551 14.2773L11.4551 13.8086L11.3477 12.2559L13.8965 14.9121Q14.1113 15.1367 14.4141 15.1367Q14.7168 15.1367 14.9316 14.9219Q15.1465 14.707 15.1416 14.3994Q15.1367 14.0918 14.9219 13.8867L12.2949 11.3477L13.7891 11.4453L14.2676 11.4551Q14.5508 11.4551 14.751 11.25Q14.9512 11.0449 14.9512 10.7617Q14.9512 10.4785 14.751 10.2783Q14.5508 10.0781 14.2676 10.0781L10.8789 10.0781Q10.498 10.0781 10.2881 10.2637Q10.0781 10.4492 10.0781 10.8789L10.0781 14.2773Q10.0781 14.5703 10.2783 14.7705Q10.4785 14.9707 10.7617 14.9707Z" fill="#ffffff"/>
 </g>
</svg>
