<?xml version="1.0" encoding="UTF-8"?>
<!--Generator: Apple Native CoreSVG 175.5-->
<!DOCTYPE svg
PUBLIC "-//W3C//DTD SVG 1.1//EN"
       "http://www.w3.org/Graphics/SVG/1.1/DTD/svg11.dtd">
<svg version="1.1" xmlns="http://www.w3.org/2000/svg" xmlns:xlink="http://www.w3.org/1999/xlink" width="17.9785" height="17.998">
 <g>
  <rect height="17.998" opacity="0" width="17.9785" x="0" y="0"/>
  <path d="M3.06641 17.998L14.9121 17.998Q16.4453 17.998 17.2119 17.2412Q17.9785 16.4844 17.9785 14.9707L17.9785 3.04688Q17.9785 1.5332 17.2119 0.776367Q16.4453 0.0195312 14.9121 0.0195312L3.06641 0.0195312Q1.5332 0.0195312 0.766602 0.776367Q0 1.5332 0 3.04688L0 14.9707Q0 16.4844 0.766602 17.2412Q1.5332 17.998 3.06641 17.998Z" fill="#007aff"/>
  <path d="M5.83008 11.4844Q5.49805 11.4844 5.29785 11.2598Q5.09766 11.0352 5.09766 10.6738L5.09766 5.9375Q5.09766 5.48828 5.32227 5.29297Q5.54688 5.09766 5.9375 5.09766L10.7129 5.09766Q11.0645 5.09766 11.2793 5.30273Q11.4941 5.50781 11.4941 5.83984Q11.4941 6.17188 11.2744 6.37695Q11.0547 6.58203 10.6934 6.58203L8.87695 6.58203L7.38281 6.42578L8.95508 7.89062L12.6465 11.582Q12.8906 11.8262 12.8906 12.1191Q12.8906 12.4707 12.6904 12.6758Q12.4902 12.8809 12.1582 12.8809Q11.9727 12.8809 11.8262 12.8174Q11.6797 12.7539 11.5723 12.6465L7.89062 8.94531L6.43555 7.40234L6.58203 8.96484L6.58203 10.6934Q6.58203 11.0645 6.37695 11.2744Q6.17188 11.4844 5.83008 11.4844Z" fill="#ffffff"/>
 </g>
</svg>
