<?xml version="1.0" encoding="UTF-8"?>
<!--Generator: Apple Native CoreSVG 175-->
<!DOCTYPE svg
PUBLIC "-//W3C//DTD SVG 1.1//EN"
       "http://www.w3.org/Graphics/SVG/1.1/DTD/svg11.dtd">
<svg version="1.1" xmlns="http://www.w3.org/2000/svg" xmlns:xlink="http://www.w3.org/1999/xlink" width="23.2031" height="16.8262">
 <g>
  <rect height="16.8262" opacity="0" width="23.2031" x="0" y="0"/>
  <path d="M18.3789 15.7422Q19.4043 15.7422 20.2783 15.415Q21.1523 15.0879 21.8066 14.5068Q22.4609 13.9258 22.832 13.1445Q23.2031 12.3633 23.2031 11.4551Q23.2031 10.498 22.8613 9.65332Q22.5195 8.80859 21.8604 8.16895Q21.2012 7.5293 20.2148 7.2168Q20.2734 5.66406 19.7949 4.3457Q19.3164 3.02734 18.4229 2.05078Q17.5293 1.07422 16.3232 0.537109Q15.1172 0 13.7109 0Q12.373 0 11.333 0.449219Q10.293 0.898438 9.53125 1.64551Q8.76953 2.39258 8.28125 3.29102Q7.44141 2.93945 6.5918 3.06641Q5.74219 3.19336 5.03418 3.70605Q4.32617 4.21875 3.90137 5.00977Q3.47656 5.80078 3.49609 6.78711Q2.45117 6.86523 1.66504 7.42676Q0.878906 7.98828 0.439453 8.90137Q0 9.81445 0 10.957Q0 11.9531 0.400391 12.8223Q0.800781 13.6914 1.52344 14.3457Q2.24609 15 3.21777 15.3613Q4.18945 15.7227 5.33203 15.7227Z" fill="#007aff"/>
  <path d="M8.64258 9.12109Q8.64258 8.08594 9.14062 7.24609Q9.63867 6.40625 10.4785 5.91797Q11.3184 5.42969 12.334 5.42969Q12.5391 5.42969 12.7344 5.44434Q12.9297 5.45898 13.0957 5.48828L11.8262 4.21875Q11.7871 4.16016 11.7627 4.10156Q11.7383 4.04297 11.7383 3.98438Q11.7383 3.83789 11.8262 3.75Q11.9141 3.66211 12.041 3.66211Q12.1191 3.66211 12.1875 3.69629Q12.2559 3.73047 12.3047 3.79883L14.1211 5.67383Q14.2285 5.78125 14.2236 5.93262Q14.2188 6.08398 14.1211 6.18164L12.2656 8.10547Q12.1777 8.18359 12.0508 8.18359Q11.9238 8.18359 11.8359 8.10059Q11.748 8.01758 11.748 7.89062Q11.748 7.73438 11.8652 7.60742L13.3301 6.14258Q12.9395 6.04492 12.373 6.04492Q11.5039 6.04492 10.8008 6.45508Q10.0977 6.86523 9.68262 7.56348Q9.26758 8.26172 9.26758 9.12109Q9.26758 9.99023 9.68262 10.6982Q10.0977 11.4062 10.8008 11.8213Q11.5039 12.2363 12.373 12.2363Q13.2324 12.2363 13.9307 11.8213Q14.6289 11.4062 15.0439 10.6982Q15.459 9.99023 15.459 9.12109Q15.459 8.99414 15.5518 8.90625Q15.6445 8.81836 15.7812 8.81836Q15.9082 8.81836 16.001 8.90625Q16.0938 8.99414 16.0938 9.12109Q16.0938 10.1758 15.5957 11.0205Q15.0977 11.8652 14.2578 12.3633Q13.418 12.8613 12.373 12.8613Q11.3281 12.8613 10.4834 12.3633Q9.63867 11.8652 9.14062 11.0156Q8.64258 10.166 8.64258 9.12109Z" fill="#ffffff"/>
 </g>
</svg>
