<?xml version="1.0" encoding="UTF-8"?>
<!--Generator: Apple Native CoreSVG 175.5-->
<!DOCTYPE svg
PUBLIC "-//W3C//DTD SVG 1.1//EN"
       "http://www.w3.org/Graphics/SVG/1.1/DTD/svg11.dtd">
<svg version="1.1" xmlns="http://www.w3.org/2000/svg" xmlns:xlink="http://www.w3.org/1999/xlink" width="19.9219" height="19.9316">
 <g>
  <rect height="19.9316" opacity="0" width="19.9219" x="0" y="0"/>
  <path d="M9.96094 19.9219Q12.002 19.9219 13.8037 19.1406Q15.6055 18.3594 16.9824 16.9824Q18.3594 15.6055 19.1406 13.8037Q19.9219 12.002 19.9219 9.96094Q19.9219 7.91992 19.1406 6.11816Q18.3594 4.31641 16.9824 2.93945Q15.6055 1.5625 13.7988 0.78125Q11.9922 0 9.95117 0Q7.91016 0 6.1084 0.78125Q4.30664 1.5625 2.93457 2.93945Q1.5625 4.31641 0.78125 6.11816Q0 7.91992 0 9.96094Q0 12.002 0.78125 13.8037Q1.5625 15.6055 2.93945 16.9824Q4.31641 18.3594 6.11816 19.1406Q7.91992 19.9219 9.96094 19.9219Z" fill="#007aff"/>
  <path d="M5.24414 6.46484L7.77344 4.01367Q7.98828 3.79883 8.25195 3.79883Q8.53516 3.79883 8.71582 3.97949Q8.89648 4.16016 8.89648 4.44336Q8.89648 4.72656 8.70117 4.91211L7.63672 5.94727L7.23633 6.30859L7.70508 6.29883L14.2188 6.29883Q14.502 6.29883 14.6875 6.48438Q14.873 6.66992 14.873 6.95312Q14.873 7.23633 14.6875 7.42676Q14.502 7.61719 14.2188 7.61719L7.69531 7.61719L7.22656 7.58789L7.63672 7.97852L8.70117 9.00391Q8.89648 9.19922 8.89648 9.47266Q8.89648 9.75586 8.71582 9.93164Q8.53516 10.1074 8.25195 10.1074Q7.99805 10.1074 7.77344 9.92188L5.24414 7.44141Q5.04883 7.24609 5.04883 6.95312Q5.04883 6.66016 5.24414 6.46484ZM14.6582 13.4668L12.1387 15.9473Q11.9043 16.1523 11.6602 16.1523Q11.3867 16.1523 11.2012 15.9668Q11.0156 15.7812 11.0156 15.5078Q11.0156 15.2539 11.2207 15.0391L12.2754 14.0039L12.6953 13.6426L12.207 13.6523L5.69336 13.6523Q5.41992 13.6523 5.23438 13.4668Q5.04883 13.2812 5.04883 12.9883Q5.04883 12.7051 5.23438 12.5195Q5.41992 12.334 5.69336 12.334L12.2168 12.334L12.6953 12.3633L12.2754 11.9727L11.2012 10.9473Q11.0156 10.752 11.0156 10.4785Q11.0156 10.2051 11.1963 10.0244Q11.377 9.84375 11.6602 9.84375Q11.9336 9.84375 12.1387 10.0391L14.6582 12.5195Q14.8633 12.7148 14.8682 12.9883Q14.873 13.2617 14.6582 13.4668Z" fill="#ffffff"/>
 </g>
</svg>
