<?xml version="1.0" encoding="UTF-8"?>
<!--Generator: Apple Native CoreSVG 175-->
<!DOCTYPE svg
PUBLIC "-//W3C//DTD SVG 1.1//EN"
       "http://www.w3.org/Graphics/SVG/1.1/DTD/svg11.dtd">
<svg version="1.1" xmlns="http://www.w3.org/2000/svg" xmlns:xlink="http://www.w3.org/1999/xlink" width="19.1602" height="19.1504">
 <g>
  <rect height="19.1504" opacity="0" width="19.1602" x="0" y="0"/>
  <path d="M9.57031 19.1406Q11.5527 19.1406 13.2861 18.3984Q15.0195 17.6562 16.3379 16.333Q17.6562 15.0098 18.4082 13.2764Q19.1602 11.543 19.1602 9.57031Q19.1602 7.59766 18.4082 5.86426Q17.6562 4.13086 16.3379 2.80762Q15.0195 1.48438 13.2861 0.742188Q11.5527 0 9.57031 0Q7.59766 0 5.86426 0.742188Q4.13086 1.48438 2.81738 2.80762Q1.50391 4.13086 0.751953 5.86426Q0 7.59766 0 9.57031Q0 11.543 0.74707 13.2764Q1.49414 15.0098 2.8125 16.333Q4.13086 17.6562 5.86914 18.3984Q7.60742 19.1406 9.57031 19.1406ZM9.57031 18.3984Q7.74414 18.3984 6.14746 17.71Q4.55078 17.0215 3.33496 15.8105Q2.11914 14.5996 1.43555 12.998Q0.751953 11.3965 0.751953 9.57031Q0.751953 7.74414 1.43555 6.14258Q2.11914 4.54102 3.33496 3.3252Q4.55078 2.10938 6.14746 1.4209Q7.74414 0.732422 9.57031 0.732422Q11.4062 0.732422 13.0029 1.4209Q14.5996 2.10938 15.8154 3.3252Q17.0312 4.54102 17.7197 6.14258Q18.4082 7.74414 18.4082 9.57031Q18.4082 11.3965 17.7246 12.998Q17.041 14.5996 15.8252 15.8105Q14.6094 17.0215 13.0078 17.71Q11.4062 18.3984 9.57031 18.3984Z" fill="#007aff"/>
  <path d="M14.2383 10.7129Q14.2383 9.69727 13.7842 8.94043Q13.3301 8.18359 12.5195 7.76855Q11.709 7.35352 10.6348 7.35352L6.875 7.35352L5.83008 7.38281L6.35742 6.96289L8.10547 5.21484Q8.24219 5.08789 8.24219 4.94141Q8.24219 4.79492 8.14453 4.69238Q8.04688 4.58984 7.89062 4.58984Q7.74414 4.58984 7.62695 4.69727L5.0293 7.34375Q4.88281 7.5 4.88281 7.69531Q4.88281 7.89062 5.0293 8.04688L7.62695 10.6934Q7.74414 10.8008 7.89062 10.8008Q8.04688 10.8008 8.14453 10.6982Q8.24219 10.5957 8.24219 10.4492Q8.24219 10.3027 8.11523 10.1758L6.31836 8.38867L5.83008 8.00781L6.875 8.03711L10.6348 8.03711Q11.9238 8.03711 12.7344 8.75977Q13.5449 9.48242 13.5449 10.7031Q13.5449 11.9238 12.7393 12.6611Q11.9336 13.3984 10.6348 13.3984Q10.498 13.3984 10.127 13.3984Q9.75586 13.3984 9.42383 13.3984Q9.0918 13.3984 9.0625 13.3984Q8.91602 13.3984 8.81348 13.4863Q8.71094 13.5742 8.71094 13.7402Q8.71094 13.9062 8.81348 13.999Q8.91602 14.0918 9.07227 14.0918Q9.0918 14.0918 9.42871 14.0918Q9.76562 14.0918 10.1318 14.0918Q10.498 14.0918 10.6348 14.0918Q11.6992 14.0918 12.5146 13.6719Q13.3301 13.252 13.7842 12.4951Q14.2383 11.7383 14.2383 10.7129Z" fill="#ffffff"/>
 </g>
</svg>
