<?xml version="1.0" encoding="UTF-8"?>
<!--Generator: Apple Native CoreSVG 175.5-->
<!DOCTYPE svg
PUBLIC "-//W3C//DTD SVG 1.1//EN"
       "http://www.w3.org/Graphics/SVG/1.1/DTD/svg11.dtd">
<svg version="1.1" xmlns="http://www.w3.org/2000/svg" xmlns:xlink="http://www.w3.org/1999/xlink" width="19.9219" height="19.9316">
 <g>
  <rect height="19.9316" opacity="0" width="19.9219" x="0" y="0"/>
  <path d="M9.96094 19.9219Q12.002 19.9219 13.8037 19.1406Q15.6055 18.3594 16.9824 16.9824Q18.3594 15.6055 19.1406 13.8037Q19.9219 12.002 19.9219 9.96094Q19.9219 7.91992 19.1406 6.11816Q18.3594 4.31641 16.9824 2.93945Q15.6055 1.5625 13.7988 0.78125Q11.9922 0 9.95117 0Q7.91016 0 6.1084 0.78125Q4.30664 1.5625 2.93457 2.93945Q1.5625 4.31641 0.78125 6.11816Q0 7.91992 0 9.96094Q0 12.002 0.78125 13.8037Q1.5625 15.6055 2.93945 16.9824Q4.31641 18.3594 6.11816 19.1406Q7.91992 19.9219 9.96094 19.9219Z" fill="#007aff"/>
  <path d="M10.0098 15.5859Q8.57422 15.5859 7.3877 14.9902Q6.20117 14.3945 5.41016 13.3301Q4.61914 12.2656 4.375 10.8594L3.31055 10.8594Q2.95898 10.8594 2.88574 10.5908Q2.8125 10.3223 2.99805 10.0488L4.61914 7.7832Q4.83398 7.48047 5.13672 7.49023Q5.43945 7.5 5.64453 7.7832L7.27539 10.0488Q7.4707 10.3223 7.39258 10.5908Q7.31445 10.8594 6.96289 10.8594L5.89844 10.8594Q6.12305 11.7578 6.71387 12.4658Q7.30469 13.1738 8.15918 13.584Q9.01367 13.9941 10.0098 13.9941Q10.7422 13.9941 11.3184 13.7695Q11.8945 13.5449 12.4316 13.125Q12.7344 12.9004 13.0566 12.8809Q13.3789 12.8613 13.6426 13.1445Q13.916 13.418 13.8379 13.7793Q13.7598 14.1406 13.3984 14.4336Q12.7441 14.9707 11.8506 15.2783Q10.957 15.5859 10.0098 15.5859ZM9.99023 4.29688Q11.4258 4.29688 12.6123 4.89746Q13.7988 5.49805 14.5898 6.5625Q15.3809 7.62695 15.625 9.02344L16.6309 9.02344Q16.9922 9.02344 17.0654 9.29199Q17.1387 9.56055 16.9434 9.83398L15.332 12.1094Q15.1172 12.4023 14.8096 12.3926Q14.502 12.3828 14.3066 12.1094L12.666 9.83398Q12.4707 9.57031 12.5488 9.29688Q12.627 9.02344 12.9883 9.02344L14.1016 9.02344Q13.877 8.13477 13.2861 7.42676Q12.6953 6.71875 11.8457 6.30859Q10.9961 5.89844 9.99023 5.89844Q9.25781 5.89844 8.68652 6.11816Q8.11523 6.33789 7.56836 6.75781Q7.27539 6.98242 6.94824 7.00195Q6.62109 7.02148 6.35742 6.73828Q6.09375 6.46484 6.16699 6.10352Q6.24023 5.74219 6.60156 5.45898Q7.25586 4.91211 8.1543 4.60449Q9.05273 4.29688 9.99023 4.29688Z" fill="#ffffff"/>
 </g>
</svg>
