<?xml version="1.0" encoding="UTF-8"?>
<!--Generator: Apple Native CoreSVG 175.5-->
<!DOCTYPE svg
PUBLIC "-//W3C//DTD SVG 1.1//EN"
       "http://www.w3.org/Graphics/SVG/1.1/DTD/svg11.dtd">
<svg version="1.1" xmlns="http://www.w3.org/2000/svg" xmlns:xlink="http://www.w3.org/1999/xlink" width="29.0992" height="20.4395">
 <g>
  <rect height="20.4395" opacity="0" width="29.0992" x="0" y="0"/>
  <path d="M0.73122 11.377L8.1238 15.9082Q8.62184 16.2109 9.07106 16.1768Q9.52028 16.1426 9.80837 15.8105Q10.0965 15.4785 10.0965 14.8828L10.0965 5.56641Q10.0965 4.99023 9.81325 4.65332Q9.53005 4.31641 9.08083 4.27734Q8.63161 4.23828 8.1238 4.55078L0.73122 9.08203Q0.233173 9.375 0.0769231 9.80469Q-0.0793269 10.2344 0.0818059 10.6592Q0.242939 11.084 0.73122 11.377ZM14.5496 20.4395Q14.8328 20.4395 15.0525 20.2441Q15.2722 20.0488 15.2722 19.7559L15.2722 0.693359Q15.2722 0.410156 15.0525 0.214844Q14.8328 0.0195312 14.5496 0.0195312Q14.2664 0.0195312 14.0515 0.214844Q13.8367 0.410156 13.8367 0.693359L13.8367 19.7559Q13.8367 20.0488 14.0515 20.2441Q14.2664 20.4395 14.5496 20.4395ZM20.9754 15.9082L28.3777 11.377Q28.8562 11.084 29.0174 10.6592Q29.1785 10.2344 29.0222 9.80469Q28.866 9.375 28.3777 9.08203L20.9754 4.55078Q20.4675 4.23828 20.0183 4.27734Q19.5691 4.31641 19.2859 4.65332Q19.0027 4.99023 19.0027 5.56641L19.0027 14.8828Q19.0027 15.4785 19.2908 15.8105Q19.5789 16.1426 20.0281 16.1768Q20.4773 16.2109 20.9754 15.9082Z" fill="#ffffff"/>
 </g>
</svg>
