<?xml version="1.0" encoding="UTF-8"?>
<!--Generator: Apple Native CoreSVG 175.5-->
<!DOCTYPE svg
PUBLIC "-//W3C//DTD SVG 1.1//EN"
       "http://www.w3.org/Graphics/SVG/1.1/DTD/svg11.dtd">
<svg version="1.1" xmlns="http://www.w3.org/2000/svg" xmlns:xlink="http://www.w3.org/1999/xlink" width="17.2559" height="23.3691">
 <g>
  <rect height="23.3691" opacity="0" width="17.2559" x="0" y="0"/>
  <path d="M0 12.3828Q0 14.1895 0.668945 15.7568Q1.33789 17.3242 2.51953 18.5107Q3.70117 19.6973 5.26855 20.3613Q6.83594 21.0254 8.63281 21.0254Q10.4199 21.0254 11.9873 20.3613Q13.5547 19.6973 14.7412 18.5107Q15.9277 17.3242 16.5918 15.7568Q17.2559 14.1895 17.2559 12.3828Q17.2559 12.0312 17.0312 11.8018Q16.8066 11.5723 16.4453 11.5723Q16.0938 11.5723 15.8887 11.8018Q15.6836 12.0312 15.6836 12.3828Q15.6836 13.8574 15.1367 15.1416Q14.5898 16.4258 13.623 17.3975Q12.6562 18.3691 11.377 18.9111Q10.0977 19.4531 8.63281 19.4531Q7.1582 19.4531 5.87891 18.9111Q4.59961 18.3691 3.63281 17.3975Q2.66602 16.4258 2.11914 15.1416Q1.57227 13.8574 1.57227 12.3828Q1.57227 10.918 2.11914 9.63867Q2.66602 8.35938 3.63281 7.39258Q4.59961 6.42578 5.87891 5.87891Q7.1582 5.33203 8.63281 5.33203Q9.18945 5.33203 9.70215 5.38086Q10.2148 5.42969 10.6445 5.52734L7.72461 8.41797Q7.61719 8.53516 7.55859 8.67676Q7.5 8.81836 7.5 8.97461Q7.5 9.30664 7.72461 9.53125Q7.94922 9.75586 8.27148 9.75586Q8.63281 9.75586 8.83789 9.53125L12.8613 5.48828Q12.9883 5.36133 13.0469 5.21484Q13.1055 5.06836 13.1055 4.90234Q13.1055 4.57031 12.8613 4.31641L8.83789 0.234375Q8.62305 0 8.27148 0Q7.93945 0 7.71973 0.229492Q7.5 0.458984 7.5 0.800781Q7.5 0.947266 7.55371 1.09375Q7.60742 1.24023 7.71484 1.35742L10.3125 3.92578Q9.93164 3.84766 9.50684 3.80371Q9.08203 3.75977 8.63281 3.75977Q6.83594 3.75977 5.26855 4.42871Q3.70117 5.09766 2.51953 6.2793Q1.33789 7.46094 0.668945 9.02832Q0 10.5957 0 12.3828Z" fill="#ffffff"/>
 </g>
</svg>
