<?xml version="1.0" encoding="UTF-8"?>
<!--Generator: Apple Native CoreSVG 175.5-->
<!DOCTYPE svg
PUBLIC "-//W3C//DTD SVG 1.1//EN"
       "http://www.w3.org/Graphics/SVG/1.1/DTD/svg11.dtd">
<svg version="1.1" xmlns="http://www.w3.org/2000/svg" xmlns:xlink="http://www.w3.org/1999/xlink" width="19.9219" height="19.9316">
 <g>
  <rect height="19.9316" opacity="0" width="19.9219" x="0" y="0"/>
  <path d="M9.96094 19.9219Q12.002 19.9219 13.8037 19.1406Q15.6055 18.3594 16.9824 16.9824Q18.3594 15.6055 19.1406 13.8037Q19.9219 12.002 19.9219 9.96094Q19.9219 7.91992 19.1406 6.11816Q18.3594 4.31641 16.9824 2.93945Q15.6055 1.5625 13.7988 0.78125Q11.9922 0 9.95117 0Q7.91016 0 6.1084 0.78125Q4.30664 1.5625 2.93457 2.93945Q1.5625 4.31641 0.78125 6.11816Q0 7.91992 0 9.96094Q0 12.002 0.78125 13.8037Q1.5625 15.6055 2.93945 16.9824Q4.31641 18.3594 6.11816 19.1406Q7.91992 19.9219 9.96094 19.9219ZM9.96094 18.2617Q8.23242 18.2617 6.72852 17.6172Q5.22461 16.9727 4.08691 15.835Q2.94922 14.6973 2.30957 13.1934Q1.66992 11.6895 1.66992 9.96094Q1.66992 8.23242 2.30957 6.72852Q2.94922 5.22461 4.08203 4.08203Q5.21484 2.93945 6.71875 2.2998Q8.22266 1.66016 9.95117 1.66016Q11.6797 1.66016 13.1885 2.2998Q14.6973 2.93945 15.835 4.08203Q16.9727 5.22461 17.6172 6.72852Q18.2617 8.23242 18.2617 9.96094Q18.2617 11.6895 17.6221 13.1934Q16.9824 14.6973 15.8398 15.835Q14.6973 16.9727 13.1934 17.6172Q11.6895 18.2617 9.96094 18.2617Z" fill="#007aff"/>
  <path d="M8.58398 14.9902Q9.75586 14.9902 10.6006 14.4727Q11.4453 13.9551 11.8994 13.0566Q12.3535 12.1582 12.3535 11.0156L12.3535 8.10547L12.3242 6.94336L12.9297 7.71484L13.9062 8.73047Q14.1113 8.94531 14.4141 8.94531Q14.7168 8.94531 14.9219 8.74512Q15.127 8.54492 15.127 8.24219Q15.127 7.93945 14.9121 7.74414L12.2754 5.14648Q12.0117 4.89258 11.6797 4.89258Q11.3477 4.89258 11.084 5.14648L8.42773 7.75391Q8.22266 7.95898 8.22266 8.25195Q8.22266 8.54492 8.42773 8.74512Q8.63281 8.94531 8.93555 8.94531Q9.23828 8.94531 9.43359 8.74023L10.6055 7.50977L11.0352 6.94336L10.9863 8.10547L10.9863 11.0156Q10.9863 12.0898 10.3857 12.8223Q9.78516 13.5547 8.66211 13.5547Q7.50977 13.5547 6.84082 12.832Q6.17188 12.1094 6.17188 11.0059Q6.17188 10.9473 6.17188 10.6201Q6.17188 10.293 6.17188 9.98047Q6.17188 9.66797 6.17188 9.64844Q6.17188 9.33594 5.99121 9.12109Q5.81055 8.90625 5.47852 8.90625Q5.13672 8.90625 4.95605 9.12598Q4.77539 9.3457 4.77539 9.66797Q4.77539 9.6875 4.77539 10Q4.77539 10.3125 4.77539 10.6299Q4.77539 10.9473 4.77539 11.0059Q4.77539 12.1484 5.23926 13.0469Q5.70312 13.9453 6.55762 14.4678Q7.41211 14.9902 8.58398 14.9902Z" fill="#ffffff"/>
 </g>
</svg>
