<?xml version="1.0" encoding="UTF-8"?>
<!--Generator: Apple Native CoreSVG 175-->
<!DOCTYPE svg
PUBLIC "-//W3C//DTD SVG 1.1//EN"
       "http://www.w3.org/Graphics/SVG/1.1/DTD/svg11.dtd">
<svg version="1.1" xmlns="http://www.w3.org/2000/svg" xmlns:xlink="http://www.w3.org/1999/xlink" width="19.1602" height="19.3262">
 <g>
  <rect height="19.3262" opacity="0" width="19.1602" x="0" y="0"/>
  <path d="M9.57031 19.1406Q11.5527 19.1406 13.2861 18.3984Q15.0195 17.6562 16.3379 16.333Q17.6562 15.0098 18.4082 13.2764Q19.1602 11.543 19.1602 9.57031Q19.1602 7.59766 18.4082 5.86426Q17.6562 4.13086 16.3379 2.80762Q15.0195 1.48438 13.2861 0.742188Q11.5527 0 9.57031 0Q7.59766 0 5.86426 0.742188Q4.13086 1.48438 2.81738 2.80762Q1.50391 4.13086 0.751953 5.86426Q0 7.59766 0 9.57031Q0 11.543 0.74707 13.2764Q1.49414 15.0098 2.8125 16.333Q4.13086 17.6562 5.86914 18.3984Q7.60742 19.1406 9.57031 19.1406Z" fill="#007aff"/>
  <path d="M8.61328 14.0527Q7.63672 14.0527 6.89941 13.6182Q6.16211 13.1836 5.75684 12.3975Q5.35156 11.6113 5.35156 10.5664L5.35156 9.07227Q5.35156 8.92578 5.44434 8.82324Q5.53711 8.7207 5.70312 8.7207Q5.85938 8.7207 5.95703 8.81836Q6.05469 8.91602 6.05469 9.07227L6.05469 10.5664Q6.05469 11.8262 6.75781 12.5879Q7.46094 13.3496 8.61328 13.3496Q9.75586 13.3496 10.4492 12.5879Q11.1426 11.8262 11.1426 10.5762L11.1426 6.98242L11.1816 6.03516L10.8398 6.45508L9.14062 8.18359Q9.02344 8.31055 8.85742 8.31055Q8.71094 8.31055 8.59863 8.20801Q8.48633 8.10547 8.48633 7.94922Q8.48633 7.79297 8.60352 7.67578L11.1426 5.19531Q11.3184 5.03906 11.5039 5.03906Q11.6992 5.03906 11.8555 5.19531L14.3848 7.67578Q14.502 7.7832 14.502 7.94922Q14.502 8.10547 14.3848 8.20801Q14.2676 8.31055 14.1309 8.31055Q13.9746 8.31055 13.8574 8.18359L12.1973 6.49414L11.8262 6.03516L11.8457 6.98242L11.8457 10.5762Q11.8457 11.6113 11.4453 12.3975Q11.0449 13.1836 10.3174 13.6182Q9.58984 14.0527 8.61328 14.0527Z" fill="#ffffff"/>
 </g>
</svg>
