<?xml version="1.0" encoding="UTF-8"?>
<!--Generator: Apple Native CoreSVG 175-->
<!DOCTYPE svg
PUBLIC "-//W3C//DTD SVG 1.1//EN"
       "http://www.w3.org/Graphics/SVG/1.1/DTD/svg11.dtd">
<svg version="1.1" xmlns="http://www.w3.org/2000/svg" xmlns:xlink="http://www.w3.org/1999/xlink" width="19.1602" height="19.1504">
 <g>
  <rect height="19.1504" opacity="0" width="19.1602" x="0" y="0"/>
  <path d="M9.57031 19.1406Q11.5527 19.1406 13.2861 18.3984Q15.0195 17.6562 16.3379 16.333Q17.6562 15.0098 18.4082 13.2764Q19.1602 11.543 19.1602 9.57031Q19.1602 7.59766 18.4082 5.86426Q17.6562 4.13086 16.3379 2.80762Q15.0195 1.48438 13.2861 0.742188Q11.5527 0 9.57031 0Q7.59766 0 5.86426 0.742188Q4.13086 1.48438 2.81738 2.80762Q1.50391 4.13086 0.751953 5.86426Q0 7.59766 0 9.57031Q0 11.543 0.74707 13.2764Q1.49414 15.0098 2.8125 16.333Q4.13086 17.6562 5.86914 18.3984Q7.60742 19.1406 9.57031 19.1406ZM9.57031 18.3984Q7.74414 18.3984 6.14746 17.71Q4.55078 17.0215 3.33496 15.8105Q2.11914 14.5996 1.43555 12.998Q0.751953 11.3965 0.751953 9.57031Q0.751953 7.74414 1.43555 6.14258Q2.11914 4.54102 3.33496 3.3252Q4.55078 2.10938 6.14746 1.4209Q7.74414 0.732422 9.57031 0.732422Q11.4062 0.732422 13.0029 1.4209Q14.5996 2.10938 15.8154 3.3252Q17.0312 4.54102 17.7197 6.14258Q18.4082 7.74414 18.4082 9.57031Q18.4082 11.3965 17.7246 12.998Q17.041 14.5996 15.8252 15.8105Q14.6094 17.0215 13.0078 17.71Q11.4062 18.3984 9.57031 18.3984Z" fill="#007aff"/>
  <path d="M4.39453 13.7988Q4.55078 13.7988 4.64355 13.7256Q4.73633 13.6523 4.82422 13.4766Q5.42969 12.1582 6.60645 11.5869Q7.7832 11.0156 9.6875 11.0156L9.93164 11.0156L9.93164 13.3691Q9.93164 13.5449 10.0342 13.6719Q10.1367 13.7988 10.3223 13.7988Q10.459 13.7988 10.5762 13.7354Q10.6934 13.6719 10.791 13.5742L15.1562 9.51172Q15.3613 9.32617 15.4199 9.19434Q15.4785 9.0625 15.4785 8.95508Q15.4785 8.82812 15.4199 8.70117Q15.3613 8.57422 15.1562 8.37891L10.791 4.32617Q10.6836 4.21875 10.5713 4.15527Q10.459 4.0918 10.332 4.0918Q10.1367 4.0918 10.0342 4.22363Q9.93164 4.35547 9.93164 4.54102L9.93164 6.93359L9.6875 6.93359Q7.94922 6.93359 6.6748 7.6123Q5.40039 8.29102 4.71191 9.71191Q4.02344 11.1328 4.02344 13.3496Q4.02344 13.5645 4.13574 13.6816Q4.24805 13.7988 4.39453 13.7988Z" fill="#ffffff"/>
 </g>
</svg>
