<?xml version="1.0" encoding="UTF-8"?>
<!--Generator: Apple Native CoreSVG 175.5-->
<!DOCTYPE svg
PUBLIC "-//W3C//DTD SVG 1.1//EN"
       "http://www.w3.org/Graphics/SVG/1.1/DTD/svg11.dtd">
<svg version="1.1" xmlns="http://www.w3.org/2000/svg" xmlns:xlink="http://www.w3.org/1999/xlink" width="17.207" height="15.2441">
 <g>
  <rect height="15.2441" opacity="0" width="17.207" x="0" y="0"/>
  <path d="M1.74805 14.0332L1.74805 0.859375Q1.74805 0.478516 1.50391 0.239258Q1.25977 0 0.869141 0Q0.488281 0 0.244141 0.239258Q0 0.478516 0 0.859375L0 14.0332Q0 14.4043 0.244141 14.6387Q0.488281 14.873 0.869141 14.873Q1.25977 14.873 1.50391 14.6387Q1.74805 14.4043 1.74805 14.0332ZM17.207 7.44141Q17.207 7.05078 16.9678 6.80664Q16.7285 6.5625 16.3477 6.5625L6.48438 6.5625L4.39453 6.64062L7.59766 3.70117L9.75586 1.50391Q9.88281 1.38672 9.94629 1.2207Q10.0098 1.05469 10.0098 0.878906Q10.0098 0.517578 9.76074 0.273438Q9.51172 0.0292969 9.15039 0.0292969Q8.96484 0.0292969 8.80371 0.102539Q8.64258 0.175781 8.49609 0.322266L2.02148 6.77734Q1.875 6.92383 1.79688 7.08984Q1.71875 7.25586 1.71875 7.44141Q1.71875 7.61719 1.79688 7.7832Q1.875 7.94922 2.02148 8.0957L8.49609 14.5508Q8.64258 14.6973 8.80371 14.7656Q8.96484 14.834 9.15039 14.834Q9.51172 14.834 9.76074 14.5947Q10.0098 14.3555 10.0098 13.9941Q10.0098 13.8184 9.94629 13.6523Q9.88281 13.4863 9.75586 13.3594L7.59766 11.1719L4.38477 8.24219L6.48438 8.31055L16.3477 8.31055Q16.7285 8.31055 16.9678 8.06641Q17.207 7.82227 17.207 7.44141Z" fill="#ffffff"/>
 </g>
</svg>
