<?xml version="1.0" encoding="UTF-8"?>
<!--Generator: Apple Native CoreSVG 175.5-->
<!DOCTYPE svg
PUBLIC "-//W3C//DTD SVG 1.1//EN"
       "http://www.w3.org/Graphics/SVG/1.1/DTD/svg11.dtd">
<svg version="1.1" xmlns="http://www.w3.org/2000/svg" xmlns:xlink="http://www.w3.org/1999/xlink" width="19.0332" height="19.5801">
 <g>
  <rect height="19.5801" opacity="0" width="19.0332" x="0" y="0"/>
  <path d="M1.75781 8.84766L7.17773 8.84766Q7.92969 8.84766 8.33984 8.43262Q8.75 8.01758 8.75 7.26562L8.75 1.85547Q8.75 1.47461 8.49609 1.21094Q8.24219 0.947266 7.85156 0.947266Q7.46094 0.947266 7.21191 1.20605Q6.96289 1.46484 6.96289 1.85547L6.96289 2.67578L7.16797 6.08398L4.58984 3.37891L1.5918 0.351562Q1.33789 0.0878906 0.966797 0.0878906Q0.546875 0.0878906 0.273438 0.341797Q0 0.595703 0 1.00586Q0 1.20117 0.0683594 1.37207Q0.136719 1.54297 0.273438 1.67969L3.28125 4.6875L5.98633 7.25586L2.57812 7.06055L1.75781 7.06055Q1.36719 7.06055 1.10352 7.30957Q0.839844 7.55859 0.839844 7.94922Q0.839844 8.33984 1.10352 8.59375Q1.36719 8.84766 1.75781 8.84766ZM11.123 18.7598Q11.5039 18.7598 11.7578 18.501Q12.0117 18.2422 12.0117 17.8516L12.0117 16.9238L11.8066 13.5254L14.3848 16.2305L17.4512 19.3164Q17.6953 19.5801 18.0762 19.5801Q18.4863 19.5801 18.7598 19.3262Q19.0332 19.0723 19.0332 18.6621Q19.0332 18.4668 18.9648 18.2959Q18.8965 18.125 18.7695 17.9883L15.6934 14.9121L12.9785 12.3438L16.3965 12.5391L17.3242 12.5391Q17.7148 12.5391 17.9785 12.2949Q18.2422 12.0508 18.2422 11.6602Q18.2422 11.2598 17.9785 11.0107Q17.7148 10.7617 17.3242 10.7617L11.7969 10.7617Q11.0449 10.7617 10.6348 11.1719Q10.2246 11.582 10.2246 12.334L10.2246 17.8516Q10.2246 18.2422 10.4785 18.501Q10.7324 18.7598 11.123 18.7598Z" fill="#ffffff"/>
 </g>
</svg>
