<?xml version="1.0" encoding="UTF-8"?>
<!--Generator: Apple Native CoreSVG 175.5-->
<!DOCTYPE svg
PUBLIC "-//W3C//DTD SVG 1.1//EN"
       "http://www.w3.org/Graphics/SVG/1.1/DTD/svg11.dtd">
<svg version="1.1" xmlns="http://www.w3.org/2000/svg" xmlns:xlink="http://www.w3.org/1999/xlink" width="18.6621" height="18.6816">
 <g>
  <rect height="18.6816" opacity="0" width="18.6621" x="0" y="0"/>
  <path d="M0 5.27344Q0 5.70312 0.253906 5.91309Q0.507812 6.12305 0.849609 6.09863Q1.19141 6.07422 1.46484 5.79102L5.79102 1.46484Q6.07422 1.18164 6.09863 0.839844Q6.12305 0.498047 5.91309 0.249023Q5.70312 0 5.27344 0L0.888672 0Q0.478516 0 0.239258 0.249023Q0 0.498047 0 0.898438ZM2.51953 3.75L14.8926 16.1328L16.1328 14.9121L3.75977 2.51953ZM18.6621 13.3887Q18.6621 12.959 18.4082 12.749Q18.1543 12.5391 17.8125 12.5635Q17.4707 12.5879 17.1875 12.8613L12.8613 17.1875Q12.5879 17.4707 12.5635 17.8125Q12.5391 18.1543 12.749 18.4082Q12.959 18.6621 13.3887 18.6621L17.7734 18.6621Q18.1836 18.6621 18.4229 18.4082Q18.6621 18.1543 18.6621 17.7637ZM18.6621 5.27344L18.6621 0.898438Q18.6621 0.498047 18.4229 0.249023Q18.1836 0 17.7734 0L13.3887 0Q12.959 0 12.749 0.249023Q12.5391 0.498047 12.5635 0.839844Q12.5879 1.18164 12.8613 1.46484L17.1875 5.79102Q17.4707 6.07422 17.8125 6.09863Q18.1543 6.12305 18.4082 5.91309Q18.6621 5.70312 18.6621 5.27344ZM3.75977 16.1328L16.1426 3.75L14.9023 2.51953L2.51953 14.9023ZM0 13.3887L0 17.7637Q0 18.1543 0.239258 18.4082Q0.478516 18.6621 0.888672 18.6621L5.27344 18.6621Q5.70312 18.6621 5.91309 18.4082Q6.12305 18.1543 6.09863 17.8125Q6.07422 17.4707 5.79102 17.1875L1.46484 12.8613Q1.19141 12.5879 0.849609 12.5635Q0.507812 12.5391 0.253906 12.749Q0 12.959 0 13.3887Z" fill="#ffffff"/>
 </g>
</svg>
