<?xml version="1.0" encoding="UTF-8"?>
<!--Generator: Apple Native CoreSVG 175-->
<!DOCTYPE svg
PUBLIC "-//W3C//DTD SVG 1.1//EN"
       "http://www.w3.org/Graphics/SVG/1.1/DTD/svg11.dtd">
<svg version="1.1" xmlns="http://www.w3.org/2000/svg" xmlns:xlink="http://www.w3.org/1999/xlink" width="17.2852" height="17.3145">
 <g>
  <rect height="17.3145" opacity="0" width="17.2852" x="0" y="0"/>
  <path d="M2.62695 17.3145L14.6484 17.3145Q15.957 17.3145 16.6211 16.6455Q17.2852 15.9766 17.2852 14.6875L17.2852 2.65625Q17.2852 1.37695 16.6211 0.703125Q15.957 0.0292969 14.6484 0.0292969L2.62695 0.0292969Q1.33789 0.0292969 0.668945 0.693359Q0 1.35742 0 2.65625L0 14.6875Q0 15.9863 0.668945 16.6504Q1.33789 17.3145 2.62695 17.3145Z" fill="#007aff"/>
  <path d="M14.1797 8.63281Q14.1797 8.76953 14.0625 8.89648L11.1133 11.8359Q11.0059 11.9434 10.8496 11.9434Q10.7129 11.9434 10.6201 11.8457Q10.5273 11.748 10.5273 11.6113Q10.5273 11.5234 10.5615 11.46Q10.5957 11.3965 10.6543 11.3477L11.8066 10.1953L13.0664 8.95508L11.582 9.00391L5.70312 9.00391L4.21875 8.95508L5.47852 10.1953L6.63086 11.3477Q6.68945 11.3965 6.72363 11.46Q6.75781 11.5234 6.75781 11.6113Q6.75781 11.748 6.66504 11.8457Q6.57227 11.9434 6.42578 11.9434Q6.2793 11.9434 6.17188 11.8359L3.23242 8.89648Q3.10547 8.76953 3.10547 8.63281Q3.10547 8.49609 3.23242 8.36914L6.17188 5.42969Q6.2793 5.32227 6.42578 5.32227Q6.57227 5.32227 6.66504 5.41992Q6.75781 5.51758 6.75781 5.6543Q6.75781 5.74219 6.72852 5.80566Q6.69922 5.86914 6.63086 5.92773L5.47852 7.08008L4.21875 8.31055L5.70312 8.27148L11.582 8.27148L13.0664 8.31055L11.8066 7.08008L10.6543 5.92773Q10.5957 5.86914 10.5615 5.80566Q10.5273 5.74219 10.5273 5.6543Q10.5273 5.51758 10.6201 5.41992Q10.7129 5.32227 10.8496 5.32227Q11.0059 5.32227 11.1133 5.42969L14.0625 8.36914Q14.1797 8.49609 14.1797 8.63281Z" fill="#ffffff"/>
 </g>
</svg>
