<?xml version="1.0" encoding="UTF-8"?>
<!--Generator: Apple Native CoreSVG 175.5-->
<!DOCTYPE svg
PUBLIC "-//W3C//DTD SVG 1.1//EN"
       "http://www.w3.org/Graphics/SVG/1.1/DTD/svg11.dtd">
<svg version="1.1" xmlns="http://www.w3.org/2000/svg" xmlns:xlink="http://www.w3.org/1999/xlink" width="19.9219" height="19.9316">
 <g>
  <rect height="19.9316" opacity="0" width="19.9219" x="0" y="0"/>
  <path d="M9.96094 19.9316Q12.002 19.9316 13.8037 19.1504Q15.6055 18.3691 16.9824 16.9922Q18.3594 15.6152 19.1406 13.8135Q19.9219 12.0117 19.9219 9.9707Q19.9219 7.92969 19.1406 6.12793Q18.3594 4.32617 16.9824 2.94922Q15.6055 1.57227 13.7988 0.791016Q11.9922 0.00976562 9.95117 0.00976562Q7.91016 0.00976562 6.1084 0.791016Q4.30664 1.57227 2.93457 2.94922Q1.5625 4.32617 0.78125 6.12793Q0 7.92969 0 9.9707Q0 12.0117 0.78125 13.8135Q1.5625 15.6152 2.93945 16.9922Q4.31641 18.3691 6.11816 19.1504Q7.91992 19.9316 9.96094 19.9316Z" fill="#007aff"/>
  <path d="M14.4531 10.4297Q14.4531 11.6895 13.8477 12.7246Q13.2422 13.7598 12.2217 14.3701Q11.2012 14.9805 9.96094 14.9805Q8.71094 14.9805 7.69531 14.3701Q6.67969 13.7598 6.07422 12.7344Q5.46875 11.709 5.46875 10.4688Q5.46875 10.1855 5.67383 9.98535Q5.87891 9.78516 6.16211 9.78516Q6.44531 9.78516 6.65527 9.98535Q6.86523 10.1855 6.86523 10.4688Q6.86523 11.3379 7.28027 12.041Q7.69531 12.7441 8.39844 13.1641Q9.10156 13.584 9.96094 13.584Q10.8203 13.584 11.5234 13.1641Q12.2266 12.7441 12.6416 12.041Q13.0566 11.3379 13.0566 10.4688Q13.0566 9.60938 12.6416 8.90625Q12.2266 8.20312 11.5234 7.78809Q10.8203 7.37305 9.96094 7.37305Q9.73633 7.37305 9.59961 7.39258L10.5762 8.35938Q10.7715 8.55469 10.7715 8.81836Q10.7715 9.0918 10.5859 9.27734Q10.4004 9.46289 10.1172 9.46289Q9.87305 9.46289 9.6875 9.26758L7.73438 7.31445Q7.54883 7.13867 7.55371 6.85547Q7.55859 6.57227 7.73438 6.38672L9.66797 4.41406Q9.74609 4.32617 9.86816 4.26758Q9.99023 4.20898 10.127 4.20898Q10.4004 4.20898 10.5859 4.39941Q10.7715 4.58984 10.7715 4.85352Q10.7715 4.99023 10.7178 5.1123Q10.6641 5.23438 10.5859 5.32227L9.88281 6.04492Q9.94141 6.03516 10.0146 6.03027Q10.0879 6.02539 10.1562 6.02539Q11.2891 6.02539 12.2656 6.61133Q13.2422 7.19727 13.8477 8.19824Q14.4531 9.19922 14.4531 10.4297Z" fill="#ffffff"/>
 </g>
</svg>
