<?xml version="1.0" encoding="UTF-8"?>
<!--Generator: Apple Native CoreSVG 175-->
<!DOCTYPE svg
PUBLIC "-//W3C//DTD SVG 1.1//EN"
       "http://www.w3.org/Graphics/SVG/1.1/DTD/svg11.dtd">
<svg version="1.1" xmlns="http://www.w3.org/2000/svg" xmlns:xlink="http://www.w3.org/1999/xlink" width="22.666" height="17.2949">
 <g>
  <rect height="17.2949" opacity="0" width="22.666" x="0" y="0"/>
  <path d="M2.62695 17.2852L20.0195 17.2852Q21.3281 17.2852 21.9971 16.6113Q22.666 15.9375 22.666 14.6582L22.666 2.62695Q22.666 1.34766 21.9971 0.673828Q21.3281 0 20.0195 0L2.62695 0Q1.33789 0 0.668945 0.668945Q0 1.33789 0 2.62695L0 14.6582Q0 15.957 0.668945 16.6211Q1.33789 17.2852 2.62695 17.2852ZM2.65625 16.5625Q1.70898 16.5625 1.2207 16.0742Q0.732422 15.5859 0.732422 14.6191L0.732422 2.65625Q0.732422 1.69922 1.2207 1.21094Q1.70898 0.722656 2.65625 0.722656L20 0.722656Q20.9277 0.722656 21.4307 1.21094Q21.9336 1.69922 21.9336 2.65625L21.9336 14.6191Q21.9336 15.5859 21.4307 16.0742Q20.9277 16.5625 20 16.5625Z" fill="#007aff"/>
  <path d="M3.79883 10.1172Q3.79883 10.2637 3.89648 10.3564Q3.99414 10.4492 4.14062 10.4492Q4.26758 10.4492 4.38477 10.3418L8.64258 6.08398L9.94141 4.75586L9.87305 7.51953L9.87305 8.64258Q9.87305 8.79883 9.9707 8.89648Q10.0684 8.99414 10.2148 8.99414Q10.3711 8.99414 10.4639 8.89648Q10.5566 8.79883 10.5566 8.64258L10.5566 4.04297Q10.5566 3.88672 10.4639 3.78906Q10.3711 3.69141 10.2051 3.69141L5.07812 3.69141Q4.92188 3.69141 4.82422 3.78906Q4.72656 3.88672 4.72656 4.0332Q4.72656 4.18945 4.82422 4.28223Q4.92188 4.375 5.07812 4.375L6.20117 4.375L9.50195 4.30664L8.17383 5.60547L3.91602 9.86328Q3.79883 9.98047 3.79883 10.1172ZM19.3652 7.14844Q19.3652 7.01172 19.2676 6.91406Q19.1699 6.81641 19.0332 6.81641Q18.8965 6.81641 18.7793 6.92383L14.5215 11.1914L13.2324 12.5195L13.291 9.74609L13.291 8.62305Q13.291 8.4668 13.1934 8.36914Q13.0957 8.27148 12.9492 8.27148Q12.793 8.27148 12.7002 8.36914Q12.6074 8.4668 12.6074 8.62305L12.6074 13.2227Q12.6074 13.3789 12.7051 13.4766Q12.8027 13.5742 12.959 13.5742L18.0957 13.5742Q18.2422 13.5742 18.3398 13.4814Q18.4375 13.3887 18.4375 13.2324Q18.4375 13.0762 18.3398 12.9834Q18.2422 12.8906 18.0957 12.8906L16.9629 12.8906L13.6621 12.959L14.9902 11.6602L19.248 7.40234Q19.3652 7.28516 19.3652 7.14844Z" fill="#ffffff"/>
 </g>
</svg>
