<?xml version="1.0" encoding="UTF-8"?>
<!--Generator: Apple Native CoreSVG 175-->
<!DOCTYPE svg
PUBLIC "-//W3C//DTD SVG 1.1//EN"
       "http://www.w3.org/Graphics/SVG/1.1/DTD/svg11.dtd">
<svg version="1.1" xmlns="http://www.w3.org/2000/svg" xmlns:xlink="http://www.w3.org/1999/xlink" width="27.157" height="19.6097">
 <g>
  <rect height="19.6097" opacity="0" width="27.157" x="0" y="0"/>
  <path d="M0.501864 10.6528L7.99301 15.2754Q8.30811 15.4726 8.6554 15.4736Q9.00269 15.4745 9.24858 15.2409Q9.49448 15.0073 9.49448 14.503L9.49448 5.13748Q9.49448 4.63165 9.24996 4.40018Q9.00543 4.1687 8.65814 4.16832Q8.31085 4.16794 7.99301 4.36798L0.501864 8.99063Q0.158542 9.19922 0.0515013 9.51637Q-0.0555391 9.83353 0.0598936 10.1459Q0.175326 10.4582 0.501864 10.6528ZM13.575 19.6097Q13.7177 19.6097 13.8213 19.5094Q13.925 19.409 13.925 19.2636L13.925 0.376892Q13.925 0.234375 13.8213 0.133972Q13.7177 0.0335693 13.575 0.0335693Q13.4395 0.0335693 13.3371 0.133972Q13.2347 0.234375 13.2347 0.376892L13.2347 19.2636Q13.2347 19.409 13.3371 19.5094Q13.4395 19.6097 13.575 19.6097ZM19.1641 15.2754L26.6579 10.6528Q26.9817 10.4582 27.0971 10.1459Q27.2125 9.83353 27.1055 9.51637Q26.9984 9.19922 26.6579 8.99063L19.1641 4.36798Q18.8461 4.16794 18.4988 4.16832Q18.1516 4.1687 17.907 4.40018Q17.6625 4.63165 17.6625 5.13748L17.6625 14.503Q17.6625 15.0073 17.9084 15.2409Q18.1543 15.4745 18.5016 15.4736Q18.8489 15.4726 19.1641 15.2754Z" fill="#ffffff"/>
 </g>
</svg>
