<?xml version="1.0" encoding="UTF-8"?>
<!--Generator: Apple Native CoreSVG 175-->
<!DOCTYPE svg
PUBLIC "-//W3C//DTD SVG 1.1//EN"
       "http://www.w3.org/Graphics/SVG/1.1/DTD/svg11.dtd">
<svg version="1.1" xmlns="http://www.w3.org/2000/svg" xmlns:xlink="http://www.w3.org/1999/xlink" width="17.2852" height="17.3145">
 <g>
  <rect height="17.3145" opacity="0" width="17.2852" x="0" y="0"/>
  <path d="M2.62695 17.3145L14.6484 17.3145Q15.957 17.3145 16.6211 16.6455Q17.2852 15.9766 17.2852 14.6875L17.2852 2.65625Q17.2852 1.37695 16.6211 0.703125Q15.957 0.0292969 14.6484 0.0292969L2.62695 0.0292969Q1.33789 0.0292969 0.668945 0.693359Q0 1.35742 0 2.65625L0 14.6875Q0 15.9863 0.668945 16.6504Q1.33789 17.3145 2.62695 17.3145Z" fill="#007aff"/>
  <path d="M5.30273 10.9473Q5.14648 10.9473 5.05371 10.8447Q4.96094 10.7422 4.96094 10.5664L4.96094 5.32227Q4.96094 5.14648 5.06348 5.04883Q5.16602 4.95117 5.32227 4.95117L10.5859 4.95117Q10.7617 4.95117 10.8643 5.04395Q10.9668 5.13672 10.9668 5.2832Q10.9668 5.43945 10.8594 5.54199Q10.752 5.64453 10.5859 5.64453L7.46094 5.64453L6.08398 5.60547L7.14844 6.63086L12.2168 11.6992Q12.3438 11.8164 12.3438 11.9727Q12.3438 12.1289 12.2461 12.2266Q12.1484 12.3242 11.9824 12.3242Q11.8945 12.3242 11.8213 12.2949Q11.748 12.2656 11.6992 12.207L6.64062 7.14844L5.625 6.08398L5.6543 7.82227L5.6543 10.5762Q5.6543 10.752 5.56152 10.8496Q5.46875 10.9473 5.30273 10.9473Z" fill="#ffffff"/>
 </g>
</svg>
