<?xml version="1.0" encoding="UTF-8"?>
<!--Generator: Apple Native CoreSVG 175-->
<!DOCTYPE svg
PUBLIC "-//W3C//DTD SVG 1.1//EN"
       "http://www.w3.org/Graphics/SVG/1.1/DTD/svg11.dtd">
<svg version="1.1" xmlns="http://www.w3.org/2000/svg" xmlns:xlink="http://www.w3.org/1999/xlink" width="17.2852" height="17.4707">
 <g>
  <rect height="17.4707" opacity="0" width="17.2852" x="0" y="0"/>
  <path d="M2.62695 17.2852L14.6484 17.2852Q15.957 17.2852 16.6211 16.6162Q17.2852 15.9473 17.2852 14.6582L17.2852 2.62695Q17.2852 1.34766 16.6211 0.673828Q15.957 0 14.6484 0L2.62695 0Q1.33789 0 0.668945 0.664062Q0 1.32812 0 2.62695L0 14.6582Q0 15.957 0.668945 16.6211Q1.33789 17.2852 2.62695 17.2852Z" fill="#007aff"/>
  <path d="M13.1543 9.7168Q13.1543 10.7031 12.7148 11.4355Q12.2754 12.168 11.4893 12.5781Q10.7031 12.9883 9.66797 12.9883L8.17383 12.9883Q8.01758 12.9883 7.91016 12.8906Q7.80273 12.793 7.80273 12.627Q7.80273 12.4707 7.91016 12.3779Q8.01758 12.2852 8.16406 12.2852L9.66797 12.2852Q10.918 12.2852 11.6797 11.5771Q12.4414 10.8691 12.4414 9.7168Q12.4414 8.58398 11.6797 7.88086Q10.918 7.17773 9.66797 7.17773L6.07422 7.17773L5.12695 7.1582L5.55664 7.49023L7.27539 9.17969Q7.40234 9.32617 7.40234 9.47266Q7.40234 9.62891 7.30469 9.73633Q7.20703 9.84375 7.04102 9.84375Q6.9043 9.84375 6.76758 9.72656L4.27734 7.1875Q4.13086 7.02148 4.13086 6.83594Q4.13086 6.63086 4.27734 6.47461L6.76758 3.93555Q6.89453 3.83789 7.04102 3.83789Q7.20703 3.83789 7.30469 3.94531Q7.40234 4.05273 7.40234 4.19922Q7.40234 4.35547 7.27539 4.48242L5.5957 6.13281L5.12695 6.51367L6.07422 6.48438L9.66797 6.48438Q10.7031 6.48438 11.4893 6.88477Q12.2754 7.28516 12.7148 8.0127Q13.1543 8.74023 13.1543 9.7168Z" fill="#ffffff"/>
 </g>
</svg>
