<?xml version="1.0" encoding="UTF-8"?>
<!--Generator: Apple Native CoreSVG 175.5-->
<!DOCTYPE svg
PUBLIC "-//W3C//DTD SVG 1.1//EN"
       "http://www.w3.org/Graphics/SVG/1.1/DTD/svg11.dtd">
<svg version="1.1" xmlns="http://www.w3.org/2000/svg" xmlns:xlink="http://www.w3.org/1999/xlink" width="15.5371" height="15.9473">
 <g>
  <rect height="15.9473" opacity="0" width="15.5371" x="0" y="0"/>
  <path d="M15.5371 1.19141Q15.5371 0.654297 15.1562 0.336914Q14.7754 0.0195312 14.1309 0.0195312L1.39648 0.00976562Q0.761719 0.00976562 0.380859 0.327148Q0 0.644531 0 1.18164Q0 1.47461 0.112305 1.7334Q0.224609 1.99219 0.371094 2.30469L6.46484 14.8535Q6.76758 15.4785 7.0752 15.7129Q7.38281 15.9473 7.76367 15.9473Q8.1543 15.9473 8.45703 15.7129Q8.75977 15.4785 9.07227 14.8535L15.1562 2.30469Q15.3125 2.00195 15.4248 1.74316Q15.5371 1.48438 15.5371 1.19141ZM13.6719 1.68945Q13.6719 1.71875 13.6572 1.74805Q13.6426 1.77734 13.6328 1.81641L7.88086 13.7598Q7.86133 13.7988 7.83203 13.8232Q7.80273 13.8477 7.76367 13.8477Q7.72461 13.8477 7.7002 13.8232Q7.67578 13.7988 7.65625 13.7598L1.9043 1.80664Q1.88477 1.76758 1.875 1.73828Q1.86523 1.70898 1.86523 1.67969Q1.86523 1.58203 1.97266 1.58203L13.5547 1.5918Q13.6719 1.5918 13.6719 1.68945Z" fill="#ffffff"/>
 </g>
</svg>
