<?xml version="1.0" encoding="UTF-8"?>
<!--Generator: Apple Native CoreSVG 175-->
<!DOCTYPE svg
PUBLIC "-//W3C//DTD SVG 1.1//EN"
       "http://www.w3.org/Graphics/SVG/1.1/DTD/svg11.dtd">
<svg version="1.1" xmlns="http://www.w3.org/2000/svg" xmlns:xlink="http://www.w3.org/1999/xlink" width="19.1602" height="19.1504">
 <g>
  <rect height="19.1504" opacity="0" width="19.1602" x="0" y="0"/>
  <path d="M9.57031 19.1406Q11.5527 19.1406 13.2861 18.3984Q15.0195 17.6562 16.3379 16.333Q17.6562 15.0098 18.4082 13.2764Q19.1602 11.543 19.1602 9.57031Q19.1602 7.59766 18.4082 5.86426Q17.6562 4.13086 16.3379 2.80762Q15.0195 1.48438 13.2861 0.742188Q11.5527 0 9.57031 0Q7.59766 0 5.86426 0.742188Q4.13086 1.48438 2.81738 2.80762Q1.50391 4.13086 0.751953 5.86426Q0 7.59766 0 9.57031Q0 11.543 0.74707 13.2764Q1.49414 15.0098 2.8125 16.333Q4.13086 17.6562 5.86914 18.3984Q7.60742 19.1406 9.57031 19.1406Z" fill="#007aff"/>
  <path d="M5.60547 9.18945Q5.45898 9.18945 5.35645 9.08691Q5.25391 8.98438 5.25391 8.84766Q5.25391 8.70117 5.35645 8.59863Q5.45898 8.49609 5.60547 8.49609L6.45508 8.50586L8.10547 8.52539L4.98047 5.46875Q4.87305 5.37109 4.87305 5.21484Q4.87305 5.05859 4.98047 4.96094Q5.07812 4.84375 5.23438 4.84375Q5.39062 4.84375 5.49805 4.96094L8.56445 8.08594L8.52539 6.30859L8.52539 5.57617Q8.52539 5.42969 8.63281 5.33203Q8.74023 5.23438 8.87695 5.23438Q9.02344 5.23438 9.12109 5.33203Q9.21875 5.42969 9.21875 5.57617L9.21875 8.81836Q9.21875 9.00391 9.11621 9.09668Q9.01367 9.18945 8.84766 9.18945ZM10.293 13.877Q10.1465 13.877 10.0439 13.7744Q9.94141 13.6719 9.94141 13.5254L9.94141 10.293Q9.94141 10.1074 10.0439 10.0146Q10.1465 9.92188 10.3125 9.92188L13.5645 9.92188Q13.7109 9.92188 13.8086 10.0244Q13.9062 10.127 13.9062 10.2734Q13.9062 10.4102 13.8086 10.5127Q13.7109 10.6152 13.5645 10.6152L12.7148 10.6055L11.0645 10.5859L14.1797 13.6426Q14.2871 13.75 14.292 13.8965Q14.2969 14.043 14.1895 14.1504Q14.082 14.2676 13.9307 14.2676Q13.7793 14.2676 13.6621 14.1504L10.6152 11.0254L10.6348 12.8027L10.6348 13.5254Q10.6348 13.6719 10.5371 13.7744Q10.4395 13.877 10.293 13.877Z" fill="#ffffff"/>
 </g>
</svg>
