<?xml version="1.0" encoding="UTF-8"?>
<!--Generator: Apple Native CoreSVG 175.5-->
<!DOCTYPE svg
PUBLIC "-//W3C//DTD SVG 1.1//EN"
       "http://www.w3.org/Graphics/SVG/1.1/DTD/svg11.dtd">
<svg version="1.1" xmlns="http://www.w3.org/2000/svg" xmlns:xlink="http://www.w3.org/1999/xlink" width="21.0547" height="17.9199">
 <g>
  <rect height="17.9199" opacity="0" width="21.0547" x="0" y="0"/>
  <path d="M11.5137 17.9102Q11.8652 17.9102 12.1826 17.7588Q12.5 17.6074 12.8516 17.2754L20.5566 10Q20.8398 9.73633 20.9473 9.46289Q21.0547 9.18945 21.0547 8.95508Q21.0547 8.71094 20.9473 8.4375Q20.8398 8.16406 20.5566 7.90039L12.8516 0.693359Q12.4609 0.322266 12.1729 0.161133Q11.8848 0 11.5332 0Q11.0156 0 10.6885 0.351562Q10.3613 0.703125 10.3613 1.19141L10.3613 4.88281L10.0781 4.88281Q7.45117 4.88281 5.54199 5.69336Q3.63281 6.50391 2.40723 8.03711Q1.18164 9.57031 0.59082 11.7334Q0 13.8965 0 16.6016Q0 17.2363 0.307617 17.5732Q0.615234 17.9102 1.00586 17.9102Q1.31836 17.9102 1.63574 17.7832Q1.95312 17.6562 2.20703 17.1875Q3.05664 15.5859 4.16992 14.6826Q5.2832 13.7793 6.73828 13.4082Q8.19336 13.0371 10.0781 13.0371L10.3613 13.0371L10.3613 16.7676Q10.3613 17.2656 10.6885 17.5879Q11.0156 17.9102 11.5137 17.9102Z" fill="#ffffff"/>
 </g>
</svg>
