<?xml version="1.0" encoding="UTF-8"?>
<!--Generator: Apple Native CoreSVG 175-->
<!DOCTYPE svg
PUBLIC "-//W3C//DTD SVG 1.1//EN"
       "http://www.w3.org/Graphics/SVG/1.1/DTD/svg11.dtd">
<svg version="1.1" xmlns="http://www.w3.org/2000/svg" xmlns:xlink="http://www.w3.org/1999/xlink" width="23.623" height="15.7324">
 <g>
  <rect height="15.7324" opacity="0" width="23.623" x="0" y="0"/>
  <path d="M3.17383 15.7227L14.043 15.7227Q15.5762 15.7227 16.3965 14.9023Q17.2168 14.082 17.2168 12.5586L17.2168 3.1543Q17.2168 1.64062 16.4062 0.820312Q15.5957 0 14.0625 0L3.17383 0Q1.66016 0 0.830078 0.820312Q0 1.64062 0 3.1543L0 12.5586Q0 14.082 0.820312 14.9023Q1.64062 15.7227 3.17383 15.7227ZM18.0859 10.7227L21.5918 13.5645Q21.8555 13.7695 22.1045 13.8916Q22.3535 14.0137 22.627 14.0137Q23.0762 14.0137 23.3496 13.7158Q23.623 13.418 23.623 12.8809L23.623 2.83203Q23.623 2.30469 23.3496 2.00195Q23.0762 1.69922 22.627 1.69922Q22.3535 1.69922 22.1045 1.82129Q21.8555 1.94336 21.5918 2.1582L18.0859 4.98047Z" fill="#007aff"/>
  <path d="M12.0703 4.21875Q12.2168 4.21875 12.3193 4.31152Q12.4219 4.4043 12.4219 4.56055Q12.4219 4.63867 12.3877 4.70703Q12.3535 4.77539 12.2852 4.83398L7.43164 9.69727L5.81055 11.2598L8.53516 11.1523L11.1035 11.1523Q11.2598 11.1523 11.3574 11.2451Q11.4551 11.3379 11.4551 11.4844Q11.4551 11.6309 11.3525 11.7334Q11.25 11.8359 11.1035 11.8359L5.17578 11.8359Q4.9707 11.8359 4.88281 11.748Q4.79492 11.6602 4.79492 11.4941L4.79492 5.61523Q4.79492 5.47852 4.8877 5.38086Q4.98047 5.2832 5.13672 5.2832Q5.29297 5.2832 5.38086 5.38574Q5.46875 5.48828 5.46875 5.61523L5.46875 8.10547L5.37109 10.8301L6.94336 9.20898L11.8066 4.33594Q11.8555 4.29688 11.9141 4.25781Q11.9727 4.21875 12.0703 4.21875Z" fill="#ffffff"/>
 </g>
</svg>
