<?xml version="1.0" encoding="UTF-8"?>
<!--Generator: Apple Native CoreSVG 175-->
<!DOCTYPE svg
PUBLIC "-//W3C//DTD SVG 1.1//EN"
       "http://www.w3.org/Graphics/SVG/1.1/DTD/svg11.dtd">
<svg version="1.1" xmlns="http://www.w3.org/2000/svg" xmlns:xlink="http://www.w3.org/1999/xlink" width="19.1602" height="19.1504">
 <g>
  <rect height="19.1504" opacity="0" width="19.1602" x="0" y="0"/>
  <path d="M9.57031 19.1406Q11.5527 19.1406 13.2861 18.3984Q15.0195 17.6562 16.3379 16.333Q17.6562 15.0098 18.4082 13.2764Q19.1602 11.543 19.1602 9.57031Q19.1602 7.59766 18.4082 5.86426Q17.6562 4.13086 16.3379 2.80762Q15.0195 1.48438 13.2861 0.742188Q11.5527 0 9.57031 0Q7.59766 0 5.86426 0.742188Q4.13086 1.48438 2.81738 2.80762Q1.50391 4.13086 0.751953 5.86426Q0 7.59766 0 9.57031Q0 11.543 0.74707 13.2764Q1.49414 15.0098 2.8125 16.333Q4.13086 17.6562 5.86914 18.3984Q7.60742 19.1406 9.57031 19.1406ZM9.57031 18.3984Q7.74414 18.3984 6.14746 17.71Q4.55078 17.0215 3.33496 15.8105Q2.11914 14.5996 1.43555 12.998Q0.751953 11.3965 0.751953 9.57031Q0.751953 7.74414 1.43555 6.14258Q2.11914 4.54102 3.33496 3.3252Q4.55078 2.10938 6.14746 1.4209Q7.74414 0.732422 9.57031 0.732422Q11.4062 0.732422 13.0029 1.4209Q14.5996 2.10938 15.8154 3.3252Q17.0312 4.54102 17.7197 6.14258Q18.4082 7.74414 18.4082 9.57031Q18.4082 11.3965 17.7246 12.998Q17.041 14.5996 15.8252 15.8105Q14.6094 17.0215 13.0078 17.71Q11.4062 18.3984 9.57031 18.3984Z" fill="#007aff"/>
  <path d="M13.7305 10.0195Q13.7305 8.85742 13.1738 7.9248Q12.6172 6.99219 11.6846 6.44531Q10.752 5.89844 9.60938 5.89844Q9.38477 5.89844 9.16504 5.92285Q8.94531 5.94727 8.75977 5.97656L10.1855 4.55078Q10.2441 4.48242 10.2588 4.41406Q10.2734 4.3457 10.2734 4.27734Q10.2734 4.13086 10.1807 4.0332Q10.0879 3.93555 9.94141 3.93555Q9.85352 3.93555 9.78516 3.97461Q9.7168 4.01367 9.64844 4.08203L7.62695 6.17188Q7.50977 6.29883 7.51465 6.46484Q7.51953 6.63086 7.62695 6.73828L9.69727 8.87695Q9.78516 8.98438 9.92188 8.98438Q10.0684 8.98438 10.1709 8.88184Q10.2734 8.7793 10.2734 8.65234Q10.2734 8.4668 10.1367 8.33008L8.48633 6.68945Q8.91602 6.5918 9.57031 6.5918Q10.5371 6.5918 11.3232 7.0459Q12.1094 7.5 12.5684 8.28125Q13.0273 9.0625 13.0273 10.0195Q13.0273 10.9961 12.5684 11.7822Q12.1094 12.5684 11.3232 13.0322Q10.5371 13.4961 9.57031 13.4961Q8.60352 13.4961 7.82227 13.0322Q7.04102 12.5684 6.58691 11.7822Q6.13281 10.9961 6.13281 10.0195Q6.13281 9.88281 6.02539 9.78027Q5.91797 9.67773 5.76172 9.67773Q5.64453 9.67773 5.53711 9.78027Q5.42969 9.88281 5.42969 10.0195Q5.42969 11.1914 5.98145 12.1387Q6.5332 13.0859 7.4707 13.6377Q8.4082 14.1895 9.57031 14.1895Q10.7324 14.1895 11.6748 13.6377Q12.6172 13.0859 13.1738 12.1338Q13.7305 11.1816 13.7305 10.0195Z" fill="#ffffff"/>
 </g>
</svg>
