<?xml version="1.0" encoding="UTF-8"?>
<!--Generator: Apple Native CoreSVG 175.5-->
<!DOCTYPE svg
PUBLIC "-//W3C//DTD SVG 1.1//EN"
       "http://www.w3.org/Graphics/SVG/1.1/DTD/svg11.dtd">
<svg version="1.1" xmlns="http://www.w3.org/2000/svg" xmlns:xlink="http://www.w3.org/1999/xlink" width="14.8047" height="20.2441">
 <g>
  <rect height="20.2441" opacity="0" width="14.8047" x="0" y="0"/>
  <path d="M14.8047 11.0742Q14.8047 10.7129 14.5654 10.4688Q14.3262 10.2246 13.9648 10.2246Q13.7891 10.2246 13.6279 10.2832Q13.4668 10.3418 13.3496 10.459L11.123 12.6465L7.62695 16.4844L8.17383 16.6797L8.27148 13.7695L8.27148 0.898438Q8.27148 0.527344 8.02734 0.283203Q7.7832 0.0390625 7.40234 0.0390625Q7.02148 0.0390625 6.77734 0.283203Q6.5332 0.527344 6.5332 0.898438L6.5332 13.7695L6.63086 16.6797L7.1875 16.4844L3.68164 12.6465L1.45508 10.459Q1.33789 10.3418 1.17676 10.2832Q1.01562 10.2246 0.839844 10.2246Q0.478516 10.2246 0.239258 10.4688Q0 10.7129 0 11.0742Q0 11.4258 0.273438 11.709L6.74805 18.2031Q6.89453 18.3496 7.06055 18.4229Q7.22656 18.4961 7.40234 18.4961Q7.58789 18.4961 7.75391 18.4229Q7.91992 18.3496 8.05664 18.2031L14.541 11.709Q14.8047 11.4258 14.8047 11.0742ZM14.8047 19.3652Q14.8047 18.9844 14.5703 18.7402Q14.3359 18.4961 13.9648 18.4961L0.859375 18.4961Q0.478516 18.4961 0.239258 18.7402Q0 18.9844 0 19.3652Q0 19.7461 0.239258 19.9951Q0.478516 20.2441 0.859375 20.2441L13.9648 20.2441Q14.3359 20.2441 14.5703 19.9951Q14.8047 19.7461 14.8047 19.3652Z" fill="#ffffff"/>
 </g>
</svg>
