<?xml version="1.0" encoding="UTF-8"?>
<!--Generator: Apple Native CoreSVG 175.5-->
<!DOCTYPE svg
PUBLIC "-//W3C//DTD SVG 1.1//EN"
       "http://www.w3.org/Graphics/SVG/1.1/DTD/svg11.dtd">
<svg version="1.1" xmlns="http://www.w3.org/2000/svg" xmlns:xlink="http://www.w3.org/1999/xlink" width="19.9219" height="19.9316">
 <g>
  <rect height="19.9316" opacity="0" width="19.9219" x="0" y="0"/>
  <path d="M9.96094 19.9316Q12.002 19.9316 13.8037 19.1504Q15.6055 18.3691 16.9824 16.9922Q18.3594 15.6152 19.1406 13.8135Q19.9219 12.0117 19.9219 9.9707Q19.9219 7.92969 19.1406 6.12793Q18.3594 4.32617 16.9824 2.94922Q15.6055 1.57227 13.7988 0.791016Q11.9922 0.00976562 9.95117 0.00976562Q7.91016 0.00976562 6.1084 0.791016Q4.30664 1.57227 2.93457 2.94922Q1.5625 4.32617 0.78125 6.12793Q0 7.92969 0 9.9707Q0 12.0117 0.78125 13.8135Q1.5625 15.6152 2.93945 16.9922Q4.31641 18.3691 6.11816 19.1504Q7.91992 19.9316 9.96094 19.9316Z" fill="#007aff"/>
  <path d="M9.95117 15.9863Q9.63867 15.9863 9.44824 15.7959Q9.25781 15.6055 9.25781 15.3125L9.25781 10.7031L9.38477 8.84766L7.54883 10.9082L6.97266 11.5332Q6.88477 11.6406 6.7627 11.6895Q6.64062 11.7383 6.48438 11.7383Q6.19141 11.7383 6.01074 11.5479Q5.83008 11.3574 5.83008 11.0645Q5.83008 10.7715 6.04492 10.5664L9.44336 7.08984Q9.55078 6.97266 9.67773 6.91895Q9.80469 6.86523 9.95117 6.86523Q10.0879 6.86523 10.2148 6.92871Q10.3418 6.99219 10.459 7.08984L13.8574 10.5566Q13.9844 10.6738 14.0332 10.8008Q14.082 10.9277 14.082 11.0645Q14.082 11.3477 13.9014 11.543Q13.7207 11.7383 13.4375 11.7383Q13.3008 11.7383 13.1689 11.6895Q13.0371 11.6406 12.9395 11.5332L12.3145 10.8984L10.5176 8.85742L10.6152 10.7031L10.6152 15.3125Q10.6152 15.6055 10.4248 15.7959Q10.2344 15.9863 9.95117 15.9863ZM6.17188 6.09375Q5.87891 6.09375 5.69336 5.90332Q5.50781 5.71289 5.50781 5.42969Q5.50781 5.12695 5.69336 4.93164Q5.87891 4.73633 6.17188 4.73633L13.7402 4.73633Q14.0332 4.73633 14.2188 4.93164Q14.4043 5.12695 14.4043 5.42969Q14.4043 5.71289 14.2188 5.90332Q14.0332 6.09375 13.7402 6.09375Z" fill="#ffffff"/>
 </g>
</svg>
