<?xml version="1.0" encoding="UTF-8"?>
<!--Generator: Apple Native CoreSVG 175.5-->
<!DOCTYPE svg
PUBLIC "-//W3C//DTD SVG 1.1//EN"
       "http://www.w3.org/Graphics/SVG/1.1/DTD/svg11.dtd">
<svg version="1.1" xmlns="http://www.w3.org/2000/svg" xmlns:xlink="http://www.w3.org/1999/xlink" width="17.9785" height="18.0176">
 <g>
  <rect height="18.0176" opacity="0" width="17.9785" x="0" y="0"/>
  <path d="M3.06641 17.9785L14.9121 17.9785Q16.4453 17.9785 17.2119 17.2217Q17.9785 16.4648 17.9785 14.9512L17.9785 3.02734Q17.9785 1.51367 17.2119 0.756836Q16.4453 0 14.9121 0L3.06641 0Q1.5332 0 0.766602 0.756836Q0 1.51367 0 3.02734L0 14.9512Q0 16.4648 0.766602 17.2217Q1.5332 17.9785 3.06641 17.9785ZM3.08594 16.4062Q2.35352 16.4062 1.96289 16.0205Q1.57227 15.6348 1.57227 14.873L1.57227 3.10547Q1.57227 2.34375 1.96289 1.95801Q2.35352 1.57227 3.08594 1.57227L14.8926 1.57227Q15.6152 1.57227 16.0107 1.95801Q16.4062 2.34375 16.4062 3.10547L16.4062 14.873Q16.4062 15.6348 16.0107 16.0205Q15.6152 16.4062 14.8926 16.4062Z" fill="#007aff"/>
  <path d="M14.043 10.1758Q14.043 8.99414 13.5254 8.14941Q13.0078 7.30469 12.1094 6.85059Q11.2109 6.39648 10.0684 6.39648L7.1582 6.39648L5.99609 6.43555L6.76758 5.83008L7.7832 4.85352Q7.99805 4.64844 7.99805 4.3457Q7.99805 4.04297 7.79785 3.83789Q7.59766 3.63281 7.30469 3.63281Q7.00195 3.63281 6.79688 3.84766L4.20898 6.48438Q3.94531 6.73828 3.94531 7.08008Q3.94531 7.41211 4.20898 7.66602L6.80664 10.332Q7.01172 10.5371 7.31445 10.5371Q7.59766 10.5371 7.79785 10.332Q7.99805 10.127 7.99805 9.82422Q7.99805 9.51172 7.79297 9.31641L6.57227 8.14453L5.99609 7.72461L7.1582 7.76367L10.0684 7.76367Q11.1523 7.76367 11.8799 8.36426Q12.6074 8.96484 12.6074 10.0977Q12.6074 11.25 11.8896 11.9189Q11.1719 12.5879 10.0586 12.5879Q10 12.5879 9.67773 12.5879Q9.35547 12.5879 9.03809 12.5879Q8.7207 12.5879 8.70117 12.5879Q8.39844 12.5879 8.18359 12.7637Q7.96875 12.9395 7.96875 13.2812Q7.96875 13.623 8.18359 13.8037Q8.39844 13.9844 8.7207 13.9844Q8.75 13.9844 9.05762 13.9844Q9.36523 13.9844 9.68262 13.9844Q10 13.9844 10.0586 13.9844Q11.2012 13.9844 12.1045 13.5205Q13.0078 13.0566 13.5254 12.2021Q14.043 11.3477 14.043 10.1758Z" fill="#ffffff"/>
 </g>
</svg>
