<?xml version="1.0" encoding="UTF-8"?>
<!--Generator: Apple Native CoreSVG 175.5-->
<!DOCTYPE svg
PUBLIC "-//W3C//DTD SVG 1.1//EN"
       "http://www.w3.org/Graphics/SVG/1.1/DTD/svg11.dtd">
<svg version="1.1" xmlns="http://www.w3.org/2000/svg" xmlns:xlink="http://www.w3.org/1999/xlink" width="18.6133" height="18.6426">
 <g>
  <rect height="18.6426" opacity="0" width="18.6133" x="0" y="0"/>
  <path d="M0.898438 7.90039Q1.28906 7.90039 1.53809 7.6416Q1.78711 7.38281 1.78711 6.99219L1.78711 6.17188L1.5918 2.76367L4.16016 5.46875L7.16797 8.49609Q7.41211 8.75 7.7832 8.75Q8.20312 8.75 8.47656 8.50098Q8.75 8.25195 8.75 7.8418Q8.75 7.64648 8.68164 7.4707Q8.61328 7.29492 8.48633 7.16797L5.46875 4.16016L2.76367 1.5918L6.18164 1.78711L6.99219 1.78711Q7.38281 1.78711 7.64648 1.53809Q7.91016 1.28906 7.91016 0.898438Q7.91016 0.507812 7.65137 0.253906Q7.39258 0 6.99219 0L1.57227 0Q0.830078 0 0.415039 0.415039Q0 0.830078 0 1.57227L0 6.99219Q0 7.37305 0.253906 7.63672Q0.507812 7.90039 0.898438 7.90039ZM11.6113 18.6328L17.0312 18.6328Q17.7832 18.6328 18.1982 18.2178Q18.6133 17.8027 18.6133 17.0605L18.6133 11.6406Q18.6133 11.2598 18.3545 10.9961Q18.0957 10.7324 17.7051 10.7324Q17.3242 10.7324 17.0703 10.9912Q16.8164 11.25 16.8164 11.6406L16.8164 12.4609L17.0215 15.8691L14.4434 13.1641L11.4453 10.1367Q11.2012 9.88281 10.8203 9.88281Q10.4102 9.88281 10.1318 10.1318Q9.85352 10.3809 9.85352 10.791Q9.85352 10.9863 9.92188 11.1621Q9.99023 11.3379 10.127 11.4648L13.1348 14.4727L15.8496 17.041L12.4316 16.8457L11.6113 16.8457Q11.2207 16.8457 10.957 17.0947Q10.6934 17.3438 10.6934 17.7344Q10.6934 18.125 10.957 18.3789Q11.2207 18.6328 11.6113 18.6328Z" fill="#ffffff"/>
 </g>
</svg>
