<?xml version="1.0" encoding="UTF-8"?>
<!--Generator: Apple Native CoreSVG 175.5-->
<!DOCTYPE svg
PUBLIC "-//W3C//DTD SVG 1.1//EN"
       "http://www.w3.org/Graphics/SVG/1.1/DTD/svg11.dtd">
<svg version="1.1" xmlns="http://www.w3.org/2000/svg" xmlns:xlink="http://www.w3.org/1999/xlink" width="19.9219" height="19.9316">
 <g>
  <rect height="19.9316" opacity="0" width="19.9219" x="0" y="0"/>
  <path d="M9.96094 19.9219Q12.002 19.9219 13.8037 19.1406Q15.6055 18.3594 16.9824 16.9824Q18.3594 15.6055 19.1406 13.8037Q19.9219 12.002 19.9219 9.96094Q19.9219 7.91992 19.1406 6.11816Q18.3594 4.31641 16.9824 2.93945Q15.6055 1.5625 13.7988 0.78125Q11.9922 0 9.95117 0Q7.91016 0 6.1084 0.78125Q4.30664 1.5625 2.93457 2.93945Q1.5625 4.31641 0.78125 6.11816Q0 7.91992 0 9.96094Q0 12.002 0.78125 13.8037Q1.5625 15.6055 2.93945 16.9824Q4.31641 18.3594 6.11816 19.1406Q7.91992 19.9219 9.96094 19.9219ZM9.96094 18.2617Q8.23242 18.2617 6.72852 17.6172Q5.22461 16.9727 4.08691 15.835Q2.94922 14.6973 2.30957 13.1934Q1.66992 11.6895 1.66992 9.96094Q1.66992 8.23242 2.30957 6.72852Q2.94922 5.22461 4.08203 4.08203Q5.21484 2.93945 6.71875 2.2998Q8.22266 1.66016 9.95117 1.66016Q11.6797 1.66016 13.1885 2.2998Q14.6973 2.93945 15.835 4.08203Q16.9727 5.22461 17.6172 6.72852Q18.2617 8.23242 18.2617 9.96094Q18.2617 11.6895 17.6221 13.1934Q16.9824 14.6973 15.8398 15.835Q14.6973 16.9727 13.1934 17.6172Q11.6895 18.2617 9.96094 18.2617Z" fill="#007aff"/>
  <path d="M9.9707 3.88672Q9.67773 3.88672 9.39453 4.16016L6.57227 6.98242Q6.47461 7.08008 6.4209 7.20703Q6.36719 7.33398 6.36719 7.49023Q6.36719 7.79297 6.57227 7.99316Q6.77734 8.19336 7.08008 8.19336Q7.23633 8.19336 7.36816 8.13477Q7.5 8.07617 7.59766 7.97852L8.32031 7.23633L9.31641 6.04492L9.23828 8.11523L9.23828 11.7969L9.31641 13.8672L8.32031 12.6758L7.59766 11.9336Q7.5 11.8359 7.36816 11.7773Q7.23633 11.7188 7.08008 11.7188Q6.77734 11.7188 6.57227 11.9189Q6.36719 12.1191 6.36719 12.4219Q6.36719 12.5781 6.4209 12.7051Q6.47461 12.832 6.57227 12.9297L9.39453 15.752Q9.67773 16.0254 9.9707 16.0254Q10.2441 16.0254 10.5371 15.752L13.3691 12.9297Q13.4668 12.832 13.5156 12.7051Q13.5645 12.5781 13.5645 12.4219Q13.5645 12.1191 13.3643 11.9189Q13.1641 11.7188 12.8613 11.7188Q12.7051 11.7188 12.5732 11.7773Q12.4414 11.8359 12.3438 11.9336L11.6113 12.6758L10.625 13.8574L10.7031 11.7969L10.7031 8.11523L10.625 6.05469L11.6113 7.23633L12.3438 7.97852Q12.4414 8.07617 12.5732 8.13477Q12.7051 8.19336 12.8613 8.19336Q13.1641 8.19336 13.3643 7.99316Q13.5645 7.79297 13.5645 7.49023Q13.5645 7.33398 13.5156 7.20703Q13.4668 7.08008 13.3691 6.98242L10.5371 4.16016Q10.2441 3.88672 9.9707 3.88672Z" fill="#ffffff"/>
 </g>
</svg>
