<?xml version="1.0" encoding="UTF-8"?>
<!--Generator: Apple Native CoreSVG 175.5-->
<!DOCTYPE svg
PUBLIC "-//W3C//DTD SVG 1.1//EN"
       "http://www.w3.org/Graphics/SVG/1.1/DTD/svg11.dtd">
<svg version="1.1" xmlns="http://www.w3.org/2000/svg" xmlns:xlink="http://www.w3.org/1999/xlink" width="17.9785" height="17.998">
 <g>
  <rect height="17.998" opacity="0" width="17.9785" x="0" y="0"/>
  <path d="M3.06641 17.998L14.9121 17.998Q16.4453 17.998 17.2119 17.2412Q17.9785 16.4844 17.9785 14.9707L17.9785 3.04688Q17.9785 1.5332 17.2119 0.776367Q16.4453 0.0195312 14.9121 0.0195312L3.06641 0.0195312Q1.5332 0.0195312 0.766602 0.776367Q0 1.5332 0 3.04688L0 14.9707Q0 16.4844 0.766602 17.2412Q1.5332 17.998 3.06641 17.998Z" fill="#007aff"/>
  <path d="M9.01367 14.0234Q8.68164 14.0234 8.4668 13.8135Q8.25195 13.6035 8.25195 13.2617L8.25195 8.25195L8.33008 6.11328L7.32422 7.32422L6.13281 8.52539Q5.9082 8.75 5.5957 8.75Q5.2832 8.75 5.07324 8.54004Q4.86328 8.33008 4.86328 8.01758Q4.86328 7.69531 5.06836 7.49023L8.42773 4.15039Q8.71094 3.85742 9.01367 3.85742Q9.31641 3.85742 9.59961 4.15039L12.959 7.49023Q13.1641 7.70508 13.1641 8.01758Q13.1641 8.33008 12.9492 8.54004Q12.7344 8.75 12.4219 8.75Q12.0898 8.75 11.8848 8.52539L10.7031 7.32422L9.6875 6.10352L9.76562 8.25195L9.76562 13.2617Q9.76562 13.6035 9.55566 13.8135Q9.3457 14.0234 9.01367 14.0234Z" fill="#ffffff"/>
 </g>
</svg>
