<?xml version="1.0" encoding="UTF-8"?>
<!--Generator: Apple Native CoreSVG 175-->
<!DOCTYPE svg
PUBLIC "-//W3C//DTD SVG 1.1//EN"
       "http://www.w3.org/Graphics/SVG/1.1/DTD/svg11.dtd">
<svg version="1.1" xmlns="http://www.w3.org/2000/svg" xmlns:xlink="http://www.w3.org/1999/xlink" width="18.1348" height="14.248">
 <g>
  <rect height="14.248" opacity="0" width="18.1348" x="0" y="0"/>
  <path d="M0 7.11914Q0 7.27539 0.117188 7.39258L6.80664 14.1211Q6.93359 14.2383 7.08008 14.2383Q7.24609 14.2383 7.35352 14.1309Q7.46094 14.0234 7.46094 13.8672Q7.46094 13.7988 7.43652 13.7207Q7.41211 13.6426 7.36328 13.5938L3.45703 9.6875L0.830078 7.14844L0.732422 7.43164L3.26172 7.49023L17.7637 7.49023Q17.9199 7.49023 18.0273 7.3877Q18.1348 7.28516 18.1348 7.11914Q18.1348 6.95312 18.0273 6.85059Q17.9199 6.74805 17.7637 6.74805L3.26172 6.74805L0.732422 6.80664L0.830078 7.08984L3.45703 4.55078L7.36328 0.644531Q7.41211 0.585938 7.43652 0.512695Q7.46094 0.439453 7.46094 0.371094Q7.46094 0.214844 7.35352 0.107422Q7.24609 0 7.08008 0Q7.00195 0 6.91895 0.0390625Q6.83594 0.078125 6.71875 0.195312L0.117188 6.8457Q0 6.96289 0 7.11914Z" fill="#ffffff"/>
 </g>
</svg>
