<?xml version="1.0" encoding="UTF-8"?>
<!--Generator: Apple Native CoreSVG 175.5-->
<!DOCTYPE svg
PUBLIC "-//W3C//DTD SVG 1.1//EN"
       "http://www.w3.org/Graphics/SVG/1.1/DTD/svg11.dtd">
<svg version="1.1" xmlns="http://www.w3.org/2000/svg" xmlns:xlink="http://www.w3.org/1999/xlink" width="15.9277" height="15.5371">
 <g>
  <rect height="15.5371" opacity="0" width="15.9277" x="0" y="0"/>
  <path d="M14.7559 0.00976562Q14.4629 0.00976562 14.2041 0.12207Q13.9453 0.234375 13.6426 0.380859L1.09375 6.47461Q0.46875 6.77734 0.234375 7.08008Q0 7.38281 0 7.77344Q0 8.16406 0.234375 8.4668Q0.46875 8.76953 1.09375 9.08203L13.6426 15.166Q13.9551 15.3223 14.2139 15.4297Q14.4727 15.5371 14.7656 15.5371Q15.3027 15.5371 15.6152 15.1562Q15.9277 14.7754 15.9277 14.1406L15.9277 1.40625Q15.9277 0.771484 15.6104 0.390625Q15.293 0.00976562 14.7559 0.00976562Z" fill="#ffffff"/>
 </g>
</svg>
