<?xml version="1.0" encoding="UTF-8"?>
<!--Generator: Apple Native CoreSVG 175.5-->
<!DOCTYPE svg
PUBLIC "-//W3C//DTD SVG 1.1//EN"
       "http://www.w3.org/Graphics/SVG/1.1/DTD/svg11.dtd">
<svg version="1.1" xmlns="http://www.w3.org/2000/svg" xmlns:xlink="http://www.w3.org/1999/xlink" width="15.5371" height="15.9473">
 <g>
  <rect height="15.9473" opacity="0" width="15.5371" x="0" y="0"/>
  <path d="M15.5371 1.19141Q15.5371 0.654297 15.1562 0.336914Q14.7754 0.0195312 14.1309 0.0195312L1.39648 0.00976562Q0.761719 0.00976562 0.380859 0.327148Q0 0.644531 0 1.18164Q0 1.47461 0.112305 1.7334Q0.224609 1.99219 0.371094 2.30469L6.46484 14.8535Q6.76758 15.4785 7.0752 15.7129Q7.38281 15.9473 7.76367 15.9473Q8.1543 15.9473 8.45703 15.7129Q8.75977 15.4785 9.07227 14.8535L15.1562 2.30469Q15.3125 2.00195 15.4248 1.74316Q15.5371 1.48438 15.5371 1.19141Z" fill="#ffffff"/>
 </g>
</svg>
