<?xml version="1.0" encoding="UTF-8"?>
<!--Generator: Apple Native CoreSVG 175.5-->
<!DOCTYPE svg
PUBLIC "-//W3C//DTD SVG 1.1//EN"
       "http://www.w3.org/Graphics/SVG/1.1/DTD/svg11.dtd">
<svg version="1.1" xmlns="http://www.w3.org/2000/svg" xmlns:xlink="http://www.w3.org/1999/xlink" width="29.7266" height="18.5645">
 <g>
  <rect height="18.5645" opacity="0" width="29.7266" x="0" y="0"/>
  <path d="M0 9.10156Q0 9.48242 0.239258 9.72656Q0.478516 9.9707 0.859375 9.9707L7.51953 9.9707L9.46289 9.91211L6.24023 13.0176Q6.11328 13.1348 6.05469 13.3008Q5.99609 13.4668 5.99609 13.6426Q5.99609 14.0137 6.24512 14.2529Q6.49414 14.4922 6.85547 14.4922Q7.03125 14.4922 7.19727 14.4238Q7.36328 14.3555 7.50977 14.209L11.9727 9.75586Q12.1094 9.60938 12.1924 9.44336Q12.2754 9.27734 12.2754 9.10156Q12.2754 8.91602 12.1924 8.75Q12.1094 8.58398 11.9727 8.4375L7.50977 3.98438Q7.36328 3.83789 7.19727 3.76953Q7.03125 3.70117 6.85547 3.70117Q6.49414 3.70117 6.24512 3.94043Q5.99609 4.17969 5.99609 4.55078Q5.99609 4.7168 6.05469 4.88281Q6.11328 5.04883 6.24023 5.17578L9.46289 8.29102L7.51953 8.22266L0.859375 8.22266Q0.478516 8.22266 0.239258 8.4668Q0 8.71094 0 9.10156ZM14.8633 18.5645Q15.2441 18.5645 15.4883 18.3203Q15.7324 18.0762 15.7324 17.6953L15.7324 0.849609Q15.7324 0.478516 15.4883 0.239258Q15.2441 0 14.8633 0Q14.4824 0 14.2334 0.239258Q13.9844 0.478516 13.9844 0.849609L13.9844 17.6953Q13.9844 18.0762 14.2334 18.3203Q14.4824 18.5645 14.8633 18.5645ZM29.7266 9.10156Q29.7266 8.71094 29.4824 8.4668Q29.2383 8.22266 28.8574 8.22266L22.207 8.22266L20.2539 8.29102L23.4766 5.17578Q23.6035 5.04883 23.6621 4.88281Q23.7207 4.7168 23.7207 4.55078Q23.7207 4.17969 23.4766 3.94043Q23.2324 3.70117 22.8711 3.70117Q22.6855 3.70117 22.5195 3.76953Q22.3535 3.83789 22.207 3.98438L17.7441 8.4375Q17.6074 8.58398 17.5293 8.75Q17.4512 8.91602 17.4512 9.10156Q17.4512 9.27734 17.5293 9.44336Q17.6074 9.60938 17.7441 9.75586L22.207 14.209Q22.3535 14.3555 22.5195 14.4238Q22.6855 14.4922 22.8711 14.4922Q23.2324 14.4922 23.4766 14.2529Q23.7207 14.0137 23.7207 13.6426Q23.7207 13.4668 23.6621 13.3008Q23.6035 13.1348 23.4766 13.0176L20.2539 9.91211L22.207 9.9707L28.8574 9.9707Q29.2383 9.9707 29.4824 9.72656Q29.7266 9.48242 29.7266 9.10156Z" fill="#ffffff"/>
 </g>
</svg>
