<?xml version="1.0" encoding="UTF-8"?>
<!--Generator: Apple Native CoreSVG 175.5-->
<!DOCTYPE svg
PUBLIC "-//W3C//DTD SVG 1.1//EN"
       "http://www.w3.org/Graphics/SVG/1.1/DTD/svg11.dtd">
<svg version="1.1" xmlns="http://www.w3.org/2000/svg" xmlns:xlink="http://www.w3.org/1999/xlink" width="19.9219" height="19.9316">
 <g>
  <rect height="19.9316" opacity="0" width="19.9219" x="0" y="0"/>
  <path d="M9.96094 19.9219Q12.002 19.9219 13.8037 19.1406Q15.6055 18.3594 16.9824 16.9824Q18.3594 15.6055 19.1406 13.8037Q19.9219 12.002 19.9219 9.96094Q19.9219 7.91992 19.1406 6.11816Q18.3594 4.31641 16.9824 2.93945Q15.6055 1.5625 13.7988 0.78125Q11.9922 0 9.95117 0Q7.91016 0 6.1084 0.78125Q4.30664 1.5625 2.93457 2.93945Q1.5625 4.31641 0.78125 6.11816Q0 7.91992 0 9.96094Q0 12.002 0.78125 13.8037Q1.5625 15.6055 2.93945 16.9824Q4.31641 18.3594 6.11816 19.1406Q7.91992 19.9219 9.96094 19.9219ZM9.96094 18.2617Q8.23242 18.2617 6.72852 17.6172Q5.22461 16.9727 4.08691 15.835Q2.94922 14.6973 2.30957 13.1934Q1.66992 11.6895 1.66992 9.96094Q1.66992 8.23242 2.30957 6.72852Q2.94922 5.22461 4.08203 4.08203Q5.21484 2.93945 6.71875 2.2998Q8.22266 1.66016 9.95117 1.66016Q11.6797 1.66016 13.1885 2.2998Q14.6973 2.93945 15.835 4.08203Q16.9727 5.22461 17.6172 6.72852Q18.2617 8.23242 18.2617 9.96094Q18.2617 11.6895 17.6221 13.1934Q16.9824 14.6973 15.8398 15.835Q14.6973 16.9727 13.1934 17.6172Q11.6895 18.2617 9.96094 18.2617Z" fill="#007aff"/>
  <path d="M5.5957 10.4004Q5.5957 11.6211 6.18164 12.6221Q6.76758 13.623 7.75391 14.2139Q8.74023 14.8047 9.95117 14.8047Q11.1523 14.8047 12.1436 14.2139Q13.1348 13.623 13.7207 12.6318Q14.3066 11.6406 14.3066 10.4297Q14.3066 10.166 14.1064 9.9707Q13.9062 9.77539 13.6328 9.77539Q13.3594 9.77539 13.1592 9.9707Q12.959 10.166 12.959 10.4297Q12.959 11.2695 12.5537 11.958Q12.1484 12.6465 11.4697 13.0518Q10.791 13.457 9.95117 13.457Q9.11133 13.457 8.42773 13.0518Q7.74414 12.6465 7.34375 11.958Q6.94336 11.2695 6.94336 10.4297Q6.94336 9.59961 7.34375 8.91602Q7.74414 8.23242 8.42773 7.83203Q9.11133 7.43164 9.95117 7.43164Q10.166 7.43164 10.3027 7.45117L9.35547 8.38867Q9.16992 8.57422 9.16992 8.83789Q9.16992 9.0918 9.3457 9.27246Q9.52148 9.45312 9.78516 9.45312Q10.0293 9.45312 10.2148 9.26758L12.1094 7.37305Q12.2852 7.19727 12.2803 6.92383Q12.2754 6.65039 12.1094 6.47461L10.2344 4.56055Q10.1465 4.47266 10.0293 4.41895Q9.91211 4.36523 9.78516 4.36523Q9.52148 4.36523 9.3457 4.55078Q9.16992 4.73633 9.16992 4.99023Q9.16992 5.11719 9.21387 5.23438Q9.25781 5.35156 9.33594 5.43945L10.0293 6.14258Q9.98047 6.13281 9.90723 6.12793Q9.83398 6.12305 9.76562 6.12305Q8.66211 6.12305 7.71484 6.69434Q6.76758 7.26562 6.18164 8.23242Q5.5957 9.19922 5.5957 10.4004Z" fill="#ffffff"/>
 </g>
</svg>
