<?xml version="1.0" encoding="UTF-8"?>
<!--Generator: Apple Native CoreSVG 175-->
<!DOCTYPE svg
PUBLIC "-//W3C//DTD SVG 1.1//EN"
       "http://www.w3.org/Graphics/SVG/1.1/DTD/svg11.dtd">
<svg version="1.1" xmlns="http://www.w3.org/2000/svg" xmlns:xlink="http://www.w3.org/1999/xlink" width="18.0859" height="18.4473">
 <g>
  <rect height="18.4473" opacity="0" width="18.0859" x="0" y="0"/>
  <path d="M18.0859 12.8223Q18.0859 11.1426 17.3438 9.87305Q16.6016 8.60352 15.2441 7.89551Q13.8867 7.1875 12.0508 7.1875L3.26172 7.1875L0.908203 7.23633L0.976562 7.37305L3.16406 5.2832L6.61133 1.85547Q6.66016 1.80664 6.68457 1.7334Q6.70898 1.66016 6.70898 1.58203Q6.70898 1.42578 6.60645 1.31836Q6.50391 1.21094 6.32812 1.21094Q6.18164 1.21094 6.06445 1.32812L0.126953 7.28516Q0.0585938 7.34375 0.0292969 7.41211Q0 7.48047 0 7.55859Q0 7.64648 0.0292969 7.70996Q0.0585938 7.77344 0.126953 7.83203L6.06445 13.7988Q6.18164 13.9062 6.32812 13.9062Q6.50391 13.9062 6.60645 13.7988Q6.70898 13.6914 6.70898 13.5352Q6.70898 13.457 6.68457 13.3838Q6.66016 13.3105 6.61133 13.2715L3.16406 9.83398L0.976562 7.73438L0.908203 7.88086L3.26172 7.92969L12.0605 7.92969Q13.6816 7.92969 14.8633 8.54004Q16.0449 9.15039 16.6943 10.249Q17.3438 11.3477 17.3438 12.8027Q17.3438 14.2676 16.6943 15.3662Q16.0449 16.4648 14.8633 17.0898Q13.6816 17.7148 12.0605 17.7148L8.80859 17.7148Q8.63281 17.7148 8.53516 17.8174Q8.4375 17.9199 8.4375 18.0859Q8.4375 18.2422 8.54492 18.3447Q8.65234 18.4473 8.80859 18.4473L12.0801 18.4473Q13.9062 18.4473 15.2539 17.749Q16.6016 17.0508 17.3438 15.7861Q18.0859 14.5215 18.0859 12.8223Z" fill="#ffffff"/>
 </g>
</svg>
