<?xml version="1.0" encoding="UTF-8"?>
<!--Generator: Apple Native CoreSVG 175-->
<!DOCTYPE svg
PUBLIC "-//W3C//DTD SVG 1.1//EN"
       "http://www.w3.org/Graphics/SVG/1.1/DTD/svg11.dtd">
<svg version="1.1" xmlns="http://www.w3.org/2000/svg" xmlns:xlink="http://www.w3.org/1999/xlink" width="17.2852" height="17.3145">
 <g>
  <rect height="17.3145" opacity="0" width="17.2852" x="0" y="0"/>
  <path d="M2.62695 17.3145L14.6484 17.3145Q15.957 17.3145 16.6211 16.6455Q17.2852 15.9766 17.2852 14.6875L17.2852 2.65625Q17.2852 1.37695 16.6211 0.703125Q15.957 0.0292969 14.6484 0.0292969L2.62695 0.0292969Q1.33789 0.0292969 0.668945 0.693359Q0 1.35742 0 2.65625L0 14.6875Q0 15.9863 0.668945 16.6504Q1.33789 17.3145 2.62695 17.3145ZM2.65625 16.5918Q1.70898 16.5918 1.2207 16.1035Q0.732422 15.6152 0.732422 14.6582L0.732422 2.69531Q0.732422 1.72852 1.2207 1.24512Q1.70898 0.761719 2.65625 0.761719L14.6289 0.761719Q15.5566 0.761719 16.0596 1.24512Q16.5625 1.72852 16.5625 2.69531L16.5625 14.6582Q16.5625 15.6152 16.0596 16.1035Q15.5566 16.5918 14.6289 16.5918Z" fill="#007aff"/>
  <path d="M11.9727 10.9375Q12.1191 10.9375 12.2119 10.835Q12.3047 10.7324 12.3047 10.5664L12.3047 5.3418Q12.3047 5.16602 12.207 5.07324Q12.1094 4.98047 11.9531 4.98047L6.71875 4.98047Q6.54297 4.98047 6.44531 5.06836Q6.34766 5.15625 6.34766 5.30273Q6.34766 5.45898 6.44531 5.55664Q6.54297 5.6543 6.71875 5.6543L9.83398 5.6543L11.2012 5.61523L10.1465 6.64062L5.09766 11.6797Q4.98047 11.8066 4.98047 11.9434Q4.98047 12.1094 5.07812 12.2021Q5.17578 12.2949 5.33203 12.2949Q5.49805 12.2949 5.60547 12.1875L10.6445 7.14844L11.6504 6.09375L11.6211 7.8125L11.6211 10.5664Q11.6211 10.7324 11.7188 10.835Q11.8164 10.9375 11.9727 10.9375Z" fill="#ffffff"/>
 </g>
</svg>
