<?xml version="1.0" encoding="UTF-8"?>
<!--Generator: Apple Native CoreSVG 175.5-->
<!DOCTYPE svg
PUBLIC "-//W3C//DTD SVG 1.1//EN"
       "http://www.w3.org/Graphics/SVG/1.1/DTD/svg11.dtd">
<svg version="1.1" xmlns="http://www.w3.org/2000/svg" xmlns:xlink="http://www.w3.org/1999/xlink" width="19.9219" height="19.9316">
 <g>
  <rect height="19.9316" opacity="0" width="19.9219" x="0" y="0"/>
  <path d="M9.96094 19.9219Q12.002 19.9219 13.8037 19.1406Q15.6055 18.3594 16.9824 16.9824Q18.3594 15.6055 19.1406 13.8037Q19.9219 12.002 19.9219 9.96094Q19.9219 7.91992 19.1406 6.11816Q18.3594 4.31641 16.9824 2.93945Q15.6055 1.5625 13.7988 0.78125Q11.9922 0 9.95117 0Q7.91016 0 6.1084 0.78125Q4.30664 1.5625 2.93457 2.93945Q1.5625 4.31641 0.78125 6.11816Q0 7.91992 0 9.96094Q0 12.002 0.78125 13.8037Q1.5625 15.6055 2.93945 16.9824Q4.31641 18.3594 6.11816 19.1406Q7.91992 19.9219 9.96094 19.9219Z" fill="#007aff"/>
  <path d="M9.98047 15.1465Q9.58008 15.1465 9.35547 14.917Q9.13086 14.6875 9.13086 14.2871L9.21875 11.2695L6.49414 13.0371Q6.26953 13.1836 5.9668 13.1836Q5.6543 13.1836 5.41016 12.959Q5.16602 12.7344 5.16602 12.3438Q5.16602 11.875 5.6543 11.6113L8.49609 10.0098L5.6543 8.44727Q5.41016 8.30078 5.28809 8.125Q5.16602 7.94922 5.16602 7.69531Q5.16602 7.30469 5.41504 7.08008Q5.66406 6.85547 5.9668 6.85547Q6.26953 6.85547 6.49414 7.00195L9.21875 8.74023L9.13086 5.63477Q9.13086 5.23438 9.35547 4.99512Q9.58008 4.75586 9.98047 4.75586Q10.3809 4.75586 10.5908 4.98535Q10.8008 5.21484 10.791 5.63477L10.7031 8.74023L13.4277 6.99219Q13.6523 6.8457 13.9551 6.8457Q14.2676 6.8457 14.5117 7.07031Q14.7559 7.29492 14.7559 7.68555Q14.7559 7.92969 14.6387 8.11035Q14.5215 8.29102 14.2676 8.4375L11.4062 10.0098L14.2676 11.6211Q14.5117 11.748 14.6338 11.9238Q14.7559 12.0996 14.7559 12.3535Q14.7559 12.7441 14.5068 12.9688Q14.2578 13.1934 13.9551 13.1934Q13.6523 13.1934 13.4277 13.0469L10.7031 11.2695L10.791 14.2871Q10.8008 14.6973 10.5908 14.9219Q10.3809 15.1465 9.98047 15.1465Z" fill="#ffffff"/>
 </g>
</svg>
