<?xml version="1.0" encoding="UTF-8"?>
<!--Generator: Apple Native CoreSVG 175-->
<!DOCTYPE svg
PUBLIC "-//W3C//DTD SVG 1.1//EN"
       "http://www.w3.org/Graphics/SVG/1.1/DTD/svg11.dtd">
<svg version="1.1" xmlns="http://www.w3.org/2000/svg" xmlns:xlink="http://www.w3.org/1999/xlink" width="20.1485" height="21.2683">
 <g>
  <rect height="21.2683" opacity="0" width="20.1485" x="0" y="0"/>
  <path d="M0 10.8421Q0 13.1699 0.741959 15.0839Q1.48392 16.998 2.84531 18.3829Q4.2067 19.7679 6.06819 20.5181Q7.92969 21.2683 10.1617 21.2683Q11.4922 21.2683 12.5416 21.1556Q13.591 21.0429 14.1985 20.8508Q14.404 20.786 14.4959 20.6846Q14.5879 20.5832 14.5879 20.4433Q14.5879 20.3062 14.5008 20.2191Q14.4138 20.132 14.2668 20.132Q14.1579 20.132 14.0314 20.1712Q13.905 20.2104 13.7515 20.2354Q13.0711 20.3801 12.1848 20.4746Q11.2985 20.5692 10.2281 20.5692Q8.12775 20.5692 6.38947 19.8707Q4.65118 19.1722 3.38951 17.8861Q2.12784 16.6 1.43974 14.8137Q0.751648 13.0273 0.751648 10.8586Q0.751648 8.77075 1.45126 7.0211Q2.15088 5.27145 3.42216 3.98026Q4.69345 2.68906 6.4196 1.97502Q8.14575 1.26099 10.2086 1.26099Q12.2086 1.26099 13.8924 1.88751Q15.5762 2.51404 16.817 3.67462Q18.0579 4.83521 18.7416 6.44554Q19.4254 8.05588 19.4254 10.0163Q19.4254 11.7651 19.0553 13.0155Q18.6852 14.2659 17.9867 14.9331Q17.2882 15.6003 16.3116 15.6003Q15.2437 15.6003 14.6355 14.8677Q14.0274 14.1351 14.0274 12.8633L14.0274 6.17188Q14.0274 5.99213 13.9299 5.8857Q13.8324 5.77927 13.6652 5.77927Q13.4981 5.77927 13.3971 5.8857Q13.2961 5.99213 13.2961 6.17188L13.2961 8.19916L13.2434 8.19916Q12.8976 7.08984 11.9693 6.43456Q11.041 5.77927 9.81644 5.77927Q8.55667 5.77927 7.59552 6.44119Q6.63437 7.10312 6.09665 8.28964Q5.55893 9.47617 5.55893 11.0332Q5.55893 12.5816 6.09665 13.7533Q6.63437 14.9249 7.59689 15.5812Q8.55942 16.2375 9.82727 16.2375Q11.0657 16.2375 11.935 15.5812Q12.8043 14.9249 13.2692 13.6578L13.3218 13.6578Q13.5008 14.8801 14.2826 15.5742Q15.0644 16.2683 16.2547 16.2683Q17.4812 16.2683 18.348 15.5135Q19.2148 14.7586 19.6816 13.3576Q20.1485 11.9566 20.1485 10.0113Q20.1485 7.91321 19.4217 6.17905Q18.6949 4.44489 17.3689 3.18848Q16.0429 1.93207 14.2265 1.24825Q12.4101 0.564423 10.2211 0.564423Q7.995 0.564423 6.1264 1.32065Q4.25781 2.07687 2.88437 3.45383Q1.51093 4.83078 0.755463 6.71242Q0 8.59406 0 10.8421ZM9.88007 15.5382Q8.8324 15.5382 8.03459 14.9654Q7.23679 14.3925 6.7868 13.3791Q6.33682 12.3656 6.33682 11.0304Q6.33682 9.71481 6.7952 8.68164Q7.25357 7.64847 8.05489 7.0594Q8.8562 6.47034 9.88281 6.47034Q11.4626 6.47034 12.3801 7.65976Q13.2976 8.84918 13.2976 10.8859Q13.2976 12.2914 12.8716 13.3357Q12.4457 14.38 11.6776 14.9591Q10.9094 15.5382 9.88007 15.5382Z" fill="#ffffff"/>
 </g>
</svg>
