<?xml version="1.0" encoding="UTF-8"?>
<!--Generator: Apple Native CoreSVG 175.5-->
<!DOCTYPE svg
PUBLIC "-//W3C//DTD SVG 1.1//EN"
       "http://www.w3.org/Graphics/SVG/1.1/DTD/svg11.dtd">
<svg version="1.1" xmlns="http://www.w3.org/2000/svg" xmlns:xlink="http://www.w3.org/1999/xlink" width="17.9785" height="17.998">
 <g>
  <rect height="17.998" opacity="0" width="17.9785" x="0" y="0"/>
  <path d="M3.06641 17.998L14.9121 17.998Q16.4453 17.998 17.2119 17.2412Q17.9785 16.4844 17.9785 14.9707L17.9785 3.04688Q17.9785 1.5332 17.2119 0.776367Q16.4453 0.0195312 14.9121 0.0195312L3.06641 0.0195312Q1.5332 0.0195312 0.766602 0.776367Q0 1.5332 0 3.04688L0 14.9707Q0 16.4844 0.766602 17.2412Q1.5332 17.998 3.06641 17.998Z" fill="#007aff"/>
  <path d="M4.89258 11.0742Q4.89258 10.8594 5.02441 10.7129Q5.15625 10.5664 5.38086 10.5664L6.25 10.5664L6.5332 9.7168L5.38086 9.7168Q5.15625 9.7168 5.02441 9.5752Q4.89258 9.43359 4.89258 9.21875Q4.89258 9.01367 5.02441 8.86719Q5.15625 8.7207 5.38086 8.7207L6.86523 8.7207L8.19336 4.6875Q8.29102 4.41406 8.48145 4.25781Q8.67188 4.10156 8.98438 4.10156Q9.29688 4.10156 9.4873 4.2627Q9.67773 4.42383 9.76562 4.6875L11.1035 8.7207L12.5977 8.7207Q12.8223 8.7207 12.9541 8.86719Q13.0859 9.01367 13.0859 9.21875Q13.0859 9.43359 12.9541 9.5752Q12.8223 9.7168 12.5977 9.7168L11.4355 9.7168L11.7188 10.5664L12.5977 10.5664Q12.8223 10.5664 12.9541 10.7129Q13.0859 10.8594 13.0859 11.0742Q13.0859 11.2891 12.9541 11.4258Q12.8223 11.5625 12.5977 11.5625L12.041 11.5625L12.5293 13.0371Q12.6074 13.3008 12.6074 13.3789Q12.6074 13.6328 12.4219 13.8037Q12.2363 13.9746 11.9434 13.9746Q11.6895 13.9746 11.5381 13.8574Q11.3867 13.7402 11.3086 13.4863L10.7031 11.5625L7.27539 11.5625L6.66992 13.4766Q6.5918 13.7305 6.43066 13.8525Q6.26953 13.9746 6.03516 13.9746Q5.74219 13.9746 5.55664 13.8037Q5.37109 13.6328 5.37109 13.3789Q5.37109 13.3105 5.38574 13.2324Q5.40039 13.1543 5.43945 13.0371L5.92773 11.5625L5.38086 11.5625Q5.15625 11.5625 5.02441 11.4258Q4.89258 11.2891 4.89258 11.0742ZM7.57812 10.5664L10.4004 10.5664L10.127 9.7168L7.8418 9.7168ZM8.14453 8.7207L9.82422 8.7207L8.98438 6.02539Z" fill="#ffffff"/>
 </g>
</svg>
