<?xml version="1.0" encoding="UTF-8"?>
<!--Generator: Apple Native CoreSVG 175-->
<!DOCTYPE svg
PUBLIC "-//W3C//DTD SVG 1.1//EN"
       "http://www.w3.org/Graphics/SVG/1.1/DTD/svg11.dtd">
<svg version="1.1" xmlns="http://www.w3.org/2000/svg" xmlns:xlink="http://www.w3.org/1999/xlink" width="19.1602" height="19.1504">
 <g>
  <rect height="19.1504" opacity="0" width="19.1602" x="0" y="0"/>
  <path d="M9.57031 19.1406Q11.5527 19.1406 13.2861 18.3984Q15.0195 17.6562 16.3379 16.333Q17.6562 15.0098 18.4082 13.2764Q19.1602 11.543 19.1602 9.57031Q19.1602 7.59766 18.4082 5.86426Q17.6562 4.13086 16.3379 2.80762Q15.0195 1.48438 13.2861 0.742188Q11.5527 0 9.57031 0Q7.59766 0 5.86426 0.742188Q4.13086 1.48438 2.81738 2.80762Q1.50391 4.13086 0.751953 5.86426Q0 7.59766 0 9.57031Q0 11.543 0.74707 13.2764Q1.49414 15.0098 2.8125 16.333Q4.13086 17.6562 5.86914 18.3984Q7.60742 19.1406 9.57031 19.1406ZM9.57031 18.3984Q7.74414 18.3984 6.14746 17.71Q4.55078 17.0215 3.33496 15.8105Q2.11914 14.5996 1.43555 12.998Q0.751953 11.3965 0.751953 9.57031Q0.751953 7.74414 1.43555 6.14258Q2.11914 4.54102 3.33496 3.3252Q4.55078 2.10938 6.14746 1.4209Q7.74414 0.732422 9.57031 0.732422Q11.4062 0.732422 13.0029 1.4209Q14.5996 2.10938 15.8154 3.3252Q17.0312 4.54102 17.7197 6.14258Q18.4082 7.74414 18.4082 9.57031Q18.4082 11.3965 17.7246 12.998Q17.041 14.5996 15.8252 15.8105Q14.6094 17.0215 13.0078 17.71Q11.4062 18.3984 9.57031 18.3984Z" fill="#007aff"/>
  <path d="M7.03125 13.9453L9.90234 13.9453Q11.3086 13.9453 12.124 13.3008Q12.9395 12.6562 12.9395 11.5234Q12.9395 10.6445 12.4121 10.0586Q11.8848 9.47266 10.9863 9.35547L10.9863 9.30664Q11.6211 9.16016 12.0264 8.61328Q12.4316 8.06641 12.4316 7.33398Q12.4316 6.37695 11.709 5.77637Q10.9863 5.17578 9.86328 5.17578L7.03125 5.17578Q6.65039 5.17578 6.65039 5.58594L6.65039 13.5352Q6.65039 13.9453 7.03125 13.9453ZM7.38281 9.12109L7.38281 5.81055L9.72656 5.81055Q10.6641 5.81055 11.1719 6.24512Q11.6797 6.67969 11.6797 7.46094Q11.6797 8.19336 11.0889 8.65723Q10.498 9.12109 9.57031 9.12109ZM7.38281 13.3105L7.38281 9.74609L10.0391 9.74609Q11.0352 9.74609 11.6016 10.2246Q12.168 10.7031 12.168 11.5332Q12.168 13.3105 9.58008 13.3105Z" fill="#ffffff"/>
 </g>
</svg>
