<?xml version="1.0" encoding="UTF-8"?>
<!--Generator: Apple Native CoreSVG 175.5-->
<!DOCTYPE svg
PUBLIC "-//W3C//DTD SVG 1.1//EN"
       "http://www.w3.org/Graphics/SVG/1.1/DTD/svg11.dtd">
<svg version="1.1" xmlns="http://www.w3.org/2000/svg" xmlns:xlink="http://www.w3.org/1999/xlink" width="16.065" height="25.498">
 <g>
  <rect height="25.498" opacity="0" width="16.065" x="0" y="0"/>
  <path d="M5.04913 24.4922L11.0159 24.4922Q13.5648 24.4922 14.8245 23.2031Q16.0843 21.9141 16.0648 19.3359Q16.0355 16.3867 16.0062 14.2041Q15.9769 12.0215 15.9085 10.4199Q15.8011 8.06641 15.3714 6.48926Q14.9417 4.91211 14.0481 3.99414Q13.1546 3.07617 11.6849 2.68066Q10.2151 2.28516 8.03741 2.28516Q5.84991 2.28516 4.38018 2.68066Q2.91045 3.07617 2.0169 3.99414Q1.12335 4.91211 0.693658 6.48926Q0.26397 8.06641 0.156548 10.4199Q0.0881888 12.0215 0.0588919 14.2041Q0.0295951 16.3867 0.000298187 19.3359Q-0.0192331 21.9141 1.24053 23.2031Q2.5003 24.4922 5.04913 24.4922ZM4.76592 20.6152Q4.14092 20.6152 3.76495 20.2393Q3.38897 19.8633 3.38897 19.248L3.38897 14.209Q3.38897 13.584 3.76495 13.208Q4.14092 12.832 4.76592 12.832L11.3089 12.832Q11.9339 12.832 12.305 13.208Q12.6761 13.584 12.6761 14.209L12.6761 19.248Q12.6761 19.8633 12.305 20.2393Q11.9339 20.6152 11.3089 20.6152ZM3.38897 16.5918L12.6761 16.5918L12.6761 15.4297L3.38897 15.4297ZM8.03741 0Q7.09991 0 6.38213 0.390625Q5.66436 0.78125 5.2542 1.45508Q4.84405 2.12891 4.84405 2.99805L6.221 2.99805Q6.221 2.28516 6.72881 1.83105Q7.23663 1.37695 8.03741 1.37695Q8.83819 1.37695 9.346 1.83105Q9.85381 2.28516 9.85381 2.99805L11.2308 2.99805Q11.2308 2.12891 10.8206 1.45508Q10.4105 0.78125 9.69268 0.390625Q8.97491 0 8.03741 0Z" fill="#ffffff"/>
 </g>
</svg>
