<?xml version="1.0" encoding="UTF-8"?>
<!--Generator: Apple Native CoreSVG 175-->
<!DOCTYPE svg
PUBLIC "-//W3C//DTD SVG 1.1//EN"
       "http://www.w3.org/Graphics/SVG/1.1/DTD/svg11.dtd">
<svg version="1.1" xmlns="http://www.w3.org/2000/svg" xmlns:xlink="http://www.w3.org/1999/xlink" width="19.1602" height="19.1504">
 <g>
  <rect height="19.1504" opacity="0" width="19.1602" x="0" y="0"/>
  <path d="M9.57031 19.1406Q11.5527 19.1406 13.2861 18.3984Q15.0195 17.6562 16.3379 16.333Q17.6562 15.0098 18.4082 13.2764Q19.1602 11.543 19.1602 9.57031Q19.1602 7.59766 18.4082 5.86426Q17.6562 4.13086 16.3379 2.80762Q15.0195 1.48438 13.2861 0.742188Q11.5527 0 9.57031 0Q7.59766 0 5.86426 0.742188Q4.13086 1.48438 2.81738 2.80762Q1.50391 4.13086 0.751953 5.86426Q0 7.59766 0 9.57031Q0 11.543 0.74707 13.2764Q1.49414 15.0098 2.8125 16.333Q4.13086 17.6562 5.86914 18.3984Q7.60742 19.1406 9.57031 19.1406ZM9.57031 18.3984Q7.74414 18.3984 6.14746 17.71Q4.55078 17.0215 3.33496 15.8105Q2.11914 14.5996 1.43555 12.998Q0.751953 11.3965 0.751953 9.57031Q0.751953 7.74414 1.43555 6.14258Q2.11914 4.54102 3.33496 3.3252Q4.55078 2.10938 6.14746 1.4209Q7.74414 0.732422 9.57031 0.732422Q11.4062 0.732422 13.0029 1.4209Q14.5996 2.10938 15.8154 3.3252Q17.0312 4.54102 17.7197 6.14258Q18.4082 7.74414 18.4082 9.57031Q18.4082 11.3965 17.7246 12.998Q17.041 14.5996 15.8252 15.8105Q14.6094 17.0215 13.0078 17.71Q11.4062 18.3984 9.57031 18.3984Z" fill="#007aff"/>
  <path d="M9.55078 15.0195Q9.67773 15.0195 9.76074 14.9365Q9.84375 14.8535 9.84375 14.7168L9.84375 13.8184L10.0879 13.8184Q11.3965 13.8184 12.1582 13.2031Q12.9199 12.5879 12.9199 11.5625Q12.9199 10.791 12.4658 10.249Q12.0117 9.70703 11.2988 9.49219Q11.8457 9.23828 12.1729 8.73047Q12.5 8.22266 12.5 7.61719Q12.5 6.68945 11.8164 6.1084Q11.1328 5.52734 10.0391 5.52734L9.84375 5.52734L9.84375 4.7168Q9.84375 4.58008 9.76074 4.49707Q9.67773 4.41406 9.55078 4.41406Q9.44336 4.41406 9.35059 4.49707Q9.25781 4.58008 9.25781 4.7168L9.25781 5.52734L7.66602 5.52734Q7.49023 5.52734 7.37793 5.62988Q7.26562 5.73242 7.26562 5.9082L7.26562 13.4375Q7.26562 13.6133 7.37793 13.7158Q7.49023 13.8184 7.66602 13.8184L9.25781 13.8184L9.25781 14.7168Q9.25781 14.8535 9.35059 14.9365Q9.44336 15.0195 9.55078 15.0195ZM7.91016 13.1934L7.91016 9.85352L9.25781 9.85352L9.25781 13.1934ZM9.84375 13.1934L9.84375 9.86328Q11.0254 9.86328 11.6406 10.3076Q12.2559 10.752 12.2559 11.543Q12.2559 12.334 11.6602 12.7588Q11.0645 13.1836 9.84375 13.1934ZM7.90039 9.22852L7.91016 6.12305L9.25781 6.12305L9.25781 9.22852ZM9.84375 9.21875L9.84375 6.13281Q10.8008 6.14258 11.3135 6.5332Q11.8262 6.92383 11.8262 7.61719Q11.8262 8.33008 11.3232 8.76465Q10.8203 9.19922 9.84375 9.21875Z" fill="#ffffff"/>
 </g>
</svg>
