<?xml version="1.0" encoding="UTF-8"?>
<!--Generator: Apple Native CoreSVG 175.5-->
<!DOCTYPE svg
PUBLIC "-//W3C//DTD SVG 1.1//EN"
       "http://www.w3.org/Graphics/SVG/1.1/DTD/svg11.dtd">
<svg version="1.1" xmlns="http://www.w3.org/2000/svg" xmlns:xlink="http://www.w3.org/1999/xlink" width="19.9219" height="19.9316">
 <g>
  <rect height="19.9316" opacity="0" width="19.9219" x="0" y="0"/>
  <path d="M0 9.96094Q0 11.6895 0.566406 13.252Q1.13281 14.8145 2.15332 16.0986Q3.17383 17.3828 4.5459 18.291Q5.91797 19.1992 7.5293 19.6094Q7.75391 18.9941 7.90039 18.335Q8.04688 17.6758 8.08594 17.0117L7.67578 16.9922Q7.48047 16.9922 7.34863 16.8506Q7.2168 16.709 7.2168 16.5234Q7.22656 16.3281 7.36328 16.2012Q7.5 16.0742 7.69531 16.0742L8.10547 16.0938Q8.0957 15.6934 8.05664 15.3027Q8.01758 14.9121 7.93945 14.5215L7.5293 14.6289Q7.33398 14.6777 7.17773 14.5752Q7.02148 14.4727 6.96289 14.2871Q6.92383 14.1113 7.0166 13.9453Q7.10938 13.7793 7.29492 13.7305L7.70508 13.623Q7.58789 13.2422 7.43652 12.8662Q7.28516 12.4902 7.09961 12.1191L6.77734 12.2949Q6.60156 12.3828 6.43066 12.334Q6.25977 12.2852 6.16211 12.1094Q6.05469 11.9531 6.09863 11.7627Q6.14258 11.5723 6.31836 11.4746L6.63086 11.3086Q6.39648 10.9473 6.13281 10.6152Q5.86914 10.2832 5.57617 9.98047L5.35156 10.2246Q5.20508 10.3613 5.02441 10.3564Q4.84375 10.3516 4.69727 10.2148Q4.56055 10.0879 4.55078 9.89746Q4.54102 9.70703 4.6875 9.57031L4.91211 9.33594Q4.62891 9.0918 4.33105 8.87695Q4.0332 8.66211 3.7207 8.4668L3.50586 8.88672Q3.4082 9.0625 3.23242 9.11133Q3.05664 9.16016 2.89062 9.0625Q2.71484 8.97461 2.66113 8.78906Q2.60742 8.60352 2.70508 8.42773L2.91992 8.01758Q2.32422 7.72461 1.68457 7.51953Q1.04492 7.31445 0.400391 7.20703Q0 8.52539 0 9.96094ZM9.96094 19.9219Q12.0312 19.9219 13.8574 19.1162Q15.6836 18.3105 17.0703 16.8994Q18.457 15.4883 19.1895 13.6621Q18.4863 13.5352 17.8027 13.3105Q17.1191 13.0859 16.4746 12.7734L16.25 13.1836Q16.1621 13.3594 15.9766 13.4082Q15.791 13.457 15.625 13.3691Q15.459 13.2715 15.4053 13.0859Q15.3516 12.9004 15.459 12.7344L15.6738 12.3438Q15.2734 12.0996 14.8926 11.8311Q14.5117 11.5625 14.1504 11.2598L13.8379 11.5723Q13.7109 11.709 13.5205 11.709Q13.3301 11.709 13.2031 11.5723Q13.0566 11.4355 13.0518 11.25Q13.0469 11.0645 13.1836 10.9375L13.4961 10.6152Q13.1641 10.2734 12.8662 9.89746Q12.5684 9.52148 12.3047 9.10156L11.8555 9.35547Q11.6895 9.46289 11.5088 9.4043Q11.3281 9.3457 11.25 9.18945Q11.1523 9.02344 11.1963 8.83789Q11.2402 8.65234 11.4062 8.56445L11.8457 8.31055Q11.6113 7.86133 11.4307 7.40234Q11.25 6.94336 11.1133 6.47461L10.5762 6.60156Q10.3809 6.66016 10.2246 6.5625Q10.0684 6.46484 10.0391 6.2793Q9.98047 6.09375 10.0635 5.93262Q10.1465 5.77148 10.3418 5.71289L10.8984 5.57617Q10.8105 5.13672 10.7666 4.69727Q10.7227 4.25781 10.7129 3.81836L10.2734 3.79883Q10.0781 3.79883 9.94629 3.66699Q9.81445 3.53516 9.83398 3.34961Q9.83398 3.1543 9.96582 3.01758Q10.0977 2.88086 10.293 2.87109L10.7324 2.89062Q10.8008 2.17773 10.9424 1.47461Q11.084 0.771484 11.3379 0.0976562Q10.625 0 9.95117 0Q7.88086 0 6.05957 0.800781Q4.23828 1.60156 2.86133 3.0127Q1.48438 4.42383 0.732422 6.24023Q1.42578 6.36719 2.10449 6.58203Q2.7832 6.79688 3.41797 7.11914L3.63281 6.73828Q3.7207 6.5625 3.90625 6.52344Q4.0918 6.48438 4.26758 6.58203Q4.43359 6.66992 4.48242 6.8457Q4.53125 7.02148 4.43359 7.1875L4.22852 7.55859Q4.98047 8.00781 5.6543 8.58398L6.04492 8.18359Q6.18164 8.04688 6.36719 8.05664Q6.55273 8.06641 6.69922 8.21289Q6.82617 8.33984 6.83594 8.52051Q6.8457 8.70117 6.69922 8.84766L6.31836 9.22852Q6.66992 9.58008 6.97754 9.9707Q7.28516 10.3613 7.55859 10.7812L8.00781 10.5371Q8.18359 10.4395 8.35938 10.498Q8.53516 10.5566 8.63281 10.7129Q8.73047 10.8691 8.68652 11.0547Q8.64258 11.2402 8.45703 11.3379L8.01758 11.582Q8.24219 12.0117 8.42285 12.4561Q8.60352 12.9004 8.74023 13.3496L9.16016 13.2422Q9.35547 13.1934 9.5166 13.291Q9.67773 13.3887 9.72656 13.5742Q9.78516 13.7598 9.6875 13.9258Q9.58984 14.0918 9.4043 14.1406L8.96484 14.2578Q9.14062 15.1562 9.15039 16.1035L9.61914 16.123Q9.81445 16.123 9.94629 16.2598Q10.0781 16.3965 10.0684 16.582Q10.0684 16.7773 9.93164 16.9092Q9.79492 17.041 9.59961 17.041L9.12109 17.0215Q9.07227 17.7344 8.9209 18.4375Q8.76953 19.1406 8.52539 19.8145Q9.25781 19.9219 9.96094 19.9219ZM19.9219 9.96094Q19.9219 8.22266 19.3506 6.65527Q18.7793 5.08789 17.7441 3.79883Q16.709 2.50977 15.3271 1.60645Q13.9453 0.703125 12.3242 0.292969Q12.0996 0.917969 11.958 1.58203Q11.8164 2.24609 11.7676 2.91016L12.2168 2.92969Q12.4023 2.93945 12.5391 3.07617Q12.6758 3.21289 12.666 3.4082Q12.666 3.61328 12.5342 3.73535Q12.4023 3.85742 12.207 3.84766L11.7578 3.82812Q11.7676 4.19922 11.8066 4.57031Q11.8457 4.94141 11.9141 5.30273L12.2168 5.23438Q12.4023 5.18555 12.5586 5.2832Q12.7148 5.38086 12.7637 5.56641Q12.8027 5.75195 12.7246 5.91309Q12.6465 6.07422 12.4512 6.12305L12.1387 6.19141Q12.2559 6.60156 12.4121 6.99219Q12.5684 7.38281 12.7734 7.77344L13.0957 7.59766Q13.2617 7.49023 13.4424 7.54883Q13.623 7.60742 13.7109 7.77344Q13.8086 7.95898 13.7598 8.12988Q13.7109 8.30078 13.5449 8.39844L13.2227 8.57422Q13.457 8.92578 13.7109 9.24805Q13.9648 9.57031 14.2285 9.86328L14.541 9.55078Q14.6875 9.41406 14.873 9.41406Q15.0586 9.41406 15.1953 9.54102Q15.332 9.67773 15.3369 9.86816Q15.3418 10.0586 15.2051 10.2148L14.9023 10.5176Q15.2051 10.7812 15.5225 11.0107Q15.8398 11.2402 16.1816 11.4453L16.3867 11.0449Q16.4648 10.8789 16.6504 10.8252Q16.8359 10.7715 17.002 10.8594Q17.168 10.9668 17.2217 11.1475Q17.2754 11.3281 17.1875 11.5039L16.9824 11.8945Q18.1738 12.4707 19.5312 12.6855Q19.7266 12.0312 19.8242 11.3525Q19.9219 10.6738 19.9219 9.96094Z" fill="#ffffff"/>
 </g>
</svg>
