<?xml version="1.0" encoding="UTF-8"?>
<!--Generator: Apple Native CoreSVG 175.5-->
<!DOCTYPE svg
PUBLIC "-//W3C//DTD SVG 1.1//EN"
       "http://www.w3.org/Graphics/SVG/1.1/DTD/svg11.dtd">
<svg version="1.1" xmlns="http://www.w3.org/2000/svg" xmlns:xlink="http://www.w3.org/1999/xlink" width="27.8271" height="14.5314">
 <g>
  <rect height="14.5314" opacity="0" width="27.8271" x="0" y="0"/>
  <path d="M16.6235 11.1183L21.0669 14.214Q21.4771 14.4972 21.9653 14.502Q22.4536 14.5069 22.8442 14.2335L27.3267 11.1183Q27.6587 10.8839 27.771 10.5811Q27.8833 10.2784 27.771 9.97079Q27.6587 9.66317 27.3267 9.4288L22.8442 6.31357Q22.4536 6.04013 21.9751 6.03525Q21.4966 6.03036 21.1157 6.29403L16.6235 9.4288Q16.2817 9.66317 16.1694 9.97079Q16.0571 10.2784 16.1694 10.5811Q16.2817 10.8839 16.6235 11.1183Z" fill="#ffffff"/>
  <path d="M8.55713 5.0831L13.0591 8.2081Q13.4399 8.48153 13.9282 8.46689Q14.4165 8.45224 14.8364 8.15927L19.27 5.0831Q19.6021 4.84872 19.7144 4.54599Q19.8267 4.24325 19.7144 3.93564Q19.6021 3.62802 19.27 3.39364L14.7876 0.278409Q14.397 0.00497159 13.9185 8.87784e-05Q13.4399-0.00479403 13.0591 0.258878L8.55713 3.39364Q8.2251 3.62802 8.11279 3.93564Q8.00049 4.24325 8.11279 4.54599Q8.2251 4.84872 8.55713 5.0831Z" fill="#ffffff"/>
  <path d="M0.510254 11.1183L5.00244 14.2433Q5.3833 14.5167 5.87158 14.502Q6.35986 14.4874 6.78955 14.2042L11.2134 11.1183Q11.5454 10.8839 11.6577 10.5811Q11.77 10.2784 11.6577 9.97079Q11.5454 9.66317 11.2134 9.4288L6.74072 6.31357Q6.34033 6.04013 5.86182 6.03525Q5.3833 6.03036 5.00244 6.29403L0.510254 9.4288Q0.168457 9.66317 0.0561523 9.97079Q-0.0561523 10.2784 0.0561523 10.5811Q0.168457 10.8839 0.510254 11.1183Z" fill="#ffffff"/>
 </g>
</svg>
