<?xml version="1.0" encoding="UTF-8"?>
<!--Generator: Apple Native CoreSVG 175-->
<!DOCTYPE svg
PUBLIC "-//W3C//DTD SVG 1.1//EN"
       "http://www.w3.org/Graphics/SVG/1.1/DTD/svg11.dtd">
<svg version="1.1" xmlns="http://www.w3.org/2000/svg" xmlns:xlink="http://www.w3.org/1999/xlink" width="14.3401" height="15.4865">
 <g>
  <rect height="15.4865" opacity="0" width="14.3401" x="0" y="0"/>
  <path d="M3.21083 10.0771Q2.54555 10.0771 2.07543 9.60831Q1.6053 9.13956 1.6053 8.46024Q1.6053 7.78366 2.07543 7.31705Q2.54555 6.85043 3.21083 6.85043Q3.88466 6.85043 4.35478 7.31842Q4.82491 7.78641 4.82491 8.46024Q4.82491 9.13681 4.35478 9.60693Q3.88466 10.0771 3.21083 10.0771ZM3.21083 9.53125Q3.66478 9.53125 3.97553 9.22409Q4.28627 8.91693 4.28627 8.46024Q4.28627 8.01331 3.97553 7.70119Q3.66478 7.38907 3.21083 7.38907Q2.76818 7.38907 2.45964 7.70119Q2.15111 8.01331 2.15111 8.46024Q2.15111 8.91693 2.45964 9.22409Q2.76818 9.53125 3.21083 9.53125Z" fill="#007aff"/>
  <path d="M14.3401 11.7989Q14.3401 10.8911 13.9323 10.1428Q13.5246 9.39453 12.7845 8.89595Q12.0445 8.39737 11.0351 8.23914Q10.635 9.96841 9.99672 11.6059Q9.35845 13.2434 8.46245 14.7849Q9.02016 15.1595 9.55651 15.3167Q10.0929 15.4739 10.6733 15.4739Q11.773 15.4739 12.6001 15.0112Q13.4272 14.5485 13.8837 13.7249Q14.3401 12.9013 14.3401 11.7989Z" fill="#007aff"/>
  <path d="M3.21083 11.283Q4.11705 11.283 4.80141 10.8124Q5.48577 10.3418 5.81253 9.55215Q6.1393 8.76251 5.98198 7.80243L5.44564 4.55505Q5.37728 4.09851 5.51239 3.83072Q5.64751 3.56293 6.04515 3.37036Q6.72493 3.02811 7.6577 2.76527Q8.59047 2.50244 9.7155 2.33521Q10.3718 2.24884 10.7365 1.78261Q11.1012 1.31638 11.1012 0.606689Q11.1012 0.294189 10.9205 0.147095Q10.7398 0 10.3245 0Q8.93349 0 7.54463 0.227127Q6.15578 0.454254 4.74953 0.944977Q3.06359 1.53214 1.93817 2.38464Q0.812762 3.23715 0.328753 4.30962Q-0.155256 5.38208 0.0733207 6.62628L0.541613 9.11255Q0.676806 9.84848 1.0936 10.3315Q1.51039 10.8145 2.07352 11.0487Q2.63664 11.283 3.21083 11.283ZM3.21083 10.0771Q2.54555 10.0771 2.07543 9.60831Q1.6053 9.13956 1.6053 8.46024Q1.6053 7.78366 2.07543 7.31705Q2.54555 6.85043 3.21083 6.85043Q3.88466 6.85043 4.35478 7.31842Q4.82491 7.78641 4.82491 8.46024Q4.82491 9.13681 4.35478 9.60693Q3.88466 10.0771 3.21083 10.0771ZM3.21083 9.53125Q3.66478 9.53125 3.97553 9.22409Q4.28627 8.91693 4.28627 8.46024Q4.28627 8.01331 3.97553 7.70119Q3.66478 7.38907 3.21083 7.38907Q2.76818 7.38907 2.45964 7.70119Q2.15111 8.01331 2.15111 8.46024Q2.15111 8.91693 2.45964 9.22409Q2.76818 9.53125 3.21083 9.53125ZM3.21083 12.0755Q2.20452 12.0755 1.38634 11.5903Q0.568163 11.1052 0.130694 10.2814Q0.170977 11.3263 0.615923 12.148Q1.06087 12.9697 1.83624 13.54Q2.61162 14.1103 3.64601 14.4109Q4.68041 14.7115 5.89516 14.7115Q6.50032 14.7115 6.95183 14.6208Q7.40334 14.5302 7.82295 14.3169Q9.50539 11.3927 10.2496 8.08945Q9.83162 7.20047 8.86437 6.5696Q7.89711 5.93872 6.41625 5.55939L6.76476 7.67426Q6.90972 8.5704 6.69991 9.36554Q6.4901 10.1607 6.00029 10.7683Q5.51049 11.3759 4.79622 11.7257Q4.08196 12.0755 3.21083 12.0755Z" fill="#ffffff"/>
 </g>
</svg>
