<?xml version="1.0" encoding="UTF-8"?>
<!--Generator: Apple Native CoreSVG 175-->
<!DOCTYPE svg
PUBLIC "-//W3C//DTD SVG 1.1//EN"
       "http://www.w3.org/Graphics/SVG/1.1/DTD/svg11.dtd">
<svg version="1.1" xmlns="http://www.w3.org/2000/svg" xmlns:xlink="http://www.w3.org/1999/xlink" width="23.5938" height="14.9121">
 <g>
  <rect height="14.9121" opacity="0" width="23.5938" x="0" y="0"/>
  <path d="M2.35352 4.95117L4.42383 4.95117L4.42383 3.81836Q4.42383 3.22266 4.77051 2.86621Q5.11719 2.50977 5.70312 2.50977L9.67773 2.50977Q10.2637 2.50977 10.6104 2.86621Q10.957 3.22266 10.957 3.81836L10.957 4.95117L13.0762 4.95117L13.0762 3.81836Q13.0762 3.22266 13.457 2.86621Q13.8379 2.50977 14.5801 2.50977L17.666 2.50977Q18.418 2.50977 18.7988 2.86621Q19.1797 3.22266 19.1797 3.81836L19.1797 4.95117L21.2402 4.95117L21.2402 2.34375Q21.2402 1.14258 20.6641 0.571289Q20.0879 0 19.0918 0L4.50195 0Q3.50586 0 2.92969 0.571289Q2.35352 1.14258 2.35352 2.34375Z" fill="#007aff"/>
  <path d="M0 14.2578Q0 14.5703 0.161133 14.7363Q0.322266 14.9023 0.644531 14.9023L1.07422 14.9023Q1.37695 14.9023 1.54297 14.7363Q1.70898 14.5703 1.70898 14.2578L1.70898 12.6465Q1.77734 12.666 1.86523 12.666Q1.95312 12.666 2.04102 12.666L21.5527 12.666Q21.6406 12.666 21.7285 12.666Q21.8164 12.666 21.8848 12.6465L21.8848 14.2578Q21.8848 14.5703 22.0508 14.7363Q22.2168 14.9023 22.5098 14.9023L22.9492 14.9023Q23.2715 14.9023 23.4326 14.7363Q23.5938 14.5703 23.5938 14.2578L23.5938 7.92969Q23.5938 6.97266 23.0518 6.4209Q22.5098 5.86914 21.5723 5.86914L2.02148 5.86914Q1.09375 5.86914 0.546875 6.4209Q0 6.97266 0 7.92969Z" fill="#ffffff"/>
 </g>
</svg>
