<?xml version="1.0" encoding="UTF-8"?>
<!--Generator: Apple Native CoreSVG 175.5-->
<!DOCTYPE svg
PUBLIC "-//W3C//DTD SVG 1.1//EN"
       "http://www.w3.org/Graphics/SVG/1.1/DTD/svg11.dtd">
<svg version="1.1" xmlns="http://www.w3.org/2000/svg" xmlns:xlink="http://www.w3.org/1999/xlink" width="19.9219" height="19.9316">
 <g>
  <rect height="19.9316" opacity="0" width="19.9219" x="0" y="0"/>
  <path d="M9.96094 19.9316Q12.002 19.9316 13.8037 19.1504Q15.6055 18.3691 16.9824 16.9922Q18.3594 15.6152 19.1406 13.8135Q19.9219 12.0117 19.9219 9.9707Q19.9219 7.92969 19.1406 6.12793Q18.3594 4.32617 16.9824 2.94922Q15.6055 1.57227 13.7988 0.791016Q11.9922 0.00976562 9.95117 0.00976562Q7.91016 0.00976562 6.1084 0.791016Q4.30664 1.57227 2.93457 2.94922Q1.5625 4.32617 0.78125 6.12793Q0 7.92969 0 9.9707Q0 12.0117 0.78125 13.8135Q1.5625 15.6152 2.93945 16.9922Q4.31641 18.3691 6.11816 19.1504Q7.91992 19.9316 9.96094 19.9316Z" fill="#007aff"/>
  <path d="M7.58789 5.83008Q7.88086 5.55664 8.33984 5.39062Q8.50586 4.85352 8.92578 4.47266Q9.3457 4.0918 9.96094 4.0918Q10.5762 4.0918 10.9912 4.47266Q11.4062 4.85352 11.5723 5.39062Q12.6855 5.80078 13.1641 6.875Q13.6426 7.94922 13.6719 9.57031Q13.6914 9.88281 13.7354 10.2295Q13.7793 10.5762 13.877 10.8789Q13.9746 11.1816 14.1699 11.377Q14.541 11.748 14.8779 12.1289Q15.2148 12.5098 15.2148 12.9297Q15.2148 13.1641 15.0586 13.3105ZM11.8164 13.6035L5.52734 13.6035Q5.13672 13.6035 4.92188 13.418Q4.70703 13.2324 4.70703 12.9395Q4.70703 12.5098 5.04883 12.1338Q5.39062 11.7578 5.75195 11.377Q5.9375 11.1816 6.03516 10.874Q6.13281 10.5664 6.17676 10.2246Q6.2207 9.88281 6.24023 9.57031Q6.25 9.17969 6.2793 8.81836Q6.30859 8.45703 6.35742 8.13477ZM9.96094 15.9375Q9.24805 15.9375 8.77441 15.4932Q8.30078 15.0488 8.25195 14.4434L11.6602 14.4434Q11.6113 15.0488 11.1377 15.4932Q10.6641 15.9375 9.96094 15.9375ZM14.6973 15.3613L4.55078 5.21484Q4.42383 5.08789 4.42383 4.89746Q4.42383 4.70703 4.55078 4.57031Q4.6875 4.42383 4.88281 4.42383Q5.07812 4.42383 5.21484 4.57031L15.3516 14.7168Q15.4883 14.8535 15.4883 15.0391Q15.4883 15.2246 15.3516 15.3613Q15.2246 15.4883 15.0293 15.4883Q14.834 15.4883 14.6973 15.3613Z" fill="#ffffff"/>
 </g>
</svg>
