<?xml version="1.0" encoding="UTF-8"?>
<!--Generator: Apple Native CoreSVG 175.5-->
<!DOCTYPE svg
PUBLIC "-//W3C//DTD SVG 1.1//EN"
       "http://www.w3.org/Graphics/SVG/1.1/DTD/svg11.dtd">
<svg version="1.1" xmlns="http://www.w3.org/2000/svg" xmlns:xlink="http://www.w3.org/1999/xlink" width="17.9785" height="17.998">
 <g>
  <rect height="17.998" opacity="0" width="17.9785" x="0" y="0"/>
  <path d="M3.06641 17.998L14.9121 17.998Q16.4453 17.998 17.2119 17.2412Q17.9785 16.4844 17.9785 14.9707L17.9785 3.04688Q17.9785 1.5332 17.2119 0.776367Q16.4453 0.0195312 14.9121 0.0195312L3.06641 0.0195312Q1.5332 0.0195312 0.766602 0.776367Q0 1.5332 0 3.04688L0 14.9707Q0 16.4844 0.766602 17.2412Q1.5332 17.998 3.06641 17.998Z" fill="#007aff"/>
  <path d="M4.57031 12.627Q4.18945 12.627 3.96973 12.4414Q3.75 12.2559 3.75 11.9629Q3.75 11.5332 4.0918 11.1572Q4.43359 10.7812 4.79492 10.4004Q4.98047 10.2051 5.07812 9.89746Q5.17578 9.58984 5.21973 9.24805Q5.26367 8.90625 5.2832 8.59375Q5.32227 6.97266 5.80078 5.89844Q6.2793 4.82422 7.38281 4.41406Q7.55859 3.87695 7.97363 3.49609Q8.38867 3.11523 9.00391 3.11523Q9.61914 3.11523 10.0342 3.49609Q10.4492 3.87695 10.625 4.41406Q11.7285 4.82422 12.207 5.89844Q12.6855 6.97266 12.7148 8.59375Q12.7441 8.90625 12.7832 9.25293Q12.8223 9.59961 12.9199 9.90234Q13.0176 10.2051 13.2129 10.4004Q13.584 10.7715 13.9209 11.1523Q14.2578 11.5332 14.2578 11.9629Q14.2578 12.2559 14.0381 12.4414Q13.8184 12.627 13.4277 12.627ZM9.00391 14.9609Q8.29102 14.9609 7.82227 14.5166Q7.35352 14.0723 7.30469 13.4668L10.7031 13.4668Q10.6543 14.0723 10.1855 14.5166Q9.7168 14.9609 9.00391 14.9609Z" fill="#ffffff"/>
 </g>
</svg>
