<?xml version="1.0" encoding="UTF-8"?>
<!--Generator: Apple Native CoreSVG 175.5-->
<!DOCTYPE svg
PUBLIC "-//W3C//DTD SVG 1.1//EN"
       "http://www.w3.org/Graphics/SVG/1.1/DTD/svg11.dtd">
<svg version="1.1" xmlns="http://www.w3.org/2000/svg" xmlns:xlink="http://www.w3.org/1999/xlink" width="19.9219" height="19.9316">
 <g>
  <rect height="19.9316" opacity="0" width="19.9219" x="0" y="0"/>
  <path d="M9.96094 19.9219Q12.002 19.9219 13.8037 19.1406Q15.6055 18.3594 16.9824 16.9824Q18.3594 15.6055 19.1406 13.8037Q19.9219 12.002 19.9219 9.96094Q19.9219 7.91992 19.1406 6.11816Q18.3594 4.31641 16.9824 2.93945Q15.6055 1.5625 13.7988 0.78125Q11.9922 0 9.95117 0Q7.91016 0 6.1084 0.78125Q4.30664 1.5625 2.93457 2.93945Q1.5625 4.31641 0.78125 6.11816Q0 7.91992 0 9.96094Q0 12.002 0.78125 13.8037Q1.5625 15.6055 2.93945 16.9824Q4.31641 18.3594 6.11816 19.1406Q7.91992 19.9219 9.96094 19.9219ZM9.96094 18.2617Q8.23242 18.2617 6.72852 17.6172Q5.22461 16.9727 4.08691 15.835Q2.94922 14.6973 2.30957 13.1934Q1.66992 11.6895 1.66992 9.96094Q1.66992 8.23242 2.30957 6.72852Q2.94922 5.22461 4.08203 4.08203Q5.21484 2.93945 6.71875 2.2998Q8.22266 1.66016 9.95117 1.66016Q11.6797 1.66016 13.1885 2.2998Q14.6973 2.93945 15.835 4.08203Q16.9727 5.22461 17.6172 6.72852Q18.2617 8.23242 18.2617 9.96094Q18.2617 11.6895 17.6221 13.1934Q16.9824 14.6973 15.8398 15.835Q14.6973 16.9727 13.1934 17.6172Q11.6895 18.2617 9.96094 18.2617Z" fill="#007aff"/>
  <path d="M7.64648 5.94727L14.8926 13.2031Q15.0488 13.0566 15.0488 12.832Q15.0488 12.4316 14.7168 12.0654Q14.3848 11.6992 14.0332 11.3281Q13.8477 11.1426 13.75 10.8447Q13.6523 10.5469 13.6084 10.2051Q13.5645 9.86328 13.5449 9.56055Q13.5156 7.99805 13.0518 6.96289Q12.5879 5.92773 11.5137 5.52734Q11.3574 5.00977 10.9473 4.63867Q10.5371 4.26758 9.95117 4.26758Q9.35547 4.26758 8.9502 4.63867Q8.54492 5.00977 8.37891 5.52734Q8.16406 5.60547 7.97852 5.70801Q7.79297 5.81055 7.64648 5.94727ZM11.7578 13.4863L6.45508 8.18359Q6.40625 8.49609 6.38184 8.83789Q6.35742 9.17969 6.34766 9.56055Q6.32812 9.86328 6.28418 10.2002Q6.24023 10.5371 6.14258 10.8398Q6.04492 11.1426 5.86914 11.3281Q5.51758 11.6992 5.18555 12.0654Q4.85352 12.4316 4.85352 12.8418Q4.85352 13.125 5.06348 13.3057Q5.27344 13.4863 5.64453 13.4863ZM9.95117 15.7422Q10.6348 15.7422 11.0938 15.3174Q11.5527 14.8926 11.6016 14.2969L8.29102 14.2969Q8.33984 14.8926 8.79883 15.3174Q9.25781 15.7422 9.95117 15.7422ZM14.5508 15.1953Q14.6777 15.3125 14.8633 15.3174Q15.0488 15.3223 15.1758 15.1953Q15.3125 15.0586 15.3125 14.8779Q15.3125 14.6973 15.1758 14.5703L5.3418 4.72656Q5.20508 4.58984 5.02441 4.58984Q4.84375 4.58984 4.70703 4.72656Q4.58008 4.85352 4.58008 5.03906Q4.58008 5.22461 4.70703 5.35156Z" fill="#ffffff"/>
 </g>
</svg>
