<?xml version="1.0" encoding="UTF-8"?>
<!--Generator: Apple Native CoreSVG 175-->
<!DOCTYPE svg
PUBLIC "-//W3C//DTD SVG 1.1//EN"
       "http://www.w3.org/Graphics/SVG/1.1/DTD/svg11.dtd">
<svg version="1.1" xmlns="http://www.w3.org/2000/svg" xmlns:xlink="http://www.w3.org/1999/xlink" width="19.1602" height="19.1504">
 <g>
  <rect height="19.1504" opacity="0" width="19.1602" x="0" y="0"/>
  <path d="M9.57031 19.1406Q11.5527 19.1406 13.2861 18.3984Q15.0195 17.6562 16.3379 16.333Q17.6562 15.0098 18.4082 13.2764Q19.1602 11.543 19.1602 9.57031Q19.1602 7.59766 18.4082 5.86426Q17.6562 4.13086 16.3379 2.80762Q15.0195 1.48438 13.2861 0.742188Q11.5527 0 9.57031 0Q7.59766 0 5.86426 0.742188Q4.13086 1.48438 2.81738 2.80762Q1.50391 4.13086 0.751953 5.86426Q0 7.59766 0 9.57031Q0 11.543 0.74707 13.2764Q1.49414 15.0098 2.8125 16.333Q4.13086 17.6562 5.86914 18.3984Q7.60742 19.1406 9.57031 19.1406ZM9.57031 18.3984Q7.74414 18.3984 6.14746 17.71Q4.55078 17.0215 3.33496 15.8105Q2.11914 14.5996 1.43555 12.998Q0.751953 11.3965 0.751953 9.57031Q0.751953 7.74414 1.43555 6.14258Q2.11914 4.54102 3.33496 3.3252Q4.55078 2.10938 6.14746 1.4209Q7.74414 0.732422 9.57031 0.732422Q11.4062 0.732422 13.0029 1.4209Q14.5996 2.10938 15.8154 3.3252Q17.0312 4.54102 17.7197 6.14258Q18.4082 7.74414 18.4082 9.57031Q18.4082 11.3965 17.7246 12.998Q17.041 14.5996 15.8252 15.8105Q14.6094 17.0215 13.0078 17.71Q11.4062 18.3984 9.57031 18.3984Z" fill="#007aff"/>
  <path d="M7.08984 5.86914L14.2578 13.0566Q14.5605 13.0273 14.5605 12.7539Q14.5605 12.3438 14.2578 11.9873Q13.9551 11.6309 13.623 11.2598Q13.3398 10.957 13.2227 10.459Q13.1055 9.96094 13.0615 9.37012Q13.0176 8.7793 12.9395 8.20312Q12.8223 7.08008 12.3584 6.2793Q11.8945 5.47852 10.918 5.19531Q10.8301 4.63867 10.459 4.28711Q10.0879 3.93555 9.57031 3.93555Q9.04297 3.93555 8.67676 4.28711Q8.31055 4.63867 8.21289 5.19531Q7.86133 5.30273 7.57812 5.46875Q7.29492 5.63477 7.08984 5.86914ZM11.9238 13.1152L6.28906 7.48047Q6.25977 7.65625 6.23047 7.83203Q6.20117 8.00781 6.19141 8.20312Q6.10352 8.7793 6.05469 9.37012Q6.00586 9.96094 5.89844 10.4541Q5.79102 10.9473 5.50781 11.2598Q5.18555 11.6309 4.87793 11.9873Q4.57031 12.3438 4.57031 12.7637Q4.57031 12.9199 4.66797 13.0176Q4.76562 13.1152 4.94141 13.1152ZM9.57031 15.1367Q10.1855 15.1367 10.5811 14.7656Q10.9766 14.3945 11.0645 13.7793L8.05664 13.7793Q8.14453 14.3945 8.54004 14.7656Q8.93555 15.1367 9.57031 15.1367ZM14.5117 14.9316Q14.5996 15.0098 14.7217 15.0146Q14.8438 15.0195 14.9219 14.9316Q15.0098 14.834 15.0098 14.7168Q15.0098 14.5996 14.9219 14.5215L4.61914 4.19922Q4.53125 4.11133 4.40918 4.11133Q4.28711 4.11133 4.19922 4.19922Q4.10156 4.28711 4.11133 4.4043Q4.12109 4.52148 4.19922 4.61914Z" fill="#ffffff"/>
 </g>
</svg>
