<?xml version="1.0" encoding="UTF-8"?>
<!--Generator: Apple Native CoreSVG 175.5-->
<!DOCTYPE svg
PUBLIC "-//W3C//DTD SVG 1.1//EN"
       "http://www.w3.org/Graphics/SVG/1.1/DTD/svg11.dtd">
<svg version="1.1" xmlns="http://www.w3.org/2000/svg" xmlns:xlink="http://www.w3.org/1999/xlink" width="17.9785" height="17.998">
 <g>
  <rect height="17.998" opacity="0" width="17.9785" x="0" y="0"/>
  <path d="M3.06641 17.998L14.9121 17.998Q16.4453 17.998 17.2119 17.2412Q17.9785 16.4844 17.9785 14.9707L17.9785 3.04688Q17.9785 1.5332 17.2119 0.776367Q16.4453 0.0195312 14.9121 0.0195312L3.06641 0.0195312Q1.5332 0.0195312 0.766602 0.776367Q0 1.5332 0 3.04688L0 14.9707Q0 16.4844 0.766602 17.2412Q1.5332 17.998 3.06641 17.998Z" fill="#007aff"/>
  <path d="M6.24023 12.9199L6.24023 5.37109Q6.24023 5.0293 6.45508 4.81445Q6.66992 4.59961 7.01172 4.59961L7.42188 4.59961L7.42188 3.84766Q7.42188 3.64258 7.55371 3.50586Q7.68555 3.36914 7.89062 3.36914Q8.0957 3.36914 8.22754 3.50586Q8.35938 3.64258 8.35938 3.84766L8.35938 4.59961L8.99414 4.59961L8.99414 3.84766Q8.99414 3.64258 9.13086 3.50586Q9.26758 3.36914 9.46289 3.36914Q9.66797 3.36914 9.80469 3.50586Q9.94141 3.64258 9.94141 3.84766L9.94141 4.63867Q10.918 4.78516 11.4941 5.40039Q12.0703 6.01562 12.0703 6.92383Q12.0703 7.53906 11.7285 8.07617Q11.3867 8.61328 10.8496 8.87695Q11.6016 9.10156 12.0557 9.6875Q12.5098 10.2734 12.5098 11.1035Q12.5098 12.1777 11.8311 12.8516Q11.1523 13.5254 9.94141 13.6523L9.94141 14.4531Q9.94141 14.668 9.80469 14.7998Q9.66797 14.9316 9.46289 14.9316Q9.26758 14.9316 9.13086 14.7998Q8.99414 14.668 8.99414 14.4531L8.99414 13.6816L8.35938 13.6816L8.35938 14.4531Q8.35938 14.668 8.22754 14.7998Q8.0957 14.9316 7.89062 14.9316Q7.68555 14.9316 7.55371 14.7998Q7.42188 14.668 7.42188 14.4531L7.42188 13.6816L7.01172 13.6816Q6.66016 13.6816 6.4502 13.4717Q6.24023 13.2617 6.24023 12.9199ZM7.49023 12.5391L9.24805 12.5293Q10.2344 12.5195 10.7471 12.1484Q11.2598 11.7773 11.2598 11.0547Q11.2598 10.3125 10.7227 9.94141Q10.1855 9.57031 9.14062 9.57031L7.49023 9.57031ZM7.49023 8.42773L8.88672 8.4375Q9.82422 8.44727 10.3223 8.07617Q10.8203 7.70508 10.8203 7.02148Q10.8203 6.39648 10.3857 6.06445Q9.95117 5.73242 9.16016 5.73242L7.49023 5.73242Z" fill="#ffffff"/>
 </g>
</svg>
