<?xml version="1.0" encoding="UTF-8"?>
<!--Generator: Apple Native CoreSVG 175-->
<!DOCTYPE svg
PUBLIC "-//W3C//DTD SVG 1.1//EN"
       "http://www.w3.org/Graphics/SVG/1.1/DTD/svg11.dtd">
<svg version="1.1" xmlns="http://www.w3.org/2000/svg" xmlns:xlink="http://www.w3.org/1999/xlink" width="15.718" height="20.6839">
 <g>
  <rect height="20.6839" opacity="0" width="15.718" x="0" y="0"/>
  <path d="M5.25391 20.298L10.127 14.175L4.18945 8.21792L1.83594 11.1671Q1.66016 11.3917 1.66016 11.548Q1.66016 11.6554 1.7334 11.7384Q1.80664 11.8214 1.97266 11.8214L7.56836 11.8507L4.58984 19.9367Q4.49219 20.2101 4.59473 20.3664Q4.69727 20.5226 4.8877 20.5177Q5.07812 20.5128 5.25391 20.298ZM11.6211 12.3L13.9648 9.35073Q14.1406 9.13589 14.1406 8.96987Q14.1406 8.87222 14.0674 8.78433Q13.9941 8.69644 13.8281 8.69644L8.23242 8.67691L11.2109 0.590968Q11.3184 0.307765 11.2109 0.151515Q11.1035-0.00473485 10.9131 0.000147964Q10.7227 0.00503078 10.5469 0.22964L5.66406 6.36245Z" fill="#007aff"/>
  <path d="M15.1074 18.0128Q15.2148 18.1203 15.3613 18.1203Q15.5078 18.1203 15.6152 18.0128Q15.7129 17.9152 15.7178 17.7638Q15.7227 17.6125 15.6152 17.505L0.615234 2.50503Q0.527344 2.41714 0.371094 2.40737Q0.214844 2.39761 0.0976562 2.50503Q0 2.61245 0 2.76382Q0 2.91519 0.0976562 3.01284Z" fill="#ffffff"/>
 </g>
</svg>
