<?xml version="1.0" encoding="UTF-8"?>
<!--Generator: Apple Native CoreSVG 175.5-->
<!DOCTYPE svg
PUBLIC "-//W3C//DTD SVG 1.1//EN"
       "http://www.w3.org/Graphics/SVG/1.1/DTD/svg11.dtd">
<svg version="1.1" xmlns="http://www.w3.org/2000/svg" xmlns:xlink="http://www.w3.org/1999/xlink" width="23.1055" height="18.1543">
 <g>
  <rect height="18.1543" opacity="0" width="23.1055" x="0" y="0"/>
  <path d="M11.5527 15.4297Q12.7832 15.4297 14.1504 15.4004Q15.5176 15.3711 16.8359 15.3174Q18.1543 15.2637 19.2529 15.1953Q20.3516 15.127 21.0449 15.0488Q22.041 14.9316 22.5732 14.3945Q23.1055 13.8574 23.1055 12.9199L23.1055 11.2012Q23.1055 10.3711 22.9883 9.75098Q22.8711 9.13086 22.5977 8.58887Q22.3242 8.04688 21.875 7.46094L21.0449 6.39648Q20.8691 5.51758 20.6201 4.6582Q20.3711 3.79883 20.1221 3.11523Q19.873 2.43164 19.707 2.07031Q19.3164 1.24023 18.5791 0.751953Q17.8418 0.263672 16.875 0.136719Q16.543 0.0878906 15.7666 0.0585938Q14.9902 0.0292969 13.9014 0.0146484Q12.8125 0 11.5527 0Q10.293 0 9.2041 0.0195312Q8.11523 0.0390625 7.33887 0.0683594Q6.5625 0.0976562 6.24023 0.136719Q5.26367 0.253906 4.53125 0.74707Q3.79883 1.24023 3.4082 2.07031Q3.23242 2.43164 2.98828 3.11523Q2.74414 3.79883 2.49023 4.6582Q2.23633 5.51758 2.06055 6.39648L1.24023 7.46094Q0.78125 8.04688 0.512695 8.58887Q0.244141 9.13086 0.12207 9.75098Q0 10.3711 0 11.2012L0 12.9199Q0 13.8574 0.537109 14.3945Q1.07422 14.9316 2.06055 15.0488Q2.75391 15.127 3.85254 15.1953Q4.95117 15.2637 6.26953 15.3174Q7.58789 15.3711 8.95508 15.4004Q10.3223 15.4297 11.5527 15.4297ZM1.29883 18.1152L2.44141 18.1152Q2.98828 18.1152 3.36426 17.7441Q3.74023 17.373 3.74023 16.8262L3.74023 14.3945L0 12.6172L0 16.8262Q0 17.373 0.371094 17.7441Q0.742188 18.1152 1.29883 18.1152ZM20.6641 18.1152L21.8164 18.1152Q22.3633 18.1152 22.7344 17.7441Q23.1055 17.373 23.1055 16.8262L23.1055 12.6172L19.375 14.3945L19.375 16.8262Q19.375 17.373 19.7461 17.7441Q20.1172 18.1152 20.6641 18.1152Z" fill="#007aff"/>
  <path d="M8.36914 8.33984Q8.36914 8.19336 8.49609 8.04688L12.5293 2.97852Q12.6758 2.7832 12.8613 2.78809Q13.0469 2.79297 13.1494 2.93945Q13.252 3.08594 13.1543 3.33008L11.8359 6.89453L14.3262 6.89453Q14.4629 6.89453 14.5654 6.9873Q14.668 7.08008 14.668 7.2168Q14.668 7.37305 14.5312 7.50977L10.5176 12.5781Q10.3613 12.7637 10.1758 12.7588Q9.99023 12.7539 9.8877 12.6074Q9.78516 12.4609 9.87305 12.2266L11.2109 8.65234L8.70117 8.65234Q8.57422 8.65234 8.47168 8.55957Q8.36914 8.4668 8.36914 8.33984Z" fill="#ffffff"/>
 </g>
</svg>
