<?xml version="1.0" encoding="UTF-8"?>
<!--Generator: Apple Native CoreSVG 175-->
<!DOCTYPE svg
PUBLIC "-//W3C//DTD SVG 1.1//EN"
       "http://www.w3.org/Graphics/SVG/1.1/DTD/svg11.dtd">
<svg version="1.1" xmlns="http://www.w3.org/2000/svg" xmlns:xlink="http://www.w3.org/1999/xlink" width="17.2852" height="17.3145">
 <g>
  <rect height="17.3145" opacity="0" width="17.2852" x="0" y="0"/>
  <path d="M2.62695 17.3145L14.6484 17.3145Q15.957 17.3145 16.6211 16.6455Q17.2852 15.9766 17.2852 14.6875L17.2852 2.65625Q17.2852 1.37695 16.6211 0.703125Q15.957 0.0292969 14.6484 0.0292969L2.62695 0.0292969Q1.33789 0.0292969 0.668945 0.693359Q0 1.35742 0 2.65625L0 14.6875Q0 15.9863 0.668945 16.6504Q1.33789 17.3145 2.62695 17.3145Z" fill="#007aff"/>
  <path d="M4.22852 9.46289Q4.22852 9.33594 4.35547 9.16016L10.0879 1.96289Q10.2441 1.77734 10.4199 1.77734Q10.5957 1.77734 10.6934 1.92383Q10.791 2.07031 10.6934 2.29492L8.76953 7.49023L12.3145 7.49023Q12.4512 7.49023 12.5439 7.56348Q12.6367 7.63672 12.6367 7.77344Q12.6367 7.90039 12.5 8.07617L6.77734 15.2734Q6.62109 15.459 6.44531 15.4541Q6.26953 15.4492 6.17188 15.3076Q6.07422 15.166 6.16211 14.9414L8.0957 9.74609L4.54102 9.74609Q4.4043 9.74609 4.31641 9.67285Q4.22852 9.59961 4.22852 9.46289Z" fill="#ffffff"/>
 </g>
</svg>
