<?xml version="1.0" encoding="UTF-8"?>
<!--Generator: Apple Native CoreSVG 175.5-->
<!DOCTYPE svg
PUBLIC "-//W3C//DTD SVG 1.1//EN"
       "http://www.w3.org/Graphics/SVG/1.1/DTD/svg11.dtd">
<svg version="1.1" xmlns="http://www.w3.org/2000/svg" xmlns:xlink="http://www.w3.org/1999/xlink" width="19.9219" height="19.9316">
 <g>
  <rect height="19.9316" opacity="0" width="19.9219" x="0" y="0"/>
  <path d="M9.96094 19.9219Q12.002 19.9219 13.8037 19.1406Q15.6055 18.3594 16.9824 16.9824Q18.3594 15.6055 19.1406 13.8037Q19.9219 12.002 19.9219 9.96094Q19.9219 7.91992 19.1406 6.11816Q18.3594 4.31641 16.9824 2.93945Q15.6055 1.5625 13.7988 0.78125Q11.9922 0 9.95117 0Q7.91016 0 6.1084 0.78125Q4.30664 1.5625 2.93457 2.93945Q1.5625 4.31641 0.78125 6.11816Q0 7.91992 0 9.96094Q0 12.002 0.78125 13.8037Q1.5625 15.6055 2.93945 16.9824Q4.31641 18.3594 6.11816 19.1406Q7.91992 19.9219 9.96094 19.9219ZM9.96094 18.2617Q8.23242 18.2617 6.72852 17.6172Q5.22461 16.9727 4.08691 15.835Q2.94922 14.6973 2.30957 13.1934Q1.66992 11.6895 1.66992 9.96094Q1.66992 8.23242 2.30957 6.72852Q2.94922 5.22461 4.08203 4.08203Q5.21484 2.93945 6.71875 2.2998Q8.22266 1.66016 9.95117 1.66016Q11.6797 1.66016 13.1885 2.2998Q14.6973 2.93945 15.835 4.08203Q16.9727 5.22461 17.6172 6.72852Q18.2617 8.23242 18.2617 9.96094Q18.2617 11.6895 17.6221 13.1934Q16.9824 14.6973 15.8398 15.835Q14.6973 16.9727 13.1934 17.6172Q11.6895 18.2617 9.96094 18.2617Z" fill="#007aff"/>
  <path d="M4.9707 14.7363L5.82031 14.7363Q6.09375 14.7363 6.23535 14.5947Q6.37695 14.4531 6.37695 14.1895L6.37695 6.55273Q6.37695 6.28906 6.23535 6.14746Q6.09375 6.00586 5.82031 6.00586L4.9707 6.00586Q4.4043 6.00586 4.4043 6.55273L4.4043 14.1895Q4.4043 14.7363 4.9707 14.7363ZM7.57812 14.7363L9.41406 14.7363Q9.96094 14.7363 9.96094 14.1895L9.96094 8.0957Q9.96094 7.83203 9.82422 7.68066Q9.6875 7.5293 9.41406 7.5293L7.57812 7.5293Q7.02148 7.5293 7.02148 8.0957L7.02148 14.1895Q7.02148 14.7363 7.57812 14.7363ZM8.01758 9.16992Q7.88086 9.16992 7.80273 9.08203Q7.72461 8.99414 7.72461 8.87695Q7.72461 8.75 7.80762 8.66699Q7.89062 8.58398 8.01758 8.58398L8.99414 8.58398Q9.12109 8.58398 9.2041 8.66699Q9.28711 8.75 9.28711 8.87695Q9.28711 8.98438 9.2041 9.07715Q9.12109 9.16992 8.99414 9.16992ZM8.01758 13.7109Q7.72461 13.7109 7.72461 13.4082Q7.72461 13.1152 8.01758 13.1152L8.99414 13.1152Q9.28711 13.1152 9.28711 13.4082Q9.28711 13.7109 8.99414 13.7109ZM11.1914 14.7363L12.2852 14.7363Q12.8418 14.7363 12.8418 14.1895L12.8418 5.3125Q12.8418 4.75586 12.2852 4.75586L11.1914 4.75586Q10.625 4.75586 10.625 5.3125L10.625 14.1895Q10.625 14.7363 11.1914 14.7363ZM14.6191 14.7363L15.332 14.5605Q15.8691 14.4531 15.7617 13.9062L14.248 6.54297Q14.1895 6.26953 14.0234 6.14746Q13.8574 6.02539 13.6035 6.09375L12.8906 6.26953Q12.627 6.32812 12.5146 6.49414Q12.4023 6.66016 12.4512 6.92383L13.9746 14.3066Q14.0234 14.5605 14.1895 14.6777Q14.3555 14.7949 14.6191 14.7363Z" fill="#ffffff"/>
 </g>
</svg>
