<?xml version="1.0" encoding="UTF-8"?>
<!--Generator: Apple Native CoreSVG 175.5-->
<!DOCTYPE svg
PUBLIC "-//W3C//DTD SVG 1.1//EN"
       "http://www.w3.org/Graphics/SVG/1.1/DTD/svg11.dtd">
<svg version="1.1" xmlns="http://www.w3.org/2000/svg" xmlns:xlink="http://www.w3.org/1999/xlink" width="13.1641" height="20.9863">
 <g>
  <rect height="20.9863" opacity="0" width="13.1641" x="0" y="0"/>
  <path d="M1.03516 20.9473Q1.38672 20.9473 1.69922 20.708Q2.01172 20.4688 2.67578 19.8242L6.49414 16.0645Q6.58203 15.9668 6.66992 16.0645L10.4883 19.8242Q11.1523 20.459 11.46 20.7031Q11.7676 20.9473 12.1289 20.9473Q12.6172 20.9473 12.8906 20.6348Q13.1641 20.3223 13.1641 19.7559L13.1641 2.80273Q13.1641 1.40625 12.4707 0.703125Q11.7773 0 10.4004 0L2.76367 0Q1.38672 0 0.693359 0.703125Q0 1.40625 0 2.80273L0 19.7559Q0 20.3223 0.273438 20.6348Q0.546875 20.9473 1.03516 20.9473ZM1.83594 18.3105Q1.72852 18.4082 1.63574 18.3838Q1.54297 18.3594 1.54297 18.2129L1.54297 2.82227Q1.54297 2.1875 1.87012 1.86523Q2.19727 1.54297 2.8418 1.54297L10.332 1.54297Q10.9668 1.54297 11.2939 1.86523Q11.6211 2.1875 11.6211 2.82227L11.6211 18.2129Q11.6211 18.3594 11.5283 18.3838Q11.4355 18.4082 11.3281 18.3105L7.09961 14.209Q6.86523 13.9844 6.58203 13.9844Q6.29883 13.9844 6.06445 14.209Z" fill="#ffffff"/>
 </g>
</svg>
