<?xml version="1.0" encoding="UTF-8"?>
<!--Generator: Apple Native CoreSVG 175-->
<!DOCTYPE svg
PUBLIC "-//W3C//DTD SVG 1.1//EN"
       "http://www.w3.org/Graphics/SVG/1.1/DTD/svg11.dtd">
<svg version="1.1" xmlns="http://www.w3.org/2000/svg" xmlns:xlink="http://www.w3.org/1999/xlink" width="22.6166" height="19.6255">
 <g>
  <rect height="19.6255" opacity="0" width="22.6166" x="0" y="0"/>
  <path d="M0 9.13712Q0 10.6079 0.628128 11.7054Q1.25626 12.8029 2.39769 13.4101Q3.53912 14.0173 5.06287 14.0173Q6.54343 14.0173 7.66533 13.4798Q8.78723 12.9424 9.4091 11.9746Q10.031 11.0068 10.031 9.71725Q10.031 8.93204 9.74113 8.2254Q9.45129 7.51877 8.98483 7.09808Q8.88016 7.01416 8.79868 6.9825Q8.71719 6.95084 8.61099 6.95084Q8.452 6.95084 8.35457 7.04636Q8.25714 7.14188 8.25714 7.28714Q8.25714 7.36954 8.28171 7.43301Q8.30627 7.49649 8.35983 7.55241Q8.41339 7.60834 8.4903 7.67975Q8.8942 8.07388 9.1024 8.60611Q9.31061 9.13834 9.31061 9.70901Q9.31061 10.7787 8.77853 11.5861Q8.24646 12.3935 7.29126 12.8425Q6.33606 13.2915 5.07111 13.2915Q3.76022 13.2915 2.78404 12.7728Q1.80786 12.254 1.26823 11.3169Q0.728607 10.3798 0.728607 9.12033Q0.728607 8.0719 1.23405 7.05475Q1.7395 6.0376 2.5856 5.41809L2.33871 4.72855Q1.63132 5.18127 1.10687 5.88715Q0.582428 6.59302 0.291214 7.43187Q0 8.27072 0 9.13712ZM2.08832 4.54849Q2.08832 5.36804 2.4649 6.07079Q2.84149 6.77353 3.57491 7.20634Q4.30832 7.63916 5.39688 7.63916Q5.5336 7.63916 5.64499 7.52922Q5.75638 7.41928 5.75638 7.27982Q5.75638 7.13333 5.64499 7.02194Q5.5336 6.91055 5.39688 6.91055Q4.54071 6.91055 3.96553 6.57951Q3.39035 6.24847 3.10364 5.70747Q2.81693 5.16647 2.81693 4.54849Q2.81693 3.87619 3.15086 3.2737Q3.4848 2.6712 4.13109 2.29111Q4.77737 1.91101 5.7106 1.91101Q6.19568 1.91101 6.69746 2.03972Q7.19925 2.16843 7.66327 2.43835L8.08914 1.83411Q7.52548 1.50192 6.9278 1.34216Q6.33011 1.1824 5.72037 1.1824Q4.5668 1.1824 3.75473 1.66428Q2.94266 2.14615 2.51549 2.91389Q2.08832 3.68164 2.08832 4.54849ZM6.73798 4.24973Q6.73248 4.42657 6.83891 4.53445Q6.94534 4.64233 7.10159 4.64233Q7.24808 4.64233 7.35184 4.54269Q7.4556 4.44305 7.46109 4.28284Q7.50015 3.30597 7.95792 2.54677Q8.41568 1.78757 9.18678 1.35498Q9.95789 0.922394 10.9544 0.922394Q11.7715 0.922394 12.4544 1.31279Q13.1372 1.70319 13.4161 2.52472Q13.4607 2.63916 13.5261 2.6503Q13.5915 2.66144 13.6888 2.62238Q14.0173 2.49069 14.3443 2.43187Q14.6712 2.37305 14.9911 2.38022Q15.9402 2.38998 16.6744 2.82394Q17.4086 3.2579 17.8266 4.02802Q18.2446 4.79813 18.2446 5.83176Q18.2446 6.83365 17.8075 7.54539Q17.3705 8.25714 16.6801 8.797Q15.9898 9.33685 15.2153 9.8175Q14.4408 10.2982 13.7469 10.8331Q13.0531 11.3681 12.616 12.0695Q12.179 12.7708 12.179 13.7672Q12.179 14.6349 12.5792 15.2566Q12.9794 15.8783 13.7141 16.2138Q14.4489 16.5494 15.4512 16.5494Q15.5849 16.5494 15.7613 16.541Q15.9377 16.5326 16.1302 16.5228Q16.1981 17.4301 16.5073 18.128Q16.8166 18.8258 17.3347 19.2257Q17.8528 19.6255 18.5336 19.6255Q19.2407 19.6255 19.7767 19.1999Q20.3127 18.7743 20.6705 18.0013Q21.0283 17.2282 21.2142 16.1798Q21.4001 15.1314 21.4001 13.8927Q21.4001 13.3673 21.3702 12.8947Q21.3403 12.422 21.3072 11.9598L20.5576 12.2235Q20.6119 12.718 20.6431 13.1093Q20.6743 13.5005 20.6743 13.9084Q20.6743 15.3853 20.4255 16.5095Q20.1767 17.6337 19.6974 18.2688Q19.2181 18.904 18.5336 18.904Q17.9915 18.904 17.598 18.5188Q17.2044 18.1337 16.9913 17.4788Q16.7783 16.8239 16.7783 16.0036Q16.7783 15.9282 16.7343 15.8759Q16.6904 15.8235 16.604 15.8333Q16.4482 15.8403 16.1078 15.8543Q15.7674 15.8684 15.638 15.8684Q14.4052 15.8684 13.6529 15.3204Q12.9005 14.7723 12.9005 13.759Q12.9005 12.9099 13.3411 12.3029Q13.7817 11.6959 14.472 11.2045Q15.1622 10.713 15.9368 10.2329Q16.7114 9.75281 17.4017 9.16435Q18.0919 8.5759 18.5325 7.77336Q18.9731 6.97083 18.9731 5.83176Q18.9731 4.88876 18.6823 4.12193Q18.3916 3.3551 17.8646 2.80357Q17.3376 2.25204 16.6189 1.95183Q15.9001 1.65161 15.0345 1.65161Q14.7896 1.64459 14.4888 1.69357Q14.1879 1.74255 13.8914 1.84067Q13.4602 1.03363 12.6651 0.615082Q11.87 0.196533 10.957 0.196533Q9.7673 0.196533 8.83934 0.709229Q7.91138 1.22192 7.35748 2.13387Q6.80359 3.04581 6.73798 4.24973ZM17.681 12.8242Q17.681 12.9707 17.7874 13.0745Q17.8938 13.1783 18.0431 13.1837Q19.4107 13.2068 20.442 12.696Q21.4732 12.1852 22.0449 11.2501Q22.6166 10.3149 22.6166 9.05365Q22.6166 7.8981 22.1037 6.98753Q21.5907 6.07697 20.6702 5.52834Q19.7498 4.97971 18.5248 4.88556L18.4705 5.62546Q20.011 5.67307 20.9495 6.61629Q21.888 7.55951 21.888 9.05365Q21.888 10.6126 20.8302 11.5509Q19.7723 12.4892 18.0431 12.4579Q17.8938 12.4496 17.7874 12.5602Q17.681 12.6707 17.681 12.8242ZM12.6051 14.4173Q12.2388 14.5314 11.7632 14.594Q11.2875 14.6567 10.8751 14.6567Q10.1785 14.6567 9.47678 14.4868Q8.77502 14.3169 8.17818 13.9788Q7.58133 13.6407 7.20978 13.1287L6.60004 13.6208Q7.32925 14.4864 8.43376 14.9358Q9.53827 15.3853 10.8356 15.3853Q11.2555 15.3853 11.7895 15.3172Q12.3235 15.249 12.8117 15.1379ZM9.50546 8.62656L9.75861 9.30237Q11.2669 8.99734 12.0173 8.07388Q12.7676 7.15042 12.7536 5.63553Q12.7536 5.48904 12.6458 5.38261Q12.538 5.27618 12.3845 5.27618Q12.238 5.27618 12.1315 5.38261Q12.025 5.48904 12.025 5.63553Q12.025 6.91406 11.4221 7.6516Q10.8192 8.38913 9.50546 8.62656Z" fill="#ffffff"/>
 </g>
</svg>
