<?xml version="1.0" encoding="UTF-8"?>
<!--Generator: Apple Native CoreSVG 175.5-->
<!DOCTYPE svg
PUBLIC "-//W3C//DTD SVG 1.1//EN"
       "http://www.w3.org/Graphics/SVG/1.1/DTD/svg11.dtd">
<svg version="1.1" xmlns="http://www.w3.org/2000/svg" xmlns:xlink="http://www.w3.org/1999/xlink" width="19.9219" height="19.9316">
 <g>
  <rect height="19.9316" opacity="0" width="19.9219" x="0" y="0"/>
  <path d="M9.96094 19.9219Q12.002 19.9219 13.8037 19.1406Q15.6055 18.3594 16.9824 16.9824Q18.3594 15.6055 19.1406 13.8037Q19.9219 12.002 19.9219 9.96094Q19.9219 7.91992 19.1406 6.11816Q18.3594 4.31641 16.9824 2.93945Q15.6055 1.5625 13.7988 0.78125Q11.9922 0 9.95117 0Q7.91016 0 6.1084 0.78125Q4.30664 1.5625 2.93457 2.93945Q1.5625 4.31641 0.78125 6.11816Q0 7.91992 0 9.96094Q0 12.002 0.78125 13.8037Q1.5625 15.6055 2.93945 16.9824Q4.31641 18.3594 6.11816 19.1406Q7.91992 19.9219 9.96094 19.9219ZM9.96094 18.2617Q8.23242 18.2617 6.72852 17.6172Q5.22461 16.9727 4.08691 15.835Q2.94922 14.6973 2.30957 13.1934Q1.66992 11.6895 1.66992 9.96094Q1.66992 8.23242 2.30957 6.72852Q2.94922 5.22461 4.08203 4.08203Q5.21484 2.93945 6.71875 2.2998Q8.22266 1.66016 9.95117 1.66016Q11.6797 1.66016 13.1885 2.2998Q14.6973 2.93945 15.835 4.08203Q16.9727 5.22461 17.6172 6.72852Q18.2617 8.23242 18.2617 9.96094Q18.2617 11.6895 17.6221 13.1934Q16.9824 14.6973 15.8398 15.835Q14.6973 16.9727 13.1934 17.6172Q11.6895 18.2617 9.96094 18.2617Z" fill="#007aff"/>
  <path d="M5.6543 14.3652Q5.9375 14.3652 6.11328 14.1895Q6.28906 14.0137 6.28906 13.7305L6.28906 10.5859L7.06055 10.5859Q7.10938 10.5859 7.1582 10.5859Q7.20703 10.5859 7.26562 10.5762L8.55469 13.9648Q8.64258 14.1797 8.80371 14.2725Q8.96484 14.3652 9.15039 14.3652Q9.46289 14.3652 9.69727 14.1357Q9.93164 13.9062 9.76562 13.4863L8.49609 10.332Q9.11133 10.0977 9.43359 9.41406Q9.75586 8.73047 9.75586 7.95898Q9.75586 6.78711 9.16504 6.14258Q8.57422 5.49805 7.33398 5.49805L5.75195 5.49805Q5.39062 5.49805 5.2002 5.74219Q5.00977 5.98633 5.00977 6.37695L5.00977 13.7305Q5.00977 14.0137 5.18555 14.1895Q5.36133 14.3652 5.6543 14.3652ZM6.28906 9.58984L6.28906 6.5332L7.1875 6.5332Q7.8418 6.5332 8.14941 6.92383Q8.45703 7.31445 8.45703 8.00781Q8.45703 8.70117 8.15918 9.14551Q7.86133 9.58984 7.19727 9.58984ZM12.9688 13.9746Q14.0234 13.9746 14.6826 13.3984Q15.3418 12.8223 15.3418 11.8164Q15.3418 11.1133 14.9414 10.5811Q14.541 10.0488 13.6719 9.59961L12.8125 9.14062Q12.4219 8.94531 12.0996 8.66211Q11.7773 8.37891 11.7773 7.90039Q11.7773 7.44141 12.085 7.16797Q12.3926 6.89453 12.9004 6.89453Q13.457 6.89453 13.7402 7.21191Q14.0234 7.5293 14.0625 8.02734Q14.082 8.27148 14.2432 8.39844Q14.4043 8.52539 14.5996 8.52539Q14.8535 8.52539 15.0488 8.33496Q15.2441 8.14453 15.1855 7.73438Q15.0781 6.94336 14.4922 6.40625Q13.9062 5.86914 12.9004 5.86914Q11.8945 5.86914 11.2354 6.43555Q10.5762 7.00195 10.5762 7.94922Q10.5762 8.75 11.0059 9.28223Q11.4355 9.81445 12.207 10.2051L13.0469 10.6152Q13.4668 10.8301 13.8086 11.1523Q14.1504 11.4746 14.1504 11.9043Q14.1504 12.373 13.8428 12.6562Q13.5352 12.9395 12.9688 12.9395Q12.334 12.9395 12.0361 12.6318Q11.7383 12.3242 11.6797 11.7871Q11.6504 11.543 11.499 11.4209Q11.3477 11.2988 11.1523 11.2988Q10.8984 11.2988 10.708 11.5039Q10.5176 11.709 10.5762 12.0801Q10.6934 12.9199 11.3135 13.4473Q11.9336 13.9746 12.9688 13.9746ZM12.959 15.0195Q13.1152 15.0195 13.2373 14.8975Q13.3594 14.7754 13.3594 14.6094L13.3594 5.24414Q13.3594 5.07812 13.2373 4.96094Q13.1152 4.84375 12.959 4.84375Q12.793 4.84375 12.6709 4.96094Q12.5488 5.07812 12.5488 5.24414L12.5488 14.6094Q12.5488 14.7754 12.6709 14.8975Q12.793 15.0195 12.959 15.0195Z" fill="#ffffff"/>
 </g>
</svg>
