<?xml version="1.0" encoding="UTF-8"?>
<!--Generator: Apple Native CoreSVG 175-->
<!DOCTYPE svg
PUBLIC "-//W3C//DTD SVG 1.1//EN"
       "http://www.w3.org/Graphics/SVG/1.1/DTD/svg11.dtd">
<svg version="1.1" xmlns="http://www.w3.org/2000/svg" xmlns:xlink="http://www.w3.org/1999/xlink" width="20.363" height="20.0482">
 <g>
  <rect height="20.0482" opacity="0" width="20.363" x="0" y="0"/>
  <path d="M10.1828 9.25949Q11.9789 9.25949 13.6674 9.10065Q15.3558 8.9418 17.0116 8.56216Q18.6673 8.18253 20.363 7.52472L20.363 5.93216Q20.363 4.69543 19.7482 4.09172Q19.1333 3.48801 17.9008 3.48801L14.7894 3.48801L14.7894 1.97815Q14.7894 1.0231 14.2326 0.511551Q13.6758 0 12.6738 0L7.67502 0Q6.69922 0 6.1377 0.511551Q5.57617 1.0231 5.57617 1.97815L5.57617 3.48801L2.46918 3.48801Q1.23245 3.48801 0.616226 4.09172Q0 4.69543 0 5.93216L0 7.52472Q1.69846 8.18253 3.35274 8.56216Q5.00702 8.9418 6.69548 9.10065Q8.38394 9.25949 10.1828 9.25949ZM6.2883 3.48801L6.2883 1.95511Q6.2883 1.35635 6.65001 1.02547Q7.01172 0.69458 7.65549 0.69458L12.7003 0.69458Q13.3539 0.69458 13.7156 1.02547Q14.0773 1.35635 14.0773 1.95511L14.0773 3.48801ZM2.46918 18.1876L17.9008 18.1876Q19.1333 18.1876 19.7482 17.5825Q20.363 16.9774 20.363 15.7364L20.363 8.34579Q18.9934 8.80707 17.6854 9.11644Q16.3774 9.42581 15.103 9.61121Q13.8286 9.7966 12.5485 9.8732L12.5485 10.65Q12.5485 11.5669 11.6261 11.5669L8.74374 11.5669Q7.81723 11.5669 7.81723 10.65L7.81723 9.8732Q6.54144 9.7966 5.26352 9.61121Q3.9856 9.42581 2.67754 9.11644Q1.36948 8.80707 0 8.34579L0 15.7364Q0 16.9774 0.616226 17.5825Q1.23245 18.1876 2.46918 18.1876Z" fill="#ffffff"/>
 </g>
</svg>
