<?xml version="1.0" encoding="UTF-8"?>
<!--Generator: Apple Native CoreSVG 175.5-->
<!DOCTYPE svg
PUBLIC "-//W3C//DTD SVG 1.1//EN"
       "http://www.w3.org/Graphics/SVG/1.1/DTD/svg11.dtd">
<svg version="1.1" xmlns="http://www.w3.org/2000/svg" xmlns:xlink="http://www.w3.org/1999/xlink" width="20.6152" height="19.9316">
 <g>
  <rect height="19.9316" opacity="0" width="20.6152" x="0" y="0"/>
  <path d="M14.7461 10.2344Q15.1465 10.3125 15.5957 10.3125Q16.5625 10.3125 17.3975 9.95605Q18.2324 9.59961 18.8721 8.96484Q19.5117 8.33008 19.8682 7.49512Q20.2246 6.66016 20.2246 5.70312Q20.2246 4.43359 19.5996 3.38379Q18.9746 2.33398 17.9248 1.70898Q16.875 1.08398 15.5957 1.08398Q14.6484 1.08398 13.8086 1.44043Q12.9688 1.79688 12.334 2.43652Q11.6992 3.07617 11.3428 3.91113Q10.9863 4.74609 10.9863 5.70312Q10.9863 6.13281 11.0547 6.54297L12.5684 6.54297Q12.5195 6.34766 12.4902 6.1377Q12.4609 5.92773 12.4609 5.70312Q12.4609 4.83398 12.8809 4.12109Q13.3008 3.4082 14.0137 2.9834Q14.7266 2.55859 15.5957 2.55859Q16.4746 2.55859 17.1875 2.97852Q17.9004 3.39844 18.3252 4.11621Q18.75 4.83398 18.75 5.70312Q18.75 6.57227 18.3252 7.28516Q17.9004 7.99805 17.1826 8.41797Q16.4648 8.83789 15.5957 8.83789Q15.2051 8.83789 14.873 8.75ZM11.6797 13.3008Q12.7344 13.3008 13.5938 12.7881Q14.4531 12.2754 14.9658 11.416Q15.4785 10.5566 15.4785 9.50195Q15.4785 8.45703 14.9658 7.59277Q14.4531 6.72852 13.5938 6.21582Q12.7344 5.70312 11.6797 5.70312Q10.625 5.70312 9.76562 6.21582Q8.90625 6.72852 8.39355 7.59277Q7.88086 8.45703 7.88086 9.50195Q7.88086 10.5566 8.39355 11.416Q8.90625 12.2754 9.76562 12.7881Q10.625 13.3008 11.6797 13.3008ZM11.6797 11.8262Q11.0352 11.8262 10.5078 11.5137Q9.98047 11.2012 9.66797 10.6787Q9.35547 10.1562 9.35547 9.50195Q9.35547 8.85742 9.66797 8.33008Q9.98047 7.80273 10.5078 7.49023Q11.0352 7.17773 11.6797 7.17773Q12.3242 7.17773 12.8516 7.49023Q13.3789 7.80273 13.6914 8.33008Q14.0039 8.85742 14.0039 9.50195Q14.0039 10.1562 13.6914 10.6787Q13.3789 11.2012 12.8516 11.5137Q12.3242 11.8262 11.6797 11.8262ZM2.58789 10.7715Q3.29102 10.7715 3.87695 10.4199Q4.46289 10.0684 4.81445 9.48242Q5.16602 8.89648 5.16602 8.18359Q5.16602 7.48047 4.81445 6.89453Q4.46289 6.30859 3.87695 5.96191Q3.29102 5.61523 2.58789 5.61523Q1.875 5.61523 1.28906 5.96191Q0.703125 6.30859 0.351562 6.89453Q0 7.48047 0 8.18359Q0 8.89648 0.351562 9.4873Q0.703125 10.0781 1.28906 10.4248Q1.875 10.7715 2.58789 10.7715ZM2.58789 9.29688Q2.12891 9.29688 1.80176 8.96973Q1.47461 8.64258 1.47461 8.18359Q1.47461 7.73438 1.80176 7.41211Q2.12891 7.08984 2.58789 7.08984Q3.03711 7.08984 3.36426 7.41211Q3.69141 7.73438 3.69141 8.18359Q3.69141 8.64258 3.36426 8.96973Q3.03711 9.29688 2.58789 9.29688ZM6.39648 19.6094Q7.1582 19.6094 7.7832 19.2334Q8.4082 18.8574 8.78418 18.2227Q9.16016 17.5879 9.16016 16.8262Q9.16016 16.0645 8.78418 15.4395Q8.4082 14.8145 7.7832 14.4385Q7.1582 14.0625 6.39648 14.0625Q5.63477 14.0625 5 14.4385Q4.36523 14.8145 3.98926 15.4395Q3.61328 16.0645 3.61328 16.8262Q3.61328 17.5879 3.98926 18.2227Q4.36523 18.8574 5 19.2334Q5.63477 19.6094 6.39648 19.6094ZM6.39648 18.125Q5.85938 18.125 5.47363 17.7441Q5.08789 17.3633 5.08789 16.8262Q5.08789 16.2988 5.47852 15.918Q5.86914 15.5371 6.39648 15.5371Q6.92383 15.5371 7.30469 15.918Q7.68555 16.2988 7.68555 16.8262Q7.68555 17.3535 7.30469 17.7393Q6.92383 18.125 6.39648 18.125ZM6.41602 5.36133Q6.54297 5.36133 6.63086 5.2832Q6.71875 5.20508 6.74805 5.07812Q6.875 4.41406 6.96777 4.04785Q7.06055 3.68164 7.23633 3.50586Q7.41211 3.33008 7.77832 3.2373Q8.14453 3.14453 8.80859 3.00781Q8.94531 2.98828 9.02344 2.89551Q9.10156 2.80273 9.10156 2.67578Q9.10156 2.55859 9.02344 2.46582Q8.94531 2.37305 8.80859 2.35352Q8.14453 2.2168 7.77832 2.12402Q7.41211 2.03125 7.23633 1.85059Q7.06055 1.66992 6.96777 1.30859Q6.875 0.947266 6.74805 0.283203Q6.71875 0.15625 6.63086 0.078125Q6.54297 0 6.41602 0Q6.28906 0 6.20117 0.078125Q6.11328 0.15625 6.08398 0.283203Q5.9668 0.947266 5.86914 1.30859Q5.77148 1.66992 5.5957 1.85059Q5.41992 2.03125 5.05371 2.12402Q4.6875 2.2168 4.02344 2.35352Q3.88672 2.37305 3.80859 2.46582Q3.73047 2.55859 3.73047 2.67578Q3.73047 2.80273 3.80859 2.89551Q3.88672 2.98828 4.02344 3.00781Q4.6875 3.14453 5.05371 3.2373Q5.41992 3.33008 5.5957 3.50586Q5.77148 3.68164 5.86914 4.04785Q5.9668 4.41406 6.08398 5.07812Q6.11328 5.20508 6.20117 5.2832Q6.28906 5.36133 6.41602 5.36133ZM17.0215 19.9219Q17.1777 19.9219 17.2949 19.8193Q17.4121 19.7168 17.4316 19.5508Q17.5488 18.6719 17.6611 18.1836Q17.7734 17.6953 18.0225 17.4512Q18.2715 17.207 18.7891 17.0654Q19.3066 16.9238 20.2441 16.748Q20.4102 16.7188 20.5127 16.6064Q20.6152 16.4941 20.6152 16.3379Q20.6152 16.1719 20.5078 16.0645Q20.4004 15.957 20.2344 15.9277Q19.3164 15.8008 18.7988 15.6787Q18.2812 15.5566 18.0273 15.3027Q17.7734 15.0488 17.6611 14.541Q17.5488 14.0332 17.4316 13.1348Q17.4121 12.9688 17.2998 12.8613Q17.1875 12.7539 17.0215 12.7539Q16.8457 12.7539 16.7334 12.8662Q16.6211 12.9785 16.6113 13.1445Q16.5039 14.0234 16.3916 14.5117Q16.2793 15 16.0205 15.2441Q15.7617 15.4883 15.2393 15.6201Q14.7168 15.752 13.7891 15.9277Q13.623 15.957 13.5254 16.0742Q13.4277 16.1914 13.4277 16.3379Q13.4277 16.5039 13.5352 16.6113Q13.6426 16.7188 13.8281 16.748Q14.7461 16.8945 15.2588 17.0264Q15.7715 17.1582 16.0254 17.4121Q16.2793 17.666 16.3916 18.1592Q16.5039 18.6523 16.6113 19.5312Q16.6211 19.707 16.7334 19.8145Q16.8457 19.9219 17.0215 19.9219Z" fill="#ffffff"/>
 </g>
</svg>
