<?xml version="1.0" encoding="UTF-8"?>
<!--Generator: Apple Native CoreSVG 175.5-->
<!DOCTYPE svg
PUBLIC "-//W3C//DTD SVG 1.1//EN"
       "http://www.w3.org/Graphics/SVG/1.1/DTD/svg11.dtd">
<svg version="1.1" xmlns="http://www.w3.org/2000/svg" xmlns:xlink="http://www.w3.org/1999/xlink" width="19.9219" height="19.9316">
 <g>
  <rect height="19.9316" opacity="0" width="19.9219" x="0" y="0"/>
  <path d="M0 9.96094Q0 12.002 0.78125 13.8037Q1.5625 15.6055 2.93945 16.9824Q4.31641 18.3594 6.11816 19.1406Q7.91992 19.9219 9.96094 19.9219Q12.002 19.9219 13.8037 19.1406Q15.6055 18.3594 16.9824 16.9824Q18.3594 15.6055 19.1406 13.8037Q19.9219 12.002 19.9219 9.96094Q19.9219 7.91992 19.1406 6.11816Q18.3594 4.31641 16.9824 2.93945Q15.6055 1.5625 13.7988 0.78125Q11.9922 0 9.95117 0Q7.91016 0 6.1084 0.78125Q4.30664 1.5625 2.93457 2.93945Q1.5625 4.31641 0.78125 6.11816Q0 7.91992 0 9.96094ZM1.66992 9.96094L9.94141 9.96094L5.80078 2.76367Q6.70898 2.23633 7.76367 1.94824Q8.81836 1.66016 9.95117 1.66016Q11.084 1.66016 12.1387 1.94824Q13.1934 2.23633 14.1016 2.76367L9.94141 9.96094L18.2617 9.96094Q18.2617 11.5137 17.7441 12.8857Q17.2266 14.2578 16.2891 15.3516Q15.3516 16.4453 14.1113 17.1582L9.94141 9.96094L5.80078 17.1484Q4.56055 16.4355 3.63281 15.3418Q2.70508 14.248 2.1875 12.876Q1.66992 11.5039 1.66992 9.96094Z" fill="#ffffff"/>
 </g>
</svg>
