<?xml version="1.0" encoding="UTF-8"?>
<!--Generator: Apple Native CoreSVG 175.5-->
<!DOCTYPE svg
PUBLIC "-//W3C//DTD SVG 1.1//EN"
       "http://www.w3.org/Graphics/SVG/1.1/DTD/svg11.dtd">
<svg version="1.1" xmlns="http://www.w3.org/2000/svg" xmlns:xlink="http://www.w3.org/1999/xlink" width="24.5508" height="23.2715">
 <g>
  <rect height="23.2715" opacity="0" width="24.5508" x="0" y="0"/>
  <path d="M23.7109 12.4707Q24.1309 12.2656 24.3408 11.9873Q24.5508 11.709 24.5508 11.416Q24.5508 11.123 24.3408 10.8691Q24.1309 10.6152 23.7109 10.4688L19.0918 8.87695L21.0742 4.82422Q21.2109 4.54102 21.2109 4.21875Q21.2109 3.80859 20.9375 3.54004Q20.6641 3.27148 20.2539 3.27148Q20.1172 3.27148 19.9658 3.30078Q19.8145 3.33008 19.6582 3.4082L15.4688 5.45898L13.2812 0.78125Q13.1055 0.390625 12.8369 0.195312Q12.5684 0 12.2754 0Q11.9824 0 11.7188 0.195312Q11.4551 0.390625 11.2695 0.78125L9.0918 5.45898L4.89258 3.4082Q4.74609 3.33008 4.58984 3.30078Q4.43359 3.27148 4.29688 3.27148Q3.88672 3.27148 3.61328 3.54004Q3.33984 3.80859 3.33984 4.21875Q3.33984 4.54102 3.48633 4.82422L5.45898 8.87695L0.839844 10.4688Q0.429688 10.6055 0.214844 10.8691Q0 11.1328 0 11.4258Q0 11.709 0.209961 11.9873Q0.419922 12.2656 0.839844 12.4707L5.27344 14.5898L2.88086 19.6582Q2.71484 19.9902 2.71484 20.3027Q2.71484 20.6641 2.93945 20.9033Q3.16406 21.1426 3.51562 21.1426Q3.66211 21.1426 3.82324 21.0889Q3.98438 21.0352 4.15039 20.9375L9.81445 17.5879L11.3672 22.3926Q11.5039 22.793 11.748 22.9932Q11.9922 23.1934 12.2754 23.1934Q12.5684 23.1934 12.8076 22.9932Q13.0469 22.793 13.1836 22.3926L14.7461 17.5879L20.4004 20.9375Q20.5762 21.0352 20.7324 21.084Q20.8887 21.1328 21.0352 21.1328Q21.377 21.1328 21.6113 20.9033Q21.8457 20.6738 21.8457 20.3125Q21.8457 20.0098 21.6699 19.6582L19.2773 14.5898Z" fill="#ffffff"/>
 </g>
</svg>
