<?xml version="1.0" encoding="UTF-8"?>
<!--Generator: Apple Native CoreSVG 175.5-->
<!DOCTYPE svg
PUBLIC "-//W3C//DTD SVG 1.1//EN"
       "http://www.w3.org/Graphics/SVG/1.1/DTD/svg11.dtd">
<svg version="1.1" xmlns="http://www.w3.org/2000/svg" xmlns:xlink="http://www.w3.org/1999/xlink" width="17.9785" height="17.998">
 <g>
  <rect height="17.998" opacity="0" width="17.9785" x="0" y="0"/>
  <path d="M3.06641 17.998L14.9121 17.998Q16.4453 17.998 17.2119 17.2412Q17.9785 16.4844 17.9785 14.9707L17.9785 3.04688Q17.9785 1.5332 17.2119 0.776367Q16.4453 0.0195312 14.9121 0.0195312L3.06641 0.0195312Q1.5332 0.0195312 0.766602 0.776367Q0 1.5332 0 3.04688L0 14.9707Q0 16.4844 0.766602 17.2412Q1.5332 17.998 3.06641 17.998ZM3.08594 16.4258Q2.35352 16.4258 1.96289 16.04Q1.57227 15.6543 1.57227 14.8926L1.57227 3.125Q1.57227 2.36328 1.96289 1.97754Q2.35352 1.5918 3.08594 1.5918L14.8926 1.5918Q15.6152 1.5918 16.0107 1.97754Q16.4062 2.36328 16.4062 3.125L16.4062 14.8926Q16.4062 15.6543 16.0107 16.04Q15.6152 16.4258 14.8926 16.4258Z" fill="#007aff"/>
  <path d="M9.02344 14.5703Q10.166 14.5703 11.1719 14.1309Q12.1777 13.6914 12.9492 12.9248Q13.7207 12.1582 14.1553 11.1523Q14.5898 10.1465 14.5898 9.00391Q14.5898 7.87109 14.1504 6.86523Q13.7109 5.85938 12.9443 5.08789Q12.1777 4.31641 11.1719 3.87695Q10.166 3.4375 9.02344 3.4375Q7.89062 3.4375 6.88477 3.87695Q5.87891 4.31641 5.10742 5.08301Q4.33594 5.84961 3.90137 6.85547Q3.4668 7.86133 3.4668 9.00391Q3.4668 10.1367 3.90625 11.1426Q4.3457 12.1484 5.1123 12.9199Q5.87891 13.6914 6.88477 14.1309Q7.89062 14.5703 9.02344 14.5703ZM9.02344 13.1934Q7.89062 13.1934 6.93848 12.6221Q5.98633 12.0508 5.41016 11.0938Q4.83398 10.1367 4.83398 9.00391Q4.83398 7.86133 5.41016 6.90918Q5.98633 5.95703 6.93848 5.38574Q7.89062 4.81445 9.02344 4.81445Q10.166 4.81445 11.1182 5.38574Q12.0703 5.95703 12.6465 6.91406Q13.2227 7.87109 13.2227 9.00391Q13.2227 10.1465 12.6465 11.0986Q12.0703 12.0508 11.1182 12.6221Q10.166 13.1934 9.02344 13.1934ZM9.02344 12.1875Q9.89258 12.1875 10.6152 11.7529Q11.3379 11.3184 11.7725 10.5957Q12.207 9.87305 12.207 9.00391Q12.207 8.14453 11.7725 7.42188Q11.3379 6.69922 10.6152 6.25977Q9.89258 5.82031 9.02344 5.82031Q8.16406 5.82031 7.44141 6.25488Q6.71875 6.68945 6.28418 7.41211Q5.84961 8.13477 5.84961 9.00391Q5.84961 9.86328 6.28418 10.5859Q6.71875 11.3086 7.44141 11.748Q8.16406 12.1875 9.02344 12.1875Z" fill="#ffffff"/>
 </g>
</svg>
