<?xml version="1.0" encoding="UTF-8"?>
<!--Generator: Apple Native CoreSVG 175.5-->
<!DOCTYPE svg
PUBLIC "-//W3C//DTD SVG 1.1//EN"
       "http://www.w3.org/Graphics/SVG/1.1/DTD/svg11.dtd">
<svg version="1.1" xmlns="http://www.w3.org/2000/svg" xmlns:xlink="http://www.w3.org/1999/xlink" width="19.9219" height="19.9316">
 <g>
  <rect height="19.9316" opacity="0" width="19.9219" x="0" y="0"/>
  <path d="M9.96094 19.9219Q12.002 19.9219 13.8037 19.1406Q15.6055 18.3594 16.9824 16.9824Q18.3594 15.6055 19.1406 13.8037Q19.9219 12.002 19.9219 9.96094Q19.9219 7.91992 19.1406 6.11816Q18.3594 4.31641 16.9824 2.93945Q15.6055 1.5625 13.7988 0.78125Q11.9922 0 9.95117 0Q7.91016 0 6.1084 0.78125Q4.30664 1.5625 2.93457 2.93945Q1.5625 4.31641 0.78125 6.11816Q0 7.91992 0 9.96094Q0 12.002 0.78125 13.8037Q1.5625 15.6055 2.93945 16.9824Q4.31641 18.3594 6.11816 19.1406Q7.91992 19.9219 9.96094 19.9219ZM9.96094 18.2617Q8.23242 18.2617 6.72852 17.6172Q5.22461 16.9727 4.08691 15.835Q2.94922 14.6973 2.30957 13.1934Q1.66992 11.6895 1.66992 9.96094Q1.66992 8.23242 2.30957 6.72852Q2.94922 5.22461 4.08203 4.08203Q5.21484 2.93945 6.71875 2.2998Q8.22266 1.66016 9.95117 1.66016Q11.6797 1.66016 13.1885 2.2998Q14.6973 2.93945 15.835 4.08203Q16.9727 5.22461 17.6172 6.72852Q18.2617 8.23242 18.2617 9.96094Q18.2617 11.6895 17.6221 13.1934Q16.9824 14.6973 15.8398 15.835Q14.6973 16.9727 13.1934 17.6172Q11.6895 18.2617 9.96094 18.2617Z" fill="#007aff"/>
  <path d="M9.96094 14.541Q10.8203 14.541 11.5479 14.2822Q12.2754 14.0234 12.7881 13.54Q13.3008 13.0566 13.5352 12.4023Q13.584 12.2754 13.6035 12.1729Q13.623 12.0703 13.623 11.9531Q13.623 11.6504 13.4424 11.4697Q13.2617 11.2891 12.9492 11.2891Q12.5293 11.2891 12.2949 11.7676Q12.002 12.4805 11.4062 12.8662Q10.8105 13.252 9.98047 13.252Q9.19922 13.252 8.61816 12.832Q8.03711 12.4121 7.70996 11.6504Q7.38281 10.8887 7.38281 9.87305Q7.38281 8.86719 7.70996 8.10059Q8.03711 7.33398 8.61816 6.90918Q9.19922 6.48438 9.98047 6.48438Q10.8105 6.48438 11.4062 6.87012Q12.002 7.25586 12.2949 7.97852Q12.4219 8.22266 12.5732 8.33496Q12.7246 8.44727 12.9492 8.44727Q13.2617 8.44727 13.4424 8.27148Q13.623 8.0957 13.623 7.7832Q13.623 7.66602 13.6035 7.56836Q13.584 7.4707 13.5352 7.33398Q13.3008 6.67969 12.7832 6.20117Q12.2656 5.72266 11.543 5.45898Q10.8203 5.19531 9.96094 5.19531Q8.69141 5.19531 7.75879 5.77148Q6.82617 6.34766 6.31836 7.39746Q5.81055 8.44727 5.81055 9.87305Q5.81055 11.2988 6.31836 12.3486Q6.82617 13.3984 7.75879 13.9697Q8.69141 14.541 9.96094 14.541Z" fill="#ffffff"/>
 </g>
</svg>
