<?xml version="1.0" encoding="UTF-8"?>
<!--Generator: Apple Native CoreSVG 175.5-->
<!DOCTYPE svg
PUBLIC "-//W3C//DTD SVG 1.1//EN"
       "http://www.w3.org/Graphics/SVG/1.1/DTD/svg11.dtd">
<svg version="1.1" xmlns="http://www.w3.org/2000/svg" xmlns:xlink="http://www.w3.org/1999/xlink" width="15.8691" height="22.7832">
 <g>
  <rect height="22.7832" opacity="0" width="15.8691" x="0" y="0"/>
  <path d="M2.25586 20.9668L7.26562 20.9668L7.26562 0L2.25586 0Q1.25 0 0.625 0.639648Q0 1.2793 0 2.33398L0 18.6328Q0 19.6875 0.625 20.3271Q1.25 20.9668 2.25586 20.9668ZM4.88281 11.875Q4.46289 11.875 4.15527 11.5723Q3.84766 11.2695 3.84766 10.8496Q3.84766 10.4199 4.15527 10.1172Q4.46289 9.81445 4.88281 9.81445Q5.3125 9.81445 5.61523 10.1172Q5.91797 10.4199 5.91797 10.8496Q5.91797 11.2695 5.61523 11.5723Q5.3125 11.875 4.88281 11.875ZM13.6133 20.9668Q14.6191 20.9668 15.2441 20.3271Q15.8691 19.6875 15.8691 18.6328L15.8691 2.33398Q15.8691 1.2793 15.2441 0.639648Q14.6191 0 13.6133 0L8.60352 0L8.60352 20.9668ZM10.9766 11.875Q10.5566 11.875 10.249 11.5723Q9.94141 11.2695 9.94141 10.8496Q9.94141 10.4199 10.249 10.1172Q10.5566 9.81445 10.9766 9.81445Q11.4062 9.81445 11.709 10.1172Q12.0117 10.4199 12.0117 10.8496Q12.0117 11.2695 11.709 11.5723Q11.4062 11.875 10.9766 11.875ZM2.86133 22.7734Q3.22266 22.7734 3.44727 22.5488Q3.67188 22.3242 3.67188 21.9531L3.67188 19.9902L2.05078 19.9902L2.05078 21.9531Q2.05078 22.3242 2.27539 22.5488Q2.5 22.7734 2.86133 22.7734ZM13.0078 22.7734Q13.3691 22.7734 13.5938 22.5488Q13.8184 22.3242 13.8184 21.9531L13.8184 19.9902L12.1973 19.9902L12.1973 21.9531Q12.1973 22.3242 12.4219 22.5488Q12.6465 22.7734 13.0078 22.7734Z" fill="#ffffff"/>
 </g>
</svg>
