<?xml version="1.0" encoding="UTF-8"?>
<!--Generator: Apple Native CoreSVG 175-->
<!DOCTYPE svg
PUBLIC "-//W3C//DTD SVG 1.1//EN"
       "http://www.w3.org/Graphics/SVG/1.1/DTD/svg11.dtd">
<svg version="1.1" xmlns="http://www.w3.org/2000/svg" xmlns:xlink="http://www.w3.org/1999/xlink" width="18.4731" height="22.3895">
 <g>
  <rect height="22.3895" opacity="0" width="18.4731" x="0" y="0"/>
  <path d="M0.736389 18.2785L1.37741 18.2785L1.37741 4.63242Q1.37741 3.99261 1.66077 3.69827Q1.94412 3.40393 2.6387 3.30048Q3.8707 3.12042 5.61508 3.0423Q7.35947 2.96417 9.23523 2.96417Q11.104 2.96417 12.8518 3.0423Q14.5996 3.12042 15.8344 3.30048Q16.5247 3.40393 16.8089 3.69278Q17.093 3.98163 17.093 4.63242L17.093 18.2785L17.7298 18.2785L17.7298 4.40628Q17.7298 3.63708 17.3028 3.20602Q16.8758 2.77496 16.0258 2.66479Q15.0996 2.54059 13.9657 2.46109Q12.8317 2.38159 11.6163 2.34253Q10.4008 2.30347 9.23523 2.30347Q8.06686 2.30347 6.8528 2.34253Q5.63873 2.38159 4.5047 2.46109Q3.37067 2.54059 2.44186 2.66479Q1.58752 2.77496 1.16196 3.20602Q0.736389 3.63708 0.736389 4.40628ZM0 18.4818Q0 18.6282 0.10643 18.736Q0.21286 18.8438 0.359344 18.8438L18.1067 18.8438Q18.2602 18.8438 18.3666 18.736Q18.4731 18.6282 18.4731 18.4818Q18.4731 18.3281 18.3666 18.2217Q18.2602 18.1152 18.1067 18.1152L0.359344 18.1152Q0.21286 18.1152 0.10643 18.2217Q0 18.3281 0 18.4818ZM3.49182 0.760498Q3.49182 0.937958 3.63754 1.08421Q3.78326 1.23047 4.00543 1.19568Q5.00504 1.06598 6.39626 1.00037Q7.78748 0.934753 9.23523 0.934753Q10.6828 0.934753 12.0741 1.00037Q13.4653 1.06598 14.4606 1.19568Q14.6899 1.23047 14.8343 1.08421Q14.9786 0.937958 14.9786 0.760498Q14.9786 0.583191 14.8567 0.444336Q14.7348 0.305481 14.4817 0.270691Q13.3852 0.126953 11.9772 0.0634766Q10.5692 0 9.23523 0Q7.89413 0 6.49101 0.0634766Q5.08789 0.126953 3.98865 0.270691Q3.73825 0.305481 3.61504 0.444336Q3.49182 0.583191 3.49182 0.760498ZM4.59106 0.555878L4.59106 2.61993L5.25162 2.61993L5.25162 0.555878ZM13.2286 0.555878L13.2286 2.61993L13.8892 2.61993L13.8892 0.555878ZM9.23523 16.6504Q9.85001 16.6504 10.2752 16.2447Q10.7004 15.8391 10.7004 15.2243Q10.7004 14.5969 10.2717 14.1647Q9.84299 13.7325 9.23523 13.7325Q8.60077 13.7325 8.1916 14.1576Q7.78244 14.5828 7.78244 15.2243Q7.78244 15.8461 8.1881 16.2482Q8.59375 16.6504 9.23523 16.6504ZM2.56287 11.5848Q2.56287 11.8375 2.70668 11.9834Q2.85049 12.1294 3.14102 12.1294L5.68359 12.1294Q5.97427 12.1294 6.11801 11.9834Q6.26175 11.8375 6.26175 11.5848L6.26175 6.80939Q6.26175 5.98877 5.74493 5.47333Q5.22812 4.95789 4.41025 4.95789Q3.5965 4.95789 3.07968 5.47333Q2.56287 5.98877 2.56287 6.80939ZM7.04376 11.5848Q7.04376 11.8375 7.18399 11.9834Q7.32422 12.1294 7.62192 12.1294L10.8458 12.1294Q11.1391 12.1294 11.2828 11.9834Q11.4265 11.8375 11.4265 11.5848L11.4265 6.67618Q11.4265 5.68787 10.8215 5.08415Q10.2164 4.48044 9.23523 4.48044Q8.25119 4.48044 7.64748 5.08415Q7.04376 5.68787 7.04376 6.67618ZM12.206 11.5848Q12.206 11.8375 12.3511 11.9834Q12.4962 12.1294 12.7867 12.1294L15.3293 12.1294Q15.62 12.1294 15.7637 11.9834Q15.9074 11.8375 15.9074 11.5848L15.9074 6.80939Q15.9074 5.98877 15.3906 5.47333Q14.8738 4.95789 14.0559 4.95789Q13.2324 4.95789 12.7192 5.47333Q12.206 5.98877 12.206 6.80939ZM1.95831 22.384L2.35748 22.384Q2.60635 22.384 2.74109 22.1672L5.05051 18.4583L3.82507 18.4583L1.70868 21.8719Q1.62384 21.9997 1.63071 22.1176Q1.63757 22.2356 1.72295 22.3098Q1.80832 22.384 1.95831 22.384ZM14.7966 22.384L15.1958 22.384Q15.343 22.384 15.4249 22.3098Q15.5067 22.2356 15.5135 22.1176Q15.5203 21.9997 15.4427 21.8719L13.3192 18.4583L12.1008 18.4583L14.4032 22.1672Q14.545 22.384 14.7966 22.384Z" fill="#ffffff"/>
 </g>
</svg>
