<?xml version="1.0" encoding="UTF-8"?>
<!--Generator: Apple Native CoreSVG 175-->
<!DOCTYPE svg
PUBLIC "-//W3C//DTD SVG 1.1//EN"
       "http://www.w3.org/Graphics/SVG/1.1/DTD/svg11.dtd">
<svg version="1.1" xmlns="http://www.w3.org/2000/svg" xmlns:xlink="http://www.w3.org/1999/xlink" width="22.6617" height="17.3035">
 <g>
  <rect height="17.3035" opacity="0" width="22.6617" x="0" y="0"/>
  <path d="M16.4175 9.10538L15.75 9.10538Q15.6332 10.2254 15.0121 11.1337Q14.391 12.0421 13.434 12.5798Q12.477 13.1175 11.3434 13.1175Q10.1888 13.1175 9.22195 12.5834Q8.25516 12.0493 7.63405 11.1373Q7.01294 10.2254 6.89606 9.10538L6.22849 9.10538Q6.34537 10.4082 7.05788 11.4711Q7.77039 12.534 8.88947 13.1568Q10.0085 13.7796 11.3434 13.7796Q12.664 13.7796 13.7685 13.1519Q14.873 12.5243 15.5856 11.4662Q16.2981 10.4082 16.4175 9.10538ZM15.7527 8.23166L16.4175 8.23166Q16.3078 6.93863 15.5988 5.87578Q14.8898 4.81293 13.7769 4.18518Q12.664 3.55743 11.3434 3.55743Q10.0085 3.55743 8.88588 4.18518Q7.76321 4.81293 7.04941 5.87578Q6.3356 6.93863 6.22849 8.23166L6.89331 8.23166Q7.00043 7.11868 7.62291 6.20682Q8.24539 5.29495 9.21707 4.75723Q10.1888 4.21951 11.3434 4.21951Q12.484 4.21951 13.4473 4.75723Q14.4106 5.29495 15.0282 6.20682Q15.6458 7.11868 15.7527 8.23166Z" fill="#ffffff"/>
  <path d="M2.63046 17.2894L10.9087 17.2894L10.9087 16.568L2.65701 16.568Q1.7067 16.568 1.21765 16.0767Q0.728607 15.5855 0.728607 14.6269L0.728607 9.08157L0 9.08157L0 14.6655Q0 15.9586 0.668182 16.624Q1.33636 17.2894 2.63046 17.2894ZM11.7824 17.2894L20.0243 17.2894Q21.3281 17.2894 21.9949 16.617Q22.6617 15.9445 22.6617 14.6655L22.6617 9.08157L21.9331 9.08157L21.9331 14.6269Q21.9331 15.5855 21.4287 16.0767Q20.9242 16.568 20.0047 16.568L11.7824 16.568ZM21.9331 8.21045L22.6617 8.21045L22.6617 2.6265Q22.6617 1.35468 21.9949 0.677338Q21.3281 0 20.0243 0L11.7824 0L11.7824 0.728455L20.0047 0.728455Q20.9242 0.728455 21.4287 1.21758Q21.9331 1.7067 21.9331 2.66525ZM0 8.21045L0.728607 8.21045L0.728607 2.66525Q0.728607 1.7067 1.21765 1.21758Q1.7067 0.728455 2.65701 0.728455L10.9087 0.728455L10.9087 0L2.63046 0Q1.33636 0 0.668182 0.668945Q0 1.33789 0 2.6265Z" fill="#007aff"/>
 </g>
</svg>
