<?xml version="1.0" encoding="UTF-8"?>
<!--Generator: Apple Native CoreSVG 175-->
<!DOCTYPE svg
PUBLIC "-//W3C//DTD SVG 1.1//EN"
       "http://www.w3.org/Graphics/SVG/1.1/DTD/svg11.dtd">
<svg version="1.1" xmlns="http://www.w3.org/2000/svg" xmlns:xlink="http://www.w3.org/1999/xlink" width="20.7715" height="20.3223">
 <g>
  <rect height="20.3223" opacity="0" width="20.7715" x="0" y="0"/>
  <path d="M5.06836 20.3223Q5.25391 20.3223 5.39551 20.2295Q5.53711 20.1367 5.71289 19.9902L9.22852 16.9629L17.0508 16.9629Q18.2031 16.9629 19.0381 16.5088Q19.873 16.0547 20.3223 15.2197Q20.7715 14.3848 20.7715 13.252L20.7715 4.90234Q20.7715 3.75977 20.3223 2.9248Q19.873 2.08984 19.0381 1.63574Q18.2031 1.18164 17.0508 1.18164L3.7207 1.18164Q2.56836 1.18164 1.7334 1.63574Q0.898438 2.08984 0.449219 2.91992Q0 3.75 0 4.90234L0 13.252Q0 14.3945 0.449219 15.2246Q0.898438 16.0547 1.7334 16.5088Q2.56836 16.9629 3.7207 16.9629L4.55078 16.9629L4.55078 19.7168Q4.55078 20 4.69727 20.1611Q4.84375 20.3223 5.06836 20.3223ZM5.23438 19.5117L5.23438 16.582Q5.23438 16.4062 5.15625 16.3232Q5.07812 16.2402 4.88281 16.2402L3.73047 16.2402Q2.33398 16.2402 1.5332 15.4297Q0.732422 14.6191 0.732422 13.2227L0.732422 4.92188Q0.732422 3.52539 1.5332 2.71973Q2.33398 1.91406 3.73047 1.91406L17.0312 1.91406Q18.4082 1.91406 19.2236 2.71973Q20.0391 3.52539 20.0391 4.92188L20.0391 13.2227Q20.0391 14.6191 19.2236 15.4297Q18.4082 16.2402 17.0312 16.2402L9.30664 16.2402Q9.07227 16.2402 8.9209 16.2988Q8.76953 16.3574 8.58398 16.5332Z" fill="#007aff"/>
  <path d="M3.4668 10.1758L8.02734 10.1758Q8.16406 10.1758 8.25195 10.0879Q8.33984 10 8.33984 9.86328Q8.33984 9.73633 8.25195 9.64355Q8.16406 9.55078 8.02734 9.55078L3.4668 9.55078Q3.33984 9.55078 3.24707 9.64355Q3.1543 9.73633 3.1543 9.86328Q3.1543 10 3.24707 10.0879Q3.33984 10.1758 3.4668 10.1758ZM10.3223 10.1758L17.3047 10.1758Q17.4414 10.1758 17.5342 10.0879Q17.627 10 17.627 9.86328Q17.627 9.73633 17.5342 9.64355Q17.4414 9.55078 17.3047 9.55078L10.3223 9.55078Q10.1855 9.55078 10.0977 9.64355Q10.0098 9.73633 10.0098 9.86328Q10.0098 10 10.0977 10.0879Q10.1855 10.1758 10.3223 10.1758ZM3.4668 12.3926L5.23438 12.3926Q5.37109 12.3926 5.45898 12.3047Q5.54688 12.2168 5.54688 12.0801Q5.54688 11.9434 5.45898 11.8506Q5.37109 11.7578 5.23438 11.7578L3.4668 11.7578Q3.33984 11.7578 3.24707 11.8506Q3.1543 11.9434 3.1543 12.0801Q3.1543 12.2168 3.24707 12.3047Q3.33984 12.3926 3.4668 12.3926ZM7.5293 12.3926L12.8027 12.3926Q12.9297 12.3926 13.0225 12.3047Q13.1152 12.2168 13.1152 12.0801Q13.1152 11.9434 13.0225 11.8506Q12.9297 11.7578 12.8027 11.7578L7.5293 11.7578Q7.39258 11.7578 7.30469 11.8506Q7.2168 11.9434 7.2168 12.0801Q7.2168 12.2168 7.30469 12.3047Q7.39258 12.3926 7.5293 12.3926ZM15.0977 12.3926L17.3047 12.3926Q17.4414 12.3926 17.5342 12.3047Q17.627 12.2168 17.627 12.0801Q17.627 11.9434 17.5342 11.8506Q17.4414 11.7578 17.3047 11.7578L15.0977 11.7578Q14.9609 11.7578 14.873 11.8506Q14.7852 11.9434 14.7852 12.0801Q14.7852 12.2168 14.873 12.3047Q14.9609 12.3926 15.0977 12.3926Z" fill="#ffffff"/>
 </g>
</svg>
