<?xml version="1.0" encoding="UTF-8"?>
<!--Generator: Apple Native CoreSVG 175.5-->
<!DOCTYPE svg
PUBLIC "-//W3C//DTD SVG 1.1//EN"
       "http://www.w3.org/Graphics/SVG/1.1/DTD/svg11.dtd">
<svg version="1.1" xmlns="http://www.w3.org/2000/svg" xmlns:xlink="http://www.w3.org/1999/xlink" width="31.123" height="18.1934">
 <g>
  <rect height="18.1934" opacity="0" width="31.123" x="0" y="0"/>
  <path d="M4.0332 5.68359Q4.15039 5.15625 4.33105 4.56055Q4.51172 3.96484 4.70703 3.45215Q4.90234 2.93945 5.05859 2.65625Q5.25391 2.31445 5.49805 2.14844Q5.74219 1.98242 6.13281 1.92383Q6.60156 1.85547 7.58301 1.81641Q8.56445 1.77734 10.2148 1.75781Q10.3906 1.23047 10.6396 0.805664Q10.8887 0.380859 11.3184 0Q9.26758 0.0195312 7.96387 0.0585938Q6.66016 0.0976562 6.2207 0.146484Q5.24414 0.253906 4.51172 0.756836Q3.7793 1.25977 3.38867 2.08984Q3.21289 2.44141 2.96875 3.12988Q2.72461 3.81836 2.47559 4.67773Q2.22656 5.53711 2.05078 6.41602L1.24023 7.48047Q0.791016 8.06641 0.517578 8.61328Q0.244141 9.16016 0.12207 9.78027Q0 10.4004 0 11.2305L0.00976562 12.9492Q0.0195312 13.8867 0.551758 14.4189Q1.08398 14.9512 2.07031 15.0684Q2.82227 15.1562 4.04297 15.2295Q5.26367 15.3027 6.66992 15.3516L6.66992 11.2305Q6.66992 10.4004 6.79199 9.78027Q6.91406 9.16016 7.1875 8.61328Q7.46094 8.06641 7.90039 7.48047L8.7207 6.41602L8.85742 5.97656Q7.89062 5.99609 7.11426 6.02539Q6.33789 6.05469 5.69336 6.08887Q5.04883 6.12305 4.47266 6.16211Q4.18945 6.18164 4.07715 6.06934Q3.96484 5.95703 4.0332 5.68359ZM3.68164 12.2852Q3.06641 12.2852 2.65625 11.8701Q2.24609 11.4551 2.24609 10.8496Q2.24609 10.2344 2.65625 9.82422Q3.06641 9.41406 3.68164 9.41406Q4.28711 9.41406 4.69727 9.82422Q5.10742 10.2344 5.10742 10.8496Q5.10742 11.4551 4.69727 11.8701Q4.28711 12.2852 3.68164 12.2852ZM1.31836 18.1348L2.46094 18.1348Q3.01758 18.1348 3.38379 17.7637Q3.75 17.3926 3.75 16.8457L3.75 14.1211L0.00976562 12.3535L0.00976562 16.8555Q0.00976562 17.4023 0.385742 17.7686Q0.761719 18.1348 1.31836 18.1348Z" fill="#007aff"/>
  <path d="M19.5703 15.4492Q20.8008 15.4492 22.168 15.4199Q23.5352 15.3906 24.8486 15.3369Q26.1621 15.2832 27.2656 15.2148Q28.3691 15.1465 29.0625 15.0684Q30.0488 14.9512 30.5859 14.4141Q31.123 13.877 31.123 12.9395L31.123 11.2207Q31.123 10.3906 31.001 9.77051Q30.8789 9.15039 30.6055 8.6084Q30.332 8.06641 29.8828 7.48047L29.0625 6.41602Q28.877 5.53711 28.6279 4.67773Q28.3789 3.81836 28.1299 3.13477Q27.8809 2.45117 27.7148 2.08984Q27.3242 1.25977 26.5918 0.771484Q25.8594 0.283203 24.8828 0.15625Q24.5605 0.107422 23.7842 0.078125Q23.0078 0.0488281 21.9189 0.0341797Q20.8301 0.0195312 19.5703 0.0195312Q18.3008 0.0195312 17.2119 0.0390625Q16.123 0.0585938 15.3516 0.0878906Q14.5801 0.117188 14.248 0.15625Q13.2715 0.273438 12.5391 0.766602Q11.8066 1.25977 11.416 2.08984Q11.25 2.45117 11.001 3.13477Q10.752 3.81836 10.5029 4.67773Q10.2539 5.53711 10.0684 6.41602L9.24805 7.48047Q8.79883 8.06641 8.52539 8.6084Q8.25195 9.15039 8.12988 9.77051Q8.00781 10.3906 8.00781 11.2207L8.00781 12.9395Q8.00781 13.877 8.54492 14.4141Q9.08203 14.9512 10.0684 15.0684Q10.7715 15.1465 11.8701 15.2148Q12.9688 15.2832 14.2822 15.3369Q15.5957 15.3906 16.9629 15.4199Q18.3301 15.4492 19.5703 15.4492ZM12.041 5.5957Q12.1582 5.06836 12.3389 4.47266Q12.5195 3.87695 12.7148 3.36426Q12.9102 2.85156 13.0664 2.56836Q13.2715 2.22656 13.5107 2.06055Q13.75 1.89453 14.1504 1.83594Q14.6973 1.75781 16.001 1.71387Q17.3047 1.66992 19.5703 1.66992Q21.8359 1.66992 23.1348 1.70898Q24.4336 1.74805 24.9902 1.83594Q25.3809 1.89453 25.6201 2.06055Q25.8594 2.22656 26.0645 2.56836Q26.2305 2.8418 26.4209 3.35449Q26.6113 3.86719 26.7871 4.46777Q26.9629 5.06836 27.0898 5.5957Q27.1582 5.86914 27.0459 5.98145Q26.9336 6.09375 26.6504 6.07422Q25.8398 6.02539 24.873 5.97656Q23.9062 5.92773 22.6172 5.89844Q21.3281 5.86914 19.5703 5.86914Q17.8027 5.86914 16.5137 5.89844Q15.2246 5.92773 14.2578 5.97656Q13.291 6.02539 12.4805 6.07422Q12.1973 6.09375 12.0898 5.98145Q11.9824 5.86914 12.041 5.5957ZM12.5195 12.8125Q11.8555 12.8125 11.4062 12.3584Q10.957 11.9043 10.957 11.2402Q10.957 10.5664 11.4062 10.1172Q11.8555 9.66797 12.5195 9.66797Q13.1934 9.66797 13.6426 10.1172Q14.0918 10.5664 14.0918 11.2402Q14.0918 11.9043 13.6426 12.3584Q13.1934 12.8125 12.5195 12.8125ZM16.9824 12.4219Q16.4844 12.4219 16.167 12.1094Q15.8496 11.7969 15.8496 11.2891Q15.8496 10.791 16.167 10.4785Q16.4844 10.166 16.9824 10.166L22.1484 10.166Q22.6465 10.166 22.9639 10.4785Q23.2812 10.791 23.2812 11.2891Q23.2812 11.7969 22.9639 12.1094Q22.6465 12.4219 22.1484 12.4219ZM26.6113 12.8125Q25.9375 12.8125 25.4883 12.3584Q25.0391 11.9043 25.0391 11.2402Q25.0391 10.5664 25.4883 10.1172Q25.9375 9.66797 26.6113 9.66797Q27.2754 9.66797 27.7246 10.1172Q28.1738 10.5664 28.1738 11.2402Q28.1738 11.9043 27.7246 12.3584Q27.2754 12.8125 26.6113 12.8125ZM9.30664 18.1348L10.459 18.1348Q11.0059 18.1348 11.377 17.7637Q11.748 17.3926 11.748 16.8457L11.748 14.4141L8.00781 12.6367L8.00781 16.8457Q8.00781 17.3926 8.38379 17.7637Q8.75977 18.1348 9.30664 18.1348ZM28.6719 18.1348L29.8242 18.1348Q30.3711 18.1348 30.7471 17.7637Q31.123 17.3926 31.123 16.8457L31.123 12.6367L27.3828 14.4141L27.3828 16.8457Q27.3828 17.3926 27.7539 17.7637Q28.125 18.1348 28.6719 18.1348Z" fill="#ffffff"/>
 </g>
</svg>
