<?xml version="1.0" encoding="UTF-8"?>
<!--Generator: Apple Native CoreSVG 175-->
<!DOCTYPE svg
PUBLIC "-//W3C//DTD SVG 1.1//EN"
       "http://www.w3.org/Graphics/SVG/1.1/DTD/svg11.dtd">
<svg version="1.1" xmlns="http://www.w3.org/2000/svg" xmlns:xlink="http://www.w3.org/1999/xlink" width="21.8922" height="20.0278">
 <g>
  <rect height="20.0278" opacity="0" width="21.8922" x="0" y="0"/>
  <path d="M7.58087 15.3871L19.343 15.3871Q19.4785 15.3871 19.5773 15.2897Q19.6762 15.1923 19.6762 15.0484Q19.6762 14.8976 19.5773 14.8002Q19.4785 14.7028 19.343 14.7028L7.73285 14.7028Q7.21725 14.7028 6.90575 14.4131Q6.59424 14.1234 6.50742 13.5617L4.73709 1.87698Q4.69421 1.61987 4.55925 1.48087Q4.42429 1.34186 4.05197 1.34186L0.328979 1.34186Q0.190582 1.34186 0.0952911 1.44554Q0 1.54922 0 1.68045Q0 1.82144 0.0952911 1.9252Q0.190582 2.02896 0.328979 2.02896L4.07974 2.02896L5.80383 13.7079Q5.91797 14.4926 6.34377 14.9399Q6.76956 15.3871 7.58087 15.3871ZM5.93872 11.9598L19.1446 11.9598Q20.036 11.9598 20.4512 11.4936Q20.8664 11.0274 21.0016 10.1836L21.8532 4.673Q21.8657 4.6106 21.879 4.51157Q21.8922 4.41254 21.8922 4.37225Q21.8922 4.11209 21.736 3.96271Q21.5797 3.81332 21.2778 3.81332L4.7937 3.81332L4.84573 4.49341L21.1461 4.49341L20.284 10.1202Q20.1973 10.6821 19.925 10.9773Q19.6527 11.2726 19.1527 11.2726L5.87692 11.2753ZM8.90076 20.0278Q9.50592 20.0278 9.9276 19.6075Q10.3493 19.1872 10.3493 18.5793Q10.3493 17.9785 9.9276 17.5582Q9.50592 17.1379 8.90076 17.1379Q8.4938 17.1379 8.16895 17.3303Q7.84409 17.5227 7.65038 17.8524Q7.45667 18.1821 7.45667 18.5793Q7.45667 18.9836 7.65038 19.3133Q7.84409 19.6429 8.16895 19.8354Q8.4938 20.0278 8.90076 20.0278ZM17.652 20.0278Q18.2597 20.0278 18.6814 19.6075Q19.1031 19.1872 19.1031 18.5793Q19.1031 17.9785 18.6814 17.5582Q18.2597 17.1379 17.652 17.1379Q17.2476 17.1379 16.918 17.3303Q16.5883 17.5227 16.391 17.8524Q16.1937 18.1821 16.1937 18.5793Q16.1937 19.1872 16.6238 19.6075Q17.054 20.0278 17.652 20.0278Z" fill="#ffffff"/>
 </g>
</svg>
