<?xml version="1.0" encoding="UTF-8"?>
<!--Generator: Apple Native CoreSVG 175.5-->
<!DOCTYPE svg
PUBLIC "-//W3C//DTD SVG 1.1//EN"
       "http://www.w3.org/Graphics/SVG/1.1/DTD/svg11.dtd">
<svg version="1.1" xmlns="http://www.w3.org/2000/svg" xmlns:xlink="http://www.w3.org/1999/xlink" width="19.9219" height="19.9316">
 <g>
  <rect height="19.9316" opacity="0" width="19.9219" x="0" y="0"/>
  <path d="M9.96094 19.9219Q12.002 19.9219 13.8037 19.1406Q15.6055 18.3594 16.9824 16.9824Q18.3594 15.6055 19.1406 13.8037Q19.9219 12.002 19.9219 9.96094Q19.9219 7.91992 19.1406 6.11816Q18.3594 4.31641 16.9824 2.93945Q15.6055 1.5625 13.7988 0.78125Q11.9922 0 9.95117 0Q7.91016 0 6.1084 0.78125Q4.30664 1.5625 2.93457 2.93945Q1.5625 4.31641 0.78125 6.11816Q0 7.91992 0 9.96094Q0 12.002 0.78125 13.8037Q1.5625 15.6055 2.93945 16.9824Q4.31641 18.3594 6.11816 19.1406Q7.91992 19.9219 9.96094 19.9219ZM9.96094 18.2617Q8.23242 18.2617 6.72852 17.6172Q5.22461 16.9727 4.08691 15.835Q2.94922 14.6973 2.30957 13.1934Q1.66992 11.6895 1.66992 9.96094Q1.66992 8.23242 2.30957 6.72852Q2.94922 5.22461 4.08203 4.08203Q5.21484 2.93945 6.71875 2.2998Q8.22266 1.66016 9.95117 1.66016Q11.6797 1.66016 13.1885 2.2998Q14.6973 2.93945 15.835 4.08203Q16.9727 5.22461 17.6172 6.72852Q18.2617 8.23242 18.2617 9.96094Q18.2617 11.6895 17.6221 13.1934Q16.9824 14.6973 15.8398 15.835Q14.6973 16.9727 13.1934 17.6172Q11.6895 18.2617 9.96094 18.2617Z" fill="#007aff"/>
  <path d="M6.69922 9.96094Q6.69922 11.4746 7.45117 12.4219Q8.20312 13.3691 9.46289 13.5352L9.46289 14.2676Q9.46289 14.4727 9.59961 14.6094Q9.73633 14.7461 9.95117 14.7461Q10.1562 14.7461 10.293 14.6094Q10.4297 14.4727 10.4297 14.2676L10.4297 13.5449Q11.3574 13.4375 11.9873 12.9541Q12.6172 12.4707 12.832 11.8262Q12.8516 11.748 12.8711 11.6602Q12.8906 11.5723 12.8906 11.4844Q12.8906 11.2207 12.7246 11.0645Q12.5586 10.9082 12.3047 10.9082Q12.1094 10.9082 11.9678 11.0205Q11.8262 11.1328 11.7383 11.3184Q11.5723 11.7383 11.2451 12.0166Q10.918 12.2949 10.4297 12.3926L10.4297 7.5293Q10.9082 7.62695 11.2354 7.91016Q11.5625 8.19336 11.7285 8.59375Q11.8164 8.79883 11.9629 8.91113Q12.1094 9.02344 12.3145 9.02344Q12.5684 9.02344 12.7246 8.8623Q12.8809 8.70117 12.8809 8.4375Q12.8809 8.34961 12.8613 8.2666Q12.8418 8.18359 12.8223 8.11523Q12.6074 7.46094 11.9775 6.97754Q11.3477 6.49414 10.4297 6.38672L10.4297 5.66406Q10.4297 5.44922 10.293 5.3125Q10.1562 5.17578 9.95117 5.17578Q9.73633 5.17578 9.59961 5.3125Q9.46289 5.44922 9.46289 5.66406L9.46289 6.39648Q8.20312 6.5625 7.45117 7.50977Q6.69922 8.45703 6.69922 9.96094ZM7.93945 9.96094Q7.93945 8.97461 8.34961 8.34961Q8.75977 7.72461 9.46289 7.54883L9.46289 12.373Q8.75977 12.207 8.34961 11.5869Q7.93945 10.9668 7.93945 9.96094Z" fill="#ffffff"/>
 </g>
</svg>
