<?xml version="1.0" encoding="UTF-8"?>
<!--Generator: Apple Native CoreSVG 175.5-->
<!DOCTYPE svg
PUBLIC "-//W3C//DTD SVG 1.1//EN"
       "http://www.w3.org/Graphics/SVG/1.1/DTD/svg11.dtd">
<svg version="1.1" xmlns="http://www.w3.org/2000/svg" xmlns:xlink="http://www.w3.org/1999/xlink" width="19.9219" height="19.9316">
 <g>
  <rect height="19.9316" opacity="0" width="19.9219" x="0" y="0"/>
  <path d="M9.95117 10.0098Q10.9766 10.0098 11.8848 9.61914Q12.793 9.22852 13.4863 8.54004Q14.1797 7.85156 14.5752 6.94824Q14.9707 6.04492 14.9707 5.01953Q14.9707 3.98438 14.5752 3.08105Q14.1797 2.17773 13.4863 1.48438Q12.793 0.791016 11.8848 0.400391Q10.9766 0.00976562 9.95117 0.00976562Q8.92578 0.00976562 8.01758 0.400391Q7.10938 0.791016 6.41602 1.48438Q5.72266 2.17773 5.33203 3.08105Q4.94141 3.98438 4.94141 5.01953Q4.94141 6.04492 5.33691 6.94824Q5.73242 7.85156 6.42578 8.54004Q7.11914 9.22852 8.02246 9.61914Q8.92578 10.0098 9.95117 10.0098ZM9.95117 8.35938Q9.00391 8.35938 8.24219 7.91504Q7.48047 7.4707 7.03613 6.71387Q6.5918 5.95703 6.5918 5.01953Q6.5918 4.07227 7.03613 3.31055Q7.48047 2.54883 8.24219 2.10449Q9.00391 1.66016 9.95117 1.66016Q10.8984 1.66016 11.6602 2.10449Q12.4219 2.54883 12.8711 3.31055Q13.3203 4.07227 13.3203 5.01953Q13.3203 5.95703 12.8711 6.71387Q12.4219 7.4707 11.6602 7.91504Q10.8984 8.35938 9.95117 8.35938ZM9.96094 19.9219Q12.002 19.9219 13.8037 19.1406Q15.6055 18.3594 16.9824 16.9824Q18.3594 15.6055 19.1406 13.8037Q19.9219 12.002 19.9219 9.96094Q19.9219 7.91992 19.1406 6.11816Q18.3594 4.31641 16.9824 2.93945Q15.6055 1.5625 13.7988 0.78125Q11.9922 0 9.95117 0Q7.91016 0 6.1084 0.78125Q4.30664 1.5625 2.93457 2.93945Q1.5625 4.31641 0.78125 6.11816Q0 7.91992 0 9.96094Q0 12.002 0.78125 13.8037Q1.5625 15.6055 2.93945 16.9824Q4.31641 18.3594 6.11816 19.1406Q7.91992 19.9219 9.96094 19.9219ZM9.96094 18.2617Q8.23242 18.2617 6.72852 17.6172Q5.22461 16.9727 4.08691 15.835Q2.94922 14.6973 2.30957 13.1934Q1.66992 11.6895 1.66992 9.96094Q1.66992 8.23242 2.30957 6.72852Q2.94922 5.22461 4.08203 4.08203Q5.21484 2.93945 6.71875 2.2998Q8.22266 1.66016 9.95117 1.66016Q11.6797 1.66016 13.1885 2.2998Q14.6973 2.93945 15.835 4.08203Q16.9727 5.22461 17.6172 6.72852Q18.2617 8.23242 18.2617 9.96094Q18.2617 11.6895 17.6221 13.1934Q16.9824 14.6973 15.8398 15.835Q14.6973 16.9727 13.1934 17.6172Q11.6895 18.2617 9.96094 18.2617Z" fill="#ffffff"/>
 </g>
</svg>
