<?xml version="1.0" encoding="UTF-8"?>
<!--Generator: Apple Native CoreSVG 175-->
<!DOCTYPE svg
PUBLIC "-//W3C//DTD SVG 1.1//EN"
       "http://www.w3.org/Graphics/SVG/1.1/DTD/svg11.dtd">
<svg version="1.1" xmlns="http://www.w3.org/2000/svg" xmlns:xlink="http://www.w3.org/1999/xlink" width="23.2031" height="16.8262">
 <g>
  <rect height="16.8262" opacity="0" width="23.2031" x="0" y="0"/>
  <path d="M18.3789 15.7422Q19.4043 15.7422 20.2783 15.415Q21.1523 15.0879 21.8066 14.5068Q22.4609 13.9258 22.832 13.1445Q23.2031 12.3633 23.2031 11.4551Q23.2031 10.498 22.8613 9.65332Q22.5195 8.80859 21.8604 8.16895Q21.2012 7.5293 20.2148 7.2168Q20.2734 5.66406 19.7949 4.3457Q19.3164 3.02734 18.4229 2.05078Q17.5293 1.07422 16.3232 0.537109Q15.1172 0 13.7109 0Q12.373 0 11.333 0.449219Q10.293 0.898438 9.53125 1.64551Q8.76953 2.39258 8.28125 3.29102Q7.44141 2.93945 6.5918 3.06641Q5.74219 3.19336 5.03418 3.70605Q4.32617 4.21875 3.90137 5.00977Q3.47656 5.80078 3.49609 6.78711Q2.45117 6.86523 1.66504 7.42676Q0.878906 7.98828 0.439453 8.90137Q0 9.81445 0 10.957Q0 11.9531 0.400391 12.8223Q0.800781 13.6914 1.52344 14.3457Q2.24609 15 3.21777 15.3613Q4.18945 15.7227 5.33203 15.7227Z" fill="#007aff"/>
  <path d="M10.5859 12.5684Q10.4785 12.5684 10.3857 12.5244Q10.293 12.4805 10.1953 12.3633L7.82227 9.48242Q7.69531 9.32617 7.69531 9.16016Q7.69531 8.97461 7.82227 8.86719Q7.94922 8.75977 8.08594 8.75977Q8.31055 8.75977 8.44727 8.94531L10.5762 11.5332L14.7949 4.54102Q14.9219 4.32617 15.1465 4.32617Q15.3125 4.32617 15.4346 4.42871Q15.5566 4.53125 15.5566 4.70703Q15.5566 4.77539 15.5225 4.85352Q15.4883 4.93164 15.459 4.99023L10.9668 12.3535Q10.8496 12.5684 10.5859 12.5684Z" fill="#ffffff"/>
 </g>
</svg>
