<?xml version="1.0" encoding="UTF-8"?>
<!--Generator: Apple Native CoreSVG 175.5-->
<!DOCTYPE svg
PUBLIC "-//W3C//DTD SVG 1.1//EN"
       "http://www.w3.org/Graphics/SVG/1.1/DTD/svg11.dtd">
<svg version="1.1" xmlns="http://www.w3.org/2000/svg" xmlns:xlink="http://www.w3.org/1999/xlink" width="17.9785" height="17.998">
 <g>
  <rect height="17.998" opacity="0" width="17.9785" x="0" y="0"/>
  <path d="M3.06641 17.998L14.9121 17.998Q16.4453 17.998 17.2119 17.2412Q17.9785 16.4844 17.9785 14.9707L17.9785 3.04688Q17.9785 1.5332 17.2119 0.776367Q16.4453 0.0195312 14.9121 0.0195312L3.06641 0.0195312Q1.5332 0.0195312 0.766602 0.776367Q0 1.5332 0 3.04688L0 14.9707Q0 16.4844 0.766602 17.2412Q1.5332 17.998 3.06641 17.998Z" fill="#007aff"/>
  <path d="M6.68945 13.9844Q6.45508 13.75 6.45508 13.4326Q6.45508 13.1152 6.67969 12.9004L10.8203 9.00391L6.67969 5.11719Q6.44531 4.90234 6.45508 4.58008Q6.46484 4.25781 6.69922 4.0332Q6.91406 3.81836 7.22168 3.83301Q7.5293 3.84766 7.76367 4.07227L11.9531 8.00781Q12.2461 8.27148 12.3389 8.6377Q12.4316 9.00391 12.3389 9.37012Q12.2461 9.73633 11.9531 10L7.76367 13.9453Q7.54883 14.1504 7.2168 14.1602Q6.88477 14.1699 6.68945 13.9844Z" fill="#ffffff"/>
 </g>
</svg>
