<?xml version="1.0" encoding="UTF-8"?>
<!--Generator: Apple Native CoreSVG 175-->
<!DOCTYPE svg
PUBLIC "-//W3C//DTD SVG 1.1//EN"
       "http://www.w3.org/Graphics/SVG/1.1/DTD/svg11.dtd">
<svg version="1.1" xmlns="http://www.w3.org/2000/svg" xmlns:xlink="http://www.w3.org/1999/xlink" width="17.2852" height="17.3145">
 <g>
  <rect height="17.3145" opacity="0" width="17.2852" x="0" y="0"/>
  <path d="M2.62695 17.3145L14.6484 17.3145Q15.957 17.3145 16.6211 16.6455Q17.2852 15.9766 17.2852 14.6875L17.2852 2.65625Q17.2852 1.37695 16.6211 0.703125Q15.957 0.0292969 14.6484 0.0292969L2.62695 0.0292969Q1.33789 0.0292969 0.668945 0.693359Q0 1.35742 0 2.65625L0 14.6875Q0 15.9863 0.668945 16.6504Q1.33789 17.3145 2.62695 17.3145ZM2.65625 16.5918Q1.70898 16.5918 1.2207 16.1035Q0.732422 15.6152 0.732422 14.6582L0.732422 2.69531Q0.732422 1.72852 1.2207 1.24512Q1.70898 0.761719 2.65625 0.761719L14.6289 0.761719Q15.5566 0.761719 16.0596 1.24512Q16.5625 1.72852 16.5625 2.69531L16.5625 14.6582Q16.5625 15.6152 16.0596 16.1035Q15.5566 16.5918 14.6289 16.5918Z" fill="#007aff"/>
  <path d="M3.87695 10.8008Q3.96484 10.9082 4.12109 10.9082Q4.27734 10.9082 4.375 10.8008L8.64258 6.42578L12.9004 10.8008Q12.998 10.9082 13.1543 10.9082Q13.3105 10.9082 13.4082 10.8008Q13.5156 10.7031 13.5156 10.5566Q13.5156 10.4102 13.3984 10.2832L9.08203 5.85938Q8.93555 5.71289 8.78418 5.66406Q8.63281 5.61523 8.48633 5.66406Q8.33984 5.71289 8.19336 5.85938L3.87695 10.2832Q3.75977 10.4102 3.76465 10.5566Q3.76953 10.7031 3.87695 10.8008Z" fill="#ffffff"/>
 </g>
</svg>
