<?xml version="1.0" encoding="UTF-8"?>
<!--Generator: Apple Native CoreSVG 175.5-->
<!DOCTYPE svg
PUBLIC "-//W3C//DTD SVG 1.1//EN"
       "http://www.w3.org/Graphics/SVG/1.1/DTD/svg11.dtd">
<svg version="1.1" xmlns="http://www.w3.org/2000/svg" xmlns:xlink="http://www.w3.org/1999/xlink" width="11.2793" height="16.9824">
 <g>
  <rect height="16.9824" opacity="0" width="11.2793" x="0" y="0"/>
  <path d="M11.2793 16.0742Q11.2793 15.8887 11.2158 15.7324Q11.1523 15.5762 11.0156 15.4395L3.29102 7.88086L3.29102 9.08203L11.0156 1.5332Q11.1426 1.40625 11.2109 1.24512Q11.2793 1.08398 11.2793 0.898438Q11.2793 0.634766 11.1621 0.43457Q11.0449 0.234375 10.8398 0.117188Q10.6348 0 10.3906 0Q10.1953 0 10.0391 0.0683594Q9.88281 0.136719 9.74609 0.263672L2.00195 7.83203Q1.875 7.95898 1.79688 8.125Q1.71875 8.29102 1.71875 8.48633Q1.71875 8.85742 2.01172 9.14062L9.74609 16.6992Q9.88281 16.8359 10.0391 16.9043Q10.1953 16.9727 10.3809 16.9727Q10.6348 16.9727 10.8398 16.8555Q11.0449 16.7383 11.1621 16.5332Q11.2793 16.3281 11.2793 16.0742ZM1.74805 16.123L1.74805 0.869141Q1.74805 0.488281 1.50391 0.244141Q1.25977 0 0.869141 0Q0.488281 0 0.244141 0.244141Q0 0.488281 0 0.869141L0 16.123Q0 16.4941 0.244141 16.7334Q0.488281 16.9727 0.869141 16.9727Q1.25977 16.9727 1.50391 16.7334Q1.74805 16.4941 1.74805 16.123Z" fill="#ffffff"/>
 </g>
</svg>
