<?xml version="1.0" encoding="UTF-8"?>
<!--Generator: Apple Native CoreSVG 175.5-->
<!DOCTYPE svg
PUBLIC "-//W3C//DTD SVG 1.1//EN"
       "http://www.w3.org/Graphics/SVG/1.1/DTD/svg11.dtd">
<svg version="1.1" xmlns="http://www.w3.org/2000/svg" xmlns:xlink="http://www.w3.org/1999/xlink" width="22.7051" height="23.1738">
 <g>
  <rect height="23.1738" opacity="0" width="22.7051" x="0" y="0"/>
  <path d="M4.25781 15.8301Q5.42969 15.8301 6.3916 15.249Q7.35352 14.668 7.93457 13.7012Q8.51562 12.7344 8.51562 11.5723Q8.51562 10.4102 7.93457 9.44336Q7.35352 8.47656 6.3916 7.90039Q5.42969 7.32422 4.25781 7.32422Q3.08594 7.32422 2.11914 7.90039Q1.15234 8.47656 0.576172 9.44336Q0 10.4102 0 11.5723Q0 12.7344 0.576172 13.7012Q1.15234 14.668 2.11914 15.249Q3.08594 15.8301 4.25781 15.8301ZM11.3477 8.50586Q12.5195 8.50586 13.4863 7.9248Q14.4531 7.34375 15.0293 6.37695Q15.6055 5.41016 15.6055 4.24805Q15.6055 3.07617 15.0293 2.11426Q14.4531 1.15234 13.4863 0.576172Q12.5195 0 11.3477 0Q10.1758 0 9.20898 0.576172Q8.24219 1.15234 7.66602 2.11426Q7.08984 3.07617 7.08984 4.24805Q7.08984 5.41016 7.66602 6.37695Q8.24219 7.34375 9.20898 7.9248Q10.1758 8.50586 11.3477 8.50586ZM18.457 15.8301Q19.6191 15.8301 20.5859 15.249Q21.5527 14.668 22.1289 13.7012Q22.7051 12.7344 22.7051 11.5723Q22.7051 10.4102 22.1289 9.44336Q21.5527 8.47656 20.5859 7.90039Q19.6191 7.32422 18.457 7.32422Q17.2754 7.32422 16.3086 7.90039Q15.3418 8.47656 14.7656 9.44336Q14.1895 10.4102 14.1895 11.5723Q14.1895 12.7344 14.7656 13.7012Q15.3418 14.668 16.3086 15.249Q17.2754 15.8301 18.457 15.8301ZM11.3477 23.1543Q12.5195 23.1543 13.4863 22.5781Q14.4531 22.002 15.0293 21.0352Q15.6055 20.0684 15.6055 18.8965Q15.6055 17.7344 15.0293 16.7676Q14.4531 15.8008 13.4863 15.2246Q12.5195 14.6484 11.3477 14.6484Q10.1758 14.6484 9.20898 15.2246Q8.24219 15.8008 7.66602 16.7676Q7.08984 17.7344 7.08984 18.8965Q7.08984 20.0684 7.66602 21.0352Q8.24219 22.002 9.20898 22.5781Q10.1758 23.1543 11.3477 23.1543Z" fill="#ffffff"/>
 </g>
</svg>
