<?xml version="1.0" encoding="UTF-8"?>
<!--Generator: Apple Native CoreSVG 175.5-->
<!DOCTYPE svg
PUBLIC "-//W3C//DTD SVG 1.1//EN"
       "http://www.w3.org/Graphics/SVG/1.1/DTD/svg11.dtd">
<svg version="1.1" xmlns="http://www.w3.org/2000/svg" xmlns:xlink="http://www.w3.org/1999/xlink" width="25.5957" height="11.377">
 <g>
  <rect height="11.377" opacity="0" width="25.5957" x="0" y="0"/>
  <path d="M5.68359 11.3672Q6.85547 11.3672 7.88086 10.9229Q8.90625 10.4785 9.6875 9.69727Q10.4688 8.91602 10.9131 7.88574Q11.3574 6.85547 11.3574 5.68359Q11.3574 4.51172 10.9131 3.48633Q10.4688 2.46094 9.6875 1.6748Q8.90625 0.888672 7.88086 0.444336Q6.85547 0 5.68359 0Q4.50195 0 3.47168 0.444336Q2.44141 0.888672 1.66016 1.6748Q0.878906 2.46094 0.439453 3.48633Q0 4.51172 0 5.68359Q0 6.85547 0.439453 7.88574Q0.878906 8.91602 1.66016 9.69727Q2.44141 10.4785 3.47168 10.9229Q4.50195 11.3672 5.68359 11.3672ZM5.68359 9.79492Q4.55078 9.79492 3.61816 9.24316Q2.68555 8.69141 2.12891 7.75391Q1.57227 6.81641 1.57227 5.68359Q1.57227 4.55078 2.12891 3.61816Q2.68555 2.68555 3.61816 2.12891Q4.55078 1.57227 5.68359 1.57227Q6.80664 1.57227 7.73926 2.13379Q8.67188 2.69531 9.22852 3.62793Q9.78516 4.56055 9.78516 5.68359Q9.78516 6.80664 9.22852 7.74414Q8.67188 8.68164 7.73926 9.23828Q6.80664 9.79492 5.68359 9.79492Z" fill="#007aff"/>
  <path d="M19.9219 11.3672Q21.0938 11.3672 22.1191 10.9229Q23.1445 10.4785 23.9307 9.69727Q24.7168 8.91602 25.1562 7.88574Q25.5957 6.85547 25.5957 5.68359Q25.5957 4.51172 25.1562 3.48633Q24.7168 2.46094 23.9307 1.6748Q23.1445 0.888672 22.1191 0.444336Q21.0938 0 19.9219 0Q18.7402 0 17.71 0.444336Q16.6797 0.888672 15.8984 1.6748Q15.1172 2.46094 14.6777 3.48633Q14.2383 4.51172 14.2383 5.68359Q14.2383 6.85547 14.6777 7.88574Q15.1172 8.91602 15.8984 9.69727Q16.6797 10.4785 17.71 10.9229Q18.7402 11.3672 19.9219 11.3672Z" fill="#ffffff"/>
 </g>
</svg>
