<?xml version="1.0" encoding="UTF-8"?>
<!--Generator: Apple Native CoreSVG 175-->
<!DOCTYPE svg
PUBLIC "-//W3C//DTD SVG 1.1//EN"
       "http://www.w3.org/Graphics/SVG/1.1/DTD/svg11.dtd">
<svg version="1.1" xmlns="http://www.w3.org/2000/svg" xmlns:xlink="http://www.w3.org/1999/xlink" width="19.1602" height="19.1504">
 <g>
  <rect height="19.1504" opacity="0" width="19.1602" x="0" y="0"/>
  <path d="M9.57031 19.1406Q11.5527 19.1406 13.2861 18.3984Q15.0195 17.6562 16.3379 16.333Q17.6562 15.0098 18.4082 13.2764Q19.1602 11.543 19.1602 9.57031Q19.1602 7.59766 18.4082 5.86426Q17.6562 4.13086 16.3379 2.80762Q15.0195 1.48438 13.2861 0.742188Q11.5527 0 9.57031 0Q7.59766 0 5.86426 0.742188Q4.13086 1.48438 2.81738 2.80762Q1.50391 4.13086 0.751953 5.86426Q0 7.59766 0 9.57031Q0 11.543 0.74707 13.2764Q1.49414 15.0098 2.8125 16.333Q4.13086 17.6562 5.86914 18.3984Q7.60742 19.1406 9.57031 19.1406Z" fill="#007aff"/>
  <path d="M9.7168 14.7949Q8.66211 14.7949 7.71973 14.3799Q6.77734 13.9648 6.05469 13.2422Q5.33203 12.5195 4.92188 11.582Q4.51172 10.6445 4.51172 9.58008Q4.51172 8.51562 4.92188 7.57324Q5.33203 6.63086 6.05469 5.9082Q6.77734 5.18555 7.71973 4.77539Q8.66211 4.36523 9.7168 4.36523Q10.7812 4.36523 11.7236 4.77539Q12.666 5.18555 13.3887 5.9082Q14.1113 6.63086 14.5215 7.57812Q14.9316 8.52539 14.9316 9.58008Q14.9316 10.6445 14.5215 11.582Q14.1113 12.5195 13.3887 13.2422Q12.666 13.9648 11.7236 14.3799Q10.7812 14.7949 9.7168 14.7949ZM9.7168 14.0527Q10.9473 14.0527 11.9629 13.4473Q12.9785 12.8418 13.584 11.8262Q14.1895 10.8105 14.1895 9.58008Q14.1895 8.35938 13.584 7.33887Q12.9785 6.31836 11.9629 5.70801Q10.9473 5.09766 9.7168 5.09766Q8.49609 5.09766 7.48047 5.70312Q6.46484 6.30859 5.85938 7.3291Q5.25391 8.34961 5.25391 9.58008Q5.25391 10.8008 5.86426 11.8213Q6.47461 12.8418 7.49023 13.4473Q8.50586 14.0527 9.7168 14.0527Z" fill="#ffffff"/>
 </g>
</svg>
