<?xml version="1.0" encoding="UTF-8"?>
<!--Generator: Apple Native CoreSVG 175.5-->
<!DOCTYPE svg
PUBLIC "-//W3C//DTD SVG 1.1//EN"
       "http://www.w3.org/Graphics/SVG/1.1/DTD/svg11.dtd">
<svg version="1.1" xmlns="http://www.w3.org/2000/svg" xmlns:xlink="http://www.w3.org/1999/xlink" width="25.674" height="17.7047">
 <g>
  <rect height="17.7047" opacity="0" width="25.674" x="0" y="0"/>
  <path d="M18.8672 11.9139Q19.9609 11.9725 20.8887 11.8016Q21.8164 11.6307 22.5732 11.2693Q23.3301 10.908 23.9111 10.4148Q24.4922 9.92167 24.9072 9.34062Q25.3223 8.75956 25.5566 8.14433Q25.8008 7.55839 25.5371 7.10917Q25.2734 6.65995 24.6973 6.65995Q24.2578 6.65995 23.8184 6.78691Q23.3789 6.91386 22.5977 6.91386Q21.3477 6.91386 20.5029 6.46953Q19.6582 6.02519 19.2236 5.20976Q18.7891 4.39433 18.7891 3.26152Q18.7891 2.70488 18.877 2.30449Q18.9648 1.9041 19.0479 1.5916Q19.1309 1.2791 19.1309 1.00566Q19.1309 0.400189 18.6768 0.1414Q18.2227-0.117389 17.5781 0.0974549Q16.8066 0.351361 16.1133 0.878705Q15.4199 1.40605 14.8926 2.13847Q14.3652 2.87089 14.0576 3.77421Q13.75 4.67753 13.75 5.69316Q13.75 6.33769 13.8672 6.96269Q13.9844 7.58769 14.2188 8.17363L15.8398 8.14433Q15.1855 7.05058 15.1855 5.6541Q15.1855 4.95097 15.376 4.32597Q15.5664 3.70097 15.9033 3.18339Q16.2402 2.66581 16.6748 2.26054Q17.1094 1.85527 17.5879 1.5916L17.6953 1.66972Q17.5781 2.02128 17.4805 2.50468Q17.3828 2.98808 17.3828 3.55449Q17.3828 4.96074 18.0127 6.02519Q18.6426 7.08964 19.7461 7.69023Q20.8496 8.29081 22.2656 8.29081Q22.7832 8.29081 23.2471 8.21269Q23.7109 8.13456 24.0527 8.01738L24.1211 8.0955Q23.877 8.55449 23.4229 9.01347Q22.9688 9.47245 22.3145 9.83378Q21.6602 10.1951 20.7959 10.3758Q19.9316 10.5564 18.8672 10.4783Z" fill="#007aff"/>
  <path d="M4.14062 16.8943L14.707 16.8943Q16.123 16.8943 17.2559 16.2449Q18.3887 15.5955 19.0576 14.4871Q19.7266 13.3787 19.7266 12.0018Q19.7266 10.6346 19.0479 9.5457Q18.3691 8.45683 17.207 7.82206Q16.0449 7.1873 14.5801 7.16777Q13.7207 5.55644 12.2607 4.63359Q10.8008 3.71074 8.98438 3.71074Q7.77344 3.71074 6.69434 4.15019Q5.61523 4.58964 4.76562 5.36601Q3.91602 6.14238 3.38379 7.17753Q2.85156 8.21269 2.72461 9.41386Q1.50391 9.79472 0.751953 10.7859Q0 11.7771 0 13.115Q0 14.2088 0.517578 15.0633Q1.03516 15.9178 1.96777 16.406Q2.90039 16.8943 4.14062 16.8943ZM4.10156 15.3318Q3.27148 15.3318 2.70508 15.0389Q2.13867 14.7459 1.85059 14.2527Q1.5625 13.7596 1.5625 13.1541Q1.5625 12.3728 2.04102 11.7381Q2.51953 11.1033 3.60352 10.8201Q3.95508 10.7322 4.10645 10.5467Q4.25781 10.3611 4.28711 9.99003Q4.375 8.96464 4.77051 8.10038Q5.16602 7.23613 5.80566 6.60624Q6.44531 5.97636 7.26074 5.62968Q8.07617 5.283 8.98438 5.283Q9.93164 5.283 10.7324 5.61992Q11.5332 5.95683 12.168 6.59648Q12.8027 7.23613 13.2617 8.14433Q13.418 8.45683 13.6279 8.58378Q13.8379 8.71074 14.209 8.71074Q15.4688 8.71074 16.3525 9.16484Q17.2363 9.61894 17.6953 10.3807Q18.1543 11.1424 18.1543 12.0506Q18.1543 12.9588 17.7051 13.701Q17.2559 14.4432 16.4795 14.8875Q15.7031 15.3318 14.7363 15.3318Z" fill="#ffffff"/>
 </g>
</svg>
