<?xml version="1.0" encoding="UTF-8"?>
<!--Generator: Apple Native CoreSVG 175-->
<!DOCTYPE svg
PUBLIC "-//W3C//DTD SVG 1.1//EN"
       "http://www.w3.org/Graphics/SVG/1.1/DTD/svg11.dtd">
<svg version="1.1" xmlns="http://www.w3.org/2000/svg" xmlns:xlink="http://www.w3.org/1999/xlink" width="24.8831" height="16.296">
 <g>
  <rect height="16.296" opacity="0" width="24.8831" x="0" y="0"/>
  <path d="M19.8442 10.8462Q21.1977 10.6088 22.1537 10.0891Q23.1097 9.56935 23.715 8.93283Q24.3202 8.29631 24.6017 7.67832Q24.8831 7.06034 24.8831 6.62364Q24.8831 6.45991 24.7962 6.35874Q24.7093 6.25758 24.5523 6.25758Q24.3996 6.25758 24.0535 6.36813Q23.7074 6.47868 23.2394 6.59137Q22.7715 6.70405 22.2523 6.70405Q20.9976 6.70405 20.0674 6.21264Q19.1371 5.72123 18.6213 4.83897Q18.1055 3.95671 18.1055 2.78132Q18.1055 2.18333 18.2377 1.69604Q18.3699 1.20875 18.5021 0.861079Q18.6343 0.513408 18.6343 0.350902Q18.6343 0.165813 18.5076 0.0712845Q18.3809-0.0232437 18.116 0.00757906Q17.2523 0.121257 16.5424 0.585887Q15.8324 1.05052 15.3103 1.76402Q14.7882 2.47752 14.4736 3.3314Q14.1589 4.18528 14.0831 5.07045Q14.2305 5.24745 14.3575 5.44894Q14.4844 5.65043 14.5926 5.91181Q15.7034 5.98841 16.6331 6.37202Q17.5629 6.75563 18.257 7.40405Q18.9511 8.05247 19.3633 8.92359Q19.7754 9.79472 19.8442 10.8462Z" fill="#007aff"/>
  <path d="M3.70117 15.572L14.4081 15.572Q15.7034 15.572 16.7535 14.9781Q17.8035 14.3841 18.4226 13.3775Q19.0417 12.3709 19.0417 11.1259Q19.0417 9.86964 18.4045 8.87416Q17.7672 7.87867 16.6592 7.30426Q15.5511 6.72984 14.1594 6.73411Q13.562 5.57002 12.7314 4.77046Q11.9008 3.9709 10.8804 3.55723Q9.86008 3.14357 8.68546 3.14357Q7.55035 3.14357 6.53725 3.57455Q5.52414 4.00553 4.73 4.77702Q3.93585 5.5485 3.44505 6.58015Q2.95425 7.6118 2.85812 8.80595Q1.54755 9.14195 0.773773 10.0693Q0 10.9967 0 12.2224Q0 13.2135 0.470505 13.9662Q0.94101 14.7189 1.77673 15.1454Q2.61246 15.572 3.70117 15.572Z" fill="#ffffff"/>
 </g>
</svg>
