<?xml version="1.0" encoding="UTF-8"?>
<!--Generator: Apple Native CoreSVG 175.5-->
<!DOCTYPE svg
PUBLIC "-//W3C//DTD SVG 1.1//EN"
       "http://www.w3.org/Graphics/SVG/1.1/DTD/svg11.dtd">
<svg version="1.1" xmlns="http://www.w3.org/2000/svg" xmlns:xlink="http://www.w3.org/1999/xlink" width="22.2949" height="26.3379">
 <g>
  <rect height="26.3379" opacity="0" width="22.2949" x="0" y="0"/>
  <path d="M5.14648 22.666Q5.2832 22.666 5.36621 22.5635Q5.44922 22.4609 5.43945 22.3242L5.38086 21.3867L6.15234 21.9141Q6.25977 21.9922 6.39648 21.9629Q6.5332 21.9336 6.61133 21.8262Q6.67969 21.7188 6.64062 21.5771Q6.60156 21.4355 6.45508 21.3672L5.625 20.957L6.46484 20.5371Q6.60156 20.4785 6.63574 20.3418Q6.66992 20.2051 6.62109 20.0879Q6.55273 19.9707 6.40625 19.9512Q6.25977 19.9316 6.15234 20L5.38086 20.5371L5.44922 19.5996Q5.46875 19.4531 5.37598 19.3555Q5.2832 19.2578 5.14648 19.2578Q4.99023 19.2578 4.90723 19.3555Q4.82422 19.4531 4.83398 19.5996L4.89258 20.5371L4.11133 20Q4.00391 19.9316 3.86719 19.9512Q3.73047 19.9707 3.66211 20.0879Q3.60352 20.2051 3.63281 20.3369Q3.66211 20.4688 3.79883 20.5371L4.63867 20.957L3.79883 21.3672Q3.66211 21.4355 3.62305 21.5723Q3.58398 21.709 3.65234 21.8262Q3.7207 21.9434 3.8623 21.9678Q4.00391 21.9922 4.11133 21.9238L4.89258 21.3965L4.84375 22.3242Q4.83398 22.4609 4.91211 22.5635Q4.99023 22.666 5.14648 22.666ZM10.5566 22.666Q10.6934 22.666 10.7764 22.5635Q10.8594 22.4609 10.8496 22.3242L10.791 21.3867L11.5625 21.9141Q11.6699 21.9922 11.8066 21.9629Q11.9434 21.9336 12.0215 21.8262Q12.0898 21.7188 12.0508 21.5771Q12.0117 21.4355 11.8652 21.3672L11.0254 20.957L11.875 20.5371Q12.0117 20.4785 12.0459 20.3418Q12.0801 20.2051 12.0312 20.0879Q11.9629 19.9707 11.8164 19.9512Q11.6699 19.9316 11.5625 20L10.791 20.5371L10.8594 19.5996Q10.8789 19.4531 10.7861 19.3555Q10.6934 19.2578 10.5566 19.2578Q10.4004 19.2578 10.3174 19.3555Q10.2344 19.4531 10.2441 19.5996L10.3027 20.5371L9.51172 20Q9.41406 19.9316 9.27734 19.9512Q9.14062 19.9707 9.07227 20.0879Q9.00391 20.2051 9.03809 20.3369Q9.07227 20.4688 9.20898 20.5371L10.0488 20.957L9.20898 21.3672Q9.07227 21.4355 9.0332 21.5723Q8.99414 21.709 9.0625 21.8262Q9.13086 21.9434 9.27246 21.9678Q9.41406 21.9922 9.51172 21.9238L10.3027 21.3965L10.2539 22.3242Q10.2441 22.4609 10.3223 22.5635Q10.4004 22.666 10.5566 22.666ZM15.9668 22.666Q16.1035 22.666 16.1865 22.5635Q16.2695 22.4609 16.2598 22.3242L16.1914 21.3867L16.9727 21.9141Q17.0801 21.9922 17.2168 21.9629Q17.3535 21.9336 17.4316 21.8262Q17.5 21.7188 17.4609 21.5771Q17.4219 21.4355 17.2754 21.3672L16.4355 20.957L17.2852 20.5371Q17.4219 20.4785 17.4561 20.3418Q17.4902 20.2051 17.4414 20.0879Q17.373 19.9707 17.2266 19.9512Q17.0801 19.9316 16.9727 20L16.1914 20.5371L16.2695 19.5996Q16.2891 19.4531 16.1963 19.3555Q16.1035 19.2578 15.9668 19.2578Q15.8105 19.2578 15.7275 19.3555Q15.6445 19.4531 15.6543 19.5996L15.7129 20.5371L14.9219 20Q14.8242 19.9316 14.6875 19.9512Q14.5508 19.9707 14.4824 20.0879Q14.4141 20.2051 14.4482 20.3369Q14.4824 20.4688 14.6191 20.5371L15.459 20.957L14.6191 21.3672Q14.4824 21.4355 14.4434 21.5723Q14.4043 21.709 14.4727 21.8262Q14.541 21.9434 14.6826 21.9678Q14.8242 21.9922 14.9219 21.9238L15.7129 21.3965L15.6641 22.3242Q15.6543 22.4609 15.7324 22.5635Q15.8105 22.666 15.9668 22.666ZM3.02734 26.3379Q3.16406 26.3379 3.24707 26.2305Q3.33008 26.123 3.32031 25.9863L3.26172 25.0586L4.0332 25.5859Q4.14062 25.6543 4.27734 25.6299Q4.41406 25.6055 4.49219 25.4883Q4.56055 25.3809 4.52148 25.2393Q4.48242 25.0977 4.33594 25.0293L3.50586 24.6289L4.3457 24.209Q4.48242 24.1406 4.5166 24.0039Q4.55078 23.8672 4.50195 23.7598Q4.43359 23.6426 4.28711 23.6182Q4.14062 23.5938 4.0332 23.6621L3.26172 24.209L3.33008 23.2617Q3.34961 23.125 3.25684 23.0225Q3.16406 22.9199 3.02734 22.9199Q2.87109 22.9199 2.78809 23.0225Q2.70508 23.125 2.71484 23.2617L2.77344 24.209L1.99219 23.6621Q1.88477 23.5938 1.74805 23.6133Q1.61133 23.6328 1.54297 23.7598Q1.48438 23.8672 1.51367 23.999Q1.54297 24.1309 1.67969 24.209L2.51953 24.6289L1.67969 25.0391Q1.54297 25.0977 1.50391 25.2344Q1.46484 25.3711 1.5332 25.4883Q1.60156 25.6152 1.74316 25.6348Q1.88477 25.6543 1.99219 25.5859L2.77344 25.0586L2.72461 25.9863Q2.71484 26.123 2.79297 26.2305Q2.87109 26.3379 3.02734 26.3379ZM8.4375 26.3379Q8.57422 26.3379 8.65723 26.2305Q8.74023 26.123 8.73047 25.9863L8.67188 25.0586L9.44336 25.5859Q9.55078 25.6543 9.6875 25.6299Q9.82422 25.6055 9.90234 25.4883Q9.9707 25.3809 9.93164 25.2393Q9.89258 25.0977 9.74609 25.0293L8.90625 24.6289L9.75586 24.209Q9.89258 24.1406 9.92676 24.0039Q9.96094 23.8672 9.91211 23.7598Q9.84375 23.6426 9.69727 23.6182Q9.55078 23.5938 9.44336 23.6621L8.67188 24.209L8.74023 23.2617Q8.75977 23.125 8.66699 23.0225Q8.57422 22.9199 8.4375 22.9199Q8.28125 22.9199 8.19824 23.0225Q8.11523 23.125 8.125 23.2617L8.18359 24.209L7.39258 23.6621Q7.29492 23.5938 7.1582 23.6133Q7.02148 23.6328 6.95312 23.7598Q6.89453 23.8672 6.92383 23.999Q6.95312 24.1309 7.08984 24.209L7.92969 24.6289L7.08984 25.0391Q6.95312 25.0977 6.91406 25.2344Q6.875 25.3711 6.94336 25.4883Q7.01172 25.6152 7.15332 25.6348Q7.29492 25.6543 7.39258 25.5859L8.18359 25.0586L8.13477 25.9863Q8.125 26.123 8.20312 26.2305Q8.28125 26.3379 8.4375 26.3379ZM13.8477 26.3379Q13.9844 26.3379 14.0674 26.2305Q14.1504 26.123 14.1406 25.9863L14.0723 25.0586L14.8535 25.5859Q14.9609 25.6543 15.0977 25.6299Q15.2344 25.6055 15.3125 25.4883Q15.3809 25.3809 15.3418 25.2393Q15.3027 25.0977 15.1562 25.0293L14.3164 24.6289L15.166 24.209Q15.3027 24.1406 15.3369 24.0039Q15.3711 23.8672 15.3223 23.7598Q15.2539 23.6426 15.1074 23.6182Q14.9609 23.5938 14.8535 23.6621L14.0723 24.209L14.1504 23.2617Q14.1699 23.125 14.0771 23.0225Q13.9844 22.9199 13.8477 22.9199Q13.6914 22.9199 13.6084 23.0225Q13.5254 23.125 13.5352 23.2617L13.5938 24.209L12.8027 23.6621Q12.7051 23.5938 12.5684 23.6133Q12.4316 23.6328 12.3633 23.7598Q12.2949 23.8672 12.3291 23.999Q12.3633 24.1309 12.5 24.209L13.3398 24.6289L12.5 25.0391Q12.3633 25.0977 12.3242 25.2344Q12.2852 25.3711 12.3535 25.4883Q12.4219 25.6152 12.5635 25.6348Q12.7051 25.6543 12.8027 25.5859L13.5938 25.0586L13.5449 25.9863Q13.5352 26.123 13.6133 26.2305Q13.6914 26.3379 13.8477 26.3379Z" fill="#007aff"/>
  <path d="M4.58984 17.793L16.709 17.793Q17.9102 17.793 18.9307 17.373Q19.9512 16.9531 20.708 16.2061Q21.4648 15.459 21.8799 14.4678Q22.2949 13.4766 22.2949 12.3535Q22.2949 11.1816 21.8506 10.2002Q21.4062 9.21875 20.6104 8.49121Q19.8145 7.76367 18.75 7.36328Q17.6855 6.96289 16.4453 6.96289Q15.8398 5.76172 14.8975 4.86816Q13.9551 3.97461 12.7539 3.48633Q11.5527 2.99805 10.1367 2.99805Q8.75977 2.99805 7.54395 3.50098Q6.32812 4.00391 5.37109 4.89258Q4.41406 5.78125 3.82324 6.96289Q3.23242 8.14453 3.11523 9.50195Q2.22656 9.75586 1.52344 10.3369Q0.820312 10.918 0.410156 11.748Q0 12.5781 0 13.6133Q0 14.7656 0.541992 15.7178Q1.08398 16.6699 2.10938 17.2314Q3.13477 17.793 4.58984 17.793ZM4.57031 16.2305Q3.56445 16.2305 2.90039 15.8887Q2.23633 15.5469 1.89941 14.9658Q1.5625 14.3848 1.5625 13.6621Q1.5625 12.7832 2.10938 12.0557Q2.65625 11.3281 3.90625 10.9961Q4.31641 10.8887 4.48242 10.6738Q4.64844 10.459 4.6875 10.0488Q4.76562 8.84766 5.22949 7.84668Q5.69336 6.8457 6.43555 6.1084Q7.17773 5.37109 8.12988 4.96582Q9.08203 4.56055 10.1367 4.56055Q11.7871 4.56055 13.0566 5.43457Q14.3262 6.30859 15.1172 7.92969Q15.2832 8.29102 15.5273 8.43262Q15.7715 8.57422 16.2109 8.57422Q17.6562 8.57422 18.667 9.09668Q19.6777 9.61914 20.2051 10.4883Q20.7324 11.3574 20.7324 12.3926Q20.7324 13.457 20.2148 14.3262Q19.6973 15.1953 18.8086 15.7129Q17.9199 16.2305 16.8066 16.2305Z" fill="#ffffff"/>
 </g>
</svg>
