<?xml version="1.0" encoding="UTF-8"?>
<!--Generator: Apple Native CoreSVG 175.5-->
<!DOCTYPE svg
PUBLIC "-//W3C//DTD SVG 1.1//EN"
       "http://www.w3.org/Graphics/SVG/1.1/DTD/svg11.dtd">
<svg version="1.1" xmlns="http://www.w3.org/2000/svg" xmlns:xlink="http://www.w3.org/1999/xlink" width="28.252" height="28.7215">
 <g>
  <rect height="28.7215" opacity="0" width="28.252" x="0" y="0"/>
  <path d="M4.05273 20.391L14.6191 20.391Q15.9961 20.391 17.1094 19.7563Q18.2227 19.1215 18.877 18.0326Q19.5312 16.9438 19.5312 15.5961Q19.5312 14.2485 18.8623 13.1791Q18.1934 12.1098 17.041 11.4848Q15.8887 10.8598 14.4238 10.85Q13.8574 9.76603 13.0127 8.99455Q12.168 8.22306 11.1182 7.81291Q10.0684 7.40275 8.88672 7.40275Q7.69531 7.40275 6.63086 7.83244Q5.56641 8.26213 4.72656 9.03849Q3.88672 9.81486 3.35938 10.8451Q2.83203 11.8754 2.72461 13.0766Q1.47461 13.4477 0.737305 14.4291Q0 15.4106 0 16.6996Q0 17.7934 0.512695 18.6283Q1.02539 19.4633 1.93848 19.9272Q2.85156 20.391 4.05273 20.391Z" fill="#ffffff"/>
  <path d="M20.6543 15.0785Q21.7285 14.3461 22.3486 13.267Q22.9688 12.1879 22.9688 10.8988Q22.9688 9.55119 22.3242 8.45256Q21.6797 7.35392 20.5811 6.70451Q19.4824 6.05509 18.1445 6.05509Q16.8164 6.05509 15.7275 6.70451Q14.6387 7.35392 14.0332 8.41838Q14.3359 8.73088 14.5996 9.08244Q14.8633 9.434 15.0879 9.86369Q16.6992 9.99064 17.9004 10.6694Q19.1016 11.3481 19.8096 12.476Q20.5176 13.6039 20.6543 15.0785ZM12.4805 6.38713Q12.7246 6.6215 13.0664 6.6215Q13.4082 6.6215 13.6328 6.38713Q13.8574 6.15275 13.8623 5.81584Q13.8672 5.47892 13.6328 5.24455L12.1289 3.74064Q11.8945 3.50627 11.5625 3.50627Q11.2305 3.50627 10.9961 3.74064Q10.7617 3.97502 10.7568 4.31193Q10.752 4.64884 10.9961 4.88322ZM18.1445 4.50236Q18.4766 4.50236 18.7158 4.25822Q18.9551 4.01408 18.9551 3.69181L18.9551 1.58244Q18.9551 1.24064 18.7158 1.00627Q18.4766 0.771891 18.1445 0.771891Q17.8125 0.771891 17.5732 1.00627Q17.334 1.24064 17.334 1.58244L17.334 3.69181Q17.334 4.01408 17.5732 4.25822Q17.8125 4.50236 18.1445 4.50236ZM22.6562 6.38713Q22.8809 6.6215 23.2275 6.6215Q23.5742 6.6215 23.8086 6.38713L25.3027 4.88322Q25.5371 4.64884 25.5371 4.31193Q25.5371 3.97502 25.3027 3.74064Q25.0684 3.50627 24.7363 3.50627Q24.4043 3.50627 24.1699 3.74064L22.6562 5.24455Q22.4219 5.47892 22.4268 5.81584Q22.4316 6.15275 22.6562 6.38713ZM25.332 11.7094L27.4512 11.7094Q27.7832 11.7094 28.0176 11.4701Q28.252 11.2309 28.252 10.8988Q28.252 10.557 28.0176 10.3227Q27.7832 10.0883 27.4512 10.0883L25.332 10.0883Q25.0098 10.0883 24.7656 10.3227Q24.5215 10.557 24.5215 10.8988Q24.5215 11.2309 24.7656 11.4701Q25.0098 11.7094 25.332 11.7094ZM24.1699 18.057Q24.4043 18.3012 24.7363 18.2914Q25.0684 18.2817 25.3027 18.0473Q25.5371 17.8227 25.5371 17.4858Q25.5371 17.1488 25.3027 16.9145L23.7891 15.4203Q23.5547 15.1957 23.2227 15.1908Q22.8906 15.186 22.6562 15.4203Q22.4219 15.6547 22.4219 15.9916Q22.4219 16.3285 22.6562 16.5629Z" fill="#007aff"/>
  <path d="M12.1973 23.9653L10.0586 23.9653L10.0391 24.3754L11.1523 22.266Q11.2402 22.1098 11.1816 22.0024Q11.123 21.8949 10.9668 21.8949L8.92578 21.8949Q8.7207 21.8949 8.63281 21.9731Q8.54492 22.0512 8.47656 22.1879L7.22656 25.0297Q7.1582 25.2055 7.22656 25.308Q7.29492 25.4106 7.48047 25.4106L9.22852 25.4106L9.35547 24.8442L7.86133 28.4379Q7.77344 28.643 7.92969 28.7016Q8.07617 28.7699 8.21289 28.6039L12.3438 24.434Q12.5 24.2778 12.4512 24.1215Q12.4023 23.9653 12.1973 23.9653Z" fill="#ffffff"/>
 </g>
</svg>
