<?xml version="1.0" encoding="UTF-8"?>
<!--Generator: Apple Native CoreSVG 175.5-->
<!DOCTYPE svg
PUBLIC "-//W3C//DTD SVG 1.1//EN"
       "http://www.w3.org/Graphics/SVG/1.1/DTD/svg11.dtd">
<svg version="1.1" xmlns="http://www.w3.org/2000/svg" xmlns:xlink="http://www.w3.org/1999/xlink" width="22.9492" height="16.6895">
 <g>
  <rect height="16.6895" opacity="0" width="22.9492" x="0" y="0"/>
  <path d="M4.38477 13.2715L6.77734 13.2715Q7.20703 13.2715 7.4707 13.0078Q7.73438 12.7441 7.73438 12.334L7.73438 10.5273Q7.73438 10.1074 7.4707 9.84863Q7.20703 9.58984 6.77734 9.58984L4.38477 9.58984Q3.95508 9.58984 3.69141 9.84863Q3.42773 10.1074 3.42773 10.5273L3.42773 12.334Q3.42773 12.7441 3.69141 13.0078Q3.95508 13.2715 4.38477 13.2715ZM0.791016 6.11328L22.168 6.11328L22.168 3.89648L0.791016 3.89648ZM3.06641 16.6895L19.8828 16.6895Q21.416 16.6895 22.1826 15.9326Q22.9492 15.1758 22.9492 13.6719L22.9492 3.03711Q22.9492 1.5332 22.1826 0.771484Q21.416 0.00976562 19.8828 0.00976562L3.06641 0.00976562Q1.5332 0.00976562 0.766602 0.766602Q0 1.52344 0 3.03711L0 13.6719Q0 15.1758 0.766602 15.9326Q1.5332 16.6895 3.06641 16.6895ZM3.08594 15.1172Q2.35352 15.1172 1.96289 14.7314Q1.57227 14.3457 1.57227 13.584L1.57227 3.125Q1.57227 2.36328 1.96289 1.97266Q2.35352 1.58203 3.08594 1.58203L19.8633 1.58203Q20.5859 1.58203 20.9814 1.97266Q21.377 2.36328 21.377 3.125L21.377 13.584Q21.377 14.3457 20.9814 14.7314Q20.5859 15.1172 19.8633 15.1172Z" fill="#ffffff"/>
 </g>
</svg>
