<?xml version="1.0" encoding="UTF-8"?>
<!--Generator: Apple Native CoreSVG 175.5-->
<!DOCTYPE svg
PUBLIC "-//W3C//DTD SVG 1.1//EN"
       "http://www.w3.org/Graphics/SVG/1.1/DTD/svg11.dtd">
<svg version="1.1" xmlns="http://www.w3.org/2000/svg" xmlns:xlink="http://www.w3.org/1999/xlink" width="13.3887" height="23.4082">
 <g>
  <rect height="23.4082" opacity="0" width="13.3887" x="0" y="0"/>
  <path d="M1.72852 2.75391Q1.72852 3.56445 2.17773 4.02344Q2.62695 4.48242 3.41797 4.48242L9.96094 4.48242Q10.7617 4.48242 11.2109 4.02344Q11.6602 3.56445 11.6602 2.75391L11.6602 1.72852Q11.6602 0.917969 11.2109 0.458984Q10.7617 0 9.96094 0L3.41797 0Q2.62695 0 2.17773 0.458984Q1.72852 0.917969 1.72852 1.72852ZM3.10547 2.73438L3.10547 1.74805Q3.10547 1.57227 3.20801 1.46973Q3.31055 1.36719 3.48633 1.36719L9.89258 1.36719Q10.0781 1.36719 10.1807 1.46973Q10.2832 1.57227 10.2832 1.74805L10.2832 2.73438Q10.2832 2.90039 10.1807 3.00781Q10.0781 3.11523 9.89258 3.11523L3.48633 3.11523Q3.31055 3.11523 3.20801 3.00781Q3.10547 2.90039 3.10547 2.73438ZM4.53125 6.25977L4.53125 3.94531L3.1543 3.94531L3.1543 6.25977ZM10.2344 6.25977L10.2344 3.94531L8.85742 3.94531L8.85742 6.25977ZM0 20.1758Q0 21.1523 0.390625 21.8701Q0.78125 22.5879 1.48926 22.9834Q2.19727 23.3789 3.1543 23.3789L10.2344 23.3789Q11.1816 23.3789 11.8945 22.9834Q12.6074 22.5879 12.998 21.8701Q13.3887 21.1523 13.3887 20.1758L13.3887 9.10156Q13.3887 8.125 12.998 7.40723Q12.6074 6.68945 11.8945 6.29395Q11.1816 5.89844 10.2344 5.89844L3.1543 5.89844Q2.19727 5.89844 1.48926 6.29395Q0.78125 6.68945 0.390625 7.40723Q0 8.125 0 9.10156ZM1.49414 20.1562L1.49414 9.12109Q1.49414 8.33984 1.96777 7.87109Q2.44141 7.40234 3.23242 7.40234L10.1562 7.40234Q10.9473 7.40234 11.4209 7.87109Q11.8945 8.33984 11.8945 9.12109L11.8945 20.1562Q11.8945 20.9473 11.4209 21.416Q10.9473 21.8848 10.1562 21.8848L3.23242 21.8848Q2.44141 21.8848 1.96777 21.416Q1.49414 20.9473 1.49414 20.1562Z" fill="#007aff"/>
  <path d="M3.04688 15.332Q3.04688 15.6445 3.23242 15.8252Q3.41797 16.0059 3.7207 16.0059L5.32227 16.0059L5.32227 17.5977Q5.32227 17.9004 5.50293 18.0908Q5.68359 18.2812 5.99609 18.2812L7.38281 18.2812Q7.69531 18.2812 7.87598 18.0908Q8.05664 17.9004 8.05664 17.5977L8.05664 16.0059L9.6582 16.0059Q9.95117 16.0059 10.1465 15.8252Q10.3418 15.6445 10.3418 15.332L10.3418 13.9453Q10.3418 13.6328 10.1465 13.4521Q9.95117 13.2715 9.6582 13.2715L8.05664 13.2715L8.05664 11.6797Q8.05664 11.377 7.87598 11.1914Q7.69531 11.0059 7.38281 11.0059L5.99609 11.0059Q5.68359 11.0059 5.50293 11.1914Q5.32227 11.377 5.32227 11.6797L5.32227 13.2715L3.7207 13.2715Q3.41797 13.2715 3.23242 13.4521Q3.04688 13.6328 3.04688 13.9453Z" fill="#ffffff"/>
 </g>
</svg>
