<?xml version="1.0" encoding="UTF-8"?>
<!--Generator: Apple Native CoreSVG 175.5-->
<!DOCTYPE svg
PUBLIC "-//W3C//DTD SVG 1.1//EN"
       "http://www.w3.org/Graphics/SVG/1.1/DTD/svg11.dtd">
<svg version="1.1" xmlns="http://www.w3.org/2000/svg" xmlns:xlink="http://www.w3.org/1999/xlink" width="19.7168" height="21.4844">
 <g>
  <rect height="21.4844" opacity="0" width="19.7168" x="0" y="0"/>
  <path d="M1.36719 16.8994L9.05273 21.2549Q9.86328 21.7139 10.6738 21.2549L18.3496 16.8994Q19.0234 16.5186 19.3701 16.0205Q19.7168 15.5225 19.7168 14.4775L19.7168 6.74316Q19.7168 5.98145 19.4287 5.47852Q19.1406 4.97559 18.5254 4.62402L11.6113 0.698242Q10.7324 0.19043 9.86328 0.19043Q8.99414 0.19043 8.10547 0.698242L1.20117 4.62402Q0.576172 4.97559 0.288086 5.47852Q0 5.98145 0 6.74316L0 14.4775Q0 15.5225 0.351562 16.0205Q0.703125 16.5186 1.36719 16.8994ZM2.24609 15.6104Q1.81641 15.376 1.65039 15.1025Q1.48438 14.8291 1.48438 14.4287L1.48438 7.05566L9.0918 11.4014L9.0918 19.5068ZM17.4805 15.6104L10.625 19.5068L10.625 11.4014L18.2324 7.05566L18.2324 14.4287Q18.2324 14.8291 18.0664 15.1025Q17.9004 15.376 17.4805 15.6104ZM9.86328 10.0342L2.32422 5.7666L8.75977 2.09473Q9.87305 1.45996 10.9668 2.09473L17.4023 5.7666Z" fill="#ffffff"/>
 </g>
</svg>
