<?xml version="1.0" encoding="UTF-8"?>
<!--Generator: Apple Native CoreSVG 175-->
<!DOCTYPE svg
PUBLIC "-//W3C//DTD SVG 1.1//EN"
       "http://www.w3.org/Graphics/SVG/1.1/DTD/svg11.dtd">
<svg version="1.1" xmlns="http://www.w3.org/2000/svg" xmlns:xlink="http://www.w3.org/1999/xlink" width="17.2852" height="17.3145">
 <g>
  <rect height="17.3145" opacity="0" width="17.2852" x="0" y="0"/>
  <path d="M2.62695 17.3145L14.6484 17.3145Q15.957 17.3145 16.6211 16.6455Q17.2852 15.9766 17.2852 14.6875L17.2852 2.65625Q17.2852 1.37695 16.6211 0.703125Q15.957 0.0292969 14.6484 0.0292969L2.62695 0.0292969Q1.33789 0.0292969 0.668945 0.693359Q0 1.35742 0 2.65625L0 14.6875Q0 15.9863 0.668945 16.6504Q1.33789 17.3145 2.62695 17.3145ZM2.65625 16.5918Q1.70898 16.5918 1.2207 16.1035Q0.732422 15.6152 0.732422 14.6582L0.732422 2.69531Q0.732422 1.72852 1.2207 1.24512Q1.70898 0.761719 2.65625 0.761719L14.6289 0.761719Q15.5566 0.761719 16.0596 1.24512Q16.5625 1.72852 16.5625 2.69531L16.5625 14.6582Q16.5625 15.6152 16.0596 16.1035Q15.5566 16.5918 14.6289 16.5918Z" fill="#007aff"/>
  <path d="M5.89844 12.9688L8.47656 12.9688Q10.3516 12.9688 11.4209 11.8408Q12.4902 10.7129 12.4902 8.60352Q12.4902 6.61133 11.4209 5.45898Q10.3516 4.30664 8.47656 4.30664L5.89844 4.30664Q5.73242 4.30664 5.64453 4.42383Q5.55664 4.54102 5.55664 4.72656L5.55664 12.5586Q5.55664 12.7441 5.64453 12.8564Q5.73242 12.9688 5.89844 12.9688ZM6.28906 12.3242L6.28906 4.96094L8.38867 4.96094Q9.90234 4.96094 10.8057 5.92773Q11.709 6.89453 11.709 8.62305Q11.709 10.459 10.8105 11.3916Q9.91211 12.3242 8.38867 12.3242Z" fill="#ffffff"/>
 </g>
</svg>
