<?xml version="1.0" encoding="UTF-8"?>
<!--Generator: Apple Native CoreSVG 175-->
<!DOCTYPE svg
PUBLIC "-//W3C//DTD SVG 1.1//EN"
       "http://www.w3.org/Graphics/SVG/1.1/DTD/svg11.dtd">
<svg version="1.1" xmlns="http://www.w3.org/2000/svg" xmlns:xlink="http://www.w3.org/1999/xlink" width="20.0879" height="17.3145">
 <g>
  <rect height="17.3145" opacity="0" width="20.0879" x="0" y="0"/>
  <path d="M2.63672 17.3145L10.8008 17.3145Q11.3379 17.3145 11.7773 17.1826Q12.2168 17.0508 12.5977 16.8018Q12.9785 16.5527 13.3301 16.2012L19.3262 10.2539Q19.7461 9.84375 19.917 9.45312Q20.0879 9.0625 20.0879 8.64258Q20.0879 8.34961 20.0098 8.09082Q19.9316 7.83203 19.7656 7.56836Q19.5996 7.30469 19.3262 7.04102L13.3398 0.9375Q12.9883 0.585938 12.6074 0.385742Q12.2266 0.185547 11.7822 0.107422Q11.3379 0.0292969 10.8105 0.0292969L2.63672 0.0292969Q1.33789 0.0292969 0.668945 0.693359Q0 1.35742 0 2.65625L0 14.6875Q0 15.9863 0.668945 16.6504Q1.33789 17.3145 2.63672 17.3145ZM2.65625 16.5918Q1.70898 16.5918 1.2207 16.1035Q0.732422 15.6152 0.732422 14.6582L0.732422 2.69531Q0.732422 1.72852 1.2207 1.24512Q1.70898 0.761719 2.65625 0.761719L10.8203 0.761719Q11.4258 0.761719 11.8994 0.878906Q12.373 0.996094 12.8125 1.44531L18.7793 7.5293Q19.3164 8.08594 19.3164 8.64258Q19.3164 8.93555 19.1943 9.19922Q19.0723 9.46289 18.7793 9.76562L12.8027 15.6934Q12.373 16.1328 11.8994 16.3623Q11.4258 16.5918 10.8105 16.5918Z" fill="#007aff"/>
  <path d="M4.81445 12.5684Q4.98047 12.5684 5.12695 12.4316L8.32031 9.22852L11.5234 12.4316Q11.6602 12.5684 11.8262 12.5684Q11.9922 12.5684 12.1045 12.4609Q12.2168 12.3535 12.2168 12.1973Q12.2168 12.0312 12.0898 11.9043L8.86719 8.68164L12.0898 5.45898Q12.2266 5.33203 12.2266 5.16602Q12.2266 5.00977 12.1094 4.90234Q11.9922 4.79492 11.8262 4.79492Q11.6699 4.79492 11.5332 4.93164L8.32031 8.13477L5.11719 4.93164Q4.98047 4.79492 4.81445 4.79492Q4.64844 4.79492 4.53613 4.90234Q4.42383 5.00977 4.42383 5.16602Q4.42383 5.33203 4.55078 5.45898L7.77344 8.68164L4.55078 11.9043Q4.42383 12.0312 4.42383 12.1973Q4.42383 12.3535 4.53613 12.4609Q4.64844 12.5684 4.81445 12.5684Z" fill="#ffffff"/>
 </g>
</svg>
