<?xml version="1.0" encoding="UTF-8"?>
<!--Generator: Apple Native CoreSVG 175.5-->
<!DOCTYPE svg
PUBLIC "-//W3C//DTD SVG 1.1//EN"
       "http://www.w3.org/Graphics/SVG/1.1/DTD/svg11.dtd">
<svg version="1.1" xmlns="http://www.w3.org/2000/svg" xmlns:xlink="http://www.w3.org/1999/xlink" width="21.1621" height="17.998">
 <g>
  <rect height="17.998" opacity="0" width="21.1621" x="0" y="0"/>
  <path d="M18.0957 17.998Q19.6289 17.998 20.3955 17.2412Q21.1621 16.4844 21.1621 14.9707L21.1621 3.04688Q21.1621 1.5332 20.3955 0.776367Q19.6289 0.0195312 18.0957 0.0195312L9.60938 0.0195312Q9.0332 0.0195312 8.52051 0.126953Q8.00781 0.234375 7.54395 0.488281Q7.08008 0.742188 6.67969 1.16211L0.927734 7.13867Q0.605469 7.46094 0.400391 7.77344Q0.195312 8.08594 0.0976562 8.38379Q0 8.68164 0 8.99414Q0 9.44336 0.224609 9.89746Q0.449219 10.3516 0.927734 10.8496L6.68945 16.7969Q7.08984 17.2168 7.55371 17.4805Q8.01758 17.7441 8.53027 17.8662Q9.04297 17.9883 9.61914 17.9883Z" fill="#007aff"/>
  <path d="M9.08203 13.1055Q8.75 13.1055 8.51562 12.8662Q8.28125 12.627 8.28125 12.2949Q8.28125 11.9629 8.51562 11.7285L11.2305 9.01367L8.51562 6.30859Q8.28125 6.06445 8.28125 5.74219Q8.28125 5.40039 8.51562 5.1709Q8.75 4.94141 9.08203 4.94141Q9.4043 4.94141 9.64844 5.16602L12.373 7.88086L15.1172 5.15625Q15.3516 4.92188 15.6738 4.92188Q16.0059 4.92188 16.2402 5.15625Q16.4746 5.39062 16.4746 5.72266Q16.4746 6.05469 16.2402 6.29883L13.5156 9.01367L16.2305 11.7188Q16.4648 11.9336 16.4648 12.2949Q16.4648 12.627 16.2305 12.8662Q15.9961 13.1055 15.6543 13.1055Q15.3027 13.1055 15.0781 12.8711L12.373 10.1562L9.67773 12.8711Q9.43359 13.1055 9.08203 13.1055Z" fill="#ffffff"/>
 </g>
</svg>
