<?xml version="1.0" encoding="UTF-8"?>
<!--Generator: Apple Native CoreSVG 175-->
<!DOCTYPE svg
PUBLIC "-//W3C//DTD SVG 1.1//EN"
       "http://www.w3.org/Graphics/SVG/1.1/DTD/svg11.dtd">
<svg version="1.1" xmlns="http://www.w3.org/2000/svg" xmlns:xlink="http://www.w3.org/1999/xlink" width="21.4735" height="19.6286">
 <g>
  <rect height="19.6286" opacity="0" width="21.4735" x="0" y="0"/>
  <path d="M10.7367 17.3372Q12.0961 17.3372 13.2938 16.8206Q14.4914 16.304 15.4012 15.3942Q16.311 14.4844 16.8241 13.2903Q17.3372 12.0961 17.3372 10.7339Q17.3372 9.37195 16.8241 8.17566Q16.311 6.97937 15.4012 6.06956Q14.4914 5.15976 13.2938 4.64455Q12.0961 4.12933 10.7367 4.12933Q9.37744 4.12933 8.17978 4.64455Q6.98212 5.15976 6.07231 6.06956Q5.16251 6.97937 4.64806 8.17566Q4.13361 9.37195 4.13361 10.7339Q4.13361 12.0988 4.64806 13.2916Q5.16251 14.4844 6.07231 15.3942Q6.98212 16.304 8.17978 16.8206Q9.37744 17.3372 10.7367 17.3372ZM10.7367 4.86053Q11.9496 4.86053 13.0139 5.31837Q14.0782 5.77621 14.8878 6.58577Q15.6973 7.39532 16.1551 8.45963Q16.6129 9.52393 16.6129 10.7339Q16.6129 11.9469 16.1551 13.0112Q15.6973 14.0755 14.8878 14.8815Q14.0782 15.6876 13.0139 16.1488Q11.9496 16.6101 10.7367 16.6101Q9.52393 16.6101 8.45963 16.1488Q7.39532 15.6876 6.5844 14.8815Q5.77347 14.0755 5.3157 13.0112Q4.85794 11.9469 4.85794 10.7339Q4.85794 9.52393 5.3157 8.45963Q5.77347 7.39532 6.5844 6.58577Q7.39532 5.77621 8.45963 5.31837Q9.52393 4.86053 10.7367 4.86053ZM6.72195 15.0638L11.0742 10.6876Q11.1794 10.5824 11.1794 10.435Q11.1794 10.2875 11.0742 10.1868Q10.9731 10.0941 10.8258 10.0906Q10.6786 10.0871 10.5719 10.1868L6.21964 14.5602Z" fill="#ffffff"/>
  <path d="M3.75977 18.5497Q4.11285 18.5497 4.366 18.2965Q4.61914 18.0434 4.61914 17.6833Q4.61914 17.3232 4.3647 17.07Q4.11026 16.8169 3.75977 16.8169Q3.39966 16.8169 3.14651 17.0714Q2.89337 17.3259 2.89337 17.6833Q2.89337 18.0434 3.14789 18.2965Q3.4024 18.5497 3.75977 18.5497ZM0.869141 11.5891Q1.22223 11.5891 1.47888 11.3332Q1.73553 11.0774 1.73553 10.7199Q1.73553 10.3668 1.48109 10.1137Q1.22665 9.86053 0.869141 9.86053Q0.509033 9.86053 0.254517 10.1151Q0 10.3696 0 10.7199Q0 11.0802 0.25589 11.3346Q0.51178 11.5891 0.869141 11.5891ZM3.75977 4.64264Q4.11285 4.64264 4.366 4.38812Q4.61914 4.13361 4.61914 3.77625Q4.61914 3.41599 4.3647 3.16284Q4.11026 2.9097 3.75977 2.9097Q3.39966 2.9097 3.14651 3.16284Q2.89337 3.41599 2.89337 3.77625Q2.89337 4.13635 3.14789 4.3895Q3.4024 4.64264 3.75977 4.64264ZM10.7367 1.72852Q11.097 1.72852 11.3501 1.474Q11.6032 1.21948 11.6032 0.859375Q11.6032 0.506287 11.3487 0.253143Q11.0942 0 10.7367 0Q10.3766 0 10.1234 0.254517Q9.8703 0.509033 9.8703 0.859375Q9.8703 1.21948 10.1248 1.474Q10.3793 1.72852 10.7367 1.72852ZM17.718 4.63715Q18.0711 4.63715 18.3243 4.38263Q18.5774 4.12811 18.5774 3.77075Q18.5774 3.41766 18.3229 3.16101Q18.0684 2.90436 17.718 2.90436Q17.3552 2.90436 17.1021 3.16101Q16.8489 3.41766 16.8489 3.77075Q16.8489 4.13086 17.1034 4.384Q17.3579 4.63715 17.718 4.63715ZM20.6044 11.5891Q20.9645 11.5891 21.219 11.3332Q21.4735 11.0774 21.4735 10.7199Q21.4735 10.3668 21.2177 10.1137Q20.9618 9.86053 20.6044 9.86053Q20.2486 9.86053 19.9919 10.1151Q19.7353 10.3696 19.7353 10.7199Q19.7353 11.0802 19.9911 11.3346Q20.2469 11.5891 20.6044 11.5891ZM17.7153 18.5524Q18.0684 18.5524 18.325 18.2993Q18.5817 18.0461 18.5817 17.686Q18.5817 17.3259 18.3237 17.0728Q18.0656 16.8196 17.7153 16.8196Q17.3524 16.8196 17.0993 17.0741Q16.8462 17.3286 16.8462 17.686Q16.8462 18.0391 17.1007 18.2957Q17.3552 18.5524 17.7153 18.5524Z" fill="#007aff"/>
 </g>
</svg>
