<?xml version="1.0" encoding="UTF-8"?>
<!--Generator: Apple Native CoreSVG 175.5-->
<!DOCTYPE svg
PUBLIC "-//W3C//DTD SVG 1.1//EN"
       "http://www.w3.org/Graphics/SVG/1.1/DTD/svg11.dtd">
<svg version="1.1" xmlns="http://www.w3.org/2000/svg" xmlns:xlink="http://www.w3.org/1999/xlink" width="23.5547" height="21.9629">
 <g>
  <rect height="21.9629" opacity="0" width="23.5547" x="0" y="0"/>
  <path d="M11.7773 18.877Q13.2422 18.877 14.5312 18.3252Q15.8203 17.7734 16.7969 16.7969Q17.7734 15.8203 18.3252 14.5312Q18.877 13.2422 18.877 11.7676Q18.877 10.293 18.3252 9.00879Q17.7734 7.72461 16.7969 6.74805Q15.8203 5.77148 14.5312 5.22461Q13.2422 4.67773 11.7773 4.67773Q10.3125 4.67773 9.02344 5.22461Q7.73438 5.77148 6.75781 6.74805Q5.78125 7.72461 5.22461 9.00879Q4.66797 10.293 4.66797 11.7676Q4.66797 13.252 5.22461 14.5361Q5.78125 15.8203 6.75781 16.7969Q7.73438 17.7734 9.02344 18.3252Q10.3125 18.877 11.7773 18.877ZM11.7773 6.25977Q12.9199 6.25977 13.9209 6.68945Q14.9219 7.11914 15.6787 7.87598Q16.4355 8.63281 16.8652 9.63379Q17.2949 10.6348 17.2949 11.7676Q17.2949 12.9102 16.8652 13.9111Q16.4355 14.9121 15.6787 15.6689Q14.9219 16.4258 13.9209 16.8555Q12.9199 17.2852 11.7773 17.2852Q10.6348 17.2852 9.63379 16.8555Q8.63281 16.4258 7.87109 15.6689Q7.10938 14.9121 6.67969 13.9111Q6.25 12.9102 6.25 11.7676Q6.25 10.6348 6.67969 9.63379Q7.10938 8.63281 7.87109 7.87598Q8.63281 7.11914 9.63379 6.68945Q10.6348 6.25977 11.7773 6.25977ZM11.7773 12.6367Q12.0508 12.6465 12.2705 12.4268Q12.4902 12.207 12.4902 11.9141L12.4902 6.14258L11.0449 6.14258L11.0449 11.8945Q11.0449 12.2168 11.25 12.417Q11.4551 12.6172 11.7773 12.6367Z" fill="#ffffff"/>
  <path d="M4.28711 20.4199Q4.79492 20.4199 5.14648 20.0684Q5.49805 19.7168 5.49805 19.209Q5.49805 18.7012 5.1416 18.3496Q4.78516 17.998 4.28711 17.998Q3.7793 17.998 3.42773 18.3545Q3.07617 18.7109 3.07617 19.209Q3.07617 19.7168 3.43262 20.0684Q3.78906 20.4199 4.28711 20.4199ZM1.2207 12.9883Q1.72852 12.9883 2.08008 12.627Q2.43164 12.2656 2.43164 11.7676Q2.43164 11.2598 2.0752 10.9082Q1.71875 10.5566 1.2207 10.5566Q0.712891 10.5566 0.356445 10.9131Q0 11.2695 0 11.7676Q0 12.2754 0.361328 12.6318Q0.722656 12.9883 1.2207 12.9883ZM4.28711 5.55664Q4.79492 5.55664 5.14648 5.2002Q5.49805 4.84375 5.49805 4.3457Q5.49805 3.83789 5.1416 3.48633Q4.78516 3.13477 4.28711 3.13477Q3.7793 3.13477 3.42773 3.48633Q3.07617 3.83789 3.07617 4.3457Q3.07617 4.85352 3.43262 5.20508Q3.78906 5.55664 4.28711 5.55664ZM11.7773 2.43164Q12.2852 2.43164 12.6367 2.0752Q12.9883 1.71875 12.9883 1.21094Q12.9883 0.703125 12.6318 0.351562Q12.2754 0 11.7773 0Q11.2695 0 10.918 0.356445Q10.5664 0.712891 10.5664 1.21094Q10.5664 1.71875 10.9229 2.0752Q11.2793 2.43164 11.7773 2.43164ZM19.2578 5.53711Q19.7656 5.53711 20.1172 5.18066Q20.4688 4.82422 20.4688 4.32617Q20.4688 3.81836 20.1123 3.4668Q19.7559 3.11523 19.2578 3.11523Q18.7402 3.11523 18.3887 3.4668Q18.0371 3.81836 18.0371 4.32617Q18.0371 4.83398 18.3936 5.18555Q18.75 5.53711 19.2578 5.53711ZM22.334 12.9883Q22.8418 12.9883 23.1982 12.627Q23.5547 12.2656 23.5547 11.7676Q23.5547 11.2598 23.1934 10.9082Q22.832 10.5566 22.334 10.5566Q21.8164 10.5566 21.4648 10.9131Q21.1133 11.2695 21.1133 11.7676Q21.1133 12.2754 21.4746 12.6318Q21.8359 12.9883 22.334 12.9883ZM19.248 20.4297Q19.7559 20.4297 20.1074 20.0781Q20.459 19.7266 20.459 19.2188Q20.459 18.7109 20.1025 18.3594Q19.7461 18.0078 19.248 18.0078Q18.7305 18.0078 18.3789 18.3643Q18.0273 18.7207 18.0273 19.2188Q18.0273 19.7266 18.3838 20.0781Q18.7402 20.4297 19.248 20.4297Z" fill="#007aff"/>
 </g>
</svg>
