<?xml version="1.0" encoding="UTF-8"?>
<!--Generator: Apple Native CoreSVG 175.5-->
<!DOCTYPE svg
PUBLIC "-//W3C//DTD SVG 1.1//EN"
       "http://www.w3.org/Graphics/SVG/1.1/DTD/svg11.dtd">
<svg version="1.1" xmlns="http://www.w3.org/2000/svg" xmlns:xlink="http://www.w3.org/1999/xlink" width="22.1486" height="22.1584">
 <g>
  <rect height="22.1584" opacity="0" width="22.1486" x="0" y="0"/>
  <path d="M1.09384 13.2325L8.9161 21.0548Q10.0001 22.1388 11.0743 22.1485Q12.1485 22.1583 13.2227 21.0841L21.0841 13.213Q22.1583 12.1485 22.1485 11.0694Q22.1388 9.99032 21.0548 8.90634L13.2423 1.09384Q12.1583 0.0098536 11.0841 8.79786e-05Q10.0099-0.00967765 8.93563 1.06454L1.06454 8.92587Q-0.00967765 10.0099 8.79786e-05 11.0792Q0.0098536 12.1485 1.09384 13.2325ZM2.22665 12.1485Q1.70907 11.6212 1.69931 11.0743Q1.68954 10.5274 2.23642 9.99032L9.99032 2.23642Q10.5274 1.69931 11.0743 1.69931Q11.6212 1.69931 12.1485 2.22665L19.922 10.0001Q20.4395 10.5177 20.4493 11.0694Q20.4591 11.6212 19.9122 12.1583L12.1583 19.9122Q11.6114 20.4493 11.0645 20.4493Q10.5177 20.4493 10.0001 19.9317Z" fill="#ffffff"/>
 </g>
</svg>
