<?xml version="1.0" encoding="UTF-8"?>
<!--Generator: Apple Native CoreSVG 175.5-->
<!DOCTYPE svg
PUBLIC "-//W3C//DTD SVG 1.1//EN"
       "http://www.w3.org/Graphics/SVG/1.1/DTD/svg11.dtd">
<svg version="1.1" xmlns="http://www.w3.org/2000/svg" xmlns:xlink="http://www.w3.org/1999/xlink" width="17.9785" height="17.998">
 <g>
  <rect height="17.998" opacity="0" width="17.9785" x="0" y="0"/>
  <path d="M3.06641 17.998L14.9121 17.998Q16.4453 17.998 17.2119 17.2412Q17.9785 16.4844 17.9785 14.9707L17.9785 3.04688Q17.9785 1.5332 17.2119 0.776367Q16.4453 0.0195312 14.9121 0.0195312L3.06641 0.0195312Q1.5332 0.0195312 0.766602 0.776367Q0 1.5332 0 3.04688L0 14.9707Q0 16.4844 0.766602 17.2412Q1.5332 17.998 3.06641 17.998ZM3.08594 16.4258Q2.35352 16.4258 1.96289 16.04Q1.57227 15.6543 1.57227 14.8926L1.57227 3.125Q1.57227 2.36328 1.96289 1.97754Q2.35352 1.5918 3.08594 1.5918L14.8926 1.5918Q15.6152 1.5918 16.0107 1.97754Q16.4062 2.36328 16.4062 3.125L16.4062 14.8926Q16.4062 15.6543 16.0107 16.04Q15.6152 16.4258 14.8926 16.4258Z" fill="#007aff"/>
  <path d="M4.60938 6.20117Q5.25391 6.21094 5.72266 5.74219Q6.19141 5.27344 6.19141 4.59961Q6.19141 3.94531 5.72266 3.48633Q5.25391 3.02734 4.60938 3.02734Q3.95508 3.02734 3.48633 3.48633Q3.01758 3.94531 3.01758 4.59961Q3.01758 5.27344 3.48633 5.73242Q3.95508 6.19141 4.60938 6.20117ZM13.3887 6.20117Q14.0332 6.21094 14.502 5.74219Q14.9707 5.27344 14.9707 4.59961Q14.9707 3.94531 14.502 3.48633Q14.0332 3.02734 13.3887 3.02734Q12.7344 3.02734 12.2607 3.48633Q11.7871 3.94531 11.7871 4.59961Q11.7871 5.27344 12.2607 5.73242Q12.7344 6.19141 13.3887 6.20117ZM4.60938 10.5957Q5.25391 10.5957 5.72266 10.127Q6.19141 9.6582 6.19141 8.99414Q6.19141 8.34961 5.72266 7.88574Q5.25391 7.42188 4.60938 7.42188Q3.95508 7.42188 3.49121 7.88574Q3.02734 8.34961 3.02734 8.99414Q3.02734 9.6582 3.49121 10.127Q3.95508 10.5957 4.60938 10.5957ZM13.3887 10.5957Q14.0332 10.5957 14.502 10.127Q14.9707 9.6582 14.9707 8.99414Q14.9707 8.34961 14.502 7.88574Q14.0332 7.42188 13.3887 7.42188Q12.7246 7.42188 12.2607 7.88574Q11.7969 8.34961 11.7969 8.99414Q11.7969 9.6582 12.2607 10.127Q12.7246 10.5957 13.3887 10.5957ZM4.60938 14.9902Q5.25391 14.9902 5.72266 14.5215Q6.19141 14.0527 6.19141 13.3984Q6.19141 12.7441 5.72266 12.2803Q5.25391 11.8164 4.60938 11.8164Q3.95508 11.8164 3.49121 12.2803Q3.02734 12.7441 3.02734 13.3984Q3.02734 14.0527 3.49121 14.5215Q3.95508 14.9902 4.60938 14.9902ZM13.3887 14.9902Q14.0332 14.9902 14.502 14.5215Q14.9707 14.0527 14.9707 13.3984Q14.9707 12.7441 14.502 12.2803Q14.0332 11.8164 13.3887 11.8164Q12.7344 11.8164 12.2705 12.2803Q11.8066 12.7441 11.8066 13.3984Q11.8066 14.0527 12.2705 14.5215Q12.7344 14.9902 13.3887 14.9902Z" fill="#ffffff"/>
 </g>
</svg>
