<?xml version="1.0" encoding="UTF-8"?>
<!--Generator: Apple Native CoreSVG 175-->
<!DOCTYPE svg
PUBLIC "-//W3C//DTD SVG 1.1//EN"
       "http://www.w3.org/Graphics/SVG/1.1/DTD/svg11.dtd">
<svg version="1.1" xmlns="http://www.w3.org/2000/svg" xmlns:xlink="http://www.w3.org/1999/xlink" width="18.4665" height="19.6339">
 <g>
  <rect height="19.6339" opacity="0" width="18.4665" x="0" y="0"/>
  <path d="M9.23325 7.72575Q11.9243 7.72575 13.9481 7.24021Q15.972 6.75468 17.0958 5.8937Q18.2196 5.03272 18.2196 3.89182Q18.2196 2.75779 17.0958 1.8933Q15.972 1.02882 13.9481 0.543283Q11.9243 0.0577486 9.23325 0.0577486Q6.53946 0.0577486 4.51698 0.543283Q2.49451 1.02882 1.37421 1.8933Q0.253906 2.75779 0.253906 3.89182Q0.253906 5.03272 1.37421 5.8937Q2.49451 6.75468 4.51698 7.24021Q6.53946 7.72575 9.23325 7.72575ZM9.23325 12.7946Q12.0282 12.7946 14.103 12.2432Q16.1778 11.6918 17.3222 10.525Q18.4665 9.35813 18.4665 7.50694L18.4665 5.72578Q17.6357 6.87034 15.773 7.58705L15.773 9.26673Q15.773 9.40391 15.6741 9.49806Q15.5751 9.5922 15.4379 9.5922Q15.3008 9.5922 15.2066 9.49806Q15.1125 9.40391 15.1125 9.26673L15.1125 7.82417Q14.5027 8.01597 13.8615 8.15093Q13.2204 8.2859 12.7821 8.35151L12.7821 10.0011Q12.7821 10.1383 12.6845 10.236Q12.5868 10.3336 12.4496 10.3336Q12.3125 10.3336 12.2134 10.236Q12.1144 10.1383 12.1144 10.0011L12.1144 8.43315Q11.4671 8.5102 10.733 8.55354Q9.99893 8.59687 9.53995 8.59962L9.53995 10.2523Q9.53995 10.3895 9.44229 10.4885Q9.34464 10.5875 9.20746 10.5875Q9.07028 10.5875 8.97125 10.4885Q8.87222 10.3895 8.87222 10.2523L8.87222 8.59687Q8.28827 8.59413 7.61795 8.54942Q6.94763 8.50471 6.30035 8.4278L6.30035 10.0011Q6.30035 10.1383 6.2014 10.236Q6.10245 10.3336 5.96527 10.3336Q5.82809 10.3336 5.73395 10.236Q5.6398 10.1383 5.6398 10.0011L5.6398 8.34068Q5.03601 8.23707 4.44809 8.11134Q3.86017 7.98561 3.30948 7.81211L3.30948 9.26673Q3.30948 9.40391 3.21182 9.49806Q3.11417 9.5922 2.97699 9.5922Q2.83981 9.5922 2.74078 9.49806Q2.64175 9.40391 2.64175 9.26673L2.64175 7.5695Q0.814514 6.85813 0 5.72578L0 7.50694Q0 9.35813 1.14433 10.525Q2.28867 11.6918 4.36348 12.2432Q6.43829 12.7946 9.23325 12.7946Z" fill="#007aff"/>
  <path d="M16.5211 16.9793Q16.5211 16.8742 16.4602 16.7773Q16.3992 16.6805 16.2885 16.6396Q16.1778 16.5987 16.0297 16.657Q14.5966 17.1859 13.186 17.4398Q11.7754 17.6937 10.2484 17.6937Q8.72147 17.6937 7.31094 17.4398Q5.90042 17.1859 4.46716 16.657L4.21524 17.3196Q5.7164 17.8735 7.19063 18.1377Q8.66486 18.402 10.2484 18.402Q11.8321 18.402 13.3064 18.1364Q14.7806 17.8707 16.2817 17.3196Q16.409 17.2738 16.4651 17.1826Q16.5211 17.0914 16.5211 16.9793ZM4.67819 19.3395L5.80826 15.5707Q5.85938 15.3777 5.77675 15.2355Q5.69412 15.0933 5.52811 15.04Q5.36209 14.9866 5.17578 15.0465L2.15698 16.1043Q1.92078 16.1793 1.83655 16.4152Q1.75232 16.6512 1.91254 16.8723L3.85315 19.4129Q3.97415 19.5727 4.14642 19.6164Q4.3187 19.6601 4.4693 19.5949Q4.6199 19.5296 4.67819 19.3395Z" fill="#ffffff"/>
 </g>
</svg>
