<?xml version="1.0" encoding="UTF-8"?>
<!--Generator: Apple Native CoreSVG 175.5-->
<!DOCTYPE svg
PUBLIC "-//W3C//DTD SVG 1.1//EN"
       "http://www.w3.org/Graphics/SVG/1.1/DTD/svg11.dtd">
<svg version="1.1" xmlns="http://www.w3.org/2000/svg" xmlns:xlink="http://www.w3.org/1999/xlink" width="18.5254" height="22.002">
 <g>
  <rect height="22.002" opacity="0" width="18.5254" x="0" y="0"/>
  <path d="M0 5.55664L16.9434 5.55664L16.9434 2.98828Q16.9434 1.94336 16.3232 1.29883Q15.7031 0.654297 14.6875 0.654297L2.26562 0.654297Q1.25 0.654297 0.625 1.29883Q0 1.94336 0 2.98828ZM3.53516 4.47266Q3.16406 4.47266 2.90527 4.20898Q2.64648 3.94531 2.64648 3.58398Q2.64648 3.21289 2.90527 2.94922Q3.16406 2.68555 3.53516 2.68555Q3.89648 2.68555 4.15527 2.94922Q4.41406 3.21289 4.41406 3.58398Q4.41406 3.94531 4.15527 4.20898Q3.89648 4.47266 3.53516 4.47266ZM6.10352 4.47266Q5.73242 4.47266 5.47852 4.20898Q5.22461 3.94531 5.22461 3.58398Q5.22461 3.21289 5.47852 2.94922Q5.73242 2.68555 6.10352 2.68555Q6.46484 2.68555 6.72363 2.94922Q6.98242 3.21289 6.98242 3.58398Q6.98242 3.94531 6.72363 4.20898Q6.46484 4.47266 6.10352 4.47266ZM0 17.373L5.12695 17.373Q5.11719 17.2656 5.1123 17.1631Q5.10742 17.0605 5.10742 16.9531Q5.10742 15.6641 5.58594 14.5459Q6.06445 13.4277 6.91406 12.5781Q7.76367 11.7285 8.88672 11.25Q10.0098 10.7715 11.2988 10.7715Q11.543 10.7715 11.7822 10.7861Q12.0215 10.8008 12.2461 10.8398Q12.5293 10.8008 12.8418 10.7861Q13.1543 10.7715 13.4766 10.7715Q14.4434 10.7715 15.3223 11.0498Q16.2012 11.3281 16.9434 11.8262L16.9434 6.88477L0 6.88477ZM6.09375 9.28711Q5.86914 9.28711 5.72754 9.14062Q5.58594 8.99414 5.58594 8.76953Q5.58594 8.54492 5.72754 8.40332Q5.86914 8.26172 6.09375 8.26172L10.8594 8.26172Q11.084 8.26172 11.2207 8.40332Q11.3574 8.54492 11.3574 8.76953Q11.3574 8.99414 11.2207 9.14062Q11.084 9.28711 10.8594 9.28711ZM2.26562 21.1621L6.75781 21.1621Q6.2793 20.6543 5.91797 20.0293Q5.55664 19.4043 5.35156 18.7012L0 18.7012L0 18.8379Q0 19.8828 0.625 20.5225Q1.25 21.1621 2.26562 21.1621Z" fill="#007aff"/>
  <path d="M11.2988 22.002Q12.3438 22.002 13.2568 21.6113Q14.1699 21.2207 14.8633 20.5273Q15.5566 19.834 15.9473 18.916Q16.3379 17.998 16.3379 16.9531Q16.3379 15.8984 15.9473 14.9854Q15.5566 14.0723 14.8633 13.3789Q14.1699 12.6855 13.2568 12.2949Q12.3438 11.9043 11.2988 11.9043Q10.2441 11.9043 9.32617 12.2949Q8.4082 12.6855 7.71484 13.3789Q7.02148 14.0723 6.63086 14.9854Q6.24023 15.8984 6.24023 16.9531Q6.24023 17.998 6.63086 18.916Q7.02148 19.834 7.71484 20.5273Q8.4082 21.2207 9.32617 21.6113Q10.2441 22.002 11.2988 22.002ZM11.2988 20.918Q10.1562 20.918 9.2627 20.4004Q8.36914 19.8828 7.84668 18.9844Q7.32422 18.0859 7.32422 16.9531Q7.32422 15.8203 7.84668 14.9219Q8.36914 14.0234 9.2627 13.5059Q10.1562 12.9883 11.2988 12.9883Q12.4219 12.9883 13.3203 13.5059Q14.2188 14.0234 14.7363 14.9219Q15.2539 15.8203 15.2539 16.9531Q15.2539 18.0859 14.7363 18.9844Q14.2188 19.8828 13.3203 20.4004Q12.4219 20.918 11.2988 20.918ZM11.2988 19.8926Q12.0996 19.8926 12.7686 19.4971Q13.4375 19.1016 13.833 18.4326Q14.2285 17.7637 14.2285 16.9531Q14.2285 16.1426 13.833 15.4785Q13.4375 14.8145 12.7734 14.4189Q12.1094 14.0234 11.2988 14.0234Q10.4883 14.0234 9.81934 14.4189Q9.15039 14.8145 8.75488 15.4785Q8.35938 16.1426 8.35938 16.9531Q8.35938 17.7637 8.75488 18.4326Q9.15039 19.1016 9.81934 19.4971Q10.4883 19.8926 11.2988 19.8926ZM11.2988 19.0039Q10.4004 19.0039 9.82422 18.4277Q9.24805 17.8516 9.24805 16.9531Q9.24805 16.0547 9.82422 15.4834Q10.4004 14.9121 11.2988 14.9121Q12.1875 14.9121 12.7637 15.4834Q13.3398 16.0547 13.3398 16.9531Q13.3398 17.8516 12.7637 18.4277Q12.1875 19.0039 11.2988 19.0039ZM13.4766 22.002Q14.5312 22.002 15.4443 21.6113Q16.3574 21.2207 17.0508 20.5273Q17.7441 19.834 18.1348 18.916Q18.5254 17.998 18.5254 16.9531Q18.5254 15.8984 18.1348 14.9854Q17.7441 14.0723 17.0508 13.3789Q16.3574 12.6855 15.4443 12.2949Q14.5312 11.9043 13.4766 11.9043Q12.5684 11.9043 11.7676 12.2168L13.0176 13.0176Q13.1348 13.0078 13.2471 12.998Q13.3594 12.9883 13.4766 12.9883Q14.6094 12.9883 15.5078 13.5059Q16.4062 14.0234 16.9238 14.9219Q17.4414 15.8203 17.4414 16.9531Q17.4414 18.0859 16.9238 18.9844Q16.4062 19.8828 15.5078 20.4004Q14.6094 20.918 13.4766 20.918Q13.3594 20.918 13.2422 20.9131Q13.125 20.9082 13.0078 20.8984L12.1191 21.8164Q12.7734 22.002 13.4766 22.002Z" fill="#ffffff"/>
 </g>
</svg>
