<?xml version="1.0" encoding="UTF-8"?>
<!--Generator: Apple Native CoreSVG 175.5-->
<!DOCTYPE svg
PUBLIC "-//W3C//DTD SVG 1.1//EN"
       "http://www.w3.org/Graphics/SVG/1.1/DTD/svg11.dtd">
<svg version="1.1" xmlns="http://www.w3.org/2000/svg" xmlns:xlink="http://www.w3.org/1999/xlink" width="23.3789" height="23.291">
 <g>
  <rect height="23.291" opacity="0" width="23.3789" x="0" y="0"/>
  <path d="M8.00781 7.11914L15.3711 7.11914Q16.4648 7.11914 17.0361 6.55273Q17.6074 5.98633 17.6074 4.92188L17.6074 2.19727Q17.6074 1.13281 17.0361 0.566406Q16.4648 0 15.3711 0L8.00781 0Q6.91406 0 6.34277 0.566406Q5.77148 1.13281 5.77148 2.19727L5.77148 4.92188Q5.77148 5.98633 6.34277 6.55273Q6.91406 7.11914 8.00781 7.11914ZM4.55078 20.2441L18.8281 20.2441Q19.9219 20.2441 20.4932 19.6777Q21.0645 19.1113 21.0645 18.0371L21.0645 15.3125Q21.0645 14.248 20.4932 13.6816Q19.9219 13.1152 18.8281 13.1152L4.55078 13.1152Q3.45703 13.1152 2.88574 13.6816Q2.31445 14.248 2.31445 15.3125L2.31445 18.0371Q2.31445 19.1113 2.88574 19.6777Q3.45703 20.2441 4.55078 20.2441Z" fill="#007aff"/>
  <path d="M0.683594 10.1562L22.6953 10.1562Q22.9883 10.1562 23.1836 9.94141Q23.3789 9.72656 23.3789 9.44336Q23.3789 9.16016 23.1836 8.94043Q22.9883 8.7207 22.6953 8.7207L0.683594 8.7207Q0.390625 8.7207 0.195312 8.94043Q0 9.16016 0 9.44336Q0 9.72656 0.195312 9.94141Q0.390625 10.1562 0.683594 10.1562ZM0.683594 23.2812L22.6953 23.2812Q22.9883 23.2812 23.1836 23.0664Q23.3789 22.8516 23.3789 22.5586Q23.3789 22.2754 23.1836 22.0605Q22.9883 21.8457 22.6953 21.8457L0.683594 21.8457Q0.390625 21.8457 0.195312 22.0605Q0 22.2754 0 22.5586Q0 22.8516 0.195312 23.0664Q0.390625 23.2812 0.683594 23.2812Z" fill="#ffffff"/>
 </g>
</svg>
