<?xml version="1.0" encoding="UTF-8"?>
<!--Generator: Apple Native CoreSVG 175-->
<!DOCTYPE svg
PUBLIC "-//W3C//DTD SVG 1.1//EN"
       "http://www.w3.org/Graphics/SVG/1.1/DTD/svg11.dtd">
<svg version="1.1" xmlns="http://www.w3.org/2000/svg" xmlns:xlink="http://www.w3.org/1999/xlink" width="17.2852" height="17.3145">
 <g>
  <rect height="17.3145" opacity="0" width="17.2852" x="0" y="0"/>
  <path d="M2.62695 17.3145L14.6484 17.3145Q15.957 17.3145 16.6211 16.6455Q17.2852 15.9766 17.2852 14.6875L17.2852 2.65625Q17.2852 1.37695 16.6211 0.703125Q15.957 0.0292969 14.6484 0.0292969L2.62695 0.0292969Q1.33789 0.0292969 0.668945 0.693359Q0 1.35742 0 2.65625L0 14.6875Q0 15.9863 0.668945 16.6504Q1.33789 17.3145 2.62695 17.3145ZM2.65625 16.5918Q1.70898 16.5918 1.2207 16.1035Q0.732422 15.6152 0.732422 14.6582L0.732422 2.69531Q0.732422 1.72852 1.2207 1.24512Q1.70898 0.761719 2.65625 0.761719L14.6289 0.761719Q15.5566 0.761719 16.0596 1.24512Q16.5625 1.72852 16.5625 2.69531L16.5625 14.6582Q16.5625 15.6152 16.0596 16.1035Q15.5566 16.5918 14.6289 16.5918Z" fill="#007aff"/>
  <path d="M8.63281 5.77148Q8.93555 5.77148 9.13086 5.58105Q9.32617 5.39062 9.32617 5.10742Q9.32617 4.81445 9.13086 4.62402Q8.93555 4.43359 8.63281 4.43359Q8.35938 4.43359 8.15918 4.63379Q7.95898 4.83398 7.95898 5.11719Q7.95898 5.40039 8.15918 5.58594Q8.35938 5.77148 8.63281 5.77148ZM4.31641 9.0332L12.959 9.0332Q13.1445 9.0332 13.2568 8.93555Q13.3691 8.83789 13.3691 8.66211Q13.3691 8.48633 13.2568 8.38867Q13.1445 8.29102 12.959 8.29102L4.31641 8.29102Q4.14062 8.29102 4.02832 8.38867Q3.91602 8.48633 3.91602 8.66211Q3.91602 8.83789 4.02832 8.93555Q4.14062 9.0332 4.31641 9.0332ZM8.63281 12.9004Q8.93555 12.9004 9.13086 12.71Q9.32617 12.5195 9.32617 12.2363Q9.32617 11.9531 9.13086 11.7578Q8.93555 11.5625 8.63281 11.5625Q8.35938 11.5625 8.15918 11.7627Q7.95898 11.9629 7.95898 12.2461Q7.95898 12.5293 8.15918 12.7148Q8.35938 12.9004 8.63281 12.9004Z" fill="#ffffff"/>
 </g>
</svg>
