<?xml version="1.0" encoding="UTF-8"?>
<!--Generator: Apple Native CoreSVG 175.5-->
<!DOCTYPE svg
PUBLIC "-//W3C//DTD SVG 1.1//EN"
       "http://www.w3.org/Graphics/SVG/1.1/DTD/svg11.dtd">
<svg version="1.1" xmlns="http://www.w3.org/2000/svg" xmlns:xlink="http://www.w3.org/1999/xlink" width="19.9219" height="19.9316">
 <g>
  <rect height="19.9316" opacity="0" width="19.9219" x="0" y="0"/>
  <path d="M9.96094 19.9219Q12.002 19.9219 13.8037 19.1406Q15.6055 18.3594 16.9824 16.9824Q18.3594 15.6055 19.1406 13.8037Q19.9219 12.002 19.9219 9.96094Q19.9219 7.91992 19.1406 6.11816Q18.3594 4.31641 16.9824 2.93945Q15.6055 1.5625 13.7988 0.78125Q11.9922 0 9.95117 0Q7.91016 0 6.1084 0.78125Q4.30664 1.5625 2.93457 2.93945Q1.5625 4.31641 0.78125 6.11816Q0 7.91992 0 9.96094Q0 12.002 0.78125 13.8037Q1.5625 15.6055 2.93945 16.9824Q4.31641 18.3594 6.11816 19.1406Q7.91992 19.9219 9.96094 19.9219Z" fill="#007aff"/>
  <path d="M7.56836 15.3809Q6.72852 15.3809 6.30859 14.9561Q5.88867 14.5312 5.88867 13.6816L5.88867 5.97656Q5.88867 5.13672 6.30859 4.70215Q6.72852 4.26758 7.56836 4.26758L9.48242 4.26758L9.48242 8.32031Q9.48242 9.35547 10.498 9.35547L14.502 9.35547L14.502 13.6816Q14.502 14.5215 14.082 14.9512Q13.6621 15.3809 12.8223 15.3809ZM10.5859 8.53516Q10.293 8.53516 10.293 8.24219L10.293 4.32617Q10.459 4.35547 10.6348 4.47266Q10.8105 4.58984 11.0059 4.78516L13.9844 7.82227Q14.1797 8.01758 14.292 8.18848Q14.4043 8.35938 14.4336 8.53516Z" fill="#ffffff"/>
 </g>
</svg>
