<?xml version="1.0" encoding="UTF-8"?>
<!--Generator: Apple Native CoreSVG 175.5-->
<!DOCTYPE svg
PUBLIC "-//W3C//DTD SVG 1.1//EN"
       "http://www.w3.org/Graphics/SVG/1.1/DTD/svg11.dtd">
<svg version="1.1" xmlns="http://www.w3.org/2000/svg" xmlns:xlink="http://www.w3.org/1999/xlink" width="16.4258" height="20.9473">
 <g>
  <rect height="20.9473" opacity="0" width="16.4258" x="0" y="0"/>
  <path d="M3.41797 8.93555Q3.17383 8.93555 3.03711 8.80371Q2.90039 8.67188 2.90039 8.4375Q2.90039 8.30078 2.96875 8.11523L4.4043 4.14062Q4.61914 3.53516 5.17578 3.53516Q5.77148 3.53516 5.98633 4.14062L7.42188 8.11523Q7.45117 8.21289 7.46582 8.2959Q7.48047 8.37891 7.48047 8.4375Q7.48047 8.67188 7.34863 8.80371Q7.2168 8.93555 6.96289 8.93555Q6.77734 8.93555 6.64551 8.82324Q6.51367 8.71094 6.45508 8.4668L6.10352 7.5L4.26758 7.5L3.93555 8.4668Q3.80859 8.93555 3.41797 8.93555ZM4.49219 6.68945L5.88867 6.68945L5.21484 4.63867L5.15625 4.63867ZM9.57031 5.22461Q9.29688 5.22461 9.12598 5.04883Q8.95508 4.87305 8.95508 4.61914Q8.95508 4.36523 9.12598 4.19434Q9.29688 4.02344 9.57031 4.02344L12.9395 4.02344Q13.2031 4.02344 13.374 4.19434Q13.5449 4.36523 13.5449 4.61914Q13.5449 4.87305 13.374 5.04883Q13.2031 5.22461 12.9395 5.22461ZM9.57031 8.63281Q9.29688 8.63281 9.12598 8.45703Q8.95508 8.28125 8.95508 8.02734Q8.95508 7.77344 9.12598 7.60254Q9.29688 7.43164 9.57031 7.43164L12.9395 7.43164Q13.2031 7.43164 13.374 7.60254Q13.5449 7.77344 13.5449 8.02734Q13.5449 8.28125 13.374 8.45703Q13.2031 8.63281 12.9395 8.63281ZM2.85156 17.0996L2.85156 12.334Q2.85156 11.6895 3.19824 11.3623Q3.54492 11.0352 4.16992 11.0352L12.2656 11.0352Q13.5742 11.0352 13.5742 12.334L13.5742 17.002L12.5 17.002L10.5469 14.7559Q10.4102 14.5996 10.2344 14.5361Q10.0586 14.4727 9.87305 14.4727Q9.70703 14.4727 9.53125 14.541Q9.35547 14.6094 9.18945 14.7559L7.1875 16.5332L6.38672 15.8008Q6.11328 15.5566 5.79102 15.5566Q5.46875 15.5566 5.21484 15.8008L3.92578 17.0996ZM6.46484 14.7559Q6.89453 14.7559 7.20703 14.4434Q7.51953 14.1309 7.51953 13.7012Q7.51953 13.2617 7.20703 12.959Q6.89453 12.6562 6.46484 12.6465Q6.02539 12.627 5.71777 12.9443Q5.41016 13.2617 5.41016 13.7012Q5.41016 14.1309 5.71777 14.4434Q6.02539 14.7559 6.46484 14.7559ZM0 17.8809Q0 19.4141 0.756836 20.1758Q1.51367 20.9375 3.02734 20.9375L13.3984 20.9375Q14.9121 20.9375 15.6689 20.1758Q16.4258 19.4141 16.4258 17.8809L16.4258 3.06641Q16.4258 1.54297 15.6689 0.771484Q14.9121 0 13.3984 0L3.02734 0Q1.51367 0 0.756836 0.771484Q0 1.54297 0 3.06641Z" fill="#ffffff"/>
 </g>
</svg>
