<?xml version="1.0" encoding="UTF-8"?>
<!--Generator: Apple Native CoreSVG 175.5-->
<!DOCTYPE svg
PUBLIC "-//W3C//DTD SVG 1.1//EN"
       "http://www.w3.org/Graphics/SVG/1.1/DTD/svg11.dtd">
<svg version="1.1" xmlns="http://www.w3.org/2000/svg" xmlns:xlink="http://www.w3.org/1999/xlink" width="16.4258" height="20.9473">
 <g>
  <rect height="20.9473" opacity="0" width="16.4258" x="0" y="0"/>
  <path d="M3.02734 20.9375L13.3984 20.9375Q14.9121 20.9375 15.6689 20.1709Q16.4258 19.4043 16.4258 17.8809L16.4258 9.01367L9.35547 9.01367Q7.50977 9.01367 7.50977 7.16797L7.50977 0L3.02734 0Q1.51367 0 0.756836 0.771484Q0 1.54297 0 3.06641L0 17.8809Q0 19.4141 0.756836 20.1758Q1.51367 20.9375 3.02734 20.9375ZM9.38477 7.67578L16.3086 7.67578Q16.2598 7.37305 16.0547 7.07031Q15.8496 6.76758 15.498 6.40625L10.1172 0.927734Q9.77539 0.576172 9.46289 0.366211Q9.15039 0.15625 8.84766 0.107422L8.84766 7.14844Q8.84766 7.67578 9.38477 7.67578Z" fill="#ffffff"/>
 </g>
</svg>
