<?xml version="1.0" encoding="UTF-8"?>
<!--Generator: Apple Native CoreSVG 175-->
<!DOCTYPE svg
PUBLIC "-//W3C//DTD SVG 1.1//EN"
       "http://www.w3.org/Graphics/SVG/1.1/DTD/svg11.dtd">
<svg version="1.1" xmlns="http://www.w3.org/2000/svg" xmlns:xlink="http://www.w3.org/1999/xlink" width="19.1602" height="19.1504">
 <g>
  <rect height="19.1504" opacity="0" width="19.1602" x="0" y="0"/>
  <path d="M9.57031 19.1406Q11.5527 19.1406 13.2861 18.3984Q15.0195 17.6562 16.3379 16.333Q17.6562 15.0098 18.4082 13.2764Q19.1602 11.543 19.1602 9.57031Q19.1602 7.59766 18.4082 5.86426Q17.6562 4.13086 16.3379 2.80762Q15.0195 1.48438 13.2861 0.742188Q11.5527 0 9.57031 0Q7.59766 0 5.86426 0.742188Q4.13086 1.48438 2.81738 2.80762Q1.50391 4.13086 0.751953 5.86426Q0 7.59766 0 9.57031Q0 11.543 0.74707 13.2764Q1.49414 15.0098 2.8125 16.333Q4.13086 17.6562 5.86914 18.3984Q7.60742 19.1406 9.57031 19.1406Z" fill="#007aff"/>
  <path d="M6.5332 9.90234Q6.5332 9.07227 6.86523 8.45703Q7.19727 7.8418 7.75391 7.50488Q8.31055 7.16797 8.99414 7.16797Q9.59961 7.16797 10.1123 7.44629Q10.625 7.72461 10.9375 8.22266L10.9375 6.35742L9.13086 6.35742Q8.98438 6.35742 8.91113 6.27441Q8.83789 6.19141 8.83789 6.05469Q8.83789 5.92773 8.91113 5.84473Q8.98438 5.76172 9.13086 5.76172L10.9375 5.76172L10.9375 5.13672Q10.9375 4.9707 11.0254 4.8877Q11.1133 4.80469 11.2695 4.80469Q11.416 4.80469 11.5088 4.8877Q11.6016 4.9707 11.6016 5.13672L11.6016 5.76172L12.3145 5.76172Q12.4609 5.76172 12.5391 5.84473Q12.6172 5.92773 12.6172 6.05469Q12.6172 6.19141 12.5342 6.27441Q12.4512 6.35742 12.3145 6.35742L11.6016 6.35742L11.6016 12.334Q11.6016 12.4805 11.5186 12.5684Q11.4355 12.6562 11.2891 12.6562Q11.1328 12.6562 11.0498 12.5684Q10.9668 12.4805 10.9668 12.334L10.9668 11.5625Q10.3027 12.6367 8.99414 12.6367Q8.31055 12.6367 7.74902 12.2998Q7.1875 11.9629 6.86035 11.3477Q6.5332 10.7324 6.5332 9.90234ZM7.19727 9.90234Q7.19727 10.8496 7.73438 11.4258Q8.27148 12.002 9.04297 12.002Q9.83398 12.002 10.3662 11.3965Q10.8984 10.791 10.8984 9.90234Q10.8984 9.01367 10.3662 8.41309Q9.83398 7.8125 9.04297 7.8125Q8.27148 7.8125 7.73438 8.38379Q7.19727 8.95508 7.19727 9.90234ZM6.86523 13.5547Q6.86523 13.418 6.94336 13.335Q7.02148 13.252 7.1582 13.252L11.5918 13.252Q11.7285 13.252 11.8115 13.335Q11.8945 13.418 11.8945 13.5547Q11.8945 13.6816 11.8115 13.7646Q11.7285 13.8477 11.5918 13.8477L7.1582 13.8477Q7.03125 13.8477 6.94824 13.7646Q6.86523 13.6816 6.86523 13.5547Z" fill="#ffffff"/>
 </g>
</svg>
