<?xml version="1.0" encoding="UTF-8"?>
<!--Generator: Apple Native CoreSVG 175.5-->
<!DOCTYPE svg
PUBLIC "-//W3C//DTD SVG 1.1//EN"
       "http://www.w3.org/Graphics/SVG/1.1/DTD/svg11.dtd">
<svg version="1.1" xmlns="http://www.w3.org/2000/svg" xmlns:xlink="http://www.w3.org/1999/xlink" width="14.8828" height="20.7324">
 <g>
  <rect height="20.7324" opacity="0" width="14.8828" x="0" y="0"/>
  <path d="M14.1016 20.7227Q14.4238 20.7227 14.6533 20.4932Q14.8828 20.2637 14.8828 19.9414L14.8828 1.99219Q14.8828 1.09375 14.3213 0.546875Q13.7598 0 12.8418 0L2.04102 0Q1.12305 0 0.561523 0.546875Q0 1.09375 0 1.99219L0 19.9414Q0 20.2637 0.229492 20.4932Q0.458984 20.7227 0.78125 20.7227Q1.11328 20.7227 1.34277 20.4932Q1.57227 20.2637 1.57227 19.9414L1.57227 2.08984Q1.57227 1.57227 2.07031 1.57227L12.8125 1.57227Q13.3105 1.57227 13.3105 2.08984L13.3105 19.9414Q13.3105 20.2637 13.54 20.4932Q13.7695 20.7227 14.1016 20.7227Z" fill="#007aff"/>
  <path d="M11.8457 20.3809Q12.168 20.3809 12.168 20.0488L12.168 3.03711Q12.168 2.70508 11.8457 2.70508L3.04688 2.70508Q2.71484 2.70508 2.71484 3.03711L2.71484 20.0488Q2.71484 20.3809 3.04688 20.3809ZM5.03906 12.5293Q4.7168 12.5293 4.4873 12.2998Q4.25781 12.0703 4.25781 11.748Q4.25781 11.416 4.4873 11.1914Q4.7168 10.9668 5.03906 10.9668Q5.36133 10.9668 5.59082 11.1914Q5.82031 11.416 5.82031 11.748Q5.82031 12.0703 5.59082 12.2998Q5.36133 12.5293 5.03906 12.5293Z" fill="#ffffff"/>
 </g>
</svg>
