<?xml version="1.0" encoding="UTF-8"?>
<!--Generator: Apple Native CoreSVG 175.5-->
<!DOCTYPE svg
PUBLIC "-//W3C//DTD SVG 1.1//EN"
       "http://www.w3.org/Graphics/SVG/1.1/DTD/svg11.dtd">
<svg version="1.1" xmlns="http://www.w3.org/2000/svg" xmlns:xlink="http://www.w3.org/1999/xlink" width="14.8828" height="20.7324">
 <g>
  <rect height="20.7324" opacity="0" width="14.8828" x="0" y="0"/>
  <path d="M0 19.9414Q0 20.2637 0.229492 20.4932Q0.458984 20.7227 0.78125 20.7227Q1.11328 20.7227 1.34277 20.4932Q1.57227 20.2637 1.57227 19.9414L1.57227 2.08984Q1.57227 1.57227 2.07031 1.57227L12.8125 1.57227Q13.3105 1.57227 13.3105 2.08984L13.3105 19.9414Q13.3105 20.2637 13.54 20.4932Q13.7695 20.7227 14.1016 20.7227Q14.4238 20.7227 14.6533 20.4932Q14.8828 20.2637 14.8828 19.9414L14.8828 1.99219Q14.8828 1.09375 14.3213 0.546875Q13.7598 0 12.8418 0L2.04102 0Q1.12305 0 0.561523 0.546875Q0 1.09375 0 1.99219Z" fill="#007aff"/>
  <path d="M2.71484 20.166Q2.71484 20.3027 2.81738 20.3662Q2.91992 20.4297 3.05664 20.3711L6.12305 19.0137Q6.30859 18.9355 6.38672 18.8477Q6.46484 18.7598 6.46484 18.5742L6.46484 4.50195Q6.46484 4.31641 6.38672 4.2334Q6.30859 4.15039 6.13281 4.07227L3.05664 2.70508Q2.91992 2.64648 2.81738 2.70996Q2.71484 2.77344 2.71484 2.91992Z" fill="#ffffff"/>
 </g>
</svg>
