<?xml version="1.0" encoding="UTF-8"?>
<!--Generator: Apple Native CoreSVG 175.5-->
<!DOCTYPE svg
PUBLIC "-//W3C//DTD SVG 1.1//EN"
       "http://www.w3.org/Graphics/SVG/1.1/DTD/svg11.dtd">
<svg version="1.1" xmlns="http://www.w3.org/2000/svg" xmlns:xlink="http://www.w3.org/1999/xlink" width="28.5352" height="20.7324">
 <g>
  <rect height="20.7324" opacity="0" width="28.5352" x="0" y="0"/>
  <path d="M0.78125 20.7227Q1.11328 20.7227 1.34277 20.4932Q1.57227 20.2637 1.57227 19.9414L1.57227 2.08984Q1.57227 1.57227 2.07031 1.57227L26.4648 1.57227Q26.9629 1.57227 26.9629 2.08984L26.9629 19.9414Q26.9629 20.2637 27.1924 20.4932Q27.4219 20.7227 27.7539 20.7227Q28.0762 20.7227 28.3057 20.4932Q28.5352 20.2637 28.5352 19.9414L28.5352 1.99219Q28.5352 1.09375 27.9736 0.546875Q27.4121 0 26.4941 0L2.04102 0Q1.12305 0 0.561523 0.546875Q0 1.09375 0 1.99219L0 19.9414Q0 20.2637 0.229492 20.4932Q0.458984 20.7227 0.78125 20.7227Z" fill="#007aff"/>
  <path d="M3.04688 6.85547L25.498 6.85547Q25.8203 6.85547 25.8203 6.5332L25.8203 3.03711Q25.8203 2.70508 25.498 2.70508L3.04688 2.70508Q2.71484 2.70508 2.71484 3.03711L2.71484 6.5332Q2.71484 6.85547 3.04688 6.85547ZM12.168 5.25391Q11.9531 5.25391 11.8213 5.12207Q11.6895 4.99023 11.6895 4.78516Q11.6895 4.57031 11.8213 4.43848Q11.9531 4.30664 12.168 4.30664L16.377 4.30664Q16.582 4.30664 16.7139 4.43848Q16.8457 4.57031 16.8457 4.78516Q16.8457 4.99023 16.7139 5.12207Q16.582 5.25391 16.377 5.25391Z" fill="#ffffff"/>
 </g>
</svg>
