<?xml version="1.0" encoding="UTF-8"?>
<!--Generator: Apple Native CoreSVG 175.5-->
<!DOCTYPE svg
PUBLIC "-//W3C//DTD SVG 1.1//EN"
       "http://www.w3.org/Graphics/SVG/1.1/DTD/svg11.dtd">
<svg version="1.1" xmlns="http://www.w3.org/2000/svg" xmlns:xlink="http://www.w3.org/1999/xlink" width="23.877" height="20.7324">
 <g>
  <rect height="20.7324" opacity="0" width="23.877" x="0" y="0"/>
  <path d="M0.78125 20.7227Q1.11328 20.7227 1.34277 20.4932Q1.57227 20.2637 1.57227 19.9414L1.57227 2.08984Q1.57227 1.57227 2.07031 1.57227L21.8066 1.57227Q22.3047 1.57227 22.3047 2.08984L22.3047 19.9414Q22.3047 20.2637 22.5342 20.4932Q22.7637 20.7227 23.0859 20.7227Q23.418 20.7227 23.6475 20.4932Q23.877 20.2637 23.877 19.9414L23.877 1.99219Q23.877 1.09375 23.3154 0.546875Q22.7539 0 21.8262 0L2.04102 0Q1.12305 0 0.561523 0.546875Q0 1.09375 0 1.99219L0 19.9414Q0 20.2637 0.229492 20.4932Q0.458984 20.7227 0.78125 20.7227Z" fill="#007aff"/>
  <path d="M3.04688 20.3809L20.8301 20.3809Q21.1621 20.3809 21.1621 20.0488L21.1621 3.03711Q21.1621 2.70508 20.8301 2.70508L3.04688 2.70508Q2.71484 2.70508 2.71484 3.03711L2.71484 20.0488Q2.71484 20.3809 3.04688 20.3809ZM10.0293 18.7305Q9.81445 18.7305 9.6875 18.5986Q9.56055 18.4668 9.56055 18.2617Q9.56055 18.0469 9.6875 17.915Q9.81445 17.7832 10.0293 17.7832L13.8477 17.7832Q14.0527 17.7832 14.1846 17.915Q14.3164 18.0469 14.3164 18.2617Q14.3164 18.4668 14.1846 18.5986Q14.0527 18.7305 13.8477 18.7305ZM4.38477 8.08594Q4.04297 8.08594 4.04297 7.74414L4.04297 4.28711Q4.04297 3.93555 4.38477 3.93555L8.16406 3.93555Q8.50586 3.93555 8.50586 4.28711L8.50586 7.74414Q8.50586 8.08594 8.16406 8.08594ZM10.0684 8.08594Q9.72656 8.08594 9.72656 7.74414L9.72656 4.28711Q9.72656 3.93555 10.0684 3.93555L13.8379 3.93555Q14.1895 3.93555 14.1895 4.28711L14.1895 7.74414Q14.1895 8.08594 13.8379 8.08594ZM15.7422 8.08594Q15.3906 8.08594 15.3906 7.74414L15.3906 4.28711Q15.3906 3.93555 15.7422 3.93555L19.4922 3.93555Q19.834 3.93555 19.834 4.28711L19.834 7.74414Q19.834 7.89062 19.7461 7.98828Q19.6582 8.08594 19.5703 8.08594Z" fill="#ffffff"/>
 </g>
</svg>
