<?xml version="1.0" encoding="UTF-8"?>
<!--Generator: Apple Native CoreSVG 175.5-->
<!DOCTYPE svg
PUBLIC "-//W3C//DTD SVG 1.1//EN"
       "http://www.w3.org/Graphics/SVG/1.1/DTD/svg11.dtd">
<svg version="1.1" xmlns="http://www.w3.org/2000/svg" xmlns:xlink="http://www.w3.org/1999/xlink" width="25.4395" height="17.53">
 <g>
  <rect height="17.53" opacity="0" width="25.4395" x="0" y="0"/>
  <path d="M10.9375 8.7894Q10.9375 9.26791 11.1865 9.66342Q11.4355 10.0589 11.8408 10.2982Q12.2461 10.5374 12.7344 10.5374Q13.2129 10.5374 13.6133 10.2982Q14.0137 10.0589 14.2529 9.65366Q14.4922 9.24838 14.4922 8.76987Q14.4922 8.03745 13.9795 7.51499Q13.4668 6.99252 12.7344 6.99252Q12.2363 6.99252 11.8311 7.23666Q11.4258 7.48081 11.1816 7.89096Q10.9375 8.30112 10.9375 8.7894Z" fill="#ffffff"/>
  <path d="M6.98242 8.76987Q6.98242 9.7562 7.30469 10.6546Q7.62695 11.5531 8.21289 12.2757Q8.44727 12.5882 8.79395 12.598Q9.14062 12.6078 9.36523 12.3539Q9.58008 12.1097 9.52148 11.8216Q9.46289 11.5335 9.24805 11.2308Q8.84766 10.7328 8.64746 10.1029Q8.44727 9.47299 8.44727 8.76987Q8.44727 8.06674 8.64746 7.43686Q8.84766 6.80698 9.24805 6.29916Q9.46289 6.0062 9.52148 5.71811Q9.58008 5.43002 9.36523 5.18588Q9.14062 4.93198 8.79395 4.94174Q8.44727 4.95151 8.21289 5.25424Q7.62695 5.98666 7.30469 6.8851Q6.98242 7.78354 6.98242 8.76987ZM18.457 8.76987Q18.457 7.78354 18.1348 6.8851Q17.8125 5.98666 17.2266 5.25424Q16.9824 4.95151 16.6406 4.94174Q16.2988 4.93198 16.0742 5.18588Q15.8496 5.43002 15.9131 5.71811Q15.9766 6.0062 16.1914 6.29916Q16.582 6.80698 16.7871 7.43686Q16.9922 8.06674 16.9922 8.76987Q16.9922 9.47299 16.7871 10.1029Q16.582 10.7328 16.1914 11.2308Q15.9766 11.5335 15.9131 11.8216Q15.8496 12.1097 16.0742 12.3539Q16.2988 12.6078 16.6406 12.598Q16.9824 12.5882 17.2266 12.2757Q17.8125 11.5531 18.1348 10.6546Q18.457 9.7562 18.457 8.76987Z" fill="#007aff"/>
  <path d="M3.49609 8.76987Q3.49609 10.5081 4.09668 12.0755Q4.69727 13.6429 5.82031 14.8539Q6.07422 15.1468 6.40625 15.1517Q6.73828 15.1566 6.95312 14.9027Q7.16797 14.6585 7.12402 14.3656Q7.08008 14.0726 6.82617 13.7992Q5.91797 12.7835 5.43457 11.4945Q4.95117 10.2054 4.95117 8.76987Q4.95117 7.33432 5.43457 6.04526Q5.91797 4.7562 6.82617 3.74057Q7.08008 3.46713 7.12402 3.17416Q7.16797 2.8812 6.95312 2.62729Q6.73828 2.38315 6.40625 2.38803Q6.07422 2.39291 5.82031 2.67612Q4.69727 3.88706 4.09668 5.45932Q3.49609 7.03159 3.49609 8.76987ZM21.9434 8.76987Q21.9434 7.03159 21.3428 5.45932Q20.7422 3.88706 19.6191 2.67612Q19.3555 2.39291 19.0283 2.38803Q18.7012 2.38315 18.4863 2.62729Q18.2715 2.8812 18.3154 3.17416Q18.3594 3.46713 18.6035 3.74057Q19.5215 4.7562 20.0049 6.04526Q20.4883 7.33432 20.4883 8.76987Q20.4883 10.2054 20.0049 11.4945Q19.5215 12.7835 18.6035 13.7992Q18.3594 14.0726 18.3154 14.3656Q18.2715 14.6585 18.4863 14.9027Q18.7012 15.1566 19.0283 15.1517Q19.3555 15.1468 19.6191 14.8539Q20.7422 13.6429 21.3428 12.0755Q21.9434 10.5081 21.9434 8.76987Z" fill="#007aff"/>
  <path d="M0 8.76987Q0 11.221 0.878906 13.4085Q1.75781 15.596 3.35938 17.266Q3.62305 17.5394 3.94043 17.5296Q4.25781 17.5199 4.46289 17.2855Q4.67773 17.0609 4.63867 16.7581Q4.59961 16.4554 4.35547 16.1917Q2.94922 14.7269 2.20703 12.8177Q1.46484 10.9085 1.46484 8.76987Q1.46484 6.6312 2.20703 4.72202Q2.94922 2.81284 4.35547 1.34799Q4.59961 1.08432 4.63867 0.781587Q4.67773 0.478852 4.46289 0.244477Q4.25781 0.019868 3.94043 0.00521956Q3.62305-0.00942888 3.35938 0.273774Q1.75781 1.9437 0.878906 4.12631Q0 6.30893 0 8.76987ZM25.4395 8.76987Q25.4395 6.30893 24.5557 4.12631Q23.6719 1.9437 22.0801 0.273774Q21.8164-0.00942888 21.499 0.00521956Q21.1816 0.019868 20.9766 0.244477Q20.7617 0.478852 20.8008 0.781587Q20.8398 1.08432 21.084 1.34799Q22.4902 2.81284 23.2324 4.72202Q23.9746 6.6312 23.9746 8.76987Q23.9746 10.9085 23.2324 12.8177Q22.4902 14.7269 21.084 16.1917Q20.8398 16.4554 20.8008 16.7581Q20.7617 17.0609 20.9766 17.2855Q21.1816 17.5199 21.499 17.5296Q21.8164 17.5394 22.0801 17.266Q23.6719 15.596 24.5557 13.4085Q25.4395 11.221 25.4395 8.76987Z" fill="#007aff"/>
 </g>
</svg>
