<?xml version="1.0" encoding="UTF-8"?>
<!--Generator: Apple Native CoreSVG 175.5-->
<!DOCTYPE svg
PUBLIC "-//W3C//DTD SVG 1.1//EN"
       "http://www.w3.org/Graphics/SVG/1.1/DTD/svg11.dtd">
<svg version="1.1" xmlns="http://www.w3.org/2000/svg" xmlns:xlink="http://www.w3.org/1999/xlink" width="17.9785" height="17.998">
 <g>
  <rect height="17.998" opacity="0" width="17.9785" x="0" y="0"/>
  <path d="M0 17.2168Q0 17.5684 0.214844 17.7832Q0.429688 17.998 0.78125 17.998L17.207 17.998Q17.5586 17.998 17.7686 17.7832Q17.9785 17.5684 17.9785 17.2168L17.9785 0.791016Q17.9785 0.439453 17.7686 0.229492Q17.5586 0.0195312 17.207 0.0195312L0.78125 0.0195312Q0.429688 0.0195312 0.214844 0.229492Q0 0.439453 0 0.791016ZM1.57227 16.1426L1.57227 1.875Q1.57227 1.5918 1.85547 1.5918L16.123 1.5918Q16.4062 1.5918 16.4062 1.875L16.4062 16.1426Q16.4062 16.4258 16.123 16.4258L1.85547 16.4258Q1.57227 16.4258 1.57227 16.1426Z" fill="#007aff"/>
  <path d="M9.01367 12.002Q9.83398 12.002 10.5176 11.5967Q11.2012 11.1914 11.6064 10.5078Q12.0117 9.82422 12.0117 8.99414Q12.0117 8.17383 11.6064 7.49512Q11.2012 6.81641 10.5176 6.41113Q9.83398 6.00586 9.01367 6.00586Q8.19336 6.00586 7.50977 6.41113Q6.82617 6.81641 6.41602 7.49512Q6.00586 8.17383 6.00586 8.99414Q6.00586 9.82422 6.41602 10.5078Q6.82617 11.1914 7.50977 11.5967Q8.19336 12.002 9.01367 12.002Z" fill="#ffffff"/>
 </g>
</svg>
