<?xml version="1.0" encoding="UTF-8"?>
<!--Generator: Apple Native CoreSVG 175-->
<!DOCTYPE svg
PUBLIC "-//W3C//DTD SVG 1.1//EN"
       "http://www.w3.org/Graphics/SVG/1.1/DTD/svg11.dtd">
<svg version="1.1" xmlns="http://www.w3.org/2000/svg" xmlns:xlink="http://www.w3.org/1999/xlink" width="19.1602" height="19.1504">
 <g>
  <rect height="19.1504" opacity="0" width="19.1602" x="0" y="0"/>
  <path d="M9.57031 19.1406Q11.5527 19.1406 13.2861 18.3984Q15.0195 17.6562 16.3379 16.333Q17.6562 15.0098 18.4082 13.2764Q19.1602 11.543 19.1602 9.57031Q19.1602 7.59766 18.4082 5.86426Q17.6562 4.13086 16.3379 2.80762Q15.0195 1.48438 13.2861 0.742188Q11.5527 0 9.57031 0Q7.59766 0 5.86426 0.742188Q4.13086 1.48438 2.81738 2.80762Q1.50391 4.13086 0.751953 5.86426Q0 7.59766 0 9.57031Q0 11.543 0.74707 13.2764Q1.49414 15.0098 2.8125 16.333Q4.13086 17.6562 5.86914 18.3984Q7.60742 19.1406 9.57031 19.1406ZM9.57031 18.3984Q7.74414 18.3984 6.14746 17.71Q4.55078 17.0215 3.33496 15.8105Q2.11914 14.5996 1.43555 12.998Q0.751953 11.3965 0.751953 9.57031Q0.751953 7.74414 1.43555 6.14258Q2.11914 4.54102 3.33496 3.3252Q4.55078 2.10938 6.14746 1.4209Q7.74414 0.732422 9.57031 0.732422Q11.4062 0.732422 13.0029 1.4209Q14.5996 2.10938 15.8154 3.3252Q17.0312 4.54102 17.7197 6.14258Q18.4082 7.74414 18.4082 9.57031Q18.4082 11.3965 17.7246 12.998Q17.041 14.5996 15.8252 15.8105Q14.6094 17.0215 13.0078 17.71Q11.4062 18.3984 9.57031 18.3984Z" fill="#007aff"/>
  <path d="M9.56055 13.4375Q10.625 13.4375 11.5088 12.915Q12.3926 12.3926 12.9199 11.5088Q13.4473 10.625 13.4473 9.57031Q13.4473 8.51562 12.9199 7.63184Q12.3926 6.74805 11.5088 6.2207Q10.625 5.69336 9.56055 5.69336Q8.51562 5.69336 7.63672 6.2207Q6.75781 6.74805 6.23047 7.63184Q5.70312 8.51562 5.70312 9.57031Q5.70312 10.625 6.23047 11.5088Q6.75781 12.3926 7.63672 12.915Q8.51562 13.4375 9.56055 13.4375ZM11.2598 3.89648L9.98047 2.22656Q9.83398 2.01172 9.58008 2.01172Q9.32617 2.01172 9.16992 2.22656L7.89062 3.89648Q7.70508 4.15039 7.8125 4.41406Q7.91992 4.67773 8.23242 4.67773L10.9082 4.67773Q11.2207 4.67773 11.333 4.40918Q11.4453 4.14062 11.2598 3.89648ZM15.2539 11.25L16.9238 9.98047Q17.1289 9.83398 17.1289 9.5752Q17.1289 9.31641 16.9238 9.16992L15.2539 7.88086Q15 7.70508 14.7314 7.80762Q14.4629 7.91016 14.4629 8.22266L14.4629 10.9082Q14.4629 11.2207 14.7314 11.333Q15 11.4453 15.2539 11.25ZM11.2598 15.2441Q11.4453 15 11.333 14.7314Q11.2207 14.4629 10.9082 14.4629L8.23242 14.4629Q7.91992 14.4629 7.8125 14.7266Q7.70508 14.9902 7.89062 15.2441L9.16992 16.9141Q9.32617 17.1289 9.58008 17.1289Q9.83398 17.1289 9.98047 16.9141ZM3.90625 11.25Q4.15039 11.4453 4.41895 11.333Q4.6875 11.2207 4.6875 10.9082L4.6875 8.22266Q4.6875 7.91016 4.42383 7.80762Q4.16016 7.70508 3.90625 7.88086L2.22656 9.16992Q2.02148 9.31641 2.02148 9.5752Q2.02148 9.83398 2.22656 9.98047Z" fill="#ffffff"/>
 </g>
</svg>
