<?xml version="1.0" encoding="UTF-8"?>
<!--Generator: Apple Native CoreSVG 175.5-->
<!DOCTYPE svg
PUBLIC "-//W3C//DTD SVG 1.1//EN"
       "http://www.w3.org/Graphics/SVG/1.1/DTD/svg11.dtd">
<svg version="1.1" xmlns="http://www.w3.org/2000/svg" xmlns:xlink="http://www.w3.org/1999/xlink" width="17.8223" height="24.6387">
 <g>
  <rect height="24.6387" opacity="0" width="17.8223" x="0" y="0"/>
  <path d="M4.53125 6.49414L5.70312 7.66602Q6.21094 6.83594 6.73828 6.02539Q7.26562 5.21484 7.79297 4.42383Q7.8418 4.3457 7.89551 4.3457Q7.94922 4.3457 7.99805 4.42383Q9.01367 5.9668 10.0439 7.59766Q11.0742 9.22852 11.8848 11.1523Q12.1094 11.6699 12.3633 12.3193Q12.6172 12.9688 12.7881 13.5645Q12.959 14.1602 12.959 14.5312Q12.959 14.6387 12.9541 14.7168Q12.9492 14.7949 12.9297 14.8828L14.5801 16.5332Q14.6191 16.3086 14.6387 16.0742Q14.6582 15.8398 14.6582 15.5859Q14.6582 14.6094 14.4434 13.6621Q14.2285 12.7148 13.916 11.875Q13.6035 11.0352 13.3203 10.3906Q12.5391 8.62305 11.4111 6.75781Q10.2832 4.89258 9.20898 3.24219Q8.94531 2.85156 8.63281 2.63672Q8.32031 2.42188 7.89062 2.42188Q7.45117 2.42188 7.13867 2.63672Q6.82617 2.85156 6.57227 3.24219Q6.06445 4.01367 5.55176 4.83887Q5.03906 5.66406 4.53125 6.49414ZM7.89062 22.1973Q9.47266 22.1973 10.7568 21.6797Q12.041 21.1621 12.9297 20.2344L11.7676 19.082Q11.0938 19.8047 10.1025 20.2002Q9.11133 20.5957 7.89062 20.5957Q6.33789 20.5957 5.17578 19.9707Q4.01367 19.3457 3.36426 18.2178Q2.71484 17.0898 2.71484 15.5859Q2.71484 14.4141 3.08105 13.2959Q3.44727 12.1777 3.86719 11.1914L2.64648 9.9707Q2.08008 11.2598 1.60156 12.6904Q1.12305 14.1211 1.12305 15.5859Q1.12305 17.5684 1.96777 19.0576Q2.8125 20.5469 4.33594 21.3721Q5.85938 22.1973 7.89062 22.1973ZM14.834 5.9668Q15.6738 5.9668 16.3525 5.57129Q17.0312 5.17578 17.4268 4.49707Q17.8223 3.81836 17.8223 2.98828Q17.8223 2.14844 17.4268 1.46973Q17.0312 0.791016 16.3525 0.395508Q15.6738 0 14.834 0Q14.0039 0 13.3252 0.395508Q12.6465 0.791016 12.251 1.46973Q11.8555 2.14844 11.8555 2.98828Q11.8555 3.81836 12.251 4.49707Q12.6465 5.17578 13.3252 5.57129Q14.0039 5.9668 14.834 5.9668ZM14.834 4.58984Q14.1602 4.58984 13.6963 4.12598Q13.2324 3.66211 13.2324 2.98828Q13.2324 2.30469 13.6963 1.84082Q14.1602 1.37695 14.834 1.37695Q15.5176 1.37695 15.9814 1.84082Q16.4453 2.30469 16.4453 2.98828Q16.4453 3.66211 15.9814 4.12598Q15.5176 4.58984 14.834 4.58984Z" fill="#007aff"/>
  <path d="M15.7617 21.4648Q15.9863 21.6797 16.2988 21.6797Q16.6113 21.6797 16.8262 21.4648Q17.0508 21.2402 17.0508 20.9277Q17.0508 20.6152 16.8262 20.4004L1.28906 4.86328Q1.07422 4.64844 0.756836 4.64844Q0.439453 4.64844 0.214844 4.86328Q0 5.07812 0 5.39551Q0 5.71289 0.214844 5.92773Z" fill="#ffffff"/>
 </g>
</svg>
