<?xml version="1.0" encoding="UTF-8"?>
<!--Generator: Apple Native CoreSVG 175.5-->
<!DOCTYPE svg
PUBLIC "-//W3C//DTD SVG 1.1//EN"
       "http://www.w3.org/Graphics/SVG/1.1/DTD/svg11.dtd">
<svg version="1.1" xmlns="http://www.w3.org/2000/svg" xmlns:xlink="http://www.w3.org/1999/xlink" width="17.9785" height="17.998">
 <g>
  <rect height="17.998" opacity="0" width="17.9785" x="0" y="0"/>
  <path d="M3.06641 17.998L14.9121 17.998Q16.4453 17.998 17.2119 17.2412Q17.9785 16.4844 17.9785 14.9707L17.9785 3.04688Q17.9785 1.5332 17.2119 0.776367Q16.4453 0.0195312 14.9121 0.0195312L3.06641 0.0195312Q1.5332 0.0195312 0.766602 0.776367Q0 1.5332 0 3.04688L0 14.9707Q0 16.4844 0.766602 17.2412Q1.5332 17.998 3.06641 17.998Z" fill="#007aff"/>
  <path d="M6.67969 13.4863Q6.28906 13.4863 6.08887 13.2373Q5.88867 12.9883 5.88867 12.5781L5.88867 5.22461Q5.88867 4.81445 6.08887 4.56543Q6.28906 4.31641 6.67969 4.31641L11.4453 4.31641Q11.7383 4.31641 11.9287 4.4873Q12.1191 4.6582 12.1191 4.9707Q12.1191 5.27344 11.9287 5.4541Q11.7383 5.63477 11.4453 5.63477L7.5 5.63477L7.5 8.20312L11.1816 8.20312Q11.4746 8.20312 11.665 8.36426Q11.8555 8.52539 11.8555 8.84766Q11.8555 9.14062 11.665 9.30176Q11.4746 9.46289 11.1816 9.46289L7.5 9.46289L7.5 12.168L11.4453 12.168Q11.7383 12.168 11.9287 12.3438Q12.1191 12.5195 12.1191 12.832Q12.1191 13.1348 11.9287 13.3105Q11.7383 13.4863 11.4453 13.4863Z" fill="#ffffff"/>
 </g>
</svg>
