<?xml version="1.0" encoding="UTF-8"?>
<!--Generator: Apple Native CoreSVG 175.5-->
<!DOCTYPE svg
PUBLIC "-//W3C//DTD SVG 1.1//EN"
       "http://www.w3.org/Graphics/SVG/1.1/DTD/svg11.dtd">
<svg version="1.1" xmlns="http://www.w3.org/2000/svg" xmlns:xlink="http://www.w3.org/1999/xlink" width="17.9785" height="17.998">
 <g>
  <rect height="17.998" opacity="0" width="17.9785" x="0" y="0"/>
  <path d="M3.06641 17.998L14.9121 17.998Q16.4453 17.998 17.2119 17.2412Q17.9785 16.4844 17.9785 14.9707L17.9785 3.04688Q17.9785 1.5332 17.2119 0.776367Q16.4453 0.0195312 14.9121 0.0195312L3.06641 0.0195312Q1.5332 0.0195312 0.766602 0.776367Q0 1.5332 0 3.04688L0 14.9707Q0 16.4844 0.766602 17.2412Q1.5332 17.998 3.06641 17.998ZM3.08594 16.4258Q2.35352 16.4258 1.96289 16.04Q1.57227 15.6543 1.57227 14.8926L1.57227 3.125Q1.57227 2.36328 1.96289 1.97754Q2.35352 1.5918 3.08594 1.5918L14.8926 1.5918Q15.6152 1.5918 16.0107 1.97754Q16.4062 2.36328 16.4062 3.125L16.4062 14.8926Q16.4062 15.6543 16.0107 16.04Q15.6152 16.4258 14.8926 16.4258Z" fill="#007aff"/>
  <path d="M6.74805 13.3496L11.3672 13.3496Q11.6504 13.3496 11.8359 13.1787Q12.0215 13.0078 12.0215 12.7148Q12.0215 12.4121 11.8359 12.2412Q11.6504 12.0703 11.3672 12.0703L7.53906 12.0703L7.53906 9.44336L11.1133 9.44336Q11.3965 9.44336 11.582 9.28711Q11.7676 9.13086 11.7676 8.84766Q11.7676 8.54492 11.582 8.38379Q11.3965 8.22266 11.1133 8.22266L7.53906 8.22266L7.53906 5.73242L11.3672 5.73242Q11.6504 5.73242 11.8359 5.55664Q12.0215 5.38086 12.0215 5.08789Q12.0215 4.79492 11.8359 4.62402Q11.6504 4.45312 11.3672 4.45312L6.74805 4.45312Q6.37695 4.45312 6.18164 4.69727Q5.98633 4.94141 5.98633 5.33203L5.98633 12.4707Q5.98633 12.8711 6.18164 13.1104Q6.37695 13.3496 6.74805 13.3496Z" fill="#ffffff"/>
 </g>
</svg>
