<?xml version="1.0" encoding="UTF-8"?>
<!--Generator: Apple Native CoreSVG 175.5-->
<!DOCTYPE svg
PUBLIC "-//W3C//DTD SVG 1.1//EN"
       "http://www.w3.org/Graphics/SVG/1.1/DTD/svg11.dtd">
<svg version="1.1" xmlns="http://www.w3.org/2000/svg" xmlns:xlink="http://www.w3.org/1999/xlink" width="15" height="22.7051">
 <g>
  <rect height="22.7051" opacity="0" width="15" x="0" y="0"/>
  <path d="M0 16.4062Q0 17.7539 0.532227 18.7451Q1.06445 19.7363 2.03125 20.2783Q2.99805 20.8203 4.30664 20.8203Q5.78125 20.8203 6.875 20.1807Q7.96875 19.541 8.66211 18.3008L9.54102 16.7285Q10.0488 15.7812 10.6494 15.0732Q11.25 14.3652 11.8652 13.7695Q12.4805 13.1738 13.042 12.583Q13.6035 11.9922 14.043 11.3086Q14.4824 10.625 14.7412 9.73145Q15 8.83789 15 7.62695Q15 5.3418 14.0771 3.62793Q13.1543 1.91406 11.4893 0.957031Q9.82422 0 7.60742 0Q5.33203 0 3.62305 0.961914Q1.91406 1.92383 0.957031 3.64746Q0 5.37109 0 7.66602ZM1.47461 16.3086L1.47461 7.66602Q1.47461 5.80078 2.24121 4.40918Q3.00781 3.01758 4.38965 2.24609Q5.77148 1.47461 7.60742 1.47461Q9.38477 1.47461 10.7178 2.24609Q12.0508 3.01758 12.7881 4.4043Q13.5254 5.79102 13.5254 7.62695Q13.5254 8.64258 13.2861 9.40918Q13.0469 10.1758 12.627 10.8008Q12.207 11.4258 11.6699 11.9873Q11.1328 12.5488 10.542 13.1396Q9.95117 13.7305 9.35547 14.4385Q8.75977 15.1465 8.22266 16.0645L7.37305 17.5195Q6.85547 18.4277 6.11816 18.8672Q5.38086 19.3066 4.375 19.3066Q3.02734 19.3066 2.25098 18.5059Q1.47461 17.7051 1.47461 16.3086ZM3.55469 12.6367Q3.85742 12.6367 4.07715 12.417Q4.29688 12.1973 4.29688 11.8945L4.29688 7.60742Q4.29688 6.66992 4.70703 5.97168Q5.11719 5.27344 5.85938 4.88281Q6.60156 4.49219 7.59766 4.49219Q9.01367 4.49219 9.86328 5.3418Q10.7129 6.19141 10.7129 7.60742Q10.7129 7.91016 10.9326 8.12988Q11.1523 8.34961 11.4453 8.34961Q11.748 8.34961 11.9678 8.12988Q12.1875 7.91016 12.1875 7.60742Q12.1875 6.23047 11.6113 5.2002Q11.0352 4.16992 10.0049 3.59375Q8.97461 3.01758 7.59766 3.01758Q6.17188 3.01758 5.09277 3.59375Q4.01367 4.16992 3.41797 5.20508Q2.82227 6.24023 2.82227 7.60742L2.82227 11.8945Q2.82227 12.1973 3.03711 12.417Q3.25195 12.6367 3.55469 12.6367ZM3.47656 9.73633L6.77734 9.73633Q7.27539 9.73633 7.56836 10.0098Q7.86133 10.2832 7.86133 10.7227Q7.86133 10.9473 7.75391 11.2256Q7.64648 11.5039 7.4707 11.7188L6.29883 13.1934Q6.10352 13.4375 6.10352 13.7207Q6.10352 14.0234 6.32324 14.2383Q6.54297 14.4531 6.8457 14.4531Q7.19727 14.4531 7.45117 14.1309L8.7207 12.5195Q9.02344 12.1387 9.2041 11.626Q9.38477 11.1133 9.38477 10.6641Q9.38477 9.58984 8.66211 8.92578Q7.93945 8.26172 6.75781 8.26172L3.47656 8.26172Z" fill="#ffffff"/>
 </g>
</svg>
