<?xml version="1.0" encoding="UTF-8"?>
<!--Generator: Apple Native CoreSVG 175-->
<!DOCTYPE svg
PUBLIC "-//W3C//DTD SVG 1.1//EN"
       "http://www.w3.org/Graphics/SVG/1.1/DTD/svg11.dtd">
<svg version="1.1" xmlns="http://www.w3.org/2000/svg" xmlns:xlink="http://www.w3.org/1999/xlink" width="19.1602" height="19.1504">
 <g>
  <rect height="19.1504" opacity="0" width="19.1602" x="0" y="0"/>
  <path d="M9.57031 19.1406Q11.5527 19.1406 13.2861 18.3984Q15.0195 17.6562 16.3379 16.333Q17.6562 15.0098 18.4082 13.2764Q19.1602 11.543 19.1602 9.57031Q19.1602 7.59766 18.4082 5.86426Q17.6562 4.13086 16.3379 2.80762Q15.0195 1.48438 13.2861 0.742188Q11.5527 0 9.57031 0Q7.59766 0 5.86426 0.742188Q4.13086 1.48438 2.81738 2.80762Q1.50391 4.13086 0.751953 5.86426Q0 7.59766 0 9.57031Q0 11.543 0.74707 13.2764Q1.49414 15.0098 2.8125 16.333Q4.13086 17.6562 5.86914 18.3984Q7.60742 19.1406 9.57031 19.1406ZM9.57031 18.3984Q7.74414 18.3984 6.14746 17.71Q4.55078 17.0215 3.33496 15.8105Q2.11914 14.5996 1.43555 12.998Q0.751953 11.3965 0.751953 9.57031Q0.751953 7.74414 1.43555 6.14258Q2.11914 4.54102 3.33496 3.3252Q4.55078 2.10938 6.14746 1.4209Q7.74414 0.732422 9.57031 0.732422Q11.4062 0.732422 13.0029 1.4209Q14.5996 2.10938 15.8154 3.3252Q17.0312 4.54102 17.7197 6.14258Q18.4082 7.74414 18.4082 9.57031Q18.4082 11.3965 17.7246 12.998Q17.041 14.5996 15.8252 15.8105Q14.6094 17.0215 13.0078 17.71Q11.4062 18.3984 9.57031 18.3984Z" fill="#007aff"/>
  <path d="M5.47852 13.5352L13.6621 13.5352Q13.9941 13.5352 14.1797 13.3398Q14.3652 13.1445 14.3652 12.8125L14.3652 12.1875Q14.3652 11.8359 14.1797 11.6406Q13.9941 11.4453 13.6621 11.4453L5.47852 11.4453Q5.14648 11.4453 4.95605 11.6406Q4.76562 11.8359 4.76562 12.1875L4.76562 12.8125Q4.76562 13.1445 4.95605 13.3398Q5.14648 13.5352 5.47852 13.5352ZM5.3125 10.1074L13.8184 10.1074Q14.0332 10.1074 14.1699 9.99023Q14.3066 9.87305 14.3066 9.67773Q14.3066 9.49219 14.1211 9.28711L10.0195 4.54102Q9.94141 4.44336 9.81934 4.38477Q9.69727 4.32617 9.57031 4.32617Q9.44336 4.32617 9.32129 4.37988Q9.19922 4.43359 9.11133 4.54102L5.01953 9.28711Q4.83398 9.48242 4.83398 9.67773Q4.84375 9.87305 4.9707 9.99023Q5.09766 10.1074 5.3125 10.1074Z" fill="#ffffff"/>
 </g>
</svg>
