<?xml version="1.0" encoding="UTF-8"?>
<!--Generator: Apple Native CoreSVG 175.5-->
<!DOCTYPE svg
PUBLIC "-//W3C//DTD SVG 1.1//EN"
       "http://www.w3.org/Graphics/SVG/1.1/DTD/svg11.dtd">
<svg version="1.1" xmlns="http://www.w3.org/2000/svg" xmlns:xlink="http://www.w3.org/1999/xlink" width="21.1523" height="13.6816">
 <g>
  <rect height="13.6816" opacity="0" width="21.1523" x="0" y="0"/>
  <path d="M0 10.8594Q0 12.2461 0.737305 12.9639Q1.47461 13.6816 2.85156 13.6816L18.291 13.6816Q19.6777 13.6816 20.415 12.9639Q21.1523 12.2461 21.1523 10.8594L21.1523 2.80273Q21.1523 1.42578 20.415 0.712891Q19.6777 0 18.291 0L2.85156 0Q1.47461 0 0.737305 0.712891Q0 1.42578 0 2.80273ZM1.57227 10.9375L1.57227 2.72461Q1.57227 1.45508 2.8418 1.45508L18.3105 1.45508Q19.5801 1.45508 19.5801 2.72461L19.5801 10.9375Q19.5801 11.543 19.248 11.875Q18.916 12.207 18.3105 12.207L2.8418 12.207Q2.23633 12.207 1.9043 11.875Q1.57227 11.543 1.57227 10.9375Z" fill="#007aff"/>
  <path d="M5.80078 8.23242Q6.38672 8.23242 6.79199 7.82227Q7.19727 7.41211 7.19727 6.83594Q7.19727 6.25977 6.79199 5.84961Q6.38672 5.43945 5.80078 5.43945Q5.22461 5.43945 4.81445 5.84961Q4.4043 6.25977 4.4043 6.83594Q4.4043 7.41211 4.81445 7.82227Q5.22461 8.23242 5.80078 8.23242Z" fill="#ffffff"/>
  <path d="M10.5859 8.23242Q11.1621 8.23242 11.5723 7.82227Q11.9824 7.41211 11.9824 6.83594Q11.9824 6.25977 11.5723 5.84961Q11.1621 5.43945 10.5859 5.43945Q10 5.43945 9.58984 5.84961Q9.17969 6.25977 9.17969 6.83594Q9.17969 7.41211 9.58984 7.82227Q10 8.23242 10.5859 8.23242Z" fill="#ffffff"/>
  <path d="M15.3613 8.23242Q15.9375 8.23242 16.3477 7.82227Q16.7578 7.41211 16.7578 6.83594Q16.7578 6.25977 16.3477 5.84961Q15.9375 5.43945 15.3613 5.43945Q14.7852 5.43945 14.375 5.84961Q13.9648 6.25977 13.9648 6.83594Q13.9648 7.41211 14.375 7.82227Q14.7852 8.23242 15.3613 8.23242Z" fill="#ffffff"/>
 </g>
</svg>
