<?xml version="1.0" encoding="UTF-8"?>
<!--Generator: Apple Native CoreSVG 175.5-->
<!DOCTYPE svg
PUBLIC "-//W3C//DTD SVG 1.1//EN"
       "http://www.w3.org/Graphics/SVG/1.1/DTD/svg11.dtd">
<svg version="1.1" xmlns="http://www.w3.org/2000/svg" xmlns:xlink="http://www.w3.org/1999/xlink" width="21.5234" height="21.4551">
 <g>
  <rect height="21.4551" opacity="0" width="21.5234" x="0" y="0"/>
  <path d="M6.00586 21.4551Q6.36719 21.4551 6.66992 21.2598Q6.97266 21.0645 7.41211 20.6738L10.7812 17.6758L17.0508 17.6758Q18.5059 17.6758 19.502 17.1533Q20.498 16.6309 21.0107 15.6348Q21.5234 14.6387 21.5234 13.2031L21.5234 5.72266Q21.5234 4.28711 21.0107 3.29102Q20.498 2.29492 19.502 1.77246Q18.5059 1.25 17.0508 1.25L4.47266 1.25Q3.01758 1.25 2.02148 1.77246Q1.02539 2.29492 0.512695 3.29102Q0 4.28711 0 5.72266L0 13.2031Q0 14.6387 0.512695 15.6348Q1.02539 16.6309 2.02148 17.1533Q3.01758 17.6758 4.47266 17.6758L4.94141 17.6758L4.94141 20.2148Q4.94141 20.7812 5.21973 21.1182Q5.49805 21.4551 6.00586 21.4551ZM6.40625 19.668L6.40625 16.8359Q6.40625 16.4355 6.24023 16.2695Q6.07422 16.1035 5.67383 16.1035L4.47266 16.1035Q2.98828 16.1035 2.28027 15.3662Q1.57227 14.6289 1.57227 13.1934L1.57227 5.72266Q1.57227 4.29688 2.28027 3.55957Q2.98828 2.82227 4.47266 2.82227L17.0508 2.82227Q18.5254 2.82227 19.2383 3.55957Q19.9512 4.29688 19.9512 5.72266L19.9512 13.1934Q19.9512 14.6289 19.2383 15.3662Q18.5254 16.1035 17.0508 16.1035L10.7227 16.1035Q10.3125 16.1035 10.0586 16.1914Q9.80469 16.2793 9.53125 16.5625Z" fill="#007aff"/>
  <path d="M10.7715 14.834Q11.3281 14.834 11.7188 14.4434Q12.1094 14.0527 12.1094 13.4961Q12.1094 12.9395 11.7188 12.5488Q11.3281 12.1582 10.7715 12.1582Q10.2148 12.1582 9.82422 12.5488Q9.43359 12.9395 9.43359 13.4961Q9.43359 14.0527 9.82422 14.4434Q10.2148 14.834 10.7715 14.834Z" fill="#ffffff"/>
  <path d="M10.7715 10.8008Q11.3281 10.8008 11.7188 10.4102Q12.1094 10.0195 12.1094 9.46289Q12.1094 8.90625 11.7188 8.51562Q11.3281 8.125 10.7715 8.125Q10.2148 8.125 9.82422 8.51562Q9.43359 8.90625 9.43359 9.46289Q9.43359 10.0195 9.82422 10.4102Q10.2148 10.8008 10.7715 10.8008Z" fill="#ffffff"/>
  <path d="M10.7715 6.76758Q11.3281 6.76758 11.7188 6.37207Q12.1094 5.97656 12.1094 5.42969Q12.1094 4.87305 11.7188 4.47754Q11.3281 4.08203 10.7715 4.08203Q10.2148 4.08203 9.82422 4.47754Q9.43359 4.87305 9.43359 5.42969Q9.43359 5.97656 9.82422 6.37207Q10.2148 6.76758 10.7715 6.76758Z" fill="#ffffff"/>
 </g>
</svg>
