<?xml version="1.0" encoding="UTF-8"?>
<!--Generator: Apple Native CoreSVG 175-->
<!DOCTYPE svg
PUBLIC "-//W3C//DTD SVG 1.1//EN"
       "http://www.w3.org/Graphics/SVG/1.1/DTD/svg11.dtd">
<svg version="1.1" xmlns="http://www.w3.org/2000/svg" xmlns:xlink="http://www.w3.org/1999/xlink" width="19.1602" height="19.1504">
 <g>
  <rect height="19.1504" opacity="0" width="19.1602" x="0" y="0"/>
  <path d="M9.57031 19.1406Q11.5527 19.1406 13.2861 18.3984Q15.0195 17.6562 16.3379 16.333Q17.6562 15.0098 18.4082 13.2764Q19.1602 11.543 19.1602 9.57031Q19.1602 7.59766 18.4082 5.86426Q17.6562 4.13086 16.3379 2.80762Q15.0195 1.48438 13.2861 0.742188Q11.5527 0 9.57031 0Q7.59766 0 5.86426 0.742188Q4.13086 1.48438 2.81738 2.80762Q1.50391 4.13086 0.751953 5.86426Q0 7.59766 0 9.57031Q0 11.543 0.74707 13.2764Q1.49414 15.0098 2.8125 16.333Q4.13086 17.6562 5.86914 18.3984Q7.60742 19.1406 9.57031 19.1406ZM9.57031 18.3984Q7.74414 18.3984 6.14746 17.71Q4.55078 17.0215 3.33496 15.8105Q2.11914 14.5996 1.43555 12.998Q0.751953 11.3965 0.751953 9.57031Q0.751953 7.74414 1.43555 6.14258Q2.11914 4.54102 3.33496 3.3252Q4.55078 2.10938 6.14746 1.4209Q7.74414 0.732422 9.57031 0.732422Q11.4062 0.732422 13.0029 1.4209Q14.5996 2.10938 15.8154 3.3252Q17.0312 4.54102 17.7197 6.14258Q18.4082 7.74414 18.4082 9.57031Q18.4082 11.3965 17.7246 12.998Q17.041 14.5996 15.8252 15.8105Q14.6094 17.0215 13.0078 17.71Q11.4062 18.3984 9.57031 18.3984Z" fill="#007aff"/>
  <path d="M5.13672 10.7617Q5.64453 10.7617 5.99609 10.4102Q6.34766 10.0586 6.34766 9.55078Q6.34766 9.05273 5.99121 8.69629Q5.63477 8.33984 5.13672 8.33984Q4.62891 8.33984 4.27734 8.69629Q3.92578 9.05273 3.92578 9.55078Q3.92578 10.0586 4.27734 10.4102Q4.62891 10.7617 5.13672 10.7617ZM9.57031 10.7617Q10.0781 10.7617 10.4297 10.4102Q10.7812 10.0586 10.7812 9.55078Q10.7812 9.05273 10.4297 8.69629Q10.0781 8.33984 9.57031 8.33984Q9.0625 8.33984 8.71094 8.69629Q8.35938 9.05273 8.35938 9.55078Q8.35938 10.0586 8.71094 10.4102Q9.0625 10.7617 9.57031 10.7617ZM14.0039 10.7617Q14.5117 10.7617 14.8633 10.4102Q15.2148 10.0586 15.2148 9.55078Q15.2148 9.05273 14.8633 8.69629Q14.5117 8.33984 14.0039 8.33984Q13.4961 8.33984 13.1445 8.69629Q12.793 9.05273 12.793 9.55078Q12.793 10.0586 13.1445 10.4102Q13.4961 10.7617 14.0039 10.7617Z" fill="#ffffff"/>
 </g>
</svg>
