<?xml version="1.0" encoding="UTF-8"?>
<!--Generator: Apple Native CoreSVG 175.5-->
<!DOCTYPE svg
PUBLIC "-//W3C//DTD SVG 1.1//EN"
       "http://www.w3.org/Graphics/SVG/1.1/DTD/svg11.dtd">
<svg version="1.1" xmlns="http://www.w3.org/2000/svg" xmlns:xlink="http://www.w3.org/1999/xlink" width="24.3164" height="20.1855">
 <g>
  <rect height="20.1855" opacity="0" width="24.3164" x="0" y="0"/>
  <path d="M0 10.0879Q0 10.5176 0.249023 10.7959Q0.498047 11.0742 0.996094 11.1621Q1.9043 11.2988 2.29492 11.8262Q2.68555 12.3535 2.68555 13.5352L2.68555 16.2793Q2.68555 18.2715 3.62305 19.2285Q4.56055 20.1855 6.5332 20.1855Q6.76758 20.1855 6.97266 20.1172Q7.19727 20.0195 7.31934 19.8438Q7.44141 19.668 7.44141 19.4238Q7.44141 18.8867 6.93359 18.7598Q6.85547 18.7402 6.78223 18.7256Q6.70898 18.7109 6.62109 18.7109Q5.39062 18.623 4.8877 18.0322Q4.38477 17.4414 4.38477 16.084L4.38477 12.8418Q4.38477 11.6016 3.75977 10.918Q3.13477 10.2344 1.99219 10.127Q1.97266 10.127 1.97266 10.1074Q1.97266 10.0879 1.99219 10.0879Q3.13477 9.98047 3.75977 9.29688Q4.38477 8.61328 4.38477 7.37305L4.38477 4.12109Q4.38477 2.76367 4.8877 2.17773Q5.39062 1.5918 6.62109 1.50391Q6.73828 1.49414 6.83594 1.47949Q6.93359 1.46484 7.01172 1.43555Q7.44141 1.28906 7.44141 0.78125Q7.44141 0.517578 7.30957 0.34668Q7.17773 0.175781 6.93359 0.0878906Q6.72852 0.0195312 6.43555 0.0195312Q4.52148 0.0195312 3.60352 0.986328Q2.68555 1.95312 2.68555 3.92578L2.68555 6.67969Q2.68555 7.85156 2.29492 8.37891Q1.9043 8.90625 0.996094 9.04297Q0.498047 9.12109 0.249023 9.39941Q0 9.67773 0 10.0879ZM24.3164 10.0879Q24.3164 9.67773 24.0723 9.39941Q23.8281 9.12109 23.3203 9.04297Q22.4121 8.90625 22.0215 8.37891Q21.6309 7.85156 21.6309 6.67969L21.6309 3.92578Q21.6309 1.95312 20.7129 0.986328Q19.7949 0.0195312 17.8809 0.0195312Q17.5977 0.0195312 17.3926 0.0878906Q17.1387 0.175781 17.0068 0.34668Q16.875 0.517578 16.875 0.78125Q16.875 1.28906 17.3145 1.43555Q17.3828 1.46484 17.4805 1.47949Q17.5781 1.49414 17.6953 1.50391Q18.9258 1.5918 19.4336 2.17773Q19.9414 2.76367 19.9414 4.12109L19.9414 7.37305Q19.9414 8.61328 20.5615 9.29688Q21.1816 9.98047 22.3242 10.0879Q22.3438 10.0879 22.3438 10.1074Q22.3438 10.127 22.3242 10.127Q21.1816 10.2344 20.5615 10.918Q19.9414 11.6016 19.9414 12.8418L19.9414 16.084Q19.9414 17.4414 19.4336 18.0322Q18.9258 18.623 17.6953 18.7109Q17.6074 18.7109 17.5342 18.7256Q17.4609 18.7402 17.3926 18.7598Q16.875 18.8867 16.875 19.4238Q16.875 19.668 16.9971 19.8438Q17.1191 20.0195 17.3535 20.1172Q17.5488 20.1855 17.7832 20.1855Q19.7656 20.1855 20.6982 19.2285Q21.6309 18.2715 21.6309 16.2793L21.6309 13.5352Q21.6309 12.3535 22.0215 11.8262Q22.4121 11.2988 23.3203 11.1621Q23.8281 11.0742 24.0723 10.7959Q24.3164 10.5176 24.3164 10.0879Z" fill="#007aff"/>
  <path d="M7.76367 11.6406Q8.39844 11.6406 8.85742 11.1768Q9.31641 10.7129 9.31641 10.0879Q9.31641 9.67773 9.10645 9.32129Q8.89648 8.96484 8.54492 8.75Q8.19336 8.53516 7.76367 8.53516Q7.34375 8.53516 6.9873 8.75Q6.63086 8.96484 6.41602 9.32129Q6.20117 9.67773 6.20117 10.0879Q6.20117 10.7129 6.66504 11.1768Q7.12891 11.6406 7.76367 11.6406Z" fill="#ffffff"/>
  <path d="M12.1582 11.6406Q12.5781 11.6406 12.9297 11.4258Q13.2812 11.2109 13.4961 10.8545Q13.7109 10.498 13.7109 10.0879Q13.7109 9.67773 13.4961 9.32129Q13.2812 8.96484 12.9297 8.75Q12.5781 8.53516 12.1582 8.53516Q11.748 8.53516 11.3916 8.75Q11.0352 8.96484 10.8203 9.32129Q10.6055 9.67773 10.6055 10.0879Q10.6055 10.7129 11.0693 11.1768Q11.5332 11.6406 12.1582 11.6406Z" fill="#ffffff"/>
  <path d="M16.5527 11.6406Q17.1875 11.6406 17.6514 11.1768Q18.1152 10.7129 18.1152 10.0879Q18.1152 9.67773 17.9004 9.32129Q17.6855 8.96484 17.334 8.75Q16.9824 8.53516 16.5527 8.53516Q16.1328 8.53516 15.7764 8.75Q15.4199 8.96484 15.21 9.32129Q15 9.67773 15 10.0879Q15 10.7129 15.459 11.1768Q15.918 11.6406 16.5527 11.6406Z" fill="#ffffff"/>
 </g>
</svg>
