<?xml version="1.0" encoding="UTF-8"?>
<!--Generator: Apple Native CoreSVG 175-->
<!DOCTYPE svg
PUBLIC "-//W3C//DTD SVG 1.1//EN"
       "http://www.w3.org/Graphics/SVG/1.1/DTD/svg11.dtd">
<svg version="1.1" xmlns="http://www.w3.org/2000/svg" xmlns:xlink="http://www.w3.org/1999/xlink" width="20.7715" height="22.4048">
 <g>
  <rect height="22.4048" opacity="0" width="20.7715" x="0" y="0"/>
  <path d="M2.62695 20.4944L18.2031 20.4944Q19.4629 20.4944 20.1172 19.8206Q20.7715 19.1468 20.7715 17.8675L20.7715 8.26785Q20.7715 6.98855 20.1074 6.31473Q19.4434 5.6409 18.1445 5.6409L11.6895 5.6409L11.6895 6.35379L18.1445 6.35379Q19.0625 6.35379 19.5654 6.83719Q20.0684 7.32059 20.0684 8.28738L20.0684 17.8479Q20.0684 18.805 19.5654 19.2981Q19.0625 19.7913 18.1445 19.7913L2.64648 19.7913Q1.68945 19.7913 1.19629 19.2981Q0.703125 18.805 0.703125 17.8479L0.703125 8.27762Q0.703125 7.32059 1.19629 6.83719Q1.68945 6.35379 2.64648 6.35379L9.21875 6.35379L9.21875 5.6409L2.56836 5.6409Q1.31836 5.6409 0.65918 6.30496Q0 6.96902 0 8.26785L0 17.8675Q0 19.1663 0.668945 19.8304Q1.33789 20.4944 2.62695 20.4944ZM10.4492 15.4846Q10.8398 15.4846 11.2598 15.3137Q11.6797 15.1429 12.1289 14.7327L20.2832 7.1448L19.7754 6.63699L11.6699 14.2151Q11.3477 14.5081 11.0352 14.6448Q10.7227 14.7815 10.4492 14.7815Q10.1855 14.7815 9.86328 14.635Q9.54102 14.4886 9.23828 14.2151L1.12305 6.63699L0.605469 7.1448L8.7793 14.7327Q9.21875 15.1429 9.64355 15.3137Q10.0684 15.4846 10.4492 15.4846ZM19.6582 19.5179L20.1465 18.9807L13.7207 12.8186L13.2129 13.3069ZM1.18164 19.5764L7.63672 13.3753L7.12891 12.8772L0.712891 19.0393Z" fill="#007aff"/>
  <path d="M4.21875 1.79324L6.24023 3.90262Q6.43555 4.08816 6.60156 4.04422Q6.76758 4.00027 6.81641 3.75613L7.08008 2.38894Q8.52539 2.73074 9.30664 3.595Q10.0879 4.45926 10.0879 5.59207L10.0879 10.3675Q10.0879 10.5628 10.1807 10.6751Q10.2734 10.7874 10.4492 10.7874Q10.625 10.7874 10.7178 10.6751Q10.8105 10.5628 10.8105 10.3675L10.8105 5.59207Q10.8105 4.45926 11.5869 3.595Q12.3633 2.73074 13.8086 2.38894L14.082 3.75613Q14.1309 4.00027 14.2969 4.04422Q14.4629 4.08816 14.6582 3.90262L16.6699 1.79324Q16.8359 1.63699 16.8018 1.48074Q16.7676 1.32449 16.5527 1.22684L13.916 0.05496Q13.6621-0.0524618 13.5254 0.0500772Q13.3887 0.152616 13.4375 0.396757L13.6914 1.74441Q12.7344 1.97879 12.0703 2.37918Q11.4062 2.77957 11.0107 3.23367Q10.6152 3.68777 10.4492 4.08816Q10.2832 3.68777 9.8877 3.23367Q9.49219 2.77957 8.82812 2.37918Q8.16406 1.97879 7.20703 1.74441L7.46094 0.396757Q7.50977 0.152616 7.37305 0.0500772Q7.23633-0.0524618 6.98242 0.05496L4.33594 1.22684Q4.13086 1.32449 4.09668 1.48074Q4.0625 1.63699 4.21875 1.79324Z" fill="#ffffff"/>
 </g>
</svg>
