<?xml version="1.0" encoding="UTF-8"?>
<!--Generator: Apple Native CoreSVG 175.5-->
<!DOCTYPE svg
PUBLIC "-//W3C//DTD SVG 1.1//EN"
       "http://www.w3.org/Graphics/SVG/1.1/DTD/svg11.dtd">
<svg version="1.1" xmlns="http://www.w3.org/2000/svg" xmlns:xlink="http://www.w3.org/1999/xlink" width="17.9785" height="17.998">
 <g>
  <rect height="17.998" opacity="0" width="17.9785" x="0" y="0"/>
  <path d="M3.06641 17.998L14.9121 17.998Q16.4453 17.998 17.2119 17.2412Q17.9785 16.4844 17.9785 14.9707L17.9785 3.04688Q17.9785 1.5332 17.2119 0.776367Q16.4453 0.0195312 14.9121 0.0195312L3.06641 0.0195312Q1.5332 0.0195312 0.766602 0.776367Q0 1.5332 0 3.04688L0 14.9707Q0 16.4844 0.766602 17.2412Q1.5332 17.998 3.06641 17.998ZM3.08594 16.4258Q2.35352 16.4258 1.96289 16.04Q1.57227 15.6543 1.57227 14.8926L1.57227 3.125Q1.57227 2.36328 1.96289 1.97754Q2.35352 1.5918 3.08594 1.5918L14.8926 1.5918Q15.6152 1.5918 16.0107 1.97754Q16.4062 2.36328 16.4062 3.125L16.4062 14.8926Q16.4062 15.6543 16.0107 16.04Q15.6152 16.4258 14.8926 16.4258Z" fill="#007aff"/>
  <path d="M5.3125 11.5527L12.666 11.5527Q13.0371 11.5527 13.2715 11.3721Q13.5059 11.1914 13.5059 10.8203Q13.5059 10.4492 13.2812 10.2588Q13.0566 10.0684 12.666 10.0684L5.3125 10.0684Q4.92188 10.0684 4.69238 10.2588Q4.46289 10.4492 4.46289 10.8203Q4.46289 11.1914 4.69727 11.3721Q4.93164 11.5527 5.3125 11.5527ZM5.3125 7.94922L12.666 7.94922Q13.0371 7.94922 13.2715 7.76367Q13.5059 7.57812 13.5059 7.20703Q13.5059 6.83594 13.2812 6.64551Q13.0566 6.45508 12.666 6.45508L5.3125 6.45508Q4.92188 6.45508 4.69238 6.64551Q4.46289 6.83594 4.46289 7.20703Q4.46289 7.57812 4.69727 7.76367Q4.93164 7.94922 5.3125 7.94922Z" fill="#ffffff"/>
 </g>
</svg>
