<?xml version="1.0" encoding="UTF-8"?>
<!--Generator: Apple Native CoreSVG 175.5-->
<!DOCTYPE svg
PUBLIC "-//W3C//DTD SVG 1.1//EN"
       "http://www.w3.org/Graphics/SVG/1.1/DTD/svg11.dtd">
<svg version="1.1" xmlns="http://www.w3.org/2000/svg" xmlns:xlink="http://www.w3.org/1999/xlink" width="16.8262" height="17.8418">
 <g>
  <rect height="17.8418" opacity="0" width="16.8262" x="0" y="0"/>
  <path d="M9.96094 17.832Q11.5137 17.832 12.8564 17.3828Q14.1992 16.9336 15.1953 16.0303Q16.1914 15.127 16.6797 13.7695Q16.7578 13.584 16.7871 13.3936Q16.8164 13.2031 16.8164 13.0469Q16.8164 12.666 16.5918 12.4365Q16.3672 12.207 15.9863 12.207Q15.6543 12.207 15.4297 12.3975Q15.2051 12.5879 15.0488 12.9883Q14.668 14.0527 13.9307 14.7461Q13.1934 15.4395 12.1826 15.7715Q11.1719 16.1035 9.9707 16.1035Q8.24219 16.1035 6.89941 15.2197Q5.55664 14.3359 4.79492 12.7148Q4.0332 11.0938 4.0332 8.88672Q4.0332 6.70898 4.79492 5.10254Q5.55664 3.49609 6.89453 2.61719Q8.23242 1.73828 9.96094 1.73828Q11.1523 1.73828 12.1582 2.14355Q13.1641 2.54883 13.9014 3.31055Q14.6387 4.07227 15.0293 5.13672Q15.1758 5.52734 15.4102 5.72266Q15.6445 5.91797 15.9863 5.91797Q16.3672 5.91797 16.5967 5.68359Q16.8262 5.44922 16.8262 5.06836Q16.8262 4.91211 16.792 4.72168Q16.7578 4.53125 16.6797 4.3457Q16.2109 3.04688 15.2686 2.07031Q14.3262 1.09375 12.9834 0.546875Q11.6406 0 9.96094 0Q7.65625 0 5.88867 1.09375Q4.12109 2.1875 3.12988 4.18457Q2.13867 6.18164 2.13867 8.88672Q2.13867 11.6211 3.125 13.6328Q4.11133 15.6445 5.87891 16.7383Q7.64648 17.832 9.96094 17.832ZM0.625 7.80273L11.1816 7.80273Q11.4551 7.80273 11.6357 7.61719Q11.8164 7.43164 11.8164 7.16797Q11.8164 6.88477 11.6357 6.7041Q11.4551 6.52344 11.1816 6.52344L0.625 6.52344Q0.361328 6.52344 0.180664 6.7041Q0 6.88477 0 7.16797Q0 7.43164 0.180664 7.61719Q0.361328 7.80273 0.625 7.80273ZM0.625 11.3086L11.1816 11.3086Q11.4551 11.3086 11.6357 11.123Q11.8164 10.9375 11.8164 10.6738Q11.8164 10.3906 11.6357 10.21Q11.4551 10.0293 11.1816 10.0293L0.625 10.0293Q0.361328 10.0293 0.180664 10.21Q0 10.3906 0 10.6738Q0 10.9375 0.180664 11.123Q0.361328 11.3086 0.625 11.3086Z" fill="#ffffff"/>
 </g>
</svg>
