<?xml version="1.0" encoding="UTF-8"?>
<!--Generator: Apple Native CoreSVG 175.5-->
<!DOCTYPE svg
PUBLIC "-//W3C//DTD SVG 1.1//EN"
       "http://www.w3.org/Graphics/SVG/1.1/DTD/svg11.dtd">
<svg version="1.1" xmlns="http://www.w3.org/2000/svg" xmlns:xlink="http://www.w3.org/1999/xlink" width="19.9219" height="19.9316">
 <g>
  <rect height="19.9316" opacity="0" width="19.9219" x="0" y="0"/>
  <path d="M9.96094 19.9219Q12.002 19.9219 13.8037 19.1406Q15.6055 18.3594 16.9824 16.9824Q18.3594 15.6055 19.1406 13.8037Q19.9219 12.002 19.9219 9.96094Q19.9219 7.91992 19.1406 6.11816Q18.3594 4.31641 16.9824 2.93945Q15.6055 1.5625 13.7988 0.78125Q11.9922 0 9.95117 0Q7.91016 0 6.1084 0.78125Q4.30664 1.5625 2.93457 2.93945Q1.5625 4.31641 0.78125 6.11816Q0 7.91992 0 9.96094Q0 12.002 0.78125 13.8037Q1.5625 15.6055 2.93945 16.9824Q4.31641 18.3594 6.11816 19.1406Q7.91992 19.9219 9.96094 19.9219Z" fill="#007aff"/>
  <path d="M9.96094 11.7773Q9.17969 11.7773 9.16016 10.9766L9.0332 5.6543Q9.02344 5.27344 9.28223 5.01953Q9.54102 4.76562 9.95117 4.76562Q10.3516 4.76562 10.6201 5.02441Q10.8887 5.2832 10.8789 5.66406L10.7324 10.9766Q10.7227 11.7773 9.96094 11.7773ZM9.96094 15.0488Q9.52148 15.0488 9.19434 14.7461Q8.86719 14.4434 8.86719 14.0039Q8.86719 13.5742 9.18945 13.2617Q9.51172 12.9492 9.96094 12.9492Q10.4004 12.9492 10.7275 13.2568Q11.0547 13.5645 11.0547 14.0039Q11.0547 14.4434 10.7275 14.7461Q10.4004 15.0488 9.96094 15.0488Z" fill="#ffffff"/>
 </g>
</svg>
