<?xml version="1.0" encoding="UTF-8"?>
<!--Generator: Apple Native CoreSVG 175-->
<!DOCTYPE svg
PUBLIC "-//W3C//DTD SVG 1.1//EN"
       "http://www.w3.org/Graphics/SVG/1.1/DTD/svg11.dtd">
<svg version="1.1" xmlns="http://www.w3.org/2000/svg" xmlns:xlink="http://www.w3.org/1999/xlink" width="23.108" height="19.1895">
 <g>
  <rect height="19.1895" opacity="0" width="23.108" x="0" y="0"/>
  <path d="M0.128196 9.56055Q-0.0573509 9.81445 0.025657 10Q0.108665 10.1855 0.401634 10.1855L2.0032 10.1855Q2.11062 12.0605 2.89675 13.6914Q3.68288 15.3223 4.98659 16.5576Q6.29031 17.793 7.96999 18.4912Q9.64968 19.1895 11.554 19.1895Q13.8196 19.1895 15.7727 18.1934Q17.7259 17.1973 19.0442 15.5469Q19.1614 15.4102 19.1468 15.2588Q19.1321 15.1074 19.0051 15.0098Q18.8782 14.9121 18.7317 14.9365Q18.5852 14.9609 18.4876 15.0879Q17.2766 16.6211 15.47 17.5293Q13.6634 18.4375 11.554 18.4375Q9.79616 18.4375 8.24831 17.8027Q6.70046 17.168 5.50417 16.0352Q4.30788 14.9023 3.58523 13.4082Q2.86257 11.9141 2.75515 10.1855L4.63991 10.1855Q4.93288 10.1855 5.02077 10Q5.10866 9.81445 4.92312 9.56055L2.87234 6.62109Q2.71609 6.39648 2.52566 6.39648Q2.33523 6.39648 2.17898 6.62109ZM4.05398 3.67188Q3.94656 3.80859 3.9612 3.95996Q3.97585 4.11133 4.10281 4.20898Q4.22976 4.29688 4.37624 4.27734Q4.52273 4.25781 4.63015 4.13086Q5.84109 2.59766 7.64773 1.68457Q9.45437 0.771484 11.554 0.771484Q13.3118 0.771484 14.8596 1.41113Q16.4075 2.05078 17.6038 3.18359Q18.8001 4.31641 19.5227 5.81055Q20.2454 7.30469 20.3528 9.0332L18.4778 9.0332Q18.1751 9.0332 18.0872 9.21387Q17.9993 9.39453 18.1848 9.6582L20.2356 12.5977Q20.4016 12.8223 20.5872 12.8223Q20.7727 12.8223 20.929 12.5977L22.9798 9.6582Q23.1653 9.39453 23.0823 9.21387Q22.9993 9.0332 22.6966 9.0332L21.1048 9.0332Q20.9973 7.1582 20.2112 5.52734Q19.4251 3.89648 18.1214 2.66113Q16.8176 1.42578 15.138 0.727539Q13.4583 0.0292969 11.554 0.0292969Q9.27859 0.0292969 7.33034 1.02051Q5.3821 2.01172 4.05398 3.67188Z" fill="#007aff"/>
  <path d="M11.554 11.3281Q11.9446 11.3281 11.9446 10.8691L12.0227 5.55664Q12.0227 5.35156 11.8958 5.21973Q11.7688 5.08789 11.554 5.08789Q11.3391 5.08789 11.2073 5.21973Q11.0755 5.35156 11.0755 5.55664L11.1536 10.8691Q11.1536 11.3281 11.554 11.3281ZM11.554 14.1602Q11.8469 14.1602 12.0569 13.9502Q12.2669 13.7402 12.2669 13.457Q12.2669 13.1641 12.0618 12.959Q11.8567 12.7539 11.554 12.7539Q11.2512 12.7539 11.0462 12.959Q10.8411 13.1641 10.8411 13.457Q10.8411 13.7402 11.0462 13.9502Q11.2512 14.1602 11.554 14.1602Z" fill="#ffffff"/>
 </g>
</svg>
