<?xml version="1.0" encoding="UTF-8"?>
<!--Generator: Apple Native CoreSVG 175.5-->
<!DOCTYPE svg
PUBLIC "-//W3C//DTD SVG 1.1//EN"
       "http://www.w3.org/Graphics/SVG/1.1/DTD/svg11.dtd">
<svg version="1.1" xmlns="http://www.w3.org/2000/svg" xmlns:xlink="http://www.w3.org/1999/xlink" width="20.0684" height="19.3262">
 <g>
  <rect height="19.3262" opacity="0" width="20.0684" x="0" y="0"/>
  <path d="M7.07031 19.3164L12.998 19.3164Q13.6133 19.3164 14.0479 19.1895Q14.4824 19.0625 14.8145 18.8135Q15.1465 18.5645 15.4688 18.2227L19.2578 14.043Q19.5801 13.6914 19.7559 13.3838Q19.9316 13.0762 20 12.7295Q20.0684 12.3828 20.0684 11.8945L20.0684 7.43164Q20.0684 6.94336 20 6.5918Q19.9316 6.24023 19.7559 5.9375Q19.5801 5.63477 19.2578 5.2832L15.4688 1.10352Q15.1465 0.751953 14.8145 0.507812Q14.4824 0.263672 14.0479 0.131836Q13.6133 0 12.998 0L7.07031 0Q6.44531 0 6.01562 0.131836Q5.58594 0.263672 5.25391 0.507812Q4.92188 0.751953 4.59961 1.10352L0.810547 5.2832Q0.488281 5.63477 0.3125 5.9375Q0.136719 6.24023 0.0683594 6.5918Q0 6.94336 0 7.43164L0 11.8945Q0 12.3828 0.0683594 12.7295Q0.136719 13.0762 0.3125 13.3838Q0.488281 13.6914 0.810547 14.043L4.59961 18.2227Q4.92188 18.5645 5.25391 18.8135Q5.58594 19.0625 6.01562 19.1895Q6.44531 19.3164 7.07031 19.3164ZM7.59766 17.7539Q7.10938 17.7539 6.81152 17.6758Q6.51367 17.5977 6.28906 17.4219Q6.06445 17.2461 5.80078 16.9531L2.27539 13.0957Q1.99219 12.7734 1.89941 12.5098Q1.80664 12.2461 1.80664 11.709L1.80664 7.61719Q1.80664 7.08008 1.89941 6.81641Q1.99219 6.55273 2.27539 6.23047L5.80078 2.37305Q6.06445 2.08008 6.28906 1.9043Q6.51367 1.72852 6.81152 1.65039Q7.10938 1.57227 7.59766 1.57227L12.4707 1.57227Q12.959 1.57227 13.252 1.65039Q13.5449 1.72852 13.7695 1.9043Q13.9941 2.08008 14.2676 2.37305L17.7832 6.23047Q18.0762 6.55273 18.1689 6.81641Q18.2617 7.08008 18.2617 7.61719L18.2617 11.709Q18.2617 12.2461 18.1689 12.5098Q18.0762 12.7734 17.7832 13.0957L14.2676 16.9531Q13.9941 17.2461 13.7695 17.4219Q13.5449 17.5977 13.252 17.6758Q12.959 17.7539 12.4707 17.7539Z" fill="#007aff"/>
  <path d="M10.0391 11.416Q10.7715 11.416 10.7812 10.6445L10.9277 5.48828Q10.9375 5.11719 10.6787 4.86816Q10.4199 4.61914 10.0293 4.61914Q9.62891 4.61914 9.37988 4.86328Q9.13086 5.10742 9.14062 5.47852L9.26758 10.6445Q9.28711 11.416 10.0391 11.416ZM10.0391 14.5898Q10.459 14.5898 10.7764 14.2969Q11.0938 14.0039 11.0938 13.5742Q11.0938 13.1445 10.7812 12.8516Q10.4688 12.5586 10.0391 12.5586Q9.60938 12.5586 9.29688 12.8564Q8.98438 13.1543 8.98438 13.5742Q8.98438 13.9941 9.29688 14.292Q9.60938 14.5898 10.0391 14.5898Z" fill="#ffffff"/>
 </g>
</svg>
