<?xml version="1.0" encoding="UTF-8"?>
<!--Generator: Apple Native CoreSVG 175.5-->
<!DOCTYPE svg
PUBLIC "-//W3C//DTD SVG 1.1//EN"
       "http://www.w3.org/Graphics/SVG/1.1/DTD/svg11.dtd">
<svg version="1.1" xmlns="http://www.w3.org/2000/svg" xmlns:xlink="http://www.w3.org/1999/xlink" width="20.0684" height="22.4707">
 <g>
  <rect height="22.4707" opacity="0" width="20.0684" x="0" y="0"/>
  <path d="M3.45703 7.41211L16.6113 7.41211Q17.8223 7.41211 18.8281 7.91992L16.748 2.90039Q16.3477 1.9043 15.5176 1.38672Q14.6875 0.869141 13.5547 0.869141L6.51367 0.869141Q5.38086 0.869141 4.55078 1.38672Q3.7207 1.9043 3.32031 2.90039L1.23047 7.91992Q2.23633 7.41211 3.45703 7.41211ZM3.45703 15.4785L16.6113 15.4785Q17.6367 15.4785 18.4131 15.0439Q19.1895 14.6094 19.6289 13.8379Q20.0684 13.0664 20.0684 12.0508Q20.0684 11.0352 19.6289 10.2588Q19.1895 9.48242 18.4131 9.04297Q17.6367 8.60352 16.6113 8.60352L3.45703 8.60352Q2.43164 8.60352 1.65039 9.04297Q0.869141 9.48242 0.43457 10.2588Q0 11.0352 0 12.0508Q0 13.0664 0.43457 13.8379Q0.869141 14.6094 1.65039 15.0439Q2.43164 15.4785 3.45703 15.4785ZM15.3516 12.0508Q15.3516 11.6016 15.6885 11.2646Q16.0254 10.9277 16.4746 10.9277Q16.9336 10.9277 17.2705 11.2646Q17.6074 11.6016 17.6074 12.0508Q17.6074 12.5195 17.2705 12.8418Q16.9336 13.1641 16.4746 13.1738Q16.0254 13.1738 15.6885 12.8516Q15.3516 12.5293 15.3516 12.0508ZM9.24805 20.2539L10.8203 20.2539L10.8203 14.7559L9.24805 14.7559ZM1.91406 21.0352L18.1543 21.0352Q18.4766 21.0352 18.7061 20.8057Q18.9355 20.5762 18.9355 20.2539Q18.9355 19.9219 18.7061 19.6924Q18.4766 19.4629 18.1543 19.4629L1.91406 19.4629Q1.5918 19.4629 1.3623 19.6924Q1.13281 19.9219 1.13281 20.2539Q1.13281 20.5762 1.3623 20.8057Q1.5918 21.0352 1.91406 21.0352ZM10.0293 22.4707Q10.6348 22.4707 11.1377 22.168Q11.6406 21.8652 11.9385 21.3672Q12.2363 20.8691 12.2363 20.2637Q12.2363 19.6582 11.9385 19.1553Q11.6406 18.6523 11.1377 18.3545Q10.6348 18.0566 10.0293 18.0566Q9.43359 18.0566 8.93066 18.3545Q8.42773 18.6523 8.12988 19.1553Q7.83203 19.6582 7.83203 20.2637Q7.83203 20.8691 8.12988 21.3672Q8.42773 21.8652 8.93066 22.168Q9.43359 22.4707 10.0293 22.4707Z" fill="#ffffff"/>
 </g>
</svg>
