<?xml version="1.0" encoding="UTF-8"?>
<!--Generator: Apple Native CoreSVG 175.5-->
<!DOCTYPE svg
PUBLIC "-//W3C//DTD SVG 1.1//EN"
       "http://www.w3.org/Graphics/SVG/1.1/DTD/svg11.dtd">
<svg version="1.1" xmlns="http://www.w3.org/2000/svg" xmlns:xlink="http://www.w3.org/1999/xlink" width="19.9219" height="19.9316">
 <g>
  <rect height="19.9316" opacity="0" width="19.9219" x="0" y="0"/>
  <path d="M9.96094 19.9316Q12.002 19.9316 13.8037 19.1504Q15.6055 18.3691 16.9824 16.9922Q18.3594 15.6152 19.1406 13.8135Q19.9219 12.0117 19.9219 9.9707Q19.9219 7.92969 19.1406 6.12793Q18.3594 4.32617 16.9824 2.94922Q15.6055 1.57227 13.7988 0.791016Q11.9922 0.00976562 9.95117 0.00976562Q7.91016 0.00976562 6.1084 0.791016Q4.30664 1.57227 2.93457 2.94922Q1.5625 4.32617 0.78125 6.12793Q0 7.92969 0 9.9707Q0 12.0117 0.78125 13.8135Q1.5625 15.6152 2.93945 16.9922Q4.31641 18.3691 6.11816 19.1504Q7.91992 19.9316 9.96094 19.9316Z" fill="#007aff"/>
  <path d="M9.96094 14.1016Q8.80859 14.1016 7.80273 13.7744Q6.79688 13.4473 5.98145 12.9346Q5.16602 12.4219 4.58496 11.8506Q4.00391 11.2793 3.69141 10.7764Q3.37891 10.2734 3.37891 9.98047Q3.37891 9.6875 3.69141 9.18457Q4.00391 8.68164 4.58496 8.11035Q5.16602 7.53906 5.97656 7.02637Q6.78711 6.51367 7.79297 6.18652Q8.79883 5.85938 9.96094 5.85938Q11.123 5.85938 12.1289 6.18652Q13.1348 6.51367 13.9453 7.02637Q14.7559 7.53906 15.332 8.11035Q15.9082 8.68164 16.2207 9.18457Q16.5332 9.6875 16.5332 9.98047Q16.5332 10.2734 16.2207 10.7764Q15.9082 11.2793 15.332 11.8506Q14.7559 12.4219 13.9453 12.9346Q13.1348 13.4473 12.1289 13.7744Q11.123 14.1016 9.96094 14.1016ZM9.96094 12.6758Q10.7031 12.6758 11.3184 12.3096Q11.9336 11.9434 12.2949 11.3281Q12.6562 10.7129 12.6562 9.98047Q12.6562 9.22852 12.2949 8.61816Q11.9336 8.00781 11.3184 7.64648Q10.7031 7.28516 9.96094 7.28516Q9.20898 7.28516 8.59375 7.64648Q7.97852 8.00781 7.6123 8.61816Q7.24609 9.22852 7.24609 9.98047Q7.24609 10.7129 7.6123 11.3281Q7.97852 11.9434 8.59375 12.3096Q9.20898 12.6758 9.96094 12.6758ZM9.9707 11.1719Q9.48242 11.1719 9.12598 10.8105Q8.76953 10.4492 8.76953 9.98047Q8.76953 9.51172 9.12598 9.15039Q9.48242 8.78906 9.9707 8.78906Q10.4395 8.78906 10.7959 9.15039Q11.1523 9.51172 11.1523 9.98047Q11.1523 10.4492 10.7959 10.8105Q10.4395 11.1719 9.9707 11.1719Z" fill="#ffffff"/>
 </g>
</svg>
