<?xml version="1.0" encoding="UTF-8"?>
<!--Generator: Apple Native CoreSVG 175-->
<!DOCTYPE svg
PUBLIC "-//W3C//DTD SVG 1.1//EN"
       "http://www.w3.org/Graphics/SVG/1.1/DTD/svg11.dtd">
<svg version="1.1" xmlns="http://www.w3.org/2000/svg" xmlns:xlink="http://www.w3.org/1999/xlink" width="19.1602" height="19.1504">
 <g>
  <rect height="19.1504" opacity="0" width="19.1602" x="0" y="0"/>
  <path d="M9.57031 19.1406Q11.5527 19.1406 13.2861 18.3984Q15.0195 17.6562 16.3379 16.333Q17.6562 15.0098 18.4082 13.2764Q19.1602 11.543 19.1602 9.57031Q19.1602 7.59766 18.4082 5.86426Q17.6562 4.13086 16.3379 2.80762Q15.0195 1.48438 13.2861 0.742188Q11.5527 0 9.57031 0Q7.59766 0 5.86426 0.742188Q4.13086 1.48438 2.81738 2.80762Q1.50391 4.13086 0.751953 5.86426Q0 7.59766 0 9.57031Q0 11.543 0.74707 13.2764Q1.49414 15.0098 2.8125 16.333Q4.13086 17.6562 5.86914 18.3984Q7.60742 19.1406 9.57031 19.1406ZM9.57031 18.3984Q7.74414 18.3984 6.14746 17.71Q4.55078 17.0215 3.33496 15.8105Q2.11914 14.5996 1.43555 12.998Q0.751953 11.3965 0.751953 9.57031Q0.751953 7.74414 1.43555 6.14258Q2.11914 4.54102 3.33496 3.3252Q4.55078 2.10938 6.14746 1.4209Q7.74414 0.732422 9.57031 0.732422Q11.4062 0.732422 13.0029 1.4209Q14.5996 2.10938 15.8154 3.3252Q17.0312 4.54102 17.7197 6.14258Q18.4082 7.74414 18.4082 9.57031Q18.4082 11.3965 17.7246 12.998Q17.041 14.5996 15.8252 15.8105Q14.6094 17.0215 13.0078 17.71Q11.4062 18.3984 9.57031 18.3984Z" fill="#007aff"/>
  <path d="M9.57031 13.8477Q10.7324 13.8477 11.7578 13.5059Q12.7832 13.1641 13.6133 12.6318Q14.4434 12.0996 15.0439 11.5039Q15.6445 10.9082 15.9668 10.3857Q16.2891 9.86328 16.2891 9.56055Q16.2891 9.25781 15.9668 8.74023Q15.6445 8.22266 15.0439 7.62695Q14.4434 7.03125 13.6084 6.49414Q12.7734 5.95703 11.7529 5.61523Q10.7324 5.27344 9.57031 5.27344Q8.37891 5.27344 7.34863 5.61523Q6.31836 5.95703 5.48828 6.49414Q4.6582 7.03125 4.07227 7.62695Q3.48633 8.22266 3.16895 8.74023Q2.85156 9.25781 2.85156 9.56055Q2.85156 9.86328 3.17383 10.3857Q3.49609 10.9082 4.09668 11.5039Q4.69727 12.0996 5.52734 12.6318Q6.35742 13.1641 7.37793 13.5059Q8.39844 13.8477 9.57031 13.8477ZM9.57031 12.3828Q8.78906 12.3828 8.14941 11.9971Q7.50977 11.6113 7.12402 10.9717Q6.73828 10.332 6.72852 9.56055Q6.72852 8.7793 7.11426 8.13965Q7.5 7.5 8.14453 7.11914Q8.78906 6.73828 9.57031 6.73828Q10.3418 6.73828 10.9863 7.11914Q11.6309 7.5 12.0166 8.13965Q12.4023 8.7793 12.4023 9.56055Q12.4023 10.332 12.0166 10.9717Q11.6309 11.6113 10.9863 11.9971Q10.3418 12.3828 9.57031 12.3828ZM9.58008 10.6152Q10.0098 10.6152 10.3223 10.3027Q10.6348 9.99023 10.6348 9.56055Q10.6348 9.13086 10.3223 8.81836Q10.0098 8.50586 9.58008 8.50586Q9.14062 8.50586 8.82324 8.81836Q8.50586 9.13086 8.50586 9.56055Q8.50586 9.99023 8.82324 10.3027Q9.14062 10.6152 9.58008 10.6152Z" fill="#ffffff"/>
 </g>
</svg>
