<?xml version="1.0" encoding="UTF-8"?>
<!--Generator: Apple Native CoreSVG 175-->
<!DOCTYPE svg
PUBLIC "-//W3C//DTD SVG 1.1//EN"
       "http://www.w3.org/Graphics/SVG/1.1/DTD/svg11.dtd">
<svg version="1.1" xmlns="http://www.w3.org/2000/svg" xmlns:xlink="http://www.w3.org/1999/xlink" width="19.1602" height="19.1504">
 <g>
  <rect height="19.1504" opacity="0" width="19.1602" x="0" y="0"/>
  <path d="M9.57031 19.1406Q11.5527 19.1406 13.2861 18.3984Q15.0195 17.6562 16.3379 16.333Q17.6562 15.0098 18.4082 13.2764Q19.1602 11.543 19.1602 9.57031Q19.1602 7.59766 18.4082 5.86426Q17.6562 4.13086 16.3379 2.80762Q15.0195 1.48438 13.2861 0.742188Q11.5527 0 9.57031 0Q7.59766 0 5.86426 0.742188Q4.13086 1.48438 2.81738 2.80762Q1.50391 4.13086 0.751953 5.86426Q0 7.59766 0 9.57031Q0 11.543 0.74707 13.2764Q1.49414 15.0098 2.8125 16.333Q4.13086 17.6562 5.86914 18.3984Q7.60742 19.1406 9.57031 19.1406ZM9.57031 18.3984Q7.74414 18.3984 6.14746 17.71Q4.55078 17.0215 3.33496 15.8105Q2.11914 14.5996 1.43555 12.998Q0.751953 11.3965 0.751953 9.57031Q0.751953 7.74414 1.43555 6.14258Q2.11914 4.54102 3.33496 3.3252Q4.55078 2.10938 6.14746 1.4209Q7.74414 0.732422 9.57031 0.732422Q11.4062 0.732422 13.0029 1.4209Q14.5996 2.10938 15.8154 3.3252Q17.0312 4.54102 17.7197 6.14258Q18.4082 7.74414 18.4082 9.57031Q18.4082 11.3965 17.7246 12.998Q17.041 14.5996 15.8252 15.8105Q14.6094 17.0215 13.0078 17.71Q11.4062 18.3984 9.57031 18.3984Z" fill="#007aff"/>
  <path d="M12.3145 13.3301L10.9863 12.002Q10.6738 12.1875 10.3174 12.2949Q9.96094 12.4023 9.58008 12.4023Q8.78906 12.4023 8.13965 12.0166Q7.49023 11.6309 7.10938 10.9814Q6.72852 10.332 6.71875 9.56055Q6.71875 8.78906 7.11914 8.1543L5.43945 6.48438Q4.61914 7.01172 4.02832 7.6123Q3.4375 8.21289 3.12012 8.74023Q2.80273 9.26758 2.80273 9.56055Q2.80273 9.86328 3.12988 10.3906Q3.45703 10.918 4.05762 11.5186Q4.6582 12.1191 5.49805 12.6611Q6.33789 13.2031 7.36816 13.5449Q8.39844 13.8867 9.58008 13.8867Q10.3223 13.8867 11.0107 13.7354Q11.6992 13.584 12.3145 13.3301ZM9.63867 10.6641L8.45703 9.48242Q8.39844 9.94141 8.74023 10.3271Q9.08203 10.7129 9.63867 10.6641ZM12.0508 10.918L13.7305 12.5977Q14.541 12.0703 15.1318 11.4795Q15.7227 10.8887 16.0352 10.3711Q16.3477 9.85352 16.3477 9.56055Q16.3477 9.25781 16.0205 8.73047Q15.6934 8.20312 15.0879 7.60254Q14.4824 7.00195 13.6426 6.45996Q12.8027 5.91797 11.7773 5.57617Q10.752 5.23438 9.58008 5.23438Q8.84766 5.23438 8.17871 5.37109Q7.50977 5.50781 6.9043 5.75195L8.21289 7.07031Q8.51562 6.9043 8.85742 6.81152Q9.19922 6.71875 9.58008 6.71875Q10.3516 6.71875 11.001 7.09961Q11.6504 7.48047 12.041 8.125Q12.4316 8.76953 12.4316 9.56055Q12.4316 10.293 12.0508 10.918ZM9.55078 8.41797L10.7324 9.58984Q10.7812 9.14062 10.4443 8.75Q10.1074 8.35938 9.55078 8.41797ZM14.5215 14.9121Q14.5996 14.9902 14.7266 14.9951Q14.8535 15 14.9316 14.9121Q15.0293 14.8145 15.0293 14.6973Q15.0293 14.5801 14.9316 14.502L4.62891 4.17969Q4.54102 4.0918 4.41895 4.0918Q4.29688 4.0918 4.20898 4.17969Q4.12109 4.26758 4.12109 4.38477Q4.12109 4.50195 4.20898 4.59961Z" fill="#ffffff"/>
 </g>
</svg>
