<?xml version="1.0" encoding="UTF-8"?>
<!--Generator: Apple Native CoreSVG 175-->
<!DOCTYPE svg
PUBLIC "-//W3C//DTD SVG 1.1//EN"
       "http://www.w3.org/Graphics/SVG/1.1/DTD/svg11.dtd">
<svg version="1.1" xmlns="http://www.w3.org/2000/svg" xmlns:xlink="http://www.w3.org/1999/xlink" width="19.7226" height="20.0519">
 <g>
  <rect height="20.0519" opacity="0" width="19.7226" x="0" y="0"/>
  <path d="M13.2765 8.41522L12.1375 9.52621Q11.7824 9.87152 11.3693 9.95331Q10.9563 10.0351 10.5757 9.62112Q10.1785 9.19449 10.2316 8.7896Q10.2847 8.3847 10.6831 7.9863L11.7789 6.87698L11.3329 6.41953L3.20312 14.5421Q2.34421 15.4082 1.90826 15.9445Q1.47232 16.4809 1.28242 16.8394Q1.09253 17.198 0.982208 17.5175Q0.871887 17.8371 0.669556 18.2535Q0.467224 18.6699 0 19.3282L0.66803 20.0519Q1.30386 19.5918 1.72165 19.409Q2.13943 19.2261 2.47498 19.1353Q2.81052 19.0445 3.19351 18.8742Q3.57651 18.7039 4.13376 18.2799Q4.69101 17.8558 5.56961 16.9872L13.7425 8.8559ZM14.9329 10.1547L15.1219 9.94339Q15.4269 9.60739 15.4318 9.23668Q15.4367 8.86597 15.1051 8.52737L14.7981 8.20892Q15.3363 7.72919 15.8949 7.41051Q16.4536 7.09183 16.9913 6.84059Q17.529 6.58936 18.0067 6.32431Q18.4843 6.05927 18.8512 5.68985Q19.5415 4.99252 19.6761 4.17534Q19.8106 3.35815 19.5561 2.60582Q19.3016 1.85349 18.8121 1.36673Q18.3253 0.877228 17.5793 0.62767Q16.8332 0.378113 16.0146 0.517578Q15.1961 0.657043 14.4891 1.32767Q14.1168 1.69449 13.8496 2.16873Q13.5825 2.64297 13.3334 3.18413Q13.0844 3.72528 12.767 4.28879Q12.4496 4.85229 11.9699 5.38086L11.6586 5.07385Q11.3199 4.74213 10.947 4.75052Q10.5742 4.75891 10.2356 5.05692L10.027 5.24612Q9.61716 5.60547 9.66599 5.96794Q9.71481 6.33041 10.0536 6.67191L13.5071 10.1254Q13.8484 10.464 14.211 10.5164Q14.5735 10.5687 14.9329 10.1547Z" fill="#ffffff"/>
 </g>
</svg>
