<?xml version="1.0" encoding="UTF-8"?>
<!--Generator: Apple Native CoreSVG 175-->
<!DOCTYPE svg
PUBLIC "-//W3C//DTD SVG 1.1//EN"
       "http://www.w3.org/Graphics/SVG/1.1/DTD/svg11.dtd">
<svg version="1.1" xmlns="http://www.w3.org/2000/svg" xmlns:xlink="http://www.w3.org/1999/xlink" width="19.1602" height="19.1504">
 <g>
  <rect height="19.1504" opacity="0" width="19.1602" x="0" y="0"/>
  <path d="M0.751953 9.57031Q0.751953 8.78906 0.878906 8.04199Q1.00586 7.29492 1.25977 6.60156L0.576172 6.30859Q0.302734 7.08008 0.151367 7.90039Q0 8.7207 0 9.57031Q0 10.4199 0.151367 11.2402Q0.302734 12.0605 0.576172 12.832L1.25977 12.5488Q1.01562 11.8555 0.883789 11.1035Q0.751953 10.3516 0.751953 9.57031ZM5.78125 1.58203L5.50781 0.908203Q3.99414 1.63086 2.80762 2.81738Q1.62109 4.00391 0.908203 5.50781L1.60156 5.79102Q2.23633 4.41406 3.3252 3.33008Q4.41406 2.24609 5.78125 1.58203ZM9.57031 0.732422Q10.3516 0.732422 11.0986 0.869141Q11.8457 1.00586 12.5488 1.25977L12.832 0.566406Q12.0703 0.292969 11.25 0.146484Q10.4297 0 9.57031 0Q8.7207 0 7.89551 0.146484Q7.07031 0.292969 6.31836 0.566406L6.61133 1.25977Q7.30469 0.996094 8.05176 0.864258Q8.79883 0.732422 9.57031 0.732422ZM17.5586 5.79102L18.2422 5.50781Q17.5293 3.99414 16.3379 2.80762Q15.1465 1.62109 13.6328 0.898438L13.3496 1.58203Q14.7363 2.24609 15.8154 3.3252Q16.8945 4.4043 17.5586 5.79102ZM18.4082 9.57031Q18.4082 10.3516 18.2764 11.1035Q18.1445 11.8555 17.8906 12.5488L18.5742 12.8223Q18.8574 12.0703 19.0088 11.2451Q19.1602 10.4199 19.1602 9.57031Q19.1602 8.7207 19.0088 7.90039Q18.8574 7.08008 18.5742 6.31836L17.9004 6.60156Q18.1445 7.29492 18.2764 8.04199Q18.4082 8.78906 18.4082 9.57031ZM13.3496 17.5488L13.6328 18.2422Q15.1465 17.5195 16.333 16.333Q17.5195 15.1465 18.2324 13.6426L17.5586 13.3594Q16.9043 14.7363 15.8203 15.8154Q14.7363 16.8945 13.3496 17.5488ZM9.57031 18.3984Q8.79883 18.3984 8.05176 18.2666Q7.30469 18.1348 6.61133 17.8809L6.31836 18.5742Q7.08008 18.8477 7.90039 18.9941Q8.7207 19.1406 9.57031 19.1406Q10.4297 19.1406 11.2451 18.999Q12.0605 18.8574 12.8223 18.5742L12.5293 17.8906Q11.8359 18.1445 11.0938 18.2715Q10.3516 18.3984 9.57031 18.3984ZM1.5918 13.3594L0.917969 13.6426Q1.64062 15.1465 2.82227 16.333Q4.00391 17.5195 5.51758 18.2422L5.80078 17.5488Q4.41406 16.8945 3.33008 15.8154Q2.24609 14.7363 1.5918 13.3594ZM9.57031 14.2969Q10.5078 14.2969 11.2305 13.9404Q11.9531 13.584 12.3584 13.1348Q12.7637 12.6855 12.7637 12.4023Q12.7637 12.2949 12.6807 12.2754Q12.5977 12.2559 12.5391 12.2949Q12.0996 12.6855 11.3525 12.9785Q10.6055 13.2715 9.57031 13.2715Q8.53516 13.2715 7.79785 12.9736Q7.06055 12.6758 6.61133 12.2949Q6.54297 12.2559 6.46484 12.2754Q6.38672 12.2949 6.38672 12.4023Q6.38672 12.6855 6.79199 13.1348Q7.19727 13.584 7.91992 13.9404Q8.64258 14.2969 9.57031 14.2969ZM6.63086 8.63281Q7.02148 8.63281 7.31934 8.2959Q7.61719 7.95898 7.61719 7.46094Q7.61719 6.96289 7.32422 6.62109Q7.03125 6.2793 6.63086 6.2793Q6.24023 6.2793 5.95215 6.62109Q5.66406 6.96289 5.66406 7.46094Q5.66406 7.95898 5.95703 8.2959Q6.25 8.63281 6.63086 8.63281ZM12.5098 8.63281Q12.9004 8.63281 13.1934 8.2959Q13.4863 7.95898 13.4863 7.46094Q13.4863 6.96289 13.1982 6.62109Q12.9102 6.2793 12.5098 6.2793Q12.1289 6.2793 11.8359 6.62109Q11.543 6.96289 11.543 7.46094Q11.543 7.95898 11.8359 8.2959Q12.1289 8.63281 12.5098 8.63281Z" fill="#ffffff"/>
 </g>
</svg>
