<?xml version="1.0" encoding="UTF-8"?>
<!--Generator: Apple Native CoreSVG 175.5-->
<!DOCTYPE svg
PUBLIC "-//W3C//DTD SVG 1.1//EN"
       "http://www.w3.org/Graphics/SVG/1.1/DTD/svg11.dtd">
<svg version="1.1" xmlns="http://www.w3.org/2000/svg" xmlns:xlink="http://www.w3.org/1999/xlink" width="19.9219" height="19.9316">
 <g>
  <rect height="19.9316" opacity="0" width="19.9219" x="0" y="0"/>
  <path d="M1.66992 9.96094Q1.66992 9.29688 1.77246 8.65723Q1.875 8.01758 2.06055 7.42188L0.527344 6.77734Q0.273438 7.5293 0.136719 8.33008Q0 9.13086 0 9.96094Q0 10.791 0.141602 11.5918Q0.283203 12.3926 0.537109 13.1445L2.06055 12.5Q1.875 11.9043 1.77246 11.2646Q1.66992 10.625 1.66992 9.96094ZM6.16211 2.55859L5.53711 1.05469Q4.08203 1.78711 2.92969 2.93945Q1.77734 4.0918 1.04492 5.54688L2.56836 6.18164Q3.1543 5.01953 4.07715 4.0918Q5 3.16406 6.16211 2.55859ZM9.95117 1.66016Q10.6152 1.66016 11.2598 1.7627Q11.9043 1.86523 12.5098 2.06055L13.1348 0.537109Q12.3828 0.273438 11.582 0.136719Q10.7812 0 9.95117 0Q9.12109 0 8.31543 0.136719Q7.50977 0.273438 6.75781 0.537109L7.40234 2.06055Q7.99805 1.86523 8.64258 1.7627Q9.28711 1.66016 9.95117 1.66016ZM17.3535 6.17188L18.8672 5.54688Q18.1348 4.0918 16.9727 2.93457Q15.8105 1.77734 14.3652 1.04492L13.7402 2.55859Q14.9023 3.1543 15.8301 4.07715Q16.7578 5 17.3535 6.17188ZM18.2617 9.96094Q18.2617 10.625 18.1592 11.2695Q18.0566 11.9141 17.8711 12.5098L19.3848 13.1543Q19.6484 12.4023 19.7852 11.5967Q19.9219 10.791 19.9219 9.96094Q19.9219 9.13086 19.7852 8.3252Q19.6484 7.51953 19.3848 6.76758L17.8613 7.41211Q18.0566 8.00781 18.1592 8.65234Q18.2617 9.29688 18.2617 9.96094ZM13.7402 17.3535L14.3652 18.877Q15.8203 18.1445 16.9775 16.9873Q18.1348 15.8301 18.8574 14.375L17.3633 13.75Q16.7676 14.9121 15.835 15.8398Q14.9023 16.7676 13.7402 17.3535ZM9.96094 18.2617Q9.28711 18.2617 8.64258 18.1592Q7.99805 18.0566 7.40234 17.8613L6.76758 19.3848Q7.51953 19.6387 8.3252 19.7803Q9.13086 19.9219 9.96094 19.9219Q10.791 19.9219 11.5869 19.7852Q12.3828 19.6484 13.1348 19.3945L12.5 17.8711Q11.8945 18.0566 11.2598 18.1592Q10.625 18.2617 9.96094 18.2617ZM2.56836 13.75L1.05469 14.375Q1.78711 15.8301 2.93945 16.9824Q4.0918 18.1348 5.53711 18.8672L6.16211 17.3438Q5 16.7578 4.07715 15.835Q3.1543 14.9121 2.56836 13.75Z" fill="#007aff"/>
  <path d="M9.94141 16.7773Q11.3672 16.7773 12.6074 16.25Q13.8477 15.7227 14.7803 14.79Q15.7129 13.8574 16.2402 12.6172Q16.7676 11.377 16.7578 9.96094Q16.7578 8.53516 16.2305 7.2998Q15.7031 6.06445 14.7656 5.13184Q13.8281 4.19922 12.5928 3.67188Q11.3574 3.14453 9.93164 3.14453Q8.51562 3.14453 7.28027 3.66699Q6.04492 4.18945 5.1123 5.12695Q4.17969 6.06445 3.65723 7.2998Q3.13477 8.53516 3.13477 9.96094Q3.13477 11.3867 3.66211 12.6221Q4.18945 13.8574 5.12207 14.79Q6.05469 15.7227 7.29004 16.25Q8.52539 16.7773 9.94141 16.7773ZM9.95117 14.0039Q9.08203 14.0039 8.42285 13.6865Q7.76367 13.3691 7.39746 12.9639Q7.03125 12.5586 7.03125 12.2852Q7.03125 12.1289 7.14844 12.0752Q7.26562 12.0215 7.38281 12.0801Q7.8418 12.334 8.4375 12.5684Q9.0332 12.8027 9.95117 12.8027Q10.8691 12.8027 11.4648 12.5684Q12.0605 12.334 12.5195 12.0801Q12.6465 12.0215 12.7588 12.0752Q12.8711 12.1289 12.8711 12.2852Q12.8711 12.5586 12.5098 12.9639Q12.1484 13.3691 11.4893 13.6865Q10.8301 14.0039 9.95117 14.0039ZM7.46094 9.04297Q7.07031 9.04297 6.77734 8.72559Q6.48438 8.4082 6.48438 7.91016Q6.48438 7.40234 6.77734 7.08008Q7.07031 6.75781 7.46094 6.75781Q7.86133 6.75781 8.15918 7.08008Q8.45703 7.40234 8.45703 7.91016Q8.45703 8.4082 8.15918 8.72559Q7.86133 9.04297 7.46094 9.04297ZM12.4512 9.04297Q12.0508 9.04297 11.7578 8.72559Q11.4648 8.4082 11.4648 7.91016Q11.4648 7.40234 11.7578 7.08008Q12.0508 6.75781 12.4512 6.75781Q12.8418 6.75781 13.1396 7.08008Q13.4375 7.40234 13.4375 7.91016Q13.4375 8.4082 13.1396 8.72559Q12.8418 9.04297 12.4512 9.04297Z" fill="#ffffff"/>
 </g>
</svg>
