<?xml version="1.0" encoding="UTF-8"?>
<!--Generator: Apple Native CoreSVG 175.5-->
<!DOCTYPE svg
PUBLIC "-//W3C//DTD SVG 1.1//EN"
       "http://www.w3.org/Graphics/SVG/1.1/DTD/svg11.dtd">
<svg version="1.1" xmlns="http://www.w3.org/2000/svg" xmlns:xlink="http://www.w3.org/1999/xlink" width="20.1074" height="23.9746">
 <g>
  <rect height="23.9746" opacity="0" width="20.1074" x="0" y="0"/>
  <path d="M10.0488 23.9746Q12.1973 23.9746 14.0283 23.7549Q15.8594 23.5352 17.2217 23.1055Q18.584 22.6758 19.3457 22.0654Q20.1074 21.4551 20.1074 20.6641Q20.1074 20.0098 19.5557 19.4678Q19.0039 18.9258 17.9932 18.5156Q16.9824 18.1055 15.5957 17.832L14.7559 19.1504Q16.5723 19.4043 17.6025 19.8145Q18.6328 20.2246 18.6328 20.6641Q18.6328 21.1133 17.5537 21.5381Q16.4746 21.9629 14.541 22.2314Q12.6074 22.5 10.0488 22.5Q7.5 22.5 5.56641 22.2314Q3.63281 21.9629 2.55371 21.5381Q1.47461 21.1133 1.47461 20.6641Q1.47461 20.2246 2.50488 19.8145Q3.53516 19.4043 5.35156 19.1504L4.50195 17.832Q3.125 18.1055 2.11426 18.5156Q1.10352 18.9258 0.551758 19.4678Q0 20.0098 0 20.6641Q0 21.4551 0.756836 22.0654Q1.51367 22.6758 2.88086 23.1055Q4.24805 23.5352 6.0791 23.7549Q7.91016 23.9746 10.0488 23.9746ZM3.75 17.4316L4.72656 19.7266Q4.84375 19.9805 5.09766 20.0049Q5.35156 20.0293 5.54688 19.7363L6.75781 17.9688Q6.93359 17.7148 6.86035 17.4609Q6.78711 17.207 6.45508 17.1387L4.30664 16.7676Q4.07227 16.7285 3.9209 16.8262Q3.76953 16.9238 3.7207 17.0898Q3.67188 17.2559 3.75 17.4316ZM16.3574 17.4316Q16.4258 17.2559 16.3818 17.0898Q16.3379 16.9238 16.1865 16.8262Q16.0352 16.7285 15.8008 16.7676L13.6523 17.1387Q13.3105 17.207 13.2422 17.4609Q13.1738 17.7148 13.3398 17.9688L14.5605 19.7363Q14.7559 20.0293 15.0098 20.0049Q15.2637 19.9805 15.3711 19.7266Z" fill="#ffffff"/>
  <path d="M9.61914 5.80078L9.61914 2.23633Q9.61914 1.15234 9.07227 0.585938Q8.52539 0.0195312 7.4707 0.0195312Q6.58203 0.0292969 5.72266 0.390625Q4.86328 0.751953 4.16504 1.35254Q3.4668 1.95312 3.04688 2.7002Q2.62695 3.44727 2.62695 4.21875Q2.62695 5.21484 3.23242 5.94238Q3.83789 6.66992 4.95117 7.25098Q6.06445 7.83203 7.59766 8.38867L8.21289 7.00195Q6.875 6.49414 5.96191 6.08398Q5.04883 5.67383 4.5752 5.23926Q4.10156 4.80469 4.10156 4.21875Q4.10156 3.75 4.39941 3.27148Q4.69727 2.79297 5.19043 2.39258Q5.68359 1.99219 6.2793 1.74316Q6.875 1.49414 7.4707 1.49414Q7.90039 1.49414 8.01758 1.61621Q8.13477 1.73828 8.13477 2.23633L8.13477 6.24023ZM12.1484 7.44141L15.7031 7.44141Q16.7773 7.44141 17.3486 6.89941Q17.9199 6.35742 17.9199 5.3125Q17.9199 4.42383 17.5586 3.55957Q17.1973 2.69531 16.5869 1.99219Q15.9766 1.28906 15.2295 0.874023Q14.4824 0.458984 13.7109 0.458984Q12.7246 0.458984 11.9971 1.06445Q11.2695 1.66992 10.6885 2.7832Q10.1074 3.89648 9.56055 5.42969L10.9473 6.05469Q11.4453 4.7168 11.8506 3.79883Q12.2559 2.88086 12.6904 2.40723Q13.125 1.93359 13.7109 1.93359Q14.1797 1.93359 14.6631 2.23145Q15.1465 2.5293 15.5469 3.02246Q15.9473 3.51562 16.1914 4.11621Q16.4355 4.7168 16.4355 5.3125Q16.4355 5.74219 16.3184 5.84961Q16.2012 5.95703 15.7031 5.95703L11.6992 5.95703ZM10.5078 9.98047L10.5078 13.5449Q10.5078 14.6289 11.0498 15.1855Q11.5918 15.7422 12.6367 15.7422Q13.5254 15.7422 14.3896 15.3857Q15.2539 15.0293 15.9521 14.4238Q16.6504 13.8184 17.0703 13.0713Q17.4902 12.3242 17.4902 11.5527Q17.4902 10.5566 16.8848 9.8291Q16.2793 9.10156 15.1611 8.52539Q14.043 7.94922 12.5195 7.39258L11.8945 8.76953Q13.2227 9.27734 14.1455 9.6875Q15.0684 10.0977 15.542 10.5322Q16.0156 10.9668 16.0156 11.5527Q16.0156 12.0215 15.7129 12.5Q15.4102 12.9785 14.917 13.3789Q14.4238 13.7793 13.8281 14.0234Q13.2324 14.2676 12.6367 14.2578Q12.1973 14.2578 12.0947 14.1455Q11.9922 14.0332 11.9922 13.5449L11.9922 9.54102ZM7.95898 8.32031L4.4043 8.32031Q3.32031 8.32031 2.75879 8.87207Q2.19727 9.42383 2.19727 10.459Q2.19727 11.3574 2.55859 12.2168Q2.91992 13.0762 3.52539 13.7793Q4.13086 14.4824 4.87793 14.8975Q5.625 15.3125 6.39648 15.3125Q7.39258 15.3125 8.11523 14.707Q8.83789 14.1016 9.41895 12.9883Q10 11.875 10.5566 10.3418L9.16992 9.7168Q8.66211 11.0645 8.25684 11.9775Q7.85156 12.8906 7.41699 13.3594Q6.98242 13.8281 6.39648 13.8281Q5.91797 13.8281 5.43945 13.5303Q4.96094 13.2324 4.56543 12.7441Q4.16992 12.2559 3.92578 11.6602Q3.68164 11.0645 3.68164 10.459Q3.68164 10.0195 3.79883 9.91211Q3.91602 9.80469 4.4043 9.80469L8.4082 9.80469ZM10.0488 10.6543Q10.8203 10.6543 11.4551 10.2832Q12.0898 9.91211 12.4658 9.28711Q12.8418 8.66211 12.8418 7.89062Q12.8418 7.11914 12.4658 6.48926Q12.0898 5.85938 11.4551 5.4834Q10.8203 5.10742 10.0488 5.10742Q9.28711 5.10742 8.65723 5.4834Q8.02734 5.85938 7.65137 6.48926Q7.27539 7.11914 7.27539 7.89062Q7.27539 8.66211 7.65137 9.28711Q8.02734 9.91211 8.65723 10.2832Q9.28711 10.6543 10.0488 10.6543ZM10.0488 9.19922Q9.50195 9.19922 9.11621 8.82324Q8.73047 8.44727 8.73047 7.89062Q8.73047 7.33398 9.11621 6.94824Q9.50195 6.5625 10.0488 6.5625Q10.6055 6.5625 10.9961 6.94824Q11.3867 7.33398 11.3867 7.89062Q11.3867 8.44727 10.9961 8.82324Q10.6055 9.19922 10.0488 9.19922Z" fill="#007aff"/>
 </g>
</svg>
