<?xml version="1.0" encoding="UTF-8"?>
<!--Generator: Apple Native CoreSVG 175.5-->
<!DOCTYPE svg
PUBLIC "-//W3C//DTD SVG 1.1//EN"
       "http://www.w3.org/Graphics/SVG/1.1/DTD/svg11.dtd">
<svg version="1.1" xmlns="http://www.w3.org/2000/svg" xmlns:xlink="http://www.w3.org/1999/xlink" width="19.7754" height="22.7441">
 <g>
  <rect height="22.7441" opacity="0" width="19.7754" x="0" y="0"/>
  <path d="M4.70703 22.7441L15.0684 22.7441Q15.3418 22.7441 15.5078 22.5684Q15.6738 22.3926 15.6738 22.0996Q15.6738 21.5527 15.2588 21.2012Q14.8438 20.8496 14.1504 20.8496L10.6738 20.8496L10.6738 19.7461Q12.5879 19.5996 14.2383 18.7793Q15.8887 17.959 17.1338 16.6211Q18.3789 15.2832 19.0771 13.5645Q19.7754 11.8457 19.7754 9.89258Q19.7754 7.8418 19.0088 6.0498Q18.2422 4.25781 16.8799 2.90039Q15.5176 1.54297 13.7256 0.771484Q11.9336 0 9.89258 0Q7.8418 0 6.0498 0.766602Q4.25781 1.5332 2.89551 2.89551Q1.5332 4.25781 0.766602 6.0498Q0 7.8418 0 9.89258Q0 11.8457 0.698242 13.5645Q1.39648 15.2832 2.6416 16.6211Q3.88672 17.959 5.54199 18.7793Q7.19727 19.5996 9.10156 19.7461L9.10156 20.8496L5.63477 20.8496Q4.94141 20.8496 4.52637 21.2012Q4.11133 21.5527 4.11133 22.0996Q4.11133 22.3926 4.27246 22.5684Q4.43359 22.7441 4.70703 22.7441Z" fill="#007aff"/>
  <path d="M6.67969 16.2988Q6.01562 16.2988 5.37598 15.9473Q4.73633 15.5957 4.21387 15.0049Q3.69141 14.4141 3.37891 13.6768Q3.06641 12.9395 3.06641 12.168Q3.06641 11.3184 3.52539 10.8887Q3.98438 10.459 4.84375 10.459L7.08984 10.459Q7.06055 10.3223 7.0459 10.1611Q7.03125 10 7.03125 9.86328Q5.35156 9.22852 4.44336 8.54492Q3.53516 7.86133 3.53516 6.73828Q3.53516 6.07422 3.88672 5.43457Q4.23828 4.79492 4.83398 4.27246Q5.42969 3.75 6.16699 3.4375Q6.9043 3.125 7.67578 3.125Q8.52539 3.125 8.95508 3.5791Q9.38477 4.0332 9.38477 4.90234L9.38477 7.07031Q9.53125 7.03125 9.69727 7.02637Q9.86328 7.02148 10 7.02148Q10.625 5.36133 11.3086 4.47754Q11.9922 3.59375 13.1055 3.59375Q13.7598 3.59375 14.3994 3.94531Q15.0391 4.29688 15.5615 4.8877Q16.084 5.47852 16.4014 6.21582Q16.7188 6.95312 16.7188 7.72461Q16.7188 8.57422 16.2598 9.00391Q15.8008 9.43359 14.9316 9.43359L12.7344 9.43359Q12.7539 9.59961 12.7588 9.74121Q12.7637 9.88281 12.7539 10.0391Q14.4336 10.6738 15.3369 11.3574Q16.2402 12.041 16.2402 13.1641Q16.2402 13.8184 15.8887 14.458Q15.5371 15.0977 14.9463 15.625Q14.3555 16.1523 13.6182 16.4648Q12.8809 16.7773 12.1094 16.7773Q11.2598 16.7773 10.8301 16.3184Q10.4004 15.8594 10.4004 14.9902L10.4004 12.7148Q10.2637 12.7344 10.1318 12.7441Q10 12.7539 9.84375 12.7441Q9.18945 14.4629 8.49609 15.3809Q7.80273 16.2988 6.67969 16.2988ZM9.89258 11.377Q10.4883 11.377 10.9033 10.9619Q11.3184 10.5469 11.3184 9.95117Q11.3184 9.35547 10.9033 8.93555Q10.4883 8.51562 9.89258 8.51562Q9.28711 8.51562 8.87207 8.93555Q8.45703 9.35547 8.45703 9.95117Q8.45703 10.5469 8.87695 10.9619Q9.29688 11.377 9.89258 11.377Z" fill="#ffffff"/>
 </g>
</svg>
