<?xml version="1.0" encoding="UTF-8"?>
<!--Generator: Apple Native CoreSVG 175.5-->
<!DOCTYPE svg
PUBLIC "-//W3C//DTD SVG 1.1//EN"
       "http://www.w3.org/Graphics/SVG/1.1/DTD/svg11.dtd">
<svg version="1.1" xmlns="http://www.w3.org/2000/svg" xmlns:xlink="http://www.w3.org/1999/xlink" width="22.0605" height="21.3574">
 <g>
  <rect height="21.3574" opacity="0" width="22.0605" x="0" y="0"/>
  <path d="M3.86719 4.47266L5.38086 4.47266L5.38086 2.96875Q5.38086 2.35352 5.68848 2.05078Q5.99609 1.74805 6.61133 1.74805L15.4492 1.74805Q16.0645 1.74805 16.3721 2.05078Q16.6797 2.35352 16.6797 2.96875L16.6797 4.45312L18.1934 4.45312L18.1934 3.07617Q18.1934 1.65039 17.4951 0.986328Q16.7969 0.322266 15.4297 0.322266L6.63086 0.322266Q5.3418 0.322266 4.60449 0.986328Q3.86719 1.65039 3.86719 3.07617ZM2.91016 18.457L4.84375 18.457L4.84375 16.9824L2.89062 16.9824Q2.23633 16.9824 1.90918 16.6504Q1.58203 16.3184 1.58203 15.6738L1.58203 6.37695Q1.58203 5.73242 1.90918 5.40039Q2.23633 5.06836 2.89062 5.06836L19.1797 5.06836Q19.8242 5.06836 20.1562 5.40039Q20.4883 5.73242 20.4883 6.37695L20.4883 15.6738Q20.4883 16.3184 20.1562 16.6504Q19.8242 16.9824 19.1797 16.9824L17.3535 16.9824L17.3535 18.457L19.1602 18.457Q20.5859 18.457 21.3232 17.7393Q22.0605 17.0215 22.0605 15.5957L22.0605 6.45508Q22.0605 5.0293 21.3232 4.31152Q20.5859 3.59375 19.1602 3.59375L2.91016 3.59375Q1.55273 3.59375 0.776367 4.31152Q0 5.0293 0 6.45508L0 15.5957Q0 17.0215 0.742188 17.7393Q1.48438 18.457 2.91016 18.457ZM5.80078 21.3574L16.2598 21.3574Q17.1875 21.3574 17.6562 20.9082Q18.125 20.459 18.125 19.4922L18.125 15.3809Q18.125 14.4141 17.6562 13.9648Q17.1875 13.5156 16.2598 13.5156L5.80078 13.5156Q4.91211 13.5156 4.42383 13.9648Q3.93555 14.4141 3.93555 15.3809L3.93555 19.4922Q3.93555 20.459 4.4043 20.9082Q4.87305 21.3574 5.80078 21.3574ZM6.28906 19.8828Q5.89844 19.8828 5.70312 19.6924Q5.50781 19.502 5.50781 19.1016L5.50781 15.7617Q5.50781 15.3711 5.70312 15.1807Q5.89844 14.9902 6.28906 14.9902L15.7812 14.9902Q16.1719 14.9902 16.3623 15.1807Q16.5527 15.3711 16.5527 15.7617L16.5527 19.1016Q16.5527 19.502 16.3623 19.6924Q16.1719 19.8828 15.7812 19.8828ZM6.96289 17.4219Q6.96289 17.7344 7.17773 17.9541Q7.39258 18.1738 7.70508 18.1738L14.3652 18.1738Q14.668 18.1738 14.8828 17.9541Q15.0977 17.7344 15.0977 17.4219Q15.0977 17.1191 14.8828 16.9043Q14.668 16.6895 14.3652 16.6895L7.70508 16.6895Q7.39258 16.6895 7.17773 16.9043Q6.96289 17.1191 6.96289 17.4219ZM5.77148 8.53516L6.66992 8.53516Q7.10938 8.53516 7.10938 8.0957L7.10938 7.20703Q7.10938 6.76758 6.66992 6.76758L5.77148 6.76758Q5.3418 6.76758 5.3418 7.20703L5.3418 8.0957Q5.3418 8.53516 5.77148 8.53516ZM8.98438 8.53516L9.87305 8.53516Q10.3125 8.53516 10.3125 8.0957L10.3125 7.20703Q10.3125 6.76758 9.87305 6.76758L8.98438 6.76758Q8.54492 6.76758 8.54492 7.20703L8.54492 8.0957Q8.54492 8.53516 8.98438 8.53516ZM12.1875 8.53516L13.0859 8.53516Q13.5156 8.53516 13.5156 8.0957L13.5156 7.20703Q13.5156 6.76758 13.0859 6.76758L12.1875 6.76758Q11.748 6.76758 11.748 7.20703L11.748 8.0957Q11.748 8.53516 12.1875 8.53516ZM15.3906 8.53516L16.2891 8.53516Q16.7285 8.53516 16.7285 8.0957L16.7285 7.20703Q16.7285 6.76758 16.2891 6.76758L15.3906 6.76758Q14.9609 6.76758 14.9609 7.20703L14.9609 8.0957Q14.9609 8.53516 15.3906 8.53516ZM5.77148 11.8262L6.66992 11.8262Q7.10938 11.8262 7.10938 11.3867L7.10938 10.4883Q7.10938 10.0488 6.66992 10.0488L5.77148 10.0488Q5.3418 10.0488 5.3418 10.4883L5.3418 11.3867Q5.3418 11.8262 5.77148 11.8262ZM8.98438 11.8262L9.87305 11.8262Q10.3125 11.8262 10.3125 11.3867L10.3125 10.4883Q10.3125 10.0488 9.87305 10.0488L8.98438 10.0488Q8.54492 10.0488 8.54492 10.4883L8.54492 11.3867Q8.54492 11.8262 8.98438 11.8262ZM12.1875 11.8262L13.0859 11.8262Q13.5156 11.8262 13.5156 11.3867L13.5156 10.4883Q13.5156 10.0488 13.0859 10.0488L12.1875 10.0488Q11.748 10.0488 11.748 10.4883L11.748 11.3867Q11.748 11.8262 12.1875 11.8262ZM15.3906 11.8262L16.2891 11.8262Q16.7285 11.8262 16.7285 11.3867L16.7285 10.4883Q16.7285 10.0488 16.2891 10.0488L15.3906 10.0488Q14.9609 10.0488 14.9609 10.4883L14.9609 11.3867Q14.9609 11.8262 15.3906 11.8262Z" fill="#ffffff"/>
 </g>
</svg>
