<?xml version="1.0" encoding="UTF-8"?>
<!--Generator: Apple Native CoreSVG 175.5-->
<!DOCTYPE svg
PUBLIC "-//W3C//DTD SVG 1.1//EN"
       "http://www.w3.org/Graphics/SVG/1.1/DTD/svg11.dtd">
<svg version="1.1" xmlns="http://www.w3.org/2000/svg" xmlns:xlink="http://www.w3.org/1999/xlink" width="23.1152" height="14.2871">
 <g>
  <rect height="14.2871" opacity="0" width="23.1152" x="0" y="0"/>
  <path d="M15.4492 5.03906Q16.0449 5.03906 16.5283 4.75098Q17.0117 4.46289 17.2998 3.97949Q17.5879 3.49609 17.5879 2.91016Q17.5879 2.31445 17.2998 1.83105Q17.0117 1.34766 16.5283 1.05957Q16.0449 0.771484 15.4492 0.771484Q14.8633 0.771484 14.375 1.05957Q13.8867 1.34766 13.6035 1.83105Q13.3203 2.31445 13.3203 2.91016Q13.3203 3.49609 13.6035 3.97949Q13.8867 4.46289 14.375 4.75098Q14.8633 5.03906 15.4492 5.03906ZM11.5527 8.99414Q12.207 8.99414 12.6611 8.82812Q13.1152 8.66211 13.501 8.41309Q13.8867 8.16406 14.3066 7.9248Q14.7266 7.68555 15.3027 7.53906L8.53516 0.498047Q8.20312 0.15625 7.75879 0.117188Q7.31445 0.078125 6.92383 0.361328L3.0957 3.08594Q2.59766 3.4375 2.59277 3.89648Q2.58789 4.35547 2.88086 4.6582Q3.11523 4.92188 3.51074 4.99023Q3.90625 5.05859 4.31641 4.76562L7.42188 2.56836L9.17969 4.375Q9.32617 4.53125 9.34082 4.73633Q9.35547 4.94141 9.13086 5.09766L5.51758 7.4707Q5.83008 7.44141 6.17188 7.43164Q6.51367 7.42188 6.9043 7.44141Q7.73438 7.4707 8.29102 7.71484Q8.84766 7.95898 9.30664 8.25684Q9.76562 8.55469 10.2832 8.77441Q10.8008 8.99414 11.5527 8.99414ZM0.546875 11.5723L1.5332 11.5723Q2.50977 11.5723 3.16895 11.333Q3.82812 11.0938 4.34082 10.7764Q4.85352 10.459 5.36133 10.2148Q5.86914 9.9707 6.54297 9.9707Q7.22656 9.9707 7.73438 10.2148Q8.24219 10.459 8.75 10.7764Q9.25781 11.0938 9.91699 11.333Q10.5762 11.5723 11.5527 11.5723Q12.5391 11.5723 13.1982 11.333Q13.8574 11.0938 14.3652 10.7764Q14.873 10.459 15.3809 10.2148Q15.8887 9.9707 16.5723 9.9707Q17.2461 9.9707 17.7539 10.2148Q18.2617 10.459 18.7695 10.7764Q19.2773 11.0938 19.9365 11.333Q20.5957 11.5723 21.582 11.5723L22.5684 11.5723Q22.8027 11.5723 22.959 11.416Q23.1152 11.2598 23.1152 11.0352Q23.1152 10.8105 22.959 10.6494Q22.8027 10.4883 22.5684 10.4883L21.582 10.4883Q20.8789 10.4883 20.3516 10.249Q19.8242 10.0098 19.3115 9.69238Q18.7988 9.375 18.1543 9.13086Q17.5098 8.88672 16.5723 8.88672Q15.625 8.88672 14.9805 9.13086Q14.3359 9.375 13.8232 9.69238Q13.3105 10.0098 12.7832 10.249Q12.2559 10.4883 11.5527 10.4883Q10.8496 10.4883 10.3223 10.249Q9.79492 10.0098 9.28223 9.69238Q8.76953 9.375 8.125 9.13086Q7.48047 8.88672 6.54297 8.88672Q5.60547 8.88672 4.96094 9.13086Q4.31641 9.375 3.80371 9.69238Q3.29102 10.0098 2.76367 10.249Q2.23633 10.4883 1.5332 10.4883L0.546875 10.4883Q0.3125 10.4883 0.15625 10.6494Q0 10.8105 0 11.0352Q0 11.2598 0.15625 11.416Q0.3125 11.5723 0.546875 11.5723ZM0.800781 14.2871Q1.04492 14.2871 1.21094 14.1211Q1.37695 13.9551 1.37695 13.7207Q1.37695 13.4766 1.21094 13.3105Q1.04492 13.1445 0.800781 13.1445Q0.566406 13.1445 0.400391 13.3105Q0.234375 13.4766 0.234375 13.7207Q0.234375 13.9551 0.400391 14.1211Q0.566406 14.2871 0.800781 14.2871ZM2.63672 13.9551Q2.87109 13.9551 3.03711 13.7939Q3.20312 13.6328 3.20312 13.3887Q3.20312 13.1543 3.03711 12.9883Q2.87109 12.8223 2.63672 12.8223Q2.39258 12.8223 2.22656 12.9883Q2.06055 13.1543 2.06055 13.3887Q2.06055 13.6328 2.22656 13.7939Q2.39258 13.9551 2.63672 13.9551ZM4.3457 13.1543Q4.58984 13.1543 4.75586 12.9883Q4.92188 12.8223 4.92188 12.5781Q4.92188 12.3438 4.75586 12.1777Q4.58984 12.0117 4.3457 12.0117Q4.11133 12.0117 3.94531 12.1777Q3.7793 12.3438 3.7793 12.5781Q3.7793 12.8223 3.94531 12.9883Q4.11133 13.1543 4.3457 13.1543ZM6.19141 12.7148Q6.43555 12.7148 6.60156 12.5488Q6.76758 12.3828 6.76758 12.1484Q6.76758 11.9043 6.60156 11.7383Q6.43555 11.5723 6.19141 11.5723Q5.95703 11.5723 5.79102 11.7383Q5.625 11.9043 5.625 12.1484Q5.625 12.3828 5.79102 12.5488Q5.95703 12.7148 6.19141 12.7148ZM8.03711 13.1543Q8.27148 13.1543 8.4375 12.9883Q8.60352 12.8223 8.60352 12.5781Q8.60352 12.3438 8.4375 12.1777Q8.27148 12.0117 8.03711 12.0117Q7.79297 12.0117 7.63184 12.1777Q7.4707 12.3438 7.4707 12.5781Q7.4707 12.8223 7.63184 12.9883Q7.79297 13.1543 8.03711 13.1543ZM9.76562 13.9551Q10.0098 13.9551 10.1758 13.7939Q10.3418 13.6328 10.3418 13.3887Q10.3418 13.1543 10.1758 12.9883Q10.0098 12.8223 9.76562 12.8223Q9.53125 12.8223 9.36523 12.9883Q9.19922 13.1543 9.19922 13.3887Q9.19922 13.6328 9.36523 13.7939Q9.53125 13.9551 9.76562 13.9551ZM11.5723 14.2871Q11.8066 14.2871 11.9727 14.1211Q12.1387 13.9551 12.1387 13.7207Q12.1387 13.4766 11.9727 13.3105Q11.8066 13.1445 11.5723 13.1445Q11.3281 13.1445 11.1621 13.3105Q10.9961 13.4766 10.9961 13.7207Q10.9961 13.9551 11.1621 14.1211Q11.3281 14.2871 11.5723 14.2871ZM13.3691 13.9551Q13.6133 13.9551 13.7744 13.7939Q13.9355 13.6328 13.9355 13.3887Q13.9355 13.1543 13.7744 12.9883Q13.6133 12.8223 13.3691 12.8223Q13.1348 12.8223 12.9688 12.9883Q12.8027 13.1543 12.8027 13.3887Q12.8027 13.6328 12.9688 13.7939Q13.1348 13.9551 13.3691 13.9551ZM15.0977 13.1543Q15.3418 13.1543 15.5078 12.9883Q15.6738 12.8223 15.6738 12.5781Q15.6738 12.3438 15.5078 12.1777Q15.3418 12.0117 15.0977 12.0117Q14.8633 12.0117 14.6973 12.1777Q14.5312 12.3438 14.5312 12.5781Q14.5312 12.8223 14.6973 12.9883Q14.8633 13.1543 15.0977 13.1543ZM16.9434 12.7148Q17.1875 12.7148 17.3486 12.5488Q17.5098 12.3828 17.5098 12.1484Q17.5098 11.9043 17.3486 11.7383Q17.1875 11.5723 16.9434 11.5723Q16.709 11.5723 16.543 11.7383Q16.377 11.9043 16.377 12.1484Q16.377 12.3828 16.543 12.5488Q16.709 12.7148 16.9434 12.7148ZM18.7891 13.1543Q19.0332 13.1543 19.1943 12.9883Q19.3555 12.8223 19.3555 12.5781Q19.3555 12.3438 19.1943 12.1777Q19.0332 12.0117 18.7891 12.0117Q18.5547 12.0117 18.3887 12.1777Q18.2227 12.3438 18.2227 12.5781Q18.2227 12.8223 18.3887 12.9883Q18.5547 13.1543 18.7891 13.1543ZM20.5078 13.9551Q20.7422 13.9551 20.9082 13.7939Q21.0742 13.6328 21.0742 13.3887Q21.0742 13.1543 20.9082 12.9883Q20.7422 12.8223 20.5078 12.8223Q20.2637 12.8223 20.1025 12.9883Q19.9414 13.1543 19.9414 13.3887Q19.9414 13.6328 20.1025 13.7939Q20.2637 13.9551 20.5078 13.9551ZM22.3242 14.2871Q22.5684 14.2871 22.7344 14.1211Q22.9004 13.9551 22.9004 13.7207Q22.9004 13.4766 22.7344 13.3105Q22.5684 13.1445 22.3242 13.1445Q22.0898 13.1445 21.9238 13.3105Q21.7578 13.4766 21.7578 13.7207Q21.7578 13.9551 21.9238 14.1211Q22.0898 14.2871 22.3242 14.2871Z" fill="#ffffff"/>
 </g>
</svg>
