<?xml version="1.0" encoding="UTF-8"?>
<!--Generator: Apple Native CoreSVG 175.5-->
<!DOCTYPE svg
PUBLIC "-//W3C//DTD SVG 1.1//EN"
       "http://www.w3.org/Graphics/SVG/1.1/DTD/svg11.dtd">
<svg version="1.1" xmlns="http://www.w3.org/2000/svg" xmlns:xlink="http://www.w3.org/1999/xlink" width="16.9411" height="23.916">
 <g>
  <rect height="23.916" opacity="0" width="16.9411" x="0" y="0"/>
  <path d="M7.69727 6.24023Q8.2832 6.24023 8.76172 5.95703Q9.24023 5.67383 9.52832 5.18555Q9.81641 4.69727 9.81641 4.11133Q9.81641 3.52539 9.52832 3.04199Q9.24023 2.55859 8.76172 2.27539Q8.2832 1.99219 7.69727 1.99219Q7.10156 1.99219 6.61816 2.27539Q6.13477 2.55859 5.84668 3.04199Q5.55859 3.52539 5.55859 4.11133Q5.55859 4.69727 5.84668 5.18555Q6.13477 5.67383 6.61816 5.95703Q7.10156 6.24023 7.69727 6.24023ZM2.30664 23.7207Q2.7168 23.7891 3.04883 23.5547Q3.38086 23.3203 3.46875 22.8906L4.39648 17.9004L8.2832 15.791Q8.45898 15.6836 8.53711 15.8594L10.5 20.5957Q10.5879 20.791 10.7197 20.9229Q10.8516 21.0547 11.0176 21.1426L15.4316 23.5938Q15.8516 23.8281 16.2422 23.6865Q16.6328 23.5449 16.8086 23.2129Q17.0137 22.8516 16.9014 22.4414Q16.7891 22.0312 16.418 21.8262L12.3066 19.5508L9.52344 8.4082Q9.39648 7.91016 9.00098 7.58789Q8.60547 7.26562 8.06836 7.26562L2.10156 7.26562L4.89453 1.32812Q5.08008 0.927734 4.99219 0.629883Q4.9043 0.332031 4.65527 0.166016Q4.40625 0 4.11328 0Q3.86914 0 3.64453 0.136719Q3.41992 0.273438 3.29297 0.576172L0.0703125 8.97461Q-0.046875 9.26758 0.03125 9.53613Q0.109375 9.80469 0.285156 9.99023L2.77539 12.4902Q3.05859 12.7734 3.47852 12.7734Q3.89844 12.7734 4.19141 12.4902L5.29492 11.377Q5.40234 11.2695 5.53906 11.2793Q5.67578 11.2891 5.72461 11.4453L6.32031 13.8379L2.87305 16.4258Q2.6875 16.5625 2.59473 16.7676Q2.50195 16.9727 2.46289 17.1777L1.49609 22.5391Q1.41797 22.9395 1.65723 23.2861Q1.89648 23.6328 2.30664 23.7207ZM4.51367 9.27734L3.47852 10.3125L2.44336 9.27734Z" fill="#ffffff"/>
 </g>
</svg>
