<?xml version="1.0" encoding="UTF-8"?>
<!--Generator: Apple Native CoreSVG 175.5-->
<!DOCTYPE svg
PUBLIC "-//W3C//DTD SVG 1.1//EN"
       "http://www.w3.org/Graphics/SVG/1.1/DTD/svg11.dtd">
<svg version="1.1" xmlns="http://www.w3.org/2000/svg" xmlns:xlink="http://www.w3.org/1999/xlink" width="19.4249" height="22.4512">
 <g>
  <rect height="22.4512" opacity="0" width="19.4249" x="0" y="0"/>
  <path d="M12.7012 4.26758Q13.2872 4.26758 13.7706 3.98438Q14.254 3.70117 14.542 3.21289Q14.8301 2.72461 14.8301 2.13867Q14.8301 1.54297 14.542 1.05957Q14.254 0.576172 13.7706 0.288086Q13.2872 0 12.7012 0Q12.1055 0 11.6221 0.288086Q11.1387 0.576172 10.8506 1.05957Q10.5626 1.54297 10.5626 2.13867Q10.5626 2.72461 10.8506 3.21289Q11.1387 3.70117 11.6221 3.98438Q12.1055 4.26758 12.7012 4.26758ZM2.91607 11.3574Q3.36529 11.5625 3.73638 11.4062Q4.10747 11.25 4.28325 10.8984L6.07036 7.33398L8.20904 7.33398Q8.38482 7.33398 8.47271 7.46582Q8.5606 7.59766 8.47271 7.75391L6.59771 11.4746Q6.3438 11.9922 6.35845 12.5342Q6.3731 13.0762 6.64165 13.5303Q6.91021 13.9844 7.39849 14.248Q7.88677 14.5117 8.57036 14.4727L13.6192 14.1602L11.754 18.3008Q11.5782 18.7012 11.7247 19.1113Q11.8711 19.5215 12.2715 19.668Q12.711 19.834 13.0723 19.7021Q13.4336 19.5703 13.6192 19.1504L16.2168 13.4473Q16.3633 13.1348 16.2852 12.7979Q16.2071 12.4609 15.9532 12.2217Q15.6993 11.9824 15.3086 11.9824L10.7286 11.9824L12.7598 7.92969Q12.8184 7.80273 12.9502 7.77344Q13.0821 7.74414 13.1895 7.85156L15.5821 10.1367Q15.8262 10.3613 16.1534 10.415Q16.4805 10.4688 16.7784 10.332Q17.0762 10.1953 17.2422 9.86328L19.3028 5.72266Q19.4981 5.33203 19.3809 4.92676Q19.2637 4.52148 18.8536 4.32617Q18.4727 4.14062 18.0626 4.28223Q17.6524 4.42383 17.4668 4.80469L16.0215 7.65625L14.8497 6.47461Q14.254 5.87891 13.5752 5.57617Q12.8965 5.27344 11.9297 5.27344L5.4356 5.27344Q5.14263 5.27344 4.89849 5.42969Q4.65435 5.58594 4.5274 5.83984L2.43755 9.99023Q2.252 10.3711 2.38384 10.7666Q2.51568 11.1621 2.91607 11.3574ZM0.113333 21.3867Q0.279348 21.7285 0.538137 21.8652Q0.796926 22.002 1.05572 22.002Q1.3145 22.002 1.48052 21.9238L6.63677 19.6777Q6.97857 19.5312 7.14458 19.1895L9.02935 15.3906L8.62896 15.4199Q8.01372 15.459 7.49126 15.2979Q6.9688 15.1367 6.56841 14.834L5.4063 17.9492L0.650442 20Q0.240286 20.1758 0.0742701 20.5762Q-0.0917455 20.9766 0.113333 21.3867ZM17.1543 22.3535Q17.7598 22.3535 18.2432 22.0703Q18.7266 21.7871 19.0147 21.3037Q19.3028 20.8203 19.3028 20.2148Q19.3028 19.6289 19.0147 19.1455Q18.7266 18.6621 18.2432 18.374Q17.7598 18.0859 17.1543 18.0859Q16.5684 18.0859 16.085 18.374Q15.6016 18.6621 15.3184 19.1455Q15.0352 19.6289 15.0352 20.2148Q15.0352 20.8203 15.3184 21.3037Q15.6016 21.7871 16.085 22.0703Q16.5684 22.3535 17.1543 22.3535Z" fill="#ffffff"/>
 </g>
</svg>
