<?xml version="1.0" encoding="UTF-8"?>
<!--Generator: Apple Native CoreSVG 175.5-->
<!DOCTYPE svg
PUBLIC "-//W3C//DTD SVG 1.1//EN"
       "http://www.w3.org/Graphics/SVG/1.1/DTD/svg11.dtd">
<svg version="1.1" xmlns="http://www.w3.org/2000/svg" xmlns:xlink="http://www.w3.org/1999/xlink" width="24.7363" height="18.877">
 <g>
  <rect height="18.877" opacity="0" width="24.7363" x="0" y="0"/>
  <path d="M12.373 14.9121Q12.7734 14.9121 13.0615 14.624Q13.3496 14.3359 13.3496 13.9355L13.3496 9.02344Q13.3496 8.66211 13.0762 8.35938L10.5176 5.50781Q10.4004 5.37109 10.4639 5.21973Q10.5273 5.06836 10.7129 5.06836L13.8477 5.06836Q14.1309 5.06836 14.2383 5.23926Q14.3457 5.41016 14.3457 5.60547L14.3457 8.03711Q14.3457 8.4375 14.6338 8.7207Q14.9219 9.00391 15.3223 9.00391L19.2578 9.00391Q19.6582 9.00391 19.9414 8.7207Q20.2246 8.4375 20.2246 8.03711Q20.2246 7.62695 19.9414 7.34375Q19.6582 7.06055 19.2578 7.06055L16.2988 7.06055L16.2988 3.60352Q16.2988 2.7832 15.7275 2.21191Q15.1562 1.64062 14.3359 1.64062L9.54102 1.64062Q8.78906 1.64062 8.17871 2.05566Q7.56836 2.4707 7.27539 3.1543Q6.99219 3.84766 7.13867 4.5752Q7.28516 5.30273 7.8125 5.83008L11.3965 9.43359L11.3965 13.9355Q11.3965 14.3359 11.6797 14.624Q11.9629 14.9121 12.373 14.9121ZM5.30273 18.7598Q6.41602 18.7598 7.37793 18.3496Q8.33984 17.9395 9.06738 17.207Q9.79492 16.4746 10.2051 15.5127Q10.6152 14.5508 10.6152 13.4473Q10.6152 12.3438 10.2051 11.3818Q9.79492 10.4199 9.06738 9.6875Q8.33984 8.95508 7.37793 8.54492Q6.41602 8.13477 5.30273 8.13477Q4.19922 8.13477 3.2373 8.54492Q2.27539 8.95508 1.54785 9.6875Q0.820312 10.4199 0.410156 11.3818Q0 12.3438 0 13.4473Q0 14.5508 0.410156 15.5127Q0.820312 16.4746 1.54785 17.207Q2.27539 17.9395 3.2373 18.3496Q4.19922 18.7598 5.30273 18.7598ZM5.30273 17.3828Q4.22852 17.3828 3.33496 16.8506Q2.44141 16.3184 1.90918 15.4248Q1.37695 14.5312 1.37695 13.4473Q1.37695 12.3633 1.90918 11.4697Q2.44141 10.5762 3.33496 10.0439Q4.22852 9.51172 5.30273 9.51172Q6.38672 9.51172 7.28027 10.0439Q8.17383 10.5762 8.70605 11.4697Q9.23828 12.3633 9.23828 13.4473Q9.23828 14.5312 8.70605 15.4248Q8.17383 16.3184 7.28027 16.8506Q6.38672 17.3828 5.30273 17.3828ZM22.0508 10.5273Q22.6465 11.0645 23.0029 11.8213Q23.3594 12.5781 23.3594 13.4473Q23.3594 14.5312 22.8271 15.4248Q22.2949 16.3184 21.4062 16.8506Q20.5176 17.3828 19.4336 17.3828Q18.3496 17.3828 17.4561 16.8506Q16.5625 16.3184 16.0303 15.4248Q15.498 14.5312 15.498 13.4473Q15.498 12.627 15.8105 11.8945Q15.9766 11.4941 15.8496 11.2305Q15.7227 10.9668 15.4688 10.8789Q15.2246 10.7812 14.9756 10.874Q14.7266 10.9668 14.5898 11.2793Q14.3652 11.7871 14.2432 12.3291Q14.1211 12.8711 14.1211 13.4473Q14.1211 14.5508 14.5312 15.5127Q14.9414 16.4746 15.6689 17.207Q16.3965 17.9395 17.3633 18.3496Q18.3301 18.7598 19.4336 18.7598Q20.5371 18.7598 21.499 18.3496Q22.4609 17.9395 23.1885 17.207Q23.916 16.4746 24.3262 15.5127Q24.7363 14.5508 24.7363 13.4473Q24.7363 12.2461 24.248 11.2207Q23.7598 10.1953 22.9199 9.45312Q22.6465 9.21875 22.3682 9.25293Q22.0898 9.28711 21.9043 9.48242Q21.7285 9.67773 21.7334 9.96582Q21.7383 10.2539 22.0508 10.5273ZM19.4336 4.26758Q20.0195 4.26758 20.498 3.97949Q20.9766 3.69141 21.2646 3.20801Q21.5527 2.72461 21.5527 2.12891Q21.5527 1.54297 21.2646 1.05957Q20.9766 0.576172 20.498 0.288086Q20.0195 0 19.4336 0Q18.8379 0 18.3496 0.288086Q17.8613 0.576172 17.5732 1.05957Q17.2852 1.54297 17.2852 2.12891Q17.2852 2.72461 17.5732 3.20801Q17.8613 3.69141 18.3496 3.97949Q18.8379 4.26758 19.4336 4.26758Z" fill="#ffffff"/>
 </g>
</svg>
