<?xml version="1.0" encoding="UTF-8"?>
<!--Generator: Apple Native CoreSVG 175.5-->
<!DOCTYPE svg
PUBLIC "-//W3C//DTD SVG 1.1//EN"
       "http://www.w3.org/Graphics/SVG/1.1/DTD/svg11.dtd">
<svg version="1.1" xmlns="http://www.w3.org/2000/svg" xmlns:xlink="http://www.w3.org/1999/xlink" width="23.5352" height="23.2999">
 <g>
  <rect height="23.2999" opacity="0" width="23.5352" x="0" y="0"/>
  <path d="M2.54883 1.37163L4.15039 1.37163Q4.10156 1.10795 4.13086 0.824751Q4.16016 0.541548 4.25781 0.287642L2.54883 0.287642Q2.31445 0.287642 2.1582 0.448775Q2.00195 0.609908 2.00195 0.834517Q2.00195 1.05913 2.1582 1.21538Q2.31445 1.37163 2.54883 1.37163ZM8.65234 1.37163L17.6562 1.37163L18.2715 0.463423Q18.3008 0.424361 18.3301 0.380415Q18.3594 0.33647 18.3887 0.287642L7.92969 0.287642Q7.95898 0.33647 7.98828 0.380415Q8.01758 0.424361 8.04688 0.473189ZM22.168 1.37163L22.998 1.37163Q23.2227 1.37163 23.3789 1.21538Q23.5352 1.05913 23.5352 0.834517Q23.5352 0.609908 23.3789 0.448775Q23.2227 0.287642 22.998 0.287642L22.0605 0.287642Q22.1582 0.541548 22.1875 0.819869Q22.2168 1.09819 22.168 1.37163ZM13.2227 6.6353Q13.8184 6.6353 14.3018 6.3521Q14.7852 6.06889 15.0732 5.58061Q15.3613 5.09233 15.3613 4.50639Q15.3613 3.91069 15.0732 3.42729Q14.7852 2.94389 14.3018 2.65581Q13.8184 2.36772 13.2227 2.36772Q12.6367 2.36772 12.1533 2.65581Q11.6699 2.94389 11.3818 3.42729Q11.0938 3.91069 11.0938 4.50639Q11.0938 5.09233 11.3818 5.58061Q11.6699 6.06889 12.1533 6.3521Q12.6367 6.6353 13.2227 6.6353ZM8.04688 15.2974Q8.63281 16.0103 9.39453 16.1958Q10.1562 16.3814 10.8838 16.0933Q11.6113 15.8052 12.0898 15.0826L21.0938 1.606Q21.3281 1.25444 21.2451 0.8394Q21.1621 0.424361 20.8105 0.189986Q20.4688-0.0443892 20.0537 0.0386186Q19.6387 0.121626 19.3945 0.473189L15.3223 6.59624Q14.9805 7.12358 14.4141 7.39702Q13.8477 7.67045 13.2227 7.67045Q12.5586 7.67045 11.9189 7.35307Q11.2793 7.03569 10.8496 6.39116L6.92383 0.473189Q6.68945 0.121626 6.2793 0.0386186Q5.86914-0.0443892 5.50781 0.189986Q5.15625 0.424361 5.07324 0.8394Q4.99023 1.25444 5.22461 1.606L10.0391 8.8228Q10.2051 9.0767 10.21 9.38432Q10.2148 9.69194 10.0391 9.94585L8.70117 11.9673L5.77148 9.42827Q5.46875 9.15483 5.04395 9.14995Q4.61914 9.14506 4.27734 9.48686L0.302734 13.481Q0 13.7837 0 14.1988Q0 14.6138 0.302734 14.9068Q0.634766 15.2193 1.04004 15.2046Q1.44531 15.19 1.71875 14.9068L5 11.6451ZM10.4492 22.8462Q10.6836 22.4947 10.6006 22.0992Q10.5176 21.7037 10.166 21.4595L6.5918 19.0669L8.56445 16.8892Q8.23242 16.733 7.91992 16.4839Q7.60742 16.2349 7.32422 15.9029L6.62109 15.0826L4.21875 18.6958Q3.98438 19.0376 4.0625 19.4527Q4.14062 19.8677 4.49219 20.1119L9.0625 23.1294Q9.41406 23.3638 9.81934 23.2759Q10.2246 23.188 10.4492 22.8462Z" fill="#ffffff"/>
 </g>
</svg>
