<?xml version="1.0" encoding="UTF-8"?>
<!--Generator: Apple Native CoreSVG 175.5-->
<!DOCTYPE svg
PUBLIC "-//W3C//DTD SVG 1.1//EN"
       "http://www.w3.org/Graphics/SVG/1.1/DTD/svg11.dtd">
<svg version="1.1" xmlns="http://www.w3.org/2000/svg" xmlns:xlink="http://www.w3.org/1999/xlink" width="21.6406" height="18.7012">
 <g>
  <rect height="18.7012" opacity="0" width="21.6406" x="0" y="0"/>
  <path d="M12.3535 4.26758Q12.9395 4.26758 13.4229 3.97949Q13.9062 3.69141 14.1943 3.20801Q14.4824 2.72461 14.4824 2.12891Q14.4824 1.54297 14.1943 1.05957Q13.9062 0.576172 13.4229 0.288086Q12.9395 0 12.3535 0Q11.7578 0 11.2744 0.288086Q10.791 0.576172 10.5029 1.05957Q10.2148 1.54297 10.2148 2.12891Q10.2148 2.72461 10.5029 3.20801Q10.791 3.69141 11.2744 3.97949Q11.7578 4.26758 12.3535 4.26758ZM13.8867 10.9961Q14.3164 10.9961 14.6191 10.6982Q14.9219 10.4004 14.9219 9.9707Q14.9219 9.54102 14.6191 9.24316Q14.3164 8.94531 13.8867 8.94531L10.3027 8.94531L10.3027 5.27344Q10.3027 4.66797 10 4.22852Q9.69727 3.78906 9.2041 3.58887Q8.71094 3.38867 8.14453 3.50586L2.10938 4.75586Q1.28906 4.92188 0.78125 5.42969Q0.273438 5.9375 0.102539 6.61621Q-0.0683594 7.29492 0.126953 7.9834Q0.322266 8.67188 0.917969 9.18945L4.66797 12.4902L4.66797 17.666Q4.66797 18.0859 4.9707 18.3887Q5.27344 18.6914 5.69336 18.6914Q6.11328 18.6914 6.41602 18.3887Q6.71875 18.0859 6.71875 17.666L6.71875 12.0996Q6.71875 11.6211 6.41602 11.2988L3.52539 8.38867Q3.4082 8.26172 3.45215 8.125Q3.49609 7.98828 3.64258 7.95898L7.70508 7.20703Q8.25195 7.09961 8.25195 7.61719L8.25195 9.9707Q8.25195 10.4004 8.55469 10.6982Q8.85742 10.9961 9.27734 10.9961ZM19.4043 14.873L20.8301 14.873Q21.2012 14.873 21.4209 14.6484Q21.6406 14.4238 21.6406 14.0625L21.6406 5.29297Q21.6406 4.95117 21.4209 4.73145Q21.2012 4.51172 20.8496 4.51172L19.3652 4.51172Q17.6172 4.51172 16.2744 4.84863Q14.9316 5.18555 13.7939 5.94727Q12.6562 6.70898 11.5527 7.99805L12.9883 7.99805Q13.0176 7.99805 13.042 7.99805Q13.0664 7.99805 13.0957 7.99805Q14.4043 6.70898 15.8643 6.17188Q17.3242 5.63477 19.3652 5.63477L20.5078 5.63477L20.5078 13.7305L19.4043 13.7305Q18.8672 13.7305 18.6133 13.252L17.7246 11.4746Q17.6074 11.2598 17.417 11.1963Q17.2266 11.1328 17.0508 11.1914Q16.8359 11.2695 16.709 11.4844Q16.582 11.6992 16.7188 11.9824L17.6172 13.7695Q17.8711 14.2676 18.3447 14.5703Q18.8184 14.873 19.4043 14.873ZM7.66602 14.3262Q8.36914 13.8281 8.94531 13.2129Q9.52148 12.5977 10.0293 11.9434L9.27734 11.9434Q9.11133 11.9434 8.95508 11.9141Q8.79883 11.8848 8.64258 11.8262Q8.41797 12.0996 8.17383 12.3535Q7.92969 12.6074 7.66602 12.8516ZM0.576172 15.8984L2.25586 15.8984Q2.64648 15.8984 3.0127 15.874Q3.37891 15.8496 3.7207 15.8008L3.7207 14.668Q3.38867 14.7168 3.01758 14.7461Q2.64648 14.7754 2.25586 14.7754L0.576172 14.7754Q0.332031 14.7754 0.166016 14.9365Q0 15.0977 0 15.3418Q0 15.5664 0.166016 15.7324Q0.332031 15.8984 0.576172 15.8984Z" fill="#ffffff"/>
 </g>
</svg>
