<?xml version="1.0" encoding="UTF-8"?>
<!--Generator: Apple Native CoreSVG 175.5-->
<!DOCTYPE svg
PUBLIC "-//W3C//DTD SVG 1.1//EN"
       "http://www.w3.org/Graphics/SVG/1.1/DTD/svg11.dtd">
<svg version="1.1" xmlns="http://www.w3.org/2000/svg" xmlns:xlink="http://www.w3.org/1999/xlink" width="26.9141" height="20.9473">
 <g>
  <rect height="20.9473" opacity="0" width="26.9141" x="0" y="0"/>
  <path d="M10.0879 2.99805Q10.7129 2.99805 11.1475 2.56836Q11.582 2.13867 11.582 1.50391Q11.582 0.878906 11.1475 0.439453Q10.7129 0 10.0879 0Q9.46289 0 9.02344 0.439453Q8.58398 0.878906 8.58398 1.50391Q8.58398 2.13867 9.02344 2.56836Q9.46289 2.99805 10.0879 2.99805ZM0.986328 16.3086L6.32812 16.3086Q6.55273 16.3086 6.6748 16.2891Q6.79688 16.2695 6.96289 16.2305L12.373 14.9219Q12.4414 14.9121 12.4854 14.9561Q12.5293 15 12.5293 15.0684L12.168 18.0176L10.0488 16.5039Q9.70703 16.2598 9.30176 16.333Q8.89648 16.4062 8.66211 16.7383Q8.4082 17.0703 8.47168 17.4854Q8.53516 17.9004 8.87695 18.1348L12.1484 20.4395Q12.5098 20.6934 12.8857 20.7275Q13.2617 20.7617 13.5547 20.5859Q13.8477 20.4102 13.9355 20.0391L16.6309 9.22852Q16.6992 9.00391 16.9238 9.05273L25.7324 10.8008Q26.2988 10.918 26.6064 10.5859Q26.9141 10.2539 26.9141 9.83398Q26.9141 9.51172 26.7236 9.22363Q26.5332 8.93555 26.123 8.85742L17.4414 7.10938Q16.1523 6.85547 15.1367 6.68945Q14.1211 6.52344 13.2324 6.44043Q12.3438 6.35742 11.4258 6.35742L8.97461 6.35742L8.97461 3.85742Q8.97461 3.4375 8.68164 3.14941Q8.38867 2.86133 7.97852 2.86133Q7.55859 2.86133 7.26562 3.14941Q6.97266 3.4375 6.97266 3.85742L6.97266 7.34375Q6.97266 7.75391 7.26562 8.04688Q7.55859 8.33984 7.97852 8.33984L12.0996 8.33984Q12.2363 8.33984 12.3193 8.44238Q12.4023 8.54492 12.3633 8.68164L11.5625 11.7676Q11.3574 12.5586 10.6055 12.8223L6.30859 14.3164L0.986328 14.3164Q0.566406 14.3164 0.283203 14.6094Q0 14.9023 0 15.3223Q0 15.7422 0.283203 16.0254Q0.566406 16.3086 0.986328 16.3086ZM15.6543 5.77148Q16.2402 5.77148 16.7236 5.4834Q17.207 5.19531 17.4951 4.70703Q17.7832 4.21875 17.7832 3.62305Q17.7832 3.03711 17.4951 2.55371Q17.207 2.07031 16.7236 1.78711Q16.2402 1.50391 15.6543 1.50391Q15.0586 1.50391 14.5752 1.78711Q14.0918 2.07031 13.8037 2.55371Q13.5156 3.03711 13.5156 3.62305Q13.5156 4.21875 13.8037 4.70703Q14.0918 5.19531 14.5752 5.4834Q15.0586 5.77148 15.6543 5.77148Z" fill="#ffffff"/>
 </g>
</svg>
