<?xml version="1.0" encoding="UTF-8"?>
<!--Generator: Apple Native CoreSVG 175.5-->
<!DOCTYPE svg
PUBLIC "-//W3C//DTD SVG 1.1//EN"
       "http://www.w3.org/Graphics/SVG/1.1/DTD/svg11.dtd">
<svg version="1.1" xmlns="http://www.w3.org/2000/svg" xmlns:xlink="http://www.w3.org/1999/xlink" width="25.5469" height="22.2559">
 <g>
  <rect height="22.2559" opacity="0" width="25.5469" x="0" y="0"/>
  <path d="M12.9004 4.26758Q13.4863 4.26758 13.9697 3.98438Q14.4531 3.70117 14.7412 3.21289Q15.0293 2.72461 15.0293 2.13867Q15.0293 1.54297 14.7412 1.05957Q14.4531 0.576172 13.9697 0.288086Q13.4863 0 12.9004 0Q12.3047 0 11.8213 0.288086Q11.3379 0.576172 11.0498 1.05957Q10.7617 1.54297 10.7617 2.13867Q10.7617 2.72461 11.0498 3.21289Q11.3379 3.70117 11.8213 3.98438Q12.3047 4.26758 12.9004 4.26758ZM21.3281 7.28516Q21.7383 7.28516 22.0312 6.99219Q22.3242 6.69922 22.3242 6.2793Q22.3242 5.86914 22.0312 5.58105Q21.7383 5.29297 21.3281 5.29297L10.8398 5.29297Q10.127 5.29297 9.53613 5.6543Q8.94531 6.01562 8.61328 6.66992L4.18945 15.5273L1.68945 13.0273Q1.39648 12.7344 0.981445 12.7393Q0.566406 12.7441 0.283203 13.0273Q0 13.3203 0 13.7305Q0 14.1406 0.283203 14.4336L3.80859 17.9688Q4.12109 18.2812 4.5459 18.2373Q4.9707 18.1934 5.22461 17.8223L8.11523 13.6035Q8.23242 13.418 8.45215 13.3887Q8.67188 13.3594 8.83789 13.4863L12.3926 16.2109L12.3926 21.1719Q12.3926 21.582 12.6807 21.8701Q12.9688 22.1582 13.3887 22.1582Q13.8086 22.1582 14.0967 21.8701Q14.3848 21.582 14.3848 21.1719L14.3848 15.7129Q14.3848 15.3125 14.0918 15.0098L10.6348 11.5527L12.4902 7.83203Q12.7734 7.28516 13.3691 7.28516ZM14.873 11.748L18.8477 11.748Q19.2578 11.748 19.5459 11.4551Q19.834 11.1621 19.834 10.7617Q19.834 10.3418 19.5459 10.0488Q19.2578 9.75586 18.8477 9.75586L15.2832 9.75586L13.7402 8.22266L13.4961 8.22266Q13.3594 8.22266 13.291 8.34961L12.5391 9.82422L14.1797 11.4551Q14.4824 11.748 14.873 11.748ZM20.5664 9.63867Q20.5664 10.1074 20.9033 10.5029Q21.2402 10.8984 21.8066 11.1328Q22.373 11.3672 23.0566 11.3672Q23.7402 11.3672 24.3066 11.1328Q24.873 10.8984 25.21 10.5029Q25.5469 10.1074 25.5469 9.63867Q25.5469 9.15039 25.21 8.75977Q24.873 8.36914 24.3066 8.13477Q23.7402 7.90039 23.0566 7.90039Q22.373 7.90039 21.8066 8.13477Q21.2402 8.36914 20.9033 8.75977Q20.5664 9.15039 20.5664 9.63867Z" fill="#ffffff"/>
 </g>
</svg>
