<?xml version="1.0" encoding="UTF-8"?>
<!--Generator: Apple Native CoreSVG 175.5-->
<!DOCTYPE svg
PUBLIC "-//W3C//DTD SVG 1.1//EN"
       "http://www.w3.org/Graphics/SVG/1.1/DTD/svg11.dtd">
<svg version="1.1" xmlns="http://www.w3.org/2000/svg" xmlns:xlink="http://www.w3.org/1999/xlink" width="23.1934" height="21.9824">
 <g>
  <rect height="21.9824" opacity="0" width="23.1934" x="0" y="0"/>
  <path d="M11.6797 21.0742L14.6094 17.5781Q14.8242 17.3242 14.8975 17.1924Q14.9707 17.0605 15.0586 16.7969L15.2734 16.1328L13.7012 14.1602L13.2324 16.3672L10.332 19.8047Q9.99023 20.2148 10.0391 20.5859Q10.0879 20.957 10.376 21.1914Q10.6641 21.4258 11.0303 21.4209Q11.3965 21.416 11.6797 21.0742ZM18.8281 20.7812Q19.0527 21.2402 19.4336 21.3525Q19.8145 21.4648 20.1709 21.3086Q20.5273 21.1523 20.6738 20.7861Q20.8203 20.4199 20.5762 19.9219L18.584 15.8887Q18.4668 15.6641 18.3203 15.4248Q18.1738 15.1855 18.0273 14.9902L16.7676 13.2031L16.8555 12.9395Q17.1094 12.1777 17.2217 11.6211Q17.334 11.0645 17.3926 10.3125L17.5879 7.49023Q17.666 6.49414 17.1094 5.81543Q16.5527 5.13672 15.5273 5.13672Q14.7461 5.13672 14.1553 5.5127Q13.5645 5.88867 12.8516 6.58203L11.3574 8.05664Q10.9863 8.41797 10.8447 8.75Q10.7031 9.08203 10.6641 9.56055L10.4785 11.8652Q10.4492 12.3047 10.6689 12.583Q10.8887 12.8613 11.2988 12.8809Q11.709 12.9102 11.9482 12.6758Q12.1875 12.4414 12.2266 11.9727L12.4414 9.44336L13.1641 8.79883Q13.3496 8.62305 13.5547 8.70605Q13.7598 8.78906 13.7402 8.98438L13.584 11.123Q13.5254 11.9336 13.7305 12.4463Q13.9355 12.959 14.502 13.6523L16.4746 16.1328Q16.6211 16.3184 16.6699 16.4209Q16.7188 16.5234 16.7871 16.6406ZM22.2168 8.94531L19.9707 8.94531L18.5449 7.37305L18.3789 9.72656L18.9453 10.293Q19.1797 10.5273 19.4336 10.6152Q19.6875 10.7031 20.1172 10.7031L22.2168 10.7031Q22.666 10.7031 22.9297 10.4688Q23.1934 10.2344 23.1934 9.82422Q23.1934 9.43359 22.9248 9.18945Q22.6562 8.94531 22.2168 8.94531ZM16.6113 4.25781Q17.1973 4.25781 17.6807 3.96973Q18.1641 3.68164 18.4521 3.19824Q18.7402 2.71484 18.7402 2.12891Q18.7402 1.5332 18.4521 1.0498Q18.1641 0.566406 17.6807 0.283203Q17.1973 0 16.6113 0Q16.0254 0 15.542 0.283203Q15.0586 0.566406 14.7705 1.0498Q14.4824 1.5332 14.4824 2.12891Q14.4824 2.71484 14.7705 3.19824Q15.0586 3.68164 15.542 3.96973Q16.0254 4.25781 16.6113 4.25781Z" fill="#ffffff"/>
  <path d="M4.10156 3.61328L9.73633 3.61328Q10 3.61328 10.1758 3.42773Q10.3516 3.24219 10.3516 2.97852Q10.3516 2.71484 10.1758 2.52441Q10 2.33398 9.73633 2.33398L4.10156 2.33398Q3.83789 2.33398 3.66211 2.52441Q3.48633 2.71484 3.48633 2.97852Q3.48633 3.24219 3.66211 3.42773Q3.83789 3.61328 4.10156 3.61328ZM0.605469 8.50586L7.29492 8.50586Q7.55859 8.50586 7.73438 8.32031Q7.91016 8.13477 7.91016 7.87109Q7.91016 7.60742 7.73438 7.41699Q7.55859 7.22656 7.29492 7.22656L0.605469 7.22656Q0.351562 7.22656 0.175781 7.41699Q0 7.60742 0 7.87109Q0 8.125 0.175781 8.31543Q0.351562 8.50586 0.605469 8.50586ZM3.52539 13.3984L7.24609 13.3984Q7.5 13.3984 7.67578 13.2129Q7.85156 13.0273 7.85156 12.7637Q7.85156 12.5 7.67578 12.3096Q7.5 12.1191 7.24609 12.1191L3.52539 12.1191Q3.26172 12.1191 3.08594 12.3096Q2.91016 12.5 2.91016 12.7637Q2.91016 13.0273 3.08594 13.2129Q3.26172 13.3984 3.52539 13.3984ZM0.957031 18.2324L6.05469 18.2324Q6.30859 18.2324 6.48438 18.0469Q6.66016 17.8613 6.66016 17.5977Q6.66016 17.334 6.48438 17.1436Q6.30859 16.9531 6.05469 16.9531L0.957031 16.9531Q0.703125 16.9531 0.527344 17.1436Q0.351562 17.334 0.351562 17.5977Q0.351562 17.8613 0.527344 18.0469Q0.703125 18.2324 0.957031 18.2324Z" fill="#007aff"/>
 </g>
</svg>
