<?xml version="1.0" encoding="UTF-8"?>
<!--Generator: Apple Native CoreSVG 175-->
<!DOCTYPE svg
PUBLIC "-//W3C//DTD SVG 1.1//EN"
       "http://www.w3.org/Graphics/SVG/1.1/DTD/svg11.dtd">
<svg version="1.1" xmlns="http://www.w3.org/2000/svg" xmlns:xlink="http://www.w3.org/1999/xlink" width="19.1602" height="19.1504">
 <g>
  <rect height="19.1504" opacity="0" width="19.1602" x="0" y="0"/>
  <path d="M9.57031 19.1406Q11.5527 19.1406 13.2861 18.3984Q15.0195 17.6562 16.3379 16.333Q17.6562 15.0098 18.4082 13.2764Q19.1602 11.543 19.1602 9.57031Q19.1602 7.59766 18.4082 5.86426Q17.6562 4.13086 16.3379 2.80762Q15.0195 1.48438 13.2861 0.742188Q11.5527 0 9.57031 0Q7.59766 0 5.86426 0.742188Q4.13086 1.48438 2.81738 2.80762Q1.50391 4.13086 0.751953 5.86426Q0 7.59766 0 9.57031Q0 11.543 0.74707 13.2764Q1.49414 15.0098 2.8125 16.333Q4.13086 17.6562 5.86914 18.3984Q7.60742 19.1406 9.57031 19.1406ZM9.57031 18.3984Q7.74414 18.3984 6.14746 17.71Q4.55078 17.0215 3.33496 15.8105Q2.11914 14.5996 1.43555 12.998Q0.751953 11.3965 0.751953 9.57031Q0.751953 7.74414 1.43555 6.14258Q2.11914 4.54102 3.33496 3.3252Q4.55078 2.10938 6.14746 1.4209Q7.74414 0.732422 9.57031 0.732422Q11.4062 0.732422 13.0029 1.4209Q14.5996 2.10938 15.8154 3.3252Q17.0312 4.54102 17.7197 6.14258Q18.4082 7.74414 18.4082 9.57031Q18.4082 11.3965 17.7246 12.998Q17.041 14.5996 15.8252 15.8105Q14.6094 17.0215 13.0078 17.71Q11.4062 18.3984 9.57031 18.3984Z" fill="#007aff"/>
  <path d="M11.7773 15.4102Q11.9922 15.4102 12.1631 15.2588Q12.334 15.1074 12.334 14.834Q12.334 14.7266 12.3096 14.624Q12.2852 14.5215 12.2266 14.4141L11.1133 12.168Q11.0352 12.0117 10.957 11.8799Q10.8789 11.748 10.8008 11.6406L10.1074 10.6348L10.1465 10.5176Q10.293 10.0586 10.3662 9.7168Q10.4395 9.375 10.4688 8.91602L10.5762 7.30469Q10.6152 6.70898 10.2881 6.30859Q9.96094 5.9082 9.33594 5.9082Q8.87695 5.9082 8.52051 6.12793Q8.16406 6.34766 7.73438 6.73828L6.77734 7.60742Q6.54297 7.82227 6.45996 8.02246Q6.37695 8.22266 6.35742 8.50586L6.24023 9.82422Q6.2207 10.1074 6.3623 10.2734Q6.50391 10.4395 6.75781 10.459Q7.26562 10.4883 7.32422 9.90234L7.44141 8.45703L7.94922 8.03711Q8.06641 7.93945 8.17871 7.9834Q8.29102 8.02734 8.27148 8.20312L8.17383 9.39453Q8.125 9.89258 8.30566 10.2588Q8.48633 10.625 8.7207 10.918L9.83398 12.3242Q9.92188 12.4219 9.94629 12.4854Q9.9707 12.5488 10.0098 12.6074L11.2109 15.0293Q11.3086 15.2441 11.46 15.3271Q11.6113 15.4102 11.7773 15.4102ZM6.66992 15.4297Q6.95312 15.4297 7.10938 15.2246L8.81836 13.1934Q8.96484 13.0176 8.99902 12.9541Q9.0332 12.8906 9.07227 12.7344L9.19922 12.1973L8.27148 11.0254L7.97852 12.4609L6.37695 14.3457Q6.26953 14.4824 6.19629 14.5996Q6.12305 14.7168 6.12305 14.8926Q6.12305 15.1367 6.27441 15.2832Q6.42578 15.4297 6.66992 15.4297ZM12.0312 9.18945L13.2812 9.18945Q13.5547 9.18945 13.7207 9.04297Q13.8867 8.89648 13.8867 8.65234Q13.8867 8.39844 13.7207 8.25195Q13.5547 8.10547 13.2812 8.10547L11.9531 8.10547L10.9961 7.06055L10.8984 8.49609L11.3477 8.93555Q11.5918 9.18945 12.0312 9.18945ZM10 5.51758Q10.5176 5.51758 10.874 5.15625Q11.2305 4.79492 11.2305 4.30664Q11.2305 3.78906 10.874 3.4375Q10.5176 3.08594 10 3.08594Q9.50195 3.08594 9.14551 3.4375Q8.78906 3.78906 8.78906 4.30664Q8.78906 4.79492 9.14551 5.15625Q9.50195 5.51758 10 5.51758Z" fill="#ffffff"/>
 </g>
</svg>
