<?xml version="1.0" encoding="UTF-8"?>
<!--Generator: Apple Native CoreSVG 175.5-->
<!DOCTYPE svg
PUBLIC "-//W3C//DTD SVG 1.1//EN"
       "http://www.w3.org/Graphics/SVG/1.1/DTD/svg11.dtd">
<svg version="1.1" xmlns="http://www.w3.org/2000/svg" xmlns:xlink="http://www.w3.org/1999/xlink" width="21.7823" height="22.4707">
 <g>
  <rect height="22.4707" opacity="0" width="21.7823" x="0" y="0"/>
  <path d="M10.5762 4.24805Q11.1719 4.24805 11.6553 3.95996Q12.1387 3.67188 12.4268 3.18848Q12.7148 2.70508 12.7148 2.12891Q12.7148 1.5332 12.4268 1.0498Q12.1387 0.566406 11.6553 0.283203Q11.1719 0 10.5762 0Q9.99023 0 9.51172 0.283203Q9.0332 0.566406 8.74512 1.0498Q8.45703 1.5332 8.45703 2.12891Q8.45703 2.70508 8.74512 3.18848Q9.0332 3.67188 9.51172 3.95996Q9.99023 4.24805 10.5762 4.24805ZM2.97852 20.127Q2.58789 20.5176 2.62695 20.9521Q2.66602 21.3867 2.95898 21.6504Q3.22266 21.8848 3.63281 21.8945Q4.04297 21.9043 4.4043 21.543L8.125 17.8223Q8.23242 17.7148 8.30078 17.5879L10.1367 14.1406Q10.332 13.7598 10.7861 13.7256Q11.2402 13.6914 11.5723 13.9453L15.7324 17.0996L15.7324 21.3965Q15.7324 21.8945 16.0107 22.1826Q16.2891 22.4707 16.748 22.4707Q17.207 22.4707 17.4854 22.1826Q17.7637 21.8945 17.7637 21.3965L17.7637 16.6113Q17.7637 16.1621 17.3828 15.8301L12.6953 11.8066L12.6953 7.43164Q12.6953 7.01172 13.1543 6.94336L20.9277 5.76172Q21.3379 5.69336 21.5869 5.35156Q21.8359 5.00977 21.7676 4.59961Q21.709 4.18945 21.3721 3.94043Q21.0352 3.69141 20.625 3.75977L5.13672 6.10352L5.13672 2.99805L3.125 2.99805L3.125 7.28516Q3.125 7.76367 3.46191 8.05176Q3.79883 8.33984 4.28711 8.27148L7.63672 7.76367Q7.87109 7.72461 8.01758 7.85156Q8.16406 7.97852 8.16406 8.21289L8.16406 12.168L6.55273 16.5527ZM3.37891 4.10156Q4.23828 4.10156 5.11719 3.72559Q5.99609 3.34961 6.5625 2.71484Q6.75781 2.5 6.75781 2.24121Q6.75781 1.98242 6.5625 1.76758Q5.99609 1.13281 5.11719 0.756836Q4.23828 0.380859 3.37891 0.380859Q2.51953 0.380859 1.64062 0.756836Q0.761719 1.13281 0.195312 1.76758Q0 1.98242 0 2.24121Q0 2.5 0.195312 2.72461Q0.761719 3.35938 1.64062 3.73047Q2.51953 4.10156 3.37891 4.10156Z" fill="#ffffff"/>
 </g>
</svg>
