<?xml version="1.0" encoding="UTF-8"?>
<!--Generator: Apple Native CoreSVG 175.5-->
<!DOCTYPE svg
PUBLIC "-//W3C//DTD SVG 1.1//EN"
       "http://www.w3.org/Graphics/SVG/1.1/DTD/svg11.dtd">
<svg version="1.1" xmlns="http://www.w3.org/2000/svg" xmlns:xlink="http://www.w3.org/1999/xlink" width="15.8353" height="21.5137">
 <g>
  <rect height="21.5137" opacity="0" width="15.8353" x="0" y="0"/>
  <path d="M11.2259 4.32617Q11.8118 4.32617 12.2952 4.04297Q12.7786 3.75977 13.0667 3.27637Q13.3548 2.79297 13.3548 2.19727Q13.3548 1.61133 13.0667 1.12793Q12.7786 0.644531 12.2952 0.361328Q11.8118 0.078125 11.2259 0.078125Q10.64 0.078125 10.1566 0.361328Q9.67316 0.644531 9.38507 1.12793Q9.09698 1.61133 9.09698 2.19727Q9.09698 2.79297 9.38507 3.27637Q9.67316 3.75977 10.1566 4.04297Q10.64 4.32617 11.2259 4.32617ZM7.63214 21.5137Q9.76105 21.5137 11.3577 20.625Q12.9544 19.7363 13.8431 18.1396Q14.7318 16.543 14.7318 14.4141Q14.7318 12.7344 13.9505 11.8018Q13.1693 10.8691 11.6751 10.8691L10.3665 10.8691Q10.2005 10.8691 10.1077 10.7617Q10.015 10.6543 10.0833 10.4492L10.9818 7.72461Q11.2943 6.78711 10.8743 6.02051Q10.4544 5.25391 9.41925 4.99023L5.38605 3.97461Q5.09308 3.90625 4.85382 3.9502Q4.61456 3.99414 4.35089 4.15039L0.434875 6.35742Q0.083313 6.55273 0.0149536 6.97754Q-0.0534058 7.40234 0.190735 7.72461Q0.42511 8.05664 0.805969 8.12012Q1.18683 8.18359 1.55792 7.98828L5.15167 6.08398L7.25128 6.64062Q7.56378 6.72852 7.67609 6.93359Q7.78839 7.13867 7.68097 7.42188L6.57745 10.5176Q6.32355 11.25 6.48956 11.8604Q6.65558 12.4707 7.14386 12.8418Q7.63214 13.2129 8.33527 13.2129L11.9681 13.2129Q12.5247 13.2129 12.886 13.5303Q13.2474 13.8477 13.2474 14.4141Q13.2474 16.0938 12.5491 17.3584Q11.8509 18.623 10.5862 19.3262Q9.32159 20.0293 7.64191 20.0293Q5.95245 20.0293 4.68781 19.3262Q3.42316 18.623 2.72003 17.3584Q2.01691 16.0938 2.01691 14.4141Q2.01691 13.5449 2.26105 12.7832Q2.50519 12.0215 2.92511 11.3867Q3.15948 11.0352 3.09113 10.7373Q3.02277 10.4395 2.76886 10.2881Q2.51495 10.1367 2.20245 10.2051Q1.88995 10.2734 1.63605 10.6445Q1.12823 11.4258 0.830383 12.3779Q0.532532 13.3301 0.532532 14.4141Q0.532532 16.543 1.4212 18.1396Q2.30988 19.7363 3.90656 20.625Q5.50323 21.5137 7.63214 21.5137ZM14.761 21.5137Q15.2103 21.5137 15.5228 21.2012Q15.8353 20.8887 15.8353 20.4395Q15.8353 19.9902 15.5228 19.6777Q15.2103 19.3652 14.761 19.3652Q14.3118 19.3652 13.9993 19.6777Q13.6868 19.9902 13.6868 20.4395Q13.6868 20.8887 13.9993 21.2012Q14.3118 21.5137 14.761 21.5137Z" fill="#ffffff"/>
 </g>
</svg>
