<?xml version="1.0" encoding="UTF-8"?>
<!--Generator: Apple Native CoreSVG 175.5-->
<!DOCTYPE svg
PUBLIC "-//W3C//DTD SVG 1.1//EN"
       "http://www.w3.org/Graphics/SVG/1.1/DTD/svg11.dtd">
<svg version="1.1" xmlns="http://www.w3.org/2000/svg" xmlns:xlink="http://www.w3.org/1999/xlink" width="18.2812" height="17.4707">
 <g>
  <rect height="17.4707" opacity="0" width="18.2812" x="0" y="0"/>
  <path d="M6.02539 4.26758Q6.62109 4.26758 7.10449 3.97949Q7.58789 3.69141 7.87598 3.20801Q8.16406 2.72461 8.16406 2.12891Q8.16406 1.5332 7.87598 1.0498Q7.58789 0.566406 7.10449 0.283203Q6.62109 0 6.02539 0Q5.43945 0 4.95605 0.283203Q4.47266 0.566406 4.18457 1.0498Q3.89648 1.5332 3.89648 2.12891Q3.89648 2.72461 4.18457 3.20801Q4.47266 3.69141 4.95605 3.97949Q5.43945 4.26758 6.02539 4.26758ZM0.859375 11.6895Q0.644531 12.4902 0.864258 13.0859Q1.08398 13.6816 1.58691 14.0039Q2.08984 14.3262 2.71484 14.3262Q3.01758 14.3262 3.3252 14.248Q3.63281 14.1699 3.94531 14.0039L9.24805 11.1816L15.1172 14.1211Q15.6543 14.3848 16.0596 14.2285Q16.4648 14.0723 16.6309 13.7305Q16.7969 13.3984 16.6699 12.9883Q16.543 12.5781 16.0254 12.3242L9.88281 9.23828Q9.25781 8.91602 8.62305 9.19922L4.6582 10.918L5.45898 8.125Q5.56641 7.76367 5.86914 7.5293Q6.17188 7.29492 6.55273 7.29492L14.4531 7.29492Q14.873 7.29492 15.166 7.00195Q15.459 6.70898 15.459 6.28906Q15.459 5.87891 15.166 5.58105Q14.873 5.2832 14.4531 5.2832L5.82031 5.2832Q4.84375 5.2832 4.01855 5.63477Q3.19336 5.98633 2.62207 6.62109Q2.05078 7.25586 1.82617 8.0957ZM0.546875 17.4512L17.7344 17.4512Q17.959 17.4512 18.1201 17.2949Q18.2812 17.1387 18.2812 16.9141Q18.2812 16.6895 18.1201 16.5283Q17.959 16.3672 17.7344 16.3672L0.546875 16.3672Q0.3125 16.3672 0.15625 16.5283Q0 16.6895 0 16.9141Q0 17.1387 0.15625 17.2949Q0.3125 17.4512 0.546875 17.4512Z" fill="#ffffff"/>
 </g>
</svg>
