<?xml version="1.0" encoding="UTF-8"?>
<!--Generator: Apple Native CoreSVG 175.5-->
<!DOCTYPE svg
PUBLIC "-//W3C//DTD SVG 1.1//EN"
       "http://www.w3.org/Graphics/SVG/1.1/DTD/svg11.dtd">
<svg version="1.1" xmlns="http://www.w3.org/2000/svg" xmlns:xlink="http://www.w3.org/1999/xlink" width="16.3453" height="21.5527">
 <g>
  <rect height="21.5527" opacity="0" width="16.3453" x="0" y="0"/>
  <path d="M10.203 4.25781Q10.7889 4.25781 11.2723 3.96973Q11.7557 3.68164 12.0438 3.19824Q12.3319 2.71484 12.3319 2.12891Q12.3319 1.5332 12.0438 1.05469Q11.7557 0.576172 11.2723 0.288086Q10.7889 0 10.203 0Q9.60731 0 9.12879 0.288086Q8.65028 0.576172 8.36219 1.05469Q8.0741 1.5332 8.0741 2.12891Q8.0741 2.71484 8.36219 3.19824Q8.65028 3.68164 9.12879 3.96973Q9.60731 4.25781 10.203 4.25781ZM6.86317 12.7539L10.6034 14.8535L8.19129 16.9238Q7.80067 17.2559 7.78114 17.6416Q7.7616 18.0273 7.99598 18.291Q8.24012 18.5645 8.63563 18.5938Q9.03114 18.623 9.43153 18.2812L12.8007 15.4102Q13.035 15.2148 13.0888 14.9072Q13.1425 14.5996 13.0253 14.2969Q12.9081 13.9941 12.6347 13.8184L8.97254 11.416L9.6952 8.88672Q9.77332 8.61328 10.0175 8.58398Q10.2616 8.55469 10.4276 8.78906L11.5018 10.3613Q11.6874 10.6348 12.0048 10.7275Q12.3222 10.8203 12.6347 10.6738L15.7304 9.29688Q16.1405 9.11133 16.2821 8.7793Q16.4237 8.44727 16.2479 8.07617Q16.0624 7.70508 15.7304 7.60254Q15.3983 7.5 14.9882 7.68555L12.537 8.76953L10.8475 6.43555Q10.1835 5.52734 9.30457 5.14648Q8.42567 4.76562 7.07801 4.86328L3.65028 5.10742Q3.24012 5.13672 2.97645 5.39062Q2.71278 5.64453 2.65418 6.06445L2.1952 9.54102Q2.1366 10 2.34168 10.293Q2.54676 10.5859 2.94715 10.625Q3.35731 10.6641 3.61121 10.4395Q3.86512 10.2148 3.92371 9.75586L4.34364 6.91406L5.72059 6.81641Q5.95496 6.79688 6.12586 6.94824Q6.29676 7.09961 6.21864 7.38281L5.41785 10.1758Q5.24207 10.8008 5.32508 11.2158Q5.40809 11.6309 5.65223 11.9092Q5.89637 12.1875 6.22352 12.3828Q6.55067 12.5781 6.86317 12.7539ZM0.329963 21.1914Q0.603401 21.416 0.989143 21.416Q1.37489 21.416 1.74598 21.0547L4.91004 17.9199Q5.10535 17.7246 5.18836 17.6074Q5.27137 17.4902 5.39832 17.1875L6.72645 13.75L6.40418 13.5742Q5.84754 13.2715 5.45203 12.9639Q5.05653 12.6562 4.79285 12.3242L3.63074 16.4355L0.349494 19.707Q-0.0313649 20.0879 0.0028148 20.5078Q0.0369945 20.9277 0.329963 21.1914Z" fill="#ffffff"/>
 </g>
</svg>
