<?xml version="1.0" encoding="UTF-8"?>
<!--Generator: Apple Native CoreSVG 175.5-->
<!DOCTYPE svg
PUBLIC "-//W3C//DTD SVG 1.1//EN"
       "http://www.w3.org/Graphics/SVG/1.1/DTD/svg11.dtd">
<svg version="1.1" xmlns="http://www.w3.org/2000/svg" xmlns:xlink="http://www.w3.org/1999/xlink" width="29.3461" height="10.4199">
 <g>
  <rect height="10.4199" opacity="0" width="29.3461" x="0" y="0"/>
  <path d="M3.91645 4.25781Q4.51216 4.25781 4.99555 3.97461Q5.47895 3.69141 5.76216 3.20801Q6.04536 2.72461 6.04536 2.12891Q6.04536 1.54297 5.76216 1.05957Q5.47895 0.576172 4.99555 0.288086Q4.51216 0 3.91645 0Q3.33052 0 2.84712 0.288086Q2.36372 0.576172 2.08052 1.05957Q1.79731 1.54297 1.79731 2.12891Q1.79731 2.72461 2.08052 3.20801Q2.36372 3.69141 2.84712 3.97461Q3.33052 4.25781 3.91645 4.25781ZM10.3032 10.1465L13.0961 10.1465Q14.2485 10.1465 14.8881 9.75586Q15.5278 9.36523 15.7475 8.71582Q15.9672 8.06641 15.8696 7.31445L15.225 2.1875L20.2348 2.1875Q20.6547 2.1875 20.9477 1.88965Q21.2407 1.5918 21.2407 1.17188Q21.2407 0.751953 20.9477 0.463867Q20.6547 0.175781 20.2348 0.175781L13.9848 0.175781Q13.5551 0.175781 13.2622 0.463867Q12.9692 0.751953 12.9692 1.25977L12.9692 6.43555L11.2993 6.43555Q10.6352 6.43555 10.0932 6.19141Q9.55122 5.94727 9.22895 5.42969Q9.04341 5.13672 9.31684 4.82422L11.8266 1.8457Q12.1196 1.50391 12.0903 1.11328Q12.061 0.722656 11.7924 0.449219Q11.5239 0.175781 11.0942 0.175781L7.5688 0.175781Q7.14887 0.175781 6.85591 0.463867Q6.56294 0.751953 6.56294 1.17188Q6.56294 1.60156 6.85102 1.89453Q7.13911 2.1875 7.5688 2.1875L8.99458 2.1875L7.52973 3.91602Q6.74848 4.84375 5.95747 5.51758Q5.16645 6.19141 3.99458 6.70898L2.47114 7.39258L2.94966 5.70312Q3.06684 5.2832 2.83735 4.92676Q2.60786 4.57031 2.227 4.48242Q1.81684 4.375 1.45552 4.58984Q1.09419 4.80469 0.996531 5.19531L0.0492654 8.89648Q-0.0776877 9.39453 0.122508 9.71191Q0.322703 10.0293 0.713328 10.1172Q1.10395 10.2051 1.53364 10.0195L4.68794 8.62305Q4.93208 8.52539 5.09321 8.54004Q5.25434 8.55469 5.43989 8.70117Q6.20161 9.3457 7.41743 9.74609Q8.63325 10.1465 10.3032 10.1465ZM21.0844 7.88086L28.3403 7.88086Q28.7602 7.88086 29.0532 7.58789Q29.3461 7.29492 29.3461 6.86523Q29.3461 6.44531 29.0532 6.15234Q28.7602 5.85938 28.3403 5.85938L20.9868 5.85938Q20.9282 5.85938 20.8549 5.85938Q20.7817 5.85938 20.7036 5.86914L16.6801 6.20117L16.8168 7.17773Q16.9243 8.05664 16.7582 8.75Z" fill="#ffffff"/>
 </g>
</svg>
