<?xml version="1.0" encoding="UTF-8"?>
<!--Generator: Apple Native CoreSVG 175.5-->
<!DOCTYPE svg
PUBLIC "-//W3C//DTD SVG 1.1//EN"
       "http://www.w3.org/Graphics/SVG/1.1/DTD/svg11.dtd">
<svg version="1.1" xmlns="http://www.w3.org/2000/svg" xmlns:xlink="http://www.w3.org/1999/xlink" width="18.8975" height="23.3645">
 <g>
  <rect height="23.3645" opacity="0" width="18.8975" x="0" y="0"/>
  <path d="M8.17488 5.58364Q8.76082 5.58364 9.2491 5.29555Q9.73738 5.00747 10.0255 4.52895Q10.3136 4.05044 10.3136 3.4645Q10.3136 2.87856 10.0255 2.39516Q9.73738 1.91176 9.2491 1.62368Q8.76082 1.33559 8.17488 1.33559Q7.58895 1.33559 7.11043 1.62368Q6.63192 1.91176 6.34383 2.39516Q6.05574 2.87856 6.05574 3.4645Q6.05574 4.05044 6.34383 4.52895Q6.63192 5.00747 7.11043 5.29555Q7.58895 5.58364 8.17488 5.58364ZM15.7432 6.60903L4.65926 6.60903L4.96199 6.84341Q5.32332 6.71645 5.46004 6.41372Q5.59676 6.11098 5.51863 5.80825Q5.42098 5.46645 5.10359 5.24673Q4.78621 5.027 4.23934 5.15395L1.35848 5.81801Q0.665118 5.97426 0.323321 6.42348Q-0.0184755 6.8727 0.00105574 7.3854Q0.020587 7.89809 0.391681 8.2643Q0.762774 8.63051 1.48543 8.63051L4.62996 8.63051Q4.84481 8.63051 4.99129 8.78188Q5.13777 8.93325 5.13777 9.14809L5.13777 13.2692L2.1202 16.2672Q1.81746 16.5797 1.6075 16.9166Q1.39754 17.2536 1.27059 17.7321L0.128009 22.0192Q-0.0184755 22.5758 0.235431 22.903Q0.489337 23.2301 0.870196 23.2887Q1.23152 23.3571 1.58309 23.1764Q1.93465 22.9957 2.0616 22.5368L3.14559 18.5133Q3.22371 18.2301 3.31649 18.0739Q3.40926 17.9176 3.6241 17.7321L5.98738 15.7106Q6.34871 15.4176 6.85652 15.4762Q7.36434 15.5348 7.60848 15.9645L9.04402 18.4645L11.3194 22.7516Q11.5733 23.2301 12.0274 23.3034Q12.4815 23.3766 12.8233 23.1618Q13.1261 22.9665 13.2237 22.5954Q13.3214 22.2243 13.0968 21.8141L10.8116 17.4586L9.51277 14.4997Q9.18074 13.7477 9.18074 12.8883L9.18074 9.14809Q9.18074 8.93325 9.33211 8.78188Q9.48348 8.63051 9.69832 8.63051L15.7432 8.63051Q16.1632 8.63051 16.461 8.33755Q16.7589 8.04458 16.7589 7.63442Q16.7589 7.2145 16.461 6.91176Q16.1632 6.60903 15.7432 6.60903ZM17.7843 7.63442Q17.7843 8.70864 17.6378 9.76821Q17.4913 10.8278 17.1641 11.985Q16.837 13.1422 16.3096 14.4801Q16.2218 14.7145 16.3048 14.9245Q16.3878 15.1344 16.5929 15.2223Q16.8077 15.3102 17.0128 15.2321Q17.2179 15.154 17.3253 14.9391Q18.1651 13.0934 18.5313 11.3795Q18.8975 9.66567 18.8975 7.63442Q18.8975 5.66176 18.5313 3.95278Q18.1651 2.2438 17.3155 0.329733Q17.2081 0.11489 17.0079 0.0367647Q16.8077-0.0413603 16.5929 0.0465303Q16.378 0.134421 16.2999 0.344382Q16.2218 0.554343 16.3096 0.788718Q16.837 2.13637 17.1641 3.2936Q17.4913 4.45083 17.6378 5.5104Q17.7843 6.56997 17.7843 7.63442Z" fill="#ffffff"/>
 </g>
</svg>
