<?xml version="1.0" encoding="UTF-8"?>
<!--Generator: Apple Native CoreSVG 175.5-->
<!DOCTYPE svg
PUBLIC "-//W3C//DTD SVG 1.1//EN"
       "http://www.w3.org/Graphics/SVG/1.1/DTD/svg11.dtd">
<svg version="1.1" xmlns="http://www.w3.org/2000/svg" xmlns:xlink="http://www.w3.org/1999/xlink" width="18.3691" height="25.3809">
 <g>
  <rect height="25.3809" opacity="0" width="18.3691" x="0" y="0"/>
  <path d="M7.38281 4.26758Q7.95898 4.26758 8.44727 3.97949Q8.93555 3.69141 9.22363 3.20801Q9.51172 2.72461 9.51172 2.13867Q9.51172 1.55273 9.22363 1.06445Q8.93555 0.576172 8.44727 0.288086Q7.95898 0 7.38281 0Q6.79688 0 6.30859 0.288086Q5.82031 0.576172 5.53223 1.06445Q5.24414 1.55273 5.24414 2.13867Q5.24414 2.72461 5.53223 3.20801Q5.82031 3.69141 6.30859 3.97949Q6.79688 4.26758 7.38281 4.26758ZM8.64258 20.293Q8.92578 20.3613 9.32129 20.2295Q9.7168 20.0977 9.85352 19.6289L11.2695 14.9316Q11.377 14.5508 11.2207 14.2041Q11.0645 13.8574 10.6543 13.7207L6.81641 12.3926L7.29492 9.12109Q7.31445 8.97461 7.45605 8.9502Q7.59766 8.92578 7.65625 9.0625L8.47656 10.6543Q8.75 11.1914 9.35547 11.1914L13.2812 11.1914Q13.6816 11.1914 13.9746 10.9131Q14.2676 10.6348 14.2676 10.2148Q14.2676 9.81445 13.9746 9.52637Q13.6816 9.23828 13.2812 9.23828L9.96094 9.23828L8.68164 6.70898Q8.36914 6.09375 7.83691 5.68359Q7.30469 5.27344 6.62109 5.13672L6.07422 5.0293Q5.32227 4.88281 4.71191 5.01465Q4.10156 5.14648 3.63281 5.43945L0.458984 7.41211Q0.253906 7.54883 0.126953 7.77344Q0 7.99805 0 8.26172L0 12.1777Q0 12.5879 0.292969 12.8809Q0.585938 13.1738 0.986328 13.1738Q1.38672 13.1738 1.67969 12.8809Q1.97266 12.5879 1.97266 12.1777L1.97266 8.78906L3.33984 7.93945Q3.4375 7.88086 3.52051 7.93457Q3.60352 7.98828 3.58398 8.0957L3.13477 11.7188Q3.00781 12.7637 3.41309 13.4521Q3.81836 14.1406 5.00977 14.4238L9.08203 15.3809L7.97852 19.082Q7.86133 19.4629 8.02246 19.8145Q8.18359 20.166 8.64258 20.293ZM1.43555 23.8281Q1.69922 24.0039 2.10938 23.9648Q2.51953 23.9258 2.7832 23.5352L5.67383 19.2285Q5.86914 18.9258 5.91797 18.623L6.32812 15.7422L4.79492 15.3809Q4.61914 15.3418 4.46289 15.2881Q4.30664 15.2344 4.16016 15.1855L3.95508 18.2812L1.16211 22.4609Q0.927734 22.8027 1.00586 23.2031Q1.08398 23.6035 1.43555 23.8281ZM5.32227 25.3613L8.4668 25.3613Q8.70117 25.3613 8.8623 25.2002Q9.02344 25.0391 9.02344 24.8047L9.02344 22.9199L11.6211 22.9199Q11.8457 22.9199 12.002 22.7637Q12.1582 22.6074 12.1582 22.373L12.1582 20.4785L14.7754 20.4785Q15 20.4785 15.1562 20.3223Q15.3125 20.166 15.3125 19.9414L15.3125 18.0469L17.8125 18.0469Q18.0469 18.0469 18.208 17.8857Q18.3691 17.7246 18.3691 17.5Q18.3691 17.2754 18.208 17.1143Q18.0469 16.9531 17.8125 16.9531L14.7754 16.9531Q14.541 16.9531 14.3896 17.1143Q14.2383 17.2754 14.2383 17.5L14.2383 19.3945L11.6211 19.3945Q11.3867 19.3945 11.2354 19.5557Q11.084 19.7168 11.084 19.9414L11.084 21.8359L8.4668 21.8359Q8.25195 21.8359 8.0957 21.9922Q7.93945 22.1484 7.93945 22.373L7.93945 24.2773L5.32227 24.2773Q5.08789 24.2773 4.93652 24.4336Q4.78516 24.5898 4.78516 24.8047Q4.78516 25.0391 4.93652 25.2002Q5.08789 25.3613 5.32227 25.3613Z" fill="#ffffff"/>
 </g>
</svg>
