<?xml version="1.0" encoding="UTF-8"?>
<!--Generator: Apple Native CoreSVG 175.5-->
<!DOCTYPE svg
PUBLIC "-//W3C//DTD SVG 1.1//EN"
       "http://www.w3.org/Graphics/SVG/1.1/DTD/svg11.dtd">
<svg version="1.1" xmlns="http://www.w3.org/2000/svg" xmlns:xlink="http://www.w3.org/1999/xlink" width="23.1152" height="18.291">
 <g>
  <rect height="18.291" opacity="0" width="23.1152" x="0" y="0"/>
  <path d="M12.0898 6.78711Q12.6855 6.78711 13.1689 6.49902Q13.6523 6.21094 13.9404 5.72754Q14.2285 5.24414 14.2285 4.6582Q14.2285 4.0625 13.9404 3.5791Q13.6523 3.0957 13.1689 2.80762Q12.6855 2.51953 12.0898 2.51953Q11.5039 2.51953 11.0205 2.80762Q10.5371 3.0957 10.249 3.5791Q9.96094 4.0625 9.96094 4.6582Q9.96094 5.24414 10.249 5.72754Q10.5371 6.21094 11.0205 6.49902Q11.5039 6.78711 12.0898 6.78711ZM7.44141 11.4551Q8.27148 11.5527 8.79395 11.8018Q9.31641 12.0508 9.7168 12.3291Q10.1172 12.6074 10.5322 12.8027Q10.9473 12.998 11.5527 12.998Q11.6504 12.998 11.709 12.9883L12.666 10.3027Q12.8223 9.87305 13.2812 9.87305L21.9629 9.87305Q22.3926 9.87305 22.7002 9.56055Q23.0078 9.24805 23.0078 8.81836Q23.0078 8.39844 22.7002 8.09082Q22.3926 7.7832 21.9629 7.7832L5.60547 7.7832L4.24805 3.34961Q4.12109 2.92969 3.75 2.71973Q3.37891 2.50977 2.96875 2.63672Q2.55859 2.76367 2.3584 3.14453Q2.1582 3.52539 2.27539 3.91602L3.79883 9.00391Q3.90625 9.36523 4.1748 9.61914Q4.44336 9.87305 4.82422 9.87305L7.61719 9.87305Q7.77344 9.87305 7.85645 9.98535Q7.93945 10.0977 7.89062 10.2441ZM6.28906 3.05664Q6.92383 3.05664 7.36816 2.60742Q7.8125 2.1582 7.8125 1.5332Q7.8125 0.898438 7.36816 0.449219Q6.92383 0 6.28906 0Q5.6543 0 5.20996 0.449219Q4.76562 0.898438 4.76562 1.5332Q4.76562 2.1582 5.20996 2.60742Q5.6543 3.05664 6.28906 3.05664ZM0.546875 15.5762L1.5332 15.5762Q2.50977 15.5762 3.16895 15.332Q3.82812 15.0879 4.34082 14.7705Q4.85352 14.4531 5.36133 14.2139Q5.86914 13.9746 6.54297 13.9746Q7.22656 13.9746 7.73438 14.2139Q8.24219 14.4531 8.75 14.7705Q9.25781 15.0879 9.91699 15.332Q10.5762 15.5762 11.5527 15.5762Q12.5391 15.5762 13.1982 15.332Q13.8574 15.0879 14.3652 14.7705Q14.873 14.4531 15.3809 14.2139Q15.8887 13.9746 16.5723 13.9746Q17.2461 13.9746 17.7539 14.2139Q18.2617 14.4531 18.7695 14.7705Q19.2773 15.0879 19.9365 15.332Q20.5957 15.5762 21.582 15.5762L22.5684 15.5762Q22.8027 15.5762 22.959 15.4199Q23.1152 15.2637 23.1152 15.0391Q23.1152 14.8047 22.959 14.6484Q22.8027 14.4922 22.5684 14.4922L21.582 14.4922Q20.8789 14.4922 20.3516 14.248Q19.8242 14.0039 19.3115 13.6865Q18.7988 13.3691 18.1543 13.1299Q17.5098 12.8906 16.5723 12.8906Q15.625 12.8906 14.9805 13.1299Q14.3359 13.3691 13.8232 13.6865Q13.3105 14.0039 12.7832 14.248Q12.2559 14.4922 11.5527 14.4922Q10.8496 14.4922 10.3223 14.248Q9.79492 14.0039 9.28223 13.6865Q8.76953 13.3691 8.125 13.1299Q7.48047 12.8906 6.54297 12.8906Q5.60547 12.8906 4.96094 13.1299Q4.31641 13.3691 3.80371 13.6865Q3.29102 14.0039 2.76367 14.248Q2.23633 14.4922 1.5332 14.4922L0.546875 14.4922Q0.3125 14.4922 0.15625 14.6484Q0 14.8047 0 15.0391Q0 15.2637 0.15625 15.4199Q0.3125 15.5762 0.546875 15.5762ZM0.800781 18.291Q1.04492 18.291 1.21094 18.125Q1.37695 17.959 1.37695 17.7148Q1.37695 17.4805 1.21094 17.3145Q1.04492 17.1484 0.800781 17.1484Q0.566406 17.1484 0.400391 17.3145Q0.234375 17.4805 0.234375 17.7148Q0.234375 17.959 0.400391 18.125Q0.566406 18.291 0.800781 18.291ZM2.63672 17.959Q2.87109 17.959 3.03711 17.793Q3.20312 17.627 3.20312 17.3926Q3.20312 17.1484 3.03711 16.9824Q2.87109 16.8164 2.63672 16.8164Q2.39258 16.8164 2.22656 16.9824Q2.06055 17.1484 2.06055 17.3926Q2.06055 17.627 2.22656 17.793Q2.39258 17.959 2.63672 17.959ZM4.3457 17.1484Q4.58984 17.1484 4.75586 16.9873Q4.92188 16.8262 4.92188 16.582Q4.92188 16.3477 4.75586 16.1816Q4.58984 16.0156 4.3457 16.0156Q4.11133 16.0156 3.94531 16.1816Q3.7793 16.3477 3.7793 16.582Q3.7793 16.8262 3.94531 16.9873Q4.11133 17.1484 4.3457 17.1484ZM6.19141 16.7188Q6.43555 16.7188 6.60156 16.5527Q6.76758 16.3867 6.76758 16.1426Q6.76758 15.9082 6.60156 15.7422Q6.43555 15.5762 6.19141 15.5762Q5.95703 15.5762 5.79102 15.7422Q5.625 15.9082 5.625 16.1426Q5.625 16.3867 5.79102 16.5527Q5.95703 16.7188 6.19141 16.7188ZM8.03711 17.1484Q8.27148 17.1484 8.4375 16.9873Q8.60352 16.8262 8.60352 16.582Q8.60352 16.3477 8.4375 16.1816Q8.27148 16.0156 8.03711 16.0156Q7.79297 16.0156 7.63184 16.1816Q7.4707 16.3477 7.4707 16.582Q7.4707 16.8262 7.63184 16.9873Q7.79297 17.1484 8.03711 17.1484ZM9.76562 17.959Q10.0098 17.959 10.1758 17.793Q10.3418 17.627 10.3418 17.3926Q10.3418 17.1484 10.1758 16.9824Q10.0098 16.8164 9.76562 16.8164Q9.53125 16.8164 9.36523 16.9824Q9.19922 17.1484 9.19922 17.3926Q9.19922 17.627 9.36523 17.793Q9.53125 17.959 9.76562 17.959ZM11.5723 18.291Q11.8066 18.291 11.9727 18.125Q12.1387 17.959 12.1387 17.7148Q12.1387 17.4805 11.9727 17.3145Q11.8066 17.1484 11.5723 17.1484Q11.3281 17.1484 11.1621 17.3145Q10.9961 17.4805 10.9961 17.7148Q10.9961 17.959 11.1621 18.125Q11.3281 18.291 11.5723 18.291ZM13.3691 17.959Q13.6133 17.959 13.7744 17.793Q13.9355 17.627 13.9355 17.3926Q13.9355 17.1484 13.7744 16.9824Q13.6133 16.8164 13.3691 16.8164Q13.1348 16.8164 12.9688 16.9824Q12.8027 17.1484 12.8027 17.3926Q12.8027 17.627 12.9688 17.793Q13.1348 17.959 13.3691 17.959ZM15.0977 17.1484Q15.3418 17.1484 15.5078 16.9873Q15.6738 16.8262 15.6738 16.582Q15.6738 16.3477 15.5078 16.1816Q15.3418 16.0156 15.0977 16.0156Q14.8633 16.0156 14.6973 16.1816Q14.5312 16.3477 14.5312 16.582Q14.5312 16.8262 14.6973 16.9873Q14.8633 17.1484 15.0977 17.1484ZM16.9434 16.7188Q17.1875 16.7188 17.3486 16.5527Q17.5098 16.3867 17.5098 16.1426Q17.5098 15.9082 17.3486 15.7422Q17.1875 15.5762 16.9434 15.5762Q16.709 15.5762 16.543 15.7422Q16.377 15.9082 16.377 16.1426Q16.377 16.3867 16.543 16.5527Q16.709 16.7188 16.9434 16.7188ZM18.7891 17.1484Q19.0332 17.1484 19.1943 16.9873Q19.3555 16.8262 19.3555 16.582Q19.3555 16.3477 19.1943 16.1816Q19.0332 16.0156 18.7891 16.0156Q18.5547 16.0156 18.3887 16.1816Q18.2227 16.3477 18.2227 16.582Q18.2227 16.8262 18.3887 16.9873Q18.5547 17.1484 18.7891 17.1484ZM20.5078 17.959Q20.7422 17.959 20.9082 17.793Q21.0742 17.627 21.0742 17.3926Q21.0742 17.1484 20.9082 16.9824Q20.7422 16.8164 20.5078 16.8164Q20.2637 16.8164 20.1025 16.9824Q19.9414 17.1484 19.9414 17.3926Q19.9414 17.627 20.1025 17.793Q20.2637 17.959 20.5078 17.959ZM22.3242 18.291Q22.5684 18.291 22.7344 18.125Q22.9004 17.959 22.9004 17.7148Q22.9004 17.4805 22.7344 17.3145Q22.5684 17.1484 22.3242 17.1484Q22.0898 17.1484 21.9238 17.3145Q21.7578 17.4805 21.7578 17.7148Q21.7578 17.959 21.9238 18.125Q22.0898 18.291 22.3242 18.291Z" fill="#ffffff"/>
 </g>
</svg>
