<?xml version="1.0" encoding="UTF-8"?>
<!--Generator: Apple Native CoreSVG 175.5-->
<!DOCTYPE svg
PUBLIC "-//W3C//DTD SVG 1.1//EN"
       "http://www.w3.org/Graphics/SVG/1.1/DTD/svg11.dtd">
<svg version="1.1" xmlns="http://www.w3.org/2000/svg" xmlns:xlink="http://www.w3.org/1999/xlink" width="19.9219" height="19.9316">
 <g>
  <rect height="19.9316" opacity="0" width="19.9219" x="0" y="0"/>
  <path d="M9.96094 19.9219Q12.002 19.9219 13.8037 19.1406Q15.6055 18.3594 16.9824 16.9824Q18.3594 15.6055 19.1406 13.8037Q19.9219 12.002 19.9219 9.96094Q19.9219 7.91992 19.1406 6.11816Q18.3594 4.31641 16.9824 2.93945Q15.6055 1.5625 13.7988 0.78125Q11.9922 0 9.95117 0Q7.91016 0 6.1084 0.78125Q4.30664 1.5625 2.93457 2.93945Q1.5625 4.31641 0.78125 6.11816Q0 7.91992 0 9.96094Q0 12.002 0.78125 13.8037Q1.5625 15.6055 2.93945 16.9824Q4.31641 18.3594 6.11816 19.1406Q7.91992 19.9219 9.96094 19.9219ZM9.96094 18.2617Q8.23242 18.2617 6.72852 17.6172Q5.22461 16.9727 4.08691 15.835Q2.94922 14.6973 2.30957 13.1934Q1.66992 11.6895 1.66992 9.96094Q1.66992 8.23242 2.30957 6.72852Q2.94922 5.22461 4.08203 4.08203Q5.21484 2.93945 6.71875 2.2998Q8.22266 1.66016 9.95117 1.66016Q11.6797 1.66016 13.1885 2.2998Q14.6973 2.93945 15.835 4.08203Q16.9727 5.22461 17.6172 6.72852Q18.2617 8.23242 18.2617 9.96094Q18.2617 11.6895 17.6221 13.1934Q16.9824 14.6973 15.8398 15.835Q14.6973 16.9727 13.1934 17.6172Q11.6895 18.2617 9.96094 18.2617Z" fill="#007aff"/>
  <path d="M5.36133 14.3066L14.5703 14.3066Q15.0098 14.3066 15.2686 14.0527Q15.5273 13.7988 15.5273 13.3691L15.5273 6.5625Q15.5273 6.13281 15.2686 5.87891Q15.0098 5.625 14.5703 5.625L5.36133 5.625Q4.92188 5.625 4.66309 5.87891Q4.4043 6.13281 4.4043 6.5625L4.4043 13.3691Q4.4043 13.7988 4.66309 14.0527Q4.92188 14.3066 5.36133 14.3066ZM5.46875 13.5059Q5.16602 13.5059 5.16602 13.2031L5.16602 12.5586Q5.16602 12.2656 5.44922 12.2656L6.20117 12.2656Q6.47461 12.2656 6.47461 12.5586L6.47461 13.2227Q6.47461 13.5059 6.20117 13.5059ZM5.44922 11.5137Q5.16602 11.5137 5.16602 11.2402L5.16602 10.5859Q5.16602 10.3027 5.44922 10.3027L6.20117 10.3027Q6.47461 10.3027 6.47461 10.5859L6.47461 11.2402Q6.47461 11.5137 6.20117 11.5137ZM5.44922 9.57031Q5.16602 9.57031 5.16602 9.30664L5.16602 8.63281Q5.16602 8.34961 5.44922 8.34961L6.20117 8.34961Q6.47461 8.34961 6.47461 8.63281L6.47461 9.30664Q6.47461 9.57031 6.20117 9.57031ZM5.44922 7.63672Q5.16602 7.63672 5.16602 7.36328L5.16602 6.71875Q5.16602 6.41602 5.44922 6.41602L6.20117 6.41602Q6.47461 6.41602 6.47461 6.71875L6.47461 7.36328Q6.47461 7.63672 6.20117 7.63672ZM13.7207 13.5059Q13.4473 13.5059 13.4473 13.2227L13.4473 12.5586Q13.4473 12.2656 13.7207 12.2656L14.4727 12.2656Q14.7559 12.2656 14.7559 12.5586L14.7559 13.2031Q14.7559 13.5059 14.4531 13.5059ZM13.7207 11.5137Q13.4473 11.5137 13.4473 11.2402L13.4473 10.5859Q13.4473 10.3027 13.7207 10.3027L14.4727 10.3027Q14.7559 10.3027 14.7559 10.5859L14.7559 11.2402Q14.7559 11.5137 14.4727 11.5137ZM13.7207 9.57031Q13.4473 9.57031 13.4473 9.30664L13.4473 8.63281Q13.4473 8.34961 13.7207 8.34961L14.4727 8.34961Q14.7559 8.34961 14.7559 8.63281L14.7559 9.30664Q14.7559 9.57031 14.4727 9.57031ZM13.7207 7.63672Q13.4473 7.63672 13.4473 7.36328L13.4473 6.71875Q13.4473 6.41602 13.7207 6.41602L14.4727 6.41602Q14.7559 6.41602 14.7559 6.71875L14.7559 7.36328Q14.7559 7.63672 14.4727 7.63672ZM7.91992 10.498Q7.69531 10.498 7.54395 10.3467Q7.39258 10.1953 7.39258 9.9707Q7.39258 9.73633 7.54395 9.58496Q7.69531 9.43359 7.91992 9.43359L12.002 9.43359Q12.2266 9.43359 12.3779 9.58496Q12.5293 9.73633 12.5293 9.9707Q12.5293 10.1953 12.3779 10.3467Q12.2266 10.498 12.002 10.498Z" fill="#ffffff"/>
 </g>
</svg>
