<?xml version="1.0" encoding="UTF-8"?>
<!--Generator: Apple Native CoreSVG 175.5-->
<!DOCTYPE svg
PUBLIC "-//W3C//DTD SVG 1.1//EN"
       "http://www.w3.org/Graphics/SVG/1.1/DTD/svg11.dtd">
<svg version="1.1" xmlns="http://www.w3.org/2000/svg" xmlns:xlink="http://www.w3.org/1999/xlink" width="18.4718" height="22.9299">
 <g>
  <rect height="22.9299" opacity="0" width="18.4718" x="0" y="0"/>
  <path d="M0.498047 20.3175Q0.498047 20.6105 0.717773 20.8302Q0.9375 21.0499 1.24023 21.0499Q1.55273 21.0499 1.76758 20.8351Q1.98242 20.6202 1.98242 20.3175L1.98242 14.8878Q2.16797 14.8097 2.83691 14.6192Q3.50586 14.4288 4.58008 14.4288Q5.87891 14.4288 6.97754 14.673Q8.07617 14.9171 9.10156 15.2491Q10.127 15.5812 11.1865 15.8546Q12.2461 16.128 13.4766 16.1866L0.693359 3.42296Q0.605469 3.55967 0.551758 3.72569Q0.498047 3.89171 0.498047 4.08702ZM4.60938 1.88975L17.5977 14.8683Q17.7246 14.6925 17.7832 14.4728Q17.8418 14.253 17.8418 13.9894L17.8418 4.07725Q17.8418 3.67686 17.5488 3.46202Q17.2559 3.24717 16.8262 3.24717Q16.4648 3.24717 15.7471 3.45225Q15.0293 3.65733 13.7695 3.65733Q12.5098 3.65733 11.4111 3.39854Q10.3125 3.13975 9.25781 2.79307Q8.20312 2.44639 7.07031 2.17784Q5.9375 1.90928 4.60938 1.88975Z" fill="#007aff"/>
  <path d="M17.1875 18.2472Q17.4121 18.462 17.7246 18.462Q18.0371 18.462 18.252 18.2472Q18.4668 18.0226 18.4717 17.7101Q18.4766 17.3976 18.252 17.1827L1.28906 0.21983Q1.06445 0.0049867 0.751953 0.00010389Q0.439453-0.00477892 0.214844 0.21983Q0 0.434674 0 0.752057Q0 1.06944 0.214844 1.28428Z" fill="#ffffff"/>
 </g>
</svg>
