<?xml version="1.0" encoding="UTF-8"?>
<!--Generator: Apple Native CoreSVG 175.5-->
<!DOCTYPE svg
PUBLIC "-//W3C//DTD SVG 1.1//EN"
       "http://www.w3.org/Graphics/SVG/1.1/DTD/svg11.dtd">
<svg version="1.1" xmlns="http://www.w3.org/2000/svg" xmlns:xlink="http://www.w3.org/1999/xlink" width="19.9219" height="19.9316">
 <g>
  <rect height="19.9316" opacity="0" width="19.9219" x="0" y="0"/>
  <path d="M9.96094 19.9219Q12.002 19.9219 13.8037 19.1406Q15.6055 18.3594 16.9824 16.9824Q18.3594 15.6055 19.1406 13.8037Q19.9219 12.002 19.9219 9.96094Q19.9219 7.91992 19.1406 6.11816Q18.3594 4.31641 16.9824 2.93945Q15.6055 1.5625 13.7988 0.78125Q11.9922 0 9.95117 0Q7.91016 0 6.1084 0.78125Q4.30664 1.5625 2.93457 2.93945Q1.5625 4.31641 0.78125 6.11816Q0 7.91992 0 9.96094Q0 12.002 0.78125 13.8037Q1.5625 15.6055 2.93945 16.9824Q4.31641 18.3594 6.11816 19.1406Q7.91992 19.9219 9.96094 19.9219ZM9.96094 18.2617Q8.23242 18.2617 6.72852 17.6172Q5.22461 16.9727 4.08691 15.835Q2.94922 14.6973 2.30957 13.1934Q1.66992 11.6895 1.66992 9.96094Q1.66992 8.23242 2.30957 6.72852Q2.94922 5.22461 4.08203 4.08203Q5.21484 2.93945 6.71875 2.2998Q8.22266 1.66016 9.95117 1.66016Q11.6797 1.66016 13.1885 2.2998Q14.6973 2.93945 15.835 4.08203Q16.9727 5.22461 17.6172 6.72852Q18.2617 8.23242 18.2617 9.96094Q18.2617 11.6895 17.6221 13.1934Q16.9824 14.6973 15.8398 15.835Q14.6973 16.9727 13.1934 17.6172Q11.6895 18.2617 9.96094 18.2617Z" fill="#007aff"/>
  <path d="M6.24023 15.2148Q6.42578 15.2148 6.55273 15.083Q6.67969 14.9512 6.67969 14.7656L6.67969 11.8848Q6.81641 11.8262 7.10449 11.7578Q7.39258 11.6895 7.8418 11.6895Q8.7207 11.6895 9.42383 11.9043Q10.127 12.1191 10.8252 12.334Q11.5234 12.5488 12.373 12.5488Q12.9199 12.5488 13.2129 12.4854Q13.5059 12.4219 13.7793 12.2949Q14.3848 12.0215 14.3848 11.3867L14.3848 6.57227Q14.3848 6.08398 13.8379 6.08398Q13.623 6.08398 13.2715 6.18652Q12.9199 6.28906 12.3242 6.28906Q11.4941 6.28906 10.7959 6.07422Q10.0977 5.85938 9.38477 5.63965Q8.67188 5.41992 7.79297 5.41992Q7.22656 5.41992 6.93848 5.4834Q6.65039 5.54688 6.38672 5.66406Q5.78125 5.92773 5.78125 6.57227L5.78125 14.7656Q5.78125 14.9414 5.91797 15.0781Q6.05469 15.2148 6.24023 15.2148Z" fill="#ffffff"/>
 </g>
</svg>
