<?xml version="1.0" encoding="UTF-8"?>
<!--Generator: Apple Native CoreSVG 175-->
<!DOCTYPE svg
PUBLIC "-//W3C//DTD SVG 1.1//EN"
       "http://www.w3.org/Graphics/SVG/1.1/DTD/svg11.dtd">
<svg version="1.1" xmlns="http://www.w3.org/2000/svg" xmlns:xlink="http://www.w3.org/1999/xlink" width="17.2754" height="22.1792">
 <g>
  <rect height="22.1792" opacity="0" width="17.2754" x="0" y="0"/>
  <path d="M0.498047 19.7371Q0.498047 19.8836 0.605469 19.991Q0.712891 20.0984 0.859375 20.0984Q1.00586 20.0984 1.11328 19.9959Q1.2207 19.8933 1.2207 19.7371L1.2207 13.7019Q1.48438 13.6922 2.18262 13.4675Q2.88086 13.2429 4.11133 13.2429Q5.41992 13.2429 6.47949 13.4968Q7.53906 13.7508 8.54492 14.0925Q9.55078 14.4343 10.6543 14.698Q11.7578 14.9617 13.1445 14.9715L1.03516 2.86208Q0.791016 3.01833 0.644531 3.21364Q0.498047 3.40895 0.498047 3.67263ZM3.94531 2.11989L16.0547 14.2293Q16.2891 14.0828 16.4209 13.8826Q16.5527 13.6824 16.5527 13.4187L16.5527 3.96559Q16.5527 3.68239 16.3867 3.54079Q16.2207 3.39919 15.9668 3.39919Q15.6348 3.39919 14.9219 3.6238Q14.209 3.84841 12.9297 3.84841Q11.6699 3.84841 10.6006 3.58962Q9.53125 3.33083 8.50586 2.98903Q7.48047 2.64724 6.37695 2.38356Q5.27344 2.11989 3.94531 2.11989Z" fill="#007aff"/>
  <path d="M16.6504 17.1687Q16.7578 17.2664 16.9092 17.2664Q17.0605 17.2664 17.168 17.1687Q17.2754 17.0613 17.2754 16.9099Q17.2754 16.7586 17.168 16.6609L0.615234 0.108173Q0.517578 0.0105168 0.366211 0.000751202Q0.214844-0.00901442 0.107422 0.108173Q0 0.215595 0 0.362079Q0 0.508564 0.107422 0.615986Z" fill="#ffffff"/>
 </g>
</svg>
