<?xml version="1.0" encoding="UTF-8"?>
<!--Generator: Apple Native CoreSVG 175.5-->
<!DOCTYPE svg
PUBLIC "-//W3C//DTD SVG 1.1//EN"
       "http://www.w3.org/Graphics/SVG/1.1/DTD/svg11.dtd">
<svg version="1.1" xmlns="http://www.w3.org/2000/svg" xmlns:xlink="http://www.w3.org/1999/xlink" width="19.9219" height="19.9316">
 <g>
  <rect height="19.9316" opacity="0" width="19.9219" x="0" y="0"/>
  <path d="M9.96094 19.9219Q12.002 19.9219 13.8037 19.1406Q15.6055 18.3594 16.9824 16.9824Q18.3594 15.6055 19.1406 13.8037Q19.9219 12.002 19.9219 9.96094Q19.9219 7.91992 19.1406 6.11816Q18.3594 4.31641 16.9824 2.93945Q15.6055 1.5625 13.7988 0.78125Q11.9922 0 9.95117 0Q7.91016 0 6.1084 0.78125Q4.30664 1.5625 2.93457 2.93945Q1.5625 4.31641 0.78125 6.11816Q0 7.91992 0 9.96094Q0 12.002 0.78125 13.8037Q1.5625 15.6055 2.93945 16.9824Q4.31641 18.3594 6.11816 19.1406Q7.91992 19.9219 9.96094 19.9219ZM9.96094 18.2617Q8.23242 18.2617 6.72852 17.6172Q5.22461 16.9727 4.08691 15.835Q2.94922 14.6973 2.30957 13.1934Q1.66992 11.6895 1.66992 9.96094Q1.66992 8.23242 2.30957 6.72852Q2.94922 5.22461 4.08203 4.08203Q5.21484 2.93945 6.71875 2.2998Q8.22266 1.66016 9.95117 1.66016Q11.6797 1.66016 13.1885 2.2998Q14.6973 2.93945 15.835 4.08203Q16.9727 5.22461 17.6172 6.72852Q18.2617 8.23242 18.2617 9.96094Q18.2617 11.6895 17.6221 13.1934Q16.9824 14.6973 15.8398 15.835Q14.6973 16.9727 13.1934 17.6172Q11.6895 18.2617 9.96094 18.2617Z" fill="#007aff"/>
  <path d="M10 16.0059Q11.4062 16.0059 12.4561 15.4102Q13.5059 14.8145 14.0869 13.7451Q14.668 12.6758 14.668 11.25Q14.668 9.47266 14.0088 8.19336Q13.3496 6.91406 12.2998 6.10352Q11.25 5.29297 10.0635 4.90234Q8.87695 4.51172 7.82227 4.51172Q7.45117 4.51172 7.23633 4.64844Q7.02148 4.78516 7.02148 5.03906Q7.02148 5.24414 7.17773 5.43945Q7.64648 5.99609 8.04199 6.66992Q8.4375 7.34375 8.44727 8.125Q8.44727 8.31055 8.41309 8.48633Q8.37891 8.66211 8.25195 8.87695L8.51562 8.82812Q8.33008 8.24219 7.91504 7.86621Q7.5 7.49023 7.08008 7.49023Q6.70898 7.49023 6.70898 7.89062Q6.70898 7.98828 6.7334 8.19824Q6.75781 8.4082 6.75781 8.59375Q6.75781 9.0332 6.61621 9.41895Q6.47461 9.80469 6.29395 10.2148Q6.11328 10.625 5.97656 11.1475Q5.83984 11.6699 5.83984 12.3828Q5.83984 13.4668 6.35742 14.2822Q6.875 15.0977 7.8125 15.5518Q8.75 16.0059 10 16.0059ZM10.127 14.5117Q9.39453 14.5117 8.93555 14.0967Q8.47656 13.6816 8.47656 13.0078Q8.47656 12.5488 8.64746 12.2461Q8.81836 11.9434 9.00391 11.6992Q9.18945 11.4551 9.22852 11.1523Q9.22852 11.1133 9.25293 11.1035Q9.27734 11.0938 9.30664 11.123Q9.49219 11.2793 9.61426 11.4795Q9.73633 11.6797 9.84375 11.9043Q10.0586 11.6211 10.1465 11.0645Q10.2344 10.5078 10.166 9.86328Q10.1562 9.81445 10.1807 9.7998Q10.2051 9.78516 10.2344 9.79492Q11.1133 10.2051 11.5527 10.9814Q11.9922 11.7578 11.9922 12.5293Q11.9922 13.3203 11.5332 13.916Q11.0742 14.5117 10.127 14.5117Z" fill="#ffffff"/>
 </g>
</svg>
