<?xml version="1.0" encoding="UTF-8"?>
<!--Generator: Apple Native CoreSVG 175-->
<!DOCTYPE svg
PUBLIC "-//W3C//DTD SVG 1.1//EN"
       "http://www.w3.org/Graphics/SVG/1.1/DTD/svg11.dtd">
<svg version="1.1" xmlns="http://www.w3.org/2000/svg" xmlns:xlink="http://www.w3.org/1999/xlink" width="17.2852" height="17.3145">
 <g>
  <rect height="17.3145" opacity="0" width="17.2852" x="0" y="0"/>
  <path d="M2.62695 17.3145L14.6484 17.3145Q15.957 17.3145 16.6211 16.6455Q17.2852 15.9766 17.2852 14.6875L17.2852 2.65625Q17.2852 1.37695 16.6211 0.703125Q15.957 0.0292969 14.6484 0.0292969L2.62695 0.0292969Q1.33789 0.0292969 0.668945 0.693359Q0 1.35742 0 2.65625L0 14.6875Q0 15.9863 0.668945 16.6504Q1.33789 17.3145 2.62695 17.3145Z" fill="#007aff"/>
  <path d="M6.43555 12.9688Q6.19141 12.9688 5.95703 12.9395Q5.72266 12.9102 5.55664 12.832Q5.27344 12.7148 5.27344 12.4805Q5.27344 12.3438 5.35156 12.2656Q5.42969 12.1875 5.57617 12.1875Q5.67383 12.1875 5.83008 12.2266Q5.9375 12.2656 6.0791 12.2998Q6.2207 12.334 6.42578 12.334Q7.08008 12.334 7.44141 11.958Q7.80273 11.582 7.92969 10.7617L8.32031 8.62305L6.24023 8.62305Q6.09375 8.62305 6.01074 8.54004Q5.92773 8.45703 5.92773 8.32031Q5.92773 8.17383 6.01562 8.09082Q6.10352 8.00781 6.24023 8.00781L8.42773 8.00781L8.71094 6.42578Q8.90625 5.33203 9.42871 4.81934Q9.95117 4.30664 10.8691 4.30664Q11.1035 4.30664 11.3379 4.33594Q11.5723 4.36523 11.7383 4.44336Q12.0215 4.57031 12.0215 4.80469Q12.0215 4.93164 11.9482 5.01465Q11.875 5.09766 11.7285 5.09766Q11.6211 5.09766 11.4746 5.04883Q11.3672 5.01953 11.2207 4.98535Q11.0742 4.95117 10.8789 4.95117Q10.2148 4.95117 9.8584 5.32227Q9.50195 5.69336 9.36523 6.51367L9.10156 8.00781L11.2598 8.00781Q11.4062 8.00781 11.4893 8.09082Q11.5723 8.17383 11.5723 8.32031Q11.5723 8.45703 11.4893 8.54004Q11.4062 8.62305 11.2598 8.62305L8.99414 8.62305L8.58398 10.8496Q8.38867 11.9434 7.87109 12.4561Q7.35352 12.9688 6.43555 12.9688Z" fill="#ffffff"/>
 </g>
</svg>
