<?xml version="1.0" encoding="UTF-8"?>
<!--Generator: Apple Native CoreSVG 175.5-->
<!DOCTYPE svg
PUBLIC "-//W3C//DTD SVG 1.1//EN"
       "http://www.w3.org/Graphics/SVG/1.1/DTD/svg11.dtd">
<svg version="1.1" xmlns="http://www.w3.org/2000/svg" xmlns:xlink="http://www.w3.org/1999/xlink" width="17.9785" height="17.998">
 <g>
  <rect height="17.998" opacity="0" width="17.9785" x="0" y="0"/>
  <path d="M3.06641 17.998L14.9121 17.998Q16.4453 17.998 17.2119 17.2412Q17.9785 16.4844 17.9785 14.9707L17.9785 3.04688Q17.9785 1.5332 17.2119 0.776367Q16.4453 0.0195312 14.9121 0.0195312L3.06641 0.0195312Q1.5332 0.0195312 0.766602 0.776367Q0 1.5332 0 3.04688L0 14.9707Q0 16.4844 0.766602 17.2412Q1.5332 17.998 3.06641 17.998ZM3.08594 16.4258Q2.35352 16.4258 1.96289 16.04Q1.57227 15.6543 1.57227 14.8926L1.57227 3.125Q1.57227 2.36328 1.96289 1.97754Q2.35352 1.5918 3.08594 1.5918L14.8926 1.5918Q15.6152 1.5918 16.0107 1.97754Q16.4062 2.36328 16.4062 3.125L16.4062 14.8926Q16.4062 15.6543 16.0107 16.04Q15.6152 16.4258 14.8926 16.4258Z" fill="#007aff"/>
  <path d="M6.66992 13.6914Q7.7832 13.6914 8.4082 13.1006Q9.0332 12.5098 9.22852 11.2988L9.56055 9.27734L11.6113 9.27734Q11.8555 9.27734 12.002 9.13574Q12.1484 8.99414 12.1484 8.76953Q12.1484 8.23242 11.6113 8.23242L9.72656 8.23242L9.96094 6.74805Q10.0781 6.03516 10.4053 5.71777Q10.7324 5.40039 11.377 5.40039Q11.5918 5.40039 11.709 5.41992Q11.8262 5.43945 11.9434 5.45898Q12.0801 5.48828 12.2168 5.48828Q12.4805 5.48828 12.627 5.3418Q12.7734 5.19531 12.7734 4.9707Q12.7734 4.54102 12.2852 4.36523Q12.1094 4.29688 11.8701 4.26758Q11.6309 4.23828 11.3184 4.23828Q10.2051 4.23828 9.5752 4.8291Q8.94531 5.41992 8.75 6.64062L8.49609 8.23242L6.5332 8.23242Q6.00586 8.23242 6.00586 8.76953Q6.00586 8.99414 6.14746 9.13574Q6.28906 9.27734 6.5332 9.27734L8.33984 9.27734L8.02734 11.1426Q7.91016 11.875 7.58301 12.207Q7.25586 12.5391 6.61133 12.5391Q6.38672 12.5391 6.27441 12.5195Q6.16211 12.5 6.03516 12.4707Q5.89844 12.4414 5.76172 12.4414Q5.49805 12.4414 5.35156 12.5928Q5.20508 12.7441 5.20508 12.959Q5.20508 13.3887 5.69336 13.5645Q5.86914 13.6328 6.11328 13.6621Q6.35742 13.6914 6.66992 13.6914Z" fill="#ffffff"/>
 </g>
</svg>
