<?xml version="1.0" encoding="UTF-8"?>
<!--Generator: Apple Native CoreSVG 175.5-->
<!DOCTYPE svg
PUBLIC "-//W3C//DTD SVG 1.1//EN"
       "http://www.w3.org/Graphics/SVG/1.1/DTD/svg11.dtd">
<svg version="1.1" xmlns="http://www.w3.org/2000/svg" xmlns:xlink="http://www.w3.org/1999/xlink" width="17.9785" height="17.998">
 <g>
  <rect height="17.998" opacity="0" width="17.9785" x="0" y="0"/>
  <path d="M3.06641 17.998L14.9121 17.998Q16.4453 17.998 17.2119 17.2412Q17.9785 16.4844 17.9785 14.9707L17.9785 3.04688Q17.9785 1.5332 17.2119 0.776367Q16.4453 0.0195312 14.9121 0.0195312L3.06641 0.0195312Q1.5332 0.0195312 0.766602 0.776367Q0 1.5332 0 3.04688L0 14.9707Q0 16.4844 0.766602 17.2412Q1.5332 17.998 3.06641 17.998Z" fill="#007aff"/>
  <path d="M6.5918 13.8477Q6.26953 13.8477 6.02051 13.8184Q5.77148 13.7891 5.58594 13.7109Q5.07812 13.5352 5.07812 13.0859Q5.07812 12.8613 5.22949 12.7051Q5.38086 12.5488 5.6543 12.5488Q5.80078 12.5488 5.9375 12.5781Q6.06445 12.6074 6.18652 12.627Q6.30859 12.6465 6.5332 12.6465Q7.19727 12.6465 7.53906 12.3096Q7.88086 11.9727 7.99805 11.2109L8.32031 9.28711L6.45508 9.28711Q6.20117 9.28711 6.05469 9.14551Q5.9082 9.00391 5.9082 8.76953Q5.9082 8.50586 6.05469 8.35938Q6.20117 8.21289 6.45508 8.21289L8.47656 8.21289L8.74023 6.5625Q8.94531 5.3125 9.59473 4.69727Q10.2441 4.08203 11.3965 4.08203Q11.709 4.08203 11.9629 4.11133Q12.2168 4.14062 12.3926 4.21875Q12.9004 4.39453 12.9004 4.84375Q12.9004 5.07812 12.749 5.22949Q12.5977 5.38086 12.3242 5.38086Q12.1777 5.38086 12.041 5.35156Q11.9141 5.33203 11.7969 5.3125Q11.6797 5.29297 11.4551 5.29297Q10.791 5.29297 10.4541 5.62012Q10.1172 5.94727 9.99023 6.67969L9.75586 8.21289L11.6895 8.21289Q11.9531 8.21289 12.0996 8.35938Q12.2461 8.50586 12.2461 8.76953Q12.2461 9.00391 12.0996 9.14551Q11.9531 9.28711 11.6895 9.28711L9.58008 9.28711L9.23828 11.377Q9.04297 12.627 8.39355 13.2373Q7.74414 13.8477 6.5918 13.8477Z" fill="#ffffff"/>
 </g>
</svg>
