<?xml version="1.0" encoding="UTF-8"?>
<!--Generator: Apple Native CoreSVG 175.5-->
<!DOCTYPE svg
PUBLIC "-//W3C//DTD SVG 1.1//EN"
       "http://www.w3.org/Graphics/SVG/1.1/DTD/svg11.dtd">
<svg version="1.1" xmlns="http://www.w3.org/2000/svg" xmlns:xlink="http://www.w3.org/1999/xlink" width="20.9961" height="23.1348">
 <g>
  <rect height="23.1348" opacity="0" width="20.9961" x="0" y="0"/>
  <path d="M2.33398 8.21289L18.6621 8.21289Q19.7559 8.21289 20.376 7.60254Q20.9961 6.99219 20.9961 5.91797L20.9961 2.61719Q20.9961 1.54297 20.376 0.932617Q19.7559 0.322266 18.6621 0.322266L2.33398 0.322266Q1.24023 0.322266 0.620117 0.932617Q0 1.54297 0 2.61719L0 5.91797Q0 6.99219 0.620117 7.60254Q1.24023 8.21289 2.33398 8.21289ZM2.36328 6.73828Q1.94336 6.73828 1.70898 6.49414Q1.47461 6.25 1.47461 5.83008L1.47461 2.69531Q1.47461 2.27539 1.70898 2.03613Q1.94336 1.79688 2.36328 1.79688L18.6328 1.79688Q19.0527 1.79688 19.2871 2.03613Q19.5215 2.27539 19.5215 2.69531L19.5215 5.83008Q19.5215 6.25 19.2871 6.49414Q19.0527 6.73828 18.6328 6.73828ZM9.79492 10.5371L11.2207 10.5371L11.2207 7.45117L9.79492 7.45117ZM2.33398 17.5098L18.6621 17.5098Q19.7559 17.5098 20.376 16.8994Q20.9961 16.2891 20.9961 15.2148L20.9961 11.9141Q20.9961 10.8398 20.376 10.2295Q19.7559 9.61914 18.6621 9.61914L2.33398 9.61914Q1.24023 9.61914 0.620117 10.2295Q0 10.8398 0 11.9141L0 15.2148Q0 16.2891 0.620117 16.8994Q1.24023 17.5098 2.33398 17.5098ZM2.36328 16.0352Q1.94336 16.0352 1.70898 15.7959Q1.47461 15.5566 1.47461 15.1367L1.47461 12.002Q1.47461 11.582 1.70898 11.3379Q1.94336 11.0938 2.36328 11.0938L18.6328 11.0938Q19.0527 11.0938 19.2871 11.3379Q19.5215 11.582 19.5215 12.002L19.5215 15.1367Q19.5215 15.5566 19.2871 15.7959Q19.0527 16.0352 18.6328 16.0352ZM9.78516 19.5508L11.2207 19.5508L11.2207 16.4746L9.78516 16.4746ZM9.98047 22.8613Q10.2051 23.1348 10.5225 23.1348Q10.8398 23.1348 11.0547 22.8613L13.291 20.0977Q13.6133 19.6973 13.4521 19.2773Q13.291 18.8574 12.7637 18.8574L8.26172 18.8574Q7.72461 18.8574 7.55859 19.2725Q7.39258 19.6875 7.72461 20.0977Z" fill="#ffffff"/>
 </g>
</svg>
