<?xml version="1.0" encoding="UTF-8"?>
<!--Generator: Apple Native CoreSVG 175.5-->
<!DOCTYPE svg
PUBLIC "-//W3C//DTD SVG 1.1//EN"
       "http://www.w3.org/Graphics/SVG/1.1/DTD/svg11.dtd">
<svg version="1.1" xmlns="http://www.w3.org/2000/svg" xmlns:xlink="http://www.w3.org/1999/xlink" width="19.8493" height="19.8642">
 <g>
  <rect height="19.8642" opacity="0" width="19.8493" x="0" y="0"/>
  <path d="M15.5275 15.5327Q16.9436 14.1069 17.9006 12.4419Q18.8576 10.7768 19.3459 9.01412Q19.8342 7.25142 19.8488 5.51802Q19.8635 3.78462 19.4045 2.23189Q19.1506 1.41158 18.799 1.06001Q18.4475 0.708452 17.6174 0.454545Q16.0647-0.0142045 14.3361 0.000443892Q12.6076 0.0150923 10.84 0.503374Q9.07247 0.991655 7.40743 1.94869Q5.74239 2.90572 4.31661 4.32173Q2.90059 5.74751 1.94356 7.41255Q0.986532 9.07759 0.49825 10.8452Q0.00996908 12.6127 0.000203451 14.3413Q-0.00956217 16.0698 0.449422 17.6225Q0.703328 18.4428 1.05489 18.7944Q1.40645 19.146 2.22677 19.3999Q3.7795 19.8686 5.5129 19.854Q7.2463 19.8393 9.00899 19.351Q10.7717 18.8627 12.4367 17.9057Q14.1018 16.9487 15.5275 15.5327ZM14.3752 14.3803Q12.7346 16.0307 10.8059 16.9877Q8.87716 17.9448 6.82638 18.1694Q4.77559 18.394 2.77364 17.8569Q2.50997 17.7885 2.36348 17.7104Q2.217 17.6323 2.13399 17.476Q2.05098 17.3198 1.98263 17.0463Q1.46505 15.0542 1.68966 13.0083Q1.91427 10.9624 2.86641 9.03853Q3.81856 7.1147 5.46895 5.47408Q7.10958 3.82369 9.03829 2.87154Q10.967 1.91939 13.008 1.6899Q15.049 1.4604 17.0412 1.97798Q17.3244 2.05611 17.4758 2.13912Q17.6272 2.22212 17.7053 2.36861Q17.7834 2.51509 17.8518 2.77876Q18.3889 4.78072 18.1643 6.8315Q17.9397 8.88228 16.9826 10.811Q16.0256 12.7397 14.3752 14.3803ZM11.5529 0.806108L10.3127 2.04634L17.8225 9.56587L19.0725 8.31587ZM0.81075 11.5581L8.31075 19.0776L9.56075 17.8276L2.05098 10.3178ZM6.04513 11.8608L7.99825 13.8042Q8.1252 13.9311 8.30098 13.9311Q8.47677 13.9311 8.60372 13.8042Q8.73067 13.6772 8.73067 13.4965Q8.73067 13.3159 8.60372 13.1889L6.66036 11.2456Q6.53341 11.1186 6.35274 11.1186Q6.17208 11.1186 6.04513 11.2456Q5.91817 11.3725 5.91817 11.5483Q5.91817 11.7241 6.04513 11.8608ZM7.35372 10.5424L9.30684 12.4956Q9.4338 12.6225 9.60958 12.6225Q9.78536 12.6225 9.91231 12.4956Q10.0393 12.3686 10.0393 12.1879Q10.0393 12.0073 9.91231 11.8803L7.96895 9.93697Q7.842 9.81001 7.66134 9.81001Q7.48067 9.81001 7.35372 9.93697Q7.22677 10.0639 7.22677 10.2397Q7.22677 10.4155 7.35372 10.5424ZM8.66231 9.23384L10.6154 11.187Q10.7424 11.3139 10.9182 11.3139Q11.094 11.3139 11.2209 11.187Q11.3479 11.06 11.3479 10.8794Q11.3479 10.6987 11.2209 10.5815L9.26778 8.62837Q9.15059 8.50142 8.96993 8.50142Q8.78927 8.50142 8.66231 8.62837Q8.53536 8.75533 8.53536 8.93111Q8.53536 9.10689 8.66231 9.23384ZM9.97091 7.93501L11.9143 9.87837Q12.0412 10.0053 12.2219 10.0053Q12.4025 10.0053 12.5295 9.87837Q12.6565 9.75142 12.6565 9.57564Q12.6565 9.39986 12.5295 9.2729L10.5861 7.31978Q10.4494 7.19283 10.2736 7.19283Q10.0979 7.19283 9.97091 7.31978Q9.85372 7.44673 9.85372 7.6274Q9.85372 7.80806 9.97091 7.93501ZM11.2893 6.62642L13.2229 8.56001Q13.3498 8.68697 13.5305 8.68697Q13.7111 8.68697 13.8381 8.56001Q13.965 8.44283 13.965 8.26216Q13.965 8.0815 13.8381 7.95455L11.8947 6.00142Q11.7678 5.88423 11.592 5.88423Q11.4162 5.88423 11.2893 6.00142Q11.1623 6.13814 11.1623 6.3188Q11.1623 6.49947 11.2893 6.62642ZM7.5002 12.9545L12.9592 7.50533L12.3537 6.89986L6.89473 12.3588Z" fill="#ffffff"/>
 </g>
</svg>
