<?xml version="1.0" encoding="UTF-8"?>
<!--Generator: Apple Native CoreSVG 175.5-->
<!DOCTYPE svg
PUBLIC "-//W3C//DTD SVG 1.1//EN"
       "http://www.w3.org/Graphics/SVG/1.1/DTD/svg11.dtd">
<svg version="1.1" xmlns="http://www.w3.org/2000/svg" xmlns:xlink="http://www.w3.org/1999/xlink" width="13.4251" height="24.0918">
 <g>
  <rect height="24.0918" opacity="0" width="13.4251" x="0" y="0"/>
  <path d="M3.34695 22.6465Q3.96218 22.6465 4.31374 22.3145Q4.66531 21.9824 4.66531 21.3867L4.46999 10.4199Q4.46999 10.166 4.5823 9.97559Q4.6946 9.78516 4.91921 9.6875Q5.56374 9.4043 5.96902 9.06738Q6.37429 8.73047 6.55007 8.20312Q6.72585 7.67578 6.69656 6.81641L6.42312 0.820312Q6.39382 0.146484 5.74929 0.146484Q5.46609 0.146484 5.30007 0.327148Q5.13406 0.507812 5.13406 0.839844L5.20241 6.66992Q5.20241 6.93359 5.05105 7.08008Q4.89968 7.22656 4.66531 7.22656Q4.4114 7.22656 4.25515 7.08496Q4.0989 6.94336 4.0989 6.69922L4.00124 0.664062Q3.99148 0.351562 3.82058 0.175781Q3.64968 0 3.34695 0Q3.05398 0 2.8782 0.175781Q2.70241 0.351562 2.70241 0.664062L2.60476 6.69922Q2.60476 6.94336 2.44363 7.08496Q2.28249 7.22656 2.03835 7.22656Q1.49148 7.22656 1.49148 6.66992L1.55984 0.839844Q1.55984 0.507812 1.3987 0.327148Q1.23757 0.146484 0.944602 0.146484Q0.641868 0.146484 0.466087 0.322266Q0.290305 0.498047 0.270774 0.820312L0.00710227 6.81641Q-0.0319602 7.67578 0.143821 8.20312Q0.319602 8.73047 0.724876 9.06738Q1.13015 9.4043 1.77468 9.6875Q2.00906 9.78516 2.11648 9.97559Q2.2239 10.166 2.2239 10.4199L2.03835 21.3867Q2.02859 21.9824 2.38015 22.3145Q2.73171 22.6465 3.34695 22.6465ZM10.9934 14.1309L10.7786 21.3379Q10.7591 21.9727 11.1204 22.3096Q11.4817 22.6465 12.0872 22.6465Q12.7024 22.6465 13.0637 22.3389Q13.4251 22.0312 13.4251 21.4453L13.4251 0.732422Q13.4251 0.361328 13.2102 0.180664Q12.9954 0 12.7219 0Q12.4485 0 12.2434 0.15625Q12.0384 0.3125 11.7942 0.654297Q11.2083 1.48438 10.7298 2.63184Q10.2512 3.7793 9.90456 5.1416Q9.55788 6.50391 9.37234 7.96875Q9.18679 9.43359 9.18679 10.8984L9.18679 11.377Q9.18679 11.8848 9.37234 12.2559Q9.55788 12.627 9.91921 12.8711L10.5051 13.2617Q10.7591 13.4473 10.8811 13.6572Q11.0032 13.8672 10.9934 14.1309Z" fill="#ffffff"/>
 </g>
</svg>
