<?xml version="1.0" encoding="UTF-8"?>
<!--Generator: Apple Native CoreSVG 175-->
<!DOCTYPE svg
PUBLIC "-//W3C//DTD SVG 1.1//EN"
       "http://www.w3.org/Graphics/SVG/1.1/DTD/svg11.dtd">
<svg version="1.1" xmlns="http://www.w3.org/2000/svg" xmlns:xlink="http://www.w3.org/1999/xlink" width="19.1602" height="19.1504">
 <g>
  <rect height="19.1504" opacity="0" width="19.1602" x="0" y="0"/>
  <path d="M9.57031 19.1406Q11.5527 19.1406 13.2861 18.3984Q15.0195 17.6562 16.3379 16.333Q17.6562 15.0098 18.4082 13.2764Q19.1602 11.543 19.1602 9.57031Q19.1602 7.59766 18.4082 5.86426Q17.6562 4.13086 16.3379 2.80762Q15.0195 1.48438 13.2861 0.742188Q11.5527 0 9.57031 0Q7.59766 0 5.86426 0.742188Q4.13086 1.48438 2.81738 2.80762Q1.50391 4.13086 0.751953 5.86426Q0 7.59766 0 9.57031Q0 11.543 0.74707 13.2764Q1.49414 15.0098 2.8125 16.333Q4.13086 17.6562 5.86914 18.3984Q7.60742 19.1406 9.57031 19.1406Z" fill="#007aff"/>
  <path d="M7.43164 16.0254Q7.11914 16.0254 6.90918 15.8447Q6.69922 15.6641 6.69922 15.3418L6.81641 8.99414Q6.81641 8.83789 6.7627 8.73535Q6.70898 8.63281 6.57227 8.57422Q6.03516 8.33008 5.83008 7.9834Q5.625 7.63672 5.64453 6.9043L5.80078 3.49609Q5.82031 3.1543 6.15234 3.1543Q6.47461 3.1543 6.47461 3.51562L6.45508 6.82617Q6.45508 7.1582 6.73828 7.1582Q7.04102 7.1582 7.04102 6.8457L7.08984 3.41797Q7.08984 3.07617 7.43164 3.07617Q7.7832 3.07617 7.7832 3.41797L7.83203 6.8457Q7.83203 7.1582 8.14453 7.1582Q8.41797 7.1582 8.41797 6.82617L8.39844 3.51562Q8.39844 3.1543 8.73047 3.1543Q9.05273 3.1543 9.07227 3.49609L9.23828 6.9043Q9.27734 7.63672 9.0625 7.9834Q8.84766 8.33008 8.31055 8.57422Q8.17383 8.63281 8.11523 8.73535Q8.05664 8.83789 8.05664 8.99414L8.17383 15.3418Q8.18359 15.6641 7.97363 15.8447Q7.76367 16.0254 7.43164 16.0254ZM11.2793 11.4941Q11.2988 11.0645 11.0059 10.8398L10.7812 10.6641Q10.5762 10.498 10.4639 10.2979Q10.3516 10.0977 10.3516 9.75586L10.3516 9.32617Q10.3516 8.125 10.5273 7.00684Q10.7031 5.88867 11.0352 4.95605Q11.3672 4.02344 11.8262 3.38867Q12.0312 3.07617 12.2754 3.07617Q12.4121 3.07617 12.5098 3.15918Q12.6074 3.24219 12.6074 3.44727L12.6074 15.3418Q12.6074 15.6641 12.3975 15.8447Q12.1875 16.0254 11.8652 16.0254Q11.543 16.0254 11.3232 15.8301Q11.1035 15.6348 11.123 15.2344Z" fill="#ffffff"/>
 </g>
</svg>
