<?xml version="1.0" encoding="UTF-8"?>
<!--Generator: Apple Native CoreSVG 175.5-->
<!DOCTYPE svg
PUBLIC "-//W3C//DTD SVG 1.1//EN"
       "http://www.w3.org/Graphics/SVG/1.1/DTD/svg11.dtd">
<svg version="1.1" xmlns="http://www.w3.org/2000/svg" xmlns:xlink="http://www.w3.org/1999/xlink" width="26.8945" height="15.3613">
 <g>
  <rect height="15.3613" opacity="0" width="26.8945" x="0" y="0"/>
  <path d="M1.40625 15.3613Q1.70898 15.3613 1.97266 15.2686Q2.23633 15.1758 2.5293 15L12.4805 9.14062Q12.998 8.83789 13.2373 8.47168Q13.4766 8.10547 13.4766 7.68555Q13.4766 7.26562 13.2422 6.9043Q13.0078 6.54297 12.4805 6.24023L2.5293 0.380859Q2.23633 0.205078 1.97266 0.112305Q1.70898 0.0195312 1.40625 0.0195312Q0.830078 0.0195312 0.415039 0.449219Q0 0.878906 0 1.68945L0 13.6914Q0 14.502 0.415039 14.9316Q0.830078 15.3613 1.40625 15.3613ZM14.8242 15.3613Q15.127 15.3613 15.3906 15.2686Q15.6543 15.1758 15.9473 15L25.8984 9.14062Q26.416 8.83789 26.6553 8.47168Q26.8945 8.10547 26.8945 7.68555Q26.8945 7.26562 26.6602 6.9043Q26.4258 6.54297 25.8984 6.24023L15.9473 0.380859Q15.6543 0.205078 15.3906 0.112305Q15.127 0.0195312 14.8242 0.0195312Q14.248 0.0195312 13.833 0.449219Q13.418 0.878906 13.418 1.68945L13.418 13.6914Q13.418 14.502 13.833 14.9316Q14.248 15.3613 14.8242 15.3613Z" fill="#ffffff"/>
 </g>
</svg>
