<?xml version="1.0" encoding="UTF-8"?>
<!--Generator: Apple Native CoreSVG 175.5-->
<!DOCTYPE svg
PUBLIC "-//W3C//DTD SVG 1.1//EN"
       "http://www.w3.org/Graphics/SVG/1.1/DTD/svg11.dtd">
<svg version="1.1" xmlns="http://www.w3.org/2000/svg" xmlns:xlink="http://www.w3.org/1999/xlink" width="28.5059" height="16.1426">
 <g>
  <rect height="16.1426" opacity="0" width="28.5059" x="0" y="0"/>
  <path d="M27.6758 16.1426Q28.0176 16.1426 28.2617 15.9082Q28.5059 15.6738 28.5059 15.332L28.5059 0.830078Q28.5059 0.478516 28.2617 0.244141Q28.0176 0.00976562 27.6758 0.00976562Q27.3242 0.00976562 27.0801 0.244141Q26.8359 0.478516 26.8359 0.830078L26.8359 15.332Q26.8359 15.6738 27.0801 15.9082Q27.3242 16.1426 27.6758 16.1426ZM1.40625 15.752Q1.70898 15.752 1.97266 15.6592Q2.23633 15.5664 2.5293 15.3906L12.4805 9.53125Q12.998 9.21875 13.2324 8.85742Q13.4668 8.49609 13.4668 8.07617Q13.4668 7.65625 13.2324 7.29492Q12.998 6.93359 12.4805 6.62109L2.5293 0.761719Q2.22656 0.585938 1.96777 0.493164Q1.70898 0.400391 1.40625 0.400391Q0.830078 0.400391 0.415039 0.830078Q0 1.25977 0 2.08008L0 14.0723Q0 14.8926 0.415039 15.3223Q0.830078 15.752 1.40625 15.752ZM1.83594 13.9453Q1.72852 13.9453 1.64551 13.8721Q1.5625 13.7988 1.5625 13.6523L1.5625 2.5Q1.5625 2.35352 1.64551 2.28027Q1.72852 2.20703 1.83594 2.20703Q1.88477 2.20703 1.94336 2.22656Q2.00195 2.24609 2.07031 2.29492L11.3574 7.80273Q11.5625 7.91992 11.5625 8.07617Q11.5625 8.23242 11.3574 8.34961L2.07031 13.8574Q2.00195 13.9062 1.94336 13.9258Q1.88477 13.9453 1.83594 13.9453ZM14.8242 15.752Q15.127 15.752 15.3906 15.6592Q15.6543 15.5664 15.9473 15.3906L25.8984 9.53125Q26.416 9.21875 26.6504 8.85742Q26.8848 8.49609 26.8848 8.07617Q26.8848 7.65625 26.6504 7.29492Q26.416 6.93359 25.8984 6.62109L15.9473 0.761719Q15.6445 0.585938 15.3857 0.493164Q15.127 0.400391 14.8242 0.400391Q14.248 0.400391 13.833 0.830078Q13.418 1.25977 13.418 2.08008L13.418 14.0723Q13.418 14.8926 13.833 15.3223Q14.248 15.752 14.8242 15.752ZM15.2539 13.9453Q15.1465 13.9453 15.0684 13.8721Q14.9902 13.7988 14.9902 13.6523L14.9902 2.5Q14.9902 2.35352 15.0684 2.28027Q15.1465 2.20703 15.2539 2.20703Q15.3027 2.20703 15.3613 2.22656Q15.4199 2.24609 15.4883 2.29492L24.7754 7.80273Q24.9805 7.91992 24.9805 8.07617Q24.9805 8.23242 24.7754 8.34961L15.4883 13.8574Q15.4199 13.9062 15.3613 13.9258Q15.3027 13.9453 15.2539 13.9453Z" fill="#ffffff"/>
 </g>
</svg>
