<?xml version="1.0" encoding="UTF-8"?>
<!--Generator: Apple Native CoreSVG 175.5-->
<!DOCTYPE svg
PUBLIC "-//W3C//DTD SVG 1.1//EN"
       "http://www.w3.org/Graphics/SVG/1.1/DTD/svg11.dtd">
<svg version="1.1" xmlns="http://www.w3.org/2000/svg" xmlns:xlink="http://www.w3.org/1999/xlink" width="12.6367" height="18.2129">
 <g>
  <rect height="18.2129" opacity="0" width="12.6367" x="0" y="0"/>
  <path d="M3.4082 18.2129Q3.81836 18.2129 4.08203 17.9395Q4.3457 17.666 4.3457 17.2559L4.3457 9.85352L11.0645 9.85352Q11.4453 9.85352 11.6895 9.62891Q11.9336 9.4043 11.9336 9.02344Q11.9336 8.64258 11.6895 8.41797Q11.4453 8.19336 11.0645 8.19336L4.3457 8.19336L4.3457 2.13867L11.7676 2.13867Q12.1484 2.13867 12.3926 1.91406Q12.6367 1.68945 12.6367 1.29883Q12.6367 0.917969 12.3926 0.688477Q12.1484 0.458984 11.7676 0.458984L3.4082 0.458984Q2.97852 0.458984 2.72461 0.722656Q2.4707 0.986328 2.4707 1.42578L2.4707 17.2559Q2.4707 17.666 2.73438 17.9395Q2.99805 18.2129 3.4082 18.2129ZM0 14.2578Q0 14.5215 0.185547 14.707Q0.371094 14.8926 0.634766 14.8926L8.59375 14.8926Q8.85742 14.8926 9.04785 14.707Q9.23828 14.5215 9.23828 14.2578Q9.23828 13.9941 9.04785 13.8037Q8.85742 13.6133 8.59375 13.6133L0.634766 13.6133Q0.371094 13.6133 0.185547 13.8037Q0 13.9941 0 14.2578Z" fill="#ffffff"/>
 </g>
</svg>
