<?xml version="1.0" encoding="UTF-8"?>
<!--Generator: Apple Native CoreSVG 175.5-->
<!DOCTYPE svg
PUBLIC "-//W3C//DTD SVG 1.1//EN"
       "http://www.w3.org/Graphics/SVG/1.1/DTD/svg11.dtd">
<svg version="1.1" xmlns="http://www.w3.org/2000/svg" xmlns:xlink="http://www.w3.org/1999/xlink" width="19.9219" height="19.9316">
 <g>
  <rect height="19.9316" opacity="0" width="19.9219" x="0" y="0"/>
  <path d="M9.96094 19.9219Q12.002 19.9219 13.8037 19.1406Q15.6055 18.3594 16.9824 16.9824Q18.3594 15.6055 19.1406 13.8037Q19.9219 12.002 19.9219 9.96094Q19.9219 7.91992 19.1406 6.11816Q18.3594 4.31641 16.9824 2.93945Q15.6055 1.5625 13.7988 0.78125Q11.9922 0 9.95117 0Q7.91016 0 6.1084 0.78125Q4.30664 1.5625 2.93457 2.93945Q1.5625 4.31641 0.78125 6.11816Q0 7.91992 0 9.96094Q0 12.002 0.78125 13.8037Q1.5625 15.6055 2.93945 16.9824Q4.31641 18.3594 6.11816 19.1406Q7.91992 19.9219 9.96094 19.9219ZM9.96094 18.2617Q8.23242 18.2617 6.72852 17.6172Q5.22461 16.9727 4.08691 15.835Q2.94922 14.6973 2.30957 13.1934Q1.66992 11.6895 1.66992 9.96094Q1.66992 8.23242 2.30957 6.72852Q2.94922 5.22461 4.08203 4.08203Q5.21484 2.93945 6.71875 2.2998Q8.22266 1.66016 9.95117 1.66016Q11.6797 1.66016 13.1885 2.2998Q14.6973 2.93945 15.835 4.08203Q16.9727 5.22461 17.6172 6.72852Q18.2617 8.23242 18.2617 9.96094Q18.2617 11.6895 17.6221 13.1934Q16.9824 14.6973 15.8398 15.835Q14.6973 16.9727 13.1934 17.6172Q11.6895 18.2617 9.96094 18.2617Z" fill="#007aff"/>
  <path d="M12.6758 14.5801L12.6758 5.44922Q12.6758 4.20898 11.4355 4.20898L7.10938 4.20898Q5.86914 4.20898 5.86914 5.44922L5.86914 14.5801ZM7.66602 9.61914Q7.12891 9.61914 7.12891 9.12109L7.12891 5.97656Q7.12891 5.49805 7.66602 5.49805L10.8789 5.49805Q11.416 5.49805 11.416 5.97656L11.416 9.12109Q11.416 9.61914 10.8789 9.61914ZM5.25391 14.8926Q5.25391 15.0684 5.38086 15.1953Q5.50781 15.3223 5.67383 15.3223L12.8516 15.3223Q13.0371 15.3223 13.1641 15.1953Q13.291 15.0684 13.291 14.8926Q13.291 14.7266 13.1641 14.6094Q13.0371 14.4922 12.8516 14.4922L5.67383 14.4922Q5.50781 14.4922 5.38086 14.6094Q5.25391 14.7266 5.25391 14.8926ZM11.4355 13.2031L14.0918 13.2031Q15.3418 13.2031 15.3418 11.9629L15.3418 6.85547Q15.3418 6.60156 15.2734 6.3916Q15.2051 6.18164 15.0879 5.99609L14.3945 4.87305Q14.2676 4.6582 14.0625 4.6875Q13.8574 4.7168 13.7402 4.8877Q13.623 5.05859 13.7598 5.27344L14.4531 6.39648Q14.5898 6.61133 14.5898 6.85547L14.5898 11.9629Q14.5898 12.4512 14.082 12.4512L11.4355 12.4512ZM13.7891 8.38867L14.6582 9.39453L14.6582 6.13281L13.7402 7.42188Q13.3789 7.91016 13.7891 8.38867Z" fill="#ffffff"/>
 </g>
</svg>
