<?xml version="1.0" encoding="UTF-8"?>
<!--Generator: Apple Native CoreSVG 175-->
<!DOCTYPE svg
PUBLIC "-//W3C//DTD SVG 1.1//EN"
       "http://www.w3.org/Graphics/SVG/1.1/DTD/svg11.dtd">
<svg version="1.1" xmlns="http://www.w3.org/2000/svg" xmlns:xlink="http://www.w3.org/1999/xlink" width="27.4059" height="16.9177">
 <g>
  <rect height="16.9177" opacity="0" width="27.4059" x="0" y="0"/>
  <path d="M5.98053 6.48682Q5.98053 6.64963 6.08284 6.75339Q6.18515 6.85715 6.35513 6.85715L8.7738 6.85715L8.7738 9.36066Q8.7738 9.52774 8.87344 9.63501Q8.97308 9.74228 9.13055 9.74228Q9.28787 9.74228 9.39102 9.63501Q9.49417 9.52774 9.49417 9.36066L9.49417 6.85715L11.8828 6.85715Q12.061 6.85715 12.1674 6.75339Q12.2739 6.64963 12.2739 6.48682Q12.2739 6.32935 12.1674 6.22704Q12.061 6.12473 11.8828 6.12473L9.49417 6.12473L9.49417 3.62122Q9.49417 3.45398 9.39102 3.34808Q9.28787 3.24219 9.13055 3.24219Q8.97308 3.24219 8.87344 3.34808Q8.7738 3.45398 8.7738 3.62122L8.7738 6.12473L6.35513 6.12473Q6.18515 6.12473 6.08284 6.22704Q5.98053 6.32935 5.98053 6.48682ZM19.709 6.17706Q20.2133 6.17706 20.5659 5.82939Q20.9184 5.48172 20.9184 4.97742Q20.9184 4.45908 20.5659 4.11217Q20.2133 3.76526 19.709 3.76526Q19.2004 3.76526 18.8465 4.11217Q18.4926 4.45908 18.4926 4.97742Q18.4926 5.48172 18.8465 5.82939Q19.2004 6.17706 19.709 6.17706ZM16.5988 9.1478Q17.1101 9.1478 17.4627 8.80226Q17.8152 8.45673 17.8152 7.9454Q17.8152 7.42706 17.4627 7.08015Q17.1101 6.73325 16.5988 6.73325Q16.0973 6.73325 15.7433 7.08015Q15.3894 7.42706 15.3894 7.9454Q15.3894 8.45673 15.7433 8.80226Q16.0973 9.1478 16.5988 9.1478Z" fill="#ffffff"/>
  <path d="M0 13.5419Q0 14.558 0.414658 15.3197Q0.829315 16.0814 1.57425 16.4996Q2.31918 16.9177 3.31284 16.9177Q4.05701 16.9177 4.78188 16.5782Q5.50674 16.2387 6.07971 15.5403L7.94571 13.2822Q8.16208 13.0196 8.38043 12.9051Q8.59879 12.7907 8.8559 12.7907L18.55 12.7907Q18.8071 12.7907 19.0254 12.9051Q19.2438 13.0196 19.4672 13.2822L21.3332 15.5403Q21.9063 16.2387 22.6276 16.5782Q23.3488 16.9177 24.093 16.9177Q25.0867 16.9177 25.8351 16.4996Q26.5836 16.0814 26.9947 15.3197Q27.4059 14.558 27.4059 13.5419Q27.4059 12.8658 27.2412 12.0681Q27.0766 11.2704 26.7863 10.302Q26.4934 9.29611 26.0637 8.11447Q25.634 6.93283 25.1338 5.71976Q24.6336 4.50668 24.1216 3.40988Q23.7297 2.59415 23.3973 2.08206Q23.0649 1.56998 22.5533 1.25511Q22.0418 0.940247 21.1121 0.727081Q19.6649 0.393372 17.7739 0.215683Q15.8829 0.0379944 13.7079 0.0379944Q11.5257 0.0379944 9.63692 0.215683Q7.74811 0.393372 6.29379 0.727081Q5.37109 0.940247 4.85954 1.25511Q4.34799 1.56998 4.01207 2.08206Q3.67615 2.59415 3.29147 3.40988Q2.77222 4.50668 2.27203 5.71976Q1.77185 6.93283 1.34567 8.11447Q0.919495 9.29611 0.619507 10.302Q0.329285 11.2704 0.164642 12.0681Q0 12.8658 0 13.5419ZM0.706635 13.6005Q0.706635 13.1274 0.821075 12.4677Q0.935516 11.8079 1.27548 10.6583Q1.55121 9.71802 1.97853 8.53226Q2.40585 7.3465 2.91641 6.09108Q3.42697 4.83566 3.94333 3.68835Q4.19189 3.14972 4.45023 2.70988Q4.70856 2.27005 5.13748 1.94656Q5.56641 1.62308 6.32782 1.45554Q7.7121 1.129 9.6125 0.947723Q11.5129 0.766449 13.7079 0.766449Q15.8929 0.766449 17.7934 0.947723Q19.6938 1.129 21.0782 1.45554Q21.8465 1.6301 22.274 1.95007Q22.7016 2.27005 22.9565 2.70988Q23.2114 3.14972 23.4625 3.68835Q23.9914 4.83566 24.4992 6.09108Q25.007 7.3465 25.4295 8.53226Q25.8519 9.71802 26.1305 10.6583Q26.4703 11.8079 26.5848 12.4677Q26.6992 13.1274 26.6992 13.6005Q26.6992 14.7778 25.9779 15.4917Q25.2567 16.2056 24.0985 16.2056Q22.804 16.2056 21.786 14.9879L19.9429 12.7641Q19.6266 12.3978 19.3047 12.2335Q18.9828 12.0692 18.5339 12.0692L8.87192 12.0692Q8.423 12.0692 8.10112 12.2335Q7.77924 12.3978 7.46994 12.7641L5.62698 14.9879Q5.12695 15.5829 4.53064 15.8942Q3.93433 16.2056 3.3075 16.2056Q2.1492 16.2056 1.42792 15.4917Q0.706635 14.7778 0.706635 13.6005Z" fill="#007aff"/>
 </g>
</svg>
