<?xml version="1.0" encoding="UTF-8"?>
<!--Generator: Apple Native CoreSVG 175.5-->
<!DOCTYPE svg
PUBLIC "-//W3C//DTD SVG 1.1//EN"
       "http://www.w3.org/Graphics/SVG/1.1/DTD/svg11.dtd">
<svg version="1.1" xmlns="http://www.w3.org/2000/svg" xmlns:xlink="http://www.w3.org/1999/xlink" width="19.9219" height="19.9316">
 <g>
  <rect height="19.9316" opacity="0" width="19.9219" x="0" y="0"/>
  <path d="M9.96094 19.9219Q12.002 19.9219 13.8037 19.1406Q15.6055 18.3594 16.9824 16.9824Q18.3594 15.6055 19.1406 13.8037Q19.9219 12.002 19.9219 9.96094Q19.9219 7.91992 19.1406 6.11816Q18.3594 4.31641 16.9824 2.93945Q15.6055 1.5625 13.7988 0.78125Q11.9922 0 9.95117 0Q7.91016 0 6.1084 0.78125Q4.30664 1.5625 2.93457 2.93945Q1.5625 4.31641 0.78125 6.11816Q0 7.91992 0 9.96094Q0 12.002 0.78125 13.8037Q1.5625 15.6055 2.93945 16.9824Q4.31641 18.3594 6.11816 19.1406Q7.91992 19.9219 9.96094 19.9219ZM9.96094 18.2617Q8.23242 18.2617 6.72852 17.6172Q5.22461 16.9727 4.08691 15.835Q2.94922 14.6973 2.30957 13.1934Q1.66992 11.6895 1.66992 9.96094Q1.66992 8.23242 2.30957 6.72852Q2.94922 5.22461 4.08203 4.08203Q5.21484 2.93945 6.71875 2.2998Q8.22266 1.66016 9.95117 1.66016Q11.6797 1.66016 13.1885 2.2998Q14.6973 2.93945 15.835 4.08203Q16.9727 5.22461 17.6172 6.72852Q18.2617 8.23242 18.2617 9.96094Q18.2617 11.6895 17.6221 13.1934Q16.9824 14.6973 15.8398 15.835Q14.6973 16.9727 13.1934 17.6172Q11.6895 18.2617 9.96094 18.2617Z" fill="#007aff"/>
  <path d="M11.1523 13.7891L13.623 10.2637Q13.7891 10.0293 13.7402 9.76562Q13.6914 9.50195 13.4766 9.35547Q13.2617 9.20898 12.998 9.25293Q12.7344 9.29688 12.5684 9.53125L10.1074 13.0469ZM9.95117 15.8984Q10.5957 15.8984 11.0498 15.4443Q11.5039 14.9902 11.5039 14.3457Q11.5039 13.7012 11.0498 13.2471Q10.5957 12.793 9.95117 12.793Q9.30664 12.793 8.85254 13.2471Q8.39844 13.7012 8.39844 14.3457Q8.39844 14.9902 8.85254 15.4443Q9.30664 15.8984 9.95117 15.8984ZM4.99023 8.4668Q5.39062 8.4668 5.66895 8.18359Q5.94727 7.90039 5.94727 7.50977Q5.94727 7.10938 5.66895 6.82617Q5.39062 6.54297 4.99023 6.54297Q4.59961 6.54297 4.31641 6.82617Q4.0332 7.10938 4.0332 7.50977Q4.0332 7.90039 4.31641 8.18359Q4.59961 8.4668 4.99023 8.4668ZM7.1582 6.40625Q7.55859 6.40625 7.83691 6.12305Q8.11523 5.83984 8.11523 5.43945Q8.11523 5.04883 7.83691 4.76562Q7.55859 4.48242 7.1582 4.48242Q6.76758 4.48242 6.48438 4.76562Q6.20117 5.04883 6.20117 5.43945Q6.20117 5.83984 6.48438 6.12305Q6.76758 6.40625 7.1582 6.40625ZM9.95117 5.53711Q10.3418 5.53711 10.625 5.25391Q10.9082 4.9707 10.9082 4.58008Q10.9082 4.17969 10.625 3.90137Q10.3418 3.62305 9.95117 3.62305Q9.55078 3.62305 9.27246 3.90137Q8.99414 4.17969 8.99414 4.58008Q8.99414 4.9707 9.27246 5.25391Q9.55078 5.53711 9.95117 5.53711ZM12.7441 6.40625Q13.1445 6.40625 13.4229 6.11816Q13.7012 5.83008 13.7012 5.43945Q13.7012 5.03906 13.4229 4.75586Q13.1445 4.47266 12.7441 4.47266Q12.3438 4.47266 12.0654 4.75586Q11.7871 5.03906 11.7871 5.43945Q11.7871 5.83008 12.0654 6.11816Q12.3438 6.40625 12.7441 6.40625ZM14.9121 8.4668Q15.3125 8.4668 15.5908 8.18359Q15.8691 7.90039 15.8691 7.50977Q15.8691 7.10938 15.5908 6.82617Q15.3125 6.54297 14.9121 6.54297Q14.5215 6.54297 14.2383 6.82617Q13.9551 7.10938 13.9551 7.50977Q13.9551 7.90039 14.2383 8.18359Q14.5215 8.4668 14.9121 8.4668Z" fill="#ffffff"/>
 </g>
</svg>
