<?xml version="1.0" encoding="UTF-8"?>
<!--Generator: Apple Native CoreSVG 175-->
<!DOCTYPE svg
PUBLIC "-//W3C//DTD SVG 1.1//EN"
       "http://www.w3.org/Graphics/SVG/1.1/DTD/svg11.dtd">
<svg version="1.1" xmlns="http://www.w3.org/2000/svg" xmlns:xlink="http://www.w3.org/1999/xlink" width="19.1602" height="19.1504">
 <g>
  <rect height="19.1504" opacity="0" width="19.1602" x="0" y="0"/>
  <path d="M9.57031 19.1406Q11.5527 19.1406 13.2861 18.3984Q15.0195 17.6562 16.3379 16.333Q17.6562 15.0098 18.4082 13.2764Q19.1602 11.543 19.1602 9.57031Q19.1602 7.59766 18.4082 5.86426Q17.6562 4.13086 16.3379 2.80762Q15.0195 1.48438 13.2861 0.742188Q11.5527 0 9.57031 0Q7.59766 0 5.86426 0.742188Q4.13086 1.48438 2.81738 2.80762Q1.50391 4.13086 0.751953 5.86426Q0 7.59766 0 9.57031Q0 11.543 0.74707 13.2764Q1.49414 15.0098 2.8125 16.333Q4.13086 17.6562 5.86914 18.3984Q7.60742 19.1406 9.57031 19.1406ZM9.57031 18.3984Q7.74414 18.3984 6.14746 17.71Q4.55078 17.0215 3.33496 15.8105Q2.11914 14.5996 1.43555 12.998Q0.751953 11.3965 0.751953 9.57031Q0.751953 7.74414 1.43555 6.14258Q2.11914 4.54102 3.33496 3.3252Q4.55078 2.10938 6.14746 1.4209Q7.74414 0.732422 9.57031 0.732422Q11.4062 0.732422 13.0029 1.4209Q14.5996 2.10938 15.8154 3.3252Q17.0312 4.54102 17.7197 6.14258Q18.4082 7.74414 18.4082 9.57031Q18.4082 11.3965 17.7246 12.998Q17.041 14.5996 15.8252 15.8105Q14.6094 17.0215 13.0078 17.71Q11.4062 18.3984 9.57031 18.3984Z" fill="#007aff"/>
  <path d="M9.01367 15.2832L10.1367 15.2832Q10.3711 15.2832 10.5225 15.166Q10.6738 15.0488 10.7324 14.7949L11.0059 13.6328Q11.123 13.584 11.2451 13.54Q11.3672 13.4961 11.4746 13.457L12.5 14.0918Q12.6953 14.2285 12.8955 14.209Q13.0957 14.1895 13.2617 14.0137L14.043 13.2422Q14.209 13.0664 14.2334 12.8662Q14.2578 12.666 14.1211 12.4609L13.4863 11.4551Q13.5254 11.3379 13.5693 11.2158Q13.6133 11.0938 13.6621 10.9766L14.8242 10.7129Q15.3125 10.5859 15.3125 10.1074L15.3125 8.99414Q15.3125 8.51562 14.8242 8.39844L13.6621 8.125Q13.6133 8.00781 13.5693 7.88574Q13.5254 7.76367 13.4863 7.65625L14.1309 6.64062Q14.2578 6.43555 14.2334 6.23535Q14.209 6.03516 14.043 5.86914L13.2617 5.08789Q12.9102 4.74609 12.5 5.00977L11.4746 5.6543Q11.3672 5.60547 11.2451 5.56152Q11.123 5.51758 11.0059 5.46875L10.7324 4.30664Q10.6738 4.0625 10.5225 3.93555Q10.3711 3.80859 10.1367 3.80859L9.01367 3.80859Q8.7793 3.80859 8.63281 3.93555Q8.48633 4.0625 8.41797 4.30664L8.1543 5.46875Q8.03711 5.51758 7.91016 5.56152Q7.7832 5.60547 7.66602 5.6543L6.66016 5.00977Q6.25 4.74609 5.88867 5.08789L5.10742 5.86914Q4.93164 6.03516 4.91699 6.23535Q4.90234 6.43555 5.0293 6.64062L5.67383 7.65625Q5.625 7.76367 5.57617 7.88574Q5.52734 8.00781 5.47852 8.125L4.33594 8.39844Q3.83789 8.51562 3.83789 8.99414L3.83789 10.1074Q3.83789 10.5859 4.33594 10.7129L5.47852 10.9766Q5.52734 11.0938 5.57129 11.2158Q5.61523 11.3379 5.67383 11.4551L5.03906 12.4609Q4.90234 12.666 4.92188 12.8662Q4.94141 13.0664 5.10742 13.2422L5.88867 14.0137Q6.05469 14.1895 6.25488 14.209Q6.45508 14.2285 6.66992 14.0918L7.66602 13.457Q7.7832 13.4961 7.91016 13.54Q8.03711 13.584 8.1543 13.6328L8.41797 14.7949Q8.48633 15.0488 8.63281 15.166Q8.7793 15.2832 9.01367 15.2832ZM9.58984 11.582Q8.75 11.582 8.14941 10.9814Q7.54883 10.3809 7.54883 9.54102Q7.54883 8.7207 8.14941 8.12012Q8.75 7.51953 9.58984 7.51953Q10.4199 7.51953 11.0205 8.12012Q11.6211 8.7207 11.6211 9.54102Q11.6211 10.3809 11.0205 10.9814Q10.4199 11.582 9.58984 11.582Z" fill="#ffffff"/>
 </g>
</svg>
