<?xml version="1.0" encoding="UTF-8"?>
<!--Generator: Apple Native CoreSVG 175-->
<!DOCTYPE svg
PUBLIC "-//W3C//DTD SVG 1.1//EN"
       "http://www.w3.org/Graphics/SVG/1.1/DTD/svg11.dtd">
<svg version="1.1" xmlns="http://www.w3.org/2000/svg" xmlns:xlink="http://www.w3.org/1999/xlink" width="21.5773" height="21.2906">
 <g>
  <rect height="21.2906" opacity="0" width="21.5773" x="0" y="0"/>
  <path d="M10.7852 20.1588Q11.0226 20.1588 11.256 20.1477Q11.4894 20.1366 11.7157 20.1028L12.209 21.0436Q12.2731 21.1815 12.3801 21.235Q12.4872 21.2885 12.6781 21.2662Q12.8468 21.2439 12.9232 21.1613Q12.9996 21.0786 13.0148 20.8975L13.1738 19.8494Q13.6125 19.7377 14.0547 19.5812Q14.4969 19.4247 14.9091 19.2194L15.6824 19.9049Q15.791 20.0275 15.9106 20.04Q16.0301 20.0525 16.1989 19.976Q16.4465 19.8467 16.3895 19.5041L16.1804 18.4869Q16.5605 18.2326 16.9182 17.9357Q17.2758 17.6389 17.5984 17.2881L18.5559 17.6907Q18.8171 17.84 19.0652 17.5572Q19.1965 17.4345 19.2006 17.3199Q19.2047 17.2052 19.0973 17.0534L18.5399 16.1642Q18.8136 15.7912 19.0471 15.3854Q19.2805 14.9796 19.4606 14.5647L20.5211 14.6162Q20.6926 14.626 20.7877 14.5635Q20.8829 14.501 20.9344 14.3366Q20.993 14.1748 20.9569 14.0636Q20.9207 13.9525 20.7883 13.8493L19.9704 13.1915Q20.0891 12.7556 20.1659 12.2953Q20.2426 11.835 20.2789 11.3573L21.2753 11.0478Q21.5773 10.9322 21.5773 10.6302Q21.5773 10.331 21.2753 10.2155L20.2789 9.89624Q20.2426 9.42826 20.1624 8.96927Q20.0821 8.51029 19.9704 8.0716L20.7883 7.4112Q20.9137 7.31781 20.9463 7.21291Q20.9789 7.108 20.9344 6.9365Q20.8829 6.77201 20.7877 6.70601Q20.6926 6.64002 20.5211 6.64978L19.4606 6.69159Q19.2734 6.26969 19.0435 5.86876Q18.8136 5.46784 18.5399 5.09201L19.0973 4.20288Q19.1977 4.06769 19.1936 3.9531Q19.1895 3.8385 19.0652 3.71582Q18.8171 3.42591 18.5559 3.57514L17.5984 3.96546Q17.2758 3.63419 16.9182 3.33596Q16.5605 3.03772 16.1804 2.78336L16.3895 1.76895Q16.4215 1.57791 16.3791 1.4695Q16.3367 1.36109 16.1989 1.29425Q16.0301 1.20362 15.9141 1.21964Q15.798 1.23566 15.6824 1.35407L14.9091 2.03415Q14.4969 1.84281 14.0547 1.68556Q13.6125 1.52832 13.1738 1.4209L13.0148 0.372775Q12.9996 0.194247 12.9197 0.111697Q12.8398 0.029147 12.6613 0.00686919Q12.4872-0.0154086 12.3801 0.0345639Q12.2731 0.0845364 12.209 0.21271L11.7157 1.1673Q11.4894 1.14075 11.256 1.12397Q11.0226 1.10718 10.7852 1.10718Q10.5617 1.10718 10.3339 1.12397Q10.1062 1.14075 9.86877 1.1673L9.37973 0.21271Q9.30862 0.0845364 9.20158 0.0345639Q9.09454-0.0154086 8.90625 0.00686919Q8.73474 0.029147 8.66188 0.111697Q8.58902 0.194247 8.56949 0.372775L8.41492 1.40412Q7.96921 1.52558 7.52838 1.68068Q7.08755 1.83579 6.67969 2.03415L5.8992 1.36109Q5.77652 1.24268 5.66406 1.22673Q5.55161 1.21079 5.38986 1.29425Q5.2449 1.36109 5.20607 1.4695Q5.16724 1.57791 5.19928 1.76895L5.40115 2.78336Q5.02106 3.03772 4.66698 3.33596Q4.3129 3.63419 3.99017 3.96546L3.03284 3.57514Q2.76443 3.42591 2.51907 3.71582Q2.39929 3.8385 2.39166 3.94959Q2.38403 4.06067 2.47742 4.1861L3.04886 5.09201Q2.77771 5.46784 2.54295 5.86876Q2.3082 6.26969 2.12112 6.69159L1.06323 6.64978Q0.88913 6.64002 0.795364 6.70601Q0.701599 6.77201 0.647278 6.9365Q0.574646 7.108 0.612946 7.21291Q0.651245 7.31781 0.800323 7.4112L1.61835 8.0716Q1.49963 8.51029 1.42075 8.96576Q1.34186 9.42124 1.30829 9.88922L0.306244 10.2155Q0 10.3142 0 10.6302Q0 10.9392 0.306244 11.0478L1.30829 11.367Q1.34186 11.835 1.41724 12.2953Q1.49261 12.7556 1.61835 13.1915L0.800323 13.8493Q0.66803 13.9384 0.63324 14.0482Q0.59845 14.158 0.647278 14.3366Q0.701599 14.501 0.795364 14.5635Q0.88913 14.626 1.06323 14.6162L2.12112 14.5647Q2.30118 14.9796 2.53944 15.3854Q2.77771 15.7912 3.03482 16.1642L2.49146 17.0534Q2.37701 17.2052 2.38457 17.3199Q2.39212 17.4345 2.51907 17.5572Q2.76443 17.84 3.03284 17.6907L3.99017 17.2881Q4.3129 17.6389 4.66698 17.9357Q5.02106 18.2326 5.40115 18.4869L5.19928 19.5041Q5.16724 19.6924 5.20607 19.7973Q5.2449 19.9022 5.38986 19.976Q5.56137 20.0525 5.67245 20.04Q5.78354 20.0275 5.8992 19.9049L6.66565 19.2194Q7.08755 19.4247 7.52838 19.5847Q7.96921 19.7447 8.41492 19.8564L8.56949 20.8975Q8.58902 21.0786 8.66539 21.1613Q8.74176 21.2439 8.92029 21.2662Q9.10156 21.2885 9.20509 21.235Q9.30862 21.1815 9.37973 21.0436L9.86877 20.1028Q10.0851 20.1366 10.3234 20.1477Q10.5617 20.1588 10.7852 20.1588ZM10.7852 19.4618Q8.95782 19.4618 7.37328 18.782Q5.78873 18.1021 4.6006 16.8945Q3.41248 15.687 2.74727 14.0828Q2.08206 12.4786 2.08206 10.6329Q2.08206 8.78022 2.74727 7.17613Q3.41248 5.57205 4.6006 4.36798Q5.78873 3.16391 7.37328 2.48398Q8.95782 1.80405 10.7852 1.80405Q12.6195 1.80405 14.2041 2.48398Q15.7887 3.16391 16.9768 4.36798Q18.1648 5.57205 18.8335 7.17613Q19.5023 8.78022 19.5023 10.6329Q19.5023 12.4786 18.8335 14.0828Q18.1648 15.687 16.9768 16.8945Q15.7887 18.1021 14.2041 18.782Q12.6195 19.4618 10.7852 19.4618ZM10.8008 12.9073Q11.6336 12.9073 12.2408 12.3727Q12.8481 11.8381 12.9903 11.0103L20.0926 11.0103L20.0829 10.2892L12.9762 10.2892Q12.8172 9.49509 12.21 8.98575Q11.6028 8.47641 10.8008 8.47641Q10.6078 8.47641 10.4234 8.50998Q10.2391 8.54355 10.0398 8.62046L6.46133 2.47559L5.79681 2.82486L9.39606 8.99308Q9.01672 9.31183 8.79822 9.74915Q8.57971 10.1865 8.57971 10.6862Q8.57971 11.2154 8.81798 11.6627Q9.05624 12.11 9.46365 12.4342L5.79498 18.5088L6.44257 18.9014L10.1102 12.8026Q10.2855 12.8542 10.4572 12.8807Q10.629 12.9073 10.8008 12.9073ZM9.31961 10.6834Q9.31961 10.0798 9.75685 9.64661Q10.1941 9.21341 10.8063 9.21341Q11.414 9.21341 11.8513 9.64661Q12.2887 10.0798 12.2887 10.6834Q12.2887 11.2982 11.8513 11.7377Q11.414 12.1771 10.8063 12.1771Q10.1941 12.1771 9.75685 11.7377Q9.31961 11.2982 9.31961 10.6834Z" fill="#ffffff"/>
 </g>
</svg>
