<?xml version="1.0" encoding="UTF-8"?>
<!--Generator: Apple Native CoreSVG 175.5-->
<!DOCTYPE svg
PUBLIC "-//W3C//DTD SVG 1.1//EN"
       "http://www.w3.org/Graphics/SVG/1.1/DTD/svg11.dtd">
<svg version="1.1" xmlns="http://www.w3.org/2000/svg" xmlns:xlink="http://www.w3.org/1999/xlink" width="18.7793" height="21.5723">
 <g>
  <rect height="21.5723" opacity="0" width="18.7793" x="0" y="0"/>
  <path d="M4.25781 20.4688L14.5215 20.4688Q15.8984 20.4688 16.6357 19.7559Q17.373 19.043 17.373 17.6562L17.373 11.6602L17.4414 11.6602Q18.0859 11.5234 18.4326 11.0254Q18.7793 10.5273 18.7793 9.78516L18.7793 7.2168Q18.7793 6.32812 18.3008 5.80078Q17.8223 5.27344 16.9238 5.27344L14.9512 5.27344Q15.3418 4.89258 15.5566 4.37012Q15.7715 3.84766 15.7715 3.24219Q15.7715 2.29492 15.3174 1.5625Q14.8633 0.830078 14.0967 0.415039Q13.3301 0 12.3828 0Q11.3574 0 10.5566 0.537109Q9.75586 1.07422 9.38477 2.06055Q9.01367 1.07422 8.21777 0.537109Q7.42188 0 6.38672 0Q5.43945 0 4.67285 0.415039Q3.90625 0.830078 3.45215 1.5625Q2.99805 2.29492 2.99805 3.24219Q2.99805 3.84766 3.21777 4.37012Q3.4375 4.89258 3.82812 5.27344L1.85547 5.27344Q0.996094 5.27344 0.498047 5.80078Q0 6.32812 0 7.2168L0 9.78516Q0 10.5273 0.341797 11.0254Q0.683594 11.5234 1.32812 11.6602L1.39648 11.6602L1.39648 17.6562Q1.39648 19.043 2.13379 19.7559Q2.87109 20.4688 4.25781 20.4688ZM8.51562 19.0039L4.23828 19.0039Q3.63281 19.0039 3.30078 18.6719Q2.96875 18.3398 2.96875 17.7344L2.96875 11.7285L8.51562 11.7285ZM10.2539 19.0039L10.2539 11.7285L15.8008 11.7285L15.8008 17.7344Q15.8008 18.3398 15.4736 18.6719Q15.1465 19.0039 14.5312 19.0039ZM8.51562 10.2539L2.25586 10.2539Q1.88477 10.2539 1.72852 10.0928Q1.57227 9.93164 1.57227 9.56055L1.57227 7.43164Q1.57227 7.06055 1.72852 6.9043Q1.88477 6.74805 2.25586 6.74805L8.51562 6.74805ZM10.2539 10.2539L10.2539 6.74805L16.5332 6.74805Q16.8945 6.74805 17.0508 6.9043Q17.207 7.06055 17.207 7.43164L17.207 9.56055Q17.207 9.93164 17.0508 10.0928Q16.8945 10.2539 16.5332 10.2539ZM8.58398 5.27344L7.06055 5.27344Q5.9082 5.27344 5.26855 4.70703Q4.62891 4.14062 4.62891 3.33008Q4.62891 2.51953 5.15625 2.0752Q5.68359 1.63086 6.48438 1.63086Q7.36328 1.63086 7.97363 2.25098Q8.58398 2.87109 8.58398 3.95508ZM10.1855 5.27344L10.1855 3.95508Q10.1855 2.87109 10.8008 2.25098Q11.416 1.63086 12.2852 1.63086Q13.0957 1.63086 13.6182 2.0752Q14.1406 2.51953 14.1406 3.33008Q14.1406 4.14062 13.501 4.70703Q12.8613 5.27344 11.709 5.27344Z" fill="#ffffff"/>
 </g>
</svg>
