<?xml version="1.0" encoding="UTF-8"?>
<!--Generator: Apple Native CoreSVG 175.5-->
<!DOCTYPE svg
PUBLIC "-//W3C//DTD SVG 1.1//EN"
       "http://www.w3.org/Graphics/SVG/1.1/DTD/svg11.dtd">
<svg version="1.1" xmlns="http://www.w3.org/2000/svg" xmlns:xlink="http://www.w3.org/1999/xlink" width="19.9219" height="19.9316">
 <g>
  <rect height="19.9316" opacity="0" width="19.9219" x="0" y="0"/>
  <path d="M2.16797 14.9609Q2.91016 14.8438 3.42773 14.5947Q3.94531 14.3457 4.21875 13.8867Q4.49219 13.4277 4.49219 12.6758Q4.49219 12.2852 4.63379 12.0361Q4.77539 11.7871 4.96094 11.582Q5.14648 11.377 5.29297 11.1182Q5.43945 10.8594 5.43945 10.4492Q5.43945 10.0781 5.10254 9.74121Q4.76562 9.4043 4.15039 8.89648L3.50586 8.37891Q3.37891 8.27148 3.37891 8.13477Q3.37891 7.99805 3.48145 7.89062Q3.58398 7.7832 3.7207 7.7832Q3.82812 7.7832 3.95996 7.89551Q4.0918 8.00781 4.41406 8.28125Q4.93164 8.7207 5.25391 8.95508Q5.57617 9.18945 5.91797 9.18945Q6.26953 9.18945 6.43066 9.05273Q6.5918 8.91602 6.77734 8.91602Q6.99219 8.91602 7.09961 9.21875L7.49023 10.293Q7.69531 10.8887 7.97852 11.1426Q8.26172 11.3965 8.49609 11.5967Q8.73047 11.7969 8.79883 12.2266Q9.00391 13.6328 9.25781 14.4971Q9.51172 15.3613 9.89258 15.7617Q10.2734 16.1621 10.8496 16.1621Q11.709 16.1621 12.0361 15.4248Q12.3633 14.6875 12.3633 13.3984Q12.3633 12.9004 12.6172 12.4121Q12.8711 11.9238 13.2373 11.5283Q13.6035 11.1328 13.9648 10.8984Q14.3262 10.6641 14.541 10.6641Q14.7559 10.6641 14.9512 10.957Q15.1465 11.25 15.4053 11.6797Q15.6641 12.1094 16.0596 12.5488Q16.4551 12.9883 17.0654 13.2861Q17.6758 13.584 18.5938 13.6035L18.5938 12.6172Q17.7344 12.5977 17.2412 12.2998Q16.748 12.002 16.46 11.5674Q16.1719 11.1328 15.9473 10.6982Q15.7227 10.2637 15.4102 9.9707Q15.0977 9.67773 14.541 9.67773Q14.1211 9.67773 13.5791 10Q13.0371 10.3223 12.5342 10.8643Q12.0312 11.4062 11.7041 12.0654Q11.377 12.7246 11.377 13.3984Q11.377 14.3945 11.2695 14.7852Q11.1621 15.1758 10.8496 15.1758Q10.4688 15.1758 10.2344 14.4141Q10 13.6523 9.76562 12.0703Q9.67773 11.5332 9.5166 11.2744Q9.35547 11.0156 9.16016 10.874Q8.96484 10.7324 8.77441 10.5664Q8.58398 10.4004 8.44727 10.0293L7.90039 8.63281Q7.73438 8.19336 7.46094 8.01758Q7.1875 7.8418 6.875 7.8418Q6.5332 7.8418 6.2793 8.00781Q6.02539 8.17383 5.89844 8.17383Q5.79102 8.17383 5.50293 7.92969Q5.21484 7.68555 5.01953 7.50977Q4.6875 7.2168 4.37012 7.00684Q4.05273 6.79688 3.7207 6.79688Q3.18359 6.79688 2.78809 7.22168Q2.39258 7.64648 2.39258 8.11523Q2.39258 8.47656 2.7002 8.81836Q3.00781 9.16016 3.41797 9.47266Q3.82812 9.78516 4.14062 10.0586Q4.45312 10.332 4.45312 10.5566Q4.45312 10.8301 4.30664 10.9961Q4.16016 11.1621 3.97461 11.3379Q3.78906 11.5137 3.64746 11.8115Q3.50586 12.1094 3.50586 12.6465Q3.50586 13.2324 3.31055 13.4863Q3.11523 13.7402 2.76855 13.8281Q2.42188 13.916 1.97266 13.9941ZM2.50977 4.32617Q2.59766 5.00977 3.00781 5.48828Q3.41797 5.9668 4.00391 5.9668Q4.45312 5.9668 4.80469 5.69336Q5.15625 5.41992 5.27344 4.96094Q5.32227 4.77539 5.39062 4.67285Q5.45898 4.57031 5.60547 4.48242Q5.92773 4.30664 6.07422 4.08691Q6.2207 3.86719 6.2207 3.52539Q6.2207 3.16406 5.97656 2.7832Q5.73242 2.40234 5.29297 1.95312L4.58984 2.62695Q4.92188 2.98828 5.07812 3.14453Q5.23438 3.30078 5.23438 3.48633Q5.23438 3.65234 5.07324 3.74023Q4.91211 3.82812 4.73145 3.97949Q4.55078 4.13086 4.48242 4.48242Q4.43359 4.73633 4.28711 4.8584Q4.14062 4.98047 3.99414 4.98047Q3.84766 4.98047 3.65234 4.79492Q3.45703 4.60938 3.4668 4.18945ZM9.96094 19.9219Q12.002 19.9219 13.8037 19.1406Q15.6055 18.3594 16.9824 16.9824Q18.3594 15.6055 19.1406 13.8037Q19.9219 12.002 19.9219 9.96094Q19.9219 7.91992 19.1406 6.11816Q18.3594 4.31641 16.9824 2.93945Q15.6055 1.5625 13.7988 0.78125Q11.9922 0 9.95117 0Q7.91016 0 6.1084 0.78125Q4.30664 1.5625 2.93457 2.93945Q1.5625 4.31641 0.78125 6.11816Q0 7.91992 0 9.96094Q0 12.002 0.78125 13.8037Q1.5625 15.6055 2.93945 16.9824Q4.31641 18.3594 6.11816 19.1406Q7.91992 19.9219 9.96094 19.9219ZM9.96094 18.5938Q8.19336 18.5938 6.63086 17.915Q5.06836 17.2363 3.87695 16.0449Q2.68555 14.8535 2.00684 13.291Q1.32812 11.7285 1.32812 9.96094Q1.32812 8.19336 2.00684 6.63086Q2.68555 5.06836 3.87207 3.87695Q5.05859 2.68555 6.62109 2.00684Q8.18359 1.32812 9.95117 1.32812Q11.7188 1.32812 13.2812 2.00684Q14.8438 2.68555 16.04 3.87695Q17.2363 5.06836 17.915 6.63086Q18.5938 8.19336 18.5938 9.96094Q18.5938 11.7285 17.915 13.291Q17.2363 14.8535 16.0449 16.0449Q14.8535 17.2363 13.291 17.915Q11.7285 18.5938 9.96094 18.5938Z" fill="#ffffff"/>
 </g>
</svg>
