<?xml version="1.0" encoding="UTF-8"?>
<!--Generator: Apple Native CoreSVG 175.5-->
<!DOCTYPE svg
PUBLIC "-//W3C//DTD SVG 1.1//EN"
       "http://www.w3.org/Graphics/SVG/1.1/DTD/svg11.dtd">
<svg version="1.1" xmlns="http://www.w3.org/2000/svg" xmlns:xlink="http://www.w3.org/1999/xlink" width="19.9219" height="19.9316">
 <g>
  <rect height="19.9316" opacity="0" width="19.9219" x="0" y="0"/>
  <path d="M10.8496 16.0156Q11.4844 16.0156 11.8506 15.3955Q12.2168 14.7754 12.2168 13.3984Q12.2168 12.8223 12.4854 12.3047Q12.7539 11.7871 13.1445 11.3818Q13.5352 10.9766 13.9209 10.7471Q14.3066 10.5176 14.541 10.5176Q14.8047 10.5176 15.0195 10.8008Q15.2344 11.084 15.4834 11.5137Q15.7324 11.9434 16.1084 12.373Q16.4844 12.8027 17.0557 13.1104Q17.627 13.418 18.4863 13.457Q18.7695 12.5977 18.9551 11.7188Q19.1406 10.8398 19.1211 9.96094Q19.0918 8.32031 18.5742 6.88965Q18.0566 5.45898 17.1582 4.31152Q16.2598 3.16406 15.0977 2.34863Q13.9355 1.5332 12.6172 1.10352Q11.2988 0.673828 9.94141 0.693359Q8.61328 0.703125 7.33887 1.1377Q6.06445 1.57227 4.90234 2.42188Q5.3125 3.00781 5.43457 3.17871Q5.55664 3.34961 5.55664 3.56445Q5.55664 3.75 5.37598 3.87695Q5.19531 4.00391 4.99512 4.18457Q4.79492 4.36523 4.73633 4.67773Q4.67773 4.9707 4.49219 5.16113Q4.30664 5.35156 4.05273 5.35156Q3.7793 5.35156 3.46191 5.03906Q3.14453 4.72656 3.05664 4.00391Q1.91406 5.10742 1.34766 6.64062Q0.78125 8.17383 0.78125 9.94141Q0.78125 11.1719 1.12793 12.3877Q1.47461 13.6035 2.23633 14.7949Q3.02734 14.6582 3.49121 14.3945Q3.95508 14.1309 4.15039 13.7061Q4.3457 13.2812 4.3457 12.6758Q4.3457 12.2266 4.4873 11.958Q4.62891 11.6895 4.81445 11.4844Q5 11.2793 5.14648 11.0498Q5.29297 10.8203 5.29297 10.4492Q5.29297 10.127 4.98535 9.83887Q4.67773 9.55078 4.0625 9.0332L3.41797 8.49609Q3.25195 8.34961 3.25195 8.13477Q3.25195 7.94922 3.37891 7.79297Q3.50586 7.63672 3.7207 7.63672Q3.85742 7.63672 3.99902 7.74902Q4.14062 7.86133 4.51172 8.17383Q5.0293 8.61328 5.32715 8.82812Q5.625 9.04297 5.91797 9.04297Q6.23047 9.04297 6.40137 8.90625Q6.57227 8.76953 6.77734 8.76953Q7.08984 8.76953 7.23633 9.16992L7.56836 10.0684Q7.70508 10.4785 7.9248 10.708Q8.14453 10.9375 8.37402 11.1084Q8.60352 11.2793 8.78418 11.5234Q8.96484 11.7676 9.04297 12.207Q9.28711 13.6523 9.53125 14.4824Q9.77539 15.3125 10.0879 15.6641Q10.4004 16.0156 10.8496 16.0156ZM9.96094 19.9219Q12.002 19.9219 13.8037 19.1406Q15.6055 18.3594 16.9824 16.9824Q18.3594 15.6055 19.1406 13.8037Q19.9219 12.002 19.9219 9.96094Q19.9219 7.91992 19.1406 6.11816Q18.3594 4.31641 16.9824 2.93945Q15.6055 1.5625 13.7988 0.78125Q11.9922 0 9.95117 0Q7.91016 0 6.1084 0.78125Q4.30664 1.5625 2.93457 2.93945Q1.5625 4.31641 0.78125 6.11816Q0 7.91992 0 9.96094Q0 12.002 0.78125 13.8037Q1.5625 15.6055 2.93945 16.9824Q4.31641 18.3594 6.11816 19.1406Q7.91992 19.9219 9.96094 19.9219ZM9.96094 18.5938Q8.19336 18.5938 6.63086 17.915Q5.06836 17.2363 3.87695 16.0449Q2.68555 14.8535 2.00684 13.291Q1.32812 11.7285 1.32812 9.96094Q1.32812 8.19336 2.00684 6.63086Q2.68555 5.06836 3.87207 3.87695Q5.05859 2.68555 6.62109 2.00684Q8.18359 1.32812 9.95117 1.32812Q11.7188 1.32812 13.2812 2.00684Q14.8438 2.68555 16.04 3.87695Q17.2363 5.06836 17.915 6.63086Q18.5938 8.19336 18.5938 9.96094Q18.5938 11.7285 17.915 13.291Q17.2363 14.8535 16.0449 16.0449Q14.8535 17.2363 13.291 17.915Q11.7285 18.5938 9.96094 18.5938Z" fill="#ffffff"/>
 </g>
</svg>
