<?xml version="1.0" encoding="UTF-8"?>
<!--Generator: Apple Native CoreSVG 175.5-->
<!DOCTYPE svg
PUBLIC "-//W3C//DTD SVG 1.1//EN"
       "http://www.w3.org/Graphics/SVG/1.1/DTD/svg11.dtd">
<svg version="1.1" xmlns="http://www.w3.org/2000/svg" xmlns:xlink="http://www.w3.org/1999/xlink" width="19.9219" height="19.9316">
 <g>
  <rect height="19.9316" opacity="0" width="19.9219" x="0" y="0"/>
  <path d="M9.96094 19.375Q10.9766 19.375 11.8701 18.6719Q12.7637 17.9688 13.4424 16.6992Q14.1211 15.4297 14.5068 13.7158Q14.8926 12.002 14.8926 9.98047Q14.8926 7.95898 14.5117 6.23535Q14.1309 4.51172 13.4521 3.2373Q12.7734 1.96289 11.8799 1.25977Q10.9863 0.556641 9.96094 0.556641Q8.93555 0.556641 8.04199 1.25977Q7.14844 1.96289 6.47461 3.2373Q5.80078 4.51172 5.41504 6.23535Q5.0293 7.95898 5.0293 9.98047Q5.0293 12.002 5.41504 13.7158Q5.80078 15.4297 6.47949 16.6992Q7.1582 17.9688 8.05176 18.6719Q8.94531 19.375 9.96094 19.375ZM9.96094 1.73828Q10.6738 1.73828 11.3281 2.39746Q11.9824 3.05664 12.4902 4.19922Q12.998 5.3418 13.291 6.83105Q13.584 8.32031 13.584 9.98047Q13.584 11.6211 13.291 13.0957Q12.998 14.5703 12.4902 15.7178Q11.9824 16.8652 11.3281 17.5244Q10.6738 18.1836 9.96094 18.1836Q9.24805 18.1836 8.59375 17.5244Q7.93945 16.8652 7.43164 15.7178Q6.92383 14.5703 6.63086 13.0957Q6.33789 11.6211 6.33789 9.98047Q6.33789 8.32031 6.63086 6.83105Q6.92383 5.3418 7.43164 4.19922Q7.93945 3.05664 8.59375 2.39746Q9.24805 1.73828 9.96094 1.73828ZM9.32617 0.693359L9.32617 19.1895L10.6055 19.1895L10.6055 0.693359ZM9.96094 13.6328Q8.45703 13.6328 7.10938 13.8818Q5.76172 14.1309 4.68262 14.5947Q3.60352 15.0586 2.91992 15.6836L3.90625 16.4941Q4.55078 15.9863 5.4541 15.6299Q6.35742 15.2734 7.49512 15.0928Q8.63281 14.9121 9.96094 14.9121Q11.2891 14.9121 12.4268 15.0928Q13.5645 15.2734 14.4678 15.6299Q15.3711 15.9863 16.0156 16.4941L17.002 15.6836Q16.3184 15.0586 15.2393 14.5947Q14.1602 14.1309 12.8125 13.8818Q11.4648 13.6328 9.96094 13.6328ZM18.9746 9.31641L0.947266 9.31641L0.947266 10.5957L18.9746 10.5957ZM9.96094 6.33789Q11.4648 6.33789 12.8125 6.08887Q14.1602 5.83984 15.2393 5.37598Q16.3184 4.91211 17.002 4.28711L16.0156 3.47656Q15.3711 3.98438 14.4678 4.34082Q13.5645 4.69727 12.4268 4.87793Q11.2891 5.05859 9.96094 5.05859Q8.63281 5.05859 7.49512 4.87793Q6.35742 4.69727 5.4541 4.34082Q4.55078 3.98438 3.90625 3.47656L2.91992 4.28711Q3.60352 4.91211 4.68262 5.37598Q5.76172 5.83984 7.10938 6.08887Q8.45703 6.33789 9.96094 6.33789ZM9.96094 19.9219Q12.002 19.9219 13.8037 19.1406Q15.6055 18.3594 16.9824 16.9824Q18.3594 15.6055 19.1406 13.8037Q19.9219 12.002 19.9219 9.96094Q19.9219 7.91992 19.1406 6.11816Q18.3594 4.31641 16.9824 2.93945Q15.6055 1.5625 13.7988 0.78125Q11.9922 0 9.95117 0Q7.91016 0 6.1084 0.78125Q4.30664 1.5625 2.93457 2.93945Q1.5625 4.31641 0.78125 6.11816Q0 7.91992 0 9.96094Q0 12.002 0.78125 13.8037Q1.5625 15.6055 2.93945 16.9824Q4.31641 18.3594 6.11816 19.1406Q7.91992 19.9219 9.96094 19.9219ZM9.96094 18.5938Q8.19336 18.5938 6.63086 17.915Q5.06836 17.2363 3.87695 16.0449Q2.68555 14.8535 2.00684 13.291Q1.32812 11.7285 1.32812 9.96094Q1.32812 8.19336 2.00684 6.63086Q2.68555 5.06836 3.87207 3.87695Q5.05859 2.68555 6.62109 2.00684Q8.18359 1.32812 9.95117 1.32812Q11.7188 1.32812 13.2812 2.00684Q14.8438 2.68555 16.04 3.87695Q17.2363 5.06836 17.915 6.63086Q18.5938 8.19336 18.5938 9.96094Q18.5938 11.7285 17.915 13.291Q17.2363 14.8535 16.0449 16.0449Q14.8535 17.2363 13.291 17.915Q11.7285 18.5938 9.96094 18.5938Z" fill="#ffffff"/>
 </g>
</svg>
