<?xml version="1.0" encoding="UTF-8"?>
<!--Generator: Apple Native CoreSVG 175.5-->
<!DOCTYPE svg
PUBLIC "-//W3C//DTD SVG 1.1//EN"
       "http://www.w3.org/Graphics/SVG/1.1/DTD/svg11.dtd">
<svg version="1.1" xmlns="http://www.w3.org/2000/svg" xmlns:xlink="http://www.w3.org/1999/xlink" width="19.9219" height="19.9316">
 <g>
  <rect height="19.9316" opacity="0" width="19.9219" x="0" y="0"/>
  <path d="M10.3711 17.7734Q10.791 17.7734 11.416 17.2852Q12.041 16.7969 12.7148 16.0156Q13.3887 15.2344 13.9795 14.3506Q14.5703 13.4668 14.9414 12.6562Q15.3125 11.8457 15.3125 11.3086Q15.3125 10.8984 14.9512 10.3809Q14.5898 9.86328 14.0381 9.38477Q13.4863 8.90625 12.9004 8.59375Q12.3145 8.28125 11.8555 8.28125Q11.5723 8.28125 11.2402 8.45215Q10.9082 8.62305 10.5859 8.79395Q10.2637 8.96484 10.0195 8.96484Q9.85352 8.96484 9.56543 8.80371Q9.27734 8.64258 8.98438 8.4082Q8.69141 8.17383 8.48633 7.93945Q8.28125 7.70508 8.28125 7.56836Q8.28125 7.46094 8.42285 7.34863Q8.56445 7.23633 8.70117 7.23633Q8.83789 7.23633 9.1748 7.46582Q9.51172 7.69531 9.89258 7.91992Q10.2734 8.14453 10.5566 8.14453Q11.1719 8.14453 11.543 7.76855Q11.9141 7.39258 11.9141 6.75781Q11.9141 6.35742 11.543 5.82031Q11.9531 5.61523 12.4805 5.31738Q13.0078 5.01953 13.5449 4.63867Q14.082 4.25781 14.5215 3.80859Q14.9609 3.35938 15.1855 2.86133L14.3066 2.40234Q14.1113 2.86133 13.6572 3.28125Q13.2031 3.70117 12.627 4.0625Q12.0508 4.42383 11.4795 4.72168Q10.9082 5.01953 10.4883 5.24414Q10.3223 5.33203 10.2637 5.49805Q10.2051 5.66406 10.3516 5.86914Q10.6543 6.2793 10.791 6.49902Q10.9277 6.71875 10.9277 6.88477Q10.9277 7.00195 10.8496 7.08008Q10.7715 7.1582 10.6445 7.1582Q10.4785 7.1582 10.1221 6.93359Q9.76562 6.70898 9.37012 6.47949Q8.97461 6.25 8.70117 6.25Q8.36914 6.25 8.04688 6.4502Q7.72461 6.65039 7.50977 6.95312Q7.29492 7.25586 7.29492 7.56836Q7.29492 7.90039 7.58789 8.31055Q7.88086 8.7207 8.31543 9.09668Q8.75 9.47266 9.21387 9.71191Q9.67773 9.95117 10.0195 9.95117Q10.293 9.95117 10.6641 9.78027Q11.0352 9.60938 11.3672 9.43359Q11.6992 9.25781 11.8555 9.25781Q12.0996 9.25781 12.5098 9.49707Q12.9199 9.73633 13.335 10.0879Q13.75 10.4395 14.0381 10.7764Q14.3262 11.1133 14.3262 11.3086Q14.3262 11.6504 14.0039 12.3096Q13.6816 12.9688 13.1738 13.7305Q12.666 14.4922 12.1094 15.1904Q11.5527 15.8887 11.0742 16.3379Q10.5957 16.7871 10.3418 16.7871Q10.1758 16.7871 10.0049 16.6553Q9.83398 16.5234 9.83398 16.3867Q9.83398 16.3086 9.8584 16.2109Q9.88281 16.1133 9.9707 15.8594Q10.0488 15.625 10.1318 15.3125Q10.2148 15 10.2051 14.6484Q10.1953 14.1699 9.79492 13.7646Q9.39453 13.3594 8.53516 12.7539Q8.37891 12.6465 8.21777 12.5293Q8.05664 12.4121 7.90039 12.2949Q7.46094 11.9629 7.46094 11.6211Q7.46094 11.4453 7.58789 11.0547Q7.73438 10.5469 7.73438 10.3223Q7.73438 9.99023 7.56348 9.74121Q7.39258 9.49219 7.04102 9.18945Q6.99219 9.15039 6.95312 9.11133Q6.91406 9.07227 6.86523 9.04297L5.30273 7.64648Q4.32617 6.76758 3.95508 6.10352Q3.58398 5.43945 3.67188 4.84375Q3.75977 4.24805 4.15039 3.59375L3.19336 3.39844Q2.7832 4.05273 2.69043 4.80957Q2.59766 5.56641 3.03223 6.45508Q3.4668 7.34375 4.64844 8.38867L6.20117 9.75586Q6.47461 10 6.61133 10.1221Q6.74805 10.2441 6.74805 10.3516Q6.74805 10.5078 6.61133 10.8398Q6.47461 11.1719 6.47461 11.6211Q6.47461 12.4707 7.30469 13.0859Q8.16406 13.7305 8.69141 14.1064Q9.21875 14.4824 9.21875 14.668Q9.22852 15.1172 9.03809 15.5176Q8.84766 15.918 8.84766 16.4258Q8.84766 16.7578 9.07715 17.0654Q9.30664 17.373 9.66309 17.5732Q10.0195 17.7734 10.3711 17.7734ZM9.96094 19.9219Q12.002 19.9219 13.8037 19.1406Q15.6055 18.3594 16.9824 16.9824Q18.3594 15.6055 19.1406 13.8037Q19.9219 12.002 19.9219 9.96094Q19.9219 7.91992 19.1406 6.11816Q18.3594 4.31641 16.9824 2.93945Q15.6055 1.5625 13.7988 0.78125Q11.9922 0 9.95117 0Q7.91016 0 6.1084 0.78125Q4.30664 1.5625 2.93457 2.93945Q1.5625 4.31641 0.78125 6.11816Q0 7.91992 0 9.96094Q0 12.002 0.78125 13.8037Q1.5625 15.6055 2.93945 16.9824Q4.31641 18.3594 6.11816 19.1406Q7.91992 19.9219 9.96094 19.9219ZM9.96094 18.5938Q8.19336 18.5938 6.63086 17.915Q5.06836 17.2363 3.87695 16.0449Q2.68555 14.8535 2.00684 13.291Q1.32812 11.7285 1.32812 9.96094Q1.32812 8.19336 2.00684 6.63086Q2.68555 5.06836 3.87207 3.87695Q5.05859 2.68555 6.62109 2.00684Q8.18359 1.32812 9.95117 1.32812Q11.7188 1.32812 13.2812 2.00684Q14.8438 2.68555 16.04 3.87695Q17.2363 5.06836 17.915 6.63086Q18.5938 8.19336 18.5938 9.96094Q18.5938 11.7285 17.915 13.291Q17.2363 14.8535 16.0449 16.0449Q14.8535 17.2363 13.291 17.915Q11.7285 18.5938 9.96094 18.5938Z" fill="#ffffff"/>
 </g>
</svg>
