<?xml version="1.0" encoding="UTF-8"?>
<!--Generator: Apple Native CoreSVG 175.5-->
<!DOCTYPE svg
PUBLIC "-//W3C//DTD SVG 1.1//EN"
       "http://www.w3.org/Graphics/SVG/1.1/DTD/svg11.dtd">
<svg version="1.1" xmlns="http://www.w3.org/2000/svg" xmlns:xlink="http://www.w3.org/1999/xlink" width="19.9219" height="23.7212">
 <g>
  <rect height="23.7212" opacity="0" width="19.9219" x="0" y="0"/>
  <path d="M0 11.8557Q0 13.8967 0.78125 15.7034Q1.5625 17.51 2.93945 18.8821Q4.31641 20.2541 6.11816 21.0354Q7.91992 21.8166 9.96094 21.8166Q12.002 21.8166 13.8037 21.0354Q15.6055 20.2541 16.9824 18.8821Q18.3594 17.51 19.1406 15.7034Q19.9219 13.8967 19.9219 11.8557Q19.9219 10.0588 19.3066 8.43773Q18.6914 6.81664 17.5928 5.50316Q16.4941 4.18969 15.0244 3.3059Q13.5547 2.42211 11.8457 2.08031L11.8457 0.693592Q11.8457 0.166248 11.543 0.039295Q11.2402-0.0876581 10.8398 0.195545L7.72461 2.37328Q7.38281 2.60765 7.38281 2.92015Q7.38281 3.23265 7.72461 3.4768L10.8301 5.6643Q11.2305 5.95726 11.5381 5.82543Q11.8457 5.69359 11.8457 5.16625L11.8457 3.77953Q13.2324 4.09203 14.3994 4.83422Q15.5664 5.5764 16.4307 6.65062Q17.2949 7.72484 17.7734 9.04808Q18.252 10.3713 18.252 11.8557Q18.252 13.5842 17.6123 15.093Q16.9727 16.6018 15.835 17.7395Q14.6973 18.8772 13.1934 19.5168Q11.6895 20.1565 9.96094 20.1565Q8.23242 20.1565 6.72363 19.5168Q5.21484 18.8772 4.07715 17.7395Q2.93945 16.6018 2.2998 15.093Q1.66016 13.5842 1.66016 11.8557Q1.66016 10.469 2.08984 9.2141Q2.51953 7.95922 3.29102 6.92406Q4.0625 5.8889 5.09766 5.14672Q5.40039 4.92211 5.4834 4.59984Q5.56641 4.27758 5.38086 3.97484Q5.19531 3.68187 4.84375 3.6184Q4.49219 3.55492 4.16992 3.79906Q2.91016 4.70726 1.97266 5.96215Q1.03516 7.21703 0.517578 8.71605Q0 10.2151 0 11.8557Z" fill="#007aff"/>
  <path d="M6.19141 12.6858L13.8477 12.6858Q14.2578 12.6858 14.5166 12.4758Q14.7754 12.2659 14.7754 11.8752Q14.7754 11.4846 14.5264 11.2649Q14.2773 11.0452 13.8477 11.0452L6.19141 11.0452Q5.76172 11.0452 5.50781 11.2649Q5.25391 11.4846 5.25391 11.8752Q5.25391 12.2659 5.51758 12.4758Q5.78125 12.6858 6.19141 12.6858Z" fill="#ffffff"/>
 </g>
</svg>
