<?xml version="1.0" encoding="UTF-8"?>
<!--Generator: Apple Native CoreSVG 175.5-->
<!DOCTYPE svg
PUBLIC "-//W3C//DTD SVG 1.1//EN"
       "http://www.w3.org/Graphics/SVG/1.1/DTD/svg11.dtd">
<svg version="1.1" xmlns="http://www.w3.org/2000/svg" xmlns:xlink="http://www.w3.org/1999/xlink" width="19.9219" height="23.7146">
 <g>
  <rect height="23.7146" opacity="0" width="19.9219" x="0" y="0"/>
  <path d="M0 11.8524Q0 13.8935 0.78125 15.7001Q1.5625 17.5067 2.93945 18.8788Q4.31641 20.2509 6.11816 21.0321Q7.91992 21.8134 9.96094 21.8134Q12.002 21.8134 13.8037 21.0321Q15.6055 20.2509 16.9824 18.8788Q18.3594 17.5067 19.1406 15.7001Q19.9219 13.8935 19.9219 11.8524Q19.9219 10.2118 19.4043 8.71279Q18.8867 7.21377 17.9492 5.95888Q17.0117 4.704 15.752 3.7958Q15.4297 3.55166 15.0781 3.61513Q14.7266 3.67861 14.541 3.97158Q14.3555 4.27431 14.4385 4.59658Q14.5215 4.91884 14.8242 5.14345Q15.8594 5.88564 16.6309 6.9208Q17.4023 7.95595 17.832 9.21084Q18.2617 10.4657 18.2617 11.8524Q18.2617 13.581 17.6221 15.0897Q16.9824 16.5985 15.8447 17.7362Q14.707 18.8739 13.1982 19.5136Q11.6895 20.1532 9.96094 20.1532Q8.23242 20.1532 6.72852 19.5136Q5.22461 18.8739 4.08691 17.7362Q2.94922 16.5985 2.30957 15.0897Q1.66992 13.581 1.66992 11.8524Q1.66992 10.3681 2.14844 9.04482Q2.62695 7.72158 3.49121 6.64736Q4.35547 5.57314 5.52734 4.83095Q6.69922 4.08877 8.07617 3.77627L8.07617 5.17275Q8.07617 5.69033 8.38379 5.82216Q8.69141 5.954 9.0918 5.6708L12.207 3.4833Q12.5391 3.25869 12.5439 2.94131Q12.5488 2.62392 12.207 2.38955L9.10156 0.202047Q8.69141-0.0909213 8.38379 0.0409146Q8.07617 0.172751 8.07617 0.700094L8.07617 2.07705Q6.36719 2.41884 4.89746 3.30263Q3.42773 4.18642 2.3291 5.4999Q1.23047 6.81338 0.615234 8.43447Q0 10.0556 0 11.8524Z" fill="#007aff"/>
  <path d="M5.43945 11.8524Q5.43945 12.204 5.67383 12.4286Q5.9082 12.6532 6.2793 12.6532L9.15039 12.6532L9.15039 15.5341Q9.15039 15.9052 9.375 16.1347Q9.59961 16.3642 9.95117 16.3642Q10.3223 16.3642 10.5518 16.1347Q10.7812 15.9052 10.7812 15.5341L10.7812 12.6532L13.6621 12.6532Q14.0332 12.6532 14.2627 12.4286Q14.4922 12.204 14.4922 11.8524Q14.4922 11.4813 14.2627 11.2519Q14.0332 11.0224 13.6621 11.0224L10.7812 11.0224L10.7812 8.15127Q10.7812 7.77041 10.5518 7.54091Q10.3223 7.31142 9.95117 7.31142Q9.59961 7.31142 9.375 7.5458Q9.15039 7.78017 9.15039 8.15127L9.15039 11.0224L6.2793 11.0224Q5.89844 11.0224 5.66895 11.2519Q5.43945 11.4813 5.43945 11.8524Z" fill="#ffffff"/>
 </g>
</svg>
