<?xml version="1.0" encoding="UTF-8"?>
<!--Generator: Apple Native CoreSVG 175.5-->
<!DOCTYPE svg
PUBLIC "-//W3C//DTD SVG 1.1//EN"
       "http://www.w3.org/Graphics/SVG/1.1/DTD/svg11.dtd">
<svg version="1.1" xmlns="http://www.w3.org/2000/svg" xmlns:xlink="http://www.w3.org/1999/xlink" width="19.9219" height="23.7146">
 <g>
  <rect height="23.7146" opacity="0" width="19.9219" x="0" y="0"/>
  <path d="M0 11.8524Q0 13.8935 0.78125 15.7001Q1.5625 17.5067 2.93945 18.8788Q4.31641 20.2509 6.11816 21.0321Q7.91992 21.8134 9.96094 21.8134Q12.002 21.8134 13.8037 21.0321Q15.6055 20.2509 16.9824 18.8788Q18.3594 17.5067 19.1406 15.7001Q19.9219 13.8935 19.9219 11.8524Q19.9219 10.2118 19.4043 8.71279Q18.8867 7.21377 17.9492 5.95888Q17.0117 4.704 15.752 3.7958Q15.4297 3.55166 15.0781 3.61513Q14.7266 3.67861 14.541 3.97158Q14.3555 4.27431 14.4385 4.59658Q14.5215 4.91884 14.8242 5.14345Q15.8594 5.88564 16.6309 6.9208Q17.4023 7.95595 17.832 9.21084Q18.2617 10.4657 18.2617 11.8524Q18.2617 13.581 17.6221 15.0897Q16.9824 16.5985 15.8447 17.7362Q14.707 18.8739 13.1982 19.5136Q11.6895 20.1532 9.96094 20.1532Q8.23242 20.1532 6.72852 19.5136Q5.22461 18.8739 4.08691 17.7362Q2.94922 16.5985 2.30957 15.0897Q1.66992 13.581 1.66992 11.8524Q1.66992 10.3681 2.14844 9.04482Q2.62695 7.72158 3.49121 6.64736Q4.35547 5.57314 5.52734 4.83095Q6.69922 4.08877 8.07617 3.77627L8.07617 5.17275Q8.07617 5.69033 8.38379 5.82216Q8.69141 5.954 9.0918 5.6708L12.207 3.4833Q12.5391 3.25869 12.5439 2.94131Q12.5488 2.62392 12.207 2.38955L9.10156 0.202047Q8.69141-0.0909213 8.38379 0.0409146Q8.07617 0.172751 8.07617 0.700094L8.07617 2.07705Q6.36719 2.41884 4.89746 3.30263Q3.42773 4.18642 2.3291 5.4999Q1.23047 6.81338 0.615234 8.43447Q0 10.0556 0 11.8524Z" fill="#007aff"/>
  <path d="M6.875 15.9638Q8.02734 15.9638 8.76465 15.3339Q9.50195 14.704 9.50195 13.7177Q9.50195 13.0048 9.05273 12.4823Q8.60352 11.9599 7.91016 11.8817L7.91016 11.9306Q8.4668 11.8329 8.8623 11.3251Q9.25781 10.8173 9.25781 10.163Q9.25781 9.28408 8.6084 8.72744Q7.95898 8.1708 6.93359 8.1708Q6.04492 8.1708 5.37598 8.6249Q4.70703 9.079 4.55078 9.78213Q4.54102 9.87002 4.53125 9.94814Q4.52148 10.0263 4.52148 10.1044Q4.52148 10.3681 4.67285 10.5341Q4.82422 10.7001 5.07812 10.7001Q5.48828 10.7001 5.64453 10.2411Q5.79102 9.78213 6.10352 9.54287Q6.41602 9.30361 6.9043 9.30361Q7.42188 9.30361 7.73926 9.58193Q8.05664 9.86025 8.05664 10.3095Q8.05664 10.7782 7.73438 11.0858Q7.41211 11.3935 6.89453 11.3935L6.47461 11.3935Q6.23047 11.3935 6.0791 11.5448Q5.92773 11.6962 5.92773 11.9599Q5.92773 12.204 6.08398 12.3651Q6.24023 12.5263 6.47461 12.5263L6.93359 12.5263Q7.55859 12.5263 7.91992 12.8388Q8.28125 13.1513 8.28125 13.6688Q8.28125 14.1669 7.88574 14.5038Q7.49023 14.8407 6.88477 14.8407Q6.36719 14.8407 6.01562 14.5966Q5.66406 14.3524 5.49805 13.8935Q5.41016 13.6493 5.27344 13.5419Q5.13672 13.4345 4.94141 13.4345Q4.69727 13.4345 4.53613 13.6005Q4.375 13.7665 4.375 14.0302Q4.375 14.1083 4.38477 14.1913Q4.39453 14.2743 4.41406 14.3524Q4.57031 15.036 5.27344 15.4999Q5.97656 15.9638 6.875 15.9638ZM13.1738 15.9638Q13.9844 15.9638 14.585 15.4804Q15.1855 14.997 15.5225 14.1278Q15.8594 13.2587 15.8594 12.0868Q15.8594 10.9052 15.5225 10.0263Q15.1855 9.14736 14.585 8.65908Q13.9844 8.1708 13.1738 8.1708Q11.9531 8.1708 11.2207 9.24013Q10.4883 10.3095 10.4883 12.0868Q10.4883 13.8446 11.2207 14.9042Q11.9531 15.9638 13.1738 15.9638ZM13.1738 14.7821Q12.5293 14.7821 12.1436 14.0595Q11.7578 13.3368 11.7578 12.0868Q11.7578 10.8075 12.1387 10.08Q12.5195 9.35244 13.1738 9.35244Q13.8281 9.35244 14.2041 10.0751Q14.5801 10.7978 14.5801 12.0868Q14.5801 13.3368 14.1992 14.0595Q13.8184 14.7821 13.1738 14.7821Z" fill="#ffffff"/>
 </g>
</svg>
