<?xml version="1.0" encoding="UTF-8"?>
<!--Generator: Apple Native CoreSVG 175-->
<!DOCTYPE svg
PUBLIC "-//W3C//DTD SVG 1.1//EN"
       "http://www.w3.org/Graphics/SVG/1.1/DTD/svg11.dtd">
<svg version="1.1" xmlns="http://www.w3.org/2000/svg" xmlns:xlink="http://www.w3.org/1999/xlink" width="19.1602" height="22.8202">
 <g>
  <rect height="22.8202" opacity="0" width="19.1602" x="0" y="0"/>
  <path d="M0 11.4247Q0 13.3974 0.74707 15.1357Q1.49414 16.874 2.8125 18.1874Q4.13086 19.5009 5.86914 20.2529Q7.60742 21.0048 9.57031 21.0048Q11.5527 21.0048 13.2861 20.2529Q15.0195 19.5009 16.3379 18.1874Q17.6562 16.874 18.4082 15.1357Q19.1602 13.3974 19.1602 11.4247Q19.1602 9.69622 18.5742 8.14348Q17.9883 6.59075 16.9434 5.33587Q15.8984 4.08098 14.5117 3.24114Q14.3555 3.14348 14.2041 3.17766Q14.0527 3.21184 13.9746 3.3388Q13.8965 3.47552 13.9355 3.622Q13.9746 3.76848 14.1113 3.85638Q15.4004 4.62786 16.3672 5.78509Q17.334 6.94231 17.8711 8.38274Q18.4082 9.82317 18.4082 11.4247Q18.4082 13.2509 17.7246 14.8525Q17.041 16.454 15.8252 17.6699Q14.6094 18.8857 13.0078 19.5693Q11.4062 20.2529 9.57031 20.2529Q7.74414 20.2529 6.14746 19.5693Q4.55078 18.8857 3.33496 17.6699Q2.11914 16.454 1.43555 14.8525Q0.751953 13.2509 0.751953 11.4247Q0.751953 9.80364 1.28906 8.36809Q1.82617 6.93255 2.79785 5.77044Q3.76953 4.60833 5.07324 3.83196Q6.37695 3.05559 7.90039 2.76263L7.90039 4.63763Q7.90039 4.93059 8.08594 5.0136Q8.27148 5.09661 8.52539 4.91106L11.4648 2.86028Q11.6797 2.7138 11.6797 2.52337Q11.6797 2.33294 11.4648 2.17669L8.53516 0.125907Q8.26172-0.0596401 8.08105 0.0282506Q7.90039 0.116141 7.90039 0.40911L7.90039 1.99114Q6.2207 2.29388 4.78516 3.1386Q3.34961 3.98333 2.27539 5.24798Q1.20117 6.51263 0.600586 8.08977Q0 9.66692 0 11.4247Z" fill="#007aff"/>
  <path d="M7.43164 15.331Q7.76367 15.331 7.76367 14.9794L7.76367 13.5439L8.69141 13.5439Q8.82812 13.5439 8.91602 13.4609Q9.00391 13.3779 9.00391 13.2509Q9.00391 13.1142 8.91602 13.0312Q8.82812 12.9482 8.69141 12.9482L7.76367 12.9482L7.76367 8.15325Q7.76367 7.89934 7.62207 7.77239Q7.48047 7.64544 7.24609 7.64544Q7.01172 7.64544 6.85547 7.73333Q6.69922 7.82122 6.55273 8.05559Q6.25977 8.47552 5.85449 9.09075Q5.44922 9.70598 5.01953 10.3749Q4.58984 11.0439 4.19922 11.6493Q3.80859 12.2548 3.54492 12.6747Q3.48633 12.7822 3.45703 12.8798Q3.42773 12.9775 3.42773 13.0947Q3.42773 13.2997 3.55957 13.4218Q3.69141 13.5439 3.93555 13.5439L7.11914 13.5439L7.11914 14.9794Q7.11914 15.331 7.43164 15.331ZM4.15039 12.9482L4.15039 12.9091Q4.87305 11.7665 5.60059 10.6288Q6.32812 9.49114 7.06055 8.3388L7.11914 8.3388L7.11914 12.9482ZM12.4707 15.4384Q13.6621 15.4384 14.3945 14.745Q15.127 14.0517 15.127 12.9091Q15.127 11.8642 14.4531 11.1757Q13.7793 10.4872 12.7148 10.4872Q12.1875 10.4872 11.6895 10.7216Q11.1914 10.956 10.9277 11.3661L10.8984 11.3661L11.1328 8.43645L14.5703 8.43645Q14.707 8.43645 14.7949 8.34856Q14.8828 8.26067 14.8828 8.13372Q14.8828 7.997 14.7949 7.91888Q14.707 7.84075 14.5703 7.84075L11.0059 7.84075Q10.5469 7.84075 10.5176 8.29973L10.2734 11.6396Q10.2539 11.8349 10.3516 11.9423Q10.4492 12.0497 10.6348 12.0497Q10.7617 12.0497 10.8398 12.0107Q10.918 11.9716 11.0352 11.874Q11.4258 11.4443 11.8018 11.2636Q12.1777 11.0829 12.6367 11.0829Q13.4375 11.0829 13.9502 11.5956Q14.4629 12.1083 14.4629 12.9286Q14.4629 13.7587 13.9062 14.3007Q13.3496 14.8427 12.5195 14.8427Q11.8945 14.8427 11.3916 14.5058Q10.8887 14.1689 10.7422 13.6611Q10.6934 13.5341 10.6152 13.4658Q10.5371 13.3974 10.4199 13.3974Q10.2832 13.3974 10.2051 13.4853Q10.127 13.5732 10.127 13.7099Q10.127 13.7587 10.1318 13.8124Q10.1367 13.8661 10.1465 13.9247Q10.3223 14.5693 10.9766 15.0038Q11.6309 15.4384 12.4707 15.4384Z" fill="#ffffff"/>
 </g>
</svg>
