<?xml version="1.0" encoding="UTF-8"?>
<!--Generator: Apple Native CoreSVG 175.5-->
<!DOCTYPE svg
PUBLIC "-//W3C//DTD SVG 1.1//EN"
       "http://www.w3.org/Graphics/SVG/1.1/DTD/svg11.dtd">
<svg version="1.1" xmlns="http://www.w3.org/2000/svg" xmlns:xlink="http://www.w3.org/1999/xlink" width="19.9219" height="19.9316">
 <g>
  <rect height="19.9316" opacity="0" width="19.9219" x="0" y="0"/>
  <path d="M9.96094 19.9219Q12.002 19.9219 13.8037 19.1406Q15.6055 18.3594 16.9824 16.9824Q18.3594 15.6055 19.1406 13.8037Q19.9219 12.002 19.9219 9.96094Q19.9219 7.91992 19.1406 6.11816Q18.3594 4.31641 16.9824 2.93945Q15.6055 1.5625 13.7988 0.78125Q11.9922 0 9.95117 0Q7.91016 0 6.1084 0.78125Q4.30664 1.5625 2.93457 2.93945Q1.5625 4.31641 0.78125 6.11816Q0 7.91992 0 9.96094Q0 12.002 0.78125 13.8037Q1.5625 15.6055 2.93945 16.9824Q4.31641 18.3594 6.11816 19.1406Q7.91992 19.9219 9.96094 19.9219Z" fill="#007aff"/>
  <path d="M4.19922 11.9434Q4.19922 11.6309 4.39941 11.4404Q4.59961 11.25 4.95117 11.25L7.24609 11.25L7.24609 8.67188L4.95117 8.67188Q4.59961 8.67188 4.39941 8.48145Q4.19922 8.29102 4.19922 7.96875Q4.19922 7.63672 4.39941 7.44629Q4.59961 7.25586 4.95117 7.25586L7.24609 7.25586L7.24609 4.96094Q7.24609 4.59961 7.43652 4.4043Q7.62695 4.20898 7.96875 4.20898Q8.28125 4.20898 8.47168 4.4043Q8.66211 4.59961 8.66211 4.96094L8.66211 7.25586L11.2598 7.25586L11.2598 4.96094Q11.2598 4.59961 11.4453 4.4043Q11.6309 4.20898 11.9629 4.20898Q12.2852 4.20898 12.4805 4.4043Q12.6758 4.59961 12.6758 4.96094L12.6758 7.25586L14.9707 7.25586Q15.3223 7.25586 15.5225 7.44629Q15.7227 7.63672 15.7227 7.96875Q15.7227 8.29102 15.5225 8.48145Q15.3223 8.67188 14.9707 8.67188L12.6758 8.67188L12.6758 11.25L14.9707 11.25Q15.3223 11.25 15.5225 11.4404Q15.7227 11.6309 15.7227 11.9434Q15.7227 12.2852 15.5225 12.4756Q15.3223 12.666 14.9707 12.666L12.6758 12.666L12.6758 14.9609Q12.6758 15.3223 12.4805 15.5176Q12.2852 15.7129 11.9629 15.7129Q11.6309 15.7129 11.4453 15.5176Q11.2598 15.3223 11.2598 14.9609L11.2598 12.666L8.66211 12.666L8.66211 14.9609Q8.66211 15.3223 8.47168 15.5176Q8.28125 15.7129 7.96875 15.7129Q7.62695 15.7129 7.43652 15.5176Q7.24609 15.3223 7.24609 14.9609L7.24609 12.666L4.95117 12.666Q4.59961 12.666 4.39941 12.4756Q4.19922 12.2852 4.19922 11.9434ZM8.66211 11.25L11.2598 11.25L11.2598 8.67188L8.66211 8.67188Z" fill="#ffffff"/>
 </g>
</svg>
