<?xml version="1.0" encoding="UTF-8"?>
<!--Generator: Apple Native CoreSVG 175.5-->
<!DOCTYPE svg
PUBLIC "-//W3C//DTD SVG 1.1//EN"
       "http://www.w3.org/Graphics/SVG/1.1/DTD/svg11.dtd">
<svg version="1.1" xmlns="http://www.w3.org/2000/svg" xmlns:xlink="http://www.w3.org/1999/xlink" width="23.9351" height="22.8732">
 <g>
  <rect height="22.8732" opacity="0" width="23.9351" x="0" y="0"/>
  <path d="M0.594952 20.3477L2.29417 22.0567Q2.9387 22.711 3.65648 22.6622Q4.37425 22.6133 5.06761 21.8419L15.761 10.0548L14.7942 9.07819L4.17894 20.7579Q3.91526 21.0606 3.64671 21.0997Q3.37816 21.1387 3.02659 20.7872L1.85472 19.6251Q1.50316 19.2735 1.5471 19.0049Q1.59105 18.7364 1.89378 18.463L13.3684 7.66218L12.3918 6.69538L0.80003 17.5841Q0.0578425 18.2676 0.00413161 18.9805Q-0.0495793 19.6934 0.594952 20.3477ZM7.01097 2.15436Q6.69847 2.4571 6.65941 2.84772Q6.62034 3.23835 6.79612 3.53132Q6.97191 3.80475 7.30882 3.94147Q7.64573 4.07819 8.13401 3.961Q9.22776 3.7071 10.3508 3.75104Q11.4739 3.79499 12.5481 4.49811L11.9621 5.95319Q11.7082 6.57819 11.8205 7.04206Q11.9328 7.50593 12.3332 7.91608L14.6282 10.2305Q14.9895 10.6016 15.3313 10.6602Q15.6731 10.7188 16.093 10.6407L17.1575 10.4454L17.8215 11.1192L17.7825 11.6758Q17.7532 12.0469 17.8752 12.3594Q17.9973 12.6719 18.3586 13.0333L19.1203 13.7755Q19.4817 14.1368 19.9065 14.1514Q20.3313 14.1661 20.6828 13.8145L23.593 10.8946Q23.9446 10.543 23.9348 10.128Q23.925 9.71296 23.5637 9.35163L22.7922 8.58991Q22.4407 8.22858 22.133 8.09675Q21.8254 7.96491 21.4641 7.99421L20.8879 8.04304L20.2434 7.40827L20.4875 6.28522Q20.5852 5.8653 20.4485 5.49909Q20.3117 5.13288 19.8723 4.69343L17.675 2.50593Q16.425 1.26569 15.0139 0.645575Q13.6028 0.0254574 12.1721 0.00104334Q10.7414-0.0233707 9.41819 0.523504Q8.09495 1.07038 7.01097 2.15436ZM8.50511 2.52546Q9.41331 1.86139 10.4534 1.57819Q11.4934 1.29499 12.5578 1.39753Q13.6223 1.50007 14.6233 1.96882Q15.6242 2.43757 16.4543 3.27741L18.886 5.68952Q19.0617 5.8653 19.1057 6.03132Q19.1496 6.19733 19.091 6.45124L18.7688 7.93561L20.2727 9.41999L21.259 9.36139Q21.4446 9.35163 21.5422 9.38581Q21.6399 9.41999 21.7864 9.56647L22.3625 10.1426L19.9211 12.5841L19.345 12.0079Q19.1985 11.8614 19.1594 11.7637Q19.1203 11.6661 19.1301 11.4708L19.1985 10.4942L17.7043 9.00983L16.1809 9.26374Q15.9367 9.31257 15.7951 9.27839Q15.6535 9.24421 15.468 9.06843L13.466 7.06647Q13.2707 6.89069 13.2463 6.72956Q13.2219 6.56843 13.3391 6.29499L14.218 4.20514Q13.0461 3.11139 11.5813 2.69147Q10.1164 2.27155 8.593 2.72077Q8.47581 2.75007 8.44163 2.67682Q8.40745 2.60358 8.50511 2.52546Z" fill="#ffffff"/>
 </g>
</svg>
