<?xml version="1.0" encoding="UTF-8"?>
<!--Generator: Apple Native CoreSVG 175.5-->
<!DOCTYPE svg
PUBLIC "-//W3C//DTD SVG 1.1//EN"
       "http://www.w3.org/Graphics/SVG/1.1/DTD/svg11.dtd">
<svg version="1.1" xmlns="http://www.w3.org/2000/svg" xmlns:xlink="http://www.w3.org/1999/xlink" width="19.9219" height="19.9316">
 <g>
  <rect height="19.9316" opacity="0" width="19.9219" x="0" y="0"/>
  <path d="M9.96094 19.9219Q12.002 19.9219 13.8037 19.1406Q15.6055 18.3594 16.9824 16.9824Q18.3594 15.6055 19.1406 13.8037Q19.9219 12.002 19.9219 9.96094Q19.9219 7.91992 19.1406 6.11816Q18.3594 4.31641 16.9824 2.93945Q15.6055 1.5625 13.7988 0.78125Q11.9922 0 9.95117 0Q7.91016 0 6.1084 0.78125Q4.30664 1.5625 2.93457 2.93945Q1.5625 4.31641 0.78125 6.11816Q0 7.91992 0 9.96094Q0 12.002 0.78125 13.8037Q1.5625 15.6055 2.93945 16.9824Q4.31641 18.3594 6.11816 19.1406Q7.91992 19.9219 9.96094 19.9219ZM9.96094 18.2617Q8.23242 18.2617 6.72852 17.6172Q5.22461 16.9727 4.08691 15.835Q2.94922 14.6973 2.30957 13.1934Q1.66992 11.6895 1.66992 9.96094Q1.66992 8.23242 2.30957 6.72852Q2.94922 5.22461 4.08203 4.08203Q5.21484 2.93945 6.71875 2.2998Q8.22266 1.66016 9.95117 1.66016Q11.6797 1.66016 13.1885 2.2998Q14.6973 2.93945 15.835 4.08203Q16.9727 5.22461 17.6172 6.72852Q18.2617 8.23242 18.2617 9.96094Q18.2617 11.6895 17.6221 13.1934Q16.9824 14.6973 15.8398 15.835Q14.6973 16.9727 13.1934 17.6172Q11.6895 18.2617 9.96094 18.2617Z" fill="#007aff"/>
  <path d="M15.4492 8.32031Q15.4492 7.5293 15.1562 6.875Q14.8633 6.2207 14.3506 5.8252Q13.8379 5.42969 13.1836 5.42969L12.2266 5.42969Q12.959 5.94727 13.2812 6.70898Q13.6035 7.4707 13.584 8.36914Q13.5742 9.36523 13.2568 10.0684Q12.9395 10.7715 12.6074 11.2109L13.3691 11.2109Q13.9648 11.2109 14.4336 10.8252Q14.9023 10.4395 15.1758 9.78516Q15.4492 9.13086 15.4492 8.32031ZM12.8809 8.35938Q12.9004 7.39258 12.417 6.62598Q11.9336 5.85938 11.0303 5.41016Q10.127 4.96094 8.89648 4.95117L8.18359 4.94141Q7.66602 4.93164 7.29492 4.96582Q6.92383 5 6.70898 5.05859Q6.39648 5.13672 6.1377 5.33691Q5.87891 5.53711 5.87891 5.9082Q5.87891 6.05469 5.91797 6.17676Q5.95703 6.29883 5.99609 6.37695Q6.06445 6.48438 5.9668 6.52344Q5.73242 6.62109 5.55176 6.8457Q5.37109 7.07031 5.37109 7.37305Q5.37109 7.55859 5.41992 7.71484Q5.46875 7.87109 5.56641 7.97852Q5.66406 8.10547 5.52734 8.18359Q5.11719 8.42773 5.11719 8.96484Q5.11719 9.15039 5.1709 9.33105Q5.22461 9.51172 5.33203 9.60938Q5.43945 9.69727 5.30273 9.79492Q5.04883 10.0391 5.04883 10.4785Q5.04883 10.8691 5.30762 11.1426Q5.56641 11.416 5.95703 11.416L7.82227 11.416Q8.18359 11.416 8.39355 11.5869Q8.60352 11.7578 8.60352 12.0508Q8.60352 12.4121 8.38379 12.9199Q8.16406 13.4277 7.94434 13.9746Q7.72461 14.5215 7.72461 14.9805Q7.72461 15.3418 7.93945 15.5518Q8.1543 15.7617 8.45703 15.7617Q8.75 15.7617 8.91113 15.5859Q9.07227 15.4102 9.21875 15.1074Q9.81445 13.9648 10.5371 13.0176Q11.2598 12.0703 11.8555 11.2598Q12.3535 10.5957 12.6123 9.94629Q12.8711 9.29688 12.8809 8.35938Z" fill="#ffffff"/>
 </g>
</svg>
