<?xml version="1.0" encoding="UTF-8"?>
<!--Generator: Apple Native CoreSVG 175.5-->
<!DOCTYPE svg
PUBLIC "-//W3C//DTD SVG 1.1//EN"
       "http://www.w3.org/Graphics/SVG/1.1/DTD/svg11.dtd">
<svg version="1.1" xmlns="http://www.w3.org/2000/svg" xmlns:xlink="http://www.w3.org/1999/xlink" width="21.8034" height="19.0776">
 <g>
  <rect height="19.0776" opacity="0" width="21.8034" x="0" y="0"/>
  <path d="M17.2461 18.5769Q19.1797 17.8738 20.3369 16.5115Q21.4941 15.1492 21.7432 13.3084Q21.9922 11.4675 21.2109 9.3191L20.4883 7.31714Q19.9121 5.73511 18.877 5.10523Q17.8418 4.47535 16.5527 4.92457Q16.2109 4.47535 15.7031 4.33375Q15.1953 4.19214 14.6289 4.39722Q14.2285 4.54371 13.8672 4.82691Q13.4961 4.33863 12.9443 4.1775Q12.3926 4.01636 11.7969 4.23121Q11.4648 4.35816 11.1816 4.56324L10.0684 1.51636Q9.75586 0.637456 9.04297 0.300542Q8.33008-0.0363717 7.50977 0.256597Q6.68945 0.559331 6.3623 1.2771Q6.03516 1.99488 6.34766 2.86402L9.13086 10.5203Q9.16016 10.6082 9.0918 10.6277Q9.04297 10.6472 8.99414 10.5984L7.85156 9.34839Q7.42188 8.89918 6.93359 8.75757Q6.44531 8.61597 5.94727 8.79175Q5.2832 9.03589 4.92676 9.6316Q4.57031 10.2273 4.85352 10.9793Q4.92188 11.1941 5.05859 11.4334Q5.19531 11.6726 5.36133 11.8875L8.63281 15.8425Q10.4883 18.0886 12.6514 18.7771Q14.8145 19.4656 17.2461 18.5769ZM16.8262 17.2976Q14.9023 18.0007 13.1055 17.5418Q11.3086 17.0828 9.60938 15.032L6.33789 11.0964Q6.19141 10.9109 6.11328 10.7058Q6.02539 10.4714 6.12793 10.2371Q6.23047 10.0027 6.50391 9.89527Q6.92383 9.74878 7.31445 10.1687L9.58008 12.5027Q9.85352 12.7957 10.1074 12.8494Q10.3613 12.9031 10.6152 12.8152Q10.8984 12.7078 11.0059 12.4392Q11.1133 12.1707 10.9961 11.8484L7.53906 2.33668Q7.43164 2.04371 7.54395 1.79468Q7.65625 1.54566 7.94922 1.43824Q8.23242 1.34058 8.47168 1.46265Q8.71094 1.58472 8.81836 1.87769L11.2891 8.6648Q11.377 8.90894 11.6113 9.0066Q11.8457 9.10425 12.0898 9.01636Q12.3242 8.92847 12.4365 8.70386Q12.5488 8.47925 12.4609 8.24488L11.5723 5.79371Q11.7871 5.57886 12.0703 5.47144Q12.4121 5.34449 12.6855 5.48609Q12.959 5.62769 13.0859 5.98902L13.8672 8.12769Q13.9551 8.37183 14.1943 8.4646Q14.4336 8.55738 14.668 8.46949Q14.8926 8.39136 15.0098 8.17164Q15.127 7.95191 15.0293 7.698L14.3945 5.95972Q14.6094 5.74488 14.9023 5.63746Q15.2441 5.5105 15.5176 5.6521Q15.791 5.79371 15.918 6.15503L16.4355 7.58082Q16.5332 7.83472 16.7676 7.9275Q17.002 8.02027 17.2363 7.93238Q17.4609 7.85425 17.5781 7.63453Q17.6953 7.4148 17.6074 7.16089L17.2266 6.10621Q17.832 5.8816 18.3887 6.365Q18.9453 6.84839 19.3359 7.94214L19.9512 9.61207Q20.625 11.4578 20.4639 12.9812Q20.3027 14.5046 19.375 15.6082Q18.4473 16.7117 16.8262 17.2976Z" fill="#ffffff"/>
  <path d="M4.77539 2.45386Q3.33984 3.323 2.26562 4.66578Q1.19141 6.00855 0.595703 7.7273Q0 9.44605 0 11.448Q0 11.7117 0.19043 11.907Q0.380859 12.1023 0.634766 12.0925Q0.888672 12.0828 1.05469 11.907Q1.2207 11.7312 1.23047 11.4675Q1.28906 8.84058 2.35352 6.82886Q3.41797 4.81714 5.21484 3.65503Z" fill="#007aff"/>
 </g>
</svg>
