<?xml version="1.0" encoding="UTF-8"?>
<!--Generator: Apple Native CoreSVG 175-->
<!DOCTYPE svg
PUBLIC "-//W3C//DTD SVG 1.1//EN"
       "http://www.w3.org/Graphics/SVG/1.1/DTD/svg11.dtd">
<svg version="1.1" xmlns="http://www.w3.org/2000/svg" xmlns:xlink="http://www.w3.org/1999/xlink" width="19.1602" height="19.1504">
 <g>
  <rect height="19.1504" opacity="0" width="19.1602" x="0" y="0"/>
  <path d="M9.57031 19.1406Q11.5527 19.1406 13.2861 18.3984Q15.0195 17.6562 16.3379 16.333Q17.6562 15.0098 18.4082 13.2764Q19.1602 11.543 19.1602 9.57031Q19.1602 7.59766 18.4082 5.86426Q17.6562 4.13086 16.3379 2.80762Q15.0195 1.48438 13.2861 0.742188Q11.5527 0 9.57031 0Q7.59766 0 5.86426 0.742188Q4.13086 1.48438 2.81738 2.80762Q1.50391 4.13086 0.751953 5.86426Q0 7.59766 0 9.57031Q0 11.543 0.74707 13.2764Q1.49414 15.0098 2.8125 16.333Q4.13086 17.6562 5.86914 18.3984Q7.60742 19.1406 9.57031 19.1406Z" fill="#007aff"/>
  <path d="M5.55664 11.4648L5.55664 6.02539Q5.55664 5.81055 5.72266 5.64453Q5.88867 5.47852 6.10352 5.47852Q6.33789 5.47852 6.50391 5.64453Q6.66992 5.81055 6.66992 6.02539L6.66992 9.3457Q6.80664 9.24805 6.96289 9.15039Q7.11914 9.05273 7.30469 8.96484L7.30469 4.16016Q7.30469 3.92578 7.47559 3.76465Q7.64648 3.60352 7.87109 3.60352Q8.0957 3.60352 8.26172 3.76465Q8.42773 3.92578 8.42773 4.16016L8.42773 8.60352Q8.60352 8.56445 8.79395 8.54492Q8.98438 8.52539 9.17969 8.51562L9.17969 3.48633Q9.17969 3.26172 9.3457 3.09082Q9.51172 2.91992 9.73633 2.91992Q9.96094 2.91992 10.1221 3.09082Q10.2832 3.26172 10.2832 3.48633L10.2832 8.57422Q10.4492 8.62305 10.6104 8.68164Q10.7715 8.74023 10.918 8.79883L10.918 4.60938Q10.918 4.375 11.0791 4.21387Q11.2402 4.05273 11.4648 4.05273Q11.6992 4.05273 11.8604 4.21387Q12.0215 4.375 12.0215 4.60938L12.0215 10.5957Q12.0215 10.8301 12.124 10.9277Q12.2266 11.0254 12.373 11.0254Q12.4805 11.0254 12.5928 10.957Q12.7051 10.8887 12.7832 10.6738L13.5742 8.74023Q13.6816 8.48633 13.8281 8.37891Q13.9746 8.27148 14.1602 8.27148Q14.3652 8.27148 14.5117 8.39844Q14.6582 8.52539 14.6582 8.75Q14.6582 8.84766 14.624 8.99414Q14.5898 9.14062 14.541 9.30664Q14.4141 9.82422 14.2725 10.332Q14.1309 10.8398 13.9844 11.3428Q13.8379 11.8457 13.6719 12.3242Q13.125 14.082 12.0654 14.8584Q11.0059 15.6348 9.58008 15.6348Q8.45703 15.6348 7.54395 15.1758Q6.63086 14.7168 6.09375 13.7842Q5.55664 12.8516 5.55664 11.4648Z" fill="#ffffff"/>
 </g>
</svg>
