<?xml version="1.0" encoding="UTF-8"?>
<!--Generator: Apple Native CoreSVG 175.5-->
<!DOCTYPE svg
PUBLIC "-//W3C//DTD SVG 1.1//EN"
       "http://www.w3.org/Graphics/SVG/1.1/DTD/svg11.dtd">
<svg version="1.1" xmlns="http://www.w3.org/2000/svg" xmlns:xlink="http://www.w3.org/1999/xlink" width="15.3906" height="20.0098">
 <g>
  <rect height="20.0098" opacity="0" width="15.3906" x="0" y="0"/>
  <path d="M6.62109 0.126953Q4.50195 0.126953 3.02246 0.981445Q1.54297 1.83594 0.771484 3.44238Q0 5.04883 0 7.31445L0 9.18945Q0 10.0488 0.244141 10.6689Q0.488281 11.2891 0.888672 11.6211Q1.28906 11.9531 1.75781 11.9531Q2.08008 11.9531 2.08008 11.6406L2.08008 10.8105Q2.08008 10.5176 2.21191 10.3711Q2.34375 10.2246 2.51953 10.2246Q2.70508 10.2246 2.83691 10.3711Q2.96875 10.5176 2.96875 10.8105L2.96875 11.3574Q2.96875 12.1191 3.40332 12.5732Q3.83789 13.0273 4.49219 13.0273Q5.06836 13.0273 5.06836 12.5293L5.06836 11.3965Q5.06836 11.1035 5.19531 10.957Q5.32227 10.8105 5.49805 10.8105Q5.69336 10.8105 5.8252 10.957Q5.95703 11.1035 5.95703 11.3965L5.95703 12.4414Q5.95703 13.291 6.3916 13.7012Q6.82617 14.1113 7.46094 14.1113Q8.03711 14.1113 8.03711 13.6133L8.03711 11.3965Q8.03711 11.1035 8.16406 10.957Q8.29102 10.8105 8.4668 10.8105Q8.66211 10.8105 8.79395 10.957Q8.92578 11.1035 8.92578 11.3965L8.92578 18.8086Q8.92578 19.3555 9.23828 19.6826Q9.55078 20.0098 10.0098 20.0098Q10.498 20.0098 10.8057 19.6826Q11.1133 19.3555 11.1133 18.8086L11.1133 7.95898Q11.1133 7.75391 11.2207 7.65137Q11.3281 7.54883 11.4551 7.54883Q11.709 7.54883 11.875 7.91992L13.3105 11.3086Q13.4668 11.6895 13.7158 11.8604Q13.9648 12.0312 14.2871 12.0312Q14.7852 12.0312 15.0879 11.7285Q15.3906 11.4258 15.3906 11.0156Q15.3906 10.8496 15.3613 10.708Q15.332 10.5664 15.2832 10.4492L13.7109 5.73242Q12.7051 2.75391 10.8301 1.44043Q8.95508 0.126953 6.62109 0.126953Z" fill="#ffffff"/>
 </g>
</svg>
