<?xml version="1.0" encoding="UTF-8"?>
<!--Generator: Apple Native CoreSVG 175.5-->
<!DOCTYPE svg
PUBLIC "-//W3C//DTD SVG 1.1//EN"
       "http://www.w3.org/Graphics/SVG/1.1/DTD/svg11.dtd">
<svg version="1.1" xmlns="http://www.w3.org/2000/svg" xmlns:xlink="http://www.w3.org/1999/xlink" width="17.5391" height="25.8105">
 <g>
  <rect height="25.8105" opacity="0" width="17.5391" x="0" y="0"/>
  <path d="M9.87305 24.873Q11.9922 24.873 13.4717 24.0234Q14.9512 23.1738 15.7227 21.5625Q16.4941 19.9512 16.4941 17.6855L16.4941 15.8105Q16.4941 14.9512 16.25 14.3311Q16.0059 13.7109 15.6055 13.3789Q15.2051 13.0469 14.7363 13.0469Q14.4141 13.0469 14.4141 13.3594L14.4141 14.1895Q14.4141 14.4824 14.2822 14.6289Q14.1504 14.7754 13.9746 14.7754Q13.7891 14.7754 13.6572 14.6289Q13.5254 14.4824 13.5254 14.1895L13.5254 13.6426Q13.5254 12.8906 13.0908 12.4316Q12.6562 11.9727 12.002 11.9727Q11.4258 11.9727 11.4258 12.4707L11.4258 13.6035Q11.4258 13.8965 11.2988 14.043Q11.1719 14.1895 10.9961 14.1895Q10.8008 14.1895 10.6689 14.043Q10.5371 13.8965 10.5371 13.6035L10.5371 12.5586Q10.5371 11.709 10.1025 11.2988Q9.66797 10.8887 9.0332 10.8887Q8.45703 10.8887 8.45703 11.3867L8.45703 13.6035Q8.45703 13.8965 8.3252 14.043Q8.19336 14.1895 8.01758 14.1895Q7.83203 14.1895 7.7002 14.043Q7.56836 13.8965 7.56836 13.6035L7.56836 6.19141Q7.56836 5.6543 7.25586 5.32715Q6.94336 5 6.48438 5Q5.98633 5 5.67871 5.32715Q5.37109 5.6543 5.37109 6.19141L5.37109 17.041Q5.37109 17.2461 5.26855 17.3486Q5.16602 17.4512 5.03906 17.4512Q4.78516 17.4512 4.61914 17.0801L3.18359 13.6914Q3.01758 13.3203 2.77344 13.1494Q2.5293 12.9785 2.19727 12.9785Q1.69922 12.9785 1.40137 13.2764Q1.10352 13.5742 1.10352 13.9844Q1.10352 14.1602 1.13281 14.2969Q1.16211 14.4336 1.20117 14.5508L2.7832 19.2676Q3.78906 22.2559 5.65918 23.5645Q7.5293 24.873 9.87305 24.873Z" fill="#ffffff"/>
  <path d="M1.50391 7.5Q2.14844 7.5 2.59277 7.05078Q3.03711 6.60156 3.03711 5.9668Q3.03711 5.3418 2.59277 4.89258Q2.14844 4.44336 1.50391 4.44336Q0.878906 4.44336 0.439453 4.89258Q0 5.3418 0 5.9668Q0 6.60156 0.439453 7.05078Q0.878906 7.5 1.50391 7.5ZM6.48438 3.05664Q7.11914 3.05664 7.56836 2.60742Q8.01758 2.1582 8.01758 1.52344Q8.01758 0.898438 7.56836 0.449219Q7.11914 0 6.48438 0Q5.85938 0 5.41016 0.449219Q4.96094 0.898438 4.96094 1.52344Q4.96094 2.1582 5.41016 2.60742Q5.85938 3.05664 6.48438 3.05664ZM11.5137 7.5Q12.1484 7.5 12.5977 7.05078Q13.0469 6.60156 13.0469 5.9668Q13.0469 5.3418 12.5977 4.89258Q12.1484 4.44336 11.5137 4.44336Q10.8887 4.44336 10.4395 4.89258Q9.99023 5.3418 9.99023 5.9668Q9.99023 6.60156 10.4395 7.05078Q10.8887 7.5 11.5137 7.5ZM16.0059 7.5Q16.6406 7.5 17.0898 7.05078Q17.5391 6.60156 17.5391 5.9668Q17.5391 5.3418 17.0898 4.89258Q16.6406 4.44336 16.0059 4.44336Q15.3809 4.44336 14.9365 4.89258Q14.4922 5.3418 14.4922 5.9668Q14.4922 6.60156 14.9365 7.05078Q15.3809 7.5 16.0059 7.5ZM16.0059 3.05664Q16.6406 3.05664 17.0898 2.60742Q17.5391 2.1582 17.5391 1.52344Q17.5391 0.898438 17.0898 0.449219Q16.6406 0 16.0059 0Q15.3809 0 14.9365 0.449219Q14.4922 0.898438 14.4922 1.52344Q14.4922 2.1582 14.9365 2.60742Q15.3809 3.05664 16.0059 3.05664Z" fill="#007aff"/>
 </g>
</svg>
