<?xml version="1.0" encoding="UTF-8"?>
<!--Generator: Apple Native CoreSVG 175-->
<!DOCTYPE svg
PUBLIC "-//W3C//DTD SVG 1.1//EN"
       "http://www.w3.org/Graphics/SVG/1.1/DTD/svg11.dtd">
<svg version="1.1" xmlns="http://www.w3.org/2000/svg" xmlns:xlink="http://www.w3.org/1999/xlink" width="17.2894" height="17.5378">
 <g>
  <rect height="17.5378" opacity="0" width="17.2894" x="0" y="0"/>
  <path d="M2.63046 17.5378L14.6519 17.5378Q15.9532 17.5378 16.6213 16.8654Q17.2894 16.1929 17.2894 14.9141L17.2894 2.88208Q17.2894 1.60309 16.6213 0.92926Q15.9532 0.255432 14.6519 0.255432L2.63046 0.255432Q1.33636 0.255432 0.668182 0.920868Q0 1.5863 0 2.88208L0 14.9141Q0 16.2097 0.668182 16.8738Q1.33636 17.5378 2.63046 17.5378ZM2.65701 16.8164Q1.7067 16.8164 1.21765 16.3251Q0.728607 15.8339 0.728607 14.8753L0.728607 2.92068Q0.728607 1.96213 1.21765 1.46957Q1.7067 0.97702 2.65701 0.97702L14.6324 0.97702Q15.5519 0.97702 16.0564 1.46957Q16.561 1.96213 16.561 2.92068L16.561 14.8753Q16.561 15.8339 16.0564 16.3251Q15.5519 16.8164 14.6324 16.8164Z" fill="#007aff"/>
  <path d="M4.47662 10.7988Q4.47662 12.1797 5.00977 13.1027Q5.54291 14.0257 6.45134 14.4846Q7.35977 14.9434 8.46725 14.9434Q9.89258 14.9434 10.947 14.1715Q12.0015 13.3997 12.5481 11.6446Q12.7066 11.1613 12.85 10.6702Q12.9933 10.179 13.134 9.67133Q13.2747 9.16367 13.4082 8.65082Q13.4523 8.48633 13.4865 8.33961Q13.5207 8.1929 13.5207 8.10043Q13.5207 7.8801 13.375 7.75467Q13.2294 7.62924 13.0203 7.62924Q12.8453 7.62924 12.6971 7.73254Q12.5488 7.83585 12.4379 8.08868L11.6609 10.0047Q11.5742 10.2159 11.4651 10.2872Q11.3559 10.3586 11.248 10.3586Q11.104 10.3586 11.0023 10.2578Q10.9007 10.157 10.9007 9.92462L10.9007 3.98438Q10.9007 3.75854 10.7398 3.59764Q10.5789 3.43674 10.3461 3.43674Q10.1274 3.43674 9.9678 3.59764Q9.8082 3.75854 9.8082 3.98438L9.8082 8.14682Q9.65591 8.08243 9.49654 8.02933Q9.33716 7.97623 9.17496 7.93549L9.17496 2.85904Q9.17496 2.64023 9.01543 2.47223Q8.8559 2.30423 8.62732 2.30423Q8.40866 2.30423 8.24066 2.47223Q8.07266 2.64023 8.07266 2.85904L8.07266 7.86011Q7.88513 7.87262 7.69493 7.89429Q7.50473 7.91595 7.32849 7.94952L7.32849 3.53714Q7.32849 3.31131 7.16408 3.1517Q6.99966 2.9921 6.77383 2.9921Q6.55502 2.9921 6.3871 3.1517Q6.21918 3.31131 6.21918 3.53714L6.21918 8.31482Q6.02615 8.40149 5.86815 8.49449Q5.71014 8.58749 5.57892 8.69095L5.57892 5.39185Q5.57892 5.17029 5.4158 5.00938Q5.25269 4.84848 5.02701 4.84848Q4.79843 4.84848 4.63753 5.00938Q4.47662 5.17029 4.47662 5.39185Z" fill="#ffffff"/>
 </g>
</svg>
