<?xml version="1.0" encoding="UTF-8"?>
<!--Generator: Apple Native CoreSVG 175.5-->
<!DOCTYPE svg
PUBLIC "-//W3C//DTD SVG 1.1//EN"
       "http://www.w3.org/Graphics/SVG/1.1/DTD/svg11.dtd">
<svg version="1.1" xmlns="http://www.w3.org/2000/svg" xmlns:xlink="http://www.w3.org/1999/xlink" width="17.9785" height="17.998">
 <g>
  <rect height="17.998" opacity="0" width="17.9785" x="0" y="0"/>
  <path d="M3.06641 17.998L14.9121 17.998Q16.4453 17.998 17.2119 17.2412Q17.9785 16.4844 17.9785 14.9707L17.9785 3.04688Q17.9785 1.5332 17.2119 0.776367Q16.4453 0.0195312 14.9121 0.0195312L3.06641 0.0195312Q1.5332 0.0195312 0.766602 0.776367Q0 1.5332 0 3.04688L0 14.9707Q0 16.4844 0.766602 17.2412Q1.5332 17.998 3.06641 17.998Z" fill="#007aff"/>
  <path d="M4.85352 10.8984L4.85352 5.45898Q4.85352 5.19531 5.04883 5Q5.24414 4.80469 5.51758 4.80469Q5.77148 4.80469 5.9668 5Q6.16211 5.19531 6.16211 5.45898L6.16211 8.87695Q6.26953 8.80859 6.38672 8.74023Q6.50391 8.67188 6.64062 8.61328L6.64062 3.62305Q6.64062 3.35938 6.83105 3.17383Q7.02148 2.98828 7.28516 2.98828Q7.54883 2.98828 7.74414 3.17383Q7.93945 3.35938 7.93945 3.62305L7.93945 8.19336Q8.06641 8.17383 8.19336 8.15918Q8.32031 8.14453 8.44727 8.125L8.44727 3.125Q8.44727 2.87109 8.63281 2.67578Q8.81836 2.48047 9.0918 2.48047Q9.36523 2.48047 9.55078 2.67578Q9.73633 2.87109 9.73633 3.125L9.73633 8.18359Q9.86328 8.22266 9.98535 8.26172Q10.1074 8.30078 10.2246 8.33008L10.2246 3.97461Q10.2246 3.71094 10.4102 3.52051Q10.5957 3.33008 10.8691 3.33008Q11.123 3.33008 11.3135 3.52051Q11.5039 3.71094 11.5039 3.97461L11.5039 10.1074Q11.5039 10.2441 11.5576 10.3027Q11.6113 10.3613 11.6992 10.3613Q11.7676 10.3613 11.8262 10.3076Q11.8848 10.2539 11.9434 10.1172L12.7637 8.39844Q12.9688 7.98828 13.1592 7.79785Q13.3496 7.60742 13.6426 7.60742Q13.8965 7.60742 14.0625 7.75879Q14.2285 7.91016 14.2285 8.1543Q14.2285 8.35938 14.0967 8.75977Q13.9648 9.16016 13.8477 9.54102Q13.6719 10.1367 13.4912 10.6836Q13.3105 11.2305 13.1152 11.7236Q12.9199 12.2168 12.6953 12.6465Q12.0898 13.8965 11.1572 14.458Q10.2246 15.0195 8.88672 15.0195Q7.70508 15.0195 6.79199 14.5215Q5.87891 14.0234 5.36621 13.1006Q4.85352 12.1777 4.85352 10.8984Z" fill="#ffffff"/>
 </g>
</svg>
