<?xml version="1.0" encoding="UTF-8"?>
<!--Generator: Apple Native CoreSVG 175.5-->
<!DOCTYPE svg
PUBLIC "-//W3C//DTD SVG 1.1//EN"
       "http://www.w3.org/Graphics/SVG/1.1/DTD/svg11.dtd">
<svg version="1.1" xmlns="http://www.w3.org/2000/svg" xmlns:xlink="http://www.w3.org/1999/xlink" width="26.9229" height="24.9183">
 <g>
  <rect height="24.9183" opacity="0" width="26.9229" x="0" y="0"/>
  <path d="M11.7174 21.5363Q12.86 22.6789 14.11 23.2257Q15.36 23.7726 16.6247 23.7628Q17.8893 23.7531 19.0807 23.216Q20.2721 22.6789 21.2975 21.6535Q22.9479 20.0128 23.3239 18.2502Q23.6999 16.4875 22.9967 14.4269Q22.8112 13.841 22.5719 13.2404Q22.3327 12.6398 22.0397 12.0148Q21.7467 11.3898 21.4049 10.7355Q21.0631 10.0812 20.692 9.37808Q20.4967 8.99722 20.2819 8.5773Q20.067 8.15738 19.862 7.80582Q19.6569 7.45426 19.4909 7.28824Q19.2077 7.0148 18.8512 7.02945Q18.4948 7.0441 18.2018 7.33707Q17.8698 7.6691 17.8649 8.10855Q17.86 8.54801 18.1139 9.28043L19.1784 12.2589Q19.2663 12.4933 19.2565 12.6447Q19.2467 12.7961 19.1588 12.8839Q19.0514 12.9914 18.9147 12.9865Q18.778 12.9816 18.5924 12.7961L11.3463 5.54996Q11.0436 5.24722 10.609 5.24722Q10.1745 5.24722 9.87173 5.54996Q9.56899 5.86246 9.56899 6.29703Q9.56899 6.7316 9.87173 7.03433L15.0475 12.2101Q14.8522 12.298 14.6569 12.4103Q14.4616 12.5226 14.2663 12.6593L8.2604 6.65347Q7.95766 6.34097 7.51821 6.34097Q7.07876 6.34097 6.77602 6.65347Q6.47329 6.95621 6.47329 7.39078Q6.47329 7.82535 6.77602 8.12808L12.7135 14.0656Q12.5573 14.2414 12.4157 14.4269Q12.2741 14.6125 12.1471 14.798L6.71743 9.36832Q6.40493 9.06558 5.97036 9.06558Q5.53579 9.06558 5.23306 9.36832Q4.93032 9.67105 4.93032 10.1105Q4.93032 10.55 5.23306 10.8527L11.1315 16.7511Q11.0436 17.005 10.9801 17.2492Q10.9166 17.4933 10.8678 17.7277L6.76626 13.6261Q6.46352 13.3136 6.02895 13.3136Q5.59438 13.3136 5.28188 13.6261Q4.97915 13.9289 4.97915 14.3634Q4.97915 14.798 5.28188 15.1007ZM16.7467 7.47379L14.8229 5.54996Q14.5202 5.24722 14.0807 5.24722Q13.6413 5.24722 13.3385 5.54996Q13.319 5.56949 13.2995 5.60855L16.8444 9.16324Q16.7565 8.70426 16.7272 8.28433Q16.6979 7.86441 16.7467 7.47379ZM24.7643 21.6632Q26.4147 20.0128 26.7907 18.2502Q27.1666 16.4875 26.4733 14.4171Q26.2877 13.841 26.0436 13.2404Q25.7995 12.6398 25.5065 12.0148Q25.2135 11.3898 24.8766 10.7355Q24.5397 10.0812 24.1588 9.37808Q23.9635 8.99722 23.7487 8.5773Q23.5338 8.15738 23.3239 7.80582Q23.1139 7.45426 22.9479 7.29801Q22.6745 7.0148 22.3229 7.02945Q21.9713 7.0441 21.6686 7.33707Q21.4733 7.53238 21.3854 7.78629Q21.5514 8.08902 21.7028 8.39176Q21.8541 8.69449 22.0202 8.98746Q22.3717 9.66129 22.7038 10.3156Q23.0358 10.9699 23.3239 11.6046Q23.612 12.2394 23.8561 12.8546Q24.1002 13.4699 24.276 14.0558Q25.0866 16.5461 24.5885 18.6505Q24.0905 20.755 22.235 22.591Q21.61 23.2257 20.8971 23.6945Q21.942 23.548 22.9235 23.0304Q23.9049 22.5128 24.7643 21.6632Z" fill="#ffffff"/>
  <path d="M3.33852 8.25504Q3.5729 8.30387 3.78774 8.16715Q4.00259 8.03043 4.05141 7.77652Q4.10024 7.53238 3.96841 7.32242Q3.83657 7.11246 3.5729 7.05387L0.750633 6.4484Q0.477196 6.3898 0.262352 6.54117Q0.0475084 6.69254 0.00844595 6.95621Q-0.0306166 7.20035 0.110985 7.40543Q0.252587 7.61051 0.496727 7.65933ZM4.32485 5.00308Q4.50063 5.18863 4.75942 5.18863Q5.01821 5.18863 5.19399 5.00308Q5.36977 4.8273 5.36977 4.5734Q5.36977 4.31949 5.19399 4.13394L3.14321 2.09293Q2.95766 1.89762 2.70864 1.9025Q2.45962 1.90738 2.27407 2.09293Q2.09829 2.27847 2.09341 2.52262Q2.08852 2.76676 2.27407 2.96207ZM7.95766 4.03629Q8.21157 3.98746 8.35806 3.76773Q8.50454 3.54801 8.44595 3.31363L7.84048 0.491365Q7.78188 0.237459 7.56704 0.10074Q7.3522-0.0359786 7.10806 0.0128495Q6.86391 0.0616776 6.71255 0.276521Q6.56118 0.491365 6.61977 0.745271L7.22524 3.55777Q7.28384 3.80191 7.4938 3.9484Q7.70376 4.09488 7.95766 4.03629Z" fill="#007aff"/>
 </g>
</svg>
