<?xml version="1.0" encoding="UTF-8"?>
<!--Generator: Apple Native CoreSVG 175-->
<!DOCTYPE svg
PUBLIC "-//W3C//DTD SVG 1.1//EN"
       "http://www.w3.org/Graphics/SVG/1.1/DTD/svg11.dtd">
<svg version="1.1" xmlns="http://www.w3.org/2000/svg" xmlns:xlink="http://www.w3.org/1999/xlink" width="14.2336" height="21.9318">
 <g>
  <rect height="21.9318" opacity="0" width="14.2336" x="0" y="0"/>
  <path d="M0 15.9985Q0 17.2125 0.497055 18.1158Q0.99411 19.0192 1.89064 19.519Q2.78717 20.0188 3.97614 20.0188Q5.39459 20.0188 6.46721 19.3089Q7.53983 18.5989 8.17703 17.2954L8.72543 16.1871Q9.24728 15.0923 9.85489 14.3245Q10.4625 13.5567 11.0812 12.9645Q11.7 12.3723 12.265 11.8307Q12.83 11.2891 13.273 10.6723Q13.716 10.0555 13.9748 9.23233Q14.2336 8.40912 14.2336 7.2403Q14.2336 5.06058 13.36 3.43109Q12.4864 1.80161 10.9093 0.900803Q9.33212 0 7.22076 0Q5.07889 0 3.45428 0.930328Q1.82968 1.86066 0.914841 3.51746Q0 5.17426 0 7.36374ZM0.70816 15.9782L0.70816 7.36374Q0.70816 5.37201 1.52405 3.87138Q2.33994 2.37076 3.80966 1.53603Q5.27939 0.701294 7.22076 0.701294Q9.11057 0.701294 10.528 1.5255Q11.9453 2.3497 12.7354 3.8208Q13.5254 5.2919 13.5254 7.2403Q13.5254 8.31223 13.2791 9.07532Q13.0328 9.83841 12.6024 10.4282Q12.1719 11.0181 11.6207 11.5444Q11.0695 12.0708 10.4646 12.6581Q9.85977 13.2454 9.25354 14.0131Q8.64731 14.7809 8.1102 15.8466L7.52777 16.9922Q6.96091 18.1255 6.06194 18.716Q5.16296 19.3066 3.99536 19.3066Q2.50702 19.3066 1.60759 18.3969Q0.70816 17.4872 0.70816 15.9782Z" fill="#007aff"/>
  <path d="M2.71255 13.4309Q2.71255 14.0239 3.13301 14.3788Q3.55347 14.7337 4.23721 14.7337Q5.23514 14.731 5.89554 14.0337Q6.55594 13.3363 6.55594 12.3094Q6.55594 11.4461 6.24046 10.8485Q5.92499 10.2509 5.45662 9.80164Q4.98825 9.35242 4.51859 8.93715Q4.04892 8.52188 3.73482 8.03596Q3.42072 7.55005 3.42072 6.86996Q3.42072 5.8876 3.89221 5.11475Q4.36371 4.34189 5.20607 3.89328Q6.04843 3.44467 7.16873 3.44467Q8.88016 3.44467 9.88792 4.45595Q10.8957 5.46722 10.8957 7.16446Q10.8957 7.3056 10.9994 7.40929Q11.1031 7.51297 11.2485 7.51297Q11.3965 7.51297 11.5002 7.40929Q11.604 7.3056 11.604 7.16446Q11.604 5.82977 11.0524 4.83467Q10.5008 3.83957 9.50569 3.29147Q8.51059 2.74338 7.16873 2.74338Q5.84808 2.74338 4.84589 3.28262Q3.84369 3.82187 3.27812 4.75449Q2.71255 5.6871 2.71255 6.86996Q2.71255 7.71027 3.00468 8.30338Q3.29681 8.89648 3.67828 9.33342Q4.05975 9.77036 4.34845 10.1438Q4.63715 10.5173 4.63715 10.918Q4.63715 11.3641 4.4426 11.6051Q4.24805 11.8462 3.96072 11.9968Q3.6734 12.1474 3.38615 12.2997Q3.09891 12.4519 2.90573 12.7102Q2.71255 12.9684 2.71255 13.4309Z" fill="#ffffff"/>
 </g>
</svg>
