<?xml version="1.0" encoding="UTF-8"?>
<!--Generator: Apple Native CoreSVG 175-->
<!DOCTYPE svg
PUBLIC "-//W3C//DTD SVG 1.1//EN"
       "http://www.w3.org/Graphics/SVG/1.1/DTD/svg11.dtd">
<svg version="1.1" xmlns="http://www.w3.org/2000/svg" xmlns:xlink="http://www.w3.org/1999/xlink" width="22.7681" height="22.1948">
 <g>
  <rect height="22.1948" opacity="0" width="22.7681" x="0" y="0"/>
  <path d="M7.63214 7.08542Q8.23914 6.47842 9.09576 6.22414Q9.95239 5.96985 11.2653 5.96985L15.9044 5.96985Q15.6235 3.1456 13.4352 1.49368Q13.2547 1.32919 13.0283 1.34384Q12.802 1.35849 12.6845 1.52802Q12.4707 1.98898 11.9248 2.33467Q11.3789 2.68036 10.4198 2.87102Q9.4606 3.06168 7.99377 3.06168Q6.52695 3.06168 5.56641 2.87102Q4.60587 2.68036 4.05998 2.33467Q3.5141 1.98898 3.30048 1.52802Q3.18283 1.35849 2.95784 1.34247Q2.73285 1.32645 2.55234 1.49368Q1.30112 2.48077 0.650558 3.88077Q0 5.28076 0 6.98975Q0 8.76907 0.702744 10.3402Q1.40549 11.9113 2.62222 13.0223Q3.0481 13.4258 3.54767 13.7086Q4.04724 13.9914 4.75395 14.1658Q5.46066 14.3402 6.52618 14.4073L6.52618 10.6992Q6.52618 9.37653 6.77696 8.53455Q7.02774 7.69257 7.63214 7.08542Z" fill="#007aff"/>
  <path d="M7.99377 2.32224Q9.19922 2.32224 10.0834 2.18277Q10.9676 2.0433 11.4513 1.78024Q11.9351 1.51718 11.9351 1.1554Q11.9351 0.798035 11.4513 0.537109Q10.9676 0.276184 10.0834 0.138092Q9.19922 0 7.99377 0Q6.78558 0 5.90141 0.138092Q5.01724 0.276184 4.5356 0.537109Q4.05396 0.798035 4.05396 1.1554Q4.05396 1.51718 4.5356 1.78024Q5.01724 2.0433 5.90141 2.18277Q6.78558 2.32224 7.99377 2.32224ZM11.3481 22.1855L18.8228 22.1855Q19.9957 22.1855 20.7215 22.002Q21.4473 21.8184 21.929 21.3367Q22.4106 20.8524 22.5893 20.1398Q22.7681 19.4273 22.7681 18.2375L22.7681 10.7848Q22.7681 9.59213 22.5893 8.87962Q22.4106 8.16711 21.929 7.68555Q21.4403 7.20383 20.718 7.01889Q19.9957 6.83395 18.8228 6.83395L11.2653 6.83395Q10.1582 6.83395 9.44443 7.0224Q8.73062 7.21085 8.2489 7.70233Q7.76718 8.1839 7.58362 8.88451Q7.40005 9.58511 7.40005 10.6992L7.40005 18.2375Q7.40005 19.4273 7.58362 20.1434Q7.76718 20.8594 8.2489 21.3367Q8.73062 21.8184 9.45152 22.002Q10.1724 22.1855 11.3481 22.1855ZM13.6653 15.6233Q13.5747 15.9386 13.3731 16.2866Q13.1715 16.6347 12.8911 16.8871Q12.8059 16.9722 12.6909 17.028Q12.5758 17.0839 12.4266 17.0839Q12.2829 17.0839 12.1803 17.0448Q12.0778 17.0058 11.9411 16.9597Q11.884 16.9374 11.7696 16.89Q11.6551 16.8425 11.5254 16.8425Q11.2227 16.8425 11.0406 16.9695Q10.8586 17.0964 10.6047 17.0964Q10.2837 17.0964 9.93805 16.6835Q9.59076 16.2761 9.3689 15.7021Q9.14703 15.128 9.14703 14.5952Q9.14703 14.2632 9.23492 13.952Q9.32281 13.6409 9.53766 13.3984Q9.91135 12.9129 10.5656 12.9129Q10.8755 12.9129 11.0651 13.0363Q11.2547 13.1596 11.4067 13.1596Q11.5993 13.1596 11.8456 13.0278Q12.0918 12.896 12.4754 12.896Q13.1743 12.896 13.5426 13.4358Q13.2985 13.584 13.1805 13.7394Q13.0626 13.8948 13.0278 14.0343Q12.961 14.2534 12.9456 14.4905Q12.9301 14.7276 13.0278 14.9745Q13.2176 15.428 13.6653 15.6233ZM11.3887 12.7592Q11.3789 12.3047 11.711 11.9203Q12.043 11.5359 12.527 11.5109Q12.5563 11.7996 12.4063 12.1037Q12.2563 12.4077 11.9899 12.603Q11.7235 12.7983 11.3887 12.7592ZM15.9169 11.9211L15.9169 12.896L16.7107 12.896L16.7107 13.5574L15.9169 13.5574L15.9169 15.8577Q15.9169 16.3808 16.4317 16.3808Q16.4903 16.3808 16.5775 16.3759Q16.6646 16.371 16.6966 16.3445L16.6966 17.0546Q16.6493 17.0573 16.5161 17.0706Q16.3829 17.0839 16.2419 17.0839Q15.6044 17.0839 15.3345 16.8265Q15.0645 16.5691 15.0645 15.937L15.0645 13.5574L14.4856 13.5574L14.4856 12.896L15.0645 12.896L15.0645 11.9211ZM19.5216 17.0546L18.6372 17.0546L17.104 12.896L18.0095 12.896L19.0652 16.2343L20.0906 12.896L21.0184 12.896Z" fill="#ffffff"/>
 </g>
</svg>
