<?xml version="1.0" encoding="UTF-8"?>
<!--Generator: Apple Native CoreSVG 175-->
<!DOCTYPE svg
PUBLIC "-//W3C//DTD SVG 1.1//EN"
       "http://www.w3.org/Graphics/SVG/1.1/DTD/svg11.dtd">
<svg version="1.1" xmlns="http://www.w3.org/2000/svg" xmlns:xlink="http://www.w3.org/1999/xlink" width="10.9743" height="17.2192">
 <g>
  <rect height="17.2192" opacity="0" width="10.9743" x="0" y="0"/>
  <path d="M1.24023 17.2067L9.73404 17.2067Q10.2934 17.2067 10.6339 16.8704Q10.9743 16.5341 10.9743 15.9637L10.9743 15.6348Q10.9743 14.8473 10.5669 13.9762Q10.1595 13.1052 9.52309 12.2343Q8.88672 11.3634 8.16078 10.5667Q7.43484 9.77005 6.80038 9.14261Q6.53824 8.87344 6.53282 8.592Q6.5274 8.31055 6.80038 8.03757Q7.43484 7.41013 8.16078 6.61697Q8.88672 5.82382 9.52309 4.9543Q10.1595 4.08478 10.5669 3.21022Q10.9743 2.33566 10.9743 1.54541L10.9743 1.24573Q10.9743 0.67276 10.6339 0.33638Q10.2934 0 9.73404 0L1.24023 0Q0.683594 0 0.341797 0.33638Q0 0.67276 0 1.24573L0 1.54541Q0 2.33566 0.4039 3.21022Q0.8078 4.08478 1.44768 4.9543Q2.08755 5.82382 2.80998 6.61697Q3.53241 7.41013 4.16672 8.03757Q4.4426 8.31055 4.44061 8.592Q4.43863 8.87344 4.16672 9.14261Q3.53241 9.77005 2.80998 10.5667Q2.08755 11.3634 1.44768 12.2343Q0.8078 13.1052 0.4039 13.9762Q0 14.8473 0 15.6348L0 15.9637Q0 16.5341 0.341797 16.8704Q0.683594 17.2067 1.24023 17.2067Z" fill="#007aff"/>
  <path d="M5.88318 7.67197Q5.66956 7.86209 5.48851 7.86209Q5.30746 7.86209 5.09094 7.67197Q4.73328 7.36023 4.24767 6.86546Q3.76205 6.3707 3.24043 5.76294Q2.71881 5.15518 2.2506 4.50439Q1.78238 3.85361 1.46088 3.22968Q1.38321 3.0867 1.42914 2.98889Q1.47507 2.89108 1.63635 2.89108L9.33792 2.89108Q9.49493 2.89108 9.543 2.98889Q9.59106 3.0867 9.51324 3.22968Q9.18747 3.85361 8.71796 4.50439Q8.24844 5.15518 7.73026 5.76294Q7.21207 6.3707 6.72791 6.86546Q6.24374 7.36023 5.88318 7.67197Z" fill="#ffffff"/>
 </g>
</svg>
