<?xml version="1.0" encoding="UTF-8"?>
<!--Generator: Apple Native CoreSVG 175.5-->
<!DOCTYPE svg
PUBLIC "-//W3C//DTD SVG 1.1//EN"
       "http://www.w3.org/Graphics/SVG/1.1/DTD/svg11.dtd">
<svg version="1.1" xmlns="http://www.w3.org/2000/svg" xmlns:xlink="http://www.w3.org/1999/xlink" width="19.9219" height="19.9316">
 <g>
  <rect height="19.9316" opacity="0" width="19.9219" x="0" y="0"/>
  <path d="M9.96094 19.9219Q12.002 19.9219 13.8037 19.1406Q15.6055 18.3594 16.9824 16.9824Q18.3594 15.6055 19.1406 13.8037Q19.9219 12.002 19.9219 9.96094Q19.9219 7.91992 19.1406 6.11816Q18.3594 4.31641 16.9824 2.93945Q15.6055 1.5625 13.7988 0.78125Q11.9922 0 9.95117 0Q7.91016 0 6.1084 0.78125Q4.30664 1.5625 2.93457 2.93945Q1.5625 4.31641 0.78125 6.11816Q0 7.91992 0 9.96094Q0 12.002 0.78125 13.8037Q1.5625 15.6055 2.93945 16.9824Q4.31641 18.3594 6.11816 19.1406Q7.91992 19.9219 9.96094 19.9219Z" fill="#007aff"/>
  <path d="M3.60352 9.13086Q3.60352 8.91602 3.76953 8.75977L9.25781 4.16016Q9.58008 3.88672 9.9707 3.88672Q10.3613 3.88672 10.6934 4.16016L13.3105 6.35742L13.3105 5.40039Q13.3105 5.01953 13.7012 5.01953L14.2676 5.01953Q14.6582 5.01953 14.6582 5.40039L14.6582 7.49023L16.1621 8.75977Q16.3281 8.90625 16.3281 9.15039Q16.3281 9.3457 16.1914 9.46777Q16.0547 9.58984 15.8496 9.58984Q15.7324 9.58984 15.6396 9.53125Q15.5469 9.47266 15.4492 9.39453L10.2148 5Q10.0879 4.91211 9.9707 4.90723Q9.85352 4.90234 9.72656 5L4.48242 9.39453Q4.39453 9.47266 4.30176 9.53125Q4.20898 9.58984 4.0918 9.58984Q3.85742 9.58984 3.73047 9.44824Q3.60352 9.30664 3.60352 9.13086ZM5.2832 13.8672L5.2832 9.67773L9.64844 6.01562Q9.98047 5.74219 10.2832 6.01562L14.6582 9.67773L14.6582 13.8672Q14.6582 14.4141 14.3359 14.7266Q14.0137 15.0391 13.457 15.0391L6.48438 15.0391Q5.91797 15.0391 5.60059 14.7266Q5.2832 14.4141 5.2832 13.8672ZM8.60352 14.0234L11.3379 14.0234L11.3379 10.6543Q11.3379 10.2441 10.9277 10.2441L9.01367 10.2441Q8.60352 10.2441 8.60352 10.6543Z" fill="#ffffff"/>
 </g>
</svg>
