<?xml version="1.0" encoding="UTF-8"?>
<!--Generator: Apple Native CoreSVG 175-->
<!DOCTYPE svg
PUBLIC "-//W3C//DTD SVG 1.1//EN"
       "http://www.w3.org/Graphics/SVG/1.1/DTD/svg11.dtd">
<svg version="1.1" xmlns="http://www.w3.org/2000/svg" xmlns:xlink="http://www.w3.org/1999/xlink" width="21.4825" height="20.7379">
 <g>
  <rect height="20.7379" opacity="0" width="21.4825" x="0" y="0"/>
  <path d="M13.1715 18.9285L8.30826 18.9285L8.30826 12.157Q8.30826 11.8925 8.46901 11.7345Q8.62976 11.5765 8.89145 11.5765L12.5911 11.5765Q12.8555 11.5765 13.0135 11.7345Q13.1715 11.8925 13.1715 12.157ZM2.4704 17.8996Q2.4704 18.7282 2.93541 19.1891Q3.40042 19.65 4.23172 19.65L17.2914 19.65Q18.12 19.65 18.585 19.1891Q19.05 18.7282 19.05 17.8996L19.05 8.70987L11.3742 2.26959Q10.7532 1.74347 10.125 2.26959L2.4704 8.69583ZM0 8.83011Q0 8.9711 0.101547 9.07326Q0.203094 9.17542 0.375824 9.17542Q0.468445 9.17542 0.533829 9.1375Q0.599213 9.09958 0.671082 9.04572L10.327 0.94101Q10.5281 0.766449 10.7439 0.752411Q10.9598 0.738373 11.1961 0.94101L20.8168 9.04572Q20.8859 9.09958 20.9514 9.1375Q21.0168 9.17542 21.1095 9.17542Q21.2685 9.17542 21.3755 9.08066Q21.4825 8.9859 21.4825 8.83835Q21.4825 8.64609 21.3063 8.49762L11.6466 0.360565Q11.2332 0 10.7686 0Q10.304 0 9.87656 0.360565L0.171814 8.49762Q0 8.64609 0 8.83011ZM17.4496 5.64209L19.05 6.98822L19.05 2.53983Q19.05 2.34406 18.9299 2.22748Q18.8098 2.1109 18.6282 2.1109L17.8716 2.1109Q17.6926 2.1109 17.5711 2.22748Q17.4496 2.34406 17.4496 2.53983Z" fill="#ffffff"/>
 </g>
</svg>
