<?xml version="1.0" encoding="UTF-8"?>
<!--Generator: Apple Native CoreSVG 175.5-->
<!DOCTYPE svg
PUBLIC "-//W3C//DTD SVG 1.1//EN"
       "http://www.w3.org/Graphics/SVG/1.1/DTD/svg11.dtd">
<svg version="1.1" xmlns="http://www.w3.org/2000/svg" xmlns:xlink="http://www.w3.org/1999/xlink" width="17.959" height="19.0137">
 <g>
  <rect height="19.0137" opacity="0" width="17.959" x="0" y="0"/>
  <path d="M3.32031 4.58008L14.6289 4.58008Q14.0918 3.75977 13.4961 2.91992Q12.9004 2.08008 12.2656 1.23047Q11.9531 0.820312 11.6846 0.546875Q11.416 0.273438 11.0791 0.136719Q10.7422 0 10.2148 0L7.74414 0Q7.2168 0 6.875 0.136719Q6.5332 0.273438 6.26953 0.546875Q6.00586 0.820312 5.69336 1.23047Q5.05859 2.08008 4.46289 2.91992Q3.86719 3.75977 3.32031 4.58008ZM8.98438 10.0195Q9.86328 10.0195 10.5371 10.5225Q11.2109 11.0254 11.4648 11.8262L17.9199 11.8262Q17.7539 10.5957 17.1582 9.1748Q16.5625 7.75391 15.6641 6.21094L2.28516 6.21094Q1.38672 7.75391 0.795898 9.1748Q0.205078 10.5957 0.0292969 11.8262L6.49414 11.8262Q6.74805 11.0254 7.42676 10.5225Q8.10547 10.0195 8.98438 10.0195ZM8.98438 13.8086Q9.48242 13.8086 9.81934 13.4668Q10.1562 13.125 10.1562 12.627Q10.1562 12.1387 9.81934 11.792Q9.48242 11.4453 8.98438 11.4453Q8.48633 11.4453 8.14453 11.792Q7.80273 12.1387 7.80273 12.627Q7.80273 13.125 8.14453 13.4668Q8.48633 13.8086 8.98438 13.8086ZM6.61133 18.9941L11.3379 18.9941Q13.3984 18.9941 14.8291 18.3398Q16.2598 17.6855 17.041 16.4453Q17.8223 15.2051 17.959 13.457L11.4648 13.457Q11.2109 14.2383 10.5371 14.7363Q9.86328 15.2344 8.98438 15.2344Q8.10547 15.2344 7.42676 14.7363Q6.74805 14.2383 6.49414 13.457L0 13.457Q0.136719 15.2051 0.917969 16.4453Q1.69922 17.6855 3.125 18.3398Q4.55078 18.9941 6.61133 18.9941Z" fill="#ffffff"/>
 </g>
</svg>
