<?xml version="1.0" encoding="UTF-8"?>
<!--Generator: Apple Native CoreSVG 175.5-->
<!DOCTYPE svg
PUBLIC "-//W3C//DTD SVG 1.1//EN"
       "http://www.w3.org/Graphics/SVG/1.1/DTD/svg11.dtd">
<svg version="1.1" xmlns="http://www.w3.org/2000/svg" xmlns:xlink="http://www.w3.org/1999/xlink" width="15.7812" height="24.502">
 <g>
  <rect height="24.502" opacity="0" width="15.7812" x="0" y="0"/>
  <path d="M5.77148 22.5879L10.0098 22.5879Q11.9238 22.5879 13.208 21.9385Q14.4922 21.2891 15.1367 20.0635Q15.7812 18.8379 15.7812 17.1191Q15.7812 15.7715 15.0928 14.1699Q14.4043 12.5684 13.2666 10.8154Q12.1289 9.0625 10.7715 7.25586Q10.3809 6.73828 10.0195 6.45508Q9.6582 6.17188 8.94531 6.17188L6.83594 6.17188Q6.12305 6.17188 5.7666 6.45508Q5.41016 6.73828 5.00977 7.25586Q3.65234 9.0625 2.51465 10.8154Q1.37695 12.5684 0.688477 14.1699Q0 15.7715 0 17.1191Q0 18.8379 0.644531 20.0635Q1.28906 21.2891 2.57324 21.9385Q3.85742 22.5879 5.77148 22.5879ZM1.54297 17.1191Q1.54297 16.0352 2.12402 14.6875Q2.70508 13.3398 3.76465 11.6895Q4.82422 10.0391 6.26953 8.05664Q6.41602 7.86133 6.52832 7.79297Q6.64062 7.72461 6.85547 7.72461L8.92578 7.72461Q9.14062 7.72461 9.25293 7.79297Q9.36523 7.86133 9.51172 8.05664Q10.957 10.0391 12.0215 11.6895Q13.0859 13.3398 13.6621 14.6875Q14.2383 16.0352 14.2383 17.1191Q14.2383 18.9844 13.1982 20.0146Q12.1582 21.0449 10.0098 21.0449L5.77148 21.0449Q3.62305 21.0449 2.58301 20.0146Q1.54297 18.9844 1.54297 17.1191ZM3.62305 10.2148L3.32031 11.7578L12.4805 11.7578L12.1875 10.2148ZM1.06445 17.7539L6.32812 17.7539L6.32812 16.2109L1.06445 16.2109ZM7.90039 19.2383Q8.52539 19.2383 9.03809 18.9355Q9.55078 18.6328 9.84863 18.1201Q10.1465 17.6074 10.1465 16.9727Q10.1465 16.3477 9.84863 15.835Q9.55078 15.3223 9.03809 15.0195Q8.52539 14.7168 7.90039 14.7168Q7.26562 14.7168 6.75293 15.0195Q6.24023 15.3223 5.9375 15.835Q5.63477 16.3477 5.63477 16.9727Q5.63477 17.6074 5.9375 18.1201Q6.24023 18.6328 6.75293 18.9355Q7.26562 19.2383 7.90039 19.2383ZM7.90039 17.8516Q7.50977 17.8516 7.26562 17.6025Q7.02148 17.3535 7.02148 16.9727Q7.02148 16.6016 7.26562 16.3477Q7.50977 16.0938 7.90039 16.0938Q8.28125 16.0938 8.52539 16.3477Q8.76953 16.6016 8.76953 16.9727Q8.76953 17.3535 8.52539 17.6025Q8.28125 17.8516 7.90039 17.8516ZM9.46289 17.7539L14.7656 17.7539L14.7656 16.2109L9.46289 16.2109Z" fill="#ffffff"/>
  <path d="M3.1543 2.46094Q3.4375 2.25586 3.49609 1.9043Q3.55469 1.55273 3.35938 1.25977Q3.16406 0.986328 2.81738 0.917969Q2.4707 0.849609 2.16797 1.05469Q1.88477 1.25 1.81641 1.61133Q1.74805 1.97266 1.94336 2.24609Q2.14844 2.53906 2.50977 2.59766Q2.87109 2.65625 3.1543 2.46094ZM4.93164 5.01953Q5.3125 4.76562 5.39062 4.31152Q5.46875 3.85742 5.21484 3.47656Q4.95117 3.10547 4.50195 3.03223Q4.05273 2.95898 3.67188 3.21289Q3.30078 3.4668 3.21289 3.9209Q3.125 4.375 3.39844 4.75586Q3.67188 5.12695 4.11621 5.21484Q4.56055 5.30273 4.93164 5.01953ZM7.90039 1.71875Q8.26172 1.71875 8.51074 1.45996Q8.75977 1.20117 8.75977 0.869141Q8.75977 0.507812 8.50586 0.253906Q8.25195 0 7.90039 0Q7.54883 0 7.30469 0.253906Q7.06055 0.507812 7.06055 0.869141Q7.06055 1.20117 7.30469 1.45996Q7.54883 1.71875 7.90039 1.71875ZM7.90039 4.85352Q8.35938 4.85352 8.69141 4.52637Q9.02344 4.19922 9.02344 3.74023Q9.02344 3.29102 8.69141 2.95898Q8.35938 2.62695 7.90039 2.62695Q7.45117 2.62695 7.12891 2.95898Q6.80664 3.29102 6.80664 3.74023Q6.80664 4.19922 7.12891 4.52637Q7.45117 4.85352 7.90039 4.85352ZM12.6465 2.46094Q12.9395 2.65625 13.2959 2.59766Q13.6523 2.53906 13.8574 2.24609Q14.0527 1.97266 13.9893 1.61133Q13.9258 1.25 13.6328 1.05469Q13.3301 0.849609 12.9834 0.917969Q12.6367 0.986328 12.4414 1.25977Q12.2461 1.55273 12.3047 1.9043Q12.3633 2.25586 12.6465 2.46094ZM10.8691 5.01953Q11.2402 5.30273 11.6895 5.21484Q12.1387 5.12695 12.4023 4.75586Q12.6758 4.375 12.5928 3.9209Q12.5098 3.4668 12.1289 3.21289Q11.7383 2.95898 11.2939 3.03223Q10.8496 3.10547 10.5859 3.47656Q10.3223 3.85742 10.4053 4.31152Q10.4883 4.76562 10.8691 5.01953Z" fill="#007aff"/>
 </g>
</svg>
