<?xml version="1.0" encoding="UTF-8"?>
<!--Generator: Apple Native CoreSVG 175-->
<!DOCTYPE svg
PUBLIC "-//W3C//DTD SVG 1.1//EN"
       "http://www.w3.org/Graphics/SVG/1.1/DTD/svg11.dtd">
<svg version="1.1" xmlns="http://www.w3.org/2000/svg" xmlns:xlink="http://www.w3.org/1999/xlink" width="23.2031" height="22.7832">
 <g>
  <rect height="22.7832" opacity="0" width="23.2031" x="0" y="0"/>
  <path d="M14.2578 16.416L14.2578 17.1484L19.0625 17.1484Q20.3809 17.1484 21.3037 16.6504Q22.2266 16.1523 22.7148 15.2979Q23.2031 14.4434 23.2031 13.3594Q23.2031 12.0312 22.4414 10.9473Q21.6797 9.86328 20.2148 9.42383Q20.2734 7.87109 19.7949 6.55762Q19.3164 5.24414 18.4229 4.26758Q17.5293 3.29102 16.3232 2.74902Q15.1172 2.20703 13.7109 2.20703Q12.373 2.20703 11.333 2.65625Q10.293 3.10547 9.53125 3.85254Q8.76953 4.59961 8.28125 5.49805Q7.46094 5.23438 6.61133 5.37598Q5.76172 5.51758 5.04883 6.00098Q4.33594 6.48438 3.90625 7.25098Q3.47656 8.01758 3.49609 9.00391Q2.45117 9.08203 1.66504 9.60449Q0.878906 10.127 0.439453 10.9863Q0 11.8457 0 12.9199Q0 14.1113 0.541992 15.0684Q1.08398 16.0254 2.10938 16.5869Q3.13477 17.1484 4.58984 17.1484L8.71094 17.1484L8.71094 16.416L4.58008 16.416Q3.33008 16.416 2.4707 15.9521Q1.61133 15.4883 1.17188 14.6973Q0.732422 13.9062 0.732422 12.9199Q0.732422 11.5137 1.58691 10.5664Q2.44141 9.61914 3.98438 9.61914Q4.14062 9.61914 4.14062 9.45312Q4.14062 8.0957 4.77539 7.28516Q5.41016 6.47461 6.39648 6.21094Q7.38281 5.94727 8.44727 6.24023Q8.58398 6.28906 8.66211 6.17188Q9.14062 5.3125 9.8291 4.5752Q10.5176 3.83789 11.4648 3.38379Q12.4121 2.92969 13.7109 2.92969Q15.3027 2.92969 16.5723 3.69141Q17.8418 4.45312 18.6182 5.74707Q19.3945 7.04102 19.5117 8.65234Q19.5312 8.90625 19.5117 9.19434Q19.4922 9.48242 19.4922 9.76562Q19.4922 9.92188 19.6191 9.96094Q20.9473 10.293 21.709 11.2061Q22.4707 12.1191 22.4707 13.3594Q22.4707 14.6875 21.5967 15.5518Q20.7227 16.416 19.0527 16.416Z" fill="#007aff"/>
  <path d="M11.4844 22.7832Q11.5527 22.7832 11.6162 22.7588Q11.6797 22.7344 11.7383 22.666L15.3418 19.1016Q15.459 19.0039 15.459 18.8672Q15.459 18.7207 15.3564 18.6279Q15.2539 18.5352 15.127 18.5352Q14.9805 18.5352 14.8633 18.6523L12.9688 20.5469L11.8262 21.709L11.8457 20.3613L11.8457 11.3184Q11.8457 11.1719 11.7383 11.0693Q11.6309 10.9668 11.4844 10.9668Q11.3379 10.9668 11.2305 11.0693Q11.123 11.1719 11.123 11.3184L11.123 20.3613L11.1426 21.7188L9.99023 20.5469L8.08594 18.6523Q7.96875 18.5352 7.82227 18.5352Q7.68555 18.5352 7.59277 18.6279Q7.5 18.7207 7.5 18.8672Q7.5 19.0039 7.60742 19.1016L11.2207 22.666Q11.2891 22.7344 11.3477 22.7588Q11.4062 22.7832 11.4844 22.7832Z" fill="#ffffff"/>
 </g>
</svg>
