<?xml version="1.0" encoding="UTF-8"?>
<!--Generator: Apple Native CoreSVG 175.5-->
<!DOCTYPE svg
PUBLIC "-//W3C//DTD SVG 1.1//EN"
       "http://www.w3.org/Graphics/SVG/1.1/DTD/svg11.dtd">
<svg version="1.1" xmlns="http://www.w3.org/2000/svg" xmlns:xlink="http://www.w3.org/1999/xlink" width="19.9219" height="19.9316">
 <g>
  <rect height="19.9316" opacity="0" width="19.9219" x="0" y="0"/>
  <path d="M9.96094 19.9219Q12.002 19.9219 13.8037 19.1406Q15.6055 18.3594 16.9824 16.9824Q18.3594 15.6055 19.1406 13.8037Q19.9219 12.002 19.9219 9.96094Q19.9219 7.91992 19.1406 6.11816Q18.3594 4.31641 16.9824 2.93945Q15.6055 1.5625 13.7988 0.78125Q11.9922 0 9.95117 0Q7.91016 0 6.1084 0.78125Q4.30664 1.5625 2.93457 2.93945Q1.5625 4.31641 0.78125 6.11816Q0 7.91992 0 9.96094Q0 12.002 0.78125 13.8037Q1.5625 15.6055 2.93945 16.9824Q4.31641 18.3594 6.11816 19.1406Q7.91992 19.9219 9.96094 19.9219ZM9.96094 18.2617Q8.23242 18.2617 6.72852 17.6172Q5.22461 16.9727 4.08691 15.835Q2.94922 14.6973 2.30957 13.1934Q1.66992 11.6895 1.66992 9.96094Q1.66992 8.23242 2.30957 6.72852Q2.94922 5.22461 4.08203 4.08203Q5.21484 2.93945 6.71875 2.2998Q8.22266 1.66016 9.95117 1.66016Q11.6797 1.66016 13.1885 2.2998Q14.6973 2.93945 15.835 4.08203Q16.9727 5.22461 17.6172 6.72852Q18.2617 8.23242 18.2617 9.96094Q18.2617 11.6895 17.6221 13.1934Q16.9824 14.6973 15.8398 15.835Q14.6973 16.9727 13.1934 17.6172Q11.6895 18.2617 9.96094 18.2617Z" fill="#007aff"/>
  <path d="M11.1426 14.8535Q11.3867 14.8535 11.5625 14.7021Q11.7383 14.5508 11.7383 14.2871Q11.7383 14.1309 11.665 14.0039Q11.5918 13.877 11.4746 13.7793L8.59375 11.084L8.84766 11.084Q10.293 11.084 11.0303 10.3955Q11.7676 9.70703 11.9238 8.7793L12.832 8.7793Q13.0469 8.7793 13.1787 8.6377Q13.3105 8.49609 13.3105 8.30078Q13.3105 8.08594 13.1787 7.94922Q13.0469 7.8125 12.832 7.8125L11.9336 7.8125Q11.8848 7.43164 11.7432 7.09961Q11.6016 6.76758 11.3574 6.50391L12.7832 6.50391Q12.998 6.50391 13.1299 6.35742Q13.2617 6.21094 13.2617 6.01562Q13.2617 5.80078 13.1299 5.66895Q12.998 5.53711 12.7832 5.53711L10.7324 5.53711Q10.498 5.53711 10.2637 5.53711Q10.0293 5.53711 9.79492 5.53711L7.16797 5.53711Q6.93359 5.53711 6.76758 5.70312Q6.60156 5.86914 6.60156 6.11328Q6.60156 6.34766 6.76758 6.52344Q6.93359 6.69922 7.16797 6.69922L8.92578 6.69922Q9.58008 6.69922 10.0146 6.99219Q10.4492 7.28516 10.5859 7.8125L7.1582 7.8125Q6.95312 7.8125 6.81641 7.94922Q6.67969 8.08594 6.67969 8.30078Q6.67969 8.49609 6.81641 8.6377Q6.95312 8.7793 7.1582 8.7793L10.6055 8.7793Q10.4785 9.3457 10.0098 9.63379Q9.54102 9.92188 8.79883 9.92188L7.37305 9.92188Q7.07031 9.92188 6.875 10.0977Q6.67969 10.2734 6.67969 10.5859Q6.67969 10.8301 6.78223 10.9766Q6.88477 11.123 7.03125 11.2598L10.5664 14.5898Q10.8496 14.8535 11.1426 14.8535Z" fill="#ffffff"/>
 </g>
</svg>
