<?xml version="1.0" encoding="UTF-8"?>
<!--Generator: Apple Native CoreSVG 175.5-->
<!DOCTYPE svg
PUBLIC "-//W3C//DTD SVG 1.1//EN"
       "http://www.w3.org/Graphics/SVG/1.1/DTD/svg11.dtd">
<svg version="1.1" xmlns="http://www.w3.org/2000/svg" xmlns:xlink="http://www.w3.org/1999/xlink" width="25.459" height="11.6504">
 <g>
  <rect height="11.6504" opacity="0" width="25.459" x="0" y="0"/>
  <path d="M0 5.82031Q0 7.58789 0.688477 8.89648Q1.37695 10.2051 2.6123 10.9229Q3.84766 11.6406 5.46875 11.6406Q6.79688 11.6406 7.94922 11.0693Q9.10156 10.498 10.3125 9.33594L12.7344 7.01172L15.1465 9.33594Q16.3574 10.498 17.5146 11.0693Q18.6719 11.6406 19.9902 11.6406Q21.6113 11.6406 22.8467 10.9229Q24.082 10.2051 24.7705 8.89648Q25.459 7.58789 25.459 5.82031Q25.459 4.05273 24.7705 2.74414Q24.082 1.43555 22.8467 0.717773Q21.6113 0 19.9902 0Q18.6719 0 17.5146 0.571289Q16.3574 1.14258 15.1465 2.30469L12.7344 4.62891L10.3125 2.30469Q9.10156 1.14258 7.94922 0.571289Q6.79688 0 5.46875 0Q3.84766 0 2.6123 0.717773Q1.37695 1.43555 0.688477 2.74414Q0 4.05273 0 5.82031ZM1.76758 5.82031Q1.76758 4.58008 2.23633 3.67188Q2.70508 2.76367 3.54004 2.26562Q4.375 1.76758 5.46875 1.76758Q6.40625 1.76758 7.26562 2.22168Q8.125 2.67578 9.07227 3.55469L11.4941 5.82031L9.0625 8.08594Q8.125 8.96484 7.26562 9.41895Q6.40625 9.87305 5.46875 9.87305Q4.375 9.87305 3.54004 9.375Q2.70508 8.87695 2.23633 7.96387Q1.76758 7.05078 1.76758 5.82031ZM13.9648 5.82031L16.3867 3.55469Q17.334 2.67578 18.1934 2.22168Q19.0527 1.76758 19.9902 1.76758Q21.084 1.76758 21.9189 2.26562Q22.7539 2.76367 23.2227 3.67188Q23.6914 4.58008 23.6914 5.82031Q23.6914 7.05078 23.2227 7.96387Q22.7539 8.87695 21.9189 9.375Q21.084 9.87305 19.9902 9.87305Q19.0527 9.87305 18.1934 9.41895Q17.334 8.96484 16.3965 8.08594Z" fill="#ffffff"/>
 </g>
</svg>
