<?xml version="1.0" encoding="UTF-8"?>
<!--Generator: Apple Native CoreSVG 175.5-->
<!DOCTYPE svg
PUBLIC "-//W3C//DTD SVG 1.1//EN"
       "http://www.w3.org/Graphics/SVG/1.1/DTD/svg11.dtd">
<svg version="1.1" xmlns="http://www.w3.org/2000/svg" xmlns:xlink="http://www.w3.org/1999/xlink" width="23.0566" height="16.6895">
 <g>
  <rect height="16.6895" opacity="0" width="23.0566" x="0" y="0"/>
  <path d="M8.74023 13.291Q8.74023 13.5156 8.89648 13.6768Q9.05273 13.8379 9.28711 13.8379Q9.51172 13.8379 9.66797 13.6768Q9.82422 13.5156 9.82422 13.291L9.82422 11.2695Q9.82422 11.0449 9.66797 10.8887Q9.51172 10.7324 9.28711 10.7324Q9.05273 10.7324 8.89648 10.8887Q8.74023 11.0449 8.74023 11.2695ZM10.9766 13.291Q10.9766 13.5156 11.1377 13.6768Q11.2988 13.8379 11.5332 13.8379Q11.7578 13.8379 11.9141 13.6768Q12.0703 13.5156 12.0703 13.291L12.0703 11.2695Q12.0703 11.0449 11.9141 10.8887Q11.7578 10.7324 11.5332 10.7324Q11.2988 10.7324 11.1377 10.8887Q10.9766 11.0449 10.9766 11.2695ZM13.2227 13.291Q13.2227 13.5156 13.3838 13.6768Q13.5449 13.8379 13.7695 13.8379Q13.9941 13.8379 14.1553 13.6768Q14.3164 13.5156 14.3164 13.291L14.3164 11.2695Q14.3164 11.0449 14.1553 10.8887Q13.9941 10.7324 13.7695 10.7324Q13.5449 10.7324 13.3838 10.8887Q13.2227 11.0449 13.2227 11.2695ZM15.4688 13.291Q15.4688 13.5156 15.625 13.6768Q15.7812 13.8379 16.0156 13.8379Q16.2402 13.8379 16.3965 13.6768Q16.5527 13.5156 16.5527 13.291L16.5527 11.2695Q16.5527 11.0449 16.3965 10.8887Q16.2402 10.7324 16.0156 10.7324Q15.7812 10.7324 15.625 10.8887Q15.4688 11.0449 15.4688 11.2695ZM17.7148 13.291Q17.7148 13.5156 17.8711 13.6768Q18.0273 13.8379 18.2617 13.8379Q18.4863 13.8379 18.6426 13.6768Q18.7988 13.5156 18.7988 13.291L18.7988 11.2695Q18.7988 11.0449 18.6426 10.8887Q18.4863 10.7324 18.2617 10.7324Q18.0273 10.7324 17.8711 10.8887Q17.7148 11.0449 17.7148 11.2695ZM0 12.2852Q0 13.5254 0.595703 14.5264Q1.19141 15.5273 2.23633 16.1084Q3.28125 16.6895 4.63867 16.6895L18.418 16.6895Q19.7754 16.6895 20.8203 16.1084Q21.8652 15.5273 22.4609 14.5264Q23.0566 13.5254 23.0566 12.2852Q23.0566 11.7383 22.915 11.2402Q22.7734 10.7422 22.5879 10.2832L19.2969 2.38281Q18.8086 1.21094 17.8467 0.615234Q16.8848 0.0195312 15.5762 0.0195312L7.48047 0.0195312Q6.17188 0.0195312 5.20996 0.615234Q4.24805 1.21094 3.75977 2.38281L0.458984 10.2832Q0.273438 10.7422 0.136719 11.2402Q0 11.7383 0 12.2852ZM1.57227 12.2852Q1.57227 11.4844 1.95312 10.8398Q2.33398 10.1953 3.02734 9.82422Q3.7207 9.45312 4.63867 9.45312L18.418 9.45312Q19.3457 9.45312 20.0342 9.82422Q20.7227 10.1953 21.1035 10.8398Q21.4844 11.4844 21.4844 12.2852Q21.4844 13.1934 21.1035 13.8232Q20.7227 14.4531 20.0342 14.7852Q19.3457 15.1172 18.418 15.1172L4.63867 15.1172Q3.7207 15.1172 3.02734 14.7461Q2.33398 14.375 1.95312 13.7354Q1.57227 13.0957 1.57227 12.2852ZM3.1543 8.13477L5.2832 2.7832Q5.55664 2.08984 6.14258 1.73828Q6.72852 1.38672 7.55859 1.38672L15.498 1.38672Q16.3281 1.38672 16.9141 1.73828Q17.5 2.08984 17.7734 2.7832L19.9023 8.13477Q19.5605 8.00781 19.1895 7.94434Q18.8184 7.88086 18.418 7.88086L4.63867 7.88086Q4.23828 7.88086 3.86719 7.94434Q3.49609 8.00781 3.1543 8.13477Z" fill="#ffffff"/>
 </g>
</svg>
