<?xml version="1.0" encoding="UTF-8"?>
<!--Generator: Apple Native CoreSVG 175.5-->
<!DOCTYPE svg
PUBLIC "-//W3C//DTD SVG 1.1//EN"
       "http://www.w3.org/Graphics/SVG/1.1/DTD/svg11.dtd">
<svg version="1.1" xmlns="http://www.w3.org/2000/svg" xmlns:xlink="http://www.w3.org/1999/xlink" width="19.2578" height="22.0215">
 <g>
  <rect height="22.0215" opacity="0" width="19.2578" x="0" y="0"/>
  <path d="M2.93945 13.0371L2.93945 19.4238Q2.93945 20.5762 3.68652 21.2891Q4.43359 22.002 5.64453 22.002L16.5527 22.002Q17.7637 22.002 18.5107 21.2891Q19.2578 20.5762 19.2578 19.4238L19.2578 2.58789Q19.2578 1.42578 18.5107 0.712891Q17.7637 0 16.5527 0L5.64453 0Q4.43359 0 3.68652 0.712891Q2.93945 1.42578 2.93945 2.58789L2.93945 8.97461L4.51172 8.97461L4.51172 2.85156Q4.51172 2.24609 4.86328 1.90918Q5.21484 1.57227 5.84961 1.57227L16.3574 1.57227Q16.9824 1.57227 17.334 1.90918Q17.6855 2.24609 17.6855 2.85156L17.6855 19.1602Q17.6855 19.7559 17.334 20.0928Q16.9824 20.4297 16.3574 20.4297L5.84961 20.4297Q5.21484 20.4297 4.86328 20.0928Q4.51172 19.7559 4.51172 19.1602L4.51172 13.0371Z" fill="#007aff"/>
  <path d="M0.712891 11.6895L7.08984 11.6895L9.15039 11.5918L7.01172 13.5059L6.45508 14.0625Q6.36719 14.1699 6.30859 14.3018Q6.25 14.4336 6.25 14.5898Q6.25 14.8828 6.44043 15.0732Q6.63086 15.2637 6.91406 15.2637Q7.2168 15.2637 7.43164 15.0488L10.9766 11.5137Q11.2305 11.2598 11.2305 10.9961Q11.2305 10.7129 10.9766 10.4688L7.43164 6.94336Q7.2168 6.72852 6.91406 6.72852Q6.63086 6.72852 6.44043 6.91406Q6.25 7.09961 6.25 7.39258Q6.25 7.55859 6.30859 7.69043Q6.36719 7.82227 6.45508 7.91992L7.01172 8.48633L9.15039 10.3906L7.08984 10.293L0.712891 10.293Q0.380859 10.293 0.19043 10.5078Q0 10.7227 0 10.9961Q0 11.2695 0.19043 11.4795Q0.380859 11.6895 0.712891 11.6895Z" fill="#ffffff"/>
 </g>
</svg>
