<?xml version="1.0" encoding="UTF-8"?>
<!--Generator: Apple Native CoreSVG 175-->
<!DOCTYPE svg
PUBLIC "-//W3C//DTD SVG 1.1//EN"
       "http://www.w3.org/Graphics/SVG/1.1/DTD/svg11.dtd">
<svg version="1.1" xmlns="http://www.w3.org/2000/svg" xmlns:xlink="http://www.w3.org/1999/xlink" width="27.5" height="19.3457">
 <g>
  <rect height="19.3457" opacity="0" width="27.5" x="0" y="0"/>
  <path d="M8.97461 16.5332L8.97461 2.8125L18.5449 2.8125L18.5449 16.5332ZM13.7695 18.5254Q13.4766 18.5254 13.2617 18.3105Q13.0469 18.0957 13.0469 17.8027Q13.0469 17.5 13.2617 17.2949Q13.4766 17.0898 13.7695 17.0898Q14.0625 17.0898 14.2725 17.2949Q14.4824 17.5 14.4824 17.8027Q14.4824 18.0957 14.2725 18.3105Q14.0625 18.5254 13.7695 18.5254ZM12.3242 1.44531Q12.3242 1.32812 12.4023 1.25Q12.4805 1.17188 12.5977 1.17188L14.9121 1.17188Q15.0293 1.17188 15.1074 1.25Q15.1855 1.32812 15.1855 1.44531Q15.1855 1.5625 15.1074 1.63574Q15.0293 1.70898 14.9121 1.70898L12.5977 1.70898Q12.4805 1.70898 12.4023 1.63574Q12.3242 1.5625 12.3242 1.44531Z" fill="#007aff"/>
  <path d="M3.11523 15.918Q3.21289 15.8008 3.18848 15.6494Q3.16406 15.498 3.04688 15.3711Q1.95312 14.2578 1.33789 12.7979Q0.722656 11.3379 0.722656 9.66797Q0.722656 7.98828 1.33789 6.5332Q1.95312 5.07812 3.04688 3.96484Q3.16406 3.83789 3.18848 3.68652Q3.21289 3.53516 3.11523 3.41797Q3.00781 3.29102 2.84668 3.30078Q2.68555 3.31055 2.54883 3.4375Q1.35742 4.64844 0.678711 6.25Q0 7.85156 0 9.66797Q0 11.4844 0.678711 13.0811Q1.35742 14.6777 2.54883 15.8984Q2.68555 16.0254 2.84668 16.0303Q3.00781 16.0352 3.11523 15.918ZM5.73242 13.2324Q5.83008 13.1152 5.80566 12.9639Q5.78125 12.8125 5.66406 12.6953Q5.06836 12.1387 4.78027 11.3428Q4.49219 10.5469 4.49219 9.66797Q4.49219 8.78906 4.78027 7.99316Q5.06836 7.19727 5.66406 6.64062Q5.78125 6.51367 5.80566 6.36719Q5.83008 6.2207 5.73242 6.10352Q5.61523 5.97656 5.44922 5.98145Q5.2832 5.98633 5.16602 6.13281Q4.49219 6.81641 4.13086 7.72949Q3.76953 8.64258 3.76953 9.66797Q3.76953 10.6934 4.13086 11.6016Q4.49219 12.5098 5.16602 13.2031Q5.2832 13.3398 5.44922 13.3496Q5.61523 13.3594 5.73242 13.2324ZM24.3848 15.918Q24.4922 16.0352 24.6582 16.0303Q24.8242 16.0254 24.9512 15.8984Q26.1426 14.6777 26.8213 13.0811Q27.5 11.4844 27.5 9.66797Q27.5 7.85156 26.8213 6.25Q26.1426 4.64844 24.9512 3.4375Q24.8242 3.31055 24.6582 3.30078Q24.4922 3.29102 24.3848 3.41797Q24.2773 3.53516 24.3066 3.68652Q24.3359 3.83789 24.4531 3.96484Q25.5469 5.07812 26.1572 6.5332Q26.7676 7.98828 26.7676 9.66797Q26.7676 11.3379 26.1572 12.7979Q25.5469 14.2578 24.4531 15.3711Q24.3359 15.498 24.3066 15.6494Q24.2773 15.8008 24.3848 15.918ZM21.7773 13.2324Q21.8848 13.3594 22.0508 13.3496Q22.2168 13.3398 22.3438 13.2031Q23.0078 12.5098 23.374 11.6016Q23.7402 10.6934 23.7402 9.66797Q23.7402 8.64258 23.374 7.72949Q23.0078 6.81641 22.3438 6.13281Q22.2168 5.98633 22.0508 5.98145Q21.8848 5.97656 21.7773 6.10352Q21.6699 6.2207 21.6943 6.36719Q21.7188 6.51367 21.8359 6.64062Q22.4316 7.19727 22.7197 7.99316Q23.0078 8.78906 23.0078 9.66797Q23.0078 10.5469 22.7197 11.3428Q22.4316 12.1387 21.8359 12.6953Q21.7188 12.8125 21.6943 12.9639Q21.6699 13.1152 21.7773 13.2324Z" fill="#007aff"/>
  <path d="M8.24219 16.9824Q8.24219 18.125 8.85254 18.7354Q9.46289 19.3457 10.625 19.3457L16.8945 19.3457Q18.0469 19.3457 18.6572 18.7354Q19.2676 18.125 19.2676 16.9824L19.2676 2.36328Q19.2676 1.21094 18.6572 0.605469Q18.0469 0 16.8945 0L10.625 0Q9.46289 0 8.85254 0.605469Q8.24219 1.21094 8.24219 2.36328ZM8.97461 16.5332L8.97461 2.8125L18.5449 2.8125L18.5449 16.5332ZM13.7695 18.5254Q13.4766 18.5254 13.2617 18.3105Q13.0469 18.0957 13.0469 17.8027Q13.0469 17.5 13.2617 17.2949Q13.4766 17.0898 13.7695 17.0898Q14.0625 17.0898 14.2725 17.2949Q14.4824 17.5 14.4824 17.8027Q14.4824 18.0957 14.2725 18.3105Q14.0625 18.5254 13.7695 18.5254ZM12.3242 1.44531Q12.3242 1.32812 12.4023 1.25Q12.4805 1.17188 12.5977 1.17188L14.9121 1.17188Q15.0293 1.17188 15.1074 1.25Q15.1855 1.32812 15.1855 1.44531Q15.1855 1.5625 15.1074 1.63574Q15.0293 1.70898 14.9121 1.70898L12.5977 1.70898Q12.4805 1.70898 12.4023 1.63574Q12.3242 1.5625 12.3242 1.44531Z" fill="#ffffff"/>
 </g>
</svg>
