<?xml version="1.0" encoding="UTF-8"?>
<!--Generator: Apple Native CoreSVG 175-->
<!DOCTYPE svg
PUBLIC "-//W3C//DTD SVG 1.1//EN"
       "http://www.w3.org/Graphics/SVG/1.1/DTD/svg11.dtd">
<svg version="1.1" xmlns="http://www.w3.org/2000/svg" xmlns:xlink="http://www.w3.org/1999/xlink" width="19.3575" height="11.041">
 <g>
  <rect height="11.041" opacity="0" width="19.3575" x="0" y="0"/>
  <path d="M18.629 8.58627Q18.629 9.46869 18.2202 9.88647Q17.8114 10.3043 16.9371 10.3043L2.43286 10.3043Q1.55594 10.3043 1.14716 9.88647Q0.738373 9.46869 0.738373 8.58627L0.738373 7.44614Q0.738373 7.24686 0.923462 7.24686L1.04263 7.24686Q1.27502 7.24686 1.42326 7.10487Q1.5715 6.96289 1.5715 6.7305L1.5715 4.2926Q1.5715 4.06006 1.42326 3.91808Q1.27502 3.77609 1.04263 3.77609L0.923462 3.77609Q0.738373 3.77609 0.738373 3.591L0.738373 2.43942Q0.738373 1.55701 1.14716 1.13922Q1.55594 0.721436 2.43286 0.721436L16.9371 0.721436Q17.8114 0.721436 18.2202 1.13922Q18.629 1.55701 18.629 2.43942Z" fill="#007aff"/>
  <path d="M19.3575 8.64807L19.3575 2.37488Q19.3575 1.21872 18.7471 0.60936Q18.1367 0 16.9872 0L2.37579 0Q1.23322 0 0.616608 0.60936Q0 1.21872 0 2.37488L0 8.64807Q0 9.80698 0.616608 10.4164Q1.23322 11.0258 2.37579 11.0258L16.9872 11.0258Q18.1367 11.0258 18.7471 10.4164Q19.3575 9.80698 19.3575 8.64807ZM18.629 8.58627Q18.629 9.46869 18.2202 9.88647Q17.8114 10.3043 16.9371 10.3043L2.43286 10.3043Q1.55594 10.3043 1.14716 9.88647Q0.738373 9.46869 0.738373 8.58627L0.738373 7.44614Q0.738373 7.24686 0.923462 7.24686L1.04263 7.24686Q1.27502 7.24686 1.42326 7.10487Q1.5715 6.96289 1.5715 6.7305L1.5715 4.2926Q1.5715 4.06006 1.42326 3.91808Q1.27502 3.77609 1.04263 3.77609L0.923462 3.77609Q0.738373 3.77609 0.738373 3.591L0.738373 2.43942Q0.738373 1.55701 1.14716 1.13922Q1.55594 0.721436 2.43286 0.721436L16.9371 0.721436Q17.8114 0.721436 18.2202 1.13922Q18.629 1.55701 18.629 2.43942ZM7.12112 9.65897L12.2559 9.65897Q12.3738 9.65897 12.4586 9.5742Q12.5433 9.48944 12.5433 9.36172Q12.5433 9.24103 12.4586 9.15756Q12.3738 9.0741 12.2559 9.0741L7.12112 9.0741Q7.00317 9.0741 6.91841 9.15756Q6.83365 9.24103 6.83365 9.36172Q6.83365 9.48944 6.91841 9.5742Q7.00317 9.65897 7.12112 9.65897Z" fill="#ffffff"/>
 </g>
</svg>
