<?xml version="1.0" encoding="UTF-8"?>
<!--Generator: Apple Native CoreSVG 175-->
<!DOCTYPE svg
PUBLIC "-//W3C//DTD SVG 1.1//EN"
       "http://www.w3.org/Graphics/SVG/1.1/DTD/svg11.dtd">
<svg version="1.1" xmlns="http://www.w3.org/2000/svg" xmlns:xlink="http://www.w3.org/1999/xlink" width="11.9434" height="18.3011">
 <g>
  <rect height="18.3011" opacity="0" width="11.9434" x="0" y="0"/>
  <path d="M0.728607 6.54846L0.728607 2.4202Q0.728607 1.539 1.14502 1.13022Q1.56143 0.721436 2.44644 0.721436L9.50394 0.721436Q10.3864 0.721436 10.8041 1.13022Q11.2219 1.539 11.2219 2.4202L11.2219 6.54846Q11.2219 7.42538 10.8041 7.83417Q10.3864 8.24295 9.50394 8.24295L2.44644 8.24295Q1.56143 8.24295 1.14502 7.83417Q0.728607 7.42538 0.728607 6.54846ZM5.98709 16.6266Q4.99969 16.6266 4.18442 16.1475Q3.36914 15.6683 2.88513 14.8579Q2.40112 14.0475 2.40112 13.0602Q2.40112 12.0699 2.88513 11.2595Q3.36914 10.4492 4.18442 9.97009Q4.99969 9.49097 5.98709 9.49097Q6.96762 9.49097 7.77794 9.97009Q8.58826 10.4492 9.07227 11.2595Q9.55627 12.0699 9.55627 13.0602Q9.55627 14.0475 9.07227 14.8579Q8.58826 15.6683 7.77794 16.1475Q6.96762 16.6266 5.98709 16.6266ZM5.98709 15.7277Q5.23712 15.7277 4.62677 15.366Q4.01642 15.0043 3.65471 14.3974Q3.293 13.7906 3.293 13.0602Q3.293 12.327 3.65471 11.7201Q4.01642 11.1133 4.62677 10.7516Q5.23712 10.3899 5.98709 10.3899Q6.72028 10.3899 7.32361 10.7516Q7.92694 11.1133 8.28728 11.7201Q8.64761 12.327 8.64761 13.0602Q8.64761 13.7906 8.28728 14.3974Q7.92694 15.0043 7.32361 15.366Q6.72028 15.7277 5.98709 15.7277Z" fill="#007aff"/>
  <path d="M0 15.9378Q0 17.0874 0.60936 17.6942Q1.21872 18.3011 2.38205 18.3011L9.56573 18.3011Q10.7246 18.3011 11.334 17.6942Q11.9434 17.0874 11.9434 15.9378L11.9434 2.36328Q11.9434 1.21368 11.334 0.606842Q10.7246 0 9.56573 0L2.38205 0Q1.21872 0 0.60936 0.606842Q0 1.21368 0 2.36328ZM0.728607 6.54846L0.728607 2.4202Q0.728607 1.539 1.14502 1.13022Q1.56143 0.721436 2.44644 0.721436L9.50394 0.721436Q10.3864 0.721436 10.8041 1.13022Q11.2219 1.539 11.2219 2.4202L11.2219 6.54846Q11.2219 7.42538 10.8041 7.83417Q10.3864 8.24295 9.50394 8.24295L2.44644 8.24295Q1.56143 8.24295 1.14502 7.83417Q0.728607 7.42538 0.728607 6.54846ZM5.98709 16.6266Q4.99969 16.6266 4.18442 16.1475Q3.36914 15.6683 2.88513 14.8579Q2.40112 14.0475 2.40112 13.0602Q2.40112 12.0699 2.88513 11.2595Q3.36914 10.4492 4.18442 9.97009Q4.99969 9.49097 5.98709 9.49097Q6.96762 9.49097 7.77794 9.97009Q8.58826 10.4492 9.07227 11.2595Q9.55627 12.0699 9.55627 13.0602Q9.55627 14.0475 9.07227 14.8579Q8.58826 15.6683 7.77794 16.1475Q6.96762 16.6266 5.98709 16.6266ZM5.98709 15.7277Q5.23712 15.7277 4.62677 15.366Q4.01642 15.0043 3.65471 14.3974Q3.293 13.7906 3.293 13.0602Q3.293 12.327 3.65471 11.7201Q4.01642 11.1133 4.62677 10.7516Q5.23712 10.3899 5.98709 10.3899Q6.72028 10.3899 7.32361 10.7516Q7.92694 11.1133 8.28728 11.7201Q8.64761 12.327 8.64761 13.0602Q8.64761 13.7906 8.28728 14.3974Q7.92694 15.0043 7.32361 15.366Q6.72028 15.7277 5.98709 15.7277Z" fill="#ffffff"/>
 </g>
</svg>
