<?xml version="1.0" encoding="UTF-8"?>
<!--Generator: Apple Native CoreSVG 175-->
<!DOCTYPE svg
PUBLIC "-//W3C//DTD SVG 1.1//EN"
       "http://www.w3.org/Graphics/SVG/1.1/DTD/svg11.dtd">
<svg version="1.1" xmlns="http://www.w3.org/2000/svg" xmlns:xlink="http://www.w3.org/1999/xlink" width="16.0456" height="19.3457">
 <g>
  <rect height="19.3457" opacity="0" width="16.0456" x="0" y="0"/>
  <path d="M4.87305 19.3457L11.1426 19.3457Q12.2461 19.3457 12.832 18.7988Q13.418 18.252 13.4668 17.1973L13.4668 17.002L12.6758 16.2012L12.6758 16.5332L3.21289 16.5332L3.21289 6.72852L2.49023 6.01562L2.49023 16.9824Q2.49023 18.125 3.10547 18.7354Q3.7207 19.3457 4.87305 19.3457ZM8.01758 18.5254Q7.71484 18.5254 7.5 18.3105Q7.28516 18.0957 7.28516 17.8027Q7.28516 17.5 7.5 17.2949Q7.71484 17.0898 8.01758 17.0898Q8.31055 17.0898 8.51562 17.2949Q8.7207 17.5 8.7207 17.8027Q8.7207 18.0957 8.51562 18.3105Q8.31055 18.5254 8.01758 18.5254ZM13.5254 13.3789L13.5254 2.36328Q13.5254 1.21094 12.9199 0.605469Q12.3145 0 11.1426 0L4.87305 0Q3.7793 0 3.18848 0.546875Q2.59766 1.09375 2.54883 2.1582L2.54883 2.36328L3.30078 3.125L3.30078 2.8125L12.793 2.8125L12.793 12.6465ZM8.02734 1.89453Q7.8125 1.89453 7.6709 1.74805Q7.5293 1.60156 7.5293 1.39648Q7.5293 1.20117 7.6709 1.05957Q7.8125 0.917969 8.02734 0.917969Q8.22266 0.917969 8.36426 1.05957Q8.50586 1.20117 8.50586 1.39648Q8.50586 1.60156 8.36426 1.74805Q8.22266 1.89453 8.02734 1.89453Z" fill="#007aff"/>
  <path d="M15.4199 17.5977Q15.5273 17.7148 15.6738 17.71Q15.8203 17.7051 15.9277 17.5977Q16.0547 17.5 16.0449 17.3486Q16.0352 17.1973 15.9277 17.0898L0.625 1.76758Q0.517578 1.66992 0.371094 1.66016Q0.224609 1.65039 0.0976562 1.76758Q0 1.875 0 2.02637Q0 2.17773 0.0976562 2.27539Z" fill="#ffffff"/>
 </g>
</svg>
