<?xml version="1.0" encoding="UTF-8"?>
<!--Generator: Apple Native CoreSVG 175.5-->
<!DOCTYPE svg
PUBLIC "-//W3C//DTD SVG 1.1//EN"
       "http://www.w3.org/Graphics/SVG/1.1/DTD/svg11.dtd">
<svg version="1.1" xmlns="http://www.w3.org/2000/svg" xmlns:xlink="http://www.w3.org/1999/xlink" width="20.6641" height="20.459">
 <g>
  <rect height="20.459" opacity="0" width="20.6641" x="0" y="0"/>
  <path d="M7.80273 20.459L17.6074 20.459Q19.1406 20.459 19.9023 19.7021Q20.6641 18.9453 20.6641 17.4316L20.6641 7.54883Q20.6641 6.04492 19.9023 5.28809Q19.1406 4.53125 17.6074 4.53125L15.127 4.53125L15.127 6.10352L17.5781 6.10352Q18.3105 6.10352 18.7012 6.48926Q19.0918 6.875 19.0918 7.63672L19.0918 17.3535Q19.0918 18.1152 18.7012 18.501Q18.3105 18.8867 17.5781 18.8867L7.82227 18.8867Q7.09961 18.8867 6.7041 18.501Q6.30859 18.1152 6.30859 17.3535L6.30859 15.2051L4.73633 15.2051L4.73633 17.4316Q4.73633 18.9453 5.50293 19.7021Q6.26953 20.459 7.80273 20.459Z" fill="#007aff"/>
  <path d="M3.06641 15.9375L12.8711 15.9375Q14.4043 15.9375 15.166 15.1807Q15.9277 14.4238 15.9277 12.9102L15.9277 3.03711Q15.9277 1.52344 15.166 0.766602Q14.4043 0.00976562 12.8711 0.00976562L3.06641 0.00976562Q1.5332 0.00976562 0.766602 0.766602Q0 1.52344 0 3.03711L0 12.9102Q0 14.4238 0.766602 15.1807Q1.5332 15.9375 3.06641 15.9375ZM3.08594 14.3652Q2.36328 14.3652 1.96777 13.9795Q1.57227 13.5938 1.57227 12.832L1.57227 3.11523Q1.57227 2.35352 1.96777 1.96777Q2.36328 1.58203 3.08594 1.58203L12.8418 1.58203Q13.5742 1.58203 13.9648 1.96777Q14.3555 2.35352 14.3555 3.11523L14.3555 12.832Q14.3555 13.5938 13.9648 13.9795Q13.5742 14.3652 12.8418 14.3652ZM7.5 12.5488Q8.93555 12.5488 9.69238 11.8066Q10.4492 11.0645 10.4492 9.66797L10.4492 4.19922Q10.4492 3.79883 10.249 3.55957Q10.0488 3.32031 9.6582 3.32031Q9.28711 3.32031 9.08691 3.56445Q8.88672 3.80859 8.88672 4.19922L8.88672 9.64844Q8.88672 10.3809 8.53516 10.7959Q8.18359 11.2109 7.57812 11.2109Q7.03125 11.2109 6.66504 10.9473Q6.29883 10.6836 6.12305 10.2148Q5.87891 9.6875 5.40039 9.6875Q5.07812 9.6875 4.88281 9.8877Q4.6875 10.0879 4.6875 10.4102Q4.6875 10.5371 4.70215 10.6445Q4.7168 10.752 4.75586 10.8691Q5.00977 11.6309 5.75195 12.0898Q6.49414 12.5488 7.5 12.5488Z" fill="#ffffff"/>
 </g>
</svg>
