<?xml version="1.0" encoding="UTF-8"?>
<!--Generator: Apple Native CoreSVG 175-->
<!DOCTYPE svg
PUBLIC "-//W3C//DTD SVG 1.1//EN"
       "http://www.w3.org/Graphics/SVG/1.1/DTD/svg11.dtd">
<svg version="1.1" xmlns="http://www.w3.org/2000/svg" xmlns:xlink="http://www.w3.org/1999/xlink" width="17.2852" height="17.3145">
 <g>
  <rect height="17.3145" opacity="0" width="17.2852" x="0" y="0"/>
  <path d="M2.62695 17.3145L14.6484 17.3145Q15.957 17.3145 16.6211 16.6455Q17.2852 15.9766 17.2852 14.6875L17.2852 2.65625Q17.2852 1.37695 16.6211 0.703125Q15.957 0.0292969 14.6484 0.0292969L2.62695 0.0292969Q1.33789 0.0292969 0.668945 0.693359Q0 1.35742 0 2.65625L0 14.6875Q0 15.9863 0.668945 16.6504Q1.33789 17.3145 2.62695 17.3145ZM2.65625 16.5918Q1.70898 16.5918 1.2207 16.1035Q0.732422 15.6152 0.732422 14.6582L0.732422 2.69531Q0.732422 1.72852 1.2207 1.24512Q1.70898 0.761719 2.65625 0.761719L14.6289 0.761719Q15.5566 0.761719 16.0596 1.24512Q16.5625 1.72852 16.5625 2.69531L16.5625 14.6582Q16.5625 15.6152 16.0596 16.1035Q15.5566 16.5918 14.6289 16.5918Z" fill="#007aff"/>
  <path d="M8.29102 13.0664Q9.45312 13.0664 10.0928 12.3779Q10.7324 11.6895 10.7324 10.5273L10.7324 4.62891Q10.7324 4.44336 10.6348 4.33594Q10.5371 4.22852 10.3613 4.22852Q10.1953 4.22852 10.0928 4.33594Q9.99023 4.44336 9.99023 4.62891L9.99023 10.5176Q9.99023 11.3867 9.54102 11.8945Q9.0918 12.4023 8.32031 12.4023Q7.59766 12.4023 7.09473 11.9971Q6.5918 11.5918 6.50391 10.9668Q6.41602 10.6641 6.15234 10.6641Q5.98633 10.6641 5.89355 10.7617Q5.80078 10.8594 5.80078 11.0352Q5.80078 11.0938 5.81055 11.167Q5.82031 11.2402 5.83984 11.3281Q5.99609 12.0801 6.6748 12.5732Q7.35352 13.0664 8.29102 13.0664Z" fill="#ffffff"/>
 </g>
</svg>
