<?xml version="1.0" encoding="UTF-8"?>
<!--Generator: Apple Native CoreSVG 175.5-->
<!DOCTYPE svg
PUBLIC "-//W3C//DTD SVG 1.1//EN"
       "http://www.w3.org/Graphics/SVG/1.1/DTD/svg11.dtd">
<svg version="1.1" xmlns="http://www.w3.org/2000/svg" xmlns:xlink="http://www.w3.org/1999/xlink" width="24.5801" height="15.4395">
 <g>
  <rect height="15.4395" opacity="0" width="24.5801" x="0" y="0"/>
  <path d="M3.06641 15.4297L21.5137 15.4297Q23.0371 15.4297 23.8086 14.668Q24.5801 13.9062 24.5801 12.4023L24.5801 3.01758Q24.5801 1.51367 23.8086 0.756836Q23.0371 0 21.5137 0L3.06641 0Q1.5332 0 0.766602 0.756836Q0 1.51367 0 3.01758L0 12.4023Q0 13.916 0.766602 14.6729Q1.5332 15.4297 3.06641 15.4297Z" fill="#007aff"/>
  <path d="M3.58398 5.35156Q3.28125 5.35156 3.28125 5.0293L3.28125 3.89648Q3.28125 3.57422 3.58398 3.57422L4.32617 3.57422Q4.60938 3.57422 4.60938 3.89648L4.60938 5.0293Q4.60938 5.35156 4.32617 5.35156ZM5.80078 5.35156Q5.49805 5.35156 5.49805 5.0293L5.49805 3.89648Q5.49805 3.57422 5.80078 3.57422L6.5332 3.57422Q6.82617 3.57422 6.82617 3.89648L6.82617 5.0293Q6.82617 5.35156 6.5332 5.35156ZM8.00781 5.35156Q7.70508 5.35156 7.70508 5.0293L7.70508 3.89648Q7.70508 3.57422 8.00781 3.57422L8.75 3.57422Q9.0332 3.57422 9.0332 3.89648L9.0332 5.0293Q9.0332 5.35156 8.75 5.35156ZM10.2148 5.35156Q9.92188 5.35156 9.92188 5.0293L9.92188 3.89648Q9.92188 3.57422 10.2148 3.57422L10.9473 3.57422Q11.25 3.57422 11.25 3.89648L11.25 5.0293Q11.25 5.35156 10.9473 5.35156ZM12.4121 5.35156Q12.1191 5.35156 12.1191 5.0293L12.1191 3.89648Q12.1191 3.57422 12.4121 3.57422L13.1738 3.57422Q13.457 3.57422 13.457 3.89648L13.457 5.0293Q13.457 5.35156 13.1738 5.35156ZM14.6387 5.35156Q14.3359 5.35156 14.3359 5.0293L14.3359 3.89648Q14.3359 3.57422 14.6387 3.57422L15.3711 3.57422Q15.6738 3.57422 15.6738 3.89648L15.6738 5.0293Q15.6738 5.35156 15.3711 5.35156ZM3.58398 8.58398Q3.28125 8.58398 3.28125 8.26172L3.28125 7.13867Q3.28125 6.81641 3.58398 6.81641L4.32617 6.81641Q4.60938 6.81641 4.60938 7.13867L4.60938 8.26172Q4.60938 8.58398 4.32617 8.58398ZM5.80078 8.58398Q5.49805 8.58398 5.49805 8.26172L5.49805 7.13867Q5.49805 6.81641 5.80078 6.81641L6.5332 6.81641Q6.82617 6.81641 6.82617 7.13867L6.82617 8.26172Q6.82617 8.58398 6.5332 8.58398ZM8.00781 8.58398Q7.70508 8.58398 7.70508 8.26172L7.70508 7.13867Q7.70508 6.81641 8.00781 6.81641L8.75 6.81641Q9.0332 6.81641 9.0332 7.13867L9.0332 8.26172Q9.0332 8.58398 8.75 8.58398ZM10.2148 8.58398Q9.92188 8.58398 9.92188 8.26172L9.92188 7.13867Q9.92188 6.81641 10.2148 6.81641L10.9473 6.81641Q11.25 6.81641 11.25 7.13867L11.25 8.26172Q11.25 8.58398 10.9473 8.58398ZM12.4121 8.58398Q12.1191 8.58398 12.1191 8.26172L12.1191 7.13867Q12.1191 6.81641 12.4121 6.81641L13.1738 6.81641Q13.457 6.81641 13.457 7.13867L13.457 8.26172Q13.457 8.58398 13.1738 8.58398ZM14.6387 8.58398Q14.3359 8.58398 14.3359 8.26172L14.3359 7.13867Q14.3359 6.81641 14.6387 6.81641L15.3711 6.81641Q15.6738 6.81641 15.6738 7.13867L15.6738 8.26172Q15.6738 8.58398 15.3711 8.58398ZM3.58398 11.8262Q3.28125 11.8262 3.28125 11.5039L3.28125 10.3711Q3.28125 10.0488 3.58398 10.0488L4.32617 10.0488Q4.60938 10.0488 4.60938 10.3711L4.60938 11.5039Q4.60938 11.8262 4.32617 11.8262ZM5.80078 11.8262Q5.49805 11.8262 5.49805 11.5039L5.49805 10.3711Q5.49805 10.0488 5.80078 10.0488L13.1738 10.0488Q13.457 10.0488 13.457 10.3711L13.457 11.5039Q13.457 11.8262 13.1738 11.8262ZM14.6387 11.8262Q14.3359 11.8262 14.3359 11.5039L14.3359 10.3711Q14.3359 10.0488 14.6387 10.0488L15.3711 10.0488Q15.6738 10.0488 15.6738 10.3711L15.6738 11.5039Q15.6738 11.8262 15.3711 11.8262ZM17.373 7.14844L20.3223 4.3457Q20.5762 4.10156 20.9131 4.19434Q21.25 4.28711 21.25 4.6875L21.25 10.7324Q21.25 11.1426 20.9131 11.2305Q20.5762 11.3184 20.3223 11.084L17.373 8.27148Q17.0996 8.00781 17.0996 7.70996Q17.0996 7.41211 17.373 7.14844Z" fill="#ffffff"/>
 </g>
</svg>
