<?xml version="1.0" encoding="UTF-8"?>
<!--Generator: Apple Native CoreSVG 175.5-->
<!DOCTYPE svg
PUBLIC "-//W3C//DTD SVG 1.1//EN"
       "http://www.w3.org/Graphics/SVG/1.1/DTD/svg11.dtd">
<svg version="1.1" xmlns="http://www.w3.org/2000/svg" xmlns:xlink="http://www.w3.org/1999/xlink" width="19.9805" height="25.2441">
 <g>
  <rect height="25.2441" opacity="0" width="19.9805" x="0" y="0"/>
  <path d="M9.99023 17.7441Q12.334 17.7441 14.1846 17.2559Q16.0352 16.7676 17.3291 15.8984Q18.623 15.0293 19.3018 13.8916Q19.9805 12.7539 19.9805 11.4453Q19.9805 10.1465 19.3018 9.00391Q18.623 7.86133 17.3242 6.99707Q16.0254 6.13281 14.1748 5.64453Q12.3242 5.15625 9.98047 5.15625Q7.64648 5.15625 5.7959 5.64453Q3.94531 6.13281 2.65137 6.99707Q1.35742 7.86133 0.678711 9.00391Q0 10.1465 0 11.4453Q0 12.7539 0.678711 13.8916Q1.35742 15.0293 2.65137 15.8984Q3.94531 16.7676 5.7959 17.2559Q7.64648 17.7441 9.99023 17.7441ZM9.99023 22.1777Q11.7676 22.1777 12.7686 21.3867Q13.7695 20.5957 13.7695 19.1895L13.7695 18.7012Q12.8809 18.877 11.9385 18.9746Q10.9961 19.0723 9.99023 19.0723Q8.99414 19.0723 8.04688 18.9746Q7.09961 18.877 6.2207 18.7012L6.2207 19.1895Q6.2207 20.5957 7.2168 21.3867Q8.21289 22.1777 9.99023 22.1777Z" fill="#007aff"/>
  <path d="M8.65234 14.6094Q8.32031 14.6094 8.11523 14.3799Q7.91016 14.1504 7.91016 13.7891L7.91016 8.75977Q7.91016 8.38867 8.11523 8.16895Q8.32031 7.94922 8.65234 7.94922Q8.99414 7.94922 9.2041 8.16895Q9.41406 8.38867 9.41406 8.75977L9.41406 13.3008L11.7676 13.3008Q12.0605 13.3008 12.2461 13.4814Q12.4316 13.6621 12.4316 13.9551Q12.4316 14.2383 12.2461 14.4238Q12.0605 14.6094 11.7676 14.6094Z" fill="#ffffff"/>
  <path d="M7.59766 1.19141L9.55078 3.80859Q9.74609 4.08203 10.0635 4.08203Q10.3809 4.08203 10.5762 3.80859L12.5293 1.19141Q12.8223 0.800781 12.6807 0.400391Q12.5391 0 12.0215 0L8.10547 0Q7.60742 0 7.45117 0.395508Q7.29492 0.791016 7.59766 1.19141Z" fill="#ffffff"/>
 </g>
</svg>
