<?xml version="1.0" encoding="UTF-8"?>
<!--Generator: Apple Native CoreSVG 175.5-->
<!DOCTYPE svg
PUBLIC "-//W3C//DTD SVG 1.1//EN"
       "http://www.w3.org/Graphics/SVG/1.1/DTD/svg11.dtd">
<svg version="1.1" xmlns="http://www.w3.org/2000/svg" xmlns:xlink="http://www.w3.org/1999/xlink" width="24.7949" height="29.8145">
 <g>
  <rect height="29.8145" opacity="0" width="24.7949" x="0" y="0"/>
  <path d="M12.3926 27.2949Q14.4531 27.2949 16.3086 26.6699Q18.1641 26.0449 19.7119 24.9072Q21.2598 23.7695 22.3975 22.2217Q23.5352 20.6738 24.165 18.8135Q24.7949 16.9531 24.7949 14.9023Q24.7949 12.8613 24.1699 11.0107Q23.5449 9.16016 22.417 7.6123Q21.2891 6.06445 19.7461 4.92188Q18.2031 3.7793 16.3672 3.16406Q16.4258 3.58398 16.3184 3.97949Q16.2109 4.375 15.957 4.6875Q17.5488 5.23438 18.8721 6.23047Q20.1953 7.22656 21.1719 8.57422Q22.1484 9.92188 22.6855 11.5283Q23.2227 13.1348 23.2227 14.9023Q23.2227 17.1387 22.3779 19.1016Q21.5332 21.0645 20.0439 22.5537Q18.5547 24.043 16.5967 24.8828Q14.6387 25.7227 12.3926 25.7227Q10.1562 25.7227 8.19336 24.8828Q6.23047 24.043 4.74121 22.5537Q3.25195 21.0645 2.41211 19.1016Q1.57227 17.1387 1.57227 14.9023Q1.57227 13.125 2.10938 11.5186Q2.64648 9.91211 3.62305 8.56934Q4.59961 7.22656 5.93262 6.23047Q7.26562 5.23438 8.84766 4.6875Q8.59375 4.375 8.48633 3.97461Q8.37891 3.57422 8.4375 3.1543Q6.60156 3.76953 5.05859 4.90723Q3.51562 6.04492 2.38281 7.59277Q1.25 9.14062 0.625 10.9961Q0 12.8516 0 14.9023Q0 16.9531 0.625 18.8135Q1.25 20.6738 2.3877 22.2217Q3.52539 23.7695 5.07812 24.9072Q6.63086 26.0449 8.48633 26.6699Q10.3418 27.2949 12.3926 27.2949Z" fill="#007aff"/>
  <path d="M12.3926 23.4766Q14.1699 23.4766 15.7275 22.8125Q17.2852 22.1484 18.4619 20.9668Q19.6387 19.7852 20.3076 18.2324Q20.9766 16.6797 20.9766 14.9023Q20.9766 13.125 20.3076 11.5674Q19.6387 10.0098 18.4619 8.83301Q17.2852 7.65625 15.7275 6.9873Q14.1699 6.31836 12.3926 6.31836Q10.6152 6.31836 9.0625 6.9873Q7.50977 7.65625 6.32812 8.83301Q5.14648 10.0098 4.48242 11.5674Q3.81836 13.125 3.81836 14.9023Q3.81836 16.6797 4.48242 18.2324Q5.14648 19.7852 6.32812 20.9668Q7.50977 22.1484 9.0625 22.8125Q10.6152 23.4766 12.3926 23.4766ZM9.94141 2.89062Q9.63867 3.29102 9.79004 3.68652Q9.94141 4.08203 10.4492 4.08203L14.3555 4.08203Q14.8828 4.08203 15.0244 3.68164Q15.166 3.28125 14.873 2.89062L12.9199 0.273438Q12.7148 0 12.4023 0Q12.0898 0 11.8848 0.273438ZM10.6118 19.1704Q10.2407 19.1704 10.0459 18.9292Q9.85109 18.688 9.85109 18.3076L9.85109 11.201Q9.85109 10.8207 10.0459 10.5748Q10.2407 10.329 10.6118 10.329Q10.9922 10.329 11.187 10.5655Q11.3819 10.8021 11.3819 11.201L11.3819 17.9086L15.0094 17.9086Q15.297 17.9086 15.4779 18.0756Q15.6588 18.2426 15.6588 18.5395Q15.6588 18.8364 15.4779 19.0034Q15.297 19.1704 15.0094 19.1704Z" fill="#ffffff"/>
 </g>
</svg>
