<?xml version="1.0" encoding="UTF-8"?>
<!--Generator: Apple Native CoreSVG 175-->
<!DOCTYPE svg
PUBLIC "-//W3C//DTD SVG 1.1//EN"
       "http://www.w3.org/Graphics/SVG/1.1/DTD/svg11.dtd">
<svg version="1.1" xmlns="http://www.w3.org/2000/svg" xmlns:xlink="http://www.w3.org/1999/xlink" width="22.7832" height="17.3145">
 <g>
  <rect height="17.3145" opacity="0" width="22.7832" x="0" y="0"/>
  <path d="M7.59766 17.3145L15.1855 17.3145Q17.9102 17.3145 19.585 16.4697Q21.2598 15.625 22.0215 13.9453Q22.7832 12.2656 22.7832 9.77539L22.7832 2.65625Q22.7832 1.37695 22.1143 0.703125Q21.4453 0.0292969 20.1465 0.0292969L2.62695 0.0292969Q1.33789 0.0292969 0.668945 0.693359Q0 1.35742 0 2.65625L0 9.77539Q0 12.2656 0.766602 13.9453Q1.5332 15.625 3.20312 16.4697Q4.87305 17.3145 7.59766 17.3145ZM7.60742 16.582Q5.12695 16.582 3.6084 15.8203Q2.08984 15.0586 1.41113 13.5449Q0.732422 12.0312 0.732422 9.77539L0.732422 2.69531Q0.732422 0.761719 2.65625 0.761719L20.127 0.761719Q21.0449 0.761719 21.5479 1.24512Q22.0508 1.72852 22.0508 2.69531L22.0508 9.77539Q22.0508 12.0312 21.3721 13.5449Q20.6934 15.0586 19.1748 15.8203Q17.6562 16.582 15.1758 16.582Z" fill="#007aff"/>
  <path d="M7.29492 13.0859L11.9238 13.0859Q12.0801 13.0859 12.1729 12.998Q12.2656 12.9102 12.2656 12.7539Q12.2656 12.6074 12.1729 12.5195Q12.0801 12.4316 11.9238 12.4316L7.66602 12.4316L7.66602 4.74609Q7.66602 4.56055 7.56836 4.45312Q7.4707 4.3457 7.29492 4.3457Q7.11914 4.3457 7.02148 4.45312Q6.92383 4.56055 6.92383 4.74609L6.92383 12.6953Q6.92383 12.8711 7.02637 12.9785Q7.12891 13.0859 7.29492 13.0859ZM15.5664 13.2324Q15.7422 13.2324 15.8447 13.1299Q15.9473 13.0273 15.9473 12.8418L15.9473 4.77539Q15.9473 4.57031 15.8301 4.46289Q15.7129 4.35547 15.5273 4.35547Q15.3906 4.35547 15.2783 4.39941Q15.166 4.44336 15 4.55078L12.9688 5.87891Q12.793 5.99609 12.793 6.18164Q12.793 6.30859 12.8857 6.40625Q12.9785 6.50391 13.1152 6.50391Q13.1641 6.50391 13.208 6.48926Q13.252 6.47461 13.3105 6.43555L15.1562 5.24414L15.2051 5.24414L15.2051 12.8418Q15.2051 13.0273 15.3076 13.1299Q15.4102 13.2324 15.5664 13.2324Z" fill="#ffffff"/>
 </g>
</svg>
