<?xml version="1.0" encoding="UTF-8"?>
<!--Generator: Apple Native CoreSVG 175-->
<!DOCTYPE svg
PUBLIC "-//W3C//DTD SVG 1.1//EN"
       "http://www.w3.org/Graphics/SVG/1.1/DTD/svg11.dtd">
<svg version="1.1" xmlns="http://www.w3.org/2000/svg" xmlns:xlink="http://www.w3.org/1999/xlink" width="20.8591" height="21.8116">
 <g>
  <rect height="21.8116" opacity="0" width="20.8591" x="0" y="0"/>
  <path d="M5.55542 5.81059Q5.55542 6.17314 5.71503 6.414Q5.87463 6.65486 6.27304 6.86269Q7.03171 7.23378 8.13263 7.44862Q9.23355 7.66347 10.4317 7.66347Q11.6324 7.66347 12.7299 7.44862Q13.8274 7.23378 14.586 6.86269Q14.9844 6.65486 15.144 6.414Q15.3035 6.17314 15.3035 5.81059Q15.3035 4.65199 14.6731 3.7534Q14.0427 2.85481 12.9424 2.34074Q11.8422 1.82668 10.4317 1.82668Q9.01688 1.82668 7.91664 2.34074Q6.81641 2.85481 6.18591 3.7534Q5.55542 4.65199 5.55542 5.81059ZM2.34253 13.3623Q2.34253 15.7467 3.21388 17.5789Q4.08524 19.4111 5.63927 20.5113Q7.1933 21.6115 9.25079 21.8049Q9.72076 21.8424 9.90997 21.6715Q10.0992 21.5006 10.0992 21.1901L10.0992 9.88683Q10.0992 9.7498 10.1968 9.65215Q10.2945 9.55449 10.4317 9.55449Q10.5688 9.55449 10.6643 9.65215Q10.7597 9.7498 10.7597 9.88683L10.7597 21.1901Q10.7597 21.5006 10.949 21.6715Q11.1383 21.8424 11.6083 21.8049Q13.6656 21.6115 15.2197 20.5113Q16.7738 19.4111 17.6451 17.5789Q18.5164 15.7467 18.5164 13.3623Q18.5164 12.2513 18.2661 11.1338Q18.0157 10.0162 17.5708 9.05972Q17.1259 8.10323 16.5289 7.46816Q16.2965 7.22554 16.0543 7.1964Q15.8121 7.16725 15.6372 7.25636Q14.3422 7.98375 13.0106 8.2388Q11.6789 8.49385 10.4317 8.49385Q9.18015 8.49385 7.85202 8.2388Q6.5239 7.98375 5.22186 7.25636Q5.04684 7.16725 4.80469 7.1964Q4.56253 7.22554 4.33014 7.46816Q3.74023 8.10323 3.29178 9.05972Q2.84332 10.0162 2.59293 11.1338Q2.34253 12.2513 2.34253 13.3623ZM7.08282 11.6897Q6.57928 11.6897 6.22009 11.3242Q5.8609 10.9588 5.8609 10.465Q5.8609 9.96144 6.22009 9.60797Q6.57928 9.2545 7.08282 9.2545Q7.58636 9.2545 7.94342 9.60797Q8.30048 9.96144 8.30048 10.465Q8.30048 10.9658 7.94342 11.3277Q7.58636 11.6897 7.08282 11.6897ZM5.93246 15.7341Q5.34805 15.7341 4.9324 15.315Q4.51675 14.8958 4.51675 14.3017Q4.51675 13.7272 4.9324 13.3115Q5.34805 12.8959 5.93246 12.8959Q6.52115 12.8959 6.9381 13.3115Q7.35504 13.7272 7.35504 14.3017Q7.35504 14.8958 6.9381 15.315Q6.52115 15.7341 5.93246 15.7341ZM7.12341 19.0833Q6.68823 19.0833 6.38283 18.7814Q6.07742 18.4795 6.07742 18.0443Q6.07742 17.6162 6.38283 17.3072Q6.68823 16.9982 7.12341 16.9982Q7.55859 16.9982 7.86194 17.3072Q8.16528 17.6162 8.16528 18.0443Q8.16528 18.4795 7.86194 18.7814Q7.55859 19.0833 7.12341 19.0833ZM13.7833 11.6897Q13.2727 11.6897 12.9156 11.3277Q12.5586 10.9658 12.5586 10.465Q12.5586 9.96144 12.9156 9.60797Q13.2727 9.2545 13.7833 9.2545Q14.2798 9.2545 14.639 9.60797Q14.9982 9.96144 14.9982 10.465Q14.9982 10.9588 14.639 11.3242Q14.2798 11.6897 13.7833 11.6897ZM14.9266 15.7341Q14.3422 15.7341 13.923 15.315Q13.5039 14.8958 13.5039 14.3017Q13.5039 13.7272 13.923 13.3115Q14.3422 12.8959 14.9266 12.8959Q15.511 12.8959 15.9266 13.3115Q16.3422 13.7272 16.3422 14.3017Q16.3422 14.8958 15.9266 15.315Q15.511 15.7341 14.9266 15.7341ZM13.7357 19.0833Q13.3075 19.0833 13.0006 18.7814Q12.6938 18.4795 12.6938 18.0443Q12.6938 17.6162 13.0006 17.3072Q13.3075 16.9982 13.7357 16.9982Q14.1707 16.9982 14.4762 17.3072Q14.7816 17.6162 14.7816 18.0443Q14.7816 18.4795 14.4762 18.7814Q14.1707 19.0833 13.7357 19.0833ZM5.87463 0.70958L6.9957 1.27705Q7.29416 1.4127 7.40356 1.60603Q7.51297 1.79936 7.46841 2.07433L7.35123 2.76921L8.04138 2.76646L8.15201 2.12087Q8.23715 1.62587 8.01895 1.27492Q7.80075 0.923966 7.28912 0.670059L6.15204 0.0693209Q5.98755-0.0084989 5.86372 0.0549777Q5.7399 0.118454 5.68581 0.247772Q5.63171 0.377091 5.6723 0.510681Q5.71289 0.644272 5.87463 0.70958ZM14.9844 0.70958Q15.1462 0.644272 15.1868 0.510681Q15.2274 0.377091 15.1733 0.247772Q15.1192 0.118454 14.9953 0.0549777Q14.8715-0.0084989 14.707 0.0693209L13.5699 0.670059Q13.0582 0.923966 12.8387 1.27492Q12.6192 1.62587 12.7071 2.12087L12.8175 2.76646L13.5078 2.76921L13.3907 2.07433Q13.3531 1.79936 13.4625 1.60603Q13.5719 1.4127 13.8634 1.27705ZM4.40399 7.78996L2.54532 6.27782Q2.40555 6.16307 2.24281 6.16734Q2.08008 6.17162 1.96091 6.30879Q1.85593 6.4626 1.88911 6.61481Q1.9223 6.76701 2.05933 6.88603L3.95859 8.429ZM2.67578 12.5638L0.392914 12.5498Q0.214539 12.5498 0.107269 12.6564Q0 12.7631 0 12.9361Q0 13.1205 0.110779 13.2236Q0.221558 13.3268 0.409851 13.3268L2.67578 13.331ZM3.75504 18.2557L1.93588 19.7228Q1.79184 19.849 1.76353 19.9941Q1.73523 20.1392 1.86127 20.2834Q1.9664 20.4302 2.12563 20.4345Q2.28485 20.4389 2.43164 20.317L4.22852 18.8709ZM16.4551 7.78996L16.9005 8.429L18.7996 6.88603Q18.9368 6.76701 18.9686 6.61481Q19.0004 6.4626 18.8982 6.30879Q18.786 6.17162 18.6198 6.16734Q18.4535 6.16307 18.3138 6.27782ZM18.1903 12.5638L18.1903 13.331L20.4492 13.3268Q20.6445 13.3268 20.7518 13.2236Q20.8591 13.1205 20.8591 12.9361Q20.8591 12.7631 20.7518 12.6564Q20.6445 12.5498 20.466 12.5498ZM17.1039 18.2557L16.6278 18.8709L18.4274 20.317Q18.5742 20.4389 18.7334 20.4345Q18.8927 20.4302 19.0047 20.2834Q19.1238 20.1392 19.099 19.9941Q19.0742 19.849 18.9275 19.7228Z" fill="#ffffff"/>
 </g>
</svg>
