<?xml version="1.0" encoding="UTF-8"?>
<!--Generator: Apple Native CoreSVG 175.5-->
<!DOCTYPE svg
PUBLIC "-//W3C//DTD SVG 1.1//EN"
       "http://www.w3.org/Graphics/SVG/1.1/DTD/svg11.dtd">
<svg version="1.1" xmlns="http://www.w3.org/2000/svg" xmlns:xlink="http://www.w3.org/1999/xlink" width="22.6074" height="20.8496">
 <g>
  <rect height="20.8496" opacity="0" width="22.6074" x="0" y="0"/>
  <path d="M0 10.6836L0 9.20898L4.14062 9.20898L4.14062 8.95508Q4.14062 7.88086 5.21484 7.88086L7.63672 7.88086Q8.7207 7.88086 8.7207 8.95508L8.7207 9.20898L13.877 9.20898L13.877 8.95508Q13.877 7.88086 14.9609 7.88086L17.3828 7.88086Q18.4668 7.88086 18.4668 8.95508L18.4668 9.20898L22.6074 9.20898L22.6074 10.6836L18.4668 10.6836L18.4668 10.957Q18.4668 12.0215 17.3828 12.0215L14.9609 12.0215Q13.877 12.0215 13.877 10.957L13.877 10.6836L8.7207 10.6836L8.7207 10.957Q8.7207 12.0215 7.63672 12.0215L5.21484 12.0215Q4.14062 12.0215 4.14062 10.957L4.14062 10.6836ZM3.01758 18.9258L19.5898 18.9258Q21.1035 18.9258 21.8555 18.1836Q22.6074 17.4414 22.6074 15.9473L22.6074 6.44531Q22.6074 4.94141 21.8555 4.2041Q21.1035 3.4668 19.5898 3.4668L3.01758 3.4668Q1.51367 3.4668 0.756836 4.2041Q0 4.94141 0 6.44531L0 15.9473Q0 17.4414 0.756836 18.1836Q1.51367 18.9258 3.01758 18.9258ZM6.34766 4.31641L7.86133 4.31641L7.86133 2.58789Q7.86133 2.03125 8.17383 1.72852Q8.48633 1.42578 9.0625 1.42578L13.5449 1.42578Q14.1113 1.42578 14.4238 1.72852Q14.7363 2.03125 14.7363 2.58789L14.7363 4.29688L16.25 4.29688L16.25 2.69531Q16.25 1.31836 15.5469 0.65918Q14.8438 0 13.5156 0L9.08203 0Q7.83203 0 7.08984 0.65918Q6.34766 1.31836 6.34766 2.69531Z" fill="#ffffff"/>
 </g>
</svg>
