<?xml version="1.0" encoding="UTF-8"?>
<!--Generator: Apple Native CoreSVG 175.5-->
<!DOCTYPE svg
PUBLIC "-//W3C//DTD SVG 1.1//EN"
       "http://www.w3.org/Graphics/SVG/1.1/DTD/svg11.dtd">
<svg version="1.1" xmlns="http://www.w3.org/2000/svg" xmlns:xlink="http://www.w3.org/1999/xlink" width="10.0946" height="21.3297">
 <g>
  <rect height="21.3297" opacity="0" width="10.0946" x="0" y="0"/>
  <path d="M6.87322 19.6443Q6.44354 19.6053 5.96502 19.7176Q5.48651 19.8299 5.12518 20.0447Q4.78338 20.2401 5.06658 20.5037Q5.39862 20.8065 5.86248 21.0115Q6.32635 21.2166 6.75604 21.2459Q7.19549 21.3045 7.68865 21.1776Q8.18182 21.0506 8.54315 20.7772Q8.79705 20.5916 8.56268 20.367Q8.24041 20.0643 7.77654 19.869Q7.31268 19.6736 6.87322 19.6443ZM8.92401 16.3436Q8.68963 16.7049 8.56268 17.1883Q8.43572 17.6717 8.45526 18.0916Q8.48455 18.5408 8.67498 19.0096Q8.86541 19.4783 9.14862 19.7908Q9.35369 20.035 9.55877 19.7811Q9.84197 19.4393 9.98358 18.951Q10.1252 18.4627 10.0861 18.0135Q10.0568 17.5838 9.86151 17.1199Q9.66619 16.6561 9.37322 16.324Q9.12908 16.0311 8.92401 16.3436ZM4.11932 16.9979Q3.70916 16.8514 3.21112 16.8367Q2.71307 16.8221 2.30291 16.949Q1.95135 17.0565 2.14666 17.3787Q2.38104 17.7596 2.77654 18.0721Q3.17205 18.3846 3.58221 18.5311Q3.99237 18.6971 4.50018 18.6971Q5.00799 18.6971 5.42791 18.5213Q5.73065 18.4139 5.55487 18.1307Q5.32049 17.7498 4.92498 17.4422Q4.52947 17.1346 4.11932 16.9979ZM6.93182 14.3416Q6.60955 14.6248 6.37029 15.0594Q6.13104 15.494 6.04315 15.9041Q5.95526 16.3436 6.01385 16.8416Q6.07244 17.3397 6.26776 17.7205Q6.39471 18.0135 6.66815 17.8182Q7.01971 17.5643 7.28338 17.1297Q7.54705 16.6951 7.61541 16.2361Q7.7033 15.8162 7.63494 15.3182Q7.56658 14.8201 7.37127 14.4197Q7.21502 14.0682 6.93182 14.3416ZM0.00799006 13.2186Q0.0665838 13.6483 0.300959 14.1024Q0.535334 14.5565 0.847834 14.8592Q1.15057 15.1815 1.61444 15.3817Q2.0783 15.5818 2.53729 15.6014Q2.84979 15.6209 2.81072 15.2889Q2.74237 14.8397 2.50311 14.4002Q2.26385 13.9608 1.95135 13.6776Q1.63885 13.3748 1.18963 13.16Q0.740412 12.9451 0.32049 12.8963Q-0.0506037 12.8572 0.00799006 13.2186ZM5.60369 12.3787Q5.2033 12.5154 4.80291 12.8133Q4.40252 13.1111 4.15838 13.4529Q3.89471 13.7947 3.75311 14.2733Q3.61151 14.7518 3.62127 15.2108Q3.65057 15.5233 3.96307 15.4647Q4.40252 15.3572 4.82244 15.0692Q5.24237 14.7811 5.47674 14.4002Q5.72088 14.0291 5.86248 13.5457Q6.00408 13.0623 5.97479 12.6326Q5.97479 12.242 5.60369 12.3787ZM3.97283 10.0936Q3.63104 10.367 3.36737 10.8016Q3.10369 11.2361 3.0158 11.6658Q2.95721 11.9783 3.26971 11.9881Q3.71893 11.9979 4.20233 11.8221Q4.68572 11.6463 5.00799 11.3533Q5.34002 11.0701 5.60369 10.6356Q5.86737 10.201 5.96502 9.7713Q6.02362 9.40997 5.66229 9.41974Q5.22283 9.4588 4.75897 9.63947Q4.2951 9.82013 3.97283 10.0936ZM0.0177557 8.81427Q-0.0310724 9.24396 0.0812322 9.73712Q0.193537 10.2303 0.427912 10.6111Q0.642756 11.0018 1.03826 11.3192Q1.43377 11.6365 1.86346 11.7537Q2.17596 11.8514 2.21502 11.5193Q2.26385 11.0994 2.14666 10.6111Q2.02947 10.1229 1.7951 9.74201Q1.56072 9.37091 1.17987 9.05353Q0.799006 8.73615 0.408381 8.5799Q0.0568182 8.42365 0.0177557 8.81427ZM4.50994 6.81232Q4.09002 6.9588 3.69451 7.26642Q3.29901 7.57404 3.06463 7.9549Q2.88885 8.21857 3.19158 8.35529Q3.60174 8.53107 4.10955 8.52619Q4.61737 8.5213 5.03729 8.35529Q5.46697 8.18927 5.86248 7.86701Q6.25799 7.54474 6.47283 7.17365Q6.66815 6.88068 6.31658 6.76349Q5.89666 6.6463 5.39862 6.65607Q4.90057 6.66583 4.50994 6.81232ZM1.22869 4.25372Q1.04315 4.65412 0.974787 5.15704Q0.906428 5.65997 0.984553 6.0799Q1.07244 6.52912 1.33612 6.9588Q1.59979 7.38849 1.96112 7.65216Q2.20526 7.83771 2.36151 7.54474Q2.55682 7.16388 2.61541 6.66583Q2.67401 6.16779 2.57635 5.7381Q2.48846 5.31818 2.23944 4.88361Q1.99041 4.44904 1.67791 4.15607Q1.40447 3.92169 1.22869 4.25372ZM6.27752 3.99982Q5.84783 4.07794 5.41326 4.33185Q4.97869 4.58576 4.70526 4.92755Q4.50994 5.16193 4.77362 5.33771Q5.16424 5.56232 5.66717 5.63068Q6.1701 5.69904 6.59979 5.58185Q7.03924 5.48419 7.46893 5.2254Q7.89862 4.96662 8.18182 4.64435Q8.42596 4.36115 8.08416 4.2049Q7.69354 4.02912 7.20037 3.97052Q6.70721 3.91193 6.27752 3.99982ZM3.39666 0.992006Q3.15252 1.3631 3.0158 1.85626Q2.87908 2.34943 2.90838 2.76935Q2.91815 3.2088 3.11834 3.67755Q3.31854 4.1463 3.6408 4.46857Q3.88494 4.69318 4.06072 4.42951Q4.30487 4.05841 4.4367 3.57013Q4.56854 3.08185 4.52947 2.65216Q4.50018 2.23224 4.31463 1.77326Q4.12908 1.31427 3.85565 0.972475Q3.61151 0.689271 3.39666 0.992006ZM8.43572 0.00567769Q8.00604 0.0740371 7.5617 0.303529Q7.11737 0.533021 6.81463 0.835756Q6.50213 1.13849 6.2824 1.59259Q6.06268 2.04669 6.01385 2.47638Q5.98455 2.78888 6.29705 2.77912Q6.73651 2.74982 7.19549 2.53497Q7.65447 2.32013 7.96697 1.97833Q8.25994 1.6756 8.47967 1.2215Q8.6994 0.767396 8.76776 0.327943Q8.80682-0.0431504 8.43572 0.00567769Z" fill="#ffffff"/>
 </g>
</svg>
