<?xml version="1.0" encoding="UTF-8"?>
<!--Generator: Apple Native CoreSVG 175.5-->
<!DOCTYPE svg
PUBLIC "-//W3C//DTD SVG 1.1//EN"
       "http://www.w3.org/Graphics/SVG/1.1/DTD/svg11.dtd">
<svg version="1.1" xmlns="http://www.w3.org/2000/svg" xmlns:xlink="http://www.w3.org/1999/xlink" width="20.6934" height="18.5254">
 <g>
  <rect height="18.5254" opacity="0" width="20.6934" x="0" y="0"/>
  <path d="M0 4.4043Q0 7.13867 0.78125 9.36035Q1.5625 11.582 3.02246 13.1738Q4.48242 14.7656 6.52344 15.6201Q8.56445 16.4746 11.084 16.4746Q12.8418 16.4746 14.3066 15.9375Q15.7715 15.4004 16.8408 14.4238Q17.9102 13.4473 18.501 12.1094Q19.0918 10.7715 19.0918 9.16992Q19.0918 7.62695 18.501 6.33301Q17.9102 5.03906 16.8408 4.08691Q15.7715 3.13477 14.3115 2.6123Q12.8516 2.08984 11.123 2.08984Q9.92188 2.08984 8.69629 2.31445Q7.4707 2.53906 6.13281 2.53906Q5 2.53906 4.0332 2.1582Q3.06641 1.77734 2.25586 0.859375Q1.97266 0.527344 1.5625 0.419922Q1.15234 0.3125 0.791016 0.507812Q0.429688 0.703125 0.292969 1.25977Q0.175781 1.73828 0.112305 2.37305Q0.0488281 3.00781 0.0244141 3.57422Q0 4.14062 0 4.4043ZM1.47461 4.4043Q1.47461 3.91602 1.48926 3.4082Q1.50391 2.90039 1.57227 2.50977Q1.60156 2.31445 1.74805 2.45117Q2.56836 3.20312 3.75977 3.6084Q4.95117 4.01367 6.13281 4.01367Q6.92383 4.01367 7.6416 3.93066Q8.35938 3.84766 9.00391 3.75977Q9.58984 3.68164 10.1074 3.62305Q10.625 3.56445 11.123 3.56445Q13.0273 3.56445 14.4922 4.28223Q15.957 5 16.7871 6.26465Q17.6172 7.5293 17.6172 9.16992Q17.6172 10.8887 16.7871 12.2021Q15.957 13.5156 14.4873 14.2578Q13.0176 15 11.084 15Q8.87695 15 7.10449 14.2578Q5.33203 13.5156 4.07227 12.1289Q2.8125 10.7422 2.14355 8.78906Q1.47461 6.83594 1.47461 4.4043ZM5.71289 6.67969Q6.01562 7.62695 6.7041 8.2373Q7.39258 8.84766 8.35938 9.23828Q9.32617 9.62891 10.4785 9.91211Q11.7188 10.2051 12.6562 10.498Q13.5938 10.791 14.3018 11.1328Q15.0098 11.4746 15.5713 11.9287Q16.1328 12.3828 16.6309 13.0078Q17.1777 13.6816 17.4951 14.4434Q17.8125 15.2051 18.0469 16.0645Q18.2812 16.9238 18.584 17.8906Q18.7012 18.2422 18.9209 18.3838Q19.1406 18.5254 19.3945 18.5254Q19.9316 18.5254 20.3125 18.0859Q20.6934 17.6465 20.6934 17.041Q20.6934 16.5332 20.4443 15.8789Q20.1953 15.2246 19.7998 14.5215Q19.4043 13.8184 18.96 13.1494Q18.5156 12.4805 18.1348 11.9629Q17.1484 10.6543 15.4102 9.86328Q13.6719 9.07227 10.9766 8.63281Q10.0488 8.47656 9.2041 8.22754Q8.35938 7.97852 7.6416 7.53906Q6.92383 7.09961 6.35742 6.36719Q6.20117 6.15234 6.02539 6.15723Q5.84961 6.16211 5.74219 6.30859Q5.63477 6.45508 5.71289 6.67969Z" fill="#ffffff"/>
 </g>
</svg>
