<?xml version="1.0" encoding="UTF-8"?>
<!--Generator: Apple Native CoreSVG 175.5-->
<!DOCTYPE svg
PUBLIC "-//W3C//DTD SVG 1.1//EN"
       "http://www.w3.org/Graphics/SVG/1.1/DTD/svg11.dtd">
<svg version="1.1" xmlns="http://www.w3.org/2000/svg" xmlns:xlink="http://www.w3.org/1999/xlink" width="22.9838" height="22.0215">
 <g>
  <rect height="22.0215" opacity="0" width="22.9838" x="0" y="0"/>
  <path d="M0.949471 7.7832Q0.226815 8.20312 0.0510333 8.82812Q-0.124748 9.45312 0.30494 10.1855L1.71119 12.627Q2.01392 13.1445 2.42896 13.3545Q2.844 13.5645 3.35181 13.5645L10.51 13.5645L6.17408 16.0742Q5.45142 16.4941 5.28541 17.1143Q5.11939 17.7344 5.52955 18.457L6.9358 20.9082Q7.36549 21.6406 7.9856 21.8018Q8.60572 21.9629 9.32838 21.543L22.0432 14.2188Q22.7561 13.7988 22.9319 13.1738Q23.1077 12.5488 22.6878 11.8164L21.2717 9.375Q20.9885 8.87695 20.5833 8.65723Q20.178 8.4375 19.6799 8.4375L12.4631 8.4375L16.8088 5.92773Q17.5315 5.50781 17.6975 4.8877Q17.8635 4.26758 17.4534 3.54492L16.0471 1.09375Q15.6174 0.351562 14.9973 0.195312Q14.3772 0.0390625 13.6643 0.458984ZM1.67213 8.81836L14.2014 1.5918Q14.4456 1.44531 14.6555 1.50879Q14.8655 1.57227 15.0217 1.83594L16.3206 4.0625Q16.467 4.31641 16.4036 4.53613Q16.3401 4.75586 16.0862 4.90234L3.57642 12.1191Q3.33228 12.2656 3.10767 12.207Q2.88306 12.1484 2.73658 11.8848L1.45728 9.67773Q1.3108 9.41406 1.36451 9.18945Q1.41822 8.96484 1.67213 8.81836ZM5.79322 12.3047L10.2854 9.69727L17.1702 9.69727L12.6878 12.3047ZM6.89674 17.0996L19.4065 9.87305Q19.6506 9.72656 19.8753 9.79004Q20.0999 9.85352 20.2463 10.1074L21.5256 12.3242Q21.6721 12.5879 21.6233 12.8125Q21.5745 13.0371 21.3108 13.1836L8.79127 20.4004Q8.53736 20.5469 8.3274 20.4883Q8.11744 20.4297 7.96119 20.166L6.67213 17.9297Q6.51588 17.6855 6.57935 17.4658Q6.64283 17.2461 6.89674 17.0996ZM15.2659 1.01562L15.8128 1.97266L17.4631 1.01562Q17.6585 0.898438 17.7219 0.688477Q17.7854 0.478516 17.6585 0.273438Q17.551 0.078125 17.3362 0.0195312Q17.1213-0.0390625 16.9163 0.078125ZM16.5842 3.30078L17.1409 4.25781L18.7717 3.31055Q18.9963 3.18359 19.0501 2.9834Q19.1038 2.7832 18.967 2.55859Q18.8596 2.34375 18.6448 2.29004Q18.4299 2.23633 18.2249 2.35352ZM13.1077 4.41406Q13.2542 4.6875 13.552 4.77051Q13.8499 4.85352 14.1233 4.70703Q14.3967 4.54102 14.4797 4.23828Q14.5628 3.93555 14.4065 3.66211Q14.2405 3.38867 13.9426 3.31055Q13.6448 3.23242 13.3811 3.37891Q13.1077 3.55469 13.0295 3.85254Q12.9514 4.15039 13.1077 4.41406ZM10.676 5.82031Q10.8225 6.09375 11.1155 6.17676Q11.4085 6.25977 11.6819 6.11328Q11.9651 5.94727 12.053 5.64941Q12.1409 5.35156 11.9651 5.08789Q11.8186 4.80469 11.5159 4.72656Q11.2131 4.64844 10.9397 4.80469Q10.6663 4.9707 10.593 5.25879Q10.5198 5.54688 10.676 5.82031ZM8.22486 7.24609Q8.38111 7.50977 8.68873 7.58789Q8.99635 7.66602 9.26002 7.51953Q9.52369 7.35352 9.6067 7.05078Q9.68971 6.74805 9.53346 6.49414Q9.37721 6.21094 9.07447 6.13281Q8.77174 6.05469 8.51783 6.20117Q8.23463 6.36719 8.15162 6.66504Q8.06861 6.96289 8.22486 7.24609ZM5.78346 8.65234Q5.94947 8.91602 6.25221 8.99414Q6.55494 9.07227 6.82838 8.92578Q7.10181 8.76953 7.17994 8.46191Q7.25806 8.1543 7.08228 7.90039Q6.94556 7.61719 6.64283 7.53418Q6.3401 7.45117 6.06666 7.61719Q5.80299 7.76367 5.7151 8.07129Q5.62721 8.37891 5.78346 8.65234ZM3.35181 10.0586Q3.50806 10.332 3.80592 10.4053Q4.10377 10.4785 4.39674 10.332Q4.65064 10.166 4.72877 9.86816Q4.80689 9.57031 4.66041 9.30664Q4.50416 9.02344 4.20631 8.94531Q3.90846 8.86719 3.63502 9.01367Q3.35181 9.16992 3.27369 9.47754Q3.19556 9.78516 3.35181 10.0586ZM7.71705 20.9863L7.17017 20.0195L5.51978 20.9863Q5.32447 21.1035 5.26099 21.3135Q5.19752 21.5234 5.32447 21.7285Q5.43189 21.9238 5.65162 21.9775Q5.87135 22.0312 6.06666 21.9238ZM6.40846 18.7012L5.84205 17.7441L4.21119 18.6816Q3.98658 18.8086 3.93287 19.0137Q3.87916 19.2188 4.01588 19.4434Q4.1233 19.6484 4.33814 19.707Q4.55299 19.7656 4.75806 19.6484ZM18.3225 12.6953Q18.4788 12.9785 18.7766 13.0566Q19.0745 13.1348 19.3479 12.9785Q19.6311 12.832 19.7092 12.5244Q19.7874 12.2168 19.6311 11.9434Q19.4749 11.6699 19.177 11.5918Q18.8792 11.5137 18.5862 11.6699Q18.3323 11.8262 18.2542 12.1289Q18.176 12.4316 18.3225 12.6953ZM15.9104 14.1016Q16.0374 14.3848 16.3401 14.4629Q16.6428 14.541 16.926 14.3848Q17.1897 14.2383 17.2727 13.9307Q17.3557 13.623 17.1995 13.3496Q17.0335 13.0859 16.7307 13.0029Q16.428 12.9199 16.1643 13.0762Q15.8909 13.2324 15.8079 13.54Q15.7249 13.8477 15.9104 14.1016ZM13.4495 15.5078Q13.6155 15.7812 13.9182 15.8643Q14.221 15.9473 14.4651 15.791Q14.7483 15.6348 14.8313 15.332Q14.9143 15.0293 14.7581 14.7559Q14.6018 14.4922 14.2942 14.4141Q13.9866 14.3359 13.7229 14.4824Q13.4592 14.6484 13.3762 14.9463Q13.2932 15.2441 13.4495 15.5078ZM11.0178 16.9043Q11.1643 17.1973 11.4719 17.2754Q11.7795 17.3535 12.0432 17.1973Q12.3264 17.0312 12.3997 16.7383Q12.4729 16.4453 12.3069 16.1816Q12.1604 15.9082 11.8674 15.8252Q11.5745 15.7422 11.301 15.8887Q11.0178 16.0547 10.9299 16.3525Q10.842 16.6504 11.0178 16.9043ZM8.57642 18.3398Q8.74244 18.6035 9.04029 18.6865Q9.33814 18.7695 9.60181 18.623Q9.88502 18.4473 9.95826 18.1494Q10.0315 17.8516 9.87525 17.5781Q9.72877 17.3047 9.43092 17.2266Q9.13306 17.1484 8.85963 17.2949Q8.58619 17.4609 8.50318 17.7637Q8.42017 18.0664 8.57642 18.3398Z" fill="#ffffff"/>
 </g>
</svg>
