<?xml version="1.0" encoding="UTF-8"?>
<!--Generator: Apple Native CoreSVG 175.5-->
<!DOCTYPE svg
PUBLIC "-//W3C//DTD SVG 1.1//EN"
       "http://www.w3.org/Graphics/SVG/1.1/DTD/svg11.dtd">
<svg version="1.1" xmlns="http://www.w3.org/2000/svg" xmlns:xlink="http://www.w3.org/1999/xlink" width="24.0039" height="18.2715">
 <g>
  <rect height="18.2715" opacity="0" width="24.0039" x="0" y="0"/>
  <path d="M3.06641 18.2617L20.9375 18.2617Q22.4707 18.2617 23.2373 17.5049Q24.0039 16.748 24.0039 15.2344L24.0039 3.02734Q24.0039 1.51367 23.2373 0.756836Q22.4707 0 20.9375 0L3.06641 0Q1.5332 0 0.766602 0.756836Q0 1.51367 0 3.02734L0 15.2344Q0 16.748 0.766602 17.5049Q1.5332 18.2617 3.06641 18.2617ZM3.08594 16.6895Q2.35352 16.6895 1.96289 16.2988Q1.57227 15.9082 1.57227 15.1562L1.57227 3.10547Q1.57227 2.34375 1.96289 1.95801Q2.35352 1.57227 3.08594 1.57227L20.918 1.57227Q21.6406 1.57227 22.0361 1.95801Q22.4316 2.34375 22.4316 3.10547L22.4316 15.1562Q22.4316 15.9082 22.0361 16.2988Q21.6406 16.6895 20.918 16.6895Z" fill="#007aff"/>
  <path d="M3.75977 15.3516L20.2441 15.3516Q21.1035 15.3516 21.1035 14.4824L21.1035 3.7793Q21.1035 2.90039 20.2441 2.90039L3.75977 2.90039Q2.91016 2.90039 2.91016 3.7793L2.91016 14.4824Q2.91016 15.3516 3.75977 15.3516ZM4.45312 14.0723Q4.31641 14.0723 4.25293 14.0088Q4.18945 13.9453 4.18945 13.8086L4.18945 4.45312Q4.18945 4.31641 4.25293 4.24805Q4.31641 4.17969 4.45312 4.17969L19.5508 4.17969Q19.6875 4.17969 19.7559 4.24805Q19.8242 4.31641 19.8242 4.45312L19.8242 13.8086Q19.8242 13.9453 19.7559 14.0088Q19.6875 14.0723 19.5508 14.0723Z" fill="#ffffff"/>
 </g>
</svg>
