<?xml version="1.0" encoding="UTF-8"?>
<!--Generator: Apple Native CoreSVG 175.5-->
<!DOCTYPE svg
PUBLIC "-//W3C//DTD SVG 1.1//EN"
       "http://www.w3.org/Graphics/SVG/1.1/DTD/svg11.dtd">
<svg version="1.1" xmlns="http://www.w3.org/2000/svg" xmlns:xlink="http://www.w3.org/1999/xlink" width="13.0664" height="23.3301">
 <g>
  <rect height="23.3301" opacity="0" width="13.0664" x="0" y="0"/>
  <path d="M3.44727 19.8926L9.62891 19.8926Q9.86328 19.8926 10.0293 19.7266Q10.1953 19.5605 10.1953 19.3164Q10.1953 19.082 10.0293 18.916Q9.86328 18.75 9.62891 18.75L3.44727 18.75Q3.20312 18.75 3.03711 18.916Q2.87109 19.082 2.87109 19.3164Q2.87109 19.5605 3.03711 19.7266Q3.20312 19.8926 3.44727 19.8926ZM6.5332 22.7246Q7.66602 22.7246 8.50098 22.2119Q9.33594 21.6992 9.4043 20.8594L3.67188 20.8594Q3.7207 21.6992 4.55566 22.2119Q5.39062 22.7246 6.5332 22.7246Z" fill="#007aff"/>
  <path d="M2.87109 17.207Q2.89062 17.4707 3.04199 17.627Q3.19336 17.7832 3.47656 17.7832L9.58984 17.7832Q9.87305 17.7832 10.0293 17.627Q10.1855 17.4707 10.2051 17.207Q10.293 15.6445 10.5273 14.4678Q10.7617 13.291 11.0742 12.3926Q11.3867 11.4941 11.7139 10.7666Q12.041 10.0391 12.3242 9.375L0.751953 9.375Q1.03516 10.0391 1.3623 10.7666Q1.68945 11.4941 1.99707 12.3926Q2.30469 13.291 2.53906 14.4678Q2.77344 15.6445 2.87109 17.207Z" fill="#007aff"/>
  <path d="M13.0664 6.01562Q13.0664 4.75586 12.5684 3.66211Q12.0703 2.56836 11.1768 1.74316Q10.2832 0.917969 9.0918 0.458984Q7.90039 0 6.5332 0Q5.16602 0 3.97949 0.458984Q2.79297 0.917969 1.89941 1.74316Q1.00586 2.56836 0.50293 3.66211Q0 4.75586 0 6.01562Q0 6.61133 0.078125 7.11914Q0.15625 7.62695 0.292969 8.0957L12.7832 8.0957Q12.9199 7.62695 12.9932 7.11914Q13.0664 6.61133 13.0664 6.01562Z" fill="#ffffff"/>
 </g>
</svg>
