<?xml version="1.0" encoding="UTF-8"?>
<!--Generator: Apple Native CoreSVG 175.5-->
<!DOCTYPE svg
PUBLIC "-//W3C//DTD SVG 1.1//EN"
       "http://www.w3.org/Graphics/SVG/1.1/DTD/svg11.dtd">
<svg version="1.1" xmlns="http://www.w3.org/2000/svg" xmlns:xlink="http://www.w3.org/1999/xlink" width="23.1152" height="19.7559">
 <g>
  <rect height="19.7559" opacity="0" width="23.1152" x="0" y="0"/>
  <path d="M19.0527 19.7461Q19.375 19.7461 19.6143 19.5166Q19.8535 19.2871 19.8535 18.9648Q19.8535 18.6426 19.6143 18.4033Q19.375 18.1641 19.0527 18.1641L17.8613 18.1641L17.8613 11.6895Q17.8613 10.3516 17.3828 9.2041Q16.9043 8.05664 16.0449 7.19727Q15.1855 6.33789 14.0381 5.85938Q12.8906 5.38086 11.5527 5.38086Q10.2148 5.38086 9.07227 5.85938Q7.92969 6.33789 7.07031 7.19727Q6.21094 8.05664 5.73242 9.2041Q5.25391 10.3516 5.25391 11.6895L5.25391 18.1641L4.04297 18.1641Q3.7207 18.1641 3.49609 18.4033Q3.27148 18.6426 3.27148 18.9648Q3.27148 19.2871 3.49609 19.5166Q3.7207 19.7461 4.04297 19.7461ZM12.373 11.7188L12.373 18.1641L10.752 18.1641L10.752 11.7188Q10.752 11.3867 10.9814 11.1426Q11.2109 10.8984 11.5527 10.8984Q11.8848 10.8984 12.1289 11.1426Q12.373 11.3867 12.373 11.7188Z" fill="#ffffff"/>
  <path d="M2.70508 12.4023Q3.04688 12.4023 3.30566 12.1533Q3.56445 11.9043 3.56445 11.5625Q3.56445 11.2109 3.30566 10.9619Q3.04688 10.7129 2.70508 10.7129L0.830078 10.7129Q0.488281 10.7129 0.244141 10.9668Q0 11.2207 0 11.5625Q0 11.8945 0.244141 12.1484Q0.488281 12.4023 0.830078 12.4023ZM4.70703 5.89844Q4.95117 6.14258 5.29785 6.14746Q5.64453 6.15234 5.88867 5.89844Q6.14258 5.6543 6.1377 5.30762Q6.13281 4.96094 5.88867 4.7168L4.57031 3.38867Q4.33594 3.14453 3.98438 3.14453Q3.63281 3.14453 3.37891 3.38867Q3.13477 3.64258 3.13477 3.98438Q3.13477 4.32617 3.37891 4.57031ZM10.7129 2.71484Q10.7129 3.05664 10.9619 3.31055Q11.2109 3.56445 11.5527 3.56445Q11.9043 3.56445 12.1533 3.31055Q12.4023 3.05664 12.4023 2.71484L12.4023 0.849609Q12.4023 0.498047 12.1484 0.249023Q11.8945 0 11.5527 0Q11.2109 0 10.9619 0.249023Q10.7129 0.498047 10.7129 0.849609ZM17.207 4.7168Q16.9727 4.96094 16.9678 5.30762Q16.9629 5.6543 17.207 5.89844Q17.4609 6.15234 17.8027 6.14746Q18.1445 6.14258 18.3887 5.89844L19.7266 4.57031Q19.9707 4.32617 19.9707 3.98438Q19.9707 3.64258 19.7266 3.38867Q19.4727 3.14453 19.1309 3.14453Q18.7891 3.14453 18.5449 3.38867ZM22.2656 12.4023Q22.6074 12.4023 22.8613 12.1484Q23.1152 11.8945 23.1152 11.5625Q23.1152 11.2207 22.8613 10.9668Q22.6074 10.7129 22.2656 10.7129L20.3906 10.7129Q20.0488 10.7129 19.7998 10.9619Q19.5508 11.2109 19.5508 11.5625Q19.5508 11.9043 19.7998 12.1533Q20.0488 12.4023 20.3906 12.4023Z" fill="#007aff"/>
 </g>
</svg>
