<?xml version="1.0" encoding="UTF-8"?>
<!--Generator: Apple Native CoreSVG 175.5-->
<!DOCTYPE svg
PUBLIC "-//W3C//DTD SVG 1.1//EN"
       "http://www.w3.org/Graphics/SVG/1.1/DTD/svg11.dtd">
<svg version="1.1" xmlns="http://www.w3.org/2000/svg" xmlns:xlink="http://www.w3.org/1999/xlink" width="19.9219" height="19.9316">
 <g>
  <rect height="19.9316" opacity="0" width="19.9219" x="0" y="0"/>
  <path d="M9.96094 19.9219Q12.002 19.9219 13.8037 19.1406Q15.6055 18.3594 16.9824 16.9824Q18.3594 15.6055 19.1406 13.8037Q19.9219 12.002 19.9219 9.96094Q19.9219 7.91992 19.1406 6.11816Q18.3594 4.31641 16.9824 2.93945Q15.6055 1.5625 13.7988 0.78125Q11.9922 0 9.95117 0Q7.91016 0 6.1084 0.78125Q4.30664 1.5625 2.93457 2.93945Q1.5625 4.31641 0.78125 6.11816Q0 7.91992 0 9.96094Q0 12.002 0.78125 13.8037Q1.5625 15.6055 2.93945 16.9824Q4.31641 18.3594 6.11816 19.1406Q7.91992 19.9219 9.96094 19.9219ZM9.96094 18.2617Q8.23242 18.2617 6.72852 17.6172Q5.22461 16.9727 4.08691 15.835Q2.94922 14.6973 2.30957 13.1934Q1.66992 11.6895 1.66992 9.96094Q1.66992 8.23242 2.30957 6.72852Q2.94922 5.22461 4.08203 4.08203Q5.21484 2.93945 6.71875 2.2998Q8.22266 1.66016 9.95117 1.66016Q11.6797 1.66016 13.1885 2.2998Q14.6973 2.93945 15.835 4.08203Q16.9727 5.22461 17.6172 6.72852Q18.2617 8.23242 18.2617 9.96094Q18.2617 11.6895 17.6221 13.1934Q16.9824 14.6973 15.8398 15.835Q14.6973 16.9727 13.1934 17.6172Q11.6895 18.2617 9.96094 18.2617Z" fill="#007aff"/>
  <path d="M5.03906 7.40234L14.9121 7.40234Q15.2344 7.40234 15.4395 7.2168Q15.6445 7.03125 15.6445 6.71875Q15.6445 6.40625 15.4395 6.21582Q15.2344 6.02539 14.9121 6.02539L5.03906 6.02539Q4.7168 6.02539 4.50684 6.21582Q4.29688 6.40625 4.29688 6.71875Q4.29688 7.03125 4.50684 7.2168Q4.7168 7.40234 5.03906 7.40234ZM5.03906 10.6348L14.9121 10.6348Q15.2344 10.6348 15.4395 10.4492Q15.6445 10.2637 15.6445 9.95117Q15.6445 9.63867 15.4395 9.44824Q15.2344 9.25781 14.9121 9.25781L5.03906 9.25781Q4.7168 9.25781 4.50684 9.44824Q4.29688 9.63867 4.29688 9.95117Q4.29688 10.2637 4.50684 10.4492Q4.7168 10.6348 5.03906 10.6348ZM5.03906 13.877L14.9121 13.877Q15.2344 13.877 15.4395 13.6865Q15.6445 13.4961 15.6445 13.1934Q15.6445 12.8809 15.4395 12.6904Q15.2344 12.5 14.9121 12.5L5.03906 12.5Q4.7168 12.5 4.50684 12.6904Q4.29688 12.8809 4.29688 13.1934Q4.29688 13.4961 4.50684 13.6865Q4.7168 13.877 5.03906 13.877Z" fill="#ffffff"/>
 </g>
</svg>
