<?xml version="1.0" encoding="UTF-8"?>
<!--Generator: Apple Native CoreSVG 175-->
<!DOCTYPE svg
PUBLIC "-//W3C//DTD SVG 1.1//EN"
       "http://www.w3.org/Graphics/SVG/1.1/DTD/svg11.dtd">
<svg version="1.1" xmlns="http://www.w3.org/2000/svg" xmlns:xlink="http://www.w3.org/1999/xlink" width="24.3867" height="17.7826">
 <g>
  <rect height="17.7826" opacity="0" width="24.3867" x="0" y="0"/>
  <path d="M0 17.3825Q0 17.536 0.10643 17.6438Q0.21286 17.7516 0.359344 17.7516L24.0202 17.7516Q24.1739 17.7516 24.2803 17.6438Q24.3867 17.536 24.3867 17.3825Q24.3867 17.236 24.2803 17.1296Q24.1739 17.0232 24.0202 17.0232L0.359344 17.0232Q0.21286 17.0232 0.10643 17.1296Q0 17.236 0 17.3825ZM0 0.369263Q0 0.515747 0.10643 0.622177Q0.21286 0.728607 0.359344 0.728607L24.0202 0.728607Q24.1739 0.728607 24.2803 0.622177Q24.3867 0.515747 24.3867 0.369263Q24.3867 0.215759 24.2803 0.10788Q24.1739 0 24.0202 0L0.359344 0Q0.21286 0 0.10643 0.10788Q0 0.215759 0 0.369263Z" fill="#007aff"/>
  <path d="M9.4313 13.2887L12.1925 11.2813L14.9582 13.2887Q15.1816 13.4567 15.3703 13.343Q15.5589 13.2294 15.4633 12.9337L14.3996 9.67239L17.1817 7.66647Q17.3328 7.56531 17.3466 7.42371Q17.3605 7.2821 17.2711 7.17445Q17.1817 7.0668 16.9914 7.0668L13.5449 7.0668L12.502 3.81805Q12.4188 3.57544 12.1891 3.58032Q11.9594 3.58521 11.886 3.81805L10.8446 7.0668L7.39532 7.0668Q7.20505 7.0668 7.11212 7.17445Q7.0192 7.2821 7.03651 7.42371Q7.05383 7.56531 7.19803 7.66647L9.99252 9.67239L8.92624 12.9337Q8.83041 13.2294 9.01558 13.343Q9.20074 13.4567 9.4313 13.2887Z" fill="#ffffff"/>
 </g>
</svg>
