<?xml version="1.0" encoding="UTF-8"?>
<!--Generator: Apple Native CoreSVG 175.5-->
<!DOCTYPE svg
PUBLIC "-//W3C//DTD SVG 1.1//EN"
       "http://www.w3.org/Graphics/SVG/1.1/DTD/svg11.dtd">
<svg version="1.1" xmlns="http://www.w3.org/2000/svg" xmlns:xlink="http://www.w3.org/1999/xlink" width="19.9219" height="19.9316">
 <g>
  <rect height="19.9316" opacity="0" width="19.9219" x="0" y="0"/>
  <path d="M9.96094 19.9219Q12.002 19.9219 13.8037 19.1406Q15.6055 18.3594 16.9824 16.9824Q18.3594 15.6055 19.1406 13.8037Q19.9219 12.002 19.9219 9.96094Q19.9219 7.91992 19.1406 6.11816Q18.3594 4.31641 16.9824 2.93945Q15.6055 1.5625 13.7988 0.78125Q11.9922 0 9.95117 0Q7.91016 0 6.1084 0.78125Q4.30664 1.5625 2.93457 2.93945Q1.5625 4.31641 0.78125 6.11816Q0 7.91992 0 9.96094Q0 12.002 0.78125 13.8037Q1.5625 15.6055 2.93945 16.9824Q4.31641 18.3594 6.11816 19.1406Q7.91992 19.9219 9.96094 19.9219Z" fill="#007aff"/>
  <path d="M4.49219 7.94922Q4.16016 7.94922 3.94043 7.75391Q3.7207 7.55859 3.7207 7.24609Q3.7207 6.92383 3.94043 6.72363Q4.16016 6.52344 4.49219 6.52344L15.4688 6.52344Q15.8008 6.52344 16.0205 6.72363Q16.2402 6.92383 16.2402 7.24609Q16.2402 7.55859 16.0205 7.75391Q15.8008 7.94922 15.4688 7.94922ZM5.98633 11.2891Q5.64453 11.2891 5.42969 11.0938Q5.21484 10.8984 5.21484 10.5762Q5.21484 10.2539 5.42969 10.0537Q5.64453 9.85352 5.98633 9.85352L13.9746 9.85352Q14.3164 9.85352 14.5312 10.0537Q14.7461 10.2539 14.7461 10.5762Q14.7461 10.8984 14.5312 11.0938Q14.3164 11.2891 13.9746 11.2891ZM7.54883 14.6289Q7.20703 14.6289 6.99219 14.4336Q6.77734 14.2383 6.77734 13.916Q6.77734 13.5938 6.99219 13.3984Q7.20703 13.2031 7.54883 13.2031L12.4219 13.2031Q12.7539 13.2031 12.9688 13.3984Q13.1836 13.5938 13.1836 13.916Q13.1836 14.2383 12.9688 14.4336Q12.7539 14.6289 12.4219 14.6289Z" fill="#ffffff"/>
 </g>
</svg>
