<?xml version="1.0" encoding="UTF-8"?>
<!--Generator: Apple Native CoreSVG 175-->
<!DOCTYPE svg
PUBLIC "-//W3C//DTD SVG 1.1//EN"
       "http://www.w3.org/Graphics/SVG/1.1/DTD/svg11.dtd">
<svg version="1.1" xmlns="http://www.w3.org/2000/svg" xmlns:xlink="http://www.w3.org/1999/xlink" width="19.1554" height="19.1583">
 <g>
  <rect height="19.1583" opacity="0" width="19.1554" x="0" y="0"/>
  <path d="M5.80551 8.90518Q6.7363 8.90518 7.57362 9.15985Q8.41095 9.41452 9.43237 10.0243Q10.2872 10.5408 11.3082 10.9304Q12.3293 11.32 13.6305 11.32Q15.1071 11.32 16.4157 10.7227Q17.7243 10.1254 18.784 8.97552L18.6613 7.96997Q17.6567 9.24927 16.3827 9.92386Q15.1086 10.5984 13.6305 10.5984Q12.4387 10.5984 11.5256 10.249Q10.6125 9.8996 9.79721 9.41055Q8.94257 8.90396 7.98889 8.54027Q7.03522 8.17657 5.80551 8.17657Q4.20975 8.17657 2.85393 8.91449Q1.49811 9.6524 0.440674 11.0344L0.670319 11.9095Q2.70935 8.90518 5.80551 8.90518ZM8.30582 5.83557Q8.77609 6.64505 8.96385 7.49069Q9.15161 8.33633 9.14886 9.54071Q9.13635 10.5415 9.30962 11.6138Q9.48288 12.686 10.1292 13.8141Q10.8672 15.0989 12.0433 15.9344Q13.2195 16.77 14.7516 17.1156L15.5263 16.5215Q13.9293 16.281 12.7142 15.5104Q11.4992 14.7398 10.7582 13.4575Q10.1672 12.4208 10.0125 11.4614Q9.85779 10.502 9.8703 9.5462Q9.88007 8.54538 9.71878 7.54539Q9.5575 6.54541 8.9418 5.47897Q8.15353 4.11453 6.86195 3.30223Q5.57037 2.48993 3.88443 2.2493L3.22266 2.89505Q4.97421 3.04153 6.259 3.78815Q7.54379 4.53476 8.30582 5.83557ZM12.2218 6.47659Q11.7586 7.27356 11.1237 7.85614Q10.4887 8.43872 9.4281 9.04297Q8.5582 9.5372 7.71523 10.2212Q6.87225 10.9052 6.21323 12.0332Q5.4332 13.3813 5.32539 14.8927Q5.21759 16.404 5.77225 17.981L6.65436 18.2516Q5.99884 16.6985 6.04164 15.2135Q6.08444 13.7286 6.84921 12.3997Q7.44019 11.3684 8.20076 10.7584Q8.96133 10.1485 9.79462 9.67896Q10.6575 9.18488 11.4471 8.54362Q12.2368 7.90237 12.8551 6.84036Q13.6082 5.53055 13.6916 4.06746Q13.775 2.60437 13.2082 1.08398L12.3289 0.832062Q13.7007 3.92197 12.2218 6.47659ZM9.57428 19.1486Q11.552 19.1486 13.2834 18.4024Q15.0148 17.6562 16.3355 16.3356Q17.6562 15.015 18.4058 13.28Q19.1554 11.545 19.1554 9.57428Q19.1554 7.60361 18.4058 5.86861Q17.6562 4.13361 16.3355 2.81296Q15.0148 1.49231 13.282 0.746155Q11.5492 0 9.57153 0Q7.60086 0 5.86586 0.746155Q4.13086 1.49231 2.81502 2.81296Q1.49918 4.13361 0.749588 5.86861Q0 7.60361 0 9.57428Q0 11.545 0.746078 13.28Q1.49216 15.015 2.81288 16.3356Q4.13361 17.6562 5.86853 18.4024Q7.60345 19.1486 9.57428 19.1486ZM9.57428 18.4024Q7.74734 18.4024 6.14853 17.7157Q4.54971 17.029 3.33466 15.8174Q2.1196 14.6059 1.43425 13.0035Q0.748901 11.4012 0.748901 9.57428Q0.748901 7.74734 1.43425 6.14502Q2.1196 4.54269 3.33328 3.32626Q4.54697 2.10983 6.14578 1.42448Q7.7446 0.739136 9.57153 0.739136Q11.4055 0.739136 13.0043 1.42448Q14.6031 2.10983 15.8195 3.32626Q17.036 4.54269 17.7227 6.14502Q18.4094 7.74734 18.4094 9.57428Q18.4094 11.4012 17.7241 13.0035Q17.0387 14.6059 15.8237 15.8174Q14.6086 17.029 13.0084 17.7157Q11.4082 18.4024 9.57428 18.4024Z" fill="#ffffff"/>
 </g>
</svg>
