<?xml version="1.0" encoding="UTF-8"?>
<!--Generator: Apple Native CoreSVG 175-->
<!DOCTYPE svg
PUBLIC "-//W3C//DTD SVG 1.1//EN"
       "http://www.w3.org/Graphics/SVG/1.1/DTD/svg11.dtd">
<svg version="1.1" xmlns="http://www.w3.org/2000/svg" xmlns:xlink="http://www.w3.org/1999/xlink" width="19.1602" height="19.1504">
 <g>
  <rect height="19.1504" opacity="0" width="19.1602" x="0" y="0"/>
  <path d="M9.57031 19.1406Q11.5527 19.1406 13.2861 18.3984Q15.0195 17.6562 16.3379 16.333Q17.6562 15.0098 18.4082 13.2764Q19.1602 11.543 19.1602 9.57031Q19.1602 7.59766 18.4082 5.86426Q17.6562 4.13086 16.3379 2.80762Q15.0195 1.48438 13.2861 0.742188Q11.5527 0 9.57031 0Q7.59766 0 5.86426 0.742188Q4.13086 1.48438 2.81738 2.80762Q1.50391 4.13086 0.751953 5.86426Q0 7.59766 0 9.57031Q0 11.543 0.74707 13.2764Q1.49414 15.0098 2.8125 16.333Q4.13086 17.6562 5.86914 18.3984Q7.60742 19.1406 9.57031 19.1406Z" fill="#007aff"/>
  <path d="M4.0332 7.14844Q3.87695 7.14844 3.76953 7.05566Q3.66211 6.96289 3.66211 6.80664Q3.66211 6.65039 3.76953 6.55273Q3.87695 6.45508 4.0332 6.45508L15.1562 6.45508Q15.3125 6.45508 15.415 6.55273Q15.5176 6.65039 15.5176 6.80664Q15.5176 6.96289 15.415 7.05566Q15.3125 7.14844 15.1562 7.14844ZM5.45898 10.3809Q5.29297 10.3809 5.19043 10.2881Q5.08789 10.1953 5.08789 10.0391Q5.08789 9.88281 5.19043 9.78516Q5.29297 9.6875 5.45898 9.6875L13.7305 9.6875Q13.8867 9.6875 13.9893 9.78516Q14.0918 9.88281 14.0918 10.0391Q14.0918 10.1953 13.9893 10.2881Q13.8867 10.3809 13.7305 10.3809ZM6.95312 13.6426Q6.78711 13.6426 6.68457 13.5449Q6.58203 13.4473 6.58203 13.3008Q6.58203 13.1445 6.68457 13.0469Q6.78711 12.9492 6.95312 12.9492L12.2461 12.9492Q12.3926 12.9492 12.5 13.0469Q12.6074 13.1445 12.6074 13.3008Q12.6074 13.4473 12.5 13.5449Q12.3926 13.6426 12.2461 13.6426Z" fill="#ffffff"/>
 </g>
</svg>
