<?xml version="1.0" encoding="UTF-8"?>
<!--Generator: Apple Native CoreSVG 175.5-->
<!DOCTYPE svg
PUBLIC "-//W3C//DTD SVG 1.1//EN"
       "http://www.w3.org/Graphics/SVG/1.1/DTD/svg11.dtd">
<svg version="1.1" xmlns="http://www.w3.org/2000/svg" xmlns:xlink="http://www.w3.org/1999/xlink" width="19.7559" height="10.0293">
 <g>
  <rect height="10.0293" opacity="0" width="19.7559" x="0" y="0"/>
  <path d="M0.732422 10.0293L19.0137 10.0293Q19.3164 10.0293 19.5361 9.80957Q19.7559 9.58984 19.7559 9.27734Q19.7559 8.97461 19.5361 8.75977Q19.3164 8.54492 19.0137 8.54492L0.732422 8.54492Q0.429688 8.54492 0.214844 8.75977Q0 8.97461 0 9.27734Q0 9.58984 0.214844 9.80957Q0.429688 10.0293 0.732422 10.0293ZM0.732422 5.76172L19.0137 5.76172Q19.3164 5.76172 19.5361 5.54688Q19.7559 5.33203 19.7559 5.0293Q19.7559 4.7168 19.5361 4.49707Q19.3164 4.27734 19.0137 4.27734L0.732422 4.27734Q0.429688 4.27734 0.214844 4.49707Q0 4.7168 0 5.0293Q0 5.33203 0.214844 5.54688Q0.429688 5.76172 0.732422 5.76172ZM0.732422 1.50391L19.0137 1.50391Q19.3164 1.50391 19.5361 1.28906Q19.7559 1.07422 19.7559 0.771484Q19.7559 0.458984 19.5361 0.244141Q19.3164 0.0292969 19.0137 0.0292969L0.732422 0.0292969Q0.429688 0.0292969 0.214844 0.244141Q0 0.458984 0 0.771484Q0 1.07422 0.214844 1.28906Q0.429688 1.50391 0.732422 1.50391Z" fill="#ffffff"/>
 </g>
</svg>
