<?xml version="1.0" encoding="UTF-8"?>
<!--Generator: Apple Native CoreSVG 175.5-->
<!DOCTYPE svg
PUBLIC "-//W3C//DTD SVG 1.1//EN"
       "http://www.w3.org/Graphics/SVG/1.1/DTD/svg11.dtd">
<svg version="1.1" xmlns="http://www.w3.org/2000/svg" xmlns:xlink="http://www.w3.org/1999/xlink" width="23.0273" height="17.9785">
 <g>
  <rect height="17.9785" opacity="0" width="23.0273" x="0" y="0"/>
  <path d="M3.06641 17.9785L19.9609 17.9785Q21.5039 17.9785 22.2656 17.2217Q23.0273 16.4648 23.0273 14.9609L23.0273 3.02734Q23.0273 1.52344 22.2656 0.761719Q21.5039 0 19.9609 0L3.06641 0Q1.5332 0 0.766602 0.756836Q0 1.51367 0 3.02734L0 14.9609Q0 16.4648 0.766602 17.2217Q1.5332 17.9785 3.06641 17.9785ZM3.08594 16.4062Q2.35352 16.4062 1.96289 16.0205Q1.57227 15.6348 1.57227 14.873L1.57227 3.11523Q1.57227 2.35352 1.96289 1.96289Q2.35352 1.57227 3.08594 1.57227L19.9414 1.57227Q20.6641 1.57227 21.0596 1.96289Q21.4551 2.35352 21.4551 3.11523L21.4551 14.873Q21.4551 15.6348 21.0596 16.0205Q20.6641 16.4062 19.9414 16.4062Z" fill="#007aff"/>
  <path d="M4.62891 5.3418Q5.00977 5.3418 5.27344 5.07324Q5.53711 4.80469 5.53711 4.43359Q5.53711 4.05273 5.27344 3.78906Q5.00977 3.52539 4.62891 3.52539Q4.26758 3.52539 3.99414 3.79395Q3.7207 4.0625 3.7207 4.43359Q3.7207 4.79492 3.99414 5.06836Q4.26758 5.3418 4.62891 5.3418ZM4.62891 8.33008Q5.00977 8.33008 5.27344 8.06641Q5.53711 7.80273 5.53711 7.42188Q5.53711 7.04102 5.27344 6.77734Q5.00977 6.51367 4.62891 6.51367Q4.26758 6.51367 3.99414 6.78223Q3.7207 7.05078 3.7207 7.42188Q3.7207 7.79297 3.99414 8.06152Q4.26758 8.33008 4.62891 8.33008ZM4.62891 11.3086Q5.00977 11.3086 5.27344 11.0449Q5.53711 10.7812 5.53711 10.4004Q5.53711 10.0293 5.27344 9.76562Q5.00977 9.50195 4.62891 9.50195Q4.25781 9.50195 3.98926 9.76562Q3.7207 10.0293 3.7207 10.4004Q3.7207 10.7812 3.98926 11.0449Q4.25781 11.3086 4.62891 11.3086ZM4.62891 14.4434Q5.00977 14.4434 5.27344 14.1748Q5.53711 13.9062 5.53711 13.5352Q5.53711 13.1543 5.27344 12.8857Q5.00977 12.6172 4.62891 12.6172Q4.26758 12.6172 3.99414 12.8906Q3.7207 13.1641 3.7207 13.5352Q3.7207 13.8965 3.99414 14.1699Q4.26758 14.4434 4.62891 14.4434ZM7.57812 5.0293L18.75 5.0293Q19.0137 5.0293 19.1895 4.85352Q19.3652 4.67773 19.3652 4.43359Q19.3652 4.17969 19.1846 3.99902Q19.0039 3.81836 18.75 3.81836L7.57812 3.81836Q7.32422 3.81836 7.14355 3.99902Q6.96289 4.17969 6.96289 4.43359Q6.96289 4.67773 7.13867 4.85352Q7.31445 5.0293 7.57812 5.0293ZM7.57812 8.02734L13.7695 8.02734Q14.0234 8.02734 14.1992 7.85156Q14.375 7.67578 14.375 7.42188Q14.375 7.16797 14.1992 6.9873Q14.0234 6.80664 13.7695 6.80664L7.57812 6.80664Q7.32422 6.80664 7.14355 6.9873Q6.96289 7.16797 6.96289 7.42188Q6.96289 7.67578 7.14355 7.85156Q7.32422 8.02734 7.57812 8.02734ZM7.57812 11.0156L18.75 11.0156Q19.0137 11.0156 19.1895 10.8398Q19.3652 10.6641 19.3652 10.4004Q19.3652 10.1562 19.1895 9.98047Q19.0137 9.80469 18.75 9.80469L7.57812 9.80469Q7.31445 9.80469 7.13867 9.98047Q6.96289 10.1562 6.96289 10.4004Q6.96289 10.6641 7.13867 10.8398Q7.31445 11.0156 7.57812 11.0156ZM7.57812 14.1406L13.7695 14.1406Q14.0234 14.1406 14.1992 13.96Q14.375 13.7793 14.375 13.5352Q14.375 13.2812 14.1992 13.1055Q14.0234 12.9297 13.7695 12.9297L7.57812 12.9297Q7.31445 12.9297 7.13867 13.1055Q6.96289 13.2812 6.96289 13.5352Q6.96289 13.7793 7.14355 13.96Q7.32422 14.1406 7.57812 14.1406Z" fill="#ffffff"/>
 </g>
</svg>
