<?xml version="1.0" encoding="UTF-8"?>
<!--Generator: Apple Native CoreSVG 175.5-->
<!DOCTYPE svg
PUBLIC "-//W3C//DTD SVG 1.1//EN"
       "http://www.w3.org/Graphics/SVG/1.1/DTD/svg11.dtd">
<svg version="1.1" xmlns="http://www.w3.org/2000/svg" xmlns:xlink="http://www.w3.org/1999/xlink" width="16.4258" height="24.7949">
 <g>
  <rect height="24.7949" opacity="0" width="16.4258" x="0" y="0"/>
  <path d="M3.76953 11.1035Q3.50586 11.1035 3.32031 10.918Q3.13477 10.7324 3.13477 10.4785Q3.13477 10.2148 3.32031 10.0244Q3.50586 9.83398 3.76953 9.83398L12.6562 9.83398Q12.9199 9.83398 13.1055 10.0244Q13.291 10.2148 13.291 10.4785Q13.291 10.7324 13.1055 10.918Q12.9199 11.1035 12.6562 11.1035ZM3.76953 14.6777Q3.50586 14.6777 3.32031 14.4922Q3.13477 14.3066 3.13477 14.043Q3.13477 13.7793 3.32031 13.5986Q3.50586 13.418 3.76953 13.418L12.6562 13.418Q12.9199 13.418 13.1055 13.5986Q13.291 13.7793 13.291 14.043Q13.291 14.3066 13.1055 14.4922Q12.9199 14.6777 12.6562 14.6777ZM3.76953 18.4473Q3.50586 18.4473 3.32031 18.2568Q3.13477 18.0664 3.13477 17.8125Q3.13477 17.5488 3.32031 17.3682Q3.50586 17.1875 3.76953 17.1875L8.24219 17.1875Q8.50586 17.1875 8.68652 17.3682Q8.86719 17.5488 8.86719 17.8125Q8.86719 18.0664 8.68164 18.2568Q8.49609 18.4473 8.24219 18.4473ZM3.02734 23.6621L13.3984 23.6621Q14.9121 23.6621 15.6689 22.8955Q16.4258 22.1289 16.4258 20.5957L16.4258 5.78125Q16.4258 4.24805 15.6836 3.48145Q14.9414 2.71484 13.4961 2.71484L13.2715 2.71484Q13.2715 2.74414 13.2715 2.77832Q13.2715 2.8125 13.2715 2.8418L13.2715 3.99414Q13.2715 4.91211 12.7051 5.50293Q12.1387 6.09375 11.2305 6.09375L5.19531 6.09375Q4.28711 6.09375 3.7207 5.50293Q3.1543 4.91211 3.1543 3.99414L3.1543 2.8418Q3.1543 2.8125 3.1543 2.77832Q3.1543 2.74414 3.1543 2.71484L2.92969 2.71484Q1.48438 2.71484 0.742188 3.48145Q0 4.24805 0 5.78125L0 20.5957Q0 22.1289 0.756836 22.8955Q1.51367 23.6621 3.02734 23.6621ZM5.19531 4.96094L11.2305 4.96094Q11.6602 4.96094 11.8994 4.70703Q12.1387 4.45312 12.1387 3.99414L12.1387 2.96875Q12.1387 2.50977 11.8994 2.25586Q11.6602 2.00195 11.2305 2.00195L10.332 2.00195Q10.2832 1.17188 9.67285 0.585938Q9.0625 0 8.21289 0Q7.36328 0 6.75293 0.585938Q6.14258 1.17188 6.09375 2.00195L5.19531 2.00195Q4.76562 2.00195 4.52637 2.25586Q4.28711 2.50977 4.28711 2.96875L4.28711 3.99414Q4.28711 4.45312 4.52637 4.70703Q4.76562 4.96094 5.19531 4.96094ZM8.21289 2.92969Q7.86133 2.92969 7.6123 2.67578Q7.36328 2.42188 7.36328 2.08008Q7.36328 1.71875 7.6123 1.46973Q7.86133 1.2207 8.21289 1.2207Q8.56445 1.2207 8.81348 1.46973Q9.0625 1.71875 9.0625 2.08008Q9.0625 2.42188 8.81348 2.67578Q8.56445 2.92969 8.21289 2.92969Z" fill="#ffffff"/>
 </g>
</svg>
