<?xml version="1.0" encoding="UTF-8"?>
<!--Generator: Apple Native CoreSVG 175.5-->
<!DOCTYPE svg
PUBLIC "-//W3C//DTD SVG 1.1//EN"
       "http://www.w3.org/Graphics/SVG/1.1/DTD/svg11.dtd">
<svg version="1.1" xmlns="http://www.w3.org/2000/svg" xmlns:xlink="http://www.w3.org/1999/xlink" width="16.4258" height="24.7949">
 <g>
  <rect height="24.7949" opacity="0" width="16.4258" x="0" y="0"/>
  <path d="M3.96484 10.9766Q3.61328 10.9766 3.35938 10.7178Q3.10547 10.459 3.10547 10.1172Q3.10547 9.76562 3.35938 9.51172Q3.61328 9.25781 3.96484 9.25781Q4.31641 9.25781 4.57031 9.50684Q4.82422 9.75586 4.82422 10.1172Q4.82422 10.4688 4.57031 10.7227Q4.31641 10.9766 3.96484 10.9766ZM3.96484 14.541Q3.60352 14.541 3.35449 14.2871Q3.10547 14.0332 3.10547 13.6816Q3.10547 13.3301 3.35449 13.0811Q3.60352 12.832 3.96484 12.832Q4.31641 12.832 4.57031 13.0762Q4.82422 13.3203 4.82422 13.6816Q4.82422 14.0332 4.57031 14.2871Q4.31641 14.541 3.96484 14.541ZM3.96484 18.3105Q3.61328 18.3105 3.35938 18.0566Q3.10547 17.8027 3.10547 17.4512Q3.10547 17.0996 3.35938 16.8457Q3.61328 16.5918 3.96484 16.5918Q4.31641 16.5918 4.57031 16.8457Q4.82422 17.0996 4.82422 17.4512Q4.82422 17.8027 4.57031 18.0566Q4.31641 18.3105 3.96484 18.3105ZM6.66016 10.7422Q6.39648 10.7422 6.20605 10.5566Q6.01562 10.3711 6.01562 10.1172Q6.01562 9.85352 6.20605 9.66309Q6.39648 9.47266 6.66016 9.47266L12.6953 9.47266Q12.9492 9.47266 13.1348 9.66309Q13.3203 9.85352 13.3203 10.1172Q13.3203 10.3711 13.1348 10.5566Q12.9492 10.7422 12.6953 10.7422ZM6.66016 14.3164Q6.38672 14.3164 6.20117 14.1309Q6.01562 13.9453 6.01562 13.6816Q6.01562 13.418 6.20117 13.2373Q6.38672 13.0566 6.66016 13.0566L12.6953 13.0566Q12.959 13.0566 13.1396 13.2373Q13.3203 13.418 13.3203 13.6816Q13.3203 13.9453 13.1396 14.1309Q12.959 14.3164 12.6953 14.3164ZM6.66016 18.0859Q6.39648 18.0859 6.20605 17.8955Q6.01562 17.7051 6.01562 17.4512Q6.01562 17.1875 6.20117 17.0068Q6.38672 16.8262 6.66016 16.8262L12.6953 16.8262Q12.959 16.8262 13.1396 17.0068Q13.3203 17.1875 13.3203 17.4512Q13.3203 17.7051 13.1348 17.8955Q12.9492 18.0859 12.6953 18.0859ZM3.02734 23.6621L13.3984 23.6621Q14.9121 23.6621 15.6689 22.8955Q16.4258 22.1289 16.4258 20.5957L16.4258 5.78125Q16.4258 4.24805 15.6836 3.48145Q14.9414 2.71484 13.4961 2.71484L13.2715 2.71484Q13.2715 2.74414 13.2715 2.77832Q13.2715 2.8125 13.2715 2.8418L13.2715 3.99414Q13.2715 4.91211 12.7051 5.50293Q12.1387 6.09375 11.2305 6.09375L5.19531 6.09375Q4.28711 6.09375 3.7207 5.50293Q3.1543 4.91211 3.1543 3.99414L3.1543 2.8418Q3.1543 2.8125 3.1543 2.77832Q3.1543 2.74414 3.1543 2.71484L2.92969 2.71484Q1.48438 2.71484 0.742188 3.48145Q0 4.24805 0 5.78125L0 20.5957Q0 22.1289 0.756836 22.8955Q1.51367 23.6621 3.02734 23.6621ZM5.19531 4.96094L11.2305 4.96094Q11.6602 4.96094 11.8994 4.70703Q12.1387 4.45312 12.1387 3.99414L12.1387 2.96875Q12.1387 2.50977 11.8994 2.25586Q11.6602 2.00195 11.2305 2.00195L10.332 2.00195Q10.2832 1.17188 9.67285 0.585938Q9.0625 0 8.21289 0Q7.36328 0 6.75293 0.585938Q6.14258 1.17188 6.09375 2.00195L5.19531 2.00195Q4.76562 2.00195 4.52637 2.25586Q4.28711 2.50977 4.28711 2.96875L4.28711 3.99414Q4.28711 4.45312 4.52637 4.70703Q4.76562 4.96094 5.19531 4.96094ZM8.21289 2.92969Q7.86133 2.92969 7.6123 2.67578Q7.36328 2.42188 7.36328 2.08008Q7.36328 1.71875 7.6123 1.46973Q7.86133 1.2207 8.21289 1.2207Q8.56445 1.2207 8.81348 1.46973Q9.0625 1.71875 9.0625 2.08008Q9.0625 2.42188 8.81348 2.67578Q8.56445 2.92969 8.21289 2.92969Z" fill="#ffffff"/>
 </g>
</svg>
