<?xml version="1.0" encoding="UTF-8"?>
<!--Generator: Apple Native CoreSVG 175-->
<!DOCTYPE svg
PUBLIC "-//W3C//DTD SVG 1.1//EN"
       "http://www.w3.org/Graphics/SVG/1.1/DTD/svg11.dtd">
<svg version="1.1" xmlns="http://www.w3.org/2000/svg" xmlns:xlink="http://www.w3.org/1999/xlink" width="15.779" height="20.6747">
 <g>
  <rect height="20.6747" opacity="0" width="15.779" x="0" y="0"/>
  <path d="M0 18.0399Q0 19.3411 0.665436 20.0079Q1.33087 20.6747 2.62665 20.6747L13.1523 20.6747Q14.4481 20.6747 15.1135 20.0079Q15.779 19.3411 15.779 18.0399L15.779 2.66296Q15.779 1.36459 15.1135 0.695038Q14.4481 0.0254822 13.1523 0.0254822L2.62665 0.0254822Q1.33087 0.0254822 0.665436 0.695038Q0 1.36459 0 2.66296Z" fill="#007aff"/>
  <path d="M3.26843 4.9501Q2.90863 4.9501 2.65137 4.69421Q2.3941 4.43832 2.3941 4.07593Q2.3941 3.71185 2.65137 3.45322Q2.90863 3.19458 3.26843 3.19458Q3.62808 3.19458 3.88535 3.45184Q4.14261 3.70911 4.14261 4.07593Q4.14261 4.43832 3.88535 4.69421Q3.62808 4.9501 3.26843 4.9501ZM3.26843 8.14148Q2.90588 8.14148 2.64999 7.88071Q2.3941 7.61993 2.3941 7.26028Q2.3941 6.89774 2.64999 6.64322Q2.90588 6.3887 3.26843 6.3887Q3.62808 6.3887 3.88535 6.64185Q4.14261 6.89499 4.14261 7.26028Q4.14261 7.61993 3.88535 7.88071Q3.62808 8.14148 3.26843 8.14148ZM3.26843 11.3571Q2.90863 11.3571 2.65137 11.0999Q2.3941 10.8426 2.3941 10.4759Q2.3941 10.1161 2.65137 9.85886Q2.90863 9.60159 3.26843 9.60159Q3.62808 9.60159 3.88535 9.85748Q4.14261 10.1134 4.14261 10.4759Q4.14261 10.8426 3.88535 11.0999Q3.62808 11.3571 3.26843 11.3571ZM6.00479 4.40399Q5.8606 4.40399 5.76645 4.31198Q5.6723 4.21997 5.6723 4.07593Q5.6723 3.93448 5.76645 3.84033Q5.8606 3.74619 6.00479 3.74619L13.0551 3.74619Q13.2036 3.74619 13.2941 3.84033Q13.3847 3.93448 13.3847 4.07593Q13.3847 4.21997 13.2941 4.31198Q13.2036 4.40399 13.0551 4.40399ZM6.00479 7.58987Q5.85785 7.58987 5.76508 7.4971Q5.6723 7.40433 5.6723 7.26028Q5.6723 7.11334 5.76508 7.02057Q5.85785 6.9278 6.00479 6.9278L13.0551 6.9278Q13.1992 6.9278 13.2919 7.02057Q13.3847 7.11334 13.3847 7.26028Q13.3847 7.40433 13.2919 7.4971Q13.1992 7.58987 13.0551 7.58987ZM6.00479 10.8055Q5.8606 10.8055 5.76645 10.7114Q5.6723 10.6172 5.6723 10.4759Q5.6723 10.3317 5.76508 10.2411Q5.85785 10.1505 6.00479 10.1505L13.0551 10.1505Q13.1992 10.1505 13.2919 10.2411Q13.3847 10.3317 13.3847 10.4759Q13.3847 10.6172 13.2941 10.7114Q13.2036 10.8055 13.0551 10.8055Z" fill="#ffffff"/>
 </g>
</svg>
