<?xml version="1.0" encoding="UTF-8"?>
<!--Generator: Apple Native CoreSVG 175-->
<!DOCTYPE svg
PUBLIC "-//W3C//DTD SVG 1.1//EN"
       "http://www.w3.org/Graphics/SVG/1.1/DTD/svg11.dtd">
<svg version="1.1" xmlns="http://www.w3.org/2000/svg" xmlns:xlink="http://www.w3.org/1999/xlink" width="22.6617" height="17.3035">
 <g>
  <rect height="17.3035" opacity="0" width="22.6617" x="0" y="0"/>
  <path d="M2.63046 17.2894L20.0243 17.2894Q21.3281 17.2894 21.9949 16.617Q22.6617 15.9445 22.6617 14.6655L22.6617 2.6265Q22.6617 1.35468 21.9949 0.677338Q21.3281 0 20.0243 0L2.63046 0Q1.33636 0 0.668182 0.668945Q0 1.33789 0 2.6265L0 14.6655Q0 15.9586 0.668182 16.624Q1.33636 17.2894 2.63046 17.2894ZM2.65701 16.568Q1.7067 16.568 1.21765 16.0767Q0.728607 15.5855 0.728607 14.6269L0.728607 2.66525Q0.728607 1.7067 1.21765 1.21758Q1.7067 0.728455 2.65701 0.728455L20.0047 0.728455Q20.9242 0.728455 21.4287 1.21758Q21.9331 1.7067 21.9331 2.66525L21.9331 14.6269Q21.9331 15.5855 21.4287 16.0767Q20.9242 16.568 20.0047 16.568Z" fill="#007aff"/>
  <path d="M3.94684 4.73709Q4.30664 4.73709 4.56329 4.48257Q4.81995 4.22806 4.81995 3.871Q4.81995 3.51135 4.56329 3.2547Q4.30664 2.99805 3.94684 2.99805Q3.59268 2.99805 3.33328 3.25607Q3.07388 3.5141 3.07388 3.871Q3.07388 4.22531 3.33328 4.4812Q3.59268 4.73709 3.94684 4.73709ZM3.94684 7.90817Q4.30664 7.90817 4.56329 7.65503Q4.81995 7.40189 4.81995 7.03506Q4.81995 6.67542 4.56329 6.42227Q4.30664 6.16913 3.94684 6.16913Q3.59268 6.16913 3.33328 6.42365Q3.07388 6.67816 3.07388 7.03506Q3.07388 7.39914 3.33328 7.65366Q3.59268 7.90817 3.94684 7.90817ZM3.94684 11.0765Q4.30664 11.0765 4.56329 10.8199Q4.81995 10.5632 4.81995 10.2036Q4.81995 9.8465 4.56329 9.58984Q4.30664 9.33319 3.94684 9.33319Q3.58994 9.33319 3.33191 9.58984Q3.07388 9.8465 3.07388 10.2036Q3.07388 10.5632 3.33191 10.8199Q3.58994 11.0765 3.94684 11.0765ZM3.94684 14.2746Q4.30664 14.2746 4.56329 14.0166Q4.81995 13.7585 4.81995 13.4015Q4.81995 13.0417 4.56329 12.7872Q4.30664 12.5328 3.94684 12.5328Q3.59268 12.5328 3.33328 12.7886Q3.07388 13.0444 3.07388 13.4015Q3.07388 13.7558 3.33328 14.0152Q3.59268 14.2746 3.94684 14.2746ZM7.39532 4.1925L19.4812 4.1925Q19.6324 4.1925 19.7203 4.1011Q19.8082 4.0097 19.8082 3.871Q19.8082 3.72971 19.7189 3.63693Q19.6297 3.54416 19.4812 3.54416L7.39532 3.54416Q7.24686 3.54416 7.15759 3.63693Q7.06833 3.72971 7.06833 3.871Q7.06833 4.0097 7.15622 4.1011Q7.24411 4.1925 7.39532 4.1925ZM7.39532 7.35931L14.5007 7.35931Q14.6422 7.35931 14.7336 7.26791Q14.825 7.17651 14.825 7.03506Q14.825 6.89377 14.7336 6.80099Q14.6422 6.70822 14.5007 6.70822L7.39532 6.70822Q7.24686 6.70822 7.15759 6.80099Q7.06833 6.89377 7.06833 7.03506Q7.06833 7.17651 7.15759 7.26791Q7.24686 7.35931 7.39532 7.35931ZM7.39532 10.5304L19.4812 10.5304Q19.6324 10.5304 19.7203 10.439Q19.8082 10.3476 19.8082 10.2036Q19.8082 10.0648 19.7203 9.97345Q19.6324 9.88205 19.4812 9.88205L7.39532 9.88205Q7.24411 9.88205 7.15622 9.97345Q7.06833 10.0648 7.06833 10.2036Q7.06833 10.3476 7.15622 10.439Q7.24411 10.5304 7.39532 10.5304ZM7.39532 13.7257L14.5007 13.7257Q14.6422 13.7257 14.7336 13.633Q14.825 13.5402 14.825 13.4015Q14.825 13.2602 14.7336 13.1687Q14.6422 13.0772 14.5007 13.0772L7.39532 13.0772Q7.24411 13.0772 7.15622 13.1687Q7.06833 13.2602 7.06833 13.4015Q7.06833 13.5402 7.15759 13.633Q7.24686 13.7257 7.39532 13.7257Z" fill="#ffffff"/>
 </g>
</svg>
