<?xml version="1.0" encoding="UTF-8"?>
<!--Generator: Apple Native CoreSVG 175.5-->
<!DOCTYPE svg
PUBLIC "-//W3C//DTD SVG 1.1//EN"
       "http://www.w3.org/Graphics/SVG/1.1/DTD/svg11.dtd">
<svg version="1.1" xmlns="http://www.w3.org/2000/svg" xmlns:xlink="http://www.w3.org/1999/xlink" width="16.4258" height="20.9473">
 <g>
  <rect height="20.9473" opacity="0" width="16.4258" x="0" y="0"/>
  <path d="M0 17.8809Q0 19.4141 0.756836 20.1758Q1.51367 20.9375 3.02734 20.9375L13.3984 20.9375Q14.9121 20.9375 15.6689 20.1758Q16.4258 19.4141 16.4258 17.8809L16.4258 3.06641Q16.4258 1.54297 15.6689 0.771484Q14.9121 0 13.3984 0L3.02734 0Q1.51367 0 0.756836 0.771484Q0 1.54297 0 3.06641ZM1.57227 17.8516L1.57227 3.0957Q1.57227 2.36328 1.95801 1.96777Q2.34375 1.57227 3.10547 1.57227L13.3203 1.57227Q14.082 1.57227 14.4678 1.96777Q14.8535 2.36328 14.8535 3.0957L14.8535 17.8516Q14.8535 18.584 14.4678 18.9746Q14.082 19.3652 13.3203 19.3652L3.10547 19.3652Q2.34375 19.3652 1.95801 18.9746Q1.57227 18.584 1.57227 17.8516Z" fill="#007aff"/>
  <path d="M3.96484 5.35156Q4.3457 5.35156 4.60938 5.08789Q4.87305 4.82422 4.87305 4.44336Q4.87305 4.07227 4.60938 3.80371Q4.3457 3.53516 3.96484 3.53516Q3.59375 3.53516 3.3252 3.80371Q3.05664 4.07227 3.05664 4.44336Q3.05664 4.81445 3.3252 5.08301Q3.59375 5.35156 3.96484 5.35156ZM3.96484 8.33984Q4.3457 8.33984 4.60938 8.07129Q4.87305 7.80273 4.87305 7.43164Q4.87305 7.05078 4.60938 6.79199Q4.3457 6.5332 3.96484 6.5332Q3.58398 6.5332 3.32031 6.79688Q3.05664 7.06055 3.05664 7.43164Q3.05664 7.80273 3.32031 8.07129Q3.58398 8.33984 3.96484 8.33984ZM3.96484 11.4648Q4.3457 11.4648 4.60938 11.2012Q4.87305 10.9375 4.87305 10.5566Q4.87305 10.1758 4.60938 9.91211Q4.3457 9.64844 3.96484 9.64844Q3.59375 9.64844 3.3252 9.91699Q3.05664 10.1855 3.05664 10.5566Q3.05664 10.9277 3.3252 11.1963Q3.59375 11.4648 3.96484 11.4648ZM6.71875 5.05859L12.7637 5.05859Q13.0078 5.05859 13.1885 4.87793Q13.3691 4.69727 13.3691 4.44336Q13.3691 4.19922 13.1885 4.01855Q13.0078 3.83789 12.7637 3.83789L6.71875 3.83789Q6.46484 3.83789 6.28906 4.01855Q6.11328 4.19922 6.11328 4.44336Q6.11328 4.69727 6.28906 4.87793Q6.46484 5.05859 6.71875 5.05859ZM6.71875 8.03711L12.7637 8.03711Q13.0176 8.03711 13.1934 7.86133Q13.3691 7.68555 13.3691 7.43164Q13.3691 7.17773 13.1934 7.00195Q13.0176 6.82617 12.7637 6.82617L6.71875 6.82617Q6.46484 6.82617 6.28906 7.00195Q6.11328 7.17773 6.11328 7.43164Q6.11328 7.68555 6.28906 7.86133Q6.46484 8.03711 6.71875 8.03711ZM6.71875 11.1621L12.7637 11.1621Q13.0078 11.1621 13.1885 10.9863Q13.3691 10.8105 13.3691 10.5566Q13.3691 10.3027 13.1934 10.127Q13.0176 9.95117 12.7637 9.95117L6.71875 9.95117Q6.46484 9.95117 6.28906 10.127Q6.11328 10.3027 6.11328 10.5566Q6.11328 10.8105 6.28906 10.9863Q6.46484 11.1621 6.71875 11.1621Z" fill="#ffffff"/>
 </g>
</svg>
