<?xml version="1.0" encoding="UTF-8"?>
<!--Generator: Apple Native CoreSVG 175-->
<!DOCTYPE svg
PUBLIC "-//W3C//DTD SVG 1.1//EN"
       "http://www.w3.org/Graphics/SVG/1.1/DTD/svg11.dtd">
<svg version="1.1" xmlns="http://www.w3.org/2000/svg" xmlns:xlink="http://www.w3.org/1999/xlink" width="12.8477" height="25.1285">
 <g>
  <rect height="25.1285" opacity="0" width="12.8477" x="0" y="0"/>
  <path d="M0.609436 23.7695Q0.771179 23.7695 0.928802 23.6887Q1.08643 23.6078 1.24573 23.468L6.26556 18.8782Q6.36841 18.7993 6.4238 18.7993Q6.47934 18.7993 6.57501 18.8782L11.6019 23.468Q11.7586 23.6078 11.9141 23.6887Q12.0695 23.7695 12.2383 23.7695Q12.4973 23.7695 12.6725 23.5652Q12.8477 23.3609 12.8477 23.0835Q12.8477 22.9663 12.8141 22.8347Q12.7805 22.7031 12.7184 22.5531L7.1669 8.52692Q7.03247 8.19443 6.85722 8.02238Q6.68198 7.85034 6.4238 7.85034Q6.16562 7.85034 5.98694 8.02238Q5.80826 8.19443 5.67383 8.52692L0.122223 22.5531Q0.0671387 22.7031 0.0335693 22.8347Q0 22.9663 0 23.0835Q0 23.3609 0.175171 23.5652Q0.350342 23.7695 0.609436 23.7695ZM6.4238 5.81635Q6.5715 5.81635 6.6774 5.71693Q6.78329 5.61752 6.78329 5.40268L6.78329 0.410919Q6.78329 0.198822 6.6774 0.099411Q6.5715 0 6.4238 0Q6.28326 0 6.17249 0.099411Q6.06171 0.198822 6.06171 0.410919L6.06171 5.40268Q6.06171 5.61752 6.17249 5.71693Q6.28326 5.81635 6.4238 5.81635Z" fill="#ffffff"/>
 </g>
</svg>
