<?xml version="1.0" encoding="UTF-8"?>
<!--Generator: Apple Native CoreSVG 175.5-->
<!DOCTYPE svg
PUBLIC "-//W3C//DTD SVG 1.1//EN"
       "http://www.w3.org/Graphics/SVG/1.1/DTD/svg11.dtd">
<svg version="1.1" xmlns="http://www.w3.org/2000/svg" xmlns:xlink="http://www.w3.org/1999/xlink" width="18.7475" height="18.6721">
 <g>
  <rect height="18.6721" opacity="0" width="18.7475" x="0" y="0"/>
  <path d="M1.34012 10.0148L8.45926 10.044Q8.54715 10.044 8.57645 10.0733Q8.60575 10.1026 8.60575 10.1905L8.62528 17.2511Q8.62528 17.7101 8.82059 18.0177Q9.0159 18.3253 9.31864 18.462Q9.62137 18.5987 9.96805 18.5646Q10.3147 18.5304 10.6223 18.3009Q10.93 18.0714 11.1253 17.6515L13.0589 13.5011L11.9065 12.3487L10.1682 16.0987Q10.1585 16.128 10.139 16.1232Q10.1194 16.1183 10.1194 16.089L10.1585 10.5909L8.01981 8.46202L2.53153 8.49131Q2.50223 8.49131 2.49735 8.47178Q2.49247 8.45225 2.53153 8.43272L6.27176 6.72374L5.12919 5.57139L0.83231 7.57335Q0.422154 7.75889 0.221959 8.06163Q0.0217634 8.36436 0.00223214 8.69639Q-0.0172991 9.02842 0.134068 9.32628Q0.285435 9.62413 0.593052 9.81456Q0.90067 10.005 1.34012 10.0148ZM14.7679 9.80967L18.3421 2.13389Q18.5862 1.59678 18.5276 1.15733Q18.469 0.717877 18.1761 0.44444Q17.8831 0.171002 17.429 0.127057Q16.9749 0.0831117 16.4378 0.337018L8.80106 3.88194L9.97294 5.03428L16.5647 2.00694Q16.6136 1.98741 16.6331 2.00206Q16.6526 2.01671 16.6331 2.0753L13.596 8.64756Z" fill="#007aff"/>
  <path d="M17.4729 16.3233Q17.6878 16.5382 18.0052 16.5382Q18.3225 16.5382 18.5374 16.3233Q18.7425 16.0987 18.7473 15.7911Q18.7522 15.4835 18.5374 15.2589L3.49833 0.21983Q3.28348 0.0049867 2.9661 0.00010389Q2.64872-0.00477892 2.42411 0.21983Q2.20926 0.434674 2.20926 0.752057Q2.20926 1.06944 2.42411 1.28428Z" fill="#ffffff"/>
 </g>
</svg>
