<?xml version="1.0" encoding="UTF-8"?>
<!--Generator: Apple Native CoreSVG 175.5-->
<!DOCTYPE svg
PUBLIC "-//W3C//DTD SVG 1.1//EN"
       "http://www.w3.org/Graphics/SVG/1.1/DTD/svg11.dtd">
<svg version="1.1" xmlns="http://www.w3.org/2000/svg" xmlns:xlink="http://www.w3.org/1999/xlink" width="19.9219" height="19.9316">
 <g>
  <rect height="19.9316" opacity="0" width="19.9219" x="0" y="0"/>
  <path d="M9.96094 19.9219Q12.002 19.9219 13.8037 19.1406Q15.6055 18.3594 16.9824 16.9824Q18.3594 15.6055 19.1406 13.8037Q19.9219 12.002 19.9219 9.96094Q19.9219 7.91992 19.1406 6.11816Q18.3594 4.31641 16.9824 2.93945Q15.6055 1.5625 13.7988 0.78125Q11.9922 0 9.95117 0Q7.91016 0 6.1084 0.78125Q4.30664 1.5625 2.93457 2.93945Q1.5625 4.31641 0.78125 6.11816Q0 7.91992 0 9.96094Q0 12.002 0.78125 13.8037Q1.5625 15.6055 2.93945 16.9824Q4.31641 18.3594 6.11816 19.1406Q7.91992 19.9219 9.96094 19.9219Z" fill="#007aff"/>
  <path d="M12.6367 10.7422L8.99414 7.10938L13.75 4.85352Q14.1602 4.6582 14.4873 4.78516Q14.8145 4.91211 14.9414 5.23926Q15.0684 5.56641 14.8828 5.9668ZM4.30664 10.8105Q3.83789 10.8105 3.64746 10.5518Q3.45703 10.293 3.53027 9.98047Q3.60352 9.66797 3.94531 9.50195L6.45508 8.31055L8.95508 10.8105ZM10.2734 15.791Q10.1172 16.123 9.80469 16.2012Q9.49219 16.2793 9.2334 16.0938Q8.97461 15.9082 8.97461 15.4395L8.97461 10.8301L11.4355 13.3008ZM14.3066 14.9023L5.01953 5.61523Q4.87305 5.46875 4.87305 5.27344Q4.87305 5.07812 5.01953 4.95117Q5.15625 4.79492 5.34668 4.7998Q5.53711 4.80469 5.69336 4.95117L14.9805 14.2285Q15.127 14.3652 15.1221 14.5605Q15.1172 14.7559 14.9805 14.9023Q14.8438 15.0391 14.6436 15.0391Q14.4434 15.0391 14.3066 14.9023Z" fill="#ffffff"/>
 </g>
</svg>
