<?xml version="1.0" encoding="UTF-8"?>
<!--Generator: Apple Native CoreSVG 175.5-->
<!DOCTYPE svg
PUBLIC "-//W3C//DTD SVG 1.1//EN"
       "http://www.w3.org/Graphics/SVG/1.1/DTD/svg11.dtd">
<svg version="1.1" xmlns="http://www.w3.org/2000/svg" xmlns:xlink="http://www.w3.org/1999/xlink" width="23.2812" height="20.3613">
 <g>
  <rect height="20.3613" opacity="0" width="23.2812" x="0" y="0"/>
  <path d="M2.24609 16.8945L21.0254 16.8945Q22.0801 16.8945 22.6807 16.2939Q23.2812 15.6934 23.2812 14.6387L23.2812 2.92969Q23.2812 1.875 22.6807 1.2793Q22.0801 0.683594 21.0254 0.683594L2.24609 0.683594Q1.20117 0.683594 0.600586 1.2793Q0 1.875 0 2.92969L0 14.6387Q0 15.6934 0.600586 16.2939Q1.20117 16.8945 2.24609 16.8945ZM2.27539 15.3223Q1.95312 15.3223 1.7627 15.1318Q1.57227 14.9414 1.57227 14.6191L1.57227 2.95898Q1.57227 2.62695 1.7627 2.44141Q1.95312 2.25586 2.27539 2.25586L21.0059 2.25586Q21.3281 2.25586 21.5186 2.44141Q21.709 2.62695 21.709 2.95898L21.709 14.6191Q21.709 14.9414 21.5186 15.1318Q21.3281 15.3223 21.0059 15.3223ZM8.55469 19.2188L14.7266 19.2188L14.7266 16.7676L8.55469 16.7676ZM8.49609 20.3613L14.7852 20.3613Q15.1074 20.3613 15.3369 20.1318Q15.5664 19.9023 15.5664 19.5703Q15.5664 19.2383 15.3369 19.0088Q15.1074 18.7793 14.7852 18.7793L8.49609 18.7793Q8.17383 18.7793 7.93945 19.0088Q7.70508 19.2383 7.70508 19.5703Q7.70508 19.9023 7.93945 20.1318Q8.17383 20.3613 8.49609 20.3613Z" fill="#007aff"/>
  <path d="M9.99214 12.1065L13.3007 12.1065Q14.0956 12.1065 14.0956 11.2687L14.0956 8.72283Q14.0956 8.08905 13.6122 7.92793L13.6122 7.26192Q13.6122 6.27367 13.0697 5.66137Q12.5272 5.04908 11.6464 5.04908Q10.7656 5.04908 10.2231 5.66137Q9.68062 6.27367 9.68062 7.26192L9.68062 7.93867Q9.19724 8.08905 9.19724 8.72283L9.19724 11.2687Q9.19724 12.1065 9.99214 12.1065ZM10.6474 7.8957L10.6474 7.17599Q10.6474 6.63889 10.9213 6.31663Q11.1952 5.99437 11.6464 5.99437Q12.0976 5.99437 12.3715 6.31663Q12.6454 6.63889 12.6454 7.17599L12.6454 7.8957Z" fill="#ffffff"/>
 </g>
</svg>
