<?xml version="1.0" encoding="UTF-8"?>
<!--Generator: Apple Native CoreSVG 175.5-->
<!DOCTYPE svg
PUBLIC "-//W3C//DTD SVG 1.1//EN"
       "http://www.w3.org/Graphics/SVG/1.1/DTD/svg11.dtd">
<svg version="1.1" xmlns="http://www.w3.org/2000/svg" xmlns:xlink="http://www.w3.org/1999/xlink" width="20.0977" height="19.6191">
 <g>
  <rect height="19.6191" opacity="0" width="20.0977" x="0" y="0"/>
  <path d="M2.1875 19.1504L11.1328 19.1504Q12.2266 19.1504 12.7734 18.5889Q13.3203 18.0273 13.3203 16.8262L13.3203 10.0977Q13.3203 8.91602 12.7734 8.35449Q12.2266 7.79297 11.1328 7.79297L2.1875 7.79297Q1.09375 7.79297 0.546875 8.35449Q0 8.91602 0 10.0977L0 16.8262Q0 18.0273 0.546875 18.5889Q1.09375 19.1504 2.1875 19.1504ZM2.24609 17.6855Q1.9043 17.6855 1.73828 17.5146Q1.57227 17.3438 1.57227 16.9336L1.57227 10Q1.57227 9.58984 1.73828 9.42383Q1.9043 9.25781 2.24609 9.25781L11.084 9.25781Q11.4258 9.25781 11.5869 9.42383Q11.748 9.58984 11.748 10L11.748 16.9336Q11.748 17.3438 11.5869 17.5146Q11.4258 17.6855 11.084 17.6855ZM10.166 8.56445L11.7383 8.56445L11.7383 5.25391Q11.7383 4.02344 12.207 3.18848Q12.6758 2.35352 13.4473 1.92871Q14.2188 1.50391 15.1367 1.50391Q16.0449 1.50391 16.8213 1.92871Q17.5977 2.35352 18.0615 3.18848Q18.5254 4.02344 18.5254 5.25391L18.5254 7.42188Q18.5254 7.87109 18.7598 8.09082Q18.9941 8.31055 19.3262 8.31055Q19.6484 8.31055 19.873 8.10059Q20.0977 7.89062 20.0977 7.42188L20.0977 5.45898Q20.0977 4.08203 19.6875 3.05664Q19.2773 2.03125 18.5742 1.35254Q17.8711 0.673828 16.9824 0.336914Q16.0938 0 15.1367 0Q14.1797 0 13.2861 0.336914Q12.3926 0.673828 11.6895 1.35254Q10.9863 2.03125 10.5762 3.05664Q10.166 4.08203 10.166 5.45898Z" fill="#ffffff"/>
 </g>
</svg>
