<?xml version="1.0" encoding="UTF-8"?>
<!--Generator: Apple Native CoreSVG 175.5-->
<!DOCTYPE svg
PUBLIC "-//W3C//DTD SVG 1.1//EN"
       "http://www.w3.org/Graphics/SVG/1.1/DTD/svg11.dtd">
<svg version="1.1" xmlns="http://www.w3.org/2000/svg" xmlns:xlink="http://www.w3.org/1999/xlink" width="16.4258" height="20.9473">
 <g>
  <rect height="20.9473" opacity="0" width="16.4258" x="0" y="0"/>
  <path d="M3.02734 20.9375L13.3984 20.9375Q14.9121 20.9375 15.6689 20.1709Q16.4258 19.4043 16.4258 17.8809L16.4258 9.01367Q16.4258 8.37891 16.3574 7.94922Q16.2891 7.51953 16.0889 7.16309Q15.8887 6.80664 15.498 6.40625L10.1172 0.927734Q9.74609 0.546875 9.39453 0.34668Q9.04297 0.146484 8.62793 0.0732422Q8.21289 0 7.66602 0L3.02734 0Q1.51367 0 0.756836 0.771484Q0 1.54297 0 3.06641L0 17.8809Q0 19.4141 0.756836 20.1758Q1.51367 20.9375 3.02734 20.9375ZM3.0957 19.3652Q2.34375 19.3652 1.95801 18.9746Q1.57227 18.584 1.57227 17.8516L1.57227 3.0957Q1.57227 2.37305 1.95801 1.97266Q2.34375 1.57227 3.10547 1.57227L7.45117 1.57227L7.45117 7.24609Q7.45117 8.16406 7.91016 8.62305Q8.36914 9.08203 9.28711 9.08203L14.8535 9.08203L14.8535 17.8516Q14.8535 18.584 14.4678 18.9746Q14.082 19.3652 13.3203 19.3652ZM9.46289 7.60742Q9.16992 7.60742 9.04785 7.48047Q8.92578 7.35352 8.92578 7.06055L8.92578 1.875L14.5508 7.60742Z" fill="#007aff"/>
  <path d="M5.32227 17.4121Q5.32227 18.291 6.14258 18.291L10.3027 18.291Q11.123 18.291 11.123 17.4121L11.123 14.209Q11.123 13.3887 10.4199 13.3398L10.4199 12.3828Q10.4199 11.2793 9.81445 10.6006Q9.20898 9.92188 8.22266 9.92188Q7.24609 9.92188 6.64062 10.6006Q6.03516 11.2793 6.03516 12.3828L6.03516 13.3398Q5.32227 13.3887 5.32227 14.209ZM6.86523 13.3301L6.86523 12.2949Q6.86523 11.5918 7.24121 11.1621Q7.61719 10.7324 8.22266 10.7324Q8.83789 10.7324 9.20898 11.1621Q9.58008 11.5918 9.58008 12.2949L9.58008 13.3301Z" fill="#ffffff"/>
 </g>
</svg>
