<?xml version="1.0" encoding="UTF-8"?>
<!--Generator: Apple Native CoreSVG 175.5-->
<!DOCTYPE svg
PUBLIC "-//W3C//DTD SVG 1.1//EN"
       "http://www.w3.org/Graphics/SVG/1.1/DTD/svg11.dtd">
<svg version="1.1" xmlns="http://www.w3.org/2000/svg" xmlns:xlink="http://www.w3.org/1999/xlink" width="17.9785" height="17.998">
 <g>
  <rect height="17.998" opacity="0" width="17.9785" x="0" y="0"/>
  <path d="M3.06641 17.998L14.9121 17.998Q16.4453 17.998 17.2119 17.2412Q17.9785 16.4844 17.9785 14.9707L17.9785 3.04688Q17.9785 1.5332 17.2119 0.776367Q16.4453 0.0195312 14.9121 0.0195312L3.06641 0.0195312Q1.5332 0.0195312 0.766602 0.776367Q0 1.5332 0 3.04688L0 14.9707Q0 16.4844 0.766602 17.2412Q1.5332 17.998 3.06641 17.998ZM3.08594 16.4258Q2.35352 16.4258 1.96289 16.04Q1.57227 15.6543 1.57227 14.8926L1.57227 3.125Q1.57227 2.36328 1.96289 1.97754Q2.35352 1.5918 3.08594 1.5918L14.8926 1.5918Q15.6152 1.5918 16.0107 1.97754Q16.4062 2.36328 16.4062 3.125L16.4062 14.8926Q16.4062 15.6543 16.0107 16.04Q15.6152 16.4258 14.8926 16.4258Z" fill="#007aff"/>
  <path d="M5.20508 13.5254Q5.53711 13.5254 5.72754 13.3154Q5.91797 13.1055 5.91797 12.7246L5.91797 7.08984L5.99609 7.08984L8.24219 12.7148Q8.45703 13.2324 8.98438 13.2324Q9.52148 13.2324 9.73633 12.7148L11.9922 7.08984L12.0703 7.08984L12.0703 12.7246Q12.0703 13.5254 12.7734 13.5254Q13.1152 13.5254 13.3008 13.3154Q13.4863 13.1055 13.4863 12.7246L13.4863 5.24414Q13.4863 4.84375 13.2324 4.58984Q12.9785 4.33594 12.5684 4.33594Q11.875 4.33594 11.6211 4.9707L9.0332 11.4648L8.97461 11.4648L6.37695 4.9707Q6.11328 4.33594 5.41992 4.33594Q5.01953 4.33594 4.76074 4.58984Q4.50195 4.84375 4.50195 5.24414L4.50195 12.7246Q4.50195 13.5254 5.20508 13.5254Z" fill="#ffffff"/>
 </g>
</svg>
