<?xml version="1.0" encoding="UTF-8"?>
<!--Generator: Apple Native CoreSVG 175.5-->
<!DOCTYPE svg
PUBLIC "-//W3C//DTD SVG 1.1//EN"
       "http://www.w3.org/Graphics/SVG/1.1/DTD/svg11.dtd">
<svg version="1.1" xmlns="http://www.w3.org/2000/svg" xmlns:xlink="http://www.w3.org/1999/xlink" width="13.1836" height="18.6035">
 <g>
  <rect height="18.6035" opacity="0" width="13.1836" x="0" y="0"/>
  <path d="M0.927734 18.4277Q1.34766 18.4277 1.60645 18.1689Q1.86523 17.9102 1.86523 17.4609L1.86523 11.2988Q1.86523 7.95898 3.1543 6.32812Q4.44336 4.69727 6.5918 4.69727Q8.74023 4.69727 10.0293 6.32812Q11.3184 7.95898 11.3184 11.2988L11.3184 17.4609Q11.3184 17.9102 11.5723 18.1689Q11.8262 18.4277 12.2461 18.4277Q12.666 18.4277 12.9248 18.1689Q13.1836 17.9102 13.1836 17.4609L13.1836 11.1523Q13.1836 8.4668 12.3584 6.65039Q11.5332 4.83398 10.0537 3.90625Q8.57422 2.97852 6.5918 2.97852Q4.60938 2.97852 3.125 3.90625Q1.64062 4.83398 0.820312 6.65039Q0 8.4668 0 11.1523L0 17.4609Q0 17.9102 0.258789 18.1689Q0.517578 18.4277 0.927734 18.4277ZM5.84961 17.6953Q5.84961 17.998 6.06445 18.2129Q6.2793 18.4277 6.5918 18.4277Q6.89453 18.4277 7.10938 18.2129Q7.32422 17.998 7.32422 17.6953L7.32422 0.732422Q7.32422 0.429688 7.10938 0.214844Q6.89453 0 6.5918 0Q6.2793 0 6.06445 0.214844Q5.84961 0.429688 5.84961 0.732422Z" fill="#ffffff"/>
 </g>
</svg>
