<?xml version="1.0" encoding="UTF-8"?>
<!--Generator: Apple Native CoreSVG 175.5-->
<!DOCTYPE svg
PUBLIC "-//W3C//DTD SVG 1.1//EN"
       "http://www.w3.org/Graphics/SVG/1.1/DTD/svg11.dtd">
<svg version="1.1" xmlns="http://www.w3.org/2000/svg" xmlns:xlink="http://www.w3.org/1999/xlink" width="18.5449" height="21.4551">
 <g>
  <rect height="21.4551" opacity="0" width="18.5449" x="0" y="0"/>
  <path d="M9.27734 21.4453Q11.4844 21.4453 13.208 21.0986Q14.9316 20.752 16.123 20.1611Q17.3145 19.5703 17.9297 18.8232Q18.5449 18.0762 18.5449 17.2656Q18.5449 16.4941 18.1104 15.8447Q17.6758 15.1953 16.9434 14.6875Q16.2109 14.1797 15.3174 13.8232Q14.4238 13.4668 13.501 13.2764Q12.5781 13.0859 11.7676 13.0859L11.7676 14.5117Q12.4805 14.5215 13.3057 14.7119Q14.1309 14.9023 14.873 15.2344Q15.6152 15.5664 16.0938 16.0254Q16.5723 16.4844 16.5723 17.0312Q16.5723 17.666 16.0254 18.1885Q15.4785 18.7109 14.4971 19.0967Q13.5156 19.4824 12.1826 19.6924Q10.8496 19.9023 9.27734 19.9023Q7.69531 19.9023 6.3623 19.6924Q5.0293 19.4824 4.04785 19.1016Q3.06641 18.7207 2.52441 18.1934Q1.98242 17.666 1.98242 17.0312Q1.98242 16.4844 2.45605 16.0254Q2.92969 15.5664 3.67188 15.2344Q4.41406 14.9023 5.24414 14.7119Q6.07422 14.5215 6.77734 14.5117L6.77734 13.0859Q5.97656 13.0859 5.05371 13.2764Q4.13086 13.4668 3.2373 13.8232Q2.34375 14.1797 1.61133 14.6875Q0.878906 15.1953 0.439453 15.8447Q0 16.4941 0 17.2656Q0 18.0762 0.620117 18.8232Q1.24023 19.5703 2.43164 20.1611Q3.62305 20.752 5.34668 21.0986Q7.07031 21.4453 9.27734 21.4453Z" fill="#007aff"/>
  <path d="M5.60547 3.68164Q5.60547 4.54102 5.96191 5.27344Q6.31836 6.00586 6.94336 6.52344Q7.56836 7.04102 8.35938 7.23633L8.35938 13.418Q8.35938 14.502 8.44727 15.332Q8.53516 16.1621 8.67188 16.7285Q8.80859 17.2949 8.96484 17.583Q9.12109 17.8711 9.26758 17.8711Q9.41406 17.8711 9.5752 17.583Q9.73633 17.2949 9.86816 16.7285Q10 16.1621 10.0879 15.332Q10.1758 14.502 10.1758 13.418L10.1758 7.23633Q10.9668 7.04102 11.5918 6.52344Q12.2168 6.00586 12.5781 5.27344Q12.9395 4.54102 12.9395 3.68164Q12.9395 2.66602 12.4463 1.83105Q11.9531 0.996094 11.123 0.498047Q10.293 0 9.26758 0Q8.25195 0 7.42188 0.498047Q6.5918 0.996094 6.09863 1.83105Q5.60547 2.66602 5.60547 3.68164Z" fill="#ffffff"/>
  <path d="M8.22266 3.87695Q7.72461 3.87695 7.34863 3.50098Q6.97266 3.125 6.97266 2.61719Q6.97266 2.10938 7.34863 1.73828Q7.72461 1.36719 8.22266 1.36719Q8.74023 1.36719 9.11133 1.73828Q9.48242 2.10938 9.48242 2.61719Q9.48242 3.125 9.11133 3.50098Q8.74023 3.87695 8.22266 3.87695Z" fill="none"/>
 </g>
</svg>
