<?xml version="1.0" encoding="UTF-8"?>
<!--Generator: Apple Native CoreSVG 175-->
<!DOCTYPE svg
PUBLIC "-//W3C//DTD SVG 1.1//EN"
       "http://www.w3.org/Graphics/SVG/1.1/DTD/svg11.dtd">
<svg version="1.1" xmlns="http://www.w3.org/2000/svg" xmlns:xlink="http://www.w3.org/1999/xlink" width="17.2852" height="17.3145">
 <g>
  <rect height="17.3145" opacity="0" width="17.2852" x="0" y="0"/>
  <path d="M2.62695 17.3145L14.6484 17.3145Q15.957 17.3145 16.6211 16.6455Q17.2852 15.9766 17.2852 14.6875L17.2852 2.65625Q17.2852 1.37695 16.6211 0.703125Q15.957 0.0292969 14.6484 0.0292969L2.62695 0.0292969Q1.33789 0.0292969 0.668945 0.693359Q0 1.35742 0 2.65625L0 14.6875Q0 15.9863 0.668945 16.6504Q1.33789 17.3145 2.62695 17.3145ZM2.65625 16.5918Q1.70898 16.5918 1.2207 16.1035Q0.732422 15.6152 0.732422 14.6582L0.732422 2.69531Q0.732422 1.72852 1.2207 1.24512Q1.70898 0.761719 2.65625 0.761719L14.6289 0.761719Q15.5566 0.761719 16.0596 1.24512Q16.5625 1.72852 16.5625 2.69531L16.5625 14.6582Q16.5625 15.6152 16.0596 16.1035Q15.5566 16.5918 14.6289 16.5918Z" fill="#007aff"/>
  <path d="M6.79688 4.63867Q6.79688 5.3125 7.23633 5.82031Q7.67578 6.32812 8.32031 6.45508L8.32031 13.0469Q8.32031 13.5645 8.36426 13.9307Q8.4082 14.2969 8.48633 14.4922Q8.56445 14.6875 8.65234 14.6875Q8.75 14.6875 8.82324 14.4922Q8.89648 14.2969 8.93555 13.9307Q8.97461 13.5645 8.97461 13.0469L8.97461 6.45508Q9.62891 6.32812 10.0684 5.8252Q10.5078 5.32227 10.5078 4.63867Q10.5078 4.12109 10.2588 3.70117Q10.0098 3.28125 9.58984 3.03223Q9.16992 2.7832 8.65234 2.7832Q8.14453 2.7832 7.71973 3.03223Q7.29492 3.28125 7.0459 3.70117Q6.79688 4.12109 6.79688 4.63867ZM7.54883 4.15039Q7.53906 3.88672 7.73438 3.70117Q7.92969 3.51562 8.18359 3.51562Q8.42773 3.51562 8.61328 3.70117Q8.79883 3.88672 8.78906 4.15039Q8.7793 4.4043 8.60352 4.58984Q8.42773 4.77539 8.18359 4.77539Q7.92969 4.77539 7.74414 4.58984Q7.55859 4.4043 7.54883 4.15039Z" fill="#ffffff"/>
 </g>
</svg>
