<?xml version="1.0" encoding="UTF-8"?>
<!--Generator: Apple Native CoreSVG 175.5-->
<!DOCTYPE svg
PUBLIC "-//W3C//DTD SVG 1.1//EN"
       "http://www.w3.org/Graphics/SVG/1.1/DTD/svg11.dtd">
<svg version="1.1" xmlns="http://www.w3.org/2000/svg" xmlns:xlink="http://www.w3.org/1999/xlink" width="19.9219" height="19.9316">
 <g>
  <rect height="19.9316" opacity="0" width="19.9219" x="0" y="0"/>
  <path d="M9.96094 19.9219Q12.002 19.9219 13.8037 19.1406Q15.6055 18.3594 16.9824 16.9824Q18.3594 15.6055 19.1406 13.8037Q19.9219 12.002 19.9219 9.96094Q19.9219 7.91992 19.1406 6.11816Q18.3594 4.31641 16.9824 2.93945Q15.6055 1.5625 13.7988 0.78125Q11.9922 0 9.95117 0Q7.91016 0 6.1084 0.78125Q4.30664 1.5625 2.93457 2.93945Q1.5625 4.31641 0.78125 6.11816Q0 7.91992 0 9.96094Q0 12.002 0.78125 13.8037Q1.5625 15.6055 2.93945 16.9824Q4.31641 18.3594 6.11816 19.1406Q7.91992 19.9219 9.96094 19.9219ZM9.96094 18.2617Q8.23242 18.2617 6.72852 17.6172Q5.22461 16.9727 4.08691 15.835Q2.94922 14.6973 2.30957 13.1934Q1.66992 11.6895 1.66992 9.96094Q1.66992 8.23242 2.30957 6.72852Q2.94922 5.22461 4.08203 4.08203Q5.21484 2.93945 6.71875 2.2998Q8.22266 1.66016 9.95117 1.66016Q11.6797 1.66016 13.1885 2.2998Q14.6973 2.93945 15.835 4.08203Q16.9727 5.22461 17.6172 6.72852Q18.2617 8.23242 18.2617 9.96094Q18.2617 11.6895 17.6221 13.1934Q16.9824 14.6973 15.8398 15.835Q14.6973 16.9727 13.1934 17.6172Q11.6895 18.2617 9.96094 18.2617Z" fill="#007aff"/>
  <path d="M10.6152 8.4668Q11.2988 8.25195 11.7432 7.66602Q12.1875 7.08008 12.1875 6.32812Q12.1875 5.70312 11.8848 5.19531Q11.582 4.6875 11.0693 4.38477Q10.5566 4.08203 9.94141 4.08203Q9.18945 4.08203 8.60352 4.52637Q8.01758 4.9707 7.8125 5.6543ZM8.66211 5.73242Q8.65234 5.44922 8.87207 5.23438Q9.0918 5.01953 9.36523 5.01953Q9.6582 5.01953 9.86816 5.23438Q10.0781 5.44922 10.0781 5.73242Q10.0781 6.01562 9.86816 6.23047Q9.6582 6.44531 9.36523 6.44531Q9.0918 6.44531 8.87695 6.23047Q8.66211 6.01562 8.66211 5.73242ZM9.26758 10.957L9.26758 13.3301Q9.26758 14.043 9.3457 14.6582Q9.42383 15.2734 9.57031 15.6494Q9.7168 16.0254 9.94141 16.0254Q10.166 16.0254 10.3125 15.6543Q10.459 15.2832 10.5322 14.668Q10.6055 14.0527 10.6055 13.3301L10.6055 12.2949ZM14.502 15.1367Q14.6289 15.2637 14.8145 15.2637Q15 15.2637 15.127 15.1367Q15.2637 15 15.2637 14.8242Q15.2637 14.6484 15.127 14.5117L5.40039 4.77539Q5.26367 4.64844 5.08301 4.64844Q4.90234 4.64844 4.76562 4.77539Q4.63867 4.91211 4.63867 5.09766Q4.63867 5.2832 4.76562 5.40039Z" fill="#ffffff"/>
 </g>
</svg>
