<?xml version="1.0" encoding="UTF-8"?>
<!--Generator: Apple Native CoreSVG 175.5-->
<!DOCTYPE svg
PUBLIC "-//W3C//DTD SVG 1.1//EN"
       "http://www.w3.org/Graphics/SVG/1.1/DTD/svg11.dtd">
<svg version="1.1" xmlns="http://www.w3.org/2000/svg" xmlns:xlink="http://www.w3.org/1999/xlink" width="18.5658" height="22.4121">
 <g>
  <rect height="22.4121" opacity="0" width="18.5658" x="0" y="0"/>
  <path d="M4.05339 13.0176L5.09831 11.9336L1.62174 5.10742L3.19401 2.69531L7.3151 10.8203L8.91667 10.5566L4.14128 1.66016L14.4245 1.66016L9.64909 10.5566L11.2507 10.8203L15.3717 2.69531L16.9538 5.10742L13.4674 11.9336L14.5124 13.0176L18.4382 5.64453Q18.5749 5.40039 18.5651 5.13672Q18.5553 4.87305 18.4089 4.64844L15.7624 0.595703Q15.4792 0.185547 14.9323 0.185547L3.64323 0.185547Q3.09635 0.185547 2.81315 0.595703L0.156901 4.64844Q0.0104167 4.87305 0.000651042 5.13672Q-0.00911458 5.40039 0.127604 5.64453ZM5.66471 6.14258L12.9108 6.14258L12.9108 4.66797L5.66471 4.66797ZM9.28776 22.4121Q10.6159 22.4121 11.7731 21.9189Q12.9303 21.4258 13.8141 20.542Q14.6979 19.6582 15.1911 18.4961Q15.6842 17.334 15.6842 16.0156Q15.6842 14.6875 15.1911 13.5254Q14.6979 12.3633 13.8141 11.4844Q12.9303 10.6055 11.7731 10.1074Q10.6159 9.60938 9.28776 9.60938Q7.95964 9.60938 6.79753 10.1074Q5.63542 10.6055 4.75651 11.4844Q3.8776 12.3633 3.37956 13.5254Q2.88151 14.6875 2.88151 16.0156Q2.88151 17.334 3.37956 18.4961Q3.8776 19.6582 4.75651 20.542Q5.63542 21.4258 6.79753 21.9189Q7.95964 22.4121 9.28776 22.4121ZM9.28776 20.9375Q7.92057 20.9375 6.80241 20.2734Q5.68424 19.6094 5.02018 18.4912Q4.35612 17.373 4.35612 16.0156Q4.35612 14.6484 5.02018 13.5303Q5.68424 12.4121 6.80241 11.748Q7.92057 11.084 9.28776 11.084Q10.6452 11.084 11.7633 11.748Q12.8815 12.4121 13.5456 13.5303Q14.2096 14.6484 14.2096 16.0156Q14.2096 17.373 13.5456 18.4912Q12.8815 19.6094 11.7633 20.2734Q10.6452 20.9375 9.28776 20.9375ZM7.56901 19.1016L9.29753 17.8418L11.0065 19.1016Q11.2799 19.2969 11.4948 19.1406Q11.7096 18.9844 11.612 18.6816L10.9186 16.6406L12.6667 15.3906Q12.9108 15.2246 12.8473 14.9609Q12.7839 14.6973 12.4421 14.6973L10.3034 14.7168L9.64909 12.666Q9.55143 12.3633 9.28776 12.3633Q9.02409 12.3633 8.92643 12.666L8.27214 14.7168L6.13346 14.6973Q5.80143 14.6973 5.73307 14.9609Q5.66471 15.2246 5.91862 15.4004L7.66667 16.6406L6.97331 18.6816Q6.87565 18.9844 7.08561 19.1406Q7.29557 19.2969 7.56901 19.1016Z" fill="#ffffff"/>
 </g>
</svg>
