<?xml version="1.0" encoding="UTF-8"?>
<!--Generator: Apple Native CoreSVG 175.5-->
<!DOCTYPE svg
PUBLIC "-//W3C//DTD SVG 1.1//EN"
       "http://www.w3.org/Graphics/SVG/1.1/DTD/svg11.dtd">
<svg version="1.1" xmlns="http://www.w3.org/2000/svg" xmlns:xlink="http://www.w3.org/1999/xlink" width="21.2393" height="21.5137">
 <g>
  <rect height="21.5137" opacity="0" width="21.2393" x="0" y="0"/>
  <path d="M14.7559 1.33789L20.1758 6.76758L20.2246 6.71875Q20.957 5.98633 21.1572 5.04395Q21.3574 4.10156 21.0693 3.15918Q20.7812 2.2168 20.0488 1.48438Q19.3164 0.742188 18.3691 0.454102Q17.4219 0.166016 16.4795 0.366211Q15.5371 0.566406 14.8047 1.28906ZM1.88477 17.7832L3.73047 19.6289L4.95117 18.4082Q5.69336 17.6758 6.47461 17.2559Q7.25586 16.8359 8.06152 16.5674Q8.86719 16.2988 9.67773 16.0205Q10.4883 15.7422 11.2891 15.3027Q12.0898 14.8633 12.8613 14.0918L19.3945 7.55859L13.9551 2.11914L7.42188 8.66211Q6.62109 9.47266 6.17188 10.2783Q5.72266 11.084 5.44922 11.8896Q5.17578 12.6953 4.91699 13.4863Q4.6582 14.2773 4.25293 15.0488Q3.84766 15.8203 3.10547 16.5625ZM10.5957 10.9668Q10.1172 10.4883 10.127 9.83398Q10.1367 9.17969 10.5957 8.7207L13.5449 5.75195Q14.0039 5.29297 14.6582 5.2832Q15.3125 5.27344 15.7617 5.75195Q16.2402 6.20117 16.2402 6.8457Q16.2402 7.49023 15.7617 7.96875L12.8125 10.9473Q12.3535 11.4062 11.6992 11.4111Q11.0449 11.416 10.5957 10.9668ZM8.47656 11.9238Q8.27148 11.7383 8.2959 11.4941Q8.32031 11.25 8.47656 11.084Q8.64258 10.9082 8.87695 10.9033Q9.11133 10.8984 9.30664 11.084L10.4395 12.207Q10.6445 12.4023 10.6299 12.6416Q10.6152 12.8809 10.4395 13.0566Q10.2734 13.2129 10.0391 13.2227Q9.80469 13.2324 9.59961 13.0371ZM11.2988 10.2441Q11.4844 10.4297 11.7285 10.4639Q11.9727 10.498 12.168 10.3027L15.127 7.32422Q15.3223 7.12891 15.2881 6.88477Q15.2539 6.64062 15.0684 6.46484Q14.873 6.2793 14.6191 6.26953Q14.3652 6.25977 14.1699 6.45508L11.2988 9.33594Q11.1133 9.53125 11.1133 9.79004Q11.1133 10.0488 11.2988 10.2441ZM0.429688 21.084Q0.849609 21.5137 1.35742 21.5137Q1.86523 21.5137 2.29492 21.084L2.80273 20.5859L0.9375 18.7207L0.429688 19.2285Q0 19.6582 0 20.166Q0 20.6738 0.429688 21.084Z" fill="#ffffff"/>
 </g>
</svg>
