<?xml version="1.0" encoding="UTF-8"?>
<!--Generator: Apple Native CoreSVG 175-->
<!DOCTYPE svg
PUBLIC "-//W3C//DTD SVG 1.1//EN"
       "http://www.w3.org/Graphics/SVG/1.1/DTD/svg11.dtd">
<svg version="1.1" xmlns="http://www.w3.org/2000/svg" xmlns:xlink="http://www.w3.org/1999/xlink" width="24.6877" height="9.57611">
 <g>
  <rect height="9.57611" opacity="0" width="24.6877" x="0" y="0"/>
  <path d="M20.2245 7.40784L23.2233 7.40784Q23.9084 7.40784 24.298 7.03766Q24.6877 6.66748 24.6877 6.04095L24.6877 3.5144Q24.6877 2.88086 24.298 2.51076Q23.9084 2.14066 23.2233 2.14066L20.2245 2.14066Q20.3487 2.6886 20.4059 3.34679Q20.4631 4.00497 20.4631 4.78043Q20.4631 5.54611 20.401 6.20293Q20.3389 6.85974 20.2245 7.40784Z" fill="#007aff"/>
  <path d="M2.96495 9.55109L16.6342 9.55109Q17.7084 9.55109 18.358 9.07806Q19.0076 8.60504 19.3033 7.55699Q19.599 6.50894 19.599 4.78043Q19.599 3.05191 19.3068 1.99898Q19.0146 0.946045 18.365 0.473022Q17.7155 0 16.6342 0L2.96495 0Q1.88371 0 1.22926 0.473022Q0.574811 0.946045 0.283979 1.99898Q-0.00685364 3.05191 0.000165408 4.78043Q0.000165408 6.50894 0.294507 7.55699Q0.588849 8.60504 1.23979 9.07806Q1.89073 9.55109 2.96495 9.55109ZM2.96495 4.06326Q2.57753 4.06326 2.3092 3.79845Q2.04088 3.53363 2.04088 3.14606Q2.04088 2.76123 2.3092 2.5013Q2.57753 2.24136 2.96495 2.24136Q3.34977 2.24136 3.60971 2.5013Q3.86964 2.76123 3.86964 3.14606Q3.86964 3.53363 3.60971 3.79845Q3.34977 4.06326 2.96495 4.06326Z" fill="#ffffff"/>
 </g>
</svg>
