<?xml version="1.0" encoding="UTF-8"?>
<!--Generator: Apple Native CoreSVG 175.5-->
<!DOCTYPE svg
PUBLIC "-//W3C//DTD SVG 1.1//EN"
       "http://www.w3.org/Graphics/SVG/1.1/DTD/svg11.dtd">
<svg version="1.1" xmlns="http://www.w3.org/2000/svg" xmlns:xlink="http://www.w3.org/1999/xlink" width="16.2305" height="22.5439">
 <g>
  <rect height="22.5439" opacity="0" width="16.2305" x="0" y="0"/>
  <path d="M1.92383 20.5151L13.0273 22.478Q14.0234 22.6538 14.7412 22.3608Q15.459 22.0679 15.8447 21.3501Q16.2305 20.6323 16.2305 19.5483L16.2305 7.46826Q16.2305 5.97412 15.4688 5.31982Q14.707 4.66553 13.2227 4.41162L2.45117 2.50732Q1.70898 2.38037 1.15723 2.58545Q0.605469 2.79053 0.302734 3.28857Q0 3.78662 0 4.51904L0 18.2983Q0 19.2358 0.483398 19.7925Q0.966797 20.3491 1.92383 20.5151ZM2.30469 18.9624Q1.93359 18.9038 1.75293 18.6841Q1.57227 18.4644 1.57227 18.0737L1.57227 4.78271Q1.57227 4.39209 1.82129 4.20166Q2.07031 4.01123 2.5 4.08936L13.1445 5.95459Q13.8867 6.09131 14.2725 6.42822Q14.6582 6.76514 14.6582 7.44873L14.6582 19.3823Q14.6582 20.2124 14.2041 20.603Q13.75 20.9937 12.959 20.8472ZM13.7891 5.61279L15.3613 5.61279L15.3613 3.32764Q15.3613 1.78467 14.3848 1.09131Q13.4082 0.397949 11.6699 0.700684L1.46484 2.50732L2.05078 3.86475L12.2266 2.17529Q12.959 2.04834 13.374 2.34131Q13.7891 2.63428 13.7891 3.26904ZM4.01367 8.38623L11.543 9.71436Q11.8848 9.77295 12.085 9.5874Q12.2852 9.40186 12.2852 9.09912Q12.2852 8.56201 11.7578 8.46436L4.26758 7.15576Q3.93555 7.09717 3.7207 7.26807Q3.50586 7.43896 3.50586 7.7417Q3.50586 7.99561 3.6377 8.17139Q3.76953 8.34717 4.01367 8.38623ZM4.01367 12.1948L11.543 13.5229Q11.8848 13.5815 12.085 13.396Q12.2852 13.2104 12.2852 12.9077Q12.2852 12.3706 11.7578 12.2729L4.26758 10.9644Q3.93555 10.9058 3.7207 11.0815Q3.50586 11.2573 3.50586 11.5503Q3.50586 11.814 3.6377 11.9849Q3.76953 12.1558 4.01367 12.1948Z" fill="#ffffff"/>
 </g>
</svg>
