<?xml version="1.0" encoding="UTF-8"?>
<!--Generator: Apple Native CoreSVG 175.5-->
<!DOCTYPE svg
PUBLIC "-//W3C//DTD SVG 1.1//EN"
       "http://www.w3.org/Graphics/SVG/1.1/DTD/svg11.dtd">
<svg version="1.1" xmlns="http://www.w3.org/2000/svg" xmlns:xlink="http://www.w3.org/1999/xlink" width="17.9785" height="17.998">
 <g>
  <rect height="17.998" opacity="0" width="17.9785" x="0" y="0"/>
  <path d="M3.06641 17.998L14.9121 17.998Q16.4453 17.998 17.2119 17.2412Q17.9785 16.4844 17.9785 14.9707L17.9785 3.04688Q17.9785 1.5332 17.2119 0.776367Q16.4453 0.0195312 14.9121 0.0195312L3.06641 0.0195312Q1.5332 0.0195312 0.766602 0.776367Q0 1.5332 0 3.04688L0 14.9707Q0 16.4844 0.766602 17.2412Q1.5332 17.998 3.06641 17.998Z" fill="#007aff"/>
  <path d="M6.43555 15.0391Q6.2207 15.0391 6.05469 14.8828Q5.88867 14.7266 5.88867 14.502Q5.88867 14.2871 6.05469 14.1211Q6.2207 13.9551 6.43555 13.9551L8.45703 13.9551L8.45703 12.9395Q7.45117 12.832 6.69922 12.3145Q5.94727 11.7969 5.52734 10.9814Q5.10742 10.166 5.10742 9.14062L5.10742 7.8418Q5.10742 7.63672 5.26855 7.47559Q5.42969 7.31445 5.64453 7.31445Q5.85938 7.31445 6.01562 7.47559Q6.17188 7.63672 6.17188 7.8418L6.17188 9.14062Q6.17188 9.96094 6.5332 10.5957Q6.89453 11.2305 7.5293 11.5918Q8.16406 11.9531 8.99414 11.9531Q9.82422 11.9531 10.4639 11.5918Q11.1035 11.2305 11.4648 10.5957Q11.8262 9.96094 11.8262 9.14062L11.8262 7.8418Q11.8262 7.63672 11.9824 7.47559Q12.1387 7.31445 12.3535 7.31445Q12.5684 7.31445 12.7295 7.47559Q12.8906 7.63672 12.8906 7.8418L12.8906 9.14062Q12.8906 10.166 12.4707 10.9814Q12.0508 11.7969 11.2988 12.3096Q10.5469 12.8223 9.55078 12.9395L9.55078 13.9551L11.5625 13.9551Q11.7871 13.9551 11.9482 14.1211Q12.1094 14.2871 12.1094 14.502Q12.1094 14.7168 11.9434 14.8779Q11.7773 15.0391 11.5625 15.0391ZM8.99414 10.9375Q8.25195 10.9375 7.78809 10.4248Q7.32422 9.91211 7.32422 9.14062L7.32422 4.82422Q7.32422 4.0625 7.78809 3.55957Q8.25195 3.05664 8.99414 3.05664Q9.73633 3.05664 10.2002 3.55957Q10.6641 4.0625 10.6641 4.82422L10.6641 9.14062Q10.6641 9.91211 10.2002 10.4248Q9.73633 10.9375 8.99414 10.9375Z" fill="#ffffff"/>
 </g>
</svg>
