<?xml version="1.0" encoding="UTF-8"?>
<!--Generator: Apple Native CoreSVG 175.5-->
<!DOCTYPE svg
PUBLIC "-//W3C//DTD SVG 1.1//EN"
       "http://www.w3.org/Graphics/SVG/1.1/DTD/svg11.dtd">
<svg version="1.1" xmlns="http://www.w3.org/2000/svg" xmlns:xlink="http://www.w3.org/1999/xlink" width="19.9219" height="19.9316">
 <g>
  <rect height="19.9316" opacity="0" width="19.9219" x="0" y="0"/>
  <path d="M9.96094 19.9219Q12.002 19.9219 13.8037 19.1406Q15.6055 18.3594 16.9824 16.9824Q18.3594 15.6055 19.1406 13.8037Q19.9219 12.002 19.9219 9.96094Q19.9219 7.91992 19.1406 6.11816Q18.3594 4.31641 16.9824 2.93945Q15.6055 1.5625 13.7988 0.78125Q11.9922 0 9.95117 0Q7.91016 0 6.1084 0.78125Q4.30664 1.5625 2.93457 2.93945Q1.5625 4.31641 0.78125 6.11816Q0 7.91992 0 9.96094Q0 12.002 0.78125 13.8037Q1.5625 15.6055 2.93945 16.9824Q4.31641 18.3594 6.11816 19.1406Q7.91992 19.9219 9.96094 19.9219Z" fill="#007aff"/>
  <path d="M6.75781 13.6035Q6.47461 13.6035 6.29883 13.4326Q6.12305 13.2617 6.12305 12.9883L6.12305 7.27539Q6.12305 6.99219 6.29395 6.81641Q6.46484 6.64062 6.72852 6.64062Q6.98242 6.64062 7.15332 6.80664Q7.32422 6.97266 7.32422 7.30469L7.32422 7.42188Q7.54883 7.00195 7.89551 6.80664Q8.24219 6.61133 8.66211 6.61133Q9.14062 6.61133 9.50684 6.81641Q9.87305 7.02148 10.0879 7.46094L11.3184 4.46289Q11.4746 4.10156 11.7871 4.10156Q11.9922 4.10156 12.1387 4.22852Q12.2852 4.35547 12.2852 4.56055Q12.2852 4.69727 12.2266 4.83398L11.4551 6.68945Q11.6699 6.61133 11.8945 6.61133Q12.7734 6.61133 13.291 7.1875Q13.8086 7.76367 13.8086 8.7793L13.8086 12.959Q13.8086 13.252 13.6377 13.4277Q13.4668 13.6035 13.1934 13.6035Q12.9199 13.6035 12.7441 13.4277Q12.5684 13.252 12.5684 12.959L12.5684 8.87695Q12.5684 8.35938 12.3145 8.05176Q12.0605 7.74414 11.6016 7.74414Q11.1328 7.74414 10.8643 8.06641Q10.5957 8.38867 10.5957 8.91602L10.5957 12.959Q10.5957 13.252 10.4199 13.4277Q10.2441 13.6035 9.9707 13.6035Q9.70703 13.6035 9.53125 13.4277Q9.35547 13.252 9.35547 12.959L9.35547 12.0801L8.13477 15.459Q7.99805 15.8301 7.65625 15.8301Q7.45117 15.8301 7.31445 15.6982Q7.17773 15.5664 7.17773 15.3613Q7.17773 15.2246 7.23633 15.0781L9.35547 9.21875L9.35547 8.80859Q9.35547 8.33984 9.08691 8.03711Q8.81836 7.73438 8.4082 7.73438Q7.91992 7.73438 7.64648 8.07617Q7.37305 8.41797 7.37305 8.96484L7.37305 12.959Q7.37305 13.252 7.20215 13.4277Q7.03125 13.6035 6.75781 13.6035Z" fill="#ffffff"/>
 </g>
</svg>
