<?xml version="1.0" encoding="UTF-8"?>
<!--Generator: Apple Native CoreSVG 175-->
<!DOCTYPE svg
PUBLIC "-//W3C//DTD SVG 1.1//EN"
       "http://www.w3.org/Graphics/SVG/1.1/DTD/svg11.dtd">
<svg version="1.1" xmlns="http://www.w3.org/2000/svg" xmlns:xlink="http://www.w3.org/1999/xlink" width="17.2852" height="17.3145">
 <g>
  <rect height="17.3145" opacity="0" width="17.2852" x="0" y="0"/>
  <path d="M2.62695 17.3145L14.6484 17.3145Q15.957 17.3145 16.6211 16.6455Q17.2852 15.9766 17.2852 14.6875L17.2852 2.65625Q17.2852 1.37695 16.6211 0.703125Q15.957 0.0292969 14.6484 0.0292969L2.62695 0.0292969Q1.33789 0.0292969 0.668945 0.693359Q0 1.35742 0 2.65625L0 14.6875Q0 15.9863 0.668945 16.6504Q1.33789 17.3145 2.62695 17.3145ZM2.65625 16.5918Q1.70898 16.5918 1.2207 16.1035Q0.732422 15.6152 0.732422 14.6582L0.732422 2.69531Q0.732422 1.72852 1.2207 1.24512Q1.70898 0.761719 2.65625 0.761719L14.6289 0.761719Q15.5566 0.761719 16.0596 1.24512Q16.5625 1.72852 16.5625 2.69531L16.5625 14.6582Q16.5625 15.6152 16.0596 16.1035Q15.5566 16.5918 14.6289 16.5918Z" fill="#007aff"/>
  <path d="M5.625 11.8848Q5.77148 11.8848 5.85938 11.792Q5.94727 11.6992 5.94727 11.5527L5.94727 8.25195Q5.94727 7.4707 6.26465 6.9873Q6.58203 6.50391 7.20703 6.50391Q7.66602 6.50391 7.99316 6.83594Q8.32031 7.16797 8.32031 7.65625L8.32031 7.76367L6.36719 13.5938Q6.32812 13.7109 6.32812 13.7988Q6.32812 13.916 6.40625 13.999Q6.48438 14.082 6.61133 14.082Q6.82617 14.082 6.91406 13.8574L8.33984 9.56055L8.33984 11.5527Q8.33984 11.6992 8.43262 11.792Q8.52539 11.8848 8.66211 11.8848Q8.79883 11.8848 8.8916 11.792Q8.98438 11.6992 8.98438 11.5527L8.98438 8.06641Q8.98438 7.34375 9.33105 6.92871Q9.67773 6.51367 10.2344 6.51367Q10.7422 6.51367 11.0498 6.875Q11.3574 7.23633 11.3574 7.89062L11.3574 11.5527Q11.3574 11.709 11.4551 11.8018Q11.5527 11.8945 11.6895 11.8945Q11.8262 11.8945 11.9189 11.8018Q12.0117 11.709 12.0117 11.5527L12.0117 7.83203Q12.0117 6.91406 11.5283 6.40625Q11.0449 5.89844 10.3125 5.89844Q9.89258 5.89844 9.54102 6.08398L10.2832 3.93555Q10.3125 3.82812 10.3125 3.76953Q10.3125 3.64258 10.2295 3.56934Q10.1465 3.49609 10.0195 3.49609Q9.80469 3.49609 9.72656 3.7207L8.67188 6.79688Q8.47656 6.37695 8.10547 6.1377Q7.73438 5.89844 7.24609 5.89844Q6.83594 5.89844 6.49414 6.09863Q6.15234 6.29883 5.91797 6.66992L5.91797 6.28906Q5.91797 6.12305 5.83008 6.03516Q5.74219 5.94727 5.61523 5.94727Q5.47852 5.94727 5.38574 6.04004Q5.29297 6.13281 5.29297 6.2793L5.29297 11.5723Q5.29297 11.7188 5.39551 11.8018Q5.49805 11.8848 5.625 11.8848Z" fill="#ffffff"/>
 </g>
</svg>
