<?xml version="1.0" encoding="UTF-8"?>
<!--Generator: Apple Native CoreSVG 175-->
<!DOCTYPE svg
PUBLIC "-//W3C//DTD SVG 1.1//EN"
       "http://www.w3.org/Graphics/SVG/1.1/DTD/svg11.dtd">
<svg version="1.1" xmlns="http://www.w3.org/2000/svg" xmlns:xlink="http://www.w3.org/1999/xlink" width="22.6617" height="17.2949">
 <g>
  <rect height="17.2949" opacity="0" width="22.6617" x="0" y="0"/>
  <path d="M2.63046 17.2824L20.0243 17.2824Q21.3281 17.2824 21.9949 16.61Q22.6617 15.9375 22.6617 14.6587L22.6617 5.11673Q22.6617 3.83789 21.9949 3.16544Q21.3281 2.49298 20.0243 2.49298L2.63046 2.49298Q1.33636 2.49298 0.668182 3.15842Q0 3.82385 0 5.11673L0 14.6587Q0 15.9515 0.668182 16.617Q1.33636 17.2824 2.63046 17.2824ZM2.65701 16.561Q1.7067 16.561 1.21765 16.0697Q0.728607 15.5785 0.728607 14.6199L0.728607 5.15549Q0.728607 4.19693 1.21765 3.70567Q1.7067 3.21442 2.65701 3.21442L20.0047 3.21442Q20.9242 3.21442 21.4287 3.70567Q21.9331 4.19693 21.9331 5.15549L21.9331 14.6199Q21.9331 15.5785 21.4287 16.0697Q20.9242 16.561 20.0047 16.561ZM3.87497 2.83157L9.11209 2.83157L9.11209 0.95932Q9.11209 0.508118 8.86292 0.254059Q8.61374 0 8.12729 0L4.86679 0Q4.38049 0 4.12773 0.254059Q3.87497 0.508118 3.87497 0.95932ZM13.5469 2.83157L18.7813 2.83157L18.7813 0.95932Q18.7813 0.508118 18.5299 0.254059Q18.2785 0 17.7895 0L14.529 0Q14.0425 0 13.7947 0.254059Q13.5469 0.508118 13.5469 0.95932Z" fill="#007aff"/>
  <path d="M3.41599 9.89258Q3.41599 10.0308 3.52051 10.1318Q3.62503 10.2328 3.76602 10.2328L9.21402 10.2328Q9.36218 10.2328 9.46175 10.1318Q9.56131 10.0308 9.56131 9.89258Q9.56131 9.74457 9.46175 9.64355Q9.36218 9.54254 9.21402 9.54254L3.76602 9.54254Q3.62503 9.54254 3.52051 9.64355Q3.41599 9.74457 3.41599 9.89258ZM13.0879 9.89258Q13.0879 10.0308 13.1875 10.1318Q13.287 10.2328 13.4352 10.2328L15.8141 10.2328L15.8141 12.6047Q15.8141 12.7597 15.9151 12.8607Q16.0161 12.9617 16.1641 12.952Q16.3051 12.9617 16.4082 12.8572Q16.5114 12.7527 16.5114 12.6047L16.5114 10.2328L18.8762 10.2328Q19.0242 10.2328 19.1252 10.1318Q19.2262 10.0308 19.2262 9.89258Q19.2262 9.74457 19.1252 9.64355Q19.0242 9.54254 18.8762 9.54254L16.5114 9.54254L16.5114 7.15668Q16.5114 7.01569 16.4082 6.91467Q16.3051 6.81366 16.1641 6.81366Q16.0161 6.81366 15.9151 6.91467Q15.8141 7.01569 15.8141 7.15668L15.8141 9.54254L13.4352 9.54254Q13.287 9.54254 13.1875 9.64355Q13.0879 9.74457 13.0879 9.89258Z" fill="#ffffff"/>
 </g>
</svg>
