<?xml version="1.0" encoding="UTF-8"?>
<!--Generator: Apple Native CoreSVG 175-->
<!DOCTYPE svg
PUBLIC "-//W3C//DTD SVG 1.1//EN"
       "http://www.w3.org/Graphics/SVG/1.1/DTD/svg11.dtd">
<svg version="1.1" xmlns="http://www.w3.org/2000/svg" xmlns:xlink="http://www.w3.org/1999/xlink" width="22.6617" height="17.2949">
 <g>
  <rect height="17.2949" opacity="0" width="22.6617" x="0" y="0"/>
  <path d="M2.63046 17.2824L20.0243 17.2824Q21.3281 17.2824 21.9949 16.61Q22.6617 15.9375 22.6617 14.6587L22.6617 5.11673Q22.6617 3.83789 21.9949 3.16544Q21.3281 2.49298 20.0243 2.49298L2.63046 2.49298Q1.33636 2.49298 0.668182 3.15842Q0 3.82385 0 5.11673L0 14.6587Q0 15.9515 0.668182 16.617Q1.33636 17.2824 2.63046 17.2824ZM3.87497 2.83157L9.11209 2.83157L9.11209 0.95932Q9.11209 0.508118 8.86292 0.254059Q8.61374 0 8.12729 0L4.86679 0Q4.38049 0 4.12773 0.254059Q3.87497 0.508118 3.87497 0.95932ZM13.5469 2.83157L18.7813 2.83157L18.7813 0.95932Q18.7813 0.508118 18.5299 0.254059Q18.2785 0 17.7895 0L14.529 0Q14.0425 0 13.7947 0.254059Q13.5469 0.508118 13.5469 0.95932Z" fill="#007aff"/>
  <path d="M3.36868 9.89258Q3.36868 9.73907 3.47244 9.63669Q3.5762 9.5343 3.71994 9.5343L9.20197 9.5343Q9.3457 9.5343 9.44809 9.63669Q9.55048 9.73907 9.55048 9.89258Q9.55048 10.0363 9.44809 10.1387Q9.3457 10.2411 9.20197 10.2411L3.71994 10.2411Q3.5762 10.2411 3.47244 10.1387Q3.36868 10.0363 3.36868 9.89258ZM13.0917 9.89258Q13.0917 9.73907 13.1941 9.63669Q13.2965 9.5343 13.4473 9.5343L15.8398 9.5343L15.8398 7.14188Q15.8398 6.99799 15.9422 6.8943Q16.0445 6.79062 16.1884 6.79062Q16.3391 6.79062 16.4414 6.8943Q16.5437 6.99799 16.5437 7.14188L16.5437 9.5343L18.9223 9.5343Q19.073 9.5343 19.1768 9.63669Q19.2805 9.73907 19.2805 9.89258Q19.2805 10.0363 19.1768 10.1387Q19.073 10.2411 18.9223 10.2411L16.5437 10.2411L16.5437 12.6195Q16.5437 12.7676 16.4414 12.8762Q16.3391 12.9848 16.1884 12.975Q16.0445 12.9848 15.9422 12.8811Q15.8398 12.7774 15.8398 12.6195L15.8398 10.2411L13.4473 10.2411Q13.2965 10.2411 13.1941 10.1387Q13.0917 10.0363 13.0917 9.89258Z" fill="#ffffff"/>
 </g>
</svg>
