<?xml version="1.0" encoding="UTF-8"?>
<!--Generator: Apple Native CoreSVG 175.5-->
<!DOCTYPE svg
PUBLIC "-//W3C//DTD SVG 1.1//EN"
       "http://www.w3.org/Graphics/SVG/1.1/DTD/svg11.dtd">
<svg version="1.1" xmlns="http://www.w3.org/2000/svg" xmlns:xlink="http://www.w3.org/1999/xlink" width="19.6484" height="19.7949">
 <g>
  <rect height="19.7949" opacity="0" width="19.6484" x="0" y="0"/>
  <path d="M15.3418 13.2617Q12.6562 13.2617 10.6982 12.2363Q8.74023 11.2109 7.68066 9.31641Q6.62109 7.42188 6.62109 4.81445Q6.62109 3.70117 6.78711 2.77344Q6.95312 1.8457 7.22656 1.31836Q7.33398 1.10352 7.36816 0.976562Q7.40234 0.849609 7.40234 0.703125Q7.40234 0.458984 7.20215 0.229492Q7.00195 0 6.68945 0Q6.63086 0 6.49414 0.0244141Q6.35742 0.0488281 6.15234 0.136719Q4.3457 0.869141 2.95898 2.29492Q1.57227 3.7207 0.786133 5.59082Q0 7.46094 0 9.51172Q0 11.7383 0.756836 13.6084Q1.51367 15.4785 2.89062 16.8555Q4.26758 18.2324 6.1377 18.9941Q8.00781 19.7559 10.2344 19.7559Q12.3535 19.7559 14.1699 19.0479Q15.9863 18.3398 17.3535 17.0215Q18.7207 15.7031 19.5117 13.877Q19.5996 13.6816 19.624 13.5303Q19.6484 13.3789 19.6484 13.3008Q19.6484 12.998 19.4385 12.8125Q19.2285 12.627 19.0039 12.627Q18.8867 12.627 18.7793 12.6465Q18.6719 12.666 18.4961 12.7246Q18.0957 12.8906 17.583 13.0078Q17.0703 13.125 16.499 13.1934Q15.9277 13.2617 15.3418 13.2617ZM1.5332 9.44336Q1.5332 7.92969 2.03613 6.50391Q2.53906 5.07812 3.46191 3.89648Q4.38477 2.71484 5.64453 1.92383Q5.41016 2.59766 5.28809 3.35449Q5.16602 4.11133 5.16602 4.95117Q5.16602 7.99805 6.35254 10.1807Q7.53906 12.3633 9.77051 13.5254Q12.002 14.6875 15.1172 14.6875Q15.8691 14.6875 16.5234 14.5947Q17.1777 14.502 17.7832 14.2871Q17.041 15.5078 15.8838 16.3965Q14.7266 17.2852 13.2959 17.7588Q11.8652 18.2324 10.293 18.2324Q8.39844 18.2324 6.79688 17.583Q5.19531 16.9336 4.01367 15.752Q2.83203 14.5703 2.18262 12.9639Q1.5332 11.3574 1.5332 9.44336Z" fill="#ffffff"/>
 </g>
</svg>
