<?xml version="1.0" encoding="UTF-8"?>
<!--Generator: Apple Native CoreSVG 175.5-->
<!DOCTYPE svg
PUBLIC "-//W3C//DTD SVG 1.1//EN"
       "http://www.w3.org/Graphics/SVG/1.1/DTD/svg11.dtd">
<svg version="1.1" xmlns="http://www.w3.org/2000/svg" xmlns:xlink="http://www.w3.org/1999/xlink" width="23.3105" height="22.1582">
 <g>
  <rect height="22.1582" opacity="0" width="23.3105" x="0" y="0"/>
  <path d="M5.01953 20.5078L18.2324 20.5078Q19.2773 20.5078 19.8535 19.9414Q20.4297 19.375 20.4297 18.3496L20.4297 7.55859L18.8574 6.48438L18.8574 17.9492Q18.8574 18.4277 18.6133 18.6816Q18.3691 18.9355 17.9004 18.9355L5.35156 18.9355Q4.88281 18.9355 4.63379 18.6816Q4.38477 18.4277 4.38477 17.9492L4.38477 6.49414L2.8125 7.55859L2.8125 18.3496Q2.8125 19.375 3.39355 19.9414Q3.97461 20.5078 5.01953 20.5078ZM0 9.63867Q0 9.94141 0.224609 10.1807Q0.449219 10.4199 0.839844 10.4199Q1.04492 10.4199 1.21582 10.3223Q1.38672 10.2246 1.54297 10.1074L11.3184 1.9043Q11.4844 1.75781 11.665 1.75781Q11.8457 1.75781 12.0117 1.9043L21.7871 10.1074Q21.9336 10.2246 22.1045 10.3223Q22.2754 10.4199 22.4805 10.4199Q22.8223 10.4199 23.0664 10.2197Q23.3105 10.0195 23.3105 9.66797Q23.3105 9.25781 23.0078 9.00391L12.8418 0.458984Q12.2949 0 11.665 0Q11.0352 0 10.4883 0.458984L0.3125 9.00391Q0 9.25781 0 9.63867ZM17.9785 5.23438L20.4297 7.30469L20.4297 2.79297Q20.4297 2.4707 20.2393 2.28027Q20.0488 2.08984 19.7266 2.08984L18.6816 2.08984Q18.3691 2.08984 18.1738 2.28027Q17.9785 2.4707 17.9785 2.79297Z" fill="#007aff"/>
  <path d="M14.4238 10.2539Q14.7754 10.166 14.9072 10.0244Q15.0391 9.88281 15.0391 9.46289L15.0391 7.51953Q15.0391 7.23633 14.9072 7.12402Q14.7754 7.01172 14.3848 7.10938L11.5039 7.82227Q11.1426 7.91016 11.0303 8.05176Q10.918 8.19336 10.918 8.63281L10.918 13.0762Q10.918 13.4082 10.835 13.5205Q10.752 13.6328 10.3809 13.7305L9.47266 13.9746Q8.79883 14.1504 8.31055 14.5654Q7.82227 14.9805 7.82227 15.7031Q7.82227 16.3281 8.26172 16.7383Q8.70117 17.1484 9.44336 17.1484Q10.498 17.1484 11.1523 16.4648Q11.8066 15.7812 11.8066 14.707L11.8066 11.3184Q11.8066 11.0449 11.875 10.9473Q11.9434 10.8496 12.1094 10.8105Z" fill="#ffffff"/>
 </g>
</svg>
