<?xml version="1.0" encoding="UTF-8"?>
<!--Generator: Apple Native CoreSVG 175-->
<!DOCTYPE svg
PUBLIC "-//W3C//DTD SVG 1.1//EN"
       "http://www.w3.org/Graphics/SVG/1.1/DTD/svg11.dtd">
<svg version="1.1" xmlns="http://www.w3.org/2000/svg" xmlns:xlink="http://www.w3.org/1999/xlink" width="19.1602" height="19.1504">
 <g>
  <rect height="19.1504" opacity="0" width="19.1602" x="0" y="0"/>
  <path d="M9.57031 19.1406Q11.5527 19.1406 13.2861 18.3984Q15.0195 17.6562 16.3379 16.333Q17.6562 15.0098 18.4082 13.2764Q19.1602 11.543 19.1602 9.57031Q19.1602 7.59766 18.4082 5.86426Q17.6562 4.13086 16.3379 2.80762Q15.0195 1.48438 13.2861 0.742188Q11.5527 0 9.57031 0Q7.59766 0 5.86426 0.742188Q4.13086 1.48438 2.81738 2.80762Q1.50391 4.13086 0.751953 5.86426Q0 7.59766 0 9.57031Q0 11.543 0.74707 13.2764Q1.49414 15.0098 2.8125 16.333Q4.13086 17.6562 5.86914 18.3984Q7.60742 19.1406 9.57031 19.1406ZM9.57031 18.3984Q7.74414 18.3984 6.14746 17.71Q4.55078 17.0215 3.33496 15.8105Q2.11914 14.5996 1.43555 12.998Q0.751953 11.3965 0.751953 9.57031Q0.751953 7.74414 1.43555 6.14258Q2.11914 4.54102 3.33496 3.3252Q4.55078 2.10938 6.14746 1.4209Q7.74414 0.732422 9.57031 0.732422Q11.4062 0.732422 13.0029 1.4209Q14.5996 2.10938 15.8154 3.3252Q17.0312 4.54102 17.7197 6.14258Q18.4082 7.74414 18.4082 9.57031Q18.4082 11.3965 17.7246 12.998Q17.041 14.5996 15.8252 15.8105Q14.6094 17.0215 13.0078 17.71Q11.4062 18.3984 9.57031 18.3984Z" fill="#007aff"/>
  <path d="M9.86328 7.30469L4.77539 12.7832Q4.44336 13.1348 4.85352 13.5547L4.0918 14.4629Q4.00391 14.5703 4.11133 14.668L4.26758 14.834Q4.375 14.9316 4.48242 14.8438L5.40039 14.0723Q5.80078 14.4727 6.15234 14.1602L9.10156 11.4355L9.10156 14.7656Q9.10156 14.9414 9.21387 15.0635Q9.32617 15.1855 9.52148 15.1855Q9.70703 15.1855 9.82422 15.0586Q9.94141 14.9316 9.94141 14.7656L9.94141 10.6543L11.5918 9.14062Q12.0898 9.22852 12.6221 8.99902Q13.1543 8.76953 13.6621 8.26172L10.6641 5.27344Q9.6582 6.2793 9.86328 7.30469ZM5.10742 13.1348L10.0586 7.86133Q10.1367 8.01758 10.2344 8.16895Q10.332 8.32031 10.4492 8.4668Q10.5859 8.62305 10.7275 8.74023Q10.8691 8.85742 11.0156 8.93555L5.80078 13.8281ZM14.1699 4.75586Q13.4668 4.05273 12.6416 4.0918Q11.8164 4.13086 11.0352 4.90234L14.043 7.90039Q14.8047 7.12891 14.8389 6.28906Q14.873 5.44922 14.1699 4.75586Z" fill="#ffffff"/>
 </g>
</svg>
