<?xml version="1.0" encoding="UTF-8"?>
<!--Generator: Apple Native CoreSVG 175.5-->
<!DOCTYPE svg
PUBLIC "-//W3C//DTD SVG 1.1//EN"
       "http://www.w3.org/Graphics/SVG/1.1/DTD/svg11.dtd">
<svg version="1.1" xmlns="http://www.w3.org/2000/svg" xmlns:xlink="http://www.w3.org/1999/xlink" width="19.9219" height="19.9316">
 <g>
  <rect height="19.9316" opacity="0" width="19.9219" x="0" y="0"/>
  <path d="M9.96094 19.9219Q12.002 19.9219 13.8037 19.1406Q15.6055 18.3594 16.9824 16.9824Q18.3594 15.6055 19.1406 13.8037Q19.9219 12.002 19.9219 9.96094Q19.9219 7.91992 19.1406 6.11816Q18.3594 4.31641 16.9824 2.93945Q15.6055 1.5625 13.7988 0.78125Q11.9922 0 9.95117 0Q7.91016 0 6.1084 0.78125Q4.30664 1.5625 2.93457 2.93945Q1.5625 4.31641 0.78125 6.11816Q0 7.91992 0 9.96094Q0 12.002 0.78125 13.8037Q1.5625 15.6055 2.93945 16.9824Q4.31641 18.3594 6.11816 19.1406Q7.91992 19.9219 9.96094 19.9219ZM9.96094 18.2617Q8.23242 18.2617 6.72852 17.6172Q5.22461 16.9727 4.08691 15.835Q2.94922 14.6973 2.30957 13.1934Q1.66992 11.6895 1.66992 9.96094Q1.66992 8.23242 2.30957 6.72852Q2.94922 5.22461 4.08203 4.08203Q5.21484 2.93945 6.71875 2.2998Q8.22266 1.66016 9.95117 1.66016Q11.6797 1.66016 13.1885 2.2998Q14.6973 2.93945 15.835 4.08203Q16.9727 5.22461 17.6172 6.72852Q18.2617 8.23242 18.2617 9.96094Q18.2617 11.6895 17.6221 13.1934Q16.9824 14.6973 15.8398 15.835Q14.6973 16.9727 13.1934 17.6172Q11.6895 18.2617 9.96094 18.2617Z" fill="#007aff"/>
  <path d="M10.0977 7.51953L5.44922 12.5195Q5.07812 12.9297 5.40039 13.3301L4.80469 14.0918Q4.62891 14.3262 4.84375 14.5215L4.99023 14.668Q5.19531 14.8633 5.41992 14.6973L6.19141 14.1016Q6.5918 14.4238 6.98242 14.0625L9.41406 11.8066L9.41406 14.4434Q9.41406 14.6777 9.5752 14.8438Q9.73633 15.0098 9.98047 15.0098Q10.2148 15.0098 10.3809 14.8438Q10.5469 14.6777 10.5469 14.4434L10.5469 10.752L11.9727 9.42383Q12.4414 9.47266 12.8906 9.28711Q13.3398 9.10156 13.7402 8.69141L10.8105 5.76172Q9.99023 6.5918 10.0977 7.51953ZM6.19141 13.0078L10.4688 8.4668Q10.5176 8.54492 10.5811 8.62305Q10.6445 8.70117 10.7227 8.78906Q10.791 8.86719 10.8691 8.93066Q10.9473 8.99414 11.0254 9.04297L6.50391 13.3301ZM14.3066 5.19531Q13.6426 4.53125 12.8223 4.55566Q12.002 4.58008 11.3086 5.26367L14.2383 8.19336Q14.9316 7.50977 14.9561 6.68457Q14.9805 5.85938 14.3066 5.19531Z" fill="#ffffff"/>
 </g>
</svg>
