<?xml version="1.0" encoding="UTF-8"?>
<!--Generator: Apple Native CoreSVG 175.5-->
<!DOCTYPE svg
PUBLIC "-//W3C//DTD SVG 1.1//EN"
       "http://www.w3.org/Graphics/SVG/1.1/DTD/svg11.dtd">
<svg version="1.1" xmlns="http://www.w3.org/2000/svg" xmlns:xlink="http://www.w3.org/1999/xlink" width="19.9023" height="20.0684">
 <g>
  <rect height="20.0684" opacity="0" width="19.9023" x="0" y="0"/>
  <path d="M19.9023 4.89258L19.9023 1.2207Q19.9023 0.830078 19.6338 0.610352Q19.3652 0.390625 18.9844 0.46875L13.9746 1.5625Q13.0078 1.77734 13.0078 2.58789L13.0273 13.4473Q13.0957 14.1895 12.4219 14.3262L10.8691 14.6484Q9.4043 14.9609 8.70117 15.6934Q7.99805 16.4258 7.99805 17.5293Q7.99805 18.6523 8.77441 19.3604Q9.55078 20.0684 10.7715 20.0684Q11.3086 20.0684 11.9238 19.8584Q12.5391 19.6484 13.0957 19.1895Q13.6523 18.7305 13.999 17.9834Q14.3457 17.2363 14.3457 16.1719L14.3457 7.23633Q14.3457 6.85547 14.4531 6.72363Q14.5605 6.5918 14.9121 6.51367L19.375 5.53711Q19.6191 5.47852 19.7607 5.30762Q19.9023 5.13672 19.9023 4.89258Z" fill="#ffffff"/>
  <path d="M0.664062 5.35156L9.39453 5.35156Q9.66797 5.35156 9.86328 5.15625Q10.0586 4.96094 10.0586 4.6875Q10.0586 4.42383 9.86328 4.22852Q9.66797 4.0332 9.39453 4.0332L0.664062 4.0332Q0.390625 4.0332 0.195312 4.22852Q0 4.42383 0 4.6875Q0 4.96094 0.195312 5.15625Q0.390625 5.35156 0.664062 5.35156ZM0.664062 8.82812L9.39453 8.82812Q9.67773 8.82812 9.86816 8.63281Q10.0586 8.4375 10.0586 8.1543Q10.0586 7.88086 9.86328 7.69531Q9.66797 7.50977 9.39453 7.50977L0.664062 7.50977Q0.390625 7.50977 0.195312 7.69531Q0 7.88086 0 8.1543Q0 8.4375 0.19043 8.63281Q0.380859 8.82812 0.664062 8.82812ZM0.664062 12.3047L9.39453 12.3047Q9.67773 12.3047 9.86816 12.1143Q10.0586 11.9238 10.0586 11.6406Q10.0586 11.3672 9.86328 11.1768Q9.66797 10.9863 9.39453 10.9863L0.664062 10.9863Q0.390625 10.9863 0.195312 11.1768Q0 11.3672 0 11.6406Q0 11.9238 0.19043 12.1143Q0.380859 12.3047 0.664062 12.3047Z" fill="#007aff"/>
 </g>
</svg>
