<?xml version="1.0" encoding="UTF-8"?>
<!--Generator: Apple Native CoreSVG 175.5-->
<!DOCTYPE svg
PUBLIC "-//W3C//DTD SVG 1.1//EN"
       "http://www.w3.org/Graphics/SVG/1.1/DTD/svg11.dtd">
<svg version="1.1" xmlns="http://www.w3.org/2000/svg" xmlns:xlink="http://www.w3.org/1999/xlink" width="19.4629" height="17.998">
 <g>
  <rect height="17.998" opacity="0" width="19.4629" x="0" y="0"/>
  <path d="M3.06641 17.998L16.4062 17.998Q17.9395 17.998 18.7012 17.2412Q19.4629 16.4844 19.4629 14.9707L19.4629 3.04688Q19.4629 1.5332 18.7012 0.776367Q17.9395 0.0195312 16.4062 0.0195312L3.06641 0.0195312Q1.5332 0.0195312 0.766602 0.776367Q0 1.5332 0 3.04688L0 14.9707Q0 16.4844 0.766602 17.2412Q1.5332 17.998 3.06641 17.998ZM2.91992 16.4258Q2.27539 16.4258 1.92383 16.0791Q1.57227 15.7324 1.57227 15.0586L1.57227 5.84961Q1.57227 5.17578 1.92383 4.8291Q2.27539 4.48242 2.91992 4.48242L16.5332 4.48242Q17.1875 4.48242 17.5391 4.8291Q17.8906 5.17578 17.8906 5.84961L17.8906 15.0586Q17.8906 15.7324 17.5391 16.0791Q17.1875 16.4258 16.5332 16.4258Z" fill="#007aff"/>
  <path d="M4.61914 8.11523L14.873 8.11523Q15.1367 8.11523 15.3076 7.93945Q15.4785 7.76367 15.4785 7.5Q15.4785 7.25586 15.3076 7.08496Q15.1367 6.91406 14.873 6.91406L4.61914 6.91406Q4.35547 6.91406 4.17969 7.08496Q4.00391 7.25586 4.00391 7.5Q4.00391 7.76367 4.17969 7.93945Q4.35547 8.11523 4.61914 8.11523ZM4.61914 11.0547L14.873 11.0547Q15.1367 11.0547 15.3076 10.8838Q15.4785 10.7129 15.4785 10.4688Q15.4785 10.2148 15.3076 10.0342Q15.1367 9.85352 14.873 9.85352L4.61914 9.85352Q4.35547 9.85352 4.17969 10.0342Q4.00391 10.2148 4.00391 10.4688Q4.00391 10.7129 4.17969 10.8838Q4.35547 11.0547 4.61914 11.0547ZM4.61914 14.0039L11.1328 14.0039Q11.3965 14.0039 11.5674 13.833Q11.7383 13.6621 11.7383 13.4082Q11.7383 13.1543 11.5674 12.9785Q11.3965 12.8027 11.1328 12.8027L4.61914 12.8027Q4.35547 12.8027 4.17969 12.9785Q4.00391 13.1543 4.00391 13.4082Q4.00391 13.6621 4.17969 13.833Q4.35547 14.0039 4.61914 14.0039Z" fill="#ffffff"/>
 </g>
</svg>
