<?xml version="1.0" encoding="UTF-8"?>
<!--Generator: Apple Native CoreSVG 175.5-->
<!DOCTYPE svg
PUBLIC "-//W3C//DTD SVG 1.1//EN"
       "http://www.w3.org/Graphics/SVG/1.1/DTD/svg11.dtd">
<svg version="1.1" xmlns="http://www.w3.org/2000/svg" xmlns:xlink="http://www.w3.org/1999/xlink" width="19.9219" height="19.9316">
 <g>
  <rect height="19.9316" opacity="0" width="19.9219" x="0" y="0"/>
  <path d="M9.96094 19.9219Q12.002 19.9219 13.8037 19.1406Q15.6055 18.3594 16.9824 16.9824Q18.3594 15.6055 19.1406 13.8037Q19.9219 12.002 19.9219 9.96094Q19.9219 7.91992 19.1406 6.11816Q18.3594 4.31641 16.9824 2.93945Q15.6055 1.5625 13.7988 0.78125Q11.9922 0 9.95117 0Q7.91016 0 6.1084 0.78125Q4.30664 1.5625 2.93457 2.93945Q1.5625 4.31641 0.78125 6.11816Q0 7.91992 0 9.96094Q0 12.002 0.78125 13.8037Q1.5625 15.6055 2.93945 16.9824Q4.31641 18.3594 6.11816 19.1406Q7.91992 19.9219 9.96094 19.9219Z" fill="#007aff"/>
  <path d="M9.9707 14.6875Q8.68164 14.6875 7.7002 14.0771Q6.71875 13.4668 6.16211 12.3828Q5.60547 11.2988 5.60547 9.87305Q5.60547 8.44727 6.16211 7.3584Q6.71875 6.26953 7.7002 5.65918Q8.68164 5.04883 9.9707 5.04883Q11.25 5.04883 12.2363 5.65918Q13.2227 6.26953 13.7744 7.3584Q14.3262 8.44727 14.3262 9.87305Q14.3262 11.2988 13.7744 12.3828Q13.2227 13.4668 12.2363 14.0771Q11.25 14.6875 9.9707 14.6875ZM9.9707 13.418Q10.8008 13.418 11.416 12.9785Q12.0312 12.5391 12.373 11.7383Q12.7148 10.9375 12.7148 9.87305Q12.7148 8.79883 12.373 8.00293Q12.0312 7.20703 11.416 6.7627Q10.8008 6.31836 9.9707 6.31836Q9.14062 6.31836 8.52051 6.7627Q7.90039 7.20703 7.56348 8.00293Q7.22656 8.79883 7.22656 9.87305Q7.22656 10.9375 7.56348 11.7383Q7.90039 12.5391 8.52051 12.9785Q9.14062 13.418 9.9707 13.418Z" fill="#ffffff"/>
 </g>
</svg>
