<?xml version="1.0" encoding="UTF-8"?>
<!--Generator: Apple Native CoreSVG 175.5-->
<!DOCTYPE svg
PUBLIC "-//W3C//DTD SVG 1.1//EN"
       "http://www.w3.org/Graphics/SVG/1.1/DTD/svg11.dtd">
<svg version="1.1" xmlns="http://www.w3.org/2000/svg" xmlns:xlink="http://www.w3.org/1999/xlink" width="17.9883" height="23.3887">
 <g>
  <rect height="23.3887" opacity="0" width="17.9883" x="0" y="0"/>
  <path d="M8.99414 0Q6.99219 0 5.34668 0.854492Q3.70117 1.70898 2.5 3.27148Q1.29883 4.83398 0.649414 6.97266Q0 9.11133 0 11.6895Q0 14.2578 0.649414 16.4014Q1.29883 18.5449 2.5 20.1074Q3.70117 21.6699 5.34668 22.5244Q6.99219 23.3789 8.99414 23.3789Q10.9863 23.3789 12.6367 22.5244Q14.2871 21.6699 15.4883 20.1074Q16.6895 18.5449 17.3389 16.4014Q17.9883 14.2578 17.9883 11.6895Q17.9883 9.12109 17.3389 6.97754Q16.6895 4.83398 15.4883 3.27148Q14.2871 1.70898 12.6367 0.854492Q10.9863 0 8.99414 0ZM8.99414 1.57227L8.99414 21.8066Q7.34375 21.8066 5.98145 21.0645Q4.61914 20.3223 3.63281 18.9697Q2.64648 17.6172 2.10938 15.7666Q1.57227 13.916 1.57227 11.6895Q1.57227 9.46289 2.10938 7.60742Q2.64648 5.75195 3.63281 4.39941Q4.61914 3.04688 5.98145 2.30957Q7.34375 1.57227 8.99414 1.57227Z" fill="#ffffff"/>
 </g>
</svg>
