<?xml version="1.0" encoding="UTF-8"?>
<!--Generator: Apple Native CoreSVG 175-->
<!DOCTYPE svg
PUBLIC "-//W3C//DTD SVG 1.1//EN"
       "http://www.w3.org/Graphics/SVG/1.1/DTD/svg11.dtd">
<svg version="1.1" xmlns="http://www.w3.org/2000/svg" xmlns:xlink="http://www.w3.org/1999/xlink" width="19.5961" height="22.2046">
 <g>
  <rect height="22.2046" opacity="0" width="19.5961" x="0" y="0"/>
  <path d="M1.06882 21.1365Q2.14898 22.1912 3.33414 22.2044Q4.51929 22.2177 5.56573 21.1643Q6.10635 20.6334 6.5999 19.8408Q7.09344 19.0482 7.55128 18.1929Q8.00912 17.3377 8.43622 16.5963Q8.86331 15.855 9.27118 15.4096L11.7449 17.8861Q12.1285 18.2724 12.5916 18.2703Q13.0547 18.2681 13.4356 17.8803L14.5408 16.7795Q14.9217 16.3959 14.9217 15.9404Q14.9217 15.4849 14.5326 15.0986L7.10946 7.67274Q6.71609 7.27937 6.26626 7.28158Q5.81643 7.2838 5.42581 7.66465L4.32779 8.77244Q3.94693 9.1533 3.9364 9.61503Q3.92587 10.0768 4.31222 10.4631L6.79574 12.9369Q6.35049 13.335 5.60907 13.7656Q4.86764 14.1962 4.01376 14.6554Q3.15988 15.1146 2.36726 15.6082Q1.57464 16.1017 1.04379 16.6326Q-0.00967593 17.686 8.96958e-05 18.8748Q0.00985532 20.0635 1.06882 21.1365ZM4.87665 9.23372L5.89273 8.2303Q6.07385 8.04902 6.28465 8.04765Q6.49545 8.04628 6.67398 8.22755L13.9805 15.5315Q14.3543 15.9079 13.961 16.3155L12.9814 17.3119Q12.581 17.7135 12.1876 17.3146L9.67782 14.8161Q9.48877 14.6271 9.27057 14.6198Q9.05237 14.6126 8.84546 14.8239Q8.47787 15.1915 8.02743 15.947Q7.57699 16.7024 7.08368 17.6056Q6.59036 18.5088 6.07919 19.3361Q5.56802 20.1634 5.05945 20.6693Q4.25088 21.4876 3.32918 21.4757Q2.40747 21.4638 1.56259 20.6357Q0.741514 19.8006 0.729612 18.8705Q0.717711 17.9404 1.54306 17.1388Q2.04187 16.633 2.87271 16.1205Q3.70355 15.6079 4.60321 15.1146Q5.50287 14.6213 6.2597 14.1757Q7.01654 13.7302 7.38412 13.3627Q7.58569 13.1487 7.58333 12.9326Q7.58096 12.7165 7.3919 12.5302L4.87665 10.0177Q4.48327 9.62434 4.87665 9.23372ZM3.15515 20.1259Q3.61108 20.1259 3.92396 19.8081Q4.23685 19.4904 4.23685 19.0346Q4.23685 18.5787 3.92396 18.2623Q3.61108 17.9459 3.15515 17.9459Q2.69937 17.9459 2.37802 18.2623Q2.05667 18.5787 2.05667 19.0346Q2.05667 19.4904 2.37802 19.8081Q2.69937 20.1259 3.15515 20.1259ZM14.5165 15.4607L18.9091 11.0681Q19.6002 10.3841 19.596 9.56323Q19.5919 8.74238 18.9025 8.05009L11.4193 0.56413Q11.0989 0.246595 10.714 0.135053Q10.3291 0.0235112 9.96789 0.125898Q9.60672 0.228284 9.32977 0.532544Q9.05282 0.836805 8.94418 1.33409Q8.72003 2.33995 8.5296 3.1167Q8.33917 3.89345 8.15423 4.50616Q7.9693 5.11888 7.7501 5.6347Q7.53091 6.15053 7.25557 6.62904Q6.98022 7.10756 6.60821 7.6201L7.14075 8.14546Q7.64459 7.41807 7.98112 6.79994Q8.31766 6.18181 8.56943 5.49432Q8.8212 4.80684 9.06183 3.891Q9.30246 2.97517 9.61893 1.65956Q9.71536 1.22987 9.95187 1.04806Q10.1884 0.866254 10.4591 0.887922Q10.7298 0.909589 10.931 1.11772L18.372 8.55607Q18.8262 9.01033 18.8262 9.57048Q18.8262 10.1306 18.3732 10.5838L14.0133 14.9506ZM13.4236 9.91548Q13.6189 10.1108 14.1741 9.95454Q14.7294 9.79829 15.4241 9.42231Q16.1189 9.04634 16.7634 8.56294Q17.4079 8.07954 17.779 7.61079L15.6236 5.47212Q15.4939 6.77095 14.88 7.74751Q14.2661 8.72407 13.4528 9.54439Q13.2548 9.74672 13.4236 9.91548Z" fill="#ffffff"/>
 </g>
</svg>
