<?xml version="1.0" encoding="UTF-8"?>
<!--Generator: Apple Native CoreSVG 175.5-->
<!DOCTYPE svg
PUBLIC "-//W3C//DTD SVG 1.1//EN"
       "http://www.w3.org/Graphics/SVG/1.1/DTD/svg11.dtd">
<svg version="1.1" xmlns="http://www.w3.org/2000/svg" xmlns:xlink="http://www.w3.org/1999/xlink" width="19.9219" height="20.4395">
 <g>
  <rect height="20.4395" opacity="0" width="19.9219" x="0" y="0"/>
  <path d="M9.96094 20.4395Q12.002 20.4395 13.8037 19.6582Q15.6055 18.877 16.9824 17.5Q18.3594 16.123 19.1406 14.3213Q19.9219 12.5195 19.9219 10.4785Q19.9219 8.4375 19.1406 6.63574Q18.3594 4.83398 16.9824 3.45703Q15.6055 2.08008 13.7988 1.29883Q11.9922 0.517578 9.95117 0.517578Q7.91016 0.517578 6.1084 1.29883Q4.30664 2.08008 2.93457 3.45703Q1.5625 4.83398 0.78125 6.63574Q0 8.4375 0 10.4785Q0 12.5195 0.78125 14.3213Q1.5625 16.123 2.93945 17.5Q4.31641 18.877 6.11816 19.6582Q7.91992 20.4395 9.96094 20.4395Z" fill="#007aff"/>
  <path d="M10.1855 16.8164Q9.79492 16.8164 9.62891 16.543Q9.46289 16.2695 9.32617 15.8398L8.42773 12.8809Q8.34961 12.5879 8.37891 12.417Q8.4082 12.2461 8.56445 12.0801L14.3066 5.88867Q14.4141 5.76172 14.3066 5.67383Q14.1992 5.5957 14.0918 5.68359L7.93945 11.4551Q7.75391 11.6113 7.58301 11.626Q7.41211 11.6406 7.13867 11.5625L4.08203 10.6445Q3.68164 10.5176 3.42285 10.3467Q3.16406 10.1758 3.16406 9.79492Q3.16406 9.48242 3.40332 9.26758Q3.64258 9.05273 3.98438 8.92578L13.6719 5.21484Q14.0723 5.05859 14.3457 5.05859Q14.6094 5.05859 14.7656 5.21484Q14.9219 5.37109 14.9219 5.64453Q14.9219 5.9082 14.7754 6.30859L11.084 15.9473Q10.9375 16.3477 10.7129 16.582Q10.4883 16.8164 10.1855 16.8164Z" fill="#ffffff"/>
 </g>
</svg>
