<?xml version="1.0" encoding="UTF-8"?>
<!--Generator: Apple Native CoreSVG 175.5-->
<!DOCTYPE svg
PUBLIC "-//W3C//DTD SVG 1.1//EN"
       "http://www.w3.org/Graphics/SVG/1.1/DTD/svg11.dtd">
<svg version="1.1" xmlns="http://www.w3.org/2000/svg" xmlns:xlink="http://www.w3.org/1999/xlink" width="19.9219" height="19.9316">
 <g>
  <rect height="19.9316" opacity="0" width="19.9219" x="0" y="0"/>
  <path d="M9.96094 19.9219Q12.002 19.9219 13.8037 19.1406Q15.6055 18.3594 16.9824 16.9824Q18.3594 15.6055 19.1406 13.8037Q19.9219 12.002 19.9219 9.96094Q19.9219 7.91992 19.1406 6.11816Q18.3594 4.31641 16.9824 2.93945Q15.6055 1.5625 13.7988 0.78125Q11.9922 0 9.95117 0Q7.91016 0 6.1084 0.78125Q4.30664 1.5625 2.93457 2.93945Q1.5625 4.31641 0.78125 6.11816Q0 7.91992 0 9.96094Q0 12.002 0.78125 13.8037Q1.5625 15.6055 2.93945 16.9824Q4.31641 18.3594 6.11816 19.1406Q7.91992 19.9219 9.96094 19.9219ZM9.96094 18.2617Q8.23242 18.2617 6.72852 17.6172Q5.22461 16.9727 4.08691 15.835Q2.94922 14.6973 2.30957 13.1934Q1.66992 11.6895 1.66992 9.96094Q1.66992 8.23242 2.30957 6.72852Q2.94922 5.22461 4.08203 4.08203Q5.21484 2.93945 6.71875 2.2998Q8.22266 1.66016 9.95117 1.66016Q11.6797 1.66016 13.1885 2.2998Q14.6973 2.93945 15.835 4.08203Q16.9727 5.22461 17.6172 6.72852Q18.2617 8.23242 18.2617 9.96094Q18.2617 11.6895 17.6221 13.1934Q16.9824 14.6973 15.8398 15.835Q14.6973 16.9727 13.1934 17.6172Q11.6895 18.2617 9.96094 18.2617Z" fill="#007aff"/>
  <path d="M5.63477 14.873Q6.32812 15.5566 7.14844 15.7715Q7.96875 15.9863 8.7793 15.752Q9.58984 15.5176 10.2539 14.8535L14.248 10.8691Q14.3945 10.7227 14.4043 10.4834Q14.4141 10.2441 14.248 10.0977Q14.0918 9.94141 13.8574 9.94629Q13.623 9.95117 13.4668 10.1074L9.52148 14.043Q8.83789 14.7266 7.97363 14.7363Q7.10938 14.7461 6.44531 14.0918Q5.76172 13.418 5.77637 12.5537Q5.79102 11.6895 6.47461 10.9961L11.8555 5.61523Q12.2852 5.18555 12.8271 5.16113Q13.3691 5.13672 13.7598 5.51758Q14.1504 5.9082 14.1211 6.44043Q14.0918 6.97266 13.6523 7.41211L8.39844 12.666Q8.26172 12.8125 8.11035 12.8125Q7.95898 12.8125 7.83203 12.6953Q7.69531 12.5781 7.7002 12.4121Q7.70508 12.2461 7.8418 12.1191L11.5137 8.44727Q11.6797 8.28125 11.6943 8.06641Q11.709 7.85156 11.5332 7.69531Q11.3574 7.5293 11.1475 7.53418Q10.9375 7.53906 10.7715 7.70508L7.09961 11.3867Q6.65039 11.8359 6.63574 12.4414Q6.62109 13.0469 7.04102 13.4863Q7.4707 13.9258 8.06641 13.9111Q8.66211 13.8965 9.12109 13.4375L14.4043 8.1543Q15.1855 7.37305 15.21 6.4209Q15.2344 5.46875 14.5117 4.74609Q13.7695 4.02344 12.8125 4.04297Q11.8555 4.0625 11.084 4.83398L5.66406 10.2441Q5 10.918 4.77539 11.748Q4.55078 12.5781 4.76562 13.4033Q4.98047 14.2285 5.63477 14.873Z" fill="#ffffff"/>
 </g>
</svg>
