<?xml version="1.0" encoding="UTF-8"?>
<!--Generator: Apple Native CoreSVG 175-->
<!DOCTYPE svg
PUBLIC "-//W3C//DTD SVG 1.1//EN"
       "http://www.w3.org/Graphics/SVG/1.1/DTD/svg11.dtd">
<svg version="1.1" xmlns="http://www.w3.org/2000/svg" xmlns:xlink="http://www.w3.org/1999/xlink" width="19.1602" height="19.1504">
 <g>
  <rect height="19.1504" opacity="0" width="19.1602" x="0" y="0"/>
  <path d="M9.57031 19.1406Q11.5527 19.1406 13.2861 18.3984Q15.0195 17.6562 16.3379 16.333Q17.6562 15.0098 18.4082 13.2764Q19.1602 11.543 19.1602 9.57031Q19.1602 7.59766 18.4082 5.86426Q17.6562 4.13086 16.3379 2.80762Q15.0195 1.48438 13.2861 0.742188Q11.5527 0 9.57031 0Q7.59766 0 5.86426 0.742188Q4.13086 1.48438 2.81738 2.80762Q1.50391 4.13086 0.751953 5.86426Q0 7.59766 0 9.57031Q0 11.543 0.74707 13.2764Q1.49414 15.0098 2.8125 16.333Q4.13086 17.6562 5.86914 18.3984Q7.60742 19.1406 9.57031 19.1406ZM9.57031 18.3984Q7.74414 18.3984 6.14746 17.71Q4.55078 17.0215 3.33496 15.8105Q2.11914 14.5996 1.43555 12.998Q0.751953 11.3965 0.751953 9.57031Q0.751953 7.74414 1.43555 6.14258Q2.11914 4.54102 3.33496 3.3252Q4.55078 2.10938 6.14746 1.4209Q7.74414 0.732422 9.57031 0.732422Q11.4062 0.732422 13.0029 1.4209Q14.5996 2.10938 15.8154 3.3252Q17.0312 4.54102 17.7197 6.14258Q18.4082 7.74414 18.4082 9.57031Q18.4082 11.3965 17.7246 12.998Q17.041 14.5996 15.8252 15.8105Q14.6094 17.0215 13.0078 17.71Q11.4062 18.3984 9.57031 18.3984Z" fill="#007aff"/>
  <path d="M9.83398 15.918Q10.0488 15.918 10.1904 15.7715Q10.332 15.625 10.4492 15.332L14.3848 5.04883Q14.4629 4.82422 14.4629 4.67773Q14.4629 4.50195 14.3604 4.39941Q14.2578 4.29688 14.082 4.29688Q13.9355 4.29688 13.7012 4.375L3.41797 8.31055Q3.13477 8.41797 2.98828 8.56445Q2.8418 8.71094 2.8418 8.91602Q2.8418 9.16016 3.00781 9.28711Q3.17383 9.41406 3.49609 9.52148L7.30469 10.6738Q7.45117 10.7129 7.58301 10.6885Q7.71484 10.6641 7.82227 10.5566L13.9355 4.6875Q14.0137 4.61914 14.0918 4.66797Q14.1602 4.70703 14.0723 4.82422L8.19336 10.9473Q7.98828 11.1523 8.08594 11.4551L9.22852 15.2441Q9.3457 15.5762 9.46777 15.7471Q9.58984 15.918 9.83398 15.918Z" fill="#ffffff"/>
 </g>
</svg>
