<?xml version="1.0" encoding="UTF-8"?>
<!--Generator: Apple Native CoreSVG 175-->
<!DOCTYPE svg
PUBLIC "-//W3C//DTD SVG 1.1//EN"
       "http://www.w3.org/Graphics/SVG/1.1/DTD/svg11.dtd">
<svg version="1.1" xmlns="http://www.w3.org/2000/svg" xmlns:xlink="http://www.w3.org/1999/xlink" width="13.2755" height="21.4059">
 <g>
  <rect height="21.4059" opacity="0" width="13.2755" x="0" y="0"/>
  <path d="M3.63052 21.3934Q3.76755 21.3934 3.85468 21.3132Q3.9418 21.2329 3.9418 21.111Q3.9418 21.0251 3.8916 20.9313Q3.8414 20.8376 3.7735 20.7294Q2.82822 19.3301 2.16278 17.6491Q1.49734 15.968 1.14677 14.1864Q0.796204 12.4048 0.796204 10.6981Q0.796204 8.99139 1.14677 7.20978Q1.49734 5.42816 2.16278 3.7471Q2.82822 2.06604 3.7735 0.666809Q3.8414 0.558624 3.8916 0.464859Q3.9418 0.371094 3.9418 0.285187Q3.9418 0.163269 3.85468 0.0816345Q3.76755 0 3.63052 0Q3.47229 0 3.37479 0.0978851Q3.27728 0.19577 3.16254 0.357513Q2.1106 1.80939 1.4061 3.51585Q0.701599 5.22232 0.3508 7.05315Q0 8.88397 0 10.6981Q0 12.5122 0.3508 14.3417Q0.701599 16.1711 1.4061 17.8776Q2.1106 19.584 3.16254 21.0359Q3.27728 21.2004 3.37479 21.2969Q3.47229 21.3934 3.63052 21.3934ZM9.64493 21.3934Q9.81018 21.3934 9.90768 21.2969Q10.0052 21.2004 10.1199 21.0359Q11.1719 19.584 11.8729 17.8776Q12.5739 16.1711 12.9247 14.3417Q13.2755 12.5122 13.2755 10.6981Q13.2755 8.88397 12.9247 7.05315Q12.5739 5.22232 11.8729 3.51585Q11.1719 1.80939 10.1199 0.357513Q10.0052 0.19577 9.90768 0.0978851Q9.81018 0 9.64493 0Q9.5079 0 9.42078 0.0816345Q9.33365 0.163269 9.33365 0.285187Q9.33365 0.371094 9.38385 0.464859Q9.43405 0.558624 9.50195 0.666809Q10.4543 2.06604 11.1197 3.7471Q11.7851 5.42816 12.1322 7.20978Q12.4792 8.99139 12.4792 10.6981Q12.4792 12.4048 12.1322 14.1864Q11.7851 15.968 11.1197 17.6491Q10.4543 19.3301 9.50195 20.7294Q9.43405 20.8376 9.38385 20.9313Q9.33365 21.0251 9.33365 21.111Q9.33365 21.2329 9.42078 21.3132Q9.5079 21.3934 9.64493 21.3934Z" fill="#ffffff"/>
 </g>
</svg>
