<?xml version="1.0" encoding="UTF-8"?>
<!--Generator: Apple Native CoreSVG 175.5-->
<!DOCTYPE svg
PUBLIC "-//W3C//DTD SVG 1.1//EN"
       "http://www.w3.org/Graphics/SVG/1.1/DTD/svg11.dtd">
<svg version="1.1" xmlns="http://www.w3.org/2000/svg" xmlns:xlink="http://www.w3.org/1999/xlink" width="14.541" height="21.6309">
 <g>
  <rect height="21.6309" opacity="0" width="14.541" x="0" y="0"/>
  <path d="M4.10156 21.6113Q4.36523 21.6113 4.55078 21.4502Q4.73633 21.2891 4.73633 21.0547Q4.73633 20.8984 4.68262 20.752Q4.62891 20.6055 4.51172 20.4199Q3.67188 19.0137 3.09082 17.417Q2.50977 15.8203 2.21191 14.1406Q1.91406 12.4609 1.91406 10.8105Q1.91406 9.16016 2.21191 7.48047Q2.50977 5.80078 3.09082 4.2041Q3.67188 2.60742 4.51172 1.20117Q4.62891 1.01562 4.68262 0.869141Q4.73633 0.722656 4.73633 0.566406Q4.73633 0.332031 4.55078 0.166016Q4.36523 0 4.10156 0Q3.83789 0 3.62793 0.161133Q3.41797 0.322266 3.18359 0.673828Q2.13867 2.16797 1.43066 3.84277Q0.722656 5.51758 0.361328 7.28516Q0 9.05273 0 10.8105Q0 12.5684 0.361328 14.3311Q0.722656 16.0938 1.43066 17.7686Q2.13867 19.4434 3.18359 20.9375Q3.41797 21.2988 3.62793 21.4551Q3.83789 21.6113 4.10156 21.6113ZM10.4395 21.6113Q10.7031 21.6113 10.9131 21.4551Q11.123 21.2988 11.3574 20.9375Q12.4023 19.4434 13.1104 17.7686Q13.8184 16.0938 14.1797 14.3311Q14.541 12.5684 14.541 10.8105Q14.541 9.05273 14.1797 7.28516Q13.8184 5.51758 13.1104 3.84277Q12.4023 2.16797 11.3574 0.673828Q11.123 0.322266 10.9131 0.161133Q10.7031 0 10.4395 0Q10.1758 0 9.99023 0.166016Q9.80469 0.332031 9.80469 0.566406Q9.80469 0.722656 9.8584 0.869141Q9.91211 1.01562 10.0293 1.20117Q10.8691 2.60742 11.4502 4.2041Q12.0312 5.80078 12.3291 7.48047Q12.627 9.16016 12.627 10.8105Q12.627 12.4609 12.3291 14.1406Q12.0312 15.8203 11.4502 17.417Q10.8691 19.0137 10.0293 20.4199Q9.91211 20.6055 9.8584 20.752Q9.80469 20.8984 9.80469 21.0547Q9.80469 21.2891 9.99023 21.4502Q10.1758 21.6113 10.4395 21.6113Z" fill="#ffffff"/>
 </g>
</svg>
