<?xml version="1.0" encoding="UTF-8"?>
<!--Generator: Apple Native CoreSVG 175.5-->
<!DOCTYPE svg
PUBLIC "-//W3C//DTD SVG 1.1//EN"
       "http://www.w3.org/Graphics/SVG/1.1/DTD/svg11.dtd">
<svg version="1.1" xmlns="http://www.w3.org/2000/svg" xmlns:xlink="http://www.w3.org/1999/xlink" width="8.125" height="16.1426">
 <g>
  <rect height="16.1426" opacity="0" width="8.125" x="0" y="0"/>
  <path d="M0.830078 16.1426Q1.18164 16.1426 1.42578 15.9082Q1.66992 15.6738 1.66992 15.332L1.66992 0.830078Q1.66992 0.478516 1.42578 0.244141Q1.18164 0.00976562 0.830078 0.00976562Q0.488281 0.00976562 0.244141 0.244141Q0 0.478516 0 0.830078L0 15.332Q0 15.6738 0.244141 15.9082Q0.488281 16.1426 0.830078 16.1426ZM7.28516 16.1426Q7.63672 16.1426 7.88086 15.9082Q8.125 15.6738 8.125 15.332L8.125 0.830078Q8.125 0.478516 7.88086 0.244141Q7.63672 0.00976562 7.28516 0.00976562Q6.94336 0.00976562 6.69922 0.244141Q6.45508 0.478516 6.45508 0.830078L6.45508 15.332Q6.45508 15.6738 6.69922 15.9082Q6.94336 16.1426 7.28516 16.1426Z" fill="#ffffff"/>
 </g>
</svg>
