<?xml version="1.0" encoding="UTF-8"?>
<!--Generator: Apple Native CoreSVG 175.5-->
<!DOCTYPE svg
PUBLIC "-//W3C//DTD SVG 1.1//EN"
       "http://www.w3.org/Graphics/SVG/1.1/DTD/svg11.dtd">
<svg version="1.1" xmlns="http://www.w3.org/2000/svg" xmlns:xlink="http://www.w3.org/1999/xlink" width="23.4473" height="20.7324">
 <g>
  <rect height="20.7324" opacity="0" width="23.4473" x="0" y="0"/>
  <path d="M0.791016 20.7227Q1.11328 20.7227 1.34277 20.4932Q1.57227 20.2637 1.57227 19.9414L1.57227 0.78125Q1.57227 0.458984 1.34277 0.229492Q1.11328 0 0.791016 0Q0.458984 0 0.229492 0.229492Q0 0.458984 0 0.78125L0 19.9414Q0 20.2637 0.229492 20.4932Q0.458984 20.7227 0.791016 20.7227ZM22.666 20.7227Q22.9883 20.7227 23.2178 20.4932Q23.4473 20.2637 23.4473 19.9414L23.4473 0.78125Q23.4473 0.458984 23.2178 0.229492Q22.9883 0 22.666 0Q22.334 0 22.1045 0.229492Q21.875 0.458984 21.875 0.78125L21.875 19.9414Q21.875 20.2637 22.1045 20.4932Q22.334 20.7227 22.666 20.7227ZM20.0586 4.08203L22.666 4.08203L22.666 2.80273L20.0586 2.80273ZM20.0586 8.71094L22.666 8.71094L22.666 7.43164L20.0586 7.43164ZM20.0586 13.3301L22.666 13.3301L22.666 12.0508L20.0586 12.0508ZM20.0586 17.9492L22.666 17.9492L22.666 16.6699L20.0586 16.6699Z" fill="#007aff"/>
  <path d="M10.5469 6.43555L20.0391 5.32227Q20.7324 5.24414 20.7324 4.63867L20.7324 2.22656Q20.7324 1.91406 20.5469 1.69434Q20.3613 1.47461 20.0391 1.54297L10.4199 3.67188Q10.127 3.74023 9.99023 3.91602Q9.85352 4.0918 9.85352 4.31641L9.85352 5.82031Q9.85352 6.15234 10.0293 6.31348Q10.2051 6.47461 10.5469 6.43555ZM10.4199 9.96094L20.0391 9.96094Q20.3516 9.96094 20.542 9.77051Q20.7324 9.58008 20.7324 9.27734L20.7324 6.86523Q20.7324 6.55273 20.5469 6.34766Q20.3613 6.14258 20.0391 6.18164L10.4199 7.30469Q10.1562 7.33398 10.0049 7.51465Q9.85352 7.69531 9.85352 7.96875L9.85352 9.32617Q9.85352 9.61914 10.0146 9.79004Q10.1758 9.96094 10.4199 9.96094ZM10.4199 13.4668L20.0391 14.5898Q20.3613 14.6289 20.5469 14.4238Q20.7324 14.2188 20.7324 13.9062L20.7324 11.4941Q20.7324 11.1914 20.542 11.001Q20.3516 10.8105 20.0391 10.8105L10.4199 10.8105Q10.1758 10.8105 10.0146 10.9814Q9.85352 11.1523 9.85352 11.4453L9.85352 12.8027Q9.85352 13.0762 10.0049 13.2568Q10.1562 13.4375 10.4199 13.4668ZM10.4199 17.0996L20.0391 19.2285Q20.3613 19.2969 20.5469 19.0771Q20.7324 18.8574 20.7324 18.5449L20.7324 16.123Q20.7324 15.5273 20.0391 15.4492L10.5469 14.3359Q10.2051 14.2969 10.0293 14.458Q9.85352 14.6191 9.85352 14.9512L9.85352 16.4551Q9.85352 16.6797 9.99023 16.8555Q10.127 17.0312 10.4199 17.0996Z" fill="#ffffff"/>
 </g>
</svg>
