<?xml version="1.0" encoding="UTF-8"?>
<!--Generator: Apple Native CoreSVG 175.5-->
<!DOCTYPE svg
PUBLIC "-//W3C//DTD SVG 1.1//EN"
       "http://www.w3.org/Graphics/SVG/1.1/DTD/svg11.dtd">
<svg version="1.1" xmlns="http://www.w3.org/2000/svg" xmlns:xlink="http://www.w3.org/1999/xlink" width="16.8945" height="21.9824">
 <g>
  <rect height="21.9824" opacity="0" width="16.8945" x="0" y="0"/>
  <path d="M0 2.5L2.45117 2.5L2.45117 1.10352Q2.45117 0.576172 2.19238 0.288086Q1.93359 0 1.45508 0L0.976562 0Q0.507812 0 0.253906 0.292969Q0 0.585938 0 1.10352ZM0 19.4238L0.888672 21.6113Q0.966797 21.7871 1.17188 21.792Q1.37695 21.7969 1.45508 21.6211L2.45117 19.4238L2.45117 3.64258L0 3.64258ZM9.6582 21.8359L14.502 21.8359Q15.5664 21.8359 16.2305 21.1719Q16.8945 20.5078 16.8945 19.4336L16.8945 2.54883Q16.8945 1.48438 16.2305 0.810547Q15.5664 0.136719 14.502 0.136719L9.6582 0.136719Q8.59375 0.136719 7.93457 0.810547Q7.27539 1.48438 7.27539 2.55859L7.27539 19.4336Q7.27539 20.5078 7.93457 21.1719Q8.59375 21.8359 9.6582 21.8359ZM15.4199 2.79297L11.3086 2.79297Q11.1523 2.79297 11.0449 2.69043Q10.9375 2.58789 10.9375 2.42188Q10.9375 2.27539 11.04 2.17285Q11.1426 2.07031 11.2988 2.07031L15.4199 2.07031ZM15.4199 4.50195L12.8516 4.50195Q12.6953 4.50195 12.5977 4.4043Q12.5 4.30664 12.5 4.14062Q12.5 3.98438 12.5928 3.88184Q12.6855 3.7793 12.8418 3.7793L15.4199 3.7793ZM15.4199 6.2207L12.8516 6.2207Q12.6953 6.2207 12.5977 6.11816Q12.5 6.01562 12.5 5.85938Q12.5 5.70312 12.5928 5.60059Q12.6855 5.49805 12.8418 5.49805L15.4199 5.49805ZM15.4199 7.92969L12.8516 7.92969Q12.6953 7.92969 12.5977 7.83203Q12.5 7.73438 12.5 7.56836Q12.5 7.41211 12.5928 7.30469Q12.6855 7.19727 12.8418 7.19727L15.4199 7.19727ZM15.4199 9.63867L12.8516 9.63867Q12.6953 9.63867 12.5977 9.5459Q12.5 9.45312 12.5 9.28711Q12.5 9.14062 12.5928 9.02832Q12.6855 8.91602 12.8418 8.91602L15.4199 8.91602ZM15.4199 11.3574L11.3086 11.3574Q11.1523 11.3574 11.0449 11.2598Q10.9375 11.1621 10.9375 10.9961Q10.9375 10.8496 11.04 10.7373Q11.1426 10.625 11.2988 10.625L15.4199 10.625ZM15.4199 13.0762L12.8516 13.0762Q12.6953 13.0762 12.5977 12.9736Q12.5 12.8711 12.5 12.7148Q12.5 12.5586 12.5928 12.4512Q12.6855 12.3438 12.8418 12.3438L15.4199 12.3438ZM15.4199 14.7949L12.8516 14.7949Q12.6953 14.7949 12.5977 14.6924Q12.5 14.5898 12.5 14.4238Q12.5 14.2773 12.5928 14.1748Q12.6855 14.0723 12.8418 14.0723L15.4199 14.0723ZM15.4199 16.4941L12.8516 16.4941Q12.6953 16.4941 12.5977 16.3965Q12.5 16.2988 12.5 16.1328Q12.5 15.9863 12.5928 15.8789Q12.6855 15.7715 12.8418 15.7715L15.4199 15.7715ZM15.4199 18.2129L12.8516 18.2129Q12.6953 18.2129 12.5977 18.1104Q12.5 18.0078 12.5 17.8418Q12.5 17.6953 12.5928 17.5928Q12.6855 17.4902 12.8418 17.4902L15.4199 17.4902ZM15.4199 19.9121L11.3086 19.9121Q11.1523 19.9121 11.0449 19.8193Q10.9375 19.7266 10.9375 19.5605Q10.9375 19.4043 11.04 19.2969Q11.1426 19.1895 11.2988 19.1895L15.4199 19.1895Z" fill="#ffffff"/>
 </g>
</svg>
