<?xml version="1.0" encoding="UTF-8"?>
<!--Generator: Apple Native CoreSVG 175.5-->
<!DOCTYPE svg
PUBLIC "-//W3C//DTD SVG 1.1//EN"
       "http://www.w3.org/Graphics/SVG/1.1/DTD/svg11.dtd">
<svg version="1.1" xmlns="http://www.w3.org/2000/svg" xmlns:xlink="http://www.w3.org/1999/xlink" width="38.9648" height="18.4082">
 <g>
  <rect height="18.4082" opacity="0" width="38.9648" x="0" y="0"/>
  <path d="M2.39258 18.4082L14.668 18.4082Q17.0605 18.4082 17.0605 16.8457Q17.0605 15.8887 16.4746 14.8047Q15.8887 13.7207 14.7803 12.7588Q13.6719 11.7969 12.0947 11.1914Q10.5176 10.5859 8.53516 10.5859Q6.54297 10.5859 4.96582 11.1914Q3.38867 11.7969 2.28027 12.7588Q1.17188 13.7207 0.585938 14.8047Q0 15.8887 0 16.8457Q0 18.4082 2.39258 18.4082ZM1.93359 16.9336Q1.73828 16.9336 1.65527 16.875Q1.57227 16.8164 1.57227 16.6602Q1.57227 16.0645 2.02637 15.2783Q2.48047 14.4922 3.36914 13.7598Q4.25781 13.0273 5.55664 12.5439Q6.85547 12.0605 8.53516 12.0605Q10.2148 12.0605 11.5088 12.5439Q12.8027 13.0273 13.6914 13.7598Q14.5801 14.4922 15.0342 15.2783Q15.4883 16.0645 15.4883 16.6602Q15.4883 16.8164 15.4053 16.875Q15.3223 16.9336 15.1367 16.9336ZM8.53516 9.23828Q9.6875 9.23828 10.6494 8.61328Q11.6113 7.98828 12.1826 6.94824Q12.7539 5.9082 12.7539 4.64844Q12.7539 3.39844 12.1875 2.3877Q11.6211 1.37695 10.6641 0.78125Q9.70703 0.185547 8.53516 0.185547Q7.37305 0.185547 6.41113 0.791016Q5.44922 1.39648 4.87793 2.41211Q4.30664 3.42773 4.31641 4.66797Q4.31641 5.91797 4.8877 6.95801Q5.45898 7.99805 6.41602 8.61816Q7.37305 9.23828 8.53516 9.23828ZM8.53516 7.76367Q7.8125 7.76367 7.21191 7.34863Q6.61133 6.93359 6.25 6.23047Q5.88867 5.52734 5.88867 4.66797Q5.87891 3.81836 6.24023 3.13965Q6.60156 2.46094 7.20215 2.06055Q7.80273 1.66016 8.53516 1.66016Q9.25781 1.66016 9.8584 2.05078Q10.459 2.44141 10.8203 3.12012Q11.1816 3.79883 11.1816 4.64844Q11.1816 5.50781 10.8154 6.21582Q10.4492 6.92383 9.84863 7.34375Q9.24805 7.76367 8.53516 7.76367Z" fill="#ffffff"/>
  <path d="M19.4727 10.5859Q18.252 10.5859 17.1777 10.835Q16.1035 11.084 15.1953 11.5137Q15.5371 11.7676 15.8447 12.041Q16.1523 12.3145 16.4258 12.6074Q17.0801 12.3633 17.8467 12.2119Q18.6133 12.0605 19.4727 12.0605Q21.1523 12.0605 22.4512 12.5439Q23.75 13.0273 24.6387 13.7598Q25.5273 14.4922 25.9814 15.2783Q26.4355 16.0645 26.4355 16.6602Q26.4355 16.8164 26.3525 16.875Q26.2695 16.9336 26.0742 16.9336L18.2715 16.9336Q18.2617 17.334 18.1738 17.7002Q18.0859 18.0664 17.8516 18.4082L25.6055 18.4082Q28.0078 18.4082 28.0078 16.8457Q28.0078 15.8887 27.4219 14.8047Q26.8359 13.7207 25.7275 12.7588Q24.6191 11.7969 23.042 11.1914Q21.4648 10.5859 19.4727 10.5859ZM19.4824 9.23828Q20.6445 9.23828 21.6016 8.61328Q22.5586 7.98828 23.1299 6.94824Q23.7012 5.9082 23.7012 4.64844Q23.7012 3.39844 23.1348 2.3877Q22.5684 1.37695 21.6113 0.78125Q20.6543 0.185547 19.4824 0.185547Q18.3203 0.185547 17.3633 0.791016Q16.4062 1.39648 15.835 2.41211Q15.2637 3.42773 15.2637 4.66797Q15.2637 5.91797 15.835 6.95801Q16.4062 7.99805 17.3633 8.61816Q18.3203 9.23828 19.4824 9.23828ZM19.4824 7.76367Q18.7695 7.76367 18.1641 7.34863Q17.5586 6.93359 17.1973 6.23047Q16.8359 5.52734 16.8359 4.66797Q16.8359 3.81836 17.1924 3.13965Q17.5488 2.46094 18.1543 2.06055Q18.7598 1.66016 19.4824 1.66016Q20.2148 1.66016 20.8154 2.05078Q21.416 2.44141 21.7725 3.12012Q22.1289 3.79883 22.1289 4.64844Q22.1289 5.50781 21.7676 6.21582Q21.4062 6.92383 20.8057 7.34375Q20.2051 7.76367 19.4824 7.76367Z" fill="#007aff"/>
  <path d="M30.4297 10.5859Q29.1992 10.5859 28.125 10.8398Q27.0508 11.0938 26.1426 11.5234Q26.4844 11.7773 26.7969 12.0508Q27.1094 12.3242 27.373 12.627Q28.0273 12.3633 28.7939 12.2119Q29.5605 12.0605 30.4297 12.0605Q32.1094 12.0605 33.4082 12.5439Q34.707 13.0273 35.5908 13.7598Q36.4746 14.4922 36.9336 15.2783Q37.3926 16.0645 37.3926 16.6602Q37.3926 16.8164 37.3096 16.875Q37.2266 16.9336 37.0312 16.9336L29.2188 16.9336Q29.209 17.334 29.1211 17.7002Q29.0332 18.0664 28.7891 18.4082L36.5625 18.4082Q38.9648 18.4082 38.9648 16.8457Q38.9648 15.8887 38.3789 14.8047Q37.793 13.7207 36.6846 12.7588Q35.5762 11.7969 33.999 11.1914Q32.4219 10.5859 30.4297 10.5859ZM30.4297 9.23828Q31.5918 9.23828 32.5488 8.61328Q33.5059 7.98828 34.0771 6.94824Q34.6484 5.9082 34.6484 4.64844Q34.6484 3.39844 34.082 2.3877Q33.5156 1.37695 32.5586 0.78125Q31.6016 0.185547 30.4297 0.185547Q29.2676 0.185547 28.3105 0.791016Q27.3535 1.39648 26.7822 2.41211Q26.2109 3.42773 26.2109 4.66797Q26.2207 5.91797 26.7871 6.95801Q27.3535 7.99805 28.3105 8.61816Q29.2676 9.23828 30.4297 9.23828ZM30.4297 7.76367Q29.7168 7.76367 29.1162 7.34863Q28.5156 6.93359 28.1494 6.23047Q27.7832 5.52734 27.7832 4.66797Q27.7832 3.81836 28.1445 3.13965Q28.5059 2.46094 29.1064 2.06055Q29.707 1.66016 30.4297 1.66016Q31.1621 1.66016 31.7627 2.05078Q32.3633 2.44141 32.7197 3.12012Q33.0762 3.79883 33.0762 4.64844Q33.0762 5.50781 32.7148 6.21582Q32.3535 6.92383 31.7529 7.34375Q31.1523 7.76367 30.4297 7.76367Z" fill="#007aff"/>
 </g>
</svg>
