<?xml version="1.0" encoding="UTF-8"?>
<!--Generator: Apple Native CoreSVG 175.5-->
<!DOCTYPE svg
PUBLIC "-//W3C//DTD SVG 1.1//EN"
       "http://www.w3.org/Graphics/SVG/1.1/DTD/svg11.dtd">
<svg version="1.1" xmlns="http://www.w3.org/2000/svg" xmlns:xlink="http://www.w3.org/1999/xlink" width="38.3496" height="17.8809">
 <g>
  <rect height="17.8809" opacity="0" width="38.3496" x="0" y="0"/>
  <path d="M2.08008 17.8809L14.3457 17.8809Q15.5078 17.8809 15.9717 17.5537Q16.4355 17.2266 16.4355 16.582Q16.4355 15.6445 15.8643 14.5996Q15.293 13.5547 14.2236 12.6416Q13.1543 11.7285 11.6357 11.1572Q10.1172 10.5859 8.21289 10.5859Q6.31836 10.5859 4.7998 11.1572Q3.28125 11.7285 2.20703 12.6416Q1.13281 13.5547 0.566406 14.5996Q0 15.6445 0 16.582Q0 17.2266 0.463867 17.5537Q0.927734 17.8809 2.08008 17.8809ZM8.22266 8.83789Q9.26758 8.83789 10.1562 8.2666Q11.0449 7.69531 11.5869 6.71875Q12.1289 5.74219 12.1289 4.52148Q12.1289 3.32031 11.5869 2.36816Q11.0449 1.41602 10.1562 0.869141Q9.26758 0.322266 8.22266 0.322266Q7.17773 0.322266 6.28906 0.878906Q5.40039 1.43555 4.8584 2.39258Q4.31641 3.34961 4.31641 4.54102Q4.31641 5.75195 4.8584 6.72363Q5.40039 7.69531 6.28906 8.2666Q7.17773 8.83789 8.22266 8.83789Z" fill="#ffffff"/>
  <path d="M19.1797 10.5859Q17.9297 10.5859 16.8408 10.8545Q15.752 11.123 14.8535 11.5723Q16.1328 12.5684 16.8994 13.8623Q17.666 15.1562 17.666 16.582Q17.666 17.3438 17.334 17.8809L25.3125 17.8809Q26.4648 17.8809 26.9287 17.5537Q27.3926 17.2266 27.3926 16.582Q27.3926 15.6445 26.8262 14.5996Q26.2598 13.5547 25.1855 12.6416Q24.1113 11.7285 22.5928 11.1572Q21.0742 10.5859 19.1797 10.5859ZM19.1797 8.83789Q20.2344 8.83789 21.123 8.2666Q22.0117 7.69531 22.5488 6.71875Q23.0859 5.74219 23.0859 4.52148Q23.0859 3.32031 22.5439 2.36816Q22.002 1.41602 21.1133 0.869141Q20.2246 0.322266 19.1797 0.322266Q18.1445 0.322266 17.251 0.878906Q16.3574 1.43555 15.8154 2.39258Q15.2734 3.34961 15.2832 4.54102Q15.2832 5.75195 15.8203 6.72363Q16.3574 7.69531 17.2461 8.2666Q18.1348 8.83789 19.1797 8.83789Z" fill="#007aff"/>
  <path d="M30.127 10.5859Q28.8867 10.5859 27.7979 10.8545Q26.709 11.123 25.8105 11.5625Q27.0996 12.5586 27.8662 13.8574Q28.6328 15.1562 28.6328 16.582Q28.6328 17.3438 28.3008 17.8809L36.2598 17.8809Q37.4219 17.8809 37.8857 17.5537Q38.3496 17.2266 38.3496 16.582Q38.3496 15.6445 37.7783 14.5996Q37.207 13.5547 36.1377 12.6416Q35.0684 11.7285 33.5498 11.1572Q32.0312 10.5859 30.127 10.5859ZM30.1367 8.83789Q31.1816 8.83789 32.0703 8.2666Q32.959 7.69531 33.501 6.71875Q34.043 5.74219 34.043 4.52148Q34.043 3.32031 33.501 2.36816Q32.959 1.41602 32.0703 0.869141Q31.1816 0.322266 30.1367 0.322266Q29.0918 0.322266 28.2031 0.878906Q27.3145 1.43555 26.7725 2.39258Q26.2305 3.34961 26.2305 4.54102Q26.2305 5.75195 26.7725 6.72363Q27.3145 7.69531 28.2031 8.2666Q29.0918 8.83789 30.1367 8.83789Z" fill="#007aff"/>
 </g>
</svg>
