<?xml version="1.0" encoding="UTF-8"?>
<!--Generator: Apple Native CoreSVG 175.5-->
<!DOCTYPE svg
PUBLIC "-//W3C//DTD SVG 1.1//EN"
       "http://www.w3.org/Graphics/SVG/1.1/DTD/svg11.dtd">
<svg version="1.1" xmlns="http://www.w3.org/2000/svg" xmlns:xlink="http://www.w3.org/1999/xlink" width="22.4316" height="22.8113">
 <g>
  <rect height="22.8113" opacity="0" width="22.4316" x="0" y="0"/>
  <path d="M2.40234 20.6098L14.668 20.6098Q17.0605 20.6098 17.0605 19.0473Q17.0605 18.0902 16.4795 17.0063Q15.8984 15.9223 14.79 14.9604Q13.6816 13.9984 12.0996 13.393Q10.5176 12.7875 8.53516 12.7875Q6.54297 12.7875 4.96582 13.393Q3.38867 13.9984 2.28027 14.9604Q1.17188 15.9223 0.585938 17.0063Q0 18.0902 0 19.0473Q0 20.6098 2.40234 20.6098ZM1.93359 19.1352Q1.73828 19.1352 1.65527 19.0766Q1.57227 19.018 1.57227 18.8617Q1.57227 18.266 2.03125 17.4799Q2.49023 16.6938 3.37402 15.9613Q4.25781 15.2289 5.55664 14.7455Q6.85547 14.2621 8.53516 14.2621Q10.2148 14.2621 11.5088 14.7455Q12.8027 15.2289 13.6914 15.9613Q14.5801 16.6938 15.0342 17.4799Q15.4883 18.266 15.4883 18.8617Q15.4883 19.018 15.4053 19.0766Q15.3223 19.1352 15.1367 19.1352ZM8.53516 11.4398Q9.69727 11.4398 10.6543 10.8148Q11.6113 10.1898 12.1826 9.1498Q12.7539 8.10977 12.7539 6.85Q12.7539 5.6 12.1875 4.58926Q11.6211 3.57852 10.6641 2.98281Q9.70703 2.38711 8.53516 2.38711Q7.38281 2.38711 6.4209 2.99258Q5.45898 3.59805 4.8877 4.61367Q4.31641 5.6293 4.31641 6.86953Q4.32617 8.11953 4.89746 9.15957Q5.46875 10.1996 6.42578 10.8197Q7.38281 11.4398 8.53516 11.4398ZM8.53516 9.96523Q7.82227 9.96523 7.22168 9.5502Q6.62109 9.13516 6.25488 8.43203Q5.88867 7.72891 5.88867 6.86953Q5.88867 6.01992 6.25 5.34121Q6.61133 4.6625 7.21191 4.26211Q7.8125 3.86172 8.53516 3.86172Q9.26758 3.86172 9.86816 4.25234Q10.4688 4.64297 10.8252 5.32168Q11.1816 6.00039 11.1816 6.85Q11.1816 7.70938 10.8203 8.41738Q10.459 9.12539 9.8584 9.54531Q9.25781 9.96523 8.53516 9.96523Z" fill="#ffffff"/>
  <path d="M15.7617 11.0102Q16.0059 11.1859 16.3086 11.1273Q16.6113 11.0688 16.8066 10.7855Q17.373 10.0434 17.6904 9.0082Q18.0078 7.97305 18.0078 6.85Q18.0078 5.72695 17.6904 4.6918Q17.373 3.65664 16.8066 2.91445Q16.6113 2.63125 16.3086 2.57754Q16.0059 2.52383 15.7617 2.68984Q15.459 2.89492 15.4199 3.22207Q15.3809 3.54922 15.6055 3.85195Q16.0352 4.43789 16.2646 5.21914Q16.4941 6.00039 16.4941 6.85Q16.4941 7.69961 16.2598 8.47598Q16.0254 9.25234 15.6055 9.84805Q15.3809 10.1605 15.4199 10.4828Q15.459 10.8051 15.7617 11.0102Z" fill="#007aff"/>
  <path d="M19.375 13.559Q19.6484 13.7445 19.9512 13.6859Q20.2539 13.6273 20.4492 13.3441Q21.3867 12.0551 21.9092 10.3559Q22.4316 8.65664 22.4316 6.85Q22.4316 5.04336 21.9141 3.33438Q21.3965 1.62539 20.4492 0.355859Q20.2539 0.0726563 19.9512 0.0140625Q19.6484-0.0445312 19.375 0.141016Q19.1113 0.326563 19.0723 0.63418Q19.0332 0.941797 19.248 1.24453Q20.0488 2.37734 20.4834 3.83242Q20.918 5.2875 20.918 6.85Q20.918 8.4125 20.4736 9.8627Q20.0293 11.3129 19.248 12.4555Q19.0332 12.7582 19.0723 13.0658Q19.1113 13.3734 19.375 13.559Z" fill="#007aff"/>
 </g>
</svg>
