<?xml version="1.0" encoding="UTF-8"?>
<!--Generator: Apple Native CoreSVG 175.5-->
<!DOCTYPE svg
PUBLIC "-//W3C//DTD SVG 1.1//EN"
       "http://www.w3.org/Graphics/SVG/1.1/DTD/svg11.dtd">
<svg version="1.1" xmlns="http://www.w3.org/2000/svg" xmlns:xlink="http://www.w3.org/1999/xlink" width="20.459" height="21.6504">
 <g>
  <rect height="21.6504" opacity="0" width="20.459" x="0" y="0"/>
  <path d="M3.06641 21.6211L17.3926 21.6211Q18.916 21.6211 19.6875 20.8594Q20.459 20.0977 20.459 18.5938L20.459 8.56445Q20.459 7.06055 19.6875 6.29883Q18.916 5.53711 17.3926 5.53711L3.06641 5.53711Q1.5332 5.53711 0.766602 6.29395Q0 7.05078 0 8.56445L0 18.5938Q0 20.1074 0.766602 20.8643Q1.5332 21.6211 3.06641 21.6211ZM3.08594 20.0488Q2.35352 20.0488 1.96289 19.6582Q1.57227 19.2676 1.57227 18.5059L1.57227 8.65234Q1.57227 7.89062 1.96289 7.5Q2.35352 7.10938 3.08594 7.10938L17.3633 7.10938Q18.0859 7.10938 18.4863 7.5Q18.8867 7.89062 18.8867 8.65234L18.8867 18.5059Q18.8867 19.2676 18.4863 19.6582Q18.0859 20.0488 17.3633 20.0488ZM2.06055 3.96484L18.4082 3.96484Q18.291 3.30078 17.9443 2.94434Q17.5977 2.58789 16.8652 2.58789L3.60352 2.58789Q2.87109 2.58789 2.51953 2.94434Q2.16797 3.30078 2.06055 3.96484ZM4.07227 1.25977L16.3965 1.25977Q16.3477 0.634766 15.9912 0.317383Q15.6348 0 14.9609 0L5.49805 0Q4.82422 0 4.46777 0.317383Q4.11133 0.634766 4.07227 1.25977ZM4.14062 20.8301L16.3379 20.8301Q16.1426 19.8926 15.6006 19.1113Q15.0586 18.3301 14.248 17.749Q13.4375 17.168 12.417 16.8506Q11.3965 16.5332 10.2344 16.5332Q9.08203 16.5332 8.06152 16.8506Q7.04102 17.168 6.23047 17.749Q5.41992 18.3301 4.87793 19.1113Q4.33594 19.8926 4.14062 20.8301ZM10.2344 15.0586Q11.084 15.0684 11.7725 14.6289Q12.4609 14.1895 12.8662 13.4375Q13.2715 12.6855 13.2715 11.7383Q13.2715 10.8496 12.8662 10.1074Q12.4609 9.36523 11.7725 8.92578Q11.084 8.48633 10.2344 8.48633Q9.39453 8.48633 8.70605 8.92578Q8.01758 9.36523 7.6123 10.1074Q7.20703 10.8496 7.20703 11.7383Q7.2168 12.6855 7.61719 13.4326Q8.01758 14.1797 8.70605 14.6143Q9.39453 15.0488 10.2344 15.0586Z" fill="#ffffff"/>
 </g>
</svg>
