<?xml version="1.0" encoding="UTF-8"?>
<!--Generator: Apple Native CoreSVG 175.5-->
<!DOCTYPE svg
PUBLIC "-//W3C//DTD SVG 1.1//EN"
       "http://www.w3.org/Graphics/SVG/1.1/DTD/svg11.dtd">
<svg version="1.1" xmlns="http://www.w3.org/2000/svg" xmlns:xlink="http://www.w3.org/1999/xlink" width="16.4355" height="17.8223">
 <g>
  <rect height="17.8223" opacity="0" width="16.4355" x="0" y="0"/>
  <path d="M2.08008 0.273438Q0.927734 0.273438 0.463867 0.600586Q0 0.927734 0 1.5625Q0 2.50977 0.566406 3.55469Q1.13281 4.59961 2.20703 5.50781Q3.28125 6.41602 4.7998 6.9873Q6.31836 7.55859 8.21289 7.55859Q10.1172 7.55859 11.6357 6.9873Q13.1543 6.41602 14.2236 5.50781Q15.293 4.59961 15.8643 3.55469Q16.4355 2.50977 16.4355 1.5625Q16.4355 0.927734 15.9717 0.600586Q15.5078 0.273438 14.3457 0.273438ZM8.22266 9.30664Q7.17773 9.30664 6.28906 9.87793Q5.40039 10.4492 4.8584 11.4258Q4.31641 12.4023 4.31641 13.6133Q4.31641 14.8047 4.8584 15.7568Q5.40039 16.709 6.28906 17.2656Q7.17773 17.8223 8.22266 17.8223Q9.26758 17.8223 10.1562 17.2754Q11.0449 16.7285 11.5869 15.7812Q12.1289 14.834 12.1289 13.6328Q12.1289 12.4121 11.5869 11.4307Q11.0449 10.4492 10.1562 9.87793Q9.26758 9.30664 8.22266 9.30664Z" fill="#ffffff"/>
 </g>
</svg>
