<?xml version="1.0" encoding="UTF-8"?>
<!--Generator: Apple Native CoreSVG 175.5-->
<!DOCTYPE svg
PUBLIC "-//W3C//DTD SVG 1.1//EN"
       "http://www.w3.org/Graphics/SVG/1.1/DTD/svg11.dtd">
<svg version="1.1" xmlns="http://www.w3.org/2000/svg" xmlns:xlink="http://www.w3.org/1999/xlink" width="32.5684" height="22.8113">
 <g>
  <rect height="22.8113" opacity="0" width="32.5684" x="0" y="0"/>
  <path d="M12.5391 20.6098L24.8047 20.6098Q27.1973 20.6098 27.1973 19.0473Q27.1973 18.0902 26.6113 17.0063Q26.0254 15.9223 24.917 14.9604Q23.8086 13.9984 22.2314 13.393Q20.6543 12.7875 18.6719 12.7875Q16.6797 12.7875 15.1025 13.393Q13.5254 13.9984 12.417 14.9604Q11.3086 15.9223 10.7227 17.0063Q10.1367 18.0902 10.1367 19.0473Q10.1367 20.6098 12.5391 20.6098ZM12.0703 19.1352Q11.875 19.1352 11.792 19.0766Q11.709 19.018 11.709 18.8617Q11.709 18.266 12.168 17.4799Q12.627 16.6938 13.5107 15.9613Q14.3945 15.2289 15.6934 14.7455Q16.9922 14.2621 18.6719 14.2621Q20.3516 14.2621 21.6455 14.7455Q22.9395 15.2289 23.8281 15.9613Q24.7168 16.6938 25.1709 17.4799Q25.625 18.266 25.625 18.8617Q25.625 19.018 25.542 19.0766Q25.459 19.1352 25.2734 19.1352ZM18.6719 11.4398Q19.834 11.4398 20.791 10.8148Q21.748 10.1898 22.3193 9.1498Q22.8906 8.10977 22.8906 6.85Q22.8906 5.6 22.3242 4.58926Q21.7578 3.57852 20.8008 2.98281Q19.8438 2.38711 18.6719 2.38711Q17.5098 2.38711 16.5527 2.99258Q15.5957 3.59805 15.0244 4.61367Q14.4531 5.6293 14.4531 6.86953Q14.4629 8.11953 15.0293 9.15957Q15.5957 10.1996 16.5527 10.8197Q17.5098 11.4398 18.6719 11.4398ZM18.6719 9.96523Q17.959 9.96523 17.3584 9.5502Q16.7578 9.13516 16.3916 8.43203Q16.0254 7.72891 16.0254 6.86953Q16.0254 6.01992 16.3867 5.34121Q16.748 4.6625 17.3486 4.26211Q17.9492 3.86172 18.6719 3.86172Q19.4043 3.86172 20.0049 4.25234Q20.6055 4.64297 20.9619 5.32168Q21.3184 6.00039 21.3184 6.85Q21.3184 7.70938 20.957 8.41738Q20.5957 9.12539 19.9951 9.54531Q19.3945 9.96523 18.6719 9.96523ZM1.99219 20.6098L9.6582 20.6098Q9.30664 20.4145 9.07715 20.0141Q8.84766 19.6137 8.89648 19.1645L1.74805 19.1645Q1.60156 19.1645 1.52832 19.101Q1.45508 19.0375 1.45508 18.9008Q1.45508 17.9926 1.93359 17.1527Q2.41211 16.3129 3.24219 15.6488Q4.07227 14.9848 5.14648 14.599Q6.2207 14.2133 7.41211 14.2133Q8.02734 14.2133 8.59863 14.3109Q9.16992 14.4086 9.69238 14.5941Q10.2148 14.7797 10.6934 15.0629Q10.9277 14.7699 11.2012 14.5111Q11.4746 14.2523 11.7969 14.0277Q11.1719 13.6078 10.4639 13.3295Q9.75586 13.0512 8.98926 12.9096Q8.22266 12.768 7.41211 12.768Q5.87891 12.768 4.53613 13.2758Q3.19336 13.7836 2.17285 14.6625Q1.15234 15.5414 0.576172 16.6547Q0 17.768 0 18.9887Q0 19.7992 0.498047 20.2045Q0.996094 20.6098 1.99219 20.6098ZM7.42188 11.6547Q8.42773 11.6547 9.2627 11.1127Q10.0977 10.5707 10.5908 9.65762Q11.084 8.74453 11.084 7.63125Q11.084 6.54727 10.5908 5.65859Q10.0977 4.76992 9.26758 4.24258Q8.4375 3.71523 7.42188 3.71523Q6.41602 3.71523 5.58594 4.24746Q4.75586 4.77969 4.25781 5.67813Q3.75977 6.57656 3.75977 7.65078Q3.75977 8.7543 4.25781 9.6625Q4.75586 10.5707 5.58594 11.1127Q6.41602 11.6547 7.42188 11.6547ZM7.42188 10.1996Q6.82617 10.1996 6.32324 9.85781Q5.82031 9.51602 5.51758 8.93496Q5.21484 8.35391 5.21484 7.65078Q5.21484 6.96719 5.51758 6.40078Q5.82031 5.83438 6.31836 5.50234Q6.81641 5.17031 7.42188 5.17031Q8.03711 5.17031 8.54004 5.49746Q9.04297 5.82461 9.34082 6.38125Q9.63867 6.93789 9.63867 7.63125Q9.63867 8.34414 9.33594 8.93008Q9.0332 9.51602 8.53027 9.85781Q8.02734 10.1996 7.42188 10.1996Z" fill="#ffffff"/>
  <path d="M25.8984 11.0102Q26.1426 11.1859 26.4453 11.1273Q26.748 11.0688 26.9434 10.7855Q27.5098 10.0434 27.8271 9.0082Q28.1445 7.97305 28.1445 6.85Q28.1445 5.72695 27.8271 4.6918Q27.5098 3.65664 26.9434 2.91445Q26.748 2.63125 26.4453 2.57754Q26.1426 2.52383 25.8984 2.68984Q25.5957 2.89492 25.5518 3.22207Q25.5078 3.54922 25.7422 3.85195Q26.1719 4.43789 26.4014 5.21914Q26.6309 6.00039 26.6309 6.85Q26.6309 7.69961 26.3965 8.47598Q26.1621 9.25234 25.7422 9.84805Q25.5176 10.1605 25.5566 10.4828Q25.5957 10.8051 25.8984 11.0102Z" fill="#007aff"/>
  <path d="M29.5117 13.559Q29.7852 13.7445 30.0879 13.6859Q30.3906 13.6273 30.5859 13.3441Q31.5234 12.0551 32.0459 10.3559Q32.5684 8.65664 32.5684 6.85Q32.5684 5.04336 32.0508 3.33438Q31.5332 1.62539 30.5859 0.355859Q30.3906 0.0726563 30.0879 0.0140625Q29.7852-0.0445312 29.5117 0.141016Q29.248 0.326563 29.209 0.63418Q29.1699 0.941797 29.375 1.24453Q30.1758 2.37734 30.6152 3.83242Q31.0547 5.2875 31.0547 6.85Q31.0547 8.4125 30.6104 9.8627Q30.166 11.3129 29.375 12.4555Q29.1699 12.7582 29.209 13.0658Q29.248 13.3734 29.5117 13.559Z" fill="#007aff"/>
 </g>
</svg>
