<?xml version="1.0" encoding="UTF-8"?>
<!--Generator: Apple Native CoreSVG 175.5-->
<!DOCTYPE svg
PUBLIC "-//W3C//DTD SVG 1.1//EN"
       "http://www.w3.org/Graphics/SVG/1.1/DTD/svg11.dtd">
<svg version="1.1" xmlns="http://www.w3.org/2000/svg" xmlns:xlink="http://www.w3.org/1999/xlink" width="17.9785" height="17.998">
 <g>
  <rect height="17.998" opacity="0" width="17.9785" x="0" y="0"/>
  <path d="M3.06641 17.998L14.9121 17.998Q16.4453 17.998 17.2119 17.2412Q17.9785 16.4844 17.9785 14.9707L17.9785 3.04688Q17.9785 1.5332 17.2119 0.776367Q16.4453 0.0195312 14.9121 0.0195312L3.06641 0.0195312Q1.5332 0.0195312 0.766602 0.776367Q0 1.5332 0 3.04688L0 14.9707Q0 16.4844 0.766602 17.2412Q1.5332 17.998 3.06641 17.998ZM3.08594 16.4258Q2.35352 16.4258 1.96289 16.04Q1.57227 15.6543 1.57227 14.8926L1.57227 3.125Q1.57227 2.36328 1.96289 1.97754Q2.35352 1.5918 3.08594 1.5918L14.8926 1.5918Q15.6152 1.5918 16.0107 1.97754Q16.4062 2.36328 16.4062 3.125L16.4062 14.8926Q16.4062 15.6543 16.0107 16.04Q15.6152 16.4258 14.8926 16.4258Z" fill="#007aff"/>
  <path d="M5.41992 7.45117Q5.41992 7.65625 5.55664 7.79785Q5.69336 7.93945 5.89844 7.93945L6.49414 7.93945L6.49414 13.2422Q6.49414 13.5254 6.67969 13.7061Q6.86523 13.8867 7.13867 13.8867Q7.42188 13.8867 7.59766 13.7061Q7.77344 13.5254 7.77344 13.2422L7.77344 10.4883L9.48242 10.4883Q10.7129 10.4883 11.5283 9.78516Q12.3438 9.08203 12.4805 7.93945L12.9297 7.93945Q13.1445 7.93945 13.2764 7.79785Q13.4082 7.65625 13.4082 7.45117Q13.4082 7.23633 13.2764 7.10449Q13.1445 6.97266 12.9297 6.97266L12.4609 6.97266Q12.2949 5.87891 11.4893 5.21484Q10.6836 4.55078 9.48242 4.55078L7.11914 4.55078Q6.49414 4.55078 6.49414 5.19531L6.49414 6.97266L5.89844 6.97266Q5.69336 6.97266 5.55664 7.10449Q5.41992 7.23633 5.41992 7.45117ZM7.7832 9.33594L7.7832 7.93945L11.1816 7.93945Q11.0645 8.60352 10.5713 8.96973Q10.0781 9.33594 9.26758 9.33594ZM7.7832 6.97266L7.7832 5.70312L9.26758 5.70312Q10.0391 5.70312 10.5273 6.03027Q11.0156 6.35742 11.1523 6.97266Z" fill="#ffffff"/>
 </g>
</svg>
