<?xml version="1.0" encoding="UTF-8"?>
<!--Generator: Apple Native CoreSVG 175.5-->
<!DOCTYPE svg
PUBLIC "-//W3C//DTD SVG 1.1//EN"
       "http://www.w3.org/Graphics/SVG/1.1/DTD/svg11.dtd">
<svg version="1.1" xmlns="http://www.w3.org/2000/svg" xmlns:xlink="http://www.w3.org/1999/xlink" width="14.4922" height="18.1738">
 <g>
  <rect height="18.1738" opacity="0" width="14.4922" x="0" y="0"/>
  <path d="M1.92383 17.2461Q1.92383 17.627 2.19727 17.9004Q2.4707 18.1738 2.86133 18.1738Q3.24219 18.1738 3.51562 17.9004Q3.78906 17.627 3.78906 17.2461L3.78906 11.4551L7.30469 11.4551Q8.96484 11.4551 10.2295 10.7568Q11.4941 10.0586 12.2021 8.81348Q12.9102 7.56836 12.9102 5.92773Q12.9102 4.29688 12.2363 3.06152Q11.5625 1.82617 10.3271 1.13281Q9.0918 0.439453 7.40234 0.439453L2.86133 0.439453Q2.43164 0.439453 2.17773 0.703125Q1.92383 0.966797 1.92383 1.40625ZM3.78906 9.81445L3.78906 2.09961L6.94336 2.09961Q8.28125 2.09961 9.18457 2.54883Q10.0879 2.99805 10.542 3.85254Q10.9961 4.70703 10.9961 5.92773Q10.9961 7.14844 10.5127 8.01758Q10.0293 8.88672 9.10645 9.35059Q8.18359 9.81445 6.86523 9.81445ZM0.615234 6.46484L13.8574 6.46484Q14.1309 6.46484 14.3115 6.27441Q14.4922 6.08398 14.4922 5.82031Q14.4922 5.54688 14.3115 5.36621Q14.1309 5.18555 13.8574 5.18555L0.615234 5.18555Q0.351562 5.18555 0.175781 5.36621Q0 5.54688 0 5.82031Q0 6.08398 0.175781 6.27441Q0.351562 6.46484 0.615234 6.46484Z" fill="#ffffff"/>
 </g>
</svg>
