<?xml version="1.0" encoding="UTF-8"?>
<!--Generator: Apple Native CoreSVG 175.5-->
<!DOCTYPE svg
PUBLIC "-//W3C//DTD SVG 1.1//EN"
       "http://www.w3.org/Graphics/SVG/1.1/DTD/svg11.dtd">
<svg version="1.1" xmlns="http://www.w3.org/2000/svg" xmlns:xlink="http://www.w3.org/1999/xlink" width="17.9785" height="17.998">
 <g>
  <rect height="17.998" opacity="0" width="17.9785" x="0" y="0"/>
  <path d="M3.06641 17.998L14.9121 17.998Q16.4453 17.998 17.2119 17.2412Q17.9785 16.4844 17.9785 14.9707L17.9785 3.04688Q17.9785 1.5332 17.2119 0.776367Q16.4453 0.0195312 14.9121 0.0195312L3.06641 0.0195312Q1.5332 0.0195312 0.766602 0.776367Q0 1.5332 0 3.04688L0 14.9707Q0 16.4844 0.766602 17.2412Q1.5332 17.998 3.06641 17.998Z" fill="#007aff"/>
  <path d="M5.29297 8.42773Q5.29297 8.20312 5.43457 8.06152Q5.57617 7.91992 5.78125 7.91992L6.39648 7.91992L6.39648 7.28516L5.78125 7.28516Q5.57617 7.28516 5.43457 7.13867Q5.29297 6.99219 5.29297 6.77734Q5.29297 6.5625 5.43457 6.42578Q5.57617 6.28906 5.78125 6.28906L6.39648 6.28906L6.39648 5.08789Q6.39648 4.77539 6.57227 4.59473Q6.74805 4.41406 7.05078 4.41406L9.48242 4.41406Q10.5176 4.41406 11.2695 4.92188Q12.0215 5.42969 12.3633 6.28906L13.0469 6.28906Q13.5352 6.28906 13.5352 6.77734Q13.5352 6.99219 13.3984 7.13867Q13.2617 7.28516 13.0469 7.28516L12.5879 7.28516Q12.5977 7.38281 12.5977 7.45605Q12.5977 7.5293 12.5977 7.60742Q12.5977 7.80273 12.5879 7.91992L13.0469 7.91992Q13.2617 7.91992 13.3984 8.06152Q13.5352 8.20312 13.5352 8.42773Q13.5352 8.63281 13.3984 8.77441Q13.2617 8.91602 13.0469 8.91602L12.373 8.91602Q12.0312 9.78516 11.2744 10.3027Q10.5176 10.8203 9.48242 10.8203L7.72461 10.8203L7.72461 13.3887Q7.72461 13.6816 7.54395 13.8623Q7.36328 14.043 7.07031 14.043Q6.78711 14.043 6.5918 13.8623Q6.39648 13.6816 6.39648 13.3887L6.39648 8.91602L5.78125 8.91602Q5.57617 8.91602 5.43457 8.77441Q5.29297 8.63281 5.29297 8.42773ZM7.73438 9.60938L9.27734 9.60938Q10.3711 9.60938 10.8887 8.91602L7.73438 8.91602ZM7.73438 7.91992L11.2891 7.91992Q11.2988 7.8418 11.2988 7.76367Q11.2988 7.68555 11.2988 7.60742Q11.2988 7.40234 11.2891 7.28516L7.73438 7.28516ZM7.73438 6.28906L10.8789 6.28906Q10.625 5.9668 10.2246 5.79102Q9.82422 5.61523 9.27734 5.61523L7.73438 5.61523Z" fill="#ffffff"/>
 </g>
</svg>
