<?xml version="1.0" encoding="UTF-8"?>
<!--Generator: Apple Native CoreSVG 175.5-->
<!DOCTYPE svg
PUBLIC "-//W3C//DTD SVG 1.1//EN"
       "http://www.w3.org/Graphics/SVG/1.1/DTD/svg11.dtd">
<svg version="1.1" xmlns="http://www.w3.org/2000/svg" xmlns:xlink="http://www.w3.org/1999/xlink" width="18.584" height="22.041">
 <g>
  <rect height="22.041" opacity="0" width="18.584" x="0" y="0"/>
  <path d="M0 11.0156Q0 12.8613 0.34668 14.6191Q0.693359 16.377 1.3916 17.876Q2.08984 19.375 3.14453 20.4297Q3.97461 21.2598 4.83887 21.6455Q5.70312 22.0312 6.95312 22.0312Q7.95898 22.0312 8.63281 21.6846Q9.30664 21.3379 9.59473 20.6494Q9.88281 19.9609 9.7168 18.9648L9.11133 15.5566Q8.96484 14.7656 8.45215 14.2432Q7.93945 13.7207 7.07031 13.7207L6.09375 13.7207Q5.71289 13.7207 5.53223 13.4912Q5.35156 13.2617 5.3125 12.7148Q5.29297 12.5 5.2832 12.0264Q5.27344 11.5527 5.27344 11.0156Q5.27344 10.4785 5.2832 10.0049Q5.29297 9.53125 5.3125 9.31641Q5.35156 8.76953 5.53223 8.54004Q5.71289 8.31055 6.09375 8.31055L7.07031 8.31055Q7.93945 8.31055 8.45215 7.78809Q8.96484 7.26562 9.11133 6.47461L9.7168 3.07617Q9.88281 2.08008 9.59961 1.39648Q9.31641 0.712891 8.64258 0.356445Q7.96875 0 6.95312 0Q5.70312 0 4.83887 0.390625Q3.97461 0.78125 3.14453 1.60156Q2.08984 2.65625 1.3916 4.15527Q0.693359 5.6543 0.34668 7.41699Q0 9.17969 0 11.0156ZM1.51367 11.0156Q1.51367 9.35547 1.81152 7.77344Q2.10938 6.19141 2.70508 4.86328Q3.30078 3.53516 4.19922 2.65625Q4.73633 2.14844 5.35645 1.86035Q5.97656 1.57227 6.73828 1.57227Q7.56836 1.57227 7.99316 1.88965Q8.41797 2.20703 8.24219 2.96875L7.61719 6.11328Q7.56836 6.38672 7.3877 6.55273Q7.20703 6.71875 6.89453 6.71875L5.77148 6.71875Q4.9707 6.71875 4.56055 7.16797Q4.15039 7.61719 4.01367 8.32031Q3.92578 8.80859 3.88184 9.52148Q3.83789 10.2344 3.83789 11.0156Q3.83789 11.7969 3.88184 12.5146Q3.92578 13.2324 4.01367 13.7207Q4.15039 14.4141 4.56055 14.8633Q4.9707 15.3125 5.77148 15.3125L6.89453 15.3125Q7.20703 15.3125 7.3877 15.4785Q7.56836 15.6445 7.61719 15.918L8.24219 19.0625Q8.4082 19.8145 7.99316 20.1367Q7.57812 20.459 6.73828 20.459Q5.97656 20.459 5.35645 20.1758Q4.73633 19.8926 4.19922 19.375Q3.30078 18.4961 2.70508 17.1729Q2.10938 15.8496 1.81152 14.2627Q1.51367 12.6758 1.51367 11.0156Z" fill="#007aff"/>
  <path d="M9.19922 11.709L14.4434 11.709L16.4941 11.6113L14.3652 13.5254L13.3398 14.5508Q13.2422 14.6582 13.1885 14.79Q13.1348 14.9219 13.1348 15.0781Q13.1348 15.3711 13.3252 15.5615Q13.5156 15.752 13.7988 15.752Q14.1016 15.752 14.3164 15.5371L18.3301 11.5332Q18.584 11.2793 18.584 11.0156Q18.584 10.752 18.3301 10.4883L14.3164 6.49414Q14.1016 6.2793 13.7988 6.2793Q13.5156 6.2793 13.3252 6.46484Q13.1348 6.65039 13.1348 6.94336Q13.1348 7.10938 13.1885 7.24121Q13.2422 7.37305 13.3398 7.4707L14.3652 8.50586L16.4941 10.4102L14.4434 10.3125L9.19922 10.3125Q8.86719 10.3125 8.67676 10.5273Q8.48633 10.7422 8.48633 11.0156Q8.48633 11.2891 8.67676 11.499Q8.86719 11.709 9.19922 11.709Z" fill="#ffffff"/>
 </g>
</svg>
