<?xml version="1.0" encoding="UTF-8"?>
<!--Generator: Apple Native CoreSVG 175-->
<!DOCTYPE svg
PUBLIC "-//W3C//DTD SVG 1.1//EN"
       "http://www.w3.org/Graphics/SVG/1.1/DTD/svg11.dtd">
<svg version="1.1" xmlns="http://www.w3.org/2000/svg" xmlns:xlink="http://www.w3.org/1999/xlink" width="19.1602" height="19.1504">
 <g>
  <rect height="19.1504" opacity="0" width="19.1602" x="0" y="0"/>
  <path d="M9.57031 19.1406Q11.5527 19.1406 13.2861 18.3984Q15.0195 17.6562 16.3379 16.333Q17.6562 15.0098 18.4082 13.2764Q19.1602 11.543 19.1602 9.57031Q19.1602 7.59766 18.4082 5.86426Q17.6562 4.13086 16.3379 2.80762Q15.0195 1.48438 13.2861 0.742188Q11.5527 0 9.57031 0Q7.59766 0 5.86426 0.742188Q4.13086 1.48438 2.81738 2.80762Q1.50391 4.13086 0.751953 5.86426Q0 7.59766 0 9.57031Q0 11.543 0.74707 13.2764Q1.49414 15.0098 2.8125 16.333Q4.13086 17.6562 5.86914 18.3984Q7.60742 19.1406 9.57031 19.1406ZM9.57031 18.3984Q7.74414 18.3984 6.14746 17.71Q4.55078 17.0215 3.33496 15.8105Q2.11914 14.5996 1.43555 12.998Q0.751953 11.3965 0.751953 9.57031Q0.751953 7.74414 1.43555 6.14258Q2.11914 4.54102 3.33496 3.3252Q4.55078 2.10938 6.14746 1.4209Q7.74414 0.732422 9.57031 0.732422Q11.4062 0.732422 13.0029 1.4209Q14.5996 2.10938 15.8154 3.3252Q17.0312 4.54102 17.7197 6.14258Q18.4082 7.74414 18.4082 9.57031Q18.4082 11.3965 17.7246 12.998Q17.041 14.5996 15.8252 15.8105Q14.6094 17.0215 13.0078 17.71Q11.4062 18.3984 9.57031 18.3984Z" fill="#007aff"/>
  <path d="M6.91406 11.9824Q7.74414 12.8125 8.70605 13.4717Q9.66797 14.1309 10.6348 14.4775Q11.6016 14.8242 12.4854 14.7314Q13.3691 14.6387 14.043 13.9551Q14.082 13.9258 14.0967 13.9062Q14.1113 13.8867 14.1309 13.8574Q14.5898 13.3984 14.6484 12.9834Q14.707 12.5684 14.3945 12.2559Q14.3066 12.1777 14.1455 12.0605Q13.9844 11.9434 13.5938 11.6797Q13.2031 11.416 12.4414 10.8984Q12.1191 10.6738 11.7871 10.6885Q11.4551 10.7031 11.0645 11.0742L10.6348 11.4941Q10.5566 11.5723 10.4395 11.5771Q10.3223 11.582 10.2148 11.5234Q9.96094 11.377 9.52148 11.0547Q9.08203 10.7324 8.62305 10.2734Q8.16406 9.81445 7.83691 9.375Q7.50977 8.93555 7.39258 8.70117Q7.33398 8.59375 7.33398 8.49121Q7.33398 8.38867 7.42188 8.30078L7.8418 7.8418Q8.20312 7.43164 8.21289 7.09961Q8.22266 6.76758 7.98828 6.45508L6.69922 4.61914Q6.47461 4.28711 6.19141 4.27734Q5.9082 4.26758 5.62012 4.42383Q5.33203 4.58008 5.07812 4.73633Q5.0293 4.76562 5 4.7998Q4.9707 4.83398 4.94141 4.85352Q4.25781 5.53711 4.16504 6.41602Q4.07227 7.29492 4.41895 8.26172Q4.76562 9.22852 5.4248 10.1904Q6.08398 11.1523 6.91406 11.9824Z" fill="#ffffff"/>
 </g>
</svg>
