<?xml version="1.0" encoding="UTF-8"?>
<!--Generator: Apple Native CoreSVG 175.5-->
<!DOCTYPE svg
PUBLIC "-//W3C//DTD SVG 1.1//EN"
       "http://www.w3.org/Graphics/SVG/1.1/DTD/svg11.dtd">
<svg version="1.1" xmlns="http://www.w3.org/2000/svg" xmlns:xlink="http://www.w3.org/1999/xlink" width="22.9663" height="8.62305">
 <g>
  <rect height="8.62305" opacity="0" width="22.9663" x="0" y="0"/>
  <path d="M11.4809 0Q9.36173 0 7.40372 0.307617Q5.44571 0.615234 3.86368 1.25Q2.28165 1.88477 1.29532 2.87109Q0.621494 3.54492 0.289463 4.36035Q-0.0425681 5.17578 0.00626002 6.16211Q0.0355569 6.75781 0.216221 7.26562Q0.396885 7.77344 0.748448 8.11523Q1.01212 8.37891 1.3588 8.51074Q1.70548 8.64258 2.1254 8.57422L5.74845 7.95898Q6.54923 7.82227 6.92032 7.45117Q7.16446 7.2168 7.25235 6.86523Q7.34024 6.51367 7.34024 6.05469L7.34024 5.06836Q7.34024 4.87305 7.50626 4.69727Q7.57462 4.60938 7.67716 4.56543Q7.7797 4.52148 7.85782 4.50195Q8.35587 4.38477 9.31778 4.29199Q10.2797 4.19922 11.4809 4.19922Q12.682 4.19922 13.6391 4.28223Q14.5961 4.36523 15.1039 4.51172Q15.182 4.53125 15.2748 4.5752Q15.3676 4.61914 15.4457 4.69727Q15.5922 4.85352 15.602 5.05859L15.6117 6.05469Q15.6215 6.51367 15.7094 6.86523Q15.7973 7.2168 16.0317 7.45117Q16.2172 7.63672 16.5102 7.76367Q16.8031 7.89062 17.2133 7.95898L20.7875 8.56445Q21.2172 8.64258 21.5834 8.50098Q21.9496 8.35938 22.2328 8.08594Q22.9359 7.40234 22.9652 6.15234Q22.9848 5.16602 22.6283 4.35059Q22.2719 3.53516 21.6078 2.87109Q20.6215 1.875 19.0492 1.24023Q17.477 0.605469 15.5336 0.302734Q13.5902 0 11.4809 0Z" fill="#ffffff"/>
 </g>
</svg>
