<?xml version="1.0" encoding="UTF-8"?>
<!--Generator: Apple Native CoreSVG 175-->
<!DOCTYPE svg
PUBLIC "-//W3C//DTD SVG 1.1//EN"
       "http://www.w3.org/Graphics/SVG/1.1/DTD/svg11.dtd">
<svg version="1.1" xmlns="http://www.w3.org/2000/svg" xmlns:xlink="http://www.w3.org/1999/xlink" width="18.7793" height="19.9512">
 <g>
  <rect height="19.9512" opacity="0" width="18.7793" x="0" y="0"/>
  <path d="M4.6582 14.1406Q5.95703 15.4297 7.44141 16.4893Q8.92578 17.5488 10.4443 18.1787Q11.9629 18.8086 13.3594 18.8086Q14.3359 18.8086 15.1562 18.4668Q15.9766 18.125 16.6602 17.4219Q17.002 17.0605 17.2852 16.5771Q17.5684 16.0938 17.5684 15.5957Q17.5684 15.2832 17.417 14.9756Q17.2656 14.668 16.9141 14.4141L13.9355 12.334Q13.6816 12.1582 13.4326 12.0605Q13.1836 11.9629 12.9199 11.9629Q12.6172 11.9629 12.29 12.1191Q11.9629 12.2754 11.6211 12.6074L10.8887 13.3008Q10.7422 13.4473 10.5273 13.4473Q10.4395 13.4473 10.3467 13.4229Q10.2539 13.3984 10.1758 13.3691Q9.76562 13.1543 9.0332 12.6025Q8.30078 12.0508 7.51953 11.2695Q6.74805 10.498 6.19141 9.77539Q5.63477 9.05273 5.44922 8.62305Q5.41016 8.53516 5.38574 8.45215Q5.36133 8.36914 5.36133 8.30078Q5.36133 8.10547 5.49805 7.96875L6.19141 7.19727Q6.52344 6.83594 6.67969 6.50879Q6.83594 6.18164 6.83594 5.86914Q6.83594 5.60547 6.7334 5.35156Q6.63086 5.09766 6.44531 4.84375L4.47266 2.02148Q4.20898 1.65039 3.85742 1.47949Q3.50586 1.30859 3.13477 1.30859Q2.19727 1.30859 1.31836 2.1875Q0.634766 2.87109 0.317383 3.69629Q0 4.52148 0 5.43945Q0 6.83594 0.620117 8.35449Q1.24023 9.87305 2.2998 11.3574Q3.35938 12.8418 4.6582 14.1406Z" fill="#007aff"/>
  <path d="M9.89258 8.89648Q10.2539 9.25781 10.7764 9.25781Q11.2988 9.25781 11.6699 8.88672Q12.0312 8.52539 12.0312 8.00781Q12.0312 7.49023 11.6699 7.12891Q11.2988 6.75781 10.7764 6.75781Q10.2539 6.75781 9.89258 7.11914Q9.52148 7.49023 9.52148 8.00781Q9.52148 8.52539 9.89258 8.89648ZM10.8496 4.10156Q10.7422 4.19922 10.7422 4.35059Q10.7422 4.50195 10.8496 4.60938L14.1797 7.93945Q14.2871 8.04688 14.4385 8.04688Q14.5898 8.04688 14.6875 7.93945Q14.7949 7.83203 14.7949 7.68555Q14.7949 7.53906 14.6875 7.43164L11.3672 4.10156Q11.25 3.99414 11.0986 3.99414Q10.9473 3.99414 10.8496 4.10156ZM13.877 4.91211Q14.2383 5.27344 14.7607 5.26855Q15.2832 5.26367 15.6543 4.90234Q16.0156 4.53125 16.0156 4.01855Q16.0156 3.50586 15.6543 3.1543Q15.2832 2.77344 14.7607 2.77344Q14.2383 2.77344 13.877 3.14453Q13.5059 3.50586 13.5059 4.02344Q13.5059 4.54102 13.877 4.91211ZM14.8438 0.117188Q14.7363 0.224609 14.7363 0.371094Q14.7363 0.517578 14.8438 0.625L18.1641 3.95508Q18.2617 4.0625 18.418 4.0625Q18.5742 4.0625 18.6719 3.95508Q18.7793 3.84766 18.7793 3.69629Q18.7793 3.54492 18.6719 3.4375L15.3516 0.117188Q15.2441 0 15.0928 0Q14.9414 0 14.8438 0.117188Z" fill="#ffffff"/>
 </g>
</svg>
