<?xml version="1.0" encoding="UTF-8"?>
<!--Generator: Apple Native CoreSVG 175-->
<!DOCTYPE svg
PUBLIC "-//W3C//DTD SVG 1.1//EN"
       "http://www.w3.org/Graphics/SVG/1.1/DTD/svg11.dtd">
<svg version="1.1" xmlns="http://www.w3.org/2000/svg" xmlns:xlink="http://www.w3.org/1999/xlink" width="19.1602" height="19.1504">
 <g>
  <rect height="19.1504" opacity="0" width="19.1602" x="0" y="0"/>
  <path d="M9.57031 19.1406Q11.5527 19.1406 13.2861 18.3984Q15.0195 17.6562 16.3379 16.333Q17.6562 15.0098 18.4082 13.2764Q19.1602 11.543 19.1602 9.57031Q19.1602 7.59766 18.4082 5.86426Q17.6562 4.13086 16.3379 2.80762Q15.0195 1.48438 13.2861 0.742188Q11.5527 0 9.57031 0Q7.59766 0 5.86426 0.742188Q4.13086 1.48438 2.81738 2.80762Q1.50391 4.13086 0.751953 5.86426Q0 7.59766 0 9.57031Q0 11.543 0.74707 13.2764Q1.49414 15.0098 2.8125 16.333Q4.13086 17.6562 5.86914 18.3984Q7.60742 19.1406 9.57031 19.1406ZM9.57031 18.3984Q7.74414 18.3984 6.14746 17.71Q4.55078 17.0215 3.33496 15.8105Q2.11914 14.5996 1.43555 12.998Q0.751953 11.3965 0.751953 9.57031Q0.751953 7.74414 1.43555 6.14258Q2.11914 4.54102 3.33496 3.3252Q4.55078 2.10938 6.14746 1.4209Q7.74414 0.732422 9.57031 0.732422Q11.4062 0.732422 13.0029 1.4209Q14.5996 2.10938 15.8154 3.3252Q17.0312 4.54102 17.7197 6.14258Q18.4082 7.74414 18.4082 9.57031Q18.4082 11.3965 17.7246 12.998Q17.041 14.5996 15.8252 15.8105Q14.6094 17.0215 13.0078 17.71Q11.4062 18.3984 9.57031 18.3984Z" fill="#007aff"/>
  <path d="M2.99805 10.4883Q2.99805 10.7129 3.07617 11.001Q3.1543 11.2891 3.37891 11.4941Q3.60352 11.6992 4.02344 11.6992Q4.44336 11.6992 4.96094 11.6455Q5.47852 11.5918 6.28906 11.3379Q6.66992 11.2207 6.9043 11.001Q7.13867 10.7812 7.14844 10.2344L7.16797 9.62891Q7.16797 9.4043 7.42188 9.31641Q7.67578 9.23828 8.23242 9.15527Q8.78906 9.07227 9.57031 9.07227Q10.3613 9.07227 10.918 9.15527Q11.4746 9.23828 11.7285 9.31641Q11.9824 9.4043 11.9824 9.62891L12.002 10.2344Q12.0117 10.7812 12.2461 11.001Q12.4805 11.2207 12.8613 11.3379Q13.6719 11.5918 14.1895 11.6455Q14.707 11.6992 15.1172 11.6992Q15.5469 11.6992 15.7666 11.4941Q15.9863 11.2891 16.0693 11.001Q16.1523 10.7129 16.1523 10.4883L16.1523 10.3809Q16.1523 9.42383 15.5811 8.71582Q15.0098 8.00781 14.0576 7.54395Q13.1055 7.08008 11.9385 6.85059Q10.7715 6.62109 9.57031 6.62109Q8.37891 6.62109 7.21191 6.85059Q6.04492 7.08008 5.09277 7.54395Q4.14062 8.00781 3.56934 8.71582Q2.99805 9.42383 2.99805 10.3809Z" fill="#ffffff"/>
 </g>
</svg>
