<?xml version="1.0" encoding="UTF-8"?>
<!--Generator: Apple Native CoreSVG 175-->
<!DOCTYPE svg
PUBLIC "-//W3C//DTD SVG 1.1//EN"
       "http://www.w3.org/Graphics/SVG/1.1/DTD/svg11.dtd">
<svg version="1.1" xmlns="http://www.w3.org/2000/svg" xmlns:xlink="http://www.w3.org/1999/xlink" width="20.7715" height="20.3418">
 <g>
  <rect height="20.3418" opacity="0" width="20.7715" x="0" y="0"/>
  <path d="M5.0293 20.3418Q5.18555 20.3418 5.32227 20.2588Q5.45898 20.1758 5.60547 20.0391L9.16016 16.9727L17.0508 16.9727Q18.2031 16.9727 19.0381 16.5186Q19.873 16.0645 20.3223 15.2295Q20.7715 14.3945 20.7715 13.2617L20.7715 4.91211Q20.7715 3.76953 20.3223 2.93457Q19.873 2.09961 19.0381 1.64551Q18.2031 1.19141 17.0508 1.19141L3.7207 1.19141Q2.56836 1.19141 1.7334 1.64551Q0.898438 2.09961 0.449219 2.92969Q0 3.75977 0 4.91211L0 13.2617Q0 14.4043 0.449219 15.2344Q0.898438 16.0645 1.7334 16.5186Q2.56836 16.9727 3.7207 16.9727L4.55078 16.9727L4.55078 19.7852Q4.55078 20.0488 4.68262 20.1953Q4.81445 20.3418 5.0293 20.3418Z" fill="#007aff"/>
  <path d="M7.72461 11.5137Q6.88477 10.6641 6.2207 9.70215Q5.55664 8.74023 5.20996 7.76367Q4.86328 6.78711 4.96094 5.90332Q5.05859 5.01953 5.74219 4.3457Q5.76172 4.31641 5.7959 4.28223Q5.83008 4.24805 5.87891 4.21875Q6.12305 4.0625 6.41602 3.90625Q6.70898 3.75 6.99219 3.75977Q7.27539 3.76953 7.51953 4.0918L8.80859 5.9375Q9.0332 6.25977 9.02344 6.60156Q9.01367 6.94336 8.64258 7.35352L8.23242 7.8125Q8.1543 7.89062 8.14941 7.99316Q8.14453 8.0957 8.20312 8.20312Q8.33008 8.44727 8.65723 8.88672Q8.98438 9.32617 9.44336 9.78516Q9.91211 10.2539 10.3516 10.5762Q10.791 10.8984 11.0352 11.0449Q11.1523 11.1035 11.2695 11.0986Q11.3867 11.0938 11.4746 11.0059L11.9043 10.5957Q12.2852 10.2148 12.627 10.2002Q12.9688 10.1855 13.291 10.4199Q14.0527 10.9375 14.4385 11.2061Q14.8242 11.4746 14.9951 11.5918Q15.166 11.709 15.2539 11.7871Q15.5664 12.0996 15.5029 12.5146Q15.4395 12.9297 14.9902 13.3984Q14.9609 13.418 14.9463 13.4424Q14.9316 13.4668 14.9023 13.4961Q14.2188 14.1797 13.335 14.2725Q12.4512 14.3652 11.4697 14.0186Q10.4883 13.6719 9.52637 13.0078Q8.56445 12.3438 7.72461 11.5137Z" fill="#ffffff"/>
 </g>
</svg>
