<?xml version="1.0" encoding="UTF-8"?>
<!--Generator: Apple Native CoreSVG 175.5-->
<!DOCTYPE svg
PUBLIC "-//W3C//DTD SVG 1.1//EN"
       "http://www.w3.org/Graphics/SVG/1.1/DTD/svg11.dtd">
<svg version="1.1" xmlns="http://www.w3.org/2000/svg" xmlns:xlink="http://www.w3.org/1999/xlink" width="19.9219" height="19.9316">
 <g>
  <rect height="19.9316" opacity="0" width="19.9219" x="0" y="0"/>
  <path d="M9.96094 19.9316Q12.002 19.9316 13.8037 19.1504Q15.6055 18.3691 16.9824 16.9922Q18.3594 15.6152 19.1406 13.8135Q19.9219 12.0117 19.9219 9.9707Q19.9219 7.92969 19.1406 6.12793Q18.3594 4.32617 16.9824 2.94922Q15.6055 1.57227 13.7988 0.791016Q11.9922 0.00976562 9.95117 0.00976562Q7.91016 0.00976562 6.1084 0.791016Q4.30664 1.57227 2.93457 2.94922Q1.5625 4.32617 0.78125 6.12793Q0 7.92969 0 9.9707Q0 12.0117 0.78125 13.8135Q1.5625 15.6152 2.93945 16.9922Q4.31641 18.3691 6.11816 19.1504Q7.91992 19.9316 9.96094 19.9316Z" fill="#007aff"/>
  <path d="M6.82617 13.1152Q5.94727 12.2363 5.26855 11.2695Q4.58984 10.3027 4.24316 9.3457Q3.89648 8.38867 3.99414 7.5293Q4.0918 6.66992 4.75586 6.00586Q4.78516 5.97656 4.81445 5.94727Q4.84375 5.91797 4.88281 5.88867Q5.22461 5.64453 5.53711 5.53223Q5.84961 5.41992 6.11816 5.49316Q6.38672 5.56641 6.5918 5.86914L7.83203 7.61719Q8.1543 8.06641 8.10059 8.37891Q8.04688 8.69141 7.70508 9.04297L7.31445 9.47266Q7.20703 9.57031 7.22168 9.69238Q7.23633 9.81445 7.29492 9.89258Q7.44141 10.1465 7.7832 10.5664Q8.125 10.9863 8.53516 11.4062Q8.95508 11.8262 9.37012 12.1582Q9.78516 12.4902 10.0488 12.6465Q10.1465 12.7148 10.2783 12.7197Q10.4102 12.7246 10.4883 12.627L10.8984 12.2363Q11.2305 11.9043 11.5527 11.8457Q11.875 11.7871 12.3242 12.1094Q12.7344 12.3926 13.0518 12.6074Q13.3691 12.8223 13.6182 13.0078Q13.8672 13.1934 14.1016 13.3691Q14.541 13.6914 14.4971 14.1504Q14.4531 14.6094 14.1211 15Q14.0723 15.0488 14.0283 15.0977Q13.9844 15.1465 13.9355 15.1953Q13.2715 15.8594 12.417 15.957Q11.5625 16.0547 10.6006 15.7031Q9.63867 15.3516 8.67188 14.6729Q7.70508 13.9941 6.82617 13.1152ZM10.4004 10.127Q10.166 10.127 10.0146 9.99023Q9.86328 9.85352 9.86328 9.62891Q9.86328 9.38477 10.0293 9.22852L12.4805 6.78711L13.1738 6.13281L11.8457 6.20117L10.9766 6.20117Q10.752 6.20117 10.6055 6.06445Q10.459 5.92773 10.4492 5.71289Q10.4395 5.48828 10.5957 5.32227Q10.752 5.15625 10.9766 5.15625L14.2773 5.15625Q14.541 5.15625 14.6875 5.30762Q14.834 5.45898 14.834 5.72266L14.834 9.00391Q14.834 9.23828 14.6777 9.39453Q14.5215 9.55078 14.2871 9.55078Q14.0723 9.52148 13.9355 9.37012Q13.7988 9.21875 13.7988 9.00391L13.7988 8.17383L13.8672 6.82617L13.2129 7.5293L10.7715 9.99023Q10.7031 10.0684 10.6055 10.0977Q10.5078 10.127 10.4004 10.127Z" fill="#ffffff"/>
 </g>
</svg>
