<?xml version="1.0" encoding="UTF-8"?>
<!--Generator: Apple Native CoreSVG 175.5-->
<!DOCTYPE svg
PUBLIC "-//W3C//DTD SVG 1.1//EN"
       "http://www.w3.org/Graphics/SVG/1.1/DTD/svg11.dtd">
<svg version="1.1" xmlns="http://www.w3.org/2000/svg" xmlns:xlink="http://www.w3.org/1999/xlink" width="24.2969" height="19.7949">
 <g>
  <rect height="19.7949" opacity="0" width="24.2969" x="0" y="0"/>
  <path d="M7.89062 3.19336L19.3652 3.19336L19.3652 3.02734Q19.3652 1.52344 18.5938 0.761719Q17.8223 0 16.2988 0L3.06641 0Q1.5332 0 0.766602 0.756836Q0 1.51367 0 3.02734L0 12.2363Q0 13.75 0.766602 14.5068Q1.5332 15.2637 3.06641 15.2637L3.48633 15.2637L3.48633 7.54883Q3.48633 6.17188 4.00879 5.19531Q4.53125 4.21875 5.5127 3.70605Q6.49414 3.19336 7.89062 3.19336Z" fill="#007aff"/>
  <path d="M11.7871 12.0117Q10.9277 12.0117 10.3223 11.3965Q9.7168 10.7812 9.7168 9.92188Q9.7168 9.08203 10.3223 8.4668Q10.9277 7.85156 11.7871 7.85156Q12.3535 7.85156 12.8223 8.13477Q13.291 8.41797 13.5693 8.8916Q13.8477 9.36523 13.8477 9.92188Q13.8477 10.7812 13.2422 11.3965Q12.6367 12.0117 11.7871 12.0117ZM7.91016 18.2129Q7.17773 18.2129 6.78711 17.8271Q6.39648 17.4414 6.39648 16.6797L6.39648 15.791L8.60352 13.8477Q8.88672 13.6133 9.16504 13.4912Q9.44336 13.3691 9.72656 13.3691Q10.0391 13.3691 10.3369 13.4863Q10.6348 13.6035 10.918 13.8672L12.4902 15.2832L16.4355 11.7871Q16.7383 11.5137 17.0605 11.3916Q17.3828 11.2695 17.7539 11.2695Q18.1055 11.2695 18.4473 11.4014Q18.7891 11.5332 19.0723 11.7969L22.7246 15.2441L22.7246 16.6797Q22.7246 17.4414 22.3242 17.8271Q21.9238 18.2129 21.2012 18.2129ZM7.89062 19.7852L21.2305 19.7852Q22.7539 19.7852 23.5254 19.0283Q24.2969 18.2715 24.2969 16.7578L24.2969 7.54883Q24.2969 6.04492 23.5254 5.2832Q22.7539 4.52148 21.2305 4.52148L7.89062 4.52148Q6.35742 4.52148 5.59082 5.27832Q4.82422 6.03516 4.82422 7.54883L4.82422 16.7578Q4.82422 18.2715 5.59082 19.0283Q6.35742 19.7852 7.89062 19.7852Z" fill="#ffffff"/>
 </g>
</svg>
