<?xml version="1.0" encoding="UTF-8"?>
<!--Generator: Apple Native CoreSVG 175.5-->
<!DOCTYPE svg
PUBLIC "-//W3C//DTD SVG 1.1//EN"
       "http://www.w3.org/Graphics/SVG/1.1/DTD/svg11.dtd">
<svg version="1.1" xmlns="http://www.w3.org/2000/svg" xmlns:xlink="http://www.w3.org/1999/xlink" width="20.0684" height="21.2402">
 <g>
  <rect height="21.2402" opacity="0" width="20.0684" x="0" y="0"/>
  <path d="M7.13867 13.2422Q6.54297 13.2422 6.05469 12.9443Q5.56641 12.6465 5.27832 12.1533Q4.99023 11.6602 4.99023 11.0742Q4.99023 10.4883 5.27832 10Q5.56641 9.51172 6.05469 9.22363Q6.54297 8.93555 7.13867 8.93555Q7.73438 8.93555 8.21777 9.22363Q8.70117 9.51172 8.99414 10Q9.28711 10.4883 9.28711 11.0742Q9.28711 11.6602 8.99414 12.1533Q8.70117 12.6465 8.21777 12.9443Q7.73438 13.2422 7.13867 13.2422ZM3.02734 19.6582Q2.32422 19.6582 1.94824 19.2822Q1.57227 18.9062 1.57227 18.1738L1.57227 17.2266L3.85742 15.2246Q4.15039 14.9707 4.43359 14.8389Q4.7168 14.707 5.0293 14.707Q5.35156 14.707 5.65918 14.8438Q5.9668 14.9805 6.25 15.2344L7.88086 16.6895L11.9727 13.0859Q12.2949 12.8027 12.6318 12.6758Q12.9688 12.5488 13.3398 12.5488Q13.7109 12.5488 14.0625 12.6807Q14.4141 12.8125 14.7168 13.0957L18.4961 16.6504L18.4961 18.1738Q18.4961 18.9062 18.1104 19.2822Q17.7246 19.6582 17.0312 19.6582ZM2.96875 21.2305L17.0996 21.2305Q18.5742 21.2305 19.3213 20.4883Q20.0684 19.7461 20.0684 18.291L20.0684 8.4668Q20.0684 7.01172 19.3213 6.27441Q18.5742 5.53711 17.0996 5.53711L2.96875 5.53711Q1.48438 5.53711 0.742188 6.27441Q0 7.01172 0 8.4668L0 18.291Q0 19.7559 0.742188 20.4932Q1.48438 21.2305 2.96875 21.2305ZM1.86523 3.96484L18.2129 3.96484Q18.0957 3.30078 17.749 2.94434Q17.4023 2.58789 16.6699 2.58789L3.4082 2.58789Q2.67578 2.58789 2.32422 2.94434Q1.97266 3.30078 1.86523 3.96484ZM3.87695 1.25977L16.2012 1.25977Q16.1523 0.634766 15.8008 0.317383Q15.4492 0 14.7656 0L5.30273 0Q4.62891 0 4.27246 0.317383Q3.91602 0.634766 3.87695 1.25977Z" fill="#ffffff"/>
 </g>
</svg>
