<?xml version="1.0" encoding="UTF-8"?>
<!--Generator: Apple Native CoreSVG 175.5-->
<!DOCTYPE svg
PUBLIC "-//W3C//DTD SVG 1.1//EN"
       "http://www.w3.org/Graphics/SVG/1.1/DTD/svg11.dtd">
<svg version="1.1" xmlns="http://www.w3.org/2000/svg" xmlns:xlink="http://www.w3.org/1999/xlink" width="23.0273" height="17.9785">
 <g>
  <rect height="17.9785" opacity="0" width="23.0273" x="0" y="0"/>
  <path d="M7.56836 1.18164L4.32617 1.18164L4.32617 9.52148Q4.32617 10.0586 4.60938 10.2832Q4.89258 10.5078 5.24414 10.5078L6.66016 10.5078Q7.01172 10.5078 7.29004 10.2832Q7.56836 10.0586 7.56836 9.52148ZM13.1348 1.18164L9.89258 1.18164L9.89258 9.52148Q9.89258 10.0586 10.1758 10.2832Q10.459 10.5078 10.8008 10.5078L12.2266 10.5078Q12.5781 10.5078 12.8564 10.2832Q13.1348 10.0586 13.1348 9.52148ZM18.7012 1.18164L15.459 1.18164L15.459 9.52148Q15.459 10.0586 15.7373 10.2832Q16.0156 10.5078 16.3672 10.5078L17.793 10.5078Q18.1445 10.5078 18.4229 10.2832Q18.7012 10.0586 18.7012 9.52148ZM5.49805 8.75977L5.49805 16.875L6.40625 16.875L6.40625 8.75977ZM11.0645 8.75977L11.0645 16.875L11.9727 16.875L11.9727 8.75977ZM16.6309 8.75977L16.6309 16.875L17.5391 16.875L17.5391 8.75977ZM3.06641 17.9785L19.9609 17.9785Q21.5039 17.9785 22.2656 17.2217Q23.0273 16.4648 23.0273 14.9609L23.0273 3.02734Q23.0273 1.52344 22.2656 0.761719Q21.5039 0 19.9609 0L3.06641 0Q1.5332 0 0.766602 0.756836Q0 1.51367 0 3.02734L0 14.9609Q0 16.4648 0.766602 17.2217Q1.5332 17.9785 3.06641 17.9785ZM3.08594 16.4062Q2.35352 16.4062 1.96289 16.0205Q1.57227 15.6348 1.57227 14.873L1.57227 3.11523Q1.57227 2.35352 1.96289 1.96289Q2.35352 1.57227 3.08594 1.57227L19.9414 1.57227Q20.6641 1.57227 21.0596 1.96289Q21.4551 2.35352 21.4551 3.11523L21.4551 14.873Q21.4551 15.6348 21.0596 16.0205Q20.6641 16.4062 19.9414 16.4062Z" fill="#ffffff"/>
 </g>
</svg>
