<?xml version="1.0" encoding="UTF-8"?>
<!--Generator: Apple Native CoreSVG 175.5-->
<!DOCTYPE svg
PUBLIC "-//W3C//DTD SVG 1.1//EN"
       "http://www.w3.org/Graphics/SVG/1.1/DTD/svg11.dtd">
<svg version="1.1" xmlns="http://www.w3.org/2000/svg" xmlns:xlink="http://www.w3.org/1999/xlink" width="19.3032" height="19.3281">
 <g>
  <rect height="19.3281" opacity="0" width="19.3032" x="0" y="0"/>
  <path d="M1.52438 17.7744Q2.30563 18.5459 3.20895 18.9316Q4.11227 19.3173 5.07418 19.3027Q6.0361 19.2881 6.98336 18.8535Q7.93063 18.4189 8.79 17.5595L17.5693 8.78024Q18.4287 7.92086 18.8584 6.97848Q19.2881 6.0361 19.3027 5.07418Q19.3173 4.11227 18.9316 3.20407Q18.5459 2.29586 17.7744 1.52438Q17.0029 0.752894 16.0947 0.367152Q15.1865-0.01859 14.2246 0.000941265Q13.2627 0.0204725 12.3154 0.45016Q11.3681 0.879848 10.5185 1.73922L1.73922 10.5088Q0.879848 11.3681 0.45016 12.3154Q0.0204725 13.2627 0.000941265 14.2246Q-0.01859 15.1865 0.367152 16.0947Q0.752894 17.0029 1.52438 17.7744ZM2.55954 16.749Q1.82711 16.0166 1.6318 15.1328Q1.43649 14.249 1.75387 13.3359Q2.07125 12.4228 2.86227 11.622L11.622 2.86227Q12.4131 2.06149 13.3213 1.74899Q14.2295 1.43649 15.1181 1.6318Q16.0068 1.82711 16.749 2.55954Q17.4814 3.28219 17.6816 4.17086Q17.8818 5.05954 17.5644 5.97262Q17.247 6.88571 16.4365 7.68649L7.68649 16.4463Q6.89547 17.2373 5.98727 17.5547Q5.07907 17.872 4.18551 17.6767Q3.29196 17.4814 2.55954 16.749ZM6.26071 7.29586L12.0322 13.0673L13.0771 12.0224L7.29586 6.25094Z" fill="#ffffff"/>
 </g>
</svg>
