<?xml version="1.0" encoding="UTF-8"?>
<!--Generator: Apple Native CoreSVG 175-->
<!DOCTYPE svg
PUBLIC "-//W3C//DTD SVG 1.1//EN"
       "http://www.w3.org/Graphics/SVG/1.1/DTD/svg11.dtd">
<svg version="1.1" xmlns="http://www.w3.org/2000/svg" xmlns:xlink="http://www.w3.org/1999/xlink" width="19.1602" height="19.1504">
 <g>
  <rect height="19.1504" opacity="0" width="19.1602" x="0" y="0"/>
  <path d="M9.57031 19.1504Q11.5527 19.1504 13.2861 18.4082Q15.0195 17.666 16.3379 16.3428Q17.6562 15.0195 18.4082 13.2861Q19.1602 11.5527 19.1602 9.58008Q19.1602 7.60742 18.4082 5.87402Q17.6562 4.14062 16.3379 2.81738Q15.0195 1.49414 13.2861 0.751953Q11.5527 0.00976562 9.57031 0.00976562Q7.59766 0.00976562 5.86426 0.751953Q4.13086 1.49414 2.81738 2.81738Q1.50391 4.14062 0.751953 5.87402Q0 7.60742 0 9.58008Q0 11.5527 0.74707 13.2861Q1.49414 15.0195 2.8125 16.3428Q4.13086 17.666 5.86914 18.4082Q7.60742 19.1504 9.57031 19.1504Z" fill="#007aff"/>
  <path d="M9.74609 9.73633L7.96875 7.93945Q7.27539 7.25586 7.27051 6.43066Q7.26562 5.60547 7.94922 4.92188Q8.65234 4.23828 9.46777 4.23828Q10.2832 4.23828 10.9766 4.92188L12.7637 6.70898ZM10.1562 10.127L13.1738 7.11914L14.9805 8.92578Q15.6738 9.62891 15.6689 10.4541Q15.6641 11.2793 14.9902 11.9629Q14.3066 12.6367 13.4766 12.6416Q12.6465 12.6465 11.9629 11.9531ZM3.86719 11.8164Q3.91602 11.1719 4.28711 10.625Q4.6582 10.0781 5.24902 9.75098Q5.83984 9.42383 6.54297 9.42383Q7.24609 9.42383 7.82715 9.75098Q8.4082 10.0781 8.78418 10.625Q9.16016 11.1719 9.19922 11.8164ZM3.86719 12.3828L9.19922 12.3828Q9.16016 13.0273 8.78906 13.5742Q8.41797 14.1211 7.83691 14.4482Q7.25586 14.7754 6.54297 14.7754Q5.83984 14.7754 5.24902 14.4482Q4.6582 14.1211 4.28711 13.5742Q3.91602 13.0273 3.86719 12.3828Z" fill="#ffffff"/>
 </g>
</svg>
