<?xml version="1.0" encoding="UTF-8"?>
<!--Generator: Apple Native CoreSVG 175.5-->
<!DOCTYPE svg
PUBLIC "-//W3C//DTD SVG 1.1//EN"
       "http://www.w3.org/Graphics/SVG/1.1/DTD/svg11.dtd">
<svg version="1.1" xmlns="http://www.w3.org/2000/svg" xmlns:xlink="http://www.w3.org/1999/xlink" width="19.1179" height="19.1472">
 <g>
  <rect height="19.1472" opacity="0" width="19.1179" x="0" y="0"/>
  <path d="M5.58433 6.61949L1.71714 10.4867Q0.584332 11.6195 0.203473 12.8841Q-0.177387 14.1488 0.154645 15.3744Q0.486676 16.6 1.5023 17.6156Q2.51793 18.6312 3.74351 18.9632Q4.9691 19.2953 6.23375 18.9144Q7.49839 18.5336 8.63121 17.4007L12.4984 13.5336ZM17.6156 1.5023Q16.5902 0.486676 15.3646 0.154645Q14.139-0.177387 12.8793 0.203473Q11.6195 0.584332 10.4964 1.71714L6.61949 5.58433L13.5336 12.4984L17.4007 8.62144Q18.5336 7.49839 18.9144 6.23375Q19.2953 4.9691 18.9632 3.74351Q18.6312 2.51793 17.6156 1.5023Z" fill="#ffffff"/>
 </g>
</svg>
