<?xml version="1.0" encoding="UTF-8"?>
<!--Generator: Apple Native CoreSVG 175.5-->
<!DOCTYPE svg
PUBLIC "-//W3C//DTD SVG 1.1//EN"
       "http://www.w3.org/Graphics/SVG/1.1/DTD/svg11.dtd">
<svg version="1.1" xmlns="http://www.w3.org/2000/svg" xmlns:xlink="http://www.w3.org/1999/xlink" width="17.9785" height="17.998">
 <g>
  <rect height="17.998" opacity="0" width="17.9785" x="0" y="0"/>
  <path d="M3.06641 17.998L14.9121 17.998Q16.4453 17.998 17.2119 17.2412Q17.9785 16.4844 17.9785 14.9707L17.9785 3.04688Q17.9785 1.5332 17.2119 0.776367Q16.4453 0.0195312 14.9121 0.0195312L3.06641 0.0195312Q1.5332 0.0195312 0.766602 0.776367Q0 1.5332 0 3.04688L0 14.9707Q0 16.4844 0.766602 17.2412Q1.5332 17.998 3.06641 17.998Z" fill="#007aff"/>
  <path d="M5.03906 10.8887Q5.03906 10.0879 5.64941 9.31152Q6.25977 8.53516 7.34375 8.1543L7.50977 5.80078Q6.96289 5.48828 6.53809 5.16113Q6.11328 4.83398 5.9082 4.58008Q5.68359 4.28711 5.68359 4.04297Q5.68359 3.80859 5.84961 3.65234Q6.01562 3.49609 6.28906 3.49609L11.7188 3.49609Q11.9922 3.49609 12.1582 3.65234Q12.3242 3.80859 12.3242 4.04297Q12.3242 4.28711 12.1191 4.57031Q11.9141 4.82422 11.4844 5.15625Q11.0547 5.48828 10.5078 5.80078L10.6738 8.1543Q11.748 8.53516 12.3584 9.31152Q12.9688 10.0879 12.9688 10.8887Q12.9688 11.2207 12.7686 11.416Q12.5684 11.6113 12.2266 11.6113L9.62891 11.6113L9.62891 13.4082Q9.62891 13.9551 9.51172 14.4092Q9.39453 14.8633 9.24805 15.1367Q9.10156 15.4102 9.00391 15.4102Q8.90625 15.4102 8.75977 15.1367Q8.61328 14.8633 8.49609 14.4092Q8.37891 13.9551 8.37891 13.4082L8.37891 11.6113L5.78125 11.6113Q5.43945 11.6113 5.23926 11.416Q5.03906 11.2207 5.03906 10.8887Z" fill="#ffffff"/>
 </g>
</svg>
