<?xml version="1.0" encoding="UTF-8"?>
<!--Generator: Apple Native CoreSVG 175.5-->
<!DOCTYPE svg
PUBLIC "-//W3C//DTD SVG 1.1//EN"
       "http://www.w3.org/Graphics/SVG/1.1/DTD/svg11.dtd">
<svg version="1.1" xmlns="http://www.w3.org/2000/svg" xmlns:xlink="http://www.w3.org/1999/xlink" width="19.9219" height="19.9316">
 <g>
  <rect height="19.9316" opacity="0" width="19.9219" x="0" y="0"/>
  <path d="M9.96094 19.9316Q12.002 19.9316 13.8037 19.1504Q15.6055 18.3691 16.9824 16.9922Q18.3594 15.6152 19.1406 13.8135Q19.9219 12.0117 19.9219 9.9707Q19.9219 7.92969 19.1406 6.12793Q18.3594 4.32617 16.9824 2.94922Q15.6055 1.57227 13.7988 0.791016Q11.9922 0.00976562 9.95117 0.00976562Q7.91016 0.00976562 6.1084 0.791016Q4.30664 1.57227 2.93457 2.94922Q1.5625 4.32617 0.78125 6.12793Q0 7.92969 0 9.9707Q0 12.0117 0.78125 13.8135Q1.5625 15.6152 2.93945 16.9922Q4.31641 18.3691 6.11816 19.1504Q7.91992 19.9316 9.96094 19.9316Z" fill="#007aff"/>
  <path d="M6.00586 11.875Q6.00586 11.0742 6.61621 10.2979Q7.22656 9.52148 8.31055 9.14062L8.47656 6.78711Q7.92969 6.47461 7.50488 6.14746Q7.08008 5.82031 6.875 5.56641Q6.65039 5.27344 6.65039 5.0293Q6.65039 4.79492 6.81641 4.63867Q6.98242 4.48242 7.25586 4.48242L12.6855 4.48242Q12.959 4.48242 13.125 4.63867Q13.291 4.79492 13.291 5.0293Q13.291 5.27344 13.0859 5.55664Q12.8809 5.81055 12.4512 6.14258Q12.0215 6.47461 11.4746 6.78711L11.6406 9.14062Q12.7148 9.52148 13.3252 10.2979Q13.9355 11.0742 13.9355 11.875Q13.9355 12.207 13.7354 12.4023Q13.5352 12.5977 13.1934 12.5977L10.5957 12.5977L10.5957 14.3945Q10.5957 14.9414 10.4785 15.3955Q10.3613 15.8496 10.2148 16.123Q10.0684 16.3965 9.9707 16.3965Q9.87305 16.3965 9.72656 16.123Q9.58008 15.8496 9.46289 15.3955Q9.3457 14.9414 9.3457 14.3945L9.3457 12.5977L6.74805 12.5977Q6.40625 12.5977 6.20605 12.4023Q6.00586 12.207 6.00586 11.875Z" fill="#ffffff"/>
 </g>
</svg>
