<?xml version="1.0" encoding="UTF-8"?>
<!--Generator: Apple Native CoreSVG 175-->
<!DOCTYPE svg
PUBLIC "-//W3C//DTD SVG 1.1//EN"
       "http://www.w3.org/Graphics/SVG/1.1/DTD/svg11.dtd">
<svg version="1.1" xmlns="http://www.w3.org/2000/svg" xmlns:xlink="http://www.w3.org/1999/xlink" width="11.0329" height="19.3436">
 <g>
  <rect height="19.3436" opacity="0" width="11.0329" x="0" y="0"/>
  <path d="M2.38205 19.3381L8.65082 19.3381Q9.80988 19.3381 10.4214 18.7312Q11.0329 18.1244 11.0329 16.9748L11.0329 2.36343Q11.0329 1.21368 10.4214 0.606842Q9.80988 0 8.65082 0L2.38205 0Q1.21872 0 0.60936 0.606842Q0 1.21368 0 2.36343L0 16.9748Q0 18.1244 0.60936 18.7312Q1.21872 19.3381 2.38205 19.3381ZM2.44644 18.6165Q1.56143 18.6165 1.14502 18.2077Q0.728607 17.7989 0.728607 16.9247L0.728607 2.42035Q0.728607 1.53915 1.14502 1.13037Q1.56143 0.721588 2.44644 0.721588L8.58917 0.721588Q9.47159 0.721588 9.88792 1.13037Q10.3043 1.53915 10.3043 2.42035L10.3043 16.9247Q10.3043 17.7989 9.88792 18.2077Q9.47159 18.6165 8.58917 18.6165Z" fill="#007aff"/>
  <path d="M2.89612 7.77084L8.14651 7.77084Q8.5582 7.77084 8.79745 7.53021Q9.03671 7.28958 9.03671 6.87515L9.03671 4.75357Q9.03671 4.33914 8.79745 4.09851Q8.5582 3.85788 8.14651 3.85788L2.89612 3.85788Q2.47742 3.85788 2.24167 4.09851Q2.00592 4.33914 2.00592 4.75357L2.00592 6.87515Q2.00592 7.28958 2.24167 7.53021Q2.47742 7.77084 2.89612 7.77084ZM2.89612 15.3876L8.14651 15.3876Q8.5582 15.3876 8.79745 15.1483Q9.03671 14.9091 9.03671 14.4919L9.03671 12.3732Q9.03671 11.956 8.79745 11.7168Q8.5582 11.4775 8.14651 11.4775L2.89612 11.4775Q2.47742 11.4775 2.24167 11.7168Q2.00592 11.956 2.00592 12.3732L2.00592 14.4919Q2.00592 14.9091 2.24167 15.1483Q2.47742 15.3876 2.89612 15.3876Z" fill="#ffffff"/>
 </g>
</svg>
