<?xml version="1.0" encoding="UTF-8"?>
<!--Generator: Apple Native CoreSVG 175-->
<!DOCTYPE svg
PUBLIC "-//W3C//DTD SVG 1.1//EN"
       "http://www.w3.org/Graphics/SVG/1.1/DTD/svg11.dtd">
<svg version="1.1" xmlns="http://www.w3.org/2000/svg" xmlns:xlink="http://www.w3.org/1999/xlink" width="22.6617" height="17.323">
 <g>
  <rect height="17.323" opacity="0" width="22.6617" x="0" y="0"/>
  <path d="M2.63046 17.323L20.0243 17.323Q21.3281 17.323 21.9949 16.6505Q22.6617 15.9781 22.6617 14.6965L22.6617 2.66006Q22.6617 1.37848 21.9949 0.706024Q21.3281 0.0335693 20.0243 0.0335693L2.63046 0.0335693Q1.33636 0.0335693 0.668182 0.699005Q0 1.36444 0 2.66006L0 14.6965Q0 15.9921 0.668182 16.6576Q1.33636 17.323 2.63046 17.323ZM2.65701 16.5945Q1.7067 16.5945 1.21765 16.1068Q0.728607 15.619 0.728607 14.6605L0.728607 2.69608Q0.728607 1.73752 1.21765 1.24985Q1.7067 0.762177 2.65701 0.762177L20.0047 0.762177Q20.9242 0.762177 21.4287 1.24985Q21.9331 1.73752 21.9331 2.69608L21.9331 14.6605Q21.9331 15.619 21.4287 16.1068Q20.9242 16.5945 20.0047 16.5945Z" fill="#007aff"/>
  <path d="M3.77655 11.0399L9.51874 11.0399Q9.93042 11.0399 10.1697 10.8006Q10.4089 10.5614 10.4089 10.144L10.4089 7.21954Q10.4089 6.79535 10.1697 6.5596Q9.93042 6.32385 9.51874 6.32385L3.77655 6.32385Q3.36487 6.32385 3.12561 6.5596Q2.88635 6.79535 2.88635 7.21954L2.88635 10.144Q2.88635 10.5614 3.12561 10.8006Q3.36487 11.0399 3.77655 11.0399ZM13.1024 11.0399L18.8402 11.0399Q19.259 11.0399 19.4948 10.8006Q19.7305 10.5614 19.7305 10.144L19.7305 7.21954Q19.7305 6.79535 19.4948 6.5596Q19.259 6.32385 18.8402 6.32385L13.1024 6.32385Q12.6836 6.32385 12.4443 6.5596Q12.205 6.79535 12.205 7.21954L12.205 10.144Q12.205 10.5614 12.4443 10.8006Q12.6836 11.0399 13.1024 11.0399Z" fill="#ffffff"/>
 </g>
</svg>
