<?xml version="1.0" encoding="UTF-8"?>
<!--Generator: Apple Native CoreSVG 175.5-->
<!DOCTYPE svg
PUBLIC "-//W3C//DTD SVG 1.1//EN"
       "http://www.w3.org/Graphics/SVG/1.1/DTD/svg11.dtd">
<svg version="1.1" xmlns="http://www.w3.org/2000/svg" xmlns:xlink="http://www.w3.org/1999/xlink" width="12.5488" height="20.6934">
 <g>
  <rect height="20.6934" opacity="0" width="12.5488" x="0" y="0"/>
  <path d="M0 18.1348Q0 19.2773 0.732422 19.9756Q1.46484 20.6738 2.65625 20.6738L9.89258 20.6738Q11.0938 20.6738 11.8213 19.9756Q12.5488 19.2773 12.5488 18.1348L12.5488 2.53906Q12.5488 1.39648 11.8213 0.698242Q11.0938 0 9.89258 0L2.65625 0Q1.46484 0 0.732422 0.698242Q0 1.39648 0 2.53906ZM1.57227 17.8809L1.57227 2.79297Q1.57227 2.20703 1.9043 1.88965Q2.23633 1.57227 2.86133 1.57227L9.69727 1.57227Q10.3125 1.57227 10.6445 1.88965Q10.9766 2.20703 10.9766 2.79297L10.9766 17.8809Q10.9766 18.4668 10.6445 18.7842Q10.3125 19.1016 9.69727 19.1016L2.86133 19.1016Q2.23633 19.1016 1.9043 18.7842Q1.57227 18.4668 1.57227 17.8809Z" fill="#007aff"/>
  <path d="M3.69141 17.8613L8.86719 17.8613Q9.25781 17.8613 9.49707 17.6172Q9.73633 17.373 9.73633 16.9727L9.73633 15.8105Q9.73633 15.4004 9.49707 15.1611Q9.25781 14.9219 8.86719 14.9219L3.69141 14.9219Q3.29102 14.9219 3.05664 15.1611Q2.82227 15.4004 2.82227 15.8105L2.82227 16.9727Q2.82227 17.373 3.05664 17.6172Q3.29102 17.8613 3.69141 17.8613Z" fill="#ffffff"/>
 </g>
</svg>
