<?xml version="1.0" encoding="UTF-8"?>
<!--Generator: Apple Native CoreSVG 175-->
<!DOCTYPE svg
PUBLIC "-//W3C//DTD SVG 1.1//EN"
       "http://www.w3.org/Graphics/SVG/1.1/DTD/svg11.dtd">
<svg version="1.1" xmlns="http://www.w3.org/2000/svg" xmlns:xlink="http://www.w3.org/1999/xlink" width="22.666" height="17.2949">
 <g>
  <rect height="17.2949" opacity="0" width="22.666" x="0" y="0"/>
  <path d="M2.62695 17.2852L20.0195 17.2852Q21.3281 17.2852 21.9971 16.6113Q22.666 15.9375 22.666 14.6582L22.666 2.62695Q22.666 1.34766 21.9971 0.673828Q21.3281 0 20.0195 0L2.62695 0Q1.33789 0 0.668945 0.668945Q0 1.33789 0 2.62695L0 14.6582Q0 15.957 0.668945 16.6211Q1.33789 17.2852 2.62695 17.2852Z" fill="#007aff"/>
  <path d="M9.43359 12.5Q9.17969 12.6562 8.93066 12.5488Q8.68164 12.4414 8.68164 12.1777L8.68164 5.13672Q8.68164 4.86328 8.93555 4.75586Q9.18945 4.64844 9.43359 4.80469L15.0781 8.23242Q15.332 8.38867 15.332 8.66699Q15.332 8.94531 15.0781 9.10156Z" fill="#ffffff"/>
 </g>
</svg>
