<?xml version="1.0" encoding="UTF-8"?>
<!--Generator: Apple Native CoreSVG 175.5-->
<!DOCTYPE svg
PUBLIC "-//W3C//DTD SVG 1.1//EN"
       "http://www.w3.org/Graphics/SVG/1.1/DTD/svg11.dtd">
<svg version="1.1" xmlns="http://www.w3.org/2000/svg" xmlns:xlink="http://www.w3.org/1999/xlink" width="19.9219" height="19.9316">
 <g>
  <rect height="19.9316" opacity="0" width="19.9219" x="0" y="0"/>
  <path d="M9.96094 19.9219Q12.002 19.9219 13.8037 19.1406Q15.6055 18.3594 16.9824 16.9824Q18.3594 15.6055 19.1406 13.8037Q19.9219 12.002 19.9219 9.96094Q19.9219 7.91992 19.1406 6.11816Q18.3594 4.31641 16.9824 2.93945Q15.6055 1.5625 13.7988 0.78125Q11.9922 0 9.95117 0Q7.91016 0 6.1084 0.78125Q4.30664 1.5625 2.93457 2.93945Q1.5625 4.31641 0.78125 6.11816Q0 7.91992 0 9.96094Q0 12.002 0.78125 13.8037Q1.5625 15.6055 2.93945 16.9824Q4.31641 18.3594 6.11816 19.1406Q7.91992 19.9219 9.96094 19.9219Z" fill="#007aff"/>
  <path d="M7.69531 14.6582Q7.00195 14.6582 6.65527 14.3164Q6.30859 13.9746 6.30859 13.2812L6.30859 8.56445Q6.30859 7.89062 6.65527 7.54883Q7.00195 7.20703 7.69531 7.20703L14.4238 7.20703Q15.1172 7.20703 15.4639 7.54883Q15.8105 7.89062 15.8105 8.56445L15.8105 13.2812Q15.8105 13.9746 15.4639 14.3164Q15.1172 14.6582 14.4238 14.6582ZM9.7168 12.6465Q9.7168 12.8223 9.85352 12.8809Q9.99023 12.9395 10.1367 12.8516L13.0273 11.1523Q13.1543 11.0742 13.1445 10.9326Q13.1348 10.791 13.0078 10.7227L10.1367 9.01367Q9.99023 8.93555 9.85352 8.98926Q9.7168 9.04297 9.7168 9.20898ZM5.71289 8.50586L5.71289 12.5195L5.47852 12.5195Q4.78516 12.5195 4.44336 12.1826Q4.10156 11.8457 4.10156 11.1621L4.10156 6.48438Q4.10156 5.79102 4.44336 5.4541Q4.78516 5.11719 5.47852 5.11719L12.2168 5.11719Q12.9102 5.11719 13.252 5.4541Q13.5938 5.79102 13.5938 6.48438L13.5938 6.60156L7.63672 6.60156Q6.67969 6.60156 6.19629 7.08496Q5.71289 7.56836 5.71289 8.50586Z" fill="#ffffff"/>
 </g>
</svg>
