<?xml version="1.0" encoding="UTF-8"?>
<!--Generator: Apple Native CoreSVG 175.5-->
<!DOCTYPE svg
PUBLIC "-//W3C//DTD SVG 1.1//EN"
       "http://www.w3.org/Graphics/SVG/1.1/DTD/svg11.dtd">
<svg version="1.1" xmlns="http://www.w3.org/2000/svg" xmlns:xlink="http://www.w3.org/1999/xlink" width="24.4141" height="20.1855">
 <g>
  <rect height="20.1855" opacity="0" width="24.4141" x="0" y="0"/>
  <path d="M2.50977 16.875L21.9043 16.875Q23.1445 16.875 23.7793 16.2402Q24.4141 15.6055 24.4141 14.3652L24.4141 3.17383Q24.4141 1.94336 23.7793 1.30859Q23.1445 0.673828 21.9043 0.673828L2.50977 0.673828Q1.26953 0.673828 0.634766 1.30859Q0 1.94336 0 3.17383L0 14.3652Q0 15.6055 0.634766 16.2402Q1.26953 16.875 2.50977 16.875ZM2.53906 15.3027Q2.06055 15.3027 1.81641 15.0635Q1.57227 14.8242 1.57227 14.3457L1.57227 3.20312Q1.57227 2.72461 1.81641 2.48535Q2.06055 2.24609 2.53906 2.24609L21.875 2.24609Q22.3633 2.24609 22.6025 2.48535Q22.8418 2.72461 22.8418 3.20312L22.8418 14.3457Q22.8418 14.8242 22.6025 15.0635Q22.3633 15.3027 21.875 15.3027ZM7.29492 20.1855L17.1191 20.1855Q17.4414 20.1855 17.6758 19.9561Q17.9102 19.7266 17.9102 19.3945Q17.9102 19.0723 17.6758 18.8379Q17.4414 18.6035 17.1191 18.6035L7.29492 18.6035Q6.97266 18.6035 6.73828 18.8379Q6.50391 19.0723 6.50391 19.3945Q6.50391 19.7266 6.73828 19.9561Q6.97266 20.1855 7.29492 20.1855Z" fill="#007aff"/>
  <path d="M9.04297 12.8125Q9.04297 13.2129 9.375 13.3398Q9.70703 13.4668 10.0195 13.291L16.7969 9.29688Q17.0996 9.11133 17.0947 8.77441Q17.0898 8.4375 16.7871 8.26172L10.0195 4.26758Q9.70703 4.0918 9.375 4.21875Q9.04297 4.3457 9.04297 4.74609Z" fill="#ffffff"/>
 </g>
</svg>
