<?xml version="1.0" encoding="UTF-8"?>
<!--Generator: Apple Native CoreSVG 175-->
<!DOCTYPE svg
PUBLIC "-//W3C//DTD SVG 1.1//EN"
       "http://www.w3.org/Graphics/SVG/1.1/DTD/svg11.dtd">
<svg version="1.1" xmlns="http://www.w3.org/2000/svg" xmlns:xlink="http://www.w3.org/1999/xlink" width="21.3281" height="19.2871">
 <g>
  <rect height="19.2871" opacity="0" width="21.3281" x="0" y="0"/>
  <path d="M4.01367 19.2676Q4.54102 19.2676 5.38086 18.999Q6.2207 18.7305 7.20215 18.2715Q8.18359 17.8125 9.11133 17.2461Q10.9668 17.4512 12.749 17.1533Q14.5312 16.8555 16.084 16.123Q17.6367 15.3906 18.8135 14.2871Q19.9902 13.1836 20.6592 11.7627Q21.3281 10.3418 21.3281 8.66211Q21.3281 6.875 20.5127 5.30762Q19.6973 3.74023 18.2324 2.54883Q16.7676 1.35742 14.834 0.678711Q12.9004 0 10.6641 0Q8.4375 0 6.49902 0.678711Q4.56055 1.35742 3.10059 2.54883Q1.64062 3.74023 0.820312 5.30762Q0 6.875 0 8.66211Q0 10.2344 0.634766 11.6455Q1.26953 13.0566 2.42188 14.1943Q3.57422 15.332 5.11719 16.084Q4.90234 16.4844 4.61914 16.8848Q4.33594 17.2852 4.05762 17.627Q3.7793 17.9688 3.57422 18.2129Q3.34961 18.4961 3.3252 18.7354Q3.30078 18.9746 3.47656 19.1211Q3.65234 19.2676 4.01367 19.2676ZM4.30664 18.5254Q4.24805 18.5352 4.23828 18.501Q4.22852 18.4668 4.27734 18.418Q4.59961 18.0078 5.1123 17.3779Q5.625 16.748 5.92773 16.1328Q6.01562 15.9375 5.97168 15.7861Q5.92773 15.6348 5.73242 15.5371Q4.20898 14.834 3.09082 13.7842Q1.97266 12.7344 1.3623 11.4307Q0.751953 10.127 0.751953 8.66211Q0.751953 7.02148 1.51855 5.58594Q2.28516 4.15039 3.64258 3.06152Q5 1.97266 6.80176 1.3623Q8.60352 0.751953 10.6641 0.751953Q12.7344 0.751953 14.5312 1.3623Q16.3281 1.97266 17.6855 3.06152Q19.043 4.15039 19.8096 5.58594Q20.5762 7.02148 20.5762 8.66211Q20.5762 10.3027 19.8096 11.7432Q19.043 13.1836 17.6855 14.2676Q16.3281 15.3516 14.5312 15.9717Q12.7344 16.5918 10.6641 16.5918Q10.3125 16.5918 9.95117 16.5625Q9.58984 16.5332 9.20898 16.5039Q9.0625 16.4941 8.90625 16.5332Q8.75 16.5723 8.60352 16.6602Q7.80273 17.1289 6.96777 17.5391Q6.13281 17.9492 5.4248 18.2178Q4.7168 18.4863 4.30664 18.5254Z" fill="#007aff"/>
  <path d="M6.34766 8.68164Q6.34766 8.82812 6.45996 8.93555Q6.57227 9.04297 6.72852 9.04297L10.293 9.04297L10.293 12.5977Q10.293 12.7637 10.4004 12.876Q10.5078 12.9883 10.6543 12.9883Q10.8203 12.9883 10.9326 12.8809Q11.0449 12.7734 11.0449 12.5977L11.0449 9.04297L14.6094 9.04297Q14.7656 9.04297 14.8779 8.93555Q14.9902 8.82812 14.9902 8.68164Q14.9902 8.51562 14.8828 8.40332Q14.7754 8.29102 14.6094 8.29102L11.0449 8.29102L11.0449 4.73633Q11.0449 4.56055 10.9326 4.45801Q10.8203 4.35547 10.6543 4.35547Q10.5078 4.35547 10.4004 4.46289Q10.293 4.57031 10.293 4.73633L10.293 8.29102L6.72852 8.29102Q6.5625 8.29102 6.45508 8.40332Q6.34766 8.51562 6.34766 8.68164Z" fill="#ffffff"/>
 </g>
</svg>
