<?xml version="1.0" encoding="UTF-8"?>
<!--Generator: Apple Native CoreSVG 175.5-->
<!DOCTYPE svg
PUBLIC "-//W3C//DTD SVG 1.1//EN"
       "http://www.w3.org/Graphics/SVG/1.1/DTD/svg11.dtd">
<svg version="1.1" xmlns="http://www.w3.org/2000/svg" xmlns:xlink="http://www.w3.org/1999/xlink" width="20.6641" height="20.4785">
 <g>
  <rect height="20.4785" opacity="0" width="20.6641" x="0" y="0"/>
  <path d="M7.80273 20.4785L17.6074 20.4785Q19.1309 20.4785 19.8975 19.7168Q20.6641 18.9551 20.6641 17.4512L20.6641 7.56836Q20.6641 6.06445 19.8975 5.30273Q19.1309 4.54102 17.6074 4.54102L7.80273 4.54102Q6.26953 4.54102 5.50293 5.29785Q4.73633 6.05469 4.73633 7.56836L4.73633 17.4512Q4.73633 18.9648 5.50293 19.7217Q6.26953 20.4785 7.80273 20.4785ZM0 12.9297Q0 14.4434 0.766602 15.2002Q1.5332 15.957 3.06641 15.957L3.39844 15.957L3.39844 7.56836Q3.39844 6.19141 3.9209 5.21484Q4.44336 4.23828 5.42969 3.72559Q6.41602 3.21289 7.80273 3.21289L15.9277 3.21289L15.9277 3.04688Q15.9277 1.54297 15.1611 0.78125Q14.3945 0.0195312 12.8711 0.0195312L3.06641 0.0195312Q1.5332 0.0195312 0.766602 0.776367Q0 1.5332 0 3.04688Z" fill="#007aff"/>
  <path d="M7.93945 12.5195Q7.93945 12.1387 8.18359 11.8994Q8.42773 11.6602 8.80859 11.6602L11.8652 11.6602L11.8652 8.60352Q11.8652 8.22266 12.0947 7.97852Q12.3242 7.73438 12.6953 7.73438Q13.0762 7.73438 13.3154 7.97852Q13.5547 8.22266 13.5547 8.60352L13.5547 11.6602L16.6211 11.6602Q17.002 11.6602 17.2412 11.8994Q17.4805 12.1387 17.4805 12.5195Q17.4805 12.8906 17.2363 13.1201Q16.9922 13.3496 16.6211 13.3496L13.5547 13.3496L13.5547 16.416Q13.5547 16.7969 13.3154 17.0361Q13.0762 17.2754 12.6953 17.2754Q12.3242 17.2754 12.0947 17.0361Q11.8652 16.7969 11.8652 16.416L11.8652 13.3496L8.80859 13.3496Q8.42773 13.3496 8.18359 13.1201Q7.93945 12.8906 7.93945 12.5195Z" fill="#ffffff"/>
 </g>
</svg>
