<?xml version="1.0" encoding="UTF-8"?>
<!--Generator: Apple Native CoreSVG 175.5-->
<!DOCTYPE svg
PUBLIC "-//W3C//DTD SVG 1.1//EN"
       "http://www.w3.org/Graphics/SVG/1.1/DTD/svg11.dtd">
<svg version="1.1" xmlns="http://www.w3.org/2000/svg" xmlns:xlink="http://www.w3.org/1999/xlink" width="17.9785" height="17.998">
 <g>
  <rect height="17.998" opacity="0" width="17.9785" x="0" y="0"/>
  <path d="M3.06641 17.998L14.9121 17.998Q16.4453 17.998 17.2119 17.2412Q17.9785 16.4844 17.9785 14.9707L17.9785 3.04688Q17.9785 1.5332 17.2119 0.776367Q16.4453 0.0195312 14.9121 0.0195312L3.06641 0.0195312Q1.5332 0.0195312 0.766602 0.776367Q0 1.5332 0 3.04688L0 14.9707Q0 16.4844 0.766602 17.2412Q1.5332 17.998 3.06641 17.998Z" fill="#007aff"/>
  <path d="M4.22852 9.00391Q4.22852 8.62305 4.47266 8.38379Q4.7168 8.14453 5.09766 8.14453L8.1543 8.14453L8.1543 5.08789Q8.1543 4.70703 8.38379 4.46289Q8.61328 4.21875 8.98438 4.21875Q9.36523 4.21875 9.60449 4.46289Q9.84375 4.70703 9.84375 5.08789L9.84375 8.14453L12.9102 8.14453Q13.291 8.14453 13.5303 8.38379Q13.7695 8.62305 13.7695 9.00391Q13.7695 9.375 13.5254 9.60449Q13.2812 9.83398 12.9102 9.83398L9.84375 9.83398L9.84375 12.9004Q9.84375 13.2812 9.60449 13.5205Q9.36523 13.7598 8.98438 13.7598Q8.61328 13.7598 8.38379 13.5205Q8.1543 13.2812 8.1543 12.9004L8.1543 9.83398L5.09766 9.83398Q4.7168 9.83398 4.47266 9.60449Q4.22852 9.375 4.22852 9.00391Z" fill="#ffffff"/>
 </g>
</svg>
