<?xml version="1.0" encoding="UTF-8"?>
<!--Generator: Apple Native CoreSVG 175.5-->
<!DOCTYPE svg
PUBLIC "-//W3C//DTD SVG 1.1//EN"
       "http://www.w3.org/Graphics/SVG/1.1/DTD/svg11.dtd">
<svg version="1.1" xmlns="http://www.w3.org/2000/svg" xmlns:xlink="http://www.w3.org/1999/xlink" width="23.0273" height="17.9785">
 <g>
  <rect height="17.9785" opacity="0" width="23.0273" x="0" y="0"/>
  <path d="M3.06641 17.9785L19.9609 17.9785Q21.5039 17.9785 22.2656 17.2217Q23.0273 16.4648 23.0273 14.9609L23.0273 3.02734Q23.0273 1.52344 22.2656 0.761719Q21.5039 0 19.9609 0L3.06641 0Q1.5332 0 0.766602 0.756836Q0 1.51367 0 3.02734L0 14.9609Q0 16.4648 0.766602 17.2217Q1.5332 17.9785 3.06641 17.9785Z" fill="#007aff"/>
  <path d="M6.74805 9.00391Q6.74805 8.62305 6.99219 8.38379Q7.23633 8.14453 7.61719 8.14453L10.6738 8.14453L10.6738 5.08789Q10.6738 4.70703 10.9033 4.46289Q11.1328 4.21875 11.5039 4.21875Q11.8848 4.21875 12.124 4.46289Q12.3633 4.70703 12.3633 5.08789L12.3633 8.14453L15.4297 8.14453Q15.8105 8.14453 16.0498 8.38379Q16.2891 8.62305 16.2891 9.00391Q16.2891 9.375 16.0449 9.60449Q15.8008 9.83398 15.4297 9.83398L12.3633 9.83398L12.3633 12.9004Q12.3633 13.2812 12.124 13.5205Q11.8848 13.7598 11.5039 13.7598Q11.1328 13.7598 10.9033 13.5205Q10.6738 13.2812 10.6738 12.9004L10.6738 9.83398L7.61719 9.83398Q7.23633 9.83398 6.99219 9.60449Q6.74805 9.375 6.74805 9.00391Z" fill="#ffffff"/>
 </g>
</svg>
