<?xml version="1.0" encoding="UTF-8"?>
<!--Generator: Apple Native CoreSVG 175-->
<!DOCTYPE svg
PUBLIC "-//W3C//DTD SVG 1.1//EN"
       "http://www.w3.org/Graphics/SVG/1.1/DTD/svg11.dtd">
<svg version="1.1" xmlns="http://www.w3.org/2000/svg" xmlns:xlink="http://www.w3.org/1999/xlink" width="17.5485" height="18.4052">
 <g>
  <rect height="18.4052" opacity="0" width="17.5485" x="0" y="0"/>
  <path d="M0 4.86023Q0 5.00275 0.0982666 5.10452Q0.196533 5.2063 0.341797 5.2063L2.5914 5.2063L2.5914 7.45163Q2.5914 7.59689 2.69104 7.6973Q2.79068 7.7977 2.93045 7.7977Q3.07587 7.7977 3.17406 7.69592Q3.27225 7.59415 3.27225 7.45163L3.27225 5.2063L5.5246 5.2063Q5.67001 5.2063 5.7682 5.10452Q5.86639 5.00275 5.86639 4.86023Q5.86639 4.72183 5.7682 4.62013Q5.67001 4.51843 5.5246 4.51843L3.27225 4.51843L3.27225 2.2731Q3.27225 2.12769 3.17406 2.02599Q3.07587 1.92429 2.93045 1.92429Q2.78793 1.92429 2.68967 2.02599Q2.5914 2.12769 2.5914 2.2731L2.5914 4.51843L0.341797 4.51843Q0.196533 4.51843 0.0982666 4.62013Q0 4.72183 0 4.86023ZM9.0332 9.40125L14.5778 0.649719Q14.6332 0.559387 14.6596 0.488739Q14.686 0.418091 14.686 0.348816Q14.686 0.203552 14.5788 0.101776Q14.4716 0 14.3234 0Q14.1891 0 14.1096 0.0603485Q14.0302 0.120697 13.9235 0.275879L8.33908 9.13055L2.90436 17.7359Q2.8418 17.8235 2.81761 17.8991Q2.79343 17.9747 2.79343 18.0536Q2.79343 18.2071 2.89986 18.2991Q3.00629 18.3911 3.16681 18.3911Q3.28445 18.3911 3.3696 18.335Q3.45474 18.279 3.54889 18.132ZM11.682 14.6056Q11.682 14.7508 11.7838 14.8526Q11.8855 14.9544 12.0212 14.9544L17.2067 14.9544Q17.3492 14.9544 17.4489 14.8526Q17.5485 14.7508 17.5485 14.6056Q17.5485 14.4699 17.4489 14.3681Q17.3492 14.2664 17.2067 14.2664L12.0212 14.2664Q11.8855 14.2664 11.7838 14.3681Q11.682 14.4699 11.682 14.6056Z" fill="#ffffff"/>
 </g>
</svg>
