<?xml version="1.0" encoding="UTF-8"?>
<!--Generator: Apple Native CoreSVG 175.5-->
<!DOCTYPE svg
PUBLIC "-//W3C//DTD SVG 1.1//EN"
       "http://www.w3.org/Graphics/SVG/1.1/DTD/svg11.dtd">
<svg version="1.1" xmlns="http://www.w3.org/2000/svg" xmlns:xlink="http://www.w3.org/1999/xlink" width="18.5938" height="17.998">
 <g>
  <rect height="17.998" opacity="0" width="18.5938" x="0" y="0"/>
  <path d="M3.06641 17.998L15.5273 17.998Q17.0605 17.998 17.8271 17.2412Q18.5938 16.4844 18.5938 14.9707L18.5938 3.04688Q18.5938 1.5332 17.8271 0.776367Q17.0605 0.0195312 15.5273 0.0195312L3.06641 0.0195312Q1.5332 0.0195312 0.766602 0.776367Q0 1.5332 0 3.04688L0 14.9707Q0 16.4844 0.766602 17.2412Q1.5332 17.998 3.06641 17.998Z" fill="#007aff"/>
  <path d="M9.29688 7.77344Q8.51562 7.77344 7.96875 7.22656Q7.42188 6.67969 7.42188 5.89844Q7.42188 5.11719 7.96875 4.57031Q8.51562 4.02344 9.29688 4.02344Q10.0684 4.02344 10.6201 4.57031Q11.1719 5.11719 11.1719 5.89844Q11.1719 6.67969 10.6201 7.22656Q10.0684 7.77344 9.29688 7.77344ZM5.84961 13.9746Q5.22461 13.9746 4.77539 13.5254Q4.32617 13.0762 4.32617 12.4512Q4.32617 11.8359 4.77539 11.3916Q5.22461 10.9473 5.84961 10.9473Q6.46484 10.9473 6.90918 11.3916Q7.35352 11.8359 7.35352 12.4512Q7.35352 13.0762 6.90918 13.5254Q6.46484 13.9746 5.84961 13.9746ZM12.7539 13.9746Q12.1289 13.9746 11.6846 13.5254Q11.2402 13.0762 11.2402 12.4512Q11.2402 11.8359 11.6846 11.3916Q12.1289 10.9473 12.7539 10.9473Q13.3691 10.9473 13.8184 11.3916Q14.2676 11.8359 14.2676 12.4512Q14.2676 13.0762 13.8184 13.5254Q13.3691 13.9746 12.7539 13.9746Z" fill="#ffffff"/>
 </g>
</svg>
