<?xml version="1.0" encoding="UTF-8"?>
<!--Generator: Apple Native CoreSVG 175.5-->
<!DOCTYPE svg
PUBLIC "-//W3C//DTD SVG 1.1//EN"
       "http://www.w3.org/Graphics/SVG/1.1/DTD/svg11.dtd">
<svg version="1.1" xmlns="http://www.w3.org/2000/svg" xmlns:xlink="http://www.w3.org/1999/xlink" width="17.9785" height="17.998">
 <g>
  <rect height="17.998" opacity="0" width="17.9785" x="0" y="0"/>
  <path d="M3.06641 17.998L14.9121 17.998Q16.4453 17.998 17.2119 17.2412Q17.9785 16.4844 17.9785 14.9707L17.9785 3.04688Q17.9785 1.5332 17.2119 0.776367Q16.4453 0.0195312 14.9121 0.0195312L3.06641 0.0195312Q1.5332 0.0195312 0.766602 0.776367Q0 1.5332 0 3.04688L0 14.9707Q0 16.4844 0.766602 17.2412Q1.5332 17.998 3.06641 17.998Z" fill="#007aff"/>
  <path d="M5.80078 13.6035Q5.32227 13.6035 5.00977 13.3105Q4.16992 12.5195 3.65234 11.3867Q3.13477 10.2539 3.13477 9.00391Q3.13477 7.74414 3.66211 6.60645Q4.18945 5.46875 5.0293 4.67773Q5.18555 4.54102 5.38574 4.47754Q5.58594 4.41406 5.80078 4.41406L12.1777 4.41406Q12.6562 4.41406 12.9688 4.70703Q13.8086 5.48828 14.3262 6.62109Q14.8438 7.75391 14.8438 9.00391Q14.8438 10.2539 14.3262 11.3867Q13.8086 12.5195 12.9688 13.3105Q12.6562 13.6035 12.1777 13.6035ZM6.5332 11.3574Q6.77734 11.3574 6.94336 11.1914Q7.10938 11.0254 7.10938 10.7812L7.10938 7.2168Q7.10938 6.98242 6.94336 6.81641Q6.77734 6.65039 6.5332 6.65039Q6.29883 6.65039 6.13281 6.81641Q5.9668 6.98242 5.9668 7.2168L5.9668 10.7812Q5.9668 11.0254 6.13281 11.1914Q6.29883 11.3574 6.5332 11.3574ZM11.4453 11.3574Q11.6797 11.3574 11.8457 11.1914Q12.0117 11.0254 12.0117 10.7812L12.0117 7.2168Q12.0117 6.98242 11.8457 6.81641Q11.6797 6.65039 11.4453 6.65039Q11.2109 6.65039 11.0449 6.81641Q10.8789 6.98242 10.8789 7.2168L10.8789 10.7812Q10.8789 11.0254 11.0449 11.1914Q11.2109 11.3574 11.4453 11.3574Z" fill="#ffffff"/>
 </g>
</svg>
