<?xml version="1.0" encoding="UTF-8"?>
<!--Generator: Apple Native CoreSVG 175.5-->
<!DOCTYPE svg
PUBLIC "-//W3C//DTD SVG 1.1//EN"
       "http://www.w3.org/Graphics/SVG/1.1/DTD/svg11.dtd">
<svg version="1.1" xmlns="http://www.w3.org/2000/svg" xmlns:xlink="http://www.w3.org/1999/xlink" width="37.9297" height="12.6465">
 <g>
  <rect height="12.6465" opacity="0" width="37.9297" x="0" y="0"/>
  <path d="M2.75391 11.1914L27.168 11.1914Q28.3691 11.1914 29.1455 10.4102Q29.9219 9.62891 29.9219 8.4375L29.9219 2.76367Q29.9219 1.5625 29.1455 0.78125Q28.3691 0 27.168 0L2.75391 0Q1.55273 0 0.776367 0.78125Q0 1.5625 0 2.76367L0 8.4375Q0 9.63867 0.776367 10.415Q1.55273 11.1914 2.75391 11.1914ZM2.75391 9.81445Q2.13867 9.81445 1.75781 9.42871Q1.37695 9.04297 1.37695 8.4375L1.37695 2.76367Q1.37695 2.14844 1.75781 1.7627Q2.13867 1.37695 2.75391 1.37695L27.168 1.37695Q27.7734 1.37695 28.1592 1.7627Q28.5449 2.14844 28.5449 2.76367L28.5449 8.4375Q28.5449 9.04297 28.1592 9.42871Q27.7734 9.81445 27.168 9.81445ZM29.1895 8.96484L30.7031 8.96484Q31.2109 8.96484 31.543 8.6377Q31.875 8.31055 31.875 7.80273L31.875 3.60352Q31.875 3.0957 31.543 2.76855Q31.2109 2.44141 30.7031 2.44141L29.1895 2.44141L29.1895 3.52539L30.3711 3.52539Q30.791 3.52539 30.791 3.93555L30.791 7.46094Q30.791 7.88086 30.3711 7.88086L29.1895 7.88086ZM31.5918 6.41602L37.9297 6.41602L37.9297 5.13672L31.5918 5.13672Z" fill="#007aff"/>
  <path d="M3.74023 7.8125L4.4043 7.8125Q4.60938 7.8125 4.74121 7.68066Q4.87305 7.54883 4.87305 7.33398L4.87305 3.84766Q4.87305 3.62305 4.74121 3.49121Q4.60938 3.35938 4.4043 3.35938L3.74023 3.35938Q3.52539 3.35938 3.39355 3.49121Q3.26172 3.62305 3.26172 3.84766L3.26172 7.33398Q3.26172 7.54883 3.39355 7.68066Q3.52539 7.8125 3.74023 7.8125ZM9.60938 8.60352Q10.4395 8.60352 11.123 8.19824Q11.8066 7.79297 12.2119 7.11426Q12.6172 6.43555 12.6172 5.5957Q12.6172 4.77539 12.2119 4.08691Q11.8066 3.39844 11.123 2.99316Q10.4395 2.58789 9.60938 2.58789Q8.7793 2.58789 8.0957 2.99316Q7.41211 3.39844 7.00684 4.08691Q6.60156 4.77539 6.60156 5.5957Q6.60156 6.43555 7.00684 7.11426Q7.41211 7.79297 8.0957 8.19824Q8.7793 8.60352 9.60938 8.60352ZM8.50586 7.17773Q8.33008 7.17773 8.20312 7.05078Q8.07617 6.92383 8.07617 6.75781L8.07617 4.44336Q8.07617 4.27734 8.20312 4.14551Q8.33008 4.01367 8.50586 4.01367Q8.68164 4.01367 8.79883 4.14062Q8.91602 4.26758 8.91602 4.44336L8.91602 6.75781Q8.91602 6.93359 8.79883 7.05566Q8.68164 7.17773 8.50586 7.17773ZM10.7129 7.17773Q10.5371 7.17773 10.4102 7.05566Q10.2832 6.93359 10.2832 6.75781L10.2832 4.44336Q10.2832 4.26758 10.4102 4.14062Q10.5371 4.01367 10.7129 4.01367Q10.8887 4.01367 11.0059 4.14062Q11.123 4.26758 11.123 4.44336L11.123 6.75781Q11.123 6.93359 11.0059 7.05566Q10.8887 7.17773 10.7129 7.17773ZM16.8555 8.60352Q17.6855 8.60352 18.3691 8.19824Q19.0527 7.79297 19.4629 7.11426Q19.873 6.43555 19.873 5.5957Q19.873 4.77539 19.4629 4.08691Q19.0527 3.39844 18.3691 2.99316Q17.6855 2.58789 16.8555 2.58789Q16.0254 2.58789 15.3467 2.99316Q14.668 3.39844 14.2627 4.08691Q13.8574 4.77539 13.8574 5.5957Q13.8574 6.43555 14.2627 7.11426Q14.668 7.79297 15.3467 8.19824Q16.0254 8.60352 16.8555 8.60352ZM15.7422 7.17773Q15.5762 7.17773 15.4492 7.05566Q15.3223 6.93359 15.3223 6.75781L15.3223 4.44336Q15.3223 4.27734 15.4492 4.14551Q15.5762 4.01367 15.7422 4.01367Q15.9277 4.01367 16.0498 4.14062Q16.1719 4.26758 16.1719 4.44336L16.1719 6.75781Q16.1719 6.93359 16.0498 7.05566Q15.9277 7.17773 15.7422 7.17773ZM17.959 7.17773Q17.7832 7.17773 17.6562 7.05566Q17.5293 6.93359 17.5293 6.75781L17.5293 4.44336Q17.5293 4.26758 17.6562 4.14062Q17.7832 4.01367 17.959 4.01367Q18.1348 4.01367 18.2568 4.14062Q18.3789 4.26758 18.3789 4.44336L18.3789 6.75781Q18.3789 6.93359 18.2568 7.05566Q18.1348 7.17773 17.959 7.17773ZM24.1016 8.60352Q24.9316 8.60352 25.6152 8.19824Q26.2988 7.79297 26.7041 7.11426Q27.1094 6.43555 27.1094 5.5957Q27.1094 4.77539 26.7041 4.08691Q26.2988 3.39844 25.6152 2.99316Q24.9316 2.58789 24.1016 2.58789Q23.2715 2.58789 22.5879 2.99316Q21.9043 3.39844 21.5039 4.08691Q21.1035 4.77539 21.1035 5.5957Q21.1035 6.43555 21.5039 7.11426Q21.9043 7.79297 22.5879 8.19824Q23.2715 8.60352 24.1016 8.60352ZM22.998 7.17773Q22.8223 7.17773 22.6953 7.05566Q22.5684 6.93359 22.5684 6.75781L22.5684 4.44336Q22.5684 4.27734 22.6953 4.14551Q22.8223 4.01367 22.998 4.01367Q23.1738 4.01367 23.2959 4.14062Q23.418 4.26758 23.418 4.44336L23.418 6.75781Q23.418 6.93359 23.291 7.05566Q23.1641 7.17773 22.998 7.17773ZM25.2051 7.17773Q25.0293 7.17773 24.9023 7.05566Q24.7754 6.93359 24.7754 6.75781L24.7754 4.44336Q24.7754 4.26758 24.9023 4.14062Q25.0293 4.01367 25.2051 4.01367Q25.3809 4.01367 25.498 4.14062Q25.6152 4.26758 25.6152 4.44336L25.6152 6.75781Q25.6152 6.93359 25.498 7.05566Q25.3809 7.17773 25.2051 7.17773Z" fill="#ffffff"/>
 </g>
</svg>
