<?xml version="1.0" encoding="UTF-8"?>
<!--Generator: Apple Native CoreSVG 175.5-->
<!DOCTYPE svg
PUBLIC "-//W3C//DTD SVG 1.1//EN"
       "http://www.w3.org/Graphics/SVG/1.1/DTD/svg11.dtd">
<svg version="1.1" xmlns="http://www.w3.org/2000/svg" xmlns:xlink="http://www.w3.org/1999/xlink" width="19.9219" height="19.9316">
 <g>
  <rect height="19.9316" opacity="0" width="19.9219" x="0" y="0"/>
  <path d="M9.96094 19.9219Q12.002 19.9219 13.8037 19.1406Q15.6055 18.3594 16.9824 16.9824Q18.3594 15.6055 19.1406 13.8037Q19.9219 12.002 19.9219 9.96094Q19.9219 7.91992 19.1406 6.11816Q18.3594 4.31641 16.9824 2.93945Q15.6055 1.5625 13.7988 0.78125Q11.9922 0 9.95117 0Q7.91016 0 6.1084 0.78125Q4.30664 1.5625 2.93457 2.93945Q1.5625 4.31641 0.78125 6.11816Q0 7.91992 0 9.96094Q0 12.002 0.78125 13.8037Q1.5625 15.6055 2.93945 16.9824Q4.31641 18.3594 6.11816 19.1406Q7.91992 19.9219 9.96094 19.9219ZM9.96094 18.2617Q8.23242 18.2617 6.72852 17.6172Q5.22461 16.9727 4.08691 15.835Q2.94922 14.6973 2.30957 13.1934Q1.66992 11.6895 1.66992 9.96094Q1.66992 8.23242 2.30957 6.72852Q2.94922 5.22461 4.08203 4.08203Q5.21484 2.93945 6.71875 2.2998Q8.22266 1.66016 9.95117 1.66016Q11.6797 1.66016 13.1885 2.2998Q14.6973 2.93945 15.835 4.08203Q16.9727 5.22461 17.6172 6.72852Q18.2617 8.23242 18.2617 9.96094Q18.2617 11.6895 17.6221 13.1934Q16.9824 14.6973 15.8398 15.835Q14.6973 16.9727 13.1934 17.6172Q11.6895 18.2617 9.96094 18.2617Z" fill="#007aff"/>
  <path d="M5.97656 11.8066Q6.74805 11.8066 7.28516 11.2646Q7.82227 10.7227 7.82227 9.96094Q7.82227 9.19922 7.28516 8.65723Q6.74805 8.11523 5.97656 8.11523Q5.21484 8.11523 4.67773 8.65723Q4.14062 9.19922 4.14062 9.96094Q4.14062 10.7227 4.67773 11.2646Q5.21484 11.8066 5.97656 11.8066ZM13.9453 11.8066Q14.707 11.8066 15.2441 11.2646Q15.7812 10.7227 15.7812 9.96094Q15.7812 9.19922 15.2441 8.65723Q14.707 8.11523 13.9453 8.11523Q13.1738 8.11523 12.6367 8.65723Q12.0996 9.19922 12.0996 9.96094Q12.0996 10.7227 12.6367 11.2646Q13.1738 11.8066 13.9453 11.8066ZM8.79883 13.5938Q8.33984 13.5938 8.33984 14.043L8.33984 14.7559Q8.33984 15.4297 8.80371 15.9033Q9.26758 16.377 9.96094 16.377Q10.6348 16.377 11.1084 15.9033Q11.582 15.4297 11.582 14.7559L11.582 14.043Q11.582 13.5938 11.123 13.5938Z" fill="#ffffff"/>
 </g>
</svg>
