<?xml version="1.0" encoding="UTF-8"?>
<!--Generator: Apple Native CoreSVG 175.5-->
<!DOCTYPE svg
PUBLIC "-//W3C//DTD SVG 1.1//EN"
       "http://www.w3.org/Graphics/SVG/1.1/DTD/svg11.dtd">
<svg version="1.1" xmlns="http://www.w3.org/2000/svg" xmlns:xlink="http://www.w3.org/1999/xlink" width="19.9219" height="19.9316">
 <g>
  <rect height="19.9316" opacity="0" width="19.9219" x="0" y="0"/>
  <path d="M9.96094 19.9219Q12.002 19.9219 13.8037 19.1406Q15.6055 18.3594 16.9824 16.9824Q18.3594 15.6055 19.1406 13.8037Q19.9219 12.002 19.9219 9.96094Q19.9219 7.91992 19.1406 6.11816Q18.3594 4.31641 16.9824 2.93945Q15.6055 1.5625 13.7988 0.78125Q11.9922 0 9.95117 0Q7.91016 0 6.1084 0.78125Q4.30664 1.5625 2.93457 2.93945Q1.5625 4.31641 0.78125 6.11816Q0 7.91992 0 9.96094Q0 12.002 0.78125 13.8037Q1.5625 15.6055 2.93945 16.9824Q4.31641 18.3594 6.11816 19.1406Q7.91992 19.9219 9.96094 19.9219Z" fill="#007aff"/>
  <path d="M5.85938 11.8652Q5.06836 11.8652 4.5166 11.3037Q3.96484 10.7422 3.96484 9.96094Q3.96484 9.16992 4.5166 8.61328Q5.06836 8.05664 5.85938 8.05664Q6.65039 8.05664 7.20703 8.61328Q7.76367 9.16992 7.76367 9.96094Q7.76367 10.7422 7.20703 11.3037Q6.65039 11.8652 5.85938 11.8652ZM14.0625 11.8652Q13.2715 11.8652 12.7148 11.3037Q12.1582 10.7422 12.1582 9.96094Q12.1582 9.16992 12.7148 8.61328Q13.2715 8.05664 14.0625 8.05664Q14.8535 8.05664 15.4053 8.61328Q15.957 9.16992 15.957 9.96094Q15.957 10.7422 15.4053 11.3037Q14.8535 11.8652 14.0625 11.8652Z" fill="#ffffff"/>
 </g>
</svg>
