<?xml version="1.0" encoding="UTF-8"?>
<!--Generator: Apple Native CoreSVG 175.5-->
<!DOCTYPE svg
PUBLIC "-//W3C//DTD SVG 1.1//EN"
       "http://www.w3.org/Graphics/SVG/1.1/DTD/svg11.dtd">
<svg version="1.1" xmlns="http://www.w3.org/2000/svg" xmlns:xlink="http://www.w3.org/1999/xlink" width="17.9785" height="17.998">
 <g>
  <rect height="17.998" opacity="0" width="17.9785" x="0" y="0"/>
  <path d="M3.06641 17.998L14.9121 17.998Q16.4453 17.998 17.2119 17.2412Q17.9785 16.4844 17.9785 14.9707L17.9785 3.04688Q17.9785 1.5332 17.2119 0.776367Q16.4453 0.0195312 14.9121 0.0195312L3.06641 0.0195312Q1.5332 0.0195312 0.766602 0.776367Q0 1.5332 0 3.04688L0 14.9707Q0 16.4844 0.766602 17.2412Q1.5332 17.998 3.06641 17.998Z" fill="#007aff"/>
  <path d="M7.22656 14.8535Q6.81641 14.8535 6.54785 14.585Q6.2793 14.3164 6.2793 13.8965L6.2793 4.0918Q6.2793 3.68164 6.54785 3.41309Q6.81641 3.14453 7.22656 3.14453L10.752 3.14453Q11.1621 3.14453 11.4307 3.41309Q11.6992 3.68164 11.6992 4.0918L11.6992 13.8965Q11.6992 14.3164 11.4307 14.585Q11.1621 14.8535 10.752 14.8535ZM8.99414 6.72852Q9.41406 6.72852 9.71191 6.43066Q10.0098 6.13281 10.0098 5.71289Q10.0098 5.2832 9.71191 4.98535Q9.41406 4.6875 8.99414 4.6875Q8.56445 4.6875 8.2666 4.98535Q7.96875 5.2832 7.96875 5.71289Q7.96875 6.13281 8.2666 6.43066Q8.56445 6.72852 8.99414 6.72852ZM8.99414 10.0098Q9.41406 10.0098 9.71191 9.71191Q10.0098 9.41406 10.0098 8.99414Q10.0098 8.57422 9.71191 8.27637Q9.41406 7.97852 8.99414 7.97852Q8.56445 7.97852 8.2666 8.27637Q7.96875 8.57422 7.96875 8.99414Q7.96875 9.41406 8.2666 9.71191Q8.56445 10.0098 8.99414 10.0098ZM8.99414 13.3008Q9.41406 13.3008 9.71191 13.0029Q10.0098 12.7051 10.0098 12.2754Q10.0098 11.8555 9.71191 11.5576Q9.41406 11.2598 8.99414 11.2598Q8.56445 11.2598 8.2666 11.5576Q7.96875 11.8555 7.96875 12.2754Q7.96875 12.7051 8.2666 13.0029Q8.56445 13.3008 8.99414 13.3008Z" fill="#ffffff"/>
 </g>
</svg>
