<?xml version="1.0" encoding="UTF-8"?>
<!--Generator: Apple Native CoreSVG 175-->
<!DOCTYPE svg
PUBLIC "-//W3C//DTD SVG 1.1//EN"
       "http://www.w3.org/Graphics/SVG/1.1/DTD/svg11.dtd">
<svg version="1.1" xmlns="http://www.w3.org/2000/svg" xmlns:xlink="http://www.w3.org/1999/xlink" width="27.8806" height="17.7551">
 <g>
  <rect height="17.7551" opacity="0" width="27.8806" x="0" y="0"/>
  <path d="M0 8.86292Q0 9.85901 0.419922 10.5475Q0.839844 11.236 1.51855 11.5924Q2.19727 11.9489 2.98828 11.9489Q3.54263 11.9489 3.98788 11.7862Q4.43314 11.6235 5.03433 11.2164Q5.41214 10.9625 5.66658 11.0938Q5.92102 11.225 5.92102 11.5442L5.92102 15.5582Q5.92102 16.5677 6.52046 17.1524Q7.1199 17.7371 8.1488 17.7371L11.2555 17.7371Q11.5718 17.7371 11.7045 17.4805Q11.8372 17.2238 11.5833 16.8462Q11.1734 16.2422 11.0107 15.8018Q10.8481 15.3613 10.8481 14.8071Q10.8481 14.0161 11.2059 13.3325Q11.5637 12.6489 12.2522 12.2304Q12.9407 11.8118 13.9368 11.8118Q14.9399 11.8118 15.6284 12.2304Q16.3168 12.6489 16.6733 13.3325Q17.0297 14.0161 17.0297 14.8071Q17.0297 15.3613 16.8684 15.8018Q16.707 16.2422 16.2903 16.8462Q16.0434 17.2238 16.176 17.4805Q16.3086 17.7371 16.618 17.7371L19.7246 17.7371Q20.7578 17.7371 21.3551 17.1524Q21.9524 16.5677 21.9524 15.5582L21.9524 11.5442Q21.9524 11.225 22.2104 11.0938Q22.4684 10.9625 22.8433 11.2164Q23.4473 11.6235 23.8891 11.7862Q24.3309 11.9489 24.8895 11.9489Q25.6833 11.9489 26.362 11.5924Q27.0407 11.236 27.4606 10.5475Q27.8806 9.85901 27.8806 8.86292Q27.8806 7.85706 27.4606 7.16858Q27.0407 6.4801 26.362 6.12366Q25.6833 5.76721 24.8895 5.76721Q24.3309 5.76721 23.8891 5.92987Q23.4473 6.09253 22.8433 6.50665Q22.4684 6.75354 22.2104 6.62231Q21.9524 6.49109 21.9524 6.17889L21.9524 2.17896Q21.9524 1.17233 21.3551 0.586166Q20.7578 0 19.7246 0L16.618 0Q16.3086 0 16.176 0.258026Q16.0434 0.516052 16.2903 0.893707Q16.707 1.49765 16.8684 1.9381Q17.0297 2.37854 17.0297 2.93274Q17.0297 3.72375 16.6733 4.40605Q16.3168 5.08835 15.6284 5.50468Q14.9399 5.92102 13.9368 5.92102Q12.9407 5.92102 12.2522 5.50468Q11.5637 5.08835 11.2059 4.40605Q10.8481 3.72375 10.8481 2.93274Q10.8481 2.37854 11.0107 1.9381Q11.1734 1.49765 11.5833 0.893707Q11.8372 0.516052 11.7045 0.258026Q11.5718 0 11.2555 0L8.1488 0Q7.1199 0 6.52046 0.586166Q5.92102 1.17233 5.92102 2.17896L5.92102 6.17889Q5.92102 6.49109 5.66658 6.62231Q5.41214 6.75354 5.03433 6.50665Q4.43314 6.09253 3.98788 5.92987Q3.54263 5.76721 2.98828 5.76721Q2.19727 5.76721 1.51855 6.12366Q0.839844 6.4801 0.419922 7.16858Q0 7.85706 0 8.86292Z" fill="#ffffff"/>
 </g>
</svg>
