<?xml version="1.0" encoding="UTF-8"?>
<!--Generator: Apple Native CoreSVG 175.5-->
<!DOCTYPE svg
PUBLIC "-//W3C//DTD SVG 1.1//EN"
       "http://www.w3.org/Graphics/SVG/1.1/DTD/svg11.dtd">
<svg version="1.1" xmlns="http://www.w3.org/2000/svg" xmlns:xlink="http://www.w3.org/1999/xlink" width="19.9219" height="19.9316">
 <g>
  <rect height="19.9316" opacity="0" width="19.9219" x="0" y="0"/>
  <path d="M9.96094 19.9219Q12.002 19.9219 13.8037 19.1406Q15.6055 18.3594 16.9824 16.9824Q18.3594 15.6055 19.1406 13.8037Q19.9219 12.002 19.9219 9.96094Q19.9219 7.91992 19.1406 6.11816Q18.3594 4.31641 16.9824 2.93945Q15.6055 1.5625 13.7988 0.78125Q11.9922 0 9.95117 0Q7.91016 0 6.1084 0.78125Q4.30664 1.5625 2.93457 2.93945Q1.5625 4.31641 0.78125 6.11816Q0 7.91992 0 9.96094Q0 12.002 0.78125 13.8037Q1.5625 15.6055 2.93945 16.9824Q4.31641 18.3594 6.11816 19.1406Q7.91992 19.9219 9.96094 19.9219Z" fill="#007aff"/>
  <path d="M9.96094 14.6875Q8.67188 14.6875 7.68555 14.0723Q6.69922 13.457 6.14746 12.3682Q5.5957 11.2793 5.5957 9.86328Q5.5957 8.4375 6.14746 7.35352Q6.69922 6.26953 7.68555 5.6543Q8.67188 5.03906 9.96094 5.03906Q11.25 5.03906 12.2314 5.6543Q13.2129 6.26953 13.7695 7.35352Q14.3262 8.4375 14.3262 9.86328Q14.3262 11.123 13.8818 12.1191Q13.4375 13.1152 12.666 13.7402L13.2617 14.5508Q13.5059 14.873 13.5059 15.1074Q13.5059 15.3711 13.3398 15.5371Q13.1738 15.7031 12.9004 15.7031Q12.7148 15.7031 12.5684 15.6201Q12.4219 15.5371 12.2656 15.332L11.5723 14.3945Q10.8105 14.6875 9.96094 14.6875ZM9.96094 13.4082Q10.4004 13.4082 10.7617 13.291L10.2734 12.6172Q10.0781 12.3633 10.0781 12.1094Q10.0781 11.8652 10.2539 11.6992Q10.4297 11.5332 10.6836 11.5332Q11.0156 11.5332 11.2305 11.8164L11.8066 12.5879Q12.2363 12.1289 12.4707 11.4355Q12.7051 10.7422 12.7051 9.86328Q12.7051 8.78906 12.3682 7.99316Q12.0312 7.19727 11.4111 6.75781Q10.791 6.31836 9.96094 6.31836Q9.13086 6.31836 8.51074 6.75781Q7.89062 7.19727 7.55371 7.99316Q7.2168 8.78906 7.2168 9.86328Q7.2168 10.9375 7.55371 11.7334Q7.89062 12.5293 8.51074 12.9688Q9.13086 13.4082 9.96094 13.4082Z" fill="#ffffff"/>
 </g>
</svg>
