<?xml version="1.0" encoding="UTF-8"?>
<!--Generator: Apple Native CoreSVG 175-->
<!DOCTYPE svg
PUBLIC "-//W3C//DTD SVG 1.1//EN"
       "http://www.w3.org/Graphics/SVG/1.1/DTD/svg11.dtd">
<svg version="1.1" xmlns="http://www.w3.org/2000/svg" xmlns:xlink="http://www.w3.org/1999/xlink" width="19.1602" height="19.1504">
 <g>
  <rect height="19.1504" opacity="0" width="19.1602" x="0" y="0"/>
  <path d="M9.57031 19.1406Q11.5527 19.1406 13.2861 18.3984Q15.0195 17.6562 16.3379 16.333Q17.6562 15.0098 18.4082 13.2764Q19.1602 11.543 19.1602 9.57031Q19.1602 7.59766 18.4082 5.86426Q17.6562 4.13086 16.3379 2.80762Q15.0195 1.48438 13.2861 0.742188Q11.5527 0 9.57031 0Q7.59766 0 5.86426 0.742188Q4.13086 1.48438 2.81738 2.80762Q1.50391 4.13086 0.751953 5.86426Q0 7.59766 0 9.57031Q0 11.543 0.74707 13.2764Q1.49414 15.0098 2.8125 16.333Q4.13086 17.6562 5.86914 18.3984Q7.60742 19.1406 9.57031 19.1406Z" fill="#007aff"/>
  <path d="M9.41406 11.5332Q9.0332 11.5332 9.0332 11.1523Q9.0332 11.0645 9.0332 10.9814Q9.0332 10.8984 9.0332 10.8105Q9.0332 10.1953 9.30664 9.77051Q9.58008 9.3457 10.1953 8.92578Q10.9082 8.42773 11.2012 8.05176Q11.4941 7.67578 11.4941 7.1582Q11.4941 6.50391 10.9814 6.0791Q10.4688 5.6543 9.58984 5.6543Q9.05273 5.6543 8.63281 5.87402Q8.21289 6.09375 7.96387 6.4502Q7.71484 6.80664 7.66602 7.19727L7.63672 7.34375Q7.59766 7.4707 7.50488 7.54395Q7.41211 7.61719 7.26562 7.61719Q7.12891 7.61719 7.02637 7.52441Q6.92383 7.43164 6.92383 7.24609Q6.92383 7.14844 6.93359 7.06055Q6.94336 6.97266 6.95312 6.88477Q7.07031 6.12305 7.77344 5.55176Q8.47656 4.98047 9.62891 4.98047Q10.3906 4.98047 10.9912 5.25391Q11.5918 5.52734 11.9434 6.01074Q12.2949 6.49414 12.2949 7.11914Q12.2949 7.82227 11.9482 8.32031Q11.6016 8.81836 10.8398 9.33594Q10.2539 9.73633 10.0146 10.0635Q9.77539 10.3906 9.77539 10.8594Q9.77539 10.9277 9.77539 11.0059Q9.77539 11.084 9.77539 11.1621Q9.77539 11.3281 9.67773 11.4307Q9.58008 11.5332 9.41406 11.5332ZM9.39453 14.1699Q9.10156 14.1699 8.8916 13.9551Q8.68164 13.7402 8.68164 13.457Q8.68164 13.1738 8.8916 12.959Q9.10156 12.7441 9.39453 12.7441Q9.69727 12.7441 9.90723 12.9541Q10.1172 13.1641 10.1172 13.457Q10.1172 13.7402 9.90723 13.9551Q9.69727 14.1699 9.39453 14.1699Z" fill="#ffffff"/>
 </g>
</svg>
