<?xml version="1.0" encoding="UTF-8"?>
<!--Generator: Apple Native CoreSVG 175-->
<!DOCTYPE svg
PUBLIC "-//W3C//DTD SVG 1.1//EN"
       "http://www.w3.org/Graphics/SVG/1.1/DTD/svg11.dtd">
<svg version="1.1" xmlns="http://www.w3.org/2000/svg" xmlns:xlink="http://www.w3.org/1999/xlink" width="21.4941" height="17.1777">
 <g>
  <rect height="17.1777" opacity="0" width="21.4941" x="0" y="0"/>
  <path d="M2.62695 17.1191L18.9258 17.1191Q20.1758 17.1191 20.835 16.4502Q21.4941 15.7812 21.4941 14.4922L21.4941 4.43359Q21.4941 3.16406 20.8252 2.49023Q20.1562 1.81641 18.8672 1.81641L9.33594 1.81641Q8.70117 1.81641 8.33496 1.69434Q7.96875 1.57227 7.56836 1.19141L7.05078 0.722656Q6.72852 0.419922 6.46484 0.268555Q6.20117 0.117188 5.87402 0.0585938Q5.54688 0 5.03906 0L2.27539 0Q1.14258 0 0.571289 0.576172Q0 1.15234 0 2.31445L0 14.4922Q0 15.791 0.668945 16.4551Q1.33789 17.1191 2.62695 17.1191ZM2.65625 16.3965Q1.70898 16.3965 1.2207 15.9082Q0.732422 15.4199 0.732422 14.4629L0.732422 2.38281Q0.732422 1.5332 1.14258 1.11816Q1.55273 0.703125 2.38281 0.703125L4.89258 0.703125Q5.50781 0.703125 5.85449 0.830078Q6.20117 0.957031 6.62109 1.35742L7.14844 1.83594Q7.43164 2.10938 7.70996 2.26074Q7.98828 2.41211 8.33496 2.47559Q8.68164 2.53906 9.18945 2.53906L18.8379 2.53906Q19.7559 2.53906 20.2637 3.02734Q20.7715 3.51562 20.7715 4.47266L20.7715 14.4629Q20.7715 15.4199 20.2637 15.9082Q19.7559 16.3965 18.8379 16.3965Z" fill="#007aff"/>
  <path d="M10.4297 11.6602Q10.5762 11.6602 10.6689 11.5674Q10.7617 11.4746 10.7617 11.3281Q10.7617 11.25 10.7617 11.1768Q10.7617 11.1035 10.7617 11.0254Q10.7617 10.5957 10.9766 10.2979Q11.1914 10 11.7285 9.62891Q12.4414 9.15039 12.7588 8.69141Q13.0762 8.23242 13.0762 7.57812Q13.0762 7.01172 12.7588 6.56738Q12.4414 6.12305 11.8799 5.86914Q11.3184 5.61523 10.625 5.61523Q9.55078 5.61523 8.90625 6.14258Q8.26172 6.66992 8.1543 7.37305Q8.14453 7.46094 8.13965 7.53418Q8.13477 7.60742 8.13477 7.71484Q8.13477 7.87109 8.22754 7.95898Q8.32031 8.04688 8.44727 8.04688Q8.57422 8.04688 8.66699 7.9834Q8.75977 7.91992 8.7793 7.79297L8.81836 7.66602Q8.84766 7.29492 9.08203 6.97266Q9.31641 6.65039 9.70215 6.44043Q10.0879 6.23047 10.5859 6.23047Q11.3965 6.23047 11.8701 6.62598Q12.3438 7.02148 12.3438 7.62695Q12.3438 8.0957 12.0801 8.44727Q11.8164 8.79883 11.1523 9.24805Q10.5859 9.64844 10.332 10.0391Q10.0781 10.4297 10.0781 10.9863Q10.0781 11.0742 10.0781 11.1523Q10.0781 11.2305 10.0781 11.3086Q10.0781 11.6602 10.4297 11.6602ZM10.4102 14.0918Q10.6836 14.0918 10.874 13.8965Q11.0645 13.7012 11.0645 13.4375Q11.0645 13.1641 10.874 12.9736Q10.6836 12.7832 10.4102 12.7832Q10.1367 12.7832 9.94141 12.9736Q9.74609 13.1641 9.74609 13.4375Q9.74609 13.7012 9.94141 13.8965Q10.1367 14.0918 10.4102 14.0918Z" fill="#ffffff"/>
 </g>
</svg>
