<?xml version="1.0" encoding="UTF-8"?>
<!--Generator: Apple Native CoreSVG 175.5-->
<!DOCTYPE svg
PUBLIC "-//W3C//DTD SVG 1.1//EN"
       "http://www.w3.org/Graphics/SVG/1.1/DTD/svg11.dtd">
<svg version="1.1" xmlns="http://www.w3.org/2000/svg" xmlns:xlink="http://www.w3.org/1999/xlink" width="21.5234" height="21.4551">
 <g>
  <rect height="21.4551" opacity="0" width="21.5234" x="0" y="0"/>
  <path d="M6.00586 21.4551Q6.36719 21.4551 6.66992 21.2598Q6.97266 21.0645 7.41211 20.6738L10.7812 17.6758L17.0508 17.6758Q18.5059 17.6758 19.502 17.1533Q20.498 16.6309 21.0107 15.6348Q21.5234 14.6387 21.5234 13.2031L21.5234 5.72266Q21.5234 4.28711 21.0107 3.29102Q20.498 2.29492 19.502 1.77246Q18.5059 1.25 17.0508 1.25L4.47266 1.25Q3.01758 1.25 2.02148 1.77246Q1.02539 2.29492 0.512695 3.29102Q0 4.28711 0 5.72266L0 13.2031Q0 14.6387 0.512695 15.6348Q1.02539 16.6309 2.02148 17.1533Q3.01758 17.6758 4.47266 17.6758L4.94141 17.6758L4.94141 20.2148Q4.94141 20.7812 5.21973 21.1182Q5.49805 21.4551 6.00586 21.4551ZM6.40625 19.668L6.40625 16.8359Q6.40625 16.4355 6.24023 16.2695Q6.07422 16.1035 5.67383 16.1035L4.47266 16.1035Q2.98828 16.1035 2.28027 15.3662Q1.57227 14.6289 1.57227 13.1934L1.57227 5.72266Q1.57227 4.29688 2.28027 3.55957Q2.98828 2.82227 4.47266 2.82227L17.0508 2.82227Q18.5254 2.82227 19.2383 3.55957Q19.9512 4.29688 19.9512 5.72266L19.9512 13.1934Q19.9512 14.6289 19.2383 15.3662Q18.5254 16.1035 17.0508 16.1035L10.7227 16.1035Q10.3125 16.1035 10.0586 16.1914Q9.80469 16.2793 9.53125 16.5625Z" fill="#007aff"/>
  <path d="M10.5762 11.4844Q10.9375 11.4844 11.1475 11.2793Q11.3574 11.0742 11.3574 10.791Q11.3574 10.7617 11.3574 10.7275Q11.3574 10.6934 11.3574 10.6738Q11.3574 10.2637 11.6016 9.96582Q11.8457 9.66797 12.3633 9.32617Q13.0664 8.85742 13.5254 8.34961Q13.9844 7.8418 13.9844 6.96289Q13.9844 6.15234 13.5498 5.5957Q13.1152 5.03906 12.4121 4.75098Q11.709 4.46289 10.8789 4.46289Q9.61914 4.46289 8.82324 4.97559Q8.02734 5.48828 7.82227 6.16211Q7.7832 6.2793 7.76367 6.39648Q7.74414 6.51367 7.74414 6.64062Q7.74414 6.97266 7.95898 7.14355Q8.17383 7.31445 8.41797 7.31445Q8.66211 7.31445 8.83301 7.20703Q9.00391 7.09961 9.13086 6.92383L9.30664 6.68945Q9.48242 6.40625 9.70703 6.20605Q9.93164 6.00586 10.21 5.89844Q10.4883 5.79102 10.8105 5.79102Q11.4844 5.79102 11.8848 6.1377Q12.2852 6.48438 12.2852 7.04102Q12.2852 7.53906 11.9727 7.85645Q11.6602 8.17383 11.0156 8.62305Q10.4883 8.98438 10.1416 9.42383Q9.79492 9.86328 9.79492 10.5859Q9.79492 10.6152 9.79492 10.6494Q9.79492 10.6836 9.79492 10.7129Q9.79492 11.4844 10.5762 11.4844ZM10.5469 14.3945Q10.9766 14.3945 11.2891 14.1016Q11.6016 13.8086 11.6016 13.3789Q11.6016 12.9492 11.2891 12.6562Q10.9766 12.3633 10.5469 12.3633Q10.1172 12.3633 9.80957 12.6611Q9.50195 12.959 9.50195 13.3789Q9.50195 13.7988 9.81445 14.0967Q10.127 14.3945 10.5469 14.3945Z" fill="#ffffff"/>
 </g>
</svg>
