<?xml version="1.0" encoding="UTF-8"?>
<!--Generator: Apple Native CoreSVG 175.5-->
<!DOCTYPE svg
PUBLIC "-//W3C//DTD SVG 1.1//EN"
       "http://www.w3.org/Graphics/SVG/1.1/DTD/svg11.dtd">
<svg version="1.1" xmlns="http://www.w3.org/2000/svg" xmlns:xlink="http://www.w3.org/1999/xlink" width="20.1367" height="25.2441">
 <g>
  <rect height="25.2441" opacity="0" width="20.1367" x="0" y="0"/>
  <path d="M10.0684 18.0371Q12.3535 18.0371 14.209 17.5586Q16.0645 17.0801 17.3877 16.2012Q18.7109 15.3223 19.4238 14.1162Q20.1367 12.9102 20.1367 11.4453Q20.1367 9.99023 19.4238 8.78418Q18.7109 7.57812 17.3828 6.69922Q16.0547 5.82031 14.1992 5.3418Q12.3438 4.86328 10.0586 4.86328Q7.77344 4.86328 5.92285 5.3418Q4.07227 5.82031 2.74902 6.69922Q1.42578 7.57812 0.712891 8.78418Q0 9.99023 0 11.4453Q0 12.9102 0.712891 14.1162Q1.42578 15.3223 2.74902 16.2012Q4.07227 17.0801 5.92773 17.5586Q7.7832 18.0371 10.0684 18.0371ZM10.0684 16.3574Q7.58789 16.3574 5.71777 15.7373Q3.84766 15.1172 2.80762 14.0137Q1.76758 12.9102 1.76758 11.4453Q1.76758 9.99023 2.80762 8.88184Q3.84766 7.77344 5.71289 7.1582Q7.57812 6.54297 10.0586 6.54297Q12.5391 6.54297 14.4141 7.1582Q16.2891 7.77344 17.3291 8.88184Q18.3691 9.99023 18.3691 11.4453Q18.3691 12.9102 17.3291 14.0137Q16.2891 15.1172 14.4189 15.7373Q12.5488 16.3574 10.0684 16.3574ZM10.0684 22.1777Q11.8457 22.1777 12.8467 21.3867Q13.8477 20.5957 13.8477 19.1895L13.8477 18.7988Q12.9785 18.9844 12.0312 19.0771Q11.084 19.1699 10.0684 19.1699Q9.05273 19.1699 8.11035 19.0771Q7.16797 18.9844 6.29883 18.7988L6.29883 19.1895Q6.29883 20.5957 7.29492 21.3867Q8.29102 22.1777 10.0684 22.1777Z" fill="#007aff"/>
  <path d="M8.4375 14.3652Q8.7207 14.3652 8.88184 14.1846Q9.04297 14.0039 9.04297 13.7109L9.04297 12.2559L10.0391 12.2559L11.1133 14.0039Q11.2402 14.209 11.3672 14.292Q11.4941 14.375 11.6797 14.375Q11.9043 14.375 12.0703 14.2285Q12.2363 14.082 12.2363 13.8477Q12.2363 13.7305 12.2021 13.6328Q12.168 13.5352 12.0996 13.4375L11.2207 12.0605Q11.7578 11.8457 12.0605 11.3867Q12.3633 10.9277 12.3633 10.3516Q12.3633 9.47266 11.7773 8.9502Q11.1914 8.42773 10.2246 8.42773L8.4375 8.42773Q7.86133 8.42773 7.86133 9.0918L7.86133 13.7109Q7.86133 14.3652 8.4375 14.3652ZM9.04297 11.3281L9.04297 9.38477L10.0977 9.38477Q10.6055 9.38477 10.8936 9.64844Q11.1816 9.91211 11.1816 10.3711Q11.1816 10.8301 10.8936 11.0791Q10.6055 11.3281 10.0781 11.3281Z" fill="#ffffff"/>
  <path d="M7.59766 1.19141L9.55078 3.80859Q9.74609 4.08203 10.0635 4.08203Q10.3809 4.08203 10.5762 3.80859L12.5293 1.19141Q12.8223 0.800781 12.6807 0.400391Q12.5391 0 12.0215 0L8.10547 0Q7.60742 0 7.45117 0.395508Q7.29492 0.791016 7.59766 1.19141Z" fill="#ffffff"/>
 </g>
</svg>
