<?xml version="1.0" encoding="UTF-8"?>
<!--Generator: Apple Native CoreSVG 175.5-->
<!DOCTYPE svg
PUBLIC "-//W3C//DTD SVG 1.1//EN"
       "http://www.w3.org/Graphics/SVG/1.1/DTD/svg11.dtd">
<svg version="1.1" xmlns="http://www.w3.org/2000/svg" xmlns:xlink="http://www.w3.org/1999/xlink" width="24.7949" height="29.8145">
 <g>
  <rect height="29.8145" opacity="0" width="24.7949" x="0" y="0"/>
  <path d="M12.3926 27.2949Q14.4531 27.2949 16.3086 26.6699Q18.1641 26.0449 19.7119 24.9072Q21.2598 23.7695 22.3975 22.2217Q23.5352 20.6738 24.165 18.8135Q24.7949 16.9531 24.7949 14.9023Q24.7949 12.8613 24.1699 11.0107Q23.5449 9.16016 22.417 7.6123Q21.2891 6.06445 19.7461 4.92188Q18.2031 3.7793 16.3672 3.16406Q16.4258 3.58398 16.3184 3.97949Q16.2109 4.375 15.957 4.6875Q17.5488 5.23438 18.8721 6.23047Q20.1953 7.22656 21.1719 8.57422Q22.1484 9.92188 22.6855 11.5283Q23.2227 13.1348 23.2227 14.9023Q23.2227 17.1387 22.3779 19.1016Q21.5332 21.0645 20.0439 22.5537Q18.5547 24.043 16.5967 24.8828Q14.6387 25.7227 12.3926 25.7227Q10.1562 25.7227 8.19336 24.8828Q6.23047 24.043 4.74121 22.5537Q3.25195 21.0645 2.41211 19.1016Q1.57227 17.1387 1.57227 14.9023Q1.57227 13.125 2.10938 11.5186Q2.64648 9.91211 3.62305 8.56934Q4.59961 7.22656 5.93262 6.23047Q7.26562 5.23438 8.84766 4.6875Q8.59375 4.375 8.48633 3.97461Q8.37891 3.57422 8.4375 3.1543Q6.60156 3.76953 5.05859 4.90723Q3.51562 6.04492 2.38281 7.59277Q1.25 9.14062 0.625 10.9961Q0 12.8516 0 14.9023Q0 16.9531 0.625 18.8135Q1.25 20.6738 2.3877 22.2217Q3.52539 23.7695 5.07812 24.9072Q6.63086 26.0449 8.48633 26.6699Q10.3418 27.2949 12.3926 27.2949Z" fill="#007aff"/>
  <path d="M12.3926 23.4766Q14.1699 23.4766 15.7275 22.8125Q17.2852 22.1484 18.4619 20.9668Q19.6387 19.7852 20.3076 18.2324Q20.9766 16.6797 20.9766 14.9023Q20.9766 13.125 20.3076 11.5674Q19.6387 10.0098 18.4619 8.83301Q17.2852 7.65625 15.7275 6.9873Q14.1699 6.31836 12.3926 6.31836Q10.6152 6.31836 9.0625 6.9873Q7.50977 7.65625 6.32812 8.83301Q5.14648 10.0098 4.48242 11.5674Q3.81836 13.125 3.81836 14.9023Q3.81836 16.6797 4.48242 18.2324Q5.14648 19.7852 6.32812 20.9668Q7.50977 22.1484 9.0625 22.8125Q10.6152 23.4766 12.3926 23.4766ZM9.94141 2.89062Q9.63867 3.29102 9.79004 3.68652Q9.94141 4.08203 10.4492 4.08203L14.3555 4.08203Q14.8828 4.08203 15.0244 3.68164Q15.166 3.28125 14.873 2.89062L12.9199 0.273438Q12.7148 0 12.4023 0Q12.0898 0 11.8848 0.273438ZM9.9385 19.2915Q9.5674 19.2915 9.37721 19.0549Q9.18702 18.8183 9.18702 18.4287L9.18702 11.3221Q9.18702 10.9325 9.37721 10.6913Q9.5674 10.4501 9.92922 10.4501L12.6846 10.4501Q14.1412 10.4501 14.9994 11.2154Q15.8575 11.9808 15.8575 13.2704Q15.8575 14.161 15.3565 14.8568Q14.8556 15.5527 14.0113 15.831L15.44 18.0761Q15.607 18.3545 15.607 18.6328Q15.607 18.9204 15.4168 19.1059Q15.2267 19.2915 14.9205 19.2915Q14.6607 19.2915 14.4937 19.1755Q14.3267 19.0595 14.1505 18.7812L12.4991 16.0536L10.7085 16.0536L10.7085 18.4287Q10.7085 18.8276 10.5137 19.0595Q10.3189 19.2915 9.9385 19.2915ZM10.7085 14.9311L12.462 14.9311Q13.3248 14.9311 13.8304 14.5089Q14.336 14.0868 14.336 13.3075Q14.336 12.5004 13.8258 12.0643Q13.3155 11.6283 12.4991 11.6283L10.7085 11.6283Z" fill="#ffffff"/>
 </g>
</svg>
