<?xml version="1.0" encoding="UTF-8"?>
<!--Generator: Apple Native CoreSVG 175-->
<!DOCTYPE svg
PUBLIC "-//W3C//DTD SVG 1.1//EN"
       "http://www.w3.org/Graphics/SVG/1.1/DTD/svg11.dtd">
<svg version="1.1" xmlns="http://www.w3.org/2000/svg" xmlns:xlink="http://www.w3.org/1999/xlink" width="25.6783" height="16.6754">
 <g>
  <rect height="16.6754" opacity="0" width="25.6783" x="0" y="0"/>
  <path d="M1.41876 7.86057L11.2144 7.86057Q11.9098 7.86057 12.2715 7.51717Q12.6332 7.17377 12.6332 6.43509L12.6332 1.45355Q12.6332 0.707855 12.2715 0.369339Q11.9098 0.0308228 11.2144 0.0308228L1.41876 0.0308228Q0.723419 0.0308228 0.36171 0.369339Q0 0.707855 0 1.45355L0 6.43509Q0 7.17377 0.36171 7.51717Q0.723419 7.86057 1.41876 7.86057ZM3.88046 16.6754L12.4481 16.6754Q13.1461 16.6754 13.5078 16.337Q13.8696 15.9985 13.8696 15.2527L13.8696 11.5211Q13.8696 10.7727 13.5078 10.4342Q13.1461 10.0957 12.4481 10.0957L3.88046 10.0957Q3.18512 10.0957 2.82555 10.4342Q2.46597 10.7727 2.46597 11.5211L2.46597 15.2527Q2.46597 15.9985 2.82555 16.337Q3.18512 16.6754 3.88046 16.6754ZM17.0645 15.6422L24.2567 15.6422Q24.9519 15.6422 25.3151 15.2988Q25.6783 14.9554 25.6783 14.2168L25.6783 2.63199Q25.6783 1.89331 25.3151 1.54999Q24.9519 1.20667 24.2567 1.20667L17.0645 1.20667Q16.3734 1.20667 16.0117 1.54999Q15.65 1.89331 15.65 2.63199L15.65 14.2168Q15.65 14.9554 16.0117 15.2988Q16.3734 15.6422 17.0645 15.6422Z" fill="#ffffff"/>
 </g>
</svg>
