<?xml version="1.0" encoding="UTF-8"?>
<!--Generator: Apple Native CoreSVG 175-->
<!DOCTYPE svg
PUBLIC "-//W3C//DTD SVG 1.1//EN"
       "http://www.w3.org/Graphics/SVG/1.1/DTD/svg11.dtd">
<svg version="1.1" xmlns="http://www.w3.org/2000/svg" xmlns:xlink="http://www.w3.org/1999/xlink" width="17.2852" height="17.3145">
 <g>
  <rect height="17.3145" opacity="0" width="17.2852" x="0" y="0"/>
  <path d="M2.62695 17.3145L14.6484 17.3145Q15.957 17.3145 16.6211 16.6455Q17.2852 15.9766 17.2852 14.6875L17.2852 2.65625Q17.2852 1.37695 16.6211 0.703125Q15.957 0.0292969 14.6484 0.0292969L2.62695 0.0292969Q1.33789 0.0292969 0.668945 0.693359Q0 1.35742 0 2.65625L0 14.6875Q0 15.9863 0.668945 16.6504Q1.33789 17.3145 2.62695 17.3145Z" fill="#007aff"/>
  <path d="M6.20117 13.1348Q5.60547 13.1348 5.30273 12.832Q5 12.5293 5 11.9434L5 7.14844Q5 6.57227 5.30273 6.26465Q5.60547 5.95703 6.20117 5.95703L13.1836 5.95703Q13.7695 5.95703 14.0771 6.26465Q14.3848 6.57227 14.3848 7.14844L14.3848 11.9434Q14.3848 12.5293 14.0771 12.832Q13.7695 13.1348 13.1836 13.1348ZM4.60938 7.12891L4.60938 11.2109L4.11133 11.2109Q3.52539 11.2109 3.22266 10.9033Q2.91992 10.5957 2.91992 10.0195L2.91992 5.23438Q2.91992 4.64844 3.22266 4.3457Q3.52539 4.04297 4.11133 4.04297L11.1035 4.04297Q11.6992 4.04297 11.9971 4.35059Q12.2949 4.6582 12.2949 5.23438L12.2949 5.57617L6.15234 5.56641Q5.39062 5.56641 5 5.9668Q4.60938 6.36719 4.60938 7.12891Z" fill="#ffffff"/>
 </g>
</svg>
