<?xml version="1.0" encoding="UTF-8"?>
<!--Generator: Apple Native CoreSVG 175-->
<!DOCTYPE svg
PUBLIC "-//W3C//DTD SVG 1.1//EN"
       "http://www.w3.org/Graphics/SVG/1.1/DTD/svg11.dtd">
<svg version="1.1" xmlns="http://www.w3.org/2000/svg" xmlns:xlink="http://www.w3.org/1999/xlink" width="22.6617" height="17.2949">
 <g>
  <rect height="17.2949" opacity="0" width="22.6617" x="0" y="0"/>
  <path d="M0 9.01443L0 8.293L10.9715 8.293L10.9715 0.0125122L11.693 0.0125122L11.693 8.293L22.6617 8.293L22.6617 9.01443L11.693 9.01443L11.693 17.2949L10.9715 17.2949L10.9715 9.01443ZM2.63046 17.2949L20.0243 17.2949Q21.3281 17.2949 21.9949 16.6211Q22.6617 15.9473 22.6617 14.6754L22.6617 2.63626Q22.6617 1.35742 21.9949 0.684967Q21.3281 0.0125122 20.0243 0.0125122L2.63046 0.0125122Q1.33636 0.0125122 0.668182 0.677948Q0 1.34338 0 2.63626L0 14.6754Q0 15.9641 0.668182 16.6295Q1.33636 17.2949 2.63046 17.2949Z" fill="#ffffff"/>
 </g>
</svg>
