<?xml version="1.0" encoding="UTF-8"?>
<!--Generator: Apple Native CoreSVG 175.5-->
<!DOCTYPE svg
PUBLIC "-//W3C//DTD SVG 1.1//EN"
       "http://www.w3.org/Graphics/SVG/1.1/DTD/svg11.dtd">
<svg version="1.1" xmlns="http://www.w3.org/2000/svg" xmlns:xlink="http://www.w3.org/1999/xlink" width="27.5" height="17.8027">
 <g>
  <rect height="17.8027" opacity="0" width="27.5" x="0" y="0"/>
  <path d="M2.24609 8.49609L11.2305 8.49609Q12.3535 8.49609 12.915 7.94434Q13.4766 7.39258 13.4766 6.26953L13.4766 2.2168Q13.4766 1.10352 12.915 0.551758Q12.3535 0 11.2305 0L2.24609 0Q1.12305 0 0.561523 0.551758Q0 1.10352 0 2.2168L0 6.26953Q0 7.39258 0.561523 7.94434Q1.12305 8.49609 2.24609 8.49609ZM2.36328 7.02148Q1.93359 7.02148 1.7041 6.79199Q1.47461 6.5625 1.47461 6.11328L1.47461 2.38281Q1.47461 1.92383 1.7041 1.69922Q1.93359 1.47461 2.36328 1.47461L11.1133 1.47461Q11.543 1.47461 11.7725 1.69922Q12.002 1.92383 12.002 2.38281L12.002 6.11328Q12.002 6.5625 11.7725 6.79199Q11.543 7.02148 11.1133 7.02148ZM4.73633 17.7539L12.4414 17.7539Q13.5645 17.7539 14.126 17.2021Q14.6875 16.6504 14.6875 15.5273L14.6875 12.7734Q14.6875 11.6504 14.126 11.1035Q13.5645 10.5566 12.4414 10.5566L4.73633 10.5566Q3.62305 10.5566 3.05664 11.1035Q2.49023 11.6504 2.49023 12.7734L2.49023 15.5273Q2.49023 16.6504 3.05664 17.2021Q3.62305 17.7539 4.73633 17.7539ZM4.85352 16.2793Q4.42383 16.2793 4.19434 16.0498Q3.96484 15.8203 3.96484 15.3711L3.96484 12.9297Q3.96484 12.4707 4.19434 12.251Q4.42383 12.0312 4.85352 12.0312L12.3145 12.0312Q12.7539 12.0312 12.9834 12.251Q13.2129 12.4707 13.2129 12.9297L13.2129 15.3711Q13.2129 15.8203 12.9834 16.0498Q12.7539 16.2793 12.3145 16.2793ZM18.877 16.6113L25.2539 16.6113Q26.377 16.6113 26.9385 16.0596Q27.5 15.5078 27.5 14.3848L27.5 3.53516Q27.5 2.41211 26.9385 1.86523Q26.377 1.31836 25.2539 1.31836L18.877 1.31836Q17.7539 1.31836 17.1924 1.86523Q16.6309 2.41211 16.6309 3.53516L16.6309 14.3848Q16.6309 15.5078 17.1924 16.0596Q17.7539 16.6113 18.877 16.6113ZM18.9844 15.1367Q18.5547 15.1367 18.3301 14.9121Q18.1055 14.6875 18.1055 14.2285L18.1055 3.70117Q18.1055 3.24219 18.3301 3.01758Q18.5547 2.79297 18.9844 2.79297L25.127 2.79297Q25.5664 2.79297 25.7959 3.01758Q26.0254 3.24219 26.0254 3.70117L26.0254 14.2285Q26.0254 14.6875 25.7959 14.9121Q25.5664 15.1367 25.127 15.1367Z" fill="#ffffff"/>
 </g>
</svg>
