<?xml version="1.0" encoding="UTF-8"?>
<!--Generator: Apple Native CoreSVG 175-->
<!DOCTYPE svg
PUBLIC "-//W3C//DTD SVG 1.1//EN"
       "http://www.w3.org/Graphics/SVG/1.1/DTD/svg11.dtd">
<svg version="1.1" xmlns="http://www.w3.org/2000/svg" xmlns:xlink="http://www.w3.org/1999/xlink" width="19.1602" height="19.1504">
 <g>
  <rect height="19.1504" opacity="0" width="19.1602" x="0" y="0"/>
  <path d="M9.57031 19.1406Q11.5527 19.1406 13.2861 18.3984Q15.0195 17.6562 16.3379 16.333Q17.6562 15.0098 18.4082 13.2764Q19.1602 11.543 19.1602 9.57031Q19.1602 7.59766 18.4082 5.86426Q17.6562 4.13086 16.3379 2.80762Q15.0195 1.48438 13.2861 0.742188Q11.5527 0 9.57031 0Q7.59766 0 5.86426 0.742188Q4.13086 1.48438 2.81738 2.80762Q1.50391 4.13086 0.751953 5.86426Q0 7.59766 0 9.57031Q0 11.543 0.74707 13.2764Q1.49414 15.0098 2.8125 16.333Q4.13086 17.6562 5.86914 18.3984Q7.60742 19.1406 9.57031 19.1406Z" fill="#007aff"/>
  <path d="M14.6191 14.9414L4.30664 4.60938Q4.21875 4.52148 4.21387 4.39941Q4.20898 4.27734 4.30664 4.17969Q4.39453 4.0918 4.5166 4.0918Q4.63867 4.0918 4.72656 4.17969L15.0391 14.5117Q15.1367 14.5996 15.1367 14.7217Q15.1367 14.8438 15.0391 14.9414Q14.9512 15.0391 14.8291 15.0342Q14.707 15.0293 14.6191 14.9414ZM7.13867 14.0918Q6.54297 14.0918 6.24023 13.7891Q5.9375 13.4863 5.9375 12.9004L5.9375 8.10547Q5.9375 7.54883 6.23047 7.25586L13.0762 14.0918ZM14.9414 13.7109L8.16406 6.92383L14.1211 6.92383Q14.707 6.92383 15.0146 7.22656Q15.3223 7.5293 15.3223 8.10547L15.3223 12.8125Q15.3223 13.125 15.2246 13.3496Q15.127 13.5742 14.9414 13.7109ZM3.85742 10.9766L3.85742 6.19141Q3.85742 5.52734 4.23828 5.24414L5.9375 6.94336Q5.54688 7.32422 5.54688 8.08594L5.54688 12.168L5.04883 12.168Q4.46289 12.168 4.16016 11.8604Q3.85742 11.5527 3.85742 10.9766ZM7.76367 6.52344L6.24023 5L12.041 5Q12.6367 5 12.9346 5.30762Q13.2324 5.61523 13.2324 6.19141L13.2324 6.5332Z" fill="#ffffff"/>
 </g>
</svg>
