<?xml version="1.0" encoding="UTF-8"?>
<!--Generator: Apple Native CoreSVG 175.5-->
<!DOCTYPE svg
PUBLIC "-//W3C//DTD SVG 1.1//EN"
       "http://www.w3.org/Graphics/SVG/1.1/DTD/svg11.dtd">
<svg version="1.1" xmlns="http://www.w3.org/2000/svg" xmlns:xlink="http://www.w3.org/1999/xlink" width="15.1953" height="21.4941">
 <g>
  <rect height="21.4941" opacity="0" width="15.1953" x="0" y="0"/>
  <path d="M0.976562 9.81445L2.45117 9.81445L2.45117 2.69531Q2.45117 2.09961 2.7832 1.7627Q3.11523 1.42578 3.76953 1.42578L11.416 1.42578Q12.0703 1.42578 12.4072 1.7627Q12.7441 2.09961 12.7441 2.69531L12.7441 3.45703L14.2188 3.45703L14.2188 2.49023Q14.2188 1.39648 13.5107 0.698242Q12.8027 0 11.6113 0L3.57422 0Q2.38281 0 1.6748 0.698242Q0.966797 1.39648 0.966797 2.49023ZM3.58398 21.0742L11.6211 21.0742Q12.8125 21.0742 13.5205 20.376Q14.2285 19.6777 14.2285 18.5742L14.2285 11.25L12.7539 11.25L12.7539 18.3691Q12.7539 18.9648 12.417 19.3066Q12.0801 19.6484 11.4258 19.6484L3.7793 19.6484Q3.125 19.6484 2.78809 19.3066Q2.45117 18.9648 2.45117 18.3691L2.45117 17.6074L0.976562 17.6074L0.976562 18.5742Q0.976562 19.6777 1.68457 20.376Q2.39258 21.0742 3.58398 21.0742Z" fill="#007aff"/>
  <path d="M10.3613 4.6582Q10.0684 4.6582 9.90723 4.85352Q9.74609 5.04883 9.74609 5.2832Q9.74609 5.51758 9.91211 5.71777Q10.0781 5.91797 10.3906 5.91797L11.9141 5.91797L13.0762 5.84961L11.9531 6.9043L10.4297 8.41797Q10.3125 8.53516 10.2637 8.65723Q10.2148 8.7793 10.2148 8.89648Q10.2148 9.18945 10.4443 9.41406Q10.6738 9.63867 10.9668 9.63867Q11.2305 9.63867 11.4355 9.43359L12.9492 7.91016L13.9941 6.78711L13.9355 7.93945L13.9355 9.50195Q13.9355 9.82422 14.1357 9.98535Q14.3359 10.1465 14.5703 10.1465Q14.8047 10.1465 15 9.99512Q15.1953 9.84375 15.1953 9.53125L15.1953 5.46875Q15.1953 5.07812 14.9854 4.86816Q14.7754 4.6582 14.3848 4.6582ZM0.810547 16.416L4.83398 16.416Q5.13672 16.416 5.29297 16.2158Q5.44922 16.0156 5.44922 15.7812Q5.44922 15.5371 5.28809 15.3418Q5.12695 15.1465 4.80469 15.1465L3.28125 15.1465L2.11914 15.2148L3.24219 14.1602L4.76562 12.6465Q4.87305 12.5293 4.92676 12.4072Q4.98047 12.2852 4.98047 12.168Q4.98047 11.875 4.75098 11.6553Q4.52148 11.4355 4.22852 11.4355Q3.96484 11.4355 3.75977 11.6309L2.24609 13.1641L1.20117 14.2773L1.25977 13.125L1.25977 11.5625Q1.25977 11.2402 1.05957 11.0791Q0.859375 10.918 0.625 10.918Q0.390625 10.918 0.195312 11.0742Q0 11.2305 0 11.5332L0 15.5957Q0 15.9961 0.209961 16.2061Q0.419922 16.416 0.810547 16.416Z" fill="#ffffff"/>
 </g>
</svg>
