<?xml version="1.0" encoding="UTF-8"?>
<!--Generator: Apple Native CoreSVG 175.5-->
<!DOCTYPE svg
PUBLIC "-//W3C//DTD SVG 1.1//EN"
       "http://www.w3.org/Graphics/SVG/1.1/DTD/svg11.dtd">
<svg version="1.1" xmlns="http://www.w3.org/2000/svg" xmlns:xlink="http://www.w3.org/1999/xlink" width="24.8927" height="21.2031">
 <g>
  <rect height="21.2031" opacity="0" width="24.8927" x="0" y="0"/>
  <path d="M1.67979 14.9619Q1.95323 16.4463 2.83214 17.0566Q3.71104 17.667 5.22472 17.4033L6.43565 17.1982L6.43565 15.6064L4.98058 15.8506Q4.25792 15.9775 3.80382 15.665Q3.34972 15.3525 3.213 14.6104L1.64073 5.7041Q1.50401 4.95215 1.82628 4.49805Q2.14854 4.04395 2.8712 3.91699L15.8497 1.63184Q16.5626 1.51465 17.0216 1.82227Q17.4806 2.12988 17.6173 2.88184L18.1251 5.72363L19.7169 5.72363L19.1407 2.53027Q18.8771 1.0459 17.9933 0.430664Q17.1095-0.18457 15.6056 0.0791016L2.56847 2.37402Q1.06456 2.64746 0.43956 3.52637Q-0.18544 4.40527 0.0782323 5.88965Z" fill="#007aff"/>
  <path d="M8.4962 20.4893L21.836 20.4893Q23.3595 20.4893 24.1261 19.7324Q24.8927 18.9756 24.8927 17.4619L24.8927 8.25293Q24.8927 6.74902 24.1261 5.9873Q23.3595 5.22559 21.836 5.22559L8.4962 5.22559Q6.95323 5.22559 6.19151 5.98242Q5.42979 6.73926 5.42979 8.25293L5.42979 17.4619Q5.42979 18.9756 6.19151 19.7324Q6.95323 20.4893 8.4962 20.4893ZM8.51573 18.917Q7.78331 18.917 7.39269 18.5312Q7.00206 18.1455 7.00206 17.3838L7.00206 8.34082Q7.00206 7.5791 7.39269 7.18848Q7.78331 6.79785 8.51573 6.79785L21.8067 6.79785Q22.5294 6.79785 22.9249 7.18848Q23.3204 7.5791 23.3204 8.34082L23.3204 17.3838Q23.3204 18.1455 22.9249 18.5312Q22.5294 18.917 21.8067 18.917Z" fill="#ffffff"/>
 </g>
</svg>
