<?xml version="1.0" encoding="UTF-8"?>
<!--Generator: Apple Native CoreSVG 175-->
<!DOCTYPE svg
PUBLIC "-//W3C//DTD SVG 1.1//EN"
       "http://www.w3.org/Graphics/SVG/1.1/DTD/svg11.dtd">
<svg version="1.1" xmlns="http://www.w3.org/2000/svg" xmlns:xlink="http://www.w3.org/1999/xlink" width="22.6338" height="20.1074">
 <g>
  <rect height="20.1074" opacity="0" width="22.6338" x="0" y="0"/>
  <path d="M2.60742 14.8438L8.0957 14.8438Q7.83203 14.5215 7.61719 14.1699L2.63672 14.1699Q0.683594 14.1699 0.683594 12.207L0.683594 2.64648Q0.683594 0.693359 2.63672 0.693359L15.0098 0.693359Q15.9473 0.693359 16.46 1.18652Q16.9727 1.67969 16.9727 2.64648L16.9727 6.52344Q17.1387 6.5332 17.3145 6.57715Q17.4902 6.62109 17.6465 6.70898L17.6465 2.60742Q17.6465 1.33789 16.9873 0.668945Q16.3281 0 15.0391 0L2.60742 0Q1.32812 0 0.664062 0.664062Q0 1.32812 0 2.60742L0 12.2461Q0 13.5254 0.664062 14.1846Q1.32812 14.8438 2.60742 14.8438Z" fill="#007aff"/>
  <path d="M18.5059 19.5996Q20.4102 18.9062 21.4404 17.7344Q22.4707 16.5625 22.6123 14.8926Q22.7539 13.2227 21.9629 11.0547L21.4355 9.58984Q21.0059 8.41797 20.2637 7.91992Q19.5215 7.42188 18.8574 7.66602Q18.5547 7.77344 18.6621 8.06641L18.9941 8.97461Q19.0527 9.14062 19.0088 9.2627Q18.9648 9.38477 18.8574 9.42383Q18.7402 9.47266 18.623 9.40918Q18.5059 9.3457 18.4473 9.16992L18.2129 8.53516Q17.9492 7.82227 17.3926 7.54395Q16.8359 7.26562 16.2109 7.48047Q15.6738 7.67578 15.8398 8.14453L16.2793 9.33594Q16.3379 9.51172 16.2939 9.62891Q16.25 9.74609 16.1328 9.79492Q16.0254 9.83398 15.9131 9.77051Q15.8008 9.70703 15.7324 9.54102L15.332 8.42773Q15.0391 7.62695 14.4873 7.39258Q13.9355 7.1582 13.3398 7.38281Q12.8027 7.56836 12.9785 8.03711L13.7793 10.2539Q13.8379 10.4199 13.7939 10.542Q13.75 10.6641 13.6426 10.7031Q13.5254 10.7422 13.4082 10.6787Q13.291 10.6152 13.2324 10.4492L10.8301 3.86719Q10.6445 3.35938 10.2637 3.16895Q9.88281 2.97852 9.45312 3.13477Q9.0332 3.29102 8.84766 3.68164Q8.66211 4.07227 8.84766 4.58984L12.1484 13.6719Q12.207 13.8184 12.1436 13.9355Q12.0801 14.0527 11.9629 14.0918Q11.875 14.1211 11.7676 14.0967Q11.6602 14.0723 11.543 13.9453L9.11133 11.4062Q8.81836 11.1133 8.53516 11.0449Q8.25195 10.9766 7.99805 11.0742Q7.50977 11.25 7.36816 11.6113Q7.22656 11.9727 7.37305 12.3828Q7.42188 12.5098 7.49512 12.627Q7.56836 12.7441 7.65625 12.8613L10.8594 16.9434Q12.4707 19.0039 14.4775 19.668Q16.4844 20.332 18.5059 19.5996Z" fill="#ffffff"/>
 </g>
</svg>
