<?xml version="1.0" encoding="UTF-8"?>
<!--Generator: Apple Native CoreSVG 175.5-->
<!DOCTYPE svg
PUBLIC "-//W3C//DTD SVG 1.1//EN"
       "http://www.w3.org/Graphics/SVG/1.1/DTD/svg11.dtd">
<svg version="1.1" xmlns="http://www.w3.org/2000/svg" xmlns:xlink="http://www.w3.org/1999/xlink" width="19.9219" height="19.9316">
 <g>
  <rect height="19.9316" opacity="0" width="19.9219" x="0" y="0"/>
  <path d="M9.96094 19.9219Q12.002 19.9219 13.8037 19.1406Q15.6055 18.3594 16.9824 16.9824Q18.3594 15.6055 19.1406 13.8037Q19.9219 12.002 19.9219 9.96094Q19.9219 7.91992 19.1406 6.11816Q18.3594 4.31641 16.9824 2.93945Q15.6055 1.5625 13.7988 0.78125Q11.9922 0 9.95117 0Q7.91016 0 6.1084 0.78125Q4.30664 1.5625 2.93457 2.93945Q1.5625 4.31641 0.78125 6.11816Q0 7.91992 0 9.96094Q0 12.002 0.78125 13.8037Q1.5625 15.6055 2.93945 16.9824Q4.31641 18.3594 6.11816 19.1406Q7.91992 19.9219 9.96094 19.9219ZM9.96094 18.2617Q8.23242 18.2617 6.72852 17.6172Q5.22461 16.9727 4.08691 15.835Q2.94922 14.6973 2.30957 13.1934Q1.66992 11.6895 1.66992 9.96094Q1.66992 8.23242 2.30957 6.72852Q2.94922 5.22461 4.08203 4.08203Q5.21484 2.93945 6.71875 2.2998Q8.22266 1.66016 9.95117 1.66016Q11.6797 1.66016 13.1885 2.2998Q14.6973 2.93945 15.835 4.08203Q16.9727 5.22461 17.6172 6.72852Q18.2617 8.23242 18.2617 9.96094Q18.2617 11.6895 17.6221 13.1934Q16.9824 14.6973 15.8398 15.835Q14.6973 16.9727 13.1934 17.6172Q11.6895 18.2617 9.96094 18.2617Z" fill="#007aff"/>
  <path d="M3.66211 9.94141Q3.66211 10.1855 3.82812 10.3564Q3.99414 10.5273 4.23828 10.5273Q4.48242 10.5273 4.65332 10.3564Q4.82422 10.1855 4.82422 9.94141L4.82422 9.45312Q4.82422 8.76953 5.25879 8.34961Q5.69336 7.92969 6.40625 7.92969L8.90625 7.92969L8.90625 9.15039Q8.90625 9.36523 9.02832 9.4873Q9.15039 9.60938 9.375 9.60938Q9.58008 9.60938 9.72656 9.48242L11.8555 7.71484Q12.0508 7.55859 12.0508 7.3584Q12.0508 7.1582 11.8555 7.01172L9.72656 5.23438Q9.58008 5.11719 9.375 5.11719Q9.15039 5.11719 9.02832 5.23926Q8.90625 5.36133 8.90625 5.57617L8.90625 6.77734L6.52344 6.77734Q5.21484 6.77734 4.43848 7.47559Q3.66211 8.17383 3.66211 9.36523ZM15.3223 10.5273Q15.3223 10.2832 15.1514 10.1172Q14.9805 9.95117 14.7363 9.95117Q14.4922 9.95117 14.3213 10.1172Q14.1504 10.2832 14.1504 10.5273L14.1504 11.0156Q14.1504 11.6992 13.7207 12.1191Q13.291 12.5391 12.5684 12.5391L8.86719 12.5391L8.86719 11.3379Q8.86719 11.123 8.74023 11.001Q8.61328 10.8789 8.39844 10.8789Q8.18359 10.8789 8.03711 11.0059L5.89844 12.7734Q5.72266 12.9102 5.72754 13.1201Q5.73242 13.3301 5.9082 13.4766L8.03711 15.2441Q8.18359 15.3613 8.39844 15.3613Q8.62305 15.3613 8.74512 15.2441Q8.86719 15.127 8.86719 14.9121L8.86719 13.6914L12.4512 13.6914Q13.7695 13.6914 14.5459 12.9932Q15.3223 12.2949 15.3223 11.1035ZM14.7363 8.91602Q15.0195 8.91602 15.1807 8.74512Q15.3418 8.57422 15.3418 8.29102L15.3418 5.89844Q15.3418 5.56641 15.1416 5.36621Q14.9414 5.16602 14.6191 5.16602Q14.2285 5.16602 13.8379 5.46875L13.0859 6.04492Q12.8906 6.19141 12.8906 6.42578Q12.8906 6.5918 13.0127 6.71387Q13.1348 6.83594 13.3301 6.83594Q13.4766 6.83594 13.623 6.72852L14.209 6.26953L14.1113 6.26953L14.1113 8.29102Q14.1113 8.57422 14.2822 8.74512Q14.4531 8.91602 14.7363 8.91602Z" fill="#ffffff"/>
 </g>
</svg>
