<?xml version="1.0" encoding="UTF-8"?>
<!--Generator: Apple Native CoreSVG 175-->
<!DOCTYPE svg
PUBLIC "-//W3C//DTD SVG 1.1//EN"
       "http://www.w3.org/Graphics/SVG/1.1/DTD/svg11.dtd">
<svg version="1.1" xmlns="http://www.w3.org/2000/svg" xmlns:xlink="http://www.w3.org/1999/xlink" width="19.818" height="18.2864">
 <g>
  <rect height="18.2864" opacity="0" width="19.818" x="0" y="0"/>
  <path d="M6.32965 17.1774Q6.50238 17.1774 6.60805 17.0683Q6.71371 16.9591 6.71371 16.8102Q6.71371 16.723 6.68541 16.6504Q6.6571 16.5778 6.61285 16.5309L3.16483 13.1047L0.977783 11.0063L0.90744 11.1462L3.25989 11.1986L17.2914 11.1986Q18.5364 11.1986 19.1772 10.5363Q19.818 9.87396 19.818 8.56537L19.818 2.5267Q19.818 1.28174 19.1772 0.640869Q18.5364 0 17.2914 0L10.6274 0Q10.466 0 10.359 0.106277Q10.2519 0.212555 10.2519 0.370026Q10.2519 0.527344 10.3506 0.633621Q10.4492 0.739899 10.6204 0.739899L17.2914 0.739899Q18.1473 0.739899 18.6113 1.20399Q19.0753 1.66809 19.0753 2.5267L19.0753 8.56537Q19.0753 9.49966 18.6078 9.97917Q18.1403 10.4587 17.2914 10.4587L3.25989 10.4587L0.90744 10.5013L0.977783 10.648L3.16483 8.5524L6.61285 5.11917Q6.6571 5.07233 6.68541 4.99969Q6.71371 4.92706 6.71371 4.84421Q6.71371 4.69101 6.60805 4.58405Q6.50238 4.47708 6.32965 4.47708Q6.17935 4.47708 6.06323 4.58878L0.124207 10.5469Q0.0621033 10.6062 0.0310516 10.6738Q0 10.7414 0 10.8286Q0 10.9059 0.0310516 10.9735Q0.0621033 11.0411 0.124207 11.1032L6.06323 17.0615Q6.17935 17.1774 6.32965 17.1774Z" fill="#ffffff"/>
 </g>
</svg>
