<?xml version="1.0" encoding="UTF-8"?>
<!--Generator: Apple Native CoreSVG 175-->
<!DOCTYPE svg
PUBLIC "-//W3C//DTD SVG 1.1//EN"
       "http://www.w3.org/Graphics/SVG/1.1/DTD/svg11.dtd">
<svg version="1.1" xmlns="http://www.w3.org/2000/svg" xmlns:xlink="http://www.w3.org/1999/xlink" width="18.4875" height="23.8788">
 <g>
  <rect height="23.8788" opacity="0" width="18.4875" x="0" y="0"/>
  <path d="M1.98944 20.6009L11.8993 20.6009Q12.8848 20.6009 13.3833 20.1052Q13.8817 19.6095 13.8817 18.6115L13.8817 8.78449Q13.8817 7.79343 13.3833 7.29775Q12.8848 6.80207 11.8993 6.80207L1.98944 6.80207Q0.999603 6.80207 0.499802 7.29775Q0 7.79343 0 8.78449L0 18.6115Q0 19.6095 0.499802 20.1052Q0.999603 20.6009 1.98944 20.6009ZM2.02576 19.8724Q1.37314 19.8724 1.05087 19.5564Q0.728607 19.2404 0.728607 18.5919L0.728607 8.81379Q0.728607 8.15568 1.05087 7.84318Q1.37314 7.53068 2.02576 7.53068L11.8629 7.53068Q12.5113 7.53068 12.8357 7.84318Q13.1601 8.15568 13.1601 8.81379L13.1601 18.5919Q13.1601 19.2404 12.8357 19.5564Q12.5113 19.8724 11.8629 19.8724Z" fill="#007aff"/>
  <path d="M18.1606 8.611Q18.302 8.611 18.3948 8.51472Q18.4875 8.41843 18.4875 8.2869L18.4875 6.56892Q18.4875 5.18647 17.8678 4.12827Q17.2481 3.07008 16.1231 2.47361Q14.9982 1.87714 13.4821 1.87714L13.3192 1.87714L13.3192 0.433357Q13.3192 0.114143 13.0724 0.0272441Q12.8255-0.0596547 12.5629 0.130622L10.1442 1.79658Q9.86954 1.98884 9.86816 2.19567Q9.86679 2.4025 10.1442 2.59187L12.5629 4.25523Q12.8255 4.4455 13.0724 4.35853Q13.3192 4.27155 13.3192 3.94822L13.3192 2.51069L13.4793 2.51069Q14.8715 2.51069 15.8447 3.0597Q16.8179 3.60871 17.3271 4.53606Q17.8363 5.46342 17.8363 6.59272L17.8363 8.2869Q17.8363 8.41843 17.9326 8.51472Q18.0289 8.611 18.1606 8.611Z" fill="#ffffff"/>
 </g>
</svg>
