<?xml version="1.0" encoding="UTF-8"?>
<!--Generator: Apple Native CoreSVG 175.5-->
<!DOCTYPE svg
PUBLIC "-//W3C//DTD SVG 1.1//EN"
       "http://www.w3.org/Graphics/SVG/1.1/DTD/svg11.dtd">
<svg version="1.1" xmlns="http://www.w3.org/2000/svg" xmlns:xlink="http://www.w3.org/1999/xlink" width="23.6133" height="17.998">
 <g>
  <rect height="17.998" opacity="0" width="23.6133" x="0" y="0"/>
  <path d="M8.39844 0.0195312Q5.48828 0.0195312 3.63281 0.913086Q1.77734 1.80664 0.888672 3.61328Q0 5.41992 0 8.1543L0 14.9707Q0 16.4844 0.766602 17.2412Q1.5332 17.998 3.06641 17.998L20.5469 17.998Q22.0801 17.998 22.8467 17.2412Q23.6133 16.4844 23.6133 14.9707L23.6133 8.1543Q23.6133 5.41992 22.7295 3.61328Q21.8457 1.80664 19.9854 0.913086Q18.125 0.0195312 15.2246 0.0195312ZM8.39844 1.61133L15.2148 1.61133Q17.5879 1.61133 19.0967 2.30957Q20.6055 3.00781 21.3232 4.44336Q22.041 5.87891 22.041 8.06641L22.041 14.8926Q22.041 15.6543 21.6455 16.04Q21.25 16.4258 20.5273 16.4258L3.08594 16.4258Q1.57227 16.4258 1.57227 14.8926L1.57227 8.06641Q1.57227 5.87891 2.29004 4.44336Q3.00781 3.00781 4.5166 2.30957Q6.02539 1.61133 8.39844 1.61133Z" fill="#007aff"/>
  <path d="M5.2832 13.5156Q5.66406 13.5156 5.86914 13.2861Q6.07422 13.0566 6.07422 12.6465L6.07422 10.2148L7.89062 10.2148L9.58008 12.998Q9.75586 13.2812 9.92676 13.3984Q10.0977 13.5156 10.3613 13.5156Q10.6738 13.5156 10.874 13.3301Q11.0742 13.1445 11.0742 12.8516Q11.0742 12.5684 10.8887 12.2852L9.42383 9.99023Q10.2832 9.70703 10.8008 8.99414Q11.3184 8.28125 11.3184 7.37305Q11.3184 6.05469 10.4443 5.27832Q9.57031 4.50195 8.07617 4.50195L5.27344 4.50195Q4.90234 4.50195 4.70703 4.74609Q4.51172 4.99023 4.51172 5.38086L4.51172 12.6465Q4.51172 13.0371 4.70703 13.2764Q4.90234 13.5156 5.2832 13.5156ZM6.07422 9.07227L6.07422 5.69336L7.89062 5.69336Q8.73047 5.69336 9.25293 6.14258Q9.77539 6.5918 9.77539 7.41211Q9.77539 8.21289 9.25781 8.64258Q8.74023 9.07227 7.85156 9.07227ZM16.084 13.5156Q16.4648 13.5156 16.6699 13.2812Q16.875 13.0469 16.875 12.6367L16.875 5.78125L19.3066 5.78125Q19.5801 5.78125 19.7656 5.60547Q19.9512 5.42969 19.9512 5.13672Q19.9512 4.83398 19.7656 4.66797Q19.5801 4.50195 19.3066 4.50195L12.9102 4.50195Q12.627 4.50195 12.4414 4.66797Q12.2559 4.83398 12.2559 5.13672Q12.2559 5.42969 12.4414 5.60547Q12.627 5.78125 12.9102 5.78125L15.3125 5.78125L15.3125 12.6367Q15.3125 13.0273 15.5078 13.2715Q15.7031 13.5156 16.084 13.5156Z" fill="#ffffff"/>
 </g>
</svg>
