<?xml version="1.0" encoding="UTF-8"?>
<!--Generator: Apple Native CoreSVG 175-->
<!DOCTYPE svg
PUBLIC "-//W3C//DTD SVG 1.1//EN"
       "http://www.w3.org/Graphics/SVG/1.1/DTD/svg11.dtd">
<svg version="1.1" xmlns="http://www.w3.org/2000/svg" xmlns:xlink="http://www.w3.org/1999/xlink" width="17.2852" height="17.3145">
 <g>
  <rect height="17.3145" opacity="0" width="17.2852" x="0" y="0"/>
  <path d="M2.62695 17.3145L14.6484 17.3145Q15.957 17.3145 16.6211 16.6455Q17.2852 15.9766 17.2852 14.6875L17.2852 2.65625Q17.2852 1.37695 16.6211 0.703125Q15.957 0.0292969 14.6484 0.0292969L2.62695 0.0292969Q1.33789 0.0292969 0.668945 0.693359Q0 1.35742 0 2.65625L0 14.6875Q0 15.9863 0.668945 16.6504Q1.33789 17.3145 2.62695 17.3145Z" fill="#007aff"/>
  <path d="M6.98242 13.125Q6.83594 13.125 6.73828 13.0371Q6.64062 12.9492 6.64062 12.7832L6.64062 11.2891L5.73242 11.2891Q5.5957 11.2891 5.5127 11.2061Q5.42969 11.123 5.42969 10.9863Q5.42969 10.8496 5.5127 10.7666Q5.5957 10.6836 5.73242 10.6836L6.64062 10.6836L6.64062 9.61914L5.71289 9.61914Q5.58594 9.61914 5.50293 9.53125Q5.41992 9.44336 5.41992 9.30664Q5.41992 9.16992 5.50293 9.08691Q5.58594 9.00391 5.71289 9.00391L6.64062 9.00391L6.64062 4.76562Q6.64062 4.60938 6.7334 4.51172Q6.82617 4.41406 6.98242 4.41406L9.13086 4.41406Q10.4297 4.41406 11.1572 5.12695Q11.8848 5.83984 11.8848 7.01172Q11.8848 8.18359 11.1572 8.8916Q10.4297 9.59961 9.14062 9.59961L7.31445 9.59961L7.31445 10.6836L9.62891 10.6836Q9.76562 10.6836 9.84863 10.7666Q9.93164 10.8496 9.93164 10.9863Q9.93164 11.123 9.84863 11.2061Q9.76562 11.2891 9.62891 11.2891L7.31445 11.2891L7.31445 12.7832Q7.31445 12.9492 7.22656 13.0371Q7.13867 13.125 6.98242 13.125ZM7.31445 8.96484L9.0918 8.97461Q10.0977 8.97461 10.6543 8.44727Q11.2109 7.91992 11.2109 7.01172Q11.2109 6.10352 10.6543 5.58105Q10.0977 5.05859 9.0918 5.05859L7.31445 5.05859Z" fill="#ffffff"/>
 </g>
</svg>
