<?xml version="1.0" encoding="UTF-8"?>
<!--Generator: Apple Native CoreSVG 175.5-->
<!DOCTYPE svg
PUBLIC "-//W3C//DTD SVG 1.1//EN"
       "http://www.w3.org/Graphics/SVG/1.1/DTD/svg11.dtd">
<svg version="1.1" xmlns="http://www.w3.org/2000/svg" xmlns:xlink="http://www.w3.org/1999/xlink" width="22.4312" height="25.4395">
 <g>
  <rect height="25.4395" opacity="0" width="22.4312" x="0" y="0"/>
  <path d="M0.0851633 19.9023L0.925007 22.7832Q1.04219 23.1543 1.19356 23.4326Q1.34493 23.7109 1.55001 23.9062L2.8293 23.0762Q2.5754 22.9785 2.39962 22.7637Q2.22384 22.5488 2.12618 22.2168L1.47188 19.7949Q1.43282 19.6777 1.47676 19.6045Q1.52071 19.5312 1.64766 19.5312L20.6027 19.5312Q20.7297 19.5312 20.759 19.6143Q20.7883 19.6973 20.7004 19.7949L18.591 22.207Q18.3371 22.4805 18.0881 22.7051Q17.8391 22.9297 17.3996 23.0566L18.591 23.9355Q18.9719 23.6719 19.299 23.3105Q19.6262 22.9492 19.9973 22.5195L22.1066 20.0977Q22.4582 19.6973 22.4289 19.2529Q22.3996 18.8086 22.0676 18.5059Q21.7356 18.2031 21.1691 18.2031L1.31563 18.2031Q0.524616 18.2031 0.197468 18.6865Q-0.12968 19.1699 0.0851633 19.9023ZM9.37227 19.0234L10.6906 19.0234L10.6906 0.664062Q10.6906 0.390625 10.5002 0.195312Q10.3098 0 10.0363 0Q9.7629 0 9.56759 0.195312Q9.37227 0.390625 9.37227 0.664062ZM10.1242 15.6641L14.1379 15.6641Q15.6125 15.6641 16.633 15.1855Q17.6535 14.707 18.1857 13.8232Q18.718 12.9395 18.718 11.7285Q18.718 10.4883 18.2443 9.20898Q17.7707 7.92969 16.9504 6.7041Q16.1301 5.47852 15.0656 4.375Q14.0012 3.27148 12.8049 2.36816Q11.6086 1.46484 10.4074 0.839844L9.74337 1.98242Q10.7395 2.41211 11.8039 3.16406Q12.8684 3.91602 13.8645 4.88281Q14.8606 5.84961 15.6613 6.95801Q16.4621 8.06641 16.9309 9.2334Q17.3996 10.4004 17.3996 11.5234Q17.3996 12.373 17.0139 13.0029Q16.6281 13.6328 15.9055 13.9844Q15.1828 14.3359 14.1574 14.3359L10.1242 14.3359ZM10.9445 2.59766Q11.9211 3.99414 12.3996 5.45898Q12.8781 6.92383 12.927 8.33008Q12.9758 9.73633 12.6438 10.9521Q12.3117 12.168 11.6574 13.0762Q11.0031 13.9844 10.0754 14.4531L10.3488 15.6055Q11.6086 15.0293 12.468 13.999Q13.3274 12.9688 13.7619 11.626Q14.1965 10.2832 14.1721 8.74023Q14.1477 7.19727 13.635 5.58105Q13.1223 3.96484 12.0774 2.40234ZM2.43868 15.6641L9.88009 15.6641L9.88009 14.3359L3.70821 14.3359Q3.62032 14.3359 3.59591 14.2676Q3.57149 14.1992 3.63985 14.1504Q4.64571 13.3984 5.59786 12.2949Q6.55001 11.1914 7.38497 9.88281Q8.21993 8.57422 8.88399 7.17285Q9.54805 5.77148 9.98751 4.40918Q10.427 3.04688 10.5734 1.85547L9.37227 1.02539Q9.40157 2.01172 9.06466 3.30078Q8.72774 4.58984 8.07344 6.01562Q7.41915 7.44141 6.49141 8.86719Q5.56368 10.293 4.40645 11.5723Q3.24923 12.8516 1.90157 13.8281Q1.54024 14.082 1.44259 14.3994Q1.34493 14.7168 1.45235 15.0049Q1.55977 15.293 1.81856 15.4785Q2.07735 15.6641 2.43868 15.6641ZM10.3391 24.9609Q11.1399 24.9609 11.7014 24.7607Q12.2629 24.5605 12.6779 24.2627Q13.093 23.9648 13.4397 23.6719Q13.7863 23.3789 14.1477 23.1787Q14.509 22.9785 14.9777 22.9785Q15.4563 22.9785 15.8078 23.1787Q16.1594 23.3789 16.5061 23.6719Q16.8527 23.9648 17.2824 24.2627Q17.7121 24.5605 18.3322 24.7607Q18.9524 24.9609 19.8606 24.9609L20.8566 24.9609Q21.1399 24.9609 21.34 24.7559Q21.5402 24.5508 21.5402 24.2676Q21.5402 23.9844 21.34 23.7842Q21.1399 23.584 20.8566 23.584L19.8606 23.584Q19.0793 23.584 18.5568 23.3008Q18.0344 23.0176 17.4875 22.627Q17.009 22.2754 16.3986 21.9385Q15.7883 21.6016 14.9777 21.6016Q14.1379 21.6016 13.5178 21.958Q12.8977 22.3145 12.4191 22.6758Q11.9113 23.0566 11.4524 23.3203Q10.9934 23.584 10.3391 23.584Q9.68477 23.584 9.22579 23.3203Q8.7668 23.0566 8.25899 22.6758Q7.78048 22.3145 7.16036 21.958Q6.54024 21.6016 5.7004 21.6016Q4.88985 21.6016 4.2795 21.9385Q3.66915 22.2754 3.19063 22.627Q2.64376 23.0176 2.12618 23.3008Q1.6086 23.584 0.817585 23.584L0.768757 23.584Q0.485554 23.584 0.280476 23.7842Q0.0753977 23.9844 0.0753977 24.2676Q0.0753977 24.5508 0.280476 24.7559Q0.485554 24.9609 0.768757 24.9609L0.817585 24.9609Q1.72579 24.9609 2.34591 24.7607Q2.96602 24.5605 3.39571 24.2627Q3.8254 23.9648 4.17208 23.6719Q4.51876 23.3789 4.8752 23.1787Q5.23165 22.9785 5.7004 22.9785Q6.16915 22.9785 6.53048 23.1787Q6.8918 23.3789 7.23848 23.6719Q7.58516 23.9648 8.0002 24.2627Q8.41524 24.5605 8.97676 24.7607Q9.53829 24.9609 10.3391 24.9609Z" fill="#ffffff"/>
 </g>
</svg>
