<?xml version="1.0" encoding="UTF-8"?>
<!--Generator: Apple Native CoreSVG 175-->
<!DOCTYPE svg
PUBLIC "-//W3C//DTD SVG 1.1//EN"
       "http://www.w3.org/Graphics/SVG/1.1/DTD/svg11.dtd">
<svg version="1.1" xmlns="http://www.w3.org/2000/svg" xmlns:xlink="http://www.w3.org/1999/xlink" width="20.1836" height="18.506">
 <g>
  <rect height="18.506" opacity="0" width="20.1836" x="0" y="0"/>
  <path d="M2.92618 15.0669L3.28827 15.6834L10.0964 12.2716L16.9048 15.6834L17.2739 15.0669L10.4657 11.6692L10.4657 3.5958L9.73709 3.5958L9.73709 11.6692ZM0.0405884 16.6251Q0.0405884 16.9817 0.361328 17.1693L2.48322 18.4453Q2.57034 18.4992 2.66602 18.5055Q2.76169 18.5117 2.88208 18.4426L4.90585 17.2759Q5.06409 17.1856 5.12817 17.0848Q5.19226 16.984 5.1825 16.8032L5.12192 14.3618Q5.12192 14.0739 4.86023 13.9075L2.77069 12.6383Q2.62039 12.5449 2.5016 12.5479Q2.38281 12.5509 2.23007 12.6383L0.198059 13.8106Q0.0776672 13.877 0.0388336 13.9629Q0 14.0488 0 14.1555ZM15.0082 16.8059Q14.9915 16.9868 15.0555 17.0875Q15.1195 17.1883 15.2777 17.2785L17.3015 18.4453Q17.4219 18.5074 17.5175 18.5047Q17.6132 18.502 17.7003 18.4481L19.8222 17.172Q20.143 16.9845 20.143 16.6277L20.1836 14.1582Q20.1836 14.0516 20.1447 13.9657Q20.1059 13.8798 19.9855 13.8134L17.9535 12.6411Q17.8008 12.5536 17.682 12.5506Q17.5633 12.5477 17.4129 12.6411L15.3235 13.9101Q15.0616 14.0766 15.0616 14.3645ZM7.68356 4.56259L9.832 5.73752Q10.0911 5.88019 10.3543 5.73752L12.5027 4.56259Q12.6585 4.4805 12.7162 4.3727Q12.7739 4.26489 12.7739 4.08438L12.7739 1.75085Q12.7739 1.61261 12.7198 1.53563Q12.6657 1.45865 12.5716 1.40753L10.4089 0.207123Q10.0954 0.0336308 9.77737 0.207123L7.6149 1.40753Q7.52075 1.4559 7.46529 1.53426Q7.40982 1.61261 7.40982 1.75085L7.40982 4.08438Q7.40982 4.26489 7.47017 4.37056Q7.53052 4.47623 7.68356 4.56259Z" fill="#ffffff"/>
 </g>
</svg>
