<?xml version="1.0" encoding="UTF-8"?>
<!--Generator: Apple Native CoreSVG 175-->
<!DOCTYPE svg
PUBLIC "-//W3C//DTD SVG 1.1//EN"
       "http://www.w3.org/Graphics/SVG/1.1/DTD/svg11.dtd">
<svg version="1.1" xmlns="http://www.w3.org/2000/svg" xmlns:xlink="http://www.w3.org/1999/xlink" width="19.1602" height="19.1504">
 <g>
  <rect height="19.1504" opacity="0" width="19.1602" x="0" y="0"/>
  <path d="M9.57031 19.1504Q11.5527 19.1504 13.2861 18.4082Q15.0195 17.666 16.3379 16.3428Q17.6562 15.0195 18.4082 13.2861Q19.1602 11.5527 19.1602 9.58008Q19.1602 7.60742 18.4082 5.87402Q17.6562 4.14062 16.3379 2.81738Q15.0195 1.49414 13.2861 0.751953Q11.5527 0.00976562 9.57031 0.00976562Q7.59766 0.00976562 5.86426 0.751953Q4.13086 1.49414 2.81738 2.81738Q1.50391 4.14062 0.751953 5.87402Q0 7.60742 0 9.58008Q0 11.5527 0.74707 13.2861Q1.49414 15.0195 2.8125 16.3428Q4.13086 17.666 5.86914 18.4082Q7.60742 19.1504 9.57031 19.1504Z" fill="#007aff"/>
  <path d="M5.625 14.3262Q4.81445 14.3262 4.25781 13.7598Q3.70117 13.1934 3.70117 12.3926Q3.70117 11.5918 4.25781 11.0352Q4.81445 10.4785 5.625 10.4785Q6.06445 10.4785 6.34766 10.6055Q6.63086 10.7324 6.81641 10.8545Q7.00195 10.9766 7.1875 10.9766Q7.30469 10.9766 7.39258 10.9277L8.69141 10.2246Q8.85742 10.1367 8.90625 10.0342Q8.95508 9.93164 8.99414 9.78516L9.10156 9.42383Q9.18945 9.0625 9.375 8.8623Q9.56055 8.66211 9.94141 8.50586L14.1602 6.91406Q14.8438 6.65039 15.3223 6.69922Q15.8008 6.74805 16.0059 7.09961L7.73438 11.543Q7.50977 11.6602 7.5293 11.8311Q7.54883 12.002 7.54883 12.3926Q7.54883 13.1934 6.98242 13.7598Q6.41602 14.3262 5.625 14.3262ZM5.625 13.7695Q6.19141 13.7695 6.58691 13.3691Q6.98242 12.9688 6.98242 12.3926Q6.98242 11.8164 6.58691 11.416Q6.19141 11.0156 5.625 11.0156Q5.05859 11.0156 4.6582 11.416Q4.25781 11.8164 4.25781 12.3926Q4.25781 12.9688 4.65332 13.3691Q5.04883 13.7695 5.625 13.7695ZM10.0195 9.66797Q10.1367 9.66797 10.2148 9.58496Q10.293 9.50195 10.293 9.38477Q10.293 9.26758 10.2148 9.18945Q10.1367 9.11133 10.0195 9.11133Q9.90234 9.11133 9.82422 9.19434Q9.74609 9.27734 9.74609 9.38477Q9.74609 9.49219 9.8291 9.58008Q9.91211 9.66797 10.0195 9.66797ZM9.14062 8.36914Q9.00391 8.48633 8.89648 8.62305Q8.78906 8.75977 8.71094 8.93555L7.39258 8.23242Q7.27539 8.18359 7.1875 8.18359Q7.01172 8.18359 6.82617 8.30566Q6.64062 8.42773 6.35742 8.55469Q6.07422 8.68164 5.625 8.68164Q4.81445 8.68164 4.25781 8.125Q3.70117 7.56836 3.70117 6.76758Q3.70117 5.9668 4.25781 5.40039Q4.81445 4.83398 5.625 4.83398Q6.41602 4.83398 6.98242 5.39551Q7.54883 5.95703 7.54883 6.76758Q7.54883 7.1582 7.53418 7.33398Q7.51953 7.50977 7.74414 7.61719ZM5.625 8.14453Q6.19141 8.14453 6.58691 7.74414Q6.98242 7.34375 6.98242 6.76758Q6.98242 6.19141 6.58691 5.79102Q6.19141 5.39062 5.625 5.39062Q5.04883 5.39062 4.65332 5.79102Q4.25781 6.19141 4.25781 6.76758Q4.25781 7.34375 4.6582 7.74414Q5.05859 8.14453 5.625 8.14453ZM10.3711 10.7227L11.8652 9.92188L16.0059 12.0605Q15.8105 12.4219 15.3223 12.4756Q14.834 12.5293 14.1602 12.2559Z" fill="#ffffff"/>
 </g>
</svg>
