<?xml version="1.0" encoding="UTF-8"?>
<!--Generator: Apple Native CoreSVG 175.5-->
<!DOCTYPE svg
PUBLIC "-//W3C//DTD SVG 1.1//EN"
       "http://www.w3.org/Graphics/SVG/1.1/DTD/svg11.dtd">
<svg version="1.1" xmlns="http://www.w3.org/2000/svg" xmlns:xlink="http://www.w3.org/1999/xlink" width="16.4258" height="20.9473">
 <g>
  <rect height="20.9473" opacity="0" width="16.4258" x="0" y="0"/>
  <path d="M3.02734 20.9473L13.3984 20.9473Q14.9121 20.9473 15.6689 20.1855Q16.4258 19.4238 16.4258 17.8906L16.4258 3.07617Q16.4258 1.55273 15.6689 0.78125Q14.9121 0.00976562 13.3984 0.00976562L6.875 0.00976562Q6.21094 0.00976562 5.75195 0.19043Q5.29297 0.371094 4.87305 0.800781L0.722656 4.94141Q0.3125 5.36133 0.15625 5.79102Q0 6.2207 0 6.94336L0 17.8906Q0 19.4141 0.756836 20.1807Q1.51367 20.9473 3.02734 20.9473ZM6.24023 3.97461Q6.24023 3.70117 6.42578 3.51562Q6.61133 3.33008 6.88477 3.33008Q7.14844 3.33008 7.3291 3.51562Q7.50977 3.70117 7.50977 3.97461L7.50977 7.14844Q7.50977 7.41211 7.3291 7.60254Q7.14844 7.79297 6.88477 7.79297Q6.61133 7.79297 6.42578 7.60254Q6.24023 7.41211 6.24023 7.14844ZM8.30078 3.97461Q8.30078 3.70117 8.48633 3.51562Q8.67188 3.33008 8.95508 3.33008Q9.21875 3.33008 9.4043 3.51562Q9.58984 3.70117 9.58984 3.97461L9.58984 7.14844Q9.58984 7.41211 9.4043 7.60254Q9.21875 7.79297 8.95508 7.79297Q8.68164 7.79297 8.49121 7.60254Q8.30078 7.41211 8.30078 7.14844ZM10.3809 3.97461Q10.3809 3.70117 10.5664 3.51562Q10.752 3.33008 11.0156 3.33008Q11.2891 3.33008 11.4697 3.51562Q11.6504 3.70117 11.6504 3.97461L11.6602 7.14844Q11.6602 7.41211 11.4697 7.60254Q11.2793 7.79297 11.0156 7.79297Q10.752 7.79297 10.5664 7.60254Q10.3809 7.41211 10.3809 7.14844ZM12.4609 3.97461Q12.4609 3.70117 12.6416 3.51562Q12.8223 3.33008 13.0957 3.33008Q13.3594 3.33008 13.54 3.51562Q13.7207 3.70117 13.7207 3.97461L13.7207 7.13867Q13.7207 7.41211 13.54 7.60254Q13.3594 7.79297 13.0957 7.79297Q12.832 7.79297 12.6465 7.60254Q12.4609 7.41211 12.4609 7.13867Z" fill="#ffffff"/>
 </g>
</svg>
