<?xml version="1.0" encoding="UTF-8"?>
<!--Generator: Apple Native CoreSVG 175-->
<!DOCTYPE svg
PUBLIC "-//W3C//DTD SVG 1.1//EN"
       "http://www.w3.org/Graphics/SVG/1.1/DTD/svg11.dtd">
<svg version="1.1" xmlns="http://www.w3.org/2000/svg" xmlns:xlink="http://www.w3.org/1999/xlink" width="18.2634" height="19.541">
 <g>
  <rect height="19.541" opacity="0" width="18.2634" x="0" y="0"/>
  <path d="M1.95822 11.9727Q1.95822 13.1348 2.31467 13.9746Q2.67111 14.8145 3.47677 15.5713Q4.28244 16.3281 5.63498 17.207Q6.98752 18.0859 8.98947 19.3262Q9.11642 19.4043 9.2922 19.4727Q9.46799 19.541 9.62424 19.541Q9.78049 19.541 9.95627 19.4727Q10.132 19.4043 10.2688 19.3262Q11.5481 18.5449 12.5539 17.9248Q13.5598 17.3047 14.3215 16.7676L13.7649 16.2012Q13.0617 16.6895 12.1584 17.2559Q11.2551 17.8223 10.1418 18.5547Q10.0344 18.6328 9.89279 18.7061Q9.75119 18.7793 9.62424 18.7793Q9.49728 18.7793 9.35568 18.7061Q9.21408 18.6328 9.10666 18.5547Q7.39767 17.4609 6.17697 16.6846Q4.95627 15.9082 4.18478 15.2246Q3.4133 14.541 3.04709 13.7646Q2.68088 12.9883 2.68088 11.8945L2.68088 5.07812L1.95822 4.35547ZM16.3039 15.0293Q16.8313 14.375 17.0559 13.6475Q17.2805 12.9199 17.2805 11.9727L17.2805 4.61914Q17.2805 3.80859 17.007 3.44727Q16.7336 3.08594 15.9817 2.79297Q15.4738 2.59766 14.9123 2.37793Q14.3508 2.1582 13.76 1.93359Q13.1692 1.70898 12.5783 1.48438Q11.9875 1.25977 11.4211 1.0498Q10.8547 0.839844 10.3469 0.673828Q10.1613 0.605469 9.98556 0.561523Q9.80978 0.517578 9.62424 0.517578Q9.43869 0.517578 9.26291 0.561523Q9.08713 0.605469 8.90158 0.673828Q8.1301 0.957031 7.28537 1.27441Q6.44064 1.5918 5.56662 1.91895Q4.6926 2.24609 3.84299 2.57812L4.43869 3.16406Q4.99533 2.94922 5.65939 2.69531Q6.32345 2.44141 6.98752 2.1875Q7.65158 1.93359 8.19845 1.72363Q8.74533 1.51367 9.04806 1.40625Q9.21408 1.32812 9.37033 1.28906Q9.52658 1.25 9.62424 1.25Q9.72189 1.25 9.86838 1.29395Q10.0149 1.33789 10.2004 1.40625Q10.5227 1.51367 11.0988 1.73828Q11.675 1.96289 12.3733 2.22656Q13.0715 2.49023 13.7697 2.75879Q14.468 3.02734 15.0442 3.24707Q15.6203 3.4668 15.9328 3.59375Q16.3039 3.74023 16.4309 3.98438Q16.5578 4.22852 16.5578 4.74609L16.5578 11.8945Q16.5578 12.7051 16.3576 13.3203Q16.1574 13.9355 15.7375 14.4629Z" fill="#007aff"/>
  <path d="M17.6418 18.7207Q17.7395 18.8281 17.8908 18.8232Q18.0422 18.8184 18.1496 18.7207Q18.2766 18.623 18.2619 18.4668Q18.2473 18.3105 18.1496 18.2031L0.620329 0.683594Q0.522673 0.585938 0.376189 0.585938Q0.229704 0.585938 0.102751 0.683594Q-0.00467052 0.78125 0.000212296 0.932617Q0.00509511 1.08398 0.102751 1.20117Z" fill="#ffffff"/>
 </g>
</svg>
