<?xml version="1.0" encoding="UTF-8"?>
<!--Generator: Apple Native CoreSVG 175-->
<!DOCTYPE svg
PUBLIC "-//W3C//DTD SVG 1.1//EN"
       "http://www.w3.org/Graphics/SVG/1.1/DTD/svg11.dtd">
<svg version="1.1" xmlns="http://www.w3.org/2000/svg" xmlns:xlink="http://www.w3.org/1999/xlink" width="15.3235" height="19.541">
 <g>
  <rect height="19.541" opacity="0" width="15.3235" x="0" y="0"/>
  <path d="M15.3235 11.9734L15.3235 4.61517Q15.3235 3.80859 15.0504 3.44353Q14.7774 3.07846 14.0259 2.79648Q13.5153 2.60071 12.952 2.38747Q12.3888 2.17422 11.7983 1.95Q11.2079 1.72577 10.6161 1.4994Q10.0243 1.27304 9.46098 1.06308Q8.89771 0.853119 8.38715 0.671082Q8.19885 0.608215 8.02406 0.562897Q7.84927 0.517578 7.66525 0.517578Q7.48138 0.517578 7.30438 0.561523Q7.12738 0.605469 6.93909 0.671082Q6.42578 0.844574 5.8625 1.05232Q5.29922 1.26007 4.70879 1.48514Q4.11835 1.71021 3.52661 1.93657Q2.93488 2.16293 2.37152 2.38182Q1.80817 2.60071 1.29776 2.79648Q0.548859 3.08823 0.274429 3.44841Q0 3.80859 0 4.61517L0 11.9734Q0 13.1355 0.348434 13.9861Q0.696869 14.8367 1.49925 15.5984Q2.30164 16.3602 3.65845 17.2353Q5.01526 18.1105 7.02499 19.3246Q7.15439 19.4012 7.33017 19.4711Q7.50595 19.541 7.66525 19.541Q7.81769 19.541 7.99347 19.4711Q8.16925 19.4012 8.30551 19.3246Q10.2942 18.0894 11.6475 17.2094Q13.0008 16.3293 13.8102 15.5711Q14.6196 14.8129 14.9715 13.9742Q15.3235 13.1355 15.3235 11.9734ZM7.62894 18.768Q7.49893 18.7598 7.3661 18.6933Q7.23328 18.6269 7.14417 18.5585Q5.44067 17.4487 4.22295 16.6679Q3.00522 15.8871 2.23015 15.2125Q1.45508 14.5378 1.0891 13.7644Q0.723114 12.991 0.723114 11.8933L0.723114 4.74915Q0.723114 4.22379 0.849838 3.98087Q0.976562 3.73795 1.3504 3.59222Q1.67313 3.47107 2.24991 3.25058Q2.82669 3.03009 3.52318 2.76405Q4.21967 2.49802 4.91829 2.23068Q5.61691 1.96335 6.19446 1.74362Q6.772 1.5239 7.08481 1.40427Q7.25586 1.33987 7.39479 1.29845Q7.53372 1.25702 7.62894 1.25427Z" fill="#ffffff"/>
 </g>
</svg>
