<?xml version="1.0" encoding="UTF-8"?>
<!--Generator: Apple Native CoreSVG 175.5-->
<!DOCTYPE svg
PUBLIC "-//W3C//DTD SVG 1.1//EN"
       "http://www.w3.org/Graphics/SVG/1.1/DTD/svg11.dtd">
<svg version="1.1" xmlns="http://www.w3.org/2000/svg" xmlns:xlink="http://www.w3.org/1999/xlink" width="22.6534" height="21.2988">
 <g>
  <rect height="21.2988" opacity="0" width="22.6534" x="0" y="0"/>
  <path d="M14.1309 0.566406L10.3906 10.8691Q10.293 11.1328 10.415 11.3916Q10.5371 11.6504 10.8008 11.748Q11.0742 11.8555 11.3281 11.7285Q11.582 11.6016 11.6797 11.3477L15.4395 1.04492Q15.5371 0.771484 15.415 0.512695Q15.293 0.253906 15.0195 0.15625Q14.7559 0.0585938 14.4922 0.180664Q14.2285 0.302734 14.1309 0.566406ZM9.83398 10.498L13.457 0.517578Q12.041 0.15625 10.7422 0.43457Q9.44336 0.712891 8.44727 1.5918L8.26172 1.52344Q7.35352 1.19141 6.56738 1.63574Q5.78125 2.08008 5.39062 3.1543L1.12305 14.8926Q0.888672 15.5469 1.14258 16.084Q1.39648 16.6211 2.04102 16.875Q2.70508 17.0996 3.25684 16.8555Q3.80859 16.6113 4.0332 15.9668L7.32422 6.9043L6.86523 7.1875Q7.1875 8.24219 7.94434 9.09668Q8.70117 9.95117 9.83398 10.498ZM2.69531 16.6895L1.67969 16.3184L0 20.9277L1.01562 21.2988Z" fill="#ffffff"/>
  <path d="M14.7363 10.5957Q14.9707 10.3809 14.9854 10.0879Q15 9.79492 14.8047 9.57031Q14.5898 9.33594 14.2871 9.31641Q13.9844 9.29688 13.7695 9.51172Q13.5449 9.74609 13.5352 10.0342Q13.5254 10.3223 13.7402 10.5469Q13.9453 10.752 14.2334 10.7764Q14.5215 10.8008 14.7363 10.5957ZM16.1328 7.01172Q16.2402 6.73828 16.1084 6.46973Q15.9766 6.20117 15.6934 6.10352Q15.4102 6.00586 15.1416 6.11816Q14.873 6.23047 14.7656 6.52344Q14.668 6.80664 14.79 7.08984Q14.9121 7.37305 15.1953 7.48047Q15.4785 7.57812 15.752 7.44629Q16.0254 7.31445 16.1328 7.01172ZM17.3633 3.42773Q17.3047 3.13477 17.0752 2.96875Q16.8457 2.80273 16.543 2.8418Q16.2402 2.89062 16.0547 3.10547Q15.8691 3.32031 15.918 3.62305Q15.957 3.91602 16.1914 4.09668Q16.4258 4.27734 16.7285 4.24805Q17.0312 4.19922 17.2119 3.96484Q17.3926 3.73047 17.3633 3.42773Z" fill="#007aff"/>
  <path d="M16.5527 12.5684Q16.7773 12.3535 16.7871 12.0508Q16.7969 11.748 16.582 11.5137Q16.3965 11.3184 16.0986 11.3086Q15.8008 11.2988 15.5762 11.5039Q15.3711 11.6992 15.3516 11.9971Q15.332 12.2949 15.5273 12.5Q15.752 12.7246 16.0449 12.7441Q16.3379 12.7637 16.5527 12.5684ZM18.6328 7.94922Q18.7402 7.67578 18.6084 7.40723Q18.4766 7.13867 18.1934 7.03125Q17.9102 6.92383 17.6562 7.0459Q17.4023 7.16797 17.2949 7.46094Q17.1973 7.73438 17.3145 7.99805Q17.4316 8.26172 17.7148 8.36914Q17.998 8.4668 18.2617 8.34961Q18.5254 8.23242 18.6328 7.94922ZM20 3.08594Q19.9707 2.7832 19.7266 2.60254Q19.4824 2.42188 19.1895 2.46094Q18.8965 2.50977 18.7109 2.74414Q18.5254 2.97852 18.5645 3.29102Q18.6035 3.56445 18.8477 3.74512Q19.0918 3.92578 19.3848 3.89648Q19.6777 3.84766 19.8633 3.61328Q20.0488 3.37891 20 3.08594Z" fill="#007aff"/>
  <path d="M18.3496 14.5215Q18.5547 14.3164 18.5742 14.0332Q18.5938 13.75 18.3984 13.5059Q18.1934 13.2812 17.8955 13.2812Q17.5977 13.2812 17.3828 13.4961Q17.1777 13.6914 17.1533 13.9795Q17.1289 14.2676 17.3242 14.4922Q17.5293 14.7266 17.832 14.7266Q18.1348 14.7266 18.3496 14.5215ZM21.1523 8.84766Q21.2598 8.56445 21.1279 8.30078Q20.9961 8.03711 20.7227 7.92969Q20.4297 7.83203 20.1611 7.94922Q19.8926 8.06641 19.7852 8.34961Q19.6875 8.63281 19.8096 8.91602Q19.9316 9.19922 20.2148 9.30664Q20.498 9.4043 20.7764 9.26758Q21.0547 9.13086 21.1523 8.84766ZM22.6465 2.74414Q22.5879 2.44141 22.3633 2.25586Q22.1387 2.07031 21.8457 2.10938Q21.543 2.13867 21.3672 2.38281Q21.1914 2.62695 21.2305 2.91016Q21.2695 3.20312 21.499 3.38379Q21.7285 3.56445 22.0215 3.52539Q22.3242 3.49609 22.5049 3.25684Q22.6855 3.01758 22.6465 2.74414Z" fill="#007aff"/>
 </g>
</svg>
