<?xml version="1.0" encoding="UTF-8"?>
<!--Generator: Apple Native CoreSVG 175.5-->
<!DOCTYPE svg
PUBLIC "-//W3C//DTD SVG 1.1//EN"
       "http://www.w3.org/Graphics/SVG/1.1/DTD/svg11.dtd">
<svg version="1.1" xmlns="http://www.w3.org/2000/svg" xmlns:xlink="http://www.w3.org/1999/xlink" width="22.3605" height="21.3379">
 <g>
  <rect height="21.3379" opacity="0" width="22.3605" x="0" y="0"/>
  <path d="M13.8281 0.605469L10.0879 10.9082Q9.99023 11.1816 10.1123 11.4453Q10.2344 11.709 10.5078 11.8066Q10.7812 11.9141 11.0449 11.7871Q11.3086 11.6602 11.4062 11.3965L15.1562 1.09375Q15.2539 0.810547 15.1318 0.546875Q15.0098 0.283203 14.7363 0.185547Q14.4629 0.078125 14.1943 0.205078Q13.9258 0.332031 13.8281 0.605469ZM1.95312 17.1777Q2.69531 17.4414 3.35449 17.1338Q4.01367 16.8262 4.27734 16.1035L7.41211 7.54883L6.89453 7.87109Q7.32422 8.87695 8.18848 9.67285Q9.05273 10.4688 10.2637 10.8398L10.6836 9.6582Q9.21875 9.13086 8.39844 8.11523Q7.57812 7.09961 7.53906 5.74219L7.1582 5.60547Q7.03125 5.55664 6.90918 5.61523Q6.78711 5.67383 6.73828 5.80078L3.17383 15.5762Q3.05664 15.8691 2.81738 15.9619Q2.57812 16.0547 2.34375 15.9668Q2.12891 15.8789 2.02148 15.6787Q1.91406 15.4785 2.01172 15.2051L6.24023 3.60352Q6.41602 3.08594 6.9043 2.85645Q7.39258 2.62695 7.91016 2.8125L8.47656 3.01758Q9.375 1.96289 10.6885 1.68945Q12.002 1.41602 13.4961 1.95312L13.916 0.78125Q12.2852 0.185547 10.7812 0.415039Q9.27734 0.644531 8.1543 1.63086L7.97852 1.5625Q7.08008 1.24023 6.28418 1.68945Q5.48828 2.13867 5.09766 3.19336L0.859375 14.8438Q0.595703 15.5762 0.908203 16.2402Q1.2207 16.9043 1.95312 17.1777ZM2.69531 16.7285L1.67969 16.3574L0 20.9766L1.01562 21.3379Z" fill="#ffffff"/>
  <path d="M14.4434 10.6348Q14.6777 10.4297 14.6924 10.1367Q14.707 9.84375 14.5117 9.60938Q14.2969 9.375 14.0039 9.36523Q13.7109 9.35547 13.4766 9.56055Q13.252 9.78516 13.2422 10.0781Q13.2324 10.3711 13.4473 10.5859Q13.6523 10.8008 13.9404 10.8203Q14.2285 10.8398 14.4434 10.6348ZM15.8398 7.05078Q15.9473 6.77734 15.8154 6.50879Q15.6836 6.24023 15.4004 6.14258Q15.1172 6.04492 14.8486 6.16211Q14.5801 6.2793 14.4727 6.5625Q14.375 6.85547 14.4971 7.13867Q14.6191 7.42188 14.9023 7.51953Q15.1855 7.62695 15.459 7.49023Q15.7324 7.35352 15.8398 7.05078ZM17.0703 3.47656Q17.0117 3.18359 16.7822 3.0127Q16.5527 2.8418 16.25 2.88086Q15.9473 2.92969 15.7617 3.14453Q15.5762 3.35938 15.625 3.66211Q15.6641 3.95508 15.8984 4.13574Q16.1328 4.31641 16.4355 4.28711Q16.7383 4.24805 16.9189 4.00879Q17.0996 3.76953 17.0703 3.47656Z" fill="#007aff"/>
  <path d="M16.2598 12.6074Q16.4844 12.4023 16.4941 12.0996Q16.5039 11.7969 16.2891 11.5625Q16.1035 11.3574 15.8057 11.3477Q15.5078 11.3379 15.2832 11.543Q15.0781 11.748 15.0586 12.041Q15.0391 12.334 15.2344 12.5391Q15.459 12.7637 15.752 12.7881Q16.0449 12.8125 16.2598 12.6074ZM18.3398 7.99805Q18.4473 7.71484 18.3154 7.44629Q18.1836 7.17773 17.9004 7.08008Q17.6172 6.97266 17.3633 7.08984Q17.1094 7.20703 17.002 7.5Q16.9043 7.77344 17.0215 8.04199Q17.1387 8.31055 17.4219 8.4082Q17.7051 8.51562 17.9688 8.39355Q18.2324 8.27148 18.3398 7.99805ZM19.707 3.125Q19.6777 2.82227 19.4336 2.64648Q19.1895 2.4707 18.8965 2.5Q18.6035 2.55859 18.418 2.79297Q18.2324 3.02734 18.2715 3.33008Q18.3105 3.60352 18.5547 3.78418Q18.7988 3.96484 19.0918 3.93555Q19.3848 3.88672 19.5703 3.65234Q19.7559 3.41797 19.707 3.125Z" fill="#007aff"/>
  <path d="M18.0566 14.5605Q18.2617 14.3555 18.2812 14.0723Q18.3008 13.7891 18.1055 13.5547Q17.9004 13.3301 17.6025 13.3252Q17.3047 13.3203 17.0898 13.5352Q16.8848 13.7402 16.8604 14.0283Q16.8359 14.3164 17.0312 14.541Q17.2363 14.7656 17.5391 14.7656Q17.8418 14.7656 18.0566 14.5605ZM20.8594 8.88672Q20.9668 8.61328 20.835 8.34473Q20.7031 8.07617 20.4297 7.96875Q20.1367 7.87109 19.8682 7.99316Q19.5996 8.11523 19.4922 8.38867Q19.3945 8.67188 19.5166 8.95996Q19.6387 9.24805 19.9219 9.3457Q20.2051 9.45312 20.4834 9.31641Q20.7617 9.17969 20.8594 8.88672ZM22.3535 2.7832Q22.2949 2.48047 22.0703 2.29492Q21.8457 2.10938 21.5527 2.14844Q21.25 2.17773 21.0742 2.42188Q20.8984 2.66602 20.9375 2.94922Q20.9766 3.25195 21.2061 3.43262Q21.4355 3.61328 21.7285 3.57422Q22.0312 3.54492 22.2119 3.30566Q22.3926 3.06641 22.3535 2.7832Z" fill="#007aff"/>
 </g>
</svg>
