<?xml version="1.0" encoding="UTF-8"?>
<!--Generator: Apple Native CoreSVG 175.5-->
<!DOCTYPE svg
PUBLIC "-//W3C//DTD SVG 1.1//EN"
       "http://www.w3.org/Graphics/SVG/1.1/DTD/svg11.dtd">
<svg version="1.1" xmlns="http://www.w3.org/2000/svg" xmlns:xlink="http://www.w3.org/1999/xlink" width="22.4414" height="17.7051">
 <g>
  <rect height="17.7051" opacity="0" width="22.4414" x="0" y="0"/>
  <path d="M0 13.8672Q0 14.2285 0.249023 14.4531Q0.498047 14.6777 0.898438 14.6777L3.125 14.6777Q4.33594 14.6777 5.15137 14.2773Q5.9668 13.877 6.85547 12.8516L12.7734 5.94727Q13.1934 5.45898 13.5889 5.16602Q13.9844 4.87305 14.4189 4.74121Q14.8535 4.60938 15.3906 4.60938L17.3828 4.60938L17.3828 6.81641Q17.3828 7.10938 17.5439 7.27051Q17.7051 7.43164 18.0078 7.43164Q18.1445 7.43164 18.2764 7.38281Q18.4082 7.33398 18.5156 7.24609L22.207 4.18945Q22.4414 3.99414 22.4414 3.73047Q22.4414 3.4668 22.207 3.26172L18.5156 0.195312Q18.4082 0.107422 18.2764 0.0634766Q18.1445 0.0195312 18.0078 0.0195312Q17.7051 0.0195312 17.5439 0.175781Q17.3828 0.332031 17.3828 0.625L17.3828 2.97852L15.3418 2.97852Q14.1211 2.97852 13.3008 3.37891Q12.4805 3.7793 11.6016 4.80469L5.69336 11.709Q5.05859 12.4512 4.4873 12.7539Q3.91602 13.0566 3.17383 13.0566L0.898438 13.0566Q0.498047 13.0566 0.249023 13.2812Q0 13.5059 0 13.8672ZM0 3.79883Q0 4.16016 0.249023 4.38477Q0.498047 4.60938 0.898438 4.60938L3.17383 4.60938Q3.92578 4.60938 4.49219 4.91211Q5.05859 5.21484 5.69336 5.95703L11.6016 12.8613Q12.4805 13.8867 13.3008 14.2822Q14.1211 14.6777 15.3418 14.6777L17.3828 14.6777L17.3828 17.0996Q17.3828 17.3926 17.5439 17.5488Q17.7051 17.7051 18.0078 17.7051Q18.1445 17.7051 18.2764 17.6611Q18.4082 17.6172 18.5156 17.5293L22.207 14.4727Q22.4414 14.2773 22.4414 14.0137Q22.4414 13.75 22.207 13.5449L18.5156 10.4785Q18.4082 10.3906 18.2764 10.3418Q18.1445 10.293 18.0078 10.293Q17.7051 10.293 17.5439 10.4541Q17.3828 10.6152 17.3828 10.9082L17.3828 13.0566L15.3906 13.0566Q14.5898 13.0566 13.999 12.7539Q13.4082 12.4512 12.7734 11.709L6.85547 4.80469Q5.9668 3.7793 5.15137 3.38379Q4.33594 2.98828 3.125 2.98828L0.898438 2.98828Q0.498047 2.98828 0.249023 3.20801Q0 3.42773 0 3.79883Z" fill="#ffffff"/>
 </g>
</svg>
