<?xml version="1.0" encoding="UTF-8"?>
<!--Generator: Apple Native CoreSVG 175.5-->
<!DOCTYPE svg
PUBLIC "-//W3C//DTD SVG 1.1//EN"
       "http://www.w3.org/Graphics/SVG/1.1/DTD/svg11.dtd">
<svg version="1.1" xmlns="http://www.w3.org/2000/svg" xmlns:xlink="http://www.w3.org/1999/xlink" width="29.3457" height="25.0098">
 <g>
  <rect height="25.0098" opacity="0" width="29.3457" x="0" y="0"/>
  <path d="M0.78125 21.4355L28.5547 21.4355Q28.877 21.4355 29.1113 21.2012Q29.3457 20.9668 29.3457 20.6445Q29.3457 20.3223 29.1113 20.0928Q28.877 19.8633 28.5547 19.8633L0.78125 19.8633Q0.458984 19.8633 0.229492 20.0928Q0 20.3223 0 20.6445Q0 20.9668 0.229492 21.2012Q0.458984 21.4355 0.78125 21.4355ZM0.507812 17.627Q0.693359 17.8223 0.952148 17.8174Q1.21094 17.8125 1.39648 17.627L4.73633 14.2969Q4.93164 14.1113 4.93164 13.8525Q4.93164 13.5938 4.73633 13.4082Q4.55078 13.2129 4.29199 13.2178Q4.0332 13.2227 3.84766 13.4082L0.507812 16.7285Q0.3125 16.9238 0.3125 17.1777Q0.3125 17.4316 0.507812 17.627ZM3.84766 17.627Q4.0332 17.8223 4.29199 17.8223Q4.55078 17.8223 4.73633 17.627Q4.93164 17.4316 4.93164 17.1729Q4.93164 16.9141 4.73633 16.7285L1.39648 13.4082Q1.21094 13.2129 0.952148 13.2129Q0.693359 13.2129 0.507812 13.4082Q0.3125 13.5938 0.3125 13.8525Q0.3125 14.1113 0.507812 14.2969Z" fill="#007aff"/>
  <path d="M9.78516 25.0098Q11.2988 25.0098 12.5293 24.1211Q13.7598 23.2324 14.6436 21.6504Q15.5273 20.0684 16.001 17.9688Q16.4746 15.8691 16.4746 13.4375Q16.4746 11.377 16.0254 9.5752Q15.5762 7.77344 14.7363 6.41113Q13.8965 5.04883 12.7197 4.27734Q11.543 3.50586 10.0781 3.50586Q8.81836 3.50586 7.8125 4.15527Q6.80664 4.80469 6.21582 5.90332Q5.625 7.00195 5.625 8.36914Q5.625 9.57031 5.99609 10.6836Q6.36719 11.7969 7.0166 12.7881Q7.66602 13.7793 8.52539 14.624Q9.38477 15.4688 10.376 16.1475Q11.3672 16.8262 12.4023 17.3145Q12.5781 17.4023 12.7734 17.4023Q13.0664 17.4023 13.2617 17.2021Q13.457 17.002 13.457 16.748Q13.457 16.5723 13.3594 16.4111Q13.2617 16.25 13.0469 16.1426Q12.207 15.7324 11.1914 15.0244Q10.1758 14.3164 9.24316 13.3252Q8.31055 12.334 7.71484 11.0889Q7.11914 9.84375 7.11914 8.36914Q7.11914 7.41211 7.50977 6.65039Q7.90039 5.88867 8.56934 5.43945Q9.23828 4.99023 10.0781 4.99023Q11.2012 4.99023 12.1094 5.6543Q13.0176 6.31836 13.6621 7.48047Q14.3066 8.64258 14.6484 10.1709Q14.9902 11.6992 14.9902 13.4375Q14.9902 15.5176 14.6143 17.3438Q14.2383 19.1699 13.5547 20.5615Q12.8711 21.9531 11.9531 22.7393Q11.0352 23.5254 9.96094 23.5254Q9.25781 23.5254 8.9209 23.1104Q8.58398 22.6953 8.58398 22.0312Q8.58398 21.2109 9.05762 20.1562Q9.53125 19.1016 10.4053 18.0273Q11.2793 16.9531 12.4902 16.0352Q13.7012 15.1172 15.1953 14.5557Q16.6895 13.9941 18.3887 13.9941Q18.9258 13.9941 18.9258 14.3945Q18.9258 14.8242 18.8086 15.2002Q18.6914 15.5762 18.5791 15.957Q18.4668 16.3379 18.4668 16.7578Q18.4668 17.3145 18.8281 17.6318Q19.1895 17.9492 19.7266 17.9492Q20.3223 17.9492 20.9424 17.6074Q21.5625 17.2656 22.168 16.7578Q22.7734 16.25 23.3008 15.7471Q23.8281 15.2441 24.2383 14.9023Q24.6484 14.5605 24.8926 14.5605Q25.1074 14.5605 25.1758 14.8682Q25.2441 15.1758 25.3027 15.6299Q25.3613 16.084 25.5176 16.5381Q25.6738 16.9922 26.0547 17.2998Q26.4355 17.6074 27.168 17.6074Q27.4707 17.6074 27.832 17.5195Q28.1934 17.4316 28.4961 17.2363Q28.6719 17.1191 28.7842 16.9434Q28.8965 16.7676 28.8965 16.543Q28.8965 16.2598 28.7256 16.0645Q28.5547 15.8691 28.2715 15.8691Q28.0176 15.8691 27.793 16.0107Q27.5684 16.1523 27.3145 16.1523Q26.9922 16.1523 26.875 15.8252Q26.7578 15.498 26.709 15.0146Q26.6602 14.5312 26.5576 14.0479Q26.4551 13.5645 26.1816 13.2373Q25.9082 12.9102 25.3223 12.9102Q24.8145 12.9102 24.2139 13.2422Q23.6133 13.5742 23.0078 14.0674Q22.4023 14.5605 21.8604 15.0537Q21.3184 15.5469 20.9033 15.8789Q20.4883 16.2109 20.2832 16.2109Q20.1367 16.2109 20.1367 16.0449Q20.1367 15.8691 20.2441 15.5615Q20.3516 15.2539 20.459 14.8779Q20.5664 14.502 20.5664 14.1113Q20.5664 13.3789 20.0049 12.9443Q19.4434 12.5098 18.4961 12.5098Q16.543 12.5098 14.8096 13.1641Q13.0762 13.8184 11.6553 14.8975Q10.2344 15.9766 9.20898 17.2754Q8.18359 18.5742 7.62207 19.8926Q7.06055 21.2109 7.06055 22.3145Q7.06055 23.4961 7.73438 24.2529Q8.4082 25.0098 9.78516 25.0098Z" fill="#ffffff"/>
 </g>
</svg>
