<?xml version="1.0" encoding="UTF-8"?>
<!--Generator: Apple Native CoreSVG 175.5-->
<!DOCTYPE svg
PUBLIC "-//W3C//DTD SVG 1.1//EN"
       "http://www.w3.org/Graphics/SVG/1.1/DTD/svg11.dtd">
<svg version="1.1" xmlns="http://www.w3.org/2000/svg" xmlns:xlink="http://www.w3.org/1999/xlink" width="19.8633" height="21.1621">
 <g>
  <rect height="21.1621" opacity="0" width="19.8633" x="0" y="0"/>
  <path d="M0 15.4688Q0 16.8359 0.688477 17.5342Q1.37695 18.2324 2.73438 18.2324L4.0332 18.2324L4.0332 15.3809L3.33984 15.3809Q2.7832 15.3809 2.45117 15.0439Q2.11914 14.707 2.11914 14.1406L2.11914 11.1914L4.0332 11.1914L4.0332 10.2051L2.11914 10.2051L2.11914 9.08203Q2.11914 8.50586 2.45117 8.17871Q2.7832 7.85156 3.33984 7.85156L4.0332 7.85156L4.0332 4.99023Q4.0332 3.87695 4.48242 3.04688Q4.93164 2.2168 5.75195 1.75781Q6.57227 1.29883 7.67578 1.29883L10.8008 1.29883L10.2246 0.712891Q9.84375 0.332031 9.42383 0.166016Q9.00391 0 8.4082 0L2.73438 0Q1.37695 0 0.688477 0.703125Q0 1.40625 0 2.7832Z" fill="#007aff"/>
  <path d="M5.36133 18.2812Q5.36133 19.6484 6.05469 20.3516Q6.74805 21.0547 8.10547 21.0547L17.1289 21.0547Q18.4766 21.0547 19.1699 20.3516Q19.8633 19.6484 19.8633 18.2812L19.8633 8.75977Q19.8633 8.11523 19.7168 7.71973Q19.5703 7.32422 19.1992 6.95312L15.5859 3.33984Q15.2051 2.95898 14.79 2.79297Q14.375 2.62695 13.7793 2.62695L8.10547 2.62695Q6.74805 2.62695 6.05469 3.33008Q5.36133 4.0332 5.36133 5.41016ZM8.49609 16.9629L8.49609 14.0137L10.752 14.0137Q10.8984 14.0137 10.8984 14.1504L10.8984 18.1934L9.72656 18.1934Q9.16992 18.1934 8.83301 17.8613Q8.49609 17.5293 8.49609 16.9629ZM8.49609 13.0273L8.49609 11.9043Q8.49609 11.3281 8.83301 10.9961Q9.16992 10.6641 9.72656 10.6641L13.5352 10.6641L13.5352 18.1934L11.8848 18.1934L11.8848 13.5645Q11.8848 13.3105 11.7432 13.1689Q11.6016 13.0273 11.3379 13.0273ZM14.5215 18.1934L14.5215 10.6641L15.4785 10.6641Q16.0449 10.6641 16.3721 10.9961Q16.6992 11.3281 16.6992 11.9043L16.6992 16.9629Q16.6992 17.5293 16.3721 17.8613Q16.0449 18.1934 15.4785 18.1934Z" fill="#ffffff"/>
 </g>
</svg>
