<?xml version="1.0" encoding="UTF-8"?>
<!--Generator: Apple Native CoreSVG 175.5-->
<!DOCTYPE svg
PUBLIC "-//W3C//DTD SVG 1.1//EN"
       "http://www.w3.org/Graphics/SVG/1.1/DTD/svg11.dtd">
<svg version="1.1" xmlns="http://www.w3.org/2000/svg" xmlns:xlink="http://www.w3.org/1999/xlink" width="16.4258" height="20.9473">
 <g>
  <rect height="20.9473" opacity="0" width="16.4258" x="0" y="0"/>
  <path d="M3.02734 20.9473L13.3984 20.9473Q14.9121 20.9473 15.6689 20.1807Q16.4258 19.4141 16.4258 17.8906L16.4258 6.94336Q16.4258 6.2207 16.2695 5.79102Q16.1133 5.36133 15.7031 4.94141L11.5527 0.800781Q11.1328 0.371094 10.6738 0.19043Q10.2148 0.00976562 9.55078 0.00976562L3.02734 0.00976562Q1.51367 0.00976562 0.756836 0.78125Q0 1.55273 0 3.07617L0 17.8906Q0 19.4238 0.756836 20.1855Q1.51367 20.9473 3.02734 20.9473Z" fill="#007aff"/>
  <path d="M3.55469 16.3672L3.55469 12.7344L6.08398 12.7344Q6.24023 12.7344 6.24023 12.8809L6.24023 17.7246L4.91211 17.7246Q4.28711 17.7246 3.9209 17.3584Q3.55469 16.9922 3.55469 16.3672ZM3.55469 11.6504L3.55469 10.4297Q3.55469 9.79492 3.9209 9.42871Q4.28711 9.0625 4.91211 9.0625L9.18945 9.0625L9.18945 17.7246L7.32422 17.7246L7.32422 12.2363Q7.32422 11.9629 7.16797 11.8066Q7.01172 11.6504 6.72852 11.6504ZM10.2734 17.7246L10.2734 9.0625L11.543 9.0625Q12.1582 9.0625 12.5244 9.42871Q12.8906 9.79492 12.8906 10.4297L12.8906 16.3672Q12.8906 16.9922 12.5244 17.3584Q12.1582 17.7246 11.543 17.7246Z" fill="#ffffff"/>
 </g>
</svg>
