<?xml version="1.0" encoding="UTF-8"?>
<!--Generator: Apple Native CoreSVG 175-->
<!DOCTYPE svg
PUBLIC "-//W3C//DTD SVG 1.1//EN"
       "http://www.w3.org/Graphics/SVG/1.1/DTD/svg11.dtd">
<svg version="1.1" xmlns="http://www.w3.org/2000/svg" xmlns:xlink="http://www.w3.org/1999/xlink" width="21.3466" height="21.38">
 <g>
  <rect height="21.38" opacity="0" width="21.3466" x="0" y="0"/>
  <path d="M10.6613 0.0335693Q10.5161 0.0335693 10.4213 0.140228Q10.3265 0.246887 10.3265 0.392151L10.3265 4.16824Q10.3265 4.31366 10.4213 4.42032Q10.5161 4.52698 10.6613 4.52698Q10.8235 4.52698 10.9217 4.42032Q11.0199 4.31366 11.0199 4.16824L11.0199 0.392151Q11.0199 0.246887 10.9217 0.140228Q10.8235 0.0335693 10.6613 0.0335693ZM16.0172 1.46591Q15.8801 1.38977 15.7473 1.43135Q15.6145 1.47293 15.5356 1.60034L13.6453 4.87106Q13.5692 4.99832 13.6024 5.13817Q13.6356 5.27802 13.7727 5.35706Q13.9027 5.43045 14.0307 5.38536Q14.1586 5.34027 14.2375 5.21286L16.1305 1.94489Q16.2039 1.81747 16.1742 1.67984Q16.1446 1.54221 16.0172 1.46591ZM19.9239 5.37262Q19.8477 5.22842 19.7051 5.20226Q19.5625 5.17609 19.4351 5.24963L16.1671 7.13547Q16.0399 7.20459 15.9934 7.34581Q15.947 7.48703 16.0356 7.62421Q16.1118 7.74445 16.2467 7.77771Q16.3817 7.81097 16.5089 7.73743L19.7797 5.84457Q19.9071 5.76553 19.95 5.63278Q19.993 5.50003 19.9239 5.37262ZM21.3466 10.6949Q21.3466 10.5496 21.2413 10.4549Q21.136 10.3601 20.9879 10.3601L17.2118 10.3601Q17.0665 10.3601 16.9598 10.4549Q16.8532 10.5496 16.8532 10.6949Q16.8532 10.8569 16.9598 10.9552Q17.0665 11.0535 17.2118 11.0535L20.9879 11.0535Q21.136 11.0535 21.2413 10.9552Q21.3466 10.8569 21.3466 10.6949ZM19.9211 16.041Q20 15.9207 19.9535 15.7844Q19.9071 15.648 19.7797 15.5692L16.5089 13.6761Q16.3817 13.6098 16.2418 13.6359Q16.102 13.6621 16.0329 13.7894Q15.9567 13.9336 15.9983 14.0629Q16.0399 14.1922 16.1671 14.2711L19.4351 16.1641Q19.5625 16.2375 19.7002 16.2078Q19.838 16.1781 19.9211 16.041ZM16.0144 19.9477Q16.1446 19.8715 16.1742 19.7338Q16.2039 19.5961 16.1305 19.4687L14.2445 16.2007Q14.1754 16.0735 14.0391 16.0269Q13.9027 15.9804 13.7727 16.0567Q13.6356 16.1356 13.6094 16.2754Q13.5832 16.4153 13.6453 16.5355L15.5356 19.8105Q15.6145 19.9379 15.7473 19.9809Q15.8801 20.0238 16.0144 19.9477ZM10.6613 21.38Q10.8235 21.38 10.9217 21.2734Q11.0199 21.1668 11.0199 21.0214L11.0199 17.2453Q11.0199 17.0999 10.9217 16.9933Q10.8235 16.8867 10.6613 16.8867Q10.5161 16.8867 10.4213 16.9933Q10.3265 17.0999 10.3265 17.2453L10.3265 21.0214Q10.3265 21.1668 10.4213 21.2734Q10.5161 21.38 10.6613 21.38ZM5.33905 19.9477Q5.46921 20.0238 5.60066 19.9809Q5.73212 19.9379 5.811 19.8105L7.70386 16.5425Q7.77039 16.4153 7.74422 16.2754Q7.71805 16.1356 7.59064 16.0664Q7.44644 15.9901 7.3172 16.0318Q7.18796 16.0735 7.10892 16.2007L5.21881 19.4687Q5.14252 19.5961 5.17227 19.7338Q5.20203 19.8715 5.33905 19.9477ZM1.43509 16.048Q1.50864 16.1781 1.64635 16.2078Q1.78406 16.2375 1.91132 16.1641L5.17929 14.2711Q5.3067 14.1922 5.35316 14.0629Q5.39963 13.9336 5.32349 13.8062Q5.2446 13.6691 5.10475 13.6395Q4.9649 13.6098 4.83749 13.6761L1.56952 15.5692Q1.44226 15.648 1.39923 15.7809Q1.3562 15.9137 1.43509 16.048ZM0 10.6949Q0 10.8569 0.106659 10.9552Q0.213318 11.0535 0.358582 11.0535L4.13483 11.0535Q4.28284 11.0535 4.38812 10.9552Q4.49341 10.8569 4.49341 10.6949Q4.49341 10.5496 4.38812 10.4549Q4.28284 10.3601 4.13483 10.3601L0.358582 10.3601Q0.213318 10.3601 0.106659 10.4549Q0 10.5496 0 10.6949ZM1.43509 5.36285Q1.3562 5.50003 1.39923 5.63278Q1.44226 5.76553 1.56952 5.84457L4.83749 7.73743Q4.9649 7.81097 5.10475 7.77771Q5.2446 7.74445 5.32349 7.61017Q5.39963 7.48001 5.35316 7.35069Q5.3067 7.22137 5.17929 7.14249L1.91132 5.24963Q1.78406 5.17609 1.64635 5.20576Q1.50864 5.23544 1.43509 5.36285ZM5.33905 1.45615Q5.19485 1.53244 5.16869 1.67496Q5.14252 1.81747 5.21881 1.94489L7.10892 5.21286Q7.18796 5.34027 7.32071 5.38673Q7.45346 5.4332 7.58789 5.34729Q7.71103 5.271 7.74071 5.13466Q7.77039 4.99832 7.70386 4.87106L5.811 1.60034Q5.73212 1.47293 5.60066 1.42998Q5.46921 1.38702 5.33905 1.45615Z" fill="#ffffff"/>
 </g>
</svg>
