<?xml version="1.0" encoding="UTF-8"?>
<!--Generator: Apple Native CoreSVG 175.5-->
<!DOCTYPE svg
PUBLIC "-//W3C//DTD SVG 1.1//EN"
       "http://www.w3.org/Graphics/SVG/1.1/DTD/svg11.dtd">
<svg version="1.1" xmlns="http://www.w3.org/2000/svg" xmlns:xlink="http://www.w3.org/1999/xlink" width="23.3398" height="18.1738">
 <g>
  <rect height="18.1738" opacity="0" width="23.3398" x="0" y="0"/>
  <path d="M7.19727 17.1484L18.9648 17.1484Q20.2832 17.1484 21.2646 16.6016Q22.2461 16.0547 22.793 15.127Q23.3398 14.1992 23.3398 13.0469Q23.3301 12.0898 22.9297 11.2695Q22.5293 10.4492 21.8213 9.86328Q21.1133 9.27734 20.1855 9.0332Q20.0684 7.8418 19.4189 6.875Q18.7695 5.9082 17.7539 5.3418Q16.7383 4.77539 15.5371 4.77539Q14.3945 4.77539 13.3984 5.28809Q12.4023 5.80078 11.7285 6.69922Q11.4648 6.64062 11.1768 6.59668Q10.8887 6.55273 10.6055 6.55273Q9.66797 6.5625 8.8623 6.97266Q8.05664 7.38281 7.50977 8.09082Q6.96289 8.79883 6.77734 9.70703Q5.80078 9.81445 5.01953 10.332Q4.23828 10.8496 3.78906 11.6504Q3.33984 12.4512 3.33984 13.418Q3.33984 14.4922 3.83789 15.3369Q4.33594 16.1816 5.20996 16.665Q6.08398 17.1484 7.19727 17.1484ZM7.19727 15.6738Q6.13281 15.6738 5.47363 15.0488Q4.81445 14.4238 4.81445 13.418Q4.81445 12.7832 5.12695 12.2705Q5.43945 11.7578 5.9668 11.4502Q6.49414 11.1426 7.1582 11.1328Q7.66602 11.123 7.89551 10.9424Q8.125 10.7617 8.16406 10.332Q8.24219 9.32617 8.93066 8.67676Q9.61914 8.02734 10.6055 8.02734Q10.8887 8.02734 11.0986 8.07617Q11.3086 8.125 11.6113 8.24219Q12.0117 8.39844 12.2559 8.3252Q12.5 8.25195 12.666 7.92969Q13.0469 7.16797 13.8232 6.71387Q14.5996 6.25977 15.5371 6.25Q16.416 6.25 17.1436 6.68945Q17.8711 7.12891 18.3008 7.86133Q18.7305 8.59375 18.7305 9.48242Q18.7305 9.99023 18.9111 10.1904Q19.0918 10.3906 19.5898 10.459Q20.2344 10.5273 20.7471 10.8936Q21.2598 11.2598 21.5625 11.8262Q21.8652 12.3926 21.8652 13.0469Q21.8652 13.8379 21.499 14.4287Q21.1328 15.0195 20.4834 15.3467Q19.834 15.6738 18.9648 15.6738ZM0 8.28125Q0 9.38477 0.551758 10.3027Q1.10352 11.2207 2.10449 11.7773Q3.10547 12.334 4.46289 12.334L4.56055 12.334L5.01953 10.8594L4.66797 10.8594Q3.70117 10.8594 2.9834 10.5225Q2.26562 10.1855 1.87012 9.60449Q1.47461 9.02344 1.47461 8.28125Q1.47461 7.59766 1.78223 7.02637Q2.08984 6.45508 2.6123 6.08887Q3.13477 5.72266 3.75977 5.64453Q4.20898 5.5957 4.39453 5.37109Q4.58008 5.14648 4.58008 4.67773Q4.57031 3.81836 5.00977 3.09082Q5.44922 2.36328 6.19141 1.91895Q6.93359 1.47461 7.82227 1.47461Q8.7207 1.48438 9.43848 1.91895Q10.1562 2.35352 10.6445 3.14453Q10.8203 3.42773 11.0889 3.50098Q11.3574 3.57422 11.7285 3.45703Q11.9336 3.39844 12.2168 3.33984Q12.5 3.28125 12.8223 3.28125Q13.7207 3.28125 14.375 3.8916Q15.0293 4.50195 15.0586 5.40039L16.5625 5.40039Q16.543 4.39453 16.0498 3.5791Q15.5566 2.76367 14.7412 2.28516Q13.9258 1.80664 12.9297 1.80664Q12.5586 1.80664 12.2363 1.85059Q11.9141 1.89453 11.6406 1.97266Q10.8008 0.966797 9.86816 0.483398Q8.93555 0 7.82227 0Q6.61133 0.00976562 5.59082 0.576172Q4.57031 1.14258 3.91113 2.10938Q3.25195 3.07617 3.11523 4.27734Q2.19727 4.52148 1.49414 5.10742Q0.791016 5.69336 0.395508 6.51367Q0 7.33398 0 8.28125Z" fill="#ffffff"/>
 </g>
</svg>
