<?xml version="1.0" encoding="UTF-8"?>
<!--Generator: Apple Native CoreSVG 175.5-->
<!DOCTYPE svg
PUBLIC "-//W3C//DTD SVG 1.1//EN"
       "http://www.w3.org/Graphics/SVG/1.1/DTD/svg11.dtd">
<svg version="1.1" xmlns="http://www.w3.org/2000/svg" xmlns:xlink="http://www.w3.org/1999/xlink" width="17.3069" height="19.7559">
 <g>
  <rect height="19.7559" opacity="0" width="17.3069" x="0" y="0"/>
  <path d="M8.6556 19.7461Q8.97786 19.7461 9.15853 19.5459Q9.33919 19.3457 9.33919 19.0234L9.33919 16.9043L11.0189 17.8613Q11.2826 18.0078 11.5413 17.9688Q11.8001 17.9297 11.9564 17.666Q12.0833 17.4414 12.0052 17.1875Q11.9271 16.9336 11.6536 16.7773L9.33919 15.459L9.33919 14.2188L9.14388 10.7324L12.0833 12.6367L13.1673 13.252L13.1478 15.918Q13.138 16.2402 13.3187 16.4404Q13.4993 16.6406 13.7533 16.6406Q14.0658 16.6406 14.2269 16.4355Q14.388 16.2305 14.388 15.918L14.3978 13.9648L16.2435 15.0391Q16.5267 15.2051 16.7855 15.1416Q17.0443 15.0781 17.1908 14.8145Q17.347 14.541 17.2738 14.2725Q17.2005 14.0039 16.9271 13.8574L15.0814 12.793L16.7611 11.8066Q17.0247 11.6406 17.1224 11.4062Q17.2201 11.1719 17.0638 10.9082Q16.9173 10.6738 16.6585 10.6201Q16.3997 10.5664 16.1361 10.7227L13.8411 12.0703L12.7572 11.4551L9.60286 9.87305L12.7669 8.29102L13.8314 7.66602L16.1263 9.01367Q16.3997 9.16992 16.6683 9.11621Q16.9368 9.0625 17.0736 8.83789Q17.2201 8.57422 17.1224 8.33496Q17.0247 8.0957 16.7611 7.92969L15.0814 6.95312L16.9271 5.88867Q17.2103 5.72266 17.2835 5.46875Q17.3568 5.21484 17.2005 4.93164Q17.0443 4.66797 16.7855 4.60449Q16.5267 4.54102 16.2533 4.70703L14.3978 5.76172L14.3783 3.81836Q14.3783 3.50586 14.222 3.30566Q14.0658 3.10547 13.763 3.10547Q13.4896 3.10547 13.3138 3.30566Q13.138 3.50586 13.1478 3.81836L13.1576 6.47461L12.0833 7.09961L9.14388 9.01367L9.33919 5.51758L9.33919 4.27734L11.6536 2.96875Q11.9271 2.80273 12.0052 2.55371Q12.0833 2.30469 11.9564 2.07031Q11.8001 1.80664 11.5413 1.76758Q11.2826 1.72852 11.0189 1.88477L9.33919 2.8418L9.33919 0.712891Q9.33919 0.400391 9.15853 0.200195Q8.97786 0 8.6556 0Q8.35286 0 8.16732 0.200195Q7.98177 0.400391 7.98177 0.712891L7.98177 2.8418L6.27279 1.88477Q5.99935 1.72852 5.75521 1.76758Q5.51107 1.80664 5.34505 2.07031Q5.2181 2.30469 5.30111 2.55371Q5.38411 2.80273 5.65755 2.95898L7.98177 4.27734L7.98177 5.51758L8.16732 9.01367L5.22786 7.09961L4.14388 6.47461L4.16341 3.81836Q4.17318 3.50586 3.9974 3.30566Q3.82161 3.10547 3.55794 3.10547Q3.23568 3.10547 3.07943 3.30566Q2.92318 3.50586 2.92318 3.81836L2.91341 5.76172L1.05794 4.70703Q0.794271 4.55078 0.525716 4.60938Q0.257161 4.66797 0.110677 4.93164Q-0.0553385 5.21484 0.0276693 5.47363Q0.110677 5.73242 0.384115 5.88867L2.22005 6.95312L0.55013 7.92969Q0.286458 8.0957 0.188802 8.3252Q0.0911458 8.55469 0.23763 8.83789Q0.364583 9.07227 0.633138 9.12109Q0.901693 9.16992 1.1849 9.01367L3.47005 7.67578L4.54427 8.29102L7.69857 9.87305L4.54427 11.4551L3.47005 12.0801L1.17513 10.7227Q0.901693 10.5664 0.642904 10.6201Q0.384115 10.6738 0.257161 10.8984Q0.100911 11.1816 0.193685 11.4111Q0.286458 11.6406 0.55013 11.8066L2.22982 12.793L0.384115 13.8574Q0.110677 14.0137 0.0325521 14.2773Q-0.0455729 14.541 0.110677 14.8047Q0.266927 15.0879 0.530599 15.1416Q0.794271 15.1953 1.05794 15.0391L2.91341 13.9844L2.92318 15.918Q2.92318 16.2305 3.07943 16.4355Q3.23568 16.6406 3.54818 16.6406Q3.81185 16.6406 3.99251 16.4404Q4.17318 16.2402 4.16341 15.918L4.15365 13.252L5.22786 12.6465L8.16732 10.7324L7.98177 14.2188L7.98177 15.459L5.65755 16.7773Q5.38411 16.9336 5.30111 17.1875Q5.2181 17.4414 5.34505 17.666Q5.51107 17.9297 5.75521 17.9688Q5.99935 18.0078 6.27279 17.8613L7.98177 16.8945L7.98177 19.0234Q7.98177 19.3457 8.16732 19.5459Q8.35286 19.7461 8.6556 19.7461Z" fill="#ffffff"/>
 </g>
</svg>
