<?xml version="1.0" encoding="UTF-8"?>
<!--Generator: Apple Native CoreSVG 175.5-->
<!DOCTYPE svg
PUBLIC "-//W3C//DTD SVG 1.1//EN"
       "http://www.w3.org/Graphics/SVG/1.1/DTD/svg11.dtd">
<svg version="1.1" xmlns="http://www.w3.org/2000/svg" xmlns:xlink="http://www.w3.org/1999/xlink" width="19.0234" height="19.0137">
 <g>
  <rect height="19.0137" opacity="0" width="19.0234" x="0" y="0"/>
  <path d="M9.51172 19.0039Q9.78516 19.0039 9.98047 18.8232Q10.1758 18.6426 10.2246 18.3496Q10.4785 16.3965 10.791 15.0635Q11.1035 13.7305 11.6162 12.876Q12.1289 12.0215 12.9736 11.5137Q13.8184 11.0059 15.127 10.7178Q16.4355 10.4297 18.3398 10.2148Q18.6328 10.1855 18.8281 9.98535Q19.0234 9.78516 19.0234 9.50195Q19.0234 9.21875 18.8281 9.01855Q18.6328 8.81836 18.3398 8.7793Q16.4355 8.57422 15.127 8.28613Q13.8184 7.99805 12.9736 7.49023Q12.1289 6.98242 11.6162 6.12793Q11.1035 5.27344 10.791 3.93555Q10.4785 2.59766 10.2246 0.644531Q10.1758 0.351562 9.98047 0.175781Q9.78516 0 9.51172 0Q9.23828 0 9.04297 0.175781Q8.84766 0.351562 8.79883 0.644531Q8.54492 2.59766 8.23242 3.93555Q7.91992 5.27344 7.40234 6.12793Q6.88477 6.98242 6.04004 7.49023Q5.19531 7.99805 3.8916 8.28613Q2.58789 8.57422 0.683594 8.7793Q0.380859 8.81836 0.19043 9.01855Q0 9.21875 0 9.50195Q0 9.78516 0.19043 9.98535Q0.380859 10.1855 0.683594 10.2148Q2.27539 10.4297 3.4375 10.6689Q4.59961 10.9082 5.41992 11.2598Q6.24023 11.6113 6.79199 12.1631Q7.34375 12.7148 7.70508 13.54Q8.06641 14.3652 8.32031 15.5469Q8.57422 16.7285 8.79883 18.3496Q8.84766 18.6426 9.04297 18.8232Q9.23828 19.0039 9.51172 19.0039Z" fill="#ffffff"/>
 </g>
</svg>
