<?xml version="1.0" encoding="UTF-8"?>
<!--Generator: Apple Native CoreSVG 175-->
<!DOCTYPE svg
PUBLIC "-//W3C//DTD SVG 1.1//EN"
       "http://www.w3.org/Graphics/SVG/1.1/DTD/svg11.dtd">
<svg version="1.1" xmlns="http://www.w3.org/2000/svg" xmlns:xlink="http://www.w3.org/1999/xlink" width="16.3477" height="18.6621">
 <g>
  <rect height="18.6621" opacity="0" width="16.3477" x="0" y="0"/>
  <path d="M3.23242 12.832L6.25 12.832Q6.46484 12.832 6.62109 12.9785L11.3086 17.1484Q11.4941 17.3047 11.6846 17.4121Q11.875 17.5195 12.0996 17.5195Q12.2461 17.5195 12.3535 17.4756Q12.4609 17.4316 12.5488 17.3438L11.7969 16.6309L7.05078 12.4023Q6.88477 12.2656 6.72363 12.2119Q6.5625 12.1582 6.33789 12.1582L3.25195 12.1582Q2.88086 12.1582 2.73438 12.0068Q2.58789 11.8555 2.58789 11.4844L2.58789 7.38281L1.96289 6.75781Q1.92383 6.86523 1.89941 7.00195Q1.875 7.13867 1.875 7.30469L1.875 11.4551Q1.875 12.1582 2.21191 12.4951Q2.54883 12.832 3.23242 12.832ZM12.793 12.627L12.793 1.88477Q12.793 1.58203 12.6123 1.35742Q12.4316 1.13281 12.0898 1.13281Q11.8652 1.13281 11.6846 1.24512Q11.5039 1.35742 11.3086 1.52344L6.26953 6.10352L6.76758 6.60156L11.6797 2.11914Q11.7383 2.06055 11.792 2.02148Q11.8457 1.98242 11.9141 1.98242Q12.0801 1.98242 12.0801 2.14844L12.0801 11.9141Z" fill="#007aff"/>
  <path d="M15.7227 18.5547Q15.8301 18.6621 15.9814 18.6621Q16.1328 18.6621 16.2305 18.5547Q16.3477 18.4375 16.3477 18.291Q16.3477 18.1445 16.2305 18.0469L0.615234 2.42188Q0.517578 2.32422 0.371094 2.31934Q0.224609 2.31445 0.107422 2.42188Q0 2.5293 0 2.68066Q0 2.83203 0.107422 2.93945Z" fill="#ffffff"/>
 </g>
</svg>
