<?xml version="1.0" encoding="UTF-8"?>
<!--Generator: Apple Native CoreSVG 175.5-->
<!DOCTYPE svg
PUBLIC "-//W3C//DTD SVG 1.1//EN"
       "http://www.w3.org/Graphics/SVG/1.1/DTD/svg11.dtd">
<svg version="1.1" xmlns="http://www.w3.org/2000/svg" xmlns:xlink="http://www.w3.org/1999/xlink" width="23.5742" height="18.7793">
 <g>
  <rect height="18.7793" opacity="0" width="23.5742" x="0" y="0"/>
  <path d="M10.6543 1.05469L5.625 0.498047Q4.96094 0.429688 4.53613 0.800781Q4.11133 1.17188 4.11133 1.80664Q4.11133 2.44141 4.53613 2.81738Q4.96094 3.19336 5.625 3.11523L10.6543 2.56836ZM11.543 3.61328Q12.0508 3.61328 12.4609 3.37402Q12.8711 3.13477 13.1152 2.71973Q13.3594 2.30469 13.3594 1.80664Q13.3594 1.30859 13.1152 0.898438Q12.8711 0.488281 12.4609 0.244141Q12.0508 0 11.543 0Q11.0449 0 10.6348 0.244141Q10.2246 0.488281 9.98047 0.898438Q9.73633 1.30859 9.73633 1.80664Q9.73633 2.30469 9.98047 2.71973Q10.2246 3.13477 10.6348 3.37402Q11.0449 3.61328 11.543 3.61328ZM12.4316 1.05469L12.4316 2.56836L17.4707 3.11523Q18.125 3.19336 18.5498 2.81738Q18.9746 2.44141 18.9746 1.80664Q18.9746 1.17188 18.5498 0.800781Q18.125 0.429688 17.4707 0.498047ZM10.6836 2.91992L10.6836 5.22461L12.4121 5.22461L12.4121 2.91992ZM13.125 7.29492L14.4531 7.29492L14.4531 5.83008Q14.4531 5.19531 14.0527 4.79004Q13.6523 4.38477 13.0176 4.38477L10.0488 4.38477Q9.41406 4.38477 9.00879 4.79004Q8.60352 5.19531 8.60352 5.83008L8.60352 7.29492L9.93164 7.29492L9.93164 5.97656Q9.93164 5.51758 10.3906 5.51758L12.6758 5.51758Q13.125 5.51758 13.125 5.97656ZM11.5332 17.1289Q12.3828 17.1289 13.0566 16.9092Q13.7305 16.6895 14.3066 16.2891Q14.8828 15.8887 15.4492 15.3711Q15.7422 15.0879 16.0889 14.9414Q16.4355 14.7949 16.7676 14.7949Q17.373 14.7949 17.793 15.2295Q18.2129 15.6641 18.2129 16.5039L18.2129 17.8711Q18.2129 18.2715 18.457 18.5156Q18.7012 18.7598 19.1016 18.7598L22.6758 18.7598Q23.0762 18.7598 23.3252 18.5107Q23.5742 18.2617 23.5742 17.8711L23.5742 16.9531Q23.5742 14.8047 22.9834 13.3252Q22.3926 11.8457 21.4111 10.9473Q20.4297 10.0488 19.2383 9.64355Q18.0469 9.23828 16.8359 9.23828L16.416 9.23828Q16.2207 9.23828 16.1523 9.0625L15.5566 7.46094Q15.2637 6.64062 14.5117 6.64062L8.54492 6.64062Q7.80273 6.64062 7.5 7.46094L6.91406 9.0625Q6.83594 9.23828 6.65039 9.23828L0.625 9.23828L0.625 10.6641L6.74805 10.6641Q7.44141 10.6641 7.74414 10.3906Q8.04688 10.1172 8.23242 9.61914L8.79883 8.06641L14.2676 8.06641L14.834 9.61914Q15.0195 10.1172 15.3174 10.3906Q15.6152 10.6641 16.3184 10.6641L16.8262 10.6641Q17.9004 10.6641 18.8623 10.9961Q19.8242 11.3281 20.5664 12.0605Q21.3086 12.793 21.7334 13.999Q22.1582 15.2051 22.1582 16.9531L22.1582 17.334L19.6387 17.334L19.6387 16.5039Q19.6387 15.5469 19.3848 14.9316Q19.1309 14.3164 18.7158 13.9746Q18.3008 13.6328 17.8125 13.4912Q17.3242 13.3496 16.8555 13.3496Q16.123 13.3496 15.5469 13.6279Q14.9707 13.9062 14.4531 14.4043Q14.1406 14.6875 13.7402 14.9902Q13.3398 15.293 12.8027 15.498Q12.2656 15.7031 11.5332 15.7031Q10.7812 15.7031 10.2246 15.5029Q9.66797 15.3027 9.24316 14.9707Q8.81836 14.6387 8.47656 14.2578Q8.17383 13.8965 7.88574 13.6914Q7.59766 13.4863 7.24609 13.4033Q6.89453 13.3203 6.39648 13.3203L0.625 13.3203L0.625 14.7461L6.31836 14.7461Q6.72852 14.7461 6.94336 14.8291Q7.1582 14.9121 7.43164 15.2148Q7.92969 15.7617 8.55469 16.1963Q9.17969 16.6309 9.92676 16.8799Q10.6738 17.1289 11.5332 17.1289ZM0.78125 16.9141Q1.11328 16.9141 1.34277 16.6797Q1.57227 16.4453 1.57227 16.123L1.57227 8.14453Q1.57227 7.82227 1.34277 7.58789Q1.11328 7.35352 0.78125 7.35352Q0.458984 7.35352 0.229492 7.58789Q0 7.82227 0 8.14453L0 16.123Q0 16.4453 0.229492 16.6797Q0.458984 16.9141 0.78125 16.9141Z" fill="#ffffff"/>
 </g>
</svg>
