<?xml version="1.0" encoding="UTF-8"?>
<!--Generator: Apple Native CoreSVG 175.5-->
<!DOCTYPE svg
PUBLIC "-//W3C//DTD SVG 1.1//EN"
       "http://www.w3.org/Graphics/SVG/1.1/DTD/svg11.dtd">
<svg version="1.1" xmlns="http://www.w3.org/2000/svg" xmlns:xlink="http://www.w3.org/1999/xlink" width="26.3867" height="17.998">
 <g>
  <rect height="17.998" opacity="0" width="26.3867" x="0" y="0"/>
  <path d="M3.06641 17.998L23.3301 17.998Q24.8633 17.998 25.625 17.2412Q26.3867 16.4844 26.3867 14.9707L26.3867 3.04688Q26.3867 1.5332 25.625 0.776367Q24.8633 0.0195312 23.3301 0.0195312L3.06641 0.0195312Q1.5332 0.0195312 0.766602 0.776367Q0 1.5332 0 3.04688L0 14.9707Q0 16.4844 0.766602 17.2412Q1.5332 17.998 3.06641 17.998ZM3.08594 16.4258Q2.35352 16.4258 1.96289 16.04Q1.57227 15.6543 1.57227 14.8926L1.57227 3.125Q1.57227 2.36328 1.96289 1.97754Q2.35352 1.5918 3.08594 1.5918L23.3008 1.5918Q24.0234 1.5918 24.4189 1.97754Q24.8145 2.36328 24.8145 3.125L24.8145 14.8926Q24.8145 15.6543 24.4189 16.04Q24.0234 16.4258 23.3008 16.4258ZM0 13.3496L3.98438 13.3496Q4.96094 13.3496 5.49805 12.8125Q6.03516 12.2754 6.03516 11.3184L6.03516 6.68945Q6.03516 5.72266 5.49805 5.19043Q4.96094 4.6582 3.98438 4.6582L0 4.6582L0 6.03516L3.97461 6.03516Q4.6582 6.03516 4.6582 6.72852L4.6582 11.2793Q4.6582 11.9727 3.97461 11.9727L0 11.9727ZM12.4805 16.6797L13.8574 16.6797L13.8574 1.33789L12.4805 1.33789ZM13.1543 13.6133Q14.5312 13.6133 15.5762 13.0322Q16.6211 12.4512 17.207 11.4111Q17.793 10.3711 17.7734 9.00391Q17.7637 7.65625 17.1729 6.62109Q16.582 5.58594 15.5469 5Q14.5117 4.41406 13.1543 4.4043Q11.8066 4.38477 10.7666 4.96582Q9.72656 5.54688 9.14551 6.58691Q8.56445 7.62695 8.56445 9.00391Q8.56445 10.3711 9.14551 11.4111Q9.72656 12.4512 10.7666 13.0322Q11.8066 13.6133 13.1543 13.6133ZM13.1641 12.3047Q12.1973 12.3047 11.4502 11.8848Q10.7031 11.4648 10.2832 10.7178Q9.86328 9.9707 9.86328 8.99414Q9.86328 8.02734 10.2832 7.28516Q10.7031 6.54297 11.4502 6.12793Q12.1973 5.71289 13.1641 5.71289Q14.1406 5.71289 14.8877 6.12793Q15.6348 6.54297 16.0547 7.28516Q16.4746 8.02734 16.4746 8.99414Q16.4648 9.9707 16.0449 10.7178Q15.625 11.4648 14.8779 11.8848Q14.1309 12.3047 13.1641 12.3047ZM26.3867 13.3496L26.3867 11.9727L22.4121 11.9727Q21.7383 11.9727 21.7383 11.2793L21.7383 6.72852Q21.7383 6.03516 22.4121 6.03516L26.3867 6.03516L26.3867 4.6582L22.4023 4.6582Q21.4258 4.6582 20.8936 5.19043Q20.3613 5.72266 20.3613 6.68945L20.3613 11.3184Q20.3613 12.2754 20.8936 12.8125Q21.4258 13.3496 22.4023 13.3496Z" fill="#ffffff"/>
 </g>
</svg>
