<?xml version="1.0" encoding="UTF-8"?>
<!--Generator: Apple Native CoreSVG 175.5-->
<!DOCTYPE svg
PUBLIC "-//W3C//DTD SVG 1.1//EN"
       "http://www.w3.org/Graphics/SVG/1.1/DTD/svg11.dtd">
<svg version="1.1" xmlns="http://www.w3.org/2000/svg" xmlns:xlink="http://www.w3.org/1999/xlink" width="20.5469" height="15.9473">
 <g>
  <rect height="15.9473" opacity="0" width="20.5469" x="0" y="0"/>
  <path d="M8.01758 4.14062L12.5195 4.14062Q13.0664 4.14062 13.4033 3.79883Q13.7402 3.45703 13.7402 2.91016L13.7402 2.08008Q13.7402 1.16211 13.1396 0.585938Q12.5391 0.00976562 11.5723 0.00976562L8.96484 0.00976562Q7.99805 0.00976562 7.39746 0.585938Q6.79688 1.16211 6.79688 2.08008L6.79688 2.91016Q6.79688 3.45703 7.13867 3.79883Q7.48047 4.14062 8.01758 4.14062ZM8.76953 6.39648L11.7773 6.39648L11.7773 3.56445L8.76953 3.56445ZM8.02734 9.82422L12.5195 9.82422Q13.0664 9.82422 13.4033 9.48242Q13.7402 9.14062 13.7402 8.59375L13.7402 6.82617Q13.7402 6.28906 13.4033 5.94727Q13.0664 5.60547 12.5195 5.60547L8.02734 5.60547Q7.48047 5.60547 7.13867 5.94727Q6.79688 6.28906 6.79688 6.82617L6.79688 8.59375Q6.79688 9.14062 7.13867 9.48242Q7.48047 9.82422 8.02734 9.82422ZM8.76953 15.0098L11.7773 15.0098L11.7773 9.23828L8.76953 9.23828ZM0 15.1562Q0 15.4883 0.229492 15.7178Q0.458984 15.9473 0.78125 15.9473L19.7559 15.9473Q20.0781 15.9473 20.3125 15.7178Q20.5469 15.4883 20.5469 15.1562Q20.5469 14.834 20.3125 14.6045Q20.0781 14.375 19.7559 14.375L0.78125 14.375Q0.458984 14.375 0.229492 14.6045Q0 14.834 0 15.1562Z" fill="#ffffff"/>
 </g>
</svg>
