<?xml version="1.0" encoding="UTF-8"?>
<!--Generator: Apple Native CoreSVG 175.5-->
<!DOCTYPE svg
PUBLIC "-//W3C//DTD SVG 1.1//EN"
       "http://www.w3.org/Graphics/SVG/1.1/DTD/svg11.dtd">
<svg version="1.1" xmlns="http://www.w3.org/2000/svg" xmlns:xlink="http://www.w3.org/1999/xlink" width="17.9395" height="17.959">
 <g>
  <rect height="17.959" opacity="0" width="17.9395" x="0" y="0"/>
  <path d="M0.830078 17.959Q1.17188 17.959 1.41602 17.7148Q1.66016 17.4707 1.66016 17.1289Q1.66016 16.7773 1.41602 16.5381Q1.17188 16.2988 0.830078 16.2988Q0.488281 16.2988 0.244141 16.5381Q0 16.7773 0 17.1289Q0 17.4707 0.244141 17.7148Q0.488281 17.959 0.830078 17.959ZM0.830078 15.2246Q1.17188 15.2246 1.41602 14.9805Q1.66016 14.7363 1.66016 14.3945Q1.66016 14.0527 1.41602 13.8086Q1.17188 13.5645 0.830078 13.5645Q0.488281 13.5645 0.244141 13.8086Q0 14.0527 0 14.3945Q0 14.7363 0.244141 14.9805Q0.488281 15.2246 0.830078 15.2246ZM0.830078 12.5195Q1.17188 12.5195 1.41602 12.2754Q1.66016 12.0312 1.66016 11.6895Q1.66016 11.3477 1.41602 11.1035Q1.17188 10.8594 0.830078 10.8594Q0.488281 10.8594 0.244141 11.1035Q0 11.3477 0 11.6895Q0 12.0312 0.244141 12.2754Q0.488281 12.5195 0.830078 12.5195ZM0.830078 9.80469Q1.17188 9.80469 1.41602 9.56055Q1.66016 9.31641 1.66016 8.97461Q1.66016 8.63281 1.41602 8.38867Q1.17188 8.14453 0.830078 8.14453Q0.488281 8.14453 0.244141 8.38867Q0 8.63281 0 8.97461Q0 9.31641 0.244141 9.56055Q0.488281 9.80469 0.830078 9.80469ZM0.830078 7.08008Q1.17188 7.08008 1.41602 6.84082Q1.66016 6.60156 1.66016 6.25977Q1.66016 5.9082 1.41602 5.66895Q1.17188 5.42969 0.830078 5.42969Q0.488281 5.42969 0.244141 5.66895Q0 5.9082 0 6.25977Q0 6.60156 0.244141 6.84082Q0.488281 7.08008 0.830078 7.08008ZM0.830078 4.39453Q1.17188 4.39453 1.41602 4.15039Q1.66016 3.90625 1.66016 3.56445Q1.66016 3.22266 1.41602 2.97852Q1.17188 2.73438 0.830078 2.73438Q0.488281 2.73438 0.244141 2.97852Q0 3.22266 0 3.56445Q0 3.90625 0.244141 4.15039Q0.488281 4.39453 0.830078 4.39453ZM0.830078 1.67969Q1.17188 1.67969 1.41602 1.43555Q1.66016 1.19141 1.66016 0.849609Q1.66016 0.507812 1.41602 0.263672Q1.17188 0.0195312 0.830078 0.0195312Q0.488281 0.0195312 0.244141 0.263672Q0 0.507812 0 0.849609Q0 1.19141 0.244141 1.43555Q0.488281 1.67969 0.830078 1.67969ZM3.54492 1.67969Q3.88672 1.67969 4.13086 1.43555Q4.375 1.19141 4.375 0.849609Q4.375 0.507812 4.13086 0.263672Q3.88672 0.0195312 3.54492 0.0195312Q3.20312 0.0195312 2.95898 0.263672Q2.71484 0.507812 2.71484 0.849609Q2.71484 1.19141 2.95898 1.43555Q3.20312 1.67969 3.54492 1.67969ZM6.25 1.67969Q6.5918 1.67969 6.83594 1.43555Q7.08008 1.19141 7.08008 0.849609Q7.08008 0.507812 6.83594 0.263672Q6.5918 0.0195312 6.25 0.0195312Q5.9082 0.0195312 5.66406 0.263672Q5.41992 0.507812 5.41992 0.849609Q5.41992 1.19141 5.66406 1.43555Q5.9082 1.67969 6.25 1.67969ZM8.96484 1.67969Q9.31641 1.67969 9.55566 1.43555Q9.79492 1.19141 9.79492 0.849609Q9.79492 0.507812 9.55566 0.263672Q9.31641 0.0195312 8.96484 0.0195312Q8.62305 0.0195312 8.37891 0.263672Q8.13477 0.507812 8.13477 0.849609Q8.13477 1.19141 8.37891 1.43555Q8.62305 1.67969 8.96484 1.67969ZM11.6895 1.67969Q12.0312 1.67969 12.2754 1.43555Q12.5195 1.19141 12.5195 0.849609Q12.5195 0.507812 12.2754 0.263672Q12.0312 0.0195312 11.6895 0.0195312Q11.3379 0.0195312 11.0986 0.263672Q10.8594 0.507812 10.8594 0.849609Q10.8594 1.19141 11.0986 1.43555Q11.3379 1.67969 11.6895 1.67969ZM14.3945 1.67969Q14.7363 1.67969 14.9756 1.43555Q15.2148 1.19141 15.2148 0.849609Q15.2148 0.507812 14.9756 0.263672Q14.7363 0.0195312 14.3945 0.0195312Q14.043 0.0195312 13.8037 0.263672Q13.5645 0.507812 13.5645 0.849609Q13.5645 1.19141 13.8037 1.43555Q14.043 1.67969 14.3945 1.67969ZM17.1094 1.67969Q17.4512 1.67969 17.6953 1.43555Q17.9395 1.19141 17.9395 0.849609Q17.9395 0.507812 17.6953 0.263672Q17.4512 0.0195312 17.1094 0.0195312Q16.7676 0.0195312 16.5234 0.263672Q16.2793 0.507812 16.2793 0.849609Q16.2793 1.19141 16.5234 1.43555Q16.7676 1.67969 17.1094 1.67969ZM17.1094 4.4043Q17.4512 4.4043 17.6953 4.16016Q17.9395 3.91602 17.9395 3.57422Q17.9395 3.23242 17.6953 2.98828Q17.4512 2.74414 17.1094 2.74414Q16.7676 2.74414 16.5234 2.98828Q16.2793 3.23242 16.2793 3.57422Q16.2793 3.91602 16.5234 4.16016Q16.7676 4.4043 17.1094 4.4043ZM17.1094 7.08984Q17.4512 7.08984 17.6953 6.85059Q17.9395 6.61133 17.9395 6.26953Q17.9395 5.91797 17.6953 5.67871Q17.4512 5.43945 17.1094 5.43945Q16.7676 5.43945 16.5234 5.67871Q16.2793 5.91797 16.2793 6.26953Q16.2793 6.61133 16.5234 6.85059Q16.7676 7.08984 17.1094 7.08984ZM17.1094 9.81445Q17.4512 9.81445 17.6953 9.57031Q17.9395 9.32617 17.9395 8.98438Q17.9395 8.64258 17.6953 8.39844Q17.4512 8.1543 17.1094 8.1543Q16.7676 8.1543 16.5234 8.39844Q16.2793 8.64258 16.2793 8.98438Q16.2793 9.32617 16.5234 9.57031Q16.7676 9.81445 17.1094 9.81445ZM17.1094 12.5293Q17.4512 12.5293 17.6953 12.2852Q17.9395 12.041 17.9395 11.6992Q17.9395 11.3574 17.6953 11.1133Q17.4512 10.8691 17.1094 10.8691Q16.7676 10.8691 16.5234 11.1133Q16.2793 11.3574 16.2793 11.6992Q16.2793 12.041 16.5234 12.2852Q16.7676 12.5293 17.1094 12.5293ZM17.1094 15.2344Q17.4512 15.2344 17.6953 14.9902Q17.9395 14.7461 17.9395 14.4043Q17.9395 14.0625 17.6953 13.8184Q17.4512 13.5742 17.1094 13.5742Q16.7676 13.5742 16.5234 13.8184Q16.2793 14.0625 16.2793 14.4043Q16.2793 14.7461 16.5234 14.9902Q16.7676 15.2344 17.1094 15.2344ZM17.1094 17.959Q17.4512 17.959 17.6953 17.7148Q17.9395 17.4707 17.9395 17.1289Q17.9395 16.7773 17.6953 16.5381Q17.4512 16.2988 17.1094 16.2988Q16.7676 16.2988 16.5234 16.5381Q16.2793 16.7773 16.2793 17.1289Q16.2793 17.4707 16.5234 17.7148Q16.7676 17.959 17.1094 17.959ZM14.3945 17.959Q14.7363 17.959 14.9756 17.7148Q15.2148 17.4707 15.2148 17.1289Q15.2148 16.7773 14.9756 16.5381Q14.7363 16.2988 14.3945 16.2988Q14.043 16.2988 13.8037 16.5381Q13.5645 16.7773 13.5645 17.1289Q13.5645 17.4707 13.8037 17.7148Q14.043 17.959 14.3945 17.959ZM11.6895 17.959Q12.0312 17.959 12.2754 17.7148Q12.5195 17.4707 12.5195 17.1289Q12.5195 16.7773 12.2754 16.5381Q12.0312 16.2988 11.6895 16.2988Q11.3379 16.2988 11.0986 16.5381Q10.8594 16.7773 10.8594 17.1289Q10.8594 17.4707 11.0986 17.7148Q11.3379 17.959 11.6895 17.959ZM8.96484 17.959Q9.31641 17.959 9.55566 17.7148Q9.79492 17.4707 9.79492 17.1289Q9.79492 16.7773 9.55566 16.5381Q9.31641 16.2988 8.96484 16.2988Q8.62305 16.2988 8.37891 16.5381Q8.13477 16.7773 8.13477 17.1289Q8.13477 17.4707 8.37891 17.7148Q8.62305 17.959 8.96484 17.959ZM6.25 17.959Q6.5918 17.959 6.83594 17.7148Q7.08008 17.4707 7.08008 17.1289Q7.08008 16.7773 6.83594 16.5381Q6.5918 16.2988 6.25 16.2988Q5.9082 16.2988 5.66406 16.5381Q5.41992 16.7773 5.41992 17.1289Q5.41992 17.4707 5.66406 17.7148Q5.9082 17.959 6.25 17.959ZM3.54492 17.959Q3.88672 17.959 4.13086 17.7148Q4.375 17.4707 4.375 17.1289Q4.375 16.7773 4.13086 16.5381Q3.88672 16.2988 3.54492 16.2988Q3.20312 16.2988 2.95898 16.5381Q2.71484 16.7773 2.71484 17.1289Q2.71484 17.4707 2.95898 17.7148Q3.20312 17.959 3.54492 17.959Z" fill="#007aff"/>
  <path d="M3.50586 13.623Q3.50586 13.9746 3.7207 14.1895Q3.93555 14.4043 4.28711 14.4043L13.6719 14.4043Q14.0234 14.4043 14.2383 14.1895Q14.4531 13.9746 14.4531 13.623L14.4531 4.31641Q14.4531 3.96484 14.2383 3.75488Q14.0234 3.54492 13.6719 3.54492L4.28711 3.54492Q3.93555 3.54492 3.7207 3.75488Q3.50586 3.96484 3.50586 4.31641ZM5.07812 12.5488L5.07812 5.40039Q5.07812 5.11719 5.36133 5.11719L12.5977 5.11719Q12.8809 5.11719 12.8809 5.40039L12.8809 12.5488Q12.8809 12.832 12.5977 12.832L5.36133 12.832Q5.07812 12.832 5.07812 12.5488Z" fill="#ffffff"/>
 </g>
</svg>
