<?xml version="1.0" encoding="UTF-8"?>
<!--Generator: Apple Native CoreSVG 175-->
<!DOCTYPE svg
PUBLIC "-//W3C//DTD SVG 1.1//EN"
       "http://www.w3.org/Graphics/SVG/1.1/DTD/svg11.dtd">
<svg version="1.1" xmlns="http://www.w3.org/2000/svg" xmlns:xlink="http://www.w3.org/1999/xlink" width="16.5605" height="22.6706">
 <g>
  <rect height="22.6706" opacity="0" width="16.5605" x="0" y="0"/>
  <path d="M2.63046 21.2956L13.9301 21.2956Q15.2243 21.2956 15.8924 20.6183Q16.5605 19.9409 16.5605 18.6691L16.5605 8.36761Q16.5605 7.09564 15.8924 6.4183Q15.2243 5.74097 13.9301 5.74097L11.0579 5.74097L11.0579 6.46957L13.9008 6.46957Q14.8203 6.46957 15.3297 6.95862Q15.8391 7.44766 15.8391 8.40622L15.8391 18.6304Q15.8391 19.5889 15.3297 20.078Q14.8203 20.5672 13.9008 20.5672L2.65701 20.5672Q1.7067 20.5672 1.21765 20.078Q0.728607 19.5889 0.728607 18.6304L0.728607 8.40622Q0.728607 7.44766 1.21765 6.95862Q1.7067 6.46957 2.65701 6.46957L5.51682 6.46957L5.51682 5.74097L2.63046 5.74097Q1.33636 5.74097 0.668182 6.40991Q0 7.07886 0 8.36761L0 18.6691Q0 19.9577 0.668182 20.6267Q1.33636 21.2956 2.63046 21.2956Z" fill="#007aff"/>
  <path d="M8.28247 13.9445Q8.42896 13.9445 8.53539 13.8394Q8.64182 13.7343 8.64182 13.5905L8.64182 2.43637L8.61832 1.06995L9.77188 2.24136L11.6641 4.16092Q11.7778 4.27567 11.9243 4.27567Q12.0583 4.27567 12.1543 4.17885Q12.2504 4.08203 12.2504 3.94089Q12.2504 3.81516 12.1426 3.70728L8.53943 0.115967Q8.47733 0.0538635 8.41232 0.0269318Q8.34732 0 8.28247 0Q8.21335 0 8.14827 0.0269318Q8.08319 0.0538635 8.01834 0.115967L4.40125 3.70728Q4.29611 3.81516 4.29611 3.94089Q4.29611 4.08203 4.3895 4.17885Q4.48288 4.27567 4.62662 4.27567Q4.77585 4.27567 4.88251 4.16092L6.77887 2.24136L7.9422 1.06293L7.9187 2.43637L7.9187 13.5905Q7.9187 13.7343 8.02521 13.8394Q8.13171 13.9445 8.28247 13.9445Z" fill="#ffffff"/>
 </g>
</svg>
