<?xml version="1.0" encoding="UTF-8"?>
<!--Generator: Apple Native CoreSVG 175.5-->
<!DOCTYPE svg
PUBLIC "-//W3C//DTD SVG 1.1//EN"
       "http://www.w3.org/Graphics/SVG/1.1/DTD/svg11.dtd">
<svg version="1.1" xmlns="http://www.w3.org/2000/svg" xmlns:xlink="http://www.w3.org/1999/xlink" width="22.0801" height="22.0801">
 <g>
  <rect height="22.0801" opacity="0" width="22.0801" x="0" y="0"/>
  <path d="M7.65625 8.4668L19.8145 8.4668L19.8145 6.89453L7.65625 6.89453ZM19.0332 19.8242L20.6055 19.8242L20.6055 7.67578L19.0332 7.67578ZM7.65625 20.6055L19.8145 20.6055L19.8145 19.0332L7.65625 19.0332ZM6.86523 19.8242L8.4375 19.8242L8.4375 7.67578L6.86523 7.67578ZM2.26562 15.1953L7.59766 15.1953L7.59766 13.623L2.26562 13.623ZM1.47461 14.4141L3.04688 14.4141L3.04688 2.26562L1.47461 2.26562ZM2.26562 3.05664L14.4238 3.05664L14.4238 1.48438L2.26562 1.48438ZM13.6426 7.8125L15.2148 7.8125L15.2148 2.26562L13.6426 2.26562Z" fill="#007aff"/>
  <path d="M7.65625 9.94141Q8.28125 9.94141 8.79395 9.63867Q9.30664 9.33594 9.60938 8.81836Q9.91211 8.30078 9.91211 7.67578Q9.91211 7.05078 9.60938 6.53809Q9.30664 6.02539 8.79395 5.72266Q8.28125 5.41992 7.65625 5.41992Q7.02148 5.41992 6.50879 5.72266Q5.99609 6.02539 5.69336 6.53809Q5.39062 7.05078 5.39062 7.67578Q5.39062 8.30078 5.69336 8.81836Q5.99609 9.33594 6.50879 9.63867Q7.02148 9.94141 7.65625 9.94141ZM19.8145 9.94141Q20.4395 9.94141 20.9521 9.63867Q21.4648 9.33594 21.7725 8.81836Q22.0801 8.30078 22.0801 7.67578Q22.0801 7.05078 21.7725 6.53809Q21.4648 6.02539 20.9521 5.72266Q20.4395 5.41992 19.8145 5.41992Q19.1895 5.41992 18.6768 5.72266Q18.1641 6.02539 17.8564 6.53809Q17.5488 7.05078 17.5488 7.67578Q17.5488 8.30078 17.8564 8.81836Q18.1641 9.33594 18.6768 9.63867Q19.1895 9.94141 19.8145 9.94141ZM19.8145 22.0801Q20.4395 22.0801 20.9521 21.7773Q21.4648 21.4746 21.7725 20.9619Q22.0801 20.4492 22.0801 19.8242Q22.0801 19.1992 21.7725 18.6865Q21.4648 18.1738 20.9521 17.8662Q20.4395 17.5586 19.8145 17.5586Q19.1895 17.5586 18.6768 17.8662Q18.1641 18.1738 17.8564 18.6865Q17.5488 19.1992 17.5488 19.8242Q17.5488 20.4492 17.8564 20.9619Q18.1641 21.4746 18.6768 21.7773Q19.1895 22.0801 19.8145 22.0801ZM7.65625 22.0801Q8.28125 22.0801 8.79395 21.7773Q9.30664 21.4746 9.60938 20.9619Q9.91211 20.4492 9.91211 19.8242Q9.91211 19.1992 9.60938 18.6865Q9.30664 18.1738 8.79395 17.8662Q8.28125 17.5586 7.65625 17.5586Q7.02148 17.5586 6.50879 17.8662Q5.99609 18.1738 5.69336 18.6865Q5.39062 19.1992 5.39062 19.8242Q5.39062 20.4492 5.69336 20.9619Q5.99609 21.4746 6.50879 21.7773Q7.02148 22.0801 7.65625 22.0801ZM2.26562 16.6797Q2.91992 16.6797 3.42773 16.3721Q3.93555 16.0645 4.22852 15.5518Q4.52148 15.0391 4.52148 14.4141Q4.52148 13.7891 4.21875 13.2764Q3.91602 12.7637 3.40332 12.4561Q2.89062 12.1484 2.26562 12.1484Q1.64062 12.1484 1.12305 12.4561Q0.605469 12.7637 0.302734 13.2764Q0 13.7891 0 14.4141Q0 15.0391 0.302734 15.5518Q0.605469 16.0645 1.12305 16.3721Q1.64062 16.6797 2.26562 16.6797ZM2.26562 4.53125Q2.89062 4.53125 3.40332 4.22852Q3.91602 3.92578 4.21875 3.41309Q4.52148 2.90039 4.52148 2.26562Q4.52148 1.64062 4.21875 1.12793Q3.91602 0.615234 3.40332 0.3125Q2.89062 0.00976562 2.26562 0.00976562Q1.64062 0.00976562 1.12305 0.3125Q0.605469 0.615234 0.302734 1.12793Q0 1.64062 0 2.26562Q0 2.90039 0.302734 3.41309Q0.605469 3.92578 1.12305 4.22852Q1.64062 4.53125 2.26562 4.53125ZM14.4238 4.53125Q15.0488 4.53125 15.5615 4.22852Q16.0742 3.92578 16.3818 3.41309Q16.6895 2.90039 16.6895 2.26562Q16.6895 1.64062 16.3818 1.12793Q16.0742 0.615234 15.5615 0.3125Q15.0488 0.00976562 14.4238 0.00976562Q13.7988 0.00976562 13.2861 0.3125Q12.7734 0.615234 12.4658 1.12793Q12.1582 1.64062 12.1582 2.26562Q12.1582 2.90039 12.4658 3.41309Q12.7734 3.92578 13.2861 4.22852Q13.7988 4.53125 14.4238 4.53125Z" fill="#ffffff"/>
 </g>
</svg>
