<?xml version="1.0" encoding="UTF-8"?>
<!--Generator: Apple Native CoreSVG 175-->
<!DOCTYPE svg
PUBLIC "-//W3C//DTD SVG 1.1//EN"
       "http://www.w3.org/Graphics/SVG/1.1/DTD/svg11.dtd">
<svg version="1.1" xmlns="http://www.w3.org/2000/svg" xmlns:xlink="http://www.w3.org/1999/xlink" width="21.1223" height="15.8441">
 <g>
  <rect height="15.8441" opacity="0" width="21.1223" x="0" y="0"/>
  <path d="M2.46918 11.3492L18.6531 11.3492Q19.8856 11.3492 20.5039 10.7441Q21.1223 10.139 21.1223 8.89801L21.1223 2.45117Q21.1223 1.21445 20.5039 0.607224Q19.8856 0 18.6531 0L2.46918 0Q1.23245 0 0.616226 0.607224Q0 1.21445 0 2.45117L0 8.89801Q0 10.139 0.616226 10.7441Q1.23245 11.3492 2.46918 11.3492ZM2.46765 10.6418Q1.56494 10.6418 1.14677 10.218Q0.728607 9.79416 0.728607 8.88321L0.728607 2.46597Q0.728607 1.5593 1.14677 1.13197Q1.56494 0.704651 2.46765 0.704651L18.6478 0.704651Q19.5532 0.704651 19.9735 1.13197Q20.3938 1.5593 20.3938 2.46597L20.3938 8.88321Q20.3938 9.79416 19.9735 10.218Q19.5532 10.6418 18.6478 10.6418Z" fill="#007aff"/>
  <path d="M0.632019 15.8434L2.76291 15.8434Q2.90741 15.8434 2.99767 15.7545Q3.08792 15.6656 3.08792 15.5351L3.08792 13.4097Q3.08792 13.2597 2.99904 13.1709Q2.91016 13.082 2.76291 13.082L0.632019 13.082Q0.297241 13.082 0.297241 13.4097L0.297241 15.5351Q0.297241 15.6656 0.387497 15.7545Q0.477753 15.8434 0.632019 15.8434ZM5.06531 15.8434L7.20322 15.8434Q7.3407 15.8434 7.43088 15.7545Q7.52106 15.6656 7.52106 15.5351L7.52106 13.4097Q7.52106 13.2597 7.43225 13.1709Q7.34344 13.082 7.20322 13.082L5.06531 13.082Q4.73053 13.082 4.73053 13.4097L4.73053 15.5351Q4.73053 15.6656 4.82071 15.7545Q4.91089 15.8434 5.06531 15.8434ZM9.49844 15.8434L11.6364 15.8434Q11.7738 15.8434 11.8676 15.7545Q11.9614 15.6656 11.9614 15.5351L11.9614 13.4097Q11.9614 13.2597 11.869 13.1709Q11.7766 13.082 11.6364 13.082L9.49844 13.082Q9.16367 13.082 9.16367 13.4097L9.16367 15.5351Q9.16367 15.6656 9.25743 15.7545Q9.3512 15.8434 9.49844 15.8434ZM13.9317 15.8434L16.0696 15.8434Q16.2141 15.8434 16.3044 15.7545Q16.3947 15.6656 16.3947 15.5351L16.3947 13.4097Q16.3947 13.2597 16.3058 13.1709Q16.2169 13.082 16.0696 13.082L13.9317 13.082Q13.597 13.082 13.597 13.4097L13.597 15.5351Q13.597 15.6656 13.6907 15.7545Q13.7845 15.8434 13.9317 15.8434ZM18.3719 15.8434L20.5028 15.8434Q20.6473 15.8434 20.7375 15.7545Q20.8278 15.6656 20.8278 15.5351L20.8278 13.4097Q20.8278 13.2597 20.7389 13.1709Q20.65 13.082 20.5028 13.082L18.3719 13.082Q18.0371 13.082 18.0371 13.4097L18.0371 15.5351Q18.0371 15.6656 18.1274 15.7545Q18.2176 15.8434 18.3719 15.8434Z" fill="#ffffff"/>
 </g>
</svg>
