<?xml version="1.0" encoding="UTF-8"?>
<!--Generator: Apple Native CoreSVG 175-->
<!DOCTYPE svg
PUBLIC "-//W3C//DTD SVG 1.1//EN"
       "http://www.w3.org/Graphics/SVG/1.1/DTD/svg11.dtd">
<svg version="1.1" xmlns="http://www.w3.org/2000/svg" xmlns:xlink="http://www.w3.org/1999/xlink" width="21.1313" height="25.2872">
 <g>
  <rect height="25.2872" opacity="0" width="21.1313" x="0" y="0"/>
  <path d="M2.63046 21.293L13.9301 21.293Q15.2243 21.293 15.8924 20.6206Q16.5605 19.9481 16.5605 18.6664L16.5605 8.36761Q16.5605 7.09305 15.8924 6.42059Q15.2243 5.74814 13.9301 5.74814L11.0579 5.74814L11.0579 6.46957L13.9008 6.46957Q14.8203 6.46957 15.3297 6.96075Q15.8391 7.45193 15.8391 8.40363L15.8391 18.6305Q15.8391 19.5891 15.3297 20.0768Q14.8203 20.5644 13.9008 20.5644L2.65701 20.5644Q1.7067 20.5644 1.21765 20.0768Q0.728607 19.5891 0.728607 18.6305L0.728607 8.40363Q0.728607 7.45193 1.21765 6.96075Q1.7067 6.46957 2.65701 6.46957L5.51682 6.46957L5.51682 5.74814L2.63046 5.74814Q1.33636 5.74814 0.668182 6.41357Q0 7.07901 0 8.36761L0 18.6664Q0 19.9622 0.668182 20.6276Q1.33636 21.293 2.63046 21.293ZM7.91168 25.1958L18.4938 25.1958Q19.7949 25.1958 20.4631 24.5303Q21.1313 23.8649 21.1313 22.5691L21.1313 12.2774Q21.1313 10.9818 20.4631 10.3163Q19.7949 9.65088 18.4938 9.65088L16.2848 9.65088L16.2848 10.3723L18.4743 10.3723Q19.4246 10.3723 19.9136 10.8636Q20.4027 11.3548 20.4027 12.3134L20.4027 22.5333Q20.4027 23.4918 19.9136 23.983Q19.4246 24.4742 18.4743 24.4742L7.93396 24.4742Q7.01447 24.4742 6.50864 23.983Q6.00281 23.4918 6.00281 22.5333L6.00281 20.9097L5.2742 20.9097L5.2742 22.5691Q5.2742 23.8509 5.94238 24.5233Q6.61057 25.1958 7.91168 25.1958Z" fill="#007aff"/>
  <path d="M8.28247 13.9418Q8.42896 13.9418 8.53539 13.8367Q8.64182 13.7317 8.64182 13.5907L8.64182 2.43362L8.61832 1.07697L9.77188 2.24136L11.6641 4.15817Q11.7778 4.27307 11.9243 4.27307Q12.0583 4.27307 12.1543 4.17618Q12.2504 4.07928 12.2504 3.94806Q12.2504 3.81256 12.1426 3.70468L8.53943 0.11322Q8.47733 0.0511169 8.41232 0.0255585Q8.34732 0 8.28247 0Q8.21335 0 8.14827 0.0255585Q8.08319 0.0511169 8.01834 0.11322L4.40125 3.70468Q4.29611 3.81256 4.29611 3.94806Q4.29611 4.07928 4.3895 4.17618Q4.48288 4.27307 4.62662 4.27307Q4.77585 4.27307 4.88251 4.15817L6.77887 2.24136L7.9422 1.06293L7.9187 2.43362L7.9187 13.5907Q7.9187 13.7317 8.02521 13.8367Q8.13171 13.9418 8.28247 13.9418Z" fill="#ffffff"/>
 </g>
</svg>
