<?xml version="1.0" encoding="UTF-8"?>
<!--Generator: Apple Native CoreSVG 175.5-->
<!DOCTYPE svg
PUBLIC "-//W3C//DTD SVG 1.1//EN"
       "http://www.w3.org/Graphics/SVG/1.1/DTD/svg11.dtd">
<svg version="1.1" xmlns="http://www.w3.org/2000/svg" xmlns:xlink="http://www.w3.org/1999/xlink" width="17.334" height="21.5723">
 <g>
  <rect height="21.5723" opacity="0" width="17.334" x="0" y="0"/>
  <path d="M0 18.0566Q0 19.5703 0.766602 20.3271Q1.5332 21.084 3.06641 21.084L14.2676 21.084Q15.8008 21.084 16.5674 20.3223Q17.334 19.5605 17.334 18.0566L17.334 8.50586Q17.334 7.00195 16.5674 6.24023Q15.8008 5.47852 14.2676 5.47852L9.44336 5.47852L9.44336 0.761719Q9.44336 0.449219 9.21387 0.224609Q8.98438 0 8.67188 0Q8.34961 0 8.12012 0.224609Q7.89062 0.449219 7.89062 0.761719L7.89062 5.47852L3.06641 5.47852Q1.5332 5.47852 0.766602 6.23535Q0 6.99219 0 8.50586ZM8.66211 14.7852Q8.51562 14.7852 8.38379 14.7314Q8.25195 14.6777 8.0957 14.5312L4.79492 11.3379Q4.57031 11.1133 4.57031 10.8301Q4.57031 10.5273 4.76562 10.3369Q4.96094 10.1465 5.27344 10.1465Q5.60547 10.1465 5.81055 10.3809L7.4707 12.1387L7.94922 12.6465L7.89062 11.1816L7.89062 6.16211Q7.89062 5.83008 8.10547 5.625Q8.32031 5.41992 8.66211 5.41992Q9.01367 5.41992 9.22852 5.625Q9.44336 5.83008 9.44336 6.16211L9.44336 11.1816L9.38477 12.6465L9.85352 12.1387L11.5234 10.3809Q11.7285 10.1465 12.0508 10.1465Q12.3535 10.1465 12.5586 10.3369Q12.7637 10.5273 12.7637 10.8301Q12.7637 11.1133 12.5293 11.3379L9.22852 14.5312Q9.08203 14.6777 8.9502 14.7314Q8.81836 14.7852 8.66211 14.7852Z" fill="#ffffff"/>
 </g>
</svg>
