<?xml version="1.0" encoding="UTF-8"?>
<!--Generator: Apple Native CoreSVG 175-->
<!DOCTYPE svg
PUBLIC "-//W3C//DTD SVG 1.1//EN"
       "http://www.w3.org/Graphics/SVG/1.1/DTD/svg11.dtd">
<svg version="1.1" xmlns="http://www.w3.org/2000/svg" xmlns:xlink="http://www.w3.org/1999/xlink" width="17.2894" height="17.323">
 <g>
  <rect height="17.323" opacity="0" width="17.2894" x="0" y="0"/>
  <path d="M0 14.6965Q0 15.9781 0.668182 16.6505Q1.33636 17.323 2.63046 17.323L14.6519 17.323Q15.9532 17.323 16.6213 16.6576Q17.2894 15.9921 17.2894 14.6965L17.2894 2.66006Q17.2894 1.36444 16.6213 0.699005Q15.9532 0.0335693 14.6519 0.0335693L2.63046 0.0335693Q1.33636 0.0335693 0.668182 0.706024Q0 1.37848 0 2.66006ZM0.728607 14.6605L0.728607 2.69608Q0.728607 1.73752 1.23306 1.24985Q1.73752 0.762177 2.65701 0.762177L8.64258 0.762177L8.64258 16.5945L2.65701 16.5945Q1.73752 16.5945 1.23306 16.1068Q0.728607 15.619 0.728607 14.6605Z" fill="#ffffff"/>
 </g>
</svg>
