<?xml version="1.0" encoding="UTF-8"?>
<!--Generator: Apple Native CoreSVG 175.5-->
<!DOCTYPE svg
PUBLIC "-//W3C//DTD SVG 1.1//EN"
       "http://www.w3.org/Graphics/SVG/1.1/DTD/svg11.dtd">
<svg version="1.1" xmlns="http://www.w3.org/2000/svg" xmlns:xlink="http://www.w3.org/1999/xlink" width="19.6777" height="16.8848">
 <g>
  <rect height="16.8848" opacity="0" width="19.6777" x="0" y="0"/>
  <path d="M9.42383 1.47461L18.9258 1.47461Q19.2383 1.47461 19.458 1.25977Q19.6777 1.04492 19.6777 0.732422Q19.6777 0.429688 19.458 0.214844Q19.2383 0 18.9258 0L9.42383 0Q9.11133 0 8.89648 0.214844Q8.68164 0.429688 8.68164 0.732422Q8.68164 1.04492 8.89648 1.25977Q9.11133 1.47461 9.42383 1.47461ZM9.42383 6.5918L18.9258 6.5918Q19.2383 6.5918 19.458 6.37695Q19.6777 6.16211 19.6777 5.84961Q19.6777 5.53711 19.458 5.32715Q19.2383 5.11719 18.9258 5.11719L9.42383 5.11719Q9.11133 5.11719 8.89648 5.32715Q8.68164 5.53711 8.68164 5.84961Q8.68164 6.16211 8.89648 6.37695Q9.11133 6.5918 9.42383 6.5918ZM9.42383 11.709L18.9258 11.709Q19.2383 11.709 19.458 11.4941Q19.6777 11.2793 19.6777 10.9668Q19.6777 10.6543 19.458 10.4443Q19.2383 10.2344 18.9258 10.2344L9.42383 10.2344Q9.11133 10.2344 8.89648 10.4443Q8.68164 10.6543 8.68164 10.9668Q8.68164 11.2793 8.89648 11.4941Q9.11133 11.709 9.42383 11.709ZM9.42383 16.8164L18.9258 16.8164Q19.2383 16.8164 19.458 16.6064Q19.6777 16.3965 19.6777 16.084Q19.6777 15.7715 19.458 15.5566Q19.2383 15.3418 18.9258 15.3418L9.42383 15.3418Q9.11133 15.3418 8.89648 15.5566Q8.68164 15.7715 8.68164 16.084Q8.68164 16.3965 8.89648 16.6064Q9.11133 16.8164 9.42383 16.8164Z" fill="#007aff"/>
  <path d="M1.69922 6.5918L4.89258 6.5918Q5.69336 6.5918 6.14258 6.15234Q6.5918 5.71289 6.5918 4.93164L6.5918 1.65039Q6.5918 0.878906 6.14258 0.439453Q5.69336 0 4.89258 0L1.69922 0Q0.898438 0 0.449219 0.439453Q0 0.878906 0 1.65039L0 4.93164Q0 5.71289 0.449219 6.15234Q0.898438 6.5918 1.69922 6.5918ZM1.69922 16.8164L4.89258 16.8164Q5.69336 16.8164 6.14258 16.3818Q6.5918 15.9473 6.5918 15.166L6.5918 11.8848Q6.5918 11.1035 6.14258 10.6689Q5.69336 10.2344 4.89258 10.2344L1.69922 10.2344Q0.898438 10.2344 0.449219 10.6689Q0 11.1035 0 11.8848L0 15.166Q0 15.9473 0.449219 16.3818Q0.898438 16.8164 1.69922 16.8164Z" fill="#ffffff"/>
 </g>
</svg>
