<?xml version="1.0" encoding="UTF-8"?>
<!--Generator: Apple Native CoreSVG 175.5-->
<!DOCTYPE svg
PUBLIC "-//W3C//DTD SVG 1.1//EN"
       "http://www.w3.org/Graphics/SVG/1.1/DTD/svg11.dtd">
<svg version="1.1" xmlns="http://www.w3.org/2000/svg" xmlns:xlink="http://www.w3.org/1999/xlink" width="20.5273" height="22.2732">
 <g>
  <rect height="22.2732" opacity="0" width="20.5273" x="0" y="0"/>
  <path d="M10.4004 21.786L15.6543 18.7489L14.4531 17.5575L9.79492 20.2528Q9.72656 20.2821 9.68262 20.2626Q9.63867 20.2431 9.63867 20.1649L9.63867 12.7528L8.04688 11.1806L8.04688 20.4091Q8.04688 21.2294 8.34961 21.6688Q8.65234 22.1083 9.18457 22.1425Q9.7168 22.1766 10.4004 21.786ZM6.25 19.3446L8.90625 17.8016L8.90625 15.9169L5.63477 17.8016Q5.56641 17.8407 5.52734 17.8163Q5.48828 17.7919 5.48828 17.7235L5.48828 9.16884Q5.48828 9.08095 5.5127 8.95888Q5.53711 8.83681 5.61523 8.73915L4.42383 7.55751Q4.16016 7.80165 4.02832 8.21669Q3.89648 8.63173 3.89648 9.11024L3.89648 17.9677Q3.89648 18.7782 4.19922 19.2225Q4.50195 19.6669 5.03418 19.7011Q5.56641 19.7352 6.25 19.3446ZM2.35352 17.0888L4.67773 15.7509L4.67773 13.8563L1.74805 15.5556Q1.67969 15.5946 1.63574 15.5702Q1.5918 15.5458 1.5918 15.4774L1.5918 6.97157Q1.5918 6.4247 2.04102 6.13173Q2.1875 6.03407 2.33398 5.9413Q2.48047 5.84852 2.62695 5.76063L1.45508 4.59852Q1.33789 4.67665 1.21094 4.75477Q1.08398 4.8329 0.966797 4.91102Q0.449219 5.25282 0.224609 5.69227Q0 6.13173 0 6.86415L0 15.7118Q0 16.5321 0.307617 16.9716Q0.615234 17.411 1.14746 17.4452Q1.67969 17.4794 2.35352 17.0888ZM6.12305 3.81727L9.46289 1.88368Q9.54102 1.83485 9.58496 1.86903Q9.62891 1.90321 9.62891 1.97157L9.62891 5.31141L11.2207 4.5204L11.2207 1.43446Q11.2207 0.741102 10.874 0.38954Q10.5273 0.0379774 10.0195 0.00379774Q9.51172-0.0303819 9.0332 0.243056L4.92188 2.6161ZM8.97461 6.65907L13.3594 4.12977Q13.4277 4.09071 13.4766 4.12001Q13.5254 4.14931 13.5254 4.21766L13.5254 7.87977L15.1172 7.0497L15.1172 3.68056Q15.1172 2.9872 14.7705 2.63563Q14.4238 2.28407 13.916 2.24989Q13.4082 2.21571 12.9199 2.49891L7.77344 5.4579ZM18.8379 16.5126Q18.916 16.4052 18.9697 16.2977Q19.0234 16.1903 19.082 16.0731Q19.1895 15.8876 19.2285 15.6874Q19.2676 15.4872 19.2676 15.2235L19.2676 6.12196Q19.2676 5.43837 18.9209 5.08192Q18.5742 4.72548 18.0664 4.69618Q17.5586 4.66688 17.0801 4.94032L10.8398 8.52431L12.0508 9.72548L17.5195 6.57118Q17.5879 6.53212 17.6318 6.56141Q17.6758 6.59071 17.6758 6.65907L17.6758 14.5302Q17.6758 14.6278 17.666 14.6913Q17.6562 14.7548 17.6172 14.8134Q17.5684 14.8817 17.5244 14.9599Q17.4805 15.038 17.4414 15.1161Z" fill="#007aff"/>
  <path d="M19.2383 20.702Q19.4629 20.9266 19.7754 20.9266Q20.0879 20.9266 20.3027 20.702Q20.5273 20.4774 20.5273 20.1698Q20.5273 19.8622 20.3027 19.6376L1.41602 0.760634Q1.20117 0.54579 0.883789 0.540907Q0.566406 0.536024 0.341797 0.760634Q0.136719 0.975477 0.136719 1.29286Q0.136719 1.61024 0.341797 1.82509Z" fill="#ffffff"/>
 </g>
</svg>
