<?xml version="1.0" encoding="UTF-8"?>
<!--Generator: Apple Native CoreSVG 175.5-->
<!DOCTYPE svg
PUBLIC "-//W3C//DTD SVG 1.1//EN"
       "http://www.w3.org/Graphics/SVG/1.1/DTD/svg11.dtd">
<svg version="1.1" xmlns="http://www.w3.org/2000/svg" xmlns:xlink="http://www.w3.org/1999/xlink" width="20.3956" height="22.2732">
 <g>
  <rect height="22.2732" opacity="0" width="20.3956" x="0" y="0"/>
  <path d="M2.00195 17.3622L9.63867 21.786Q10.332 22.1766 10.8594 22.1425Q11.3867 22.1083 11.6895 21.6688Q11.9922 21.2294 11.9922 20.4091L11.9922 15.829L10.4004 14.2372L10.4004 20.1649Q10.4004 20.2431 10.3613 20.2626Q10.3223 20.2821 10.2539 20.2528L2.7832 15.9364Q2.5293 15.7899 2.44629 15.6386Q2.36328 15.4872 2.36328 15.1942L2.36328 7.38173Q2.36328 7.08876 2.40723 6.82997Q2.45117 6.57118 2.49023 6.32704L1.2207 5.04774Q1.01562 5.21376 0.893555 5.4872Q0.771484 5.76063 0.771484 6.12196L0.771484 15.2235Q0.771484 15.7411 0.878906 16.122Q0.986328 16.5028 1.25 16.7958Q1.51367 17.0888 2.00195 17.3622ZM11.1328 17.8016L13.7988 19.3446Q14.3652 19.6669 14.8438 19.6962Q15.3223 19.7255 15.6348 19.4618L13.2422 17.079Q13.1445 17.0497 13.0322 16.996Q12.9199 16.9423 12.8125 16.8739L11.1328 15.9169ZM14.5605 12.9579L16.1523 14.5595L16.1523 9.11024Q16.1523 8.60243 16.0303 8.22645Q15.9082 7.85048 15.6445 7.55751Q15.3809 7.26454 14.9512 7.01063L7.11914 2.49891Q6.72852 2.26454 6.31836 2.24501Q5.9082 2.22548 5.57129 2.41591Q5.23438 2.60634 5.07812 2.99696L5.07812 3.12391L5.98633 4.05165L5.98633 3.83681Q6.02539 3.80751 6.10352 3.82216Q6.18164 3.83681 6.25977 3.87587L14.1211 8.42665Q14.3555 8.5536 14.458 8.70497Q14.5605 8.85634 14.5605 9.16884ZM19.502 17.2352Q20.0391 16.8056 20.0391 15.7118L20.0391 6.86415Q20.0391 6.35634 19.9219 5.98036Q19.8047 5.60438 19.541 5.31141Q19.2773 5.01845 18.8379 4.76454L11.0156 0.243056Q10.5371-0.0303819 10.0293 0.00379774Q9.52148 0.0379774 9.16992 0.38954Q8.81836 0.741102 8.81836 1.43446L8.81836 4.5204L10.4102 5.31141L10.4102 1.97157Q10.4102 1.90321 10.459 1.86903Q10.5078 1.83485 10.5762 1.88368L18.0176 6.18056Q18.252 6.31727 18.3496 6.46376Q18.4473 6.61024 18.4473 6.92274L18.4473 16.0048Q18.4473 16.0438 18.4424 16.0829Q18.4375 16.122 18.418 16.1513Z" fill="#007aff"/>
  <path d="M19.1113 21.2977Q19.3359 21.5224 19.6484 21.5224Q19.9609 21.5224 20.1758 21.2977Q20.3906 21.0829 20.3955 20.7704Q20.4004 20.4579 20.1758 20.2333L1.28906 1.35634Q1.07422 1.14149 0.756836 1.13661Q0.439453 1.13173 0.214844 1.35634Q0 1.57118 0 1.88856Q0 2.20595 0.214844 2.42079Z" fill="#ffffff"/>
 </g>
</svg>
