<?xml version="1.0" encoding="UTF-8"?>
<!--Generator: Apple Native CoreSVG 175.5-->
<!DOCTYPE svg
PUBLIC "-//W3C//DTD SVG 1.1//EN"
       "http://www.w3.org/Graphics/SVG/1.1/DTD/svg11.dtd">
<svg version="1.1" xmlns="http://www.w3.org/2000/svg" xmlns:xlink="http://www.w3.org/1999/xlink" width="19.9219" height="20.0098">
 <g>
  <rect height="20.0098" opacity="0" width="19.9219" x="0" y="0"/>
  <path d="M9.96094 20.0098Q12.002 20.0098 13.8037 19.2285Q15.6055 18.4473 16.9824 17.0703Q18.3594 15.6934 19.1406 13.8916Q19.9219 12.0898 19.9219 10.0488Q19.9219 8.00781 19.1406 6.20605Q18.3594 4.4043 16.9824 3.02734Q15.6055 1.65039 13.7988 0.869141Q11.9922 0.0878906 9.95117 0.0878906Q7.91016 0.0878906 6.1084 0.869141Q4.30664 1.65039 2.93457 3.02734Q1.5625 4.4043 0.78125 6.20605Q0 8.00781 0 10.0488Q0 12.0898 0.78125 13.8916Q1.5625 15.6934 2.93945 17.0703Q4.31641 18.4473 6.11816 19.2285Q7.91992 20.0098 9.96094 20.0098Z" fill="#007aff"/>
  <path d="M6.23047 15.1172Q5.63477 15.1172 5.26855 14.6973Q4.90234 14.2773 4.90234 13.6035L4.90234 6.28906Q4.90234 5.71289 5.26855 5.34668Q5.63477 4.98047 6.23047 4.98047L13.7012 4.98047Q14.3945 4.98047 14.7119 5.29785Q15.0293 5.61523 15.0293 6.28906L15.0293 13.6035Q15.0293 14.3652 14.7119 14.7412Q14.3945 15.1172 13.7012 15.1172ZM6.85547 13.6328L13.0762 13.6328Q13.291 13.6328 13.418 13.501Q13.5449 13.3691 13.5449 13.1445L13.5449 6.95312Q13.5449 6.72852 13.418 6.59668Q13.291 6.46484 13.0762 6.46484L6.85547 6.46484Q6.65039 6.46484 6.51855 6.59668Q6.38672 6.72852 6.38672 6.95312L6.38672 13.1445Q6.38672 13.3691 6.51855 13.501Q6.65039 13.6328 6.85547 13.6328Z" fill="#ffffff"/>
 </g>
</svg>
