<?xml version="1.0" encoding="UTF-8"?>
<!--Generator: Apple Native CoreSVG 175.5-->
<!DOCTYPE svg
PUBLIC "-//W3C//DTD SVG 1.1//EN"
       "http://www.w3.org/Graphics/SVG/1.1/DTD/svg11.dtd">
<svg version="1.1" xmlns="http://www.w3.org/2000/svg" xmlns:xlink="http://www.w3.org/1999/xlink" width="19.9219" height="19.9316">
 <g>
  <rect height="19.9316" opacity="0" width="19.9219" x="0" y="0"/>
  <path d="M9.96094 19.9316Q12.002 19.9316 13.8037 19.1504Q15.6055 18.3691 16.9824 16.9922Q18.3594 15.6152 19.1406 13.8135Q19.9219 12.0117 19.9219 9.9707Q19.9219 7.92969 19.1406 6.12793Q18.3594 4.32617 16.9824 2.94922Q15.6055 1.57227 13.7988 0.791016Q11.9922 0.00976562 9.95117 0.00976562Q7.91016 0.00976562 6.1084 0.791016Q4.30664 1.57227 2.93457 2.94922Q1.5625 4.32617 0.78125 6.12793Q0 7.92969 0 9.9707Q0 12.0117 0.78125 13.8135Q1.5625 15.6152 2.93945 16.9922Q4.31641 18.3691 6.11816 19.1504Q7.91992 19.9316 9.96094 19.9316Z" fill="#007aff"/>
  <path d="M6.86523 14.7754Q6.03516 14.7754 5.60059 14.3457Q5.16602 13.916 5.16602 13.0957L5.16602 7.22656Q5.16602 6.39648 5.60059 5.96191Q6.03516 5.52734 6.86523 5.52734L12.1387 5.52734L11.084 6.58203L6.89453 6.58203Q6.5625 6.58203 6.3916 6.75293Q6.2207 6.92383 6.2207 7.27539L6.2207 13.0371Q6.2207 13.3887 6.3916 13.5547Q6.5625 13.7207 6.89453 13.7207L12.832 13.7207Q13.0469 13.7207 13.1982 13.5547Q13.3496 13.3887 13.3496 13.0371L13.3496 8.89648L14.3945 7.85156L14.3945 13.0957Q14.3945 13.916 13.9795 14.3457Q13.5645 14.7754 12.8418 14.7754ZM8.76953 11.4648Q8.62305 11.5234 8.50586 11.4111Q8.38867 11.2988 8.4668 11.1426L8.92578 10.1855L13.5352 5.55664L14.4141 6.41602L9.78516 11.0449ZM14.8438 5.97656L13.9844 5.11719L14.4141 4.6875Q14.5801 4.52148 14.7949 4.5166Q15.0098 4.51172 15.1562 4.66797L15.2832 4.78516Q15.4297 4.93164 15.4297 5.13672Q15.4297 5.3418 15.2734 5.50781Z" fill="#ffffff"/>
 </g>
</svg>
