<?xml version="1.0" encoding="UTF-8"?>
<!--Generator: Apple Native CoreSVG 175.5-->
<!DOCTYPE svg
PUBLIC "-//W3C//DTD SVG 1.1//EN"
       "http://www.w3.org/Graphics/SVG/1.1/DTD/svg11.dtd">
<svg version="1.1" xmlns="http://www.w3.org/2000/svg" xmlns:xlink="http://www.w3.org/1999/xlink" width="17.9785" height="17.998">
 <g>
  <rect height="17.998" opacity="0" width="17.9785" x="0" y="0"/>
  <path d="M3.06641 17.998L14.9121 17.998Q16.4453 17.998 17.2119 17.2412Q17.9785 16.4844 17.9785 14.9707L17.9785 3.04688Q17.9785 1.5332 17.2119 0.776367Q16.4453 0.0195312 14.9121 0.0195312L3.06641 0.0195312Q1.5332 0.0195312 0.766602 0.776367Q0 1.5332 0 3.04688L0 14.9707Q0 16.4844 0.766602 17.2412Q1.5332 17.998 3.06641 17.998Z" fill="#007aff"/>
  <path d="M6.10352 14.1992Q5.81055 14.4238 5.54199 14.375Q5.27344 14.3262 5.1416 14.082Q5.00977 13.8379 5.12695 13.4961L6.26953 10.0879L3.34961 8.00781Q3.07617 7.80273 3.03711 7.52441Q2.99805 7.24609 3.17383 7.03613Q3.34961 6.82617 3.73047 6.83594L7.31445 6.86523L8.39844 3.4375Q8.50586 3.0957 8.75 2.9834Q8.99414 2.87109 9.23828 2.9834Q9.48242 3.0957 9.58984 3.4375L10.6836 6.86523L14.2676 6.83594Q14.6484 6.82617 14.8242 7.04102Q15 7.25586 14.9609 7.53418Q14.9219 7.8125 14.6484 7.99805L11.7285 10.0879L12.8711 13.4961Q12.9883 13.8379 12.8564 14.082Q12.7246 14.3262 12.4561 14.375Q12.1875 14.4238 11.8848 14.1992L8.99414 12.0898Z" fill="#ffffff"/>
 </g>
</svg>
