<?xml version="1.0" encoding="UTF-8"?>
<!--Generator: Apple Native CoreSVG 175.5-->
<!DOCTYPE svg
PUBLIC "-//W3C//DTD SVG 1.1//EN"
       "http://www.w3.org/Graphics/SVG/1.1/DTD/svg11.dtd">
<svg version="1.1" xmlns="http://www.w3.org/2000/svg" xmlns:xlink="http://www.w3.org/1999/xlink" width="19.9219" height="19.9316">
 <g>
  <rect height="19.9316" opacity="0" width="19.9219" x="0" y="0"/>
  <path d="M9.96094 19.9219Q12.002 19.9219 13.8037 19.1406Q15.6055 18.3594 16.9824 16.9824Q18.3594 15.6055 19.1406 13.8037Q19.9219 12.002 19.9219 9.96094Q19.9219 7.91992 19.1406 6.11816Q18.3594 4.31641 16.9824 2.93945Q15.6055 1.5625 13.7988 0.78125Q11.9922 0 9.95117 0Q7.91016 0 6.1084 0.78125Q4.30664 1.5625 2.93457 2.93945Q1.5625 4.31641 0.78125 6.11816Q0 7.91992 0 9.96094Q0 12.002 0.78125 13.8037Q1.5625 15.6055 2.93945 16.9824Q4.31641 18.3594 6.11816 19.1406Q7.91992 19.9219 9.96094 19.9219ZM9.96094 18.2617Q8.23242 18.2617 6.72852 17.6172Q5.22461 16.9727 4.08691 15.835Q2.94922 14.6973 2.30957 13.1934Q1.66992 11.6895 1.66992 9.96094Q1.66992 8.23242 2.30957 6.72852Q2.94922 5.22461 4.08203 4.08203Q5.21484 2.93945 6.71875 2.2998Q8.22266 1.66016 9.95117 1.66016Q11.6797 1.66016 13.1885 2.2998Q14.6973 2.93945 15.835 4.08203Q16.9727 5.22461 17.6172 6.72852Q18.2617 8.23242 18.2617 9.96094Q18.2617 11.6895 17.6221 13.1934Q16.9824 14.6973 15.8398 15.835Q14.6973 16.9727 13.1934 17.6172Q11.6895 18.2617 9.96094 18.2617Z" fill="#007aff"/>
  <path d="M6.86523 14.3848L12.8027 14.3848Q13.0566 14.3848 13.2227 14.2285Q13.3887 14.0723 13.3887 13.8086Q13.3887 13.5547 13.2227 13.3984Q13.0566 13.2422 12.8027 13.2422L8.56445 13.2422Q8.93555 12.9199 9.16992 12.373Q9.4043 11.8262 9.4043 11.2012Q9.4043 10.9375 9.375 10.7129Q9.3457 10.4883 9.29688 10.2734L11.7383 10.2734Q11.9727 10.2734 12.1289 10.1318Q12.2852 9.99023 12.2852 9.74609Q12.2852 9.51172 12.1289 9.37012Q11.9727 9.22852 11.7383 9.22852L9.04297 9.22852Q8.97461 8.94531 8.92578 8.64258Q8.87695 8.33984 8.87695 7.98828Q8.87695 7.19727 9.41406 6.7041Q9.95117 6.21094 10.9082 6.21094Q11.543 6.21094 11.8799 6.32324Q12.2168 6.43555 12.4219 6.43555Q12.6855 6.43555 12.8125 6.29395Q12.9395 6.15234 12.9395 5.91797Q12.9395 5.72266 12.832 5.57129Q12.7246 5.41992 12.4414 5.3125Q12.1094 5.18555 11.7041 5.12207Q11.2988 5.05859 10.8398 5.05859Q9.33594 5.05859 8.4668 5.87402Q7.59766 6.68945 7.59766 8.06641Q7.59766 8.35938 7.6416 8.65234Q7.68555 8.94531 7.76367 9.22852L6.86523 9.22852Q6.63086 9.22852 6.47949 9.37012Q6.32812 9.51172 6.32812 9.74609Q6.32812 9.99023 6.47949 10.1318Q6.63086 10.2734 6.86523 10.2734L8.01758 10.2734Q8.08594 10.5273 8.125 10.7715Q8.16406 11.0156 8.16406 11.25Q8.16406 12.0312 7.75391 12.5293Q7.34375 13.0273 6.79688 13.1738Q6.5332 13.2617 6.41113 13.4131Q6.28906 13.5645 6.28906 13.8086Q6.28906 14.0625 6.44531 14.2236Q6.60156 14.3848 6.86523 14.3848Z" fill="#ffffff"/>
 </g>
</svg>
