<?xml version="1.0" encoding="UTF-8"?>
<!--Generator: Apple Native CoreSVG 175-->
<!DOCTYPE svg
PUBLIC "-//W3C//DTD SVG 1.1//EN"
       "http://www.w3.org/Graphics/SVG/1.1/DTD/svg11.dtd">
<svg version="1.1" xmlns="http://www.w3.org/2000/svg" xmlns:xlink="http://www.w3.org/1999/xlink" width="19.1554" height="23.5815">
 <g>
  <rect height="23.5815" opacity="0" width="19.1554" x="0" y="0"/>
  <path d="M9.57428 21.3602Q11.552 21.3602 13.2834 20.614Q15.0148 19.8679 16.3355 18.5472Q17.6562 17.2266 18.4058 15.4916Q19.1554 13.7566 19.1554 11.7859Q19.1554 9.81522 18.4058 8.08022Q17.6562 6.34521 16.3355 5.02457Q15.0148 3.70392 13.282 2.95776Q11.5492 2.21161 9.57153 2.21161Q7.60086 2.21161 5.86586 2.95776Q4.13086 3.70392 2.81502 5.02457Q1.49918 6.34521 0.749588 8.08022Q0 9.81522 0 11.7859Q0 13.7566 0.746078 15.4916Q1.49216 17.2266 2.81288 18.5472Q4.13361 19.8679 5.86853 20.614Q7.60345 21.3602 9.57428 21.3602ZM9.57428 20.614Q7.74734 20.614 6.14853 19.9273Q4.54971 19.2406 3.33466 18.029Q2.1196 16.8175 1.43425 15.2151Q0.748901 13.6128 0.748901 11.7859Q0.748901 9.95895 1.43425 8.35663Q2.1196 6.7543 3.33328 5.53787Q4.54697 4.32144 6.14578 3.63609Q7.7446 2.95074 9.57153 2.95074Q11.4055 2.95074 13.0043 3.63609Q14.6031 4.32144 15.8195 5.53787Q17.036 6.7543 17.7227 8.35663Q18.4094 9.95895 18.4094 11.7859Q18.4094 13.6128 17.7241 15.2151Q17.0387 16.8175 15.8237 18.029Q14.6086 19.2406 13.0084 19.9273Q11.4082 20.614 9.57428 20.614ZM9.01871 2.66953L10.1312 2.66953L10.1312 0.574951Q10.1312 0.332336 9.97269 0.166168Q9.81415 0 9.57153 0Q9.33868 0 9.1787 0.166168Q9.01871 0.332336 9.01871 0.574951ZM15.7777 5.10223L16.5649 5.90042L18.1172 4.32846Q18.3141 4.13864 18.3141 3.89603Q18.3141 3.68973 18.1561 3.53172Q17.998 3.37372 17.7652 3.37372Q17.5215 3.37372 17.3442 3.55545Z" fill="#007aff"/>
  <path d="M9.57428 12.9179Q10.0388 12.9179 10.3571 12.5961Q10.6754 12.2742 10.6754 11.7957Q10.6754 11.4676 10.4875 11.2006Q10.2997 10.9335 9.92462 10.7733L9.92462 4.90036Q9.92462 4.75784 9.82422 4.66446Q9.72382 4.57108 9.57153 4.57108Q9.44305 4.57108 9.34265 4.66446Q9.24225 4.75784 9.24225 4.90036L9.24225 10.7495Q8.86993 10.9222 8.675 11.1927Q8.48007 11.4632 8.48007 11.7957Q8.48007 12.2644 8.79707 12.5912Q9.11407 12.9179 9.57428 12.9179Z" fill="#ffffff"/>
 </g>
</svg>
