<?xml version="1.0" encoding="UTF-8"?>
<!--Generator: Apple Native CoreSVG 175-->
<!DOCTYPE svg
PUBLIC "-//W3C//DTD SVG 1.1//EN"
       "http://www.w3.org/Graphics/SVG/1.1/DTD/svg11.dtd">
<svg version="1.1" xmlns="http://www.w3.org/2000/svg" xmlns:xlink="http://www.w3.org/1999/xlink" width="17.702" height="17.8482">
 <g>
  <rect height="17.8482" opacity="0" width="17.702" x="0" y="0"/>
  <path d="M0 10.3833Q0 11.5895 0.502701 12.4876Q1.0054 13.3856 1.90697 13.8849Q2.80853 14.3842 4.00787 14.3842Q5.08011 14.3842 5.94765 13.906Q6.81519 13.4279 7.22351 12.7576L7.1727 12.6424Q6.97968 13.32 6.65527 13.9433Q6.33087 14.5665 5.92171 15.1093Q5.51254 15.652 5.0618 16.0884Q4.84421 16.3223 4.77371 16.5737Q4.70322 16.8251 4.77974 17.0501Q4.85626 17.2751 5.0666 17.4117Q5.27695 17.5482 5.60699 17.5482L12.0949 17.5482Q12.4223 17.5482 12.634 17.4117Q12.8458 17.2751 12.9223 17.0501Q12.9988 16.8251 12.9283 16.5737Q12.8578 16.3223 12.6305 16.0884Q12.1867 15.652 11.7741 15.1093Q11.3614 14.5665 11.0384 13.9433Q10.7153 13.32 10.5293 12.6424L10.4715 12.7576Q10.8867 13.4279 11.7508 13.906Q12.6149 14.3842 13.6871 14.3842Q14.8933 14.3842 15.7949 13.8849Q16.6965 13.3856 17.1992 12.4876Q17.702 11.5895 17.702 10.3833Q17.702 9.27475 17.1588 8.36342Q16.6156 7.45209 15.7078 6.91589Q14.8 6.3797 13.7039 6.3797Q13.027 6.3797 12.3154 6.62483Q11.6039 6.86996 11.041 7.40005L11.0149 7.4556Q11.7641 6.88995 12.1619 6.27762Q12.5598 5.66528 12.7087 5.08148Q12.8575 4.49768 12.8575 4.01062Q12.8575 2.89505 12.3143 1.98723Q11.7711 1.07941 10.8633 0.539703Q9.95544 0 8.84964 0Q7.74643 0 6.8351 0.539703Q5.92377 1.07941 5.38414 1.98723Q4.84451 2.89505 4.84451 4.01062Q4.84451 4.49768 4.98985 5.08011Q5.13519 5.66254 5.53169 6.27487Q5.92819 6.88721 6.68167 7.4556L6.65009 7.39899Q6.08551 6.86722 5.37674 6.62346Q4.66797 6.3797 3.99811 6.3797Q2.8949 6.3797 1.98708 6.91589Q1.07925 7.45209 0.539627 8.36342Q0 9.27475 0 10.3833ZM0.683594 10.3915Q0.683594 9.4696 1.13129 8.71613Q1.57898 7.96265 2.33246 7.51846Q3.08594 7.07428 3.99811 7.07428Q4.80515 7.07428 5.3315 7.31651Q5.85785 7.55875 6.27853 7.7919Q6.41174 7.85599 6.50375 7.88017Q6.59576 7.90436 6.71799 7.90436Q6.9043 7.90436 7.03125 7.78618Q7.1582 7.668 7.1582 7.46689Q7.1582 7.34467 7.11449 7.23999Q7.07077 7.13531 6.99738 7.04926Q6.56494 6.57669 6.23604 6.12625Q5.90714 5.67581 5.71762 5.16487Q5.52811 4.65393 5.52811 4.01184Q5.52811 3.08716 5.9758 2.33505Q6.42349 1.58295 7.1756 1.13876Q7.9277 0.69458 8.84964 0.69458Q9.76715 0.69458 10.5193 1.13876Q11.2715 1.58295 11.7191 2.33505Q12.1667 3.08716 12.1667 4.01184Q12.1667 4.65393 11.9808 5.16487Q11.7949 5.67581 11.4611 6.12625Q11.1273 6.57669 10.7047 7.04926Q10.6313 7.13531 10.584 7.23999Q10.5367 7.34467 10.5367 7.46689Q10.5367 7.668 10.6636 7.78618Q10.7906 7.90436 10.977 7.90436Q11.0992 7.90436 11.1934 7.88017Q11.2875 7.85599 11.4207 7.7919Q11.8344 7.56149 12.3643 7.31789Q12.8941 7.07428 13.7039 7.07428Q14.6161 7.07428 15.3647 7.51846Q16.1133 7.96265 16.5623 8.71613Q17.0114 9.4696 17.0114 10.3915Q17.0114 11.8832 16.0979 12.7918Q15.1843 13.7004 13.6871 13.7004Q12.8152 13.7004 12.1107 13.3436Q11.4062 12.9868 10.9039 12.4208Q10.6953 12.1922 10.4547 12.1979Q10.2141 12.2035 10.0739 12.393Q9.93362 12.5826 10.0093 12.9094Q10.2129 13.6072 10.5135 14.2365Q10.8141 14.8657 11.2018 15.4108Q11.5895 15.956 12.0508 16.404Q12.2144 16.5662 12.1704 16.7208Q12.1265 16.8755 11.9136 16.8755L5.78827 16.8755Q5.56564 16.8755 5.52658 16.7208Q5.48752 16.5662 5.65125 16.404Q6.11252 15.956 6.49673 15.4108Q6.88095 14.8657 7.18506 14.2365Q7.48917 13.6072 7.68555 12.9094Q7.7684 12.5826 7.62466 12.393Q7.48093 12.2035 7.2438 12.1979Q7.00668 12.1922 6.79535 12.4208Q6.29578 12.9868 5.59128 13.3436Q4.88678 13.7004 4.00787 13.7004Q2.51053 13.7004 1.59706 12.7918Q0.683594 11.8832 0.683594 10.3915Z" fill="#ffffff"/>
 </g>
</svg>
