<?xml version="1.0" encoding="UTF-8"?>
<!--Generator: Apple Native CoreSVG 175.5-->
<!DOCTYPE svg
PUBLIC "-//W3C//DTD SVG 1.1//EN"
       "http://www.w3.org/Graphics/SVG/1.1/DTD/svg11.dtd">
<svg version="1.1" xmlns="http://www.w3.org/2000/svg" xmlns:xlink="http://www.w3.org/1999/xlink" width="18.623" height="18.4668">
 <g>
  <rect height="18.4668" opacity="0" width="18.623" x="0" y="0"/>
  <path d="M0 10.9668Q0 12.2363 0.527344 13.1836Q1.05469 14.1309 2.00195 14.6582Q2.94922 15.1855 4.21875 15.1855Q5.18555 15.1855 6.07422 14.834Q6.96289 14.4824 7.44141 13.8965L7.28516 13.5352Q7.14844 14.248 6.83105 14.8291Q6.51367 15.4102 6.15723 15.8545Q5.80078 16.2988 5.54688 16.6016Q5.32227 16.8848 5.25879 17.1924Q5.19531 17.5 5.29297 17.7637Q5.39062 18.0273 5.63965 18.1885Q5.88867 18.3496 6.28906 18.3496L12.334 18.3496Q12.7246 18.3496 12.9785 18.1885Q13.2324 18.0273 13.3301 17.7637Q13.4277 17.5 13.3643 17.1924Q13.3008 16.8848 13.0664 16.6016Q12.8125 16.2988 12.4561 15.8545Q12.0996 15.4102 11.7871 14.8291Q11.4746 14.248 11.3379 13.5352L11.1816 13.8965Q11.6602 14.4824 12.5488 14.834Q13.4375 15.1855 14.4043 15.1855Q15.6738 15.1855 16.6211 14.6582Q17.5684 14.1309 18.0957 13.1836Q18.623 12.2363 18.623 10.9668Q18.623 9.79492 18.0518 8.83789Q17.4805 7.88086 16.5234 7.30957Q15.5664 6.73828 14.4141 6.73828Q13.6035 6.73828 12.8076 7.03613Q12.0117 7.33398 11.3574 7.87109L11.4648 7.96875Q12.207 7.48047 12.6611 6.85059Q13.1152 6.2207 13.3203 5.54199Q13.5254 4.86328 13.5254 4.22852Q13.5254 3.05664 12.9541 2.09961Q12.3828 1.14258 11.4258 0.571289Q10.4688 0 9.30664 0Q8.1543 0 7.19727 0.571289Q6.24023 1.14258 5.66895 2.09961Q5.09766 3.05664 5.09766 4.22852Q5.09766 4.86328 5.30273 5.53711Q5.50781 6.21094 5.95703 6.84082Q6.40625 7.4707 7.13867 7.96875L7.22656 7.8418Q6.5918 7.32422 5.80566 7.03125Q5.01953 6.73828 4.20898 6.73828Q3.05664 6.73828 2.09961 7.30957Q1.14258 7.88086 0.571289 8.83789Q0 9.79492 0 10.9668ZM1.38672 10.9961Q1.38672 10.2148 1.76758 9.57031Q2.14844 8.92578 2.79297 8.54492Q3.4375 8.16406 4.20898 8.16406Q5.10742 8.16406 5.75684 8.38867Q6.40625 8.61328 6.9043 8.81836Q7.12891 8.89648 7.31934 8.94531Q7.50977 8.99414 7.69531 8.99414Q7.95898 8.99414 8.17383 8.82324Q8.38867 8.65234 8.38867 8.31055Q8.38867 8.125 8.32031 7.93945Q8.25195 7.75391 8.11523 7.59766Q7.67578 7.08984 7.30469 6.61133Q6.93359 6.13281 6.70898 5.57617Q6.48438 5.01953 6.48438 4.25781Q6.48438 3.4668 6.86523 2.82715Q7.24609 2.1875 7.88574 1.80664Q8.52539 1.42578 9.30664 1.42578Q10.0977 1.42578 10.7373 1.80664Q11.377 2.1875 11.7578 2.82715Q12.1387 3.4668 12.1387 4.25781Q12.1387 5.01953 11.9141 5.57617Q11.6895 6.13281 11.3135 6.61133Q10.9375 7.08984 10.5078 7.59766Q10.3711 7.75391 10.3027 7.93945Q10.2344 8.125 10.2344 8.31055Q10.2344 8.65234 10.4492 8.82324Q10.6641 8.99414 10.9277 8.99414Q11.1133 8.99414 11.2988 8.94531Q11.4844 8.89648 11.709 8.81836Q12.207 8.62305 12.8564 8.39355Q13.5059 8.16406 14.4141 8.16406Q15.1855 8.16406 15.8252 8.54492Q16.4648 8.92578 16.8506 9.57031Q17.2363 10.2148 17.2363 10.9961Q17.2363 12.2559 16.46 13.0273Q15.6836 13.7988 14.4043 13.7988Q13.5254 13.7988 12.7295 13.4912Q11.9336 13.1836 11.4453 12.7441Q11.1523 12.4805 10.8203 12.4756Q10.4883 12.4707 10.2637 12.6953Q10.0391 12.9199 10.0586 13.3594Q10.1074 13.8672 10.3271 14.4824Q10.5469 15.0977 10.8643 15.6885Q11.1816 16.2793 11.5234 16.6992Q11.6309 16.8262 11.5869 16.9141Q11.543 17.002 11.4355 17.002L7.1875 17.002Q7.07031 17.002 7.03125 16.9141Q6.99219 16.8262 7.09961 16.6992Q7.44141 16.2793 7.75879 15.6885Q8.07617 15.0977 8.2959 14.4824Q8.51562 13.8672 8.56445 13.3594Q8.58398 12.9199 8.35938 12.6953Q8.13477 12.4707 7.80273 12.4756Q7.4707 12.4805 7.16797 12.7441Q6.68945 13.1836 5.89355 13.4912Q5.09766 13.7988 4.21875 13.7988Q2.93945 13.7988 2.16309 13.0273Q1.38672 12.2559 1.38672 10.9961Z" fill="#ffffff"/>
 </g>
</svg>
