<?xml version="1.0" encoding="UTF-8"?>
<!--Generator: Apple Native CoreSVG 175-->
<!DOCTYPE svg
PUBLIC "-//W3C//DTD SVG 1.1//EN"
       "http://www.w3.org/Graphics/SVG/1.1/DTD/svg11.dtd">
<svg version="1.1" xmlns="http://www.w3.org/2000/svg" xmlns:xlink="http://www.w3.org/1999/xlink" width="25.0293" height="23.4418">
 <g>
  <rect height="23.4418" opacity="0" width="25.0293" x="0" y="0"/>
  <path d="M8.97461 18.6906L10.1157 18.6906Q9.21799 18.116 8.66974 17.1531Q8.12149 16.1902 8.12149 15.0406Q8.12149 13.8297 8.71506 12.8297Q9.30862 11.8297 10.3051 11.2361Q11.3016 10.6425 12.5195 10.6425Q13.7277 10.6425 14.7242 11.2361Q15.7207 11.8297 16.3142 12.8297Q16.9078 13.8297 16.9078 15.0406Q16.9078 16.1902 16.3596 17.1531Q15.8113 18.116 14.9136 18.6906L16.0547 18.6906Q16.7841 17.9973 17.2054 17.0564Q17.6266 16.1156 17.6266 15.0406Q17.6266 13.9864 17.2292 13.0582Q16.8317 12.1301 16.1246 11.4279Q15.4176 10.7257 14.493 10.3269Q13.5684 9.92813 12.5195 9.92813Q11.4609 9.92813 10.5363 10.3269Q9.61166 10.7257 8.90465 11.4279Q8.19763 12.1301 7.80022 13.0582Q7.4028 13.9864 7.4028 15.0406Q7.4028 16.1156 7.82402 17.0564Q8.24524 17.9973 8.97461 18.6906ZM1.60583 15.1418L5.03479 15.1418Q5.1976 15.1418 5.299 15.0388Q5.40039 14.9359 5.40039 14.7867Q5.39764 14.6472 5.29411 14.5429Q5.19058 14.4386 5.03479 14.4386L1.60583 14.4386Q1.46408 14.4386 1.35704 14.5429Q1.25 14.6472 1.25 14.7867Q1.25 14.9359 1.35704 15.0388Q1.46408 15.1418 1.60583 15.1418ZM7.48047 10.0015Q7.57858 9.90082 7.57721 9.74884Q7.57584 9.59686 7.47818 9.49493L5.05478 7.07153Q4.93591 6.96671 4.79019 6.97029Q4.64447 6.97388 4.55078 7.07184Q4.4429 7.16995 4.43726 7.31705Q4.43161 7.46414 4.55032 7.57584L6.97388 9.99924Q7.07581 10.1039 7.22908 10.1031Q7.38235 10.1024 7.48047 10.0015ZM17.5488 10.0015Q17.6497 10.0996 17.8016 10.1018Q17.9535 10.1039 18.0556 9.99924L20.479 7.57584Q20.5977 7.46414 20.592 7.31842Q20.5864 7.1727 20.4785 7.07184Q20.3874 6.97113 20.2404 6.96892Q20.0934 6.96671 19.9745 7.07153L17.5511 9.49493Q17.4535 9.59686 17.4507 9.75021Q17.448 9.90356 17.5488 10.0015ZM19.9945 15.1418L23.4235 15.1418Q23.5722 15.1418 23.6758 15.0388Q23.7793 14.9359 23.7793 14.7867Q23.7793 14.6472 23.6758 14.5429Q23.5722 14.4386 23.4235 14.4386L19.9945 14.4386Q19.8485 14.4386 19.7387 14.5429Q19.6289 14.6472 19.6289 14.7867Q19.6317 14.9359 19.7401 15.0388Q19.8485 15.1418 19.9945 15.1418Z" fill="#007aff"/>
  <path d="M0.392609 19.1434L24.6367 19.1434Q24.7957 19.1434 24.9125 19.0405Q25.0293 18.9375 25.0293 18.791Q25.0293 18.6375 24.9125 18.5381Q24.7957 18.4387 24.6367 18.4387L0.392609 18.4387Q0.233612 18.4387 0.116806 18.5381Q0 18.6375 0 18.791Q0 18.9375 0.116806 19.0405Q0.233612 19.1434 0.392609 19.1434ZM12.5195 0Q12.3633 0 12.2555 0.109787Q12.1477 0.219574 12.1477 0.376892L12.1477 4.44412L12.2015 6.17188L11.1969 5.12299L9.5903 3.48557Q9.53201 3.42728 9.46564 3.39684Q9.39926 3.36639 9.33289 3.36639Q9.19449 3.36639 9.09546 3.46268Q8.99643 3.55896 8.99643 3.71124Q8.99643 3.80432 9.03748 3.87718Q9.07852 3.95004 9.15344 4.02924L12.2566 7.07504Q12.3851 7.19528 12.5195 7.19528Q12.6442 7.19528 12.7727 7.07504L15.8759 4.02924Q15.9508 3.95004 15.9918 3.87718Q16.0329 3.80432 16.0329 3.71124Q16.0329 3.55896 15.9338 3.46268Q15.8348 3.36639 15.6964 3.36639Q15.63 3.36639 15.5637 3.39684Q15.4973 3.42728 15.439 3.48557L13.8527 5.10269L12.8278 6.17188L12.8816 4.44412L12.8816 0.376892Q12.8816 0.219574 12.7738 0.109787Q12.666 0 12.5195 0Z" fill="#ffffff"/>
 </g>
</svg>
