<?xml version="1.0" encoding="UTF-8"?>
<!--Generator: Apple Native CoreSVG 175.5-->
<!DOCTYPE svg
PUBLIC "-//W3C//DTD SVG 1.1//EN"
       "http://www.w3.org/Graphics/SVG/1.1/DTD/svg11.dtd">
<svg version="1.1" xmlns="http://www.w3.org/2000/svg" xmlns:xlink="http://www.w3.org/1999/xlink" width="25.0293" height="24.834">
 <g>
  <rect height="24.834" opacity="0" width="25.0293" x="0" y="0"/>
  <path d="M8.44727 19.1406L11.0156 19.1406Q10.0195 18.7207 9.37988 17.793Q8.74023 16.8652 8.74023 15.7227Q8.74023 14.6875 9.25293 13.8281Q9.76562 12.9688 10.625 12.4561Q11.4844 11.9434 12.5195 11.9434Q13.5449 11.9434 14.4043 12.4561Q15.2637 12.9688 15.7764 13.8281Q16.2891 14.6875 16.2891 15.7227Q16.2891 16.8652 15.6494 17.793Q15.0098 18.7207 14.0137 19.1406L16.582 19.1406Q17.1777 18.4473 17.5146 17.5732Q17.8516 16.6992 17.8516 15.7227Q17.8516 14.6191 17.4365 13.6523Q17.0215 12.6855 16.2793 11.9482Q15.5371 11.2109 14.5703 10.791Q13.6035 10.3711 12.5195 10.3711Q11.4258 10.3711 10.459 10.791Q9.49219 11.2109 8.75 11.9482Q8.00781 12.6855 7.59277 13.6523Q7.17773 14.6191 7.17773 15.7227Q7.17773 16.6992 7.51465 17.5732Q7.85156 18.4473 8.44727 19.1406ZM2.11914 16.2598L4.52148 16.2598Q4.90234 16.2598 5.15137 16.0303Q5.40039 15.8008 5.40039 15.4688Q5.39062 15.1465 5.14648 14.9121Q4.90234 14.6777 4.52148 14.6777L2.11914 14.6777Q1.73828 14.6777 1.49414 14.9121Q1.25 15.1465 1.25 15.4688Q1.25 15.8008 1.49414 16.0303Q1.73828 16.2598 2.11914 16.2598ZM7.48047 10.6836Q7.70508 10.4492 7.7002 10.1074Q7.69531 9.76562 7.42188 9.50195L5.72266 7.80273Q5.44922 7.5293 5.11719 7.5293Q4.78516 7.5293 4.55078 7.75391Q4.31641 7.97852 4.32129 8.31543Q4.32617 8.65234 4.59961 8.92578L6.29883 10.625Q6.5625 10.8984 6.90918 10.9082Q7.25586 10.918 7.48047 10.6836ZM17.5488 10.6836Q17.7832 10.9082 18.125 10.9033Q18.4668 10.8984 18.7305 10.625L20.4297 8.92578Q20.7031 8.65234 20.708 8.32031Q20.7129 7.98828 20.4785 7.75391Q20.2539 7.51953 19.917 7.52441Q19.5801 7.5293 19.3066 7.80273L17.6074 9.50195Q17.334 9.76562 17.3242 10.1123Q17.3145 10.459 17.5488 10.6836ZM20.5078 16.2598L22.9102 16.2598Q23.291 16.2598 23.5352 16.0303Q23.7793 15.8008 23.7793 15.4688Q23.7793 15.1465 23.5352 14.9121Q23.291 14.6777 22.9102 14.6777L20.5078 14.6777Q20.1367 14.6777 19.8828 14.9121Q19.6289 15.1465 19.6289 15.4688Q19.6387 15.8008 19.8877 16.0303Q20.1367 16.2598 20.5078 16.2598Z" fill="#007aff"/>
  <path d="M0.849609 20.3809L24.1797 20.3809Q24.5215 20.3809 24.7754 20.1514Q25.0293 19.9219 25.0293 19.5996Q25.0293 19.2773 24.7754 19.0479Q24.5215 18.8184 24.1797 18.8184L0.849609 18.8184Q0.507812 18.8184 0.253906 19.0479Q0 19.2773 0 19.5996Q0 19.9219 0.253906 20.1514Q0.507812 20.3809 0.849609 20.3809ZM12.5195 0Q12.1875 0 11.9531 0.253906Q11.7188 0.507812 11.7188 0.869141L11.7188 4.52148L11.8359 5.99609L11.2109 5.26367L9.89258 3.93555Q9.78516 3.82812 9.64844 3.76953Q9.51172 3.71094 9.375 3.71094Q9.08203 3.71094 8.8916 3.8916Q8.70117 4.07227 8.70117 4.36523Q8.70117 4.52148 8.75977 4.64355Q8.81836 4.76562 8.93555 4.87305L11.9824 7.71484Q12.2656 7.96875 12.5195 7.96875Q12.7637 7.96875 13.0469 7.71484L16.0938 4.87305Q16.2109 4.76562 16.2695 4.64355Q16.3281 4.52148 16.3281 4.36523Q16.3281 4.07227 16.1377 3.8916Q15.9473 3.71094 15.6543 3.71094Q15.5176 3.71094 15.3809 3.76953Q15.2441 3.82812 15.1367 3.93555L13.916 5.16602L13.1934 5.99609L13.3105 4.52148L13.3105 0.869141Q13.3105 0.507812 13.0762 0.253906Q12.8418 0 12.5195 0Z" fill="#ffffff"/>
 </g>
</svg>
