<?xml version="1.0" encoding="UTF-8"?>
<!--Generator: Apple Native CoreSVG 175.5-->
<!DOCTYPE svg
PUBLIC "-//W3C//DTD SVG 1.1//EN"
       "http://www.w3.org/Graphics/SVG/1.1/DTD/svg11.dtd">
<svg version="1.1" xmlns="http://www.w3.org/2000/svg" xmlns:xlink="http://www.w3.org/1999/xlink" width="22.3539" height="22.0605">
 <g>
  <rect height="22.0605" opacity="0" width="22.3539" x="0" y="0"/>
  <path d="M0.205503 21.8555Q0.400815 22.041 0.674253 22.0361Q0.94769 22.0312 1.15277 21.8359L5.36175 17.627L4.41449 16.6895L0.205503 20.8984Q0.0101902 21.0938 0.000424592 21.3721Q-0.00934103 21.6504 0.205503 21.8555ZM3.59417 16.6309L5.46917 18.4863Q6.21136 19.2188 7.14886 19.1992Q8.08636 19.1797 8.86761 18.3984L19.1215 8.14453L18.0082 7.03125L7.7641 17.2852Q7.48089 17.5684 7.12445 17.5586Q6.768 17.5488 6.46527 17.2461L4.82464 15.6152Q4.52191 15.3223 4.52191 14.9658Q4.52191 14.6094 4.81488 14.3164L15.059 4.08203L13.936 2.95898L3.68207 13.2227Q2.89105 14.0234 2.86664 14.9609Q2.84222 15.8984 3.59417 16.6309ZM5.17621 12.1973L7.57855 14.6094Q7.72503 14.7559 7.9057 14.751Q8.08636 14.7461 8.23285 14.5996Q8.3598 14.4727 8.35492 14.2871Q8.35003 14.1016 8.22308 13.9648L5.81097 11.5723ZM7.20746 10.1855L9.6098 12.5879Q9.74652 12.7246 9.93207 12.7246Q10.1176 12.7246 10.2543 12.5879Q10.3813 12.4609 10.3764 12.2705Q10.3715 12.0801 10.2446 11.9531L7.84222 9.55078ZM9.23871 8.14453L11.641 10.5566Q11.7778 10.6934 11.9633 10.6934Q12.1489 10.6934 12.2856 10.5566Q12.4125 10.4297 12.4125 10.2393Q12.4125 10.0488 12.2758 9.91211L9.87347 7.50977ZM11.27 6.12305L13.6723 8.53516Q13.809 8.66211 13.9897 8.66211Q14.1703 8.66211 14.3071 8.53516Q14.4438 8.4082 14.4389 8.21289Q14.434 8.01758 14.3071 7.89062L11.895 5.48828ZM12.3149 2.51953L19.5805 9.78516Q19.8051 10.0098 20.1323 10.0098Q20.4594 10.0098 20.684 9.78516Q20.9184 9.55078 20.9184 9.22363Q20.9184 8.89648 20.684 8.67188L13.4282 1.41602Q13.184 1.17188 12.8666 1.17676Q12.5493 1.18164 12.3149 1.41602Q12.0903 1.64062 12.0805 1.95801Q12.0707 2.27539 12.3149 2.51953ZM14.1703 2.74414L19.3364 7.92969L20.0395 7.22656Q20.2641 7.00195 20.269 6.6748Q20.2739 6.34766 20.0395 6.12305L18.6235 4.70703L19.8442 3.48633L21.016 4.6582Q21.2407 4.88281 21.5678 4.88281Q21.895 4.88281 22.1196 4.6582Q22.3539 4.42383 22.3539 4.09668Q22.3539 3.76953 22.1196 3.54492L18.809 0.234375Q18.5844 0 18.2573 0Q17.9301 0 17.6957 0.234375Q17.4711 0.458984 17.4711 0.786133Q17.4711 1.11328 17.6957 1.33789L18.8774 2.50977L17.6567 3.73047L15.977 2.05078Q15.7426 1.82617 15.4155 1.82617Q15.0883 1.82617 14.8637 2.05078Z" fill="#ffffff"/>
 </g>
</svg>
