<?xml version="1.0" encoding="UTF-8"?>
<!--Generator: Apple Native CoreSVG 175.5-->
<!DOCTYPE svg
PUBLIC "-//W3C//DTD SVG 1.1//EN"
       "http://www.w3.org/Graphics/SVG/1.1/DTD/svg11.dtd">
<svg version="1.1" xmlns="http://www.w3.org/2000/svg" xmlns:xlink="http://www.w3.org/1999/xlink" width="19.9219" height="19.9316">
 <g>
  <rect height="19.9316" opacity="0" width="19.9219" x="0" y="0"/>
  <path d="M9.96094 19.9219Q12.002 19.9219 13.8037 19.1406Q15.6055 18.3594 16.9824 16.9824Q18.3594 15.6055 19.1406 13.8037Q19.9219 12.002 19.9219 9.96094Q19.9219 7.91992 19.1406 6.11816Q18.3594 4.31641 16.9824 2.93945Q15.6055 1.5625 13.7988 0.78125Q11.9922 0 9.95117 0Q7.91016 0 6.1084 0.78125Q4.30664 1.5625 2.93457 2.93945Q1.5625 4.31641 0.78125 6.11816Q0 7.91992 0 9.96094Q0 12.002 0.78125 13.8037Q1.5625 15.6055 2.93945 16.9824Q4.31641 18.3594 6.11816 19.1406Q7.91992 19.9219 9.96094 19.9219ZM9.96094 18.2617Q8.23242 18.2617 6.72852 17.6172Q5.22461 16.9727 4.08691 15.835Q2.94922 14.6973 2.30957 13.1934Q1.66992 11.6895 1.66992 9.96094Q1.66992 8.23242 2.30957 6.72852Q2.94922 5.22461 4.08203 4.08203Q5.21484 2.93945 6.71875 2.2998Q8.22266 1.66016 9.95117 1.66016Q11.6797 1.66016 13.1836 2.2998Q14.6875 2.93945 15.8301 4.08203Q16.9727 5.22461 17.6172 6.72852Q18.2617 8.23242 18.2617 9.96094Q18.2617 11.6895 17.6221 13.1934Q16.9824 14.6973 15.8447 15.835Q14.707 16.9727 13.1982 17.6172Q11.6895 18.2617 9.96094 18.2617Z" fill="#ffffff"/>
  <path d="M9.96094 16.1523Q11.2305 16.1523 12.3535 15.6641Q13.4766 15.1758 14.3311 14.3213Q15.1855 13.4668 15.6689 12.3486Q16.1523 11.2305 16.1523 9.96094Q16.1523 8.69141 15.6641 7.56836Q15.1758 6.44531 14.3213 5.59082Q13.4668 4.73633 12.3486 4.24805Q11.2305 3.75977 9.96094 3.75977Q8.69141 3.75977 7.56836 4.24805Q6.44531 4.73633 5.59082 5.59082Q4.73633 6.44531 4.25293 7.56836Q3.76953 8.69141 3.76953 9.96094Q3.76953 11.2305 4.25781 12.3486Q4.74609 13.4668 5.60059 14.3213Q6.45508 15.1758 7.57324 15.6641Q8.69141 16.1523 9.96094 16.1523ZM9.96094 14.5801Q9.02344 14.5801 8.18848 14.2139Q7.35352 13.8477 6.71387 13.208Q6.07422 12.5684 5.70801 11.7334Q5.3418 10.8984 5.3418 9.96094Q5.3418 9.01367 5.70312 8.17383Q6.06445 7.33398 6.7041 6.69434Q7.34375 6.05469 8.17871 5.69336Q9.01367 5.33203 9.96094 5.33203Q10.8984 5.33203 11.7334 5.69824Q12.5684 6.06445 13.208 6.7041Q13.8477 7.34375 14.2139 8.17871Q14.5801 9.01367 14.5801 9.96094Q14.5801 10.9082 14.2188 11.7432Q13.8574 12.5781 13.2178 13.2178Q12.5781 13.8574 11.7432 14.2188Q10.9082 14.5801 9.96094 14.5801Z" fill="#ffffff"/>
  <path d="M9.9707 12.4902Q10.6641 12.4902 11.2402 12.1484Q11.8164 11.8066 12.1582 11.2305Q12.5 10.6543 12.5 9.95117Q12.5 9.25781 12.1582 8.68652Q11.8164 8.11523 11.2402 7.77344Q10.6641 7.43164 9.9707 7.43164Q9.26758 7.43164 8.69141 7.77344Q8.11523 8.11523 7.77344 8.68652Q7.43164 9.25781 7.43164 9.95117Q7.43164 10.6543 7.77344 11.2305Q8.11523 11.8066 8.69629 12.1484Q9.27734 12.4902 9.9707 12.4902Z" fill="#ffffff"/>
 </g>
</svg>
