<?xml version="1.0" encoding="UTF-8"?>
<!--Generator: Apple Native CoreSVG 175-->
<!DOCTYPE svg
PUBLIC "-//W3C//DTD SVG 1.1//EN"
       "http://www.w3.org/Graphics/SVG/1.1/DTD/svg11.dtd">
<svg version="1.1" xmlns="http://www.w3.org/2000/svg" xmlns:xlink="http://www.w3.org/1999/xlink" width="19.1602" height="19.1504">
 <g>
  <rect height="19.1504" opacity="0" width="19.1602" x="0" y="0"/>
  <path d="M9.57031 19.1504Q11.5527 19.1504 13.2861 18.4082Q15.0195 17.666 16.3379 16.3428Q17.6562 15.0195 18.4082 13.2861Q19.1602 11.5527 19.1602 9.58008Q19.1602 7.60742 18.4082 5.87402Q17.6562 4.14062 16.3379 2.81738Q15.0195 1.49414 13.2861 0.751953Q11.5527 0.00976562 9.57031 0.00976562Q7.59766 0.00976562 5.86426 0.751953Q4.13086 1.49414 2.81738 2.81738Q1.50391 4.14062 0.751953 5.87402Q0 7.60742 0 9.58008Q0 11.5527 0.74707 13.2861Q1.49414 15.0195 2.8125 16.3428Q4.13086 17.666 5.86914 18.4082Q7.60742 19.1504 9.57031 19.1504Z" fill="#007aff"/>
  <path d="M9.57031 6.62109Q8.22266 6.62109 7.73438 6.7627Q7.24609 6.9043 7.24609 7.23633L7.24609 7.43164Q7.24609 7.85156 7.08496 8.11035Q6.92383 8.36914 6.38672 8.4375L4.52148 8.64258Q3.89648 8.71094 3.59863 8.49609Q3.30078 8.28125 3.30078 7.75391Q3.30078 7.75391 3.30078 7.74902Q3.30078 7.74414 3.30078 7.73438Q3.30078 6.75781 4.07227 6.04004Q4.84375 5.32227 6.25488 4.93164Q7.66602 4.54102 9.57031 4.54102Q11.4941 4.54102 12.9004 4.93164Q14.3066 5.32227 15.0781 6.04492Q15.8496 6.76758 15.8496 7.75391L15.8496 7.75391Q15.8496 8.28125 15.5518 8.49609Q15.2539 8.71094 14.6289 8.64258L12.7734 8.4375Q12.2266 8.36914 12.0654 8.11035Q11.9043 7.85156 11.9043 7.43164L11.9043 7.23633Q11.9043 6.89453 11.4258 6.75781Q10.9473 6.62109 9.57031 6.62109ZM4.95117 11.4062Q4.38477 11.4062 4.38477 10.8594L4.38477 9.92188Q4.38477 9.375 4.95117 9.375L5.85938 9.375Q6.13281 9.375 6.27441 9.52148Q6.41602 9.66797 6.41602 9.92188L6.41602 10.8594Q6.41602 11.4062 5.85938 11.4062ZM7.72461 11.4062Q7.1582 11.4062 7.1582 10.8594L7.1582 9.92188Q7.1582 9.375 7.72461 9.375L8.64258 9.375Q9.19922 9.375 9.19922 9.92188L9.19922 10.8594Q9.19922 11.4062 8.64258 11.4062ZM10.498 11.4062Q9.93164 11.4062 9.93164 10.8594L9.93164 9.92188Q9.93164 9.375 10.498 9.375L11.3965 9.375Q11.9629 9.375 11.9629 9.92188L11.9629 10.8594Q11.9629 11.4062 11.3965 11.4062ZM13.252 11.4062Q12.7051 11.4062 12.7051 10.8594L12.7051 9.92188Q12.7051 9.375 13.252 9.375L14.1699 9.375Q14.7363 9.375 14.7363 9.92188L14.7363 10.8594Q14.7363 11.4062 14.1699 11.4062ZM4.94141 14.1797Q4.38477 14.1797 4.38477 13.6133L4.38477 12.7051Q4.38477 12.1484 4.94141 12.1484L5.85938 12.1484Q6.12305 12.1484 6.26953 12.29Q6.41602 12.4316 6.41602 12.7051L6.41602 13.6133Q6.41602 14.1797 5.85938 14.1797ZM7.71484 14.1797Q7.1582 14.1797 7.1582 13.6133L7.1582 12.7051Q7.1582 12.1484 7.71484 12.1484L11.416 12.1484Q11.9629 12.1484 11.9629 12.7051L11.9629 13.6133Q11.9629 14.1797 11.416 14.1797ZM13.2715 14.1797Q12.7051 14.1797 12.7051 13.6133L12.7051 12.7051Q12.7051 12.1484 13.2715 12.1484L14.1797 12.1484Q14.4434 12.1484 14.5898 12.29Q14.7363 12.4316 14.7363 12.7051L14.7363 13.6133Q14.7363 14.1797 14.1797 14.1797Z" fill="#ffffff"/>
 </g>
</svg>
