<?xml version="1.0" encoding="UTF-8"?>
<!--Generator: Apple Native CoreSVG 175.5-->
<!DOCTYPE svg
PUBLIC "-//W3C//DTD SVG 1.1//EN"
       "http://www.w3.org/Graphics/SVG/1.1/DTD/svg11.dtd">
<svg version="1.1" xmlns="http://www.w3.org/2000/svg" xmlns:xlink="http://www.w3.org/1999/xlink" width="17.3633" height="19.3457">
 <g>
  <rect height="19.3457" opacity="0" width="17.3633" x="0" y="0"/>
  <path d="M0.820312 16.875Q1.21094 16.875 1.42578 16.709Q1.64062 16.543 1.77734 16.1328L3.03711 12.6855L8.79883 12.6855L10.0586 16.1328Q10.1953 16.543 10.4102 16.709Q10.625 16.875 11.0059 16.875Q11.3965 16.875 11.626 16.6602Q11.8555 16.4453 11.8555 16.0742Q11.8555 15.8496 11.748 15.5469L7.16797 3.34961Q6.99219 2.90039 6.68945 2.67578Q6.38672 2.45117 5.91797 2.45117Q5.00977 2.45117 4.6875 3.33984L0.107422 15.5566Q0 15.8594 0 16.084Q0 16.4551 0.219727 16.665Q0.439453 16.875 0.820312 16.875ZM3.51562 11.2012L5.88867 4.62891L5.9375 4.62891L8.31055 11.2012Z" fill="#007aff"/>
  <path d="M16.6406 19.3457Q16.9727 19.3457 17.168 19.1504Q17.3633 18.9551 17.3633 18.6523L17.3633 11.9727Q17.3633 11.6113 17.1533 11.4014Q16.9434 11.1914 16.582 11.1914Q16.2598 11.1914 16.0645 11.2988Q15.8691 11.4062 15.6543 11.5527L14.0918 12.6172Q13.8867 12.7637 13.7939 12.8955Q13.7012 13.0273 13.7012 13.1934Q13.7012 13.4375 13.8623 13.5986Q14.0234 13.7598 14.248 13.7598Q14.3945 13.7598 14.5068 13.7158Q14.6191 13.6719 14.7656 13.5645L15.8984 12.8027L15.9277 12.8027L15.9277 18.6523Q15.9277 18.9551 16.1279 19.1504Q16.3281 19.3457 16.6406 19.3457Z" fill="#ffffff"/>
 </g>
</svg>
