<?xml version="1.0" encoding="UTF-8"?>
<!--Generator: Apple Native CoreSVG 175.5-->
<!DOCTYPE svg
PUBLIC "-//W3C//DTD SVG 1.1//EN"
       "http://www.w3.org/Graphics/SVG/1.1/DTD/svg11.dtd">
<svg version="1.1" xmlns="http://www.w3.org/2000/svg" xmlns:xlink="http://www.w3.org/1999/xlink" width="19.6777" height="16.8848">
 <g>
  <rect height="16.8848" opacity="0" width="19.6777" x="0" y="0"/>
  <path d="M0.732422 1.47461L18.9258 1.47461Q19.2383 1.47461 19.458 1.25977Q19.6777 1.04492 19.6777 0.732422Q19.6777 0.429688 19.458 0.214844Q19.2383 0 18.9258 0L0.732422 0Q0.429688 0 0.214844 0.214844Q0 0.429688 0 0.732422Q0 1.04492 0.214844 1.25977Q0.429688 1.47461 0.732422 1.47461ZM0.732422 6.5918L11.7188 6.5918Q12.0312 6.5918 12.2461 6.37695Q12.4609 6.16211 12.4609 5.84961Q12.4609 5.53711 12.2461 5.32715Q12.0312 5.11719 11.7188 5.11719L0.732422 5.11719Q0.429688 5.11719 0.214844 5.32715Q0 5.53711 0 5.84961Q0 6.16211 0.214844 6.37695Q0.429688 6.5918 0.732422 6.5918ZM0.732422 11.709L18.9258 11.709Q19.2383 11.709 19.458 11.4941Q19.6777 11.2793 19.6777 10.9668Q19.6777 10.6543 19.458 10.4443Q19.2383 10.2344 18.9258 10.2344L0.732422 10.2344Q0.429688 10.2344 0.214844 10.4443Q0 10.6543 0 10.9668Q0 11.2793 0.214844 11.4941Q0.429688 11.709 0.732422 11.709ZM0.732422 16.8164L11.7188 16.8164Q12.0312 16.8164 12.2461 16.6064Q12.4609 16.3965 12.4609 16.084Q12.4609 15.7715 12.2461 15.5566Q12.0312 15.3418 11.7188 15.3418L0.732422 15.3418Q0.429688 15.3418 0.214844 15.5566Q0 15.7715 0 16.084Q0 16.3965 0.214844 16.6064Q0.429688 16.8164 0.732422 16.8164Z" fill="#ffffff"/>
 </g>
</svg>
