<?xml version="1.0" encoding="UTF-8"?>
<!--Generator: Apple Native CoreSVG 175-->
<!DOCTYPE svg
PUBLIC "-//W3C//DTD SVG 1.1//EN"
       "http://www.w3.org/Graphics/SVG/1.1/DTD/svg11.dtd">
<svg version="1.1" xmlns="http://www.w3.org/2000/svg" xmlns:xlink="http://www.w3.org/1999/xlink" width="18.9043" height="16.0974">
 <g>
  <rect height="16.0974" opacity="0" width="18.9043" x="0" y="0"/>
  <path d="M0.352783 0.701294L18.5461 0.701294Q18.7039 0.701294 18.8041 0.602417Q18.9043 0.50354 18.9043 0.345764Q18.9043 0.197754 18.8041 0.098877Q18.7039 0 18.5461 0L0.352783 0Q0.197601 0 0.0988007 0.098877Q0 0.197754 0 0.345764Q0 0.50354 0.0988007 0.602417Q0.197601 0.701294 0.352783 0.701294ZM3.57224 5.83252L15.3293 5.83252Q15.4871 5.83252 15.5859 5.73372Q15.6848 5.63492 15.6848 5.47699Q15.6848 5.32623 15.5859 5.22881Q15.4871 5.13138 15.3293 5.13138L3.57224 5.13138Q3.42148 5.13138 3.31917 5.22881Q3.21686 5.32623 3.21686 5.47699Q3.21686 5.63492 3.31917 5.73372Q3.42148 5.83252 3.57224 5.83252ZM0.352783 10.9637L18.5461 10.9637Q18.7039 10.9637 18.8041 10.8649Q18.9043 10.7661 18.9043 10.6152Q18.9043 10.4575 18.8041 10.36Q18.7039 10.2626 18.5461 10.2626L0.352783 10.2626Q0.197601 10.2626 0.0988007 10.36Q0 10.4575 0 10.6152Q0 10.7661 0.0988007 10.8649Q0.197601 10.9637 0.352783 10.9637ZM3.57224 16.0922L15.3293 16.0922Q15.4871 16.0922 15.5859 15.9948Q15.6848 15.8974 15.6848 15.7466Q15.6848 15.5887 15.5859 15.4899Q15.4871 15.3911 15.3293 15.3911L3.57224 15.3911Q3.42148 15.3911 3.31917 15.4899Q3.21686 15.5887 3.21686 15.7466Q3.21686 15.8974 3.31917 15.9948Q3.42148 16.0922 3.57224 16.0922Z" fill="#ffffff"/>
 </g>
</svg>
