<?xml version="1.0" encoding="UTF-8"?>
<!--Generator: Apple Native CoreSVG 175.5-->
<!DOCTYPE svg
PUBLIC "-//W3C//DTD SVG 1.1//EN"
       "http://www.w3.org/Graphics/SVG/1.1/DTD/svg11.dtd">
<svg version="1.1" xmlns="http://www.w3.org/2000/svg" xmlns:xlink="http://www.w3.org/1999/xlink" width="19.9219" height="19.9316">
 <g>
  <rect height="19.9316" opacity="0" width="19.9219" x="0" y="0"/>
  <path d="M9.96094 19.9219Q12.002 19.9219 13.8037 19.1406Q15.6055 18.3594 16.9824 16.9824Q18.3594 15.6055 19.1406 13.8037Q19.9219 12.002 19.9219 9.96094Q19.9219 7.91992 19.1406 6.11816Q18.3594 4.31641 16.9873 2.93945Q15.6152 1.5625 13.8135 0.78125Q12.0117 0 9.9707 0Q9.58008 0 9.38965 0.219727Q9.19922 0.439453 9.19922 0.820312L9.19922 4.59961Q9.19922 4.92188 9.39941 5.1416Q9.59961 5.36133 9.91211 5.36133Q10.2344 5.36133 10.4346 5.1416Q10.6348 4.92188 10.6348 4.59961L10.6348 0.800781L9.95117 1.66016Q11.6895 1.66016 13.1934 2.2998Q14.6973 2.93945 15.835 4.07715Q16.9727 5.21484 17.6123 6.72363Q18.252 8.23242 18.252 9.96094Q18.252 11.6895 17.6123 13.1934Q16.9727 14.6973 15.835 15.835Q14.6973 16.9727 13.1934 17.6172Q11.6895 18.2617 9.96094 18.2617Q8.23242 18.2617 6.72363 17.6172Q5.21484 16.9727 4.07715 15.835Q2.93945 14.6973 2.2998 13.1934Q1.66016 11.6895 1.66016 9.96094Q1.66992 8.41797 2.1875 7.0459Q2.70508 5.67383 3.63281 4.59961Q3.84766 4.31641 3.85742 3.99414Q3.86719 3.67188 3.62305 3.41797Q3.37891 3.16406 3.02246 3.18848Q2.66602 3.21289 2.40234 3.53516Q1.28906 4.84375 0.644531 6.48926Q0 8.13477 0 9.96094Q0 12.002 0.78125 13.8037Q1.5625 15.6055 2.93945 16.9824Q4.31641 18.3594 6.11816 19.1406Q7.91992 19.9219 9.96094 19.9219Z" fill="#007aff"/>
  <path d="M11.5234 11.3672Q11.9141 10.957 11.9922 10.4932Q12.0703 10.0293 11.8701 9.58984Q11.6699 9.15039 11.2109 8.82812L6.04492 5.21484Q5.80078 5.04883 5.58594 5.12695Q5.37109 5.20508 5.29785 5.41504Q5.22461 5.625 5.39062 5.86914L8.99414 11.0352Q9.31641 11.5039 9.75586 11.7041Q10.1953 11.9043 10.6641 11.8262Q11.1328 11.748 11.5234 11.3672Z" fill="#ffffff"/>
 </g>
</svg>
