<?xml version="1.0" encoding="UTF-8"?>
<!--Generator: Apple Native CoreSVG 175.5-->
<!DOCTYPE svg
PUBLIC "-//W3C//DTD SVG 1.1//EN"
       "http://www.w3.org/Graphics/SVG/1.1/DTD/svg11.dtd">
<svg version="1.1" xmlns="http://www.w3.org/2000/svg" xmlns:xlink="http://www.w3.org/1999/xlink" width="24.3457" height="15.498">
 <g>
  <rect height="15.498" opacity="0" width="24.3457" x="0" y="0"/>
  <path d="M0 12.5098Q0 14.0039 0.756836 14.751Q1.51367 15.498 3.02734 15.498L21.3184 15.498Q22.832 15.498 23.5889 14.751Q24.3457 14.0039 24.3457 12.5098L24.3457 2.98828Q24.3457 1.49414 23.5889 0.74707Q22.832 0 21.3184 0L3.02734 0Q1.51367 0 0.756836 0.74707Q0 1.49414 0 2.98828ZM3.57422 7.57812L3.57422 4.57031Q3.57422 3.64258 4.50195 3.64258L19.8438 3.64258Q20.7715 3.64258 20.7715 4.57031L20.7715 7.57812Q20.7715 7.98828 20.5225 8.23242Q20.2734 8.47656 19.8438 8.47656L4.50195 8.47656Q4.07227 8.47656 3.82324 8.23242Q3.57422 7.98828 3.57422 7.57812Z" fill="#ffffff"/>
 </g>
</svg>
