<?xml version="1.0" encoding="UTF-8"?>
<!--Generator: Apple Native CoreSVG 175-->
<!DOCTYPE svg
PUBLIC "-//W3C//DTD SVG 1.1//EN"
       "http://www.w3.org/Graphics/SVG/1.1/DTD/svg11.dtd">
<svg version="1.1" xmlns="http://www.w3.org/2000/svg" xmlns:xlink="http://www.w3.org/1999/xlink" width="19.1602" height="19.1504">
 <g>
  <rect height="19.1504" opacity="0" width="19.1602" x="0" y="0"/>
  <path d="M9.57031 19.1504Q11.5527 19.1504 13.2861 18.4082Q15.0195 17.666 16.3379 16.3428Q17.6562 15.0195 18.4082 13.2861Q19.1602 11.5527 19.1602 9.58008Q19.1602 7.60742 18.4082 5.87402Q17.6562 4.14062 16.3379 2.81738Q15.0195 1.49414 13.2861 0.751953Q11.5527 0.00976562 9.57031 0.00976562Q7.59766 0.00976562 5.86426 0.751953Q4.13086 1.49414 2.81738 2.81738Q1.50391 4.14062 0.751953 5.87402Q0 7.60742 0 9.58008Q0 11.5527 0.74707 13.2861Q1.49414 15.0195 2.8125 16.3428Q4.13086 17.666 5.86914 18.4082Q7.60742 19.1504 9.57031 19.1504Z" fill="#007aff"/>
  <path d="M5.47852 12.1094L5.47852 8.93555Q5.47852 7.75391 5.63477 6.71875Q5.79102 5.68359 5.9375 5.11719Q6.07422 4.60938 6.44043 4.27734Q6.80664 3.94531 7.32422 3.89648Q7.69531 3.83789 8.28125 3.80371Q8.86719 3.76953 9.58984 3.76953Q10.293 3.76953 10.8789 3.80371Q11.4648 3.83789 11.8359 3.89648Q12.3633 3.94531 12.7246 4.27734Q13.0859 4.60938 13.2324 5.11719Q13.3789 5.68359 13.5303 6.71875Q13.6816 7.75391 13.6816 8.93555L13.6816 12.1094Q13.6816 12.7539 13.3203 13.2178Q12.959 13.6816 12.0898 13.7012L13.0176 15.1953Q13.0762 15.293 13.042 15.376Q13.0078 15.459 12.9004 15.459L12.7051 15.459Q12.5684 15.459 12.5 15.3516L12.2266 14.9023L6.93359 14.9023L6.66016 15.3516Q6.60156 15.459 6.47461 15.459L6.26953 15.459Q6.15234 15.459 6.11816 15.376Q6.08398 15.293 6.14258 15.1953L7.07031 13.7012Q6.29883 13.6816 5.88867 13.2715Q5.47852 12.8613 5.47852 12.1094ZM6.5918 10Q6.5918 10.5371 7.10938 10.5762Q7.57812 10.6152 8.19824 10.6445Q8.81836 10.6738 9.58984 10.6738Q10.293 10.6738 10.918 10.6494Q11.543 10.625 12.041 10.5762Q12.5586 10.5371 12.5586 10L12.5586 8.7793Q12.5586 8.13477 12.5 7.58301Q12.4414 7.03125 12.3535 6.5918Q12.2754 6.15234 11.8262 6.09375Q11.4258 6.05469 10.8789 6.03027Q10.332 6.00586 9.58984 6.00586Q8.82812 6.00586 8.27148 6.03516Q7.71484 6.06445 7.27539 6.10352Q6.88477 6.14258 6.80664 6.5918Q6.71875 7.03125 6.65527 7.58301Q6.5918 8.13477 6.5918 8.7793ZM6.70898 12.0215Q6.70898 12.2852 6.875 12.4463Q7.04102 12.6074 7.29492 12.6074Q7.53906 12.6074 7.70996 12.4463Q7.88086 12.2852 7.88086 12.0215Q7.88086 11.7773 7.70996 11.6113Q7.53906 11.4453 7.29492 11.4453Q7.04102 11.4453 6.875 11.6113Q6.70898 11.7773 6.70898 12.0215ZM11.2988 12.0215Q11.2988 12.2754 11.4697 12.4463Q11.6406 12.6172 11.875 12.6172Q12.1289 12.6172 12.2998 12.4463Q12.4707 12.2754 12.4707 12.0215Q12.4707 11.7773 12.3047 11.6162Q12.1387 11.4551 11.875 11.4551Q11.6406 11.4551 11.4697 11.6162Q11.2988 11.7773 11.2988 12.0215ZM8.06641 5.04883Q8.06641 5.14648 8.12012 5.20508Q8.17383 5.26367 8.28125 5.26367L10.8887 5.26367Q10.9961 5.26367 11.0498 5.20508Q11.1035 5.14648 11.1035 5.04883Q11.1035 4.95117 11.0498 4.89746Q10.9961 4.84375 10.8887 4.84375L8.28125 4.84375Q8.17383 4.84375 8.12012 4.89746Q8.06641 4.95117 8.06641 5.04883ZM7.24609 14.4043L11.9141 14.4043L11.4844 13.7012L7.68555 13.7012Z" fill="#ffffff"/>
 </g>
</svg>
