<?xml version="1.0" encoding="UTF-8"?>
<!--Generator: Apple Native CoreSVG 175.5-->
<!DOCTYPE svg
PUBLIC "-//W3C//DTD SVG 1.1//EN"
       "http://www.w3.org/Graphics/SVG/1.1/DTD/svg11.dtd">
<svg version="1.1" xmlns="http://www.w3.org/2000/svg" xmlns:xlink="http://www.w3.org/1999/xlink" width="23.623" height="17.2734">
 <g>
  <rect height="17.2734" opacity="0" width="23.623" x="0" y="0"/>
  <path d="M6.37695 15.2236L16.9434 17.0693Q18.3789 17.3135 19.248 16.6201Q20.1172 15.9267 20.1172 14.5205L20.1172 2.61619Q20.1172 1.21971 19.248 0.516582Q18.3789-0.186543 16.9434 0.0673629L6.37695 1.92283Q4.9707 2.16697 4.23828 2.90916Q3.50586 3.65135 3.50586 4.83299L3.50586 12.3037Q3.50586 13.4853 4.23828 14.2275Q4.9707 14.9697 6.37695 15.2236ZM0.78125 9.30564Q0.419922 9.30564 0.209961 9.10545Q0 8.90525 0 8.57322Q0 8.22166 0.209961 8.02635Q0.419922 7.83103 0.78125 7.83103L22.8418 7.83103Q23.2129 7.83103 23.418 8.02635Q23.623 8.22166 23.623 8.57322Q23.623 8.90525 23.418 9.10545Q23.2129 9.30564 22.8418 9.30564Z" fill="#ffffff"/>
 </g>
</svg>
