<?xml version="1.0" encoding="UTF-8"?>
<!--Generator: Apple Native CoreSVG 175.5-->
<!DOCTYPE svg
PUBLIC "-//W3C//DTD SVG 1.1//EN"
       "http://www.w3.org/Graphics/SVG/1.1/DTD/svg11.dtd">
<svg version="1.1" xmlns="http://www.w3.org/2000/svg" xmlns:xlink="http://www.w3.org/1999/xlink" width="17.9785" height="17.998">
 <g>
  <rect height="17.998" opacity="0" width="17.9785" x="0" y="0"/>
  <path d="M3.06641 17.998L14.9121 17.998Q16.4453 17.998 17.2119 17.2412Q17.9785 16.4844 17.9785 14.9707L17.9785 3.04688Q17.9785 1.5332 17.2119 0.776367Q16.4453 0.0195312 14.9121 0.0195312L3.06641 0.0195312Q1.5332 0.0195312 0.766602 0.776367Q0 1.5332 0 3.04688L0 14.9707Q0 16.4844 0.766602 17.2412Q1.5332 17.998 3.06641 17.998Z" fill="#007aff"/>
  <path d="M6.39648 14.9316Q5.88867 14.9316 5.5957 14.6582Q5.30273 14.3848 5.2832 13.8672L4.94141 5.9082L4.12109 5.9082Q3.93555 5.9082 3.81348 5.78613Q3.69141 5.66406 3.69141 5.48828Q3.69141 5.30273 3.81348 5.17578Q3.93555 5.04883 4.12109 5.04883L6.54297 5.04883L6.54297 4.23828Q6.54297 3.61328 6.92383 3.24219Q7.30469 2.87109 7.96875 2.87109L10 2.87109Q10.6641 2.87109 11.0547 3.24219Q11.4453 3.61328 11.4453 4.23828L11.4453 5.04883L13.8477 5.04883Q14.0332 5.04883 14.165 5.17578Q14.2969 5.30273 14.2871 5.48828Q14.2773 5.66406 14.1553 5.78613Q14.0332 5.9082 13.8477 5.9082L13.0566 5.9082L12.7148 13.8672Q12.7051 14.3848 12.4023 14.6582Q12.0996 14.9316 11.6016 14.9316ZM7.26562 13.3691Q7.43164 13.3691 7.52441 13.2715Q7.61719 13.1738 7.61719 13.0273L7.42188 7.14844Q7.41211 6.79688 7.06055 6.79688Q6.68945 6.79688 6.68945 7.14844L6.89453 13.0273Q6.89453 13.3691 7.26562 13.3691ZM8.97461 13.3691Q9.35547 13.3691 9.35547 13.0273L9.35547 7.14844Q9.35547 6.79688 8.97461 6.79688Q8.61328 6.79688 8.61328 7.14844L8.61328 13.0273Q8.61328 13.3691 8.97461 13.3691ZM10.6934 13.3691Q11.0645 13.3691 11.0645 13.0273L11.2695 7.14844Q11.2695 6.79688 10.9082 6.79688Q10.5469 6.79688 10.5371 7.14844L10.3418 13.0273Q10.3418 13.1738 10.4346 13.2715Q10.5273 13.3691 10.6934 13.3691ZM7.56836 5.04883L10.4004 5.04883L10.4004 4.28711Q10.4004 4.0918 10.2734 3.97461Q10.1465 3.85742 9.94141 3.85742L8.01758 3.85742Q7.82227 3.85742 7.69531 3.97461Q7.56836 4.0918 7.56836 4.28711Z" fill="#ffffff"/>
 </g>
</svg>
