<?xml version="1.0" encoding="UTF-8"?>
<!--Generator: Apple Native CoreSVG 175-->
<!DOCTYPE svg
PUBLIC "-//W3C//DTD SVG 1.1//EN"
       "http://www.w3.org/Graphics/SVG/1.1/DTD/svg11.dtd">
<svg version="1.1" xmlns="http://www.w3.org/2000/svg" xmlns:xlink="http://www.w3.org/1999/xlink" width="22.6617" height="23.1262">
 <g>
  <rect height="23.1262" opacity="0" width="22.6617" x="0" y="0"/>
  <path d="M2.63046 21.5234L20.0243 21.5234Q21.3281 21.5234 21.9949 20.8461Q22.6617 20.1688 22.6617 18.8969L22.6617 13.5445Q22.6617 13.2597 22.627 13.0619Q22.5922 12.8641 22.5123 12.7002Q22.4324 12.5363 22.2949 12.357L18.2509 7.1579Q17.8433 6.63757 17.4865 6.33286Q17.1297 6.02814 16.6843 5.89455Q16.239 5.76096 15.5695 5.76096L14.3449 5.76096L14.3449 6.42776L15.6841 6.42776Q16.2984 6.42776 16.7316 6.66725Q17.1649 6.90674 17.5262 7.35596L21.6469 12.6422Q21.7921 12.8333 21.7535 12.9403Q21.7148 13.0473 21.5112 13.0473L14.4875 13.0473Q14.2531 13.0473 14.1386 13.1844Q14.0242 13.3215 14.0242 13.5384L14.0242 13.6055Q14.0242 14.37 13.6701 14.9926Q13.316 15.6152 12.7072 15.9814Q12.0984 16.3477 11.3309 16.3477Q10.5634 16.3477 9.95453 15.9814Q9.3457 15.6152 8.993 14.9926Q8.64029 14.37 8.64029 13.6055L8.64029 13.5384Q8.64029 13.3215 8.52448 13.1844Q8.40866 13.0473 8.17429 13.0473L1.15585 13.0473Q0.94696 13.0473 0.911026 12.9362Q0.875092 12.825 1.01059 12.6422L5.1355 7.35596Q5.48981 6.90674 5.92789 6.66725Q6.36597 6.42776 6.97769 6.42776L8.34061 6.42776L8.34061 5.76096L7.09488 5.76096Q6.42273 5.76096 5.97878 5.89455Q5.53482 6.02814 5.17303 6.33286Q4.81125 6.63757 4.4136 7.1579L0.366821 12.357Q0.222321 12.5363 0.142441 12.7002Q0.062561 12.8641 0.0312805 13.0619Q0 13.2597 0 13.5445L0 18.8969Q0 20.1855 0.668182 20.8545Q1.33636 21.5234 2.63046 21.5234Z" fill="#007aff"/>
  <path d="M11.3309 12.3816Q11.4 12.3816 11.4629 12.356Q11.5257 12.3305 11.588 12.2684L15.1981 8.67691Q15.3032 8.56918 15.3032 8.4407Q15.3032 8.29956 15.2049 8.20412Q15.1067 8.10867 14.9727 8.10867Q14.8305 8.10867 14.7168 8.22342L12.8203 10.1402L11.6641 11.3116L11.6902 9.94522L11.6902 0.351257Q11.6902 0.210114 11.5824 0.105057Q11.4746 0 11.3309 0Q11.1801 0 11.0737 0.105057Q10.9673 0.210114 10.9673 0.351257L10.9673 9.94522L10.9906 11.3187L9.82742 10.1402L7.93793 8.22342Q7.82425 8.10867 7.67227 8.10867Q7.53128 8.10867 7.44141 8.20412Q7.35153 8.29956 7.35153 8.4407Q7.35153 8.56918 7.45667 8.67691L11.0738 12.2684Q11.1359 12.3305 11.1988 12.356Q11.2617 12.3816 11.3309 12.3816Z" fill="#ffffff"/>
 </g>
</svg>
