<?xml version="1.0" encoding="UTF-8"?>
<!--Generator: Apple Native CoreSVG 175-->
<!DOCTYPE svg
PUBLIC "-//W3C//DTD SVG 1.1//EN"
       "http://www.w3.org/Graphics/SVG/1.1/DTD/svg11.dtd">
<svg version="1.1" xmlns="http://www.w3.org/2000/svg" xmlns:xlink="http://www.w3.org/1999/xlink" width="19.1602" height="19.1504">
 <g>
  <rect height="19.1504" opacity="0" width="19.1602" x="0" y="0"/>
  <path d="M9.57031 19.1406Q11.5527 19.1406 13.2861 18.3984Q15.0195 17.6562 16.3379 16.333Q17.6562 15.0098 18.4082 13.2764Q19.1602 11.543 19.1602 9.57031Q19.1602 7.59766 18.4082 5.86426Q17.6562 4.13086 16.3379 2.80762Q15.0195 1.48438 13.2861 0.742188Q11.5527 0 9.57031 0Q7.59766 0 5.86426 0.742188Q4.13086 1.48438 2.81738 2.80762Q1.50391 4.13086 0.751953 5.86426Q0 7.59766 0 9.57031Q0 11.543 0.74707 13.2764Q1.49414 15.0098 2.8125 16.333Q4.13086 17.6562 5.86914 18.3984Q7.60742 19.1406 9.57031 19.1406ZM9.57031 18.3984Q7.74414 18.3984 6.14746 17.71Q4.55078 17.0215 3.33496 15.8105Q2.11914 14.5996 1.43555 12.998Q0.751953 11.3965 0.751953 9.57031Q0.751953 7.74414 1.43555 6.14258Q2.11914 4.54102 3.33496 3.3252Q4.55078 2.10938 6.14746 1.4209Q7.74414 0.732422 9.57031 0.732422Q11.4062 0.732422 13.0029 1.4209Q14.5996 2.10938 15.8154 3.3252Q17.0312 4.54102 17.7197 6.14258Q18.4082 7.74414 18.4082 9.57031Q18.4082 11.3965 17.7246 12.998Q17.041 14.5996 15.8252 15.8105Q14.6094 17.0215 13.0078 17.71Q11.4062 18.3984 9.57031 18.3984Z" fill="#007aff"/>
  <path d="M5.13672 13.3691L14.0234 13.3691Q14.6875 13.3691 15.0293 13.0225Q15.3711 12.6758 15.3711 12.0215L15.3711 9.33594Q15.3711 9.12109 15.332 8.99414Q15.293 8.86719 15.1855 8.73047L13.1055 6.01562Q12.793 5.61523 12.5244 5.47852Q12.2559 5.3418 11.748 5.3418L7.41211 5.3418Q6.9043 5.3418 6.63086 5.47852Q6.35742 5.61523 6.05469 6.01562L3.97461 8.73047Q3.86719 8.86719 3.82812 8.99414Q3.78906 9.12109 3.78906 9.33594L3.78906 12.0215Q3.78906 12.6855 4.13086 13.0273Q4.47266 13.3691 5.13672 13.3691ZM4.61914 9.07227Q4.55078 9.07227 4.53613 9.0332Q4.52148 8.99414 4.56055 8.94531L6.5332 6.30859Q6.69922 6.09375 6.86035 5.99121Q7.02148 5.88867 7.33398 5.88867L11.8262 5.88867Q12.1484 5.88867 12.3047 5.99121Q12.4609 6.09375 12.627 6.30859L14.6191 8.94531Q14.6484 8.98438 14.6289 9.02832Q14.6094 9.07227 14.5508 9.07227L11.1816 9.07227Q11.0645 9.07227 11.0059 9.14551Q10.9473 9.21875 10.9473 9.31641L10.9473 9.375Q10.9473 9.98047 10.5566 10.3662Q10.166 10.752 9.58008 10.752Q8.99414 10.752 8.60352 10.3662Q8.21289 9.98047 8.21289 9.375L8.21289 9.31641Q8.21289 9.21875 8.1543 9.14551Q8.0957 9.07227 7.97852 9.07227Z" fill="#ffffff"/>
 </g>
</svg>
