<?xml version="1.0" encoding="UTF-8"?>
<!--Generator: Apple Native CoreSVG 175.5-->
<!DOCTYPE svg
PUBLIC "-//W3C//DTD SVG 1.1//EN"
       "http://www.w3.org/Graphics/SVG/1.1/DTD/svg11.dtd">
<svg version="1.1" xmlns="http://www.w3.org/2000/svg" xmlns:xlink="http://www.w3.org/1999/xlink" width="20.4688" height="18.6621">
 <g>
  <rect height="18.6621" opacity="0" width="20.4688" x="0" y="0"/>
  <path d="M2.66602 18.5547L17.8027 18.5547Q18.6328 18.5547 19.2285 18.2031Q19.8242 17.8516 20.1465 17.251Q20.4688 16.6504 20.4688 15.9082Q20.4688 15.5664 20.3711 15.2148Q20.2734 14.8633 20.0879 14.541L12.5098 1.33789Q12.1289 0.673828 11.5186 0.336914Q10.9082 0 10.2344 0Q9.56055 0 8.94531 0.336914Q8.33008 0.673828 7.95898 1.33789L0.380859 14.541Q0 15.1953 0 15.9082Q0 16.6504 0.322266 17.251Q0.644531 17.8516 1.24023 18.2031Q1.83594 18.5547 2.66602 18.5547ZM2.67578 17.0215Q2.16797 17.0215 1.875 16.6846Q1.58203 16.3477 1.58203 15.8984Q1.58203 15.7617 1.61621 15.5957Q1.65039 15.4297 1.72852 15.2734L9.29688 2.08008Q9.45312 1.80664 9.70703 1.68457Q9.96094 1.5625 10.2344 1.5625Q10.5078 1.5625 10.7568 1.68457Q11.0059 1.80664 11.1621 2.08008L18.7305 15.2832Q18.8867 15.5859 18.8867 15.8984Q18.8867 16.3477 18.5889 16.6846Q18.291 17.0215 17.7832 17.0215Z" fill="#007aff"/>
  <path d="M4.07227 15.5762L16.3867 15.5762Q16.6895 15.5762 16.8262 15.3418Q16.9629 15.1074 16.8164 14.834L10.6543 4.08203Q10.498 3.81836 10.2295 3.81836Q9.96094 3.81836 9.81445 4.08203L3.65234 14.834Q3.49609 15.1172 3.6377 15.3467Q3.7793 15.5762 4.07227 15.5762Z" fill="#ffffff"/>
 </g>
</svg>
