<?xml version="1.0" encoding="UTF-8"?>
<!--Generator: Apple Native CoreSVG 175.5-->
<!DOCTYPE svg
PUBLIC "-//W3C//DTD SVG 1.1//EN"
       "http://www.w3.org/Graphics/SVG/1.1/DTD/svg11.dtd">
<svg version="1.1" xmlns="http://www.w3.org/2000/svg" xmlns:xlink="http://www.w3.org/1999/xlink" width="20.4199" height="18.5645">
 <g>
  <rect height="18.5645" opacity="0" width="20.4199" x="0" y="0"/>
  <path d="M0 15.8105Q0 16.5625 0.327148 17.1729Q0.654297 17.7832 1.25977 18.1445Q1.86523 18.5059 2.69531 18.5059L17.7246 18.5059Q18.5547 18.5059 19.1602 18.1445Q19.7656 17.7832 20.0928 17.1729Q20.4199 16.5625 20.4199 15.8105Q20.4199 15.4785 20.3271 15.1367Q20.2344 14.7949 20.0586 14.4824L12.5293 1.36719Q12.1484 0.693359 11.5234 0.34668Q10.8984 0 10.2148 0Q9.53125 0 8.90137 0.34668Q8.27148 0.693359 7.89062 1.36719L0.361328 14.4922Q0 15.1172 0 15.8105ZM4.60938 10.1562L9.22852 2.10938Q9.39453 1.82617 9.6582 1.69434Q9.92188 1.5625 10.2148 1.5625Q10.498 1.5625 10.7568 1.69434Q11.0156 1.82617 11.1816 2.10938L15.7812 10.1562Z" fill="#ffffff"/>
 </g>
</svg>
