<?xml version="1.0" encoding="UTF-8"?>
<!--Generator: Apple Native CoreSVG 175-->
<!DOCTYPE svg
PUBLIC "-//W3C//DTD SVG 1.1//EN"
       "http://www.w3.org/Graphics/SVG/1.1/DTD/svg11.dtd">
<svg version="1.1" xmlns="http://www.w3.org/2000/svg" xmlns:xlink="http://www.w3.org/1999/xlink" width="17.2852" height="17.3145">
 <g>
  <rect height="17.3145" opacity="0" width="17.2852" x="0" y="0"/>
  <path d="M2.62695 17.3145L14.6484 17.3145Q15.957 17.3145 16.6211 16.6455Q17.2852 15.9766 17.2852 14.6875L17.2852 2.65625Q17.2852 1.37695 16.6211 0.703125Q15.957 0.0292969 14.6484 0.0292969L2.62695 0.0292969Q1.33789 0.0292969 0.668945 0.693359Q0 1.35742 0 2.65625L0 14.6875Q0 15.9863 0.668945 16.6504Q1.33789 17.3145 2.62695 17.3145ZM2.65625 16.5918Q1.70898 16.5918 1.2207 16.1035Q0.732422 15.6152 0.732422 14.6582L0.732422 2.69531Q0.732422 1.72852 1.2207 1.24512Q1.70898 0.761719 2.65625 0.761719L14.6289 0.761719Q15.5566 0.761719 16.0596 1.24512Q16.5625 1.72852 16.5625 2.69531L16.5625 14.6582Q16.5625 15.6152 16.0596 16.1035Q15.5566 16.5918 14.6289 16.5918Z" fill="#007aff"/>
  <path d="M8.65234 13.1152Q8.78906 13.1152 8.88672 13.0273Q8.98438 12.9395 8.98438 12.7832L8.98438 10.293L10.6934 9.54102Q10.8984 9.44336 10.8984 9.25781Q10.8984 9.13086 10.8203 9.04785Q10.7422 8.96484 10.6152 8.96484Q10.5078 8.96484 10.4004 9.02344L8.98438 9.64844L8.98438 8.53516L10.6934 7.7832Q10.8984 7.69531 10.8984 7.5Q10.8984 7.38281 10.8203 7.2998Q10.7422 7.2168 10.6055 7.2168Q10.5566 7.2168 10.4492 7.25586L8.98438 7.90039L8.98438 5.18555L11.5918 5.18555Q11.7383 5.18555 11.8311 5.09277Q11.9238 5 11.9238 4.86328Q11.9238 4.72656 11.8311 4.62891Q11.7383 4.53125 11.5918 4.53125L5.70312 4.53125Q5.54688 4.53125 5.45898 4.62891Q5.37109 4.72656 5.37109 4.86328Q5.37109 5 5.45898 5.09277Q5.54688 5.18555 5.70312 5.18555L8.31055 5.18555L8.31055 8.18359L6.5918 8.93555Q6.38672 9.02344 6.38672 9.21875Q6.38672 9.33594 6.46484 9.41895Q6.54297 9.50195 6.67969 9.50195Q6.73828 9.50195 6.78223 9.48242Q6.82617 9.46289 6.875 9.45312L8.31055 8.82812L8.31055 9.94141L6.5918 10.6836Q6.38672 10.7812 6.38672 10.9668Q6.38672 11.0938 6.46484 11.1768Q6.54297 11.2598 6.67969 11.2598Q6.73828 11.2598 6.78223 11.2402Q6.82617 11.2207 6.875 11.2012L8.31055 10.5762L8.31055 12.7832Q8.31055 12.9395 8.41309 13.0273Q8.51562 13.1152 8.65234 13.1152Z" fill="#ffffff"/>
 </g>
</svg>
