<?xml version="1.0" encoding="UTF-8"?>
<!--Generator: Apple Native CoreSVG 175-->
<!DOCTYPE svg
PUBLIC "-//W3C//DTD SVG 1.1//EN"
       "http://www.w3.org/Graphics/SVG/1.1/DTD/svg11.dtd">
<svg version="1.1" xmlns="http://www.w3.org/2000/svg" xmlns:xlink="http://www.w3.org/1999/xlink" width="19.1602" height="19.1504">
 <g>
  <rect height="19.1504" opacity="0" width="19.1602" x="0" y="0"/>
  <path d="M9.57031 19.1406Q11.5527 19.1406 13.2861 18.3984Q15.0195 17.6562 16.3379 16.333Q17.6562 15.0098 18.4082 13.2764Q19.1602 11.543 19.1602 9.57031Q19.1602 7.59766 18.4082 5.86426Q17.6562 4.13086 16.3379 2.80762Q15.0195 1.48438 13.2861 0.742188Q11.5527 0 9.57031 0Q7.59766 0 5.86426 0.742188Q4.13086 1.48438 2.81738 2.80762Q1.50391 4.13086 0.751953 5.86426Q0 7.59766 0 9.57031Q0 11.543 0.74707 13.2764Q1.49414 15.0098 2.8125 16.333Q4.13086 17.6562 5.86914 18.3984Q7.60742 19.1406 9.57031 19.1406Z" fill="#007aff"/>
  <path d="M8.50586 13.8867Q8.30078 13.8867 8.18359 13.7793Q8.06641 13.6719 8.06641 13.4961L8.06641 10.1758L7.09961 10.6152Q7.00195 10.6543 6.94336 10.6543Q6.81641 10.6543 6.7334 10.5762Q6.65039 10.498 6.65039 10.3613Q6.65039 10.1758 6.8457 10.0879L8.06641 9.54102L8.06641 8.42773L7.09961 8.85742Q7.00195 8.90625 6.94336 8.90625Q6.65039 8.90625 6.65039 8.61328Q6.65039 8.41797 6.8457 8.33984L8.06641 7.7832L8.06641 5.64453Q8.06641 5.47852 8.1543 5.38574Q8.24219 5.29297 8.39844 5.29297Q8.54492 5.29297 8.63281 5.38574Q8.7207 5.47852 8.7207 5.64453L8.7207 7.5L10.752 6.5918Q10.8496 6.54297 10.918 6.54297Q11.0352 6.54297 11.1182 6.63086Q11.2012 6.71875 11.2012 6.83594Q11.2012 7.03125 11.0059 7.11914L8.7207 8.13477L8.7207 9.25781L10.752 8.34961Q10.8496 8.30078 10.918 8.30078Q11.0352 8.30078 11.1182 8.38379Q11.2012 8.4668 11.2012 8.59375Q11.2012 8.78906 11.0059 8.87695L8.7207 9.89258L8.7207 13.2227Q9.57031 13.2227 10.2734 12.7979Q10.9766 12.373 11.4014 11.6846Q11.8262 10.9961 11.8457 10.2148Q11.8555 10.0391 11.9336 9.94629Q12.0117 9.85352 12.1777 9.85352Q12.334 9.85352 12.417 9.95605Q12.5 10.0586 12.5 10.2148Q12.5 10.9082 12.2021 11.5625Q11.9043 12.2168 11.3721 12.7441Q10.8398 13.2715 10.1074 13.5791Q9.375 13.8867 8.50586 13.8867Z" fill="#ffffff"/>
 </g>
</svg>
