<?xml version="1.0" encoding="UTF-8"?>
<!--Generator: Apple Native CoreSVG 175.5-->
<!DOCTYPE svg
PUBLIC "-//W3C//DTD SVG 1.1//EN"
       "http://www.w3.org/Graphics/SVG/1.1/DTD/svg11.dtd">
<svg version="1.1" xmlns="http://www.w3.org/2000/svg" xmlns:xlink="http://www.w3.org/1999/xlink" width="27.7441" height="22.002">
 <g>
  <rect height="22.002" opacity="0" width="27.7441" x="0" y="0"/>
  <path d="M2.50977 17.7832L15.8301 17.7832L15.8301 16.2109L2.53906 16.2109Q2.03125 16.2109 1.80176 15.9912Q1.57227 15.7715 1.57227 15.2539L1.57227 4.11133Q1.57227 3.59375 1.80176 3.37402Q2.03125 3.1543 2.53906 3.1543L21.8555 3.1543Q22.3535 3.1543 22.583 3.37402Q22.8125 3.59375 22.8125 4.11133L22.8125 6.96289L24.3848 6.96289L24.3848 4.08203Q24.3848 2.80273 23.7598 2.19238Q23.1348 1.58203 21.8848 1.58203L2.50977 1.58203Q1.25977 1.58203 0.629883 2.19238Q0 2.80273 0 4.08203L0 15.2734Q0 16.5625 0.629883 17.1729Q1.25977 17.7832 2.50977 17.7832ZM6.74805 21.0938L15.9766 21.0938Q15.918 20.8691 15.8838 20.6641Q15.8496 20.459 15.8398 20.1904Q15.8301 19.9219 15.8301 19.5117L6.74805 19.5117Q6.41602 19.5117 6.18652 19.7461Q5.95703 19.9805 5.95703 20.3027Q5.95703 20.6348 6.18652 20.8643Q6.41602 21.0938 6.74805 21.0938Z" fill="#007aff"/>
  <path d="M19.3262 22.002L25.6738 22.002Q26.6992 22.002 27.2217 21.4795Q27.7441 20.957 27.7441 19.9121L27.7441 10.4883Q27.7441 9.44336 27.2217 8.91602Q26.6992 8.38867 25.6738 8.38867L19.3262 8.38867Q18.2812 8.38867 17.7686 8.91602Q17.2559 9.44336 17.2559 10.4883L17.2559 19.9121Q17.2559 20.957 17.7686 21.4795Q18.2812 22.002 19.3262 22.002ZM22.4902 20.3125Q21.6602 20.3125 20.9863 19.9072Q20.3125 19.502 19.9121 18.8232Q19.5117 18.1445 19.5117 17.3145Q19.5117 16.4746 19.9121 15.7959Q20.3125 15.1172 20.9863 14.7168Q21.6602 14.3164 22.4902 14.3066Q23.3203 14.3066 23.999 14.707Q24.6777 15.1074 25.083 15.791Q25.4883 16.4746 25.4883 17.3145Q25.4883 18.1445 25.083 18.8232Q24.6777 19.502 23.999 19.9072Q23.3203 20.3125 22.4902 20.3125ZM22.5 13.3691Q21.7969 13.3691 21.3037 12.876Q20.8105 12.3828 20.8203 11.6699Q20.8301 10.9668 21.3135 10.4834Q21.7969 10 22.5 10Q23.2031 10 23.6914 10.4834Q24.1797 10.9668 24.1797 11.6699Q24.1797 12.3828 23.6914 12.876Q23.2031 13.3691 22.5 13.3691ZM22.4902 18.5645Q23.0176 18.5645 23.3887 18.1982Q23.7598 17.832 23.7598 17.3145Q23.7598 16.7676 23.3936 16.4014Q23.0273 16.0352 22.4902 16.0352Q21.9727 16.0352 21.6064 16.4014Q21.2402 16.7676 21.2402 17.3145Q21.2402 17.832 21.6064 18.1982Q21.9727 18.5645 22.4902 18.5645ZM22.4902 12.5098Q22.8418 12.5098 23.0811 12.2656Q23.3203 12.0215 23.3203 11.6699Q23.3203 11.3184 23.0811 11.084Q22.8418 10.8496 22.4902 10.8496Q22.1582 10.8496 21.9141 11.0938Q21.6699 11.3379 21.6699 11.6699Q21.6699 12.0215 21.9092 12.2656Q22.1484 12.5098 22.4902 12.5098Z" fill="#ffffff"/>
  <path d="M22.4902 20.3125Q21.6602 20.3125 20.9863 19.9072Q20.3125 19.502 19.9121 18.8232Q19.5117 18.1445 19.5117 17.3145Q19.5117 16.4746 19.9121 15.7959Q20.3125 15.1172 20.9863 14.7168Q21.6602 14.3164 22.4902 14.3066Q23.3203 14.3066 23.999 14.707Q24.6777 15.1074 25.083 15.791Q25.4883 16.4746 25.4883 17.3145Q25.4883 18.1445 25.083 18.8232Q24.6777 19.502 23.999 19.9072Q23.3203 20.3125 22.4902 20.3125ZM22.5 13.3691Q21.7969 13.3691 21.3037 12.876Q20.8105 12.3828 20.8203 11.6699Q20.8301 10.9668 21.3135 10.4834Q21.7969 10 22.5 10Q23.2031 10 23.6914 10.4834Q24.1797 10.9668 24.1797 11.6699Q24.1797 12.3828 23.6914 12.876Q23.2031 13.3691 22.5 13.3691ZM22.4902 18.5645Q23.0176 18.5645 23.3887 18.1982Q23.7598 17.832 23.7598 17.3145Q23.7598 16.7676 23.3936 16.4014Q23.0273 16.0352 22.4902 16.0352Q21.9727 16.0352 21.6064 16.4014Q21.2402 16.7676 21.2402 17.3145Q21.2402 17.832 21.6064 18.1982Q21.9727 18.5645 22.4902 18.5645ZM22.4902 12.5098Q22.8418 12.5098 23.0811 12.2656Q23.3203 12.0215 23.3203 11.6699Q23.3203 11.3184 23.0811 11.084Q22.8418 10.8496 22.4902 10.8496Q22.1582 10.8496 21.9141 11.0938Q21.6699 11.3379 21.6699 11.6699Q21.6699 12.0215 21.9092 12.2656Q22.1484 12.5098 22.4902 12.5098Z" fill="#007aff"/>
 </g>
</svg>
