<?xml version="1.0" encoding="UTF-8"?>
<!--Generator: Apple Native CoreSVG 175.5-->
<!DOCTYPE svg
PUBLIC "-//W3C//DTD SVG 1.1//EN"
       "http://www.w3.org/Graphics/SVG/1.1/DTD/svg11.dtd">
<svg version="1.1" xmlns="http://www.w3.org/2000/svg" xmlns:xlink="http://www.w3.org/1999/xlink" width="11.377" height="20.459">
 <g>
  <rect height="20.459" opacity="0" width="11.377" x="0" y="0"/>
  <path d="M0.576172 20.459L10.791 20.459Q11.0352 20.459 11.2061 20.293Q11.377 20.127 11.377 19.8828Q11.377 19.6289 11.2061 19.4629Q11.0352 19.2969 10.791 19.2969L0.576172 19.2969Q0.341797 19.2969 0.170898 19.4629Q0 19.6289 0 19.8828Q0 20.127 0.170898 20.293Q0.341797 20.459 0.576172 20.459Z" fill="#ffffff"/>
  <path d="M5.68359 17.4609Q7.44141 17.4609 8.7207 16.8066Q10 16.1523 10.6885 14.9854Q11.377 13.8184 11.377 12.2852L11.377 3.89648Q11.377 3.48633 11.1279 3.2373Q10.8789 2.98828 10.459 2.98828Q10.0488 2.98828 9.80957 3.2373Q9.57031 3.48633 9.57031 3.89648L9.57031 12.1387Q9.57031 13.7695 8.54492 14.7852Q7.51953 15.8008 5.68359 15.8008Q4.46289 15.8008 3.59375 15.3369Q2.72461 14.873 2.26562 14.0527Q1.80664 13.2324 1.80664 12.1387L1.80664 3.89648Q1.80664 3.48633 1.55762 3.2373Q1.30859 2.98828 0.888672 2.98828Q0.478516 2.98828 0.239258 3.2373Q0 3.48633 0 3.89648L0 12.2852Q0 13.8184 0.688477 14.9854Q1.37695 16.1523 2.65137 16.8066Q3.92578 17.4609 5.68359 17.4609Z" fill="#007aff"/>
 </g>
</svg>
