<?xml version="1.0" encoding="UTF-8"?>
<!--Generator: Apple Native CoreSVG 175-->
<!DOCTYPE svg
PUBLIC "-//W3C//DTD SVG 1.1//EN"
       "http://www.w3.org/Graphics/SVG/1.1/DTD/svg11.dtd">
<svg version="1.1" xmlns="http://www.w3.org/2000/svg" xmlns:xlink="http://www.w3.org/1999/xlink" width="17.2852" height="17.3145">
 <g>
  <rect height="17.3145" opacity="0" width="17.2852" x="0" y="0"/>
  <path d="M2.62695 17.3145L14.6484 17.3145Q15.957 17.3145 16.6211 16.6455Q17.2852 15.9766 17.2852 14.6875L17.2852 2.65625Q17.2852 1.37695 16.6211 0.703125Q15.957 0.0292969 14.6484 0.0292969L2.62695 0.0292969Q1.33789 0.0292969 0.668945 0.693359Q0 1.35742 0 2.65625L0 14.6875Q0 15.9863 0.668945 16.6504Q1.33789 17.3145 2.62695 17.3145Z" fill="#007aff"/>
  <path d="M8.64258 13.1055Q8.39844 13.1055 8.26172 12.9932Q8.125 12.8809 8.02734 12.6562L5.01953 4.78516Q4.98047 4.6582 4.98047 4.56055Q4.98047 4.4043 5.08301 4.30664Q5.18555 4.20898 5.36133 4.20898Q5.51758 4.20898 5.60547 4.28223Q5.69336 4.35547 5.76172 4.53125L8.61328 12.1875L8.67188 12.1875L11.5137 4.53125Q11.582 4.35547 11.6748 4.28223Q11.7676 4.20898 11.9141 4.20898Q12.0898 4.20898 12.1924 4.30664Q12.2949 4.4043 12.2949 4.56055Q12.2949 4.60938 12.2803 4.66309Q12.2656 4.7168 12.2559 4.78516L9.24805 12.6562Q9.16992 12.8613 9.02832 12.9834Q8.88672 13.1055 8.64258 13.1055Z" fill="#ffffff"/>
 </g>
</svg>
