<?xml version="1.0" encoding="UTF-8"?>
<!--Generator: Apple Native CoreSVG 175-->
<!DOCTYPE svg
PUBLIC "-//W3C//DTD SVG 1.1//EN"
       "http://www.w3.org/Graphics/SVG/1.1/DTD/svg11.dtd">
<svg version="1.1" xmlns="http://www.w3.org/2000/svg" xmlns:xlink="http://www.w3.org/1999/xlink" width="20.7715" height="20.3418">
 <g>
  <rect height="20.3418" opacity="0" width="20.7715" x="0" y="0"/>
  <path d="M5.0293 20.3418Q5.18555 20.3418 5.32227 20.2588Q5.45898 20.1758 5.60547 20.0391L9.16016 16.9727L17.0508 16.9727Q18.2031 16.9727 19.0381 16.5186Q19.873 16.0645 20.3223 15.2295Q20.7715 14.3945 20.7715 13.2617L20.7715 4.91211Q20.7715 3.76953 20.3223 2.93457Q19.873 2.09961 19.0381 1.64551Q18.2031 1.19141 17.0508 1.19141L3.7207 1.19141Q2.56836 1.19141 1.7334 1.64551Q0.898438 2.09961 0.449219 2.92969Q0 3.75977 0 4.91211L0 13.2617Q0 14.4043 0.449219 15.2344Q0.898438 16.0645 1.7334 16.5186Q2.56836 16.9727 3.7207 16.9727L4.55078 16.9727L4.55078 19.7852Q4.55078 20.0488 4.68262 20.1953Q4.81445 20.3418 5.0293 20.3418Z" fill="#007aff"/>
  <path d="M6.54297 12.9004Q5.79102 12.9004 5.39551 12.5049Q5 12.1094 5 11.3672L5 6.77734Q5 6.03516 5.40039 5.64453Q5.80078 5.25391 6.54297 5.25391L11.7383 5.25391Q12.4805 5.25391 12.8711 5.64453Q13.2617 6.03516 13.2617 6.77734L13.2617 11.3672Q13.2617 12.1094 12.8662 12.5049Q12.4707 12.9004 11.7285 12.9004ZM13.7793 10.4492L13.7793 7.68555L15.5176 6.2793Q15.6445 6.19141 15.7666 6.13281Q15.8887 6.07422 16.0254 6.07422Q16.2402 6.07422 16.377 6.21582Q16.5137 6.35742 16.5137 6.63086L16.5137 11.5234Q16.5137 11.7871 16.377 11.9336Q16.2402 12.0801 16.0254 12.0801Q15.8887 12.0801 15.7715 12.0215Q15.6543 11.9629 15.5176 11.8555Z" fill="#ffffff"/>
 </g>
</svg>
