<?xml version="1.0" encoding="UTF-8"?>
<!--Generator: Apple Native CoreSVG 175-->
<!DOCTYPE svg
PUBLIC "-//W3C//DTD SVG 1.1//EN"
       "http://www.w3.org/Graphics/SVG/1.1/DTD/svg11.dtd">
<svg version="1.1" xmlns="http://www.w3.org/2000/svg" xmlns:xlink="http://www.w3.org/1999/xlink" width="17.2852" height="17.3145">
 <g>
  <rect height="17.3145" opacity="0" width="17.2852" x="0" y="0"/>
  <path d="M2.62695 17.3145L14.6484 17.3145Q15.957 17.3145 16.6211 16.6455Q17.2852 15.9766 17.2852 14.6875L17.2852 2.65625Q17.2852 1.37695 16.6211 0.703125Q15.957 0.0292969 14.6484 0.0292969L2.62695 0.0292969Q1.33789 0.0292969 0.668945 0.693359Q0 1.35742 0 2.65625L0 14.6875Q0 15.9863 0.668945 16.6504Q1.33789 17.3145 2.62695 17.3145ZM2.65625 16.5918Q1.70898 16.5918 1.2207 16.1035Q0.732422 15.6152 0.732422 14.6582L0.732422 2.69531Q0.732422 1.72852 1.2207 1.24512Q1.70898 0.761719 2.65625 0.761719L14.6289 0.761719Q15.5566 0.761719 16.0596 1.24512Q16.5625 1.72852 16.5625 2.69531L16.5625 14.6582Q16.5625 15.6152 16.0596 16.1035Q15.5566 16.5918 14.6289 16.5918Z" fill="#007aff"/>
  <path d="M4.72656 12.4609L9.87305 12.4609Q10.6055 12.4609 11.001 12.0654Q11.3965 11.6699 11.3965 10.9375L11.3965 6.38672Q11.3965 5.6543 11.0107 5.25879Q10.625 4.86328 9.88281 4.86328L4.72656 4.86328Q3.98438 4.86328 3.58398 5.25879Q3.18359 5.6543 3.18359 6.38672L3.18359 10.9375Q3.18359 11.6699 3.5791 12.0654Q3.97461 12.4609 4.72656 12.4609ZM11.9141 10.0293L13.6426 11.4258Q13.7598 11.5332 13.8818 11.5918Q14.0039 11.6504 14.1309 11.6504Q14.3457 11.6504 14.4824 11.5039Q14.6191 11.3574 14.6191 11.084L14.6191 6.23047Q14.6191 5.97656 14.4824 5.83008Q14.3457 5.68359 14.1309 5.68359Q14.0039 5.68359 13.8818 5.74219Q13.7598 5.80078 13.6426 5.88867L11.9141 7.28516Z" fill="#ffffff"/>
 </g>
</svg>
