<?xml version="1.0" encoding="UTF-8"?>
<!--Generator: Apple Native CoreSVG 175.5-->
<!DOCTYPE svg
PUBLIC "-//W3C//DTD SVG 1.1//EN"
       "http://www.w3.org/Graphics/SVG/1.1/DTD/svg11.dtd">
<svg version="1.1" xmlns="http://www.w3.org/2000/svg" xmlns:xlink="http://www.w3.org/1999/xlink" width="22.959" height="14.4238">
 <g>
  <rect height="14.4238" opacity="0" width="22.959" x="0" y="0"/>
  <path d="M0.859375 14.209L8.97461 14.209Q9.33594 14.209 9.55566 13.9941Q9.77539 13.7793 9.77539 13.418Q9.77539 13.0664 9.55566 12.8516Q9.33594 12.6367 8.97461 12.6367L2.4707 12.6367L2.4707 12.5879L6.2793 8.87695Q7.44141 7.74414 8.0957 6.91895Q8.75 6.09375 9.02344 5.39551Q9.29688 4.69727 9.29688 3.94531Q9.29688 2.82227 8.68652 1.92871Q8.07617 1.03516 7.03125 0.517578Q5.98633 0 4.6582 0Q3.10547 0 1.87988 0.776367Q0.654297 1.55273 0.214844 2.8418Q0.0488281 3.31055 0.0488281 3.69141Q0.0488281 4.0625 0.253906 4.28223Q0.458984 4.50195 0.810547 4.50195Q1.15234 4.50195 1.32812 4.33594Q1.50391 4.16992 1.61133 3.79883Q1.66992 3.57422 1.75293 3.36426Q1.83594 3.1543 1.95312 2.96875Q2.34375 2.31445 3.04688 1.92871Q3.75 1.54297 4.6582 1.54297Q5.44922 1.54297 6.09375 1.87988Q6.73828 2.2168 7.11914 2.7832Q7.5 3.34961 7.5 4.04297Q7.5 4.60938 7.30469 5.1123Q7.10938 5.61523 6.59668 6.25Q6.08398 6.88477 5.11719 7.83203L0.546875 12.373Q0.234375 12.6758 0.117188 12.9004Q0 13.125 0 13.3887Q0 13.7695 0.234375 13.9893Q0.46875 14.209 0.859375 14.209ZM12.5977 14.1895L16.4648 14.1895Q18.4277 14.1895 19.8877 13.3105Q21.3477 12.4316 22.1533 10.8545Q22.959 9.27734 22.959 7.17773Q22.959 5.08789 22.1533 3.52539Q21.3477 1.96289 19.8877 1.09375Q18.4277 0.224609 16.4648 0.224609L12.5977 0.224609Q12.1973 0.224609 11.958 0.46875Q11.7188 0.712891 11.7188 1.12305L11.7188 13.2812Q11.7188 13.7012 11.958 13.9453Q12.1973 14.1895 12.5977 14.1895ZM13.4863 12.5879L13.4863 1.80664L16.3477 1.80664Q17.8027 1.80664 18.8818 2.48047Q19.9609 3.1543 20.5566 4.36523Q21.1523 5.57617 21.1523 7.1875Q21.1523 8.80859 20.5566 10.0244Q19.9609 11.2402 18.8818 11.9141Q17.8027 12.5879 16.3477 12.5879Z" fill="#ffffff"/>
 </g>
</svg>
