<?xml version="1.0" encoding="UTF-8"?>
<!--Generator: Apple Native CoreSVG 175.5-->
<!DOCTYPE svg
PUBLIC "-//W3C//DTD SVG 1.1//EN"
       "http://www.w3.org/Graphics/SVG/1.1/DTD/svg11.dtd">
<svg version="1.1" xmlns="http://www.w3.org/2000/svg" xmlns:xlink="http://www.w3.org/1999/xlink" width="19.9219" height="19.9316">
 <g>
  <rect height="19.9316" opacity="0" width="19.9219" x="0" y="0"/>
  <path d="M9.96094 19.9219Q12.002 19.9219 13.8037 19.1406Q15.6055 18.3594 16.9824 16.9824Q18.3594 15.6055 19.1406 13.8037Q19.9219 12.002 19.9219 9.96094Q19.9219 7.91992 19.1406 6.11816Q18.3594 4.31641 16.9824 2.93945Q15.6055 1.5625 13.7988 0.78125Q11.9922 0 9.95117 0Q7.91016 0 6.1084 0.78125Q4.30664 1.5625 2.93457 2.93945Q1.5625 4.31641 0.78125 6.11816Q0 7.91992 0 9.96094Q0 12.002 0.78125 13.8037Q1.5625 15.6055 2.93945 16.9824Q4.31641 18.3594 6.11816 19.1406Q7.91992 19.9219 9.96094 19.9219ZM9.96094 18.2617Q8.23242 18.2617 6.72852 17.6172Q5.22461 16.9727 4.08691 15.835Q2.94922 14.6973 2.30957 13.1934Q1.66992 11.6895 1.66992 9.96094Q1.66992 8.23242 2.30957 6.72852Q2.94922 5.22461 4.08203 4.08203Q5.21484 2.93945 6.71875 2.2998Q8.22266 1.66016 9.95117 1.66016Q11.6797 1.66016 13.1885 2.2998Q14.6973 2.93945 15.835 4.08203Q16.9727 5.22461 17.6172 6.72852Q18.2617 8.23242 18.2617 9.96094Q18.2617 11.6895 17.6221 13.1934Q16.9824 14.6973 15.8398 15.835Q14.6973 16.9727 13.1934 17.6172Q11.6895 18.2617 9.96094 18.2617Z" fill="#007aff"/>
  <path d="M7.93945 9.95117Q7.93945 8.36914 7.11914 7.22656Q6.94336 7.00195 6.67969 6.94824Q6.41602 6.89453 6.19141 7.04102Q5.9375 7.2168 5.89844 7.5Q5.85938 7.7832 6.04492 8.04688Q6.61133 8.7793 6.61133 9.95117Q6.61133 11.0938 6.04492 11.8457Q5.85938 12.1094 5.89844 12.3926Q5.9375 12.6758 6.19141 12.8516Q6.41602 13.0078 6.68457 12.9541Q6.95312 12.9004 7.11914 12.666Q7.5 12.1582 7.71973 11.4404Q7.93945 10.7227 7.93945 9.95117Z" fill="#ffffff"/>
  <path d="M10.9961 9.95117Q10.9961 8.71094 10.6445 7.56348Q10.293 6.41602 9.63867 5.52734Q9.47266 5.29297 9.20898 5.23926Q8.94531 5.18555 8.71094 5.35156Q8.48633 5.50781 8.44238 5.78125Q8.39844 6.05469 8.57422 6.30859Q9.66797 7.82227 9.66797 9.95117Q9.66797 12.0801 8.57422 13.5938Q8.39844 13.8477 8.44238 14.1211Q8.48633 14.3945 8.71094 14.541Q8.94531 14.707 9.20898 14.6582Q9.47266 14.6094 9.63867 14.375Q10.293 13.4668 10.6445 12.3193Q10.9961 11.1719 10.9961 9.95117Z" fill="#ffffff"/>
  <path d="M14.043 9.95117Q14.043 8.28125 13.5693 6.69922Q13.0957 5.11719 12.1973 3.81836Q12.0215 3.57422 11.7529 3.52051Q11.4844 3.4668 11.25 3.63281Q11.0156 3.79883 10.9814 4.07227Q10.9473 4.3457 11.123 4.58984Q11.9043 5.69336 12.3193 7.08008Q12.7344 8.4668 12.7344 9.95117Q12.7344 11.4258 12.3145 12.8174Q11.8945 14.209 11.123 15.3125Q10.9473 15.5566 10.9814 15.8252Q11.0156 16.0938 11.25 16.2695Q11.4746 16.4258 11.7432 16.3721Q12.0117 16.3184 12.1973 16.0742Q13.0957 14.7949 13.5693 13.2129Q14.043 11.6309 14.043 9.95117Z" fill="#ffffff"/>
 </g>
</svg>
