<?xml version="1.0" encoding="UTF-8"?>
<!--Generator: Apple Native CoreSVG 175.5-->
<!DOCTYPE svg
PUBLIC "-//W3C//DTD SVG 1.1//EN"
       "http://www.w3.org/Graphics/SVG/1.1/DTD/svg11.dtd">
<svg version="1.1" xmlns="http://www.w3.org/2000/svg" xmlns:xlink="http://www.w3.org/1999/xlink" width="19.9219" height="19.9316">
 <g>
  <rect height="19.9316" opacity="0" width="19.9219" x="0" y="0"/>
  <path d="M9.96094 19.9219Q12.002 19.9219 13.8037 19.1406Q15.6055 18.3594 16.9824 16.9824Q18.3594 15.6055 19.1406 13.8037Q19.9219 12.002 19.9219 9.96094Q19.9219 7.91992 19.1406 6.11816Q18.3594 4.31641 16.9824 2.93945Q15.6055 1.5625 13.7988 0.78125Q11.9922 0 9.95117 0Q7.91016 0 6.1084 0.78125Q4.30664 1.5625 2.93457 2.93945Q1.5625 4.31641 0.78125 6.11816Q0 7.91992 0 9.96094Q0 12.002 0.78125 13.8037Q1.5625 15.6055 2.93945 16.9824Q4.31641 18.3594 6.11816 19.1406Q7.91992 19.9219 9.96094 19.9219ZM9.96094 18.2617Q8.23242 18.2617 6.72852 17.6172Q5.22461 16.9727 4.08691 15.835Q2.94922 14.6973 2.30957 13.1934Q1.66992 11.6895 1.66992 9.96094Q1.66992 8.23242 2.30957 6.72852Q2.94922 5.22461 4.08203 4.08203Q5.21484 2.93945 6.71875 2.2998Q8.22266 1.66016 9.95117 1.66016Q11.6797 1.66016 13.1885 2.2998Q14.6973 2.93945 15.835 4.08203Q16.9727 5.22461 17.6172 6.72852Q18.2617 8.23242 18.2617 9.96094Q18.2617 11.6895 17.6221 13.1934Q16.9824 14.6973 15.8398 15.835Q14.6973 16.9727 13.1934 17.6172Q11.6895 18.2617 9.96094 18.2617Z" fill="#007aff"/>
  <path d="M12.002 9.95117Q12.002 10.7227 12.2168 11.4404Q12.4316 12.1582 12.8223 12.666Q12.9785 12.9004 13.2471 12.9541Q13.5156 13.0078 13.75 12.8516Q13.9941 12.6758 14.0332 12.3926Q14.0723 12.1094 13.8867 11.8457Q13.3301 11.0938 13.3301 9.95117Q13.3301 8.7793 13.8867 8.04688Q14.082 7.7832 14.043 7.5Q14.0039 7.2168 13.75 7.04102Q13.5156 6.89453 13.252 6.94824Q12.9883 7.00195 12.8223 7.22656Q12.002 8.36914 12.002 9.95117Z" fill="#ffffff"/>
  <path d="M8.94531 9.95117Q8.94531 11.1719 9.29199 12.3193Q9.63867 13.4668 10.293 14.375Q10.4688 14.6094 10.7324 14.6582Q10.9961 14.707 11.2207 14.541Q11.4453 14.3945 11.4893 14.1211Q11.5332 13.8477 11.3574 13.5938Q10.2734 12.0801 10.2734 9.95117Q10.2734 7.82227 11.3574 6.30859Q11.5332 6.05469 11.4893 5.78125Q11.4453 5.50781 11.2207 5.35156Q10.9961 5.18555 10.7324 5.23926Q10.4688 5.29297 10.293 5.52734Q9.63867 6.41602 9.29199 7.56348Q8.94531 8.71094 8.94531 9.95117Z" fill="#ffffff"/>
  <path d="M5.88867 9.95117Q5.88867 11.6309 6.36719 13.2129Q6.8457 14.7949 7.74414 16.0742Q7.91992 16.3184 8.18848 16.3721Q8.45703 16.4258 8.68164 16.2695Q8.91602 16.0938 8.95508 15.8252Q8.99414 15.5566 8.81836 15.3125Q8.04688 14.209 7.62207 12.8174Q7.19727 11.4258 7.19727 9.95117Q7.19727 8.4668 7.61719 7.08008Q8.03711 5.69336 8.81836 4.58984Q8.99414 4.3457 8.95508 4.07227Q8.91602 3.79883 8.68164 3.63281Q8.45703 3.4668 8.18848 3.52051Q7.91992 3.57422 7.74414 3.81836Q6.8457 5.11719 6.36719 6.69922Q5.88867 8.28125 5.88867 9.95117Z" fill="#ffffff"/>
 </g>
</svg>
