<?xml version="1.0" encoding="UTF-8"?>
<!--Generator: Apple Native CoreSVG 175-->
<!DOCTYPE svg
PUBLIC "-//W3C//DTD SVG 1.1//EN"
       "http://www.w3.org/Graphics/SVG/1.1/DTD/svg11.dtd">
<svg version="1.1" xmlns="http://www.w3.org/2000/svg" xmlns:xlink="http://www.w3.org/1999/xlink" width="12.7812" height="21.8182">
 <g>
  <rect height="21.8182" opacity="0" width="12.7812" x="0" y="0"/>
  <path d="M2.59916 10.907Q2.59916 9.45662 2.11522 8.15131Q1.63129 6.846 0.710576 5.81557Q0.585912 5.6729 0.457967 5.63758Q0.330022 5.60225 0.227101 5.64933Q0.124181 5.6964 0.060704 5.79116Q-0.00277254 5.88591 0.00012663 6.00135Q0.0030258 6.11678 0.0901535 6.22451Q0.962041 7.21831 1.40126 8.38645Q1.84049 9.55458 1.84049 10.907Q1.84049 12.2523 1.40126 13.4275Q0.962041 14.6026 0.104192 15.5894Q0.0198105 15.6901 0.0204208 15.8007Q0.0210312 15.9112 0.0831344 15.999Q0.145238 16.0867 0.249532 16.1303Q0.353825 16.1738 0.473378 16.1455Q0.592931 16.1171 0.710576 15.9886Q1.63129 14.9582 2.11522 13.6494Q2.59916 12.3405 2.59916 10.907ZM7.684 10.907Q7.684 8.72878 7.01741 6.70729Q6.35083 4.68581 5.08436 2.97026Q4.98349 2.84056 4.86341 2.80188Q4.74332 2.7632 4.63491 2.80051Q4.52649 2.83782 4.45676 2.92197Q4.38703 3.00612 4.38566 3.12491Q4.38428 3.2437 4.47263 3.37493Q5.67807 5.00777 6.30307 6.92633Q6.92807 8.8449 6.92807 10.907Q6.92807 12.969 6.30307 14.8792Q5.67807 16.7894 4.47263 18.432Q4.38428 18.5535 4.38566 18.6722Q4.38703 18.7909 4.45676 18.88Q4.52649 18.9691 4.63491 19.0029Q4.74332 19.0367 4.86341 19.0015Q4.98349 18.9664 5.08436 18.8269Q6.35083 17.1139 7.01741 15.0911Q7.684 13.0682 7.684 10.907ZM12.7812 10.907Q12.7812 7.99407 11.9084 5.26961Q11.0356 2.54515 9.38001 0.180804Q9.28754 0.0538513 9.17226 0.0186798Q9.05698-0.0164917 8.94719 0.0145599Q8.83741 0.0456116 8.76279 0.127093Q8.68818 0.208575 8.68192 0.327289Q8.67566 0.446002 8.76951 0.572955Q10.364 2.85033 11.1863 5.46828Q12.0085 8.08623 12.0085 10.907Q12.0085 13.7179 11.1828 16.3324Q10.357 18.9468 8.76951 21.2242Q8.68543 21.3512 8.69031 21.4664Q8.69519 21.5816 8.7663 21.6693Q8.83741 21.757 8.94582 21.7916Q9.05423 21.8262 9.16951 21.7896Q9.28479 21.7531 9.38001 21.6191Q11.0286 19.2546 11.9049 16.5302Q12.7812 13.8058 12.7812 10.907Z" fill="#ffffff"/>
 </g>
</svg>
