<?xml version="1.0" encoding="UTF-8"?>
<!--Generator: Apple Native CoreSVG 175.5-->
<!DOCTYPE svg
PUBLIC "-//W3C//DTD SVG 1.1//EN"
       "http://www.w3.org/Graphics/SVG/1.1/DTD/svg11.dtd">
<svg version="1.1" xmlns="http://www.w3.org/2000/svg" xmlns:xlink="http://www.w3.org/1999/xlink" width="19.4386" height="20.4004">
 <g>
  <rect height="20.4004" opacity="0" width="19.4386" x="0" y="0"/>
  <path d="M0.78125 12.4707Q1.12305 12.4707 1.34766 12.2363Q1.57227 12.002 1.57227 11.6797L1.57227 8.7207Q1.57227 8.39844 1.34766 8.15918Q1.12305 7.91992 0.78125 7.91992Q0.449219 7.91992 0.224609 8.15918Q0 8.39844 0 8.7207L0 11.6797Q0 12.002 0.224609 12.2363Q0.449219 12.4707 0.78125 12.4707ZM4.0625 16.4648Q4.4043 16.4648 4.63379 16.2354Q4.86328 16.0059 4.86328 15.6738L4.86328 8.07617L3.29102 6.50391L3.29102 15.6738Q3.29102 16.0059 3.51074 16.2354Q3.73047 16.4648 4.0625 16.4648ZM7.34375 0Q7.01172 0 6.79199 0.229492Q6.57227 0.458984 6.57227 0.791016L6.57227 3.87695L8.14453 5.44922L8.14453 0.791016Q8.14453 0.458984 7.91504 0.229492Q7.68555 0 7.34375 0ZM7.34375 20.4004Q7.68555 20.4004 7.91504 20.1709Q8.14453 19.9414 8.14453 19.6094L8.14453 11.3574L6.57227 9.79492L6.57227 19.6094Q6.57227 19.9414 6.79199 20.1709Q7.01172 20.4004 7.34375 20.4004ZM10.6445 5.11719Q10.3027 5.11719 10.0781 5.34668Q9.85352 5.57617 9.85352 5.9082L9.85352 7.16797L11.4258 8.74023L11.4258 5.9082Q11.4258 5.57617 11.2012 5.34668Q10.9766 5.11719 10.6445 5.11719ZM10.6445 16.123Q10.9766 16.123 11.2012 15.8936Q11.4258 15.6641 11.4258 15.332L11.4258 14.6387L9.85352 13.0664L9.85352 15.332Q9.85352 15.6641 10.083 15.8936Q10.3125 16.123 10.6445 16.123ZM13.9258 2.1582Q13.584 2.1582 13.3643 2.39258Q13.1445 2.62695 13.1445 2.94922L13.1445 10.4492L14.7168 12.0215L14.7168 2.94922Q14.7168 2.62695 14.4873 2.39258Q14.2578 2.1582 13.9258 2.1582ZM17.207 7.08008Q16.875 7.08008 16.6504 7.31445Q16.4258 7.54883 16.4258 7.87109L16.4258 12.5293Q16.4258 12.8516 16.6504 13.0811Q16.875 13.3105 17.207 13.3105Q17.5391 13.3105 17.7686 13.0811Q17.998 12.8516 17.998 12.5293L17.998 7.87109Q17.998 7.54883 17.7686 7.31445Q17.5391 7.08008 17.207 7.08008Z" fill="#007aff"/>
  <path d="M18.1543 19.4824Q18.3789 19.6973 18.6914 19.6973Q19.0039 19.6973 19.2188 19.4824Q19.4336 19.2578 19.4385 18.9453Q19.4434 18.6328 19.2188 18.418L1.70898 0.898438Q1.48438 0.683594 1.16699 0.678711Q0.849609 0.673828 0.634766 0.898438Q0.419922 1.11328 0.419922 1.43066Q0.419922 1.74805 0.634766 1.96289Z" fill="#ffffff"/>
 </g>
</svg>
