<?xml version="1.0" encoding="UTF-8"?>
<!--Generator: Apple Native CoreSVG 175.5-->
<!DOCTYPE svg
PUBLIC "-//W3C//DTD SVG 1.1//EN"
       "http://www.w3.org/Graphics/SVG/1.1/DTD/svg11.dtd">
<svg version="1.1" xmlns="http://www.w3.org/2000/svg" xmlns:xlink="http://www.w3.org/1999/xlink" width="27.8809" height="18.6426">
 <g>
  <rect height="18.6426" opacity="0" width="27.8809" x="0" y="0"/>
  <path d="M2.71484 18.6133L25.166 18.6133Q26.416 18.6133 27.1484 17.8906Q27.8809 17.168 27.8809 15.9375L27.8809 12.8223Q27.8809 11.582 27.1484 10.8643Q26.416 10.1465 25.166 10.1465L2.71484 10.1465Q1.46484 10.1465 0.732422 10.8643Q0 11.582 0 12.8223L0 15.9375Q0 17.168 0.732422 17.8906Q1.46484 18.6133 2.71484 18.6133ZM3.70117 14.668Q3.38867 14.668 3.18848 14.4678Q2.98828 14.2676 2.98828 13.9648Q2.98828 13.6523 3.18848 13.4473Q3.38867 13.2422 3.70117 13.2422L7.11914 13.2422Q7.43164 13.2422 7.63184 13.4473Q7.83203 13.6523 7.83203 13.9648Q7.83203 14.2676 7.63184 14.4678Q7.43164 14.668 7.11914 14.668ZM12.2168 15.6836Q11.6699 15.6836 11.2842 15.2979Q10.8984 14.9121 10.8984 14.3652Q10.8984 13.8379 11.2842 13.4521Q11.6699 13.0664 12.2168 13.0664Q12.7539 13.0664 13.1396 13.4521Q13.5254 13.8379 13.5254 14.3652Q13.5254 14.9121 13.1396 15.2979Q12.7539 15.6836 12.2168 15.6836ZM16.0254 15.6836Q15.4785 15.6836 15.0928 15.2979Q14.707 14.9121 14.707 14.3652Q14.707 13.8379 15.0928 13.4521Q15.4785 13.0664 16.0254 13.0664Q16.5625 13.0664 16.9482 13.4521Q17.334 13.8379 17.334 14.3652Q17.334 14.9121 16.9482 15.2979Q16.5625 15.6836 16.0254 15.6836ZM19.834 15.6836Q19.2969 15.6836 18.9062 15.2979Q18.5156 14.9121 18.5156 14.3652Q18.5156 13.8379 18.9062 13.4521Q19.2969 13.0664 19.834 13.0664Q20.3711 13.0664 20.7568 13.4521Q21.1426 13.8379 21.1426 14.3652Q21.1426 14.9121 20.7568 15.2979Q20.3711 15.6836 19.834 15.6836ZM23.6426 15.6836Q23.1055 15.6836 22.7148 15.2979Q22.3242 14.9121 22.3242 14.375Q22.3242 13.8379 22.7148 13.4521Q23.1055 13.0664 23.6426 13.0664Q24.1797 13.0664 24.5703 13.4521Q24.9609 13.8379 24.9609 14.375Q24.9609 14.9121 24.5703 15.2979Q24.1797 15.6836 23.6426 15.6836Z" fill="#ffffff"/>
  <path d="M13.9355 6.11328Q13.1738 6.11328 12.4512 6.32812Q11.7285 6.54297 11.2207 6.93359Q10.9961 7.09961 10.9375 7.36816Q10.8789 7.63672 11.0352 7.86133Q11.2207 8.10547 11.499 8.14453Q11.7773 8.18359 12.041 8.00781Q12.793 7.44141 13.9355 7.44141Q15.1172 7.44141 15.8398 8.00781Q16.1035 8.19336 16.3867 8.1543Q16.6699 8.11523 16.8555 7.86133Q17.002 7.63672 16.9482 7.36816Q16.8945 7.09961 16.6699 6.93359Q15.5273 6.11328 13.9355 6.11328Z" fill="#007aff"/>
  <path d="M13.9355 3.05664Q12.7148 3.05664 11.5723 3.40332Q10.4297 3.75 9.51172 4.4043Q9.27734 4.58008 9.22852 4.84375Q9.17969 5.10742 9.3457 5.3418Q9.50195 5.56641 9.77539 5.60547Q10.0488 5.64453 10.3027 5.46875Q11.8066 4.38477 13.9355 4.38477Q16.0645 4.38477 17.5781 5.46875Q17.832 5.64453 18.1055 5.60547Q18.3789 5.56641 18.5352 5.3418Q18.7012 5.10742 18.6523 4.84375Q18.6035 4.58008 18.3594 4.4043Q17.4707 3.75 16.3281 3.40332Q15.1855 3.05664 13.9355 3.05664Z" fill="#007aff"/>
  <path d="M13.9355 0Q12.2559 0 10.6787 0.478516Q9.10156 0.957031 7.8125 1.85547Q7.57812 2.04102 7.51953 2.30957Q7.46094 2.57812 7.61719 2.80273Q7.79297 3.03711 8.06152 3.07129Q8.33008 3.10547 8.57422 2.92969Q9.67773 2.1582 11.0742 1.7334Q12.4707 1.30859 13.9355 1.30859Q15.4297 1.30859 16.8164 1.72852Q18.2031 2.14844 19.3066 2.92969Q19.5508 3.10547 19.8193 3.07129Q20.0879 3.03711 20.2539 2.80273Q20.4199 2.56836 20.3662 2.2998Q20.3125 2.03125 20.0684 1.85547Q18.7695 0.957031 17.1924 0.478516Q15.6152 0 13.9355 0Z" fill="#007aff"/>
 </g>
</svg>
