<?xml version="1.0" encoding="UTF-8"?>
<!--Generator: Apple Native CoreSVG 175.5-->
<!DOCTYPE svg
PUBLIC "-//W3C//DTD SVG 1.1//EN"
       "http://www.w3.org/Graphics/SVG/1.1/DTD/svg11.dtd">
<svg version="1.1" xmlns="http://www.w3.org/2000/svg" xmlns:xlink="http://www.w3.org/1999/xlink" width="22.4809" height="18.4277">
 <g>
  <rect height="18.4277" opacity="0" width="22.4809" x="0" y="0"/>
  <path d="M8.81371 1.29883Q7.0266 1.5918 5.39574 2.25586Q3.76488 2.91992 2.40746 3.87695Q1.05004 4.83398 0.093006 6.01562Q-0.0046503 6.13281 0.000232515 6.28418Q0.00511533 6.43555 0.122303 6.57227L1.46996 7.93945Q1.61644 8.08594 1.80199 8.08105Q1.98754 8.07617 2.12426 7.92969Q3.51097 6.45508 5.21996 5.53223Q6.92894 4.60938 8.85277 4.26758ZM13.6477 1.30859L13.6184 4.27734Q15.5422 4.59961 17.2463 5.53223Q18.9504 6.46484 20.3664 7.93945Q20.5032 8.07617 20.6789 8.07129Q20.8547 8.06641 21.0012 7.91992L22.3489 6.57227Q22.4758 6.43555 22.4807 6.28418Q22.4856 6.13281 22.3782 6.01562Q21.4114 4.84375 20.0637 3.88184Q18.7161 2.91992 17.0852 2.25098Q15.4543 1.58203 13.6477 1.30859ZM13.6086 7.08984L13.5793 10.2051Q14.3899 10.498 15.0881 10.9668Q15.7864 11.4355 16.3235 12.0117Q16.4602 12.1582 16.6311 12.1533Q16.802 12.1484 16.9582 12.002L18.4621 10.5078Q18.5793 10.3809 18.5891 10.2295Q18.5989 10.0781 18.4914 9.96094Q17.6809 8.96484 16.4114 8.19824Q15.1418 7.43164 13.6086 7.08984ZM8.88207 7.08984Q7.34887 7.44141 6.08422 8.19336Q4.81957 8.94531 3.98949 9.96094Q3.88207 10.0781 3.88695 10.2295Q3.89183 10.3809 4.01879 10.5078L5.53246 12.0215Q5.68871 12.168 5.87426 12.1533Q6.0598 12.1387 6.20629 11.9727Q6.73363 11.3965 7.42699 10.9375Q8.12035 10.4785 8.91137 10.1855Z" fill="#007aff"/>
  <path d="M11.2356 17.334Q11.6457 17.334 11.9875 17.1289Q12.3293 16.9238 12.5246 16.5869Q12.72 16.25 12.72 15.8398Q12.72 15.4297 12.5246 15.0928Q12.3293 14.7559 11.9875 14.5557Q11.6457 14.3555 11.2356 14.3555Q10.8254 14.3555 10.4885 14.5508Q10.1516 14.7461 9.9514 15.0879Q9.75121 15.4297 9.75121 15.8398Q9.75121 16.25 9.9514 16.5869Q10.1516 16.9238 10.4885 17.1289Q10.8254 17.334 11.2356 17.334ZM11.2453 12.627Q11.6262 12.627 11.8703 12.3926Q12.1145 12.1582 12.1243 11.748Q12.134 10.6738 12.1438 9.58984Q12.1536 8.50586 12.1633 7.42676Q12.1731 6.34766 12.178 5.26367Q12.1828 4.17969 12.1926 3.10059Q12.2024 2.02148 12.2121 0.9375Q12.2121 0.517578 11.9192 0.258789Q11.6262 0 11.2356 0Q10.845 0 10.552 0.258789Q10.259 0.517578 10.259 0.9375Q10.2688 2.02148 10.2786 3.10059Q10.2883 4.17969 10.2981 5.26367Q10.3078 6.34766 10.3225 7.42676Q10.3371 8.50586 10.3469 9.58984Q10.3567 10.6738 10.3664 11.748Q10.3762 12.1582 10.6155 12.3926Q10.8547 12.627 11.2453 12.627Z" fill="#ffffff"/>
 </g>
</svg>
