<?xml version="1.0" encoding="UTF-8"?>
<!--Generator: Apple Native CoreSVG 175.5-->
<!DOCTYPE svg
PUBLIC "-//W3C//DTD SVG 1.1//EN"
       "http://www.w3.org/Graphics/SVG/1.1/DTD/svg11.dtd">
<svg version="1.1" xmlns="http://www.w3.org/2000/svg" xmlns:xlink="http://www.w3.org/1999/xlink" width="25.2344" height="16.2598">
 <g>
  <rect height="16.2598" opacity="0" width="25.2344" x="0" y="0"/>
  <path d="M2.89062 7.31445L2.89062 1.8457Q2.89062 1.57227 3.13477 1.57227L11.9629 1.57227L11.9629 7.31445ZM13.2422 7.31445L13.2422 1.57227L22.0801 1.57227Q22.3242 1.57227 22.3242 1.8457L22.3242 7.31445Z" fill="#007aff"/>
  <path d="M0 15.4297Q0 15.7617 0.239258 16.001Q0.478516 16.2402 0.810547 16.2402L24.4238 16.2402Q24.7559 16.2402 24.9951 16.001Q25.2344 15.7617 25.2344 15.4297Q25.2344 15.0977 24.9951 14.8584Q24.7559 14.6191 24.4238 14.6191L23.8965 14.6191L23.8965 1.45508Q23.8965 0.810547 23.4863 0.405273Q23.0762 0 22.3926 0L2.8125 0Q2.13867 0 1.72363 0.405273Q1.30859 0.810547 1.30859 1.45508L1.30859 14.6191L0.810547 14.6191Q0.478516 14.6191 0.239258 14.8584Q0 15.0977 0 15.4297ZM2.89062 7.31445L2.89062 1.8457Q2.89062 1.57227 3.13477 1.57227L11.9629 1.57227L11.9629 7.31445ZM13.2422 7.31445L13.2422 1.57227L22.0801 1.57227Q22.3242 1.57227 22.3242 1.8457L22.3242 7.31445ZM2.89062 14.6191L2.89062 8.93555L22.3242 8.93555L22.3242 14.6191Z" fill="#ffffff"/>
 </g>
</svg>
