<?xml version="1.0" encoding="UTF-8"?>
<!--Generator: Apple Native CoreSVG 175.5-->
<!DOCTYPE svg
PUBLIC "-//W3C//DTD SVG 1.1//EN"
       "http://www.w3.org/Graphics/SVG/1.1/DTD/svg11.dtd">
<svg version="1.1" xmlns="http://www.w3.org/2000/svg" xmlns:xlink="http://www.w3.org/1999/xlink" width="14.2773" height="23.2715">
 <g>
  <rect height="23.2715" opacity="0" width="14.2773" x="0" y="0"/>
  <path d="M7.12891 14.3555Q9.27734 14.3555 10.8838 13.5547Q12.4902 12.7539 13.3838 11.3135Q14.2773 9.87305 14.2773 7.93945Q14.2773 6.93359 14.0137 5.77637Q13.75 4.61914 13.2812 3.48145Q12.8125 2.34375 12.1973 1.39648Q11.7676 0.722656 10.4346 0.361328Q9.10156 0 7.13867 0Q5.16602 0 3.83301 0.361328Q2.5 0.722656 2.06055 1.39648Q1.44531 2.34375 0.981445 3.48145Q0.517578 4.61914 0.258789 5.77637Q0 6.93359 0 7.93945Q0 9.87305 0.888672 11.3135Q1.77734 12.7539 3.38379 13.5547Q4.99023 14.3555 7.12891 14.3555ZM7.12891 12.8809Q5.39062 12.8809 4.12109 12.2803Q2.85156 11.6797 2.16309 10.5713Q1.47461 9.46289 1.47461 7.93945Q1.47461 7.20703 1.63574 6.36719Q1.79688 5.52734 2.09961 4.66797Q2.40234 3.80859 2.82227 3.01758Q3.4668 3.35938 4.58008 3.5498Q5.69336 3.74023 7.13867 3.74023Q8.56445 3.74023 9.68262 3.5498Q10.8008 3.35938 11.4355 3.01758Q11.8555 3.80859 12.1631 4.66797Q12.4707 5.52734 12.6367 6.36719Q12.8027 7.20703 12.8027 7.93945Q12.8027 9.46289 12.1094 10.5713Q11.416 11.6797 10.1465 12.2803Q8.87695 12.8809 7.12891 12.8809ZM7.13867 2.36328Q6.15234 2.36328 5.30762 2.28516Q4.46289 2.20703 3.94043 2.09473Q3.41797 1.98242 3.41797 1.86523Q3.41797 1.76758 3.94531 1.65527Q4.47266 1.54297 5.32227 1.46484Q6.17188 1.38672 7.13867 1.38672Q8.0957 1.38672 8.94531 1.46484Q9.79492 1.54297 10.3271 1.65527Q10.8594 1.76758 10.8594 1.86523Q10.8594 1.98242 10.332 2.09473Q9.80469 2.20703 8.95508 2.28516Q8.10547 2.36328 7.13867 2.36328ZM7.12891 20.8984Q7.43164 20.8984 7.65137 20.6787Q7.87109 20.459 7.87109 20.166L7.87109 13.584L6.40625 13.584L6.40625 20.166Q6.40625 20.459 6.62109 20.6787Q6.83594 20.8984 7.12891 20.8984ZM7.12891 23.2617Q9.78516 23.252 11.2939 22.627Q12.8027 22.002 12.8027 20.8789Q12.8027 19.7559 11.2939 19.1309Q9.78516 18.5059 7.12891 18.5059Q4.48242 18.5059 2.97852 19.1309Q1.47461 19.7559 1.47461 20.8789Q1.47461 22.0117 2.97852 22.6318Q4.48242 23.252 7.12891 23.2617ZM7.12891 21.8262Q5.88867 21.8262 4.9707 21.7041Q4.05273 21.582 3.5498 21.3672Q3.04688 21.1523 3.04688 20.8789Q3.04688 20.6152 3.5498 20.4004Q4.05273 20.1855 4.9707 20.0586Q5.88867 19.9316 7.12891 19.9316Q8.37891 19.9316 9.29688 20.0586Q10.2148 20.1855 10.7227 20.4004Q11.2305 20.6152 11.2305 20.8789Q11.2305 21.1523 10.7227 21.3672Q10.2148 21.582 9.29688 21.7041Q8.37891 21.8262 7.12891 21.8262Z" fill="#ffffff"/>
 </g>
</svg>
