<?xml version="1.0" encoding="UTF-8"?>
<!--Generator: Apple Native CoreSVG 175-->
<!DOCTYPE svg
PUBLIC "-//W3C//DTD SVG 1.1//EN"
       "http://www.w3.org/Graphics/SVG/1.1/DTD/svg11.dtd">
<svg version="1.1" xmlns="http://www.w3.org/2000/svg" xmlns:xlink="http://www.w3.org/1999/xlink" width="17.2852" height="17.3145">
 <g>
  <rect height="17.3145" opacity="0" width="17.2852" x="0" y="0"/>
  <path d="M2.62695 17.3145L14.6484 17.3145Q15.957 17.3145 16.6211 16.6455Q17.2852 15.9766 17.2852 14.6875L17.2852 2.65625Q17.2852 1.37695 16.6211 0.703125Q15.957 0.0292969 14.6484 0.0292969L2.62695 0.0292969Q1.33789 0.0292969 0.668945 0.693359Q0 1.35742 0 2.65625L0 14.6875Q0 15.9863 0.668945 16.6504Q1.33789 17.3145 2.62695 17.3145Z" fill="#007aff"/>
  <path d="M5.0293 8.59375Q5.0293 8.4668 5.1123 8.37891Q5.19531 8.29102 5.3418 8.29102L5.76172 8.29102L5.25391 4.9707Q5.24414 4.91211 5.23438 4.85352Q5.22461 4.79492 5.22461 4.75586Q5.22461 4.61914 5.31738 4.53125Q5.41016 4.44336 5.55664 4.44336Q5.68359 4.44336 5.78125 4.52637Q5.87891 4.60938 5.89844 4.75586L6.39648 8.29102L7.51953 8.29102L8.30078 4.76562Q8.33008 4.61914 8.42773 4.54102Q8.52539 4.46289 8.65234 4.46289Q8.78906 4.46289 8.8916 4.54102Q8.99414 4.61914 9.01367 4.75586L9.79492 8.29102L10.9082 8.29102L11.4062 4.76562Q11.4355 4.59961 11.5332 4.52637Q11.6309 4.45312 11.7578 4.45312Q11.8945 4.45312 11.9873 4.53613Q12.0801 4.61914 12.0801 4.76562Q12.0801 4.78516 12.0752 4.81445Q12.0703 4.84375 12.0605 4.91211L11.5625 8.29102L11.9629 8.29102Q12.1094 8.29102 12.1924 8.37891Q12.2754 8.4668 12.2754 8.58398Q12.2754 8.71094 12.1924 8.80371Q12.1094 8.89648 11.9629 8.89648L11.4648 8.89648L10.8691 12.832Q10.8398 12.9688 10.7373 13.0518Q10.6348 13.1348 10.5176 13.1348Q10.3711 13.1348 10.2783 13.0566Q10.1855 12.9785 10.1562 12.8418L9.28711 8.89648L7.99805 8.89648L7.13867 12.8516Q7.11914 12.9883 7.02637 13.0615Q6.93359 13.1348 6.79688 13.1348Q6.65039 13.1348 6.5625 13.0518Q6.47461 12.9688 6.44531 12.8125L5.84961 8.89648L5.3418 8.89648Q5.19531 8.89648 5.1123 8.80371Q5.0293 8.71094 5.0293 8.59375ZM6.47461 8.88672L6.83594 11.4844L7.40234 8.88672ZM8.14453 8.29102L9.16992 8.29102L8.65234 5.92773ZM9.91211 8.88672L10.4883 11.4844L10.8301 8.88672Z" fill="#ffffff"/>
 </g>
</svg>
