<?xml version="1.0" encoding="UTF-8"?>
<!--Generator: Apple Native CoreSVG 175-->
<!DOCTYPE svg
PUBLIC "-//W3C//DTD SVG 1.1//EN"
       "http://www.w3.org/Graphics/SVG/1.1/DTD/svg11.dtd">
<svg version="1.1" xmlns="http://www.w3.org/2000/svg" xmlns:xlink="http://www.w3.org/1999/xlink" width="18.9062" height="18.4668">
 <g>
  <rect height="18.4668" opacity="0" width="18.9062" x="0" y="0"/>
  <path d="M6.91406 18.4668L11.9824 18.4668Q12.8027 18.4668 13.2959 18.2959Q13.7891 18.125 14.1309 17.8174Q14.4727 17.5098 14.8438 17.1191L18.2031 13.5547Q18.4766 13.252 18.6328 12.9932Q18.7891 12.7344 18.8477 12.4219Q18.9062 12.1094 18.9062 11.6406L18.9062 6.83594Q18.9062 6.36719 18.8477 6.05469Q18.7891 5.74219 18.6328 5.47852Q18.4766 5.21484 18.2031 4.92188L14.8438 1.34766Q14.4727 0.957031 14.1309 0.654297Q13.7891 0.351562 13.2959 0.175781Q12.8027 0 11.9824 0L6.91406 0Q6.09375 0 5.61035 0.175781Q5.12695 0.351562 4.78027 0.654297Q4.43359 0.957031 4.0625 1.34766L0.703125 4.92188Q0.429688 5.21484 0.273438 5.47852Q0.117188 5.74219 0.0585938 6.05469Q0 6.36719 0 6.83594L0 11.6406Q0 12.1094 0.0585938 12.4219Q0.117188 12.7344 0.273438 12.9932Q0.429688 13.252 0.703125 13.5547L4.0625 17.1191Q4.43359 17.5098 4.78027 17.8174Q5.12695 18.125 5.61035 18.2959Q6.09375 18.4668 6.91406 18.4668Z" fill="#007aff"/>
  <path d="M6.15234 12.9297Q5.99609 12.9297 5.87891 12.8223Q5.76172 12.7148 5.76172 12.5586Q5.76172 12.3828 5.88867 12.2559L8.89648 9.24805L5.88867 6.24023Q5.76172 6.11328 5.76172 5.9375Q5.76172 5.78125 5.87891 5.67383Q5.99609 5.56641 6.15234 5.56641Q6.31836 5.56641 6.46484 5.70312L9.46289 8.69141L12.4609 5.70312Q12.5977 5.56641 12.7637 5.56641Q12.9199 5.56641 13.0371 5.67383Q13.1543 5.78125 13.1543 5.9375Q13.1543 6.10352 13.0273 6.24023L10.0098 9.24805L13.0273 12.2559Q13.1543 12.3828 13.1543 12.5586Q13.1543 12.7148 13.0371 12.8223Q12.9199 12.9297 12.7539 12.9297Q12.5879 12.9297 12.4414 12.793L9.46289 9.80469L6.46484 12.793Q6.32812 12.9297 6.15234 12.9297Z" fill="#ffffff"/>
 </g>
</svg>
