<?xml version="1.0" encoding="UTF-8"?>
<!--Generator: Apple Native CoreSVG 175.5-->
<!DOCTYPE svg
PUBLIC "-//W3C//DTD SVG 1.1//EN"
       "http://www.w3.org/Graphics/SVG/1.1/DTD/svg11.dtd">
<svg version="1.1" xmlns="http://www.w3.org/2000/svg" xmlns:xlink="http://www.w3.org/1999/xlink" width="20.0684" height="19.3262">
 <g>
  <rect height="19.3262" opacity="0" width="20.0684" x="0" y="0"/>
  <path d="M7.07031 19.3164L12.998 19.3164Q13.6133 19.3164 14.0479 19.1895Q14.4824 19.0625 14.8145 18.8135Q15.1465 18.5645 15.4688 18.2227L19.2578 14.043Q19.5801 13.6914 19.7559 13.3838Q19.9316 13.0762 20 12.7295Q20.0684 12.3828 20.0684 11.8945L20.0684 7.43164Q20.0684 6.94336 20 6.5918Q19.9316 6.24023 19.7559 5.9375Q19.5801 5.63477 19.2578 5.2832L15.4688 1.10352Q15.1465 0.751953 14.8145 0.507812Q14.4824 0.263672 14.0479 0.131836Q13.6133 0 12.998 0L7.07031 0Q6.44531 0 6.01562 0.131836Q5.58594 0.263672 5.25391 0.507812Q4.92188 0.751953 4.59961 1.10352L0.810547 5.2832Q0.488281 5.63477 0.3125 5.9375Q0.136719 6.24023 0.0683594 6.5918Q0 6.94336 0 7.43164L0 11.8945Q0 12.3828 0.0683594 12.7295Q0.136719 13.0762 0.3125 13.3838Q0.488281 13.6914 0.810547 14.043L4.59961 18.2227Q4.92188 18.5645 5.25391 18.8135Q5.58594 19.0625 6.01562 19.1895Q6.44531 19.3164 7.07031 19.3164ZM7.59766 17.7539Q7.10938 17.7539 6.81152 17.6758Q6.51367 17.5977 6.28906 17.4219Q6.06445 17.2461 5.80078 16.9531L2.27539 13.0957Q1.99219 12.7734 1.89941 12.5098Q1.80664 12.2461 1.80664 11.709L1.80664 7.61719Q1.80664 7.08008 1.89941 6.81641Q1.99219 6.55273 2.27539 6.23047L5.80078 2.37305Q6.06445 2.08008 6.28906 1.9043Q6.51367 1.72852 6.81152 1.65039Q7.10938 1.57227 7.59766 1.57227L12.4707 1.57227Q12.959 1.57227 13.252 1.65039Q13.5449 1.72852 13.7695 1.9043Q13.9941 2.08008 14.2676 2.37305L17.7832 6.23047Q18.0762 6.55273 18.1689 6.81641Q18.2617 7.08008 18.2617 7.61719L18.2617 11.709Q18.2617 12.2461 18.1689 12.5098Q18.0762 12.7734 17.7832 13.0957L14.2676 16.9531Q13.9941 17.2461 13.7695 17.4219Q13.5449 17.5977 13.252 17.6758Q12.959 17.7539 12.4707 17.7539Z" fill="#007aff"/>
  <path d="M6.70898 13.7891Q7.05078 13.7891 7.27539 13.5449L10.0391 10.7715L12.8223 13.5449Q13.0566 13.7891 13.3789 13.7891Q13.7012 13.7891 13.9307 13.5547Q14.1602 13.3203 14.1602 12.998Q14.1602 12.6758 13.9258 12.4414L11.1523 9.66797L13.9355 6.875Q14.1699 6.64062 14.1699 6.32812Q14.1699 6.00586 13.9404 5.77637Q13.7109 5.54688 13.3887 5.54688Q13.0859 5.54688 12.8516 5.79102L10.0391 8.57422L7.25586 5.80078Q7.04102 5.56641 6.70898 5.56641Q6.38672 5.56641 6.15723 5.79102Q5.92773 6.01562 5.92773 6.33789Q5.92773 6.66016 6.16211 6.88477L8.93555 9.66797L6.16211 12.4512Q5.92773 12.6758 5.92773 12.998Q5.92773 13.3203 6.15723 13.5547Q6.38672 13.7891 6.70898 13.7891Z" fill="#ffffff"/>
 </g>
</svg>
