<?xml version="1.0" encoding="UTF-8"?>
<!--Generator: Apple Native CoreSVG 175-->
<!DOCTYPE svg
PUBLIC "-//W3C//DTD SVG 1.1//EN"
       "http://www.w3.org/Graphics/SVG/1.1/DTD/svg11.dtd">
<svg version="1.1" xmlns="http://www.w3.org/2000/svg" xmlns:xlink="http://www.w3.org/1999/xlink" width="22.7832" height="17.3145">
 <g>
  <rect height="17.3145" opacity="0" width="22.7832" x="0" y="0"/>
  <path d="M7.59766 0.0292969Q4.87305 0.0292969 3.20312 0.878906Q1.5332 1.72852 0.766602 3.40332Q0 5.07812 0 7.56836L0 14.6875Q0 15.9863 0.668945 16.6504Q1.33789 17.3145 2.62695 17.3145L20.1465 17.3145Q21.4453 17.3145 22.1143 16.6455Q22.7832 15.9766 22.7832 14.6875L22.7832 7.56836Q22.7832 5.07812 22.0215 3.40332Q21.2598 1.72852 19.585 0.878906Q17.9102 0.0292969 15.1855 0.0292969Z" fill="#007aff"/>
  <path d="M5.25391 13.1348Q5.04883 13.1348 4.91699 13.0127Q4.78516 12.8906 4.78516 12.7051Q4.78516 12.5 4.96094 12.2559L10.166 5.13672L10.166 5.08789L5.15625 5.08789Q5.00977 5.08789 4.91699 4.99023Q4.82422 4.89258 4.82422 4.74609Q4.82422 4.59961 4.91699 4.50684Q5.00977 4.41406 5.15625 4.41406L10.6055 4.41406Q10.8105 4.41406 10.9473 4.54102Q11.084 4.66797 11.084 4.85352Q11.084 4.98047 11.0498 5.06836Q11.0156 5.15625 10.9082 5.30273L5.74219 12.4023L5.74219 12.4609L10.9668 12.4609Q11.1133 12.4609 11.2109 12.5537Q11.3086 12.6465 11.3086 12.793Q11.3086 12.9395 11.2109 13.0371Q11.1133 13.1348 10.9668 13.1348ZM13.5547 13.1348Q13.3887 13.1348 13.2812 13.0225Q13.1738 12.9102 13.1738 12.7344L13.1738 4.72656Q13.1738 4.55078 13.2764 4.44336Q13.3789 4.33594 13.5547 4.33594Q13.7402 4.33594 13.8379 4.44336Q13.9355 4.55078 13.9355 4.72656L13.9355 12.4609L18.2227 12.4609Q18.3789 12.4609 18.4717 12.5537Q18.5645 12.6465 18.5645 12.793Q18.5645 12.9492 18.4717 13.042Q18.3789 13.1348 18.2227 13.1348Z" fill="#ffffff"/>
 </g>
</svg>
