<?xml version="1.0" encoding="UTF-8"?>
<!--Generator: Apple Native CoreSVG 175.5-->
<!DOCTYPE svg
PUBLIC "-//W3C//DTD SVG 1.1//EN"
       "http://www.w3.org/Graphics/SVG/1.1/DTD/svg11.dtd">
<svg version="1.1" xmlns="http://www.w3.org/2000/svg" xmlns:xlink="http://www.w3.org/1999/xlink" width="23.6133" height="17.998">
 <g>
  <rect height="17.998" opacity="0" width="23.6133" x="0" y="0"/>
  <path d="M8.39844 0.0195312Q5.48828 0.0195312 3.63281 0.913086Q1.77734 1.80664 0.888672 3.61328Q0 5.41992 0 8.1543L0 14.9707Q0 16.4844 0.766602 17.2412Q1.5332 17.998 3.06641 17.998L20.5469 17.998Q22.0801 17.998 22.8467 17.2412Q23.6133 16.4844 23.6133 14.9707L23.6133 8.1543Q23.6133 5.41992 22.7295 3.61328Q21.8457 1.80664 19.9854 0.913086Q18.125 0.0195312 15.2246 0.0195312ZM8.39844 1.61133L15.2148 1.61133Q17.5879 1.61133 19.0967 2.30957Q20.6055 3.00781 21.3232 4.44336Q22.041 5.87891 22.041 8.06641L22.041 14.8926Q22.041 15.6543 21.6455 16.04Q21.25 16.4258 20.5273 16.4258L3.08594 16.4258Q1.57227 16.4258 1.57227 14.8926L1.57227 8.06641Q1.57227 5.87891 2.29004 4.44336Q3.00781 3.00781 4.5166 2.30957Q6.02539 1.61133 8.39844 1.61133Z" fill="#007aff"/>
  <path d="M5.67383 13.3984L11.3965 13.3984Q11.6797 13.3984 11.8652 13.2275Q12.0508 13.0566 12.0508 12.7637Q12.0508 12.4609 11.8652 12.29Q11.6797 12.1191 11.3965 12.1191L7.01172 12.1191L7.01172 12.041L11.4941 5.82031Q11.6406 5.625 11.6846 5.49805Q11.7285 5.37109 11.7285 5.19531Q11.7285 4.89258 11.5283 4.69727Q11.3281 4.50195 11.0059 4.50195L5.5957 4.50195Q5.3125 4.50195 5.12695 4.67285Q4.94141 4.84375 4.94141 5.13672Q4.94141 5.43945 5.12695 5.61035Q5.3125 5.78125 5.5957 5.78125L9.72656 5.78125L9.72656 5.85938L5.23438 12.0801Q5.07812 12.3047 5.02441 12.4414Q4.9707 12.5781 4.9707 12.7344Q4.9707 13.0273 5.16602 13.2129Q5.36133 13.3984 5.67383 13.3984ZM14.3457 13.3984L18.8477 13.3984Q19.1211 13.3984 19.3066 13.2275Q19.4922 13.0566 19.4922 12.7637Q19.4922 12.4609 19.3066 12.29Q19.1211 12.1191 18.8477 12.1191L15.1367 12.1191L15.1367 5.26367Q15.1367 4.86328 14.9316 4.62402Q14.7266 4.38477 14.3457 4.38477Q13.9648 4.38477 13.7695 4.62891Q13.5742 4.87305 13.5742 5.26367L13.5742 12.5293Q13.5742 12.9199 13.7695 13.1592Q13.9648 13.3984 14.3457 13.3984Z" fill="#ffffff"/>
 </g>
</svg>
