<?xml version="1.0" encoding="UTF-8"?>
<!--Generator: Apple Native CoreSVG 175.5-->
<!DOCTYPE svg
PUBLIC "-//W3C//DTD SVG 1.1//EN"
       "http://www.w3.org/Graphics/SVG/1.1/DTD/svg11.dtd">
<svg version="1.1" xmlns="http://www.w3.org/2000/svg" xmlns:xlink="http://www.w3.org/1999/xlink" width="23.6133" height="17.998">
 <g>
  <rect height="17.998" opacity="0" width="23.6133" x="0" y="0"/>
  <path d="M8.39844 0.0195312Q5.48828 0.0195312 3.63281 0.913086Q1.77734 1.80664 0.888672 3.61328Q0 5.41992 0 8.1543L0 14.9707Q0 16.4844 0.766602 17.2412Q1.5332 17.998 3.06641 17.998L20.5469 17.998Q22.0801 17.998 22.8467 17.2412Q23.6133 16.4844 23.6133 14.9707L23.6133 8.1543Q23.6133 5.41992 22.7295 3.61328Q21.8457 1.80664 19.9854 0.913086Q18.125 0.0195312 15.2246 0.0195312ZM8.39844 1.61133L15.2148 1.61133Q17.5879 1.61133 19.0967 2.30957Q20.6055 3.00781 21.3232 4.44336Q22.041 5.87891 22.041 8.06641L22.041 14.8926Q22.041 15.6543 21.6455 16.04Q21.25 16.4258 20.5273 16.4258L3.08594 16.4258Q1.57227 16.4258 1.57227 14.8926L1.57227 8.06641Q1.57227 5.87891 2.29004 4.44336Q3.00781 3.00781 4.5166 2.30957Q6.02539 1.61133 8.39844 1.61133Z" fill="#007aff"/>
  <path d="M4.9707 13.3984L10.6934 13.3984Q10.9766 13.3984 11.1621 13.2275Q11.3477 13.0566 11.3477 12.7637Q11.3477 12.4609 11.1621 12.29Q10.9766 12.1191 10.6934 12.1191L6.30859 12.1191L6.30859 12.041L10.791 5.82031Q10.9375 5.625 10.9814 5.49805Q11.0254 5.37109 11.0254 5.19531Q11.0254 4.89258 10.8252 4.69727Q10.625 4.50195 10.3027 4.50195L4.89258 4.50195Q4.60938 4.50195 4.42383 4.67285Q4.23828 4.84375 4.23828 5.13672Q4.23828 5.43945 4.42383 5.61035Q4.60938 5.78125 4.89258 5.78125L9.02344 5.78125L9.02344 5.85938L4.53125 12.0801Q4.375 12.3047 4.32129 12.4414Q4.26758 12.5781 4.26758 12.7344Q4.26758 13.0273 4.46289 13.2129Q4.6582 13.3984 4.9707 13.3984ZM13.5352 13.5156Q13.916 13.5156 14.1211 13.2861Q14.3262 13.0566 14.3262 12.6465L14.3262 10.2148L16.1426 10.2148L17.832 12.998Q18.0078 13.2812 18.1787 13.3984Q18.3496 13.5156 18.6133 13.5156Q18.9258 13.5156 19.126 13.3301Q19.3262 13.1445 19.3262 12.8516Q19.3262 12.5684 19.1406 12.2852L17.6758 9.99023Q18.5352 9.70703 19.0527 8.99414Q19.5703 8.28125 19.5703 7.37305Q19.5703 6.05469 18.6963 5.27832Q17.8223 4.50195 16.3281 4.50195L13.5254 4.50195Q13.1543 4.50195 12.959 4.74609Q12.7637 4.99023 12.7637 5.38086L12.7637 12.6465Q12.7637 13.0371 12.959 13.2764Q13.1543 13.5156 13.5352 13.5156ZM14.3262 9.07227L14.3262 5.69336L16.1426 5.69336Q16.9824 5.69336 17.5049 6.14258Q18.0273 6.5918 18.0273 7.41211Q18.0273 8.21289 17.5098 8.64258Q16.9922 9.07227 16.1035 9.07227Z" fill="#ffffff"/>
 </g>
</svg>
