<?xml version="1.0" encoding="UTF-8"?>
<!--Generator: Apple Native CoreSVG 175-->
<!DOCTYPE svg
PUBLIC "-//W3C//DTD SVG 1.1//EN"
       "http://www.w3.org/Graphics/SVG/1.1/DTD/svg11.dtd">
<svg version="1.1" xmlns="http://www.w3.org/2000/svg" xmlns:xlink="http://www.w3.org/1999/xlink" width="17.2852" height="17.3145">
 <g>
  <rect height="17.3145" opacity="0" width="17.2852" x="0" y="0"/>
  <path d="M2.62695 17.3145L14.6484 17.3145Q15.957 17.3145 16.6211 16.6455Q17.2852 15.9766 17.2852 14.6875L17.2852 2.65625Q17.2852 1.37695 16.6211 0.703125Q15.957 0.0292969 14.6484 0.0292969L2.62695 0.0292969Q1.33789 0.0292969 0.668945 0.693359Q0 1.35742 0 2.65625L0 14.6875Q0 15.9863 0.668945 16.6504Q1.33789 17.3145 2.62695 17.3145ZM2.65625 16.5918Q1.70898 16.5918 1.2207 16.1035Q0.732422 15.6152 0.732422 14.6582L0.732422 2.69531Q0.732422 1.72852 1.2207 1.24512Q1.70898 0.761719 2.65625 0.761719L14.6289 0.761719Q15.5566 0.761719 16.0596 1.24512Q16.5625 1.72852 16.5625 2.69531L16.5625 14.6582Q16.5625 15.6152 16.0596 16.1035Q15.5566 16.5918 14.6289 16.5918Z" fill="#007aff"/>
  <path d="M5.91797 12.6562Q6.25 12.6562 6.25 12.334L6.25 4.99023Q6.25 4.82422 6.14258 4.72656Q6.03516 4.62891 5.87891 4.62891Q5.76172 4.62891 5.66895 4.66309Q5.57617 4.69727 5.46875 4.76562L3.58398 5.99609Q3.41797 6.10352 3.41797 6.28906Q3.41797 6.41602 3.50586 6.50879Q3.59375 6.60156 3.7207 6.60156Q3.7793 6.60156 3.81836 6.59668Q3.85742 6.5918 3.91602 6.54297L5.55664 5.45898L5.5957 5.45898L5.5957 12.334Q5.5957 12.6562 5.91797 12.6562ZM12.2656 12.6758Q12.4316 12.6758 12.5098 12.5879Q12.5879 12.5 12.5879 12.3535L12.5879 10.7227L13.5645 10.7227Q13.877 10.7227 13.877 10.4297Q13.877 10.293 13.7891 10.2002Q13.7012 10.1074 13.5645 10.1074L12.5879 10.1074L12.5879 5.06836Q12.5879 4.83398 12.4463 4.70215Q12.3047 4.57031 12.0703 4.57031Q11.8555 4.57031 11.6992 4.6582Q11.543 4.74609 11.3965 4.9707Q11.0938 5.41992 10.6641 6.07422Q10.2344 6.72852 9.77051 7.44141Q9.30664 8.1543 8.89648 8.79395Q8.48633 9.43359 8.20312 9.85352Q8.1543 9.95117 8.125 10.0537Q8.0957 10.1562 8.0957 10.2539Q8.0957 10.4883 8.24219 10.6055Q8.38867 10.7227 8.61328 10.7227L11.9531 10.7227L11.9531 12.3535Q11.9531 12.5 12.041 12.5879Q12.1289 12.6758 12.2656 12.6758ZM11.9531 10.1074L8.81836 10.1074L8.81836 10.0879Q8.97461 9.80469 9.27734 9.32617Q9.58008 8.84766 9.95117 8.27637Q10.3223 7.70508 10.7031 7.13379Q11.084 6.5625 11.4062 6.0791Q11.7285 5.5957 11.9238 5.30273L11.9531 5.30273Z" fill="#ffffff"/>
 </g>
</svg>
