<?xml version="1.0" encoding="UTF-8"?>
<!--Generator: Apple Native CoreSVG 175-->
<!DOCTYPE svg
PUBLIC "-//W3C//DTD SVG 1.1//EN"
       "http://www.w3.org/Graphics/SVG/1.1/DTD/svg11.dtd">
<svg version="1.1" xmlns="http://www.w3.org/2000/svg" xmlns:xlink="http://www.w3.org/1999/xlink" width="19.1602" height="19.1504">
 <g>
  <rect height="19.1504" opacity="0" width="19.1602" x="0" y="0"/>
  <path d="M9.57031 19.1406Q11.5527 19.1406 13.2861 18.3984Q15.0195 17.6562 16.3379 16.333Q17.6562 15.0098 18.4082 13.2764Q19.1602 11.543 19.1602 9.57031Q19.1602 7.59766 18.4082 5.86426Q17.6562 4.13086 16.3379 2.80762Q15.0195 1.48438 13.2861 0.742188Q11.5527 0 9.57031 0Q7.59766 0 5.86426 0.742188Q4.13086 1.48438 2.81738 2.80762Q1.50391 4.13086 0.751953 5.86426Q0 7.59766 0 9.57031Q0 11.543 0.74707 13.2764Q1.49414 15.0098 2.8125 16.333Q4.13086 17.6562 5.86914 18.3984Q7.60742 19.1406 9.57031 19.1406ZM9.57031 18.3984Q7.74414 18.3984 6.14746 17.71Q4.55078 17.0215 3.33496 15.8105Q2.11914 14.5996 1.43555 12.998Q0.751953 11.3965 0.751953 9.57031Q0.751953 7.74414 1.43555 6.14258Q2.11914 4.54102 3.33496 3.3252Q4.55078 2.10938 6.14746 1.4209Q7.74414 0.732422 9.57031 0.732422Q11.4062 0.732422 13.0029 1.4209Q14.5996 2.10938 15.8154 3.3252Q17.0312 4.54102 17.7197 6.14258Q18.4082 7.74414 18.4082 9.57031Q18.4082 11.3965 17.7246 12.998Q17.041 14.5996 15.8252 15.8105Q14.6094 17.0215 13.0078 17.71Q11.4062 18.3984 9.57031 18.3984Z" fill="#007aff"/>
  <path d="M6.8457 13.5742Q7.17773 13.5742 7.17773 13.252L7.17773 5.9082Q7.17773 5.74219 7.07031 5.64453Q6.96289 5.54688 6.80664 5.54688Q6.68945 5.54688 6.59668 5.58105Q6.50391 5.61523 6.39648 5.68359L4.51172 6.91406Q4.3457 7.02148 4.3457 7.20703Q4.3457 7.33398 4.43359 7.42676Q4.52148 7.51953 4.64844 7.51953Q4.70703 7.51953 4.74609 7.51465Q4.78516 7.50977 4.84375 7.46094L6.48438 6.37695L6.52344 6.37695L6.52344 13.252Q6.52344 13.5742 6.8457 13.5742ZM13.1934 13.5938Q13.3594 13.5938 13.4375 13.5059Q13.5156 13.418 13.5156 13.2715L13.5156 11.6406L14.4922 11.6406Q14.8047 11.6406 14.8047 11.3477Q14.8047 11.2109 14.7168 11.1182Q14.6289 11.0254 14.4922 11.0254L13.5156 11.0254L13.5156 5.98633Q13.5156 5.75195 13.374 5.62012Q13.2324 5.48828 12.998 5.48828Q12.7832 5.48828 12.627 5.57617Q12.4707 5.66406 12.3242 5.88867Q12.0215 6.33789 11.5918 6.99219Q11.1621 7.64648 10.6982 8.35938Q10.2344 9.07227 9.82422 9.71191Q9.41406 10.3516 9.13086 10.7715Q9.08203 10.8691 9.05273 10.9717Q9.02344 11.0742 9.02344 11.1719Q9.02344 11.4062 9.16992 11.5234Q9.31641 11.6406 9.54102 11.6406L12.8809 11.6406L12.8809 13.2715Q12.8809 13.418 12.9688 13.5059Q13.0566 13.5938 13.1934 13.5938ZM12.8809 11.0254L9.74609 11.0254L9.74609 11.0059Q9.90234 10.7227 10.2051 10.2441Q10.5078 9.76562 10.8789 9.19434Q11.25 8.62305 11.6309 8.05176Q12.0117 7.48047 12.334 6.99707Q12.6562 6.51367 12.8516 6.2207L12.8809 6.2207Z" fill="#ffffff"/>
 </g>
</svg>
