<?xml version="1.0" encoding="UTF-8"?>
<!--Generator: Apple Native CoreSVG 175-->
<!DOCTYPE svg
PUBLIC "-//W3C//DTD SVG 1.1//EN"
       "http://www.w3.org/Graphics/SVG/1.1/DTD/svg11.dtd">
<svg version="1.1" xmlns="http://www.w3.org/2000/svg" xmlns:xlink="http://www.w3.org/1999/xlink" width="19.1602" height="19.1504">
 <g>
  <rect height="19.1504" opacity="0" width="19.1602" x="0" y="0"/>
  <path d="M9.57031 19.1406Q11.5527 19.1406 13.2861 18.3984Q15.0195 17.6562 16.3379 16.333Q17.6562 15.0098 18.4082 13.2764Q19.1602 11.543 19.1602 9.57031Q19.1602 7.59766 18.4082 5.86426Q17.6562 4.13086 16.3379 2.80762Q15.0195 1.48438 13.2861 0.742188Q11.5527 0 9.57031 0Q7.59766 0 5.86426 0.742188Q4.13086 1.48438 2.81738 2.80762Q1.50391 4.13086 0.751953 5.86426Q0 7.59766 0 9.57031Q0 11.543 0.74707 13.2764Q1.49414 15.0098 2.8125 16.333Q4.13086 17.6562 5.86914 18.3984Q7.60742 19.1406 9.57031 19.1406ZM9.57031 18.3984Q7.74414 18.3984 6.14746 17.71Q4.55078 17.0215 3.33496 15.8105Q2.11914 14.5996 1.43555 12.998Q0.751953 11.3965 0.751953 9.57031Q0.751953 7.74414 1.43555 6.14258Q2.11914 4.54102 3.33496 3.3252Q4.55078 2.10938 6.14746 1.4209Q7.74414 0.732422 9.57031 0.732422Q11.4062 0.732422 13.0029 1.4209Q14.5996 2.10938 15.8154 3.3252Q17.0312 4.54102 17.7197 6.14258Q18.4082 7.74414 18.4082 9.57031Q18.4082 11.3965 17.7246 12.998Q17.041 14.5996 15.8252 15.8105Q14.6094 17.0215 13.0078 17.71Q11.4062 18.3984 9.57031 18.3984Z" fill="#007aff"/>
  <path d="M7.60742 13.5742Q7.93945 13.5742 7.93945 13.252L7.93945 5.9082Q7.93945 5.74219 7.83203 5.64453Q7.72461 5.54688 7.56836 5.54688Q7.45117 5.54688 7.3584 5.58105Q7.26562 5.61523 7.1582 5.68359L5.27344 6.91406Q5.10742 7.02148 5.10742 7.20703Q5.10742 7.33398 5.19531 7.42676Q5.2832 7.51953 5.41016 7.51953Q5.46875 7.51953 5.50781 7.51465Q5.54688 7.50977 5.60547 7.46094L7.24609 6.37695L7.28516 6.37695L7.28516 13.252Q7.28516 13.5742 7.60742 13.5742ZM12.5781 13.5742Q12.9004 13.5742 12.9004 13.252L12.9004 5.9082Q12.9004 5.74219 12.7979 5.64453Q12.6953 5.54688 12.5293 5.54688Q12.4121 5.54688 12.3242 5.58105Q12.2363 5.61523 12.1191 5.68359L10.2441 6.91406Q10.0684 7.02148 10.0684 7.20703Q10.0684 7.33398 10.1611 7.42676Q10.2539 7.51953 10.3711 7.51953Q10.4297 7.51953 10.4688 7.51465Q10.5078 7.50977 10.5762 7.46094L12.2168 6.37695L12.2461 6.37695L12.2461 13.252Q12.2461 13.5742 12.5781 13.5742Z" fill="#ffffff"/>
 </g>
</svg>
