<?xml version="1.0" encoding="UTF-8"?>
<!--Generator: Apple Native CoreSVG 175-->
<!DOCTYPE svg
PUBLIC "-//W3C//DTD SVG 1.1//EN"
       "http://www.w3.org/Graphics/SVG/1.1/DTD/svg11.dtd">
<svg version="1.1" xmlns="http://www.w3.org/2000/svg" xmlns:xlink="http://www.w3.org/1999/xlink" width="19.1602" height="19.1504">
 <g>
  <rect height="19.1504" opacity="0" width="19.1602" x="0" y="0"/>
  <path d="M9.57031 19.1406Q11.5527 19.1406 13.2861 18.3984Q15.0195 17.6562 16.3379 16.333Q17.6562 15.0098 18.4082 13.2764Q19.1602 11.543 19.1602 9.57031Q19.1602 7.59766 18.4082 5.86426Q17.6562 4.13086 16.3379 2.80762Q15.0195 1.48438 13.2861 0.742188Q11.5527 0 9.57031 0Q7.59766 0 5.86426 0.742188Q4.13086 1.48438 2.81738 2.80762Q1.50391 4.13086 0.751953 5.86426Q0 7.59766 0 9.57031Q0 11.543 0.74707 13.2764Q1.49414 15.0098 2.8125 16.333Q4.13086 17.6562 5.86914 18.3984Q7.60742 19.1406 9.57031 19.1406Z" fill="#007aff"/>
  <path d="M7.58789 13.6035Q7.45117 13.6035 7.3584 13.5156Q7.26562 13.4277 7.26562 13.2715L7.26562 6.35742L7.22656 6.35742L5.57617 7.45117Q5.51758 7.49023 5.47363 7.5Q5.42969 7.50977 5.38086 7.50977Q5.25391 7.50977 5.16113 7.41699Q5.06836 7.32422 5.06836 7.19727Q5.06836 7.09961 5.10742 7.03125Q5.14648 6.96289 5.24414 6.89453L7.12891 5.66406Q7.24609 5.58594 7.33398 5.55176Q7.42188 5.51758 7.54883 5.51758Q7.70508 5.51758 7.8125 5.61523Q7.91992 5.71289 7.91992 5.88867L7.91992 13.2715Q7.91992 13.4277 7.83203 13.5156Q7.74414 13.6035 7.58789 13.6035ZM12.5879 13.6035Q12.4512 13.6035 12.3535 13.5156Q12.2559 13.4277 12.2559 13.2715L12.2559 6.35742L12.2266 6.35742L10.5859 7.45117Q10.5078 7.49023 10.4688 7.5Q10.4297 7.50977 10.3809 7.50977Q10.2441 7.50977 10.1562 7.41699Q10.0684 7.32422 10.0684 7.19727Q10.0684 7.01172 10.2344 6.89453L12.1289 5.66406Q12.2461 5.58594 12.334 5.55176Q12.4219 5.51758 12.5488 5.51758Q12.7051 5.51758 12.8174 5.61523Q12.9297 5.71289 12.9297 5.88867L12.9297 13.2715Q12.9297 13.4277 12.8418 13.5156Q12.7539 13.6035 12.5879 13.6035Z" fill="#ffffff"/>
 </g>
</svg>
