<?xml version="1.0" encoding="UTF-8"?>
<!--Generator: Apple Native CoreSVG 175-->
<!DOCTYPE svg
PUBLIC "-//W3C//DTD SVG 1.1//EN"
       "http://www.w3.org/Graphics/SVG/1.1/DTD/svg11.dtd">
<svg version="1.1" xmlns="http://www.w3.org/2000/svg" xmlns:xlink="http://www.w3.org/1999/xlink" width="19.1602" height="19.1504">
 <g>
  <rect height="19.1504" opacity="0" width="19.1602" x="0" y="0"/>
  <path d="M9.57031 19.1406Q11.5527 19.1406 13.2861 18.3984Q15.0195 17.6562 16.3379 16.333Q17.6562 15.0098 18.4082 13.2764Q19.1602 11.543 19.1602 9.57031Q19.1602 7.59766 18.4082 5.86426Q17.6562 4.13086 16.3379 2.80762Q15.0195 1.48438 13.2861 0.742188Q11.5527 0 9.57031 0Q7.59766 0 5.86426 0.742188Q4.13086 1.48438 2.81738 2.80762Q1.50391 4.13086 0.751953 5.86426Q0 7.59766 0 9.57031Q0 11.543 0.74707 13.2764Q1.49414 15.0098 2.8125 16.333Q4.13086 17.6562 5.86914 18.3984Q7.60742 19.1406 9.57031 19.1406ZM9.57031 18.3984Q7.74414 18.3984 6.14746 17.71Q4.55078 17.0215 3.33496 15.8105Q2.11914 14.5996 1.43555 12.998Q0.751953 11.3965 0.751953 9.57031Q0.751953 7.74414 1.43555 6.14258Q2.11914 4.54102 3.33496 3.3252Q4.55078 2.10938 6.14746 1.4209Q7.74414 0.732422 9.57031 0.732422Q11.4062 0.732422 13.0029 1.4209Q14.5996 2.10938 15.8154 3.3252Q17.0312 4.54102 17.7197 6.14258Q18.4082 7.74414 18.4082 9.57031Q18.4082 11.3965 17.7246 12.998Q17.041 14.5996 15.8252 15.8105Q14.6094 17.0215 13.0078 17.71Q11.4062 18.3984 9.57031 18.3984Z" fill="#007aff"/>
  <path d="M4.46289 13.5059L8.65234 13.5059Q8.79883 13.5059 8.87695 13.4131Q8.95508 13.3203 8.95508 13.1836Q8.95508 13.0469 8.87695 12.959Q8.79883 12.8711 8.65234 12.8711L5.07812 12.8711L5.07812 12.8418L7.4707 10.0488Q8.11523 9.29688 8.42285 8.74512Q8.73047 8.19336 8.73047 7.60742Q8.73047 6.64062 8.07617 6.06445Q7.42188 5.48828 6.35742 5.48828Q5.45898 5.48828 4.76562 5.99609Q4.07227 6.50391 3.92578 7.28516Q3.91602 7.36328 3.90625 7.42676Q3.89648 7.49023 3.89648 7.55859Q3.89648 7.70508 3.98438 7.80273Q4.07227 7.90039 4.21875 7.90039Q4.36523 7.90039 4.44336 7.81738Q4.52148 7.73438 4.55078 7.58789Q4.62891 6.94336 5.12695 6.5332Q5.625 6.12305 6.37695 6.12305Q7.14844 6.12305 7.60254 6.52832Q8.05664 6.93359 8.05664 7.61719Q8.05664 8.0957 7.81738 8.53027Q7.57812 8.96484 7.10938 9.51172L4.21875 12.8516Q4.11133 12.9785 4.11133 13.1641Q4.11133 13.3301 4.20898 13.418Q4.30664 13.5059 4.46289 13.5059ZM12.9688 13.6523Q14.1699 13.6523 14.9121 12.9248Q15.6543 12.1973 15.6543 10.9961Q15.6543 9.88281 14.9316 9.17969Q14.209 8.47656 13.125 8.47656Q12.3438 8.47656 11.7139 8.87207Q11.084 9.26758 10.8301 9.89258L10.8008 9.89258Q10.8008 9.87305 10.8008 9.85352Q10.8008 9.83398 10.8008 9.80469Q10.8008 8.06641 11.4209 7.09473Q12.041 6.12305 13.1055 6.12305Q13.6719 6.12305 14.1162 6.38672Q14.5605 6.65039 14.7852 7.09961Q14.8438 7.19727 14.9121 7.25586Q14.9805 7.31445 15.0879 7.31445Q15.2344 7.31445 15.3076 7.22656Q15.3809 7.13867 15.3809 7.01172Q15.3809 6.92383 15.3418 6.82617Q15.2441 6.54297 14.9561 6.23047Q14.668 5.91797 14.1992 5.70312Q13.7305 5.48828 13.125 5.48828Q11.7383 5.48828 10.9619 6.62109Q10.1855 7.75391 10.1855 9.82422Q10.1855 10.5664 10.2979 11.1963Q10.4102 11.8262 10.6445 12.2949Q10.9668 12.959 11.5381 13.3057Q12.1094 13.6523 12.9688 13.6523ZM12.9688 13.0371Q12.0801 13.0371 11.5137 12.4707Q10.9473 11.9043 10.9473 11.0156Q10.9473 10.166 11.5234 9.61914Q12.0996 9.07227 12.9785 9.07227Q13.877 9.07227 14.4385 9.60938Q15 10.1465 15 11.0352Q15 11.9531 14.4385 12.4951Q13.877 13.0371 12.9688 13.0371Z" fill="#ffffff"/>
 </g>
</svg>
