<?xml version="1.0" encoding="UTF-8"?>
<!--Generator: Apple Native CoreSVG 175-->
<!DOCTYPE svg
PUBLIC "-//W3C//DTD SVG 1.1//EN"
       "http://www.w3.org/Graphics/SVG/1.1/DTD/svg11.dtd">
<svg version="1.1" xmlns="http://www.w3.org/2000/svg" xmlns:xlink="http://www.w3.org/1999/xlink" width="17.2852" height="17.3145">
 <g>
  <rect height="17.3145" opacity="0" width="17.2852" x="0" y="0"/>
  <path d="M2.62695 17.3145L14.6484 17.3145Q15.957 17.3145 16.6211 16.6455Q17.2852 15.9766 17.2852 14.6875L17.2852 2.65625Q17.2852 1.37695 16.6211 0.703125Q15.957 0.0292969 14.6484 0.0292969L2.62695 0.0292969Q1.33789 0.0292969 0.668945 0.693359Q0 1.35742 0 2.65625L0 14.6875Q0 15.9863 0.668945 16.6504Q1.33789 17.3145 2.62695 17.3145ZM2.65625 16.5918Q1.70898 16.5918 1.2207 16.1035Q0.732422 15.6152 0.732422 14.6582L0.732422 2.69531Q0.732422 1.72852 1.2207 1.24512Q1.70898 0.761719 2.65625 0.761719L14.6289 0.761719Q15.5566 0.761719 16.0596 1.24512Q16.5625 1.72852 16.5625 2.69531L16.5625 14.6582Q16.5625 15.6152 16.0596 16.1035Q15.5566 16.5918 14.6289 16.5918Z" fill="#007aff"/>
  <path d="M3.54492 12.5879L7.73438 12.5879Q7.88086 12.5879 7.95898 12.4951Q8.03711 12.4023 8.03711 12.2656Q8.03711 12.1289 7.95898 12.041Q7.88086 11.9531 7.73438 11.9531L4.16016 11.9531L4.16016 11.9238L6.55273 9.13086Q7.19727 8.37891 7.50488 7.82715Q7.8125 7.27539 7.8125 6.68945Q7.8125 5.72266 7.1582 5.14648Q6.50391 4.57031 5.43945 4.57031Q4.54102 4.57031 3.84766 5.07812Q3.1543 5.58594 3.00781 6.36719Q2.99805 6.44531 2.98828 6.50879Q2.97852 6.57227 2.97852 6.64062Q2.97852 6.78711 3.06641 6.88477Q3.1543 6.98242 3.30078 6.98242Q3.44727 6.98242 3.52539 6.89941Q3.60352 6.81641 3.63281 6.66992Q3.71094 6.02539 4.20898 5.61523Q4.70703 5.20508 5.45898 5.20508Q6.23047 5.20508 6.68457 5.61035Q7.13867 6.01562 7.13867 6.69922Q7.13867 7.17773 6.89941 7.6123Q6.66016 8.04688 6.19141 8.59375L3.30078 11.9336Q3.19336 12.0605 3.19336 12.2461Q3.19336 12.4121 3.29102 12.5Q3.38867 12.5879 3.54492 12.5879ZM12.0508 12.7344Q13.252 12.7344 13.9941 12.0068Q14.7363 11.2793 14.7363 10.0781Q14.7363 8.96484 14.0137 8.26172Q13.291 7.55859 12.207 7.55859Q11.4258 7.55859 10.7959 7.9541Q10.166 8.34961 9.91211 8.97461L9.88281 8.97461Q9.88281 8.95508 9.88281 8.93555Q9.88281 8.91602 9.88281 8.88672Q9.88281 7.14844 10.5029 6.17676Q11.123 5.20508 12.1875 5.20508Q12.7539 5.20508 13.1982 5.46875Q13.6426 5.73242 13.8672 6.18164Q13.9258 6.2793 13.9941 6.33789Q14.0625 6.39648 14.1699 6.39648Q14.3164 6.39648 14.3896 6.30859Q14.4629 6.2207 14.4629 6.09375Q14.4629 6.00586 14.4238 5.9082Q14.3262 5.625 14.0381 5.3125Q13.75 5 13.2812 4.78516Q12.8125 4.57031 12.207 4.57031Q10.8203 4.57031 10.0439 5.70312Q9.26758 6.83594 9.26758 8.90625Q9.26758 9.64844 9.37988 10.2783Q9.49219 10.9082 9.72656 11.377Q10.0488 12.041 10.6201 12.3877Q11.1914 12.7344 12.0508 12.7344ZM12.0508 12.1191Q11.1621 12.1191 10.5957 11.5527Q10.0293 10.9863 10.0293 10.0977Q10.0293 9.24805 10.6055 8.70117Q11.1816 8.1543 12.0605 8.1543Q12.959 8.1543 13.5205 8.69141Q14.082 9.22852 14.082 10.1172Q14.082 11.0352 13.5205 11.5771Q12.959 12.1191 12.0508 12.1191Z" fill="#ffffff"/>
 </g>
</svg>
