<?xml version="1.0" encoding="UTF-8"?>
<!--Generator: Apple Native CoreSVG 175-->
<!DOCTYPE svg
PUBLIC "-//W3C//DTD SVG 1.1//EN"
       "http://www.w3.org/Graphics/SVG/1.1/DTD/svg11.dtd">
<svg version="1.1" xmlns="http://www.w3.org/2000/svg" xmlns:xlink="http://www.w3.org/1999/xlink" width="17.2852" height="17.3145">
 <g>
  <rect height="17.3145" opacity="0" width="17.2852" x="0" y="0"/>
  <path d="M2.62695 17.3145L14.6484 17.3145Q15.957 17.3145 16.6211 16.6455Q17.2852 15.9766 17.2852 14.6875L17.2852 2.65625Q17.2852 1.37695 16.6211 0.703125Q15.957 0.0292969 14.6484 0.0292969L2.62695 0.0292969Q1.33789 0.0292969 0.668945 0.693359Q0 1.35742 0 2.65625L0 14.6875Q0 15.9863 0.668945 16.6504Q1.33789 17.3145 2.62695 17.3145ZM2.65625 16.5918Q1.70898 16.5918 1.2207 16.1035Q0.732422 15.6152 0.732422 14.6582L0.732422 2.69531Q0.732422 1.72852 1.2207 1.24512Q1.70898 0.761719 2.65625 0.761719L14.6289 0.761719Q15.5566 0.761719 16.0596 1.24512Q16.5625 1.72852 16.5625 2.69531L16.5625 14.6582Q16.5625 15.6152 16.0596 16.1035Q15.5566 16.5918 14.6289 16.5918Z" fill="#007aff"/>
  <path d="M5.9082 12.6562Q6.24023 12.6562 6.24023 12.334L6.24023 4.99023Q6.24023 4.82422 6.13281 4.72656Q6.02539 4.62891 5.86914 4.62891Q5.75195 4.62891 5.65918 4.66309Q5.56641 4.69727 5.45898 4.76562L3.57422 5.99609Q3.4082 6.10352 3.4082 6.28906Q3.4082 6.41602 3.49609 6.50879Q3.58398 6.60156 3.71094 6.60156Q3.76953 6.60156 3.80859 6.59668Q3.84766 6.5918 3.90625 6.54297L5.54688 5.45898L5.58594 5.45898L5.58594 12.334Q5.58594 12.6562 5.9082 12.6562ZM9.0332 12.5879L13.2227 12.5879Q13.3594 12.5879 13.4473 12.4951Q13.5352 12.4023 13.5352 12.2656Q13.5352 12.1289 13.4473 12.041Q13.3594 11.9531 13.2227 11.9531L9.63867 11.9531L9.63867 11.9238L12.041 9.13086Q12.6855 8.37891 12.9932 7.82715Q13.3008 7.27539 13.3008 6.68945Q13.3008 5.72266 12.6465 5.14648Q11.9922 4.57031 10.9277 4.57031Q10.0195 4.57031 9.32617 5.07812Q8.63281 5.58594 8.49609 6.36719Q8.48633 6.44531 8.47656 6.50879Q8.4668 6.57227 8.4668 6.64062Q8.4668 6.78711 8.5498 6.88477Q8.63281 6.98242 8.78906 6.98242Q8.93555 6.98242 9.01367 6.89941Q9.0918 6.81641 9.12109 6.66992Q9.19922 6.02539 9.69727 5.61523Q10.1953 5.20508 10.9375 5.20508Q11.7188 5.20508 12.1729 5.61035Q12.627 6.01562 12.627 6.69922Q12.627 7.17773 12.3828 7.6123Q12.1387 8.04688 11.6797 8.59375L8.78906 11.9336Q8.67188 12.0605 8.67188 12.2461Q8.67188 12.4121 8.77441 12.5Q8.87695 12.5879 9.0332 12.5879Z" fill="#ffffff"/>
 </g>
</svg>
