<?xml version="1.0" encoding="UTF-8"?>
<!--Generator: Apple Native CoreSVG 175-->
<!DOCTYPE svg
PUBLIC "-//W3C//DTD SVG 1.1//EN"
       "http://www.w3.org/Graphics/SVG/1.1/DTD/svg11.dtd">
<svg version="1.1" xmlns="http://www.w3.org/2000/svg" xmlns:xlink="http://www.w3.org/1999/xlink" width="17.2852" height="17.3145">
 <g>
  <rect height="17.3145" opacity="0" width="17.2852" x="0" y="0"/>
  <path d="M2.62695 17.3145L14.6484 17.3145Q15.957 17.3145 16.6211 16.6455Q17.2852 15.9766 17.2852 14.6875L17.2852 2.65625Q17.2852 1.37695 16.6211 0.703125Q15.957 0.0292969 14.6484 0.0292969L2.62695 0.0292969Q1.33789 0.0292969 0.668945 0.693359Q0 1.35742 0 2.65625L0 14.6875Q0 15.9863 0.668945 16.6504Q1.33789 17.3145 2.62695 17.3145Z" fill="#007aff"/>
  <path d="M6.72852 12.7148Q6.58203 12.7148 6.48926 12.6172Q6.39648 12.5195 6.39648 12.373L6.39648 10.752L3.04688 10.752Q2.8125 10.752 2.66602 10.625Q2.51953 10.498 2.51953 10.2637Q2.51953 10.166 2.54883 10.0586Q2.57812 9.95117 2.63672 9.85352Q2.91016 9.43359 3.33008 8.78906Q3.75 8.14453 4.21387 7.42676Q4.67773 6.70898 5.10742 6.05469Q5.53711 5.40039 5.83984 4.95117Q5.98633 4.7168 6.14258 4.62891Q6.29883 4.54102 6.52344 4.54102Q6.75781 4.54102 6.9043 4.67773Q7.05078 4.81445 7.05078 5.04883L7.05078 10.1172L8.02734 10.1172Q8.16406 10.1172 8.25195 10.21Q8.33984 10.3027 8.33984 10.4395Q8.33984 10.5762 8.25684 10.6641Q8.17383 10.752 8.02734 10.752L7.05078 10.752L7.05078 12.373Q7.05078 12.5195 6.96777 12.6172Q6.88477 12.7148 6.72852 12.7148ZM6.39648 10.1172L6.39648 5.2832L6.36719 5.2832Q6.17188 5.58594 5.84961 6.06934Q5.52734 6.55273 5.14648 7.13379Q4.76562 7.71484 4.39453 8.28125Q4.02344 8.84766 3.7207 9.33105Q3.41797 9.81445 3.25195 10.0977L3.25195 10.1172ZM11.9727 12.7637Q11.0254 12.7637 10.3418 12.2803Q9.6582 11.7969 9.44336 11.1426Q9.42383 11.0742 9.40918 11.0156Q9.39453 10.957 9.39453 10.8691Q9.39453 10.7227 9.4873 10.6201Q9.58008 10.5176 9.72656 10.5176Q9.96094 10.5176 10.0586 10.8203Q10.2637 11.4258 10.7861 11.7725Q11.3086 12.1191 11.9824 12.1191Q12.8711 12.1191 13.4229 11.6504Q13.9746 11.1816 13.9746 10.4492Q13.9746 9.75586 13.4375 9.29688Q12.9004 8.83789 12.0801 8.83789L11.2891 8.83789Q11.1426 8.83789 11.0547 8.74512Q10.9668 8.65234 10.9668 8.51562Q10.9668 8.36914 11.0596 8.28125Q11.1523 8.19336 11.2891 8.19336L12.0117 8.19336Q12.7441 8.19336 13.2275 7.74414Q13.7109 7.29492 13.7109 6.64062Q13.7109 5.98633 13.2275 5.58105Q12.7441 5.17578 11.9727 5.17578Q11.2598 5.17578 10.8008 5.53711Q10.3418 5.89844 10.2246 6.48438Q10.1855 6.64062 10.1025 6.71387Q10.0195 6.78711 9.90234 6.78711Q9.72656 6.78711 9.64355 6.68457Q9.56055 6.58203 9.56055 6.42578Q9.56055 6.2793 9.59961 6.15234Q9.76562 5.41992 10.4395 4.98047Q11.1133 4.54102 11.9824 4.54102Q13.0273 4.54102 13.7109 5.10742Q14.3945 5.67383 14.3945 6.5625Q14.3945 7.24609 13.9502 7.79785Q13.5059 8.34961 12.8418 8.4668L12.8418 8.48633Q13.623 8.56445 14.1455 9.13086Q14.668 9.69727 14.668 10.459Q14.668 11.4648 13.9062 12.1143Q13.1445 12.7637 11.9727 12.7637Z" fill="#ffffff"/>
 </g>
</svg>
