<?xml version="1.0" encoding="UTF-8"?>
<!--Generator: Apple Native CoreSVG 175-->
<!DOCTYPE svg
PUBLIC "-//W3C//DTD SVG 1.1//EN"
       "http://www.w3.org/Graphics/SVG/1.1/DTD/svg11.dtd">
<svg version="1.1" xmlns="http://www.w3.org/2000/svg" xmlns:xlink="http://www.w3.org/1999/xlink" width="19.1602" height="19.1504">
 <g>
  <rect height="19.1504" opacity="0" width="19.1602" x="0" y="0"/>
  <path d="M9.57031 19.1406Q11.5527 19.1406 13.2861 18.3984Q15.0195 17.6562 16.3379 16.333Q17.6562 15.0098 18.4082 13.2764Q19.1602 11.543 19.1602 9.57031Q19.1602 7.59766 18.4082 5.86426Q17.6562 4.13086 16.3379 2.80762Q15.0195 1.48438 13.2861 0.742188Q11.5527 0 9.57031 0Q7.59766 0 5.86426 0.742188Q4.13086 1.48438 2.81738 2.80762Q1.50391 4.13086 0.751953 5.86426Q0 7.59766 0 9.57031Q0 11.543 0.74707 13.2764Q1.49414 15.0098 2.8125 16.333Q4.13086 17.6562 5.86914 18.3984Q7.60742 19.1406 9.57031 19.1406ZM9.57031 18.3984Q7.74414 18.3984 6.14746 17.71Q4.55078 17.0215 3.33496 15.8105Q2.11914 14.5996 1.43555 12.998Q0.751953 11.3965 0.751953 9.57031Q0.751953 7.74414 1.43555 6.14258Q2.11914 4.54102 3.33496 3.3252Q4.55078 2.10938 6.14746 1.4209Q7.74414 0.732422 9.57031 0.732422Q11.4062 0.732422 13.0029 1.4209Q14.5996 2.10938 15.8154 3.3252Q17.0312 4.54102 17.7197 6.14258Q18.4082 7.74414 18.4082 9.57031Q18.4082 11.3965 17.7246 12.998Q17.041 14.5996 15.8252 15.8105Q14.6094 17.0215 13.0078 17.71Q11.4062 18.3984 9.57031 18.3984Z" fill="#007aff"/>
  <path d="M7.54883 13.5938Q7.70508 13.5938 7.78809 13.5059Q7.87109 13.418 7.87109 13.2715L7.87109 11.6406L8.84766 11.6406Q9.15039 11.6406 9.15039 11.3477Q9.15039 11.2109 9.0625 11.1182Q8.97461 11.0254 8.84766 11.0254L7.87109 11.0254L7.87109 5.98633Q7.87109 5.75195 7.72461 5.62012Q7.57812 5.48828 7.35352 5.48828Q7.12891 5.48828 6.97266 5.57617Q6.81641 5.66406 6.66992 5.88867Q6.37695 6.33789 5.94727 6.99219Q5.51758 7.64648 5.05371 8.35938Q4.58984 9.07227 4.1748 9.71191Q3.75977 10.3516 3.48633 10.7715Q3.42773 10.8691 3.39844 10.9717Q3.36914 11.0742 3.36914 11.1719Q3.36914 11.4062 3.51074 11.5234Q3.65234 11.6406 3.89648 11.6406L7.22656 11.6406L7.22656 13.2715Q7.22656 13.418 7.31445 13.5059Q7.40234 13.5938 7.54883 13.5938ZM7.22656 11.0254L4.0918 11.0254L4.0918 11.0059Q4.24805 10.7227 4.55566 10.2441Q4.86328 9.76562 5.23438 9.19434Q5.60547 8.62305 5.98145 8.05176Q6.35742 7.48047 6.67969 6.99707Q7.00195 6.51367 7.1875 6.2207L7.22656 6.2207ZM12.9102 13.6523Q14.3359 13.6523 15.0879 12.5293Q15.8398 11.4062 15.8398 9.11133Q15.8398 7.29492 15.0732 6.3916Q14.3066 5.48828 13.0371 5.48828Q11.875 5.48828 11.1182 6.23047Q10.3613 6.97266 10.3613 8.13477Q10.3613 8.87695 10.6885 9.46289Q11.0156 10.0488 11.582 10.3809Q12.1484 10.7129 12.8613 10.7129Q13.7207 10.7129 14.3164 10.3271Q14.9121 9.94141 15.2051 9.24805L15.2148 9.24805Q15.2246 10.498 14.9512 11.3379Q14.6777 12.1777 14.1602 12.6074Q13.6426 13.0371 12.9102 13.0371Q12.3535 13.0371 11.9043 12.7686Q11.4551 12.5 11.2402 12.0703Q11.1035 11.7969 10.8984 11.7969Q10.7715 11.7969 10.6934 11.8848Q10.6152 11.9727 10.6152 12.1094Q10.6152 12.2852 10.7617 12.5391Q10.9766 12.9199 11.5576 13.2861Q12.1387 13.6523 12.9102 13.6523ZM13.0371 10.127Q12.1387 10.127 11.5771 9.55078Q11.0156 8.97461 11.0156 8.0957Q11.0156 7.2168 11.5918 6.65527Q12.168 6.09375 13.0566 6.09375Q13.916 6.09375 14.502 6.66992Q15.0879 7.24609 15.0879 8.11523Q15.0879 8.97461 14.502 9.55078Q13.916 10.127 13.0371 10.127Z" fill="#ffffff"/>
 </g>
</svg>
