<?xml version="1.0" encoding="UTF-8"?>
<!--Generator: Apple Native CoreSVG 175-->
<!DOCTYPE svg
PUBLIC "-//W3C//DTD SVG 1.1//EN"
       "http://www.w3.org/Graphics/SVG/1.1/DTD/svg11.dtd">
<svg version="1.1" xmlns="http://www.w3.org/2000/svg" xmlns:xlink="http://www.w3.org/1999/xlink" width="19.1602" height="19.1504">
 <g>
  <rect height="19.1504" opacity="0" width="19.1602" x="0" y="0"/>
  <path d="M9.57031 19.1406Q11.5527 19.1406 13.2861 18.3984Q15.0195 17.6562 16.3379 16.333Q17.6562 15.0098 18.4082 13.2764Q19.1602 11.543 19.1602 9.57031Q19.1602 7.59766 18.4082 5.86426Q17.6562 4.13086 16.3379 2.80762Q15.0195 1.48438 13.2861 0.742188Q11.5527 0 9.57031 0Q7.59766 0 5.86426 0.742188Q4.13086 1.48438 2.81738 2.80762Q1.50391 4.13086 0.751953 5.86426Q0 7.59766 0 9.57031Q0 11.543 0.74707 13.2764Q1.49414 15.0098 2.8125 16.333Q4.13086 17.6562 5.86914 18.3984Q7.60742 19.1406 9.57031 19.1406ZM9.57031 18.3984Q7.74414 18.3984 6.14746 17.71Q4.55078 17.0215 3.33496 15.8105Q2.11914 14.5996 1.43555 12.998Q0.751953 11.3965 0.751953 9.57031Q0.751953 7.74414 1.43555 6.14258Q2.11914 4.54102 3.33496 3.3252Q4.55078 2.10938 6.14746 1.4209Q7.74414 0.732422 9.57031 0.732422Q11.4062 0.732422 13.0029 1.4209Q14.5996 2.10938 15.8154 3.3252Q17.0312 4.54102 17.7197 6.14258Q18.4082 7.74414 18.4082 9.57031Q18.4082 11.3965 17.7246 12.998Q17.041 14.5996 15.8252 15.8105Q14.6094 17.0215 13.0078 17.71Q11.4062 18.3984 9.57031 18.3984Z" fill="#007aff"/>
  <path d="M4.60938 13.5059L8.79883 13.5059Q8.94531 13.5059 9.02344 13.4131Q9.10156 13.3203 9.10156 13.1836Q9.10156 13.0469 9.02344 12.959Q8.94531 12.8711 8.79883 12.8711L5.22461 12.8711L5.22461 12.8418L7.61719 10.0488Q8.26172 9.29688 8.56934 8.74512Q8.87695 8.19336 8.87695 7.60742Q8.87695 6.64062 8.22266 6.06445Q7.56836 5.48828 6.50391 5.48828Q5.60547 5.48828 4.91211 5.99609Q4.21875 6.50391 4.07227 7.28516Q4.0625 7.36328 4.05273 7.42676Q4.04297 7.49023 4.04297 7.55859Q4.04297 7.70508 4.13086 7.80273Q4.21875 7.90039 4.36523 7.90039Q4.51172 7.90039 4.58984 7.81738Q4.66797 7.73438 4.69727 7.58789Q4.77539 6.94336 5.27344 6.5332Q5.77148 6.12305 6.52344 6.12305Q7.29492 6.12305 7.74902 6.52832Q8.20312 6.93359 8.20312 7.61719Q8.20312 8.0957 7.96387 8.53027Q7.72461 8.96484 7.25586 9.51172L4.36523 12.8516Q4.25781 12.9785 4.25781 13.1641Q4.25781 13.3301 4.35547 13.418Q4.45312 13.5059 4.60938 13.5059ZM13.0762 13.6523Q14.2383 13.6523 14.9902 13.0078Q15.7422 12.3633 15.7422 11.3672Q15.7422 10.6055 15.2246 10.0439Q14.707 9.48242 13.9355 9.4043L13.9355 9.38477Q14.5996 9.26758 15.0391 8.7207Q15.4785 8.17383 15.4785 7.49023Q15.4785 6.61133 14.7998 6.0498Q14.1211 5.48828 13.0859 5.48828Q12.2266 5.48828 11.5527 5.92285Q10.8789 6.35742 10.7129 7.08008Q10.6836 7.2168 10.6836 7.36328Q10.6836 7.51953 10.7666 7.61719Q10.8496 7.71484 11.0156 7.71484Q11.1426 7.71484 11.2158 7.6416Q11.2891 7.56836 11.3379 7.41211Q11.4551 6.82617 11.9141 6.47461Q12.373 6.12305 13.0762 6.12305Q13.8477 6.12305 14.3262 6.52344Q14.8047 6.92383 14.8047 7.56836Q14.8047 8.22266 14.3262 8.66699Q13.8477 9.11133 13.1152 9.11133L12.3926 9.11133Q12.2559 9.11133 12.168 9.19922Q12.0801 9.28711 12.0801 9.43359Q12.0801 9.57031 12.1631 9.6582Q12.2461 9.74609 12.3926 9.74609L13.1836 9.74609Q14.0039 9.74609 14.5361 10.2051Q15.0684 10.6641 15.0684 11.3574Q15.0684 12.0898 14.5215 12.5537Q13.9746 13.0176 13.0859 13.0176Q12.4219 13.0176 11.8945 12.6709Q11.3672 12.3242 11.1719 11.7285Q11.0742 11.4355 10.8398 11.4355Q10.7031 11.4355 10.6104 11.5332Q10.5176 11.6309 10.5176 11.7676Q10.5176 11.8555 10.5322 11.9189Q10.5469 11.9824 10.5664 12.041Q10.7715 12.6953 11.4551 13.1738Q12.1387 13.6523 13.0762 13.6523Z" fill="#ffffff"/>
 </g>
</svg>
