<?xml version="1.0" encoding="UTF-8"?>
<!--Generator: Apple Native CoreSVG 175-->
<!DOCTYPE svg
PUBLIC "-//W3C//DTD SVG 1.1//EN"
       "http://www.w3.org/Graphics/SVG/1.1/DTD/svg11.dtd">
<svg version="1.1" xmlns="http://www.w3.org/2000/svg" xmlns:xlink="http://www.w3.org/1999/xlink" width="17.2852" height="17.3145">
 <g>
  <rect height="17.3145" opacity="0" width="17.2852" x="0" y="0"/>
  <path d="M2.62695 17.3145L14.6484 17.3145Q15.957 17.3145 16.6211 16.6455Q17.2852 15.9766 17.2852 14.6875L17.2852 2.65625Q17.2852 1.37695 16.6211 0.703125Q15.957 0.0292969 14.6484 0.0292969L2.62695 0.0292969Q1.33789 0.0292969 0.668945 0.693359Q0 1.35742 0 2.65625L0 14.6875Q0 15.9863 0.668945 16.6504Q1.33789 17.3145 2.62695 17.3145ZM2.65625 16.5918Q1.70898 16.5918 1.2207 16.1035Q0.732422 15.6152 0.732422 14.6582L0.732422 2.69531Q0.732422 1.72852 1.2207 1.24512Q1.70898 0.761719 2.65625 0.761719L14.6289 0.761719Q15.5566 0.761719 16.0596 1.24512Q16.5625 1.72852 16.5625 2.69531L16.5625 14.6582Q16.5625 15.6152 16.0596 16.1035Q15.5566 16.5918 14.6289 16.5918Z" fill="#007aff"/>
  <path d="M8.60352 13.125Q9.95117 13.125 10.791 12.3193Q11.6309 11.5137 11.6309 10.2051Q11.6309 8.97461 10.8398 8.19336Q10.0488 7.41211 8.80859 7.41211Q8.20312 7.41211 7.63184 7.67578Q7.06055 7.93945 6.70898 8.39844L6.66016 8.39844L6.94336 4.9707L11.0059 4.9707Q11.1426 4.9707 11.2305 4.87793Q11.3184 4.78516 11.3184 4.64844Q11.3184 4.51172 11.2305 4.41895Q11.1426 4.32617 11.0059 4.32617L6.81641 4.32617Q6.58203 4.32617 6.44531 4.45312Q6.30859 4.58008 6.28906 4.81445L5.97656 8.71094Q5.9668 8.91602 6.0791 9.03809Q6.19141 9.16016 6.38672 9.16016Q6.5332 9.16016 6.62109 9.12109Q6.70898 9.08203 6.82617 8.96484Q7.30469 8.45703 7.74414 8.25195Q8.18359 8.04688 8.74023 8.04688Q9.69727 8.04688 10.2979 8.64746Q10.8984 9.24805 10.8984 10.2148Q10.8984 11.1914 10.2588 11.8311Q9.61914 12.4707 8.66211 12.4707Q7.87109 12.4707 7.26562 12.0898Q6.66016 11.709 6.49414 11.0938Q6.44531 10.957 6.35742 10.8838Q6.26953 10.8105 6.13281 10.8105Q5.98633 10.8105 5.89844 10.9033Q5.81055 10.9961 5.81055 11.1426Q5.81055 11.2305 5.85938 11.3672Q6.06445 12.1387 6.79688 12.6318Q7.5293 13.125 8.60352 13.125Z" fill="#ffffff"/>
 </g>
</svg>
