<?xml version="1.0" encoding="UTF-8"?>
<!--Generator: Apple Native CoreSVG 175-->
<!DOCTYPE svg
PUBLIC "-//W3C//DTD SVG 1.1//EN"
       "http://www.w3.org/Graphics/SVG/1.1/DTD/svg11.dtd">
<svg version="1.1" xmlns="http://www.w3.org/2000/svg" xmlns:xlink="http://www.w3.org/1999/xlink" width="19.1602" height="19.1504">
 <g>
  <rect height="19.1504" opacity="0" width="19.1602" x="0" y="0"/>
  <path d="M9.57031 19.1406Q11.5527 19.1406 13.2861 18.3984Q15.0195 17.6562 16.3379 16.333Q17.6562 15.0098 18.4082 13.2764Q19.1602 11.543 19.1602 9.57031Q19.1602 7.59766 18.4082 5.86426Q17.6562 4.13086 16.3379 2.80762Q15.0195 1.48438 13.2861 0.742188Q11.5527 0 9.57031 0Q7.59766 0 5.86426 0.742188Q4.13086 1.48438 2.81738 2.80762Q1.50391 4.13086 0.751953 5.86426Q0 7.59766 0 9.57031Q0 11.543 0.74707 13.2764Q1.49414 15.0098 2.8125 16.333Q4.13086 17.6562 5.86914 18.3984Q7.60742 19.1406 9.57031 19.1406Z" fill="#007aff"/>
  <path d="M6.25977 13.6816Q5.3125 13.6816 4.62402 13.1982Q3.93555 12.7148 3.73047 12.0605Q3.70117 11.9922 3.69141 11.9336Q3.68164 11.875 3.68164 11.7871Q3.68164 11.6406 3.77441 11.5381Q3.86719 11.4355 4.01367 11.4355Q4.24805 11.4355 4.3457 11.7383Q4.55078 12.3438 5.07324 12.6904Q5.5957 13.0371 6.25977 13.0371Q7.1582 13.0371 7.70996 12.5684Q8.26172 12.0996 8.26172 11.3672Q8.26172 10.6738 7.71973 10.2148Q7.17773 9.75586 6.36719 9.75586L5.56641 9.75586Q5.41992 9.75586 5.33691 9.66309Q5.25391 9.57031 5.25391 9.43359Q5.25391 9.28711 5.3418 9.19922Q5.42969 9.11133 5.56641 9.11133L6.29883 9.11133Q7.02148 9.11133 7.5 8.66211Q7.97852 8.21289 7.97852 7.55859Q7.97852 6.9043 7.50488 6.49902Q7.03125 6.09375 6.25977 6.09375Q5.54688 6.09375 5.08301 6.45508Q4.61914 6.81641 4.50195 7.40234Q4.46289 7.55859 4.38477 7.63184Q4.30664 7.70508 4.17969 7.70508Q4.00391 7.70508 3.92578 7.60254Q3.84766 7.5 3.84766 7.34375Q3.84766 7.19727 3.87695 7.07031Q4.05273 6.33789 4.72656 5.89844Q5.40039 5.45898 6.26953 5.45898Q7.31445 5.45898 7.99316 6.02539Q8.67188 6.5918 8.67188 7.48047Q8.67188 8.16406 8.23242 8.71582Q7.79297 9.26758 7.12891 9.38477L7.12891 9.4043Q7.90039 9.48242 8.42285 10.0488Q8.94531 10.6152 8.94531 11.377Q8.94531 12.3828 8.18359 13.0322Q7.42188 13.6816 6.25977 13.6816ZM11.0156 13.5352Q10.8594 13.5352 10.7568 13.4424Q10.6543 13.3496 10.6543 13.1836Q10.6543 12.998 10.7715 12.8711L13.6719 9.50195Q14.1406 8.95508 14.3848 8.52051Q14.6289 8.08594 14.6289 7.60742Q14.6289 6.92383 14.1748 6.50879Q13.7207 6.09375 12.9395 6.09375Q12.1875 6.09375 11.6846 6.50879Q11.1816 6.92383 11.1035 7.57812Q11.084 7.72461 11.001 7.80762Q10.918 7.89062 10.7715 7.89062Q10.6152 7.89062 10.5273 7.79297Q10.4395 7.69531 10.4395 7.54883Q10.4395 7.4707 10.4492 7.41211Q10.459 7.35352 10.4688 7.26562Q10.6152 6.48438 11.3135 5.97168Q12.0117 5.45898 12.9199 5.45898Q14.0039 5.45898 14.6582 6.04004Q15.3125 6.62109 15.3125 7.58789Q15.3125 8.19336 15.0049 8.74512Q14.6973 9.29688 14.0527 10.0488L11.6309 12.8516L11.6309 12.8906L15.2246 12.8906Q15.3711 12.8906 15.459 12.9785Q15.5469 13.0664 15.5469 13.2129Q15.5469 13.3496 15.459 13.4424Q15.3711 13.5352 15.2246 13.5352Z" fill="#ffffff"/>
 </g>
</svg>
