<?xml version="1.0" encoding="UTF-8"?>
<!--Generator: Apple Native CoreSVG 175-->
<!DOCTYPE svg
PUBLIC "-//W3C//DTD SVG 1.1//EN"
       "http://www.w3.org/Graphics/SVG/1.1/DTD/svg11.dtd">
<svg version="1.1" xmlns="http://www.w3.org/2000/svg" xmlns:xlink="http://www.w3.org/1999/xlink" width="17.2852" height="17.3145">
 <g>
  <rect height="17.3145" opacity="0" width="17.2852" x="0" y="0"/>
  <path d="M2.62695 17.3145L14.6484 17.3145Q15.957 17.3145 16.6211 16.6455Q17.2852 15.9766 17.2852 14.6875L17.2852 2.65625Q17.2852 1.37695 16.6211 0.703125Q15.957 0.0292969 14.6484 0.0292969L2.62695 0.0292969Q1.33789 0.0292969 0.668945 0.693359Q0 1.35742 0 2.65625L0 14.6875Q0 15.9863 0.668945 16.6504Q1.33789 17.3145 2.62695 17.3145Z" fill="#007aff"/>
  <path d="M6.03516 12.6855Q5.89844 12.6855 5.80566 12.5977Q5.71289 12.5098 5.71289 12.3535L5.71289 5.43945L5.67383 5.43945L4.02344 6.5332Q3.96484 6.57227 3.9209 6.58203Q3.87695 6.5918 3.82812 6.5918Q3.70117 6.5918 3.6084 6.49902Q3.51562 6.40625 3.51562 6.2793Q3.51562 6.09375 3.69141 5.97656L5.57617 4.74609Q5.69336 4.66797 5.78125 4.63379Q5.86914 4.59961 5.99609 4.59961Q6.15234 4.59961 6.26465 4.69727Q6.37695 4.79492 6.37695 4.9707L6.37695 12.3535Q6.37695 12.5098 6.28906 12.5977Q6.20117 12.6855 6.03516 12.6855ZM9.70703 12.6953Q9.54102 12.6953 9.44824 12.5928Q9.35547 12.4902 9.35547 12.3535Q9.35547 12.2949 9.37012 12.2412Q9.38477 12.1875 9.4043 12.1289L12.8711 5.3125L12.8711 5.26367L8.76953 5.26367Q8.62305 5.26367 8.53516 5.17578Q8.44727 5.08789 8.44727 4.95117Q8.44727 4.80469 8.53516 4.7168Q8.62305 4.62891 8.76953 4.62891L13.0566 4.62891Q13.3105 4.62891 13.457 4.76074Q13.6035 4.89258 13.6035 5.09766Q13.6035 5.19531 13.5791 5.27344Q13.5547 5.35156 13.4961 5.48828L10.0488 12.4512Q9.98047 12.5781 9.90234 12.6367Q9.82422 12.6953 9.70703 12.6953Z" fill="#ffffff"/>
 </g>
</svg>
