<?xml version="1.0" encoding="UTF-8"?>
<!--Generator: Apple Native CoreSVG 175-->
<!DOCTYPE svg
PUBLIC "-//W3C//DTD SVG 1.1//EN"
       "http://www.w3.org/Graphics/SVG/1.1/DTD/svg11.dtd">
<svg version="1.1" xmlns="http://www.w3.org/2000/svg" xmlns:xlink="http://www.w3.org/1999/xlink" width="17.2852" height="17.3145">
 <g>
  <rect height="17.3145" opacity="0" width="17.2852" x="0" y="0"/>
  <path d="M2.62695 17.3145L14.6484 17.3145Q15.957 17.3145 16.6211 16.6455Q17.2852 15.9766 17.2852 14.6875L17.2852 2.65625Q17.2852 1.37695 16.6211 0.703125Q15.957 0.0292969 14.6484 0.0292969L2.62695 0.0292969Q1.33789 0.0292969 0.668945 0.693359Q0 1.35742 0 2.65625L0 14.6875Q0 15.9863 0.668945 16.6504Q1.33789 17.3145 2.62695 17.3145ZM2.65625 16.5918Q1.70898 16.5918 1.2207 16.1035Q0.732422 15.6152 0.732422 14.6582L0.732422 2.69531Q0.732422 1.72852 1.2207 1.24512Q1.70898 0.761719 2.65625 0.761719L14.6289 0.761719Q15.5566 0.761719 16.0596 1.24512Q16.5625 1.72852 16.5625 2.69531L16.5625 14.6582Q16.5625 15.6152 16.0596 16.1035Q15.5566 16.5918 14.6289 16.5918Z" fill="#007aff"/>
  <path d="M5.6543 12.6562Q5.98633 12.6562 5.98633 12.334L5.98633 4.99023Q5.98633 4.82422 5.87891 4.72656Q5.77148 4.62891 5.61523 4.62891Q5.49805 4.62891 5.40527 4.66309Q5.3125 4.69727 5.20508 4.76562L3.32031 5.99609Q3.1543 6.10352 3.1543 6.28906Q3.1543 6.41602 3.24219 6.50879Q3.33008 6.60156 3.45703 6.60156Q3.51562 6.60156 3.55469 6.59668Q3.59375 6.5918 3.65234 6.54297L5.29297 5.45898L5.33203 5.45898L5.33203 12.334Q5.33203 12.6562 5.6543 12.6562ZM11.084 12.7344Q12.2852 12.7344 13.0225 12.0068Q13.7598 11.2793 13.7598 10.0781Q13.7598 8.96484 13.0371 8.26172Q12.3145 7.55859 11.2305 7.55859Q10.4492 7.55859 9.82422 7.9541Q9.19922 8.34961 8.93555 8.97461L8.91602 8.97461Q8.91602 8.95508 8.91602 8.93555Q8.91602 8.91602 8.91602 8.88672Q8.91602 7.14844 9.53125 6.17676Q10.1465 5.20508 11.2207 5.20508Q11.7773 5.20508 12.2266 5.46875Q12.6758 5.73242 12.9004 6.18164Q12.959 6.2793 13.0225 6.33789Q13.0859 6.39648 13.2031 6.39648Q13.3398 6.39648 13.4131 6.30859Q13.4863 6.2207 13.4863 6.09375Q13.4863 6.00586 13.4473 5.9082Q13.3594 5.625 13.0664 5.3125Q12.7734 5 12.3096 4.78516Q11.8457 4.57031 11.2305 4.57031Q9.84375 4.57031 9.07227 5.70312Q8.30078 6.83594 8.30078 8.90625Q8.30078 9.64844 8.4082 10.2783Q8.51562 10.9082 8.75 11.377Q9.07227 12.041 9.64844 12.3877Q10.2246 12.7344 11.084 12.7344ZM11.084 12.1191Q10.1953 12.1191 9.62402 11.5527Q9.05273 10.9863 9.05273 10.0977Q9.05273 9.24805 9.62402 8.70117Q10.1953 8.1543 11.0938 8.1543Q11.9824 8.1543 12.5439 8.69141Q13.1055 9.22852 13.1055 10.1172Q13.1055 11.0352 12.5488 11.5771Q11.9922 12.1191 11.084 12.1191Z" fill="#ffffff"/>
 </g>
</svg>
