<?xml version="1.0" encoding="UTF-8"?>
<!--Generator: Apple Native CoreSVG 175-->
<!DOCTYPE svg
PUBLIC "-//W3C//DTD SVG 1.1//EN"
       "http://www.w3.org/Graphics/SVG/1.1/DTD/svg11.dtd">
<svg version="1.1" xmlns="http://www.w3.org/2000/svg" xmlns:xlink="http://www.w3.org/1999/xlink" width="19.1602" height="19.1504">
 <g>
  <rect height="19.1504" opacity="0" width="19.1602" x="0" y="0"/>
  <path d="M9.57031 19.1406Q11.5527 19.1406 13.2861 18.3984Q15.0195 17.6562 16.3379 16.333Q17.6562 15.0098 18.4082 13.2764Q19.1602 11.543 19.1602 9.57031Q19.1602 7.59766 18.4082 5.86426Q17.6562 4.13086 16.3379 2.80762Q15.0195 1.48438 13.2861 0.742188Q11.5527 0 9.57031 0Q7.59766 0 5.86426 0.742188Q4.13086 1.48438 2.81738 2.80762Q1.50391 4.13086 0.751953 5.86426Q0 7.59766 0 9.57031Q0 11.543 0.74707 13.2764Q1.49414 15.0098 2.8125 16.333Q4.13086 17.6562 5.86914 18.3984Q7.60742 19.1406 9.57031 19.1406Z" fill="#007aff"/>
  <path d="M6.32812 13.6816Q5.49805 13.6816 4.87305 13.1641Q4.24805 12.6465 3.89648 11.7236Q3.54492 10.8008 3.54492 9.57031Q3.54492 8.33984 3.89648 7.41211Q4.24805 6.48438 4.87305 5.97168Q5.49805 5.45898 6.32812 5.45898Q7.1582 5.45898 7.7832 5.97168Q8.4082 6.48438 8.75977 7.41211Q9.11133 8.33984 9.11133 9.57031Q9.11133 10.8008 8.75977 11.7236Q8.4082 12.6465 7.7832 13.1641Q7.1582 13.6816 6.32812 13.6816ZM6.32812 13.0273Q7.26562 13.0273 7.8418 12.0752Q8.41797 11.123 8.41797 9.57031Q8.41797 8.01758 7.8418 7.06543Q7.26562 6.11328 6.32812 6.11328Q5.39062 6.11328 4.80957 7.06543Q4.22852 8.01758 4.22852 9.57031Q4.22852 11.123 4.80957 12.0752Q5.39062 13.0273 6.32812 13.0273ZM14.5117 13.6328Q14.3555 13.6328 14.2676 13.5352Q14.1797 13.4375 14.1797 13.291L14.1797 11.6699L10.8301 11.6699Q10.5859 11.6699 10.4443 11.543Q10.3027 11.416 10.3027 11.1816Q10.3027 11.084 10.332 10.9766Q10.3613 10.8691 10.4199 10.7715Q10.6934 10.3516 11.1084 9.70703Q11.5234 9.0625 11.9922 8.34473Q12.4609 7.62695 12.8857 6.97266Q13.3105 6.31836 13.6133 5.86914Q13.7598 5.63477 13.9209 5.54688Q14.082 5.45898 14.3066 5.45898Q14.5312 5.45898 14.6826 5.5957Q14.834 5.73242 14.834 5.9668L14.834 11.0352L15.8105 11.0352Q15.9473 11.0352 16.0303 11.1279Q16.1133 11.2207 16.1133 11.3574Q16.1133 11.4941 16.0303 11.582Q15.9473 11.6699 15.8105 11.6699L14.834 11.6699L14.834 13.291Q14.834 13.4375 14.7461 13.5352Q14.6582 13.6328 14.5117 13.6328ZM14.1797 11.0352L14.1797 6.20117L14.1406 6.20117Q13.9551 6.50391 13.6328 6.9873Q13.3105 7.4707 12.9297 8.05176Q12.5488 8.63281 12.1729 9.19922Q11.7969 9.76562 11.4941 10.249Q11.1914 10.7324 11.0254 11.0156L11.0254 11.0352Z" fill="#ffffff"/>
 </g>
</svg>
