<?xml version="1.0" encoding="UTF-8"?>
<!--Generator: Apple Native CoreSVG 175-->
<!DOCTYPE svg
PUBLIC "-//W3C//DTD SVG 1.1//EN"
       "http://www.w3.org/Graphics/SVG/1.1/DTD/svg11.dtd">
<svg version="1.1" xmlns="http://www.w3.org/2000/svg" xmlns:xlink="http://www.w3.org/1999/xlink" width="17.2852" height="17.3145">
 <g>
  <rect height="17.3145" opacity="0" width="17.2852" x="0" y="0"/>
  <path d="M2.62695 17.3145L14.6484 17.3145Q15.957 17.3145 16.6211 16.6455Q17.2852 15.9766 17.2852 14.6875L17.2852 2.65625Q17.2852 1.37695 16.6211 0.703125Q15.957 0.0292969 14.6484 0.0292969L2.62695 0.0292969Q1.33789 0.0292969 0.668945 0.693359Q0 1.35742 0 2.65625L0 14.6875Q0 15.9863 0.668945 16.6504Q1.33789 17.3145 2.62695 17.3145Z" fill="#007aff"/>
  <path d="M5.84961 12.6855Q5.71289 12.6855 5.62012 12.5977Q5.52734 12.5098 5.52734 12.3535L5.52734 5.43945L5.47852 5.43945L3.83789 6.5332Q3.7793 6.57227 3.73535 6.58203Q3.69141 6.5918 3.64258 6.5918Q3.51562 6.5918 3.42285 6.49902Q3.33008 6.40625 3.33008 6.2793Q3.33008 6.08398 3.50586 5.97656L5.38086 4.74609Q5.50781 4.66797 5.5957 4.63379Q5.68359 4.59961 5.81055 4.59961Q5.97656 4.59961 6.0791 4.69727Q6.18164 4.79492 6.18164 4.9707L6.18164 12.3535Q6.18164 12.5098 6.09375 12.5977Q6.00586 12.6855 5.84961 12.6855ZM11.0645 12.7637Q10.2344 12.7637 9.60449 12.2461Q8.97461 11.7285 8.62793 10.8057Q8.28125 9.88281 8.28125 8.65234Q8.28125 7.42188 8.62793 6.49414Q8.97461 5.56641 9.60449 5.05371Q10.2344 4.54102 11.0645 4.54102Q11.8848 4.54102 12.5098 5.05371Q13.1348 5.56641 13.4863 6.49414Q13.8379 7.42188 13.8379 8.65234Q13.8379 9.88281 13.4863 10.8057Q13.1348 11.7285 12.5098 12.2461Q11.8848 12.7637 11.0645 12.7637ZM11.0645 12.1094Q11.9922 12.1094 12.5781 11.1572Q13.1641 10.2051 13.1641 8.65234Q13.1641 7.09961 12.5781 6.14746Q11.9922 5.19531 11.0645 5.19531Q10.127 5.19531 9.5459 6.14746Q8.96484 7.09961 8.96484 8.65234Q8.96484 10.2051 9.5459 11.1572Q10.127 12.1094 11.0645 12.1094Z" fill="#ffffff"/>
 </g>
</svg>
