<?xml version="1.0" encoding="UTF-8"?>
<!--Generator: Apple Native CoreSVG 175-->
<!DOCTYPE svg
PUBLIC "-//W3C//DTD SVG 1.1//EN"
       "http://www.w3.org/Graphics/SVG/1.1/DTD/svg11.dtd">
<svg version="1.1" xmlns="http://www.w3.org/2000/svg" xmlns:xlink="http://www.w3.org/1999/xlink" width="17.2852" height="17.3145">
 <g>
  <rect height="17.3145" opacity="0" width="17.2852" x="0" y="0"/>
  <path d="M2.62695 17.3145L14.6484 17.3145Q15.957 17.3145 16.6211 16.6455Q17.2852 15.9766 17.2852 14.6875L17.2852 2.65625Q17.2852 1.37695 16.6211 0.703125Q15.957 0.0292969 14.6484 0.0292969L2.62695 0.0292969Q1.33789 0.0292969 0.668945 0.693359Q0 1.35742 0 2.65625L0 14.6875Q0 15.9863 0.668945 16.6504Q1.33789 17.3145 2.62695 17.3145Z" fill="#007aff"/>
  <path d="M8.67188 13.1543Q7.27539 13.1543 6.3916 12.3242Q5.50781 11.4941 5.50781 10.1953Q5.50781 9.45312 5.83984 8.68164Q6.17188 7.91016 6.89453 6.95312Q6.99219 6.82617 7.22168 6.5332Q7.45117 6.24023 7.74902 5.87402Q8.04688 5.50781 8.33496 5.14648Q8.62305 4.78516 8.83789 4.51172Q8.93555 4.38477 9.02344 4.29199Q9.11133 4.19922 9.26758 4.19922Q9.43359 4.19922 9.50684 4.29199Q9.58008 4.38477 9.58008 4.49219Q9.58008 4.62891 9.45312 4.79492Q9.23828 5.06836 8.93555 5.43457Q8.63281 5.80078 8.33984 6.17188Q8.04688 6.54297 7.80762 6.83594Q7.56836 7.12891 7.4707 7.27539Q7.24609 7.57812 7.12891 7.74414Q7.01172 7.91016 6.89453 8.08594L6.97266 8.0957Q7.30469 7.80273 7.80273 7.63672Q8.30078 7.4707 8.84766 7.4707Q9.70703 7.4707 10.3711 7.82715Q11.0352 8.18359 11.416 8.80859Q11.7969 9.43359 11.7969 10.2441Q11.7969 11.0938 11.3965 11.7529Q10.9961 12.4121 10.293 12.7832Q9.58984 13.1543 8.67188 13.1543ZM8.67188 12.5Q9.72656 12.5 10.415 11.8652Q11.1035 11.2305 11.1035 10.2734Q11.1035 9.29688 10.4102 8.67676Q9.7168 8.05664 8.63281 8.05664Q7.57812 8.05664 6.88965 8.67188Q6.20117 9.28711 6.20117 10.2246Q6.20117 11.2109 6.90918 11.8555Q7.61719 12.5 8.67188 12.5Z" fill="#ffffff"/>
 </g>
</svg>
