<?xml version="1.0" encoding="UTF-8"?>
<!--Generator: Apple Native CoreSVG 175-->
<!DOCTYPE svg
PUBLIC "-//W3C//DTD SVG 1.1//EN"
       "http://www.w3.org/Graphics/SVG/1.1/DTD/svg11.dtd">
<svg version="1.1" xmlns="http://www.w3.org/2000/svg" xmlns:xlink="http://www.w3.org/1999/xlink" width="17.2852" height="17.3145">
 <g>
  <rect height="17.3145" opacity="0" width="17.2852" x="0" y="0"/>
  <path d="M2.62695 17.3145L14.6484 17.3145Q15.957 17.3145 16.6211 16.6455Q17.2852 15.9766 17.2852 14.6875L17.2852 2.65625Q17.2852 1.37695 16.6211 0.703125Q15.957 0.0292969 14.6484 0.0292969L2.62695 0.0292969Q1.33789 0.0292969 0.668945 0.693359Q0 1.35742 0 2.65625L0 14.6875Q0 15.9863 0.668945 16.6504Q1.33789 17.3145 2.62695 17.3145Z" fill="#007aff"/>
  <path d="M6.58203 12.7148Q6.43555 12.7148 6.34277 12.6172Q6.25 12.5195 6.25 12.373L6.25 10.752L2.90039 10.752Q2.66602 10.752 2.51953 10.625Q2.37305 10.498 2.37305 10.2637Q2.37305 10.166 2.40234 10.0586Q2.43164 9.95117 2.49023 9.85352Q2.76367 9.43359 3.18359 8.78906Q3.60352 8.14453 4.06738 7.42676Q4.53125 6.70898 4.96094 6.05469Q5.39062 5.40039 5.69336 4.95117Q5.83984 4.7168 5.99609 4.62891Q6.15234 4.54102 6.37695 4.54102Q6.61133 4.54102 6.75781 4.67773Q6.9043 4.81445 6.9043 5.04883L6.9043 10.1172L7.88086 10.1172Q8.01758 10.1172 8.10547 10.21Q8.19336 10.3027 8.19336 10.4395Q8.19336 10.5762 8.11035 10.6641Q8.02734 10.752 7.88086 10.752L6.9043 10.752L6.9043 12.373Q6.9043 12.5195 6.82129 12.6172Q6.73828 12.7148 6.58203 12.7148ZM6.25 10.1172L6.25 5.2832L6.2207 5.2832Q6.02539 5.58594 5.70312 6.06934Q5.38086 6.55273 5 7.13379Q4.61914 7.71484 4.24805 8.28125Q3.87695 8.84766 3.57422 9.33105Q3.27148 9.81445 3.10547 10.0977L3.10547 10.1172ZM10.5371 12.6953Q10.3809 12.6953 10.2881 12.5928Q10.1953 12.4902 10.1953 12.3535Q10.1953 12.2266 10.2441 12.1289L13.7012 5.3125L13.7012 5.26367L9.60938 5.26367Q9.45312 5.26367 9.36523 5.17578Q9.27734 5.08789 9.27734 4.95117Q9.27734 4.80469 9.36523 4.7168Q9.45312 4.62891 9.60938 4.62891L13.8965 4.62891Q14.1406 4.62891 14.2871 4.76074Q14.4336 4.89258 14.4336 5.09766Q14.4336 5.19531 14.4141 5.27344Q14.3945 5.35156 14.3262 5.48828L10.8789 12.4414Q10.8203 12.5781 10.7373 12.6367Q10.6543 12.6953 10.5371 12.6953Z" fill="#ffffff"/>
 </g>
</svg>
