<?xml version="1.0" encoding="UTF-8"?>
<!--Generator: Apple Native CoreSVG 175-->
<!DOCTYPE svg
PUBLIC "-//W3C//DTD SVG 1.1//EN"
       "http://www.w3.org/Graphics/SVG/1.1/DTD/svg11.dtd">
<svg version="1.1" xmlns="http://www.w3.org/2000/svg" xmlns:xlink="http://www.w3.org/1999/xlink" width="19.1602" height="19.1504">
 <g>
  <rect height="19.1504" opacity="0" width="19.1602" x="0" y="0"/>
  <path d="M9.57031 19.1406Q11.5527 19.1406 13.2861 18.3984Q15.0195 17.6562 16.3379 16.333Q17.6562 15.0098 18.4082 13.2764Q19.1602 11.543 19.1602 9.57031Q19.1602 7.59766 18.4082 5.86426Q17.6562 4.13086 16.3379 2.80762Q15.0195 1.48438 13.2861 0.742188Q11.5527 0 9.57031 0Q7.59766 0 5.86426 0.742188Q4.13086 1.48438 2.81738 2.80762Q1.50391 4.13086 0.751953 5.86426Q0 7.59766 0 9.57031Q0 11.543 0.74707 13.2764Q1.49414 15.0098 2.8125 16.333Q4.13086 17.6562 5.86914 18.3984Q7.60742 19.1406 9.57031 19.1406Z" fill="#007aff"/>
  <path d="M6.30859 13.6816Q5.47852 13.6816 4.85352 13.1641Q4.22852 12.6465 3.87695 11.7236Q3.52539 10.8008 3.52539 9.57031Q3.52539 8.33984 3.87695 7.41211Q4.22852 6.48438 4.85352 5.97168Q5.47852 5.45898 6.30859 5.45898Q7.13867 5.45898 7.76367 5.97168Q8.38867 6.48438 8.74023 7.41211Q9.0918 8.33984 9.0918 9.57031Q9.0918 10.8008 8.74023 11.7236Q8.38867 12.6465 7.76367 13.1641Q7.13867 13.6816 6.30859 13.6816ZM6.30859 13.0273Q7.24609 13.0273 7.82227 12.0752Q8.39844 11.123 8.39844 9.57031Q8.39844 8.01758 7.82227 7.06543Q7.24609 6.11328 6.30859 6.11328Q5.38086 6.11328 4.79492 7.06543Q4.20898 8.01758 4.20898 9.57031Q4.20898 11.123 4.79492 12.0752Q5.38086 13.0273 6.30859 13.0273ZM12.998 13.6816Q12.041 13.6816 11.4014 13.2178Q10.7617 12.7539 10.5371 12.0996Q10.5176 12.0312 10.5078 11.9727Q10.498 11.9141 10.498 11.8555Q10.498 11.709 10.5859 11.626Q10.6738 11.543 10.8008 11.543Q10.918 11.543 10.9961 11.6211Q11.0742 11.6992 11.123 11.8164Q11.2891 12.373 11.8262 12.71Q12.3633 13.0469 13.0664 13.0469Q13.9355 13.0469 14.5068 12.4805Q15.0781 11.9141 15.0781 11.0254Q15.0781 10.1562 14.5312 9.59473Q13.9844 9.0332 13.1348 9.0332Q12.6562 9.0332 12.251 9.22852Q11.8457 9.42383 11.416 9.87305Q11.3184 9.98047 11.2305 10.0195Q11.1426 10.0586 11.0156 10.0586Q10.8398 10.0586 10.7324 9.94141Q10.625 9.82422 10.6445 9.61914L10.9277 6.00586Q10.9473 5.80078 11.0693 5.67871Q11.1914 5.55664 11.3965 5.55664L15.0684 5.55664Q15.1953 5.55664 15.2881 5.63965Q15.3809 5.72266 15.3809 5.85938Q15.3809 5.98633 15.2881 6.07422Q15.1953 6.16211 15.0684 6.16211L11.5234 6.16211L11.2793 9.3457L11.3086 9.3457Q11.6113 8.91602 12.1289 8.67188Q12.6465 8.42773 13.2031 8.42773Q14.3164 8.42773 15.0244 9.16016Q15.7324 9.89258 15.7324 11.0059Q15.7324 12.2168 14.9756 12.9492Q14.2188 13.6816 12.998 13.6816Z" fill="#ffffff"/>
 </g>
</svg>
