<?xml version="1.0" encoding="UTF-8"?>
<!--Generator: Apple Native CoreSVG 175-->
<!DOCTYPE svg
PUBLIC "-//W3C//DTD SVG 1.1//EN"
       "http://www.w3.org/Graphics/SVG/1.1/DTD/svg11.dtd">
<svg version="1.1" xmlns="http://www.w3.org/2000/svg" xmlns:xlink="http://www.w3.org/1999/xlink" width="17.2852" height="17.3145">
 <g>
  <rect height="17.3145" opacity="0" width="17.2852" x="0" y="0"/>
  <path d="M2.62695 17.3145L14.6484 17.3145Q15.957 17.3145 16.6211 16.6455Q17.2852 15.9766 17.2852 14.6875L17.2852 2.65625Q17.2852 1.37695 16.6211 0.703125Q15.957 0.0292969 14.6484 0.0292969L2.62695 0.0292969Q1.33789 0.0292969 0.668945 0.693359Q0 1.35742 0 2.65625L0 14.6875Q0 15.9863 0.668945 16.6504Q1.33789 17.3145 2.62695 17.3145Z" fill="#007aff"/>
  <path d="M5.74219 12.7637Q4.79492 12.7637 4.11133 12.2803Q3.42773 11.7969 3.21289 11.1426Q3.19336 11.0742 3.17871 11.0156Q3.16406 10.957 3.16406 10.8691Q3.16406 10.7227 3.25684 10.6201Q3.34961 10.5176 3.49609 10.5176Q3.73047 10.5176 3.83789 10.8203Q4.0332 11.4258 4.55566 11.7725Q5.07812 12.1191 5.75195 12.1191Q6.65039 12.1191 7.19727 11.6504Q7.74414 11.1816 7.74414 10.4492Q7.74414 9.75586 7.20703 9.29688Q6.66992 8.83789 5.84961 8.83789L5.04883 8.83789Q4.90234 8.83789 4.81934 8.74512Q4.73633 8.65234 4.73633 8.51562Q4.73633 8.36914 4.82422 8.28125Q4.91211 8.19336 5.04883 8.19336L5.78125 8.19336Q6.51367 8.19336 6.99219 7.74414Q7.4707 7.29492 7.4707 6.64062Q7.4707 5.98633 6.99707 5.58105Q6.52344 5.17578 5.74219 5.17578Q5.0293 5.17578 4.56543 5.53711Q4.10156 5.89844 3.99414 6.48438Q3.95508 6.64062 3.87207 6.71387Q3.78906 6.78711 3.67188 6.78711Q3.48633 6.78711 3.4082 6.68457Q3.33008 6.58203 3.33008 6.42578Q3.33008 6.2793 3.35938 6.15234Q3.53516 5.41992 4.20898 4.98047Q4.88281 4.54102 5.75195 4.54102Q6.79688 4.54102 7.47559 5.10742Q8.1543 5.67383 8.1543 6.5625Q8.1543 7.24609 7.71484 7.79785Q7.27539 8.34961 6.61133 8.4668L6.61133 8.48633Q7.39258 8.56445 7.91016 9.13086Q8.42773 9.69727 8.42773 10.459Q8.42773 11.4648 7.6709 12.1143Q6.91406 12.7637 5.74219 12.7637ZM10.8008 12.6953Q10.6348 12.6953 10.5371 12.5928Q10.4395 12.4902 10.4395 12.3535Q10.4395 12.2949 10.4541 12.2412Q10.4688 12.1875 10.498 12.1289L13.9551 5.3125L13.9551 5.26367L9.86328 5.26367Q9.70703 5.26367 9.61914 5.17578Q9.53125 5.08789 9.53125 4.95117Q9.53125 4.80469 9.61914 4.7168Q9.70703 4.62891 9.86328 4.62891L14.1504 4.62891Q14.3848 4.62891 14.5361 4.76074Q14.6875 4.89258 14.6875 5.09766Q14.6875 5.19531 14.668 5.27344Q14.6484 5.35156 14.5898 5.48828L11.1328 12.4414Q11.0742 12.5781 10.9912 12.6367Q10.9082 12.6953 10.8008 12.6953Z" fill="#ffffff"/>
 </g>
</svg>
