<?xml version="1.0" encoding="UTF-8"?>
<!--Generator: Apple Native CoreSVG 175-->
<!DOCTYPE svg
PUBLIC "-//W3C//DTD SVG 1.1//EN"
       "http://www.w3.org/Graphics/SVG/1.1/DTD/svg11.dtd">
<svg version="1.1" xmlns="http://www.w3.org/2000/svg" xmlns:xlink="http://www.w3.org/1999/xlink" width="19.1602" height="19.1504">
 <g>
  <rect height="19.1504" opacity="0" width="19.1602" x="0" y="0"/>
  <path d="M9.57031 19.1406Q11.5527 19.1406 13.2861 18.3984Q15.0195 17.6562 16.3379 16.333Q17.6562 15.0098 18.4082 13.2764Q19.1602 11.543 19.1602 9.57031Q19.1602 7.59766 18.4082 5.86426Q17.6562 4.13086 16.3379 2.80762Q15.0195 1.48438 13.2861 0.742188Q11.5527 0 9.57031 0Q7.59766 0 5.86426 0.742188Q4.13086 1.48438 2.81738 2.80762Q1.50391 4.13086 0.751953 5.86426Q0 7.59766 0 9.57031Q0 11.543 0.74707 13.2764Q1.49414 15.0098 2.8125 16.333Q4.13086 17.6562 5.86914 18.3984Q7.60742 19.1406 9.57031 19.1406ZM9.57031 18.3984Q7.74414 18.3984 6.14746 17.71Q4.55078 17.0215 3.33496 15.8105Q2.11914 14.5996 1.43555 12.998Q0.751953 11.3965 0.751953 9.57031Q0.751953 7.74414 1.43555 6.14258Q2.11914 4.54102 3.33496 3.3252Q4.55078 2.10938 6.14746 1.4209Q7.74414 0.732422 9.57031 0.732422Q11.4062 0.732422 13.0029 1.4209Q14.5996 2.10938 15.8154 3.3252Q17.0312 4.54102 17.7197 6.14258Q18.4082 7.74414 18.4082 9.57031Q18.4082 11.3965 17.7246 12.998Q17.041 14.5996 15.8252 15.8105Q14.6094 17.0215 13.0078 17.71Q11.4062 18.3984 9.57031 18.3984Z" fill="#007aff"/>
  <path d="M6.44531 13.6523Q7.26562 13.6523 7.89062 13.1396Q8.51562 12.627 8.8623 11.709Q9.20898 10.791 9.20898 9.57031Q9.20898 8.34961 8.8623 7.42676Q8.51562 6.50391 7.89062 5.99609Q7.26562 5.48828 6.44531 5.48828Q5.625 5.48828 5 5.99609Q4.375 6.50391 4.02832 7.42676Q3.68164 8.34961 3.68164 9.57031Q3.68164 10.791 4.02832 11.709Q4.375 12.627 5 13.1396Q5.625 13.6523 6.44531 13.6523ZM6.44531 13.0078Q5.51758 13.0078 4.93652 12.0605Q4.35547 11.1133 4.35547 9.57031Q4.35547 8.02734 4.93652 7.08008Q5.51758 6.13281 6.44531 6.13281Q7.37305 6.13281 7.9541 7.08008Q8.53516 8.02734 8.53516 9.57031Q8.53516 11.1133 7.9541 12.0605Q7.37305 13.0078 6.44531 13.0078ZM11.0742 13.5059L15.2734 13.5059Q15.4102 13.5059 15.4932 13.4131Q15.5762 13.3203 15.5762 13.1836Q15.5762 13.0469 15.4932 12.959Q15.4102 12.8711 15.2734 12.8711L11.6895 12.8711L11.6895 12.8418L14.0918 10.0488Q14.7363 9.29688 15.0439 8.74512Q15.3516 8.19336 15.3516 7.60742Q15.3516 6.64062 14.6973 6.06445Q14.043 5.48828 12.9785 5.48828Q12.0703 5.48828 11.377 5.99609Q10.6836 6.50391 10.5371 7.28516Q10.5273 7.36328 10.5176 7.42676Q10.5078 7.49023 10.5078 7.55859Q10.5078 7.70508 10.5957 7.80273Q10.6836 7.90039 10.8301 7.90039Q10.9863 7.90039 11.0645 7.81738Q11.1426 7.73438 11.1621 7.58789Q11.25 6.94336 11.748 6.5332Q12.2461 6.12305 12.9883 6.12305Q13.7695 6.12305 14.2236 6.52832Q14.6777 6.93359 14.6777 7.61719Q14.6777 8.0957 14.4336 8.53027Q14.1895 8.96484 13.7305 9.51172L10.8398 12.8516Q10.7227 12.9785 10.7227 13.1641Q10.7227 13.3301 10.8252 13.418Q10.9277 13.5059 11.0742 13.5059Z" fill="#ffffff"/>
 </g>
</svg>
