<?xml version="1.0" encoding="UTF-8"?>
<!--Generator: Apple Native CoreSVG 175-->
<!DOCTYPE svg
PUBLIC "-//W3C//DTD SVG 1.1//EN"
       "http://www.w3.org/Graphics/SVG/1.1/DTD/svg11.dtd">
<svg version="1.1" xmlns="http://www.w3.org/2000/svg" xmlns:xlink="http://www.w3.org/1999/xlink" width="17.2852" height="17.3145">
 <g>
  <rect height="17.3145" opacity="0" width="17.2852" x="0" y="0"/>
  <path d="M2.62695 17.3145L14.6484 17.3145Q15.957 17.3145 16.6211 16.6455Q17.2852 15.9766 17.2852 14.6875L17.2852 2.65625Q17.2852 1.37695 16.6211 0.703125Q15.957 0.0292969 14.6484 0.0292969L2.62695 0.0292969Q1.33789 0.0292969 0.668945 0.693359Q0 1.35742 0 2.65625L0 14.6875Q0 15.9863 0.668945 16.6504Q1.33789 17.3145 2.62695 17.3145Z" fill="#007aff"/>
  <path d="M8.71094 13.1543Q7.86133 13.1543 7.16309 12.7783Q6.46484 12.4023 6.07422 11.6797Q5.83008 11.2305 5.69336 10.5176Q5.55664 9.80469 5.55664 8.92578Q5.55664 6.64062 6.44043 5.39551Q7.32422 4.15039 8.88672 4.15039Q9.57031 4.15039 10.1025 4.38477Q10.6348 4.61914 10.9668 4.95605Q11.2988 5.29297 11.3867 5.60547Q11.4062 5.66406 11.416 5.70801Q11.4258 5.75195 11.4258 5.82031Q11.4258 5.95703 11.3379 6.04492Q11.25 6.13281 11.1133 6.13281Q10.9863 6.13281 10.9033 6.06445Q10.8203 5.99609 10.7227 5.84961Q10.4883 5.38086 9.99023 5.09766Q9.49219 4.81445 8.86719 4.81445Q7.66602 4.81445 6.96289 5.89844Q6.25977 6.98242 6.25977 8.89648Q6.25977 8.92578 6.25977 8.95508Q6.25977 8.98438 6.25977 9.01367Q6.26953 9.01367 6.28418 9.01367Q6.29883 9.01367 6.30859 9.01367Q6.64062 8.31055 7.29004 7.87109Q7.93945 7.43164 8.93555 7.43164Q9.72656 7.43164 10.3613 7.78809Q10.9961 8.14453 11.3721 8.76953Q11.748 9.39453 11.748 10.2148Q11.748 11.5527 10.9033 12.3535Q10.0586 13.1543 8.71094 13.1543ZM8.70117 12.5293Q9.74609 12.5293 10.3711 11.9141Q10.9961 11.2988 10.9961 10.2734Q10.9961 9.28711 10.3613 8.67188Q9.72656 8.05664 8.7207 8.05664Q7.71484 8.05664 7.06543 8.67676Q6.41602 9.29688 6.41602 10.2637Q6.41602 11.2402 7.06055 11.8848Q7.70508 12.5293 8.70117 12.5293Z" fill="#ffffff"/>
 </g>
</svg>
