<?xml version="1.0" encoding="UTF-8"?>
<!--Generator: Apple Native CoreSVG 175-->
<!DOCTYPE svg
PUBLIC "-//W3C//DTD SVG 1.1//EN"
       "http://www.w3.org/Graphics/SVG/1.1/DTD/svg11.dtd">
<svg version="1.1" xmlns="http://www.w3.org/2000/svg" xmlns:xlink="http://www.w3.org/1999/xlink" width="17.2852" height="17.3145">
 <g>
  <rect height="17.3145" opacity="0" width="17.2852" x="0" y="0"/>
  <path d="M2.62695 17.3145L14.6484 17.3145Q15.957 17.3145 16.6211 16.6455Q17.2852 15.9766 17.2852 14.6875L17.2852 2.65625Q17.2852 1.37695 16.6211 0.703125Q15.957 0.0292969 14.6484 0.0292969L2.62695 0.0292969Q1.33789 0.0292969 0.668945 0.693359Q0 1.35742 0 2.65625L0 14.6875Q0 15.9863 0.668945 16.6504Q1.33789 17.3145 2.62695 17.3145ZM2.65625 16.5918Q1.70898 16.5918 1.2207 16.1035Q0.732422 15.6152 0.732422 14.6582L0.732422 2.69531Q0.732422 1.72852 1.2207 1.24512Q1.70898 0.761719 2.65625 0.761719L14.6289 0.761719Q15.5566 0.761719 16.0596 1.24512Q16.5625 1.72852 16.5625 2.69531L16.5625 14.6582Q16.5625 15.6152 16.0596 16.1035Q15.5566 16.5918 14.6289 16.5918Z" fill="#007aff"/>
  <path d="M3.63281 12.5879L7.82227 12.5879Q7.96875 12.5879 8.04688 12.4951Q8.125 12.4023 8.125 12.2656Q8.125 12.1289 8.04688 12.041Q7.96875 11.9531 7.82227 11.9531L4.24805 11.9531L4.24805 11.9238L6.64062 9.13086Q7.28516 8.37891 7.59277 7.82715Q7.90039 7.27539 7.90039 6.68945Q7.90039 5.72266 7.24609 5.14648Q6.5918 4.57031 5.52734 4.57031Q4.62891 4.57031 3.93555 5.07812Q3.24219 5.58594 3.0957 6.36719Q3.08594 6.44531 3.07617 6.50879Q3.06641 6.57227 3.06641 6.64062Q3.06641 6.78711 3.1543 6.88477Q3.24219 6.98242 3.38867 6.98242Q3.53516 6.98242 3.61328 6.89941Q3.69141 6.81641 3.7207 6.66992Q3.79883 6.02539 4.29688 5.61523Q4.79492 5.20508 5.54688 5.20508Q6.31836 5.20508 6.77246 5.61035Q7.22656 6.01562 7.22656 6.69922Q7.22656 7.17773 6.9873 7.6123Q6.74805 8.04688 6.2793 8.59375L3.38867 11.9336Q3.28125 12.0605 3.28125 12.2461Q3.28125 12.4121 3.37891 12.5Q3.47656 12.5879 3.63281 12.5879ZM11.9434 12.7344Q12.7734 12.7344 13.3984 12.2217Q14.0234 11.709 14.3701 10.791Q14.7168 9.87305 14.7168 8.65234Q14.7168 7.43164 14.3701 6.50879Q14.0234 5.58594 13.3984 5.07812Q12.7734 4.57031 11.9434 4.57031Q11.1328 4.57031 10.5078 5.07812Q9.88281 5.58594 9.53613 6.50879Q9.18945 7.43164 9.18945 8.65234Q9.18945 9.87305 9.53613 10.791Q9.88281 11.709 10.5078 12.2217Q11.1328 12.7344 11.9434 12.7344ZM11.9434 12.0898Q11.0156 12.0898 10.4395 11.1426Q9.86328 10.1953 9.86328 8.65234Q9.86328 7.10938 10.4395 6.16211Q11.0156 5.21484 11.9434 5.21484Q12.8809 5.21484 13.457 6.16211Q14.0332 7.10938 14.0332 8.65234Q14.0332 10.1953 13.457 11.1426Q12.8809 12.0898 11.9434 12.0898Z" fill="#ffffff"/>
 </g>
</svg>
