<?xml version="1.0" encoding="UTF-8"?>
<!--Generator: Apple Native CoreSVG 175-->
<!DOCTYPE svg
PUBLIC "-//W3C//DTD SVG 1.1//EN"
       "http://www.w3.org/Graphics/SVG/1.1/DTD/svg11.dtd">
<svg version="1.1" xmlns="http://www.w3.org/2000/svg" xmlns:xlink="http://www.w3.org/1999/xlink" width="17.2852" height="17.3145">
 <g>
  <rect height="17.3145" opacity="0" width="17.2852" x="0" y="0"/>
  <path d="M2.62695 17.3145L14.6484 17.3145Q15.957 17.3145 16.6211 16.6455Q17.2852 15.9766 17.2852 14.6875L17.2852 2.65625Q17.2852 1.37695 16.6211 0.703125Q15.957 0.0292969 14.6484 0.0292969L2.62695 0.0292969Q1.33789 0.0292969 0.668945 0.693359Q0 1.35742 0 2.65625L0 14.6875Q0 15.9863 0.668945 16.6504Q1.33789 17.3145 2.62695 17.3145ZM2.65625 16.5918Q1.70898 16.5918 1.2207 16.1035Q0.732422 15.6152 0.732422 14.6582L0.732422 2.69531Q0.732422 1.72852 1.2207 1.24512Q1.70898 0.761719 2.65625 0.761719L14.6289 0.761719Q15.5566 0.761719 16.0596 1.24512Q16.5625 1.72852 16.5625 2.69531L16.5625 14.6582Q16.5625 15.6152 16.0596 16.1035Q15.5566 16.5918 14.6289 16.5918Z" fill="#007aff"/>
  <path d="M8.67188 13.125Q9.58008 13.125 10.2783 12.7539Q10.9766 12.3828 11.3721 11.7334Q11.7676 11.084 11.7676 10.2344Q11.7676 9.02344 10.9424 8.25195Q10.1172 7.48047 8.83789 7.48047Q8.29102 7.48047 7.79785 7.64648Q7.30469 7.8125 6.98242 8.10547L6.9043 8.08594Q7.01172 7.91016 7.12402 7.74902Q7.23633 7.58789 7.4707 7.28516Q7.56836 7.14844 7.80273 6.85059Q8.03711 6.55273 8.33496 6.19141Q8.63281 5.83008 8.92578 5.45898Q9.21875 5.08789 9.45312 4.81445Q9.58008 4.6582 9.58008 4.52148Q9.58008 4.42383 9.50195 4.32617Q9.42383 4.22852 9.25781 4.22852Q9.11133 4.22852 9.02344 4.32129Q8.93555 4.41406 8.83789 4.54102Q8.62305 4.81445 8.33496 5.17578Q8.04688 5.53711 7.75391 5.89844Q7.46094 6.25977 7.23145 6.54785Q7.00195 6.83594 6.91406 6.97266Q6.18164 7.91016 5.85449 8.68164Q5.52734 9.45312 5.52734 10.1855Q5.52734 11.4648 6.40625 12.2949Q7.28516 13.125 8.67188 13.125ZM8.67188 12.4805Q7.61719 12.4805 6.91406 11.8359Q6.21094 11.1914 6.21094 10.2148Q6.21094 9.27734 6.89453 8.66699Q7.57812 8.05664 8.64258 8.05664Q9.70703 8.05664 10.4004 8.67676Q11.0938 9.29688 11.0938 10.2637Q11.0938 11.2207 10.4053 11.8506Q9.7168 12.4805 8.67188 12.4805Z" fill="#ffffff"/>
 </g>
</svg>
