<?xml version="1.0" encoding="UTF-8"?>
<!--Generator: Apple Native CoreSVG 175-->
<!DOCTYPE svg
PUBLIC "-//W3C//DTD SVG 1.1//EN"
       "http://www.w3.org/Graphics/SVG/1.1/DTD/svg11.dtd">
<svg version="1.1" xmlns="http://www.w3.org/2000/svg" xmlns:xlink="http://www.w3.org/1999/xlink" width="19.1602" height="19.1504">
 <g>
  <rect height="19.1504" opacity="0" width="19.1602" x="0" y="0"/>
  <path d="M9.57031 19.1406Q11.5527 19.1406 13.2861 18.3984Q15.0195 17.6562 16.3379 16.333Q17.6562 15.0098 18.4082 13.2764Q19.1602 11.543 19.1602 9.57031Q19.1602 7.59766 18.4082 5.86426Q17.6562 4.13086 16.3379 2.80762Q15.0195 1.48438 13.2861 0.742188Q11.5527 0 9.57031 0Q7.59766 0 5.86426 0.742188Q4.13086 1.48438 2.81738 2.80762Q1.50391 4.13086 0.751953 5.86426Q0 7.59766 0 9.57031Q0 11.543 0.74707 13.2764Q1.49414 15.0098 2.8125 16.333Q4.13086 17.6562 5.86914 18.3984Q7.60742 19.1406 9.57031 19.1406Z" fill="#007aff"/>
  <path d="M7.48047 13.6328Q7.33398 13.6328 7.24121 13.5352Q7.14844 13.4375 7.14844 13.291L7.14844 11.6699L3.79883 11.6699Q3.56445 11.6699 3.41797 11.543Q3.27148 11.416 3.27148 11.1816Q3.27148 11.084 3.30078 10.9766Q3.33008 10.8691 3.38867 10.7715Q3.66211 10.3516 4.08203 9.70703Q4.50195 9.0625 4.96582 8.34473Q5.42969 7.62695 5.85938 6.97266Q6.28906 6.31836 6.5918 5.86914Q6.73828 5.63477 6.89453 5.54688Q7.05078 5.45898 7.27539 5.45898Q7.50977 5.45898 7.65625 5.5957Q7.80273 5.73242 7.80273 5.9668L7.80273 11.0352L8.7793 11.0352Q8.91602 11.0352 9.00391 11.1279Q9.0918 11.2207 9.0918 11.3574Q9.0918 11.4941 9.00879 11.582Q8.92578 11.6699 8.7793 11.6699L7.80273 11.6699L7.80273 13.291Q7.80273 13.4375 7.71973 13.5352Q7.63672 13.6328 7.48047 13.6328ZM7.14844 11.0352L7.14844 6.20117L7.11914 6.20117Q6.92383 6.50391 6.60156 6.9873Q6.2793 7.4707 5.89844 8.05176Q5.51758 8.63281 5.14648 9.19922Q4.77539 9.76562 4.47266 10.249Q4.16992 10.7324 4.00391 11.0156L4.00391 11.0352ZM12.959 13.6914Q12.0996 13.6914 11.5234 13.335Q10.9473 12.9785 10.6152 12.3145Q10.3809 11.8359 10.2686 11.2109Q10.1562 10.5859 10.1562 9.82422Q10.1562 7.73438 10.9424 6.59668Q11.7285 5.45898 13.1152 5.45898Q13.7305 5.45898 14.1992 5.67383Q14.668 5.88867 14.9609 6.20605Q15.2539 6.52344 15.3516 6.80664Q15.3906 6.9043 15.3906 7.00195Q15.3906 7.12891 15.3125 7.2168Q15.2344 7.30469 15.0879 7.30469Q14.9902 7.30469 14.9219 7.24609Q14.8535 7.1875 14.7949 7.08008Q14.5508 6.63086 14.1064 6.3623Q13.6621 6.09375 13.1055 6.09375Q12.0312 6.09375 11.4062 7.0752Q10.7812 8.05664 10.7812 9.80469Q10.7812 9.82422 10.7812 9.84863Q10.7812 9.87305 10.7812 9.89258L10.8105 9.89258Q11.0645 9.26758 11.6943 8.86719Q12.3242 8.4668 13.125 8.4668Q14.209 8.4668 14.9365 9.1748Q15.6641 9.88281 15.6641 11.0059Q15.6641 12.2168 14.9121 12.9541Q14.1602 13.6914 12.959 13.6914ZM12.959 13.0566Q13.877 13.0566 14.4385 12.5098Q15 11.9629 15 11.0449Q15 10.1562 14.4336 9.61426Q13.8672 9.07227 12.9688 9.07227Q12.0703 9.07227 11.499 9.62402Q10.9277 10.1758 10.9277 11.0352Q10.9277 11.9141 11.499 12.4854Q12.0703 13.0566 12.959 13.0566Z" fill="#ffffff"/>
 </g>
</svg>
