<?xml version="1.0" encoding="UTF-8"?>
<!--Generator: Apple Native CoreSVG 175-->
<!DOCTYPE svg
PUBLIC "-//W3C//DTD SVG 1.1//EN"
       "http://www.w3.org/Graphics/SVG/1.1/DTD/svg11.dtd">
<svg version="1.1" xmlns="http://www.w3.org/2000/svg" xmlns:xlink="http://www.w3.org/1999/xlink" width="19.1602" height="19.1504">
 <g>
  <rect height="19.1504" opacity="0" width="19.1602" x="0" y="0"/>
  <path d="M9.57031 19.1406Q11.5527 19.1406 13.2861 18.3984Q15.0195 17.6562 16.3379 16.333Q17.6562 15.0098 18.4082 13.2764Q19.1602 11.543 19.1602 9.57031Q19.1602 7.59766 18.4082 5.86426Q17.6562 4.13086 16.3379 2.80762Q15.0195 1.48438 13.2861 0.742188Q11.5527 0 9.57031 0Q7.59766 0 5.86426 0.742188Q4.13086 1.48438 2.81738 2.80762Q1.50391 4.13086 0.751953 5.86426Q0 7.59766 0 9.57031Q0 11.543 0.74707 13.2764Q1.49414 15.0098 2.8125 16.333Q4.13086 17.6562 5.86914 18.3984Q7.60742 19.1406 9.57031 19.1406Z" fill="#007aff"/>
  <path d="M7.51953 13.6328Q7.37305 13.6328 7.28516 13.5352Q7.19727 13.4375 7.19727 13.291L7.19727 11.6699L3.83789 11.6699Q3.60352 11.6699 3.45703 11.543Q3.31055 11.416 3.31055 11.1816Q3.31055 11.084 3.34473 10.9766Q3.37891 10.8691 3.42773 10.7715Q3.70117 10.3516 4.12109 9.70703Q4.54102 9.0625 5.00488 8.34473Q5.46875 7.62695 5.89844 6.97266Q6.32812 6.31836 6.63086 5.86914Q6.77734 5.63477 6.93359 5.54688Q7.08984 5.45898 7.32422 5.45898Q7.54883 5.45898 7.69531 5.5957Q7.8418 5.73242 7.8418 5.9668L7.8418 11.0352L8.82812 11.0352Q8.95508 11.0352 9.04297 11.1279Q9.13086 11.2207 9.13086 11.3574Q9.13086 11.4941 9.04785 11.582Q8.96484 11.6699 8.82812 11.6699L7.8418 11.6699L7.8418 13.291Q7.8418 13.4375 7.75879 13.5352Q7.67578 13.6328 7.51953 13.6328ZM7.19727 11.0352L7.19727 6.20117L7.1582 6.20117Q6.96289 6.50391 6.64062 6.9873Q6.31836 7.4707 5.9375 8.05176Q5.55664 8.63281 5.18555 9.19922Q4.81445 9.76562 4.51172 10.249Q4.20898 10.7324 4.04297 11.0156L4.04297 11.0352ZM13.0273 13.6816Q11.8066 13.6816 11.0254 13.0322Q10.2441 12.3828 10.2441 11.3574Q10.2441 10.625 10.7129 10.0684Q11.1816 9.51172 11.9238 9.36523L11.9238 9.31641Q11.2988 9.13086 10.9229 8.64746Q10.5469 8.16406 10.5469 7.54883Q10.5469 6.62109 11.2451 6.04004Q11.9434 5.45898 13.0273 5.45898Q14.1113 5.45898 14.8096 6.04004Q15.5078 6.62109 15.5078 7.54883Q15.5078 8.16406 15.127 8.65723Q14.7461 9.15039 14.1309 9.31641L14.1309 9.36523Q14.8633 9.51172 15.3369 10.0732Q15.8105 10.6348 15.8105 11.3574Q15.8105 12.373 15.0195 13.0273Q14.2285 13.6816 13.0273 13.6816ZM13.0273 13.0859Q13.9551 13.0859 14.5605 12.5928Q15.166 12.0996 15.166 11.3477Q15.166 10.6055 14.5654 10.127Q13.9648 9.64844 13.0273 9.64844Q12.0996 9.64844 11.499 10.127Q10.8984 10.6055 10.8984 11.3477Q10.8984 12.0996 11.499 12.5928Q12.0996 13.0859 13.0273 13.0859ZM13.0273 9.07227Q13.8184 9.07227 14.3213 8.64258Q14.8242 8.21289 14.8242 7.55859Q14.8242 6.89453 14.3262 6.47461Q13.8281 6.05469 13.0273 6.05469Q12.2266 6.05469 11.7285 6.47461Q11.2305 6.89453 11.2305 7.55859Q11.2305 8.21289 11.7334 8.64258Q12.2363 9.07227 13.0273 9.07227Z" fill="#ffffff"/>
 </g>
</svg>
