<?xml version="1.0" encoding="UTF-8"?>
<!--Generator: Apple Native CoreSVG 175-->
<!DOCTYPE svg
PUBLIC "-//W3C//DTD SVG 1.1//EN"
       "http://www.w3.org/Graphics/SVG/1.1/DTD/svg11.dtd">
<svg version="1.1" xmlns="http://www.w3.org/2000/svg" xmlns:xlink="http://www.w3.org/1999/xlink" width="17.2852" height="17.3145">
 <g>
  <rect height="17.3145" opacity="0" width="17.2852" x="0" y="0"/>
  <path d="M2.62695 17.3145L14.6484 17.3145Q15.957 17.3145 16.6211 16.6455Q17.2852 15.9766 17.2852 14.6875L17.2852 2.65625Q17.2852 1.37695 16.6211 0.703125Q15.957 0.0292969 14.6484 0.0292969L2.62695 0.0292969Q1.33789 0.0292969 0.668945 0.693359Q0 1.35742 0 2.65625L0 14.6875Q0 15.9863 0.668945 16.6504Q1.33789 17.3145 2.62695 17.3145ZM2.65625 16.5918Q1.70898 16.5918 1.2207 16.1035Q0.732422 15.6152 0.732422 14.6582L0.732422 2.69531Q0.732422 1.72852 1.2207 1.24512Q1.70898 0.761719 2.65625 0.761719L14.6289 0.761719Q15.5566 0.761719 16.0596 1.24512Q16.5625 1.72852 16.5625 2.69531L16.5625 14.6582Q16.5625 15.6152 16.0596 16.1035Q15.5566 16.5918 14.6289 16.5918Z" fill="#007aff"/>
  <path d="M8.71094 13.125Q10.0488 13.125 10.8838 12.3291Q11.7188 11.5332 11.7188 10.2051Q11.7188 9.39453 11.3477 8.76953Q10.9766 8.14453 10.3467 7.79297Q9.7168 7.44141 8.92578 7.44141Q7.93945 7.44141 7.29492 7.88086Q6.65039 8.32031 6.31836 9.01367Q6.30859 9.01367 6.29883 9.01367Q6.28906 9.01367 6.26953 9.01367Q6.26953 8.98438 6.26953 8.95508Q6.26953 8.92578 6.26953 8.89648Q6.26953 6.99219 6.96777 5.91309Q7.66602 4.83398 8.86719 4.83398Q9.48242 4.83398 9.98535 5.12207Q10.4883 5.41016 10.7129 5.86914Q10.8008 6.00586 10.8838 6.07422Q10.9668 6.14258 11.0938 6.14258Q11.2305 6.14258 11.3184 6.05957Q11.4062 5.97656 11.4062 5.83008Q11.4062 5.77148 11.3916 5.72754Q11.377 5.68359 11.3672 5.625Q11.2695 5.3125 10.9424 4.98047Q10.6152 4.64844 10.0879 4.41406Q9.56055 4.17969 8.87695 4.17969Q7.32422 4.17969 6.4502 5.41504Q5.57617 6.65039 5.57617 8.92578Q5.57617 9.79492 5.71289 10.5078Q5.84961 11.2207 6.08398 11.6602Q6.47461 12.373 7.16797 12.749Q7.86133 13.125 8.71094 13.125ZM8.70117 12.5Q7.70508 12.5 7.06543 11.8652Q6.42578 11.2305 6.42578 10.2539Q6.42578 9.29688 7.07031 8.68164Q7.71484 8.06641 8.7207 8.06641Q9.72656 8.06641 10.3516 8.67188Q10.9766 9.27734 10.9766 10.2637Q10.9766 11.2695 10.3564 11.8848Q9.73633 12.5 8.70117 12.5Z" fill="#ffffff"/>
 </g>
</svg>
