<?xml version="1.0" encoding="UTF-8"?>
<!--Generator: Apple Native CoreSVG 175-->
<!DOCTYPE svg
PUBLIC "-//W3C//DTD SVG 1.1//EN"
       "http://www.w3.org/Graphics/SVG/1.1/DTD/svg11.dtd">
<svg version="1.1" xmlns="http://www.w3.org/2000/svg" xmlns:xlink="http://www.w3.org/1999/xlink" width="17.2852" height="17.3145">
 <g>
  <rect height="17.3145" opacity="0" width="17.2852" x="0" y="0"/>
  <path d="M2.62695 17.3145L14.6484 17.3145Q15.957 17.3145 16.6211 16.6455Q17.2852 15.9766 17.2852 14.6875L17.2852 2.65625Q17.2852 1.37695 16.6211 0.703125Q15.957 0.0292969 14.6484 0.0292969L2.62695 0.0292969Q1.33789 0.0292969 0.668945 0.693359Q0 1.35742 0 2.65625L0 14.6875Q0 15.9863 0.668945 16.6504Q1.33789 17.3145 2.62695 17.3145Z" fill="#007aff"/>
  <path d="M3.47656 12.6172Q3.31055 12.6172 3.21289 12.5244Q3.11523 12.4316 3.11523 12.2656Q3.11523 12.168 3.13965 12.0947Q3.16406 12.0215 3.23242 11.9531L6.13281 8.58398Q6.60156 8.03711 6.8457 7.60254Q7.08984 7.16797 7.08984 6.68945Q7.08984 6.00586 6.63086 5.59082Q6.17188 5.17578 5.39062 5.17578Q4.63867 5.17578 4.14062 5.59082Q3.64258 6.00586 3.56445 6.66016Q3.53516 6.80664 3.45215 6.88965Q3.36914 6.97266 3.23242 6.97266Q3.07617 6.97266 2.98828 6.875Q2.90039 6.77734 2.90039 6.63086Q2.90039 6.55273 2.91016 6.49414Q2.91992 6.43555 2.92969 6.34766Q3.07617 5.56641 3.76953 5.05371Q4.46289 4.54102 5.38086 4.54102Q6.45508 4.54102 7.10938 5.12207Q7.76367 5.70312 7.76367 6.66992Q7.76367 7.27539 7.45605 7.82715Q7.14844 8.37891 6.50391 9.13086L4.0918 11.9336L4.0918 11.9727L7.68555 11.9727Q7.83203 11.9727 7.91504 12.0605Q7.99805 12.1484 7.99805 12.2949Q7.99805 12.4316 7.91504 12.5244Q7.83203 12.6172 7.68555 12.6172ZM11.8457 12.7637Q11.0547 12.7637 10.4736 12.3975Q9.89258 12.0312 9.67773 11.6406Q9.62891 11.5332 9.58008 11.4209Q9.53125 11.3086 9.53125 11.2012Q9.53125 11.0645 9.61426 10.9766Q9.69727 10.8887 9.82422 10.8887Q10.0391 10.8887 10.1758 11.1719Q10.3809 11.6016 10.8301 11.8701Q11.2793 12.1387 11.8457 12.1387Q12.5781 12.1387 13.1006 11.709Q13.623 11.2793 13.8965 10.4346Q14.1699 9.58984 14.1699 8.33008L14.1406 8.33008Q13.8574 9.02344 13.2568 9.41406Q12.6562 9.80469 11.7871 9.80469Q11.0742 9.80469 10.5078 9.46289Q9.94141 9.12109 9.60938 8.54004Q9.27734 7.95898 9.27734 7.2168Q9.27734 6.03516 10.0342 5.28809Q10.791 4.54102 11.9727 4.54102Q13.252 4.54102 14.0234 5.44922Q14.7949 6.35742 14.7949 8.18359Q14.7949 10.498 14.0381 11.6309Q13.2812 12.7637 11.8457 12.7637ZM11.9629 9.20898Q12.8516 9.20898 13.4424 8.63281Q14.0332 8.05664 14.0332 7.1875Q14.0332 6.30859 13.4424 5.73242Q12.8516 5.15625 11.9922 5.15625Q11.0938 5.15625 10.5176 5.71777Q9.94141 6.2793 9.94141 7.16797Q9.94141 8.04688 10.5078 8.62793Q11.0742 9.20898 11.9629 9.20898Z" fill="#ffffff"/>
 </g>
</svg>
