<?xml version="1.0" encoding="UTF-8"?>
<!--Generator: Apple Native CoreSVG 175-->
<!DOCTYPE svg
PUBLIC "-//W3C//DTD SVG 1.1//EN"
       "http://www.w3.org/Graphics/SVG/1.1/DTD/svg11.dtd">
<svg version="1.1" xmlns="http://www.w3.org/2000/svg" xmlns:xlink="http://www.w3.org/1999/xlink" width="17.2852" height="17.3145">
 <g>
  <rect height="17.3145" opacity="0" width="17.2852" x="0" y="0"/>
  <path d="M2.62695 17.3145L14.6484 17.3145Q15.957 17.3145 16.6211 16.6455Q17.2852 15.9766 17.2852 14.6875L17.2852 2.65625Q17.2852 1.37695 16.6211 0.703125Q15.957 0.0292969 14.6484 0.0292969L2.62695 0.0292969Q1.33789 0.0292969 0.668945 0.693359Q0 1.35742 0 2.65625L0 14.6875Q0 15.9863 0.668945 16.6504Q1.33789 17.3145 2.62695 17.3145ZM2.65625 16.5918Q1.70898 16.5918 1.2207 16.1035Q0.732422 15.6152 0.732422 14.6582L0.732422 2.69531Q0.732422 1.72852 1.2207 1.24512Q1.70898 0.761719 2.65625 0.761719L14.6289 0.761719Q15.5566 0.761719 16.0596 1.24512Q16.5625 1.72852 16.5625 2.69531L16.5625 14.6582Q16.5625 15.6152 16.0596 16.1035Q15.5566 16.5918 14.6289 16.5918Z" fill="#007aff"/>
  <path d="M5.35156 12.7344Q6.51367 12.7344 7.26562 12.0898Q8.01758 11.4453 8.01758 10.4492Q8.01758 9.6875 7.5 9.12598Q6.98242 8.56445 6.21094 8.48633L6.21094 8.4668Q6.86523 8.34961 7.30469 7.80273Q7.74414 7.25586 7.74414 6.57227Q7.74414 5.69336 7.07031 5.13184Q6.39648 4.57031 5.36133 4.57031Q4.49219 4.57031 3.82812 5.00488Q3.16406 5.43945 2.98828 6.16211Q2.95898 6.29883 2.95898 6.44531Q2.95898 6.60156 3.03711 6.69922Q3.11523 6.79688 3.29102 6.79688Q3.4082 6.79688 3.49121 6.72363Q3.57422 6.65039 3.60352 6.49414Q3.7207 5.9082 4.18457 5.55664Q4.64844 5.20508 5.35156 5.20508Q6.12305 5.20508 6.59668 5.60547Q7.07031 6.00586 7.07031 6.65039Q7.07031 7.30469 6.5918 7.74902Q6.11328 8.19336 5.39062 8.19336L4.66797 8.19336Q4.53125 8.19336 4.44336 8.28125Q4.35547 8.36914 4.35547 8.51562Q4.35547 8.65234 4.43848 8.74023Q4.52148 8.82812 4.66797 8.82812L5.45898 8.82812Q6.26953 8.82812 6.80664 9.28711Q7.34375 9.74609 7.34375 10.4395Q7.34375 11.1719 6.79688 11.6357Q6.25 12.0996 5.35156 12.0996Q4.69727 12.0996 4.16992 11.7529Q3.64258 11.4062 3.44727 10.8105Q3.34961 10.5176 3.11523 10.5176Q2.96875 10.5176 2.88086 10.6152Q2.79297 10.7129 2.79297 10.8496Q2.79297 10.9375 2.80273 11.001Q2.8125 11.0645 2.8418 11.123Q3.04688 11.7773 3.73047 12.2559Q4.41406 12.7344 5.35156 12.7344ZM10.0781 12.5879L14.2676 12.5879Q14.4141 12.5879 14.4922 12.4951Q14.5703 12.4023 14.5703 12.2656Q14.5703 12.1289 14.4922 12.041Q14.4141 11.9531 14.2676 11.9531L10.6934 11.9531L10.6934 11.9238L13.0859 9.13086Q13.7305 8.37891 14.0381 7.82715Q14.3457 7.27539 14.3457 6.68945Q14.3457 5.72266 13.6914 5.14648Q13.0371 4.57031 11.9727 4.57031Q11.0742 4.57031 10.3809 5.07812Q9.6875 5.58594 9.54102 6.36719Q9.53125 6.44531 9.52148 6.50879Q9.51172 6.57227 9.51172 6.64062Q9.51172 6.78711 9.59961 6.88477Q9.6875 6.98242 9.83398 6.98242Q9.98047 6.98242 10.0586 6.89941Q10.1367 6.81641 10.166 6.66992Q10.2441 6.02539 10.7422 5.61523Q11.2402 5.20508 11.9824 5.20508Q12.7637 5.20508 13.2178 5.61035Q13.6719 6.01562 13.6719 6.69922Q13.6719 7.17773 13.4326 7.6123Q13.1934 8.04688 12.7148 8.59375L9.83398 11.9336Q9.72656 12.0605 9.72656 12.2461Q9.72656 12.4121 9.82422 12.5Q9.92188 12.5879 10.0781 12.5879Z" fill="#ffffff"/>
 </g>
</svg>
