<?xml version="1.0" encoding="UTF-8"?>
<!--Generator: Apple Native CoreSVG 175-->
<!DOCTYPE svg
PUBLIC "-//W3C//DTD SVG 1.1//EN"
       "http://www.w3.org/Graphics/SVG/1.1/DTD/svg11.dtd">
<svg version="1.1" xmlns="http://www.w3.org/2000/svg" xmlns:xlink="http://www.w3.org/1999/xlink" width="19.1602" height="19.1504">
 <g>
  <rect height="19.1504" opacity="0" width="19.1602" x="0" y="0"/>
  <path d="M9.57031 19.1406Q11.5527 19.1406 13.2861 18.3984Q15.0195 17.6562 16.3379 16.333Q17.6562 15.0098 18.4082 13.2764Q19.1602 11.543 19.1602 9.57031Q19.1602 7.59766 18.4082 5.86426Q17.6562 4.13086 16.3379 2.80762Q15.0195 1.48438 13.2861 0.742188Q11.5527 0 9.57031 0Q7.59766 0 5.86426 0.742188Q4.13086 1.48438 2.81738 2.80762Q1.50391 4.13086 0.751953 5.86426Q0 7.59766 0 9.57031Q0 11.543 0.74707 13.2764Q1.49414 15.0098 2.8125 16.333Q4.13086 17.6562 5.86914 18.3984Q7.60742 19.1406 9.57031 19.1406Z" fill="#007aff"/>
  <path d="M4.23828 13.5352Q4.07227 13.5352 3.97461 13.4424Q3.87695 13.3496 3.87695 13.1836Q3.87695 12.998 3.99414 12.8711L6.89453 9.50195Q7.36328 8.95508 7.60742 8.52051Q7.85156 8.08594 7.85156 7.60742Q7.85156 6.92383 7.39258 6.50879Q6.93359 6.09375 6.15234 6.09375Q5.40039 6.09375 4.90234 6.50879Q4.4043 6.92383 4.32617 7.57812Q4.29688 7.72461 4.21387 7.80762Q4.13086 7.89062 3.99414 7.89062Q3.83789 7.89062 3.75 7.79297Q3.66211 7.69531 3.66211 7.54883Q3.66211 7.4707 3.67188 7.41211Q3.68164 7.35352 3.69141 7.26562Q3.83789 6.48438 4.53125 5.97168Q5.22461 5.45898 6.14258 5.45898Q7.2168 5.45898 7.87109 6.04004Q8.52539 6.62109 8.52539 7.58789Q8.52539 8.19336 8.21777 8.74512Q7.91016 9.29688 7.26562 10.0488L4.85352 12.8516L4.85352 12.8906L8.44727 12.8906Q8.59375 12.8906 8.67676 12.9785Q8.75977 13.0664 8.75977 13.2129Q8.75977 13.3496 8.67676 13.4424Q8.59375 13.5352 8.44727 13.5352ZM12.8125 13.6816Q11.8555 13.6816 11.2158 13.2178Q10.5762 12.7539 10.3516 12.0996Q10.332 12.0312 10.3223 11.9727Q10.3125 11.9141 10.3125 11.8555Q10.3125 11.709 10.4004 11.626Q10.4883 11.543 10.6152 11.543Q10.7324 11.543 10.8105 11.6211Q10.8887 11.6992 10.9277 11.8164Q11.1035 12.373 11.6406 12.71Q12.1777 13.0469 12.8711 13.0469Q13.75 13.0469 14.3213 12.4805Q14.8926 11.9141 14.8926 11.0254Q14.8926 10.1562 14.3506 9.59473Q13.8086 9.0332 12.9492 9.0332Q12.4707 9.0332 12.0605 9.22852Q11.6504 9.42383 11.2402 9.87305Q11.1328 9.98047 11.0449 10.0195Q10.957 10.0586 10.8398 10.0586Q10.6543 10.0586 10.5469 9.94141Q10.4395 9.82422 10.459 9.61914L10.7422 6.00586Q10.7617 5.80078 10.8838 5.67871Q11.0059 5.55664 11.2207 5.55664L14.8828 5.55664Q15.0098 5.55664 15.0977 5.63965Q15.1855 5.72266 15.1855 5.85938Q15.1855 5.98633 15.0977 6.07422Q15.0098 6.16211 14.8828 6.16211L11.3379 6.16211L11.0938 9.3457L11.1133 9.3457Q11.4258 8.91602 11.9434 8.67188Q12.4609 8.42773 13.0176 8.42773Q14.1309 8.42773 14.8438 9.16016Q15.5566 9.89258 15.5566 11.0059Q15.5566 12.2168 14.7949 12.9492Q14.0332 13.6816 12.8125 13.6816Z" fill="#ffffff"/>
 </g>
</svg>
