<?xml version="1.0" encoding="UTF-8"?>
<!--Generator: Apple Native CoreSVG 175.5-->
<!DOCTYPE svg
PUBLIC "-//W3C//DTD SVG 1.1//EN"
       "http://www.w3.org/Graphics/SVG/1.1/DTD/svg11.dtd">
<svg version="1.1" xmlns="http://www.w3.org/2000/svg" xmlns:xlink="http://www.w3.org/1999/xlink" width="19.9219" height="19.9316">
 <g>
  <rect height="19.9316" opacity="0" width="19.9219" x="0" y="0"/>
  <path d="M9.96094 19.9219Q12.002 19.9219 13.8037 19.1406Q15.6055 18.3594 16.9824 16.9824Q18.3594 15.6055 19.1406 13.8037Q19.9219 12.002 19.9219 9.96094Q19.9219 7.91992 19.1406 6.11816Q18.3594 4.31641 16.9824 2.93945Q15.6055 1.5625 13.7988 0.78125Q11.9922 0 9.95117 0Q7.91016 0 6.1084 0.78125Q4.30664 1.5625 2.93457 2.93945Q1.5625 4.31641 0.78125 6.11816Q0 7.91992 0 9.96094Q0 12.002 0.78125 13.8037Q1.5625 15.6055 2.93945 16.9824Q4.31641 18.3594 6.11816 19.1406Q7.91992 19.9219 9.96094 19.9219Z" fill="rgba(255,255,255,0.25)"/>
  <path d="M7.27539 14.3066Q6.40625 14.3066 5.76172 13.7793Q5.11719 13.252 4.75586 12.2803Q4.39453 11.3086 4.39453 9.96094Q4.39453 8.61328 4.75586 7.6416Q5.11719 6.66992 5.76172 6.14258Q6.40625 5.61523 7.27539 5.61523Q8.14453 5.61523 8.79395 6.14258Q9.44336 6.66992 9.7998 7.6416Q10.1562 8.61328 10.1562 9.96094Q10.1562 11.3086 9.7998 12.2803Q9.44336 13.252 8.79395 13.7793Q8.14453 14.3066 7.27539 14.3066ZM7.27539 13.0762Q8.00781 13.0762 8.42285 12.2412Q8.83789 11.4062 8.83789 9.96094Q8.83789 8.51562 8.41797 7.68066Q7.99805 6.8457 7.27539 6.8457Q6.5625 6.8457 6.14258 7.68066Q5.72266 8.51562 5.72266 9.96094Q5.72266 11.4062 6.14258 12.2412Q6.5625 13.0762 7.27539 13.0762ZM14.2773 14.1797Q13.9941 14.1797 13.8232 14.0039Q13.6523 13.8281 13.6523 13.5352L13.6523 7.28516L13.5938 7.28516L12.5195 8.07617Q12.3438 8.21289 12.2461 8.24219Q12.1484 8.27148 12.0312 8.27148Q11.8066 8.27148 11.626 8.0957Q11.4453 7.91992 11.4453 7.66602Q11.4453 7.31445 11.7871 7.07031L13.3203 6.02539Q13.584 5.83984 13.7695 5.76172Q13.9551 5.68359 14.209 5.68359Q14.5215 5.68359 14.7217 5.88867Q14.9219 6.09375 14.9219 6.40625L14.9219 13.5352Q14.9219 13.8281 14.7461 14.0039Q14.5703 14.1797 14.2773 14.1797Z" fill="#ffffff"/>
 </g>
</svg>
