<?xml version="1.0" encoding="UTF-8"?>
<!--Generator: Apple Native CoreSVG 175.5-->
<!DOCTYPE svg
PUBLIC "-//W3C//DTD SVG 1.1//EN"
       "http://www.w3.org/Graphics/SVG/1.1/DTD/svg11.dtd">
<svg version="1.1" xmlns="http://www.w3.org/2000/svg" xmlns:xlink="http://www.w3.org/1999/xlink" width="19.9219" height="19.9316">
 <g>
  <rect height="19.9316" opacity="0" width="19.9219" x="0" y="0"/>
  <path d="M9.96094 19.9219Q12.002 19.9219 13.8037 19.1406Q15.6055 18.3594 16.9824 16.9824Q18.3594 15.6055 19.1406 13.8037Q19.9219 12.002 19.9219 9.96094Q19.9219 7.91992 19.1406 6.11816Q18.3594 4.31641 16.9824 2.93945Q15.6055 1.5625 13.7988 0.78125Q11.9922 0 9.95117 0Q7.91016 0 6.1084 0.78125Q4.30664 1.5625 2.93457 2.93945Q1.5625 4.31641 0.78125 6.11816Q0 7.91992 0 9.96094Q0 12.002 0.78125 13.8037Q1.5625 15.6055 2.93945 16.9824Q4.31641 18.3594 6.11816 19.1406Q7.91992 19.9219 9.96094 19.9219ZM9.96094 18.2617Q8.23242 18.2617 6.72852 17.6172Q5.22461 16.9727 4.08691 15.835Q2.94922 14.6973 2.30957 13.1934Q1.66992 11.6895 1.66992 9.96094Q1.66992 8.23242 2.30957 6.72852Q2.94922 5.22461 4.08203 4.08203Q5.21484 2.93945 6.71875 2.2998Q8.22266 1.66016 9.95117 1.66016Q11.6797 1.66016 13.1885 2.2998Q14.6973 2.93945 15.835 4.08203Q16.9727 5.22461 17.6172 6.72852Q18.2617 8.23242 18.2617 9.96094Q18.2617 11.6895 17.6221 13.1934Q16.9824 14.6973 15.8398 15.835Q14.6973 16.9727 13.1934 17.6172Q11.6895 18.2617 9.96094 18.2617Z" fill="rgba(255,255,255,0.5)"/>
  <path d="M6.65039 14.1699Q7.49023 14.1699 8.12012 13.6572Q8.75 13.1445 9.09668 12.2021Q9.44336 11.2598 9.44336 9.96094Q9.44336 8.66211 9.09668 7.71484Q8.75 6.76758 8.12012 6.25977Q7.49023 5.75195 6.65039 5.75195Q5.81055 5.75195 5.18066 6.25977Q4.55078 6.76758 4.2041 7.71484Q3.85742 8.66211 3.85742 9.96094Q3.85742 11.2598 4.2041 12.2021Q4.55078 13.1445 5.18066 13.6572Q5.81055 14.1699 6.65039 14.1699ZM6.65039 12.9883Q5.95703 12.9883 5.54688 12.1777Q5.13672 11.3672 5.13672 9.96094Q5.13672 8.55469 5.54688 7.74414Q5.95703 6.93359 6.65039 6.93359Q7.35352 6.93359 7.75879 7.74414Q8.16406 8.55469 8.16406 9.96094Q8.16406 11.3672 7.75879 12.1777Q7.35352 12.9883 6.65039 12.9883ZM13.2715 14.1699Q14.5605 14.1699 15.3467 13.4277Q16.1328 12.6855 16.1328 11.3965Q16.1328 10.2734 15.4346 9.53613Q14.7363 8.79883 13.6035 8.79883Q13.1152 8.79883 12.6465 9.01367Q12.1777 9.22852 11.9629 9.56055L11.9238 9.56055L12.0996 7.05078L15.332 7.05078Q15.5371 7.05078 15.6787 6.89453Q15.8203 6.73828 15.8203 6.50391Q15.8203 6.26953 15.6836 6.11328Q15.5469 5.95703 15.332 5.95703L11.9824 5.95703Q11.5918 5.95703 11.3525 6.18164Q11.1133 6.40625 11.0938 6.78711L10.8496 9.83398Q10.8301 10.2148 11.0156 10.4443Q11.2012 10.6738 11.543 10.6738Q11.7676 10.6738 11.9336 10.6055Q12.0996 10.5371 12.334 10.3418Q12.6367 10.0781 12.8955 9.96094Q13.1543 9.84375 13.4766 9.84375Q14.1211 9.84375 14.5215 10.2979Q14.9219 10.752 14.9219 11.4258Q14.9219 12.1875 14.4824 12.627Q14.043 13.0664 13.3301 13.0664Q12.832 13.0664 12.4268 12.8174Q12.0215 12.5684 11.8164 12.1289Q11.709 11.9141 11.5625 11.8115Q11.416 11.709 11.25 11.709Q11.0059 11.709 10.8545 11.8701Q10.7031 12.0312 10.7031 12.2754Q10.7031 12.3926 10.7275 12.5049Q10.752 12.6172 10.791 12.7148Q11.0059 13.3203 11.6797 13.7451Q12.3535 14.1699 13.2715 14.1699Z" fill="#ffffff"/>
 </g>
</svg>
