<?xml version="1.0" encoding="UTF-8"?>
<!--Generator: Apple Native CoreSVG 175.5-->
<!DOCTYPE svg
PUBLIC "-//W3C//DTD SVG 1.1//EN"
       "http://www.w3.org/Graphics/SVG/1.1/DTD/svg11.dtd">
<svg version="1.1" xmlns="http://www.w3.org/2000/svg" xmlns:xlink="http://www.w3.org/1999/xlink" width="17.9785" height="17.998">
 <g>
  <rect height="17.998" opacity="0" width="17.9785" x="0" y="0"/>
  <path d="M3.06641 17.998L14.9121 17.998Q16.4453 17.998 17.2119 17.2412Q17.9785 16.4844 17.9785 14.9707L17.9785 3.04688Q17.9785 1.5332 17.2119 0.776367Q16.4453 0.0195312 14.9121 0.0195312L3.06641 0.0195312Q1.5332 0.0195312 0.766602 0.776367Q0 1.5332 0 3.04688L0 14.9707Q0 16.4844 0.766602 17.2412Q1.5332 17.998 3.06641 17.998ZM3.08594 16.4258Q2.35352 16.4258 1.96289 16.04Q1.57227 15.6543 1.57227 14.8926L1.57227 3.125Q1.57227 2.36328 1.96289 1.97754Q2.35352 1.5918 3.08594 1.5918L14.8926 1.5918Q15.6152 1.5918 16.0107 1.97754Q16.4062 2.36328 16.4062 3.125L16.4062 14.8926Q16.4062 15.6543 16.0107 16.04Q15.6152 16.4258 14.8926 16.4258Z" fill="rgba(255,255,255,0.5)"/>
  <path d="M5.69336 13.2031Q6.5332 13.2031 7.16309 12.6904Q7.79297 12.1777 8.13965 11.2354Q8.48633 10.293 8.48633 8.99414Q8.48633 7.69531 8.13965 6.74805Q7.79297 5.80078 7.16309 5.29297Q6.5332 4.78516 5.69336 4.78516Q4.85352 4.78516 4.22363 5.29297Q3.59375 5.80078 3.24707 6.74805Q2.90039 7.69531 2.90039 8.99414Q2.90039 10.293 3.24707 11.2354Q3.59375 12.1777 4.22363 12.6904Q4.85352 13.2031 5.69336 13.2031ZM5.69336 12.0215Q5 12.0215 4.58984 11.2109Q4.17969 10.4004 4.17969 8.99414Q4.17969 7.58789 4.58984 6.77734Q5 5.9668 5.69336 5.9668Q6.39648 5.9668 6.80176 6.77734Q7.20703 7.58789 7.20703 8.99414Q7.20703 10.4004 6.80176 11.2109Q6.39648 12.0215 5.69336 12.0215ZM12.3145 13.2031Q13.6035 13.2031 14.3896 12.4609Q15.1758 11.7188 15.1758 10.4297Q15.1758 9.30664 14.4775 8.56934Q13.7793 7.83203 12.6465 7.83203Q12.1582 7.83203 11.6895 8.04688Q11.2207 8.26172 11.0059 8.59375L10.9668 8.59375L11.1426 6.08398L14.375 6.08398Q14.5801 6.08398 14.7217 5.92773Q14.8633 5.77148 14.8633 5.53711Q14.8633 5.30273 14.7266 5.14648Q14.5898 4.99023 14.375 4.99023L11.0254 4.99023Q10.6348 4.99023 10.3955 5.21484Q10.1562 5.43945 10.1367 5.82031L9.89258 8.86719Q9.87305 9.24805 10.0586 9.47754Q10.2441 9.70703 10.5859 9.70703Q10.8105 9.70703 10.9766 9.63867Q11.1426 9.57031 11.377 9.375Q11.6797 9.11133 11.9385 8.99414Q12.1973 8.87695 12.5195 8.87695Q13.1641 8.87695 13.5645 9.33105Q13.9648 9.78516 13.9648 10.459Q13.9648 11.2207 13.5254 11.6602Q13.0859 12.0996 12.373 12.0996Q11.875 12.0996 11.4697 11.8506Q11.0645 11.6016 10.8594 11.1621Q10.752 10.9473 10.6055 10.8447Q10.459 10.7422 10.293 10.7422Q10.0488 10.7422 9.89746 10.9033Q9.74609 11.0645 9.74609 11.3086Q9.74609 11.4258 9.77051 11.5381Q9.79492 11.6504 9.83398 11.748Q10.0488 12.3535 10.7227 12.7783Q11.3965 13.2031 12.3145 13.2031Z" fill="#ffffff"/>
 </g>
</svg>
