<?xml version="1.0" encoding="UTF-8"?>
<!--Generator: Apple Native CoreSVG 175.5-->
<!DOCTYPE svg
PUBLIC "-//W3C//DTD SVG 1.1//EN"
       "http://www.w3.org/Graphics/SVG/1.1/DTD/svg11.dtd">
<svg version="1.1" xmlns="http://www.w3.org/2000/svg" xmlns:xlink="http://www.w3.org/1999/xlink" width="17.9785" height="17.998">
 <g>
  <rect height="17.998" opacity="0" width="17.9785" x="0" y="0"/>
  <path d="M3.06641 17.998L14.9121 17.998Q16.4453 17.998 17.2119 17.2412Q17.9785 16.4844 17.9785 14.9707L17.9785 3.04688Q17.9785 1.5332 17.2119 0.776367Q16.4453 0.0195312 14.9121 0.0195312L3.06641 0.0195312Q1.5332 0.0195312 0.766602 0.776367Q0 1.5332 0 3.04688L0 14.9707Q0 16.4844 0.766602 17.2412Q1.5332 17.998 3.06641 17.998ZM3.08594 16.4258Q2.35352 16.4258 1.96289 16.04Q1.57227 15.6543 1.57227 14.8926L1.57227 3.125Q1.57227 2.36328 1.96289 1.97754Q2.35352 1.5918 3.08594 1.5918L14.8926 1.5918Q15.6152 1.5918 16.0107 1.97754Q16.4062 2.36328 16.4062 3.125L16.4062 14.8926Q16.4062 15.6543 16.0107 16.04Q15.6152 16.4258 14.8926 16.4258Z" fill="rgba(255,255,255,0.5)"/>
  <path d="M5.69336 13.2031Q6.5332 13.2031 7.16309 12.6904Q7.79297 12.1777 8.13965 11.2354Q8.48633 10.293 8.48633 8.99414Q8.48633 7.69531 8.13965 6.74805Q7.79297 5.80078 7.16309 5.29297Q6.5332 4.78516 5.69336 4.78516Q4.85352 4.78516 4.22363 5.29297Q3.59375 5.80078 3.24707 6.74805Q2.90039 7.69531 2.90039 8.99414Q2.90039 10.293 3.24707 11.2354Q3.59375 12.1777 4.22363 12.6904Q4.85352 13.2031 5.69336 13.2031ZM5.69336 12.0215Q5 12.0215 4.58984 11.2109Q4.17969 10.4004 4.17969 8.99414Q4.17969 7.58789 4.58984 6.77734Q5 5.9668 5.69336 5.9668Q6.39648 5.9668 6.80176 6.77734Q7.20703 7.58789 7.20703 8.99414Q7.20703 10.4004 6.80176 11.2109Q6.39648 12.0215 5.69336 12.0215ZM12.5 13.2129Q13.6914 13.2129 14.4531 12.4658Q15.2148 11.7188 15.2148 10.3809Q15.2148 9.12109 14.4824 8.44727Q13.75 7.77344 12.793 7.77344Q12.0215 7.77344 11.5283 8.14941Q11.0352 8.52539 10.8594 9.00391L10.791 9.00391Q10.791 8.98438 10.791 8.96484Q10.791 8.94531 10.791 8.91602Q10.791 7.5293 11.2988 6.71875Q11.8066 5.9082 12.6367 5.9082Q13.0566 5.9082 13.3545 6.09375Q13.6523 6.2793 13.8379 6.5625Q13.9648 6.74805 14.0918 6.83594Q14.2188 6.92383 14.4238 6.92383Q14.6289 6.92383 14.7656 6.77734Q14.9023 6.63086 14.9023 6.38672Q14.9023 6.20117 14.834 6.01562Q14.707 5.69336 14.4092 5.41016Q14.1113 5.12695 13.6768 4.95605Q13.2422 4.78516 12.6855 4.78516Q11.2695 4.78516 10.459 5.88867Q9.64844 6.99219 9.64844 9.21875Q9.64844 10.1074 9.78516 10.7715Q9.92188 11.4355 10.166 11.8945Q10.5469 12.5977 11.1523 12.9053Q11.7578 13.2129 12.5 13.2129ZM12.4414 12.1387Q11.7578 12.1387 11.3281 11.6602Q10.8984 11.1816 10.8984 10.4199Q10.8984 9.69727 11.3281 9.23828Q11.7578 8.7793 12.4414 8.7793Q13.1348 8.7793 13.5596 9.23828Q13.9844 9.69727 13.9844 10.4297Q13.9844 11.2109 13.5693 11.6748Q13.1543 12.1387 12.4414 12.1387Z" fill="#ffffff"/>
 </g>
</svg>
