<?xml version="1.0" encoding="UTF-8"?>
<!--Generator: Apple Native CoreSVG 175.5-->
<!DOCTYPE svg
PUBLIC "-//W3C//DTD SVG 1.1//EN"
       "http://www.w3.org/Graphics/SVG/1.1/DTD/svg11.dtd">
<svg version="1.1" xmlns="http://www.w3.org/2000/svg" xmlns:xlink="http://www.w3.org/1999/xlink" width="17.9785" height="17.998">
 <g>
  <rect height="17.998" opacity="0" width="17.9785" x="0" y="0"/>
  <path d="M3.06641 17.998L14.9121 17.998Q16.4453 17.998 17.2119 17.2412Q17.9785 16.4844 17.9785 14.9707L17.9785 3.04688Q17.9785 1.5332 17.2119 0.776367Q16.4453 0.0195312 14.9121 0.0195312L3.06641 0.0195312Q1.5332 0.0195312 0.766602 0.776367Q0 1.5332 0 3.04688L0 14.9707Q0 16.4844 0.766602 17.2412Q1.5332 17.998 3.06641 17.998Z" fill="rgba(255,255,255,0.25)"/>
  <path d="M5.85938 13.3398Q4.99023 13.3398 4.34082 12.8125Q3.69141 12.2852 3.33496 11.3135Q2.97852 10.3418 2.97852 8.99414Q2.97852 7.64648 3.33496 6.6748Q3.69141 5.70312 4.34082 5.17578Q4.99023 4.64844 5.85938 4.64844Q6.72852 4.64844 7.37305 5.17578Q8.01758 5.70312 8.37891 6.6748Q8.74023 7.64648 8.74023 8.99414Q8.74023 10.3418 8.37891 11.3135Q8.01758 12.2852 7.37305 12.8125Q6.72852 13.3398 5.85938 13.3398ZM5.85938 12.1094Q6.5918 12.1094 7.00195 11.2744Q7.41211 10.4395 7.41211 8.99414Q7.41211 7.54883 6.99219 6.71387Q6.57227 5.87891 5.85938 5.87891Q5.13672 5.87891 4.72168 6.71387Q4.30664 7.54883 4.30664 8.99414Q4.30664 10.4395 4.72168 11.2744Q5.13672 12.1094 5.85938 12.1094ZM11.2402 13.2227Q10.9473 13.2227 10.752 13.0371Q10.5566 12.8516 10.5566 12.5684Q10.5566 12.2949 10.6738 12.0996L13.7891 6.06445L13.7891 5.98633L10.2637 5.98633Q9.99023 5.98633 9.83398 5.83496Q9.67773 5.68359 9.67773 5.42969Q9.67773 5.16602 9.83398 5.00977Q9.99023 4.85352 10.2637 4.85352L14.3164 4.85352Q14.7266 4.85352 14.9707 5.1123Q15.2148 5.37109 15.2148 5.73242Q15.2148 5.88867 15.1807 6.0498Q15.1465 6.21094 15.0195 6.45508L11.8848 12.7246Q11.748 12.9883 11.5967 13.1055Q11.4453 13.2227 11.2402 13.2227Z" fill="#ffffff"/>
 </g>
</svg>
