<?xml version="1.0" encoding="UTF-8"?>
<!--Generator: Apple Native CoreSVG 175.5-->
<!DOCTYPE svg
PUBLIC "-//W3C//DTD SVG 1.1//EN"
       "http://www.w3.org/Graphics/SVG/1.1/DTD/svg11.dtd">
<svg version="1.1" xmlns="http://www.w3.org/2000/svg" xmlns:xlink="http://www.w3.org/1999/xlink" width="19.9219" height="19.9316">
 <g>
  <rect height="19.9316" opacity="0" width="19.9219" x="0" y="0"/>
  <path d="M9.96094 19.9219Q12.002 19.9219 13.8037 19.1406Q15.6055 18.3594 16.9824 16.9824Q18.3594 15.6055 19.1406 13.8037Q19.9219 12.002 19.9219 9.96094Q19.9219 7.91992 19.1406 6.11816Q18.3594 4.31641 16.9824 2.93945Q15.6055 1.5625 13.7988 0.78125Q11.9922 0 9.95117 0Q7.91016 0 6.1084 0.78125Q4.30664 1.5625 2.93457 2.93945Q1.5625 4.31641 0.78125 6.11816Q0 7.91992 0 9.96094Q0 12.002 0.78125 13.8037Q1.5625 15.6055 2.93945 16.9824Q4.31641 18.3594 6.11816 19.1406Q7.91992 19.9219 9.96094 19.9219ZM9.96094 18.2617Q8.23242 18.2617 6.72852 17.6172Q5.22461 16.9727 4.08691 15.835Q2.94922 14.6973 2.30957 13.1934Q1.66992 11.6895 1.66992 9.96094Q1.66992 8.23242 2.30957 6.72852Q2.94922 5.22461 4.08203 4.08203Q5.21484 2.93945 6.71875 2.2998Q8.22266 1.66016 9.95117 1.66016Q11.6797 1.66016 13.1885 2.2998Q14.6973 2.93945 15.835 4.08203Q16.9727 5.22461 17.6172 6.72852Q18.2617 8.23242 18.2617 9.96094Q18.2617 11.6895 17.6221 13.1934Q16.9824 14.6973 15.8398 15.835Q14.6973 16.9727 13.1934 17.6172Q11.6895 18.2617 9.96094 18.2617Z" fill="rgba(255,255,255,0.5)"/>
  <path d="M7.90039 14.0527Q8.52539 14.0527 8.52539 13.4277L8.52539 6.51367Q8.52539 6.20117 8.33496 6.00586Q8.14453 5.81055 7.83203 5.81055Q7.59766 5.81055 7.41699 5.88867Q7.23633 5.9668 6.98242 6.14258L5.49805 7.1582Q5.16602 7.39258 5.16602 7.73438Q5.16602 7.97852 5.33691 8.14941Q5.50781 8.32031 5.72266 8.32031Q5.83984 8.32031 5.9375 8.2959Q6.03516 8.27148 6.20117 8.13477L7.24609 7.36328L7.30469 7.36328L7.30469 13.4277Q7.30469 14.0527 7.90039 14.0527ZM13.0176 14.0527Q13.6426 14.0527 13.6426 13.4277L13.6426 6.51367Q13.6426 6.20117 13.4521 6.00586Q13.2617 5.81055 12.9492 5.81055Q12.7148 5.81055 12.5342 5.88867Q12.3535 5.9668 12.0996 6.14258L10.6152 7.1582Q10.2832 7.39258 10.2832 7.73438Q10.2832 7.97852 10.459 8.14941Q10.6348 8.32031 10.8398 8.32031Q10.957 8.32031 11.0547 8.2959Q11.1523 8.27148 11.3184 8.13477L12.3633 7.36328L12.4219 7.36328L12.4219 13.4277Q12.4219 14.0527 13.0176 14.0527Z" fill="#ffffff"/>
 </g>
</svg>
