<?xml version="1.0" encoding="UTF-8"?>
<!--Generator: Apple Native CoreSVG 175.5-->
<!DOCTYPE svg
PUBLIC "-//W3C//DTD SVG 1.1//EN"
       "http://www.w3.org/Graphics/SVG/1.1/DTD/svg11.dtd">
<svg version="1.1" xmlns="http://www.w3.org/2000/svg" xmlns:xlink="http://www.w3.org/1999/xlink" width="17.9785" height="17.998">
 <g>
  <rect height="17.998" opacity="0" width="17.9785" x="0" y="0"/>
  <path d="M3.06641 17.998L14.9121 17.998Q16.4453 17.998 17.2119 17.2412Q17.9785 16.4844 17.9785 14.9707L17.9785 3.04688Q17.9785 1.5332 17.2119 0.776367Q16.4453 0.0195312 14.9121 0.0195312L3.06641 0.0195312Q1.5332 0.0195312 0.766602 0.776367Q0 1.5332 0 3.04688L0 14.9707Q0 16.4844 0.766602 17.2412Q1.5332 17.998 3.06641 17.998ZM3.08594 16.4258Q2.35352 16.4258 1.96289 16.04Q1.57227 15.6543 1.57227 14.8926L1.57227 3.125Q1.57227 2.36328 1.96289 1.97754Q2.35352 1.5918 3.08594 1.5918L14.8926 1.5918Q15.6152 1.5918 16.0107 1.97754Q16.4062 2.36328 16.4062 3.125L16.4062 14.8926Q16.4062 15.6543 16.0107 16.04Q15.6152 16.4258 14.8926 16.4258Z" fill="rgba(255,255,255,0.5)"/>
  <path d="M6.29883 13.0859Q6.92383 13.0859 6.92383 12.4609L6.92383 5.54688Q6.92383 5.23438 6.7334 5.03906Q6.54297 4.84375 6.23047 4.84375Q5.99609 4.84375 5.81543 4.92188Q5.63477 5 5.38086 5.17578L3.89648 6.19141Q3.56445 6.42578 3.56445 6.76758Q3.56445 7.01172 3.73535 7.18262Q3.90625 7.35352 4.12109 7.35352Q4.23828 7.35352 4.33594 7.3291Q4.43359 7.30469 4.59961 7.16797L5.64453 6.39648L5.70312 6.39648L5.70312 12.4609Q5.70312 13.0859 6.29883 13.0859ZM12.7051 13.1836Q12.998 13.1836 13.1494 12.998Q13.3008 12.8125 13.3008 12.5293L13.3008 11.377L13.8281 11.377Q14.3848 11.377 14.3848 10.8398Q14.3848 10.5762 14.2334 10.4297Q14.082 10.2832 13.8281 10.2832L13.3008 10.2832L13.3008 5.71289Q13.3008 5.29297 13.0322 5.03906Q12.7637 4.78516 12.334 4.78516Q11.9141 4.78516 11.6309 4.95605Q11.3477 5.12695 11.1035 5.53711Q10.8008 6.05469 10.4736 6.61133Q10.1465 7.16797 9.81934 7.72461Q9.49219 8.28125 9.19434 8.80371Q8.89648 9.32617 8.64258 9.76562Q8.52539 9.99023 8.48145 10.166Q8.4375 10.3418 8.4375 10.5469Q8.4375 10.9375 8.66699 11.1572Q8.89648 11.377 9.26758 11.377L12.1191 11.377L12.1191 12.5293Q12.1191 12.8125 12.2656 12.998Q12.4121 13.1836 12.7051 13.1836ZM12.1191 10.2832L9.70703 10.2832L9.70703 10.2441Q9.88281 9.91211 10.0977 9.5166Q10.3125 9.12109 10.5615 8.69141Q10.8105 8.26172 11.0693 7.81738Q11.3281 7.37305 11.582 6.93848Q11.8359 6.50391 12.0703 6.10352L12.1191 6.10352Z" fill="#ffffff"/>
 </g>
</svg>
