<?xml version="1.0" encoding="UTF-8"?>
<!--Generator: Apple Native CoreSVG 175.5-->
<!DOCTYPE svg
PUBLIC "-//W3C//DTD SVG 1.1//EN"
       "http://www.w3.org/Graphics/SVG/1.1/DTD/svg11.dtd">
<svg version="1.1" xmlns="http://www.w3.org/2000/svg" xmlns:xlink="http://www.w3.org/1999/xlink" width="19.9219" height="19.9316">
 <g>
  <rect height="19.9316" opacity="0" width="19.9219" x="0" y="0"/>
  <path d="M9.96094 19.9219Q12.002 19.9219 13.8037 19.1406Q15.6055 18.3594 16.9824 16.9824Q18.3594 15.6055 19.1406 13.8037Q19.9219 12.002 19.9219 9.96094Q19.9219 7.91992 19.1406 6.11816Q18.3594 4.31641 16.9824 2.93945Q15.6055 1.5625 13.7988 0.78125Q11.9922 0 9.95117 0Q7.91016 0 6.1084 0.78125Q4.30664 1.5625 2.93457 2.93945Q1.5625 4.31641 0.78125 6.11816Q0 7.91992 0 9.96094Q0 12.002 0.78125 13.8037Q1.5625 15.6055 2.93945 16.9824Q4.31641 18.3594 6.11816 19.1406Q7.91992 19.9219 9.96094 19.9219ZM9.96094 18.2617Q8.23242 18.2617 6.72852 17.6172Q5.22461 16.9727 4.08691 15.835Q2.94922 14.6973 2.30957 13.1934Q1.66992 11.6895 1.66992 9.96094Q1.66992 8.23242 2.30957 6.72852Q2.94922 5.22461 4.08203 4.08203Q5.21484 2.93945 6.71875 2.2998Q8.22266 1.66016 9.95117 1.66016Q11.6797 1.66016 13.1885 2.2998Q14.6973 2.93945 15.835 4.08203Q16.9727 5.22461 17.6172 6.72852Q18.2617 8.23242 18.2617 9.96094Q18.2617 11.6895 17.6221 13.1934Q16.9824 14.6973 15.8398 15.835Q14.6973 16.9727 13.1934 17.6172Q11.6895 18.2617 9.96094 18.2617Z" fill="rgba(255,255,255,0.5)"/>
  <path d="M7.03125 14.0527Q7.65625 14.0527 7.65625 13.4277L7.65625 6.51367Q7.65625 6.20117 7.46582 6.00586Q7.27539 5.81055 6.96289 5.81055Q6.72852 5.81055 6.54785 5.88867Q6.36719 5.9668 6.11328 6.14258L4.62891 7.1582Q4.29688 7.39258 4.29688 7.73438Q4.29688 7.97852 4.46777 8.14941Q4.63867 8.32031 4.85352 8.32031Q4.9707 8.32031 5.06836 8.2959Q5.16602 8.27148 5.33203 8.13477L6.37695 7.36328L6.43555 7.36328L6.43555 13.4277Q6.43555 14.0527 7.03125 14.0527ZM12.373 14.1797Q13.5645 14.1797 14.3262 13.4326Q15.0879 12.6855 15.0879 11.3477Q15.0879 10.0879 14.3555 9.41406Q13.623 8.74023 12.666 8.74023Q11.8945 8.74023 11.4062 9.11621Q10.918 9.49219 10.7324 9.9707L10.6641 9.9707Q10.6641 9.95117 10.6641 9.93164Q10.6641 9.91211 10.6641 9.88281Q10.6641 8.49609 11.1719 7.68555Q11.6797 6.875 12.5098 6.875Q12.9297 6.875 13.2275 7.06055Q13.5254 7.24609 13.7109 7.5293Q13.8379 7.71484 13.9648 7.80273Q14.0918 7.89062 14.2969 7.89062Q14.502 7.89062 14.6387 7.74414Q14.7754 7.59766 14.7754 7.35352Q14.7754 7.16797 14.707 6.98242Q14.5801 6.66016 14.2871 6.37695Q13.9941 6.09375 13.5547 5.92285Q13.1152 5.75195 12.5586 5.75195Q11.1523 5.75195 10.3369 6.85547Q9.52148 7.95898 9.52148 10.1855Q9.52148 11.0742 9.6582 11.7383Q9.79492 12.4023 10.0391 12.8613Q10.4199 13.5645 11.0254 13.8721Q11.6309 14.1797 12.373 14.1797ZM12.3145 13.1055Q11.6406 13.1055 11.2061 12.627Q10.7715 12.1484 10.7715 11.3867Q10.7715 10.6641 11.2012 10.2051Q11.6309 9.74609 12.3242 9.74609Q13.0078 9.74609 13.4326 10.2051Q13.8574 10.6641 13.8574 11.3965Q13.8574 12.1777 13.4424 12.6416Q13.0273 13.1055 12.3145 13.1055Z" fill="#ffffff"/>
 </g>
</svg>
