<?xml version="1.0" encoding="UTF-8"?>
<!--Generator: Apple Native CoreSVG 175.5-->
<!DOCTYPE svg
PUBLIC "-//W3C//DTD SVG 1.1//EN"
       "http://www.w3.org/Graphics/SVG/1.1/DTD/svg11.dtd">
<svg version="1.1" xmlns="http://www.w3.org/2000/svg" xmlns:xlink="http://www.w3.org/1999/xlink" width="17.9785" height="17.998">
 <g>
  <rect height="17.998" opacity="0" width="17.9785" x="0" y="0"/>
  <path d="M3.06641 17.998L14.9121 17.998Q16.4453 17.998 17.2119 17.2412Q17.9785 16.4844 17.9785 14.9707L17.9785 3.04688Q17.9785 1.5332 17.2119 0.776367Q16.4453 0.0195312 14.9121 0.0195312L3.06641 0.0195312Q1.5332 0.0195312 0.766602 0.776367Q0 1.5332 0 3.04688L0 14.9707Q0 16.4844 0.766602 17.2412Q1.5332 17.998 3.06641 17.998ZM3.08594 16.4258Q2.35352 16.4258 1.96289 16.04Q1.57227 15.6543 1.57227 14.8926L1.57227 3.125Q1.57227 2.36328 1.96289 1.97754Q2.35352 1.5918 3.08594 1.5918L14.8926 1.5918Q15.6152 1.5918 16.0107 1.97754Q16.4062 2.36328 16.4062 3.125L16.4062 14.8926Q16.4062 15.6543 16.0107 16.04Q15.6152 16.4258 14.8926 16.4258Z" fill="rgba(255,255,255,0.5)"/>
  <path d="M3.98438 12.9785L8.02734 12.9785Q8.26172 12.9785 8.41309 12.8174Q8.56445 12.6562 8.56445 12.3926Q8.56445 12.1289 8.41309 11.9775Q8.26172 11.8262 8.02734 11.8262L5.18555 11.8262L5.18555 11.7578L7.09961 9.53125Q7.64648 8.90625 8.00293 8.3252Q8.35938 7.74414 8.35938 7.01172Q8.35938 5.99609 7.6709 5.39062Q6.98242 4.78516 5.83008 4.78516Q4.96094 4.78516 4.26758 5.2832Q3.57422 5.78125 3.38867 6.52344Q3.36914 6.62109 3.35449 6.7041Q3.33984 6.78711 3.33984 6.875Q3.33984 7.13867 3.48633 7.2998Q3.63281 7.46094 3.88672 7.46094Q4.0918 7.46094 4.21875 7.33887Q4.3457 7.2168 4.44336 7.00195Q4.62891 6.45508 4.99512 6.18164Q5.36133 5.9082 5.87891 5.9082Q6.47461 5.9082 6.82617 6.24023Q7.17773 6.57227 7.17773 7.11914Q7.17773 7.59766 6.86523 8.01758Q6.55273 8.4375 6.20117 8.84766L3.62305 11.875Q3.41797 12.1094 3.41797 12.4023Q3.41797 12.666 3.56934 12.8223Q3.7207 12.9785 3.98438 12.9785ZM10.4688 12.9785L14.5117 12.9785Q14.7363 12.9785 14.8926 12.8174Q15.0488 12.6562 15.0488 12.3926Q15.0488 12.1289 14.8926 11.9775Q14.7363 11.8262 14.5117 11.8262L11.6699 11.8262L11.6699 11.7578L13.584 9.53125Q14.1211 8.90625 14.4824 8.3252Q14.8438 7.74414 14.8438 7.01172Q14.8438 5.99609 14.1553 5.39062Q13.4668 4.78516 12.3145 4.78516Q11.4453 4.78516 10.752 5.2832Q10.0586 5.78125 9.86328 6.52344Q9.85352 6.62109 9.83887 6.7041Q9.82422 6.78711 9.82422 6.875Q9.82422 7.13867 9.9707 7.2998Q10.1172 7.46094 10.3711 7.46094Q10.5762 7.46094 10.7031 7.33887Q10.8301 7.2168 10.9277 7.00195Q11.1133 6.45508 11.4746 6.18164Q11.8359 5.9082 12.3633 5.9082Q12.959 5.9082 13.3105 6.24023Q13.6621 6.57227 13.6621 7.11914Q13.6621 7.59766 13.3496 8.01758Q13.0371 8.4375 12.6855 8.84766L10.1074 11.875Q9.89258 12.1094 9.89258 12.4023Q9.89258 12.666 10.0488 12.8223Q10.2051 12.9785 10.4688 12.9785Z" fill="#ffffff"/>
 </g>
</svg>
