<?xml version="1.0" encoding="UTF-8"?>
<!--Generator: Apple Native CoreSVG 175.5-->
<!DOCTYPE svg
PUBLIC "-//W3C//DTD SVG 1.1//EN"
       "http://www.w3.org/Graphics/SVG/1.1/DTD/svg11.dtd">
<svg version="1.1" xmlns="http://www.w3.org/2000/svg" xmlns:xlink="http://www.w3.org/1999/xlink" width="19.9219" height="19.9316">
 <g>
  <rect height="19.9316" opacity="0" width="19.9219" x="0" y="0"/>
  <path d="M9.96094 19.9219Q12.002 19.9219 13.8037 19.1406Q15.6055 18.3594 16.9824 16.9824Q18.3594 15.6055 19.1406 13.8037Q19.9219 12.002 19.9219 9.96094Q19.9219 7.91992 19.1406 6.11816Q18.3594 4.31641 16.9824 2.93945Q15.6055 1.5625 13.7988 0.78125Q11.9922 0 9.95117 0Q7.91016 0 6.1084 0.78125Q4.30664 1.5625 2.93457 2.93945Q1.5625 4.31641 0.78125 6.11816Q0 7.91992 0 9.96094Q0 12.002 0.78125 13.8037Q1.5625 15.6055 2.93945 16.9824Q4.31641 18.3594 6.11816 19.1406Q7.91992 19.9219 9.96094 19.9219ZM9.96094 18.2617Q8.23242 18.2617 6.72852 17.6172Q5.22461 16.9727 4.08691 15.835Q2.94922 14.6973 2.30957 13.1934Q1.66992 11.6895 1.66992 9.96094Q1.66992 8.23242 2.30957 6.72852Q2.94922 5.22461 4.08203 4.08203Q5.21484 2.93945 6.71875 2.2998Q8.22266 1.66016 9.95117 1.66016Q11.6797 1.66016 13.1885 2.2998Q14.6973 2.93945 15.835 4.08203Q16.9727 5.22461 17.6172 6.72852Q18.2617 8.23242 18.2617 9.96094Q18.2617 11.6895 17.6221 13.1934Q16.9824 14.6973 15.8398 15.835Q14.6973 16.9727 13.1934 17.6172Q11.6895 18.2617 9.96094 18.2617Z" fill="rgba(255,255,255,0.5)"/>
  <path d="M4.92188 13.9453L8.96484 13.9453Q9.19922 13.9453 9.35059 13.7842Q9.50195 13.623 9.50195 13.3594Q9.50195 13.0957 9.35059 12.9443Q9.19922 12.793 8.96484 12.793L6.12305 12.793L6.12305 12.7246L8.03711 10.498Q8.58398 9.87305 8.94043 9.29199Q9.29688 8.71094 9.29688 7.97852Q9.29688 6.96289 8.6084 6.35742Q7.91992 5.75195 6.76758 5.75195Q5.89844 5.75195 5.20508 6.25Q4.51172 6.74805 4.32617 7.49023Q4.30664 7.58789 4.29199 7.6709Q4.27734 7.75391 4.27734 7.8418Q4.27734 8.10547 4.42383 8.2666Q4.57031 8.42773 4.82422 8.42773Q5.0293 8.42773 5.15625 8.30566Q5.2832 8.18359 5.38086 7.96875Q5.56641 7.42188 5.93262 7.14844Q6.29883 6.875 6.81641 6.875Q7.41211 6.875 7.76367 7.20703Q8.11523 7.53906 8.11523 8.08594Q8.11523 8.56445 7.80273 8.98438Q7.49023 9.4043 7.13867 9.81445L4.56055 12.8418Q4.35547 13.0762 4.35547 13.3691Q4.35547 13.6328 4.50684 13.7891Q4.6582 13.9453 4.92188 13.9453ZM13.3496 14.1699Q14.5898 14.1699 15.376 13.4961Q16.1621 12.8223 16.1621 11.7676Q16.1621 10.9863 15.6787 10.4248Q15.1953 9.86328 14.4629 9.79492L14.4629 9.73633Q15.0684 9.63867 15.4834 9.09668Q15.8984 8.55469 15.8984 7.87109Q15.8984 6.93359 15.2051 6.34277Q14.5117 5.75195 13.418 5.75195Q12.4219 5.75195 11.7383 6.25Q11.0547 6.74805 10.8594 7.46094Q10.8398 7.59766 10.8398 7.8125Q10.8398 8.07617 10.9912 8.24219Q11.1426 8.4082 11.3965 8.4082Q11.6113 8.4082 11.7383 8.29102Q11.8652 8.17383 11.9336 7.93945Q12.0996 7.42188 12.4561 7.14844Q12.8125 6.875 13.3887 6.875Q13.9648 6.875 14.3311 7.19238Q14.6973 7.50977 14.6973 8.02734Q14.6973 8.56445 14.3311 8.91113Q13.9648 9.25781 13.3789 9.25781L12.8516 9.25781Q12.6172 9.25781 12.4658 9.41406Q12.3145 9.57031 12.3145 9.83398Q12.3145 10.0684 12.4609 10.2295Q12.6074 10.3906 12.8516 10.3906L13.4277 10.3906Q14.1211 10.3906 14.5361 10.752Q14.9512 11.1133 14.9512 11.709Q14.9512 12.2754 14.5068 12.6611Q14.0625 13.0469 13.3594 13.0469Q12.7832 13.0469 12.3877 12.7686Q11.9922 12.4902 11.7969 11.9824Q11.6211 11.5137 11.2402 11.5137Q10.9961 11.5137 10.835 11.6797Q10.6738 11.8457 10.6738 12.0996Q10.6738 12.207 10.6836 12.2852Q10.6934 12.3633 10.7227 12.4609Q10.918 13.1348 11.6357 13.6523Q12.3535 14.1699 13.3496 14.1699Z" fill="#ffffff"/>
 </g>
</svg>
