<?xml version="1.0" encoding="UTF-8"?>
<!--Generator: Apple Native CoreSVG 175.5-->
<!DOCTYPE svg
PUBLIC "-//W3C//DTD SVG 1.1//EN"
       "http://www.w3.org/Graphics/SVG/1.1/DTD/svg11.dtd">
<svg version="1.1" xmlns="http://www.w3.org/2000/svg" xmlns:xlink="http://www.w3.org/1999/xlink" width="19.9219" height="19.9316">
 <g>
  <rect height="19.9316" opacity="0" width="19.9219" x="0" y="0"/>
  <path d="M9.96094 19.9219Q12.002 19.9219 13.8037 19.1406Q15.6055 18.3594 16.9824 16.9824Q18.3594 15.6055 19.1406 13.8037Q19.9219 12.002 19.9219 9.96094Q19.9219 7.91992 19.1406 6.11816Q18.3594 4.31641 16.9824 2.93945Q15.6055 1.5625 13.7988 0.78125Q11.9922 0 9.95117 0Q7.91016 0 6.1084 0.78125Q4.30664 1.5625 2.93457 2.93945Q1.5625 4.31641 0.78125 6.11816Q0 7.91992 0 9.96094Q0 12.002 0.78125 13.8037Q1.5625 15.6055 2.93945 16.9824Q4.31641 18.3594 6.11816 19.1406Q7.91992 19.9219 9.96094 19.9219Z" fill="rgba(255,255,255,0.25)"/>
  <path d="M4.77539 14.0723Q4.51172 14.0723 4.35059 13.9062Q4.18945 13.7402 4.18945 13.4766Q4.18945 13.1543 4.4043 12.9297L7.06055 9.80469Q7.42188 9.38477 7.74414 8.95508Q8.06641 8.52539 8.06641 8.02734Q8.06641 7.4707 7.7002 7.12891Q7.33398 6.78711 6.72852 6.78711Q6.19141 6.78711 5.82031 7.06543Q5.44922 7.34375 5.25391 7.91016Q5.14648 8.13477 5.01953 8.25684Q4.89258 8.37891 4.67773 8.37891Q4.41406 8.37891 4.2627 8.21289Q4.11133 8.04688 4.11133 7.77344Q4.11133 7.68555 4.12598 7.59766Q4.14062 7.50977 4.16016 7.41211Q4.35547 6.64062 5.06836 6.12793Q5.78125 5.61523 6.67969 5.61523Q7.87109 5.61523 8.5791 6.24023Q9.28711 6.86523 9.28711 7.91992Q9.28711 8.67188 8.91602 9.26758Q8.54492 9.86328 7.98828 10.5176L6.02539 12.8027L6.02539 12.8809L8.94531 12.8809Q9.17969 12.8809 9.34082 13.0322Q9.50195 13.1836 9.50195 13.4668Q9.50195 13.7402 9.34082 13.9062Q9.17969 14.0723 8.94531 14.0723ZM13.4668 14.3066Q12.4414 14.3066 11.6992 13.7695Q10.957 13.2324 10.752 12.5391Q10.7227 12.4414 10.7129 12.3584Q10.7031 12.2754 10.7031 12.168Q10.7031 11.9043 10.8691 11.7334Q11.0352 11.5625 11.2891 11.5625Q11.6895 11.5625 11.8652 12.041Q12.0703 12.5684 12.4756 12.8516Q12.8809 13.1348 13.4766 13.1348Q14.1992 13.1348 14.6582 12.7441Q15.1172 12.3535 15.1172 11.7676Q15.1172 11.1523 14.6875 10.7812Q14.2578 10.4102 13.5449 10.4102L12.959 10.4102Q12.7051 10.4102 12.5537 10.2441Q12.4023 10.0781 12.4023 9.83398Q12.4023 9.56055 12.5537 9.39453Q12.7051 9.22852 12.959 9.22852L13.4961 9.22852Q14.0918 9.22852 14.4727 8.87207Q14.8535 8.51562 14.8535 7.96875Q14.8535 7.44141 14.4775 7.11426Q14.1016 6.78711 13.5059 6.78711Q12.9199 6.78711 12.5537 7.07031Q12.1875 7.35352 12.0117 7.88086Q11.9336 8.125 11.8066 8.24219Q11.6797 8.35938 11.4551 8.35938Q11.1914 8.35938 11.0352 8.18848Q10.8789 8.01758 10.8789 7.74414Q10.8789 7.51953 10.8984 7.38281Q11.1035 6.64062 11.8066 6.12793Q12.5098 5.61523 13.5352 5.61523Q14.668 5.61523 15.3809 6.22559Q16.0938 6.83594 16.0938 7.80273Q16.0938 8.51562 15.6641 9.07227Q15.2344 9.62891 14.6191 9.72656L14.6191 9.78516Q15.3809 9.86328 15.874 10.4395Q16.3672 11.0156 16.3672 11.8262Q16.3672 12.9102 15.5566 13.6084Q14.7461 14.3066 13.4668 14.3066Z" fill="#ffffff"/>
 </g>
</svg>
