<?xml version="1.0" encoding="UTF-8"?>
<!--Generator: Apple Native CoreSVG 175.5-->
<!DOCTYPE svg
PUBLIC "-//W3C//DTD SVG 1.1//EN"
       "http://www.w3.org/Graphics/SVG/1.1/DTD/svg11.dtd">
<svg version="1.1" xmlns="http://www.w3.org/2000/svg" xmlns:xlink="http://www.w3.org/1999/xlink" width="19.9219" height="19.9316">
 <g>
  <rect height="19.9316" opacity="0" width="19.9219" x="0" y="0"/>
  <path d="M9.96094 19.9219Q12.002 19.9219 13.8037 19.1406Q15.6055 18.3594 16.9824 16.9824Q18.3594 15.6055 19.1406 13.8037Q19.9219 12.002 19.9219 9.96094Q19.9219 7.91992 19.1406 6.11816Q18.3594 4.31641 16.9824 2.93945Q15.6055 1.5625 13.7988 0.78125Q11.9922 0 9.95117 0Q7.91016 0 6.1084 0.78125Q4.30664 1.5625 2.93457 2.93945Q1.5625 4.31641 0.78125 6.11816Q0 7.91992 0 9.96094Q0 12.002 0.78125 13.8037Q1.5625 15.6055 2.93945 16.9824Q4.31641 18.3594 6.11816 19.1406Q7.91992 19.9219 9.96094 19.9219Z" fill="rgba(255,255,255,0.25)"/>
  <path d="M4.60938 14.0723Q4.3457 14.0723 4.18457 13.9062Q4.02344 13.7402 4.02344 13.4766Q4.02344 13.3203 4.07227 13.1885Q4.12109 13.0566 4.23828 12.9297L6.89453 9.80469Q7.25586 9.38477 7.57812 8.95508Q7.90039 8.52539 7.90039 8.02734Q7.90039 7.4707 7.53418 7.12891Q7.16797 6.78711 6.5625 6.78711Q6.02539 6.78711 5.6543 7.06543Q5.2832 7.34375 5.08789 7.91016Q4.98047 8.13477 4.85352 8.25684Q4.72656 8.37891 4.51172 8.37891Q4.24805 8.37891 4.09668 8.21289Q3.94531 8.04688 3.94531 7.77344Q3.94531 7.68555 3.95996 7.59766Q3.97461 7.50977 3.99414 7.41211Q4.18945 6.64062 4.90234 6.12793Q5.61523 5.61523 6.51367 5.61523Q7.70508 5.61523 8.41309 6.24023Q9.12109 6.86523 9.12109 7.91992Q9.12109 8.67188 8.75 9.26758Q8.37891 9.86328 7.82227 10.5176L5.85938 12.8027L5.85938 12.8809L8.7793 12.8809Q9.01367 12.8809 9.1748 13.0322Q9.33594 13.1836 9.33594 13.4668Q9.33594 13.7402 9.1748 13.9062Q9.01367 14.0723 8.7793 14.0723ZM13.4082 14.3164Q12.6367 14.3164 12.0166 13.999Q11.3965 13.6816 11.0059 12.9492Q10.752 12.4805 10.6055 11.7969Q10.459 11.1133 10.459 10.1953Q10.459 7.89062 11.3037 6.75293Q12.1484 5.61523 13.6035 5.61523Q14.1699 5.61523 14.624 5.79102Q15.0781 5.9668 15.3809 6.25977Q15.6836 6.55273 15.8105 6.88477Q15.8887 7.08008 15.8887 7.27539Q15.8887 7.5293 15.7422 7.68066Q15.5957 7.83203 15.3906 7.83203Q15.1758 7.83203 15.0439 7.73926Q14.9121 7.64648 14.7852 7.45117Q14.5898 7.1582 14.2871 6.97266Q13.9844 6.78711 13.5547 6.78711Q12.7051 6.78711 12.1777 7.61719Q11.6504 8.44727 11.6504 9.87305Q11.6504 9.90234 11.6504 9.92676Q11.6504 9.95117 11.6504 9.9707L11.7285 9.9707Q11.9043 9.47266 12.4072 9.08691Q12.9102 8.70117 13.7207 8.70117Q14.375 8.70117 14.9414 9.01367Q15.5078 9.32617 15.8594 9.92188Q16.2109 10.5176 16.2109 11.3867Q16.2109 12.7734 15.4199 13.5449Q14.6289 14.3164 13.4082 14.3164ZM13.3496 13.2031Q14.082 13.2031 14.5117 12.7246Q14.9414 12.2461 14.9414 11.4453Q14.9414 10.6934 14.502 10.2197Q14.0625 9.74609 13.3496 9.74609Q12.6465 9.74609 12.207 10.2197Q11.7676 10.6934 11.7676 11.4355Q11.7676 12.2168 12.2119 12.71Q12.6562 13.2031 13.3496 13.2031Z" fill="#ffffff"/>
 </g>
</svg>
