<?xml version="1.0" encoding="UTF-8"?>
<!--Generator: Apple Native CoreSVG 175.5-->
<!DOCTYPE svg
PUBLIC "-//W3C//DTD SVG 1.1//EN"
       "http://www.w3.org/Graphics/SVG/1.1/DTD/svg11.dtd">
<svg version="1.1" xmlns="http://www.w3.org/2000/svg" xmlns:xlink="http://www.w3.org/1999/xlink" width="17.9785" height="17.998">
 <g>
  <rect height="17.998" opacity="0" width="17.9785" x="0" y="0"/>
  <path d="M3.06641 17.998L14.9121 17.998Q16.4453 17.998 17.2119 17.2412Q17.9785 16.4844 17.9785 14.9707L17.9785 3.04688Q17.9785 1.5332 17.2119 0.776367Q16.4453 0.0195312 14.9121 0.0195312L3.06641 0.0195312Q1.5332 0.0195312 0.766602 0.776367Q0 1.5332 0 3.04688L0 14.9707Q0 16.4844 0.766602 17.2412Q1.5332 17.998 3.06641 17.998Z" fill="rgba(255,255,255,0.25)"/>
  <path d="M3.64258 13.1055Q3.37891 13.1055 3.21777 12.9395Q3.05664 12.7734 3.05664 12.5098Q3.05664 12.3535 3.10547 12.2217Q3.1543 12.0898 3.27148 11.9629L5.92773 8.83789Q6.28906 8.41797 6.61133 7.98828Q6.93359 7.55859 6.93359 7.06055Q6.93359 6.50391 6.56738 6.16211Q6.20117 5.82031 5.5957 5.82031Q5.05859 5.82031 4.6875 6.09863Q4.31641 6.37695 4.12109 6.94336Q4.01367 7.16797 3.88672 7.29004Q3.75977 7.41211 3.54492 7.41211Q3.28125 7.41211 3.12988 7.24609Q2.97852 7.08008 2.97852 6.80664Q2.97852 6.71875 2.99316 6.63086Q3.00781 6.54297 3.02734 6.44531Q3.22266 5.67383 3.93555 5.16113Q4.64844 4.64844 5.54688 4.64844Q6.73828 4.64844 7.44629 5.27344Q8.1543 5.89844 8.1543 6.95312Q8.1543 7.70508 7.7832 8.30078Q7.41211 8.89648 6.85547 9.55078L4.89258 11.8359L4.89258 11.9141L7.8125 11.9141Q8.04688 11.9141 8.20801 12.0654Q8.36914 12.2168 8.36914 12.5Q8.36914 12.7734 8.20801 12.9395Q8.04688 13.1055 7.8125 13.1055ZM12.4414 13.3496Q11.6699 13.3496 11.0498 13.0322Q10.4297 12.7148 10.0391 11.9824Q9.78516 11.5137 9.63867 10.8301Q9.49219 10.1465 9.49219 9.22852Q9.49219 6.92383 10.3369 5.78613Q11.1816 4.64844 12.6367 4.64844Q13.2031 4.64844 13.6572 4.82422Q14.1113 5 14.4141 5.29297Q14.7168 5.58594 14.8438 5.91797Q14.9219 6.11328 14.9219 6.30859Q14.9219 6.5625 14.7754 6.71387Q14.6289 6.86523 14.4238 6.86523Q14.209 6.86523 14.0771 6.77246Q13.9453 6.67969 13.8184 6.48438Q13.623 6.19141 13.3203 6.00586Q13.0176 5.82031 12.5879 5.82031Q11.7383 5.82031 11.2109 6.65039Q10.6836 7.48047 10.6836 8.90625Q10.6836 8.93555 10.6836 8.95996Q10.6836 8.98438 10.6836 9.00391L10.7617 9.00391Q10.9375 8.50586 11.4404 8.12012Q11.9434 7.73438 12.7539 7.73438Q13.4082 7.73438 13.9746 8.04688Q14.541 8.35938 14.8926 8.95508Q15.2441 9.55078 15.2441 10.4199Q15.2441 11.8066 14.4531 12.5781Q13.6621 13.3496 12.4414 13.3496ZM12.3828 12.2363Q13.1152 12.2363 13.5449 11.7578Q13.9746 11.2793 13.9746 10.4785Q13.9746 9.72656 13.5352 9.25293Q13.0957 8.7793 12.3828 8.7793Q11.6797 8.7793 11.2402 9.25293Q10.8008 9.72656 10.8008 10.4688Q10.8008 11.25 11.2451 11.7432Q11.6895 12.2363 12.3828 12.2363Z" fill="#ffffff"/>
 </g>
</svg>
