<?xml version="1.0" encoding="UTF-8"?>
<!--Generator: Apple Native CoreSVG 175.5-->
<!DOCTYPE svg
PUBLIC "-//W3C//DTD SVG 1.1//EN"
       "http://www.w3.org/Graphics/SVG/1.1/DTD/svg11.dtd">
<svg version="1.1" xmlns="http://www.w3.org/2000/svg" xmlns:xlink="http://www.w3.org/1999/xlink" width="17.9785" height="17.998">
 <g>
  <rect height="17.998" opacity="0" width="17.9785" x="0" y="0"/>
  <path d="M3.06641 17.998L14.9121 17.998Q16.4453 17.998 17.2119 17.2412Q17.9785 16.4844 17.9785 14.9707L17.9785 3.04688Q17.9785 1.5332 17.2119 0.776367Q16.4453 0.0195312 14.9121 0.0195312L3.06641 0.0195312Q1.5332 0.0195312 0.766602 0.776367Q0 1.5332 0 3.04688L0 14.9707Q0 16.4844 0.766602 17.2412Q1.5332 17.998 3.06641 17.998ZM3.08594 16.4258Q2.35352 16.4258 1.96289 16.04Q1.57227 15.6543 1.57227 14.8926L1.57227 3.125Q1.57227 2.36328 1.96289 1.97754Q2.35352 1.5918 3.08594 1.5918L14.8926 1.5918Q15.6152 1.5918 16.0107 1.97754Q16.4062 2.36328 16.4062 3.125L16.4062 14.8926Q16.4062 15.6543 16.0107 16.04Q15.6152 16.4258 14.8926 16.4258Z" fill="rgba(255,255,255,0.5)"/>
  <path d="M8.92578 13.6426Q10.498 13.6426 11.4062 12.9004Q12.3145 12.1582 12.3145 11.0059Q12.3145 10.1465 11.7334 9.52637Q11.1523 8.90625 10.2637 8.82812L10.2637 8.75Q10.9961 8.64258 11.499 8.04688Q12.002 7.45117 12.002 6.67969Q12.002 5.66406 11.1621 5.00488Q10.3223 4.3457 9.01367 4.3457Q7.8125 4.3457 6.98242 4.8584Q6.15234 5.37109 5.95703 6.24023Q5.9375 6.34766 5.92285 6.43066Q5.9082 6.51367 5.9082 6.63086Q5.9082 6.91406 6.09863 7.09473Q6.28906 7.27539 6.58203 7.27539Q7.08008 7.27539 7.24609 6.76758Q7.41211 6.2207 7.85645 5.89844Q8.30078 5.57617 8.98438 5.57617Q9.7168 5.57617 10.1367 5.91797Q10.5566 6.25977 10.5566 6.85547Q10.5566 7.46094 10.1025 7.85645Q9.64844 8.25195 8.94531 8.25195L8.33008 8.25195Q8.06641 8.25195 7.89551 8.41797Q7.72461 8.58398 7.72461 8.85742Q7.72461 9.11133 7.89551 9.28223Q8.06641 9.45312 8.33008 9.45312L9.00391 9.45312Q9.83398 9.45312 10.3467 9.86816Q10.8594 10.2832 10.8594 10.9473Q10.8594 11.6016 10.3369 12.002Q9.81445 12.4023 8.95508 12.4023Q8.16406 12.4023 7.70508 12.0605Q7.24609 11.7188 7.07031 11.2109Q6.875 10.7129 6.39648 10.7129Q6.10352 10.7129 5.91309 10.8984Q5.72266 11.084 5.72266 11.377Q5.72266 11.5625 5.77148 11.748Q5.98633 12.5977 6.86035 13.1201Q7.73438 13.6426 8.92578 13.6426Z" fill="#ffffff"/>
 </g>
</svg>
