<?xml version="1.0" encoding="UTF-8"?>
<!--Generator: Apple Native CoreSVG 175.5-->
<!DOCTYPE svg
PUBLIC "-//W3C//DTD SVG 1.1//EN"
       "http://www.w3.org/Graphics/SVG/1.1/DTD/svg11.dtd">
<svg version="1.1" xmlns="http://www.w3.org/2000/svg" xmlns:xlink="http://www.w3.org/1999/xlink" width="19.9219" height="19.9316">
 <g>
  <rect height="19.9316" opacity="0" width="19.9219" x="0" y="0"/>
  <path d="M9.96094 19.9219Q12.002 19.9219 13.8037 19.1406Q15.6055 18.3594 16.9824 16.9824Q18.3594 15.6055 19.1406 13.8037Q19.9219 12.002 19.9219 9.96094Q19.9219 7.91992 19.1406 6.11816Q18.3594 4.31641 16.9824 2.93945Q15.6055 1.5625 13.7988 0.78125Q11.9922 0 9.95117 0Q7.91016 0 6.1084 0.78125Q4.30664 1.5625 2.93457 2.93945Q1.5625 4.31641 0.78125 6.11816Q0 7.91992 0 9.96094Q0 12.002 0.78125 13.8037Q1.5625 15.6055 2.93945 16.9824Q4.31641 18.3594 6.11816 19.1406Q7.91992 19.9219 9.96094 19.9219Z" fill="rgba(255,255,255,0.25)"/>
  <path d="M6.54297 14.2969Q5.51758 14.2969 4.78027 13.7598Q4.04297 13.2227 3.83789 12.5293Q3.80859 12.4316 3.79883 12.3486Q3.78906 12.2656 3.78906 12.1582Q3.78906 11.8945 3.9502 11.7236Q4.11133 11.5527 4.375 11.5527Q4.75586 11.5527 4.95117 12.0312Q5.15625 12.5586 5.55664 12.8418Q5.95703 13.125 6.55273 13.125Q7.27539 13.125 7.73438 12.7344Q8.19336 12.3438 8.19336 11.7578Q8.19336 11.1426 7.76367 10.7715Q7.33398 10.4004 6.63086 10.4004L6.03516 10.4004Q5.79102 10.4004 5.63477 10.2344Q5.47852 10.0684 5.47852 9.82422Q5.47852 9.55078 5.63477 9.38477Q5.79102 9.21875 6.03516 9.21875L6.57227 9.21875Q7.17773 9.21875 7.55371 8.8623Q7.92969 8.50586 7.92969 7.95898Q7.92969 7.43164 7.55859 7.10449Q7.1875 6.77734 6.58203 6.77734Q5.99609 6.77734 5.62988 7.06055Q5.26367 7.34375 5.08789 7.87109Q5.01953 8.11523 4.8877 8.23242Q4.75586 8.34961 4.53125 8.34961Q4.26758 8.34961 4.11133 8.17871Q3.95508 8.00781 3.95508 7.73438Q3.95508 7.50977 3.97461 7.37305Q4.17969 6.63086 4.8877 6.11816Q5.5957 5.60547 6.62109 5.60547Q7.74414 5.60547 8.46191 6.21582Q9.17969 6.82617 9.17969 7.79297Q9.17969 8.50586 8.75 9.0625Q8.32031 9.61914 7.69531 9.7168L7.69531 9.77539Q8.45703 9.85352 8.95508 10.4297Q9.45312 11.0059 9.45312 11.8164Q9.45312 12.9004 8.64258 13.5986Q7.83203 14.2969 6.54297 14.2969ZM13.3203 14.2969Q12.4512 14.2969 11.8066 13.7695Q11.1621 13.2422 10.8008 12.2705Q10.4395 11.2988 10.4395 9.95117Q10.4395 8.60352 10.8008 7.63184Q11.1621 6.66016 11.8066 6.13281Q12.4512 5.60547 13.3203 5.60547Q14.1895 5.60547 14.8389 6.13281Q15.4883 6.66016 15.8447 7.63184Q16.2012 8.60352 16.2012 9.95117Q16.2012 11.2988 15.8447 12.2705Q15.4883 13.2422 14.8389 13.7695Q14.1895 14.2969 13.3203 14.2969ZM13.3203 13.0664Q14.0527 13.0664 14.4678 12.2314Q14.8828 11.3965 14.8828 9.95117Q14.8828 8.50586 14.4629 7.6709Q14.043 6.83594 13.3203 6.83594Q12.6074 6.83594 12.1875 7.6709Q11.7676 8.50586 11.7676 9.95117Q11.7676 11.3965 12.1875 12.2314Q12.6074 13.0664 13.3203 13.0664Z" fill="#ffffff"/>
 </g>
</svg>
