<?xml version="1.0" encoding="UTF-8"?>
<!--Generator: Apple Native CoreSVG 175.5-->
<!DOCTYPE svg
PUBLIC "-//W3C//DTD SVG 1.1//EN"
       "http://www.w3.org/Graphics/SVG/1.1/DTD/svg11.dtd">
<svg version="1.1" xmlns="http://www.w3.org/2000/svg" xmlns:xlink="http://www.w3.org/1999/xlink" width="17.9785" height="17.998">
 <g>
  <rect height="17.998" opacity="0" width="17.9785" x="0" y="0"/>
  <path d="M3.06641 17.998L14.9121 17.998Q16.4453 17.998 17.2119 17.2412Q17.9785 16.4844 17.9785 14.9707L17.9785 3.04688Q17.9785 1.5332 17.2119 0.776367Q16.4453 0.0195312 14.9121 0.0195312L3.06641 0.0195312Q1.5332 0.0195312 0.766602 0.776367Q0 1.5332 0 3.04688L0 14.9707Q0 16.4844 0.766602 17.2412Q1.5332 17.998 3.06641 17.998ZM3.08594 16.4258Q2.35352 16.4258 1.96289 16.04Q1.57227 15.6543 1.57227 14.8926L1.57227 3.125Q1.57227 2.36328 1.96289 1.97754Q2.35352 1.5918 3.08594 1.5918L14.8926 1.5918Q15.6152 1.5918 16.0107 1.97754Q16.4062 2.36328 16.4062 3.125L16.4062 14.8926Q16.4062 15.6543 16.0107 16.04Q15.6152 16.4258 14.8926 16.4258Z" fill="rgba(255,255,255,0.5)"/>
  <path d="M5.64453 13.2031Q6.88477 13.2031 7.6709 12.5293Q8.45703 11.8555 8.45703 10.8008Q8.45703 10.0195 7.97363 9.45801Q7.49023 8.89648 6.75781 8.82812L6.75781 8.76953Q7.36328 8.67188 7.77832 8.12988Q8.19336 7.58789 8.19336 6.9043Q8.19336 5.9668 7.5 5.37598Q6.80664 4.78516 5.71289 4.78516Q4.7168 4.78516 4.0332 5.2832Q3.34961 5.78125 3.1543 6.49414Q3.13477 6.63086 3.13477 6.8457Q3.13477 7.10938 3.28613 7.27539Q3.4375 7.44141 3.69141 7.44141Q3.90625 7.44141 4.0332 7.32422Q4.16016 7.20703 4.22852 6.97266Q4.39453 6.45508 4.75098 6.18164Q5.10742 5.9082 5.68359 5.9082Q6.25977 5.9082 6.62598 6.22559Q6.99219 6.54297 6.99219 7.06055Q6.99219 7.59766 6.62598 7.94434Q6.25977 8.29102 5.67383 8.29102L5.14648 8.29102Q4.91211 8.29102 4.76074 8.44727Q4.60938 8.60352 4.60938 8.86719Q4.60938 9.10156 4.75586 9.2627Q4.90234 9.42383 5.14648 9.42383L5.72266 9.42383Q6.41602 9.42383 6.83105 9.78516Q7.24609 10.1465 7.24609 10.7422Q7.24609 11.3086 6.80176 11.6943Q6.35742 12.0801 5.6543 12.0801Q5.07812 12.0801 4.68262 11.8018Q4.28711 11.5234 4.0918 11.0156Q3.91602 10.5469 3.53516 10.5469Q3.29102 10.5469 3.12988 10.7129Q2.96875 10.8789 2.96875 11.1328Q2.96875 11.2402 2.97852 11.3184Q2.98828 11.3965 3.01758 11.4941Q3.21289 12.168 3.93066 12.6855Q4.64844 13.2031 5.64453 13.2031ZM13.6914 13.1836Q13.9844 13.1836 14.1357 12.998Q14.2871 12.8125 14.2871 12.5293L14.2871 11.377L14.8242 11.377Q15.3711 11.377 15.3711 10.8398Q15.3711 10.5762 15.2197 10.4297Q15.0684 10.2832 14.8242 10.2832L14.2871 10.2832L14.2871 5.71289Q14.2871 5.29297 14.0186 5.03906Q13.75 4.78516 13.3301 4.78516Q12.9004 4.78516 12.6172 4.95605Q12.334 5.12695 12.0996 5.53711Q11.7969 6.05469 11.4648 6.61133Q11.1328 7.16797 10.8105 7.72461Q10.4883 8.28125 10.1855 8.80371Q9.88281 9.32617 9.63867 9.76562Q9.52148 9.99023 9.47266 10.166Q9.42383 10.3418 9.42383 10.5469Q9.42383 10.9375 9.6582 11.1572Q9.89258 11.377 10.2637 11.377L13.1055 11.377L13.1055 12.5293Q13.1055 12.8125 13.2568 12.998Q13.4082 13.1836 13.6914 13.1836ZM13.1055 10.2832L10.7031 10.2832L10.7031 10.2441Q10.8691 9.91211 11.0889 9.5166Q11.3086 9.12109 11.5527 8.69141Q11.7969 8.26172 12.0557 7.81738Q12.3145 7.37305 12.5684 6.93848Q12.8223 6.50391 13.0566 6.10352L13.1055 6.10352Z" fill="#ffffff"/>
 </g>
</svg>
