<?xml version="1.0" encoding="UTF-8"?>
<!--Generator: Apple Native CoreSVG 175.5-->
<!DOCTYPE svg
PUBLIC "-//W3C//DTD SVG 1.1//EN"
       "http://www.w3.org/Graphics/SVG/1.1/DTD/svg11.dtd">
<svg version="1.1" xmlns="http://www.w3.org/2000/svg" xmlns:xlink="http://www.w3.org/1999/xlink" width="17.9785" height="17.998">
 <g>
  <rect height="17.998" opacity="0" width="17.9785" x="0" y="0"/>
  <path d="M3.06641 17.998L14.9121 17.998Q16.4453 17.998 17.2119 17.2412Q17.9785 16.4844 17.9785 14.9707L17.9785 3.04688Q17.9785 1.5332 17.2119 0.776367Q16.4453 0.0195312 14.9121 0.0195312L3.06641 0.0195312Q1.5332 0.0195312 0.766602 0.776367Q0 1.5332 0 3.04688L0 14.9707Q0 16.4844 0.766602 17.2412Q1.5332 17.998 3.06641 17.998Z" fill="rgba(255,255,255,0.25)"/>
  <path d="M5.53711 13.3398Q4.50195 13.3398 3.76465 12.8027Q3.02734 12.2656 2.82227 11.5723Q2.79297 11.4746 2.7832 11.3916Q2.77344 11.3086 2.77344 11.2012Q2.77344 10.9375 2.93945 10.7666Q3.10547 10.5957 3.35938 10.5957Q3.75977 10.5957 3.93555 11.0742Q4.14062 11.6016 4.54102 11.8848Q4.94141 12.168 5.54688 12.168Q6.26953 12.168 6.72363 11.7773Q7.17773 11.3867 7.17773 10.8008Q7.17773 10.1855 6.75293 9.81445Q6.32812 9.44336 5.61523 9.44336L5.01953 9.44336Q4.77539 9.44336 4.61914 9.27734Q4.46289 9.11133 4.46289 8.86719Q4.46289 8.59375 4.61914 8.42773Q4.77539 8.26172 5.01953 8.26172L5.56641 8.26172Q6.16211 8.26172 6.54297 7.90527Q6.92383 7.54883 6.92383 7.00195Q6.92383 6.47461 6.54785 6.14746Q6.17188 5.82031 5.57617 5.82031Q4.99023 5.82031 4.61914 6.10352Q4.24805 6.38672 4.08203 6.91406Q4.00391 7.1582 3.87695 7.27539Q3.75 7.39258 3.52539 7.39258Q3.25195 7.39258 3.0957 7.22168Q2.93945 7.05078 2.93945 6.77734Q2.93945 6.67969 2.94434 6.59668Q2.94922 6.51367 2.96875 6.41602Q3.16406 5.67383 3.87207 5.16113Q4.58008 4.64844 5.60547 4.64844Q6.73828 4.64844 7.45117 5.25879Q8.16406 5.86914 8.16406 6.83594Q8.16406 7.54883 7.73438 8.10547Q7.30469 8.66211 6.68945 8.75977L6.68945 8.81836Q7.45117 8.89648 7.94434 9.47266Q8.4375 10.0488 8.4375 10.8594Q8.4375 11.9434 7.62695 12.6416Q6.81641 13.3398 5.53711 13.3398ZM13.8379 13.3203Q13.5352 13.3203 13.3789 13.125Q13.2227 12.9297 13.2227 12.6367L13.2227 11.4551L10.3027 11.4551Q9.91211 11.4551 9.67285 11.2256Q9.43359 10.9961 9.43359 10.5957Q9.43359 10.3906 9.48242 10.2051Q9.53125 10.0195 9.6582 9.78516Q9.91211 9.32617 10.2197 8.79395Q10.5273 8.26172 10.8594 7.68555Q11.1914 7.10938 11.5283 6.5332Q11.8652 5.95703 12.1875 5.42969Q12.4316 5.00977 12.7246 4.8291Q13.0176 4.64844 13.457 4.64844Q13.8965 4.64844 14.1748 4.91211Q14.4531 5.17578 14.4531 5.61523L14.4531 10.3223L15 10.3223Q15.2539 10.3223 15.4102 10.4736Q15.5664 10.625 15.5664 10.8984Q15.5664 11.4551 15 11.4551L14.4531 11.4551L14.4531 12.6367Q14.4531 12.9395 14.2969 13.1299Q14.1406 13.3203 13.8379 13.3203ZM13.2227 10.3223L13.2227 6.01562L13.1738 6.01562Q12.9297 6.42578 12.6709 6.875Q12.4121 7.32422 12.1484 7.7832Q11.8848 8.24219 11.6309 8.68652Q11.377 9.13086 11.1523 9.53613Q10.9277 9.94141 10.752 10.2832L10.752 10.3223Z" fill="#ffffff"/>
 </g>
</svg>
