<?xml version="1.0" encoding="UTF-8"?>
<!--Generator: Apple Native CoreSVG 175.5-->
<!DOCTYPE svg
PUBLIC "-//W3C//DTD SVG 1.1//EN"
       "http://www.w3.org/Graphics/SVG/1.1/DTD/svg11.dtd">
<svg version="1.1" xmlns="http://www.w3.org/2000/svg" xmlns:xlink="http://www.w3.org/1999/xlink" width="19.9219" height="19.9316">
 <g>
  <rect height="19.9316" opacity="0" width="19.9219" x="0" y="0"/>
  <path d="M9.96094 19.9219Q12.002 19.9219 13.8037 19.1406Q15.6055 18.3594 16.9824 16.9824Q18.3594 15.6055 19.1406 13.8037Q19.9219 12.002 19.9219 9.96094Q19.9219 7.91992 19.1406 6.11816Q18.3594 4.31641 16.9824 2.93945Q15.6055 1.5625 13.7988 0.78125Q11.9922 0 9.95117 0Q7.91016 0 6.1084 0.78125Q4.30664 1.5625 2.93457 2.93945Q1.5625 4.31641 0.78125 6.11816Q0 7.91992 0 9.96094Q0 12.002 0.78125 13.8037Q1.5625 15.6055 2.93945 16.9824Q4.31641 18.3594 6.11816 19.1406Q7.91992 19.9219 9.96094 19.9219ZM9.96094 18.2617Q8.23242 18.2617 6.72852 17.6172Q5.22461 16.9727 4.08691 15.835Q2.94922 14.6973 2.30957 13.1934Q1.66992 11.6895 1.66992 9.96094Q1.66992 8.23242 2.30957 6.72852Q2.94922 5.22461 4.08203 4.08203Q5.21484 2.93945 6.71875 2.2998Q8.22266 1.66016 9.95117 1.66016Q11.6797 1.66016 13.1885 2.2998Q14.6973 2.93945 15.835 4.08203Q16.9727 5.22461 17.6172 6.72852Q18.2617 8.23242 18.2617 9.96094Q18.2617 11.6895 17.6221 13.1934Q16.9824 14.6973 15.8398 15.835Q14.6973 16.9727 13.1934 17.6172Q11.6895 18.2617 9.96094 18.2617Z" fill="rgba(255,255,255,0.5)"/>
  <path d="M6.72852 14.1699Q7.96875 14.1699 8.75488 13.4961Q9.54102 12.8223 9.54102 11.7676Q9.54102 10.9863 9.05762 10.4248Q8.57422 9.86328 7.8418 9.79492L7.8418 9.73633Q8.44727 9.63867 8.8623 9.09668Q9.27734 8.55469 9.27734 7.87109Q9.27734 6.93359 8.58398 6.34277Q7.89062 5.75195 6.79688 5.75195Q5.80078 5.75195 5.11719 6.25Q4.43359 6.74805 4.23828 7.46094Q4.21875 7.59766 4.21875 7.8125Q4.21875 8.07617 4.37012 8.24219Q4.52148 8.4082 4.77539 8.4082Q4.99023 8.4082 5.11719 8.29102Q5.24414 8.17383 5.3125 7.93945Q5.47852 7.42188 5.83496 7.14844Q6.19141 6.875 6.76758 6.875Q7.34375 6.875 7.70996 7.19238Q8.07617 7.50977 8.07617 8.02734Q8.07617 8.56445 7.70996 8.91113Q7.34375 9.25781 6.75781 9.25781L6.23047 9.25781Q5.99609 9.25781 5.84473 9.41406Q5.69336 9.57031 5.69336 9.83398Q5.69336 10.0684 5.83984 10.2295Q5.98633 10.3906 6.23047 10.3906L6.80664 10.3906Q7.5 10.3906 7.91504 10.752Q8.33008 11.1133 8.33008 11.709Q8.33008 12.2754 7.88574 12.6611Q7.44141 13.0469 6.73828 13.0469Q6.16211 13.0469 5.7666 12.7686Q5.37109 12.4902 5.17578 11.9824Q5 11.5137 4.61914 11.5137Q4.375 11.5137 4.21387 11.6797Q4.05273 11.8457 4.05273 12.0996Q4.05273 12.207 4.0625 12.2852Q4.07227 12.3633 4.10156 12.4609Q4.29688 13.1348 5.01465 13.6523Q5.73242 14.1699 6.72852 14.1699ZM13.2715 14.1699Q14.5605 14.1699 15.3516 13.4277Q16.1426 12.6855 16.1426 11.3965Q16.1426 10.2734 15.4443 9.53613Q14.7461 8.79883 13.6133 8.79883Q13.125 8.79883 12.6562 9.01367Q12.1875 9.22852 11.9629 9.56055L11.9238 9.56055L12.1094 7.05078L15.3418 7.05078Q15.5469 7.05078 15.6836 6.89453Q15.8203 6.73828 15.8203 6.50391Q15.8203 6.26953 15.6885 6.11328Q15.5566 5.95703 15.3418 5.95703L11.9824 5.95703Q11.6016 5.95703 11.3623 6.18164Q11.123 6.40625 11.1035 6.78711L10.8594 9.83398Q10.8301 10.2148 11.0205 10.4443Q11.2109 10.6738 11.543 10.6738Q11.7676 10.6738 11.9385 10.6055Q12.1094 10.5371 12.3438 10.3418Q12.6465 10.0781 12.9053 9.96094Q13.1641 9.84375 13.4863 9.84375Q14.1309 9.84375 14.5312 10.2979Q14.9316 10.752 14.9316 11.4258Q14.9316 12.1875 14.4873 12.627Q14.043 13.0664 13.3398 13.0664Q12.8418 13.0664 12.4365 12.8174Q12.0312 12.5684 11.8164 12.1289Q11.709 11.9141 11.5674 11.8115Q11.4258 11.709 11.2598 11.709Q11.0156 11.709 10.8643 11.8701Q10.7129 12.0312 10.7129 12.2754Q10.7129 12.3926 10.7324 12.5049Q10.752 12.6172 10.791 12.7148Q11.0156 13.3203 11.6846 13.7451Q12.3535 14.1699 13.2715 14.1699Z" fill="#ffffff"/>
 </g>
</svg>
