<?xml version="1.0" encoding="UTF-8"?>
<!--Generator: Apple Native CoreSVG 175.5-->
<!DOCTYPE svg
PUBLIC "-//W3C//DTD SVG 1.1//EN"
       "http://www.w3.org/Graphics/SVG/1.1/DTD/svg11.dtd">
<svg version="1.1" xmlns="http://www.w3.org/2000/svg" xmlns:xlink="http://www.w3.org/1999/xlink" width="19.9219" height="19.9316">
 <g>
  <rect height="19.9316" opacity="0" width="19.9219" x="0" y="0"/>
  <path d="M9.96094 19.9219Q12.002 19.9219 13.8037 19.1406Q15.6055 18.3594 16.9824 16.9824Q18.3594 15.6055 19.1406 13.8037Q19.9219 12.002 19.9219 9.96094Q19.9219 7.91992 19.1406 6.11816Q18.3594 4.31641 16.9824 2.93945Q15.6055 1.5625 13.7988 0.78125Q11.9922 0 9.95117 0Q7.91016 0 6.1084 0.78125Q4.30664 1.5625 2.93457 2.93945Q1.5625 4.31641 0.78125 6.11816Q0 7.91992 0 9.96094Q0 12.002 0.78125 13.8037Q1.5625 15.6055 2.93945 16.9824Q4.31641 18.3594 6.11816 19.1406Q7.91992 19.9219 9.96094 19.9219Z" fill="rgba(255,255,255,0.25)"/>
  <path d="M6.63086 14.3066Q5.60547 14.3066 4.86328 13.7695Q4.12109 13.2324 3.92578 12.5391Q3.89648 12.4414 3.88184 12.3584Q3.86719 12.2754 3.86719 12.168Q3.86719 11.9043 4.0332 11.7334Q4.19922 11.5625 4.46289 11.5625Q4.84375 11.5625 5.03906 12.041Q5.23438 12.5684 5.63965 12.8516Q6.04492 13.1348 6.64062 13.1348Q7.36328 13.1348 7.82227 12.7441Q8.28125 12.3535 8.28125 11.7676Q8.28125 11.1523 7.85156 10.7812Q7.42188 10.4102 6.70898 10.4102L6.12305 10.4102Q5.87891 10.4102 5.72266 10.2441Q5.56641 10.0781 5.56641 9.83398Q5.56641 9.56055 5.72266 9.39453Q5.87891 9.22852 6.12305 9.22852L6.66016 9.22852Q7.26562 9.22852 7.6416 8.87207Q8.01758 8.51562 8.01758 7.96875Q8.01758 7.44141 7.64648 7.11426Q7.27539 6.78711 6.66992 6.78711Q6.08398 6.78711 5.71777 7.07031Q5.35156 7.35352 5.17578 7.88086Q5.10742 8.125 4.97559 8.24219Q4.84375 8.35938 4.61914 8.35938Q4.35547 8.35938 4.19922 8.18848Q4.04297 8.01758 4.04297 7.74414Q4.04297 7.51953 4.0625 7.38281Q4.26758 6.64062 4.9707 6.12793Q5.67383 5.61523 6.69922 5.61523Q7.83203 5.61523 8.5498 6.22559Q9.26758 6.83594 9.26758 7.80273Q9.26758 8.51562 8.83789 9.07227Q8.4082 9.62891 7.7832 9.72656L7.7832 9.78516Q8.54492 9.86328 9.03809 10.4395Q9.53125 11.0156 9.53125 11.8262Q9.53125 12.9102 8.72559 13.6084Q7.91992 14.3066 6.63086 14.3066ZM13.3789 14.3066Q12.4316 14.3066 11.7383 13.8672Q11.0449 13.4277 10.8203 12.8027Q10.7812 12.7051 10.7617 12.5879Q10.7422 12.4707 10.7422 12.3438Q10.7422 12.0898 10.8984 11.9238Q11.0547 11.7578 11.3086 11.7578Q11.4844 11.7578 11.626 11.8652Q11.7676 11.9727 11.8848 12.1973Q12.1094 12.6465 12.5244 12.9053Q12.9395 13.1641 13.4473 13.1641Q14.1797 13.1641 14.6338 12.7148Q15.0879 12.2656 15.0879 11.4746Q15.0879 10.7812 14.6729 10.3125Q14.2578 9.84375 13.6035 9.84375Q13.2715 9.84375 13.0029 9.96582Q12.7344 10.0879 12.4316 10.3516Q12.1875 10.5566 12.0117 10.6299Q11.8359 10.7031 11.6016 10.7031Q11.25 10.7031 11.0547 10.4639Q10.8594 10.2246 10.8887 9.82422L11.1426 6.68945Q11.1621 6.28906 11.4062 6.05957Q11.6504 5.83008 12.0508 5.83008L15.5176 5.83008Q15.7324 5.83008 15.874 5.99121Q16.0156 6.15234 16.0156 6.39648Q16.0156 6.64062 15.874 6.80176Q15.7324 6.96289 15.5176 6.96289L12.1875 6.96289L11.9922 9.55078L12.0312 9.55078Q12.2656 9.20898 12.7441 8.98438Q13.2227 8.75977 13.7305 8.75977Q14.9023 8.75977 15.625 9.52148Q16.3477 10.2832 16.3477 11.4453Q16.3477 12.7734 15.5322 13.54Q14.7168 14.3066 13.3789 14.3066Z" fill="#ffffff"/>
 </g>
</svg>
