<?xml version="1.0" encoding="UTF-8"?>
<!--Generator: Apple Native CoreSVG 175.5-->
<!DOCTYPE svg
PUBLIC "-//W3C//DTD SVG 1.1//EN"
       "http://www.w3.org/Graphics/SVG/1.1/DTD/svg11.dtd">
<svg version="1.1" xmlns="http://www.w3.org/2000/svg" xmlns:xlink="http://www.w3.org/1999/xlink" width="17.9785" height="17.998">
 <g>
  <rect height="17.998" opacity="0" width="17.9785" x="0" y="0"/>
  <path d="M3.06641 17.998L14.9121 17.998Q16.4453 17.998 17.2119 17.2412Q17.9785 16.4844 17.9785 14.9707L17.9785 3.04688Q17.9785 1.5332 17.2119 0.776367Q16.4453 0.0195312 14.9121 0.0195312L3.06641 0.0195312Q1.5332 0.0195312 0.766602 0.776367Q0 1.5332 0 3.04688L0 14.9707Q0 16.4844 0.766602 17.2412Q1.5332 17.998 3.06641 17.998Z" fill="rgba(255,255,255,0.25)"/>
  <path d="M5.71289 13.2031Q4.7168 13.2031 3.99902 12.6855Q3.28125 12.168 3.08594 11.4941Q3.05664 11.3965 3.04688 11.3184Q3.03711 11.2402 3.03711 11.1328Q3.03711 10.8789 3.19824 10.7129Q3.35938 10.5469 3.60352 10.5469Q3.98438 10.5469 4.16016 11.0156Q4.35547 11.5234 4.75098 11.8018Q5.14648 12.0801 5.72266 12.0801Q6.42578 12.0801 6.87012 11.6943Q7.31445 11.3086 7.31445 10.7422Q7.31445 10.1465 6.89941 9.78516Q6.48438 9.42383 5.79102 9.42383L5.21484 9.42383Q4.9707 9.42383 4.82422 9.2627Q4.67773 9.10156 4.67773 8.86719Q4.67773 8.60352 4.8291 8.44727Q4.98047 8.29102 5.21484 8.29102L5.74219 8.29102Q6.32812 8.29102 6.69434 7.94434Q7.06055 7.59766 7.06055 7.06055Q7.06055 6.54297 6.69434 6.22559Q6.32812 5.9082 5.75195 5.9082Q5.17578 5.9082 4.81934 6.18164Q4.46289 6.45508 4.29688 6.97266Q4.22852 7.20703 4.10156 7.32422Q3.97461 7.44141 3.75977 7.44141Q3.50586 7.44141 3.35449 7.27539Q3.20312 7.10938 3.20312 6.8457Q3.20312 6.63086 3.22266 6.49414Q3.41797 5.78125 4.10156 5.2832Q4.78516 4.78516 5.78125 4.78516Q6.875 4.78516 7.56836 5.37598Q8.26172 5.9668 8.26172 6.9043Q8.26172 7.58789 7.84668 8.12988Q7.43164 8.67188 6.82617 8.76953L6.82617 8.82812Q7.55859 8.89648 8.04199 9.45801Q8.52539 10.0195 8.52539 10.8008Q8.52539 11.8555 7.73926 12.5293Q6.95312 13.2031 5.71289 13.2031ZM12.4512 13.2031Q11.1816 13.2031 10.4053 12.5439Q9.62891 11.8848 9.62891 10.8203Q9.62891 10.0684 10.0635 9.50684Q10.498 8.94531 11.2891 8.78906L11.2891 8.73047Q10.6055 8.53516 10.2588 8.05176Q9.91211 7.56836 9.91211 6.93359Q9.91211 5.97656 10.6299 5.38086Q11.3477 4.78516 12.4707 4.78516Q13.5938 4.78516 14.3066 5.38086Q15.0195 5.97656 15.0195 6.93359Q15.0195 7.56836 14.668 8.06152Q14.3164 8.55469 13.6426 8.73047L13.6426 8.78906Q14.4336 8.94531 14.8682 9.50195Q15.3027 10.0586 15.3027 10.8105Q15.3027 11.875 14.5117 12.5391Q13.7207 13.2031 12.4512 13.2031ZM12.4805 12.1875Q13.1641 12.1875 13.6182 11.7822Q14.0723 11.377 14.0723 10.7324Q14.0723 10.0977 13.6279 9.6875Q13.1836 9.27734 12.4805 9.27734Q11.7773 9.27734 11.3232 9.6875Q10.8691 10.0977 10.8691 10.7324Q10.8691 11.377 11.3232 11.7822Q11.7773 12.1875 12.4805 12.1875ZM12.4707 8.33984Q13.0371 8.33984 13.4033 7.97363Q13.7695 7.60742 13.7695 7.05078Q13.7695 6.49414 13.4033 6.14746Q13.0371 5.80078 12.4707 5.80078Q11.8945 5.80078 11.5283 6.14746Q11.1621 6.49414 11.1621 7.05078Q11.1621 7.60742 11.5283 7.97363Q11.8945 8.33984 12.4707 8.33984Z" fill="#ffffff"/>
 </g>
</svg>
