<?xml version="1.0" encoding="UTF-8"?>
<!--Generator: Apple Native CoreSVG 175.5-->
<!DOCTYPE svg
PUBLIC "-//W3C//DTD SVG 1.1//EN"
       "http://www.w3.org/Graphics/SVG/1.1/DTD/svg11.dtd">
<svg version="1.1" xmlns="http://www.w3.org/2000/svg" xmlns:xlink="http://www.w3.org/1999/xlink" width="17.9785" height="17.998">
 <g>
  <rect height="17.998" opacity="0" width="17.9785" x="0" y="0"/>
  <path d="M3.06641 17.998L14.9121 17.998Q16.4453 17.998 17.2119 17.2412Q17.9785 16.4844 17.9785 14.9707L17.9785 3.04688Q17.9785 1.5332 17.2119 0.776367Q16.4453 0.0195312 14.9121 0.0195312L3.06641 0.0195312Q1.5332 0.0195312 0.766602 0.776367Q0 1.5332 0 3.04688L0 14.9707Q0 16.4844 0.766602 17.2412Q1.5332 17.998 3.06641 17.998ZM3.08594 16.4258Q2.35352 16.4258 1.96289 16.04Q1.57227 15.6543 1.57227 14.8926L1.57227 3.125Q1.57227 2.36328 1.96289 1.97754Q2.35352 1.5918 3.08594 1.5918L14.8926 1.5918Q15.6152 1.5918 16.0107 1.97754Q16.4062 2.36328 16.4062 3.125L16.4062 14.8926Q16.4062 15.6543 16.0107 16.04Q15.6152 16.4258 14.8926 16.4258Z" fill="rgba(255,255,255,0.5)"/>
  <path d="M5.67383 13.2031Q6.91406 13.2031 7.7002 12.5293Q8.48633 11.8555 8.48633 10.8008Q8.48633 10.0195 8.00293 9.45801Q7.51953 8.89648 6.78711 8.82812L6.78711 8.76953Q7.39258 8.67188 7.80762 8.12988Q8.22266 7.58789 8.22266 6.9043Q8.22266 5.9668 7.5293 5.37598Q6.83594 4.78516 5.74219 4.78516Q4.74609 4.78516 4.0625 5.2832Q3.37891 5.78125 3.18359 6.49414Q3.16406 6.63086 3.16406 6.8457Q3.16406 7.10938 3.31543 7.27539Q3.4668 7.44141 3.7207 7.44141Q3.93555 7.44141 4.0625 7.32422Q4.18945 7.20703 4.25781 6.97266Q4.42383 6.45508 4.78027 6.18164Q5.13672 5.9082 5.71289 5.9082Q6.28906 5.9082 6.65527 6.22559Q7.02148 6.54297 7.02148 7.06055Q7.02148 7.59766 6.65527 7.94434Q6.28906 8.29102 5.70312 8.29102L5.17578 8.29102Q4.94141 8.29102 4.79004 8.44727Q4.63867 8.60352 4.63867 8.86719Q4.63867 9.10156 4.78516 9.2627Q4.93164 9.42383 5.17578 9.42383L5.75195 9.42383Q6.44531 9.42383 6.86035 9.78516Q7.27539 10.1465 7.27539 10.7422Q7.27539 11.3086 6.83105 11.6943Q6.38672 12.0801 5.68359 12.0801Q5.10742 12.0801 4.71191 11.8018Q4.31641 11.5234 4.12109 11.0156Q3.94531 10.5469 3.56445 10.5469Q3.32031 10.5469 3.15918 10.7129Q2.99805 10.8789 2.99805 11.1328Q2.99805 11.2402 3.00781 11.3184Q3.01758 11.3965 3.04688 11.4941Q3.24219 12.168 3.95996 12.6855Q4.67773 13.2031 5.67383 13.2031ZM12.168 13.2031Q13.623 13.2031 14.3945 12.0654Q15.166 10.9277 15.166 8.7207Q15.166 6.79688 14.4092 5.79102Q13.6523 4.78516 12.2754 4.78516Q11.0449 4.78516 10.3027 5.55176Q9.56055 6.31836 9.56055 7.60742Q9.56055 8.44727 9.89746 9.02832Q10.2344 9.60938 10.7861 9.91699Q11.3379 10.2246 11.9824 10.2246Q12.7832 10.2246 13.2666 9.85352Q13.75 9.48242 13.9453 8.98438L14.0039 8.98438Q14.0137 9.95117 13.7842 10.6445Q13.5547 11.3379 13.1348 11.709Q12.7148 12.0801 12.1484 12.0801Q11.7285 12.0801 11.4062 11.8799Q11.084 11.6797 10.9082 11.3574Q10.6934 10.9766 10.3125 10.9766Q10.0781 10.9766 9.93652 11.1377Q9.79492 11.2988 9.79492 11.5527Q9.79492 11.6797 9.86328 11.9043Q9.98047 12.3047 10.5664 12.7539Q11.1523 13.2031 12.168 13.2031ZM12.3438 9.21875Q11.6504 9.21875 11.2256 8.75Q10.8008 8.28125 10.8008 7.54883Q10.8008 6.77734 11.2207 6.31348Q11.6406 5.84961 12.3535 5.84961Q13.0273 5.84961 13.4619 6.32812Q13.8965 6.80664 13.8965 7.56836Q13.8965 8.28125 13.4668 8.75Q13.0371 9.21875 12.3438 9.21875Z" fill="#ffffff"/>
 </g>
</svg>
