<?xml version="1.0" encoding="UTF-8"?>
<!--Generator: Apple Native CoreSVG 175.5-->
<!DOCTYPE svg
PUBLIC "-//W3C//DTD SVG 1.1//EN"
       "http://www.w3.org/Graphics/SVG/1.1/DTD/svg11.dtd">
<svg version="1.1" xmlns="http://www.w3.org/2000/svg" xmlns:xlink="http://www.w3.org/1999/xlink" width="19.9219" height="19.9316">
 <g>
  <rect height="19.9316" opacity="0" width="19.9219" x="0" y="0"/>
  <path d="M9.96094 19.9219Q12.002 19.9219 13.8037 19.1406Q15.6055 18.3594 16.9824 16.9824Q18.3594 15.6055 19.1406 13.8037Q19.9219 12.002 19.9219 9.96094Q19.9219 7.91992 19.1406 6.11816Q18.3594 4.31641 16.9824 2.93945Q15.6055 1.5625 13.7988 0.78125Q11.9922 0 9.95117 0Q7.91016 0 6.1084 0.78125Q4.30664 1.5625 2.93457 2.93945Q1.5625 4.31641 0.78125 6.11816Q0 7.91992 0 9.96094Q0 12.002 0.78125 13.8037Q1.5625 15.6055 2.93945 16.9824Q4.31641 18.3594 6.11816 19.1406Q7.91992 19.9219 9.96094 19.9219Z" fill="rgba(255,255,255,0.25)"/>
  <path d="M6.12305 11.8262Q6.12305 11.6699 6.16211 11.5088Q6.20117 11.3477 6.28906 11.1914Q6.83594 10.2441 7.34863 9.33594Q7.86133 8.42773 8.37402 7.52441Q8.88672 6.62109 9.42383 5.68359Q9.56055 5.42969 9.73633 5.3125Q9.91211 5.19531 10.1465 5.19531Q10.4883 5.19531 10.6738 5.41504Q10.8594 5.63477 10.8594 5.9375Q10.8594 6.05469 10.8203 6.17188Q10.7812 6.28906 10.7227 6.41602Q10.2539 7.27539 9.80469 8.08105Q9.35547 8.88672 8.91113 9.6875Q8.4668 10.4883 8.00781 11.3281L10.8008 11.3281L10.8008 9.16016Q10.8008 8.75977 10.9961 8.53516Q11.1914 8.31055 11.5332 8.31055Q11.8945 8.31055 12.0898 8.53027Q12.2852 8.75 12.2852 9.16016L12.2852 11.3281L12.959 11.3281Q13.291 11.3281 13.4863 11.5039Q13.6816 11.6797 13.6816 11.9727Q13.6816 12.2852 13.4863 12.4756Q13.291 12.666 12.959 12.666L12.2852 12.666L12.2852 13.7012Q12.2852 14.1113 12.0898 14.3311Q11.8945 14.5508 11.5332 14.5508Q11.1914 14.5508 10.9961 14.3262Q10.8008 14.1016 10.8008 13.7012L10.8008 12.666L7.01172 12.666Q6.60156 12.666 6.3623 12.4365Q6.12305 12.207 6.12305 11.8262Z" fill="#ffffff"/>
 </g>
</svg>
