<?xml version="1.0" encoding="UTF-8"?>
<!--Generator: Apple Native CoreSVG 175.5-->
<!DOCTYPE svg
PUBLIC "-//W3C//DTD SVG 1.1//EN"
       "http://www.w3.org/Graphics/SVG/1.1/DTD/svg11.dtd">
<svg version="1.1" xmlns="http://www.w3.org/2000/svg" xmlns:xlink="http://www.w3.org/1999/xlink" width="19.9219" height="19.9316">
 <g>
  <rect height="19.9316" opacity="0" width="19.9219" x="0" y="0"/>
  <path d="M9.96094 19.9219Q12.002 19.9219 13.8037 19.1406Q15.6055 18.3594 16.9824 16.9824Q18.3594 15.6055 19.1406 13.8037Q19.9219 12.002 19.9219 9.96094Q19.9219 7.91992 19.1406 6.11816Q18.3594 4.31641 16.9824 2.93945Q15.6055 1.5625 13.7988 0.78125Q11.9922 0 9.95117 0Q7.91016 0 6.1084 0.78125Q4.30664 1.5625 2.93457 2.93945Q1.5625 4.31641 0.78125 6.11816Q0 7.91992 0 9.96094Q0 12.002 0.78125 13.8037Q1.5625 15.6055 2.93945 16.9824Q4.31641 18.3594 6.11816 19.1406Q7.91992 19.9219 9.96094 19.9219ZM9.96094 18.2617Q8.23242 18.2617 6.72852 17.6172Q5.22461 16.9727 4.08691 15.835Q2.94922 14.6973 2.30957 13.1934Q1.66992 11.6895 1.66992 9.96094Q1.66992 8.23242 2.30957 6.72852Q2.94922 5.22461 4.08203 4.08203Q5.21484 2.93945 6.71875 2.2998Q8.22266 1.66016 9.95117 1.66016Q11.6797 1.66016 13.1885 2.2998Q14.6973 2.93945 15.835 4.08203Q16.9727 5.22461 17.6172 6.72852Q18.2617 8.23242 18.2617 9.96094Q18.2617 11.6895 17.6221 13.1934Q16.9824 14.6973 15.8398 15.835Q14.6973 16.9727 13.1934 17.6172Q11.6895 18.2617 9.96094 18.2617Z" fill="rgba(255,255,255,0.5)"/>
  <path d="M8.50586 14.1504Q8.79883 14.1504 8.95508 13.9648Q9.11133 13.7793 9.11133 13.4961L9.11133 12.3438L9.63867 12.3438Q10.1855 12.3438 10.1855 11.8066Q10.1855 11.543 10.0342 11.3965Q9.88281 11.25 9.63867 11.25L9.11133 11.25L9.11133 6.67969Q9.11133 6.25977 8.83789 6.00586Q8.56445 5.75195 8.14453 5.75195Q7.71484 5.75195 7.43164 5.92285Q7.14844 6.09375 6.91406 6.50391Q6.61133 7.02148 6.2793 7.57812Q5.94727 8.13477 5.625 8.69141Q5.30273 9.24805 5 9.77051Q4.69727 10.293 4.45312 10.7324Q4.33594 10.957 4.28711 11.1328Q4.23828 11.3086 4.23828 11.5137Q4.23828 11.9043 4.47266 12.124Q4.70703 12.3438 5.07812 12.3438L7.92969 12.3438L7.92969 13.4961Q7.92969 13.7793 8.07617 13.9648Q8.22266 14.1504 8.50586 14.1504ZM7.92969 11.25L5.51758 11.25L5.51758 11.2109Q5.68359 10.8789 5.90332 10.4834Q6.12305 10.0879 6.36719 9.6582Q6.61133 9.22852 6.87012 8.78418Q7.12891 8.33984 7.38281 7.90527Q7.63672 7.4707 7.87109 7.07031L7.92969 7.07031ZM13.877 14.0527Q14.502 14.0527 14.502 13.4277L14.502 6.51367Q14.502 6.20117 14.3115 6.00586Q14.1211 5.81055 13.8086 5.81055Q13.5742 5.81055 13.3936 5.88867Q13.2129 5.9668 12.959 6.14258L11.4746 7.1582Q11.1426 7.39258 11.1426 7.73438Q11.1426 7.97852 11.3184 8.14941Q11.4941 8.32031 11.6992 8.32031Q11.8164 8.32031 11.9141 8.2959Q12.0117 8.27148 12.1777 8.13477L13.2227 7.36328L13.2812 7.36328L13.2812 13.4277Q13.2812 14.0527 13.877 14.0527Z" fill="#ffffff"/>
 </g>
</svg>
