<?xml version="1.0" encoding="UTF-8"?>
<!--Generator: Apple Native CoreSVG 175.5-->
<!DOCTYPE svg
PUBLIC "-//W3C//DTD SVG 1.1//EN"
       "http://www.w3.org/Graphics/SVG/1.1/DTD/svg11.dtd">
<svg version="1.1" xmlns="http://www.w3.org/2000/svg" xmlns:xlink="http://www.w3.org/1999/xlink" width="19.9219" height="19.9316">
 <g>
  <rect height="19.9316" opacity="0" width="19.9219" x="0" y="0"/>
  <path d="M9.96094 19.9219Q12.002 19.9219 13.8037 19.1406Q15.6055 18.3594 16.9824 16.9824Q18.3594 15.6055 19.1406 13.8037Q19.9219 12.002 19.9219 9.96094Q19.9219 7.91992 19.1406 6.11816Q18.3594 4.31641 16.9824 2.93945Q15.6055 1.5625 13.7988 0.78125Q11.9922 0 9.95117 0Q7.91016 0 6.1084 0.78125Q4.30664 1.5625 2.93457 2.93945Q1.5625 4.31641 0.78125 6.11816Q0 7.91992 0 9.96094Q0 12.002 0.78125 13.8037Q1.5625 15.6055 2.93945 16.9824Q4.31641 18.3594 6.11816 19.1406Q7.91992 19.9219 9.96094 19.9219Z" fill="rgba(255,255,255,0.25)"/>
  <path d="M8.4668 14.2871Q8.17383 14.2871 8.02246 14.0918Q7.87109 13.8965 7.87109 13.6035L7.87109 12.4219L4.93164 12.4219Q4.54102 12.4219 4.30176 12.1924Q4.0625 11.9629 4.0625 11.5625Q4.0625 11.3574 4.11133 11.1719Q4.16016 10.9863 4.28711 10.752Q4.54102 10.293 4.84863 9.76074Q5.15625 9.22852 5.48828 8.65234Q5.82031 8.07617 6.15723 7.5Q6.49414 6.92383 6.81641 6.39648Q7.06055 5.97656 7.3584 5.7959Q7.65625 5.61523 8.0957 5.61523Q8.53516 5.61523 8.81348 5.87891Q9.0918 6.14258 9.0918 6.58203L9.0918 11.2891L9.62891 11.2891Q9.89258 11.2891 10.0488 11.4404Q10.2051 11.5918 10.2051 11.8652Q10.2051 12.4219 9.62891 12.4219L9.0918 12.4219L9.0918 13.6035Q9.0918 13.9062 8.93555 14.0967Q8.7793 14.2871 8.4668 14.2871ZM7.87109 11.2891L7.87109 6.98242L7.8125 6.98242Q7.56836 7.39258 7.30957 7.8418Q7.05078 8.29102 6.78223 8.75Q6.51367 9.20898 6.26465 9.65332Q6.01562 10.0977 5.79102 10.5029Q5.56641 10.9082 5.39062 11.25L5.39062 11.2891ZM14.0039 14.1797Q13.7305 14.1797 13.5596 14.0039Q13.3887 13.8281 13.3887 13.5352L13.3887 7.28516L13.3301 7.28516L12.2559 8.07617Q12.0801 8.21289 11.9824 8.24219Q11.8848 8.27148 11.7578 8.27148Q11.543 8.27148 11.3623 8.0957Q11.1816 7.91992 11.1816 7.66602Q11.1816 7.31445 11.5332 7.07031L13.0566 6.02539Q13.3203 5.83984 13.5059 5.76172Q13.6914 5.68359 13.9355 5.68359Q14.2578 5.68359 14.458 5.88867Q14.6582 6.09375 14.6582 6.40625L14.6582 13.5352Q14.6582 13.8281 14.4824 14.0039Q14.3066 14.1797 14.0039 14.1797Z" fill="#ffffff"/>
 </g>
</svg>
