<?xml version="1.0" encoding="UTF-8"?>
<!--Generator: Apple Native CoreSVG 175.5-->
<!DOCTYPE svg
PUBLIC "-//W3C//DTD SVG 1.1//EN"
       "http://www.w3.org/Graphics/SVG/1.1/DTD/svg11.dtd">
<svg version="1.1" xmlns="http://www.w3.org/2000/svg" xmlns:xlink="http://www.w3.org/1999/xlink" width="19.9219" height="19.9316">
 <g>
  <rect height="19.9316" opacity="0" width="19.9219" x="0" y="0"/>
  <path d="M9.96094 19.9219Q12.002 19.9219 13.8037 19.1406Q15.6055 18.3594 16.9824 16.9824Q18.3594 15.6055 19.1406 13.8037Q19.9219 12.002 19.9219 9.96094Q19.9219 7.91992 19.1406 6.11816Q18.3594 4.31641 16.9824 2.93945Q15.6055 1.5625 13.7988 0.78125Q11.9922 0 9.95117 0Q7.91016 0 6.1084 0.78125Q4.30664 1.5625 2.93457 2.93945Q1.5625 4.31641 0.78125 6.11816Q0 7.91992 0 9.96094Q0 12.002 0.78125 13.8037Q1.5625 15.6055 2.93945 16.9824Q4.31641 18.3594 6.11816 19.1406Q7.91992 19.9219 9.96094 19.9219ZM9.96094 18.2617Q8.23242 18.2617 6.72852 17.6172Q5.22461 16.9727 4.08691 15.835Q2.94922 14.6973 2.30957 13.1934Q1.66992 11.6895 1.66992 9.96094Q1.66992 8.23242 2.30957 6.72852Q2.94922 5.22461 4.08203 4.08203Q5.21484 2.93945 6.71875 2.2998Q8.22266 1.66016 9.95117 1.66016Q11.6797 1.66016 13.1885 2.2998Q14.6973 2.93945 15.835 4.08203Q16.9727 5.22461 17.6172 6.72852Q18.2617 8.23242 18.2617 9.96094Q18.2617 11.6895 17.6221 13.1934Q16.9824 14.6973 15.8398 15.835Q14.6973 16.9727 13.1934 17.6172Q11.6895 18.2617 9.96094 18.2617Z" fill="rgba(255,255,255,0.5)"/>
  <path d="M8.02734 14.1504Q8.32031 14.1504 8.47656 13.9648Q8.63281 13.7793 8.63281 13.4961L8.63281 12.3438L9.16016 12.3438Q9.70703 12.3438 9.70703 11.8066Q9.70703 11.543 9.55566 11.3965Q9.4043 11.25 9.16016 11.25L8.63281 11.25L8.63281 6.67969Q8.63281 6.25977 8.35938 6.00586Q8.08594 5.75195 7.66602 5.75195Q7.23633 5.75195 6.95312 5.92285Q6.66992 6.09375 6.43555 6.50391Q6.13281 7.02148 5.80078 7.57812Q5.46875 8.13477 5.14648 8.69141Q4.82422 9.24805 4.52148 9.77051Q4.21875 10.293 3.97461 10.7324Q3.85742 10.957 3.80859 11.1328Q3.75977 11.3086 3.75977 11.5137Q3.75977 11.9043 3.99414 12.124Q4.22852 12.3438 4.59961 12.3438L7.45117 12.3438L7.45117 13.4961Q7.45117 13.7793 7.59766 13.9648Q7.74414 14.1504 8.02734 14.1504ZM7.45117 11.25L5.03906 11.25L5.03906 11.2109Q5.20508 10.8789 5.4248 10.4834Q5.64453 10.0879 5.88867 9.6582Q6.13281 9.22852 6.3916 8.78418Q6.65039 8.33984 6.9043 7.90527Q7.1582 7.4707 7.39258 7.07031L7.45117 7.07031ZM11.3086 13.9453L15.3516 13.9453Q15.5859 13.9453 15.7422 13.7842Q15.8984 13.623 15.8984 13.3594Q15.8984 13.0957 15.7422 12.9443Q15.5859 12.793 15.3516 12.793L12.5098 12.793L12.5098 12.7246L14.4238 10.498Q14.9707 9.87305 15.3271 9.29199Q15.6836 8.71094 15.6836 7.97852Q15.6836 6.96289 14.9951 6.35742Q14.3066 5.75195 13.1641 5.75195Q12.2852 5.75195 11.5918 6.25Q10.8984 6.74805 10.7129 7.49023Q10.6934 7.58789 10.6787 7.6709Q10.6641 7.75391 10.6641 7.8418Q10.6641 8.10547 10.8105 8.2666Q10.957 8.42773 11.2109 8.42773Q11.4258 8.42773 11.5479 8.30566Q11.6699 8.18359 11.7676 7.96875Q11.9531 7.42188 12.3193 7.14844Q12.6855 6.875 13.2129 6.875Q13.7988 6.875 14.1504 7.20703Q14.502 7.53906 14.502 8.08594Q14.502 8.56445 14.1895 8.98438Q13.877 9.4043 13.5254 9.81445L10.957 12.8418Q10.7422 13.0762 10.7422 13.3691Q10.7422 13.6328 10.8936 13.7891Q11.0449 13.9453 11.3086 13.9453Z" fill="#ffffff"/>
 </g>
</svg>
