<?xml version="1.0" encoding="UTF-8"?>
<!--Generator: Apple Native CoreSVG 175.5-->
<!DOCTYPE svg
PUBLIC "-//W3C//DTD SVG 1.1//EN"
       "http://www.w3.org/Graphics/SVG/1.1/DTD/svg11.dtd">
<svg version="1.1" xmlns="http://www.w3.org/2000/svg" xmlns:xlink="http://www.w3.org/1999/xlink" width="17.9785" height="17.998">
 <g>
  <rect height="17.998" opacity="0" width="17.9785" x="0" y="0"/>
  <path d="M3.06641 17.998L14.9121 17.998Q16.4453 17.998 17.2119 17.2412Q17.9785 16.4844 17.9785 14.9707L17.9785 3.04688Q17.9785 1.5332 17.2119 0.776367Q16.4453 0.0195312 14.9121 0.0195312L3.06641 0.0195312Q1.5332 0.0195312 0.766602 0.776367Q0 1.5332 0 3.04688L0 14.9707Q0 16.4844 0.766602 17.2412Q1.5332 17.998 3.06641 17.998Z" fill="rgba(255,255,255,0.25)"/>
  <path d="M7.01172 13.3203Q6.71875 13.3203 6.56738 13.125Q6.41602 12.9297 6.41602 12.6367L6.41602 11.4551L3.47656 11.4551Q3.0957 11.4551 2.85156 11.2256Q2.60742 10.9961 2.60742 10.5957Q2.60742 10.3906 2.66113 10.2051Q2.71484 10.0195 2.83203 9.78516Q3.08594 9.32617 3.39355 8.79395Q3.70117 8.26172 4.03809 7.68555Q4.375 7.10938 4.71191 6.5332Q5.04883 5.95703 5.36133 5.42969Q5.60547 5.00977 5.90332 4.8291Q6.20117 4.64844 6.64062 4.64844Q7.08008 4.64844 7.3584 4.91211Q7.63672 5.17578 7.63672 5.61523L7.63672 10.3223L8.18359 10.3223Q8.4375 10.3223 8.59375 10.4736Q8.75 10.625 8.75 10.8984Q8.75 11.1621 8.59375 11.3086Q8.4375 11.4551 8.18359 11.4551L7.63672 11.4551L7.63672 12.6367Q7.63672 12.9395 7.48047 13.1299Q7.32422 13.3203 7.01172 13.3203ZM6.41602 10.3223L6.41602 6.01562L6.35742 6.01562Q6.11328 6.42578 5.85449 6.875Q5.5957 7.32422 5.32715 7.7832Q5.05859 8.24219 4.80957 8.68652Q4.56055 9.13086 4.33594 9.53613Q4.11133 9.94141 3.93555 10.2832L3.93555 10.3223ZM10.4004 13.1055Q10.127 13.1055 9.9707 12.9395Q9.81445 12.7734 9.81445 12.5098Q9.81445 12.1973 10.0293 11.9629L12.6758 8.83789Q13.0469 8.41797 13.3691 7.98828Q13.6914 7.55859 13.6914 7.06055Q13.6914 6.50391 13.3301 6.16211Q12.9688 5.82031 12.3633 5.82031Q11.8164 5.82031 11.4453 6.09863Q11.0742 6.37695 10.8789 6.94336Q10.7715 7.16797 10.6445 7.29004Q10.5176 7.41211 10.3027 7.41211Q10.0293 7.41211 9.88281 7.24609Q9.73633 7.08008 9.73633 6.80664Q9.73633 6.71875 9.75098 6.63086Q9.76562 6.54297 9.78516 6.44531Q9.98047 5.67383 10.6934 5.16113Q11.4062 4.64844 12.3145 4.64844Q13.4961 4.64844 14.2041 5.27344Q14.9121 5.89844 14.9121 6.95312Q14.9121 7.70508 14.541 8.30078Q14.1699 8.89648 13.6133 9.55078L11.6406 11.8359L11.6406 11.9141L14.5703 11.9141Q14.8047 11.9141 14.9658 12.0654Q15.127 12.2168 15.127 12.5Q15.127 12.7734 14.9658 12.9395Q14.8047 13.1055 14.5703 13.1055Z" fill="#ffffff"/>
 </g>
</svg>
