<?xml version="1.0" encoding="UTF-8"?>
<!--Generator: Apple Native CoreSVG 175.5-->
<!DOCTYPE svg
PUBLIC "-//W3C//DTD SVG 1.1//EN"
       "http://www.w3.org/Graphics/SVG/1.1/DTD/svg11.dtd">
<svg version="1.1" xmlns="http://www.w3.org/2000/svg" xmlns:xlink="http://www.w3.org/1999/xlink" width="19.9219" height="19.9316">
 <g>
  <rect height="19.9316" opacity="0" width="19.9219" x="0" y="0"/>
  <path d="M9.96094 19.9219Q12.002 19.9219 13.8037 19.1406Q15.6055 18.3594 16.9824 16.9824Q18.3594 15.6055 19.1406 13.8037Q19.9219 12.002 19.9219 9.96094Q19.9219 7.91992 19.1406 6.11816Q18.3594 4.31641 16.9824 2.93945Q15.6055 1.5625 13.7988 0.78125Q11.9922 0 9.95117 0Q7.91016 0 6.1084 0.78125Q4.30664 1.5625 2.93457 2.93945Q1.5625 4.31641 0.78125 6.11816Q0 7.91992 0 9.96094Q0 12.002 0.78125 13.8037Q1.5625 15.6055 2.93945 16.9824Q4.31641 18.3594 6.11816 19.1406Q7.91992 19.9219 9.96094 19.9219ZM9.96094 18.2617Q8.23242 18.2617 6.72852 17.6172Q5.22461 16.9727 4.08691 15.835Q2.94922 14.6973 2.30957 13.1934Q1.66992 11.6895 1.66992 9.96094Q1.66992 8.23242 2.30957 6.72852Q2.94922 5.22461 4.08203 4.08203Q5.21484 2.93945 6.71875 2.2998Q8.22266 1.66016 9.95117 1.66016Q11.6797 1.66016 13.1885 2.2998Q14.6973 2.93945 15.835 4.08203Q16.9727 5.22461 17.6172 6.72852Q18.2617 8.23242 18.2617 9.96094Q18.2617 11.6895 17.6221 13.1934Q16.9824 14.6973 15.8398 15.835Q14.6973 16.9727 13.1934 17.6172Q11.6895 18.2617 9.96094 18.2617Z" fill="rgba(255,255,255,0.5)"/>
  <path d="M7.79297 14.1504Q8.08594 14.1504 8.24219 13.9648Q8.39844 13.7793 8.39844 13.4961L8.39844 12.3438L8.92578 12.3438Q9.47266 12.3438 9.47266 11.8066Q9.47266 11.543 9.32129 11.3965Q9.16992 11.25 8.92578 11.25L8.39844 11.25L8.39844 6.67969Q8.39844 6.25977 8.125 6.00586Q7.85156 5.75195 7.43164 5.75195Q7.00195 5.75195 6.71875 5.92285Q6.43555 6.09375 6.20117 6.50391Q5.89844 7.02148 5.56641 7.57812Q5.23438 8.13477 4.91211 8.69141Q4.58984 9.24805 4.28711 9.77051Q3.98438 10.293 3.74023 10.7324Q3.62305 10.957 3.57422 11.1328Q3.52539 11.3086 3.52539 11.5137Q3.52539 11.9043 3.75977 12.124Q3.99414 12.3438 4.36523 12.3438L7.2168 12.3438L7.2168 13.4961Q7.2168 13.7793 7.36328 13.9648Q7.50977 14.1504 7.79297 14.1504ZM7.2168 11.25L4.80469 11.25L4.80469 11.2109Q4.9707 10.8789 5.19043 10.4834Q5.41016 10.0879 5.6543 9.6582Q5.89844 9.22852 6.15723 8.78418Q6.41602 8.33984 6.66992 7.90527Q6.92383 7.4707 7.1582 7.07031L7.2168 7.07031ZM14.5215 14.1504Q14.8242 14.1504 14.9756 13.9648Q15.127 13.7793 15.127 13.4961L15.127 12.3438L15.6543 12.3438Q16.2012 12.3438 16.2012 11.8066Q16.2012 11.543 16.0547 11.3965Q15.9082 11.25 15.6543 11.25L15.127 11.25L15.127 6.67969Q15.127 6.25977 14.8584 6.00586Q14.5898 5.75195 14.1602 5.75195Q13.7402 5.75195 13.457 5.92285Q13.1738 6.09375 12.9297 6.50391Q12.627 7.02148 12.2998 7.57812Q11.9727 8.13477 11.6455 8.69141Q11.3184 9.24805 11.0205 9.77051Q10.7227 10.293 10.4688 10.7324Q10.3516 10.957 10.3027 11.1328Q10.2539 11.3086 10.2539 11.5137Q10.2539 11.9043 10.4883 12.124Q10.7227 12.3438 11.0938 12.3438L13.9453 12.3438L13.9453 13.4961Q13.9453 13.7793 14.0918 13.9648Q14.2383 14.1504 14.5215 14.1504ZM13.9453 11.25L11.5332 11.25L11.5332 11.2109Q11.709 10.8789 11.9238 10.4834Q12.1387 10.0879 12.3877 9.6582Q12.6367 9.22852 12.8906 8.78418Q13.1445 8.33984 13.3984 7.90527Q13.6523 7.4707 13.8867 7.07031L13.9453 7.07031Z" fill="#ffffff"/>
 </g>
</svg>
