<?xml version="1.0" encoding="UTF-8"?>
<!--Generator: Apple Native CoreSVG 175.5-->
<!DOCTYPE svg
PUBLIC "-//W3C//DTD SVG 1.1//EN"
       "http://www.w3.org/Graphics/SVG/1.1/DTD/svg11.dtd">
<svg version="1.1" xmlns="http://www.w3.org/2000/svg" xmlns:xlink="http://www.w3.org/1999/xlink" width="17.9785" height="17.998">
 <g>
  <rect height="17.998" opacity="0" width="17.9785" x="0" y="0"/>
  <path d="M3.06641 17.998L14.9121 17.998Q16.4453 17.998 17.2119 17.2412Q17.9785 16.4844 17.9785 14.9707L17.9785 3.04688Q17.9785 1.5332 17.2119 0.776367Q16.4453 0.0195312 14.9121 0.0195312L3.06641 0.0195312Q1.5332 0.0195312 0.766602 0.776367Q0 1.5332 0 3.04688L0 14.9707Q0 16.4844 0.766602 17.2412Q1.5332 17.998 3.06641 17.998Z" fill="rgba(255,255,255,0.25)"/>
  <path d="M6.89453 13.3203Q6.5918 13.3203 6.44531 13.125Q6.29883 12.9297 6.29883 12.6367L6.29883 11.4551L3.35938 11.4551Q2.96875 11.4551 2.72949 11.2256Q2.49023 10.9961 2.49023 10.5957Q2.49023 10.3906 2.53906 10.2051Q2.58789 10.0195 2.71484 9.78516Q2.96875 9.32617 3.27637 8.79395Q3.58398 8.26172 3.91602 7.68555Q4.24805 7.10938 4.58496 6.5332Q4.92188 5.95703 5.24414 5.42969Q5.48828 5.00977 5.78125 4.8291Q6.07422 4.64844 6.51367 4.64844Q6.96289 4.64844 7.24121 4.91211Q7.51953 5.17578 7.51953 5.61523L7.51953 10.3223L8.05664 10.3223Q8.32031 10.3223 8.47168 10.4736Q8.62305 10.625 8.62305 10.8984Q8.62305 11.1621 8.47168 11.3086Q8.32031 11.4551 8.05664 11.4551L7.51953 11.4551L7.51953 12.6367Q7.51953 12.9395 7.3584 13.1299Q7.19727 13.3203 6.89453 13.3203ZM6.29883 10.3223L6.29883 6.01562L6.23047 6.01562Q5.99609 6.42578 5.73242 6.875Q5.46875 7.32422 5.20508 7.7832Q4.94141 8.24219 4.69238 8.68652Q4.44336 9.13086 4.21875 9.53613Q3.99414 9.94141 3.81836 10.2832L3.81836 10.3223ZM12.2852 13.3398Q11.3379 13.3398 10.6445 12.9004Q9.95117 12.4609 9.72656 11.8359Q9.67773 11.7383 9.65332 11.6211Q9.62891 11.5039 9.62891 11.377Q9.62891 11.123 9.78516 10.957Q9.94141 10.791 10.1953 10.791Q10.3711 10.791 10.5225 10.8984Q10.6738 11.0059 10.7812 11.2305Q10.9961 11.6797 11.416 11.9385Q11.8359 12.1973 12.3438 12.1973Q13.0762 12.1973 13.5254 11.748Q13.9746 11.2988 13.9746 10.5078Q13.9746 9.81445 13.5645 9.3457Q13.1543 8.87695 12.4902 8.87695Q12.1582 8.87695 11.8945 8.99902Q11.6309 9.12109 11.3184 9.38477Q11.0742 9.58984 10.8984 9.66309Q10.7227 9.73633 10.498 9.73633Q10.1562 9.73633 9.96094 9.49707Q9.76562 9.25781 9.78516 8.85742L10.0293 5.72266Q10.0977 4.86328 10.957 4.86328L14.4043 4.86328Q14.6289 4.86328 14.7705 5.02441Q14.9121 5.18555 14.9121 5.42969Q14.9121 5.67383 14.7656 5.83496Q14.6191 5.99609 14.4043 5.99609L11.0742 5.99609L10.8984 8.58398L10.9375 8.58398Q11.1621 8.24219 11.6455 8.01758Q12.1289 7.79297 12.627 7.79297Q13.7988 7.79297 14.5166 8.55469Q15.2344 9.31641 15.2344 10.4785Q15.2344 11.8066 14.4238 12.5732Q13.6133 13.3398 12.2852 13.3398Z" fill="#ffffff"/>
 </g>
</svg>
