<?xml version="1.0" encoding="UTF-8"?>
<!--Generator: Apple Native CoreSVG 175.5-->
<!DOCTYPE svg
PUBLIC "-//W3C//DTD SVG 1.1//EN"
       "http://www.w3.org/Graphics/SVG/1.1/DTD/svg11.dtd">
<svg version="1.1" xmlns="http://www.w3.org/2000/svg" xmlns:xlink="http://www.w3.org/1999/xlink" width="19.9219" height="19.9316">
 <g>
  <rect height="19.9316" opacity="0" width="19.9219" x="0" y="0"/>
  <path d="M9.96094 19.9219Q12.002 19.9219 13.8037 19.1406Q15.6055 18.3594 16.9824 16.9824Q18.3594 15.6055 19.1406 13.8037Q19.9219 12.002 19.9219 9.96094Q19.9219 7.91992 19.1406 6.11816Q18.3594 4.31641 16.9824 2.93945Q15.6055 1.5625 13.7988 0.78125Q11.9922 0 9.95117 0Q7.91016 0 6.1084 0.78125Q4.30664 1.5625 2.93457 2.93945Q1.5625 4.31641 0.78125 6.11816Q0 7.91992 0 9.96094Q0 12.002 0.78125 13.8037Q1.5625 15.6055 2.93945 16.9824Q4.31641 18.3594 6.11816 19.1406Q7.91992 19.9219 9.96094 19.9219Z" fill="rgba(255,255,255,0.25)"/>
  <path d="M7.91016 14.2871Q7.61719 14.2871 7.46582 14.0918Q7.31445 13.8965 7.31445 13.6035L7.31445 12.4219L4.375 12.4219Q3.98438 12.4219 3.74512 12.1924Q3.50586 11.9629 3.50586 11.5625Q3.50586 11.3574 3.55469 11.1719Q3.60352 10.9863 3.73047 10.752Q3.98438 10.293 4.29199 9.76074Q4.59961 9.22852 4.93164 8.65234Q5.26367 8.07617 5.60059 7.5Q5.9375 6.92383 6.25977 6.39648Q6.50391 5.97656 6.80176 5.7959Q7.09961 5.61523 7.53906 5.61523Q7.97852 5.61523 8.25684 5.87891Q8.53516 6.14258 8.53516 6.58203L8.53516 11.2891L9.07227 11.2891Q9.33594 11.2891 9.49219 11.4404Q9.64844 11.5918 9.64844 11.8652Q9.64844 12.1289 9.49219 12.2754Q9.33594 12.4219 9.07227 12.4219L8.53516 12.4219L8.53516 13.6035Q8.53516 13.9062 8.37891 14.0967Q8.22266 14.2871 7.91016 14.2871ZM7.31445 11.2891L7.31445 6.98242L7.25586 6.98242Q7.01172 7.39258 6.75293 7.8418Q6.49414 8.29102 6.22559 8.75Q5.95703 9.20898 5.70801 9.65332Q5.45898 10.0977 5.23438 10.5029Q5.00977 10.9082 4.83398 11.25L4.83398 11.2891ZM12.1387 14.1895Q11.8555 14.1895 11.6602 14.0039Q11.4648 13.8184 11.4648 13.5352Q11.4648 13.2715 11.5723 13.0664L14.6973 7.03125L14.6973 6.95312L11.1621 6.95312Q10.8984 6.95312 10.7373 6.80176Q10.5762 6.65039 10.5762 6.39648Q10.5762 6.13281 10.7373 5.97656Q10.8984 5.82031 11.1621 5.82031L15.2246 5.82031Q15.6348 5.82031 15.8789 6.0791Q16.123 6.33789 16.123 6.69922Q16.123 6.85547 16.0889 7.0166Q16.0547 7.17773 15.9277 7.42188L12.793 13.6914Q12.6562 13.9551 12.5 14.0723Q12.3438 14.1895 12.1387 14.1895Z" fill="#ffffff"/>
 </g>
</svg>
