<?xml version="1.0" encoding="UTF-8"?>
<!--Generator: Apple Native CoreSVG 175.5-->
<!DOCTYPE svg
PUBLIC "-//W3C//DTD SVG 1.1//EN"
       "http://www.w3.org/Graphics/SVG/1.1/DTD/svg11.dtd">
<svg version="1.1" xmlns="http://www.w3.org/2000/svg" xmlns:xlink="http://www.w3.org/1999/xlink" width="19.9219" height="19.9316">
 <g>
  <rect height="19.9316" opacity="0" width="19.9219" x="0" y="0"/>
  <path d="M9.96094 19.9219Q12.002 19.9219 13.8037 19.1406Q15.6055 18.3594 16.9824 16.9824Q18.3594 15.6055 19.1406 13.8037Q19.9219 12.002 19.9219 9.96094Q19.9219 7.91992 19.1406 6.11816Q18.3594 4.31641 16.9824 2.93945Q15.6055 1.5625 13.7988 0.78125Q11.9922 0 9.95117 0Q7.91016 0 6.1084 0.78125Q4.30664 1.5625 2.93457 2.93945Q1.5625 4.31641 0.78125 6.11816Q0 7.91992 0 9.96094Q0 12.002 0.78125 13.8037Q1.5625 15.6055 2.93945 16.9824Q4.31641 18.3594 6.11816 19.1406Q7.91992 19.9219 9.96094 19.9219Z" fill="rgba(255,255,255,0.25)"/>
  <path d="M7.85156 14.2871Q7.55859 14.2871 7.40723 14.0918Q7.25586 13.8965 7.25586 13.6035L7.25586 12.4219L4.32617 12.4219Q3.93555 12.4219 3.69629 12.1924Q3.45703 11.9629 3.45703 11.5625Q3.45703 11.3574 3.50586 11.1719Q3.55469 10.9863 3.67188 10.752Q3.92578 10.293 4.2334 9.76074Q4.54102 9.22852 4.87793 8.65234Q5.21484 8.07617 5.55176 7.5Q5.88867 6.92383 6.20117 6.39648Q6.45508 5.97656 6.74805 5.7959Q7.04102 5.61523 7.48047 5.61523Q7.91992 5.61523 8.20312 5.87891Q8.48633 6.14258 8.48633 6.58203L8.48633 11.2891L9.02344 11.2891Q9.27734 11.2891 9.43359 11.4404Q9.58984 11.5918 9.58984 11.8652Q9.58984 12.1289 9.43359 12.2754Q9.27734 12.4219 9.02344 12.4219L8.48633 12.4219L8.48633 13.6035Q8.48633 13.9062 8.3252 14.0967Q8.16406 14.2871 7.85156 14.2871ZM7.25586 11.2891L7.25586 6.98242L7.19727 6.98242Q6.95312 7.39258 6.69434 7.8418Q6.43555 8.29102 6.16699 8.75Q5.89844 9.20898 5.64941 9.65332Q5.40039 10.0977 5.17578 10.5029Q4.95117 10.9082 4.77539 11.25L4.77539 11.2891ZM13.5352 14.3066Q12.2363 14.3066 11.4307 13.6279Q10.625 12.9492 10.625 11.8457Q10.625 11.0742 11.0742 10.4932Q11.5234 9.91211 12.334 9.74609L12.334 9.6875Q11.6309 9.48242 11.2793 8.98926Q10.9277 8.49609 10.9277 7.83203Q10.9277 6.8457 11.6602 6.23047Q12.3926 5.61523 13.5547 5.61523Q14.7168 5.61523 15.4492 6.23047Q16.1816 6.8457 16.1816 7.83203Q16.1816 8.49609 15.8252 8.99902Q15.4688 9.50195 14.7754 9.6875L14.7754 9.74609Q15.5859 9.91211 16.0352 10.4883Q16.4844 11.0645 16.4844 11.8359Q16.4844 12.9395 15.6689 13.623Q14.8535 14.3066 13.5352 14.3066ZM13.5645 13.252Q14.2773 13.252 14.7412 12.8369Q15.2051 12.4219 15.2051 11.7578Q15.2051 11.0938 14.751 10.6738Q14.2969 10.2539 13.5645 10.2539Q12.8516 10.2539 12.3877 10.6787Q11.9238 11.1035 11.9238 11.7578Q11.9238 12.4219 12.3877 12.8369Q12.8516 13.252 13.5645 13.252ZM13.5547 9.28711Q14.1406 9.28711 14.5215 8.91113Q14.9023 8.53516 14.9023 7.95898Q14.9023 7.39258 14.5215 7.03125Q14.1406 6.66992 13.5547 6.66992Q12.9688 6.66992 12.5928 7.03125Q12.2168 7.39258 12.2168 7.95898Q12.2168 8.53516 12.5928 8.91113Q12.9688 9.28711 13.5547 9.28711Z" fill="#ffffff"/>
 </g>
</svg>
