<?xml version="1.0" encoding="UTF-8"?>
<!--Generator: Apple Native CoreSVG 175.5-->
<!DOCTYPE svg
PUBLIC "-//W3C//DTD SVG 1.1//EN"
       "http://www.w3.org/Graphics/SVG/1.1/DTD/svg11.dtd">
<svg version="1.1" xmlns="http://www.w3.org/2000/svg" xmlns:xlink="http://www.w3.org/1999/xlink" width="17.9785" height="17.998">
 <g>
  <rect height="17.998" opacity="0" width="17.9785" x="0" y="0"/>
  <path d="M3.06641 17.998L14.9121 17.998Q16.4453 17.998 17.2119 17.2412Q17.9785 16.4844 17.9785 14.9707L17.9785 3.04688Q17.9785 1.5332 17.2119 0.776367Q16.4453 0.0195312 14.9121 0.0195312L3.06641 0.0195312Q1.5332 0.0195312 0.766602 0.776367Q0 1.5332 0 3.04688L0 14.9707Q0 16.4844 0.766602 17.2412Q1.5332 17.998 3.06641 17.998ZM3.08594 16.4258Q2.35352 16.4258 1.96289 16.04Q1.57227 15.6543 1.57227 14.8926L1.57227 3.125Q1.57227 2.36328 1.96289 1.97754Q2.35352 1.5918 3.08594 1.5918L14.8926 1.5918Q15.6152 1.5918 16.0107 1.97754Q16.4062 2.36328 16.4062 3.125L16.4062 14.8926Q16.4062 15.6543 16.0107 16.04Q15.6152 16.4258 14.8926 16.4258Z" fill="rgba(255,255,255,0.5)"/>
  <path d="M6.95312 13.1836Q7.24609 13.1836 7.40234 12.998Q7.55859 12.8125 7.55859 12.5293L7.55859 11.377L8.08594 11.377Q8.63281 11.377 8.63281 10.8398Q8.63281 10.5762 8.48145 10.4297Q8.33008 10.2832 8.08594 10.2832L7.55859 10.2832L7.55859 5.71289Q7.55859 5.29297 7.28516 5.03906Q7.01172 4.78516 6.5918 4.78516Q6.16211 4.78516 5.87891 4.95605Q5.5957 5.12695 5.36133 5.53711Q5.05859 6.05469 4.72656 6.61133Q4.39453 7.16797 4.07227 7.72461Q3.75 8.28125 3.44727 8.80371Q3.14453 9.32617 2.90039 9.76562Q2.7832 9.99023 2.73438 10.166Q2.68555 10.3418 2.68555 10.5469Q2.68555 10.9375 2.91992 11.1572Q3.1543 11.377 3.52539 11.377L6.37695 11.377L6.37695 12.5293Q6.37695 12.8125 6.52344 12.998Q6.66992 13.1836 6.95312 13.1836ZM6.37695 10.2832L3.96484 10.2832L3.96484 10.2441Q4.13086 9.91211 4.35059 9.5166Q4.57031 9.12109 4.81445 8.69141Q5.05859 8.26172 5.31738 7.81738Q5.57617 7.37305 5.83008 6.93848Q6.08398 6.50391 6.31836 6.10352L6.37695 6.10352ZM12.4609 13.2031Q13.7305 13.2031 14.5264 12.5391Q15.3223 11.875 15.3223 10.8105Q15.3223 10.0586 14.8828 9.50195Q14.4434 8.94531 13.6621 8.78906L13.6621 8.73047Q14.3359 8.55469 14.6826 8.06152Q15.0293 7.56836 15.0293 6.93359Q15.0293 5.97656 14.3164 5.38086Q13.6035 4.78516 12.4805 4.78516Q11.3574 4.78516 10.6445 5.38086Q9.93164 5.97656 9.93164 6.93359Q9.93164 7.56836 10.2783 8.05176Q10.625 8.53516 11.2988 8.73047L11.2988 8.78906Q10.5078 8.94531 10.0732 9.50684Q9.63867 10.0684 9.63867 10.8203Q9.63867 11.8848 10.415 12.5439Q11.1914 13.2031 12.4609 13.2031ZM12.4902 12.1875Q11.7969 12.1875 11.3428 11.7822Q10.8887 11.377 10.8887 10.7324Q10.8887 10.0977 11.3428 9.6875Q11.7969 9.27734 12.4902 9.27734Q13.1934 9.27734 13.6377 9.6875Q14.082 10.0977 14.082 10.7324Q14.082 11.377 13.6328 11.7822Q13.1836 12.1875 12.4902 12.1875ZM12.4805 8.33984Q11.9043 8.33984 11.5381 7.97363Q11.1719 7.60742 11.1719 7.05078Q11.1719 6.49414 11.5381 6.14746Q11.9043 5.80078 12.4805 5.80078Q13.0566 5.80078 13.4229 6.14746Q13.7891 6.49414 13.7891 7.05078Q13.7891 7.60742 13.4229 7.97363Q13.0566 8.33984 12.4805 8.33984Z" fill="#ffffff"/>
 </g>
</svg>
