<?xml version="1.0" encoding="UTF-8"?>
<!--Generator: Apple Native CoreSVG 175.5-->
<!DOCTYPE svg
PUBLIC "-//W3C//DTD SVG 1.1//EN"
       "http://www.w3.org/Graphics/SVG/1.1/DTD/svg11.dtd">
<svg version="1.1" xmlns="http://www.w3.org/2000/svg" xmlns:xlink="http://www.w3.org/1999/xlink" width="17.9785" height="17.998">
 <g>
  <rect height="17.998" opacity="0" width="17.9785" x="0" y="0"/>
  <path d="M3.06641 17.998L14.9121 17.998Q16.4453 17.998 17.2119 17.2412Q17.9785 16.4844 17.9785 14.9707L17.9785 3.04688Q17.9785 1.5332 17.2119 0.776367Q16.4453 0.0195312 14.9121 0.0195312L3.06641 0.0195312Q1.5332 0.0195312 0.766602 0.776367Q0 1.5332 0 3.04688L0 14.9707Q0 16.4844 0.766602 17.2412Q1.5332 17.998 3.06641 17.998ZM3.08594 16.4258Q2.35352 16.4258 1.96289 16.04Q1.57227 15.6543 1.57227 14.8926L1.57227 3.125Q1.57227 2.36328 1.96289 1.97754Q2.35352 1.5918 3.08594 1.5918L14.8926 1.5918Q15.6152 1.5918 16.0107 1.97754Q16.4062 2.36328 16.4062 3.125L16.4062 14.8926Q16.4062 15.6543 16.0107 16.04Q15.6152 16.4258 14.8926 16.4258Z" fill="rgba(255,255,255,0.5)"/>
  <path d="M9.01367 13.6426Q10.0195 13.6426 10.7812 13.2471Q11.543 12.8516 11.9727 12.1484Q12.4023 11.4453 12.4023 10.5371Q12.4023 9.32617 11.582 8.52539Q10.7617 7.72461 9.48242 7.72461Q8.98438 7.72461 8.52051 7.89062Q8.05664 8.05664 7.82227 8.31055L7.72461 8.28125Q7.79297 8.16406 7.91016 8.00293Q8.02734 7.8418 8.25195 7.54883Q8.4375 7.30469 8.64258 7.04102Q8.84766 6.77734 9.0625 6.50879Q9.27734 6.24023 9.48242 5.98145Q9.6875 5.72266 9.87305 5.48828Q10.0977 5.19531 10.0977 4.95117Q10.0977 4.72656 9.94141 4.54102Q9.78516 4.35547 9.43359 4.35547Q9.19922 4.35547 9.04785 4.48242Q8.89648 4.60938 8.7793 4.75586Q8.53516 5.06836 8.30566 5.36621Q8.07617 5.66406 7.86133 5.94727Q7.64648 6.23047 7.44141 6.49902Q7.23633 6.76758 7.04102 7.02148Q6.28906 8.01758 5.94727 8.85254Q5.60547 9.6875 5.60547 10.4785Q5.60547 11.8848 6.54785 12.7637Q7.49023 13.6426 9.01367 13.6426ZM9.01367 12.4121Q8.14453 12.4121 7.56348 11.8896Q6.98242 11.3672 6.98242 10.5957Q6.98242 9.83398 7.55859 9.33105Q8.13477 8.82812 9.00391 8.82812Q9.88281 8.82812 10.459 9.33594Q11.0352 9.84375 11.0352 10.6152Q11.0352 11.377 10.459 11.8945Q9.88281 12.4121 9.01367 12.4121Z" fill="#ffffff"/>
 </g>
</svg>
