<?xml version="1.0" encoding="UTF-8"?>
<!--Generator: Apple Native CoreSVG 175.5-->
<!DOCTYPE svg
PUBLIC "-//W3C//DTD SVG 1.1//EN"
       "http://www.w3.org/Graphics/SVG/1.1/DTD/svg11.dtd">
<svg version="1.1" xmlns="http://www.w3.org/2000/svg" xmlns:xlink="http://www.w3.org/1999/xlink" width="17.9785" height="17.998">
 <g>
  <rect height="17.998" opacity="0" width="17.9785" x="0" y="0"/>
  <path d="M3.06641 17.998L14.9121 17.998Q16.4453 17.998 17.2119 17.2412Q17.9785 16.4844 17.9785 14.9707L17.9785 3.04688Q17.9785 1.5332 17.2119 0.776367Q16.4453 0.0195312 14.9121 0.0195312L3.06641 0.0195312Q1.5332 0.0195312 0.766602 0.776367Q0 1.5332 0 3.04688L0 14.9707Q0 16.4844 0.766602 17.2412Q1.5332 17.998 3.06641 17.998ZM3.08594 16.4258Q2.35352 16.4258 1.96289 16.04Q1.57227 15.6543 1.57227 14.8926L1.57227 3.125Q1.57227 2.36328 1.96289 1.97754Q2.35352 1.5918 3.08594 1.5918L14.8926 1.5918Q15.6152 1.5918 16.0107 1.97754Q16.4062 2.36328 16.4062 3.125L16.4062 14.8926Q16.4062 15.6543 16.0107 16.04Q15.6152 16.4258 14.8926 16.4258Z" fill="rgba(255,255,255,0.5)"/>
  <path d="M9.07227 13.6426Q10.5469 13.6426 11.4844 12.8174Q12.4219 11.9922 12.4219 10.498Q12.4219 9.57031 12.0068 8.92578Q11.5918 8.28125 10.918 7.94434Q10.2441 7.60742 9.47266 7.60742Q8.48633 7.60742 7.90527 8.02734Q7.32422 8.44727 7.08984 8.97461Q7.07031 8.97461 7.05078 8.97461Q7.03125 8.97461 7.01172 8.97461Q7.01172 8.94531 7.01172 8.92578Q7.01172 8.90625 7.01172 8.87695Q7.01172 7.37305 7.63672 6.47949Q8.26172 5.58594 9.25781 5.58594Q9.76562 5.58594 10.083 5.78125Q10.4004 5.97656 10.6055 6.23047Q10.8398 6.46484 11.0156 6.58691Q11.1914 6.70898 11.4453 6.70898Q11.6895 6.70898 11.8604 6.54785Q12.0312 6.38672 12.0312 6.13281Q12.0312 6.01562 12.0117 5.91309Q11.9922 5.81055 11.9434 5.70312Q11.7871 5.3418 11.4062 5.03418Q11.0254 4.72656 10.4883 4.53613Q9.95117 4.3457 9.31641 4.3457Q7.58789 4.3457 6.58203 5.56152Q5.57617 6.77734 5.57617 9.20898Q5.57617 10.2246 5.74707 10.9619Q5.91797 11.6992 6.2207 12.1875Q6.69922 12.9688 7.45605 13.3057Q8.21289 13.6426 9.07227 13.6426ZM9.00391 12.4707Q8.19336 12.4707 7.66602 11.9287Q7.13867 11.3867 7.13867 10.5566Q7.13867 9.75586 7.66113 9.23828Q8.18359 8.7207 9.01367 8.7207Q9.84375 8.7207 10.3662 9.2334Q10.8887 9.74609 10.8887 10.5664Q10.8887 11.4258 10.3809 11.9482Q9.87305 12.4707 9.00391 12.4707Z" fill="#ffffff"/>
 </g>
</svg>
