<?xml version="1.0" encoding="UTF-8"?>
<!--Generator: Apple Native CoreSVG 175.5-->
<!DOCTYPE svg
PUBLIC "-//W3C//DTD SVG 1.1//EN"
       "http://www.w3.org/Graphics/SVG/1.1/DTD/svg11.dtd">
<svg version="1.1" xmlns="http://www.w3.org/2000/svg" xmlns:xlink="http://www.w3.org/1999/xlink" width="19.9219" height="19.9316">
 <g>
  <rect height="19.9316" opacity="0" width="19.9219" x="0" y="0"/>
  <path d="M9.96094 19.9219Q12.002 19.9219 13.8037 19.1406Q15.6055 18.3594 16.9824 16.9824Q18.3594 15.6055 19.1406 13.8037Q19.9219 12.002 19.9219 9.96094Q19.9219 7.91992 19.1406 6.11816Q18.3594 4.31641 16.9824 2.93945Q15.6055 1.5625 13.7988 0.78125Q11.9922 0 9.95117 0Q7.91016 0 6.1084 0.78125Q4.30664 1.5625 2.93457 2.93945Q1.5625 4.31641 0.78125 6.11816Q0 7.91992 0 9.96094Q0 12.002 0.78125 13.8037Q1.5625 15.6055 2.93945 16.9824Q4.31641 18.3594 6.11816 19.1406Q7.91992 19.9219 9.96094 19.9219ZM9.96094 18.2617Q8.23242 18.2617 6.72852 17.6172Q5.22461 16.9727 4.08691 15.835Q2.94922 14.6973 2.30957 13.1934Q1.66992 11.6895 1.66992 9.96094Q1.66992 8.23242 2.30957 6.72852Q2.94922 5.22461 4.08203 4.08203Q5.21484 2.93945 6.71875 2.2998Q8.22266 1.66016 9.95117 1.66016Q11.6797 1.66016 13.1885 2.2998Q14.6973 2.93945 15.835 4.08203Q16.9727 5.22461 17.6172 6.72852Q18.2617 8.23242 18.2617 9.96094Q18.2617 11.6895 17.6221 13.1934Q16.9824 14.6973 15.8398 15.835Q14.6973 16.9727 13.1934 17.6172Q11.6895 18.2617 9.96094 18.2617Z" fill="rgba(255,255,255,0.5)"/>
  <path d="M9.93164 14.6094Q11.4844 14.6094 12.4512 13.877Q13.418 13.1445 13.418 11.9629Q13.418 11.1523 12.876 10.5371Q12.334 9.92188 11.4551 9.74609L11.4551 9.6875Q12.1875 9.47266 12.6172 8.93066Q13.0469 8.38867 13.0469 7.67578Q13.0469 6.63086 12.1777 5.97168Q11.3086 5.3125 9.95117 5.3125Q8.58398 5.3125 7.71484 5.97168Q6.8457 6.63086 6.8457 7.67578Q6.8457 8.38867 7.27051 8.92578Q7.69531 9.46289 8.4375 9.6875L8.4375 9.74609Q7.55859 9.92188 7.0166 10.542Q6.47461 11.1621 6.47461 11.9727Q6.47461 13.1543 7.42676 13.8818Q8.37891 14.6094 9.93164 14.6094ZM9.96094 13.5352Q9.0918 13.5352 8.52539 13.0713Q7.95898 12.6074 7.95898 11.8945Q7.95898 11.2012 8.53027 10.7373Q9.10156 10.2734 9.96094 10.2734Q10.8301 10.2734 11.3867 10.7324Q11.9434 11.1914 11.9434 11.8945Q11.9434 12.6074 11.3818 13.0713Q10.8203 13.5352 9.96094 13.5352ZM9.95117 9.24805Q9.21875 9.24805 8.75 8.83789Q8.28125 8.42773 8.28125 7.80273Q8.28125 7.1875 8.75 6.78711Q9.21875 6.38672 9.95117 6.38672Q10.6836 6.38672 11.1475 6.78711Q11.6113 7.1875 11.6113 7.80273Q11.6113 8.42773 11.1426 8.83789Q10.6738 9.24805 9.95117 9.24805Z" fill="#ffffff"/>
 </g>
</svg>
