<?xml version="1.0" encoding="UTF-8"?>
<!--Generator: Apple Native CoreSVG 175.5-->
<!DOCTYPE svg
PUBLIC "-//W3C//DTD SVG 1.1//EN"
       "http://www.w3.org/Graphics/SVG/1.1/DTD/svg11.dtd">
<svg version="1.1" xmlns="http://www.w3.org/2000/svg" xmlns:xlink="http://www.w3.org/1999/xlink" width="19.9219" height="19.9316">
 <g>
  <rect height="19.9316" opacity="0" width="19.9219" x="0" y="0"/>
  <path d="M9.96094 19.9219Q12.002 19.9219 13.8037 19.1406Q15.6055 18.3594 16.9824 16.9824Q18.3594 15.6055 19.1406 13.8037Q19.9219 12.002 19.9219 9.96094Q19.9219 7.91992 19.1406 6.11816Q18.3594 4.31641 16.9824 2.93945Q15.6055 1.5625 13.7988 0.78125Q11.9922 0 9.95117 0Q7.91016 0 6.1084 0.78125Q4.30664 1.5625 2.93457 2.93945Q1.5625 4.31641 0.78125 6.11816Q0 7.91992 0 9.96094Q0 12.002 0.78125 13.8037Q1.5625 15.6055 2.93945 16.9824Q4.31641 18.3594 6.11816 19.1406Q7.91992 19.9219 9.96094 19.9219Z" fill="rgba(255,255,255,0.25)"/>
  <path d="M9.94141 14.7559Q8.33008 14.7559 7.34863 14.0088Q6.36719 13.2617 6.36719 12.041Q6.36719 11.2012 6.92871 10.5566Q7.49023 9.91211 8.39844 9.73633L8.39844 9.67773Q7.62695 9.44336 7.19238 8.8916Q6.75781 8.33984 6.75781 7.61719Q6.75781 6.52344 7.65137 5.84473Q8.54492 5.16602 9.96094 5.16602Q11.3672 5.16602 12.2607 5.84473Q13.1543 6.52344 13.1543 7.61719Q13.1543 8.33984 12.71 8.90137Q12.2656 9.46289 11.5137 9.67773L11.5137 9.73633Q12.4219 9.91211 12.9834 10.5518Q13.5449 11.1914 13.5449 12.0312Q13.5449 13.252 12.5439 14.0039Q11.543 14.7559 9.94141 14.7559ZM9.9707 13.6426Q10.8496 13.6426 11.4307 13.1641Q12.0117 12.6855 12.0117 11.9531Q12.0117 11.2305 11.4404 10.7568Q10.8691 10.2832 9.9707 10.2832Q9.08203 10.2832 8.49609 10.7568Q7.91016 11.2305 7.91016 11.9531Q7.91016 12.6855 8.49609 13.1641Q9.08203 13.6426 9.9707 13.6426ZM9.96094 9.21875Q10.7031 9.21875 11.1865 8.80371Q11.6699 8.38867 11.6699 7.73438Q11.6699 7.09961 11.1914 6.69434Q10.7129 6.28906 9.96094 6.28906Q9.19922 6.28906 8.7207 6.69434Q8.24219 7.09961 8.24219 7.73438Q8.24219 8.38867 8.72559 8.80371Q9.20898 9.21875 9.96094 9.21875Z" fill="#ffffff"/>
 </g>
</svg>
