<?xml version="1.0" encoding="UTF-8"?>
<!--Generator: Apple Native CoreSVG 175.5-->
<!DOCTYPE svg
PUBLIC "-//W3C//DTD SVG 1.1//EN"
       "http://www.w3.org/Graphics/SVG/1.1/DTD/svg11.dtd">
<svg version="1.1" xmlns="http://www.w3.org/2000/svg" xmlns:xlink="http://www.w3.org/1999/xlink" width="17.9785" height="17.998">
 <g>
  <rect height="17.998" opacity="0" width="17.9785" x="0" y="0"/>
  <path d="M3.06641 17.998L14.9121 17.998Q16.4453 17.998 17.2119 17.2412Q17.9785 16.4844 17.9785 14.9707L17.9785 3.04688Q17.9785 1.5332 17.2119 0.776367Q16.4453 0.0195312 14.9121 0.0195312L3.06641 0.0195312Q1.5332 0.0195312 0.766602 0.776367Q0 1.5332 0 3.04688L0 14.9707Q0 16.4844 0.766602 17.2412Q1.5332 17.998 3.06641 17.998Z" fill="rgba(255,255,255,0.25)"/>
  <path d="M8.97461 13.7891Q7.36328 13.7891 6.38184 13.042Q5.40039 12.2949 5.40039 11.0742Q5.40039 10.2344 5.96191 9.58984Q6.52344 8.94531 7.43164 8.76953L7.43164 8.71094Q6.66016 8.47656 6.22559 7.9248Q5.79102 7.37305 5.79102 6.65039Q5.79102 5.55664 6.68457 4.87793Q7.57812 4.19922 8.99414 4.19922Q10.4004 4.19922 11.2939 4.87793Q12.1875 5.55664 12.1875 6.65039Q12.1875 7.37305 11.7432 7.93457Q11.2988 8.49609 10.5469 8.71094L10.5469 8.76953Q11.4551 8.94531 12.0166 9.58496Q12.5781 10.2246 12.5781 11.0645Q12.5781 12.2852 11.5771 13.0371Q10.5762 13.7891 8.97461 13.7891ZM9.00391 12.6758Q9.88281 12.6758 10.4639 12.1973Q11.0449 11.7188 11.0449 10.9863Q11.0449 10.2637 10.4736 9.79004Q9.90234 9.31641 9.00391 9.31641Q8.11523 9.31641 7.5293 9.79004Q6.94336 10.2637 6.94336 10.9863Q6.94336 11.7188 7.5293 12.1973Q8.11523 12.6758 9.00391 12.6758ZM8.99414 8.25195Q9.73633 8.25195 10.2197 7.83691Q10.7031 7.42188 10.7031 6.76758Q10.7031 6.13281 10.2246 5.72754Q9.74609 5.32227 8.99414 5.32227Q8.23242 5.32227 7.75391 5.72754Q7.27539 6.13281 7.27539 6.76758Q7.27539 7.42188 7.75879 7.83691Q8.24219 8.25195 8.99414 8.25195Z" fill="#ffffff"/>
 </g>
</svg>
