<?xml version="1.0" encoding="UTF-8"?>
<!--Generator: Apple Native CoreSVG 175.5-->
<!DOCTYPE svg
PUBLIC "-//W3C//DTD SVG 1.1//EN"
       "http://www.w3.org/Graphics/SVG/1.1/DTD/svg11.dtd">
<svg version="1.1" xmlns="http://www.w3.org/2000/svg" xmlns:xlink="http://www.w3.org/1999/xlink" width="17.9785" height="17.998">
 <g>
  <rect height="17.998" opacity="0" width="17.9785" x="0" y="0"/>
  <path d="M3.06641 17.998L14.9121 17.998Q16.4453 17.998 17.2119 17.2412Q17.9785 16.4844 17.9785 14.9707L17.9785 3.04688Q17.9785 1.5332 17.2119 0.776367Q16.4453 0.0195312 14.9121 0.0195312L3.06641 0.0195312Q1.5332 0.0195312 0.766602 0.776367Q0 1.5332 0 3.04688L0 14.9707Q0 16.4844 0.766602 17.2412Q1.5332 17.998 3.06641 17.998ZM3.08594 16.4258Q2.35352 16.4258 1.96289 16.04Q1.57227 15.6543 1.57227 14.8926L1.57227 3.125Q1.57227 2.36328 1.96289 1.97754Q2.35352 1.5918 3.08594 1.5918L14.8926 1.5918Q15.6152 1.5918 16.0107 1.97754Q16.4062 2.36328 16.4062 3.125L16.4062 14.8926Q16.4062 15.6543 16.0107 16.04Q15.6152 16.4258 14.8926 16.4258Z" fill="rgba(255,255,255,0.5)"/>
  <path d="M5.78125 13.5938Q6.04492 13.5938 6.23047 13.4521Q6.41602 13.3105 6.5332 12.9688L7.24609 10.8887L10.7324 10.8887L11.4551 12.9688Q11.6602 13.5938 12.207 13.5938Q12.5293 13.5938 12.7246 13.4033Q12.9199 13.2129 12.9199 12.9199Q12.9199 12.7148 12.8223 12.4121L10.0781 5.03906Q9.79492 4.26758 8.98438 4.26758Q8.18359 4.26758 7.90039 5.03906L5.16602 12.4121Q5.05859 12.7148 5.05859 12.9199Q5.05859 13.2227 5.25391 13.4082Q5.44922 13.5938 5.78125 13.5938ZM7.63672 9.7168L8.93555 5.9375L9.04297 5.9375L10.3418 9.7168Z" fill="#ffffff"/>
 </g>
</svg>
