<?xml version="1.0" encoding="UTF-8"?>
<!--Generator: Apple Native CoreSVG 175.5-->
<!DOCTYPE svg
PUBLIC "-//W3C//DTD SVG 1.1//EN"
       "http://www.w3.org/Graphics/SVG/1.1/DTD/svg11.dtd">
<svg version="1.1" xmlns="http://www.w3.org/2000/svg" xmlns:xlink="http://www.w3.org/1999/xlink" width="23.4668" height="23.1543">
 <g>
  <rect height="23.1543" opacity="0" width="23.4668" x="0" y="0"/>
  <path d="M12.9102 14.3457Q12.9102 15.127 13.125 15.7812Q13.3398 16.4355 13.6572 17.0166Q13.9746 17.5977 14.2871 18.1543Q14.5996 18.7109 14.8145 19.3066Q15.0293 19.9023 15.0293 20.5859Q15.0293 20.9766 14.9365 21.333Q14.8438 21.6895 14.6094 22.1094Q14.4629 22.373 14.5361 22.5928Q14.6094 22.8125 14.7754 22.9395Q14.9902 23.0762 15.2734 23.0371Q15.5566 22.998 15.7324 22.6758Q16.2988 21.709 16.2988 20.5859Q16.2988 19.7852 16.084 19.126Q15.8691 18.4668 15.5518 17.8857Q15.2344 17.3047 14.917 16.748Q14.5996 16.1914 14.3848 15.6055Q14.1699 15.0195 14.1699 14.3457Q14.1699 13.9453 14.2676 13.5889Q14.3652 13.2324 14.6094 12.8027Q14.7461 12.5586 14.6729 12.334Q14.5996 12.1094 14.4141 11.9824Q14.209 11.8555 13.9307 11.8945Q13.6523 11.9336 13.4766 12.2363Q13.1738 12.7246 13.042 13.2568Q12.9102 13.7891 12.9102 14.3457ZM10.0391 14.3555Q10.0391 15.1367 10.2539 15.7861Q10.4688 16.4355 10.7812 17.0166Q11.0938 17.5977 11.4111 18.1592Q11.7285 18.7207 11.9434 19.3115Q12.1582 19.9023 12.1582 20.5859Q12.1582 20.9863 12.0654 21.3428Q11.9727 21.6992 11.7285 22.1191Q11.5918 22.3828 11.665 22.6025Q11.7383 22.8223 11.9043 22.9492Q12.1094 23.0762 12.3926 23.0469Q12.6758 23.0176 12.8613 22.6953Q13.4277 21.709 13.4277 20.5859Q13.4277 19.7949 13.2129 19.1357Q12.998 18.4766 12.6807 17.8955Q12.3633 17.3145 12.0459 16.7529Q11.7285 16.1914 11.5137 15.6104Q11.2988 15.0293 11.2988 14.3555Q11.2988 13.9551 11.3965 13.5938Q11.4941 13.2324 11.7285 12.8125Q11.875 12.5684 11.8018 12.3389Q11.7285 12.1094 11.543 11.9824Q11.3379 11.8555 11.0547 11.8945Q10.7715 11.9336 10.6055 12.2461Q10.3027 12.7344 10.1709 13.2666Q10.0391 13.7988 10.0391 14.3555ZM7.16797 14.3457Q7.16797 15.127 7.38281 15.7812Q7.59766 16.4355 7.91016 17.0166Q8.22266 17.5977 8.54004 18.1543Q8.85742 18.7109 9.07227 19.3066Q9.28711 19.9023 9.28711 20.5859Q9.28711 20.9766 9.19434 21.333Q9.10156 21.6895 8.85742 22.1094Q8.71094 22.373 8.78418 22.5928Q8.85742 22.8125 9.0332 22.9395Q9.23828 23.0762 9.52148 23.0371Q9.80469 22.998 9.99023 22.6758Q10.5566 21.709 10.5566 20.5859Q10.5566 19.7852 10.3418 19.126Q10.127 18.4668 9.80957 17.8857Q9.49219 17.3047 9.1748 16.748Q8.85742 16.1914 8.64258 15.6055Q8.42773 15.0195 8.42773 14.3457Q8.42773 13.9453 8.52539 13.5889Q8.62305 13.2324 8.85742 12.8027Q9.00391 12.5586 8.93066 12.334Q8.85742 12.1094 8.67188 11.9824Q8.4668 11.8555 8.18359 11.8945Q7.90039 11.9336 7.72461 12.2363Q7.43164 12.7246 7.2998 13.2568Q7.16797 13.7891 7.16797 14.3457ZM15.9473 14.7949Q15.9473 14.9512 16.0693 15.0586Q16.1914 15.166 16.3574 15.1465L17.168 15.0977L16.709 15.7715Q16.6309 15.8984 16.6602 16.0596Q16.6895 16.2207 16.8262 16.3086Q16.9629 16.3965 17.1289 16.3428Q17.2949 16.2891 17.3535 16.1328L17.7148 15.4004L18.0859 16.1523Q18.1641 16.2891 18.3154 16.3428Q18.4668 16.3965 18.6133 16.3184Q18.75 16.2402 18.7842 16.0693Q18.8184 15.8984 18.7207 15.7617L18.2617 15.0977L19.0723 15.1562Q19.2285 15.1758 19.3555 15.0684Q19.4824 14.9609 19.4824 14.7949Q19.4824 14.6191 19.3652 14.5117Q19.248 14.4043 19.082 14.4238L18.252 14.4727L18.7207 13.7891Q18.8086 13.6523 18.7842 13.4961Q18.7598 13.3398 18.6133 13.2617Q18.4668 13.1738 18.3154 13.2227Q18.1641 13.2715 18.0859 13.418L17.7148 14.1504L17.3633 13.4277Q17.2949 13.2715 17.1338 13.2178Q16.9727 13.1641 16.8262 13.252Q16.6895 13.3301 16.6553 13.4912Q16.6211 13.6523 16.709 13.7891L17.168 14.4727L16.3574 14.4336Q16.1816 14.4238 16.0645 14.5264Q15.9473 14.6289 15.9473 14.7949ZM4.0625 20.127Q4.0625 20.3027 4.17969 20.4102Q4.29688 20.5176 4.46289 20.498L5.2832 20.4492L4.81445 21.1328Q4.72656 21.2695 4.75586 21.4209Q4.78516 21.5723 4.92188 21.6504Q5.07812 21.7383 5.22949 21.6895Q5.38086 21.6406 5.44922 21.4941L5.82031 20.7617L6.19141 21.4844Q6.25 21.6406 6.40625 21.6943Q6.5625 21.748 6.71875 21.6699Q6.85547 21.5918 6.88965 21.4307Q6.92383 21.2695 6.83594 21.1328L6.37695 20.4492L7.1875 20.4883Q7.35352 20.498 7.4707 20.3955Q7.58789 20.293 7.58789 20.127Q7.58789 19.9707 7.4707 19.8633Q7.35352 19.7559 7.1875 19.7754L6.36719 19.8242L6.82617 19.1504Q6.91406 19.0234 6.88477 18.8623Q6.85547 18.7012 6.71875 18.6133Q6.58203 18.5156 6.41602 18.5742Q6.25 18.6328 6.18164 18.7891L5.82031 19.5117L5.44922 18.7695Q5.38086 18.6328 5.22949 18.5791Q5.07812 18.5254 4.92188 18.6035Q4.79492 18.6719 4.76074 18.8477Q4.72656 19.0234 4.81445 19.1602L5.27344 19.8242L4.47266 19.7656Q4.30664 19.7461 4.18457 19.8535Q4.0625 19.9609 4.0625 20.127Z" fill="#ffffff"/>
  <path d="M0 2.2168L0 8.27148Q0 9.27734 0.595703 9.88281Q1.19141 10.4883 2.17773 10.4883L21.2891 10.4883Q22.2754 10.4883 22.8711 9.88281Q23.4668 9.27734 23.4668 8.27148L23.4668 2.2168Q23.4668 1.21094 22.8711 0.605469Q22.2754 0 21.2891 0L2.17773 0Q1.19141 0 0.595703 0.605469Q0 1.21094 0 2.2168ZM1.57227 2.24609Q1.57227 1.57227 2.26562 1.57227L21.2012 1.57227Q21.8945 1.57227 21.8945 2.24609L21.8945 8.24219Q21.8945 8.91602 21.2012 8.91602L2.26562 8.91602Q1.57227 8.91602 1.57227 8.24219ZM15.7227 7.44141Q15.7227 7.64648 15.8691 7.78809Q16.0156 7.92969 16.2207 7.92969L20.0781 7.92969Q20.2832 7.92969 20.4297 7.78809Q20.5762 7.64648 20.5762 7.44141Q20.5762 7.23633 20.4297 7.08984Q20.2832 6.94336 20.0781 6.94336L16.2207 6.94336Q16.0156 6.94336 15.8691 7.08984Q15.7227 7.23633 15.7227 7.44141ZM15.7227 5.42969Q15.7227 5.625 15.8691 5.77148Q16.0156 5.91797 16.2207 5.91797L20.0781 5.91797Q20.2832 5.91797 20.4297 5.77148Q20.5762 5.625 20.5762 5.42969Q20.5762 5.21484 20.4297 5.06836Q20.2832 4.92188 20.0781 4.92188L16.2207 4.92188Q16.0156 4.92188 15.8691 5.06836Q15.7227 5.21484 15.7227 5.42969ZM9.3457 7.44141Q9.3457 7.64648 9.4873 7.78809Q9.62891 7.92969 9.84375 7.92969L13.7012 7.92969Q13.9062 7.92969 14.0479 7.78809Q14.1895 7.64648 14.1895 7.44141Q14.1895 7.23633 14.0479 7.08984Q13.9062 6.94336 13.7012 6.94336L9.84375 6.94336Q9.62891 6.94336 9.4873 7.08984Q9.3457 7.23633 9.3457 7.44141ZM9.3457 5.42969Q9.3457 5.625 9.4873 5.77148Q9.62891 5.91797 9.84375 5.91797L13.7012 5.91797Q13.9062 5.91797 14.0479 5.77148Q14.1895 5.625 14.1895 5.42969Q14.1895 5.21484 14.0479 5.06836Q13.9062 4.92188 13.7012 4.92188L9.84375 4.92188Q9.62891 4.92188 9.4873 5.06836Q9.3457 5.21484 9.3457 5.42969ZM2.94922 7.44141Q2.94922 7.64648 3.0957 7.78809Q3.24219 7.92969 3.4375 7.92969L7.29492 7.92969Q7.50977 7.92969 7.65137 7.78809Q7.79297 7.64648 7.79297 7.44141Q7.79297 7.23633 7.65137 7.08984Q7.50977 6.94336 7.29492 6.94336L3.4375 6.94336Q3.24219 6.94336 3.0957 7.08984Q2.94922 7.23633 2.94922 7.44141ZM2.94922 5.42969Q2.94922 5.625 3.0957 5.77148Q3.24219 5.91797 3.4375 5.91797L7.29492 5.91797Q7.50977 5.91797 7.65137 5.77148Q7.79297 5.625 7.79297 5.42969Q7.79297 5.21484 7.65137 5.06836Q7.50977 4.92188 7.29492 4.92188L3.4375 4.92188Q3.24219 4.92188 3.0957 5.06836Q2.94922 5.21484 2.94922 5.42969Z" fill="rgba(255,255,255,0.5)"/>
 </g>
</svg>
