<?xml version="1.0" encoding="UTF-8"?>
<!--Generator: Apple Native CoreSVG 175.5-->
<!DOCTYPE svg
PUBLIC "-//W3C//DTD SVG 1.1//EN"
       "http://www.w3.org/Graphics/SVG/1.1/DTD/svg11.dtd">
<svg version="1.1" xmlns="http://www.w3.org/2000/svg" xmlns:xlink="http://www.w3.org/1999/xlink" width="22.0117" height="19.8926">
 <g>
  <rect height="19.8926" opacity="0" width="22.0117" x="0" y="0"/>
  <path d="M22.0117 9.94141Q22.0117 9.375 21.543 8.93066Q21.0742 8.48633 20.293 8.22754Q19.5117 7.96875 18.584 7.96875L14.6484 7.96875Q14.2383 7.96875 14.0283 7.87598Q13.8184 7.7832 13.5742 7.50977L7.01172 0.351562Q6.68945 0 6.25977 0L5.12695 0Q4.94141 0 4.84863 0.146484Q4.75586 0.292969 4.85352 0.498047L8.23242 7.96875L3.27148 8.53516L1.50391 5.29297Q1.30859 4.94141 0.839844 4.94141L0.419922 4.94141Q0.234375 4.94141 0.117188 5.05371Q0 5.16602 0 5.36133L0 14.5215Q0 14.707 0.117188 14.8193Q0.234375 14.9316 0.419922 14.9316L0.839844 14.9316Q1.30859 14.9316 1.50391 14.5898L3.27148 11.3477L8.23242 11.9141L4.85352 19.3848Q4.75586 19.5898 4.84863 19.7363Q4.94141 19.8828 5.12695 19.8828L6.25977 19.8828Q6.68945 19.8828 7.01172 19.5312L13.5742 12.3633Q13.8184 12.0898 14.0283 12.002Q14.2383 11.9141 14.6484 11.9141L18.584 11.9141Q19.5117 11.9141 20.293 11.6553Q21.0742 11.3965 21.543 10.9521Q22.0117 10.5078 22.0117 9.94141Z" fill="#ffffff"/>
 </g>
</svg>
