<?xml version="1.0" encoding="UTF-8"?>
<!--Generator: Apple Native CoreSVG 175.5-->
<!DOCTYPE svg
PUBLIC "-//W3C//DTD SVG 1.1//EN"
       "http://www.w3.org/Graphics/SVG/1.1/DTD/svg11.dtd">
<svg version="1.1" xmlns="http://www.w3.org/2000/svg" xmlns:xlink="http://www.w3.org/1999/xlink" width="25.117" height="17.4707">
 <g>
  <rect height="17.4707" opacity="0" width="25.117" x="0" y="0"/>
  <path d="M1.90937 17.4707L22.9836 17.4707Q23.3059 17.4707 23.5402 17.2363Q23.7746 17.002 23.7746 16.6797Q23.7746 16.3574 23.5402 16.1279Q23.3059 15.8984 22.9836 15.8984L1.90937 15.8984Q1.58711 15.8984 1.35762 16.1279Q1.12812 16.3574 1.12812 16.6797Q1.12812 17.002 1.35762 17.2363Q1.58711 17.4707 1.90937 17.4707Z" fill="rgba(255,255,255,0.5)"/>
  <path d="M5.48359 10.9277L22.2316 6.46484Q23.1691 6.21094 23.8918 5.70312Q24.6145 5.19531 24.9367 4.53613Q25.259 3.87695 25.0051 3.18359Q24.7707 2.54883 24.1311 2.23145Q23.4914 1.91406 22.6516 1.89941Q21.8117 1.88477 20.9719 2.16797L15.1027 4.17969Q14.8 4.27734 14.5412 4.2627Q14.2824 4.24805 13.9309 4.08203L5.74727 0.214844Q5.33711 0.0292969 4.92695 0.146484L4.25312 0.351562Q4.07734 0.410156 4.03828 0.585938Q3.99922 0.761719 4.15547 0.927734L9.75117 6.86523L9.93672 5.9375L4.99531 7.63672L6.90937 7.69531L1.18672 5.66406Q0.991406 5.5957 0.810742 5.63477Q0.630078 5.67383 0.434766 5.84961L0.151562 6.11328Q0.00507812 6.24023 0.000195312 6.40625Q-0.0046875 6.57227 0.1125 6.69922L3.54023 10.5469Q3.88203 10.9277 4.3752 11.0107Q4.86836 11.0938 5.48359 10.9277Z" fill="#ffffff"/>
 </g>
</svg>
