<?xml version="1.0" encoding="UTF-8"?>
<!--Generator: Apple Native CoreSVG 175-->
<!DOCTYPE svg
PUBLIC "-//W3C//DTD SVG 1.1//EN"
       "http://www.w3.org/Graphics/SVG/1.1/DTD/svg11.dtd">
<svg version="1.1" xmlns="http://www.w3.org/2000/svg" xmlns:xlink="http://www.w3.org/1999/xlink" width="19.1602" height="19.1504">
 <g>
  <rect height="19.1504" opacity="0" width="19.1602" x="0" y="0"/>
  <path d="M9.57031 19.1504Q11.5527 19.1504 13.2861 18.4082Q15.0195 17.666 16.3379 16.3428Q17.6562 15.0195 18.4082 13.2861Q19.1602 11.5527 19.1602 9.58008Q19.1602 7.60742 18.4082 5.87402Q17.6562 4.14062 16.3379 2.81738Q15.0195 1.49414 13.2861 0.751953Q11.5527 0.00976562 9.57031 0.00976562Q7.59766 0.00976562 5.86426 0.751953Q4.13086 1.49414 2.81738 2.81738Q1.50391 4.14062 0.751953 5.87402Q0 7.60742 0 9.58008Q0 11.5527 0.74707 13.2861Q1.49414 15.0195 2.8125 16.3428Q4.13086 17.666 5.86914 18.4082Q7.60742 19.1504 9.57031 19.1504Z" fill="rgba(255,255,255,0.25)"/>
  <path d="M12.6074 14.7656L6.55273 14.7656Q6.36719 14.7656 6.30371 14.6143Q6.24023 14.4629 6.34766 14.3457L9.35547 10.9375Q9.43359 10.8398 9.58008 10.8398Q9.72656 10.8398 9.81445 10.9375L12.8125 14.3457Q12.9199 14.4629 12.8516 14.6143Q12.7832 14.7656 12.6074 14.7656ZM14.375 5.41992Q14.7852 5.41992 15.0195 5.65918Q15.2539 5.89844 15.2539 6.30859L15.2539 11.9141Q15.2539 12.334 15.0146 12.5732Q14.7754 12.8125 14.375 12.8125L12.2168 12.8125L11.6797 12.207L14.3555 12.207Q14.6387 12.207 14.6387 11.9043L14.6387 6.32812Q14.6387 6.02539 14.3555 6.02539L4.80469 6.02539Q4.52148 6.02539 4.52148 6.32812L4.52148 11.9043Q4.52148 12.207 4.80469 12.207L7.48047 12.207L6.95312 12.8125L4.77539 12.8125Q4.38477 12.8125 4.14551 12.5732Q3.90625 12.334 3.90625 11.9141L3.90625 6.30859Q3.90625 5.9082 4.14062 5.66406Q4.375 5.41992 4.77539 5.41992Z" fill="#ffffff"/>
 </g>
</svg>
