<?xml version="1.0" encoding="UTF-8"?>
<!--Generator: Apple Native CoreSVG 175-->
<!DOCTYPE svg
PUBLIC "-//W3C//DTD SVG 1.1//EN"
       "http://www.w3.org/Graphics/SVG/1.1/DTD/svg11.dtd">
<svg version="1.1" xmlns="http://www.w3.org/2000/svg" xmlns:xlink="http://www.w3.org/1999/xlink" width="24.4824" height="16.106">
 <g>
  <rect height="16.106" opacity="0" width="24.4824" x="0" y="0"/>
  <path d="M3.23242 9.72778Q3.96484 9.72778 4.53613 9.42993Q5.10742 9.13208 5.42969 8.57056Q5.75195 8.00903 5.75195 7.21802Q5.75195 6.41724 5.31738 5.69946Q4.88281 4.98169 4.13086 4.53247Q3.37891 4.08325 2.43164 4.08325Q1.70898 4.08325 1.15723 4.41528Q0.605469 4.74731 0.302734 5.30396Q0 5.8606 0 6.55396Q0 7.45239 0.449219 8.17017Q0.898438 8.88794 1.63086 9.30786Q2.36328 9.72778 3.23242 9.72778ZM2.83203 8.54614Q2.63672 8.71216 2.30957 8.54126Q1.98242 8.37036 1.61133 7.89185Q1.23047 7.4231 1.11328 7.08618Q0.996094 6.74927 1.19141 6.60278Q1.38672 6.43677 1.69922 6.60767Q2.01172 6.77856 2.40234 7.23755Q2.7832 7.71606 2.89551 8.05786Q3.00781 8.39966 2.83203 8.54614ZM21.2598 9.72778Q22.1094 9.72778 22.8467 9.30786Q23.584 8.88794 24.0332 8.17017Q24.4824 7.45239 24.4824 6.55396Q24.4824 5.8606 24.1748 5.30396Q23.8672 4.74731 23.3252 4.41528Q22.7832 4.08325 22.0508 4.08325Q21.1035 4.08325 20.3516 4.53247Q19.5996 4.98169 19.165 5.69946Q18.7305 6.41724 18.7305 7.21802Q18.7305 8.00903 19.0527 8.57056Q19.375 9.13208 19.9463 9.42993Q20.5176 9.72778 21.2598 9.72778ZM21.6504 8.54614Q21.4746 8.39966 21.5869 8.05786Q21.6992 7.71606 22.0898 7.23755Q22.4609 6.77856 22.7783 6.60767Q23.0957 6.43677 23.291 6.60278Q23.4766 6.74927 23.3643 7.08618Q23.252 7.4231 22.8711 7.89185Q22.5 8.37036 22.1729 8.54126Q21.8457 8.71216 21.6504 8.54614Z" fill="rgba(255,255,255,0.5)"/>
  <path d="M8.00781 0.0012207Q7.16797-0.0183105 6.29883 0.274658Q5.42969 0.567627 4.67773 1.16333Q3.92578 1.75903 3.4082 2.66724Q3.32031 2.82349 3.23242 2.9895Q3.14453 3.15552 3.06641 3.35083Q4.0332 3.49731 4.82422 4.04907Q5.61523 4.60083 6.07422 5.43091Q6.5332 6.26099 6.5332 7.21802Q6.5332 7.95044 6.28906 8.56567Q7.02148 8.44849 7.53906 8.28735Q8.05664 8.12622 8.50586 7.90161Q9.81445 7.24731 10.6689 6.12915Q11.5234 5.01099 11.5234 3.49731Q11.5234 2.45239 11.0791 1.67114Q10.6348 0.889893 9.83887 0.450439Q9.04297 0.0109863 8.00781 0.0012207ZM8.48633 3.51685Q8.37891 3.59497 8.22754 3.59009Q8.07617 3.58521 7.97852 3.45825Q7.89062 3.35083 7.91016 3.20923Q7.92969 3.06763 8.03711 2.96997L9.29688 1.90552Q9.42383 1.80786 9.56543 1.81763Q9.70703 1.82739 9.79492 1.94458Q9.88281 2.052 9.88281 2.20337Q9.88281 2.35474 9.76562 2.45239ZM6.64062 16.1047L7.42188 16.1047Q7.77344 16.1047 7.9541 15.9436Q8.13477 15.7825 8.13477 15.4602L8.13477 8.97583Q7.62695 9.17114 7.06543 9.33228Q6.50391 9.49341 5.91797 9.62036L5.91797 15.4602Q5.91797 15.7825 6.10352 15.9436Q6.28906 16.1047 6.64062 16.1047ZM16.4746 0.0012207Q15.4395 0.0109863 14.6484 0.450439Q13.8574 0.889893 13.4082 1.67114Q12.959 2.45239 12.959 3.49731Q12.959 5.01099 13.8184 6.12915Q14.6777 7.24731 15.9766 7.90161Q16.4355 8.12622 16.9482 8.28735Q17.4609 8.44849 18.1934 8.56567Q17.9492 7.95044 17.9492 7.21802Q17.9492 6.26099 18.4082 5.43091Q18.8672 4.60083 19.6582 4.04907Q20.4492 3.49731 21.416 3.35083Q21.3379 3.15552 21.2549 2.9895Q21.1719 2.82349 21.0742 2.66724Q20.5566 1.75903 19.8047 1.16333Q19.0527 0.567627 18.1885 0.274658Q17.3242-0.0183105 16.4746 0.0012207ZM16.0059 3.51685L14.7168 2.45239Q14.6094 2.35474 14.6045 2.20337Q14.5996 2.052 14.6973 1.94458Q14.7754 1.82739 14.9219 1.81763Q15.0684 1.80786 15.1855 1.90552L16.4453 2.96997Q16.5625 3.06763 16.5771 3.20923Q16.5918 3.35083 16.5039 3.45825Q16.4062 3.58521 16.2598 3.59009Q16.1133 3.59497 16.0059 3.51685ZM17.8418 16.1047Q18.2031 16.1047 18.3838 15.9436Q18.5645 15.7825 18.5645 15.4602L18.5645 9.62036Q17.9785 9.49341 17.417 9.33228Q16.8555 9.17114 16.3477 8.97583L16.3477 15.4602Q16.3477 15.7825 16.5283 15.9436Q16.709 16.1047 17.0703 16.1047Z" fill="#ffffff"/>
 </g>
</svg>
