<?xml version="1.0" encoding="UTF-8"?>
<!--Generator: Apple Native CoreSVG 175-->
<!DOCTYPE svg
PUBLIC "-//W3C//DTD SVG 1.1//EN"
       "http://www.w3.org/Graphics/SVG/1.1/DTD/svg11.dtd">
<svg version="1.1" xmlns="http://www.w3.org/2000/svg" xmlns:xlink="http://www.w3.org/1999/xlink" width="21.0266" height="17.1793">
 <g>
  <rect height="17.1793" opacity="0" width="21.0266" x="0" y="0"/>
  <path d="M0.33905 8.93753L2.57614 8.93753L2.57614 8.2402L0.33905 8.2402Q0.200806 8.2402 0.100403 8.34389Q0 8.44757 0 8.59024Q0 8.72574 0.100403 8.83163Q0.200806 8.93753 0.33905 8.93753ZM9.12262 8.93753L11.8872 8.93753L11.8872 8.2402L9.12262 8.2402ZM18.5118 8.93753L20.6833 8.93753Q20.8258 8.93753 20.9262 8.83163Q21.0266 8.72574 21.0266 8.59024Q21.0266 8.44757 20.9262 8.34389Q20.8258 8.2402 20.6833 8.2402L18.5118 8.2402Z" fill="#ffffff"/>
  <path d="M3.69843 17.1762L8.09448 17.1762Q8.76526 17.1762 9.1629 16.778Q9.56055 16.3797 9.56055 15.7008L9.56055 1.4769Q9.56055 0.793762 9.1629 0.396881Q8.76526 0 8.09448 0L3.69843 0Q3.01804 0 2.6252 0.396881Q2.23236 0.793762 2.23236 1.4769L2.23236 15.7008Q2.23236 16.3797 2.6252 16.778Q3.01804 17.1762 3.69843 17.1762ZM12.9727 13.9879L17.3688 13.9879Q18.0466 13.9879 18.4407 13.5889Q18.8348 13.1898 18.8348 12.5108L18.8348 4.65973Q18.8348 3.98361 18.4407 3.58673Q18.0466 3.18985 17.3688 3.18985L12.9727 3.18985Q12.3019 3.18985 11.9043 3.58673Q11.5067 3.98361 11.5067 4.65973L11.5067 12.5108Q11.5067 13.1898 11.9043 13.5889Q12.3019 13.9879 12.9727 13.9879Z" fill="rgba(255,255,255,0.5)"/>
 </g>
</svg>
