<?xml version="1.0" encoding="UTF-8"?>
<!--Generator: Apple Native CoreSVG 175.5-->
<!DOCTYPE svg
PUBLIC "-//W3C//DTD SVG 1.1//EN"
       "http://www.w3.org/Graphics/SVG/1.1/DTD/svg11.dtd">
<svg version="1.1" xmlns="http://www.w3.org/2000/svg" xmlns:xlink="http://www.w3.org/1999/xlink" width="25.1367" height="25.4199">
 <g>
  <rect height="25.4199" opacity="0" width="25.1367" x="0" y="0"/>
  <path d="M8.56445 20.8496Q9.73633 20.8496 10.6982 20.2783Q11.6602 19.707 12.2314 18.7402Q12.8027 17.7734 12.8027 16.5918Q12.8027 15.4297 12.2314 14.4727Q11.6602 13.5156 10.6934 12.9443Q9.72656 12.373 8.56445 12.373Q7.39258 12.373 6.43066 12.9443Q5.46875 13.5156 4.89746 14.4727Q4.32617 15.4297 4.32617 16.5918Q4.32617 17.7734 4.89746 18.7402Q5.46875 19.707 6.43066 20.2783Q7.39258 20.8496 8.56445 20.8496ZM16.1328 13.8867Q17.4805 13.8867 18.5889 13.2227Q19.6973 12.5586 20.3564 11.4453Q21.0156 10.332 21.0156 8.99414Q21.0156 7.64648 20.3564 6.54297Q19.6973 5.43945 18.5889 4.78027Q17.4805 4.12109 16.1328 4.12109Q14.7949 4.12109 13.6865 4.78027Q12.5781 5.43945 11.9141 6.54297Q11.25 7.64648 11.25 8.99414Q11.25 10.332 11.9141 11.4453Q12.5781 12.5586 13.6865 13.2227Q14.7949 13.8867 16.1328 13.8867ZM16.1328 2.36328Q16.6309 2.36328 16.9727 2.0166Q17.3145 1.66992 17.3145 1.18164Q17.3145 0.683594 16.9727 0.341797Q16.6309 0 16.1328 0Q15.6445 0 15.2979 0.341797Q14.9512 0.683594 14.9512 1.18164Q14.9512 1.66992 15.2979 2.0166Q15.6445 2.36328 16.1328 2.36328ZM21.875 4.7168Q22.3633 4.7168 22.71 4.375Q23.0566 4.0332 23.0566 3.53516Q23.0566 3.04688 22.71 2.7002Q22.3633 2.35352 21.875 2.35352Q21.377 2.35352 21.0303 2.7002Q20.6836 3.04688 20.6836 3.53516Q20.6836 4.0332 21.0303 4.375Q21.377 4.7168 21.875 4.7168ZM23.9551 10.2148Q24.4434 10.2148 24.79 9.86816Q25.1367 9.52148 25.1367 9.02344Q25.1367 8.53516 24.79 8.18848Q24.4434 7.8418 23.9551 7.8418Q23.4668 7.8418 23.1201 8.18848Q22.7734 8.53516 22.7734 9.02344Q22.7734 9.52148 23.1201 9.86816Q23.4668 10.2148 23.9551 10.2148ZM21.582 15.9375Q22.0801 15.9375 22.4268 15.5908Q22.7734 15.2441 22.7734 14.7559Q22.7734 14.2578 22.4268 13.9111Q22.0801 13.5645 21.582 13.5645Q21.0938 13.5645 20.7471 13.9111Q20.4004 14.2578 20.4004 14.7559Q20.4004 15.2441 20.7471 15.5908Q21.0938 15.9375 21.582 15.9375ZM16.1328 17.7734Q16.6309 17.7734 16.9727 17.4268Q17.3145 17.0801 17.3145 16.5918Q17.3145 16.0938 16.9727 15.752Q16.6309 15.4102 16.1328 15.4102Q15.6445 15.4102 15.2979 15.752Q14.9512 16.0938 14.9512 16.5918Q14.9512 17.0801 15.2979 17.4268Q15.6445 17.7734 16.1328 17.7734ZM13.877 22.8027Q14.3652 22.8027 14.7119 22.4561Q15.0586 22.1094 15.0586 21.6211Q15.0586 21.1328 14.7119 20.7861Q14.3652 20.4395 13.877 20.4395Q13.3887 20.4395 13.042 20.7861Q12.6953 21.1328 12.6953 21.6211Q12.6953 22.1094 13.042 22.4561Q13.3887 22.8027 13.877 22.8027ZM8.56445 25.1758Q9.05273 25.1758 9.39941 24.8291Q9.74609 24.4824 9.74609 23.9941Q9.74609 23.4961 9.39941 23.1494Q9.05273 22.8027 8.56445 22.8027Q8.06641 22.8027 7.72461 23.1494Q7.38281 23.4961 7.38281 23.9941Q7.38281 24.4824 7.72461 24.8291Q8.06641 25.1758 8.56445 25.1758ZM3.55469 23.0664Q4.04297 23.0664 4.38965 22.7197Q4.73633 22.373 4.73633 21.8848Q4.73633 21.3867 4.38965 21.04Q4.04297 20.6934 3.55469 20.6934Q3.05664 20.6934 2.71484 21.04Q2.37305 21.3867 2.37305 21.8848Q2.37305 22.373 2.71484 22.7197Q3.05664 23.0664 3.55469 23.0664ZM1.18164 17.793Q1.67969 17.793 2.02148 17.4512Q2.36328 17.1094 2.36328 16.6113Q2.36328 16.123 2.02148 15.7764Q1.67969 15.4297 1.18164 15.4297Q0.693359 15.4297 0.34668 15.7764Q0 16.123 0 16.6113Q0 17.1094 0.34668 17.4512Q0.693359 17.793 1.18164 17.793ZM3.55469 12.5195Q4.04297 12.5195 4.38965 12.1729Q4.73633 11.8262 4.73633 11.3379Q4.73633 10.8398 4.38965 10.4932Q4.04297 10.1465 3.55469 10.1465Q3.05664 10.1465 2.71484 10.4932Q2.37305 10.8398 2.37305 11.3379Q2.37305 11.8262 2.71484 12.1729Q3.05664 12.5195 3.55469 12.5195ZM8.56445 10.1758Q9.05273 10.1758 9.39941 9.8291Q9.74609 9.48242 9.74609 8.99414Q9.74609 8.49609 9.39941 8.14941Q9.05273 7.80273 8.56445 7.80273Q8.06641 7.80273 7.72461 8.14941Q7.38281 8.49609 7.38281 8.99414Q7.38281 9.48242 7.72461 9.8291Q8.06641 10.1758 8.56445 10.1758ZM10.6836 4.45312Q11.1719 4.45312 11.5186 4.10645Q11.8652 3.75977 11.8652 3.26172Q11.8652 2.77344 11.5186 2.42676Q11.1719 2.08008 10.6836 2.08008Q10.1855 2.08008 9.84375 2.42676Q9.50195 2.77344 9.50195 3.26172Q9.50195 3.75977 9.84375 4.10645Q10.1855 4.45312 10.6836 4.45312Z" fill="#ffffff"/>
 </g>
</svg>
