<?xml version="1.0" encoding="UTF-8"?>
<!--Generator: Apple Native CoreSVG 175.5-->
<!DOCTYPE svg
PUBLIC "-//W3C//DTD SVG 1.1//EN"
       "http://www.w3.org/Graphics/SVG/1.1/DTD/svg11.dtd">
<svg version="1.1" xmlns="http://www.w3.org/2000/svg" xmlns:xlink="http://www.w3.org/1999/xlink" width="16.2759" height="23.7207">
 <g>
  <rect height="23.7207" opacity="0" width="16.2759" x="0" y="0"/>
  <path d="M8.13323 23.3301Q9.16839 23.3301 10.101 22.8271Q11.0336 22.3242 11.7563 21.4502Q12.4789 20.5762 12.894 19.4727Q13.309 18.3691 13.309 17.168Q13.309 16.1426 12.9428 15.4688Q12.5766 14.7949 11.9223 14.3994Q11.268 14.0039 10.3891 13.7988L10.3891 13.7012Q10.8285 13.4863 11.0727 13.0566Q11.3168 12.627 11.3657 12.1191Q11.4145 11.6113 11.2485 11.1523Q11.0825 10.6934 10.6918 10.4297L10.6918 10.332Q11.9418 10.1074 12.5668 9.37988Q13.1918 8.65234 13.1918 7.53906Q13.1918 6.49414 12.7963 5.57617Q12.4008 4.6582 11.7026 3.95996Q11.0043 3.26172 10.0912 2.86621Q9.17816 2.4707 8.13323 2.4707Q7.09808 2.4707 6.18499 2.86621Q5.27191 3.26172 4.57366 3.95996Q3.87542 4.6582 3.47503 5.57617Q3.07464 6.49414 3.07464 7.53906Q3.07464 8.65234 3.70452 9.37988Q4.33441 10.1074 5.58441 10.332L5.58441 10.4297Q5.19378 10.6934 5.02777 11.1523Q4.86175 11.6113 4.90569 12.1191Q4.94964 12.627 5.19866 13.0566Q5.44769 13.4863 5.88714 13.7012L5.88714 13.7988Q5.018 14.0039 4.35882 14.3994Q3.69964 14.7949 3.33343 15.4688Q2.96722 16.1426 2.96722 17.168Q2.96722 18.3691 3.38226 19.4727Q3.7973 20.5762 4.51995 21.4502Q5.24261 22.3242 6.17034 22.8271Q7.09808 23.3301 8.13323 23.3301ZM8.13323 21.6992Q7.38128 21.6992 6.73187 21.3086Q6.08245 20.918 5.59417 20.2734Q5.10589 19.6289 4.83245 18.8672Q4.55902 18.1055 4.55902 17.373Q4.55902 16.3965 5.12054 15.835Q5.68206 15.2734 6.78558 15.2734L9.49066 15.2734Q10.5844 15.2734 11.1459 15.835Q11.7075 16.3965 11.7075 17.373Q11.7075 18.1055 11.4389 18.8672Q11.1703 19.6289 10.6821 20.2734Q10.1938 20.918 9.54437 21.3086Q8.89495 21.6992 8.13323 21.6992ZM6.36566 11.8359Q6.36566 11.1621 6.75628 10.791Q7.14691 10.4199 7.8598 10.4199Q7.99652 10.4199 8.13812 10.4199Q8.27972 10.4199 8.4262 10.4199Q9.12933 10.4199 9.51507 10.791Q9.90081 11.1621 9.90081 11.8359Q9.90081 12.666 9.41253 13.2715Q8.92425 13.877 8.25042 13.877Q8.19183 13.877 8.13812 13.877Q8.08441 13.877 8.02581 13.877Q7.35198 13.877 6.85882 13.2715Q6.36566 12.666 6.36566 11.8359ZM6.37542 8.89648Q5.83831 8.89648 5.46234 8.73047Q5.08636 8.56445 4.88616 8.24707Q4.68597 7.92969 4.68597 7.48047Q4.68597 6.79688 4.96429 6.18652Q5.24261 5.57617 5.72601 5.10254Q6.20941 4.62891 6.82952 4.36035Q7.44964 4.0918 8.13323 4.0918Q8.82659 4.0918 9.44671 4.36035Q10.0668 4.62891 10.5502 5.10254Q11.0336 5.57617 11.3119 6.18652Q11.5903 6.79688 11.5903 7.48047Q11.5903 7.92969 11.3901 8.24707Q11.1899 8.56445 10.809 8.73047Q10.4282 8.89648 9.90081 8.89648ZM1.6098 22.7344Q1.95159 22.7344 2.17132 22.5Q2.39105 22.2656 2.32269 21.8457L1.6098 17.168Q1.54144 16.7285 1.71234 16.499Q1.88323 16.2695 2.39105 16.1328L5.88714 15.1953L5.88714 13.7988L1.57073 14.8242Q0.623468 15.0488 0.26214 15.5371Q-0.0991881 16.0254 0.0375306 16.8848L0.838312 21.9531Q0.88714 22.3145 1.0678 22.5244Q1.24847 22.7344 1.6098 22.7344ZM14.6664 22.7344Q15.0278 22.7344 15.2035 22.5244Q15.3793 22.3145 15.4379 21.9531L16.2387 16.8848Q16.3754 16.0254 16.0092 15.5371Q15.643 15.0488 14.7055 14.8242L10.3891 13.7988L10.3891 15.1953L13.8852 16.1328Q14.393 16.2695 14.5639 16.499Q14.7348 16.7285 14.6664 17.168L13.9535 21.8457Q13.8852 22.2656 14.1049 22.5Q14.3246 22.7344 14.6664 22.7344ZM5.74066 12.7539L5.74066 11.2891L2.87933 10.8789Q2.40081 10.8008 2.13714 10.5957Q1.87347 10.3906 1.87347 9.87305L1.87347 6.79688Q1.87347 6.44531 1.67816 6.24512Q1.48284 6.04492 1.13128 6.04492Q0.779718 6.04492 0.584406 6.24512Q0.389093 6.44531 0.389093 6.79688L0.389093 10.1758Q0.389093 11.084 0.813898 11.5918Q1.2387 12.0996 2.15667 12.2266ZM10.5356 12.7539L14.1196 12.2266Q15.0375 12.0996 15.4623 11.5918Q15.8871 11.084 15.8871 10.1758L15.8871 6.79688Q15.8871 6.44531 15.6918 6.24512Q15.4965 6.04492 15.145 6.04492Q14.7934 6.04492 14.5981 6.24512Q14.4028 6.44531 14.4028 6.79688L14.4028 9.87305Q14.4028 10.3906 14.1391 10.5957Q13.8754 10.8008 13.3969 10.8789L10.5356 11.2891ZM5.22308 4.87305L6.04339 3.83789L5.28167 3.29102Q4.91058 3.02734 4.8764 2.68066Q4.84222 2.33398 5.09612 1.91406L5.60394 1.14258Q5.68206 0.996094 5.71136 0.898438Q5.74066 0.800781 5.74066 0.673828Q5.74066 0.390625 5.54046 0.195312Q5.34027 0 5.03753 0Q4.59808 0 4.33441 0.478516L3.75823 1.42578Q3.29925 2.23633 3.4262 2.96387Q3.55316 3.69141 4.26605 4.19922ZM11.0727 4.88281L12.0492 4.19922Q12.7621 3.69141 12.8891 2.96387Q13.016 2.23633 12.5571 1.42578L11.9809 0.478516Q11.7075 0 11.2778 0Q10.975 0 10.7748 0.195312Q10.5746 0.390625 10.5746 0.673828Q10.5746 0.800781 10.5991 0.898438Q10.6235 0.996094 10.7114 1.14258L11.2192 1.91406Q11.4731 2.33398 11.434 2.68066Q11.395 3.02734 11.0336 3.29102L10.2524 3.84766Z" fill="#ffffff"/>
 </g>
</svg>
