<?xml version="1.0" encoding="UTF-8"?>
<!--Generator: Apple Native CoreSVG 175.5-->
<!DOCTYPE svg
PUBLIC "-//W3C//DTD SVG 1.1//EN"
       "http://www.w3.org/Graphics/SVG/1.1/DTD/svg11.dtd">
<svg version="1.1" xmlns="http://www.w3.org/2000/svg" xmlns:xlink="http://www.w3.org/1999/xlink" width="20.7324" height="18.301">
 <g>
  <rect height="18.301" opacity="0" width="20.7324" x="0" y="0"/>
  <path d="M8.61328 6.94833Q8.61328 7.47567 8.8916 7.90048Q9.16992 8.32528 9.61914 8.53036L9.61914 17.3097Q9.61914 17.6807 9.8291 17.9151Q10.0391 18.1495 10.3711 18.1495Q10.7129 18.1495 10.9131 17.92Q11.1133 17.6905 11.1133 17.3097L11.1133 8.53036Q11.5527 8.32528 11.8359 7.90048Q12.1191 7.47567 12.1191 6.94833Q12.1191 6.46005 11.8848 6.05966Q11.6504 5.65927 11.2549 5.42001Q10.8594 5.18075 10.3711 5.18075Q9.87305 5.18075 9.47754 5.42001Q9.08203 5.65927 8.84766 6.05966Q8.61328 6.46005 8.61328 6.94833Z" fill="#ffffff"/>
  <path d="M4.11133 6.94833Q4.11133 8.02255 4.46289 9.00399Q4.81445 9.98544 5.44922 10.7765Q5.70312 11.1085 6.0791 11.1134Q6.45508 11.1182 6.69922 10.8448Q6.93359 10.5811 6.87012 10.2686Q6.80664 9.95614 6.57227 9.63387Q6.13281 9.087 5.91797 8.39852Q5.70312 7.71005 5.70312 6.94833Q5.70312 6.18661 5.92773 5.50302Q6.15234 4.81942 6.57227 4.26278Q6.80664 3.94052 6.87012 3.62802Q6.93359 3.31552 6.69922 3.05184Q6.45508 2.77841 6.0791 2.78329Q5.70312 2.78817 5.44922 3.1202Q4.81445 3.91122 4.46289 4.89266Q4.11133 5.87411 4.11133 6.94833ZM14.0332 10.8448Q14.2773 11.1182 14.6533 11.1134Q15.0293 11.1085 15.2832 10.7765Q15.918 9.98544 16.2695 9.00399Q16.6211 8.02255 16.6211 6.94833Q16.6211 5.87411 16.2695 4.89266Q15.918 3.91122 15.2832 3.1202Q15.0293 2.78817 14.6533 2.78329Q14.2773 2.77841 14.0332 3.05184Q13.7988 3.31552 13.8623 3.62802Q13.9258 3.94052 14.1602 4.26278Q14.5801 4.81942 14.8047 5.50302Q15.0293 6.18661 15.0293 6.94833Q15.0293 7.71005 14.8145 8.39852Q14.5996 9.087 14.1602 9.63387Q13.9258 9.95614 13.8623 10.2686Q13.7988 10.5811 14.0332 10.8448Z" fill="rgba(255,255,255,0.5)"/>
  <path d="M0 6.94833Q0 8.84286 0.65918 10.5518Q1.31836 12.2608 2.53906 13.5792Q2.82227 13.8917 3.17871 13.8966Q3.53516 13.9015 3.76953 13.628Q4.00391 13.3643 3.9502 13.0421Q3.89648 12.7198 3.63281 12.4171Q2.64648 11.3233 2.11914 9.92196Q1.5918 8.52059 1.5918 6.94833Q1.5918 5.37606 2.11914 3.9747Q2.64648 2.57333 3.63281 1.47958Q3.89648 1.17684 3.9502 0.854578Q4.00391 0.532312 3.76953 0.26864Q3.53516-0.00479715 3.17871 8.56634e-05Q2.82227 0.00496848 2.53906 0.317468Q1.72852 1.19637 1.16211 2.25595Q0.595703 3.31552 0.297852 4.49716Q0 5.6788 0 6.94833ZM16.9629 13.628Q17.1973 13.9015 17.5586 13.8966Q17.9199 13.8917 18.1934 13.5792Q19.4141 12.2608 20.0732 10.5518Q20.7324 8.84286 20.7324 6.94833Q20.7324 5.6788 20.4346 4.49716Q20.1367 3.31552 19.5703 2.25595Q19.0039 1.19637 18.1934 0.317468Q17.9199 0.00496848 17.5586 8.56634e-05Q17.1973-0.00479715 16.9629 0.26864Q16.7285 0.532312 16.7822 0.854578Q16.8359 1.17684 17.0996 1.47958Q18.0859 2.57333 18.6133 3.9747Q19.1406 5.37606 19.1406 6.94833Q19.1406 8.52059 18.6133 9.92196Q18.0859 11.3233 17.0996 12.4171Q16.8359 12.7198 16.7822 13.0421Q16.7285 13.3643 16.9629 13.628Z" fill="rgba(255,255,255,0.5)"/>
 </g>
</svg>
