<?xml version="1.0" encoding="UTF-8"?>
<!--Generator: Apple Native CoreSVG 175.5-->
<!DOCTYPE svg
PUBLIC "-//W3C//DTD SVG 1.1//EN"
       "http://www.w3.org/Graphics/SVG/1.1/DTD/svg11.dtd">
<svg version="1.1" xmlns="http://www.w3.org/2000/svg" xmlns:xlink="http://www.w3.org/1999/xlink" width="20.7324" height="23.1057">
 <g>
  <rect height="23.1057" opacity="0" width="20.7324" x="0" y="0"/>
  <path d="M3.76953 16.0304Q4.00391 15.7667 3.9502 15.4444Q3.89648 15.1222 3.63281 14.8194Q2.64648 13.7257 2.11914 12.3243Q1.5918 10.923 1.5918 9.35069Q1.5918 8.05186 1.95312 6.87999Q2.31445 5.70811 2.98828 4.72178L1.8457 3.57921Q0.957031 4.79014 0.478516 6.26475Q0 7.73936 0 9.35069Q0 11.2452 0.65918 12.9542Q1.31836 14.6632 2.53906 15.9815Q2.82227 16.294 3.17871 16.2989Q3.53516 16.3038 3.76953 16.0304ZM6.69922 13.2472Q6.93359 12.9835 6.87012 12.671Q6.80664 12.3585 6.57227 12.0362Q6.13281 11.4894 5.91797 10.8009Q5.70312 10.1124 5.70312 9.35069Q5.70312 8.921 5.78613 8.52061Q5.86914 8.12022 6.02539 7.74913L4.80469 6.52842Q4.46289 7.16319 4.28711 7.88096Q4.11133 8.59874 4.11133 9.35069Q4.11133 10.4249 4.46289 11.4064Q4.81445 12.3878 5.44922 13.1788Q5.70312 13.5108 6.0791 13.5157Q6.45508 13.5206 6.69922 13.2472ZM10.3711 20.5519Q10.7129 20.5519 10.9131 20.3224Q11.1133 20.0929 11.1133 19.712L11.1133 12.8468L9.61914 11.3526L9.61914 19.712Q9.61914 20.0831 9.8291 20.3175Q10.0391 20.5519 10.3711 20.5519ZM16.0254 11.9679Q16.3184 11.3722 16.4697 10.713Q16.6211 10.0538 16.6211 9.35069Q16.6211 8.27647 16.2695 7.29503Q15.918 6.31358 15.2832 5.52256Q15.0293 5.19053 14.6533 5.18565Q14.2773 5.18077 14.0332 5.45421Q13.7988 5.71788 13.8623 6.03038Q13.9258 6.34288 14.1602 6.66514Q14.5801 7.22178 14.8047 7.90538Q15.0293 8.58897 15.0293 9.35069Q15.0293 9.71202 14.9658 10.0636Q14.9023 10.4151 14.7754 10.7276ZM19.0137 14.9659Q19.834 13.755 20.2832 12.3292Q20.7324 10.9034 20.7324 9.35069Q20.7324 8.08116 20.4346 6.89952Q20.1367 5.71788 19.5703 4.65831Q19.0039 3.59874 18.1934 2.71983Q17.9199 2.40733 17.5586 2.40245Q17.1973 2.39756 16.9629 2.671Q16.7285 2.93467 16.7822 3.25694Q16.8359 3.57921 17.0996 3.88194Q18.0859 4.97569 18.6133 6.37706Q19.1406 7.77842 19.1406 9.35069Q19.1406 10.5909 18.8086 11.714Q18.4766 12.837 17.8516 13.8038Z" fill="rgba(255,255,255,0.5)"/>
  <path d="M18.8867 18.8038Q19.1113 19.0187 19.4287 19.0187Q19.7461 19.0187 19.9512 18.8038Q20.1758 18.5792 20.1758 18.2667Q20.1758 17.9542 19.9512 17.7394L2.44141 0.21983Q2.2168 0.0049867 1.9043 0.00010389Q1.5918-0.00477892 1.36719 0.21983Q1.15234 0.434674 1.15234 0.752057Q1.15234 1.06944 1.36719 1.28428Z" fill="#ffffff"/>
 </g>
</svg>
