<?xml version="1.0" encoding="UTF-8"?>
<!--Generator: Apple Native CoreSVG 175-->
<!DOCTYPE svg
PUBLIC "-//W3C//DTD SVG 1.1//EN"
       "http://www.w3.org/Graphics/SVG/1.1/DTD/svg11.dtd">
<svg version="1.1" xmlns="http://www.w3.org/2000/svg" xmlns:xlink="http://www.w3.org/1999/xlink" width="16.3927" height="20.0363">
 <g>
  <rect height="20.0363" opacity="0" width="16.3927" x="0" y="0"/>
  <path d="M2.35046 6.15463Q2.35046 8.69019 5.42847 9.61334L10.6992 11.218Q13.2672 11.9957 13.2672 13.9883L13.2672 14.7844L13.9886 14.7844L13.9886 13.9883Q13.9886 11.4526 10.9177 10.5254L5.64697 8.92776Q3.07892 8.15277 3.07892 6.15463L3.07892 5.36133L2.35046 5.36133Z" fill="rgba(255,255,255,0.5)"/>
  <path d="M5.21454 0.422668Q5.01846 0.233612 4.73167 0.163879Q4.44489 0.0941467 3.98865 0.0941467L1.52771 0.0941467Q1.09528 0.0941467 0.812073 0.163879Q0.52887 0.233612 0.332794 0.422668Q0.143738 0.625763 0.0718689 0.900574Q0 1.17538 0 1.61484L0 4.06876Q0 4.53201 0.0718689 4.81873Q0.143738 5.10544 0.332794 5.29175Q0.52887 5.4808 0.812073 5.55405Q1.09528 5.62729 1.55853 5.62729L3.98865 5.62729Q4.44489 5.62729 4.73167 5.55405Q5.01846 5.4808 5.21454 5.29175Q5.40085 5.10544 5.46707 4.81873Q5.53329 4.53201 5.53329 4.06876L5.53329 1.64566Q5.53329 1.1824 5.46707 0.900574Q5.40085 0.618744 5.21454 0.422668ZM16.0695 14.8343Q15.8734 14.6452 15.5902 14.5755Q15.307 14.5058 14.8508 14.5058L12.3828 14.5058Q11.9504 14.5058 11.6707 14.5755Q11.391 14.6452 11.1949 14.8343Q10.9988 15.0375 10.9305 15.3123Q10.8621 15.5872 10.8621 16.0266L10.8621 18.4805Q10.8621 18.941 10.9305 19.2291Q10.9988 19.5172 11.1949 19.7035Q11.391 19.8898 11.6707 19.9631Q11.9504 20.0363 12.4109 20.0363L14.8508 20.0363Q15.307 20.0363 15.5902 19.9631Q15.8734 19.8898 16.0695 19.7035Q16.263 19.5172 16.3278 19.2291Q16.3927 18.941 16.3927 18.4805L16.3927 16.0547Q16.3927 15.5942 16.3278 15.311Q16.263 15.0278 16.0695 14.8343Z" fill="#ffffff"/>
 </g>
</svg>
