<?xml version="1.0" encoding="UTF-8"?>
<!--Generator: Apple Native CoreSVG 175-->
<!DOCTYPE svg
PUBLIC "-//W3C//DTD SVG 1.1//EN"
       "http://www.w3.org/Graphics/SVG/1.1/DTD/svg11.dtd">
<svg version="1.1" xmlns="http://www.w3.org/2000/svg" xmlns:xlink="http://www.w3.org/1999/xlink" width="12.4095" height="18.6441">
 <g>
  <rect height="18.6441" opacity="0" width="12.4095" x="0" y="0"/>
  <path d="M0.69458 12.5188L0.69458 6.14212Q0.69458 4.79523 1.44989 4.0345Q2.2052 3.27377 3.5466 3.27377L8.06931 3.27377Q9.41071 3.27377 10.1624 4.0345Q10.9142 4.79523 10.9142 6.14212L10.9142 12.5188Q10.9142 13.8629 10.1624 14.6201Q9.41071 15.3773 8.06931 15.3773L3.5466 15.3773Q2.2052 15.3773 1.44989 14.6201Q0.69458 13.8629 0.69458 12.5188Z" fill="rgba(255,255,255,0.25)"/>
  <path d="M0 12.5832Q0 13.6949 0.38887 14.4414Q0.77774 15.1878 1.57974 15.6398Q1.92383 15.8266 2.09908 16.019Q2.27432 16.2114 2.41379 16.6153L2.83173 17.9625Q3.04184 18.6441 3.75946 18.6441L7.84927 18.6441Q8.58521 18.6441 8.77441 17.9625L9.20914 16.6153Q9.33456 16.2114 9.50974 16.019Q9.68491 15.8266 10.029 15.6398Q10.831 15.1878 11.2199 14.4414Q11.6087 13.6949 11.6087 12.5832L11.6087 6.07498Q11.6087 4.95621 11.2199 4.20975Q10.831 3.46329 10.029 3.01132Q9.68491 2.82455 9.50974 2.63565Q9.33456 2.44675 9.20914 2.03857L8.77441 0.688629Q8.58368 0.00701904 7.84927 0.00701904L3.75946 0.00701904Q3.04184 0.00701904 2.83173 0.688629L2.41379 2.03857Q2.27707 2.44675 2.10182 2.63702Q1.92657 2.8273 1.57974 3.01132Q0.780487 3.45779 0.390244 4.20563Q0 4.95346 0 6.07498ZM0.69458 12.5188L0.69458 6.14212Q0.69458 4.79523 1.44989 4.0345Q2.2052 3.27377 3.5466 3.27377L8.06931 3.27377Q9.41071 3.27377 10.1624 4.0345Q10.9142 4.79523 10.9142 6.14212L10.9142 12.5188Q10.9142 13.8629 10.1624 14.6201Q9.41071 15.3773 8.06931 15.3773L3.5466 15.3773Q2.2052 15.3773 1.44989 14.6201Q0.69458 13.8629 0.69458 12.5188ZM11.3025 8.74603L11.7244 8.74603Q12.0349 8.74603 12.2222 8.54195Q12.4095 8.33786 12.4095 7.9953L12.4095 6.6066Q12.4095 6.27808 12.2222 6.07399Q12.0349 5.8699 11.7244 5.8699L11.3025 5.8699Z" fill="#ffffff"/>
 </g>
</svg>
