<?xml version="1.0" encoding="UTF-8"?>
<!--Generator: Apple Native CoreSVG 175-->
<!DOCTYPE svg
PUBLIC "-//W3C//DTD SVG 1.1//EN"
       "http://www.w3.org/Graphics/SVG/1.1/DTD/svg11.dtd">
<svg version="1.1" xmlns="http://www.w3.org/2000/svg" xmlns:xlink="http://www.w3.org/1999/xlink" width="24.4579" height="23.1091">
 <g>
  <rect height="23.1091" opacity="0" width="24.4579" x="0" y="0"/>
  <path d="M10.0713 2.06924Q10.5125 2.06924 10.8099 1.77544Q11.1072 1.48163 11.1072 1.04309Q11.1072 0.61142 10.805 0.30571Q10.5028 0 10.0713 0Q9.65912 0 9.35204 0.307083Q9.04495 0.614166 9.04495 1.04309Q9.04495 1.47186 9.34715 1.77055Q9.64935 2.06924 10.0713 2.06924ZM5.55359 4.68018Q5.98801 4.68018 6.28387 4.38644Q6.57974 4.09271 6.57974 3.64426Q6.57974 3.21259 6.2825 2.91527Q5.98526 2.61795 5.55359 2.61795Q5.13168 2.61795 4.82956 2.92015Q4.52744 3.22235 4.52744 3.64426Q4.52744 4.08295 4.82468 4.38156Q5.12192 4.68018 5.55359 4.68018ZM14.5985 4.68018Q15.04 4.68018 15.3323 4.38644Q15.6247 4.09271 15.6247 3.64426Q15.6247 3.21259 15.3275 2.91527Q15.0302 2.61795 14.5985 2.61795Q14.1766 2.61795 13.8745 2.92015Q13.5724 3.22235 13.5724 3.64426Q13.5724 4.08295 13.8696 4.38156Q14.1669 4.68018 14.5985 4.68018ZM1.02905 7.3204Q1.46759 7.3204 1.7614 7.02667Q2.05521 6.73294 2.05521 6.2915Q2.05521 5.86258 1.75652 5.56396Q1.45782 5.26535 1.02905 5.26535Q0.600128 5.26535 0.300064 5.56396Q0 5.86258 0 6.2915Q0 6.72318 0.298691 7.02179Q0.597382 7.3204 1.02905 7.3204ZM10.0713 7.64664Q10.645 7.64664 11.0356 7.25243Q11.4262 6.85822 11.4262 6.2915Q11.4262 5.73715 11.0307 5.34164Q10.6352 4.94614 10.0713 4.94614Q9.70901 4.94614 9.39987 5.12856Q9.09073 5.31097 8.90831 5.62019Q8.72589 5.92941 8.72589 6.2915Q8.72589 6.84845 9.1214 7.24754Q9.51691 7.64664 10.0713 7.64664ZM19.0868 7.3204Q19.5255 7.3204 19.8193 7.02667Q20.1131 6.73294 20.1131 6.2915Q20.1131 5.85281 19.8193 5.55908Q19.5255 5.26535 19.0868 5.26535Q18.665 5.26535 18.3614 5.56885Q18.0579 5.87234 18.0579 6.2915Q18.0579 6.72318 18.3566 7.02179Q18.6552 7.3204 19.0868 7.3204ZM5.55359 10.2716Q6.12747 10.2716 6.51321 9.87747Q6.89896 9.48334 6.89896 8.9122Q6.89896 8.3551 6.50345 7.95746Q6.10794 7.55981 5.55359 7.55981Q5.18875 7.55981 4.88091 7.74574Q4.57306 7.93167 4.38713 8.23952Q4.2012 8.54736 4.2012 8.9122Q4.2012 9.47357 4.59534 9.87259Q4.98947 10.2716 5.55359 10.2716ZM14.5985 10.2716Q15.1724 10.2716 15.5617 9.87747Q15.9509 9.48334 15.9509 8.9122Q15.9509 8.3551 15.5519 7.95746Q15.1529 7.55981 14.5985 7.55981Q14.2337 7.55981 13.9294 7.74574Q13.625 7.93167 13.4391 8.23952Q13.2532 8.54736 13.2532 8.9122Q13.2532 9.47357 13.6438 9.87259Q14.0344 10.2716 14.5985 10.2716ZM1.02905 12.5758Q1.46759 12.5758 1.7614 12.2821Q2.05521 11.9884 2.05521 11.5497Q2.05521 11.118 1.75652 10.8208Q1.45782 10.5235 1.02905 10.5235Q0.600128 10.5235 0.300064 10.8221Q0 11.1208 0 11.5497Q0 11.9814 0.298691 12.2786Q0.597382 12.5758 1.02905 12.5758ZM10.0713 13.0942Q10.5072 13.0942 10.8582 12.8873Q11.2091 12.6805 11.4173 12.3282Q11.6255 11.9759 11.6255 11.5497Q11.6255 11.1235 11.4138 10.7726Q11.2021 10.4216 10.8498 10.2134Q10.4974 10.0052 10.0713 10.0052Q9.65485 10.0052 9.30382 10.2134Q8.95279 10.4216 8.7397 10.7739Q8.52661 11.1263 8.52661 11.5497Q8.52661 11.9759 8.73833 12.3268Q8.95004 12.6778 9.30244 12.886Q9.65485 13.0942 10.0713 13.0942ZM19.9634 12.0856Q20.1131 11.8219 20.1131 11.5497Q20.1131 11.111 19.8193 10.8173Q19.5255 10.5235 19.0868 10.5235Q18.665 10.5235 18.3614 10.8257Q18.0579 11.1278 18.0579 11.5497Q18.0579 11.8289 18.2076 12.0898Q18.6333 11.8938 19.0868 11.8938Q19.5404 11.8938 19.9634 12.0856ZM5.55359 15.5396Q6.11069 15.5396 6.50482 15.1454Q6.89896 14.7513 6.89896 14.1872Q6.89896 13.623 6.50345 13.224Q6.10794 12.825 5.55359 12.825Q5.18173 12.825 4.87389 13.0123Q4.56604 13.1996 4.38362 13.5075Q4.2012 13.8153 4.2012 14.1872Q4.2012 14.7415 4.60022 15.1405Q4.99924 15.5396 5.55359 15.5396ZM14.5985 15.5396Q15.0876 15.5396 15.4407 15.2373L15.9454 14.3474L15.9454 14.1438Q15.9334 13.5947 15.5433 13.2098Q15.1532 12.825 14.5985 12.825Q14.0442 12.825 13.6487 13.2289Q13.2532 13.6328 13.2532 14.1872Q13.2532 14.7415 13.6487 15.1405Q14.0442 15.5396 14.5985 15.5396ZM1.02905 17.834Q1.46759 17.834 1.7614 17.5368Q2.05521 17.2395 2.05521 16.7981Q2.05521 16.3762 1.75652 16.0741Q1.45782 15.7719 1.02905 15.7719Q0.607147 15.7719 0.303574 16.0754Q0 16.3789 0 16.7981Q0 17.2368 0.295181 17.5354Q0.590363 17.834 1.02905 17.834ZM10.0713 18.1532Q10.645 18.1532 11.0356 17.7591Q11.4262 17.365 11.4262 16.7981Q11.4262 16.2439 11.0307 15.8483Q10.6352 15.4527 10.0713 15.4527Q9.70901 15.4527 9.40338 15.6387Q9.09775 15.8247 8.91182 16.1304Q8.72589 16.436 8.72589 16.7981Q8.72589 17.3692 9.11789 17.7612Q9.50989 18.1532 10.0713 18.1532ZM5.55359 20.4814Q5.98801 20.4814 6.28387 20.1876Q6.57974 19.8938 6.57974 19.4551Q6.57974 19.0236 6.2825 18.7179Q5.98526 18.4122 5.55359 18.4122Q5.13168 18.4122 4.82956 18.7192Q4.52744 19.0262 4.52744 19.4551Q4.52744 19.884 4.82468 20.1827Q5.12192 20.4814 5.55359 20.4814ZM10.0713 23.0896Q10.5125 23.0896 10.8099 22.7972Q11.1072 22.5047 11.1072 22.0563Q11.1072 21.6248 10.805 21.3274Q10.5028 21.0301 10.0713 21.0301Q9.65912 21.0301 9.35204 21.3323Q9.04495 21.6345 9.04495 22.0563Q9.04495 22.495 9.34715 22.7923Q9.64935 23.0896 10.0713 23.0896Z" fill="rgba(255,255,255,0.5)"/>
  <path d="M14.9258 22.5806L23.2423 22.5806Q23.7845 22.5806 24.1212 22.2151Q24.4579 21.8497 24.4579 21.3634Q24.4579 21.0497 24.2935 20.7513L20.1326 13.3755Q19.9611 13.0786 19.678 12.9196Q19.395 12.7606 19.0868 12.7606Q18.7802 12.7606 18.4888 12.9196Q18.1973 13.0786 18.0286 13.3755L13.8634 20.7681Q13.7059 21.0497 13.7059 21.3634Q13.7059 21.8497 14.0483 22.2151Q14.3907 22.5806 14.9258 22.5806ZM19.077 21.0822Q18.7943 21.0822 18.5923 20.8767Q18.3904 20.6712 18.3904 20.3856Q18.3904 20.1099 18.5958 19.9044Q18.8013 19.6989 19.077 19.6989Q19.3654 19.6989 19.573 19.9079Q19.7806 20.1169 19.7736 20.3856Q19.7665 20.6712 19.5611 20.8767Q19.3556 21.0822 19.077 21.0822ZM19.0868 19.0013Q18.9005 19.0013 18.7815 18.8766Q18.6626 18.752 18.6598 18.5614L18.6029 15.5321Q18.6002 15.3137 18.7329 15.1774Q18.8657 15.041 19.0868 15.041Q19.3051 15.041 19.4379 15.1774Q19.5708 15.3137 19.575 15.5321L19.5181 18.5614Q19.5154 18.752 19.3964 18.8766Q19.2775 19.0013 19.0868 19.0013Z" fill="#ffffff"/>
 </g>
</svg>
