<?xml version="1.0" encoding="UTF-8"?>
<!--Generator: Apple Native CoreSVG 175.5-->
<!DOCTYPE svg
PUBLIC "-//W3C//DTD SVG 1.1//EN"
       "http://www.w3.org/Graphics/SVG/1.1/DTD/svg11.dtd">
<svg version="1.1" xmlns="http://www.w3.org/2000/svg" xmlns:xlink="http://www.w3.org/1999/xlink" width="19.9219" height="19.9316">
 <g>
  <rect height="19.9316" opacity="0" width="19.9219" x="0" y="0"/>
  <path d="M9.96094 19.9219Q12.002 19.9219 13.8037 19.1406Q15.6055 18.3594 16.9824 16.9824Q18.3594 15.6055 19.1406 13.8037Q19.9219 12.002 19.9219 9.96094Q19.9219 7.91992 19.1406 6.11816Q18.3594 4.31641 16.9824 2.93945Q15.6055 1.5625 13.7988 0.78125Q11.9922 0 9.95117 0Q7.91016 0 6.1084 0.78125Q4.30664 1.5625 2.93457 2.93945Q1.5625 4.31641 0.78125 6.11816Q0 7.91992 0 9.96094Q0 12.002 0.78125 13.8037Q1.5625 15.6055 2.93945 16.9824Q4.31641 18.3594 6.11816 19.1406Q7.91992 19.9219 9.96094 19.9219ZM9.96094 18.2617Q8.23242 18.2617 6.72852 17.6172Q5.22461 16.9727 4.08691 15.835Q2.94922 14.6973 2.30957 13.1934Q1.66992 11.6895 1.66992 9.96094Q1.66992 8.23242 2.30957 6.72852Q2.94922 5.22461 4.08203 4.08203Q5.21484 2.93945 6.71875 2.2998Q8.22266 1.66016 9.95117 1.66016Q11.6797 1.66016 13.1885 2.2998Q14.6973 2.93945 15.835 4.08203Q16.9727 5.22461 17.6172 6.72852Q18.2617 8.23242 18.2617 9.96094Q18.2617 11.6895 17.6221 13.1934Q16.9824 14.6973 15.8398 15.835Q14.6973 16.9727 13.1934 17.6172Q11.6895 18.2617 9.96094 18.2617Z" fill="rgba(255,255,255,0.5)"/>
  <path d="M7.09961 14.9023L12.8125 14.9023Q13.5742 14.9023 13.9795 14.5117Q14.3848 14.1211 14.3848 13.3496L14.3848 8.4375L5.52734 8.4375L5.52734 13.3496Q5.52734 14.1211 5.93262 14.5117Q6.33789 14.9023 7.09961 14.9023ZM8.24219 10.3223Q8.07617 10.3223 7.97363 10.2148Q7.87109 10.1074 7.87109 9.94141L7.87109 9.77539Q7.87109 9.59961 7.97363 9.50195Q8.07617 9.4043 8.24219 9.4043L11.6797 9.4043Q11.8457 9.4043 11.9434 9.50195Q12.041 9.59961 12.041 9.77539L12.041 9.94141Q12.041 10.1074 11.9434 10.2148Q11.8457 10.3223 11.6797 10.3223ZM5.63477 7.65625L14.2773 7.65625Q14.7168 7.65625 14.9365 7.41211Q15.1562 7.16797 15.1562 6.72852L15.1562 6.25977Q15.1562 5.82031 14.9365 5.57129Q14.7168 5.32227 14.2773 5.32227L5.63477 5.32227Q5.22461 5.32227 4.99023 5.57129Q4.75586 5.82031 4.75586 6.25977L4.75586 6.72852Q4.75586 7.16797 4.97559 7.41211Q5.19531 7.65625 5.63477 7.65625Z" fill="#ffffff"/>
 </g>
</svg>
