<?xml version="1.0" encoding="UTF-8"?>
<!--Generator: Apple Native CoreSVG 175-->
<!DOCTYPE svg
PUBLIC "-//W3C//DTD SVG 1.1//EN"
       "http://www.w3.org/Graphics/SVG/1.1/DTD/svg11.dtd">
<svg version="1.1" xmlns="http://www.w3.org/2000/svg" xmlns:xlink="http://www.w3.org/1999/xlink" width="16.7726" height="18.5083">
 <g>
  <rect height="18.5083" opacity="0" width="16.7726" x="0" y="0"/>
  <path d="M8.38648 18.5083Q8.75101 18.5083 8.75101 18.0919L8.75101 11.6849Q8.75101 10.8833 9.15041 9.88388Q9.54981 8.88443 10.2703 7.83226Q10.9908 6.78009 11.9604 5.81253Q12.9299 4.84497 14.0673 4.10004L14.7431 3.66257Q14.9732 3.51135 14.9732 3.29453Q14.9732 3.13995 14.8703 3.03696Q14.7674 2.93396 14.6002 2.93396Q14.4302 2.93396 14.2729 3.03757L13.6639 3.44269Q12.5572 4.17892 11.6329 5.09003Q10.7087 6.00113 10.0146 6.94626Q9.32047 7.89139 8.90642 8.74001Q8.49237 9.58862 8.41028 10.2043L8.36695 10.2043Q8.27783 9.58862 7.86516 8.74001Q7.45249 7.89139 6.7605 6.94489Q6.06851 5.99838 5.14215 5.08865Q4.21579 4.17892 3.10922 3.44269L2.50025 3.03757Q2.34003 2.93396 2.17707 2.93396Q2.00998 2.93396 1.90836 3.03612Q1.80673 3.13828 1.80673 3.29178Q1.80673 3.51135 2.02982 3.66257L2.70563 4.10004Q3.85019 4.84497 4.81836 5.81253Q5.78653 6.78009 6.50347 7.83226Q7.2204 8.88443 7.62125 9.88388Q8.0221 10.8833 8.0221 11.6849L8.0221 18.0919Q8.0221 18.5083 8.38648 18.5083ZM1.85755 5.65704L4.36701 2.25281Q4.53882 2.01843 4.44452 1.83792Q4.35022 1.65741 4.0307 1.65192L0.442751 1.56326Q0.1803 1.55777 0.0657828 1.707Q-0.0487345 1.85623 0.0361044 2.11609L1.18021 5.50705Q1.28458 5.8168 1.48378 5.85548Q1.68299 5.89417 1.85755 5.65704ZM14.8966 5.6543Q15.0659 5.89417 15.2664 5.85472Q15.467 5.81528 15.567 5.51529L16.7341 2.1254Q16.8217 1.87271 16.71 1.7186Q16.5983 1.56448 16.3357 1.57425L12.7451 1.63284Q12.4256 1.64261 12.3285 1.82037Q12.2314 1.99814 12.4076 2.23526Z" fill="#ffffff"/>
 </g>
</svg>
