<?xml version="1.0" encoding="UTF-8"?>
<!--Generator: Apple Native CoreSVG 175.5-->
<!DOCTYPE svg
PUBLIC "-//W3C//DTD SVG 1.1//EN"
       "http://www.w3.org/Graphics/SVG/1.1/DTD/svg11.dtd">
<svg version="1.1" xmlns="http://www.w3.org/2000/svg" xmlns:xlink="http://www.w3.org/1999/xlink" width="19.9219" height="19.9316">
 <g>
  <rect height="19.9316" opacity="0" width="19.9219" x="0" y="0"/>
  <path d="M9.96094 19.9219Q12.002 19.9219 13.8037 19.1406Q15.6055 18.3594 16.9824 16.9824Q18.3594 15.6055 19.1406 13.8037Q19.9219 12.002 19.9219 9.96094Q19.9219 7.91992 19.1406 6.11816Q18.3594 4.31641 16.9824 2.93945Q15.6055 1.5625 13.7988 0.78125Q11.9922 0 9.95117 0Q7.91016 0 6.1084 0.78125Q4.30664 1.5625 2.93457 2.93945Q1.5625 4.31641 0.78125 6.11816Q0 7.91992 0 9.96094Q0 12.002 0.78125 13.8037Q1.5625 15.6055 2.93945 16.9824Q4.31641 18.3594 6.11816 19.1406Q7.91992 19.9219 9.96094 19.9219Z" fill="rgba(255,255,255,0.25)"/>
  <path d="M3.63281 9.96094Q3.63281 9.67773 3.82324 9.4873Q4.01367 9.29688 4.31641 9.29688L8.92578 9.29688L10.7617 9.39453L8.71094 7.57812L8.08594 6.97266Q7.97852 6.875 7.93457 6.74316Q7.89062 6.61133 7.89062 6.47461Q7.89062 6.19141 8.08594 6.01074Q8.28125 5.83008 8.55469 5.83008Q8.85742 5.83008 9.05273 6.03516L12.5293 9.45312Q12.6367 9.56055 12.7002 9.69238Q12.7637 9.82422 12.7637 9.96094Q12.7637 10.1074 12.7051 10.2344Q12.6465 10.3613 12.5293 10.4688L9.0625 13.8574Q8.96484 13.9551 8.82324 14.0186Q8.68164 14.082 8.55469 14.082Q8.26172 14.082 8.07617 13.8965Q7.89062 13.7109 7.89062 13.4277Q7.89062 13.2715 7.93457 13.1494Q7.97852 13.0273 8.08594 12.9395L8.7207 12.3535L10.7715 10.5273L8.92578 10.6543L4.31641 10.6543Q4.01367 10.6543 3.82324 10.4639Q3.63281 10.2734 3.63281 9.96094ZM14.1992 14.4043Q13.916 14.4043 13.7256 14.2188Q13.5352 14.0332 13.5352 13.7402L13.5352 6.17188Q13.5352 5.87891 13.7256 5.68848Q13.916 5.49805 14.1992 5.49805Q14.502 5.49805 14.6924 5.68848Q14.8828 5.87891 14.8828 6.17188L14.8828 13.7402Q14.8828 14.0332 14.6924 14.2188Q14.502 14.4043 14.1992 14.4043Z" fill="#ffffff"/>
 </g>
</svg>
