<?xml version="1.0" encoding="UTF-8"?>
<!--Generator: Apple Native CoreSVG 175-->
<!DOCTYPE svg
PUBLIC "-//W3C//DTD SVG 1.1//EN"
       "http://www.w3.org/Graphics/SVG/1.1/DTD/svg11.dtd">
<svg version="1.1" xmlns="http://www.w3.org/2000/svg" xmlns:xlink="http://www.w3.org/1999/xlink" width="22.666" height="17.2949">
 <g>
  <rect height="17.2949" opacity="0" width="22.666" x="0" y="0"/>
  <path d="M2.62695 17.2852L20.0195 17.2852Q21.3281 17.2852 21.9971 16.6113Q22.666 15.9375 22.666 14.6582L22.666 2.62695Q22.666 1.34766 21.9971 0.673828Q21.3281 0 20.0195 0L2.62695 0Q1.33789 0 0.668945 0.668945Q0 1.33789 0 2.62695L0 14.6582Q0 15.957 0.668945 16.6211Q1.33789 17.2852 2.62695 17.2852Z" fill="rgba(255,255,255,0.25)"/>
  <path d="M3.75 10.127Q3.75 9.99023 3.86719 9.87305L8.1543 5.58594L9.48242 4.28711L6.17188 4.35547L5.03906 4.35547Q4.88281 4.35547 4.78516 4.25781Q4.6875 4.16016 4.6875 4.01367Q4.6875 3.84766 4.78516 3.75488Q4.88281 3.66211 5.03906 3.66211L10.2051 3.66211Q10.3711 3.66211 10.4639 3.75977Q10.5566 3.85742 10.5566 4.01367L10.5566 8.65234Q10.5566 8.80859 10.4639 8.90625Q10.3711 9.00391 10.2148 9.00391Q10.0586 9.00391 9.96094 8.90625Q9.86328 8.80859 9.86328 8.65234L9.86328 7.51953L9.93164 4.72656L8.63281 6.06445L4.3457 10.3516Q4.22852 10.4688 4.0918 10.4688Q3.94531 10.4688 3.84766 10.3711Q3.75 10.2734 3.75 10.127ZM19.4238 7.13867Q19.4238 7.27539 19.3066 7.39258L15.0195 11.6797L13.6816 12.9883L17.002 12.9102L18.1348 12.9102Q18.291 12.9102 18.3887 13.0078Q18.4863 13.1055 18.4863 13.2617Q18.4863 13.418 18.3887 13.5156Q18.291 13.6133 18.1348 13.6133L12.9688 13.6133Q12.8125 13.6133 12.7148 13.5107Q12.6172 13.4082 12.6172 13.252L12.6172 8.61328Q12.6172 8.45703 12.71 8.35938Q12.8027 8.26172 12.959 8.26172Q13.1152 8.26172 13.2129 8.35938Q13.3105 8.45703 13.3105 8.61328L13.3105 9.74609L13.252 12.5391L14.541 11.2012L18.8281 6.91406Q18.9453 6.79688 19.082 6.79688Q19.2285 6.79688 19.3262 6.89453Q19.4238 6.99219 19.4238 7.13867Z" fill="#ffffff"/>
 </g>
</svg>
