<?xml version="1.0" encoding="UTF-8"?>
<!--Generator: Apple Native CoreSVG 175-->
<!DOCTYPE svg
PUBLIC "-//W3C//DTD SVG 1.1//EN"
       "http://www.w3.org/Graphics/SVG/1.1/DTD/svg11.dtd">
<svg version="1.1" xmlns="http://www.w3.org/2000/svg" xmlns:xlink="http://www.w3.org/1999/xlink" width="19.1602" height="19.1504">
 <g>
  <rect height="19.1504" opacity="0" width="19.1602" x="0" y="0"/>
  <path d="M9.57031 19.1406Q11.5527 19.1406 13.2861 18.3984Q15.0195 17.6562 16.3379 16.333Q17.6562 15.0098 18.4082 13.2764Q19.1602 11.543 19.1602 9.57031Q19.1602 7.59766 18.4082 5.86426Q17.6562 4.13086 16.3379 2.80762Q15.0195 1.48438 13.2861 0.742188Q11.5527 0 9.57031 0Q7.59766 0 5.86426 0.742188Q4.13086 1.48438 2.81738 2.80762Q1.50391 4.13086 0.751953 5.86426Q0 7.59766 0 9.57031Q0 11.543 0.74707 13.2764Q1.49414 15.0098 2.8125 16.333Q4.13086 17.6562 5.86914 18.3984Q7.60742 19.1406 9.57031 19.1406Z" fill="rgba(255,255,255,0.25)"/>
  <path d="M14.6289 9.55078Q14.6289 9.70703 14.502 9.82422L10.7715 13.5547Q10.6641 13.6621 10.5176 13.6621Q10.3613 13.6621 10.2734 13.5645Q10.1855 13.4668 10.1855 13.3301Q10.1855 13.1836 10.3125 13.0566L12.2461 11.1133L13.5059 9.88281L12.0312 9.92188L4.87305 9.92188Q4.70703 9.92188 4.60449 9.81934Q4.50195 9.7168 4.50195 9.57031Q4.50195 9.39453 4.60938 9.29199Q4.7168 9.18945 4.87305 9.18945L12.0312 9.18945L13.5059 9.23828L12.2461 7.99805L10.3125 6.05469Q10.1855 5.92773 10.1855 5.78125Q10.1855 5.64453 10.2734 5.55176Q10.3613 5.45898 10.5176 5.45898Q10.6641 5.45898 10.7715 5.56641L14.502 9.29688Q14.6289 9.41406 14.6289 9.55078Z" fill="#ffffff"/>
 </g>
</svg>
