<?xml version="1.0" encoding="UTF-8"?>
<!--Generator: Apple Native CoreSVG 175.5-->
<!DOCTYPE svg
PUBLIC "-//W3C//DTD SVG 1.1//EN"
       "http://www.w3.org/Graphics/SVG/1.1/DTD/svg11.dtd">
<svg version="1.1" xmlns="http://www.w3.org/2000/svg" xmlns:xlink="http://www.w3.org/1999/xlink" width="16.4258" height="20.9473">
 <g>
  <rect height="20.9473" opacity="0" width="16.4258" x="0" y="0"/>
  <path d="M3.02734 20.9375L13.3984 20.9375Q14.9121 20.9375 15.6689 20.1709Q16.4258 19.4043 16.4258 17.8809L16.4258 9.01367L9.35547 9.01367Q7.50977 9.01367 7.50977 7.16797L7.50977 0L3.02734 0Q1.51367 0 0.756836 0.771484Q0 1.54297 0 3.06641L0 17.8809Q0 19.4141 0.756836 20.1758Q1.51367 20.9375 3.02734 20.9375ZM9.38477 7.67578L16.3086 7.67578Q16.2598 7.37305 16.0547 7.07031Q15.8496 6.76758 15.498 6.40625L10.1172 0.927734Q9.77539 0.576172 9.46289 0.366211Q9.15039 0.15625 8.84766 0.107422L8.84766 7.14844Q8.84766 7.67578 9.38477 7.67578Z" fill="rgba(255,255,255,0.25)"/>
  <path d="M8.21289 18.3984Q7.91992 18.3984 7.70996 18.1934Q7.5 17.9883 7.5 17.7051L7.5 14.248L7.55859 12.7051L6.73828 13.5449L5.88867 14.4141Q5.78125 14.5117 5.64941 14.5703Q5.51758 14.6289 5.38086 14.6289Q5.08789 14.6289 4.90234 14.4482Q4.7168 14.2676 4.7168 13.9844Q4.7168 13.8281 4.78027 13.7012Q4.84375 13.5742 4.95117 13.4766L7.68555 10.957Q7.83203 10.8203 7.9541 10.7666Q8.07617 10.7129 8.21289 10.7129Q8.34961 10.7129 8.47168 10.7666Q8.59375 10.8203 8.74023 10.957L11.4746 13.4766Q11.582 13.5742 11.6455 13.7012Q11.709 13.8281 11.709 13.9844Q11.709 14.2676 11.5186 14.4482Q11.3281 14.6289 11.0449 14.6289Q10.9082 14.6289 10.7764 14.5703Q10.6445 14.5117 10.5371 14.4141L9.6875 13.5449L8.86719 12.7051L8.93555 14.248L8.93555 17.7051Q8.93555 17.9883 8.7207 18.1934Q8.50586 18.3984 8.21289 18.3984Z" fill="#ffffff"/>
 </g>
</svg>
