<?xml version="1.0" encoding="UTF-8"?>
<!--Generator: Apple Native CoreSVG 175.5-->
<!DOCTYPE svg
PUBLIC "-//W3C//DTD SVG 1.1//EN"
       "http://www.w3.org/Graphics/SVG/1.1/DTD/svg11.dtd">
<svg version="1.1" xmlns="http://www.w3.org/2000/svg" xmlns:xlink="http://www.w3.org/1999/xlink" width="19.9219" height="19.9316">
 <g>
  <rect height="19.9316" opacity="0" width="19.9219" x="0" y="0"/>
  <path d="M9.96094 19.9316Q12.002 19.9316 13.8037 19.1504Q15.6055 18.3691 16.9824 16.9922Q18.3594 15.6152 19.1406 13.8135Q19.9219 12.0117 19.9219 9.9707Q19.9219 7.92969 19.1406 6.12793Q18.3594 4.32617 16.9824 2.94922Q15.6055 1.57227 13.7988 0.791016Q11.9922 0.00976562 9.95117 0.00976562Q7.91016 0.00976562 6.1084 0.791016Q4.30664 1.57227 2.93457 2.94922Q1.5625 4.32617 0.78125 6.12793Q0 7.92969 0 9.9707Q0 12.0117 0.78125 13.8135Q1.5625 15.6152 2.93945 16.9922Q4.31641 18.3691 6.11816 19.1504Q7.91992 19.9316 9.96094 19.9316Z" fill="rgba(255,255,255,0.25)"/>
  <path d="M5.46875 10.4297Q5.46875 9.19922 6.06934 8.19824Q6.66992 7.19727 7.65137 6.61133Q8.63281 6.02539 9.76562 6.02539Q9.83398 6.02539 9.90723 6.03027Q9.98047 6.03516 10.0293 6.04492L9.32617 5.32227Q9.24805 5.23438 9.19922 5.1123Q9.15039 4.99023 9.15039 4.85352Q9.15039 4.58984 9.33594 4.39941Q9.52148 4.20898 9.79492 4.20898Q9.92188 4.20898 10.0439 4.26758Q10.166 4.32617 10.2539 4.41406L12.1875 6.38672Q12.3633 6.57227 12.3682 6.85547Q12.373 7.13867 12.1875 7.31445L10.2344 9.26758Q10.0391 9.46289 9.79492 9.46289Q9.52148 9.46289 9.33594 9.27734Q9.15039 9.0918 9.15039 8.81836Q9.15039 8.55469 9.3457 8.35938L10.3125 7.39258Q10.1758 7.37305 9.96094 7.37305Q9.10156 7.37305 8.39844 7.78809Q7.69531 8.20312 7.28027 8.90625Q6.86523 9.60938 6.86523 10.4688Q6.86523 11.3379 7.28027 12.041Q7.69531 12.7441 8.39844 13.1641Q9.10156 13.584 9.96094 13.584Q10.8203 13.584 11.5234 13.1641Q12.2266 12.7441 12.6416 12.041Q13.0566 11.3379 13.0566 10.4688Q13.0566 10.1855 13.2617 9.98535Q13.4668 9.78516 13.7598 9.78516Q14.0332 9.78516 14.2432 9.98535Q14.4531 10.1855 14.4531 10.4688Q14.4531 11.709 13.8477 12.7344Q13.2422 13.7598 12.2217 14.3701Q11.2012 14.9805 9.96094 14.9805Q8.71094 14.9805 7.69531 14.3701Q6.67969 13.7598 6.07422 12.7246Q5.46875 11.6895 5.46875 10.4297Z" fill="#ffffff"/>
 </g>
</svg>
