<?xml version="1.0" encoding="UTF-8"?>
<!--Generator: Apple Native CoreSVG 175.5-->
<!DOCTYPE svg
PUBLIC "-//W3C//DTD SVG 1.1//EN"
       "http://www.w3.org/Graphics/SVG/1.1/DTD/svg11.dtd">
<svg version="1.1" xmlns="http://www.w3.org/2000/svg" xmlns:xlink="http://www.w3.org/1999/xlink" width="19.9219" height="19.9316">
 <g>
  <rect height="19.9316" opacity="0" width="19.9219" x="0" y="0"/>
  <path d="M9.96094 19.9219Q12.002 19.9219 13.8037 19.1406Q15.6055 18.3594 16.9824 16.9824Q18.3594 15.6055 19.1406 13.8037Q19.9219 12.002 19.9219 9.96094Q19.9219 7.91992 19.1406 6.11816Q18.3594 4.31641 16.9824 2.93945Q15.6055 1.5625 13.7988 0.78125Q11.9922 0 9.95117 0Q7.91016 0 6.1084 0.78125Q4.30664 1.5625 2.93457 2.93945Q1.5625 4.31641 0.78125 6.11816Q0 7.91992 0 9.96094Q0 12.002 0.78125 13.8037Q1.5625 15.6055 2.93945 16.9824Q4.31641 18.3594 6.11816 19.1406Q7.91992 19.9219 9.96094 19.9219ZM9.96094 18.2617Q8.23242 18.2617 6.72852 17.6172Q5.22461 16.9727 4.08691 15.835Q2.94922 14.6973 2.30957 13.1934Q1.66992 11.6895 1.66992 9.96094Q1.66992 8.23242 2.30957 6.72852Q2.94922 5.22461 4.08203 4.08203Q5.21484 2.93945 6.71875 2.2998Q8.22266 1.66016 9.95117 1.66016Q11.6797 1.66016 13.1885 2.2998Q14.6973 2.93945 15.835 4.08203Q16.9727 5.22461 17.6172 6.72852Q18.2617 8.23242 18.2617 9.96094Q18.2617 11.6895 17.6221 13.1934Q16.9824 14.6973 15.8398 15.835Q14.6973 16.9727 13.1934 17.6172Q11.6895 18.2617 9.96094 18.2617Z" fill="rgba(255,255,255,0.5)"/>
  <path d="M10 15.4004Q10.9082 15.4004 11.7773 15.1025Q12.6465 14.8047 13.2812 14.2773Q13.6328 13.9941 13.7061 13.6523Q13.7793 13.3105 13.5254 13.0371Q13.2715 12.7637 12.9541 12.7832Q12.6367 12.8027 12.3535 13.0176Q11.8262 13.4277 11.2646 13.6475Q10.7031 13.8672 10 13.8672Q9.02344 13.8672 8.19824 13.4668Q7.37305 13.0664 6.79688 12.3779Q6.2207 11.6895 6.00586 10.8203L7.03125 10.8203Q7.37305 10.8203 7.45117 10.5615Q7.5293 10.3027 7.34375 10.0391L5.75195 7.8418Q5.55664 7.56836 5.26367 7.55859Q4.9707 7.54883 4.76562 7.8418L3.20312 10.0391Q3.01758 10.3027 3.09082 10.5615Q3.16406 10.8203 3.50586 10.8203L4.54102 10.8203Q4.77539 12.1777 5.53711 13.208Q6.29883 14.2383 7.45117 14.8193Q8.60352 15.4004 10 15.4004ZM9.98047 4.46289Q9.0625 4.46289 8.19336 4.76562Q7.32422 5.06836 6.68945 5.5957Q6.33789 5.86914 6.26953 6.21582Q6.20117 6.5625 6.44531 6.82617Q6.70898 7.10938 7.02148 7.08496Q7.33398 7.06055 7.62695 6.8457Q8.1543 6.43555 8.71094 6.2207Q9.26758 6.00586 9.98047 6.00586Q10.9473 6.00586 11.7725 6.40137Q12.5977 6.79688 13.1738 7.48535Q13.75 8.17383 13.9648 9.04297L12.8809 9.04297Q12.5391 9.04297 12.4658 9.30176Q12.3926 9.56055 12.5781 9.82422L14.1602 12.0312Q14.3555 12.2949 14.6484 12.3096Q14.9414 12.3242 15.1465 12.0312L16.709 9.82422Q16.9043 9.56055 16.8311 9.30176Q16.7578 9.04297 16.416 9.04297L15.4395 9.04297Q15.1953 7.68555 14.4336 6.65527Q13.6719 5.625 12.5195 5.04395Q11.3672 4.46289 9.98047 4.46289Z" fill="#ffffff"/>
 </g>
</svg>
