<?xml version="1.0" encoding="UTF-8"?>
<!--Generator: Apple Native CoreSVG 175.5-->
<!DOCTYPE svg
PUBLIC "-//W3C//DTD SVG 1.1//EN"
       "http://www.w3.org/Graphics/SVG/1.1/DTD/svg11.dtd">
<svg version="1.1" xmlns="http://www.w3.org/2000/svg" xmlns:xlink="http://www.w3.org/1999/xlink" width="19.9219" height="19.9316">
 <g>
  <rect height="19.9316" opacity="0" width="19.9219" x="0" y="0"/>
  <path d="M9.96094 19.9219Q12.002 19.9219 13.8037 19.1406Q15.6055 18.3594 16.9824 16.9824Q18.3594 15.6055 19.1406 13.8037Q19.9219 12.002 19.9219 9.96094Q19.9219 7.91992 19.1406 6.11816Q18.3594 4.31641 16.9824 2.93945Q15.6055 1.5625 13.7988 0.78125Q11.9922 0 9.95117 0Q7.91016 0 6.1084 0.78125Q4.30664 1.5625 2.93457 2.93945Q1.5625 4.31641 0.78125 6.11816Q0 7.91992 0 9.96094Q0 12.002 0.78125 13.8037Q1.5625 15.6055 2.93945 16.9824Q4.31641 18.3594 6.11816 19.1406Q7.91992 19.9219 9.96094 19.9219Z" fill="rgba(255,255,255,0.25)"/>
  <path d="M6.35742 5.26367Q6.57227 5.04883 6.8457 5.05859Q7.11914 5.06836 7.31445 5.26367L9.78516 7.79297Q9.99023 7.98828 9.99023 8.26172Q9.99023 8.55469 9.80957 8.73535Q9.62891 8.91602 9.35547 8.91602Q9.07227 8.91602 8.88672 8.73047L7.85156 7.64648L7.4707 7.23633L7.5 7.71484L7.5 14.2383Q7.5 14.5117 7.31445 14.6924Q7.12891 14.873 6.83594 14.873Q6.55273 14.873 6.36719 14.6924Q6.18164 14.5117 6.18164 14.2383L6.18164 7.72461L6.20117 7.23633L5.82031 7.64648L4.78516 8.71094Q4.58984 8.91602 4.32617 8.91602Q4.04297 8.91602 3.85742 8.73047Q3.67188 8.54492 3.67188 8.26172Q3.67188 8.1543 3.73047 8.02734Q3.78906 7.90039 3.87695 7.79297ZM13.5742 14.6777Q13.3691 14.873 13.0762 14.873Q12.7832 14.873 12.5879 14.6777L10.1172 12.1582Q9.92188 11.9336 9.92188 11.6797Q9.92188 11.3965 10.0977 11.2158Q10.2734 11.0352 10.5664 11.0352Q10.8496 11.0352 11.0254 11.2305L12.0605 12.2852L12.4414 12.7051L12.4121 12.2363L12.4121 5.70312Q12.4121 5.42969 12.6025 5.24414Q12.793 5.05859 13.0859 5.05859Q13.3594 5.05859 13.5449 5.24414Q13.7305 5.42969 13.7305 5.70312L13.7305 12.2266L13.7207 12.6953L14.1016 12.2852L15.1367 11.2305Q15.332 11.0352 15.5859 11.0352Q15.8789 11.0352 16.0645 11.2158Q16.25 11.3965 16.25 11.6797Q16.25 11.9238 16.0352 12.1582Z" fill="#ffffff"/>
 </g>
</svg>
