<?xml version="1.0" encoding="UTF-8"?>
<!--Generator: Apple Native CoreSVG 175.5-->
<!DOCTYPE svg
PUBLIC "-//W3C//DTD SVG 1.1//EN"
       "http://www.w3.org/Graphics/SVG/1.1/DTD/svg11.dtd">
<svg version="1.1" xmlns="http://www.w3.org/2000/svg" xmlns:xlink="http://www.w3.org/1999/xlink" width="19.9219" height="19.9316">
 <g>
  <rect height="19.9316" opacity="0" width="19.9219" x="0" y="0"/>
  <path d="M9.96094 19.9219Q12.002 19.9219 13.8037 19.1406Q15.6055 18.3594 16.9824 16.9824Q18.3594 15.6055 19.1406 13.8037Q19.9219 12.002 19.9219 9.96094Q19.9219 7.91992 19.1406 6.11816Q18.3594 4.31641 16.9824 2.93945Q15.6055 1.5625 13.7988 0.78125Q11.9922 0 9.95117 0Q7.91016 0 6.1084 0.78125Q4.30664 1.5625 2.93457 2.93945Q1.5625 4.31641 0.78125 6.11816Q0 7.91992 0 9.96094Q0 12.002 0.78125 13.8037Q1.5625 15.6055 2.93945 16.9824Q4.31641 18.3594 6.11816 19.1406Q7.91992 19.9219 9.96094 19.9219Z" fill="rgba(255,255,255,0.25)"/>
  <path d="M4.79492 9.94141Q4.79492 9.64844 5.08789 9.35547L8.48633 5.94727Q8.68164 5.74219 9.01367 5.74219Q9.32617 5.74219 9.53613 5.95215Q9.74609 6.16211 9.74609 6.47461Q9.74609 6.76758 9.51172 7.01172L8.26172 8.25195L7.05078 9.26758L9.17969 9.17969L14.4043 9.17969Q14.7363 9.17969 14.9512 9.39453Q15.166 9.60938 15.166 9.94141Q15.166 10.2734 14.9512 10.4883Q14.7363 10.7031 14.4043 10.7031L9.17969 10.7031L7.04102 10.6152L8.26172 11.6406L9.51172 12.8711Q9.74609 13.0957 9.74609 13.418Q9.74609 13.7305 9.53613 13.9453Q9.32617 14.1602 9.01367 14.1602Q8.69141 14.1602 8.48633 13.9453L5.08789 10.5371Q4.79492 10.2441 4.79492 9.94141Z" fill="#ffffff"/>
 </g>
</svg>
