<?xml version="1.0" encoding="UTF-8"?>
<!--Generator: Apple Native CoreSVG 175-->
<!DOCTYPE svg
PUBLIC "-//W3C//DTD SVG 1.1//EN"
       "http://www.w3.org/Graphics/SVG/1.1/DTD/svg11.dtd">
<svg version="1.1" xmlns="http://www.w3.org/2000/svg" xmlns:xlink="http://www.w3.org/1999/xlink" width="17.2852" height="17.3145">
 <g>
  <rect height="17.3145" opacity="0" width="17.2852" x="0" y="0"/>
  <path d="M2.62695 17.3145L14.6484 17.3145Q15.957 17.3145 16.6211 16.6455Q17.2852 15.9766 17.2852 14.6875L17.2852 2.65625Q17.2852 1.37695 16.6211 0.703125Q15.957 0.0292969 14.6484 0.0292969L2.62695 0.0292969Q1.33789 0.0292969 0.668945 0.693359Q0 1.35742 0 2.65625L0 14.6875Q0 15.9863 0.668945 16.6504Q1.33789 17.3145 2.62695 17.3145Z" fill="rgba(255,255,255,0.25)"/>
  <path d="M12.002 6.32812Q12.1484 6.32812 12.2461 6.43066Q12.3438 6.5332 12.3438 6.70898L12.3438 11.9531Q12.3438 12.1289 12.2412 12.2266Q12.1387 12.3242 11.9727 12.3242L6.70898 12.3242Q6.54297 12.3242 6.44043 12.2314Q6.33789 12.1387 6.33789 11.9922Q6.33789 11.8359 6.44043 11.7334Q6.54297 11.6309 6.71875 11.6309L9.84375 11.6309L11.2109 11.6699L10.1465 10.6445L5.07812 5.57617Q4.96094 5.45898 4.96094 5.30273Q4.96094 5.14648 5.05859 5.04883Q5.15625 4.95117 5.3125 4.95117Q5.41016 4.95117 5.4834 4.98047Q5.55664 5.00977 5.60547 5.06836L10.6641 10.127L11.6797 11.1914L11.6406 9.45312L11.6406 6.69922Q11.6406 6.52344 11.7383 6.42578Q11.8359 6.32812 12.002 6.32812Z" fill="#ffffff"/>
 </g>
</svg>
