<?xml version="1.0" encoding="UTF-8"?>
<!--Generator: Apple Native CoreSVG 175.5-->
<!DOCTYPE svg
PUBLIC "-//W3C//DTD SVG 1.1//EN"
       "http://www.w3.org/Graphics/SVG/1.1/DTD/svg11.dtd">
<svg version="1.1" xmlns="http://www.w3.org/2000/svg" xmlns:xlink="http://www.w3.org/1999/xlink" width="19.1583" height="18.008">
 <g>
  <rect height="18.008" opacity="0" width="19.1583" x="0" y="0"/>
  <path d="M2.06078 13.0714L3.80883 13.0714L3.80883 4.98542Q3.80883 3.71589 4.4973 2.9737Q5.18578 2.23151 6.24047 2.23151Q7.30492 2.23151 8.00805 2.96882Q8.71117 3.70612 8.71117 4.98542L8.71117 11.6749Q8.71117 13.0909 9.25316 14.1309Q9.79515 15.171 10.7473 15.7374Q11.6995 16.3038 12.9202 16.3038Q14.1409 16.3038 15.0832 15.7374Q16.0256 15.171 16.5627 14.1309Q17.0998 13.0909 17.0998 11.6749L17.0998 3.66706L15.3518 3.66706L15.3518 11.8116Q15.3518 13.0714 14.6633 13.8135Q13.9748 14.5557 12.9202 14.5557Q11.8557 14.5557 11.1526 13.8233Q10.4495 13.0909 10.4495 11.8116L10.4495 5.12214Q10.4495 3.70612 9.90746 2.66608Q9.36547 1.62605 8.41332 1.05964Q7.46117 0.493233 6.24047 0.493233Q5.01976 0.493233 4.07738 1.05964Q3.135 1.62605 2.59789 2.66608Q2.06078 3.70612 2.06078 5.12214ZM0.693592 12.3292Q0.166248 12.3292 0.039295 12.6368Q-0.0876581 12.9444 0.195545 13.3448L2.38305 16.4503Q2.62719 16.7921 2.93969 16.7872Q3.25219 16.7823 3.48656 16.4503L5.67406 13.335Q5.95726 12.9346 5.82543 12.6319Q5.69359 12.3292 5.17601 12.3292ZM13.9944 4.46784L18.467 4.46784Q18.9846 4.46784 19.1164 4.16023Q19.2483 3.85261 18.9651 3.45222L16.7873 0.336983Q16.553 0.00495158 16.2356 6.8772e-05Q15.9182-0.00481404 15.6838 0.336983L13.4963 3.44245Q13.2034 3.85261 13.3352 4.16023Q13.467 4.46784 13.9944 4.46784Z" fill="#ffffff"/>
 </g>
</svg>
