<?xml version="1.0" encoding="UTF-8"?>
<!--Generator: Apple Native CoreSVG 175-->
<!DOCTYPE svg
PUBLIC "-//W3C//DTD SVG 1.1//EN"
       "http://www.w3.org/Graphics/SVG/1.1/DTD/svg11.dtd">
<svg version="1.1" xmlns="http://www.w3.org/2000/svg" xmlns:xlink="http://www.w3.org/1999/xlink" width="17.2852" height="17.3145">
 <g>
  <rect height="17.3145" opacity="0" width="17.2852" x="0" y="0"/>
  <path d="M2.62695 17.3145L14.6484 17.3145Q15.957 17.3145 16.6211 16.6455Q17.2852 15.9766 17.2852 14.6875L17.2852 2.65625Q17.2852 1.37695 16.6211 0.703125Q15.957 0.0292969 14.6484 0.0292969L2.62695 0.0292969Q1.33789 0.0292969 0.668945 0.693359Q0 1.35742 0 2.65625L0 14.6875Q0 15.9863 0.668945 16.6504Q1.33789 17.3145 2.62695 17.3145Z" fill="rgba(255,255,255,0.25)"/>
  <path d="M13.7109 8.63281Q13.7109 8.78906 13.584 8.90625L9.85352 12.6367Q9.74609 12.7441 9.59961 12.7441Q9.44336 12.7441 9.35547 12.6465Q9.26758 12.5488 9.26758 12.4121Q9.26758 12.2656 9.39453 12.1387L11.3281 10.1953L12.5879 8.96484L11.1133 9.00391L3.95508 9.00391Q3.78906 9.00391 3.68652 8.90137Q3.58398 8.79883 3.58398 8.65234Q3.58398 8.47656 3.69141 8.37402Q3.79883 8.27148 3.95508 8.27148L11.1133 8.27148L12.5879 8.32031L11.3281 7.08008L9.39453 5.13672Q9.26758 5.00977 9.26758 4.86328Q9.26758 4.72656 9.35547 4.63379Q9.44336 4.54102 9.59961 4.54102Q9.74609 4.54102 9.85352 4.64844L13.584 8.37891Q13.7109 8.49609 13.7109 8.63281Z" fill="#ffffff"/>
 </g>
</svg>
