<?xml version="1.0" encoding="UTF-8"?>
<!--Generator: Apple Native CoreSVG 175.5-->
<!DOCTYPE svg
PUBLIC "-//W3C//DTD SVG 1.1//EN"
       "http://www.w3.org/Graphics/SVG/1.1/DTD/svg11.dtd">
<svg version="1.1" xmlns="http://www.w3.org/2000/svg" xmlns:xlink="http://www.w3.org/1999/xlink" width="19.4043" height="18.5254">
 <g>
  <rect height="18.5254" opacity="0" width="19.4043" x="0" y="0"/>
  <path d="M0 6.49414Q0 8.57422 1.10352 10.6104Q2.20703 12.6465 4.22363 14.5752Q6.24023 16.5039 8.99414 18.2617Q9.15039 18.3594 9.35059 18.4424Q9.55078 18.5254 9.69727 18.5254Q9.85352 18.5254 10.0537 18.4424Q10.2539 18.3594 10.4102 18.2617Q13.1641 16.5039 15.1807 14.5752Q17.1973 12.6465 18.3008 10.6104Q19.4043 8.57422 19.4043 6.49414Q19.4043 5.19531 18.9844 4.11621Q18.5645 3.03711 17.8174 2.24609Q17.0703 1.45508 16.0596 1.02539Q15.0488 0.595703 13.8574 0.595703Q12.5 0.595703 11.4307 1.19141Q10.3613 1.78711 9.69727 2.77344Q9.04297 1.78711 7.96875 1.19141Q6.89453 0.595703 5.53711 0.595703Q4.35547 0.595703 3.34473 1.02539Q2.33398 1.45508 1.58203 2.24609Q0.830078 3.03711 0.415039 4.11621Q0 5.19531 0 6.49414ZM1.57227 6.49414Q1.57227 5.19531 2.08984 4.22363Q2.60742 3.25195 3.49609 2.70996Q4.38477 2.16797 5.51758 2.16797Q6.44531 2.16797 7.11426 2.49512Q7.7832 2.82227 8.25195 3.31055Q8.7207 3.79883 9.04297 4.28711Q9.23828 4.58008 9.38477 4.68262Q9.53125 4.78516 9.69727 4.78516Q9.87305 4.78516 10.0098 4.67773Q10.1465 4.57031 10.3613 4.28711Q10.7031 3.80859 11.1719 3.31543Q11.6406 2.82227 12.3047 2.49512Q12.9688 2.16797 13.877 2.16797Q15.0195 2.16797 15.9082 2.70996Q16.7969 3.25195 17.3145 4.22363Q17.832 5.19531 17.832 6.49414Q17.832 7.85156 17.1777 9.24316Q16.5234 10.6348 15.4004 11.9727Q14.2773 13.3105 12.8564 14.5264Q11.4355 15.7422 9.90234 16.7578Q9.73633 16.875 9.69727 16.875Q9.66797 16.875 9.50195 16.7578Q7.96875 15.7422 6.54785 14.5264Q5.12695 13.3105 4.00391 11.9727Q2.88086 10.6348 2.22656 9.24316Q1.57227 7.85156 1.57227 6.49414Z" fill="rgba(255,255,255,0.5)"/>
  <path d="M10.3711 13.291L10.3711 9.77539L10.3027 8.19336L11.1328 9.04297L11.9922 9.92188Q12.0898 10.0293 12.2266 10.083Q12.3633 10.1367 12.5098 10.1367Q12.8027 10.1367 12.998 9.95117Q13.1934 9.76562 13.1934 9.46289Q13.1934 9.29688 13.1299 9.16992Q13.0664 9.04297 12.9492 8.94531L10.166 6.37695Q10.0098 6.24023 9.8877 6.18164Q9.76562 6.12305 9.61914 6.12305Q9.48242 6.12305 9.35547 6.18164Q9.22852 6.24023 9.07227 6.37695L6.28906 8.94531Q6.17188 9.04297 6.1084 9.16992Q6.04492 9.29688 6.04492 9.46289Q6.04492 9.76562 6.24023 9.95117Q6.43555 10.1367 6.72852 10.1367Q6.86523 10.1367 7.00684 10.083Q7.14844 10.0293 7.24609 9.92188L8.10547 9.04297L8.93555 8.19336L8.87695 9.77539L8.87695 13.291Q8.87695 13.5938 9.09668 13.8086Q9.31641 14.0234 9.61914 14.0234Q9.92188 14.0234 10.1465 13.8086Q10.3711 13.5938 10.3711 13.291Z" fill="#ffffff"/>
 </g>
</svg>
