<?xml version="1.0" encoding="UTF-8"?>
<!--Generator: Apple Native CoreSVG 175.5-->
<!DOCTYPE svg
PUBLIC "-//W3C//DTD SVG 1.1//EN"
       "http://www.w3.org/Graphics/SVG/1.1/DTD/svg11.dtd">
<svg version="1.1" xmlns="http://www.w3.org/2000/svg" xmlns:xlink="http://www.w3.org/1999/xlink" width="17.7734" height="17.7832">
 <g>
  <rect height="17.7832" opacity="0" width="17.7734" x="0" y="0"/>
  <path d="M16.6309 1.15234Q15.8789 0.400391 14.8438 0.200195Q13.8086 0 12.5586 0L5.18555 0Q3.95508 0 2.9248 0.200195Q1.89453 0.400391 1.14258 1.15234Q0.400391 1.89453 0.200195 2.91992Q0 3.94531 0 5.17578L0 12.5586Q0 13.8086 0.195312 14.8389Q0.390625 15.8691 1.14258 16.6113Q1.89453 17.3633 2.9248 17.5635Q3.95508 17.7637 5.20508 17.7637L12.5586 17.7637Q13.8086 17.7637 14.8438 17.5635Q15.8789 17.3633 16.6309 16.6113Q17.373 15.8691 17.5732 14.8389Q17.7734 13.8086 17.7734 12.5586L17.7734 5.20508Q17.7734 3.95508 17.5732 2.9248Q17.373 1.89453 16.6309 1.15234Z" fill="rgba(255,255,255,0.25)"/>
  <path d="M8.90625 3.75Q9.23828 3.75 9.44824 3.96484Q9.6582 4.17969 9.6582 4.51172L9.6582 9.52148L9.58008 11.6699L10.5957 10.4492L11.7773 9.24805Q11.9824 9.02344 12.3145 9.02344Q12.627 9.02344 12.8418 9.2334Q13.0566 9.44336 13.0566 9.75586Q13.0566 10.0781 12.8516 10.2832L9.49219 13.6328Q9.20898 13.916 8.90625 13.916Q8.60352 13.916 8.32031 13.6328L4.96094 10.2832Q4.75586 10.0879 4.75586 9.75586Q4.75586 9.44336 4.96582 9.2334Q5.17578 9.02344 5.48828 9.02344Q5.80078 9.02344 6.02539 9.24805L7.2168 10.4492L8.22266 11.6602L8.14453 9.52148L8.14453 4.51172Q8.14453 4.17969 8.35938 3.96484Q8.57422 3.75 8.90625 3.75Z" fill="#ffffff"/>
 </g>
</svg>
