<?xml version="1.0" encoding="UTF-8"?>
<!--Generator: Apple Native CoreSVG 175-->
<!DOCTYPE svg
PUBLIC "-//W3C//DTD SVG 1.1//EN"
       "http://www.w3.org/Graphics/SVG/1.1/DTD/svg11.dtd">
<svg version="1.1" xmlns="http://www.w3.org/2000/svg" xmlns:xlink="http://www.w3.org/1999/xlink" width="14.3442" height="18.0817">
 <g>
  <rect height="18.0817" opacity="0" width="14.3442" x="0" y="0"/>
  <path d="M1.61758 0Q1.19766 0 0.848846 0.00411987Q0.500031 0.00823975 0.366821 0.0332642Q0.262909 0.0511169 0.181274 0.0925446Q0.0996399 0.133972 0.0498199 0.209961Q0 0.28595 0 0.406342Q0 0.576172 0.11055 0.677719Q0.2211 0.779266 0.391083 0.779266Q0.511322 0.779266 0.807419 0.765991Q1.10352 0.752716 1.57196 0.752716Q3.44376 0.752716 4.60838 1.3131Q5.77301 1.87347 6.31447 3.04436Q6.85593 4.21524 6.85318 6.05316L6.85043 14.6242L6.88904 16.9289L4.86298 14.8367L0.748444 10.7195Q0.701599 10.6726 0.623474 10.6492Q0.545349 10.6258 0.467987 10.6258Q0.317535 10.6258 0.208359 10.7293Q0.0991821 10.8328 0.0991821 10.9973Q0.0991821 11.152 0.218048 11.2735L6.94839 17.9645Q7.07001 18.0817 7.22031 18.0817Q7.38052 18.0817 7.49496 17.9645L14.2255 11.2735Q14.3442 11.152 14.3442 10.9973Q14.3442 10.8328 14.235 10.7293Q14.1258 10.6258 13.9726 10.6258Q13.898 10.6258 13.8199 10.6492Q13.7418 10.6726 13.6949 10.7195L9.57779 14.8367L7.55707 16.9261L7.59308 14.6242L7.59308 6.03561Q7.59308 2.92969 6.1837 1.46484Q4.77432 0 1.61758 0Z" fill="#ffffff"/>
 </g>
</svg>
