<?xml version="1.0" encoding="UTF-8"?>
<!--Generator: Apple Native CoreSVG 175.5-->
<!DOCTYPE svg
PUBLIC "-//W3C//DTD SVG 1.1//EN"
       "http://www.w3.org/Graphics/SVG/1.1/DTD/svg11.dtd">
<svg version="1.1" xmlns="http://www.w3.org/2000/svg" xmlns:xlink="http://www.w3.org/1999/xlink" width="18.2227" height="18.5645">
 <g>
  <rect height="18.5645" opacity="0" width="18.2227" x="0" y="0"/>
  <path d="M6.23047 18.5645Q8.0957 18.5645 9.5166 17.749Q10.9375 16.9336 11.7383 15.3711Q12.5391 13.8086 12.5391 11.582L12.5391 4.9707L12.4023 1.94336L11.9531 2.11914L14.0234 4.53125L16.7676 7.34375Q16.8848 7.46094 17.0312 7.52441Q17.1777 7.58789 17.3633 7.58789Q17.7441 7.58789 17.9834 7.34863Q18.2227 7.10938 18.2227 6.71875Q18.2227 6.35742 17.959 6.08398L12.3242 0.341797Q12.1777 0.195312 12.0117 0.126953Q11.8457 0.0585938 11.6699 0.0585938Q11.4844 0.0585938 11.3184 0.126953Q11.1523 0.195312 11.0156 0.341797L5.38086 6.08398Q5.10742 6.35742 5.10742 6.71875Q5.10742 7.10938 5.35156 7.34863Q5.5957 7.58789 5.9668 7.58789Q6.16211 7.58789 6.30859 7.52441Q6.45508 7.46094 6.57227 7.34375L9.31641 4.53125L11.3867 2.11914L10.9277 1.94336L10.8008 4.9707L10.8008 11.7285Q10.8008 13.3984 10.2295 14.5312Q9.6582 15.6641 8.65234 16.2451Q7.64648 16.8262 6.32812 16.8262Q5.00977 16.8262 3.97461 16.2451Q2.93945 15.6641 2.33887 14.5312Q1.73828 13.3984 1.73828 11.7285L1.73828 9.48242Q1.73828 9.08203 1.48438 8.83789Q1.23047 8.59375 0.869141 8.59375Q0.507812 8.59375 0.253906 8.83789Q0 9.08203 0 9.48242L0 11.7383Q0 13.9258 0.78125 15.4492Q1.5625 16.9727 2.96387 17.7686Q4.36523 18.5645 6.23047 18.5645Z" fill="#ffffff"/>
 </g>
</svg>
