<?xml version="1.0" encoding="UTF-8"?>
<!--Generator: Apple Native CoreSVG 175.5-->
<!DOCTYPE svg
PUBLIC "-//W3C//DTD SVG 1.1//EN"
       "http://www.w3.org/Graphics/SVG/1.1/DTD/svg11.dtd">
<svg version="1.1" xmlns="http://www.w3.org/2000/svg" xmlns:xlink="http://www.w3.org/1999/xlink" width="19.9219" height="19.9316">
 <g>
  <rect height="19.9316" opacity="0" width="19.9219" x="0" y="0"/>
  <path d="M9.96094 19.9219Q12.002 19.9219 13.8037 19.1406Q15.6055 18.3594 16.9824 16.9824Q18.3594 15.6055 19.1406 13.8037Q19.9219 12.002 19.9219 9.96094Q19.9219 7.91992 19.1406 6.11816Q18.3594 4.31641 16.9824 2.93945Q15.6055 1.5625 13.7988 0.78125Q11.9922 0 9.95117 0Q7.91016 0 6.1084 0.78125Q4.30664 1.5625 2.93457 2.93945Q1.5625 4.31641 0.78125 6.11816Q0 7.91992 0 9.96094Q0 12.002 0.78125 13.8037Q1.5625 15.6055 2.93945 16.9824Q4.31641 18.3594 6.11816 19.1406Q7.91992 19.9219 9.96094 19.9219Z" fill="rgba(255,255,255,0.25)"/>
  <path d="M13.1152 12.4512Q12.7734 12.4512 12.5684 12.2412Q12.3633 12.0312 12.3633 11.6602L12.3633 9.93164L12.5098 8.36914L11.0645 9.91211L7.37305 13.6133Q7.26562 13.7207 7.11914 13.7842Q6.97266 13.8477 6.78711 13.8477Q6.46484 13.8477 6.25977 13.6426Q6.05469 13.4375 6.05469 13.0859Q6.05469 12.793 6.29883 12.5488L10 8.85742L11.5625 7.39258L10.0684 7.54883L8.25195 7.54883Q7.89062 7.54883 7.6709 7.34375Q7.45117 7.13867 7.45117 6.80664Q7.45117 6.47461 7.66602 6.26953Q7.88086 6.06445 8.23242 6.06445L13.0078 6.06445Q13.3984 6.06445 13.623 6.25977Q13.8477 6.45508 13.8477 6.9043L13.8477 11.6406Q13.8477 12.002 13.6475 12.2266Q13.4473 12.4512 13.1152 12.4512Z" fill="#ffffff"/>
 </g>
</svg>
