<?xml version="1.0" encoding="UTF-8"?>
<!--Generator: Apple Native CoreSVG 175.5-->
<!DOCTYPE svg
PUBLIC "-//W3C//DTD SVG 1.1//EN"
       "http://www.w3.org/Graphics/SVG/1.1/DTD/svg11.dtd">
<svg version="1.1" xmlns="http://www.w3.org/2000/svg" xmlns:xlink="http://www.w3.org/1999/xlink" width="23.2324" height="17.998">
 <g>
  <rect height="17.998" opacity="0" width="23.2324" x="0" y="0"/>
  <path d="M6.48438 17.998L16.7383 17.998Q18.1836 17.998 18.8428 17.2559Q19.502 16.5137 19.7168 15.0879L21.1035 5.79102L2.11914 5.79102L3.51562 15.0879Q3.73047 16.5234 4.38965 17.2607Q5.04883 17.998 6.48438 17.998ZM1.66016 4.46289L21.5723 4.46289Q22.3926 4.46289 22.8125 3.99902Q23.2324 3.53516 23.2324 2.71484L23.2324 1.76758Q23.2324 0.947266 22.8125 0.483398Q22.3926 0.0195312 21.5723 0.0195312L1.66016 0.0195312Q0.878906 0.0195312 0.439453 0.483398Q0 0.947266 0 1.76758L0 2.71484Q0 3.53516 0.415039 3.99902Q0.830078 4.46289 1.66016 4.46289Z" fill="rgba(255,255,255,0.25)"/>
  <path d="M12.4023 15.0098Q12.4023 15.3223 12.1729 15.5371Q11.9434 15.752 11.6211 15.752Q11.3086 15.752 11.0791 15.5371Q10.8496 15.3223 10.8496 15.0098L10.8496 11.3965L10.9082 9.76562L10.0684 10.6348L9.18945 11.5332Q9.08203 11.6504 8.93555 11.709Q8.78906 11.7676 8.64258 11.7676Q8.33008 11.7676 8.12988 11.5723Q7.92969 11.377 7.92969 11.0645Q7.92969 10.8984 7.99805 10.7666Q8.06641 10.6348 8.18359 10.5273L11.0547 7.89062Q11.2207 7.74414 11.3477 7.68555Q11.4746 7.62695 11.6211 7.62695Q11.7773 7.62695 11.9043 7.68555Q12.0312 7.74414 12.1875 7.89062L15.0586 10.5273Q15.1758 10.6348 15.249 10.7666Q15.3223 10.8984 15.3223 11.0645Q15.3223 11.377 15.1123 11.5723Q14.9023 11.7676 14.5996 11.7676Q14.4531 11.7676 14.3115 11.709Q14.1699 11.6504 14.0625 11.5332L13.1738 10.6348L12.334 9.76562L12.4023 11.3965Z" fill="#ffffff"/>
 </g>
</svg>
