<?xml version="1.0" encoding="UTF-8"?>
<!--Generator: Apple Native CoreSVG 175.5-->
<!DOCTYPE svg
PUBLIC "-//W3C//DTD SVG 1.1//EN"
       "http://www.w3.org/Graphics/SVG/1.1/DTD/svg11.dtd">
<svg version="1.1" xmlns="http://www.w3.org/2000/svg" xmlns:xlink="http://www.w3.org/1999/xlink" width="23.9062" height="17.9395">
 <g>
  <rect height="17.9395" opacity="0" width="23.9062" x="0" y="0"/>
  <path d="M14.3652 17.9199Q14.7266 17.9199 15.0391 17.7637Q15.3516 17.6074 15.7031 17.2852L23.4082 10.0098Q23.6914 9.74609 23.7988 9.47266Q23.9062 9.19922 23.9062 8.96484Q23.9062 8.71094 23.7988 8.44238Q23.6914 8.17383 23.4082 7.91016L15.7031 0.703125Q15.3125 0.332031 15.0293 0.166016Q14.7461 0 14.3848 0Q13.877 0 13.5498 0.356445Q13.2227 0.712891 13.2227 1.20117L13.2227 4.99023L6.88477 4.99023Q5.61523 4.99023 5.04395 5.54688Q4.47266 6.10352 4.47266 7.35352L4.47266 9.39453L2.41211 9.39453Q1.14258 9.39453 0.571289 9.95117Q0 10.5078 0 11.748L0 15.498Q0 16.7383 0.571289 17.2998Q1.14258 17.8613 2.41211 17.8613L8.30078 17.8613Q9.57031 17.8613 10.1416 17.2998Q10.7129 16.7383 10.7129 15.498L10.7129 13.2715L13.2227 13.2715L13.2227 16.7773Q13.2227 17.2754 13.5449 17.5977Q13.8672 17.9199 14.3652 17.9199ZM9.59961 15.5859L5.6543 13.9355Q4.94141 13.6328 4.63867 13.2812Q4.33594 12.9297 4.29688 12.3438Q4.28711 12.1973 4.39941 12.1777Q4.51172 12.1582 4.58008 12.2949Q4.72656 12.6172 4.99512 12.8369Q5.26367 13.0566 5.64453 13.1641Q6.02539 13.2715 6.51367 13.2715L9.72656 13.2715L9.72656 15.5273Q9.72656 15.5664 9.6875 15.5859Q9.64844 15.6055 9.59961 15.5859Z" fill="#ffffff"/>
 </g>
</svg>
