<?xml version="1.0" encoding="UTF-8"?>
<!--Generator: Apple Native CoreSVG 175.5-->
<!DOCTYPE svg
PUBLIC "-//W3C//DTD SVG 1.1//EN"
       "http://www.w3.org/Graphics/SVG/1.1/DTD/svg11.dtd">
<svg version="1.1" xmlns="http://www.w3.org/2000/svg" xmlns:xlink="http://www.w3.org/1999/xlink" width="15.5371" height="15.9473">
 <g>
  <rect height="15.9473" opacity="0" width="15.5371" x="0" y="0"/>
  <path d="M15.5371 14.7656Q15.5371 14.4727 15.4248 14.2139Q15.3125 13.9551 15.1562 13.6523L9.07227 1.11328Q8.75977 0.478516 8.45703 0.244141Q8.1543 0.00976562 7.76367 0.00976562Q7.38281 0.00976562 7.0752 0.244141Q6.76758 0.478516 6.46484 1.11328L0.371094 13.6523Q0.224609 13.9648 0.112305 14.2236Q0 14.4824 0 14.7754Q0 15.3223 0.380859 15.6348Q0.761719 15.9473 1.39648 15.9473L14.1309 15.9375Q14.7754 15.9375 15.1562 15.625Q15.5371 15.3125 15.5371 14.7656ZM13.6719 14.2773Q13.6719 14.375 13.5547 14.375L1.97266 14.375Q1.86523 14.375 1.86523 14.2773Q1.86523 14.248 1.875 14.2188Q1.88477 14.1895 1.9043 14.1602L7.65625 2.19727Q7.67578 2.16797 7.7002 2.13867Q7.72461 2.10938 7.76367 2.10938Q7.80273 2.10938 7.83203 2.13867Q7.86133 2.16797 7.88086 2.19727L13.6328 14.1602Q13.6426 14.1895 13.6572 14.2188Q13.6719 14.248 13.6719 14.2773Z" fill="#ffffff"/>
 </g>
</svg>
