<?xml version="1.0" encoding="UTF-8"?>
<!--Generator: Apple Native CoreSVG 175.5-->
<!DOCTYPE svg
PUBLIC "-//W3C//DTD SVG 1.1//EN"
       "http://www.w3.org/Graphics/SVG/1.1/DTD/svg11.dtd">
<svg version="1.1" xmlns="http://www.w3.org/2000/svg" xmlns:xlink="http://www.w3.org/1999/xlink" width="19.9707" height="24.5996">
 <g>
  <rect height="24.5996" opacity="0" width="19.9707" x="0" y="0"/>
  <path d="M4.73633 5.78125L12.2363 5.78125Q12.793 5.78125 13.3105 6.02539Q13.8281 6.26953 14.1553 6.77734Q14.4824 7.28516 14.4824 8.08594L14.4824 19.6973L16.9434 19.6973Q18.457 19.6973 19.2139 18.9258Q19.9707 18.1543 19.9707 16.6309L19.9707 3.06641Q19.9707 1.54297 19.2139 0.771484Q18.457 0 16.9434 0L7.76367 0Q6.25 0 5.49316 0.766602Q4.73633 1.5332 4.73633 3.06641ZM9.3457 2.77344L9.3457 2.56836Q9.3457 2.34375 9.49707 2.16797Q9.64844 1.99219 9.9707 1.99219L14.7363 1.99219Q15.0488 1.99219 15.2051 2.16797Q15.3613 2.34375 15.3613 2.56836L15.3613 2.77344Q15.3613 2.99805 15.2051 3.17383Q15.0488 3.34961 14.7363 3.34961L9.9707 3.34961Q9.64844 3.34961 9.49707 3.17383Q9.3457 2.99805 9.3457 2.77344Z" fill="rgba(255,255,255,0.5)"/>
  <path d="M0 21.5039Q0 23.0371 0.756836 23.8037Q1.51367 24.5703 3.02734 24.5703L12.207 24.5703Q13.7207 24.5703 14.4775 23.7988Q15.2344 23.0273 15.2344 21.5039L15.2344 7.93945Q15.2344 6.41602 14.4775 5.64453Q13.7207 4.87305 12.207 4.87305L3.02734 4.87305Q1.51367 4.87305 0.756836 5.63965Q0 6.40625 0 7.93945ZM1.57227 21.4746L1.57227 7.95898Q1.57227 7.23633 1.95801 6.84082Q2.34375 6.44531 3.0957 6.44531L12.1289 6.44531Q12.8809 6.44531 13.2715 6.84082Q13.6621 7.23633 13.6621 7.95898L13.6621 21.4746Q13.6621 22.207 13.2715 22.6025Q12.8809 22.998 12.1289 22.998L3.0957 22.998Q2.34375 22.998 1.95801 22.6025Q1.57227 22.207 1.57227 21.4746ZM7.66873 18.9962Q8.38192 18.9962 9.06444 18.7623Q9.74696 18.5284 10.2454 18.1143Q10.5215 17.8919 10.579 17.6235Q10.6365 17.3551 10.4371 17.1404Q10.2378 16.9257 9.98852 16.941Q9.73929 16.9564 9.51689 17.1251Q9.10278 17.4471 8.66183 17.6197Q8.22088 17.7922 7.66873 17.7922Q6.90186 17.7922 6.25385 17.4778Q5.60584 17.1634 5.15339 16.6228Q4.70093 16.0821 4.53222 15.3996L5.33744 15.3996Q5.60584 15.3996 5.66719 15.1964Q5.72854 14.9932 5.58283 14.7861L4.33283 13.0606Q4.17946 12.8459 3.94939 12.8382Q3.71933 12.8306 3.55829 13.0606L2.33129 14.7861Q2.18559 14.9932 2.2431 15.1964Q2.30062 15.3996 2.56902 15.3996L3.38191 15.3996Q3.56596 16.4656 4.16412 17.2746Q4.76228 18.0837 5.66719 18.5399Q6.5721 18.9962 7.66873 18.9962ZM7.65339 10.4073Q6.93253 10.4073 6.25001 10.645Q5.5675 10.8827 5.06903 11.2968Q4.79295 11.5115 4.73927 11.7838Q4.68559 12.056 4.87731 12.2631Q5.08437 12.4855 5.32977 12.4663Q5.57517 12.4471 5.80523 12.2784Q6.21934 11.9563 6.65646 11.7876Q7.09358 11.6189 7.65339 11.6189Q8.4126 11.6189 9.06061 11.9295Q9.70861 12.2401 10.1611 12.7807Q10.6135 13.3214 10.7822 14.0039L9.93101 14.0039Q9.6626 14.0039 9.60509 14.2071Q9.54757 14.4103 9.69328 14.6174L10.9356 16.3505Q11.089 16.5576 11.319 16.5691Q11.5491 16.5806 11.7102 16.3505L12.9372 14.6174Q13.0905 14.4103 13.033 14.2071Q12.9755 14.0039 12.7071 14.0039L11.9402 14.0039Q11.7485 12.9379 11.1503 12.1289Q10.5522 11.3198 9.64726 10.8635Q8.74235 10.4073 7.65339 10.4073Z" fill="#ffffff"/>
 </g>
</svg>
