<?xml version="1.0" encoding="UTF-8"?>
<!--Generator: Apple Native CoreSVG 175.5-->
<!DOCTYPE svg
PUBLIC "-//W3C//DTD SVG 1.1//EN"
       "http://www.w3.org/Graphics/SVG/1.1/DTD/svg11.dtd">
<svg version="1.1" xmlns="http://www.w3.org/2000/svg" xmlns:xlink="http://www.w3.org/1999/xlink" width="17.9785" height="17.998">
 <g>
  <rect height="17.998" opacity="0" width="17.9785" x="0" y="0"/>
  <path d="M3.06641 17.998L14.9121 17.998Q16.4453 17.998 17.2119 17.2412Q17.9785 16.4844 17.9785 14.9707L17.9785 3.04688Q17.9785 1.5332 17.2119 0.776367Q16.4453 0.0195312 14.9121 0.0195312L3.06641 0.0195312Q1.5332 0.0195312 0.766602 0.776367Q0 1.5332 0 3.04688L0 14.9707Q0 16.4844 0.766602 17.2412Q1.5332 17.998 3.06641 17.998Z" fill="rgba(255,255,255,0.25)"/>
  <path d="M13.9746 10.0879Q13.9746 11.25 13.4814 12.1191Q12.9883 12.9883 12.0996 13.4668Q11.2109 13.9453 10.0391 13.9453L8.7207 13.9453Q8.36914 13.9453 8.1543 13.7451Q7.93945 13.5449 7.93945 13.2129Q7.93945 12.8906 8.14941 12.6904Q8.35938 12.4902 8.70117 12.4902L10.0391 12.4902Q11.1426 12.4902 11.8311 11.8311Q12.5195 11.1719 12.5195 10.0879Q12.5195 9.0918 11.8408 8.47656Q11.1621 7.86133 10.0488 7.86133L7.19727 7.86133L6.19141 7.82227L6.65039 8.14453L7.83203 9.28711Q8.06641 9.52148 8.06641 9.82422Q8.06641 10.1367 7.85645 10.3564Q7.64648 10.5762 7.34375 10.5762Q7.01172 10.5762 6.80664 10.3613L4.24805 7.74414Q3.98438 7.48047 3.98438 7.12891Q3.98438 6.78711 4.24805 6.50391L6.79688 3.91602Q7.01172 3.70117 7.33398 3.70117Q7.64648 3.70117 7.85645 3.91602Q8.06641 4.13086 8.06641 4.45312Q8.06641 4.76562 7.83203 4.9707L6.8457 5.92773L6.18164 6.45508L7.19727 6.40625L10.0488 6.40625Q11.2207 6.40625 12.1094 6.86523Q12.998 7.32422 13.4863 8.1543Q13.9746 8.98438 13.9746 10.0879Z" fill="#ffffff"/>
 </g>
</svg>
