<?xml version="1.0" encoding="UTF-8"?>
<!--Generator: Apple Native CoreSVG 175-->
<!DOCTYPE svg
PUBLIC "-//W3C//DTD SVG 1.1//EN"
       "http://www.w3.org/Graphics/SVG/1.1/DTD/svg11.dtd">
<svg version="1.1" xmlns="http://www.w3.org/2000/svg" xmlns:xlink="http://www.w3.org/1999/xlink" width="19.1602" height="19.1504">
 <g>
  <rect height="19.1504" opacity="0" width="19.1602" x="0" y="0"/>
  <path d="M9.57031 19.1406Q11.5527 19.1406 13.2861 18.3984Q15.0195 17.6562 16.3379 16.333Q17.6562 15.0098 18.4082 13.2764Q19.1602 11.543 19.1602 9.57031Q19.1602 7.59766 18.4082 5.86426Q17.6562 4.13086 16.3379 2.80762Q15.0195 1.48438 13.2861 0.742188Q11.5527 0 9.57031 0Q7.59766 0 5.86426 0.742188Q4.13086 1.48438 2.81738 2.80762Q1.50391 4.13086 0.751953 5.86426Q0 7.59766 0 9.57031Q0 11.543 0.74707 13.2764Q1.49414 15.0098 2.8125 16.333Q4.13086 17.6562 5.86914 18.3984Q7.60742 19.1406 9.57031 19.1406ZM9.57031 18.3984Q7.74414 18.3984 6.14746 17.71Q4.55078 17.0215 3.33496 15.8105Q2.11914 14.5996 1.43555 12.998Q0.751953 11.3965 0.751953 9.57031Q0.751953 7.74414 1.43555 6.14258Q2.11914 4.54102 3.33496 3.3252Q4.55078 2.10938 6.14746 1.4209Q7.74414 0.732422 9.57031 0.732422Q11.4062 0.732422 13.0029 1.4209Q14.5996 2.10938 15.8154 3.3252Q17.0312 4.54102 17.7197 6.14258Q18.4082 7.74414 18.4082 9.57031Q18.4082 11.3965 17.7246 12.998Q17.041 14.5996 15.8252 15.8105Q14.6094 17.0215 13.0078 17.71Q11.4062 18.3984 9.57031 18.3984Z" fill="rgba(255,255,255,0.5)"/>
  <path d="M5.61523 13.125Q5.61523 13.3008 5.70801 13.4131Q5.80078 13.5254 5.9668 13.5352Q6.13281 13.5254 6.22559 13.4131Q6.31836 13.3008 6.31836 13.125L6.31836 9.69727Q6.31836 8.76953 6.69922 8.37891Q7.08008 7.98828 7.97852 7.98828L11.0449 7.98828L11.0449 9.59961Q11.0449 9.92188 11.3281 10.0244Q11.6113 10.127 11.8457 9.93164L14.0625 8.08594Q14.3164 7.88086 14.3164 7.62695Q14.3164 7.37305 14.0625 7.16797L11.8457 5.33203Q11.6797 5.19531 11.4941 5.2002Q11.3086 5.20508 11.1768 5.32715Q11.0449 5.44922 11.0449 5.67383L11.0449 7.26562L7.96875 7.26562Q6.74805 7.26562 6.18164 7.84668Q5.61523 8.42773 5.61523 9.67773Z" fill="#ffffff"/>
 </g>
</svg>
