<?xml version="1.0" encoding="UTF-8"?>
<!--Generator: Apple Native CoreSVG 175-->
<!DOCTYPE svg
PUBLIC "-//W3C//DTD SVG 1.1//EN"
       "http://www.w3.org/Graphics/SVG/1.1/DTD/svg11.dtd">
<svg version="1.1" xmlns="http://www.w3.org/2000/svg" xmlns:xlink="http://www.w3.org/1999/xlink" width="24.863" height="19.6097">
 <g>
  <rect height="19.6097" opacity="0" width="24.863" x="0" y="0"/>
  <path d="M1.49887 15.2754L8.9856 10.6528Q9.30939 10.4582 9.42619 10.1459Q9.543 9.83353 9.4381 9.51637Q9.33319 9.19922 8.9856 8.99063L1.49887 4.36798Q1.17386 4.16794 0.826569 4.16832Q0.479279 4.1687 0.239639 4.40018Q0 4.63165 0 5.13748L0 14.503Q0 15.0073 0.241013 15.2409Q0.482025 15.4745 0.829315 15.4736Q1.17661 15.4726 1.49887 15.2754ZM12.4301 19.6097Q12.5755 19.6097 12.6778 19.5094Q12.7802 19.409 12.7802 19.2636L12.7802 0.376892Q12.7802 0.234375 12.6778 0.133972Q12.5755 0.0335693 12.4301 0.0335693Q12.2876 0.0335693 12.1852 0.133972Q12.0828 0.234375 12.0828 0.376892L12.0828 19.2636Q12.0828 19.409 12.1852 19.5094Q12.2876 19.6097 12.4301 19.6097ZM23.3684 15.2754Q23.6836 15.4726 24.0309 15.4736Q24.3782 15.4745 24.6206 15.2409Q24.863 15.0073 24.863 14.503L24.863 5.13748Q24.863 4.63165 24.622 4.40018Q24.381 4.1687 24.0337 4.16832Q23.6864 4.16794 23.3684 4.36798L15.8746 8.99063Q15.527 9.19922 15.4235 9.51637Q15.32 9.83353 15.4354 10.1459Q15.5508 10.4582 15.8746 10.6528Z" fill="#ffffff"/>
 </g>
</svg>
