<?xml version="1.0" encoding="UTF-8"?>
<!--Generator: Apple Native CoreSVG 175.5-->
<!DOCTYPE svg
PUBLIC "-//W3C//DTD SVG 1.1//EN"
       "http://www.w3.org/Graphics/SVG/1.1/DTD/svg11.dtd">
<svg version="1.1" xmlns="http://www.w3.org/2000/svg" xmlns:xlink="http://www.w3.org/1999/xlink" width="17.9785" height="17.998">
 <g>
  <rect height="17.998" opacity="0" width="17.9785" x="0" y="0"/>
  <path d="M3.06641 17.998L14.9121 17.998Q16.4453 17.998 17.2119 17.2412Q17.9785 16.4844 17.9785 14.9707L17.9785 3.04688Q17.9785 1.5332 17.2119 0.776367Q16.4453 0.0195312 14.9121 0.0195312L3.06641 0.0195312Q1.5332 0.0195312 0.766602 0.776367Q0 1.5332 0 3.04688L0 14.9707Q0 16.4844 0.766602 17.2412Q1.5332 17.998 3.06641 17.998Z" fill="rgba(255,255,255,0.25)"/>
  <path d="M5.39062 4.29688Q5.60547 4.08203 5.87891 4.0918Q6.15234 4.10156 6.34766 4.29688L8.81836 6.82617Q9.02344 7.02148 9.02344 7.29492Q9.02344 7.58789 8.84277 7.76855Q8.66211 7.94922 8.38867 7.94922Q8.10547 7.94922 7.91992 7.76367L6.88477 6.67969L6.50391 6.26953L6.5332 6.74805L6.5332 13.2715Q6.5332 13.5449 6.34766 13.7256Q6.16211 13.9062 5.86914 13.9062Q5.58594 13.9062 5.40039 13.7256Q5.21484 13.5449 5.21484 13.2715L5.21484 6.75781L5.23438 6.26953L4.85352 6.67969L3.81836 7.74414Q3.62305 7.94922 3.35938 7.94922Q3.07617 7.94922 2.89062 7.76367Q2.70508 7.57812 2.70508 7.29492Q2.70508 7.1875 2.76367 7.06055Q2.82227 6.93359 2.91016 6.82617ZM12.6074 13.7109Q12.4023 13.9062 12.1094 13.9062Q11.8164 13.9062 11.6211 13.7109L9.15039 11.1914Q8.95508 10.9668 8.95508 10.7129Q8.95508 10.4297 9.13086 10.249Q9.30664 10.0684 9.59961 10.0684Q9.88281 10.0684 10.0586 10.2637L11.0938 11.3184L11.4746 11.7383L11.4453 11.2695L11.4453 4.73633Q11.4453 4.46289 11.6357 4.27734Q11.8262 4.0918 12.1191 4.0918Q12.3926 4.0918 12.5781 4.27734Q12.7637 4.46289 12.7637 4.73633L12.7637 11.2598L12.7539 11.7285L13.1348 11.3184L14.1699 10.2637Q14.3652 10.0684 14.6191 10.0684Q14.9121 10.0684 15.0977 10.249Q15.2832 10.4297 15.2832 10.7129Q15.2832 10.957 15.0684 11.1914Z" fill="#ffffff"/>
 </g>
</svg>
