<?xml version="1.0" encoding="UTF-8"?>
<!--Generator: Apple Native CoreSVG 175-->
<!DOCTYPE svg
PUBLIC "-//W3C//DTD SVG 1.1//EN"
       "http://www.w3.org/Graphics/SVG/1.1/DTD/svg11.dtd">
<svg version="1.1" xmlns="http://www.w3.org/2000/svg" xmlns:xlink="http://www.w3.org/1999/xlink" width="15.7812" height="20.6738">
 <g>
  <rect height="20.6738" opacity="0" width="15.7812" x="0" y="0"/>
  <path d="M2.62695 20.6738L13.1543 20.6738Q14.4434 20.6738 15.1123 20.0049Q15.7812 19.3359 15.7812 18.0371L15.7812 8.38867L8.91602 8.38867Q7.44141 8.38867 7.44141 6.89453L7.44141 0.0292969L2.62695 0.0292969Q1.34766 0.0292969 0.673828 0.698242Q0 1.36719 0 2.66602L0 18.0371Q0 19.3359 0.664062 20.0049Q1.32812 20.6738 2.62695 20.6738ZM9.01367 7.51953L15.625 7.51953Q15.5957 7.35352 15.4688 7.19238Q15.3418 7.03125 15.166 6.85547L8.97461 0.634766Q8.80859 0.46875 8.6377 0.336914Q8.4668 0.205078 8.31055 0.185547L8.31055 6.81641Q8.31055 7.51953 9.01367 7.51953Z" fill="rgba(255,255,255,0.25)"/>
  <path d="M7.90039 9.93164Q8.03711 9.93164 8.14453 10.0342Q8.25195 10.1367 8.25195 10.2832L8.25195 15.1855L8.20312 17.207L10.0586 15.332L10.8594 14.5117Q10.8984 14.4727 10.9668 14.4434Q11.0352 14.4141 11.1133 14.4141Q11.25 14.4141 11.3477 14.5117Q11.4453 14.6094 11.4453 14.7559Q11.4453 14.8828 11.3867 14.9561Q11.3281 15.0293 11.25 15.0977L8.1543 18.1348Q8.0957 18.1934 8.03223 18.2227Q7.96875 18.252 7.90039 18.252Q7.83203 18.252 7.76367 18.2227Q7.69531 18.1934 7.63672 18.1348L4.54102 15.0977Q4.46289 15.0293 4.4043 14.9561Q4.3457 14.8828 4.3457 14.7559Q4.3457 14.6094 4.44336 14.5117Q4.54102 14.4141 4.67773 14.4141Q4.75586 14.4141 4.82422 14.4434Q4.89258 14.4727 4.94141 14.5117L5.73242 15.332L7.57812 17.207L7.54883 15.1855L7.54883 10.2832Q7.54883 10.1367 7.65137 10.0342Q7.75391 9.93164 7.90039 9.93164Z" fill="#ffffff"/>
 </g>
</svg>
