<?xml version="1.0" encoding="UTF-8"?>
<!--Generator: Apple Native CoreSVG 175.5-->
<!DOCTYPE svg
PUBLIC "-//W3C//DTD SVG 1.1//EN"
       "http://www.w3.org/Graphics/SVG/1.1/DTD/svg11.dtd">
<svg version="1.1" xmlns="http://www.w3.org/2000/svg" xmlns:xlink="http://www.w3.org/1999/xlink" width="14.873" height="17.2168">
 <g>
  <rect height="17.2168" opacity="0" width="14.873" x="0" y="0"/>
  <path d="M7.44141 17.2168Q7.82227 17.2168 8.06641 16.9727Q8.31055 16.7285 8.31055 16.3477L8.31055 6.48438L8.24219 4.39453L11.1816 7.60742L13.3691 9.76562Q13.4863 9.88281 13.6523 9.94629Q13.8184 10.0098 13.9941 10.0098Q14.3652 10.0098 14.6045 9.76074Q14.8438 9.51172 14.8438 9.15039Q14.8438 8.97461 14.7705 8.81348Q14.6973 8.65234 14.5508 8.49609L8.0957 2.03125Q7.95898 1.88477 7.78809 1.80664Q7.61719 1.72852 7.44141 1.72852Q7.25586 1.72852 7.08984 1.80664Q6.92383 1.88477 6.78711 2.03125L0.322266 8.49609Q0.185547 8.65234 0.112305 8.81348Q0.0390625 8.97461 0.0390625 9.15039Q0.0390625 9.51172 0.27832 9.76074Q0.517578 10.0098 0.888672 10.0098Q1.06445 10.0098 1.23047 9.94629Q1.39648 9.88281 1.51367 9.76562L3.70117 7.60742L6.64062 4.38477L6.5625 6.48438L6.5625 16.3477Q6.5625 16.7285 6.81152 16.9727Q7.06055 17.2168 7.44141 17.2168ZM0.839844 1.74805L14.0137 1.74805Q14.3945 1.74805 14.6338 1.50391Q14.873 1.25977 14.873 0.878906Q14.873 0.498047 14.6338 0.249023Q14.3945 0 14.0137 0L0.839844 0Q0.46875 0 0.234375 0.249023Q0 0.498047 0 0.878906Q0 1.25977 0.234375 1.50391Q0.46875 1.74805 0.839844 1.74805Z" fill="#ffffff"/>
 </g>
</svg>
