<?xml version="1.0" encoding="UTF-8"?>
<!--Generator: Apple Native CoreSVG 175-->
<!DOCTYPE svg
PUBLIC "-//W3C//DTD SVG 1.1//EN"
       "http://www.w3.org/Graphics/SVG/1.1/DTD/svg11.dtd">
<svg version="1.1" xmlns="http://www.w3.org/2000/svg" xmlns:xlink="http://www.w3.org/1999/xlink" width="19.1602" height="19.1504">
 <g>
  <rect height="19.1504" opacity="0" width="19.1602" x="0" y="0"/>
  <path d="M9.57031 19.1406Q11.5527 19.1406 13.2861 18.3984Q15.0195 17.6562 16.3379 16.333Q17.6562 15.0098 18.4082 13.2764Q19.1602 11.543 19.1602 9.57031Q19.1602 7.59766 18.4082 5.86426Q17.6562 4.13086 16.3379 2.80762Q15.0195 1.48438 13.2861 0.742188Q11.5527 0 9.57031 0Q7.59766 0 5.86426 0.742188Q4.13086 1.48438 2.81738 2.80762Q1.50391 4.13086 0.751953 5.86426Q0 7.59766 0 9.57031Q0 11.543 0.74707 13.2764Q1.49414 15.0098 2.8125 16.333Q4.13086 17.6562 5.86914 18.3984Q7.60742 19.1406 9.57031 19.1406ZM9.57031 18.3984Q7.74414 18.3984 6.14746 17.71Q4.55078 17.0215 3.33496 15.8105Q2.11914 14.5996 1.43555 12.998Q0.751953 11.3965 0.751953 9.57031Q0.751953 7.74414 1.43555 6.14258Q2.11914 4.54102 3.33496 3.3252Q4.55078 2.10938 6.14746 1.4209Q7.74414 0.732422 9.57031 0.732422Q11.4062 0.732422 13.0029 1.4209Q14.5996 2.10938 15.8154 3.3252Q17.0312 4.54102 17.7197 6.14258Q18.4082 7.74414 18.4082 9.57031Q18.4082 11.3965 17.7246 12.998Q17.041 14.5996 15.8252 15.8105Q14.6094 17.0215 13.0078 17.71Q11.4062 18.3984 9.57031 18.3984Z" fill="rgba(255,255,255,0.5)"/>
  <path d="M12.8906 11.8555Q13.0371 11.8555 13.1299 11.7529Q13.2227 11.6504 13.2227 11.4844L13.2227 6.25977Q13.2227 6.08398 13.125 5.99121Q13.0273 5.89844 12.8711 5.89844L7.63672 5.89844Q7.46094 5.89844 7.36328 5.98633Q7.26562 6.07422 7.26562 6.2207Q7.26562 6.37695 7.36328 6.47461Q7.46094 6.57227 7.63672 6.57227L10.752 6.57227L12.1191 6.5332L11.0645 7.55859L6.01562 12.5977Q5.89844 12.7246 5.89844 12.8613Q5.89844 13.0273 5.99609 13.1201Q6.09375 13.2129 6.25 13.2129Q6.41602 13.2129 6.52344 13.1055L11.5625 8.06641L12.5684 7.01172L12.5391 8.73047L12.5391 11.4844Q12.5391 11.6504 12.6367 11.7529Q12.7344 11.8555 12.8906 11.8555Z" fill="#ffffff"/>
 </g>
</svg>
