<?xml version="1.0" encoding="UTF-8"?>
<!--Generator: Apple Native CoreSVG 175.5-->
<!DOCTYPE svg
PUBLIC "-//W3C//DTD SVG 1.1//EN"
       "http://www.w3.org/Graphics/SVG/1.1/DTD/svg11.dtd">
<svg version="1.1" xmlns="http://www.w3.org/2000/svg" xmlns:xlink="http://www.w3.org/1999/xlink" width="21.0547" height="17.9199">
 <g>
  <rect height="17.9199" opacity="0" width="21.0547" x="0" y="0"/>
  <path d="M0 8.95508Q0 9.18945 0.107422 9.46289Q0.214844 9.73633 0.498047 10L8.20312 17.2754Q8.55469 17.6074 8.86719 17.7588Q9.17969 17.9102 9.54102 17.9102Q10.0391 17.9102 10.3613 17.5879Q10.6836 17.2656 10.6836 16.7676L10.6836 12.8125L18.8086 12.8125Q19.873 12.8125 20.4639 12.2363Q21.0547 11.6602 21.0547 10.6152L21.0547 7.30469Q21.0547 6.25977 20.4639 5.68359Q19.873 5.10742 18.8086 5.10742L10.6836 5.10742L10.6836 1.19141Q10.6836 0.703125 10.3613 0.351562Q10.0391 0 9.52148 0Q9.16016 0 8.87695 0.161133Q8.59375 0.322266 8.20312 0.693359L0.498047 7.90039Q0.214844 8.16406 0.107422 8.4375Q0 8.71094 0 8.95508Z" fill="#ffffff"/>
 </g>
</svg>
