<?xml version="1.0" encoding="UTF-8"?>
<!--Generator: Apple Native CoreSVG 175-->
<!DOCTYPE svg
PUBLIC "-//W3C//DTD SVG 1.1//EN"
       "http://www.w3.org/Graphics/SVG/1.1/DTD/svg11.dtd">
<svg version="1.1" xmlns="http://www.w3.org/2000/svg" xmlns:xlink="http://www.w3.org/1999/xlink" width="19.1602" height="19.1504">
 <g>
  <rect height="19.1504" opacity="0" width="19.1602" x="0" y="0"/>
  <path d="M9.57031 19.1406Q11.5527 19.1406 13.2861 18.3984Q15.0195 17.6562 16.3379 16.333Q17.6562 15.0098 18.4082 13.2764Q19.1602 11.543 19.1602 9.57031Q19.1602 7.59766 18.4082 5.86426Q17.6562 4.13086 16.3379 2.80762Q15.0195 1.48438 13.2861 0.742188Q11.5527 0 9.57031 0Q7.59766 0 5.86426 0.742188Q4.13086 1.48438 2.81738 2.80762Q1.50391 4.13086 0.751953 5.86426Q0 7.59766 0 9.57031Q0 11.543 0.74707 13.2764Q1.49414 15.0098 2.8125 16.333Q4.13086 17.6562 5.86914 18.3984Q7.60742 19.1406 9.57031 19.1406ZM9.57031 18.3984Q7.74414 18.3984 6.14746 17.71Q4.55078 17.0215 3.33496 15.8105Q2.11914 14.5996 1.43555 12.998Q0.751953 11.3965 0.751953 9.57031Q0.751953 7.74414 1.43555 6.14258Q2.11914 4.54102 3.33496 3.3252Q4.55078 2.10938 6.14746 1.4209Q7.74414 0.732422 9.57031 0.732422Q11.4062 0.732422 13.0029 1.4209Q14.5996 2.10938 15.8154 3.3252Q17.0312 4.54102 17.7197 6.14258Q18.4082 7.74414 18.4082 9.57031Q18.4082 11.3965 17.7246 12.998Q17.041 14.5996 15.8252 15.8105Q14.6094 17.0215 13.0078 17.71Q11.4062 18.3984 9.57031 18.3984Z" fill="rgba(255,255,255,0.5)"/>
  <path d="M9.58008 14.6582Q10.5371 14.6582 11.46 14.2773Q12.3828 13.8965 13.0762 13.2324Q13.252 13.0762 13.2715 12.9053Q13.291 12.7344 13.1738 12.627Q13.0469 12.5 12.9004 12.5098Q12.7539 12.5195 12.6074 12.6562Q11.8457 13.3301 11.1035 13.6279Q10.3613 13.9258 9.58008 13.9258Q8.4668 13.9258 7.54883 13.4473Q6.63086 12.9688 6.01562 12.1338Q5.40039 11.2988 5.22461 10.2148L6.37695 10.2148Q6.5625 10.2148 6.61133 10.0781Q6.66016 9.94141 6.5625 9.79492L5.25391 7.8125Q5.08789 7.56836 4.87305 7.56836Q4.6582 7.56836 4.50195 7.8125L3.21289 9.79492Q3.0957 9.95117 3.13477 10.083Q3.17383 10.2148 3.36914 10.2148L4.51172 10.2148Q4.70703 11.543 5.41992 12.5439Q6.13281 13.5449 7.20703 14.1016Q8.28125 14.6582 9.58008 14.6582ZM9.57031 4.45312Q8.61328 4.45312 7.68555 4.8291Q6.75781 5.20508 6.07422 5.87891Q5.89844 6.03516 5.87891 6.20605Q5.85938 6.37695 5.97656 6.48438Q6.10352 6.62109 6.24512 6.60645Q6.38672 6.5918 6.55273 6.45508Q7.30469 5.78125 8.04199 5.4834Q8.7793 5.18555 9.57031 5.18555Q10.6836 5.18555 11.6016 5.66406Q12.5195 6.14258 13.1299 6.97754Q13.7402 7.8125 13.9258 8.89648L12.7637 8.89648Q12.5781 8.89648 12.5293 9.0332Q12.4805 9.16992 12.5879 9.31641L13.8867 11.2988Q14.0527 11.543 14.2627 11.543Q14.4727 11.543 14.6387 11.2988L15.9277 9.31641Q16.0449 9.16016 16.0059 9.02832Q15.9668 8.89648 15.7715 8.89648L14.6484 8.89648Q14.4336 7.56836 13.7256 6.56738Q13.0176 5.56641 11.9434 5.00977Q10.8691 4.45312 9.57031 4.45312Z" fill="#ffffff"/>
 </g>
</svg>
