<?xml version="1.0" encoding="UTF-8"?>
<!--Generator: Apple Native CoreSVG 175-->
<!DOCTYPE svg
PUBLIC "-//W3C//DTD SVG 1.1//EN"
       "http://www.w3.org/Graphics/SVG/1.1/DTD/svg11.dtd">
<svg version="1.1" xmlns="http://www.w3.org/2000/svg" xmlns:xlink="http://www.w3.org/1999/xlink" width="19.1602" height="19.1504">
 <g>
  <rect height="19.1504" opacity="0" width="19.1602" x="0" y="0"/>
  <path d="M9.57031 19.1406Q11.5527 19.1406 13.2861 18.3984Q15.0195 17.6562 16.3379 16.333Q17.6562 15.0098 18.4082 13.2764Q19.1602 11.543 19.1602 9.57031Q19.1602 7.59766 18.4082 5.86426Q17.6562 4.13086 16.3379 2.80762Q15.0195 1.48438 13.2861 0.742188Q11.5527 0 9.57031 0Q7.59766 0 5.86426 0.742188Q4.13086 1.48438 2.81738 2.80762Q1.50391 4.13086 0.751953 5.86426Q0 7.59766 0 9.57031Q0 11.543 0.74707 13.2764Q1.49414 15.0098 2.8125 16.333Q4.13086 17.6562 5.86914 18.3984Q7.60742 19.1406 9.57031 19.1406ZM9.57031 18.3984Q7.74414 18.3984 6.14746 17.71Q4.55078 17.0215 3.33496 15.8105Q2.11914 14.5996 1.43555 12.998Q0.751953 11.3965 0.751953 9.57031Q0.751953 7.74414 1.43555 6.14258Q2.11914 4.54102 3.33496 3.3252Q4.55078 2.10938 6.14746 1.4209Q7.74414 0.732422 9.57031 0.732422Q11.4062 0.732422 13.0029 1.4209Q14.5996 2.10938 15.8154 3.3252Q17.0312 4.54102 17.7197 6.14258Q18.4082 7.74414 18.4082 9.57031Q18.4082 11.3965 17.7246 12.998Q17.041 14.5996 15.8252 15.8105Q14.6094 17.0215 13.0078 17.71Q11.4062 18.3984 9.57031 18.3984Z" fill="rgba(255,255,255,0.5)"/>
  <path d="M9.57031 13.1641Q9.70703 13.1641 9.82422 13.0566L13.2812 9.60938Q13.3496 9.54102 13.4033 9.46289Q13.457 9.38477 13.457 9.28711Q13.457 9.15039 13.3643 9.05762Q13.2715 8.96484 13.1152 8.96484Q13.0371 8.96484 12.959 8.99902Q12.8809 9.0332 12.832 9.0918L11.6406 10.2832L9.86328 12.1289L9.90234 10.3125L9.90234 4.95117Q9.90234 4.80469 9.80957 4.70703Q9.7168 4.60938 9.57031 4.60938Q9.41406 4.60938 9.32617 4.70703Q9.23828 4.80469 9.23828 4.95117L9.23828 10.3125L9.27734 12.1387L7.45117 10.2539L6.31836 9.0918Q6.25977 9.0332 6.19141 8.99902Q6.12305 8.96484 6.02539 8.96484Q5.86914 8.96484 5.78125 9.05762Q5.69336 9.15039 5.69336 9.29688Q5.69336 9.36523 5.7373 9.44336Q5.78125 9.52148 5.82031 9.56055L9.31641 13.0566Q9.43359 13.1641 9.57031 13.1641ZM5.9375 14.7852L13.2031 14.7852Q13.3496 14.7852 13.4375 14.6973Q13.5254 14.6094 13.5254 14.4531Q13.5254 14.3164 13.4375 14.2236Q13.3496 14.1309 13.2031 14.1309L5.9375 14.1309Q5.79102 14.1309 5.70312 14.2236Q5.61523 14.3164 5.61523 14.4531Q5.61523 14.6094 5.70312 14.6973Q5.79102 14.7852 5.9375 14.7852Z" fill="#ffffff"/>
 </g>
</svg>
