<?xml version="1.0" encoding="UTF-8"?>
<!--Generator: Apple Native CoreSVG 175-->
<!DOCTYPE svg
PUBLIC "-//W3C//DTD SVG 1.1//EN"
       "http://www.w3.org/Graphics/SVG/1.1/DTD/svg11.dtd">
<svg version="1.1" xmlns="http://www.w3.org/2000/svg" xmlns:xlink="http://www.w3.org/1999/xlink" width="19.1602" height="19.1504">
 <g>
  <rect height="19.1504" opacity="0" width="19.1602" x="0" y="0"/>
  <path d="M9.57031 19.1406Q11.5527 19.1406 13.2861 18.3984Q15.0195 17.6562 16.3379 16.333Q17.6562 15.0098 18.4082 13.2764Q19.1602 11.543 19.1602 9.57031Q19.1602 7.59766 18.4082 5.86426Q17.6562 4.13086 16.3379 2.80762Q15.0195 1.48438 13.2861 0.742188Q11.5527 0 9.57031 0Q7.59766 0 5.86426 0.742188Q4.13086 1.48438 2.81738 2.80762Q1.50391 4.13086 0.751953 5.86426Q0 7.59766 0 9.57031Q0 11.543 0.74707 13.2764Q1.49414 15.0098 2.8125 16.333Q4.13086 17.6562 5.86914 18.3984Q7.60742 19.1406 9.57031 19.1406Z" fill="rgba(255,255,255,0.25)"/>
  <path d="M12.9199 7.24609Q13.0664 7.24609 13.1641 7.34863Q13.2617 7.45117 13.2617 7.62695L13.2617 12.8711Q13.2617 13.0469 13.1592 13.1445Q13.0566 13.2422 12.8906 13.2422L7.62695 13.2422Q7.46094 13.2422 7.3584 13.1494Q7.25586 13.0566 7.25586 12.9102Q7.25586 12.7539 7.3584 12.6514Q7.46094 12.5488 7.63672 12.5488L10.7617 12.5488L12.1289 12.5879L11.0645 11.5625L5.99609 6.49414Q5.87891 6.37695 5.87891 6.2207Q5.87891 6.06445 5.97656 5.9668Q6.07422 5.86914 6.23047 5.86914Q6.32812 5.86914 6.40137 5.89844Q6.47461 5.92773 6.52344 5.98633L11.582 11.0449L12.5977 12.1094L12.5586 10.3711L12.5586 7.61719Q12.5586 7.44141 12.6562 7.34375Q12.7539 7.24609 12.9199 7.24609Z" fill="#ffffff"/>
 </g>
</svg>
