<?xml version="1.0" encoding="UTF-8"?>
<!--Generator: Apple Native CoreSVG 175.5-->
<!DOCTYPE svg
PUBLIC "-//W3C//DTD SVG 1.1//EN"
       "http://www.w3.org/Graphics/SVG/1.1/DTD/svg11.dtd">
<svg version="1.1" xmlns="http://www.w3.org/2000/svg" xmlns:xlink="http://www.w3.org/1999/xlink" width="19.9219" height="19.9316">
 <g>
  <rect height="19.9316" opacity="0" width="19.9219" x="0" y="0"/>
  <path d="M9.96094 19.9219Q12.002 19.9219 13.8037 19.1406Q15.6055 18.3594 16.9824 16.9824Q18.3594 15.6055 19.1406 13.8037Q19.9219 12.002 19.9219 9.96094Q19.9219 7.91992 19.1406 6.11816Q18.3594 4.31641 16.9824 2.93945Q15.6055 1.5625 13.7988 0.78125Q11.9922 0 9.95117 0Q7.91016 0 6.1084 0.78125Q4.30664 1.5625 2.93457 2.93945Q1.5625 4.31641 0.78125 6.11816Q0 7.91992 0 9.96094Q0 12.002 0.78125 13.8037Q1.5625 15.6055 2.93945 16.9824Q4.31641 18.3594 6.11816 19.1406Q7.91992 19.9219 9.96094 19.9219ZM9.96094 18.2617Q8.23242 18.2617 6.72852 17.6172Q5.22461 16.9727 4.08691 15.835Q2.94922 14.6973 2.30957 13.1934Q1.66992 11.6895 1.66992 9.96094Q1.66992 8.23242 2.30957 6.72852Q2.94922 5.22461 4.08203 4.08203Q5.21484 2.93945 6.71875 2.2998Q8.22266 1.66016 9.95117 1.66016Q11.6797 1.66016 13.1885 2.2998Q14.6973 2.93945 15.835 4.08203Q16.9727 5.22461 17.6172 6.72852Q18.2617 8.23242 18.2617 9.96094Q18.2617 11.6895 17.6221 13.1934Q16.9824 14.6973 15.8398 15.835Q14.6973 16.9727 13.1934 17.6172Q11.6895 18.2617 9.96094 18.2617Z" fill="rgba(255,255,255,0.5)"/>
  <path d="M5.84961 14.2676Q6.12305 14.2676 6.30859 14.0869Q6.49414 13.9062 6.49414 13.623L6.49414 6.28906Q6.49414 5.99609 6.30859 5.81543Q6.12305 5.63477 5.84961 5.63477Q5.55664 5.63477 5.37109 5.81543Q5.18555 5.99609 5.18555 6.28906L5.18555 13.623Q5.18555 13.9062 5.37109 14.0869Q5.55664 14.2676 5.84961 14.2676ZM16.084 9.96094Q16.084 9.67773 15.9033 9.49707Q15.7227 9.31641 15.4395 9.31641L10.957 9.31641L9.16992 9.41406L11.1523 7.65625L11.7676 7.06055Q11.8652 6.96289 11.9092 6.83594Q11.9531 6.70898 11.9531 6.58203Q11.9531 6.29883 11.7676 6.12793Q11.582 5.95703 11.3184 5.95703Q11.0254 5.95703 10.8301 6.15234L7.46094 9.47266Q7.23633 9.6875 7.23633 9.96094Q7.23633 10.2441 7.46094 10.4492L10.8203 13.7402Q10.918 13.8281 11.0596 13.8916Q11.2012 13.9551 11.3184 13.9551Q11.6016 13.9551 11.7773 13.7793Q11.9531 13.6035 11.9531 13.3203Q11.9531 13.1738 11.9092 13.0566Q11.8652 12.9395 11.7676 12.8516L11.1426 12.2754L9.16016 10.5078L10.957 10.625L15.4395 10.625Q15.7227 10.625 15.9033 10.4395Q16.084 10.2539 16.084 9.96094Z" fill="#ffffff"/>
 </g>
</svg>
