<?xml version="1.0" encoding="UTF-8"?>
<!--Generator: Apple Native CoreSVG 175.5-->
<!DOCTYPE svg
PUBLIC "-//W3C//DTD SVG 1.1//EN"
       "http://www.w3.org/Graphics/SVG/1.1/DTD/svg11.dtd">
<svg version="1.1" xmlns="http://www.w3.org/2000/svg" xmlns:xlink="http://www.w3.org/1999/xlink" width="19.0675" height="22.666">
 <g>
  <rect height="22.666" opacity="0" width="19.0675" x="0" y="0"/>
  <path d="M16.4746 8.71094L16.4746 21.9141Q16.4746 22.2266 16.6895 22.4463Q16.9043 22.666 17.207 22.666Q17.5195 22.666 17.7344 22.4463Q17.9492 22.2266 17.9492 21.9141L17.9492 8.71094Q17.9492 8.4082 17.7344 8.19336Q17.5195 7.97852 17.207 7.97852Q16.9043 7.97852 16.6895 8.19336Q16.4746 8.4082 16.4746 8.71094ZM11.3574 8.71094L11.3574 21.9141Q11.3574 22.2266 11.5723 22.4463Q11.7871 22.666 12.0898 22.666Q12.4023 22.666 12.6172 22.4463Q12.832 22.2266 12.832 21.9141L12.832 8.71094Q12.832 8.4082 12.6172 8.19336Q12.4023 7.97852 12.0898 7.97852Q11.7871 7.97852 11.5723 8.19336Q11.3574 8.4082 11.3574 8.71094ZM6.24023 8.71094L6.24023 21.9141Q6.24023 22.2266 6.45508 22.4463Q6.66992 22.666 6.98242 22.666Q7.28516 22.666 7.5 22.4463Q7.71484 22.2266 7.71484 21.9141L7.71484 8.71094Q7.71484 8.4082 7.5 8.19336Q7.28516 7.97852 6.98242 7.97852Q6.66992 7.97852 6.45508 8.19336Q6.24023 8.4082 6.24023 8.71094ZM1.12305 8.71094L1.12305 15.6543Q1.12305 15.9668 1.33789 16.1865Q1.55273 16.4062 1.86523 16.4062Q2.16797 16.4062 2.38281 16.1865Q2.59766 15.9668 2.59766 15.6543L2.59766 8.71094Q2.59766 8.4082 2.38281 8.19336Q2.16797 7.97852 1.86523 7.97852Q1.55273 7.97852 1.33789 8.19336Q1.12305 8.4082 1.12305 8.71094Z" fill="rgba(255,255,255,0.5)"/>
  <path d="M0.263672 3.36914L2.88086 5.32227Q3.27148 5.61523 3.67188 5.47363Q4.07227 5.33203 4.07227 4.80469L4.07227 3.42773L15 3.42773L15 4.80469Q15 5.3125 15.3906 5.46875Q15.7812 5.625 16.1914 5.32227L18.8086 3.36914Q19.0723 3.16406 19.0674 2.84668Q19.0625 2.5293 18.8086 2.33398L16.1914 0.390625Q15.7812 0.078125 15.3906 0.234375Q15 0.390625 15 0.898438L15 2.29492L4.07227 2.29492L4.07227 0.898438Q4.07227 0.390625 3.68164 0.234375Q3.29102 0.078125 2.88086 0.390625L0.263672 2.33398Q0 2.5293 0 2.84668Q0 3.16406 0.263672 3.36914Z" fill="#ffffff"/>
 </g>
</svg>
