<?xml version="1.0" encoding="UTF-8"?>
<!--Generator: Apple Native CoreSVG 175.5-->
<!DOCTYPE svg
PUBLIC "-//W3C//DTD SVG 1.1//EN"
       "http://www.w3.org/Graphics/SVG/1.1/DTD/svg11.dtd">
<svg version="1.1" xmlns="http://www.w3.org/2000/svg" xmlns:xlink="http://www.w3.org/1999/xlink" width="19.9219" height="19.9316">
 <g>
  <rect height="19.9316" opacity="0" width="19.9219" x="0" y="0"/>
  <path d="M9.96094 19.9219Q12.002 19.9219 13.8037 19.1406Q15.6055 18.3594 16.9824 16.9824Q18.3594 15.6055 19.1406 13.8037Q19.9219 12.002 19.9219 9.96094Q19.9219 7.91992 19.1406 6.11816Q18.3594 4.31641 16.9824 2.93945Q15.6055 1.5625 13.7988 0.78125Q11.9922 0 9.95117 0Q7.91016 0 6.1084 0.78125Q4.30664 1.5625 2.93457 2.93945Q1.5625 4.31641 0.78125 6.11816Q0 7.91992 0 9.96094Q0 12.002 0.78125 13.8037Q1.5625 15.6055 2.93945 16.9824Q4.31641 18.3594 6.11816 19.1406Q7.91992 19.9219 9.96094 19.9219Z" fill="rgba(255,255,255,0.25)"/>
  <path d="M13.1152 7.46094Q13.4473 7.46094 13.6475 7.68555Q13.8477 7.91016 13.8477 8.27148L13.8477 13.0078Q13.8477 13.457 13.623 13.6523Q13.3984 13.8477 13.0078 13.8477L8.23242 13.8477Q7.88086 13.8477 7.66602 13.6426Q7.45117 13.4375 7.45117 13.1055Q7.45117 12.7734 7.6709 12.5684Q7.89062 12.3633 8.25195 12.3633L10.0684 12.3633L11.5625 12.5195L10 11.0547L6.29883 7.36328Q6.05469 7.11914 6.05469 6.82617Q6.05469 6.47461 6.25977 6.26953Q6.46484 6.06445 6.78711 6.06445Q6.97266 6.06445 7.11914 6.12793Q7.26562 6.19141 7.37305 6.29883L11.0645 10L12.5098 11.543L12.3633 9.98047L12.3633 8.25195Q12.3633 7.88086 12.5684 7.6709Q12.7734 7.46094 13.1152 7.46094Z" fill="#ffffff"/>
 </g>
</svg>
