<?xml version="1.0" encoding="UTF-8"?>
<!--Generator: Apple Native CoreSVG 175-->
<!DOCTYPE svg
PUBLIC "-//W3C//DTD SVG 1.1//EN"
       "http://www.w3.org/Graphics/SVG/1.1/DTD/svg11.dtd">
<svg version="1.1" xmlns="http://www.w3.org/2000/svg" xmlns:xlink="http://www.w3.org/1999/xlink" width="17.2852" height="17.3145">
 <g>
  <rect height="17.3145" opacity="0" width="17.2852" x="0" y="0"/>
  <path d="M2.62695 17.3145L14.6484 17.3145Q15.957 17.3145 16.6211 16.6455Q17.2852 15.9766 17.2852 14.6875L17.2852 2.65625Q17.2852 1.37695 16.6211 0.703125Q15.957 0.0292969 14.6484 0.0292969L2.62695 0.0292969Q1.33789 0.0292969 0.668945 0.693359Q0 1.35742 0 2.65625L0 14.6875Q0 15.9863 0.668945 16.6504Q1.33789 17.3145 2.62695 17.3145ZM2.65625 16.5918Q1.70898 16.5918 1.2207 16.1035Q0.732422 15.6152 0.732422 14.6582L0.732422 2.69531Q0.732422 1.72852 1.2207 1.24512Q1.70898 0.761719 2.65625 0.761719L14.6289 0.761719Q15.5566 0.761719 16.0596 1.24512Q16.5625 1.72852 16.5625 2.69531L16.5625 14.6582Q16.5625 15.6152 16.0596 16.1035Q15.5566 16.5918 14.6289 16.5918Z" fill="rgba(255,255,255,0.5)"/>
  <path d="M5.32227 6.33789Q5.16602 6.33789 5.07324 6.44043Q4.98047 6.54297 4.98047 6.70898L4.98047 11.9336Q4.98047 12.1094 5.08301 12.2021Q5.18555 12.2949 5.3418 12.2949L10.5762 12.2949Q10.7422 12.2949 10.8447 12.207Q10.9473 12.1191 10.9473 11.9727Q10.9473 11.8164 10.8447 11.7188Q10.7422 11.6211 10.5762 11.6211L7.45117 11.6211L6.08398 11.6602L7.13867 10.6348L12.1875 5.5957Q12.3047 5.46875 12.3047 5.33203Q12.3047 5.16602 12.2119 5.07324Q12.1191 4.98047 11.9629 4.98047Q11.7969 4.98047 11.6797 5.08789L6.64062 10.127L5.63477 11.1816L5.67383 9.46289L5.67383 6.70898Q5.67383 6.54297 5.57617 6.44043Q5.47852 6.33789 5.32227 6.33789Z" fill="#ffffff"/>
 </g>
</svg>
