<?xml version="1.0" encoding="UTF-8"?>
<!--Generator: Apple Native CoreSVG 175.5-->
<!DOCTYPE svg
PUBLIC "-//W3C//DTD SVG 1.1//EN"
       "http://www.w3.org/Graphics/SVG/1.1/DTD/svg11.dtd">
<svg version="1.1" xmlns="http://www.w3.org/2000/svg" xmlns:xlink="http://www.w3.org/1999/xlink" width="25.918" height="18.1738">
 <g>
  <rect height="18.1738" opacity="0" width="25.918" x="0" y="0"/>
  <path d="M8.57422 18.1738Q8.89648 18.1738 9.10156 18.0176Q9.30664 17.8613 9.375 17.5684Q9.90234 15.9375 10.6592 14.9707Q11.416 14.0039 12.4561 13.5791Q13.4961 13.1543 14.8828 13.1543L15.2344 13.1641L15.2344 16.8945Q15.2344 17.3926 15.5566 17.7148Q15.8789 18.0371 16.377 18.0371Q16.7383 18.0371 17.0508 17.8809Q17.3633 17.7246 17.7148 17.4023L25.4297 10.127Q25.7031 9.86328 25.8105 9.58984Q25.918 9.31641 25.918 9.08203Q25.918 8.82812 25.8105 8.55957Q25.7031 8.29102 25.4297 8.02734L17.7148 0.820312Q17.3242 0.449219 17.041 0.283203Q16.7578 0.117188 16.3965 0.117188Q15.8887 0.117188 15.5615 0.473633Q15.2344 0.830078 15.2344 1.31836L15.2344 5.00977L14.9512 5.00977Q13.418 5.00977 12.0898 5.61523Q10.7617 6.2207 9.83887 7.43652Q8.91602 8.65234 8.61328 10.4785L8.50586 10.4785Q8.16406 8.45703 7.22168 7.26074Q6.2793 6.06445 5.01465 5.53711Q3.75 5.00977 2.43164 5.00977Q2.39258 5.00977 2.27051 5.00977Q2.14844 5.00977 1.88477 5.00977Q0.878906 5.00977 0.439453 5.44434Q0 5.87891 0 6.97266L0 11.6406Q0 12.4707 0.424805 12.8418Q0.849609 13.2129 1.79688 13.2129Q2.02148 13.2129 2.22656 13.2129Q2.43164 13.2129 2.65625 13.2129Q3.99414 13.2129 5.01465 13.7646Q6.03516 14.3164 6.7334 15.2979Q7.43164 16.2793 7.7832 17.5586Q7.85156 17.8613 8.04688 18.0176Q8.24219 18.1738 8.57422 18.1738Z" fill="#ffffff"/>
 </g>
</svg>
