<?xml version="1.0" encoding="UTF-8"?>
<!--Generator: Apple Native CoreSVG 175-->
<!DOCTYPE svg
PUBLIC "-//W3C//DTD SVG 1.1//EN"
       "http://www.w3.org/Graphics/SVG/1.1/DTD/svg11.dtd">
<svg version="1.1" xmlns="http://www.w3.org/2000/svg" xmlns:xlink="http://www.w3.org/1999/xlink" width="15.779" height="20.6747">
 <g>
  <rect height="20.6747" opacity="0" width="15.779" x="0" y="0"/>
  <path d="M8.24493 10.1657Q8.24493 10.0204 8.14125 9.91806Q8.03757 9.81567 7.8894 9.81567Q7.74139 9.81567 7.63771 9.91806Q7.53403 10.0204 7.53403 10.1657L7.53403 15.0887L7.57141 17.1164L5.72189 15.2446L4.91333 14.4165Q4.86923 14.3723 4.80141 14.3418Q4.73358 14.3114 4.66019 14.3114Q4.51492 14.3114 4.41452 14.4104Q4.31412 14.5094 4.31412 14.6617Q4.31412 14.7926 4.37759 14.8634Q4.44107 14.9341 4.51599 15.0063L7.6239 18.0583Q7.68875 18.1204 7.75452 18.1495Q7.82028 18.1786 7.8894 18.1786Q7.95868 18.1786 8.02444 18.1495Q8.09021 18.1204 8.15506 18.0583L11.263 15.0063Q11.3379 14.9341 11.4014 14.8634Q11.4648 14.7926 11.4648 14.6617Q11.4648 14.5094 11.3644 14.4104Q11.264 14.3114 11.1188 14.3114Q11.0497 14.3114 10.9797 14.3418Q10.9097 14.3723 10.8656 14.4165L10.0571 15.2446L8.21442 17.1164L8.24493 15.0887Z" fill="#ffffff"/>
  <path d="M2.62665 20.6747L13.1523 20.6747Q14.4481 20.6747 15.1135 20.0066Q15.779 19.3384 15.779 18.0399L15.779 8.49075Q15.779 8.09494 15.7281 7.81998Q15.6773 7.54501 15.544 7.32216Q15.4106 7.0993 15.1675 6.86066L8.9711 0.636749Q8.73367 0.396576 8.51219 0.266647Q8.29071 0.136719 8.01979 0.0811005Q7.74887 0.0254822 7.37076 0.0254822L2.62665 0.0254822Q1.34491 0.0254822 0.672455 0.695038Q0 1.36459 0 2.66296L0 18.0399Q0 19.3411 0.665436 20.0079Q1.33087 20.6747 2.62665 20.6747ZM2.65976 19.9461Q1.70395 19.9461 1.21628 19.4571Q0.728607 18.968 0.728607 18.0176L0.728607 2.68524Q0.728607 1.76575 1.21628 1.25984Q1.70395 0.753937 2.66251 0.753937L7.53555 0.753937L7.53555 6.90598Q7.53555 7.63412 7.8891 7.96654Q8.24265 8.29895 8.92151 8.29895L15.0504 8.29895L15.0504 18.0176Q15.0504 18.968 14.5627 19.4571Q14.075 19.9461 13.1165 19.9461ZM8.97781 7.59064Q8.57925 7.59064 8.40797 7.42149Q8.23669 7.25235 8.23669 6.84692L8.23669 0.923157L14.8813 7.59064Z" fill="rgba(255,255,255,0.5)"/>
 </g>
</svg>
