<?xml version="1.0" encoding="UTF-8"?>
<!--Generator: Apple Native CoreSVG 175.5-->
<!DOCTYPE svg
PUBLIC "-//W3C//DTD SVG 1.1//EN"
       "http://www.w3.org/Graphics/SVG/1.1/DTD/svg11.dtd">
<svg version="1.1" xmlns="http://www.w3.org/2000/svg" xmlns:xlink="http://www.w3.org/1999/xlink" width="19.9219" height="19.9316">
 <g>
  <rect height="19.9316" opacity="0" width="19.9219" x="0" y="0"/>
  <path d="M9.96094 19.9219Q12.002 19.9219 13.8037 19.1406Q15.6055 18.3594 16.9824 16.9824Q18.3594 15.6055 19.1406 13.8037Q19.9219 12.002 19.9219 9.96094Q19.9219 7.91992 19.1406 6.11816Q18.3594 4.31641 16.9824 2.93945Q15.6055 1.5625 13.7988 0.78125Q11.9922 0 9.95117 0Q7.91016 0 6.1084 0.78125Q4.30664 1.5625 2.93457 2.93945Q1.5625 4.31641 0.78125 6.11816Q0 7.91992 0 9.96094Q0 12.002 0.78125 13.8037Q1.5625 15.6055 2.93945 16.9824Q4.31641 18.3594 6.11816 19.1406Q7.91992 19.9219 9.96094 19.9219Z" fill="rgba(255,255,255,0.25)"/>
  <path d="M9.98047 3.69141Q10.2637 3.69141 10.5664 3.97461L13.4863 6.88477Q13.6914 7.07031 13.6914 7.41211Q13.6914 7.71484 13.4814 7.9248Q13.2715 8.13477 12.959 8.13477Q12.793 8.13477 12.6562 8.07617Q12.5195 8.01758 12.4219 7.91992L11.6699 7.1582L10.6543 5.9375L10.7422 8.06641L10.7422 11.8457L10.6543 13.9746L11.6699 12.7539L12.4219 11.9922Q12.5195 11.8945 12.6562 11.8359Q12.793 11.7773 12.959 11.7773Q13.2715 11.7773 13.4814 11.9873Q13.6914 12.1973 13.6914 12.5Q13.6914 12.8418 13.4863 13.0273L10.5664 15.9375Q10.2637 16.2207 9.98047 16.2207Q9.67773 16.2207 9.38477 15.9375L6.47461 13.0273Q6.25977 12.832 6.25977 12.5Q6.25977 12.1973 6.47461 11.9873Q6.68945 11.7773 7.00195 11.7773Q7.16797 11.7773 7.30469 11.8359Q7.44141 11.8945 7.53906 11.9922L8.28125 12.7539L9.30664 13.9844L9.21875 11.8457L9.21875 8.06641L9.30664 5.92773L8.28125 7.1582L7.53906 7.91992Q7.44141 8.01758 7.30469 8.07617Q7.16797 8.13477 7.00195 8.13477Q6.68945 8.13477 6.47461 7.9248Q6.25977 7.71484 6.25977 7.41211Q6.25977 7.08008 6.47461 6.88477L9.38477 3.97461Q9.67773 3.69141 9.98047 3.69141Z" fill="#ffffff"/>
 </g>
</svg>
