<?xml version="1.0" encoding="UTF-8"?>
<!--Generator: Apple Native CoreSVG 175.5-->
<!DOCTYPE svg
PUBLIC "-//W3C//DTD SVG 1.1//EN"
       "http://www.w3.org/Graphics/SVG/1.1/DTD/svg11.dtd">
<svg version="1.1" xmlns="http://www.w3.org/2000/svg" xmlns:xlink="http://www.w3.org/1999/xlink" width="19.9219" height="19.9707">
 <g>
  <rect height="19.9707" opacity="0" width="19.9219" x="0" y="0"/>
  <path d="M9.96094 19.9219Q12.002 19.9219 13.8037 19.1406Q15.6055 18.3594 16.9824 16.9824Q18.3594 15.6055 19.1406 13.8037Q19.9219 12.002 19.9219 9.96094Q19.9219 7.91992 19.1406 6.11816Q18.3594 4.31641 16.9824 2.93945Q15.6055 1.5625 13.7988 0.78125Q11.9922 0 9.95117 0Q7.91016 0 6.1084 0.78125Q4.30664 1.5625 2.93457 2.93945Q1.5625 4.31641 0.78125 6.11816Q0 7.91992 0 9.96094Q0 12.002 0.78125 13.8037Q1.5625 15.6055 2.93945 16.9824Q4.31641 18.3594 6.11816 19.1406Q7.91992 19.9219 9.96094 19.9219Z" fill="rgba(255,255,255,0.25)"/>
  <path d="M8.93555 14.834Q7.77344 14.834 6.9043 14.3408Q6.03516 13.8477 5.55664 12.959Q5.07812 12.0703 5.07812 10.8984L5.07812 9.58008Q5.07812 9.22852 5.27832 9.01367Q5.47852 8.79883 5.80078 8.79883Q6.13281 8.79883 6.33301 9.00879Q6.5332 9.21875 6.5332 9.56055L6.5332 10.8984Q6.5332 12.002 7.19238 12.6904Q7.85156 13.3789 8.93555 13.3789Q9.93164 13.3789 10.5469 12.7002Q11.1621 12.0215 11.1621 10.9082L11.1621 8.04688L11.2012 7.05078L10.8789 7.50977L9.73633 8.69141Q9.51172 8.92578 9.19922 8.92578Q8.88672 8.92578 8.66699 8.71582Q8.44727 8.50586 8.44727 8.20312Q8.44727 7.87109 8.66211 7.66602L11.2793 5.10742Q11.543 4.84375 11.8945 4.84375Q12.2363 4.84375 12.5195 5.10742L15.1074 7.65625Q15.3223 7.87109 15.3223 8.19336Q15.3223 8.50586 15.1025 8.71582Q14.8828 8.92578 14.5703 8.92578Q14.2578 8.92578 14.0527 8.69141L13.0957 7.70508L12.5684 7.04102L12.6172 8.04688L12.6172 10.9082Q12.6172 12.0801 12.1582 12.9639Q11.6992 13.8477 10.8691 14.3408Q10.0391 14.834 8.93555 14.834Z" fill="#ffffff"/>
 </g>
</svg>
