<?xml version="1.0" encoding="UTF-8"?>
<!--Generator: Apple Native CoreSVG 175-->
<!DOCTYPE svg
PUBLIC "-//W3C//DTD SVG 1.1//EN"
       "http://www.w3.org/Graphics/SVG/1.1/DTD/svg11.dtd">
<svg version="1.1" xmlns="http://www.w3.org/2000/svg" xmlns:xlink="http://www.w3.org/1999/xlink" width="19.1602" height="19.1504">
 <g>
  <rect height="19.1504" opacity="0" width="19.1602" x="0" y="0"/>
  <path d="M9.57031 19.1504Q11.5527 19.1504 13.2861 18.4082Q15.0195 17.666 16.3379 16.3428Q17.6562 15.0195 18.4082 13.2861Q19.1602 11.5527 19.1602 9.58008Q19.1602 7.60742 18.4082 5.87402Q17.6562 4.14062 16.3379 2.81738Q15.0195 1.49414 13.2861 0.751953Q11.5527 0.00976562 9.57031 0.00976562Q7.59766 0.00976562 5.86426 0.751953Q4.13086 1.49414 2.81738 2.81738Q1.50391 4.14062 0.751953 5.87402Q0 7.60742 0 9.58008Q0 11.5527 0.74707 13.2861Q1.49414 15.0195 2.8125 16.3428Q4.13086 17.666 5.86914 18.4082Q7.60742 19.1504 9.57031 19.1504Z" fill="rgba(255,255,255,0.25)"/>
  <path d="M4.36523 13.8574Q4.21875 13.8574 4.10156 13.7354Q3.98438 13.6133 3.98438 13.3887Q3.98438 11.1621 4.67773 9.73145Q5.37109 8.30078 6.65527 7.61719Q7.93945 6.93359 9.6875 6.93359L9.92188 6.93359L9.92188 4.53125Q9.92188 4.35547 10.0293 4.22363Q10.1367 4.0918 10.332 4.0918Q10.459 4.0918 10.5762 4.15527Q10.6934 4.21875 10.8008 4.31641L15.1855 8.38867Q15.4004 8.58398 15.459 8.71582Q15.5176 8.84766 15.5176 8.97461Q15.5176 9.0918 15.4541 9.22363Q15.3906 9.35547 15.1855 9.54102L10.8008 13.623Q10.6934 13.7305 10.5811 13.7939Q10.4688 13.8574 10.3223 13.8574Q10.1367 13.8574 10.0293 13.7256Q9.92188 13.5938 9.92188 13.4082L9.92188 11.0547L9.6875 11.0547Q7.76367 11.0547 6.58203 11.626Q5.40039 12.1973 4.79492 13.5156Q4.70703 13.7109 4.60449 13.7842Q4.50195 13.8574 4.36523 13.8574Z" fill="#ffffff"/>
 </g>
</svg>
