<?xml version="1.0" encoding="UTF-8"?>
<!--Generator: Apple Native CoreSVG 175.5-->
<!DOCTYPE svg
PUBLIC "-//W3C//DTD SVG 1.1//EN"
       "http://www.w3.org/Graphics/SVG/1.1/DTD/svg11.dtd">
<svg version="1.1" xmlns="http://www.w3.org/2000/svg" xmlns:xlink="http://www.w3.org/1999/xlink" width="15.2441" height="18.4473">
 <g>
  <rect height="18.4473" opacity="0" width="15.2441" x="0" y="0"/>
  <path d="M2.06055 18.4473Q5.44922 18.4473 7.08008 16.9824Q8.71094 15.5176 8.71094 12.1094L8.71094 5.3418L8.63281 2.69531L10.5762 4.83398L13.7793 8.03711Q13.8965 8.1543 14.0625 8.21289Q14.2285 8.27148 14.3945 8.27148Q14.7656 8.27148 15.0049 8.02734Q15.2441 7.7832 15.2441 7.42188Q15.2441 7.07031 14.9707 6.78711L8.48633 0.292969Q8.20312 0 7.83203 0Q7.4707 0 7.1875 0.292969L0.703125 6.78711Q0.429688 7.07031 0.429688 7.42188Q0.429688 7.7832 0.668945 8.02734Q0.908203 8.27148 1.26953 8.27148Q1.44531 8.27148 1.61133 8.21289Q1.77734 8.1543 1.89453 8.03711L5.08789 4.83398L7.05078 2.68555L6.96289 5.3418L6.97266 12.0215Q6.98242 13.7891 6.45508 14.8193Q5.92773 15.8496 4.81934 16.2939Q3.71094 16.7383 1.97266 16.7383Q1.63086 16.7383 1.37695 16.7285Q1.12305 16.7188 0.869141 16.7188Q0.488281 16.7188 0.244141 16.9434Q0 17.168 0 17.5488Q0 17.8027 0.102539 17.9688Q0.205078 18.1348 0.371094 18.2373Q0.537109 18.3398 0.732422 18.3789Q0.957031 18.4277 1.29883 18.4375Q1.64062 18.4473 2.06055 18.4473Z" fill="#ffffff"/>
 </g>
</svg>
