<?xml version="1.0" encoding="UTF-8"?>
<!--Generator: Apple Native CoreSVG 175-->
<!DOCTYPE svg
PUBLIC "-//W3C//DTD SVG 1.1//EN"
       "http://www.w3.org/Graphics/SVG/1.1/DTD/svg11.dtd">
<svg version="1.1" xmlns="http://www.w3.org/2000/svg" xmlns:xlink="http://www.w3.org/1999/xlink" width="19.1602" height="19.1504">
 <g>
  <rect height="19.1504" opacity="0" width="19.1602" x="0" y="0"/>
  <path d="M9.57031 19.1406Q11.5527 19.1406 13.2861 18.3984Q15.0195 17.6562 16.3379 16.333Q17.6562 15.0098 18.4082 13.2764Q19.1602 11.543 19.1602 9.57031Q19.1602 7.59766 18.4082 5.86426Q17.6562 4.13086 16.3379 2.80762Q15.0195 1.48438 13.2861 0.742188Q11.5527 0 9.57031 0Q7.59766 0 5.86426 0.742188Q4.13086 1.48438 2.81738 2.80762Q1.50391 4.13086 0.751953 5.86426Q0 7.59766 0 9.57031Q0 11.543 0.74707 13.2764Q1.49414 15.0098 2.8125 16.333Q4.13086 17.6562 5.86914 18.3984Q7.60742 19.1406 9.57031 19.1406Z" fill="rgba(255,255,255,0.25)"/>
  <path d="M12.9199 11.8652Q12.7539 11.8652 12.6562 11.7676Q12.5586 11.6699 12.5586 11.4941L12.5586 8.74023L12.5977 7.00195L11.582 8.06641L6.52344 13.125Q6.47461 13.1836 6.40137 13.2129Q6.32812 13.2422 6.23047 13.2422Q6.07422 13.2422 5.97656 13.1445Q5.87891 13.0469 5.87891 12.8906Q5.87891 12.7344 5.99609 12.6172L11.0645 7.54883L12.1289 6.52344L10.7617 6.5625L7.63672 6.5625Q7.46094 6.5625 7.3584 6.45996Q7.25586 6.35742 7.25586 6.20117Q7.25586 6.05469 7.3584 5.96191Q7.46094 5.86914 7.62695 5.86914L12.8906 5.86914Q13.0566 5.86914 13.1592 5.9668Q13.2617 6.06445 13.2617 6.24023L13.2617 11.4844Q13.2617 11.6602 13.1641 11.7627Q13.0664 11.8652 12.9199 11.8652Z" fill="#ffffff"/>
 </g>
</svg>
