<?xml version="1.0" encoding="UTF-8"?>
<!--Generator: Apple Native CoreSVG 175.5-->
<!DOCTYPE svg
PUBLIC "-//W3C//DTD SVG 1.1//EN"
       "http://www.w3.org/Graphics/SVG/1.1/DTD/svg11.dtd">
<svg version="1.1" xmlns="http://www.w3.org/2000/svg" xmlns:xlink="http://www.w3.org/1999/xlink" width="21.1094" height="23.5645">
 <g>
  <rect height="23.5645" opacity="0" width="21.1094" x="0" y="0"/>
  <path d="M10.5547 23.5645Q11.6289 23.5645 12.498 22.7295Q13.3672 21.8945 13.9873 20.3418Q14.6074 18.7891 14.9394 16.6211Q15.2715 14.4531 15.2715 11.7773Q15.2715 9.11133 14.9394 6.94824Q14.6074 4.78516 13.9873 3.2373Q13.3672 1.68945 12.498 0.854492Q11.6289 0.0195312 10.5547 0.0195312Q9.48046 0.0195312 8.61132 0.854492Q7.74218 1.68945 7.12206 3.2373Q6.50194 4.78516 6.16991 6.94824Q5.83788 9.11133 5.83788 11.7773Q5.83788 14.4531 6.16991 16.6211Q6.50194 18.7891 7.12206 20.3418Q7.74218 21.8945 8.61132 22.7295Q9.48046 23.5645 10.5547 23.5645ZM10.5547 22.1289Q9.59764 22.1289 8.88964 20.8447Q8.18163 19.5605 7.78612 17.2363Q7.39061 14.9121 7.39061 11.7773Q7.39061 8.65234 7.78612 6.33301Q8.18163 4.01367 8.88964 2.73438Q9.59764 1.45508 10.5547 1.45508Q11.5117 1.45508 12.2246 2.73438Q12.9375 4.01367 13.333 6.33301Q13.7285 8.65234 13.7285 11.7773Q13.7285 14.9121 13.333 17.2363Q12.9375 19.5605 12.2246 20.8447Q11.5117 22.1289 10.5547 22.1289ZM0.349598 17.7734Q0.886707 18.7012 2.04393 19.0381Q3.20116 19.375 4.85155 19.1357Q6.50194 18.8965 8.55272 18.1006Q10.6035 17.3047 12.918 15.9668Q15.2324 14.6387 16.9463 13.2666Q18.6601 11.8945 19.6904 10.5859Q20.7207 9.27734 21.0088 8.11035Q21.2969 6.94336 20.7598 6.00586Q20.2226 5.07812 19.0654 4.74121Q17.9082 4.4043 16.2578 4.64355Q14.6074 4.88281 12.5664 5.67383Q10.5254 6.46484 8.21093 7.80273Q5.89647 9.15039 4.18261 10.5225Q2.46874 11.8945 1.43358 13.208Q0.398426 14.5215 0.11034 15.6836Q-0.177746 16.8457 0.349598 17.7734ZM1.60936 17.0508Q1.13085 16.2305 1.8828 14.9805Q2.63475 13.7305 4.45116 12.2266Q6.26757 10.7227 8.99218 9.15039Q11.6875 7.58789 13.8945 6.76758Q16.1016 5.94727 17.5615 5.92773Q19.0215 5.9082 19.5 6.73828Q19.9785 7.54883 19.2314 8.80371Q18.4844 10.0586 16.6728 11.5576Q14.8613 13.0566 12.1562 14.6094Q9.43163 16.1816 7.21972 17.0068Q5.0078 17.832 3.54784 17.8564Q2.08788 17.8809 1.60936 17.0508ZM20.7598 17.7734Q21.2871 16.8457 20.999 15.6836Q20.7109 14.5215 19.6758 13.208Q18.6406 11.8945 16.9316 10.5225Q15.2226 9.15039 12.8984 7.80273Q10.584 6.46484 8.54296 5.67383Q6.50194 4.88281 4.85155 4.64355Q3.20116 4.4043 2.04882 4.74121Q0.896473 5.07812 0.349598 6.00586Q-0.187512 6.94336 0.100574 8.11035Q0.38866 9.27734 1.42382 10.5859Q2.45897 11.8945 4.16796 13.2666Q5.87694 14.6387 8.19139 15.9668Q10.5156 17.3047 12.5615 18.1006Q14.6074 18.8965 16.2627 19.1357Q17.918 19.375 19.0703 19.0381Q20.2226 18.7012 20.7598 17.7734ZM19.5 17.0508Q19.0215 17.8809 17.5615 17.8564Q16.1016 17.832 13.8896 17.0068Q11.6777 16.1816 8.96288 14.6094Q6.2578 13.0566 4.44139 11.5576Q2.62499 10.0586 1.87792 8.80371Q1.13085 7.54883 1.60936 6.73828Q2.08788 5.9082 3.55272 5.92773Q5.01757 5.94727 7.21972 6.76758Q9.42186 7.58789 12.1269 9.15039Q14.8418 10.7227 16.6631 12.2266Q18.4844 13.7305 19.2314 14.9805Q19.9785 16.2305 19.5 17.0508Z" fill="rgba(255,255,255,0.5)"/>
  <path d="M10.5644 13.8672Q11.4238 13.8672 12.0293 13.2617Q12.6348 12.6562 12.6348 11.7871Q12.6348 10.9375 12.0293 10.3271Q11.4238 9.7168 10.5644 9.7168Q9.70507 9.7168 9.09472 10.3271Q8.48436 10.9375 8.48436 11.7871Q8.48436 12.6562 9.09472 13.2617Q9.70507 13.8672 10.5644 13.8672Z" fill="#ffffff"/>
 </g>
</svg>
