<?xml version="1.0" encoding="UTF-8"?>
<!--Generator: Apple Native CoreSVG 175-->
<!DOCTYPE svg
PUBLIC "-//W3C//DTD SVG 1.1//EN"
       "http://www.w3.org/Graphics/SVG/1.1/DTD/svg11.dtd">
<svg version="1.1" xmlns="http://www.w3.org/2000/svg" xmlns:xlink="http://www.w3.org/1999/xlink" width="19.1602" height="19.1504">
 <g>
  <rect height="19.1504" opacity="0" width="19.1602" x="0" y="0"/>
  <path d="M9.57031 19.1406Q11.5527 19.1406 13.2861 18.3984Q15.0195 17.6562 16.3379 16.333Q17.6562 15.0098 18.4082 13.2764Q19.1602 11.543 19.1602 9.57031Q19.1602 7.59766 18.4082 5.86426Q17.6562 4.13086 16.3379 2.80762Q15.0195 1.48438 13.2861 0.742188Q11.5527 0 9.57031 0Q7.59766 0 5.86426 0.742188Q4.13086 1.48438 2.81738 2.80762Q1.50391 4.13086 0.751953 5.86426Q0 7.59766 0 9.57031Q0 11.543 0.74707 13.2764Q1.49414 15.0098 2.8125 16.333Q4.13086 17.6562 5.86914 18.3984Q7.60742 19.1406 9.57031 19.1406ZM9.57031 18.3984Q7.74414 18.3984 6.14746 17.71Q4.55078 17.0215 3.33496 15.8105Q2.11914 14.5996 1.43555 12.998Q0.751953 11.3965 0.751953 9.57031Q0.751953 7.74414 1.43555 6.14258Q2.11914 4.54102 3.33496 3.3252Q4.55078 2.10938 6.14746 1.4209Q7.74414 0.732422 9.57031 0.732422Q11.4062 0.732422 13.0029 1.4209Q14.5996 2.10938 15.8154 3.3252Q17.0312 4.54102 17.7197 6.14258Q18.4082 7.74414 18.4082 9.57031Q18.4082 11.3965 17.7246 12.998Q17.041 14.5996 15.8252 15.8105Q14.6094 17.0215 13.0078 17.71Q11.4062 18.3984 9.57031 18.3984Z" fill="rgba(255,255,255,0.5)"/>
  <path d="M6.16211 11.3184Q6.16211 11.4355 6.24512 11.5234Q6.32812 11.6113 6.47461 11.6113L7.08984 11.6113L6.39648 13.5352Q6.36719 13.6523 6.36719 13.7012Q6.36719 13.8574 6.46484 13.9404Q6.5625 14.0234 6.69922 14.0234Q6.81641 14.0234 6.89453 13.9648Q6.97266 13.9062 7.01172 13.7793L7.77344 11.6113L11.377 11.6113L12.1387 13.7891Q12.1777 13.9062 12.2559 13.9648Q12.334 14.0234 12.4512 14.0234Q12.5879 14.0234 12.6855 13.9404Q12.7832 13.8574 12.7832 13.7012Q12.7832 13.623 12.7441 13.5352L12.0605 11.6113L12.666 11.6113Q12.8027 11.6113 12.8857 11.5234Q12.9688 11.4355 12.9688 11.3184Q12.9688 11.1914 12.8857 11.0986Q12.8027 11.0059 12.666 11.0059L11.8555 11.0059L11.5234 10.0684L12.666 10.0684Q12.8027 10.0684 12.8857 9.98535Q12.9688 9.90234 12.9688 9.77539Q12.9688 9.64844 12.8857 9.56055Q12.8027 9.47266 12.666 9.47266L11.3086 9.47266L9.95117 5.66406Q9.90234 5.51758 9.80957 5.43945Q9.7168 5.36133 9.58008 5.36133Q9.43359 5.36133 9.34082 5.43945Q9.24805 5.51758 9.19922 5.66406L7.8418 9.47266L6.47461 9.47266Q6.32812 9.47266 6.24512 9.56055Q6.16211 9.64844 6.16211 9.77539Q6.16211 9.90234 6.24512 9.98535Q6.32812 10.0684 6.47461 10.0684L7.62695 10.0684L7.29492 11.0059L6.47461 11.0059Q6.32812 11.0059 6.24512 11.0986Q6.16211 11.1914 6.16211 11.3184ZM7.97852 11.0059L8.31055 10.0684L10.8398 10.0684L11.1719 11.0059ZM8.51562 9.47266L9.58008 6.45508L10.6348 9.47266Z" fill="#ffffff"/>
 </g>
</svg>
