<?xml version="1.0" encoding="UTF-8"?>
<!--Generator: Apple Native CoreSVG 175.5-->
<!DOCTYPE svg
PUBLIC "-//W3C//DTD SVG 1.1//EN"
       "http://www.w3.org/Graphics/SVG/1.1/DTD/svg11.dtd">
<svg version="1.1" xmlns="http://www.w3.org/2000/svg" xmlns:xlink="http://www.w3.org/1999/xlink" width="14.5801" height="18.2129">
 <g>
  <rect height="18.2129" opacity="0" width="14.5801" x="0" y="0"/>
  <path d="M1.66016 18.2129Q2.01172 18.2129 2.23633 18.042Q2.46094 17.8711 2.56836 17.5L7.25586 2.48047L7.32422 2.48047L12.0215 17.5098Q12.1289 17.8809 12.3486 18.0469Q12.5684 18.2129 12.9395 18.2129Q13.3398 18.2129 13.6035 17.9785Q13.8672 17.7441 13.8672 17.3828Q13.8672 17.1973 13.7598 16.8555L8.48633 0.957031Q8.34961 0.546875 8.06152 0.302734Q7.77344 0.0585938 7.30469 0.0585938Q6.81641 0.0585938 6.52344 0.302734Q6.23047 0.546875 6.09375 0.957031L0.820312 16.8652Q0.722656 17.1777 0.722656 17.3828Q0.722656 17.7441 0.986328 17.9785Q1.25 18.2129 1.66016 18.2129ZM0 9.48242Q0 9.74609 0.185547 9.93164Q0.371094 10.1172 0.634766 10.1172L13.9453 10.1172Q14.209 10.1172 14.3945 9.93164Q14.5801 9.74609 14.5801 9.48242Q14.5801 9.21875 14.3945 9.0332Q14.209 8.84766 13.9453 8.84766L0.634766 8.84766Q0.371094 8.84766 0.185547 9.0332Q0 9.21875 0 9.48242ZM0 12.9883Q0 13.252 0.185547 13.4375Q0.371094 13.623 0.634766 13.623L13.9453 13.623Q14.209 13.623 14.3945 13.4375Q14.5801 13.252 14.5801 12.9883Q14.5801 12.7246 14.3945 12.5391Q14.209 12.3535 13.9453 12.3535L0.634766 12.3535Q0.371094 12.3535 0.185547 12.5391Q0 12.7246 0 12.9883Z" fill="#ffffff"/>
 </g>
</svg>
