<?xml version="1.0" encoding="UTF-8"?>
<!--Generator: Apple Native CoreSVG 175.5-->
<!DOCTYPE svg
PUBLIC "-//W3C//DTD SVG 1.1//EN"
       "http://www.w3.org/Graphics/SVG/1.1/DTD/svg11.dtd">
<svg version="1.1" xmlns="http://www.w3.org/2000/svg" xmlns:xlink="http://www.w3.org/1999/xlink" width="11.1523" height="22.8809">
 <g>
  <rect height="22.8809" opacity="0" width="11.1523" x="0" y="0"/>
  <path d="M2.54883 22.8809L8.60352 22.8809Q9.77539 22.8809 10.4639 22.2217Q11.1523 21.5625 11.1523 20.4492L11.1523 2.42188Q11.1523 1.31836 10.4639 0.65918Q9.77539 0 8.60352 0L2.54883 0Q1.37695 0 0.688477 0.65918Q0 1.31836 0 2.42188L0 20.4492Q0 21.5625 0.688477 22.2217Q1.37695 22.8809 2.54883 22.8809ZM2.71484 21.4551Q2.12891 21.4551 1.78711 21.1279Q1.44531 20.8008 1.44531 20.2441L1.44531 2.63672Q1.44531 2.08008 1.78711 1.75293Q2.12891 1.42578 2.71484 1.42578L8.4375 1.42578Q9.02344 1.42578 9.36523 1.75293Q9.70703 2.08008 9.70703 2.63672L9.70703 20.2441Q9.70703 20.8008 9.36523 21.1279Q9.02344 21.4551 8.4375 21.4551ZM6.17188 3.75L8.25195 3.75Q8.50586 3.75 8.68652 3.57422Q8.86719 3.39844 8.86719 3.14453Q8.86719 2.88086 8.68652 2.70508Q8.50586 2.5293 8.25195 2.5293L6.17188 2.5293Q5.91797 2.5293 5.7373 2.70508Q5.55664 2.88086 5.55664 3.14453Q5.55664 3.39844 5.7373 3.57422Q5.91797 3.75 6.17188 3.75ZM3.19336 7.38281Q3.59375 7.38281 3.86719 7.10938Q4.14062 6.83594 4.14062 6.43555Q4.14062 6.05469 3.86719 5.77148Q3.59375 5.48828 3.19336 5.48828Q2.79297 5.48828 2.51953 5.77148Q2.24609 6.05469 2.24609 6.43555Q2.24609 6.83594 2.51953 7.10938Q2.79297 7.38281 3.19336 7.38281ZM5.57617 7.38281Q5.97656 7.38281 6.25 7.10938Q6.52344 6.83594 6.52344 6.43555Q6.52344 6.05469 6.25 5.77148Q5.97656 5.48828 5.57617 5.48828Q5.17578 5.48828 4.90234 5.77148Q4.62891 6.05469 4.62891 6.43555Q4.62891 6.83594 4.90234 7.10938Q5.17578 7.38281 5.57617 7.38281ZM7.96875 7.38281Q8.36914 7.38281 8.64258 7.10938Q8.91602 6.83594 8.91602 6.43555Q8.91602 6.05469 8.64258 5.77148Q8.36914 5.48828 7.96875 5.48828Q7.56836 5.48828 7.29492 5.77148Q7.02148 6.05469 7.02148 6.43555Q7.02148 6.83594 7.29492 7.10938Q7.56836 7.38281 7.96875 7.38281ZM3.19336 10.1172Q3.59375 10.1172 3.86719 9.84375Q4.14062 9.57031 4.14062 9.16992Q4.14062 8.7793 3.86719 8.50098Q3.59375 8.22266 3.19336 8.22266Q2.79297 8.22266 2.51953 8.50098Q2.24609 8.7793 2.24609 9.16992Q2.24609 9.57031 2.51953 9.84375Q2.79297 10.1172 3.19336 10.1172ZM5.57617 10.1172Q5.97656 10.1172 6.25 9.84375Q6.52344 9.57031 6.52344 9.16992Q6.52344 8.7793 6.25 8.50098Q5.97656 8.22266 5.57617 8.22266Q5.17578 8.22266 4.90234 8.50098Q4.62891 8.7793 4.62891 9.16992Q4.62891 9.57031 4.90234 9.84375Q5.17578 10.1172 5.57617 10.1172ZM7.96875 10.1172Q8.36914 10.1172 8.64258 9.84375Q8.91602 9.57031 8.91602 9.16992Q8.91602 8.7793 8.64258 8.50098Q8.36914 8.22266 7.96875 8.22266Q7.56836 8.22266 7.29492 8.50098Q7.02148 8.7793 7.02148 9.16992Q7.02148 9.57031 7.29492 9.84375Q7.56836 10.1172 7.96875 10.1172ZM3.19336 12.8418Q3.59375 12.8418 3.86719 12.5684Q4.14062 12.2949 4.14062 11.8945Q4.14062 11.5137 3.86719 11.2305Q3.59375 10.9473 3.19336 10.9473Q2.79297 10.9473 2.51953 11.2305Q2.24609 11.5137 2.24609 11.8945Q2.24609 12.2949 2.51953 12.5684Q2.79297 12.8418 3.19336 12.8418ZM5.57617 12.8418Q5.97656 12.8418 6.25 12.5635Q6.52344 12.2852 6.52344 11.8945Q6.52344 11.5039 6.25 11.2256Q5.97656 10.9473 5.57617 10.9473Q5.17578 10.9473 4.90234 11.2256Q4.62891 11.5039 4.62891 11.8945Q4.62891 12.2852 4.90234 12.5635Q5.17578 12.8418 5.57617 12.8418ZM7.96875 12.8418Q8.36914 12.8418 8.64258 12.5635Q8.91602 12.2852 8.91602 11.8945Q8.91602 11.5039 8.64258 11.2256Q8.36914 10.9473 7.96875 10.9473Q7.56836 10.9473 7.29492 11.2256Q7.02148 11.5039 7.02148 11.8945Q7.02148 12.2852 7.29492 12.5635Q7.56836 12.8418 7.96875 12.8418ZM2.97852 19.3262Q3.28125 19.3262 3.49609 19.1113Q3.71094 18.8965 3.71094 18.5938L3.71094 15.1367Q3.71094 14.834 3.49609 14.6191Q3.28125 14.4043 2.97852 14.4043Q2.67578 14.4043 2.46094 14.6191Q2.24609 14.834 2.24609 15.1367L2.24609 18.5938Q2.24609 18.8965 2.46094 19.1113Q2.67578 19.3262 2.97852 19.3262ZM5.09766 16.4941L6.04492 16.4941Q6.29883 16.4941 6.43066 16.3574Q6.5625 16.2207 6.5625 15.9863L6.5625 15.3516Q6.5625 15.1074 6.43066 14.9707Q6.29883 14.834 6.04492 14.834L5.09766 14.834Q4.86328 14.834 4.72656 14.9707Q4.58984 15.1074 4.58984 15.3516L4.58984 15.9863Q4.58984 16.2207 4.72656 16.3574Q4.86328 16.4941 5.09766 16.4941ZM5.09766 18.8867L6.04492 18.8867Q6.5625 18.8867 6.5625 18.3789L6.5625 17.7441Q6.5625 17.2363 6.04492 17.2363L5.09766 17.2363Q4.86328 17.2363 4.72656 17.373Q4.58984 17.5098 4.58984 17.7441L4.58984 18.3789Q4.58984 18.8867 5.09766 18.8867ZM8.18359 19.3262Q8.48633 19.3262 8.70117 19.1113Q8.91602 18.8965 8.91602 18.5938L8.91602 15.1367Q8.91602 14.834 8.70117 14.6191Q8.48633 14.4043 8.18359 14.4043Q7.88086 14.4043 7.66602 14.6191Q7.45117 14.834 7.45117 15.1367L7.45117 18.5938Q7.45117 18.8965 7.66602 19.1113Q7.88086 19.3262 8.18359 19.3262Z" fill="#ffffff"/>
 </g>
</svg>
