<?xml version="1.0" encoding="UTF-8"?>
<!--Generator: Apple Native CoreSVG 175.5-->
<!DOCTYPE svg
PUBLIC "-//W3C//DTD SVG 1.1//EN"
       "http://www.w3.org/Graphics/SVG/1.1/DTD/svg11.dtd">
<svg version="1.1" xmlns="http://www.w3.org/2000/svg" xmlns:xlink="http://www.w3.org/1999/xlink" width="19.9219" height="19.9316">
 <g>
  <rect height="19.9316" opacity="0" width="19.9219" x="0" y="0"/>
  <path d="M9.96094 19.9219Q12.002 19.9219 13.8037 19.1406Q15.6055 18.3594 16.9824 16.9824Q18.3594 15.6055 19.1406 13.8037Q19.9219 12.002 19.9219 9.96094Q19.9219 7.91992 19.1406 6.11816Q18.3594 4.31641 16.9824 2.93945Q15.6055 1.5625 13.7988 0.78125Q11.9922 0 9.95117 0Q7.91016 0 6.1084 0.78125Q4.30664 1.5625 2.93457 2.93945Q1.5625 4.31641 0.78125 6.11816Q0 7.91992 0 9.96094Q0 12.002 0.78125 13.8037Q1.5625 15.6055 2.93945 16.9824Q4.31641 18.3594 6.11816 19.1406Q7.91992 19.9219 9.96094 19.9219ZM9.96094 18.2617Q8.23242 18.2617 6.72852 17.6172Q5.22461 16.9727 4.08691 15.835Q2.94922 14.6973 2.30957 13.1934Q1.66992 11.6895 1.66992 9.96094Q1.66992 8.23242 2.30957 6.72852Q2.94922 5.22461 4.08203 4.08203Q5.21484 2.93945 6.71875 2.2998Q8.22266 1.66016 9.95117 1.66016Q11.6797 1.66016 13.1885 2.2998Q14.6973 2.93945 15.835 4.08203Q16.9727 5.22461 17.6172 6.72852Q18.2617 8.23242 18.2617 9.96094Q18.2617 11.6895 17.6221 13.1934Q16.9824 14.6973 15.8398 15.835Q14.6973 16.9727 13.1934 17.6172Q11.6895 18.2617 9.96094 18.2617Z" fill="rgba(255,255,255,0.5)"/>
  <path d="M7.61719 14.3359L10.4688 14.3359Q11.9824 14.3359 12.8857 13.6572Q13.7891 12.9785 13.7891 11.8262Q13.7891 10.9277 13.2275 10.3418Q12.666 9.75586 11.6895 9.63867L11.6895 9.58008Q12.4219 9.4043 12.8418 8.87207Q13.2617 8.33984 13.2617 7.60742Q13.2617 6.60156 12.5049 6.00098Q11.748 5.40039 10.4883 5.40039L7.61719 5.40039Q6.75781 5.40039 6.75781 6.2793L6.75781 13.4668Q6.75781 14.3359 7.61719 14.3359ZM8.26172 9.19922L8.26172 6.55273L10.1758 6.55273Q10.918 6.55273 11.3428 6.89941Q11.7676 7.24609 11.7676 7.85156Q11.7676 8.49609 11.2451 8.84766Q10.7227 9.19922 9.73633 9.19922ZM8.26172 13.1836L8.26172 10.2734L10.3418 10.2734Q11.2402 10.2734 11.7383 10.6641Q12.2363 11.0547 12.2363 11.7578Q12.2363 13.1836 9.86328 13.1836Z" fill="#ffffff"/>
 </g>
</svg>
