<?xml version="1.0" encoding="UTF-8"?>
<!--Generator: Apple Native CoreSVG 175.5-->
<!DOCTYPE svg
PUBLIC "-//W3C//DTD SVG 1.1//EN"
       "http://www.w3.org/Graphics/SVG/1.1/DTD/svg11.dtd">
<svg version="1.1" xmlns="http://www.w3.org/2000/svg" xmlns:xlink="http://www.w3.org/1999/xlink" width="18.2129" height="16.1426">
 <g>
  <rect height="16.1426" opacity="0" width="18.2129" x="0" y="0"/>
  <path d="M12.0605 15.752Q12.6367 15.752 13.0518 15.3223Q13.4668 14.8926 13.4668 14.0723L13.4668 2.08008Q13.4668 1.25977 13.0518 0.830078Q12.6367 0.400391 12.0605 0.400391Q11.7578 0.400391 11.499 0.493164Q11.2402 0.585938 10.9375 0.761719L0.986328 6.62109Q0.46875 6.93359 0.234375 7.29492Q0 7.65625 0 8.07617Q0 8.49609 0.234375 8.85742Q0.46875 9.21875 0.986328 9.53125L10.9375 15.3906Q11.2305 15.5664 11.4941 15.6592Q11.7578 15.752 12.0605 15.752ZM11.6309 13.9453Q11.582 13.9453 11.5234 13.9258Q11.4648 13.9062 11.3965 13.8574L2.10938 8.34961Q1.9043 8.23242 1.9043 8.07617Q1.9043 7.91992 2.10938 7.80273L11.3965 2.29492Q11.4648 2.24609 11.5234 2.22656Q11.582 2.20703 11.6309 2.20703Q11.7383 2.20703 11.8213 2.28027Q11.9043 2.35352 11.9043 2.5L11.9043 13.6523Q11.9043 13.7988 11.8213 13.8721Q11.7383 13.9453 11.6309 13.9453ZM17.373 16.1426Q17.7148 16.1426 17.9639 15.9082Q18.2129 15.6738 18.2129 15.332L18.2129 0.830078Q18.2129 0.478516 17.9639 0.244141Q17.7148 0.00976562 17.373 0.00976562Q17.0312 0.00976562 16.7871 0.244141Q16.543 0.478516 16.543 0.830078L16.543 15.332Q16.543 15.6738 16.7871 15.9082Q17.0312 16.1426 17.373 16.1426Z" fill="#ffffff"/>
 </g>
</svg>
