<?xml version="1.0" encoding="UTF-8"?>
<!--Generator: Apple Native CoreSVG 175.5-->
<!DOCTYPE svg
PUBLIC "-//W3C//DTD SVG 1.1//EN"
       "http://www.w3.org/Graphics/SVG/1.1/DTD/svg11.dtd">
<svg version="1.1" xmlns="http://www.w3.org/2000/svg" xmlns:xlink="http://www.w3.org/1999/xlink" width="17.9785" height="17.998">
 <g>
  <rect height="17.998" opacity="0" width="17.9785" x="0" y="0"/>
  <path d="M3.06641 17.998L14.9121 17.998Q16.4453 17.998 17.2119 17.2412Q17.9785 16.4844 17.9785 14.9707L17.9785 3.04688Q17.9785 1.5332 17.2119 0.776367Q16.4453 0.0195312 14.9121 0.0195312L3.06641 0.0195312Q1.5332 0.0195312 0.766602 0.776367Q0 1.5332 0 3.04688L0 14.9707Q0 16.4844 0.766602 17.2412Q1.5332 17.998 3.06641 17.998ZM3.08594 16.4258Q2.35352 16.4258 1.96289 16.04Q1.57227 15.6543 1.57227 14.8926L1.57227 3.125Q1.57227 2.36328 1.96289 1.97754Q2.35352 1.5918 3.08594 1.5918L14.8926 1.5918Q15.6152 1.5918 16.0107 1.97754Q16.4062 2.36328 16.4062 3.125L16.4062 14.8926Q16.4062 15.6543 16.0107 16.04Q15.6152 16.4258 14.8926 16.4258Z" fill="rgba(255,255,255,0.5)"/>
  <path d="M9.15039 14.7559Q9.35547 14.7559 9.49219 14.624Q9.62891 14.4922 9.62891 14.2773L9.62891 13.623L9.75586 13.623Q11.1133 13.623 11.9189 12.9248Q12.7246 12.2266 12.7246 11.0449Q12.7246 10.2148 12.2705 9.62891Q11.8164 9.04297 11.0547 8.81836Q11.5918 8.55469 11.9336 8.01758Q12.2754 7.48047 12.2754 6.86523Q12.2754 5.84961 11.5771 5.19531Q10.8789 4.54102 9.75586 4.54102L9.62891 4.54102L9.62891 3.79883Q9.62891 3.59375 9.49219 3.46191Q9.35547 3.33008 9.15039 3.33008Q8.94531 3.33008 8.81348 3.46191Q8.68164 3.59375 8.68164 3.79883L8.68164 4.54102L7.2168 4.54102Q6.875 4.54102 6.66016 4.75586Q6.44531 4.9707 6.44531 5.3125L6.44531 12.8613Q6.44531 13.2031 6.65527 13.4131Q6.86523 13.623 7.2168 13.623L8.68164 13.623L8.68164 14.2773Q8.68164 14.4922 8.81348 14.624Q8.94531 14.7559 9.15039 14.7559ZM7.70508 12.4805L7.70508 9.51172L8.68164 9.51172L8.68164 12.4707ZM9.62891 12.4609L9.62891 9.52148Q10.5469 9.57031 11.0107 9.94141Q11.4746 10.3125 11.4746 10.9961Q11.4746 11.6797 11.0107 12.0508Q10.5469 12.4219 9.62891 12.4609ZM7.69531 8.37891L7.70508 5.67383L8.68164 5.67383L8.68164 8.37891ZM9.62891 8.33008L9.62891 5.69336Q10.3125 5.75195 10.6689 6.0791Q11.0254 6.40625 11.0254 6.96289Q11.0254 7.53906 10.6738 7.88574Q10.3223 8.23242 9.62891 8.33008Z" fill="#ffffff"/>
 </g>
</svg>
