<?xml version="1.0" encoding="UTF-8"?>
<!--Generator: Apple Native CoreSVG 175.5-->
<!DOCTYPE svg
PUBLIC "-//W3C//DTD SVG 1.1//EN"
       "http://www.w3.org/Graphics/SVG/1.1/DTD/svg11.dtd">
<svg version="1.1" xmlns="http://www.w3.org/2000/svg" xmlns:xlink="http://www.w3.org/1999/xlink" width="19.9219" height="19.9316">
 <g>
  <rect height="19.9316" opacity="0" width="19.9219" x="0" y="0"/>
  <path d="M9.96094 19.9219Q12.002 19.9219 13.8037 19.1406Q15.6055 18.3594 16.9824 16.9824Q18.3594 15.6055 19.1406 13.8037Q19.9219 12.002 19.9219 9.96094Q19.9219 7.91992 19.1406 6.11816Q18.3594 4.31641 16.9824 2.93945Q15.6055 1.5625 13.7988 0.78125Q11.9922 0 9.95117 0Q7.91016 0 6.1084 0.78125Q4.30664 1.5625 2.93457 2.93945Q1.5625 4.31641 0.78125 6.11816Q0 7.91992 0 9.96094Q0 12.002 0.78125 13.8037Q1.5625 15.6055 2.93945 16.9824Q4.31641 18.3594 6.11816 19.1406Q7.91992 19.9219 9.96094 19.9219Z" fill="rgba(255,255,255,0.25)"/>
  <path d="M10.127 15.9082Q9.92188 15.9082 9.78027 15.7666Q9.63867 15.625 9.63867 15.4102L9.63867 14.7363L8.125 14.7363Q7.77344 14.7363 7.55371 14.5166Q7.33398 14.2969 7.33398 13.9453L7.33398 6.16211Q7.33398 5.80078 7.55371 5.58105Q7.77344 5.36133 8.125 5.36133L9.63867 5.36133L9.63867 4.59961Q9.63867 4.38477 9.78027 4.24805Q9.92188 4.11133 10.127 4.11133Q10.3418 4.11133 10.4785 4.24805Q10.6152 4.38477 10.6152 4.59961L10.6152 5.36133L10.752 5.36133Q11.9141 5.36133 12.6318 6.04004Q13.3496 6.71875 13.3496 7.76367Q13.3496 8.4082 12.998 8.95508Q12.6465 9.50195 12.0898 9.77539Q12.8711 10.0098 13.3398 10.6152Q13.8086 11.2207 13.8086 12.0801Q13.8086 13.3008 12.9834 14.0186Q12.1582 14.7363 10.752 14.7363L10.6152 14.7363L10.6152 15.4102Q10.6152 15.625 10.4785 15.7666Q10.3418 15.9082 10.127 15.9082ZM8.63281 13.5547L9.63867 13.5449L9.63867 10.498L8.63281 10.498ZM10.6152 13.5352Q11.5625 13.4961 12.041 13.1104Q12.5195 12.7246 12.5195 12.0215Q12.5195 11.3281 12.041 10.9424Q11.5625 10.5566 10.6152 10.5078ZM8.62305 9.32617L9.63867 9.32617L9.63867 6.5332L8.63281 6.5332ZM10.6152 9.26758Q11.3281 9.16992 11.6895 8.81348Q12.0508 8.45703 12.0508 7.86133Q12.0508 7.28516 11.6846 6.95312Q11.3184 6.62109 10.6152 6.5625Z" fill="#ffffff"/>
 </g>
</svg>
