<?xml version="1.0" encoding="UTF-8"?>
<!--Generator: Apple Native CoreSVG 175.5-->
<!DOCTYPE svg
PUBLIC "-//W3C//DTD SVG 1.1//EN"
       "http://www.w3.org/Graphics/SVG/1.1/DTD/svg11.dtd">
<svg version="1.1" xmlns="http://www.w3.org/2000/svg" xmlns:xlink="http://www.w3.org/1999/xlink" width="12.6074" height="26.709">
 <g>
  <rect height="26.709" opacity="0" width="12.6074" x="0" y="0"/>
  <path d="M6.29883 14.9609Q7.62695 14.9609 8.77441 14.3066Q9.92188 13.6523 10.7812 12.4902Q11.6406 11.3281 12.124 9.79004Q12.6074 8.25195 12.6074 6.48438Q12.6074 5.09766 12.1533 3.91602Q11.6992 2.73438 10.8545 1.85547Q10.0098 0.976562 8.85254 0.488281Q7.69531 0 6.29883 0Q4.90234 0 3.74512 0.488281Q2.58789 0.976562 1.74805 1.85547Q0.908203 2.73438 0.454102 3.91602Q0 5.09766 0 6.48438Q0 8.25195 0.483398 9.79004Q0.966797 11.3281 1.82617 12.4902Q2.68555 13.6523 3.82812 14.3066Q4.9707 14.9609 6.29883 14.9609ZM4.93164 14.2871L4.47266 16.0449Q4.39453 16.3379 4.55078 16.5967Q4.70703 16.8555 5.07812 16.8555L7.5293 16.8555Q7.90039 16.8555 8.05664 16.5967Q8.21289 16.3379 8.13477 16.0449L7.65625 14.2871ZM6.18164 26.5723Q6.46484 26.5723 6.66992 26.3623Q6.875 26.1523 6.875 25.8691Q6.875 25.0684 7.16797 24.5117Q7.46094 23.9551 7.84668 23.4766Q8.23242 22.998 8.52539 22.4365Q8.81836 21.875 8.81836 21.0645Q8.81836 20.4004 8.62793 19.917Q8.4375 19.4336 8.15918 19.0479Q7.88086 18.6621 7.60254 18.291Q7.32422 17.9199 7.13867 17.4902Q6.95312 17.0605 6.96289 16.4746L5.57617 16.4746Q5.56641 17.2754 5.75684 17.832Q5.94727 18.3887 6.22559 18.7988Q6.50391 19.209 6.78223 19.5508Q7.06055 19.8926 7.25098 20.249Q7.44141 20.6055 7.44141 21.0645Q7.44141 21.5332 7.24609 21.8799Q7.05078 22.2266 6.75781 22.5635Q6.46484 22.9004 6.17676 23.3252Q5.88867 23.75 5.68848 24.3604Q5.48828 24.9707 5.48828 25.8691Q5.48828 26.1523 5.69336 26.3623Q5.89844 26.5723 6.18164 26.5723Z" fill="#ffffff"/>
 </g>
</svg>
