<?xml version="1.0" encoding="UTF-8"?>
<!--Generator: Apple Native CoreSVG 175.5-->
<!DOCTYPE svg
PUBLIC "-//W3C//DTD SVG 1.1//EN"
       "http://www.w3.org/Graphics/SVG/1.1/DTD/svg11.dtd">
<svg version="1.1" xmlns="http://www.w3.org/2000/svg" xmlns:xlink="http://www.w3.org/1999/xlink" width="18.7891" height="26.709">
 <g>
  <rect height="26.709" opacity="0" width="18.7891" x="0" y="0"/>
  <path d="M3.80859 16.3867L3.39844 17.9883Q3.33008 18.252 3.4668 18.4814Q3.60352 18.7109 3.94531 18.7109L6.16211 18.7109Q6.51367 18.7109 6.64551 18.4814Q6.77734 18.252 6.70898 17.9883L6.28906 16.3867ZM4.96094 26.709Q5.22461 26.709 5.41016 26.5283Q5.5957 26.3477 5.5957 26.0938Q5.5957 25.3906 5.84473 24.9365Q6.09375 24.4824 6.41602 24.1016Q6.73828 23.7207 6.9873 23.2666Q7.23633 22.8125 7.23633 22.1191Q7.23633 21.377 6.99707 20.9277Q6.75781 20.4785 6.44531 20.1367Q6.13281 19.7949 5.89355 19.3896Q5.6543 18.9844 5.66406 18.3398L4.43359 18.3398Q4.42383 19.043 4.58496 19.5117Q4.74609 19.9805 4.98047 20.3027Q5.21484 20.625 5.4541 20.8887Q5.69336 21.1523 5.85449 21.4355Q6.01562 21.7188 6.01562 22.1191Q6.01562 22.6074 5.7666 22.9248Q5.51758 23.2422 5.19043 23.5938Q4.86328 23.9453 4.61426 24.5215Q4.36523 25.0977 4.36523 26.0938Q4.36523 26.3477 4.53613 26.5283Q4.70703 26.709 4.96094 26.709ZM0 10.0781Q0 11.5234 0.400391 12.793Q0.800781 14.0625 1.51367 15.0293Q2.22656 15.9961 3.17871 16.5381Q4.13086 17.0801 5.24414 17.0801Q6.30859 17.0898 7.23145 16.5723Q8.1543 16.0547 8.85742 15.1562Q7.63672 14.3262 6.7334 13.0029Q5.83008 11.6797 5.33691 10.0098Q4.84375 8.33984 4.84375 6.48438Q4.84375 6.00586 4.89258 5.54688Q4.94141 5.08789 5.0293 4.63867Q3.55469 4.6875 2.42188 5.41016Q1.28906 6.13281 0.644531 7.34375Q0 8.55469 0 10.0781Z" fill="rgba(255,255,255,0.5)"/>
  <path d="M12.4707 14.9609Q13.7988 14.9609 14.9463 14.3066Q16.0938 13.6523 16.958 12.4902Q17.8223 11.3281 18.3057 9.79004Q18.7891 8.25195 18.7891 6.48438Q18.7891 5.09766 18.3301 3.91602Q17.8711 2.73438 17.0264 1.85547Q16.1816 0.976562 15.0244 0.488281Q13.8672 0 12.4707 0Q11.0742 0 9.91699 0.488281Q8.75977 0.976562 7.9248 1.85547Q7.08984 2.73438 6.63086 3.91602Q6.17188 5.09766 6.17188 6.48438Q6.17188 8.25195 6.65527 9.79004Q7.13867 11.3281 7.99805 12.4902Q8.85742 13.6523 10 14.3066Q11.1426 14.9609 12.4707 14.9609ZM11.1035 14.2871L10.6445 16.0449Q10.5664 16.3379 10.7227 16.5967Q10.8789 16.8555 11.25 16.8555L13.7012 16.8555Q14.0723 16.8555 14.2334 16.5967Q14.3945 16.3379 14.3066 16.0449L13.8379 14.2871ZM12.3535 26.5723Q12.6367 26.5723 12.8467 26.3623Q13.0566 26.1523 13.0566 25.8691Q13.0566 25.0684 13.3496 24.5117Q13.6426 23.9551 14.0234 23.4766Q14.4043 22.998 14.7021 22.4365Q15 21.875 15 21.0645Q15 20.4004 14.8096 19.917Q14.6191 19.4336 14.3359 19.0479Q14.0527 18.6621 13.7744 18.291Q13.4961 17.9199 13.3105 17.4902Q13.125 17.0605 13.1348 16.4746L11.748 16.4844Q11.748 17.2754 11.9336 17.832Q12.1191 18.3887 12.3975 18.7988Q12.6758 19.209 12.959 19.5508Q13.2422 19.8926 13.4326 20.249Q13.623 20.6055 13.623 21.0645Q13.623 21.5332 13.4229 21.8799Q13.2227 22.2266 12.9346 22.5635Q12.6465 22.9004 12.3535 23.3252Q12.0605 23.75 11.8652 24.3604Q11.6699 24.9707 11.6699 25.8691Q11.6699 26.1523 11.8701 26.3623Q12.0703 26.5723 12.3535 26.5723Z" fill="#ffffff"/>
 </g>
</svg>
