<?xml version="1.0" encoding="UTF-8"?>
<!--Generator: Apple Native CoreSVG 175.5-->
<!DOCTYPE svg
PUBLIC "-//W3C//DTD SVG 1.1//EN"
       "http://www.w3.org/Graphics/SVG/1.1/DTD/svg11.dtd">
<svg version="1.1" xmlns="http://www.w3.org/2000/svg" xmlns:xlink="http://www.w3.org/1999/xlink" width="19.1211" height="19.1309">
 <g>
  <rect height="19.1309" opacity="0" width="19.1211" x="0" y="0"/>
  <path d="M0.78125 6.23047Q1.57227 6.23047 1.57227 5.42969L1.57227 3.125Q1.57227 2.36328 1.96289 1.97754Q2.35352 1.5918 3.08594 1.5918L5.44922 1.5918Q6.25 1.5918 6.25 0.800781Q6.25 0.0195312 5.44922 0.0195312L3.06641 0.0195312Q1.5332 0.0195312 0.766602 0.776367Q0 1.5332 0 3.03711L0 5.42969Q0 6.23047 0.78125 6.23047ZM18.3301 6.23047Q19.1211 6.23047 19.1211 5.42969L19.1211 3.03711Q19.1211 1.5332 18.3545 0.776367Q17.5879 0.0195312 16.0547 0.0195312L13.6621 0.0195312Q12.8711 0.0195312 12.8711 0.800781Q12.8711 1.5918 13.6621 1.5918L16.0254 1.5918Q16.748 1.5918 17.1484 1.97754Q17.5488 2.36328 17.5488 3.125L17.5488 5.42969Q17.5488 6.23047 18.3301 6.23047ZM3.06641 19.1309L5.44922 19.1309Q6.25 19.1309 6.25 18.3496Q6.25 17.5586 5.44922 17.5586L3.08594 17.5586Q2.35352 17.5586 1.96289 17.1729Q1.57227 16.7871 1.57227 16.0254L1.57227 13.7207Q1.57227 12.9199 0.78125 12.9199Q0 12.9199 0 13.7207L0 16.1035Q0 17.6172 0.766602 18.374Q1.5332 19.1309 3.06641 19.1309ZM13.6621 19.1309L16.0547 19.1309Q17.5879 19.1309 18.3545 18.374Q19.1211 17.6172 19.1211 16.1035L19.1211 13.7207Q19.1211 12.9199 18.3301 12.9199Q17.5488 12.9199 17.5488 13.7207L17.5488 16.0254Q17.5488 16.7871 17.1484 17.1729Q16.748 17.5586 16.0254 17.5586L13.6621 17.5586Q12.8711 17.5586 12.8711 18.3496Q12.8711 19.1309 13.6621 19.1309Z" fill="rgba(255,255,255,0.5)"/>
  <path d="M5.09766 13.5449L5.80078 13.5449L5.80078 5.60547L5.09766 5.60547ZM6.67969 13.5449L7.99805 13.5449L7.99805 5.60547L6.67969 5.60547ZM8.58398 13.5449L9.4043 13.5449L9.4043 5.60547L8.58398 5.60547ZM10.1562 13.5449L11.4355 13.5449L11.4355 5.60547L10.1562 5.60547ZM11.9629 13.5449L12.9883 13.5449L12.9883 5.60547L11.9629 5.60547ZM13.3594 13.5449L14.0137 13.5449L14.0137 5.60547L13.3594 5.60547Z" fill="#ffffff"/>
 </g>
</svg>
