<?xml version="1.0" encoding="UTF-8"?>
<!--Generator: Apple Native CoreSVG 175.5-->
<!DOCTYPE svg
PUBLIC "-//W3C//DTD SVG 1.1//EN"
       "http://www.w3.org/Graphics/SVG/1.1/DTD/svg11.dtd">
<svg version="1.1" xmlns="http://www.w3.org/2000/svg" xmlns:xlink="http://www.w3.org/1999/xlink" width="25.0195" height="15.4199">
 <g>
  <rect height="15.4199" opacity="0" width="25.0195" x="0" y="0"/>
  <path d="M0 1.26953Q0 1.79688 0.371094 2.16797Q0.742188 2.53906 1.26953 2.53906L23.7402 2.53906Q24.2676 2.53906 24.6436 2.16797Q25.0195 1.79688 25.0195 1.26953Q25.0195 0.742188 24.6436 0.371094Q24.2676 0 23.7402 0L1.26953 0Q0.742188 0 0.371094 0.371094Q0 0.742188 0 1.26953ZM6.86523 13.0762L18.1445 13.0762Q20.9082 13.0762 22.3193 11.7383Q23.7305 10.4004 23.7305 7.7832L23.7305 3.86719L1.28906 3.86719L1.28906 7.7832Q1.28906 10.4004 2.7002 11.7383Q4.11133 13.0762 6.86523 13.0762ZM4.14062 15.2539Q4.45312 15.3711 4.75098 15.2295Q5.04883 15.0879 5.15625 14.7852L5.98633 12.4902L4.51172 11.9531L3.68164 14.248Q3.57422 14.5508 3.71094 14.8486Q3.84766 15.1465 4.14062 15.2539ZM20.8691 15.2539Q21.1719 15.1465 21.3086 14.8486Q21.4453 14.5508 21.3379 14.248L20.5078 11.9531L19.0234 12.4902L19.8535 14.7852Q19.9707 15.0879 20.2686 15.2295Q20.5664 15.3711 20.8691 15.2539Z" fill="#ffffff"/>
 </g>
</svg>
