<?xml version="1.0" encoding="UTF-8"?>
<!--Generator: Apple Native CoreSVG 175-->
<!DOCTYPE svg
PUBLIC "-//W3C//DTD SVG 1.1//EN"
       "http://www.w3.org/Graphics/SVG/1.1/DTD/svg11.dtd">
<svg version="1.1" xmlns="http://www.w3.org/2000/svg" xmlns:xlink="http://www.w3.org/1999/xlink" width="27.9785" height="14.5801">
 <g>
  <rect height="14.5801" opacity="0" width="27.9785" x="0" y="0"/>
  <path d="M10.1953 9.62891Q9.58008 9.62891 9.15527 9.19922Q8.73047 8.76953 8.73047 8.1543Q8.73047 7.53906 9.15527 7.10938Q9.58008 6.67969 10.1953 6.67969Q10.8105 6.67969 11.2402 7.10938Q11.6699 7.53906 11.6699 8.1543Q11.6699 8.76953 11.2402 9.19922Q10.8105 9.62891 10.1953 9.62891ZM10.1953 9.14062Q10.6152 9.14062 10.8936 8.85742Q11.1719 8.57422 11.1719 8.1543Q11.1719 7.74414 10.8936 7.45605Q10.6152 7.16797 10.1953 7.16797Q9.78516 7.16797 9.50195 7.45605Q9.21875 7.74414 9.21875 8.1543Q9.21875 8.57422 9.50195 8.85742Q9.78516 9.14062 10.1953 9.14062ZM17.7734 9.62891Q17.168 9.62891 16.7334 9.19922Q16.2988 8.76953 16.2988 8.1543Q16.2988 7.53906 16.7334 7.10938Q17.168 6.67969 17.7734 6.67969Q18.3984 6.67969 18.8281 7.10938Q19.2578 7.53906 19.2578 8.1543Q19.2578 8.76953 18.8281 9.19922Q18.3984 9.62891 17.7734 9.62891ZM17.7734 9.14062Q18.1934 9.14062 18.4766 8.85742Q18.7598 8.57422 18.7598 8.1543Q18.7598 7.74414 18.4766 7.45605Q18.1934 7.16797 17.7734 7.16797Q17.373 7.16797 17.0898 7.45605Q16.8066 7.74414 16.8066 8.1543Q16.8066 8.57422 17.0898 8.85742Q17.373 9.14062 17.7734 9.14062Z" fill="rgba(255,255,255,0.25)"/>
  <path d="M0 11.2109Q0 12.2266 0.419922 12.9785Q0.839844 13.7305 1.5918 14.1553Q2.34375 14.5801 3.36914 14.5801Q3.88672 14.5801 4.37988 14.4385Q4.87305 14.2969 5.39062 13.9551Q4.56055 12.5391 3.97949 11.0352Q3.39844 9.53125 3.03711 7.94922Q2.09961 8.08594 1.4209 8.5498Q0.742188 9.01367 0.371094 9.69727Q0 10.3809 0 11.2109ZM27.9785 11.2109Q27.9785 10.3809 27.6074 9.69727Q27.2363 9.01367 26.5527 8.5498Q25.8691 8.08594 24.9512 7.94922Q24.5801 9.53125 23.9941 11.0352Q23.4082 12.5391 22.5977 13.9551Q23.1055 14.2969 23.5986 14.4385Q24.0918 14.5801 24.6191 14.5801Q25.6348 14.5801 26.3867 14.1553Q27.1387 13.7305 27.5586 12.9785Q27.9785 12.2266 27.9785 11.2109Z" fill="rgba(255,255,255,0.5)"/>
  <path d="M10.1953 10.7422Q10.7227 10.7422 11.2451 10.5273Q11.7676 10.3125 12.1484 9.86816Q12.5293 9.42383 12.6465 8.75L13.0664 6.46484Q13.291 5.33203 12.8467 4.3457Q12.4023 3.35938 11.3672 2.57812Q10.332 1.79688 8.78906 1.25977Q7.5 0.810547 6.22559 0.605469Q4.95117 0.400391 3.68164 0.400391Q3.30078 0.400391 3.12988 0.532227Q2.95898 0.664062 2.95898 0.957031Q2.95898 1.60156 3.30078 2.03125Q3.64258 2.46094 4.22852 2.53906Q5.27344 2.69531 6.12793 2.93457Q6.98242 3.17383 7.60742 3.48633Q7.97852 3.66211 8.0957 3.90625Q8.21289 4.15039 8.14453 4.57031L7.65625 7.54883Q7.51953 8.42773 7.81738 9.15527Q8.11523 9.88281 8.74512 10.3125Q9.375 10.7422 10.1953 10.7422ZM10.1953 9.62891Q9.58008 9.62891 9.15527 9.19922Q8.73047 8.76953 8.73047 8.1543Q8.73047 7.53906 9.15527 7.10938Q9.58008 6.67969 10.1953 6.67969Q10.8105 6.67969 11.2402 7.10938Q11.6699 7.53906 11.6699 8.1543Q11.6699 8.76953 11.2402 9.19922Q10.8105 9.62891 10.1953 9.62891ZM10.1953 9.14062Q10.6152 9.14062 10.8936 8.85742Q11.1719 8.57422 11.1719 8.1543Q11.1719 7.74414 10.8936 7.45605Q10.6152 7.16797 10.1953 7.16797Q9.78516 7.16797 9.50195 7.45605Q9.21875 7.74414 9.21875 8.1543Q9.21875 8.57422 9.50195 8.85742Q9.78516 9.14062 10.1953 9.14062ZM10.1953 11.4648Q9.4043 11.4648 8.75 11.1426Q8.0957 10.8203 7.6416 10.2637Q7.1875 9.70703 7.00195 8.97949Q6.81641 8.25195 6.94336 7.43164L7.26562 5.49805Q5.9082 5.83984 5.01953 6.4209Q4.13086 7.00195 3.75 7.8125Q4.43359 10.8398 5.97656 13.5254Q6.36719 13.7109 6.77246 13.7988Q7.17773 13.8867 7.74414 13.8867Q8.85742 13.8867 9.80469 13.6084Q10.752 13.3301 11.46 12.8076Q12.168 12.2852 12.5781 11.5332Q12.9883 10.7812 13.0371 9.81445Q12.627 10.5762 11.875 11.0205Q11.123 11.4648 10.1953 11.4648ZM17.7734 10.7422Q18.6133 10.7422 19.2383 10.3125Q19.8633 9.88281 20.166 9.15527Q20.4688 8.42773 20.3223 7.54883L19.8242 4.57031Q19.7656 4.15039 19.8877 3.90625Q20.0098 3.66211 20.3711 3.48633Q21.0059 3.17383 21.8604 2.93457Q22.7148 2.69531 23.7402 2.53906Q24.3457 2.46094 24.6777 2.03125Q25.0098 1.60156 25.0098 0.957031Q25.0098 0.664062 24.8438 0.532227Q24.6777 0.400391 24.2969 0.400391Q23.0273 0.400391 21.748 0.605469Q20.4688 0.810547 19.1797 1.25977Q17.6465 1.79688 16.6113 2.57812Q15.5762 3.35938 15.1318 4.3457Q14.6875 5.33203 14.9023 6.46484L15.332 8.75Q15.4492 9.42383 15.835 9.86816Q16.2207 10.3125 16.7334 10.5273Q17.2461 10.7422 17.7734 10.7422ZM17.7734 9.62891Q17.168 9.62891 16.7334 9.19922Q16.2988 8.76953 16.2988 8.1543Q16.2988 7.53906 16.7334 7.10938Q17.168 6.67969 17.7734 6.67969Q18.3984 6.67969 18.8281 7.10938Q19.2578 7.53906 19.2578 8.1543Q19.2578 8.76953 18.8281 9.19922Q18.3984 9.62891 17.7734 9.62891ZM17.7734 9.14062Q18.1934 9.14062 18.4766 8.85742Q18.7598 8.57422 18.7598 8.1543Q18.7598 7.74414 18.4766 7.45605Q18.1934 7.16797 17.7734 7.16797Q17.373 7.16797 17.0898 7.45605Q16.8066 7.74414 16.8066 8.1543Q16.8066 8.57422 17.0898 8.85742Q17.373 9.14062 17.7734 9.14062ZM17.7734 11.4648Q16.8555 11.4648 16.1035 11.0205Q15.3516 10.5762 14.9512 9.81445Q14.9902 10.7812 15.4004 11.5332Q15.8105 12.2852 16.5186 12.8076Q17.2266 13.3301 18.1738 13.6084Q19.1211 13.8867 20.2441 13.8867Q20.791 13.8867 21.2061 13.7988Q21.6211 13.7109 22.002 13.5254Q23.5449 10.8398 24.2383 7.8125Q23.8477 7.00195 22.9639 6.4209Q22.0801 5.83984 20.7129 5.49805L21.0352 7.43164Q21.1719 8.25195 20.9814 8.97949Q20.791 9.70703 20.3369 10.2637Q19.8828 10.8203 19.2285 11.1426Q18.5742 11.4648 17.7734 11.4648Z" fill="#ffffff"/>
 </g>
</svg>
