<?xml version="1.0" encoding="UTF-8"?>
<!--Generator: Apple Native CoreSVG 175-->
<!DOCTYPE svg
PUBLIC "-//W3C//DTD SVG 1.1//EN"
       "http://www.w3.org/Graphics/SVG/1.1/DTD/svg11.dtd">
<svg version="1.1" xmlns="http://www.w3.org/2000/svg" xmlns:xlink="http://www.w3.org/1999/xlink" width="21.6618" height="17.5824">
 <g>
  <rect height="17.5824" opacity="0" width="21.6618" x="0" y="0"/>
  <path d="M1.61209 3.98865Q1.61209 2.84286 2.11716 1.86089Q2.62222 0.878906 3.46954 0.237427Q2.48474 0.320282 1.69922 0.835495Q0.913696 1.35071 0.456848 2.173Q0 2.9953 0 3.98865Q0 4.98352 0.455475 5.80582Q0.91095 6.62811 1.6951 7.14958Q2.47925 7.67105 3.46954 7.75391Q2.62222 7.10541 2.11716 6.12343Q1.61209 5.14145 1.61209 3.98865ZM20.0497 3.98865Q20.0497 5.14145 19.5446 6.12343Q19.0395 7.10541 18.1923 7.75391Q19.1771 7.67105 19.9626 7.15096Q20.7481 6.63086 21.205 5.80856Q21.6618 4.98627 21.6618 3.98865Q21.6618 2.99805 21.2029 2.17575Q20.7439 1.35345 19.9596 0.836868Q19.1754 0.320282 18.1923 0.237427Q19.0395 0.878906 19.5446 1.86089Q20.0497 2.84286 20.0497 3.98865Z" fill="rgba(255,255,255,0.5)"/>
  <path d="M6.35712 7.97882Q7.45987 7.97882 8.36746 7.4337Q9.27505 6.88858 9.81392 5.98099Q10.3528 5.07339 10.3528 3.9859Q10.3528 2.88589 9.80415 1.9783Q9.25552 1.07071 8.35007 0.535355Q7.44461 0 6.35712 0Q6.06567 0 5.80002 0.0271606Q5.53436 0.0543213 5.30167 0.125275L5.30167 2.39105Q5.77698 2.03827 6.35712 2.03827Q6.87424 2.03827 7.31133 2.30522Q7.74841 2.57217 8.01193 3.01559Q8.27545 3.45901 8.27545 3.9859Q8.27545 4.51019 8.01331 4.9424Q7.75116 5.3746 7.31758 5.63179Q6.884 5.88898 6.35712 5.88898Q5.55115 5.88898 4.99275 5.33546Q4.43436 4.78195 4.43436 3.9859L4.43436 0.465546Q3.48358 1.00937 2.9203 1.93787Q2.35703 2.86636 2.35703 3.9859Q2.35703 5.09567 2.89589 6.00189Q3.43475 6.90811 4.34242 7.44347Q5.25009 7.97882 6.35712 7.97882ZM6.35712 5.0441Q6.78085 5.0441 7.0932 4.72557Q7.40555 4.40704 7.40555 3.9859Q7.40555 3.57452 7.08832 3.25951Q6.77109 2.94449 6.35712 2.94449Q5.93872 2.94449 5.62859 3.25684Q5.31845 3.56918 5.31845 3.9859Q5.31845 4.41681 5.62584 4.73045Q5.93323 5.0441 6.35712 5.0441ZM5.02975 6.9516L5.02975 9.37729Q5.02975 9.6875 5.21469 9.851Q5.39963 10.0145 5.74066 10.0145L6.95938 10.0145Q7.3172 10.0145 7.49863 9.851Q7.68005 9.6875 7.68005 9.37729L7.68005 6.9516ZM6.00433 17.5571L6.71249 17.5571L6.71249 9.086L6.00433 9.086ZM15.309 7.97882Q16.4117 7.97882 17.3194 7.4337Q18.2271 6.88858 18.7624 5.98099Q19.2978 5.07339 19.2978 3.9859Q19.2978 2.88589 18.7527 1.9783Q18.2076 1.07071 17.2985 0.535355Q16.3895 0 15.309 0Q15.0177 0 14.7507 0.0271606Q14.4836 0.0543213 14.2535 0.125275L14.2535 2.39105Q14.729 2.03827 15.309 2.03827Q15.8263 2.03827 16.2598 2.30522Q16.6934 2.57217 16.9569 3.01559Q17.2203 3.45901 17.2203 3.9859Q17.2203 4.51019 16.9617 4.9424Q16.7032 5.3746 16.2696 5.63179Q15.836 5.88898 15.309 5.88898Q14.4962 5.88898 13.9413 5.33546Q13.3864 4.78195 13.3864 3.9859L13.3864 0.465546Q12.4286 1.00937 11.8688 1.93787Q11.3091 2.86636 11.3091 3.9859Q11.3091 5.09567 11.8479 6.00189Q12.3868 6.90811 13.2944 7.44347Q14.202 7.97882 15.309 7.97882ZM15.309 5.0441Q15.7329 5.0441 16.0452 4.72557Q16.3574 4.40704 16.3574 3.9859Q16.3574 3.57452 16.0403 3.25951Q15.7231 2.94449 15.309 2.94449Q14.8907 2.94449 14.577 3.25684Q14.2633 3.56918 14.2633 3.9859Q14.2633 4.41681 14.5708 4.73045Q14.8782 5.0441 15.309 5.0441ZM16.6321 6.9516L13.9816 6.9516L13.9816 9.37729Q13.9816 9.6875 14.1618 9.851Q14.3419 10.0145 14.6997 10.0145L15.9212 10.0145Q16.2595 10.0145 16.4458 9.851Q16.6321 9.6875 16.6321 9.37729ZM15.6505 17.5571L15.6505 9.086L14.9493 9.086L14.9493 17.5571Z" fill="#ffffff"/>
 </g>
</svg>
