<?xml version="1.0" encoding="UTF-8"?>
<!--Generator: Apple Native CoreSVG 175-->
<!DOCTYPE svg
PUBLIC "-//W3C//DTD SVG 1.1//EN"
       "http://www.w3.org/Graphics/SVG/1.1/DTD/svg11.dtd">
<svg version="1.1" xmlns="http://www.w3.org/2000/svg" xmlns:xlink="http://www.w3.org/1999/xlink" width="18.6797" height="19.8911">
 <g>
  <rect height="19.8911" opacity="0" width="18.6797" x="0" y="0"/>
  <path d="M3.38135 13.0457Q3.25821 12.8012 3.05786 12.7123Q2.85751 12.6234 2.65945 12.6602Q2.33521 12.6926 2.12601 13.0002Q1.91681 13.3078 2.14066 13.7512L4.80667 19.1711Q4.94919 19.4521 5.16624 19.5665Q5.3833 19.6809 5.61417 19.6239Q5.93842 19.5805 6.12785 19.2825Q6.31729 18.9844 6.12228 18.5863ZM15.2957 13.0457L12.5574 18.5863Q12.3598 18.9844 12.5492 19.2825Q12.7386 19.5805 13.0629 19.6239Q13.2938 19.6809 13.5121 19.5665Q13.7305 19.4521 13.873 19.1711L16.546 13.7512Q16.7628 13.3078 16.5537 13.0002Q16.3446 12.6926 16.0274 12.6602Q15.8266 12.6234 15.624 12.7123Q15.4214 12.8012 15.2957 13.0457Z" fill="rgba(255,255,255,0.5)"/>
  <path d="M0 9.34341Q0 10.5496 0.294952 11.7078Q0.589905 12.8661 1.02661 13.7871Q0.810242 13.9781 0.780945 14.3225Q0.751648 14.6669 0.900421 14.9715L3.1395 19.5152Q3.22418 19.6988 3.39996 19.7863Q3.57574 19.8738 3.76053 19.8738Q3.96484 19.8738 4.13925 19.7578Q4.31366 19.6419 4.38095 19.4156L2.05948 14.706Q1.8161 14.2052 1.49773 13.4216Q1.17935 12.6379 0.943756 11.6087Q0.70816 10.5794 0.70816 9.34616Q0.70816 7.41455 1.33415 5.83115Q1.96014 4.24774 3.11508 3.11096Q4.27002 1.97418 5.85396 1.35666Q7.4379 0.739136 9.3399 0.739136Q11.2488 0.739136 12.8293 1.35666Q14.4098 1.97418 15.5633 3.11096Q16.7168 4.24774 17.3476 5.83115Q17.9785 7.41455 17.9785 9.34616Q17.9785 10.5794 17.7395 11.6087Q17.5005 12.6379 17.1842 13.4216Q16.868 14.2052 16.6203 14.706L14.2961 19.4156Q14.366 19.6419 14.5425 19.7578Q14.7191 19.8738 14.9191 19.8738Q15.1039 19.8738 15.2797 19.7863Q15.4555 19.6988 15.5403 19.5152L17.7766 14.9715Q17.9254 14.6669 17.8975 14.3225Q17.8696 13.9781 17.6532 13.7871Q18.0872 12.8661 18.3834 11.7078Q18.6797 10.5496 18.6797 9.34341Q18.6797 7.27859 18.0045 5.56313Q17.3293 3.84766 16.0865 2.59979Q14.8438 1.35193 13.1291 0.675964Q11.4145 0 9.3399 0Q7.26532 0 5.54924 0.675964Q3.83316 1.35193 2.59178 2.59979Q1.3504 3.84766 0.675201 5.56313Q0 7.27859 0 9.34341Z" fill="#ffffff"/>
 </g>
</svg>
