<?xml version="1.0" encoding="UTF-8"?>
<!--Generator: Apple Native CoreSVG 175-->
<!DOCTYPE svg
PUBLIC "-//W3C//DTD SVG 1.1//EN"
       "http://www.w3.org/Graphics/SVG/1.1/DTD/svg11.dtd">
<svg version="1.1" xmlns="http://www.w3.org/2000/svg" xmlns:xlink="http://www.w3.org/1999/xlink" width="19.1602" height="19.1504">
 <g>
  <rect height="19.1504" opacity="0" width="19.1602" x="0" y="0"/>
  <path d="M9.57031 19.1504Q11.5527 19.1504 13.2861 18.4082Q15.0195 17.666 16.3379 16.3428Q17.6562 15.0195 18.4082 13.2861Q19.1602 11.5527 19.1602 9.58008Q19.1602 7.60742 18.4082 5.87402Q17.6562 4.14062 16.3379 2.81738Q15.0195 1.49414 13.2861 0.751953Q11.5527 0.00976562 9.57031 0.00976562Q7.59766 0.00976562 5.86426 0.751953Q4.13086 1.49414 2.81738 2.81738Q1.50391 4.14062 0.751953 5.87402Q0 7.60742 0 9.58008Q0 11.5527 0.74707 13.2861Q1.49414 15.0195 2.8125 16.3428Q4.13086 17.666 5.86914 18.4082Q7.60742 19.1504 9.57031 19.1504Z" fill="rgba(255,255,255,0.25)"/>
  <path d="M3.57422 13.0371L3.57422 9.81445Q3.57422 9.33594 3.85254 9.05273Q4.13086 8.76953 4.59961 8.76953L14.5508 8.76953Q15.0195 8.76953 15.2979 9.05273Q15.5762 9.33594 15.5762 9.81445L15.5762 13.0371Q15.5762 13.3594 15.2637 13.3594L15.0391 13.3594Q14.707 13.3594 14.707 13.0371L14.707 12.2168Q14.6777 12.2266 14.6338 12.2314Q14.5898 12.2363 14.541 12.2363L4.61914 12.2363Q4.57031 12.2363 4.52637 12.2314Q4.48242 12.2266 4.44336 12.2168L4.44336 13.0371Q4.44336 13.3594 4.12109 13.3594L3.89648 13.3594Q3.57422 13.3594 3.57422 13.0371ZM4.78516 8.33008L4.78516 6.98242Q4.78516 6.37695 5.07324 6.08887Q5.36133 5.80078 5.86914 5.80078L13.291 5.80078Q13.7891 5.80078 14.082 6.08887Q14.375 6.37695 14.375 6.98242L14.375 8.33008L13.3301 8.33008L13.3301 7.73438Q13.3301 7.07031 12.5586 7.07031L10.9961 7.07031Q10.2344 7.07031 10.2344 7.73438L10.2344 8.33008L9.15039 8.33008L9.15039 7.73438Q9.15039 7.43164 8.96973 7.25098Q8.78906 7.07031 8.49609 7.07031L6.48438 7.07031Q6.18164 7.07031 6.00586 7.25098Q5.83008 7.43164 5.83008 7.73438L5.83008 8.33008Z" fill="#ffffff"/>
 </g>
</svg>
