<?xml version="1.0" encoding="UTF-8"?>
<!--Generator: Apple Native CoreSVG 175-->
<!DOCTYPE svg
PUBLIC "-//W3C//DTD SVG 1.1//EN"
       "http://www.w3.org/Graphics/SVG/1.1/DTD/svg11.dtd">
<svg version="1.1" xmlns="http://www.w3.org/2000/svg" xmlns:xlink="http://www.w3.org/1999/xlink" width="18.7891" height="19.4824">
 <g>
  <rect height="19.4824" opacity="0" width="18.7891" x="0" y="0"/>
  <path d="M8.90625 19.4824Q9.64844 19.4824 10.2197 19.1699Q10.791 18.8574 11.1523 18.3398Q11.5137 17.8223 11.6309 17.207L6.17188 17.207Q6.28906 17.8223 6.65039 18.3398Q7.01172 18.8574 7.58789 19.1699Q8.16406 19.4824 8.90625 19.4824ZM0.693359 16.3281L14.1602 16.3281L3.32031 5.48828Q3.17383 5.95703 3.07129 6.48438Q2.96875 7.01172 2.91016 7.57812Q2.76367 8.62305 2.68066 9.66309Q2.59766 10.7031 2.3877 11.5771Q2.17773 12.4512 1.67969 13.0078Q1.28906 13.4375 0.90332 13.8672Q0.517578 14.2969 0.258789 14.7461Q0 15.1953 0 15.6836Q0 15.9766 0.19043 16.1523Q0.380859 16.3281 0.693359 16.3281ZM8.90625 0Q7.95898 0 7.30957 0.615234Q6.66016 1.23047 6.49414 2.24609Q5.94727 2.38281 5.50293 2.63184Q5.05859 2.88086 4.69727 3.22266L17.6074 16.1426Q17.793 15.9766 17.793 15.6836Q17.793 15.1953 17.5391 14.7461Q17.2852 14.2969 16.8945 13.8672Q16.5039 13.4375 16.123 13.0078Q15.625 12.4512 15.415 11.5771Q15.2051 10.7031 15.1172 9.66309Q15.0293 8.62305 14.8926 7.57812Q14.7559 6.25 14.3555 5.16113Q13.9551 4.07227 13.2129 3.31543Q12.4707 2.55859 11.3086 2.24609Q11.1426 1.23047 10.4883 0.615234Q9.83398 0 8.90625 0Z" fill="rgba(255,255,255,0.5)"/>
  <path d="M0.117188 0.976562L18.1738 19.0234Q18.2812 19.1309 18.4326 19.1309Q18.584 19.1309 18.6816 19.0234Q18.7891 18.916 18.7891 18.7695Q18.7891 18.623 18.6816 18.5156L0.634766 0.46875Q0.537109 0.371094 0.390625 0.366211Q0.244141 0.361328 0.117188 0.46875Q0.0195312 0.576172 0.0195312 0.727539Q0.0195312 0.878906 0.117188 0.976562Z" fill="#ffffff"/>
 </g>
</svg>
