<?xml version="1.0" encoding="UTF-8"?>
<!--Generator: Apple Native CoreSVG 175.5-->
<!DOCTYPE svg
PUBLIC "-//W3C//DTD SVG 1.1//EN"
       "http://www.w3.org/Graphics/SVG/1.1/DTD/svg11.dtd">
<svg version="1.1" xmlns="http://www.w3.org/2000/svg" xmlns:xlink="http://www.w3.org/1999/xlink" width="34.834" height="20.1855">
 <g>
  <rect height="20.1855" opacity="0" width="34.834" x="0" y="0"/>
  <path d="M8.20312 15.459Q8.20312 15.9961 8.59375 16.3184Q8.98438 16.6406 9.67773 16.6406L13.7988 16.6406Q13.8379 17.5879 14.3115 18.3887Q14.7852 19.1895 15.5859 19.6826Q16.3867 20.1758 17.4121 20.1758Q18.4473 20.1758 19.248 19.6875Q20.0488 19.1992 20.5225 18.3936Q20.9961 17.5879 21.0352 16.6406L25.1562 16.6406Q25.8496 16.6406 26.2402 16.3184Q26.6309 15.9961 26.6309 15.459Q26.6309 14.9707 26.3477 14.5117Q26.0645 14.0527 25.6396 13.6133Q25.2148 13.1738 24.7949 12.7344Q24.4727 12.4023 24.292 11.8652Q24.1113 11.3281 24.0234 10.7227Q23.9355 10.1172 23.8965 9.55078Q23.8672 7.62695 23.4912 6.16699Q23.1152 4.70703 22.3242 3.73047Q21.5332 2.75391 20.2344 2.28516Q19.9902 1.32812 19.2432 0.664062Q18.4961 0 17.4121 0Q16.3379 0 15.5908 0.664062Q14.8438 1.32812 14.5996 2.28516Q13.3008 2.75391 12.5049 3.73047Q11.709 4.70703 11.3379 6.16699Q10.9668 7.62695 10.9375 9.55078Q10.8984 10.1172 10.8105 10.7227Q10.7227 11.3281 10.542 11.8652Q10.3613 12.4023 10.0391 12.7344Q9.61914 13.1738 9.19434 13.6133Q8.76953 14.0527 8.48633 14.5117Q8.20312 14.9707 8.20312 15.459ZM10.0977 15.166L10.0977 15.0488Q10.1855 14.9121 10.3906 14.6826Q10.5957 14.4531 10.8545 14.1797Q11.1133 13.9062 11.3672 13.623Q11.6309 13.3301 11.8262 12.9443Q12.0215 12.5586 12.1582 12.0703Q12.2949 11.582 12.373 10.9863Q12.4512 10.3906 12.4902 9.67773Q12.5293 7.54883 12.9297 6.29883Q13.3301 5.04883 13.999 4.43848Q14.668 3.82812 15.5078 3.59375Q15.6934 3.55469 15.791 3.45215Q15.8887 3.34961 15.8984 3.16406Q15.9277 2.40234 16.333 1.91895Q16.7383 1.43555 17.4121 1.43555Q18.0957 1.43555 18.501 1.91895Q18.9062 2.40234 18.9355 3.16406Q18.9453 3.34961 19.043 3.45215Q19.1406 3.55469 19.3262 3.59375Q20.1562 3.82812 20.8252 4.43848Q21.4941 5.04883 21.8994 6.29883Q22.3047 7.54883 22.3438 9.67773Q22.373 10.3906 22.4561 10.9863Q22.5391 11.582 22.6709 12.0703Q22.8027 12.5586 22.998 12.9443Q23.1934 13.3301 23.457 13.623Q23.7207 13.9062 23.9795 14.1797Q24.2383 14.4531 24.4385 14.6826Q24.6387 14.9121 24.7266 15.0488L24.7266 15.166ZM15.3223 16.6406L19.5117 16.6406Q19.4531 17.6367 18.877 18.2178Q18.3008 18.7988 17.4121 18.7988Q16.5332 18.7988 15.9521 18.2178Q15.3711 17.6367 15.3223 16.6406Z" fill="#ffffff"/>
  <path d="M6.50391 13.9844Q6.73828 13.7207 6.6748 13.4033Q6.61133 13.0859 6.37695 12.7734Q5.9375 12.2266 5.72266 11.5381Q5.50781 10.8496 5.50781 10.0879Q5.50781 9.32617 5.72266 8.6377Q5.9375 7.94922 6.37695 7.40234Q6.61133 7.08008 6.6748 6.76758Q6.73828 6.45508 6.50391 6.19141Q6.25977 5.91797 5.88379 5.92285Q5.50781 5.92773 5.25391 6.25977Q4.61914 7.05078 4.26758 8.03223Q3.91602 9.01367 3.91602 10.0879Q3.91602 11.1621 4.26758 12.1436Q4.61914 13.125 5.25391 13.916Q5.50781 14.248 5.88379 14.2529Q6.25977 14.2578 6.50391 13.9844ZM28.3203 13.9844Q28.5645 14.2578 28.9404 14.2529Q29.3164 14.248 29.5801 13.916Q30.2148 13.125 30.5664 12.1436Q30.918 11.1621 30.918 10.0879Q30.918 9.01367 30.5664 8.03223Q30.2148 7.05078 29.5801 6.25977Q29.3164 5.92773 28.9404 5.92285Q28.5645 5.91797 28.3203 6.19141Q28.0957 6.45508 28.1592 6.76758Q28.2227 7.08008 28.457 7.40234Q28.8867 7.94922 29.1064 8.6377Q29.3262 9.32617 29.3262 10.0879Q29.3262 10.8496 29.1064 11.5381Q28.8867 12.2266 28.457 12.7734Q28.2227 13.0859 28.1592 13.4033Q28.0957 13.7207 28.3203 13.9844Z" fill="rgba(255,255,255,0.5)"/>
  <path d="M3.76953 16.7676Q4.00391 16.5039 3.9502 16.1816Q3.89648 15.8594 3.63281 15.5566Q2.64648 14.4629 2.11914 13.0615Q1.5918 11.6602 1.5918 10.0879Q1.5918 8.50586 2.11914 7.10938Q2.64648 5.71289 3.63281 4.61914Q3.89648 4.31641 3.9502 3.99414Q4.00391 3.67188 3.76953 3.4082Q3.53516 3.13477 3.17871 3.13965Q2.82227 3.14453 2.53906 3.45703Q1.31836 4.77539 0.65918 6.48438Q0 8.19336 0 10.0879Q0 11.9824 0.65918 13.6865Q1.31836 15.3906 2.53906 16.7188Q2.82227 17.0215 3.17871 17.0312Q3.53516 17.041 3.76953 16.7676ZM31.0645 16.7676Q31.2988 17.041 31.6553 17.0312Q32.0117 17.0215 32.2949 16.7188Q33.5156 15.3906 34.1748 13.6865Q34.834 11.9824 34.834 10.0879Q34.834 8.19336 34.1748 6.48438Q33.5156 4.77539 32.2949 3.45703Q32.0117 3.14453 31.6553 3.13965Q31.2988 3.13477 31.0645 3.4082Q30.8301 3.67188 30.8838 3.99414Q30.9375 4.31641 31.2012 4.61914Q32.1777 5.71289 32.71 7.10938Q33.2422 8.50586 33.2422 10.0879Q33.2422 11.6602 32.71 13.0615Q32.1777 14.4629 31.2012 15.5566Q30.9375 15.8594 30.8838 16.1816Q30.8301 16.5039 31.0645 16.7676Z" fill="rgba(255,255,255,0.5)"/>
 </g>
</svg>
