<?xml version="1.0" encoding="UTF-8"?>
<!--Generator: Apple Native CoreSVG 175.5-->
<!DOCTYPE svg
PUBLIC "-//W3C//DTD SVG 1.1//EN"
       "http://www.w3.org/Graphics/SVG/1.1/DTD/svg11.dtd">
<svg version="1.1" xmlns="http://www.w3.org/2000/svg" xmlns:xlink="http://www.w3.org/1999/xlink" width="20.2539" height="22.8027">
 <g>
  <rect height="22.8027" opacity="0" width="20.2539" x="0" y="0"/>
  <path d="M9.20898 21.4844Q10.2441 21.4844 11.0449 20.9961Q11.8457 20.5078 12.3193 19.7021Q12.793 18.8965 12.832 17.9492L16.9531 17.9492Q17.6465 17.9492 18.0371 17.627Q18.4277 17.3047 18.4277 16.7676Q18.4277 16.2793 18.1445 15.8203Q17.8613 15.3613 17.4365 14.9219Q17.0117 14.4824 16.5918 14.043Q16.1426 13.584 15.9521 12.7832Q15.7617 11.9824 15.7324 11.2305Q15.7324 11.084 15.7275 10.9521Q15.7227 10.8203 15.7227 10.6836Q15.3027 10.7617 14.9219 10.7324Q14.541 10.7031 14.1602 10.4688Q14.1699 10.6836 14.1748 10.9033Q14.1797 11.123 14.1895 11.3574Q14.209 12.2559 14.3408 12.9248Q14.4727 13.5938 14.707 14.082Q14.9414 14.5703 15.2539 14.9316Q15.5176 15.2148 15.7764 15.4883Q16.0352 15.7617 16.2354 15.9912Q16.4355 16.2207 16.5234 16.3574L16.5234 16.4746L1.89453 16.4746L1.89453 16.3574Q1.98242 16.2207 2.1875 15.9912Q2.39258 15.7617 2.65137 15.4883Q2.91016 15.2148 3.16406 14.9316Q3.42773 14.6387 3.62305 14.2529Q3.81836 13.8672 3.95508 13.3789Q4.0918 12.8906 4.16992 12.2949Q4.24805 11.6992 4.28711 10.9863Q4.32617 8.85742 4.72656 7.60742Q5.12695 6.35742 5.7959 5.74707Q6.46484 5.13672 7.30469 4.90234Q7.49023 4.86328 7.59277 4.76074Q7.69531 4.6582 7.69531 4.47266Q7.72461 3.87695 7.99805 3.47168Q8.27148 3.06641 8.66211 2.93945Q8.82812 2.58789 9.10645 2.31934Q9.38477 2.05078 9.74609 1.89453Q10.1074 1.73828 10.5273 1.73828Q10.6543 1.73828 10.7422 1.75781Q10.7422 1.74805 10.7422 1.74316Q10.7422 1.73828 10.7422 1.72852Q10.4199 1.54297 10.0293 1.42578Q9.63867 1.30859 9.20898 1.30859Q8.13477 1.30859 7.3877 1.97266Q6.64062 2.63672 6.39648 3.59375Q5.09766 4.0625 4.30176 5.03906Q3.50586 6.01562 3.13477 7.47559Q2.76367 8.93555 2.73438 10.8594Q2.69531 11.4258 2.60742 12.0312Q2.51953 12.6367 2.33887 13.1738Q2.1582 13.7109 1.83594 14.043Q1.41602 14.4824 0.991211 14.9219Q0.566406 15.3613 0.283203 15.8203Q0 16.2793 0 16.7676Q0 17.3047 0.390625 17.627Q0.78125 17.9492 1.47461 17.9492L5.5957 17.9492Q5.63477 18.8965 6.1084 19.6973Q6.58203 20.498 7.38281 20.9912Q8.18359 21.4844 9.20898 21.4844ZM9.20898 20.1074Q8.33008 20.1074 7.74902 19.5264Q7.16797 18.9453 7.11914 17.9492L11.3086 17.9492Q11.25 18.9453 10.6738 19.5264Q10.0977 20.1074 9.20898 20.1074Z" fill="rgba(255,255,255,0.5)"/>
  <path d="M10.5273 5.89844Q10.7715 5.89844 10.9326 5.74219Q11.0938 5.58594 11.0938 5.36133L11.0938 3.87695Q11.0938 3.64258 10.9326 3.48145Q10.7715 3.32031 10.5273 3.32031Q10.3027 3.32031 10.1465 3.48145Q9.99023 3.64258 9.99023 3.87695L9.99023 5.36133Q9.99023 5.58594 10.1465 5.74219Q10.3027 5.89844 10.5273 5.89844Z" fill="#ffffff"/>
  <path d="M12.832 7.53906Q13.0664 7.53906 13.2227 7.38281Q13.3789 7.22656 13.3789 6.98242L13.3789 2.23633Q13.3789 2.01172 13.2227 1.85059Q13.0664 1.68945 12.832 1.68945Q12.5977 1.68945 12.4365 1.85059Q12.2754 2.01172 12.2754 2.23633L12.2754 6.98242Q12.2754 7.22656 12.4365 7.38281Q12.5977 7.53906 12.832 7.53906Z" fill="#ffffff"/>
  <path d="M15.1172 9.22852Q15.3516 9.22852 15.5127 9.07227Q15.6738 8.91602 15.6738 8.68164L15.6738 0.566406Q15.6738 0.322266 15.5127 0.161133Q15.3516 0 15.1172 0Q14.8926 0 14.7314 0.161133Q14.5703 0.322266 14.5703 0.566406L14.5703 8.68164Q14.5703 8.91602 14.7266 9.07227Q14.8828 9.22852 15.1172 9.22852Z" fill="#ffffff"/>
  <path d="M17.4023 8.26172Q17.6367 8.26172 17.7979 8.10059Q17.959 7.93945 17.959 7.70508L17.959 1.51367Q17.959 1.28906 17.7979 1.13281Q17.6367 0.976562 17.4023 0.976562Q17.1777 0.976562 17.0166 1.13281Q16.8555 1.28906 16.8555 1.51367L16.8555 7.70508Q16.8555 7.93945 17.0166 8.10059Q17.1777 8.26172 17.4023 8.26172Z" fill="#ffffff"/>
  <path d="M19.6973 6.41602Q19.9414 6.41602 20.0977 6.25977Q20.2539 6.10352 20.2539 5.86914L20.2539 3.35938Q20.2539 3.125 20.0977 2.96875Q19.9414 2.8125 19.6973 2.8125Q19.4727 2.8125 19.3115 2.97363Q19.1504 3.13477 19.1504 3.35938L19.1504 5.86914Q19.1504 6.09375 19.3115 6.25488Q19.4727 6.41602 19.6973 6.41602Z" fill="#ffffff"/>
 </g>
</svg>
