<?xml version="1.0" encoding="UTF-8"?>
<!--Generator: Apple Native CoreSVG 175.5-->
<!DOCTYPE svg
PUBLIC "-//W3C//DTD SVG 1.1//EN"
       "http://www.w3.org/Graphics/SVG/1.1/DTD/svg11.dtd">
<svg version="1.1" xmlns="http://www.w3.org/2000/svg" xmlns:xlink="http://www.w3.org/1999/xlink" width="31.6602" height="19.6191">
 <g>
  <rect height="19.6191" opacity="0" width="31.6602" x="0" y="0"/>
  <path d="M6.2207 19.6191Q7.50977 19.6191 8.63281 19.1357Q9.75586 18.6523 10.6104 17.7979Q11.4648 16.9434 11.9482 15.8154Q12.4316 14.6875 12.4316 13.4082Q12.4316 12.1191 11.9531 10.9912Q11.4746 9.86328 10.6201 9.00879Q9.76562 8.1543 8.6377 7.67578Q7.50977 7.19727 6.2207 7.19727Q4.93164 7.19727 3.80371 7.67578Q2.67578 8.1543 1.82129 9.00879Q0.966797 9.86328 0.483398 10.9912Q0 12.1191 0 13.4082Q0 14.6973 0.483398 15.8203Q0.966797 16.9434 1.82129 17.7979Q2.67578 18.6523 3.80371 19.1357Q4.93164 19.6191 6.2207 19.6191ZM6.2207 18.0859Q5.24414 18.0859 4.39941 17.7246Q3.55469 17.3633 2.91016 16.7236Q2.26562 16.084 1.9043 15.2344Q1.54297 14.3848 1.54297 13.4082Q1.54297 12.4316 1.9043 11.5869Q2.26562 10.7422 2.91016 10.0977Q3.55469 9.45312 4.4043 9.0918Q5.25391 8.73047 6.2207 8.73047Q7.1875 8.73047 8.03711 9.0918Q8.88672 9.45312 9.53125 10.0977Q10.1758 10.7422 10.5371 11.5918Q10.8984 12.4414 10.8984 13.4082Q10.8984 14.375 10.5371 15.2246Q10.1758 16.0742 9.53125 16.7188Q8.88672 17.3633 8.03711 17.7246Q7.1875 18.0859 6.2207 18.0859ZM25.4492 19.6191Q26.7383 19.6191 27.8613 19.1357Q28.9844 18.6523 29.8389 17.7979Q30.6934 16.9434 31.1768 15.8203Q31.6602 14.6973 31.6602 13.4082Q31.6602 12.1191 31.1768 10.9912Q30.6934 9.86328 29.8389 9.01367Q28.9844 8.16406 27.8613 7.68066Q26.7383 7.19727 25.4492 7.19727Q24.1602 7.19727 23.0322 7.68066Q21.9043 8.16406 21.0449 9.01367Q20.1855 9.86328 19.7021 10.9912Q19.2188 12.1191 19.2188 13.4082Q19.2188 14.6973 19.7021 15.8252Q20.1855 16.9531 21.0449 17.8076Q21.9043 18.6621 23.0322 19.1406Q24.1602 19.6191 25.4492 19.6191ZM25.4492 18.0859Q24.1504 18.0859 23.0859 17.4609Q22.0215 16.8359 21.3916 15.7715Q20.7617 14.707 20.7617 13.4082Q20.7617 12.4414 21.1279 11.5918Q21.4941 10.7422 22.1338 10.0977Q22.7734 9.45312 23.6279 9.0918Q24.4824 8.73047 25.4492 8.73047Q26.416 8.73047 27.2656 9.09668Q28.1152 9.46289 28.7549 10.1074Q29.3945 10.752 29.7607 11.5967Q30.127 12.4414 30.127 13.4082Q30.127 14.375 29.7607 15.2246Q29.3945 16.0742 28.7549 16.7188Q28.1152 17.3633 27.2656 17.7246Q26.416 18.0859 25.4492 18.0859ZM16.6504 0.761719Q16.6504 1.07422 16.875 1.29395Q17.0996 1.51367 17.4121 1.51367L19.9414 1.51367Q20.0293 1.51367 20.0684 1.58203L24.7168 13.6914L26.1328 13.2031L21.2695 0.654297Q21.0156 0 20.2051 0L17.4121 0Q17.0996 0 16.875 0.219727Q16.6504 0.439453 16.6504 0.761719ZM22.7539 6.68945L22.7539 5.2832L12.3926 6.80664L12.3926 8.21289ZM14.7461 14.2969L14.7461 12.8906L6.31836 12.8906L6.31836 14.2969ZM15.8203 15.4883Q16.3867 15.4883 16.8506 15.21Q17.3145 14.9316 17.5928 14.4727Q17.8711 14.0137 17.8711 13.4473Q17.8711 12.8809 17.5928 12.417Q17.3145 11.9531 16.8506 11.6797Q16.3867 11.4062 15.8203 11.4062Q15.2539 11.4062 14.79 11.6797Q14.3262 11.9531 14.0479 12.417Q13.7695 12.8809 13.7695 13.4473Q13.7598 14.0039 14.0332 14.4678Q14.3066 14.9316 14.7754 15.21Q15.2441 15.4883 15.8203 15.4883ZM15.8301 14.1504Q15.5273 14.1504 15.3223 13.9453Q15.1172 13.7402 15.1172 13.457Q15.1172 13.1641 15.3223 12.9541Q15.5273 12.7441 15.8301 12.7441Q16.123 12.7441 16.3232 12.9492Q16.5234 13.1543 16.5234 13.457Q16.5234 13.7402 16.3232 13.9453Q16.123 14.1504 15.8301 14.1504ZM6.2207 14.6777Q6.74805 14.6777 7.12402 14.3066Q7.5 13.9355 7.5 13.4082Q7.5 12.8711 7.12891 12.5Q6.75781 12.1289 6.2207 12.1289Q5.68359 12.1289 5.31738 12.4951Q4.95117 12.8613 4.95117 13.4082Q4.94141 13.9355 5.3125 14.3066Q5.68359 14.6777 6.2207 14.6777ZM25.4492 14.6875Q25.9766 14.6875 26.3477 14.3115Q26.7188 13.9355 26.7188 13.4082Q26.7188 12.8711 26.3525 12.5049Q25.9863 12.1387 25.4492 12.1387Q24.9219 12.1387 24.5508 12.5Q24.1797 12.8613 24.1699 13.4082Q24.1602 13.9355 24.5361 14.3115Q24.9121 14.6875 25.4492 14.6875ZM15.4883 11.9141L16.748 12.627L22.8223 6.11328L21.0547 6.05469ZM5.64453 12.9199L6.89453 13.6328L12.7051 7.69531L11.5039 6.83594ZM14.4629 12.8223L15.7129 11.9238L11.4062 3.75977L9.94141 4.07227ZM8.11523 3.56445Q8.11523 3.87695 8.33496 4.09668Q8.55469 4.31641 8.87695 4.31641L12.7148 4.31641Q13.0371 4.31641 13.2568 4.09668Q13.4766 3.87695 13.4766 3.56445Q13.4766 3.25195 13.252 3.02734Q13.0273 2.80273 12.7148 2.80273L8.87695 2.80273Q8.56445 2.80273 8.33984 3.02734Q8.11523 3.25195 8.11523 3.56445Z" fill="#ffffff"/>
 </g>
</svg>
