<?xml version="1.0" encoding="UTF-8"?>
<!--Generator: Apple Native CoreSVG 175.5-->
<!DOCTYPE svg
PUBLIC "-//W3C//DTD SVG 1.1//EN"
       "http://www.w3.org/Graphics/SVG/1.1/DTD/svg11.dtd">
<svg version="1.1" xmlns="http://www.w3.org/2000/svg" xmlns:xlink="http://www.w3.org/1999/xlink" width="24.9316" height="19.3457">
 <g>
  <rect height="19.3457" opacity="0" width="24.9316" x="0" y="0"/>
  <path d="M0 14.5801Q0 15.9473 0.737305 17.0215Q1.47461 18.0957 2.70508 18.7207Q3.93555 19.3457 5.42969 19.3457Q6.91406 19.3457 8.14453 18.7207Q9.375 18.0957 10.1074 17.0215Q10.8398 15.9473 10.8398 14.5801L10.8398 12.0801Q11.2012 11.9434 11.6211 11.8652Q12.041 11.7871 12.4707 11.7871Q13.457 11.7871 14.0918 12.0117L14.0918 14.5801Q14.0918 15.9473 14.8193 17.0215Q15.5469 18.0957 16.7773 18.7207Q18.0078 19.3457 19.502 19.3457Q20.9961 19.3457 22.2266 18.7207Q23.457 18.0957 24.1943 17.0215Q24.9316 15.9473 24.9316 14.5801Q24.9316 14.043 24.8291 13.5059Q24.7266 12.9688 24.4238 12.2754L20.3711 2.82227Q19.9512 1.86523 19.1162 1.33789Q18.2812 0.810547 17.1875 0.810547Q15.7812 0.810547 14.9365 1.63086Q14.0918 2.45117 14.0918 3.78906L14.0918 4.73633Q13.7207 4.63867 13.3203 4.58984Q12.9199 4.54102 12.4707 4.54102Q12.0508 4.54102 11.6406 4.60449Q11.2305 4.66797 10.8398 4.79492L10.8398 3.78906Q10.8398 2.45117 9.99512 1.63086Q9.15039 0.810547 7.74414 0.810547Q6.64062 0.810547 5.80566 1.33789Q4.9707 1.86523 4.56055 2.82227L0.498047 12.2754Q0.205078 12.9688 0.102539 13.5059Q0 14.043 0 14.5801ZM1.5332 14.5801Q1.5332 13.5938 2.05078 12.8516Q2.56836 12.1094 3.44727 11.6943Q4.32617 11.2793 5.42969 11.2793Q6.52344 11.2793 7.42188 11.6943Q8.32031 12.1094 8.84766 12.8516Q9.375 13.5938 9.375 14.5801Q9.375 15.5664 8.84766 16.3086Q8.32031 17.0508 7.42676 17.4658Q6.5332 17.8809 5.42969 17.8809Q4.32617 17.8809 3.44727 17.4609Q2.56836 17.041 2.05078 16.2988Q1.5332 15.5566 1.5332 14.5801ZM15.5566 14.5801Q15.5566 13.5938 16.084 12.8516Q16.6113 12.1094 17.5049 11.6943Q18.3984 11.2793 19.502 11.2793Q20.6055 11.2793 21.4844 11.6943Q22.3633 12.1094 22.876 12.8516Q23.3887 13.5938 23.3887 14.5801Q23.3887 15.5566 22.876 16.2988Q22.3633 17.041 21.4844 17.4609Q20.6055 17.8809 19.502 17.8809Q18.3984 17.8809 17.5049 17.4658Q16.6113 17.0508 16.084 16.3086Q15.5566 15.5664 15.5566 14.5801ZM10.8398 9.10156L10.8398 7.77344Q11.6211 7.5293 12.4707 7.5293Q12.9199 7.5293 13.3203 7.57812Q13.7207 7.62695 14.0918 7.71484L14.0918 9.02344Q13.457 8.80859 12.4707 8.80859Q12.041 8.80859 11.6211 8.88672Q11.2012 8.96484 10.8398 9.10156Z" fill="#ffffff"/>
 </g>
</svg>
