<?xml version="1.0" encoding="UTF-8"?>
<!--Generator: Apple Native CoreSVG 175-->
<!DOCTYPE svg
PUBLIC "-//W3C//DTD SVG 1.1//EN"
       "http://www.w3.org/Graphics/SVG/1.1/DTD/svg11.dtd">
<svg version="1.1" xmlns="http://www.w3.org/2000/svg" xmlns:xlink="http://www.w3.org/1999/xlink" width="35.1299" height="19.826">
 <g>
  <rect height="19.826" opacity="0" width="35.1299" x="0" y="0"/>
  <path d="M29.7668 17.1866Q31.4149 17.1866 32.619 16.5556Q33.8231 15.9245 34.4765 14.78Q35.1299 13.6354 35.1299 12.0952L35.1299 3.11447Q35.1299 2.93625 35.0214 2.82921Q34.913 2.72217 34.7418 2.72217Q34.561 2.72217 34.4588 2.82921Q34.3567 2.93625 34.3567 3.11447L34.3567 12.0543Q34.3567 14.0788 33.1252 15.2759Q31.8938 16.4729 29.7668 16.4729Q28.3563 16.4729 27.3304 15.9296Q26.3045 15.3862 25.7421 14.3922Q25.1797 13.3983 25.1797 12.0543L25.1797 3.11447Q25.1797 2.93625 25.0749 2.82921Q24.9701 2.72217 24.7919 2.72217Q24.6208 2.72217 24.5138 2.82921Q24.4067 2.93625 24.4067 3.11447L24.4067 12.0952Q24.4067 13.6354 25.0649 14.78Q25.7231 15.9245 26.9223 16.5556Q28.1215 17.1866 29.7668 17.1866Z" fill="rgba(255,255,255,0.5)"/>
  <path d="M1.06689 16.9469L5.8876 16.9469Q7.4028 16.9469 8.49655 16.4677Q9.5903 15.9886 10.179 15.1021Q10.7677 14.2155 10.7677 12.9976Q10.7677 12.0406 10.3429 11.2984Q9.91806 10.5562 9.16473 10.0999Q8.41141 9.64371 7.42935 9.55261L7.42935 9.48151Q8.19061 9.3573 8.7883 8.91418Q9.38599 8.47107 9.72778 7.8138Q10.0696 7.15652 10.0696 6.38504Q10.0696 5.32227 9.54086 4.53476Q9.01215 3.74725 8.06023 3.31543Q7.10831 2.88361 5.82809 2.88361L1.06689 2.88361Q0.566864 2.88361 0.283432 3.17535Q0 3.4671 0 3.98239L0 15.8577Q0 16.3632 0.283432 16.655Q0.566864 16.9469 1.06689 16.9469ZM2.14691 15.2324L2.14691 10.5116L5.25894 10.5116Q6.87149 10.5116 7.72522 11.116Q8.57895 11.7203 8.57895 12.8616Q8.57895 14.0085 7.7623 14.6204Q6.94565 15.2324 5.40466 15.2324ZM2.14691 8.92334L2.14691 4.60892L5.28046 4.60892Q6.53091 4.60892 7.23007 5.15656Q7.92923 5.70419 7.92923 6.68777Q7.92923 7.74841 7.13844 8.33588Q6.34766 8.92334 4.90982 8.92334ZM12.4106 16.9398L18.7653 16.9398Q18.9243 16.9398 19.0209 16.8416Q19.1176 16.7433 19.1176 16.5913Q19.1176 16.4351 19.0223 16.3452Q18.927 16.2553 18.768 16.2553L15.9731 16.2553L18.6906 3.56094L21.4828 3.56094Q21.6348 3.56094 21.735 3.46619Q21.8352 3.37143 21.8352 3.21945Q21.8352 3.05618 21.7364 2.96631Q21.6376 2.87643 21.4856 2.87643L15.1254 2.87643Q14.9664 2.87643 14.8711 2.96631Q14.7758 3.05618 14.7758 3.21945Q14.7758 3.37143 14.8725 3.46619Q14.9692 3.56094 15.1212 3.56094L17.9176 3.56094L15.2 16.2553L12.4078 16.2553Q12.2531 16.2553 12.1543 16.3452Q12.0555 16.4351 12.0555 16.5913Q12.0555 16.7433 12.1557 16.8416Q12.2559 16.9398 12.4106 16.9398ZM24.7438 19.826L34.7969 19.826Q34.9567 19.826 35.0433 19.7374Q35.1299 19.6487 35.1299 19.5171Q35.1299 19.3828 35.0433 19.2941Q34.9567 19.2055 34.7969 19.2055L24.7438 19.2055Q24.5966 19.2055 24.5016 19.2941Q24.4067 19.3828 24.4067 19.5171Q24.4067 19.6487 24.5016 19.7374Q24.5966 19.826 24.7438 19.826Z" fill="#ffffff"/>
 </g>
</svg>
