<?xml version="1.0" encoding="UTF-8"?>
<!--Generator: Apple Native CoreSVG 175-->
<!DOCTYPE svg
PUBLIC "-//W3C//DTD SVG 1.1//EN"
       "http://www.w3.org/Graphics/SVG/1.1/DTD/svg11.dtd">
<svg version="1.1" xmlns="http://www.w3.org/2000/svg" xmlns:xlink="http://www.w3.org/1999/xlink" width="15.718" height="20.6822">
 <g>
  <rect height="20.6822" opacity="0" width="15.718" x="0" y="0"/>
  <path d="M1.66016 11.7132Q1.66016 11.8206 1.7334 11.9036Q1.80664 11.9866 1.97266 11.9866L7.60742 11.9866L4.58984 19.9358Q4.51172 20.1409 4.55566 20.2825Q4.59961 20.4241 4.7168 20.4827Q4.83398 20.5413 4.98047 20.5022Q5.12695 20.4632 5.25391 20.2972L10.0977 14.135L9.58008 13.6175L5.49805 18.8714L5.61523 18.9495L8.21289 12.2503L7.24609 11.2932L2.8125 11.2932L4.75586 8.79325L4.23828 8.27567L1.82617 11.3323Q1.66016 11.5374 1.66016 11.7132ZM5.70312 6.3909L6.2207 6.90848L10.3125 1.64481L10.1758 1.57645L7.57812 8.27567L8.54492 9.2327L12.9785 9.2327L11.0352 11.7229L11.5625 12.2503L13.9648 9.18387Q14.1406 8.97879 14.1406 8.80301Q14.1406 8.70536 14.0674 8.61747Q13.9941 8.52958 13.8184 8.52958L8.20312 8.52958L11.2109 0.590123Q11.2891 0.375279 11.2451 0.233677Q11.2012 0.0920759 11.084 0.0334821Q10.9668-0.0251116 10.8203 0.0188337Q10.6738 0.062779 10.5469 0.228795Z" fill="rgba(255,255,255,0.5)"/>
  <path d="M15.1074 18.012Q15.2148 18.1194 15.3613 18.1194Q15.5078 18.1194 15.6152 18.012Q15.7129 17.9143 15.7178 17.763Q15.7227 17.6116 15.6152 17.5042L0.615234 2.50419Q0.527344 2.41629 0.371094 2.40653Q0.214844 2.39676 0.0976562 2.50419Q0 2.61161 0 2.76297Q0 2.91434 0.0976562 3.012Z" fill="#ffffff"/>
 </g>
</svg>
