<?xml version="1.0" encoding="UTF-8"?>
<!--Generator: Apple Native CoreSVG 175.5-->
<!DOCTYPE svg
PUBLIC "-//W3C//DTD SVG 1.1//EN"
       "http://www.w3.org/Graphics/SVG/1.1/DTD/svg11.dtd">
<svg version="1.1" xmlns="http://www.w3.org/2000/svg" xmlns:xlink="http://www.w3.org/1999/xlink" width="15.9766" height="19.7168">
 <g>
  <rect height="19.7168" opacity="0" width="15.9766" x="0" y="0"/>
  <path d="M7.98828 19.7168Q8.10547 19.7168 8.27637 19.6729Q8.44727 19.6289 8.63281 19.5312Q10.7227 18.4375 12.1338 17.5586Q13.5449 16.6797 14.3896 15.8203Q15.2344 14.9609 15.6055 13.9697Q15.9766 12.9785 15.9766 11.6602L15.9766 4.29688Q15.9766 3.54492 15.6592 3.21289Q15.3418 2.88086 14.7266 2.62695Q14.3848 2.48047 13.7891 2.25586Q13.1934 2.03125 12.4756 1.76758Q11.7578 1.50391 11.04 1.24023Q10.3223 0.976562 9.73145 0.766602Q9.14062 0.556641 8.79883 0.439453Q8.60352 0.380859 8.39844 0.341797Q8.19336 0.302734 7.98828 0.302734Q7.7832 0.302734 7.58301 0.341797Q7.38281 0.380859 7.1875 0.439453Q6.8457 0.556641 6.25 0.766602Q5.6543 0.976562 4.93652 1.23535Q4.21875 1.49414 3.50098 1.7627Q2.7832 2.03125 2.1875 2.26074Q1.5918 2.49023 1.25 2.62695Q0.644531 2.87109 0.322266 3.20801Q0 3.54492 0 4.29688L0 11.6602Q0 12.9785 0.385742 13.9502Q0.771484 14.9219 1.62598 15.7568Q2.48047 16.5918 3.8916 17.4805Q5.30273 18.3691 7.34375 19.5312Q7.5293 19.6289 7.7002 19.6729Q7.87109 19.7168 7.98828 19.7168Z" fill="rgba(255,255,255,0.25)"/>
  <path d="M3.58398 10.332Q3.58398 10.127 3.75 9.94141L9.26758 3.01758Q9.48242 2.75391 9.73145 2.75879Q9.98047 2.76367 10.1221 2.96387Q10.2637 3.16406 10.1367 3.48633L8.31055 8.37891L11.7285 8.37891Q11.9238 8.37891 12.0557 8.50586Q12.1875 8.63281 12.1875 8.82812Q12.1875 9.02344 12.0215 9.21875L6.50391 16.1426Q6.29883 16.4062 6.04492 16.4014Q5.79102 16.3965 5.64941 16.1914Q5.50781 15.9863 5.63477 15.6641L7.46094 10.7715L4.04297 10.7715Q3.84766 10.7715 3.71582 10.6494Q3.58398 10.5273 3.58398 10.332Z" fill="#ffffff"/>
 </g>
</svg>
