<?xml version="1.0" encoding="UTF-8"?>
<!--Generator: Apple Native CoreSVG 175-->
<!DOCTYPE svg
PUBLIC "-//W3C//DTD SVG 1.1//EN"
       "http://www.w3.org/Graphics/SVG/1.1/DTD/svg11.dtd">
<svg version="1.1" xmlns="http://www.w3.org/2000/svg" xmlns:xlink="http://www.w3.org/1999/xlink" width="19.1602" height="19.1504">
 <g>
  <rect height="19.1504" opacity="0" width="19.1602" x="0" y="0"/>
  <path d="M9.57031 19.1504Q11.5527 19.1504 13.2861 18.4082Q15.0195 17.666 16.3379 16.3428Q17.6562 15.0195 18.4082 13.2861Q19.1602 11.5527 19.1602 9.58008Q19.1602 7.60742 18.4082 5.87402Q17.6562 4.14062 16.3379 2.81738Q15.0195 1.49414 13.2861 0.751953Q11.5527 0.00976562 9.57031 0.00976562Q7.59766 0.00976562 5.86426 0.751953Q4.13086 1.49414 2.81738 2.81738Q1.50391 4.14062 0.751953 5.87402Q0 7.60742 0 9.58008Q0 11.5527 0.74707 13.2861Q1.49414 15.0195 2.8125 16.3428Q4.13086 17.666 5.86914 18.4082Q7.60742 19.1504 9.57031 19.1504Z" fill="rgba(255,255,255,0.25)"/>
  <path d="M7.00195 5.32227Q7.66602 5.32227 8.2373 5.57129Q8.80859 5.82031 9.24805 6.30859Q9.31641 6.40625 9.31641 6.55273L9.31641 13.5449Q9.31641 13.7109 9.16992 13.7109Q9.11133 13.7109 9.01367 13.6328Q8.58398 13.2617 8.06641 13.0664Q7.54883 12.8711 7.00195 12.8711Q5.47852 12.8711 4.60938 13.7207Q4.57031 13.7598 4.52637 13.7793Q4.48242 13.7988 4.41406 13.7988Q4.20898 13.7988 4.20898 13.5938L4.20898 6.81641Q4.20898 6.72852 4.22363 6.68457Q4.23828 6.64062 4.26758 6.57227Q4.64844 5.9668 5.41992 5.64453Q6.19141 5.32227 7.00195 5.32227ZM12.1582 5.32227Q12.959 5.32227 13.7305 5.64453Q14.502 5.9668 14.8828 6.57227Q14.9121 6.64062 14.9268 6.68457Q14.9414 6.72852 14.9414 6.81641L14.9414 13.5938Q14.9414 13.7988 14.7461 13.7988Q14.6777 13.7988 14.6338 13.7793Q14.5898 13.7598 14.5508 13.7207Q13.7109 12.8711 12.168 12.8711Q11.6016 12.8711 11.0938 13.0664Q10.5859 13.2617 10.1562 13.6328Q10.0586 13.7109 9.98047 13.7109Q9.84375 13.7109 9.84375 13.5449L9.84375 6.55273Q9.84375 6.40625 9.91211 6.30859Q10.3516 5.82031 10.9277 5.57129Q11.5039 5.32227 12.1582 5.32227Z" fill="#ffffff"/>
 </g>
</svg>
