<?xml version="1.0" encoding="UTF-8"?>
<!--Generator: Apple Native CoreSVG 175.5-->
<!DOCTYPE svg
PUBLIC "-//W3C//DTD SVG 1.1//EN"
       "http://www.w3.org/Graphics/SVG/1.1/DTD/svg11.dtd">
<svg version="1.1" xmlns="http://www.w3.org/2000/svg" xmlns:xlink="http://www.w3.org/1999/xlink" width="22.4902" height="17.9395">
 <g>
  <rect height="17.9395" opacity="0" width="22.4902" x="0" y="0"/>
  <path d="M5.50781 0Q4.43359 0 3.38379 0.322266Q2.33398 0.644531 1.47461 1.25Q0.615234 1.85547 0.117188 2.72461Q0.0292969 2.87109 0.0146484 3.00293Q0 3.13477 0 3.4082L0 17.1875Q0 17.5293 0.205078 17.7197Q0.410156 17.9102 0.771484 17.9102Q0.947266 17.9102 1.1084 17.8516Q1.26953 17.793 1.40625 17.6758Q2.33398 16.8848 3.50586 16.4795Q4.67773 16.0742 5.89844 16.0742Q6.66016 16.0742 7.37305 16.2451Q8.08594 16.416 8.7207 16.7334Q9.35547 17.0508 9.87305 17.5Q10.0293 17.6367 10.2148 17.6367Q10.3809 17.6367 10.4932 17.5244Q10.6055 17.4121 10.6055 17.2266L10.6055 2.7832Q10.6055 2.58789 10.5713 2.5Q10.5371 2.41211 10.4004 2.20703Q9.67773 1.17188 8.36426 0.585938Q7.05078 0 5.50781 0ZM16.9824 0Q15.4395 0 14.126 0.585938Q12.8125 1.17188 12.0898 2.20703Q11.9531 2.41211 11.9189 2.5Q11.8848 2.58789 11.8848 2.7832L11.8848 17.2266Q11.8848 17.4121 11.9971 17.5244Q12.1094 17.6367 12.2754 17.6367Q12.4609 17.6367 12.6172 17.5Q13.1348 17.0508 13.7695 16.7334Q14.4043 16.416 15.1172 16.2451Q15.8301 16.0742 16.5918 16.0742Q17.8125 16.0742 18.9844 16.4795Q20.1562 16.8848 21.084 17.6758Q21.2207 17.793 21.3818 17.8516Q21.543 17.9102 21.7188 17.9102Q22.0801 17.9102 22.2852 17.7197Q22.4902 17.5293 22.4902 17.1875L22.4902 3.4082Q22.4902 3.13477 22.4756 2.99805Q22.4609 2.86133 22.373 2.72461Q21.875 1.85547 21.0156 1.25Q20.1562 0.644531 19.1064 0.322266Q18.0566 0 16.9824 0Z" fill="#ffffff"/>
 </g>
</svg>
