<?xml version="1.0" encoding="UTF-8"?>
<!--Generator: Apple Native CoreSVG 175-->
<!DOCTYPE svg
PUBLIC "-//W3C//DTD SVG 1.1//EN"
       "http://www.w3.org/Graphics/SVG/1.1/DTD/svg11.dtd">
<svg version="1.1" xmlns="http://www.w3.org/2000/svg" xmlns:xlink="http://www.w3.org/1999/xlink" width="19.1602" height="19.1504">
 <g>
  <rect height="19.1504" opacity="0" width="19.1602" x="0" y="0"/>
  <path d="M9.57031 19.1406Q11.5527 19.1406 13.2861 18.3984Q15.0195 17.6562 16.3379 16.333Q17.6562 15.0098 18.4082 13.2764Q19.1602 11.543 19.1602 9.57031Q19.1602 7.59766 18.4082 5.86426Q17.6562 4.13086 16.3379 2.80762Q15.0195 1.48438 13.2861 0.742188Q11.5527 0 9.57031 0Q7.59766 0 5.86426 0.742188Q4.13086 1.48438 2.81738 2.80762Q1.50391 4.13086 0.751953 5.86426Q0 7.59766 0 9.57031Q0 11.543 0.74707 13.2764Q1.49414 15.0098 2.8125 16.333Q4.13086 17.6562 5.86914 18.3984Q7.60742 19.1406 9.57031 19.1406ZM9.57031 18.3984Q7.74414 18.3984 6.14746 17.71Q4.55078 17.0215 3.33496 15.8105Q2.11914 14.5996 1.43555 12.998Q0.751953 11.3965 0.751953 9.57031Q0.751953 7.74414 1.43555 6.14258Q2.11914 4.54102 3.33496 3.3252Q4.55078 2.10938 6.14746 1.4209Q7.74414 0.732422 9.57031 0.732422Q11.4062 0.732422 13.0029 1.4209Q14.5996 2.10938 15.8154 3.3252Q17.0312 4.54102 17.7197 6.14258Q18.4082 7.74414 18.4082 9.57031Q18.4082 11.3965 17.7246 12.998Q17.041 14.5996 15.8252 15.8105Q14.6094 17.0215 13.0078 17.71Q11.4062 18.3984 9.57031 18.3984Z" fill="rgba(255,255,255,0.5)"/>
  <path d="M7.01172 5.3418Q6.2207 5.3418 5.44922 5.66406Q4.67773 5.98633 4.29688 6.58203Q4.26758 6.65039 4.25293 6.68945Q4.23828 6.72852 4.23828 6.81641L4.23828 13.5645Q4.23828 13.7598 4.44336 13.7598Q4.50195 13.7598 4.5459 13.7402Q4.58984 13.7207 4.63867 13.6816Q5.49805 12.8418 7.00195 12.8418Q7.55859 12.8418 8.07129 13.0371Q8.58398 13.2324 9.01367 13.6035Q9.11133 13.6719 9.16992 13.6719Q9.30664 13.6719 9.30664 13.5059L9.30664 6.55273Q9.30664 6.41602 9.23828 6.31836Q8.80859 5.83984 8.24219 5.59082Q7.67578 5.3418 7.01172 5.3418ZM12.1387 5.3418Q11.4844 5.3418 10.9131 5.59082Q10.3418 5.83984 9.90234 6.31836Q9.83398 6.41602 9.83398 6.55273L9.83398 13.5059Q9.83398 13.6719 9.9707 13.6719Q10.0488 13.6719 10.1465 13.6035Q10.5762 13.2324 11.0791 13.0371Q11.582 12.8418 12.1387 12.8418Q13.6816 12.8418 14.5117 13.6816Q14.5508 13.7207 14.5947 13.7402Q14.6387 13.7598 14.707 13.7598Q14.9023 13.7598 14.9023 13.5645L14.9023 6.81641Q14.9023 6.72852 14.8877 6.68945Q14.873 6.65039 14.8438 6.58203Q14.4629 5.98633 13.6963 5.66406Q12.9297 5.3418 12.1387 5.3418Z" fill="#ffffff"/>
 </g>
</svg>
