<?xml version="1.0" encoding="UTF-8"?>
<!--Generator: Apple Native CoreSVG 175.5-->
<!DOCTYPE svg
PUBLIC "-//W3C//DTD SVG 1.1//EN"
       "http://www.w3.org/Graphics/SVG/1.1/DTD/svg11.dtd">
<svg version="1.1" xmlns="http://www.w3.org/2000/svg" xmlns:xlink="http://www.w3.org/1999/xlink" width="18.7695" height="20.9863">
 <g>
  <rect height="20.9863" opacity="0" width="18.7695" x="0" y="0"/>
  <path d="M15.7129 13.8184L15.7129 2.80273Q15.7129 1.40625 15.0195 0.703125Q14.3262 0 12.9492 0L5.3125 0Q3.62305 0 3.01758 1.11328L4.21875 2.30469Q4.43359 1.54297 5.39062 1.54297L12.8809 1.54297Q13.5156 1.54297 13.8428 1.86523Q14.1699 2.1875 14.1699 2.82227L14.1699 12.2754ZM3.58398 20.9473Q3.93555 20.9473 4.24805 20.708Q4.56055 20.4688 5.22461 19.8242L9.04297 16.0645Q9.13086 15.9668 9.21875 16.0645L13.0371 19.8242Q13.7012 20.459 14.0088 20.7031Q14.3164 20.9473 14.6777 20.9473Q15.166 20.9473 15.4395 20.6592Q15.7129 20.3711 15.6934 19.9414L15.6934 19.4336L13.9551 17.6953L13.9551 18.291Q13.9453 18.3203 13.9209 18.3252Q13.8965 18.3301 13.8574 18.291L9.64844 14.209Q9.41406 13.9844 9.13086 13.9844Q8.84766 13.9844 8.61328 14.209L4.38477 18.3105Q4.27734 18.4082 4.18457 18.3838Q4.0918 18.3594 4.0918 18.2129L4.0918 7.62695L2.54883 6.08398L2.54883 19.7559Q2.54883 20.3223 2.82227 20.6348Q3.0957 20.9473 3.58398 20.9473Z" fill="rgba(255,255,255,0.5)"/>
  <path d="M17.4902 19.2676Q17.7051 19.4922 18.0225 19.4922Q18.3398 19.4922 18.5547 19.2676Q18.7695 19.043 18.7695 18.7354Q18.7695 18.4277 18.5547 18.2031L1.28906 0.927734Q1.06445 0.712891 0.751953 0.708008Q0.439453 0.703125 0.214844 0.927734Q0 1.14258 0 1.45996Q0 1.77734 0.214844 1.99219Z" fill="#ffffff"/>
 </g>
</svg>
