<?xml version="1.0" encoding="UTF-8"?>
<!--Generator: Apple Native CoreSVG 175.5-->
<!DOCTYPE svg
PUBLIC "-//W3C//DTD SVG 1.1//EN"
       "http://www.w3.org/Graphics/SVG/1.1/DTD/svg11.dtd">
<svg version="1.1" xmlns="http://www.w3.org/2000/svg" xmlns:xlink="http://www.w3.org/1999/xlink" width="19.9219" height="19.9316">
 <g>
  <rect height="19.9316" opacity="0" width="19.9219" x="0" y="0"/>
  <path d="M9.96094 19.9316Q12.002 19.9316 13.8037 19.1504Q15.6055 18.3691 16.9824 16.9922Q18.3594 15.6152 19.1406 13.8135Q19.9219 12.0117 19.9219 9.9707Q19.9219 7.92969 19.1406 6.12793Q18.3594 4.32617 16.9824 2.94922Q15.6055 1.57227 13.7988 0.791016Q11.9922 0.00976562 9.95117 0.00976562Q7.91016 0.00976562 6.1084 0.791016Q4.30664 1.57227 2.93457 2.94922Q1.5625 4.32617 0.78125 6.12793Q0 7.92969 0 9.9707Q0 12.0117 0.78125 13.8135Q1.5625 15.6152 2.93945 16.9922Q4.31641 18.3691 6.11816 19.1504Q7.91992 19.9316 9.96094 19.9316Z" fill="rgba(255,255,255,0.25)"/>
  <path d="M4.23828 12.8906L4.23828 9.17969Q5.37109 9.58984 6.44531 9.7998Q7.51953 10.0098 8.61328 10.0781L8.61328 10.498Q8.61328 11.0645 9.16016 11.0645L10.791 11.0645Q11.3379 11.0645 11.3379 10.498L11.3379 10.0781Q12.4219 10.0098 13.501 9.7998Q14.5801 9.58984 15.7129 9.17969L15.7129 12.8906Q15.7129 13.6914 15.3174 14.082Q14.9219 14.4727 14.1211 14.4727L5.83008 14.4727Q5.0293 14.4727 4.63379 14.082Q4.23828 13.6914 4.23828 12.8906ZM4.23828 8.28125L4.23828 7.88086Q4.23828 7.08984 4.63379 6.69922Q5.0293 6.30859 5.83008 6.30859L6.9043 6.30859L6.9043 5.79102Q6.9043 5.19531 7.26562 4.84863Q7.62695 4.50195 8.24219 4.50195L11.709 4.50195Q12.3242 4.50195 12.6855 4.84863Q13.0469 5.19531 13.0469 5.79102L13.0469 6.30859L14.1211 6.30859Q14.9219 6.30859 15.3174 6.69922Q15.7129 7.08984 15.7129 7.88086L15.7129 8.28125Q14.2871 8.85742 12.8809 9.0918Q11.4746 9.32617 9.9707 9.32617Q8.47656 9.32617 7.07031 9.0918Q5.66406 8.85742 4.23828 8.28125ZM7.87109 6.30859L12.0801 6.30859L12.0801 5.83984Q12.0801 5.41992 11.6309 5.41992L8.31055 5.41992Q7.87109 5.41992 7.87109 5.83984Z" fill="#ffffff"/>
 </g>
</svg>
