<?xml version="1.0" encoding="UTF-8"?>
<!--Generator: Apple Native CoreSVG 175.5-->
<!DOCTYPE svg
PUBLIC "-//W3C//DTD SVG 1.1//EN"
       "http://www.w3.org/Graphics/SVG/1.1/DTD/svg11.dtd">
<svg version="1.1" xmlns="http://www.w3.org/2000/svg" xmlns:xlink="http://www.w3.org/1999/xlink" width="19.9219" height="19.9316">
 <g>
  <rect height="19.9316" opacity="0" width="19.9219" x="0" y="0"/>
  <path d="M9.96094 19.9316Q12.002 19.9316 13.8037 19.1504Q15.6055 18.3691 16.9824 16.9922Q18.3594 15.6152 19.1406 13.8135Q19.9219 12.0117 19.9219 9.9707Q19.9219 7.92969 19.1406 6.12793Q18.3594 4.32617 16.9824 2.94922Q15.6055 1.57227 13.7988 0.791016Q11.9922 0.00976562 9.95117 0.00976562Q7.91016 0.00976562 6.1084 0.791016Q4.30664 1.57227 2.93457 2.94922Q1.5625 4.32617 0.78125 6.12793Q0 7.92969 0 9.9707Q0 12.0117 0.78125 13.8135Q1.5625 15.6152 2.93945 16.9922Q4.31641 18.3691 6.11816 19.1504Q7.91992 19.9316 9.96094 19.9316Z" fill="rgba(255,255,255,0.25)"/>
  <path d="M7.44141 15.7617Q7.00195 15.7617 7.00195 15.2637L7.00195 13.8281L6.75781 13.8281Q5.66406 13.8281 5.07812 13.2324Q4.49219 12.6367 4.49219 11.543L4.49219 7.75391Q4.49219 6.66992 5.07812 6.0791Q5.66406 5.48828 6.75781 5.48828L13.1641 5.48828Q14.2578 5.48828 14.8438 6.08398Q15.4297 6.67969 15.4297 7.75391L15.4297 11.543Q15.4297 12.6367 14.8438 13.2324Q14.2578 13.8281 13.1641 13.8281L9.79492 13.8281L7.99805 15.459Q7.67578 15.7617 7.44141 15.7617Z" fill="#ffffff"/>
 </g>
</svg>
