<?xml version="1.0" encoding="UTF-8"?>
<!--Generator: Apple Native CoreSVG 175.5-->
<!DOCTYPE svg
PUBLIC "-//W3C//DTD SVG 1.1//EN"
       "http://www.w3.org/Graphics/SVG/1.1/DTD/svg11.dtd">
<svg version="1.1" xmlns="http://www.w3.org/2000/svg" xmlns:xlink="http://www.w3.org/1999/xlink" width="21.5234" height="21.8066">
 <g>
  <rect height="21.8066" opacity="0" width="21.5234" x="0" y="0"/>
  <path d="M10.7422 0Q10.4102 0 10.1025 0.175781Q9.79492 0.351562 9.50195 0.859375L7.69531 3.87695L4.47266 3.87695Q3.01758 3.87695 2.02148 4.39941Q1.02539 4.92188 0.512695 5.91797Q0 6.91406 0 8.34961L0 15.8301Q0 17.2656 0.512695 18.2617Q1.02539 19.2578 2.02148 19.7803Q3.01758 20.3027 4.47266 20.3027L17.0508 20.3027Q18.5059 20.3027 19.502 19.7803Q20.498 19.2578 21.0107 18.2617Q21.5234 17.2656 21.5234 15.8301L21.5234 8.34961Q21.5234 6.91406 21.0107 5.91797Q20.498 4.92188 19.502 4.39941Q18.5059 3.87695 17.0508 3.87695L13.7891 3.87695L11.9824 0.859375Q11.6895 0.351562 11.3818 0.175781Q11.0742 0 10.7422 0ZM10.7422 1.60156L12.373 4.6582Q12.6172 5.12695 12.8613 5.28809Q13.1055 5.44922 13.623 5.44922L17.0508 5.44922Q18.5254 5.44922 19.2383 6.18652Q19.9512 6.92383 19.9512 8.34961L19.9512 15.8203Q19.9512 17.2559 19.2383 17.9932Q18.5254 18.7305 17.0508 18.7305L4.47266 18.7305Q2.98828 18.7305 2.28027 17.9932Q1.57227 17.2559 1.57227 15.8203L1.57227 8.34961Q1.57227 6.92383 2.28027 6.18652Q2.98828 5.44922 4.47266 5.44922L7.86133 5.44922Q8.37891 5.44922 8.62305 5.28809Q8.86719 5.12695 9.11133 4.6582Z" fill="#ffffff"/>
 </g>
</svg>
