<?xml version="1.0" encoding="UTF-8"?>
<!--Generator: Apple Native CoreSVG 175.5-->
<!DOCTYPE svg
PUBLIC "-//W3C//DTD SVG 1.1//EN"
       "http://www.w3.org/Graphics/SVG/1.1/DTD/svg11.dtd">
<svg version="1.1" xmlns="http://www.w3.org/2000/svg" xmlns:xlink="http://www.w3.org/1999/xlink" width="22.9688" height="20.8301">
 <g>
  <rect height="20.8301" opacity="0" width="22.9688" x="0" y="0"/>
  <path d="M13.9355 20.8301L21.3574 20.8301Q22.0996 20.8301 22.5342 20.3467Q22.9688 19.8633 22.9688 19.0527L22.9688 6.5918Q22.9688 5.78125 22.5342 5.29785Q22.0996 4.81445 21.3574 4.81445L14.6387 4.81445L14.6387 6.38672L20.8398 6.38672Q21.123 6.38672 21.2598 6.52344Q21.3965 6.66016 21.3965 6.95312L21.3965 18.6914Q21.3965 18.9844 21.2598 19.1211Q21.123 19.2578 20.8398 19.2578L13.9355 19.2578ZM17.6855 10.1855L19.2578 10.1855Q19.5898 10.1855 19.5898 9.85352L19.5898 8.33008Q19.5898 7.99805 19.2578 7.99805L17.6855 7.99805Q17.3633 7.99805 17.3633 8.33008L17.3633 9.85352Q17.3633 10.1855 17.6855 10.1855ZM17.6855 13.916L19.2578 13.916Q19.5898 13.916 19.5898 13.584L19.5898 12.0605Q19.5898 11.7285 19.2578 11.7285L17.6855 11.7285Q17.3633 11.7285 17.3633 12.0605L17.3633 13.584Q17.3633 13.916 17.6855 13.916ZM17.6855 17.6465L19.2578 17.6465Q19.5898 17.6465 19.5898 17.3145L19.5898 15.791Q19.5898 15.459 19.2578 15.459L17.6855 15.459Q17.3633 15.459 17.3633 15.791L17.3633 17.3145Q17.3633 17.6465 17.6855 17.6465Z" fill="rgba(255,255,255,0.5)"/>
  <path d="M0 19.0527Q0 19.8633 0.43457 20.3467Q0.869141 20.8301 1.62109 20.8301L13.9355 20.8301Q14.6777 20.8301 15.1123 20.3467Q15.5469 19.8633 15.5469 19.0527L15.5469 1.78711Q15.5469 0.966797 15.1123 0.488281Q14.6777 0.00976562 13.9355 0.00976562L1.62109 0.00976562Q0.869141 0.00976562 0.43457 0.488281Q0 0.966797 0 1.78711ZM1.57227 18.6914L1.57227 2.14844Q1.57227 1.85547 1.70898 1.71875Q1.8457 1.58203 2.13867 1.58203L13.418 1.58203Q13.7012 1.58203 13.8379 1.71875Q13.9746 1.85547 13.9746 2.14844L13.9746 18.6914Q13.9746 18.9844 13.8379 19.1211Q13.7012 19.2578 13.418 19.2578L2.13867 19.2578Q1.8457 19.2578 1.70898 19.1211Q1.57227 18.9844 1.57227 18.6914ZM4.375 20L5.6543 20L5.6543 16.7383Q5.6543 16.4258 5.9668 16.4258L9.58008 16.4258Q9.89258 16.4258 9.89258 16.7383L9.89258 20L11.1719 20L11.1719 16.377Q11.1719 15.7422 10.8887 15.4443Q10.6055 15.1465 10 15.1465L5.54688 15.1465Q4.95117 15.1465 4.66309 15.4443Q4.375 15.7422 4.375 16.377ZM4.53125 5.84961L6.43555 5.84961Q6.83594 5.84961 6.83594 5.44922L6.83594 3.60352Q6.83594 3.20312 6.43555 3.20312L4.53125 3.20312Q4.15039 3.20312 4.15039 3.60352L4.15039 5.44922Q4.15039 5.84961 4.53125 5.84961ZM9.11133 5.84961L11.0059 5.84961Q11.4062 5.84961 11.4062 5.44922L11.4062 3.60352Q11.4062 3.20312 11.0059 3.20312L9.11133 3.20312Q8.7207 3.20312 8.7207 3.60352L8.7207 5.44922Q8.7207 5.84961 9.11133 5.84961ZM4.53125 9.7168L6.43555 9.7168Q6.83594 9.7168 6.83594 9.31641L6.83594 7.4707Q6.83594 7.07031 6.43555 7.07031L4.53125 7.07031Q4.15039 7.07031 4.15039 7.4707L4.15039 9.31641Q4.15039 9.7168 4.53125 9.7168ZM9.11133 9.7168L11.0059 9.7168Q11.4062 9.7168 11.4062 9.31641L11.4062 7.4707Q11.4062 7.07031 11.0059 7.07031L9.11133 7.07031Q8.7207 7.07031 8.7207 7.4707L8.7207 9.31641Q8.7207 9.7168 9.11133 9.7168ZM4.53125 13.584L6.43555 13.584Q6.83594 13.584 6.83594 13.1836L6.83594 11.3379Q6.83594 10.9375 6.43555 10.9375L4.53125 10.9375Q4.15039 10.9375 4.15039 11.3379L4.15039 13.1836Q4.15039 13.584 4.53125 13.584ZM9.11133 13.584L11.0059 13.584Q11.4062 13.584 11.4062 13.1836L11.4062 11.3379Q11.4062 10.9375 11.0059 10.9375L9.11133 10.9375Q8.7207 10.9375 8.7207 11.3379L8.7207 13.1836Q8.7207 13.584 9.11133 13.584Z" fill="#ffffff"/>
 </g>
</svg>
