<?xml version="1.0" encoding="UTF-8"?>
<!--Generator: Apple Native CoreSVG 175.5-->
<!DOCTYPE svg
PUBLIC "-//W3C//DTD SVG 1.1//EN"
       "http://www.w3.org/Graphics/SVG/1.1/DTD/svg11.dtd">
<svg version="1.1" xmlns="http://www.w3.org/2000/svg" xmlns:xlink="http://www.w3.org/1999/xlink" width="19.9219" height="19.9316">
 <g>
  <rect height="19.9316" opacity="0" width="19.9219" x="0" y="0"/>
  <path d="M9.96094 19.0918Q10.5957 19.0918 11.2109 19.0039Q11.8262 18.916 12.4023 18.7305L12.4023 6.62109Q12.4023 6.12305 12.1338 5.82031Q11.8652 5.51758 11.377 5.51758L4.82422 5.51758Q4.3457 5.51758 4.07227 5.82031Q3.79883 6.12305 3.79883 6.62109L3.79883 16.3672Q4.93164 17.627 6.52344 18.3594Q8.11523 19.0918 9.96094 19.0918ZM6.09375 16.4844Q5.86914 16.4844 5.86914 16.25L5.86914 15.2148Q5.86914 14.9805 6.09375 14.9805L7.1582 14.9805Q7.39258 14.9805 7.39258 15.2148L7.39258 16.25Q7.39258 16.4844 7.1582 16.4844ZM9.02344 16.4844Q8.79883 16.4844 8.79883 16.25L8.79883 15.2148Q8.79883 14.9805 9.02344 14.9805L10.0879 14.9805Q10.3223 14.9805 10.3223 15.2148L10.3223 16.25Q10.3223 16.4844 10.0879 16.4844ZM6.09375 13.9062Q5.86914 13.9062 5.86914 13.6719L5.86914 12.6367Q5.86914 12.4023 6.09375 12.4023L7.1582 12.4023Q7.39258 12.4023 7.39258 12.6367L7.39258 13.6719Q7.39258 13.9062 7.1582 13.9062ZM9.02344 13.9062Q8.92578 13.9062 8.8623 13.8379Q8.79883 13.7695 8.79883 13.6719L8.79883 12.6367Q8.79883 12.4023 9.02344 12.4023L10.0879 12.4023Q10.3223 12.4023 10.3223 12.6367L10.3223 13.6719Q10.3223 13.9062 10.0879 13.9062ZM6.09375 11.3281Q5.86914 11.3281 5.86914 11.0938L5.86914 10.0684Q5.86914 9.82422 6.09375 9.82422L7.1582 9.82422Q7.39258 9.82422 7.39258 10.0684L7.39258 11.0938Q7.39258 11.3281 7.1582 11.3281ZM9.02344 11.3281Q8.79883 11.3281 8.79883 11.0938L8.79883 10.0684Q8.79883 9.96094 8.8623 9.89258Q8.92578 9.82422 9.02344 9.82422L10.0879 9.82422Q10.3223 9.82422 10.3223 10.0684L10.3223 11.0938Q10.3223 11.3281 10.0879 11.3281ZM6.09375 8.7793Q5.86914 8.7793 5.86914 8.54492L5.86914 7.50977Q5.86914 7.27539 6.09375 7.27539L7.1582 7.27539Q7.39258 7.27539 7.39258 7.50977L7.39258 8.54492Q7.39258 8.7793 7.1582 8.7793ZM9.02344 8.7793Q8.79883 8.7793 8.79883 8.54492L8.79883 7.50977Q8.79883 7.27539 9.02344 7.27539L10.0879 7.27539Q10.3223 7.27539 10.3223 7.50977L10.3223 8.54492Q10.3223 8.7793 10.0879 8.7793ZM13.1641 18.4668Q14.375 17.959 15.3613 17.1094Q16.3477 16.2598 17.0215 15.1562L17.0215 9.11133Q17.0215 8.60352 16.748 8.30566Q16.4746 8.00781 15.9961 8.00781L13.1641 8.00781ZM14.6289 15.3516Q14.4336 15.3516 14.4336 15.1758L14.4336 14.2871Q14.4336 14.0918 14.6289 14.0918L15.5469 14.0918Q15.7227 14.0918 15.7227 14.2871L15.7227 15.1758Q15.7227 15.3516 15.5469 15.3516ZM14.6289 13.125Q14.4336 13.125 14.4336 12.9297L14.4336 12.0605Q14.4336 11.875 14.6289 11.875L15.5469 11.875Q15.7227 11.875 15.7227 12.0605L15.7227 12.9297Q15.7227 13.125 15.5469 13.125ZM14.6289 10.8984Q14.4336 10.8984 14.4336 10.7031L14.4336 9.82422Q14.4336 9.63867 14.6289 9.63867L15.5469 9.63867Q15.7227 9.63867 15.7227 9.82422L15.7227 10.7031Q15.7227 10.8984 15.5469 10.8984ZM9.96094 19.9219Q12.002 19.9219 13.8037 19.1406Q15.6055 18.3594 16.9824 16.9824Q18.3594 15.6055 19.1406 13.8037Q19.9219 12.002 19.9219 9.96094Q19.9219 7.91992 19.1406 6.11816Q18.3594 4.31641 16.9824 2.93945Q15.6055 1.5625 13.7988 0.78125Q11.9922 0 9.95117 0Q7.91016 0 6.1084 0.78125Q4.30664 1.5625 2.93457 2.93945Q1.5625 4.31641 0.78125 6.11816Q0 7.91992 0 9.96094Q0 12.002 0.78125 13.8037Q1.5625 15.6055 2.93945 16.9824Q4.31641 18.3594 6.11816 19.1406Q7.91992 19.9219 9.96094 19.9219ZM9.96094 18.2617Q8.23242 18.2617 6.72852 17.6172Q5.22461 16.9727 4.08691 15.835Q2.94922 14.6973 2.30957 13.1934Q1.66992 11.6895 1.66992 9.96094Q1.66992 8.23242 2.30957 6.72852Q2.94922 5.22461 4.08203 4.08203Q5.21484 2.93945 6.71875 2.2998Q8.22266 1.66016 9.95117 1.66016Q11.6797 1.66016 13.1885 2.2998Q14.6973 2.93945 15.835 4.08203Q16.9727 5.22461 17.6172 6.72852Q18.2617 8.23242 18.2617 9.96094Q18.2617 11.6895 17.6221 13.1934Q16.9824 14.6973 15.8398 15.835Q14.6973 16.9727 13.1934 17.6172Q11.6895 18.2617 9.96094 18.2617Z" fill="#ffffff"/>
 </g>
</svg>
