<?xml version="1.0" encoding="UTF-8"?>
<!--Generator: Apple Native CoreSVG 175.5-->
<!DOCTYPE svg
PUBLIC "-//W3C//DTD SVG 1.1//EN"
       "http://www.w3.org/Graphics/SVG/1.1/DTD/svg11.dtd">
<svg version="1.1" xmlns="http://www.w3.org/2000/svg" xmlns:xlink="http://www.w3.org/1999/xlink" width="17.9785" height="17.998">
 <g>
  <rect height="17.998" opacity="0" width="17.9785" x="0" y="0"/>
  <path d="M3.06641 17.998L14.9121 17.998Q16.4453 17.998 17.2119 17.2412Q17.9785 16.4844 17.9785 14.9707L17.9785 3.04688Q17.9785 1.5332 17.2119 0.776367Q16.4453 0.0195312 14.9121 0.0195312L3.06641 0.0195312Q1.5332 0.0195312 0.766602 0.776367Q0 1.5332 0 3.04688L0 14.9707Q0 16.4844 0.766602 17.2412Q1.5332 17.998 3.06641 17.998Z" fill="rgba(255,255,255,0.25)"/>
  <path d="M9.02344 14.7461Q7.86133 14.7461 6.82129 14.292Q5.78125 13.8379 4.99023 13.0469Q4.19922 12.2559 3.74512 11.2158Q3.29102 10.1758 3.29102 9.00391Q3.29102 7.83203 3.74023 6.79199Q4.18945 5.75195 4.98047 4.96094Q5.77148 4.16992 6.81152 3.71582Q7.85156 3.26172 9.02344 3.26172Q10.1953 3.26172 11.2354 3.71582Q12.2754 4.16992 13.0664 4.96582Q13.8574 5.76172 14.3115 6.79688Q14.7656 7.83203 14.7656 9.00391Q14.7656 10.1758 14.3164 11.2158Q13.8672 12.2559 13.0713 13.0469Q12.2754 13.8379 11.2402 14.292Q10.2051 14.7461 9.02344 14.7461ZM9.02344 13.3203Q10.2051 13.3203 11.1865 12.7295Q12.168 12.1387 12.7588 11.1572Q13.3496 10.1758 13.3496 9.00391Q13.3496 7.83203 12.7539 6.85059Q12.1582 5.86914 11.1768 5.27832Q10.1953 4.6875 9.02344 4.6875Q7.85156 4.6875 6.87012 5.27832Q5.88867 5.86914 5.29785 6.85059Q4.70703 7.83203 4.70703 9.00391Q4.70703 10.1758 5.30273 11.1572Q5.89844 12.1387 6.87988 12.7295Q7.86133 13.3203 9.02344 13.3203ZM9.02344 12.2852Q8.14453 12.2852 7.39746 11.8311Q6.65039 11.377 6.20117 10.6348Q5.75195 9.89258 5.75195 9.00391Q5.75195 8.11523 6.20117 7.36816Q6.65039 6.62109 7.39258 6.17188Q8.13477 5.72266 9.02344 5.72266Q9.91211 5.72266 10.6592 6.17676Q11.4062 6.63086 11.8555 7.37305Q12.3047 8.11523 12.3047 9.00391Q12.3047 9.89258 11.8555 10.6396Q11.4062 11.3867 10.6641 11.8359Q9.92188 12.2852 9.02344 12.2852Z" fill="#ffffff"/>
 </g>
</svg>
