<?xml version="1.0" encoding="UTF-8"?>
<!--Generator: Apple Native CoreSVG 175-->
<!DOCTYPE svg
PUBLIC "-//W3C//DTD SVG 1.1//EN"
       "http://www.w3.org/Graphics/SVG/1.1/DTD/svg11.dtd">
<svg version="1.1" xmlns="http://www.w3.org/2000/svg" xmlns:xlink="http://www.w3.org/1999/xlink" width="19.1602" height="19.1504">
 <g>
  <rect height="19.1504" opacity="0" width="19.1602" x="0" y="0"/>
  <path d="M9.57031 19.1406Q11.5527 19.1406 13.2861 18.3984Q15.0195 17.6562 16.3379 16.333Q17.6562 15.0098 18.4082 13.2764Q19.1602 11.543 19.1602 9.57031Q19.1602 7.59766 18.4082 5.86426Q17.6562 4.13086 16.3379 2.80762Q15.0195 1.48438 13.2861 0.742188Q11.5527 0 9.57031 0Q7.59766 0 5.86426 0.742188Q4.13086 1.48438 2.81738 2.80762Q1.50391 4.13086 0.751953 5.86426Q0 7.59766 0 9.57031Q0 11.543 0.74707 13.2764Q1.49414 15.0098 2.8125 16.333Q4.13086 17.6562 5.86914 18.3984Q7.60742 19.1406 9.57031 19.1406ZM9.57031 18.3984Q7.74414 18.3984 6.14746 17.71Q4.55078 17.0215 3.33496 15.8105Q2.11914 14.5996 1.43555 12.998Q0.751953 11.3965 0.751953 9.57031Q0.751953 7.74414 1.43555 6.14258Q2.11914 4.54102 3.33496 3.3252Q4.55078 2.10938 6.14746 1.4209Q7.74414 0.732422 9.57031 0.732422Q11.4062 0.732422 13.0029 1.4209Q14.5996 2.10938 15.8154 3.3252Q17.0312 4.54102 17.7197 6.14258Q18.4082 7.74414 18.4082 9.57031Q18.4082 11.3965 17.7246 12.998Q17.041 14.5996 15.8252 15.8105Q14.6094 17.0215 13.0078 17.71Q11.4062 18.3984 9.57031 18.3984Z" fill="rgba(255,255,255,0.5)"/>
  <path d="M9.64844 14.0332Q10.4785 14.0332 11.1914 13.7402Q11.9043 13.4473 12.3779 12.9248Q12.8516 12.4023 12.9883 11.7188Q13.0078 11.5918 13.0127 11.5381Q13.0176 11.4844 13.0176 11.4258Q13.0176 11.25 12.9346 11.1572Q12.8516 11.0645 12.6758 11.0645Q12.4121 11.0645 12.334 11.3672Q12.1777 12.2754 11.4453 12.8223Q10.7129 13.3691 9.6582 13.3691Q8.75 13.3691 8.05176 12.8857Q7.35352 12.4023 6.95312 11.543Q6.55273 10.6836 6.55273 9.56055Q6.55273 8.4375 6.95312 7.57812Q7.35352 6.71875 8.05176 6.23535Q8.75 5.75195 9.6582 5.75195Q10.7129 5.75195 11.4502 6.30371Q12.1875 6.85547 12.334 7.75391Q12.373 7.91992 12.4609 7.98828Q12.5488 8.05664 12.6758 8.05664Q12.8516 8.05664 12.9346 7.96387Q13.0176 7.87109 13.0176 7.69531Q13.0176 7.63672 13.0127 7.57812Q13.0078 7.51953 12.9883 7.39258Q12.8516 6.72852 12.3682 6.21094Q11.8848 5.69336 11.1768 5.38574Q10.4688 5.07812 9.64844 5.07812Q8.50586 5.07812 7.6416 5.64453Q6.77734 6.21094 6.29395 7.2168Q5.81055 8.22266 5.81055 9.56055Q5.81055 10.8984 6.29395 11.9043Q6.77734 12.9102 7.6416 13.4717Q8.50586 14.0332 9.64844 14.0332Z" fill="#ffffff"/>
 </g>
</svg>
