<?xml version="1.0" encoding="UTF-8"?>
<!--Generator: Apple Native CoreSVG 175.5-->
<!DOCTYPE svg
PUBLIC "-//W3C//DTD SVG 1.1//EN"
       "http://www.w3.org/Graphics/SVG/1.1/DTD/svg11.dtd">
<svg version="1.1" xmlns="http://www.w3.org/2000/svg" xmlns:xlink="http://www.w3.org/1999/xlink" width="24.1602" height="6.94336">
 <g>
  <rect height="6.94336" opacity="0" width="24.1602" x="0" y="0"/>
  <path d="M0 4.27734L10.1465 4.27734L10.1465 2.65625L0 2.65625ZM9.73633 6.94336L18.1055 6.94336Q18.75 6.94336 19.0283 6.66504Q19.3066 6.38672 19.3066 5.74219L19.3066 1.19141Q19.3066 0.556641 19.0283 0.27832Q18.75 0 18.1055 0L9.73633 0Q9.0918 0 8.81348 0.27832Q8.53516 0.556641 8.53516 1.19141L8.53516 5.74219Q8.53516 6.38672 8.81348 6.66504Q9.0918 6.94336 9.73633 6.94336Z" fill="#ffffff"/>
  <path d="M20.4395 5.54688L22.9688 5.54688Q23.6035 5.54688 23.8818 5.26367Q24.1602 4.98047 24.1602 4.33594L24.1602 2.59766Q24.1602 1.96289 23.8818 1.67969Q23.6035 1.39648 22.9688 1.39648L20.4395 1.39648Z" fill="rgba(255,255,255,0.5)"/>
 </g>
</svg>
