<?xml version="1.0" encoding="UTF-8"?>
<!--Generator: Apple Native CoreSVG 175.5-->
<!DOCTYPE svg
PUBLIC "-//W3C//DTD SVG 1.1//EN"
       "http://www.w3.org/Graphics/SVG/1.1/DTD/svg11.dtd">
<svg version="1.1" xmlns="http://www.w3.org/2000/svg" xmlns:xlink="http://www.w3.org/1999/xlink" width="23.9844" height="19.248">
 <g>
  <rect height="19.248" opacity="0" width="23.9844" x="0" y="0"/>
  <path d="M3.06641 18.623L20.918 18.623Q22.4414 18.623 23.2129 17.8662Q23.9844 17.1094 23.9844 15.5957L23.9844 5.37109Q23.9844 3.86719 23.2129 3.11035Q22.4414 2.35352 20.918 2.35352L18.125 2.35352Q17.7344 2.35352 17.5 2.29492Q17.2656 2.23633 17.085 2.09473Q16.9043 1.95312 16.6797 1.70898L15.8984 0.830078Q15.5371 0.429688 15.0977 0.214844Q14.6582 0 13.9062 0L10.0098 0Q9.25781 0 8.82324 0.214844Q8.38867 0.429688 8.01758 0.830078L7.23633 1.70898Q6.91406 2.07031 6.64062 2.21191Q6.36719 2.35352 5.79102 2.35352L3.06641 2.35352Q1.5332 2.35352 0.766602 3.11035Q0 3.86719 0 5.37109L0 15.5957Q0 17.1094 0.766602 17.8662Q1.5332 18.623 3.06641 18.623ZM11.9922 15.7422Q10.8789 15.7422 9.91211 15.332Q8.94531 14.9219 8.21777 14.1895Q7.49023 13.457 7.0752 12.4902Q6.66016 11.5234 6.66016 10.4004Q6.66016 9.28711 7.0752 8.32031Q7.49023 7.35352 8.21777 6.62109Q8.94531 5.88867 9.91211 5.47852Q10.8789 5.06836 11.9922 5.06836Q13.4668 5.06836 14.6777 5.78125Q15.8887 6.49414 16.6016 7.70508Q17.3145 8.91602 17.3145 10.4004Q17.3145 11.5234 16.9043 12.4902Q16.4941 13.457 15.7617 14.1895Q15.0293 14.9219 14.0625 15.332Q13.0957 15.7422 11.9922 15.7422ZM11.9922 14.2578Q13.0566 14.2578 13.9307 13.7402Q14.8047 13.2227 15.3223 12.3486Q15.8398 11.4746 15.8398 10.4004Q15.8398 9.33594 15.3223 8.46191Q14.8047 7.58789 13.9307 7.06543Q13.0566 6.54297 11.9922 6.54297Q10.9277 6.54297 10.0537 7.06543Q9.17969 7.58789 8.65723 8.46191Q8.13477 9.33594 8.13477 10.4004Q8.13477 11.4746 8.65723 12.3486Q9.17969 13.2227 10.0537 13.7402Q10.9277 14.2578 11.9922 14.2578ZM17.9688 6.80664Q17.9688 6.30859 18.3447 5.93262Q18.7207 5.55664 19.2383 5.55664Q19.7363 5.55664 20.1123 5.93262Q20.4883 6.30859 20.4883 6.80664Q20.4883 7.33398 20.1123 7.69531Q19.7363 8.05664 19.2383 8.05664Q18.7207 8.06641 18.3447 7.7002Q17.9688 7.33398 17.9688 6.80664Z" fill="#ffffff"/>
 </g>
</svg>
