<?xml version="1.0" encoding="UTF-8"?>
<!--Generator: Apple Native CoreSVG 175.5-->
<!DOCTYPE svg
PUBLIC "-//W3C//DTD SVG 1.1//EN"
       "http://www.w3.org/Graphics/SVG/1.1/DTD/svg11.dtd">
<svg version="1.1" xmlns="http://www.w3.org/2000/svg" xmlns:xlink="http://www.w3.org/1999/xlink" width="19.9219" height="19.9316">
 <g>
  <rect height="19.9316" opacity="0" width="19.9219" x="0" y="0"/>
  <path d="M9.96094 19.9219Q12.002 19.9219 13.8037 19.1406Q15.6055 18.3594 16.9824 16.9824Q18.3594 15.6055 19.1406 13.8037Q19.9219 12.002 19.9219 9.96094Q19.9219 7.91992 19.1406 6.11816Q18.3594 4.31641 16.9824 2.93945Q15.6055 1.5625 13.7988 0.78125Q11.9922 0 9.95117 0Q7.91016 0 6.1084 0.78125Q4.30664 1.5625 2.93457 2.93945Q1.5625 4.31641 0.78125 6.11816Q0 7.91992 0 9.96094Q0 12.002 0.78125 13.8037Q1.5625 15.6055 2.93945 16.9824Q4.31641 18.3594 6.11816 19.1406Q7.91992 19.9219 9.96094 19.9219Z" fill="rgba(255,255,255,0.25)"/>
  <path d="M3.96484 12.207Q3.87695 11.9629 3.96973 11.8115Q4.0625 11.6602 4.33594 11.6602Q5.83984 11.6602 7.01172 12.2852Q8.18359 12.9102 8.90625 13.8867L8.90625 15.791Q8.90625 15.8789 8.9209 15.957Q8.93555 16.0352 8.97461 16.1035Q7.82227 15.9473 6.81641 15.415Q5.81055 14.8828 5.06836 14.0576Q4.32617 13.2324 3.96484 12.207ZM6.50391 7.05078Q6.50391 6.62109 6.60156 6.18652Q6.69922 5.75195 6.89453 5.30273Q6.97266 5.11719 7.16309 5.09277Q7.35352 5.06836 7.50977 5.22461L8.66211 6.40625L9.6582 5.11719Q9.77539 4.95117 9.95605 4.95117Q10.1367 4.95117 10.2539 5.11719L11.2402 6.40625L12.3926 5.22461Q12.5488 5.06836 12.7441 5.09277Q12.9395 5.11719 13.0273 5.30273Q13.2129 5.75195 13.3057 6.18652Q13.3984 6.62109 13.3984 7.05078Q13.3984 7.93945 13.0322 8.68164Q12.666 9.42383 11.9922 9.90723Q11.3184 10.3906 10.3906 10.4883L10.3906 14.8145Q10.8203 13.916 11.5625 13.2031Q12.3047 12.4902 13.3154 12.0752Q14.3262 11.6602 15.5664 11.6602Q15.8301 11.6602 15.9229 11.8115Q16.0156 11.9629 15.918 12.207Q15.5176 13.3789 14.6143 14.2822Q13.7109 15.1855 12.5 15.6934Q11.2891 16.2012 9.95117 16.2012Q9.77539 16.2012 9.64844 16.0889Q9.52148 15.9766 9.52148 15.791L9.52148 10.4883Q8.60352 10.3906 7.9248 9.90723Q7.24609 9.42383 6.875 8.68164Q6.50391 7.93945 6.50391 7.05078Z" fill="#ffffff"/>
 </g>
</svg>
