<?xml version="1.0" encoding="UTF-8"?>
<!--Generator: Apple Native CoreSVG 175-->
<!DOCTYPE svg
PUBLIC "-//W3C//DTD SVG 1.1//EN"
       "http://www.w3.org/Graphics/SVG/1.1/DTD/svg11.dtd">
<svg version="1.1" xmlns="http://www.w3.org/2000/svg" xmlns:xlink="http://www.w3.org/1999/xlink" width="22.6617" height="17.3035">
 <g>
  <rect height="17.3035" opacity="0" width="22.6617" x="0" y="0"/>
  <path d="M6.35818 8.67065Q6.35818 8.89053 6.50291 9.03534Q6.64764 9.18015 6.86493 9.18015L15.8191 9.18015Q16.0434 9.18015 16.1846 9.03534Q16.3258 8.89053 16.3258 8.67065Q16.3258 8.4465 16.1846 8.30177Q16.0434 8.15704 15.8191 8.15704L6.86493 8.15704Q6.64764 8.15704 6.50291 8.30177Q6.35818 8.4465 6.35818 8.67065Z" fill="#ffffff"/>
  <path d="M2.63046 17.2894L10.9087 17.2894L10.9087 16.568L2.65701 16.568Q1.7067 16.568 1.21765 16.0767Q0.728607 15.5855 0.728607 14.6269L0.728607 9.08157L0 9.08157L0 14.6655Q0 15.9586 0.668182 16.624Q1.33636 17.2894 2.63046 17.2894ZM11.7824 17.2894L20.0243 17.2894Q21.3281 17.2894 21.9949 16.617Q22.6617 15.9445 22.6617 14.6655L22.6617 9.08157L21.9331 9.08157L21.9331 14.6269Q21.9331 15.5855 21.4287 16.0767Q20.9242 16.568 20.0047 16.568L11.7824 16.568ZM21.9331 8.21045L22.6617 8.21045L22.6617 2.6265Q22.6617 1.35468 21.9949 0.677338Q21.3281 0 20.0243 0L11.7824 0L11.7824 0.728455L20.0047 0.728455Q20.9242 0.728455 21.4287 1.21758Q21.9331 1.7067 21.9331 2.66525ZM0 8.21045L0.728607 8.21045L0.728607 2.66525Q0.728607 1.7067 1.21765 1.21758Q1.7067 0.728455 2.65701 0.728455L10.9087 0.728455L10.9087 0L2.63046 0Q1.33636 0 0.668182 0.668945Q0 1.33789 0 2.6265Z" fill="rgba(255,255,255,0.5)"/>
 </g>
</svg>
