<?xml version="1.0" encoding="UTF-8"?>
<!--Generator: Apple Native CoreSVG 175.5-->
<!DOCTYPE svg
PUBLIC "-//W3C//DTD SVG 1.1//EN"
       "http://www.w3.org/Graphics/SVG/1.1/DTD/svg11.dtd">
<svg version="1.1" xmlns="http://www.w3.org/2000/svg" xmlns:xlink="http://www.w3.org/1999/xlink" width="19.9219" height="19.9316">
 <g>
  <rect height="19.9316" opacity="0" width="19.9219" x="0" y="0"/>
  <path d="M9.96094 19.9316Q12.002 19.9316 13.8037 19.1504Q15.6055 18.3691 16.9824 16.9922Q18.3594 15.6152 19.1406 13.8135Q19.9219 12.0117 19.9219 9.9707Q19.9219 7.92969 19.1406 6.12793Q18.3594 4.32617 16.9824 2.94922Q15.6055 1.57227 13.7988 0.791016Q11.9922 0.00976562 9.95117 0.00976562Q7.91016 0.00976562 6.1084 0.791016Q4.30664 1.57227 2.93457 2.94922Q1.5625 4.32617 0.78125 6.12793Q0 7.92969 0 9.9707Q0 12.0117 0.78125 13.8135Q1.5625 15.6152 2.93945 16.9922Q4.31641 18.3691 6.11816 19.1504Q7.91992 19.9316 9.96094 19.9316Z" fill="rgba(255,255,255,0.25)"/>
  <path d="M5.46875 14.5312Q4.66797 14.5312 4.26758 14.1357Q3.86719 13.7402 3.86719 12.959L3.86719 7.63672Q3.86719 6.83594 4.26758 6.44531Q4.66797 6.05469 5.46875 6.05469L6.73828 6.05469Q7.03125 6.05469 7.17285 5.97656Q7.31445 5.89844 7.48047 5.72266L7.90039 5.25391Q8.08594 5.04883 8.31543 4.94141Q8.54492 4.83398 8.93555 4.83398L10.9668 4.83398Q11.3574 4.83398 11.582 4.94141Q11.8066 5.04883 11.9922 5.25391L12.4121 5.72266Q12.5781 5.9082 12.7197 5.98145Q12.8613 6.05469 13.1543 6.05469L14.4629 6.05469Q15.2539 6.05469 15.6592 6.44531Q16.0645 6.83594 16.0645 7.63672L16.0645 12.959Q16.0645 13.7402 15.6592 14.1357Q15.2539 14.5312 14.4629 14.5312ZM9.98047 13.2617Q10.8105 13.2617 11.4941 12.8662Q12.1777 12.4707 12.583 11.7871Q12.9883 11.1035 12.9883 10.2441Q12.9883 9.4043 12.583 8.7207Q12.1777 8.03711 11.4941 7.63184Q10.8105 7.22656 9.98047 7.22656Q9.14062 7.22656 8.45703 7.63184Q7.77344 8.03711 7.36328 8.7207Q6.95312 9.4043 6.95312 10.2441Q6.95312 11.084 7.36328 11.7676Q7.77344 12.4512 8.45703 12.8564Q9.14062 13.2617 9.98047 13.2617ZM9.9707 12.3926Q9.375 12.3926 8.88672 12.1045Q8.39844 11.8164 8.11035 11.3281Q7.82227 10.8398 7.82227 10.2441Q7.82227 9.64844 8.11035 9.16016Q8.39844 8.67188 8.88672 8.38379Q9.375 8.0957 9.9707 8.0957Q10.5566 8.0957 11.0449 8.38379Q11.5332 8.67188 11.8213 9.16016Q12.1094 9.64844 12.1094 10.2441Q12.1094 10.8398 11.8213 11.3281Q11.5332 11.8164 11.0449 12.1045Q10.5566 12.3926 9.9707 12.3926ZM13.9941 8.78906Q14.2773 8.78906 14.4775 8.59375Q14.6777 8.39844 14.6777 8.10547Q14.6777 7.82227 14.4775 7.62695Q14.2773 7.43164 13.9941 7.43164Q13.7109 7.43164 13.5107 7.62695Q13.3105 7.82227 13.3105 8.10547Q13.3105 8.39844 13.5107 8.59375Q13.7109 8.78906 13.9941 8.78906Z" fill="#ffffff"/>
 </g>
</svg>
