<?xml version="1.0" encoding="UTF-8"?>
<!--Generator: Apple Native CoreSVG 175.5-->
<!DOCTYPE svg
PUBLIC "-//W3C//DTD SVG 1.1//EN"
       "http://www.w3.org/Graphics/SVG/1.1/DTD/svg11.dtd">
<svg version="1.1" xmlns="http://www.w3.org/2000/svg" xmlns:xlink="http://www.w3.org/1999/xlink" width="23.0273" height="17.9785">
 <g>
  <rect height="17.9785" opacity="0" width="23.0273" x="0" y="0"/>
  <path d="M3.06641 17.9785L10.8594 17.9785L10.8594 16.4062L3.08594 16.4062Q2.35352 16.4062 1.96289 16.0205Q1.57227 15.6348 1.57227 14.873L1.57227 9.6582L0 9.6582L0 14.9609Q0 16.4648 0.766602 17.2217Q1.5332 17.9785 3.06641 17.9785ZM12.1973 17.9785L19.9609 17.9785Q21.5039 17.9785 22.2656 17.2217Q23.0273 16.4648 23.0273 14.9609L23.0273 9.6582L21.4551 9.6582L21.4551 14.873Q21.4551 15.6348 21.0596 16.0205Q20.6641 16.4062 19.9414 16.4062L12.1973 16.4062ZM21.4551 8.33008L23.0273 8.33008L23.0273 3.02734Q23.0273 1.52344 22.2656 0.761719Q21.5039 0 19.9609 0L12.1973 0L12.1973 1.57227L19.9414 1.57227Q20.6641 1.57227 21.0596 1.96289Q21.4551 2.35352 21.4551 3.11523ZM0 8.33008L1.57227 8.33008L1.57227 3.11523Q1.57227 2.35352 1.96289 1.96289Q2.35352 1.57227 3.08594 1.57227L10.8594 1.57227L10.8594 0L3.06641 0Q1.5332 0 0.766602 0.756836Q0 1.51367 0 3.02734Z" fill="rgba(255,255,255,0.5)"/>
  <path d="M11.5527 14.4336Q12.666 14.4336 13.6475 14.0088Q14.6289 13.584 15.3809 12.832Q16.1328 12.0801 16.5576 11.0889Q16.9824 10.0977 16.9824 8.97461Q16.9824 7.86133 16.5527 6.88477Q16.123 5.9082 15.376 5.16113Q14.6289 4.41406 13.6475 3.98926Q12.666 3.56445 11.5527 3.56445Q10.4297 3.56445 9.44336 3.98926Q8.45703 4.41406 7.7002 5.16113Q6.94336 5.9082 6.51855 6.88477Q6.09375 7.86133 6.09375 8.97461Q6.09375 10.1074 6.51855 11.0938Q6.94336 12.0801 7.69531 12.832Q8.44727 13.584 9.43848 14.0088Q10.4297 14.4336 11.5527 14.4336ZM11.5527 13.1738Q10.4004 13.1738 9.44336 12.6025Q8.48633 12.0312 7.91992 11.0791Q7.35352 10.127 7.35352 8.97461Q7.35352 7.8418 7.9248 6.89941Q8.49609 5.95703 9.44824 5.39062Q10.4004 4.82422 11.5527 4.82422Q12.6953 4.82422 13.6426 5.39062Q14.5898 5.95703 15.1562 6.89941Q15.7227 7.8418 15.7227 8.97461Q15.7227 10.127 15.1562 11.0791Q14.5898 12.0312 13.6426 12.6025Q12.6953 13.1738 11.5527 13.1738Z" fill="#ffffff"/>
  <path d="M11.5527 11.7773Q12.3047 11.7773 12.9346 11.4014Q13.5645 11.0254 13.9404 10.3906Q14.3164 9.75586 14.3164 8.98438Q14.3164 8.23242 13.9404 7.60254Q13.5645 6.97266 12.9346 6.59668Q12.3047 6.2207 11.5527 6.2207Q10.7812 6.2207 10.1465 6.59668Q9.51172 6.97266 9.13574 7.60254Q8.75977 8.23242 8.75977 8.98438Q8.75977 9.75586 9.13574 10.3906Q9.51172 11.0254 10.1465 11.4014Q10.7812 11.7773 11.5527 11.7773Z" fill="#ffffff"/>
 </g>
</svg>
