<?xml version="1.0" encoding="UTF-8"?>
<!--Generator: Apple Native CoreSVG 175-->
<!DOCTYPE svg
PUBLIC "-//W3C//DTD SVG 1.1//EN"
       "http://www.w3.org/Graphics/SVG/1.1/DTD/svg11.dtd">
<svg version="1.1" xmlns="http://www.w3.org/2000/svg" xmlns:xlink="http://www.w3.org/1999/xlink" width="16.3672" height="23.0371">
 <g>
  <rect height="23.0371" opacity="0" width="16.3672" x="0" y="0"/>
  <path d="M8.18359 0Q5.63477 0 3.79883 0.947266Q1.96289 1.89453 0.981445 3.67676Q0 5.45898 0 7.93945L0 15.0879Q0 17.5684 0.981445 19.3506Q1.96289 21.1328 3.79883 22.0801Q5.63477 23.0273 8.18359 23.0273Q10.7324 23.0273 12.5684 22.0801Q14.4043 21.1328 15.3857 19.3506Q16.3672 17.5684 16.3672 15.0879L16.3672 7.93945Q16.3672 5.45898 15.3857 3.67676Q14.4043 1.89453 12.5684 0.947266Q10.7324 0 8.18359 0ZM8.18359 0.742188Q10.5078 0.742188 12.1826 1.59668Q13.8574 2.45117 14.7461 4.04785Q15.6348 5.64453 15.6348 7.88086L15.6348 15.1465Q15.6348 17.373 14.7461 18.9746Q13.8574 20.5762 12.1826 21.4307Q10.5078 22.2852 8.18359 22.2852Q5.84961 22.2852 4.18457 21.4307Q2.51953 20.5762 1.62109 18.9746Q0.722656 17.373 0.722656 15.1465L0.722656 7.88086Q0.722656 5.64453 1.62109 4.04785Q2.51953 2.45117 4.18457 1.59668Q5.84961 0.742188 8.18359 0.742188Z" fill="rgba(255,255,255,0.5)"/>
  <path d="M8.19336 21.3965Q11.3281 21.3965 13.042 19.7607Q14.7559 18.125 14.7559 15.1465L14.7559 7.88086Q14.7559 4.90234 13.042 3.2666Q11.3281 1.63086 8.19336 1.63086Q5.05859 1.63086 3.34473 3.2666Q1.63086 4.90234 1.63086 7.88086L1.63086 15.1465Q1.63086 18.125 3.34473 19.7607Q5.05859 21.3965 8.19336 21.3965Z" fill="#ffffff"/>
 </g>
</svg>
