<?xml version="1.0" encoding="UTF-8"?>
<!--Generator: Apple Native CoreSVG 175.5-->
<!DOCTYPE svg
PUBLIC "-//W3C//DTD SVG 1.1//EN"
       "http://www.w3.org/Graphics/SVG/1.1/DTD/svg11.dtd">
<svg version="1.1" xmlns="http://www.w3.org/2000/svg" xmlns:xlink="http://www.w3.org/1999/xlink" width="21.5234" height="21.5723">
 <g>
  <rect height="21.5723" opacity="0" width="21.5234" x="0" y="0"/>
  <path d="M5.80078 21.5723Q6.09375 21.5723 6.33301 21.4209Q6.57227 21.2695 6.92383 20.9473L10.4492 17.7246L17.0508 17.7246Q18.5059 17.7246 19.502 17.207Q20.498 16.6895 21.0107 15.6934Q21.5234 14.6973 21.5234 13.2617L21.5234 5.78125Q21.5234 4.3457 21.0107 3.34961Q20.498 2.35352 19.502 1.83105Q18.5059 1.30859 17.0508 1.30859L4.47266 1.30859Q3.01758 1.30859 2.02148 1.83105Q1.02539 2.35352 0.512695 3.34961Q0 4.3457 0 5.78125L0 13.2617Q0 14.6973 0.512695 15.6934Q1.02539 16.6895 2.02148 17.207Q3.01758 17.7246 4.47266 17.7246L4.93164 17.7246L4.93164 20.5664Q4.93164 21.0254 5.15625 21.2988Q5.38086 21.5723 5.80078 21.5723Z" fill="rgba(255,255,255,0.25)"/>
  <path d="M4.4043 10.6152Q4.16016 10.6152 3.98926 10.4443Q3.81836 10.2734 3.81836 10.0293Q3.81836 9.79492 3.98926 9.61914Q4.16016 9.44336 4.4043 9.44336L8.54492 9.44336Q8.78906 9.44336 8.95508 9.61914Q9.12109 9.79492 9.12109 10.0293Q9.12109 10.2734 8.95508 10.4443Q8.78906 10.6152 8.54492 10.6152ZM10.6152 10.6152Q10.3809 10.6152 10.21 10.4443Q10.0391 10.2734 10.0391 10.0293Q10.0391 9.79492 10.21 9.61914Q10.3809 9.44336 10.6152 9.44336L17.1289 9.44336Q17.373 9.44336 17.5439 9.61914Q17.7148 9.79492 17.7148 10.0293Q17.7148 10.2734 17.5439 10.4443Q17.373 10.6152 17.1289 10.6152ZM4.4043 13.252Q4.16016 13.252 3.98926 13.0859Q3.81836 12.9199 3.81836 12.6758Q3.81836 12.4219 3.98926 12.251Q4.16016 12.0801 4.4043 12.0801L6.10352 12.0801Q6.34766 12.0801 6.51855 12.251Q6.68945 12.4219 6.68945 12.6758Q6.68945 12.9199 6.51855 13.0859Q6.34766 13.252 6.10352 13.252ZM8.18359 13.252Q7.93945 13.252 7.76855 13.0859Q7.59766 12.9199 7.59766 12.6758Q7.59766 12.4219 7.76855 12.251Q7.93945 12.0801 8.18359 12.0801L13.2324 12.0801Q13.4766 12.0801 13.6475 12.251Q13.8184 12.4219 13.8184 12.6758Q13.8184 12.9199 13.6475 13.0859Q13.4766 13.252 13.2324 13.252ZM15.3125 13.252Q15.0684 13.252 14.8975 13.0859Q14.7266 12.9199 14.7266 12.6758Q14.7266 12.4219 14.8975 12.251Q15.0684 12.0801 15.3125 12.0801L17.1289 12.0801Q17.373 12.0801 17.5439 12.251Q17.7148 12.4219 17.7148 12.6758Q17.7148 12.9199 17.5439 13.0859Q17.373 13.252 17.1289 13.252Z" fill="#ffffff"/>
 </g>
</svg>
