<?xml version="1.0" encoding="UTF-8"?>
<!--Generator: Apple Native CoreSVG 175.5-->
<!DOCTYPE svg
PUBLIC "-//W3C//DTD SVG 1.1//EN"
       "http://www.w3.org/Graphics/SVG/1.1/DTD/svg11.dtd">
<svg version="1.1" xmlns="http://www.w3.org/2000/svg" xmlns:xlink="http://www.w3.org/1999/xlink" width="19.9219" height="19.9316">
 <g>
  <rect height="19.9316" opacity="0" width="19.9219" x="0" y="0"/>
  <path d="M9.96094 19.9316Q12.002 19.9316 13.8037 19.1504Q15.6055 18.3691 16.9824 16.9922Q18.3594 15.6152 19.1406 13.8135Q19.9219 12.0117 19.9219 9.9707Q19.9219 7.92969 19.1406 6.12793Q18.3594 4.32617 16.9824 2.94922Q15.6055 1.57227 13.7988 0.791016Q11.9922 0.00976562 9.95117 0.00976562Q7.91016 0.00976562 6.1084 0.791016Q4.30664 1.57227 2.93457 2.94922Q1.5625 4.32617 0.78125 6.12793Q0 7.92969 0 9.9707Q0 12.0117 0.78125 13.8135Q1.5625 15.6152 2.93945 16.9922Q4.31641 18.3691 6.11816 19.1504Q7.91992 19.9316 9.96094 19.9316Z" fill="rgba(255,255,255,0.25)"/>
  <path d="M4.44336 13.3203L4.44336 10.6348Q4.44336 10.0488 4.5752 9.6582Q4.70703 9.26758 5.03906 8.85742L5.43945 8.33984Q5.56641 7.70508 5.75684 7.11914Q5.94727 6.5332 6.07422 6.2793Q6.25977 5.87891 6.60645 5.64453Q6.95312 5.41016 7.42188 5.36133Q7.65625 5.33203 8.35938 5.3125Q9.0625 5.29297 9.9707 5.29297Q10.8691 5.29297 11.5674 5.3125Q12.2656 5.33203 12.5098 5.36133Q12.9688 5.41992 13.3203 5.64941Q13.6719 5.87891 13.8574 6.2793Q13.9844 6.5332 14.1748 7.11914Q14.3652 7.70508 14.502 8.33984L14.8926 8.85742Q15.2148 9.26758 15.3516 9.6582Q15.4883 10.0488 15.4883 10.6348L15.4883 13.3203Q15.4883 13.5742 15.3076 13.7549Q15.127 13.9355 14.8633 13.9355L14.3066 13.9355Q14.0527 13.9355 13.8721 13.7549Q13.6914 13.5742 13.6914 13.3203L13.6914 12.5488Q12.9102 12.5879 11.8896 12.6172Q10.8691 12.6465 9.9707 12.6465Q9.0625 12.6465 8.03711 12.6172Q7.01172 12.5879 6.24023 12.5488L6.24023 13.3203Q6.24023 13.5742 6.05957 13.7549Q5.87891 13.9355 5.61523 13.9355L5.05859 13.9355Q4.80469 13.9355 4.62402 13.7549Q4.44336 13.5742 4.44336 13.3203ZM6.63086 7.91016Q6.58203 8.125 6.82617 8.10547Q7.36328 8.06641 8.07617 8.04199Q8.78906 8.01758 9.9707 8.01758Q11.1426 8.01758 11.8555 8.04199Q12.5684 8.06641 13.1055 8.10547Q13.3691 8.125 13.3008 7.91016Q13.2227 7.53906 13.0908 7.13379Q12.959 6.72852 12.8516 6.55273Q12.7539 6.39648 12.6465 6.32324Q12.5391 6.25 12.3535 6.23047Q12.1094 6.18164 11.5332 6.16699Q10.957 6.15234 9.9707 6.15234Q8.97461 6.15234 8.39844 6.17188Q7.82227 6.19141 7.56836 6.23047Q7.38281 6.25 7.28027 6.32324Q7.17773 6.39648 7.08008 6.55273Q6.97266 6.73828 6.84082 7.13867Q6.70898 7.53906 6.63086 7.91016ZM5.83984 10.6445Q5.83984 10.957 6.05957 11.1768Q6.2793 11.3965 6.60156 11.3965Q6.91406 11.3965 7.12891 11.1768Q7.34375 10.957 7.34375 10.6445Q7.34375 10.3223 7.12891 10.1123Q6.91406 9.90234 6.60156 9.90234Q6.2793 9.90234 6.05957 10.1123Q5.83984 10.3223 5.83984 10.6445ZM8.19336 10.6738Q8.19336 10.918 8.34473 11.0693Q8.49609 11.2207 8.73047 11.2207L11.1914 11.2207Q11.4355 11.2207 11.5869 11.0693Q11.7383 10.918 11.7383 10.6738Q11.7383 10.4395 11.5869 10.2881Q11.4355 10.1367 11.1914 10.1367L8.73047 10.1367Q8.49609 10.1367 8.34473 10.2881Q8.19336 10.4395 8.19336 10.6738ZM12.5781 10.6445Q12.5781 10.957 12.7979 11.1768Q13.0176 11.3965 13.3301 11.3965Q13.6523 11.3965 13.8672 11.1768Q14.082 10.957 14.082 10.6445Q14.082 10.3223 13.8672 10.1123Q13.6523 9.90234 13.3301 9.90234Q13.0176 9.90234 12.7979 10.1123Q12.5781 10.3223 12.5781 10.6445Z" fill="#ffffff"/>
 </g>
</svg>
