<?xml version="1.0" encoding="UTF-8"?>
<!--Generator: Apple Native CoreSVG 175-->
<!DOCTYPE svg
PUBLIC "-//W3C//DTD SVG 1.1//EN"
       "http://www.w3.org/Graphics/SVG/1.1/DTD/svg11.dtd">
<svg version="1.1" xmlns="http://www.w3.org/2000/svg" xmlns:xlink="http://www.w3.org/1999/xlink" width="19.1602" height="19.1504">
 <g>
  <rect height="19.1504" opacity="0" width="19.1602" x="0" y="0"/>
  <path d="M9.57031 19.1504Q11.5527 19.1504 13.2861 18.4082Q15.0195 17.666 16.3379 16.3428Q17.6562 15.0195 18.4082 13.2861Q19.1602 11.5527 19.1602 9.58008Q19.1602 7.60742 18.4082 5.87402Q17.6562 4.14062 16.3379 2.81738Q15.0195 1.49414 13.2861 0.751953Q11.5527 0.00976562 9.57031 0.00976562Q7.59766 0.00976562 5.86426 0.751953Q4.13086 1.49414 2.81738 2.81738Q1.50391 4.14062 0.751953 5.87402Q0 7.60742 0 9.58008Q0 11.5527 0.74707 13.2861Q1.49414 15.0195 2.8125 16.3428Q4.13086 17.666 5.86914 18.4082Q7.60742 19.1504 9.57031 19.1504Z" fill="rgba(255,255,255,0.25)"/>
  <path d="M4.04297 13.125L4.04297 10.5078Q4.04297 9.85352 4.19434 9.47754Q4.3457 9.10156 4.62891 8.74023L5.05859 8.18359Q5.18555 7.51953 5.39551 6.89941Q5.60547 6.2793 5.72266 6.01562Q5.91797 5.60547 6.26465 5.40527Q6.61133 5.20508 7.02148 5.14648Q7.26562 5.11719 8.00781 5.09766Q8.75 5.07812 9.58008 5.07812Q10.4102 5.07812 11.1475 5.09766Q11.8848 5.11719 12.1387 5.14648Q12.5488 5.19531 12.8955 5.40039Q13.2422 5.60547 13.4375 6.01562Q13.5547 6.2793 13.7598 6.89941Q13.9648 7.51953 14.1016 8.18359L14.5312 8.74023Q14.8047 9.10156 14.9609 9.47754Q15.1172 9.85352 15.1172 10.5078L15.1172 13.125Q15.1172 13.3789 14.9414 13.5547Q14.7656 13.7305 14.502 13.7305L13.9648 13.7305Q13.7109 13.7305 13.5303 13.5547Q13.3496 13.3789 13.3496 13.125L13.3496 12.3535Q12.5488 12.4023 11.5088 12.4365Q10.4688 12.4707 9.58008 12.4707Q8.69141 12.4707 7.64648 12.4365Q6.60156 12.4023 5.80078 12.3535L5.80078 13.125Q5.80078 13.3789 5.625 13.5547Q5.44922 13.7305 5.19531 13.7305L4.64844 13.7305Q4.39453 13.7305 4.21875 13.5547Q4.04297 13.3789 4.04297 13.125ZM5.87891 7.8125Q5.83008 8.04688 6.06445 8.02734Q6.70898 7.97852 7.48047 7.9541Q8.25195 7.92969 9.58008 7.92969Q10.8984 7.92969 11.6748 7.9541Q12.4512 7.97852 13.0957 8.02734Q13.3301 8.04688 13.2812 7.8125Q13.1641 7.31445 13.0225 6.89453Q12.8809 6.47461 12.7637 6.2793Q12.6465 6.08398 12.4756 5.95703Q12.3047 5.83008 12.0215 5.80078Q11.7383 5.76172 11.1084 5.74707Q10.4785 5.73242 9.58008 5.73242Q8.68164 5.73242 8.05176 5.74707Q7.42188 5.76172 7.12891 5.80078Q6.8457 5.83008 6.67969 5.95703Q6.51367 6.08398 6.39648 6.2793Q6.2793 6.47461 6.1377 6.89453Q5.99609 7.31445 5.87891 7.8125ZM5.41992 10.4785Q5.41992 10.752 5.60547 10.9375Q5.79102 11.123 6.06445 11.123Q6.33789 11.123 6.51855 10.9375Q6.69922 10.752 6.69922 10.4785Q6.69922 10.2051 6.51855 10.0244Q6.33789 9.84375 6.06445 9.84375Q5.79102 9.84375 5.60547 10.0244Q5.41992 10.2051 5.41992 10.4785ZM7.91992 10.5957Q7.91992 10.791 8.04688 10.918Q8.17383 11.0449 8.36914 11.0449L10.7812 11.0449Q10.9863 11.0449 11.1133 10.918Q11.2402 10.791 11.2402 10.5957Q11.2402 10.3906 11.1133 10.2637Q10.9863 10.1367 10.7812 10.1367L8.36914 10.1367Q8.17383 10.1367 8.04688 10.2637Q7.91992 10.3906 7.91992 10.5957ZM12.4609 10.4785Q12.4609 10.752 12.6465 10.9375Q12.832 11.123 13.0957 11.123Q13.3691 11.123 13.5547 10.9375Q13.7402 10.752 13.7402 10.4785Q13.7402 10.2051 13.5547 10.0244Q13.3691 9.84375 13.0957 9.84375Q12.832 9.84375 12.6465 10.0244Q12.4609 10.2051 12.4609 10.4785Z" fill="#ffffff"/>
 </g>
</svg>
