<?xml version="1.0" encoding="UTF-8"?>
<!--Generator: Apple Native CoreSVG 175.5-->
<!DOCTYPE svg
PUBLIC "-//W3C//DTD SVG 1.1//EN"
       "http://www.w3.org/Graphics/SVG/1.1/DTD/svg11.dtd">
<svg version="1.1" xmlns="http://www.w3.org/2000/svg" xmlns:xlink="http://www.w3.org/1999/xlink" width="17.9785" height="17.998">
 <g>
  <rect height="17.998" opacity="0" width="17.9785" x="0" y="0"/>
  <path d="M3.06641 17.998L14.9121 17.998Q16.4453 17.998 17.2119 17.2412Q17.9785 16.4844 17.9785 14.9707L17.9785 3.04688Q17.9785 1.5332 17.2119 0.776367Q16.4453 0.0195312 14.9121 0.0195312L3.06641 0.0195312Q1.5332 0.0195312 0.766602 0.776367Q0 1.5332 0 3.04688L0 14.9707Q0 16.4844 0.766602 17.2412Q1.5332 17.998 3.06641 17.998ZM3.08594 16.4258Q2.35352 16.4258 1.96289 16.04Q1.57227 15.6543 1.57227 14.8926L1.57227 3.125Q1.57227 2.36328 1.96289 1.97754Q2.35352 1.5918 3.08594 1.5918L14.8926 1.5918Q15.6152 1.5918 16.0107 1.97754Q16.4062 2.36328 16.4062 3.125L16.4062 14.8926Q16.4062 15.6543 16.0107 16.04Q15.6152 16.4258 14.8926 16.4258Z" fill="rgba(255,255,255,0.5)"/>
  <path d="M5.06836 9.01367Q5.06836 11.0156 5.99121 12.251Q6.91406 13.4863 8.47656 13.6816L8.47656 14.4629Q8.47656 14.6875 8.61328 14.8193Q8.75 14.9512 8.95508 14.9512Q9.16016 14.9512 9.30176 14.8193Q9.44336 14.6875 9.44336 14.4629L9.44336 13.6914Q10.5664 13.6035 11.3379 13.0322Q12.1094 12.4609 12.4316 11.582Q12.4707 11.4648 12.5 11.3379Q12.5293 11.2109 12.5293 11.084Q12.5293 10.8203 12.3633 10.6543Q12.1973 10.4883 11.9238 10.4883Q11.6797 10.4883 11.5283 10.6201Q11.377 10.752 11.2988 11.0059Q11.1328 11.6016 10.6348 12.0068Q10.1367 12.4121 9.44336 12.5098L9.44336 5.54688Q10.0977 5.6543 10.5811 6.07422Q11.0645 6.49414 11.2305 7.07031Q11.3867 7.57812 11.8555 7.57812Q12.1289 7.57812 12.2949 7.41699Q12.4609 7.25586 12.4512 6.98242Q12.4512 6.85547 12.4268 6.7334Q12.4023 6.61133 12.3633 6.49414Q12.041 5.61523 11.2598 5.03418Q10.4785 4.45312 9.44336 4.35547L9.44336 3.59375Q9.44336 3.37891 9.30176 3.24707Q9.16016 3.11523 8.95508 3.11523Q8.75 3.11523 8.61328 3.24707Q8.47656 3.37891 8.47656 3.59375L8.47656 4.36523Q6.91406 4.56055 5.99121 5.80078Q5.06836 7.04102 5.06836 9.01367ZM6.37695 9.01367Q6.37695 7.60742 6.93848 6.69434Q7.5 5.78125 8.47656 5.57617L8.47656 12.4805Q7.5 12.2656 6.93848 11.3477Q6.37695 10.4297 6.37695 9.01367Z" fill="#ffffff"/>
 </g>
</svg>
