<?xml version="1.0" encoding="UTF-8"?>
<!--Generator: Apple Native CoreSVG 175-->
<!DOCTYPE svg
PUBLIC "-//W3C//DTD SVG 1.1//EN"
       "http://www.w3.org/Graphics/SVG/1.1/DTD/svg11.dtd">
<svg version="1.1" xmlns="http://www.w3.org/2000/svg" xmlns:xlink="http://www.w3.org/1999/xlink" width="17.2852" height="17.3145">
 <g>
  <rect height="17.3145" opacity="0" width="17.2852" x="0" y="0"/>
  <path d="M2.62695 17.3145L14.6484 17.3145Q15.957 17.3145 16.6211 16.6455Q17.2852 15.9766 17.2852 14.6875L17.2852 2.65625Q17.2852 1.37695 16.6211 0.703125Q15.957 0.0292969 14.6484 0.0292969L2.62695 0.0292969Q1.33789 0.0292969 0.668945 0.693359Q0 1.35742 0 2.65625L0 14.6875Q0 15.9863 0.668945 16.6504Q1.33789 17.3145 2.62695 17.3145Z" fill="rgba(255,255,255,0.25)"/>
  <path d="M5.22461 8.68164Q5.22461 6.83594 6.06934 5.70312Q6.91406 4.57031 8.4082 4.44336L8.4082 3.7207Q8.4082 3.56445 8.49121 3.48633Q8.57422 3.4082 8.71094 3.4082Q8.84766 3.4082 8.93066 3.48633Q9.01367 3.56445 9.01367 3.7207L9.01367 4.42383Q10.0586 4.48242 10.8252 5.09766Q11.5918 5.71289 11.8457 6.63086Q11.8848 6.72852 11.9092 6.83105Q11.9336 6.93359 11.9336 7.03125Q11.9434 7.19727 11.8506 7.2998Q11.7578 7.40234 11.6113 7.40234Q11.4746 7.40234 11.3867 7.3291Q11.2988 7.25586 11.2793 7.10938Q11.1523 6.29883 10.5322 5.71777Q9.91211 5.13672 9.01367 5.06836L9.01367 12.4121Q9.94141 12.3438 10.5566 11.8164Q11.1719 11.2891 11.2988 10.4688Q11.3086 10.332 11.4111 10.249Q11.5137 10.166 11.6406 10.166Q11.7676 10.166 11.8652 10.2686Q11.9629 10.3711 11.9629 10.5176Q11.9629 10.6348 11.9336 10.7471Q11.9043 10.8594 11.8652 10.9668Q11.6211 11.8457 10.8643 12.417Q10.1074 12.9883 9.01367 13.0371L9.01367 13.877Q9.01367 14.0234 8.93066 14.1064Q8.84766 14.1895 8.71094 14.1895Q8.58398 14.1895 8.49609 14.1064Q8.4082 14.0234 8.4082 13.877L8.4082 13.0176Q6.92383 12.8809 6.07422 11.7285Q5.22461 10.5762 5.22461 8.68164ZM5.9082 8.68164Q5.9082 10.2539 6.56738 11.2451Q7.22656 12.2363 8.4082 12.3828L8.4082 5.08789Q7.2168 5.23438 6.5625 6.19141Q5.9082 7.14844 5.9082 8.68164Z" fill="#ffffff"/>
 </g>
</svg>
