<?xml version="1.0" encoding="UTF-8"?>
<!--Generator: Apple Native CoreSVG 175-->
<!DOCTYPE svg
PUBLIC "-//W3C//DTD SVG 1.1//EN"
       "http://www.w3.org/Graphics/SVG/1.1/DTD/svg11.dtd">
<svg version="1.1" xmlns="http://www.w3.org/2000/svg" xmlns:xlink="http://www.w3.org/1999/xlink" width="19.1602" height="19.1504">
 <g>
  <rect height="19.1504" opacity="0" width="19.1602" x="0" y="0"/>
  <path d="M9.57031 19.1406Q11.5527 19.1406 13.2861 18.3984Q15.0195 17.6562 16.3379 16.333Q17.6562 15.0098 18.4082 13.2764Q19.1602 11.543 19.1602 9.57031Q19.1602 7.59766 18.4082 5.86426Q17.6562 4.13086 16.3379 2.80762Q15.0195 1.48438 13.2861 0.742188Q11.5527 0 9.57031 0Q7.59766 0 5.86426 0.742188Q4.13086 1.48438 2.81738 2.80762Q1.50391 4.13086 0.751953 5.86426Q0 7.59766 0 9.57031Q0 11.543 0.74707 13.2764Q1.49414 15.0098 2.8125 16.333Q4.13086 17.6562 5.86914 18.3984Q7.60742 19.1406 9.57031 19.1406ZM9.57031 18.3984Q7.74414 18.3984 6.14746 17.71Q4.55078 17.0215 3.33496 15.8105Q2.11914 14.5996 1.43555 12.998Q0.751953 11.3965 0.751953 9.57031Q0.751953 7.74414 1.43555 6.14258Q2.11914 4.54102 3.33496 3.3252Q4.55078 2.10938 6.14746 1.4209Q7.74414 0.732422 9.57031 0.732422Q11.4062 0.732422 13.0029 1.4209Q14.5996 2.10938 15.8154 3.3252Q17.0312 4.54102 17.7197 6.14258Q18.4082 7.74414 18.4082 9.57031Q18.4082 11.3965 17.7246 12.998Q17.041 14.5996 15.8252 15.8105Q14.6094 17.0215 13.0078 17.71Q11.4062 18.3984 9.57031 18.3984Z" fill="rgba(255,255,255,0.5)"/>
  <path d="M6.17188 9.59961Q6.17188 11.4746 7.01172 12.6221Q7.85156 13.7695 9.33594 13.916L9.33594 14.7559Q9.33594 14.9023 9.41895 14.9805Q9.50195 15.0586 9.62891 15.0586Q9.75586 15.0586 9.84375 14.9805Q9.93164 14.9023 9.93164 14.7559L9.93164 13.9258Q11.0254 13.877 11.7676 13.3105Q12.5098 12.7441 12.7637 11.8652Q12.793 11.7578 12.8223 11.6455Q12.8516 11.5332 12.8516 11.416Q12.8516 11.2695 12.7588 11.1719Q12.666 11.0742 12.5391 11.0742Q12.4121 11.0742 12.3145 11.1572Q12.2168 11.2402 12.1973 11.3672Q12.0801 12.1875 11.4697 12.7148Q10.8594 13.2422 9.93164 13.3008L9.93164 6.00586Q10.8301 6.07422 11.4453 6.65527Q12.0605 7.23633 12.1875 8.03711Q12.2168 8.32031 12.5195 8.32031Q12.6562 8.32031 12.749 8.22754Q12.8418 8.13477 12.8223 7.96875Q12.8223 7.86133 12.7979 7.76367Q12.7734 7.66602 12.7539 7.56836Q12.4902 6.66016 11.7285 6.04492Q10.9668 5.42969 9.93164 5.37109L9.93164 4.66797Q9.93164 4.52148 9.84375 4.44336Q9.75586 4.36523 9.62891 4.36523Q9.50195 4.36523 9.41895 4.44336Q9.33594 4.52148 9.33594 4.66797L9.33594 5.38086Q7.8418 5.52734 7.00684 6.65039Q6.17188 7.77344 6.17188 9.59961ZM6.8457 9.59961Q6.8457 8.06641 7.49512 7.11914Q8.14453 6.17188 9.33594 6.02539L9.33594 13.2812Q8.1543 13.1348 7.5 12.1484Q6.8457 11.1621 6.8457 9.59961Z" fill="#ffffff"/>
 </g>
</svg>
