<?xml version="1.0" encoding="UTF-8"?>
<!--Generator: Apple Native CoreSVG 175.5-->
<!DOCTYPE svg
PUBLIC "-//W3C//DTD SVG 1.1//EN"
       "http://www.w3.org/Graphics/SVG/1.1/DTD/svg11.dtd">
<svg version="1.1" xmlns="http://www.w3.org/2000/svg" xmlns:xlink="http://www.w3.org/1999/xlink" width="14.1211" height="21.1621">
 <g>
  <rect height="21.1621" opacity="0" width="14.1211" x="0" y="0"/>
  <path d="M2.7832 10.5371L4.45312 10.5371L4.45312 6.38672L2.7832 6.38672ZM9.66797 10.5371L11.3379 10.5371L11.3379 6.38672L9.66797 6.38672ZM1.8457 21.1426L2.14844 21.1426Q2.50977 21.1426 2.73438 20.918Q2.95898 20.6934 2.95898 20.332L2.95898 14.0137L1.03516 14.0137L1.03516 20.332Q1.03516 20.6934 1.26465 20.918Q1.49414 21.1426 1.8457 21.1426ZM2.45117 16.7969L11.6699 16.7969L11.6699 15.3223L2.45117 15.3223ZM11.9727 21.1426L12.2754 21.1426Q12.627 21.1426 12.8564 20.918Q13.0859 20.6934 13.0859 20.332L13.0859 14.0137L11.1621 14.0137L11.1621 20.332Q11.1621 20.6934 11.3867 20.918Q11.6113 21.1426 11.9727 21.1426ZM2.48047 7.24609L11.6406 7.24609Q13.3398 7.24609 13.3398 5.5957L13.3398 1.65039Q13.3398 0 11.6406 0L2.48047 0Q0.78125 0 0.78125 1.65039L0.78125 5.5957Q0.78125 7.24609 2.48047 7.24609ZM1.61133 14.5215L12.5098 14.5215Q14.1211 14.5215 14.1211 12.9688L14.1211 11.4844Q14.1211 9.93164 12.5098 9.93164L1.61133 9.93164Q0 9.93164 0 11.4844L0 12.9688Q0 14.5215 1.61133 14.5215Z" fill="#ffffff"/>
 </g>
</svg>
