<?xml version="1.0" encoding="UTF-8"?>
<!--Generator: Apple Native CoreSVG 175-->
<!DOCTYPE svg
PUBLIC "-//W3C//DTD SVG 1.1//EN"
       "http://www.w3.org/Graphics/SVG/1.1/DTD/svg11.dtd">
<svg version="1.1" xmlns="http://www.w3.org/2000/svg" xmlns:xlink="http://www.w3.org/1999/xlink" width="20.6165" height="18.0191">
 <g>
  <rect height="18.0191" opacity="0" width="20.6165" x="0" y="0"/>
  <path d="M0.364532 11.2367L6.91803 7.44217L11.545 11.6426L19.3782 6.59027L18.9809 6.0582L11.602 10.8479L6.99448 6.66718L0.364532 10.4893ZM6.88248 8.59879Q7.25555 8.59879 7.56317 8.41362Q7.87079 8.22845 8.05237 7.92435Q8.23395 7.62024 8.23395 7.24731Q8.23395 6.87424 8.05237 6.56662Q7.87079 6.259 7.56317 6.07872Q7.25555 5.89844 6.88248 5.89844Q6.51642 5.89844 6.2088 6.07872Q5.90118 6.259 5.71602 6.56662Q5.53085 6.87424 5.53085 7.24731Q5.53085 7.62024 5.71602 7.92435Q5.90118 8.22845 6.2088 8.41362Q6.51642 8.59879 6.88248 8.59879ZM11.555 12.5203Q11.9281 12.5203 12.2357 12.3386Q12.5433 12.157 12.7236 11.8494Q12.9039 11.5417 12.9039 11.1687Q12.9039 10.7956 12.7236 10.488Q12.5433 10.1804 12.2357 10.0002Q11.9281 9.81995 11.555 9.81995Q11.1821 9.81995 10.8745 10.0002Q10.5669 10.1804 10.3852 10.488Q10.2036 10.7956 10.2036 11.1687Q10.2036 11.5417 10.3852 11.8494Q10.5669 12.157 10.8745 12.3386Q11.1821 12.5203 11.555 12.5203ZM18.8411 7.76764Q19.214 7.76764 19.5216 7.58247Q19.8293 7.39731 20.0109 7.0932Q20.1926 6.78909 20.1926 6.41602Q20.1926 6.04294 20.0109 5.73532Q19.8293 5.4277 19.5216 5.24605Q19.214 5.06439 18.8411 5.06439Q18.468 5.06439 18.1639 5.24605Q17.8598 5.4277 17.6746 5.73532Q17.4895 6.04294 17.4895 6.41602Q17.4895 6.78909 17.6746 7.0932Q17.8598 7.39731 18.1639 7.58247Q18.468 7.76764 18.8411 7.76764Z" fill="#ffffff"/>
  <path d="M0 17.5148Q0 17.7539 0.137482 17.8865Q0.274963 18.0191 0.50705 18.0191L20.2544 18.0191Q20.3938 18.0191 20.5051 17.9281Q20.6165 17.8371 20.6165 17.6738Q20.6165 17.5063 20.5051 17.4139Q20.3938 17.3215 20.2544 17.3215L0.903625 17.3215Q0.728607 17.3215 0.728607 17.1465L0.728607 0.392151Q0.728607 0.255432 0.632706 0.1371Q0.536804 0.0187683 0.376129 0.0187683Q0.198822 0.0187683 0.099411 0.1371Q0 0.255432 0 0.392151Z" fill="rgba(255,255,255,0.5)"/>
 </g>
</svg>
