<?xml version="1.0" encoding="UTF-8"?>
<!--Generator: Apple Native CoreSVG 175.5-->
<!DOCTYPE svg
PUBLIC "-//W3C//DTD SVG 1.1//EN"
       "http://www.w3.org/Graphics/SVG/1.1/DTD/svg11.dtd">
<svg version="1.1" xmlns="http://www.w3.org/2000/svg" xmlns:xlink="http://www.w3.org/1999/xlink" width="19.6191" height="13.2715">
 <g>
  <rect height="13.2715" opacity="0" width="19.6191" x="0" y="0"/>
  <path d="M4.56055 13.2715Q5.67383 13.2715 6.61621 12.915Q7.55859 12.5586 8.28613 11.8896Q9.01367 11.2207 9.48242 10.2832L9.58008 10.2832Q10.1953 11.6895 11.4453 12.4805Q12.6953 13.2715 14.4238 13.2715Q16.2207 13.2715 17.5293 12.5293Q18.8379 11.7871 19.4141 10.4102Q19.4727 10.2637 19.5117 10.1172Q19.5508 9.9707 19.5508 9.85352Q19.5508 9.50195 19.3262 9.28223Q19.1016 9.0625 18.7402 9.0625Q18.5156 9.0625 18.3545 9.16016Q18.1934 9.25781 18.0566 9.45312Q17.3926 10.6152 16.5088 11.1523Q15.625 11.6895 14.3555 11.6895Q13.1348 11.6895 12.2314 11.123Q11.3281 10.5566 10.8398 9.5459Q10.3516 8.53516 10.3516 7.19727L10.3516 7.07031L18.5742 7.07031Q19.0625 7.07031 19.3408 6.78223Q19.6191 6.49414 19.6191 5.98633Q19.6191 4.66797 19.2383 3.57422Q18.8574 2.48047 18.1543 1.67969Q17.4512 0.878906 16.4844 0.444336Q15.5176 0.00976562 14.3359 0.00976562Q13.2812 0.00976562 12.4121 0.341797Q11.543 0.673828 10.8887 1.29395Q10.2344 1.91406 9.81445 2.7832L9.73633 2.7832Q9.48242 1.91406 8.86719 1.29395Q8.25195 0.673828 7.34863 0.341797Q6.44531 0.00976562 5.33203 0.00976562Q4.27734 0.00976562 3.35449 0.317383Q2.43164 0.625 1.74316 1.18652Q1.05469 1.74805 0.722656 2.5Q0.605469 2.71484 0.546875 2.93457Q0.488281 3.1543 0.488281 3.34961Q0.488281 3.7207 0.712891 3.94043Q0.9375 4.16016 1.28906 4.16016Q1.81641 4.16016 2.05078 3.69141Q2.54883 2.59766 3.36426 2.10449Q4.17969 1.61133 5.36133 1.61133Q6.78711 1.61133 7.66602 2.43652Q8.54492 3.26172 8.54492 4.57031L8.54492 5.64453L4.72656 5.84961Q2.43164 5.9668 1.21582 6.91406Q0 7.86133 0 9.49219Q0 10.6348 0.561523 11.4844Q1.12305 12.334 2.14844 12.8027Q3.17383 13.2715 4.56055 13.2715ZM4.61914 11.709Q3.7793 11.709 3.1543 11.4209Q2.5293 11.1328 2.1875 10.625Q1.8457 10.1172 1.8457 9.46289Q1.8457 8.48633 2.63672 7.9248Q3.42773 7.36328 4.92188 7.27539L8.54492 7.07031L8.54492 8.20312Q8.54492 9.16992 8.02246 9.96582Q7.5 10.7617 6.61133 11.2354Q5.72266 11.709 4.61914 11.709ZM10.3516 5.64453Q10.4199 4.45312 10.9229 3.53516Q11.4258 2.61719 12.2705 2.10449Q13.1152 1.5918 14.1992 1.5918Q15.2734 1.5918 16.0645 2.09961Q16.8555 2.60742 17.2949 3.52051Q17.7344 4.43359 17.7539 5.64453Z" fill="#ffffff"/>
 </g>
</svg>
