<?xml version="1.0" encoding="UTF-8"?>
<!--Generator: Apple Native CoreSVG 175-->
<!DOCTYPE svg
PUBLIC "-//W3C//DTD SVG 1.1//EN"
       "http://www.w3.org/Graphics/SVG/1.1/DTD/svg11.dtd">
<svg version="1.1" xmlns="http://www.w3.org/2000/svg" xmlns:xlink="http://www.w3.org/1999/xlink" width="19.1602" height="19.1504">
 <g>
  <rect height="19.1504" opacity="0" width="19.1602" x="0" y="0"/>
  <path d="M9.57031 19.1406Q11.5527 19.1406 13.2861 18.3984Q15.0195 17.6562 16.3379 16.333Q17.6562 15.0098 18.4082 13.2764Q19.1602 11.543 19.1602 9.57031Q19.1602 7.59766 18.4082 5.86426Q17.6562 4.13086 16.3379 2.80762Q15.0195 1.48438 13.2861 0.742188Q11.5527 0 9.57031 0Q7.59766 0 5.86426 0.742188Q4.13086 1.48438 2.81738 2.80762Q1.50391 4.13086 0.751953 5.86426Q0 7.59766 0 9.57031Q0 11.543 0.74707 13.2764Q1.49414 15.0098 2.8125 16.333Q4.13086 17.6562 5.86914 18.3984Q7.60742 19.1406 9.57031 19.1406Z" fill="rgba(255,255,255,0.25)"/>
  <path d="M8.53516 14.2285Q8.4082 14.2285 8.3252 14.1846Q8.24219 14.1406 8.1543 14.0332L5.22461 10.625Q5.17578 10.5566 5.1416 10.4785Q5.10742 10.4004 5.10742 10.3125Q5.10742 10.1562 5.21484 10.0537Q5.32227 9.95117 5.46875 9.95117Q5.57617 9.95117 5.6543 9.99023Q5.73242 10.0293 5.81055 10.127L8.51562 13.291L13.4277 5.63477Q13.5742 5.42969 13.7598 5.42969Q13.8965 5.42969 14.0137 5.53223Q14.1309 5.63477 14.1309 5.78125Q14.1309 5.84961 14.1016 5.92285Q14.0723 5.99609 14.043 6.05469L8.90625 14.0332Q8.82812 14.1309 8.73535 14.1797Q8.64258 14.2285 8.53516 14.2285Z" fill="#ffffff"/>
 </g>
</svg>
