<?xml version="1.0" encoding="UTF-8"?>
<!--Generator: Apple Native CoreSVG 175-->
<!DOCTYPE svg
PUBLIC "-//W3C//DTD SVG 1.1//EN"
       "http://www.w3.org/Graphics/SVG/1.1/DTD/svg11.dtd">
<svg version="1.1" xmlns="http://www.w3.org/2000/svg" xmlns:xlink="http://www.w3.org/1999/xlink" width="17.2852" height="17.3145">
 <g>
  <rect height="17.3145" opacity="0" width="17.2852" x="0" y="0"/>
  <path d="M2.62695 17.3145L14.6484 17.3145Q15.957 17.3145 16.6211 16.6455Q17.2852 15.9766 17.2852 14.6875L17.2852 2.65625Q17.2852 1.37695 16.6211 0.703125Q15.957 0.0292969 14.6484 0.0292969L2.62695 0.0292969Q1.33789 0.0292969 0.668945 0.693359Q0 1.35742 0 2.65625L0 14.6875Q0 15.9863 0.668945 16.6504Q1.33789 17.3145 2.62695 17.3145Z" fill="rgba(255,255,255,0.25)"/>
  <path d="M6.5625 13.457Q6.46484 13.3496 6.45996 13.1934Q6.45508 13.0371 6.5625 12.9395L10.9668 8.65234L6.5625 4.375Q6.45508 4.26758 6.45508 4.11133Q6.45508 3.95508 6.5625 3.85742Q6.67969 3.75 6.82129 3.74512Q6.96289 3.74023 7.08008 3.86719L11.543 8.20312Q11.6797 8.33984 11.7285 8.49609Q11.7773 8.65234 11.7285 8.81348Q11.6797 8.97461 11.543 9.10156L7.08008 13.4375Q6.96289 13.5645 6.81152 13.5596Q6.66016 13.5547 6.5625 13.457Z" fill="#ffffff"/>
 </g>
</svg>
