<?xml version="1.0" encoding="UTF-8"?>
<!--Generator: Apple Native CoreSVG 175.5-->
<!DOCTYPE svg
PUBLIC "-//W3C//DTD SVG 1.1//EN"
       "http://www.w3.org/Graphics/SVG/1.1/DTD/svg11.dtd">
<svg version="1.1" xmlns="http://www.w3.org/2000/svg" xmlns:xlink="http://www.w3.org/1999/xlink" width="19.9219" height="19.9316">
 <g>
  <rect height="19.9316" opacity="0" width="19.9219" x="0" y="0"/>
  <path d="M9.96094 19.9219Q12.002 19.9219 13.8037 19.1406Q15.6055 18.3594 16.9824 16.9824Q18.3594 15.6055 19.1406 13.8037Q19.9219 12.002 19.9219 9.96094Q19.9219 7.91992 19.1406 6.11816Q18.3594 4.31641 16.9824 2.93945Q15.6055 1.5625 13.7988 0.78125Q11.9922 0 9.95117 0Q7.91016 0 6.1084 0.78125Q4.30664 1.5625 2.93457 2.93945Q1.5625 4.31641 0.78125 6.11816Q0 7.91992 0 9.96094Q0 12.002 0.78125 13.8037Q1.5625 15.6055 2.93945 16.9824Q4.31641 18.3594 6.11816 19.1406Q7.91992 19.9219 9.96094 19.9219Z" fill="rgba(255,255,255,0.25)"/>
  <path d="M11.8945 14.7852Q11.6992 14.9707 11.3818 14.9609Q11.0645 14.9512 10.8594 14.7559L6.78711 10.918Q6.51367 10.6641 6.4209 10.3125Q6.32812 9.96094 6.4209 9.60938Q6.51367 9.25781 6.78711 9.00391L10.8594 5.17578Q11.084 4.96094 11.3818 4.95117Q11.6797 4.94141 11.8848 5.14648Q12.1094 5.35156 12.1191 5.66406Q12.1289 5.97656 11.9043 6.19141L7.89062 9.96094L11.9043 13.7402Q12.1191 13.9453 12.1191 14.2578Q12.1191 14.5703 11.8945 14.7852Z" fill="#ffffff"/>
 </g>
</svg>
