<?xml version="1.0" encoding="UTF-8"?>
<!--Generator: Apple Native CoreSVG 175.5-->
<!DOCTYPE svg
PUBLIC "-//W3C//DTD SVG 1.1//EN"
       "http://www.w3.org/Graphics/SVG/1.1/DTD/svg11.dtd">
<svg version="1.1" xmlns="http://www.w3.org/2000/svg" xmlns:xlink="http://www.w3.org/1999/xlink" width="17.9785" height="17.998">
 <g>
  <rect height="17.998" opacity="0" width="17.9785" x="0" y="0"/>
  <path d="M3.06641 17.998L14.9121 17.998Q16.4453 17.998 17.2119 17.2412Q17.9785 16.4844 17.9785 14.9707L17.9785 3.04688Q17.9785 1.5332 17.2119 0.776367Q16.4453 0.0195312 14.9121 0.0195312L3.06641 0.0195312Q1.5332 0.0195312 0.766602 0.776367Q0 1.5332 0 3.04688L0 14.9707Q0 16.4844 0.766602 17.2412Q1.5332 17.998 3.06641 17.998ZM3.08594 16.4258Q2.35352 16.4258 1.96289 16.04Q1.57227 15.6543 1.57227 14.8926L1.57227 3.125Q1.57227 2.36328 1.96289 1.97754Q2.35352 1.5918 3.08594 1.5918L14.8926 1.5918Q15.6152 1.5918 16.0107 1.97754Q16.4062 2.36328 16.4062 3.125L16.4062 14.8926Q16.4062 15.6543 16.0107 16.04Q15.6152 16.4258 14.8926 16.4258Z" fill="rgba(255,255,255,0.5)"/>
  <path d="M4.17969 11.25Q4.39453 11.4941 4.70703 11.4941Q5.01953 11.4941 5.22461 11.2695L9.00391 7.26562L12.793 11.2695Q12.998 11.4941 13.3057 11.4941Q13.6133 11.4941 13.8379 11.25Q14.0332 11.0547 14.0283 10.7568Q14.0234 10.459 13.8086 10.2246L9.9707 6.16211Q9.66797 5.83008 9.33594 5.72266Q9.00391 5.61523 8.67676 5.72754Q8.34961 5.83984 8.04688 6.16211L4.20898 10.2246Q3.99414 10.459 3.98438 10.7568Q3.97461 11.0547 4.17969 11.25Z" fill="#ffffff"/>
 </g>
</svg>
