<?xml version="1.0" encoding="UTF-8"?>
<!--Generator: Apple Native CoreSVG 175-->
<!DOCTYPE svg
PUBLIC "-//W3C//DTD SVG 1.1//EN"
       "http://www.w3.org/Graphics/SVG/1.1/DTD/svg11.dtd">
<svg version="1.1" xmlns="http://www.w3.org/2000/svg" xmlns:xlink="http://www.w3.org/1999/xlink" width="17.2852" height="17.3145">
 <g>
  <rect height="17.3145" opacity="0" width="17.2852" x="0" y="0"/>
  <path d="M2.62695 17.3145L14.6484 17.3145Q15.957 17.3145 16.6211 16.6455Q17.2852 15.9766 17.2852 14.6875L17.2852 2.65625Q17.2852 1.37695 16.6211 0.703125Q15.957 0.0292969 14.6484 0.0292969L2.62695 0.0292969Q1.33789 0.0292969 0.668945 0.693359Q0 1.35742 0 2.65625L0 14.6875Q0 15.9863 0.668945 16.6504Q1.33789 17.3145 2.62695 17.3145Z" fill="rgba(255,255,255,0.25)"/>
  <path d="M10.4492 13.3984Q10.3418 13.5059 10.1953 13.5059Q10.0488 13.5059 9.93164 13.3984L5.49805 9.07227Q5.37109 8.94531 5.32227 8.78906Q5.27344 8.63281 5.31738 8.48145Q5.36133 8.33008 5.49805 8.20312L9.93164 3.87695Q10.0488 3.75977 10.1904 3.76465Q10.332 3.76953 10.4395 3.86719Q10.5469 3.96484 10.5518 4.11621Q10.5566 4.26758 10.4297 4.375L6.06445 8.63281L10.4297 12.8906Q10.5469 12.9883 10.5469 13.1396Q10.5469 13.291 10.4492 13.3984Z" fill="#ffffff"/>
 </g>
</svg>
