<?xml version="1.0" encoding="UTF-8"?>
<!--Generator: Apple Native CoreSVG 175.5-->
<!DOCTYPE svg
PUBLIC "-//W3C//DTD SVG 1.1//EN"
       "http://www.w3.org/Graphics/SVG/1.1/DTD/svg11.dtd">
<svg version="1.1" xmlns="http://www.w3.org/2000/svg" xmlns:xlink="http://www.w3.org/1999/xlink" width="17.9785" height="17.998">
 <g>
  <rect height="17.998" opacity="0" width="17.9785" x="0" y="0"/>
  <path d="M3.06641 17.998L14.9121 17.998Q16.4453 17.998 17.2119 17.2412Q17.9785 16.4844 17.9785 14.9707L17.9785 3.04688Q17.9785 1.5332 17.2119 0.776367Q16.4453 0.0195312 14.9121 0.0195312L3.06641 0.0195312Q1.5332 0.0195312 0.766602 0.776367Q0 1.5332 0 3.04688L0 14.9707Q0 16.4844 0.766602 17.2412Q1.5332 17.998 3.06641 17.998ZM3.08594 16.4258Q2.35352 16.4258 1.96289 16.04Q1.57227 15.6543 1.57227 14.8926L1.57227 3.125Q1.57227 2.36328 1.96289 1.97754Q2.35352 1.5918 3.08594 1.5918L14.8926 1.5918Q15.6152 1.5918 16.0107 1.97754Q16.4062 2.36328 16.4062 3.125L16.4062 14.8926Q16.4062 15.6543 16.0107 16.04Q15.6152 16.4258 14.8926 16.4258Z" fill="rgba(255,255,255,0.5)"/>
  <path d="M9.9707 12.1387L13.8086 8.06641Q14.0234 7.8418 14.0332 7.53906Q14.043 7.23633 13.8379 7.04102Q13.6133 6.80664 13.3057 6.80176Q12.998 6.79688 12.7832 7.02148L9.00391 11.0254L5.22461 7.02148Q5.01953 6.79688 4.70703 6.80176Q4.39453 6.80664 4.17969 7.04102Q3.98438 7.24609 3.98438 7.54395Q3.98438 7.8418 4.20898 8.06641L8.03711 12.1387Q8.34961 12.4609 8.67676 12.5684Q9.00391 12.6758 9.33594 12.5684Q9.66797 12.4609 9.9707 12.1387Z" fill="#ffffff"/>
 </g>
</svg>
