<?xml version="1.0" encoding="UTF-8"?>
<!--Generator: Apple Native CoreSVG 175.5-->
<!DOCTYPE svg
PUBLIC "-//W3C//DTD SVG 1.1//EN"
       "http://www.w3.org/Graphics/SVG/1.1/DTD/svg11.dtd">
<svg version="1.1" xmlns="http://www.w3.org/2000/svg" xmlns:xlink="http://www.w3.org/1999/xlink" width="19.9219" height="19.9316">
 <g>
  <rect height="19.9316" opacity="0" width="19.9219" x="0" y="0"/>
  <path d="M14.3262 17.0117Q13.3789 17.5977 12.2705 17.9297Q11.1621 18.2617 9.95117 18.2617Q8.22266 18.2617 6.71875 17.6172Q5.21484 16.9727 4.07715 15.835Q2.93945 14.6973 2.2998 13.1934Q1.66016 11.6895 1.66016 9.96094Q1.66016 8.75 1.99219 7.6416Q2.32422 6.5332 2.91016 5.58594L1.73828 4.4043Q0.917969 5.5957 0.458984 7.01172Q0 8.42773 0 9.96094Q0 12.002 0.78125 13.8037Q1.5625 15.6055 2.93945 16.9824Q4.31641 18.3594 6.11816 19.1406Q7.91992 19.9219 9.96094 19.9219Q11.4941 19.9219 12.9053 19.4678Q14.3164 19.0137 15.5078 18.1934ZM18.1836 15.5176Q19.0039 14.3262 19.4629 12.9102Q19.9219 11.4941 19.9219 9.96094Q19.9219 7.91992 19.1406 6.11816Q18.3594 4.31641 16.9824 2.93945Q15.6055 1.5625 13.7988 0.78125Q11.9922 0 9.95117 0Q8.41797 0 7.00195 0.458984Q5.58594 0.917969 4.4043 1.73828L5.58594 2.91016Q6.52344 2.31445 7.62695 1.9873Q8.73047 1.66016 9.94141 1.66016Q11.6699 1.66016 13.1738 2.2998Q14.6777 2.93945 15.8203 4.08203Q16.9629 5.22461 17.6074 6.72852Q18.252 8.23242 18.252 9.96094Q18.252 11.1719 17.9248 12.2803Q17.5977 13.3887 17.002 14.3359Z" fill="rgba(255,255,255,0.5)"/>
  <path d="M18.3789 19.4629Q18.6035 19.6875 18.916 19.6826Q19.2285 19.6777 19.4434 19.4531Q19.6582 19.2285 19.6631 18.9209Q19.668 18.6133 19.4434 18.3887L1.5332 0.478516Q1.30859 0.253906 0.996094 0.253906Q0.683594 0.253906 0.458984 0.478516Q0.244141 0.693359 0.244141 1.01074Q0.244141 1.32812 0.458984 1.54297Z" fill="#ffffff"/>
 </g>
</svg>
