<?xml version="1.0" encoding="UTF-8"?>
<!--Generator: Apple Native CoreSVG 175-->
<!DOCTYPE svg
PUBLIC "-//W3C//DTD SVG 1.1//EN"
       "http://www.w3.org/Graphics/SVG/1.1/DTD/svg11.dtd">
<svg version="1.1" xmlns="http://www.w3.org/2000/svg" xmlns:xlink="http://www.w3.org/1999/xlink" width="17.2852" height="17.3145">
 <g>
  <rect height="17.3145" opacity="0" width="17.2852" x="0" y="0"/>
  <path d="M2.62695 17.3145L14.6484 17.3145Q15.957 17.3145 16.6211 16.6455Q17.2852 15.9766 17.2852 14.6875L17.2852 2.65625Q17.2852 1.37695 16.6211 0.703125Q15.957 0.0292969 14.6484 0.0292969L2.62695 0.0292969Q1.33789 0.0292969 0.668945 0.693359Q0 1.35742 0 2.65625L0 14.6875Q0 15.9863 0.668945 16.6504Q1.33789 17.3145 2.62695 17.3145ZM2.65625 16.5918Q1.70898 16.5918 1.2207 16.1035Q0.732422 15.6152 0.732422 14.6582L0.732422 2.69531Q0.732422 1.72852 1.2207 1.24512Q1.70898 0.761719 2.65625 0.761719L14.6289 0.761719Q15.5566 0.761719 16.0596 1.24512Q16.5625 1.72852 16.5625 2.69531L16.5625 14.6582Q16.5625 15.6152 16.0596 16.1035Q15.5566 16.5918 14.6289 16.5918Z" fill="rgba(255,255,255,0.5)"/>
  <path d="M8.79883 13.8379Q9.85352 13.8379 10.791 13.4277Q11.7285 13.0176 12.4414 12.2998Q13.1543 11.582 13.5645 10.6494Q13.9746 9.7168 13.9746 8.66211Q13.9746 7.60742 13.5645 6.66992Q13.1543 5.73242 12.4365 5.01465Q11.7188 4.29688 10.7861 3.88672Q9.85352 3.47656 8.79883 3.47656Q7.74414 3.47656 6.80664 3.88672Q5.86914 4.29688 5.15137 5.01465Q4.43359 5.73242 4.02832 6.66992Q3.62305 7.60742 3.62305 8.66211Q3.62305 9.7168 4.0332 10.6494Q4.44336 11.582 5.16113 12.2998Q5.87891 13.0176 6.81152 13.4277Q7.74414 13.8379 8.79883 13.8379ZM8.79883 13.1152Q7.57812 13.1152 6.56738 12.5049Q5.55664 11.8945 4.95117 10.8887Q4.3457 9.88281 4.3457 8.66211Q4.3457 7.44141 4.95117 6.43066Q5.55664 5.41992 6.56738 4.81445Q7.57812 4.20898 8.79883 4.20898Q10.0195 4.20898 11.0254 4.81445Q12.0312 5.41992 12.6416 6.43066Q13.252 7.44141 13.252 8.66211Q13.252 9.88281 12.6416 10.8936Q12.0312 11.9043 11.0205 12.5098Q10.0098 13.1152 8.79883 13.1152Z" fill="#ffffff"/>
 </g>
</svg>
