<?xml version="1.0" encoding="UTF-8"?>
<!--Generator: Apple Native CoreSVG 175.5-->
<!DOCTYPE svg
PUBLIC "-//W3C//DTD SVG 1.1//EN"
       "http://www.w3.org/Graphics/SVG/1.1/DTD/svg11.dtd">
<svg version="1.1" xmlns="http://www.w3.org/2000/svg" xmlns:xlink="http://www.w3.org/1999/xlink" width="19.9219" height="19.9316">
 <g>
  <rect height="19.9316" opacity="0" width="19.9219" x="0" y="0"/>
  <path d="M19.9219 9.96094Q19.9219 7.91992 19.1406 6.11816Q18.3594 4.31641 16.9824 2.93945Q15.6055 1.5625 13.8037 0.78125Q12.002 0 9.96094 0Q7.91992 0 6.11816 0.78125Q4.31641 1.5625 2.93945 2.93945Q1.5625 4.31641 0.78125 6.11816Q0 7.91992 0 9.96094Q0 12.002 0.78125 13.8086Q1.5625 15.6152 2.93945 16.9873Q4.31641 18.3594 6.11816 19.1406Q7.91992 19.9219 9.96094 19.9219Q12.002 19.9219 13.8037 19.1406Q15.6055 18.3594 16.9824 16.9824Q18.3594 15.6055 19.1406 13.8037Q19.9219 12.002 19.9219 9.96094ZM18.2617 9.96094L1.66016 9.96094Q1.66016 8.23242 2.2998 6.72852Q2.93945 5.22461 4.08203 4.08691Q5.22461 2.94922 6.72852 2.30469Q8.23242 1.66016 9.96094 1.66016Q11.6895 1.65039 13.1934 2.29492Q14.6973 2.93945 15.8398 4.07715Q16.9824 5.21484 17.6221 6.72363Q18.2617 8.23242 18.2617 9.96094Z" fill="#ffffff"/>
 </g>
</svg>
