<?xml version="1.0" encoding="UTF-8"?>
<!--Generator: Apple Native CoreSVG 175.5-->
<!DOCTYPE svg
PUBLIC "-//W3C//DTD SVG 1.1//EN"
       "http://www.w3.org/Graphics/SVG/1.1/DTD/svg11.dtd">
<svg version="1.1" xmlns="http://www.w3.org/2000/svg" xmlns:xlink="http://www.w3.org/1999/xlink" width="19.9219" height="19.9316">
 <g>
  <rect height="19.9316" opacity="0" width="19.9219" x="0" y="0"/>
  <path d="M9.96094 19.9219Q12.002 19.9219 13.8037 19.1406Q15.6055 18.3594 16.9824 16.9824Q18.3594 15.6055 19.1406 13.8037Q19.9219 12.002 19.9219 9.96094Q19.9219 7.91992 19.1406 6.11816Q18.3594 4.31641 16.9824 2.93945Q15.6055 1.5625 13.7988 0.78125Q11.9922 0 9.95117 0Q7.91016 0 6.1084 0.78125Q4.30664 1.5625 2.93457 2.93945Q1.5625 4.31641 0.78125 6.11816Q0 7.91992 0 9.96094Q0 12.002 0.78125 13.8037Q1.5625 15.6055 2.93945 16.9824Q4.31641 18.3594 6.11816 19.1406Q7.91992 19.9219 9.96094 19.9219Z" fill="rgba(255,255,255,0.25)"/>
  <path d="M6.44531 8.06641Q5.87891 8.06641 5.46875 7.65625Q5.05859 7.24609 5.05859 6.67969Q5.05859 6.10352 5.46875 5.69336Q5.87891 5.2832 6.44531 5.2832Q7.02148 5.2832 7.42676 5.69336Q7.83203 6.10352 7.83203 6.67969Q7.83203 7.24609 7.42676 7.65625Q7.02148 8.06641 6.44531 8.06641ZM9.96094 8.06641Q9.39453 8.06641 8.98438 7.65625Q8.57422 7.24609 8.57422 6.67969Q8.57422 6.09375 8.98438 5.69336Q9.39453 5.29297 9.96094 5.2832Q10.5273 5.2832 10.9424 5.68848Q11.3574 6.09375 11.3574 6.67969Q11.3574 7.24609 10.9424 7.65625Q10.5273 8.06641 9.96094 8.06641ZM13.4766 8.06641Q12.9102 8.06641 12.5049 7.65625Q12.0996 7.24609 12.0996 6.67969Q12.0996 6.09375 12.5 5.69336Q12.9004 5.29297 13.4766 5.2832Q14.043 5.2832 14.4531 5.68848Q14.8633 6.09375 14.8633 6.67969Q14.8633 7.24609 14.4531 7.65625Q14.043 8.06641 13.4766 8.06641ZM6.44531 11.3477Q5.87891 11.3477 5.46875 10.9375Q5.05859 10.5273 5.05859 9.96094Q5.05859 9.38477 5.46875 8.97949Q5.87891 8.57422 6.44531 8.57422Q7.01172 8.56445 7.42188 8.97461Q7.83203 9.38477 7.83203 9.96094Q7.83203 10.5273 7.42676 10.9375Q7.02148 11.3477 6.44531 11.3477ZM9.96094 11.3477Q9.39453 11.3477 8.98438 10.9375Q8.57422 10.5273 8.57422 9.96094Q8.57422 9.38477 8.98438 8.97949Q9.39453 8.57422 9.96094 8.57422Q10.5273 8.56445 10.9424 8.97461Q11.3574 9.38477 11.3574 9.96094Q11.3574 10.5273 10.9424 10.9375Q10.5273 11.3477 9.96094 11.3477ZM13.4766 11.3477Q12.9102 11.3477 12.5049 10.9375Q12.0996 10.5273 12.0996 9.96094Q12.0996 9.38477 12.5049 8.97949Q12.9102 8.57422 13.4766 8.57422Q14.043 8.56445 14.4531 8.97461Q14.8633 9.38477 14.8633 9.96094Q14.8633 10.5273 14.4531 10.9375Q14.043 11.3477 13.4766 11.3477ZM6.44531 14.6387Q5.87891 14.6387 5.46875 14.2285Q5.05859 13.8184 5.05859 13.2422Q5.05859 12.6758 5.46875 12.2656Q5.87891 11.8555 6.44531 11.8555Q7.01172 11.8555 7.42188 12.2656Q7.83203 12.6758 7.83203 13.2422Q7.83203 13.8281 7.42676 14.2334Q7.02148 14.6387 6.44531 14.6387ZM9.96094 14.6387Q9.39453 14.6387 8.98438 14.2285Q8.57422 13.8184 8.57422 13.2422Q8.57422 12.6758 8.98438 12.2656Q9.39453 11.8555 9.96094 11.8555Q10.5273 11.8555 10.9424 12.2656Q11.3574 12.6758 11.3574 13.2422Q11.3574 13.8184 10.9424 14.2285Q10.5273 14.6387 9.96094 14.6387ZM13.4766 14.6387Q12.9102 14.6387 12.5049 14.2285Q12.0996 13.8184 12.0996 13.2422Q12.0996 12.6758 12.5049 12.2656Q12.9102 11.8555 13.4766 11.8555Q14.043 11.8555 14.4531 12.2656Q14.8633 12.6758 14.8633 13.2422Q14.8633 13.8184 14.4531 14.2285Q14.043 14.6387 13.4766 14.6387Z" fill="#ffffff"/>
 </g>
</svg>
