<?xml version="1.0" encoding="UTF-8"?>
<!--Generator: Apple Native CoreSVG 175.5-->
<!DOCTYPE svg
PUBLIC "-//W3C//DTD SVG 1.1//EN"
       "http://www.w3.org/Graphics/SVG/1.1/DTD/svg11.dtd">
<svg version="1.1" xmlns="http://www.w3.org/2000/svg" xmlns:xlink="http://www.w3.org/1999/xlink" width="17.9785" height="17.998">
 <g>
  <rect height="17.998" opacity="0" width="17.9785" x="0" y="0"/>
  <path d="M3.06641 17.998L14.9121 17.998Q16.4453 17.998 17.2119 17.2412Q17.9785 16.4844 17.9785 14.9707L17.9785 3.04688Q17.9785 1.5332 17.2119 0.776367Q16.4453 0.0195312 14.9121 0.0195312L3.06641 0.0195312Q1.5332 0.0195312 0.766602 0.776367Q0 1.5332 0 3.04688L0 14.9707Q0 16.4844 0.766602 17.2412Q1.5332 17.998 3.06641 17.998ZM3.08594 16.4258Q2.35352 16.4258 1.96289 16.04Q1.57227 15.6543 1.57227 14.8926L1.57227 3.125Q1.57227 2.36328 1.96289 1.97754Q2.35352 1.5918 3.08594 1.5918L14.8926 1.5918Q15.6152 1.5918 16.0107 1.97754Q16.4062 2.36328 16.4062 3.125L16.4062 14.8926Q16.4062 15.6543 16.0107 16.04Q15.6152 16.4258 14.8926 16.4258Z" fill="rgba(255,255,255,0.5)"/>
  <path d="M9.0332 14.2383Q10.1074 14.2383 11.0547 13.8232Q12.002 13.4082 12.7246 12.6855Q13.4473 11.9629 13.8574 11.0205Q14.2676 10.0781 14.2676 9.00391Q14.2676 7.93945 13.8525 6.99219Q13.4375 6.04492 12.7148 5.32227Q11.9922 4.59961 11.0498 4.18457Q10.1074 3.76953 9.0332 3.76953Q7.96875 3.76953 7.02148 4.18457Q6.07422 4.59961 5.35156 5.32227Q4.62891 6.04492 4.21875 6.99219Q3.80859 7.93945 3.80859 9.00391Q3.80859 10.0684 4.21875 11.0156Q4.62891 11.9629 5.35645 12.6855Q6.08398 13.4082 7.02637 13.8232Q7.96875 14.2383 9.0332 14.2383ZM9.0332 12.7148Q8.02734 12.7148 7.1875 12.207Q6.34766 11.6992 5.83984 10.8545Q5.33203 10.0098 5.33203 9.00391Q5.33203 7.98828 5.83496 7.14355Q6.33789 6.29883 7.18262 5.7959Q8.02734 5.29297 9.0332 5.29297Q10.0488 5.29297 10.8887 5.80078Q11.7285 6.30859 12.2363 7.15332Q12.7441 7.99805 12.7441 9.00391Q12.7441 10.0195 12.2363 10.8643Q11.7285 11.709 10.8887 12.2119Q10.0488 12.7148 9.0332 12.7148Z" fill="#ffffff"/>
 </g>
</svg>
