<?xml version="1.0" encoding="UTF-8"?>
<!--Generator: Apple Native CoreSVG 175-->
<!DOCTYPE svg
PUBLIC "-//W3C//DTD SVG 1.1//EN"
       "http://www.w3.org/Graphics/SVG/1.1/DTD/svg11.dtd">
<svg version="1.1" xmlns="http://www.w3.org/2000/svg" xmlns:xlink="http://www.w3.org/1999/xlink" width="19.1602" height="19.1504">
 <g>
  <rect height="19.1504" opacity="0" width="19.1602" x="0" y="0"/>
  <path d="M14.8242 16.6504Q13.7305 17.4805 12.3926 17.9395Q11.0547 18.3984 9.57031 18.3984Q7.74414 18.3984 6.14746 17.71Q4.55078 17.0215 3.33496 15.8105Q2.11914 14.5996 1.43066 12.998Q0.742188 11.3965 0.742188 9.57031Q0.742188 8.0957 1.20605 6.75293Q1.66992 5.41016 2.49023 4.31641L1.96289 3.78906Q1.04492 5 0.522461 6.47461Q0 7.94922 0 9.57031Q0 11.543 0.74707 13.2764Q1.49414 15.0098 2.8125 16.333Q4.13086 17.6562 5.86914 18.3984Q7.60742 19.1406 9.57031 19.1406Q11.2012 19.1406 12.6709 18.623Q14.1406 18.1055 15.3516 17.1777ZM17.168 15.3809Q18.0957 14.1699 18.6279 12.6904Q19.1602 11.2109 19.1602 9.57031Q19.1602 7.59766 18.4082 5.86426Q17.6562 4.13086 16.3379 2.80762Q15.0195 1.48438 13.2861 0.742188Q11.5527 0 9.57031 0Q7.93945 0 6.45996 0.522461Q4.98047 1.04492 3.7793 1.97266L4.30664 2.5Q5.39062 1.66992 6.73828 1.20117Q8.08594 0.732422 9.57031 0.732422Q11.4062 0.732422 13.0029 1.4209Q14.5996 2.10938 15.8154 3.3252Q17.0312 4.54102 17.7197 6.14258Q18.4082 7.74414 18.4082 9.57031Q18.4082 11.0547 17.9395 12.3975Q17.4707 13.7402 16.6406 14.8438Z" fill="rgba(255,255,255,0.5)"/>
  <path d="M18.2422 18.7695Q18.3398 18.8867 18.4912 18.8818Q18.6426 18.877 18.75 18.7695Q18.8672 18.6523 18.8574 18.5107Q18.8477 18.3691 18.75 18.2617L0.898438 0.410156Q0.800781 0.302734 0.65918 0.297852Q0.517578 0.292969 0.390625 0.410156Q0.283203 0.517578 0.283203 0.664062Q0.283203 0.810547 0.390625 0.917969Z" fill="#ffffff"/>
 </g>
</svg>
