<?xml version="1.0" encoding="UTF-8"?>
<!--Generator: Apple Native CoreSVG 175.5-->
<!DOCTYPE svg
PUBLIC "-//W3C//DTD SVG 1.1//EN"
       "http://www.w3.org/Graphics/SVG/1.1/DTD/svg11.dtd">
<svg version="1.1" xmlns="http://www.w3.org/2000/svg" xmlns:xlink="http://www.w3.org/1999/xlink" width="19.9219" height="19.873">
 <g>
  <rect height="19.873" opacity="0" width="19.9219" x="0" y="0"/>
  <path d="M9.93164 19.873Q10.3027 19.873 10.5615 19.6094Q10.8203 19.3457 10.8203 18.9844Q10.8203 18.623 10.5615 18.3643Q10.3027 18.1055 9.93164 18.1055Q9.58008 18.1055 9.32129 18.3643Q9.0625 18.623 9.0625 18.9844Q9.0625 19.3457 9.32129 19.6094Q9.58008 19.873 9.93164 19.873ZM12.7441 19.4238Q13.1055 19.4238 13.3691 19.165Q13.6328 18.9062 13.6328 18.5352Q13.6328 18.1738 13.3691 17.915Q13.1055 17.6562 12.7441 17.6562Q12.3828 17.6562 12.124 17.9199Q11.8652 18.1836 11.8652 18.5352Q11.8652 18.9062 12.124 19.165Q12.3828 19.4238 12.7441 19.4238ZM15.2734 18.1348Q15.6348 18.1348 15.8984 17.8711Q16.1621 17.6074 16.1621 17.2461Q16.1621 16.8848 15.8984 16.626Q15.6348 16.3672 15.2734 16.3672Q14.9121 16.3672 14.6533 16.626Q14.3945 16.8848 14.3945 17.2461Q14.3945 17.6074 14.6533 17.8711Q14.9121 18.1348 15.2734 18.1348ZM17.2754 16.123Q17.6465 16.123 17.9053 15.8643Q18.1641 15.6055 18.1641 15.2344Q18.1641 14.8828 17.9053 14.624Q17.6465 14.3652 17.2754 14.3652Q16.9141 14.3652 16.6553 14.624Q16.3965 14.8828 16.3965 15.2344Q16.3965 15.6055 16.6553 15.8643Q16.9141 16.123 17.2754 16.123ZM18.5547 13.623Q18.9258 13.623 19.1846 13.3594Q19.4434 13.0957 19.4434 12.7344Q19.4434 12.373 19.1846 12.1143Q18.9258 11.8555 18.5547 11.8555Q18.1934 11.8555 17.9346 12.1143Q17.6758 12.373 17.6758 12.7344Q17.6758 13.0957 17.9346 13.3594Q18.1934 13.623 18.5547 13.623ZM19.0332 10.8203Q19.4043 10.8203 19.6631 10.5566Q19.9219 10.293 19.9219 9.93164Q19.9219 9.57031 19.6631 9.31152Q19.4043 9.05273 19.0332 9.05273Q18.6816 9.05273 18.4229 9.31152Q18.1641 9.57031 18.1641 9.93164Q18.1641 10.293 18.418 10.5566Q18.6719 10.8203 19.0332 10.8203ZM18.5547 8.01758Q18.9258 8.01758 19.1846 7.75879Q19.4434 7.5 19.4434 7.13867Q19.4434 6.77734 19.1846 6.51367Q18.9258 6.25 18.5547 6.25Q18.1934 6.25 17.9346 6.51367Q17.6758 6.77734 17.6758 7.13867Q17.6758 7.5 17.9346 7.75879Q18.1934 8.01758 18.5547 8.01758ZM17.2754 5.50781Q17.6465 5.50781 17.9053 5.24902Q18.1641 4.99023 18.1641 4.63867Q18.1641 4.26758 17.9053 4.00879Q17.6465 3.75 17.2754 3.75Q16.9141 3.75 16.6553 4.00879Q16.3965 4.26758 16.3965 4.63867Q16.3965 4.99023 16.6553 5.24902Q16.9141 5.50781 17.2754 5.50781ZM15.2734 3.50586Q15.6348 3.50586 15.8984 3.24707Q16.1621 2.98828 16.1621 2.62695Q16.1621 2.26562 15.8984 2.00195Q15.6348 1.73828 15.2734 1.73828Q14.9121 1.73828 14.6533 2.00195Q14.3945 2.26562 14.3945 2.62695Q14.3945 2.98828 14.6533 3.24707Q14.9121 3.50586 15.2734 3.50586ZM12.7441 2.2168Q13.1055 2.2168 13.3691 1.95801Q13.6328 1.69922 13.6328 1.33789Q13.6328 0.966797 13.3691 0.708008Q13.1055 0.449219 12.7441 0.449219Q12.3828 0.449219 12.124 0.708008Q11.8652 0.966797 11.8652 1.33789Q11.8652 1.68945 12.124 1.95312Q12.3828 2.2168 12.7441 2.2168ZM9.93164 1.76758Q10.3027 1.76758 10.5615 1.50879Q10.8203 1.25 10.8203 0.888672Q10.8203 0.527344 10.5615 0.263672Q10.3027 0 9.93164 0Q9.58008 0 9.32129 0.263672Q9.0625 0.527344 9.0625 0.888672Q9.0625 1.25 9.32129 1.50879Q9.58008 1.76758 9.93164 1.76758ZM7.14844 2.2168Q7.5 2.2168 7.76367 1.95312Q8.02734 1.68945 8.02734 1.33789Q8.02734 0.966797 7.76855 0.708008Q7.50977 0.449219 7.14844 0.449219Q6.77734 0.449219 6.51855 0.708008Q6.25977 0.966797 6.25977 1.33789Q6.25977 1.69922 6.51855 1.95801Q6.77734 2.2168 7.14844 2.2168ZM4.62891 3.50586Q4.99023 3.50586 5.24902 3.24707Q5.50781 2.98828 5.50781 2.62695Q5.50781 2.26562 5.24902 2.00195Q4.99023 1.73828 4.62891 1.73828Q4.26758 1.73828 4.00391 2.00195Q3.74023 2.26562 3.74023 2.62695Q3.74023 2.98828 4.00391 3.24707Q4.26758 3.50586 4.62891 3.50586ZM2.63672 5.50781Q2.98828 5.50781 3.25195 5.24902Q3.51562 4.99023 3.51562 4.63867Q3.51562 4.26758 3.25684 4.00879Q2.99805 3.75 2.63672 3.75Q2.26562 3.75 2.00684 4.00879Q1.74805 4.26758 1.74805 4.63867Q1.74805 4.99023 2.00684 5.24902Q2.26562 5.50781 2.63672 5.50781ZM1.35742 8.01758Q1.70898 8.01758 1.97266 7.75879Q2.23633 7.5 2.23633 7.13867Q2.23633 6.77734 1.97754 6.51367Q1.71875 6.25 1.35742 6.25Q0.986328 6.25 0.727539 6.51367Q0.46875 6.77734 0.46875 7.13867Q0.46875 7.5 0.727539 7.75879Q0.986328 8.01758 1.35742 8.01758ZM0.888672 10.8203Q1.25 10.8203 1.50391 10.5566Q1.75781 10.293 1.75781 9.93164Q1.75781 9.57031 1.49902 9.31152Q1.24023 9.05273 0.888672 9.05273Q0.527344 9.05273 0.263672 9.31152Q0 9.57031 0 9.93164Q0 10.293 0.263672 10.5566Q0.527344 10.8203 0.888672 10.8203ZM1.35742 13.623Q1.71875 13.623 1.97754 13.3594Q2.23633 13.0957 2.23633 12.7344Q2.23633 12.373 1.97266 12.1143Q1.70898 11.8555 1.35742 11.8555Q0.986328 11.8555 0.727539 12.1143Q0.46875 12.373 0.46875 12.7344Q0.46875 13.0957 0.727539 13.3594Q0.986328 13.623 1.35742 13.623ZM2.63672 16.123Q2.99805 16.123 3.25684 15.8643Q3.51562 15.6055 3.51562 15.2344Q3.51562 14.8828 3.25195 14.624Q2.98828 14.3652 2.63672 14.3652Q2.26562 14.3652 2.00684 14.624Q1.74805 14.8828 1.74805 15.2344Q1.74805 15.6055 2.00684 15.8643Q2.26562 16.123 2.63672 16.123ZM4.62891 18.1348Q4.99023 18.1348 5.24902 17.8711Q5.50781 17.6074 5.50781 17.2461Q5.50781 16.8848 5.24902 16.626Q4.99023 16.3672 4.62891 16.3672Q4.26758 16.3672 4.00391 16.626Q3.74023 16.8848 3.74023 17.2461Q3.74023 17.6074 4.00391 17.8711Q4.26758 18.1348 4.62891 18.1348ZM7.14844 19.4238Q7.50977 19.4238 7.76855 19.165Q8.02734 18.9062 8.02734 18.5352Q8.02734 18.1836 7.76367 17.9199Q7.5 17.6562 7.14844 17.6562Q6.77734 17.6562 6.51855 17.915Q6.25977 18.1738 6.25977 18.5352Q6.25977 18.9062 6.51855 19.165Q6.77734 19.4238 7.14844 19.4238Z" fill="#ffffff"/>
 </g>
</svg>
