<?xml version="1.0" encoding="UTF-8"?>
<!--Generator: Apple Native CoreSVG 175-->
<!DOCTYPE svg
PUBLIC "-//W3C//DTD SVG 1.1//EN"
       "http://www.w3.org/Graphics/SVG/1.1/DTD/svg11.dtd">
<svg version="1.1" xmlns="http://www.w3.org/2000/svg" xmlns:xlink="http://www.w3.org/1999/xlink" width="17.2894" height="17.323">
 <g>
  <rect height="17.323" opacity="0" width="17.2894" x="0" y="0"/>
  <path d="M2.63046 17.323L14.6519 17.323Q15.9532 17.323 16.6213 16.6505Q17.2894 15.9781 17.2894 14.6965L17.2894 2.66006Q17.2894 1.37848 16.6213 0.706024Q15.9532 0.0335693 14.6519 0.0335693L2.63046 0.0335693Q1.33636 0.0335693 0.668182 0.699005Q0 1.36444 0 2.66006L0 14.6965Q0 15.9921 0.668182 16.6576Q1.33636 17.323 2.63046 17.323Z" fill="rgba(255,255,255,0.25)"/>
  <path d="M8.79135 13.7688Q7.75589 13.7688 6.83479 13.3619Q5.9137 12.955 5.20607 12.2495Q4.49844 11.544 4.09515 10.623Q3.69186 9.702 3.69186 8.66638Q3.69186 7.62817 4.09378 6.70357Q4.4957 5.77896 5.20119 5.07484Q5.90668 4.37073 6.82777 3.96385Q7.74887 3.55698 8.79135 3.55698Q9.82269 3.55698 10.7424 3.96385Q11.6621 4.37073 12.3711 5.07614Q13.0801 5.78156 13.4834 6.70616Q13.8867 7.63077 13.8867 8.66638Q13.8867 9.70459 13.4848 10.6257Q13.0829 11.5468 12.3774 12.2509Q11.6719 12.955 10.7508 13.3619Q9.82971 13.7688 8.79135 13.7688Z" fill="#ffffff"/>
 </g>
</svg>
