<?xml version="1.0" encoding="UTF-8"?>
<!--Generator: Apple Native CoreSVG 175-->
<!DOCTYPE svg
PUBLIC "-//W3C//DTD SVG 1.1//EN"
       "http://www.w3.org/Graphics/SVG/1.1/DTD/svg11.dtd">
<svg version="1.1" xmlns="http://www.w3.org/2000/svg" xmlns:xlink="http://www.w3.org/1999/xlink" width="23.0023" height="16.1826">
 <g>
  <rect height="16.1826" opacity="0" width="23.0023" x="0" y="0"/>
  <path d="M4.4899 15.0345L17.3691 15.0345Q18.5574 15.0345 19.5818 14.6175Q20.6062 14.2004 21.3741 13.4641Q22.1419 12.7278 22.5721 11.7503Q23.0023 10.7727 23.0023 9.64188Q23.0023 8.50128 22.5526 7.52861Q22.1028 6.55594 21.3008 5.83778Q20.4988 5.11963 19.4228 4.72076Q18.3469 4.3219 17.0918 4.32892Q16.132 2.35321 14.4717 1.17661Q12.8113 0 10.479 0Q9.09531 0 7.87361 0.52597Q6.65192 1.05194 5.69801 1.98814Q4.74411 2.92435 4.15215 4.16458Q3.56018 5.40482 3.44299 6.84036Q2.4762 7.09259 1.69533 7.66563Q0.914459 8.23868 0.45723 9.07974Q0 9.92081 0 10.977Q0 12.1086 0.535965 13.0254Q1.07193 13.9423 2.07581 14.4884Q3.07968 15.0345 4.4899 15.0345Z" fill="#ffffff"/>
 </g>
</svg>
