<?xml version="1.0" encoding="UTF-8"?>
<!--Generator: Apple Native CoreSVG 175.5-->
<!DOCTYPE svg
PUBLIC "-//W3C//DTD SVG 1.1//EN"
       "http://www.w3.org/Graphics/SVG/1.1/DTD/svg11.dtd">
<svg version="1.1" xmlns="http://www.w3.org/2000/svg" xmlns:xlink="http://www.w3.org/1999/xlink" width="22.2949" height="26.5456">
 <g>
  <rect height="26.5456" opacity="0" width="22.2949" x="0" y="0"/>
  <path d="M13.4961 21.5199L11.2793 21.5199L11.2598 21.9593L12.4512 19.6742Q12.5391 19.5082 12.4805 19.4007Q12.4219 19.2933 12.2656 19.2933L10.1465 19.2933Q9.94141 19.2933 9.84375 19.3714Q9.74609 19.4496 9.67773 19.5961L8.34961 22.6234Q8.27148 22.8089 8.34473 22.9115Q8.41797 23.014 8.60352 23.014L10.4102 23.014L10.5371 22.4379L8.96484 26.2562Q8.87695 26.4711 9.0332 26.5297Q9.17969 26.5882 9.33594 26.432L13.6523 22.0082Q13.8086 21.8519 13.7598 21.6859Q13.7109 21.5199 13.4961 21.5199Z" fill="rgba(255,255,255,0.5)"/>
  <path d="M4.58984 17.8968L16.709 17.8968Q17.9102 17.8968 18.9307 17.4769Q19.9512 17.057 20.708 16.3099Q21.4648 15.5629 21.8799 14.5716Q22.2949 13.5804 22.2949 12.4574Q22.2949 11.2855 21.8506 10.3041Q21.4062 9.32262 20.6104 8.59508Q19.8145 7.86754 18.75 7.46715Q17.6855 7.06676 16.4453 7.06676Q15.8398 5.86559 14.8975 4.97203Q13.9551 4.07848 12.7539 3.5902Q11.5527 3.10192 10.1367 3.10192Q8.75977 3.10192 7.54395 3.60485Q6.32812 4.10778 5.37109 4.99645Q4.41406 5.88512 3.82324 7.06676Q3.23242 8.2484 3.11523 9.60582Q2.22656 9.85973 1.52344 10.4408Q0.820312 11.0218 0.410156 11.8519Q0 12.682 0 13.7172Q0 14.8695 0.541992 15.8216Q1.08398 16.7738 2.10938 17.3353Q3.13477 17.8968 4.58984 17.8968ZM4.57031 16.3343Q3.56445 16.3343 2.90039 15.9925Q2.23633 15.6507 1.89941 15.0697Q1.5625 14.4886 1.5625 13.766Q1.5625 12.8871 2.10938 12.1595Q2.65625 11.432 3.90625 11.1Q4.31641 10.9925 4.48242 10.7777Q4.64844 10.5629 4.6875 10.1527Q4.76562 8.95153 5.22949 7.95055Q5.69336 6.94957 6.43555 6.21227Q7.17773 5.47496 8.12988 5.06969Q9.08203 4.66442 10.1367 4.66442Q11.7871 4.66442 13.0566 5.53844Q14.3262 6.41246 15.1172 8.03356Q15.2832 8.39489 15.5273 8.53649Q15.7715 8.67809 16.2109 8.67809Q17.6562 8.67809 18.667 9.20055Q19.6777 9.72301 20.2051 10.5922Q20.7324 11.4613 20.7324 12.4964Q20.7324 13.5609 20.2148 14.43Q19.6973 15.2992 18.8086 15.8168Q17.9199 16.3343 16.8066 16.3343Z" fill="#ffffff"/>
 </g>
</svg>
