<?xml version="1.0" encoding="UTF-8"?>
<!--Generator: Apple Native CoreSVG 175.5-->
<!DOCTYPE svg
PUBLIC "-//W3C//DTD SVG 1.1//EN"
       "http://www.w3.org/Graphics/SVG/1.1/DTD/svg11.dtd">
<svg version="1.1" xmlns="http://www.w3.org/2000/svg" xmlns:xlink="http://www.w3.org/1999/xlink" width="23.3398" height="16.4355">
 <g>
  <rect height="16.4355" opacity="0" width="23.3398" x="0" y="0"/>
  <path d="M4.78516 15.4492L17.5098 15.4492Q18.7402 15.4492 19.7998 15.0146Q20.8594 14.5801 21.6553 13.8086Q22.4512 13.0371 22.8955 12.0068Q23.3398 10.9766 23.3398 9.77539Q23.3398 8.56445 22.876 7.53906Q22.4121 6.51367 21.582 5.75684Q20.752 5 19.6338 4.58008Q18.5156 4.16016 17.1973 4.16016Q16.2305 2.22656 14.5068 1.11328Q12.7832 0 10.6055 0Q9.17969 0 7.90527 0.522461Q6.63086 1.04492 5.63477 1.97754Q4.63867 2.91016 4.01855 4.15039Q3.39844 5.39062 3.28125 6.82617Q2.31445 7.09961 1.57227 7.71484Q0.830078 8.33008 0.415039 9.19922Q0 10.0684 0 11.1035Q0 12.3828 0.595703 13.3594Q1.19141 14.3359 2.26562 14.8926Q3.33984 15.4492 4.78516 15.4492Z" fill="#ffffff"/>
 </g>
</svg>
