<?xml version="1.0" encoding="UTF-8"?>
<!--Generator: Apple Native CoreSVG 175.5-->
<!DOCTYPE svg
PUBLIC "-//W3C//DTD SVG 1.1//EN"
       "http://www.w3.org/Graphics/SVG/1.1/DTD/svg11.dtd">
<svg version="1.1" xmlns="http://www.w3.org/2000/svg" xmlns:xlink="http://www.w3.org/1999/xlink" width="28.3789" height="27.5771">
 <g>
  <rect height="27.5771" opacity="0" width="28.3789" x="0" y="0"/>
  <path d="M3.97461 24.5259L5.24414 22.3188Q5.38086 22.0942 5.31738 21.8647Q5.25391 21.6353 5.03906 21.5083Q4.81445 21.3813 4.58984 21.4448Q4.36523 21.5083 4.22852 21.7329L2.94922 23.9497Q2.82227 24.1646 2.88086 24.3892Q2.93945 24.6138 3.16406 24.7505Q3.38867 24.8677 3.61816 24.8042Q3.84766 24.7407 3.97461 24.5259ZM7.03125 27.27L8.30078 25.0728Q8.4375 24.8481 8.37402 24.6187Q8.31055 24.3892 8.0957 24.2524Q7.87109 24.1255 7.64648 24.189Q7.42188 24.2524 7.28516 24.4771L6.00586 26.7036Q5.87891 26.9087 5.9375 27.1382Q5.99609 27.3677 6.2207 27.4946Q6.44531 27.6216 6.6748 27.5532Q6.9043 27.4849 7.03125 27.27ZM11.748 24.5161L13.0176 22.3091Q13.1445 22.0845 13.0859 21.855Q13.0273 21.6255 12.8027 21.4985Q12.5879 21.3716 12.3584 21.4351Q12.1289 21.4985 12.002 21.7231L10.7227 23.9399Q10.5957 24.1548 10.6543 24.3794Q10.7129 24.604 10.9375 24.7407Q11.1523 24.8579 11.3867 24.7944Q11.6211 24.731 11.748 24.5161ZM14.7949 27.2603L16.0742 25.063Q16.2012 24.8384 16.1426 24.6089Q16.084 24.3794 15.8594 24.2427Q15.6348 24.1157 15.4102 24.1792Q15.1855 24.2427 15.0488 24.4673L13.7695 26.6938Q13.6523 26.8989 13.7109 27.1284Q13.7695 27.3579 13.9941 27.4849Q14.209 27.6118 14.4434 27.5435Q14.6777 27.4751 14.7949 27.2603Z" fill="rgba(255,255,255,0.25)"/>
  <path d="M18.2715 5.49268Q16.9238 5.49268 15.8301 6.14209Q14.7363 6.7915 14.0869 7.89014Q13.4375 8.98877 13.4375 10.3364Q13.4375 10.4243 13.4473 10.5122Q13.457 10.6001 13.457 10.688L14.9316 10.8247Q14.9023 10.7075 14.8877 10.5854Q14.873 10.4634 14.873 10.3364Q14.873 9.36963 15.3271 8.59814Q15.7812 7.82666 16.5479 7.37256Q17.3145 6.91846 18.2715 6.91846Q19.2285 6.91846 19.9951 7.37256Q20.7617 7.82666 21.2158 8.59814Q21.6699 9.36963 21.6699 10.3364Q21.6699 11.1079 21.3623 11.772Q21.0547 12.436 20.5176 12.9194Q19.9805 13.4028 19.2773 13.6274L19.2871 15.1021Q20.3906 14.8579 21.25 14.1694Q22.1094 13.481 22.6025 12.4849Q23.0957 11.4888 23.0957 10.3364Q23.0957 8.98877 22.4512 7.89014Q21.8066 6.7915 20.708 6.14209Q19.6094 5.49268 18.2715 5.49268ZM12.6074 5.82471Q12.8516 6.05908 13.1934 6.05908Q13.5352 6.05908 13.7598 5.82471Q13.9844 5.59033 13.9893 5.25342Q13.9941 4.9165 13.7598 4.68213L12.2559 3.17822Q12.0215 2.94385 11.6895 2.94385Q11.3574 2.94385 11.123 3.17822Q10.8887 3.4126 10.8838 3.74951Q10.8789 4.08643 11.123 4.3208ZM18.2715 3.93994Q18.6035 3.93994 18.8428 3.6958Q19.082 3.45166 19.082 3.12939L19.082 1.02002Q19.082 0.678223 18.8428 0.443848Q18.6035 0.209473 18.2715 0.209473Q17.9395 0.209473 17.7002 0.443848Q17.4609 0.678223 17.4609 1.02002L17.4609 3.12939Q17.4609 3.45166 17.7002 3.6958Q17.9395 3.93994 18.2715 3.93994ZM22.7832 5.82471Q23.0078 6.05908 23.3545 6.05908Q23.7012 6.05908 23.9355 5.82471L25.4297 4.3208Q25.6641 4.08643 25.6641 3.74951Q25.6641 3.4126 25.4297 3.17822Q25.1953 2.94385 24.8633 2.94385Q24.5312 2.94385 24.2969 3.17822L22.7832 4.68213Q22.5488 4.9165 22.5537 5.25342Q22.5586 5.59033 22.7832 5.82471ZM25.459 11.147L27.5781 11.147Q27.9102 11.147 28.1445 10.9077Q28.3789 10.6685 28.3789 10.3364Q28.3789 9.99463 28.1445 9.76025Q27.9102 9.52588 27.5781 9.52588L25.459 9.52588Q25.1367 9.52588 24.8926 9.76025Q24.6484 9.99463 24.6484 10.3364Q24.6484 10.6685 24.8926 10.9077Q25.1367 11.147 25.459 11.147ZM24.2969 17.4946Q24.5312 17.7388 24.8633 17.729Q25.1953 17.7192 25.4297 17.4849Q25.6641 17.2603 25.6641 16.9233Q25.6641 16.5864 25.4297 16.3521L23.916 14.8579Q23.6816 14.6333 23.3496 14.6284Q23.0176 14.6235 22.7832 14.8579Q22.5488 15.0923 22.5488 15.4292Q22.5488 15.7661 22.7832 16.0005Z" fill="rgba(255,255,255,0.5)"/>
  <path d="M4.14062 19.936L14.707 19.936Q16.123 19.936 17.2559 19.2915Q18.3887 18.647 19.0576 17.5386Q19.7266 16.4302 19.7266 15.0532Q19.7266 13.686 19.0479 12.5972Q18.3691 11.5083 17.207 10.8735Q16.0449 10.2388 14.5801 10.2192Q13.7207 8.60791 12.2607 7.68506Q10.8008 6.76221 8.98438 6.76221Q7.77344 6.76221 6.69434 7.19678Q5.61523 7.63135 4.76562 8.4126Q3.91602 9.19385 3.38379 10.229Q2.85156 11.2642 2.72461 12.4653Q1.50391 12.8462 0.751953 13.8374Q0 14.8286 0 16.1567Q0 17.2603 0.517578 18.1147Q1.03516 18.9692 1.96777 19.4526Q2.90039 19.936 4.14062 19.936ZM4.10156 18.3735Q3.27148 18.3735 2.70508 18.0854Q2.13867 17.7974 1.85059 17.3042Q1.5625 16.811 1.5625 16.1958Q1.5625 15.4243 2.04102 14.7896Q2.51953 14.1548 3.60352 13.8716Q3.95508 13.7739 4.10645 13.5933Q4.25781 13.4126 4.28711 13.0415Q4.375 12.0161 4.77051 11.1519Q5.16602 10.2876 5.80566 9.65283Q6.44531 9.01807 7.26074 8.67139Q8.07617 8.32471 8.98438 8.32471Q9.93164 8.32471 10.7324 8.66162Q11.5332 8.99854 12.168 9.63818Q12.8027 10.2778 13.2617 11.1958Q13.418 11.5083 13.6279 11.6304Q13.8379 11.7524 14.209 11.7524Q15.4688 11.7524 16.3525 12.2114Q17.2363 12.6704 17.6953 13.4272Q18.1543 14.1841 18.1543 15.0923Q18.1543 16.0103 17.7051 16.7524Q17.2559 17.4946 16.4795 17.9341Q15.7031 18.3735 14.7363 18.3735Z" fill="#ffffff"/>
 </g>
</svg>
