<?xml version="1.0" encoding="UTF-8"?>
<!--Generator: Apple Native CoreSVG 175.5-->
<!DOCTYPE svg
PUBLIC "-//W3C//DTD SVG 1.1//EN"
       "http://www.w3.org/Graphics/SVG/1.1/DTD/svg11.dtd">
<svg version="1.1" xmlns="http://www.w3.org/2000/svg" xmlns:xlink="http://www.w3.org/1999/xlink" width="17.9785" height="17.998">
 <g>
  <rect height="17.998" opacity="0" width="17.9785" x="0" y="0"/>
  <path d="M3.06641 17.998L14.9121 17.998Q16.4453 17.998 17.2119 17.2412Q17.9785 16.4844 17.9785 14.9707L17.9785 3.04688Q17.9785 1.5332 17.2119 0.776367Q16.4453 0.0195312 14.9121 0.0195312L3.06641 0.0195312Q1.5332 0.0195312 0.766602 0.776367Q0 1.5332 0 3.04688L0 14.9707Q0 16.4844 0.766602 17.2412Q1.5332 17.998 3.06641 17.998Z" fill="rgba(255,255,255,0.25)"/>
  <path d="M6.64062 8.07617L5.87891 8.07617Q5.29297 8.07617 4.80469 7.78809Q4.31641 7.5 4.02832 7.02148Q3.74023 6.54297 3.74023 5.94727Q3.74023 5.36133 4.02832 4.87305Q4.31641 4.38477 4.7998 4.09668Q5.2832 3.80859 5.87891 3.80859Q6.46484 3.80859 6.95312 4.10156Q7.44141 4.39453 7.72949 4.87793Q8.01758 5.36133 8.01758 5.94727L8.01758 6.70898L9.83398 6.70898L9.83398 5.94727Q9.83398 5.36133 10.127 4.87793Q10.4199 4.39453 10.9033 4.10156Q11.3867 3.80859 11.9727 3.80859Q12.5684 3.80859 13.0518 4.09668Q13.5352 4.38477 13.8232 4.87305Q14.1113 5.36133 14.1113 5.94727Q14.1113 6.54297 13.8232 7.02148Q13.5352 7.5 13.0518 7.78809Q12.5684 8.07617 11.9727 8.07617L11.2207 8.07617L11.2207 9.92188L11.9727 9.92188Q12.5684 9.92188 13.0518 10.21Q13.5352 10.498 13.8232 10.9766Q14.1113 11.4551 14.1113 12.041Q14.1113 12.6367 13.8232 13.125Q13.5352 13.6133 13.0518 13.9014Q12.5684 14.1895 11.9727 14.1895Q11.3867 14.1895 10.9033 13.8965Q10.4199 13.6035 10.127 13.1201Q9.83398 12.6367 9.83398 12.041L9.83398 11.2793L8.01758 11.2793L8.01758 12.041Q8.01758 12.6367 7.72949 13.1201Q7.44141 13.6035 6.95312 13.8965Q6.46484 14.1895 5.87891 14.1895Q5.2832 14.1895 4.7998 13.9014Q4.31641 13.6133 4.02832 13.125Q3.74023 12.6367 3.74023 12.041Q3.74023 11.4551 4.02832 10.9766Q4.31641 10.498 4.80469 10.21Q5.29297 9.92188 5.87891 9.92188L6.64062 9.92188ZM8.01758 9.93164L9.83398 9.93164L9.83398 8.06641L8.01758 8.06641ZM5.87891 6.71875L6.64062 6.71875L6.64062 5.94727Q6.64062 5.64453 6.41602 5.41016Q6.19141 5.17578 5.87891 5.17578Q5.56641 5.17578 5.33691 5.40527Q5.10742 5.63477 5.10742 5.94727Q5.10742 6.26953 5.33691 6.49414Q5.56641 6.71875 5.87891 6.71875ZM11.9727 6.71875Q12.2949 6.71875 12.5195 6.49414Q12.7441 6.26953 12.7441 5.94727Q12.7441 5.63477 12.5146 5.40527Q12.2852 5.17578 11.9727 5.17578Q11.6699 5.17578 11.4453 5.41016Q11.2207 5.64453 11.2207 5.94727L11.2207 6.71875ZM5.87891 11.2598Q5.56641 11.2598 5.33691 11.4893Q5.10742 11.7188 5.10742 12.0312Q5.10742 12.3535 5.33691 12.5781Q5.56641 12.8027 5.87891 12.8027Q6.19141 12.8027 6.41602 12.5781Q6.64062 12.3535 6.64062 12.0312L6.64062 11.2598ZM11.9727 11.2598L11.2207 11.2598L11.2207 12.0312Q11.2207 12.3535 11.4453 12.5781Q11.6699 12.8027 11.9727 12.8027Q12.2949 12.8027 12.5195 12.5781Q12.7441 12.3535 12.7441 12.0312Q12.7441 11.7188 12.5146 11.4893Q12.2852 11.2598 11.9727 11.2598Z" fill="#ffffff"/>
 </g>
</svg>
