<?xml version="1.0" encoding="UTF-8"?>
<!--Generator: Apple Native CoreSVG 175.5-->
<!DOCTYPE svg
PUBLIC "-//W3C//DTD SVG 1.1//EN"
       "http://www.w3.org/Graphics/SVG/1.1/DTD/svg11.dtd">
<svg version="1.1" xmlns="http://www.w3.org/2000/svg" xmlns:xlink="http://www.w3.org/1999/xlink" width="19.6191" height="19.5215">
 <g>
  <rect height="19.5215" opacity="0" width="19.6191" x="0" y="0"/>
  <path d="M6.23047 14.1406L13.4961 14.1406Q14.2383 14.1406 14.2383 13.3887L14.2383 6.14258Q14.2383 5.40039 13.4961 5.40039L6.23047 5.40039Q5.48828 5.40039 5.48828 6.14258L5.48828 13.3887Q5.48828 14.1406 6.23047 14.1406ZM7.00195 12.8613Q6.76758 12.8613 6.76758 12.627L6.76758 6.91406Q6.76758 6.67969 7.00195 6.67969L12.7148 6.67969Q12.959 6.67969 12.959 6.91406L12.959 12.627Q12.959 12.8613 12.7148 12.8613ZM2.60742 17.8027L17.1191 17.8027Q17.4707 17.8027 17.6855 17.5928Q17.9004 17.3828 17.9004 17.0312L17.9004 2.50977Q17.9004 2.1582 17.6855 1.94336Q17.4707 1.72852 17.1191 1.72852L2.60742 1.72852Q2.25586 1.72852 2.04102 1.94336Q1.82617 2.1582 1.82617 2.50977L1.82617 17.0312Q1.82617 17.3828 2.04102 17.5928Q2.25586 17.8027 2.60742 17.8027ZM3.68164 16.2305Q3.39844 16.2305 3.39844 15.9473L3.39844 3.59375Q3.39844 3.30078 3.68164 3.30078L16.0449 3.30078Q16.3281 3.30078 16.3281 3.59375L16.3281 15.9473Q16.3281 16.2305 16.0449 16.2305ZM7.41211 16.4844L5.83984 16.4844L5.83984 18.7402Q5.83984 19.0918 6.05469 19.3066Q6.26953 19.5215 6.62109 19.5215Q6.97266 19.5215 7.19238 19.3066Q7.41211 19.0918 7.41211 18.7402ZM10.6445 16.4844L9.07227 16.4844L9.07227 18.7402Q9.07227 19.0918 9.29199 19.3066Q9.51172 19.5215 9.86328 19.5215Q10.2148 19.5215 10.4297 19.3066Q10.6445 19.0918 10.6445 18.7402ZM13.916 16.4844L12.3438 16.4844L12.3438 18.7402Q12.3438 19.0918 12.5586 19.3066Q12.7734 19.5215 13.125 19.5215Q13.4766 19.5215 13.6963 19.3066Q13.916 19.0918 13.916 18.7402ZM16.5723 12.207L16.5723 13.7793L18.8281 13.7793Q19.1797 13.7793 19.3994 13.5596Q19.6191 13.3398 19.6191 12.9883Q19.6191 12.6367 19.3994 12.4219Q19.1797 12.207 18.8281 12.207ZM16.5723 8.96484L16.5723 10.5371L18.8281 10.5371Q19.1797 10.5371 19.3994 10.3223Q19.6191 10.1074 19.6191 9.75586Q19.6191 9.4043 19.3994 9.18457Q19.1797 8.96484 18.8281 8.96484ZM16.5723 5.73242L16.5723 7.30469L18.8281 7.30469Q19.1797 7.30469 19.3994 7.08496Q19.6191 6.86523 19.6191 6.51367Q19.6191 6.16211 19.3994 5.94727Q19.1797 5.73242 18.8281 5.73242ZM12.3145 3.05664L13.8867 3.05664L13.8867 0.800781Q13.8867 0.449219 13.667 0.234375Q13.4473 0.0195312 13.0957 0.0195312Q12.7441 0.0195312 12.5293 0.234375Q12.3145 0.449219 12.3145 0.800781ZM9.07227 3.05664L10.6445 3.05664L10.6445 0.800781Q10.6445 0.449219 10.4297 0.234375Q10.2148 0.0195312 9.86328 0.0195312Q9.51172 0.0195312 9.29199 0.234375Q9.07227 0.449219 9.07227 0.800781ZM5.83984 3.05664L7.41211 3.05664L7.41211 0.800781Q7.41211 0.449219 7.19238 0.234375Q6.97266 0.0195312 6.62109 0.0195312Q6.26953 0.0195312 6.05469 0.234375Q5.83984 0.449219 5.83984 0.800781ZM3.14453 7.31445L3.14453 5.74219L0.78125 5.74219Q0.429688 5.74219 0.214844 5.95703Q0 6.17188 0 6.52344Q0 6.875 0.214844 7.09473Q0.429688 7.31445 0.78125 7.31445ZM3.14453 10.5469L3.14453 8.97461L0.78125 8.97461Q0.429688 8.97461 0.214844 9.19434Q0 9.41406 0 9.76562Q0 10.1172 0.214844 10.332Q0.429688 10.5469 0.78125 10.5469ZM3.14453 13.7891L3.14453 12.2168L0.78125 12.2168Q0.429688 12.2168 0.214844 12.4316Q0 12.6465 0 12.998Q0 13.3496 0.214844 13.5693Q0.429688 13.7891 0.78125 13.7891Z" fill="#ffffff"/>
 </g>
</svg>
