<?xml version="1.0" encoding="UTF-8"?>
<!--Generator: Apple Native CoreSVG 175.5-->
<!DOCTYPE svg
PUBLIC "-//W3C//DTD SVG 1.1//EN"
       "http://www.w3.org/Graphics/SVG/1.1/DTD/svg11.dtd">
<svg version="1.1" xmlns="http://www.w3.org/2000/svg" xmlns:xlink="http://www.w3.org/1999/xlink" width="13.3887" height="23.4082">
 <g>
  <rect height="23.4082" opacity="0" width="13.3887" x="0" y="0"/>
  <path d="M3.41797 4.48242L9.96094 4.48242Q10.7617 4.48242 11.2109 4.02344Q11.6602 3.56445 11.6602 2.75391L11.6602 1.72852Q11.6602 0.917969 11.2109 0.458984Q10.7617 0 9.96094 0L3.41797 0Q2.62695 0 2.17773 0.458984Q1.72852 0.917969 1.72852 1.72852L1.72852 2.75391Q1.72852 3.56445 2.17773 4.02344Q2.62695 4.48242 3.41797 4.48242ZM3.54492 6.25977L9.84375 6.25977L9.84375 3.94531L3.54492 3.94531ZM3.1543 23.3789L10.2344 23.3789Q11.1816 23.3789 11.8945 22.9834Q12.6074 22.5879 12.998 21.8701Q13.3887 21.1523 13.3887 20.1758L13.3887 9.10156Q13.3887 8.125 12.998 7.40723Q12.6074 6.68945 11.8945 6.29395Q11.1816 5.89844 10.2344 5.89844L3.1543 5.89844Q2.19727 5.89844 1.48926 6.29395Q0.78125 6.68945 0.390625 7.40723Q0 8.125 0 9.10156L0 20.1758Q0 21.1523 0.390625 21.8701Q0.78125 22.5879 1.48926 22.9834Q2.19727 23.3789 3.1543 23.3789Z" fill="rgba(255,255,255,0.25)"/>
  <path d="M2.92969 15.3516L2.92969 13.9258Q2.92969 13.6035 3.125 13.418Q3.32031 13.2324 3.62305 13.2324L5.2832 13.2324L5.2832 11.582Q5.2832 11.2695 5.46875 11.0791Q5.6543 10.8887 5.97656 10.8887L7.40234 10.8887Q7.72461 10.8887 7.91016 11.0791Q8.0957 11.2695 8.0957 11.582L8.0957 13.2324L9.75586 13.2324Q10.0586 13.2324 10.2588 13.418Q10.459 13.6035 10.459 13.9258L10.459 15.3516Q10.459 15.6738 10.2588 15.8594Q10.0586 16.0449 9.75586 16.0449L8.0957 16.0449L8.0957 17.6953Q8.0957 18.0078 7.91016 18.2031Q7.72461 18.3984 7.40234 18.3984L5.97656 18.3984Q5.6543 18.3984 5.46875 18.2031Q5.2832 18.0078 5.2832 17.6953L5.2832 16.0449L3.62305 16.0449Q3.32031 16.0449 3.125 15.8594Q2.92969 15.6738 2.92969 15.3516Z" fill="#ffffff"/>
 </g>
</svg>
