<?xml version="1.0" encoding="UTF-8"?>
<!--Generator: Apple Native CoreSVG 175.5-->
<!DOCTYPE svg
PUBLIC "-//W3C//DTD SVG 1.1//EN"
       "http://www.w3.org/Graphics/SVG/1.1/DTD/svg11.dtd">
<svg version="1.1" xmlns="http://www.w3.org/2000/svg" xmlns:xlink="http://www.w3.org/1999/xlink" width="25.0488" height="20.3418">
 <g>
  <rect height="20.3418" opacity="0" width="25.0488" x="0" y="0"/>
  <path d="M2.5293 9.11133Q3.22266 9.11133 3.79883 8.76953Q4.375 8.42773 4.71191 7.85156Q5.04883 7.27539 5.04883 6.57227Q5.04883 5.88867 4.71191 5.31738Q4.375 4.74609 3.79883 4.39941Q3.22266 4.05273 2.5293 4.05273Q1.83594 4.05273 1.25977 4.39453Q0.683594 4.73633 0.341797 5.30762Q0 5.87891 0 6.57227Q0 7.27539 0.341797 7.85156Q0.683594 8.42773 1.25977 8.76953Q1.83594 9.11133 2.5293 9.11133ZM2.5293 7.58789Q2.11914 7.58789 1.82129 7.29004Q1.52344 6.99219 1.52344 6.57227Q1.52344 6.16211 1.82129 5.86914Q2.11914 5.57617 2.5293 5.57617Q2.93945 5.57617 3.23242 5.87402Q3.52539 6.17188 3.52539 6.57227Q3.52539 6.99219 3.2373 7.29004Q2.94922 7.58789 2.5293 7.58789ZM12.5293 5.04883Q13.2227 5.04883 13.7939 4.70703Q14.3652 4.36523 14.707 3.79395Q15.0488 3.22266 15.0488 2.51953Q15.0488 1.82617 14.707 1.25488Q14.3652 0.683594 13.7939 0.341797Q13.2227 0 12.5293 0Q11.8262 0 11.25 0.341797Q10.6738 0.683594 10.3369 1.25488Q10 1.82617 10 2.51953Q10 3.22266 10.3418 3.79395Q10.6836 4.36523 11.2598 4.70703Q11.8359 5.04883 12.5293 5.04883ZM12.5293 3.52539Q12.1191 3.52539 11.8213 3.22754Q11.5234 2.92969 11.5234 2.51953Q11.5234 2.09961 11.8213 1.81152Q12.1191 1.52344 12.5293 1.52344Q12.9297 1.52344 13.2275 1.82129Q13.5254 2.11914 13.5254 2.51953Q13.5254 2.92969 13.2373 3.22754Q12.9492 3.52539 12.5293 3.52539ZM22.5195 9.11133Q23.2129 9.11133 23.7891 8.76953Q24.3652 8.42773 24.707 7.85156Q25.0488 7.27539 25.0488 6.57227Q25.0488 5.87891 24.707 5.30762Q24.3652 4.73633 23.7891 4.39453Q23.2129 4.05273 22.5195 4.05273Q21.8262 4.05273 21.25 4.39941Q20.6738 4.74609 20.3369 5.31738Q20 5.88867 20 6.57227Q20 7.27539 20.3369 7.85156Q20.6738 8.42773 21.25 8.76953Q21.8262 9.11133 22.5195 9.11133ZM22.5195 7.58789Q22.0996 7.58789 21.8115 7.29004Q21.5234 6.99219 21.5234 6.57227Q21.5234 6.17188 21.8164 5.87402Q22.1094 5.57617 22.5195 5.57617Q22.9297 5.57617 23.2275 5.86914Q23.5254 6.16211 23.5254 6.57227Q23.5254 6.99219 23.2275 7.29004Q22.9297 7.58789 22.5195 7.58789ZM3.69141 8.4668L6.78711 10.3711Q7.25586 10.6641 7.92969 10.6055Q8.60352 10.5469 9.0918 9.90234L12.7832 4.95117L11.3867 4.35547L8.01758 8.87695Q7.88086 9.0625 7.72461 9.09668Q7.56836 9.13086 7.32422 8.97461L4.47266 7.2168ZM21.3574 8.45703L20.5762 7.20703L17.7441 8.94531Q17.4805 9.11133 17.3145 9.07227Q17.1484 9.0332 17.002 8.83789L13.6621 4.33594L12.2754 4.94141L15.9766 9.91211Q16.4453 10.5469 17.1094 10.6055Q17.7734 10.6641 18.1934 10.4004ZM4.92188 15.625L20.1367 15.625L20.1367 14.1504L4.92188 14.1504ZM2.48047 8.68164L4.47266 16.7969Q4.75586 17.9492 5.40527 18.5254Q6.05469 19.1016 7.26562 19.1016L17.7832 19.1016Q18.9941 19.1016 19.6484 18.5254Q20.3027 17.9492 20.5859 16.7969L22.5781 8.68164L21.2012 8.05664L19.1211 16.6113Q18.8672 17.627 17.8027 17.627L7.25586 17.627Q6.18164 17.627 5.9375 16.6113L3.84766 8.05664Z" fill="#ffffff"/>
 </g>
</svg>
