<?xml version="1.0" encoding="UTF-8"?>
<!--Generator: Apple Native CoreSVG 175.5-->
<!DOCTYPE svg
PUBLIC "-//W3C//DTD SVG 1.1//EN"
       "http://www.w3.org/Graphics/SVG/1.1/DTD/svg11.dtd">
<svg version="1.1" xmlns="http://www.w3.org/2000/svg" xmlns:xlink="http://www.w3.org/1999/xlink" width="19.8145" height="21.4746">
 <g>
  <rect height="21.4746" opacity="0" width="19.8145" x="0" y="0"/>
  <path d="M10.5273 7.63672L10.5273 9.93164L19.1113 5.05859Q18.8965 4.86328 18.5742 4.67773L11.6797 0.751953Q11.3965 0.576172 11.1035 0.46875Q10.8105 0.361328 10.5273 0.292969L10.5273 2.77344L9.18945 2.77344L9.18945 0.322266Q8.92578 0.380859 8.66211 0.488281Q8.39844 0.595703 8.13477 0.751953L1.25 4.67773Q0.917969 4.86328 0.703125 5.05859L9.18945 9.87305L9.18945 7.63672ZM9.18945 6.45508L9.18945 3.96484L10.5273 3.96484L10.5273 6.45508ZM10.5762 21.4746Q10.625 21.4648 10.6738 21.4404Q10.7227 21.416 10.7715 21.3867L18.418 17.0312Q18.6621 16.8945 18.8672 16.748Q19.0723 16.6016 19.2285 16.4355L17.2559 15.4492L17.8613 14.248L19.7656 15.2051Q19.8145 14.9121 19.8145 14.5703L19.8145 6.96289Q19.8145 6.51367 19.7363 6.2207L11.3379 11.0156L13.457 12.0605L12.8613 13.2617L10.5762 12.1387ZM16.0547 14.8535L14.0723 13.8672L14.6777 12.666L16.6504 13.6523ZM9.23828 21.4746L9.23828 12.1387L6.95312 13.2617L6.35742 12.0605L8.47656 11.0156L0.078125 6.2207Q0 6.51367 0 6.96289L0 14.5703Q0 14.9316 0.0488281 15.1953L1.95312 14.248L2.55859 15.4492L0.585938 16.4355Q0.742188 16.6016 0.952148 16.748Q1.16211 16.8945 1.39648 17.0312L9.05273 21.3867Q9.10156 21.416 9.14551 21.4404Q9.18945 21.4648 9.23828 21.4746ZM3.75977 14.8535L3.16406 13.6523L5.14648 12.666L5.74219 13.8672Z" fill="#ffffff"/>
 </g>
</svg>
