<?xml version="1.0" encoding="UTF-8"?>
<!--Generator: Apple Native CoreSVG 175-->
<!DOCTYPE svg
PUBLIC "-//W3C//DTD SVG 1.1//EN"
       "http://www.w3.org/Graphics/SVG/1.1/DTD/svg11.dtd">
<svg version="1.1" xmlns="http://www.w3.org/2000/svg" xmlns:xlink="http://www.w3.org/1999/xlink" width="23.4377" height="17.3239">
 <g>
  <rect height="17.3239" opacity="0" width="23.4377" x="0" y="0"/>
  <path d="M18.5234 9.72778Q19.859 10.0836 20.7969 10.5559Q21.7348 11.0281 22.2301 11.5869Q22.7254 12.1457 22.7254 12.7599Q22.7254 13.5571 21.8864 14.255Q21.0474 14.9529 19.545 15.4845Q18.0426 16.0161 16.0395 16.3139Q14.0364 16.6118 11.7152 16.6118Q9.39423 16.6118 7.39105 16.3139Q5.38788 16.0161 3.88908 15.4845Q2.39029 14.9529 1.55121 14.255Q0.712128 13.5571 0.712128 12.7599Q0.712128 12.1457 1.20338 11.5897Q1.69464 11.0336 2.63969 10.5544Q3.58475 10.0751 4.94736 9.70947L4.58481 9.05396Q2.39304 9.66873 1.19652 10.6371Q0 11.6055 0 12.7599Q0 13.7575 0.86937 14.5923Q1.73874 15.4271 3.3149 16.0431Q4.89105 16.6591 7.0311 16.9915Q9.17114 17.3239 11.7152 17.3239Q14.2665 17.3239 16.4079 16.9915Q18.5493 16.6591 20.129 16.0431Q21.7087 15.4271 22.5732 14.5923Q23.4377 13.7575 23.4377 12.7599Q23.4377 11.5973 22.2346 10.6256Q21.0316 9.65393 18.8661 9.04892ZM19.2548 3.55515L19.2548 5.39215Q19.2548 7.56485 18.4192 9.21074Q17.5836 10.8566 15.9647 11.7818Q14.3457 12.7071 11.9957 12.7071L11.418 12.7071Q9.06799 12.7071 7.45255 11.7867Q5.8371 10.8664 5.00648 9.217Q4.17587 7.5676 4.17587 5.39215L4.17587 3.55515L3.44727 3.55515L3.44727 5.39215Q3.44727 7.16568 3.97537 8.63869Q4.50348 10.1117 5.52673 11.1881Q6.54999 12.2646 8.03108 12.8501Q9.51218 13.4357 11.418 13.4357L11.9957 13.4357Q13.9044 13.4357 15.3889 12.8501Q16.8735 12.2646 17.8967 11.1881Q18.92 10.1117 19.4516 8.63731Q19.9832 7.16293 19.9832 5.39215L19.9832 3.55515ZM11.7152 7.08633Q14.1438 7.08633 16.0087 6.62422Q17.8735 6.16211 18.9284 5.3643Q19.9832 4.5665 19.9832 3.55515Q19.9832 2.54379 18.9284 1.74454Q17.8735 0.945282 16.0087 0.48317Q14.1438 0.0210571 11.7152 0.0210571Q9.28406 0.0210571 7.42058 0.48317Q5.5571 0.945282 4.50218 1.74454Q3.44727 2.54379 3.44727 3.55515Q3.44727 4.5665 4.50218 5.3643Q5.5571 6.16211 7.42195 6.62422Q9.2868 7.08633 11.7152 7.08633ZM11.7152 6.3649Q10.07 6.3649 8.69133 6.14769Q7.31262 5.93048 6.29814 5.54787Q5.28366 5.16525 4.72977 4.65416Q4.17587 4.14307 4.17587 3.55515Q4.17587 2.96722 4.72977 2.45476Q5.28366 1.94229 6.29814 1.56097Q7.31262 1.17966 8.69133 0.961151Q10.07 0.742645 11.7152 0.742645Q13.3606 0.742645 14.7393 0.961151Q16.118 1.17966 17.1325 1.56097Q18.147 1.94229 18.7009 2.45476Q19.2548 2.96722 19.2548 3.55515Q19.2548 4.14307 18.7009 4.65416Q18.147 5.16525 17.1325 5.54787Q16.118 5.93048 14.7393 6.14769Q13.3606 6.3649 11.7152 6.3649ZM19.1145 9.05548L19.9223 9.05548Q21.2645 9.05548 22.0704 8.32954Q22.8763 7.60361 22.8763 6.39618Q22.8763 5.19424 22.069 4.47037Q21.2617 3.74649 19.9223 3.74649L19.697 3.74649L19.697 4.46106L19.9223 4.46106Q20.9329 4.46106 21.5438 4.98856Q22.1547 5.51605 22.1547 6.39618Q22.1547 7.26913 21.5438 7.8051Q20.9329 8.34106 19.9223 8.34106L19.1145 8.34106Z" fill="#ffffff"/>
 </g>
</svg>
