<?xml version="1.0" encoding="UTF-8"?>
<!--Generator: Apple Native CoreSVG 175.5-->
<!DOCTYPE svg
PUBLIC "-//W3C//DTD SVG 1.1//EN"
       "http://www.w3.org/Graphics/SVG/1.1/DTD/svg11.dtd">
<svg version="1.1" xmlns="http://www.w3.org/2000/svg" xmlns:xlink="http://www.w3.org/1999/xlink" width="25.3711" height="18.9551">
 <g>
  <rect height="18.9551" opacity="0" width="25.3711" x="0" y="0"/>
  <path d="M19.1211 10.8105Q20.5762 11.1523 21.6406 11.6211Q22.7051 12.0898 23.2812 12.6416Q23.8574 13.1934 23.8574 13.7793Q23.8574 14.4922 23.0078 15.1514Q22.1582 15.8105 20.6348 16.3281Q19.1113 16.8457 17.0801 17.1436Q15.0488 17.4414 12.6855 17.4414Q10.3223 17.4414 8.29102 17.1436Q6.25977 16.8457 4.73633 16.3281Q3.21289 15.8105 2.36328 15.1514Q1.51367 14.4922 1.51367 13.7793Q1.51367 13.1934 2.0752 12.6514Q2.63672 12.1094 3.67676 11.6406Q4.7168 11.1719 6.14258 10.8203L5.40039 9.43359Q2.87109 10.0977 1.43555 11.2207Q0 12.3438 0 13.7793Q0 14.9316 0.932617 15.8789Q1.86523 16.8262 3.56445 17.5195Q5.26367 18.2129 7.58301 18.584Q9.90234 18.9551 12.6855 18.9551Q15.4688 18.9551 17.793 18.584Q20.1172 18.2129 21.8164 17.5195Q23.5156 16.8262 24.4434 15.8789Q25.3711 14.9316 25.3711 13.7793Q25.3711 12.3145 23.8623 11.167Q22.3535 10.0195 19.7168 9.36523ZM20 4.0332L20 6.07422Q20 8.18359 19.1504 9.78027Q18.3008 11.377 16.7627 12.2705Q15.2246 13.1641 13.1348 13.1641L12.2266 13.1641Q10.1367 13.1641 8.59863 12.2754Q7.06055 11.3867 6.21582 9.79004Q5.37109 8.19336 5.37109 6.07422L5.37109 4.0332L3.79883 4.0332L3.79883 6.07422Q3.79883 7.98828 4.4043 9.57031Q5.00977 11.1523 6.12793 12.3096Q7.24609 13.4668 8.79395 14.1016Q10.3418 14.7363 12.2266 14.7363L13.1348 14.7363Q15.0293 14.7363 16.5771 14.1016Q18.125 13.4668 19.2432 12.3096Q20.3613 11.1523 20.9668 9.56543Q21.5723 7.97852 21.5723 6.07422L21.5723 4.0332ZM12.6855 8.05664Q15.332 8.05664 17.334 7.54883Q19.3359 7.04102 20.4541 6.1377Q21.5723 5.23438 21.5723 4.0332Q21.5723 2.83203 20.4541 1.92383Q19.3359 1.01562 17.334 0.507812Q15.332 0 12.6855 0Q10.0293 0 8.03223 0.507812Q6.03516 1.01562 4.91699 1.92383Q3.79883 2.83203 3.79883 4.0332Q3.79883 5.23438 4.91699 6.1377Q6.03516 7.04102 8.03711 7.54883Q10.0391 8.05664 12.6855 8.05664ZM12.6855 6.48438Q11.1035 6.48438 9.77051 6.29883Q8.4375 6.11328 7.45117 5.77637Q6.46484 5.43945 5.91797 4.99512Q5.37109 4.55078 5.37109 4.0332Q5.37109 3.51562 5.91797 3.06641Q6.46484 2.61719 7.45117 2.28516Q8.4375 1.95312 9.77051 1.7627Q11.1035 1.57227 12.6855 1.57227Q14.2676 1.57227 15.6006 1.7627Q16.9336 1.95312 17.9199 2.28516Q18.9062 2.61719 19.4531 3.06641Q20 3.51562 20 4.0332Q20 4.55078 19.4531 4.99512Q18.9062 5.43945 17.9199 5.77637Q16.9336 6.11328 15.6006 6.29883Q14.2676 6.48438 12.6855 6.48438ZM20.4785 10.293L21.2793 10.293Q22.959 10.293 23.916 9.45801Q24.873 8.62305 24.873 7.14844Q24.873 5.69336 23.9111 4.85352Q22.9492 4.01367 21.2793 4.01367L20.625 4.01367L20.625 5.58594L21.2793 5.58594Q22.2266 5.58594 22.7637 6.00098Q23.3008 6.41602 23.3008 7.14844Q23.3008 7.88086 22.7637 8.30078Q22.2266 8.7207 21.2793 8.7207L20.4785 8.7207Z" fill="#ffffff"/>
 </g>
</svg>
