<?xml version="1.0" encoding="UTF-8"?>
<!--Generator: Apple Native CoreSVG 175.5-->
<!DOCTYPE svg
PUBLIC "-//W3C//DTD SVG 1.1//EN"
       "http://www.w3.org/Graphics/SVG/1.1/DTD/svg11.dtd">
<svg version="1.1" xmlns="http://www.w3.org/2000/svg" xmlns:xlink="http://www.w3.org/1999/xlink" width="18.1836" height="20.1855">
 <g>
  <rect height="20.1855" opacity="0" width="18.1836" x="0" y="0"/>
  <path d="M0 10.0879Q0 10.5176 0.249023 10.7959Q0.498047 11.0742 0.996094 11.1621Q1.9043 11.2988 2.29492 11.8262Q2.68555 12.3535 2.68555 13.5352L2.68555 16.2793Q2.68555 18.2715 3.62305 19.2285Q4.56055 20.1855 6.5332 20.1855Q6.76758 20.1855 6.97266 20.1172Q7.19727 20.0195 7.31934 19.8438Q7.44141 19.668 7.44141 19.4238Q7.44141 18.8867 6.93359 18.7598Q6.85547 18.7402 6.78223 18.7256Q6.70898 18.7109 6.62109 18.7109Q5.39062 18.623 4.8877 18.0322Q4.38477 17.4414 4.38477 16.084L4.38477 12.8418Q4.38477 11.6016 3.75977 10.918Q3.13477 10.2344 1.99219 10.127Q1.97266 10.127 1.97266 10.1074Q1.97266 10.0879 1.99219 10.0879Q3.13477 9.98047 3.75977 9.29688Q4.38477 8.61328 4.38477 7.37305L4.38477 4.12109Q4.38477 2.76367 4.8877 2.17773Q5.39062 1.5918 6.62109 1.50391Q6.73828 1.49414 6.83594 1.47949Q6.93359 1.46484 7.01172 1.43555Q7.44141 1.28906 7.44141 0.78125Q7.44141 0.517578 7.30957 0.34668Q7.17773 0.175781 6.93359 0.0878906Q6.72852 0.0195312 6.43555 0.0195312Q4.52148 0.0195312 3.60352 0.986328Q2.68555 1.95312 2.68555 3.92578L2.68555 6.67969Q2.68555 7.85156 2.29492 8.37891Q1.9043 8.90625 0.996094 9.04297Q0.498047 9.12109 0.249023 9.39941Q0 9.67773 0 10.0879ZM18.1836 10.0879Q18.1836 9.67773 17.9346 9.39941Q17.6855 9.12109 17.1777 9.04297Q16.2695 8.89648 15.8789 8.37402Q15.4883 7.85156 15.4883 6.67969L15.4883 3.92578Q15.4883 1.95312 14.5703 0.986328Q13.6523 0.0195312 11.7383 0.0195312Q11.4551 0.0195312 11.25 0.0878906Q10.9863 0.175781 10.8594 0.34668Q10.7324 0.517578 10.7324 0.78125Q10.7324 1.26953 11.1719 1.43555Q11.2402 1.46484 11.3379 1.47949Q11.4355 1.49414 11.5527 1.50391Q12.7832 1.5625 13.291 2.16309Q13.7988 2.76367 13.7988 4.12109L13.7988 7.37305Q13.7988 8.61328 14.4238 9.35059Q15.0488 10.0879 16.1816 10.0879Q16.2012 10.0879 16.2012 10.1074Q16.2012 10.127 16.1816 10.127Q15.0488 10.127 14.4238 10.8594Q13.7988 11.5918 13.7988 12.8418L13.7988 16.084Q13.7988 17.4414 13.291 18.0322Q12.7832 18.623 11.5527 18.7109Q11.4648 18.7109 11.3916 18.7256Q11.3184 18.7402 11.25 18.7598Q10.9863 18.8086 10.8594 18.9746Q10.7324 19.1406 10.7324 19.4238Q10.7324 19.6777 10.8594 19.8584Q10.9863 20.0391 11.2109 20.1172Q11.416 20.1855 11.6406 20.1855Q13.623 20.1855 14.5557 19.2285Q15.4883 18.2715 15.4883 16.2793L15.4883 13.5352Q15.4883 12.3535 15.8789 11.8262Q16.2695 11.2988 17.1777 11.1621Q17.6855 11.0742 17.9346 10.7959Q18.1836 10.5176 18.1836 10.0879Z" fill="#ffffff"/>
 </g>
</svg>
