<?xml version="1.0" encoding="UTF-8"?>
<!--Generator: Apple Native CoreSVG 175-->
<!DOCTYPE svg
PUBLIC "-//W3C//DTD SVG 1.1//EN"
       "http://www.w3.org/Graphics/SVG/1.1/DTD/svg11.dtd">
<svg version="1.1" xmlns="http://www.w3.org/2000/svg" xmlns:xlink="http://www.w3.org/1999/xlink" width="17.2852" height="17.3145">
 <g>
  <rect height="17.3145" opacity="0" width="17.2852" x="0" y="0"/>
  <path d="M2.62695 17.3145L14.6484 17.3145Q15.957 17.3145 16.6211 16.6455Q17.2852 15.9766 17.2852 14.6875L17.2852 2.65625Q17.2852 1.37695 16.6211 0.703125Q15.957 0.0292969 14.6484 0.0292969L2.62695 0.0292969Q1.33789 0.0292969 0.668945 0.693359Q0 1.35742 0 2.65625L0 14.6875Q0 15.9863 0.668945 16.6504Q1.33789 17.3145 2.62695 17.3145Z" fill="rgba(255,255,255,0.25)"/>
  <path d="M5.88867 13.0078Q5.71289 13.0078 5.625 12.8906Q5.53711 12.7734 5.53711 12.5781L5.53711 4.69727Q5.53711 4.51172 5.625 4.39941Q5.71289 4.28711 5.88867 4.28711L8.48633 4.28711Q10.3613 4.28711 11.4453 5.43945Q12.5293 6.5918 12.5293 8.60352Q12.5293 10.7227 11.4502 11.8652Q10.3711 13.0078 8.48633 13.0078ZM6.26953 12.3438L8.38867 12.3438Q9.93164 12.3438 10.8301 11.4062Q11.7285 10.4688 11.7285 8.62305Q11.7285 6.875 10.8252 5.90332Q9.92188 4.93164 8.38867 4.93164L6.26953 4.93164Z" fill="#ffffff"/>
 </g>
</svg>
