<?xml version="1.0" encoding="UTF-8"?>
<!--Generator: Apple Native CoreSVG 175.5-->
<!DOCTYPE svg
PUBLIC "-//W3C//DTD SVG 1.1//EN"
       "http://www.w3.org/Graphics/SVG/1.1/DTD/svg11.dtd">
<svg version="1.1" xmlns="http://www.w3.org/2000/svg" xmlns:xlink="http://www.w3.org/1999/xlink" width="17.9785" height="17.998">
 <g>
  <rect height="17.998" opacity="0" width="17.9785" x="0" y="0"/>
  <path d="M3.06641 17.998L14.9121 17.998Q16.4453 17.998 17.2119 17.2412Q17.9785 16.4844 17.9785 14.9707L17.9785 3.04688Q17.9785 1.5332 17.2119 0.776367Q16.4453 0.0195312 14.9121 0.0195312L3.06641 0.0195312Q1.5332 0.0195312 0.766602 0.776367Q0 1.5332 0 3.04688L0 14.9707Q0 16.4844 0.766602 17.2412Q1.5332 17.998 3.06641 17.998Z" fill="rgba(255,255,255,0.25)"/>
  <path d="M6.35742 13.4863Q5.9668 13.4863 5.7666 13.2373Q5.56641 12.9883 5.56641 12.5781L5.56641 5.22461Q5.56641 4.81445 5.7666 4.56543Q5.9668 4.31641 6.35742 4.31641L8.93555 4.31641Q11.0938 4.31641 12.251 5.49805Q13.4082 6.67969 13.4082 8.87695Q13.4082 11.1133 12.2412 12.2998Q11.0742 13.4863 8.93555 13.4863ZM7.12891 12.2363L8.75 12.2363Q10.2344 12.2363 11.0107 11.4014Q11.7871 10.5664 11.7871 8.90625Q11.7871 7.27539 11.0059 6.4209Q10.2246 5.56641 8.75 5.56641L7.12891 5.56641Z" fill="#ffffff"/>
 </g>
</svg>
