<?xml version="1.0" encoding="UTF-8"?>
<!--Generator: Apple Native CoreSVG 175.5-->
<!DOCTYPE svg
PUBLIC "-//W3C//DTD SVG 1.1//EN"
       "http://www.w3.org/Graphics/SVG/1.1/DTD/svg11.dtd">
<svg version="1.1" xmlns="http://www.w3.org/2000/svg" xmlns:xlink="http://www.w3.org/1999/xlink" width="22.6465" height="16.8848">
 <g>
  <rect height="16.8848" opacity="0" width="22.6465" x="0" y="0"/>
  <path d="M13.0762 1.47461Q13.3789 1.47461 13.5938 1.25977Q13.8086 1.04492 13.8086 0.732422Q13.8086 0.429688 13.5938 0.214844Q13.3789 0 13.0762 0L0.742188 0Q0.439453 0 0.219727 0.214844Q0 0.429688 0 0.732422Q0 1.04492 0.219727 1.25977Q0.439453 1.47461 0.742188 1.47461ZM13.0762 6.5918Q13.3789 6.5918 13.5938 6.37695Q13.8086 6.16211 13.8086 5.84961Q13.8086 5.53711 13.5938 5.32715Q13.3789 5.11719 13.0762 5.11719L0.742188 5.11719Q0.439453 5.11719 0.219727 5.32715Q0 5.53711 0 5.84961Q0 6.16211 0.219727 6.37695Q0.439453 6.5918 0.742188 6.5918ZM13.0762 11.709Q13.3789 11.709 13.5938 11.4941Q13.8086 11.2793 13.8086 10.9668Q13.8086 10.6543 13.5938 10.4443Q13.3789 10.2344 13.0762 10.2344L0.742188 10.2344Q0.439453 10.2344 0.219727 10.4443Q0 10.6543 0 10.9668Q0 11.2793 0.219727 11.4941Q0.439453 11.709 0.742188 11.709ZM8.08594 16.8164Q8.39844 16.8164 8.6084 16.6064Q8.81836 16.3965 8.81836 16.084Q8.81836 15.7715 8.6084 15.5566Q8.39844 15.3418 8.08594 15.3418L0.742188 15.3418Q0.439453 15.3418 0.219727 15.5566Q0 15.7715 0 16.084Q0 16.3965 0.219727 16.6064Q0.439453 16.8164 0.742188 16.8164Z" fill="rgba(255,255,255,0.5)"/>
  <path d="M21.123 11.4062Q21.4746 11.6406 21.8311 11.6406Q22.1875 11.6406 22.417 11.4111Q22.6465 11.1816 22.6465 10.7422L22.6465 6.11328Q22.6465 5.43945 22.1631 5.24902Q21.6797 5.05859 21.123 5.43945L17.8906 7.63672Q17.6074 7.83203 17.5098 8.13477Q17.4121 8.4375 17.5049 8.74512Q17.5977 9.05273 17.8906 9.24805Z" fill="#ffffff"/>
 </g>
</svg>
