<?xml version="1.0" encoding="UTF-8"?>
<!--Generator: Apple Native CoreSVG 175.5-->
<!DOCTYPE svg
PUBLIC "-//W3C//DTD SVG 1.1//EN"
       "http://www.w3.org/Graphics/SVG/1.1/DTD/svg11.dtd">
<svg version="1.1" xmlns="http://www.w3.org/2000/svg" xmlns:xlink="http://www.w3.org/1999/xlink" width="21.1621" height="17.998">
 <g>
  <rect height="17.998" opacity="0" width="21.1621" x="0" y="0"/>
  <path d="M3.06641 17.998L11.543 17.9883Q12.1191 17.9883 12.6367 17.8662Q13.1543 17.7441 13.6133 17.4805Q14.0723 17.2168 14.4727 16.7969L20.2344 10.8496Q20.7227 10.3516 20.9424 9.89746Q21.1621 9.44336 21.1621 8.99414Q21.1621 8.68164 21.0645 8.38379Q20.9668 8.08594 20.7617 7.77344Q20.5566 7.46094 20.2344 7.13867L14.4824 1.16211Q14.082 0.742188 13.623 0.488281Q13.1641 0.234375 12.6465 0.126953Q12.1289 0.0195312 11.5527 0.0195312L3.06641 0.0195312Q1.54297 0.0195312 0.771484 0.776367Q0 1.5332 0 3.04688L0 14.9707Q0 16.4844 0.771484 17.2412Q1.54297 17.998 3.06641 17.998Z" fill="rgba(255,255,255,0.25)"/>
  <path d="M5.52734 13.1055Q5.19531 13.1055 4.96094 12.8662Q4.72656 12.627 4.72656 12.2949Q4.72656 11.9629 4.96094 11.7285L7.67578 9.01367L4.96094 6.30859Q4.72656 6.06445 4.72656 5.74219Q4.72656 5.40039 4.96094 5.1709Q5.19531 4.94141 5.52734 4.94141Q5.84961 4.94141 6.09375 5.16602L8.81836 7.88086L11.5625 5.15625Q11.7969 4.92188 12.1191 4.92188Q12.4512 4.92188 12.6855 5.15625Q12.9199 5.39062 12.9199 5.72266Q12.9199 6.05469 12.6855 6.29883L9.96094 9.01367L12.6758 11.7188Q12.9102 11.9336 12.9102 12.2949Q12.9102 12.627 12.6758 12.8662Q12.4414 13.1055 12.0996 13.1055Q11.748 13.1055 11.5234 12.8711L8.81836 10.1562L6.12305 12.8711Q5.87891 13.1055 5.52734 13.1055Z" fill="#ffffff"/>
 </g>
</svg>
