<?xml version="1.0" encoding="UTF-8"?>
<!--Generator: Apple Native CoreSVG 175-->
<!DOCTYPE svg
PUBLIC "-//W3C//DTD SVG 1.1//EN"
       "http://www.w3.org/Graphics/SVG/1.1/DTD/svg11.dtd">
<svg version="1.1" xmlns="http://www.w3.org/2000/svg" xmlns:xlink="http://www.w3.org/1999/xlink" width="22.1211" height="19.0256">
 <g>
  <rect height="19.0256" opacity="0" width="22.1211" x="0" y="0"/>
  <path d="M1.24695 12.1028Q0.728607 12.1028 0.728607 11.5775L0.728607 1.92551Q0.728607 1.63559 0.904922 1.46065Q1.08124 1.28571 1.37543 1.28571L20.7457 1.28571Q21.0469 1.28571 21.2233 1.46065Q21.3997 1.63559 21.3997 1.92551L21.3997 11.5775Q21.3997 12.1028 20.8714 12.1028Z" fill="rgba(255,255,255,0.25)"/>
  <path d="M1.33911 15.8611L20.7793 15.8611Q21.398 15.8611 21.7596 15.496Q22.1211 15.1309 22.1211 14.5192L22.1211 1.90323Q22.1211 1.28448 21.7596 0.920792Q21.398 0.557098 20.7793 0.557098L1.33911 0.557098Q0.730133 0.557098 0.365067 0.920792Q0 1.28448 0 1.90323L0 14.5192Q0 15.1309 0.365067 15.496Q0.730133 15.8611 1.33911 15.8611ZM1.24695 12.1028Q0.728607 12.1028 0.728607 11.5775L0.728607 1.92551Q0.728607 1.63559 0.904922 1.46065Q1.08124 1.28571 1.37543 1.28571L20.7457 1.28571Q21.0469 1.28571 21.2233 1.46065Q21.3997 1.63559 21.3997 1.92551L21.3997 11.5775Q21.3997 12.1028 20.8714 12.1028ZM8.19611 18.4946L13.925 18.4946L13.925 15.7341L8.19611 15.7341ZM7.98981 19.0256L14.1383 19.0256Q14.2918 19.0256 14.3983 18.9226Q14.5047 18.8196 14.5047 18.6563Q14.5047 18.5001 14.3983 18.3971Q14.2918 18.2942 14.1383 18.2942L7.98981 18.2942Q7.82928 18.2942 7.72148 18.3971Q7.61368 18.5001 7.61368 18.6563Q7.61368 18.8196 7.72148 18.9226Q7.82928 19.0256 7.98981 19.0256Z" fill="#ffffff"/>
 </g>
</svg>
