<?xml version="1.0" encoding="UTF-8"?>
<!--Generator: Apple Native CoreSVG 175.5-->
<!DOCTYPE svg
PUBLIC "-//W3C//DTD SVG 1.1//EN"
       "http://www.w3.org/Graphics/SVG/1.1/DTD/svg11.dtd">
<svg version="1.1" xmlns="http://www.w3.org/2000/svg" xmlns:xlink="http://www.w3.org/1999/xlink" width="23.2812" height="20.3613">
 <g>
  <rect height="20.3613" opacity="0" width="23.2812" x="0" y="0"/>
  <path d="M1.99219 12.5879Q1.57227 12.5879 1.57227 12.168L1.57227 2.95898Q1.57227 2.62695 1.7627 2.44141Q1.95312 2.25586 2.27539 2.25586L21.0059 2.25586Q21.3281 2.25586 21.5186 2.44141Q21.709 2.62695 21.709 2.95898L21.709 12.168Q21.709 12.5879 21.2793 12.5879Z" fill="rgba(255,255,255,0.25)"/>
  <path d="M2.24609 16.8945L21.0254 16.8945Q22.0801 16.8945 22.6807 16.2939Q23.2812 15.6934 23.2812 14.6387L23.2812 2.92969Q23.2812 1.875 22.6807 1.2793Q22.0801 0.683594 21.0254 0.683594L2.24609 0.683594Q1.20117 0.683594 0.600586 1.2793Q0 1.875 0 2.92969L0 14.6387Q0 15.6934 0.600586 16.2939Q1.20117 16.8945 2.24609 16.8945ZM1.99219 12.5879Q1.57227 12.5879 1.57227 12.168L1.57227 2.95898Q1.57227 2.62695 1.7627 2.44141Q1.95312 2.25586 2.27539 2.25586L21.0059 2.25586Q21.3281 2.25586 21.5186 2.44141Q21.709 2.62695 21.709 2.95898L21.709 12.168Q21.709 12.5879 21.2793 12.5879ZM8.55469 19.2188L14.7266 19.2188L14.7266 16.7676L8.55469 16.7676ZM8.49609 20.3613L14.7852 20.3613Q15.1074 20.3613 15.3369 20.1318Q15.5664 19.9023 15.5664 19.5703Q15.5664 19.2383 15.3369 19.0088Q15.1074 18.7793 14.7852 18.7793L8.49609 18.7793Q8.17383 18.7793 7.93945 19.0088Q7.70508 19.2383 7.70508 19.5703Q7.70508 19.9023 7.93945 20.1318Q8.17383 20.3613 8.49609 20.3613Z" fill="#ffffff"/>
 </g>
</svg>
