<?xml version="1.0" encoding="UTF-8"?>
<!--Generator: Apple Native CoreSVG 175.5-->
<!DOCTYPE svg
PUBLIC "-//W3C//DTD SVG 1.1//EN"
       "http://www.w3.org/Graphics/SVG/1.1/DTD/svg11.dtd">
<svg version="1.1" xmlns="http://www.w3.org/2000/svg" xmlns:xlink="http://www.w3.org/1999/xlink" width="23.5547" height="21.9629">
 <g>
  <rect height="21.9629" opacity="0" width="23.5547" x="0" y="0"/>
  <path d="M11.7773 18.877Q13.2422 18.877 14.5312 18.3252Q15.8203 17.7734 16.7969 16.7969Q17.7734 15.8203 18.3252 14.5361Q18.877 13.252 18.877 11.7676Q18.877 10.293 18.3252 9.00879Q17.7734 7.72461 16.7969 6.74805Q15.8203 5.77148 14.5312 5.22461Q13.2422 4.67773 11.7773 4.67773Q10.3125 4.67773 9.02344 5.22461Q7.73438 5.77148 6.75781 6.74805Q5.78125 7.72461 5.22461 9.00879Q4.66797 10.293 4.66797 11.7676Q4.66797 13.2422 5.22461 14.5312Q5.78125 15.8203 6.75781 16.7969Q7.73438 17.7734 9.02344 18.3252Q10.3125 18.877 11.7773 18.877ZM11.7773 6.25977Q12.9199 6.25977 13.9209 6.68945Q14.9219 7.11914 15.6787 7.87598Q16.4355 8.63281 16.8652 9.63379Q17.2949 10.6348 17.2949 11.7676Q17.2949 12.9102 16.8652 13.9111Q16.4355 14.9121 15.6787 15.6689Q14.9219 16.4258 13.9209 16.8555Q12.9199 17.2852 11.7773 17.2852Q10.6348 17.2852 9.63379 16.8555Q8.63281 16.4258 7.87109 15.6689Q7.10938 14.9121 6.67969 13.9111Q6.25 12.9102 6.25 11.7676Q6.25 10.6348 6.67969 9.63379Q7.10938 8.63281 7.87109 7.87598Q8.63281 7.11914 9.63379 6.68945Q10.6348 6.25977 11.7773 6.25977ZM15.293 16.1816L16.3086 15.1367L12.2559 11.0938Q12.0508 10.8887 11.7432 10.8887Q11.4355 10.8887 11.2402 11.0938Q11.0254 11.3281 11.0254 11.6162Q11.0254 11.9043 11.2402 12.1289Z" fill="#ffffff"/>
  <path d="M19.2676 20.4199Q19.7656 20.4199 20.1221 20.0684Q20.4785 19.7168 20.4785 19.209Q20.4785 18.7109 20.127 18.3545Q19.7754 17.998 19.2676 17.998Q18.7598 17.998 18.4033 18.3496Q18.0469 18.7012 18.0469 19.209Q18.0469 19.7168 18.3984 20.0684Q18.75 20.4199 19.2676 20.4199ZM22.334 12.9883Q22.832 12.9883 23.1934 12.6318Q23.5547 12.2754 23.5547 11.7676Q23.5547 11.2695 23.1982 10.9131Q22.8418 10.5566 22.334 10.5566Q21.8359 10.5566 21.4746 10.9082Q21.1133 11.2598 21.1133 11.7676Q21.1133 12.2656 21.4648 12.627Q21.8164 12.9883 22.334 12.9883ZM19.2676 5.55664Q19.7656 5.55664 20.1221 5.20508Q20.4785 4.85352 20.4785 4.3457Q20.4785 3.83789 20.127 3.48633Q19.7754 3.13477 19.2676 3.13477Q18.7598 3.13477 18.4033 3.48633Q18.0469 3.83789 18.0469 4.3457Q18.0469 4.84375 18.3984 5.2002Q18.75 5.55664 19.2676 5.55664ZM11.7773 2.43164Q12.2754 2.43164 12.6318 2.0752Q12.9883 1.71875 12.9883 1.21094Q12.9883 0.712891 12.6367 0.356445Q12.2852 0 11.7773 0Q11.2793 0 10.9229 0.351562Q10.5664 0.703125 10.5664 1.21094Q10.5664 1.71875 10.918 2.0752Q11.2695 2.43164 11.7773 2.43164ZM4.29688 5.53711Q4.79492 5.53711 5.15137 5.18555Q5.50781 4.83398 5.50781 4.32617Q5.50781 3.81836 5.15625 3.4668Q4.80469 3.11523 4.29688 3.11523Q3.79883 3.11523 3.44238 3.4668Q3.08594 3.81836 3.08594 4.32617Q3.08594 4.82422 3.4375 5.18066Q3.78906 5.53711 4.29688 5.53711ZM1.2207 12.9883Q1.71875 12.9883 2.0752 12.6318Q2.43164 12.2754 2.43164 11.7676Q2.43164 11.2695 2.08008 10.9131Q1.72852 10.5566 1.2207 10.5566Q0.722656 10.5566 0.361328 10.9082Q0 11.2598 0 11.7676Q0 12.2656 0.356445 12.627Q0.712891 12.9883 1.2207 12.9883ZM4.30664 20.4297Q4.80469 20.4297 5.16113 20.0781Q5.51758 19.7266 5.51758 19.2188Q5.51758 18.7207 5.16602 18.3643Q4.81445 18.0078 4.30664 18.0078Q3.80859 18.0078 3.45215 18.3594Q3.0957 18.7109 3.0957 19.2188Q3.0957 19.7266 3.44727 20.0781Q3.79883 20.4297 4.30664 20.4297Z" fill="rgba(255,255,255,0.5)"/>
 </g>
</svg>
