<?xml version="1.0" encoding="UTF-8"?>
<!--Generator: Apple Native CoreSVG 175-->
<!DOCTYPE svg
PUBLIC "-//W3C//DTD SVG 1.1//EN"
       "http://www.w3.org/Graphics/SVG/1.1/DTD/svg11.dtd">
<svg version="1.1" xmlns="http://www.w3.org/2000/svg" xmlns:xlink="http://www.w3.org/1999/xlink" width="19.1602" height="19.1504">
 <g>
  <rect height="19.1504" opacity="0" width="19.1602" x="0" y="0"/>
  <path d="M9.57031 19.1406Q11.5527 19.1406 13.2861 18.3984Q15.0195 17.6562 16.3379 16.333Q17.6562 15.0098 18.4082 13.2764Q19.1602 11.543 19.1602 9.57031Q19.1602 7.59766 18.4082 5.86426Q17.6562 4.13086 16.3379 2.80762Q15.0195 1.48438 13.2861 0.742188Q11.5527 0 9.57031 0Q7.59766 0 5.86426 0.742188Q4.13086 1.48438 2.81738 2.80762Q1.50391 4.13086 0.751953 5.86426Q0 7.59766 0 9.57031Q0 11.543 0.74707 13.2764Q1.49414 15.0098 2.8125 16.333Q4.13086 17.6562 5.86914 18.3984Q7.60742 19.1406 9.57031 19.1406Z" fill="rgba(255,255,255,0.25)"/>
  <path d="M4.61914 10.293Q4.22852 9.91211 4.22363 9.57031Q4.21875 9.22852 4.60938 8.84766L8.84766 4.59961Q9.23828 4.20898 9.58496 4.20898Q9.93164 4.20898 10.3125 4.59961L14.5508 8.84766Q14.9316 9.22852 14.9365 9.57031Q14.9414 9.91211 14.5605 10.3027L10.3125 14.541Q9.92188 14.9414 9.58008 14.9365Q9.23828 14.9316 8.84766 14.5508Z" fill="#ffffff"/>
 </g>
</svg>
