<?xml version="1.0" encoding="UTF-8"?>
<!--Generator: Apple Native CoreSVG 175-->
<!DOCTYPE svg
PUBLIC "-//W3C//DTD SVG 1.1//EN"
       "http://www.w3.org/Graphics/SVG/1.1/DTD/svg11.dtd">
<svg version="1.1" xmlns="http://www.w3.org/2000/svg" xmlns:xlink="http://www.w3.org/1999/xlink" width="19.8242" height="19.0332">
 <g>
  <rect height="19.0332" opacity="0" width="19.8242" x="0" y="0"/>
  <path d="M2.62695 15.1172L5 15.1172L5 14.4043L2.65625 14.4043Q1.70898 14.4043 1.2207 13.9111Q0.732422 13.418 0.732422 12.4609L0.732422 2.70508Q0.732422 1.73828 1.2207 1.25Q1.70898 0.761719 2.65625 0.761719L12.4316 0.761719Q13.3496 0.761719 13.8525 1.25Q14.3555 1.73828 14.3555 2.70508L14.3555 4.25781L15.0879 4.25781L15.0879 2.66602Q15.0879 1.38672 14.4189 0.712891Q13.75 0.0390625 12.4512 0.0390625L2.62695 0.0390625Q1.33789 0.0390625 0.668945 0.708008Q0 1.37695 0 2.66602L0 12.5Q0 13.7891 0.668945 14.4531Q1.33789 15.1172 2.62695 15.1172Z" fill="rgba(255,255,255,0.5)"/>
  <path d="M7.37305 19.0332L17.1973 19.0332Q18.4863 19.0332 19.1553 18.3545Q19.8242 17.6758 19.8242 16.4062L19.8242 6.57227Q19.8242 5.29297 19.1553 4.61914Q18.4863 3.94531 17.1973 3.94531L7.37305 3.94531Q6.07422 3.94531 5.40527 4.60938Q4.73633 5.27344 4.73633 6.57227L4.73633 16.4062Q4.73633 17.6953 5.40527 18.3643Q6.07422 19.0332 7.37305 19.0332ZM7.39258 18.3008Q6.44531 18.3008 5.95703 17.8125Q5.46875 17.3242 5.46875 16.3672L5.46875 6.61133Q5.46875 5.6543 5.95703 5.16113Q6.44531 4.66797 7.39258 4.66797L17.168 4.66797Q18.0859 4.66797 18.5889 5.16113Q19.0918 5.6543 19.0918 6.61133L19.0918 16.3672Q19.0918 17.3242 18.5889 17.8125Q18.0859 18.3008 17.168 18.3008ZM8.20312 8.67188Q8.7207 8.68164 9.10645 8.30566Q9.49219 7.92969 9.49219 7.38281Q9.49219 6.85547 9.10645 6.47949Q8.7207 6.10352 8.20312 6.10352Q7.67578 6.10352 7.2998 6.47949Q6.92383 6.85547 6.92383 7.38281Q6.92383 7.92969 7.2998 8.2959Q7.67578 8.66211 8.20312 8.67188ZM16.377 8.67188Q16.9043 8.68164 17.2754 8.30566Q17.6465 7.92969 17.6465 7.38281Q17.6465 6.85547 17.2754 6.47949Q16.9043 6.10352 16.377 6.10352Q15.8496 6.10352 15.4688 6.47949Q15.0879 6.85547 15.0879 7.38281Q15.0879 7.92969 15.4688 8.2959Q15.8496 8.66211 16.377 8.67188ZM12.2852 12.793Q12.8125 12.793 13.1934 12.4121Q13.5742 12.0312 13.5742 11.4844Q13.5742 10.957 13.1934 10.5859Q12.8125 10.2148 12.2852 10.2148Q11.7578 10.2148 11.3867 10.5859Q11.0156 10.957 11.0156 11.4844Q11.0156 12.0312 11.3867 12.4121Q11.7578 12.793 12.2852 12.793ZM8.20312 16.875Q8.7207 16.875 9.10156 16.4941Q9.48242 16.1133 9.48242 15.5859Q9.48242 15.0488 9.10156 14.6777Q8.7207 14.3066 8.20312 14.3066Q7.67578 14.3066 7.2998 14.6777Q6.92383 15.0488 6.92383 15.5859Q6.92383 16.1133 7.2998 16.4941Q7.67578 16.875 8.20312 16.875ZM16.377 16.875Q16.9043 16.875 17.2754 16.4941Q17.6465 16.1133 17.6465 15.5859Q17.6465 15.0488 17.2754 14.6777Q16.9043 14.3066 16.377 14.3066Q15.8496 14.3066 15.4688 14.6777Q15.0879 15.0488 15.0879 15.5859Q15.0879 16.1133 15.4688 16.4941Q15.8496 16.875 16.377 16.875Z" fill="#ffffff"/>
 </g>
</svg>
