<?xml version="1.0" encoding="UTF-8"?>
<!--Generator: Apple Native CoreSVG 175.5-->
<!DOCTYPE svg
PUBLIC "-//W3C//DTD SVG 1.1//EN"
       "http://www.w3.org/Graphics/SVG/1.1/DTD/svg11.dtd">
<svg version="1.1" xmlns="http://www.w3.org/2000/svg" xmlns:xlink="http://www.w3.org/1999/xlink" width="17.9785" height="17.998">
 <g>
  <rect height="17.998" opacity="0" width="17.9785" x="0" y="0"/>
  <path d="M3.06641 17.998L14.9121 17.998Q16.4453 17.998 17.2119 17.2412Q17.9785 16.4844 17.9785 14.9707L17.9785 3.04688Q17.9785 1.5332 17.2119 0.776367Q16.4453 0.0195312 14.9121 0.0195312L3.06641 0.0195312Q1.5332 0.0195312 0.766602 0.776367Q0 1.5332 0 3.04688L0 14.9707Q0 16.4844 0.766602 17.2412Q1.5332 17.998 3.06641 17.998Z" fill="rgba(255,255,255,0.25)"/>
  <path d="M13.5254 6.11328Q12.8418 6.10352 12.3535 5.62988Q11.8652 5.15625 11.8652 4.46289Q11.8652 3.78906 12.3535 3.31543Q12.8418 2.8418 13.5254 2.8418Q14.1895 2.8418 14.6729 3.31543Q15.1562 3.78906 15.1562 4.46289Q15.1562 5.15625 14.6729 5.63965Q14.1895 6.12305 13.5254 6.11328ZM8.99414 10.6445Q8.31055 10.6445 7.83691 10.1611Q7.36328 9.67773 7.36328 8.99414Q7.36328 8.32031 7.83691 7.84668Q8.31055 7.37305 8.99414 7.37305Q9.6582 7.37305 10.1416 7.84668Q10.625 8.32031 10.625 8.99414Q10.625 9.67773 10.1416 10.1611Q9.6582 10.6445 8.99414 10.6445ZM4.47266 15.1758Q3.79883 15.1758 3.32031 14.6973Q2.8418 14.2188 2.8418 13.5352Q2.8418 12.8613 3.32031 12.3828Q3.79883 11.9043 4.47266 11.9043Q5.14648 11.9043 5.625 12.3828Q6.10352 12.8613 6.10352 13.5352Q6.10352 14.2188 5.625 14.6973Q5.14648 15.1758 4.47266 15.1758Z" fill="#ffffff"/>
 </g>
</svg>
