<?xml version="1.0" encoding="UTF-8"?>
<!--Generator: Apple Native CoreSVG 175.5-->
<!DOCTYPE svg
PUBLIC "-//W3C//DTD SVG 1.1//EN"
       "http://www.w3.org/Graphics/SVG/1.1/DTD/svg11.dtd">
<svg version="1.1" xmlns="http://www.w3.org/2000/svg" xmlns:xlink="http://www.w3.org/1999/xlink" width="16.1133" height="14.4434">
 <g>
  <rect height="14.4434" opacity="0" width="16.1133" x="0" y="0"/>
  <path d="M8.05664 2.95898Q8.66211 2.95898 9.08203 2.53418Q9.50195 2.10938 9.50195 1.52344Q9.50195 0.917969 9.08203 0.498047Q8.66211 0.078125 8.05664 0.078125Q7.46094 0.078125 7.04102 0.498047Q6.62109 0.917969 6.62109 1.52344Q6.62109 2.10938 7.04102 2.53418Q7.46094 2.95898 8.05664 2.95898ZM8.05664 14.4434Q8.66211 14.4434 9.08203 14.0186Q9.50195 13.5938 9.50195 12.998Q9.50195 12.4023 9.08203 11.9824Q8.66211 11.5625 8.05664 11.5625Q7.46094 11.5625 7.04102 11.9824Q6.62109 12.4023 6.62109 12.998Q6.62109 13.5938 7.04102 14.0186Q7.46094 14.4434 8.05664 14.4434ZM0.869141 8.10547L15.2441 8.10547Q15.4785 8.10547 15.6787 7.98828Q15.8789 7.87109 15.9961 7.6709Q16.1133 7.4707 16.1133 7.22656Q16.1133 6.99219 15.9961 6.79199Q15.8789 6.5918 15.6787 6.47461Q15.4785 6.35742 15.2441 6.35742L0.869141 6.35742Q0.634766 6.35742 0.439453 6.47461Q0.244141 6.5918 0.12207 6.79199Q0 6.99219 0 7.22656Q0 7.4707 0.12207 7.6709Q0.244141 7.87109 0.439453 7.98828Q0.634766 8.10547 0.869141 8.10547Z" fill="#ffffff"/>
 </g>
</svg>
