<?xml version="1.0" encoding="UTF-8"?>
<!--Generator: Apple Native CoreSVG 175.5-->
<!DOCTYPE svg
PUBLIC "-//W3C//DTD SVG 1.1//EN"
       "http://www.w3.org/Graphics/SVG/1.1/DTD/svg11.dtd">
<svg version="1.1" xmlns="http://www.w3.org/2000/svg" xmlns:xlink="http://www.w3.org/1999/xlink" width="18.1348" height="23.8184">
 <g>
  <rect height="23.8184" opacity="0" width="18.1348" x="0" y="0"/>
  <path d="M3.02734 22.0117L8.37891 22.0117Q7.99805 21.6797 7.67578 21.2842Q7.35352 20.8887 7.10938 20.4395L3.11523 20.4395Q2.35352 20.4395 1.96289 20.0586Q1.57227 19.6777 1.57227 18.9453L1.57227 4.16016Q1.57227 3.4375 1.96289 3.04199Q2.35352 2.64648 3.11523 2.64648L13.3203 2.64648Q14.0527 2.64648 14.4531 3.04199Q14.8535 3.4375 14.8535 4.16016L14.8535 12.6855Q15.3027 12.9199 15.6982 13.2471Q16.0938 13.5742 16.4258 13.9551L16.4258 4.14062Q16.4258 2.60742 15.6689 1.84082Q14.9121 1.07422 13.3984 1.07422L3.02734 1.07422Q1.52344 1.07422 0.761719 1.8457Q0 2.61719 0 4.14062L0 18.9453Q0 20.4785 0.756836 21.2451Q1.51367 22.0117 3.02734 22.0117ZM4.52148 6.63086L11.9238 6.63086Q12.1777 6.63086 12.3535 6.4502Q12.5293 6.26953 12.5293 6.01562Q12.5293 5.77148 12.3535 5.60059Q12.1777 5.42969 11.9238 5.42969L4.52148 5.42969Q4.24805 5.42969 4.07715 5.60059Q3.90625 5.77148 3.90625 6.01562Q3.90625 6.26953 4.07715 6.4502Q4.24805 6.63086 4.52148 6.63086ZM4.52148 10.0293L11.9238 10.0293Q12.1777 10.0293 12.3535 9.85352Q12.5293 9.67773 12.5293 9.42383Q12.5293 9.16992 12.3535 8.99902Q12.1777 8.82812 11.9238 8.82812L4.52148 8.82812Q4.24805 8.82812 4.07715 8.99902Q3.90625 9.16992 3.90625 9.42383Q3.90625 9.67773 4.07715 9.85352Q4.24805 10.0293 4.52148 10.0293Z" fill="rgba(255,255,255,0.5)"/>
  <path d="M12.041 22.0117Q13.252 22.0117 14.248 21.4209Q15.2441 20.8301 15.835 19.834Q16.4258 18.8379 16.4258 17.627Q16.4258 16.4062 15.835 15.4102Q15.2441 14.4141 14.248 13.8184Q13.252 13.2227 12.041 13.2227Q10.8301 13.2227 9.83398 13.8184Q8.83789 14.4141 8.2373 15.415Q7.63672 16.416 7.63672 17.627Q7.63672 18.8379 8.2373 19.834Q8.83789 20.8301 9.83398 21.4209Q10.8301 22.0117 12.041 22.0117ZM12.041 20.6152Q11.2109 20.6152 10.5322 20.21Q9.85352 19.8047 9.44336 19.126Q9.0332 18.4473 9.0332 17.627Q9.0332 16.8066 9.44336 16.1279Q9.85352 15.4492 10.5322 15.0391Q11.2109 14.6289 12.041 14.6289Q12.8516 14.6289 13.5303 15.0391Q14.209 15.4492 14.6143 16.1279Q15.0195 16.8066 15.0195 17.627Q15.0195 18.4473 14.6143 19.126Q14.209 19.8047 13.5352 20.21Q12.8613 20.6152 12.041 20.6152ZM17.3438 23.8184Q17.6855 23.8184 17.9102 23.5791Q18.1348 23.3398 18.1348 22.9688Q18.1348 22.8125 18.0615 22.6514Q17.9883 22.4902 17.8613 22.373L15.127 19.6289L13.8867 20.7422L16.6309 23.4961Q16.9531 23.8184 17.3438 23.8184Z" fill="#ffffff"/>
 </g>
</svg>
