<?xml version="1.0" encoding="UTF-8"?>
<!--Generator: Apple Native CoreSVG 175.5-->
<!DOCTYPE svg
PUBLIC "-//W3C//DTD SVG 1.1//EN"
       "http://www.w3.org/Graphics/SVG/1.1/DTD/svg11.dtd">
<svg version="1.1" xmlns="http://www.w3.org/2000/svg" xmlns:xlink="http://www.w3.org/1999/xlink" width="16.4258" height="20.9473">
 <g>
  <rect height="20.9473" opacity="0" width="16.4258" x="0" y="0"/>
  <path d="M4.38477 13.2617Q4.10156 13.2617 3.91113 13.0811Q3.7207 12.9004 3.7207 12.627Q3.7207 12.3535 3.91113 12.168Q4.10156 11.9824 4.38477 11.9824L12.0703 11.9824Q12.3438 11.9824 12.5342 12.168Q12.7246 12.3535 12.7246 12.627Q12.7246 12.9004 12.5342 13.0811Q12.3438 13.2617 12.0703 13.2617ZM4.38477 16.9629Q4.10156 16.9629 3.91113 16.7773Q3.7207 16.5918 3.7207 16.3281Q3.7207 16.0547 3.91113 15.8691Q4.10156 15.6836 4.38477 15.6836L12.0703 15.6836Q12.3438 15.6836 12.5342 15.8691Q12.7246 16.0547 12.7246 16.3281Q12.7246 16.5918 12.5342 16.7773Q12.3438 16.9629 12.0703 16.9629ZM3.02734 20.9375L13.3984 20.9375Q14.9121 20.9375 15.6689 20.1709Q16.4258 19.4043 16.4258 17.8809L16.4258 9.01367L9.35547 9.01367Q7.50977 9.01367 7.50977 7.16797L7.50977 0L3.02734 0Q1.51367 0 0.756836 0.771484Q0 1.54297 0 3.06641L0 17.8809Q0 19.4141 0.756836 20.1758Q1.51367 20.9375 3.02734 20.9375ZM9.38477 7.67578L16.3086 7.67578Q16.2598 7.37305 16.0547 7.07031Q15.8496 6.76758 15.498 6.40625L10.1172 0.927734Q9.77539 0.576172 9.46289 0.366211Q9.15039 0.15625 8.84766 0.107422L8.84766 7.14844Q8.84766 7.67578 9.38477 7.67578Z" fill="#ffffff"/>
 </g>
</svg>
