<?xml version="1.0" encoding="UTF-8"?>
<!--Generator: Apple Native CoreSVG 175.5-->
<!DOCTYPE svg
PUBLIC "-//W3C//DTD SVG 1.1//EN"
       "http://www.w3.org/Graphics/SVG/1.1/DTD/svg11.dtd">
<svg version="1.1" xmlns="http://www.w3.org/2000/svg" xmlns:xlink="http://www.w3.org/1999/xlink" width="19.9219" height="19.9316">
 <g>
  <rect height="19.9316" opacity="0" width="19.9219" x="0" y="0"/>
  <path d="M9.96094 19.9219Q12.002 19.9219 13.8037 19.1406Q15.6055 18.3594 16.9824 16.9824Q18.3594 15.6055 19.1406 13.8037Q19.9219 12.002 19.9219 9.96094Q19.9219 7.91992 19.1406 6.11816Q18.3594 4.31641 16.9824 2.93945Q15.6055 1.5625 13.7988 0.78125Q11.9922 0 9.95117 0Q7.91016 0 6.1084 0.78125Q4.30664 1.5625 2.93457 2.93945Q1.5625 4.31641 0.78125 6.11816Q0 7.91992 0 9.96094Q0 12.002 0.78125 13.8037Q1.5625 15.6055 2.93945 16.9824Q4.31641 18.3594 6.11816 19.1406Q7.91992 19.9219 9.96094 19.9219Z" fill="rgba(255,255,255,0.25)"/>
  <path d="M6.35742 10.3223Q6.35742 9.39453 6.72852 8.68652Q7.09961 7.97852 7.74902 7.58301Q8.39844 7.1875 9.22852 7.1875Q9.84375 7.1875 10.3516 7.41699Q10.8594 7.64648 11.1914 8.04688L11.1914 6.44531L9.35547 6.44531Q9.15039 6.44531 9.01855 6.30859Q8.88672 6.17188 8.88672 5.9668Q8.88672 5.76172 9.01855 5.62012Q9.15039 5.47852 9.35547 5.47852L11.1914 5.47852L11.1914 5.00977Q11.1914 4.70703 11.3672 4.53613Q11.543 4.36523 11.8262 4.36523Q12.0996 4.36523 12.2754 4.53613Q12.4512 4.70703 12.4512 5.00977L12.4512 5.47852L13.0957 5.47852Q13.3105 5.47852 13.4424 5.62012Q13.5742 5.76172 13.5742 5.9668Q13.5742 6.17188 13.4375 6.30859Q13.3008 6.44531 13.0957 6.44531L12.4512 6.44531L12.4512 12.959Q12.4512 13.2324 12.2852 13.4033Q12.1191 13.5742 11.8555 13.5742Q11.582 13.5742 11.4111 13.4033Q11.2402 13.2324 11.2402 12.959L11.2402 12.5586Q10.5273 13.457 9.23828 13.457Q8.4082 13.457 7.75879 13.0566Q7.10938 12.6562 6.7334 11.9482Q6.35742 11.2402 6.35742 10.3223ZM7.65625 10.332Q7.65625 11.2207 8.1543 11.7627Q8.65234 12.3047 9.44336 12.3047Q10.2148 12.3047 10.7178 11.7432Q11.2207 11.1816 11.2207 10.332Q11.2207 9.47266 10.7178 8.91602Q10.2148 8.35938 9.44336 8.35938Q8.65234 8.35938 8.1543 8.89648Q7.65625 9.43359 7.65625 10.332ZM6.875 14.6094Q6.875 14.4043 7.01172 14.2627Q7.14844 14.1211 7.36328 14.1211L12.2754 14.1211Q12.4902 14.1211 12.6318 14.2578Q12.7734 14.3945 12.7734 14.6094Q12.7734 14.8145 12.627 14.9561Q12.4805 15.0977 12.2754 15.0977L7.36328 15.0977Q7.1582 15.0977 7.0166 14.9561Q6.875 14.8145 6.875 14.6094Z" fill="#ffffff"/>
 </g>
</svg>
