<?xml version="1.0" encoding="UTF-8"?>
<!--Generator: Apple Native CoreSVG 175.5-->
<!DOCTYPE svg
PUBLIC "-//W3C//DTD SVG 1.1//EN"
       "http://www.w3.org/Graphics/SVG/1.1/DTD/svg11.dtd">
<svg version="1.1" xmlns="http://www.w3.org/2000/svg" xmlns:xlink="http://www.w3.org/1999/xlink" width="23.877" height="20.7324">
 <g>
  <rect height="20.7324" opacity="0" width="23.877" x="0" y="0"/>
  <path d="M0.78125 20.7227Q1.11328 20.7227 1.34277 20.4932Q1.57227 20.2637 1.57227 19.9414L1.57227 2.08984Q1.57227 1.57227 2.07031 1.57227L21.8066 1.57227Q22.3047 1.57227 22.3047 2.08984L22.3047 19.9414Q22.3047 20.2637 22.5342 20.4932Q22.7637 20.7227 23.0859 20.7227Q23.418 20.7227 23.6475 20.4932Q23.877 20.2637 23.877 19.9414L23.877 1.99219Q23.877 1.09375 23.3154 0.546875Q22.7539 0 21.8262 0L2.04102 0Q1.12305 0 0.561523 0.546875Q0 1.09375 0 1.99219L0 19.9414Q0 20.2637 0.229492 20.4932Q0.458984 20.7227 0.78125 20.7227Z" fill="rgba(255,255,255,0.5)"/>
  <path d="M3.04688 20.3809L11.0352 20.3809Q11.3672 20.3809 11.3672 20.0488L11.3672 3.03711Q11.3672 2.70508 11.0352 2.70508L3.04688 2.70508Q2.71484 2.70508 2.71484 3.03711L2.71484 20.0488Q2.71484 20.3809 3.04688 20.3809ZM4.92188 13.0762Q4.7168 13.0762 4.58496 12.9443Q4.45312 12.8125 4.45312 12.5977L4.45312 10.8887Q4.45312 10.6738 4.58496 10.5469Q4.7168 10.4199 4.92188 10.4199Q5.13672 10.4199 5.26855 10.5469Q5.40039 10.6738 5.40039 10.8887L5.40039 12.5977Q5.40039 12.8125 5.26855 12.9443Q5.13672 13.0762 4.92188 13.0762ZM12.832 20.3809L20.8301 20.3809Q21.1621 20.3809 21.1621 20.0488L21.1621 3.03711Q21.1621 2.70508 20.8301 2.70508L12.832 2.70508Q12.5098 2.70508 12.5098 3.03711L12.5098 20.0488Q12.5098 20.3809 12.832 20.3809Z" fill="#ffffff"/>
 </g>
</svg>
