<?xml version="1.0" encoding="UTF-8"?>
<!--Generator: Apple Native CoreSVG 175-->
<!DOCTYPE svg
PUBLIC "-//W3C//DTD SVG 1.1//EN"
       "http://www.w3.org/Graphics/SVG/1.1/DTD/svg11.dtd">
<svg version="1.1" xmlns="http://www.w3.org/2000/svg" xmlns:xlink="http://www.w3.org/1999/xlink" width="14.713" height="17.8288">
 <g>
  <rect height="17.8288" opacity="0" width="14.713" x="0" y="0"/>
  <path d="M5.20706 12.5146Q5.31754 12.6334 5.48965 12.6356Q5.66177 12.6377 5.78201 12.4955Q6.44775 11.8029 6.80984 10.8847Q7.17194 9.96649 7.17194 8.94858Q7.17194 7.92364 6.80984 7.00407Q6.44775 6.0845 5.78201 5.39465Q5.66177 5.25671 5.48965 5.25534Q5.31754 5.25397 5.20706 5.3826Q5.1062 5.49154 5.13947 5.63879Q5.17273 5.78604 5.27771 5.91849Q5.84808 6.50061 6.14647 7.28049Q6.44485 8.06036 6.44485 8.94858Q6.44485 9.82977 6.15837 10.6203Q5.87189 11.4107 5.27771 11.9716Q5.16296 12.0943 5.13458 12.2465Q5.1062 12.3986 5.20706 12.5146ZM7.82196 15.1923Q7.92969 15.3182 8.09769 15.3168Q8.26569 15.3155 8.38715 15.1858Q9.58405 13.9728 10.2608 12.3658Q10.9375 10.7587 10.9375 8.94858Q10.9375 7.73535 10.641 6.60506Q10.3445 5.47476 9.77463 4.48546Q9.20471 3.49615 8.38715 2.71139Q8.26569 2.57467 8.09418 2.5733Q7.92267 2.57193 7.82196 2.69781Q7.7211 2.81378 7.75017 2.96377Q7.77924 3.11377 7.88834 3.24072Q9.01794 4.32471 9.61426 5.79642Q10.2106 7.26813 10.2106 8.94858Q10.2106 10.6193 9.59885 12.0769Q8.98712 13.5345 7.88834 14.6564Q7.77924 14.7764 7.75017 14.9285Q7.7211 15.0806 7.82196 15.1923ZM10.5246 17.7126Q10.6227 17.826 10.7845 17.8287Q10.9462 17.8315 11.0719 17.7071Q12.7707 15.9936 13.7418 13.7514Q14.713 11.5092 14.713 8.94858Q14.713 6.38525 13.7679 4.1136Q12.8227 1.84195 11.0719 0.187285Q10.9462 0.0559065 10.7845 0.0635359Q10.6227 0.0711653 10.5246 0.181792Q10.4266 0.295012 10.4446 0.447752Q10.4625 0.600493 10.5786 0.719359Q12.2313 2.27316 13.1086 4.39894Q13.9859 6.52472 13.9859 8.94858Q13.9859 11.3654 13.0777 13.4638Q12.1695 15.5622 10.5786 17.1752Q10.4625 17.2896 10.4446 17.4445Q10.4266 17.5994 10.5246 17.7126Z" fill="rgba(255,255,255,0.5)"/>
  <path d="M0 8.92904Q0 9.36545 0.223083 9.72578Q0.446167 10.0861 0.821152 10.3042Q1.19614 10.5224 1.63239 10.5224Q2.07855 10.5224 2.44377 10.3042Q2.80899 10.0861 3.02719 9.71602Q3.24539 9.34592 3.24539 8.90951Q3.24539 8.24042 2.7784 7.76365Q2.3114 7.28689 1.63239 7.28689Q1.18637 7.28689 0.816269 7.5099Q0.446167 7.73291 0.223083 8.10789Q0 8.48288 0 8.92904Z" fill="#ffffff"/>
 </g>
</svg>
