<?xml version="1.0" encoding="UTF-8"?>
<!--Generator: Apple Native CoreSVG 175-->
<!DOCTYPE svg
PUBLIC "-//W3C//DTD SVG 1.1//EN"
       "http://www.w3.org/Graphics/SVG/1.1/DTD/svg11.dtd">
<svg version="1.1" xmlns="http://www.w3.org/2000/svg" xmlns:xlink="http://www.w3.org/1999/xlink" width="18.1152" height="18.1543">
 <g>
  <rect height="18.1543" opacity="0" width="18.1152" x="0" y="0"/>
  <path d="M0.361328 5.69336Q0.732422 5.69336 0.732422 5.32227L0.732422 2.69531Q0.732422 1.73828 1.2207 1.25Q1.70898 0.761719 2.65625 0.761719L5.2832 0.761719Q5.66406 0.761719 5.66406 0.400391Q5.66406 0.0390625 5.2832 0.0390625L2.62695 0.0390625Q1.33789 0.0390625 0.668945 0.703125Q0 1.36719 0 2.66602L0 5.32227Q0 5.69336 0.361328 5.69336ZM17.7539 5.69336Q18.1152 5.69336 18.1152 5.32227L18.1152 2.66602Q18.1152 1.38672 17.4463 0.712891Q16.7773 0.0390625 15.4883 0.0390625L12.8223 0.0390625Q12.4512 0.0390625 12.4512 0.400391Q12.4512 0.761719 12.8223 0.761719L15.459 0.761719Q16.377 0.761719 16.8848 1.25Q17.3926 1.73828 17.3926 2.69531L17.3926 5.32227Q17.3926 5.69336 17.7539 5.69336ZM2.62695 18.1543L5.2832 18.1543Q5.66406 18.1543 5.66406 17.793Q5.66406 17.4316 5.2832 17.4316L2.65625 17.4316Q1.70898 17.4316 1.2207 16.9385Q0.732422 16.4453 0.732422 15.4883L0.732422 12.8711Q0.732422 12.4902 0.361328 12.4902Q0 12.4902 0 12.8711L0 15.5273Q0 16.8164 0.668945 17.4854Q1.33789 18.1543 2.62695 18.1543ZM12.8223 18.1543L15.4883 18.1543Q16.7773 18.1543 17.4463 17.4805Q18.1152 16.8066 18.1152 15.5273L18.1152 12.8711Q18.1152 12.4902 17.7539 12.4902Q17.3926 12.4902 17.3926 12.8711L17.3926 15.4883Q17.3926 16.4453 16.8848 16.9385Q16.377 17.4316 15.459 17.4316L12.8223 17.4316Q12.4512 17.4316 12.4512 17.793Q12.4512 18.1543 12.8223 18.1543Z" fill="rgba(255,255,255,0.5)"/>
  <path d="M9.08203 12.3242Q9.96094 12.3242 10.6934 11.8848Q11.4258 11.4453 11.8604 10.708Q12.2949 9.9707 12.2949 9.08203Q12.2949 8.20312 11.8604 7.4707Q11.4258 6.73828 10.6934 6.30371Q9.96094 5.86914 9.08203 5.86914Q8.19336 5.86914 7.45605 6.30371Q6.71875 6.73828 6.2793 7.4707Q5.83984 8.20312 5.83984 9.08203Q5.83984 9.9707 6.2793 10.708Q6.71875 11.4453 7.45605 11.8848Q8.19336 12.3242 9.08203 12.3242Z" fill="#ffffff"/>
 </g>
</svg>
