<?xml version="1.0" encoding="UTF-8"?>
<!--Generator: Apple Native CoreSVG 175.5-->
<!DOCTYPE svg
PUBLIC "-//W3C//DTD SVG 1.1//EN"
       "http://www.w3.org/Graphics/SVG/1.1/DTD/svg11.dtd">
<svg version="1.1" xmlns="http://www.w3.org/2000/svg" xmlns:xlink="http://www.w3.org/1999/xlink" width="14.7461" height="14.8535">
 <g>
  <rect height="14.8535" opacity="0" width="14.7461" x="0" y="0"/>
  <path d="M1.39648 14.7461Q1.96289 14.7461 2.36816 14.3408Q2.77344 13.9355 2.77344 13.3691Q2.77344 12.793 2.37305 12.3877Q1.97266 11.9824 1.39648 11.9824Q0.830078 11.9824 0.415039 12.3975Q0 12.8125 0 13.3984Q0 13.9355 0.419922 14.3408Q0.839844 14.7461 1.39648 14.7461Z" fill="#ffffff"/>
  <path d="M0.146484 8.78906Q0.146484 9.11133 0.380859 9.34082Q0.615234 9.57031 0.9375 9.57031Q2.09961 9.57031 3.06152 10.1465Q4.02344 10.7227 4.59961 11.6846Q5.17578 12.6465 5.17578 13.8086Q5.17578 14.1309 5.40527 14.3652Q5.63477 14.5996 5.95703 14.5996Q6.2793 14.5996 6.51367 14.3652Q6.74805 14.1309 6.74805 13.8086Q6.74805 12.6074 6.29395 11.5527Q5.83984 10.498 5.03906 9.70215Q4.23828 8.90625 3.18359 8.45215Q2.12891 7.99805 0.9375 7.99805Q0.615234 7.99805 0.380859 8.23242Q0.146484 8.4668 0.146484 8.78906Z" fill="#ffffff"/>
  <path d="M0.146484 4.91211Q0.146484 5.23438 0.380859 5.46387Q0.615234 5.69336 0.9375 5.69336Q2.61719 5.69336 4.08691 6.32324Q5.55664 6.95312 6.6748 8.07129Q7.79297 9.18945 8.42285 10.6592Q9.05273 12.1289 9.05273 13.8086Q9.05273 14.1309 9.28223 14.3652Q9.51172 14.5996 9.83398 14.5996Q10.1562 14.5996 10.3906 14.3652Q10.625 14.1309 10.625 13.8086Q10.625 11.8066 9.86816 10.0488Q9.11133 8.29102 7.77832 6.96289Q6.44531 5.63477 4.69238 4.87793Q2.93945 4.12109 0.9375 4.12109Q0.615234 4.12109 0.380859 4.35547Q0.146484 4.58984 0.146484 4.91211Z" fill="#ffffff"/>
  <path d="M0.146484 0.78125Q0.146484 1.10352 0.380859 1.33789Q0.615234 1.57227 0.9375 1.57227Q2.95898 1.57227 4.79492 2.1875Q6.63086 2.80273 8.15918 3.93066Q9.6875 5.05859 10.8105 6.58691Q11.9336 8.11523 12.5537 9.95117Q13.1738 11.7871 13.1738 13.8086Q13.1738 14.1309 13.4082 14.3652Q13.6426 14.5996 13.9648 14.5996Q14.2871 14.5996 14.5166 14.3652Q14.7461 14.1309 14.7461 13.8086Q14.7461 11.5234 14.0479 9.45801Q13.3496 7.39258 12.0801 5.66406Q10.8105 3.93555 9.08203 2.66602Q7.35352 1.39648 5.2832 0.698242Q3.21289 0 0.9375 0Q0.615234 0 0.380859 0.229492Q0.146484 0.458984 0.146484 0.78125Z" fill="#ffffff"/>
 </g>
</svg>
