<?xml version="1.0" encoding="UTF-8"?>
<!--Generator: Apple Native CoreSVG 175-->
<!DOCTYPE svg
PUBLIC "-//W3C//DTD SVG 1.1//EN"
       "http://www.w3.org/Graphics/SVG/1.1/DTD/svg11.dtd">
<svg version="1.1" xmlns="http://www.w3.org/2000/svg" xmlns:xlink="http://www.w3.org/1999/xlink" width="24.3743" height="21.3965">
 <g>
  <rect height="21.3965" opacity="0" width="24.3743" x="0" y="0"/>
  <path d="M9.57428 19.1554Q10.6906 19.1554 11.7455 18.9062Q12.8004 18.6571 13.7352 18.1895L13.2727 17.5899Q12.4274 17.9828 11.4961 18.1961Q10.5649 18.4094 9.57428 18.4094Q7.74734 18.4094 6.14853 17.7241Q4.54971 17.0387 3.33466 15.8223Q2.1196 14.6059 1.43425 13.007Q0.748901 11.4082 0.748901 9.5813Q0.748901 7.74734 1.43425 6.14845Q2.1196 4.54956 3.33328 3.33458Q4.54697 2.1196 6.14578 1.43288Q7.7446 0.746155 9.57153 0.746155Q11.5067 0.746155 13.1617 1.49124Q14.8167 2.23633 16.0304 3.54843Q17.2441 4.86053 17.8683 6.58455Q18.4926 8.30856 18.3617 10.2692Q18.4824 10.2499 18.7236 10.2498Q18.9648 10.2496 19.1176 10.2657Q19.254 8.17963 18.5668 6.32591Q17.8796 4.4722 16.5569 3.0468Q15.2341 1.6214 13.445 0.810699Q11.6559 0 9.57428 0Q7.60345 0 5.86716 0.749588Q4.13086 1.49918 2.81502 2.8199Q1.49918 4.14062 0.749588 5.87204Q0 7.60345 0 9.5813Q0 11.552 0.746078 13.2869Q1.49216 15.0218 2.81288 16.339Q4.13361 17.6562 5.86853 18.4058Q7.60345 19.1554 9.57428 19.1554ZM9.57703 12.495Q10.3691 12.495 11.0316 12.1002Q11.6942 11.7055 12.0924 11.0429Q12.4907 10.3804 12.4907 9.58557Q12.4907 8.78632 12.0924 8.12515Q11.6942 7.46399 11.0316 7.06932Q10.3691 6.67465 9.57703 6.67465Q8.77502 6.67465 8.11386 7.06932Q7.4527 7.46399 7.05666 8.12515Q6.66061 8.78632 6.66061 9.58557Q6.66061 10.3804 7.06017 11.0429Q7.45972 11.7055 8.12225 12.1002Q8.78479 12.495 9.57703 12.495Z" fill="rgba(255,255,255,0.5)"/>
  <path d="M21.113 20.6187Q23.3539 19.7972 24.0664 18.1205Q24.7789 16.4438 23.8426 13.8792L23.4149 12.7078Q23.0704 11.7789 22.4901 11.3912Q21.9098 11.0036 21.3852 11.1819Q21.1411 11.2796 21.2262 11.5211L21.4861 12.2278Q21.543 12.368 21.502 12.459Q21.461 12.55 21.3762 12.5804Q21.1469 12.6625 21.0539 12.3848L20.8723 11.8762Q20.6743 11.3196 20.2264 11.0999Q19.7786 10.8801 19.2931 11.0559Q18.8747 11.2149 19.0044 11.5762L19.3449 12.5145Q19.388 12.645 19.3553 12.7444Q19.3227 12.8438 19.231 12.8714Q19.0227 12.9492 18.9157 12.6743L18.5973 11.8016Q18.3727 11.1668 17.9332 10.9813Q17.4937 10.7957 17.025 10.9618Q16.5953 11.118 16.725 11.4891L17.363 13.2309Q17.4199 13.3711 17.3789 13.467Q17.338 13.5629 17.2531 13.5977Q17.0407 13.6726 16.9308 13.3879L15.0441 8.18787Q14.8976 7.78473 14.5965 7.63901Q14.2953 7.49329 13.9606 7.61749Q13.6133 7.74017 13.4668 8.04977Q13.3203 8.35938 13.4695 8.75977L16.0855 15.9445Q16.1273 16.0559 16.0807 16.1492Q16.0341 16.2425 15.9364 16.2718Q15.7649 16.3219 15.5965 16.1508L13.6801 14.1484Q13.4485 13.9113 13.226 13.8597Q13.0035 13.8081 12.7902 13.882Q12.4164 14.0285 12.3078 14.3158Q12.1992 14.6031 12.2997 14.9226Q12.368 15.0856 12.5383 15.2992L15.0598 18.5274Q16.3313 20.1472 17.9233 20.6722Q19.5152 21.1972 21.113 20.6187Z" fill="#ffffff"/>
 </g>
</svg>
