<?xml version="1.0" encoding="UTF-8"?>
<!--Generator: Apple Native CoreSVG 175.5-->
<!DOCTYPE svg
PUBLIC "-//W3C//DTD SVG 1.1//EN"
       "http://www.w3.org/Graphics/SVG/1.1/DTD/svg11.dtd">
<svg version="1.1" xmlns="http://www.w3.org/2000/svg" xmlns:xlink="http://www.w3.org/1999/xlink" width="24.707" height="14.4824">
 <g>
  <rect height="14.4824" opacity="0" width="24.707" x="0" y="0"/>
  <path d="M1.83594 12.2949L3.08594 12.2949L3.08594 10.918L1.8457 10.918Q1.64062 10.918 1.50879 10.7812Q1.37695 10.6445 1.37695 10.4492L1.37695 4.01367Q1.37695 3.80859 1.50879 3.66699Q1.64062 3.52539 1.8457 3.52539L3.08594 3.52539L3.08594 2.14844L1.83594 2.14844Q1.31836 2.14844 0.90332 2.39258Q0.488281 2.63672 0.244141 3.05176Q0 3.4668 0 3.98438L0 10.4688Q0 10.9863 0.244141 11.3965Q0.488281 11.8066 0.90332 12.0508Q1.31836 12.2949 1.83594 12.2949ZM5 14.4531L5.69336 14.4531Q6.91406 14.4531 7.59277 13.75Q8.27148 13.0469 8.27148 11.7676L8.27148 2.70508Q8.27148 1.41602 7.60254 0.708008Q6.93359 0 5.71289 0L4.88281 0Q3.75 0 3.12988 0.708008Q2.50977 1.41602 2.50977 2.70508L2.50977 11.7676Q2.50977 13.0469 3.15918 13.75Q3.80859 14.4531 5 14.4531ZM5.01953 12.9785Q4.53125 12.9785 4.25781 12.6611Q3.98438 12.3438 3.98438 11.7676L3.98438 2.70508Q3.98438 2.12891 4.2334 1.80176Q4.48242 1.47461 4.91211 1.47461L5.68359 1.47461Q6.21094 1.47461 6.50391 1.80176Q6.79688 2.12891 6.79688 2.70508L6.79688 11.7676Q6.79688 12.3438 6.49414 12.6611Q6.19141 12.9785 5.66406 12.9785ZM8.01758 6.42578L16.6895 6.42578L16.6895 4.95117L8.01758 4.95117ZM8.01758 9.49219L16.6895 9.49219L16.6895 8.01758L8.01758 8.01758ZM19.0137 14.4531L19.707 14.4531Q20.8887 14.4531 21.543 13.75Q22.1973 13.0469 22.1973 11.7676L22.1973 2.70508Q22.1973 1.41602 21.5723 0.708008Q20.9473 0 19.8145 0L18.9941 0Q17.7734 0 17.1045 0.708008Q16.4355 1.41602 16.4355 2.70508L16.4355 11.7676Q16.4355 13.0469 17.1094 13.75Q17.7832 14.4531 19.0137 14.4531ZM19.043 12.9785Q18.5059 12.9785 18.208 12.6611Q17.9102 12.3438 17.9102 11.7676L17.9102 2.70508Q17.9102 2.12891 18.2031 1.80176Q18.4961 1.47461 19.0234 1.47461L19.7949 1.47461Q20.2246 1.47461 20.4736 1.80176Q20.7227 2.12891 20.7227 2.70508L20.7227 11.7676Q20.7227 12.3438 20.4443 12.6611Q20.166 12.9785 19.6875 12.9785ZM21.6211 12.2949L22.8711 12.2949Q23.3887 12.2949 23.8037 12.0508Q24.2188 11.8066 24.4629 11.3965Q24.707 10.9863 24.707 10.4688L24.707 3.98438Q24.707 3.4668 24.4629 3.05176Q24.2188 2.63672 23.8037 2.39258Q23.3887 2.14844 22.8711 2.14844L21.6211 2.14844L21.6211 3.52539L22.8613 3.52539Q23.0566 3.52539 23.1934 3.66699Q23.3301 3.80859 23.3301 4.01367L23.3301 10.4492Q23.3301 10.6445 23.1934 10.7812Q23.0566 10.918 22.8613 10.918L21.6211 10.918Z" fill="#ffffff"/>
 </g>
</svg>
