<?xml version="1.0" encoding="UTF-8"?>
<!--Generator: Apple Native CoreSVG 175-->
<!DOCTYPE svg
PUBLIC "-//W3C//DTD SVG 1.1//EN"
       "http://www.w3.org/Graphics/SVG/1.1/DTD/svg11.dtd">
<svg version="1.1" xmlns="http://www.w3.org/2000/svg" xmlns:xlink="http://www.w3.org/1999/xlink" width="14.2336" height="21.9318">
 <g>
  <rect height="21.9318" opacity="0" width="14.2336" x="0" y="0"/>
  <path d="M0 15.9985Q0 17.2125 0.497055 18.1158Q0.99411 19.0192 1.89064 19.519Q2.78717 20.0188 3.97614 20.0188Q5.39459 20.0188 6.46721 19.3089Q7.53983 18.5989 8.17703 17.2954L8.72543 16.1871Q9.24728 15.0923 9.85489 14.3245Q10.4625 13.5567 11.0812 12.9645Q11.7 12.3723 12.265 11.8307Q12.83 11.2891 13.273 10.6723Q13.716 10.0555 13.9748 9.23233Q14.2336 8.40912 14.2336 7.2403Q14.2336 5.06058 13.36 3.43109Q12.4864 1.80161 10.9093 0.900803Q9.33212 0 7.22076 0Q5.07889 0 3.45428 0.930328Q1.82968 1.86066 0.914841 3.51746Q0 5.17426 0 7.36374ZM0.70816 15.9782L0.70816 7.36374Q0.70816 5.37201 1.52405 3.87138Q2.33994 2.37076 3.80966 1.53603Q5.27939 0.701294 7.22076 0.701294Q9.11057 0.701294 10.528 1.5255Q11.9453 2.3497 12.7354 3.8208Q13.5254 5.2919 13.5254 7.2403Q13.5254 8.31223 13.2791 9.07532Q13.0328 9.83841 12.6024 10.4282Q12.1719 11.0181 11.6207 11.5444Q11.0695 12.0708 10.4646 12.6581Q9.85977 13.2454 9.25354 14.0131Q8.64731 14.7809 8.1102 15.8466L7.52777 16.9922Q6.96091 18.1255 6.06194 18.716Q5.16296 19.3066 3.99536 19.3066Q2.50702 19.3066 1.60759 18.3969Q0.70816 17.4872 0.70816 15.9782ZM3.02734 12.1165Q3.16833 12.1165 3.27209 12.0128Q3.37585 11.909 3.37585 11.761L3.37585 7.16446Q3.37585 6.05118 3.85277 5.21584Q4.32968 4.38049 5.1844 3.91258Q6.03912 3.44467 7.16873 3.44467Q8.88016 3.44467 9.88792 4.45595Q10.8957 5.46722 10.8957 7.16446Q10.8957 7.3056 10.9994 7.40929Q11.1031 7.51297 11.2485 7.51297Q11.3965 7.51297 11.5002 7.40929Q11.604 7.3056 11.604 7.16446Q11.604 5.82977 11.0524 4.83467Q10.5008 3.83957 9.50569 3.29147Q8.51059 2.74338 7.16873 2.74338Q5.84137 2.74338 4.82559 3.302Q3.80981 3.86063 3.24219 4.8571Q2.67456 5.85358 2.67456 7.16446L2.67456 11.761Q2.67456 11.909 2.77695 12.0128Q2.87933 12.1165 3.02734 12.1165ZM3.04062 8.97003L6.69998 8.97003Q7.35275 8.97003 7.76169 9.35242Q8.17062 9.7348 8.17062 10.336Q8.17062 10.6239 8.03513 10.969Q7.89963 11.3141 7.69577 11.5712L6.50269 13.0669Q6.40579 13.1985 6.40579 13.3411Q6.40579 13.4891 6.51306 13.5844Q6.62033 13.6798 6.76834 13.6798Q6.9371 13.6798 7.07153 13.5051L8.34106 11.8938Q8.60855 11.5622 8.76816 11.1127Q8.92776 10.6633 8.92776 10.2774Q8.92776 9.36493 8.31406 8.81332Q7.70035 8.26172 6.68045 8.26172L3.04062 8.26172Z" fill="#ffffff"/>
 </g>
</svg>
