<?xml version="1.0" encoding="UTF-8"?>
<!--Generator: Apple Native CoreSVG 175.5-->
<!DOCTYPE svg
PUBLIC "-//W3C//DTD SVG 1.1//EN"
       "http://www.w3.org/Graphics/SVG/1.1/DTD/svg11.dtd">
<svg version="1.1" xmlns="http://www.w3.org/2000/svg" xmlns:xlink="http://www.w3.org/1999/xlink" width="21.5625" height="24.5972">
 <g>
  <rect height="24.5972" opacity="0" width="21.5625" x="0" y="0"/>
  <path d="M3.06641 21.9715L18.7891 21.9715Q20.1074 21.9715 20.835 21.2097Q21.5625 20.448 21.5625 18.9441L21.5625 9.21755Q21.5625 7.70387 20.7959 6.94704Q20.0293 6.1902 18.4961 6.1902L12.9102 6.1902L12.9102 7.68434L18.5547 7.68434Q19.2773 7.68434 19.6729 8.07009Q20.0684 8.45583 20.0684 9.21755L20.0684 18.9441Q20.0684 19.7058 19.6729 20.0916Q19.2773 20.4773 18.5547 20.4773L3.00781 20.4773Q2.27539 20.4773 1.88477 20.0867Q1.49414 19.6961 1.49414 18.9343L1.49414 9.20778Q1.49414 8.45583 1.88477 8.07009Q2.27539 7.68434 3.00781 7.68434L8.69141 7.68434L8.69141 6.1902L2.77344 6.1902Q1.45508 6.1902 0.727539 6.94704Q0 7.70387 0 9.21755L0 18.9441Q0 20.4578 0.766602 21.2146Q1.5332 21.9715 3.06641 21.9715ZM10.8008 16.366Q11.3184 16.366 11.8018 16.1316Q12.2852 15.8972 12.832 15.4187L20.7617 8.45583L19.7461 7.4402L11.9824 14.2664Q11.6406 14.5593 11.3623 14.7107Q11.084 14.8621 10.8008 14.8621Q10.5078 14.8621 10.2197 14.7058Q9.93164 14.5496 9.61914 14.2664L1.81641 7.40114L0.791016 8.41676L8.76953 15.4187Q9.30664 15.8972 9.79492 16.1316Q10.2832 16.366 10.8008 16.366ZM19.6484 20.6922L20.6641 19.6668L14.4434 13.5144L13.4277 14.53ZM1.94336 20.7019L8.1543 14.5496L7.13867 13.534L0.927734 19.6765Z" fill="rgba(255,255,255,0.5)"/>
  <path d="M3.75977 2.24489L5.78125 4.35426Q6.10352 4.67653 6.39648 4.59352Q6.68945 4.51051 6.76758 4.08083L6.96289 3.03591Q8.51562 3.29958 9.27246 4.15895Q10.0293 5.01833 10.0293 6.15114L10.0293 10.6922Q10.0293 11.073 10.2393 11.3025Q10.4492 11.532 10.8008 11.532Q11.1523 11.532 11.3672 11.3025Q11.582 11.073 11.582 10.6922L11.582 6.15114Q11.582 5.01833 12.334 4.15895Q13.0859 3.29958 14.6387 3.03591L14.834 4.08083Q14.9219 4.51051 15.2148 4.59352Q15.5078 4.67653 15.8301 4.35426L17.8418 2.24489Q18.0957 1.98122 18.0371 1.7029Q17.9785 1.42458 17.6465 1.26833L15 0.0866866Q14.5801-0.0890946 14.3457 0.0915695Q14.1113 0.272234 14.1895 0.701921L14.3848 1.72731Q13.623 1.88356 12.8662 2.23512Q12.1094 2.58669 11.5479 3.07497Q10.9863 3.56325 10.8008 4.11989Q10.6152 3.56325 10.0537 3.07497Q9.49219 2.58669 8.73535 2.23512Q7.97852 1.88356 7.2168 1.72731L7.41211 0.701921Q7.5 0.272234 7.26074 0.0915695Q7.02148-0.0890946 6.61133 0.0866866L3.95508 1.26833Q3.62305 1.42458 3.56445 1.7029Q3.50586 1.98122 3.75977 2.24489Z" fill="#ffffff"/>
 </g>
</svg>
