<?xml version="1.0" encoding="UTF-8"?>
<!--Generator: Apple Native CoreSVG 175.5-->
<!DOCTYPE svg
PUBLIC "-//W3C//DTD SVG 1.1//EN"
       "http://www.w3.org/Graphics/SVG/1.1/DTD/svg11.dtd">
<svg version="1.1" xmlns="http://www.w3.org/2000/svg" xmlns:xlink="http://www.w3.org/1999/xlink" width="21.5625" height="24.5972">
 <g>
  <rect height="24.5972" opacity="0" width="21.5625" x="0" y="0"/>
  <path d="M0 18.9441Q0 19.8816 0.224609 20.3504L6.86523 13.7586L0.195312 7.90895Q0.107422 8.13356 0.0537109 8.45583Q0 8.77809 0 9.21755ZM1.03516 6.67848L9.62891 14.2371Q9.96094 14.53 10.2295 14.6863Q10.498 14.8425 10.8008 14.8425Q11.0938 14.8425 11.3672 14.6863Q11.6406 14.53 11.9727 14.2371L20.5469 6.68825Q20.2734 6.48317 19.8291 6.33669Q19.3848 6.1902 18.7891 6.1902L11.7969 6.1902L11.7969 10.5554Q11.7969 10.9558 11.499 11.2439Q11.2012 11.532 10.8008 11.532Q10.3906 11.532 10.0928 11.2439Q9.79492 10.9558 9.79492 10.5554L9.79492 6.1902L2.77344 6.1902Q2.1875 6.1902 1.74316 6.3318Q1.29883 6.47341 1.03516 6.67848ZM1.16211 21.5125Q1.46484 21.7078 1.93359 21.8396Q2.40234 21.9715 3.06641 21.9715L18.4961 21.9715Q19.1602 21.9715 19.6387 21.8396Q20.1172 21.7078 20.4199 21.4929L13.6133 14.7547L12.8516 15.4382Q12.3047 15.8972 11.8164 16.1463Q11.3281 16.3953 10.8008 16.3953Q10.2637 16.3953 9.77539 16.1463Q9.28711 15.8972 8.75 15.4382L7.97852 14.7547ZM14.7266 13.7586L21.3477 20.3308Q21.5625 19.8621 21.5625 18.9441L21.5625 9.21755Q21.5625 8.78786 21.5088 8.47048Q21.4551 8.15309 21.377 7.92848Z" fill="rgba(255,255,255,0.5)"/>
  <path d="M3.75977 2.24489L5.78125 4.35426Q6.10352 4.67653 6.39648 4.59352Q6.68945 4.51051 6.76758 4.08083L6.96289 3.03591Q8.51562 3.29958 9.27246 4.15895Q10.0293 5.01833 10.0293 6.15114L10.0293 6.42458Q10.0293 6.85426 10.2344 7.09352Q10.4395 7.33278 10.8008 7.33278Q11.1719 7.33278 11.377 7.09352Q11.582 6.85426 11.582 6.42458L11.582 6.15114Q11.582 5.01833 12.334 4.15895Q13.0859 3.29958 14.6387 3.03591L14.834 4.08083Q14.9219 4.51051 15.2148 4.59352Q15.5078 4.67653 15.8301 4.35426L17.8418 2.24489Q18.0957 1.98122 18.0371 1.7029Q17.9785 1.42458 17.6465 1.26833L15 0.0866866Q14.5801-0.0890946 14.3457 0.0915695Q14.1113 0.272234 14.1895 0.701921L14.3848 1.72731Q13.623 1.88356 12.8662 2.23512Q12.1094 2.58669 11.5479 3.07497Q10.9863 3.56325 10.8008 4.11989Q10.6152 3.56325 10.0537 3.07497Q9.49219 2.58669 8.73535 2.23512Q7.97852 1.88356 7.2168 1.72731L7.41211 0.701921Q7.5 0.272234 7.26074 0.0915695Q7.02148-0.0890946 6.61133 0.0866866L3.95508 1.26833Q3.62305 1.42458 3.56445 1.7029Q3.50586 1.98122 3.75977 2.24489Z" fill="#ffffff"/>
 </g>
</svg>
