<?xml version="1.0" encoding="UTF-8"?>
<!--Generator: Apple Native CoreSVG 175-->
<!DOCTYPE svg
PUBLIC "-//W3C//DTD SVG 1.1//EN"
       "http://www.w3.org/Graphics/SVG/1.1/DTD/svg11.dtd">
<svg version="1.1" xmlns="http://www.w3.org/2000/svg" xmlns:xlink="http://www.w3.org/1999/xlink" width="19.1528" height="19.1669">
 <g>
  <rect height="19.1669" opacity="0" width="19.1528" x="0" y="0"/>
  <path d="M9.57153 19.1528Q11.5492 19.1528 13.2807 18.4067Q15.0122 17.6605 16.3329 16.3399Q17.6535 15.0192 18.4032 13.2842Q19.1528 11.5492 19.1528 9.57855Q19.1528 7.60788 18.4073 5.877Q17.6617 4.14612 16.3479 2.82738Q15.034 1.50864 13.3092 0.761185Q11.5845 0.0137329 9.62585 0Q9.43787 0.00152588 9.31854 0.101776Q9.19922 0.202026 9.19922 0.36911Q9.19922 0.52536 9.30916 0.633774Q9.4191 0.742188 9.60007 0.740662Q11.4313 0.754395 13.0246 1.44386Q14.6179 2.13333 15.8297 3.34419Q17.0415 4.55505 17.7241 6.15334Q18.4067 7.75162 18.4067 9.57855Q18.4067 11.4055 17.7213 13.0078Q17.036 14.6101 15.8209 15.8217Q14.6059 17.0332 13.0057 17.72Q11.4055 18.4067 9.57153 18.4067Q7.73239 18.4067 6.12946 17.7166Q4.52652 17.0265 3.31482 15.8082Q2.10312 14.5898 1.42464 12.9875Q0.746155 11.3852 0.746155 9.57031Q0.746155 9.37271 0.631485 9.27116Q0.516815 9.16962 0.367584 9.16962Q0.207367 9.16962 0.103683 9.27704Q0 9.38446 0 9.5961Q0 11.563 0.746078 13.2925Q1.49216 15.022 2.81151 16.3412Q4.13086 17.6605 5.86586 18.4067Q7.60086 19.1528 9.57153 19.1528Z" fill="rgba(255,255,255,0.5)"/>
  <path d="M9.09058 9.50668Q9.25781 9.50668 9.36134 9.39125Q9.46487 9.27582 9.46487 9.13239Q9.46487 8.97781 9.35318 8.8562L3.17978 2.69257L1.77582 1.32507Q2.39304 1.33713 3.09494 1.34399Q3.79684 1.35086 4.47853 1.35223Q5.16022 1.35361 5.71091 1.35361Q5.86716 1.35361 5.97366 1.2458Q6.08017 1.138 6.08017 0.98877Q6.08017 0.83252 5.97366 0.726013Q5.86716 0.619507 5.71091 0.619507L0.995789 0.619507Q0.583191 0.619507 0.583191 1.02936L0.583191 5.75165Q0.583191 5.90088 0.690994 6.00731Q0.798798 6.11374 0.952301 6.11374Q1.09879 6.11374 1.20529 6.00731Q1.3118 5.90088 1.3118 5.75165Q1.3118 5.19653 1.31042 4.50943Q1.30905 3.82233 1.30356 3.12256Q1.29807 2.42279 1.2915 1.80939L2.63245 3.19504L8.81989 9.39224Q8.9386 9.50668 9.09058 9.50668Z" fill="#ffffff"/>
 </g>
</svg>
