<?xml version="1.0" encoding="UTF-8"?>
<!--Generator: Apple Native CoreSVG 175.5-->
<!DOCTYPE svg
PUBLIC "-//W3C//DTD SVG 1.1//EN"
       "http://www.w3.org/Graphics/SVG/1.1/DTD/svg11.dtd">
<svg version="1.1" xmlns="http://www.w3.org/2000/svg" xmlns:xlink="http://www.w3.org/1999/xlink" width="17.9785" height="17.998">
 <g>
  <rect height="17.998" opacity="0" width="17.9785" x="0" y="0"/>
  <path d="M3.06641 17.998L14.9121 17.998Q16.4453 17.998 17.2119 17.2412Q17.9785 16.4844 17.9785 14.9707L17.9785 3.04688Q17.9785 1.5332 17.2119 0.776367Q16.4453 0.0195312 14.9121 0.0195312L3.06641 0.0195312Q1.5332 0.0195312 0.766602 0.776367Q0 1.5332 0 3.04688L0 14.9707Q0 16.4844 0.766602 17.2412Q1.5332 17.998 3.06641 17.998ZM3.08594 16.4258Q2.35352 16.4258 1.96289 16.04Q1.57227 15.6543 1.57227 14.8926L1.57227 3.125Q1.57227 2.36328 1.96289 1.97754Q2.35352 1.5918 3.08594 1.5918L14.8926 1.5918Q15.6152 1.5918 16.0107 1.97754Q16.4062 2.36328 16.4062 3.125L16.4062 14.8926Q16.4062 15.6543 16.0107 16.04Q15.6152 16.4258 14.8926 16.4258Z" fill="rgba(255,255,255,0.5)"/>
  <path d="M10.3516 13.7012Q10.7031 13.7012 10.9717 13.6621Q11.2402 13.623 11.416 13.5449Q11.8262 13.3789 11.8262 12.998Q11.8262 12.7441 11.665 12.6025Q11.5039 12.4609 11.25 12.4609Q11.084 12.4609 10.8643 12.4902Q10.6445 12.5195 10.3418 12.5195Q9.26758 12.5195 8.44727 11.9824Q7.62695 11.4453 7.30469 10.3711L10.3418 10.3711Q10.5469 10.3711 10.6787 10.2295Q10.8105 10.0879 10.8105 9.88281Q10.8105 9.66797 10.6787 9.53613Q10.5469 9.4043 10.3418 9.4043L7.11914 9.4043Q7.10938 9.30664 7.10449 9.2041Q7.09961 9.10156 7.09961 9.00391Q7.09961 8.88672 7.10449 8.78418Q7.10938 8.68164 7.11914 8.57422L10.3418 8.57422Q10.5469 8.57422 10.6787 8.43262Q10.8105 8.29102 10.8105 8.0957Q10.8105 7.88086 10.6787 7.74414Q10.5469 7.60742 10.3418 7.60742L7.31445 7.60742Q7.64648 6.55273 8.46191 6.02051Q9.27734 5.48828 10.3418 5.48828Q10.6445 5.48828 10.8691 5.51758Q11.0938 5.54688 11.25 5.54688Q11.5039 5.54688 11.665 5.40527Q11.8262 5.26367 11.8262 5.00977Q11.8262 4.82422 11.7383 4.67773Q11.6504 4.53125 11.3965 4.43359Q11.2207 4.36523 10.9668 4.33105Q10.7129 4.29688 10.3516 4.29688Q9.32617 4.29688 8.42773 4.66797Q7.5293 5.03906 6.87988 5.77148Q6.23047 6.50391 5.9668 7.60742L4.86328 7.60742Q4.66797 7.60742 4.53125 7.74414Q4.39453 7.88086 4.39453 8.0957Q4.39453 8.29102 4.53125 8.43262Q4.66797 8.57422 4.86328 8.57422L5.83008 8.57422Q5.82031 8.68164 5.82031 8.7793Q5.82031 8.87695 5.82031 8.99414Q5.82031 9.12109 5.8252 9.22852Q5.83008 9.33594 5.83008 9.4043L4.86328 9.4043Q4.66797 9.4043 4.53125 9.53613Q4.39453 9.66797 4.39453 9.88281Q4.39453 10.0879 4.53125 10.2295Q4.66797 10.3711 4.86328 10.3711L5.9668 10.3711Q6.35742 12.041 7.57812 12.8711Q8.79883 13.7012 10.3516 13.7012Z" fill="#ffffff"/>
 </g>
</svg>
