<?xml version="1.0" encoding="UTF-8"?>
<!--Generator: Apple Native CoreSVG 175.5-->
<!DOCTYPE svg
PUBLIC "-//W3C//DTD SVG 1.1//EN"
       "http://www.w3.org/Graphics/SVG/1.1/DTD/svg11.dtd">
<svg version="1.1" xmlns="http://www.w3.org/2000/svg" xmlns:xlink="http://www.w3.org/1999/xlink" width="19.9219" height="19.9316">
 <g>
  <rect height="19.9316" opacity="0" width="19.9219" x="0" y="0"/>
  <path d="M9.96094 19.9219Q12.002 19.9219 13.8037 19.1406Q15.6055 18.3594 16.9824 16.9824Q18.3594 15.6055 19.1406 13.8037Q19.9219 12.002 19.9219 9.96094Q19.9219 7.91992 19.1406 6.11816Q18.3594 4.31641 16.9824 2.93945Q15.6055 1.5625 13.7988 0.78125Q11.9922 0 9.95117 0Q7.91016 0 6.1084 0.78125Q4.30664 1.5625 2.93457 2.93945Q1.5625 4.31641 0.78125 6.11816Q0 7.91992 0 9.96094Q0 12.002 0.78125 13.8037Q1.5625 15.6055 2.93945 16.9824Q4.31641 18.3594 6.11816 19.1406Q7.91992 19.9219 9.96094 19.9219ZM9.96094 18.2617Q8.23242 18.2617 6.72852 17.6172Q5.22461 16.9727 4.08691 15.835Q2.94922 14.6973 2.30957 13.1934Q1.66992 11.6895 1.66992 9.96094Q1.66992 8.23242 2.30957 6.72852Q2.94922 5.22461 4.08203 4.08203Q5.21484 2.93945 6.71875 2.2998Q8.22266 1.66016 9.95117 1.66016Q11.6797 1.66016 13.1885 2.2998Q14.6973 2.93945 15.835 4.08203Q16.9727 5.22461 17.6172 6.72852Q18.2617 8.23242 18.2617 9.96094Q18.2617 11.6895 17.6221 13.1934Q16.9824 14.6973 15.8398 15.835Q14.6973 16.9727 13.1934 17.6172Q11.6895 18.2617 9.96094 18.2617Z" fill="rgba(255,255,255,0.5)"/>
  <path d="M7.50977 15.5957Q7.73438 15.5957 8.04688 15.3027L9.79492 13.7207L13.0664 13.7207Q14.1309 13.7207 14.6973 13.1445Q15.2637 12.5684 15.2637 11.5137L15.2637 7.83203Q15.2637 6.78711 14.6973 6.21094Q14.1309 5.63477 13.0664 5.63477L6.85547 5.63477Q5.79102 5.63477 5.22461 6.20605Q4.6582 6.77734 4.6582 7.83203L4.6582 11.5137Q4.6582 12.5781 5.22461 13.1494Q5.79102 13.7207 6.85547 13.7207L7.08984 13.7207L7.08984 15.1172Q7.08984 15.5957 7.50977 15.5957ZM9.96094 10.5859Q9.57031 10.5859 9.56055 10.1855L9.50195 7.56836Q9.49219 7.37305 9.61914 7.23633Q9.74609 7.09961 9.95117 7.09961Q10.1562 7.09961 10.2881 7.23633Q10.4199 7.37305 10.4199 7.56836L10.3516 10.1855Q10.3516 10.5859 9.96094 10.5859ZM9.96094 12.1875Q9.74609 12.1875 9.5752 12.0361Q9.4043 11.8848 9.4043 11.6602Q9.4043 11.4453 9.57031 11.2842Q9.73633 11.123 9.96094 11.123Q10.1855 11.123 10.3516 11.2793Q10.5176 11.4355 10.5176 11.6602Q10.5176 11.8848 10.3467 12.0361Q10.1758 12.1875 9.96094 12.1875Z" fill="#ffffff"/>
 </g>
</svg>
