<?xml version="1.0" encoding="UTF-8"?>
<!--Generator: Apple Native CoreSVG 175-->
<!DOCTYPE svg
PUBLIC "-//W3C//DTD SVG 1.1//EN"
       "http://www.w3.org/Graphics/SVG/1.1/DTD/svg11.dtd">
<svg version="1.1" xmlns="http://www.w3.org/2000/svg" xmlns:xlink="http://www.w3.org/1999/xlink" width="19.1602" height="19.1504">
 <g>
  <rect height="19.1504" opacity="0" width="19.1602" x="0" y="0"/>
  <path d="M9.57031 19.1406Q11.5527 19.1406 13.2861 18.3984Q15.0195 17.6562 16.3379 16.333Q17.6562 15.0098 18.4082 13.2764Q19.1602 11.543 19.1602 9.57031Q19.1602 7.59766 18.4082 5.86426Q17.6562 4.13086 16.3379 2.80762Q15.0195 1.48438 13.2861 0.742188Q11.5527 0 9.57031 0Q7.59766 0 5.86426 0.742188Q4.13086 1.48438 2.81738 2.80762Q1.50391 4.13086 0.751953 5.86426Q0 7.59766 0 9.57031Q0 11.543 0.74707 13.2764Q1.49414 15.0098 2.8125 16.333Q4.13086 17.6562 5.86914 18.3984Q7.60742 19.1406 9.57031 19.1406ZM9.57031 18.3984Q7.74414 18.3984 6.14746 17.71Q4.55078 17.0215 3.33496 15.8105Q2.11914 14.5996 1.43555 12.998Q0.751953 11.3965 0.751953 9.57031Q0.751953 7.74414 1.43555 6.14258Q2.11914 4.54102 3.33496 3.3252Q4.55078 2.10938 6.14746 1.4209Q7.74414 0.732422 9.57031 0.732422Q11.4062 0.732422 13.0029 1.4209Q14.5996 2.10938 15.8154 3.3252Q17.0312 4.54102 17.7197 6.14258Q18.4082 7.74414 18.4082 9.57031Q18.4082 11.3965 17.7246 12.998Q17.041 14.5996 15.8252 15.8105Q14.6094 17.0215 13.0078 17.71Q11.4062 18.3984 9.57031 18.3984Z" fill="rgba(255,255,255,0.5)"/>
  <path d="M6.75781 15.1855Q6.89453 15.1855 7.06055 15.0488L8.91602 13.4277L13.0859 13.4277Q13.9844 13.4277 14.5117 12.9004Q15.0391 12.373 15.0391 11.4844L15.0391 7.09961Q15.0391 6.20117 14.5117 5.67871Q13.9844 5.15625 13.0859 5.15625L6.07422 5.15625Q5.17578 5.15625 4.64844 5.67383Q4.12109 6.19141 4.12109 7.09961L4.12109 11.4844Q4.12109 12.3828 4.64844 12.9053Q5.17578 13.4277 6.07422 13.4277L6.51367 13.4277L6.51367 14.9121Q6.51367 15.1855 6.75781 15.1855ZM9.58008 10.2734Q9.30664 10.2734 9.30664 9.9707L9.27734 7.16797Q9.26758 7.03125 9.35059 6.93848Q9.43359 6.8457 9.58008 6.8457Q9.7168 6.8457 9.7998 6.93848Q9.88281 7.03125 9.88281 7.16797L9.85352 9.9707Q9.85352 10.2734 9.58008 10.2734ZM9.58008 11.7578Q9.4043 11.7578 9.26758 11.6357Q9.13086 11.5137 9.13086 11.3281Q9.13086 11.1523 9.2627 11.0254Q9.39453 10.8984 9.58008 10.8984Q9.75586 10.8984 9.8877 11.0254Q10.0195 11.1523 10.0195 11.3281Q10.0195 11.5137 9.8877 11.6357Q9.75586 11.7578 9.58008 11.7578Z" fill="#ffffff"/>
 </g>
</svg>
