<?xml version="1.0" encoding="UTF-8"?>
<!--Generator: Apple Native CoreSVG 175.5-->
<!DOCTYPE svg
PUBLIC "-//W3C//DTD SVG 1.1//EN"
       "http://www.w3.org/Graphics/SVG/1.1/DTD/svg11.dtd">
<svg version="1.1" xmlns="http://www.w3.org/2000/svg" xmlns:xlink="http://www.w3.org/1999/xlink" width="20.4688" height="18.6621">
 <g>
  <rect height="18.6621" opacity="0" width="20.4688" x="0" y="0"/>
  <path d="M2.66602 18.5547L17.8027 18.5547Q18.6328 18.5547 19.2285 18.2031Q19.8242 17.8516 20.1465 17.251Q20.4688 16.6504 20.4688 15.9082Q20.4688 15.5664 20.3711 15.2148Q20.2734 14.8633 20.0879 14.541L12.5098 1.33789Q12.1289 0.673828 11.5186 0.336914Q10.9082 0 10.2344 0Q9.56055 0 8.94531 0.336914Q8.33008 0.673828 7.95898 1.33789L0.380859 14.541Q0 15.1953 0 15.9082Q0 16.6504 0.322266 17.251Q0.644531 17.8516 1.24023 18.2031Q1.83594 18.5547 2.66602 18.5547Z" fill="rgba(255,255,255,0.25)"/>
  <path d="M10.2441 12.0215Q9.46289 12.0215 9.44336 11.2207L9.31641 5.89844Q9.30664 5.51758 9.56543 5.26367Q9.82422 5.00977 10.2344 5.00977Q10.6348 5.00977 10.9033 5.26855Q11.1719 5.52734 11.1621 5.9082L11.0156 11.2207Q11.0059 12.0215 10.2441 12.0215ZM10.2441 15.293Q9.80469 15.293 9.47754 14.9902Q9.15039 14.6875 9.15039 14.248Q9.15039 13.8184 9.47266 13.5059Q9.79492 13.1934 10.2441 13.1934Q10.6836 13.1934 11.0107 13.501Q11.3379 13.8086 11.3379 14.248Q11.3379 14.6875 11.0107 14.9902Q10.6836 15.293 10.2441 15.293Z" fill="#ffffff"/>
 </g>
</svg>
