<?xml version="1.0" encoding="UTF-8"?>
<!--Generator: Apple Native CoreSVG 175.5-->
<!DOCTYPE svg
PUBLIC "-//W3C//DTD SVG 1.1//EN"
       "http://www.w3.org/Graphics/SVG/1.1/DTD/svg11.dtd">
<svg version="1.1" xmlns="http://www.w3.org/2000/svg" xmlns:xlink="http://www.w3.org/1999/xlink" width="20.7031" height="22.4707">
 <g>
  <rect height="22.4707" opacity="0" width="20.7031" x="0" y="0"/>
  <path d="M0 11.7383Q0 12.8906 0.546875 13.7988Q1.09375 14.707 2.05078 15.2295Q3.00781 15.752 4.21875 15.752L16.4844 15.752Q17.7051 15.752 18.6572 15.2295Q19.6094 14.707 20.1562 13.7988Q20.7031 12.8906 20.7031 11.7383Q20.7031 11.2402 20.5811 10.791Q20.459 10.3418 20.293 9.92188L17.3535 2.89062Q16.9238 1.83594 16.0547 1.28418Q15.1855 0.732422 13.9648 0.732422L6.73828 0.732422Q4.23828 0.732422 3.33984 2.89062L0.410156 9.92188Q0.234375 10.3516 0.117188 10.8057Q0 11.2598 0 11.7383ZM3.02734 7.91992L4.85352 3.31055Q5.33203 2.10938 6.81641 2.10938L13.8965 2.10938Q15.3809 2.10938 15.8594 3.31055L17.6855 7.91992Q17.4023 7.82227 17.1045 7.77832Q16.8066 7.73438 16.4844 7.73438L4.21875 7.73438Q3.90625 7.73438 3.6084 7.77832Q3.31055 7.82227 3.02734 7.91992ZM1.55273 11.7383Q1.55273 11.0254 1.89453 10.4736Q2.23633 9.92188 2.83691 9.60449Q3.4375 9.28711 4.21875 9.28711L16.4844 9.28711Q17.2656 9.28711 17.8662 9.60449Q18.4668 9.92188 18.8086 10.4736Q19.1504 11.0254 19.1504 11.7383Q19.1504 12.5098 18.833 13.0566Q18.5156 13.6035 17.9199 13.8965Q17.3242 14.1895 16.4844 14.1895L4.21875 14.1895Q3.4375 14.1895 2.83691 13.877Q2.23633 13.5645 1.89453 13.0127Q1.55273 12.4609 1.55273 11.7383ZM15.3125 11.7383Q15.3125 12.2266 15.6494 12.5635Q15.9863 12.9004 16.4746 12.9004Q16.9434 12.8906 17.2852 12.5537Q17.627 12.2168 17.627 11.7383Q17.627 11.2793 17.2852 10.9326Q16.9434 10.5859 16.4746 10.5859Q16.0059 10.5859 15.6592 10.9326Q15.3125 11.2793 15.3125 11.7383ZM9.39453 20.2539L10.9668 20.2539L10.9668 14.7559L9.39453 14.7559ZM2.06055 21.0352L18.3008 21.0352Q18.623 21.0352 18.8574 20.8057Q19.0918 20.5762 19.0918 20.2539Q19.0918 19.9219 18.8574 19.6924Q18.623 19.4629 18.3008 19.4629L2.06055 19.4629Q1.73828 19.4629 1.50879 19.6924Q1.2793 19.9219 1.2793 20.2539Q1.2793 20.5762 1.50879 20.8057Q1.73828 21.0352 2.06055 21.0352ZM10.1855 22.4707Q10.791 22.4707 11.2891 22.168Q11.7871 21.8652 12.0898 21.3672Q12.3926 20.8691 12.3926 20.2637Q12.3926 19.6582 12.0898 19.1553Q11.7871 18.6523 11.2891 18.3545Q10.791 18.0566 10.1855 18.0566Q9.58008 18.0566 9.07715 18.3545Q8.57422 18.6523 8.27637 19.1553Q7.97852 19.6582 7.97852 20.2637Q7.97852 20.8691 8.27637 21.3672Q8.57422 21.8652 9.07715 22.168Q9.58008 22.4707 10.1855 22.4707Z" fill="#ffffff"/>
 </g>
</svg>
