<?xml version="1.0" encoding="UTF-8"?>
<!--Generator: Apple Native CoreSVG 175.5-->
<!DOCTYPE svg
PUBLIC "-//W3C//DTD SVG 1.1//EN"
       "http://www.w3.org/Graphics/SVG/1.1/DTD/svg11.dtd">
<svg version="1.1" xmlns="http://www.w3.org/2000/svg" xmlns:xlink="http://www.w3.org/1999/xlink" width="19.9219" height="19.9316">
 <g>
  <rect height="19.9316" opacity="0" width="19.9219" x="0" y="0"/>
  <path d="M9.96094 19.9316Q12.002 19.9316 13.8037 19.1504Q15.6055 18.3691 16.9824 16.9922Q18.3594 15.6152 19.1406 13.8135Q19.9219 12.0117 19.9219 9.9707Q19.9219 7.92969 19.1406 6.12793Q18.3594 4.32617 16.9824 2.94922Q15.6055 1.57227 13.7988 0.791016Q11.9922 0.00976562 9.95117 0.00976562Q7.91016 0.00976562 6.1084 0.791016Q4.30664 1.57227 2.93457 2.94922Q1.5625 4.32617 0.78125 6.12793Q0 7.92969 0 9.9707Q0 12.0117 0.78125 13.8135Q1.5625 15.6152 2.93945 16.9922Q4.31641 18.3691 6.11816 19.1504Q7.91992 19.9316 9.96094 19.9316Z" fill="rgba(255,255,255,0.25)"/>
  <path d="M12.2754 14.0332Q11.748 14.1895 11.1621 14.292Q10.5762 14.3945 9.96094 14.3945Q8.7207 14.3945 7.64648 14.0479Q6.57227 13.7012 5.70312 13.1494Q4.83398 12.5977 4.20898 11.9873Q3.58398 11.377 3.24707 10.835Q2.91016 10.293 2.91016 9.98047Q2.91016 9.6875 3.19824 9.19922Q3.48633 8.71094 4.02344 8.14941Q4.56055 7.58789 5.3125 7.06055L7.23633 8.99414Q7.05078 9.45312 7.05078 9.98047Q7.05078 10.7715 7.44141 11.4258Q7.83203 12.0801 8.49121 12.4756Q9.15039 12.8711 9.96094 12.8711Q10.2148 12.8711 10.4639 12.8223Q10.7129 12.7734 10.9375 12.6855ZM9.73633 11.4844Q9.18945 11.4941 8.80371 11.0938Q8.41797 10.6934 8.4375 10.1953ZM12.6758 10.957Q12.8516 10.4883 12.8516 9.98047Q12.8516 9.17969 12.4609 8.52051Q12.0703 7.86133 11.416 7.47559Q10.7617 7.08984 9.96094 7.08984Q9.70703 7.08984 9.45801 7.13379Q9.20898 7.17773 8.98438 7.26562L7.65625 5.92773Q8.18359 5.76172 8.76465 5.66406Q9.3457 5.56641 9.96094 5.56641Q11.2012 5.56641 12.2803 5.91797Q13.3594 6.26953 14.2285 6.81641Q15.0977 7.36328 15.7178 7.97852Q16.3379 8.59375 16.6699 9.13086Q17.002 9.66797 17.002 9.98047Q17.002 10.2734 16.7139 10.7617Q16.4258 11.25 15.8887 11.8115Q15.3516 12.373 14.6094 12.9004ZM10.1855 8.4668Q10.7129 8.4668 11.0889 8.85254Q11.4648 9.23828 11.4648 9.73633ZM14.6875 15.3711L4.54102 5.22461Q4.41406 5.08789 4.41406 4.89746Q4.41406 4.70703 4.54102 4.57031Q4.6875 4.43359 4.87793 4.43359Q5.06836 4.43359 5.20508 4.57031L15.3418 14.7168Q15.4785 14.8535 15.4785 15.0391Q15.4785 15.2246 15.3418 15.3711Q15.2148 15.498 15.0195 15.4932Q14.8242 15.4883 14.6875 15.3711Z" fill="#ffffff"/>
 </g>
</svg>
