<?xml version="1.0" encoding="UTF-8"?>
<!--Generator: Apple Native CoreSVG 175.5-->
<!DOCTYPE svg
PUBLIC "-//W3C//DTD SVG 1.1//EN"
       "http://www.w3.org/Graphics/SVG/1.1/DTD/svg11.dtd">
<svg version="1.1" xmlns="http://www.w3.org/2000/svg" xmlns:xlink="http://www.w3.org/1999/xlink" width="17.9785" height="17.998">
 <g>
  <rect height="17.998" opacity="0" width="17.9785" x="0" y="0"/>
  <path d="M3.06641 17.998L14.9121 17.998Q16.4453 17.998 17.2119 17.2412Q17.9785 16.4844 17.9785 14.9707L17.9785 3.04688Q17.9785 1.5332 17.2119 0.776367Q16.4453 0.0195312 14.9121 0.0195312L3.06641 0.0195312Q1.5332 0.0195312 0.766602 0.776367Q0 1.5332 0 3.04688L0 14.9707Q0 16.4844 0.766602 17.2412Q1.5332 17.998 3.06641 17.998Z" fill="rgba(255,255,255,0.25)"/>
  <path d="M8.99414 13.1152Q7.8418 13.1152 6.83594 12.7881Q5.83008 12.4609 5.01465 11.9482Q4.19922 11.4355 3.61816 10.8643Q3.03711 10.293 2.72461 9.79004Q2.41211 9.28711 2.41211 8.99414Q2.41211 8.70117 2.72461 8.19824Q3.03711 7.69531 3.61816 7.12402Q4.19922 6.55273 5.00977 6.04004Q5.82031 5.52734 6.82617 5.2002Q7.83203 4.87305 8.99414 4.87305Q10.1562 4.87305 11.1621 5.2002Q12.168 5.52734 12.9785 6.04004Q13.7891 6.55273 14.3652 7.12402Q14.9414 7.69531 15.2539 8.19824Q15.5664 8.70117 15.5664 8.99414Q15.5664 9.28711 15.2539 9.79004Q14.9414 10.293 14.3652 10.8643Q13.7891 11.4355 12.9785 11.9482Q12.168 12.4609 11.1621 12.7881Q10.1562 13.1152 8.99414 13.1152ZM8.99414 11.6895Q9.73633 11.6895 10.3516 11.3232Q10.9668 10.957 11.3281 10.3418Q11.6895 9.72656 11.6895 8.99414Q11.6895 8.24219 11.3281 7.63184Q10.9668 7.02148 10.3516 6.66016Q9.73633 6.29883 8.99414 6.29883Q8.24219 6.29883 7.62695 6.66016Q7.01172 7.02148 6.64551 7.63184Q6.2793 8.24219 6.2793 8.99414Q6.2793 9.72656 6.64551 10.3418Q7.01172 10.957 7.62695 11.3232Q8.24219 11.6895 8.99414 11.6895ZM9.00391 10.1855Q8.51562 10.1855 8.15918 9.82422Q7.80273 9.46289 7.80273 8.99414Q7.80273 8.52539 8.15918 8.16406Q8.51562 7.80273 9.00391 7.80273Q9.47266 7.80273 9.8291 8.16406Q10.1855 8.52539 10.1855 8.99414Q10.1855 9.46289 9.8291 9.82422Q9.47266 10.1855 9.00391 10.1855Z" fill="#ffffff"/>
 </g>
</svg>
