<?xml version="1.0" encoding="UTF-8"?>
<!--Generator: Apple Native CoreSVG 175.5-->
<!DOCTYPE svg
PUBLIC "-//W3C//DTD SVG 1.1//EN"
       "http://www.w3.org/Graphics/SVG/1.1/DTD/svg11.dtd">
<svg version="1.1" xmlns="http://www.w3.org/2000/svg" xmlns:xlink="http://www.w3.org/1999/xlink" width="20.2075" height="17.3535">
 <g>
  <rect height="17.3535" opacity="0" width="20.2075" x="0" y="0"/>
  <path d="M18.1177 12.0117Q18.3521 11.7578 18.3765 11.4844Q18.4009 11.2109 18.269 10.9863Q18.1372 10.7617 17.9028 10.6396Q17.6685 10.5176 17.3804 10.5615Q17.0923 10.6055 16.8188 10.8789Q15.8521 11.8359 14.2896 12.3926Q12.7271 12.9492 10.9106 12.9492Q8.91846 12.9492 7.01904 12.4756Q5.11963 12.002 3.30322 11.0156Q2.97119 10.8301 2.68799 10.8838Q2.40479 10.9375 2.21924 11.1328Q2.03369 11.3281 1.98486 11.5967Q1.93604 11.8652 2.05811 12.1338Q2.18018 12.4023 2.52197 12.5879Q4.49463 13.6328 6.61377 14.1602Q8.73291 14.6875 10.9106 14.6875Q13.147 14.6875 15.0366 13.9893Q16.9263 13.291 18.1177 12.0117ZM4.28955 13.2129Q4.12354 13.5352 3.81104 14.0332Q3.49854 14.5312 3.26416 14.7754Q3.05908 14.9902 3.03467 15.2051Q3.01025 15.4199 3.11768 15.5908Q3.2251 15.7617 3.41553 15.8496Q3.60596 15.9375 3.83057 15.8936Q4.05518 15.8496 4.26025 15.625Q4.56299 15.2832 4.82178 14.873Q5.08057 14.4629 5.271 14.1113Q5.46143 13.7598 5.54932 13.6035ZM7.69775 13.9941Q7.55127 14.6484 7.36572 15.2881Q7.18018 15.9277 7.05322 16.2109Q6.93604 16.4844 6.98975 16.6992Q7.04346 16.9141 7.19971 17.041Q7.35596 17.168 7.56592 17.1777Q7.77588 17.1875 7.97119 17.0703Q8.1665 16.9531 8.28369 16.6699Q8.44971 16.2402 8.58154 15.7275Q8.71338 15.2148 8.79639 14.79Q8.87939 14.3652 8.90869 14.1797ZM11.2427 14.209Q11.3306 14.873 11.3208 15.5469Q11.311 16.2207 11.2915 16.5332Q11.272 16.8359 11.3989 17.0166Q11.5259 17.1973 11.7212 17.2607Q11.9165 17.3242 12.1167 17.2656Q12.3169 17.207 12.4536 17.0264Q12.5903 16.8457 12.6001 16.543Q12.6099 16.0742 12.5854 15.5469Q12.561 15.0195 12.5171 14.585Q12.4731 14.1504 12.4438 13.9746ZM14.563 13.5742Q14.9341 14.3164 15.0854 15.0098Q15.2368 15.7031 15.3052 16.0156Q15.354 16.3086 15.52 16.4453Q15.686 16.582 15.8862 16.582Q16.0864 16.582 16.2671 16.4697Q16.4478 16.3574 16.5454 16.1572Q16.6431 15.957 16.5747 15.6934Q16.3794 14.873 16.1304 14.1016Q15.8813 13.3301 15.6079 12.9199Z" fill="rgba(255,255,255,0.5)"/>
  <path d="M2.07275 7.97852Q2.53174 7.97852 3.31787 7.65625Q4.104 7.33398 5.09521 6.82129Q6.08643 6.30859 7.18018 5.7373Q8.27393 5.16602 9.36279 4.6582Q10.4517 4.15039 11.4331 3.82812Q12.4146 3.50586 13.1665 3.50586Q13.9673 3.50586 14.6899 3.83301Q15.4126 4.16016 16.1548 4.83398L18.606 7.08984Q18.9087 7.37305 19.2407 7.37793Q19.5728 7.38281 19.8315 7.20215Q20.0903 7.02148 20.1782 6.72852Q20.2661 6.43555 20.0903 6.12305Q19.8755 5.77148 19.563 5.3125Q19.2505 4.85352 18.7671 4.24805Q18.2837 3.64258 17.561 2.8418Q16.7798 1.97266 16.0034 1.33789Q15.2271 0.703125 14.3433 0.351562Q13.4595 0 12.3364 0Q10.8813 0 9.00635 0.512695Q7.13135 1.02539 5.05127 1.89941Q2.97119 2.77344 0.92041 3.85742Q0.402832 4.14062 0.183105 4.63867Q-0.0366211 5.13672 0.00732422 5.70801Q0.0512695 6.2793 0.319824 6.79688Q0.588379 7.31445 1.0376 7.64648Q1.48682 7.97852 2.07275 7.97852Z" fill="#ffffff"/>
 </g>
</svg>
