<?xml version="1.0" encoding="UTF-8"?>
<!--Generator: Apple Native CoreSVG 175.5-->
<!DOCTYPE svg
PUBLIC "-//W3C//DTD SVG 1.1//EN"
       "http://www.w3.org/Graphics/SVG/1.1/DTD/svg11.dtd">
<svg version="1.1" xmlns="http://www.w3.org/2000/svg" xmlns:xlink="http://www.w3.org/1999/xlink" width="22.6758" height="17.5293">
 <g>
  <rect height="17.5293" opacity="0" width="22.6758" x="0" y="0"/>
  <path d="M5.23438 17.5293Q6.33789 17.5293 7.29004 16.8945Q8.24219 16.2598 8.96484 15.0977Q9.6875 13.9355 10.0928 12.3242Q10.498 10.7129 10.498 8.75977Q10.498 6.80664 10.0928 5.2002Q9.6875 3.59375 8.96484 2.43164Q8.24219 1.26953 7.29004 0.634766Q6.33789 0 5.23438 0Q3.86719 0 2.72461 0.981445Q1.58203 1.96289 0.859375 3.72559Q0.136719 5.48828 0 7.8418Q0.341797 7.16797 0.981445 6.78711Q1.62109 6.40625 2.49023 6.40625Q3.76953 6.40625 4.54102 7.22168Q5.3125 8.03711 5.3125 9.35547Q5.3125 10.6934 4.54102 11.5088Q3.76953 12.3242 2.49023 12.3242Q1.71875 12.3242 1.11816 12.0166Q0.517578 11.709 0.146484 11.1523Q0.449219 13.0859 1.18652 14.5215Q1.92383 15.957 2.96875 16.7432Q4.01367 17.5293 5.23438 17.5293ZM1.68945 9.00391Q1.95312 9.05273 2.17285 8.84766Q2.39258 8.64258 2.46094 8.31055Q2.5293 7.97852 2.38281 7.70508Q2.23633 7.43164 1.96289 7.38281Q1.70898 7.33398 1.47461 7.53906Q1.24023 7.74414 1.18164 8.07617Q1.12305 8.41797 1.27441 8.68652Q1.42578 8.95508 1.68945 9.00391ZM17.4121 17.5293Q18.5059 17.5293 19.4629 16.8945Q20.4199 16.2598 21.1426 15.0977Q21.8652 13.9355 22.2705 12.3242Q22.6758 10.7129 22.6758 8.75977Q22.6758 6.80664 22.2705 5.2002Q21.8652 3.59375 21.1426 2.43164Q20.4199 1.26953 19.4629 0.634766Q18.5059 0 17.4121 0Q16.0352 0 14.8975 0.981445Q13.7598 1.96289 13.0322 3.72559Q12.3047 5.48828 12.1777 7.8418Q12.5195 7.16797 13.1592 6.78711Q13.7988 6.40625 14.6582 6.40625Q15.9375 6.40625 16.7139 7.22168Q17.4902 8.03711 17.4902 9.35547Q17.4902 10.6934 16.7139 11.5088Q15.9375 12.3242 14.6582 12.3242Q13.8867 12.3242 13.291 12.0166Q12.6953 11.709 12.3242 11.1523Q12.627 13.0859 13.3594 14.5215Q14.0918 15.957 15.1367 16.7432Q16.1816 17.5293 17.4121 17.5293ZM13.8672 9.00391Q14.1211 9.05273 14.3457 8.84766Q14.5703 8.64258 14.6387 8.31055Q14.6973 7.97852 14.5557 7.7002Q14.4141 7.42188 14.1406 7.38281Q13.8867 7.33398 13.6523 7.53906Q13.418 7.74414 13.3594 8.07617Q13.3008 8.41797 13.4473 8.68164Q13.5938 8.94531 13.8672 9.00391Z" fill="#ffffff"/>
 </g>
</svg>
