<?xml version="1.0" encoding="UTF-8"?>
<!--Generator: Apple Native CoreSVG 175-->
<!DOCTYPE svg
PUBLIC "-//W3C//DTD SVG 1.1//EN"
       "http://www.w3.org/Graphics/SVG/1.1/DTD/svg11.dtd">
<svg version="1.1" xmlns="http://www.w3.org/2000/svg" xmlns:xlink="http://www.w3.org/1999/xlink" width="19.1602" height="19.1504">
 <g>
  <rect height="19.1504" opacity="0" width="19.1602" x="0" y="0"/>
  <path d="M9.57031 19.1406Q11.5527 19.1406 13.2861 18.3984Q15.0195 17.6562 16.3379 16.333Q17.6562 15.0098 18.4082 13.2764Q19.1602 11.543 19.1602 9.57031Q19.1602 7.59766 18.4082 5.86426Q17.6562 4.13086 16.3379 2.80762Q15.0195 1.48438 13.2861 0.742188Q11.5527 0 9.57031 0Q7.59766 0 5.86426 0.742188Q4.13086 1.48438 2.81738 2.80762Q1.50391 4.13086 0.751953 5.86426Q0 7.59766 0 9.57031Q0 11.543 0.74707 13.2764Q1.49414 15.0098 2.8125 16.333Q4.13086 17.6562 5.86914 18.3984Q7.60742 19.1406 9.57031 19.1406ZM9.57031 18.3984Q7.74414 18.3984 6.14746 17.71Q4.55078 17.0215 3.33496 15.8105Q2.11914 14.5996 1.43555 12.998Q0.751953 11.3965 0.751953 9.57031Q0.751953 7.74414 1.43555 6.14258Q2.11914 4.54102 3.33496 3.3252Q4.55078 2.10938 6.14746 1.4209Q7.74414 0.732422 9.57031 0.732422Q11.4062 0.732422 13.0029 1.4209Q14.5996 2.10938 15.8154 3.3252Q17.0312 4.54102 17.7197 6.14258Q18.4082 7.74414 18.4082 9.57031Q18.4082 11.3965 17.7246 12.998Q17.041 14.5996 15.8252 15.8105Q14.6094 17.0215 13.0078 17.71Q11.4062 18.3984 9.57031 18.3984Z" fill="rgba(255,255,255,0.5)"/>
  <path d="M9.57031 14.2773Q10.5078 14.2773 11.2305 13.9209Q11.9531 13.5645 12.3584 13.1152Q12.7637 12.666 12.7637 12.3828Q12.7637 12.2754 12.6807 12.2559Q12.5977 12.2363 12.5391 12.2754Q12.0996 12.666 11.3525 12.959Q10.6055 13.252 9.57031 13.252Q8.53516 13.252 7.79785 12.9541Q7.06055 12.6562 6.61133 12.2754Q6.54297 12.2363 6.46484 12.2559Q6.38672 12.2754 6.38672 12.3828Q6.38672 12.666 6.79199 13.1152Q7.19727 13.5645 7.91992 13.9209Q8.64258 14.2773 9.57031 14.2773ZM6.63086 8.61328Q7.02148 8.61328 7.31934 8.27637Q7.61719 7.93945 7.61719 7.44141Q7.61719 6.94336 7.32422 6.60156Q7.03125 6.25977 6.63086 6.25977Q6.24023 6.25977 5.95215 6.60156Q5.66406 6.94336 5.66406 7.44141Q5.66406 7.93945 5.95703 8.27637Q6.25 8.61328 6.63086 8.61328ZM12.5098 8.61328Q12.9004 8.61328 13.1934 8.27637Q13.4863 7.93945 13.4863 7.44141Q13.4863 6.94336 13.1982 6.60156Q12.9102 6.25977 12.5098 6.25977Q12.1289 6.25977 11.8359 6.60156Q11.543 6.94336 11.543 7.44141Q11.543 7.93945 11.8359 8.27637Q12.1289 8.61328 12.5098 8.61328Z" fill="#ffffff"/>
 </g>
</svg>
