<?xml version="1.0" encoding="UTF-8"?>
<!--Generator: Apple Native CoreSVG 175.5-->
<!DOCTYPE svg
PUBLIC "-//W3C//DTD SVG 1.1//EN"
       "http://www.w3.org/Graphics/SVG/1.1/DTD/svg11.dtd">
<svg version="1.1" xmlns="http://www.w3.org/2000/svg" xmlns:xlink="http://www.w3.org/1999/xlink" width="15.5957" height="22.7441">
 <g>
  <rect height="22.7441" opacity="0" width="15.5957" x="0" y="0"/>
  <path d="M7.79297 15.5957Q9.4043 15.5957 10.8203 14.9902Q12.2363 14.3848 13.3105 13.3105Q14.3848 12.2363 14.9902 10.8252Q15.5957 9.41406 15.5957 7.80273Q15.5957 6.19141 14.9902 4.77539Q14.3848 3.35938 13.3105 2.29004Q12.2363 1.2207 10.8203 0.610352Q9.4043 0 7.79297 0Q6.18164 0 4.77051 0.605469Q3.35938 1.21094 2.28516 2.28516Q1.21094 3.35938 0.605469 4.77539Q0 6.19141 0 7.80273Q0 9.41406 0.605469 10.8252Q1.21094 12.2363 2.28516 13.3105Q3.35938 14.3848 4.77051 14.9902Q6.18164 15.5957 7.79297 15.5957ZM7.80273 14.1699Q6.48438 14.1699 5.33203 13.6719Q4.17969 13.1738 3.30566 12.2998Q2.43164 11.4258 1.93848 10.2734Q1.44531 9.12109 1.44531 7.79297Q1.44531 6.47461 1.93848 5.32227Q2.43164 4.16992 3.30566 3.2959Q4.17969 2.42188 5.33203 1.92871Q6.48438 1.43555 7.80273 1.43555Q9.12109 1.43555 10.2783 1.92871Q11.4355 2.42188 12.3096 3.2959Q13.1836 4.16992 13.6719 5.32227Q14.1602 6.47461 14.1602 7.79297Q14.1602 9.12109 13.6719 10.2734Q13.1836 11.4258 12.3096 12.2998Q11.4355 13.1738 10.2783 13.6719Q9.12109 14.1699 7.80273 14.1699ZM7.02148 15.3223L7.02148 22.0996L8.59375 22.0996L8.59375 15.3223ZM3.4082 22.7441L12.1875 22.7441Q12.4609 22.7441 12.6221 22.5684Q12.7832 22.3926 12.7832 22.0996Q12.7832 21.5527 12.3682 21.2012Q11.9531 20.8496 11.2598 20.8496L4.32617 20.8496Q3.63281 20.8496 3.21777 21.2012Q2.80273 21.5527 2.80273 22.0996Q2.80273 22.3926 2.96875 22.5684Q3.13477 22.7441 3.4082 22.7441Z" fill="rgba(255,255,255,0.5)"/>
  <path d="M5.40039 12.6074Q6.24023 12.6074 6.7627 11.9189Q7.28516 11.2305 7.76367 9.93164Q7.88086 9.94141 7.97852 9.93652Q8.07617 9.93164 8.18359 9.90234L8.18359 11.6504Q8.18359 12.2949 8.50586 12.6367Q8.82812 12.9785 9.46289 12.9785Q10.2441 12.9785 10.957 12.5732Q11.6699 12.168 12.124 11.543Q12.5781 10.918 12.5781 10.2637Q12.5781 9.41406 11.8994 8.90137Q11.2207 8.38867 9.95117 7.91992Q9.96094 7.80273 9.95605 7.69043Q9.95117 7.57812 9.94141 7.46094L11.6016 7.46094Q12.2461 7.46094 12.5879 7.13379Q12.9297 6.80664 12.9297 6.17188Q12.9297 5.40039 12.5293 4.6875Q12.1289 3.97461 11.5039 3.52539Q10.8789 3.07617 10.2148 3.07617Q9.39453 3.07617 8.87695 3.74023Q8.35938 4.4043 7.90039 5.64453Q7.7832 5.64453 7.66113 5.64941Q7.53906 5.6543 7.43164 5.68359L7.43164 4.04297Q7.43164 3.39844 7.10449 3.05176Q6.77734 2.70508 6.15234 2.70508Q5.37109 2.70508 4.6582 3.11035Q3.94531 3.51562 3.48633 4.14062Q3.02734 4.76562 3.02734 5.42969Q3.02734 6.26953 3.71094 6.78223Q4.39453 7.29492 5.66406 7.77344Q5.66406 7.88086 5.67383 8.00293Q5.68359 8.125 5.70312 8.22266L4.01367 8.22266Q3.36914 8.22266 3.02246 8.54492Q2.67578 8.86719 2.67578 9.50195Q2.67578 10.2832 3.08105 10.9961Q3.48633 11.709 4.11133 12.1582Q4.73633 12.6074 5.40039 12.6074ZM7.80273 8.92578Q7.35352 8.92578 7.03613 8.61328Q6.71875 8.30078 6.71875 7.85156Q6.71875 7.39258 7.03613 7.0752Q7.35352 6.75781 7.80273 6.75781Q8.25195 6.75781 8.56934 7.0752Q8.88672 7.39258 8.88672 7.85156Q8.88672 8.30078 8.56934 8.61328Q8.25195 8.92578 7.80273 8.92578Z" fill="#ffffff"/>
 </g>
</svg>
