<?xml version="1.0" encoding="UTF-8"?>
<!--Generator: Apple Native CoreSVG 175.5-->
<!DOCTYPE svg
PUBLIC "-//W3C//DTD SVG 1.1//EN"
       "http://www.w3.org/Graphics/SVG/1.1/DTD/svg11.dtd">
<svg version="1.1" xmlns="http://www.w3.org/2000/svg" xmlns:xlink="http://www.w3.org/1999/xlink" width="20.609" height="24.3066">
 <g>
  <rect height="24.3066" opacity="0" width="20.609" x="0" y="0"/>
  <path d="M10.3012 24.3066Q11.102 24.3066 11.6635 24.1064Q12.2251 23.9062 12.6401 23.6084Q13.0552 23.3105 13.4018 23.0176Q13.7485 22.7246 14.1098 22.5244Q14.4712 22.3242 14.9399 22.3242Q15.4184 22.3242 15.77 22.5244Q16.1216 22.7246 16.4682 23.0176Q16.8149 23.3105 17.2446 23.6084Q17.6743 23.9062 18.2944 24.1064Q18.9145 24.3066 19.8227 24.3066L19.8716 24.3066Q20.1645 24.3066 20.3647 24.1064Q20.5649 23.9062 20.5649 23.6133Q20.5649 23.3301 20.3647 23.1299Q20.1645 22.9297 19.8716 22.9297L19.8227 22.9297Q19.0415 22.9297 18.519 22.6465Q17.9966 22.3633 17.4497 21.9727Q16.9712 21.6211 16.3608 21.2842Q15.7505 20.9473 14.9399 20.9473Q14.1001 20.9473 13.48 21.3037Q12.8598 21.6602 12.3813 22.0215Q11.8735 22.4023 11.4145 22.666Q10.9555 22.9297 10.3012 22.9297Q9.64695 22.9297 9.18796 22.666Q8.72898 22.4023 8.22117 22.0215Q7.74265 21.6602 7.12253 21.3037Q6.50242 20.9473 5.66257 20.9473Q4.85203 20.9473 4.24167 21.2842Q3.63132 21.6211 3.15281 21.9727Q2.60593 22.3633 2.08835 22.6465Q1.57078 22.9297 0.77976 22.9297L0.730932 22.9297Q0.447729 22.9297 0.242651 23.1299Q0.0375728 23.3301 0.0375728 23.6133Q0.0375728 23.9062 0.242651 24.1064Q0.447729 24.3066 0.730932 24.3066L0.77976 24.3066Q1.69773 24.3066 2.31296 24.1064Q2.9282 23.9062 3.35789 23.6084Q3.78757 23.3105 4.13425 23.0176Q4.48093 22.7246 4.83738 22.5244Q5.19382 22.3242 5.66257 22.3242Q6.13132 22.3242 6.49265 22.5244Q6.85398 22.7246 7.20066 23.0176Q7.54734 23.3105 7.96238 23.6084Q8.37742 23.9062 8.93894 24.1064Q9.50046 24.3066 10.3012 24.3066ZM0.437963 15.625L4.02195 21.9531L5.20359 21.1621L1.66843 15.0195Q1.35593 14.4629 1.45359 14.165Q1.55124 13.8672 1.95164 13.6914L9.06101 10.4297Q9.41257 10.2637 9.68601 10.1611Q9.95945 10.0586 10.3012 10.0586Q10.643 10.0586 10.9165 10.1611Q11.1899 10.2637 11.5512 10.4297L18.6509 13.6914Q19.061 13.8672 19.1538 14.165Q19.2466 14.4629 18.9341 15.0195L15.3989 21.1621L16.6489 21.8555L20.1645 15.625Q20.7895 14.5312 20.5356 13.7305Q20.2817 12.9297 19.1977 12.4414L12.0981 9.17969Q11.7856 9.0332 11.3462 8.85742Q10.9067 8.68164 10.3012 8.68164Q9.69578 8.68164 9.25632 8.85742Q8.81687 9.0332 8.50437 9.17969L1.40476 12.4414Q0.320776 12.9297 0.0717525 13.7305Q-0.177271 14.5312 0.437963 15.625ZM2.39109 12.2754L3.87546 11.582L4.92039 4.25781Q4.95945 3.96484 5.12546 3.80859Q5.29148 3.65234 5.55515 3.65234L15.0669 3.65234Q15.3501 3.65234 15.5161 3.78418Q15.6821 3.91602 15.7212 4.15039L16.7466 11.6309L18.2309 12.2754L17.1079 4.0625Q16.9907 3.21289 16.4536 2.74414Q15.9165 2.27539 15.0669 2.27539L5.55515 2.27539Q4.72507 2.27539 4.19285 2.79785Q3.66062 3.32031 3.5239 4.25781ZM6.27781 7.20703L9.30515 7.20703Q9.52976 7.20703 9.6616 7.09473Q9.79343 6.98242 9.79343 6.80664L9.79343 5.24414Q9.79343 5.06836 9.6616 4.95605Q9.52976 4.84375 9.30515 4.84375L6.27781 4.84375Q6.10203 4.84375 5.9946 4.95605Q5.88718 5.06836 5.88718 5.24414L5.88718 6.80664Q5.88718 6.98242 5.9946 7.09473Q6.10203 7.20703 6.27781 7.20703ZM11.1997 7.20703L14.2368 7.20703Q14.4614 7.20703 14.5932 7.09473Q14.7251 6.98242 14.7251 6.80664L14.7251 5.24414Q14.7251 5.06836 14.5932 4.95605Q14.4614 4.84375 14.2368 4.84375L11.1997 4.84375Q11.0337 4.84375 10.9262 4.95605Q10.8188 5.06836 10.8188 5.24414L10.8188 6.80664Q10.8188 6.98242 10.9262 7.09473Q11.0337 7.20703 11.1997 7.20703ZM6.0532 3.34961L7.43015 3.34961L7.43015 1.73828Q7.43015 1.40625 7.75242 1.40625L12.8598 1.40625Q13.1821 1.40625 13.1821 1.73828L13.1821 3.34961L14.5591 3.34961L14.5591 1.64062Q14.5591 0.908203 14.1245 0.46875Q13.6899 0.0292969 12.9575 0.0292969L7.65476 0.0292969Q6.92234 0.0292969 6.48777 0.46875Q6.0532 0.908203 6.0532 1.64062Z" fill="#ffffff"/>
 </g>
</svg>
