<?xml version="1.0" encoding="UTF-8"?>
<!--Generator: Apple Native CoreSVG 175.5-->
<!DOCTYPE svg
PUBLIC "-//W3C//DTD SVG 1.1//EN"
       "http://www.w3.org/Graphics/SVG/1.1/DTD/svg11.dtd">
<svg version="1.1" xmlns="http://www.w3.org/2000/svg" xmlns:xlink="http://www.w3.org/1999/xlink" width="24.4922" height="18.584">
 <g>
  <rect height="18.584" opacity="0" width="24.4922" x="0" y="0"/>
  <path d="M0 0.791016Q0 1.11328 0.229492 1.34277Q0.458984 1.57227 0.78125 1.57227L23.7109 1.57227Q24.0332 1.57227 24.2627 1.34277Q24.4922 1.11328 24.4922 0.791016Q24.4922 0.46875 24.2627 0.234375Q24.0332 0 23.7109 0L0.78125 0Q0.458984 0 0.229492 0.234375Q0 0.46875 0 0.791016ZM2.93945 10.1074L16.9141 10.1074L16.9141 13.5352Q16.9141 13.7988 17.0557 13.9844Q17.1973 14.1699 17.4121 14.2529Q17.627 14.3359 17.8662 14.292Q18.1055 14.248 18.291 14.0527L22.207 10.0684Q22.4121 9.85352 22.4854 9.58008Q22.5586 9.30664 22.4805 9.05273Q22.4023 8.79883 22.1777 8.6377Q21.9531 8.47656 21.5625 8.47656L7.58789 8.47656L7.58789 5.04883Q7.58789 4.78516 7.44629 4.59961Q7.30469 4.41406 7.08984 4.33105Q6.875 4.24805 6.64062 4.29199Q6.40625 4.33594 6.21094 4.53125L2.30469 8.51562Q2.08984 8.73047 2.0166 9.00391Q1.94336 9.27734 2.02148 9.53125Q2.09961 9.78516 2.3291 9.94629Q2.55859 10.1074 2.93945 10.1074ZM0 17.7832Q0 18.1055 0.229492 18.3398Q0.458984 18.5742 0.78125 18.5742L23.7109 18.5742Q24.0332 18.5742 24.2627 18.3398Q24.4922 18.1055 24.4922 17.7832Q24.4922 17.4609 24.2627 17.2314Q24.0332 17.002 23.7109 17.002L0.78125 17.002Q0.458984 17.002 0.229492 17.2314Q0 17.4609 0 17.7832Z" fill="#ffffff"/>
 </g>
</svg>
