<?xml version="1.0" encoding="UTF-8"?>
<!--Generator: Apple Native CoreSVG 175.5-->
<!DOCTYPE svg
PUBLIC "-//W3C//DTD SVG 1.1//EN"
       "http://www.w3.org/Graphics/SVG/1.1/DTD/svg11.dtd">
<svg version="1.1" xmlns="http://www.w3.org/2000/svg" xmlns:xlink="http://www.w3.org/1999/xlink" width="26.6851" height="16.6504">
 <g>
  <rect height="16.6504" opacity="0" width="26.6851" x="0" y="0"/>
  <path d="M2.13867 12.1582Q2.72461 12.1582 3.20801 11.875Q3.69141 11.5918 3.97949 11.1035Q4.26758 10.6152 4.26758 10.0293Q4.26758 9.43359 3.97949 8.9502Q3.69141 8.4668 3.20801 8.17871Q2.72461 7.89062 2.13867 7.89062Q1.54297 7.89062 1.05957 8.17871Q0.576172 8.4668 0.288086 8.9502Q0 9.43359 0 10.0293Q0 10.6152 0.288086 11.1035Q0.576172 11.5918 1.05957 11.875Q1.54297 12.1582 2.13867 12.1582ZM4.46289 12.8418Q4.17969 13.5742 4.41895 14.2676Q4.6582 14.9609 5.26367 15.3906Q6.25977 16.0742 7.28027 16.3623Q8.30078 16.6504 9.77539 16.6504L12.8906 16.6504Q14.0918 16.6504 14.7217 16.1133Q15.3516 15.5762 15.4395 14.7754Q15.5273 13.9746 15.1172 13.1836L12.6074 8.33984L12.6074 1.01562Q12.6074 0.585938 12.3096 0.292969Q12.0117 0 11.5723 0Q11.1523 0 10.8643 0.292969Q10.5762 0.585938 10.5762 1.01562L10.5762 8.58398Q10.5762 8.69141 10.5859 8.77441Q10.5957 8.85742 10.6152 8.92578L12.0312 12.9785L10.1953 12.9785Q9.30664 12.9785 8.70117 12.7441Q8.0957 12.5098 7.40234 12.0898Q7.2168 11.9727 7.16309 11.8115Q7.10938 11.6504 7.19727 11.4355L9.47266 5.61523Q9.62891 5.22461 9.45312 4.83398Q9.27734 4.44336 8.88672 4.29688Q8.47656 4.14062 8.10059 4.31152Q7.72461 4.48242 7.56836 4.88281ZM16.4551 15.0684L20.0684 13.8867L25.8398 12.8418Q26.2598 12.7734 26.499 12.4316Q26.7383 12.0898 26.6699 11.6602Q26.582 11.2402 26.2402 11.0059Q25.8984 10.7715 25.4785 10.8398L19.4434 11.9336L15.957 12.5684L16.0352 12.7051Q16.3867 13.291 16.4697 13.9062Q16.5527 14.5215 16.4551 15.0684Z" fill="#ffffff"/>
 </g>
</svg>
