<?xml version="1.0" encoding="UTF-8"?>
<!--Generator: Apple Native CoreSVG 175.5-->
<!DOCTYPE svg
PUBLIC "-//W3C//DTD SVG 1.1//EN"
       "http://www.w3.org/Graphics/SVG/1.1/DTD/svg11.dtd">
<svg version="1.1" xmlns="http://www.w3.org/2000/svg" xmlns:xlink="http://www.w3.org/1999/xlink" width="19.1106" height="22.0605">
 <g>
  <rect height="22.0605" opacity="0" width="19.1106" x="0" y="0"/>
  <path d="M6.56288 4.20898Q7.14882 4.20898 7.62734 3.93066Q8.10585 3.65234 8.38905 3.17383Q8.67226 2.69531 8.67226 2.10938Q8.67226 1.52344 8.38905 1.04492Q8.10585 0.566406 7.62734 0.283203Q7.14882 0 6.56288 0Q5.97695 0 5.49843 0.283203Q5.01991 0.566406 4.73671 1.04492Q4.45351 1.52344 4.45351 2.10938Q4.45351 2.69531 4.73671 3.17383Q5.01991 3.65234 5.49843 3.93066Q5.97695 4.20898 6.56288 4.20898ZM3.19374 21.7773Q3.89687 21.7773 4.13124 20.918Q4.2289 20.5566 4.39491 19.9072Q4.56093 19.2578 4.75624 18.4766Q4.95155 17.6953 5.15175 16.9287Q5.35195 16.1621 5.51796 15.5469Q5.68398 14.9316 5.78163 14.6387Q5.94765 14.1113 6.1039 13.8867Q6.26015 13.6621 6.56288 13.6621Q6.86562 13.6621 7.02187 13.8867Q7.17812 14.1113 7.34413 14.6387Q7.44179 14.9316 7.6078 15.5469Q7.77382 16.1621 7.96913 16.9287Q8.16445 17.6953 8.36464 18.4766Q8.56484 19.2578 8.73085 19.9072Q8.89687 20.5566 8.99452 20.918Q9.2289 21.7773 9.93202 21.7773Q10.4008 21.7773 10.6498 21.416Q10.8988 21.0547 10.7621 20.5957Q10.7426 20.5273 10.6254 20.0488Q10.5082 19.5703 10.3373 18.8379Q10.1664 18.1055 9.9662 17.2559Q9.76601 16.4062 9.58046 15.5908Q9.39491 14.7754 9.2582 14.1357Q9.12148 13.4961 9.07265 13.1934Q9.01405 12.793 8.97499 12.2266Q8.93593 11.6602 8.91152 11.0449Q8.8871 10.4297 8.87734 9.86816Q8.86757 9.30664 8.86757 8.92578Q8.86757 8.80859 8.96523 8.7793Q9.06288 8.75 9.14101 8.84766L10.2445 10.3906Q10.3324 9.95117 10.723 9.55566Q11.1137 9.16016 11.7289 9.15039L10.2152 6.94336Q9.80507 6.34766 9.31191 5.97168Q8.81874 5.5957 8.15468 5.41504Q7.49062 5.23438 6.56288 5.23438Q5.63515 5.23438 4.9662 5.41504Q4.29726 5.5957 3.80409 5.97168Q3.31093 6.34766 2.91054 6.94336L0.381242 10.6641Q0.303117 10.7715 0.229875 10.8838Q0.156633 10.9961 0.0980392 11.1035Q-0.0582108 11.3867 0.0345627 11.7334Q0.127336 12.0801 0.508195 12.2754Q0.791399 12.4414 1.10878 12.3926Q1.42616 12.3438 1.64101 12.0996Q1.74843 11.9824 2.01698 11.6113Q2.28554 11.2402 2.6371 10.7422Q2.98866 10.2441 3.34999 9.74121Q3.71132 9.23828 3.98476 8.84766Q4.05312 8.75 4.15566 8.78418Q4.2582 8.81836 4.2582 8.93555Q4.2582 9.31641 4.24843 9.87305Q4.23866 10.4297 4.21425 11.0449Q4.18984 11.6602 4.15077 12.2266Q4.11171 12.793 4.04335 13.1934Q3.99452 13.4961 3.8578 14.1357Q3.72109 14.7754 3.54042 15.5908Q3.35976 16.4062 3.15956 17.2559Q2.95937 18.1055 2.78359 18.8379Q2.6078 19.5703 2.4955 20.0488Q2.3832 20.5273 2.36366 20.5957Q2.22695 21.0547 2.47597 21.416Q2.72499 21.7773 3.19374 21.7773ZM14.7758 10.957Q15.4203 10.957 15.8842 10.498Q16.348 10.0391 16.348 9.39453Q16.348 8.75 15.8842 8.29102Q15.4203 7.83203 14.7758 7.83203Q14.1312 7.83203 13.6723 8.29102Q13.2133 8.75 13.2133 9.39453Q13.2133 10.0391 13.6723 10.498Q14.1312 10.957 14.7758 10.957ZM12.6078 21.7773Q12.8812 21.7773 13.101 21.6064Q13.3207 21.4355 13.4086 21.0742Q13.4867 20.8008 13.6234 20.2588Q13.7601 19.7168 13.9115 19.0967Q14.0629 18.4766 14.1996 17.959Q14.3363 17.4414 14.4047 17.207Q14.5121 16.9043 14.556 16.8408Q14.6 16.7773 14.6781 16.7773Q14.7562 16.7773 14.8002 16.8408Q14.8441 16.9043 14.9418 17.207Q15.0199 17.4414 15.1518 17.959Q15.2836 18.4766 15.4398 19.0967Q15.5961 19.7168 15.7328 20.2588Q15.8695 20.8008 15.9476 21.0742Q16.0355 21.4355 16.2504 21.6064Q16.4652 21.7773 16.7484 21.7773Q17.1586 21.7773 17.3734 21.4551Q17.5883 21.1328 17.4906 20.752Q17.4809 20.7031 17.3832 20.2979Q17.2855 19.8926 17.1439 19.3018Q17.0023 18.7109 16.8607 18.0811Q16.7191 17.4512 16.6068 16.9434Q16.4945 16.4355 16.4555 16.2012Q16.3969 15.8496 16.3676 15.3369Q16.3383 14.8242 16.3383 14.5703Q16.3383 14.4531 16.4408 14.4238Q16.5434 14.3945 16.6117 14.4922L17.8617 16.2988Q18.057 16.582 18.3402 16.6113Q18.6234 16.6406 18.8285 16.4844Q19.0238 16.3477 19.0922 16.0986Q19.1605 15.8496 18.975 15.5762L17.3539 13.0762Q16.934 12.4316 16.3139 12.1533Q15.6937 11.875 15.0199 11.875L14.6781 11.875Q14.1801 11.875 13.9066 11.7139Q13.6332 11.5527 13.3012 11.2012L12.266 10.0977Q12.0707 9.89258 11.7387 9.89746Q11.4066 9.90234 11.1918 10.1562Q10.9867 10.3613 10.9428 10.6396Q10.8988 10.918 11.0648 11.1719Q11.1234 11.2598 11.3969 11.582Q11.6703 11.9043 12.0463 12.3438Q12.4223 12.7832 12.7738 13.2227Q12.891 13.3691 12.9545 13.5205Q13.018 13.6719 13.018 13.8867Q13.018 14.1309 13.0082 14.5605Q12.9984 14.9902 12.974 15.4443Q12.9496 15.8984 12.9008 16.2012Q12.8617 16.4355 12.7494 16.9434Q12.6371 17.4512 12.4906 18.0811Q12.3441 18.7109 12.2074 19.3018Q12.0707 19.8926 11.973 20.2979Q11.8754 20.7031 11.8559 20.752Q11.7582 21.1328 11.973 21.4551Q12.1879 21.7773 12.6078 21.7773Z" fill="#ffffff"/>
 </g>
</svg>
