<?xml version="1.0" encoding="UTF-8"?>
<!--Generator: Apple Native CoreSVG 175.5-->
<!DOCTYPE svg
PUBLIC "-//W3C//DTD SVG 1.1//EN"
       "http://www.w3.org/Graphics/SVG/1.1/DTD/svg11.dtd">
<svg version="1.1" xmlns="http://www.w3.org/2000/svg" xmlns:xlink="http://www.w3.org/1999/xlink" width="23.1152" height="16.6309">
 <g>
  <rect height="16.6309" opacity="0" width="23.1152" x="0" y="0"/>
  <path d="M11.4844 4.27734Q12.0801 4.27734 12.5635 3.98926Q13.0469 3.70117 13.335 3.21289Q13.623 2.72461 13.623 2.13867Q13.623 1.54297 13.335 1.05957Q13.0469 0.576172 12.5635 0.288086Q12.0801 0 11.4844 0Q10.8984 0 10.415 0.288086Q9.93164 0.576172 9.64355 1.05957Q9.35547 1.54297 9.35547 2.13867Q9.35547 2.72461 9.64355 3.21289Q9.93164 3.70117 10.415 3.98926Q10.8984 4.27734 11.4844 4.27734ZM1.00586 2.8125L8.18359 6.66016Q8.35938 6.75781 8.44727 6.92871Q8.53516 7.09961 8.47656 7.29492L7.7832 9.82422Q8.4668 9.96094 8.95508 10.2051Q9.44336 10.4492 9.84375 10.7031Q10.2441 10.957 10.6494 11.1328Q11.0547 11.3086 11.5527 11.3086Q11.8359 11.3086 12.0752 11.2402Q12.3145 11.1719 12.5391 11.0645L13.4863 7.56836Q13.5645 7.29492 13.6719 7.13379Q13.7793 6.97266 14.0527 6.82617L21.5723 2.8125Q21.9727 2.58789 22.1094 2.14844Q22.2461 1.70898 22.041 1.30859Q21.8066 0.908203 21.3721 0.766602Q20.9375 0.625 20.5273 0.849609L13.0664 4.80469Q12.1875 5.27344 11.3086 5.29297Q10.4297 5.3125 9.375 4.75586L2.05078 0.849609Q1.64062 0.625 1.20117 0.766602Q0.761719 0.908203 0.546875 1.30859Q0.332031 1.70898 0.463867 2.14844Q0.595703 2.58789 1.00586 2.8125ZM0.546875 13.8867L1.5332 13.8867Q2.50977 13.8867 3.16895 13.6426Q3.82812 13.3984 4.34082 13.0811Q4.85352 12.7637 5.36133 12.5195Q5.86914 12.2754 6.54297 12.2754Q7.22656 12.2754 7.73438 12.5195Q8.24219 12.7637 8.75 13.0811Q9.25781 13.3984 9.91699 13.6426Q10.5762 13.8867 11.5527 13.8867Q12.5391 13.8867 13.1982 13.6426Q13.8574 13.3984 14.3652 13.0811Q14.873 12.7637 15.3809 12.5195Q15.8887 12.2754 16.5723 12.2754Q17.2461 12.2754 17.7539 12.5195Q18.2617 12.7637 18.7695 13.0811Q19.2773 13.3984 19.9365 13.6426Q20.5957 13.8867 21.582 13.8867L22.5684 13.8867Q22.8027 13.8867 22.959 13.7305Q23.1152 13.5742 23.1152 13.3496Q23.1152 13.1152 22.959 12.959Q22.8027 12.8027 22.5684 12.8027L21.582 12.8027Q20.8789 12.8027 20.3516 12.5586Q19.8242 12.3145 19.3115 11.9971Q18.7988 11.6797 18.1543 11.4355Q17.5098 11.1914 16.5723 11.1914Q15.625 11.1914 14.9805 11.4355Q14.3359 11.6797 13.8232 11.9971Q13.3105 12.3145 12.7832 12.5586Q12.2559 12.8027 11.5527 12.8027Q10.8496 12.8027 10.3223 12.5586Q9.79492 12.3145 9.28223 11.9971Q8.76953 11.6797 8.125 11.4355Q7.48047 11.1914 6.54297 11.1914Q5.60547 11.1914 4.96094 11.4355Q4.31641 11.6797 3.80371 11.9971Q3.29102 12.3145 2.76367 12.5586Q2.23633 12.8027 1.5332 12.8027L0.546875 12.8027Q0.3125 12.8027 0.15625 12.959Q0 13.1152 0 13.3496Q0 13.5742 0.15625 13.7305Q0.3125 13.8867 0.546875 13.8867ZM0.800781 16.6016Q1.04492 16.6016 1.21094 16.4355Q1.37695 16.2695 1.37695 16.0254Q1.37695 15.791 1.21094 15.625Q1.04492 15.459 0.800781 15.459Q0.566406 15.459 0.400391 15.625Q0.234375 15.791 0.234375 16.0254Q0.234375 16.2695 0.400391 16.4355Q0.566406 16.6016 0.800781 16.6016ZM2.63672 16.2695Q2.87109 16.2695 3.03711 16.1035Q3.20312 15.9375 3.20312 15.7031Q3.20312 15.459 3.03711 15.293Q2.87109 15.127 2.63672 15.127Q2.39258 15.127 2.22656 15.293Q2.06055 15.459 2.06055 15.7031Q2.06055 15.9375 2.22656 16.1035Q2.39258 16.2695 2.63672 16.2695ZM4.3457 15.459Q4.58984 15.459 4.75586 15.2979Q4.92188 15.1367 4.92188 14.8926Q4.92188 14.6582 4.75586 14.4922Q4.58984 14.3262 4.3457 14.3262Q4.11133 14.3262 3.94531 14.4922Q3.7793 14.6582 3.7793 14.8926Q3.7793 15.1367 3.94531 15.2979Q4.11133 15.459 4.3457 15.459ZM6.19141 15.0293Q6.43555 15.0293 6.60156 14.8633Q6.76758 14.6973 6.76758 14.4531Q6.76758 14.2188 6.60156 14.0527Q6.43555 13.8867 6.19141 13.8867Q5.95703 13.8867 5.79102 14.0527Q5.625 14.2188 5.625 14.4531Q5.625 14.6973 5.79102 14.8633Q5.95703 15.0293 6.19141 15.0293ZM8.03711 15.459Q8.27148 15.459 8.4375 15.2979Q8.60352 15.1367 8.60352 14.8926Q8.60352 14.6582 8.4375 14.4922Q8.27148 14.3262 8.03711 14.3262Q7.79297 14.3262 7.63184 14.4922Q7.4707 14.6582 7.4707 14.8926Q7.4707 15.1367 7.63184 15.2979Q7.79297 15.459 8.03711 15.459ZM9.76562 16.2695Q10.0098 16.2695 10.1758 16.1035Q10.3418 15.9375 10.3418 15.7031Q10.3418 15.459 10.1758 15.293Q10.0098 15.127 9.76562 15.127Q9.53125 15.127 9.36523 15.293Q9.19922 15.459 9.19922 15.7031Q9.19922 15.9375 9.36523 16.1035Q9.53125 16.2695 9.76562 16.2695ZM11.5723 16.6016Q11.8066 16.6016 11.9727 16.4355Q12.1387 16.2695 12.1387 16.0254Q12.1387 15.791 11.9727 15.625Q11.8066 15.459 11.5723 15.459Q11.3281 15.459 11.1621 15.625Q10.9961 15.791 10.9961 16.0254Q10.9961 16.2695 11.1621 16.4355Q11.3281 16.6016 11.5723 16.6016ZM13.3691 16.2695Q13.6133 16.2695 13.7744 16.1035Q13.9355 15.9375 13.9355 15.7031Q13.9355 15.459 13.7744 15.293Q13.6133 15.127 13.3691 15.127Q13.1348 15.127 12.9688 15.293Q12.8027 15.459 12.8027 15.7031Q12.8027 15.9375 12.9688 16.1035Q13.1348 16.2695 13.3691 16.2695ZM15.0977 15.459Q15.3418 15.459 15.5078 15.2979Q15.6738 15.1367 15.6738 14.8926Q15.6738 14.6582 15.5078 14.4922Q15.3418 14.3262 15.0977 14.3262Q14.8633 14.3262 14.6973 14.4922Q14.5312 14.6582 14.5312 14.8926Q14.5312 15.1367 14.6973 15.2979Q14.8633 15.459 15.0977 15.459ZM16.9434 15.0293Q17.1875 15.0293 17.3486 14.8633Q17.5098 14.6973 17.5098 14.4531Q17.5098 14.2188 17.3486 14.0527Q17.1875 13.8867 16.9434 13.8867Q16.709 13.8867 16.543 14.0527Q16.377 14.2188 16.377 14.4531Q16.377 14.6973 16.543 14.8633Q16.709 15.0293 16.9434 15.0293ZM18.7891 15.459Q19.0332 15.459 19.1943 15.2979Q19.3555 15.1367 19.3555 14.8926Q19.3555 14.6582 19.1943 14.4922Q19.0332 14.3262 18.7891 14.3262Q18.5547 14.3262 18.3887 14.4922Q18.2227 14.6582 18.2227 14.8926Q18.2227 15.1367 18.3887 15.2979Q18.5547 15.459 18.7891 15.459ZM20.5078 16.2695Q20.7422 16.2695 20.9082 16.1035Q21.0742 15.9375 21.0742 15.7031Q21.0742 15.459 20.9082 15.293Q20.7422 15.127 20.5078 15.127Q20.2637 15.127 20.1025 15.293Q19.9414 15.459 19.9414 15.7031Q19.9414 15.9375 20.1025 16.1035Q20.2637 16.2695 20.5078 16.2695ZM22.3242 16.6016Q22.5684 16.6016 22.7344 16.4355Q22.9004 16.2695 22.9004 16.0254Q22.9004 15.791 22.7344 15.625Q22.5684 15.459 22.3242 15.459Q22.0898 15.459 21.9238 15.625Q21.7578 15.791 21.7578 16.0254Q21.7578 16.2695 21.9238 16.4355Q22.0898 16.6016 22.3242 16.6016Z" fill="#ffffff"/>
 </g>
</svg>
