<?xml version="1.0" encoding="UTF-8"?>
<!--Generator: Apple Native CoreSVG 175.5-->
<!DOCTYPE svg
PUBLIC "-//W3C//DTD SVG 1.1//EN"
       "http://www.w3.org/Graphics/SVG/1.1/DTD/svg11.dtd">
<svg version="1.1" xmlns="http://www.w3.org/2000/svg" xmlns:xlink="http://www.w3.org/1999/xlink" width="19.7949" height="22.4707">
 <g>
  <rect height="22.4707" opacity="0" width="19.7949" x="0" y="0"/>
  <path d="M15.6348 4.25781Q16.2207 4.25781 16.6992 3.96973Q17.1777 3.68164 17.4658 3.19824Q17.7539 2.71484 17.7539 2.11914Q17.7539 1.5332 17.4658 1.05469Q17.1777 0.576172 16.6992 0.288086Q16.2207 0 15.6348 0Q15.0391 0 14.5557 0.288086Q14.0723 0.576172 13.7842 1.05469Q13.4961 1.5332 13.4961 2.11914Q13.4961 2.71484 13.7842 3.19824Q14.0723 3.68164 14.5557 3.96973Q15.0391 4.25781 15.6348 4.25781ZM8.08594 12.4902L13.0566 16.2793L11.5137 21.0449Q11.3477 21.5625 11.5967 21.9043Q11.8457 22.2461 12.2363 22.3438Q12.5781 22.4219 12.9297 22.2559Q13.2812 22.0898 13.4375 21.6113L15.166 16.2695Q15.2637 15.9766 15.21 15.6836Q15.1562 15.3906 14.9512 15.1953L11.6113 11.8555L15.4492 8.00781Q15.5762 7.88086 15.7422 7.88086Q15.9082 7.88086 16.0352 8.00781L17.3633 9.32617L15.5469 11.1426Q15.2441 11.4453 15.249 11.8652Q15.2539 12.2852 15.5469 12.5781Q15.8203 12.8516 16.2451 12.8662Q16.6699 12.8809 16.9727 12.5781L19.502 10.0488Q19.7949 9.74609 19.7949 9.33594Q19.7949 8.92578 19.502 8.62305L17.0605 6.16211Q16.1816 5.2832 14.9316 5.2832L3.20312 5.2832Q2.79297 5.2832 2.49512 5.57617Q2.19727 5.86914 2.19727 6.28906Q2.19727 6.70898 2.49512 7.00684Q2.79297 7.30469 3.20312 7.30469L9.94141 7.30469Q10.1953 7.30469 10.2881 7.51465Q10.3809 7.72461 10.1953 7.90039L8.24219 9.85352Q7.80273 10.293 7.67578 10.8203Q7.54883 11.3477 7.66602 11.8066Q7.7832 12.2656 8.08594 12.4902ZM7.79297 13.4473L7.30469 16.416L2.62695 16.416Q2.1875 16.416 1.89453 16.7139Q1.60156 17.0117 1.60156 17.4316Q1.60156 17.8516 1.89453 18.1445Q2.1875 18.4375 2.62695 18.4375L8.11523 18.4375Q8.91602 18.4375 9.13086 17.7051L9.92188 15.0781ZM2.19727 10.6836Q2.80273 10.6836 3.30078 10.3857Q3.79883 10.0879 4.09668 9.58984Q4.39453 9.0918 4.39453 8.48633Q4.39453 7.88086 4.09668 7.38281Q3.79883 6.88477 3.30078 6.58691Q2.80273 6.28906 2.19727 6.28906Q1.5918 6.28906 1.09375 6.58691Q0.595703 6.88477 0.297852 7.38281Q0 7.88086 0 8.48633Q0 9.0918 0.297852 9.58984Q0.595703 10.0879 1.09375 10.3857Q1.5918 10.6836 2.19727 10.6836Z" fill="#ffffff"/>
 </g>
</svg>
