<?xml version="1.0" encoding="UTF-8"?>
<!--Generator: Apple Native CoreSVG 175.5-->
<!DOCTYPE svg
PUBLIC "-//W3C//DTD SVG 1.1//EN"
       "http://www.w3.org/Graphics/SVG/1.1/DTD/svg11.dtd">
<svg version="1.1" xmlns="http://www.w3.org/2000/svg" xmlns:xlink="http://www.w3.org/1999/xlink" width="18.8488" height="23.1934">
 <g>
  <rect height="23.1934" opacity="0" width="18.8488" x="0" y="0"/>
  <path d="M2.14844 4.26758Q2.73438 4.26758 3.21289 3.97949Q3.69141 3.69141 3.97949 3.20312Q4.26758 2.71484 4.26758 2.11914Q4.26758 1.5332 3.97949 1.0498Q3.69141 0.566406 3.21289 0.283203Q2.73438 0 2.14844 0Q1.55273 0 1.06445 0.283203Q0.576172 0.566406 0.288086 1.0498Q0 1.5332 0 2.11914Q0 2.71484 0.288086 3.20312Q0.576172 3.69141 1.06445 3.97949Q1.55273 4.26758 2.14844 4.26758ZM1.02539 12.2168L5.06836 12.2168L5.3125 12.4609Q5.68359 12.8223 6.15234 13.0078Q6.62109 13.1934 7.10938 13.1934Q7.50977 13.1934 7.89551 13.0713Q8.28125 12.9492 8.62305 12.6855L13.5059 9.0332L18.3594 6.11328Q18.7109 5.9082 18.8135 5.5127Q18.916 5.11719 18.7207 4.76562Q18.4961 4.41406 18.1006 4.31641Q17.7051 4.21875 17.3535 4.43359L8.10547 9.9707L5.53711 7.39258Q5.48828 7.35352 5.50781 7.2998Q5.52734 7.24609 5.5957 7.24609L7.94922 7.24609Q8.35938 7.24609 8.65234 6.95801Q8.94531 6.66992 8.94531 6.25977L8.94531 1.94336Q8.94531 1.52344 8.65234 1.23535Q8.35938 0.947266 7.94922 0.947266Q7.53906 0.947266 7.25098 1.23535Q6.96289 1.52344 6.96289 1.94336L6.96289 5.2832L2.00195 5.2832Q1.46484 5.2832 1.01562 5.55176Q0.566406 5.82031 0.302734 6.26465Q0.0390625 6.70898 0.0390625 7.24609L0.0390625 11.2305Q0.0390625 11.6309 0.322266 11.9238Q0.605469 12.2168 1.02539 12.2168ZM1.93359 10.2832L1.93359 9.3457Q1.93359 9.24805 2.02148 9.2041Q2.10938 9.16016 2.1875 9.23828L3.23242 10.2832ZM7.25586 23.0957Q7.63672 23.1641 7.99316 22.9443Q8.34961 22.7246 8.4375 22.3145L9.42383 17.3633Q9.45312 17.207 9.43359 17.002L9.24805 13.3984Q8.74023 13.7793 8.19824 13.9551Q7.65625 14.1309 7.10938 14.1309Q7.04102 14.1309 6.96777 14.1309Q6.89453 14.1309 6.82617 14.1211L7.43164 17.168L6.48438 21.9238Q6.40625 22.3242 6.63574 22.6709Q6.86523 23.0176 7.25586 23.0957ZM8.44727 3.41797Q9.0625 3.41797 9.50195 2.98828Q9.94141 2.55859 9.94141 1.94336Q9.94141 1.32812 9.50195 0.893555Q9.0625 0.458984 8.44727 0.458984Q7.83203 0.458984 7.39746 0.893555Q6.96289 1.32812 6.96289 1.94336Q6.96289 2.55859 7.39746 2.98828Q7.83203 3.41797 8.44727 3.41797Z" fill="#ffffff"/>
 </g>
</svg>
