<?xml version="1.0" encoding="UTF-8"?>
<!--Generator: Apple Native CoreSVG 175.5-->
<!DOCTYPE svg
PUBLIC "-//W3C//DTD SVG 1.1//EN"
       "http://www.w3.org/Graphics/SVG/1.1/DTD/svg11.dtd">
<svg version="1.1" xmlns="http://www.w3.org/2000/svg" xmlns:xlink="http://www.w3.org/1999/xlink" width="20.9163" height="17.8809">
 <g>
  <rect height="17.8809" opacity="0" width="20.9163" x="0" y="0"/>
  <path d="M10.5057 4.26758Q11.0916 4.26758 11.575 3.97949Q12.0584 3.69141 12.3465 3.20312Q12.6346 2.71484 12.6346 2.11914Q12.6346 1.5332 12.3465 1.05469Q12.0584 0.576172 11.575 0.288086Q11.0916-1.77636e-15 10.5057-1.77636e-15Q9.90997-1.77636e-15 9.42657 0.288086Q8.94318 0.576172 8.65509 1.05469Q8.367 1.5332 8.367 2.11914Q8.367 2.71484 8.65509 3.20312Q8.94318 3.69141 9.42657 3.97949Q9.90997 4.26758 10.5057 4.26758ZM1.42365 13.3008L6.32599 13.7109Q6.76544 13.75 7.02911 13.7891Q7.29279 13.8281 7.55157 13.8965Q7.81036 13.9648 8.23029 14.082L14.2068 15.7617L19.5779 17.7246Q19.9295 17.8516 20.325 17.7148Q20.7205 17.5781 20.867 17.1289Q20.9842 16.7383 20.8231 16.3672Q20.6619 15.9961 20.2713 15.8594L14.91 13.9062Q14.8416 13.8867 14.7342 13.8428Q14.6268 13.7988 14.5779 13.7793L10.408 12.2754Q10.8182 11.4746 11.2918 10.2588Q11.7654 9.04297 11.9119 7.64648Q11.951 7.32422 12.2635 7.32422L19.4315 7.32422Q19.8514 7.32422 20.1346 7.03125Q20.4178 6.73828 20.4178 6.32812Q20.4178 5.9082 20.1346 5.62012Q19.8514 5.33203 19.4315 5.33203L11.5701 5.33203Q11.0721 5.33203 10.7596 5.32227Q10.4471 5.3125 10.1785 5.27832Q9.90997 5.24414 9.57306 5.16113Q9.23615 5.07812 8.69904 4.93164L1.2674 2.87109Q0.867004 2.76367 0.510559 2.96875Q0.154114 3.17383 0.0369263 3.56445Q-0.0704956 3.96484 0.134583 4.32617Q0.339661 4.6875 0.730286 4.79492L7.66388 6.70898Q7.96661 6.79687 7.93732 7.09961Q7.8299 7.97852 7.55157 8.79395Q7.27325 9.60937 6.95587 10.2686Q6.63849 10.9277 6.41388 11.3086L2.49786 11.3086L2.49786 7.32422Q2.49786 6.91406 2.20001 6.62109Q1.90216 6.32812 1.492 6.32812Q1.08185 6.32812 0.788879 6.62109Q0.495911 6.91406 0.495911 7.32422L0.495911 12.2949Q0.495911 12.7344 0.710754 12.9932Q0.925598 13.252 1.42365 13.3008Z" fill="#ffffff"/>
 </g>
</svg>
