<?xml version="1.0" encoding="UTF-8"?>
<!--Generator: Apple Native CoreSVG 175.5-->
<!DOCTYPE svg
PUBLIC "-//W3C//DTD SVG 1.1//EN"
       "http://www.w3.org/Graphics/SVG/1.1/DTD/svg11.dtd">
<svg version="1.1" xmlns="http://www.w3.org/2000/svg" xmlns:xlink="http://www.w3.org/1999/xlink" width="26.0884" height="23.4473">
 <g>
  <rect height="23.4473" opacity="0" width="26.0884" x="0" y="0"/>
  <path d="M5.29738 5.6543Q6.09816 5.6543 6.65968 5.08789Q7.22121 4.52148 7.22121 3.7207Q7.22121 2.91992 6.65968 2.3584Q6.09816 1.79688 5.29738 1.79688Q4.4966 1.79688 3.93019 2.3584Q3.36379 2.91992 3.36379 3.7207Q3.36379 4.52148 3.93019 5.08789Q4.4966 5.6543 5.29738 5.6543ZM4.13527 21.5137Q4.4966 21.5137 4.74562 21.2646Q4.99464 21.0156 4.99464 20.6543L4.99464 17.0312Q4.99464 16.7383 5.29738 16.7383Q5.59035 16.7383 5.59035 17.0312L5.59035 20.6543Q5.59035 21.0156 5.83937 21.2646Q6.08839 21.5137 6.44972 21.5137Q6.80129 21.5137 7.05519 21.2646Q7.3091 21.0156 7.3091 20.6543L7.3091 17.0312L8.5005 17.0312Q8.86183 17.0312 9.00832 16.7676Q9.1548 16.5039 9.04738 16.1523L7.26027 10.4395Q7.19191 10.2344 7.31398 10.1221Q7.43605 10.0098 7.59718 10.0391Q7.75832 10.0684 7.82668 10.2832L8.93996 13.8477Q9.06691 14.2578 9.37453 14.3994Q9.68214 14.541 9.99464 14.4531Q10.3071 14.3652 10.4829 14.0918Q10.6587 13.8184 10.5318 13.3984L9.4966 10.0977Q9.16457 9.01367 8.73976 8.24219Q8.31496 7.4707 7.58254 7.06543Q6.85011 6.66016 5.59035 6.66016L4.99464 6.66016Q3.73488 6.66016 3.00246 7.06543Q2.27004 7.4707 1.84523 8.24219Q1.42043 9.01367 1.07863 10.0977L0.0532384 13.3984Q-0.0737147 13.8184 0.102067 14.0918Q0.277848 14.3652 0.590348 14.4531Q0.902848 14.541 1.20558 14.3994Q1.50832 14.2578 1.64504 13.8477L2.75832 10.2832Q2.81691 10.0684 2.98293 10.0391Q3.14894 10.0098 3.26613 10.1221Q3.38332 10.2344 3.31496 10.4395L1.53761 16.1523Q1.42043 16.5039 1.56691 16.7676Q1.71339 17.0312 2.07472 17.0312L3.26613 17.0312L3.26613 20.6543Q3.26613 21.0156 3.52004 21.2646Q3.77394 21.5137 4.13527 21.5137ZM21.9185 5.6543Q22.7193 5.6543 23.2808 5.08789Q23.8423 4.52148 23.8423 3.7207Q23.8423 2.91992 23.2808 2.3584Q22.7193 1.79688 21.9185 1.79688Q21.1177 1.79688 20.5513 2.3584Q19.9849 2.91992 19.9849 3.7207Q19.9849 4.52148 20.5513 5.08789Q21.1177 5.6543 21.9185 5.6543ZM20.7564 21.5137Q21.1275 21.5137 21.3716 21.2646Q21.6157 21.0156 21.6157 20.6543L21.6157 14.3652Q21.6157 14.0723 21.9185 14.0723Q22.2114 14.0723 22.2114 14.3652L22.2114 20.6543Q22.2114 21.0156 22.4653 21.2646Q22.7193 21.5137 23.0806 21.5137Q23.4419 21.5137 23.6909 21.2646Q23.94 21.0156 23.94 20.6543L23.94 10.3223Q23.94 10.0391 24.2329 10.0391Q24.5161 10.0391 24.5161 10.3223L24.5161 13.7305Q24.5161 14.0625 24.7456 14.2969Q24.9751 14.5312 25.3071 14.5312Q25.6294 14.5312 25.8589 14.2969Q26.0884 14.0625 26.0884 13.7305L26.0884 9.92188Q26.0884 8.94531 25.6441 8.21289Q25.1997 7.48047 24.4038 7.0752Q23.6079 6.66992 22.563 6.66992L21.2739 6.66992Q20.229 6.66992 19.4331 7.0752Q18.6372 7.48047 18.188 8.21289Q17.7388 8.94531 17.7388 9.92188L17.7388 13.7305Q17.7388 14.0625 17.9732 14.2969Q18.2075 14.5312 18.5298 14.5312Q18.8618 14.5312 19.0913 14.2969Q19.3208 14.0625 19.3208 13.7305L19.3208 10.3223Q19.3208 10.0391 19.604 10.0391Q19.897 10.0391 19.897 10.3223L19.897 20.6543Q19.897 21.0156 20.146 21.2646Q20.395 21.5137 20.7564 21.5137Z" fill="#ffffff"/>
  <path d="M13.8618 23.4375Q14.1939 23.4375 14.4234 23.2178Q14.6528 22.998 14.6528 22.6758L14.6528 0.761719Q14.6528 0.429688 14.4234 0.214844Q14.1939 0 13.8618 0Q13.5396 0 13.3101 0.214844Q13.0806 0.429688 13.0806 0.761719L13.0806 22.6758Q13.0806 22.998 13.3101 23.2178Q13.5396 23.4375 13.8618 23.4375Z" fill="rgba(255,255,255,0.5)"/>
 </g>
</svg>
