<?xml version="1.0" encoding="UTF-8"?>
<!--Generator: Apple Native CoreSVG 175.5-->
<!DOCTYPE svg
PUBLIC "-//W3C//DTD SVG 1.1//EN"
       "http://www.w3.org/Graphics/SVG/1.1/DTD/svg11.dtd">
<svg version="1.1" xmlns="http://www.w3.org/2000/svg" xmlns:xlink="http://www.w3.org/1999/xlink" width="24.3562" height="22.0605">
 <g>
  <rect height="22.0605" opacity="0" width="24.3562" x="0" y="0"/>
  <path d="M6.56288 4.20898Q7.14882 4.20898 7.62734 3.93066Q8.10585 3.65234 8.38905 3.17383Q8.67226 2.69531 8.67226 2.10938Q8.67226 1.52344 8.38905 1.04492Q8.10585 0.566406 7.62734 0.283203Q7.14882 0 6.56288 0Q5.97695 0 5.49843 0.283203Q5.01991 0.566406 4.73671 1.04492Q4.45351 1.52344 4.45351 2.10938Q4.45351 2.69531 4.73671 3.17383Q5.01991 3.65234 5.49843 3.93066Q5.97695 4.20898 6.56288 4.20898ZM6.56288 13.6621Q6.86562 13.6621 7.02187 13.8867Q7.17812 14.1113 7.34413 14.6387Q7.44179 14.9316 7.6078 15.5469Q7.77382 16.1621 7.96913 16.9287Q8.16445 17.6953 8.36464 18.4766Q8.56484 19.2578 8.73085 19.9072Q8.89687 20.5566 8.99452 20.918Q9.2289 21.7773 9.93202 21.7773Q10.4008 21.7773 10.6498 21.416Q10.8988 21.0547 10.7621 20.5957Q10.7426 20.5273 10.6254 20.0488Q10.5082 19.5703 10.3373 18.8379Q10.1664 18.1055 9.9662 17.2559Q9.76601 16.4062 9.58046 15.5908Q9.39491 14.7754 9.2582 14.1357Q9.12148 13.4961 9.07265 13.1934Q9.01405 12.793 8.97499 12.2266Q8.93593 11.6602 8.91152 11.0449Q8.8871 10.4297 8.87734 9.86816Q8.86757 9.30664 8.86757 8.92578Q8.86757 8.80859 8.96523 8.7793Q9.06288 8.75 9.14101 8.84766Q9.41445 9.22852 9.77089 9.73633Q10.1273 10.2441 10.4838 10.7422Q10.8402 11.2402 11.1088 11.6113Q11.3773 11.9824 11.475 12.0996Q11.6996 12.3438 12.017 12.3926Q12.3344 12.4414 12.6176 12.2754Q12.9984 12.0801 13.0912 11.7334Q13.184 11.3867 13.0277 11.1035Q12.9691 10.9961 12.8959 10.8838Q12.8226 10.7715 12.7445 10.6641L10.2152 6.94336Q9.81484 6.34766 9.32167 5.97168Q8.82851 5.5957 8.15956 5.41504Q7.49062 5.23438 6.56288 5.23438Q5.63515 5.23438 4.9662 5.41504Q4.29726 5.5957 3.80409 5.97168Q3.31093 6.34766 2.91054 6.94336L0.381242 10.6641Q0.303117 10.7715 0.229875 10.8838Q0.156633 10.9961 0.0980392 11.1035Q-0.0582108 11.3867 0.0345627 11.7334Q0.127336 12.0801 0.508195 12.2754Q0.791399 12.4414 1.10878 12.3926Q1.42616 12.3438 1.64101 12.0996Q1.74843 11.9824 2.01698 11.6113Q2.28554 11.2402 2.6371 10.7422Q2.98866 10.2441 3.34999 9.74121Q3.71132 9.23828 3.98476 8.84766Q4.05312 8.75 4.15566 8.78418Q4.2582 8.81836 4.2582 8.93555Q4.2582 9.31641 4.24843 9.87305Q4.23866 10.4297 4.21425 11.0449Q4.18984 11.6602 4.15077 12.2266Q4.11171 12.793 4.04335 13.1934Q3.99452 13.4961 3.8578 14.1357Q3.72109 14.7754 3.54042 15.5908Q3.35976 16.4062 3.15956 17.2559Q2.95937 18.1055 2.78359 18.8379Q2.6078 19.5703 2.4955 20.0488Q2.3832 20.5273 2.36366 20.5957Q2.22695 21.0547 2.47597 21.416Q2.72499 21.7773 3.19374 21.7773Q3.89687 21.7773 4.13124 20.918Q4.2289 20.5566 4.39491 19.9072Q4.56093 19.2578 4.75624 18.4766Q4.95155 17.6953 5.15175 16.9287Q5.35195 16.1621 5.51796 15.5469Q5.68398 14.9316 5.78163 14.6387Q5.94765 14.1113 6.1039 13.8867Q6.26015 13.6621 6.56288 13.6621ZM17.7934 4.20898Q18.3793 4.20898 18.8578 3.93066Q19.3363 3.65234 19.6195 3.17383Q19.9027 2.69531 19.9027 2.10938Q19.9027 1.52344 19.6195 1.04492Q19.3363 0.566406 18.8578 0.283203Q18.3793 0 17.7934 0Q17.2074 0 16.7289 0.283203Q16.2504 0.566406 15.9672 1.04492Q15.684 1.52344 15.684 2.10938Q15.684 2.69531 15.9672 3.17383Q16.2504 3.65234 16.7289 3.93066Q17.2074 4.20898 17.7934 4.20898ZM17.7934 13.6621Q18.0961 13.6621 18.2523 13.8867Q18.4086 14.1113 18.5746 14.6387Q18.6723 14.9316 18.8383 15.5469Q19.0043 16.1621 19.1996 16.9287Q19.3949 17.6953 19.5951 18.4766Q19.7953 19.2578 19.9613 19.9072Q20.1273 20.5566 20.225 20.918Q20.4594 21.7773 21.1625 21.7773Q21.6312 21.7773 21.8803 21.416Q22.1293 21.0547 21.9926 20.5957Q21.973 20.5273 21.8559 20.0488Q21.7387 19.5703 21.5678 18.8379Q21.3969 18.1055 21.1967 17.2559Q20.9965 16.4062 20.8109 15.5908Q20.6254 14.7754 20.4887 14.1357Q20.3519 13.4961 20.3031 13.1934Q20.2445 12.793 20.2055 12.2266Q20.1664 11.6602 20.142 11.0449Q20.1176 10.4297 20.1078 9.86816Q20.098 9.30664 20.098 8.92578Q20.098 8.80859 20.1957 8.7793Q20.2934 8.75 20.3715 8.84766Q20.6449 9.22852 21.0014 9.73633Q21.3578 10.2441 21.7143 10.7422Q22.0707 11.2402 22.3393 11.6113Q22.6078 11.9824 22.7055 12.0996Q22.9301 12.3438 23.2475 12.3926Q23.5648 12.4414 23.848 12.2754Q24.2289 12.0801 24.3217 11.7334Q24.4144 11.3867 24.2582 11.1035Q24.1996 10.9961 24.1264 10.8838Q24.0531 10.7715 23.975 10.6641L21.4457 6.94336Q21.0453 6.34766 20.5521 5.97168Q20.059 5.5957 19.39 5.41504Q18.7211 5.23438 17.7934 5.23438Q16.8656 5.23438 16.1967 5.41504Q15.5277 5.5957 15.0346 5.97168Q14.5414 6.34766 14.141 6.94336L11.6117 10.6641Q11.5336 10.7715 11.4603 10.8838Q11.3871 10.9961 11.3285 11.1035Q11.1723 11.3867 11.265 11.7334Q11.3578 12.0801 11.7387 12.2754Q12.0219 12.4414 12.3393 12.3926Q12.6566 12.3438 12.8715 12.0996Q12.9789 11.9824 13.2475 11.6113Q13.516 11.2402 13.8676 10.7422Q14.2191 10.2441 14.5805 9.74121Q14.9418 9.23828 15.2152 8.84766Q15.2836 8.75 15.3861 8.78418Q15.4887 8.81836 15.4887 8.93555Q15.4887 9.31641 15.4789 9.87305Q15.4691 10.4297 15.4447 11.0449Q15.4203 11.6602 15.3812 12.2266Q15.3422 12.793 15.2738 13.1934Q15.225 13.4961 15.0883 14.1357Q14.9516 14.7754 14.7709 15.5908Q14.5902 16.4062 14.39 17.2559Q14.1898 18.1055 14.0141 18.8379Q13.8383 19.5703 13.726 20.0488Q13.6137 20.5273 13.5941 20.5957Q13.4574 21.0547 13.7064 21.416Q13.9555 21.7773 14.4242 21.7773Q15.1273 21.7773 15.3617 20.918Q15.4594 20.5566 15.6254 19.9072Q15.7914 19.2578 15.9867 18.4766Q16.182 17.6953 16.3822 16.9287Q16.5824 16.1621 16.7484 15.5469Q16.9144 14.9316 17.0121 14.6387Q17.1781 14.1113 17.3344 13.8867Q17.4906 13.6621 17.7934 13.6621Z" fill="#ffffff"/>
 </g>
</svg>
