<?xml version="1.0" encoding="UTF-8"?>
<!--Generator: Apple Native CoreSVG 175.5-->
<!DOCTYPE svg
PUBLIC "-//W3C//DTD SVG 1.1//EN"
       "http://www.w3.org/Graphics/SVG/1.1/DTD/svg11.dtd">
<svg version="1.1" xmlns="http://www.w3.org/2000/svg" xmlns:xlink="http://www.w3.org/1999/xlink" width="24.1144" height="21.8066">
 <g>
  <rect height="21.8066" opacity="0" width="24.1144" x="0" y="0"/>
  <path d="M6.56985 4.45312Q7.12649 4.45312 7.58548 4.17969Q8.04446 3.90625 8.3179 3.44727Q8.59134 2.98828 8.59134 2.43164Q8.59134 1.875 8.3179 1.4209Q8.04446 0.966797 7.58548 0.693359Q7.12649 0.419922 6.56985 0.419922Q6.01321 0.419922 5.55911 0.693359Q5.10501 0.966797 4.83157 1.4209Q4.55813 1.875 4.55813 2.43164Q4.55813 2.98828 4.83157 3.44727Q5.10501 3.90625 5.55911 4.17969Q6.01321 4.45312 6.56985 4.45312ZM18.357 4.0332Q18.9136 4.0332 19.3726 3.75977Q19.8316 3.48633 20.105 3.02734Q20.3784 2.56836 20.3784 2.01172Q20.3784 1.46484 20.105 1.00586Q19.8316 0.546875 19.3726 0.273438Q18.9136 0 18.357 0Q17.8003 0 17.3462 0.273438Q16.8921 0.546875 16.6187 1.00586Q16.3452 1.46484 16.3452 2.01172Q16.3452 2.56836 16.6187 3.02734Q16.8921 3.48633 17.3462 3.75977Q17.8003 4.0332 18.357 4.0332ZM0.944852 6.93359L3.0054 7.09961Q3.23977 7.11914 3.23977 7.36328L3.23977 11.1035Q3.23977 11.6699 3.42044 12.1973Q3.6011 12.7246 3.9429 13.1641L6.35501 16.2695L5.12454 20.3613Q4.99759 20.7617 5.19778 21.1377Q5.39798 21.5137 5.7886 21.6211Q6.17923 21.7285 6.55032 21.5527Q6.92141 21.377 7.04837 20.9375L8.42532 16.3379Q8.44485 16.2793 8.45462 16.2207Q8.46438 16.1621 8.46438 16.0938L12.1949 20.8105Q12.4488 21.1328 12.8687 21.1865Q13.2886 21.2402 13.5913 20.9863Q13.9234 20.7129 13.9722 20.3027Q14.021 19.8926 13.7671 19.5703L7.10696 11.1426L7.4097 8.1543Q7.42923 7.98828 7.5513 7.91992Q7.67337 7.85156 7.81985 7.91992L10.1343 9.08203Q10.4077 9.22852 10.7984 9.22852L14.3628 9.22852Q14.7437 9.22852 15.0074 8.99414L16.6968 7.54883Q16.8238 7.43164 16.9556 7.47559Q17.0874 7.51953 17.146 7.66602L18.0933 10.3027L14.0991 11.3965Q13.7964 11.4844 13.5865 11.7188Q13.3765 11.9531 13.3472 12.2754L12.898 16.875Q12.8491 17.373 13.1909 17.6709Q13.5327 17.9688 13.9038 17.9688Q14.2847 17.9688 14.5728 17.7148Q14.8609 17.4609 14.8999 17.0703L15.2808 13.2422L18.0835 12.8125L16.7456 15.5078Q16.6284 15.7324 16.5894 15.9619Q16.5503 16.1914 16.6382 16.4258L18.4839 21.0254Q18.6597 21.4453 19.0454 21.5869Q19.4312 21.7285 19.7925 21.582Q20.1734 21.4258 20.3394 21.0449Q20.5054 20.6641 20.3491 20.2734L18.7085 16.1816L20.9741 12.959Q21.4038 12.3535 21.5601 11.6162Q21.7163 10.8789 21.5796 10.1562L21.2281 8.22266Q21.1988 8.02734 21.3257 7.91992Q21.4527 7.8125 21.6284 7.87109L22.7906 8.26172Q23.3863 8.4668 23.772 8.15918Q24.1577 7.85156 24.1089 7.25586L23.6402 2.60742Q23.6011 2.17773 23.274 1.91895Q22.9468 1.66016 22.5464 1.69922Q22.146 1.73828 21.8726 2.06543Q21.5991 2.39258 21.6382 2.8125L21.9507 5.87891L19.1773 4.95117Q18.3277 4.66797 17.4683 4.82422Q16.6089 4.98047 15.9058 5.58594L14.0015 7.22656L10.9156 7.22656L7.93704 5.74219Q7.28274 5.41016 6.55032 5.35156L2.3804 5.03906L3.3472 2.11914Q3.48391 1.71875 3.29837 1.34277Q3.11282 0.966797 2.7222 0.839844Q2.3218 0.712891 1.95071 0.898438Q1.57962 1.08398 1.45266 1.47461L0.0561798 5.60547Q-0.10007 6.07422 0.17825 6.48438Q0.45657 6.89453 0.944852 6.93359Z" fill="#ffffff"/>
 </g>
</svg>
