<?xml version="1.0" encoding="UTF-8"?>
<!--Generator: Apple Native CoreSVG 175.5-->
<!DOCTYPE svg
PUBLIC "-//W3C//DTD SVG 1.1//EN"
       "http://www.w3.org/Graphics/SVG/1.1/DTD/svg11.dtd">
<svg version="1.1" xmlns="http://www.w3.org/2000/svg" xmlns:xlink="http://www.w3.org/1999/xlink" width="21.2647" height="24.7053">
 <g>
  <rect height="24.7053" opacity="0" width="21.2647" x="0" y="0"/>
  <path d="M16.1328 9.81845Q16.7285 9.81845 17.2119 9.53036Q17.6953 9.24227 17.9834 8.75399Q18.2715 8.26571 18.2715 7.67977Q18.2715 7.08407 17.9834 6.60067Q17.6953 6.11727 17.2119 5.82919Q16.7285 5.5411 16.1328 5.5411Q15.5469 5.5411 15.0635 5.82919Q14.5801 6.11727 14.292 6.60067Q14.0039 7.08407 14.0039 7.67977Q14.0039 8.26571 14.292 8.75399Q14.5801 9.24227 15.0635 9.53036Q15.5469 9.81845 16.1328 9.81845ZM10.6348 0.619227Q9.95117-0.0741328 9.10645 0.00887505Q8.26172 0.0918829 7.19727 1.15634Q6.79688 1.55673 6.51855 2.18173Q6.24023 2.80673 6.0498 3.49032Q5.85938 4.17391 5.73242 4.75985L4.28711 6.21493Q3.95508 6.55673 3.99902 6.97177Q4.04297 7.3868 4.33594 7.67977L7.2168 10.5509Q7.51953 10.8243 7.91016 10.8243L9.86328 10.8243Q9.91211 10.8243 9.93164 10.8829Q9.95117 10.9415 9.90234 10.961L7.87109 11.9766Q7.22656 12.2989 6.84082 12.8409Q6.45508 13.3829 6.37695 14.0274Q6.29883 14.672 6.57227 15.3018Q6.8457 15.9317 7.5 16.42L11.1133 19.0567L9.01367 23.2559Q8.82812 23.6173 8.95508 24.0128Q9.08203 24.4083 9.44336 24.5841Q9.77539 24.7501 10.1709 24.6427Q10.5664 24.5352 10.7715 24.1446L13.1934 19.3009Q13.3398 18.9981 13.3301 18.6515Q13.3203 18.3048 12.9883 17.9727L10.0781 15.0724L13.8672 13.1876Q14.1504 13.0313 14.3848 13.2657L19.5898 18.461Q19.8828 18.754 20.2979 18.7442Q20.7129 18.7345 20.9766 18.461Q21.2598 18.1681 21.2646 17.7628Q21.2695 17.3575 20.9766 17.0645L13.3008 9.38876Q13.0469 9.13485 12.7637 8.99325Q12.4805 8.85165 12.1191 8.85165L8.32031 8.85165L5.75195 6.28329L6.51367 5.52157Q7.08984 5.40438 7.77832 5.21395Q8.4668 5.02352 9.08691 4.74032Q9.70703 4.45712 10.0977 4.05673Q11.1719 2.99227 11.2598 2.14755Q11.3477 1.30282 10.6348 0.619227ZM9.88281 1.39071Q10.2637 1.7618 10.1367 2.18661Q10.0098 2.61141 9.33594 3.29501Q9.05273 3.56845 8.64258 3.75888Q8.23242 3.9493 7.78809 4.08114Q7.34375 4.21298 6.94336 4.33016Q7.05078 3.92001 7.18262 3.47079Q7.31445 3.02157 7.50977 2.6163Q7.70508 2.21102 7.97852 1.92782Q8.65234 1.25399 9.07227 1.13192Q9.49219 1.00985 9.88281 1.39071ZM0.986328 20.7266L5.9375 20.7266Q6.25 20.7266 6.49414 20.5313Q6.73828 20.336 6.875 20.0626L7.93945 17.9434L6.92383 17.1915Q6.40625 16.8106 6.03516 16.3028L5.21484 18.7442L0.986328 18.7442Q0.585938 18.7442 0.292969 19.0372Q0 19.3302 0 19.7306Q0 20.1505 0.292969 20.4386Q0.585938 20.7266 0.986328 20.7266Z" fill="#ffffff"/>
 </g>
</svg>
