<?xml version="1.0" encoding="UTF-8"?>
<!--Generator: Apple Native CoreSVG 175.5-->
<!DOCTYPE svg
PUBLIC "-//W3C//DTD SVG 1.1//EN"
       "http://www.w3.org/Graphics/SVG/1.1/DTD/svg11.dtd">
<svg version="1.1" xmlns="http://www.w3.org/2000/svg" xmlns:xlink="http://www.w3.org/1999/xlink" width="20.4907" height="24.7754">
 <g>
  <rect height="24.7754" opacity="0" width="20.4907" x="0" y="0"/>
  <path d="M9.25914 6.72852Q9.84508 6.72852 10.3285 6.44043Q10.8119 6.15234 11.1 5.66895Q11.3881 5.18555 11.3881 4.59961Q11.3881 4.01367 11.1 3.53027Q10.8119 3.04688 10.3285 2.75879Q9.84508 2.4707 9.25914 2.4707Q8.67321 2.4707 8.18981 2.75879Q7.70641 3.04688 7.41832 3.53027Q7.13024 4.01367 7.13024 4.59961Q7.13024 5.18555 7.41832 5.66895Q7.70641 6.15234 8.18981 6.44043Q8.67321 6.72852 9.25914 6.72852ZM4.10289 21.5625L8.66344 21.5625Q8.94664 21.5625 9.21032 21.4307Q9.47399 21.2988 9.62047 21.0156L11.7006 17.1875Q11.7494 17.0801 11.8617 17.085Q11.974 17.0898 12.0131 17.1973L13.1068 20.127L9.16149 22.7539Q8.81969 22.9883 8.73668 23.3984Q8.65368 23.8086 8.88805 24.1699Q9.11266 24.5215 9.5277 24.6045Q9.94274 24.6875 10.2943 24.4434L14.7767 21.4746Q15.1088 21.2402 15.2601 20.8984Q15.4115 20.5566 15.3138 20.166L12.5795 9.29688Q12.4525 8.80859 12.8529 8.60352L19.9232 5.06836Q20.3041 4.88281 20.4359 4.47266Q20.5677 4.0625 20.3822 3.69141Q20.1966 3.31055 19.7914 3.17383Q19.3861 3.03711 19.0052 3.23242L4.31774 10.5859L1.97399 8.24219Q1.80797 8.07617 1.60289 7.93945L3.87828 3.94531L2.93102 3.4082L0.128285 8.31055Q-0.0377308 8.61328 0.0110973 8.9209Q0.0599254 9.22852 0.313832 9.47266L3.38024 12.5488Q3.58532 12.7441 3.92711 12.8223Q4.26891 12.9004 4.64977 12.7051L8.12633 10.957Q8.31188 10.8691 8.45836 10.9326Q8.60485 10.9961 8.64391 11.1523L9.68883 15.3516L8.01891 19.5117L4.10289 19.5117Q3.67321 19.5117 3.37536 19.8096Q3.0775 20.1074 3.0775 20.5371Q3.0775 20.957 3.37536 21.2598Q3.67321 21.5625 4.10289 21.5625ZM4.17125 4.25781Q4.75719 4.25781 5.24059 3.96973Q5.72399 3.68164 6.01207 3.19824Q6.30016 2.71484 6.30016 2.12891Q6.30016 1.5332 6.01207 1.05469Q5.72399 0.576172 5.24059 0.288086Q4.75719 0 4.17125 0Q3.57555 0 3.09215 0.288086Q2.60875 0.576172 2.32555 1.05469Q2.04235 1.5332 2.04235 2.12891Q2.04235 2.71484 2.32555 3.19824Q2.60875 3.68164 3.09215 3.96973Q3.57555 4.25781 4.17125 4.25781ZM4.17125 3.17383Q3.72203 3.17383 3.42418 2.87598Q3.12633 2.57812 3.12633 2.12891Q3.12633 1.67969 3.42418 1.38184Q3.72203 1.08398 4.17125 1.08398Q4.61071 1.08398 4.91344 1.38184Q5.21618 1.67969 5.21618 2.12891Q5.21618 2.57812 4.91344 2.87598Q4.61071 3.17383 4.17125 3.17383Z" fill="#ffffff"/>
 </g>
</svg>
