<?xml version="1.0" encoding="UTF-8"?>
<!--Generator: Apple Native CoreSVG 175.5-->
<!DOCTYPE svg
PUBLIC "-//W3C//DTD SVG 1.1//EN"
       "http://www.w3.org/Graphics/SVG/1.1/DTD/svg11.dtd">
<svg version="1.1" xmlns="http://www.w3.org/2000/svg" xmlns:xlink="http://www.w3.org/1999/xlink" width="14.0918" height="24.6465">
 <g>
  <rect height="24.6465" opacity="0" width="14.0918" x="0" y="0"/>
  <path d="M6.03516 9.80859Q6.62109 9.80859 7.09961 9.52051Q7.57812 9.23242 7.86133 8.74902Q8.14453 8.26562 8.14453 7.66992Q8.14453 7.08398 7.86133 6.60547Q7.57812 6.12695 7.09961 5.83887Q6.62109 5.55078 6.03516 5.55078Q5.43945 5.55078 4.95117 5.83887Q4.46289 6.12695 4.17969 6.60547Q3.89648 7.08398 3.89648 7.66992Q3.89648 8.26562 4.17969 8.74902Q4.46289 9.23242 4.95117 9.52051Q5.43945 9.80859 6.03516 9.80859ZM0.996094 24.6426L6.03516 24.6426Q6.49414 24.6426 6.72363 24.4277Q6.95312 24.2129 7.02148 23.8125L7.88086 19.1055L11.8652 19.1055L11.084 23.4414Q10.9961 23.9688 11.2744 24.2861Q11.5527 24.6035 11.9336 24.6426Q12.3047 24.6719 12.6465 24.4814Q12.9883 24.291 13.0762 23.8125L14.0527 18.373Q14.1504 17.8066 13.877 17.4697Q13.6035 17.1328 13.1934 17.0938L9.64844 16.7031L9.95117 13.3438Q9.9707 13.0703 10.2539 13.0703L13.0859 13.0703Q13.4961 13.0703 13.7939 12.7676Q14.0918 12.4648 14.0918 12.0547L14.0918 6.51758Q14.0918 6.20508 13.916 5.95117Q13.7402 5.69727 13.457 5.58984Q13.1836 5.47266 12.8857 5.52637Q12.5879 5.58008 12.3633 5.79492L6.8457 11.332Q6.47461 11.7031 6.25 12.1621Q6.02539 12.6211 5.97656 13.1875L5.10742 22.6309L0.996094 22.6309Q0.576172 22.6309 0.288086 22.9189Q0 23.207 0 23.627Q0 24.0469 0.288086 24.3447Q0.576172 24.6426 0.996094 24.6426ZM12.0801 8.94922L12.0801 11.0391L9.9707 11.0391ZM10.0586 5.99023L12.3242 8.01172L12.8516 7.42578L10.6152 5.39453ZM4.46289 1.88867L9.61914 6.53711Q9.85352 6.75195 10.1367 6.72754Q10.4199 6.70312 10.6445 6.46875L11.1621 5.94141Q11.3965 5.70703 11.3672 5.41406Q11.3379 5.12109 11.1133 4.90625L5.92773 0.238281Q5.69336 0.0234375 5.39551 0.0429688Q5.09766 0.0625 4.89258 0.296875L4.4043 0.863281Q4.19922 1.09766 4.20898 1.38086Q4.21875 1.66406 4.46289 1.88867Z" fill="#ffffff"/>
 </g>
</svg>
