<?xml version="1.0" encoding="UTF-8"?>
<!--Generator: Apple Native CoreSVG 175.5-->
<!DOCTYPE svg
PUBLIC "-//W3C//DTD SVG 1.1//EN"
       "http://www.w3.org/Graphics/SVG/1.1/DTD/svg11.dtd">
<svg version="1.1" xmlns="http://www.w3.org/2000/svg" xmlns:xlink="http://www.w3.org/1999/xlink" width="19.0723" height="23.2324">
 <g>
  <rect height="23.2324" opacity="0" width="19.0723" x="0" y="0"/>
  <path d="M9.45312 7.42188Q10.0488 7.42188 10.5322 7.13379Q11.0156 6.8457 11.3037 6.3623Q11.5918 5.87891 11.5918 5.2832Q11.5918 4.69727 11.3037 4.21387Q11.0156 3.73047 10.5322 3.44238Q10.0488 3.1543 9.45312 3.1543Q8.86719 3.1543 8.38379 3.44238Q7.90039 3.73047 7.6123 4.21387Q7.32422 4.69727 7.32422 5.2832Q7.32422 5.87891 7.6123 6.3623Q7.90039 6.8457 8.38379 7.13379Q8.86719 7.42188 9.45312 7.42188ZM18.0859 23.2324Q18.4961 23.2324 18.7842 22.9395Q19.0723 22.6465 19.0723 22.2461L19.0723 17.2949Q19.0723 17.0312 18.9502 16.8262Q18.8281 16.6211 18.6328 16.4648L14.7949 13.3008L14.0332 9.17969Q13.916 8.52539 14.2188 7.93945L17.4512 1.48438Q17.6367 1.12305 17.5 0.732422Q17.3633 0.341797 17.002 0.15625Q16.6309-0.0292969 16.2402 0.0976562Q15.8496 0.224609 15.6738 0.585938L12.5 6.95312Q12.1875 7.59766 11.4746 7.89062L5.87891 10.2148L3.62305 8.4082Q3.49609 8.31055 3.35449 8.27148Q3.21289 8.23242 3.0957 8.23242L3.0957 5.54688L2.01172 5.54688L2.01172 9.14062Q2.01172 9.67773 2.36328 9.96094L5.11719 12.1484Q5.38086 12.3438 5.65918 12.3438Q5.9375 12.3438 6.25977 12.2168L9.31641 10.9375Q9.63867 10.8008 9.80469 10.9375Q9.9707 11.0742 10.0098 11.2891L11.5234 19.6387L7.32422 21.3184Q6.95312 21.4648 6.78711 21.8457Q6.62109 22.2266 6.76758 22.6074Q6.94336 23.0371 7.31934 23.1641Q7.69531 23.291 8.05664 23.1445L13.0078 21.1719Q13.3301 21.0352 13.4961 20.7471Q13.6621 20.459 13.6328 20.127L13.3496 16.2793Q13.3301 15.957 13.6035 15.8105Q13.877 15.6641 14.1211 15.8301L17.0996 17.8223L17.0996 22.2461Q17.0996 22.6465 17.3877 22.9395Q17.6758 23.2324 18.0859 23.2324ZM2.55859 0.351562Q1.8457 0.351562 1.26465 0.693359Q0.683594 1.03516 0.341797 1.62109Q0 2.20703 0 2.92969Q0 3.58398 0.336914 4.23828Q0.673828 4.89258 1.25488 5.41016Q1.83594 5.92773 2.55859 6.17188Q3.28125 5.92773 3.85742 5.41016Q4.43359 4.89258 4.77051 4.23828Q5.10742 3.58398 5.10742 2.92969Q5.10742 2.20703 4.77051 1.62109Q4.43359 1.03516 3.85254 0.693359Q3.27148 0.351562 2.55859 0.351562ZM2.55859 1.43555Q3.17383 1.43555 3.59863 1.875Q4.02344 2.31445 4.02344 2.95898Q4.02344 3.59375 3.6084 4.18945Q3.19336 4.78516 2.55859 5Q1.92383 4.78516 1.50391 4.18945Q1.08398 3.59375 1.08398 2.95898Q1.08398 2.31445 1.50879 1.875Q1.93359 1.43555 2.55859 1.43555Z" fill="#ffffff"/>
 </g>
</svg>
