<?xml version="1.0" encoding="UTF-8"?>
<!--Generator: Apple Native CoreSVG 175.5-->
<!DOCTYPE svg
PUBLIC "-//W3C//DTD SVG 1.1//EN"
       "http://www.w3.org/Graphics/SVG/1.1/DTD/svg11.dtd">
<svg version="1.1" xmlns="http://www.w3.org/2000/svg" xmlns:xlink="http://www.w3.org/1999/xlink" width="21.0352" height="17.5293">
 <g>
  <rect height="17.5293" opacity="0" width="21.0352" x="0" y="0"/>
  <path d="M16.123 4.26758Q16.709 4.26758 17.1973 3.97949Q17.6855 3.69141 17.9736 3.20801Q18.2617 2.72461 18.2617 2.13867Q18.2617 1.54297 17.9736 1.05957Q17.6855 0.576172 17.1973 0.288086Q16.709 0 16.123 0Q15.5273 0 15.0439 0.288086Q14.5605 0.576172 14.2773 1.05957Q13.9941 1.54297 13.9941 2.13867Q13.9941 2.72461 14.2773 3.20801Q14.5605 3.69141 15.0439 3.97949Q15.5273 4.26758 16.123 4.26758ZM9.35547 17.4023Q9.79492 17.4023 10.0928 17.0947Q10.3906 16.7871 10.3906 16.3574L10.3906 11.8066Q10.3906 11.4844 10.2637 11.25Q10.1367 11.0156 9.94141 10.8203L6.92383 7.79297L10.5762 6.86523Q10.7129 6.83594 10.8154 6.91895Q10.918 7.00195 10.918 7.13867L10.918 9.08203Q10.918 9.51172 11.2207 9.81445L14.3262 12.9395Q14.6289 13.2422 15.0684 13.2422Q15.5078 13.2422 15.8105 12.9395Q16.1035 12.6367 16.1084 12.2021Q16.1133 11.7676 15.8105 11.4648L12.9883 8.66211L12.9883 6.68945L14.5508 8.4668Q14.873 8.82812 15.332 8.82812L20.0098 8.82812Q20.4395 8.82812 20.7373 8.52539Q21.0352 8.22266 21.0352 7.7832Q21.0352 7.35352 20.7373 7.05566Q20.4395 6.75781 20.0098 6.75781L15.8105 6.75781L13.3203 3.88672Q12.7441 3.22266 11.9092 2.96875Q11.0742 2.71484 10.2148 2.92969L4.89258 4.26758Q4.11133 4.46289 3.65723 4.98535Q3.20312 5.50781 3.09082 6.18652Q2.97852 6.86523 3.22754 7.54395Q3.47656 8.22266 4.10156 8.73047L8.32031 12.168L8.32031 16.3574Q8.32031 16.7871 8.62305 17.0947Q8.92578 17.4023 9.35547 17.4023ZM0.302734 17.0996Q0.605469 17.4023 1.04492 17.4023Q1.48438 17.4023 1.78711 17.0996L5.41992 13.4668Q5.56641 13.3203 5.62012 13.1689Q5.67383 13.0176 5.72266 12.7832L5.95703 11.4648L3.64258 9.58008L3.64258 12.2949L0.302734 15.625Q0 15.9277 0 16.3623Q0 16.7969 0.302734 17.0996Z" fill="#ffffff"/>
 </g>
</svg>
