<?xml version="1.0" encoding="UTF-8"?>
<!--Generator: Apple Native CoreSVG 175.5-->
<!DOCTYPE svg
PUBLIC "-//W3C//DTD SVG 1.1//EN"
       "http://www.w3.org/Graphics/SVG/1.1/DTD/svg11.dtd">
<svg version="1.1" xmlns="http://www.w3.org/2000/svg" xmlns:xlink="http://www.w3.org/1999/xlink" width="19.9219" height="19.9316">
 <g>
  <rect height="19.9316" opacity="0" width="19.9219" x="0" y="0"/>
  <path d="M9.96094 19.9316Q12.002 19.9316 13.8037 19.1504Q15.6055 18.3691 16.9824 16.9922Q18.3594 15.6152 19.1406 13.8135Q19.9219 12.0117 19.9219 9.9707Q19.9219 7.92969 19.1406 6.12793Q18.3594 4.32617 16.9824 2.94922Q15.6055 1.57227 13.7988 0.791016Q11.9922 0.00976562 9.95117 0.00976562Q7.91016 0.00976562 6.1084 0.791016Q4.30664 1.57227 2.93457 2.94922Q1.5625 4.32617 0.78125 6.12793Q0 7.92969 0 9.9707Q0 12.0117 0.78125 13.8135Q1.5625 15.6152 2.93945 16.9922Q4.31641 18.3691 6.11816 19.1504Q7.91992 19.9316 9.96094 19.9316Z" fill="rgba(255,255,255,0.25)"/>
  <path d="M7.05078 5.3125Q7.16797 5.29297 7.30469 5.28809Q7.44141 5.2832 7.59766 5.2832Q8.50586 5.2832 9.24316 5.50781Q9.98047 5.73242 10.6982 5.95703Q11.416 6.18164 12.2656 6.18164Q12.8906 6.18164 13.2471 6.07422Q13.6035 5.9668 13.8281 5.9668Q14.3945 5.9668 14.3945 6.47461L14.3945 11.4355Q14.3945 11.709 14.2725 11.8994Q14.1504 12.0898 13.9648 12.2266ZM10.6445 12.3828Q10.166 12.2559 9.69727 12.1094Q9.22852 11.9629 8.73047 11.8604Q8.23242 11.7578 7.65625 11.7578Q7.1875 11.7578 6.88965 11.8262Q6.5918 11.8945 6.44531 11.9531L6.44531 14.9219Q6.44531 15.1172 6.31836 15.2539Q6.19141 15.3906 5.99609 15.3906Q5.81055 15.3906 5.66406 15.249Q5.51758 15.1074 5.51758 14.9219L5.51758 7.25586ZM14.6973 15.3711L4.55078 5.22461Q4.42383 5.08789 4.42383 4.89746Q4.42383 4.70703 4.55078 4.57031Q4.6875 4.43359 4.88281 4.43359Q5.07812 4.43359 5.21484 4.57031L15.3516 14.7168Q15.4883 14.8535 15.4883 15.0391Q15.4883 15.2246 15.3516 15.3711Q15.2246 15.498 15.0293 15.4932Q14.834 15.4883 14.6973 15.3711Z" fill="#ffffff"/>
 </g>
</svg>
