<?xml version="1.0" encoding="UTF-8"?>
<!--Generator: Apple Native CoreSVG 175.5-->
<!DOCTYPE svg
PUBLIC "-//W3C//DTD SVG 1.1//EN"
       "http://www.w3.org/Graphics/SVG/1.1/DTD/svg11.dtd">
<svg version="1.1" xmlns="http://www.w3.org/2000/svg" xmlns:xlink="http://www.w3.org/1999/xlink" width="19.9219" height="19.9316">
 <g>
  <rect height="19.9316" opacity="0" width="19.9219" x="0" y="0"/>
  <path d="M9.96094 19.9219Q12.002 19.9219 13.8037 19.1406Q15.6055 18.3594 16.9824 16.9824Q18.3594 15.6055 19.1406 13.8037Q19.9219 12.002 19.9219 9.96094Q19.9219 7.91992 19.1406 6.11816Q18.3594 4.31641 16.9824 2.93945Q15.6055 1.5625 13.7988 0.78125Q11.9922 0 9.95117 0Q7.91016 0 6.1084 0.78125Q4.30664 1.5625 2.93457 2.93945Q1.5625 4.31641 0.78125 6.11816Q0 7.91992 0 9.96094Q0 12.002 0.78125 13.8037Q1.5625 15.6055 2.93945 16.9824Q4.31641 18.3594 6.11816 19.1406Q7.91992 19.9219 9.96094 19.9219ZM9.96094 18.2617Q8.23242 18.2617 6.72852 17.6172Q5.22461 16.9727 4.08691 15.835Q2.94922 14.6973 2.30957 13.1934Q1.66992 11.6895 1.66992 9.96094Q1.66992 8.23242 2.30957 6.72852Q2.94922 5.22461 4.08203 4.08203Q5.21484 2.93945 6.71875 2.2998Q8.22266 1.66016 9.95117 1.66016Q11.6797 1.66016 13.1885 2.2998Q14.6973 2.93945 15.835 4.08203Q16.9727 5.22461 17.6172 6.72852Q18.2617 8.23242 18.2617 9.96094Q18.2617 11.6895 17.6221 13.1934Q16.9824 14.6973 15.8398 15.835Q14.6973 16.9727 13.1934 17.6172Q11.6895 18.2617 9.96094 18.2617Z" fill="rgba(255,255,255,0.5)"/>
  <path d="M7.12891 5.44922L13.8281 12.1484Q14.0039 12.0215 14.126 11.8359Q14.248 11.6504 14.248 11.3867L14.248 6.57227Q14.248 6.08398 13.7012 6.08398Q13.4863 6.08398 13.1348 6.18652Q12.7832 6.28906 12.1875 6.28906Q11.3574 6.28906 10.6641 6.07422Q9.9707 5.85938 9.25781 5.63965Q8.54492 5.41992 7.65625 5.41992Q7.5 5.41992 7.37305 5.4248Q7.24609 5.42969 7.12891 5.44922ZM10.625 12.2949L5.64453 7.32422L5.64453 14.7656Q5.64453 14.9414 5.78125 15.0781Q5.91797 15.2148 6.10352 15.2148Q6.29883 15.2148 6.4209 15.083Q6.54297 14.9512 6.54297 14.7656L6.54297 11.8848Q6.67969 11.8262 6.97266 11.7578Q7.26562 11.6895 7.71484 11.6895Q8.27148 11.6895 8.75977 11.792Q9.24805 11.8945 9.70215 12.0361Q10.1562 12.1777 10.625 12.2949ZM14.5508 15.1953Q14.6777 15.3125 14.8633 15.3174Q15.0488 15.3223 15.1758 15.1953Q15.3125 15.0586 15.3125 14.8779Q15.3125 14.6973 15.1758 14.5703L5.3418 4.72656Q5.20508 4.58984 5.02441 4.58984Q4.84375 4.58984 4.70703 4.72656Q4.58008 4.85352 4.58008 5.03906Q4.58008 5.22461 4.70703 5.35156Z" fill="#ffffff"/>
 </g>
</svg>
