<?xml version="1.0" encoding="UTF-8"?>
<!--Generator: Apple Native CoreSVG 175.5-->
<!DOCTYPE svg
PUBLIC "-//W3C//DTD SVG 1.1//EN"
       "http://www.w3.org/Graphics/SVG/1.1/DTD/svg11.dtd">
<svg version="1.1" xmlns="http://www.w3.org/2000/svg" xmlns:xlink="http://www.w3.org/1999/xlink" width="18.7109" height="21.748">
 <g>
  <rect height="21.748" opacity="0" width="18.7109" x="0" y="0"/>
  <path d="M4.04297 2.04102Q4.98047 2.04102 5.91797 2.50488Q6.85547 2.96875 7.8418 3.65723Q8.82812 4.3457 9.91211 5.03418Q10.9961 5.72266 12.2168 6.18652Q13.4375 6.65039 14.8535 6.65039Q16.0742 6.65039 16.9385 6.18652Q17.8027 5.72266 18.2568 4.92676Q18.7109 4.13086 18.7109 3.14453Q18.7109 2.64648 18.584 2.12402Q18.457 1.60156 18.1934 1.09375Q18.0273 0.78125 17.7588 0.712891Q17.4902 0.644531 17.2412 0.756836Q16.9922 0.869141 16.8848 1.12793Q16.7773 1.38672 16.9629 1.72852Q17.3828 2.5293 17.3828 3.27148Q17.3828 4.17969 16.7432 4.72656Q16.1035 5.27344 14.8535 5.27344Q13.6621 5.27344 12.5732 4.80957Q11.4844 4.3457 10.4443 3.65723Q9.4043 2.96875 8.37402 2.28027Q7.34375 1.5918 6.26953 1.12793Q5.19531 0.664062 4.04297 0.664062Q2.77344 0.664062 1.87012 1.16211Q0.966797 1.66016 0.483398 2.48535Q0 3.31055 0 4.28711Q0 5.27344 0.478516 6.20117Q0.634766 6.51367 0.908203 6.57715Q1.18164 6.64062 1.42578 6.52344Q1.66992 6.40625 1.77734 6.15234Q1.88477 5.89844 1.70898 5.56641Q1.52344 5.19531 1.43066 4.84375Q1.33789 4.49219 1.33789 4.16992Q1.33789 3.25195 2.03613 2.64648Q2.73438 2.04102 4.04297 2.04102ZM8.7793 12.0898L10.0586 12.0801Q10 10.9375 10.2393 10.0049Q10.4785 9.07227 10.8594 8.25684Q11.2402 7.44141 11.6357 6.6748Q12.0312 5.9082 12.2998 5.10254Q12.5684 4.29688 12.5684 3.36914Q12.5684 2.50977 12.207 1.81152Q11.8457 1.11328 11.2256 0.693359Q10.6055 0.273438 9.82422 0.273438Q8.78906 0.273438 8.05664 0.966797Q7.32422 1.66016 7.29492 2.71484L8.57422 3.08594Q8.58398 2.44141 8.92578 2.0459Q9.26758 1.65039 9.82422 1.65039Q10.4199 1.65039 10.8057 2.12402Q11.1914 2.59766 11.1914 3.36914Q11.1914 4.07227 10.9277 4.75586Q10.6641 5.43945 10.2832 6.18652Q9.90234 6.93359 9.53613 7.80273Q9.16992 8.67188 8.94531 9.72168Q8.7207 10.7715 8.7793 12.0898ZM1.67969 12.793Q1.67969 14.4141 2.27539 16.0059Q2.87109 17.5977 4.0625 18.8965Q5.25391 20.1953 7.04102 20.9717Q8.82812 21.748 11.2012 21.748Q12.5684 21.748 13.6621 21.3623Q14.7559 20.9766 15.3906 20.3125Q16.0254 19.6484 16.0254 18.8379Q16.0254 18.2617 15.625 17.8662Q15.2246 17.4707 14.4629 17.3828Q14.2676 17.3535 14.0967 17.4414Q13.9258 17.5293 13.8867 17.7734Q13.7598 18.7891 13.1201 19.4336Q12.4805 20.0781 11.543 20.0781Q10.8789 20.0781 10.4932 19.7266Q10.1074 19.375 10.1074 18.8672Q10.1074 18.2812 10.5957 17.8418Q11.084 17.4023 11.8604 17.0068Q12.6367 16.6113 13.5059 16.167Q14.375 15.7227 15.1514 15.1367Q15.9277 14.5508 16.4209 13.7305Q16.9141 12.9102 16.9141 11.748Q16.9141 10.6836 16.4551 9.87305Q15.9961 9.0625 15.2051 8.60352Q14.4141 8.14453 13.4082 8.14453Q12.4805 8.14453 11.6943 8.48145Q10.9082 8.81836 10.3271 9.45312Q9.74609 10.0879 9.41406 10.9863Q9.48242 9.6875 9.0625 8.81836Q8.64258 7.94922 7.89551 7.50977Q7.14844 7.07031 6.24023 7.07031Q4.80469 7.07031 3.78418 7.85645Q2.76367 8.64258 2.22168 9.94141Q1.67969 11.2402 1.67969 12.793Z" fill="#ffffff"/>
 </g>
</svg>
