<?xml version="1.0" encoding="UTF-8"?>
<!--Generator: Apple Native CoreSVG 175-->
<!DOCTYPE svg
PUBLIC "-//W3C//DTD SVG 1.1//EN"
       "http://www.w3.org/Graphics/SVG/1.1/DTD/svg11.dtd">
<svg version="1.1" xmlns="http://www.w3.org/2000/svg" xmlns:xlink="http://www.w3.org/1999/xlink" width="16.597" height="15.0925">
 <g>
  <rect height="15.0925" opacity="0" width="16.597" x="0" y="0"/>
  <path d="M13.5497 15.0784L15.6355 15.0784Q16.1395 15.0784 16.3683 14.8484Q16.597 14.6184 16.597 14.1144L16.597 0.961304Q16.597 0.451813 16.3683 0.225906Q16.1395 0 15.6355 0L13.5497 0Q13.0486 0 12.8185 0.230026Q12.5883 0.460052 12.5883 0.961304L12.5883 14.1144Q12.5883 14.6184 12.8185 14.8484Q13.0486 15.0784 13.5497 15.0784ZM1.04767 14.7223Q1.26602 14.7223 1.48399 14.6365Q1.70197 14.5508 1.8895 14.4382L12.0375 8.4761Q12.3232 8.30429 12.4802 8.07304Q12.6372 7.8418 12.6372 7.52731Q12.6372 7.21985 12.4837 6.99562Q12.3302 6.77139 12.0375 6.59256L1.8895 0.627594Q1.6922 0.515137 1.47911 0.429382Q1.26602 0.343628 1.04767 0.343628Q0.640259 0.343628 0.320129 0.65033Q0 0.957031 0 1.60156L0 13.4671Q0 14.1116 0.320129 14.417Q0.640259 14.7223 1.04767 14.7223Z" fill="#ffffff"/>
 </g>
</svg>
