<?xml version="1.0" encoding="UTF-8"?>
<!--Generator: Apple Native CoreSVG 175.5-->
<!DOCTYPE svg
PUBLIC "-//W3C//DTD SVG 1.1//EN"
       "http://www.w3.org/Graphics/SVG/1.1/DTD/svg11.dtd">
<svg version="1.1" xmlns="http://www.w3.org/2000/svg" xmlns:xlink="http://www.w3.org/1999/xlink" width="31.6602" height="15.9082">
 <g>
  <rect height="15.9082" opacity="0" width="31.6602" x="0" y="0"/>
  <path d="M28.1445 15.9082L30.3613 15.9082Q31.0059 15.9082 31.333 15.5762Q31.6602 15.2441 31.6602 14.5996L31.6602 1.29883Q31.6602 0.634766 31.333 0.317383Q31.0059 0 30.3613 0L28.1445 0Q27.5 0 27.168 0.332031Q26.8359 0.664062 26.8359 1.29883L26.8359 14.5996Q26.8359 15.2441 27.168 15.5762Q27.5 15.9082 28.1445 15.9082ZM14.8242 15.6152Q15.127 15.6152 15.3906 15.5225Q15.6543 15.4297 15.9473 15.2539L25.8984 9.4043Q26.416 9.0918 26.6504 8.73047Q26.8848 8.36914 26.8848 7.94922Q26.8848 7.5293 26.6504 7.16797Q26.416 6.80664 25.8984 6.49414L15.9473 0.634766Q15.6445 0.458984 15.3857 0.366211Q15.127 0.273438 14.8242 0.273438Q14.248 0.273438 13.833 0.703125Q13.418 1.13281 13.418 1.95312L13.418 13.9453Q13.418 14.7656 13.833 15.1904Q14.248 15.6152 14.8242 15.6152ZM1.40625 15.6152Q1.70898 15.6152 1.97266 15.5225Q2.23633 15.4297 2.5293 15.2539L12.4805 9.4043Q12.998 9.0918 13.2324 8.73047Q13.4668 8.36914 13.4668 7.94922Q13.4668 7.5293 13.2324 7.16797Q12.998 6.80664 12.4805 6.49414L2.5293 0.634766Q2.22656 0.458984 1.96777 0.366211Q1.70898 0.273438 1.40625 0.273438Q0.830078 0.273438 0.415039 0.703125Q0 1.13281 0 1.95312L0 13.9453Q0 14.7656 0.415039 15.1904Q0.830078 15.6152 1.40625 15.6152Z" fill="#ffffff"/>
 </g>
</svg>
