<?xml version="1.0" encoding="UTF-8"?>
<!--Generator: Apple Native CoreSVG 175.5-->
<!DOCTYPE svg
PUBLIC "-//W3C//DTD SVG 1.1//EN"
       "http://www.w3.org/Graphics/SVG/1.1/DTD/svg11.dtd">
<svg version="1.1" xmlns="http://www.w3.org/2000/svg" xmlns:xlink="http://www.w3.org/1999/xlink" width="15.0879" height="16.1426">
 <g>
  <rect height="16.1426" opacity="0" width="15.0879" x="0" y="0"/>
  <path d="M14.2578 16.1426Q14.5996 16.1426 14.8438 15.9082Q15.0879 15.6738 15.0879 15.332L15.0879 0.830078Q15.0879 0.478516 14.8438 0.244141Q14.5996 0.00976562 14.2578 0.00976562Q13.9062 0.00976562 13.6621 0.244141Q13.418 0.478516 13.418 0.830078L13.418 15.332Q13.418 15.6738 13.6621 15.9082Q13.9062 16.1426 14.2578 16.1426ZM1.40625 15.752Q1.70898 15.752 1.97266 15.6592Q2.23633 15.5664 2.5293 15.3906L12.4805 9.53125Q12.998 9.21875 13.2324 8.85742Q13.4668 8.49609 13.4668 8.07617Q13.4668 7.65625 13.2324 7.29492Q12.998 6.93359 12.4805 6.62109L2.5293 0.761719Q2.22656 0.585938 1.96777 0.493164Q1.70898 0.400391 1.40625 0.400391Q0.830078 0.400391 0.415039 0.830078Q0 1.25977 0 2.08008L0 14.0723Q0 14.8926 0.415039 15.3223Q0.830078 15.752 1.40625 15.752ZM1.83594 13.9453Q1.72852 13.9453 1.64551 13.8721Q1.5625 13.7988 1.5625 13.6523L1.5625 2.5Q1.5625 2.35352 1.64551 2.28027Q1.72852 2.20703 1.83594 2.20703Q1.88477 2.20703 1.94336 2.22656Q2.00195 2.24609 2.07031 2.29492L11.3574 7.80273Q11.5625 7.91992 11.5625 8.07617Q11.5625 8.23242 11.3574 8.34961L2.07031 13.8574Q2.00195 13.9062 1.94336 13.9258Q1.88477 13.9453 1.83594 13.9453Z" fill="#ffffff"/>
 </g>
</svg>
