<?xml version="1.0" encoding="UTF-8"?>
<!--Generator: Apple Native CoreSVG 175.5-->
<!DOCTYPE svg
PUBLIC "-//W3C//DTD SVG 1.1//EN"
       "http://www.w3.org/Graphics/SVG/1.1/DTD/svg11.dtd">
<svg version="1.1" xmlns="http://www.w3.org/2000/svg" xmlns:xlink="http://www.w3.org/1999/xlink" width="25.4724" height="20.1074">
 <g>
  <rect height="20.1074" opacity="0" width="25.4724" x="0" y="0"/>
  <path d="M10.7031 12.2754Q11.8066 12.2754 12.749 11.8652Q13.6914 11.4551 14.3994 10.708Q15.1074 9.96094 15.5029 8.94043Q15.8984 7.91992 15.8984 6.70898Q15.8984 5.54688 15.5762 4.53125Q15.2539 3.51562 14.6484 2.70508L12.7148 4.64844Q13.0859 5.09766 13.291 5.66406Q13.4961 6.23047 13.4961 6.86523Q13.4961 7.76367 13.1152 8.45703Q12.7344 9.15039 12.0801 9.55078Q11.4258 9.95117 10.6055 9.95117Q9.95117 9.95117 9.41406 9.69238Q8.87695 9.43359 8.56445 9.00879Q8.25195 8.58398 8.25195 8.08594Q8.25195 7.83203 8.42773 7.68066Q8.60352 7.5293 8.81836 7.5293Q8.99414 7.5293 9.14062 7.6416Q9.28711 7.75391 9.35547 7.99805Q9.45312 8.35938 9.75586 8.59863Q10.0586 8.83789 10.5469 8.83789Q11.3281 8.83789 11.7871 8.3252Q12.2461 7.8125 12.2461 6.94336Q12.2461 6.25 11.8896 5.69336Q11.5332 5.13672 10.9277 4.80957Q10.3223 4.48242 9.56055 4.48242Q8.63281 4.48242 7.86133 4.96094Q7.08984 5.43945 6.62598 6.25977Q6.16211 7.08008 6.16211 8.08594Q6.16211 9.25781 6.75293 10.2051Q7.34375 11.1523 8.36426 11.7139Q9.38477 12.2754 10.7031 12.2754ZM9.55078 3.20312Q10.1367 3.20312 10.7324 3.36426Q11.3281 3.52539 11.8262 3.84766L13.8574 1.82617Q13.0371 1.06445 11.9385 0.600586Q10.8398 0.136719 9.55078 0.0488281ZM6.54297 4.32617Q7.35352 3.63281 8.35938 3.35938L8.35938 0.0195312Q7.07031 0.0878906 5.91309 0.483398Q4.75586 0.878906 3.78906 1.55273ZM0.146484 7.4707L4.94141 7.4707Q5 6.86523 5.21484 6.28418Q5.42969 5.70312 5.76172 5.21484L2.86133 2.29492Q1.80664 3.26172 1.10352 4.58008Q0.400391 5.89844 0.146484 7.4707ZM0 9.19922Q0 10.9766 0.473633 12.5391Q0.947266 14.1016 1.83594 15.3906L5.95703 11.25Q5.52734 10.6836 5.26367 10.0195Q5 9.35547 4.92188 8.65234L0.00976562 8.65234Q0 8.79883 0 8.93066Q0 9.0625 0 9.19922ZM2.55859 16.3379Q3.84766 17.793 5.68359 18.7354Q7.51953 19.6777 9.79492 19.9707L9.79492 13.4766Q8.91602 13.3594 8.14453 13.0029Q7.37305 12.6465 6.76758 12.1094ZM10.9863 20.0879Q11.1816 20.0977 11.3916 20.1025Q11.6016 20.1074 11.8066 20.1074Q14.0039 20.1074 15.9521 19.502Q17.9004 18.8965 19.5312 17.793L14.248 12.5391Q13.584 12.9688 12.7686 13.2422Q11.9531 13.5156 10.9863 13.5449ZM20.4785 17.0996Q22.334 15.5957 23.6084 13.4912Q24.8828 11.3867 25.4395 8.99414Q25.5273 8.59375 25.3809 8.30078Q25.2344 8.00781 24.9512 7.85156Q24.668 7.69531 24.3457 7.69531L17.0898 7.69531Q17.0117 8.7207 16.5332 9.81934Q16.0547 10.918 15.166 11.7871Z" fill="#ffffff"/>
 </g>
</svg>
