<?xml version="1.0" encoding="UTF-8"?>
<!--Generator: Apple Native CoreSVG 175-->
<!DOCTYPE svg
PUBLIC "-//W3C//DTD SVG 1.1//EN"
       "http://www.w3.org/Graphics/SVG/1.1/DTD/svg11.dtd">
<svg version="1.1" xmlns="http://www.w3.org/2000/svg" xmlns:xlink="http://www.w3.org/1999/xlink" width="17.2852" height="17.3145">
 <g>
  <rect height="17.3145" opacity="0" width="17.2852" x="0" y="0"/>
  <path d="M2.62695 17.3145L14.6484 17.3145Q15.957 17.3145 16.6211 16.6455Q17.2852 15.9766 17.2852 14.6875L17.2852 2.65625Q17.2852 1.37695 16.6211 0.703125Q15.957 0.0292969 14.6484 0.0292969L2.62695 0.0292969Q1.33789 0.0292969 0.668945 0.693359Q0 1.35742 0 2.65625L0 14.6875Q0 15.9863 0.668945 16.6504Q1.33789 17.3145 2.62695 17.3145Z" fill="rgba(255,255,255,0.25)"/>
  <path d="M6.91406 13.1836Q6.76758 13.1836 6.66992 13.0859Q6.57227 12.9883 6.57227 12.8223L6.57227 11.4746L5.83008 11.4746Q5.70312 11.4746 5.62012 11.3916Q5.53711 11.3086 5.53711 11.1719Q5.53711 10.8691 5.83008 10.8691L6.57227 10.8691L6.57227 4.91211Q6.57227 4.75586 6.66504 4.6582Q6.75781 4.56055 6.91406 4.56055L11.123 4.56055Q11.2695 4.56055 11.3574 4.65332Q11.4453 4.74609 11.4453 4.89258Q11.4453 5.03906 11.3574 5.12695Q11.2695 5.21484 11.123 5.21484L7.24609 5.21484L7.24609 8.34961L10.7715 8.34961Q10.918 8.34961 11.0059 8.44238Q11.0938 8.53516 11.0938 8.68164Q11.0938 8.82812 11.0059 8.91602Q10.918 9.00391 10.7715 9.00391L7.24609 9.00391L7.24609 10.8691L9.59961 10.8691Q9.73633 10.8691 9.81934 10.957Q9.90234 11.0449 9.90234 11.1719Q9.90234 11.3086 9.81934 11.3916Q9.73633 11.4746 9.59961 11.4746L7.24609 11.4746L7.24609 12.8418Q7.24609 13.0078 7.15332 13.0957Q7.06055 13.1836 6.91406 13.1836Z" fill="#ffffff"/>
 </g>
</svg>
