<?xml version="1.0" encoding="UTF-8"?>
<!--Generator: Apple Native CoreSVG 175-->
<!DOCTYPE svg
PUBLIC "-//W3C//DTD SVG 1.1//EN"
       "http://www.w3.org/Graphics/SVG/1.1/DTD/svg11.dtd">
<svg version="1.1" xmlns="http://www.w3.org/2000/svg" xmlns:xlink="http://www.w3.org/1999/xlink" width="18.4657" height="21.9534">
 <g>
  <rect height="21.9534" opacity="0" width="18.4657" x="0" y="0"/>
  <path d="M13.4978 21.5152L13.4978 2.53036Q13.4978 1.30859 12.8554 0.654297Q12.213 0 10.9673 0L3.77182 0Q2.53601 0 1.89224 0.645905Q1.24847 1.29181 1.24847 2.53036L1.24847 21.5152ZM3.66806 10.4218Q3.15506 10.4218 2.84203 10.1141Q2.52899 9.80652 2.52899 9.3074L2.52899 2.39914Q2.52899 1.89728 2.84203 1.59103Q3.15506 1.28479 3.66806 1.28479L11.0782 1.28479Q11.591 1.28479 11.902 1.59103Q12.213 1.89728 12.213 2.39914L12.213 9.3074Q12.213 9.80652 11.902 10.1141Q11.591 10.4218 11.0782 10.4218ZM0 21.5773Q0 21.7238 0.10643 21.8316Q0.21286 21.9394 0.359344 21.9394L14.3727 21.9394Q14.5192 21.9394 14.6256 21.8316Q14.7321 21.7238 14.7321 21.5773Q14.7321 21.4308 14.6256 21.3244Q14.5192 21.218 14.3727 21.218L0.359344 21.218Q0.21286 21.218 0.10643 21.3244Q0 21.4308 0 21.5773ZM16.6641 19.6082Q17.4759 19.6082 17.9708 19.1077Q18.4657 18.6073 18.4657 17.7847L18.4657 6.99722Q18.4657 5.18433 17.8313 4.03824Q17.2083 3.00262 16.0333 2.63748Q15.8653 2.58743 15.7401 2.66792Q15.6149 2.74841 15.5832 2.87415Q15.5544 3.00705 15.6123 3.13576Q15.6703 3.26447 15.827 3.31009Q16.3438 3.44879 16.7421 3.79173Q17.1404 4.13467 17.394 4.70985Q17.6477 5.28503 17.7547 6.09879L16.1586 6.09879Q15.8759 6.09879 15.6948 6.2812Q15.5138 6.46362 15.5138 6.74637L15.5138 10.1413Q15.5138 10.4285 15.6962 10.6087Q15.8786 10.789 16.1586 10.789L17.7794 10.789L17.7794 17.7847Q17.7794 18.2988 17.4733 18.6103Q17.1672 18.9218 16.6641 18.9218Q16.1348 18.9218 15.8192 18.6103Q15.5035 18.2988 15.5035 17.7847L15.5035 16.1316Q15.5035 15.0558 14.9262 14.4742Q14.3489 13.8925 13.2607 13.8757L13.2607 14.5789Q13.9282 14.5789 14.3776 14.9911Q14.827 15.4034 14.827 16.1316L14.827 17.7847Q14.827 18.6073 15.3315 19.1077Q15.836 19.6082 16.6641 19.6082Z" fill="#ffffff"/>
 </g>
</svg>
