<?xml version="1.0" encoding="UTF-8"?>
<!--Generator: Apple Native CoreSVG 175.5-->
<!DOCTYPE svg
PUBLIC "-//W3C//DTD SVG 1.1//EN"
       "http://www.w3.org/Graphics/SVG/1.1/DTD/svg11.dtd">
<svg version="1.1" xmlns="http://www.w3.org/2000/svg" xmlns:xlink="http://www.w3.org/1999/xlink" width="19.6094" height="21.7871">
 <g>
  <rect height="21.7871" opacity="0" width="19.6094" x="0" y="0"/>
  <path d="M14.3457 21.0547L14.3457 2.48047Q14.3457 1.2793 13.7061 0.639648Q13.0664 0 11.875 0L4.00391 0Q2.80273 0 2.17285 0.639648Q1.54297 1.2793 1.54297 2.48047L1.54297 21.0547ZM4.32617 10.1953Q3.78906 10.1953 3.48633 9.91699Q3.18359 9.63867 3.18359 9.15039L3.18359 2.70508Q3.18359 2.2168 3.48633 1.93359Q3.78906 1.65039 4.32617 1.65039L11.5527 1.65039Q12.0898 1.65039 12.3975 1.93359Q12.7051 2.2168 12.7051 2.70508L12.7051 9.15039Q12.7051 9.63867 12.3975 9.91699Q12.0898 10.1953 11.5527 10.1953ZM0 20.9863Q0 21.3184 0.224609 21.5527Q0.449219 21.7871 0.771484 21.7871L15.0977 21.7871Q15.4199 21.7871 15.6543 21.5527Q15.8887 21.3184 15.8887 20.9863Q15.8887 20.6738 15.6543 20.4443Q15.4199 20.2148 15.0977 20.2148L0.771484 20.2148Q0.458984 20.2148 0.229492 20.4395Q0 20.6641 0 20.9863ZM13.5938 12.8613L14.4434 12.8613Q14.7754 12.8613 14.9756 13.0518Q15.1758 13.2422 15.1758 13.6035L15.1758 16.8359Q15.1758 17.8809 15.7666 18.4717Q16.3574 19.0625 17.4023 19.0625Q18.4375 19.0625 19.0234 18.4717Q19.6094 17.8809 19.6094 16.8359L19.6094 4.87305Q19.6094 4.43359 19.4971 4.08203Q19.3848 3.73047 19.1699 3.38867L17.832 1.2207Q17.6465 0.927734 17.3779 0.883789Q17.1094 0.839844 16.8799 0.981445Q16.6504 1.12305 16.5674 1.38184Q16.4844 1.64062 16.6699 1.94336L17.8125 3.79883Q17.9785 4.07227 17.793 4.35547L16.5137 6.14258Q15.9082 6.98242 16.5918 7.7832L18.2324 9.6875L18.2324 16.8359Q18.2324 17.2363 18.0078 17.4609Q17.7832 17.6855 17.4023 17.6855Q17.002 17.6855 16.7773 17.4609Q16.5527 17.2363 16.5527 16.8359L16.5527 13.6035Q16.5527 12.5879 15.9912 12.0361Q15.4297 11.4844 14.4434 11.4844L13.5938 11.4844Z" fill="#ffffff"/>
 </g>
</svg>
