<?xml version="1.0" encoding="UTF-8"?>
<!--Generator: Apple Native CoreSVG 175.5-->
<!DOCTYPE svg
PUBLIC "-//W3C//DTD SVG 1.1//EN"
       "http://www.w3.org/Graphics/SVG/1.1/DTD/svg11.dtd">
<svg version="1.1" xmlns="http://www.w3.org/2000/svg" xmlns:xlink="http://www.w3.org/1999/xlink" width="19.9219" height="19.9707">
 <g>
  <rect height="19.9707" opacity="0" width="19.9219" x="0" y="0"/>
  <path d="M9.96094 19.9707Q12.002 19.9707 13.8037 19.1895Q15.6055 18.4082 16.9824 17.0312Q18.3594 15.6543 19.1406 13.8525Q19.9219 12.0508 19.9219 10.0098Q19.9219 7.96875 19.1406 6.16699Q18.3594 4.36523 16.9824 2.98828Q15.6055 1.61133 13.7988 0.830078Q11.9922 0.0488281 9.95117 0.0488281Q7.91016 0.0488281 6.1084 0.830078Q4.30664 1.61133 2.93457 2.98828Q1.5625 4.36523 0.78125 6.16699Q0 7.96875 0 10.0098Q0 12.0508 0.78125 13.8525Q1.5625 15.6543 2.93945 17.0312Q4.31641 18.4082 6.11816 19.1895Q7.91992 19.9707 9.96094 19.9707Z" fill="rgba(255,255,255,0.25)"/>
  <path d="M5.54688 15.5469Q5.37109 15.5469 5.23926 15.4102Q5.10742 15.2734 5.10742 15.0977Q5.10742 14.9316 5.23926 14.8096Q5.37109 14.6875 5.54688 14.6875L5.74219 14.6875L5.74219 5.36133Q5.74219 4.73633 6.06934 4.40918Q6.39648 4.08203 7.02148 4.08203L11.4844 4.08203Q12.7637 4.08203 12.7637 5.36133L12.7637 12.5781L14.1992 12.5781Q14.7266 12.5781 14.7266 12.0703L14.7266 9.36523L13.8965 8.39844Q13.4766 7.91016 13.8477 7.40234L14.5996 6.35742L13.8672 5.18555Q13.7305 4.96094 13.8525 4.78516Q13.9746 4.60938 14.1846 4.58008Q14.3945 4.55078 14.5312 4.77539L15.2441 5.92773Q15.3613 6.12305 15.4346 6.33789Q15.5078 6.55273 15.5078 6.81641L15.5078 12.0703Q15.5078 12.7051 15.1758 13.0322Q14.8438 13.3594 14.209 13.3594L12.7637 13.3594L12.7637 14.6875L12.9395 14.6875Q13.1348 14.6875 13.2666 14.8096Q13.3984 14.9316 13.3984 15.0977Q13.3984 15.2734 13.2666 15.4102Q13.1348 15.5469 12.9395 15.5469ZM7.04102 9.15039Q7.04102 9.66797 7.59766 9.66797L10.9082 9.66797Q11.4648 9.66797 11.4648 9.15039L11.4648 5.9082Q11.4648 5.41016 10.9082 5.41016L7.59766 5.41016Q7.04102 5.41016 7.04102 5.9082Z" fill="#ffffff"/>
 </g>
</svg>
