<?xml version="1.0" encoding="UTF-8"?>
<!--Generator: Apple Native CoreSVG 175.5-->
<!DOCTYPE svg
PUBLIC "-//W3C//DTD SVG 1.1//EN"
       "http://www.w3.org/Graphics/SVG/1.1/DTD/svg11.dtd">
<svg version="1.1" xmlns="http://www.w3.org/2000/svg" xmlns:xlink="http://www.w3.org/1999/xlink" width="21.4258" height="14.4434">
 <g>
  <rect height="14.4434" opacity="0" width="21.4258" x="0" y="0"/>
  <path d="M0.888672 14.4043Q1.30859 14.4043 1.55762 14.1602Q1.80664 13.916 1.80664 13.4961L1.80664 8.1543L7.53906 8.1543Q7.89062 8.1543 8.125 7.94434Q8.35938 7.73438 8.35938 7.37305Q8.35938 7.00195 8.125 6.79199Q7.89062 6.58203 7.53906 6.58203L1.80664 6.58203L1.80664 1.81641L8.0957 1.81641Q8.45703 1.81641 8.69629 1.60156Q8.93555 1.38672 8.93555 1.01562Q8.93555 0.634766 8.69629 0.419922Q8.45703 0.205078 8.0957 0.205078L0.878906 0.205078Q0.478516 0.205078 0.239258 0.449219Q0 0.693359 0 1.10352L0 13.4961Q0 13.916 0.239258 14.1602Q0.478516 14.4043 0.888672 14.4043ZM11.0254 14.4434Q11.2793 14.4434 11.4404 14.3457Q11.6016 14.248 11.7871 13.9844L15.6934 8.65234L15.752 8.65234L19.6191 13.9941Q19.7949 14.2383 19.9756 14.3408Q20.1562 14.4434 20.4199 14.4434Q20.8105 14.4434 21.0596 14.1992Q21.3086 13.9551 21.3086 13.584Q21.3086 13.2227 21.0938 12.959L16.8652 7.24609L21.2109 1.42578Q21.4258 1.13281 21.4258 0.830078Q21.4258 0.488281 21.1768 0.244141Q20.9277 0 20.5859 0Q20.3125 0 20.1367 0.102539Q19.9609 0.205078 19.7754 0.46875L15.8789 5.86914L15.8203 5.86914L11.9434 0.46875Q11.7578 0.195312 11.582 0.0976562Q11.4062 0 11.123 0Q10.7324 0 10.4785 0.239258Q10.2246 0.478516 10.2246 0.839844Q10.2246 1.16211 10.4395 1.46484L14.6387 7.1875L10.3711 13.0078Q10.1465 13.3008 10.1465 13.6133Q10.1465 13.9648 10.4004 14.2041Q10.6543 14.4434 11.0254 14.4434Z" fill="#ffffff"/>
 </g>
</svg>
