<?xml version="1.0" encoding="UTF-8"?>
<!--Generator: Apple Native CoreSVG 175-->
<!DOCTYPE svg
PUBLIC "-//W3C//DTD SVG 1.1//EN"
       "http://www.w3.org/Graphics/SVG/1.1/DTD/svg11.dtd">
<svg version="1.1" xmlns="http://www.w3.org/2000/svg" xmlns:xlink="http://www.w3.org/1999/xlink" width="19.1602" height="19.1504">
 <g>
  <rect height="19.1504" opacity="0" width="19.1602" x="0" y="0"/>
  <path d="M9.57031 19.1406Q11.5527 19.1406 13.2861 18.3984Q15.0195 17.6562 16.3379 16.333Q17.6562 15.0098 18.4082 13.2764Q19.1602 11.543 19.1602 9.57031Q19.1602 7.59766 18.4082 5.86426Q17.6562 4.13086 16.3379 2.80762Q15.0195 1.48438 13.2861 0.742188Q11.5527 0 9.57031 0Q7.59766 0 5.86426 0.742188Q4.13086 1.48438 2.81738 2.80762Q1.50391 4.13086 0.751953 5.86426Q0 7.59766 0 9.57031Q0 11.543 0.74707 13.2764Q1.49414 15.0098 2.8125 16.333Q4.13086 17.6562 5.86914 18.3984Q7.60742 19.1406 9.57031 19.1406Z" fill="rgba(255,255,255,0.25)"/>
  <path d="M9.67773 14.2578Q8.47656 14.2578 7.57324 13.667Q6.66992 13.0762 6.16211 12.0215Q5.6543 10.9668 5.6543 9.56055Q5.6543 8.1543 6.15723 7.09961Q6.66016 6.04492 7.56836 5.4541Q8.47656 4.86328 9.66797 4.86328Q10.7129 4.86328 11.4502 5.24414Q12.1875 5.625 12.6123 6.19141Q13.0371 6.75781 13.1543 7.29492Q13.1738 7.37305 13.1836 7.45117Q13.1934 7.5293 13.1934 7.60742Q13.1934 7.7832 13.1006 7.89062Q13.0078 7.99805 12.8418 7.99805Q12.6855 7.99805 12.6123 7.91992Q12.5391 7.8418 12.5 7.67578Q12.3145 6.71875 11.5479 6.14258Q10.7812 5.56641 9.67773 5.56641Q8.71094 5.56641 7.9834 6.06934Q7.25586 6.57227 6.85059 7.47559Q6.44531 8.37891 6.44531 9.56055Q6.44531 10.7422 6.85059 11.6406Q7.25586 12.5391 7.98828 13.0469Q8.7207 13.5547 9.67773 13.5547Q10.9961 13.5547 11.7285 12.7881Q12.4609 12.0215 12.4609 10.6738L12.4609 10.166L9.79492 10.166Q9.63867 10.166 9.55078 10.0684Q9.46289 9.9707 9.46289 9.83398Q9.46289 9.69727 9.55078 9.59961Q9.63867 9.50195 9.79492 9.50195L12.8516 9.50195Q13.2324 9.50195 13.2324 9.92188L13.2324 10.6348Q13.2324 11.7285 12.7979 12.5439Q12.3633 13.3594 11.5625 13.8086Q10.7617 14.2578 9.67773 14.2578Z" fill="#ffffff"/>
 </g>
</svg>
