<?xml version="1.0" encoding="UTF-8"?>
<!--Generator: Apple Native CoreSVG 175.5-->
<!DOCTYPE svg
PUBLIC "-//W3C//DTD SVG 1.1//EN"
       "http://www.w3.org/Graphics/SVG/1.1/DTD/svg11.dtd">
<svg version="1.1" xmlns="http://www.w3.org/2000/svg" xmlns:xlink="http://www.w3.org/1999/xlink" width="28.1934" height="17.7051">
 <g>
  <rect height="17.7051" opacity="0" width="28.1934" x="0" y="0"/>
  <path d="M6.19141 6.89453Q6.19141 6.5332 6.40625 6.31836Q6.62109 6.10352 7.00195 6.10352L8.75977 6.10352L8.75977 4.39453Q8.75977 4.02344 8.96484 3.80859Q9.16992 3.59375 9.53125 3.59375Q9.89258 3.59375 10.0977 3.80859Q10.3027 4.02344 10.3027 4.39453L10.3027 6.10352L11.9531 6.10352Q12.3633 6.10352 12.5928 6.31836Q12.8223 6.5332 12.8223 6.89453Q12.8223 7.27539 12.5928 7.49512Q12.3633 7.71484 11.9531 7.71484L10.3027 7.71484L10.3027 9.42383Q10.3027 9.79492 10.0977 10.0146Q9.89258 10.2344 9.53125 10.2344Q9.16992 10.2344 8.96484 10.0146Q8.75977 9.79492 8.75977 9.42383L8.75977 7.71484L7.00195 7.71484Q6.62109 7.71484 6.40625 7.49512Q6.19141 7.27539 6.19141 6.89453ZM15.791 8.26172Q15.791 7.66602 16.2012 7.25586Q16.6113 6.8457 17.1973 6.8457Q17.793 6.8457 18.1982 7.25586Q18.6035 7.66602 18.6035 8.26172Q18.6035 8.85742 18.1982 9.2627Q17.793 9.66797 17.1973 9.66797Q16.6113 9.66797 16.2012 9.2627Q15.791 8.85742 15.791 8.26172ZM18.6719 5.37109Q18.6719 4.77539 19.0771 4.36523Q19.4824 3.95508 20.0684 3.95508Q20.6641 3.95508 21.0693 4.36523Q21.4746 4.77539 21.4746 5.37109Q21.4746 5.9668 21.0693 6.36719Q20.6641 6.76758 20.0684 6.76758Q19.4824 6.76758 19.0771 6.36719Q18.6719 5.9668 18.6719 5.37109ZM3.7207 17.7051Q4.72656 17.7051 5.4541 17.334Q6.18164 16.9629 6.79688 16.2012L8.56445 14.0625Q8.75977 13.8281 8.97461 13.7207Q9.18945 13.6133 9.4043 13.6133L18.7891 13.6133Q19.0039 13.6133 19.2188 13.7207Q19.4336 13.8281 19.6289 14.0625L21.3965 16.2012Q22.0117 16.9629 22.7393 17.334Q23.4668 17.7051 24.4727 17.7051Q25.5859 17.7051 26.4258 17.2412Q27.2656 16.7773 27.7295 15.9277Q28.1934 15.0781 28.1934 13.9355Q28.1934 13.2031 28.0322 12.3633Q27.8711 11.5234 27.5879 10.5762Q27.2949 9.57031 26.8652 8.38867Q26.4355 7.20703 25.9424 6.00098Q25.4492 4.79492 24.9512 3.74023Q24.5312 2.86133 24.1602 2.27539Q23.7891 1.68945 23.2178 1.31836Q22.6465 0.947266 21.6113 0.712891Q20.2344 0.400391 18.3398 0.205078Q16.4453 0.00976562 14.1016 0.00976562Q11.7578 0.00976562 9.8584 0.205078Q7.95898 0.400391 6.58203 0.712891Q5.54688 0.947266 4.97559 1.31836Q4.4043 1.68945 4.0332 2.27539Q3.66211 2.86133 3.24219 3.74023Q2.74414 4.79492 2.25098 6.00098Q1.75781 7.20703 1.32812 8.38867Q0.898438 9.57031 0.605469 10.5762Q0.322266 11.5234 0.161133 12.3633Q0 13.2031 0 13.9355Q0 15.0781 0.463867 15.9277Q0.927734 16.7773 1.76758 17.2412Q2.60742 17.7051 3.7207 17.7051Z" fill="#ffffff"/>
 </g>
</svg>
