<?xml version="1.0" encoding="UTF-8"?>
<!--Generator: Apple Native CoreSVG 175-->
<!DOCTYPE svg
PUBLIC "-//W3C//DTD SVG 1.1//EN"
       "http://www.w3.org/Graphics/SVG/1.1/DTD/svg11.dtd">
<svg version="1.1" xmlns="http://www.w3.org/2000/svg" xmlns:xlink="http://www.w3.org/1999/xlink" width="22.3515" height="15.8597">
 <g>
  <rect height="15.8597" opacity="0" width="22.3515" x="0" y="0"/>
  <path d="M0 7.72339L8.12454 7.72339Q7.37885 7.45148 6.74721 6.9812Q6.11557 6.51093 5.73395 5.90584Q5.35233 5.30075 5.35233 4.61838Q5.35233 3.94806 5.61676 3.45779Q5.8812 2.96753 6.34903 2.70309Q6.81686 2.43866 7.43515 2.43866Q8.13171 2.43866 8.7928 2.79938Q9.45389 3.1601 9.99138 3.78975Q10.5289 4.4194 10.8398 5.22415L10.8398 0.0308228L11.5004 0.0308228L11.5004 5.22415Q11.8141 4.4194 12.3516 3.78975Q12.8891 3.1601 13.5502 2.79938Q14.2113 2.43866 14.9051 2.43866Q15.5235 2.43866 15.9913 2.70309Q16.459 2.96753 16.7235 3.45779Q16.9879 3.94806 16.9879 4.61838Q16.9879 5.30075 16.6077 5.90584Q16.2274 6.51093 15.5958 6.9812Q14.9641 7.45148 14.2157 7.72339L22.3515 7.72339L22.3515 8.34412L11.9466 8.34412Q12.3329 9.11514 12.9298 9.83994Q13.5266 10.5647 14.2082 11.1564Q14.8898 11.748 15.5305 12.1223Q16.1711 12.4965 16.6519 12.5691Q16.9145 12.6082 17.0252 12.7244Q17.1359 12.8406 17.1359 13.0246Q17.1359 13.1906 17.0107 13.3277Q16.8855 13.4648 16.6544 13.4203Q16.1543 13.3183 15.4795 12.9754Q14.8047 12.6324 14.0791 12.0549Q13.3536 11.4774 12.6844 10.6795Q12.0152 9.88159 11.5364 8.86993L11.5004 8.86993L11.5004 15.8597L10.8398 15.8597L10.8398 8.86993L10.8066 8.86993Q10.3278 9.88159 9.65858 10.6795Q8.98941 11.4774 8.26385 12.0549Q7.5383 12.6324 6.86211 12.9754Q6.18591 13.3183 5.68863 13.4203Q5.45746 13.4648 5.33226 13.3277Q5.20706 13.1906 5.20706 13.0246Q5.20706 12.8406 5.31776 12.7244Q5.42847 12.6082 5.68832 12.5691Q6.17188 12.4965 6.81252 12.1209Q7.45316 11.7453 8.13477 11.1537Q8.81638 10.5621 9.41322 9.83864Q10.0101 9.11514 10.3964 8.34412L0 8.34412ZM10.4402 7.68661L10.7246 7.68661L10.7246 7.44293Q10.7246 6.58829 10.4494 5.81657Q10.1743 5.04486 9.70703 4.44427Q9.23981 3.84369 8.65547 3.49449Q8.07114 3.14529 7.44995 3.14529Q6.84418 3.14529 6.44882 3.55606Q6.05347 3.96683 6.05347 4.6582Q6.05347 5.23087 6.41602 5.76912Q6.77856 6.30737 7.40082 6.74156Q8.02307 7.17575 8.80859 7.43118Q9.59412 7.68661 10.4402 7.68661ZM11.9 7.68661Q12.7489 7.68661 13.5344 7.43118Q14.3199 7.17575 14.9422 6.74156Q15.5644 6.30737 15.9256 5.76912Q16.2868 5.23087 16.2868 4.6582Q16.2868 3.96683 15.8928 3.55606Q15.4988 3.14529 14.8903 3.14529Q14.2719 3.14529 13.6875 3.49449Q13.1032 3.84369 12.636 4.44427Q12.1687 5.04486 11.8922 5.81657Q11.6156 6.58829 11.6156 7.44293L11.6156 7.68661ZM2.63046 15.8597L19.7141 15.8597Q21.0081 15.8597 21.6798 15.1872Q22.3515 14.5148 22.3515 13.2359L22.3515 2.65732Q22.3515 1.37848 21.6798 0.704651Q21.0081 0.0308228 19.7141 0.0308228L2.63046 0.0308228Q1.33636 0.0308228 0.668182 0.696259Q0 1.36169 0 2.65732L0 13.2359Q0 14.5288 0.668182 15.1942Q1.33636 15.8597 2.63046 15.8597Z" fill="#ffffff"/>
 </g>
</svg>
