<?xml version="1.0" encoding="UTF-8"?>
<!--Generator: Apple Native CoreSVG 175-->
<!DOCTYPE svg
PUBLIC "-//W3C//DTD SVG 1.1//EN"
       "http://www.w3.org/Graphics/SVG/1.1/DTD/svg11.dtd">
<svg version="1.1" xmlns="http://www.w3.org/2000/svg" xmlns:xlink="http://www.w3.org/1999/xlink" width="19.1602" height="22.8462">
 <g>
  <rect height="22.8462" opacity="0" width="19.1602" x="0" y="0"/>
  <path d="M0 11.4378Q0 13.4104 0.74707 15.1487Q1.49414 16.887 2.8125 18.2005Q4.13086 19.5139 5.86914 20.2659Q7.60742 21.0178 9.57031 21.0178Q11.5527 21.0178 13.2861 20.2659Q15.0195 19.5139 16.3379 18.2005Q17.6562 16.887 18.4082 15.1487Q19.1602 13.4104 19.1602 11.4378Q19.1602 9.67995 18.5547 8.10768Q17.9492 6.53541 16.875 5.27077Q15.8008 4.00612 14.3701 3.16139Q12.9395 2.31666 11.2598 2.00416L11.2598 0.412367Q11.2598 0.109633 11.0791 0.0266251Q10.8984-0.0563827 10.6348 0.119399L7.69531 2.17018Q7.48047 2.3362 7.48047 2.52174Q7.48047 2.70729 7.69531 2.86354L10.6348 4.91432Q10.8887 5.10963 11.0742 5.02174Q11.2598 4.93385 11.2598 4.64088L11.2598 2.77565Q12.793 3.06862 14.0918 3.84498Q15.3906 4.62135 16.3623 5.78346Q17.334 6.94557 17.8711 8.386Q18.4082 9.82643 18.4082 11.4378Q18.4082 13.2639 17.7197 14.8655Q17.0312 16.4671 15.8203 17.6829Q14.6094 18.8987 13.0078 19.5823Q11.4062 20.2659 9.57031 20.2659Q7.74414 20.2659 6.14746 19.5823Q4.55078 18.8987 3.33496 17.6829Q2.11914 16.4671 1.43066 14.8655Q0.742188 13.2639 0.742188 11.4378Q0.742188 9.8362 1.28418 8.39577Q1.82617 6.95534 2.78809 5.79811Q3.75 4.64088 5.03906 3.8694Q5.17578 3.78151 5.21484 3.63502Q5.25391 3.48854 5.17578 3.35182Q5.10742 3.22487 4.95117 3.19069Q4.79492 3.15651 4.64844 3.25416Q3.25195 4.09401 2.20703 5.34889Q1.16211 6.60377 0.581055 8.15651Q0 9.70924 0 11.4378Z" fill="rgba(255,255,255,0.5)"/>
  <path d="M6.23047 15.4514Q7.55859 15.4514 8.30566 14.3674Q9.05273 13.2835 9.05273 11.3303Q9.05273 10.5296 8.9209 9.89967Q8.78906 9.26979 8.54492 8.87916Q8.21289 8.30299 7.6416 7.99538Q7.07031 7.68776 6.36719 7.68776Q5.20508 7.68776 4.49219 8.38112Q3.7793 9.07448 3.7793 10.2171Q3.7793 11.2717 4.46289 11.9505Q5.14648 12.6292 6.18164 12.6292Q6.99219 12.6292 7.55371 12.2532Q8.11523 11.8772 8.41797 11.2522L8.39844 11.2131Q8.39844 11.2424 8.40332 11.2766Q8.4082 11.3108 8.4082 11.3596Q8.4082 12.4436 8.14941 13.2249Q7.89062 14.0061 7.39746 14.4309Q6.9043 14.8557 6.24023 14.8557Q5.72266 14.8557 5.29297 14.6116Q4.86328 14.3674 4.6582 13.9475Q4.58984 13.8108 4.51172 13.7571Q4.43359 13.7034 4.31641 13.7034Q4.18945 13.7034 4.11133 13.7913Q4.0332 13.8792 4.0332 14.0159Q4.0332 14.0647 4.04297 14.1038Q4.05273 14.1428 4.0625 14.2014Q4.14062 14.4456 4.43848 14.7385Q4.73633 15.0315 5.19531 15.2415Q5.6543 15.4514 6.23047 15.4514ZM6.35742 12.0432Q5.51758 12.0432 4.98535 11.5305Q4.45312 11.0178 4.45312 10.1682Q4.45312 9.30885 4.98047 8.79127Q5.50781 8.2737 6.36719 8.2737Q7.19727 8.2737 7.73926 8.81569Q8.28125 9.35768 8.28125 10.1878Q8.28125 10.9885 7.73438 11.5159Q7.1875 12.0432 6.35742 12.0432ZM13.1152 15.4514Q13.8965 15.4514 14.4922 14.968Q15.0879 14.4846 15.4248 13.6106Q15.7617 12.7366 15.7617 11.5647Q15.7617 10.3928 15.4248 9.51881Q15.0879 8.64479 14.4922 8.16139Q13.8965 7.67799 13.1152 7.67799Q11.9141 7.67799 11.1816 8.74733Q10.4492 9.81666 10.4492 11.5647Q10.4492 13.3225 11.1816 14.387Q11.9141 15.4514 13.1152 15.4514ZM13.1152 14.8264Q12.2168 14.8264 11.6602 13.928Q11.1035 13.0296 11.1035 11.5647Q11.1035 10.0901 11.6553 9.19166Q12.207 8.29323 13.1152 8.29323Q13.9941 8.29323 14.5459 9.19166Q15.0977 10.0901 15.0977 11.5647Q15.0977 13.0296 14.5459 13.928Q13.9941 14.8264 13.1152 14.8264Z" fill="#ffffff"/>
 </g>
</svg>
