<?xml version="1.0" encoding="UTF-8"?>
<!--Generator: Apple Native CoreSVG 175.5-->
<!DOCTYPE svg
PUBLIC "-//W3C//DTD SVG 1.1//EN"
       "http://www.w3.org/Graphics/SVG/1.1/DTD/svg11.dtd">
<svg version="1.1" xmlns="http://www.w3.org/2000/svg" xmlns:xlink="http://www.w3.org/1999/xlink" width="19.9219" height="23.7212">
 <g>
  <rect height="23.7212" opacity="0" width="19.9219" x="0" y="0"/>
  <path d="M0 11.8557Q0 13.8967 0.78125 15.7034Q1.5625 17.51 2.93945 18.8821Q4.31641 20.2541 6.11816 21.0354Q7.91992 21.8166 9.96094 21.8166Q12.002 21.8166 13.8037 21.0354Q15.6055 20.2541 16.9824 18.8821Q18.3594 17.51 19.1406 15.7034Q19.9219 13.8967 19.9219 11.8557Q19.9219 10.0588 19.3066 8.43773Q18.6914 6.81664 17.5928 5.50316Q16.4941 4.18969 15.0244 3.3059Q13.5547 2.42211 11.8457 2.08031L11.8457 0.693592Q11.8457 0.166248 11.543 0.039295Q11.2402-0.0876581 10.8398 0.195545L7.72461 2.37328Q7.38281 2.60765 7.38281 2.92015Q7.38281 3.23265 7.72461 3.4768L10.8301 5.6643Q11.2305 5.95726 11.5381 5.82543Q11.8457 5.69359 11.8457 5.16625L11.8457 3.77953Q13.2324 4.09203 14.3994 4.83422Q15.5664 5.5764 16.4307 6.65062Q17.2949 7.72484 17.7734 9.04808Q18.252 10.3713 18.252 11.8557Q18.252 13.5842 17.6123 15.093Q16.9727 16.6018 15.835 17.7395Q14.6973 18.8772 13.1934 19.5168Q11.6895 20.1565 9.96094 20.1565Q8.23242 20.1565 6.72363 19.5168Q5.21484 18.8772 4.07715 17.7395Q2.93945 16.6018 2.2998 15.093Q1.66016 13.5842 1.66016 11.8557Q1.66016 10.469 2.08984 9.2141Q2.51953 7.95922 3.29102 6.92406Q4.0625 5.8889 5.09766 5.14672Q5.40039 4.92211 5.4834 4.59984Q5.56641 4.27758 5.38086 3.97484Q5.19531 3.68187 4.84375 3.6184Q4.49219 3.55492 4.16992 3.79906Q2.91016 4.70726 1.97266 5.96215Q1.03516 7.21703 0.517578 8.71605Q0 10.2151 0 11.8557Z" fill="rgba(255,255,255,0.5)"/>
  <path d="M5.85938 15.9475Q6.05469 15.9475 6.20117 15.8401Q6.34766 15.7327 6.47461 15.4885L9.20898 9.86351Q9.31641 9.65844 9.35547 9.51683Q9.39453 9.37523 9.39453 9.21898Q9.39453 8.85765 9.15527 8.62328Q8.91602 8.3889 8.54492 8.3889L4.93164 8.3889Q4.7168 8.3889 4.58008 8.54515Q4.44336 8.7014 4.44336 8.93578Q4.44336 9.17992 4.58008 9.33129Q4.7168 9.48265 4.93164 9.48265L8.02734 9.48265L8.02734 9.48265L5.33203 14.883Q5.27344 14.9905 5.24414 15.0881Q5.21484 15.1858 5.21484 15.3127Q5.21484 15.5862 5.39551 15.7668Q5.57617 15.9475 5.85938 15.9475ZM12.6562 15.9768Q13.8672 15.9768 14.6045 15.259Q15.3418 14.5412 15.3418 13.3596Q15.3418 12.2854 14.6826 11.592Q14.0234 10.8987 12.9785 10.8987Q12.5195 10.8987 12.0703 11.1135Q11.6211 11.3284 11.4355 11.6995L11.4844 11.6995L11.6602 9.49242L14.5801 9.49242Q14.7949 9.49242 14.9561 9.33617Q15.1172 9.17992 15.1172 8.92601Q15.1172 8.68187 14.9561 8.53051Q14.7949 8.37914 14.5801 8.37914L11.4551 8.37914Q10.6836 8.37914 10.625 9.18969L10.4102 12.0022Q10.3809 12.3635 10.5566 12.5442Q10.7324 12.7248 11.0449 12.7248Q11.2891 12.7248 11.4355 12.6662Q11.582 12.6077 11.7871 12.4514Q12.0703 12.1975 12.3145 12.0852Q12.5586 11.9729 12.8516 11.9729Q13.418 11.9729 13.7695 12.3586Q14.1211 12.7444 14.1211 13.3791Q14.1211 14.0237 13.7158 14.4436Q13.3105 14.8635 12.7051 14.8635Q12.2754 14.8635 11.9238 14.634Q11.5723 14.4045 11.377 14.0237Q11.2695 13.8381 11.1328 13.7356Q10.9961 13.633 10.8203 13.633Q10.5762 13.633 10.4248 13.7893Q10.2734 13.9455 10.2734 14.1995Q10.2734 14.2971 10.293 14.3948Q10.3125 14.4924 10.3516 14.5901Q10.5469 15.1174 11.1572 15.5471Q11.7676 15.9768 12.6562 15.9768Z" fill="#ffffff"/>
 </g>
</svg>
