<?xml version="1.0" encoding="UTF-8"?>
<!--Generator: Apple Native CoreSVG 175.5-->
<!DOCTYPE svg
PUBLIC "-//W3C//DTD SVG 1.1//EN"
       "http://www.w3.org/Graphics/SVG/1.1/DTD/svg11.dtd">
<svg version="1.1" xmlns="http://www.w3.org/2000/svg" xmlns:xlink="http://www.w3.org/1999/xlink" width="19.9219" height="23.7212">
 <g>
  <rect height="23.7212" opacity="0" width="19.9219" x="0" y="0"/>
  <path d="M0 11.8557Q0 13.8967 0.78125 15.7034Q1.5625 17.51 2.93945 18.8821Q4.31641 20.2541 6.11816 21.0354Q7.91992 21.8166 9.96094 21.8166Q12.002 21.8166 13.8037 21.0354Q15.6055 20.2541 16.9824 18.8821Q18.3594 17.51 19.1406 15.7034Q19.9219 13.8967 19.9219 11.8557Q19.9219 10.0588 19.3066 8.43773Q18.6914 6.81664 17.5928 5.50316Q16.4941 4.18969 15.0244 3.3059Q13.5547 2.42211 11.8457 2.08031L11.8457 0.693592Q11.8457 0.166248 11.543 0.039295Q11.2402-0.0876581 10.8398 0.195545L7.72461 2.37328Q7.38281 2.60765 7.38281 2.92015Q7.38281 3.23265 7.72461 3.4768L10.8301 5.6643Q11.2305 5.95726 11.5381 5.82543Q11.8457 5.69359 11.8457 5.16625L11.8457 3.77953Q13.2324 4.09203 14.3994 4.83422Q15.5664 5.5764 16.4307 6.65062Q17.2949 7.72484 17.7734 9.04808Q18.252 10.3713 18.252 11.8557Q18.252 13.5842 17.6123 15.093Q16.9727 16.6018 15.835 17.7395Q14.6973 18.8772 13.1934 19.5168Q11.6895 20.1565 9.96094 20.1565Q8.23242 20.1565 6.72363 19.5168Q5.21484 18.8772 4.07715 17.7395Q2.93945 16.6018 2.2998 15.093Q1.66016 13.5842 1.66016 11.8557Q1.66016 10.469 2.08984 9.2141Q2.51953 7.95922 3.29102 6.92406Q4.0625 5.8889 5.09766 5.14672Q5.40039 4.92211 5.4834 4.59984Q5.56641 4.27758 5.38086 3.97484Q5.19531 3.68187 4.84375 3.6184Q4.49219 3.55492 4.16992 3.79906Q2.91016 4.70726 1.97266 5.96215Q1.03516 7.21703 0.517578 8.71605Q0 10.2151 0 11.8557Z" fill="rgba(255,255,255,0.5)"/>
  <path d="M7.10938 15.8596Q7.39258 15.8596 7.55859 15.6789Q7.72461 15.4983 7.72461 15.1858L7.72461 9.02367Q7.72461 8.64281 7.54883 8.45238Q7.37305 8.26195 7.04102 8.26195Q6.83594 8.26195 6.66016 8.33519Q6.48438 8.40844 6.2207 8.58422L4.88281 9.49242Q4.7168 9.60961 4.63379 9.75121Q4.55078 9.89281 4.55078 10.0588Q4.55078 10.303 4.7168 10.4787Q4.88281 10.6545 5.11719 10.6545Q5.26367 10.6545 5.36133 10.6155Q5.45898 10.5764 5.58594 10.469L6.52344 9.78539L6.50391 9.78539L6.50391 15.1858Q6.50391 15.4885 6.66992 15.6741Q6.83594 15.8596 7.10938 15.8596ZM12.0703 15.9768Q13.2812 15.9768 14.0186 15.259Q14.7559 14.5412 14.7559 13.3596Q14.7559 12.2854 14.1016 11.592Q13.4473 10.8987 12.4023 10.8987Q11.9336 10.8987 11.4893 11.1135Q11.0449 11.3284 10.8496 11.6995L10.8984 11.6995L11.0742 9.49242L13.9941 9.49242Q14.209 9.49242 14.3701 9.33617Q14.5312 9.17992 14.5312 8.92601Q14.5312 8.68187 14.3701 8.53051Q14.209 8.37914 13.9941 8.37914L10.8789 8.37914Q10.1074 8.37914 10.0391 9.18969L9.82422 12.0022Q9.79492 12.3635 9.9707 12.5442Q10.1465 12.7248 10.4688 12.7248Q10.7031 12.7248 10.8496 12.6662Q10.9961 12.6077 11.2012 12.4514Q11.4844 12.1975 11.7285 12.0852Q11.9727 11.9729 12.2656 11.9729Q12.832 11.9729 13.1836 12.3586Q13.5352 12.7444 13.5352 13.3791Q13.5352 14.0237 13.1348 14.4436Q12.7344 14.8635 12.1289 14.8635Q11.6895 14.8635 11.3379 14.634Q10.9863 14.4045 10.8008 14.0237Q10.6934 13.8381 10.5566 13.7356Q10.4199 13.633 10.2344 13.633Q9.99023 13.633 9.83887 13.7893Q9.6875 13.9455 9.6875 14.1995Q9.6875 14.2971 9.70703 14.3948Q9.72656 14.4924 9.76562 14.5901Q9.96094 15.1174 10.5713 15.5471Q11.1816 15.9768 12.0703 15.9768Z" fill="#ffffff"/>
 </g>
</svg>
