<?xml version="1.0" encoding="UTF-8"?>
<!--Generator: Apple Native CoreSVG 175-->
<!DOCTYPE svg
PUBLIC "-//W3C//DTD SVG 1.1//EN"
       "http://www.w3.org/Graphics/SVG/1.1/DTD/svg11.dtd">
<svg version="1.1" xmlns="http://www.w3.org/2000/svg" xmlns:xlink="http://www.w3.org/1999/xlink" width="19.1602" height="22.8202">
 <g>
  <rect height="22.8202" opacity="0" width="19.1602" x="0" y="0"/>
  <path d="M0 11.4247Q0 13.3974 0.74707 15.1357Q1.49414 16.874 2.8125 18.1874Q4.13086 19.5009 5.86914 20.2529Q7.60742 21.0048 9.57031 21.0048Q11.5527 21.0048 13.2861 20.2529Q15.0195 19.5009 16.3379 18.1874Q17.6562 16.874 18.4082 15.1357Q19.1602 13.3974 19.1602 11.4247Q19.1602 9.69622 18.5742 8.14348Q17.9883 6.59075 16.9434 5.33587Q15.8984 4.08098 14.5117 3.24114Q14.3555 3.14348 14.2041 3.17766Q14.0527 3.21184 13.9746 3.3388Q13.8965 3.47552 13.9355 3.622Q13.9746 3.76848 14.1113 3.85638Q15.4004 4.62786 16.3672 5.78509Q17.334 6.94231 17.8711 8.38274Q18.4082 9.82317 18.4082 11.4247Q18.4082 13.2509 17.7246 14.8525Q17.041 16.454 15.8252 17.6699Q14.6094 18.8857 13.0078 19.5693Q11.4062 20.2529 9.57031 20.2529Q7.74414 20.2529 6.14746 19.5693Q4.55078 18.8857 3.33496 17.6699Q2.11914 16.454 1.43555 14.8525Q0.751953 13.2509 0.751953 11.4247Q0.751953 9.80364 1.28906 8.36809Q1.82617 6.93255 2.79785 5.77044Q3.76953 4.60833 5.07324 3.83196Q6.37695 3.05559 7.90039 2.76263L7.90039 4.63763Q7.90039 4.93059 8.08594 5.0136Q8.27148 5.09661 8.52539 4.91106L11.4648 2.86028Q11.6797 2.7138 11.6797 2.52337Q11.6797 2.33294 11.4648 2.17669L8.53516 0.125907Q8.26172-0.0596401 8.08105 0.0282506Q7.90039 0.116141 7.90039 0.40911L7.90039 1.99114Q6.2207 2.29388 4.78516 3.1386Q3.34961 3.98333 2.27539 5.24798Q1.20117 6.51263 0.600586 8.08977Q0 9.66692 0 11.4247Z" fill="rgba(255,255,255,0.5)"/>
  <path d="M9.42383 15.4384Q10.6055 15.4384 11.3428 14.745Q12.0801 14.0517 12.0801 12.9091Q12.0801 11.8642 11.4062 11.1757Q10.7324 10.4872 9.6582 10.4872Q9.13086 10.4872 8.6377 10.7216Q8.14453 10.956 7.87109 11.3661L7.8418 11.3661L8.08594 8.43645L11.5234 8.43645Q11.6504 8.43645 11.7383 8.34856Q11.8262 8.26067 11.8262 8.13372Q11.8262 7.997 11.7383 7.91888Q11.6504 7.84075 11.5234 7.84075L7.94922 7.84075Q7.5 7.84075 7.4707 8.29973L7.2168 11.6396Q7.20703 11.8349 7.2998 11.9423Q7.39258 12.0497 7.57812 12.0497Q7.71484 12.0497 7.79297 12.0107Q7.87109 11.9716 7.97852 11.874Q8.37891 11.4443 8.75 11.2636Q9.12109 11.0829 9.58008 11.0829Q10.3906 11.0829 10.8984 11.5956Q11.4062 12.1083 11.4062 12.9286Q11.4062 13.7587 10.8545 14.3007Q10.3027 14.8427 9.46289 14.8427Q8.83789 14.8427 8.33984 14.5058Q7.8418 14.1689 7.69531 13.6611Q7.64648 13.5341 7.56836 13.4658Q7.49023 13.3974 7.36328 13.3974Q7.23633 13.3974 7.15332 13.4853Q7.07031 13.5732 7.07031 13.7099Q7.07031 13.7587 7.0752 13.8124Q7.08008 13.8661 7.09961 13.9247Q7.27539 14.5693 7.9248 15.0038Q8.57422 15.4384 9.42383 15.4384Z" fill="#ffffff"/>
 </g>
</svg>
