<?xml version="1.0" encoding="UTF-8"?>
<!--Generator: Apple Native CoreSVG 175.5-->
<!DOCTYPE svg
PUBLIC "-//W3C//DTD SVG 1.1//EN"
       "http://www.w3.org/Graphics/SVG/1.1/DTD/svg11.dtd">
<svg version="1.1" xmlns="http://www.w3.org/2000/svg" xmlns:xlink="http://www.w3.org/1999/xlink" width="19.9219" height="23.7146">
 <g>
  <rect height="23.7146" opacity="0" width="19.9219" x="0" y="0"/>
  <path d="M0 11.8524Q0 13.8935 0.78125 15.7001Q1.5625 17.5067 2.93945 18.8788Q4.31641 20.2509 6.11816 21.0321Q7.91992 21.8134 9.96094 21.8134Q12.002 21.8134 13.8037 21.0321Q15.6055 20.2509 16.9824 18.8788Q18.3594 17.5067 19.1406 15.7001Q19.9219 13.8935 19.9219 11.8524Q19.9219 10.2118 19.4043 8.71279Q18.8867 7.21377 17.9492 5.95888Q17.0117 4.704 15.752 3.7958Q15.4297 3.55166 15.0781 3.61513Q14.7266 3.67861 14.541 3.97158Q14.3555 4.27431 14.4385 4.59658Q14.5215 4.91884 14.8242 5.14345Q15.8594 5.88564 16.6309 6.9208Q17.4023 7.95595 17.832 9.21084Q18.2617 10.4657 18.2617 11.8524Q18.2617 13.581 17.6221 15.0897Q16.9824 16.5985 15.8447 17.7362Q14.707 18.8739 13.1982 19.5136Q11.6895 20.1532 9.96094 20.1532Q8.23242 20.1532 6.72852 19.5136Q5.22461 18.8739 4.08691 17.7362Q2.94922 16.5985 2.30957 15.0897Q1.66992 13.581 1.66992 11.8524Q1.66992 10.3681 2.14844 9.04482Q2.62695 7.72158 3.49121 6.64736Q4.35547 5.57314 5.52734 4.83095Q6.69922 4.08877 8.07617 3.77627L8.07617 5.17275Q8.07617 5.69033 8.38379 5.82216Q8.69141 5.954 9.0918 5.6708L12.207 3.4833Q12.5391 3.25869 12.5439 2.94131Q12.5488 2.62392 12.207 2.38955L9.10156 0.202047Q8.69141-0.0909213 8.38379 0.0409146Q8.07617 0.172751 8.07617 0.700094L8.07617 2.07705Q6.36719 2.41884 4.89746 3.30263Q3.42773 4.18642 2.3291 5.4999Q1.23047 6.81338 0.615234 8.43447Q0 10.0556 0 11.8524Z" fill="rgba(255,255,255,0.5)"/>
  <path d="M7.06055 15.8563Q7.34375 15.8563 7.50977 15.6757Q7.67578 15.495 7.67578 15.1825L7.67578 9.02041Q7.67578 8.63955 7.5 8.44912Q7.32422 8.25869 6.99219 8.25869Q6.78711 8.25869 6.61133 8.33193Q6.43555 8.40517 6.17188 8.58095L4.83398 9.48916Q4.66797 9.60634 4.58496 9.74795Q4.50195 9.88955 4.50195 10.0556Q4.50195 10.2997 4.66797 10.4755Q4.83398 10.6513 5.06836 10.6513Q5.21484 10.6513 5.3125 10.6122Q5.41016 10.5731 5.53711 10.4657L6.47461 9.78213L6.45508 9.78213L6.45508 15.1825Q6.45508 15.4853 6.62109 15.6708Q6.78711 15.8563 7.06055 15.8563ZM12.0215 15.9735Q13.2324 15.9735 13.9697 15.2558Q14.707 14.538 14.707 13.3563Q14.707 12.2821 14.0527 11.5888Q13.3984 10.8954 12.3535 10.8954Q11.8848 10.8954 11.4404 11.1103Q10.9961 11.3251 10.8008 11.6962L10.8496 11.6962L11.0254 9.48916L13.9453 9.48916Q14.1602 9.48916 14.3213 9.33291Q14.4824 9.17666 14.4824 8.92275Q14.4824 8.67861 14.3213 8.52724Q14.1602 8.37588 13.9453 8.37588L10.8301 8.37588Q10.0586 8.37588 9.99023 9.18642L9.77539 11.9989Q9.74609 12.3603 9.92188 12.5409Q10.0977 12.7216 10.4199 12.7216Q10.6543 12.7216 10.8008 12.663Q10.9473 12.6044 11.1523 12.4481Q11.4355 12.1942 11.6797 12.0819Q11.9238 11.9696 12.2168 11.9696Q12.7832 11.9696 13.1348 12.3554Q13.4863 12.7411 13.4863 13.3759Q13.4863 14.0204 13.0859 14.4403Q12.6855 14.8603 12.0801 14.8603Q11.6406 14.8603 11.2891 14.6308Q10.9375 14.4013 10.752 14.0204Q10.6445 13.8349 10.5078 13.7323Q10.3711 13.6298 10.1855 13.6298Q9.94141 13.6298 9.79004 13.786Q9.63867 13.9423 9.63867 14.1962Q9.63867 14.2938 9.6582 14.3915Q9.67773 14.4892 9.7168 14.5868Q9.91211 15.1142 10.5225 15.5438Q11.1328 15.9735 12.0215 15.9735Z" fill="#ffffff"/>
 </g>
</svg>
