<?xml version="1.0" encoding="UTF-8"?>
<!--Generator: Apple Native CoreSVG 175.5-->
<!DOCTYPE svg
PUBLIC "-//W3C//DTD SVG 1.1//EN"
       "http://www.w3.org/Graphics/SVG/1.1/DTD/svg11.dtd">
<svg version="1.1" xmlns="http://www.w3.org/2000/svg" xmlns:xlink="http://www.w3.org/1999/xlink" width="17.9785" height="17.998">
 <g>
  <rect height="17.998" opacity="0" width="17.9785" x="0" y="0"/>
  <path d="M3.06641 17.998L14.9121 17.998Q16.4453 17.998 17.2119 17.2412Q17.9785 16.4844 17.9785 14.9707L17.9785 3.04688Q17.9785 1.5332 17.2119 0.776367Q16.4453 0.0195312 14.9121 0.0195312L3.06641 0.0195312Q1.5332 0.0195312 0.766602 0.776367Q0 1.5332 0 3.04688L0 14.9707Q0 16.4844 0.766602 17.2412Q1.5332 17.998 3.06641 17.998Z" fill="rgba(255,255,255,0.25)"/>
  <path d="M5.82031 13.6133Q5.43945 13.6133 5.22949 13.374Q5.01953 13.1348 5.01953 12.7051L5.01953 5.09766Q5.01953 4.66797 5.22949 4.42871Q5.43945 4.18945 5.82031 4.18945Q6.21094 4.18945 6.42578 4.42871Q6.64062 4.66797 6.64062 5.09766L6.64062 8.125L11.3477 8.125L11.3477 5.09766Q11.3477 4.66797 11.5576 4.42871Q11.7676 4.18945 12.1387 4.18945Q12.5391 4.18945 12.749 4.42871Q12.959 4.66797 12.959 5.09766L12.959 12.7051Q12.959 13.1445 12.749 13.3789Q12.5391 13.6133 12.1387 13.6133Q11.7676 13.6133 11.5576 13.374Q11.3477 13.1348 11.3477 12.7051L11.3477 9.39453L6.64062 9.39453L6.64062 12.7051Q6.64062 13.1445 6.42578 13.3789Q6.21094 13.6133 5.82031 13.6133Z" fill="#ffffff"/>
 </g>
</svg>
