<?xml version="1.0" encoding="UTF-8"?>
<!--Generator: Apple Native CoreSVG 175-->
<!DOCTYPE svg
PUBLIC "-//W3C//DTD SVG 1.1//EN"
       "http://www.w3.org/Graphics/SVG/1.1/DTD/svg11.dtd">
<svg version="1.1" xmlns="http://www.w3.org/2000/svg" xmlns:xlink="http://www.w3.org/1999/xlink" width="14.3501" height="20.6161">
 <g>
  <rect height="20.6161" opacity="0" width="14.3501" x="0" y="0"/>
  <path d="M0 13.454Q0 15.1031 0.487518 16.334Q0.975037 17.5648 1.84181 18.3854Q2.70859 19.2059 3.8604 19.6171Q5.01221 20.0282 6.33362 20.0282Q8.6087 20.0282 10.263 18.8055Q11.9173 17.5829 12.7759 14.8424Q12.9677 14.2743 13.1442 13.6892Q13.3208 13.1041 13.4919 12.5109Q13.663 11.9177 13.8313 11.313Q13.9996 10.7083 14.1638 10.09Q14.2134 9.9118 14.2566 9.73892Q14.2998 9.56604 14.325 9.42154Q14.3501 9.27704 14.3501 9.17618Q14.3501 8.82782 14.1159 8.62938Q13.8817 8.43094 13.5532 8.43094Q13.27 8.43094 13.0299 8.60283Q12.7899 8.77472 12.6169 9.17969L11.386 12.207Q11.2602 12.547 11.0833 12.6587Q10.9064 12.7704 10.7329 12.7704Q10.5063 12.7704 10.3468 12.6116Q10.1872 12.4529 10.1872 12.0863L10.1872 2.64374Q10.1872 2.29141 9.93233 2.033Q9.67743 1.7746 9.31808 1.7746Q8.96576 1.7746 8.70735 2.033Q8.44894 2.29141 8.44894 2.64374L8.44894 9.26498Q8.21564 9.15161 7.9657 9.07196Q7.71576 8.99231 7.45316 8.93204L7.45316 0.871887Q7.45316 0.516815 7.19475 0.258408Q6.93634 0 6.58401 0Q6.22192 0 5.96352 0.258408Q5.70511 0.516815 5.70511 0.871887L5.70511 8.81058Q5.40314 8.83011 5.0985 8.86642Q4.79385 8.90274 4.51294 8.95599L4.51294 1.94107Q4.51294 1.58875 4.25453 1.33034Q3.99612 1.07193 3.6438 1.07193Q3.28445 1.07193 3.02956 1.33034Q2.77466 1.58875 2.77466 1.94107L2.77466 9.52866Q2.46017 9.6669 2.20535 9.81842Q1.95053 9.96994 1.74103 10.1321L1.74103 4.88678Q1.74103 4.52744 1.48621 4.27254Q1.23138 4.01764 0.871887 4.01764Q0.509796 4.01764 0.254898 4.27254Q0 4.52744 0 4.88678Z" fill="#ffffff"/>
 </g>
</svg>
