<?xml version="1.0" encoding="UTF-8"?>
<!--Generator: Apple Native CoreSVG 175.5-->
<!DOCTYPE svg
PUBLIC "-//W3C//DTD SVG 1.1//EN"
       "http://www.w3.org/Graphics/SVG/1.1/DTD/svg11.dtd">
<svg version="1.1" xmlns="http://www.w3.org/2000/svg" xmlns:xlink="http://www.w3.org/1999/xlink" width="20.8789" height="16.2793">
 <g>
  <rect height="16.2793" opacity="0" width="20.8789" x="0" y="0"/>
  <path d="M20.8789 9.32617Q20.8789 7.69531 20.2783 6.26465Q19.6777 4.83398 18.3789 3.71582Q17.0801 2.59766 15 1.88477L10.0391 0.234375Q9.91211 0.185547 9.77051 0.151367Q9.62891 0.117188 9.45312 0.117188Q9.01367 0.117188 8.70117 0.43457Q8.38867 0.751953 8.38867 1.2793Q8.38867 1.62109 8.56934 1.87988Q8.75 2.13867 9.14062 2.30469L12.6953 3.81836Q13.0859 3.97461 13.0859 4.24805Q13.0859 4.38477 12.9736 4.49707Q12.8613 4.60938 12.6562 4.60938L1.25977 4.60938Q0.693359 4.60938 0.34668 4.93164Q0 5.25391 0 5.77148Q0 6.25 0.34668 6.58203Q0.693359 6.91406 1.25977 6.91406L9.04297 6.91406Q9.35547 6.91406 9.50684 7.05078Q9.6582 7.1875 9.6582 7.39258Q9.6582 7.57812 9.50684 7.71484Q9.35547 7.85156 9.04297 7.85156L6.71875 7.85156Q6.19141 7.85156 6.19141 8.44727Q6.19141 9.11133 6.62109 9.57031Q7.05078 10.0293 7.93945 10.0293L9.04297 10.0293Q9.35547 10.0293 9.50684 10.166Q9.6582 10.3027 9.6582 10.5078Q9.6582 10.6934 9.50684 10.8301Q9.35547 10.9668 9.04297 10.9668L7.85156 10.9668Q7.33398 10.9668 7.33398 11.5625Q7.33398 12.2559 7.8125 12.7051Q8.29102 13.1543 9.0918 13.1543L9.6582 13.1543Q9.9707 13.1543 10.1221 13.2959Q10.2734 13.4375 10.2734 13.6328Q10.2734 13.8184 10.1221 13.9551Q9.9707 14.0918 9.6582 14.0918L8.78906 14.0918Q8.45703 14.0918 8.45703 14.4336Q8.45703 14.9219 8.80859 15.3418Q9.16016 15.7617 9.81445 16.0205Q10.4688 16.2793 11.3672 16.2793L13.3203 16.2793Q15.7129 16.2793 17.4023 15.4688Q19.0918 14.6582 19.9854 13.1055Q20.8789 11.5527 20.8789 9.32617Z" fill="#ffffff"/>
 </g>
</svg>
