<?xml version="1.0" encoding="UTF-8"?>
<!--Generator: Apple Native CoreSVG 175.5-->
<!DOCTYPE svg
PUBLIC "-//W3C//DTD SVG 1.1//EN"
       "http://www.w3.org/Graphics/SVG/1.1/DTD/svg11.dtd">
<svg version="1.1" xmlns="http://www.w3.org/2000/svg" xmlns:xlink="http://www.w3.org/1999/xlink" width="15.9473" height="20.5566">
 <g>
  <rect height="20.5566" opacity="0" width="15.9473" x="0" y="0"/>
  <path d="M9.04297 20.5469Q11.1133 20.5469 12.666 19.6631Q14.2188 18.7793 15.083 17.1338Q15.9473 15.4883 15.9473 13.2031L15.9473 11.0645Q15.9473 9.38477 15.1904 8.4375Q14.4336 7.49023 13.0664 7.48047Q12.9004 6.94336 12.4756 6.63574Q12.0508 6.32812 11.4355 6.32812Q11.0156 6.32812 10.5762 6.47461Q10.3906 5.87891 9.93164 5.54199Q9.47266 5.20508 8.83789 5.20508Q8.48633 5.20508 8.14453 5.30273L8.14453 2.05078Q8.14453 1.12305 7.59277 0.561523Q7.04102 0 6.17188 0Q5.30273 0 4.74121 0.561523Q4.17969 1.12305 4.17969 2.05078L4.17969 10.1953Q4.17969 10.2832 4.11133 10.2832Q4.05273 10.2832 4.02344 10.2148L3.37891 8.66211Q3.13477 8.08594 2.71973 7.78809Q2.30469 7.49023 1.78711 7.49023Q1.07422 7.49023 0.537109 7.9248Q0 8.35938 0 9.16016Q0 9.38477 0.0439453 9.6582Q0.0878906 9.93164 0.175781 10.1855L1.89453 15.0195Q2.87109 17.7734 4.66797 19.1602Q6.46484 20.5469 9.04297 20.5469ZM9.0918 19.1992Q7.05078 19.1992 5.51758 18.1494Q3.98438 17.0996 3.08594 14.5996L1.35742 9.78516Q1.2793 9.56055 1.2793 9.33594Q1.2793 9.08203 1.45508 8.89648Q1.63086 8.71094 1.92383 8.71094Q2.37305 8.71094 2.58789 9.23828L3.92578 12.207Q4.08203 12.5781 4.30176 12.7197Q4.52148 12.8613 4.78516 12.8613Q5.08789 12.8613 5.2832 12.6416Q5.47852 12.4219 5.47852 12.0898L5.47852 1.96289Q5.47852 1.65039 5.67383 1.45508Q5.86914 1.25977 6.17188 1.25977Q6.47461 1.25977 6.66016 1.45508Q6.8457 1.65039 6.8457 1.96289L6.8457 9.18945Q6.8457 9.44336 7.03125 9.61914Q7.2168 9.79492 7.4707 9.79492Q7.72461 9.79492 7.90527 9.61914Q8.08594 9.44336 8.08594 9.18945L8.08594 6.5918Q8.35938 6.45508 8.67188 6.45508Q9.0332 6.45508 9.24316 6.67969Q9.45312 6.9043 9.45312 7.29492L9.45312 9.56055Q9.45312 9.83398 9.64355 10Q9.83398 10.166 10.0781 10.166Q10.3223 10.166 10.5078 10Q10.6934 9.83398 10.6934 9.56055L10.6934 7.71484Q10.9668 7.58789 11.2695 7.58789Q11.6406 7.58789 11.8457 7.80762Q12.0508 8.02734 12.0508 8.41797L12.0508 9.94141Q12.0508 10.2051 12.2412 10.3711Q12.4316 10.5371 12.6855 10.5371Q12.9199 10.5371 13.1055 10.3711Q13.291 10.2051 13.291 9.94141L13.291 8.81836Q13.9453 8.81836 14.3018 9.45801Q14.6582 10.0977 14.6582 11.2598L14.6582 13.0469Q14.6582 15.0098 13.9893 16.3818Q13.3203 17.7539 12.0703 18.4766Q10.8203 19.1992 9.0918 19.1992Z" fill="#ffffff"/>
 </g>
</svg>
