<?xml version="1.0" encoding="UTF-8"?>
<!--Generator: Apple Native CoreSVG 175.5-->
<!DOCTYPE svg
PUBLIC "-//W3C//DTD SVG 1.1//EN"
       "http://www.w3.org/Graphics/SVG/1.1/DTD/svg11.dtd">
<svg version="1.1" xmlns="http://www.w3.org/2000/svg" xmlns:xlink="http://www.w3.org/1999/xlink" width="18.5807" height="24.834">
 <g>
  <rect height="24.834" opacity="0" width="18.5807" x="0" y="0"/>
  <path d="M14.0234 21.4551Q15.9668 20.752 17.1191 19.3896Q18.2715 18.0273 18.5205 16.1865Q18.7695 14.3457 17.9883 12.1973L17.2656 10.1953Q16.6895 8.61328 15.6543 7.9834Q14.6191 7.35352 13.3301 7.80273Q12.9883 7.35352 12.4805 7.21191Q11.9727 7.07031 11.4062 7.27539Q11.0059 7.42188 10.6445 7.70508Q10.2734 7.2168 9.72168 7.05566Q9.16992 6.89453 8.57422 7.10938Q8.24219 7.23633 7.95898 7.44141L6.8457 4.39453Q6.5332 3.51562 5.82031 3.17871Q5.10742 2.8418 4.29688 3.13477Q3.4668 3.4375 3.13965 4.15527Q2.8125 4.87305 3.125 5.74219L5.9082 13.3984Q5.9375 13.4863 5.86914 13.5059Q5.82031 13.5254 5.77148 13.4766L4.62891 12.2266Q4.19922 11.7773 3.71094 11.6357Q3.22266 11.4941 2.72461 11.6699Q2.06055 11.9141 1.7041 12.5098Q1.34766 13.1055 1.63086 13.8574Q1.69922 14.0723 1.83594 14.3115Q1.97266 14.5508 2.13867 14.7656L5.41016 18.7207Q7.26562 20.9668 9.42871 21.6553Q11.5918 22.3438 14.0234 21.4551ZM13.6035 20.1758Q11.6797 20.8789 9.88281 20.4199Q8.08594 19.9609 6.38672 17.9102L3.11523 13.9746Q2.96875 13.7891 2.89062 13.584Q2.80273 13.3496 2.90527 13.1152Q3.00781 12.8809 3.28125 12.7734Q3.70117 12.627 4.0918 13.0469L6.35742 15.3809Q6.63086 15.6738 6.88477 15.7275Q7.13867 15.7812 7.39258 15.6934Q7.67578 15.5859 7.7832 15.3174Q7.89062 15.0488 7.7832 14.7266L4.31641 5.21484Q4.20898 4.92188 4.32617 4.67285Q4.44336 4.42383 4.72656 4.31641Q5.00977 4.21875 5.24902 4.34082Q5.48828 4.46289 5.5957 4.75586L8.06641 11.543Q8.1543 11.7871 8.38867 11.8848Q8.62305 11.9824 8.86719 11.8945Q9.10156 11.8066 9.21387 11.582Q9.32617 11.3574 9.23828 11.123L8.34961 8.67188Q8.56445 8.45703 8.84766 8.34961Q9.18945 8.22266 9.46289 8.36426Q9.73633 8.50586 9.86328 8.86719L10.6445 11.0059Q10.7324 11.25 10.9717 11.3428Q11.2109 11.4355 11.4453 11.3477Q11.6699 11.2695 11.7871 11.0498Q11.9043 10.8301 11.8066 10.5762L11.1816 8.83789Q11.3867 8.62305 11.6797 8.51562Q12.0215 8.38867 12.2949 8.53027Q12.5684 8.67188 12.6953 9.0332L13.2129 10.459Q13.3105 10.7129 13.5449 10.8057Q13.7793 10.8984 14.0137 10.8105Q14.2383 10.7324 14.3555 10.5127Q14.4727 10.293 14.3848 10.0391L14.0039 8.98438Q14.6094 8.75977 15.166 9.24316Q15.7227 9.72656 16.1133 10.8203L16.7285 12.4902Q17.4023 14.3359 17.2412 15.8594Q17.0801 17.3828 16.1572 18.4863Q15.2344 19.5898 13.6035 20.1758Z" fill="#ffffff"/>
  <path d="M4.88281 0Q3.87695 0 2.98828 0.380859Q2.09961 0.761719 1.43066 1.43066Q0.761719 2.09961 0.380859 2.9834Q0 3.86719 0 4.88281Q0 5.75195 0.288086 6.53809Q0.576172 7.32422 1.08398 7.95898Q1.21094 8.10547 1.35254 8.17383Q1.49414 8.24219 1.63086 8.24219Q1.875 8.24219 2.06055 8.08105Q2.24609 7.91992 2.28027 7.67578Q2.31445 7.43164 2.10938 7.1875Q1.71875 6.71875 1.49902 6.12793Q1.2793 5.53711 1.2793 4.88281Q1.2793 3.88672 1.7627 3.07129Q2.24609 2.25586 3.06641 1.76758Q3.88672 1.2793 4.88281 1.2793Q5.87891 1.2793 6.69434 1.76758Q7.50977 2.25586 7.99316 3.07129Q8.47656 3.88672 8.47656 4.88281Q8.47656 4.92188 8.47656 4.9707Q8.47656 5.01953 8.47656 5.08789Q8.48633 5.41992 8.67676 5.57129Q8.86719 5.72266 9.10156 5.72266Q9.32617 5.72266 9.52637 5.57129Q9.72656 5.41992 9.74609 5.16602Q9.75586 5.10742 9.75586 5.03906Q9.75586 4.9707 9.75586 4.88281Q9.75586 3.53516 9.10156 2.42676Q8.44727 1.31836 7.33887 0.65918Q6.23047 0 4.88281 0Z" fill="rgba(255,255,255,0.5)"/>
 </g>
</svg>
