<?xml version="1.0" encoding="UTF-8"?>
<!--Generator: Apple Native CoreSVG 175.5-->
<!DOCTYPE svg
PUBLIC "-//W3C//DTD SVG 1.1//EN"
       "http://www.w3.org/Graphics/SVG/1.1/DTD/svg11.dtd">
<svg version="1.1" xmlns="http://www.w3.org/2000/svg" xmlns:xlink="http://www.w3.org/1999/xlink" width="19.9219" height="19.9316">
 <g>
  <rect height="19.9316" opacity="0" width="19.9219" x="0" y="0"/>
  <path d="M9.96094 19.9219Q12.002 19.9219 13.8037 19.1406Q15.6055 18.3594 16.9824 16.9824Q18.3594 15.6055 19.1406 13.8037Q19.9219 12.002 19.9219 9.96094Q19.9219 7.91992 19.1406 6.11816Q18.3594 4.31641 16.9824 2.93945Q15.6055 1.5625 13.7988 0.78125Q11.9922 0 9.95117 0Q7.91016 0 6.1084 0.78125Q4.30664 1.5625 2.93457 2.93945Q1.5625 4.31641 0.78125 6.11816Q0 7.91992 0 9.96094Q0 12.002 0.78125 13.8037Q1.5625 15.6055 2.93945 16.9824Q4.31641 18.3594 6.11816 19.1406Q7.91992 19.9219 9.96094 19.9219ZM9.96094 18.2617Q8.23242 18.2617 6.72852 17.6172Q5.22461 16.9727 4.08691 15.835Q2.94922 14.6973 2.30957 13.1934Q1.66992 11.6895 1.66992 9.96094Q1.66992 8.23242 2.30957 6.72852Q2.94922 5.22461 4.08203 4.08203Q5.21484 2.93945 6.71875 2.2998Q8.22266 1.66016 9.95117 1.66016Q11.6797 1.66016 13.1885 2.2998Q14.6973 2.93945 15.835 4.08203Q16.9727 5.22461 17.6172 6.72852Q18.2617 8.23242 18.2617 9.96094Q18.2617 11.6895 17.6221 13.1934Q16.9824 14.6973 15.8398 15.835Q14.6973 16.9727 13.1934 17.6172Q11.6895 18.2617 9.96094 18.2617Z" fill="rgba(255,255,255,0.5)"/>
  <path d="M4.36523 11.5332Q4.36523 12.3242 4.6582 12.9785Q4.95117 13.6328 5.46387 14.0283Q5.97656 14.4238 6.63086 14.4238L7.58789 14.4238Q6.86523 13.8965 6.54297 13.1396Q6.2207 12.3828 6.23047 11.4844Q6.24023 10.4883 6.55762 9.78516Q6.875 9.08203 7.2168 8.64258L6.44531 8.64258Q5.85938 8.64258 5.38574 9.02832Q4.91211 9.41406 4.63867 10.0684Q4.36523 10.7227 4.36523 11.5332ZM6.93359 11.4941Q6.91406 12.4609 7.40234 13.2275Q7.89062 13.9941 8.78906 14.4434Q9.6875 14.8926 10.918 14.9023L11.6406 14.9121Q12.1484 14.9121 12.5195 14.8779Q12.8906 14.8438 13.1055 14.7949Q13.418 14.7168 13.6768 14.5166Q13.9355 14.3164 13.9355 13.9453Q13.9355 13.7988 13.8965 13.6768Q13.8574 13.5547 13.8184 13.4766Q13.7598 13.3691 13.8477 13.3301Q14.082 13.2324 14.2676 13.0078Q14.4531 12.7832 14.4531 12.4805Q14.4531 12.2949 14.3994 12.1387Q14.3457 11.9824 14.248 11.875Q14.1504 11.748 14.2969 11.6699Q14.707 11.4258 14.707 10.8887Q14.707 10.7031 14.6484 10.5225Q14.5898 10.3418 14.4922 10.2441Q14.3848 10.1562 14.5117 10.0586Q14.7656 9.80469 14.7656 9.375Q14.7656 8.98438 14.5068 8.71094Q14.248 8.4375 13.8574 8.4375L12.002 8.4375Q11.6309 8.4375 11.4209 8.2666Q11.2109 8.0957 11.2109 7.79297Q11.2109 7.44141 11.4307 6.93359Q11.6504 6.42578 11.8701 5.87891Q12.0898 5.33203 12.0898 4.87305Q12.0898 4.50195 11.875 4.29688Q11.6602 4.0918 11.3574 4.0918Q11.0742 4.0918 10.9082 4.26758Q10.7422 4.44336 10.6055 4.74609Q10 5.88867 9.27734 6.83594Q8.55469 7.7832 7.95898 8.59375Q7.46094 9.25781 7.20215 9.90723Q6.94336 10.5566 6.93359 11.4941Z" fill="#ffffff"/>
 </g>
</svg>
