<?xml version="1.0" encoding="UTF-8"?>
<!--Generator: Apple Native CoreSVG 175.5-->
<!DOCTYPE svg
PUBLIC "-//W3C//DTD SVG 1.1//EN"
       "http://www.w3.org/Graphics/SVG/1.1/DTD/svg11.dtd">
<svg version="1.1" xmlns="http://www.w3.org/2000/svg" xmlns:xlink="http://www.w3.org/1999/xlink" width="15.3906" height="19.9512">
 <g>
  <rect height="19.9512" opacity="0" width="15.3906" x="0" y="0"/>
  <path d="M8.76953 19.9512Q10.8887 19.9512 12.3682 19.1016Q13.8477 18.252 14.6191 16.6406Q15.3906 15.0293 15.3906 12.7637L15.3906 10.8887Q15.3906 10.0293 15.1465 9.40918Q14.9023 8.78906 14.502 8.45703Q14.1016 8.125 13.6328 8.125Q13.3105 8.125 13.3105 8.4375L13.3105 9.26758Q13.3105 9.56055 13.1787 9.70703Q13.0469 9.85352 12.8711 9.85352Q12.6855 9.85352 12.5537 9.70703Q12.4219 9.56055 12.4219 9.26758L12.4219 8.7207Q12.4219 7.96875 11.9873 7.50977Q11.5527 7.05078 10.8984 7.05078Q10.3223 7.05078 10.3223 7.54883L10.3223 8.68164Q10.3223 8.97461 10.1953 9.12109Q10.0684 9.26758 9.89258 9.26758Q9.69727 9.26758 9.56543 9.12109Q9.43359 8.97461 9.43359 8.68164L9.43359 7.63672Q9.43359 6.78711 8.99902 6.37695Q8.56445 5.9668 7.92969 5.9668Q7.35352 5.9668 7.35352 6.46484L7.35352 8.68164Q7.35352 8.97461 7.22168 9.12109Q7.08984 9.26758 6.91406 9.26758Q6.72852 9.26758 6.59668 9.12109Q6.46484 8.97461 6.46484 8.68164L6.46484 1.26953Q6.46484 0.732422 6.15234 0.405273Q5.83984 0.078125 5.38086 0.078125Q4.88281 0.078125 4.5752 0.405273Q4.26758 0.732422 4.26758 1.26953L4.26758 12.1191Q4.26758 12.3242 4.16504 12.4268Q4.0625 12.5293 3.93555 12.5293Q3.68164 12.5293 3.51562 12.1582L2.08008 8.76953Q1.91406 8.39844 1.66992 8.22754Q1.42578 8.05664 1.09375 8.05664Q0.595703 8.05664 0.297852 8.35449Q0 8.65234 0 9.0625Q0 9.23828 0.0292969 9.375Q0.0585938 9.51172 0.0976562 9.62891L1.67969 14.3457Q2.68555 17.334 4.55566 18.6426Q6.42578 19.9512 8.76953 19.9512Z" fill="#ffffff"/>
 </g>
</svg>
