<?xml version="1.0" encoding="UTF-8"?>
<!--Generator: Apple Native CoreSVG 175-->
<!DOCTYPE svg
PUBLIC "-//W3C//DTD SVG 1.1//EN"
       "http://www.w3.org/Graphics/SVG/1.1/DTD/svg11.dtd">
<svg version="1.1" xmlns="http://www.w3.org/2000/svg" xmlns:xlink="http://www.w3.org/1999/xlink" width="16.7773" height="25.3418">
 <g>
  <rect height="25.3418" opacity="0" width="16.7773" x="0" y="0"/>
  <path d="M9.0625 24.043Q11.084 24.043 12.4561 23.2959Q13.8281 22.5488 14.5312 21.0254Q15.2344 19.502 15.2344 17.207L15.2344 15.6348Q15.2344 14.8047 14.9902 14.1992Q14.7461 13.5938 14.3457 13.2715Q13.9453 12.9492 13.4766 12.9492Q13.1445 12.9492 13.1445 13.2617L13.1445 14.2188Q13.1445 14.4043 13.0615 14.502Q12.9785 14.5996 12.8613 14.5996Q12.7344 14.5996 12.6514 14.502Q12.5684 14.4043 12.5684 14.2188L12.5684 13.5449Q12.5684 12.793 12.1338 12.334Q11.6992 11.875 11.0449 11.875Q10.4688 11.875 10.4688 12.373L10.4688 13.6328Q10.4688 13.8184 10.3857 13.916Q10.3027 14.0137 10.1855 14.0137Q10.0586 14.0137 9.97559 13.916Q9.89258 13.8184 9.89258 13.6328L9.89258 12.4609Q9.89258 11.6113 9.45312 11.2012Q9.01367 10.791 8.37891 10.791Q7.80273 10.791 7.80273 11.2891L7.80273 13.6328Q7.80273 13.8184 7.71973 13.916Q7.63672 14.0137 7.51953 14.0137Q7.40234 14.0137 7.31445 13.916Q7.22656 13.8184 7.22656 13.6328L7.22656 6.63086Q7.22656 6.09375 6.93359 5.78613Q6.64062 5.47852 6.18164 5.47852Q5.72266 5.47852 5.41992 5.78613Q5.11719 6.09375 5.11719 6.63086L5.11719 16.2988Q5.11719 16.4648 5.01465 16.5479Q4.91211 16.6309 4.79492 16.6309Q4.57031 16.6309 4.44336 16.3477L3.02734 13.1348Q2.86133 12.7539 2.61719 12.5928Q2.37305 12.4316 2.09961 12.4316Q1.58203 12.4316 1.32324 12.7295Q1.06445 13.0273 1.06445 13.457Q1.06445 13.5938 1.08887 13.7256Q1.11328 13.8574 1.16211 13.9941L2.7832 18.9355Q3.58398 21.416 5.24414 22.7295Q6.9043 24.043 9.0625 24.043Z" fill="#ffffff"/>
  <path d="M1.50391 7.1875Q2.14844 7.1875 2.59277 6.73828Q3.03711 6.28906 3.03711 5.6543Q3.03711 5.0293 2.59277 4.58008Q2.14844 4.13086 1.50391 4.13086Q0.878906 4.13086 0.439453 4.58008Q0 5.0293 0 5.6543Q0 6.28906 0.439453 6.73828Q0.878906 7.1875 1.50391 7.1875ZM6.17188 3.05664Q6.80664 3.05664 7.25586 2.60742Q7.70508 2.1582 7.70508 1.52344Q7.70508 0.898438 7.25586 0.449219Q6.80664 0 6.17188 0Q5.54688 0 5.10254 0.449219Q4.6582 0.898438 4.6582 1.52344Q4.6582 2.1582 5.10254 2.60742Q5.54688 3.05664 6.17188 3.05664ZM10.8984 7.1875Q11.5332 7.1875 11.9824 6.73828Q12.4316 6.28906 12.4316 5.6543Q12.4316 5.0293 11.9824 4.58008Q11.5332 4.13086 10.8984 4.13086Q10.2734 4.13086 9.82422 4.58008Q9.375 5.0293 9.375 5.6543Q9.375 6.28906 9.82422 6.73828Q10.2734 7.1875 10.8984 7.1875ZM15.2441 7.1875Q15.8789 7.1875 16.3281 6.73828Q16.7773 6.28906 16.7773 5.6543Q16.7773 5.0293 16.3281 4.58008Q15.8789 4.13086 15.2441 4.13086Q14.6191 4.13086 14.1699 4.58008Q13.7207 5.0293 13.7207 5.6543Q13.7207 6.28906 14.1699 6.73828Q14.6191 7.1875 15.2441 7.1875ZM15.2441 3.05664Q15.8789 3.05664 16.3281 2.60742Q16.7773 2.1582 16.7773 1.52344Q16.7773 0.898438 16.3281 0.449219Q15.8789 0 15.2441 0Q14.6191 0 14.1699 0.449219Q13.7207 0.898438 13.7207 1.52344Q13.7207 2.1582 14.1699 2.60742Q14.6191 3.05664 15.2441 3.05664Z" fill="rgba(255,255,255,0.5)"/>
 </g>
</svg>
