<?xml version="1.0" encoding="UTF-8"?>
<!--Generator: Apple Native CoreSVG 175-->
<!DOCTYPE svg
PUBLIC "-//W3C//DTD SVG 1.1//EN"
       "http://www.w3.org/Graphics/SVG/1.1/DTD/svg11.dtd">
<svg version="1.1" xmlns="http://www.w3.org/2000/svg" xmlns:xlink="http://www.w3.org/1999/xlink" width="19.0282" height="14.7357">
 <g>
  <rect height="14.7357" opacity="0" width="19.0282" x="0" y="0"/>
  <path d="M0 8.45718Q0 10.2461 0.743179 11.6653Q1.48636 13.0844 2.97012 13.9101Q4.45389 14.7357 6.68289 14.7357L8.48831 14.7357Q10.1637 14.7357 11.0464 14.0808Q11.929 13.4259 11.9415 12.1782Q12.4364 12.0403 12.737 11.6471Q13.0376 11.254 13.0376 10.667Q13.0376 10.2328 12.87 9.74701Q13.3786 9.60785 13.6852 9.20517Q13.9919 8.80249 13.9919 8.20984Q13.9919 7.81616 13.8423 7.36176L17.3755 7.36176Q18.1415 7.36176 18.5848 6.90491Q19.0282 6.44806 19.0282 5.80399Q19.0282 5.1387 18.5848 4.68269Q18.1415 4.22668 17.3755 4.22668L8.35907 4.22668Q8.27118 4.22668 8.27118 4.15115Q8.27118 4.08554 8.35358 4.05899L11.0902 2.96173Q11.6356 2.74582 11.9053 2.36946Q12.175 1.9931 12.1848 1.55991Q12.1848 0.952454 11.798 0.503235Q11.4113 0.0540161 10.7372 0.0610352Q10.5759 0.0680542 10.3727 0.0978851Q10.1695 0.127716 9.99298 0.19455L4.80743 2.01874Q2.47116 2.84775 1.23558 4.4899Q0 6.13205 0 8.45718ZM0.637512 8.47076Q0.637512 6.40167 1.77032 4.89304Q2.90314 3.3844 5.03754 2.63367L10.2133 0.813751Q10.48 0.721588 10.7372 0.721588Q11.0754 0.721588 11.3137 0.964127Q11.552 1.20667 11.552 1.577Q11.552 2.14584 10.8278 2.43088L7.78168 3.67737Q7.53708 3.77747 7.43202 3.94089Q7.32697 4.10431 7.32697 4.31183Q7.32697 4.55124 7.47993 4.72198Q7.6329 4.89273 7.90863 4.89273L17.393 4.89273Q17.8461 4.89273 18.1271 5.14076Q18.4082 5.38879 18.4082 5.80399Q18.4082 6.2262 18.1271 6.46095Q17.8461 6.69571 17.393 6.69571L10.743 6.69571Q10.5875 6.69571 10.4694 6.78284Q10.3513 6.86996 10.3513 7.0282Q10.3513 7.18796 10.4694 7.2702Q10.5875 7.35245 10.743 7.35245L13.2141 7.35245Q13.3719 7.7594 13.3719 8.13522Q13.3719 8.61603 13.077 8.8858Q12.7821 9.15558 12.2325 9.15558L10.3789 9.15558Q10.1715 9.15558 10.0758 9.25461Q9.98016 9.35364 9.98016 9.48517Q9.98016 9.60983 10.0758 9.711Q10.1715 9.81216 10.3789 9.81216L12.2598 9.81216Q12.4176 10.2193 12.4176 10.5923Q12.4176 11.0759 12.1227 11.3442Q11.8277 11.6125 11.2782 11.6125L10.0078 11.6125Q9.79065 11.6125 9.69498 11.7081Q9.5993 11.8036 9.5993 11.938Q9.5993 12.067 9.69498 12.1646Q9.79065 12.2623 10.0078 12.2623L11.2926 12.2623Q11.2926 13.1485 10.5672 13.6069Q9.84177 14.0652 8.44772 14.0652L6.71249 14.0652Q4.69345 14.0652 3.34106 13.3436Q1.98868 12.6219 1.3131 11.3579Q0.637512 10.0938 0.637512 8.47076Z" fill="#ffffff"/>
 </g>
</svg>
