<?xml version="1.0" encoding="UTF-8"?>
<!--Generator: Apple Native CoreSVG 175.5-->
<!DOCTYPE svg
PUBLIC "-//W3C//DTD SVG 1.1//EN"
       "http://www.w3.org/Graphics/SVG/1.1/DTD/svg11.dtd">
<svg version="1.1" xmlns="http://www.w3.org/2000/svg" xmlns:xlink="http://www.w3.org/1999/xlink" width="19.8926" height="21.8066">
 <g>
  <rect height="21.8066" opacity="0" width="19.8926" x="0" y="0"/>
  <path d="M0 14.3848Q0 15.5664 0.356445 16.6162Q0.712891 17.666 1.34277 18.4717Q1.97266 19.2773 2.79297 19.7363Q3.61328 20.1953 4.55078 20.1953L7.66602 20.1953Q8.59375 20.6836 9.71191 20.957Q10.8301 21.2305 12.0898 21.2305L13.3984 21.2305Q14.2773 21.2305 15.0146 21.1768Q15.752 21.123 16.2598 20.9961Q17.2461 20.7617 17.8174 20.1172Q18.3887 19.4727 18.3887 18.6133Q18.3887 18.4375 18.3643 18.2715Q18.3398 18.1055 18.291 17.9395Q19.2969 17.1777 19.2969 15.957Q19.2969 15.3613 19.082 14.8926Q19.4141 14.5508 19.5898 14.0869Q19.7656 13.623 19.7656 13.1055Q19.7656 12.7734 19.6875 12.4414Q19.6094 12.1094 19.4727 11.8555Q19.8926 11.2402 19.8926 10.3711Q19.8926 9.66797 19.5557 9.09668Q19.2188 8.52539 18.6523 8.18848Q18.0859 7.85156 17.3828 7.85156L13.8184 7.85156Q13.6621 7.85156 13.5645 7.77832Q13.4668 7.70508 13.4668 7.56836Q13.4668 7.1875 13.7061 6.58203Q13.9453 5.97656 14.2627 5.24414Q14.5801 4.51172 14.8242 3.74023Q15.0684 2.96875 15.0684 2.25586Q15.0684 1.5918 14.7852 1.08398Q14.502 0.576172 14.0137 0.288086Q13.5254 0 12.8906 0Q12.1973 0 11.6895 0.385742Q11.1816 0.771484 10.7227 1.65039Q10.293 2.4707 9.81445 3.27148Q9.33594 4.07227 8.76465 4.89746Q8.19336 5.72266 7.50977 6.61621Q6.82617 7.50977 5.98633 8.53516L4.19922 8.53516Q3.03711 8.53516 2.08496 9.32617Q1.13281 10.1172 0.566406 11.4453Q0 12.7734 0 14.3848ZM5.49805 14.3359Q5.49805 13.3105 5.66406 12.4902Q5.83008 11.6699 6.21094 10.9082Q6.5918 10.1465 7.22656 9.28711Q7.93945 8.33984 8.78418 7.26074Q9.62891 6.18164 10.4736 4.95117Q11.3184 3.7207 12.0215 2.31445Q12.2852 1.77734 12.4854 1.61133Q12.6855 1.44531 12.9492 1.44531Q13.2422 1.44531 13.4326 1.65527Q13.623 1.86523 13.623 2.25586Q13.623 2.82227 13.3789 3.51562Q13.1348 4.20898 12.8174 4.93164Q12.5 5.6543 12.2607 6.33301Q12.0215 7.01172 12.0215 7.56836Q12.0215 8.36914 12.6025 8.83301Q13.1836 9.29688 14.0234 9.29688L17.3828 9.29688Q17.832 9.29688 18.1396 9.60449Q18.4473 9.91211 18.4473 10.3711Q18.4473 10.7129 18.3301 10.957Q18.2129 11.2012 17.9395 11.4746Q17.8027 11.5918 17.793 11.7334Q17.7832 11.875 17.8906 12.0117Q18.1152 12.3438 18.2178 12.583Q18.3203 12.8223 18.3203 13.1055Q18.3203 13.4375 18.1641 13.7207Q18.0078 14.0039 17.6855 14.248Q17.5098 14.3848 17.4512 14.5654Q17.3926 14.7461 17.4902 14.9707Q17.6758 15.3027 17.7637 15.5029Q17.8516 15.7031 17.8516 15.957Q17.8516 16.6699 16.8457 17.1875Q16.6895 17.2852 16.6455 17.4121Q16.6016 17.5391 16.6699 17.6953Q16.8457 18.1348 16.8896 18.2812Q16.9336 18.4277 16.9336 18.6133Q16.9336 18.9551 16.6846 19.209Q16.4355 19.4629 15.918 19.5996Q15.5078 19.707 14.8584 19.751Q14.209 19.7949 13.4082 19.7949L12.1973 19.7949Q10.1855 19.7949 8.67676 19.0918Q7.16797 18.3887 6.33301 17.1533Q5.49805 15.918 5.49805 14.3359ZM1.44531 14.3848Q1.44531 13.1641 1.83105 12.168Q2.2168 11.1719 2.84668 10.5762Q3.47656 9.98047 4.19922 9.98047Q4.4043 9.98047 4.61914 9.98047Q4.83398 9.98047 5.04883 9.98047Q4.53125 10.9668 4.29199 12.0166Q4.05273 13.0664 4.05273 14.3066Q4.05273 15.6152 4.50684 16.7383Q4.96094 17.8613 5.80078 18.7402Q5.48828 18.7402 5.17578 18.7402Q4.86328 18.7402 4.55078 18.7402Q3.7207 18.7402 3.01758 18.1445Q2.31445 17.5488 1.87988 16.5576Q1.44531 15.5664 1.44531 14.3848Z" fill="#ffffff"/>
 </g>
</svg>
