<?xml version="1.0" encoding="UTF-8"?>
<!--Generator: Apple Native CoreSVG 175.5-->
<!DOCTYPE svg
PUBLIC "-//W3C//DTD SVG 1.1//EN"
       "http://www.w3.org/Graphics/SVG/1.1/DTD/svg11.dtd">
<svg version="1.1" xmlns="http://www.w3.org/2000/svg" xmlns:xlink="http://www.w3.org/1999/xlink" width="19.2383" height="20.0124">
 <g>
  <rect height="20.0124" opacity="0" width="19.2383" x="0" y="0"/>
  <path d="M19.2383 6.24154Q19.2383 4.79622 18.6816 3.59017Q18.125 2.38411 17.1729 1.65658Q16.2207 0.929036 15.0098 0.929036L13.291 0.929036Q14.6094 1.88607 15.2148 3.28743Q15.8203 4.6888 15.791 6.33919Q15.7812 7.5599 15.498 8.55111Q15.2148 9.54232 14.8047 10.2992Q14.3945 11.056 13.9648 11.5833L15.3711 11.5833Q16.4551 11.5833 17.334 10.8704Q18.2129 10.1576 18.7256 8.94661Q19.2383 7.73568 19.2383 6.24154ZM14.4824 6.3099Q14.502 4.97201 13.9941 3.83431Q13.4863 2.69661 12.5195 1.84212Q11.5527 0.98763 10.1855 0.509115Q8.81836 0.030599 7.10938 0.0110677L5.79102 0.00130208Q4.83398-0.00846354 4.14551 0.055013Q3.45703 0.11849 3.05664 0.235677Q2.49023 0.372396 2.02637 0.74349Q1.5625 1.11458 1.5625 1.80794Q1.5625 2.09115 1.62598 2.30111Q1.68945 2.51107 1.77734 2.66732Q1.9043 2.86263 1.71875 2.94076Q1.26953 3.1263 0.942383 3.53646Q0.615234 3.94661 0.615234 4.52279Q0.615234 5.19661 0.966797 5.6263Q1.13281 5.86068 0.878906 6.00716Q0.546875 6.19271 0.336914 6.57845Q0.126953 6.96419 0.126953 7.44271Q0.126953 7.78451 0.234375 8.11165Q0.341797 8.4388 0.527344 8.61458Q0.732422 8.79036 0.498047 8.99544Q0.273438 9.18099 0.136719 9.50326Q0 9.82552 0 10.2454Q0 10.7142 0.224609 11.1048Q0.449219 11.4954 0.830078 11.7249Q1.21094 11.9544 1.69922 11.9544L5.13672 11.9544Q5.79102 11.9544 6.18652 12.2669Q6.58203 12.5794 6.58203 13.1263Q6.58203 13.6146 6.33789 14.2738Q6.09375 14.9329 5.77148 15.6751Q5.44922 16.4173 5.20508 17.1546Q4.96094 17.8919 4.96094 18.5365Q4.96094 19.2298 5.34668 19.6058Q5.73242 19.9818 6.30859 19.9818Q6.82617 19.9818 7.12891 19.6497Q7.43164 19.3177 7.71484 18.7708Q8.80859 16.6517 10.1416 14.9134Q11.4746 13.1751 12.5781 11.7005Q13.2031 10.8704 13.6182 10.0745Q14.0332 9.27865 14.248 8.37044Q14.4629 7.46224 14.4824 6.3099Z" fill="#ffffff"/>
 </g>
</svg>
