<?xml version="1.0" encoding="UTF-8"?>
<!--Generator: Apple Native CoreSVG 175-->
<!DOCTYPE svg
PUBLIC "-//W3C//DTD SVG 1.1//EN"
       "http://www.w3.org/Graphics/SVG/1.1/DTD/svg11.dtd">
<svg version="1.1" xmlns="http://www.w3.org/2000/svg" xmlns:xlink="http://www.w3.org/1999/xlink" width="19.1602" height="19.1504">
 <g>
  <rect height="19.1504" opacity="0" width="19.1602" x="0" y="0"/>
  <path d="M9.57031 19.1504Q11.5527 19.1504 13.2861 18.4082Q15.0195 17.666 16.3379 16.3428Q17.6562 15.0195 18.4082 13.2861Q19.1602 11.5527 19.1602 9.58008Q19.1602 7.60742 18.4082 5.87402Q17.6562 4.14062 16.3379 2.81738Q15.0195 1.49414 13.2861 0.751953Q11.5527 0.00976562 9.57031 0.00976562Q7.59766 0.00976562 5.86426 0.751953Q4.13086 1.49414 2.81738 2.81738Q1.50391 4.14062 0.751953 5.87402Q0 7.60742 0 9.58008Q0 11.5527 0.74707 13.2861Q1.49414 15.0195 2.8125 16.3428Q4.13086 17.666 5.86914 18.4082Q7.60742 19.1504 9.57031 19.1504Z" fill="rgba(255,255,255,0.25)"/>
  <path d="M4.39453 9.55078Q4.39453 7.86133 5.03906 6.60645Q5.68359 5.35156 6.85059 4.6582Q8.01758 3.96484 9.58008 3.96484Q11.1426 3.96484 12.3047 4.6582Q13.4668 5.35156 14.1162 6.60645Q14.7656 7.86133 14.7656 9.55078Q14.7656 10.7324 14.458 11.8994Q14.1504 13.0664 13.5938 14.0625Q13.5156 14.1992 13.4033 14.2871Q13.291 14.375 13.1738 14.4043Q12.8516 14.6875 12.3633 14.5312Q11.9629 14.4141 11.8018 14.1016Q11.6406 13.7891 11.7578 13.3984L12.5781 10.8789Q12.6953 10.4785 13.0029 10.3223Q13.3105 10.166 13.7207 10.293Q13.8867 10.332 14.0332 10.4395Q14.0625 10.2148 14.0723 9.99023Q14.082 9.76562 14.082 9.55078Q14.082 8.08594 13.5156 6.98242Q12.9492 5.87891 11.9336 5.26367Q10.918 4.64844 9.58008 4.64844Q8.23242 4.64844 7.22168 5.26367Q6.21094 5.87891 5.64453 6.98242Q5.07812 8.08594 5.07812 9.55078Q5.07812 9.76562 5.08789 9.99023Q5.09766 10.2148 5.12695 10.4395Q5.26367 10.332 5.42969 10.293Q5.83984 10.166 6.14746 10.3223Q6.45508 10.4785 6.58203 10.8789L7.38281 13.3887Q7.51953 13.7891 7.3584 14.1016Q7.19727 14.4141 6.78711 14.5312Q6.30859 14.6973 5.97656 14.4043Q5.85938 14.375 5.75195 14.2871Q5.64453 14.1992 5.55664 14.0625Q5 13.0762 4.69727 11.9092Q4.39453 10.7422 4.39453 9.55078Z" fill="#ffffff"/>
 </g>
</svg>
