<?xml version="1.0" encoding="UTF-8"?>
<!--Generator: Apple Native CoreSVG 175-->
<!DOCTYPE svg
PUBLIC "-//W3C//DTD SVG 1.1//EN"
       "http://www.w3.org/Graphics/SVG/1.1/DTD/svg11.dtd">
<svg version="1.1" xmlns="http://www.w3.org/2000/svg" xmlns:xlink="http://www.w3.org/1999/xlink" width="19.1602" height="19.1504">
 <g>
  <rect height="19.1504" opacity="0" width="19.1602" x="0" y="0"/>
  <path d="M9.57031 19.1406Q11.5527 19.1406 13.2861 18.3984Q15.0195 17.6562 16.3379 16.333Q17.6562 15.0098 18.4082 13.2764Q19.1602 11.543 19.1602 9.57031Q19.1602 7.59766 18.4082 5.86426Q17.6562 4.13086 16.3379 2.80762Q15.0195 1.48438 13.2861 0.742188Q11.5527 0 9.57031 0Q7.59766 0 5.86426 0.742188Q4.13086 1.48438 2.81738 2.80762Q1.50391 4.13086 0.751953 5.86426Q0 7.59766 0 9.57031Q0 11.543 0.74707 13.2764Q1.49414 15.0098 2.8125 16.333Q4.13086 17.6562 5.86914 18.3984Q7.60742 19.1406 9.57031 19.1406ZM9.57031 18.3984Q7.74414 18.3984 6.14746 17.71Q4.55078 17.0215 3.33496 15.8105Q2.11914 14.5996 1.43555 12.998Q0.751953 11.3965 0.751953 9.57031Q0.751953 7.74414 1.43555 6.14258Q2.11914 4.54102 3.33496 3.3252Q4.55078 2.10938 6.14746 1.4209Q7.74414 0.732422 9.57031 0.732422Q11.4062 0.732422 13.0029 1.4209Q14.5996 2.10938 15.8154 3.3252Q17.0312 4.54102 17.7197 6.14258Q18.4082 7.74414 18.4082 9.57031Q18.4082 11.3965 17.7246 12.998Q17.041 14.5996 15.8252 15.8105Q14.6094 17.0215 13.0078 17.71Q11.4062 18.3984 9.57031 18.3984Z" fill="rgba(255,255,255,0.5)"/>
  <path d="M7.22656 5.19531Q6.41602 5.19531 5.78125 5.56641Q5.14648 5.9375 4.78516 6.58691Q4.42383 7.23633 4.42383 8.06641Q4.42383 8.90625 4.75098 9.69238Q5.07812 10.4785 5.62012 11.1865Q6.16211 11.8945 6.80176 12.5Q7.44141 13.1055 8.08105 13.5791Q8.7207 14.0527 9.22852 14.375Q9.31641 14.4238 9.41406 14.4727Q9.51172 14.5215 9.58008 14.5215Q9.63867 14.5215 9.73145 14.4775Q9.82422 14.4336 9.91211 14.375Q10.4004 14.0234 11.0303 13.5352Q11.6602 13.0469 12.3047 12.4463Q12.9492 11.8457 13.4961 11.1523Q14.043 10.459 14.3848 9.68262Q14.7266 8.90625 14.7266 8.06641Q14.7266 7.23633 14.3555 6.58691Q13.9844 5.9375 13.3545 5.56641Q12.7246 5.19531 11.9141 5.19531Q11.1523 5.19531 10.5273 5.62012Q9.90234 6.04492 9.57031 6.65039Q9.23828 6.04492 8.62305 5.62012Q8.00781 5.19531 7.22656 5.19531Z" fill="#ffffff"/>
 </g>
</svg>
