<?xml version="1.0" encoding="UTF-8"?>
<!--Generator: Apple Native CoreSVG 175-->
<!DOCTYPE svg
PUBLIC "-//W3C//DTD SVG 1.1//EN"
       "http://www.w3.org/Graphics/SVG/1.1/DTD/svg11.dtd">
<svg version="1.1" xmlns="http://www.w3.org/2000/svg" xmlns:xlink="http://www.w3.org/1999/xlink" width="17.2852" height="17.3145">
 <g>
  <rect height="17.3145" opacity="0" width="17.2852" x="0" y="0"/>
  <path d="M2.62695 17.3145L14.6484 17.3145Q15.957 17.3145 16.6211 16.6455Q17.2852 15.9766 17.2852 14.6875L17.2852 2.65625Q17.2852 1.37695 16.6211 0.703125Q15.957 0.0292969 14.6484 0.0292969L2.62695 0.0292969Q1.33789 0.0292969 0.668945 0.693359Q0 1.35742 0 2.65625L0 14.6875Q0 15.9863 0.668945 16.6504Q1.33789 17.3145 2.62695 17.3145Z" fill="rgba(255,255,255,0.25)"/>
  <path d="M6.28906 4.24805Q7.08008 4.24805 7.69531 4.67285Q8.31055 5.09766 8.65234 5.71289Q8.98438 5.09766 9.60938 4.67285Q10.2344 4.24805 11.0059 4.24805Q11.8262 4.24805 12.4609 4.61914Q13.0957 4.99023 13.4619 5.64941Q13.8281 6.30859 13.8281 7.12891Q13.8281 7.97852 13.4912 8.75977Q13.1543 9.54102 12.6074 10.2441Q12.0605 10.9473 11.4062 11.5479Q10.752 12.1484 10.1172 12.6367Q9.48242 13.125 8.98438 13.4863Q8.90625 13.5449 8.81348 13.5889Q8.7207 13.6328 8.65234 13.6328Q8.58398 13.6328 8.49121 13.5889Q8.39844 13.5449 8.31055 13.4863Q7.79297 13.1641 7.14844 12.6855Q6.50391 12.207 5.85938 11.5967Q5.21484 10.9863 4.66797 10.2734Q4.12109 9.56055 3.79395 8.76953Q3.4668 7.97852 3.4668 7.12891Q3.4668 6.30859 3.83301 5.64941Q4.19922 4.99023 4.83887 4.61914Q5.47852 4.24805 6.28906 4.24805Z" fill="#ffffff"/>
 </g>
</svg>
