<?xml version="1.0" encoding="UTF-8"?>
<!--Generator: Apple Native CoreSVG 175.5-->
<!DOCTYPE svg
PUBLIC "-//W3C//DTD SVG 1.1//EN"
       "http://www.w3.org/Graphics/SVG/1.1/DTD/svg11.dtd">
<svg version="1.1" xmlns="http://www.w3.org/2000/svg" xmlns:xlink="http://www.w3.org/1999/xlink" width="17.9785" height="17.998">
 <g>
  <rect height="17.998" opacity="0" width="17.9785" x="0" y="0"/>
  <path d="M3.06641 17.998L14.9121 17.998Q16.4453 17.998 17.2119 17.2412Q17.9785 16.4844 17.9785 14.9707L17.9785 3.04688Q17.9785 1.5332 17.2119 0.776367Q16.4453 0.0195312 14.9121 0.0195312L3.06641 0.0195312Q1.5332 0.0195312 0.766602 0.776367Q0 1.5332 0 3.04688L0 14.9707Q0 16.4844 0.766602 17.2412Q1.5332 17.998 3.06641 17.998ZM3.08594 16.4258Q2.35352 16.4258 1.96289 16.04Q1.57227 15.6543 1.57227 14.8926L1.57227 3.125Q1.57227 2.36328 1.96289 1.97754Q2.35352 1.5918 3.08594 1.5918L14.8926 1.5918Q15.6152 1.5918 16.0107 1.97754Q16.4062 2.36328 16.4062 3.125L16.4062 14.8926Q16.4062 15.6543 16.0107 16.04Q15.6152 16.4258 14.8926 16.4258Z" fill="rgba(255,255,255,0.5)"/>
  <path d="M4.91211 3.23242Q4.30664 3.23242 3.91113 3.65234Q3.51562 4.07227 3.51562 4.7168Q3.51562 5.19531 3.74023 5.63477Q3.96484 6.07422 4.32129 6.46973Q4.67773 6.86523 5.08301 7.19727Q5.48828 7.5293 5.84961 7.77344Q5.91797 7.82227 5.98633 7.85645Q6.05469 7.89062 6.10352 7.89062Q6.15234 7.89062 6.21094 7.85645Q6.26953 7.82227 6.33789 7.77344Q6.70898 7.54883 7.11426 7.22168Q7.51953 6.89453 7.87109 6.49414Q8.22266 6.09375 8.44238 5.64453Q8.66211 5.19531 8.66211 4.7168Q8.66211 4.07227 8.26172 3.65234Q7.86133 3.23242 7.24609 3.23242Q6.875 3.23242 6.57227 3.44238Q6.26953 3.65234 6.09375 3.98438Q5.9082 3.65234 5.61035 3.44238Q5.3125 3.23242 4.91211 3.23242ZM4.13086 10.9473L13.75 10.9473Q14.0039 10.9473 14.1797 10.7715Q14.3555 10.5957 14.3555 10.3418Q14.3555 10.0879 14.1797 9.91699Q14.0039 9.74609 13.75 9.74609L4.13086 9.74609Q3.86719 9.74609 3.69141 9.91699Q3.51562 10.0879 3.51562 10.3418Q3.51562 10.5957 3.69141 10.7715Q3.86719 10.9473 4.13086 10.9473ZM4.13086 14.2871L11.1816 14.2871Q11.4355 14.2871 11.6113 14.1162Q11.7871 13.9453 11.7871 13.6914Q11.7871 13.4375 11.6113 13.2617Q11.4355 13.0859 11.1816 13.0859L4.13086 13.0859Q3.86719 13.0859 3.69141 13.2617Q3.51562 13.4375 3.51562 13.6914Q3.51562 13.9453 3.69141 14.1162Q3.86719 14.2871 4.13086 14.2871Z" fill="#ffffff"/>
 </g>
</svg>
