<?xml version="1.0" encoding="UTF-8"?>
<!--Generator: Apple Native CoreSVG 175.5-->
<!DOCTYPE svg
PUBLIC "-//W3C//DTD SVG 1.1//EN"
       "http://www.w3.org/Graphics/SVG/1.1/DTD/svg11.dtd">
<svg version="1.1" xmlns="http://www.w3.org/2000/svg" xmlns:xlink="http://www.w3.org/1999/xlink" width="23.0273" height="17.9785">
 <g>
  <rect height="17.9785" opacity="0" width="23.0273" x="0" y="0"/>
  <path d="M3.06641 17.9785L19.9609 17.9785Q21.5039 17.9785 22.2656 17.2217Q23.0273 16.4648 23.0273 14.9609L23.0273 3.02734Q23.0273 1.52344 22.2656 0.761719Q21.5039 0 19.9609 0L3.06641 0Q1.5332 0 0.766602 0.756836Q0 1.51367 0 3.02734L0 14.9609Q0 16.4648 0.766602 17.2217Q1.5332 17.9785 3.06641 17.9785ZM3.08594 16.4062Q2.35352 16.4062 1.96289 16.0205Q1.57227 15.6348 1.57227 14.873L1.57227 3.11523Q1.57227 2.35352 1.96289 1.96289Q2.35352 1.57227 3.08594 1.57227L19.9414 1.57227Q20.6641 1.57227 21.0596 1.96289Q21.4551 2.35352 21.4551 3.11523L21.4551 14.873Q21.4551 15.6348 21.0596 16.0205Q20.6641 16.4062 19.9414 16.4062Z" fill="rgba(255,255,255,0.5)"/>
  <path d="M9.18945 4.67773Q8.35938 4.67773 7.71484 5.06348Q7.07031 5.44922 6.7041 6.11816Q6.33789 6.78711 6.33789 7.65625Q6.33789 8.42773 6.63086 9.16504Q6.92383 9.90234 7.41699 10.5811Q7.91016 11.2598 8.52539 11.8652Q9.14062 12.4707 9.79492 12.9736Q10.4492 13.4766 11.0449 13.8574Q11.1719 13.9258 11.3135 14.0039Q11.4551 14.082 11.5527 14.082Q11.6406 14.082 11.7725 14.0088Q11.9043 13.9355 12.0117 13.8574Q12.6074 13.4668 13.2617 12.959Q13.916 12.4512 14.5312 11.8506Q15.1465 11.25 15.6445 10.5713Q16.1426 9.89258 16.4355 9.16016Q16.7285 8.42773 16.7285 7.65625Q16.7285 6.78711 16.3574 6.11816Q15.9863 5.44922 15.3467 5.06348Q14.707 4.67773 13.877 4.67773Q13.1055 4.67773 12.5 5.08789Q11.8945 5.49805 11.5332 6.16211Q11.1719 5.49805 10.5713 5.08789Q9.9707 4.67773 9.18945 4.67773Z" fill="#ffffff"/>
 </g>
</svg>
