<?xml version="1.0" encoding="UTF-8"?>
<!--Generator: Apple Native CoreSVG 175-->
<!DOCTYPE svg
PUBLIC "-//W3C//DTD SVG 1.1//EN"
       "http://www.w3.org/Graphics/SVG/1.1/DTD/svg11.dtd">
<svg version="1.1" xmlns="http://www.w3.org/2000/svg" xmlns:xlink="http://www.w3.org/1999/xlink" width="19.2383" height="19.2192">
 <g>
  <rect height="19.2192" opacity="0" width="19.2383" x="0" y="0"/>
  <path d="M13.7793 15.6008L13.2617 15.0735Q12.5293 15.6887 11.7285 16.2795Q10.9277 16.8703 10.0977 17.427Q10 17.4953 9.96094 17.4953Q9.92188 17.4953 9.83398 17.427Q8.0957 16.2746 6.57227 14.9953Q5.04883 13.716 3.8916 12.3635Q2.73438 11.011 2.0752 9.61447Q1.41602 8.21799 1.41602 6.84103Q1.41602 6.01095 1.62598 5.31271Q1.83594 4.61447 2.2168 4.04806L1.68945 3.51095Q1.21094 4.18478 0.947266 5.02463Q0.683594 5.86447 0.683594 6.84103Q0.683594 8.81369 1.81152 10.7473Q2.93945 12.6809 4.93164 14.5266Q6.92383 16.3723 9.50195 18.0813Q9.59961 18.1496 9.72656 18.1985Q9.85352 18.2473 9.96094 18.2473Q10.0684 18.2473 10.1904 18.1985Q10.3125 18.1496 10.4102 18.0813Q12.2363 16.8801 13.7793 15.6008ZM15.1562 13.3254L15.6836 13.8528Q17.334 12.1731 18.2861 10.4055Q19.2383 8.63791 19.2383 6.84103Q19.2383 5.63986 18.8525 4.63888Q18.4668 3.63791 17.7686 2.9006Q17.0703 2.1633 16.1279 1.76291Q15.1855 1.36252 14.0723 1.36252Q12.793 1.36252 11.665 2.03635Q10.5371 2.71017 9.96094 3.83322Q9.375 2.71017 8.25195 2.03635Q7.12891 1.36252 5.84961 1.36252Q4.66797 1.36252 3.67188 1.83127L4.24805 2.40744Q4.96094 2.08517 5.84961 2.08517Q6.73828 2.08517 7.44629 2.4172Q8.1543 2.74924 8.68652 3.29123Q9.21875 3.83322 9.57031 4.49728Q9.67773 4.6633 9.76562 4.73166Q9.85352 4.80002 9.96094 4.80002Q10.0781 4.80002 10.1611 4.73166Q10.2441 4.6633 10.3418 4.49728Q10.7129 3.84299 11.2451 3.29611Q11.7773 2.74924 12.4805 2.4172Q13.1836 2.08517 14.082 2.08517Q15.3613 2.08517 16.3574 2.69064Q17.3535 3.29611 17.9297 4.36545Q18.5059 5.43478 18.5059 6.84103Q18.5059 8.47189 17.5928 10.1125Q16.6797 11.7531 15.1562 13.3254Z" fill="rgba(255,255,255,0.5)"/>
  <path d="M17.3828 17.886Q17.4902 18.0031 17.6416 18.0031Q17.793 18.0031 17.9004 17.886Q18.0176 17.7785 18.0127 17.632Q18.0078 17.4856 17.9004 17.3781L0.615234 0.102751Q0.517578 0.00509511 0.371094 0.000212296Q0.224609-0.00467052 0.107422 0.102751Q0 0.210173 0 0.36154Q0 0.512908 0.107422 0.610564Z" fill="#ffffff"/>
 </g>
</svg>
