<?xml version="1.0" encoding="UTF-8"?>
<!--Generator: Apple Native CoreSVG 175-->
<!DOCTYPE svg
PUBLIC "-//W3C//DTD SVG 1.1//EN"
       "http://www.w3.org/Graphics/SVG/1.1/DTD/svg11.dtd">
<svg version="1.1" xmlns="http://www.w3.org/2000/svg" xmlns:xlink="http://www.w3.org/1999/xlink" width="19.245" height="20.4086">
 <g>
  <rect height="20.4086" opacity="0" width="19.245" x="0" y="0"/>
  <path d="M0.981598 15.9306L8.6969 20.1511Q9.61411 20.6662 10.5481 20.1511L18.2632 15.9306Q18.7993 15.6314 19.0221 15.2657Q19.245 14.8999 19.245 14.2572L19.245 5.858Q19.245 5.36423 19.0446 5.08965Q18.8441 4.81506 18.5144 4.6225L10.7376 0.312347Q10.195 0.00289917 9.61975 0.00564575Q9.04449 0.00839233 8.5144 0.312347L0.733185 4.6225Q0.403595 4.81506 0.201797 5.08965Q0 5.36423 0 5.858L0 14.2572Q0 14.8999 0.224228 15.2657Q0.448456 15.6314 0.981598 15.9306ZM0.766449 10.1994L0.766449 6.02753Q0.766449 5.72678 0.887527 5.54375Q1.00861 5.36072 1.33759 5.18112L8.96164 0.924835Q9.2836 0.743256 9.62112 0.741882Q9.95865 0.740509 10.2859 0.924835L17.9144 5.18112Q18.2364 5.36072 18.3575 5.54375Q18.4785 5.72678 18.4785 6.02753L18.4785 10.1994Z" fill="#ffffff"/>
 </g>
</svg>
