<?xml version="1.0" encoding="UTF-8"?>
<!--Generator: Apple Native CoreSVG 175.5-->
<!DOCTYPE svg
PUBLIC "-//W3C//DTD SVG 1.1//EN"
       "http://www.w3.org/Graphics/SVG/1.1/DTD/svg11.dtd">
<svg version="1.1" xmlns="http://www.w3.org/2000/svg" xmlns:xlink="http://www.w3.org/1999/xlink" width="20.2344" height="23.36">
 <g>
  <rect height="23.36" opacity="0" width="20.2344" x="0" y="0"/>
  <path d="M4.78516 16.636L8.02734 15.2982Q8.21289 15.2298 8.31543 15.1517Q8.41797 15.0735 8.53516 14.9661L17.8809 5.68878Q18.5645 5.00519 18.5596 4.24347Q18.5547 3.48175 17.8613 2.77863L15.8105 0.708315Q15.1074 0.0149557 14.3408 0.00030731Q13.5742-0.0143411 12.8906 0.669253L3.53516 9.9466Q3.42773 10.054 3.35449 10.1566Q3.28125 10.2591 3.20312 10.4349L1.83594 13.6771Q1.67969 14.0384 1.72363 14.39Q1.76758 14.7415 2.05078 15.0247L3.4375 16.4212Q3.71094 16.6946 4.0625 16.7435Q4.41406 16.7923 4.78516 16.636ZM4.63867 15.1224Q4.49219 15.1712 4.375 15.1614Q4.25781 15.1517 4.12109 15.015L3.45703 14.3509Q3.32031 14.2239 3.31055 14.1019Q3.30078 13.9798 3.35938 13.8431L4.57031 11.0013L13.877 1.763Q14.0918 1.56769 14.3262 1.55792Q14.5605 1.54816 14.7559 1.74347L16.8164 3.82355Q17.2363 4.25324 16.7871 4.70246L7.48047 13.9407ZM0.976562 17.1243L2.1582 17.1243Q2.36328 17.1243 2.48535 17.0755Q2.60742 17.0267 2.76367 16.8997L3.68164 16.1966L2.27539 14.761L0.693359 16.431Q0.478516 16.6653 0.566406 16.8948Q0.654297 17.1243 0.976562 17.1243ZM3.68164 11.0013L7.67578 15.015L8.59375 14.1068L4.59961 10.0833ZM11.7871 2.96417L15.7812 6.97785L16.6992 6.07941L12.7051 2.05597ZM0.78125 20.6107L19.4434 20.6107Q19.7656 20.6107 20 20.3763Q20.2344 20.1419 20.2344 19.8196Q20.2344 19.4974 20 19.2679Q19.7656 19.0384 19.4434 19.0384L0.78125 19.0384Q0.458984 19.0384 0.229492 19.2679Q0 19.4974 0 19.8196Q0 20.1419 0.229492 20.3763Q0.458984 20.6107 0.78125 20.6107Z" fill="#ffffff"/>
 </g>
</svg>
