<?xml version="1.0" encoding="UTF-8"?>
<!--Generator: Apple Native CoreSVG 175.5-->
<!DOCTYPE svg
PUBLIC "-//W3C//DTD SVG 1.1//EN"
       "http://www.w3.org/Graphics/SVG/1.1/DTD/svg11.dtd">
<svg version="1.1" xmlns="http://www.w3.org/2000/svg" xmlns:xlink="http://www.w3.org/1999/xlink" width="13.623" height="18.0176">
 <g>
  <rect height="18.0176" opacity="0" width="13.623" x="0" y="0"/>
  <path d="M6.72852 0Q5.72266 0 4.80957 0.263672Q3.89648 0.527344 3.16406 1.07422Q2.43164 1.62109 1.96289 2.46094Q1.78711 2.72461 1.68945 2.99316Q1.5918 3.26172 1.58203 3.56445Q1.58203 3.91602 1.79199 4.15039Q2.00195 4.38477 2.41211 4.38477Q2.67578 4.38477 2.88574 4.25293Q3.0957 4.12109 3.25195 3.75977Q3.53516 3.06641 4.06738 2.59277Q4.59961 2.11914 5.29785 1.87988Q5.99609 1.64062 6.78711 1.64062Q7.77344 1.64062 8.59863 1.96289Q9.42383 2.28516 9.91699 2.91504Q10.4102 3.54492 10.4102 4.45312Q10.4102 5.06836 10.0684 5.68848Q9.72656 6.30859 8.99414 6.62109L11.0645 6.62109Q11.6211 6.18164 11.9141 5.58105Q12.207 4.98047 12.207 4.33594Q12.207 2.94922 11.46 1.97754Q10.7129 1.00586 9.46289 0.50293Q8.21289 0 6.72852 0ZM0.625 7.67578L12.9883 7.67578Q13.2617 7.67578 13.4424 7.49023Q13.623 7.30469 13.623 7.04102Q13.623 6.75781 13.4424 6.58203Q13.2617 6.40625 12.9883 6.40625L0.625 6.40625Q0.361328 6.40625 0.180664 6.58203Q0 6.75781 0 7.04102Q0 7.30469 0.180664 7.49023Q0.361328 7.67578 0.625 7.67578ZM0.625 11.084L12.9883 11.084Q13.2617 11.084 13.4424 10.8984Q13.623 10.7129 13.623 10.4492Q13.623 10.166 13.4424 9.99023Q13.2617 9.81445 12.9883 9.81445L0.625 9.81445Q0.361328 9.81445 0.180664 9.99023Q0 10.166 0 10.4492Q0 10.7129 0.180664 10.8984Q0.361328 11.084 0.625 11.084ZM6.82617 18.0078Q8.10547 18.0078 9.14062 17.6709Q10.1758 17.334 10.9326 16.709Q11.6895 16.084 12.1191 15.2344Q12.2852 14.9707 12.3926 14.707Q12.5 14.4434 12.5 14.1211Q12.5 13.7598 12.2705 13.5352Q12.041 13.3105 11.6797 13.3105Q11.3086 13.3105 11.1035 13.4863Q10.8984 13.6621 10.7715 13.9453Q10.459 14.7461 9.90723 15.2832Q9.35547 15.8203 8.56934 16.0938Q7.7832 16.3672 6.77734 16.3672Q5.5957 16.3672 4.72656 15.9766Q3.85742 15.5859 3.38379 14.9414Q2.91016 14.2969 2.91016 13.5254Q2.91016 12.7148 3.37891 11.9922Q3.84766 11.2695 4.93164 10.8398L2.72461 10.8398Q1.96289 11.2988 1.5332 12.0264Q1.10352 12.7539 1.10352 13.6035Q1.10352 14.8242 1.80176 15.8252Q2.5 16.8262 3.78906 17.417Q5.07812 18.0078 6.82617 18.0078Z" fill="#ffffff"/>
 </g>
</svg>
