<?xml version="1.0" encoding="UTF-8"?>
<!--Generator: Apple Native CoreSVG 175.5-->
<!DOCTYPE svg
PUBLIC "-//W3C//DTD SVG 1.1//EN"
       "http://www.w3.org/Graphics/SVG/1.1/DTD/svg11.dtd">
<svg version="1.1" xmlns="http://www.w3.org/2000/svg" xmlns:xlink="http://www.w3.org/1999/xlink" width="19.9219" height="19.9316">
 <g>
  <rect height="19.9316" opacity="0" width="19.9219" x="0" y="0"/>
  <path d="M9.96094 19.9219Q12.002 19.9219 13.8037 19.1406Q15.6055 18.3594 16.9824 16.9824Q18.3594 15.6055 19.1406 13.8037Q19.9219 12.002 19.9219 9.96094Q19.9219 7.91992 19.1406 6.11816Q18.3594 4.31641 16.9824 2.93945Q15.6055 1.5625 13.7988 0.78125Q11.9922 0 9.95117 0Q7.91016 0 6.1084 0.78125Q4.30664 1.5625 2.93457 2.93945Q1.5625 4.31641 0.78125 6.11816Q0 7.91992 0 9.96094Q0 12.002 0.78125 13.8037Q1.5625 15.6055 2.93945 16.9824Q4.31641 18.3594 6.11816 19.1406Q7.91992 19.9219 9.96094 19.9219ZM9.96094 18.2617Q8.23242 18.2617 6.72852 17.6172Q5.22461 16.9727 4.08691 15.835Q2.94922 14.6973 2.30957 13.1934Q1.66992 11.6895 1.66992 9.96094Q1.66992 8.23242 2.30957 6.72852Q2.94922 5.22461 4.08203 4.08203Q5.21484 2.93945 6.71875 2.2998Q8.22266 1.66016 9.95117 1.66016Q11.6797 1.66016 13.1885 2.2998Q14.6973 2.93945 15.835 4.08203Q16.9727 5.22461 17.6172 6.72852Q18.2617 8.23242 18.2617 9.96094Q18.2617 11.6895 17.6221 13.1934Q16.9824 14.6973 15.8398 15.835Q14.6973 16.9727 13.1934 17.6172Q11.6895 18.2617 9.96094 18.2617Z" fill="rgba(255,255,255,0.5)"/>
  <path d="M6.20117 10.9082Q6.20117 11.3965 6.67969 11.3965L7.32422 11.3965Q7.1875 11.6016 7.11426 11.8359Q7.04102 12.0703 7.04102 12.2852Q7.04102 13.0371 7.44141 13.5693Q7.8418 14.1016 8.51074 14.3799Q9.17969 14.6582 9.99023 14.6582Q10.7812 14.6582 11.46 14.3506Q12.1387 14.043 12.5195 13.4082Q12.7441 13.0664 12.7539 12.7148Q12.7637 12.4609 12.6123 12.29Q12.4609 12.1191 12.1777 12.1191Q11.9922 12.1191 11.8506 12.207Q11.709 12.2949 11.6016 12.5391Q11.416 13.0273 10.9619 13.2666Q10.5078 13.5059 9.96094 13.5059Q9.27734 13.5059 8.77441 13.1885Q8.27148 12.8711 8.27148 12.2363Q8.27148 12.0117 8.37891 11.7822Q8.48633 11.5527 8.70117 11.3965L13.2129 11.3965Q13.6914 11.3965 13.6914 10.9082Q13.6914 10.7129 13.5547 10.5713Q13.418 10.4297 13.2129 10.4297L6.67969 10.4297Q6.46484 10.4297 6.33301 10.5713Q6.20117 10.7129 6.20117 10.9082ZM6.2207 8.95508Q6.2207 9.15039 6.35254 9.29199Q6.48438 9.43359 6.69922 9.43359L13.2324 9.43359Q13.4375 9.43359 13.5742 9.29199Q13.7109 9.15039 13.7109 8.95508Q13.7109 8.47656 13.2324 8.47656L12.5879 8.47656Q12.7246 8.26172 12.793 8.02734Q12.8613 7.79297 12.8613 7.57812Q12.8613 6.82617 12.4609 6.29883Q12.0605 5.77148 11.3916 5.48828Q10.7227 5.20508 9.92188 5.20508Q9.13086 5.20508 8.45215 5.51758Q7.77344 5.83008 7.38281 6.46484Q7.1582 6.79688 7.1582 7.1582Q7.14844 7.40234 7.2998 7.57324Q7.45117 7.74414 7.73438 7.74414Q7.91016 7.74414 8.05664 7.65625Q8.20312 7.56836 8.30078 7.32422Q8.50586 6.83594 8.95508 6.59668Q9.4043 6.35742 9.95117 6.35742Q10.6348 6.35742 11.1377 6.6748Q11.6406 6.99219 11.6406 7.62695Q11.6406 7.85156 11.5332 8.08594Q11.4258 8.32031 11.2012 8.47656L6.69922 8.47656Q6.2207 8.47656 6.2207 8.95508Z" fill="#ffffff"/>
 </g>
</svg>
