<?xml version="1.0" encoding="UTF-8"?>
<!--Generator: Apple Native CoreSVG 175-->
<!DOCTYPE svg
PUBLIC "-//W3C//DTD SVG 1.1//EN"
       "http://www.w3.org/Graphics/SVG/1.1/DTD/svg11.dtd">
<svg version="1.1" xmlns="http://www.w3.org/2000/svg" xmlns:xlink="http://www.w3.org/1999/xlink" width="23.2031" height="20.2637">
 <g>
  <rect height="20.2637" opacity="0" width="23.2031" x="0" y="0"/>
  <path d="M5.33203 17.4609L14.8047 17.4609L3.98438 6.64062Q3.74023 7.04102 3.61328 7.50977Q3.48633 7.97852 3.49609 8.50586Q2.45117 8.58398 1.66504 9.14551Q0.878906 9.70703 0.439453 10.6201Q0 11.5332 0 12.6758Q0 13.6719 0.400391 14.5459Q0.800781 15.4199 1.52344 16.0742Q2.24609 16.7285 3.21777 17.0947Q4.18945 17.4609 5.33203 17.4609ZM18.418 17.4316Q19.8535 17.373 20.9277 16.8066Q22.002 16.2402 22.6025 15.293Q23.2031 14.3457 23.2031 13.1738Q23.2031 12.2168 22.8613 11.3721Q22.5195 10.5273 21.8604 9.8877Q21.2012 9.24805 20.2148 8.93555Q20.2734 7.38281 19.7949 6.06445Q19.3164 4.74609 18.4229 3.76953Q17.5293 2.79297 16.3232 2.25586Q15.1172 1.71875 13.7109 1.71875Q12.373 1.71875 11.333 2.16797Q10.293 2.61719 9.53125 3.36426Q8.76953 4.11133 8.28125 5.00977Q7.75391 4.77539 7.14355 4.76074Q6.5332 4.74609 5.94727 4.96094Z" fill="rgba(255,255,255,0.5)"/>
  <path d="M18.8184 20.166Q18.9258 20.2637 19.0723 20.2637Q19.2188 20.2637 19.3262 20.166Q19.4238 20.0684 19.4287 19.9121Q19.4336 19.7559 19.3262 19.6484L2.69531 3.02734Q2.60742 2.93945 2.44629 2.92969Q2.28516 2.91992 2.1875 3.02734Q2.08008 3.125 2.08496 3.28125Q2.08984 3.4375 2.1875 3.53516Z" fill="#ffffff"/>
 </g>
</svg>
