<?xml version="1.0" encoding="UTF-8"?>
<!--Generator: Apple Native CoreSVG 175-->
<!DOCTYPE svg
PUBLIC "-//W3C//DTD SVG 1.1//EN"
       "http://www.w3.org/Graphics/SVG/1.1/DTD/svg11.dtd">
<svg version="1.1" xmlns="http://www.w3.org/2000/svg" xmlns:xlink="http://www.w3.org/1999/xlink" width="23.42" height="10.0192">
 <g>
  <rect height="10.0192" opacity="0" width="23.42" x="0" y="0"/>
  <path d="M0 5.00473Q0 6.51215 0.621719 7.63794Q1.24344 8.76373 2.32758 9.3866Q3.41171 10.0095 4.80087 10.0095Q6.07269 10.0095 7.11609 9.43466Q8.15948 8.85986 9.32816 7.75391L11.7149 5.50003L14.0918 7.75391Q15.2676 8.85986 16.3088 9.43466Q17.35 10.0095 18.6192 10.0095Q20.0082 10.0095 21.0925 9.3866Q22.1767 8.76373 22.7983 7.63794Q23.42 6.51215 23.42 5.00473Q23.42 3.49731 22.7983 2.37152Q22.1767 1.24573 21.0925 0.622864Q20.0082 0 18.6192 0Q17.35 0 16.3088 0.574799Q15.2676 1.1496 14.0918 2.25555L11.7149 4.50943L9.32816 2.25555Q8.15948 1.1496 7.11609 0.574799Q6.07269 0 4.80087 0Q3.41171 0 2.32758 0.622864Q1.24344 1.24573 0.621719 2.37152Q0 3.49731 0 5.00473ZM0.769196 5.00473Q0.769196 3.7294 1.29417 2.7755Q1.81915 1.82159 2.73499 1.29189Q3.65082 0.762177 4.80087 0.762177Q5.87891 0.762177 6.79802 1.28654Q7.71713 1.81091 8.76999 2.78839L11.1777 5.00473L8.76022 7.22107Q7.70309 8.19855 6.78749 8.71941Q5.87189 9.24026 4.80087 9.24026Q3.65082 9.24026 2.73499 8.71407Q1.81915 8.18787 1.29417 7.23259Q0.769196 6.27731 0.769196 5.00473ZM12.2423 5.00473L14.6501 2.78839Q15.7028 1.81091 16.6219 1.28654Q17.541 0.762177 18.6192 0.762177Q19.7691 0.762177 20.685 1.29189Q21.6008 1.82159 22.1258 2.7755Q22.6508 3.7294 22.6508 5.00473Q22.6508 6.27731 22.1258 7.23259Q21.6008 8.18787 20.685 8.71407Q19.7691 9.24026 18.6192 9.24026Q17.5481 9.24026 16.6325 8.71941Q15.7169 8.19855 14.6599 7.22107Z" fill="#ffffff"/>
 </g>
</svg>
