<?xml version="1.0" encoding="UTF-8"?>
<!--Generator: Apple Native CoreSVG 175.5-->
<!DOCTYPE svg
PUBLIC "-//W3C//DTD SVG 1.1//EN"
       "http://www.w3.org/Graphics/SVG/1.1/DTD/svg11.dtd">
<svg version="1.1" xmlns="http://www.w3.org/2000/svg" xmlns:xlink="http://www.w3.org/1999/xlink" width="16.3184" height="22.0215">
 <g>
  <rect height="22.0215" opacity="0" width="16.3184" x="0" y="0"/>
  <path d="M2.70508 22.002L13.6133 22.002Q14.8242 22.002 15.5713 21.2891Q16.3184 20.5762 16.3184 19.4238L16.3184 2.58789Q16.3184 1.42578 15.5713 0.712891Q14.8242 0 13.6133 0L2.70508 0Q1.49414 0 0.74707 0.712891Q0 1.42578 0 2.58789L0 19.4238Q0 20.5762 0.74707 21.2891Q1.49414 22.002 2.70508 22.002ZM2.90039 20.4297Q2.27539 20.4297 1.92383 20.0928Q1.57227 19.7559 1.57227 19.1602L1.57227 2.85156Q1.57227 2.24609 1.92383 1.90918Q2.27539 1.57227 2.90039 1.57227L13.418 1.57227Q14.043 1.57227 14.3945 1.90918Q14.7461 2.24609 14.7461 2.85156L14.7461 19.1602Q14.7461 19.7559 14.3945 20.0928Q14.043 20.4297 13.418 20.4297Z" fill="rgba(255,255,255,0.5)"/>
  <path d="M4.08203 5.3125Q4.57031 5.3125 4.94141 4.94141Q5.3125 4.57031 5.3125 4.05273Q5.3125 3.55469 4.94141 3.18848Q4.57031 2.82227 4.08203 2.82227Q3.55469 2.82227 3.18848 3.18848Q2.82227 3.55469 2.82227 4.05273Q2.82227 4.57031 3.18848 4.94141Q3.55469 5.3125 4.08203 5.3125Z" fill="#ffffff"/>
 </g>
</svg>
