<?xml version="1.0" encoding="UTF-8"?>
<!--Generator: Apple Native CoreSVG 175.5-->
<!DOCTYPE svg
PUBLIC "-//W3C//DTD SVG 1.1//EN"
       "http://www.w3.org/Graphics/SVG/1.1/DTD/svg11.dtd">
<svg version="1.1" xmlns="http://www.w3.org/2000/svg" xmlns:xlink="http://www.w3.org/1999/xlink" width="15.4883" height="20.6934">
 <g>
  <rect height="20.6934" opacity="0" width="15.4883" x="0" y="0"/>
  <path d="M2.93945 12.373L2.93945 18.1348Q2.93945 19.2773 3.67188 19.9756Q4.4043 20.6738 5.5957 20.6738L12.832 20.6738Q14.0234 20.6738 14.7559 19.9756Q15.4883 19.2773 15.4883 18.1348L15.4883 2.53906Q15.4883 1.39648 14.7559 0.698242Q14.0234 0 12.832 0L5.5957 0Q4.4043 0 3.67188 0.698242Q2.93945 1.39648 2.93945 2.53906L2.93945 8.31055L4.51172 8.31055L4.51172 2.79297Q4.51172 2.20703 4.84375 1.88965Q5.17578 1.57227 5.80078 1.57227L12.6367 1.57227Q13.252 1.57227 13.584 1.88965Q13.916 2.20703 13.916 2.79297L13.916 17.8809Q13.916 18.4668 13.584 18.7842Q13.252 19.1016 12.6367 19.1016L5.80078 19.1016Q5.17578 19.1016 4.84375 18.7842Q4.51172 18.4668 4.51172 17.8809L4.51172 12.373Z" fill="rgba(255,255,255,0.5)"/>
  <path d="M0.712891 11.0254L7.08008 11.0254L9.14062 10.9277L7.01172 12.8418L6.45508 13.3984Q6.35742 13.5059 6.29883 13.6377Q6.24023 13.7695 6.24023 13.9258Q6.24023 14.2188 6.43555 14.4092Q6.63086 14.5996 6.91406 14.5996Q7.2168 14.5996 7.43164 14.3848L10.9668 10.8496Q11.2305 10.5957 11.2305 10.332Q11.2305 10.0488 10.9668 9.80469L7.43164 6.2793Q7.2168 6.06445 6.91406 6.06445Q6.63086 6.06445 6.43555 6.25Q6.24023 6.43555 6.24023 6.72852Q6.24023 6.89453 6.29883 7.02637Q6.35742 7.1582 6.45508 7.25586L7.01172 7.82227L9.14062 9.72656L7.08008 9.62891L0.712891 9.62891Q0.380859 9.62891 0.19043 9.84375Q0 10.0586 0 10.332Q0 10.6055 0.19043 10.8154Q0.380859 11.0254 0.712891 11.0254Z" fill="#ffffff"/>
 </g>
</svg>
