<?xml version="1.0" encoding="UTF-8"?>
<!--Generator: Apple Native CoreSVG 175-->
<!DOCTYPE svg
PUBLIC "-//W3C//DTD SVG 1.1//EN"
       "http://www.w3.org/Graphics/SVG/1.1/DTD/svg11.dtd">
<svg version="1.1" xmlns="http://www.w3.org/2000/svg" xmlns:xlink="http://www.w3.org/1999/xlink" width="11.0301" height="19.3436">
 <g>
  <rect height="19.3436" opacity="0" width="11.0301" x="0" y="0"/>
  <path d="M2.44644 18.6165Q1.56143 18.6165 1.14502 18.2077Q0.728607 17.7989 0.728607 16.9247L0.728607 2.42035Q0.728607 1.53915 1.14502 1.13037Q1.56143 0.721588 2.44644 0.721588L8.58643 0.721588Q9.46884 0.721588 9.88525 1.13037Q10.3017 1.53915 10.3017 2.42035L10.3017 16.9247Q10.3017 17.7989 9.88525 18.2077Q9.46884 18.6165 8.58643 18.6165Z" fill="rgba(255,255,255,0.25)"/>
  <path d="M2.38205 19.3381L8.64807 19.3381Q9.80713 19.3381 10.4186 18.7312Q11.0301 18.1244 11.0301 16.9748L11.0301 2.36343Q11.0301 1.21368 10.4186 0.606842Q9.80713 0 8.64807 0L2.38205 0Q1.21872 0 0.60936 0.606842Q0 1.21368 0 2.36343L0 16.9748Q0 18.1244 0.60936 18.7312Q1.21872 19.3381 2.38205 19.3381ZM2.44644 18.6165Q1.56143 18.6165 1.14502 18.2077Q0.728607 17.7989 0.728607 16.9247L0.728607 2.42035Q0.728607 1.53915 1.14502 1.13037Q1.56143 0.721588 2.44644 0.721588L8.58643 0.721588Q9.46884 0.721588 9.88525 1.13037Q10.3017 1.53915 10.3017 2.42035L10.3017 16.9247Q10.3017 17.7989 9.88525 18.2077Q9.46884 18.6165 8.58643 18.6165ZM3.96408 18.7637L7.06177 18.7637L7.06177 18.4392Q7.06177 18.1998 6.92329 18.0563Q6.78482 17.9129 6.55243 17.9129L4.48318 17.9129Q4.25079 17.9129 4.10744 18.0563Q3.96408 18.1998 3.96408 18.4392Z" fill="#ffffff"/>
 </g>
</svg>
