<?xml version="1.0" encoding="UTF-8"?>
<!--Generator: Apple Native CoreSVG 175-->
<!DOCTYPE svg
PUBLIC "-//W3C//DTD SVG 1.1//EN"
       "http://www.w3.org/Graphics/SVG/1.1/DTD/svg11.dtd">
<svg version="1.1" xmlns="http://www.w3.org/2000/svg" xmlns:xlink="http://www.w3.org/1999/xlink" width="11.0301" height="19.3436">
 <g>
  <rect height="19.3436" opacity="0" width="11.0301" x="0" y="0"/>
  <path d="M2.44644 17.1629Q1.56143 17.1629 1.14502 16.7542Q0.728607 16.3454 0.728607 15.4642L0.728607 2.42035Q0.728607 1.53915 1.14502 1.13037Q1.56143 0.721588 2.44644 0.721588L8.58643 0.721588Q9.46884 0.721588 9.88525 1.13037Q10.3017 1.53915 10.3017 2.42035L10.3017 15.6747Q10.3017 16.5517 9.88525 16.8573Q9.46884 17.1629 8.58643 17.1629Z" fill="rgba(255,255,255,0.25)"/>
  <path d="M2.38205 19.3381L8.64807 19.3381Q9.80713 19.3381 10.4186 18.7312Q11.0301 18.1244 11.0301 16.9748L11.0301 2.36343Q11.0301 1.21368 10.4186 0.606842Q9.80713 0 8.64807 0L2.38205 0Q1.21872 0 0.60936 0.606842Q0 1.21368 0 2.36343L0 16.9748Q0 18.1244 0.60936 18.7312Q1.21872 19.3381 2.38205 19.3381ZM2.44644 17.1629Q1.56143 17.1629 1.14502 16.7542Q0.728607 16.3454 0.728607 15.4642L0.728607 2.42035Q0.728607 1.53915 1.14502 1.13037Q1.56143 0.721588 2.44644 0.721588L8.58643 0.721588Q9.46884 0.721588 9.88525 1.13037Q10.3017 1.53915 10.3017 2.42035L10.3017 15.6747Q10.3017 16.5517 9.88525 16.8573Q9.46884 17.1629 8.58643 17.1629ZM3.96408 17.3032L7.06177 17.3032L7.06177 16.9856Q7.06177 16.7462 6.92329 16.6015Q6.78482 16.4568 6.55243 16.4568L4.48318 16.4568Q4.25079 16.4568 4.10744 16.6015Q3.96408 16.7462 3.96408 16.9856Z" fill="#ffffff"/>
 </g>
</svg>
