<?xml version="1.0" encoding="UTF-8"?>
<!--Generator: Apple Native CoreSVG 175-->
<!DOCTYPE svg
PUBLIC "-//W3C//DTD SVG 1.1//EN"
       "http://www.w3.org/Graphics/SVG/1.1/DTD/svg11.dtd">
<svg version="1.1" xmlns="http://www.w3.org/2000/svg" xmlns:xlink="http://www.w3.org/1999/xlink" width="17.2852" height="17.3145">
 <g>
  <rect height="17.3145" opacity="0" width="17.2852" x="0" y="0"/>
  <path d="M2.62695 17.3145L14.6484 17.3145Q15.957 17.3145 16.6211 16.6455Q17.2852 15.9766 17.2852 14.6875L17.2852 2.65625Q17.2852 1.37695 16.6211 0.703125Q15.957 0.0292969 14.6484 0.0292969L2.62695 0.0292969Q1.33789 0.0292969 0.668945 0.693359Q0 1.35742 0 2.65625L0 14.6875Q0 15.9863 0.668945 16.6504Q1.33789 17.3145 2.62695 17.3145Z" fill="rgba(255,255,255,0.25)"/>
  <path d="M8.29102 13.1055Q7.34375 13.1055 6.66016 12.6074Q5.97656 12.1094 5.82031 11.3477Q5.80078 11.2598 5.79102 11.1865Q5.78125 11.1133 5.78125 11.0449Q5.78125 10.8789 5.87402 10.7764Q5.9668 10.6738 6.13281 10.6738Q6.41602 10.6738 6.49414 10.9766Q6.5918 11.6211 7.09473 12.0215Q7.59766 12.4219 8.32031 12.4219Q9.0918 12.4219 9.5459 11.9141Q10 11.4062 10 10.5273L10 4.59961Q10 4.42383 10.1025 4.31641Q10.2051 4.20898 10.3809 4.20898Q10.5566 4.20898 10.6592 4.31641Q10.7617 4.42383 10.7617 4.59961L10.7617 10.5273Q10.7617 11.709 10.1074 12.4072Q9.45312 13.1055 8.29102 13.1055Z" fill="#ffffff"/>
 </g>
</svg>
