<?xml version="1.0" encoding="UTF-8"?>
<!--Generator: Apple Native CoreSVG 175-->
<!DOCTYPE svg
PUBLIC "-//W3C//DTD SVG 1.1//EN"
       "http://www.w3.org/Graphics/SVG/1.1/DTD/svg11.dtd">
<svg version="1.1" xmlns="http://www.w3.org/2000/svg" xmlns:xlink="http://www.w3.org/1999/xlink" width="23.2031" height="16.8262">
 <g>
  <rect height="16.8262" opacity="0" width="23.2031" x="0" y="0"/>
  <path d="M18.3789 15.7422Q19.4043 15.7422 20.2783 15.415Q21.1523 15.0879 21.8066 14.5068Q22.4609 13.9258 22.832 13.1445Q23.2031 12.3633 23.2031 11.4551Q23.2031 10.498 22.8613 9.65332Q22.5195 8.80859 21.8604 8.16895Q21.2012 7.5293 20.2148 7.2168Q20.2734 5.66406 19.7949 4.3457Q19.3164 3.02734 18.4229 2.05078Q17.5293 1.07422 16.3232 0.537109Q15.1172 0 13.7109 0Q12.373 0 11.333 0.449219Q10.293 0.898438 9.53125 1.64551Q8.76953 2.39258 8.28125 3.29102Q7.44141 2.93945 6.5918 3.06641Q5.74219 3.19336 5.03418 3.70605Q4.32617 4.21875 3.90137 5.00977Q3.47656 5.80078 3.49609 6.78711Q2.45117 6.86523 1.66504 7.42676Q0.878906 7.98828 0.439453 8.90137Q0 9.81445 0 10.957Q0 11.9531 0.400391 12.8223Q0.800781 13.6914 1.52344 14.3457Q2.24609 15 3.21777 15.3613Q4.18945 15.7227 5.33203 15.7227ZM18.3691 15.0195L5.33203 15Q4.01367 15 2.97363 14.458Q1.93359 13.916 1.33301 12.998Q0.732422 12.0801 0.732422 10.957Q0.732422 9.96094 1.11328 9.15527Q1.49414 8.34961 2.22656 7.87598Q2.95898 7.40234 3.98438 7.40234Q4.14062 7.40234 4.14062 7.23633Q4.14062 6.2207 4.50684 5.47852Q4.87305 4.73633 5.49805 4.30664Q6.12305 3.87695 6.89453 3.79883Q7.66602 3.7207 8.44727 4.04297Q8.58398 4.0918 8.66211 3.95508Q9.14062 3.10547 9.8291 2.36328Q10.5176 1.62109 11.4648 1.17188Q12.4121 0.722656 13.7109 0.722656Q15.3027 0.722656 16.5723 1.48438Q17.8418 2.24609 18.6182 3.54004Q19.3945 4.83398 19.5117 6.44531Q19.5312 6.69922 19.5117 6.9873Q19.4922 7.27539 19.4922 7.56836Q19.4922 7.71484 19.6191 7.74414Q20.9473 8.10547 21.709 9.11133Q22.4707 10.1172 22.4707 11.4551Q22.4707 12.4805 21.9287 13.2861Q21.3867 14.0918 20.459 14.5557Q19.5312 15.0195 18.3691 15.0195Z" fill="rgba(255,255,255,0.5)"/>
  <path d="M6.65039 9.0625Q6.65039 9.82422 7.02637 10.4492Q7.40234 11.0742 8.02246 11.4453Q8.64258 11.8164 9.4043 11.8164Q10.3223 11.8164 11.0449 11.25Q11.7676 10.6836 12.168 9.62891L13.4473 10.8887Q13.4961 10.9277 13.5498 10.9326Q13.6035 10.9375 13.6523 10.8984L14.8926 9.63867L15.8203 10.5762Q15.8691 10.625 15.9277 10.625Q15.9863 10.625 16.0352 10.5762L17.4219 9.16992Q17.4805 9.11133 17.4805 9.05273Q17.4805 8.99414 17.4219 8.93555L16.6992 8.22266Q16.5918 8.11523 16.4648 8.11523L12.0215 8.11523Q11.7285 7.28516 11.0107 6.78711Q10.293 6.28906 9.4043 6.28906Q8.64258 6.28906 8.01758 6.66016Q7.39258 7.03125 7.02148 7.66113Q6.65039 8.29102 6.65039 9.0625ZM8.00781 9.05273Q8.00781 8.70117 8.25684 8.45703Q8.50586 8.21289 8.85742 8.21289Q9.19922 8.21289 9.44824 8.46191Q9.69727 8.71094 9.69727 9.05273Q9.69727 9.4043 9.44824 9.64844Q9.19922 9.89258 8.85742 9.89258Q8.50586 9.89258 8.25684 9.64844Q8.00781 9.4043 8.00781 9.05273Z" fill="#ffffff"/>
 </g>
</svg>
