<?xml version="1.0" encoding="UTF-8"?>
<!--Generator: Apple Native CoreSVG 175.5-->
<!DOCTYPE svg
PUBLIC "-//W3C//DTD SVG 1.1//EN"
       "http://www.w3.org/Graphics/SVG/1.1/DTD/svg11.dtd">
<svg version="1.1" xmlns="http://www.w3.org/2000/svg" xmlns:xlink="http://www.w3.org/1999/xlink" width="13.0566" height="24.4629">
 <g>
  <rect height="24.4629" opacity="0" width="13.0566" x="0" y="0"/>
  <path d="M5.84961 24.0625Q6.16211 24.3164 6.53809 24.3359Q6.91406 24.3555 7.20703 24.0723L10.2246 21.0547Q10.5078 20.7617 10.5029 20.3711Q10.498 19.9805 10.2148 19.6973L8.70117 18.1934L10.9082 15.9961Q11.1914 15.7129 11.1865 15.3223Q11.1816 14.9316 10.8984 14.6387L8.85742 12.5879Q10.8691 11.6211 11.9629 10.0391Q13.0566 8.45703 13.0566 6.51367Q13.0566 5.16602 12.5488 3.98438Q12.041 2.80273 11.1475 1.9043Q10.2539 1.00586 9.06738 0.50293Q7.88086 0 6.5332 0Q5.16602 0 3.98438 0.50293Q2.80273 1.00586 1.9043 1.89941Q1.00586 2.79297 0.50293 3.97461Q0 5.15625 0 6.51367Q0 7.82227 0.473633 8.98926Q0.947266 10.1562 1.81641 11.0645Q2.68555 11.9727 3.87695 12.5L3.87695 21.7188Q3.87695 21.9629 3.95996 22.2217Q4.04297 22.4805 4.25781 22.666ZM6.5332 22.5195L5.44922 21.4453L5.44922 11.3672Q4.30664 11.1133 3.42773 10.4102Q2.54883 9.70703 2.05566 8.70117Q1.5625 7.69531 1.5625 6.51367Q1.5625 5.48828 1.94824 4.59473Q2.33398 3.70117 3.0127 3.02246Q3.69141 2.34375 4.59473 1.95801Q5.49805 1.57227 6.5332 1.57227Q7.90039 1.57227 9.02832 2.23633Q10.1562 2.90039 10.8203 4.02344Q11.4844 5.14648 11.4844 6.51367Q11.4844 7.67578 10.9814 8.68652Q10.4785 9.69727 9.56543 10.4199Q8.65234 11.1426 7.43164 11.4355L7.43164 13.4082L9.3457 15.332L7.27539 17.373L7.27539 18.9941L8.66211 20.3613ZM6.5332 6.60156Q7.26562 6.60156 7.7832 6.08398Q8.30078 5.56641 8.30078 4.82422Q8.30078 4.0918 7.7832 3.57422Q7.26562 3.05664 6.5332 3.05664Q5.79102 3.05664 5.27344 3.56934Q4.75586 4.08203 4.75586 4.82422Q4.75586 5.56641 5.27344 6.08398Q5.79102 6.60156 6.5332 6.60156Z" fill="#ffffff"/>
 </g>
</svg>
