<?xml version="1.0" encoding="UTF-8"?>
<!--Generator: Apple Native CoreSVG 175-->
<!DOCTYPE svg
PUBLIC "-//W3C//DTD SVG 1.1//EN"
       "http://www.w3.org/Graphics/SVG/1.1/DTD/svg11.dtd">
<svg version="1.1" xmlns="http://www.w3.org/2000/svg" xmlns:xlink="http://www.w3.org/1999/xlink" width="22.6617" height="17.323">
 <g>
  <rect height="17.323" opacity="0" width="22.6617" x="0" y="0"/>
  <path d="M4.07074 8.35464L4.79263 8.35464Q5.19577 8.35464 5.19577 7.95151L5.19577 7.22687Q5.19577 6.82648 4.79263 6.82648L4.07074 6.82648Q3.6676 6.82648 3.6676 7.22687L3.6676 7.95151Q3.6676 8.35464 4.07074 8.35464ZM6.82617 8.35464L7.55081 8.35464Q7.9512 8.35464 7.9512 7.95151L7.9512 7.22687Q7.9512 6.82648 7.55081 6.82648L6.82617 6.82648Q6.42578 6.82648 6.42578 7.22687L6.42578 7.95151Q6.42578 8.35464 6.82617 8.35464ZM9.58862 8.35464L10.3105 8.35464Q10.7137 8.35464 10.7137 7.95151L10.7137 7.22687Q10.7137 6.82648 10.3105 6.82648L9.58862 6.82648Q9.18823 6.82648 9.18823 7.22687L9.18823 7.95151Q9.18823 8.35464 9.58862 8.35464ZM12.3512 8.35464L13.0759 8.35464Q13.4735 8.35464 13.4735 7.95151L13.4735 7.22687Q13.4735 6.82648 13.0759 6.82648L12.3512 6.82648Q11.9481 6.82648 11.9481 7.22687L11.9481 7.95151Q11.9481 8.35464 12.3512 8.35464ZM15.1039 8.35464L15.8356 8.35464Q16.2317 8.35464 16.2317 7.95151L16.2317 7.22687Q16.2317 6.82648 15.8356 6.82648L15.1039 6.82648Q14.7063 6.82648 14.7063 7.22687L14.7063 7.95151Q14.7063 8.35464 15.1039 8.35464ZM17.8691 8.35464L18.591 8.35464Q18.9941 8.35464 18.9941 7.95151L18.9941 7.22687Q18.9941 6.82648 18.591 6.82648L17.8691 6.82648Q17.466 6.82648 17.466 7.22687L17.466 7.95151Q17.466 8.35464 17.8691 8.35464ZM4.07074 11.2085L4.79263 11.2085Q5.19577 11.2085 5.19577 10.8125L5.19577 10.0836Q5.19577 9.69025 4.79263 9.69025L4.07074 9.69025Q3.6676 9.69025 3.6676 10.0836L3.6676 10.8125Q3.6676 11.2085 4.07074 11.2085ZM6.82617 11.2085L7.55081 11.2085Q7.9512 11.2085 7.9512 10.8125L7.9512 10.0836Q7.9512 9.69025 7.55081 9.69025L6.82617 9.69025Q6.42578 9.69025 6.42578 10.0836L6.42578 10.8125Q6.42578 11.2085 6.82617 11.2085ZM9.58862 11.2085L10.3105 11.2085Q10.7137 11.2085 10.7137 10.8125L10.7137 10.0836Q10.7137 9.69025 10.3105 9.69025L9.58862 9.69025Q9.18823 9.69025 9.18823 10.0836L9.18823 10.8125Q9.18823 11.2085 9.58862 11.2085ZM12.3512 11.2085L13.0759 11.2085Q13.4735 11.2085 13.4735 10.8125L13.4735 10.0836Q13.4735 9.69025 13.0759 9.69025L12.3512 9.69025Q11.9481 9.69025 11.9481 10.0836L11.9481 10.8125Q11.9481 11.2085 12.3512 11.2085ZM15.1039 11.2085L15.8356 11.2085Q16.2317 11.2085 16.2317 10.8125L16.2317 10.0836Q16.2317 9.69025 15.8356 9.69025L15.1039 9.69025Q14.7063 9.69025 14.7063 10.0836L14.7063 10.8125Q14.7063 11.2085 15.1039 11.2085ZM17.8691 11.2085L18.591 11.2085Q18.9941 11.2085 18.9941 10.8125L18.9941 10.0836Q18.9941 9.69025 18.591 9.69025L17.8691 9.69025Q17.466 9.69025 17.466 10.0836L17.466 10.8125Q17.466 11.2085 17.8691 11.2085ZM4.07074 14.0723L4.79263 14.0723Q5.19577 14.0723 5.19577 13.6691L5.19577 12.9472Q5.19577 12.5441 4.79263 12.5441L4.07074 12.5441Q3.6676 12.5441 3.6676 12.9472L3.6676 13.6691Q3.6676 14.0723 4.07074 14.0723ZM6.84372 14.0723L15.811 14.0723Q16.2317 14.0723 16.2317 13.6516L16.2317 12.9648Q16.2317 12.5441 15.811 12.5441L6.84372 12.5441Q6.42578 12.5441 6.42578 12.9648L6.42578 13.6516Q6.42578 14.0723 6.84372 14.0723ZM17.8691 14.0723L18.591 14.0723Q18.9941 14.0723 18.9941 13.6691L18.9941 12.9472Q18.9941 12.5441 18.591 12.5441L17.8691 12.5441Q17.466 12.5441 17.466 12.9472L17.466 13.6691Q17.466 14.0723 17.8691 14.0723ZM0 14.6965Q0 15.9921 0.668182 16.6576Q1.33636 17.323 2.63046 17.323L20.0243 17.323Q21.3281 17.323 21.9949 16.6505Q22.6617 15.9781 22.6617 14.6965L22.6617 2.66006Q22.6617 1.37848 21.9949 0.706024Q21.3281 0.0335693 20.0243 0.0335693L2.63046 0.0335693Q1.33636 0.0335693 0.668182 0.699005Q0 1.36444 0 2.66006ZM2.55432 2.82227Q2.28439 2.82227 2.09023 2.62184Q1.89606 2.42142 1.89606 2.164Q1.89606 1.90659 2.09023 1.70975Q2.28439 1.51291 2.55432 1.51291Q2.81723 1.51291 3.0127 1.70975Q3.20816 1.90659 3.20816 2.164Q3.20816 2.42142 3.0127 2.62184Q2.81723 2.82227 2.55432 2.82227ZM4.81567 2.82227Q4.54575 2.82227 4.35158 2.62672Q4.15741 2.43118 4.15741 2.164Q4.15741 1.90659 4.35158 1.70975Q4.54575 1.51291 4.81567 1.51291Q5.0856 1.51291 5.27756 1.70975Q5.46951 1.90659 5.46951 2.164Q5.46951 2.43118 5.27756 2.62672Q5.0856 2.82227 4.81567 2.82227ZM7.07703 2.81525Q6.8071 2.81525 6.61644 2.62321Q6.42578 2.43118 6.42578 2.164Q6.42578 1.90659 6.61644 1.70975Q6.8071 1.51291 7.07703 1.51291Q7.34695 1.51291 7.54112 1.70975Q7.73529 1.90659 7.73529 2.164Q7.73529 2.43118 7.54112 2.62321Q7.34695 2.81525 7.07703 2.81525ZM0.728607 14.6605L0.728607 4.30161L21.9331 4.30161L21.9331 14.6605Q21.9331 15.619 21.4287 16.1068Q20.9242 16.5945 20.0047 16.5945L2.65701 16.5945Q1.7067 16.5945 1.21765 16.1068Q0.728607 15.619 0.728607 14.6605Z" fill="#ffffff"/>
 </g>
</svg>
