<?xml version="1.0" encoding="UTF-8"?>
<!--Generator: Apple Native CoreSVG 175.5-->
<!DOCTYPE svg
PUBLIC "-//W3C//DTD SVG 1.1//EN"
       "http://www.w3.org/Graphics/SVG/1.1/DTD/svg11.dtd">
<svg version="1.1" xmlns="http://www.w3.org/2000/svg" xmlns:xlink="http://www.w3.org/1999/xlink" width="19.9219" height="19.9316">
 <g>
  <rect height="19.9316" opacity="0" width="19.9219" x="0" y="0"/>
  <path d="M9.96094 19.9219Q12.002 19.9219 13.8037 19.1406Q15.6055 18.3594 16.9824 16.9824Q18.3594 15.6055 19.1406 13.8037Q19.9219 12.002 19.9219 9.96094Q19.9219 7.91992 19.1406 6.11816Q18.3594 4.31641 16.9824 2.93945Q15.6055 1.5625 13.7988 0.78125Q11.9922 0 9.95117 0Q7.91016 0 6.1084 0.78125Q4.30664 1.5625 2.93457 2.93945Q1.5625 4.31641 0.78125 6.11816Q0 7.91992 0 9.96094Q0 12.002 0.78125 13.8037Q1.5625 15.6055 2.93945 16.9824Q4.31641 18.3594 6.11816 19.1406Q7.91992 19.9219 9.96094 19.9219Z" fill="rgba(255,255,255,0.25)"/>
  <path d="M8.08594 14.4531Q7.69531 14.4531 7.49023 14.1992Q7.28516 13.9453 7.28516 13.5449L7.28516 6.06445Q7.28516 5.66406 7.49023 5.40527Q7.69531 5.14648 8.08594 5.14648Q8.48633 5.14648 8.69141 5.39551Q8.89648 5.64453 8.89648 6.06445L8.89648 13.125L12.7148 13.125Q13.0176 13.125 13.208 13.3008Q13.3984 13.4766 13.3984 13.7891Q13.3984 14.1016 13.208 14.2773Q13.0176 14.4531 12.7148 14.4531Z" fill="#ffffff"/>
 </g>
</svg>
