<?xml version="1.0" encoding="UTF-8"?>
<!--Generator: Apple Native CoreSVG 175.5-->
<!DOCTYPE svg
PUBLIC "-//W3C//DTD SVG 1.1//EN"
       "http://www.w3.org/Graphics/SVG/1.1/DTD/svg11.dtd">
<svg version="1.1" xmlns="http://www.w3.org/2000/svg" xmlns:xlink="http://www.w3.org/1999/xlink" width="27.2901" height="24.7949">
 <g>
  <rect height="24.7949" opacity="0" width="27.2901" x="0" y="0"/>
  <path d="M14.8975 0Q12.8468 0 10.9962 0.620117Q9.14559 1.24023 7.59774 2.37793Q6.04989 3.51562 4.90731 5.05859Q3.76473 6.60156 3.1495 8.4375Q3.56942 8.37891 3.96981 8.48633Q4.3702 8.59375 4.6827 8.84766Q5.22958 7.25586 6.22567 5.92773Q7.22177 4.59961 8.56454 3.61816Q9.90731 2.63672 11.5138 2.10449Q13.1202 1.57227 14.8975 1.57227Q17.1339 1.57227 19.0968 2.41211Q21.0597 3.25195 22.5489 4.74121Q24.0382 6.23047 24.878 8.18848Q25.7179 10.1465 25.7179 12.3926Q25.7179 14.6289 24.878 16.5918Q24.0382 18.5547 22.5489 20.0439Q21.0597 21.5332 19.0968 22.373Q17.1339 23.2129 14.8975 23.2129Q13.13 23.2129 11.5235 22.6807Q9.91708 22.1484 8.5743 21.1719Q7.23153 20.1953 6.23544 18.8672Q5.23934 17.5391 4.6827 15.957Q4.37997 16.2109 3.97958 16.3184Q3.57919 16.4258 3.15927 16.3672Q3.78427 18.2031 4.92196 19.7412Q6.05966 21.2793 7.60751 22.4121Q9.15536 23.5449 11.0059 24.165Q12.8565 24.7852 14.8975 24.7852Q16.9483 24.7852 18.8087 24.1602Q20.669 23.5352 22.2169 22.3975Q23.7647 21.2598 24.9024 19.7119Q26.0401 18.1641 26.6651 16.3037Q27.2901 14.4434 27.2901 12.3926Q27.2901 10.3418 26.6651 8.48145Q26.0401 6.62109 24.9024 5.07324Q23.7647 3.52539 22.2169 2.3877Q20.669 1.25 18.8087 0.625Q16.9483 0 14.8975 0Z" fill="rgba(255,255,255,0.5)"/>
  <path d="M14.8975 20.9668Q16.6749 20.9668 18.2276 20.3027Q19.7804 19.6387 20.962 18.457Q22.1436 17.2754 22.8126 15.7227Q23.4815 14.1699 23.4815 12.3926Q23.4815 10.6152 22.8126 9.05762Q22.1436 7.5 20.962 6.32324Q19.7804 5.14648 18.2276 4.47754Q16.6749 3.80859 14.8975 3.80859Q13.1202 3.80859 11.5675 4.47754Q10.0147 5.14648 8.83309 6.32324Q7.65145 7.5 6.98251 9.05762Q6.31356 10.6152 6.31356 12.3926Q6.31356 14.1699 6.98251 15.7227Q7.65145 17.2754 8.83309 18.457Q10.0147 19.6387 11.5675 20.3027Q13.1202 20.9668 14.8975 20.9668ZM2.88583 9.93164L0.26864 11.8848Q-0.00479715 12.0801 8.56634e-05 12.3975Q0.00496848 12.7148 0.26864 12.9102L2.88583 14.8633Q3.27645 15.1562 3.67684 15.0146Q4.07723 14.873 4.07723 14.3555L4.07723 10.4395Q4.07723 9.94141 3.68173 9.78516Q3.28622 9.62891 2.88583 9.93164ZM13.1168 16.6606Q12.7457 16.6606 12.5509 16.4194Q12.3561 16.1782 12.3561 15.7978L12.3561 8.69127Q12.3561 8.3109 12.5509 8.06504Q12.7457 7.81919 13.1168 7.81919Q13.4972 7.81919 13.692 8.05577Q13.8868 8.29234 13.8868 8.69127L13.8868 15.3989L17.5143 15.3989Q17.8019 15.3989 17.9828 15.5659Q18.1637 15.7329 18.1637 16.0297Q18.1637 16.3266 17.9828 16.4936Q17.8019 16.6606 17.5143 16.6606Z" fill="#ffffff"/>
 </g>
</svg>
