<?xml version="1.0" encoding="UTF-8"?>
<!--Generator: Apple Native CoreSVG 175-->
<!DOCTYPE svg
PUBLIC "-//W3C//DTD SVG 1.1//EN"
       "http://www.w3.org/Graphics/SVG/1.1/DTD/svg11.dtd">
<svg version="1.1" xmlns="http://www.w3.org/2000/svg" xmlns:xlink="http://www.w3.org/1999/xlink" width="22.4805" height="27.5002">
 <g>
  <rect height="27.5002" opacity="0" width="22.4805" x="0" y="0"/>
  <path d="M11.2402 2.505Q9.375 2.505 7.69043 3.0714Q6.00586 3.63781 4.59961 4.66808Q3.19336 5.69836 2.16309 7.10461Q1.13281 8.51086 0.566406 10.1954Q0 11.88 0 13.7452Q0 15.6788 0.605469 17.4122Q1.21094 19.1456 2.31445 20.5763Q3.41797 22.0069 4.90723 23.0323Q6.39648 24.0577 8.16406 24.5558Q8.17383 24.3702 8.2373 24.1896Q8.30078 24.0089 8.42773 23.8722Q6.75781 23.4034 5.35156 22.4513Q3.94531 21.4991 2.91016 20.1612Q1.875 18.8234 1.30371 17.1925Q0.732422 15.5616 0.732422 13.7452Q0.732422 11.5675 1.54785 9.6632Q2.36328 7.7589 3.80371 6.31359Q5.24414 4.86828 7.15332 4.04797Q9.0625 3.22765 11.2402 3.22765Q13.418 3.22765 15.3223 4.04308Q17.2266 4.85851 18.6719 6.30382Q20.1172 7.74914 20.9375 9.65343Q21.7578 11.5577 21.7578 13.7452Q21.7578 15.5519 21.1816 17.1827Q20.6055 18.8136 19.5703 20.1564Q18.5352 21.4991 17.1338 22.4513Q15.7324 23.4034 14.0625 23.8722Q14.1797 24.0089 14.2432 24.1896Q14.3066 24.3702 14.3164 24.546Q16.084 24.048 17.5732 23.0275Q19.0625 22.0069 20.166 20.5763Q21.2695 19.1456 21.875 17.4073Q22.4805 15.6691 22.4805 13.7452Q22.4805 11.88 21.9141 10.1954Q21.3477 8.51086 20.3174 7.10461Q19.2871 5.69836 17.876 4.66808Q16.4648 3.63781 14.7852 3.0714Q13.1055 2.505 11.2402 2.505Z" fill="rgba(255,255,255,0.5)"/>
  <path d="M11.2402 5.47375Q9.52148 5.47375 8.02734 6.11828Q6.5332 6.76281 5.39551 7.89562Q4.25781 9.02843 3.61328 10.5275Q2.96875 12.0265 2.96875 13.7452Q2.96875 15.464 3.61328 16.9581Q4.25781 18.4523 5.39551 19.59Q6.5332 20.7277 8.02734 21.3722Q9.52148 22.0167 11.2402 22.0167Q12.9492 22.0167 14.4531 21.3722Q15.957 20.7277 17.0898 19.59Q18.2227 18.4523 18.8672 16.9581Q19.5117 15.464 19.5117 13.7452Q19.5117 12.0265 18.8672 10.5275Q18.2227 9.02843 17.0898 7.89562Q15.957 6.76281 14.4531 6.11828Q12.9492 5.47375 11.2402 5.47375ZM9.14062 25.0441L10.8398 27.2999Q10.9961 27.505 11.2451 27.5001Q11.4941 27.4952 11.6504 27.2999L13.3496 25.0441Q13.5449 24.7902 13.4473 24.5216Q13.3496 24.253 13.0371 24.253L9.45312 24.253Q9.14062 24.253 9.04297 24.5216Q8.94531 24.7902 9.14062 25.0441ZM9.32617 17.8859Q9.16016 17.8859 9.0625 17.7784Q8.96484 17.671 8.96484 17.505L8.96484 9.89757Q8.96484 9.73156 9.05762 9.62902Q9.15039 9.52648 9.32617 9.52648Q9.48242 9.52648 9.58008 9.62902Q9.67773 9.73156 9.67773 9.89757L9.67773 17.2413L13.75 17.2413Q13.8867 17.2413 13.9795 17.3292Q14.0723 17.4171 14.0723 17.5636Q14.0723 17.7101 13.9844 17.798Q13.8965 17.8859 13.75 17.8859Z" fill="#ffffff"/>
 </g>
</svg>
