<?xml version="1.0" encoding="UTF-8"?>
<!--Generator: Apple Native CoreSVG 175.5-->
<!DOCTYPE svg
PUBLIC "-//W3C//DTD SVG 1.1//EN"
       "http://www.w3.org/Graphics/SVG/1.1/DTD/svg11.dtd">
<svg version="1.1" xmlns="http://www.w3.org/2000/svg" xmlns:xlink="http://www.w3.org/1999/xlink" width="23.6133" height="17.998">
 <g>
  <rect height="17.998" opacity="0" width="23.6133" x="0" y="0"/>
  <path d="M8.39844 17.998L15.2246 17.998Q18.125 17.998 19.9854 17.1045Q21.8457 16.2109 22.7295 14.4043Q23.6133 12.5977 23.6133 9.85352L23.6133 3.04688Q23.6133 1.5332 22.8467 0.776367Q22.0801 0.0195312 20.5469 0.0195312L3.06641 0.0195312Q1.5332 0.0195312 0.766602 0.776367Q0 1.5332 0 3.04688L0 9.85352Q0 12.5977 0.888672 14.4043Q1.77734 16.2109 3.63281 17.1045Q5.48828 17.998 8.39844 17.998ZM8.39844 16.4062Q6.02539 16.4062 4.5166 15.7031Q3.00781 15 2.29004 13.5693Q1.57227 12.1387 1.57227 9.95117L1.57227 3.125Q1.57227 1.5918 3.08594 1.5918L20.5273 1.5918Q21.25 1.5918 21.6455 1.97754Q22.041 2.36328 22.041 3.125L22.041 9.95117Q22.041 12.1387 21.3232 13.5693Q20.6055 15 19.0967 15.7031Q17.5879 16.4062 15.2148 16.4062Z" fill="rgba(255,255,255,0.5)"/>
  <path d="M10 13.3789L14.4922 13.3789Q14.7754 13.3789 14.9609 13.208Q15.1465 13.0371 15.1465 12.7441Q15.1465 12.4414 14.9609 12.2705Q14.7754 12.0996 14.4922 12.0996L10.7812 12.0996L10.7812 5.24414Q10.7812 4.84375 10.5811 4.60449Q10.3809 4.36523 10 4.36523Q9.61914 4.36523 9.42383 4.60938Q9.22852 4.85352 9.22852 5.24414L9.22852 12.5098Q9.22852 12.9004 9.42383 13.1396Q9.61914 13.3789 10 13.3789Z" fill="#ffffff"/>
 </g>
</svg>
