<?xml version="1.0" encoding="UTF-8"?>
<!--Generator: Apple Native CoreSVG 175.5-->
<!DOCTYPE svg
PUBLIC "-//W3C//DTD SVG 1.1//EN"
       "http://www.w3.org/Graphics/SVG/1.1/DTD/svg11.dtd">
<svg version="1.1" xmlns="http://www.w3.org/2000/svg" xmlns:xlink="http://www.w3.org/1999/xlink" width="23.6133" height="17.998">
 <g>
  <rect height="17.998" opacity="0" width="23.6133" x="0" y="0"/>
  <path d="M8.39844 17.998L15.2246 17.998Q18.125 17.998 19.9854 17.1045Q21.8457 16.2109 22.7295 14.4043Q23.6133 12.5977 23.6133 9.85352L23.6133 3.04688Q23.6133 1.5332 22.8467 0.776367Q22.0801 0.0195312 20.5469 0.0195312L3.06641 0.0195312Q1.5332 0.0195312 0.766602 0.776367Q0 1.5332 0 3.04688L0 9.85352Q0 12.5977 0.888672 14.4043Q1.77734 16.2109 3.63281 17.1045Q5.48828 17.998 8.39844 17.998Z" fill="rgba(255,255,255,0.25)"/>
  <path d="M9.94141 13.5156Q9.55078 13.5156 9.3457 13.2617Q9.14062 13.0078 9.14062 12.6074L9.14062 5.12695Q9.14062 4.72656 9.3457 4.46777Q9.55078 4.20898 9.94141 4.20898Q10.3418 4.20898 10.5469 4.45801Q10.752 4.70703 10.752 5.12695L10.752 12.1875L14.5703 12.1875Q14.873 12.1875 15.0635 12.3633Q15.2539 12.5391 15.2539 12.8516Q15.2539 13.1641 15.0635 13.3398Q14.873 13.5156 14.5703 13.5156Z" fill="#ffffff"/>
 </g>
</svg>
