<?xml version="1.0" encoding="UTF-8"?>
<!--Generator: Apple Native CoreSVG 175.5-->
<!DOCTYPE svg
PUBLIC "-//W3C//DTD SVG 1.1//EN"
       "http://www.w3.org/Graphics/SVG/1.1/DTD/svg11.dtd">
<svg version="1.1" xmlns="http://www.w3.org/2000/svg" xmlns:xlink="http://www.w3.org/1999/xlink" width="18.8285" height="23.1152">
 <g>
  <rect height="23.1152" opacity="0" width="18.8285" x="0" y="0"/>
  <path d="M9.42415 5.57617Q10.3226 5.57617 11.1185 5.33203Q11.9144 5.08789 12.554 4.63867Q13.1937 4.18945 13.6136 3.56934Q14.0335 2.94922 14.18 2.19727Q14.2874 1.5918 14.0042 1.15723Q13.721 0.722656 13.1253 0.556641Q12.2562 0.332031 11.3236 0.219727Q10.3909 0.107422 9.42903 0.107422Q8.46712 0.107422 7.52962 0.219727Q6.59212 0.332031 5.73274 0.556641Q5.12727 0.722656 4.84895 1.15723Q4.57063 1.5918 4.67805 2.19727Q4.81477 2.94922 5.23958 3.56934Q5.66438 4.18945 6.29915 4.63867Q6.93391 5.08789 7.7347 5.33203Q8.53548 5.57617 9.42415 5.57617ZM9.42415 4.29688Q8.51595 4.29688 7.76887 3.99414Q7.0218 3.69141 6.53841 3.15918Q6.05501 2.62695 5.93782 1.94336Q5.91829 1.83594 6.06477 1.78711Q6.84602 1.58203 7.70052 1.47461Q8.55501 1.36719 9.42415 1.36719Q10.2933 1.36719 11.1478 1.47461Q12.0023 1.58203 12.7835 1.78711Q12.9398 1.8457 12.9202 1.94336Q12.8031 2.62695 12.3148 3.15918Q11.8265 3.69141 11.0794 3.99414Q10.3324 4.29688 9.42415 4.29688ZM8.6429 9.54102L10.2152 9.54102L10.2152 4.79492L8.6429 4.79492ZM9.41438 23.1152Q12.2464 23.1152 14.3704 22.583Q16.4945 22.0508 17.6663 21.0938Q18.8382 20.1367 18.8284 18.8672Q18.8284 17.9004 18.4232 16.8701Q18.0179 15.8398 17.2952 14.8584Q16.5726 13.877 15.6156 13.0566Q14.6585 12.2363 13.5648 11.6992Q13.3011 10.7715 12.681 10.0684Q12.0609 9.36523 11.2161 8.96973Q10.3714 8.57422 9.41438 8.57422Q8.45735 8.57422 7.61262 8.96973Q6.7679 9.36523 6.14778 10.0684Q5.52766 10.7715 5.26399 11.6992Q4.16048 12.2363 3.20833 13.0566Q2.25618 13.877 1.53352 14.8584Q0.810867 15.8398 0.405594 16.8701Q0.000320184 17.9004 0.000320184 18.8672Q-0.0192111 20.1367 1.15266 21.0938Q2.32454 22.0508 4.44856 22.583Q6.57259 23.1152 9.41438 23.1152ZM9.41438 21.748Q7.00227 21.748 5.19563 21.3916Q3.38899 21.0352 2.38313 20.3857Q1.37727 19.7363 1.36751 18.8672Q1.37727 18.0176 1.78743 17.1045Q2.19759 16.1914 2.91048 15.3271Q3.62337 14.4629 4.54622 13.7646Q5.46907 13.0664 6.4847 12.6562Q6.57259 11.875 6.98274 11.2646Q7.3929 10.6543 8.02766 10.3076Q8.66243 9.96094 9.41438 9.96094Q10.1663 9.96094 10.7962 10.3076Q11.4261 10.6543 11.8411 11.2646Q12.2562 11.875 12.3441 12.6562Q13.3499 13.0566 14.2679 13.75Q15.1859 14.4434 15.9036 15.3076Q16.6214 16.1719 17.0413 17.0947Q17.4613 18.0176 17.4613 18.8672Q17.4613 19.7363 16.4554 20.3857Q15.4495 21.0352 13.6429 21.3916Q11.8363 21.748 9.41438 21.748ZM9.41438 15.9766Q11.8363 15.9766 13.6429 16.333Q15.4495 16.6895 16.4554 17.3389Q17.4613 17.9883 17.4613 18.8672L18.8284 18.8672Q18.8382 17.5977 17.6663 16.6357Q16.4945 15.6738 14.3704 15.1416Q12.2464 14.6094 9.41438 14.6094Q6.57259 14.6094 4.44856 15.1416Q2.32454 15.6738 1.15266 16.6357Q-0.0192111 17.5977 0.000320184 18.8672L1.36751 18.8672Q1.37727 17.9883 2.38313 17.3389Q3.38899 16.6895 5.19563 16.333Q7.00227 15.9766 9.41438 15.9766ZM9.41438 19.5996Q10.2933 19.5996 11.0892 19.2725Q11.8851 18.9453 12.388 18.3936Q12.8909 17.8418 12.8909 17.1777Q12.1292 17.0605 11.2552 16.9922Q10.3812 16.9238 9.41438 16.9238Q8.44759 16.9238 7.57356 16.9922Q6.69954 17.0605 5.93782 17.1777Q5.93782 17.8418 6.43587 18.3936Q6.93391 18.9453 7.72981 19.2725Q8.52571 19.5996 9.41438 19.5996Z" fill="#ffffff"/>
 </g>
</svg>
