<?xml version="1.0" encoding="UTF-8"?>
<!--Generator: Apple Native CoreSVG 175-->
<!DOCTYPE svg
PUBLIC "-//W3C//DTD SVG 1.1//EN"
       "http://www.w3.org/Graphics/SVG/1.1/DTD/svg11.dtd">
<svg version="1.1" xmlns="http://www.w3.org/2000/svg" xmlns:xlink="http://www.w3.org/1999/xlink" width="21.5317" height="20.0482">
 <g>
  <rect height="20.0482" opacity="0" width="21.5317" x="0" y="0"/>
  <path d="M0.614929 9.54468L20.9167 9.54468L20.9167 8.85757L0.621948 8.85757ZM4.63135 10.9247L7.28516 10.9247Q7.72537 10.9247 7.96989 10.685Q8.21442 10.4454 8.21442 10.015L8.21442 8.39264Q8.21442 7.95944 7.96989 7.71629Q7.72537 7.47314 7.28516 7.47314L4.63135 7.47314Q4.19098 7.47314 3.94783 7.71629Q3.70468 7.95944 3.70468 8.39264L3.70468 10.015Q3.70468 10.4454 3.94783 10.685Q4.19098 10.9247 4.63135 10.9247ZM14.2227 10.9247L16.8765 10.9247Q17.3169 10.9247 17.5614 10.685Q17.8059 10.4454 17.8059 10.015L17.8059 8.39264Q17.8059 7.95944 17.5614 7.71629Q17.3169 7.47314 16.8765 7.47314L14.2227 7.47314Q13.7825 7.47314 13.538 7.71629Q13.2935 7.95944 13.2935 8.39264L13.2935 10.015Q13.2935 10.4454 13.538 10.685Q13.7825 10.9247 14.2227 10.9247ZM2.46918 18.1876L19.0625 18.1876Q20.295 18.1876 20.9133 17.5825Q21.5317 16.9774 21.5317 15.7364L21.5317 5.93216Q21.5317 4.69543 20.9133 4.09172Q20.295 3.48801 19.0625 3.48801L2.46918 3.48801Q1.23245 3.48801 0.616226 4.09172Q0 4.69543 0 5.93216L0 15.7364Q0 16.9774 0.616226 17.5825Q1.23245 18.1876 2.46918 18.1876ZM2.46765 17.4829Q1.56494 17.4829 1.14677 17.0591Q0.728607 16.6353 0.728607 15.7216L0.728607 5.95398Q0.728607 5.04028 1.14677 4.61647Q1.56494 4.19266 2.46765 4.19266L19.057 4.19266Q19.9597 4.19266 20.3814 4.61647Q20.8031 5.04028 20.8031 5.95398L20.8031 15.7216Q20.8031 16.6353 20.3814 17.0591Q19.9597 17.4829 19.057 17.4829ZM6.15784 3.92273L6.86996 3.92273L6.86996 1.95511Q6.86996 1.35635 7.23167 1.02547Q7.59338 0.69458 8.2399 0.69458L13.2848 0.69458Q13.9355 0.69458 14.2937 1.02547Q14.6519 1.35635 14.6519 1.95511L14.6519 3.91724L15.3711 3.91724L15.3711 1.97815Q15.3711 1.0231 14.8157 0.511551Q14.2603 0 13.2555 0L8.25943 0Q7.28363 0 6.72073 0.511551Q6.15784 1.0231 6.15784 1.97815Z" fill="#ffffff"/>
 </g>
</svg>
