<?xml version="1.0" encoding="UTF-8"?>
<!--Generator: Apple Native CoreSVG 175-->
<!DOCTYPE svg
PUBLIC "-//W3C//DTD SVG 1.1//EN"
       "http://www.w3.org/Graphics/SVG/1.1/DTD/svg11.dtd">
<svg version="1.1" xmlns="http://www.w3.org/2000/svg" xmlns:xlink="http://www.w3.org/1999/xlink" width="19.1602" height="19.1504">
 <g>
  <rect height="19.1504" opacity="0" width="19.1602" x="0" y="0"/>
  <path d="M9.57031 19.1406Q11.5527 19.1406 13.2861 18.3984Q15.0195 17.6562 16.3379 16.333Q17.6562 15.0098 18.4082 13.2764Q19.1602 11.543 19.1602 9.57031Q19.1602 7.59766 18.4082 5.86426Q17.6562 4.13086 16.3379 2.80762Q15.0195 1.48438 13.2861 0.742188Q11.5527 0 9.57031 0Q7.59766 0 5.86426 0.742188Q4.13086 1.48438 2.81738 2.80762Q1.50391 4.13086 0.751953 5.86426Q0 7.59766 0 9.57031Q0 11.543 0.74707 13.2764Q1.49414 15.0098 2.8125 16.333Q4.13086 17.6562 5.86914 18.3984Q7.60742 19.1406 9.57031 19.1406ZM9.57031 18.3984Q7.74414 18.3984 6.14746 17.71Q4.55078 17.0215 3.33496 15.8105Q2.11914 14.5996 1.43555 12.998Q0.751953 11.3965 0.751953 9.57031Q0.751953 7.74414 1.43555 6.14258Q2.11914 4.54102 3.33496 3.3252Q4.55078 2.10938 6.14746 1.4209Q7.74414 0.732422 9.57031 0.732422Q11.4062 0.732422 13.0029 1.4209Q14.5996 2.10938 15.8154 3.3252Q17.0312 4.54102 17.7197 6.14258Q18.4082 7.74414 18.4082 9.57031Q18.4082 11.3965 17.7246 12.998Q17.041 14.5996 15.8252 15.8105Q14.6094 17.0215 13.0078 17.71Q11.4062 18.3984 9.57031 18.3984Z" fill="rgba(255,255,255,0.5)"/>
  <path d="M4.92188 5.625Q4.88281 6.01562 4.84375 6.42578Q4.80469 6.83594 4.80469 7.10938Q4.80469 8.80859 5.41504 10.083Q6.02539 11.3574 7.12891 12.0654Q8.23242 12.7734 9.70703 12.7734Q10.4395 12.7734 11.0449 12.5488Q11.6504 12.3242 12.0752 11.9482Q12.5 11.5723 12.6758 11.1133L12.3535 11.25Q12.627 11.5527 12.7979 11.8555Q12.9688 12.1582 13.1055 12.5391Q13.2422 12.9199 13.4082 13.4766Q13.457 13.6328 13.5596 13.6963Q13.6621 13.7598 13.7695 13.7598Q14.0137 13.7598 14.1699 13.5693Q14.3262 13.3789 14.3262 13.0859Q14.3262 12.7539 14.1016 12.3193Q13.877 11.8848 13.584 11.4893Q13.291 11.0938 13.0664 10.8789Q12.5 10.332 11.8506 10.0781Q11.2012 9.82422 10.542 9.70215Q9.88281 9.58008 9.27734 9.45801Q8.67188 9.33594 8.17871 9.0625Q7.68555 8.78906 7.38281 8.22266Q7.32422 8.11523 7.42188 8.04688Q7.51953 7.97852 7.61719 8.08594Q8.08594 8.51562 8.57422 8.69629Q9.0625 8.87695 9.59473 8.94043Q10.127 9.00391 10.6885 9.08691Q11.25 9.16992 11.8457 9.40918Q12.4414 9.64844 13.0664 10.1855Q13.1348 10.2539 13.2178 10.2295Q13.3008 10.2051 13.3203 10.1172Q13.3301 9.99023 13.3447 9.83398Q13.3594 9.67773 13.3594 9.50195Q13.3594 7.88086 12.3535 7.11426Q11.3477 6.34766 9.70703 6.34766Q9.19922 6.34766 8.66699 6.40137Q8.13477 6.45508 7.64648 6.45508Q6.94336 6.45508 6.31836 6.2793Q5.69336 6.10352 5.27344 5.55664Q5.17578 5.44922 5.05859 5.47363Q4.94141 5.49805 4.92188 5.625Z" fill="#ffffff"/>
 </g>
</svg>
