<?xml version="1.0" encoding="UTF-8"?>
<!--Generator: Apple Native CoreSVG 175.5-->
<!DOCTYPE svg
PUBLIC "-//W3C//DTD SVG 1.1//EN"
       "http://www.w3.org/Graphics/SVG/1.1/DTD/svg11.dtd">
<svg version="1.1" xmlns="http://www.w3.org/2000/svg" xmlns:xlink="http://www.w3.org/1999/xlink" width="31.8652" height="23.2324">
 <g>
  <rect height="23.2324" opacity="0" width="31.8652" x="0" y="0"/>
  <path d="M7.51953 13.4863Q9.12109 13.4863 10.4834 13.1396Q11.8457 12.793 12.8662 12.1582Q13.8867 11.5234 14.4531 10.6738Q15.0195 9.82422 15.0195 8.82812Q15.0195 7.82227 14.4531 6.97266Q13.8867 6.12305 12.8662 5.48828Q11.8457 4.85352 10.4834 4.50195Q9.12109 4.15039 7.51953 4.15039Q5.91797 4.15039 4.5459 4.50195Q3.17383 4.85352 2.15332 5.4834Q1.13281 6.11328 0.566406 6.96777Q0 7.82227 0 8.82812Q0 9.83398 0.566406 10.6836Q1.13281 11.5332 2.15332 12.1631Q3.17383 12.793 4.5459 13.1396Q5.91797 13.4863 7.51953 13.4863ZM7.50977 11.5723Q6.15234 11.5723 5.08789 11.2305Q4.02344 10.8887 3.41309 10.293Q2.80273 9.69727 2.80273 8.94531Q2.80273 8.17383 3.41309 7.57324Q4.02344 6.97266 5.08789 6.63086Q6.15234 6.28906 7.50977 6.28906Q8.87695 6.28906 9.94141 6.63086Q11.0059 6.97266 11.6211 7.57324Q12.2363 8.17383 12.2363 8.94531Q12.2363 9.69727 11.6211 10.293Q11.0059 10.8887 9.94141 11.2305Q8.87695 11.5723 7.50977 11.5723ZM7.50977 9.39453Q8.56445 9.39453 9.46289 8.99902Q10.3613 8.60352 10.8301 7.95898Q10.3027 7.57812 9.41895 7.34375Q8.53516 7.10938 7.50977 7.10938Q6.48438 7.10938 5.59082 7.34863Q4.69727 7.58789 4.17969 7.98828Q4.6582 8.61328 5.56152 9.00391Q6.46484 9.39453 7.50977 9.39453ZM24.3652 13.4863Q25.957 13.4863 27.3242 13.1396Q28.6914 12.793 29.707 12.1582Q30.7227 11.5234 31.2939 10.6738Q31.8652 9.82422 31.8652 8.82812Q31.8652 7.82227 31.2939 6.97266Q30.7227 6.12305 29.707 5.48828Q28.6914 4.85352 27.3242 4.50195Q25.957 4.15039 24.3652 4.15039Q22.7539 4.15039 21.3867 4.50195Q20.0195 4.85352 18.999 5.4834Q17.9785 6.11328 17.4121 6.96777Q16.8457 7.82227 16.8457 8.82812Q16.8457 9.83398 17.4121 10.6836Q17.9785 11.5332 18.999 12.1631Q20.0195 12.793 21.3867 13.1396Q22.7539 13.4863 24.3652 13.4863ZM24.3457 11.5723Q22.9883 11.5723 21.9238 11.2305Q20.8594 10.8887 20.249 10.293Q19.6387 9.69727 19.6387 8.94531Q19.6387 8.17383 20.249 7.57324Q20.8594 6.97266 21.9238 6.63086Q22.9883 6.28906 24.3457 6.28906Q25.7129 6.28906 26.7773 6.63086Q27.8418 6.97266 28.4521 7.57324Q29.0625 8.17383 29.0625 8.94531Q29.0625 9.69727 28.4521 10.293Q27.8418 10.8887 26.7773 11.2305Q25.7129 11.5723 24.3457 11.5723ZM24.3555 9.39453Q25.4004 9.39453 26.2988 8.99902Q27.1973 8.60352 27.6758 7.95898Q27.1484 7.57812 26.2598 7.34375Q25.3711 7.10938 24.3555 7.10938Q23.3105 7.10938 22.4268 7.34863Q21.543 7.58789 21.0254 7.98828Q21.4941 8.61328 22.3975 9.00391Q23.3008 9.39453 24.3555 9.39453ZM15.9277 23.2324Q17.5293 23.2324 18.8965 22.8809Q20.2637 22.5293 21.2793 21.8994Q22.2949 21.2695 22.8613 20.4199Q23.4277 19.5703 23.4277 18.5645Q23.4277 17.5586 22.8613 16.709Q22.2949 15.8594 21.2793 15.2246Q20.2637 14.5898 18.8965 14.2432Q17.5293 13.8965 15.9277 13.8965Q14.3262 13.8965 12.9541 14.2432Q11.582 14.5898 10.5615 15.2197Q9.54102 15.8496 8.97461 16.7041Q8.4082 17.5586 8.4082 18.5645Q8.4082 19.5703 8.97461 20.4199Q9.54102 21.2695 10.5615 21.8994Q11.582 22.5293 12.9541 22.8809Q14.3262 23.2324 15.9277 23.2324ZM15.918 21.3184Q14.5605 21.3184 13.4961 20.9717Q12.4316 20.625 11.8213 20.0293Q11.2109 19.4336 11.2109 18.6719Q11.2109 17.9199 11.8213 17.3193Q12.4316 16.7188 13.4961 16.3721Q14.5605 16.0254 15.918 16.0254Q17.2852 16.0254 18.3496 16.3721Q19.4141 16.7188 20.0293 17.3193Q20.6445 17.9199 20.6445 18.6719Q20.6445 19.4336 20.0293 20.0293Q19.4141 20.625 18.3496 20.9717Q17.2852 21.3184 15.918 21.3184ZM15.918 19.1211Q16.9727 19.1211 17.8711 18.7354Q18.7695 18.3496 19.2383 17.7051Q18.7207 17.3145 17.8271 17.085Q16.9336 16.8555 15.918 16.8555Q14.8926 16.8555 13.999 17.0898Q13.1055 17.3242 12.5879 17.7344Q13.0664 18.3594 13.9697 18.7402Q14.873 19.1211 15.918 19.1211Z" fill="#ffffff"/>
 </g>
</svg>
