<?xml version="1.0" encoding="UTF-8"?>
<!--Generator: Apple Native CoreSVG 175.5-->
<!DOCTYPE svg
PUBLIC "-//W3C//DTD SVG 1.1//EN"
       "http://www.w3.org/Graphics/SVG/1.1/DTD/svg11.dtd">
<svg version="1.1" xmlns="http://www.w3.org/2000/svg" xmlns:xlink="http://www.w3.org/1999/xlink" width="14.3164" height="21.6113">
 <g>
  <rect height="21.6113" opacity="0" width="14.3164" x="0" y="0"/>
  <path d="M3.02734 0Q1.51367 0 0.756836 0.771484Q0 1.54297 0 3.06641L0 18.5449Q0 20.0781 0.756836 20.8398Q1.51367 21.6016 3.02734 21.6016L11.2891 21.6016Q12.8027 21.6016 13.5596 20.8398Q14.3164 20.0781 14.3164 18.5449L14.3164 3.06641Q14.3164 1.54297 13.5596 0.771484Q12.8027 0 11.2891 0Z" fill="rgba(255,255,255,0.25)"/>
  <path d="M3.45703 12.3535L10.8105 12.3535Q11.3086 12.3535 11.5234 12.5635Q11.7383 12.7734 11.7383 13.2617L11.7383 18.0859Q11.7383 18.5742 11.5234 18.7842Q11.3086 18.9941 10.8105 18.9941L3.45703 18.9941Q2.95898 18.9941 2.74902 18.7842Q2.53906 18.5742 2.53906 18.0859L2.53906 13.2617Q2.53906 12.7734 2.74902 12.5635Q2.95898 12.3535 3.45703 12.3535Z" fill="#ffffff"/>
 </g>
</svg>
