<?xml version="1.0" encoding="UTF-8"?>
<!--Generator: Apple Native CoreSVG 175.5-->
<!DOCTYPE svg
PUBLIC "-//W3C//DTD SVG 1.1//EN"
       "http://www.w3.org/Graphics/SVG/1.1/DTD/svg11.dtd">
<svg version="1.1" xmlns="http://www.w3.org/2000/svg" xmlns:xlink="http://www.w3.org/1999/xlink" width="24.541" height="13.5449">
 <g>
  <rect height="13.5449" opacity="0" width="24.541" x="0" y="0"/>
  <path d="M0.859375 13.1445L3.98438 13.1445Q4.3457 13.1445 4.60449 12.8857Q4.86328 12.627 4.86328 12.2754Q4.86328 11.9336 4.59961 11.6748Q4.33594 11.416 3.98438 11.416L0.859375 11.416Q0.517578 11.416 0.258789 11.6748Q0 11.9336 0 12.2754Q0 12.6172 0.258789 12.8809Q0.517578 13.1445 0.859375 13.1445ZM6.93359 6.95312Q7.17773 6.70898 7.17773 6.35254Q7.17773 5.99609 6.92383 5.74219L4.73633 3.51562Q4.49219 3.28125 4.12598 3.27637Q3.75977 3.27148 3.51562 3.51562Q3.26172 3.75977 3.26172 4.12109Q3.26172 4.48242 3.51562 4.73633L5.71289 6.96289Q5.94727 7.20703 6.31348 7.20703Q6.67969 7.20703 6.93359 6.95312ZM12.2754 4.84375Q12.627 4.84375 12.8809 4.58984Q13.1348 4.33594 13.1348 3.99414L13.1348 0.869141Q13.1348 0.517578 12.8809 0.258789Q12.627 0 12.2754 0Q11.9238 0 11.665 0.258789Q11.4062 0.517578 11.4062 0.869141L11.4062 3.99414Q11.4062 4.33594 11.665 4.58984Q11.9238 4.84375 12.2754 4.84375ZM17.6172 6.95312Q17.8613 7.20703 18.2227 7.20703Q18.584 7.20703 18.8281 6.95312L21.0352 4.73633Q21.2793 4.48242 21.2793 4.12598Q21.2793 3.76953 21.0352 3.51562Q20.7812 3.27148 20.4199 3.27637Q20.0586 3.28125 19.8145 3.52539L17.6172 5.74219Q17.3633 5.99609 17.3633 6.35254Q17.3633 6.70898 17.6172 6.95312ZM20.5566 13.1445L23.6914 13.1445Q24.0332 13.1445 24.2871 12.8809Q24.541 12.6172 24.541 12.2754Q24.541 11.9336 24.2871 11.6748Q24.0332 11.416 23.6914 11.416L20.5566 11.416Q20.2051 11.416 19.9463 11.6748Q19.6875 11.9336 19.6875 12.2754Q19.6875 12.627 19.9463 12.8857Q20.2051 13.1445 20.5566 13.1445Z" fill="rgba(255,255,255,0.5)"/>
  <path d="M8.55469 13.1543L15.9961 13.1543Q16.3477 13.1543 16.6113 12.8955Q16.875 12.6367 16.875 12.2949Q16.875 11.9434 16.6162 11.6846Q16.3574 11.4258 15.9961 11.4258L8.55469 11.4258Q8.18359 11.4258 7.9248 11.6846Q7.66602 11.9434 7.66602 12.2949Q7.66602 12.6367 7.92969 12.8955Q8.19336 13.1543 8.55469 13.1543Z" fill="#ffffff"/>
 </g>
</svg>
