<?xml version="1.0" encoding="UTF-8"?>
<!--Generator: Apple Native CoreSVG 175.5-->
<!DOCTYPE svg
PUBLIC "-//W3C//DTD SVG 1.1//EN"
       "http://www.w3.org/Graphics/SVG/1.1/DTD/svg11.dtd">
<svg version="1.1" xmlns="http://www.w3.org/2000/svg" xmlns:xlink="http://www.w3.org/1999/xlink" width="19.9316" height="21.4551">
 <g>
  <rect height="21.4551" opacity="0" width="19.9316" x="0" y="0"/>
  <path d="M2.89062 15.9863L7.82227 15.9863Q8.08594 15.9863 8.22754 15.835Q8.36914 15.6836 8.38867 15.4492Q8.50586 14.2383 8.71094 13.3252Q8.91602 12.4121 9.16016 11.7041Q9.4043 10.9961 9.64844 10.4004L8.7793 8.70117Q8.60352 9.13086 8.39844 9.63867Q8.19336 10.1465 7.96875 10.8252Q7.74414 11.5039 7.5293 12.4268Q7.31445 13.3496 7.13867 14.6191L3.56445 14.6191Q3.34961 12.959 3.06152 11.8457Q2.77344 10.7324 2.48047 9.98535Q2.1875 9.23828 1.93359 8.68652Q1.67969 8.13477 1.52832 7.6123Q1.37695 7.08984 1.37695 6.41602Q1.37695 5.37109 1.91895 4.56055Q2.46094 3.75 3.36426 3.28613Q4.26758 2.82227 5.35156 2.82227Q5.95703 2.82227 6.51855 2.97852Q7.08008 3.13477 7.55371 3.41797Q8.02734 3.70117 8.37891 4.10156L9.01367 2.7832Q8.54492 2.36328 7.96387 2.06543Q7.38281 1.76758 6.72363 1.60645Q6.06445 1.44531 5.35156 1.44531Q4.23828 1.44531 3.2666 1.82617Q2.29492 2.20703 1.55762 2.88574Q0.820312 3.56445 0.410156 4.46777Q0 5.37109 0 6.41602Q0 7.33398 0.19043 8.04688Q0.380859 8.75977 0.673828 9.43359Q0.966797 10.1074 1.28906 10.9082Q1.61133 11.709 1.88965 12.7979Q2.16797 13.8867 2.32422 15.4492Q2.34375 15.6836 2.48047 15.835Q2.61719 15.9863 2.89062 15.9863ZM2.86133 17.8418L7.85156 17.8418Q8.08594 17.8418 8.25195 17.6855Q8.41797 17.5293 8.41797 17.2949Q8.41797 17.0508 8.25195 16.8945Q8.08594 16.7383 7.85156 16.7383L2.86133 16.7383Q2.62695 16.7383 2.4707 16.8994Q2.31445 17.0605 2.31445 17.2949Q2.31445 17.5195 2.4707 17.6807Q2.62695 17.8418 2.86133 17.8418ZM5.36133 20.2832Q6.32812 20.2832 7.0459 19.8145Q7.76367 19.3457 7.7832 18.5938L2.94922 18.5938Q2.96875 19.3457 3.67676 19.8145Q4.38477 20.2832 5.36133 20.2832Z" fill="rgba(255,255,255,0.5)"/>
  <path d="M13.75 0Q12.4609 0 11.3428 0.439453Q10.2246 0.878906 9.37988 1.65527Q8.53516 2.43164 8.06152 3.4668Q7.58789 4.50195 7.58789 5.70312Q7.58789 6.76758 7.80762 7.58301Q8.02734 8.39844 8.36914 9.17969Q8.71094 9.96094 9.08691 10.8936Q9.46289 11.8262 9.79004 13.1055Q10.1172 14.3848 10.293 16.2207Q10.3125 16.4746 10.4541 16.626Q10.5957 16.7773 10.8691 16.7773L16.6406 16.7773Q16.9043 16.7773 17.0459 16.626Q17.1875 16.4746 17.2168 16.2207Q17.3926 14.3848 17.7197 13.1055Q18.0469 11.8262 18.4229 10.8936Q18.7988 9.96094 19.1406 9.17969Q19.4824 8.39844 19.707 7.58301Q19.9316 6.76758 19.9316 5.70312Q19.9316 4.50195 19.4531 3.4668Q18.9746 2.43164 18.1348 1.65527Q17.2949 0.878906 16.1719 0.439453Q15.0488 0 13.75 0ZM13.75 1.43555Q14.7168 1.43555 15.5713 1.75293Q16.4258 2.07031 17.085 2.6416Q17.7441 3.21289 18.1201 3.99414Q18.4961 4.77539 18.4961 5.70312Q18.4961 6.48438 18.3105 7.10449Q18.125 7.72461 17.8271 8.38379Q17.5293 9.04297 17.1826 9.92676Q16.8359 10.8105 16.499 12.1143Q16.1621 13.418 15.9082 15.3418L11.6016 15.3418Q11.3477 13.418 11.0107 12.1143Q10.6738 10.8105 10.3271 9.92676Q9.98047 9.04297 9.6875 8.38379Q9.39453 7.72461 9.20898 7.10449Q9.02344 6.48438 9.02344 5.70312Q9.02344 4.77539 9.39941 3.99414Q9.77539 3.21289 10.4297 2.6416Q11.084 2.07031 11.9385 1.75293Q12.793 1.43555 13.75 1.43555ZM10.8496 18.7695L16.6699 18.7695Q16.9043 18.7695 17.0703 18.6133Q17.2363 18.457 17.2363 18.2129Q17.2363 17.9785 17.0703 17.8174Q16.9043 17.6562 16.6699 17.6562L10.8496 17.6562Q10.6055 17.6562 10.4492 17.8174Q10.293 17.9785 10.293 18.2129Q10.293 18.457 10.4492 18.6133Q10.6055 18.7695 10.8496 18.7695ZM13.7598 21.4453Q14.834 21.4453 15.6299 20.9473Q16.4258 20.4492 16.4844 19.6484L11.0352 19.6484Q11.084 20.4492 11.8799 20.9473Q12.6758 21.4453 13.7598 21.4453Z" fill="#ffffff"/>
 </g>
</svg>
