<?xml version="1.0" encoding="UTF-8"?>
<!--Generator: Apple Native CoreSVG 175.5-->
<!DOCTYPE svg
PUBLIC "-//W3C//DTD SVG 1.1//EN"
       "http://www.w3.org/Graphics/SVG/1.1/DTD/svg11.dtd">
<svg version="1.1" xmlns="http://www.w3.org/2000/svg" xmlns:xlink="http://www.w3.org/1999/xlink" width="19.9219" height="19.9316">
 <g>
  <rect height="19.9316" opacity="0" width="19.9219" x="0" y="0"/>
  <path d="M5.91797 9.58008Q6.80664 9.58008 7.6123 9.82422Q8.41797 10.0684 9.4043 10.6641Q10.498 11.3281 11.5332 11.665Q12.5684 12.002 13.75 12.002Q15.332 12.002 16.7285 11.3379Q18.125 10.6738 19.248 9.4043L18.9355 7.11914Q17.959 8.75 16.6357 9.58984Q15.3125 10.4297 13.75 10.4297Q12.7832 10.4297 11.958 10.1611Q11.1328 9.89258 10.2051 9.32617Q9.11133 8.67188 8.09082 8.33984Q7.07031 8.00781 5.91797 8.00781Q4.46289 8.00781 3.17383 8.58398Q1.88477 9.16016 0.820312 10.2539L1.11328 12.3242Q3.04688 9.58008 5.91797 9.58008ZM8.19336 6.37695Q8.64258 7.1582 8.82324 7.96875Q9.00391 8.7793 8.99414 9.94141Q8.97461 11.2305 9.2041 12.2852Q9.43359 13.3398 10.0098 14.3555Q10.7617 15.6543 11.9238 16.5039Q13.0859 17.3535 14.5898 17.7344L16.2012 16.416Q14.541 16.2598 13.3154 15.542Q12.0898 14.8242 11.377 13.584Q10.8984 12.7441 10.7227 11.9043Q10.5469 11.0645 10.5664 9.96094Q10.5762 8.67188 10.3516 7.63672Q10.127 6.60156 9.56055 5.60547Q8.7793 4.24805 7.54395 3.39355Q6.30859 2.53906 4.70703 2.20703L3.39844 3.58398Q5.05859 3.73047 6.26953 4.43848Q7.48047 5.14648 8.19336 6.37695ZM12.1094 6.75781Q11.6602 7.51953 11.0498 8.08105Q10.4395 8.64258 9.41406 9.21875Q8.29102 9.85352 7.49023 10.5762Q6.68945 11.2988 6.09375 12.3145Q5.3418 13.6133 5.19531 15.0684Q5.04883 16.5234 5.49805 18.0371L7.39258 18.6523Q6.70898 17.1484 6.72363 15.7373Q6.73828 14.3262 7.46094 13.0957Q7.93945 12.2754 8.58398 11.7041Q9.22852 11.1328 10.1953 10.5859Q11.3184 9.95117 12.1045 9.24316Q12.8906 8.53516 13.4668 7.5293Q14.248 6.19141 14.3701 4.68262Q14.4922 3.17383 13.9746 1.61133L12.0898 1.11328Q13.5742 4.23828 12.1094 6.75781ZM9.96094 19.9219Q12.002 19.9219 13.8037 19.1406Q15.6055 18.3594 16.9824 16.9824Q18.3594 15.6055 19.1406 13.8037Q19.9219 12.002 19.9219 9.96094Q19.9219 7.91992 19.1406 6.11816Q18.3594 4.31641 16.9824 2.93945Q15.6055 1.5625 13.7988 0.78125Q11.9922 0 9.95117 0Q7.91016 0 6.1084 0.78125Q4.30664 1.5625 2.93457 2.93945Q1.5625 4.31641 0.78125 6.11816Q0 7.91992 0 9.96094Q0 12.002 0.78125 13.8037Q1.5625 15.6055 2.93945 16.9824Q4.31641 18.3594 6.11816 19.1406Q7.91992 19.9219 9.96094 19.9219ZM9.96094 18.2617Q8.23242 18.2617 6.72852 17.6172Q5.22461 16.9727 4.08691 15.835Q2.94922 14.6973 2.30957 13.1934Q1.66992 11.6895 1.66992 9.96094Q1.66992 8.23242 2.30957 6.72852Q2.94922 5.22461 4.08203 4.08203Q5.21484 2.93945 6.71875 2.2998Q8.22266 1.66016 9.95117 1.66016Q11.6797 1.66016 13.1885 2.2998Q14.6973 2.93945 15.835 4.08203Q16.9727 5.22461 17.6172 6.72852Q18.2617 8.23242 18.2617 9.96094Q18.2617 11.6895 17.6221 13.1934Q16.9824 14.6973 15.8398 15.835Q14.6973 16.9727 13.1934 17.6172Q11.6895 18.2617 9.96094 18.2617Z" fill="#ffffff"/>
 </g>
</svg>
