<?xml version="1.0" encoding="UTF-8"?>
<!--Generator: Apple Native CoreSVG 175-->
<!DOCTYPE svg
PUBLIC "-//W3C//DTD SVG 1.1//EN"
       "http://www.w3.org/Graphics/SVG/1.1/DTD/svg11.dtd">
<svg version="1.1" xmlns="http://www.w3.org/2000/svg" xmlns:xlink="http://www.w3.org/1999/xlink" width="19.1602" height="19.1504">
 <g>
  <rect height="19.1504" opacity="0" width="19.1602" x="0" y="0"/>
  <path d="M9.57031 19.1406Q11.5527 19.1406 13.2861 18.3984Q15.0195 17.6562 16.3379 16.333Q17.6562 15.0098 18.4082 13.2764Q19.1602 11.543 19.1602 9.57031Q19.1602 7.59766 18.4082 5.86426Q17.6562 4.13086 16.3379 2.80762Q15.0195 1.48438 13.2861 0.742188Q11.5527 0 9.57031 0Q7.59766 0 5.86426 0.742188Q4.13086 1.48438 2.81738 2.80762Q1.50391 4.13086 0.751953 5.86426Q0 7.59766 0 9.57031Q0 11.543 0.74707 13.2764Q1.49414 15.0098 2.8125 16.333Q4.13086 17.6562 5.86914 18.3984Q7.60742 19.1406 9.57031 19.1406Z" fill="rgba(255,255,255,0.25)"/>
  <path d="M4.11133 6.66016Q3.95508 6.66016 3.84766 6.56738Q3.74023 6.47461 3.74023 6.31836Q3.74023 6.16211 3.84766 6.06445Q3.95508 5.9668 4.11133 5.9668L15.0586 5.9668Q15.2246 5.9668 15.3271 6.06445Q15.4297 6.16211 15.4297 6.31836Q15.4297 6.47461 15.3271 6.56738Q15.2246 6.66016 15.0586 6.66016ZM4.11133 9.90234Q3.95508 9.90234 3.84766 9.80469Q3.74023 9.70703 3.74023 9.55078Q3.74023 9.39453 3.84766 9.29688Q3.95508 9.19922 4.11133 9.19922L15.0586 9.19922Q15.2246 9.19922 15.3271 9.29688Q15.4297 9.39453 15.4297 9.55078Q15.4297 9.70703 15.3271 9.80469Q15.2246 9.90234 15.0586 9.90234ZM4.11133 13.1641Q3.95508 13.1641 3.84766 13.0664Q3.74023 12.9688 3.74023 12.8125Q3.74023 12.6562 3.84766 12.5635Q3.95508 12.4707 4.11133 12.4707L15.0586 12.4707Q15.2246 12.4707 15.3271 12.5635Q15.4297 12.6562 15.4297 12.8125Q15.4297 12.9688 15.3271 13.0664Q15.2246 13.1641 15.0586 13.1641Z" fill="#ffffff"/>
 </g>
</svg>
