<?xml version="1.0" encoding="UTF-8"?>
<!--Generator: Apple Native CoreSVG 175.5-->
<!DOCTYPE svg
PUBLIC "-//W3C//DTD SVG 1.1//EN"
       "http://www.w3.org/Graphics/SVG/1.1/DTD/svg11.dtd">
<svg version="1.1" xmlns="http://www.w3.org/2000/svg" xmlns:xlink="http://www.w3.org/1999/xlink" width="20.7105" height="20.9253">
 <g>
  <rect height="20.9253" opacity="0" width="20.7105" x="0" y="0"/>
  <path d="M10.4773 6.35621L9.17847 7.67457Q10.1453 7.75269 10.8045 8.0359Q11.4636 8.3191 11.9421 8.79762Q12.7918 9.65699 13.075 10.6873Q13.3582 11.7175 13.0798 12.7429Q12.8015 13.7683 11.9519 14.6179L8.75855 17.8015Q7.90894 18.6511 6.88355 18.9343Q5.85816 19.2175 4.82789 18.9392Q3.79762 18.6609 2.94801 17.8113Q2.0984 16.9519 1.81519 15.9216Q1.53199 14.8914 1.81519 13.866Q2.0984 12.8406 2.94801 11.991L4.86207 10.0769Q4.65699 9.61793 4.60328 9.09547Q4.54957 8.57301 4.62769 8.09449L1.7566 10.9558Q0.59449 12.1277 0.198982 13.5437Q-0.196526 14.9597 0.194099 16.3806Q0.584724 17.8015 1.76637 18.9832Q2.95777 20.1746 4.37867 20.5652Q5.79957 20.9558 7.21558 20.5603Q8.6316 20.1648 9.79371 19.0027L13.1336 15.6531Q14.3054 14.4812 14.7009 13.0652Q15.0964 11.6492 14.7058 10.2283Q14.3152 8.80738 13.1238 7.62574Q12.6648 7.15699 12.0398 6.83961Q11.4148 6.52222 10.4773 6.35621ZM10.2332 14.4031L11.532 13.0847Q10.5652 13.0066 9.90601 12.7234Q9.24683 12.4402 8.76832 11.9617Q7.90894 11.1023 7.62574 10.072Q7.34254 9.04176 7.62574 8.01637Q7.90894 6.99097 8.75855 6.14137L11.9421 2.95777Q12.8015 2.10816 13.8269 1.82496Q14.8523 1.54176 15.8777 1.82008Q16.9031 2.0984 17.7625 2.95777Q18.6121 3.80738 18.8953 4.83765Q19.1785 5.86793 18.8953 6.89332Q18.6121 7.91871 17.7625 8.76832L15.8484 10.6824Q16.0535 11.1511 16.1072 11.6687Q16.1609 12.1863 16.0828 12.6648L18.9539 9.80347Q20.116 8.6316 20.5115 7.21558Q20.907 5.79957 20.5164 4.37867Q20.1257 2.95777 18.9441 1.77613Q17.7527 0.584724 16.3318 0.194099Q14.9109-0.196526 13.4949 0.198982Q12.0789 0.59449 10.907 1.76637L7.57691 5.10621Q6.40504 6.27808 6.00953 7.6941Q5.61402 9.11012 6.00465 10.531Q6.39527 11.9519 7.58668 13.1336Q8.04566 13.6023 8.67066 13.9197Q9.29566 14.2371 10.2332 14.4031Z" fill="#ffffff"/>
 </g>
</svg>
