<?xml version="1.0" encoding="UTF-8"?>
<!--Generator: Apple Native CoreSVG 175-->
<!DOCTYPE svg
PUBLIC "-//W3C//DTD SVG 1.1//EN"
       "http://www.w3.org/Graphics/SVG/1.1/DTD/svg11.dtd">
<svg version="1.1" xmlns="http://www.w3.org/2000/svg" xmlns:xlink="http://www.w3.org/1999/xlink" width="23.2031" height="16.8262">
 <g>
  <rect height="16.8262" opacity="0" width="23.2031" x="0" y="0"/>
  <path d="M18.3789 15.7422Q19.4043 15.7422 20.2783 15.415Q21.1523 15.0879 21.8066 14.5068Q22.4609 13.9258 22.832 13.1445Q23.2031 12.3633 23.2031 11.4551Q23.2031 10.498 22.8613 9.65332Q22.5195 8.80859 21.8604 8.16895Q21.2012 7.5293 20.2148 7.2168Q20.2734 5.66406 19.7949 4.3457Q19.3164 3.02734 18.4229 2.05078Q17.5293 1.07422 16.3232 0.537109Q15.1172 0 13.7109 0Q12.373 0 11.333 0.449219Q10.293 0.898438 9.53125 1.64551Q8.76953 2.39258 8.28125 3.29102Q7.44141 2.93945 6.5918 3.06641Q5.74219 3.19336 5.03418 3.70605Q4.32617 4.21875 3.90137 5.00977Q3.47656 5.80078 3.49609 6.78711Q2.45117 6.86523 1.66504 7.42676Q0.878906 7.98828 0.439453 8.90137Q0 9.81445 0 10.957Q0 11.9531 0.400391 12.8223Q0.800781 13.6914 1.52344 14.3457Q2.24609 15 3.21777 15.3613Q4.18945 15.7227 5.33203 15.7227Z" fill="rgba(255,255,255,0.25)"/>
  <path d="M7.93945 12.2754Q7.1875 11.543 7.19727 10.5859Q7.20703 9.62891 7.93945 8.89648L9.63867 7.19727Q9.47266 7.50977 9.42871 7.79297Q9.38477 8.07617 9.4043 8.30078L8.4082 9.28711Q7.8418 9.85352 7.83203 10.5713Q7.82227 11.2891 8.37891 11.8359Q8.93555 12.3926 9.6582 12.3877Q10.3809 12.3828 10.9375 11.8164L12.7832 9.9707Q13.3594 9.39453 13.3643 8.67188Q13.3691 7.94922 12.8125 7.41211Q12.4316 7.04102 11.9971 6.91406Q11.5625 6.78711 11.3281 6.88477Q11.4648 6.74805 11.5234 6.68945Q11.582 6.63086 11.6309 6.57227L11.8848 6.31836Q12.1191 6.31836 12.5049 6.46484Q12.8906 6.61133 13.2617 6.97266Q13.75 7.46094 13.916 8.06641Q14.082 8.67188 13.916 9.27246Q13.75 9.87305 13.2617 10.3613L11.3281 12.2754Q10.5859 13.0176 9.63379 13.0176Q8.68164 13.0176 7.93945 12.2754ZM15.8008 4.42383Q16.543 5.16602 16.543 6.11816Q16.543 7.07031 15.8008 7.8125L14.1016 9.51172Q14.2676 9.18945 14.3115 8.91113Q14.3555 8.63281 14.3262 8.4082L15.332 7.41211Q15.8984 6.85547 15.9033 6.14258Q15.9082 5.42969 15.3516 4.86328Q14.8047 4.31641 14.0918 4.31641Q13.3789 4.31641 12.8027 4.89258L10.957 6.73828Q10.3906 7.30469 10.376 8.02246Q10.3613 8.74023 10.9277 9.28711Q11.2988 9.66797 11.7334 9.79492Q12.168 9.92188 12.4023 9.82422Q12.2754 9.96094 12.2217 10.0146Q12.168 10.0684 12.1094 10.1367L11.8555 10.3906Q11.6309 10.3809 11.2451 10.2344Q10.8594 10.0879 10.498 9.73633Q10 9.24805 9.83398 8.64258Q9.66797 8.03711 9.8291 7.43164Q9.99023 6.82617 10.4883 6.33789L12.4121 4.42383Q13.1543 3.69141 14.1064 3.68652Q15.0586 3.68164 15.8008 4.42383Z" fill="#ffffff"/>
 </g>
</svg>
