<?xml version="1.0" encoding="UTF-8"?>
<!--Generator: Apple Native CoreSVG 175.5-->
<!DOCTYPE svg
PUBLIC "-//W3C//DTD SVG 1.1//EN"
       "http://www.w3.org/Graphics/SVG/1.1/DTD/svg11.dtd">
<svg version="1.1" xmlns="http://www.w3.org/2000/svg" xmlns:xlink="http://www.w3.org/1999/xlink" width="23.6426" height="16.8848">
 <g>
  <rect height="16.8848" opacity="0" width="23.6426" x="0" y="0"/>
  <path d="M0.742188 1.47461L18.9258 1.47461Q19.2383 1.47461 19.458 1.25977Q19.6777 1.04492 19.6777 0.732422Q19.6777 0.429688 19.458 0.214844Q19.2383 0 18.9258 0L0.742188 0Q0.429688 0 0.214844 0.214844Q0 0.429688 0 0.732422Q0 1.04492 0.214844 1.25977Q0.429688 1.47461 0.742188 1.47461ZM0.742188 6.5918L6.8457 6.5918Q7.14844 6.5918 7.36816 6.37695Q7.58789 6.16211 7.58789 5.84961Q7.58789 5.53711 7.36816 5.32715Q7.14844 5.11719 6.8457 5.11719L0.742188 5.11719Q0.429688 5.11719 0.214844 5.32715Q0 5.53711 0 5.84961Q0 6.16211 0.214844 6.37695Q0.429688 6.5918 0.742188 6.5918ZM0.742188 11.709L6.8457 11.709Q7.14844 11.709 7.36816 11.4941Q7.58789 11.2793 7.58789 10.9668Q7.58789 10.6543 7.36816 10.4443Q7.14844 10.2344 6.8457 10.2344L0.742188 10.2344Q0.429688 10.2344 0.214844 10.4443Q0 10.6543 0 10.9668Q0 11.2793 0.214844 11.4941Q0.429688 11.709 0.742188 11.709ZM0.742188 16.8164L6.8457 16.8164Q7.14844 16.8164 7.36816 16.6064Q7.58789 16.3965 7.58789 16.084Q7.58789 15.7715 7.36816 15.5566Q7.14844 15.3418 6.8457 15.3418L0.742188 15.3418Q0.429688 15.3418 0.214844 15.5566Q0 15.7715 0 16.084Q0 16.3965 0.214844 16.6064Q0.429688 16.8164 0.742188 16.8164Z" fill="rgba(255,255,255,0.5)"/>
  <path d="M10.752 16.7188L22.3145 16.7188Q22.9199 16.7188 23.2812 16.3623Q23.6426 16.0059 23.6426 15.4102L23.6426 6.52344Q23.6426 5.9375 23.2812 5.58105Q22.9199 5.22461 22.3145 5.22461L10.752 5.22461Q10.1465 5.22461 9.78516 5.58105Q9.42383 5.9375 9.42383 6.52344L9.42383 15.4102Q9.42383 16.0059 9.78516 16.3623Q10.1465 16.7188 10.752 16.7188ZM10.8301 8.01758Q10.5078 8.01758 10.5078 7.69531L10.5078 6.62109Q10.5078 6.28906 10.8301 6.28906L11.748 6.28906Q12.0801 6.28906 12.0801 6.62109L12.0801 7.69531Q12.0801 8.01758 11.748 8.01758ZM10.8301 10.5566Q10.5078 10.5566 10.5078 10.2539L10.5078 9.16992Q10.5078 8.83789 10.8301 8.83789L11.748 8.83789Q12.0801 8.83789 12.0801 9.16992L12.0801 10.2539Q12.0801 10.5566 11.748 10.5566ZM10.8301 13.0957Q10.5078 13.0957 10.5078 12.793L10.5078 11.709Q10.5078 11.377 10.8301 11.377L11.748 11.377Q12.0801 11.377 12.0801 11.709L12.0801 12.793Q12.0801 13.0957 11.748 13.0957ZM10.8301 15.6445Q10.5078 15.6445 10.5078 15.332L10.5078 14.248Q10.5078 13.916 10.8301 13.916L11.748 13.916Q12.0801 13.916 12.0801 14.248L12.0801 15.332Q12.0801 15.6445 11.748 15.6445ZM21.3184 8.01758Q20.9863 8.01758 20.9863 7.69531L20.9863 6.62109Q20.9863 6.28906 21.3184 6.28906L22.2363 6.28906Q22.5586 6.28906 22.5586 6.62109L22.5586 7.69531Q22.5586 8.01758 22.2363 8.01758ZM21.3184 10.5566Q20.9863 10.5566 20.9863 10.2539L20.9863 9.16992Q20.9863 8.83789 21.3184 8.83789L22.2363 8.83789Q22.5586 8.83789 22.5586 9.16992L22.5586 10.2539Q22.5586 10.5566 22.2363 10.5566ZM21.3184 13.0957Q20.9863 13.0957 20.9863 12.793L20.9863 11.709Q20.9863 11.377 21.3184 11.377L22.2363 11.377Q22.5586 11.377 22.5586 11.709L22.5586 12.793Q22.5586 13.0957 22.2363 13.0957ZM21.3184 15.6445Q20.9863 15.6445 20.9863 15.332L20.9863 14.248Q20.9863 13.916 21.3184 13.916L22.2363 13.916Q22.5586 13.916 22.5586 14.248L22.5586 15.332Q22.5586 15.6445 22.2363 15.6445ZM13.4375 15.2539Q13.3008 15.2539 13.2178 15.1709Q13.1348 15.0879 13.1348 14.9414L13.1348 12.0312Q13.1348 11.875 13.2178 11.792Q13.3008 11.709 13.4375 11.709L19.6289 11.709Q19.7656 11.709 19.8486 11.792Q19.9316 11.875 19.9316 12.0312L19.9316 14.9414Q19.9316 15.0879 19.8486 15.1709Q19.7656 15.2539 19.6289 15.2539ZM13.4375 10.2441Q13.3008 10.2441 13.2178 10.1611Q13.1348 10.0781 13.1348 9.93164L13.1348 6.99219Q13.1348 6.8457 13.2178 6.7627Q13.3008 6.67969 13.4375 6.67969L19.6289 6.67969Q19.7656 6.67969 19.8486 6.7627Q19.9316 6.8457 19.9316 6.99219L19.9316 9.93164Q19.9316 10.0781 19.8486 10.1611Q19.7656 10.2441 19.6289 10.2441Z" fill="#ffffff"/>
 </g>
</svg>
