<?xml version="1.0" encoding="UTF-8"?>
<!--Generator: Apple Native CoreSVG 175.5-->
<!DOCTYPE svg
PUBLIC "-//W3C//DTD SVG 1.1//EN"
       "http://www.w3.org/Graphics/SVG/1.1/DTD/svg11.dtd">
<svg version="1.1" xmlns="http://www.w3.org/2000/svg" xmlns:xlink="http://www.w3.org/1999/xlink" width="18.6914" height="18.252">
 <g>
  <rect height="18.252" opacity="0" width="18.6914" x="0" y="0"/>
  <path d="M2.30469 13.3691Q2.30469 12.9395 1.99707 12.627Q1.68945 12.3145 1.24023 12.3145Q0.810547 12.3145 0.50293 12.627Q0.195312 12.9395 0.195312 13.3691Q0.195312 13.8086 0.50293 14.1113Q0.810547 14.4141 1.24023 14.4141Q1.68945 14.4141 1.99707 14.1113Q2.30469 13.8086 2.30469 13.3691ZM2.30469 17.1973Q2.30469 16.7578 1.99707 16.4453Q1.68945 16.1328 1.24023 16.1328Q0.810547 16.1328 0.50293 16.4453Q0.195312 16.7578 0.195312 17.1973Q0.195312 17.6367 0.50293 17.9443Q0.810547 18.252 1.24023 18.252Q1.68945 18.252 1.99707 17.9443Q2.30469 17.6367 2.30469 17.1973ZM18.3398 13.3691Q18.3398 13.0469 18.1006 12.832Q17.8613 12.6172 17.5098 12.6172L4.36523 12.6172Q4.00391 12.6172 3.76953 12.832Q3.53516 13.0469 3.53516 13.3691Q3.53516 13.6914 3.76953 13.9111Q4.00391 14.1309 4.36523 14.1309L17.5098 14.1309Q17.8613 14.1309 18.1006 13.9111Q18.3398 13.6914 18.3398 13.3691ZM18.3398 17.1973Q18.3398 16.875 18.1006 16.6602Q17.8613 16.4453 17.5098 16.4453L4.36523 16.4453Q4.00391 16.4453 3.76953 16.6602Q3.53516 16.875 3.53516 17.1973Q3.53516 17.5195 3.76953 17.7393Q4.00391 17.959 4.36523 17.959L17.5098 17.959Q17.8613 17.959 18.1006 17.7393Q18.3398 17.5195 18.3398 17.1973ZM2.70508 0.234375Q1.21094 0.234375 0.605469 0.90332Q0 1.57227 0 2.99805L0 7.53906Q0 8.96484 0.605469 9.63379Q1.21094 10.3027 2.70508 10.3027L15.9863 10.3027Q17.4805 10.3027 18.0859 9.63379Q18.6914 8.96484 18.6914 7.53906L18.6914 2.99805Q18.6914 1.57227 18.0859 0.90332Q17.4805 0.234375 15.9863 0.234375ZM1.57227 7.58789L1.57227 2.94922Q1.57227 2.30469 1.82129 2.00195Q2.07031 1.69922 2.71484 1.69922L15.9766 1.69922Q16.6211 1.69922 16.8701 2.00195Q17.1191 2.30469 17.1191 2.94922L17.1191 7.58789Q17.1191 8.24219 16.8701 8.54004Q16.6211 8.83789 15.9766 8.83789L2.71484 8.83789Q2.07031 8.83789 1.82129 8.54004Q1.57227 8.24219 1.57227 7.58789Z" fill="#ffffff"/>
 </g>
</svg>
