<?xml version="1.0" encoding="UTF-8"?>
<!--Generator: Apple Native CoreSVG 175-->
<!DOCTYPE svg
PUBLIC "-//W3C//DTD SVG 1.1//EN"
       "http://www.w3.org/Graphics/SVG/1.1/DTD/svg11.dtd">
<svg version="1.1" xmlns="http://www.w3.org/2000/svg" xmlns:xlink="http://www.w3.org/1999/xlink" width="22.6617" height="17.3035">
 <g>
  <rect height="17.3035" opacity="0" width="22.6617" x="0" y="0"/>
  <path d="M2.63046 17.2894L20.0243 17.2894Q21.3281 17.2894 21.9949 16.617Q22.6617 15.9445 22.6617 14.6655L22.6617 2.6265Q22.6617 1.35468 21.9949 0.677338Q21.3281 0 20.0243 0L2.63046 0Q1.33636 0 0.668182 0.668945Q0 1.33789 0 2.6265L0 14.6655Q0 15.9586 0.668182 16.624Q1.33636 17.2894 2.63046 17.2894Z" fill="rgba(255,255,255,0.25)"/>
  <path d="M3.90076 4.7168Q3.5437 4.7168 3.28651 4.45816Q3.02933 4.19952 3.02933 3.84262Q3.02933 3.48007 3.28651 3.22418Q3.5437 2.96829 3.90076 2.96829Q4.26605 2.96829 4.52194 3.22281Q4.77783 3.47733 4.77783 3.84262Q4.77783 4.20227 4.52194 4.45953Q4.26605 4.7168 3.90076 4.7168ZM3.90076 7.90543Q3.5437 7.90543 3.28651 7.64824Q3.02933 7.39105 3.02933 7.03125Q3.02933 6.67145 3.28651 6.41068Q3.5437 6.1499 3.90076 6.1499Q4.26605 6.1499 4.52194 6.4093Q4.77783 6.6687 4.77783 7.03125Q4.77783 7.3938 4.52194 7.64961Q4.26605 7.90543 3.90076 7.90543ZM3.90076 11.0913Q3.54111 11.0913 3.28522 10.8355Q3.02933 10.5797 3.02933 10.2101Q3.02933 9.85306 3.28522 9.59587Q3.54111 9.33868 3.90076 9.33868Q4.26605 9.33868 4.52194 9.5945Q4.77783 9.85031 4.77783 10.2101Q4.77783 10.5797 4.52194 10.8355Q4.26605 11.0913 3.90076 11.0913ZM3.90076 14.3097Q3.5437 14.3097 3.28651 14.0525Q3.02933 13.7953 3.02933 13.4355Q3.02933 13.0757 3.28651 12.8136Q3.5437 12.5516 3.90076 12.5516Q4.26605 12.5516 4.52194 12.8123Q4.77783 13.073 4.77783 13.4355Q4.77783 13.7981 4.52194 14.0539Q4.26605 14.3097 3.90076 14.3097ZM7.36679 4.16946Q7.2226 4.16946 7.12845 4.07669Q7.0343 3.98392 7.0343 3.84262Q7.0343 3.69568 7.12845 3.60153Q7.2226 3.50739 7.36679 3.50739L19.5273 3.50739Q19.6715 3.50739 19.7656 3.60153Q19.8598 3.69568 19.8598 3.84262Q19.8598 3.98392 19.767 4.07669Q19.6742 4.16946 19.5273 4.16946ZM7.36679 7.36099Q7.2226 7.36099 7.12845 7.26685Q7.0343 7.1727 7.0343 7.03125Q7.0343 6.88705 7.12845 6.79291Q7.2226 6.69876 7.36679 6.69876L14.5102 6.69876Q14.6515 6.69876 14.7456 6.79291Q14.8398 6.88705 14.8398 7.03125Q14.8398 7.1727 14.7456 7.26685Q14.6515 7.36099 14.5102 7.36099ZM7.36679 10.5453Q7.2226 10.5453 7.12845 10.4512Q7.0343 10.3571 7.0343 10.2101Q7.0343 10.0687 7.12845 9.9794Q7.2226 9.89014 7.36679 9.89014L19.5273 9.89014Q19.6742 9.89014 19.767 9.9794Q19.8598 10.0687 19.8598 10.2101Q19.8598 10.3571 19.767 10.4512Q19.6742 10.5453 19.5273 10.5453ZM7.36679 13.761Q7.2226 13.761 7.12845 13.6703Q7.0343 13.5797 7.0343 13.4355Q7.0343 13.2913 7.12845 13.1985Q7.2226 13.1058 7.36679 13.1058L14.5102 13.1058Q14.6542 13.1058 14.747 13.1985Q14.8398 13.2913 14.8398 13.4355Q14.8398 13.5797 14.7456 13.6703Q14.6515 13.761 14.5102 13.761Z" fill="#ffffff"/>
 </g>
</svg>
