<?xml version="1.0" encoding="UTF-8"?>
<!--Generator: Apple Native CoreSVG 175.5-->
<!DOCTYPE svg
PUBLIC "-//W3C//DTD SVG 1.1//EN"
       "http://www.w3.org/Graphics/SVG/1.1/DTD/svg11.dtd">
<svg version="1.1" xmlns="http://www.w3.org/2000/svg" xmlns:xlink="http://www.w3.org/1999/xlink" width="23.0273" height="17.9785">
 <g>
  <rect height="17.9785" opacity="0" width="23.0273" x="0" y="0"/>
  <path d="M3.06641 17.9785L19.9609 17.9785Q21.5039 17.9785 22.2656 17.2217Q23.0273 16.4648 23.0273 14.9609L23.0273 3.02734Q23.0273 1.52344 22.2656 0.761719Q21.5039 0 19.9609 0L3.06641 0Q1.5332 0 0.766602 0.756836Q0 1.51367 0 3.02734L0 14.9609Q0 16.4648 0.766602 17.2217Q1.5332 17.9785 3.06641 17.9785Z" fill="rgba(255,255,255,0.25)"/>
  <path d="M4.41406 5.24414Q4.04297 5.24414 3.76465 4.96094Q3.48633 4.67773 3.48633 4.30664Q3.48633 3.91602 3.76465 3.64258Q4.04297 3.36914 4.41406 3.36914Q4.81445 3.36914 5.08789 3.6377Q5.36133 3.90625 5.36133 4.30664Q5.36133 4.6875 5.08789 4.96582Q4.81445 5.24414 4.41406 5.24414ZM4.41406 8.32031Q4.04297 8.32031 3.76465 8.04199Q3.48633 7.76367 3.48633 7.38281Q3.48633 7.00195 3.76465 6.72363Q4.04297 6.44531 4.41406 6.44531Q4.81445 6.44531 5.08789 6.71875Q5.36133 6.99219 5.36133 7.38281Q5.36133 7.77344 5.08789 8.04688Q4.81445 8.32031 4.41406 8.32031ZM4.41406 11.3867Q4.0332 11.3867 3.75977 11.1133Q3.48633 10.8398 3.48633 10.4492Q3.48633 10.0781 3.75977 9.7998Q4.0332 9.52148 4.41406 9.52148Q4.81445 9.52148 5.08789 9.79492Q5.36133 10.0684 5.36133 10.4492Q5.36133 10.8398 5.08789 11.1133Q4.81445 11.3867 4.41406 11.3867ZM4.41406 14.6191Q4.04297 14.6191 3.76465 14.3408Q3.48633 14.0625 3.48633 13.6816Q3.48633 13.3008 3.76465 13.0176Q4.04297 12.7344 4.41406 12.7344Q4.81445 12.7344 5.08789 13.0127Q5.36133 13.291 5.36133 13.6816Q5.36133 14.0723 5.08789 14.3457Q4.81445 14.6191 4.41406 14.6191ZM7.45117 4.92188Q7.1875 4.92188 7.00195 4.74121Q6.81641 4.56055 6.81641 4.30664Q6.81641 4.0332 7.00195 3.84766Q7.1875 3.66211 7.45117 3.66211L18.9648 3.66211Q19.2285 3.66211 19.4141 3.84766Q19.5996 4.0332 19.5996 4.30664Q19.5996 4.56055 19.4189 4.74121Q19.2383 4.92188 18.9648 4.92188ZM7.45117 8.00781Q7.1875 8.00781 7.00195 7.82227Q6.81641 7.63672 6.81641 7.38281Q6.81641 7.11914 7.00195 6.93359Q7.1875 6.74805 7.45117 6.74805L13.8281 6.74805Q14.082 6.74805 14.2676 6.93359Q14.4531 7.11914 14.4531 7.38281Q14.4531 7.63672 14.2676 7.82227Q14.082 8.00781 13.8281 8.00781ZM7.45117 11.0938Q7.1875 11.0938 7.00195 10.9082Q6.81641 10.7227 6.81641 10.4492Q6.81641 10.1953 7.00195 10.0146Q7.1875 9.83398 7.45117 9.83398L18.9648 9.83398Q19.2383 9.83398 19.4189 10.0146Q19.5996 10.1953 19.5996 10.4492Q19.5996 10.7227 19.4189 10.9082Q19.2383 11.0938 18.9648 11.0938ZM7.45117 14.3164Q7.1875 14.3164 7.00195 14.1309Q6.81641 13.9453 6.81641 13.6816Q6.81641 13.418 7.00195 13.2373Q7.1875 13.0566 7.45117 13.0566L13.8281 13.0566Q14.0918 13.0566 14.2725 13.2373Q14.4531 13.418 14.4531 13.6816Q14.4531 13.9453 14.2676 14.1309Q14.082 14.3164 13.8281 14.3164Z" fill="#ffffff"/>
 </g>
</svg>
