<?xml version="1.0" encoding="UTF-8"?>
<!--Generator: Apple Native CoreSVG 175.5-->
<!DOCTYPE svg
PUBLIC "-//W3C//DTD SVG 1.1//EN"
       "http://www.w3.org/Graphics/SVG/1.1/DTD/svg11.dtd">
<svg version="1.1" xmlns="http://www.w3.org/2000/svg" xmlns:xlink="http://www.w3.org/1999/xlink" width="12.5488" height="20.6934">
 <g>
  <rect height="20.6934" opacity="0" width="12.5488" x="0" y="0"/>
  <path d="M0 18.1348Q0 19.2773 0.732422 19.9756Q1.46484 20.6738 2.65625 20.6738L9.89258 20.6738Q11.0938 20.6738 11.8213 19.9756Q12.5488 19.2773 12.5488 18.1348L12.5488 2.53906Q12.5488 1.39648 11.8213 0.698242Q11.0938 0 9.89258 0L2.65625 0Q1.46484 0 0.732422 0.698242Q0 1.39648 0 2.53906ZM1.57227 17.8809L1.57227 2.79297Q1.57227 2.20703 1.9043 1.88965Q2.23633 1.57227 2.86133 1.57227L9.69727 1.57227Q10.3125 1.57227 10.6445 1.88965Q10.9766 2.20703 10.9766 2.79297L10.9766 17.8809Q10.9766 18.4668 10.6445 18.7842Q10.3125 19.1016 9.69727 19.1016L2.86133 19.1016Q2.23633 19.1016 1.9043 18.7842Q1.57227 18.4668 1.57227 17.8809Z" fill="rgba(255,255,255,0.5)"/>
  <path d="M2.77145 12.8214Q2.77145 13.6593 3.56636 13.6593L6.87488 13.6593Q7.66978 13.6593 7.66978 12.8214L7.66978 10.2756Q7.66978 9.44843 6.87488 9.44843L3.56636 9.44843Q2.77145 9.44843 2.77145 10.2756ZM6.12294 10.0178L7.08972 10.0178L7.08972 8.6213Q7.08972 8.08421 7.36901 7.76195Q7.6483 7.43969 8.14243 7.43969Q8.63656 7.43969 8.91585 7.76195Q9.19514 8.08421 9.19514 8.6213L9.19514 9.30879Q9.19514 9.51289 9.33478 9.6579Q9.47443 9.80292 9.67853 9.80292Q9.87188 9.80292 10.0169 9.6579Q10.1619 9.51289 10.1619 9.30879L10.1619 8.6213Q10.1619 7.6975 9.6087 7.09595Q9.05549 6.4944 8.14243 6.4944Q7.22936 6.4944 6.67615 7.10669Q6.12294 7.71898 6.12294 8.70724Z" fill="#ffffff"/>
 </g>
</svg>
