<?xml version="1.0" encoding="UTF-8"?>
<!--Generator: Apple Native CoreSVG 175.5-->
<!DOCTYPE svg
PUBLIC "-//W3C//DTD SVG 1.1//EN"
       "http://www.w3.org/Graphics/SVG/1.1/DTD/svg11.dtd">
<svg version="1.1" xmlns="http://www.w3.org/2000/svg" xmlns:xlink="http://www.w3.org/1999/xlink" width="28.1178" height="20.5566">
 <g>
  <rect height="20.5566" opacity="0" width="28.1178" x="0" y="0"/>
  <path d="M3.8343 20.2441L8.11165 19.4141Q9.79133 19.082 10.5677 18.125Q11.3441 17.168 11.3441 15.3711L11.3441 3.55469Q11.3441 2.49023 10.8802 1.68945Q10.4163 0.888672 9.58137 0.444336Q8.74641 0 7.63313 0Q6.21712 0 5.10872 0.917969Q4.00032 1.83594 3.59993 3.33984L0.172194 16.3379Q-0.179369 17.6953 0.186842 18.667Q0.553053 19.6387 1.50032 20.0732Q2.44758 20.5078 3.8343 20.2441ZM9.7718 3.55469L9.7718 15.3711Q9.7718 16.6016 9.35188 17.124Q8.93196 17.6465 7.80891 17.8613L3.51204 18.6914Q2.87727 18.8184 2.40364 18.6084Q1.93001 18.3984 1.72981 17.9004Q1.52962 17.4023 1.72493 16.6797L5.13313 3.74023Q5.3968 2.76367 6.08528 2.16797Q6.77376 1.57227 7.63313 1.57227Q8.59016 1.57227 9.18098 2.11914Q9.7718 2.66602 9.7718 3.55469ZM24.2835 20.2441Q25.6702 20.5078 26.6175 20.0732Q27.5648 19.6387 27.931 18.667Q28.2972 17.6953 27.9456 16.3379L24.5179 3.33984Q24.1175 1.83594 23.0091 0.917969Q21.9007 0 20.4847 0Q19.3714 0 18.5365 0.444336Q17.7015 0.888672 17.2425 1.68945Q16.7835 2.49023 16.7835 3.55469L16.7835 15.3711Q16.7835 17.168 17.555 18.125Q18.3265 19.082 20.0159 19.4141ZM18.3558 3.55469Q18.3558 2.66602 18.9466 2.11914Q19.5374 1.57227 20.4847 1.57227Q21.3538 1.57227 22.0423 2.16797Q22.7308 2.76367 22.9847 3.74023L26.4027 16.6797Q26.5882 17.4023 26.388 17.9004Q26.1878 18.3984 25.7142 18.6084Q25.2406 18.8184 24.6058 18.6914L20.3089 17.8613Q19.1859 17.6465 18.7708 17.124Q18.3558 16.6016 18.3558 15.3711Z" fill="rgba(255,255,255,0.25)"/>
  <path d="M11.3441 14.1309L11.3441 12.5293L9.96712 12.8223L6.61751 9.79492Q6.38313 9.58984 6.04622 9.59961Q5.7093 9.60938 5.50423 9.84375Q5.28938 10.0879 5.30891 10.4199Q5.32844 10.752 5.56282 10.957L8.09212 13.2129L5.01594 13.877Q4.70344 13.9355 4.52278 14.209Q4.34212 14.4824 4.41048 14.7949Q4.46907 15.1074 4.75227 15.2832Q5.03548 15.459 5.33821 15.4004ZM16.7835 12.5293L16.7835 14.1309L22.7894 15.4004Q23.0921 15.459 23.3753 15.2832Q23.6585 15.1074 23.7269 14.7949Q23.7855 14.4824 23.6048 14.209Q23.4241 13.9355 23.1214 13.877L20.0452 13.2129L22.5648 10.957Q22.7991 10.752 22.8236 10.4199Q22.848 10.0879 22.6234 9.84375Q22.4183 9.60938 22.0814 9.59961Q21.7445 9.58984 21.5199 9.79492L18.1605 12.8223Z" fill="rgba(255,255,255,0.5)"/>
  <path d="M16.7835 14.1309L16.7835 12.5293L14.8499 12.1094L14.8499 1.28906Q14.8499 0.966797 14.6204 0.732422Q14.3909 0.498047 14.0687 0.498047Q13.7464 0.498047 13.512 0.732422Q13.2777 0.966797 13.2777 1.28906L13.2777 12.1094L11.3441 12.5293L11.3441 14.1309L14.0687 13.5449Z" fill="#ffffff"/>
 </g>
</svg>
