<?xml version="1.0" encoding="UTF-8"?>
<!--Generator: Apple Native CoreSVG 175.5-->
<!DOCTYPE svg
PUBLIC "-//W3C//DTD SVG 1.1//EN"
       "http://www.w3.org/Graphics/SVG/1.1/DTD/svg11.dtd">
<svg version="1.1" xmlns="http://www.w3.org/2000/svg" xmlns:xlink="http://www.w3.org/1999/xlink" width="19.9219" height="19.9316">
 <g>
  <rect height="19.9316" opacity="0" width="19.9219" x="0" y="0"/>
  <path d="M9.96094 19.9219Q12.002 19.9219 13.8037 19.1406Q15.6055 18.3594 16.9824 16.9824Q18.3594 15.6055 19.1406 13.8037Q19.9219 12.002 19.9219 9.96094Q19.9219 7.91992 19.1406 6.11816Q18.3594 4.31641 16.9824 2.93945Q15.6055 1.5625 13.7988 0.78125Q11.9922 0 9.95117 0Q7.91016 0 6.1084 0.78125Q4.30664 1.5625 2.93457 2.93945Q1.5625 4.31641 0.78125 6.11816Q0 7.91992 0 9.96094Q0 12.002 0.78125 13.8037Q1.5625 15.6055 2.93945 16.9824Q4.31641 18.3594 6.11816 19.1406Q7.91992 19.9219 9.96094 19.9219Z" fill="rgba(255,255,255,0.25)"/>
  <path d="M6.03516 14.6387Q5.3125 14.6387 5.3125 13.8086L5.3125 6.09375Q5.3125 5.67383 5.57617 5.41504Q5.83984 5.15625 6.25977 5.15625Q6.98242 5.15625 7.25586 5.81055L9.93164 12.5L9.99023 12.5L12.6562 5.81055Q12.9297 5.15625 13.6426 5.15625Q14.0625 5.15625 14.3262 5.41504Q14.5898 5.67383 14.5898 6.09375L14.5898 13.8086Q14.5898 14.1992 14.3945 14.4189Q14.1992 14.6387 13.8477 14.6387Q13.5156 14.6387 13.3203 14.4189Q13.125 14.1992 13.125 13.8086L13.125 8.01758L13.0371 8.01758L10.7227 13.7988Q10.498 14.3262 9.94141 14.3262Q9.4043 14.3262 9.16992 13.7988L6.86523 8.01758L6.77734 8.01758L6.77734 13.8086Q6.77734 14.1992 6.58203 14.4189Q6.38672 14.6387 6.03516 14.6387Z" fill="#ffffff"/>
 </g>
</svg>
