<?xml version="1.0" encoding="UTF-8"?>
<!--Generator: Apple Native CoreSVG 175-->
<!DOCTYPE svg
PUBLIC "-//W3C//DTD SVG 1.1//EN"
       "http://www.w3.org/Graphics/SVG/1.1/DTD/svg11.dtd">
<svg version="1.1" xmlns="http://www.w3.org/2000/svg" xmlns:xlink="http://www.w3.org/1999/xlink" width="13.3836" height="21.813">
 <g>
  <rect height="21.813" opacity="0" width="13.3836" x="0" y="0"/>
  <path d="M0 17.5029Q0 18.8541 0.795517 19.8183Q1.59103 20.7825 3.09143 21.2978Q4.59183 21.813 6.69174 21.813Q8.79181 21.813 10.2922 21.2978Q11.7926 20.7825 12.5881 19.8183Q13.3836 18.8541 13.3836 17.5029L13.3836 4.30588Q13.3836 3.33679 12.962 2.56531Q12.5403 1.79382 11.7415 1.26602Q11.5833 1.14029 11.4534 1.1657Q11.3235 1.1911 11.2895 1.32111Q11.2395 1.96213 10.5563 2.38152Q9.87305 2.8009 8.84087 3.00163Q7.80869 3.20236 6.69174 3.20236Q5.57495 3.20236 4.53926 3.00163Q3.50357 2.8009 2.82249 2.38152Q2.14142 1.96213 2.09137 1.32111Q2.05734 1.1911 1.92398 1.1657Q1.79062 1.14029 1.63513 1.26602Q0.843353 1.79382 0.421677 2.56531Q0 3.33679 0 4.30588ZM6.69174 2.37198Q7.73483 2.37198 8.59871 2.21512Q9.46259 2.05826 9.9778 1.78909Q10.493 1.51993 10.493 1.18958Q10.493 0.868835 9.9778 0.60318Q9.46259 0.337524 8.59871 0.177155Q7.73483 0.0167847 6.69174 0.0167847Q5.64178 0.0167847 4.78142 0.177155Q3.92105 0.337524 3.40584 0.60318Q2.89062 0.868835 2.89062 1.18958Q2.89062 1.51993 3.40584 1.78909Q3.92105 2.05826 4.78142 2.21512Q5.64178 2.37198 6.69174 2.37198Z" fill="#ffffff"/>
 </g>
</svg>
