<?xml version="1.0" encoding="UTF-8"?>
<!--Generator: Apple Native CoreSVG 175-->
<!DOCTYPE svg
PUBLIC "-//W3C//DTD SVG 1.1//EN"
       "http://www.w3.org/Graphics/SVG/1.1/DTD/svg11.dtd">
<svg version="1.1" xmlns="http://www.w3.org/2000/svg" xmlns:xlink="http://www.w3.org/1999/xlink" width="19.1602" height="19.1504">
 <g>
  <rect height="19.1504" opacity="0" width="19.1602" x="0" y="0"/>
  <path d="M9.57031 19.1406Q11.5527 19.1406 13.2861 18.3984Q15.0195 17.6562 16.3379 16.333Q17.6562 15.0098 18.4082 13.2764Q19.1602 11.543 19.1602 9.57031Q19.1602 7.59766 18.4082 5.86426Q17.6562 4.13086 16.3379 2.80762Q15.0195 1.48438 13.2861 0.742188Q11.5527 0 9.57031 0Q7.59766 0 5.86426 0.742188Q4.13086 1.48438 2.81738 2.80762Q1.50391 4.13086 0.751953 5.86426Q0 7.59766 0 9.57031Q0 11.543 0.74707 13.2764Q1.49414 15.0098 2.8125 16.333Q4.13086 17.6562 5.86914 18.3984Q7.60742 19.1406 9.57031 19.1406Z" fill="rgba(255,255,255,0.25)"/>
  <path d="M8.44727 12.334Q7.36328 12.334 6.46973 11.8018Q5.57617 11.2695 5.03906 10.376Q4.50195 9.48242 4.50195 8.4082Q4.50195 7.31445 5.03906 6.41602Q5.57617 5.51758 6.46973 4.98535Q7.36328 4.45312 8.44727 4.45312Q9.53125 4.45312 10.4248 4.98535Q11.3184 5.51758 11.8555 6.41602Q12.3926 7.31445 12.3926 8.4082Q12.3926 9.10156 12.1533 9.73633Q11.9141 10.3711 11.4941 10.8691L14.4727 13.8672Q14.5508 13.9551 14.5996 14.0332Q14.6484 14.1113 14.6484 14.2285Q14.6484 14.4238 14.5264 14.5508Q14.4043 14.6777 14.1992 14.6777Q13.9746 14.6777 13.7988 14.4824L10.8398 11.5137Q10.3418 11.8945 9.73145 12.1143Q9.12109 12.334 8.44727 12.334ZM8.45703 11.6504Q9.35547 11.6504 10.0928 11.2109Q10.8301 10.7715 11.2695 10.0293Q11.709 9.28711 11.709 8.38867Q11.709 7.49023 11.2695 6.74805Q10.8301 6.00586 10.0928 5.56641Q9.35547 5.12695 8.45703 5.12695Q7.55859 5.12695 6.81641 5.56641Q6.07422 6.00586 5.62988 6.74805Q5.18555 7.49023 5.18555 8.38867Q5.18555 9.28711 5.62988 10.0293Q6.07422 10.7715 6.81641 11.2109Q7.55859 11.6504 8.45703 11.6504Z" fill="#ffffff"/>
 </g>
</svg>
