<?xml version="1.0" encoding="UTF-8"?>
<!--Generator: Apple Native CoreSVG 175.5-->
<!DOCTYPE svg
PUBLIC "-//W3C//DTD SVG 1.1//EN"
       "http://www.w3.org/Graphics/SVG/1.1/DTD/svg11.dtd">
<svg version="1.1" xmlns="http://www.w3.org/2000/svg" xmlns:xlink="http://www.w3.org/1999/xlink" width="23.0273" height="17.9785">
 <g>
  <rect height="17.9785" opacity="0" width="23.0273" x="0" y="0"/>
  <path d="M4.63867 5.91797Q4.3457 5.91797 4.15527 5.71777Q3.96484 5.51758 3.96484 5.22461Q3.96484 4.94141 4.15527 4.74609Q4.3457 4.55078 4.63867 4.55078L10.9375 4.55078Q11.2207 4.55078 11.4209 4.74609Q11.6211 4.94141 11.6211 5.22461Q11.6211 5.51758 11.4209 5.71777Q11.2207 5.91797 10.9375 5.91797ZM4.63867 8.52539Q4.3457 8.52539 4.15527 8.3252Q3.96484 8.125 3.96484 7.8418Q3.96484 7.55859 4.15527 7.3584Q4.3457 7.1582 4.63867 7.1582L9.24805 7.1582Q9.53125 7.1582 9.73145 7.3584Q9.93164 7.55859 9.93164 7.8418Q9.93164 8.125 9.73145 8.3252Q9.53125 8.52539 9.24805 8.52539ZM16.7285 8.78906Q16.084 8.78906 15.5518 8.47168Q15.0195 8.1543 14.7021 7.62207Q14.3848 7.08984 14.3848 6.44531Q14.3848 5.80078 14.7021 5.26855Q15.0195 4.73633 15.5518 4.41895Q16.084 4.10156 16.7285 4.10156Q17.373 4.10156 17.9004 4.41895Q18.4277 4.73633 18.7451 5.26855Q19.0625 5.80078 19.0625 6.44531Q19.0625 7.08984 18.7451 7.62207Q18.4277 8.1543 17.9004 8.47168Q17.373 8.78906 16.7285 8.78906ZM3.06641 17.9785L19.9609 17.9785Q21.5039 17.9785 22.2656 17.2217Q23.0273 16.4648 23.0273 14.9609L23.0273 3.02734Q23.0273 1.52344 22.2656 0.761719Q21.5039 0 19.9609 0L3.06641 0Q1.5332 0 0.766602 0.756836Q0 1.51367 0 3.02734L0 14.9609Q0 16.4648 0.766602 17.2217Q1.5332 17.9785 3.06641 17.9785Z" fill="#ffffff"/>
 </g>
</svg>
