<?xml version="1.0" encoding="UTF-8"?>
<!--Generator: Apple Native CoreSVG 175-->
<!DOCTYPE svg
PUBLIC "-//W3C//DTD SVG 1.1//EN"
       "http://www.w3.org/Graphics/SVG/1.1/DTD/svg11.dtd">
<svg version="1.1" xmlns="http://www.w3.org/2000/svg" xmlns:xlink="http://www.w3.org/1999/xlink" width="24.425" height="18.8489">
 <g>
  <rect height="18.8489" opacity="0" width="24.425" x="0" y="0"/>
  <path d="M18.5547 9.13055Q19.1895 9.13055 19.7217 8.81668Q20.2539 8.50281 20.5664 7.97195Q20.8789 7.4411 20.8789 6.7868Q20.8789 6.14227 20.5664 5.61005Q20.2539 5.07782 19.7217 4.76044Q19.1895 4.44305 18.5547 4.44305Q17.9004 4.44305 17.3682 4.76044Q16.8359 5.07782 16.5234 5.61005Q16.2109 6.14227 16.2109 6.7868Q16.2109 7.4411 16.5234 7.97195Q16.8359 8.50281 17.3682 8.81668Q17.9004 9.13055 18.5547 9.13055ZM21.7876 0.796509L10.3433 0.796509L10.3433 1.52512L21.7653 1.52512Q22.6848 1.52512 23.1906 2.01279Q23.6964 2.50046 23.6964 3.45901L23.6964 15.4234Q23.6964 16.382 23.1906 16.8697Q22.6848 17.3575 21.7653 17.3575L18.9726 17.3575Q19.0883 17.5153 19.151 17.7026Q19.2137 17.8899 19.2137 18.0859L21.7876 18.0859Q23.0887 18.0859 23.7569 17.4135Q24.425 16.741 24.425 15.4594L24.425 3.423Q24.425 2.14142 23.7569 1.46896Q23.0887 0.796509 21.7876 0.796509ZM4.42032 17.3575Q3.47 17.3575 2.97958 16.8697Q2.48917 16.382 2.48917 15.4234L2.48917 11.8872L1.76056 11.8872L1.76056 15.4594Q1.76056 16.7551 2.43011 17.4205Q3.09967 18.0859 4.39804 18.0859L16.0988 18.0859L15.3702 17.3575Z" fill="rgba(255,255,255,0.5)"/>
  <path d="M0 7.379Q0 8.88474 0.570297 10.208Q1.14059 11.5312 2.14455 12.5387Q3.1485 13.5461 4.47174 14.1129Q5.79498 14.6797 7.30072 14.6797Q8.60123 14.6797 9.76974 14.2504Q10.9383 13.8211 11.8742 13.0531L17.4504 18.6505Q17.5418 18.7349 17.659 18.7919Q17.7762 18.8489 17.9192 18.8489Q18.1317 18.8489 18.2836 18.7537Q18.4355 18.6586 18.5174 18.5004Q18.5992 18.3423 18.5992 18.1606Q18.5992 18.0316 18.5514 17.9131Q18.5036 17.7945 18.4062 17.6973L12.8383 12.1169Q13.6606 11.1613 14.1311 9.94614Q14.6016 8.73093 14.6016 7.379Q14.6016 5.88013 14.0313 4.55688Q13.461 3.23364 12.4549 2.22618Q11.4488 1.21872 10.1277 0.651932Q8.80661 0.085144 7.30072 0.085144Q5.79498 0.085144 4.47174 0.651932Q3.1485 1.21872 2.14455 2.22618Q1.14059 3.23364 0.570297 4.55688Q0 5.88013 0 7.379ZM0.748901 7.379Q0.748901 6.0321 1.259 4.84283Q1.7691 3.65356 2.67227 2.75261Q3.57544 1.85165 4.7612 1.33934Q5.94696 0.827026 7.30072 0.827026Q8.65463 0.827026 9.84039 1.33934Q11.0262 1.85165 11.9271 2.75261Q12.8281 3.65356 13.3404 4.84283Q13.8527 6.0321 13.8527 7.379Q13.8527 8.73291 13.3404 9.91859Q12.8281 11.1043 11.9271 12.0074Q11.0262 12.9106 9.84039 13.4242Q8.65463 13.9378 7.30072 13.9378Q5.94696 13.9378 4.7612 13.4242Q3.57544 12.9106 2.67227 12.0074Q1.7691 11.1043 1.259 9.91859Q0.748901 8.73291 0.748901 7.379ZM4.05045 6.56677L10.5511 6.56677Q10.6894 6.56677 10.7898 6.4637Q10.8902 6.36063 10.8902 6.21796Q10.8902 6.08246 10.7898 5.98206Q10.6894 5.88165 10.5511 5.88165L4.05045 5.88165Q3.90503 5.88165 3.80959 5.98206Q3.71414 6.08246 3.71414 6.21796Q3.71414 6.36063 3.80959 6.4637Q3.90503 6.56677 4.05045 6.56677ZM4.05045 8.88321L8.71414 8.88321Q8.85666 8.88321 8.95844 8.78281Q9.06021 8.6824 9.06021 8.54691Q9.06021 8.40439 8.95844 8.30124Q8.85666 8.19809 8.71414 8.19809L4.05045 8.19809Q3.90503 8.19809 3.80959 8.30124Q3.71414 8.40439 3.71414 8.54691Q3.71414 8.6824 3.80959 8.78281Q3.90503 8.88321 4.05045 8.88321Z" fill="#ffffff"/>
 </g>
</svg>
