<?xml version="1.0" encoding="UTF-8"?>
<!--Generator: Apple Native CoreSVG 175-->
<!DOCTYPE svg
PUBLIC "-//W3C//DTD SVG 1.1//EN"
       "http://www.w3.org/Graphics/SVG/1.1/DTD/svg11.dtd">
<svg version="1.1" xmlns="http://www.w3.org/2000/svg" xmlns:xlink="http://www.w3.org/1999/xlink" width="22.6617" height="17.3035">
 <g>
  <rect height="17.3035" opacity="0" width="22.6617" x="0" y="0"/>
  <path d="M3.90045 4.94064L10.818 4.94064Q10.9535 4.94064 11.0553 4.83887Q11.1571 4.73709 11.1571 4.59885Q11.1571 4.45618 11.0553 4.35577Q10.9535 4.25537 10.818 4.25537L3.90045 4.25537Q3.75504 4.25537 3.65959 4.35577Q3.56415 4.45618 3.56415 4.59885Q3.56415 4.73709 3.65959 4.83887Q3.75504 4.94064 3.90045 4.94064ZM3.90045 7.25983L8.98087 7.25983Q9.12338 7.25983 9.22516 7.16156Q9.32693 7.06329 9.32693 6.92078Q9.32693 6.77811 9.22516 6.67984Q9.12338 6.58157 8.98087 6.58157L3.90045 6.58157Q3.75504 6.58157 3.65959 6.67984Q3.56415 6.77811 3.56415 6.92078Q3.56415 7.06329 3.65959 7.16156Q3.75504 7.25983 3.90045 7.25983ZM16.7778 7.96646Q17.4223 7.96646 17.9497 7.64908Q18.477 7.3317 18.7944 6.79947Q19.1118 6.26724 19.1118 5.62271Q19.1118 4.97818 18.7944 4.44595Q18.477 3.91373 17.9497 3.59634Q17.4223 3.27896 16.7778 3.27896Q16.1333 3.27896 15.601 3.59634Q15.0688 3.91373 14.7514 4.44595Q14.4341 4.97818 14.4341 5.62271Q14.4341 6.26724 14.7514 6.79947Q15.0688 7.3317 15.601 7.64908Q16.1333 7.96646 16.7778 7.96646ZM2.63046 17.2894L20.0243 17.2894Q21.3281 17.2894 21.9949 16.617Q22.6617 15.9445 22.6617 14.6655L22.6617 2.6265Q22.6617 1.35468 21.9949 0.677338Q21.3281 0 20.0243 0L2.63046 0Q1.33636 0 0.668182 0.668945Q0 1.33789 0 2.6265L0 14.6655Q0 15.9586 0.668182 16.624Q1.33636 17.2894 2.63046 17.2894ZM2.65701 16.568Q1.7067 16.568 1.21765 16.0767Q0.728607 15.5855 0.728607 14.6269L0.728607 2.66525Q0.728607 1.7067 1.21765 1.21758Q1.7067 0.728455 2.65701 0.728455L20.0047 0.728455Q20.9242 0.728455 21.4287 1.21758Q21.9331 1.7067 21.9331 2.66525L21.9331 14.6269Q21.9331 15.5855 21.4287 16.0767Q20.9242 16.568 20.0047 16.568Z" fill="#ffffff"/>
 </g>
</svg>
