<?xml version="1.0" encoding="UTF-8"?>
<!--Generator: Apple Native CoreSVG 175.5-->
<!DOCTYPE svg
PUBLIC "-//W3C//DTD SVG 1.1//EN"
       "http://www.w3.org/Graphics/SVG/1.1/DTD/svg11.dtd">
<svg version="1.1" xmlns="http://www.w3.org/2000/svg" xmlns:xlink="http://www.w3.org/1999/xlink" width="17.9785" height="17.998">
 <g>
  <rect height="17.998" opacity="0" width="17.9785" x="0" y="0"/>
  <path d="M3.06641 17.998L14.9121 17.998Q16.4453 17.998 17.2119 17.2412Q17.9785 16.4844 17.9785 14.9707L17.9785 3.04688Q17.9785 1.5332 17.2119 0.776367Q16.4453 0.0195312 14.9121 0.0195312L3.06641 0.0195312Q1.5332 0.0195312 0.766602 0.776367Q0 1.5332 0 3.04688L0 14.9707Q0 16.4844 0.766602 17.2412Q1.5332 17.998 3.06641 17.998Z" fill="rgba(255,255,255,0.25)"/>
  <path d="M6.68945 5.21484Q6.68945 4.58008 7.00195 4.0625Q7.31445 3.54492 7.83691 3.23242Q8.35938 2.91992 8.99414 2.91992Q9.62891 2.91992 10.1514 3.23242Q10.6738 3.54492 10.9863 4.0625Q11.2988 4.58008 11.2988 5.21484Q11.2988 5.99609 10.8398 6.5918Q10.3809 7.1875 9.6875 7.40234L9.6875 12.4414Q9.6875 13.1934 9.60938 13.833Q9.53125 14.4727 9.37988 14.8584Q9.22852 15.2441 8.99414 15.2441Q8.75977 15.2441 8.60352 14.8535Q8.44727 14.4629 8.36914 13.8232Q8.29102 13.1836 8.29102 12.4414L8.29102 7.40234Q7.59766 7.17773 7.14355 6.58203Q6.68945 5.98633 6.68945 5.21484ZM7.66602 4.62891Q7.67578 4.92188 7.89551 5.1416Q8.11523 5.36133 8.39844 5.36133Q8.70117 5.36133 8.91602 5.1416Q9.13086 4.92188 9.13086 4.62891Q9.13086 4.33594 8.91602 4.11133Q8.70117 3.88672 8.39844 3.88672Q8.11523 3.88672 7.89062 4.11133Q7.66602 4.33594 7.66602 4.62891Z" fill="#ffffff"/>
 </g>
</svg>
