<?xml version="1.0" encoding="UTF-8"?>
<!--Generator: Apple Native CoreSVG 175-->
<!DOCTYPE svg
PUBLIC "-//W3C//DTD SVG 1.1//EN"
       "http://www.w3.org/Graphics/SVG/1.1/DTD/svg11.dtd">
<svg version="1.1" xmlns="http://www.w3.org/2000/svg" xmlns:xlink="http://www.w3.org/1999/xlink" width="19.1602" height="19.1504">
 <g>
  <rect height="19.1504" opacity="0" width="19.1602" x="0" y="0"/>
  <path d="M9.57031 19.1406Q11.5527 19.1406 13.2861 18.3984Q15.0195 17.6562 16.3379 16.333Q17.6562 15.0098 18.4082 13.2764Q19.1602 11.543 19.1602 9.57031Q19.1602 7.59766 18.4082 5.86426Q17.6562 4.13086 16.3379 2.80762Q15.0195 1.48438 13.2861 0.742188Q11.5527 0 9.57031 0Q7.59766 0 5.86426 0.742188Q4.13086 1.48438 2.81738 2.80762Q1.50391 4.13086 0.751953 5.86426Q0 7.59766 0 9.57031Q0 11.543 0.74707 13.2764Q1.49414 15.0098 2.8125 16.333Q4.13086 17.6562 5.86914 18.3984Q7.60742 19.1406 9.57031 19.1406ZM9.57031 18.3984Q7.74414 18.3984 6.14746 17.71Q4.55078 17.0215 3.33496 15.8105Q2.11914 14.5996 1.43555 12.998Q0.751953 11.3965 0.751953 9.57031Q0.751953 7.74414 1.43555 6.14258Q2.11914 4.54102 3.33496 3.3252Q4.55078 2.10938 6.14746 1.4209Q7.74414 0.732422 9.57031 0.732422Q11.4062 0.732422 13.0029 1.4209Q14.5996 2.10938 15.8154 3.3252Q17.0312 4.54102 17.7197 6.14258Q18.4082 7.74414 18.4082 9.57031Q18.4082 11.3965 17.7246 12.998Q17.041 14.5996 15.8252 15.8105Q14.6094 17.0215 13.0078 17.71Q11.4062 18.3984 9.57031 18.3984Z" fill="rgba(255,255,255,0.5)"/>
  <path d="M7.71484 5.55664Q7.71484 6.23047 8.1543 6.73828Q8.59375 7.24609 9.23828 7.37305L9.23828 13.9648Q9.23828 14.4824 9.28223 14.8486Q9.32617 15.2148 9.4043 15.4102Q9.48242 15.6055 9.57031 15.6055Q9.66797 15.6055 9.74121 15.4102Q9.81445 15.2148 9.85352 14.8486Q9.89258 14.4824 9.89258 13.9648L9.89258 7.37305Q10.5469 7.24609 10.9863 6.74316Q11.4258 6.24023 11.4258 5.55664Q11.4258 5.03906 11.1768 4.61914Q10.9277 4.19922 10.5078 3.9502Q10.0879 3.70117 9.57031 3.70117Q9.0625 3.70117 8.6377 3.9502Q8.21289 4.19922 7.96387 4.61914Q7.71484 5.03906 7.71484 5.55664ZM8.4668 5.06836Q8.45703 4.80469 8.65234 4.61914Q8.84766 4.43359 9.10156 4.43359Q9.3457 4.43359 9.53125 4.61914Q9.7168 4.80469 9.70703 5.06836Q9.69727 5.32227 9.52148 5.50781Q9.3457 5.69336 9.10156 5.69336Q8.84766 5.69336 8.66211 5.50781Q8.47656 5.32227 8.4668 5.06836Z" fill="#ffffff"/>
 </g>
</svg>
