<?xml version="1.0" encoding="UTF-8"?>
<!--Generator: Apple Native CoreSVG 175-->
<!DOCTYPE svg
PUBLIC "-//W3C//DTD SVG 1.1//EN"
       "http://www.w3.org/Graphics/SVG/1.1/DTD/svg11.dtd">
<svg version="1.1" xmlns="http://www.w3.org/2000/svg" xmlns:xlink="http://www.w3.org/1999/xlink" width="19.1602" height="19.1504">
 <g>
  <rect height="19.1504" opacity="0" width="19.1602" x="0" y="0"/>
  <path d="M9.57031 19.1406Q11.5527 19.1406 13.2861 18.3984Q15.0195 17.6562 16.3379 16.333Q17.6562 15.0098 18.4082 13.2764Q19.1602 11.543 19.1602 9.57031Q19.1602 7.59766 18.4082 5.86426Q17.6562 4.13086 16.3379 2.80762Q15.0195 1.48438 13.2861 0.742188Q11.5527 0 9.57031 0Q7.59766 0 5.86426 0.742188Q4.13086 1.48438 2.81738 2.80762Q1.50391 4.13086 0.751953 5.86426Q0 7.59766 0 9.57031Q0 11.543 0.74707 13.2764Q1.49414 15.0098 2.8125 16.333Q4.13086 17.6562 5.86914 18.3984Q7.60742 19.1406 9.57031 19.1406ZM9.57031 18.3984Q7.74414 18.3984 6.14746 17.71Q4.55078 17.0215 3.33496 15.8105Q2.11914 14.5996 1.43555 12.998Q0.751953 11.3965 0.751953 9.57031Q0.751953 7.74414 1.43555 6.14258Q2.11914 4.54102 3.33496 3.3252Q4.55078 2.10938 6.14746 1.4209Q7.74414 0.732422 9.57031 0.732422Q11.4062 0.732422 13.0029 1.4209Q14.5996 2.10938 15.8154 3.3252Q17.0312 4.54102 17.7197 6.14258Q18.4082 7.74414 18.4082 9.57031Q18.4082 11.3965 17.7246 12.998Q17.041 14.5996 15.8252 15.8105Q14.6094 17.0215 13.0078 17.71Q11.4062 18.3984 9.57031 18.3984Z" fill="rgba(255,255,255,0.5)"/>
  <path d="M9.93164 7.51953Q10.5957 7.39258 11.0498 6.86035Q11.5039 6.32812 11.5039 5.625Q11.5039 5.09766 11.2402 4.6582Q10.9766 4.21875 10.5371 3.95996Q10.0977 3.70117 9.57031 3.70117Q8.86719 3.70117 8.33008 4.14551Q7.79297 4.58984 7.67578 5.25391ZM8.4668 5.06836Q8.45703 4.81445 8.64746 4.62402Q8.83789 4.43359 9.0918 4.43359Q9.3457 4.43359 9.53125 4.62402Q9.7168 4.81445 9.70703 5.06836Q9.70703 5.32227 9.52637 5.50781Q9.3457 5.69336 9.0918 5.69336Q8.83789 5.69336 8.65234 5.50781Q8.4668 5.32227 8.4668 5.06836ZM9.24805 10.3516L9.24805 13.9648Q9.24805 14.4824 9.28711 14.8486Q9.32617 15.2148 9.39941 15.4053Q9.47266 15.5957 9.57031 15.5957Q9.66797 15.5957 9.73633 15.4053Q9.80469 15.2148 9.85352 14.8535Q9.90234 14.4922 9.90234 13.9648L9.90234 11.0059ZM14.3066 14.7266Q14.3945 14.8145 14.5166 14.8145Q14.6387 14.8145 14.7266 14.7266Q14.8145 14.6289 14.8145 14.5117Q14.8145 14.3945 14.7266 14.3066L4.83398 4.4043Q4.74609 4.31641 4.62402 4.31641Q4.50195 4.31641 4.41406 4.4043Q4.31641 4.50195 4.32617 4.61914Q4.33594 4.73633 4.41406 4.82422Z" fill="#ffffff"/>
 </g>
</svg>
