<?xml version="1.0" encoding="UTF-8"?>
<!--Generator: Apple Native CoreSVG 175-->
<!DOCTYPE svg
PUBLIC "-//W3C//DTD SVG 1.1//EN"
       "http://www.w3.org/Graphics/SVG/1.1/DTD/svg11.dtd">
<svg version="1.1" xmlns="http://www.w3.org/2000/svg" xmlns:xlink="http://www.w3.org/1999/xlink" width="17.2852" height="17.3145">
 <g>
  <rect height="17.3145" opacity="0" width="17.2852" x="0" y="0"/>
  <path d="M2.62695 17.3145L14.6484 17.3145Q15.957 17.3145 16.6211 16.6455Q17.2852 15.9766 17.2852 14.6875L17.2852 2.65625Q17.2852 1.37695 16.6211 0.703125Q15.957 0.0292969 14.6484 0.0292969L2.62695 0.0292969Q1.33789 0.0292969 0.668945 0.693359Q0 1.35742 0 2.65625L0 14.6875Q0 15.9863 0.668945 16.6504Q1.33789 17.3145 2.62695 17.3145Z" fill="rgba(255,255,255,0.25)"/>
  <path d="M6.77734 4.60938Q6.77734 4.0918 7.03125 3.66699Q7.28516 3.24219 7.70996 2.98828Q8.13477 2.73438 8.65234 2.73438Q9.16992 2.73438 9.59473 2.98828Q10.0195 3.24219 10.2686 3.66699Q10.5176 4.0918 10.5176 4.60938Q10.5176 5.30273 10.0781 5.81055Q9.63867 6.31836 8.98438 6.43555L8.98438 13.0664Q8.98438 13.5938 8.94043 13.9648Q8.89648 14.3359 8.82324 14.5312Q8.75 14.7266 8.65234 14.7266Q8.55469 14.7266 8.47656 14.5264Q8.39844 14.3262 8.35938 13.96Q8.32031 13.5938 8.32031 13.0664L8.32031 6.43555Q7.65625 6.31836 7.2168 5.80566Q6.77734 5.29297 6.77734 4.60938ZM7.53906 4.12109Q7.54883 4.375 7.73438 4.56055Q7.91992 4.74609 8.17383 4.74609Q8.42773 4.74609 8.60352 4.56055Q8.7793 4.375 8.78906 4.12109Q8.79883 3.86719 8.61328 3.67676Q8.42773 3.48633 8.17383 3.48633Q7.91992 3.48633 7.72461 3.67676Q7.5293 3.86719 7.53906 4.12109Z" fill="#ffffff"/>
 </g>
</svg>
