<?xml version="1.0" encoding="UTF-8"?>
<!--Generator: Apple Native CoreSVG 175.5-->
<!DOCTYPE svg
PUBLIC "-//W3C//DTD SVG 1.1//EN"
       "http://www.w3.org/Graphics/SVG/1.1/DTD/svg11.dtd">
<svg version="1.1" xmlns="http://www.w3.org/2000/svg" xmlns:xlink="http://www.w3.org/1999/xlink" width="19.9219" height="19.9316">
 <g>
  <rect height="19.9316" opacity="0" width="19.9219" x="0" y="0"/>
  <path d="M9.96094 19.9219Q12.002 19.9219 13.8037 19.1406Q15.6055 18.3594 16.9824 16.9824Q18.3594 15.6055 19.1406 13.8037Q19.9219 12.002 19.9219 9.96094Q19.9219 7.91992 19.1406 6.11816Q18.3594 4.31641 16.9824 2.93945Q15.6055 1.5625 13.7988 0.78125Q11.9922 0 9.95117 0Q7.91016 0 6.1084 0.78125Q4.30664 1.5625 2.93457 2.93945Q1.5625 4.31641 0.78125 6.11816Q0 7.91992 0 9.96094Q0 12.002 0.78125 13.8037Q1.5625 15.6055 2.93945 16.9824Q4.31641 18.3594 6.11816 19.1406Q7.91992 19.9219 9.96094 19.9219ZM9.96094 18.2617Q8.23242 18.2617 6.72852 17.6172Q5.22461 16.9727 4.08691 15.835Q2.94922 14.6973 2.30957 13.1934Q1.66992 11.6895 1.66992 9.96094Q1.66992 8.23242 2.30957 6.72852Q2.94922 5.22461 4.08203 4.08203Q5.21484 2.93945 6.71875 2.2998Q8.22266 1.66016 9.95117 1.66016Q11.6797 1.66016 13.1885 2.2998Q14.6973 2.93945 15.835 4.08203Q16.9727 5.22461 17.6172 6.72852Q18.2617 8.23242 18.2617 9.96094Q18.2617 11.6895 17.6221 13.1934Q16.9824 14.6973 15.8398 15.835Q14.6973 16.9727 13.1934 17.6172Q11.6895 18.2617 9.96094 18.2617Z" fill="rgba(255,255,255,0.5)"/>
  <path d="M7.72461 6.29883Q7.72461 7.04102 8.16406 7.62207Q8.60352 8.20312 9.27734 8.41797L9.27734 13.3203Q9.27734 14.0332 9.35059 14.6533Q9.42383 15.2734 9.5752 15.6494Q9.72656 16.0254 9.95117 16.0254Q10.1758 16.0254 10.3223 15.6494Q10.4688 15.2734 10.542 14.6582Q10.6152 14.043 10.6152 13.3203L10.6152 8.41797Q11.2988 8.21289 11.7383 7.63184Q12.1777 7.05078 12.1777 6.29883Q12.1777 5.68359 11.875 5.18066Q11.5723 4.67773 11.0693 4.375Q10.5664 4.07227 9.95117 4.07227Q9.33594 4.07227 8.83301 4.375Q8.33008 4.67773 8.02734 5.18066Q7.72461 5.68359 7.72461 6.29883ZM8.66211 5.73242Q8.66211 5.43945 8.87695 5.22461Q9.0918 5.00977 9.375 5.00977Q9.66797 5.00977 9.87793 5.22461Q10.0879 5.43945 10.0879 5.73242Q10.0879 6.01562 9.87793 6.22559Q9.66797 6.43555 9.375 6.43555Q9.0918 6.43555 8.88184 6.22559Q8.67188 6.01562 8.66211 5.73242Z" fill="#ffffff"/>
 </g>
</svg>
