<?xml version="1.0" encoding="UTF-8"?>
<!--Generator: Apple Native CoreSVG 175.5-->
<!DOCTYPE svg
PUBLIC "-//W3C//DTD SVG 1.1//EN"
       "http://www.w3.org/Graphics/SVG/1.1/DTD/svg11.dtd">
<svg version="1.1" xmlns="http://www.w3.org/2000/svg" xmlns:xlink="http://www.w3.org/1999/xlink" width="7.33398" height="21.4551">
 <g>
  <rect height="21.4551" opacity="0" width="7.33398" x="0" y="0"/>
  <path d="M0 3.68164Q0 4.54102 0.356445 5.27344Q0.712891 6.00586 1.33789 6.52344Q1.96289 7.04102 2.75391 7.23633L2.75391 16.2988Q2.75391 17.3828 2.8418 18.208Q2.92969 19.0332 3.06641 19.5996Q3.20312 20.166 3.35938 20.459Q3.51562 20.752 3.66211 20.752Q3.80859 20.752 3.96973 20.4639Q4.13086 20.1758 4.2627 19.6094Q4.39453 19.043 4.48242 18.2129Q4.57031 17.3828 4.57031 16.2988L4.57031 7.23633Q5.36133 7.04102 5.98633 6.52344Q6.61133 6.00586 6.97266 5.27344Q7.33398 4.54102 7.33398 3.68164Q7.33398 2.66602 6.84082 1.83105Q6.34766 0.996094 5.51758 0.498047Q4.6875 0 3.66211 0Q2.64648 0 1.81641 0.498047Q0.986328 0.996094 0.493164 1.83105Q0 2.66602 0 3.68164Z" fill="#ffffff"/>
  <path d="M2.60742 3.87695Q2.10938 3.87695 1.7334 3.50098Q1.35742 3.125 1.35742 2.61719Q1.35742 2.10938 1.7334 1.73828Q2.10938 1.36719 2.60742 1.36719Q3.125 1.36719 3.49609 1.73828Q3.86719 2.10938 3.86719 2.61719Q3.86719 3.125 3.49609 3.50098Q3.125 3.87695 2.60742 3.87695Z" fill="none"/>
 </g>
</svg>
