<?xml version="1.0" encoding="UTF-8"?>
<!--Generator: Apple Native CoreSVG 175-->
<!DOCTYPE svg
PUBLIC "-//W3C//DTD SVG 1.1//EN"
       "http://www.w3.org/Graphics/SVG/1.1/DTD/svg11.dtd">
<svg version="1.1" xmlns="http://www.w3.org/2000/svg" xmlns:xlink="http://www.w3.org/1999/xlink" width="17.3535" height="19.834">
 <g>
  <rect height="19.834" opacity="0" width="17.3535" x="0" y="0"/>
  <path d="M8.67188 19.834Q10.5957 19.834 12.1875 19.5557Q13.7793 19.2773 14.9365 18.7842Q16.0938 18.291 16.7236 17.6123Q17.3535 16.9336 17.3535 16.1426Q17.3535 15.5469 16.9531 15.0342Q16.5527 14.5215 15.874 14.1113Q15.1953 13.7012 14.3506 13.4082Q13.5059 13.1152 12.5928 12.9541Q11.6797 12.793 10.8301 12.7832L10.8301 13.457Q11.7383 13.4766 12.7295 13.6719Q13.7207 13.8672 14.585 14.2188Q15.4492 14.5703 15.9912 15.0439Q16.5332 15.5176 16.5332 16.0938Q16.5332 16.7676 15.9375 17.3291Q15.3418 17.8906 14.2676 18.2959Q13.1934 18.7012 11.7627 18.916Q10.332 19.1309 8.67188 19.1309Q7.01172 19.1309 5.58105 18.916Q4.15039 18.7012 3.08105 18.3008Q2.01172 17.9004 1.41113 17.3389Q0.810547 16.7773 0.810547 16.0938Q0.810547 15.5176 1.35254 15.0439Q1.89453 14.5703 2.75879 14.2188Q3.62305 13.8672 4.61914 13.6719Q5.61523 13.4766 6.52344 13.457L6.52344 12.7832Q5.67383 12.793 4.76074 12.9541Q3.84766 13.1152 3.00293 13.4082Q2.1582 13.7012 1.47461 14.1113Q0.791016 14.5215 0.395508 15.0342Q0 15.5469 0 16.1426Q0 16.9336 0.629883 17.6123Q1.25977 18.291 2.41699 18.7842Q3.57422 19.2773 5.16602 19.5557Q6.75781 19.834 8.67188 19.834Z" fill="rgba(255,255,255,0.5)"/>
  <path d="M5.89844 3.16406Q5.89844 3.86719 6.21094 4.46289Q6.52344 5.05859 7.06543 5.44922Q7.60742 5.83984 8.30078 5.91797L8.30078 14.834Q8.30078 15.332 8.33496 15.7129Q8.36914 16.0938 8.42285 16.3428Q8.47656 16.5918 8.54004 16.7139Q8.60352 16.8359 8.67188 16.8359Q8.74023 16.8359 8.80371 16.7139Q8.86719 16.5918 8.92578 16.3428Q8.98438 16.0938 9.01855 15.7178Q9.05273 15.3418 9.05273 14.834L9.05273 5.91797Q9.73633 5.83984 10.2783 5.44922Q10.8203 5.05859 11.1377 4.46289Q11.4551 3.86719 11.4551 3.16406Q11.4551 2.39258 11.084 1.75781Q10.7129 1.12305 10.083 0.74707Q9.45312 0.371094 8.67188 0.371094Q7.90039 0.371094 7.27051 0.74707Q6.64062 1.12305 6.26953 1.75781Q5.89844 2.39258 5.89844 3.16406ZM7.79297 3.22266Q7.41211 3.22266 7.12402 2.94434Q6.83594 2.66602 6.83594 2.27539Q6.83594 1.88477 7.12402 1.60156Q7.41211 1.31836 7.79297 1.31836Q8.17383 1.31836 8.45703 1.60156Q8.74023 1.88477 8.74023 2.27539Q8.74023 2.66602 8.45703 2.94434Q8.17383 3.22266 7.79297 3.22266Z" fill="#ffffff"/>
 </g>
</svg>
