<?xml version="1.0" encoding="UTF-8"?>
<!--Generator: Apple Native CoreSVG 175.5-->
<!DOCTYPE svg
PUBLIC "-//W3C//DTD SVG 1.1//EN"
       "http://www.w3.org/Graphics/SVG/1.1/DTD/svg11.dtd">
<svg version="1.1" xmlns="http://www.w3.org/2000/svg" xmlns:xlink="http://www.w3.org/1999/xlink" width="15.6055" height="22.1757">
 <g>
  <rect height="22.1757" opacity="0" width="15.6055" x="0" y="0"/>
  <path d="M1.8457 20.2236L12.5293 22.1083Q13.4863 22.2841 14.1748 22.0009Q14.8633 21.7177 15.2344 21.0244Q15.6055 20.331 15.6055 19.2861L15.6055 7.49896Q15.6055 6.06341 14.8779 5.43841Q14.1504 4.81341 12.7246 4.55951L2.35352 2.72357Q1.64062 2.60638 1.11328 2.80658Q0.585938 3.00677 0.292969 3.48041Q0 3.95404 0 4.65716L0 18.0947Q0 19.0029 0.463867 19.5351Q0.927734 20.0673 1.8457 20.2236ZM3.60352 8.14349Q3.34961 8.10443 3.21289 7.92377Q3.07617 7.7431 3.07617 7.47943Q3.07617 7.16693 3.2959 6.98627Q3.51562 6.8056 3.86719 6.8642L11.582 8.21185Q12.1289 8.32904 12.1289 8.87591Q12.1289 9.18841 11.9238 9.37884Q11.7188 9.56927 11.3574 9.51068ZM3.60352 12.0693Q3.34961 12.0302 3.21289 11.8495Q3.07617 11.6689 3.07617 11.4052Q3.07617 11.1025 3.2959 10.9218Q3.51562 10.7411 3.86719 10.7997L11.582 12.1474Q12.1289 12.2451 12.1289 12.8017Q12.1289 13.124 11.9238 13.3144Q11.7188 13.5048 11.3574 13.4462ZM4.51172 1.75677L12.959 3.24115Q14.1895 3.46576 15.0488 3.93451L15.0488 3.17279Q15.0488 1.62982 14.0723 0.936461Q13.0957 0.243102 11.3574 0.545836Z" fill="#ffffff"/>
 </g>
</svg>
