<?xml version="1.0" encoding="UTF-8"?>
<!--Generator: Apple Native CoreSVG 175-->
<!DOCTYPE svg
PUBLIC "-//W3C//DTD SVG 1.1//EN"
       "http://www.w3.org/Graphics/SVG/1.1/DTD/svg11.dtd">
<svg version="1.1" xmlns="http://www.w3.org/2000/svg" xmlns:xlink="http://www.w3.org/1999/xlink" width="19.1602" height="19.1504">
 <g>
  <rect height="19.1504" opacity="0" width="19.1602" x="0" y="0"/>
  <path d="M9.57031 19.1504Q11.5527 19.1504 13.2861 18.4082Q15.0195 17.666 16.3379 16.3428Q17.6562 15.0195 18.4082 13.2861Q19.1602 11.5527 19.1602 9.58008Q19.1602 7.60742 18.4082 5.87402Q17.6562 4.14062 16.3379 2.81738Q15.0195 1.49414 13.2861 0.751953Q11.5527 0.00976562 9.57031 0.00976562Q7.59766 0.00976562 5.86426 0.751953Q4.13086 1.49414 2.81738 2.81738Q1.50391 4.14062 0.751953 5.87402Q0 7.60742 0 9.58008Q0 11.5527 0.74707 13.2861Q1.49414 15.0195 2.8125 16.3428Q4.13086 17.666 5.86914 18.4082Q7.60742 19.1504 9.57031 19.1504Z" fill="rgba(255,255,255,0.25)"/>
  <path d="M9.57031 13.6328Q9.375 13.6328 9.18457 13.623Q8.99414 13.6133 8.81836 13.6133Q8.70117 13.6133 8.59375 13.6816Q7.87109 14.1016 7.17285 14.3555Q6.47461 14.6094 6.08398 14.6094Q5.81055 14.6094 5.76172 14.4385Q5.71289 14.2676 5.87891 14.0723Q6.04492 13.8965 6.23047 13.6328Q6.41602 13.3691 6.55273 13.125Q6.66016 12.959 6.49414 12.8906Q5.35156 12.3047 4.68262 11.2939Q4.01367 10.2832 4.01367 9.10156Q4.01367 7.8418 4.75586 6.81152Q5.49805 5.78125 6.75781 5.16602Q8.01758 4.55078 9.57031 4.55078Q11.1328 4.55078 12.3975 5.16602Q13.6621 5.78125 14.3994 6.81152Q15.1367 7.8418 15.1367 9.10156Q15.1367 10.3516 14.3994 11.3818Q13.6621 12.4121 12.3975 13.0225Q11.1328 13.6328 9.57031 13.6328Z" fill="#ffffff"/>
 </g>
</svg>
