<?xml version="1.0" encoding="UTF-8"?>
<!--Generator: Apple Native CoreSVG 175-->
<!DOCTYPE svg
PUBLIC "-//W3C//DTD SVG 1.1//EN"
       "http://www.w3.org/Graphics/SVG/1.1/DTD/svg11.dtd">
<svg version="1.1" xmlns="http://www.w3.org/2000/svg" xmlns:xlink="http://www.w3.org/1999/xlink" width="21.3329" height="19.2776">
 <g>
  <rect height="19.2776" opacity="0" width="21.3329" x="0" y="0"/>
  <path d="M4.01337 19.2636Q4.54102 19.2636 5.38284 18.996Q6.22467 18.7285 7.202 18.2687Q8.17932 17.809 9.1095 17.2437Q10.9676 17.4429 12.7496 17.1487Q14.5317 16.8546 16.0851 16.122Q17.6384 15.3894 18.8167 14.2831Q19.995 13.1769 20.6639 11.7548Q21.3329 10.3328 21.3329 8.65891Q21.3329 6.86951 20.5135 5.30037Q19.6942 3.73123 18.2319 2.53998Q16.7696 1.34872 14.8352 0.674362Q12.9008 0 10.6664 0Q8.43903 0 6.50116 0.674362Q4.56329 1.34872 3.10097 2.53998Q1.63864 3.73123 0.819321 5.30037Q0 6.86951 0 8.65891Q0 10.2324 0.636139 11.6398Q1.27228 13.0472 2.42249 14.1862Q3.57269 15.3253 5.11566 16.0805Q4.89807 16.4819 4.61723 16.8788Q4.3364 17.2757 4.05899 17.6216Q3.78159 17.9675 3.57819 18.2086Q3.34534 18.4871 3.32344 18.7275Q3.30154 18.9679 3.47733 19.1158Q3.65311 19.2636 4.01337 19.2636ZM4.3074 18.5214Q4.24881 18.5269 4.23988 18.4962Q4.23096 18.4656 4.27704 18.4097Q4.60281 18.0074 5.1149 17.3771Q5.62698 16.7468 5.92316 16.1234Q6.01562 15.9323 5.97267 15.7788Q5.92972 15.6253 5.73517 15.5344Q4.20898 14.8285 3.0912 13.7794Q1.97342 12.7304 1.36482 11.4285Q0.756226 10.1265 0.756226 8.65891Q0.756226 7.01447 1.52245 5.58144Q2.28867 4.14841 3.64594 3.05954Q5.0032 1.97067 6.80275 1.35857Q8.60229 0.74646 10.6664 0.74646Q12.7304 0.74646 14.53 1.35857Q16.3297 1.97067 17.6869 3.05954Q19.0442 4.14841 19.8117 5.58144Q20.5792 7.01447 20.5792 8.65891Q20.5792 10.3008 19.8117 11.7386Q19.0442 13.1764 17.6869 14.2639Q16.3297 15.3514 14.53 15.9671Q12.7304 16.5828 10.6664 16.5828Q10.309 16.5828 9.95079 16.5568Q9.59259 16.5308 9.20822 16.4999Q9.06021 16.4929 8.90335 16.5321Q8.74649 16.5714 8.60672 16.6597Q7.79999 17.1245 6.96487 17.5356Q6.12976 17.9468 5.42427 18.2152Q4.71878 18.4836 4.3074 18.5214Z" fill="#ffffff"/>
 </g>
</svg>
