<?xml version="1.0" encoding="UTF-8"?>
<!--Generator: Apple Native CoreSVG 175.5-->
<!DOCTYPE svg
PUBLIC "-//W3C//DTD SVG 1.1//EN"
       "http://www.w3.org/Graphics/SVG/1.1/DTD/svg11.dtd">
<svg version="1.1" xmlns="http://www.w3.org/2000/svg" xmlns:xlink="http://www.w3.org/1999/xlink" width="16.6113" height="22.0996">
 <g>
  <rect height="22.0996" opacity="0" width="16.6113" x="0" y="0"/>
  <path d="M1.17188 10.2246Q1.17188 12.1387 1.95801 13.623Q2.74414 15.1074 4.15039 16.001Q5.55664 16.8945 7.42188 17.0508L7.42188 19.3262L3.79883 19.3262Q3.48633 19.3262 3.27148 19.541Q3.05664 19.7559 3.05664 20.0684Q3.05664 20.3711 3.27148 20.5859Q3.48633 20.8008 3.79883 20.8008L12.5195 20.8008Q12.832 20.8008 13.0469 20.5859Q13.2617 20.3711 13.2617 20.0684Q13.2617 19.7559 13.0469 19.541Q12.832 19.3262 12.5195 19.3262L8.89648 19.3262L8.89648 17.0508Q9.72656 16.9922 10.4639 16.7725Q11.2012 16.5527 11.8359 16.1914L10.791 15.1367Q10.2246 15.4102 9.56543 15.5566Q8.90625 15.7031 8.16406 15.7031Q6.49414 15.7031 5.25391 15.0146Q4.01367 14.3262 3.33008 13.0762Q2.64648 11.8262 2.64648 10.166L2.64648 8.24219Q2.64648 7.93945 2.43164 7.72461Q2.2168 7.50977 1.9043 7.50977Q1.60156 7.50977 1.38672 7.72461Q1.17188 7.93945 1.17188 8.24219ZM13.3301 12.2363L14.4727 13.3789Q15.1465 11.9629 15.1465 10.2246L15.1465 8.24219Q15.1465 7.93945 14.9316 7.72461Q14.7168 7.50977 14.4141 7.50977Q14.1016 7.50977 13.8867 7.72461Q13.6719 7.93945 13.6719 8.24219L13.6719 10.166Q13.6719 11.2793 13.3301 12.2363ZM8.16406 13.6035Q8.68164 13.6035 9.10156 13.4473L4.90234 9.24805L4.90234 10.0684Q4.90234 11.1133 5.3125 11.9092Q5.72266 12.7051 6.45508 13.1543Q7.1875 13.6035 8.16406 13.6035ZM8.16406 0Q9.13086 0 9.86816 0.449219Q10.6055 0.898438 11.0107 1.69434Q11.416 2.49023 11.416 3.53516L11.416 10.0684Q11.416 10.127 11.4111 10.1904Q11.4062 10.2539 11.3867 10.3027L4.90234 3.81836L4.90234 3.42773Q4.92188 2.41211 5.33691 1.64062Q5.75195 0.869141 6.47461 0.43457Q7.19727 0 8.16406 0Z" fill="rgba(255,255,255,0.5)"/>
  <path d="M15.332 18.0176Q15.5469 18.2324 15.8643 18.2324Q16.1816 18.2324 16.3965 18.0176Q16.6113 17.793 16.6113 17.4805Q16.6113 17.168 16.3965 16.9531L1.28906 1.85547Q1.06445 1.64062 0.751953 1.64062Q0.439453 1.64062 0.214844 1.85547Q0 2.07031 0 2.39258Q0 2.71484 0.214844 2.91992Z" fill="#ffffff"/>
 </g>
</svg>
