<?xml version="1.0" encoding="UTF-8"?>
<!--Generator: Apple Native CoreSVG 175.5-->
<!DOCTYPE svg
PUBLIC "-//W3C//DTD SVG 1.1//EN"
       "http://www.w3.org/Graphics/SVG/1.1/DTD/svg11.dtd">
<svg version="1.1" xmlns="http://www.w3.org/2000/svg" xmlns:xlink="http://www.w3.org/1999/xlink" width="19.9219" height="19.9316">
 <g>
  <rect height="19.9316" opacity="0" width="19.9219" x="0" y="0"/>
  <path d="M9.96094 19.9219Q12.002 19.9219 13.8037 19.1406Q15.6055 18.3594 16.9824 16.9824Q18.3594 15.6055 19.1406 13.8037Q19.9219 12.002 19.9219 9.96094Q19.9219 7.91992 19.1406 6.11816Q18.3594 4.31641 16.9824 2.93945Q15.6055 1.5625 13.7988 0.78125Q11.9922 0 9.95117 0Q7.91016 0 6.1084 0.78125Q4.30664 1.5625 2.93457 2.93945Q1.5625 4.31641 0.78125 6.11816Q0 7.91992 0 9.96094Q0 12.002 0.78125 13.8037Q1.5625 15.6055 2.93945 16.9824Q4.31641 18.3594 6.11816 19.1406Q7.91992 19.9219 9.96094 19.9219Z" fill="rgba(255,255,255,0.25)"/>
  <path d="M14.0918 14.4336L5.37109 5.71289Q5.23438 5.57617 5.23438 5.38574Q5.23438 5.19531 5.37109 5.05859Q5.49805 4.92188 5.68848 4.92188Q5.87891 4.92188 6.02539 5.05859L14.7363 13.7793Q14.873 13.916 14.873 14.1064Q14.873 14.2969 14.7363 14.4336Q14.6094 14.5605 14.4238 14.5605Q14.2383 14.5605 14.0918 14.4336ZM11.2012 12.6465L11.9922 13.4375Q11.3281 13.8281 10.5078 13.916L10.5078 14.9219L12.5195 14.9219Q12.7441 14.9219 12.9053 15.0879Q13.0664 15.2539 13.0664 15.4785Q13.0664 15.6836 12.9004 15.8447Q12.7344 16.0059 12.5195 16.0059L7.39258 16.0059Q7.17773 16.0059 7.01172 15.8496Q6.8457 15.6934 6.8457 15.4785Q6.8457 15.2539 7.01172 15.0879Q7.17773 14.9219 7.39258 14.9219L9.41406 14.9219L9.41406 13.916Q8.4082 13.7988 7.65625 13.2861Q6.9043 12.7734 6.48438 11.9531Q6.06445 11.1328 6.06445 10.1074L6.06445 8.81836Q6.06445 8.60352 6.2207 8.44238Q6.37695 8.28125 6.5918 8.28125Q6.80664 8.28125 6.96777 8.44238Q7.12891 8.60352 7.12891 8.81836L7.12891 10.1074Q7.12891 10.9375 7.49023 11.5723Q7.85156 12.207 8.48633 12.5635Q9.12109 12.9199 9.95117 12.9199Q10.3125 12.9199 10.625 12.8467Q10.9375 12.7734 11.2012 12.6465ZM8.28125 9.7168L10.3906 11.8262Q10.166 11.9043 9.95117 11.9043Q9.20898 11.9043 8.74512 11.3916Q8.28125 10.8789 8.28125 10.1172ZM11.6309 9.57031L8.28125 6.21094L8.28125 5.80078Q8.28125 5.0293 8.74512 4.52637Q9.20898 4.02344 9.95117 4.02344Q10.6934 4.02344 11.1621 4.52637Q11.6309 5.0293 11.6309 5.80078ZM13.5938 11.5332L12.7051 10.6445Q12.7344 10.5273 12.7539 10.3906Q12.7734 10.2539 12.7734 10.1074L12.7734 8.81836Q12.7734 8.60352 12.9346 8.44238Q13.0957 8.28125 13.3105 8.28125Q13.5254 8.28125 13.6865 8.44238Q13.8477 8.60352 13.8477 8.81836L13.8477 10.1074Q13.8477 10.8789 13.5938 11.5332Z" fill="#ffffff"/>
 </g>
</svg>
