<?xml version="1.0" encoding="UTF-8"?>
<!--Generator: Apple Native CoreSVG 175-->
<!DOCTYPE svg
PUBLIC "-//W3C//DTD SVG 1.1//EN"
       "http://www.w3.org/Graphics/SVG/1.1/DTD/svg11.dtd">
<svg version="1.1" xmlns="http://www.w3.org/2000/svg" xmlns:xlink="http://www.w3.org/1999/xlink" width="15.0735" height="21.9434">
 <g>
  <rect height="21.9434" opacity="0" width="15.0735" x="0" y="0"/>
  <path d="M0.9375 10.2246Q0.9375 11.9727 1.67969 13.3301Q2.42188 14.6875 3.7793 15.4932Q5.13672 16.2988 6.95312 16.3867L6.95312 19.5605L2.94922 19.5605Q2.80273 19.5605 2.7002 19.6631Q2.59766 19.7656 2.59766 19.9121Q2.59766 20.0586 2.7002 20.1611Q2.80273 20.2637 2.94922 20.2637L11.6699 20.2637Q11.8164 20.2637 11.9238 20.1611Q12.0312 20.0586 12.0312 19.9121Q12.0312 19.7656 11.9238 19.6631Q11.8164 19.5605 11.6699 19.5605L7.66602 19.5605L7.66602 16.3867Q8.68164 16.3477 9.56543 16.0645Q10.4492 15.7812 11.1523 15.293L10.6445 14.7754Q9.98047 15.2148 9.13574 15.459Q8.29102 15.7031 7.31445 15.7031Q5.58594 15.7031 4.31152 15Q3.03711 14.2969 2.34375 13.0566Q1.65039 11.8164 1.65039 10.2051L1.65039 8.39844Q1.65039 8.25195 1.54297 8.14941Q1.43555 8.04688 1.28906 8.04688Q1.14258 8.04688 1.04004 8.14941Q0.9375 8.25195 0.9375 8.39844ZM12.3633 12.8613L12.9004 13.3887Q13.6816 11.9824 13.6816 10.2246L13.6816 8.39844Q13.6816 8.25195 13.5791 8.14941Q13.4766 8.04688 13.3301 8.04688Q13.1836 8.04688 13.0811 8.14941Q12.9785 8.25195 12.9785 8.39844L12.9785 10.2051Q12.9785 11.6797 12.3633 12.8613ZM7.31445 13.1348Q8.06641 13.1348 8.67188 12.8027L4.27734 8.42773L4.27734 9.83398Q4.27734 10.7812 4.65332 11.5283Q5.0293 12.2754 5.70801 12.7051Q6.38672 13.1348 7.31445 13.1348ZM7.31445 0Q8.23242 0 8.91602 0.429688Q9.59961 0.859375 9.9707 1.61133Q10.3418 2.36328 10.3418 3.30078L10.3418 9.83398Q10.3418 10.0684 10.3125 10.293Q10.2832 10.5176 10.2246 10.7129L4.27734 4.78516L4.27734 3.28125Q4.28711 2.34375 4.6582 1.60156Q5.0293 0.859375 5.70801 0.429688Q6.38672 0 7.31445 0Z" fill="rgba(255,255,255,0.5)"/>
  <path d="M14.4629 17.2754Q14.5605 17.3828 14.7119 17.3828Q14.8633 17.3828 14.9707 17.2754Q15.0781 17.1582 15.0732 17.0166Q15.0684 16.875 14.9707 16.7676L0.615234 2.42188Q0.517578 2.32422 0.371094 2.31934Q0.224609 2.31445 0.0976562 2.42188Q0 2.5293 0 2.68066Q0 2.83203 0.0976562 2.93945Z" fill="#ffffff"/>
 </g>
</svg>
