<?xml version="1.0" encoding="UTF-8"?>
<!--Generator: Apple Native CoreSVG 175-->
<!DOCTYPE svg
PUBLIC "-//W3C//DTD SVG 1.1//EN"
       "http://www.w3.org/Graphics/SVG/1.1/DTD/svg11.dtd">
<svg version="1.1" xmlns="http://www.w3.org/2000/svg" xmlns:xlink="http://www.w3.org/1999/xlink" width="19.1602" height="19.1504">
 <g>
  <rect height="19.1504" opacity="0" width="19.1602" x="0" y="0"/>
  <path d="M9.57031 19.1406Q11.5527 19.1406 13.2861 18.3984Q15.0195 17.6562 16.3379 16.333Q17.6562 15.0098 18.4082 13.2764Q19.1602 11.543 19.1602 9.57031Q19.1602 7.59766 18.4082 5.86426Q17.6562 4.13086 16.3379 2.80762Q15.0195 1.48438 13.2861 0.742188Q11.5527 0 9.57031 0Q7.59766 0 5.86426 0.742188Q4.13086 1.48438 2.81738 2.80762Q1.50391 4.13086 0.751953 5.86426Q0 7.59766 0 9.57031Q0 11.543 0.74707 13.2764Q1.49414 15.0098 2.8125 16.333Q4.13086 17.6562 5.86914 18.3984Q7.60742 19.1406 9.57031 19.1406ZM9.57031 18.3984Q7.74414 18.3984 6.14746 17.71Q4.55078 17.0215 3.33496 15.8105Q2.11914 14.5996 1.43555 12.998Q0.751953 11.3965 0.751953 9.57031Q0.751953 7.74414 1.43555 6.14258Q2.11914 4.54102 3.33496 3.3252Q4.55078 2.10938 6.14746 1.4209Q7.74414 0.732422 9.57031 0.732422Q11.4062 0.732422 13.0029 1.4209Q14.5996 2.10938 15.8154 3.3252Q17.0312 4.54102 17.7197 6.14258Q18.4082 7.74414 18.4082 9.57031Q18.4082 11.3965 17.7246 12.998Q17.041 14.5996 15.8252 15.8105Q14.6094 17.0215 13.0078 17.71Q11.4062 18.3984 9.57031 18.3984Z" fill="rgba(255,255,255,0.5)"/>
  <path d="M6.55273 12.8027Q6.69922 12.8027 6.78711 12.71Q6.875 12.6172 6.875 12.4707L6.875 9.16992Q6.875 8.38867 7.19238 7.90527Q7.50977 7.42188 8.13477 7.42188Q8.59375 7.42188 8.9209 7.75391Q9.24805 8.08594 9.24805 8.57422L9.24805 8.68164L7.29492 14.5117Q7.25586 14.6289 7.25586 14.7168Q7.25586 14.834 7.33398 14.917Q7.41211 15 7.53906 15Q7.75391 15 7.8418 14.7754L9.26758 10.4785L9.26758 12.4707Q9.26758 12.6172 9.36035 12.71Q9.45312 12.8027 9.58984 12.8027Q9.72656 12.8027 9.81934 12.71Q9.91211 12.6172 9.91211 12.4707L9.91211 8.98438Q9.91211 8.26172 10.2588 7.84668Q10.6055 7.43164 11.1621 7.43164Q11.6699 7.43164 11.9775 7.79297Q12.2852 8.1543 12.2852 8.80859L12.2852 12.4707Q12.2852 12.627 12.3828 12.7197Q12.4805 12.8125 12.6172 12.8125Q12.7539 12.8125 12.8467 12.7197Q12.9395 12.627 12.9395 12.4707L12.9395 8.75Q12.9395 7.83203 12.4561 7.32422Q11.9727 6.81641 11.2402 6.81641Q10.8203 6.81641 10.4688 7.00195L11.2109 4.85352Q11.2402 4.74609 11.2402 4.6875Q11.2402 4.56055 11.1572 4.4873Q11.0742 4.41406 10.9473 4.41406Q10.7324 4.41406 10.6543 4.63867L9.59961 7.71484Q9.4043 7.29492 9.0332 7.05566Q8.66211 6.81641 8.17383 6.81641Q7.76367 6.81641 7.42188 7.0166Q7.08008 7.2168 6.8457 7.58789L6.8457 7.20703Q6.8457 7.04102 6.75781 6.95312Q6.66992 6.86523 6.54297 6.86523Q6.40625 6.86523 6.31348 6.95801Q6.2207 7.05078 6.2207 7.19727L6.2207 12.4902Q6.2207 12.6367 6.32324 12.7197Q6.42578 12.8027 6.55273 12.8027Z" fill="#ffffff"/>
 </g>
</svg>
