<?xml version="1.0" encoding="UTF-8"?>
<!--Generator: Apple Native CoreSVG 175.5-->
<!DOCTYPE svg
PUBLIC "-//W3C//DTD SVG 1.1//EN"
       "http://www.w3.org/Graphics/SVG/1.1/DTD/svg11.dtd">
<svg version="1.1" xmlns="http://www.w3.org/2000/svg" xmlns:xlink="http://www.w3.org/1999/xlink" width="19.9219" height="19.9316">
 <g>
  <rect height="19.9316" opacity="0" width="19.9219" x="0" y="0"/>
  <path d="M1.66016 9.96094Q1.66016 8.23242 2.30469 6.72852Q2.94922 5.22461 4.0918 4.08203Q5.23438 2.93945 6.73828 2.2998Q8.24219 1.66016 9.9707 1.66016Q10.4297 1.66016 10.8984 1.71875Q9.52148 2.54883 8.56445 3.77441Q7.60742 5 7.10449 6.5625Q6.60156 8.125 6.60156 9.96094Q6.60156 11.7969 7.09961 13.3545Q7.59766 14.9121 8.5498 16.1426Q9.50195 17.373 10.8691 18.2031Q10.4297 18.2617 9.96094 18.2617Q8.23242 18.2617 6.72363 17.6172Q5.21484 16.9727 4.07715 15.835Q2.93945 14.6973 2.2998 13.1934Q1.66016 11.6895 1.66016 9.96094Z" fill="rgba(255,255,255,0.25)"/>
  <path d="M19.9219 9.96094Q19.9219 7.91992 19.1406 6.11816Q18.3594 4.31641 16.9873 2.93945Q15.6152 1.5625 13.8135 0.78125Q12.0117 0 9.9707 0Q7.92969 0 6.12793 0.78125Q4.32617 1.5625 2.94434 2.93945Q1.5625 4.31641 0.78125 6.11816Q0 7.91992 0 9.96094Q0 12.002 0.78125 13.8037Q1.5625 15.6055 2.93945 16.9824Q4.31641 18.3594 6.11816 19.1406Q7.91992 19.9219 9.96094 19.9219Q12.002 19.9219 13.8037 19.1406Q15.6055 18.3594 16.9824 16.9824Q18.3594 15.6055 19.1406 13.8037Q19.9219 12.002 19.9219 9.96094ZM1.66016 9.96094Q1.66016 8.23242 2.30469 6.72852Q2.94922 5.22461 4.0918 4.08203Q5.23438 2.93945 6.73828 2.2998Q8.24219 1.66016 9.9707 1.66016Q10.4297 1.66016 10.8984 1.71875Q9.52148 2.54883 8.56445 3.77441Q7.60742 5 7.10449 6.5625Q6.60156 8.125 6.60156 9.96094Q6.60156 11.7969 7.09961 13.3545Q7.59766 14.9121 8.5498 16.1426Q9.50195 17.373 10.8691 18.2031Q10.4297 18.2617 9.96094 18.2617Q8.23242 18.2617 6.72363 17.6172Q5.21484 16.9727 4.07715 15.835Q2.93945 14.6973 2.2998 13.1934Q1.66016 11.6895 1.66016 9.96094Z" fill="#ffffff"/>
 </g>
</svg>
