<?xml version="1.0" encoding="UTF-8"?>
<!--Generator: Apple Native CoreSVG 175.5-->
<!DOCTYPE svg
PUBLIC "-//W3C//DTD SVG 1.1//EN"
       "http://www.w3.org/Graphics/SVG/1.1/DTD/svg11.dtd">
<svg version="1.1" xmlns="http://www.w3.org/2000/svg" xmlns:xlink="http://www.w3.org/1999/xlink" width="18.8574" height="23.4668">
 <g>
  <rect height="23.4668" opacity="0" width="18.8574" x="0" y="0"/>
  <path d="M8.42773 22.2656Q10.1953 22.2656 11.6992 21.6992Q13.2031 21.1328 14.3408 20.0586Q15.4785 18.9844 16.1328 17.4707Q16.3574 16.9238 16.084 16.6406Q15.8496 16.4062 15.3711 16.5918Q14.7656 16.8262 14.0723 16.9434Q13.3789 17.0605 12.5781 17.0605Q10.3711 17.0605 8.73535 16.1865Q7.09961 15.3125 6.20117 13.7158Q5.30273 12.1191 5.30273 9.95117Q5.30273 9.12109 5.44922 8.28125Q5.5957 7.44141 5.83984 6.93359Q6.10352 6.40625 5.85938 6.11328Q5.5957 5.81055 5 6.03516Q3.50586 6.63086 2.37793 7.81738Q1.25 9.00391 0.625 10.5811Q0 12.1582 0 13.9453Q0 15.7324 0.615234 17.2461Q1.23047 18.7598 2.36328 19.8877Q3.49609 21.0156 5.03906 21.6406Q6.58203 22.2656 8.42773 22.2656Z" fill="#ffffff"/>
  <path d="M13.7988 4.14062L11.582 4.14062L11.582 4.0918L13.8574 1.09375Q14.0039 0.888672 14.0723 0.751953Q14.1406 0.615234 14.1406 0.488281Q14.1406 0.263672 13.9795 0.131836Q13.8184 0 13.5742 0L10.4492 0Q10.2246 0 10.0781 0.136719Q9.93164 0.273438 9.93164 0.498047Q9.93164 0.732422 10.0781 0.869141Q10.2246 1.00586 10.4492 1.00586L12.5391 1.00586L12.5391 1.05469L10.2344 4.04297Q10.0879 4.24805 10.0244 4.37988Q9.96094 4.51172 9.96094 4.6582Q9.96094 4.87305 10.1123 5.01465Q10.2637 5.15625 10.5078 5.15625L13.7988 5.15625Q14.0234 5.15625 14.1699 5.01953Q14.3164 4.88281 14.3164 4.63867Q14.3164 4.41406 14.1699 4.27734Q14.0234 4.14062 13.7988 4.14062ZM18.3691 7.88086L16.8066 7.88086L16.8066 7.8418L18.4277 5.72266Q18.5645 5.53711 18.6279 5.40527Q18.6914 5.27344 18.6914 5.14648Q18.6914 4.93164 18.54 4.80469Q18.3887 4.67773 18.1641 4.67773L15.7715 4.67773Q15.5664 4.67773 15.4297 4.80957Q15.293 4.94141 15.293 5.15625Q15.293 5.38086 15.4297 5.5127Q15.5664 5.64453 15.7715 5.64453L17.1777 5.64453L17.1777 5.68359L15.5762 7.79297Q15.4395 7.96875 15.3809 8.10059Q15.3223 8.23242 15.3223 8.37891Q15.3223 8.57422 15.4639 8.70605Q15.6055 8.83789 15.8301 8.83789L18.3691 8.83789Q18.584 8.83789 18.7207 8.71094Q18.8574 8.58398 18.8574 8.35938Q18.8574 7.88086 18.3691 7.88086ZM14.0625 11.2207L12.7344 11.2207L12.7344 11.1816L14.1113 9.35547Q14.248 9.16992 14.3066 9.04785Q14.3652 8.92578 14.3652 8.80859Q14.3652 8.59375 14.2188 8.47656Q14.0723 8.35938 13.8574 8.35938L11.7578 8.35938Q11.5625 8.35938 11.4307 8.48633Q11.2988 8.61328 11.2988 8.80859Q11.2988 9.0332 11.4307 9.15527Q11.5625 9.27734 11.7578 9.27734L12.9297 9.27734L12.9297 9.31641L11.5723 11.1328Q11.4355 11.3086 11.3818 11.4307Q11.3281 11.5527 11.3281 11.6895Q11.3281 11.875 11.46 12.002Q11.5918 12.1289 11.8066 12.1289L14.0625 12.1289Q14.2676 12.1289 14.3945 12.0068Q14.5215 11.8848 14.5215 11.6699Q14.5215 11.2207 14.0625 11.2207Z" fill="rgba(255,255,255,0.5)"/>
 </g>
</svg>
