<?xml version="1.0" encoding="UTF-8"?>
<!--Generator: Apple Native CoreSVG 175.5-->
<!DOCTYPE svg
PUBLIC "-//W3C//DTD SVG 1.1//EN"
       "http://www.w3.org/Graphics/SVG/1.1/DTD/svg11.dtd">
<svg version="1.1" xmlns="http://www.w3.org/2000/svg" xmlns:xlink="http://www.w3.org/1999/xlink" width="19.2676" height="19.3848">
 <g>
  <rect height="19.3848" opacity="0" width="19.2676" x="0" y="0"/>
  <path d="M15.1074 13.0859Q13.125 13.0859 11.5283 12.4902Q9.93164 11.8945 8.79395 10.7715Q7.65625 9.64844 7.05078 8.06152Q6.44531 6.47461 6.44531 4.48242Q6.44531 3.93555 6.52832 3.28613Q6.61133 2.63672 6.74805 2.03125Q6.88477 1.42578 7.06055 1.01562Q7.12891 0.849609 7.14844 0.737305Q7.16797 0.625 7.16797 0.556641Q7.16797 0.361328 7.02148 0.180664Q6.875 0 6.5918 0Q6.51367 0 6.35742 0.0244141Q6.20117 0.0488281 6.03516 0.107422Q4.22852 0.830078 2.87109 2.27051Q1.51367 3.71094 0.756836 5.5957Q0 7.48047 0 9.53125Q0 11.6895 0.766602 13.4863Q1.5332 15.2832 2.90527 16.6064Q4.27734 17.9297 6.11816 18.6523Q7.95898 19.375 10.0977 19.375Q11.6797 19.375 13.1152 18.9307Q14.5508 18.4863 15.752 17.7002Q16.9531 16.9141 17.832 15.874Q18.7109 14.834 19.1602 13.6426Q19.2285 13.4668 19.248 13.3154Q19.2676 13.1641 19.2676 13.0957Q19.2676 12.8223 19.082 12.6562Q18.8965 12.4902 18.6914 12.4902Q18.5254 12.4902 18.2715 12.5781Q17.7051 12.7637 16.8555 12.9248Q16.0059 13.0859 15.1074 13.0859Z" fill="#ffffff"/>
 </g>
</svg>
