<?xml version="1.0" encoding="UTF-8"?>
<!--Generator: Apple Native CoreSVG 175.5-->
<!DOCTYPE svg
PUBLIC "-//W3C//DTD SVG 1.1//EN"
       "http://www.w3.org/Graphics/SVG/1.1/DTD/svg11.dtd">
<svg version="1.1" xmlns="http://www.w3.org/2000/svg" xmlns:xlink="http://www.w3.org/1999/xlink" width="25.0596" height="12.3926">
 <g>
  <rect height="12.3926" opacity="0" width="25.0596" x="0" y="0"/>
  <path d="M0.54741 5.24414Q2.41264 7.55859 4.25835 9.15527Q6.10405 10.752 8.12065 11.5723Q10.1373 12.3926 12.5298 12.3926Q14.9126 12.3926 16.9341 11.5723Q18.9556 10.752 20.8013 9.15527Q22.647 7.55859 24.5025 5.24414Q25.0103 4.61914 25.0542 4.0625Q25.0982 3.50586 24.7808 3.13965Q24.4634 2.77344 23.8873 2.70508Q22.8326 2.57812 22.0416 2.27051Q21.2505 1.96289 20.606 1.58203Q19.9615 1.20117 19.356 0.844727Q18.7505 0.488281 18.0767 0.253906Q17.4029 0.0195312 16.5337 0.0195312Q15.6841 0.0195312 15.0005 0.292969Q14.3169 0.566406 13.814 0.922852Q13.3111 1.2793 12.9888 1.54785Q12.6666 1.81641 12.5298 1.81641Q12.3931 1.81641 12.0708 1.54785Q11.7486 1.2793 11.2457 0.922852Q10.7427 0.566406 10.0591 0.292969Q9.37554 0.0195312 8.51616 0.0195312Q7.64702 0.0195312 6.97319 0.253906Q6.29936 0.488281 5.69389 0.844727Q5.08843 1.20117 4.44878 1.58203Q3.80913 1.96289 3.01811 2.27051Q2.2271 2.57812 1.16264 2.70508Q0.586473 2.77344 0.273973 3.13965Q-0.0385274 3.50586 0.00541792 4.0625Q0.0493632 4.61914 0.54741 5.24414ZM2.78374 5.00977Q2.52983 4.85352 2.52495 4.66309Q2.52007 4.47266 2.66655 4.36523Q2.81304 4.25781 3.04741 4.36523Q3.731 4.6875 4.44878 4.7998Q5.16655 4.91211 5.95757 4.88281Q6.74858 4.85352 7.64702 4.75586Q8.00835 4.70703 8.36968 4.66797Q8.731 4.62891 9.08257 4.62891Q10.1958 4.62891 10.8501 4.93164Q11.5044 5.23438 11.9048 5.46875Q12.1685 5.61523 12.2906 5.66406Q12.4126 5.71289 12.5298 5.71289Q12.647 5.71289 12.7691 5.66406Q12.8912 5.61523 13.1548 5.46875Q13.5552 5.23438 14.2046 4.93164Q14.8541 4.62891 15.9673 4.62891Q16.3287 4.62891 16.6851 4.66797Q17.0416 4.70703 17.4126 4.75586Q18.3013 4.88281 19.0923 4.90723Q19.8833 4.93164 20.6011 4.80957Q21.3189 4.6875 22.0123 4.36523Q22.2369 4.25781 22.3882 4.36523Q22.5396 4.47266 22.5298 4.66309Q22.5201 4.85352 22.2662 5.00977Q21.4263 5.52734 20.5523 5.74219Q19.6783 5.95703 18.8726 5.98633Q18.0669 6.01562 17.4175 5.97168Q16.7681 5.92773 16.358 5.91797Q15.5083 5.91797 14.9761 6.09863Q14.4439 6.2793 14.0777 6.51367Q13.7115 6.74805 13.3648 6.92383Q13.0181 7.09961 12.5298 7.09961Q12.0318 7.09961 11.6851 6.92383Q11.3384 6.74805 10.9722 6.51367Q10.606 6.2793 10.0787 6.09863Q9.55132 5.91797 8.69194 5.91797Q8.29155 5.92773 7.63725 5.97656Q6.98296 6.02539 6.17729 5.99609Q5.37163 5.9668 4.50249 5.75195Q3.63335 5.53711 2.78374 5.00977Z" fill="#ffffff"/>
 </g>
</svg>
