<?xml version="1.0" encoding="UTF-8"?>
<!--Generator: Apple Native CoreSVG 175.5-->
<!DOCTYPE svg
PUBLIC "-//W3C//DTD SVG 1.1//EN"
       "http://www.w3.org/Graphics/SVG/1.1/DTD/svg11.dtd">
<svg version="1.1" xmlns="http://www.w3.org/2000/svg" xmlns:xlink="http://www.w3.org/1999/xlink" width="19.3907" height="20.6096">
 <g>
  <rect height="20.6096" opacity="0" width="19.3907" x="0" y="0"/>
  <path d="M9.95117 19.8507Q10.3223 19.8507 10.5811 19.5968Q10.8398 19.3429 10.8398 18.9718L10.8398 11.7257L13.7598 9.0304Q14.5898 9.14759 15.4443 8.80579Q16.2988 8.46399 17.0703 7.69251L11.6992 2.31165Q10.9277 3.08314 10.6006 3.92298Q10.2734 4.76282 10.3906 5.61243L1.30859 15.3878Q1.03516 15.6906 1.01562 16.0714Q0.996094 16.4523 1.33789 16.8038L0.0878906 18.4152Q0 18.5324 0 18.6886Q0 18.8449 0.136719 18.9718L0.419922 19.2648Q0.546875 19.382 0.698242 19.3917Q0.849609 19.4015 0.986328 19.3038L2.59766 18.0441Q2.92969 18.3859 3.31543 18.3663Q3.70117 18.3468 3.99414 18.0734L9.0625 13.3859L9.0625 18.9718Q9.0625 19.3429 9.32129 19.5968Q9.58008 19.8507 9.95117 19.8507ZM2.31445 16.1886L10.9277 7.04798Q11.0449 7.26282 11.1963 7.46302Q11.3477 7.66321 11.5332 7.85853Q11.709 8.04407 11.9043 8.20521Q12.0996 8.36634 12.2949 8.48353L3.21289 17.087ZM12.6758 1.32532L18.0566 6.70618Q18.916 5.85657 19.2236 4.88978Q19.5312 3.92298 19.2725 2.96595Q19.0137 2.00892 18.1934 1.1886Q17.373 0.378057 16.4209 0.119268Q15.4688-0.139521 14.502 0.163213Q13.5352 0.465948 12.6758 1.32532Z" fill="#ffffff"/>
 </g>
</svg>
