<?xml version="1.0" encoding="UTF-8"?>
<!--Generator: Apple Native CoreSVG 175.5-->
<!DOCTYPE svg
PUBLIC "-//W3C//DTD SVG 1.1//EN"
       "http://www.w3.org/Graphics/SVG/1.1/DTD/svg11.dtd">
<svg version="1.1" xmlns="http://www.w3.org/2000/svg" xmlns:xlink="http://www.w3.org/1999/xlink" width="27.7441" height="10.4199">
 <g>
  <rect height="10.4199" opacity="0" width="27.7441" x="0" y="0"/>
  <path d="M0 4.85352Q0 6.04492 0.566406 7.06055Q1.13281 8.07617 2.13379 8.82812Q3.13477 9.58008 4.45801 10Q5.78125 10.4199 7.28516 10.4199Q9.45312 10.4199 11.1475 9.68262Q12.8418 8.94531 13.8672 7.54883Q14.9023 8.94531 16.5967 9.68262Q18.291 10.4199 20.4492 10.4199Q21.9629 10.4199 23.2812 10Q24.5996 9.58008 25.6006 8.82812Q26.6016 8.07617 27.1729 7.06055Q27.7441 6.04492 27.7441 4.85352Q27.7441 4.0332 27.5049 3.55469Q27.2656 3.07617 26.7676 3.07617Q26.6016 3.07617 26.4307 3.17383Q26.2598 3.27148 26.1426 3.44727Q25.3516 4.58008 23.7305 4.58008Q22.8516 4.58008 22.1729 4.21875Q21.4941 3.85742 20.8984 3.3252Q20.3027 2.79297 19.6729 2.26074Q19.043 1.72852 18.2617 1.36719Q17.4805 1.00586 16.4258 1.00586Q15.0977 1.00586 14.2285 1.71875Q13.3594 2.43164 13.1641 3.68164L14.5703 3.68164Q14.3848 2.43164 13.5156 1.71875Q12.6465 1.00586 11.3086 1.00586Q10.2539 1.00586 9.47266 1.36719Q8.69141 1.72852 8.06152 2.26074Q7.43164 2.79297 6.83594 3.3252Q6.24023 3.85742 5.56641 4.21875Q4.89258 4.58008 4.01367 4.58008Q2.5 4.58008 1.58203 3.4375Q1.45508 3.27148 1.29395 3.17383Q1.13281 3.07617 0.966797 3.07617Q0.478516 3.07617 0.239258 3.55469Q0 4.0332 0 4.85352Z" fill="#ffffff"/>
 </g>
</svg>
