<?xml version="1.0" encoding="UTF-8"?>
<!--Generator: Apple Native CoreSVG 175.5-->
<!DOCTYPE svg
PUBLIC "-//W3C//DTD SVG 1.1//EN"
       "http://www.w3.org/Graphics/SVG/1.1/DTD/svg11.dtd">
<svg version="1.1" xmlns="http://www.w3.org/2000/svg" xmlns:xlink="http://www.w3.org/1999/xlink" width="19.9219" height="19.9316">
 <g>
  <rect height="19.9316" opacity="0" width="19.9219" x="0" y="0"/>
  <path d="M9.96094 19.9219Q12.002 19.9219 13.8037 19.1406Q15.6055 18.3594 16.9824 16.9824Q18.3594 15.6055 19.1406 13.8037Q19.9219 12.002 19.9219 9.96094Q19.9219 7.91992 19.1406 6.11816Q18.3594 4.31641 16.9824 2.93945Q15.6055 1.5625 13.7988 0.78125Q11.9922 0 9.95117 0Q7.91016 0 6.1084 0.78125Q4.30664 1.5625 2.93457 2.93945Q1.5625 4.31641 0.78125 6.11816Q0 7.91992 0 9.96094Q0 12.002 0.78125 13.8037Q1.5625 15.6055 2.93945 16.9824Q4.31641 18.3594 6.11816 19.1406Q7.91992 19.9219 9.96094 19.9219Z" fill="rgba(255,255,255,0.25)"/>
  <path d="M6.93359 14.5801Q6.57227 14.5801 6.37695 14.3604Q6.18164 14.1406 6.18164 13.7695L6.18164 6.00586Q6.18164 5.61523 6.38672 5.38574Q6.5918 5.15625 6.96289 5.15625Q7.2168 5.15625 7.40234 5.26367Q7.58789 5.37109 7.77344 5.64453L12.1582 11.9238L12.2363 11.9238L12.2363 5.9668Q12.2363 5.5957 12.4316 5.37598Q12.627 5.15625 12.9785 5.15625Q13.3398 5.15625 13.54 5.37109Q13.7402 5.58594 13.7402 5.9668L13.7402 13.7402Q13.7402 14.1406 13.5303 14.3604Q13.3203 14.5801 12.9395 14.5801Q12.6953 14.5801 12.5195 14.4727Q12.3438 14.3652 12.1484 14.0918L7.75391 7.91992L7.69531 7.91992L7.69531 13.7695Q7.69531 14.1602 7.49023 14.3701Q7.28516 14.5801 6.93359 14.5801Z" fill="#ffffff"/>
 </g>
</svg>
