<?xml version="1.0" encoding="UTF-8"?>
<!--Generator: Apple Native CoreSVG 175.5-->
<!DOCTYPE svg
PUBLIC "-//W3C//DTD SVG 1.1//EN"
       "http://www.w3.org/Graphics/SVG/1.1/DTD/svg11.dtd">
<svg version="1.1" xmlns="http://www.w3.org/2000/svg" xmlns:xlink="http://www.w3.org/1999/xlink" width="14.6777" height="18.1152">
 <g>
  <rect height="18.1152" opacity="0" width="14.6777" x="0" y="0"/>
  <path d="M2.53906 18.1152Q2.94922 18.1152 3.20312 17.8516Q3.45703 17.5879 3.45703 17.1582L3.45703 3.61328L3.54492 3.61328L10.4297 17.1777Q10.6445 17.5977 10.9814 17.8564Q11.3184 18.1152 11.8262 18.1152Q12.3926 18.1152 12.7295 17.7783Q13.0664 17.4414 13.0664 16.8848L13.0664 1.16211Q13.0664 0.732422 12.8125 0.46875Q12.5586 0.205078 12.1387 0.205078Q11.7285 0.205078 11.4746 0.46875Q11.2207 0.732422 11.2207 1.16211L11.2207 14.7461L11.123 14.7461L4.24805 1.14258Q4.0332 0.722656 3.69629 0.463867Q3.35938 0.205078 2.85156 0.205078Q2.28516 0.205078 1.94824 0.541992Q1.61133 0.878906 1.61133 1.43555L1.61133 17.1582Q1.61133 17.5879 1.86523 17.8516Q2.11914 18.1152 2.53906 18.1152ZM0 9.19922Q0 9.46289 0.180664 9.64844Q0.361328 9.83398 0.625 9.83398L14.0527 9.83398Q14.3164 9.83398 14.4971 9.64844Q14.6777 9.46289 14.6777 9.19922Q14.6777 8.91602 14.4971 8.74023Q14.3164 8.56445 14.0527 8.56445L0.625 8.56445Q0.361328 8.56445 0.180664 8.74023Q0 8.91602 0 9.19922Z" fill="#ffffff"/>
 </g>
</svg>
