<?xml version="1.0" encoding="UTF-8"?>
<!--Generator: Apple Native CoreSVG 175.5-->
<!DOCTYPE svg
PUBLIC "-//W3C//DTD SVG 1.1//EN"
       "http://www.w3.org/Graphics/SVG/1.1/DTD/svg11.dtd">
<svg version="1.1" xmlns="http://www.w3.org/2000/svg" xmlns:xlink="http://www.w3.org/1999/xlink" width="17.9785" height="17.998">
 <g>
  <rect height="17.998" opacity="0" width="17.9785" x="0" y="0"/>
  <path d="M3.06641 17.998L14.9121 17.998Q16.4453 17.998 17.2119 17.2412Q17.9785 16.4844 17.9785 14.9707L17.9785 3.04688Q17.9785 1.5332 17.2119 0.776367Q16.4453 0.0195312 14.9121 0.0195312L3.06641 0.0195312Q1.5332 0.0195312 0.766602 0.776367Q0 1.5332 0 3.04688L0 14.9707Q0 16.4844 0.766602 17.2412Q1.5332 17.998 3.06641 17.998ZM3.08594 16.4258Q2.35352 16.4258 1.96289 16.04Q1.57227 15.6543 1.57227 14.8926L1.57227 3.125Q1.57227 2.36328 1.96289 1.97754Q2.35352 1.5918 3.08594 1.5918L14.8926 1.5918Q15.6152 1.5918 16.0107 1.97754Q16.4062 2.36328 16.4062 3.125L16.4062 14.8926Q16.4062 15.6543 16.0107 16.04Q15.6152 16.4258 14.8926 16.4258Z" fill="rgba(255,255,255,0.5)"/>
  <path d="M4.90234 9.15039Q4.90234 9.3457 5.03418 9.4873Q5.16602 9.62891 5.38086 9.62891L5.9082 9.62891L5.9082 13.2129Q5.9082 13.4961 6.08887 13.6719Q6.26953 13.8477 6.54297 13.8477Q6.81641 13.8477 6.99219 13.6719Q7.16797 13.4961 7.16797 13.2129L7.16797 9.62891L8.57422 9.62891L10.4199 13.291Q10.5469 13.5547 10.7568 13.7061Q10.9668 13.8574 11.2695 13.8574Q11.6309 13.8574 11.8457 13.6426Q12.0605 13.4277 12.0605 13.0664L12.0605 9.63867L12.6172 9.63867Q12.8223 9.63867 12.959 9.49707Q13.0957 9.35547 13.0957 9.15039Q13.0957 8.94531 12.959 8.80859Q12.8223 8.67188 12.6172 8.67188L12.0605 8.67188L12.0605 5.05859Q12.0605 4.77539 11.8848 4.59961Q11.709 4.42383 11.4355 4.42383Q11.1523 4.42383 10.9766 4.59961Q10.8008 4.77539 10.8008 5.05859L10.8008 8.67188L9.41406 8.67188L7.55859 4.98047Q7.42188 4.7168 7.2168 4.56543Q7.01172 4.41406 6.70898 4.41406Q6.34766 4.41406 6.12793 4.62891Q5.9082 4.84375 5.9082 5.19531L5.9082 8.66211L5.38086 8.66211Q5.17578 8.66211 5.03906 8.79883Q4.90234 8.93555 4.90234 9.15039ZM7.16797 8.66211L7.16797 6.67969L8.0957 8.66211ZM9.89258 9.63867L10.8008 9.63867L10.8008 11.6113Z" fill="#ffffff"/>
 </g>
</svg>
