<?xml version="1.0" encoding="UTF-8"?>
<!--Generator: Apple Native CoreSVG 175.5-->
<!DOCTYPE svg
PUBLIC "-//W3C//DTD SVG 1.1//EN"
       "http://www.w3.org/Graphics/SVG/1.1/DTD/svg11.dtd">
<svg version="1.1" xmlns="http://www.w3.org/2000/svg" xmlns:xlink="http://www.w3.org/1999/xlink" width="19.9219" height="19.9316">
 <g>
  <rect height="19.9316" opacity="0" width="19.9219" x="0" y="0"/>
  <path d="M9.96094 19.9219Q12.002 19.9219 13.8037 19.1406Q15.6055 18.3594 16.9824 16.9824Q18.3594 15.6055 19.1406 13.8037Q19.9219 12.002 19.9219 9.96094Q19.9219 7.91992 19.1406 6.11816Q18.3594 4.31641 16.9824 2.93945Q15.6055 1.5625 13.7988 0.78125Q11.9922 0 9.95117 0Q7.91016 0 6.1084 0.78125Q4.30664 1.5625 2.93457 2.93945Q1.5625 4.31641 0.78125 6.11816Q0 7.91992 0 9.96094Q0 12.002 0.78125 13.8037Q1.5625 15.6055 2.93945 16.9824Q4.31641 18.3594 6.11816 19.1406Q7.91992 19.9219 9.96094 19.9219ZM9.96094 18.2617Q8.23242 18.2617 6.72852 17.6172Q5.22461 16.9727 4.08691 15.835Q2.94922 14.6973 2.30957 13.1934Q1.66992 11.6895 1.66992 9.96094Q1.66992 8.23242 2.30957 6.72852Q2.94922 5.22461 4.08203 4.08203Q5.21484 2.93945 6.71875 2.2998Q8.22266 1.66016 9.95117 1.66016Q11.6797 1.66016 13.1885 2.2998Q14.6973 2.93945 15.835 4.08203Q16.9727 5.22461 17.6172 6.72852Q18.2617 8.23242 18.2617 9.96094Q18.2617 11.6895 17.6221 13.1934Q16.9824 14.6973 15.8398 15.835Q14.6973 16.9727 13.1934 17.6172Q11.6895 18.2617 9.96094 18.2617Z" fill="rgba(255,255,255,0.5)"/>
  <path d="M5.85938 10.1172Q5.85938 10.3125 5.99121 10.4541Q6.12305 10.5957 6.33789 10.5957L6.86523 10.5957L6.86523 14.1797Q6.86523 14.4629 7.0459 14.6387Q7.22656 14.8145 7.5 14.8145Q7.77344 14.8145 7.94922 14.6387Q8.125 14.4629 8.125 14.1797L8.125 10.5957L9.53125 10.5957L11.377 14.2578Q11.5039 14.5215 11.7139 14.6729Q11.9238 14.8242 12.2266 14.8242Q12.5879 14.8242 12.8027 14.6094Q13.0176 14.3945 13.0176 14.0332L13.0176 10.6055L13.5742 10.6055Q13.7793 10.6055 13.916 10.4639Q14.0527 10.3223 14.0527 10.1172Q14.0527 9.91211 13.916 9.77539Q13.7793 9.63867 13.5742 9.63867L13.0176 9.63867L13.0176 6.02539Q13.0176 5.74219 12.8418 5.56641Q12.666 5.39062 12.3926 5.39062Q12.1094 5.39062 11.9336 5.56641Q11.7578 5.74219 11.7578 6.02539L11.7578 9.63867L10.3711 9.63867L8.51562 5.94727Q8.37891 5.68359 8.17383 5.53223Q7.96875 5.38086 7.66602 5.38086Q7.30469 5.38086 7.08496 5.5957Q6.86523 5.81055 6.86523 6.16211L6.86523 9.62891L6.33789 9.62891Q6.13281 9.62891 5.99609 9.76562Q5.85938 9.90234 5.85938 10.1172ZM8.125 9.62891L8.125 7.64648L9.05273 9.62891ZM10.8496 10.6055L11.7578 10.6055L11.7578 12.5781Z" fill="#ffffff"/>
 </g>
</svg>
