<?xml version="1.0" encoding="UTF-8"?>
<!--Generator: Apple Native CoreSVG 175.5-->
<!DOCTYPE svg
PUBLIC "-//W3C//DTD SVG 1.1//EN"
       "http://www.w3.org/Graphics/SVG/1.1/DTD/svg11.dtd">
<svg version="1.1" xmlns="http://www.w3.org/2000/svg" xmlns:xlink="http://www.w3.org/1999/xlink" width="19.9219" height="19.9316">
 <g>
  <rect height="19.9316" opacity="0" width="19.9219" x="0" y="0"/>
  <path d="M1.57227 5.82031Q2.7832 7.09961 4.28223 8.00781Q5.78125 8.91602 7.48535 9.38965Q9.18945 9.86328 10.9961 9.86328Q13.1348 9.85352 15.1221 9.16016Q17.1094 8.4668 18.7598 7.16797L18.2031 6.07422Q16.6895 7.33398 14.8438 8.00293Q12.998 8.67188 10.9961 8.68164Q8.39844 8.69141 6.0791 7.61719Q3.75977 6.54297 2.11914 4.60938ZM0.527344 11.3965Q2.43164 13.0176 4.68262 13.9795Q6.93359 14.9414 9.34082 15.2148Q11.748 15.4883 14.1406 15.0586Q16.5332 14.6289 18.7305 13.4766L18.7012 12.1387Q16.5723 13.3691 14.209 13.8428Q11.8457 14.3164 9.46777 14.043Q7.08984 13.7695 4.87305 12.7686Q2.65625 11.7676 0.820312 10.0684ZM5.37109 18.1055L6.76758 18.4277Q6.2793 17.2461 6.01562 16.0059Q5.75195 14.7656 5.73242 13.4863Q5.5957 11.0547 6.21582 8.75977Q6.83594 6.46484 8.125 4.46777Q9.41406 2.4707 11.2793 0.947266L10.0293 0.458984Q8.18359 2.09961 6.91406 4.18457Q5.64453 6.26953 5.03418 8.6377Q4.42383 11.0059 4.55078 13.5059Q4.57031 14.6777 4.77539 15.8301Q4.98047 16.9824 5.37109 18.1055ZM11.8066 19.0723L12.9102 18.584Q11.543 16.6504 10.8154 14.3994Q10.0879 12.1484 10.0879 9.75586Q10.0879 7.48047 10.7324 5.35156Q11.377 3.22266 12.6172 1.37695L11.4648 0.966797Q10.2148 2.92969 9.56055 5.16602Q8.90625 7.40234 8.90625 9.75586Q8.90625 12.2852 9.64844 14.6533Q10.3906 17.0215 11.8066 19.0723ZM17.5586 15.4395L18.3496 14.541Q16.709 13.6035 15.5127 12.1875Q14.3164 10.7715 13.6572 9.0332Q12.998 7.29492 12.9688 5.38086Q12.959 4.35547 13.1348 3.34961Q13.3105 2.34375 13.6816 1.40625L12.5391 1.08398Q12.1484 2.10938 11.9629 3.18848Q11.7773 4.26758 11.7871 5.39062Q11.8164 7.4707 12.5195 9.37012Q13.2227 11.2695 14.5117 12.8271Q15.8008 14.3848 17.5586 15.4395ZM5.72266 9.74609Q6.34766 9.74609 6.79199 9.29688Q7.23633 8.84766 7.23633 8.21289Q7.23633 7.57812 6.79199 7.13379Q6.34766 6.68945 5.72266 6.68945Q5.07812 6.68945 4.63379 7.13379Q4.18945 7.57812 4.18945 8.21289Q4.18945 8.84766 4.63379 9.29688Q5.07812 9.74609 5.72266 9.74609ZM13.2031 10.5566Q13.8184 10.5566 14.2578 10.1123Q14.6973 9.66797 14.6973 9.04297Q14.6973 8.42773 14.2578 7.98828Q13.8184 7.54883 13.2031 7.54883Q12.5684 7.54883 12.1289 7.98828Q11.6895 8.42773 11.6895 9.04297Q11.6895 9.66797 12.1289 10.1123Q12.5684 10.5566 13.2031 10.5566ZM10.293 16.2012Q10.918 16.2012 11.3623 15.7568Q11.8066 15.3125 11.8066 14.6777Q11.8066 14.043 11.3623 13.5986Q10.918 13.1543 10.293 13.1543Q9.64844 13.1543 9.2041 13.5986Q8.75977 14.043 8.75977 14.6777Q8.75977 15.3125 9.2041 15.7568Q9.64844 16.2012 10.293 16.2012ZM9.96094 19.9219Q12.002 19.9219 13.8037 19.1406Q15.6055 18.3594 16.9824 16.9824Q18.3594 15.6055 19.1406 13.8037Q19.9219 12.002 19.9219 9.96094Q19.9219 7.91992 19.1406 6.11816Q18.3594 4.31641 16.9824 2.93945Q15.6055 1.5625 13.7988 0.78125Q11.9922 0 9.95117 0Q7.91016 0 6.1084 0.78125Q4.30664 1.5625 2.93457 2.93945Q1.5625 4.31641 0.78125 6.11816Q0 7.91992 0 9.96094Q0 12.002 0.78125 13.8037Q1.5625 15.6055 2.93945 16.9824Q4.31641 18.3594 6.11816 19.1406Q7.91992 19.9219 9.96094 19.9219ZM9.96094 18.5938Q8.19336 18.5938 6.63086 17.915Q5.06836 17.2363 3.87695 16.0449Q2.68555 14.8535 2.00684 13.291Q1.32812 11.7285 1.32812 9.96094Q1.32812 8.19336 2.00684 6.63086Q2.68555 5.06836 3.87207 3.87695Q5.05859 2.68555 6.62109 2.00684Q8.18359 1.32812 9.95117 1.32812Q11.7188 1.32812 13.2812 2.00684Q14.8438 2.68555 16.04 3.87695Q17.2363 5.06836 17.915 6.63086Q18.5938 8.19336 18.5938 9.96094Q18.5938 11.7285 17.915 13.291Q17.2363 14.8535 16.0449 16.0449Q14.8535 17.2363 13.291 17.915Q11.7285 18.5938 9.96094 18.5938Z" fill="#ffffff"/>
 </g>
</svg>
