<?xml version="1.0" encoding="UTF-8"?>
<!--Generator: Apple Native CoreSVG 175-->
<!DOCTYPE svg
PUBLIC "-//W3C//DTD SVG 1.1//EN"
       "http://www.w3.org/Graphics/SVG/1.1/DTD/svg11.dtd">
<svg version="1.1" xmlns="http://www.w3.org/2000/svg" xmlns:xlink="http://www.w3.org/1999/xlink" width="19.1602" height="19.1504">
 <g>
  <rect height="19.1504" opacity="0" width="19.1602" x="0" y="0"/>
  <path d="M9.57031 19.1406Q11.5527 19.1406 13.2861 18.3984Q15.0195 17.6562 16.3379 16.333Q17.6562 15.0098 18.4082 13.2764Q19.1602 11.543 19.1602 9.57031Q19.1602 7.59766 18.4082 5.86426Q17.6562 4.13086 16.3379 2.80762Q15.0195 1.48438 13.2861 0.742188Q11.5527 0 9.57031 0Q7.59766 0 5.86426 0.742188Q4.13086 1.48438 2.81738 2.80762Q1.50391 4.13086 0.751953 5.86426Q0 7.59766 0 9.57031Q0 11.543 0.74707 13.2764Q1.49414 15.0098 2.8125 16.333Q4.13086 17.6562 5.86914 18.3984Q7.60742 19.1406 9.57031 19.1406ZM9.57031 18.3984Q7.74414 18.3984 6.14746 17.71Q4.55078 17.0215 3.33496 15.8105Q2.11914 14.5996 1.43555 12.998Q0.751953 11.3965 0.751953 9.57031Q0.751953 7.74414 1.43555 6.14258Q2.11914 4.54102 3.33496 3.3252Q4.55078 2.10938 6.14746 1.4209Q7.74414 0.732422 9.57031 0.732422Q11.4062 0.732422 13.0029 1.4209Q14.5996 2.10938 15.8154 3.3252Q17.0312 4.54102 17.7197 6.14258Q18.4082 7.74414 18.4082 9.57031Q18.4082 11.3965 17.7246 12.998Q17.041 14.5996 15.8252 15.8105Q14.6094 17.0215 13.0078 17.71Q11.4062 18.3984 9.57031 18.3984Z" fill="rgba(255,255,255,0.5)"/>
  <path d="M4.54102 9.18945L4.54102 13.6035Q4.54102 13.8965 4.73145 14.043Q4.92188 14.1895 5.16602 14.1895Q5.40039 14.1797 5.58594 14.0332Q5.77148 13.8867 5.77148 13.6035L5.77148 8.51562L5.25391 8.51562Q4.92188 8.51562 4.73145 8.69629Q4.54102 8.87695 4.54102 9.18945ZM5.83008 14.5898L13.3496 14.5898Q13.9746 14.5898 14.2969 14.2725Q14.6191 13.9551 14.6191 13.3301L14.6191 5.84961Q14.6191 5.22461 14.2969 4.90723Q13.9746 4.58984 13.3496 4.58984L7.61719 4.58984Q6.98242 4.58984 6.66016 4.90723Q6.33789 5.22461 6.33789 5.84961L6.33789 13.7988Q6.33789 14.4238 5.83008 14.5898ZM8.16406 7.23633Q8.05664 7.23633 7.97852 7.16309Q7.90039 7.08984 7.90039 6.97266Q7.90039 6.73828 8.16406 6.73828L12.793 6.73828Q13.0469 6.73828 13.0469 6.97266Q13.0469 7.08984 12.9736 7.16309Q12.9004 7.23633 12.793 7.23633ZM8.16406 8.97461Q7.90039 8.97461 7.90039 8.7207Q7.90039 8.45703 8.16406 8.45703L12.793 8.45703Q12.9102 8.45703 12.9785 8.53027Q13.0469 8.60352 13.0469 8.7207Q13.0469 8.97461 12.793 8.97461ZM11.1523 10.8105Q11.0352 10.8105 10.9619 10.7324Q10.8887 10.6543 10.8887 10.5469Q10.8887 10.293 11.1523 10.293L12.793 10.293Q13.0371 10.293 13.0371 10.5469Q13.0371 10.8105 12.793 10.8105ZM11.1523 12.4414Q10.8887 12.4414 10.8887 12.1875Q10.8887 12.0898 10.9619 12.0117Q11.0352 11.9336 11.1523 11.9336L12.793 11.9336Q12.9004 11.9336 12.9688 12.0117Q13.0371 12.0898 13.0371 12.1875Q13.0371 12.4414 12.793 12.4414ZM8.38867 12.4414Q7.89062 12.4414 7.89062 11.9336L7.89062 10.8008Q7.89062 10.293 8.38867 10.293L9.62891 10.293Q10.1465 10.293 10.1465 10.8008L10.1465 11.9336Q10.1465 12.4414 9.62891 12.4414Z" fill="#ffffff"/>
 </g>
</svg>
