<?xml version="1.0" encoding="UTF-8"?>
<!--Generator: Apple Native CoreSVG 175.5-->
<!DOCTYPE svg
PUBLIC "-//W3C//DTD SVG 1.1//EN"
       "http://www.w3.org/Graphics/SVG/1.1/DTD/svg11.dtd">
<svg version="1.1" xmlns="http://www.w3.org/2000/svg" xmlns:xlink="http://www.w3.org/1999/xlink" width="19.6546" height="17.6956">
 <g>
  <rect height="17.6956" opacity="0" width="19.6546" x="0" y="0"/>
  <path d="M17.3957 1.88979L15.6671 0.161272Q15.5011-0.0047433 15.2814 0.000139509Q15.0617 0.00502232 14.8957 0.161272Q14.7394 0.317522 14.7345 0.542132Q14.7296 0.766741 14.8957 0.922991L16.6242 2.66127Q16.7902 2.82729 17.0099 2.82241Q17.2296 2.81752 17.3957 2.66127Q17.5519 2.49526 17.5568 2.27553Q17.5617 2.0558 17.3957 1.88979ZM5.16909 11.6066L5.94058 12.3781L16.6046 1.72377L15.8332 0.952288ZM0.755032 16.8019Q1.3605 17.4074 2.00015 17.5246Q2.6398 17.6417 3.04995 17.2218L6.75113 13.5011Q7.21011 13.0519 7.44937 12.6222Q7.68863 12.1925 7.75699 11.7335L8.04995 9.97573L7.57144 9.50698L5.81363 9.79994Q5.36441 9.8683 4.93472 10.1076Q4.50503 10.3468 4.04605 10.796L0.325345 14.507Q-0.094577 14.9171 0.0274933 15.5568Q0.149564 16.1964 0.755032 16.8019ZM2.25894 1.88979Q2.09292 2.0558 2.09781 2.27553Q2.10269 2.49526 2.25894 2.66127Q2.42495 2.81752 2.64468 2.82241Q2.86441 2.82729 3.03042 2.66127L4.75894 0.922991Q4.92495 0.766741 4.92007 0.542132Q4.91519 0.317522 4.75894 0.161272Q4.59292 0.00502232 4.3732 0.000139509Q4.15347-0.0047433 3.98745 0.161272ZM14.4855 11.6066L3.82144 0.952288L3.04995 1.72377L13.714 12.3781ZM18.8996 16.8019Q19.505 16.1964 19.6271 15.5568Q19.7492 14.9171 19.3293 14.507L15.6085 10.796Q15.1593 10.3468 14.7248 10.1076Q14.2902 9.8683 13.841 9.79994L12.0832 9.50698L11.6144 9.97573L11.8976 11.7335Q11.966 12.1925 12.2052 12.6222Q12.4445 13.0519 12.9035 13.5011L16.6046 17.2218Q17.0148 17.6417 17.6544 17.5246Q18.2941 17.4074 18.8996 16.8019Z" fill="#ffffff"/>
 </g>
</svg>
