<?xml version="1.0" encoding="UTF-8"?>
<!--Generator: Apple Native CoreSVG 175.5-->
<!DOCTYPE svg
PUBLIC "-//W3C//DTD SVG 1.1//EN"
       "http://www.w3.org/Graphics/SVG/1.1/DTD/svg11.dtd">
<svg version="1.1" xmlns="http://www.w3.org/2000/svg" xmlns:xlink="http://www.w3.org/1999/xlink" width="25.1953" height="18.9746">
 <g>
  <rect height="18.9746" opacity="0" width="25.1953" x="0" y="0"/>
  <path d="M0 9.48242Q0 11.5527 0.922852 13.291Q1.8457 15.0293 3.53027 16.3037Q5.21484 17.5781 7.52441 18.2764Q9.83398 18.9746 12.5977 18.9746Q15.3711 18.9746 17.6758 18.2764Q19.9805 17.5781 21.665 16.3037Q23.3496 15.0293 24.2725 13.291Q25.1953 11.5527 25.1953 9.48242Q25.1953 7.40234 24.2725 5.66895Q23.3496 3.93555 21.665 2.66602Q19.9805 1.39648 17.6758 0.698242Q15.3711 0 12.5977 0Q9.83398 0 7.52441 0.698242Q5.21484 1.39648 3.53027 2.66602Q1.8457 3.93555 0.922852 5.66895Q0 7.40234 0 9.48242ZM12.5977 17.4023L12.5977 1.57227Q15.0195 1.57227 17.041 2.15332Q19.0625 2.73438 20.5371 3.79883Q22.0117 4.86328 22.8174 6.30859Q23.623 7.75391 23.623 9.48242Q23.623 11.2109 22.8174 12.6611Q22.0117 14.1113 20.5371 15.1758Q19.0625 16.2402 17.041 16.8213Q15.0195 17.4023 12.5977 17.4023Z" fill="#ffffff"/>
 </g>
</svg>
