<?xml version="1.0" encoding="UTF-8"?>
<!--Generator: Apple Native CoreSVG 175-->
<!DOCTYPE svg
PUBLIC "-//W3C//DTD SVG 1.1//EN"
       "http://www.w3.org/Graphics/SVG/1.1/DTD/svg11.dtd">
<svg version="1.1" xmlns="http://www.w3.org/2000/svg" xmlns:xlink="http://www.w3.org/1999/xlink" width="16.6602" height="21.9043">
 <g>
  <rect height="21.9043" opacity="0" width="16.6602" x="0" y="0"/>
  <path d="M8.33008 0Q6.48438 0 4.96094 0.800781Q3.4375 1.60156 2.32422 3.06152Q1.21094 4.52148 0.605469 6.52832Q0 8.53516 0 10.9473Q0 13.3594 0.605469 15.3613Q1.21094 17.3633 2.32422 18.8281Q3.4375 20.293 4.96094 21.0938Q6.48438 21.8945 8.33008 21.8945Q10.1758 21.8945 11.7041 21.0986Q13.2324 20.3027 14.3408 18.8428Q15.4492 17.3828 16.0547 15.376Q16.6602 13.3691 16.6602 10.9473Q16.6602 8.52539 16.0547 6.51855Q15.4492 4.51172 14.3408 3.05176Q13.2324 1.5918 11.7041 0.795898Q10.1758 0 8.33008 0ZM8.33008 0.722656Q10 0.722656 11.3965 1.46973Q12.793 2.2168 13.8086 3.58398Q14.8242 4.95117 15.376 6.82129Q15.9277 8.69141 15.9277 10.9473Q15.9277 13.2031 15.376 15.0732Q14.8242 16.9434 13.8086 18.3057Q12.793 19.668 11.3965 20.415Q10 21.1621 8.33008 21.1621Q6.66016 21.1621 5.26367 20.415Q3.86719 19.668 2.85156 18.3008Q1.83594 16.9336 1.28418 15.0635Q0.732422 13.1934 0.732422 10.9473Q0.732422 8.69141 1.28418 6.82617Q1.83594 4.96094 2.85156 3.58887Q3.86719 2.2168 5.26367 1.46973Q6.66016 0.722656 8.33008 0.722656Z" fill="rgba(255,255,255,0.5)"/>
  <path d="M8.33008 1.61133Q6.85547 1.61133 5.625 2.29004Q4.39453 2.96875 3.50098 4.21387Q2.60742 5.45898 2.11426 7.16797Q1.62109 8.87695 1.62109 10.9473Q1.62109 13.0176 2.11426 14.7266Q2.60742 16.4355 3.50098 17.6758Q4.39453 18.916 5.625 19.5947Q6.85547 20.2734 8.33008 20.2734Q9.81445 20.2734 11.0449 19.5996Q12.2754 18.9258 13.1689 17.6807Q14.0625 16.4355 14.5557 14.7266Q15.0488 13.0176 15.0488 10.9473Q15.0488 8.87695 14.5557 7.16309Q14.0625 5.44922 13.1689 4.20898Q12.2754 2.96875 11.0449 2.29004Q9.81445 1.61133 8.33008 1.61133Z" fill="#ffffff"/>
 </g>
</svg>
