<?xml version="1.0" encoding="UTF-8"?>
<!--Generator: Apple Native CoreSVG 175.5-->
<!DOCTYPE svg
PUBLIC "-//W3C//DTD SVG 1.1//EN"
       "http://www.w3.org/Graphics/SVG/1.1/DTD/svg11.dtd">
<svg version="1.1" xmlns="http://www.w3.org/2000/svg" xmlns:xlink="http://www.w3.org/1999/xlink" width="19.5215" height="16.8652">
 <g>
  <rect height="16.8652" opacity="0" width="19.5215" x="0" y="0"/>
  <path d="M0 4.75586L19.5215 4.75586L19.5215 2.04102Q19.5215 1.12305 18.9795 0.561523Q18.4375 0 17.5586 0L1.96289 0Q1.08398 0 0.541992 0.561523Q0 1.12305 0 2.04102ZM3.62305 3.45703Q3.25195 3.45703 2.99316 3.19824Q2.73438 2.93945 2.73438 2.57812Q2.73438 2.20703 2.99316 1.95312Q3.25195 1.69922 3.62305 1.69922Q3.98438 1.69922 4.24316 1.95312Q4.50195 2.20703 4.50195 2.57812Q4.50195 2.93945 4.24316 3.19824Q3.98438 3.45703 3.62305 3.45703ZM6.21094 3.45703Q5.84961 3.45703 5.59082 3.19824Q5.33203 2.93945 5.33203 2.57812Q5.33203 2.20703 5.59082 1.95312Q5.84961 1.69922 6.21094 1.69922Q6.58203 1.69922 6.84082 1.95312Q7.09961 2.20703 7.09961 2.57812Q7.09961 2.93945 6.84082 3.19824Q6.58203 3.45703 6.21094 3.45703ZM8.80859 3.45703Q8.4375 3.45703 8.17871 3.19824Q7.91992 2.93945 7.91992 2.57812Q7.91992 2.20703 8.17871 1.95312Q8.4375 1.69922 8.80859 1.69922Q9.16992 1.69922 9.42871 1.95312Q9.6875 2.20703 9.6875 2.57812Q9.6875 2.93945 9.42871 3.19824Q9.16992 3.45703 8.80859 3.45703ZM13.9258 3.08594Q13.6914 3.08594 13.5498 2.94434Q13.4082 2.80273 13.4082 2.56836Q13.4082 2.34375 13.5498 2.20703Q13.6914 2.07031 13.9258 2.07031L16.6504 2.07031Q16.875 2.07031 17.0117 2.20703Q17.1484 2.34375 17.1484 2.56836Q17.1484 2.80273 17.0117 2.94434Q16.875 3.08594 16.6504 3.08594ZM1.96289 16.8555L17.5586 16.8555Q18.4375 16.8555 18.9795 16.2939Q19.5215 15.7324 19.5215 14.8145L19.5215 5.83984L0 5.83984L0 14.8145Q0 15.7324 0.541992 16.2939Q1.08398 16.8555 1.96289 16.8555ZM3.52539 14.7266Q3.10547 14.7266 2.85156 14.4727Q2.59766 14.2188 2.59766 13.7988L2.59766 8.32031Q2.59766 7.88086 2.85156 7.62695Q3.10547 7.37305 3.52539 7.37305L16.0059 7.37305Q16.4258 7.37305 16.6797 7.62695Q16.9336 7.88086 16.9336 8.32031L16.9336 13.7988Q16.9336 14.2188 16.6797 14.4727Q16.4258 14.7266 16.0059 14.7266ZM3.68164 9.61914L15.8496 9.61914L15.8496 8.73047Q15.8496 8.45703 15.5859 8.45703L3.94531 8.45703Q3.68164 8.45703 3.68164 8.73047ZM3.94531 13.6426L15.5859 13.6426Q15.8496 13.6426 15.8496 13.3789L15.8496 10.7031L3.68164 10.7031L3.68164 13.3789Q3.68164 13.6426 3.94531 13.6426Z" fill="#ffffff"/>
 </g>
</svg>
