<?xml version="1.0" encoding="UTF-8"?>
<!--Generator: Apple Native CoreSVG 175-->
<!DOCTYPE svg
PUBLIC "-//W3C//DTD SVG 1.1//EN"
       "http://www.w3.org/Graphics/SVG/1.1/DTD/svg11.dtd">
<svg version="1.1" xmlns="http://www.w3.org/2000/svg" xmlns:xlink="http://www.w3.org/1999/xlink" width="17.2852" height="17.3145">
 <g>
  <rect height="17.3145" opacity="0" width="17.2852" x="0" y="0"/>
  <path d="M2.62695 17.3145L14.6484 17.3145Q15.957 17.3145 16.6211 16.6455Q17.2852 15.9766 17.2852 14.6875L17.2852 2.65625Q17.2852 1.37695 16.6211 0.703125Q15.957 0.0292969 14.6484 0.0292969L2.62695 0.0292969Q1.33789 0.0292969 0.668945 0.693359Q0 1.35742 0 2.65625L0 14.6875Q0 15.9863 0.668945 16.6504Q1.33789 17.3145 2.62695 17.3145ZM2.65625 16.5918Q1.70898 16.5918 1.2207 16.1035Q0.732422 15.6152 0.732422 14.6582L0.732422 2.69531Q0.732422 1.72852 1.2207 1.24512Q1.70898 0.761719 2.65625 0.761719L14.6289 0.761719Q15.5566 0.761719 16.0596 1.24512Q16.5625 1.72852 16.5625 2.69531L16.5625 14.6582Q16.5625 15.6152 16.0596 16.1035Q15.5566 16.5918 14.6289 16.5918Z" fill="rgba(255,255,255,0.5)"/>
  <path d="M6.54297 13.0469Q6.71875 13.0469 6.81641 12.9395Q6.91406 12.832 6.91406 12.6562L6.91406 9.6875L9.24805 9.6875Q10.4395 9.6875 11.2061 8.93066Q11.9727 8.17383 11.9727 7.00195Q11.9727 5.83008 11.2012 5.06836Q10.4297 4.30664 9.24805 4.30664L6.51367 4.30664Q6.34766 4.30664 6.25977 4.42383Q6.17188 4.54102 6.17188 4.70703L6.17188 12.6562Q6.17188 12.8223 6.26953 12.9346Q6.36719 13.0469 6.54297 13.0469ZM6.91406 9.04297L6.91406 4.96094L9.21875 4.96094Q10.0977 4.96094 10.6641 5.53223Q11.2305 6.10352 11.2305 7.00195Q11.2305 7.89062 10.6641 8.4668Q10.0977 9.04297 9.21875 9.04297Z" fill="#ffffff"/>
 </g>
</svg>
