<?xml version="1.0" encoding="UTF-8"?>
<!--Generator: Apple Native CoreSVG 175.5-->
<!DOCTYPE svg
PUBLIC "-//W3C//DTD SVG 1.1//EN"
       "http://www.w3.org/Graphics/SVG/1.1/DTD/svg11.dtd">
<svg version="1.1" xmlns="http://www.w3.org/2000/svg" xmlns:xlink="http://www.w3.org/1999/xlink" width="20.459" height="21.3965">
 <g>
  <rect height="21.3965" opacity="0" width="20.459" x="0" y="0"/>
  <path d="M12.2266 21.3965Q12.7539 21.3965 13.1348 20.9766Q13.5156 20.5566 13.7891 19.8535L20.1855 3.14453Q20.3125 2.80273 20.3857 2.50977Q20.459 2.2168 20.459 1.96289Q20.459 1.48438 20.1855 1.21094Q19.9121 0.9375 19.4336 0.9375Q19.1895 0.9375 18.8916 1.01074Q18.5938 1.08398 18.252 1.21094L1.45508 7.64648Q0.839844 7.88086 0.419922 8.26172Q0 8.64258 0 9.16992Q0 9.84375 0.458984 10.1416Q0.917969 10.4395 1.62109 10.6543L6.89453 12.2559Q7.36328 12.4023 7.66602 12.3682Q7.96875 12.334 8.29102 12.041L19.0039 2.03125Q19.0918 1.94336 19.1943 1.94824Q19.2969 1.95312 19.375 2.02148Q19.4531 2.08984 19.4531 2.19727Q19.4531 2.30469 19.3652 2.39258L9.39453 13.1445Q9.11133 13.4473 9.07227 13.7451Q9.0332 14.043 9.16992 14.5312L10.7227 19.6875Q10.9375 20.4199 11.2402 20.9082Q11.543 21.3965 12.2266 21.3965Z" fill="#ffffff"/>
 </g>
</svg>
