<?xml version="1.0" encoding="UTF-8"?>
<!--Generator: Apple Native CoreSVG 175.5-->
<!DOCTYPE svg
PUBLIC "-//W3C//DTD SVG 1.1//EN"
       "http://www.w3.org/Graphics/SVG/1.1/DTD/svg11.dtd">
<svg version="1.1" xmlns="http://www.w3.org/2000/svg" xmlns:xlink="http://www.w3.org/1999/xlink" width="19.9219" height="19.9316">
 <g>
  <rect height="19.9316" opacity="0" width="19.9219" x="0" y="0"/>
  <path d="M9.96094 19.9219Q12.002 19.9219 13.8037 19.1406Q15.6055 18.3594 16.9824 16.9824Q18.3594 15.6055 19.1406 13.8037Q19.9219 12.002 19.9219 9.96094Q19.9219 7.91992 19.1406 6.11816Q18.3594 4.31641 16.9824 2.93945Q15.6055 1.5625 13.7988 0.78125Q11.9922 0 9.95117 0Q7.91016 0 6.1084 0.78125Q4.30664 1.5625 2.93457 2.93945Q1.5625 4.31641 0.78125 6.11816Q0 7.91992 0 9.96094Q0 12.002 0.78125 13.8037Q1.5625 15.6055 2.93945 16.9824Q4.31641 18.3594 6.11816 19.1406Q7.91992 19.9219 9.96094 19.9219Z" fill="rgba(255,255,255,0.25)"/>
  <path d="M7.80273 14.5801Q7.41211 14.5801 7.20703 14.3262Q7.00195 14.0723 7.00195 13.6621L7.00195 6.19141Q7.00195 5.78125 7.20215 5.52734Q7.40234 5.27344 7.79297 5.27344L10.6055 5.27344Q12.0703 5.27344 12.9736 6.13281Q13.877 6.99219 13.877 8.37891Q13.877 9.76562 12.9736 10.6152Q12.0703 11.4648 10.5957 11.4648L8.61328 11.4648L8.61328 13.6621Q8.61328 14.082 8.4082 14.3311Q8.20312 14.5801 7.80273 14.5801ZM8.61328 10.2344L10.3711 10.2344Q11.2598 10.2344 11.7725 9.73633Q12.2852 9.23828 12.2852 8.37891Q12.2852 7.50977 11.7676 7.01172Q11.25 6.51367 10.3711 6.51367L8.61328 6.51367Z" fill="#ffffff"/>
 </g>
</svg>
