<?xml version="1.0" encoding="UTF-8"?>
<!--Generator: Apple Native CoreSVG 175-->
<!DOCTYPE svg
PUBLIC "-//W3C//DTD SVG 1.1//EN"
       "http://www.w3.org/Graphics/SVG/1.1/DTD/svg11.dtd">
<svg version="1.1" xmlns="http://www.w3.org/2000/svg" xmlns:xlink="http://www.w3.org/1999/xlink" width="19.1602" height="19.1504">
 <g>
  <rect height="19.1504" opacity="0" width="19.1602" x="0" y="0"/>
  <path d="M9.57031 19.1406Q11.5527 19.1406 13.2861 18.3984Q15.0195 17.6562 16.3379 16.333Q17.6562 15.0098 18.4082 13.2764Q19.1602 11.543 19.1602 9.57031Q19.1602 7.59766 18.4082 5.86426Q17.6562 4.13086 16.3379 2.80762Q15.0195 1.48438 13.2861 0.742188Q11.5527 0 9.57031 0Q7.59766 0 5.86426 0.742188Q4.13086 1.48438 2.81738 2.80762Q1.50391 4.13086 0.751953 5.86426Q0 7.59766 0 9.57031Q0 11.543 0.74707 13.2764Q1.49414 15.0098 2.8125 16.333Q4.13086 17.6562 5.86914 18.3984Q7.60742 19.1406 9.57031 19.1406Z" fill="rgba(255,255,255,0.25)"/>
  <path d="M4.54102 8.69141Q4.54102 7.92969 4.86328 7.45117Q5.18555 6.97266 5.69336 6.97266Q6.21094 6.97266 6.52832 7.45117Q6.8457 7.92969 6.8457 8.69141Q6.8457 9.44336 6.52832 9.92188Q6.21094 10.4004 5.69336 10.4004Q5.18555 10.4004 4.86328 9.92188Q4.54102 9.44336 4.54102 8.69141ZM6.875 5.9082Q6.875 5.14648 7.19727 4.67773Q7.51953 4.20898 8.02734 4.20898Q8.54492 4.20898 8.8623 4.68262Q9.17969 5.15625 9.17969 5.9082Q9.17969 6.67969 8.8623 7.1582Q8.54492 7.63672 8.02734 7.63672Q7.51953 7.63672 7.19727 7.1582Q6.875 6.67969 6.875 5.9082ZM9.99023 5.9082Q9.99023 5.15625 10.3125 4.68262Q10.6348 4.20898 11.1523 4.20898Q11.6602 4.20898 11.9824 4.67773Q12.3047 5.14648 12.3047 5.9082Q12.3047 6.67969 11.9824 7.1582Q11.6602 7.63672 11.1523 7.63672Q10.6348 7.63672 10.3125 7.1582Q9.99023 6.67969 9.99023 5.9082ZM12.334 8.69141Q12.334 7.92969 12.6514 7.45117Q12.9688 6.97266 13.4863 6.97266Q13.9941 6.97266 14.3164 7.45117Q14.6387 7.92969 14.6387 8.69141Q14.6387 9.44336 14.3164 9.92188Q13.9941 10.4004 13.4863 10.4004Q12.9688 10.4004 12.6514 9.92188Q12.334 9.44336 12.334 8.69141ZM5.87891 12.6172Q5.87891 11.9531 6.22559 11.5479Q6.57227 11.1426 6.95312 10.8398Q7.1582 10.6738 7.33398 10.5078Q7.50977 10.3418 7.62695 10.1465Q7.70508 10.0195 7.77832 9.86328Q7.85156 9.70703 7.91992 9.54102Q8.07617 9.17969 8.27637 8.81836Q8.47656 8.45703 8.78418 8.21289Q9.0918 7.96875 9.58984 7.96875Q10.0781 7.96875 10.3809 8.20801Q10.6836 8.44727 10.8887 8.81348Q11.0938 9.17969 11.25 9.54102Q11.3184 9.7168 11.3965 9.88281Q11.4746 10.0488 11.5625 10.1855Q11.6699 10.3613 11.8457 10.5176Q12.0215 10.6738 12.2168 10.8398Q12.5879 11.1426 12.9395 11.5479Q13.291 11.9531 13.291 12.6172Q13.291 13.3105 12.8223 13.7646Q12.3535 14.2188 11.6406 14.2188Q11.2695 14.2188 10.9863 14.1309Q10.7031 14.043 10.459 13.9355Q10.2344 13.8477 10.0293 13.7793Q9.82422 13.7109 9.58984 13.7109Q9.3457 13.7109 9.14062 13.7793Q8.93555 13.8477 8.71094 13.9355Q8.45703 14.043 8.17871 14.1309Q7.90039 14.2188 7.53906 14.2188Q6.81641 14.2188 6.34766 13.7646Q5.87891 13.3105 5.87891 12.6172Z" fill="#ffffff"/>
 </g>
</svg>
