<?xml version="1.0" encoding="UTF-8"?>
<!--Generator: Apple Native CoreSVG 175.5-->
<!DOCTYPE svg
PUBLIC "-//W3C//DTD SVG 1.1//EN"
       "http://www.w3.org/Graphics/SVG/1.1/DTD/svg11.dtd">
<svg version="1.1" xmlns="http://www.w3.org/2000/svg" xmlns:xlink="http://www.w3.org/1999/xlink" width="21.1446" height="20.8887">
 <g>
  <rect height="20.8887" opacity="0" width="21.1446" x="0" y="0"/>
  <path d="M0.183562 9.82422L3.06442 18.7793Q3.39645 19.8242 4.11911 20.3564Q4.84177 20.8887 5.95505 20.8887L15.1933 20.8887Q16.3066 20.8887 17.0293 20.3564Q17.7519 19.8242 18.084 18.7793L20.9453 9.86328Q21.2968 8.7793 21.0283 7.91992Q20.7597 7.06055 19.8808 6.41602L12.4004 0.917969Q11.4824 0.234375 10.5742 0.234375Q9.66598 0.234375 8.74802 0.917969L1.26755 6.41602Q0.38864 7.06055 0.120085 7.91504Q-0.148469 8.76953 0.183562 9.82422ZM1.66794 9.3457Q1.49216 8.78906 1.61911 8.4082Q1.74606 8.02734 2.22458 7.67578L9.69528 2.16797Q10.1836 1.81641 10.5742 1.81641Q10.9648 1.81641 11.4531 2.16797L18.9238 7.67578Q19.4121 8.02734 19.5341 8.41309Q19.6562 8.79883 19.4707 9.375L18.8457 11.3184L2.3027 11.3184Z" fill="#ffffff"/>
 </g>
</svg>
