<?xml version="1.0" encoding="UTF-8"?>
<!--Generator: Apple Native CoreSVG 175.5-->
<!DOCTYPE svg
PUBLIC "-//W3C//DTD SVG 1.1//EN"
       "http://www.w3.org/Graphics/SVG/1.1/DTD/svg11.dtd">
<svg version="1.1" xmlns="http://www.w3.org/2000/svg" xmlns:xlink="http://www.w3.org/1999/xlink" width="35.0391" height="15.8301">
 <g>
  <rect height="15.8301" opacity="0" width="35.0391" x="0" y="0"/>
  <path d="M7.1582 7.70508Q8.10547 7.70508 8.90625 7.19238Q9.70703 6.67969 10.2002 5.79102Q10.6934 4.90234 10.6934 3.79883Q10.6934 2.71484 10.2002 1.86035Q9.70703 1.00586 8.90137 0.507812Q8.0957 0.00976562 7.1582 0.00976562Q6.21094 0.00976562 5.40527 0.512695Q4.59961 1.01562 4.10645 1.875Q3.61328 2.73438 3.62305 3.81836Q3.62305 4.91211 4.11133 5.7959Q4.59961 6.67969 5.40527 7.19238Q6.21094 7.70508 7.1582 7.70508ZM1.51367 15.8301L12.793 15.8301Q13.5156 15.8301 13.9111 15.5127Q14.3066 15.1953 14.3066 14.6289Q14.3066 13.7793 13.8281 12.8418Q13.3496 11.9043 12.4365 11.0791Q11.5234 10.2539 10.1904 9.74121Q8.85742 9.22852 7.14844 9.22852Q5.43945 9.22852 4.11133 9.74121Q2.7832 10.2539 1.86523 11.0791Q0.947266 11.9043 0.473633 12.8418Q0 13.7793 0 14.6289Q0 15.1953 0.395508 15.5127Q0.791016 15.8301 1.51367 15.8301ZM27.8906 7.70508Q28.8379 7.70508 29.6387 7.19238Q30.4395 6.67969 30.9326 5.79102Q31.4258 4.90234 31.4258 3.79883Q31.4258 2.71484 30.9326 1.86035Q30.4395 1.00586 29.6338 0.507812Q28.8281 0.00976562 27.8906 0.00976562Q26.9434 0.00976562 26.1377 0.512695Q25.332 1.01562 24.8389 1.875Q24.3457 2.73438 24.3555 3.81836Q24.3555 4.91211 24.8438 5.7959Q25.332 6.67969 26.1377 7.19238Q26.9434 7.70508 27.8906 7.70508ZM22.2461 15.8301L33.5254 15.8301Q34.248 15.8301 34.6436 15.5127Q35.0391 15.1953 35.0391 14.6289Q35.0391 13.7793 34.5605 12.8418Q34.082 11.9043 33.1689 11.0791Q32.2559 10.2539 30.9229 9.74121Q29.5898 9.22852 27.8809 9.22852Q26.1719 9.22852 24.8438 9.74121Q23.5156 10.2539 22.5977 11.0791Q21.6797 11.9043 21.2061 12.8418Q20.7324 13.7793 20.7324 14.6289Q20.7324 15.1953 21.1279 15.5127Q21.5234 15.8301 22.2461 15.8301Z" fill="#ffffff"/>
  <path d="M13.6816 8.45703Q14.2188 8.45703 14.5996 8.07617Q14.9805 7.69531 14.9805 7.1582Q14.9805 6.62109 14.5996 6.24512Q14.2188 5.86914 13.6816 5.86914Q13.1445 5.86914 12.7686 6.24512Q12.3926 6.62109 12.3926 7.1582Q12.3926 7.69531 12.7686 8.07617Q13.1445 8.45703 13.6816 8.45703ZM17.5195 8.45703Q18.0566 8.45703 18.4326 8.07617Q18.8086 7.69531 18.8086 7.1582Q18.8086 6.62109 18.4326 6.24512Q18.0566 5.86914 17.5195 5.86914Q16.9824 5.86914 16.6064 6.24512Q16.2305 6.62109 16.2305 7.1582Q16.2305 7.69531 16.6064 8.07617Q16.9824 8.45703 17.5195 8.45703ZM21.3379 8.45703Q21.8848 8.45703 22.2607 8.07617Q22.6367 7.69531 22.6367 7.1582Q22.6367 6.62109 22.2607 6.24512Q21.8848 5.86914 21.3379 5.86914Q20.8008 5.86914 20.4248 6.24512Q20.0488 6.62109 20.0488 7.1582Q20.0488 7.69531 20.4248 8.07617Q20.8008 8.45703 21.3379 8.45703Z" fill="rgba(255,255,255,0.5)"/>
 </g>
</svg>
