<?xml version="1.0" encoding="UTF-8"?>
<!--Generator: Apple Native CoreSVG 175.5-->
<!DOCTYPE svg
PUBLIC "-//W3C//DTD SVG 1.1//EN"
       "http://www.w3.org/Graphics/SVG/1.1/DTD/svg11.dtd">
<svg version="1.1" xmlns="http://www.w3.org/2000/svg" xmlns:xlink="http://www.w3.org/1999/xlink" width="19.9219" height="19.9316">
 <g>
  <rect height="19.9316" opacity="0" width="19.9219" x="0" y="0"/>
  <path d="M9.96094 19.9316Q12.002 19.9316 13.8037 19.1504Q15.6055 18.3691 16.9824 16.9922Q18.3594 15.6152 19.1406 13.8135Q19.9219 12.0117 19.9219 9.9707Q19.9219 7.92969 19.1406 6.12793Q18.3594 4.32617 16.9824 2.94922Q15.6055 1.57227 13.7988 0.791016Q11.9922 0.00976562 9.95117 0.00976562Q7.91016 0.00976562 6.1084 0.791016Q4.30664 1.57227 2.93457 2.94922Q1.5625 4.32617 0.78125 6.12793Q0 7.92969 0 9.9707Q0 12.0117 0.78125 13.8135Q1.5625 15.6152 2.93945 16.9922Q4.31641 18.3691 6.11816 19.1504Q7.91992 19.9316 9.96094 19.9316Z" fill="rgba(255,255,255,0.25)"/>
  <path d="M3.19336 8.94531Q3.19336 7.70508 3.98926 6.89941Q4.78516 6.09375 6.02539 6.09375L10.2051 6.09375Q11.4453 6.09375 12.2412 6.89941Q13.0371 7.70508 13.0371 8.94531Q13.0371 10.1855 12.2412 10.9863Q11.4453 11.7871 10.2051 11.7871L8.86719 11.7871Q8.64258 11.5625 8.59863 11.2402Q8.55469 10.918 8.63281 10.6934L10.1465 10.6934Q10.9277 10.6934 11.4111 10.21Q11.8945 9.72656 11.8945 8.94531Q11.8945 8.17383 11.4111 7.68066Q10.9277 7.1875 10.1465 7.1875L6.09375 7.1875Q5.3125 7.1875 4.8291 7.68066Q4.3457 8.17383 4.3457 8.94531Q4.3457 9.72656 4.8291 10.21Q5.3125 10.6934 6.09375 10.6934L6.30859 10.6934Q6.2793 10.9375 6.29883 11.2598Q6.31836 11.582 6.35742 11.7871L6.02539 11.7871Q4.78516 11.7871 3.98926 10.9863Q3.19336 10.1855 3.19336 8.94531ZM6.86523 11.0742Q6.86523 9.83398 7.66113 9.0332Q8.45703 8.23242 9.70703 8.23242L11.0352 8.23242Q11.2695 8.4375 11.3086 8.77441Q11.3477 9.11133 11.25 9.32617L9.75586 9.32617Q8.97461 9.32617 8.49121 9.80957Q8.00781 10.293 8.00781 11.0742Q8.00781 11.8555 8.49609 12.3438Q8.98438 12.832 9.75586 12.832L13.8184 12.832Q14.5898 12.832 15.0781 12.3438Q15.5664 11.8555 15.5664 11.0742Q15.5664 10.293 15.0781 9.80957Q14.5898 9.32617 13.8184 9.32617L13.5938 9.32617Q13.6328 8.96484 13.6084 8.70605Q13.584 8.44727 13.5449 8.23242L13.877 8.23242Q15.1172 8.23242 15.918 9.0332Q16.7188 9.83398 16.7188 11.0742Q16.7188 12.3145 15.918 13.1201Q15.1172 13.9258 13.877 13.9258L9.70703 13.9258Q8.4668 13.9258 7.66602 13.1201Q6.86523 12.3145 6.86523 11.0742Z" fill="#ffffff"/>
 </g>
</svg>
