<?xml version="1.0" encoding="UTF-8"?>
<!--Generator: Apple Native CoreSVG 175.5-->
<!DOCTYPE svg
PUBLIC "-//W3C//DTD SVG 1.1//EN"
       "http://www.w3.org/Graphics/SVG/1.1/DTD/svg11.dtd">
<svg version="1.1" xmlns="http://www.w3.org/2000/svg" xmlns:xlink="http://www.w3.org/1999/xlink" width="23.916" height="17.8809">
 <g>
  <rect height="17.8809" opacity="0" width="23.916" x="0" y="0"/>
  <path d="M1.66992 17.8809L14.7656 17.8809Q15.5469 17.8809 15.9912 17.5342Q16.4355 17.1875 16.4355 16.582Q16.4355 15.6445 15.8643 14.5996Q15.293 13.5547 14.2236 12.6416Q13.1543 11.7285 11.6357 11.1572Q10.1172 10.5859 8.21289 10.5859Q6.31836 10.5859 4.7998 11.1572Q3.28125 11.7285 2.20703 12.6416Q1.13281 13.5547 0.566406 14.5996Q0 15.6445 0 16.582Q0 17.1875 0.444336 17.5342Q0.888672 17.8809 1.66992 17.8809ZM8.22266 8.83789Q9.26758 8.83789 10.1562 8.2666Q11.0449 7.69531 11.5869 6.71875Q12.1289 5.74219 12.1289 4.52148Q12.1289 3.32031 11.5869 2.36816Q11.0449 1.41602 10.1562 0.869141Q9.26758 0.322266 8.22266 0.322266Q7.17773 0.322266 6.28906 0.878906Q5.40039 1.43555 4.8584 2.39258Q4.31641 3.34961 4.31641 4.54102Q4.31641 5.75195 4.8584 6.72363Q5.40039 7.69531 6.28906 8.2666Q7.17773 8.83789 8.22266 8.83789Z" fill="rgba(255,255,255,0.5)"/>
  <path d="M18.4277 9.41406Q18.9258 9.41406 19.2188 8.96484L23.6816 1.93359Q23.7695 1.79688 23.8428 1.63574Q23.916 1.47461 23.916 1.30859Q23.916 0.986328 23.6719 0.791016Q23.4277 0.595703 23.125 0.595703Q22.7148 0.595703 22.4414 1.03516L18.3887 7.53906L16.4648 5.04883Q16.2891 4.81445 16.1182 4.73145Q15.9473 4.64844 15.7422 4.64844Q15.4297 4.64844 15.21 4.87793Q14.9902 5.10742 14.9902 5.42969Q14.9902 5.73242 15.2148 6.03516L17.5977 8.96484Q17.7832 9.19922 17.9834 9.30664Q18.1836 9.41406 18.4277 9.41406Z" fill="#ffffff"/>
 </g>
</svg>
