<?xml version="1.0" encoding="UTF-8"?>
<!--Generator: Apple Native CoreSVG 175.5-->
<!DOCTYPE svg
PUBLIC "-//W3C//DTD SVG 1.1//EN"
       "http://www.w3.org/Graphics/SVG/1.1/DTD/svg11.dtd">
<svg version="1.1" xmlns="http://www.w3.org/2000/svg" xmlns:xlink="http://www.w3.org/1999/xlink" width="19.9219" height="19.9316">
 <g>
  <rect height="19.9316" opacity="0" width="19.9219" x="0" y="0"/>
  <path d="M9.96094 19.9219Q12.002 19.9219 13.8037 19.1406Q15.6055 18.3594 16.9824 16.9824Q18.3594 15.6055 19.1406 13.8037Q19.9219 12.002 19.9219 9.96094Q19.9219 7.91992 19.1406 6.11816Q18.3594 4.31641 16.9824 2.93945Q15.6055 1.5625 13.7988 0.78125Q11.9922 0 9.95117 0Q7.91016 0 6.1084 0.78125Q4.30664 1.5625 2.93457 2.93945Q1.5625 4.31641 0.78125 6.11816Q0 7.91992 0 9.96094Q0 12.002 0.78125 13.8037Q1.5625 15.6055 2.93945 16.9824Q4.31641 18.3594 6.11816 19.1406Q7.91992 19.9219 9.96094 19.9219ZM9.96094 18.2617Q8.23242 18.2617 6.72852 17.6172Q5.22461 16.9727 4.08691 15.835Q2.94922 14.6973 2.30957 13.1934Q1.66992 11.6895 1.66992 9.96094Q1.66992 8.23242 2.30957 6.72852Q2.94922 5.22461 4.08203 4.08203Q5.21484 2.93945 6.71875 2.2998Q8.22266 1.66016 9.95117 1.66016Q11.6797 1.66016 13.1885 2.2998Q14.6973 2.93945 15.835 4.08203Q16.9727 5.22461 17.6172 6.72852Q18.2617 8.23242 18.2617 9.96094Q18.2617 11.6895 17.6221 13.1934Q16.9824 14.6973 15.8398 15.835Q14.6973 16.9727 13.1934 17.6172Q11.6895 18.2617 9.96094 18.2617Z" fill="rgba(255,255,255,0.5)"/>
  <path d="M6.37695 8.41797Q6.37695 8.62305 6.51367 8.76465Q6.65039 8.90625 6.85547 8.90625L7.45117 8.90625L7.45117 14.209Q7.45117 14.4922 7.63672 14.6729Q7.82227 14.8535 8.0957 14.8535Q8.37891 14.8535 8.55469 14.6729Q8.73047 14.4922 8.73047 14.209L8.73047 11.4551L10.4395 11.4551Q11.6699 11.4551 12.4854 10.752Q13.3008 10.0488 13.4375 8.90625L13.8867 8.90625Q14.1016 8.90625 14.2334 8.76465Q14.3652 8.62305 14.3652 8.41797Q14.3652 8.20312 14.2334 8.07129Q14.1016 7.93945 13.8867 7.93945L13.418 7.93945Q13.252 6.8457 12.4463 6.18164Q11.6406 5.51758 10.4395 5.51758L8.07617 5.51758Q7.45117 5.51758 7.45117 6.16211L7.45117 7.93945L6.85547 7.93945Q6.65039 7.93945 6.51367 8.07129Q6.37695 8.20312 6.37695 8.41797ZM8.74023 10.3027L8.74023 8.90625L12.1387 8.90625Q12.0215 9.57031 11.5283 9.93652Q11.0352 10.3027 10.2246 10.3027ZM8.74023 7.93945L8.74023 6.66992L10.2246 6.66992Q10.9961 6.66992 11.4844 6.99707Q11.9727 7.32422 12.1094 7.93945Z" fill="#ffffff"/>
 </g>
</svg>
