<?xml version="1.0" encoding="UTF-8"?>
<!--Generator: Apple Native CoreSVG 175-->
<!DOCTYPE svg
PUBLIC "-//W3C//DTD SVG 1.1//EN"
       "http://www.w3.org/Graphics/SVG/1.1/DTD/svg11.dtd">
<svg version="1.1" xmlns="http://www.w3.org/2000/svg" xmlns:xlink="http://www.w3.org/1999/xlink" width="19.1602" height="19.1504">
 <g>
  <rect height="19.1504" opacity="0" width="19.1602" x="0" y="0"/>
  <path d="M9.57031 19.1406Q11.5527 19.1406 13.2861 18.3984Q15.0195 17.6562 16.3379 16.333Q17.6562 15.0098 18.4082 13.2764Q19.1602 11.543 19.1602 9.57031Q19.1602 7.59766 18.4082 5.86426Q17.6562 4.13086 16.3379 2.80762Q15.0195 1.48438 13.2861 0.742188Q11.5527 0 9.57031 0Q7.59766 0 5.86426 0.742188Q4.13086 1.48438 2.81738 2.80762Q1.50391 4.13086 0.751953 5.86426Q0 7.59766 0 9.57031Q0 11.543 0.74707 13.2764Q1.49414 15.0098 2.8125 16.333Q4.13086 17.6562 5.86914 18.3984Q7.60742 19.1406 9.57031 19.1406ZM9.57031 18.3984Q7.74414 18.3984 6.14746 17.71Q4.55078 17.0215 3.33496 15.8105Q2.11914 14.5996 1.43555 12.998Q0.751953 11.3965 0.751953 9.57031Q0.751953 7.74414 1.43555 6.14258Q2.11914 4.54102 3.33496 3.3252Q4.55078 2.10938 6.14746 1.4209Q7.74414 0.732422 9.57031 0.732422Q11.4062 0.732422 13.0029 1.4209Q14.5996 2.10938 15.8154 3.3252Q17.0312 4.54102 17.7197 6.14258Q18.4082 7.74414 18.4082 9.57031Q18.4082 11.3965 17.7246 12.998Q17.041 14.5996 15.8252 15.8105Q14.6094 17.0215 13.0078 17.71Q11.4062 18.3984 9.57031 18.3984Z" fill="rgba(255,255,255,0.5)"/>
  <path d="M6.44531 8.87695Q6.44531 8.99414 6.52832 9.08203Q6.61133 9.16992 6.73828 9.16992L7.28516 9.16992L7.28516 13.7305Q7.28516 13.8965 7.38281 13.9844Q7.48047 14.0723 7.62695 14.0723Q7.77344 14.0723 7.86621 13.9844Q7.95898 13.8965 7.95898 13.7305L7.95898 10.7617L9.70703 10.7617Q10.6934 10.7617 11.3574 10.3369Q12.0215 9.91211 12.2852 9.16992L12.9688 9.16992Q13.1055 9.16992 13.1885 9.08203Q13.2715 8.99414 13.2715 8.87695Q13.2715 8.74023 13.1885 8.65723Q13.1055 8.57422 12.9688 8.57422L12.4316 8.57422Q12.4609 8.36914 12.4609 8.14453Q12.4609 8.03711 12.4561 7.93457Q12.4512 7.83203 12.4414 7.72461L12.9688 7.72461Q13.1055 7.72461 13.1885 7.6416Q13.2715 7.55859 13.2715 7.42188Q13.2715 7.29492 13.1885 7.21191Q13.1055 7.12891 12.9688 7.12891L12.2949 7.12891Q12.0312 6.37695 11.3623 5.95703Q10.6934 5.53711 9.70703 5.53711L7.61719 5.53711Q7.28516 5.53711 7.28516 5.87891L7.28516 7.12891L6.73828 7.12891Q6.61133 7.12891 6.52832 7.21191Q6.44531 7.29492 6.44531 7.42188Q6.44531 7.55859 6.52832 7.6416Q6.61133 7.72461 6.73828 7.72461L7.28516 7.72461L7.28516 8.57422L6.73828 8.57422Q6.61133 8.57422 6.52832 8.65723Q6.44531 8.74023 6.44531 8.87695ZM7.95898 10.127L7.95898 9.16992L11.5527 9.16992Q11.0449 10.127 9.66797 10.127ZM7.95898 8.57422L7.95898 7.72461L11.7676 7.72461Q11.8066 7.91016 11.8066 8.14453Q11.8066 8.36914 11.7676 8.57422ZM7.95898 7.12891L7.95898 6.16211L9.66797 6.16211Q11.0449 6.16211 11.5625 7.12891Z" fill="#ffffff"/>
 </g>
</svg>
