<?xml version="1.0" encoding="UTF-8"?>
<!--Generator: Apple Native CoreSVG 175.5-->
<!DOCTYPE svg
PUBLIC "-//W3C//DTD SVG 1.1//EN"
       "http://www.w3.org/Graphics/SVG/1.1/DTD/svg11.dtd">
<svg version="1.1" xmlns="http://www.w3.org/2000/svg" xmlns:xlink="http://www.w3.org/1999/xlink" width="18.5742" height="18.8379">
 <g>
  <rect height="18.8379" opacity="0" width="18.5742" x="0" y="0"/>
  <path d="M4.95117 13.8379Q6.36719 15.2441 7.92969 16.377Q9.49219 17.5098 11.0547 18.1738Q12.6172 18.8379 14.0137 18.8379Q14.9609 18.8379 15.7812 18.4961Q16.6016 18.1543 17.2656 17.4219Q17.6465 16.9922 17.876 16.499Q18.1055 16.0059 18.1055 15.5078Q18.1055 15.1367 17.9541 14.7998Q17.8027 14.4629 17.4512 14.2188L14.4629 12.0898Q14.1211 11.8555 13.8281 11.7383Q13.5352 11.6211 13.2715 11.6211Q12.9395 11.6211 12.627 11.8018Q12.3145 11.9824 11.9824 12.3145L11.2891 12.998Q11.1328 13.1543 10.918 13.1543Q10.8008 13.1543 10.6982 13.1152Q10.5957 13.0762 10.5176 13.0469Q10.0684 12.8027 9.35547 12.2021Q8.64258 11.6016 7.91992 10.8789Q7.20703 10.1562 6.60156 9.44336Q5.99609 8.73047 5.76172 8.28125Q5.72266 8.20312 5.68848 8.10059Q5.6543 7.99805 5.6543 7.89062Q5.6543 7.67578 5.80078 7.5293L6.48438 6.81641Q6.81641 6.48438 6.99707 6.17188Q7.17773 5.85938 7.17773 5.52734Q7.17773 5.26367 7.06055 4.9707Q6.94336 4.67773 6.69922 4.33594L4.59961 1.37695Q4.3457 1.02539 3.99414 0.864258Q3.64258 0.703125 3.25195 0.703125Q2.23633 0.703125 1.36719 1.55273Q0.654297 2.23633 0.327148 3.06152Q0 3.88672 0 4.82422Q0 6.23047 0.649414 7.77832Q1.29883 9.32617 2.42188 10.8789Q3.54492 12.4316 4.95117 13.8379Z" fill="rgba(255,255,255,0.5)"/>
  <path d="M11.1328 8.50586Q11.4258 8.50586 11.6406 8.29102L15.8398 4.07227L17.3438 2.45117L17.1777 5.3125L17.1777 6.76758Q17.1777 7.05078 17.3682 7.25098Q17.5586 7.45117 17.8516 7.46094Q18.1445 7.48047 18.3594 7.27539Q18.5742 7.07031 18.5742 6.76758L18.5742 1.11328Q18.5742 0.722656 18.3838 0.527344Q18.1934 0.332031 17.8027 0.332031L12.1289 0.332031Q11.8359 0.332031 11.626 0.546875Q11.416 0.761719 11.4355 1.06445Q11.4453 1.34766 11.6455 1.53809Q11.8457 1.72852 12.1289 1.72852L13.6133 1.72852L16.4844 1.57227L14.8438 3.06641L10.6348 7.28516Q10.4004 7.51953 10.4004 7.82227Q10.4004 8.11523 10.6104 8.31055Q10.8203 8.50586 11.1328 8.50586Z" fill="#ffffff"/>
 </g>
</svg>
