<?xml version="1.0" encoding="UTF-8"?>
<!--Generator: Apple Native CoreSVG 175.5-->
<!DOCTYPE svg
PUBLIC "-//W3C//DTD SVG 1.1//EN"
       "http://www.w3.org/Graphics/SVG/1.1/DTD/svg11.dtd">
<svg version="1.1" xmlns="http://www.w3.org/2000/svg" xmlns:xlink="http://www.w3.org/1999/xlink" width="20.752" height="22.334">
 <g>
  <rect height="22.334" opacity="0" width="20.752" x="0" y="0"/>
  <path d="M14.1992 20.7422Q15.4785 20.7422 16.377 20.376Q17.2754 20.0098 18.0176 19.1699Q18.0762 19.1113 18.1299 19.0479Q18.1836 18.9844 18.2422 18.9258Q18.6816 18.4375 18.8916 17.9541Q19.1016 17.4707 19.1016 17.0117Q19.1016 16.4844 18.7891 15.9912Q18.4766 15.498 17.8223 15.0488L14.9805 13.0762Q14.3262 12.627 13.5986 12.6172Q12.8711 12.6074 12.2559 13.2129L11.5039 13.9648Q11.3379 14.1309 11.1865 14.1504Q11.0352 14.1699 10.8594 14.0625Q10.6055 13.8965 10.2002 13.5645Q9.79492 13.2324 9.35547 12.8369Q8.91602 12.4414 8.55469 12.0801Q8.17383 11.6992 7.8125 11.3086Q7.45117 10.918 7.1582 10.5518Q6.86523 10.1855 6.66992 9.87305Q6.57227 9.70703 6.5918 9.55566Q6.61133 9.4043 6.77734 9.23828L7.51953 8.48633Q8.13477 7.87109 8.125 7.14355Q8.11523 6.41602 7.66602 5.76172L5.68359 2.91992Q5.23438 2.26562 4.74609 1.95801Q4.25781 1.65039 3.73047 1.64062Q2.79297 1.62109 1.81641 2.5Q1.74805 2.55859 1.68945 2.6123Q1.63086 2.66602 1.5625 2.71484Q0.732422 3.45703 0.366211 4.35547Q0 5.25391 0 6.52344Q0 7.91992 0.561523 9.48242Q1.12305 11.0449 2.21191 12.6709Q3.30078 14.2969 4.87305 15.8691Q6.43555 17.4316 8.05664 18.5205Q9.67773 19.6094 11.2402 20.1758Q12.8027 20.7422 14.1992 20.7422ZM14.209 19.2383Q12.959 19.2676 11.5381 18.6914Q10.1172 18.1152 8.68652 17.1143Q7.25586 16.1133 5.99609 14.8535Q4.72656 13.584 3.69629 12.124Q2.66602 10.6641 2.07031 9.21387Q1.47461 7.76367 1.49414 6.52344Q1.51367 5.71289 1.79688 5.03418Q2.08008 4.35547 2.65625 3.85742Q2.70508 3.80859 2.74902 3.77441Q2.79297 3.74023 2.8418 3.70117Q3.05664 3.51562 3.28613 3.41309Q3.51562 3.31055 3.7207 3.31055Q4.18945 3.31055 4.45312 3.71094L6.34766 6.55273Q6.50391 6.78711 6.49902 7.03125Q6.49414 7.27539 6.26953 7.5L5.41016 8.35938Q4.90234 8.85742 4.90234 9.43848Q4.90234 10.0195 5.27344 10.5078Q5.69336 11.0742 6.33789 11.8066Q6.98242 12.5391 7.53906 13.0957Q7.91992 13.4668 8.40332 13.9111Q8.88672 14.3555 9.37012 14.7705Q9.85352 15.1855 10.2246 15.4688Q10.7227 15.8301 11.2988 15.835Q11.875 15.8398 12.3828 15.332L13.2422 14.4727Q13.4668 14.2383 13.7109 14.2383Q13.9551 14.2383 14.1797 14.3848L17.0215 16.2793Q17.2461 16.4258 17.3389 16.6113Q17.4316 16.7969 17.4316 17.0117Q17.4316 17.4512 17.0312 17.9004Q16.9922 17.9492 16.958 17.9932Q16.9238 18.0371 16.8848 18.0859Q16.377 18.6621 15.6982 18.9453Q15.0195 19.2285 14.209 19.2383Z" fill="rgba(255,255,255,0.5)"/>
  <path d="M10.625 10.1172Q11.0156 10.5078 11.5723 10.5078Q12.1289 10.5078 12.5195 10.1074Q12.9102 9.7168 12.9102 9.16992Q12.9102 8.62305 12.5195 8.23242Q12.1289 7.83203 11.5723 7.83203Q11.0156 7.83203 10.625 8.22266Q10.2344 8.61328 10.2344 9.16504Q10.2344 9.7168 10.625 10.1172ZM11.5918 4.70703Q11.3574 4.93164 11.3574 5.25879Q11.3574 5.58594 11.5918 5.82031L14.9219 9.15039Q15.1562 9.38477 15.4834 9.38477Q15.8105 9.38477 16.0352 9.15039Q16.2598 8.92578 16.2598 8.59863Q16.2598 8.27148 16.0352 8.04688L12.6953 4.70703Q12.4707 4.47266 12.1436 4.47266Q11.8164 4.47266 11.5918 4.70703ZM15.1074 5.64453Q15.5078 6.02539 16.0547 6.02539Q16.6016 6.02539 16.9922 5.63477Q17.3828 5.24414 17.3828 4.69238Q17.3828 4.14062 16.9922 3.75977Q16.6016 3.35938 16.0498 3.35938Q15.498 3.35938 15.1074 3.75Q14.707 4.14062 14.707 4.6875Q14.707 5.23438 15.1074 5.64453ZM16.0742 0.224609Q15.8496 0.458984 15.8496 0.786133Q15.8496 1.11328 16.0742 1.33789L19.4043 4.67773Q19.6289 4.90234 19.9609 4.90234Q20.293 4.90234 20.5176 4.67773Q20.752 4.45312 20.752 4.12598Q20.752 3.79883 20.5176 3.56445L17.1875 0.224609Q16.9531 0 16.6211 0Q16.2891 0 16.0742 0.224609Z" fill="#ffffff"/>
 </g>
</svg>
