<?xml version="1.0" encoding="UTF-8"?>
<!--Generator: Apple Native CoreSVG 175.5-->
<!DOCTYPE svg
PUBLIC "-//W3C//DTD SVG 1.1//EN"
       "http://www.w3.org/Graphics/SVG/1.1/DTD/svg11.dtd">
<svg version="1.1" xmlns="http://www.w3.org/2000/svg" xmlns:xlink="http://www.w3.org/1999/xlink" width="17.8223" height="21.3615">
 <g>
  <rect height="21.3615" opacity="0" width="17.8223" x="0" y="0"/>
  <path d="M0 10.6759Q0 12.5118 0.297852 14.2647Q0.595703 16.0177 1.21094 17.4776Q1.82617 18.9376 2.79297 19.9044Q3.47656 20.5977 4.35059 20.9835Q5.22461 21.3692 6.31836 21.3497Q7.36328 21.3302 8.04199 20.7101Q8.7207 20.0899 8.54492 19.0645L7.94922 15.5977Q7.80273 14.7286 7.37793 14.3673Q6.95312 14.006 6.03516 14.006L5.39062 14.006Q4.86328 14.006 4.60449 13.6593Q4.3457 13.3126 4.26758 12.5802Q4.18945 11.8477 4.18945 10.6759Q4.18945 9.504 4.26758 8.76669Q4.3457 8.02939 4.60449 7.68759Q4.86328 7.34579 5.39062 7.34579L6.03516 7.34579Q6.94336 7.34579 7.36816 6.98935Q7.79297 6.6329 7.94922 5.754L8.54492 2.2872Q8.7207 1.26181 8.04199 0.641692Q7.36328 0.0215752 6.31836 0.00204397Q5.22461-0.0272529 4.35059 0.363372Q3.47656 0.753997 2.79297 1.43759Q1.82617 2.41415 1.21094 3.87411Q0.595703 5.33408 0.297852 7.087Q0 8.83993 0 10.6759Z" fill="rgba(255,255,255,0.5)"/>
  <path d="M8.4375 11.3692L13.6816 11.3692L15.7324 11.2716L13.6035 13.1856L12.5781 14.211Q12.4805 14.3185 12.4268 14.4503Q12.373 14.5821 12.373 14.7384Q12.373 15.0313 12.5635 15.2218Q12.7539 15.4122 13.0371 15.4122Q13.3398 15.4122 13.5547 15.1974L17.5684 11.1935Q17.8223 10.9395 17.8223 10.6759Q17.8223 10.4122 17.5684 10.1485L13.5547 6.15439Q13.3398 5.93954 13.0371 5.93954Q12.7539 5.93954 12.5635 6.12509Q12.373 6.31064 12.373 6.60361Q12.373 6.76962 12.4268 6.90146Q12.4805 7.03329 12.5781 7.13095L13.6035 8.16611L15.7324 10.0704L13.6816 9.97275L8.4375 9.97275Q8.10547 9.97275 7.91504 10.1876Q7.72461 10.4024 7.72461 10.6759Q7.72461 10.9493 7.91504 11.1593Q8.10547 11.3692 8.4375 11.3692Z" fill="#ffffff"/>
 </g>
</svg>
