<?xml version="1.0" encoding="UTF-8"?>
<!--Generator: Apple Native CoreSVG 175.5-->
<!DOCTYPE svg
PUBLIC "-//W3C//DTD SVG 1.1//EN"
       "http://www.w3.org/Graphics/SVG/1.1/DTD/svg11.dtd">
<svg version="1.1" xmlns="http://www.w3.org/2000/svg" xmlns:xlink="http://www.w3.org/1999/xlink" width="19.9219" height="19.9316">
 <g>
  <rect height="19.9316" opacity="0" width="19.9219" x="0" y="0"/>
  <path d="M9.96094 19.9219Q12.002 19.9219 13.8037 19.1406Q15.6055 18.3594 16.9824 16.9824Q18.3594 15.6055 19.1406 13.8037Q19.9219 12.002 19.9219 9.96094Q19.9219 7.91992 19.1406 6.11816Q18.3594 4.31641 16.9824 2.93945Q15.6055 1.5625 13.7988 0.78125Q11.9922 0 9.95117 0Q7.91016 0 6.1084 0.78125Q4.30664 1.5625 2.93457 2.93945Q1.5625 4.31641 0.78125 6.11816Q0 7.91992 0 9.96094Q0 12.002 0.78125 13.8037Q1.5625 15.6055 2.93945 16.9824Q4.31641 18.3594 6.11816 19.1406Q7.91992 19.9219 9.96094 19.9219ZM9.96094 18.2617Q8.23242 18.2617 6.72852 17.6172Q5.22461 16.9727 4.08691 15.835Q2.94922 14.6973 2.30957 13.1934Q1.66992 11.6895 1.66992 9.96094Q1.66992 8.23242 2.30957 6.72852Q2.94922 5.22461 4.08203 4.08203Q5.21484 2.93945 6.71875 2.2998Q8.22266 1.66016 9.95117 1.66016Q11.6797 1.66016 13.1885 2.2998Q14.6973 2.93945 15.835 4.08203Q16.9727 5.22461 17.6172 6.72852Q18.2617 8.23242 18.2617 9.96094Q18.2617 11.6895 17.6221 13.1934Q16.9824 14.6973 15.8398 15.835Q14.6973 16.9727 13.1934 17.6172Q11.6895 18.2617 9.96094 18.2617Z" fill="rgba(255,255,255,0.5)"/>
  <path d="M7.56836 12.2461Q8.42773 13.0957 9.36523 13.7549Q10.3027 14.4141 11.2305 14.751Q12.1582 15.0879 12.9932 14.9951Q13.8281 14.9023 14.4727 14.2578Q14.5215 14.209 14.5605 14.165Q14.5996 14.1211 14.6387 14.0723Q14.9707 13.6914 15.0146 13.2471Q15.0586 12.8027 14.6289 12.4805Q14.4043 12.3145 14.1602 12.1387Q13.916 11.9629 13.6084 11.7529Q13.3008 11.543 12.9004 11.2598Q12.4707 10.957 12.1582 11.0107Q11.8457 11.0645 11.5137 11.3867L11.1328 11.7773Q11.0449 11.8555 10.918 11.8506Q10.791 11.8457 10.6934 11.7871Q10.4395 11.6406 10.0391 11.3184Q9.63867 10.9961 9.22852 10.5762Q8.82812 10.1758 8.49609 9.77051Q8.16406 9.36523 8.02734 9.12109Q7.97852 9.0332 7.95898 8.91602Q7.93945 8.79883 8.03711 8.70117L8.42773 8.30078Q8.75977 7.94922 8.80859 7.64648Q8.85742 7.34375 8.54492 6.91406L7.34375 5.20508Q7.14844 4.92188 6.88477 4.84863Q6.62109 4.77539 6.31836 4.88281Q6.01562 4.99023 5.68359 5.23438Q5.64453 5.25391 5.61523 5.28809Q5.58594 5.32227 5.55664 5.3418Q4.91211 5.99609 4.81934 6.82617Q4.72656 7.65625 5.06348 8.58398Q5.40039 9.51172 6.05957 10.4492Q6.71875 11.3867 7.56836 12.2461Z" fill="#ffffff"/>
 </g>
</svg>
