<?xml version="1.0" encoding="UTF-8"?>
<!--Generator: Apple Native CoreSVG 175.5-->
<!DOCTYPE svg
PUBLIC "-//W3C//DTD SVG 1.1//EN"
       "http://www.w3.org/Graphics/SVG/1.1/DTD/svg11.dtd">
<svg version="1.1" xmlns="http://www.w3.org/2000/svg" xmlns:xlink="http://www.w3.org/1999/xlink" width="24.8927" height="21.2031">
 <g>
  <rect height="21.2031" opacity="0" width="24.8927" x="0" y="0"/>
  <path d="M1.67979 14.9619Q1.95323 16.4463 2.83214 17.0566Q3.71104 17.667 5.22472 17.4033L6.43565 17.1982L6.43565 15.6064L4.98058 15.8506Q4.25792 15.9775 3.80382 15.665Q3.34972 15.3525 3.213 14.6104L1.64073 5.7041Q1.50401 4.95215 1.82628 4.49805Q2.14854 4.04395 2.8712 3.91699L15.8497 1.63184Q16.5626 1.51465 17.0216 1.82227Q17.4806 2.12988 17.6173 2.88184L18.1251 5.72363L19.7169 5.72363L19.1407 2.53027Q18.8771 1.0459 17.9933 0.430664Q17.1095-0.18457 15.6056 0.0791016L2.56847 2.37402Q1.06456 2.64746 0.43956 3.52637Q-0.18544 4.40527 0.0782323 5.88965Z" fill="rgba(255,255,255,0.5)"/>
  <path d="M8.5255 19.9717L21.6017 19.9717Q22.8712 19.9717 23.5353 19.3271Q24.1993 18.6826 24.1993 17.4033L24.1993 16.7783L19.6778 12.501Q19.3946 12.2373 19.0528 12.1055Q18.711 11.9736 18.3497 11.9736Q17.9884 11.9736 17.6661 12.0957Q17.3439 12.2178 17.0314 12.4912L13.086 15.9873L11.5235 14.5713Q11.2403 14.3076 10.9425 14.1904Q10.6446 14.0732 10.3321 14.0732Q10.0489 14.0732 9.77062 14.1953Q9.49229 14.3174 9.20909 14.5518L5.91808 17.4131Q5.91808 18.6826 6.58214 19.3271Q7.2462 19.9717 8.5255 19.9717ZM12.3829 12.7158Q13.2423 12.7158 13.8478 12.1006Q14.4532 11.4854 14.4532 10.626Q14.4532 10.0693 14.1749 9.5957Q13.8966 9.12207 13.4278 8.83887Q12.9591 8.55566 12.3829 8.55566Q11.5333 8.55566 10.9278 9.1709Q10.3224 9.78613 10.3224 10.626Q10.3224 11.4854 10.9278 12.1006Q11.5333 12.7158 12.3829 12.7158ZM8.4962 20.4893L21.836 20.4893Q23.3595 20.4893 24.1261 19.7324Q24.8927 18.9756 24.8927 17.4619L24.8927 8.25293Q24.8927 6.74902 24.1261 5.9873Q23.3595 5.22559 21.836 5.22559L8.4962 5.22559Q6.95323 5.22559 6.19151 5.98242Q5.42979 6.73926 5.42979 8.25293L5.42979 17.4619Q5.42979 18.9756 6.19151 19.7324Q6.95323 20.4893 8.4962 20.4893ZM8.51573 18.917Q7.78331 18.917 7.39269 18.5312Q7.00206 18.1455 7.00206 17.3838L7.00206 8.34082Q7.00206 7.5791 7.39269 7.18848Q7.78331 6.79785 8.51573 6.79785L21.8067 6.79785Q22.5294 6.79785 22.9249 7.18848Q23.3204 7.5791 23.3204 8.34082L23.3204 17.3838Q23.3204 18.1455 22.9249 18.5312Q22.5294 18.917 21.8067 18.917Z" fill="#ffffff"/>
 </g>
</svg>
