<?xml version="1.0" encoding="UTF-8"?>
<!--Generator: Apple Native CoreSVG 175.5-->
<!DOCTYPE svg
PUBLIC "-//W3C//DTD SVG 1.1//EN"
       "http://www.w3.org/Graphics/SVG/1.1/DTD/svg11.dtd">
<svg version="1.1" xmlns="http://www.w3.org/2000/svg" xmlns:xlink="http://www.w3.org/1999/xlink" width="19.9219" height="19.9316">
 <g>
  <rect height="19.9316" opacity="0" width="19.9219" x="0" y="0"/>
  <path d="M9.96094 19.9316Q12.002 19.9316 13.8037 19.1504Q15.6055 18.3691 16.9824 16.9922Q18.3594 15.6152 19.1406 13.8135Q19.9219 12.0117 19.9219 9.9707Q19.9219 7.92969 19.1406 6.12793Q18.3594 4.32617 16.9824 2.94922Q15.6055 1.57227 13.7988 0.791016Q11.9922 0.00976562 9.95117 0.00976562Q7.91016 0.00976562 6.1084 0.791016Q4.30664 1.57227 2.93457 2.94922Q1.5625 4.32617 0.78125 6.12793Q0 7.92969 0 9.9707Q0 12.0117 0.78125 13.8135Q1.5625 15.6152 2.93945 16.9922Q4.31641 18.3691 6.11816 19.1504Q7.91992 19.9316 9.96094 19.9316Z" fill="rgba(255,255,255,0.25)"/>
  <path d="M9.82422 10.0391L6.71875 6.92383L8.34961 5.29297Q9.07227 4.56055 9.94141 4.5459Q10.8105 4.53125 11.5234 5.24414Q12.2266 5.92773 12.2168 6.80664Q12.207 7.68555 11.4746 8.4082ZM9.24805 10.625L7.59766 12.2754Q6.86523 12.998 6.00098 13.0176Q5.13672 13.0371 4.42383 12.3438Q3.73047 11.6406 3.75 10.7666Q3.76953 9.89258 4.50195 9.16016L6.13281 7.50977ZM15.8398 11.9434L10.3906 11.9434Q10.4883 11.2891 10.8691 10.7568Q11.25 10.2246 11.8311 9.91211Q12.4121 9.59961 13.1055 9.59961Q13.8086 9.59961 14.3945 9.91211Q14.9805 10.2246 15.3662 10.7568Q15.752 11.2891 15.8398 11.9434ZM15.8398 12.7637Q15.752 13.418 15.3662 13.9453Q14.9805 14.4727 14.3945 14.7852Q13.8086 15.0977 13.1055 15.0977Q12.4121 15.0977 11.8311 14.7852Q11.25 14.4727 10.8691 13.9453Q10.4883 13.418 10.3906 12.7637Z" fill="#ffffff"/>
 </g>
</svg>
