<?xml version="1.0" encoding="UTF-8"?>
<!--Generator: Apple Native CoreSVG 175-->
<!DOCTYPE svg
PUBLIC "-//W3C//DTD SVG 1.1//EN"
       "http://www.w3.org/Graphics/SVG/1.1/DTD/svg11.dtd">
<svg version="1.1" xmlns="http://www.w3.org/2000/svg" xmlns:xlink="http://www.w3.org/1999/xlink" width="17.6367" height="22.7441">
 <g>
  <rect height="22.7441" opacity="0" width="17.6367" x="0" y="0"/>
  <path d="M1.99219 14.2188Q1.99219 14.6387 2.28027 14.8926Q2.56836 15.1465 3.04688 15.1465L8.4082 15.1465L8.4082 21.084Q8.4082 21.416 8.46191 21.7139Q8.51562 22.0117 8.59375 22.2412Q8.67188 22.4707 8.75 22.6074Q8.82812 22.7441 8.88672 22.7441Q8.94531 22.7441 9.02344 22.6074Q9.10156 22.4707 9.18457 22.2412Q9.26758 22.0117 9.31641 21.7139Q9.36523 21.416 9.36523 21.084L9.36523 15.1758L11.5332 15.1758L5.77148 9.42383Q4.61914 9.88281 3.77441 10.625Q2.92969 11.3672 2.46094 12.29Q1.99219 13.2129 1.99219 14.2188ZM4.375 0.908203Q3.98438 0.908203 3.75488 1.11816Q3.52539 1.32812 3.52539 1.66016Q3.52539 1.92383 3.75977 2.29492Q4.00391 2.66602 4.45312 3.08105Q4.90234 3.49609 5.43945 3.89648Q5.97656 4.29688 6.48438 4.60938L6.36719 6.36719L15.0977 15.0879Q15.7812 14.9219 15.7812 14.2188Q15.7812 13.1543 15.2637 12.1777Q14.7461 11.2012 13.8086 10.4297Q12.8711 9.6582 11.5918 9.23828L11.2891 4.60938Q12.0215 4.15039 12.7832 3.54492Q13.5449 2.93945 13.9453 2.40234Q14.248 1.97266 14.248 1.66016Q14.248 1.32812 14.0186 1.11816Q13.7891 0.908203 13.3984 0.908203Z" fill="rgba(255,255,255,0.5)"/>
  <path d="M0.0976562 2.44141L17.0215 19.3457Q17.1289 19.4531 17.2803 19.4531Q17.4316 19.4531 17.5293 19.3457Q17.6367 19.2285 17.6367 19.0869Q17.6367 18.9453 17.5293 18.8379L0.625 1.93359Q0.517578 1.83594 0.371094 1.82617Q0.224609 1.81641 0.0976562 1.93359Q0 2.03125 0 2.18262Q0 2.33398 0.0976562 2.44141Z" fill="#ffffff"/>
 </g>
</svg>
