<?xml version="1.0" encoding="UTF-8"?>
<!--Generator: Apple Native CoreSVG 175.5-->
<!DOCTYPE svg
PUBLIC "-//W3C//DTD SVG 1.1//EN"
       "http://www.w3.org/Graphics/SVG/1.1/DTD/svg11.dtd">
<svg version="1.1" xmlns="http://www.w3.org/2000/svg" xmlns:xlink="http://www.w3.org/1999/xlink" width="25.3027" height="20.4785">
 <g>
  <rect height="20.4785" opacity="0" width="25.3027" x="0" y="0"/>
  <path d="M3.06641 15.957L10.293 15.957L10.293 14.3848L3.08594 14.3848Q2.35352 14.3848 1.96289 13.9941Q1.57227 13.6035 1.57227 12.8418L1.57227 3.13477Q1.57227 2.37305 1.96289 1.98242Q2.35352 1.5918 3.08594 1.5918L17.2852 1.5918Q18.0078 1.5918 18.4033 1.98242Q18.7988 2.37305 18.7988 3.13477L18.7988 8.78906L20.3711 8.78906L20.3711 3.04688Q20.3711 1.54297 19.6045 0.78125Q18.8379 0.0195312 17.3145 0.0195312L3.06641 0.0195312Q1.5332 0.0195312 0.766602 0.776367Q0 1.5332 0 3.04688L0 12.9297Q0 14.4434 0.766602 15.2002Q1.5332 15.957 3.06641 15.957Z" fill="rgba(255,255,255,0.5)"/>
  <path d="M12.6465 20.4785L22.2461 20.4785Q23.7695 20.4785 24.5361 19.7168Q25.3027 18.9551 25.3027 17.4512L25.3027 11.123Q25.3027 9.60938 24.5361 8.85254Q23.7695 8.0957 22.2461 8.0957L12.6465 8.0957Q11.1133 8.0957 10.3467 8.85254Q9.58008 9.60938 9.58008 11.123L9.58008 17.4512Q9.58008 18.9648 10.3467 19.7217Q11.1133 20.4785 12.6465 20.4785ZM7.68555 4.17969Q7.65625 3.95508 7.41211 3.79883Q7.16797 3.64258 6.88477 3.93555L5.80078 5.00977L4.20898 3.4082Q4.0332 3.23242 3.7793 3.23242Q3.52539 3.23242 3.34961 3.4082Q3.17383 3.58398 3.17383 3.83789Q3.17383 4.0918 3.34961 4.26758L4.95117 5.85938L3.87695 6.94336Q3.58398 7.22656 3.74023 7.4707Q3.89648 7.71484 4.12109 7.74414L7.64648 8.29102Q7.90039 8.33008 8.0957 8.1543Q8.27148 7.95898 8.23242 7.70508Z" fill="#ffffff"/>
 </g>
</svg>
