<?xml version="1.0" encoding="UTF-8"?>
<!--Generator: Apple Native CoreSVG 175.5-->
<!DOCTYPE svg
PUBLIC "-//W3C//DTD SVG 1.1//EN"
       "http://www.w3.org/Graphics/SVG/1.1/DTD/svg11.dtd">
<svg version="1.1" xmlns="http://www.w3.org/2000/svg" xmlns:xlink="http://www.w3.org/1999/xlink" width="16.8555" height="17.1486">
 <g>
  <rect height="17.1486" opacity="0" width="16.8555" x="0" y="0"/>
  <path d="M10.3223 13.0323L9.16992 11.88L3.87695 14.9464Q3.80859 14.9855 3.75977 14.9855Q3.66211 14.9855 3.66211 14.8683L3.66211 6.37217L2.08984 4.79014L2.08984 15.4444Q2.08984 16.0792 2.40723 16.4649Q2.72461 16.8507 3.26172 16.8507Q3.55469 16.8507 3.81836 16.7482Q4.08203 16.6456 4.375 16.4698ZM13.7695 11.0401L15.7617 9.8878Q16.377 9.52647 16.6162 9.24815Q16.8555 8.96983 16.8555 8.57921Q16.8555 8.18858 16.6162 7.91026Q16.377 7.63194 15.7617 7.28038L4.375 0.68858Q4.11133 0.542096 3.86719 0.439557Q3.62305 0.337018 3.34961 0.317487L7.08008 4.06749L14.6875 8.47178Q14.7168 8.49131 14.7461 8.51573Q14.7754 8.54014 14.7754 8.57921Q14.7754 8.61827 14.7461 8.64268Q14.7168 8.6671 14.6875 8.68663L12.6172 9.89756Z" fill="rgba(255,255,255,0.5)"/>
  <path d="M14.668 15.7179Q14.8926 15.9425 15.2051 15.9425Q15.5176 15.9425 15.7324 15.7179Q15.9473 15.4933 15.9521 15.1857Q15.957 14.878 15.7324 14.6534L1.28906 0.21983Q1.06445 0.0049867 0.751953 0.00010389Q0.439453-0.00477892 0.214844 0.21983Q0 0.434674 0 0.752057Q0 1.06944 0.214844 1.28428Z" fill="#ffffff"/>
 </g>
</svg>
