<?xml version="1.0" encoding="UTF-8"?>
<!--Generator: Apple Native CoreSVG 175.5-->
<!DOCTYPE svg
PUBLIC "-//W3C//DTD SVG 1.1//EN"
       "http://www.w3.org/Graphics/SVG/1.1/DTD/svg11.dtd">
<svg version="1.1" xmlns="http://www.w3.org/2000/svg" xmlns:xlink="http://www.w3.org/1999/xlink" width="19.9219" height="19.9316">
 <g>
  <rect height="19.9316" opacity="0" width="19.9219" x="0" y="0"/>
  <path d="M9.96094 19.9219Q12.002 19.9219 13.8037 19.1406Q15.6055 18.3594 16.9824 16.9824Q18.3594 15.6055 19.1406 13.8037Q19.9219 12.002 19.9219 9.96094Q19.9219 7.91992 19.1406 6.11816Q18.3594 4.31641 16.9824 2.93945Q15.6055 1.5625 13.7988 0.78125Q11.9922 0 9.95117 0Q7.91016 0 6.1084 0.78125Q4.30664 1.5625 2.93457 2.93945Q1.5625 4.31641 0.78125 6.11816Q0 7.91992 0 9.96094Q0 12.002 0.78125 13.8037Q1.5625 15.6055 2.93945 16.9824Q4.31641 18.3594 6.11816 19.1406Q7.91992 19.9219 9.96094 19.9219Z" fill="rgba(255,255,255,0.25)"/>
  <path d="M4.52148 13.75Q4.18945 13.9648 3.86719 13.8281Q3.54492 13.6914 3.54492 13.3301L3.54492 6.61133Q3.54492 6.25977 3.87695 6.12305Q4.20898 5.98633 4.52148 6.18164L9.55078 9.45312Q9.84375 9.63867 9.84375 9.96582Q9.84375 10.293 9.55078 10.498ZM11.2695 13.7402Q10.9082 13.7402 10.7422 13.5645Q10.5762 13.3887 10.5762 13.1055L10.5762 6.81641Q10.5762 6.18164 11.2695 6.18164L12.2168 6.18164Q12.9199 6.18164 12.9199 6.81641L12.9199 13.1055Q12.9199 13.3887 12.749 13.5645Q12.5781 13.7402 12.2168 13.7402ZM14.7656 13.7402Q14.4043 13.7402 14.2285 13.5645Q14.0527 13.3887 14.0527 13.1055L14.0527 6.81641Q14.0527 6.18164 14.7656 6.18164L15.7227 6.18164Q16.0645 6.18164 16.2354 6.35742Q16.4062 6.5332 16.4062 6.81641L16.4062 13.1055Q16.4062 13.3887 16.2354 13.5645Q16.0645 13.7402 15.7227 13.7402Z" fill="#ffffff"/>
 </g>
</svg>
