<?xml version="1.0" encoding="UTF-8"?>
<!--Generator: Apple Native CoreSVG 175.5-->
<!DOCTYPE svg
PUBLIC "-//W3C//DTD SVG 1.1//EN"
       "http://www.w3.org/Graphics/SVG/1.1/DTD/svg11.dtd">
<svg version="1.1" xmlns="http://www.w3.org/2000/svg" xmlns:xlink="http://www.w3.org/1999/xlink" width="29.3359" height="15.9082">
 <g>
  <rect height="15.9082" opacity="0" width="29.3359" x="0" y="0"/>
  <path d="M18.0273 15.9082L20.2539 15.9082Q20.8887 15.9082 21.2207 15.5762Q21.5527 15.2441 21.5527 14.5996L21.5527 1.29883Q21.5527 0.634766 21.2207 0.317383Q20.8887 0 20.2539 0L18.0273 0Q17.3828 0 17.0557 0.332031Q16.7285 0.664062 16.7285 1.29883L16.7285 14.5996Q16.7285 15.2441 17.0557 15.5762Q17.3828 15.9082 18.0273 15.9082ZM25.8203 15.9082L28.0371 15.9082Q28.6816 15.9082 29.0088 15.5762Q29.3359 15.2441 29.3359 14.5996L29.3359 1.29883Q29.3359 0.634766 29.0088 0.317383Q28.6816 0 28.0371 0L25.8203 0Q25.1758 0 24.8486 0.332031Q24.5215 0.664062 24.5215 1.29883L24.5215 14.5996Q24.5215 15.2441 24.8486 15.5762Q25.1758 15.9082 25.8203 15.9082ZM1.40625 15.6152Q1.70898 15.6152 1.97266 15.5225Q2.23633 15.4297 2.5293 15.2539L12.4805 9.4043Q12.998 9.0918 13.2324 8.73047Q13.4668 8.36914 13.4668 7.94922Q13.4668 7.5293 13.2324 7.16797Q12.998 6.80664 12.4805 6.49414L2.5293 0.634766Q2.22656 0.458984 1.96777 0.366211Q1.70898 0.273438 1.40625 0.273438Q0.830078 0.273438 0.415039 0.703125Q0 1.13281 0 1.95312L0 13.9453Q0 14.7656 0.415039 15.1904Q0.830078 15.6152 1.40625 15.6152Z" fill="#ffffff"/>
 </g>
</svg>
