<?xml version="1.0" encoding="UTF-8"?>
<!--Generator: Apple Native CoreSVG 175.5-->
<!DOCTYPE svg
PUBLIC "-//W3C//DTD SVG 1.1//EN"
       "http://www.w3.org/Graphics/SVG/1.1/DTD/svg11.dtd">
<svg version="1.1" xmlns="http://www.w3.org/2000/svg" xmlns:xlink="http://www.w3.org/1999/xlink" width="25.1367" height="16.1426">
 <g>
  <rect height="16.1426" opacity="0" width="25.1367" x="0" y="0"/>
  <path d="M17.8516 16.1426Q18.1934 16.1426 18.4375 15.9082Q18.6816 15.6738 18.6816 15.332L18.6816 0.830078Q18.6816 0.478516 18.4375 0.244141Q18.1934 0.00976562 17.8516 0.00976562Q17.5 0.00976562 17.2559 0.244141Q17.0117 0.478516 17.0117 0.830078L17.0117 15.332Q17.0117 15.6738 17.2559 15.9082Q17.5 16.1426 17.8516 16.1426ZM24.2969 16.1426Q24.6484 16.1426 24.8926 15.9082Q25.1367 15.6738 25.1367 15.332L25.1367 0.830078Q25.1367 0.478516 24.8926 0.244141Q24.6484 0.00976562 24.2969 0.00976562Q23.9551 0.00976562 23.7109 0.244141Q23.4668 0.478516 23.4668 0.830078L23.4668 15.332Q23.4668 15.6738 23.7109 15.9082Q23.9551 16.1426 24.2969 16.1426ZM1.40625 15.752Q1.70898 15.752 1.97266 15.6592Q2.23633 15.5664 2.5293 15.3906L12.4805 9.53125Q12.998 9.21875 13.2324 8.85742Q13.4668 8.49609 13.4668 8.07617Q13.4668 7.65625 13.2324 7.29492Q12.998 6.93359 12.4805 6.62109L2.5293 0.761719Q2.22656 0.585938 1.96777 0.493164Q1.70898 0.400391 1.40625 0.400391Q0.830078 0.400391 0.415039 0.830078Q0 1.25977 0 2.08008L0 14.0723Q0 14.8926 0.415039 15.3223Q0.830078 15.752 1.40625 15.752ZM1.83594 13.9453Q1.72852 13.9453 1.64551 13.8721Q1.5625 13.7988 1.5625 13.6523L1.5625 2.5Q1.5625 2.35352 1.64551 2.28027Q1.72852 2.20703 1.83594 2.20703Q1.88477 2.20703 1.94336 2.22656Q2.00195 2.24609 2.07031 2.29492L11.3574 7.80273Q11.5625 7.91992 11.5625 8.07617Q11.5625 8.23242 11.3574 8.34961L2.07031 13.8574Q2.00195 13.9062 1.94336 13.9258Q1.88477 13.9453 1.83594 13.9453Z" fill="#ffffff"/>
 </g>
</svg>
