<?xml version="1.0" encoding="UTF-8"?>
<!--Generator: Apple Native CoreSVG 175.5-->
<!DOCTYPE svg
PUBLIC "-//W3C//DTD SVG 1.1//EN"
       "http://www.w3.org/Graphics/SVG/1.1/DTD/svg11.dtd">
<svg version="1.1" xmlns="http://www.w3.org/2000/svg" xmlns:xlink="http://www.w3.org/1999/xlink" width="14.7656" height="16.5527">
 <g>
  <rect height="16.5527" opacity="0" width="14.7656" x="0" y="0"/>
  <path d="M1.17188 16.5527Q1.46484 16.5527 1.72852 16.4502Q1.99219 16.3477 2.28516 16.1719L13.6719 9.58984Q14.2871 9.22852 14.5264 8.9502Q14.7656 8.67188 14.7656 8.28125Q14.7656 7.89062 14.5264 7.6123Q14.2871 7.33398 13.6719 6.98242L2.28516 0.390625Q1.99219 0.224609 1.72852 0.12207Q1.46484 0.0195312 1.17188 0.0195312Q0.634766 0.0195312 0.317383 0.400391Q0 0.78125 0 1.41602L0 15.1465Q0 15.7812 0.317383 16.167Q0.634766 16.5527 1.17188 16.5527Z" fill="#ffffff"/>
 </g>
</svg>
