<?xml version="1.0" encoding="UTF-8"?>
<!--Generator: Apple Native CoreSVG 175.5-->
<!DOCTYPE svg
PUBLIC "-//W3C//DTD SVG 1.1//EN"
       "http://www.w3.org/Graphics/SVG/1.1/DTD/svg11.dtd">
<svg version="1.1" xmlns="http://www.w3.org/2000/svg" xmlns:xlink="http://www.w3.org/1999/xlink" width="21.5234" height="21.4551">
 <g>
  <rect height="21.4551" opacity="0" width="21.5234" x="0" y="0"/>
  <path d="M6.00586 21.4551Q6.36719 21.4551 6.66992 21.2598Q6.97266 21.0645 7.41211 20.6738L10.7812 17.6758L17.0508 17.6758Q18.5059 17.6758 19.502 17.1533Q20.498 16.6309 21.0107 15.6348Q21.5234 14.6387 21.5234 13.2031L21.5234 5.72266Q21.5234 4.28711 21.0107 3.29102Q20.498 2.29492 19.502 1.77246Q18.5059 1.25 17.0508 1.25L4.47266 1.25Q3.01758 1.25 2.02148 1.77246Q1.02539 2.29492 0.512695 3.29102Q0 4.28711 0 5.72266L0 13.2031Q0 14.6387 0.512695 15.6348Q1.02539 16.6309 2.02148 17.1533Q3.01758 17.6758 4.47266 17.6758L4.94141 17.6758L4.94141 20.2148Q4.94141 20.7812 5.21973 21.1182Q5.49805 21.4551 6.00586 21.4551ZM6.40625 19.668L6.40625 16.8359Q6.40625 16.4355 6.24023 16.2695Q6.07422 16.1035 5.67383 16.1035L4.47266 16.1035Q2.98828 16.1035 2.28027 15.3662Q1.57227 14.6289 1.57227 13.1934L1.57227 5.72266Q1.57227 4.29688 2.28027 3.55957Q2.98828 2.82227 4.47266 2.82227L17.0508 2.82227Q18.5254 2.82227 19.2383 3.55957Q19.9512 4.29688 19.9512 5.72266L19.9512 13.1934Q19.9512 14.6289 19.2383 15.3662Q18.5254 16.1035 17.0508 16.1035L10.7227 16.1035Q10.3125 16.1035 10.0586 16.1914Q9.80469 16.2793 9.53125 16.5625Z" fill="rgba(255,255,255,0.5)"/>
  <path d="M6.24023 9.46289Q6.24023 9.81445 6.47461 10.0391Q6.70898 10.2637 7.08008 10.2637L9.95117 10.2637L9.95117 13.1445Q9.95117 13.5156 10.1758 13.7451Q10.4004 13.9746 10.752 13.9746Q11.123 13.9746 11.3525 13.7451Q11.582 13.5156 11.582 13.1445L11.582 10.2637L14.4629 10.2637Q14.834 10.2637 15.0635 10.0391Q15.293 9.81445 15.293 9.46289Q15.293 9.0918 15.0635 8.8623Q14.834 8.63281 14.4629 8.63281L11.582 8.63281L11.582 5.76172Q11.582 5.38086 11.3525 5.15137Q11.123 4.92188 10.752 4.92188Q10.4004 4.92188 10.1758 5.15625Q9.95117 5.39062 9.95117 5.76172L9.95117 8.63281L7.08008 8.63281Q6.69922 8.63281 6.46973 8.8623Q6.24023 9.0918 6.24023 9.46289Z" fill="#ffffff"/>
 </g>
</svg>
