<?xml version="1.0" encoding="UTF-8"?>
<!--Generator: Apple Native CoreSVG 175-->
<!DOCTYPE svg
PUBLIC "-//W3C//DTD SVG 1.1//EN"
       "http://www.w3.org/Graphics/SVG/1.1/DTD/svg11.dtd">
<svg version="1.1" xmlns="http://www.w3.org/2000/svg" xmlns:xlink="http://www.w3.org/1999/xlink" width="21.3281" height="19.248">
 <g>
  <rect height="19.248" opacity="0" width="21.3281" x="0" y="0"/>
  <path d="M3.92578 19.2383Q4.31641 19.2383 4.86816 19.0918Q5.41992 18.9453 6.0791 18.6865Q6.73828 18.4277 7.44629 18.0908Q8.1543 17.7539 8.81836 17.373Q8.95508 17.2949 9.05273 17.2754Q9.15039 17.2559 9.24805 17.2559Q9.57031 17.2949 9.8877 17.3145Q10.2051 17.334 10.5273 17.334Q12.373 17.334 14.0088 16.8945Q15.6445 16.4551 16.9873 15.6543Q18.3301 14.8535 19.3018 13.7695Q20.2734 12.6855 20.8008 11.3867Q21.3281 10.0879 21.3281 8.66211Q21.3281 6.86523 20.5127 5.29297Q19.6973 3.7207 18.2324 2.53418Q16.7676 1.34766 14.834 0.673828Q12.9004 0 10.6641 0Q8.4375 0 6.49902 0.673828Q4.56055 1.34766 3.10059 2.53418Q1.64062 3.7207 0.820312 5.29297Q0 6.86523 0 8.66211Q0 10.1855 0.59082 11.5723Q1.18164 12.959 2.26074 14.082Q3.33984 15.2051 4.79492 15.9473Q4.93164 16.0156 4.96582 16.1182Q5 16.2207 4.93164 16.3574Q4.73633 16.6992 4.4873 17.0557Q4.23828 17.4121 3.98438 17.7295Q3.73047 18.0469 3.54492 18.2715Q3.25195 18.623 3.34961 18.9307Q3.44727 19.2383 3.92578 19.2383Z" fill="rgba(255,255,255,0.25)"/>
  <path d="M6.29883 8.68164Q6.29883 8.51562 6.41113 8.40332Q6.52344 8.29102 6.68945 8.29102L10.2832 8.29102L10.2832 4.6875Q10.2832 4.52148 10.3906 4.40918Q10.498 4.29688 10.6543 4.29688Q10.8203 4.29688 10.9375 4.40918Q11.0547 4.52148 11.0547 4.6875L11.0547 8.29102L14.6484 8.29102Q14.8242 8.29102 14.9316 8.40332Q15.0391 8.51562 15.0391 8.68164Q15.0391 8.83789 14.9268 8.94531Q14.8145 9.05273 14.6484 9.05273L11.0547 9.05273L11.0547 12.6465Q11.0547 12.8223 10.9375 12.9297Q10.8203 13.0371 10.6543 13.0371Q10.498 13.0371 10.3906 12.9248Q10.2832 12.8125 10.2832 12.6465L10.2832 9.05273L6.68945 9.05273Q6.52344 9.05273 6.41113 8.94531Q6.29883 8.83789 6.29883 8.68164Z" fill="#ffffff"/>
 </g>
</svg>
