<?xml version="1.0" encoding="UTF-8"?>
<!--Generator: Apple Native CoreSVG 175-->
<!DOCTYPE svg
PUBLIC "-//W3C//DTD SVG 1.1//EN"
       "http://www.w3.org/Graphics/SVG/1.1/DTD/svg11.dtd">
<svg version="1.1" xmlns="http://www.w3.org/2000/svg" xmlns:xlink="http://www.w3.org/1999/xlink" width="21.2112" height="21.211">
 <g>
  <rect height="21.211" opacity="0" width="21.2112" x="0" y="0"/>
  <path d="M0.922877 12.4658L8.75491 20.2881Q9.67288 21.2061 10.6201 21.2012Q11.5674 21.1963 12.4658 20.2979L20.2881 12.4561Q21.1963 11.5576 21.211 10.6055Q21.2256 9.65335 20.2979 8.73538L12.4854 0.922877Q11.5576-0.00485725 10.6153 2.55645e-05Q9.67288 0.00490838 8.75491 0.922877L0.913112 8.74514Q-0.00485698 9.66311 2.5835e-05 10.6006Q0.00490865 11.5381 0.922877 12.4658Z" fill="rgba(255,255,255,0.25)"/>
  <path d="M6.22561 10.6006Q6.22561 10.4346 6.33792 10.3223Q6.45022 10.21 6.61624 10.21L10.21 10.21L10.21 6.60647Q10.21 6.44046 10.3174 6.32815Q10.4248 6.21585 10.5811 6.21585Q10.7471 6.21585 10.8643 6.32815Q10.9815 6.44046 10.9815 6.60647L10.9815 10.21L14.5752 10.21Q14.751 10.21 14.8584 10.3223Q14.9658 10.4346 14.9658 10.6006Q14.9658 10.7569 14.8535 10.8643Q14.7412 10.9717 14.5752 10.9717L10.9815 10.9717L10.9815 14.5655Q10.9815 14.7412 10.8643 14.8487Q10.7471 14.9561 10.5811 14.9561Q10.4248 14.9561 10.3174 14.8438Q10.21 14.7315 10.21 14.5655L10.21 10.9717L6.61624 10.9717Q6.45022 10.9717 6.33792 10.8643Q6.22561 10.7569 6.22561 10.6006Z" fill="#ffffff"/>
 </g>
</svg>
