<?xml version="1.0" encoding="UTF-8"?>
<!--Generator: Apple Native CoreSVG 175.5-->
<!DOCTYPE svg
PUBLIC "-//W3C//DTD SVG 1.1//EN"
       "http://www.w3.org/Graphics/SVG/1.1/DTD/svg11.dtd">
<svg version="1.1" xmlns="http://www.w3.org/2000/svg" xmlns:xlink="http://www.w3.org/1999/xlink" width="17.9785" height="17.998">
 <g>
  <rect height="17.998" opacity="0" width="17.9785" x="0" y="0"/>
  <path d="M3.06641 17.998L14.9121 17.998Q16.4453 17.998 17.2119 17.2412Q17.9785 16.4844 17.9785 14.9707L17.9785 3.04688Q17.9785 1.5332 17.2119 0.776367Q16.4453 0.0195312 14.9121 0.0195312L3.06641 0.0195312Q1.5332 0.0195312 0.766602 0.776367Q0 1.5332 0 3.04688L0 14.9707Q0 16.4844 0.766602 17.2412Q1.5332 17.998 3.06641 17.998ZM3.08594 16.4258Q2.35352 16.4258 1.96289 16.04Q1.57227 15.6543 1.57227 14.8926L1.57227 3.125Q1.57227 2.36328 1.96289 1.97754Q2.35352 1.5918 3.08594 1.5918L14.8926 1.5918Q15.6152 1.5918 16.0107 1.97754Q16.4062 2.36328 16.4062 3.125L16.4062 14.8926Q16.4062 15.6543 16.0107 16.04Q15.6152 16.4258 14.8926 16.4258Z" fill="rgba(255,255,255,0.5)"/>
  <path d="M7.28516 14.668L10.6934 14.668Q11.0938 14.668 11.3525 14.4092Q11.6113 14.1504 11.6113 13.75L11.6113 4.23828Q11.6113 3.84766 11.3525 3.58887Q11.0938 3.33008 10.6934 3.33008L7.28516 3.33008Q6.88477 3.33008 6.62598 3.58887Q6.36719 3.84766 6.36719 4.23828L6.36719 13.75Q6.36719 14.1504 6.62598 14.4092Q6.88477 14.668 7.28516 14.668ZM8.99414 6.79688Q8.58398 6.79688 8.29102 6.50879Q7.99805 6.2207 7.99805 5.81055Q7.99805 5.40039 8.29102 5.1123Q8.58398 4.82422 8.99414 4.82422Q9.39453 4.82422 9.6875 5.1123Q9.98047 5.40039 9.98047 5.81055Q9.98047 6.2207 9.6875 6.50879Q9.39453 6.79688 8.99414 6.79688ZM8.99414 9.98047Q8.58398 9.98047 8.29102 9.69238Q7.99805 9.4043 7.99805 8.99414Q7.99805 8.58398 8.29102 8.2959Q8.58398 8.00781 8.99414 8.00781Q9.39453 8.00781 9.6875 8.2959Q9.98047 8.58398 9.98047 8.99414Q9.98047 9.4043 9.6875 9.69238Q9.39453 9.98047 8.99414 9.98047ZM8.99414 13.1641Q8.58398 13.1641 8.29102 12.876Q7.99805 12.5879 7.99805 12.1777Q7.99805 11.7676 8.29102 11.4795Q8.58398 11.1914 8.99414 11.1914Q9.39453 11.1914 9.6875 11.4795Q9.98047 11.7676 9.98047 12.1777Q9.98047 12.5879 9.6875 12.876Q9.39453 13.1641 8.99414 13.1641Z" fill="#ffffff"/>
 </g>
</svg>
