<?xml version="1.0" encoding="UTF-8"?>
<!--Generator: Apple Native CoreSVG 175.5-->
<!DOCTYPE svg
PUBLIC "-//W3C//DTD SVG 1.1//EN"
       "http://www.w3.org/Graphics/SVG/1.1/DTD/svg11.dtd">
<svg version="1.1" xmlns="http://www.w3.org/2000/svg" xmlns:xlink="http://www.w3.org/1999/xlink" width="17.9785" height="17.998">
 <g>
  <rect height="17.998" opacity="0" width="17.9785" x="0" y="0"/>
  <path d="M3.06641 17.998L14.9121 17.998Q16.4453 17.998 17.2119 17.2412Q17.9785 16.4844 17.9785 14.9707L17.9785 3.04688Q17.9785 1.5332 17.2119 0.776367Q16.4453 0.0195312 14.9121 0.0195312L3.06641 0.0195312Q1.5332 0.0195312 0.766602 0.776367Q0 1.5332 0 3.04688L0 14.9707Q0 16.4844 0.766602 17.2412Q1.5332 17.998 3.06641 17.998Z" fill="rgba(255,255,255,0.25)"/>
  <path d="M5.14648 13.7305Q4.73633 13.7305 4.46777 13.4619Q4.19922 13.1934 4.19922 12.7832L4.19922 5.22461Q4.19922 4.81445 4.46777 4.5459Q4.73633 4.27734 5.14648 4.27734L12.8906 4.27734Q13.3008 4.27734 13.5693 4.5459Q13.8379 4.81445 13.8379 5.22461L13.8379 12.7832Q13.8379 13.1934 13.5693 13.4619Q13.3008 13.7305 12.8906 13.7305ZM8.7793 8.27148L9.23828 8.27148Q9.42383 8.27148 9.5459 8.15918Q9.66797 8.04688 9.66797 7.86133L9.66797 6.21094Q9.66797 6.02539 9.5459 5.91309Q9.42383 5.80078 9.23828 5.80078L8.7793 5.80078Q8.60352 5.80078 8.48633 5.91309Q8.36914 6.02539 8.36914 6.21094L8.36914 7.86133Q8.36914 8.04688 8.48633 8.15918Q8.60352 8.27148 8.7793 8.27148ZM6.09375 12.1191L7.66602 12.1191Q7.8418 12.1191 7.9541 12.0068Q8.06641 11.8945 8.06641 11.709L8.06641 11.2402Q8.06641 11.0547 7.9541 10.9375Q7.8418 10.8203 7.66602 10.8203L6.09375 10.8203Q5.9082 10.8203 5.79102 10.9375Q5.67383 11.0547 5.67383 11.2402L5.67383 11.709Q5.67383 11.8945 5.79102 12.0068Q5.9082 12.1191 6.09375 12.1191ZM10.3906 12.1191L11.9434 12.1191Q12.1289 12.1191 12.2461 12.0068Q12.3633 11.8945 12.3633 11.709L12.3633 11.2402Q12.3633 11.0547 12.2461 10.9375Q12.1289 10.8203 11.9434 10.8203L10.3906 10.8203Q10.2051 10.8203 10.0879 10.9375Q9.9707 11.0547 9.9707 11.2402L9.9707 11.709Q9.9707 11.8945 10.0879 12.0068Q10.2051 12.1191 10.3906 12.1191Z" fill="#ffffff"/>
 </g>
</svg>
