<?xml version="1.0" encoding="UTF-8"?>
<!--Generator: Apple Native CoreSVG 175.5-->
<!DOCTYPE svg
PUBLIC "-//W3C//DTD SVG 1.1//EN"
       "http://www.w3.org/Graphics/SVG/1.1/DTD/svg11.dtd">
<svg version="1.1" xmlns="http://www.w3.org/2000/svg" xmlns:xlink="http://www.w3.org/1999/xlink" width="17.9785" height="17.998">
 <g>
  <rect height="17.998" opacity="0" width="17.9785" x="0" y="0"/>
  <path d="M3.06641 17.998L14.9121 17.998Q16.4453 17.998 17.2119 17.2412Q17.9785 16.4844 17.9785 14.9707L17.9785 3.04688Q17.9785 1.5332 17.2119 0.776367Q16.4453 0.0195312 14.9121 0.0195312L3.06641 0.0195312Q1.5332 0.0195312 0.766602 0.776367Q0 1.5332 0 3.04688L0 14.9707Q0 16.4844 0.766602 17.2412Q1.5332 17.998 3.06641 17.998ZM3.08594 16.4258Q2.35352 16.4258 1.96289 16.04Q1.57227 15.6543 1.57227 14.8926L1.57227 3.125Q1.57227 2.36328 1.96289 1.97754Q2.35352 1.5918 3.08594 1.5918L14.8926 1.5918Q15.6152 1.5918 16.0107 1.97754Q16.4062 2.36328 16.4062 3.125L16.4062 14.8926Q16.4062 15.6543 16.0107 16.04Q15.6152 16.4258 14.8926 16.4258Z" fill="rgba(255,255,255,0.5)"/>
  <path d="M5.79102 5.57617Q5.3418 5.57617 5.09766 5.7373Q4.85352 5.89844 4.64844 6.16211L2.96875 8.36914Q2.75391 8.65234 2.74902 8.98438Q2.74414 9.31641 2.96875 9.59961L4.64844 11.8262Q4.85352 12.0898 5.12695 12.2461Q5.40039 12.4023 5.79102 12.4023L12.1875 12.4023Q12.5781 12.4023 12.8516 12.2461Q13.125 12.0898 13.3301 11.8262L15.0098 9.59961Q15.2344 9.31641 15.2295 8.98438Q15.2246 8.65234 15.0098 8.36914L13.3301 6.16211Q13.125 5.89844 12.8857 5.7373Q12.6465 5.57617 12.1875 5.57617ZM5.57617 8.05664Q5.95703 8.05664 6.23535 8.33496Q6.51367 8.61328 6.51367 8.99414Q6.51367 9.375 6.23535 9.64844Q5.95703 9.92188 5.57617 9.92188Q5.20508 9.92188 4.92676 9.64844Q4.64844 9.375 4.64844 8.99414Q4.64844 8.61328 4.92676 8.33496Q5.20508 8.05664 5.57617 8.05664ZM8.99414 9.20898Q9.375 9.20898 9.64844 9.4873Q9.92188 9.76562 9.92188 10.1367Q9.92188 10.5176 9.64844 10.7959Q9.375 11.0742 8.99414 11.0742Q8.60352 11.0742 8.33008 10.7959Q8.05664 10.5176 8.05664 10.1367Q8.05664 9.76562 8.33008 9.4873Q8.60352 9.20898 8.99414 9.20898ZM12.4023 8.05664Q12.7832 8.05664 13.0566 8.33496Q13.3301 8.61328 13.3301 8.99414Q13.3301 9.375 13.0566 9.64844Q12.7832 9.92188 12.4023 9.92188Q12.0215 9.92188 11.748 9.64844Q11.4746 9.375 11.4746 8.99414Q11.4746 8.61328 11.748 8.33496Q12.0215 8.05664 12.4023 8.05664Z" fill="#ffffff"/>
 </g>
</svg>
