<?xml version="1.0" encoding="UTF-8"?>
<!--Generator: Apple Native CoreSVG 175.5-->
<!DOCTYPE svg
PUBLIC "-//W3C//DTD SVG 1.1//EN"
       "http://www.w3.org/Graphics/SVG/1.1/DTD/svg11.dtd">
<svg version="1.1" xmlns="http://www.w3.org/2000/svg" xmlns:xlink="http://www.w3.org/1999/xlink" width="18.5938" height="17.998">
 <g>
  <rect height="17.998" opacity="0" width="18.5938" x="0" y="0"/>
  <path d="M3.06641 17.998L15.5273 17.998Q17.0605 17.998 17.8271 17.2412Q18.5938 16.4844 18.5938 14.9707L18.5938 3.04688Q18.5938 1.5332 17.8271 0.776367Q17.0605 0.0195312 15.5273 0.0195312L3.06641 0.0195312Q1.5332 0.0195312 0.766602 0.776367Q0 1.5332 0 3.04688L0 14.9707Q0 16.4844 0.766602 17.2412Q1.5332 17.998 3.06641 17.998ZM3.08594 16.4258Q2.35352 16.4258 1.96289 16.04Q1.57227 15.6543 1.57227 14.8926L1.57227 3.125Q1.57227 2.36328 1.96289 1.97754Q2.35352 1.5918 3.08594 1.5918L15.498 1.5918Q16.2207 1.5918 16.6211 1.97754Q17.0215 2.36328 17.0215 3.125L17.0215 14.8926Q17.0215 15.6543 16.6211 16.04Q16.2207 16.4258 15.498 16.4258Z" fill="rgba(255,255,255,0.5)"/>
  <path d="M5.95703 13.6426Q6.55273 13.6426 6.98242 13.208Q7.41211 12.7734 7.41211 12.168Q7.41211 11.5625 6.98242 11.1328Q6.55273 10.7031 5.95703 10.7031Q5.3418 10.7031 4.91211 11.1328Q4.48242 11.5625 4.48242 12.168Q4.48242 12.7734 4.91211 13.208Q5.3418 13.6426 5.95703 13.6426ZM12.6465 13.6426Q13.252 13.6426 13.6816 13.208Q14.1113 12.7734 14.1113 12.168Q14.1113 11.5625 13.6816 11.1328Q13.252 10.7031 12.6465 10.7031Q12.041 10.7031 11.6113 11.1328Q11.1816 11.5625 11.1816 12.168Q11.1816 12.7734 11.6113 13.208Q12.041 13.6426 12.6465 13.6426ZM9.29688 7.27539Q9.90234 7.27539 10.332 6.8457Q10.7617 6.41602 10.7617 5.80078Q10.7617 5.20508 10.332 4.77539Q9.90234 4.3457 9.29688 4.3457Q8.68164 4.3457 8.25195 4.77539Q7.82227 5.20508 7.82227 5.80078Q7.82227 6.41602 8.25195 6.8457Q8.68164 7.27539 9.29688 7.27539Z" fill="#ffffff"/>
 </g>
</svg>
