<?xml version="1.0" encoding="UTF-8"?>
<!--Generator: Apple Native CoreSVG 175.5-->
<!DOCTYPE svg
PUBLIC "-//W3C//DTD SVG 1.1//EN"
       "http://www.w3.org/Graphics/SVG/1.1/DTD/svg11.dtd">
<svg version="1.1" xmlns="http://www.w3.org/2000/svg" xmlns:xlink="http://www.w3.org/1999/xlink" width="22.207" height="20.791">
 <g>
  <rect height="20.791" opacity="0" width="22.207" x="0" y="0"/>
  <path d="M0 12.1875Q0 12.7441 0.341797 13.0811Q0.683594 13.418 1.24023 13.418L2.08984 13.418L2.08984 14.3457Q2.08984 15.6055 2.82715 16.7578Q3.56445 17.9102 4.83887 18.8184Q6.11328 19.7266 7.72949 20.249Q9.3457 20.7715 11.1035 20.7715Q12.8613 20.7715 14.4775 20.249Q16.0938 19.7266 17.3682 18.8184Q18.6426 17.9102 19.3799 16.7578Q20.1172 15.6055 20.1172 14.3457L20.1172 13.418L20.9668 13.418Q21.5234 13.418 21.8652 13.0811Q22.207 12.7441 22.207 12.1875L22.207 8.59375Q22.207 8.03711 21.8652 7.69531Q21.5234 7.35352 20.9668 7.35352L20.1172 7.35352L20.1172 6.43555Q20.1172 5.17578 19.3799 4.01855Q18.6426 2.86133 17.3682 1.95801Q16.0938 1.05469 14.4775 0.527344Q12.8613 0 11.1035 0Q9.3457 0 7.72949 0.527344Q6.11328 1.05469 4.83887 1.95801Q3.56445 2.86133 2.82715 4.01855Q2.08984 5.17578 2.08984 6.43555L2.08984 7.35352L1.24023 7.35352Q0.683594 7.35352 0.341797 7.69531Q0 8.03711 0 8.59375Z" fill="rgba(255,255,255,0.25)"/>
  <path d="M6.42578 12.2949Q5.64453 12.2949 5.08789 11.7334Q4.53125 11.1719 4.53125 10.3906Q4.53125 9.59961 5.08789 9.04297Q5.64453 8.48633 6.42578 8.48633Q6.95312 8.48633 7.3877 8.74512Q7.82227 9.00391 8.07617 9.43359Q8.33008 9.86328 8.33008 10.3906Q8.33008 10.918 8.07617 11.3477Q7.82227 11.7773 7.3877 12.0361Q6.95312 12.2949 6.42578 12.2949ZM15.7715 12.2949Q15.2441 12.2949 14.8145 12.0361Q14.3848 11.7773 14.1309 11.3477Q13.877 10.918 13.877 10.3906Q13.877 9.86328 14.1309 9.43359Q14.3848 9.00391 14.8145 8.74512Q15.2441 8.48633 15.7715 8.48633Q16.5625 8.48633 17.1191 9.04297Q17.6758 9.59961 17.6758 10.3906Q17.6758 11.1719 17.1191 11.7334Q16.5625 12.2949 15.7715 12.2949Z" fill="#ffffff"/>
 </g>
</svg>
