<?xml version="1.0" encoding="UTF-8"?>
<!--Generator: Apple Native CoreSVG 175.5-->
<!DOCTYPE svg
PUBLIC "-//W3C//DTD SVG 1.1//EN"
       "http://www.w3.org/Graphics/SVG/1.1/DTD/svg11.dtd">
<svg version="1.1" xmlns="http://www.w3.org/2000/svg" xmlns:xlink="http://www.w3.org/1999/xlink" width="18.5938" height="17.998">
 <g>
  <rect height="17.998" opacity="0" width="18.5938" x="0" y="0"/>
  <path d="M3.06641 17.998L15.5273 17.998Q17.0605 17.998 17.8271 17.2412Q18.5938 16.4844 18.5938 14.9707L18.5938 3.04688Q18.5938 1.5332 17.8271 0.776367Q17.0605 0.0195312 15.5273 0.0195312L3.06641 0.0195312Q1.5332 0.0195312 0.766602 0.776367Q0 1.5332 0 3.04688L0 14.9707Q0 16.4844 0.766602 17.2412Q1.5332 17.998 3.06641 17.998Z" fill="rgba(255,255,255,0.25)"/>
  <path d="M8.88672 14.0332Q8.63281 14.0332 8.47656 13.8818Q8.32031 13.7305 8.32031 13.4668L8.32031 10.5273Q8.32031 10.2734 8.47656 10.1123Q8.63281 9.95117 8.88672 9.95117L9.69727 9.95117Q9.95117 9.95117 10.1074 10.1123Q10.2637 10.2734 10.2637 10.5273L10.2637 13.4668Q10.2637 13.7305 10.1074 13.8818Q9.95117 14.0332 9.69727 14.0332ZM4.10156 8.08594Q3.92578 7.90039 3.93066 7.68066Q3.93555 7.46094 4.11133 7.27539L6.47461 4.92188Q6.66016 4.73633 6.875 4.73633Q7.08984 4.73633 7.27539 4.91211L7.85156 5.49805Q8.02734 5.68359 8.03223 5.90332Q8.03711 6.12305 7.85156 6.30859L5.48828 8.66211Q5.30273 8.84766 5.08301 8.84766Q4.86328 8.84766 4.6875 8.66211ZM13.9062 8.66211Q13.7207 8.84766 13.5059 8.84766Q13.291 8.84766 13.1055 8.66211L10.7422 6.30859Q10.5566 6.11328 10.5566 5.89844Q10.5566 5.68359 10.7422 5.49805L11.3184 4.91211Q11.5039 4.73633 11.7188 4.73633Q11.9336 4.73633 12.1191 4.92188L14.4727 7.27539Q14.6582 7.4707 14.6631 7.68555Q14.668 7.90039 14.4922 8.07617Z" fill="#ffffff"/>
 </g>
</svg>
