<?xml version="1.0" encoding="UTF-8"?>
<!--Generator: Apple Native CoreSVG 175.5-->
<!DOCTYPE svg
PUBLIC "-//W3C//DTD SVG 1.1//EN"
       "http://www.w3.org/Graphics/SVG/1.1/DTD/svg11.dtd">
<svg version="1.1" xmlns="http://www.w3.org/2000/svg" xmlns:xlink="http://www.w3.org/1999/xlink" width="21.9434" height="21.3574">
 <g>
  <rect height="21.3574" opacity="0" width="21.9434" x="0" y="0"/>
  <path d="M2.90039 17.6172L3.125 17.6172L3.125 12.1973Q3.125 11.1426 3.73047 10.542Q4.33594 9.94141 5.38086 9.94141L16.5625 9.94141Q17.6172 9.94141 18.2178 10.542Q18.8184 11.1426 18.8184 12.1973L18.8184 17.6172L19.0332 17.6172Q20.459 17.6172 21.2012 16.8994Q21.9434 16.1816 21.9434 14.7559L21.9434 6.80664Q21.9434 5.38086 21.2012 4.6582Q20.459 3.93555 19.0332 3.93555L2.90039 3.93555Q1.55273 3.93555 0.776367 4.6582Q0 5.38086 0 6.80664L0 14.7559Q0 16.1816 0.742188 16.8994Q1.48438 17.6172 2.90039 17.6172ZM3.86719 2.63672L18.0762 2.63672L18.0762 2.4707Q18.0762 1.74805 17.7295 1.28418Q17.3828 0.820312 16.7725 0.600586Q16.1621 0.380859 15.3711 0.380859L6.57227 0.380859Q5.82031 0.380859 5.20508 0.600586Q4.58984 0.820312 4.22852 1.28418Q3.86719 1.74805 3.86719 2.4707ZM4.46289 20.0391Q4.46289 20.6348 4.82422 20.9961Q5.18555 21.3574 5.77148 21.3574L16.1719 21.3574Q16.7578 21.3574 17.1191 20.9961Q17.4805 20.6348 17.4805 20.0391L17.4805 12.1973Q17.4805 11.7871 17.2266 11.5332Q16.9727 11.2793 16.5625 11.2793L5.38086 11.2793Q4.9707 11.2793 4.7168 11.5332Q4.46289 11.7871 4.46289 12.1973ZM7.79297 15.1953Q7.51953 15.1953 7.33887 15.0098Q7.1582 14.8242 7.1582 14.5508Q7.1582 14.2969 7.33887 14.1211Q7.51953 13.9453 7.79297 13.9453L14.1699 13.9453Q14.4434 13.9453 14.6191 14.1211Q14.7949 14.2969 14.7949 14.5508Q14.7949 14.8242 14.6191 15.0098Q14.4434 15.1953 14.1699 15.1953ZM7.79297 18.6914Q7.51953 18.6914 7.33887 18.5107Q7.1582 18.3301 7.1582 18.0762Q7.1582 17.8027 7.33887 17.6221Q7.51953 17.4414 7.79297 17.4414L14.1699 17.4414Q14.4434 17.4414 14.6191 17.6221Q14.7949 17.8027 14.7949 18.0762Q14.7949 18.3301 14.6191 18.5107Q14.4434 18.6914 14.1699 18.6914ZM15.7227 7.1582Q15.7227 6.66016 16.0986 6.28418Q16.4746 5.9082 16.9922 5.9082Q17.4902 5.9082 17.8662 6.28418Q18.2422 6.66016 18.2422 7.1582Q18.2422 7.68555 17.8662 8.04688Q17.4902 8.4082 16.9922 8.4082Q16.4746 8.41797 16.0986 8.05176Q15.7227 7.68555 15.7227 7.1582Z" fill="#ffffff"/>
 </g>
</svg>
