<?xml version="1.0" encoding="UTF-8"?>
<!--Generator: Apple Native CoreSVG 175.5-->
<!DOCTYPE svg
PUBLIC "-//W3C//DTD SVG 1.1//EN"
       "http://www.w3.org/Graphics/SVG/1.1/DTD/svg11.dtd">
<svg version="1.1" xmlns="http://www.w3.org/2000/svg" xmlns:xlink="http://www.w3.org/1999/xlink" width="22.0605" height="21.3574">
 <g>
  <rect height="21.3574" opacity="0" width="22.0605" x="0" y="0"/>
  <path d="M2.91016 18.457L4.84375 18.457L4.84375 16.9824L2.89062 16.9824Q2.23633 16.9824 1.90918 16.6504Q1.58203 16.3184 1.58203 15.6738L1.58203 6.37695Q1.58203 5.73242 1.90918 5.40039Q2.23633 5.06836 2.89062 5.06836L19.1797 5.06836Q19.8242 5.06836 20.1562 5.40039Q20.4883 5.73242 20.4883 6.37695L20.4883 15.6738Q20.4883 16.3184 20.1562 16.6504Q19.8242 16.9824 19.1797 16.9824L17.3535 16.9824L17.3535 18.457L19.1602 18.457Q20.5859 18.457 21.3232 17.7393Q22.0605 17.0215 22.0605 15.5957L22.0605 6.45508Q22.0605 5.0293 21.3232 4.31152Q20.5859 3.59375 19.1602 3.59375L2.91016 3.59375Q1.55273 3.59375 0.776367 4.31152Q0 5.0293 0 6.45508L0 15.5957Q0 17.0215 0.742188 17.7393Q1.48438 18.457 2.91016 18.457ZM5.80078 21.3574L16.2598 21.3574Q17.1875 21.3574 17.6562 20.9082Q18.125 20.459 18.125 19.4922L18.125 11.5234Q18.125 10.5469 17.6562 10.1025Q17.1875 9.6582 16.2598 9.6582L5.80078 9.6582Q4.91211 9.6582 4.42383 10.1025Q3.93555 10.5469 3.93555 11.5234L3.93555 19.4922Q3.93555 20.459 4.4043 20.9082Q4.87305 21.3574 5.80078 21.3574ZM6.28906 19.8828Q5.89844 19.8828 5.70312 19.6924Q5.50781 19.502 5.50781 19.1016L5.50781 11.9043Q5.50781 11.5137 5.70312 11.3232Q5.89844 11.1328 6.28906 11.1328L15.7812 11.1328Q16.1719 11.1328 16.3623 11.3232Q16.5527 11.5137 16.5527 11.9043L16.5527 19.1016Q16.5527 19.502 16.3623 19.6924Q16.1719 19.8828 15.7812 19.8828ZM3.86719 4.47266L5.38086 4.47266L5.38086 2.96875Q5.38086 2.35352 5.68848 2.05078Q5.99609 1.74805 6.61133 1.74805L15.4492 1.74805Q16.0645 1.74805 16.3721 2.05078Q16.6797 2.35352 16.6797 2.96875L16.6797 4.45312L18.1934 4.45312L18.1934 3.07617Q18.1934 1.65039 17.4951 0.986328Q16.7969 0.322266 15.4297 0.322266L6.63086 0.322266Q5.3418 0.322266 4.60449 0.986328Q3.86719 1.65039 3.86719 3.07617ZM7.64648 14.4043L14.4434 14.4043Q14.6973 14.4043 14.8682 14.2285Q15.0391 14.0527 15.0391 13.7891Q15.0391 13.5449 14.8682 13.374Q14.6973 13.2031 14.4434 13.2031L7.64648 13.2031Q7.38281 13.2031 7.20703 13.374Q7.03125 13.5449 7.03125 13.7891Q7.03125 14.0527 7.20703 14.2285Q7.38281 14.4043 7.64648 14.4043ZM7.64648 17.8125L14.4434 17.8125Q14.6973 17.8125 14.8682 17.6416Q15.0391 17.4707 15.0391 17.2168Q15.0391 16.9629 14.8682 16.7871Q14.6973 16.6113 14.4434 16.6113L7.64648 16.6113Q7.38281 16.6113 7.20703 16.7871Q7.03125 16.9629 7.03125 17.2168Q7.03125 17.4707 7.20703 17.6416Q7.38281 17.8125 7.64648 17.8125ZM15.7617 7.38281Q15.7617 7.90039 16.123 8.24707Q16.4844 8.59375 16.9922 8.59375Q17.4805 8.59375 17.8418 8.24219Q18.2031 7.89062 18.2031 7.38281Q18.2031 6.89453 17.8418 6.5332Q17.4805 6.17188 16.9922 6.17188Q16.4844 6.17188 16.123 6.5332Q15.7617 6.89453 15.7617 7.38281Z" fill="#ffffff"/>
 </g>
</svg>
