<?xml version="1.0" encoding="UTF-8"?>
<!--Generator: Apple Native CoreSVG 175-->
<!DOCTYPE svg
PUBLIC "-//W3C//DTD SVG 1.1//EN"
       "http://www.w3.org/Graphics/SVG/1.1/DTD/svg11.dtd">
<svg version="1.1" xmlns="http://www.w3.org/2000/svg" xmlns:xlink="http://www.w3.org/1999/xlink" width="19.1602" height="19.1504">
 <g>
  <rect height="19.1504" opacity="0" width="19.1602" x="0" y="0"/>
  <path d="M9.57031 19.1406Q11.5527 19.1406 13.2861 18.3984Q15.0195 17.6562 16.3379 16.333Q17.6562 15.0098 18.4082 13.2764Q19.1602 11.543 19.1602 9.57031Q19.1602 7.59766 18.4082 5.86426Q17.6562 4.13086 16.3379 2.80762Q15.0195 1.48438 13.2861 0.742188Q11.5527 0 9.57031 0Q7.59766 0 5.86426 0.742188Q4.13086 1.48438 2.81738 2.80762Q1.50391 4.13086 0.751953 5.86426Q0 7.59766 0 9.57031Q0 11.543 0.74707 13.2764Q1.49414 15.0098 2.8125 16.333Q4.13086 17.6562 5.86914 18.3984Q7.60742 19.1406 9.57031 19.1406Z" fill="rgba(255,255,255,0.25)"/>
  <path d="M5.53711 12.2656Q5.53711 12.1387 5.62988 12.0459Q5.72266 11.9531 5.84961 11.9531Q5.99609 11.9531 6.09375 12.0605L6.66016 12.6367L7.66602 13.6719L7.64648 11.7383L7.64648 7.8125Q7.64648 6.28906 8.45703 5.38086Q9.26758 4.47266 10.6543 4.47266Q11.543 4.47266 12.2168 4.8584Q12.8906 5.24414 13.2666 5.94238Q13.6426 6.64062 13.6426 7.57812Q13.6426 8.91602 12.8418 9.73633Q12.041 10.5566 10.7324 10.5566Q10.0977 10.5566 9.83398 10.332Q9.72656 10.2344 9.72656 10.0781Q9.72656 9.96094 9.80957 9.87793Q9.89258 9.79492 10.0098 9.79492Q10.1465 9.79492 10.293 9.8584Q10.4395 9.92188 10.7422 9.92188Q11.748 9.92188 12.3779 9.27246Q13.0078 8.62305 13.0078 7.57812Q13.0078 6.46484 12.3584 5.78125Q11.709 5.09766 10.6543 5.09766Q9.55078 5.09766 8.9209 5.83008Q8.29102 6.5625 8.29102 7.8418L8.29102 11.7383L8.26172 13.6719L9.28711 12.627L9.84375 12.0605Q9.89258 12.002 9.95117 11.9775Q10.0098 11.9531 10.0879 11.9531Q10.2148 11.9531 10.3027 12.0459Q10.3906 12.1387 10.3906 12.2656Q10.3906 12.4023 10.293 12.5098L8.30078 14.4824Q8.14453 14.6289 7.95898 14.6289Q7.7832 14.6289 7.62695 14.4824L5.6543 12.5098Q5.53711 12.3926 5.53711 12.2656Z" fill="#ffffff"/>
 </g>
</svg>
