<?xml version="1.0" encoding="UTF-8"?>
<!--Generator: Apple Native CoreSVG 175-->
<!DOCTYPE svg
PUBLIC "-//W3C//DTD SVG 1.1//EN"
       "http://www.w3.org/Graphics/SVG/1.1/DTD/svg11.dtd">
<svg version="1.1" xmlns="http://www.w3.org/2000/svg" xmlns:xlink="http://www.w3.org/1999/xlink" width="17.2852" height="17.3145">
 <g>
  <rect height="17.3145" opacity="0" width="17.2852" x="0" y="0"/>
  <path d="M0 5.11719L0.732422 5.11719L0.732422 2.69531Q0.732422 1.72852 1.2207 1.24512Q1.70898 0.761719 2.65625 0.761719L5.06836 0.761719L5.06836 0.0292969L2.62695 0.0292969Q1.33789 0.0292969 0.668945 0.693359Q0 1.35742 0 2.65625ZM5.94727 0.761719L11.3477 0.761719L11.3477 0.0292969L5.94727 0.0292969ZM16.5625 5.11719L17.2852 5.11719L17.2852 2.65625Q17.2852 1.37695 16.6211 0.703125Q15.957 0.0292969 14.6484 0.0292969L12.2168 0.0292969L12.2168 0.761719L14.6289 0.761719Q15.5566 0.761719 16.0596 1.24512Q16.5625 1.72852 16.5625 2.69531ZM16.5625 11.3672L17.2852 11.3672L17.2852 5.97656L16.5625 5.97656ZM12.2168 17.3145L14.6484 17.3145Q15.957 17.3145 16.6211 16.6455Q17.2852 15.9766 17.2852 14.6875L17.2852 12.2363L16.5625 12.2363L16.5625 14.6582Q16.5625 15.6152 16.0596 16.1035Q15.5566 16.5918 14.6289 16.5918L12.2168 16.5918ZM5.94727 17.3145L11.3477 17.3145L11.3477 16.5918L5.94727 16.5918ZM2.62695 17.3145L5.06836 17.3145L5.06836 16.5918L2.65625 16.5918Q1.70898 16.5918 1.2207 16.1035Q0.732422 15.6152 0.732422 14.6582L0.732422 12.2363L0 12.2363L0 14.6875Q0 15.9863 0.668945 16.6504Q1.33789 17.3145 2.62695 17.3145ZM0 11.3672L0.732422 11.3672L0.732422 5.97656L0 5.97656Z" fill="rgba(255,255,255,0.5)"/>
  <path d="M8.47656 10.6055Q8.64258 10.6055 8.74023 10.5029Q8.83789 10.4004 8.83789 10.2441Q8.83789 10.166 8.83789 10.0879Q8.83789 10.0098 8.83789 9.92188Q8.83789 9.46289 9.07227 9.14062Q9.30664 8.81836 9.88281 8.41797Q10.6445 7.90039 10.9863 7.40723Q11.3281 6.91406 11.3281 6.21094Q11.3281 5.5957 10.9863 5.11719Q10.6445 4.63867 10.0439 4.36523Q9.44336 4.0918 8.69141 4.0918Q7.53906 4.0918 6.84082 4.66309Q6.14258 5.23438 6.03516 5.98633Q6.02539 6.08398 6.01562 6.16211Q6.00586 6.24023 6.00586 6.35742Q6.00586 6.52344 6.1084 6.62109Q6.21094 6.71875 6.34766 6.71875Q6.48438 6.71875 6.58203 6.64551Q6.67969 6.57227 6.70898 6.44531L6.74805 6.30859Q6.77734 5.9082 7.03125 5.55664Q7.28516 5.20508 7.7002 4.98047Q8.11523 4.75586 8.65234 4.75586Q9.52148 4.75586 10.0342 5.18066Q10.5469 5.60547 10.5469 6.25977Q10.5469 6.76758 10.2588 7.14355Q9.9707 7.51953 9.25781 8.00781Q8.65234 8.4375 8.37891 8.85742Q8.10547 9.27734 8.10547 9.88281Q8.10547 9.9707 8.10547 10.0537Q8.10547 10.1367 8.10547 10.2246Q8.10547 10.6055 8.47656 10.6055ZM8.45703 13.2227Q8.75977 13.2227 8.96484 13.0127Q9.16992 12.8027 9.16992 12.5195Q9.16992 12.2266 8.96484 12.0215Q8.75977 11.8164 8.45703 11.8164Q8.16406 11.8164 7.9541 12.0215Q7.74414 12.2266 7.74414 12.5195Q7.74414 12.8027 7.9541 13.0127Q8.16406 13.2227 8.45703 13.2227Z" fill="#ffffff"/>
 </g>
</svg>
