<?xml version="1.0" encoding="UTF-8"?>
<!--Generator: Apple Native CoreSVG 175.5-->
<!DOCTYPE svg
PUBLIC "-//W3C//DTD SVG 1.1//EN"
       "http://www.w3.org/Graphics/SVG/1.1/DTD/svg11.dtd">
<svg version="1.1" xmlns="http://www.w3.org/2000/svg" xmlns:xlink="http://www.w3.org/1999/xlink" width="17.7734" height="17.7832">
 <g>
  <rect height="17.7832" opacity="0" width="17.7734" x="0" y="0"/>
  <path d="M16.6309 1.15234Q15.8789 0.400391 14.8438 0.200195Q13.8086 0 12.5586 0L5.18555 0Q3.95508 0 2.9248 0.200195Q1.89453 0.400391 1.14258 1.15234Q0.400391 1.89453 0.200195 2.91992Q0 3.94531 0 5.17578L0 12.5586Q0 13.8086 0.195312 14.8389Q0.390625 15.8691 1.14258 16.6113Q1.89453 17.3633 2.9248 17.5635Q3.95508 17.7637 5.20508 17.7637L12.5586 17.7637Q13.8086 17.7637 14.8438 17.5635Q15.8789 17.3633 16.6309 16.6113Q17.373 15.8691 17.5732 14.8389Q17.7734 13.8086 17.7734 12.5586L17.7734 5.20508Q17.7734 3.95508 17.5732 2.9248Q17.373 1.89453 16.6309 1.15234Z" fill="rgba(255,255,255,0.25)"/>
  <path d="M8.69141 10.9766Q7.88086 10.9766 7.88086 10.1758Q7.88086 10.1465 7.88086 10.1123Q7.88086 10.0781 7.88086 10.0488Q7.88086 9.29688 8.24219 8.84766Q8.60352 8.39844 9.14062 8.01758Q9.80469 7.55859 10.127 7.23145Q10.4492 6.9043 10.4492 6.38672Q10.4492 5.81055 10.0342 5.45898Q9.61914 5.10742 8.93555 5.10742Q8.60352 5.10742 8.32031 5.21484Q8.03711 5.32227 7.80273 5.52734Q7.56836 5.73242 7.38281 6.02539L7.20703 6.26953Q7.07031 6.44531 6.89453 6.55762Q6.71875 6.66992 6.46484 6.66992Q6.21094 6.66992 5.98633 6.48926Q5.76172 6.30859 5.76172 5.97656Q5.76172 5.84961 5.78613 5.72266Q5.81055 5.5957 5.84961 5.47852Q6.06445 4.77539 6.87988 4.25781Q7.69531 3.74023 9.00391 3.74023Q9.86328 3.74023 10.5908 4.0332Q11.3184 4.32617 11.7676 4.89746Q12.2168 5.46875 12.2168 6.30859Q12.2168 7.2168 11.7432 7.74414Q11.2695 8.27148 10.5371 8.75Q10.0098 9.0918 9.75586 9.39941Q9.50195 9.70703 9.50195 10.1367Q9.50195 10.1562 9.50195 10.1904Q9.50195 10.2246 9.50195 10.2539Q9.50195 10.5566 9.28711 10.7666Q9.07227 10.9766 8.69141 10.9766ZM8.66211 13.9746Q8.23242 13.9746 7.90527 13.6719Q7.57812 13.3691 7.57812 12.9297Q7.57812 12.5 7.90039 12.1875Q8.22266 11.875 8.66211 11.875Q9.11133 11.875 9.43359 12.1826Q9.75586 12.4902 9.75586 12.9297Q9.75586 13.3691 9.42871 13.6719Q9.10156 13.9746 8.66211 13.9746Z" fill="#ffffff"/>
 </g>
</svg>
