<?xml version="1.0" encoding="UTF-8"?>
<!--Generator: Apple Native CoreSVG 175.5-->
<!DOCTYPE svg
PUBLIC "-//W3C//DTD SVG 1.1//EN"
       "http://www.w3.org/Graphics/SVG/1.1/DTD/svg11.dtd">
<svg version="1.1" xmlns="http://www.w3.org/2000/svg" xmlns:xlink="http://www.w3.org/1999/xlink" width="18.0078" height="17.9395">
 <g>
  <rect height="17.9395" opacity="0" width="18.0078" x="0" y="0"/>
  <path d="M16.8652 1.17188Q16.1133 0.419922 15.0781 0.219727Q14.043 0.0195312 12.793 0.0195312L5.18555 0.0195312Q3.95508 0.0195312 2.9248 0.219727Q1.89453 0.419922 1.14258 1.17188Q0.400391 1.91406 0.200195 2.93945Q0 3.96484 0 5.19531L0 12.7344Q0 13.9844 0.195312 15.0146Q0.390625 16.0449 1.14258 16.7871Q1.89453 17.5391 2.9248 17.7393Q3.95508 17.9395 5.20508 17.9395L12.793 17.9395Q14.043 17.9395 15.0781 17.7393Q16.1133 17.5391 16.8652 16.7871Q17.6074 16.0449 17.8076 15.0146Q18.0078 13.9844 18.0078 12.7344L18.0078 5.22461Q18.0078 3.97461 17.8076 2.94434Q17.6074 1.91406 16.8652 1.17188ZM16.4355 4.95117L16.4355 12.998Q16.4355 13.7598 16.2939 14.4775Q16.1523 15.1953 15.7129 15.6445Q15.2734 16.084 14.5459 16.2256Q13.8184 16.3672 13.0664 16.3672L4.94141 16.3672Q4.18945 16.3672 3.46191 16.2256Q2.73438 16.084 2.28516 15.6445Q1.8457 15.1953 1.70898 14.4775Q1.57227 13.7598 1.57227 12.998L1.57227 4.98047Q1.57227 4.20898 1.70898 3.48145Q1.8457 2.75391 2.28516 2.31445Q2.72461 1.86523 3.46191 1.72852Q4.19922 1.5918 4.9707 1.5918L13.0664 1.5918Q13.8184 1.5918 14.5459 1.7334Q15.2734 1.875 15.7129 2.31445Q16.1621 2.76367 16.2988 3.48145Q16.4355 4.19922 16.4355 4.95117Z" fill="rgba(255,255,255,0.5)"/>
  <path d="M8.81836 10.9863Q9.17969 10.9863 9.38965 10.7812Q9.59961 10.5762 9.59961 10.293Q9.59961 10.2637 9.59961 10.2295Q9.59961 10.1953 9.59961 10.1758Q9.59961 9.76562 9.84375 9.46777Q10.0879 9.16992 10.6055 8.82812Q11.3086 8.35938 11.7676 7.85156Q12.2266 7.34375 12.2266 6.46484Q12.2266 5.6543 11.792 5.09766Q11.3574 4.54102 10.6543 4.25293Q9.95117 3.96484 9.12109 3.96484Q7.86133 3.96484 7.06543 4.47754Q6.26953 4.99023 6.06445 5.66406Q6.02539 5.78125 6.00586 5.89844Q5.98633 6.01562 5.98633 6.14258Q5.98633 6.47461 6.20117 6.64551Q6.41602 6.81641 6.66016 6.81641Q6.9043 6.81641 7.0752 6.70898Q7.24609 6.60156 7.37305 6.42578L7.54883 6.19141Q7.72461 5.9082 7.94922 5.70801Q8.17383 5.50781 8.45215 5.40039Q8.73047 5.29297 9.05273 5.29297Q9.72656 5.29297 10.127 5.63965Q10.5273 5.98633 10.5273 6.54297Q10.5273 7.04102 10.2148 7.3584Q9.90234 7.67578 9.25781 8.125Q8.73047 8.48633 8.38379 8.92578Q8.03711 9.36523 8.03711 10.0879Q8.03711 10.1172 8.03711 10.1514Q8.03711 10.1855 8.03711 10.2148Q8.03711 10.9863 8.81836 10.9863ZM8.78906 13.8965Q9.21875 13.8965 9.53125 13.6035Q9.84375 13.3105 9.84375 12.8809Q9.84375 12.4512 9.53125 12.1582Q9.21875 11.8652 8.78906 11.8652Q8.35938 11.8652 8.05176 12.1631Q7.74414 12.4609 7.74414 12.8809Q7.74414 13.3008 8.05664 13.5986Q8.36914 13.8965 8.78906 13.8965Z" fill="#ffffff"/>
 </g>
</svg>
