<?xml version="1.0" encoding="UTF-8"?>
<!--Generator: Apple Native CoreSVG 175.5-->
<!DOCTYPE svg
PUBLIC "-//W3C//DTD SVG 1.1//EN"
       "http://www.w3.org/Graphics/SVG/1.1/DTD/svg11.dtd">
<svg version="1.1" xmlns="http://www.w3.org/2000/svg" xmlns:xlink="http://www.w3.org/1999/xlink" width="19.9219" height="19.9316">
 <g>
  <rect height="19.9316" opacity="0" width="19.9219" x="0" y="0"/>
  <path d="M9.96094 19.9219Q12.002 19.9219 13.8037 19.1406Q15.6055 18.3594 16.9824 16.9824Q18.3594 15.6055 19.1406 13.8037Q19.9219 12.002 19.9219 9.96094Q19.9219 7.91992 19.1406 6.11816Q18.3594 4.31641 16.9824 2.93945Q15.6055 1.5625 13.7988 0.78125Q11.9922 0 9.95117 0Q7.91016 0 6.1084 0.78125Q4.30664 1.5625 2.93457 2.93945Q1.5625 4.31641 0.78125 6.11816Q0 7.91992 0 9.96094Q0 12.002 0.78125 13.8037Q1.5625 15.6055 2.93945 16.9824Q4.31641 18.3594 6.11816 19.1406Q7.91992 19.9219 9.96094 19.9219Z" fill="rgba(255,255,255,0.25)"/>
  <path d="M7.37305 14.5801Q6.98242 14.5801 6.78223 14.3311Q6.58203 14.082 6.58203 13.6719L6.58203 6.19141Q6.58203 5.78125 6.78223 5.52734Q6.98242 5.27344 7.36328 5.27344L10.2637 5.27344Q11.7969 5.27344 12.7002 6.0791Q13.6035 6.88477 13.6035 8.24219Q13.6035 9.17969 13.0762 9.91211Q12.5488 10.6445 11.6602 10.9375L13.1641 13.3008Q13.3398 13.5938 13.3398 13.8867Q13.3398 14.1895 13.1396 14.3848Q12.9395 14.5801 12.6172 14.5801Q12.3438 14.5801 12.168 14.458Q11.9922 14.3359 11.8066 14.043L10.0684 11.1719L8.18359 11.1719L8.18359 13.6719Q8.18359 14.0918 7.97852 14.3359Q7.77344 14.5801 7.37305 14.5801ZM8.18359 9.99023L10.0293 9.99023Q10.9375 9.99023 11.4697 9.5459Q12.002 9.10156 12.002 8.28125Q12.002 7.43164 11.4648 6.97266Q10.9277 6.51367 10.0684 6.51367L8.18359 6.51367Z" fill="#ffffff"/>
 </g>
</svg>
