<?xml version="1.0" encoding="UTF-8"?>
<!--Generator: Apple Native CoreSVG 175.5-->
<!DOCTYPE svg
PUBLIC "-//W3C//DTD SVG 1.1//EN"
       "http://www.w3.org/Graphics/SVG/1.1/DTD/svg11.dtd">
<svg version="1.1" xmlns="http://www.w3.org/2000/svg" xmlns:xlink="http://www.w3.org/1999/xlink" width="23.6133" height="17.998">
 <g>
  <rect height="17.998" opacity="0" width="23.6133" x="0" y="0"/>
  <path d="M8.39844 17.998L15.2246 17.998Q18.125 17.998 19.9854 17.1045Q21.8457 16.2109 22.7295 14.4043Q23.6133 12.5977 23.6133 9.85352L23.6133 3.04688Q23.6133 1.5332 22.8467 0.776367Q22.0801 0.0195312 20.5469 0.0195312L3.06641 0.0195312Q1.5332 0.0195312 0.766602 0.776367Q0 1.5332 0 3.04688L0 9.85352Q0 12.5977 0.888672 14.4043Q1.77734 16.2109 3.63281 17.1045Q5.48828 17.998 8.39844 17.998Z" fill="rgba(255,255,255,0.25)"/>
  <path d="M9.22852 13.6426Q8.83789 13.6426 8.6377 13.3936Q8.4375 13.1445 8.4375 12.7344L8.4375 5.25391Q8.4375 4.84375 8.6377 4.58984Q8.83789 4.33594 9.21875 4.33594L12.1191 4.33594Q13.6523 4.33594 14.5557 5.1416Q15.459 5.94727 15.459 7.30469Q15.459 8.24219 14.9316 8.97461Q14.4043 9.70703 13.5156 10L15.0195 12.3633Q15.1953 12.6562 15.1953 12.9492Q15.1953 13.252 14.9951 13.4473Q14.7949 13.6426 14.4727 13.6426Q14.1992 13.6426 14.0234 13.5205Q13.8477 13.3984 13.6621 13.1055L11.9238 10.2344L10.0391 10.2344L10.0391 12.7344Q10.0391 13.1543 9.83398 13.3984Q9.62891 13.6426 9.22852 13.6426ZM10.0391 9.05273L11.8848 9.05273Q12.793 9.05273 13.3252 8.6084Q13.8574 8.16406 13.8574 7.34375Q13.8574 6.49414 13.3203 6.03516Q12.7832 5.57617 11.9238 5.57617L10.0391 5.57617Z" fill="#ffffff"/>
 </g>
</svg>
