<?xml version="1.0" encoding="UTF-8"?>
<!--Generator: Apple Native CoreSVG 175-->
<!DOCTYPE svg
PUBLIC "-//W3C//DTD SVG 1.1//EN"
       "http://www.w3.org/Graphics/SVG/1.1/DTD/svg11.dtd">
<svg version="1.1" xmlns="http://www.w3.org/2000/svg" xmlns:xlink="http://www.w3.org/1999/xlink" width="22.7832" height="17.3145">
 <g>
  <rect height="17.3145" opacity="0" width="22.7832" x="0" y="0"/>
  <path d="M7.59766 17.3145L15.1855 17.3145Q17.9102 17.3145 19.585 16.4697Q21.2598 15.625 22.0215 13.9453Q22.7832 12.2656 22.7832 9.77539L22.7832 2.65625Q22.7832 1.37695 22.1143 0.703125Q21.4453 0.0292969 20.1465 0.0292969L2.62695 0.0292969Q1.33789 0.0292969 0.668945 0.693359Q0 1.35742 0 2.65625L0 9.77539Q0 12.2656 0.766602 13.9453Q1.5332 15.625 3.20312 16.4697Q4.87305 17.3145 7.59766 17.3145Z" fill="rgba(255,255,255,0.25)"/>
  <path d="M8.93555 13.1934Q8.76953 13.1934 8.66699 13.0859Q8.56445 12.9785 8.56445 12.793L8.56445 4.81445Q8.56445 4.62891 8.65234 4.51172Q8.74023 4.39453 8.91602 4.39453L11.6309 4.39453Q12.8613 4.39453 13.623 5.1123Q14.3848 5.83008 14.3848 6.99219Q14.3848 7.93945 13.8428 8.61328Q13.3008 9.28711 12.3926 9.48242L14.1992 12.5391Q14.3164 12.7344 14.3164 12.8711Q14.3164 13.0176 14.2285 13.1055Q14.1406 13.1934 13.9844 13.1934Q13.8477 13.1934 13.7598 13.1348Q13.6719 13.0762 13.5938 12.9199L11.6406 9.57031L9.31641 9.57031L9.31641 12.793Q9.31641 12.9688 9.21387 13.0811Q9.11133 13.1934 8.93555 13.1934ZM9.31641 8.93555L11.6016 8.93555Q12.5195 8.93555 13.0762 8.40332Q13.6328 7.87109 13.6328 7.00195Q13.6328 6.11328 13.0713 5.58105Q12.5098 5.04883 11.6113 5.04883L9.31641 5.04883Z" fill="#ffffff"/>
 </g>
</svg>
