<?xml version="1.0" encoding="UTF-8"?>
<!--Generator: Apple Native CoreSVG 175.5-->
<!DOCTYPE svg
PUBLIC "-//W3C//DTD SVG 1.1//EN"
       "http://www.w3.org/Graphics/SVG/1.1/DTD/svg11.dtd">
<svg version="1.1" xmlns="http://www.w3.org/2000/svg" xmlns:xlink="http://www.w3.org/1999/xlink" width="23.0273" height="26.6504">
 <g>
  <rect height="26.6504" opacity="0" width="23.0273" x="0" y="0"/>
  <path d="M17.9395 11.123Q18.5645 11.1133 19.0137 10.6738Q19.4629 10.2344 19.4629 9.60938Q19.4629 8.98438 19.0137 8.53516Q18.5645 8.08594 17.9395 8.07617Q17.3047 8.06641 16.8555 8.52539Q16.4062 8.98438 16.4062 9.60938Q16.4062 10.2344 16.8555 10.6836Q17.3047 11.1328 17.9395 11.123ZM17.9395 15.5664Q18.5645 15.5664 19.0137 15.1123Q19.4629 14.6582 19.4629 14.0332Q19.4629 13.3984 19.0137 12.9541Q18.5645 12.5098 17.9395 12.5098Q17.3047 12.5098 16.8555 12.9541Q16.4062 13.3984 16.4062 14.0332Q16.4062 14.6582 16.8555 15.1123Q17.3047 15.5664 17.9395 15.5664ZM9.21875 9.21875Q9.51172 9.21875 9.7168 9.00391Q9.92188 8.78906 9.92188 8.47656Q9.92188 8.18359 9.7168 7.97363Q9.51172 7.76367 9.21875 7.76367Q8.92578 7.76367 8.71582 7.97363Q8.50586 8.18359 8.50586 8.47656Q8.50586 8.78906 8.71582 9.00391Q8.92578 9.21875 9.21875 9.21875ZM11.6309 9.90234Q11.9336 9.90234 12.1387 9.6875Q12.3438 9.47266 12.3438 9.17969Q12.3438 8.87695 12.1387 8.66699Q11.9336 8.45703 11.6309 8.45703Q11.3379 8.45703 11.1377 8.66699Q10.9375 8.87695 10.9375 9.17969Q10.9375 9.47266 11.1377 9.6875Q11.3379 9.90234 11.6309 9.90234ZM13.457 11.6406Q13.75 11.6406 13.9648 11.4355Q14.1797 11.2305 14.1797 10.9375Q14.1797 10.6348 13.9648 10.415Q13.75 10.1953 13.457 10.1953Q13.1641 10.1953 12.959 10.415Q12.7539 10.6348 12.7539 10.9375Q12.7539 11.2305 12.959 11.4355Q13.1641 11.6406 13.457 11.6406ZM14.0723 13.9844Q14.3652 13.9844 14.5703 13.7744Q14.7754 13.5645 14.7754 13.2715Q14.7754 12.9688 14.5703 12.7637Q14.3652 12.5586 14.0723 12.5586Q13.7695 12.5586 13.5645 12.7637Q13.3594 12.9688 13.3594 13.2715Q13.3594 13.5645 13.5645 13.7744Q13.7695 13.9844 14.0723 13.9844ZM13.457 16.3379Q13.75 16.3379 13.9648 16.123Q14.1797 15.9082 14.1797 15.6055Q14.1797 15.3027 13.9648 15.0977Q13.75 14.8926 13.457 14.8926Q13.1641 14.8926 12.959 15.0977Q12.7539 15.3027 12.7539 15.6055Q12.7539 15.9082 12.959 16.123Q13.1641 16.3379 13.457 16.3379ZM11.6309 18.1348Q11.9336 18.1348 12.1387 17.9248Q12.3438 17.7148 12.3438 17.4121Q12.3438 17.1191 12.1387 16.9043Q11.9336 16.6895 11.6309 16.6895Q11.3379 16.6895 11.1377 16.9043Q10.9375 17.1191 10.9375 17.4121Q10.9375 17.7148 11.1377 17.9248Q11.3379 18.1348 11.6309 18.1348ZM9.21875 18.877Q9.51172 18.877 9.7168 18.667Q9.92188 18.457 9.92188 18.1641Q9.92188 17.8613 9.7168 17.6416Q9.51172 17.4219 9.21875 17.4219Q8.92578 17.4219 8.71582 17.6416Q8.50586 17.8613 8.50586 18.1641Q8.50586 18.457 8.71582 18.667Q8.92578 18.877 9.21875 18.877ZM6.79688 18.1348Q7.08984 18.1348 7.29004 17.9248Q7.49023 17.7148 7.49023 17.4121Q7.49023 17.1191 7.29004 16.9043Q7.08984 16.6895 6.79688 16.6895Q6.49414 16.6895 6.28906 16.9043Q6.08398 17.1191 6.08398 17.4121Q6.08398 17.7148 6.28906 17.9248Q6.49414 18.1348 6.79688 18.1348ZM4.98047 16.3379Q5.27344 16.3379 5.47363 16.123Q5.67383 15.9082 5.67383 15.6055Q5.67383 15.3027 5.47363 15.0977Q5.27344 14.8926 4.98047 14.8926Q4.67773 14.8926 4.46289 15.0977Q4.24805 15.3027 4.24805 15.6055Q4.24805 15.9082 4.46289 16.123Q4.67773 16.3379 4.98047 16.3379ZM4.36523 13.9844Q4.6582 13.9844 4.86328 13.7744Q5.06836 13.5645 5.06836 13.2715Q5.06836 12.9688 4.86328 12.7637Q4.6582 12.5586 4.36523 12.5586Q4.07227 12.5586 3.8623 12.7637Q3.65234 12.9688 3.65234 13.2715Q3.65234 13.5645 3.8623 13.7744Q4.07227 13.9844 4.36523 13.9844ZM4.98047 11.6406Q5.27344 11.6406 5.47363 11.4355Q5.67383 11.2305 5.67383 10.9375Q5.67383 10.6348 5.47363 10.415Q5.27344 10.1953 4.98047 10.1953Q4.67773 10.1953 4.46289 10.415Q4.24805 10.6348 4.24805 10.9375Q4.24805 11.2305 4.46289 11.4355Q4.67773 11.6406 4.98047 11.6406ZM6.79688 9.90234Q7.08984 9.90234 7.29004 9.6875Q7.49023 9.47266 7.49023 9.17969Q7.49023 8.87695 7.29004 8.66699Q7.08984 8.45703 6.79688 8.45703Q6.49414 8.45703 6.28906 8.66699Q6.08398 8.87695 6.08398 9.17969Q6.08398 9.47266 6.28906 9.6875Q6.49414 9.90234 6.79688 9.90234ZM9.21875 11.6992Q9.51172 11.6992 9.7168 11.4893Q9.92188 11.2793 9.92188 10.9863Q9.92188 10.6836 9.7168 10.4688Q9.51172 10.2539 9.21875 10.2539Q8.92578 10.2539 8.71582 10.4688Q8.50586 10.6836 8.50586 10.9863Q8.50586 11.2793 8.71582 11.4893Q8.92578 11.6992 9.21875 11.6992ZM11.4844 12.6758Q11.7773 12.6758 11.9824 12.4658Q12.1875 12.2559 12.1875 11.9629Q12.1875 11.6699 11.9824 11.46Q11.7773 11.25 11.4844 11.25Q11.1914 11.25 10.9766 11.46Q10.7617 11.6699 10.7617 11.9629Q10.7617 12.2559 10.9766 12.4658Q11.1914 12.6758 11.4844 12.6758ZM11.4844 15.3906Q11.7773 15.3906 11.9824 15.1855Q12.1875 14.9805 12.1875 14.6875Q12.1875 14.375 11.9824 14.165Q11.7773 13.9551 11.4844 13.9551Q11.1914 13.9551 10.9766 14.165Q10.7617 14.375 10.7617 14.6875Q10.7617 14.9805 10.9766 15.1855Q11.1914 15.3906 11.4844 15.3906ZM9.21875 16.3867Q9.51172 16.3867 9.7168 16.167Q9.92188 15.9473 9.92188 15.6543Q9.92188 15.3613 9.7168 15.1514Q9.51172 14.9414 9.21875 14.9414Q8.92578 14.9414 8.71582 15.1514Q8.50586 15.3613 8.50586 15.6543Q8.50586 15.9473 8.71582 16.167Q8.92578 16.3867 9.21875 16.3867ZM6.94336 15.3906Q7.23633 15.3906 7.45117 15.1855Q7.66602 14.9805 7.66602 14.6875Q7.66602 14.375 7.45117 14.165Q7.23633 13.9551 6.94336 13.9551Q6.65039 13.9551 6.44531 14.165Q6.24023 14.375 6.24023 14.6875Q6.24023 14.9805 6.44531 15.1855Q6.65039 15.3906 6.94336 15.3906ZM6.94336 12.6758Q7.23633 12.6758 7.45117 12.4658Q7.66602 12.2559 7.66602 11.9629Q7.66602 11.6699 7.45117 11.46Q7.23633 11.25 6.94336 11.25Q6.65039 11.25 6.44531 11.46Q6.24023 11.6699 6.24023 11.9629Q6.24023 12.2559 6.44531 12.4658Q6.65039 12.6758 6.94336 12.6758ZM9.21875 14.0332Q9.51172 14.0332 9.7168 13.8232Q9.92188 13.6133 9.92188 13.3203Q9.92188 13.0273 9.7168 12.8174Q9.51172 12.6074 9.21875 12.6074Q8.92578 12.6074 8.71582 12.8174Q8.50586 13.0273 8.50586 13.3203Q8.50586 13.6133 8.71582 13.8232Q8.92578 14.0332 9.21875 14.0332ZM18.6523 5.91797L19.1309 4.41406L5.6543 0.0390625Q5.35156-0.0585938 5.05859 0.0878906Q4.76562 0.234375 4.66797 0.546875Q4.57031 0.849609 4.7168 1.14258Q4.86328 1.43555 5.17578 1.54297ZM3.06641 22.3145L19.9609 22.3145Q21.5039 22.3145 22.2656 21.5576Q23.0273 20.8008 23.0273 19.2969L23.0273 7.36328Q23.0273 5.85938 22.2656 5.09766Q21.5039 4.33594 19.9609 4.33594L3.06641 4.33594Q1.5332 4.33594 0.766602 5.09277Q0 5.84961 0 7.36328L0 19.2969Q0 20.8008 0.766602 21.5576Q1.5332 22.3145 3.06641 22.3145ZM3.08594 20.7422Q2.35352 20.7422 1.96289 20.3564Q1.57227 19.9707 1.57227 19.209L1.57227 7.45117Q1.57227 6.68945 1.96289 6.29883Q2.35352 5.9082 3.08594 5.9082L19.9414 5.9082Q20.6641 5.9082 21.0596 6.29883Q21.4551 6.68945 21.4551 7.45117L21.4551 19.209Q21.4551 19.9707 21.0596 20.3564Q20.6641 20.7422 19.9414 20.7422Z" fill="#ffffff"/>
 </g>
</svg>
