<?xml version="1.0" encoding="UTF-8"?>
<!--Generator: Apple Native CoreSVG 175-->
<!DOCTYPE svg
PUBLIC "-//W3C//DTD SVG 1.1//EN"
       "http://www.w3.org/Graphics/SVG/1.1/DTD/svg11.dtd">
<svg version="1.1" xmlns="http://www.w3.org/2000/svg" xmlns:xlink="http://www.w3.org/1999/xlink" width="20.8005" height="20.8856">
 <g>
  <rect height="20.8856" opacity="0" width="20.8005" x="0" y="0"/>
  <path d="M10.8083 0.406647Q10.8083 0.244904 10.6844 0.122452Q10.5606 0 10.3989 0Q10.2399 0 10.116 0.122452Q9.99222 0.244904 9.99222 0.406647L9.99222 3.44269Q9.99222 3.60428 10.116 3.72459Q10.2399 3.84491 10.3989 3.84491Q10.5606 3.84491 10.6844 3.72459Q10.8083 3.60428 10.8083 3.44269ZM15.0175 5.21454Q14.9001 5.33203 14.9001 5.49866Q14.9001 5.66528 15.0175 5.78293Q15.1352 5.90042 15.3018 5.90042Q15.4684 5.90042 15.5887 5.78293L17.7359 3.63281Q17.8535 3.51532 17.8535 3.34732Q17.8535 3.17932 17.7359 3.06168Q17.6184 2.94418 17.4532 2.94418Q17.2879 2.94418 17.1703 3.06168ZM20.3911 10.8055Q20.5527 10.8055 20.6766 10.6831Q20.8005 10.5606 20.8005 10.3989Q20.8005 10.2399 20.6766 10.116Q20.5527 9.99222 20.3911 9.99222L17.355 9.99222Q17.196 9.99222 17.0722 10.116Q16.9484 10.2399 16.9484 10.3989Q16.9484 10.5606 17.0722 10.6831Q17.196 10.8055 17.355 10.8055ZM15.5887 15.0148Q15.4684 14.8973 15.3018 14.8973Q15.1352 14.8973 15.0175 15.0148Q14.9001 15.1324 14.9001 15.2991Q14.9001 15.4657 15.0175 15.5832L17.1703 17.7361Q17.2879 17.8535 17.4532 17.8522Q17.6184 17.8508 17.7359 17.7361Q17.8535 17.6184 17.8535 17.4504Q17.8535 17.2824 17.7359 17.1649ZM10.8083 17.355Q10.8083 17.1935 10.6844 17.0731Q10.5606 16.9527 10.3989 16.9527Q10.2399 16.9527 10.116 17.0731Q9.99222 17.1935 9.99222 17.355L9.99222 20.3911Q9.99222 20.5528 10.116 20.6753Q10.2399 20.7977 10.3989 20.7977Q10.5606 20.7977 10.6844 20.6753Q10.8083 20.5528 10.8083 20.3911ZM3.04764 17.1649Q2.93015 17.2754 2.93015 17.4455Q2.93015 17.6157 3.04489 17.7333Q3.15552 17.8578 3.32703 17.8557Q3.49854 17.8535 3.61603 17.7361L5.76599 15.6Q5.88364 15.4922 5.88364 15.3221Q5.88364 15.152 5.76599 15.0343Q5.65826 14.9168 5.48676 14.9168Q5.31525 14.9168 5.1976 15.0343ZM0.406647 9.99222Q0.24765 9.99222 0.123825 10.116Q0 10.2399 0 10.3989Q0 10.5606 0.123825 10.6831Q0.24765 10.8055 0.406647 10.8055L3.44101 10.8055Q3.60703 10.8055 3.72734 10.6831Q3.84766 10.5606 3.84766 10.3989Q3.84766 10.2399 3.72734 10.116Q3.60703 9.99222 3.44101 9.99222ZM5.17731 5.76248Q5.28793 5.88013 5.45807 5.88013Q5.6282 5.88013 5.7457 5.76248Q5.86334 5.65201 5.86334 5.48187Q5.86334 5.31174 5.7457 5.19409L3.6055 3.04413Q3.49487 2.91962 3.32619 2.92175Q3.1575 2.92389 3.03711 3.04138Q2.91946 3.15201 2.91946 3.32214Q2.91946 3.49228 3.03711 3.60977Z" fill="#ffffff"/>
 </g>
</svg>
