<?xml version="1.0" encoding="UTF-8"?>
<!--Generator: Apple Native CoreSVG 175.5-->
<!DOCTYPE svg
PUBLIC "-//W3C//DTD SVG 1.1//EN"
       "http://www.w3.org/Graphics/SVG/1.1/DTD/svg11.dtd">
<svg version="1.1" xmlns="http://www.w3.org/2000/svg" xmlns:xlink="http://www.w3.org/1999/xlink" width="21.2012" height="21.2793">
 <g>
  <rect height="21.2793" opacity="0" width="21.2012" x="0" y="0"/>
  <path d="M11.4551 0.849609Q11.4551 0.498047 11.2012 0.249023Q10.9473 0 10.5957 0Q10.2539 0 10 0.249023Q9.74609 0.498047 9.74609 0.849609L9.74609 3.85742Q9.74609 4.20898 10 4.46289Q10.2539 4.7168 10.5957 4.7168Q10.9473 4.7168 11.2012 4.46289Q11.4551 4.20898 11.4551 3.85742Z" fill="#ffffff"/>
  <path d="M14.7363 5.26367Q14.4922 5.50781 14.4922 5.86426Q14.4922 6.2207 14.7363 6.46484Q14.9805 6.70898 15.3369 6.70898Q15.6934 6.70898 15.9473 6.46484L18.0664 4.33594Q18.3105 4.0918 18.3105 3.73047Q18.3105 3.36914 18.0664 3.125Q17.8223 2.88086 17.4707 2.88086Q17.1191 2.88086 16.875 3.125Z" fill="#ffffff"/>
  <path d="M20.3418 11.4453Q20.6934 11.4453 20.9473 11.1963Q21.2012 10.9473 21.2012 10.5957Q21.2012 10.2539 20.9473 10Q20.6934 9.74609 20.3418 9.74609L17.334 9.74609Q16.9922 9.74609 16.7383 10Q16.4844 10.2539 16.4844 10.5957Q16.4844 10.9473 16.7383 11.1963Q16.9922 11.4453 17.334 11.4453Z" fill="#ffffff"/>
  <path d="M15.9473 14.7266Q15.6934 14.4824 15.3369 14.4824Q14.9805 14.4824 14.7363 14.7266Q14.4922 14.9707 14.4922 15.3271Q14.4922 15.6836 14.7363 15.9277L16.875 18.0664Q17.1191 18.3105 17.4707 18.3057Q17.8223 18.3008 18.0664 18.0664Q18.3105 17.8223 18.3105 17.4609Q18.3105 17.0996 18.0664 16.8555Z" fill="#ffffff"/>
  <path d="M11.4551 17.334Q11.4551 16.9824 11.2012 16.7285Q10.9473 16.4746 10.5957 16.4746Q10.2539 16.4746 10 16.7285Q9.74609 16.9824 9.74609 17.334L9.74609 20.3418Q9.74609 20.6934 10 20.9424Q10.2539 21.1914 10.5957 21.1914Q10.9473 21.1914 11.2012 20.9424Q11.4551 20.6934 11.4551 20.3418Z" fill="#ffffff"/>
  <path d="M3.125 16.8555Q2.88086 17.0996 2.88086 17.4561Q2.88086 17.8125 3.11523 18.0566Q3.35938 18.3008 3.7207 18.3057Q4.08203 18.3105 4.32617 18.0664L6.45508 15.9375Q6.69922 15.7031 6.69922 15.3467Q6.69922 14.9902 6.45508 14.7461Q6.2207 14.502 5.85938 14.502Q5.49805 14.502 5.25391 14.7461Z" fill="#ffffff"/>
  <path d="M0.849609 9.74609Q0.507812 9.74609 0.253906 10Q0 10.2539 0 10.5957Q0 10.9473 0.253906 11.1963Q0.507812 11.4453 0.849609 11.4453L3.87695 11.4453Q4.21875 11.4453 4.47266 11.1963Q4.72656 10.9473 4.72656 10.5957Q4.72656 10.2539 4.47266 10Q4.21875 9.74609 3.87695 9.74609Z" fill="#ffffff"/>
  <path d="M5.15625 6.36719Q5.40039 6.61133 5.75684 6.61133Q6.11328 6.61133 6.35742 6.36719Q6.60156 6.12305 6.60156 5.7666Q6.60156 5.41016 6.35742 5.16602L4.23828 3.03711Q3.99414 2.79297 3.64258 2.78809Q3.29102 2.7832 3.03711 3.02734Q2.79297 3.27148 2.79297 3.62793Q2.79297 3.98438 3.03711 4.22852Z" fill="#ffffff"/>
 </g>
</svg>
