<?xml version="1.0" encoding="UTF-8"?>
<!--Generator: Apple Native CoreSVG 175.5-->
<!DOCTYPE svg
PUBLIC "-//W3C//DTD SVG 1.1//EN"
       "http://www.w3.org/Graphics/SVG/1.1/DTD/svg11.dtd">
<svg version="1.1" xmlns="http://www.w3.org/2000/svg" xmlns:xlink="http://www.w3.org/1999/xlink" width="23.7338" height="21.6508">
 <g>
  <rect height="21.6508" opacity="0" width="23.7338" x="0" y="0"/>
  <path d="M19.3457 21.1916Q21.3379 20.469 22.4316 19.1604Q23.5254 17.8518 23.7012 16.0793Q23.877 14.3068 23.1055 12.1682L22.4609 10.4006Q22.0312 9.19942 21.2793 8.68185Q20.5273 8.16427 19.8633 8.40841Q19.5703 8.5256 19.668 8.8088L19.9512 9.59981Q20.0488 9.87325 19.9756 10.0539Q19.9023 10.2346 19.7461 10.3029Q19.5605 10.3615 19.3848 10.2688Q19.209 10.176 19.1113 9.90255L18.9258 9.38497Q18.6621 8.67208 18.1055 8.39376Q17.5488 8.11544 16.9238 8.34005Q16.377 8.53536 16.5527 9.00411L16.9434 10.0588Q17.0508 10.342 16.9775 10.5227Q16.9043 10.7033 16.7383 10.7619Q16.5625 10.8303 16.3867 10.7375Q16.2109 10.6447 16.1133 10.3713L15.7617 9.38497Q15.4785 8.58419 14.9219 8.34981Q14.3652 8.11544 13.7695 8.34005Q13.2227 8.5256 13.3984 8.99435L14.1504 11.0842Q14.2578 11.3674 14.1846 11.5481Q14.1113 11.7287 13.9551 11.7873Q13.7695 11.8459 13.5938 11.7531Q13.418 11.6604 13.3203 11.3869L10.791 4.42403Q10.6055 3.91622 10.2002 3.71603Q9.79492 3.51583 9.36523 3.67208Q8.89648 3.84786 8.71582 4.25313Q8.53516 4.65841 8.7207 5.17599L12.4414 15.3713Q12.5098 15.5568 12.4414 15.6936Q12.373 15.8303 12.2559 15.8693Q12.1387 15.8986 12.0166 15.8596Q11.8945 15.8205 11.7383 15.6643L9.23828 12.969Q8.95508 12.676 8.66211 12.5979Q8.36914 12.5197 8.06641 12.6369Q7.59766 12.8127 7.41699 13.1887Q7.23633 13.5647 7.38281 13.965Q7.43164 14.1115 7.50977 14.2336Q7.58789 14.3557 7.66602 14.4533L10.7715 18.34Q12.7344 20.801 14.9365 21.3967Q17.1387 21.9924 19.3457 21.1916Z" fill="#ffffff"/>
  <path d="M2.96875 15.9572L7.14844 15.9572L6.61133 15.2834Q6.32812 14.9416 6.16699 14.5119Q6.00586 14.0822 6.00586 13.6135Q6.00586 12.9494 6.31836 12.4074Q6.63086 11.8654 7.17773 11.5481Q7.72461 11.2307 8.4082 11.2307Q8.96484 11.2307 9.47266 11.5334L9.69727 11.7775L7.4707 5.63497Q7.29492 5.15645 7.29492 4.6877Q7.29492 4.00411 7.58301 3.45235Q7.87109 2.9006 8.41797 2.58321Q8.96484 2.26583 9.72656 2.26583Q10.4883 2.26583 11.1182 2.72481Q11.748 3.1838 12.0215 3.96505L13.1836 7.12911Q13.457 7.02169 13.7402 6.95821Q14.0234 6.89474 14.3457 6.89474Q15.1953 6.89474 15.8887 7.40255Q16.1719 7.15841 16.6113 7.03145Q17.0508 6.9045 17.4707 6.9045Q17.8418 6.9045 18.1934 7.00704Q18.5449 7.10958 18.8672 7.30489L18.8672 7.30489L18.8672 3.16427Q18.8672 1.69942 18.1299 0.967002Q17.3926 0.23458 15.9082 0.23458L2.96875 0.23458Q1.47461 0.23458 0.737305 0.962119Q0 1.68966 0 3.16427L0 13.0373Q0 14.5119 0.737305 15.2346Q1.47461 15.9572 2.96875 15.9572Z" fill="rgba(255,255,255,0.5)"/>
 </g>
</svg>
