<?xml version="1.0" encoding="UTF-8"?>
<!--Generator: Apple Native CoreSVG 175-->
<!DOCTYPE svg
PUBLIC "-//W3C//DTD SVG 1.1//EN"
       "http://www.w3.org/Graphics/SVG/1.1/DTD/svg11.dtd">
<svg version="1.1" xmlns="http://www.w3.org/2000/svg" xmlns:xlink="http://www.w3.org/1999/xlink" width="19.2531" height="20.6738">
 <g>
  <rect height="20.6738" opacity="0" width="19.2531" x="0" y="0"/>
  <path d="M4.35547 20.6738L14.8828 20.6738Q16.4648 20.6738 17.0703 19.6387L16.5039 19.0723Q16.0938 19.9414 14.8438 19.9414L4.39453 19.9414Q3.42773 19.9414 2.94434 19.4531Q2.46094 18.9648 2.46094 18.0176L2.46094 5.01953L1.72852 4.29688L1.72852 18.0371Q1.72852 19.3359 2.39258 20.0049Q3.05664 20.6738 4.35547 20.6738ZM2.74414 1.66016Q3.11523 0.751953 4.39453 0.751953L14.8438 0.751953Q15.8008 0.751953 16.2891 1.24512Q16.7773 1.73828 16.7773 2.68555L16.7773 15.7031L17.5098 16.4355L17.5098 2.66602Q17.5098 1.36719 16.8408 0.698242Q16.1719 0.0292969 14.8828 0.0292969L4.35547 0.0292969Q2.75391 0.0292969 2.1582 1.07422ZM9.98047 8.90625L9.98047 0.488281L9.25781 0.488281L9.25781 8.18359ZM9.25781 20.1758L9.98047 20.1758L9.98047 12.5488L9.25781 11.8262Z" fill="rgba(255,255,255,0.5)"/>
  <path d="M18.6328 19.873Q18.7402 19.9805 18.8867 19.9805Q19.0332 19.9805 19.1406 19.873Q19.2578 19.7559 19.2529 19.6094Q19.248 19.4629 19.1406 19.3555L0.615234 0.830078Q0.517578 0.732422 0.371094 0.727539Q0.224609 0.722656 0.0976562 0.830078Q0 0.9375 0 1.08398Q0 1.23047 0.0976562 1.34766Z" fill="#ffffff"/>
 </g>
</svg>
