<?xml version="1.0" encoding="UTF-8"?>
<!--Generator: Apple Native CoreSVG 175.5-->
<!DOCTYPE svg
PUBLIC "-//W3C//DTD SVG 1.1//EN"
       "http://www.w3.org/Graphics/SVG/1.1/DTD/svg11.dtd">
<svg version="1.1" xmlns="http://www.w3.org/2000/svg" xmlns:xlink="http://www.w3.org/1999/xlink" width="21.0449" height="17.998">
 <g>
  <rect height="17.998" opacity="0" width="21.0449" x="0" y="0"/>
  <path d="M1.86523 8.20312L4.07227 8.20312Q5 8.20312 5.46875 7.72949Q5.9375 7.25586 5.9375 6.28906L5.9375 1.92383Q5.9375 0.957031 5.46875 0.488281Q5 0.0195312 4.07227 0.0195312L1.86523 0.0195312Q0.9375 0.0195312 0.46875 0.488281Q0 0.957031 0 1.92383L0 6.28906Q0 7.25586 0.46875 7.72949Q0.9375 8.20312 1.86523 8.20312ZM9.42383 8.20312L11.6309 8.20312Q12.5586 8.20312 13.0273 7.72949Q13.4961 7.25586 13.4961 6.28906L13.4961 1.92383Q13.4961 0.957031 13.0273 0.488281Q12.5586 0.0195312 11.6309 0.0195312L9.42383 0.0195312Q8.48633 0.0195312 8.02246 0.488281Q7.55859 0.957031 7.55859 1.92383L7.55859 6.28906Q7.55859 7.25586 8.02246 7.72949Q8.48633 8.20312 9.42383 8.20312ZM16.9824 8.20312L19.1797 8.20312Q20.1172 8.20312 20.5811 7.72949Q21.0449 7.25586 21.0449 6.28906L21.0449 1.92383Q21.0449 0.957031 20.5811 0.488281Q20.1172 0.0195312 19.1797 0.0195312L16.9824 0.0195312Q16.0449 0.0195312 15.5762 0.488281Q15.1074 0.957031 15.1074 1.92383L15.1074 6.28906Q15.1074 7.25586 15.5762 7.72949Q16.0449 8.20312 16.9824 8.20312ZM1.86523 17.998L4.07227 17.998Q5 17.998 5.46875 17.5293Q5.9375 17.0605 5.9375 16.0938L5.9375 11.7188Q5.9375 10.7617 5.46875 10.2881Q5 9.81445 4.07227 9.81445L1.86523 9.81445Q0.9375 9.81445 0.46875 10.2881Q0 10.7617 0 11.7188L0 16.0938Q0 17.0605 0.46875 17.5293Q0.9375 17.998 1.86523 17.998ZM9.42383 17.998L11.6309 17.998Q12.5586 17.998 13.0273 17.5293Q13.4961 17.0605 13.4961 16.0938L13.4961 11.7188Q13.4961 10.7617 13.0273 10.2881Q12.5586 9.81445 11.6309 9.81445L9.42383 9.81445Q8.48633 9.81445 8.02246 10.2881Q7.55859 10.7617 7.55859 11.7188L7.55859 16.0938Q7.55859 17.0605 8.02246 17.5293Q8.48633 17.998 9.42383 17.998ZM16.9824 17.998L19.1797 17.998Q20.1172 17.998 20.5811 17.5293Q21.0449 17.0605 21.0449 16.0938L21.0449 11.7188Q21.0449 10.7617 20.5811 10.2881Q20.1172 9.81445 19.1797 9.81445L16.9824 9.81445Q16.0449 9.81445 15.5762 10.2881Q15.1074 10.7617 15.1074 11.7188L15.1074 16.0938Q15.1074 17.0605 15.5762 17.5293Q16.0449 17.998 16.9824 17.998Z" fill="#ffffff"/>
 </g>
</svg>
