<?xml version="1.0" encoding="UTF-8"?>
<!--Generator: Apple Native CoreSVG 175.5-->
<!DOCTYPE svg
PUBLIC "-//W3C//DTD SVG 1.1//EN"
       "http://www.w3.org/Graphics/SVG/1.1/DTD/svg11.dtd">
<svg version="1.1" xmlns="http://www.w3.org/2000/svg" xmlns:xlink="http://www.w3.org/1999/xlink" width="19.7852" height="24.3066">
 <g>
  <rect height="24.3066" opacity="0" width="19.7852" x="0" y="0"/>
  <path d="M15.2637 3.06641Q15.2637 1.5332 14.5068 0.766602Q13.75 0 12.2363 0L3.02734 0Q1.51367 0 0.756836 0.766602Q0 1.5332 0 3.06641L0 16.2988Q0 17.832 0.756836 18.5986Q1.51367 19.3652 3.02734 19.3652L5.15625 19.3652L5.15625 17.793L3.10547 17.793Q2.34375 17.793 1.95801 17.3975Q1.57227 17.002 1.57227 16.2793L1.57227 3.0957Q1.57227 2.36328 1.95801 1.96777Q2.34375 1.57227 3.10547 1.57227L12.1582 1.57227Q12.9102 1.57227 13.3008 1.96777Q13.6914 2.36328 13.6914 3.0957L13.6914 5.48828L15.2637 5.48828Z" fill="rgba(255,255,255,0.5)"/>
  <path d="M19.7852 7.89062Q19.7852 6.35742 19.0283 5.59082Q18.2715 4.82422 16.7578 4.82422L7.54883 4.82422Q6.03516 4.82422 5.27832 5.59082Q4.52148 6.35742 4.52148 7.89062L4.52148 21.2305Q4.52148 22.7637 5.27832 23.5303Q6.03516 24.2969 7.54883 24.2969L16.7578 24.2969Q18.2617 24.2969 19.0234 23.5303Q19.7852 22.7637 19.7852 21.2305ZM18.2129 7.91992L18.2129 21.2109Q18.2129 21.9336 17.8223 22.3291Q17.4316 22.7246 16.6699 22.7246L7.62695 22.7246Q6.86523 22.7246 6.47949 22.3291Q6.09375 21.9336 6.09375 21.2109L6.09375 7.91992Q6.09375 7.1875 6.47949 6.79199Q6.86523 6.39648 7.62695 6.39648L16.6699 6.39648Q17.4316 6.39648 17.8223 6.79199Q18.2129 7.1875 18.2129 7.91992Z" fill="#ffffff"/>
 </g>
</svg>
