<?xml version="1.0" encoding="UTF-8"?>
<!--Generator: Apple Native CoreSVG 175.5-->
<!DOCTYPE svg
PUBLIC "-//W3C//DTD SVG 1.1//EN"
       "http://www.w3.org/Graphics/SVG/1.1/DTD/svg11.dtd">
<svg version="1.1" xmlns="http://www.w3.org/2000/svg" xmlns:xlink="http://www.w3.org/1999/xlink" width="21.7188" height="17.998">
 <g>
  <rect height="17.998" opacity="0" width="21.7188" x="0" y="0"/>
  <path d="M1.86523 8.20312L8.18359 8.20312Q9.11133 8.20312 9.58008 7.72949Q10.0488 7.25586 10.0488 6.28906L10.0488 1.92383Q10.0488 0.957031 9.58008 0.488281Q9.11133 0.0195312 8.18359 0.0195312L1.86523 0.0195312Q0.9375 0.0195312 0.46875 0.488281Q0 0.957031 0 1.92383L0 6.28906Q0 7.25586 0.46875 7.72949Q0.9375 8.20312 1.86523 8.20312ZM1.88477 6.82617Q1.63086 6.82617 1.50391 6.68945Q1.37695 6.55273 1.37695 6.28906L1.37695 1.92383Q1.37695 1.66016 1.50391 1.52832Q1.63086 1.39648 1.88477 1.39648L8.1543 1.39648Q8.4082 1.39648 8.54004 1.52832Q8.67188 1.66016 8.67188 1.92383L8.67188 6.28906Q8.67188 6.55273 8.54004 6.68945Q8.4082 6.82617 8.1543 6.82617ZM13.5352 8.20312L19.8535 8.20312Q20.7812 8.20312 21.25 7.72949Q21.7188 7.25586 21.7188 6.28906L21.7188 1.92383Q21.7188 0.957031 21.25 0.488281Q20.7812 0.0195312 19.8535 0.0195312L13.5352 0.0195312Q12.6074 0.0195312 12.1387 0.488281Q11.6699 0.957031 11.6699 1.92383L11.6699 6.28906Q11.6699 7.25586 12.1387 7.72949Q12.6074 8.20312 13.5352 8.20312ZM13.5645 6.82617Q13.3008 6.82617 13.1738 6.68945Q13.0469 6.55273 13.0469 6.28906L13.0469 1.92383Q13.0469 1.66016 13.1738 1.52832Q13.3008 1.39648 13.5645 1.39648L19.834 1.39648Q20.0879 1.39648 20.2148 1.52832Q20.3418 1.66016 20.3418 1.92383L20.3418 6.28906Q20.3418 6.55273 20.2148 6.68945Q20.0879 6.82617 19.834 6.82617ZM1.86523 17.998L8.18359 17.998Q9.11133 17.998 9.58008 17.5293Q10.0488 17.0605 10.0488 16.0938L10.0488 11.7188Q10.0488 10.7617 9.58008 10.2881Q9.11133 9.81445 8.18359 9.81445L1.86523 9.81445Q0.9375 9.81445 0.46875 10.2881Q0 10.7617 0 11.7188L0 16.0938Q0 17.0605 0.46875 17.5293Q0.9375 17.998 1.86523 17.998ZM1.88477 16.6211Q1.63086 16.6211 1.50391 16.4893Q1.37695 16.3574 1.37695 16.0938L1.37695 11.7285Q1.37695 11.4551 1.50391 11.3232Q1.63086 11.1914 1.88477 11.1914L8.1543 11.1914Q8.4082 11.1914 8.54004 11.3232Q8.67188 11.4551 8.67188 11.7285L8.67188 16.0938Q8.67188 16.3574 8.54004 16.4893Q8.4082 16.6211 8.1543 16.6211ZM13.5352 17.998L19.8535 17.998Q20.7812 17.998 21.25 17.5293Q21.7188 17.0605 21.7188 16.0938L21.7188 11.7188Q21.7188 10.7617 21.25 10.2881Q20.7812 9.81445 19.8535 9.81445L13.5352 9.81445Q12.6074 9.81445 12.1387 10.2881Q11.6699 10.7617 11.6699 11.7188L11.6699 16.0938Q11.6699 17.0605 12.1387 17.5293Q12.6074 17.998 13.5352 17.998ZM13.5645 16.6211Q13.3008 16.6211 13.1738 16.4893Q13.0469 16.3574 13.0469 16.0938L13.0469 11.7285Q13.0469 11.4551 13.1738 11.3232Q13.3008 11.1914 13.5645 11.1914L19.834 11.1914Q20.0879 11.1914 20.2148 11.3232Q20.3418 11.4551 20.3418 11.7285L20.3418 16.0938Q20.3418 16.3574 20.2148 16.4893Q20.0879 16.6211 19.834 16.6211Z" fill="#ffffff"/>
 </g>
</svg>
