<?xml version="1.0" encoding="UTF-8"?>
<!--Generator: Apple Native CoreSVG 175-->
<!DOCTYPE svg
PUBLIC "-//W3C//DTD SVG 1.1//EN"
       "http://www.w3.org/Graphics/SVG/1.1/DTD/svg11.dtd">
<svg version="1.1" xmlns="http://www.w3.org/2000/svg" xmlns:xlink="http://www.w3.org/1999/xlink" width="17.2852" height="17.5293">
 <g>
  <rect height="17.5293" opacity="0" width="17.2852" x="0" y="0"/>
  <path d="M2.62695 17.5293L14.6484 17.5293Q15.957 17.5293 16.6211 16.8604Q17.2852 16.1914 17.2852 14.9023L17.2852 2.87109Q17.2852 1.5918 16.6211 0.917969Q15.957 0.244141 14.6484 0.244141L2.62695 0.244141Q1.33789 0.244141 0.668945 0.908203Q0 1.57227 0 2.87109L0 14.9023Q0 16.2012 0.668945 16.8652Q1.33789 17.5293 2.62695 17.5293ZM2.65625 16.8066Q1.70898 16.8066 1.2207 16.3184Q0.732422 15.8301 0.732422 14.873L0.732422 2.91016Q0.732422 1.94336 1.2207 1.45996Q1.70898 0.976562 2.65625 0.976562L14.6289 0.976562Q15.5566 0.976562 16.0596 1.45996Q16.5625 1.94336 16.5625 2.91016L16.5625 14.873Q16.5625 15.8301 16.0596 16.3184Q15.5566 16.8066 14.6289 16.8066Z" fill="rgba(255,255,255,0.5)"/>
  <path d="M6.21094 13.3301L13.1543 13.3301Q13.7402 13.3301 14.043 13.0273Q14.3457 12.7246 14.3457 12.1387L14.3457 7.38281Q14.3457 6.80664 14.043 6.50391Q13.7402 6.20117 13.1543 6.20117L6.21094 6.20117Q5.625 6.20117 5.32227 6.50391Q5.01953 6.80664 5.01953 7.38281L5.01953 12.1387Q5.01953 12.7246 5.32227 13.0273Q5.625 13.3301 6.21094 13.3301ZM4.63867 7.36328Q4.63867 6.60156 5.0293 6.20605Q5.41992 5.81055 6.17188 5.81055L12.2852 5.82031L12.2852 5.48828Q12.2852 4.90234 11.9873 4.59961Q11.6895 4.29688 11.0938 4.29688L4.15039 4.29688Q3.56445 4.29688 3.26172 4.59473Q2.95898 4.89258 2.95898 5.48828L2.95898 10.2344Q2.95898 10.8105 3.26172 11.1133Q3.56445 11.416 4.15039 11.416L4.63867 11.416Z" fill="#ffffff"/>
 </g>
</svg>
