<?xml version="1.0" encoding="UTF-8"?>
<!--Generator: Apple Native CoreSVG 175.5-->
<!DOCTYPE svg
PUBLIC "-//W3C//DTD SVG 1.1//EN"
       "http://www.w3.org/Graphics/SVG/1.1/DTD/svg11.dtd">
<svg version="1.1" xmlns="http://www.w3.org/2000/svg" xmlns:xlink="http://www.w3.org/1999/xlink" width="24.8927" height="21.2031">
 <g>
  <rect height="21.2031" opacity="0" width="24.8927" x="0" y="0"/>
  <path d="M4.0919 8.25293Q4.0919 6.87598 4.61437 5.89941Q5.13683 4.92285 6.11827 4.41016Q7.09972 3.89746 8.4962 3.89746L19.3849 3.89746L19.1407 2.53027Q18.8771 1.0459 17.9933 0.430664Q17.1095-0.18457 15.6056 0.0791016L2.56847 2.37402Q1.06456 2.64746 0.43956 3.52637Q-0.18544 4.40527 0.0782323 5.88965L1.67979 14.9619Q2.09972 17.3252 4.0919 17.4717Q4.0919 17.4424 4.0919 17.4229Q4.0919 17.4033 4.0919 17.374Z" fill="rgba(255,255,255,0.5)"/>
  <path d="M8.4962 20.4893L21.836 20.4893Q23.3595 20.4893 24.1261 19.7324Q24.8927 18.9756 24.8927 17.4619L24.8927 8.25293Q24.8927 6.74902 24.1261 5.9873Q23.3595 5.22559 21.836 5.22559L8.4962 5.22559Q6.95323 5.22559 6.19151 5.98242Q5.42979 6.73926 5.42979 8.25293L5.42979 17.4619Q5.42979 18.9756 6.19151 19.7324Q6.95323 20.4893 8.4962 20.4893Z" fill="#ffffff"/>
 </g>
</svg>
