<?xml version="1.0" encoding="UTF-8"?>
<!--Generator: Apple Native CoreSVG 175.5-->
<!DOCTYPE svg
PUBLIC "-//W3C//DTD SVG 1.1//EN"
       "http://www.w3.org/Graphics/SVG/1.1/DTD/svg11.dtd">
<svg version="1.1" xmlns="http://www.w3.org/2000/svg" xmlns:xlink="http://www.w3.org/1999/xlink" width="17.9785" height="18.2129">
 <g>
  <rect height="18.2129" opacity="0" width="17.9785" x="0" y="0"/>
  <path d="M3.06641 18.2129L14.9121 18.2129Q16.4453 18.2129 17.2119 17.4561Q17.9785 16.6992 17.9785 15.1855L17.9785 3.26172Q17.9785 1.74805 17.2119 0.991211Q16.4453 0.234375 14.9121 0.234375L3.06641 0.234375Q1.5332 0.234375 0.766602 0.991211Q0 1.74805 0 3.26172L0 15.1855Q0 16.6992 0.766602 17.4561Q1.5332 18.2129 3.06641 18.2129ZM3.08594 16.6406Q2.35352 16.6406 1.96289 16.2549Q1.57227 15.8691 1.57227 15.1074L1.57227 3.33984Q1.57227 2.57812 1.96289 2.19238Q2.35352 1.80664 3.08594 1.80664L14.8926 1.80664Q15.6152 1.80664 16.0107 2.19238Q16.4062 2.57812 16.4062 3.33984L16.4062 15.1074Q16.4062 15.8691 16.0107 16.2549Q15.6152 16.6406 14.8926 16.6406Z" fill="rgba(255,255,255,0.5)"/>
  <path d="M6.79688 13.7695L13.3203 13.7695Q13.9941 13.7695 14.3311 13.4375Q14.668 13.1055 14.668 12.4316L14.668 7.86133Q14.668 7.20703 14.3311 6.875Q13.9941 6.54297 13.3203 6.54297L6.79688 6.54297Q6.12305 6.54297 5.78613 6.875Q5.44922 7.20703 5.44922 7.86133L5.44922 12.4316Q5.44922 13.1055 5.78613 13.4375Q6.12305 13.7695 6.79688 13.7695ZM4.87305 7.80273Q4.87305 6.89453 5.3418 6.42578Q5.81055 5.95703 6.73828 5.95703L12.5195 5.95703L12.5195 5.84961Q12.5195 5.17578 12.1875 4.84863Q11.8555 4.52148 11.1816 4.52148L4.64844 4.52148Q3.98438 4.52148 3.64746 4.84863Q3.31055 5.17578 3.31055 5.84961L3.31055 10.3809Q3.31055 11.0352 3.64746 11.3672Q3.98438 11.6992 4.64844 11.6992L4.87305 11.6992Z" fill="#ffffff"/>
 </g>
</svg>
