<?xml version="1.0" encoding="UTF-8"?>
<!--Generator: Apple Native CoreSVG 175-->
<!DOCTYPE svg
PUBLIC "-//W3C//DTD SVG 1.1//EN"
       "http://www.w3.org/Graphics/SVG/1.1/DTD/svg11.dtd">
<svg version="1.1" xmlns="http://www.w3.org/2000/svg" xmlns:xlink="http://www.w3.org/1999/xlink" width="23.0729" height="20.1074">
 <g>
  <rect height="20.1074" opacity="0" width="23.0729" x="0" y="0"/>
  <path d="M2.60742 14.8438L9.3457 14.8438L8.95508 14.1699L2.63672 14.1699Q0.683594 14.1699 0.683594 12.207L0.683594 2.64648Q0.683594 0.693359 2.63672 0.693359L15.0098 0.693359Q15.9473 0.693359 16.46 1.18652Q16.9727 1.67969 16.9727 2.64648L16.9727 6.98242L17.6465 6.98242L17.6465 2.60742Q17.6465 1.33789 16.9873 0.668945Q16.3281 0 15.0391 0L2.60742 0Q1.32812 0 0.664062 0.664062Q0 1.32812 0 2.60742L0 12.2461Q0 13.5254 0.664062 14.1846Q1.32812 14.8438 2.60742 14.8438Z" fill="rgba(255,255,255,0.5)"/>
  <path d="M18.8965 19.6387Q20.5762 19.0234 21.6553 17.8418Q22.7344 16.6602 23.0029 14.9854Q23.2715 13.3105 22.5098 11.2109L21.8848 9.51172Q21.3086 7.93945 20.3955 7.33398Q19.4824 6.72852 18.3105 7.14844Q18.0078 6.72852 17.5293 6.57715Q17.0508 6.42578 16.5039 6.63086Q16.1035 6.77734 15.7031 7.09961Q15.4004 6.66992 14.9121 6.51855Q14.4238 6.36719 13.877 6.57227Q13.5059 6.69922 13.1348 7.00195L11.9238 3.68164Q11.6602 2.96875 11.0791 2.70508Q10.498 2.44141 9.89258 2.66602Q9.26758 2.90039 8.98926 3.4668Q8.71094 4.0332 8.97461 4.76562L12.0605 13.2324Q12.0898 13.3105 12.0215 13.3398Q11.9629 13.3594 11.9043 13.291L9.94141 11.0938Q9.54102 10.6543 9.09668 10.5322Q8.65234 10.4102 8.24219 10.5469Q7.66602 10.7617 7.37793 11.2744Q7.08984 11.7871 7.32422 12.4219Q7.39258 12.5684 7.49023 12.749Q7.58789 12.9297 7.71484 13.0762L11.2012 17.3145Q12.7734 19.2383 14.7412 19.834Q16.709 20.4297 18.8965 19.6387ZM18.6816 19.0332Q16.7383 19.7363 14.9365 19.1895Q13.1348 18.6426 11.6992 16.8945L8.22266 12.6465Q8.03711 12.4316 7.94922 12.1875Q7.83203 11.875 7.97852 11.5723Q8.125 11.2695 8.47656 11.1426Q9.00391 10.9375 9.53125 11.5137L11.7383 13.9551Q11.9238 14.1602 12.1094 14.1992Q12.2949 14.2383 12.4902 14.1699Q12.7246 14.0918 12.832 13.8867Q12.9395 13.6816 12.8418 13.418L9.59961 4.51172Q9.44336 4.08203 9.58008 3.73535Q9.7168 3.38867 10.1074 3.25195Q10.498 3.10547 10.8154 3.28613Q11.1328 3.4668 11.2891 3.89648L13.5645 10.1465Q13.6133 10.293 13.7354 10.3711Q13.8574 10.4492 14.0039 10.4004Q14.1602 10.3418 14.1943 10.2051Q14.2285 10.0684 14.1797 9.92188L13.3301 7.59766Q13.6621 7.30469 14.0137 7.17773Q14.4727 7.02148 14.8242 7.20703Q15.1758 7.39258 15.3613 7.90039L15.9961 9.63867Q16.0645 9.84375 16.1914 9.89746Q16.3184 9.95117 16.4453 9.91211Q16.5625 9.86328 16.626 9.74121Q16.6895 9.61914 16.6113 9.42383L15.9668 7.65625Q16.2988 7.36328 16.6504 7.23633Q17.0996 7.07031 17.4561 7.25586Q17.8125 7.44141 17.998 7.95898L18.4375 9.15039Q18.5059 9.35547 18.6328 9.40918Q18.7598 9.46289 18.8867 9.42383Q18.9941 9.375 19.0576 9.25293Q19.1211 9.13086 19.0527 8.92578L18.6133 7.72461Q19.4336 7.42188 20.1123 7.94434Q20.791 8.4668 21.2793 9.78516L21.875 11.416Q22.5586 13.3105 22.3438 14.8291Q22.1289 16.3477 21.1719 17.4121Q20.2148 18.4766 18.6816 19.0332Z" fill="#ffffff"/>
 </g>
</svg>
