<?xml version="1.0" encoding="UTF-8"?>
<!--Generator: Apple Native CoreSVG 175.5-->
<!DOCTYPE svg
PUBLIC "-//W3C//DTD SVG 1.1//EN"
       "http://www.w3.org/Graphics/SVG/1.1/DTD/svg11.dtd">
<svg version="1.1" xmlns="http://www.w3.org/2000/svg" xmlns:xlink="http://www.w3.org/1999/xlink" width="13.5742" height="22.0996">
 <g>
  <rect height="22.0996" opacity="0" width="13.5742" x="0" y="0"/>
  <path d="M0 7.34375L13.5742 7.34375L13.5742 2.04102Q13.5742 1.12305 13.0322 0.561523Q12.4902 0 11.6016 0L1.96289 0Q1.08398 0 0.541992 0.561523Q0 1.12305 0 2.04102ZM2.70508 5.50781Q2.49023 5.50781 2.34863 5.37109Q2.20703 5.23438 2.20703 5.00977L2.20703 2.7832Q2.20703 2.57812 2.34375 2.43652Q2.48047 2.29492 2.70508 2.29492Q2.91016 2.29492 3.05176 2.43164Q3.19336 2.56836 3.19336 2.7832L3.19336 5.00977Q3.19336 5.22461 3.05664 5.36621Q2.91992 5.50781 2.70508 5.50781ZM0 18.1836L13.5742 18.1836L13.5742 8.48633L0 8.48633ZM2.70508 13.1543Q2.49023 13.1543 2.34863 13.0176Q2.20703 12.8809 2.20703 12.666L2.20703 10.4395Q2.20703 10.2246 2.34375 10.0879Q2.48047 9.95117 2.70508 9.95117Q2.91016 9.95117 3.05176 10.0879Q3.19336 10.2246 3.19336 10.4395L3.19336 12.666Q3.19336 12.8809 3.05664 13.0176Q2.91992 13.1543 2.70508 13.1543ZM0 19.3262L0 20.0586Q0 20.9766 0.541992 21.5381Q1.08398 22.0996 1.96289 22.0996L11.6016 22.0996Q12.4902 22.0996 13.0322 21.5381Q13.5742 20.9766 13.5742 20.0586L13.5742 19.3262Z" fill="#ffffff"/>
 </g>
</svg>
