<?xml version="1.0" encoding="UTF-8"?>
<!--Generator: Apple Native CoreSVG 175-->
<!DOCTYPE svg
PUBLIC "-//W3C//DTD SVG 1.1//EN"
       "http://www.w3.org/Graphics/SVG/1.1/DTD/svg11.dtd">
<svg version="1.1" xmlns="http://www.w3.org/2000/svg" xmlns:xlink="http://www.w3.org/1999/xlink" width="19.1602" height="19.1504">
 <g>
  <rect height="19.1504" opacity="0" width="19.1602" x="0" y="0"/>
  <path d="M9.57031 19.1406Q11.5527 19.1406 13.2861 18.3984Q15.0195 17.6562 16.3379 16.333Q17.6562 15.0098 18.4082 13.2764Q19.1602 11.543 19.1602 9.57031Q19.1602 7.59766 18.4082 5.86426Q17.6562 4.13086 16.3379 2.80762Q15.0195 1.48438 13.2861 0.742188Q11.5527 0 9.57031 0Q7.59766 0 5.86426 0.742188Q4.13086 1.48438 2.81738 2.80762Q1.50391 4.13086 0.751953 5.86426Q0 7.59766 0 9.57031Q0 11.543 0.74707 13.2764Q1.49414 15.0098 2.8125 16.333Q4.13086 17.6562 5.86914 18.3984Q7.60742 19.1406 9.57031 19.1406Z" fill="rgba(255,255,255,0.25)"/>
  <path d="M3.60352 9.4043L3.60352 8.98438Q3.60352 7.85156 4.30664 7.20703Q5.00977 6.5625 6.25 6.5625L8.7207 6.5625L8.7207 5.15625Q8.7207 5.0293 8.79883 4.95605Q8.87695 4.88281 8.99414 4.88281Q9.13086 4.88281 9.21875 4.96094L11.3086 6.5625Q11.4453 6.66992 11.4453 6.84082Q11.4453 7.01172 11.3086 7.11914L9.21875 8.73047Q9.13086 8.80859 8.99414 8.80859Q8.87695 8.80859 8.79883 8.73535Q8.7207 8.66211 8.7207 8.53516L8.7207 7.2168L6.12305 7.2168Q5.2832 7.2168 4.78516 7.71973Q4.28711 8.22266 4.28711 9.08203L4.28711 9.4043Q4.28711 9.54102 4.18945 9.63867Q4.0918 9.73633 3.94531 9.73633Q3.80859 9.73633 3.70605 9.63867Q3.60352 9.54102 3.60352 9.4043ZM14.5117 9.91211L14.5117 10.332Q14.5117 11.4648 13.8037 12.1094Q13.0957 12.7539 11.8555 12.7539L8.23242 12.7539L8.23242 14.1699Q8.23242 14.2969 8.1543 14.3652Q8.07617 14.4336 7.93945 14.4336Q7.80273 14.4336 7.70508 14.3457L5.63477 12.7539Q5.49805 12.6367 5.49316 12.4658Q5.48828 12.2949 5.63477 12.1973L7.70508 10.5957Q7.8125 10.5176 7.93945 10.5176Q8.06641 10.5176 8.14941 10.5908Q8.23242 10.6641 8.23242 10.791L8.23242 12.0996L11.9922 12.0996Q12.8418 12.0996 13.335 11.5967Q13.8281 11.0938 13.8281 10.2344L13.8281 9.91211Q13.8281 9.76562 13.9258 9.66309Q14.0234 9.56055 14.1602 9.56055Q14.3164 9.56055 14.4141 9.66309Q14.5117 9.76562 14.5117 9.91211ZM14.1309 8.16406Q13.9648 8.16406 13.8623 8.06152Q13.7598 7.95898 13.7598 7.80273L13.7598 5.53711L13.75 5.53711L13.1152 5.99609Q13.0176 6.05469 12.9102 6.05469Q12.8027 6.05469 12.7295 5.98145Q12.6562 5.9082 12.6562 5.80078Q12.6562 5.66406 12.7832 5.57617L13.5645 5.00977Q13.7988 4.84375 14.0332 4.84375Q14.2383 4.84375 14.375 4.95605Q14.5117 5.06836 14.5117 5.2832L14.5117 7.80273Q14.5117 7.96875 14.4043 8.06641Q14.2969 8.16406 14.1309 8.16406Z" fill="#ffffff"/>
 </g>
</svg>
