<?xml version="1.0" encoding="UTF-8"?>
<!--Generator: Apple Native CoreSVG 175-->
<!DOCTYPE svg
PUBLIC "-//W3C//DTD SVG 1.1//EN"
       "http://www.w3.org/Graphics/SVG/1.1/DTD/svg11.dtd">
<svg version="1.1" xmlns="http://www.w3.org/2000/svg" xmlns:xlink="http://www.w3.org/1999/xlink" width="18.7794" height="16.7529">
 <g>
  <rect height="16.7529" opacity="0" width="18.7794" x="0" y="0"/>
  <path d="M0.492554 8.54309Q0.710602 8.54309 0.844345 8.40927Q0.978088 8.27545 0.978088 8.05756L0.978088 7.19299Q0.978088 5.68726 1.80779 4.88823Q2.63748 4.0892 4.21173 4.0892L9.00787 4.0892L9.00787 6.4473Q9.00787 6.62781 9.10706 6.72569Q9.20624 6.82358 9.40353 6.82358Q9.49539 6.82358 9.571 6.79581Q9.64661 6.76804 9.74701 6.7012L13.2977 3.94699Q13.5068 3.78677 13.5068 3.54424Q13.5068 3.3017 13.2977 3.14575L9.74701 0.402832Q9.64661 0.328979 9.571 0.302582Q9.49539 0.276184 9.40353 0.276184Q9.20624 0.276184 9.10706 0.372696Q9.00787 0.469208 9.00787 0.652466L9.00787 3.16406L4.24149 3.16406Q2.96753 3.16406 2.01698 3.62541Q1.06644 4.08676 0.533218 4.97704Q0 5.86731 0 7.16721L0 8.05756Q0 8.27545 0.132446 8.40927Q0.264893 8.54309 0.492554 8.54309ZM18.2759 8.22937Q18.0551 8.22937 17.9227 8.36182Q17.7902 8.49426 17.7902 8.72192L17.7902 9.58649Q17.7902 11.0922 16.9606 11.8899Q16.131 12.6875 14.554 12.6875L7.74536 12.6875L7.74536 10.3305Q7.74536 10.1474 7.64397 10.0509Q7.54257 9.95438 7.35245 9.95438Q7.25082 9.95438 7.17522 9.98077Q7.09961 10.0072 7.00623 10.0809L3.45551 12.8282Q3.24921 12.9912 3.24783 13.2337Q3.24646 13.4763 3.45551 13.6365L7.00623 16.3794Q7.09961 16.4462 7.17522 16.4775Q7.25082 16.5088 7.35245 16.5088Q7.54257 16.5088 7.64397 16.4074Q7.74536 16.306 7.74536 16.1325L7.74536 13.6084L14.5242 13.6084Q15.7982 13.6084 16.7536 13.1506Q17.709 12.6927 18.2388 11.8011Q18.7685 10.9094 18.7685 9.61227L18.7685 8.72192Q18.7685 8.49426 18.6346 8.36182Q18.5008 8.22937 18.2759 8.22937Z" fill="rgba(255,255,255,0.5)"/>
  <path d="M18.2787 5.83176Q18.4962 5.83176 18.6378 5.68878Q18.7794 5.54581 18.7794 5.33249L18.7794 0.619965Q18.7794 0.325928 18.5954 0.162964Q18.4114 0 18.1535 0Q17.9837 0 17.8276 0.0553131Q17.6715 0.110626 17.5165 0.218506L16.0812 1.2146Q15.9883 1.27548 15.9522 1.34834Q15.9161 1.4212 15.9161 1.51138Q15.9161 1.63757 16.002 1.73134Q16.088 1.8251 16.2575 1.8251Q16.3879 1.8251 16.5172 1.73492L17.6607 0.911865L17.7794 0.911865L17.7794 5.33249Q17.7794 5.54581 17.9189 5.68878Q18.0583 5.83176 18.2787 5.83176Z" fill="#ffffff"/>
 </g>
</svg>
