<?xml version="1.0" encoding="UTF-8"?>
<!--Generator: Apple Native CoreSVG 175-->
<!DOCTYPE svg
PUBLIC "-//W3C//DTD SVG 1.1//EN"
       "http://www.w3.org/Graphics/SVG/1.1/DTD/svg11.dtd">
<svg version="1.1" xmlns="http://www.w3.org/2000/svg" xmlns:xlink="http://www.w3.org/1999/xlink" width="19.1602" height="19.1504">
 <g>
  <rect height="19.1504" opacity="0" width="19.1602" x="0" y="0"/>
  <path d="M9.57031 19.1406Q11.5527 19.1406 13.2861 18.3984Q15.0195 17.6562 16.3379 16.333Q17.6562 15.0098 18.4082 13.2764Q19.1602 11.543 19.1602 9.57031Q19.1602 7.59766 18.4082 5.86426Q17.6562 4.13086 16.3379 2.80762Q15.0195 1.48438 13.2861 0.742188Q11.5527 0 9.57031 0Q7.59766 0 5.86426 0.742188Q4.13086 1.48438 2.81738 2.80762Q1.50391 4.13086 0.751953 5.86426Q0 7.59766 0 9.57031Q0 11.543 0.74707 13.2764Q1.49414 15.0098 2.8125 16.333Q4.13086 17.6562 5.86914 18.3984Q7.60742 19.1406 9.57031 19.1406ZM9.57031 18.3984Q7.74414 18.3984 6.14746 17.71Q4.55078 17.0215 3.33496 15.8105Q2.11914 14.5996 1.43555 12.998Q0.751953 11.3965 0.751953 9.57031Q0.751953 7.74414 1.43555 6.14258Q2.11914 4.54102 3.33496 3.3252Q4.55078 2.10938 6.14746 1.4209Q7.74414 0.732422 9.57031 0.732422Q11.4062 0.732422 13.0029 1.4209Q14.5996 2.10938 15.8154 3.3252Q17.0312 4.54102 17.7197 6.14258Q18.4082 7.74414 18.4082 9.57031Q18.4082 11.3965 17.7246 12.998Q17.041 14.5996 15.8252 15.8105Q14.6094 17.0215 13.0078 17.71Q11.4062 18.3984 9.57031 18.3984Z" fill="rgba(255,255,255,0.5)"/>
  <path d="M5.36133 8.86719Q5.08789 9.0332 4.99023 9.30176Q4.89258 9.57031 4.99023 9.83887Q5.08789 10.1074 5.35156 10.2637L11.0156 13.6816Q11.2695 13.8477 11.5527 13.8184Q11.8359 13.7891 12.0264 13.5986Q12.2168 13.4082 12.2168 13.0957L12.2168 6.00586Q12.2168 5.69336 12.0264 5.50293Q11.8359 5.3125 11.5527 5.2832Q11.2695 5.25391 11.0156 5.41992ZM5.86914 9.39453L11.2012 6.14258Q11.3379 6.05469 11.416 6.09863Q11.4941 6.14258 11.4941 6.2207L11.4941 12.8711Q11.4941 12.9492 11.416 12.998Q11.3379 13.0469 11.2012 12.959L5.86914 9.74609Q5.76172 9.67773 5.76172 9.57031Q5.76172 9.46289 5.86914 9.39453Z" fill="#ffffff"/>
 </g>
</svg>
