<?xml version="1.0" encoding="UTF-8"?>
<!--Generator: Apple Native CoreSVG 175.5-->
<!DOCTYPE svg
PUBLIC "-//W3C//DTD SVG 1.1//EN"
       "http://www.w3.org/Graphics/SVG/1.1/DTD/svg11.dtd">
<svg version="1.1" xmlns="http://www.w3.org/2000/svg" xmlns:xlink="http://www.w3.org/1999/xlink" width="19.5605" height="25.0897">
 <g>
  <rect height="25.0897" opacity="0" width="19.5605" x="0" y="0"/>
  <path d="M7.37305 21.5439L17.0508 21.5439Q18.3105 21.5439 18.9355 20.9286Q19.5605 20.3134 19.5605 19.0341L19.5605 9.3759Q19.5605 8.0966 18.9355 7.48137Q18.3105 6.86613 17.0508 6.86613L7.37305 6.86613Q6.12305 6.86613 5.49316 7.48137Q4.86328 8.0966 4.86328 9.3759L4.86328 19.0341Q4.86328 20.3134 5.49316 20.9286Q6.12305 21.5439 7.37305 21.5439Z" fill="rgba(255,255,255,0.5)"/>
  <path d="M0.605469 8.73137Q0.859375 8.73137 1.04004 8.5507Q1.2207 8.37004 1.2207 8.1259L1.2207 6.67082Q1.2207 5.6259 1.64062 4.82512Q2.06055 4.02434 2.83691 3.57023Q3.61328 3.11613 4.67773 3.11613L4.86328 3.11613L4.86328 4.30754Q4.86328 4.83488 5.20508 4.95695Q5.54688 5.07902 5.95703 4.77629L8.41797 2.97941Q8.73047 2.7548 8.73047 2.50578Q8.73047 2.25676 8.41797 2.02238L5.95703 0.215742Q5.54688-0.0869926 5.20508 0.0350777Q4.86328 0.157148 4.86328 0.694257L4.86328 1.98332L4.66797 1.98332Q3.26172 1.98332 2.21191 2.56926Q1.16211 3.15519 0.581055 4.20988Q0 5.26457 0 6.66105L0 8.1259Q0 8.37004 0.180664 8.5507Q0.361328 8.73137 0.605469 8.73137Z" fill="#ffffff"/>
 </g>
</svg>
