<?xml version="1.0" encoding="UTF-8"?>
<!--Generator: Apple Native CoreSVG 175.5-->
<!DOCTYPE svg
PUBLIC "-//W3C//DTD SVG 1.1//EN"
       "http://www.w3.org/Graphics/SVG/1.1/DTD/svg11.dtd">
<svg version="1.1" xmlns="http://www.w3.org/2000/svg" xmlns:xlink="http://www.w3.org/1999/xlink" width="17.9785" height="17.998">
 <g>
  <rect height="17.998" opacity="0" width="17.9785" x="0" y="0"/>
  <path d="M3.06641 17.998L14.9121 17.998Q16.4453 17.998 17.2119 17.2412Q17.9785 16.4844 17.9785 14.9707L17.9785 3.04688Q17.9785 1.5332 17.2119 0.776367Q16.4453 0.0195312 14.9121 0.0195312L3.06641 0.0195312Q1.5332 0.0195312 0.766602 0.776367Q0 1.5332 0 3.04688L0 14.9707Q0 16.4844 0.766602 17.2412Q1.5332 17.998 3.06641 17.998Z" fill="rgba(255,255,255,0.25)"/>
  <path d="M7.29492 14.0332Q7.00195 14.0332 6.81641 13.8477Q6.63086 13.6621 6.63086 13.3691L6.63086 12.3535L5.74219 12.3535Q5.52734 12.3535 5.39062 12.2119Q5.25391 12.0703 5.25391 11.8555Q5.25391 11.6406 5.39062 11.499Q5.52734 11.3574 5.74219 11.3574L6.63086 11.3574L6.63086 10.3809L5.73242 10.3809Q5.50781 10.3809 5.37598 10.2344Q5.24414 10.0879 5.24414 9.87305Q5.24414 9.6582 5.37598 9.5166Q5.50781 9.375 5.73242 9.375L6.63086 9.375L6.63086 5.04883Q6.63086 4.74609 6.80664 4.56055Q6.98242 4.375 7.28516 4.375L9.67773 4.375Q11.084 4.375 11.9092 5.22461Q12.7344 6.07422 12.7344 7.37305Q12.7344 8.68164 11.9043 9.52637Q11.0742 10.3711 9.66797 10.3711L7.94922 10.3711L7.94922 11.3574L10.293 11.3574Q10.5176 11.3574 10.6494 11.499Q10.7812 11.6406 10.7812 11.8555Q10.7812 12.0703 10.6494 12.2119Q10.5176 12.3535 10.293 12.3535L7.94922 12.3535L7.94922 13.3691Q7.94922 13.6621 7.76855 13.8477Q7.58789 14.0332 7.29492 14.0332ZM7.95898 9.18945L9.44336 9.20898Q10.4102 9.20898 10.9082 8.71582Q11.4062 8.22266 11.4062 7.38281Q11.4062 6.55273 10.9131 6.06934Q10.4199 5.58594 9.44336 5.58594L7.95898 5.58594Z" fill="#ffffff"/>
 </g>
</svg>
