<?xml version="1.0" encoding="UTF-8"?>
<!--Generator: Apple Native CoreSVG 175.5-->
<!DOCTYPE svg
PUBLIC "-//W3C//DTD SVG 1.1//EN"
       "http://www.w3.org/Graphics/SVG/1.1/DTD/svg11.dtd">
<svg version="1.1" xmlns="http://www.w3.org/2000/svg" xmlns:xlink="http://www.w3.org/1999/xlink" width="19.9219" height="19.9316">
 <g>
  <rect height="19.9316" opacity="0" width="19.9219" x="0" y="0"/>
  <path d="M9.96094 19.9219Q12.002 19.9219 13.8037 19.1406Q15.6055 18.3594 16.9824 16.9824Q18.3594 15.6055 19.1406 13.8037Q19.9219 12.002 19.9219 9.96094Q19.9219 7.91992 19.1406 6.11816Q18.3594 4.31641 16.9824 2.93945Q15.6055 1.5625 13.7988 0.78125Q11.9922 0 9.95117 0Q7.91016 0 6.1084 0.78125Q4.30664 1.5625 2.93457 2.93945Q1.5625 4.31641 0.78125 6.11816Q0 7.91992 0 9.96094Q0 12.002 0.78125 13.8037Q1.5625 15.6055 2.93945 16.9824Q4.31641 18.3594 6.11816 19.1406Q7.91992 19.9219 9.96094 19.9219ZM9.96094 18.2617Q8.23242 18.2617 6.72852 17.6172Q5.22461 16.9727 4.08691 15.835Q2.94922 14.6973 2.30957 13.1934Q1.66992 11.6895 1.66992 9.96094Q1.66992 8.23242 2.30957 6.72852Q2.94922 5.22461 4.08203 4.08203Q5.21484 2.93945 6.71875 2.2998Q8.22266 1.66016 9.95117 1.66016Q11.6797 1.66016 13.1885 2.2998Q14.6973 2.93945 15.835 4.08203Q16.9727 5.22461 17.6172 6.72852Q18.2617 8.23242 18.2617 9.96094Q18.2617 11.6895 17.6221 13.1934Q16.9824 14.6973 15.8398 15.835Q14.6973 16.9727 13.1934 17.6172Q11.6895 18.2617 9.96094 18.2617Z" fill="rgba(255,255,255,0.5)"/>
  <path d="M6.96289 14.834Q7.2168 14.834 7.37305 14.668Q7.5293 14.502 7.5293 14.209L7.5293 10.8984L7.97852 10.8984L9.18945 14.4336Q9.32617 14.834 9.73633 14.834Q9.9707 14.834 10.1221 14.668Q10.2734 14.502 10.2734 14.2676Q10.2734 14.1699 10.2539 14.0869Q10.2344 14.0039 10.1953 13.8965L9.05273 10.6641Q9.63867 10.3613 9.96094 9.66309Q10.2832 8.96484 10.2832 8.0957Q10.2832 5.36133 8.125 5.36133L6.98242 5.36133Q6.41602 5.36133 6.41602 6.00586L6.41602 14.1797Q6.41602 14.4824 6.56738 14.6582Q6.71875 14.834 6.96289 14.834ZM7.5293 9.78516L7.5293 6.48438L8.05664 6.48438Q8.61328 6.48438 8.88184 6.89941Q9.15039 7.31445 9.15039 8.125Q9.15039 8.95508 8.87695 9.37012Q8.60352 9.78516 8.02734 9.78516ZM12.3828 14.8438Q13.1934 14.8438 13.6816 14.3018Q14.1699 13.7598 14.1699 12.8516Q14.1699 12.1191 13.8867 11.6455Q13.6035 11.1719 12.8906 10.7812L12.5195 10.5762Q12.1289 10.3613 11.9531 10.127Q11.7773 9.89258 11.7773 9.54102Q11.7773 9.14062 11.9336 8.9209Q12.0898 8.70117 12.373 8.70117Q12.7148 8.70117 12.8418 8.94531Q12.9688 9.18945 13.0078 9.66797Q13.0371 9.95117 13.1641 10.1172Q13.291 10.2832 13.5449 10.2832Q13.7988 10.2832 13.9404 10.1123Q14.082 9.94141 14.082 9.64844Q14.082 9.57031 14.0771 9.50195Q14.0723 9.43359 14.0625 9.36523Q13.9844 8.63281 13.5596 8.13477Q13.1348 7.63672 12.3828 7.63672Q11.6211 7.63672 11.1523 8.16895Q10.6836 8.70117 10.6836 9.58008Q10.6836 10.2832 10.9863 10.7715Q11.2891 11.2598 11.9727 11.6211L12.3633 11.8262Q12.7344 12.0215 12.9004 12.2852Q13.0664 12.5488 13.0664 12.9297Q13.0664 13.7988 12.3828 13.7988Q12.041 13.7988 11.8701 13.54Q11.6992 13.2812 11.6699 12.8223Q11.6406 12.5293 11.5039 12.3682Q11.3672 12.207 11.123 12.207Q10.8691 12.207 10.7324 12.3779Q10.5957 12.5488 10.5957 12.8418Q10.5957 12.9297 10.5957 13.0127Q10.5957 13.0957 10.6055 13.1738Q10.7031 13.9258 11.1621 14.3848Q11.6211 14.8438 12.3828 14.8438Z" fill="#ffffff"/>
 </g>
</svg>
