<?xml version="1.0" encoding="UTF-8"?>
<!--Generator: Apple Native CoreSVG 175-->
<!DOCTYPE svg
PUBLIC "-//W3C//DTD SVG 1.1//EN"
       "http://www.w3.org/Graphics/SVG/1.1/DTD/svg11.dtd">
<svg version="1.1" xmlns="http://www.w3.org/2000/svg" xmlns:xlink="http://www.w3.org/1999/xlink" width="19.1602" height="19.1504">
 <g>
  <rect height="19.1504" opacity="0" width="19.1602" x="0" y="0"/>
  <path d="M9.57031 19.1406Q11.5527 19.1406 13.2861 18.3984Q15.0195 17.6562 16.3379 16.333Q17.6562 15.0098 18.4082 13.2764Q19.1602 11.543 19.1602 9.57031Q19.1602 7.59766 18.4082 5.86426Q17.6562 4.13086 16.3379 2.80762Q15.0195 1.48438 13.2861 0.742188Q11.5527 0 9.57031 0Q7.59766 0 5.86426 0.742188Q4.13086 1.48438 2.81738 2.80762Q1.50391 4.13086 0.751953 5.86426Q0 7.59766 0 9.57031Q0 11.543 0.74707 13.2764Q1.49414 15.0098 2.8125 16.333Q4.13086 17.6562 5.86914 18.3984Q7.60742 19.1406 9.57031 19.1406Z" fill="rgba(255,255,255,0.25)"/>
  <path d="M9.53125 14.0625Q8.33008 14.0625 7.48047 13.5205Q6.63086 12.9785 6.43555 12.1387Q6.37695 11.9336 6.37695 11.8066Q6.37695 11.6211 6.47461 11.5283Q6.57227 11.4355 6.73828 11.4355Q7.02148 11.4355 7.11914 11.7676Q7.27539 12.5 7.96387 12.9443Q8.65234 13.3887 9.61914 13.3887Q10.2637 13.3887 10.8154 13.1494Q11.3672 12.9102 11.7041 12.5049Q12.041 12.0996 12.041 11.6113Q12.041 10.9863 11.5967 10.625Q11.1523 10.2637 10.0879 9.99023L8.71094 9.62891Q7.62695 9.3457 7.11914 8.83789Q6.61133 8.33008 6.61133 7.49023Q6.61133 6.42578 7.45605 5.74219Q8.30078 5.05859 9.64844 5.05859Q10.791 5.05859 11.5869 5.56152Q12.3828 6.06445 12.5781 6.9043Q12.627 7.08984 12.627 7.23633Q12.627 7.42188 12.5391 7.50977Q12.4512 7.59766 12.2754 7.59766Q12.1289 7.59766 12.041 7.51953Q11.9531 7.44141 11.9043 7.27539Q11.7578 6.5625 11.1377 6.1377Q10.5176 5.71289 9.62891 5.71289Q9.00391 5.71289 8.49121 5.95703Q7.97852 6.20117 7.67578 6.61133Q7.37305 7.02148 7.37305 7.50977Q7.37305 8.04688 7.76367 8.38867Q8.1543 8.73047 9.0332 8.97461L10.3809 9.33594Q11.6602 9.67773 12.2314 10.1904Q12.8027 10.7031 12.8027 11.543Q12.8027 12.6855 11.9092 13.374Q11.0156 14.0625 9.53125 14.0625Z" fill="#ffffff"/>
 </g>
</svg>
