<?xml version="1.0" encoding="UTF-8"?>
<!--Generator: Apple Native CoreSVG 175.5-->
<!DOCTYPE svg
PUBLIC "-//W3C//DTD SVG 1.1//EN"
       "http://www.w3.org/Graphics/SVG/1.1/DTD/svg11.dtd">
<svg version="1.1" xmlns="http://www.w3.org/2000/svg" xmlns:xlink="http://www.w3.org/1999/xlink" width="19.9219" height="19.9316">
 <g>
  <rect height="19.9316" opacity="0" width="19.9219" x="0" y="0"/>
  <path d="M9.96094 19.9219Q12.002 19.9219 13.8037 19.1406Q15.6055 18.3594 16.9824 16.9824Q18.3594 15.6055 19.1406 13.8037Q19.9219 12.002 19.9219 9.96094Q19.9219 7.91992 19.1406 6.11816Q18.3594 4.31641 16.9824 2.93945Q15.6055 1.5625 13.7988 0.78125Q11.9922 0 9.95117 0Q7.91016 0 6.1084 0.78125Q4.30664 1.5625 2.93457 2.93945Q1.5625 4.31641 0.78125 6.11816Q0 7.91992 0 9.96094Q0 12.002 0.78125 13.8037Q1.5625 15.6055 2.93945 16.9824Q4.31641 18.3594 6.11816 19.1406Q7.91992 19.9219 9.96094 19.9219ZM9.96094 18.2617Q8.23242 18.2617 6.72852 17.6172Q5.22461 16.9727 4.08691 15.835Q2.94922 14.6973 2.30957 13.1934Q1.66992 11.6895 1.66992 9.96094Q1.66992 8.23242 2.30957 6.72852Q2.94922 5.22461 4.08203 4.08203Q5.21484 2.93945 6.71875 2.2998Q8.22266 1.66016 9.95117 1.66016Q11.6797 1.66016 13.1885 2.2998Q14.6973 2.93945 15.835 4.08203Q16.9727 5.22461 17.6172 6.72852Q18.2617 8.23242 18.2617 9.96094Q18.2617 11.6895 17.6221 13.1934Q16.9824 14.6973 15.8398 15.835Q14.6973 16.9727 13.1934 17.6172Q11.6895 18.2617 9.96094 18.2617Z" fill="rgba(255,255,255,0.5)"/>
  <path d="M9.85352 14.541Q11.4941 14.541 12.4805 13.7988Q13.4668 13.0566 13.4668 11.7969Q13.4668 10.8301 12.7881 10.2588Q12.1094 9.6875 10.8203 9.33594L9.51172 8.98438Q8.80859 8.79883 8.49609 8.51562Q8.18359 8.23242 8.18359 7.7832Q8.18359 7.37305 8.39355 7.0752Q8.60352 6.77734 8.98926 6.61133Q9.375 6.44531 9.89258 6.44531Q10.6348 6.44531 11.1084 6.73828Q11.582 7.03125 11.8262 7.64648Q11.9336 7.88086 12.1045 8.0127Q12.2754 8.14453 12.5488 8.14453Q12.8516 8.14453 13.0469 7.97363Q13.2422 7.80273 13.2422 7.4707Q13.2422 7.27539 13.1445 7.00195Q12.8711 6.23047 12.0361 5.71777Q11.2012 5.20508 9.95117 5.20508Q8.45703 5.20508 7.50977 5.95703Q6.5625 6.70898 6.5625 7.87109Q6.5625 8.79883 7.15332 9.35547Q7.74414 9.91211 8.87695 10.2246L10.293 10.625Q11.1621 10.8691 11.5088 11.1426Q11.8555 11.416 11.8555 11.9238Q11.8555 12.3535 11.6016 12.6562Q11.3477 12.959 10.918 13.1152Q10.4883 13.2715 9.95117 13.2715Q9.17969 13.2715 8.65234 12.9736Q8.125 12.6758 7.87109 12.0898Q7.61719 11.5625 7.13867 11.5625Q6.81641 11.5625 6.62598 11.7529Q6.43555 11.9434 6.43555 12.2656Q6.43555 12.5 6.54297 12.7441Q6.80664 13.4473 7.66113 13.9941Q8.51562 14.541 9.85352 14.541Z" fill="#ffffff"/>
 </g>
</svg>
