<?xml version="1.0" encoding="UTF-8"?>
<!--Generator: Apple Native CoreSVG 175.5-->
<!DOCTYPE svg
PUBLIC "-//W3C//DTD SVG 1.1//EN"
       "http://www.w3.org/Graphics/SVG/1.1/DTD/svg11.dtd">
<svg version="1.1" xmlns="http://www.w3.org/2000/svg" xmlns:xlink="http://www.w3.org/1999/xlink" width="25.0293" height="19.5801">
 <g>
  <rect height="19.5801" opacity="0" width="25.0293" x="0" y="0"/>
  <path d="M3.92578 19.5801Q5.01953 19.5801 5.91309 19.0479Q6.80664 18.5156 7.33887 17.6172Q7.87109 16.7188 7.87109 15.6152Q7.87109 15.2148 7.90527 14.9463Q7.93945 14.6777 8.07129 14.4971Q8.20312 14.3164 8.50586 14.1602L25.0293 5.38086Q24.7266 4.28711 23.5791 4.08203Q22.4316 3.87695 20.6055 4.53125L12.2656 7.5293Q11.3867 7.8418 10.9473 8.32031Q10.5078 8.79883 10.2734 9.60938L10.0781 10.3223Q9.9707 10.7031 9.74121 10.9424Q9.51172 11.1816 8.93555 11.4746L7.42188 12.2754Q7.09961 12.4414 6.85547 12.4414Q6.54297 12.4414 6.29883 12.3242Q6.05469 12.207 5.7666 12.0557Q5.47852 11.9043 5.04395 11.792Q4.60938 11.6797 3.92578 11.6797Q2.83203 11.6797 1.94336 12.207Q1.05469 12.7344 0.527344 13.6279Q0 14.5215 0 15.6152Q0 16.7188 0.527344 17.6172Q1.05469 18.5156 1.94336 19.0479Q2.83203 19.5801 3.92578 19.5801ZM3.92578 17.9785Q3.28125 17.9785 2.75391 17.6611Q2.22656 17.3438 1.91406 16.8066Q1.60156 16.2695 1.60156 15.6152Q1.60156 14.9707 1.91406 14.4385Q2.22656 13.9062 2.75391 13.5889Q3.28125 13.2715 3.92578 13.2715Q4.58008 13.2715 5.1123 13.5889Q5.64453 13.9062 5.96191 14.4385Q6.2793 14.9707 6.2793 15.6152Q6.2793 16.2695 5.96191 16.8066Q5.64453 17.3438 5.1123 17.6611Q4.58008 17.9785 3.92578 17.9785ZM12.4805 10.3613Q12.1582 10.3613 11.9141 10.1221Q11.6699 9.88281 11.6699 9.55078Q11.6699 9.19922 11.9141 8.96484Q12.1582 8.73047 12.4805 8.73047Q12.8223 8.73047 13.0713 8.96484Q13.3203 9.19922 13.3203 9.55078Q13.3203 9.89258 13.0713 10.127Q12.8223 10.3613 12.4805 10.3613ZM3.92578 8.4668Q4.60938 8.4668 5.04395 8.34961Q5.47852 8.23242 5.7666 8.08594Q6.05469 7.93945 6.30371 7.82715Q6.55273 7.71484 6.85547 7.71484Q7.09961 7.71484 7.42188 7.87109L9.07227 8.75Q9.22852 8.82812 9.35059 8.90137Q9.47266 8.97461 9.57031 9.04297L9.62891 9.04297Q9.80469 8.42773 10.0928 8.0127Q10.3809 7.59766 10.8398 7.30469L10.8398 7.24609L8.62305 6.06445Q8.27148 5.87891 8.11523 5.68848Q7.95898 5.49805 7.91504 5.22461Q7.87109 4.95117 7.87109 4.52148Q7.87109 3.41797 7.33887 2.51953Q6.80664 1.62109 5.91309 1.08887Q5.01953 0.556641 3.92578 0.556641Q2.83203 0.556641 1.94336 1.09375Q1.05469 1.63086 0.527344 2.5293Q0 3.42773 0 4.52148Q0 5.61523 0.527344 6.50879Q1.05469 7.40234 1.94336 7.93457Q2.83203 8.4668 3.92578 8.4668ZM3.92578 6.875Q3.28125 6.875 2.75391 6.55273Q2.22656 6.23047 1.91406 5.69824Q1.60156 5.16602 1.60156 4.52148Q1.60156 3.85742 1.91406 3.3252Q2.22656 2.79297 2.75391 2.47559Q3.28125 2.1582 3.92578 2.1582Q4.58008 2.1582 5.1123 2.47559Q5.64453 2.79297 5.96191 3.3252Q6.2793 3.85742 6.2793 4.52148Q6.2793 5.16602 5.96191 5.69824Q5.64453 6.23047 5.1123 6.55273Q4.58008 6.875 3.92578 6.875ZM20.6055 15.6348Q22.4414 16.3184 23.584 16.0938Q24.7266 15.8691 25.0293 14.7461L17.0801 10.5469L13.0469 12.666L13.0469 12.7832Z" fill="#ffffff"/>
 </g>
</svg>
