<?xml version="1.0" encoding="UTF-8"?>
<!--Generator: Apple Native CoreSVG 175.5-->
<!DOCTYPE svg
PUBLIC "-//W3C//DTD SVG 1.1//EN"
       "http://www.w3.org/Graphics/SVG/1.1/DTD/svg11.dtd">
<svg version="1.1" xmlns="http://www.w3.org/2000/svg" xmlns:xlink="http://www.w3.org/1999/xlink" width="23.7305" height="16.9434">
 <g>
  <rect height="16.9434" opacity="0" width="23.7305" x="0" y="0"/>
  <path d="M3.06641 16.9336L13.6035 16.9336Q15.1367 16.9336 15.9033 16.1719Q16.6699 15.4102 16.6699 13.9062L16.6699 3.02734Q16.6699 1.51367 15.9033 0.756836Q15.1367 0 13.6035 0L3.06641 0Q1.5332 0 0.766602 0.756836Q0 1.51367 0 3.02734L0 13.9062Q0 15.4199 0.766602 16.1768Q1.5332 16.9336 3.06641 16.9336ZM7.80273 9.01367Q7.53906 9.01367 7.36328 8.83789Q7.1875 8.66211 7.1875 8.39844L7.1875 3.64258Q7.1875 3.37891 7.36328 3.20312Q7.53906 3.02734 7.80273 3.02734Q8.06641 3.02734 8.24219 3.20312Q8.41797 3.37891 8.41797 3.64258L8.41797 8.39844Q8.41797 8.66211 8.24219 8.83789Q8.06641 9.01367 7.80273 9.01367ZM10.3613 9.01367Q10.1074 9.01367 9.93164 8.83789Q9.75586 8.66211 9.75586 8.39844L9.75586 3.64258Q9.75586 3.37891 9.93164 3.20312Q10.1074 3.02734 10.3613 3.02734Q10.625 3.02734 10.8008 3.20312Q10.9766 3.37891 10.9766 3.64258L10.9766 8.39844Q10.9766 8.66211 10.8008 8.83789Q10.625 9.01367 10.3613 9.01367ZM12.9297 9.01367Q12.666 9.01367 12.4902 8.83789Q12.3145 8.66211 12.3145 8.39844L12.3145 3.64258Q12.3145 3.37891 12.4902 3.20312Q12.666 3.02734 12.9297 3.02734Q13.1934 3.02734 13.3691 3.20312Q13.5449 3.37891 13.5449 3.64258L13.5449 8.39844Q13.5449 8.66211 13.3691 8.83789Q13.1934 9.01367 12.9297 9.01367Z" fill="#ffffff"/>
  <path d="M18.5645 9.01367Q18.7598 9.24805 19.0771 9.24316Q19.3945 9.23828 19.6191 8.94531Q20.0879 8.33008 20.3516 7.58301Q20.6152 6.83594 20.6152 6.01562Q20.6152 5.19531 20.3516 4.44336Q20.0879 3.69141 19.6191 3.08594Q19.4043 2.79297 19.0869 2.78809Q18.7695 2.7832 18.5742 3.00781Q18.3691 3.22266 18.418 3.48633Q18.4668 3.75 18.6523 4.01367Q18.9648 4.45312 19.1211 4.96094Q19.2773 5.46875 19.2773 6.01562Q19.2773 6.5625 19.1211 7.06543Q18.9648 7.56836 18.6523 8.01758Q18.4668 8.27148 18.4131 8.53027Q18.3594 8.78906 18.5645 9.01367Z" fill="rgba(255,255,255,0.5)"/>
  <path d="M20.8008 11.123Q21.0059 11.3574 21.3086 11.3525Q21.6113 11.3477 21.8457 11.084Q22.7637 10.0586 23.2471 8.75977Q23.7305 7.46094 23.7305 6.01562Q23.7305 4.56055 23.2471 3.26172Q22.7637 1.96289 21.8457 0.9375Q21.6211 0.683594 21.3184 0.673828Q21.0156 0.664062 20.8203 0.888672Q20.6152 1.11328 20.6494 1.38672Q20.6836 1.66016 20.9082 1.91406Q22.3926 3.60352 22.3926 6.01562Q22.3926 8.41797 20.9082 10.1074Q20.6934 10.3613 20.6543 10.6299Q20.6152 10.8984 20.8008 11.123Z" fill="rgba(255,255,255,0.5)"/>
 </g>
</svg>
