<?xml version="1.0" encoding="UTF-8"?>
<!--Generator: Apple Native CoreSVG 175.5-->
<!DOCTYPE svg
PUBLIC "-//W3C//DTD SVG 1.1//EN"
       "http://www.w3.org/Graphics/SVG/1.1/DTD/svg11.dtd">
<svg version="1.1" xmlns="http://www.w3.org/2000/svg" xmlns:xlink="http://www.w3.org/1999/xlink" width="19.7461" height="20.2441">
 <g>
  <rect height="20.2441" opacity="0" width="19.7461" x="0" y="0"/>
  <path d="M2.26562 12.0508Q2.26562 13.3887 2.65625 14.375Q3.04688 15.3613 3.91602 16.2109Q4.78516 17.0605 6.21582 17.9688Q7.64648 18.877 9.72656 20.0488Q9.91211 20.1465 10.0879 20.1953Q10.2637 20.2441 10.3809 20.2441Q10.498 20.2441 10.6738 20.1953Q10.8496 20.1465 11.0352 20.0488Q12.1777 19.4043 13.1201 18.8525Q14.0625 18.3008 14.8145 17.8027L13.623 16.6016Q13.0762 16.9629 12.4219 17.3633Q11.7676 17.7637 10.9863 18.2422Q10.7715 18.3691 10.6348 18.4229Q10.498 18.4766 10.3809 18.4766Q10.2637 18.4766 10.127 18.4229Q9.99023 18.3691 9.77539 18.2422Q8.08594 17.2168 6.93848 16.4795Q5.79102 15.7422 5.10742 15.0732Q4.42383 14.4043 4.12109 13.6133Q3.81836 12.8223 3.81836 11.6895L3.81836 6.79688L2.26562 5.25391ZM17.666 15.2148Q18.1055 14.5508 18.3008 13.7842Q18.4961 13.0176 18.4961 12.0508L18.4961 4.58008Q18.4961 3.80859 18.1738 3.47656Q17.8516 3.14453 17.2266 2.88086Q16.8848 2.73438 16.2793 2.50488Q15.6738 2.27539 14.9463 2.00684Q14.2188 1.73828 13.4863 1.47461Q12.7539 1.21094 12.1484 0.996094Q11.543 0.78125 11.2012 0.664062Q11.0059 0.605469 10.7959 0.561523Q10.5859 0.517578 10.3809 0.517578Q10.1758 0.517578 9.9707 0.566406Q9.76562 0.615234 9.57031 0.664062Q9.12109 0.810547 8.31543 1.09375Q7.50977 1.37695 6.58203 1.71875Q5.6543 2.06055 4.83398 2.37305L6.05469 3.60352Q6.5625 3.41797 7.09961 3.22266Q7.63672 3.02734 8.16406 2.83691Q8.69141 2.64648 9.16016 2.47559Q9.62891 2.30469 9.99023 2.17773Q10.1074 2.12891 10.2051 2.10938Q10.3027 2.08984 10.3809 2.08984Q10.459 2.08984 10.5566 2.10938Q10.6543 2.12891 10.7715 2.17773Q11.2207 2.33398 11.8066 2.55371Q12.3926 2.77344 13.042 3.0127Q13.6914 3.25195 14.3408 3.49121Q14.9902 3.73047 15.5762 3.94531Q16.1621 4.16016 16.6211 4.31641Q16.8164 4.38477 16.8799 4.51172Q16.9434 4.63867 16.9434 4.88281L16.9434 11.6895Q16.9434 12.4023 16.8262 12.9639Q16.709 13.5254 16.4453 13.9941Z" fill="rgba(255,255,255,0.5)"/>
  <path d="M18.457 19.7852Q18.6816 20.0098 18.9941 20.0098Q19.3066 20.0098 19.5215 19.7852Q19.7461 19.5703 19.7461 19.2578Q19.7461 18.9453 19.5215 18.7207L1.28906 0.498047Q1.06445 0.273438 0.751953 0.273438Q0.439453 0.273438 0.214844 0.498047Q0 0.703125 0 1.02539Q0 1.34766 0.214844 1.5625Z" fill="#ffffff"/>
 </g>
</svg>
