<?xml version="1.0" encoding="UTF-8"?>
<!--Generator: Apple Native CoreSVG 175.5-->
<!DOCTYPE svg
PUBLIC "-//W3C//DTD SVG 1.1//EN"
       "http://www.w3.org/Graphics/SVG/1.1/DTD/svg11.dtd">
<svg version="1.1" xmlns="http://www.w3.org/2000/svg" xmlns:xlink="http://www.w3.org/1999/xlink" width="19.9219" height="19.9316">
 <g>
  <rect height="19.9316" opacity="0" width="19.9219" x="0" y="0"/>
  <path d="M9.96094 19.9219Q12.002 19.9219 13.8037 19.1406Q15.6055 18.3594 16.9824 16.9824Q18.3594 15.6055 19.1406 13.8037Q19.9219 12.002 19.9219 9.96094Q19.9219 7.91992 19.1406 6.11816Q18.3594 4.31641 16.9824 2.93945Q15.6055 1.5625 13.7988 0.78125Q11.9922 0 9.95117 0Q7.91016 0 6.1084 0.78125Q4.30664 1.5625 2.93457 2.93945Q1.5625 4.31641 0.78125 6.11816Q0 7.91992 0 9.96094Q0 12.002 0.78125 13.8037Q1.5625 15.6055 2.93945 16.9824Q4.31641 18.3594 6.11816 19.1406Q7.91992 19.9219 9.96094 19.9219Z" fill="rgba(255,255,255,0.25)"/>
  <path d="M10.3223 15.6836L10.3223 10.2832L15.2539 7.46094Q15.3027 7.61719 15.3027 7.86133L15.3027 11.9629Q15.3027 12.5293 15.1025 12.7979Q14.9023 13.0664 14.5508 13.2812L10.4199 15.6348Q10.4004 15.6445 10.376 15.6592Q10.3516 15.6738 10.3223 15.6836ZM9.60938 15.6836Q9.58008 15.6738 9.55566 15.6592Q9.53125 15.6445 9.50195 15.6348L5.38086 13.2812Q5.01953 13.0664 4.8291 12.7979Q4.63867 12.5293 4.63867 11.9629L4.63867 7.86133Q4.63867 7.75391 4.64355 7.65137Q4.64844 7.54883 4.67773 7.46094L9.60938 10.2832ZM9.96094 9.6582L5.00977 6.8457Q5.06836 6.78711 5.1416 6.7334Q5.21484 6.67969 5.30273 6.64062L7.23633 5.53711L12.207 8.37891ZM12.9492 7.96875L7.94922 5.12695L9.01367 4.52148Q9.49219 4.23828 9.96094 4.23828Q10.4395 4.23828 10.918 4.52148L14.6289 6.64062Q14.834 6.74805 14.9219 6.8457Z" fill="#ffffff"/>
 </g>
</svg>
