<?xml version="1.0" encoding="UTF-8"?>
<!--Generator: Apple Native CoreSVG 175.5-->
<!DOCTYPE svg
PUBLIC "-//W3C//DTD SVG 1.1//EN"
       "http://www.w3.org/Graphics/SVG/1.1/DTD/svg11.dtd">
<svg version="1.1" xmlns="http://www.w3.org/2000/svg" xmlns:xlink="http://www.w3.org/1999/xlink" width="23.0078" height="13.4575">
 <g>
  <rect height="13.4575" opacity="0" width="23.0078" x="0" y="0"/>
  <path d="M1.80664 10.8449Q2.93945 10.8449 3.54492 10.1565Q4.15039 9.46799 4.15039 8.18869L4.15039 5.259Q4.15039 3.9797 3.54492 3.29123Q2.93945 2.60275 1.80664 2.60275L0.908203 2.60275Q0.478516 2.60275 0.239258 2.84201Q0 3.08127 0 3.51095L0 9.93674Q0 10.3664 0.239258 10.6057Q0.478516 10.8449 0.908203 10.8449ZM1.80664 9.62424L1.38672 9.62424Q1.2207 9.62424 1.2207 9.44845L1.2207 3.99924Q1.2207 3.82345 1.38672 3.82345L1.80664 3.82345Q2.35352 3.82345 2.6416 4.19943Q2.92969 4.57541 2.92969 5.259L2.92969 8.18869Q2.92969 8.88205 2.6416 9.25314Q2.35352 9.62424 1.80664 9.62424ZM11.6504 12.7199Q12.3047 12.7199 12.6904 12.3342Q13.0762 11.9485 13.0762 11.2942L13.0762 2.15353Q13.0762 1.49924 12.6904 1.11349Q12.3047 0.727751 11.6504 0.727751L9.49219 0.727751Q8.22266 0.727751 7.2998 1.23068Q6.37695 1.73361 5.87891 2.65646Q5.38086 3.57931 5.38086 4.84885L5.38086 8.60861Q5.38086 9.86838 5.87891 10.7912Q6.37695 11.7141 7.2998 12.217Q8.22266 12.7199 9.49219 12.7199ZM11.3867 11.343L9.49219 11.343Q8.23242 11.343 7.49512 10.6008Q6.75781 9.85861 6.75781 8.60861L6.75781 4.84885Q6.75781 3.58908 7.49512 2.85177Q8.23242 2.11447 9.49219 2.11447L11.3867 2.11447Q11.5234 2.11447 11.6113 2.19748Q11.6992 2.28049 11.6992 2.4172L11.6992 11.0403Q11.6992 11.177 11.6113 11.26Q11.5234 11.343 11.3867 11.343ZM15.0195 8.91135L15.0195 4.54611Q15.0195 3.55002 14.5068 2.97873Q13.9941 2.40744 13.125 2.40744L12.627 2.40744L12.627 11.0403L13.125 11.0403Q13.9941 11.0403 14.5068 10.469Q15.0195 9.89767 15.0195 8.91135ZM6.24023 8.94064L6.24023 7.56369L3.61328 7.56369L3.61328 8.94064ZM6.24023 5.78635L6.24023 4.40939L3.61328 4.40939L3.61328 5.78635Z" fill="#ffffff"/>
  <path d="M17.5879 10.5813Q17.7246 10.3176 17.6367 10.0344Q17.5488 9.75119 17.2852 9.6047Q17.0117 9.46799 16.7334 9.55588Q16.4551 9.64377 16.3086 9.9172Q16.1719 10.1906 16.2598 10.4641Q16.3477 10.7375 16.6211 10.884Q16.8848 11.0207 17.168 10.9328Q17.4512 10.8449 17.5879 10.5813ZM17.666 6.71408Q17.666 6.41135 17.4512 6.20627Q17.2363 6.00119 16.9434 6.00119Q16.6406 6.00119 16.4355 6.20627Q16.2305 6.41135 16.2305 6.71408Q16.2305 7.01681 16.4355 7.22677Q16.6406 7.43674 16.9434 7.43674Q17.2363 7.43674 17.4512 7.22677Q17.666 7.01681 17.666 6.71408ZM17.5879 2.85666Q17.4512 2.60275 17.168 2.51486Q16.8848 2.42697 16.6211 2.56369Q16.3477 2.70041 16.2598 2.97873Q16.1719 3.25705 16.3086 3.52072Q16.4551 3.79416 16.7334 3.88693Q17.0117 3.9797 17.2852 3.83322Q17.5488 3.6965 17.6367 3.4133Q17.7246 3.1301 17.5879 2.85666Z" fill="rgba(255,255,255,0.5)"/>
  <path d="M19.9609 11.8215Q20.0977 11.5578 20.0049 11.2697Q19.9121 10.9817 19.6484 10.8449Q19.3848 10.7082 19.1016 10.801Q18.8184 10.8938 18.6816 11.1574Q18.5449 11.4211 18.6328 11.7043Q18.7207 11.9875 18.9844 12.1242Q19.248 12.261 19.5312 12.1731Q19.8145 12.0852 19.9609 11.8215ZM20.332 6.71408Q20.332 6.41135 20.1221 6.20627Q19.9121 6.00119 19.6094 6.00119Q19.3066 6.00119 19.1016 6.20627Q18.8965 6.41135 18.8965 6.71408Q18.8965 7.01681 19.1016 7.22677Q19.3066 7.43674 19.6094 7.43674Q19.9121 7.43674 20.1221 7.22677Q20.332 7.01681 20.332 6.71408ZM19.9609 1.62619Q19.8145 1.36252 19.5312 1.27463Q19.248 1.18674 18.9844 1.32345Q18.7207 1.46017 18.6328 1.74338Q18.5449 2.02658 18.6816 2.29025Q18.8184 2.55392 19.1016 2.64181Q19.3848 2.7297 19.6484 2.60275Q19.9121 2.46603 20.0049 2.17795Q20.0977 1.88986 19.9609 1.62619Z" fill="rgba(255,255,255,0.5)"/>
  <path d="M22.3145 13.0617Q22.4609 12.7981 22.3682 12.51Q22.2754 12.2219 22.0117 12.0852Q21.7383 11.9485 21.4648 12.0412Q21.1914 12.134 21.0449 12.3977Q20.9082 12.6613 20.9961 12.9445Q21.084 13.2278 21.3574 13.3645Q21.6211 13.5012 21.8994 13.4133Q22.1777 13.3254 22.3145 13.0617ZM23.0078 6.71408Q23.0078 6.41135 22.7979 6.20627Q22.5879 6.00119 22.2852 6.00119Q21.9824 6.00119 21.7773 6.20627Q21.5723 6.41135 21.5723 6.71408Q21.5723 7.01681 21.7773 7.22677Q21.9824 7.43674 22.2852 7.43674Q22.5879 7.43674 22.7979 7.22677Q23.0078 7.01681 23.0078 6.71408ZM22.3145 0.385954Q22.1777 0.122283 21.8994 0.034392Q21.6211-0.0534986 21.3574 0.0832201Q21.084 0.219939 20.9961 0.498259Q20.9082 0.776579 21.0449 1.05002Q21.1914 1.31369 21.4648 1.40646Q21.7383 1.49924 22.0117 1.36252Q22.2754 1.21603 22.3682 0.932829Q22.4609 0.649626 22.3145 0.385954Z" fill="rgba(255,255,255,0.5)"/>
 </g>
</svg>
