<?xml version="1.0" encoding="UTF-8"?>
<!--Generator: Apple Native CoreSVG 175.5-->
<!DOCTYPE svg
PUBLIC "-//W3C//DTD SVG 1.1//EN"
       "http://www.w3.org/Graphics/SVG/1.1/DTD/svg11.dtd">
<svg version="1.1" xmlns="http://www.w3.org/2000/svg" xmlns:xlink="http://www.w3.org/1999/xlink" width="23.1543" height="21.5918">
 <g>
  <rect height="21.5918" opacity="0" width="23.1543" x="0" y="0"/>
  <path d="M0 14.6973Q0 15.3027 0.297852 15.8008Q0.595703 16.2988 1.08887 16.5918Q1.58203 16.8848 2.1875 16.8848Q2.82227 16.8848 3.34961 16.5381Q3.87695 16.1914 4.14062 15.6543L18.8672 19.9609Q19.043 20.6641 19.6289 21.1279Q20.2148 21.5918 20.9766 21.5918Q21.5723 21.5918 22.0654 21.2988Q22.5586 21.0059 22.8564 20.5078Q23.1543 20.0098 23.1543 19.4141Q23.1543 18.7305 22.7734 18.1885Q22.3926 17.6465 21.8066 17.4023L21.3867 7.55859Q22.0215 7.34375 22.4268 6.78711Q22.832 6.23047 22.832 5.51758Q22.832 4.92188 22.5391 4.42383Q22.2461 3.92578 21.7529 3.63281Q21.2598 3.33984 20.6641 3.33984Q20.0586 3.33984 19.5654 3.63281Q19.0723 3.92578 18.7793 4.39453L10.6445 2.16797Q10.6348 1.57227 10.3369 1.08887Q10.0391 0.605469 9.55078 0.317383Q9.0625 0.0292969 8.47656 0.0292969Q7.87109 0.0292969 7.37305 0.327148Q6.875 0.625 6.58203 1.11816Q6.28906 1.61133 6.28906 2.2168Q6.28906 2.69531 6.48926 3.12012Q6.68945 3.54492 7.02148 3.84766L2.49023 12.5586Q2.34375 12.5195 2.1875 12.5195Q1.58203 12.5195 1.08887 12.8125Q0.595703 13.1055 0.297852 13.6035Q0 14.1016 0 14.6973ZM3.76953 13.2129L8.31055 4.36523Q8.69141 4.41406 9.04785 4.31641Q9.4043 4.21875 9.70215 4.00879Q10 3.79883 10.1953 3.49609L18.5254 5.78125Q18.5742 6.41602 18.9893 6.92383Q19.4043 7.43164 20.0195 7.60742L20.3613 17.3145Q19.8828 17.4512 19.5068 17.793Q19.1309 18.1348 18.9551 18.5938L4.29688 14.2871Q4.24805 13.9746 4.12109 13.7109Q3.99414 13.4473 3.76953 13.2129Z" fill="#ffffff"/>
 </g>
</svg>
