<?xml version="1.0" encoding="UTF-8"?>
<!--Generator: Apple Native CoreSVG 175.5-->
<!DOCTYPE svg
PUBLIC "-//W3C//DTD SVG 1.1//EN"
       "http://www.w3.org/Graphics/SVG/1.1/DTD/svg11.dtd">
<svg version="1.1" xmlns="http://www.w3.org/2000/svg" xmlns:xlink="http://www.w3.org/1999/xlink" width="18.0664" height="24.0723">
 <g>
  <rect height="24.0723" opacity="0" width="18.0664" x="0" y="0"/>
  <path d="M10.3809 22.2754Q10.5762 22.2754 10.7031 22.1533Q10.8301 22.0312 10.8691 21.8262Q11.0742 20.2246 11.333 19.1211Q11.5918 18.0176 12.0166 17.3047Q12.4414 16.5918 13.1445 16.167Q13.8477 15.7422 14.9316 15.498Q16.0156 15.2539 17.6074 15.0781Q17.8125 15.0586 17.9395 14.9219Q18.0664 14.7852 18.0664 14.5898Q18.0664 14.4043 17.9395 14.2676Q17.8125 14.1309 17.6074 14.1113Q16.0156 13.9355 14.9316 13.6914Q13.8477 13.4473 13.1445 13.0176Q12.4414 12.5879 12.0166 11.875Q11.5918 11.1621 11.333 10.0635Q11.0742 8.96484 10.8691 7.35352Q10.8301 7.1582 10.7031 7.03613Q10.5762 6.91406 10.3809 6.91406Q10.1953 6.91406 10.0635 7.03613Q9.93164 7.1582 9.90234 7.35352Q9.69727 8.96484 9.43848 10.0635Q9.17969 11.1621 8.75 11.875Q8.32031 12.5879 7.61719 13.0176Q6.91406 13.4473 5.83008 13.6914Q4.74609 13.9355 3.16406 14.1113Q2.94922 14.1309 2.82227 14.2676Q2.69531 14.4043 2.69531 14.5898Q2.69531 14.7852 2.82227 14.9219Q2.94922 15.0586 3.16406 15.0781Q4.74609 15.2832 5.8252 15.542Q6.9043 15.8008 7.60254 16.2207Q8.30078 16.6406 8.73047 17.3438Q9.16016 18.0469 9.41895 19.1357Q9.67773 20.2246 9.90234 21.8262Q9.93164 22.0312 10.0635 22.1533Q10.1953 22.2754 10.3809 22.2754ZM3.75977 11.4746Q3.89648 11.4746 3.98438 11.3867Q4.07227 11.2988 4.0918 11.1719Q4.21875 10.1953 4.35547 9.64844Q4.49219 9.10156 4.78027 8.82324Q5.06836 8.54492 5.63965 8.39355Q6.21094 8.24219 7.22656 8.04688Q7.51953 7.98828 7.51953 7.71484Q7.51953 7.57812 7.43652 7.49023Q7.35352 7.40234 7.22656 7.39258Q6.21094 7.24609 5.63477 7.10938Q5.05859 6.97266 4.77051 6.68457Q4.48242 6.39648 4.35059 5.83008Q4.21875 5.26367 4.0918 4.27734Q4.05273 3.96484 3.75977 3.96484Q3.4668 3.96484 3.42773 4.28711Q3.31055 5.26367 3.17383 5.80566Q3.03711 6.34766 2.74414 6.62109Q2.45117 6.89453 1.875 7.0459Q1.29883 7.19727 0.292969 7.39258Q0 7.44141 0 7.71484Q0 7.99805 0.332031 8.04688Q1.32812 8.21289 1.89941 8.35938Q2.4707 8.50586 2.75879 8.78418Q3.04688 9.0625 3.17871 9.61914Q3.31055 10.1758 3.42773 11.1523Q3.4668 11.4746 3.75977 11.4746ZM8.48633 4.75586Q8.66211 4.75586 8.70117 4.56055Q8.80859 3.96484 8.89648 3.62305Q8.98438 3.28125 9.15527 3.10059Q9.32617 2.91992 9.67773 2.8125Q10.0293 2.70508 10.6641 2.59766Q10.8594 2.55859 10.8594 2.37305Q10.8594 2.19727 10.6641 2.1582Q10.0293 2.04102 9.67773 1.93848Q9.32617 1.83594 9.15527 1.65527Q8.98438 1.47461 8.89648 1.13281Q8.80859 0.791016 8.70117 0.195312Q8.66211 0 8.48633 0Q8.30078 0 8.27148 0.195312Q8.1543 0.791016 8.07129 1.13281Q7.98828 1.47461 7.81738 1.65527Q7.64648 1.83594 7.29492 1.93848Q6.94336 2.04102 6.30859 2.1582Q6.11328 2.19727 6.11328 2.37305Q6.11328 2.55859 6.30859 2.59766Q6.94336 2.70508 7.29492 2.8125Q7.64648 2.91992 7.81738 3.10059Q7.98828 3.28125 8.07129 3.62305Q8.1543 3.96484 8.27148 4.56055Q8.30078 4.75586 8.48633 4.75586Z" fill="#ffffff"/>
 </g>
</svg>
