<?xml version="1.0" encoding="UTF-8"?>
<!--Generator: Apple Native CoreSVG 175.5-->
<!DOCTYPE svg
PUBLIC "-//W3C//DTD SVG 1.1//EN"
       "http://www.w3.org/Graphics/SVG/1.1/DTD/svg11.dtd">
<svg version="1.1" xmlns="http://www.w3.org/2000/svg" xmlns:xlink="http://www.w3.org/1999/xlink" width="20.459" height="21.6504">
 <g>
  <rect height="21.6504" opacity="0" width="20.459" x="0" y="0"/>
  <path d="M3.06641 21.6211L17.3926 21.6211Q18.916 21.6211 19.6875 20.8594Q20.459 20.0977 20.459 18.5938L20.459 8.56445Q20.459 7.06055 19.6875 6.29883Q18.916 5.53711 17.3926 5.53711L3.06641 5.53711Q1.5332 5.53711 0.766602 6.29395Q0 7.05078 0 8.56445L0 18.5938Q0 20.1074 0.766602 20.8643Q1.5332 21.6211 3.06641 21.6211ZM3.08594 20.0488Q2.35352 20.0488 1.96289 19.6582Q1.57227 19.2676 1.57227 18.5059L1.57227 8.65234Q1.57227 7.89062 1.96289 7.5Q2.35352 7.10938 3.08594 7.10938L17.3633 7.10938Q18.0859 7.10938 18.4863 7.5Q18.8867 7.89062 18.8867 8.65234L18.8867 18.5059Q18.8867 19.2676 18.4863 19.6582Q18.0859 20.0488 17.3633 20.0488ZM2.06055 3.96484L18.4082 3.96484Q18.291 3.30078 17.9443 2.94434Q17.5977 2.58789 16.8652 2.58789L3.60352 2.58789Q2.87109 2.58789 2.51953 2.94434Q2.16797 3.30078 2.06055 3.96484ZM4.07227 1.25977L16.3965 1.25977Q16.3477 0.634766 15.9912 0.317383Q15.6348 0 14.9609 0L5.49805 0Q4.82422 0 4.46777 0.317383Q4.11133 0.634766 4.07227 1.25977Z" fill="rgba(255,255,255,0.5)"/>
  <path d="M10.7129 17.5293Q10.9863 17.5293 11.0645 17.2168Q11.2207 16.3477 11.377 15.7471Q11.5332 15.1465 11.7676 14.7461Q12.002 14.3457 12.3779 14.0918Q12.7539 13.8379 13.3545 13.6768Q13.9551 13.5156 14.8535 13.3984Q15.1758 13.3594 15.1758 13.0469Q15.1758 12.7441 14.8535 12.6953Q13.9551 12.5684 13.3496 12.4072Q12.7441 12.2461 12.3535 11.9922Q11.9629 11.7383 11.7236 11.3379Q11.4844 10.9375 11.3379 10.3418Q11.1914 9.74609 11.0645 8.90625Q11.0059 8.57422 10.7129 8.57422Q10.4102 8.57422 10.3418 8.89648Q10.1855 9.75586 10.0244 10.3564Q9.86328 10.957 9.63379 11.3574Q9.4043 11.7578 9.02832 12.0068Q8.65234 12.2559 8.05176 12.4121Q7.45117 12.5684 6.5625 12.6953Q6.23047 12.7441 6.23047 13.0469Q6.23047 13.3496 6.5625 13.3984Q7.68555 13.5156 8.36426 13.7256Q9.04297 13.9355 9.41895 14.3408Q9.79492 14.7461 9.99023 15.4395Q10.1855 16.1328 10.3418 17.207Q10.4004 17.5293 10.7129 17.5293ZM6.86523 19.1113Q7.08008 19.1113 7.12891 18.8965Q7.26562 18.1836 7.36328 17.8613Q7.46094 17.5391 7.77344 17.4121Q8.08594 17.2852 8.85742 17.168Q9.0918 17.1387 9.0918 16.9043Q9.0918 16.6699 8.85742 16.6406Q8.08594 16.5039 7.77344 16.377Q7.46094 16.25 7.36328 15.9375Q7.26562 15.625 7.12891 14.9316Q7.08008 14.6875 6.86523 14.6875Q6.65039 14.6875 6.5918 14.9316Q6.45508 15.625 6.3623 15.9375Q6.26953 16.25 5.96191 16.377Q5.6543 16.5039 4.87305 16.6406Q4.64844 16.6699 4.64844 16.9043Q4.64844 17.1387 4.89258 17.168Q5.66406 17.2852 5.9668 17.4121Q6.26953 17.5391 6.3623 17.8564Q6.45508 18.1738 6.5918 18.8672Q6.65039 19.1113 6.86523 19.1113Z" fill="#ffffff"/>
 </g>
</svg>
