<?xml version="1.0" encoding="UTF-8"?>
<!--Generator: Apple Native CoreSVG 175.5-->
<!DOCTYPE svg
PUBLIC "-//W3C//DTD SVG 1.1//EN"
       "http://www.w3.org/Graphics/SVG/1.1/DTD/svg11.dtd">
<svg version="1.1" xmlns="http://www.w3.org/2000/svg" xmlns:xlink="http://www.w3.org/1999/xlink" width="20.6641" height="20.4785">
 <g>
  <rect height="20.4785" opacity="0" width="20.6641" x="0" y="0"/>
  <path d="M3.06641 15.957L5.53711 15.957L5.53711 14.3848L3.08594 14.3848Q2.35352 14.3848 1.96289 13.9941Q1.57227 13.6035 1.57227 12.8418L1.57227 3.13477Q1.57227 2.37305 1.96289 1.98242Q2.35352 1.5918 3.08594 1.5918L12.8418 1.5918Q13.5645 1.5918 13.96 1.98242Q14.3555 2.37305 14.3555 3.13477L14.3555 5.27344L15.9277 5.27344L15.9277 3.04688Q15.9277 1.54297 15.1611 0.78125Q14.3945 0.0195312 12.8711 0.0195312L3.06641 0.0195312Q1.5332 0.0195312 0.766602 0.776367Q0 1.5332 0 3.04688L0 12.9297Q0 14.4434 0.766602 15.2002Q1.5332 15.957 3.06641 15.957Z" fill="rgba(255,255,255,0.5)"/>
  <path d="M7.80273 20.4785L17.6074 20.4785Q19.1309 20.4785 19.8975 19.7168Q20.6641 18.9551 20.6641 17.4512L20.6641 7.56836Q20.6641 6.06445 19.8975 5.30273Q19.1309 4.54102 17.6074 4.54102L7.80273 4.54102Q6.26953 4.54102 5.50293 5.29785Q4.73633 6.05469 4.73633 7.56836L4.73633 17.4512Q4.73633 18.9648 5.50293 19.7217Q6.26953 20.4785 7.80273 20.4785Z" fill="#ffffff"/>
  <path d="M13.2129 16.5625Q12.8809 16.5625 12.8223 16.2305Q12.666 15.127 12.4658 14.4141Q12.2656 13.7012 11.875 13.2812Q11.4844 12.8613 10.7861 12.6465Q10.0879 12.4316 8.93555 12.3145Q8.59375 12.2656 8.59375 11.9434Q8.59375 11.6309 8.93555 11.582Q9.85352 11.4551 10.4688 11.2939Q11.084 11.1328 11.4746 10.874Q11.8652 10.6152 12.0996 10.2051Q12.334 9.79492 12.4951 9.1748Q12.6562 8.55469 12.8223 7.66602Q12.9102 7.33398 13.2129 7.33398Q13.5156 7.33398 13.5742 7.67578Q13.7012 8.54492 13.8525 9.16016Q14.0039 9.77539 14.248 10.1855Q14.4922 10.5957 14.8975 10.8594Q15.3027 11.123 15.9277 11.2891Q16.5527 11.4551 17.4805 11.582Q17.8125 11.6309 17.8125 11.9434Q17.8125 12.2754 17.4805 12.3145Q16.5527 12.4414 15.9375 12.6025Q15.3223 12.7637 14.9316 13.0225Q14.541 13.2812 14.3018 13.6963Q14.0625 14.1113 13.9014 14.7314Q13.7402 15.3516 13.5742 16.2402Q13.4961 16.5625 13.2129 16.5625ZM9.23828 18.2031Q9.0332 18.2031 8.95508 17.9492Q8.84766 17.4121 8.7793 17.0996Q8.71094 16.7871 8.56934 16.626Q8.42773 16.4648 8.11523 16.377Q7.80273 16.2891 7.20703 16.2012Q6.95312 16.1621 6.95312 15.9277Q6.95312 15.6836 7.1875 15.6543Q7.79297 15.5469 8.11035 15.459Q8.42773 15.3711 8.56934 15.2051Q8.71094 15.0391 8.7793 14.7314Q8.84766 14.4238 8.95508 13.8867Q9.0332 13.6328 9.23828 13.6328Q9.45312 13.6328 9.52148 13.8867Q9.62891 14.4238 9.69727 14.7314Q9.76562 15.0391 9.91211 15.2051Q10.0586 15.3711 10.3809 15.459Q10.7031 15.5469 11.2988 15.6543Q11.543 15.6836 11.543 15.9277Q11.543 16.1523 11.2988 16.2012Q10.7031 16.2891 10.3809 16.377Q10.0586 16.4648 9.91211 16.6309Q9.76562 16.7969 9.69727 17.1094Q9.62891 17.4219 9.52148 17.9785Q9.46289 18.2031 9.23828 18.2031Z" fill="none"/>
 </g>
</svg>
