<?xml version="1.0" encoding="UTF-8"?>
<!--Generator: Apple Native CoreSVG 175.5-->
<!DOCTYPE svg
PUBLIC "-//W3C//DTD SVG 1.1//EN"
       "http://www.w3.org/Graphics/SVG/1.1/DTD/svg11.dtd">
<svg version="1.1" xmlns="http://www.w3.org/2000/svg" xmlns:xlink="http://www.w3.org/1999/xlink" width="11.8262" height="17.2363">
 <g>
  <rect height="17.2363" opacity="0" width="11.8262" x="0" y="0"/>
  <path d="M1.99219 12.5879L4.78516 12.5879Q4.92188 12.5879 5.01953 12.6758L9.42383 16.6211Q9.77539 16.9336 10.0732 17.085Q10.3711 17.2363 10.7227 17.2363Q11.2012 17.2363 11.5137 16.9238Q11.8262 16.6113 11.8262 16.1426L11.8262 1.16211Q11.8262 0.683594 11.5088 0.34668Q11.1914 0.00976562 10.7031 0.00976562Q10.3516 0.00976562 10.083 0.175781Q9.81445 0.341797 9.42383 0.683594L5.01953 4.58984Q4.93164 4.67773 4.78516 4.67773L1.99219 4.67773Q0.996094 4.67773 0.498047 5.19043Q0 5.70312 0 6.76758L0 10.5078Q0 11.5625 0.498047 12.0752Q0.996094 12.5879 1.99219 12.5879ZM2.06055 11.1621Q1.78711 11.1621 1.65527 11.0352Q1.52344 10.9082 1.52344 10.6348L1.52344 6.64062Q1.52344 6.36719 1.65527 6.23535Q1.78711 6.10352 2.06055 6.10352L5.18555 6.10352Q5.37109 6.10352 5.52734 6.05469Q5.68359 6.00586 5.84961 5.84961L10.0098 2.07031Q10.0488 2.03125 10.0879 2.01172Q10.127 1.99219 10.1758 1.99219Q10.3027 1.99219 10.3027 2.12891L10.3027 15.1074Q10.3027 15.2539 10.1758 15.2539Q10.0977 15.2539 10.0195 15.1758L5.84961 11.416Q5.68359 11.2695 5.52734 11.2158Q5.37109 11.1621 5.18555 11.1621Z" fill="#ffffff"/>
 </g>
</svg>
