<?xml version="1.0" encoding="UTF-8"?>
<!--Generator: Apple Native CoreSVG 175.5-->
<!DOCTYPE svg
PUBLIC "-//W3C//DTD SVG 1.1//EN"
       "http://www.w3.org/Graphics/SVG/1.1/DTD/svg11.dtd">
<svg version="1.1" xmlns="http://www.w3.org/2000/svg" xmlns:xlink="http://www.w3.org/1999/xlink" width="17.9785" height="17.998">
 <g>
  <rect height="17.998" opacity="0" width="17.9785" x="0" y="0"/>
  <path d="M3.06641 17.998L14.9121 17.998Q16.4453 17.998 17.2119 17.2412Q17.9785 16.4844 17.9785 14.9707L17.9785 3.04688Q17.9785 1.5332 17.2119 0.776367Q16.4453 0.0195312 14.9121 0.0195312L3.06641 0.0195312Q1.5332 0.0195312 0.766602 0.776367Q0 1.5332 0 3.04688L0 14.9707Q0 16.4844 0.766602 17.2412Q1.5332 17.998 3.06641 17.998ZM3.08594 16.4258Q2.35352 16.4258 1.96289 16.04Q1.57227 15.6543 1.57227 14.8926L1.57227 3.125Q1.57227 2.36328 1.96289 1.97754Q2.35352 1.5918 3.08594 1.5918L14.8926 1.5918Q15.6152 1.5918 16.0107 1.97754Q16.4062 2.36328 16.4062 3.125L16.4062 14.8926Q16.4062 15.6543 16.0107 16.04Q15.6152 16.4258 14.8926 16.4258Z" fill="rgba(255,255,255,0.5)"/>
  <path d="M10.7812 13.6621Q11.0449 13.6621 11.2109 13.501Q11.377 13.3398 11.377 13.0762L11.377 4.94141Q11.377 4.6875 11.2061 4.50195Q11.0352 4.31641 10.7715 4.31641Q10.4688 4.31641 10.0781 4.67773L7.83203 6.80664Q7.7832 6.85547 7.68555 6.85547L6.17188 6.85547Q5.625 6.85547 5.3418 7.14844Q5.05859 7.44141 5.05859 8.00781L5.05859 9.99023Q5.05859 10.5566 5.3418 10.8496Q5.625 11.1426 6.17188 11.1426L7.68555 11.1426Q7.77344 11.1426 7.83203 11.1914L10.0781 13.3301Q10.4199 13.6621 10.7812 13.6621Z" fill="#ffffff"/>
 </g>
</svg>
