<?xml version="1.0" encoding="UTF-8"?>
<!--Generator: Apple Native CoreSVG 175.5-->
<!DOCTYPE svg
PUBLIC "-//W3C//DTD SVG 1.1//EN"
       "http://www.w3.org/Graphics/SVG/1.1/DTD/svg11.dtd">
<svg version="1.1" xmlns="http://www.w3.org/2000/svg" xmlns:xlink="http://www.w3.org/1999/xlink" width="23.5742" height="17.2363">
 <g>
  <rect height="17.2363" opacity="0" width="23.5742" x="0" y="0"/>
  <path d="M10.5273 17.2363Q11.0156 17.2363 11.3232 16.9238Q11.6309 16.6113 11.6309 16.1426L11.6309 1.16211Q11.6309 0.683594 11.3184 0.34668Q11.0059 0.00976562 10.5078 0.00976562Q10.166 0.00976562 9.89746 0.170898Q9.62891 0.332031 9.24805 0.683594L5.08789 4.58984Q4.99023 4.67773 4.84375 4.67773L2.04102 4.67773Q1.05469 4.67773 0.527344 5.21973Q0 5.76172 0 6.81641L0 10.4492Q0 11.5137 0.527344 12.0508Q1.05469 12.5879 2.04102 12.5879L4.84375 12.5879Q4.99023 12.5879 5.08789 12.6758L9.24805 16.6211Q9.58008 16.9434 9.88281 17.0898Q10.1855 17.2363 10.5273 17.2363Z" fill="#ffffff"/>
  <path d="M23.0273 6.29883L20.7129 6.29883L20.7129 6.24023L23.0957 3.10547Q23.252 2.90039 23.3203 2.75879Q23.3887 2.61719 23.3887 2.48047Q23.3887 2.23633 23.2178 2.09961Q23.0469 1.96289 22.8027 1.96289L19.5215 1.96289Q19.2773 1.96289 19.126 2.10449Q18.9746 2.24609 18.9746 2.49023Q18.9746 2.73438 19.126 2.88086Q19.2773 3.02734 19.5215 3.02734L21.709 3.02734L21.709 3.06641L19.2969 6.20117Q19.1309 6.40625 19.0723 6.54785Q19.0137 6.68945 19.0137 6.85547Q19.0137 7.07031 19.1699 7.2168Q19.3262 7.36328 19.5898 7.36328L23.0273 7.36328Q23.2715 7.36328 23.4229 7.22168Q23.5742 7.08008 23.5742 6.82617Q23.5742 6.5918 23.4229 6.44531Q23.2715 6.29883 23.0273 6.29883ZM17.2852 10.2051L15.6543 10.2051L15.6543 10.166L17.3438 7.95898Q17.4902 7.76367 17.5586 7.62695Q17.627 7.49023 17.627 7.35352Q17.627 7.12891 17.4658 7.00195Q17.3047 6.875 17.0605 6.875L14.5703 6.875Q14.3457 6.875 14.2041 7.01172Q14.0625 7.14844 14.0625 7.36328Q14.0625 7.60742 14.2041 7.74414Q14.3457 7.88086 14.5703 7.88086L16.0352 7.88086L16.0352 7.91992L14.3555 10.1172Q14.2188 10.3027 14.1553 10.4443Q14.0918 10.5859 14.0918 10.7324Q14.0918 10.9375 14.2383 11.0791Q14.3848 11.2207 14.6191 11.2207L17.2852 11.2207Q17.5098 11.2207 17.6514 11.0889Q17.793 10.957 17.793 10.7129Q17.793 10.4883 17.6514 10.3467Q17.5098 10.2051 17.2852 10.2051ZM21.6992 13.7988L20.3125 13.7988L20.3125 13.7598L21.7383 11.8555Q21.8848 11.6504 21.9434 11.5283Q22.002 11.4062 22.002 11.2793Q22.002 11.0547 21.8555 10.9326Q21.709 10.8105 21.4844 10.8105L19.2871 10.8105Q19.0723 10.8105 18.9355 10.9375Q18.7988 11.0645 18.7988 11.2891Q18.7988 11.5234 18.9355 11.6455Q19.0723 11.7676 19.2871 11.7676L20.498 11.7676L20.498 11.8066L19.082 13.7109Q18.9453 13.8965 18.8818 14.0234Q18.8184 14.1504 18.8184 14.2871Q18.8184 14.4922 18.9648 14.624Q19.1113 14.7559 19.3359 14.7559L21.6992 14.7559Q21.9043 14.7559 22.0361 14.624Q22.168 14.4922 22.168 14.2676Q22.168 14.0625 22.0361 13.9307Q21.9043 13.7988 21.6992 13.7988Z" fill="rgba(255,255,255,0.5)"/>
 </g>
</svg>
