<?xml version="1.0" encoding="UTF-8"?>
<!--Generator: Apple Native CoreSVG 175.5-->
<!DOCTYPE svg
PUBLIC "-//W3C//DTD SVG 1.1//EN"
       "http://www.w3.org/Graphics/SVG/1.1/DTD/svg11.dtd">
<svg version="1.1" xmlns="http://www.w3.org/2000/svg" xmlns:xlink="http://www.w3.org/1999/xlink" width="19.9219" height="19.9316">
 <g>
  <rect height="19.9316" opacity="0" width="19.9219" x="0" y="0"/>
  <path d="M9.96094 19.9316Q12.002 19.9316 13.8037 19.1504Q15.6055 18.3691 16.9824 16.9922Q18.3594 15.6152 19.1406 13.8135Q19.9219 12.0117 19.9219 9.9707Q19.9219 7.92969 19.1406 6.12793Q18.3594 4.32617 16.9824 2.94922Q15.6055 1.57227 13.7988 0.791016Q11.9922 0.00976562 9.95117 0.00976562Q7.91016 0.00976562 6.1084 0.791016Q4.30664 1.57227 2.93457 2.94922Q1.5625 4.32617 0.78125 6.12793Q0 7.92969 0 9.9707Q0 12.0117 0.78125 13.8135Q1.5625 15.6152 2.93945 16.9922Q4.31641 18.3691 6.11816 19.1504Q7.91992 19.9316 9.96094 19.9316Z" fill="rgba(255,255,255,0.25)"/>
  <path d="M11.8262 14.7949Q11.4453 14.7949 11.1035 14.4531L8.78906 12.2461Q8.73047 12.1973 8.63281 12.1973L7.07031 12.1973Q6.51367 12.1973 6.2207 11.8994Q5.92773 11.6016 5.92773 11.0059L5.92773 8.96484Q5.92773 8.36914 6.2207 8.07129Q6.51367 7.77344 7.07031 7.77344L8.63281 7.77344Q8.74023 7.77344 8.78906 7.72461L11.1035 5.52734Q11.5039 5.15625 11.8164 5.15625Q12.0898 5.15625 12.2656 5.34668Q12.4414 5.53711 12.4414 5.80078L12.4414 14.1895Q12.4414 14.4531 12.2656 14.624Q12.0898 14.7949 11.8262 14.7949Z" fill="#ffffff"/>
 </g>
</svg>
