<?xml version="1.0" encoding="UTF-8"?>
<!--Generator: Apple Native CoreSVG 175.5-->
<!DOCTYPE svg
PUBLIC "-//W3C//DTD SVG 1.1//EN"
       "http://www.w3.org/Graphics/SVG/1.1/DTD/svg11.dtd">
<svg version="1.1" xmlns="http://www.w3.org/2000/svg" xmlns:xlink="http://www.w3.org/1999/xlink" width="19.9219" height="20.4395">
 <g>
  <rect height="20.4395" opacity="0" width="19.9219" x="0" y="0"/>
  <path d="M9.96094 20.4395Q12.002 20.4395 13.8037 19.6582Q15.6055 18.877 16.9824 17.5Q18.3594 16.123 19.1406 14.3213Q19.9219 12.5195 19.9219 10.4785Q19.9219 8.4375 19.1406 6.63574Q18.3594 4.83398 16.9824 3.45703Q15.6055 2.08008 13.7988 1.29883Q11.9922 0.517578 9.95117 0.517578Q7.91016 0.517578 6.1084 1.29883Q4.30664 2.08008 2.93457 3.45703Q1.5625 4.83398 0.78125 6.63574Q0 8.4375 0 10.4785Q0 12.5195 0.78125 14.3213Q1.5625 16.123 2.93945 17.5Q4.31641 18.877 6.11816 19.6582Q7.91992 20.4395 9.96094 20.4395Z" fill="rgba(255,255,255,0.25)"/>
  <path d="M6.96289 15.4004Q6.15234 15.4004 5.72754 14.9805Q5.30273 14.5605 5.30273 13.7402L5.30273 8.78906Q5.30273 7.97852 5.72754 7.55859Q6.15234 7.13867 6.96289 7.13867L8.4668 7.13867L8.4668 8.16406L6.97266 8.16406Q6.31836 8.16406 6.31836 8.83789L6.31836 13.7109Q6.31836 14.3848 6.97266 14.3848L12.6562 14.3848Q13.3105 14.3848 13.3105 13.7109L13.3105 8.83789Q13.3105 8.16406 12.6562 8.16406L11.1719 8.16406L11.1719 7.13867L12.6758 7.13867Q13.4961 7.13867 13.9209 7.55371Q14.3457 7.96875 14.3457 8.78906L14.3457 13.7402Q14.3457 14.5605 13.9209 14.9805Q13.4961 15.4004 12.6758 15.4004ZM9.81445 11.4453Q9.60938 11.4453 9.46289 11.3037Q9.31641 11.1621 9.31641 10.957L9.31641 5.86914L9.33594 5.39062L8.88672 5.86914L8.42773 6.33789Q8.30078 6.47461 8.07617 6.47461Q7.88086 6.47461 7.74902 6.35254Q7.61719 6.23047 7.61719 6.03516Q7.61719 5.83008 7.77344 5.69336L9.45312 4.07227Q9.60938 3.89648 9.81445 3.89648Q10 3.89648 10.166 4.07227L11.8555 5.70312Q11.9336 5.77148 11.9678 5.85449Q12.002 5.9375 12.002 6.03516Q12.002 6.23047 11.875 6.35254Q11.748 6.47461 11.543 6.47461Q11.3184 6.47461 11.1914 6.33789L10.7324 5.86914L10.293 5.39062L10.3125 5.86914L10.3125 10.957Q10.3125 11.1621 10.166 11.3037Q10.0195 11.4453 9.81445 11.4453Z" fill="#ffffff"/>
 </g>
</svg>
