<?xml version="1.0" encoding="UTF-8"?>
<!--Generator: Apple Native CoreSVG 175-->
<!DOCTYPE svg
PUBLIC "-//W3C//DTD SVG 1.1//EN"
       "http://www.w3.org/Graphics/SVG/1.1/DTD/svg11.dtd">
<svg version="1.1" xmlns="http://www.w3.org/2000/svg" xmlns:xlink="http://www.w3.org/1999/xlink" width="18.5449" height="21.5723">
 <g>
  <rect height="21.5723" opacity="0" width="18.5449" x="0" y="0"/>
  <path d="M9.07227 21.3477Q9.36523 21.3477 9.81445 21.0938L17.8223 16.4844Q18.125 16.3086 18.2812 16.1572Q18.4375 16.0059 18.4912 15.791Q18.5449 15.5762 18.5449 15.2148L18.5449 5.97656Q18.5449 5.43945 18.3594 5.16602Q18.1738 4.89258 17.832 4.89258Q17.5195 4.89258 17.0996 5.12695L9.10156 9.74609Q8.79883 9.92188 8.64258 10.0781Q8.48633 10.2344 8.42773 10.4492Q8.36914 10.6641 8.36914 11.0156L8.36914 20.2539Q8.36914 20.7812 8.54492 21.0645Q8.7207 21.3477 9.07227 21.3477ZM9.27734 20.498Q9.0918 20.498 9.0918 20.2148L9.11133 10.9668Q9.11133 10.5957 9.43359 10.4199L17.4316 5.78125Q17.5293 5.72266 17.627 5.72266Q17.8223 5.72266 17.8223 6.00586L17.8125 15.2734Q17.8125 15.459 17.7344 15.5957Q17.6562 15.7324 17.4902 15.8203L9.48242 20.4395Q9.35547 20.498 9.27734 20.498Z" fill="#ffffff"/>
  <path d="M4.66797 18.8477Q4.75586 18.8477 4.83398 18.7988L4.83398 8.48633Q4.83398 8.34961 4.86328 8.25684Q4.89258 8.16406 4.96094 8.09082Q5.0293 8.01758 5.14648 7.94922L14.0625 2.8125Q14.0527 2.64648 13.916 2.50977Q13.7793 2.37305 13.5742 2.37305Q13.3691 2.37305 13.1445 2.5L4.80469 7.30469Q4.49219 7.49023 4.34082 7.62695Q4.18945 7.76367 4.14551 7.95898Q4.10156 8.1543 4.10156 8.51562L4.10156 18.125Q4.10156 18.4375 4.25781 18.6426Q4.41406 18.8477 4.66797 18.8477ZM0.566406 16.4648Q0.654297 16.4648 0.722656 16.4258L0.722656 6.11328Q0.722656 5.97656 0.756836 5.88379Q0.791016 5.79102 0.859375 5.71289Q0.927734 5.63477 1.03516 5.57617L9.95117 0.439453Q9.94141 0.253906 9.79004 0.126953Q9.63867 0 9.46289 0Q9.36523 0 9.2627 0.0292969Q9.16016 0.0585938 9.0332 0.126953L0.703125 4.94141Q0.380859 5.11719 0.234375 5.25391Q0.0878906 5.39062 0.0439453 5.58594Q0 5.78125 0 6.15234L0 15.752Q0 16.0449 0.131836 16.2549Q0.263672 16.4648 0.566406 16.4648Z" fill="rgba(255,255,255,0.5)"/>
 </g>
</svg>
