<?xml version="1.0" encoding="UTF-8"?>
<!--Generator: Apple Native CoreSVG 175.5-->
<!DOCTYPE svg
PUBLIC "-//W3C//DTD SVG 1.1//EN"
       "http://www.w3.org/Graphics/SVG/1.1/DTD/svg11.dtd">
<svg version="1.1" xmlns="http://www.w3.org/2000/svg" xmlns:xlink="http://www.w3.org/1999/xlink" width="20.3906" height="22.1191">
 <g>
  <rect height="22.1191" opacity="0" width="20.3906" x="0" y="0"/>
  <path d="M13.4375 11.1816L18.9648 7.97852Q19.5508 7.62695 19.8047 7.3291Q20.0586 7.03125 20.0586 6.62109Q20.0586 6.2207 19.8047 5.92285Q19.5508 5.625 18.9648 5.27344L11.3184 0.839844Q10.9668 0.634766 10.6689 0.537109Q10.3711 0.439453 10.0781 0.439453Q9.78516 0.439453 9.4873 0.537109Q9.18945 0.634766 8.83789 0.839844L5.19531 2.94922L6.39648 4.14062L9.64844 2.27539Q9.89258 2.13867 10.0781 2.13867Q10.2637 2.13867 10.5078 2.27539L17.9395 6.5332Q18.0176 6.57227 18.0176 6.62109Q18.0176 6.67969 17.9395 6.71875L12.2461 9.98047ZM1.19141 7.97852L8.21289 12.0508Q8.51562 12.2363 8.78418 12.3438Q9.05273 12.4512 9.31641 12.5L5.30273 8.48633Q4.53125 8.04688 3.75977 7.60254Q2.98828 7.1582 2.2168 6.71875Q2.12891 6.67969 2.13867 6.62598Q2.14844 6.57227 2.2168 6.5332Q2.39258 6.42578 2.56836 6.32324Q2.74414 6.2207 2.92969 6.12305L1.74805 4.95117L1.19141 5.27344Q0.605469 5.625 0.351562 5.92285Q0.0976562 6.2207 0.0976562 6.62109Q0.0976562 7.03125 0.351562 7.3291Q0.605469 7.62695 1.19141 7.97852ZM16.4941 14.2188L18.9648 12.7832Q19.5508 12.4414 19.8047 12.1387Q20.0586 11.8359 20.0586 11.4355Q20.0586 11.0352 19.8047 10.7324Q19.5508 10.4297 18.9648 10.0781L16.4062 8.59375L14.8926 9.59961L17.9395 11.3379Q18.0176 11.377 18.0176 11.4355Q18.0176 11.4941 17.9395 11.5332L15.3125 13.0371ZM10.0781 17.627Q10.3711 17.627 10.6689 17.5293Q10.9668 17.4316 11.3184 17.2266L13.0371 16.2207L11.8359 15.0195L10.5078 15.7812Q10.2637 15.918 10.0781 15.918Q9.89258 15.918 9.64844 15.7812L2.2168 11.5332Q2.13867 11.4941 2.13867 11.4355Q2.13867 11.377 2.2168 11.3379L5.50781 9.45312L3.93555 8.49609L1.19141 10.0781Q0.605469 10.4297 0.351562 10.7324Q0.0976562 11.0352 0.0976562 11.4355Q0.0976562 11.8359 0.351562 12.1387Q0.605469 12.4414 1.19141 12.7832L8.83789 17.2266Q9.18945 17.4316 9.4873 17.5293Q9.78516 17.627 10.0781 17.627ZM16.6309 13.2227L16.084 13.5645L19.6582 16.7578Q20.1758 16.2109 20.0098 15.6494Q19.8438 15.0879 18.9648 14.5801ZM14.6973 17.8906L10.5078 20.2832Q10.2637 20.4199 10.0781 20.4199Q9.89258 20.4199 9.64844 20.2832L2.2168 16.0254Q2.13867 15.9863 2.13867 15.9277Q2.13867 15.8789 2.2168 15.8398L5.27344 14.0918L3.63281 13.1641L1.19141 14.5801Q0.605469 14.9316 0.351562 15.2295Q0.0976562 15.5273 0.0976562 15.9277Q0.0976562 16.3379 0.351562 16.6357Q0.605469 16.9336 1.19141 17.2852L8.83789 21.7188Q9.18945 21.9238 9.4873 22.0215Q9.78516 22.1191 10.0781 22.1191Q10.3711 22.1191 10.6689 22.0215Q10.9668 21.9238 11.3184 21.7188L15.8887 19.0723Z" fill="rgba(255,255,255,0.5)"/>
  <path d="M19.1113 20.625Q19.3262 20.8496 19.6387 20.8496Q19.9512 20.8496 20.1758 20.625Q20.3906 20.4004 20.3906 20.0928Q20.3906 19.7852 20.1758 19.5605L1.28906 0.683594Q1.06445 0.46875 0.751953 0.463867Q0.439453 0.458984 0.214844 0.683594Q0 0.898438 0 1.21582Q0 1.5332 0.214844 1.74805Z" fill="#ffffff"/>
 </g>
</svg>
