<?xml version="1.0" encoding="UTF-8"?>
<!--Generator: Apple Native CoreSVG 175-->
<!DOCTYPE svg
PUBLIC "-//W3C//DTD SVG 1.1//EN"
       "http://www.w3.org/Graphics/SVG/1.1/DTD/svg11.dtd">
<svg version="1.1" xmlns="http://www.w3.org/2000/svg" xmlns:xlink="http://www.w3.org/1999/xlink" width="19.8204" height="19.0302">
 <g>
  <rect height="19.0302" opacity="0" width="19.8204" x="0" y="0"/>
  <path d="M0 12.4937Q0 13.7895 0.668182 14.455Q1.33636 15.1204 2.63046 15.1204L3.86246 15.1204L3.86246 6.56998Q3.86246 5.46722 4.27948 4.68399Q4.6965 3.90076 5.48241 3.48648Q6.26831 3.0722 7.37381 3.0722L15.0841 3.0722L15.0841 2.66022Q15.0841 1.38824 14.4159 0.710907Q13.7477 0.0335693 12.4492 0.0335693L2.63046 0.0335693Q1.33636 0.0335693 0.668182 0.702515Q0 1.37146 0 2.66022Z" fill="rgba(255,255,255,0.5)"/>
  <path d="M7.37381 19.0302L17.1925 19.0302Q18.484 19.0302 19.1522 18.3528Q19.8204 17.6755 19.8204 16.4035L19.8204 6.56998Q19.8204 5.29099 19.1522 4.61716Q18.484 3.94333 17.1925 3.94333L7.37381 3.94333Q6.07269 3.94333 5.40451 4.60876Q4.73633 5.2742 4.73633 6.56998L4.73633 16.4035Q4.73633 17.6923 5.40451 18.3612Q6.07269 19.0302 7.37381 19.0302Z" fill="#ffffff"/>
 </g>
</svg>
