<?xml version="1.0" encoding="UTF-8"?>
<!--Generator: Apple Native CoreSVG 175.5-->
<!DOCTYPE svg
PUBLIC "-//W3C//DTD SVG 1.1//EN"
       "http://www.w3.org/Graphics/SVG/1.1/DTD/svg11.dtd">
<svg version="1.1" xmlns="http://www.w3.org/2000/svg" xmlns:xlink="http://www.w3.org/1999/xlink" width="17.9785" height="17.998">
 <g>
  <rect height="17.998" opacity="0" width="17.9785" x="0" y="0"/>
  <path d="M3.06641 17.998L14.9121 17.998Q16.4453 17.998 17.2119 17.2412Q17.9785 16.4844 17.9785 14.9707L17.9785 3.04688Q17.9785 1.5332 17.2119 0.776367Q16.4453 0.0195312 14.9121 0.0195312L3.06641 0.0195312Q1.5332 0.0195312 0.766602 0.776367Q0 1.5332 0 3.04688L0 14.9707Q0 16.4844 0.766602 17.2412Q1.5332 17.998 3.06641 17.998Z" fill="rgba(255,255,255,0.25)"/>
  <path d="M3.61328 11.6699Q3.34961 11.6699 3.17383 11.4941Q2.99805 11.3184 2.99805 11.0645Q2.99805 10.8105 3.17383 10.6396Q3.34961 10.4688 3.61328 10.4688L13.4277 10.4688Q13.6816 10.4688 13.8525 10.6396Q14.0234 10.8105 14.0234 11.0645Q14.0234 11.3184 13.8525 11.4941Q13.6816 11.6699 13.4277 11.6699ZM3.61328 15.0098Q3.34961 15.0098 3.17383 14.8389Q2.99805 14.668 2.99805 14.4141Q2.99805 14.1602 3.17383 13.9844Q3.34961 13.8086 3.61328 13.8086L10.8496 13.8086Q11.1133 13.8086 11.2842 13.9844Q11.4551 14.1602 11.4551 14.4141Q11.4551 14.668 11.2842 14.8389Q11.1133 15.0098 10.8496 15.0098ZM3.0957 3.67188Q3.0957 3.21289 3.36426 2.94434Q3.63281 2.67578 4.10156 2.67578L6.54297 2.67578Q7.01172 2.67578 7.28027 2.94434Q7.54883 3.21289 7.54883 3.67188L7.54883 6.13281Q7.54883 6.5918 7.28027 6.86035Q7.01172 7.12891 6.54297 7.12891L4.10156 7.12891Q3.63281 7.12891 3.36426 6.86035Q3.0957 6.5918 3.0957 6.13281Z" fill="#ffffff"/>
 </g>
</svg>
