<?xml version="1.0" encoding="UTF-8"?>
<!--Generator: Apple Native CoreSVG 175.5-->
<!DOCTYPE svg
PUBLIC "-//W3C//DTD SVG 1.1//EN"
       "http://www.w3.org/Graphics/SVG/1.1/DTD/svg11.dtd">
<svg version="1.1" xmlns="http://www.w3.org/2000/svg" xmlns:xlink="http://www.w3.org/1999/xlink" width="17.334" height="23.4863">
 <g>
  <rect height="23.4863" opacity="0" width="17.334" x="0" y="0"/>
  <path d="M3.06641 22.041L14.2676 22.041Q15.8008 22.041 16.5674 21.2793Q17.334 20.5176 17.334 19.0137L17.334 9.46289Q17.334 7.95898 16.5674 7.19727Q15.8008 6.43555 14.2676 6.43555L9.63867 6.43555L9.63867 13.6621Q9.63867 14.0527 9.35059 14.3311Q9.0625 14.6094 8.66211 14.6094Q8.27148 14.6094 7.9834 14.3311Q7.69531 14.0527 7.69531 13.6621L7.69531 6.43555L3.06641 6.43555Q1.5332 6.43555 0.766602 7.19238Q0 7.94922 0 9.46289L0 19.0137Q0 20.5273 0.766602 21.2842Q1.5332 22.041 3.06641 22.041ZM8.66211 7.20703Q8.98438 7.20703 9.21387 6.98242Q9.44336 6.75781 9.44336 6.44531L9.44336 3.60352L9.38477 2.13867L10.0391 2.83203L11.5234 4.41406Q11.7285 4.64844 12.0508 4.64844Q12.3535 4.64844 12.5586 4.45312Q12.7637 4.25781 12.7637 3.95508Q12.7637 3.68164 12.5293 3.44727L9.22852 0.263672Q9.08203 0.117188 8.9502 0.0585938Q8.81836 0 8.66211 0Q8.51562 0 8.38379 0.0585938Q8.25195 0.117188 8.0957 0.263672L4.79492 3.44727Q4.57031 3.68164 4.57031 3.95508Q4.57031 4.25781 4.76562 4.45312Q4.96094 4.64844 5.27344 4.64844Q5.60547 4.64844 5.81055 4.41406L7.28516 2.83203L7.94922 2.13867L7.89062 3.60352L7.89062 6.44531Q7.89062 6.75781 8.12012 6.98242Q8.34961 7.20703 8.66211 7.20703Z" fill="#ffffff"/>
 </g>
</svg>
