<?xml version="1.0" encoding="UTF-8"?>
<!--Generator: Apple Native CoreSVG 175.5-->
<!DOCTYPE svg
PUBLIC "-//W3C//DTD SVG 1.1//EN"
       "http://www.w3.org/Graphics/SVG/1.1/DTD/svg11.dtd">
<svg version="1.1" xmlns="http://www.w3.org/2000/svg" xmlns:xlink="http://www.w3.org/1999/xlink" width="19.9219" height="19.9316">
 <g>
  <rect height="19.9316" opacity="0" width="19.9219" x="0" y="0"/>
  <path d="M9.96094 19.9219Q12.002 19.9219 13.8037 19.1406Q15.6055 18.3594 16.9824 16.9824Q18.3594 15.6055 19.1406 13.8037Q19.9219 12.002 19.9219 9.96094Q19.9219 7.91992 19.1406 6.11816Q18.3594 4.31641 16.9824 2.93945Q15.6055 1.5625 13.7988 0.78125Q11.9922 0 9.95117 0Q7.91016 0 6.1084 0.78125Q4.30664 1.5625 2.93457 2.93945Q1.5625 4.31641 0.78125 6.11816Q0 7.91992 0 9.96094Q0 12.002 0.78125 13.8037Q1.5625 15.6055 2.93945 16.9824Q4.31641 18.3594 6.11816 19.1406Q7.91992 19.9219 9.96094 19.9219ZM9.96094 18.2617Q8.23242 18.2617 6.72852 17.6172Q5.22461 16.9727 4.08691 15.835Q2.94922 14.6973 2.30957 13.1934Q1.66992 11.6895 1.66992 9.96094Q1.66992 8.23242 2.30957 6.72852Q2.94922 5.22461 4.08203 4.08203Q5.21484 2.93945 6.71875 2.2998Q8.22266 1.66016 9.95117 1.66016Q11.6797 1.66016 13.1885 2.2998Q14.6973 2.93945 15.835 4.08203Q16.9727 5.22461 17.6172 6.72852Q18.2617 8.23242 18.2617 9.96094Q18.2617 11.6895 17.6221 13.1934Q16.9824 14.6973 15.8398 15.835Q14.6973 16.9727 13.1934 17.6172Q11.6895 18.2617 9.96094 18.2617Z" fill="rgba(255,255,255,0.5)"/>
  <path d="M6.33789 14.873L13.5742 14.873Q14.248 14.873 14.5557 14.5117Q14.8633 14.1504 14.8633 13.4082L14.8633 6.31836Q14.8633 5.66406 14.5557 5.35645Q14.248 5.04883 13.5742 5.04883L6.33789 5.04883Q5.75195 5.04883 5.40039 5.40039Q5.04883 5.75195 5.04883 6.31836L5.04883 13.4082Q5.04883 14.0625 5.40039 14.4678Q5.75195 14.873 6.33789 14.873ZM6.93359 13.4473Q6.72852 13.4473 6.60156 13.3154Q6.47461 13.1836 6.47461 12.9688L6.47461 6.95312Q6.47461 6.73828 6.60156 6.60645Q6.72852 6.47461 6.93359 6.47461L12.9785 6.47461Q13.1836 6.47461 13.3105 6.60645Q13.4375 6.73828 13.4375 6.95312L13.4375 12.9688Q13.4375 13.1836 13.3105 13.3154Q13.1836 13.4473 12.9785 13.4473Z" fill="#ffffff"/>
 </g>
</svg>
