<?xml version="1.0" encoding="UTF-8"?>
<!--Generator: Apple Native CoreSVG 175.5-->
<!DOCTYPE svg
PUBLIC "-//W3C//DTD SVG 1.1//EN"
       "http://www.w3.org/Graphics/SVG/1.1/DTD/svg11.dtd">
<svg version="1.1" xmlns="http://www.w3.org/2000/svg" xmlns:xlink="http://www.w3.org/1999/xlink" width="21.582" height="19.9902">
 <g>
  <rect height="19.9902" opacity="0" width="21.582" x="0" y="0"/>
  <path d="M5.72266 19.5801Q5.98633 19.5801 6.17188 19.3945Q6.35742 19.209 6.35742 18.9355Q6.35742 18.6621 6.17188 18.4766Q5.98633 18.291 5.72266 18.291Q5.44922 18.291 5.26367 18.4766Q5.07812 18.6621 5.07812 18.9355Q5.07812 19.209 5.26367 19.3945Q5.44922 19.5801 5.72266 19.5801ZM4.70703 17.7637Q4.98047 17.7637 5.16602 17.5781Q5.35156 17.3926 5.35156 17.1191Q5.35156 16.8555 5.16602 16.6699Q4.98047 16.4844 4.70703 16.4844Q4.44336 16.4844 4.25781 16.6699Q4.07227 16.8555 4.07227 17.1191Q4.07227 17.3926 4.25781 17.5781Q4.44336 17.7637 4.70703 17.7637ZM3.69141 15.957Q3.95508 15.957 4.14551 15.7666Q4.33594 15.5762 4.33594 15.3125Q4.33594 15.0488 4.14551 14.8584Q3.95508 14.668 3.69141 14.668Q3.42773 14.668 3.24219 14.8584Q3.05664 15.0488 3.05664 15.3125Q3.05664 15.5762 3.24219 15.7666Q3.42773 15.957 3.69141 15.957ZM2.66602 14.1602Q2.92969 14.1602 3.12012 13.9697Q3.31055 13.7793 3.31055 13.5156Q3.31055 13.252 3.12012 13.0615Q2.92969 12.8711 2.66602 12.8711Q2.40234 12.8711 2.2168 13.0615Q2.03125 13.252 2.03125 13.5156Q2.03125 13.7793 2.2168 13.9697Q2.40234 14.1602 2.66602 14.1602ZM1.66016 12.334Q1.92383 12.334 2.10938 12.1484Q2.29492 11.9629 2.29492 11.6992Q2.29492 11.4258 2.10938 11.2402Q1.92383 11.0547 1.66016 11.0547Q1.39648 11.0547 1.20605 11.2402Q1.01562 11.4258 1.01562 11.6992Q1.01562 11.9629 1.20605 12.1484Q1.39648 12.334 1.66016 12.334ZM0.644531 10.5273Q0.908203 10.5273 1.09375 10.3418Q1.2793 10.1562 1.2793 9.89258Q1.2793 9.61914 1.09375 9.43359Q0.908203 9.24805 0.644531 9.24805Q0.371094 9.24805 0.185547 9.43359Q0 9.61914 0 9.89258Q0 10.1562 0.185547 10.3418Q0.371094 10.5273 0.644531 10.5273ZM1.66016 8.7207Q1.92383 8.7207 2.10938 8.53516Q2.29492 8.34961 2.29492 8.08594Q2.29492 7.8125 2.10938 7.62695Q1.92383 7.44141 1.66016 7.44141Q1.39648 7.44141 1.20605 7.62695Q1.01562 7.8125 1.01562 8.08594Q1.01562 8.34961 1.20605 8.53516Q1.39648 8.7207 1.66016 8.7207ZM2.66602 6.9043Q2.92969 6.9043 3.12012 6.71387Q3.31055 6.52344 3.31055 6.25977Q3.31055 5.99609 3.12012 5.81055Q2.92969 5.625 2.66602 5.625Q2.40234 5.625 2.2168 5.81055Q2.03125 5.99609 2.03125 6.25977Q2.03125 6.52344 2.2168 6.71387Q2.40234 6.9043 2.66602 6.9043ZM3.69141 5.10742Q3.95508 5.10742 4.14551 4.91699Q4.33594 4.72656 4.33594 4.46289Q4.33594 4.19922 4.14551 4.00879Q3.95508 3.81836 3.69141 3.81836Q3.42773 3.81836 3.24219 4.00879Q3.05664 4.19922 3.05664 4.46289Q3.05664 4.72656 3.24219 4.91699Q3.42773 5.10742 3.69141 5.10742ZM4.70703 3.28125Q4.98047 3.28125 5.16602 3.0957Q5.35156 2.91016 5.35156 2.64648Q5.35156 2.37305 5.16602 2.1875Q4.98047 2.00195 4.70703 2.00195Q4.44336 2.00195 4.25781 2.1875Q4.07227 2.37305 4.07227 2.64648Q4.07227 2.91016 4.25781 3.0957Q4.44336 3.28125 4.70703 3.28125ZM5.72266 1.47461Q5.98633 1.47461 6.17188 1.28906Q6.35742 1.10352 6.35742 0.839844Q6.35742 0.566406 6.17188 0.380859Q5.98633 0.195312 5.72266 0.195312Q5.44922 0.195312 5.26367 0.380859Q5.07812 0.566406 5.07812 0.839844Q5.07812 1.10352 5.26367 1.28906Q5.44922 1.47461 5.72266 1.47461Z" fill="#ffffff"/>
  <path d="M10.498 19.9805Q10.8008 19.9805 11.0303 19.7998Q11.2598 19.6191 11.3574 19.4141L6.11328 10.3613Q6.05469 10.2539 6.01562 10.1611Q5.97656 10.0684 5.97656 9.99023Q5.97656 9.90234 6.01562 9.80957Q6.05469 9.7168 6.11328 9.61914L11.3574 0.566406Q11.25 0.361328 11.0205 0.180664Q10.791 0 10.498 0Q10.2637 0 10.0342 0.131836Q9.80469 0.263672 9.63867 0.537109L4.6875 8.92578Q4.50195 9.22852 4.38477 9.47754Q4.26758 9.72656 4.26758 9.99023Q4.26758 10.2539 4.38477 10.498Q4.50195 10.7422 4.6875 11.0547L9.64844 19.4434Q9.81445 19.7168 10.0439 19.8486Q10.2734 19.9805 10.498 19.9805Z" fill="#ffffff"/>
  <path d="M15.3809 19.9707Q15.7812 19.9707 16.084 19.7168Q16.3867 19.4629 16.7285 18.877L21.1816 11.2305Q21.3867 10.8789 21.4844 10.5811Q21.582 10.2832 21.582 9.99023Q21.582 9.69727 21.4844 9.39941Q21.3867 9.10156 21.1816 8.75L16.7285 1.10352Q16.3867 0.517578 16.084 0.263672Q15.7812 0.00976562 15.3809 0.00976562Q14.9805 0.00976562 14.6777 0.263672Q14.375 0.517578 14.0234 1.10352L9.58008 8.75Q9.36523 9.10156 9.27246 9.39941Q9.17969 9.69727 9.17969 9.99023Q9.17969 10.2832 9.27734 10.5811Q9.375 10.8789 9.58008 11.2305L14.0234 18.877Q14.375 19.4629 14.6777 19.7168Q14.9805 19.9707 15.3809 19.9707Z" fill="#ffffff"/>
 </g>
</svg>
