<?xml version="1.0" encoding="UTF-8"?>
<!--Generator: Apple Native CoreSVG 175-->
<!DOCTYPE svg
PUBLIC "-//W3C//DTD SVG 1.1//EN"
       "http://www.w3.org/Graphics/SVG/1.1/DTD/svg11.dtd">
<svg version="1.1" xmlns="http://www.w3.org/2000/svg" xmlns:xlink="http://www.w3.org/1999/xlink" width="21.127" height="21.7419">
 <g>
  <rect height="21.7419" opacity="0" width="21.127" x="0" y="0"/>
  <path d="M8.67783 4.84497L14.8965 4.84497Q14.3309 3.42224 13.2637 2.33322Q12.1965 1.2442 10.7787 0.622101Q9.36096 0 7.73361 0Q6.12976 0 4.72878 0.603943Q3.32779 1.20789 2.26295 2.26784Q1.19812 3.32779 0.59906 4.73228Q0 6.13678 0 7.74063Q0 9.43176 0.665054 10.8966Q1.33011 12.3615 2.49748 13.4403Q3.66486 14.5192 5.17624 15.0473L5.17624 8.33557Q5.17624 7.23984 5.5883 6.45668Q6.00037 5.67352 6.78635 5.25925Q7.57233 4.84497 8.67783 4.84497Z" fill="rgba(255,255,255,0.5)"/>
  <path d="M6.04019 18.1763Q6.04019 19.4649 6.70837 20.1338Q7.37656 20.8028 8.67783 20.8028L18.4966 20.8028Q19.7906 20.8028 20.4588 20.1338Q21.127 19.4649 21.127 18.1763L21.127 8.33557Q21.127 7.04697 20.4588 6.38153Q19.7906 5.71609 18.4966 5.71609L8.67783 5.71609Q7.37656 5.71609 6.70837 6.38153Q6.04019 7.04697 6.04019 8.33557Z" fill="#ffffff"/>
 </g>
</svg>
