<?xml version="1.0" encoding="UTF-8"?>
<!--Generator: Apple Native CoreSVG 175.5-->
<!DOCTYPE svg
PUBLIC "-//W3C//DTD SVG 1.1//EN"
       "http://www.w3.org/Graphics/SVG/1.1/DTD/svg11.dtd">
<svg version="1.1" xmlns="http://www.w3.org/2000/svg" xmlns:xlink="http://www.w3.org/1999/xlink" width="18.8086" height="18.8379">
 <g>
  <rect height="18.8379" opacity="0" width="18.8086" x="0" y="0"/>
  <path d="M0.78125 18.8184Q1.10352 18.8184 1.33789 18.584Q1.57227 18.3496 1.57227 18.0273L1.57227 14.7363L4.99023 14.7363Q5.41016 14.7363 5.68359 14.4629Q5.95703 14.1895 5.95703 13.7695L5.95703 10.3516L9.375 10.3516Q9.79492 10.3516 10.0732 10.0781Q10.3516 9.80469 10.3516 9.38477L10.3516 5.9668L13.7598 5.9668Q14.1797 5.9668 14.458 5.68848Q14.7363 5.41016 14.7363 5L14.7363 1.57227L18.0176 1.57227Q18.3496 1.57227 18.5791 1.34277Q18.8086 1.11328 18.8086 0.791016Q18.8086 0.46875 18.5791 0.234375Q18.3496 0 18.0176 0L14.1309 0Q13.7109 0 13.4375 0.27832Q13.1641 0.556641 13.1641 0.976562L13.1641 4.39453L9.74609 4.39453Q9.32617 4.39453 9.05273 4.66797Q8.7793 4.94141 8.7793 5.36133L8.7793 8.7793L5.35156 8.7793Q4.94141 8.7793 4.66309 9.05762Q4.38477 9.33594 4.38477 9.75586L4.38477 13.1641L0.966797 13.1641Q0.546875 13.1641 0.273438 13.4424Q0 13.7207 0 14.1406L0 18.0273Q0 18.3496 0.229492 18.584Q0.458984 18.8184 0.78125 18.8184Z" fill="#ffffff"/>
 </g>
</svg>
