<?xml version="1.0" encoding="UTF-8"?>
<!--Generator: Apple Native CoreSVG 175-->
<!DOCTYPE svg
PUBLIC "-//W3C//DTD SVG 1.1//EN"
       "http://www.w3.org/Graphics/SVG/1.1/DTD/svg11.dtd">
<svg version="1.1" xmlns="http://www.w3.org/2000/svg" xmlns:xlink="http://www.w3.org/1999/xlink" width="20.7377" height="21.0645">
 <g>
  <rect height="21.0645" opacity="0" width="20.7377" x="0" y="0"/>
  <path d="M3.98499 19.6777Q4.151 19.8047 4.36096 19.7754Q4.57092 19.7461 4.84436 19.5508L10.3619 15.5176L15.8893 19.5508Q16.1627 19.7461 16.3776 19.7754Q16.5924 19.8047 16.7584 19.6777Q16.7877 19.6484 16.8268 19.6094Q16.8658 19.5703 16.9049 19.5117L10.694 14.8926Q10.5377 14.7656 10.3668 14.7656Q10.1959 14.7656 10.0397 14.8926L4.67834 18.8574Q4.58069 18.9258 4.54163 18.8965Q4.52209 18.8867 4.55139 18.7598L6.66077 12.4219Q6.69983 12.3047 6.69495 12.1924Q6.69006 12.0801 6.62659 11.9775Q6.56311 11.875 6.45569 11.8066L1.026 7.91992Q0.918579 7.86133 0.93811 7.8125Q0.947876 7.77344 1.07483 7.77344L6.21155 7.80273L5.51819 7.11914L0.820923 7.10938Q0.459595 7.09961 0.274048 7.21191Q0.088501 7.32422 0.0299072 7.51953Q-0.0384521 7.71484 0.0494385 7.91016Q0.137329 8.10547 0.420532 8.31055L5.95764 12.3145L3.82874 18.7988Q3.72131 19.1406 3.76526 19.3506Q3.8092 19.5605 3.98499 19.6777ZM14.5514 12.4805L20.3229 8.31055Q20.6061 8.10547 20.6891 7.91016Q20.7721 7.71484 20.7135 7.51953Q20.6451 7.32422 20.4596 7.21191Q20.274 7.09961 19.9225 7.10938L13.0963 7.12891L11.0065 0.625Q10.8893 0.283203 10.7281 0.141602Q10.567 0 10.3619 0Q10.1666 0 10.0055 0.141602Q9.84436 0.283203 9.73694 0.625L8.01819 5.9668L8.56506 6.51367L10.2936 1.08398Q10.3229 0.957031 10.3619 0.957031Q10.4108 0.957031 10.4498 1.08398L12.4615 7.44141Q12.5201 7.63672 12.6471 7.72949Q12.774 7.82227 12.9791 7.82227L19.6686 7.77344Q19.7858 7.77344 19.8053 7.8125Q19.8151 7.86133 19.7076 7.91992L14.0436 11.9922Z" fill="rgba(255,255,255,0.5)"/>
  <path d="M18.9655 19.2383Q19.0631 19.3359 19.2145 19.3359Q19.3658 19.3359 19.4733 19.2383Q19.5905 19.1211 19.5807 18.9746Q19.5709 18.8281 19.4733 18.7305L4.23889 3.51562Q4.14124 3.4082 3.99475 3.40332Q3.84827 3.39844 3.73108 3.51562Q3.63342 3.61328 3.63342 3.76953Q3.63342 3.92578 3.73108 4.02344Z" fill="#ffffff"/>
 </g>
</svg>
