<?xml version="1.0" encoding="UTF-8"?>
<!--Generator: Apple Native CoreSVG 175.5-->
<!DOCTYPE svg
PUBLIC "-//W3C//DTD SVG 1.1//EN"
       "http://www.w3.org/Graphics/SVG/1.1/DTD/svg11.dtd">
<svg version="1.1" xmlns="http://www.w3.org/2000/svg" xmlns:xlink="http://www.w3.org/1999/xlink" width="18.6523" height="20.459">
 <g>
  <rect height="20.459" opacity="0" width="18.6523" x="0" y="0"/>
  <path d="M9.24805 20.459L9.375 20.459Q10.3906 20.459 10.8203 20.0781Q11.25 19.6973 11.25 18.6816L11.25 12.0996L9.98047 12.793L15.7031 16.1035Q16.0254 16.2695 16.2891 16.3721Q16.5527 16.4746 16.7871 16.4746Q17.1973 16.4746 17.5049 16.2061Q17.8125 15.9375 18.1445 15.4297L18.2129 15.3223Q18.6523 14.6582 18.6523 14.1504Q18.6523 13.7402 18.3789 13.4229Q18.1055 13.1055 17.5977 12.8223L11.7676 9.45312L11.7676 10.8496L17.5879 7.63672Q18.0957 7.36328 18.3594 7.05078Q18.623 6.73828 18.623 6.32812Q18.623 6.07422 18.5205 5.79102Q18.418 5.50781 18.2324 5.17578L18.1641 5.04883Q17.8418 4.51172 17.5195 4.24316Q17.1973 3.97461 16.7969 3.97461Q16.5625 3.97461 16.2891 4.07715Q16.0156 4.17969 15.6934 4.3457L9.99023 7.65625L11.25 8.34961L11.25 1.77734Q11.25 0.761719 10.8203 0.380859Q10.3906 0 9.375 0L9.24805 0Q8.23242 0 7.80273 0.380859Q7.37305 0.761719 7.37305 1.77734L7.37305 8.34961L8.66211 7.65625L2.93945 4.3457Q2.61719 4.16016 2.32422 4.05273Q2.03125 3.94531 1.77734 3.94531Q1.37695 3.94531 1.04492 4.22363Q0.712891 4.50195 0.458984 5.06836L0.400391 5.17578Q0.244141 5.51758 0.146484 5.80566Q0.0488281 6.09375 0.0488281 6.34766Q0.0488281 6.73828 0.292969 7.05078Q0.537109 7.36328 1.05469 7.64648L6.88477 10.8496L6.88477 9.45312L1.04492 12.8223Q0.537109 13.1055 0.268555 13.418Q0 13.7305 0 14.1309Q0 14.3848 0.112305 14.6777Q0.224609 14.9707 0.410156 15.3125L0.46875 15.4004Q0.771484 15.9375 1.08887 16.2109Q1.40625 16.4844 1.82617 16.4844Q2.06055 16.4844 2.33887 16.377Q2.61719 16.2695 2.92969 16.1035L8.66211 12.793L7.37305 12.0996L7.37305 18.6816Q7.37305 19.6973 7.80273 20.0781Q8.23242 20.459 9.24805 20.459Z" fill="#ffffff"/>
 </g>
</svg>
