<?xml version="1.0" encoding="UTF-8"?>
<!--Generator: Apple Native CoreSVG 175-->
<!DOCTYPE svg
PUBLIC "-//W3C//DTD SVG 1.1//EN"
       "http://www.w3.org/Graphics/SVG/1.1/DTD/svg11.dtd">
<svg version="1.1" xmlns="http://www.w3.org/2000/svg" xmlns:xlink="http://www.w3.org/1999/xlink" width="20.7377" height="21.0645">
 <g>
  <rect height="21.0645" opacity="0" width="20.7377" x="0" y="0"/>
  <path d="M5.54749 7.11914L0.820923 7.10938Q0.459595 7.09961 0.274048 7.21191Q0.088501 7.32422 0.0299072 7.51953Q-0.0384521 7.71484 0.0494385 7.91016Q0.137329 8.10547 0.420532 8.31055L5.95764 12.3145L3.82874 18.7988Q3.72131 19.1406 3.76526 19.3506Q3.8092 19.5605 3.98499 19.6777Q4.151 19.8047 4.36096 19.7754Q4.57092 19.7461 4.84436 19.5508L10.3619 15.5176L15.8893 19.5508Q16.1627 19.7461 16.3727 19.7754Q16.5826 19.8047 16.7584 19.6777Q16.8756 19.5898 16.9293 19.4336Q16.983 19.2773 16.9049 19.0332L16.6315 18.2129ZM14.5319 12.5L20.3229 8.31055Q20.6061 8.10547 20.6891 7.91016Q20.7721 7.71484 20.7135 7.51953Q20.6451 7.32422 20.4596 7.21191Q20.274 7.09961 19.9225 7.10938L13.0963 7.12891L11.0065 0.625Q10.8893 0.283203 10.7281 0.141602Q10.567 0 10.3619 0Q10.1666 0 10.0055 0.141602Q9.84436 0.283203 9.73694 0.625L8.01819 5.98633Z" fill="rgba(255,255,255,0.5)"/>
  <path d="M18.9948 19.2383Q19.0924 19.3359 19.2438 19.3359Q19.3951 19.3359 19.5026 19.2383Q19.6198 19.1211 19.61 18.9746Q19.6002 18.8281 19.5026 18.7305L4.26819 3.51562Q4.17053 3.4082 4.02405 3.40332Q3.87756 3.39844 3.76038 3.51562Q3.66272 3.61328 3.66272 3.76953Q3.66272 3.92578 3.76038 4.02344Z" fill="#ffffff"/>
 </g>
</svg>
