<?xml version="1.0" encoding="UTF-8"?>
<!--Generator: Apple Native CoreSVG 175.5-->
<!DOCTYPE svg
PUBLIC "-//W3C//DTD SVG 1.1//EN"
       "http://www.w3.org/Graphics/SVG/1.1/DTD/svg11.dtd">
<svg version="1.1" xmlns="http://www.w3.org/2000/svg" xmlns:xlink="http://www.w3.org/1999/xlink" width="13.3398" height="17.7637">
 <g>
  <rect height="17.7637" opacity="0" width="13.3398" x="0" y="0"/>
  <path d="M0.839844 17.7246L12.4902 17.7246Q12.8516 17.7246 13.0957 17.5049Q13.3398 17.2852 13.3398 16.9141Q13.3398 16.543 13.0957 16.3281Q12.8516 16.1133 12.4902 16.1133L3.0957 16.1133L3.0957 16.0645Q3.79883 15.8301 4.34082 15.2148Q4.88281 14.5996 5.19531 13.7158Q5.50781 12.832 5.50781 11.7676Q5.50781 10.8496 5.35156 10.0928Q5.19531 9.33594 4.99023 8.62793Q4.78516 7.91992 4.62891 7.1582Q4.47266 6.39648 4.47266 5.46875Q4.47266 4.33594 4.98047 3.48145Q5.48828 2.62695 6.4502 2.14355Q7.41211 1.66016 8.76953 1.66016Q9.59961 1.66016 10.1562 1.77246Q10.7129 1.88477 11.084 1.99707Q11.4551 2.10938 11.7188 2.10938Q12.0898 2.10938 12.2705 1.90918Q12.4512 1.70898 12.4512 1.38672Q12.4512 1.08398 12.2607 0.859375Q12.0703 0.634766 11.6602 0.46875Q11.0156 0.214844 10.2588 0.107422Q9.50195 0 8.62305 0Q6.74805 0 5.39062 0.688477Q4.0332 1.37695 3.2959 2.63672Q2.55859 3.89648 2.55859 5.60547Q2.55859 6.42578 2.72949 7.24609Q2.90039 8.06641 3.11523 8.8623Q3.33008 9.6582 3.50098 10.4102Q3.67188 11.1621 3.67188 11.8457Q3.67188 12.9492 3.27148 13.7891Q2.87109 14.6289 2.21191 15.1758Q1.55273 15.7227 0.771484 15.9375Q0.371094 16.0645 0.185547 16.2891Q0 16.5137 0 16.8848Q0 17.2559 0.234375 17.4902Q0.46875 17.7246 0.839844 17.7246ZM0.126953 8.86719Q0.126953 9.16992 0.336914 9.375Q0.546875 9.58008 0.849609 9.58008L10.4004 9.58008Q10.7031 9.58008 10.9082 9.375Q11.1133 9.16992 11.1133 8.86719Q11.1133 8.57422 10.9082 8.36426Q10.7031 8.1543 10.4004 8.1543L0.849609 8.1543Q0.546875 8.1543 0.336914 8.36426Q0.126953 8.57422 0.126953 8.86719Z" fill="#ffffff"/>
 </g>
</svg>
