<?xml version="1.0" encoding="UTF-8"?>
<!--Generator: Apple Native CoreSVG 175-->
<!DOCTYPE svg
PUBLIC "-//W3C//DTD SVG 1.1//EN"
       "http://www.w3.org/Graphics/SVG/1.1/DTD/svg11.dtd">
<svg version="1.1" xmlns="http://www.w3.org/2000/svg" xmlns:xlink="http://www.w3.org/1999/xlink" width="17.2852" height="17.3145">
 <g>
  <rect height="17.3145" opacity="0" width="17.2852" x="0" y="0"/>
  <path d="M2.62695 17.3145L14.6484 17.3145Q15.957 17.3145 16.6211 16.6455Q17.2852 15.9766 17.2852 14.6875L17.2852 2.65625Q17.2852 1.37695 16.6211 0.703125Q15.957 0.0292969 14.6484 0.0292969L2.62695 0.0292969Q1.33789 0.0292969 0.668945 0.693359Q0 1.35742 0 2.65625L0 14.6875Q0 15.9863 0.668945 16.6504Q1.33789 17.3145 2.62695 17.3145Z" fill="rgba(255,255,255,0.25)"/>
  <path d="M5.48828 12.8516Q5.3418 12.8516 5.24902 12.7588Q5.15625 12.666 5.15625 12.5195Q5.15625 12.373 5.23926 12.2949Q5.32227 12.2168 5.44922 12.1875Q6.20117 12.041 6.62109 11.4746Q7.04102 10.9082 7.04102 10.2051Q7.04102 9.87305 6.9873 9.55566Q6.93359 9.23828 6.8457 8.93555L5.70312 8.93555Q5.55664 8.93555 5.47363 8.85254Q5.39062 8.76953 5.39062 8.62305Q5.39062 8.48633 5.47363 8.39844Q5.55664 8.31055 5.70312 8.31055L6.67969 8.31055Q6.57227 7.96875 6.50391 7.60742Q6.43555 7.24609 6.43555 6.86523Q6.43555 5.70312 7.14355 4.97559Q7.85156 4.24805 9.27734 4.24805Q9.86328 4.24805 10.2588 4.36035Q10.6543 4.47266 10.8789 4.57031Q11.0938 4.6582 11.1475 4.74609Q11.2012 4.83398 11.2012 4.94141Q11.2012 5.06836 11.1328 5.15137Q11.0645 5.23438 10.9082 5.23438Q10.7617 5.23438 10.4297 5.05859Q10.0977 4.88281 9.29688 4.88281Q8.17383 4.88281 7.63672 5.43945Q7.09961 5.99609 7.09961 6.8457Q7.09961 7.23633 7.17773 7.59766Q7.25586 7.95898 7.36328 8.31055L10.2148 8.31055Q10.3516 8.31055 10.4395 8.39844Q10.5273 8.48633 10.5273 8.62305Q10.5273 8.76953 10.4395 8.85254Q10.3516 8.93555 10.2148 8.93555L7.5293 8.93555Q7.60742 9.22852 7.66113 9.53613Q7.71484 9.84375 7.71484 10.1953Q7.71484 10.7715 7.43652 11.333Q7.1582 11.8945 6.75781 12.207L11.2793 12.207Q11.4258 12.207 11.5186 12.2949Q11.6113 12.3828 11.6113 12.5293Q11.6113 12.6758 11.5186 12.7637Q11.4258 12.8516 11.2793 12.8516Z" fill="#ffffff"/>
 </g>
</svg>
