<?xml version="1.0" encoding="UTF-8"?>
<!--Generator: Apple Native CoreSVG 175.5-->
<!DOCTYPE svg
PUBLIC "-//W3C//DTD SVG 1.1//EN"
       "http://www.w3.org/Graphics/SVG/1.1/DTD/svg11.dtd">
<svg version="1.1" xmlns="http://www.w3.org/2000/svg" xmlns:xlink="http://www.w3.org/1999/xlink" width="15.9082" height="15.9277">
 <g>
  <rect height="15.9277" opacity="0" width="15.9082" x="0" y="0"/>
  <path d="M0 13.7598Q0 14.7754 0.581055 15.3467Q1.16211 15.918 2.1875 15.918L13.7207 15.918Q14.7559 15.918 15.332 15.3467Q15.9082 14.7754 15.9082 13.7598L15.9082 2.1582Q15.9082 1.13281 15.332 0.566406Q14.7559 0 13.7207 0L2.1875 0Q1.16211 0 0.581055 0.566406Q0 1.13281 0 2.1582ZM1.57227 13.3887L1.57227 2.5293Q1.57227 2.08008 1.82129 1.82617Q2.07031 1.57227 2.50977 1.57227L13.3984 1.57227Q13.8477 1.57227 14.0918 1.82617Q14.3359 2.08008 14.3359 2.5293L14.3359 13.3887Q14.3359 13.8379 14.0918 14.0918Q13.8477 14.3457 13.3984 14.3457L2.50977 14.3457Q2.07031 14.3457 1.82129 14.0918Q1.57227 13.8379 1.57227 13.3887Z" fill="#ffffff"/>
 </g>
</svg>
