<?xml version="1.0" encoding="UTF-8"?>
<!--Generator: Apple Native CoreSVG 175-->
<!DOCTYPE svg
PUBLIC "-//W3C//DTD SVG 1.1//EN"
       "http://www.w3.org/Graphics/SVG/1.1/DTD/svg11.dtd">
<svg version="1.1" xmlns="http://www.w3.org/2000/svg" xmlns:xlink="http://www.w3.org/1999/xlink" width="19.1554" height="23.5815">
 <g>
  <rect height="23.5815" opacity="0" width="19.1554" x="0" y="0"/>
  <path d="M9.57428 21.3602Q11.552 21.3602 13.2834 20.614Q15.0148 19.8679 16.3355 18.5472Q17.6562 17.2266 18.4058 15.4916Q19.1554 13.7566 19.1554 11.7859Q19.1554 9.81522 18.4058 8.08022Q17.6562 6.34521 16.3355 5.02457Q15.0148 3.70392 13.282 2.95776Q11.5492 2.21161 9.57153 2.21161Q7.60086 2.21161 5.86586 2.95776Q4.13086 3.70392 2.81502 5.02457Q1.49918 6.34521 0.749588 8.08022Q0 9.81522 0 11.7859Q0 13.7566 0.746078 15.4916Q1.49216 17.2266 2.81288 18.5472Q4.13361 19.8679 5.86853 20.614Q7.60345 21.3602 9.57428 21.3602ZM9.57428 12.9179Q9.11407 12.9179 8.79707 12.5912Q8.48007 12.2644 8.48007 11.7957Q8.48007 11.4632 8.675 11.1927Q8.86993 10.9222 9.24225 10.7495L9.24225 4.90036Q9.24225 4.75784 9.34265 4.66446Q9.44305 4.57108 9.57153 4.57108Q9.72382 4.57108 9.82422 4.66446Q9.92462 4.75784 9.92462 4.90036L9.92462 10.7733Q10.2997 10.9335 10.4875 11.2006Q10.6754 11.4676 10.6754 11.7957Q10.6754 12.2742 10.3571 12.5961Q10.0388 12.9179 9.57428 12.9179ZM9.01871 2.6828L10.1312 2.6828L10.1312 0.574951Q10.1312 0.332336 9.97269 0.166168Q9.81415 0 9.57153 0Q9.33868 0 9.1787 0.166168Q9.01871 0.332336 9.01871 0.574951ZM15.7777 5.10223L16.5524 5.91019L18.1172 4.32846Q18.3141 4.13864 18.3141 3.89603Q18.3141 3.68973 18.1561 3.53172Q17.998 3.37372 17.7652 3.37372Q17.5215 3.37372 17.3442 3.55545Z" fill="#ffffff"/>
 </g>
</svg>
