<?xml version="1.0" encoding="UTF-8"?>
<!--Generator: Apple Native CoreSVG 175.5-->
<!DOCTYPE svg
PUBLIC "-//W3C//DTD SVG 1.1//EN"
       "http://www.w3.org/Graphics/SVG/1.1/DTD/svg11.dtd">
<svg version="1.1" xmlns="http://www.w3.org/2000/svg" xmlns:xlink="http://www.w3.org/1999/xlink" width="18.4082" height="18.3691">
 <g>
  <rect height="18.3691" opacity="0" width="18.4082" x="0" y="0"/>
  <path d="M0 11.0059Q0 12.168 0.556641 13.1055Q1.11328 14.043 2.06055 14.5947Q3.00781 15.1465 4.16992 15.1465Q5.14648 15.1465 6.04492 14.79Q6.94336 14.4336 7.37305 13.5742L7.4707 13.5742Q7.4707 14.0625 7.24609 14.502Q7.02148 14.9414 6.68945 15.3223Q6.35742 15.7031 6.02051 16.0156Q5.68359 16.3281 5.46875 16.5527Q5.20508 16.8262 5.1416 17.1289Q5.07812 17.4316 5.18066 17.7002Q5.2832 17.9688 5.52246 18.1348Q5.76172 18.3008 6.10352 18.3008L12.3047 18.3008Q12.6465 18.3008 12.8809 18.1348Q13.1152 17.9688 13.2227 17.7002Q13.3301 17.4316 13.2666 17.1289Q13.2031 16.8262 12.9395 16.5527Q12.7148 16.3281 12.3828 16.0156Q12.0508 15.7031 11.7188 15.3223Q11.3867 14.9414 11.1621 14.502Q10.9375 14.0625 10.9375 13.5742L11.0352 13.5742Q11.4648 14.4336 12.3633 14.79Q13.2617 15.1465 14.2285 15.1465Q15.4004 15.1465 16.3477 14.5947Q17.2949 14.043 17.8516 13.1055Q18.4082 12.168 18.4082 11.0059Q18.4082 9.83398 17.8662 8.85254Q17.3242 7.87109 16.3965 7.27539Q15.4688 6.67969 14.3066 6.67969Q13.6328 6.67969 12.9736 6.89941Q12.3145 7.11914 11.7773 7.54883Q12.6855 6.80664 13.0469 5.92773Q13.4082 5.04883 13.4082 4.20898Q13.4082 3.03711 12.8418 2.08496Q12.2754 1.13281 11.3184 0.566406Q10.3613 0 9.19922 0Q8.04688 0 7.08984 0.566406Q6.13281 1.13281 5.56641 2.08496Q5 3.03711 5 4.20898Q5 5.04883 5.36133 5.92773Q5.72266 6.80664 6.63086 7.54883Q6.09375 7.11914 5.43457 6.89941Q4.77539 6.67969 4.10156 6.67969Q2.93945 6.67969 2.01172 7.27539Q1.08398 7.87109 0.541992 8.85254Q0 9.83398 0 11.0059Z" fill="#ffffff"/>
 </g>
</svg>
