<?xml version="1.0" encoding="UTF-8"?>
<!--Generator: Apple Native CoreSVG 175.5-->
<!DOCTYPE svg
PUBLIC "-//W3C//DTD SVG 1.1//EN"
       "http://www.w3.org/Graphics/SVG/1.1/DTD/svg11.dtd">
<svg version="1.1" xmlns="http://www.w3.org/2000/svg" xmlns:xlink="http://www.w3.org/1999/xlink" width="11.2891" height="17.9785">
 <g>
  <rect height="17.9785" opacity="0" width="11.2891" x="0" y="0"/>
  <path d="M1.30859 17.9785L10.4004 17.9785Q10.7715 17.9785 11.0254 17.7588Q11.2793 17.5391 11.2793 17.1582Q11.2793 16.7871 11.0254 16.5576Q10.7715 16.3281 10.4004 16.3281L2.06055 16.3281L2.06055 16.2402L7.34375 9.83398Q7.5293 9.59961 7.63184 9.36523Q7.73438 9.13086 7.73438 8.89648Q7.73438 8.66211 7.63184 8.41797Q7.5293 8.17383 7.33398 7.94922L2.07031 1.73828L2.07031 1.65039L10.4004 1.65039Q10.7812 1.65039 11.0352 1.4209Q11.2891 1.19141 11.2891 0.820312Q11.2891 0.439453 11.0352 0.219727Q10.7812 0 10.4004 0L1.31836 0Q0.898438 0 0.605469 0.170898Q0.3125 0.341797 0.161133 0.620117Q0.00976562 0.898438 0.00976562 1.2207Q0.00976562 1.47461 0.102539 1.72363Q0.195312 1.97266 0.390625 2.19727L6.02539 8.83789L6.02539 8.94531L0.371094 15.7812Q0.185547 16.0059 0.0927734 16.2549Q0 16.5039 0 16.7578Q0 17.0801 0.151367 17.3584Q0.302734 17.6367 0.595703 17.8076Q0.888672 17.9785 1.30859 17.9785Z" fill="#ffffff"/>
 </g>
</svg>
