<?xml version="1.0" encoding="UTF-8"?>
<!--Generator: Apple Native CoreSVG 175.5-->
<!DOCTYPE svg
PUBLIC "-//W3C//DTD SVG 1.1//EN"
       "http://www.w3.org/Graphics/SVG/1.1/DTD/svg11.dtd">
<svg version="1.1" xmlns="http://www.w3.org/2000/svg" xmlns:xlink="http://www.w3.org/1999/xlink" width="25.0293" height="24.834">
 <g>
  <rect height="24.834" opacity="0" width="25.0293" x="0" y="0"/>
  <path d="M17.8027 15.6738Q17.8027 14.5898 17.3877 13.6328Q16.9727 12.6758 16.2451 11.9434Q15.5176 11.2109 14.5605 10.7959Q13.6035 10.3809 12.5195 10.3809Q11.4258 10.3809 10.4688 10.7959Q9.51172 11.2109 8.78418 11.9434Q8.05664 12.6758 7.6416 13.6328Q7.22656 14.5898 7.22656 15.6738Q7.22656 16.2109 7.33398 16.7139Q7.44141 17.2168 7.64648 17.6758L17.3828 17.6758Q17.5879 17.2168 17.6953 16.7139Q17.8027 16.2109 17.8027 15.6738ZM2.11914 16.2305L4.52148 16.2305Q4.90234 16.2305 5.15137 16.001Q5.40039 15.7715 5.40039 15.4395Q5.39062 15.1172 5.14648 14.8828Q4.90234 14.6484 4.52148 14.6484L2.11914 14.6484Q1.73828 14.6484 1.49414 14.8828Q1.25 15.1172 1.25 15.4395Q1.25 15.7715 1.49414 16.001Q1.73828 16.2305 2.11914 16.2305ZM6.29883 10.5957Q6.5625 10.8691 6.90918 10.8789Q7.25586 10.8887 7.48047 10.6543Q7.70508 10.4199 7.7002 10.0781Q7.69531 9.73633 7.42188 9.47266L5.72266 7.77344Q5.44922 7.5 5.11719 7.5Q4.78516 7.5 4.55078 7.72461Q4.31641 7.94922 4.32129 8.28613Q4.32617 8.62305 4.59961 8.89648ZM17.5488 10.6543Q17.7832 10.8789 18.125 10.874Q18.4668 10.8691 18.7305 10.5957L20.4297 8.89648Q20.7031 8.62305 20.708 8.29102Q20.7129 7.95898 20.4785 7.72461Q20.2539 7.49023 19.917 7.49512Q19.5801 7.5 19.3066 7.77344L17.6074 9.47266Q17.334 9.73633 17.3242 10.083Q17.3145 10.4297 17.5488 10.6543ZM20.5078 16.2305L22.9102 16.2305Q23.291 16.2305 23.5352 16.001Q23.7793 15.7715 23.7793 15.4395Q23.7793 15.1172 23.5352 14.8828Q23.291 14.6484 22.9102 14.6484L20.5078 14.6484Q20.1367 14.6484 19.8828 14.8828Q19.6289 15.1172 19.6289 15.4395Q19.6387 15.7715 19.8877 16.001Q20.1367 16.2305 20.5078 16.2305Z" fill="rgba(255,255,255,0.5)"/>
  <path d="M0.849609 20.3809L24.1797 20.3809Q24.5215 20.3809 24.7754 20.1514Q25.0293 19.9219 25.0293 19.5996Q25.0293 19.2773 24.7754 19.0479Q24.5215 18.8184 24.1797 18.8184L0.849609 18.8184Q0.507812 18.8184 0.253906 19.0479Q0 19.2773 0 19.5996Q0 19.9219 0.253906 20.1514Q0.507812 20.3809 0.849609 20.3809ZM12.5195 7.96875Q12.8418 7.96875 13.0762 7.71973Q13.3105 7.4707 13.3105 7.10938L13.3105 3.44727L13.1934 1.97266L13.916 2.80273L15.1367 4.04297Q15.2441 4.14062 15.3809 4.2041Q15.5176 4.26758 15.6543 4.26758Q15.9473 4.26758 16.1377 4.08203Q16.3281 3.89648 16.3281 3.61328Q16.3281 3.45703 16.2695 3.33496Q16.2109 3.21289 16.0938 3.0957L13.0469 0.253906Q12.7637 0 12.5195 0Q12.2656 0 11.9824 0.253906L8.93555 3.0957Q8.81836 3.21289 8.75977 3.33496Q8.70117 3.45703 8.70117 3.61328Q8.70117 3.89648 8.8916 4.08203Q9.08203 4.26758 9.375 4.26758Q9.51172 4.26758 9.64844 4.2041Q9.78516 4.14062 9.89258 4.04297L11.2109 2.70508L11.8359 1.97266L11.7188 3.44727L11.7188 7.10938Q11.7188 7.4707 11.9531 7.71973Q12.1875 7.96875 12.5195 7.96875Z" fill="#ffffff"/>
 </g>
</svg>
