<?xml version="1.0" encoding="UTF-8"?>
<!--Generator: Apple Native CoreSVG 175.5-->
<!DOCTYPE svg
PUBLIC "-//W3C//DTD SVG 1.1//EN"
       "http://www.w3.org/Graphics/SVG/1.1/DTD/svg11.dtd">
<svg version="1.1" xmlns="http://www.w3.org/2000/svg" xmlns:xlink="http://www.w3.org/1999/xlink" width="14.3164" height="21.6113">
 <g>
  <rect height="21.6113" opacity="0" width="14.3164" x="0" y="0"/>
  <path d="M3.02734 21.6016L11.2891 21.6016Q12.8027 21.6016 13.5596 20.8398Q14.3164 20.0781 14.3164 18.5449L14.3164 3.06641Q14.3164 1.54297 13.5596 0.771484Q12.8027 0 11.2891 0L3.02734 0Q1.51367 0 0.756836 0.771484Q0 1.54297 0 3.06641L0 18.5449Q0 20.0781 0.756836 20.8398Q1.51367 21.6016 3.02734 21.6016ZM3.10547 20.0293Q2.34375 20.0293 1.95801 19.6387Q1.57227 19.248 1.57227 18.5156L1.57227 3.0957Q1.57227 2.36328 1.95801 1.96777Q2.34375 1.57227 3.10547 1.57227L11.2012 1.57227Q11.9629 1.57227 12.3535 1.96777Q12.7441 2.36328 12.7441 3.0957L12.7441 18.5156Q12.7441 19.248 12.3535 19.6387Q11.9629 20.0293 11.2012 20.0293Z" fill="rgba(255,255,255,0.5)"/>
  <path d="M3.75977 9.0625L10.5078 9.0625Q10.9766 9.0625 11.1816 8.8623Q11.3867 8.66211 11.3867 8.20312L11.3867 3.76953Q11.3867 3.31055 11.1816 3.11035Q10.9766 2.91016 10.5078 2.91016L3.75977 2.91016Q3.29102 2.91016 3.09082 3.11035Q2.89062 3.31055 2.89062 3.76953L2.89062 8.20312Q2.89062 8.66211 3.09082 8.8623Q3.29102 9.0625 3.75977 9.0625ZM3.75977 18.7012L10.5078 18.7012Q10.9766 18.7012 11.1816 18.501Q11.3867 18.3008 11.3867 17.8418L11.3867 13.4082Q11.3867 12.9492 11.1816 12.749Q10.9766 12.5488 10.5078 12.5488L3.75977 12.5488Q3.29102 12.5488 3.09082 12.749Q2.89062 12.9492 2.89062 13.4082L2.89062 17.8418Q2.89062 18.3008 3.09082 18.501Q3.29102 18.7012 3.75977 18.7012Z" fill="#ffffff"/>
 </g>
</svg>
