<?xml version="1.0" encoding="UTF-8"?>
<!--Generator: Apple Native CoreSVG 175-->
<!DOCTYPE svg
PUBLIC "-//W3C//DTD SVG 1.1//EN"
       "http://www.w3.org/Graphics/SVG/1.1/DTD/svg11.dtd">
<svg version="1.1" xmlns="http://www.w3.org/2000/svg" xmlns:xlink="http://www.w3.org/1999/xlink" width="19.1602" height="19.1504">
 <g>
  <rect height="19.1504" opacity="0" width="19.1602" x="0" y="0"/>
  <path d="M9.57031 19.1406Q11.5527 19.1406 13.2861 18.3984Q15.0195 17.6562 16.3379 16.333Q17.6562 15.0098 18.4082 13.2764Q19.1602 11.543 19.1602 9.57031Q19.1602 7.59766 18.4082 5.86426Q17.6562 4.13086 16.3379 2.80762Q15.0195 1.48438 13.2861 0.742188Q11.5527 0 9.57031 0Q7.59766 0 5.86426 0.742188Q4.13086 1.48438 2.81738 2.80762Q1.50391 4.13086 0.751953 5.86426Q0 7.59766 0 9.57031Q0 11.543 0.74707 13.2764Q1.49414 15.0098 2.8125 16.333Q4.13086 17.6562 5.86914 18.3984Q7.60742 19.1406 9.57031 19.1406Z" fill="rgba(255,255,255,0.25)"/>
  <path d="M9.53125 14.0039Q9.35547 14.0039 9.25293 13.8916Q9.15039 13.7793 9.15039 13.6035L9.15039 5.87891L6.48438 5.87891Q6.33789 5.87891 6.24023 5.78613Q6.14258 5.69336 6.14258 5.54688Q6.14258 5.39062 6.24023 5.29785Q6.33789 5.20508 6.48438 5.20508L12.666 5.20508Q12.8125 5.20508 12.9053 5.29785Q12.998 5.39062 12.998 5.54688Q12.998 5.69336 12.9053 5.78613Q12.8125 5.87891 12.666 5.87891L9.90234 5.87891L9.90234 13.6035Q9.90234 13.7891 9.7998 13.8965Q9.69727 14.0039 9.53125 14.0039Z" fill="#ffffff"/>
 </g>
</svg>
