<?xml version="1.0" encoding="UTF-8"?>
<!--Generator: Apple Native CoreSVG 175-->
<!DOCTYPE svg
PUBLIC "-//W3C//DTD SVG 1.1//EN"
       "http://www.w3.org/Graphics/SVG/1.1/DTD/svg11.dtd">
<svg version="1.1" xmlns="http://www.w3.org/2000/svg" xmlns:xlink="http://www.w3.org/1999/xlink" width="16.7307" height="18.7122">
 <g>
  <rect height="18.7122" opacity="0" width="16.7307" x="0" y="0"/>
  <path d="M6.27899 3.19931L1.03439 3.19931L1.03439 15.661Q1.03439 16.8274 1.76407 17.55Q2.49374 18.2727 3.66989 18.2727Q4.83368 18.2727 5.55634 17.55Q6.27899 16.8274 6.27899 15.661ZM15.654 15.2629L10.4121 15.2629L10.4121 15.661Q10.4121 16.8274 11.1419 17.55Q11.8716 18.2727 13.045 18.2727Q14.2114 18.2727 14.9327 17.55Q15.654 16.8274 15.654 15.661Z" fill="rgba(255,255,255,0.25)"/>
  <path d="M0.370331 0.740662L6.98242 0.740662Q7.1344 0.740662 7.24495 0.630112Q7.3555 0.519562 7.3555 0.367584Q7.3555 0.218353 7.24495 0.109177Q7.1344 0 6.98242 0L0.370331 0Q0.21286 0 0.10643 0.109177Q0 0.218353 0 0.367584Q0 0.519562 0.10643 0.630112Q0.21286 0.740662 0.370331 0.740662ZM3.66989 18.7082Q5.03754 18.7082 5.87387 17.8719Q6.71021 17.0355 6.71021 15.661L6.71021 0.454712L5.99136 0.454712L5.99136 15.661Q5.99136 16.7052 5.35133 17.3452Q4.7113 17.9852 3.66989 17.9852Q2.61612 17.9852 1.9725 17.3452Q1.32889 16.7052 1.32889 15.661L1.32889 0.454712L0.600433 0.454712L0.600433 15.661Q0.600433 17.0355 1.44653 17.8719Q2.29263 18.7082 3.66989 18.7082ZM1.32889 6.42929L1.32889 5.793L3.43399 5.793Q3.56293 5.793 3.65784 5.88516Q3.75275 5.97733 3.75275 6.10352Q3.75275 6.24496 3.66058 6.33713Q3.56842 6.42929 3.43674 6.42929ZM1.32889 9.64966L1.32889 9.02039L3.43674 9.02039Q3.56567 9.02039 3.65921 9.11392Q3.75275 9.20746 3.75275 9.33365Q3.75275 9.46793 3.66058 9.55879Q3.56842 9.64966 3.43674 9.64966ZM1.32889 12.8796L1.32889 12.2433L3.43399 12.2433Q3.56293 12.2433 3.65997 12.3369Q3.75702 12.4304 3.75702 12.5636Q3.75275 12.6953 3.66196 12.7875Q3.57117 12.8796 3.43399 12.8796ZM9.74808 0.740662L16.3603 0.740662Q16.5096 0.740662 16.6201 0.630112Q16.7307 0.519562 16.7307 0.367584Q16.7307 0.218353 16.6201 0.109177Q16.5096 0 16.3603 0L9.74808 0Q9.58801 0 9.48151 0.109177Q9.375 0.218353 9.375 0.367584Q9.375 0.519562 9.48151 0.630112Q9.58801 0.740662 9.74808 0.740662ZM13.045 18.7082Q14.4197 18.7082 15.2538 17.8719Q16.088 17.0355 16.088 15.661L16.088 0.454712L15.3693 0.454712L15.3693 15.661Q15.3693 16.7052 14.7292 17.3452Q14.0892 17.9852 13.045 17.9852Q11.9939 17.9852 11.349 17.3452Q10.704 16.7052 10.704 15.661L10.704 0.454712L9.97543 0.454712L9.97543 15.661Q9.97543 17.0355 10.8215 17.8719Q11.6676 18.7082 13.045 18.7082ZM10.554 6.42929L12.8145 6.42929Q12.9462 6.42929 13.0405 6.33713Q13.1349 6.24496 13.1349 6.10352Q13.1349 5.97733 13.0413 5.88516Q12.9477 5.793 12.8119 5.793L10.554 5.793ZM10.554 9.64966L12.8145 9.64966Q12.9462 9.64966 13.0405 9.55879Q13.1349 9.46793 13.1349 9.33365Q13.1349 9.20746 13.0392 9.11392Q12.9434 9.02039 12.8145 9.02039L10.554 9.02039ZM10.554 12.8796L12.8119 12.8796Q12.9462 12.8796 13.0405 12.7875Q13.1349 12.6953 13.1322 12.5636Q13.1322 12.4304 13.0399 12.3369Q12.9477 12.2433 12.8119 12.2433L10.554 12.2433Z" fill="#ffffff"/>
 </g>
</svg>
