<?xml version="1.0" encoding="UTF-8"?>
<!--Generator: Apple Native CoreSVG 175.5-->
<!DOCTYPE svg
PUBLIC "-//W3C//DTD SVG 1.1//EN"
       "http://www.w3.org/Graphics/SVG/1.1/DTD/svg11.dtd">
<svg version="1.1" xmlns="http://www.w3.org/2000/svg" xmlns:xlink="http://www.w3.org/1999/xlink" width="22.7441" height="14.5605">
 <g>
  <rect height="14.5605" opacity="0" width="22.7441" x="0" y="0"/>
  <path d="M17.5781 14.5508Q18.8281 14.5508 19.751 13.9795Q20.6738 13.4082 21.1133 12.3535L21.1719 12.3535L21.1719 13.7402Q21.1719 14.1211 21.3916 14.3408Q21.6113 14.5605 21.9531 14.5605Q22.3047 14.5605 22.5244 14.3359Q22.7441 14.1113 22.7441 13.7305L22.7441 4.47266Q22.7441 4.10156 22.5244 3.8623Q22.3047 3.62305 21.9531 3.62305Q21.6113 3.62305 21.3916 3.8623Q21.1719 4.10156 21.1719 4.47266L21.1719 5.84961L21.1133 5.84961Q20.8203 5.16602 20.2979 4.66797Q19.7754 4.16992 19.0771 3.90625Q18.3789 3.64258 17.5781 3.64258Q16.25 3.64258 15.2588 4.32617Q14.2676 5.00977 13.7158 6.24023Q13.1641 7.4707 13.1641 9.10156Q13.1641 10.7422 13.7158 11.9678Q14.2676 13.1934 15.2588 13.8721Q16.25 14.5508 17.5781 14.5508ZM17.9688 13.125Q17.0215 13.125 16.3184 12.6318Q15.6152 12.1387 15.2344 11.2354Q14.8535 10.332 14.8535 9.10156Q14.8535 7.86133 15.2344 6.95801Q15.6152 6.05469 16.3184 5.56152Q17.0215 5.06836 17.9688 5.06836Q18.916 5.06836 19.6289 5.57129Q20.3418 6.07422 20.7324 6.9873Q21.123 7.90039 21.123 9.12109Q21.123 10.3418 20.7373 11.2402Q20.3516 12.1387 19.6387 12.6318Q18.9258 13.125 17.9688 13.125ZM0.820312 14.4824Q1.21094 14.4824 1.42578 14.3164Q1.64062 14.1504 1.77734 13.7402L3.03711 10.293L8.79883 10.293L10.0586 13.7402Q10.1953 14.1504 10.4102 14.3164Q10.625 14.4824 11.0059 14.4824Q11.3965 14.4824 11.626 14.2676Q11.8555 14.0527 11.8555 13.6816Q11.8555 13.457 11.748 13.1543L7.16797 0.957031Q6.99219 0.507812 6.68945 0.283203Q6.38672 0.0585938 5.91797 0.0585938Q5.00977 0.0585938 4.6875 0.947266L0.107422 13.1641Q0 13.4668 0 13.6914Q0 14.0625 0.219727 14.2725Q0.439453 14.4824 0.820312 14.4824ZM3.51562 8.80859L5.88867 2.23633L5.9375 2.23633L8.31055 8.80859Z" fill="#ffffff"/>
 </g>
</svg>
