<?xml version="1.0" encoding="UTF-8"?>
<!--Generator: Apple Native CoreSVG 175-->
<!DOCTYPE svg
PUBLIC "-//W3C//DTD SVG 1.1//EN"
       "http://www.w3.org/Graphics/SVG/1.1/DTD/svg11.dtd">
<svg version="1.1" xmlns="http://www.w3.org/2000/svg" xmlns:xlink="http://www.w3.org/1999/xlink" width="18.1157" height="18.1467">
 <g>
  <rect height="18.1467" opacity="0" width="18.1157" x="0" y="0"/>
  <path d="M4.18823 5.4689Q4.18823 5.60867 4.28513 5.70419Q4.38202 5.79971 4.52896 5.79971L13.5938 5.79971Q13.7407 5.79971 13.834 5.70419Q13.9273 5.60867 13.9273 5.4689Q13.9273 5.32196 13.834 5.22507Q13.7407 5.12817 13.5938 5.12817L4.52896 5.12817Q4.38202 5.12817 4.28513 5.22507Q4.18823 5.32196 4.18823 5.4689ZM4.18823 9.10629Q4.18823 9.25323 4.28513 9.34875Q4.38202 9.44427 4.52896 9.44427L13.5938 9.44427Q13.7407 9.44427 13.834 9.34875Q13.9273 9.25323 13.9273 9.10629Q13.9273 8.9595 13.834 8.86612Q13.7407 8.77274 13.5938 8.77274L4.52896 8.77274Q4.38202 8.77274 4.28513 8.86612Q4.18823 8.9595 4.18823 9.10629ZM4.18823 12.7509Q4.18823 12.8978 4.28513 12.9947Q4.38202 13.0916 4.52896 13.0916L10.6516 13.0916Q10.7985 13.0916 10.8919 12.9947Q10.9853 12.8978 10.9853 12.7509Q10.9853 12.6041 10.8919 12.5121Q10.7985 12.42 10.6516 12.42L4.52896 12.42Q4.38202 12.42 4.28513 12.5121Q4.18823 12.6041 4.18823 12.7509Z" fill="#ffffff"/>
  <path d="M0.359344 5.68909Q0.728607 5.68909 0.728607 5.31723L0.728607 2.69623Q0.728607 1.73767 1.21765 1.24641Q1.7067 0.755157 2.65701 0.755157L5.28748 0.755157Q5.6665 0.755157 5.6665 0.393066Q5.6665 0.0337219 5.28748 0.0337219L2.63046 0.0337219Q1.33636 0.0337219 0.668182 0.699158Q0 1.36459 0 2.65747L0 5.31723Q0 5.68909 0.359344 5.68909ZM17.7536 5.68909Q18.1157 5.68909 18.1157 5.31723L18.1157 2.65747Q18.1157 1.37863 17.4475 0.706177Q16.7793 0.0337219 15.4852 0.0337219L12.8255 0.0337219Q12.4492 0.0337219 12.4492 0.393066Q12.4492 0.755157 12.8255 0.755157L15.4559 0.755157Q16.3754 0.755157 16.8848 1.24641Q17.3941 1.73767 17.3941 2.69623L17.3941 5.31723Q17.3941 5.68909 17.7536 5.68909ZM2.63046 18.1467L5.28748 18.1467Q5.6665 18.1467 5.6665 17.7872Q5.6665 17.4251 5.28748 17.4251L2.65701 17.4251Q1.7067 17.4251 1.21765 16.9339Q0.728607 16.4427 0.728607 15.484L0.728607 12.863Q0.728607 12.4911 0.359344 12.4911Q0 12.4911 0 12.863L0 15.52Q0 16.8158 0.668182 17.4812Q1.33636 18.1467 2.63046 18.1467ZM12.8255 18.1467L15.4852 18.1467Q16.7793 18.1467 17.4475 17.4741Q18.1157 16.8016 18.1157 15.52L18.1157 12.863Q18.1157 12.4911 17.7536 12.4911Q17.3941 12.4911 17.3941 12.863L17.3941 15.484Q17.3941 16.4427 16.8848 16.9339Q16.3754 17.4251 15.4559 17.4251L12.8255 17.4251Q12.4492 17.4251 12.4492 17.7872Q12.4492 18.1467 12.8255 18.1467Z" fill="rgba(255,255,255,0.5)"/>
 </g>
</svg>
