<?xml version="1.0" encoding="UTF-8"?>
<!--Generator: Apple Native CoreSVG 175-->
<!DOCTYPE svg
PUBLIC "-//W3C//DTD SVG 1.1//EN"
       "http://www.w3.org/Graphics/SVG/1.1/DTD/svg11.dtd">
<svg version="1.1" xmlns="http://www.w3.org/2000/svg" xmlns:xlink="http://www.w3.org/1999/xlink" width="19.9754" height="24.2935">
 <g>
  <rect height="24.2935" opacity="0" width="19.9754" x="0" y="0"/>
  <path d="M2.34222 15.2754L17.6192 15.2754Q18.7726 15.2754 19.374 14.6803Q19.9754 14.0852 19.9754 12.9399L19.9754 2.36771Q19.9754 1.21964 19.374 0.619583Q18.7726 0.0195312 17.6192 0.0195312L2.34222 0.0195312Q1.19141 0.0195312 0.595703 0.620956Q0 1.22238 0 2.36771L0 12.9399Q0 14.0923 0.597839 14.6838Q1.19568 15.2754 2.34222 15.2754ZM2.33871 14.5673Q1.56601 14.5673 1.13495 14.1418Q0.703888 13.7164 0.703888 12.9579L0.703888 12.6109L3.79028 9.90555Q4.0918 9.65164 4.40155 9.50493Q4.7113 9.35822 4.99451 9.35822Q5.62775 9.35822 6.24603 9.9321L7.82501 11.3716L11.9731 7.78793Q12.6797 7.17346 13.4344 7.17346Q13.8043 7.17346 14.1937 7.33131Q14.5831 7.48917 14.9226 7.80045L19.2781 11.7455L19.2781 12.9634Q19.2781 13.7192 18.8443 14.1432Q18.4105 14.5673 17.6433 14.5673ZM5.87616 7.74155Q5.30701 7.74155 4.84261 7.45834Q4.3782 7.17514 4.10065 6.70578Q3.82309 6.23642 3.82309 5.6813Q3.82309 5.11917 4.10065 4.65477Q4.3782 4.19037 4.84261 3.91068Q5.30701 3.63098 5.87616 3.63098Q6.43127 3.63098 6.89438 3.91068Q7.35748 4.19037 7.63504 4.65477Q7.9126 5.11917 7.9126 5.6813Q7.9126 6.23642 7.63504 6.70578Q7.35748 7.17514 6.89438 7.45834Q6.43127 7.74155 5.87616 7.74155ZM0.352783 19.7836L19.6199 19.7836Q19.7749 19.7836 19.8752 19.6848Q19.9754 19.586 19.9754 19.4283Q19.9754 19.2801 19.8752 19.1778Q19.7749 19.0755 19.6199 19.0755L0.352783 19.0755Q0.197601 19.0755 0.0988007 19.1778Q0 19.2801 0 19.4283Q0 19.586 0.0988007 19.6848Q0.197601 19.7836 0.352783 19.7836ZM0.352783 24.2935L13.3289 24.2935Q13.4796 24.2935 13.5785 24.1925Q13.6774 24.0915 13.6774 23.9407Q13.6774 23.783 13.5785 23.6841Q13.4796 23.5852 13.3289 23.5852L0.352783 23.5852Q0.197601 23.5852 0.0988007 23.6841Q0 23.783 0 23.9407Q0 24.0915 0.0988007 24.1925Q0.197601 24.2935 0.352783 24.2935Z" fill="#ffffff"/>
 </g>
</svg>
