<?xml version="1.0" encoding="UTF-8"?>
<!--Generator: Apple Native CoreSVG 175.5-->
<!DOCTYPE svg
PUBLIC "-//W3C//DTD SVG 1.1//EN"
       "http://www.w3.org/Graphics/SVG/1.1/DTD/svg11.dtd">
<svg version="1.1" xmlns="http://www.w3.org/2000/svg" xmlns:xlink="http://www.w3.org/1999/xlink" width="20.0879" height="24.8926">
 <g>
  <rect height="24.8926" opacity="0" width="20.0879" x="0" y="0"/>
  <path d="M2.71484 15.7227L17.373 15.7227Q18.7305 15.7227 19.4092 15.0537Q20.0879 14.3848 20.0879 13.0566L20.0879 2.69531Q20.0879 1.35742 19.4092 0.683594Q18.7305 0.00976562 17.373 0.00976562L2.71484 0.00976562Q1.36719 0.00976562 0.683594 0.688477Q0 1.36719 0 2.69531L0 13.0566Q0 14.3848 0.678711 15.0537Q1.35742 15.7227 2.71484 15.7227ZM2.73438 14.2383Q2.11914 14.2383 1.79688 13.9209Q1.47461 13.6035 1.47461 12.9688L1.47461 2.77344Q1.47461 2.14844 1.79688 1.81641Q2.11914 1.48438 2.73438 1.48438L17.3633 1.48438Q17.9688 1.48438 18.291 1.81641Q18.6133 2.14844 18.6133 2.77344L18.6133 12.9688Q18.6133 13.584 18.291 13.9111Q17.9688 14.2383 17.3633 14.2383ZM19.1602 12.5879L14.1309 7.85156Q13.8477 7.59766 13.5156 7.46582Q13.1836 7.33398 12.8418 7.33398Q12.5 7.33398 12.1875 7.46094Q11.875 7.58789 11.5723 7.8418L7.74414 11.2695L6.18164 9.84375Q5.91797 9.59961 5.625 9.47754Q5.33203 9.35547 5.01953 9.35547Q4.74609 9.35547 4.47754 9.47754Q4.20898 9.59961 3.93555 9.84375L0.722656 12.7539Q0.761719 13.8965 1.23535 14.4775Q1.70898 15.0586 2.66602 15.0586L16.8652 15.0586Q18.0078 15.0586 18.584 14.4287Q19.1602 13.7988 19.1602 12.5879ZM6.35742 7.94922Q7.17773 7.94922 7.76855 7.3584Q8.35938 6.76758 8.35938 5.9375Q8.35938 5.39062 8.08594 4.93652Q7.8125 4.48242 7.3584 4.21387Q6.9043 3.94531 6.35742 3.94531Q5.81055 3.94531 5.35645 4.21387Q4.90234 4.48242 4.63379 4.93652Q4.36523 5.39062 4.36523 5.9375Q4.36523 6.49414 4.63379 6.94824Q4.90234 7.40234 5.35645 7.67578Q5.81055 7.94922 6.35742 7.94922ZM0.732422 20.3125L19.3457 20.3125Q19.6484 20.3125 19.8682 20.0977Q20.0879 19.8828 20.0879 19.5703Q20.0879 19.2676 19.8682 19.0527Q19.6484 18.8379 19.3457 18.8379L0.732422 18.8379Q0.429688 18.8379 0.214844 19.0527Q0 19.2676 0 19.5703Q0 19.8828 0.214844 20.0977Q0.429688 20.3125 0.732422 20.3125ZM0.732422 24.8926L12.7734 24.8926Q13.0859 24.8926 13.3008 24.6826Q13.5156 24.4727 13.5156 24.1602Q13.5156 23.8477 13.3008 23.6328Q13.0859 23.418 12.7734 23.418L0.732422 23.418Q0.429688 23.418 0.214844 23.6328Q0 23.8477 0 24.1602Q0 24.4727 0.214844 24.6826Q0.429688 24.8926 0.732422 24.8926Z" fill="#ffffff"/>
 </g>
</svg>
