<?xml version="1.0" encoding="UTF-8"?>
<!--Generator: Apple Native CoreSVG 175.5-->
<!DOCTYPE svg
PUBLIC "-//W3C//DTD SVG 1.1//EN"
       "http://www.w3.org/Graphics/SVG/1.1/DTD/svg11.dtd">
<svg version="1.1" xmlns="http://www.w3.org/2000/svg" xmlns:xlink="http://www.w3.org/1999/xlink" width="19.6777" height="16.8848">
 <g>
  <rect height="16.8848" opacity="0" width="19.6777" x="0" y="0"/>
  <path d="M0.732422 1.47461L11.709 1.47461Q12.0215 1.47461 12.2363 1.25977Q12.4512 1.04492 12.4512 0.732422Q12.4512 0.429688 12.2363 0.214844Q12.0215 0 11.709 0L0.732422 0Q0.429688 0 0.214844 0.214844Q0 0.429688 0 0.732422Q0 1.04492 0.214844 1.25977Q0.429688 1.47461 0.732422 1.47461ZM14.6289 1.47461L18.9258 1.47461Q19.2383 1.47461 19.458 1.25977Q19.6777 1.04492 19.6777 0.732422Q19.6777 0.429688 19.458 0.214844Q19.2383 0 18.9258 0L14.6289 0Q14.3262 0 14.1113 0.214844Q13.8965 0.429688 13.8965 0.732422Q13.8965 1.04492 14.1113 1.25977Q14.3262 1.47461 14.6289 1.47461ZM0.742188 6.5918L2.80273 6.5918Q3.11523 6.5918 3.33008 6.37695Q3.54492 6.16211 3.54492 5.84961Q3.54492 5.53711 3.33008 5.32715Q3.11523 5.11719 2.80273 5.11719L0.742188 5.11719Q0.439453 5.11719 0.219727 5.32715Q0 5.53711 0 5.84961Q0 6.16211 0.219727 6.37695Q0.439453 6.5918 0.742188 6.5918ZM5.73242 6.5918L10.8691 6.5918Q11.1816 6.5918 11.3965 6.37695Q11.6113 6.16211 11.6113 5.84961Q11.6113 5.53711 11.3965 5.32715Q11.1816 5.11719 10.8691 5.11719L5.73242 5.11719Q5.41992 5.11719 5.20508 5.32715Q4.99023 5.53711 4.99023 5.84961Q4.99023 6.16211 5.20508 6.37695Q5.41992 6.5918 5.73242 6.5918ZM13.7988 6.5918L18.9355 6.5918Q19.248 6.5918 19.4629 6.37695Q19.6777 6.16211 19.6777 5.84961Q19.6777 5.53711 19.4629 5.32715Q19.248 5.11719 18.9355 5.11719L13.7988 5.11719Q13.4863 5.11719 13.2666 5.32715Q13.0469 5.53711 13.0469 5.84961Q13.0469 6.16211 13.2666 6.37695Q13.4863 6.5918 13.7988 6.5918ZM0.742188 11.709L5.03906 11.709Q5.35156 11.709 5.56641 11.4941Q5.78125 11.2793 5.78125 10.9668Q5.78125 10.6543 5.56641 10.4443Q5.35156 10.2344 5.03906 10.2344L0.742188 10.2344Q0.439453 10.2344 0.219727 10.4443Q0 10.6543 0 10.9668Q0 11.2793 0.219727 11.4941Q0.439453 11.709 0.742188 11.709ZM7.96875 11.709L18.9355 11.709Q19.248 11.709 19.4629 11.4941Q19.6777 11.2793 19.6777 10.9668Q19.6777 10.6543 19.4629 10.4443Q19.248 10.2344 18.9355 10.2344L7.96875 10.2344Q7.65625 10.2344 7.43652 10.4443Q7.2168 10.6543 7.2168 10.9668Q7.2168 11.2793 7.43652 11.4941Q7.65625 11.709 7.96875 11.709ZM0.732422 16.8164L11.1816 16.8164Q11.4844 16.8164 11.7041 16.6064Q11.9238 16.3965 11.9238 16.084Q11.9238 15.7715 11.7041 15.5566Q11.4844 15.3418 11.1816 15.3418L0.732422 15.3418Q0.429688 15.3418 0.214844 15.5566Q0 15.7715 0 16.084Q0 16.3965 0.214844 16.6064Q0.429688 16.8164 0.732422 16.8164Z" fill="#ffffff"/>
 </g>
</svg>
