<?xml version="1.0" encoding="UTF-8"?>
<!--Generator: Apple Native CoreSVG 175.5-->
<!DOCTYPE svg
PUBLIC "-//W3C//DTD SVG 1.1//EN"
       "http://www.w3.org/Graphics/SVG/1.1/DTD/svg11.dtd">
<svg version="1.1" xmlns="http://www.w3.org/2000/svg" xmlns:xlink="http://www.w3.org/1999/xlink" width="12.7051" height="23.1738">
 <g>
  <rect height="23.1738" opacity="0" width="12.7051" x="0" y="0"/>
  <path d="M5.11719 23.1738Q6.17188 23.1738 7.09473 22.7783Q8.01758 22.3828 8.71582 21.6797Q9.41406 20.9766 9.80957 20.0537Q10.2051 19.1309 10.2051 18.0762Q10.2051 16.9629 9.75586 15.9961Q9.30664 15.0293 8.42773 14.2383Q8.27148 14.0918 8.22266 13.9746Q8.17383 13.8574 8.17383 13.6426L8.17383 4.81445Q8.17383 3.81836 7.78809 3.06641Q7.40234 2.31445 6.71387 1.89453Q6.02539 1.47461 5.11719 1.47461Q4.19922 1.47461 3.50586 1.89453Q2.8125 2.31445 2.42188 3.06641Q2.03125 3.81836 2.03125 4.81445L2.03125 13.6426Q2.03125 13.8574 1.98242 13.9746Q1.93359 14.0918 1.77734 14.2383Q0.908203 15.0293 0.454102 15.9961Q0 16.9629 0 18.0762Q0 19.1309 0.395508 20.0537Q0.791016 20.9766 1.49414 21.6797Q2.19727 22.3828 3.125 22.7783Q4.05273 23.1738 5.11719 23.1738ZM5.11719 21.7578Q4.0918 21.7578 3.25684 21.2598Q2.42188 20.7617 1.92871 19.9219Q1.43555 19.082 1.43555 18.0762Q1.43555 17.1582 1.85547 16.3672Q2.27539 15.5762 3.04688 15.0586Q3.27148 14.9023 3.36914 14.7363Q3.4668 14.5703 3.4668 14.2676L3.4668 4.87305Q3.4668 3.99414 3.92578 3.45215Q4.38477 2.91016 5.11719 2.91016Q5.83008 2.91016 6.28906 3.45215Q6.74805 3.99414 6.74805 4.87305L6.74805 14.2676Q6.74805 14.5703 6.84082 14.7363Q6.93359 14.9023 7.16797 15.0586Q7.93945 15.5762 8.35938 16.3672Q8.7793 17.1582 8.7793 18.0762Q8.7793 19.082 8.28125 19.9219Q7.7832 20.7617 6.95312 21.2598Q6.12305 21.7578 5.11719 21.7578Z" fill="rgba(255,255,255,0.25)"/>
  <path d="M10.0098 5.05859L12.1289 5.05859Q12.3926 5.05859 12.5488 4.8877Q12.7051 4.7168 12.7051 4.49219Q12.7051 4.26758 12.5488 4.09668Q12.3926 3.92578 12.1289 3.92578L10.0098 3.92578Q9.75586 3.92578 9.59473 4.09668Q9.43359 4.26758 9.43359 4.49219Q9.43359 4.7168 9.59473 4.8877Q9.75586 5.05859 10.0098 5.05859ZM10.0098 7.80273L12.1289 7.80273Q12.3926 7.80273 12.5488 7.63184Q12.7051 7.46094 12.7051 7.23633Q12.7051 7.00195 12.5488 6.83594Q12.3926 6.66992 12.1289 6.66992L10.0098 6.66992Q9.75586 6.66992 9.59473 6.83594Q9.43359 7.00195 9.43359 7.23633Q9.43359 7.46094 9.59473 7.63184Q9.75586 7.80273 10.0098 7.80273ZM10.0098 10.5469L12.1289 10.5469Q12.3926 10.5469 12.5488 10.376Q12.7051 10.2051 12.7051 9.98047Q12.7051 9.74609 12.5488 9.5752Q12.3926 9.4043 12.1289 9.4043L10.0098 9.4043Q9.75586 9.4043 9.59473 9.5752Q9.43359 9.74609 9.43359 9.98047Q9.43359 10.2051 9.59473 10.376Q9.75586 10.5469 10.0098 10.5469ZM10.0098 13.291L12.1289 13.291Q12.3926 13.291 12.5488 13.1201Q12.7051 12.9492 12.7051 12.7148Q12.7051 12.4902 12.5488 12.3193Q12.3926 12.1484 12.1289 12.1484L10.0098 12.1484Q9.75586 12.1484 9.59473 12.3193Q9.43359 12.4902 9.43359 12.7148Q9.43359 12.9492 9.59473 13.1201Q9.75586 13.291 10.0098 13.291Z" fill="rgba(255,255,255,0.5)"/>
  <path d="M5.10742 20.4395Q5.76172 20.4395 6.29395 20.1172Q6.82617 19.7949 7.14844 19.2578Q7.4707 18.7207 7.4707 18.0664Q7.4707 17.3828 7.11914 16.8408Q6.76758 16.2988 6.20117 15.9863Q5.9668 15.8594 5.87402 15.7178Q5.78125 15.5762 5.78125 15.2246L5.78125 10Q5.78125 9.64844 5.58594 9.43848Q5.39062 9.22852 5.10742 9.22852Q4.82422 9.22852 4.62891 9.43848Q4.43359 9.64844 4.43359 10L4.43359 15.2246Q4.43359 15.5762 4.34082 15.7178Q4.24805 15.8594 4.01367 15.9863Q3.44727 16.2988 3.0957 16.8408Q2.74414 17.3828 2.74414 18.0664Q2.74414 18.7207 3.06152 19.2578Q3.37891 19.7949 3.91602 20.1172Q4.45312 20.4395 5.10742 20.4395Z" fill="#ffffff"/>
 </g>
</svg>
