<?xml version="1.0" encoding="UTF-8"?>
<!--Generator: Apple Native CoreSVG 175.5-->
<!DOCTYPE svg
PUBLIC "-//W3C//DTD SVG 1.1//EN"
       "http://www.w3.org/Graphics/SVG/1.1/DTD/svg11.dtd">
<svg version="1.1" xmlns="http://www.w3.org/2000/svg" xmlns:xlink="http://www.w3.org/1999/xlink" width="24.3457" height="15.498">
 <g>
  <rect height="15.498" opacity="0" width="24.3457" x="0" y="0"/>
  <path d="M0 12.5098Q0 15.498 3.02734 15.498L21.3184 15.498Q24.3457 15.498 24.3457 12.5098L24.3457 2.98828Q24.3457 0 21.3184 0L5.39062 0Q4.14062 0 3.38867 0.668945Q2.63672 1.33789 2.25586 2.4707L0.332031 8.31055Q0.15625 8.81836 0.078125 9.29199Q0 9.76562 0 10.3418ZM9.54102 7.57812L9.54102 4.57031Q9.54102 3.64258 10.4688 3.64258L19.5117 3.64258Q20.4395 3.64258 20.4395 4.57031L20.4395 7.57812Q20.4395 7.98828 20.1953 8.23242Q19.9512 8.47656 19.5117 8.47656L10.4688 8.47656Q10.0391 8.47656 9.79004 8.23242Q9.54102 7.98828 9.54102 7.57812ZM3.49609 8.47656Q3.08594 8.47656 2.90039 8.16895Q2.71484 7.86133 2.88086 7.34375L3.86719 4.3457Q3.97461 4.02344 4.18457 3.83301Q4.39453 3.64258 4.91211 3.64258L6.02539 3.64258Q6.95312 3.64258 6.95312 4.57031L6.95312 7.57812Q6.95312 7.98828 6.7041 8.23242Q6.45508 8.47656 6.02539 8.47656Z" fill="#ffffff"/>
 </g>
</svg>
