<?xml version="1.0" encoding="UTF-8"?>
<!--Generator: Apple Native CoreSVG 175.5-->
<!DOCTYPE svg
PUBLIC "-//W3C//DTD SVG 1.1//EN"
       "http://www.w3.org/Graphics/SVG/1.1/DTD/svg11.dtd">
<svg version="1.1" xmlns="http://www.w3.org/2000/svg" xmlns:xlink="http://www.w3.org/1999/xlink" width="17.9785" height="17.998">
 <g>
  <rect height="17.998" opacity="0" width="17.9785" x="0" y="0"/>
  <path d="M3.06641 17.998L14.9121 17.998Q16.4453 17.998 17.2119 17.2412Q17.9785 16.4844 17.9785 14.9707L17.9785 3.04688Q17.9785 1.5332 17.2119 0.776367Q16.4453 0.0195312 14.9121 0.0195312L3.06641 0.0195312Q1.5332 0.0195312 0.766602 0.776367Q0 1.5332 0 3.04688L0 14.9707Q0 16.4844 0.766602 17.2412Q1.5332 17.998 3.06641 17.998Z" fill="rgba(255,255,255,0.25)"/>
  <path d="M6.47461 14.7461Q5.97656 14.7461 5.69824 14.4775Q5.41992 14.209 5.40039 13.7207L5.09766 6.74805L6.79688 8.44727L6.96289 12.9004Q6.96289 13.2324 7.31445 13.2324Q7.48047 13.2324 7.56836 13.1396Q7.65625 13.0469 7.65625 12.9004L7.51953 9.17969L8.62305 10.2734L8.62305 12.9004Q8.62305 13.2324 8.97461 13.2324Q9.3457 13.2324 9.3457 12.9004L9.3457 11.0059L10.332 11.9922L10.3027 12.9004Q10.293 13.2324 10.6445 13.2324Q10.9375 13.2324 10.9863 12.9688L11.0156 12.6758L12.4805 14.1309L12.4512 14.2285Q12.3535 14.4629 12.1045 14.6045Q11.8555 14.7461 11.5234 14.7461ZM13.3691 13.9648L4.16016 4.75586Q4.0332 4.61914 4.02832 4.43848Q4.02344 4.25781 4.16016 4.13086Q4.28711 3.99414 4.47266 3.99414Q4.6582 3.99414 4.78516 4.13086L13.9844 13.3301Q14.1211 13.4668 14.1211 13.6475Q14.1211 13.8281 13.9844 13.9551Q13.8574 14.0918 13.6816 14.0967Q13.5059 14.1016 13.3691 13.9648ZM12.7148 10.9863L11.1133 9.375L11.2012 7.19727Q11.2012 6.85547 10.8496 6.85547Q10.4883 6.85547 10.4883 7.19727L10.4297 8.70117L9.3457 7.61719L9.3457 7.19727Q9.3457 6.85547 8.97461 6.85547Q8.88672 6.85547 8.82812 6.91406L8.82812 7.09961L6.41602 4.6875L6.61133 4.6875Q6.61133 4.59961 6.61133 4.52637Q6.61133 4.45312 6.61133 4.375Q6.61133 3.76953 6.9873 3.41309Q7.36328 3.05664 7.99805 3.05664L9.9707 3.05664Q10.6152 3.05664 10.9912 3.41309Q11.3672 3.76953 11.3672 4.375L11.3672 5.16602L13.7012 5.16602Q13.877 5.16602 14.0088 5.28809Q14.1406 5.41016 14.1309 5.58594Q14.1211 5.75195 13.999 5.87402Q13.877 5.99609 13.7012 5.99609L12.9297 5.99609ZM7.59766 5.16602L10.3613 5.16602L10.3613 4.42383Q10.3613 4.23828 10.2344 4.12109Q10.1074 4.00391 9.91211 4.00391L8.04688 4.00391Q7.85156 4.00391 7.72461 4.12109Q7.59766 4.23828 7.59766 4.42383Z" fill="#ffffff"/>
 </g>
</svg>
