<?xml version="1.0" encoding="UTF-8"?>
<!--Generator: Apple Native CoreSVG 175-->
<!DOCTYPE svg
PUBLIC "-//W3C//DTD SVG 1.1//EN"
       "http://www.w3.org/Graphics/SVG/1.1/DTD/svg11.dtd">
<svg version="1.1" xmlns="http://www.w3.org/2000/svg" xmlns:xlink="http://www.w3.org/1999/xlink" width="18.3742" height="22.666">
 <g>
  <rect height="22.666" opacity="0" width="18.3742" x="0" y="0"/>
  <path d="M4.82422 21.2402L13.5547 21.2402Q14.3066 21.2402 14.8535 20.7568Q15.4004 20.2734 15.498 19.5703L15.5273 18.877L14.873 18.2129L14.8145 19.2969Q14.7852 19.8047 14.4092 20.166Q14.0332 20.5273 13.5156 20.5273L4.85352 20.5273Q4.3457 20.5273 3.96973 20.1709Q3.59375 19.8145 3.56445 19.3066L2.88086 6.23047L2.11914 5.46875L2.8418 19.3652Q2.89062 20.1562 3.45703 20.6982Q4.02344 21.2402 4.82422 21.2402ZM6.25 18.3691Q6.39648 18.3691 6.47949 18.2764Q6.5625 18.1836 6.55273 18.0566L6.28906 9.63867L5.64453 8.99414L5.92773 18.0762Q5.92773 18.2031 6.01562 18.2861Q6.10352 18.3691 6.25 18.3691ZM9.18945 18.3691Q9.33594 18.3691 9.42871 18.2812Q9.52148 18.1934 9.52148 18.0566L9.52148 12.8613L8.87695 12.2266L8.87695 18.0566Q8.87695 18.1934 8.96484 18.2812Q9.05273 18.3691 9.18945 18.3691ZM12.1387 18.3789Q12.4512 18.3789 12.4512 18.0859L12.5195 15.8789L11.9141 15.2539L11.8262 18.0762Q11.8262 18.2031 11.9043 18.291Q11.9824 18.3789 12.1387 18.3789ZM15.752 15.4297L16.3184 4.29688L18.0273 4.29688Q18.1738 4.29688 18.2715 4.19434Q18.3691 4.0918 18.3691 3.95508Q18.3691 3.80859 18.2715 3.70605Q18.1738 3.60352 18.0273 3.60352L13.2031 3.60352L13.2031 1.98242Q13.2031 1.12305 12.6123 0.561523Q12.0215 0 11.0645 0L7.30469 0Q6.34766 0 5.76172 0.561523Q5.17578 1.12305 5.17578 1.98242L5.17578 3.56445L3.86719 3.56445L4.58984 4.29688L15.5957 4.29688L15.0586 14.7559ZM5.89844 3.60352L5.89844 2.00195Q5.89844 1.43555 6.28906 1.05957Q6.67969 0.683594 7.32422 0.683594L11.0449 0.683594Q11.6895 0.683594 12.085 1.05957Q12.4805 1.43555 12.4805 2.00195L12.4805 3.60352ZM9.52148 9.21875L9.52148 6.78711Q9.52148 6.66016 9.42871 6.57227Q9.33594 6.48438 9.18945 6.48438Q8.93555 6.48438 8.90625 6.71875L8.90625 8.61328ZM12.6367 12.334L12.8125 6.80664Q12.8125 6.66016 12.7246 6.57715Q12.6367 6.49414 12.4902 6.49414Q12.3633 6.49414 12.2754 6.57227Q12.1875 6.65039 12.1777 6.78711L12.0215 11.7188Z" fill="rgba(255,255,255,0.5)"/>
  <path d="M17.7539 19.7852Q17.8516 19.8926 18.0078 19.8926Q18.1641 19.8926 18.2617 19.7852Q18.3789 19.6777 18.374 19.5312Q18.3691 19.3848 18.2617 19.2773L0.615234 1.63086Q0.517578 1.5332 0.371094 1.52344Q0.224609 1.51367 0.0976562 1.63086Q0 1.73828 0 1.88477Q0 2.03125 0.0976562 2.13867Z" fill="#ffffff"/>
 </g>
</svg>
