<?xml version="1.0" encoding="UTF-8"?>
<!--Generator: Apple Native CoreSVG 175.5-->
<!DOCTYPE svg
PUBLIC "-//W3C//DTD SVG 1.1//EN"
       "http://www.w3.org/Graphics/SVG/1.1/DTD/svg11.dtd">
<svg version="1.1" xmlns="http://www.w3.org/2000/svg" xmlns:xlink="http://www.w3.org/1999/xlink" width="18.916" height="23.7012">
 <g>
  <rect height="23.7012" opacity="0" width="18.916" x="0" y="0"/>
  <path d="M4.81445 21.5039L14.1016 21.5039Q15.0098 21.5039 15.5322 21.0156Q16.0547 20.5273 16.0938 19.6191L16.7188 5.35156L18.1836 5.35156Q18.4863 5.35156 18.7012 5.13184Q18.916 4.91211 18.916 4.60938Q18.916 4.30664 18.7012 4.0918Q18.4863 3.87695 18.1836 3.87695L0.732422 3.87695Q0.439453 3.87695 0.219727 4.09668Q0 4.31641 0 4.60938Q0 4.91211 0.219727 5.13184Q0.439453 5.35156 0.732422 5.35156L2.20703 5.35156L2.83203 19.6191Q2.87109 20.5273 3.39355 21.0156Q3.91602 21.5039 4.81445 21.5039ZM6.36719 18.7109Q6.10352 18.7109 5.93262 18.5547Q5.76172 18.3984 5.76172 18.1348L5.45898 7.5Q5.45898 7.24609 5.625 7.08496Q5.79102 6.92383 6.07422 6.92383Q6.32812 6.92383 6.49902 7.08008Q6.66992 7.23633 6.67969 7.49023L6.97266 18.1348Q6.98242 18.3887 6.81641 18.5498Q6.65039 18.7109 6.36719 18.7109ZM9.46289 18.7109Q9.17969 18.7109 9.00391 18.5498Q8.82812 18.3887 8.82812 18.1348L8.82812 7.5Q8.82812 7.24609 9.00391 7.08496Q9.17969 6.92383 9.46289 6.92383Q9.73633 6.92383 9.91211 7.08496Q10.0879 7.24609 10.0879 7.5L10.0879 18.1348Q10.0879 18.3887 9.91211 18.5498Q9.73633 18.7109 9.46289 18.7109ZM12.5488 18.7109Q12.2656 18.7109 12.0996 18.5498Q11.9336 18.3887 11.9434 18.1348L12.2363 7.5Q12.2461 7.23633 12.417 7.08008Q12.5879 6.92383 12.8418 6.92383Q13.125 6.92383 13.291 7.08496Q13.457 7.24609 13.457 7.5L13.1543 18.1348Q13.1543 18.3984 12.9834 18.5547Q12.8125 18.7109 12.5488 18.7109ZM5.06836 4.18945L6.83594 4.18945L6.83594 2.48047Q6.83594 2.10938 7.07031 1.88477Q7.30469 1.66016 7.70508 1.66016L11.2012 1.66016Q11.6016 1.66016 11.8359 1.88477Q12.0703 2.10938 12.0703 2.48047L12.0703 4.18945L13.8281 4.18945L13.8281 2.38281Q13.8281 1.2793 13.1494 0.639648Q12.4707 0 11.2988 0L7.59766 0Q6.42578 0 5.74707 0.639648Q5.06836 1.2793 5.06836 2.38281Z" fill="#ffffff"/>
 </g>
</svg>
