<?xml version="1.0" encoding="UTF-8"?>
<!--Generator: Apple Native CoreSVG 175.5-->
<!DOCTYPE svg
PUBLIC "-//W3C//DTD SVG 1.1//EN"
       "http://www.w3.org/Graphics/SVG/1.1/DTD/svg11.dtd">
<svg version="1.1" xmlns="http://www.w3.org/2000/svg" xmlns:xlink="http://www.w3.org/1999/xlink" width="23.0273" height="22.8223">
 <g>
  <rect height="22.8223" opacity="0" width="23.0273" x="0" y="0"/>
  <path d="M3.06641 14.8242L19.9609 14.8242Q21.5039 14.8242 22.2656 14.082Q23.0273 13.3398 23.0273 11.9336L23.0273 6.54297Q23.0273 6.09375 22.9932 5.74219Q22.959 5.39062 22.8418 5.10254Q22.7246 4.81445 22.4707 4.58008L19.0137 1.30859Q18.4863 0.810547 18.0127 0.527344Q17.5391 0.244141 17.002 0.12207Q16.4648 0 15.7422 0L7.28516 0Q6.5625 0 6.03027 0.12207Q5.49805 0.244141 5.02441 0.527344Q4.55078 0.810547 4.02344 1.30859L0.556641 4.58008Q0.302734 4.81445 0.185547 5.10254Q0.0683594 5.39062 0.0341797 5.74219Q0 6.09375 0 6.54297L0 11.9336Q0 13.3496 0.766602 14.0869Q1.5332 14.8242 3.06641 14.8242ZM11.5137 9.00391Q10.8203 9.00391 10.3125 8.65723Q9.80469 8.31055 9.52637 7.77832Q9.24805 7.24609 9.24805 6.67969L9.24805 6.64062Q9.24805 6.33789 9.0625 6.09375Q8.87695 5.84961 8.49609 5.84961L2.29492 5.84961Q1.875 5.84961 1.77246 5.66895Q1.66992 5.48828 2.00195 5.17578L5.22461 2.13867Q5.67383 1.71875 6.05957 1.54297Q6.44531 1.36719 7.13867 1.36719L15.8887 1.36719Q16.5918 1.36719 16.9727 1.54297Q17.3535 1.71875 17.8027 2.13867L21.0254 5.17578Q21.377 5.50781 21.2646 5.67871Q21.1523 5.84961 20.7422 5.84961L14.5312 5.84961Q14.1504 5.84961 13.9697 6.09375Q13.7891 6.33789 13.7891 6.64062L13.7891 6.67969Q13.7891 7.24609 13.5059 7.77832Q13.2227 8.31055 12.7148 8.65723Q12.207 9.00391 11.5137 9.00391ZM3.08594 13.3887Q2.35352 13.3887 1.96289 12.998Q1.57227 12.6074 1.57227 11.8457L1.57227 7.28516L7.76367 7.28516Q7.88086 8.19336 8.39844 8.91113Q8.91602 9.62891 9.72168 10.0439Q10.5273 10.459 11.5137 10.459Q12.5098 10.459 13.3154 10.0439Q14.1211 9.62891 14.6338 8.91113Q15.1465 8.19336 15.2637 7.28516L21.4551 7.28516L21.4551 11.8457Q21.4551 12.6074 21.0596 12.998Q20.6641 13.3887 19.9414 13.3887ZM3.06641 22.4707L19.9609 22.4707Q21.4941 22.4707 22.2607 21.709Q23.0273 20.9473 23.0273 19.4434L23.0273 14.4727Q23.0273 14.1992 22.915 13.9502Q22.8027 13.7012 22.5879 13.5449Q22.373 13.3887 22.0801 13.3887L14.5312 13.3887Q14.1504 13.3887 13.9697 13.6328Q13.7891 13.877 13.7891 14.1797L13.7891 14.2188Q13.7891 14.7852 13.5059 15.3174Q13.2227 15.8496 12.7148 16.1963Q12.207 16.543 11.5137 16.543Q10.8203 16.543 10.3125 16.1963Q9.80469 15.8496 9.52637 15.3174Q9.24805 14.7852 9.24805 14.2188L9.24805 14.1797Q9.24805 13.877 9.0625 13.6328Q8.87695 13.3887 8.49609 13.3887L0.947266 13.3887Q0.654297 13.3887 0.444336 13.5449Q0.234375 13.7012 0.117188 13.9502Q0 14.1992 0 14.4727L0 19.4434Q0 20.957 0.766602 21.7139Q1.5332 22.4707 3.06641 22.4707ZM3.08594 20.8984Q2.35352 20.8984 1.96289 20.5078Q1.57227 20.1172 1.57227 19.3555L1.57227 14.8242L7.76367 14.8242Q7.88086 15.7324 8.39844 16.4502Q8.91602 17.168 9.72168 17.583Q10.5273 17.998 11.5137 17.998Q12.5098 17.998 13.3154 17.583Q14.1211 17.168 14.6338 16.4502Q15.1465 15.7324 15.2637 14.8242L21.4551 14.8242L21.4551 19.3555Q21.4551 20.1172 21.0596 20.5078Q20.6641 20.8984 19.9414 20.8984Z" fill="#ffffff"/>
 </g>
</svg>
