<?xml version="1.0" encoding="UTF-8"?>
<!--Generator: Apple Native CoreSVG 175-->
<!DOCTYPE svg
PUBLIC "-//W3C//DTD SVG 1.1//EN"
       "http://www.w3.org/Graphics/SVG/1.1/DTD/svg11.dtd">
<svg version="1.1" xmlns="http://www.w3.org/2000/svg" xmlns:xlink="http://www.w3.org/1999/xlink" width="19.1602" height="19.2285">
 <g>
  <rect height="19.2285" opacity="0" width="19.1602" x="0" y="0"/>
  <path d="M9.57031 19.2285Q11.5527 19.2285 13.2861 18.4863Q15.0195 17.7441 16.3379 16.4209Q17.6562 15.0977 18.4082 13.3643Q19.1602 11.6309 19.1602 9.6582Q19.1602 7.68555 18.4082 5.95215Q17.6562 4.21875 16.3379 2.89551Q15.0195 1.57227 13.2861 0.830078Q11.5527 0.0878906 9.57031 0.0878906Q7.59766 0.0878906 5.86426 0.830078Q4.13086 1.57227 2.81738 2.89551Q1.50391 4.21875 0.751953 5.95215Q0 7.68555 0 9.6582Q0 11.6309 0.74707 13.3643Q1.49414 15.0977 2.8125 16.4209Q4.13086 17.7441 5.86914 18.4863Q7.60742 19.2285 9.57031 19.2285Z" fill="rgba(255,255,255,0.25)"/>
  <path d="M4.92188 11.7383L8.53516 5.43945Q8.80859 4.9707 9.20898 4.83398Q9.60938 4.69727 9.99023 4.84375Q10.3711 4.99023 10.5859 5.38086L14.248 11.7383Q14.4922 12.1582 14.4727 12.5391Q14.4531 12.9199 14.1748 13.1689Q13.8965 13.418 13.3496 13.418L5.81055 13.418Q5.27344 13.418 4.99512 13.1689Q4.7168 12.9199 4.69727 12.5391Q4.67773 12.1582 4.92188 11.7383ZM5.56641 11.9922Q5.40039 12.2656 5.4541 12.5Q5.50781 12.7344 5.89844 12.7344L13.2715 12.7344Q13.6621 12.7344 13.7158 12.5Q13.7695 12.2656 13.6035 11.9922L10.0098 5.75195Q9.86328 5.48828 9.5752 5.48828Q9.28711 5.48828 9.14062 5.76172Z" fill="#ffffff"/>
 </g>
</svg>
