<?xml version="1.0" encoding="UTF-8"?>
<!--Generator: Apple Native CoreSVG 175.5-->
<!DOCTYPE svg
PUBLIC "-//W3C//DTD SVG 1.1//EN"
       "http://www.w3.org/Graphics/SVG/1.1/DTD/svg11.dtd">
<svg version="1.1" xmlns="http://www.w3.org/2000/svg" xmlns:xlink="http://www.w3.org/1999/xlink" width="25.82" height="21.416">
 <g>
  <rect height="21.416" opacity="0" width="25.82" x="0" y="0"/>
  <path d="M7.95117 21.416L17.873 21.416Q19.1328 21.416 19.875 20.6836Q20.6172 19.9512 20.6367 18.7012L20.7637 9.16992L23.0977 9.70703Q23.8008 9.86328 24.25 9.5752Q24.6992 9.28711 24.8848 8.56445L25.7441 5.09766Q25.9297 4.38477 25.6611 3.88184Q25.3926 3.37891 24.7188 3.0957L17.9219 0.195312Q17.541 0.0292969 17.2529 0.0341797Q16.9648 0.0390625 16.6523 0.185547Q16.0176 0.488281 15.4365 0.688477Q14.8555 0.888672 14.2451 0.996094Q13.6348 1.10352 12.9121 1.10352Q12.1895 1.10352 11.5791 0.996094Q10.9688 0.888672 10.3877 0.688477Q9.80664 0.488281 9.16211 0.185547Q8.85938 0.0390625 8.56641 0.0341797Q8.27344 0.0292969 7.89258 0.195312L1.10547 3.0957Q0.421875 3.37891 0.158203 3.88184Q-0.105469 4.38477 0.0703125 5.09766L0.939453 8.56445Q1.11523 9.28711 1.56934 9.5752Q2.02344 9.86328 2.72656 9.70703L5.06055 9.16992L5.1875 18.7012Q5.20703 19.9512 5.94434 20.6836Q6.68164 21.416 7.95117 21.416ZM7.9707 19.9121Q7.375 19.9121 7.03809 19.5703Q6.70117 19.2285 6.69141 18.623L6.55469 7.73438Q6.55469 7.55859 6.43262 7.45605Q6.31055 7.35352 6.10547 7.39258L2.6875 8.1543Q2.4043 8.22266 2.33594 7.95898L1.56445 4.88281Q1.51562 4.70703 1.56934 4.61914Q1.62305 4.53125 1.76953 4.47266L8.79102 1.47461Q9.77734 1.99219 10.7686 2.25586Q11.7598 2.51953 12.9121 2.51953Q14.0645 2.51953 15.0557 2.25586Q16.0469 1.99219 17.0332 1.47461L24.0547 4.47266Q24.1914 4.53125 24.25 4.61914Q24.3086 4.70703 24.2598 4.88281L23.4785 7.95898Q23.4199 8.22266 23.1367 8.1543L19.7188 7.39258Q19.5137 7.35352 19.3916 7.45605Q19.2695 7.55859 19.2695 7.73438L19.1328 18.623Q19.123 19.2285 18.7861 19.5703Q18.4492 19.9121 17.8535 19.9121ZM12.9121 5.44922Q14.0645 5.44922 15.0752 4.94629Q16.0859 4.44336 16.7793 3.55957Q17.4727 2.67578 17.6875 1.54297L16.2617 0.917969Q16.1641 1.77734 15.6855 2.46582Q15.207 3.1543 14.4795 3.5498Q13.752 3.94531 12.9121 3.94531Q12.0723 3.94531 11.3447 3.5498Q10.6172 3.1543 10.1387 2.46582Q9.66016 1.77734 9.5625 0.917969L8.13672 1.54297Q8.35156 2.67578 9.04492 3.55957Q9.73828 4.44336 10.749 4.94629Q11.7598 5.44922 12.9121 5.44922Z" fill="#ffffff"/>
 </g>
</svg>
