<?xml version="1.0" encoding="UTF-8"?>
<!--Generator: Apple Native CoreSVG 175.5-->
<!DOCTYPE svg
PUBLIC "-//W3C//DTD SVG 1.1//EN"
       "http://www.w3.org/Graphics/SVG/1.1/DTD/svg11.dtd">
<svg version="1.1" xmlns="http://www.w3.org/2000/svg" xmlns:xlink="http://www.w3.org/1999/xlink" width="13.4375" height="18.2129">
 <g>
  <rect height="18.2129" opacity="0" width="13.4375" x="0" y="0"/>
  <path d="M0 1.29883Q0 1.67969 0.253906 1.90918Q0.507812 2.13867 0.888672 2.13867L5.78125 2.13867L5.78125 17.2852Q5.78125 17.666 6.05469 17.9395Q6.32812 18.2129 6.71875 18.2129Q7.10938 18.2129 7.37793 17.9395Q7.64648 17.666 7.64648 17.2852L7.64648 2.13867L12.5488 2.13867Q12.9199 2.13867 13.1787 1.90918Q13.4375 1.67969 13.4375 1.29883Q13.4375 0.917969 13.1787 0.688477Q12.9199 0.458984 12.5488 0.458984L0.888672 0.458984Q0.507812 0.458984 0.253906 0.688477Q0 0.917969 0 1.29883ZM2.5293 9.53125Q2.1582 9.67773 2.1582 10.0244Q2.1582 10.3711 2.40723 10.6104Q2.65625 10.8496 3.04688 10.6934L10.9082 7.43164Q11.1621 7.33398 11.2354 7.09473Q11.3086 6.85547 11.2207 6.62109Q11.1328 6.38672 10.9033 6.27441Q10.6738 6.16211 10.3223 6.30859ZM2.5293 13.3691Q2.1582 13.5254 2.1582 13.8672Q2.1582 14.209 2.40723 14.4531Q2.65625 14.6973 3.04688 14.541L10.9082 11.2695Q11.1621 11.1719 11.2354 10.9326Q11.3086 10.6934 11.2207 10.459Q11.1328 10.2246 10.9033 10.1123Q10.6738 10 10.3223 10.1465Z" fill="#ffffff"/>
 </g>
</svg>
