<?xml version="1.0" encoding="UTF-8"?>
<!--Generator: Apple Native CoreSVG 175-->
<!DOCTYPE svg
PUBLIC "-//W3C//DTD SVG 1.1//EN"
       "http://www.w3.org/Graphics/SVG/1.1/DTD/svg11.dtd">
<svg version="1.1" xmlns="http://www.w3.org/2000/svg" xmlns:xlink="http://www.w3.org/1999/xlink" width="19.1602" height="19.1504">
 <g>
  <rect height="19.1504" opacity="0" width="19.1602" x="0" y="0"/>
  <path d="M9.57031 19.1406Q11.5527 19.1406 13.2861 18.3984Q15.0195 17.6562 16.3379 16.333Q17.6562 15.0098 18.4082 13.2764Q19.1602 11.543 19.1602 9.57031Q19.1602 7.59766 18.4082 5.86426Q17.6562 4.13086 16.3379 2.80762Q15.0195 1.48438 13.2861 0.742188Q11.5527 0 9.57031 0Q7.59766 0 5.86426 0.742188Q4.13086 1.48438 2.81738 2.80762Q1.50391 4.13086 0.751953 5.86426Q0 7.59766 0 9.57031Q0 11.543 0.74707 13.2764Q1.49414 15.0098 2.8125 16.333Q4.13086 17.6562 5.86914 18.3984Q7.60742 19.1406 9.57031 19.1406Z" fill="rgba(255,255,255,0.25)"/>
  <path d="M9.58008 14.0723Q9.44336 14.0723 9.34082 13.9746Q9.23828 13.877 9.23828 13.7207L9.23828 11.5137L7.79297 12.1387Q7.74414 12.1582 7.69531 12.1777Q7.64648 12.1973 7.60742 12.1973Q7.46094 12.1973 7.38281 12.1094Q7.30469 12.0215 7.30469 11.9043Q7.30469 11.709 7.51953 11.6211L9.23828 10.8594L9.23828 9.74609L7.79297 10.3711Q7.74414 10.3906 7.69531 10.4102Q7.64648 10.4297 7.60742 10.4297Q7.46094 10.4297 7.38281 10.3467Q7.30469 10.2637 7.30469 10.127Q7.30469 9.95117 7.51953 9.85352L9.23828 9.10156L9.23828 6.07422L6.61133 6.07422Q6.46484 6.07422 6.37207 5.98145Q6.2793 5.88867 6.2793 5.75195Q6.2793 5.61523 6.37207 5.52246Q6.46484 5.42969 6.61133 5.42969L12.5391 5.42969Q12.6953 5.42969 12.7881 5.52246Q12.8809 5.61523 12.8809 5.75195Q12.8809 5.88867 12.7881 5.98145Q12.6953 6.07422 12.5391 6.07422L9.92188 6.07422L9.92188 8.80859L11.3965 8.1543Q11.4453 8.14453 11.4795 8.13477Q11.5137 8.125 11.5527 8.125Q11.6895 8.125 11.7676 8.20801Q11.8457 8.29102 11.8457 8.41797Q11.8457 8.60352 11.6406 8.70117L9.92188 9.45312L9.92188 10.5762L11.3477 9.94141Q11.4551 9.88281 11.5527 9.88281Q11.6895 9.88281 11.7676 9.9707Q11.8457 10.0586 11.8457 10.1758Q11.8457 10.3711 11.6406 10.4688L9.92188 11.2207L9.92188 13.7207Q9.92188 13.877 9.82422 13.9746Q9.72656 14.0723 9.58008 14.0723Z" fill="#ffffff"/>
 </g>
</svg>
