<?xml version="1.0" encoding="UTF-8"?>
<!--Generator: Apple Native CoreSVG 175-->
<!DOCTYPE svg
PUBLIC "-//W3C//DTD SVG 1.1//EN"
       "http://www.w3.org/Graphics/SVG/1.1/DTD/svg11.dtd">
<svg version="1.1" xmlns="http://www.w3.org/2000/svg" xmlns:xlink="http://www.w3.org/1999/xlink" width="19.6742" height="19.7232">
 <g>
  <rect height="19.7232" opacity="0" width="19.6742" x="0" y="0"/>
  <path d="M5.3688 10.0739L5.34058 13.768L1.2738 17.8305L1.88278 18.4367L5.9375 14.406L9.65866 14.3611Q10.1906 14.3539 10.684 14.1879Q11.1774 14.0219 11.6176 13.5817L19.5418 5.68329Q19.6802 5.54504 19.6739 5.37041Q19.6677 5.19577 19.5418 5.06729Q19.4203 4.93607 19.2373 4.93958Q19.0543 4.94308 18.9328 5.07431L11.1243 12.963Q10.8391 13.2454 10.4762 13.4188Q10.1132 13.5922 9.66995 13.5922L6.2352 13.5922L6.1731 13.5289L6.1731 10.0508Q6.1731 9.60754 6.34163 9.23973Q6.51016 8.87192 6.7926 8.58246L14.6512 0.792694Q14.7726 0.668488 14.7713 0.483322Q14.7699 0.298157 14.6512 0.166931Q14.5297 0.0453186 14.3432 0.0475311Q14.1566 0.0497437 14.0422 0.183716L6.16486 8.11493Q5.71915 8.56064 5.54886 9.05342Q5.37857 9.5462 5.3688 10.0739ZM1.27777 19.7232Q1.63086 19.7232 1.91933 19.548Q2.20779 19.3727 2.37953 19.0842Q2.55127 18.7958 2.55127 18.4497Q2.55127 18.0896 2.37953 17.7962Q2.20779 17.5027 1.91582 17.3325Q1.62384 17.1622 1.27075 17.1692Q0.917664 17.1692 0.630493 17.3409Q0.343323 17.5125 0.171661 17.8011Q0 18.0896 0 18.4497Q0 18.7958 0.171661 19.0842Q0.343323 19.3727 0.635376 19.548Q0.927429 19.7232 1.27777 19.7232Z" fill="#ffffff"/>
 </g>
</svg>
