<?xml version="1.0" encoding="UTF-8"?>
<!--Generator: Apple Native CoreSVG 175.5-->
<!DOCTYPE svg
PUBLIC "-//W3C//DTD SVG 1.1//EN"
       "http://www.w3.org/Graphics/SVG/1.1/DTD/svg11.dtd">
<svg version="1.1" xmlns="http://www.w3.org/2000/svg" xmlns:xlink="http://www.w3.org/1999/xlink" width="19.9219" height="19.9316">
 <g>
  <rect height="19.9316" opacity="0" width="19.9219" x="0" y="0"/>
  <path d="M9.96094 19.9219Q12.002 19.9219 13.8037 19.1406Q15.6055 18.3594 16.9824 16.9824Q18.3594 15.6055 19.1406 13.8037Q19.9219 12.002 19.9219 9.96094Q19.9219 7.91992 19.1406 6.11816Q18.3594 4.31641 16.9824 2.93945Q15.6055 1.5625 13.7988 0.78125Q11.9922 0 9.95117 0Q7.91016 0 6.1084 0.78125Q4.30664 1.5625 2.93457 2.93945Q1.5625 4.31641 0.78125 6.11816Q0 7.91992 0 9.96094Q0 12.002 0.78125 13.8037Q1.5625 15.6055 2.93945 16.9824Q4.31641 18.3594 6.11816 19.1406Q7.91992 19.9219 9.96094 19.9219Z" fill="rgba(255,255,255,0.25)"/>
  <path d="M8.85742 14.7461Q8.42773 14.7461 8.21289 14.5215Q7.99805 14.2969 7.99805 13.9453L7.99805 10.752L7.19727 11.1035Q7.06055 11.1523 6.94336 11.1523Q6.72852 11.1523 6.59668 11.0156Q6.46484 10.8789 6.46484 10.6641Q6.46484 10.3418 6.80664 10.1855L7.99805 9.6875L7.99805 8.73047L7.19727 9.07227Q7.06055 9.13086 6.94336 9.13086Q6.46484 9.13086 6.46484 8.65234Q6.46484 8.31055 6.80664 8.17383L7.99805 7.65625L7.99805 5.86914Q7.99805 5.56641 8.16895 5.38086Q8.33984 5.19531 8.63281 5.19531Q8.90625 5.19531 9.07715 5.38086Q9.24805 5.56641 9.24805 5.86914L9.24805 7.14844L10.957 6.43555Q11.0742 6.36719 11.2109 6.36719Q11.4258 6.36719 11.5527 6.50879Q11.6797 6.65039 11.6797 6.86523Q11.6797 7.1875 11.3477 7.34375L9.24805 8.21289L9.24805 9.16992L10.957 8.44727Q11.0938 8.39844 11.2109 8.39844Q11.4258 8.39844 11.5527 8.53516Q11.6797 8.67188 11.6797 8.88672Q11.6797 9.21875 11.3477 9.35547L9.24805 10.2344L9.24805 13.4473Q10.0684 13.4473 10.708 13.0518Q11.3477 12.6562 11.7432 12.0166Q12.1387 11.377 12.2266 10.6348Q12.2754 10.2832 12.4414 10.1318Q12.6074 9.98047 12.8516 9.98047Q13.125 9.98047 13.2861 10.166Q13.4473 10.3516 13.4473 10.6543Q13.4473 11.3379 13.1396 12.0557Q12.832 12.7734 12.2412 13.3838Q11.6504 13.9941 10.7959 14.3701Q9.94141 14.7461 8.85742 14.7461Z" fill="#ffffff"/>
 </g>
</svg>
