<?xml version="1.0" encoding="UTF-8"?>
<!--Generator: Apple Native CoreSVG 175.5-->
<!DOCTYPE svg
PUBLIC "-//W3C//DTD SVG 1.1//EN"
       "http://www.w3.org/Graphics/SVG/1.1/DTD/svg11.dtd">
<svg version="1.1" xmlns="http://www.w3.org/2000/svg" xmlns:xlink="http://www.w3.org/1999/xlink" width="19.9219" height="19.9316">
 <g>
  <rect height="19.9316" opacity="0" width="19.9219" x="0" y="0"/>
  <path d="M9.96094 19.9219Q12.002 19.9219 13.8037 19.1406Q15.6055 18.3594 16.9824 16.9824Q18.3594 15.6055 19.1406 13.8037Q19.9219 12.002 19.9219 9.96094Q19.9219 7.91992 19.1406 6.11816Q18.3594 4.31641 16.9824 2.93945Q15.6055 1.5625 13.7988 0.78125Q11.9922 0 9.95117 0Q7.91016 0 6.1084 0.78125Q4.30664 1.5625 2.93457 2.93945Q1.5625 4.31641 0.78125 6.11816Q0 7.91992 0 9.96094Q0 12.002 0.78125 13.8037Q1.5625 15.6055 2.93945 16.9824Q4.31641 18.3594 6.11816 19.1406Q7.91992 19.9219 9.96094 19.9219Z" fill="rgba(255,255,255,0.25)"/>
  <path d="M5.47852 13.457Q4.79492 13.457 4.41895 13.0859Q4.04297 12.7148 4.04297 12.0312L4.04297 6.89453Q4.04297 6.20117 4.41406 5.83008Q4.78516 5.45898 5.47852 5.45898L14.4336 5.45898Q15.127 5.45898 15.498 5.83008Q15.8691 6.20117 15.8691 6.89453L15.8691 12.0312Q15.8691 12.7148 15.4932 13.0859Q15.1172 13.457 14.4336 13.457ZM5.5957 12.1875L14.3164 12.1875Q14.4727 12.1875 14.5361 12.124Q14.5996 12.0605 14.5996 11.9141L14.5996 7.00195Q14.5996 6.85547 14.5361 6.79688Q14.4727 6.73828 14.3164 6.73828L5.5957 6.73828Q5.43945 6.73828 5.38086 6.79199Q5.32227 6.8457 5.32227 7.00195L5.32227 11.9141Q5.32227 12.0703 5.38086 12.1289Q5.43945 12.1875 5.5957 12.1875ZM7.35352 15.5078Q7.08984 15.5078 6.89941 15.3125Q6.70898 15.1172 6.70898 14.8438Q6.70898 14.5996 6.89941 14.4141Q7.08984 14.2285 7.35352 14.2285L12.5879 14.2285Q12.8418 14.2285 13.0273 14.4141Q13.2129 14.5996 13.2129 14.8438Q13.2129 15.1172 13.0322 15.3125Q12.8516 15.5078 12.5879 15.5078Z" fill="#ffffff"/>
 </g>
</svg>
