<?xml version="1.0" encoding="UTF-8"?>
<!--Generator: Apple Native CoreSVG 175-->
<!DOCTYPE svg
PUBLIC "-//W3C//DTD SVG 1.1//EN"
       "http://www.w3.org/Graphics/SVG/1.1/DTD/svg11.dtd">
<svg version="1.1" xmlns="http://www.w3.org/2000/svg" xmlns:xlink="http://www.w3.org/1999/xlink" width="22.9492" height="18.3496">
 <g>
  <rect height="18.3496" opacity="0" width="22.9492" x="0" y="0"/>
  <path d="M1.98242 15.8203L20.9668 15.8203Q21.9531 15.8203 22.4512 15.3174Q22.9492 14.8145 22.9492 13.8281L22.9492 2.49023Q22.9492 1.51367 22.4512 1.01562Q21.9531 0.517578 20.9668 0.517578L1.98242 0.517578Q1.00586 0.517578 0.50293 1.01562Q0 1.51367 0 2.49023L0 13.8281Q0 14.8145 0.50293 15.3174Q1.00586 15.8203 1.98242 15.8203ZM2.02148 15.0879Q1.36719 15.0879 1.0498 14.7656Q0.732422 14.4434 0.732422 13.8086L0.732422 2.51953Q0.732422 1.875 1.0498 1.55762Q1.36719 1.24023 2.02148 1.24023L20.9375 1.24023Q21.582 1.24023 21.9043 1.55762Q22.2266 1.875 22.2266 2.51953L22.2266 13.8086Q22.2266 14.4434 21.9043 14.7656Q21.582 15.0879 20.9375 15.0879ZM6.80664 18.3496L16.1426 18.3496Q16.2988 18.3496 16.4062 18.2471Q16.5137 18.1445 16.5137 17.9883Q16.5137 17.832 16.4062 17.7295Q16.2988 17.627 16.1426 17.627L6.80664 17.627Q6.66016 17.627 6.54785 17.7295Q6.43555 17.832 6.43555 17.9883Q6.43555 18.1445 6.54785 18.2471Q6.66016 18.3496 6.80664 18.3496Z" fill="rgba(255,255,255,0.5)"/>
  <path d="M2.24609 14.2188L20.7129 14.2188Q21.3574 14.2188 21.3574 13.5742L21.3574 2.75391Q21.3574 2.10938 20.7129 2.10938L2.24609 2.10938Q1.60156 2.10938 1.60156 2.75391L1.60156 13.5742Q1.60156 14.2188 2.24609 14.2188Z" fill="#ffffff"/>
 </g>
</svg>
