<?xml version="1.0" encoding="UTF-8"?>
<!--Generator: Apple Native CoreSVG 175.5-->
<!DOCTYPE svg
PUBLIC "-//W3C//DTD SVG 1.1//EN"
       "http://www.w3.org/Graphics/SVG/1.1/DTD/svg11.dtd">
<svg version="1.1" xmlns="http://www.w3.org/2000/svg" xmlns:xlink="http://www.w3.org/1999/xlink" width="19.4727" height="23.0957">
 <g>
  <rect height="23.0957" opacity="0" width="19.4727" x="0" y="0"/>
  <path d="M8.92578 2.91992L10.5469 2.91992L10.5469 0.820312Q10.5469 0.478516 10.3125 0.239258Q10.0781 0 9.73633 0Q9.39453 0 9.16016 0.239258Q8.92578 0.478516 8.92578 0.820312ZM0.810547 12.3926Q1.02539 12.3926 1.22559 12.2607Q1.42578 12.1289 1.58203 11.8848Q2.07031 11.1426 2.6123 10.8154Q3.1543 10.4883 3.84766 10.4883Q4.53125 10.4883 5.01953 10.8154Q5.50781 11.1426 5.92773 11.875Q6.23047 12.3926 6.62109 12.3926Q7.03125 12.3926 7.31445 11.875Q7.70508 11.2012 8.36914 10.8154Q9.0332 10.4297 9.73633 10.4297Q10.4395 10.4297 11.1035 10.8154Q11.7676 11.2012 12.1582 11.875Q12.4316 12.3926 12.8516 12.3926Q13.2422 12.3926 13.5352 11.875Q13.9648 11.1426 14.4531 10.8154Q14.9414 10.4883 15.625 10.4883Q16.3184 10.4883 16.8604 10.8154Q17.4023 11.1426 17.8809 11.8848Q18.0469 12.1289 18.2471 12.2607Q18.4473 12.3926 18.6621 12.3926Q19.0234 12.3926 19.248 12.1289Q19.4727 11.8652 19.4727 11.4648Q19.4727 10.3027 19.0967 9.01855Q18.7207 7.73438 17.9639 6.51367Q17.207 5.29297 16.0449 4.30664Q14.8828 3.32031 13.3105 2.73438Q11.7383 2.14844 9.73633 2.14844Q7.73438 2.14844 6.15723 2.73438Q4.58008 3.32031 3.42285 4.30664Q2.26562 5.29297 1.50391 6.51367Q0.742188 7.73438 0.371094 9.01855Q0 10.3027 0 11.4648Q0 11.8652 0.219727 12.1289Q0.439453 12.3926 0.810547 12.3926ZM9.73633 8.90625Q8.85742 8.90625 8.05176 9.27734Q7.24609 9.64844 6.70898 10.3027Q6.64062 10.4004 6.57227 10.3027Q6.08398 9.63867 5.40527 9.30176Q4.72656 8.96484 3.84766 8.96484Q2.91016 8.96484 2.12402 9.35059Q1.33789 9.73633 0.693359 10.5273L1.58203 10.6055Q1.74805 9.16992 2.41699 7.91504Q3.08594 6.66016 4.16992 5.70801Q5.25391 4.75586 6.66504 4.21387Q8.07617 3.67188 9.73633 3.67188Q11.3867 3.67188 12.7979 4.20898Q14.209 4.74609 15.293 5.69824Q16.377 6.65039 17.0459 7.90527Q17.7148 9.16016 17.8809 10.5859L18.7695 10.5078Q18.125 9.72656 17.3438 9.3457Q16.5625 8.96484 15.625 8.96484Q14.7461 8.96484 14.0625 9.30176Q13.3789 9.63867 12.8906 10.3027Q12.832 10.3906 12.7637 10.3027Q12.2266 9.64844 11.4209 9.27734Q10.6152 8.90625 9.73633 8.90625ZM7.44141 22.5781Q8.32031 22.5781 9.02344 22.168Q9.72656 21.7578 10.1367 21.0547Q10.5469 20.3516 10.5469 19.4629L10.5469 9.96094L8.92578 9.96094L8.92578 19.4629Q8.92578 20.1074 8.51074 20.5176Q8.0957 20.9277 7.44141 20.9277Q6.80664 20.9277 6.39648 20.5176Q5.98633 20.1074 5.98633 19.4629Q5.98633 19.043 5.75195 18.7793Q5.51758 18.5156 5.14648 18.5156Q4.78516 18.5156 4.56055 18.7793Q4.33594 19.043 4.33594 19.4629Q4.33594 20.3516 4.74609 21.0547Q5.15625 21.7578 5.85938 22.168Q6.5625 22.5781 7.44141 22.5781Z" fill="#ffffff"/>
 </g>
</svg>
