<?xml version="1.0" encoding="UTF-8"?>
<!--Generator: Apple Native CoreSVG 175.5-->
<!DOCTYPE svg
PUBLIC "-//W3C//DTD SVG 1.1//EN"
       "http://www.w3.org/Graphics/SVG/1.1/DTD/svg11.dtd">
<svg version="1.1" xmlns="http://www.w3.org/2000/svg" xmlns:xlink="http://www.w3.org/1999/xlink" width="20.9277" height="23.0957">
 <g>
  <rect height="23.0957" opacity="0" width="20.9277" x="0" y="0"/>
  <path d="M8.92578 2.91992L10.5469 2.91992L10.5469 0.820312Q10.5469 0.478516 10.3125 0.239258Q10.0781 0 9.73633 0Q9.39453 0 9.16016 0.239258Q8.92578 0.478516 8.92578 0.820312ZM0.810547 12.3926Q1.02539 12.3926 1.22559 12.2607Q1.42578 12.1289 1.5918 11.8848Q2.07031 11.1426 2.6123 10.8154Q3.1543 10.4883 3.84766 10.4883Q4.53125 10.4883 5.01953 10.8154Q5.50781 11.1426 5.9375 11.875Q6.23047 12.3926 6.62109 12.3926Q7.04102 12.3926 7.31445 11.875Q7.70508 11.2012 8.36914 10.8154Q9.0332 10.4297 9.73633 10.4297Q10.4395 10.4297 11.1035 10.8154Q11.7676 11.2012 12.1582 11.875Q12.4414 12.3926 12.8516 12.3926Q13.2422 12.3926 13.5449 11.875Q13.9648 11.1426 14.4531 10.8154Q14.9414 10.4883 15.625 10.4883Q16.3184 10.4883 16.8604 10.8154Q17.4023 11.1426 17.8906 11.8848Q18.0469 12.1289 18.2471 12.2607Q18.4473 12.3926 18.6621 12.3926Q19.0332 12.3926 19.2529 12.1289Q19.4727 11.8652 19.4727 11.4648Q19.4727 10.3027 19.1016 9.01855Q18.7305 7.73438 17.9688 6.51367Q17.207 5.29297 16.0498 4.30664Q14.8926 3.32031 13.3154 2.73438Q11.7383 2.14844 9.73633 2.14844Q7.73438 2.14844 6.16211 2.73438Q4.58984 3.32031 3.42773 4.30664Q2.26562 5.29297 1.50879 6.51367Q0.751953 7.73438 0.375977 9.01855Q0 10.3027 0 11.4648Q0 11.8652 0.219727 12.1289Q0.439453 12.3926 0.810547 12.3926ZM9.73633 8.90625Q8.85742 8.90625 8.05176 9.27734Q7.24609 9.64844 6.70898 10.3027Q6.64062 10.4004 6.58203 10.3027Q6.09375 9.63867 5.41016 9.30176Q4.72656 8.96484 3.84766 8.96484Q2.91016 8.96484 2.12402 9.35059Q1.33789 9.73633 0.693359 10.5273L1.5918 10.6055Q1.75781 9.16992 2.42676 7.91504Q3.0957 6.66016 4.1748 5.70801Q5.25391 4.75586 6.66504 4.21387Q8.07617 3.67188 9.73633 3.67188Q11.3965 3.67188 12.8076 4.20898Q14.2188 4.74609 15.2979 5.69824Q16.377 6.65039 17.0459 7.90527Q17.7148 9.16016 17.8906 10.5859L18.7695 10.5078Q18.125 9.72656 17.3438 9.3457Q16.5625 8.96484 15.625 8.96484Q14.7461 8.96484 14.0625 9.30176Q13.3789 9.63867 12.9004 10.3027Q12.8418 10.3906 12.7637 10.3027Q12.2266 9.64844 11.4209 9.27734Q10.6152 8.90625 9.73633 8.90625ZM7.45117 22.5781Q8.33008 22.5781 9.0332 22.168Q9.73633 21.7578 10.1416 21.0547Q10.5469 20.3516 10.5469 19.4629L10.5469 9.96094L8.92578 9.96094L8.92578 19.4629Q8.92578 20.1074 8.51074 20.5176Q8.0957 20.9277 7.45117 20.9277Q6.80664 20.9277 6.40137 20.5176Q5.99609 20.1074 5.99609 19.4629Q5.99609 19.043 5.76172 18.7793Q5.52734 18.5156 5.14648 18.5156Q4.78516 18.5156 4.56543 18.7793Q4.3457 19.043 4.3457 19.4629Q4.3457 20.3516 4.75098 21.0547Q5.15625 21.7578 5.85938 22.168Q6.5625 22.5781 7.45117 22.5781Z" fill="rgba(255,255,255,0.5)"/>
  <path d="M14.2578 18.6816Q15.0391 18.6816 15.5078 18.0957Q15.9766 17.5098 15.9766 16.5137Q15.9766 15.5273 15.5078 14.9414Q15.0391 14.3555 14.2578 14.3555Q13.4766 14.3555 13.0078 14.9414Q12.5391 15.5273 12.5391 16.5137Q12.5391 17.5098 13.0029 18.0957Q13.4668 18.6816 14.2578 18.6816ZM14.2578 17.4902Q14.0527 17.4902 13.9307 17.2363Q13.8086 16.9824 13.8086 16.5137Q13.8086 16.0645 13.9307 15.8057Q14.0527 15.5469 14.2578 15.5469Q14.4531 15.5469 14.5801 15.8057Q14.707 16.0645 14.707 16.5137Q14.707 16.9824 14.585 17.2363Q14.4629 17.4902 14.2578 17.4902ZM13.9941 22.5488Q14.2188 22.6855 14.4824 22.6221Q14.7461 22.5586 14.9023 22.3438L19.6387 15.332Q19.8145 15.0684 19.7559 14.79Q19.6973 14.5117 19.4531 14.375Q19.2285 14.248 18.9844 14.3164Q18.7402 14.3848 18.5742 14.6191L13.8086 21.6113Q13.623 21.875 13.6768 22.1436Q13.7305 22.4121 13.9941 22.5488ZM19.209 22.5879Q19.9902 22.5879 20.459 21.9922Q20.9277 21.3965 20.9277 20.4102Q20.9277 19.4238 20.459 18.8379Q19.9902 18.252 19.209 18.252Q18.4277 18.252 17.959 18.8379Q17.4902 19.4238 17.4902 20.4102Q17.4902 21.3965 17.959 21.9922Q18.4277 22.5879 19.209 22.5879ZM19.209 21.3867Q19.0039 21.3867 18.8818 21.1328Q18.7598 20.8789 18.7598 20.4102Q18.7598 19.9512 18.8818 19.6973Q19.0039 19.4434 19.209 19.4434Q19.4043 19.4434 19.5312 19.7021Q19.6582 19.9609 19.6582 20.4102Q19.6582 20.8789 19.5361 21.1328Q19.4141 21.3867 19.209 21.3867Z" fill="#ffffff"/>
 </g>
</svg>
