<?xml version="1.0" encoding="UTF-8"?>
<!--Generator: Apple Native CoreSVG 175.5-->
<!DOCTYPE svg
PUBLIC "-//W3C//DTD SVG 1.1//EN"
       "http://www.w3.org/Graphics/SVG/1.1/DTD/svg11.dtd">
<svg version="1.1" xmlns="http://www.w3.org/2000/svg" xmlns:xlink="http://www.w3.org/1999/xlink" width="19.9219" height="19.9316">
 <g>
  <rect height="19.9316" opacity="0" width="19.9219" x="0" y="0"/>
  <path d="M9.96094 19.9219Q12.002 19.9219 13.8037 19.1406Q15.6055 18.3594 16.9824 16.9824Q18.3594 15.6055 19.1406 13.8037Q19.9219 12.002 19.9219 9.96094Q19.9219 7.91992 19.1406 6.11816Q18.3594 4.31641 16.9824 2.93945Q15.6055 1.5625 13.7988 0.78125Q11.9922 0 9.95117 0Q7.91016 0 6.1084 0.78125Q4.30664 1.5625 2.93457 2.93945Q1.5625 4.31641 0.78125 6.11816Q0 7.91992 0 9.96094Q0 12.002 0.78125 13.8037Q1.5625 15.6055 2.93945 16.9824Q4.31641 18.3594 6.11816 19.1406Q7.91992 19.9219 9.96094 19.9219ZM9.96094 18.2617Q8.23242 18.2617 6.72852 17.6172Q5.22461 16.9727 4.08691 15.835Q2.94922 14.6973 2.30957 13.1934Q1.66992 11.6895 1.66992 9.96094Q1.66992 8.23242 2.30957 6.72852Q2.94922 5.22461 4.08203 4.08203Q5.21484 2.93945 6.71875 2.2998Q8.22266 1.66016 9.95117 1.66016Q11.6797 1.66016 13.1885 2.2998Q14.6973 2.93945 15.835 4.08203Q16.9727 5.22461 17.6172 6.72852Q18.2617 8.23242 18.2617 9.96094Q18.2617 11.6895 17.6221 13.1934Q16.9824 14.6973 15.8398 15.835Q14.6973 16.9727 13.1934 17.6172Q11.6895 18.2617 9.96094 18.2617Z" fill="rgba(255,255,255,0.5)"/>
  <path d="M6.875 5.10742Q5.95703 5.10742 5.48828 5.57129Q5.01953 6.03516 5.01953 6.94336L5.01953 8.23242Q5.01953 8.55469 5.21484 8.75Q5.41016 8.94531 5.73242 8.94531Q6.04492 8.94531 6.23535 8.75488Q6.42578 8.56445 6.42578 8.23242L6.42578 7.17773Q6.42578 6.51367 7.08008 6.51367L8.16406 6.51367Q8.48633 6.51367 8.68652 6.31836Q8.88672 6.12305 8.88672 5.81055Q8.88672 5.49805 8.68652 5.30273Q8.48633 5.10742 8.16406 5.10742ZM12.8809 5.10742L11.5918 5.10742Q11.2695 5.10742 11.0742 5.30273Q10.8789 5.49805 10.8789 5.81055Q10.8789 6.12305 11.0742 6.31836Q11.2695 6.51367 11.5918 6.51367L12.6758 6.51367Q13.3301 6.51367 13.3301 7.17773L13.3301 8.23242Q13.3301 8.56445 13.5205 8.75488Q13.7109 8.94531 14.0332 8.94531Q14.3457 8.94531 14.541 8.75Q14.7363 8.55469 14.7363 8.23242L14.7363 6.94336Q14.7363 6.03516 14.2676 5.57129Q13.7988 5.10742 12.8809 5.10742ZM6.875 14.8242L8.16406 14.8242Q8.48633 14.8242 8.68652 14.6289Q8.88672 14.4336 8.88672 14.1211Q8.88672 13.8086 8.68652 13.6133Q8.48633 13.418 8.16406 13.418L7.08008 13.418Q6.42578 13.418 6.42578 12.7539L6.42578 11.6992Q6.42578 11.3672 6.23535 11.1768Q6.04492 10.9863 5.73242 10.9863Q5.41016 10.9863 5.21484 11.1816Q5.01953 11.377 5.01953 11.6992L5.01953 12.9883Q5.01953 13.8965 5.48828 14.3604Q5.95703 14.8242 6.875 14.8242ZM12.8809 14.8242Q13.7988 14.8242 14.2676 14.3604Q14.7363 13.8965 14.7363 12.9883L14.7363 11.6992Q14.7363 11.377 14.541 11.1816Q14.3457 10.9863 14.0332 10.9863Q13.7109 10.9863 13.5205 11.1768Q13.3301 11.3672 13.3301 11.6992L13.3301 12.7539Q13.3301 13.418 12.6758 13.418L11.5918 13.418Q11.2695 13.418 11.0742 13.6133Q10.8789 13.8086 10.8789 14.1211Q10.8789 14.4336 11.0742 14.6289Q11.2695 14.8242 11.5918 14.8242Z" fill="#ffffff"/>
 </g>
</svg>
