<?xml version="1.0" encoding="UTF-8"?>
<!--Generator: Apple Native CoreSVG 175-->
<!DOCTYPE svg
PUBLIC "-//W3C//DTD SVG 1.1//EN"
       "http://www.w3.org/Graphics/SVG/1.1/DTD/svg11.dtd">
<svg version="1.1" xmlns="http://www.w3.org/2000/svg" xmlns:xlink="http://www.w3.org/1999/xlink" width="19.1602" height="19.1504">
 <g>
  <rect height="19.1504" opacity="0" width="19.1602" x="0" y="0"/>
  <path d="M9.57031 19.1406Q11.5527 19.1406 13.2861 18.3984Q15.0195 17.6562 16.3379 16.333Q17.6562 15.0098 18.4082 13.2764Q19.1602 11.543 19.1602 9.57031Q19.1602 7.59766 18.4082 5.86426Q17.6562 4.13086 16.3379 2.80762Q15.0195 1.48438 13.2861 0.742188Q11.5527 0 9.57031 0Q7.59766 0 5.86426 0.742188Q4.13086 1.48438 2.81738 2.80762Q1.50391 4.13086 0.751953 5.86426Q0 7.59766 0 9.57031Q0 11.543 0.74707 13.2764Q1.49414 15.0098 2.8125 16.333Q4.13086 17.6562 5.86914 18.3984Q7.60742 19.1406 9.57031 19.1406ZM9.57031 18.3984Q7.74414 18.3984 6.14746 17.71Q4.55078 17.0215 3.33496 15.8105Q2.11914 14.5996 1.43555 12.998Q0.751953 11.3965 0.751953 9.57031Q0.751953 7.74414 1.43555 6.14258Q2.11914 4.54102 3.33496 3.3252Q4.55078 2.10938 6.14746 1.4209Q7.74414 0.732422 9.57031 0.732422Q11.4062 0.732422 13.0029 1.4209Q14.5996 2.10938 15.8154 3.3252Q17.0312 4.54102 17.7197 6.14258Q18.4082 7.74414 18.4082 9.57031Q18.4082 11.3965 17.7246 12.998Q17.041 14.5996 15.8252 15.8105Q14.6094 17.0215 13.0078 17.71Q11.4062 18.3984 9.57031 18.3984Z" fill="rgba(255,255,255,0.5)"/>
  <path d="M7.08984 13.9844Q7.5293 13.9844 7.64648 13.5547L9.55078 6.35742L9.59961 6.35742L11.5137 13.5547Q11.6211 13.9844 12.0703 13.9844Q12.5 13.9844 12.6172 13.5352L14.6094 5.64453Q14.6191 5.5957 14.624 5.56641Q14.6289 5.53711 14.6289 5.49805Q14.6289 5.3418 14.5264 5.24902Q14.4238 5.15625 14.2578 5.15625Q14.1113 5.15625 14.0234 5.23438Q13.9355 5.3125 13.8965 5.49805L12.0703 12.9199L12.0215 12.9199L10.0195 5.54688Q9.93164 5.20508 9.58008 5.20508Q9.21875 5.20508 9.13086 5.54688L7.12891 12.9199L7.08008 12.9199L5.25391 5.49805Q5.21484 5.3125 5.13184 5.23438Q5.04883 5.15625 4.89258 5.15625Q4.72656 5.15625 4.62891 5.24902Q4.53125 5.3418 4.53125 5.49805Q4.53125 5.53711 4.53125 5.56641Q4.53125 5.5957 4.55078 5.64453L6.5332 13.5352Q6.65039 13.9844 7.08984 13.9844Z" fill="#ffffff"/>
 </g>
</svg>
