<?xml version="1.0" encoding="UTF-8"?>
<!--Generator: Apple Native CoreSVG 175.5-->
<!DOCTYPE svg
PUBLIC "-//W3C//DTD SVG 1.1//EN"
       "http://www.w3.org/Graphics/SVG/1.1/DTD/svg11.dtd">
<svg version="1.1" xmlns="http://www.w3.org/2000/svg" xmlns:xlink="http://www.w3.org/1999/xlink" width="19.9219" height="19.9316">
 <g>
  <rect height="19.9316" opacity="0" width="19.9219" x="0" y="0"/>
  <path d="M9.96094 19.9219Q12.002 19.9219 13.8037 19.1406Q15.6055 18.3594 16.9824 16.9824Q18.3594 15.6055 19.1406 13.8037Q19.9219 12.002 19.9219 9.96094Q19.9219 7.91992 19.1406 6.11816Q18.3594 4.31641 16.9824 2.93945Q15.6055 1.5625 13.7988 0.78125Q11.9922 0 9.95117 0Q7.91016 0 6.1084 0.78125Q4.30664 1.5625 2.93457 2.93945Q1.5625 4.31641 0.78125 6.11816Q0 7.91992 0 9.96094Q0 12.002 0.78125 13.8037Q1.5625 15.6055 2.93945 16.9824Q4.31641 18.3594 6.11816 19.1406Q7.91992 19.9219 9.96094 19.9219ZM9.96094 18.2617Q8.23242 18.2617 6.72852 17.6172Q5.22461 16.9727 4.08691 15.835Q2.94922 14.6973 2.30957 13.1934Q1.66992 11.6895 1.66992 9.96094Q1.66992 8.23242 2.30957 6.72852Q2.94922 5.22461 4.08203 4.08203Q5.21484 2.93945 6.71875 2.2998Q8.22266 1.66016 9.95117 1.66016Q11.6797 1.66016 13.1885 2.2998Q14.6973 2.93945 15.835 4.08203Q16.9727 5.22461 17.6172 6.72852Q18.2617 8.23242 18.2617 9.96094Q18.2617 11.6895 17.6221 13.1934Q16.9824 14.6973 15.8398 15.835Q14.6973 16.9727 13.1934 17.6172Q11.6895 18.2617 9.96094 18.2617Z" fill="rgba(255,255,255,0.5)"/>
  <path d="M7.32422 14.5312Q8.13477 14.5312 8.32031 13.7793L9.90234 7.61719L9.9707 7.61719L11.5625 13.7793Q11.748 14.5312 12.5488 14.5312Q13.3203 14.5312 13.5254 13.7598L15.459 6.34766Q15.4883 6.26953 15.498 6.19629Q15.5078 6.12305 15.5078 6.05469Q15.5078 5.72266 15.3027 5.51758Q15.0977 5.3125 14.7559 5.3125Q14.4141 5.3125 14.2334 5.48828Q14.0527 5.66406 13.9551 6.08398L12.5 12.2949L12.4316 12.2949L10.791 5.97656Q10.6152 5.33203 9.94141 5.33203Q9.24805 5.33203 9.08203 5.97656L7.45117 12.2949L7.38281 12.2949L5.92773 6.08398Q5.83984 5.66406 5.65918 5.48828Q5.47852 5.3125 5.13672 5.3125Q4.79492 5.3125 4.58984 5.51758Q4.38477 5.72266 4.38477 6.05469Q4.38477 6.12305 4.39453 6.19629Q4.4043 6.26953 4.42383 6.34766L6.35742 13.7598Q6.55273 14.5312 7.32422 14.5312Z" fill="#ffffff"/>
 </g>
</svg>
