<?xml version="1.0" encoding="UTF-8"?>
<!--Generator: Apple Native CoreSVG 175.5-->
<!DOCTYPE svg
PUBLIC "-//W3C//DTD SVG 1.1//EN"
       "http://www.w3.org/Graphics/SVG/1.1/DTD/svg11.dtd">
<svg version="1.1" xmlns="http://www.w3.org/2000/svg" xmlns:xlink="http://www.w3.org/1999/xlink" width="19.9219" height="19.9316">
 <g>
  <rect height="19.9316" opacity="0" width="19.9219" x="0" y="0"/>
  <path d="M9.96094 19.9316Q12.002 19.9316 13.8037 19.1504Q15.6055 18.3691 16.9824 16.9922Q18.3594 15.6152 19.1406 13.8135Q19.9219 12.0117 19.9219 9.9707Q19.9219 7.92969 19.1406 6.12793Q18.3594 4.32617 16.9824 2.94922Q15.6055 1.57227 13.7988 0.791016Q11.9922 0.00976562 9.95117 0.00976562Q7.91016 0.00976562 6.1084 0.791016Q4.30664 1.57227 2.93457 2.94922Q1.5625 4.32617 0.78125 6.12793Q0 7.92969 0 9.9707Q0 12.0117 0.78125 13.8135Q1.5625 15.6152 2.93945 16.9922Q4.31641 18.3691 6.11816 19.1504Q7.91992 19.9316 9.96094 19.9316Z" fill="rgba(255,255,255,0.25)"/>
  <path d="M3.75 9.9707Q3.75 8.69141 4.23828 7.56836Q4.72656 6.44531 5.58594 5.58594Q6.44531 4.72656 7.57324 4.23828Q8.70117 3.75 9.9707 3.75Q11.25 3.75 12.3779 4.23828Q13.5059 4.72656 14.3652 5.58594Q15.2246 6.44531 15.708 7.56836Q16.1914 8.69141 16.1914 9.9707Q16.1914 11.25 15.7031 12.373Q15.2148 13.4961 14.3555 14.3555Q13.4961 15.2148 12.3682 15.7031Q11.2402 16.1914 9.96094 16.1914Q8.69141 16.1914 7.56836 15.7031Q6.44531 15.2148 5.58594 14.3555Q4.72656 13.4961 4.23828 12.373Q3.75 11.25 3.75 9.9707ZM5.21484 9.9707Q5.21484 10.9668 5.58105 11.8311Q5.94727 12.6953 6.59668 13.3496Q7.24609 14.0039 8.11035 14.3701Q8.97461 14.7363 9.96094 14.7363Q10.957 14.7363 11.8213 14.3701Q12.6855 14.0039 13.3398 13.3496Q13.9941 12.6953 14.3652 11.8311Q14.7363 10.9668 14.7363 9.9707Q14.7363 9.12109 14.4531 8.35938L5.50781 8.35938Q5.21484 9.12109 5.21484 9.9707ZM6.24023 7.02148L13.7207 7.02148Q13.0664 6.19141 12.0898 5.69824Q11.1133 5.20508 9.9707 5.20508Q8.82812 5.20508 7.85645 5.69824Q6.88477 6.19141 6.24023 7.02148Z" fill="#ffffff"/>
 </g>
</svg>
