<?xml version="1.0" encoding="UTF-8"?>
<!--Generator: Apple Native CoreSVG 175-->
<!DOCTYPE svg
PUBLIC "-//W3C//DTD SVG 1.1//EN"
       "http://www.w3.org/Graphics/SVG/1.1/DTD/svg11.dtd">
<svg version="1.1" xmlns="http://www.w3.org/2000/svg" xmlns:xlink="http://www.w3.org/1999/xlink" width="15.779" height="20.6747">
 <g>
  <rect height="20.6747" opacity="0" width="15.779" x="0" y="0"/>
  <path d="M2.62665 20.6747L13.1523 20.6747Q14.4341 20.6747 15.1065 20.0066Q15.779 19.3384 15.779 18.0399L15.779 2.66296Q15.779 1.36185 15.1135 0.693665Q14.4481 0.0254822 13.1523 0.0254822L10.2589 0.0254822Q10.0145 0.0254822 10.0145 0.287933Q10.0145 1.16928 9.42345 1.76163Q8.8324 2.35397 7.8894 2.35397Q6.95358 2.35397 6.35765 1.76163Q5.76172 1.16928 5.76172 0.287933Q5.76172 0.0254822 5.51727 0.0254822L2.62665 0.0254822Q1.33087 0.0254822 0.665436 0.693665Q0 1.36185 0 2.66296L0 18.0399Q0 19.3384 0.672455 20.0066Q1.34491 20.6747 2.62665 20.6747ZM2.66251 19.9461Q1.70395 19.9461 1.21628 19.4417Q0.728607 18.9372 0.728607 18.0176L0.728607 2.68524Q0.728607 1.73492 1.21628 1.24443Q1.70395 0.753937 2.66251 0.753937L5.48798 0.753937L5.05081 0.471497Q5.11444 1.63834 5.90332 2.35359Q6.6922 3.06885 7.8894 3.06885Q9.08676 3.06885 9.87564 2.35359Q10.6645 1.63834 10.7309 0.471497L10.291 0.753937L13.1165 0.753937Q14.075 0.753937 14.5627 1.24443Q15.0504 1.73492 15.0504 2.68524L15.0504 18.0176Q15.0504 18.9372 14.5627 19.4417Q14.075 19.9461 13.1165 19.9461ZM3.88596 6.56265L11.9098 6.56265Q12.0442 6.56265 12.1378 6.47118Q12.2313 6.3797 12.2313 6.23566Q12.2313 6.08017 12.1378 5.99014Q12.0442 5.90012 11.9098 5.90012L3.88596 5.90012Q3.74176 5.90012 3.64471 5.99014Q3.54767 6.08017 3.54767 6.23566Q3.54767 6.3797 3.64471 6.47118Q3.74176 6.56265 3.88596 6.56265ZM3.88596 10.2403L7.82776 10.2403Q7.97195 10.2403 8.069 10.1468Q8.16605 10.0533 8.16605 9.91882Q8.16605 9.78439 8.069 9.68948Q7.97195 9.59457 7.82776 9.59457L3.88596 9.59457Q3.74176 9.59457 3.64471 9.68948Q3.54767 9.78439 3.54767 9.91882Q3.54767 10.0533 3.64471 10.1468Q3.74176 10.2403 3.88596 10.2403Z" fill="#ffffff"/>
 </g>
</svg>
