<?xml version="1.0" encoding="UTF-8"?>
<!--Generator: Apple Native CoreSVG 175-->
<!DOCTYPE svg
PUBLIC "-//W3C//DTD SVG 1.1//EN"
       "http://www.w3.org/Graphics/SVG/1.1/DTD/svg11.dtd">
<svg version="1.1" xmlns="http://www.w3.org/2000/svg" xmlns:xlink="http://www.w3.org/1999/xlink" width="12.7832" height="21.8142">
 <g>
  <rect height="21.8142" opacity="0" width="12.7832" x="0" y="0"/>
  <path d="M2.59766 10.9022Q2.59766 9.45688 2.11426 8.14829Q1.63086 6.83969 0.712891 5.8143Q0.585938 5.66782 0.458984 5.63364Q0.332031 5.59946 0.229492 5.64829Q0.126953 5.69712 0.0634766 5.78989Q0 5.88266 0 5.99985Q0 6.11704 0.0878906 6.22446Q0.957031 7.22055 1.39648 8.38755Q1.83594 9.55454 1.83594 10.9022Q1.83594 12.2498 1.39648 13.4266Q0.957031 14.6034 0.107422 15.5897Q0.0195312 15.6873 0.0195312 15.7997Q0.0195312 15.912 0.0830078 15.9998Q0.146484 16.0877 0.249023 16.1317Q0.351562 16.1756 0.473633 16.1463Q0.595703 16.117 0.712891 15.9901Q1.63086 14.9549 2.11426 13.6463Q2.59766 12.3377 2.59766 10.9022ZM7.68555 10.9022Q7.68555 8.72446 7.0166 6.70297Q6.34766 4.68149 5.07812 2.97251Q4.98047 2.83579 4.86328 2.79672Q4.74609 2.75766 4.63379 2.79672Q4.52148 2.83579 4.45312 2.9188Q4.38477 3.0018 4.38477 3.12387Q4.38477 3.24594 4.47266 3.3729Q5.67383 5.00376 6.29883 6.9227Q6.92383 8.84165 6.92383 10.9022Q6.92383 12.9627 6.29883 14.8768Q5.67383 16.7909 4.47266 18.4315Q4.38477 18.5487 4.38477 18.6707Q4.38477 18.7928 4.45312 18.8807Q4.52148 18.9686 4.63379 19.0028Q4.74609 19.037 4.86328 19.0028Q4.98047 18.9686 5.07812 18.8221Q6.34766 17.1131 7.0166 15.0916Q7.68555 13.0702 7.68555 10.9022ZM12.7832 10.9022Q12.7832 7.99204 11.9092 5.26743Q11.0352 2.54282 9.375 0.179537Q9.28711 0.0525841 9.16992 0.0184044Q9.05273-0.0157752 8.94531 0.0135216Q8.83789 0.0428185 8.76465 0.125826Q8.69141 0.208834 8.68164 0.326022Q8.67188 0.443209 8.76953 0.570162Q10.3613 2.84555 11.1865 5.46274Q12.0117 8.07993 12.0117 10.9022Q12.0117 13.7147 11.1816 16.3319Q10.3516 18.9491 8.76953 21.2245Q8.68164 21.3514 8.68652 21.4637Q8.69141 21.576 8.76465 21.6639Q8.83789 21.7518 8.94531 21.786Q9.05273 21.8202 9.16992 21.786Q9.28711 21.7518 9.375 21.6151Q11.0254 19.2518 11.9043 16.5272Q12.7832 13.8026 12.7832 10.9022Z" fill="#ffffff"/>
 </g>
</svg>
