<?xml version="1.0" encoding="UTF-8"?>
<!--Generator: Apple Native CoreSVG 175.5-->
<!DOCTYPE svg
PUBLIC "-//W3C//DTD SVG 1.1//EN"
       "http://www.w3.org/Graphics/SVG/1.1/DTD/svg11.dtd">
<svg version="1.1" xmlns="http://www.w3.org/2000/svg" xmlns:xlink="http://www.w3.org/1999/xlink" width="23.0273" height="17.9785">
 <g>
  <rect height="17.9785" opacity="0" width="23.0273" x="0" y="0"/>
  <path d="M3.06641 17.9785L19.9609 17.9785Q21.5039 17.9785 22.2656 17.2217Q23.0273 16.4648 23.0273 14.9609L23.0273 3.02734Q23.0273 1.52344 22.2656 0.761719Q21.5039 0 19.9609 0L3.06641 0Q1.5332 0 0.766602 0.756836Q0 1.51367 0 3.02734L0 14.9609Q0 16.4648 0.766602 17.2217Q1.5332 17.9785 3.06641 17.9785ZM3.08594 16.4062Q2.35352 16.4062 1.96289 16.0205Q1.57227 15.6348 1.57227 14.873L1.57227 3.11523Q1.57227 2.35352 1.96289 1.96289Q2.35352 1.57227 3.08594 1.57227L19.9414 1.57227Q20.6641 1.57227 21.0596 1.96289Q21.4551 2.35352 21.4551 3.11523L21.4551 14.873Q21.4551 15.6348 21.0596 16.0205Q20.6641 16.4062 19.9414 16.4062Z" fill="rgba(255,255,255,0.5)"/>
  <path d="M1.58203 9.84375L3.93555 9.84375Q4.22852 9.84375 4.38965 9.70703Q4.55078 9.57031 4.6582 9.31641L5.88867 6.31836L8.16406 13.5938Q8.24219 13.8574 8.50098 13.9453Q8.75977 14.0332 9.01855 13.9355Q9.27734 13.8379 9.36523 13.5645L10.5469 9.84375L12.8516 9.84375Q13.1543 9.84375 13.3105 9.70703Q13.4668 9.57031 13.5742 9.31641L14.8633 6.31836L17.1289 13.5938Q17.2168 13.8574 17.4756 13.9453Q17.7344 14.0332 17.9932 13.9355Q18.252 13.8379 18.3398 13.5645L19.5215 9.84375L21.4648 9.84375L21.4648 8.58398L19.1699 8.58398Q18.6426 8.58398 18.4473 9.11133L17.7246 11.1523L15.4492 4.27734Q15.3711 4.01367 15.127 3.92578Q14.8828 3.83789 14.6289 3.93066Q14.375 4.02344 14.2578 4.30664L12.5 8.58398L10.2051 8.58398Q9.66797 8.58398 9.48242 9.11133L8.75 11.1523L6.48438 4.27734Q6.39648 4.01367 6.15234 3.92578Q5.9082 3.83789 5.6543 3.93066Q5.40039 4.02344 5.2832 4.30664L3.53516 8.58398L1.58203 8.58398Z" fill="#ffffff"/>
 </g>
</svg>
