<?xml version="1.0" encoding="UTF-8"?>
<!--Generator: Apple Native CoreSVG 175-->
<!DOCTYPE svg
PUBLIC "-//W3C//DTD SVG 1.1//EN"
       "http://www.w3.org/Graphics/SVG/1.1/DTD/svg11.dtd">
<svg version="1.1" xmlns="http://www.w3.org/2000/svg" xmlns:xlink="http://www.w3.org/1999/xlink" width="17.2852" height="17.3145">
 <g>
  <rect height="17.3145" opacity="0" width="17.2852" x="0" y="0"/>
  <path d="M2.62695 17.3145L14.6484 17.3145Q15.957 17.3145 16.6211 16.6455Q17.2852 15.9766 17.2852 14.6875L17.2852 2.65625Q17.2852 1.37695 16.6211 0.703125Q15.957 0.0292969 14.6484 0.0292969L2.62695 0.0292969Q1.33789 0.0292969 0.668945 0.693359Q0 1.35742 0 2.65625L0 14.6875Q0 15.9863 0.668945 16.6504Q1.33789 17.3145 2.62695 17.3145ZM2.65625 16.5918Q1.70898 16.5918 1.2207 16.1035Q0.732422 15.6152 0.732422 14.6582L0.732422 2.69531Q0.732422 1.72852 1.2207 1.24512Q1.70898 0.761719 2.65625 0.761719L14.6289 0.761719Q15.5566 0.761719 16.0596 1.24512Q16.5625 1.72852 16.5625 2.69531L16.5625 14.6582Q16.5625 15.6152 16.0596 16.1035Q15.5566 16.5918 14.6289 16.5918Z" fill="rgba(255,255,255,0.5)"/>
  <path d="M8.63281 13.3203Q8.75977 13.3203 9.02344 13.0664L10.3809 11.7676Q10.498 11.6504 10.4004 11.4941Q10.1562 11.1719 9.66797 10.9326Q9.17969 10.6934 8.63281 10.6934Q8.0957 10.6934 7.60742 10.9326Q7.11914 11.1719 6.875 11.5137Q6.77734 11.6602 6.9043 11.7676L8.26172 13.0664Q8.51562 13.3203 8.63281 13.3203ZM5.30273 10.1758Q5.45898 10.332 5.64453 10.1465Q6.18164 9.55078 6.99219 9.19922Q7.80273 8.84766 8.63281 8.85742Q9.48242 8.84766 10.2881 9.19922Q11.0938 9.55078 11.6406 10.1465Q11.7285 10.2246 11.8164 10.2344Q11.9043 10.2441 11.9727 10.1758L12.7734 9.375Q12.9199 9.22852 12.7832 9.0918Q12.1484 8.30078 11.0156 7.8125Q9.88281 7.32422 8.63281 7.32422Q7.39258 7.32422 6.26465 7.8125Q5.13672 8.30078 4.49219 9.0918Q4.36523 9.23828 4.51172 9.375ZM2.90039 7.76367Q2.97852 7.8418 3.07617 7.83691Q3.17383 7.83203 3.24219 7.75391Q4.28711 6.65039 5.66895 6.06934Q7.05078 5.48828 8.63281 5.48828Q10.2344 5.48828 11.626 6.05957Q13.0176 6.63086 14.043 7.75391Q14.1113 7.83203 14.209 7.83691Q14.3066 7.8418 14.375 7.75391L15.0684 7.06055Q15.2148 6.91406 15.0781 6.75781Q14.3945 5.9375 13.3691 5.30762Q12.3438 4.67773 11.123 4.32617Q9.90234 3.97461 8.63281 3.97461Q7.37305 3.97461 6.15234 4.32129Q4.93164 4.66797 3.90137 5.29785Q2.87109 5.92773 2.20703 6.75781Q2.08008 6.9043 2.2168 7.06055Z" fill="#ffffff"/>
 </g>
</svg>
