<?xml version="1.0" encoding="UTF-8"?>
<!--Generator: Apple Native CoreSVG 175.5-->
<!DOCTYPE svg
PUBLIC "-//W3C//DTD SVG 1.1//EN"
       "http://www.w3.org/Graphics/SVG/1.1/DTD/svg11.dtd">
<svg version="1.1" xmlns="http://www.w3.org/2000/svg" xmlns:xlink="http://www.w3.org/1999/xlink" width="20.0508" height="19.0527">
 <g>
  <rect height="19.0527" opacity="0" width="20.0508" x="0" y="0"/>
  <path d="M17.0137 3.53516Q17.1699 3.53516 17.2725 3.41309Q17.375 3.29102 17.3652 3.125L17.3066 2.31445L17.9902 2.77344Q18.1074 2.86133 18.2686 2.83203Q18.4297 2.80273 18.5176 2.66602Q18.6152 2.5293 18.5615 2.36328Q18.5078 2.19727 18.3418 2.12891L17.6191 1.76758L18.3613 1.39648Q18.498 1.32812 18.5518 1.17188Q18.6055 1.01562 18.5273 0.869141Q18.459 0.742188 18.2881 0.703125Q18.1172 0.664062 17.9805 0.761719L17.3066 1.2207L17.375 0.419922Q17.3848 0.253906 17.2773 0.126953Q17.1699 0 17.0137 0Q16.8379 0 16.7305 0.117188Q16.623 0.234375 16.6328 0.410156L16.6914 1.23047L15.998 0.761719Q15.8613 0.673828 15.71 0.703125Q15.5586 0.732422 15.4805 0.869141Q15.3926 1.01562 15.4414 1.17188Q15.4902 1.32812 15.6367 1.39648L16.3691 1.76758L15.6465 2.12891Q15.4902 2.19727 15.4365 2.35352Q15.3828 2.50977 15.4707 2.66602Q15.5391 2.80273 15.7002 2.83203Q15.8613 2.86133 15.998 2.77344L16.6914 2.31445L16.6426 3.125Q16.6426 3.30078 16.7451 3.41797Q16.8477 3.53516 17.0137 3.53516ZM17.0137 17.5488Q17.1699 17.5488 17.2725 17.4268Q17.375 17.3047 17.3652 17.1387L17.3066 16.3281L17.9902 16.7871Q18.1074 16.8652 18.2686 16.8359Q18.4297 16.8066 18.5176 16.6797Q18.6152 16.5332 18.5615 16.3672Q18.5078 16.2012 18.3418 16.1426L17.6191 15.7812L18.3613 15.4102Q18.498 15.332 18.5518 15.1807Q18.6055 15.0293 18.5273 14.8828Q18.459 14.7461 18.2881 14.7119Q18.1172 14.6777 17.9805 14.7754L17.3066 15.2344L17.375 14.4238Q17.3848 14.2676 17.2773 14.1406Q17.1699 14.0137 17.0137 14.0137Q16.8379 14.0137 16.7305 14.1309Q16.623 14.248 16.6328 14.4141L16.6914 15.2441L15.998 14.7754Q15.8613 14.6875 15.71 14.7119Q15.5586 14.7363 15.4805 14.8828Q15.3926 15.0293 15.4414 15.1807Q15.4902 15.332 15.6367 15.4102L16.3691 15.7812L15.6465 16.1328Q15.4902 16.2012 15.4365 16.3623Q15.3828 16.5234 15.4707 16.6797Q15.5391 16.8066 15.7002 16.8408Q15.8613 16.875 15.998 16.7871L16.6914 16.3281L16.6426 17.1387Q16.6426 17.3145 16.7451 17.4316Q16.8477 17.5488 17.0137 17.5488Z" fill="rgba(255,255,255,0.5)"/>
  <path d="M0.890625 7.5293Q3 6.85547 5.13867 6.85547Q6.03711 6.85547 6.81348 6.92871Q7.58984 7.00195 8.34668 7.07031Q9.10352 7.13867 9.95312 7.13867Q10.832 7.13867 11.4717 6.77734Q12.1113 6.41602 12.458 5.7959Q12.8047 5.17578 12.8047 4.39453Q12.8047 3.60352 12.4385 2.9834Q12.0723 2.36328 11.4521 2.0166Q10.832 1.66992 10.0801 1.66992Q9.24023 1.66992 8.56641 2.13379Q7.89258 2.59766 7.58008 3.29102Q7.46289 3.53516 7.5166 3.78418Q7.57031 4.0332 7.82422 4.16992Q8.05859 4.28711 8.3125 4.2041Q8.56641 4.12109 8.72266 3.82812Q8.88867 3.45703 9.25488 3.19824Q9.62109 2.93945 10.0801 2.93945Q10.6855 2.93945 11.1055 3.33496Q11.5254 3.73047 11.5254 4.39453Q11.5254 5.05859 11.0957 5.46387Q10.666 5.86914 9.95312 5.86914Q9.14258 5.86914 8.39551 5.7959Q7.64844 5.72266 6.85742 5.64941Q6.06641 5.57617 5.13867 5.57617Q3.9375 5.57617 2.75586 5.77637Q1.57422 5.97656 0.5 6.31836Q0.1875 6.40625 0.0703125 6.64062Q-0.046875 6.875 0.03125 7.12891Q0.0996094 7.38281 0.329102 7.50488Q0.558594 7.62695 0.890625 7.5293ZM16.1641 12.0996Q17.3066 12.0996 18.1807 11.6553Q19.0547 11.2109 19.5527 10.4297Q20.0508 9.64844 20.0508 8.63281Q20.0508 7.63672 19.5869 6.86035Q19.123 6.08398 18.3418 5.63965Q17.5605 5.19531 16.6133 5.19531Q15.7246 5.19531 15.0215 5.57129Q14.3184 5.94727 13.8691 6.5918Q13.4199 7.23633 13.3027 8.04688Q13.2539 8.34961 13.4053 8.56934Q13.5566 8.78906 13.8203 8.81836Q14.0938 8.85742 14.3037 8.69629Q14.5137 8.53516 14.5723 8.18359Q14.6602 7.67578 14.9482 7.29004Q15.2363 6.9043 15.666 6.68457Q16.0957 6.46484 16.6133 6.46484Q17.209 6.46484 17.7021 6.74316Q18.1953 7.02148 18.4834 7.50977Q18.7715 7.99805 18.7715 8.63281Q18.7715 9.60938 18.0635 10.2197Q17.3555 10.8301 16.1641 10.8301Q15.0508 10.8301 13.8789 10.5713Q12.707 10.3125 11.4619 9.98047Q10.2168 9.64844 8.87402 9.38965Q7.53125 9.13086 6.06641 9.13086Q4.55273 9.13086 3.1709 9.37012Q1.78906 9.60938 0.5 10.0684Q0.197266 10.166 0.0751953 10.4004Q-0.046875 10.6348 0.03125 10.8887Q0.0996094 11.1426 0.333984 11.2695Q0.568359 11.3965 0.890625 11.2793Q2.08203 10.8301 3.35156 10.6201Q4.62109 10.4102 6.06641 10.4102Q7.52148 10.4102 8.8252 10.6641Q10.1289 10.918 11.3398 11.2549Q12.5508 11.5918 13.7422 11.8457Q14.9336 12.0996 16.1641 12.0996ZM9.96289 18.9844Q10.7148 18.9844 11.3203 18.6426Q11.9258 18.3008 12.2773 17.6904Q12.6289 17.0801 12.6289 16.2793Q12.6289 14.5508 10.9102 13.6182Q9.19141 12.6855 5.93945 12.6855Q4.58203 12.6855 3.16113 12.9346Q1.74023 13.1836 0.5 13.6133Q0.197266 13.7109 0.0751953 13.9453Q-0.046875 14.1797 0.03125 14.4336Q0.0996094 14.6777 0.333984 14.8096Q0.568359 14.9414 0.890625 14.8242Q2.05273 14.4141 3.33691 14.1895Q4.62109 13.9648 5.93945 13.9648Q8.5957 13.9648 9.97754 14.5898Q11.3594 15.2148 11.3594 16.2793Q11.3594 16.9531 10.9492 17.334Q10.5391 17.7148 9.96289 17.7148Q9.38672 17.7148 9.04004 17.3535Q8.69336 16.9922 8.58594 16.377Q8.54688 16.1035 8.35645 15.9131Q8.16602 15.7227 7.84375 15.752Q7.51172 15.7715 7.375 16.0107Q7.23828 16.25 7.28711 16.543Q7.41406 17.5684 8.12695 18.2764Q8.83984 18.9844 9.96289 18.9844Z" fill="#ffffff"/>
 </g>
</svg>
