<?xml version="1.0" encoding="UTF-8"?>
<!--Generator: Apple Native CoreSVG 175.5-->
<!DOCTYPE svg
PUBLIC "-//W3C//DTD SVG 1.1//EN"
       "http://www.w3.org/Graphics/SVG/1.1/DTD/svg11.dtd">
<svg version="1.1" xmlns="http://www.w3.org/2000/svg" xmlns:xlink="http://www.w3.org/1999/xlink" width="23.1983" height="23.5745">
 <g>
  <rect height="23.5745" opacity="0" width="23.1983" x="0" y="0"/>
  <path d="M7.44141 13.9699L8.37891 13.0519L1.9043 6.548Q1.37695 6.01089 1.37695 5.46402Q1.37695 4.91714 1.9043 4.38003L3.28125 2.99331Q3.79883 2.46597 4.36035 2.47085Q4.92188 2.47573 5.44922 3.00308L12.4219 9.96597L13.3984 9.09683L6.47461 2.12417Q5.44922 1.09878 4.375 1.0939Q3.30078 1.08902 2.29492 2.09487L0.996094 3.3937Q0 4.39956 0 5.4689Q0 6.53823 1.02539 7.56362ZM6.80664 9.62417Q6.91406 9.73159 7.06543 9.73159Q7.2168 9.73159 7.32422 9.62417Q7.43164 9.51675 7.43164 9.37027Q7.43164 9.22378 7.32422 9.11636L3.67188 5.46402Q3.57422 5.37612 3.41797 5.37124Q3.26172 5.36636 3.1543 5.46402Q3.05664 5.5812 3.05176 5.73745Q3.04688 5.8937 3.1543 5.99136ZM8.00781 8.43277Q8.11523 8.54019 8.27148 8.5353Q8.42773 8.53042 8.52539 8.43277Q8.63281 8.30581 8.63281 8.15444Q8.63281 8.00308 8.53516 7.90542L4.88281 4.26284Q4.77539 4.15542 4.62402 4.1603Q4.47266 4.16519 4.375 4.26284Q4.26758 4.38003 4.27246 4.52163Q4.27734 4.66323 4.375 4.77066ZM20.5762 23.4132L22.3242 21.6652Q22.4805 21.4992 22.4658 21.2794Q22.4512 21.0597 22.3047 20.8351L20.2637 17.7882Q19.9316 17.3 19.3945 17.2218L18.5156 17.0851L13.7793 12.3488L12.8711 13.3937L17.9492 18.4523L19.043 18.6378L20.9082 21.1183L20.0195 22.007L17.5488 20.1417L17.3535 19.048L12.3242 14.0089L11.4062 15.0441L15.9863 19.6144L16.123 20.4933Q16.1523 20.757 16.3086 20.9816Q16.4648 21.2062 16.6895 21.3527L19.7461 23.423Q19.9805 23.5792 20.1953 23.5744Q20.4102 23.5695 20.5762 23.4132Z" fill="rgba(255,255,255,0.5)"/>
  <path d="M1.52344 22.2609Q2.37305 23.1007 3.36426 23.3888Q4.35547 23.6769 5.34668 23.3986Q6.33789 23.1203 7.16797 22.2804Q7.70508 21.7433 8.08594 21.1525Q8.4668 20.5617 8.83789 19.8634Q9.20898 19.1652 9.71191 18.296Q10.2148 17.4269 10.9863 16.338Q11.7578 15.2492 12.9297 13.8771Q14.1016 12.505 15.8203 10.7863L14.9707 9.92691Q13.0859 11.8117 11.8604 13.2277Q10.6348 14.6437 9.87793 15.6935Q9.12109 16.7433 8.66211 17.5343Q8.20312 18.3253 7.86621 18.9503Q7.5293 19.5753 7.15332 20.1369Q6.77734 20.6984 6.17188 21.3039Q5.36133 22.1242 4.35059 22.1291Q3.33984 22.1339 2.49023 21.2941Q1.65039 20.4347 1.65039 19.4289Q1.65039 18.423 2.46094 17.6125Q3.07617 17.007 3.6377 16.631Q4.19922 16.255 4.8291 15.9181Q5.45898 15.5812 6.24512 15.1222Q7.03125 14.6632 8.08594 13.9064Q9.14062 13.1496 10.5518 11.924Q11.9629 10.6984 13.8477 8.81362L12.998 7.96402Q11.2793 9.68277 9.90723 10.8546Q8.53516 12.0265 7.44629 12.7931Q6.35742 13.5597 5.48828 14.0626Q4.61914 14.5656 3.9209 14.9416Q3.22266 15.3175 2.63184 15.6935Q2.04102 16.0695 1.50391 16.6066Q0.664062 17.4464 0.385742 18.4328Q0.107422 19.4191 0.395508 20.4152Q0.683594 21.4113 1.52344 22.2609ZM4.30664 20.7082Q4.80469 20.7082 5.16113 20.3517Q5.51758 19.9953 5.51758 19.4972Q5.51758 18.9992 5.16113 18.6476Q4.80469 18.296 4.30664 18.296Q3.80859 18.296 3.45703 18.6476Q3.10547 18.9992 3.10547 19.4972Q3.10547 19.9953 3.45703 20.3517Q3.80859 20.7082 4.30664 20.7082ZM13.6719 10.1027Q14.5117 10.9425 15.5518 11.3722Q16.5918 11.8019 17.6855 11.8263Q18.7793 11.8507 19.8047 11.4601Q20.8301 11.0695 21.6406 10.2589Q22.5195 9.38003 22.9053 8.22769Q23.291 7.07534 23.1689 5.83999Q23.0469 4.60464 22.3926 3.48159L21.4453 4.43862Q21.8555 5.27847 21.9043 6.17202Q21.9531 7.06558 21.6553 7.89077Q21.3574 8.71597 20.7227 9.35073Q19.8926 10.171 18.7939 10.425Q17.6953 10.6789 16.5771 10.3664Q15.459 10.0539 14.5898 9.19448Q13.7207 8.32534 13.4082 7.20718Q13.0957 6.08902 13.3545 4.9855Q13.6133 3.88198 14.4434 3.06167Q15.4004 2.10464 16.7529 1.91421Q18.1055 1.72378 19.3262 2.34878L20.2832 1.39175Q19.1699 0.737453 17.9395 0.615382Q16.709 0.493312 15.5615 0.879054Q14.4141 1.2648 13.5352 2.15347Q12.7246 2.95425 12.3291 3.97964Q11.9336 5.00503 11.9531 6.0939Q11.9727 7.18277 12.4023 8.2228Q12.832 9.26284 13.6719 10.1027ZM16.6309 5.71792L18.0762 7.15347Q18.623 7.70034 19.2578 7.71011Q19.8926 7.71987 20.4102 7.2023L22.4609 5.14175L21.6016 4.29214L19.7363 6.13784Q19.2969 6.58706 18.8574 6.13784L17.666 4.93667Q17.1973 4.45816 17.6172 4.03823L19.502 2.173L18.6133 1.31362L16.582 3.35464Q16.0352 3.89175 16.0547 4.52652Q16.0742 5.16128 16.6309 5.71792Z" fill="#ffffff"/>
 </g>
</svg>
