<?xml version="1.0" encoding="UTF-8"?>
<!--Generator: Apple Native CoreSVG 175.5-->
<!DOCTYPE svg
PUBLIC "-//W3C//DTD SVG 1.1//EN"
       "http://www.w3.org/Graphics/SVG/1.1/DTD/svg11.dtd">
<svg version="1.1" xmlns="http://www.w3.org/2000/svg" xmlns:xlink="http://www.w3.org/1999/xlink" width="17.9785" height="17.998">
 <g>
  <rect height="17.998" opacity="0" width="17.9785" x="0" y="0"/>
  <path d="M3.06641 17.998L14.9121 17.998Q16.4453 17.998 17.2119 17.2412Q17.9785 16.4844 17.9785 14.9707L17.9785 3.04688Q17.9785 1.5332 17.2119 0.776367Q16.4453 0.0195312 14.9121 0.0195312L3.06641 0.0195312Q1.5332 0.0195312 0.766602 0.776367Q0 1.5332 0 3.04688L0 14.9707Q0 16.4844 0.766602 17.2412Q1.5332 17.998 3.06641 17.998ZM3.08594 16.4258Q2.35352 16.4258 1.96289 16.04Q1.57227 15.6543 1.57227 14.8926L1.57227 3.125Q1.57227 2.36328 1.96289 1.97754Q2.35352 1.5918 3.08594 1.5918L14.8926 1.5918Q15.6152 1.5918 16.0107 1.97754Q16.4062 2.36328 16.4062 3.125L16.4062 14.8926Q16.4062 15.6543 16.0107 16.04Q15.6152 16.4258 14.8926 16.4258Z" fill="rgba(255,255,255,0.5)"/>
  <path d="M6.08398 13.4668Q6.32812 13.4668 6.48438 13.3691Q6.64062 13.2715 6.82617 13.0176L8.93555 10.0098L8.97461 10.0098L11.084 13.0176Q11.2695 13.2715 11.4258 13.3691Q11.582 13.4668 11.8066 13.4668Q12.1387 13.4668 12.3584 13.2666Q12.5781 13.0664 12.5781 12.7539Q12.5781 12.4805 12.3926 12.2461L9.94141 8.89648L12.4121 5.53711Q12.5977 5.2832 12.5977 5.01953Q12.5977 4.73633 12.3877 4.53613Q12.1777 4.33594 11.8652 4.33594Q11.6309 4.33594 11.4697 4.43359Q11.3086 4.53125 11.1523 4.77539L9.11133 7.7832L9.0625 7.7832L6.98242 4.76562Q6.81641 4.53125 6.65039 4.43359Q6.48438 4.33594 6.24023 4.33594Q5.92773 4.33594 5.70312 4.55078Q5.47852 4.76562 5.47852 5.05859Q5.47852 5.3418 5.68359 5.625L8.02734 8.84766L5.53711 12.2852Q5.37109 12.5293 5.37109 12.793Q5.37109 13.0762 5.58105 13.2715Q5.79102 13.4668 6.08398 13.4668Z" fill="#ffffff"/>
 </g>
</svg>
