<?xml version="1.0" encoding="UTF-8"?>
<!--Generator: Apple Native CoreSVG 175-->
<!DOCTYPE svg
PUBLIC "-//W3C//DTD SVG 1.1//EN"
       "http://www.w3.org/Graphics/SVG/1.1/DTD/svg11.dtd">
<svg version="1.1" xmlns="http://www.w3.org/2000/svg" xmlns:xlink="http://www.w3.org/1999/xlink" width="19.1602" height="19.1504">
 <g>
  <rect height="19.1504" opacity="0" width="19.1602" x="0" y="0"/>
  <path d="M9.57031 19.1504Q11.5527 19.1504 13.2861 18.4082Q15.0195 17.666 16.3379 16.3428Q17.6562 15.0195 18.4082 13.2861Q19.1602 11.5527 19.1602 9.58008Q19.1602 7.60742 18.4082 5.87402Q17.6562 4.14062 16.3379 2.81738Q15.0195 1.49414 13.2861 0.751953Q11.5527 0.00976562 9.57031 0.00976562Q7.59766 0.00976562 5.86426 0.751953Q4.13086 1.49414 2.81738 2.81738Q1.50391 4.14062 0.751953 5.87402Q0 7.60742 0 9.58008Q0 11.5527 0.74707 13.2861Q1.49414 15.0195 2.8125 16.3428Q4.13086 17.666 5.86914 18.4082Q7.60742 19.1504 9.57031 19.1504Z" fill="rgba(255,255,255,0.25)"/>
  <path d="M6.89453 14.7656Q6.20117 14.7656 5.85938 14.3994Q5.51758 14.0332 5.41992 13.3594L4.66797 8.28125L14.4922 8.28125L13.7402 13.3594Q13.6328 14.0234 13.2959 14.3945Q12.959 14.7656 12.2656 14.7656ZM7.98828 13.2031Q8.13477 13.2031 8.20312 13.125L9.57031 11.748L10.9473 13.125Q10.9863 13.1641 11.04 13.1836Q11.0938 13.2031 11.1621 13.2031Q11.2793 13.2031 11.3672 13.1152Q11.4551 13.0273 11.4551 12.9102Q11.4551 12.793 11.3672 12.7051L10 11.3281L11.3672 9.95117Q11.4551 9.86328 11.4551 9.73633Q11.4551 9.60938 11.3721 9.52637Q11.2891 9.44336 11.1621 9.44336Q11.0352 9.44336 10.9473 9.53125L9.57031 10.9082L8.20312 9.53125Q8.11523 9.45312 7.98828 9.45312Q7.87109 9.45312 7.7832 9.53613Q7.69531 9.61914 7.69531 9.73633Q7.69531 9.86328 7.7832 9.95117L9.15039 11.3281L7.7832 12.7051Q7.69531 12.7832 7.69531 12.9102Q7.69531 13.0273 7.7832 13.1152Q7.87109 13.2031 7.98828 13.2031ZM4.04297 7.71484Q3.68164 7.71484 3.48633 7.5Q3.29102 7.28516 3.29102 6.93359L3.29102 6.18164Q3.29102 5.83008 3.49121 5.61523Q3.69141 5.40039 4.04297 5.40039L15.1074 5.40039Q15.4688 5.40039 15.6689 5.61523Q15.8691 5.83008 15.8691 6.18164L15.8691 6.93359Q15.8691 7.28516 15.6689 7.5Q15.4688 7.71484 15.1074 7.71484Z" fill="#ffffff"/>
 </g>
</svg>
