<?xml version="1.0" encoding="UTF-8"?>
<!--Generator: Apple Native CoreSVG 175.5-->
<!DOCTYPE svg
PUBLIC "-//W3C//DTD SVG 1.1//EN"
       "http://www.w3.org/Graphics/SVG/1.1/DTD/svg11.dtd">
<svg version="1.1" xmlns="http://www.w3.org/2000/svg" xmlns:xlink="http://www.w3.org/1999/xlink" width="20.0684" height="19.3262">
 <g>
  <rect height="19.3262" opacity="0" width="20.0684" x="0" y="0"/>
  <path d="M7.07031 19.3164L12.998 19.3164Q13.6133 19.3164 14.0479 19.1895Q14.4824 19.0625 14.8145 18.8135Q15.1465 18.5645 15.4688 18.2227L19.2578 14.043Q19.5801 13.6914 19.7559 13.3838Q19.9316 13.0762 20 12.7295Q20.0684 12.3828 20.0684 11.8945L20.0684 7.43164Q20.0684 6.94336 20 6.5918Q19.9316 6.24023 19.7559 5.9375Q19.5801 5.63477 19.2578 5.2832L15.4688 1.10352Q15.1465 0.751953 14.8145 0.507812Q14.4824 0.263672 14.0479 0.131836Q13.6133 0 12.998 0L7.07031 0Q6.44531 0 6.01562 0.131836Q5.58594 0.263672 5.25391 0.507812Q4.92188 0.751953 4.59961 1.10352L0.810547 5.2832Q0.488281 5.63477 0.3125 5.9375Q0.136719 6.24023 0.0683594 6.5918Q0 6.94336 0 7.43164L0 11.8945Q0 12.3828 0.0683594 12.7295Q0.136719 13.0762 0.3125 13.3838Q0.488281 13.6914 0.810547 14.043L4.59961 18.2227Q4.92188 18.5645 5.25391 18.8135Q5.58594 19.0625 6.01562 19.1895Q6.44531 19.3164 7.07031 19.3164Z" fill="rgba(255,255,255,0.25)"/>
  <path d="M6.74805 13.7598Q6.41602 13.7598 6.18164 13.5205Q5.94727 13.2812 5.94727 12.9492Q5.94727 12.6172 6.18164 12.3828L8.89648 9.66797L6.18164 6.96289Q5.94727 6.71875 5.94727 6.39648Q5.94727 6.05469 6.18164 5.8252Q6.41602 5.5957 6.74805 5.5957Q7.07031 5.5957 7.31445 5.82031L10.0391 8.53516L12.7832 5.81055Q13.0176 5.57617 13.3398 5.57617Q13.6719 5.57617 13.9062 5.81055Q14.1406 6.04492 14.1406 6.37695Q14.1406 6.70898 13.9062 6.95312L11.1816 9.66797L13.8965 12.373Q14.1309 12.5879 14.1309 12.9492Q14.1309 13.2812 13.8965 13.5205Q13.6621 13.7598 13.3203 13.7598Q12.9688 13.7598 12.7441 13.5254L10.0391 10.8105L7.34375 13.5254Q7.09961 13.7598 6.74805 13.7598Z" fill="#ffffff"/>
 </g>
</svg>
