<?xml version="1.0" encoding="UTF-8"?>
<!--Generator: Apple Native CoreSVG 175-->
<!DOCTYPE svg
PUBLIC "-//W3C//DTD SVG 1.1//EN"
       "http://www.w3.org/Graphics/SVG/1.1/DTD/svg11.dtd">
<svg version="1.1" xmlns="http://www.w3.org/2000/svg" xmlns:xlink="http://www.w3.org/1999/xlink" width="17.2852" height="17.3145">
 <g>
  <rect height="17.3145" opacity="0" width="17.2852" x="0" y="0"/>
  <path d="M2.62695 17.3145L14.6484 17.3145Q15.957 17.3145 16.6211 16.6455Q17.2852 15.9766 17.2852 14.6875L17.2852 2.65625Q17.2852 1.37695 16.6211 0.703125Q15.957 0.0292969 14.6484 0.0292969L2.62695 0.0292969Q1.33789 0.0292969 0.668945 0.693359Q0 1.35742 0 2.65625L0 14.6875Q0 15.9863 0.668945 16.6504Q1.33789 17.3145 2.62695 17.3145Z" fill="rgba(255,255,255,0.25)"/>
  <path d="M8.65234 13.0762Q8.47656 13.0762 8.37402 12.9688Q8.27148 12.8613 8.27148 12.6758L8.27148 9.27734L5.22461 4.77539Q5.13672 4.6582 5.13672 4.54102Q5.13672 4.4043 5.23926 4.30664Q5.3418 4.20898 5.49805 4.20898Q5.60547 4.20898 5.68848 4.25781Q5.77148 4.30664 5.84961 4.41406L8.63281 8.48633L8.68164 8.48633L11.4551 4.41406Q11.5332 4.30664 11.6162 4.25781Q11.6992 4.20898 11.8164 4.20898Q11.9727 4.20898 12.0703 4.30176Q12.168 4.39453 12.168 4.54102Q12.168 4.66797 12.0801 4.77539L9.0332 9.26758L9.0332 12.6758Q9.0332 12.8711 8.93066 12.9736Q8.82812 13.0762 8.65234 13.0762Z" fill="#ffffff"/>
 </g>
</svg>
