<?xml version="1.0" encoding="UTF-8"?>
<!--Generator: Apple Native CoreSVG 175-->
<!DOCTYPE svg
PUBLIC "-//W3C//DTD SVG 1.1//EN"
       "http://www.w3.org/Graphics/SVG/1.1/DTD/svg11.dtd">
<svg version="1.1" xmlns="http://www.w3.org/2000/svg" xmlns:xlink="http://www.w3.org/1999/xlink" width="17.2852" height="17.3145">
 <g>
  <rect height="17.3145" opacity="0" width="17.2852" x="0" y="0"/>
  <path d="M2.62695 17.3145L14.6484 17.3145Q15.957 17.3145 16.6211 16.6455Q17.2852 15.9766 17.2852 14.6875L17.2852 2.65625Q17.2852 1.37695 16.6211 0.703125Q15.957 0.0292969 14.6484 0.0292969L2.62695 0.0292969Q1.33789 0.0292969 0.668945 0.693359Q0 1.35742 0 2.65625L0 14.6875Q0 15.9863 0.668945 16.6504Q1.33789 17.3145 2.62695 17.3145Z" fill="rgba(255,255,255,0.25)"/>
  <path d="M8.67188 13.252Q8.52539 13.252 8.42773 13.1592Q8.33008 13.0664 8.33008 12.9004L8.33008 11.0547L6.5625 11.0547Q6.42578 11.0547 6.34766 10.9619Q6.26953 10.8691 6.26953 10.7422Q6.26953 10.6152 6.35254 10.5273Q6.43555 10.4395 6.5625 10.4395L8.33008 10.4395L8.33008 9.61914L6.5625 9.61914Q6.42578 9.61914 6.34766 9.53125Q6.26953 9.44336 6.26953 9.31641Q6.26953 9.19922 6.35254 9.10645Q6.43555 9.01367 6.5625 9.01367L8.00781 9.01367L5.52734 5.16602Q5.49805 5.11719 5.47363 5.06348Q5.44922 5.00977 5.44922 4.93164Q5.44922 4.79492 5.54688 4.70703Q5.64453 4.61914 5.78125 4.61914Q5.87891 4.61914 5.95215 4.66309Q6.02539 4.70703 6.09375 4.80469L8.65234 8.83789L11.2207 4.80469Q11.2891 4.69727 11.3623 4.6582Q11.4355 4.61914 11.5332 4.61914Q11.6797 4.61914 11.7725 4.7168Q11.8652 4.81445 11.8652 4.94141Q11.8652 5.05859 11.7871 5.16602L9.29688 9.01367L10.9375 9.01367Q11.0645 9.01367 11.1475 9.10645Q11.2305 9.19922 11.2305 9.31641Q11.2305 9.44336 11.1475 9.53125Q11.0645 9.61914 10.9375 9.61914L9.00391 9.61914L9.00391 10.4395L10.9375 10.4395Q11.0645 10.4395 11.1475 10.5273Q11.2305 10.6152 11.2305 10.7422Q11.2305 10.8691 11.1475 10.9619Q11.0645 11.0547 10.9375 11.0547L9.00391 11.0547L9.00391 12.9004Q9.00391 13.0664 8.91113 13.1592Q8.81836 13.252 8.67188 13.252Z" fill="#ffffff"/>
 </g>
</svg>
