<?xml version="1.0" encoding="UTF-8"?>
<!--Generator: Apple Native CoreSVG 175-->
<!DOCTYPE svg
PUBLIC "-//W3C//DTD SVG 1.1//EN"
       "http://www.w3.org/Graphics/SVG/1.1/DTD/svg11.dtd">
<svg version="1.1" xmlns="http://www.w3.org/2000/svg" xmlns:xlink="http://www.w3.org/1999/xlink" width="22.7832" height="17.3145">
 <g>
  <rect height="17.3145" opacity="0" width="22.7832" x="0" y="0"/>
  <path d="M7.59766 0.0292969Q4.87305 0.0292969 3.20312 0.878906Q1.5332 1.72852 0.766602 3.40332Q0 5.07812 0 7.56836L0 14.6875Q0 15.9863 0.668945 16.6504Q1.33789 17.3145 2.62695 17.3145L20.1465 17.3145Q21.4453 17.3145 22.1143 16.6455Q22.7832 15.9766 22.7832 14.6875L22.7832 7.56836Q22.7832 5.07812 22.0215 3.40332Q21.2598 1.72852 19.585 0.878906Q17.9102 0.0292969 15.1855 0.0292969ZM7.60742 0.761719L15.1758 0.761719Q17.6562 0.761719 19.1748 1.52344Q20.6934 2.28516 21.3721 3.80371Q22.0508 5.32227 22.0508 7.56836L22.0508 14.6582Q22.0508 15.6152 21.5479 16.1035Q21.0449 16.5918 20.127 16.5918L2.65625 16.5918Q0.732422 16.5918 0.732422 14.6582L0.732422 7.56836Q0.732422 5.32227 1.41113 3.80371Q2.08984 2.28516 3.6084 1.52344Q5.12695 0.761719 7.60742 0.761719Z" fill="rgba(255,255,255,0.5)"/>
  <path d="M4.87305 13.0957L10.5469 13.0957Q10.6934 13.0957 10.7812 13.0029Q10.8691 12.9102 10.8691 12.7637Q10.8691 12.627 10.7812 12.5342Q10.6934 12.4414 10.5469 12.4414L5.33203 12.4414L5.33203 12.3828L10.4883 5.32227Q10.5859 5.17578 10.6201 5.08789Q10.6543 5 10.6543 4.87305Q10.6543 4.6875 10.5225 4.56055Q10.3906 4.43359 10.1758 4.43359L4.76562 4.43359Q4.62891 4.43359 4.53613 4.52637Q4.44336 4.61914 4.44336 4.76562Q4.44336 4.91211 4.53613 5.00977Q4.62891 5.10742 4.76562 5.10742L9.75586 5.10742L9.75586 5.15625L4.58008 12.2266Q4.47266 12.3828 4.43848 12.4658Q4.4043 12.5488 4.4043 12.6758Q4.4043 12.8613 4.53125 12.9785Q4.6582 13.0957 4.87305 13.0957ZM12.7637 13.1738Q12.9395 13.1738 13.0371 13.0664Q13.1348 12.959 13.1348 12.7832L13.1348 9.58008L15.4492 9.58008L17.3828 12.9102Q17.4805 13.0566 17.5635 13.1152Q17.6465 13.1738 17.7832 13.1738Q17.9199 13.1738 18.0127 13.0859Q18.1055 12.998 18.1055 12.8516Q18.1055 12.7148 17.9883 12.5293L16.1816 9.49219Q17.0996 9.29688 17.6367 8.62793Q18.1738 7.95898 18.1738 7.01172Q18.1738 5.85938 17.417 5.14648Q16.6602 4.43359 15.4395 4.43359L12.7441 4.43359Q12.5781 4.43359 12.4854 4.55078Q12.3926 4.66797 12.3926 4.85352L12.3926 12.7832Q12.3926 12.959 12.4951 13.0664Q12.5977 13.1738 12.7637 13.1738ZM13.1348 8.94531L13.1348 5.08789L15.4199 5.08789Q16.3184 5.08789 16.8799 5.61523Q17.4414 6.14258 17.4414 7.01172Q17.4414 7.89062 16.8799 8.41797Q16.3184 8.94531 15.4102 8.94531Z" fill="#ffffff"/>
 </g>
</svg>
