<?xml version="1.0" encoding="UTF-8"?>
<!--Generator: Apple Native CoreSVG 175-->
<!DOCTYPE svg
PUBLIC "-//W3C//DTD SVG 1.1//EN"
       "http://www.w3.org/Graphics/SVG/1.1/DTD/svg11.dtd">
<svg version="1.1" xmlns="http://www.w3.org/2000/svg" xmlns:xlink="http://www.w3.org/1999/xlink" width="19.1602" height="19.1504">
 <g>
  <rect height="19.1504" opacity="0" width="19.1602" x="0" y="0"/>
  <path d="M9.57031 19.1406Q11.5527 19.1406 13.2861 18.3984Q15.0195 17.6562 16.3379 16.333Q17.6562 15.0098 18.4082 13.2764Q19.1602 11.543 19.1602 9.57031Q19.1602 7.59766 18.4082 5.86426Q17.6562 4.13086 16.3379 2.80762Q15.0195 1.48438 13.2861 0.742188Q11.5527 0 9.57031 0Q7.59766 0 5.86426 0.742188Q4.13086 1.48438 2.81738 2.80762Q1.50391 4.13086 0.751953 5.86426Q0 7.59766 0 9.57031Q0 11.543 0.74707 13.2764Q1.49414 15.0098 2.8125 16.333Q4.13086 17.6562 5.86914 18.3984Q7.60742 19.1406 9.57031 19.1406Z" fill="rgba(255,255,255,0.18)"/>
  <path d="M6.79688 13.6035Q6.66016 13.6035 6.56738 13.5156Q6.47461 13.4277 6.47461 13.2715L6.47461 6.35742L6.42578 6.35742L4.78516 7.45117Q4.72656 7.49023 4.68262 7.5Q4.63867 7.50977 4.58984 7.50977Q4.46289 7.50977 4.37012 7.41699Q4.27734 7.32422 4.27734 7.19727Q4.27734 7.00195 4.45312 6.89453L6.32812 5.66406Q6.45508 5.58594 6.54297 5.55176Q6.63086 5.51758 6.75781 5.51758Q6.92383 5.51758 7.02637 5.61523Q7.12891 5.71289 7.12891 5.88867L7.12891 13.2715Q7.12891 13.4277 7.04102 13.5156Q6.95312 13.6035 6.79688 13.6035ZM11.9336 13.6816Q10.9668 13.6816 10.332 13.2178Q9.69727 12.7539 9.47266 12.0996Q9.45312 12.0312 9.43848 11.9727Q9.42383 11.9141 9.42383 11.8555Q9.42383 11.709 9.5166 11.626Q9.60938 11.543 9.73633 11.543Q9.85352 11.543 9.92676 11.6211Q10 11.6992 10.0488 11.8164Q10.2246 12.373 10.7568 12.71Q11.2891 13.0469 11.9922 13.0469Q12.8613 13.0469 13.4375 12.4805Q14.0137 11.9141 14.0137 11.0254Q14.0137 10.1562 13.4668 9.59473Q12.9199 9.0332 12.0605 9.0332Q11.5918 9.0332 11.1816 9.22852Q10.7715 9.42383 10.3516 9.87305Q10.2539 9.98047 10.166 10.0195Q10.0781 10.0586 9.95117 10.0586Q9.77539 10.0586 9.66797 9.94141Q9.56055 9.82422 9.57031 9.61914L9.86328 6.00586Q9.87305 5.80078 10 5.67871Q10.127 5.55664 10.332 5.55664L14.0039 5.55664Q14.1309 5.55664 14.2188 5.63965Q14.3066 5.72266 14.3066 5.85938Q14.3066 5.98633 14.2188 6.07422Q14.1309 6.16211 14.0039 6.16211L10.459 6.16211L10.2148 9.33594L10.2344 9.33594Q10.5469 8.91602 11.0645 8.67188Q11.582 8.42773 12.1387 8.42773Q13.252 8.42773 13.96 9.16016Q14.668 9.89258 14.668 11.0059Q14.668 12.2168 13.9111 12.9492Q13.1543 13.6816 11.9336 13.6816Z" fill="#ffffff"/>
 </g>
</svg>
