<?xml version="1.0" encoding="UTF-8"?>
<!--Generator: Apple Native CoreSVG 175-->
<!DOCTYPE svg
PUBLIC "-//W3C//DTD SVG 1.1//EN"
       "http://www.w3.org/Graphics/SVG/1.1/DTD/svg11.dtd">
<svg version="1.1" xmlns="http://www.w3.org/2000/svg" xmlns:xlink="http://www.w3.org/1999/xlink" width="19.1602" height="19.1504">
 <g>
  <rect height="19.1504" opacity="0" width="19.1602" x="0" y="0"/>
  <path d="M9.57031 19.1406Q11.5527 19.1406 13.2861 18.3984Q15.0195 17.6562 16.3379 16.333Q17.6562 15.0098 18.4082 13.2764Q19.1602 11.543 19.1602 9.57031Q19.1602 7.59766 18.4082 5.86426Q17.6562 4.13086 16.3379 2.80762Q15.0195 1.48438 13.2861 0.742188Q11.5527 0 9.57031 0Q7.59766 0 5.86426 0.742188Q4.13086 1.48438 2.81738 2.80762Q1.50391 4.13086 0.751953 5.86426Q0 7.59766 0 9.57031Q0 11.543 0.74707 13.2764Q1.49414 15.0098 2.8125 16.333Q4.13086 17.6562 5.86914 18.3984Q7.60742 19.1406 9.57031 19.1406Z" fill="rgba(255,255,255,0.18)"/>
  <path d="M9.58008 14.0723Q8.65234 14.0723 7.94434 13.5059Q7.23633 12.9395 6.8457 11.9238Q6.45508 10.9082 6.45508 9.57031Q6.45508 8.22266 6.8457 7.21191Q7.23633 6.20117 7.94434 5.63477Q8.65234 5.06836 9.58008 5.06836Q10.5078 5.06836 11.2109 5.63477Q11.9141 6.20117 12.3047 7.21191Q12.6953 8.22266 12.6953 9.57031Q12.6953 10.9082 12.3047 11.9238Q11.9141 12.9395 11.2109 13.5059Q10.5078 14.0723 9.58008 14.0723ZM9.58008 13.4082Q10.6348 13.4082 11.2988 12.3438Q11.9629 11.2793 11.9629 9.57031Q11.9629 7.86133 11.2988 6.79688Q10.6348 5.73242 9.58008 5.73242Q8.51562 5.73242 7.85645 6.79688Q7.19727 7.86133 7.19727 9.57031Q7.19727 11.2793 7.85645 12.3438Q8.51562 13.4082 9.58008 13.4082Z" fill="#ffffff"/>
 </g>
</svg>
