<?xml version="1.0" encoding="UTF-8"?>
<!--Generator: Apple Native CoreSVG 175-->
<!DOCTYPE svg
PUBLIC "-//W3C//DTD SVG 1.1//EN"
       "http://www.w3.org/Graphics/SVG/1.1/DTD/svg11.dtd">
<svg version="1.1" xmlns="http://www.w3.org/2000/svg" xmlns:xlink="http://www.w3.org/1999/xlink" width="19.1602" height="19.1504">
 <g>
  <rect height="19.1504" opacity="0" width="19.1602" x="0" y="0"/>
  <path d="M9.57031 19.1406Q11.5527 19.1406 13.2861 18.3984Q15.0195 17.6562 16.3379 16.333Q17.6562 15.0098 18.4082 13.2764Q19.1602 11.543 19.1602 9.57031Q19.1602 7.59766 18.4082 5.86426Q17.6562 4.13086 16.3379 2.80762Q15.0195 1.48438 13.2861 0.742188Q11.5527 0 9.57031 0Q7.59766 0 5.86426 0.742188Q4.13086 1.48438 2.81738 2.80762Q1.50391 4.13086 0.751953 5.86426Q0 7.59766 0 9.57031Q0 11.543 0.74707 13.2764Q1.49414 15.0098 2.8125 16.333Q4.13086 17.6562 5.86914 18.3984Q7.60742 19.1406 9.57031 19.1406Z" fill="rgba(255,255,255,0.18)"/>
  <path d="M4.58008 13.5352Q4.41406 13.5352 4.31641 13.4424Q4.21875 13.3496 4.21875 13.1836Q4.21875 12.998 4.33594 12.8711L7.23633 9.50195Q7.70508 8.95508 7.94922 8.52051Q8.19336 8.08594 8.19336 7.60742Q8.19336 6.92383 7.73438 6.50879Q7.27539 6.09375 6.49414 6.09375Q5.74219 6.09375 5.24414 6.50879Q4.74609 6.92383 4.66797 7.57812Q4.63867 7.72461 4.55566 7.80762Q4.47266 7.89062 4.33594 7.89062Q4.17969 7.89062 4.0918 7.79297Q4.00391 7.69531 4.00391 7.54883Q4.00391 7.4707 4.01367 7.41211Q4.02344 7.35352 4.0332 7.26562Q4.17969 6.48438 4.87305 5.97168Q5.56641 5.45898 6.48438 5.45898Q7.55859 5.45898 8.21289 6.04004Q8.86719 6.62109 8.86719 7.58789Q8.86719 8.19336 8.55957 8.74512Q8.25195 9.29688 7.60742 10.0488L5.19531 12.8516L5.19531 12.8906L8.78906 12.8906Q8.93555 12.8906 9.01855 12.9785Q9.10156 13.0664 9.10156 13.2129Q9.10156 13.3496 9.01855 13.4424Q8.93555 13.5352 8.78906 13.5352ZM13.0957 13.6816Q12.1484 13.6816 11.4648 13.1982Q10.7812 12.7148 10.5664 12.0605Q10.5469 11.9922 10.5322 11.9336Q10.5176 11.875 10.5176 11.7871Q10.5176 11.6406 10.6104 11.5381Q10.7031 11.4355 10.8496 11.4355Q11.0938 11.4355 11.1914 11.7383Q11.3867 12.3438 11.9092 12.6904Q12.4316 13.0371 13.1055 13.0371Q14.0039 13.0371 14.5508 12.5684Q15.0977 12.0996 15.0977 11.3672Q15.0977 10.6738 14.5605 10.2148Q14.0234 9.75586 13.2031 9.75586L12.4121 9.75586Q12.2559 9.75586 12.1777 9.66309Q12.0996 9.57031 12.0996 9.43359Q12.0996 9.28711 12.1826 9.19922Q12.2656 9.11133 12.4121 9.11133L13.1348 9.11133Q13.8672 9.11133 14.3457 8.66211Q14.8242 8.21289 14.8242 7.55859Q14.8242 6.9043 14.3506 6.49902Q13.877 6.09375 13.0957 6.09375Q12.3926 6.09375 11.9287 6.45508Q11.4648 6.81641 11.3477 7.40234Q11.3086 7.55859 11.2305 7.63184Q11.1523 7.70508 11.0254 7.70508Q10.8496 7.70508 10.7666 7.60254Q10.6836 7.5 10.6836 7.34375Q10.6836 7.19727 10.7129 7.07031Q10.8887 6.33789 11.5625 5.89844Q12.2363 5.45898 13.1055 5.45898Q14.1504 5.45898 14.8291 6.02539Q15.5078 6.5918 15.5078 7.48047Q15.5078 8.16406 15.0684 8.71582Q14.6289 9.26758 13.9746 9.38477L13.9746 9.4043Q14.7461 9.48242 15.2686 10.0488Q15.791 10.6152 15.791 11.377Q15.791 12.3828 15.0293 13.0322Q14.2676 13.6816 13.0957 13.6816Z" fill="#ffffff"/>
 </g>
</svg>
