<?xml version="1.0" encoding="UTF-8"?>
<!--Generator: Apple Native CoreSVG 175-->
<!DOCTYPE svg
PUBLIC "-//W3C//DTD SVG 1.1//EN"
       "http://www.w3.org/Graphics/SVG/1.1/DTD/svg11.dtd">
<svg version="1.1" xmlns="http://www.w3.org/2000/svg" xmlns:xlink="http://www.w3.org/1999/xlink" width="19.1602" height="19.1504">
 <g>
  <rect height="19.1504" opacity="0" width="19.1602" x="0" y="0"/>
  <path d="M9.57031 19.1406Q11.5527 19.1406 13.2861 18.3984Q15.0195 17.6562 16.3379 16.333Q17.6562 15.0098 18.4082 13.2764Q19.1602 11.543 19.1602 9.57031Q19.1602 7.59766 18.4082 5.86426Q17.6562 4.13086 16.3379 2.80762Q15.0195 1.48438 13.2861 0.742188Q11.5527 0 9.57031 0Q7.59766 0 5.86426 0.742188Q4.13086 1.48438 2.81738 2.80762Q1.50391 4.13086 0.751953 5.86426Q0 7.59766 0 9.57031Q0 11.543 0.74707 13.2764Q1.49414 15.0098 2.8125 16.333Q4.13086 17.6562 5.86914 18.3984Q7.60742 19.1406 9.57031 19.1406ZM9.57031 18.3984Q7.74414 18.3984 6.14746 17.71Q4.55078 17.0215 3.33496 15.8105Q2.11914 14.5996 1.43555 12.998Q0.751953 11.3965 0.751953 9.57031Q0.751953 7.74414 1.43555 6.14258Q2.11914 4.54102 3.33496 3.3252Q4.55078 2.10938 6.14746 1.4209Q7.74414 0.732422 9.57031 0.732422Q11.4062 0.732422 13.0029 1.4209Q14.5996 2.10938 15.8154 3.3252Q17.0312 4.54102 17.7197 6.14258Q18.4082 7.74414 18.4082 9.57031Q18.4082 11.3965 17.7246 12.998Q17.041 14.5996 15.8252 15.8105Q14.6094 17.0215 13.0078 17.71Q11.4062 18.3984 9.57031 18.3984Z" fill="rgba(255,255,255,0.5)"/>
  <path d="M6.2793 13.6523Q7.44141 13.6523 8.19336 13.0078Q8.94531 12.3633 8.94531 11.3672Q8.94531 10.6055 8.42773 10.0439Q7.91016 9.48242 7.14844 9.4043L7.14844 9.38477Q7.80273 9.26758 8.24219 8.7207Q8.68164 8.17383 8.68164 7.49023Q8.68164 6.61133 8.00293 6.0498Q7.32422 5.48828 6.28906 5.48828Q5.42969 5.48828 4.76074 5.92285Q4.0918 6.35742 3.91602 7.08008Q3.88672 7.2168 3.88672 7.36328Q3.88672 7.51953 3.96973 7.61719Q4.05273 7.71484 4.21875 7.71484Q4.3457 7.71484 4.42383 7.6416Q4.50195 7.56836 4.54102 7.41211Q4.6582 6.82617 5.11719 6.47461Q5.57617 6.12305 6.2793 6.12305Q7.05078 6.12305 7.5293 6.52344Q8.00781 6.92383 8.00781 7.56836Q8.00781 8.22266 7.5293 8.66699Q7.05078 9.11133 6.31836 9.11133L5.5957 9.11133Q5.45898 9.11133 5.37109 9.19922Q5.2832 9.28711 5.2832 9.43359Q5.2832 9.57031 5.36621 9.6582Q5.44922 9.74609 5.5957 9.74609L6.38672 9.74609Q7.20703 9.74609 7.73926 10.2051Q8.27148 10.6641 8.27148 11.3574Q8.27148 12.0898 7.72461 12.5537Q7.17773 13.0176 6.28906 13.0176Q5.625 13.0176 5.09766 12.6709Q4.57031 12.3242 4.375 11.7285Q4.27734 11.4355 4.05273 11.4355Q3.90625 11.4355 3.81348 11.5332Q3.7207 11.6309 3.7207 11.7676Q3.7207 11.8555 3.73535 11.9189Q3.75 11.9824 3.76953 12.041Q3.97461 12.6953 4.6582 13.1738Q5.3418 13.6523 6.2793 13.6523ZM13.0176 13.6523Q14.2188 13.6523 15.0049 13.0029Q15.791 12.3535 15.791 11.3379Q15.791 10.625 15.3223 10.0684Q14.8535 9.51172 14.1211 9.36523L14.1211 9.31641Q14.7363 9.14062 15.1123 8.65234Q15.4883 8.16406 15.4883 7.55859Q15.4883 6.64062 14.7949 6.06445Q14.1016 5.48828 13.0273 5.48828Q11.9629 5.48828 11.2598 6.06445Q10.5566 6.64062 10.5566 7.55859Q10.5566 8.16406 10.9326 8.64258Q11.3086 9.12109 11.9336 9.31641L11.9336 9.36523Q11.1914 9.51172 10.7275 10.0684Q10.2637 10.625 10.2637 11.3379Q10.2637 12.3633 11.0449 13.0078Q11.8262 13.6523 13.0176 13.6523ZM13.0273 13.0664Q12.0996 13.0664 11.499 12.5781Q10.8984 12.0898 10.8984 11.3281Q10.8984 10.6055 11.499 10.127Q12.0996 9.64844 13.0273 9.64844Q13.9551 9.64844 14.5557 10.127Q15.1562 10.6055 15.1562 11.3281Q15.1562 12.0898 14.5557 12.5781Q13.9551 13.0664 13.0273 13.0664ZM13.0273 9.08203Q12.2363 9.08203 11.7383 8.65234Q11.2402 8.22266 11.2402 7.57812Q11.2402 6.91406 11.7334 6.49414Q12.2266 6.07422 13.0273 6.07422Q13.8281 6.07422 14.3213 6.49414Q14.8145 6.91406 14.8145 7.57812Q14.8145 8.22266 14.3164 8.65234Q13.8184 9.08203 13.0273 9.08203Z" fill="#ffffff"/>
 </g>
</svg>
