<?xml version="1.0" encoding="UTF-8"?>
<!--Generator: Apple Native CoreSVG 175-->
<!DOCTYPE svg
PUBLIC "-//W3C//DTD SVG 1.1//EN"
       "http://www.w3.org/Graphics/SVG/1.1/DTD/svg11.dtd">
<svg version="1.1" xmlns="http://www.w3.org/2000/svg" xmlns:xlink="http://www.w3.org/1999/xlink" width="17.2852" height="17.3145">
 <g>
  <rect height="17.3145" opacity="0" width="17.2852" x="0" y="0"/>
  <path d="M2.62695 17.3145L14.6484 17.3145Q15.957 17.3145 16.6211 16.6455Q17.2852 15.9766 17.2852 14.6875L17.2852 2.65625Q17.2852 1.37695 16.6211 0.703125Q15.957 0.0292969 14.6484 0.0292969L2.62695 0.0292969Q1.33789 0.0292969 0.668945 0.693359Q0 1.35742 0 2.65625L0 14.6875Q0 15.9863 0.668945 16.6504Q1.33789 17.3145 2.62695 17.3145ZM2.65625 16.5918Q1.70898 16.5918 1.2207 16.1035Q0.732422 15.6152 0.732422 14.6582L0.732422 2.69531Q0.732422 1.72852 1.2207 1.24512Q1.70898 0.761719 2.65625 0.761719L14.6289 0.761719Q15.5566 0.761719 16.0596 1.24512Q16.5625 1.72852 16.5625 2.69531L16.5625 14.6582Q16.5625 15.6152 16.0596 16.1035Q15.5566 16.5918 14.6289 16.5918Z" fill="rgba(255,255,255,0.5)"/>
  <path d="M5.46875 10.4785Q5.46875 10.6641 5.58594 10.7715Q5.70312 10.8789 5.91797 10.8789L9.76562 10.8789L9.76562 12.6367Q9.76562 12.832 9.86328 12.9346Q9.96094 13.0371 10.127 13.0371Q10.293 13.0371 10.3906 12.9346Q10.4883 12.832 10.4883 12.6367L10.4883 10.8789L11.5332 10.8789Q11.709 10.8789 11.8066 10.7812Q11.9043 10.6836 11.9043 10.5273Q11.9043 10.3711 11.8066 10.2832Q11.709 10.1953 11.5332 10.1953L10.4883 10.1953L10.4883 7.66602Q10.4883 7.48047 10.3906 7.37305Q10.293 7.26562 10.127 7.26562Q9.96094 7.26562 9.86328 7.37305Q9.76562 7.48047 9.76562 7.66602L9.76562 10.1953L6.39648 10.1953Q6.79688 9.41406 7.3291 8.49121Q7.86133 7.56836 8.4082 6.62109Q8.95508 5.67383 9.4043 4.85352Q9.42383 4.79492 9.43848 4.74609Q9.45312 4.69727 9.45312 4.62891Q9.45312 4.49219 9.37012 4.38965Q9.28711 4.28711 9.10156 4.28711Q8.99414 4.28711 8.91602 4.34082Q8.83789 4.39453 8.76953 4.51172Q8.31055 5.30273 7.74414 6.2793Q7.17773 7.25586 6.61133 8.25684Q6.04492 9.25781 5.57617 10.127Q5.50781 10.2344 5.48828 10.3174Q5.46875 10.4004 5.46875 10.4785Z" fill="#ffffff"/>
 </g>
</svg>
