<?xml version="1.0" encoding="UTF-8"?>
<!--Generator: Apple Native CoreSVG 175-->
<!DOCTYPE svg
PUBLIC "-//W3C//DTD SVG 1.1//EN"
       "http://www.w3.org/Graphics/SVG/1.1/DTD/svg11.dtd">
<svg version="1.1" xmlns="http://www.w3.org/2000/svg" xmlns:xlink="http://www.w3.org/1999/xlink" width="17.2852" height="17.3145">
 <g>
  <rect height="17.3145" opacity="0" width="17.2852" x="0" y="0"/>
  <path d="M2.62695 17.3145L14.6484 17.3145Q15.957 17.3145 16.6211 16.6455Q17.2852 15.9766 17.2852 14.6875L17.2852 2.65625Q17.2852 1.37695 16.6211 0.703125Q15.957 0.0292969 14.6484 0.0292969L2.62695 0.0292969Q1.33789 0.0292969 0.668945 0.693359Q0 1.35742 0 2.65625L0 14.6875Q0 15.9863 0.668945 16.6504Q1.33789 17.3145 2.62695 17.3145ZM2.65625 16.5918Q1.70898 16.5918 1.2207 16.1035Q0.732422 15.6152 0.732422 14.6582L0.732422 2.69531Q0.732422 1.72852 1.2207 1.24512Q1.70898 0.761719 2.65625 0.761719L14.6289 0.761719Q15.5566 0.761719 16.0596 1.24512Q16.5625 1.72852 16.5625 2.69531L16.5625 14.6582Q16.5625 15.6152 16.0596 16.1035Q15.5566 16.5918 14.6289 16.5918Z" fill="rgba(255,255,255,0.5)"/>
  <path d="M6.67969 12.6562Q7.01172 12.6562 7.01172 12.334L7.01172 4.99023Q7.01172 4.82422 6.9043 4.72656Q6.79688 4.62891 6.64062 4.62891Q6.52344 4.62891 6.43066 4.66309Q6.33789 4.69727 6.23047 4.76562L4.3457 5.99609Q4.17969 6.10352 4.17969 6.28906Q4.17969 6.41602 4.26758 6.50879Q4.35547 6.60156 4.48242 6.60156Q4.54102 6.60156 4.58008 6.59668Q4.61914 6.5918 4.67773 6.54297L6.31836 5.45898L6.35742 5.45898L6.35742 12.334Q6.35742 12.6562 6.67969 12.6562ZM11.6504 12.6562Q11.9727 12.6562 11.9727 12.334L11.9727 4.99023Q11.9727 4.82422 11.8701 4.72656Q11.7676 4.62891 11.6016 4.62891Q11.4844 4.62891 11.3965 4.66309Q11.3086 4.69727 11.1914 4.76562L9.31641 5.99609Q9.14062 6.10352 9.14062 6.28906Q9.14062 6.41602 9.2334 6.50879Q9.32617 6.60156 9.44336 6.60156Q9.50195 6.60156 9.54102 6.59668Q9.58008 6.5918 9.64844 6.54297L11.2891 5.45898L11.3184 5.45898L11.3184 12.334Q11.3184 12.6562 11.6504 12.6562Z" fill="#ffffff"/>
 </g>
</svg>
