<?xml version="1.0" encoding="UTF-8"?>
<!--Generator: Apple Native CoreSVG 175-->
<!DOCTYPE svg
PUBLIC "-//W3C//DTD SVG 1.1//EN"
       "http://www.w3.org/Graphics/SVG/1.1/DTD/svg11.dtd">
<svg version="1.1" xmlns="http://www.w3.org/2000/svg" xmlns:xlink="http://www.w3.org/1999/xlink" width="22.9492" height="18.3496">
 <g>
  <rect height="18.3496" opacity="0" width="22.9492" x="0" y="0"/>
  <path d="M1.98242 15.8203L20.9668 15.8203Q21.9531 15.8203 22.4512 15.3223Q22.9492 14.8242 22.9492 13.8281L22.9492 2.49023Q22.9492 1.50391 22.4512 1.01074Q21.9531 0.517578 20.9668 0.517578L1.98242 0.517578Q0.996094 0.517578 0.498047 1.01074Q0 1.50391 0 2.49023L0 13.8281Q0 14.8242 0.498047 15.3223Q0.996094 15.8203 1.98242 15.8203ZM6.80664 18.3496L16.1426 18.3496Q16.2988 18.3496 16.4062 18.2471Q16.5137 18.1445 16.5137 17.9883Q16.5137 17.832 16.4062 17.7295Q16.2988 17.627 16.1426 17.627L6.80664 17.627Q6.66016 17.627 6.54785 17.7295Q6.43555 17.832 6.43555 17.9883Q6.43555 18.1445 6.54785 18.2471Q6.66016 18.3496 6.80664 18.3496Z" fill="rgba(255,255,255,0.18)"/>
  <path d="M8.44727 12.5391Q8.29102 12.5391 8.19336 12.4365Q8.0957 12.334 8.0957 12.168L8.0957 10.4395L4.36523 10.4395Q4.0918 10.4395 3.94043 10.3076Q3.78906 10.1758 3.78906 9.94141Q3.78906 9.82422 3.82324 9.72168Q3.85742 9.61914 3.92578 9.52148Q4.19922 9.0332 4.6582 8.33008Q5.11719 7.62695 5.63965 6.85547Q6.16211 6.08398 6.65039 5.37109Q7.13867 4.6582 7.4707 4.16992Q7.63672 3.93555 7.80762 3.83789Q7.97852 3.74023 8.21289 3.74023Q8.48633 3.74023 8.64746 3.88672Q8.80859 4.0332 8.80859 4.26758L8.80859 9.78516L9.92188 9.78516Q10.0684 9.78516 10.1562 9.88281Q10.2441 9.98047 10.2441 10.1172Q10.2441 10.2637 10.1562 10.3516Q10.0684 10.4395 9.92188 10.4395L8.80859 10.4395L8.80859 12.168Q8.80859 12.334 8.71094 12.4365Q8.61328 12.5391 8.44727 12.5391ZM8.0957 9.78516L8.0957 4.47266L8.04688 4.47266Q7.82227 4.79492 7.46582 5.32715Q7.10938 5.85938 6.68457 6.48926Q6.25977 7.11914 5.83984 7.74902Q5.41992 8.37891 5.08301 8.90625Q4.74609 9.43359 4.56055 9.73633L4.56055 9.78516ZM12.3438 12.5391Q12.1777 12.5391 12.0801 12.4365Q11.9824 12.334 11.9824 12.1582L11.9824 4.17969Q11.9824 4.00391 12.0801 3.90625Q12.1777 3.80859 12.3438 3.80859Q12.5098 3.80859 12.6025 3.90625Q12.6953 4.00391 12.6953 4.17969L12.6953 8.37891L12.7539 8.37891L17.1289 3.97461Q17.2168 3.87695 17.2852 3.84277Q17.3535 3.80859 17.4512 3.80859Q17.5781 3.80859 17.6758 3.89648Q17.7734 3.98438 17.7734 4.11133Q17.7734 4.18945 17.7441 4.24805Q17.7148 4.30664 17.6562 4.375L14.5117 7.54883L17.9199 11.875Q17.9688 11.9434 18.0127 12.0215Q18.0566 12.0996 18.0566 12.1875Q18.0566 12.334 17.9541 12.4316Q17.8516 12.5293 17.7051 12.5293Q17.5781 12.5293 17.5049 12.4854Q17.4316 12.4414 17.334 12.3145L13.9844 8.04688L12.6953 9.35547L12.6953 12.1582Q12.6953 12.334 12.6025 12.4365Q12.5098 12.5391 12.3438 12.5391Z" fill="#ffffff"/>
 </g>
</svg>
