<?xml version="1.0" encoding="UTF-8"?>
<!--Generator: Apple Native CoreSVG 175-->
<!DOCTYPE svg
PUBLIC "-//W3C//DTD SVG 1.1//EN"
       "http://www.w3.org/Graphics/SVG/1.1/DTD/svg11.dtd">
<svg version="1.1" xmlns="http://www.w3.org/2000/svg" xmlns:xlink="http://www.w3.org/1999/xlink" width="17.2852" height="17.3145">
 <g>
  <rect height="17.3145" opacity="0" width="17.2852" x="0" y="0"/>
  <path d="M2.62695 17.3145L14.6484 17.3145Q15.957 17.3145 16.6211 16.6455Q17.2852 15.9766 17.2852 14.6875L17.2852 2.65625Q17.2852 1.37695 16.6211 0.703125Q15.957 0.0292969 14.6484 0.0292969L2.62695 0.0292969Q1.33789 0.0292969 0.668945 0.693359Q0 1.35742 0 2.65625L0 14.6875Q0 15.9863 0.668945 16.6504Q1.33789 17.3145 2.62695 17.3145Z" fill="rgba(255,255,255,0.18)"/>
  <path d="M9.81445 13.0566Q9.63867 13.0566 9.54102 12.9541Q9.44336 12.8516 9.44336 12.6758L9.44336 10.957L5.66406 10.957Q5.38086 10.957 5.22949 10.8154Q5.07812 10.6738 5.07812 10.4297Q5.07812 10.3223 5.11719 10.2148Q5.15625 10.1074 5.21484 10Q5.50781 9.52148 5.97168 8.81348Q6.43555 8.10547 6.95801 7.31445Q7.48047 6.52344 7.97363 5.81055Q8.4668 5.09766 8.80859 4.59961Q8.96484 4.3457 9.14062 4.24805Q9.31641 4.15039 9.56055 4.15039Q9.84375 4.15039 10.0098 4.30176Q10.1758 4.45312 10.1758 4.69727L10.1758 10.2734L11.2988 10.2734Q11.4551 10.2734 11.5479 10.3711Q11.6406 10.4688 11.6406 10.625Q11.6406 10.7715 11.5479 10.8643Q11.4551 10.957 11.2988 10.957L10.1758 10.957L10.1758 12.6758Q10.1758 12.8516 10.0781 12.9541Q9.98047 13.0566 9.81445 13.0566ZM9.44336 10.2734L9.44336 4.90234L9.39453 4.90234Q9.16992 5.23438 8.80859 5.77148Q8.44727 6.30859 8.01758 6.94336Q7.58789 7.57812 7.16797 8.21289Q6.74805 8.84766 6.40137 9.37988Q6.05469 9.91211 5.86914 10.2246L5.86914 10.2734Z" fill="#ffffff"/>
 </g>
</svg>
