<?xml version="1.0" encoding="UTF-8"?>
<!--Generator: Apple Native CoreSVG 175-->
<!DOCTYPE svg
PUBLIC "-//W3C//DTD SVG 1.1//EN"
       "http://www.w3.org/Graphics/SVG/1.1/DTD/svg11.dtd">
<svg version="1.1" xmlns="http://www.w3.org/2000/svg" xmlns:xlink="http://www.w3.org/1999/xlink" width="19.1602" height="19.1504">
 <g>
  <rect height="19.1504" opacity="0" width="19.1602" x="0" y="0"/>
  <path d="M9.57031 19.1406Q11.5527 19.1406 13.2861 18.3984Q15.0195 17.6562 16.3379 16.333Q17.6562 15.0098 18.4082 13.2764Q19.1602 11.543 19.1602 9.57031Q19.1602 7.59766 18.4082 5.86426Q17.6562 4.13086 16.3379 2.80762Q15.0195 1.48438 13.2861 0.742188Q11.5527 0 9.57031 0Q7.59766 0 5.86426 0.742188Q4.13086 1.48438 2.81738 2.80762Q1.50391 4.13086 0.751953 5.86426Q0 7.59766 0 9.57031Q0 11.543 0.74707 13.2764Q1.49414 15.0098 2.8125 16.333Q4.13086 17.6562 5.86914 18.3984Q7.60742 19.1406 9.57031 19.1406ZM9.57031 18.3984Q7.74414 18.3984 6.14746 17.71Q4.55078 17.0215 3.33496 15.8105Q2.11914 14.5996 1.43555 12.998Q0.751953 11.3965 0.751953 9.57031Q0.751953 7.74414 1.43555 6.14258Q2.11914 4.54102 3.33496 3.3252Q4.55078 2.10938 6.14746 1.4209Q7.74414 0.732422 9.57031 0.732422Q11.4062 0.732422 13.0029 1.4209Q14.5996 2.10938 15.8154 3.3252Q17.0312 4.54102 17.7197 6.14258Q18.4082 7.74414 18.4082 9.57031Q18.4082 11.3965 17.7246 12.998Q17.041 14.5996 15.8252 15.8105Q14.6094 17.0215 13.0078 17.71Q11.4062 18.3984 9.57031 18.3984Z" fill="rgba(255,255,255,0.5)"/>
  <path d="M6.2793 13.6523Q7.44141 13.6523 8.19336 13.0078Q8.94531 12.3633 8.94531 11.3672Q8.94531 10.6055 8.42773 10.0439Q7.91016 9.48242 7.13867 9.4043L7.13867 9.38477Q7.79297 9.26758 8.23242 8.7207Q8.67188 8.17383 8.67188 7.49023Q8.67188 6.61133 7.99805 6.0498Q7.32422 5.48828 6.28906 5.48828Q5.41992 5.48828 4.75586 5.92285Q4.0918 6.35742 3.91602 7.08008Q3.88672 7.2168 3.88672 7.36328Q3.88672 7.51953 3.96484 7.61719Q4.04297 7.71484 4.21875 7.71484Q4.33594 7.71484 4.41895 7.6416Q4.50195 7.56836 4.53125 7.41211Q4.64844 6.82617 5.1123 6.47461Q5.57617 6.12305 6.2793 6.12305Q7.05078 6.12305 7.52441 6.52344Q7.99805 6.92383 7.99805 7.56836Q7.99805 8.22266 7.51953 8.66699Q7.04102 9.11133 6.31836 9.11133L5.5957 9.11133Q5.45898 9.11133 5.37109 9.19922Q5.2832 9.28711 5.2832 9.43359Q5.2832 9.57031 5.36621 9.6582Q5.44922 9.74609 5.5957 9.74609L6.38672 9.74609Q7.19727 9.74609 7.73438 10.2051Q8.27148 10.6641 8.27148 11.3574Q8.27148 12.0898 7.72461 12.5537Q7.17773 13.0176 6.2793 13.0176Q5.625 13.0176 5.09766 12.6709Q4.57031 12.3242 4.375 11.7285Q4.27734 11.4355 4.04297 11.4355Q3.89648 11.4355 3.80859 11.5332Q3.7207 11.6309 3.7207 11.7676Q3.7207 11.8555 3.73047 11.9189Q3.74023 11.9824 3.76953 12.041Q3.97461 12.6953 4.6582 13.1738Q5.3418 13.6523 6.2793 13.6523ZM11.0059 13.5059L15.1953 13.5059Q15.3418 13.5059 15.4199 13.4131Q15.498 13.3203 15.498 13.1836Q15.498 13.0469 15.4199 12.959Q15.3418 12.8711 15.1953 12.8711L11.6211 12.8711L11.6211 12.8418L14.0137 10.0488Q14.6582 9.29688 14.9658 8.74512Q15.2734 8.19336 15.2734 7.60742Q15.2734 6.64062 14.6191 6.06445Q13.9648 5.48828 12.9004 5.48828Q12.002 5.48828 11.3086 5.99609Q10.6152 6.50391 10.4688 7.28516Q10.459 7.36328 10.4492 7.42676Q10.4395 7.49023 10.4395 7.55859Q10.4395 7.70508 10.5273 7.80273Q10.6152 7.90039 10.7617 7.90039Q10.9082 7.90039 10.9863 7.81738Q11.0645 7.73438 11.0938 7.58789Q11.1719 6.94336 11.6699 6.5332Q12.168 6.12305 12.9102 6.12305Q13.6914 6.12305 14.1455 6.52832Q14.5996 6.93359 14.5996 7.61719Q14.5996 8.0957 14.3604 8.53027Q14.1211 8.96484 13.6426 9.51172L10.7617 12.8516Q10.6543 12.9785 10.6543 13.1641Q10.6543 13.3301 10.752 13.418Q10.8496 13.5059 11.0059 13.5059Z" fill="#ffffff"/>
 </g>
</svg>
