<?xml version="1.0" encoding="UTF-8"?>
<!--Generator: Apple Native CoreSVG 175-->
<!DOCTYPE svg
PUBLIC "-//W3C//DTD SVG 1.1//EN"
       "http://www.w3.org/Graphics/SVG/1.1/DTD/svg11.dtd">
<svg version="1.1" xmlns="http://www.w3.org/2000/svg" xmlns:xlink="http://www.w3.org/1999/xlink" width="17.2852" height="17.3145">
 <g>
  <rect height="17.3145" opacity="0" width="17.2852" x="0" y="0"/>
  <path d="M2.62695 17.3145L14.6484 17.3145Q15.957 17.3145 16.6211 16.6455Q17.2852 15.9766 17.2852 14.6875L17.2852 2.65625Q17.2852 1.37695 16.6211 0.703125Q15.957 0.0292969 14.6484 0.0292969L2.62695 0.0292969Q1.33789 0.0292969 0.668945 0.693359Q0 1.35742 0 2.65625L0 14.6875Q0 15.9863 0.668945 16.6504Q1.33789 17.3145 2.62695 17.3145ZM2.65625 16.5918Q1.70898 16.5918 1.2207 16.1035Q0.732422 15.6152 0.732422 14.6582L0.732422 2.69531Q0.732422 1.72852 1.2207 1.24512Q1.70898 0.761719 2.65625 0.761719L14.6289 0.761719Q15.5566 0.761719 16.0596 1.24512Q16.5625 1.72852 16.5625 2.69531L16.5625 14.6582Q16.5625 15.6152 16.0596 16.1035Q15.5566 16.5918 14.6289 16.5918Z" fill="rgba(255,255,255,0.5)"/>
  <path d="M6.49414 12.9785L11.4551 12.9785Q11.5918 12.9785 11.6846 12.8857Q11.7773 12.793 11.7773 12.6465Q11.7773 12.5 11.6846 12.4072Q11.5918 12.3145 11.4551 12.3145L7.1582 12.3145L7.1582 12.2656L9.99023 9.15039Q10.7324 8.33008 11.0596 7.73438Q11.3867 7.13867 11.3867 6.48438Q11.3867 5.44922 10.6689 4.81445Q9.95117 4.17969 8.75977 4.17969Q7.74414 4.17969 6.96777 4.73145Q6.19141 5.2832 6.04492 6.14258Q6.03516 6.2207 6.02539 6.28906Q6.01562 6.35742 6.01562 6.42578Q6.01562 6.58203 6.1084 6.67969Q6.20117 6.77734 6.35742 6.77734Q6.51367 6.77734 6.59668 6.69922Q6.67969 6.62109 6.71875 6.47461Q6.80664 5.78125 7.3584 5.30762Q7.91016 4.83398 8.76953 4.83398Q9.64844 4.83398 10.1611 5.28809Q10.6738 5.74219 10.6738 6.50391Q10.6738 7.03125 10.4004 7.52441Q10.127 8.01758 9.59961 8.59375L6.25 12.2949Q6.17188 12.3828 6.14258 12.4512Q6.11328 12.5195 6.11328 12.6172Q6.11328 12.7832 6.21094 12.8809Q6.30859 12.9785 6.49414 12.9785Z" fill="#ffffff"/>
 </g>
</svg>
