<?xml version="1.0" encoding="UTF-8"?>
<!--Generator: Apple Native CoreSVG 175-->
<!DOCTYPE svg
PUBLIC "-//W3C//DTD SVG 1.1//EN"
       "http://www.w3.org/Graphics/SVG/1.1/DTD/svg11.dtd">
<svg version="1.1" xmlns="http://www.w3.org/2000/svg" xmlns:xlink="http://www.w3.org/1999/xlink" width="19.1602" height="19.1504">
 <g>
  <rect height="19.1504" opacity="0" width="19.1602" x="0" y="0"/>
  <path d="M9.57031 19.1406Q11.5527 19.1406 13.2861 18.3984Q15.0195 17.6562 16.3379 16.333Q17.6562 15.0098 18.4082 13.2764Q19.1602 11.543 19.1602 9.57031Q19.1602 7.59766 18.4082 5.86426Q17.6562 4.13086 16.3379 2.80762Q15.0195 1.48438 13.2861 0.742188Q11.5527 0 9.57031 0Q7.59766 0 5.86426 0.742188Q4.13086 1.48438 2.81738 2.80762Q1.50391 4.13086 0.751953 5.86426Q0 7.59766 0 9.57031Q0 11.543 0.74707 13.2764Q1.49414 15.0098 2.8125 16.333Q4.13086 17.6562 5.86914 18.3984Q7.60742 19.1406 9.57031 19.1406ZM9.57031 18.3984Q7.74414 18.3984 6.14746 17.71Q4.55078 17.0215 3.33496 15.8105Q2.11914 14.5996 1.43555 12.998Q0.751953 11.3965 0.751953 9.57031Q0.751953 7.74414 1.43555 6.14258Q2.11914 4.54102 3.33496 3.3252Q4.55078 2.10938 6.14746 1.4209Q7.74414 0.732422 9.57031 0.732422Q11.4062 0.732422 13.0029 1.4209Q14.5996 2.10938 15.8154 3.3252Q17.0312 4.54102 17.7197 6.14258Q18.4082 7.74414 18.4082 9.57031Q18.4082 11.3965 17.7246 12.998Q17.041 14.5996 15.8252 15.8105Q14.6094 17.0215 13.0078 17.71Q11.4062 18.3984 9.57031 18.3984Z" fill="rgba(255,255,255,0.5)"/>
  <path d="M4.60938 13.5059L8.79883 13.5059Q8.94531 13.5059 9.02344 13.4131Q9.10156 13.3203 9.10156 13.1836Q9.10156 13.0469 9.02344 12.959Q8.94531 12.8711 8.79883 12.8711L5.22461 12.8711L5.22461 12.8418L7.61719 10.0488Q8.26172 9.29688 8.56934 8.74512Q8.87695 8.19336 8.87695 7.60742Q8.87695 6.64062 8.22266 6.06445Q7.56836 5.48828 6.50391 5.48828Q5.60547 5.48828 4.91211 5.99609Q4.21875 6.50391 4.07227 7.28516Q4.0625 7.36328 4.05273 7.42676Q4.04297 7.49023 4.04297 7.55859Q4.04297 7.70508 4.13086 7.80273Q4.21875 7.90039 4.36523 7.90039Q4.51172 7.90039 4.58984 7.81738Q4.66797 7.73438 4.69727 7.58789Q4.77539 6.94336 5.27344 6.5332Q5.77148 6.12305 6.52344 6.12305Q7.29492 6.12305 7.74902 6.52832Q8.20312 6.93359 8.20312 7.61719Q8.20312 8.0957 7.96387 8.53027Q7.72461 8.96484 7.25586 9.51172L4.36523 12.8516Q4.25781 12.9785 4.25781 13.1641Q4.25781 13.3301 4.35547 13.418Q4.45312 13.5059 4.60938 13.5059ZM11.0938 13.5059L15.2734 13.5059Q15.4297 13.5059 15.5078 13.4131Q15.5859 13.3203 15.5859 13.1836Q15.5859 13.0469 15.5078 12.959Q15.4297 12.8711 15.2734 12.8711L11.709 12.8711L11.709 12.8418L14.1016 10.0488Q14.7461 9.29688 15.0537 8.74512Q15.3613 8.19336 15.3613 7.60742Q15.3613 6.64062 14.707 6.06445Q14.0527 5.48828 12.9883 5.48828Q12.0898 5.48828 11.3965 5.99609Q10.7031 6.50391 10.5566 7.28516Q10.5469 7.36328 10.5371 7.42676Q10.5273 7.49023 10.5273 7.55859Q10.5273 7.70508 10.6152 7.80273Q10.7031 7.90039 10.8496 7.90039Q10.9863 7.90039 11.0693 7.81738Q11.1523 7.73438 11.1816 7.58789Q11.2598 6.94336 11.7529 6.5332Q12.2461 6.12305 12.998 6.12305Q13.7793 6.12305 14.2334 6.52832Q14.6875 6.93359 14.6875 7.61719Q14.6875 8.0957 14.4434 8.53027Q14.1992 8.96484 13.7305 9.51172L10.8496 12.8516Q10.7324 12.9785 10.7324 13.1641Q10.7324 13.3301 10.835 13.418Q10.9375 13.5059 11.0938 13.5059Z" fill="#ffffff"/>
 </g>
</svg>
