<?xml version="1.0" encoding="UTF-8"?>
<!--Generator: Apple Native CoreSVG 175-->
<!DOCTYPE svg
PUBLIC "-//W3C//DTD SVG 1.1//EN"
       "http://www.w3.org/Graphics/SVG/1.1/DTD/svg11.dtd">
<svg version="1.1" xmlns="http://www.w3.org/2000/svg" xmlns:xlink="http://www.w3.org/1999/xlink" width="17.2852" height="17.3145">
 <g>
  <rect height="17.3145" opacity="0" width="17.2852" x="0" y="0"/>
  <path d="M2.62695 17.3145L14.6484 17.3145Q15.957 17.3145 16.6211 16.6455Q17.2852 15.9766 17.2852 14.6875L17.2852 2.65625Q17.2852 1.37695 16.6211 0.703125Q15.957 0.0292969 14.6484 0.0292969L2.62695 0.0292969Q1.33789 0.0292969 0.668945 0.693359Q0 1.35742 0 2.65625L0 14.6875Q0 15.9863 0.668945 16.6504Q1.33789 17.3145 2.62695 17.3145Z" fill="rgba(255,255,255,0.18)"/>
  <path d="M5.16602 12.7637Q4.21875 12.7637 3.53516 12.2803Q2.85156 11.7969 2.63672 11.1426Q2.61719 11.0742 2.60254 11.0156Q2.58789 10.957 2.58789 10.8691Q2.58789 10.7227 2.68066 10.6201Q2.77344 10.5176 2.91992 10.5176Q3.16406 10.5176 3.26172 10.8203Q3.45703 11.4258 3.97949 11.7725Q4.50195 12.1191 5.17578 12.1191Q6.07422 12.1191 6.62109 11.6504Q7.16797 11.1816 7.16797 10.4492Q7.16797 9.75586 6.63086 9.29688Q6.09375 8.83789 5.27344 8.83789L4.48242 8.83789Q4.32617 8.83789 4.24805 8.74512Q4.16992 8.65234 4.16992 8.51562Q4.16992 8.36914 4.25293 8.28125Q4.33594 8.19336 4.48242 8.19336L5.20508 8.19336Q5.9375 8.19336 6.41602 7.74414Q6.89453 7.29492 6.89453 6.64062Q6.89453 5.98633 6.4209 5.58105Q5.94727 5.17578 5.16602 5.17578Q4.46289 5.17578 3.99902 5.53711Q3.53516 5.89844 3.4082 6.48438Q3.37891 6.64062 3.30078 6.71387Q3.22266 6.78711 3.0957 6.78711Q2.91016 6.78711 2.83203 6.68457Q2.75391 6.58203 2.75391 6.42578Q2.75391 6.2793 2.7832 6.15234Q2.95898 5.41992 3.63281 4.98047Q4.30664 4.54102 5.17578 4.54102Q6.2207 4.54102 6.89941 5.10742Q7.57812 5.67383 7.57812 6.5625Q7.57812 7.24609 7.13379 7.79785Q6.68945 8.34961 6.03516 8.4668L6.03516 8.48633Q6.81641 8.56445 7.33398 9.13086Q7.85156 9.69727 7.85156 10.459Q7.85156 11.4648 7.09473 12.1143Q6.33789 12.7637 5.16602 12.7637ZM12.0898 12.7734Q11.2305 12.7734 10.6494 12.417Q10.0684 12.0605 9.74609 11.3965Q9.51172 10.918 9.4043 10.293Q9.29688 9.66797 9.29688 8.90625Q9.29688 6.81641 10.0732 5.67871Q10.8496 4.54102 12.2461 4.54102Q12.8613 4.54102 13.3301 4.75586Q13.7988 4.9707 14.0869 5.28809Q14.375 5.60547 14.4824 5.88867Q14.5215 5.98633 14.5215 6.08398Q14.5215 6.21094 14.4434 6.29883Q14.3652 6.38672 14.2188 6.38672Q14.1211 6.38672 14.0479 6.32812Q13.9746 6.26953 13.916 6.16211Q13.6816 5.71289 13.2373 5.44434Q12.793 5.17578 12.2266 5.17578Q11.1523 5.17578 10.5322 6.15723Q9.91211 7.13867 9.91211 8.88672Q9.91211 8.90625 9.91211 8.93066Q9.91211 8.95508 9.91211 8.97461L9.94141 8.97461Q10.1953 8.34961 10.8252 7.94922Q11.4551 7.54883 12.2461 7.54883Q13.3398 7.54883 14.0674 8.25684Q14.7949 8.96484 14.7949 10.0879Q14.7949 11.2988 14.043 12.0361Q13.291 12.7734 12.0898 12.7734ZM12.0898 12.1387Q13.0078 12.1387 13.5693 11.5918Q14.1309 11.0449 14.1309 10.127Q14.1309 9.23828 13.5645 8.69629Q12.998 8.1543 12.0996 8.1543Q11.2012 8.1543 10.6299 8.70605Q10.0586 9.25781 10.0586 10.1172Q10.0586 10.9961 10.6299 11.5674Q11.2012 12.1387 12.0898 12.1387Z" fill="#ffffff"/>
 </g>
</svg>
