<?xml version="1.0" encoding="UTF-8"?>
<!--Generator: Apple Native CoreSVG 175-->
<!DOCTYPE svg
PUBLIC "-//W3C//DTD SVG 1.1//EN"
       "http://www.w3.org/Graphics/SVG/1.1/DTD/svg11.dtd">
<svg version="1.1" xmlns="http://www.w3.org/2000/svg" xmlns:xlink="http://www.w3.org/1999/xlink" width="17.2852" height="17.3145">
 <g>
  <rect height="17.3145" opacity="0" width="17.2852" x="0" y="0"/>
  <path d="M2.62695 17.3145L14.6484 17.3145Q15.957 17.3145 16.6211 16.6455Q17.2852 15.9766 17.2852 14.6875L17.2852 2.65625Q17.2852 1.37695 16.6211 0.703125Q15.957 0.0292969 14.6484 0.0292969L2.62695 0.0292969Q1.33789 0.0292969 0.668945 0.693359Q0 1.35742 0 2.65625L0 14.6875Q0 15.9863 0.668945 16.6504Q1.33789 17.3145 2.62695 17.3145ZM2.65625 16.5918Q1.70898 16.5918 1.2207 16.1035Q0.732422 15.6152 0.732422 14.6582L0.732422 2.69531Q0.732422 1.72852 1.2207 1.24512Q1.70898 0.761719 2.65625 0.761719L14.6289 0.761719Q15.5566 0.761719 16.0596 1.24512Q16.5625 1.72852 16.5625 2.69531L16.5625 14.6582Q16.5625 15.6152 16.0596 16.1035Q15.5566 16.5918 14.6289 16.5918Z" fill="rgba(255,255,255,0.5)"/>
  <path d="M5.40039 12.7344Q6.2207 12.7344 6.8457 12.2217Q7.4707 11.709 7.81738 10.791Q8.16406 9.87305 8.16406 8.65234Q8.16406 7.43164 7.81738 6.50879Q7.4707 5.58594 6.8457 5.07812Q6.2207 4.57031 5.40039 4.57031Q4.58008 4.57031 3.95508 5.07812Q3.33008 5.58594 2.9834 6.50879Q2.63672 7.43164 2.63672 8.65234Q2.63672 9.87305 2.9834 10.791Q3.33008 11.709 3.95508 12.2217Q4.58008 12.7344 5.40039 12.7344ZM5.40039 12.0898Q4.47266 12.0898 3.8916 11.1426Q3.31055 10.1953 3.31055 8.65234Q3.31055 7.10938 3.8916 6.16211Q4.47266 5.21484 5.40039 5.21484Q6.32812 5.21484 6.90918 6.16211Q7.49023 7.10938 7.49023 8.65234Q7.49023 10.1953 6.90918 11.1426Q6.32812 12.0898 5.40039 12.0898ZM12.0508 12.7344Q13.252 12.7344 14.0088 12.0068Q14.7656 11.2793 14.7656 10.0781Q14.7656 8.97461 14.0576 8.24707Q13.3496 7.51953 12.2461 7.51953Q11.6895 7.51953 11.1768 7.76367Q10.6641 8.00781 10.3516 8.42773L10.3418 8.42773L10.5859 5.26367L14.1016 5.26367Q14.2285 5.26367 14.3164 5.17578Q14.4043 5.08789 14.4043 4.96094Q14.4043 4.83398 14.3213 4.74609Q14.2383 4.6582 14.1016 4.6582L10.459 4.6582Q10.2539 4.6582 10.1318 4.78516Q10.0098 4.91211 9.99023 5.11719L9.70703 8.70117Q9.69727 8.89648 9.7998 9.01367Q9.90234 9.13086 10.0879 9.13086Q10.2051 9.13086 10.2881 9.09668Q10.3711 9.0625 10.4688 8.95508Q10.8887 8.50586 11.2988 8.31055Q11.709 8.11523 12.1777 8.11523Q13.0371 8.11523 13.5742 8.67188Q14.1113 9.22852 14.1113 10.0879Q14.1113 10.9766 13.5449 11.543Q12.9785 12.1094 12.1094 12.1094Q11.416 12.1094 10.8789 11.7676Q10.3418 11.4258 10.1855 10.8887Q10.1367 10.7617 10.0586 10.6885Q9.98047 10.6152 9.86328 10.6152Q9.73633 10.6152 9.64844 10.6982Q9.56055 10.7812 9.56055 10.918Q9.56055 10.9766 9.5752 11.0352Q9.58984 11.0938 9.60938 11.1621Q9.82422 11.8262 10.459 12.2803Q11.0938 12.7344 12.0508 12.7344Z" fill="#ffffff"/>
 </g>
</svg>
