<?xml version="1.0" encoding="UTF-8"?>
<!--Generator: Apple Native CoreSVG 175-->
<!DOCTYPE svg
PUBLIC "-//W3C//DTD SVG 1.1//EN"
       "http://www.w3.org/Graphics/SVG/1.1/DTD/svg11.dtd">
<svg version="1.1" xmlns="http://www.w3.org/2000/svg" xmlns:xlink="http://www.w3.org/1999/xlink" width="17.2852" height="17.3145">
 <g>
  <rect height="17.3145" opacity="0" width="17.2852" x="0" y="0"/>
  <path d="M2.62695 17.3145L14.6484 17.3145Q15.957 17.3145 16.6211 16.6455Q17.2852 15.9766 17.2852 14.6875L17.2852 2.65625Q17.2852 1.37695 16.6211 0.703125Q15.957 0.0292969 14.6484 0.0292969L2.62695 0.0292969Q1.33789 0.0292969 0.668945 0.693359Q0 1.35742 0 2.65625L0 14.6875Q0 15.9863 0.668945 16.6504Q1.33789 17.3145 2.62695 17.3145Z" fill="rgba(255,255,255,0.18)"/>
  <path d="M5.39062 12.7637Q4.56055 12.7637 3.93555 12.2461Q3.31055 11.7285 2.95898 10.8057Q2.60742 9.88281 2.60742 8.65234Q2.60742 7.42188 2.95898 6.49414Q3.31055 5.56641 3.93555 5.05371Q4.56055 4.54102 5.39062 4.54102Q6.2207 4.54102 6.8457 5.05371Q7.4707 5.56641 7.82227 6.49414Q8.17383 7.42188 8.17383 8.65234Q8.17383 9.88281 7.82227 10.8057Q7.4707 11.7285 6.8457 12.2461Q6.2207 12.7637 5.39062 12.7637ZM5.39062 12.1094Q6.32812 12.1094 6.9043 11.1572Q7.48047 10.2051 7.48047 8.65234Q7.48047 7.09961 6.9043 6.14746Q6.32812 5.19531 5.39062 5.19531Q4.46289 5.19531 3.87695 6.14746Q3.29102 7.09961 3.29102 8.65234Q3.29102 10.2051 3.87695 11.1572Q4.46289 12.1094 5.39062 12.1094ZM11.8457 12.7637Q11.0645 12.7637 10.4785 12.3975Q9.89258 12.0312 9.67773 11.6406Q9.61914 11.5332 9.5752 11.4209Q9.53125 11.3086 9.53125 11.2012Q9.53125 11.0645 9.60938 10.9766Q9.6875 10.8887 9.82422 10.8887Q10.0293 10.8887 10.166 11.1719Q10.3809 11.6016 10.835 11.8701Q11.2891 12.1387 11.8457 12.1387Q12.5781 12.1387 13.1006 11.709Q13.623 11.2793 13.8965 10.4346Q14.1699 9.58984 14.1699 8.33008L14.1504 8.33008Q13.8477 9.02344 13.252 9.41406Q12.6562 9.80469 11.7969 9.80469Q11.0742 9.80469 10.5078 9.46289Q9.94141 9.12109 9.60938 8.54004Q9.27734 7.95898 9.27734 7.2168Q9.27734 6.03516 10.0391 5.28809Q10.8008 4.54102 11.9727 4.54102Q13.2422 4.54102 14.0186 5.44922Q14.7949 6.35742 14.7949 8.18359Q14.7949 10.498 14.0381 11.6309Q13.2812 12.7637 11.8457 12.7637ZM11.9727 9.20898Q12.8613 9.20898 13.4424 8.63281Q14.0234 8.05664 14.0234 7.1875Q14.0234 6.30859 13.4375 5.73242Q12.8516 5.15625 11.9922 5.15625Q11.1035 5.15625 10.5225 5.71777Q9.94141 6.2793 9.94141 7.16797Q9.94141 8.04688 10.5078 8.62793Q11.0742 9.20898 11.9727 9.20898Z" fill="#ffffff"/>
 </g>
</svg>
