<?xml version="1.0" encoding="UTF-8"?>
<!--Generator: Apple Native CoreSVG 175-->
<!DOCTYPE svg
PUBLIC "-//W3C//DTD SVG 1.1//EN"
       "http://www.w3.org/Graphics/SVG/1.1/DTD/svg11.dtd">
<svg version="1.1" xmlns="http://www.w3.org/2000/svg" xmlns:xlink="http://www.w3.org/1999/xlink" width="19.1602" height="19.1504">
 <g>
  <rect height="19.1504" opacity="0" width="19.1602" x="0" y="0"/>
  <path d="M9.57031 19.1406Q11.5527 19.1406 13.2861 18.3984Q15.0195 17.6562 16.3379 16.333Q17.6562 15.0098 18.4082 13.2764Q19.1602 11.543 19.1602 9.57031Q19.1602 7.59766 18.4082 5.86426Q17.6562 4.13086 16.3379 2.80762Q15.0195 1.48438 13.2861 0.742188Q11.5527 0 9.57031 0Q7.59766 0 5.86426 0.742188Q4.13086 1.48438 2.81738 2.80762Q1.50391 4.13086 0.751953 5.86426Q0 7.59766 0 9.57031Q0 11.543 0.74707 13.2764Q1.49414 15.0098 2.8125 16.333Q4.13086 17.6562 5.86914 18.3984Q7.60742 19.1406 9.57031 19.1406Z" fill="rgba(255,255,255,0.18)"/>
  <path d="M6.30859 13.6719Q5.36133 13.6719 4.67773 13.1885Q3.99414 12.7051 3.7793 12.0508Q3.75977 11.9824 3.74512 11.9238Q3.73047 11.8652 3.73047 11.7773Q3.73047 11.6309 3.82324 11.5283Q3.91602 11.4258 4.0625 11.4258Q4.29688 11.4258 4.4043 11.7285Q4.59961 12.334 5.12207 12.6807Q5.64453 13.0273 6.30859 13.0273Q7.20703 13.0273 7.75879 12.5586Q8.31055 12.0898 8.31055 11.3574Q8.31055 10.6641 7.77344 10.2051Q7.23633 9.74609 6.41602 9.74609L5.61523 9.74609Q5.46875 9.74609 5.38574 9.65332Q5.30273 9.56055 5.30273 9.42383Q5.30273 9.27734 5.39062 9.18945Q5.47852 9.10156 5.61523 9.10156L6.34766 9.10156Q7.08008 9.10156 7.55859 8.65234Q8.03711 8.20312 8.03711 7.54883Q8.03711 6.89453 7.56348 6.48926Q7.08984 6.08398 6.30859 6.08398Q5.5957 6.08398 5.13184 6.44531Q4.66797 6.80664 4.56055 7.39258Q4.52148 7.54883 4.43848 7.62207Q4.35547 7.69531 4.23828 7.69531Q4.05273 7.69531 3.97461 7.59277Q3.89648 7.49023 3.89648 7.33398Q3.89648 7.1875 3.92578 7.06055Q4.10156 6.32812 4.77539 5.88867Q5.44922 5.44922 6.31836 5.44922Q7.36328 5.44922 8.04199 6.01562Q8.7207 6.58203 8.7207 7.4707Q8.7207 8.1543 8.28125 8.70605Q7.8418 9.25781 7.17773 9.375L7.17773 9.39453Q7.95898 9.47266 8.47656 10.0391Q8.99414 10.6055 8.99414 11.3672Q8.99414 12.373 8.2373 13.0225Q7.48047 13.6719 6.30859 13.6719ZM12.9297 13.6719Q12.0996 13.6719 11.4746 13.1543Q10.8496 12.6367 10.498 11.7139Q10.1465 10.791 10.1465 9.56055Q10.1465 8.33008 10.498 7.40234Q10.8496 6.47461 11.4746 5.96191Q12.0996 5.44922 12.9297 5.44922Q13.7598 5.44922 14.3896 5.96191Q15.0195 6.47461 15.3662 7.40234Q15.7129 8.33008 15.7129 9.56055Q15.7129 10.791 15.3662 11.7139Q15.0195 12.6367 14.3896 13.1543Q13.7598 13.6719 12.9297 13.6719ZM12.9297 13.0176Q13.8672 13.0176 14.4482 12.0654Q15.0293 11.1133 15.0293 9.56055Q15.0293 8.00781 14.4482 7.05566Q13.8672 6.10352 12.9297 6.10352Q12.002 6.10352 11.416 7.05566Q10.8301 8.00781 10.8301 9.56055Q10.8301 11.1133 11.416 12.0654Q12.002 13.0176 12.9297 13.0176Z" fill="#ffffff"/>
 </g>
</svg>
