<?xml version="1.0" encoding="UTF-8"?>
<!--Generator: Apple Native CoreSVG 175-->
<!DOCTYPE svg
PUBLIC "-//W3C//DTD SVG 1.1//EN"
       "http://www.w3.org/Graphics/SVG/1.1/DTD/svg11.dtd">
<svg version="1.1" xmlns="http://www.w3.org/2000/svg" xmlns:xlink="http://www.w3.org/1999/xlink" width="19.1602" height="19.1504">
 <g>
  <rect height="19.1504" opacity="0" width="19.1602" x="0" y="0"/>
  <path d="M9.57031 19.1406Q11.5527 19.1406 13.2861 18.3984Q15.0195 17.6562 16.3379 16.333Q17.6562 15.0098 18.4082 13.2764Q19.1602 11.543 19.1602 9.57031Q19.1602 7.59766 18.4082 5.86426Q17.6562 4.13086 16.3379 2.80762Q15.0195 1.48438 13.2861 0.742188Q11.5527 0 9.57031 0Q7.59766 0 5.86426 0.742188Q4.13086 1.48438 2.81738 2.80762Q1.50391 4.13086 0.751953 5.86426Q0 7.59766 0 9.57031Q0 11.543 0.74707 13.2764Q1.49414 15.0098 2.8125 16.333Q4.13086 17.6562 5.86914 18.3984Q7.60742 19.1406 9.57031 19.1406ZM9.57031 18.3984Q7.74414 18.3984 6.14746 17.71Q4.55078 17.0215 3.33496 15.8105Q2.11914 14.5996 1.43555 12.998Q0.751953 11.3965 0.751953 9.57031Q0.751953 7.74414 1.43555 6.14258Q2.11914 4.54102 3.33496 3.3252Q4.55078 2.10938 6.14746 1.4209Q7.74414 0.732422 9.57031 0.732422Q11.4062 0.732422 13.0029 1.4209Q14.5996 2.10938 15.8154 3.3252Q17.0312 4.54102 17.7197 6.14258Q18.4082 7.74414 18.4082 9.57031Q18.4082 11.3965 17.7246 12.998Q17.041 14.5996 15.8252 15.8105Q14.6094 17.0215 13.0078 17.71Q11.4062 18.3984 9.57031 18.3984Z" fill="rgba(255,255,255,0.5)"/>
  <path d="M9.57031 14.043Q10.4883 14.043 11.1914 13.4814Q11.8945 12.9199 12.2803 11.9141Q12.666 10.9082 12.666 9.57031Q12.666 8.23242 12.2803 7.22656Q11.8945 6.2207 11.1914 5.65918Q10.4883 5.09766 9.57031 5.09766Q8.65234 5.09766 7.9541 5.65918Q7.25586 6.2207 6.86523 7.22656Q6.47461 8.23242 6.47461 9.57031Q6.47461 10.9082 6.86523 11.9141Q7.25586 12.9199 7.9541 13.4814Q8.65234 14.043 9.57031 14.043ZM9.57031 13.3789Q8.51562 13.3789 7.86133 12.3242Q7.20703 11.2695 7.20703 9.57031Q7.20703 7.87109 7.86133 6.81641Q8.51562 5.76172 9.57031 5.76172Q10.625 5.76172 11.2842 6.81641Q11.9434 7.87109 11.9434 9.57031Q11.9434 11.2695 11.2842 12.3242Q10.625 13.3789 9.57031 13.3789Z" fill="#ffffff"/>
 </g>
</svg>
