<?xml version="1.0" encoding="UTF-8"?>
<!--Generator: Apple Native CoreSVG 175-->
<!DOCTYPE svg
PUBLIC "-//W3C//DTD SVG 1.1//EN"
       "http://www.w3.org/Graphics/SVG/1.1/DTD/svg11.dtd">
<svg version="1.1" xmlns="http://www.w3.org/2000/svg" xmlns:xlink="http://www.w3.org/1999/xlink" width="19.1602" height="19.1504">
 <g>
  <rect height="19.1504" opacity="0" width="19.1602" x="0" y="0"/>
  <path d="M9.57031 19.1406Q11.5527 19.1406 13.2861 18.3984Q15.0195 17.6562 16.3379 16.333Q17.6562 15.0098 18.4082 13.2764Q19.1602 11.543 19.1602 9.57031Q19.1602 7.59766 18.4082 5.86426Q17.6562 4.13086 16.3379 2.80762Q15.0195 1.48438 13.2861 0.742188Q11.5527 0 9.57031 0Q7.59766 0 5.86426 0.742188Q4.13086 1.48438 2.81738 2.80762Q1.50391 4.13086 0.751953 5.86426Q0 7.59766 0 9.57031Q0 11.543 0.74707 13.2764Q1.49414 15.0098 2.8125 16.333Q4.13086 17.6562 5.86914 18.3984Q7.60742 19.1406 9.57031 19.1406Z" fill="rgba(255,255,255,0.18)"/>
  <path d="M7.14844 13.6816Q6.31836 13.6816 5.69336 13.1641Q5.06836 12.6465 4.7168 11.7236Q4.36523 10.8008 4.36523 9.57031Q4.36523 8.33984 4.7168 7.41211Q5.06836 6.48438 5.69336 5.97168Q6.31836 5.45898 7.14844 5.45898Q7.97852 5.45898 8.60352 5.97168Q9.22852 6.48438 9.58008 7.41211Q9.93164 8.33984 9.93164 9.57031Q9.93164 10.8008 9.58008 11.7236Q9.22852 12.6465 8.60352 13.1641Q7.97852 13.6816 7.14844 13.6816ZM7.14844 13.0273Q8.08594 13.0273 8.66699 12.0752Q9.24805 11.123 9.24805 9.57031Q9.24805 8.01758 8.66699 7.06543Q8.08594 6.11328 7.14844 6.11328Q6.2207 6.11328 5.63477 7.06543Q5.04883 8.01758 5.04883 9.57031Q5.04883 11.123 5.63477 12.0752Q6.2207 13.0273 7.14844 13.0273ZM13.8379 13.6035Q13.7012 13.6035 13.6035 13.5156Q13.5059 13.4277 13.5059 13.2715L13.5059 6.35742L13.4668 6.35742L11.8262 7.45117Q11.7578 7.49023 11.7188 7.5Q11.6797 7.50977 11.6211 7.50977Q11.4941 7.50977 11.4014 7.41699Q11.3086 7.32422 11.3086 7.19727Q11.3086 7.01172 11.4844 6.89453L13.3691 5.66406Q13.4863 5.58594 13.5742 5.55176Q13.6621 5.51758 13.7891 5.51758Q13.9551 5.51758 14.0625 5.61523Q14.1699 5.71289 14.1699 5.88867L14.1699 13.2715Q14.1699 13.4277 14.082 13.5156Q13.9941 13.6035 13.8379 13.6035Z" fill="#ffffff"/>
 </g>
</svg>
