<?xml version="1.0" encoding="UTF-8"?>
<!--Generator: Apple Native CoreSVG 175-->
<!DOCTYPE svg
PUBLIC "-//W3C//DTD SVG 1.1//EN"
       "http://www.w3.org/Graphics/SVG/1.1/DTD/svg11.dtd">
<svg version="1.1" xmlns="http://www.w3.org/2000/svg" xmlns:xlink="http://www.w3.org/1999/xlink" width="19.1602" height="19.1504">
 <g>
  <rect height="19.1504" opacity="0" width="19.1602" x="0" y="0"/>
  <path d="M9.57031 19.1406Q11.5527 19.1406 13.2861 18.3984Q15.0195 17.6562 16.3379 16.333Q17.6562 15.0098 18.4082 13.2764Q19.1602 11.543 19.1602 9.57031Q19.1602 7.59766 18.4082 5.86426Q17.6562 4.13086 16.3379 2.80762Q15.0195 1.48438 13.2861 0.742188Q11.5527 0 9.57031 0Q7.59766 0 5.86426 0.742188Q4.13086 1.48438 2.81738 2.80762Q1.50391 4.13086 0.751953 5.86426Q0 7.59766 0 9.57031Q0 11.543 0.74707 13.2764Q1.49414 15.0098 2.8125 16.333Q4.13086 17.6562 5.86914 18.3984Q7.60742 19.1406 9.57031 19.1406ZM9.57031 18.3984Q7.74414 18.3984 6.14746 17.71Q4.55078 17.0215 3.33496 15.8105Q2.11914 14.5996 1.43555 12.998Q0.751953 11.3965 0.751953 9.57031Q0.751953 7.74414 1.43555 6.14258Q2.11914 4.54102 3.33496 3.3252Q4.55078 2.10938 6.14746 1.4209Q7.74414 0.732422 9.57031 0.732422Q11.4062 0.732422 13.0029 1.4209Q14.5996 2.10938 15.8154 3.3252Q17.0312 4.54102 17.7197 6.14258Q18.4082 7.74414 18.4082 9.57031Q18.4082 11.3965 17.7246 12.998Q17.041 14.5996 15.8252 15.8105Q14.6094 17.0215 13.0078 17.71Q11.4062 18.3984 9.57031 18.3984Z" fill="rgba(255,255,255,0.5)"/>
  <path d="M6.58203 7.96875Q6.58203 9.16016 7.40234 9.93164Q8.22266 10.7031 9.49219 10.7031Q10.0293 10.7031 10.5273 10.5371Q11.0254 10.3711 11.3379 10.0684L11.4258 10.0879Q11.3086 10.2637 11.1963 10.4248Q11.084 10.5859 10.9082 10.8203Q10.625 11.2012 10.1318 11.8213Q9.63867 12.4414 8.86719 13.4082Q8.80859 13.4766 8.76953 13.5498Q8.73047 13.623 8.73047 13.7012Q8.73047 13.8086 8.81836 13.9014Q8.90625 13.9941 9.04297 13.9941Q9.20898 13.9941 9.30176 13.8916Q9.39453 13.7891 9.51172 13.6426Q9.78516 13.3105 10.1611 12.8223Q10.5371 12.334 10.8887 11.8799Q11.2402 11.4258 11.416 11.1719Q12.1094 10.2344 12.4463 9.49219Q12.7832 8.75 12.7832 8.01758Q12.7832 6.72852 11.9141 5.91309Q11.0449 5.09766 9.67773 5.09766Q8.31055 5.09766 7.44629 5.89844Q6.58203 6.69922 6.58203 7.96875ZM7.26562 7.93945Q7.26562 6.99219 7.94434 6.3623Q8.62305 5.73242 9.6582 5.73242Q10.7031 5.73242 11.4062 6.37207Q12.1094 7.01172 12.1094 7.96875Q12.1094 8.91602 11.4307 9.52148Q10.752 10.127 9.70703 10.127Q8.63281 10.127 7.94922 9.51172Q7.26562 8.89648 7.26562 7.93945Z" fill="#ffffff"/>
 </g>
</svg>
