<?xml version="1.0" encoding="UTF-8"?>
<!--Generator: Apple Native CoreSVG 175-->
<!DOCTYPE svg
PUBLIC "-//W3C//DTD SVG 1.1//EN"
       "http://www.w3.org/Graphics/SVG/1.1/DTD/svg11.dtd">
<svg version="1.1" xmlns="http://www.w3.org/2000/svg" xmlns:xlink="http://www.w3.org/1999/xlink" width="17.2852" height="17.3145">
 <g>
  <rect height="17.3145" opacity="0" width="17.2852" x="0" y="0"/>
  <path d="M2.62695 17.3145L14.6484 17.3145Q15.957 17.3145 16.6211 16.6455Q17.2852 15.9766 17.2852 14.6875L17.2852 2.65625Q17.2852 1.37695 16.6211 0.703125Q15.957 0.0292969 14.6484 0.0292969L2.62695 0.0292969Q1.33789 0.0292969 0.668945 0.693359Q0 1.35742 0 2.65625L0 14.6875Q0 15.9863 0.668945 16.6504Q1.33789 17.3145 2.62695 17.3145Z" fill="rgba(255,255,255,0.18)"/>
  <path d="M8.64258 13.1543Q7.26562 13.1543 6.3916 12.4414Q5.51758 11.7285 5.51758 10.6055Q5.51758 9.82422 6.0498 9.20898Q6.58203 8.59375 7.40234 8.42773L7.40234 8.37891Q6.71875 8.17383 6.29395 7.63672Q5.86914 7.09961 5.86914 6.43555Q5.86914 5.42969 6.65039 4.79004Q7.43164 4.15039 8.64258 4.15039Q9.85352 4.15039 10.6396 4.79004Q11.4258 5.42969 11.4258 6.43555Q11.4258 7.09961 11.001 7.6416Q10.5762 8.18359 9.89258 8.37891L9.89258 8.42773Q10.7031 8.59375 11.2402 9.20898Q11.7773 9.82422 11.7773 10.6055Q11.7773 11.7188 10.8936 12.4365Q10.0098 13.1543 8.64258 13.1543ZM8.65234 12.5391Q9.69727 12.5391 10.376 11.9873Q11.0547 11.4355 11.0547 10.5957Q11.0547 9.78516 10.3809 9.25293Q9.70703 8.7207 8.65234 8.7207Q7.59766 8.7207 6.91895 9.25293Q6.24023 9.78516 6.24023 10.5957Q6.24023 11.4355 6.91895 11.9873Q7.59766 12.5391 8.65234 12.5391ZM8.64258 8.125Q9.53125 8.125 10.1074 7.65625Q10.6836 7.1875 10.6836 6.45508Q10.6836 5.71289 10.1172 5.23926Q9.55078 4.76562 8.64258 4.76562Q7.73438 4.76562 7.16797 5.23926Q6.60156 5.71289 6.60156 6.45508Q6.60156 7.1875 7.17773 7.65625Q7.75391 8.125 8.64258 8.125Z" fill="#ffffff"/>
 </g>
</svg>
