<?xml version="1.0" encoding="UTF-8"?>
<!--Generator: Apple Native CoreSVG 175-->
<!DOCTYPE svg
PUBLIC "-//W3C//DTD SVG 1.1//EN"
       "http://www.w3.org/Graphics/SVG/1.1/DTD/svg11.dtd">
<svg version="1.1" xmlns="http://www.w3.org/2000/svg" xmlns:xlink="http://www.w3.org/1999/xlink" width="17.2852" height="17.3145">
 <g>
  <rect height="17.3145" opacity="0" width="17.2852" x="0" y="0"/>
  <path d="M2.62695 17.3145L14.6484 17.3145Q15.957 17.3145 16.6211 16.6455Q17.2852 15.9766 17.2852 14.6875L17.2852 2.65625Q17.2852 1.37695 16.6211 0.703125Q15.957 0.0292969 14.6484 0.0292969L2.62695 0.0292969Q1.33789 0.0292969 0.668945 0.693359Q0 1.35742 0 2.65625L0 14.6875Q0 15.9863 0.668945 16.6504Q1.33789 17.3145 2.62695 17.3145ZM2.65625 16.5918Q1.70898 16.5918 1.2207 16.1035Q0.732422 15.6152 0.732422 14.6582L0.732422 2.69531Q0.732422 1.72852 1.2207 1.24512Q1.70898 0.761719 2.65625 0.761719L14.6289 0.761719Q15.5566 0.761719 16.0596 1.24512Q16.5625 1.72852 16.5625 2.69531L16.5625 14.6582Q16.5625 15.6152 16.0596 16.1035Q15.5566 16.5918 14.6289 16.5918Z" fill="rgba(255,255,255,0.5)"/>
  <path d="M3.68164 12.5879L7.87109 12.5879Q8.01758 12.5879 8.0957 12.4951Q8.17383 12.4023 8.17383 12.2656Q8.17383 12.1289 8.0957 12.041Q8.01758 11.9531 7.87109 11.9531L4.29688 11.9531L4.29688 11.9238L6.68945 9.13086Q7.33398 8.37891 7.6416 7.82715Q7.94922 7.27539 7.94922 6.68945Q7.94922 5.72266 7.29492 5.14648Q6.64062 4.57031 5.57617 4.57031Q4.67773 4.57031 3.98438 5.07812Q3.29102 5.58594 3.14453 6.36719Q3.13477 6.44531 3.125 6.50879Q3.11523 6.57227 3.11523 6.64062Q3.11523 6.78711 3.20312 6.88477Q3.29102 6.98242 3.4375 6.98242Q3.58398 6.98242 3.66211 6.89941Q3.74023 6.81641 3.76953 6.66992Q3.84766 6.02539 4.3457 5.61523Q4.84375 5.20508 5.5957 5.20508Q6.36719 5.20508 6.82129 5.61035Q7.27539 6.01562 7.27539 6.69922Q7.27539 7.17773 7.03613 7.6123Q6.79688 8.04688 6.32812 8.59375L3.4375 11.9336Q3.33008 12.0605 3.33008 12.2461Q3.33008 12.4121 3.42773 12.5Q3.52539 12.5879 3.68164 12.5879ZM10.166 12.5879L14.3457 12.5879Q14.502 12.5879 14.5801 12.4951Q14.6582 12.4023 14.6582 12.2656Q14.6582 12.1289 14.5801 12.041Q14.502 11.9531 14.3457 11.9531L10.7812 11.9531L10.7812 11.9238L13.1738 9.13086Q13.8184 8.37891 14.126 7.82715Q14.4336 7.27539 14.4336 6.68945Q14.4336 5.72266 13.7793 5.14648Q13.125 4.57031 12.0605 4.57031Q11.1621 4.57031 10.4688 5.07812Q9.77539 5.58594 9.62891 6.36719Q9.61914 6.44531 9.60938 6.50879Q9.59961 6.57227 9.59961 6.64062Q9.59961 6.78711 9.6875 6.88477Q9.77539 6.98242 9.92188 6.98242Q10.0586 6.98242 10.1416 6.89941Q10.2246 6.81641 10.2539 6.66992Q10.332 6.02539 10.8252 5.61523Q11.3184 5.20508 12.0703 5.20508Q12.8516 5.20508 13.3057 5.61035Q13.7598 6.01562 13.7598 6.69922Q13.7598 7.17773 13.5156 7.6123Q13.2715 8.04688 12.8027 8.59375L9.92188 11.9336Q9.80469 12.0605 9.80469 12.2461Q9.80469 12.4121 9.90723 12.5Q10.0098 12.5879 10.166 12.5879Z" fill="#ffffff"/>
 </g>
</svg>
