<?xml version="1.0" encoding="UTF-8"?>
<!--Generator: Apple Native CoreSVG 175-->
<!DOCTYPE svg
PUBLIC "-//W3C//DTD SVG 1.1//EN"
       "http://www.w3.org/Graphics/SVG/1.1/DTD/svg11.dtd">
<svg version="1.1" xmlns="http://www.w3.org/2000/svg" xmlns:xlink="http://www.w3.org/1999/xlink" width="17.2852" height="17.3145">
 <g>
  <rect height="17.3145" opacity="0" width="17.2852" x="0" y="0"/>
  <path d="M2.62695 17.3145L14.6484 17.3145Q15.957 17.3145 16.6211 16.6455Q17.2852 15.9766 17.2852 14.6875L17.2852 2.65625Q17.2852 1.37695 16.6211 0.703125Q15.957 0.0292969 14.6484 0.0292969L2.62695 0.0292969Q1.33789 0.0292969 0.668945 0.693359Q0 1.35742 0 2.65625L0 14.6875Q0 15.9863 0.668945 16.6504Q1.33789 17.3145 2.62695 17.3145Z" fill="rgba(255,255,255,0.18)"/>
  <path d="M7.22656 12.7148Q7.08008 12.7148 6.9873 12.6172Q6.89453 12.5195 6.89453 12.373L6.89453 10.752L3.54492 10.752Q3.31055 10.752 3.16406 10.625Q3.01758 10.498 3.01758 10.2637Q3.01758 10.166 3.04688 10.0586Q3.07617 9.95117 3.13477 9.85352Q3.4082 9.43359 3.82812 8.78906Q4.24805 8.14453 4.71191 7.42676Q5.17578 6.70898 5.60547 6.05469Q6.03516 5.40039 6.33789 4.95117Q6.48438 4.7168 6.64062 4.62891Q6.79688 4.54102 7.02148 4.54102Q7.25586 4.54102 7.40234 4.67773Q7.54883 4.81445 7.54883 5.04883L7.54883 10.1172L8.52539 10.1172Q8.66211 10.1172 8.75 10.21Q8.83789 10.3027 8.83789 10.4395Q8.83789 10.752 8.52539 10.752L7.54883 10.752L7.54883 12.373Q7.54883 12.5195 7.46582 12.6172Q7.38281 12.7148 7.22656 12.7148ZM6.89453 10.1172L6.89453 5.2832L6.86523 5.2832Q6.66992 5.58594 6.34766 6.06934Q6.02539 6.55273 5.64453 7.13379Q5.26367 7.71484 4.89258 8.28125Q4.52148 8.84766 4.21875 9.33105Q3.91602 9.81445 3.75 10.0977L3.75 10.1172ZM12.4902 12.6855Q12.3535 12.6855 12.2607 12.5977Q12.168 12.5098 12.168 12.3535L12.168 5.43945L12.1191 5.43945L10.4785 6.5332Q10.4199 6.57227 10.376 6.58203Q10.332 6.5918 10.2734 6.5918Q10.1562 6.5918 10.0635 6.49902Q9.9707 6.40625 9.9707 6.2793Q9.9707 6.09375 10.1465 5.97656L12.0215 4.74609Q12.1387 4.66797 12.2314 4.63379Q12.3242 4.59961 12.4512 4.59961Q12.6074 4.59961 12.7148 4.69727Q12.8223 4.79492 12.8223 4.9707L12.8223 12.3535Q12.8223 12.5098 12.7344 12.5977Q12.6465 12.6855 12.4902 12.6855Z" fill="#ffffff"/>
 </g>
</svg>
