<?xml version="1.0" encoding="UTF-8"?>
<!--Generator: Apple Native CoreSVG 175-->
<!DOCTYPE svg
PUBLIC "-//W3C//DTD SVG 1.1//EN"
       "http://www.w3.org/Graphics/SVG/1.1/DTD/svg11.dtd">
<svg version="1.1" xmlns="http://www.w3.org/2000/svg" xmlns:xlink="http://www.w3.org/1999/xlink" width="19.1602" height="19.1504">
 <g>
  <rect height="19.1504" opacity="0" width="19.1602" x="0" y="0"/>
  <path d="M9.57031 19.1406Q11.5527 19.1406 13.2861 18.3984Q15.0195 17.6562 16.3379 16.333Q17.6562 15.0098 18.4082 13.2764Q19.1602 11.543 19.1602 9.57031Q19.1602 7.59766 18.4082 5.86426Q17.6562 4.13086 16.3379 2.80762Q15.0195 1.48438 13.2861 0.742188Q11.5527 0 9.57031 0Q7.59766 0 5.86426 0.742188Q4.13086 1.48438 2.81738 2.80762Q1.50391 4.13086 0.751953 5.86426Q0 7.59766 0 9.57031Q0 11.543 0.74707 13.2764Q1.49414 15.0098 2.8125 16.333Q4.13086 17.6562 5.86914 18.3984Q7.60742 19.1406 9.57031 19.1406Z" fill="rgba(255,255,255,0.18)"/>
  <path d="M9.98047 13.9844Q9.81445 13.9844 9.71191 13.8721Q9.60938 13.7598 9.60938 13.584L9.60938 6.01562L9.56055 6.01562L7.71484 7.19727Q7.64648 7.24609 7.60254 7.26074Q7.55859 7.27539 7.5 7.27539Q7.37305 7.27539 7.28027 7.17773Q7.1875 7.08008 7.1875 6.95312Q7.1875 6.8457 7.23145 6.77734Q7.27539 6.70898 7.36328 6.64062L9.4043 5.3125Q9.57031 5.19531 9.6875 5.15137Q9.80469 5.10742 9.94141 5.10742Q10.127 5.10742 10.2441 5.21973Q10.3613 5.33203 10.3613 5.52734L10.3613 13.584Q10.3613 13.7598 10.2637 13.8721Q10.166 13.9844 9.98047 13.9844Z" fill="#ffffff"/>
 </g>
</svg>
