<?xml version="1.0" encoding="UTF-8"?>
<!--Generator: Apple Native CoreSVG 175-->
<!DOCTYPE svg
PUBLIC "-//W3C//DTD SVG 1.1//EN"
       "http://www.w3.org/Graphics/SVG/1.1/DTD/svg11.dtd">
<svg version="1.1" xmlns="http://www.w3.org/2000/svg" xmlns:xlink="http://www.w3.org/1999/xlink" width="19.1602" height="19.1504">
 <g>
  <rect height="19.1504" opacity="0" width="19.1602" x="0" y="0"/>
  <path d="M9.57031 19.1406Q11.5527 19.1406 13.2861 18.3984Q15.0195 17.6562 16.3379 16.333Q17.6562 15.0098 18.4082 13.2764Q19.1602 11.543 19.1602 9.57031Q19.1602 7.59766 18.4082 5.86426Q17.6562 4.13086 16.3379 2.80762Q15.0195 1.48438 13.2861 0.742188Q11.5527 0 9.57031 0Q7.59766 0 5.86426 0.742188Q4.13086 1.48438 2.81738 2.80762Q1.50391 4.13086 0.751953 5.86426Q0 7.59766 0 9.57031Q0 11.543 0.74707 13.2764Q1.49414 15.0098 2.8125 16.333Q4.13086 17.6562 5.86914 18.3984Q7.60742 19.1406 9.57031 19.1406Z" fill="rgba(255,255,255,0.18)"/>
  <path d="M6.73828 13.6035Q6.60156 13.6035 6.50879 13.5156Q6.41602 13.4277 6.41602 13.2715L6.41602 6.35742L6.37695 6.35742L4.72656 7.45117Q4.66797 7.49023 4.62402 7.5Q4.58008 7.50977 4.53125 7.50977Q4.4043 7.50977 4.31152 7.41699Q4.21875 7.32422 4.21875 7.19727Q4.21875 7.01172 4.39453 6.89453L6.2793 5.66406Q6.39648 5.58594 6.48438 5.55176Q6.57227 5.51758 6.69922 5.51758Q6.85547 5.51758 6.96289 5.61523Q7.07031 5.71289 7.07031 5.88867L7.07031 13.2715Q7.07031 13.4277 6.98242 13.5156Q6.89453 13.6035 6.73828 13.6035ZM11.7188 13.6816Q10.7812 13.6816 10.0977 13.1982Q9.41406 12.7148 9.19922 12.0605Q9.17969 11.9922 9.16504 11.9336Q9.15039 11.875 9.15039 11.7871Q9.15039 11.6406 9.23828 11.5381Q9.32617 11.4355 9.47266 11.4355Q9.7168 11.4355 9.81445 11.7383Q10.0098 12.3438 10.5371 12.6904Q11.0645 13.0371 11.7285 13.0371Q12.627 13.0371 13.1738 12.5684Q13.7207 12.0996 13.7207 11.3672Q13.7207 10.6738 13.1885 10.2148Q12.6562 9.75586 11.8262 9.75586L11.0352 9.75586Q10.8887 9.75586 10.8057 9.66309Q10.7227 9.57031 10.7227 9.43359Q10.7227 9.28711 10.8105 9.19922Q10.8984 9.11133 11.0352 9.11133L11.7578 9.11133Q12.4902 9.11133 12.9736 8.66211Q13.457 8.21289 13.457 7.55859Q13.457 6.9043 12.9785 6.49902Q12.5 6.09375 11.7285 6.09375Q11.0254 6.09375 10.5566 6.45508Q10.0879 6.81641 9.9707 7.40234Q9.93164 7.55859 9.8584 7.63184Q9.78516 7.70508 9.64844 7.70508Q9.47266 7.70508 9.38965 7.60254Q9.30664 7.5 9.30664 7.34375Q9.30664 7.19727 9.3457 7.07031Q9.52148 6.33789 10.1904 5.89844Q10.8594 5.45898 11.7285 5.45898Q12.7832 5.45898 13.4619 6.02539Q14.1406 6.5918 14.1406 7.48047Q14.1406 8.16406 13.6963 8.71582Q13.252 9.26758 12.5977 9.38477L12.5977 9.4043Q13.3691 9.48242 13.8916 10.0488Q14.4141 10.6152 14.4141 11.377Q14.4141 12.3828 13.6572 13.0322Q12.9004 13.6816 11.7188 13.6816Z" fill="#ffffff"/>
 </g>
</svg>
