<?xml version="1.0" encoding="UTF-8"?>
<!--Generator: Apple Native CoreSVG 175-->
<!DOCTYPE svg
PUBLIC "-//W3C//DTD SVG 1.1//EN"
       "http://www.w3.org/Graphics/SVG/1.1/DTD/svg11.dtd">
<svg version="1.1" xmlns="http://www.w3.org/2000/svg" xmlns:xlink="http://www.w3.org/1999/xlink" width="19.1602" height="19.1504">
 <g>
  <rect height="19.1504" opacity="0" width="19.1602" x="0" y="0"/>
  <path d="M9.57031 19.1406Q11.5527 19.1406 13.2861 18.3984Q15.0195 17.6562 16.3379 16.333Q17.6562 15.0098 18.4082 13.2764Q19.1602 11.543 19.1602 9.57031Q19.1602 7.59766 18.4082 5.86426Q17.6562 4.13086 16.3379 2.80762Q15.0195 1.48438 13.2861 0.742188Q11.5527 0 9.57031 0Q7.59766 0 5.86426 0.742188Q4.13086 1.48438 2.81738 2.80762Q1.50391 4.13086 0.751953 5.86426Q0 7.59766 0 9.57031Q0 11.543 0.74707 13.2764Q1.49414 15.0098 2.8125 16.333Q4.13086 17.6562 5.86914 18.3984Q7.60742 19.1406 9.57031 19.1406Z" fill="rgba(255,255,255,0.18)"/>
  <path d="M6.15234 13.6816Q5.32227 13.6816 4.69727 13.1641Q4.07227 12.6465 3.7207 11.7236Q3.36914 10.8008 3.36914 9.57031Q3.36914 8.33984 3.7207 7.41211Q4.07227 6.48438 4.69727 5.97168Q5.32227 5.45898 6.15234 5.45898Q6.98242 5.45898 7.60742 5.97168Q8.23242 6.48438 8.58398 7.41211Q8.93555 8.33984 8.93555 9.57031Q8.93555 10.8008 8.58398 11.7236Q8.23242 12.6465 7.60742 13.1641Q6.98242 13.6816 6.15234 13.6816ZM6.15234 13.0273Q7.08984 13.0273 7.66602 12.0752Q8.24219 11.123 8.24219 9.57031Q8.24219 8.01758 7.66602 7.06543Q7.08984 6.11328 6.15234 6.11328Q5.21484 6.11328 4.63379 7.06543Q4.05273 8.01758 4.05273 9.57031Q4.05273 11.123 4.63379 12.0752Q5.21484 13.0273 6.15234 13.0273ZM12.998 13.6816Q12.168 13.6816 11.543 13.1641Q10.918 12.6465 10.5664 11.7236Q10.2148 10.8008 10.2148 9.57031Q10.2148 8.33984 10.5664 7.41211Q10.918 6.48438 11.543 5.97168Q12.168 5.45898 12.998 5.45898Q13.8281 5.45898 14.4531 5.97168Q15.0781 6.48438 15.4297 7.41211Q15.7812 8.33984 15.7812 9.57031Q15.7812 10.8008 15.4297 11.7236Q15.0781 12.6465 14.4531 13.1641Q13.8281 13.6816 12.998 13.6816ZM12.998 13.0273Q13.9355 13.0273 14.5166 12.0752Q15.0977 11.123 15.0977 9.57031Q15.0977 8.01758 14.5166 7.06543Q13.9355 6.11328 12.998 6.11328Q12.0605 6.11328 11.4795 7.06543Q10.8984 8.01758 10.8984 9.57031Q10.8984 11.123 11.4795 12.0752Q12.0605 13.0273 12.998 13.0273Z" fill="#ffffff"/>
 </g>
</svg>
