<?xml version="1.0" encoding="UTF-8"?>
<!--Generator: Apple Native CoreSVG 175-->
<!DOCTYPE svg
PUBLIC "-//W3C//DTD SVG 1.1//EN"
       "http://www.w3.org/Graphics/SVG/1.1/DTD/svg11.dtd">
<svg version="1.1" xmlns="http://www.w3.org/2000/svg" xmlns:xlink="http://www.w3.org/1999/xlink" width="17.2852" height="17.3145">
 <g>
  <rect height="17.3145" opacity="0" width="17.2852" x="0" y="0"/>
  <path d="M2.62695 17.3145L14.6484 17.3145Q15.957 17.3145 16.6211 16.6455Q17.2852 15.9766 17.2852 14.6875L17.2852 2.65625Q17.2852 1.37695 16.6211 0.703125Q15.957 0.0292969 14.6484 0.0292969L2.62695 0.0292969Q1.33789 0.0292969 0.668945 0.693359Q0 1.35742 0 2.65625L0 14.6875Q0 15.9863 0.668945 16.6504Q1.33789 17.3145 2.62695 17.3145Z" fill="rgba(255,255,255,0.18)"/>
  <path d="M5.38086 12.7539Q4.43359 12.7539 3.75 12.2705Q3.06641 11.7871 2.85156 11.1328Q2.83203 11.0645 2.81738 11.0059Q2.80273 10.9473 2.80273 10.8594Q2.80273 10.7129 2.89551 10.6104Q2.98828 10.5078 3.13477 10.5078Q3.36914 10.5078 3.47656 10.8105Q3.67188 11.416 4.19434 11.7627Q4.7168 12.1094 5.38086 12.1094Q6.2793 12.1094 6.83105 11.6406Q7.38281 11.1719 7.38281 10.4395Q7.38281 9.74609 6.8457 9.28711Q6.30859 8.82812 5.48828 8.82812L4.6875 8.82812Q4.54102 8.82812 4.45801 8.73535Q4.375 8.64258 4.375 8.50586Q4.375 8.35938 4.46289 8.27148Q4.55078 8.18359 4.6875 8.18359L5.41992 8.18359Q6.15234 8.18359 6.63086 7.73438Q7.10938 7.28516 7.10938 6.63086Q7.10938 5.97656 6.63574 5.57129Q6.16211 5.16602 5.38086 5.16602Q4.66797 5.16602 4.2041 5.52734Q3.74023 5.88867 3.63281 6.47461Q3.59375 6.63086 3.51074 6.7041Q3.42773 6.77734 3.31055 6.77734Q3.125 6.77734 3.04688 6.6748Q2.96875 6.57227 2.96875 6.41602Q2.96875 6.26953 2.99805 6.14258Q3.17383 5.41016 3.84766 4.9707Q4.52148 4.53125 5.39062 4.53125Q6.43555 4.53125 7.11426 5.09766Q7.79297 5.66406 7.79297 6.55273Q7.79297 7.23633 7.35352 7.78809Q6.91406 8.33984 6.25 8.45703L6.25 8.47656Q7.03125 8.55469 7.54883 9.12109Q8.06641 9.6875 8.06641 10.4492Q8.06641 11.4551 7.30957 12.1045Q6.55273 12.7539 5.38086 12.7539ZM12.002 12.7539Q11.1719 12.7539 10.5469 12.2363Q9.92188 11.7188 9.57031 10.7959Q9.21875 9.87305 9.21875 8.64258Q9.21875 7.41211 9.57031 6.48438Q9.92188 5.55664 10.5469 5.04395Q11.1719 4.53125 12.002 4.53125Q12.832 4.53125 13.4619 5.04395Q14.0918 5.55664 14.4385 6.48438Q14.7852 7.41211 14.7852 8.64258Q14.7852 9.87305 14.4385 10.7959Q14.0918 11.7188 13.4619 12.2363Q12.832 12.7539 12.002 12.7539ZM12.002 12.0996Q12.9395 12.0996 13.5205 11.1475Q14.1016 10.1953 14.1016 8.64258Q14.1016 7.08984 13.5205 6.1377Q12.9395 5.18555 12.002 5.18555Q11.0742 5.18555 10.4883 6.1377Q9.90234 7.08984 9.90234 8.64258Q9.90234 10.1953 10.4883 11.1475Q11.0742 12.0996 12.002 12.0996Z" fill="#ffffff"/>
 </g>
</svg>
