<?xml version="1.0" encoding="UTF-8"?>
<!--Generator: Apple Native CoreSVG 175-->
<!DOCTYPE svg
PUBLIC "-//W3C//DTD SVG 1.1//EN"
       "http://www.w3.org/Graphics/SVG/1.1/DTD/svg11.dtd">
<svg version="1.1" xmlns="http://www.w3.org/2000/svg" xmlns:xlink="http://www.w3.org/1999/xlink" width="17.2852" height="17.3145">
 <g>
  <rect height="17.3145" opacity="0" width="17.2852" x="0" y="0"/>
  <path d="M2.62695 17.3145L14.6484 17.3145Q15.957 17.3145 16.6211 16.6455Q17.2852 15.9766 17.2852 14.6875L17.2852 2.65625Q17.2852 1.37695 16.6211 0.703125Q15.957 0.0292969 14.6484 0.0292969L2.62695 0.0292969Q1.33789 0.0292969 0.668945 0.693359Q0 1.35742 0 2.65625L0 14.6875Q0 15.9863 0.668945 16.6504Q1.33789 17.3145 2.62695 17.3145Z" fill="rgba(255,255,255,0.18)"/>
  <path d="M8.68164 13.1543Q7.64648 13.1543 6.86035 12.666Q6.07422 12.1777 5.84961 11.3867Q5.81055 11.2305 5.81055 11.1035Q5.81055 10.9375 5.91309 10.835Q6.01562 10.7324 6.17188 10.7324Q6.44531 10.7324 6.52344 11.0449Q6.67969 11.6699 7.27051 12.085Q7.86133 12.5 8.68164 12.5Q9.69727 12.5 10.3223 11.9824Q10.9473 11.4648 10.9473 10.625Q10.9473 9.86328 10.3369 9.3457Q9.72656 8.82812 8.79883 8.82812L7.91992 8.82812Q7.77344 8.82812 7.68066 8.73535Q7.58789 8.64258 7.58789 8.50586Q7.58789 8.35938 7.68066 8.2666Q7.77344 8.17383 7.91992 8.17383L8.73047 8.17383Q9.53125 8.17383 10.083 7.6709Q10.6348 7.16797 10.6348 6.43555Q10.6348 5.70312 10.1025 5.24902Q9.57031 4.79492 8.69141 4.79492Q7.90039 4.79492 7.3584 5.20508Q6.81641 5.61523 6.71875 6.25977Q6.66016 6.57227 6.35742 6.57227Q6.20117 6.57227 6.10352 6.46973Q6.00586 6.36719 6.00586 6.21094Q6.00586 6.13281 6.01562 6.06934Q6.02539 6.00586 6.04492 5.91797Q6.15234 5.12695 6.91406 4.63867Q7.67578 4.15039 8.69141 4.15039Q9.86328 4.15039 10.625 4.77051Q11.3867 5.39062 11.3867 6.34766Q11.3867 7.10938 10.8936 7.70508Q10.4004 8.30078 9.6582 8.4375L9.6582 8.49609Q10.5273 8.57422 11.1133 9.19434Q11.6992 9.81445 11.6992 10.6445Q11.6992 11.7285 10.8594 12.4414Q10.0195 13.1543 8.68164 13.1543Z" fill="#ffffff"/>
 </g>
</svg>
