<?xml version="1.0" encoding="UTF-8"?>
<!--Generator: Apple Native CoreSVG 175-->
<!DOCTYPE svg
PUBLIC "-//W3C//DTD SVG 1.1//EN"
       "http://www.w3.org/Graphics/SVG/1.1/DTD/svg11.dtd">
<svg version="1.1" xmlns="http://www.w3.org/2000/svg" xmlns:xlink="http://www.w3.org/1999/xlink" width="19.1602" height="19.1504">
 <g>
  <rect height="19.1504" opacity="0" width="19.1602" x="0" y="0"/>
  <path d="M9.57031 19.1406Q11.5527 19.1406 13.2861 18.3984Q15.0195 17.6562 16.3379 16.333Q17.6562 15.0098 18.4082 13.2764Q19.1602 11.543 19.1602 9.57031Q19.1602 7.59766 18.4082 5.86426Q17.6562 4.13086 16.3379 2.80762Q15.0195 1.48438 13.2861 0.742188Q11.5527 0 9.57031 0Q7.59766 0 5.86426 0.742188Q4.13086 1.48438 2.81738 2.80762Q1.50391 4.13086 0.751953 5.86426Q0 7.59766 0 9.57031Q0 11.543 0.74707 13.2764Q1.49414 15.0098 2.8125 16.333Q4.13086 17.6562 5.86914 18.3984Q7.60742 19.1406 9.57031 19.1406Z" fill="rgba(255,255,255,0.18)"/>
  <path d="M6.82617 13.6035Q6.68945 13.6035 6.59668 13.5156Q6.50391 13.4277 6.50391 13.2715L6.50391 6.35742L6.46484 6.35742L4.81445 7.45117Q4.75586 7.49023 4.71191 7.5Q4.66797 7.50977 4.61914 7.50977Q4.49219 7.50977 4.39941 7.41699Q4.30664 7.32422 4.30664 7.19727Q4.30664 7.01172 4.48242 6.89453L6.36719 5.66406Q6.48438 5.58594 6.57227 5.55176Q6.66016 5.51758 6.78711 5.51758Q6.94336 5.51758 7.05566 5.61523Q7.16797 5.71289 7.16797 5.88867L7.16797 13.2715Q7.16797 13.4277 7.08008 13.5156Q6.99219 13.6035 6.82617 13.6035ZM13.2227 13.6328Q13.0859 13.6328 12.9932 13.5352Q12.9004 13.4375 12.9004 13.291L12.9004 11.6699L9.54102 11.6699Q9.30664 11.6699 9.16504 11.543Q9.02344 11.416 9.02344 11.1816Q9.02344 11.084 9.04785 10.9766Q9.07227 10.8691 9.13086 10.7715Q9.4043 10.3516 9.82422 9.70703Q10.2441 9.0625 10.708 8.34473Q11.1719 7.62695 11.6016 6.97266Q12.0312 6.31836 12.3242 5.86914Q12.4805 5.63477 12.6367 5.54688Q12.793 5.45898 13.0176 5.45898Q13.2617 5.45898 13.4033 5.5957Q13.5449 5.73242 13.5449 5.9668L13.5449 11.0352L14.5312 11.0352Q14.668 11.0352 14.751 11.1279Q14.834 11.2207 14.834 11.3574Q14.834 11.4941 14.7559 11.582Q14.6777 11.6699 14.5312 11.6699L13.5449 11.6699L13.5449 13.291Q13.5449 13.4375 13.4619 13.5352Q13.3789 13.6328 13.2227 13.6328ZM12.9004 11.0352L12.9004 6.20117L12.8613 6.20117Q12.6758 6.50391 12.3486 6.9873Q12.0215 7.4707 11.6455 8.05176Q11.2695 8.63281 10.8936 9.19922Q10.5176 9.76562 10.2148 10.249Q9.91211 10.7324 9.74609 11.0156L9.74609 11.0352Z" fill="#ffffff"/>
 </g>
</svg>
