<?xml version="1.0" encoding="UTF-8"?>
<!--Generator: Apple Native CoreSVG 175-->
<!DOCTYPE svg
PUBLIC "-//W3C//DTD SVG 1.1//EN"
       "http://www.w3.org/Graphics/SVG/1.1/DTD/svg11.dtd">
<svg version="1.1" xmlns="http://www.w3.org/2000/svg" xmlns:xlink="http://www.w3.org/1999/xlink" width="19.1602" height="19.1504">
 <g>
  <rect height="19.1504" opacity="0" width="19.1602" x="0" y="0"/>
  <path d="M9.57031 19.1406Q11.5527 19.1406 13.2861 18.3984Q15.0195 17.6562 16.3379 16.333Q17.6562 15.0098 18.4082 13.2764Q19.1602 11.543 19.1602 9.57031Q19.1602 7.59766 18.4082 5.86426Q17.6562 4.13086 16.3379 2.80762Q15.0195 1.48438 13.2861 0.742188Q11.5527 0 9.57031 0Q7.59766 0 5.86426 0.742188Q4.13086 1.48438 2.81738 2.80762Q1.50391 4.13086 0.751953 5.86426Q0 7.59766 0 9.57031Q0 11.543 0.74707 13.2764Q1.49414 15.0098 2.8125 16.333Q4.13086 17.6562 5.86914 18.3984Q7.60742 19.1406 9.57031 19.1406Z" fill="rgba(255,255,255,0.18)"/>
  <path d="M6.10352 13.6816Q5.15625 13.6816 4.47266 13.1982Q3.78906 12.7148 3.57422 12.0605Q3.55469 11.9922 3.54004 11.9336Q3.52539 11.875 3.52539 11.7871Q3.52539 11.6406 3.61816 11.5381Q3.71094 11.4355 3.85742 11.4355Q4.10156 11.4355 4.19922 11.7383Q4.39453 12.3438 4.91699 12.6904Q5.43945 13.0371 6.11328 13.0371Q7.01172 13.0371 7.55859 12.5684Q8.10547 12.0996 8.10547 11.3672Q8.10547 10.6738 7.56836 10.2148Q7.03125 9.75586 6.21094 9.75586L5.41992 9.75586Q5.26367 9.75586 5.18555 9.66309Q5.10742 9.57031 5.10742 9.43359Q5.10742 9.28711 5.19043 9.19922Q5.27344 9.11133 5.41992 9.11133L6.14258 9.11133Q6.875 9.11133 7.35352 8.66211Q7.83203 8.21289 7.83203 7.55859Q7.83203 6.9043 7.3584 6.49902Q6.88477 6.09375 6.10352 6.09375Q5.40039 6.09375 4.93652 6.45508Q4.47266 6.81641 4.3457 7.40234Q4.31641 7.55859 4.23828 7.63184Q4.16016 7.70508 4.0332 7.70508Q3.84766 7.70508 3.76953 7.60254Q3.69141 7.5 3.69141 7.34375Q3.69141 7.19727 3.7207 7.07031Q3.89648 6.33789 4.57031 5.89844Q5.24414 5.45898 6.11328 5.45898Q7.1582 5.45898 7.83691 6.02539Q8.51562 6.5918 8.51562 7.48047Q8.51562 8.16406 8.07129 8.71582Q7.62695 9.26758 6.97266 9.38477L6.97266 9.4043Q7.75391 9.48242 8.27148 10.0488Q8.78906 10.6152 8.78906 11.377Q8.78906 12.3828 8.03223 13.0322Q7.27539 13.6816 6.10352 13.6816ZM13.0273 13.6914Q12.168 13.6914 11.5869 13.335Q11.0059 12.9785 10.6836 12.3145Q10.4492 11.8359 10.3418 11.2109Q10.2344 10.5859 10.2344 9.82422Q10.2344 7.73438 11.0107 6.59668Q11.7871 5.45898 13.1836 5.45898Q13.7988 5.45898 14.2676 5.67383Q14.7363 5.88867 15.0244 6.20605Q15.3125 6.52344 15.4199 6.80664Q15.459 6.9043 15.459 7.00195Q15.459 7.12891 15.3809 7.2168Q15.3027 7.30469 15.1562 7.30469Q15.0586 7.30469 14.9854 7.24609Q14.9121 7.1875 14.8535 7.08008Q14.6191 6.63086 14.1748 6.3623Q13.7305 6.09375 13.1641 6.09375Q12.0898 6.09375 11.4697 7.0752Q10.8496 8.05664 10.8496 9.80469Q10.8496 9.82422 10.8496 9.84863Q10.8496 9.87305 10.8496 9.89258L10.8789 9.89258Q11.1328 9.26758 11.7627 8.86719Q12.3926 8.4668 13.1836 8.4668Q14.2773 8.4668 15.0049 9.1748Q15.7324 9.88281 15.7324 11.0059Q15.7324 12.2168 14.9805 12.9541Q14.2285 13.6914 13.0273 13.6914ZM13.0273 13.0566Q13.9453 13.0566 14.5068 12.5098Q15.0684 11.9629 15.0684 11.0449Q15.0684 10.1562 14.502 9.61426Q13.9355 9.07227 13.0371 9.07227Q12.1387 9.07227 11.5674 9.62402Q10.9961 10.1758 10.9961 11.0352Q10.9961 11.9141 11.5674 12.4854Q12.1387 13.0566 13.0273 13.0566Z" fill="#ffffff"/>
 </g>
</svg>
