<?xml version="1.0" encoding="UTF-8"?>
<!--Generator: Apple Native CoreSVG 175-->
<!DOCTYPE svg
PUBLIC "-//W3C//DTD SVG 1.1//EN"
       "http://www.w3.org/Graphics/SVG/1.1/DTD/svg11.dtd">
<svg version="1.1" xmlns="http://www.w3.org/2000/svg" xmlns:xlink="http://www.w3.org/1999/xlink" width="17.2852" height="17.3145">
 <g>
  <rect height="17.3145" opacity="0" width="17.2852" x="0" y="0"/>
  <path d="M2.62695 17.3145L14.6484 17.3145Q15.957 17.3145 16.6211 16.6455Q17.2852 15.9766 17.2852 14.6875L17.2852 2.65625Q17.2852 1.37695 16.6211 0.703125Q15.957 0.0292969 14.6484 0.0292969L2.62695 0.0292969Q1.33789 0.0292969 0.668945 0.693359Q0 1.35742 0 2.65625L0 14.6875Q0 15.9863 0.668945 16.6504Q1.33789 17.3145 2.62695 17.3145ZM2.65625 16.5918Q1.70898 16.5918 1.2207 16.1035Q0.732422 15.6152 0.732422 14.6582L0.732422 2.69531Q0.732422 1.72852 1.2207 1.24512Q1.70898 0.761719 2.65625 0.761719L14.6289 0.761719Q15.5566 0.761719 16.0596 1.24512Q16.5625 1.72852 16.5625 2.69531L16.5625 14.6582Q16.5625 15.6152 16.0596 16.1035Q15.5566 16.5918 14.6289 16.5918Z" fill="rgba(255,255,255,0.5)"/>
  <path d="M7.34375 13.0762Q7.4707 13.0762 7.55859 13.0176Q7.64648 12.959 7.72461 12.8027L11.5625 5.23438Q11.6211 5.09766 11.6504 5.00488Q11.6797 4.91211 11.6797 4.82422Q11.6797 4.59961 11.5137 4.46289Q11.3477 4.32617 11.0742 4.32617L6.2793 4.32617Q6.13281 4.32617 6.04492 4.41895Q5.95703 4.51172 5.95703 4.64844Q5.95703 4.78516 6.04492 4.87793Q6.13281 4.9707 6.2793 4.9707L10.8691 4.9707L10.8691 5.0293L7.03125 12.4609Q6.96289 12.5977 6.96289 12.7246Q6.96289 12.8809 7.07031 12.9785Q7.17773 13.0762 7.34375 13.0762Z" fill="#ffffff"/>
 </g>
</svg>
