<?xml version="1.0" encoding="UTF-8"?>
<!--Generator: Apple Native CoreSVG 175-->
<!DOCTYPE svg
PUBLIC "-//W3C//DTD SVG 1.1//EN"
       "http://www.w3.org/Graphics/SVG/1.1/DTD/svg11.dtd">
<svg version="1.1" xmlns="http://www.w3.org/2000/svg" xmlns:xlink="http://www.w3.org/1999/xlink" width="17.2852" height="17.3145">
 <g>
  <rect height="17.3145" opacity="0" width="17.2852" x="0" y="0"/>
  <path d="M2.62695 17.3145L14.6484 17.3145Q15.957 17.3145 16.6211 16.6455Q17.2852 15.9766 17.2852 14.6875L17.2852 2.65625Q17.2852 1.37695 16.6211 0.703125Q15.957 0.0292969 14.6484 0.0292969L2.62695 0.0292969Q1.33789 0.0292969 0.668945 0.693359Q0 1.35742 0 2.65625L0 14.6875Q0 15.9863 0.668945 16.6504Q1.33789 17.3145 2.62695 17.3145ZM2.65625 16.5918Q1.70898 16.5918 1.2207 16.1035Q0.732422 15.6152 0.732422 14.6582L0.732422 2.69531Q0.732422 1.72852 1.2207 1.24512Q1.70898 0.761719 2.65625 0.761719L14.6289 0.761719Q15.5566 0.761719 16.0596 1.24512Q16.5625 1.72852 16.5625 2.69531L16.5625 14.6582Q16.5625 15.6152 16.0596 16.1035Q15.5566 16.5918 14.6289 16.5918Z" fill="rgba(255,255,255,0.5)"/>
  <path d="M6.24023 12.7344Q7.06055 12.7344 7.68555 12.2217Q8.31055 11.709 8.65723 10.791Q9.00391 9.87305 9.00391 8.65234Q9.00391 7.43164 8.65723 6.50879Q8.31055 5.58594 7.68555 5.07812Q7.06055 4.57031 6.24023 4.57031Q5.41992 4.57031 4.79492 5.07812Q4.16992 5.58594 3.82324 6.50879Q3.47656 7.43164 3.47656 8.65234Q3.47656 9.87305 3.82324 10.791Q4.16992 11.709 4.79492 12.2217Q5.41992 12.7344 6.24023 12.7344ZM6.24023 12.0898Q5.3125 12.0898 4.73145 11.1426Q4.15039 10.1953 4.15039 8.65234Q4.15039 7.10938 4.73145 6.16211Q5.3125 5.21484 6.24023 5.21484Q7.16797 5.21484 7.74902 6.16211Q8.33008 7.10938 8.33008 8.65234Q8.33008 10.1953 7.74902 11.1426Q7.16797 12.0898 6.24023 12.0898ZM12.8809 12.6562Q13.2031 12.6562 13.2031 12.334L13.2031 4.99023Q13.2031 4.82422 13.1006 4.72656Q12.998 4.62891 12.8418 4.62891Q12.7148 4.62891 12.627 4.66309Q12.5391 4.69727 12.4219 4.76562L10.5469 5.99609Q10.3711 6.10352 10.3711 6.28906Q10.3711 6.41602 10.4639 6.50879Q10.5566 6.60156 10.6836 6.60156Q10.7324 6.60156 10.7764 6.59668Q10.8203 6.5918 10.8789 6.54297L12.5195 5.45898L12.5586 5.45898L12.5586 12.334Q12.5586 12.6562 12.8809 12.6562Z" fill="#ffffff"/>
 </g>
</svg>
