<?xml version="1.0" encoding="UTF-8"?>
<!--Generator: Apple Native CoreSVG 175.5-->
<!DOCTYPE svg
PUBLIC "-//W3C//DTD SVG 1.1//EN"
       "http://www.w3.org/Graphics/SVG/1.1/DTD/svg11.dtd">
<svg version="1.1" xmlns="http://www.w3.org/2000/svg" xmlns:xlink="http://www.w3.org/1999/xlink" width="17.9785" height="17.998">
 <g>
  <rect height="17.998" opacity="0" width="17.9785" x="0" y="0"/>
  <path d="M3.06641 17.998L14.9121 17.998Q16.4453 17.998 17.2119 17.2412Q17.9785 16.4844 17.9785 14.9707L17.9785 3.04688Q17.9785 1.5332 17.2119 0.776367Q16.4453 0.0195312 14.9121 0.0195312L3.06641 0.0195312Q1.5332 0.0195312 0.766602 0.776367Q0 1.5332 0 3.04688L0 14.9707Q0 16.4844 0.766602 17.2412Q1.5332 17.998 3.06641 17.998Z" fill="#ffffff"/>
  <path d="M5.71289 13.3398Q4.84375 13.3398 4.19434 12.8125Q3.54492 12.2852 3.18848 11.3135Q2.83203 10.3418 2.83203 8.99414Q2.83203 7.64648 3.18848 6.6748Q3.54492 5.70312 4.19434 5.17578Q4.84375 4.64844 5.71289 4.64844Q6.58203 4.64844 7.22656 5.17578Q7.87109 5.70312 8.23242 6.6748Q8.59375 7.64648 8.59375 8.99414Q8.59375 10.3418 8.23242 11.3135Q7.87109 12.2852 7.22656 12.8125Q6.58203 13.3398 5.71289 13.3398ZM5.71289 12.1094Q6.44531 12.1094 6.85547 11.2744Q7.26562 10.4395 7.26562 8.99414Q7.26562 7.54883 6.85059 6.71387Q6.43555 5.87891 5.71289 5.87891Q4.99023 5.87891 4.5752 6.71387Q4.16016 7.54883 4.16016 8.99414Q4.16016 10.4395 4.5752 11.2744Q4.99023 12.1094 5.71289 12.1094ZM10.3906 13.1055Q10.127 13.1055 9.96582 12.9395Q9.80469 12.7734 9.80469 12.5098Q9.80469 12.3535 9.85352 12.2217Q9.90234 12.0898 10.0293 11.9629L12.6855 8.83789Q13.0371 8.41797 13.3643 7.98828Q13.6914 7.55859 13.6914 7.06055Q13.6914 6.50391 13.3252 6.16211Q12.959 5.82031 12.3535 5.82031Q11.8066 5.82031 11.4355 6.09863Q11.0645 6.37695 10.8691 6.94336Q10.7715 7.16797 10.6396 7.29004Q10.5078 7.41211 10.293 7.41211Q10.0293 7.41211 9.87793 7.24609Q9.72656 7.08008 9.72656 6.80664Q9.72656 6.71875 9.74121 6.63086Q9.75586 6.54297 9.77539 6.44531Q9.9707 5.67383 10.6885 5.16113Q11.4062 4.64844 12.3047 4.64844Q13.4863 4.64844 14.1943 5.27344Q14.9023 5.89844 14.9023 6.95312Q14.9023 7.70508 14.5361 8.30078Q14.1699 8.89648 13.6035 9.55078L11.6406 11.8359L11.6406 11.9141L14.5605 11.9141Q14.8047 11.9141 14.9658 12.0654Q15.127 12.2168 15.127 12.5Q15.127 12.7734 14.9658 12.9395Q14.8047 13.1055 14.5605 13.1055Z" fill="none"/>
 </g>
</svg>
