<?xml version="1.0" encoding="UTF-8"?>
<!--Generator: Apple Native CoreSVG 175.5-->
<!DOCTYPE svg
PUBLIC "-//W3C//DTD SVG 1.1//EN"
       "http://www.w3.org/Graphics/SVG/1.1/DTD/svg11.dtd">
<svg version="1.1" xmlns="http://www.w3.org/2000/svg" xmlns:xlink="http://www.w3.org/1999/xlink" width="17.9785" height="17.998">
 <g>
  <rect height="17.998" opacity="0" width="17.9785" x="0" y="0"/>
  <path d="M3.06641 17.998L14.9121 17.998Q16.4453 17.998 17.2119 17.2412Q17.9785 16.4844 17.9785 14.9707L17.9785 3.04688Q17.9785 1.5332 17.2119 0.776367Q16.4453 0.0195312 14.9121 0.0195312L3.06641 0.0195312Q1.5332 0.0195312 0.766602 0.776367Q0 1.5332 0 3.04688L0 14.9707Q0 16.4844 0.766602 17.2412Q1.5332 17.998 3.06641 17.998Z" fill="#ffffff"/>
  <path d="M5.60547 13.3398Q4.73633 13.3398 4.0918 12.8125Q3.44727 12.2852 3.08594 11.3135Q2.72461 10.3418 2.72461 8.99414Q2.72461 7.64648 3.08594 6.6748Q3.44727 5.70312 4.0918 5.17578Q4.73633 4.64844 5.60547 4.64844Q6.47461 4.64844 7.12402 5.17578Q7.77344 5.70312 8.12988 6.6748Q8.48633 7.64648 8.48633 8.99414Q8.48633 10.3418 8.12988 11.3135Q7.77344 12.2852 7.12402 12.8125Q6.47461 13.3398 5.60547 13.3398ZM5.60547 12.1094Q6.33789 12.1094 6.75293 11.2744Q7.16797 10.4395 7.16797 8.99414Q7.16797 7.54883 6.74805 6.71387Q6.32812 5.87891 5.60547 5.87891Q4.89258 5.87891 4.47266 6.71387Q4.05273 7.54883 4.05273 8.99414Q4.05273 10.4395 4.47266 11.2744Q4.89258 12.1094 5.60547 12.1094ZM12.3828 13.3398Q11.3574 13.3398 10.6201 12.8027Q9.88281 12.2656 9.67773 11.5723Q9.6582 11.4746 9.64355 11.3916Q9.62891 11.3086 9.62891 11.2012Q9.62891 10.9375 9.79492 10.7666Q9.96094 10.5957 10.2148 10.5957Q10.6055 10.5957 10.791 11.0742Q10.9961 11.6016 11.4014 11.8848Q11.8066 12.168 12.3926 12.168Q13.125 12.168 13.5791 11.7773Q14.0332 11.3867 14.0332 10.8008Q14.0332 10.1855 13.6084 9.81445Q13.1836 9.44336 12.4707 9.44336L11.875 9.44336Q11.6309 9.44336 11.4795 9.27734Q11.3281 9.11133 11.3281 8.86719Q11.3281 8.59375 11.4795 8.42773Q11.6309 8.26172 11.875 8.26172L12.4121 8.26172Q13.0176 8.26172 13.3984 7.90527Q13.7793 7.54883 13.7793 7.00195Q13.7793 6.47461 13.4033 6.14746Q13.0273 5.82031 12.4316 5.82031Q11.8359 5.82031 11.4697 6.10352Q11.1035 6.38672 10.9375 6.91406Q10.8594 7.1582 10.7275 7.27539Q10.5957 7.39258 10.3711 7.39258Q10.1074 7.39258 9.95117 7.22168Q9.79492 7.05078 9.79492 6.77734Q9.79492 6.55273 9.82422 6.41602Q10.0195 5.67383 10.7275 5.16113Q11.4355 4.64844 12.4609 4.64844Q13.584 4.64844 14.3066 5.25879Q15.0293 5.86914 15.0293 6.83594Q15.0293 7.54883 14.5947 8.10547Q14.1602 8.66211 13.5352 8.75977L13.5352 8.81836Q14.2969 8.89648 14.7998 9.47266Q15.3027 10.0488 15.3027 10.8594Q15.3027 11.9434 14.4873 12.6416Q13.6719 13.3398 12.3828 13.3398Z" fill="none"/>
 </g>
</svg>
