<?xml version="1.0" encoding="UTF-8"?>
<!--Generator: Apple Native CoreSVG 175.5-->
<!DOCTYPE svg
PUBLIC "-//W3C//DTD SVG 1.1//EN"
       "http://www.w3.org/Graphics/SVG/1.1/DTD/svg11.dtd">
<svg version="1.1" xmlns="http://www.w3.org/2000/svg" xmlns:xlink="http://www.w3.org/1999/xlink" width="19.9219" height="19.9316">
 <g>
  <rect height="19.9316" opacity="0" width="19.9219" x="0" y="0"/>
  <path d="M9.96094 19.9219Q12.002 19.9219 13.8037 19.1406Q15.6055 18.3594 16.9824 16.9824Q18.3594 15.6055 19.1406 13.8037Q19.9219 12.002 19.9219 9.96094Q19.9219 7.91992 19.1406 6.11816Q18.3594 4.31641 16.9824 2.93945Q15.6055 1.5625 13.7988 0.78125Q11.9922 0 9.95117 0Q7.91016 0 6.1084 0.78125Q4.30664 1.5625 2.93457 2.93945Q1.5625 4.31641 0.78125 6.11816Q0 7.91992 0 9.96094Q0 12.002 0.78125 13.8037Q1.5625 15.6055 2.93945 16.9824Q4.31641 18.3594 6.11816 19.1406Q7.91992 19.9219 9.96094 19.9219Z" fill="#ffffff"/>
  <path d="M6.60156 14.3066Q5.73242 14.3066 5.08789 13.7793Q4.44336 13.252 4.08203 12.2803Q3.7207 11.3086 3.7207 9.96094Q3.7207 8.61328 4.08203 7.6416Q4.44336 6.66992 5.08789 6.14258Q5.73242 5.61523 6.60156 5.61523Q7.4707 5.61523 8.12012 6.14258Q8.76953 6.66992 9.12598 7.6416Q9.48242 8.61328 9.48242 9.96094Q9.48242 11.3086 9.12598 12.2803Q8.76953 13.252 8.12012 13.7793Q7.4707 14.3066 6.60156 14.3066ZM6.60156 13.0762Q7.33398 13.0762 7.74414 12.2412Q8.1543 11.4062 8.1543 9.96094Q8.1543 8.51562 7.73926 7.68066Q7.32422 6.8457 6.60156 6.8457Q5.88867 6.8457 5.46875 7.68066Q5.04883 8.51562 5.04883 9.96094Q5.04883 11.4062 5.46875 12.2412Q5.88867 13.0762 6.60156 13.0762ZM13.2715 14.3066Q12.2266 14.3066 11.6211 13.8428Q11.0156 13.3789 10.8887 12.959Q10.8594 12.8711 10.8398 12.7734Q10.8203 12.6758 10.8203 12.5977Q10.8203 12.334 10.9668 12.168Q11.1133 12.002 11.3574 12.002Q11.7578 12.002 11.9727 12.3926Q12.1582 12.7246 12.4854 12.9297Q12.8125 13.1348 13.252 13.1348Q13.8281 13.1348 14.2627 12.7539Q14.6973 12.373 14.9316 11.6602Q15.166 10.9473 15.1562 9.95117L15.0977 9.95117Q14.8926 10.459 14.3994 10.8447Q13.9062 11.2305 13.0762 11.2305Q12.4121 11.2305 11.8457 10.9131Q11.2793 10.5957 10.9326 9.99512Q10.5859 9.39453 10.5859 8.53516Q10.5859 7.20703 11.3477 6.41113Q12.1094 5.61523 13.3789 5.61523Q14.7949 5.61523 15.5811 6.65527Q16.3672 7.69531 16.3672 9.67773Q16.3672 11.9531 15.5713 13.1299Q14.7754 14.3066 13.2715 14.3066ZM13.457 10.1855Q14.1602 10.1855 14.6045 9.70703Q15.0488 9.22852 15.0488 8.48633Q15.0488 7.70508 14.5996 7.21191Q14.1504 6.71875 13.4668 6.71875Q12.7344 6.71875 12.2998 7.19727Q11.8652 7.67578 11.8652 8.4668Q11.8652 9.21875 12.3047 9.70215Q12.7441 10.1855 13.457 10.1855Z" fill="none"/>
 </g>
</svg>
