<?xml version="1.0" encoding="UTF-8"?>
<!--Generator: Apple Native CoreSVG 175.5-->
<!DOCTYPE svg
PUBLIC "-//W3C//DTD SVG 1.1//EN"
       "http://www.w3.org/Graphics/SVG/1.1/DTD/svg11.dtd">
<svg version="1.1" xmlns="http://www.w3.org/2000/svg" xmlns:xlink="http://www.w3.org/1999/xlink" width="17.9785" height="17.998">
 <g>
  <rect height="17.998" opacity="0" width="17.9785" x="0" y="0"/>
  <path d="M3.06641 17.998L14.9121 17.998Q16.4453 17.998 17.2119 17.2412Q17.9785 16.4844 17.9785 14.9707L17.9785 3.04688Q17.9785 1.5332 17.2119 0.776367Q16.4453 0.0195312 14.9121 0.0195312L3.06641 0.0195312Q1.5332 0.0195312 0.766602 0.776367Q0 1.5332 0 3.04688L0 14.9707Q0 16.4844 0.766602 17.2412Q1.5332 17.998 3.06641 17.998Z" fill="#ffffff"/>
  <path d="M5.63477 13.3398Q4.76562 13.3398 4.12109 12.8125Q3.47656 12.2852 3.11523 11.3135Q2.75391 10.3418 2.75391 8.99414Q2.75391 7.64648 3.11523 6.6748Q3.47656 5.70312 4.12109 5.17578Q4.76562 4.64844 5.63477 4.64844Q6.50391 4.64844 7.15332 5.17578Q7.80273 5.70312 8.15918 6.6748Q8.51562 7.64648 8.51562 8.99414Q8.51562 10.3418 8.15918 11.3135Q7.80273 12.2852 7.15332 12.8125Q6.50391 13.3398 5.63477 13.3398ZM5.63477 12.1094Q6.36719 12.1094 6.77734 11.2744Q7.1875 10.4395 7.1875 8.99414Q7.1875 7.54883 6.77246 6.71387Q6.35742 5.87891 5.63477 5.87891Q4.92188 5.87891 4.50195 6.71387Q4.08203 7.54883 4.08203 8.99414Q4.08203 10.4395 4.50195 11.2744Q4.92188 12.1094 5.63477 12.1094ZM12.3047 13.3398Q11.2598 13.3398 10.6543 12.876Q10.0488 12.4121 9.92188 11.9922Q9.89258 11.9043 9.87305 11.8066Q9.85352 11.709 9.85352 11.6309Q9.85352 11.3672 10 11.2012Q10.1465 11.0352 10.3906 11.0352Q10.791 11.0352 11.0059 11.4258Q11.1914 11.7578 11.5186 11.9629Q11.8457 12.168 12.2852 12.168Q12.8613 12.168 13.2959 11.7871Q13.7305 11.4062 13.9648 10.6934Q14.1992 9.98047 14.1895 8.98438L14.1309 8.98438Q13.9258 9.49219 13.4326 9.87793Q12.9395 10.2637 12.1094 10.2637Q11.4453 10.2637 10.8789 9.94629Q10.3125 9.62891 9.96582 9.02832Q9.61914 8.42773 9.61914 7.56836Q9.61914 6.24023 10.3809 5.44434Q11.1426 4.64844 12.4121 4.64844Q13.8281 4.64844 14.6143 5.68848Q15.4004 6.72852 15.4004 8.71094Q15.4004 10.9863 14.6045 12.1631Q13.8086 13.3398 12.3047 13.3398ZM12.4902 9.21875Q13.1934 9.21875 13.6377 8.74023Q14.082 8.26172 14.082 7.51953Q14.082 6.73828 13.6328 6.24512Q13.1836 5.75195 12.5 5.75195Q11.7676 5.75195 11.333 6.23047Q10.8984 6.70898 10.8984 7.5Q10.8984 8.25195 11.3379 8.73535Q11.7773 9.21875 12.4902 9.21875Z" fill="none"/>
 </g>
</svg>
