<?xml version="1.0" encoding="UTF-8"?>
<!--Generator: Apple Native CoreSVG 175.5-->
<!DOCTYPE svg
PUBLIC "-//W3C//DTD SVG 1.1//EN"
       "http://www.w3.org/Graphics/SVG/1.1/DTD/svg11.dtd">
<svg version="1.1" xmlns="http://www.w3.org/2000/svg" xmlns:xlink="http://www.w3.org/1999/xlink" width="19.9219" height="19.9316">
 <g>
  <rect height="19.9316" opacity="0" width="19.9219" x="0" y="0"/>
  <path d="M9.96094 19.9219Q12.002 19.9219 13.8037 19.1406Q15.6055 18.3594 16.9824 16.9824Q18.3594 15.6055 19.1406 13.8037Q19.9219 12.002 19.9219 9.96094Q19.9219 7.91992 19.1406 6.11816Q18.3594 4.31641 16.9824 2.93945Q15.6055 1.5625 13.7988 0.78125Q11.9922 0 9.95117 0Q7.91016 0 6.1084 0.78125Q4.30664 1.5625 2.93457 2.93945Q1.5625 4.31641 0.78125 6.11816Q0 7.91992 0 9.96094Q0 12.002 0.78125 13.8037Q1.5625 15.6055 2.93945 16.9824Q4.31641 18.3594 6.11816 19.1406Q7.91992 19.9219 9.96094 19.9219ZM9.96094 18.2617Q8.23242 18.2617 6.72852 17.6172Q5.22461 16.9727 4.08691 15.835Q2.94922 14.6973 2.30957 13.1934Q1.66992 11.6895 1.66992 9.96094Q1.66992 8.23242 2.30957 6.72852Q2.94922 5.22461 4.08203 4.08203Q5.21484 2.93945 6.71875 2.2998Q8.22266 1.66016 9.95117 1.66016Q11.6797 1.66016 13.1885 2.2998Q14.6973 2.93945 15.835 4.08203Q16.9727 5.22461 17.6172 6.72852Q18.2617 8.23242 18.2617 9.96094Q18.2617 11.6895 17.6221 13.1934Q16.9824 14.6973 15.8398 15.835Q14.6973 16.9727 13.1934 17.6172Q11.6895 18.2617 9.96094 18.2617Z" fill="#ffffff"/>
  <path d="M7.31445 14.0527Q7.93945 14.0527 7.93945 13.4277L7.93945 6.51367Q7.93945 6.20117 7.74902 6.00586Q7.55859 5.81055 7.24609 5.81055Q7.01172 5.81055 6.83105 5.88867Q6.65039 5.9668 6.39648 6.14258L4.91211 7.1582Q4.58008 7.39258 4.58008 7.73438Q4.58008 7.97852 4.75098 8.14941Q4.92188 8.32031 5.13672 8.32031Q5.25391 8.32031 5.35156 8.2959Q5.44922 8.27148 5.61523 8.13477L6.66016 7.36328L6.71875 7.36328L6.71875 13.4277Q6.71875 14.0527 7.31445 14.0527ZM12.4902 14.1699Q13.3301 14.1699 13.96 13.6572Q14.5898 13.1445 14.9365 12.2021Q15.2832 11.2598 15.2832 9.96094Q15.2832 8.66211 14.9365 7.71484Q14.5898 6.76758 13.96 6.25977Q13.3301 5.75195 12.4902 5.75195Q11.6504 5.75195 11.0205 6.25977Q10.3906 6.76758 10.0439 7.71484Q9.69727 8.66211 9.69727 9.96094Q9.69727 11.2598 10.0439 12.2021Q10.3906 13.1445 11.0205 13.6572Q11.6504 14.1699 12.4902 14.1699ZM12.4902 12.9883Q11.7871 12.9883 11.3818 12.1777Q10.9766 11.3672 10.9766 9.96094Q10.9766 8.55469 11.3818 7.74414Q11.7871 6.93359 12.4902 6.93359Q13.1836 6.93359 13.5938 7.74414Q14.0039 8.55469 14.0039 9.96094Q14.0039 11.3672 13.5986 12.1777Q13.1934 12.9883 12.4902 12.9883Z" fill="#ffffff"/>
 </g>
</svg>
