<?xml version="1.0" encoding="UTF-8"?>
<!--Generator: Apple Native CoreSVG 175.5-->
<!DOCTYPE svg
PUBLIC "-//W3C//DTD SVG 1.1//EN"
       "http://www.w3.org/Graphics/SVG/1.1/DTD/svg11.dtd">
<svg version="1.1" xmlns="http://www.w3.org/2000/svg" xmlns:xlink="http://www.w3.org/1999/xlink" width="19.9219" height="19.9316">
 <g>
  <rect height="19.9316" opacity="0" width="19.9219" x="0" y="0"/>
  <path d="M9.96094 19.9219Q12.002 19.9219 13.8037 19.1406Q15.6055 18.3594 16.9824 16.9824Q18.3594 15.6055 19.1406 13.8037Q19.9219 12.002 19.9219 9.96094Q19.9219 7.91992 19.1406 6.11816Q18.3594 4.31641 16.9824 2.93945Q15.6055 1.5625 13.7988 0.78125Q11.9922 0 9.95117 0Q7.91016 0 6.1084 0.78125Q4.30664 1.5625 2.93457 2.93945Q1.5625 4.31641 0.78125 6.11816Q0 7.91992 0 9.96094Q0 12.002 0.78125 13.8037Q1.5625 15.6055 2.93945 16.9824Q4.31641 18.3594 6.11816 19.1406Q7.91992 19.9219 9.96094 19.9219Z" fill="#ffffff"/>
  <path d="M7.24609 14.1797Q6.96289 14.1797 6.79199 14.0039Q6.62109 13.8281 6.62109 13.5352L6.62109 7.28516L6.5625 7.28516L5.49805 8.07617Q5.32227 8.21289 5.21973 8.24219Q5.11719 8.27148 5 8.27148Q4.78516 8.27148 4.60449 8.0957Q4.42383 7.91992 4.42383 7.66602Q4.42383 7.30469 4.76562 7.07031L6.28906 6.02539Q6.5625 5.83984 6.74316 5.76172Q6.92383 5.68359 7.16797 5.68359Q7.49023 5.68359 7.69043 5.88867Q7.89062 6.09375 7.89062 6.40625L7.89062 13.5352Q7.89062 13.8281 7.71484 14.0039Q7.53906 14.1797 7.24609 14.1797ZM12.5781 14.3066Q11.709 14.3066 11.0596 13.7793Q10.4102 13.252 10.0537 12.2803Q9.69727 11.3086 9.69727 9.96094Q9.69727 8.61328 10.0537 7.6416Q10.4102 6.66992 11.0596 6.14258Q11.709 5.61523 12.5781 5.61523Q13.4473 5.61523 14.0967 6.14258Q14.7461 6.66992 15.1025 7.6416Q15.459 8.61328 15.459 9.96094Q15.459 11.3086 15.1025 12.2803Q14.7461 13.252 14.0967 13.7793Q13.4473 14.3066 12.5781 14.3066ZM12.5781 13.0762Q13.3008 13.0762 13.7207 12.2412Q14.1406 11.4062 14.1406 9.96094Q14.1406 8.51562 13.7207 7.68066Q13.3008 6.8457 12.5781 6.8457Q11.8652 6.8457 11.4453 7.68066Q11.0254 8.51562 11.0254 9.96094Q11.0254 11.4062 11.4453 12.2412Q11.8652 13.0762 12.5781 13.0762Z" fill="none"/>
 </g>
</svg>
