<?xml version="1.0" encoding="UTF-8"?>
<!--Generator: Apple Native CoreSVG 175.5-->
<!DOCTYPE svg
PUBLIC "-//W3C//DTD SVG 1.1//EN"
       "http://www.w3.org/Graphics/SVG/1.1/DTD/svg11.dtd">
<svg version="1.1" xmlns="http://www.w3.org/2000/svg" xmlns:xlink="http://www.w3.org/1999/xlink" width="19.9219" height="19.9316">
 <g>
  <rect height="19.9316" opacity="0" width="19.9219" x="0" y="0"/>
  <path d="M9.96094 19.9219Q12.002 19.9219 13.8037 19.1406Q15.6055 18.3594 16.9824 16.9824Q18.3594 15.6055 19.1406 13.8037Q19.9219 12.002 19.9219 9.96094Q19.9219 7.91992 19.1406 6.11816Q18.3594 4.31641 16.9824 2.93945Q15.6055 1.5625 13.7988 0.78125Q11.9922 0 9.95117 0Q7.91016 0 6.1084 0.78125Q4.30664 1.5625 2.93457 2.93945Q1.5625 4.31641 0.78125 6.11816Q0 7.91992 0 9.96094Q0 12.002 0.78125 13.8037Q1.5625 15.6055 2.93945 16.9824Q4.31641 18.3594 6.11816 19.1406Q7.91992 19.9219 9.96094 19.9219Z" fill="#ffffff"/>
  <path d="M7.8418 14.1797Q7.56836 14.1797 7.39746 14.0039Q7.22656 13.8281 7.22656 13.5352L7.22656 7.28516L7.16797 7.28516L6.09375 8.08594Q5.91797 8.22266 5.82031 8.24707Q5.72266 8.27148 5.5957 8.27148Q5.38086 8.27148 5.2002 8.0957Q5.01953 7.91992 5.01953 7.66602Q5.01953 7.4707 5.1123 7.3291Q5.20508 7.1875 5.36133 7.07031L6.89453 6.02539Q7.1582 5.83984 7.34375 5.76172Q7.5293 5.68359 7.77344 5.68359Q8.08594 5.68359 8.28613 5.88867Q8.48633 6.09375 8.48633 6.40625L8.48633 13.5352Q8.48633 13.8281 8.31055 14.0039Q8.13477 14.1797 7.8418 14.1797ZM13.125 14.1797Q12.8418 14.1797 12.6709 14.0039Q12.5 13.8281 12.5 13.5352L12.5 7.28516L12.4414 7.28516L11.377 8.08594Q11.2012 8.22266 11.0986 8.24707Q10.9961 8.27148 10.8789 8.27148Q10.6641 8.27148 10.4834 8.0957Q10.3027 7.91992 10.3027 7.66602Q10.3027 7.31445 10.6445 7.07031L12.168 6.02539Q12.4316 5.83984 12.6172 5.76172Q12.8027 5.68359 13.0469 5.68359Q13.3691 5.68359 13.5693 5.88867Q13.7695 6.09375 13.7695 6.40625L13.7695 13.5352Q13.7695 13.8281 13.5938 14.0039Q13.418 14.1797 13.125 14.1797Z" fill="none"/>
 </g>
</svg>
