<?xml version="1.0" encoding="UTF-8"?>
<!--Generator: Apple Native CoreSVG 175.5-->
<!DOCTYPE svg
PUBLIC "-//W3C//DTD SVG 1.1//EN"
       "http://www.w3.org/Graphics/SVG/1.1/DTD/svg11.dtd">
<svg version="1.1" xmlns="http://www.w3.org/2000/svg" xmlns:xlink="http://www.w3.org/1999/xlink" width="19.9219" height="19.9316">
 <g>
  <rect height="19.9316" opacity="0" width="19.9219" x="0" y="0"/>
  <path d="M9.96094 19.9219Q12.002 19.9219 13.8037 19.1406Q15.6055 18.3594 16.9824 16.9824Q18.3594 15.6055 19.1406 13.8037Q19.9219 12.002 19.9219 9.96094Q19.9219 7.91992 19.1406 6.11816Q18.3594 4.31641 16.9824 2.93945Q15.6055 1.5625 13.7988 0.78125Q11.9922 0 9.95117 0Q7.91016 0 6.1084 0.78125Q4.30664 1.5625 2.93457 2.93945Q1.5625 4.31641 0.78125 6.11816Q0 7.91992 0 9.96094Q0 12.002 0.78125 13.8037Q1.5625 15.6055 2.93945 16.9824Q4.31641 18.3594 6.11816 19.1406Q7.91992 19.9219 9.96094 19.9219ZM9.96094 18.2617Q8.23242 18.2617 6.72852 17.6172Q5.22461 16.9727 4.08691 15.835Q2.94922 14.6973 2.30957 13.1934Q1.66992 11.6895 1.66992 9.96094Q1.66992 8.23242 2.30957 6.72852Q2.94922 5.22461 4.08203 4.08203Q5.21484 2.93945 6.71875 2.2998Q8.22266 1.66016 9.95117 1.66016Q11.6797 1.66016 13.1885 2.2998Q14.6973 2.93945 15.835 4.08203Q16.9727 5.22461 17.6172 6.72852Q18.2617 8.23242 18.2617 9.96094Q18.2617 11.6895 17.6221 13.1934Q16.9824 14.6973 15.8398 15.835Q14.6973 16.9727 13.1934 17.6172Q11.6895 18.2617 9.96094 18.2617Z" fill="#ffffff"/>
  <path d="M7.25586 14.0527Q7.88086 14.0527 7.88086 13.4277L7.88086 6.51367Q7.88086 6.20117 7.69043 6.00586Q7.5 5.81055 7.1875 5.81055Q6.95312 5.81055 6.77246 5.88867Q6.5918 5.9668 6.33789 6.14258L4.85352 7.1582Q4.52148 7.39258 4.52148 7.73438Q4.52148 7.97852 4.69238 8.14941Q4.86328 8.32031 5.07812 8.32031Q5.19531 8.32031 5.29297 8.2959Q5.39062 8.27148 5.55664 8.13477L6.60156 7.36328L6.66016 7.36328L6.66016 13.4277Q6.66016 14.0527 7.25586 14.0527ZM13.6621 14.1504Q13.9551 14.1504 14.1064 13.9648Q14.2578 13.7793 14.2578 13.4961L14.2578 12.3438L14.7852 12.3438Q15.3418 12.3438 15.3418 11.8066Q15.3418 11.543 15.1904 11.3965Q15.0391 11.25 14.7852 11.25L14.2578 11.25L14.2578 6.67969Q14.2578 6.25977 13.9893 6.00586Q13.7207 5.75195 13.291 5.75195Q12.8711 5.75195 12.5879 5.92285Q12.3047 6.09375 12.0605 6.50391Q11.7578 7.02148 11.4307 7.57812Q11.1035 8.13477 10.7764 8.69141Q10.4492 9.24805 10.1514 9.77051Q9.85352 10.293 9.59961 10.7324Q9.48242 10.957 9.43848 11.1328Q9.39453 11.3086 9.39453 11.5137Q9.39453 11.9043 9.62402 12.124Q9.85352 12.3438 10.2246 12.3438L13.0762 12.3438L13.0762 13.4961Q13.0762 13.7793 13.2227 13.9648Q13.3691 14.1504 13.6621 14.1504ZM13.0762 11.25L10.6641 11.25L10.6641 11.2109Q10.8398 10.8789 11.0547 10.4834Q11.2695 10.0879 11.5186 9.6582Q11.7676 9.22852 12.0264 8.78418Q12.2852 8.33984 12.5391 7.90527Q12.793 7.4707 13.0273 7.07031L13.0762 7.07031Z" fill="#ffffff"/>
 </g>
</svg>
