<?xml version="1.0" encoding="UTF-8"?>
<!--Generator: Apple Native CoreSVG 175.5-->
<!DOCTYPE svg
PUBLIC "-//W3C//DTD SVG 1.1//EN"
       "http://www.w3.org/Graphics/SVG/1.1/DTD/svg11.dtd">
<svg version="1.1" xmlns="http://www.w3.org/2000/svg" xmlns:xlink="http://www.w3.org/1999/xlink" width="19.9219" height="19.9316">
 <g>
  <rect height="19.9316" opacity="0" width="19.9219" x="0" y="0"/>
  <path d="M9.96094 19.9219Q12.002 19.9219 13.8037 19.1406Q15.6055 18.3594 16.9824 16.9824Q18.3594 15.6055 19.1406 13.8037Q19.9219 12.002 19.9219 9.96094Q19.9219 7.91992 19.1406 6.11816Q18.3594 4.31641 16.9824 2.93945Q15.6055 1.5625 13.7988 0.78125Q11.9922 0 9.95117 0Q7.91016 0 6.1084 0.78125Q4.30664 1.5625 2.93457 2.93945Q1.5625 4.31641 0.78125 6.11816Q0 7.91992 0 9.96094Q0 12.002 0.78125 13.8037Q1.5625 15.6055 2.93945 16.9824Q4.31641 18.3594 6.11816 19.1406Q7.91992 19.9219 9.96094 19.9219Z" fill="#ffffff"/>
  <path d="M7.23633 14.1797Q6.95312 14.1797 6.78223 14.0039Q6.61133 13.8281 6.61133 13.5352L6.61133 7.28516L6.55273 7.28516L5.48828 8.07617Q5.3125 8.21289 5.20996 8.24219Q5.10742 8.27148 4.99023 8.27148Q4.77539 8.27148 4.59473 8.0957Q4.41406 7.91992 4.41406 7.66602Q4.41406 7.30469 4.75586 7.07031L6.2793 6.02539Q6.55273 5.83984 6.7334 5.75684Q6.91406 5.67383 7.1582 5.67383Q7.48047 5.67383 7.68066 5.88379Q7.88086 6.09375 7.88086 6.40625L7.88086 13.5352Q7.88086 13.8281 7.70508 14.0039Q7.5293 14.1797 7.23633 14.1797ZM12.4902 14.3066Q11.543 14.3066 10.8496 13.8672Q10.1562 13.4277 9.93164 12.8027Q9.89258 12.7051 9.86816 12.5879Q9.84375 12.4707 9.84375 12.3438Q9.84375 12.0898 10 11.9238Q10.1562 11.7578 10.4199 11.7578Q10.5957 11.7578 10.7373 11.8652Q10.8789 11.9727 10.9961 12.1973Q11.2109 12.6465 11.626 12.9004Q12.041 13.1543 12.5586 13.1543Q13.2812 13.1543 13.7402 12.71Q14.1992 12.2656 14.1992 11.4746Q14.1992 10.7812 13.7842 10.3125Q13.3691 9.84375 12.7148 9.84375Q12.3828 9.84375 12.1143 9.96582Q11.8457 10.0879 11.5332 10.3516Q11.2988 10.5566 11.123 10.625Q10.9473 10.6934 10.7129 10.6934Q10.3613 10.6934 10.166 10.459Q9.9707 10.2246 10 9.82422L10.2441 6.68945Q10.2734 6.28906 10.5176 6.05957Q10.7617 5.83008 11.1621 5.83008L14.6289 5.83008Q14.8438 5.83008 14.9805 5.99121Q15.1172 6.15234 15.1172 6.39648Q15.1172 6.64062 14.9805 6.80176Q14.8438 6.96289 14.6289 6.96289L11.2988 6.96289L11.1035 9.54102L11.1426 9.54102Q11.377 9.19922 11.8555 8.97949Q12.334 8.75977 12.8418 8.75977Q14.0039 8.75977 14.7266 9.52148Q15.4492 10.2832 15.4492 11.4453Q15.4492 12.7734 14.6387 13.54Q13.8281 14.3066 12.4902 14.3066Z" fill="none"/>
 </g>
</svg>
