<?xml version="1.0" encoding="UTF-8"?>
<!--Generator: Apple Native CoreSVG 175.5-->
<!DOCTYPE svg
PUBLIC "-//W3C//DTD SVG 1.1//EN"
       "http://www.w3.org/Graphics/SVG/1.1/DTD/svg11.dtd">
<svg version="1.1" xmlns="http://www.w3.org/2000/svg" xmlns:xlink="http://www.w3.org/1999/xlink" width="17.9785" height="17.998">
 <g>
  <rect height="17.998" opacity="0" width="17.9785" x="0" y="0"/>
  <path d="M3.06641 17.998L14.9121 17.998Q16.4453 17.998 17.2119 17.2412Q17.9785 16.4844 17.9785 14.9707L17.9785 3.04688Q17.9785 1.5332 17.2119 0.776367Q16.4453 0.0195312 14.9121 0.0195312L3.06641 0.0195312Q1.5332 0.0195312 0.766602 0.776367Q0 1.5332 0 3.04688L0 14.9707Q0 16.4844 0.766602 17.2412Q1.5332 17.998 3.06641 17.998Z" fill="#ffffff"/>
  <path d="M6.26953 13.2129Q5.98633 13.2129 5.81543 13.0371Q5.64453 12.8613 5.64453 12.5684L5.64453 6.31836L5.58594 6.31836L4.52148 7.10938Q4.3457 7.24609 4.24316 7.27539Q4.14062 7.30469 4.02344 7.30469Q3.80859 7.30469 3.62793 7.12891Q3.44727 6.95312 3.44727 6.69922Q3.44727 6.33789 3.78906 6.10352L5.3125 5.05859Q5.58594 4.87305 5.7666 4.79004Q5.94727 4.70703 6.19141 4.70703Q6.51367 4.70703 6.71387 4.91699Q6.91406 5.12695 6.91406 5.43945L6.91406 12.5684Q6.91406 12.8613 6.73828 13.0371Q6.5625 13.2129 6.26953 13.2129ZM11.5234 13.3398Q10.5762 13.3398 9.88281 12.9004Q9.18945 12.4609 8.96484 11.8359Q8.92578 11.7383 8.90137 11.6211Q8.87695 11.5039 8.87695 11.377Q8.87695 11.123 9.0332 10.957Q9.18945 10.791 9.45312 10.791Q9.62891 10.791 9.77051 10.8984Q9.91211 11.0059 10.0293 11.2305Q10.2441 11.6797 10.6592 11.9336Q11.0742 12.1875 11.5918 12.1875Q12.3145 12.1875 12.7734 11.7432Q13.2324 11.2988 13.2324 10.5078Q13.2324 9.81445 12.8174 9.3457Q12.4023 8.87695 11.748 8.87695Q11.416 8.87695 11.1475 8.99902Q10.8789 9.12109 10.5664 9.38477Q10.332 9.58984 10.1562 9.6582Q9.98047 9.72656 9.74609 9.72656Q9.39453 9.72656 9.19922 9.49219Q9.00391 9.25781 9.0332 8.85742L9.27734 5.72266Q9.30664 5.32227 9.55078 5.09277Q9.79492 4.86328 10.1953 4.86328L13.6621 4.86328Q13.877 4.86328 14.0137 5.02441Q14.1504 5.18555 14.1504 5.42969Q14.1504 5.67383 14.0137 5.83496Q13.877 5.99609 13.6621 5.99609L10.332 5.99609L10.1367 8.57422L10.1758 8.57422Q10.4102 8.23242 10.8887 8.0127Q11.3672 7.79297 11.875 7.79297Q13.0371 7.79297 13.7598 8.55469Q14.4824 9.31641 14.4824 10.4785Q14.4824 11.8066 13.6719 12.5732Q12.8613 13.3398 11.5234 13.3398Z" fill="none"/>
 </g>
</svg>
