<?xml version="1.0" encoding="UTF-8"?>
<!--Generator: Apple Native CoreSVG 175.5-->
<!DOCTYPE svg
PUBLIC "-//W3C//DTD SVG 1.1//EN"
       "http://www.w3.org/Graphics/SVG/1.1/DTD/svg11.dtd">
<svg version="1.1" xmlns="http://www.w3.org/2000/svg" xmlns:xlink="http://www.w3.org/1999/xlink" width="17.9785" height="17.998">
 <g>
  <rect height="17.998" opacity="0" width="17.9785" x="0" y="0"/>
  <path d="M3.06641 17.998L14.9121 17.998Q16.4453 17.998 17.2119 17.2412Q17.9785 16.4844 17.9785 14.9707L17.9785 3.04688Q17.9785 1.5332 17.2119 0.776367Q16.4453 0.0195312 14.9121 0.0195312L3.06641 0.0195312Q1.5332 0.0195312 0.766602 0.776367Q0 1.5332 0 3.04688L0 14.9707Q0 16.4844 0.766602 17.2412Q1.5332 17.998 3.06641 17.998Z" fill="#ffffff"/>
  <path d="M5.98633 13.2129Q5.70312 13.2129 5.53223 13.0371Q5.36133 12.8613 5.36133 12.5684L5.36133 6.31836L5.30273 6.31836L4.23828 7.10938Q4.0625 7.24609 3.95996 7.27539Q3.85742 7.30469 3.74023 7.30469Q3.52539 7.30469 3.34473 7.12891Q3.16406 6.95312 3.16406 6.69922Q3.16406 6.33789 3.50586 6.10352L5.0293 5.05859Q5.29297 4.87305 5.47852 4.79492Q5.66406 4.7168 5.9082 4.7168Q6.23047 4.7168 6.43066 4.92188Q6.63086 5.12695 6.63086 5.43945L6.63086 12.5684Q6.63086 12.8613 6.45508 13.0371Q6.2793 13.2129 5.98633 13.2129ZM11.4941 13.3496Q10.7324 13.3496 10.1025 13.0322Q9.47266 12.7148 9.08203 11.9824Q8.82812 11.5137 8.68652 10.8301Q8.54492 10.1465 8.54492 9.22852Q8.54492 6.92383 9.38477 5.78613Q10.2246 4.64844 11.6797 4.64844Q12.2559 4.64844 12.7051 4.82422Q13.1543 5 13.457 5.29297Q13.7598 5.58594 13.8965 5.91797Q13.9648 6.11328 13.9648 6.30859Q13.9648 6.5625 13.8232 6.71387Q13.6816 6.86523 13.4766 6.86523Q13.2715 6.86523 13.1348 6.77246Q12.998 6.67969 12.8613 6.48438Q12.6758 6.19141 12.373 6.00586Q12.0703 5.82031 11.6309 5.82031Q10.7812 5.82031 10.2588 6.65039Q9.73633 7.48047 9.73633 8.90625Q9.73633 8.93555 9.73633 8.95996Q9.73633 8.98438 9.73633 9.00391L9.80469 9.00391Q9.99023 8.50586 10.4932 8.12012Q10.9961 7.73438 11.7969 7.73438Q12.7832 7.73438 13.5352 8.42773Q14.2871 9.12109 14.2871 10.4199Q14.2871 11.8066 13.501 12.5781Q12.7148 13.3496 11.4941 13.3496ZM11.4258 12.2363Q12.1582 12.2363 12.5879 11.7578Q13.0176 11.2793 13.0176 10.4785Q13.0176 9.72656 12.5781 9.25293Q12.1387 8.7793 11.4258 8.7793Q10.7324 8.7793 10.2881 9.25293Q9.84375 9.72656 9.84375 10.4688Q9.84375 11.25 10.2881 11.7432Q10.7324 12.2363 11.4258 12.2363Z" fill="none"/>
 </g>
</svg>
