<?xml version="1.0" encoding="UTF-8"?>
<!--Generator: Apple Native CoreSVG 175.5-->
<!DOCTYPE svg
PUBLIC "-//W3C//DTD SVG 1.1//EN"
       "http://www.w3.org/Graphics/SVG/1.1/DTD/svg11.dtd">
<svg version="1.1" xmlns="http://www.w3.org/2000/svg" xmlns:xlink="http://www.w3.org/1999/xlink" width="19.9219" height="19.9316">
 <g>
  <rect height="19.9316" opacity="0" width="19.9219" x="0" y="0"/>
  <path d="M9.96094 19.9219Q12.002 19.9219 13.8037 19.1406Q15.6055 18.3594 16.9824 16.9824Q18.3594 15.6055 19.1406 13.8037Q19.9219 12.002 19.9219 9.96094Q19.9219 7.91992 19.1406 6.11816Q18.3594 4.31641 16.9824 2.93945Q15.6055 1.5625 13.7988 0.78125Q11.9922 0 9.95117 0Q7.91016 0 6.1084 0.78125Q4.30664 1.5625 2.93457 2.93945Q1.5625 4.31641 0.78125 6.11816Q0 7.91992 0 9.96094Q0 12.002 0.78125 13.8037Q1.5625 15.6055 2.93945 16.9824Q4.31641 18.3594 6.11816 19.1406Q7.91992 19.9219 9.96094 19.9219ZM9.96094 18.2617Q8.23242 18.2617 6.72852 17.6172Q5.22461 16.9727 4.08691 15.835Q2.94922 14.6973 2.30957 13.1934Q1.66992 11.6895 1.66992 9.96094Q1.66992 8.23242 2.30957 6.72852Q2.94922 5.22461 4.08203 4.08203Q5.21484 2.93945 6.71875 2.2998Q8.22266 1.66016 9.95117 1.66016Q11.6797 1.66016 13.1885 2.2998Q14.6973 2.93945 15.835 4.08203Q16.9727 5.22461 17.6172 6.72852Q18.2617 8.23242 18.2617 9.96094Q18.2617 11.6895 17.6221 13.1934Q16.9824 14.6973 15.8398 15.835Q14.6973 16.9727 13.1934 17.6172Q11.6895 18.2617 9.96094 18.2617Z" fill="#ffffff"/>
  <path d="M7.1582 14.0527Q7.7832 14.0527 7.7832 13.4277L7.7832 6.51367Q7.7832 6.20117 7.59277 6.00586Q7.40234 5.81055 7.08984 5.81055Q6.85547 5.81055 6.6748 5.88867Q6.49414 5.9668 6.24023 6.14258L4.75586 7.1582Q4.42383 7.39258 4.42383 7.73438Q4.42383 7.97852 4.59473 8.14941Q4.76562 8.32031 4.98047 8.32031Q5.09766 8.32031 5.19531 8.2959Q5.29297 8.27148 5.45898 8.13477L6.50391 7.36328L6.5625 7.36328L6.5625 13.4277Q6.5625 14.0527 7.1582 14.0527ZM12.4609 14.1699Q13.7402 14.1699 14.5312 13.5059Q15.3223 12.8418 15.3223 11.7773Q15.3223 11.0254 14.8877 10.4688Q14.4531 9.91211 13.6621 9.75586L13.6621 9.69727Q14.3359 9.52148 14.6875 9.02832Q15.0391 8.53516 15.0391 7.90039Q15.0391 6.94336 14.3213 6.34766Q13.6035 5.75195 12.4805 5.75195Q11.3574 5.75195 10.6445 6.34766Q9.93164 6.94336 9.93164 7.90039Q9.93164 8.53516 10.2783 9.01855Q10.625 9.50195 11.3086 9.69727L11.3086 9.75586Q10.5078 9.91211 10.0781 10.4736Q9.64844 11.0352 9.64844 11.7871Q9.64844 12.8516 10.4248 13.5107Q11.2012 14.1699 12.4609 14.1699ZM12.4902 13.1543Q11.7969 13.1543 11.3428 12.749Q10.8887 12.3438 10.8887 11.6992Q10.8887 11.0645 11.3428 10.6543Q11.7969 10.2441 12.4902 10.2441Q13.2031 10.2441 13.6475 10.6543Q14.0918 11.0645 14.0918 11.6992Q14.0918 12.3438 13.6377 12.749Q13.1836 13.1543 12.4902 13.1543ZM12.4805 9.30664Q11.9141 9.30664 11.5479 8.94043Q11.1816 8.57422 11.1816 8.01758Q11.1816 7.46094 11.5479 7.11426Q11.9141 6.76758 12.4805 6.76758Q13.0566 6.76758 13.4229 7.11426Q13.7891 7.46094 13.7891 8.01758Q13.7891 8.57422 13.4229 8.94043Q13.0566 9.30664 12.4805 9.30664Z" fill="#ffffff"/>
 </g>
</svg>
