<?xml version="1.0" encoding="UTF-8"?>
<!--Generator: Apple Native CoreSVG 175.5-->
<!DOCTYPE svg
PUBLIC "-//W3C//DTD SVG 1.1//EN"
       "http://www.w3.org/Graphics/SVG/1.1/DTD/svg11.dtd">
<svg version="1.1" xmlns="http://www.w3.org/2000/svg" xmlns:xlink="http://www.w3.org/1999/xlink" width="17.9785" height="17.998">
 <g>
  <rect height="17.998" opacity="0" width="17.9785" x="0" y="0"/>
  <path d="M3.06641 17.998L14.9121 17.998Q16.4453 17.998 17.2119 17.2412Q17.9785 16.4844 17.9785 14.9707L17.9785 3.04688Q17.9785 1.5332 17.2119 0.776367Q16.4453 0.0195312 14.9121 0.0195312L3.06641 0.0195312Q1.5332 0.0195312 0.766602 0.776367Q0 1.5332 0 3.04688L0 14.9707Q0 16.4844 0.766602 17.2412Q1.5332 17.998 3.06641 17.998Z" fill="#ffffff"/>
  <path d="M6.11328 13.2129Q5.83984 13.2129 5.66895 13.0371Q5.49805 12.8613 5.49805 12.5684L5.49805 6.31836L5.43945 6.31836L4.36523 7.10938Q4.18945 7.24609 4.0918 7.27539Q3.99414 7.30469 3.86719 7.30469Q3.65234 7.30469 3.47168 7.12891Q3.29102 6.95312 3.29102 6.69922Q3.29102 6.34766 3.64258 6.10352L5.16602 5.05859Q5.42969 4.87305 5.61523 4.79492Q5.80078 4.7168 6.04492 4.7168Q6.36719 4.7168 6.56738 4.92188Q6.76758 5.12695 6.76758 5.43945L6.76758 12.5684Q6.76758 12.8613 6.5918 13.0371Q6.41602 13.2129 6.11328 13.2129ZM11.582 13.3398Q10.2832 13.3398 9.48242 12.6611Q8.68164 11.9824 8.68164 10.8789Q8.68164 10.1074 9.12598 9.52637Q9.57031 8.94531 10.4004 8.7793L10.4004 8.7207Q9.69727 8.51562 9.33594 8.02246Q8.97461 7.5293 8.97461 6.86523Q8.97461 5.87891 9.71191 5.26367Q10.4492 4.64844 11.6016 4.64844Q12.7637 4.64844 13.5059 5.26367Q14.248 5.87891 14.248 6.86523Q14.248 7.5293 13.8818 8.03223Q13.5156 8.53516 12.8223 8.7207L12.8223 8.7793Q13.6426 8.94531 14.0918 9.52148Q14.541 10.0977 14.541 10.8691Q14.541 11.9727 13.7207 12.6562Q12.9004 13.3398 11.582 13.3398ZM11.6113 12.2852Q12.3242 12.2852 12.793 11.8701Q13.2617 11.4551 13.2617 10.791Q13.2617 10.127 12.8027 9.70703Q12.3438 9.28711 11.6113 9.28711Q10.8984 9.28711 10.4346 9.71191Q9.9707 10.1367 9.9707 10.791Q9.9707 11.4551 10.4346 11.8701Q10.8984 12.2852 11.6113 12.2852ZM11.6016 8.32031Q12.1973 8.32031 12.5732 7.94434Q12.9492 7.56836 12.9492 6.99219Q12.9492 6.42578 12.5732 6.06445Q12.1973 5.70312 11.6016 5.70312Q11.0156 5.70312 10.6445 6.06445Q10.2734 6.42578 10.2734 6.99219Q10.2734 7.56836 10.6445 7.94434Q11.0156 8.32031 11.6016 8.32031Z" fill="none"/>
 </g>
</svg>
