<?xml version="1.0" encoding="UTF-8"?>
<!--Generator: Apple Native CoreSVG 175.5-->
<!DOCTYPE svg
PUBLIC "-//W3C//DTD SVG 1.1//EN"
       "http://www.w3.org/Graphics/SVG/1.1/DTD/svg11.dtd">
<svg version="1.1" xmlns="http://www.w3.org/2000/svg" xmlns:xlink="http://www.w3.org/1999/xlink" width="19.9219" height="19.9316">
 <g>
  <rect height="19.9316" opacity="0" width="19.9219" x="0" y="0"/>
  <path d="M9.96094 19.9219Q12.002 19.9219 13.8037 19.1406Q15.6055 18.3594 16.9824 16.9824Q18.3594 15.6055 19.1406 13.8037Q19.9219 12.002 19.9219 9.96094Q19.9219 7.91992 19.1406 6.11816Q18.3594 4.31641 16.9824 2.93945Q15.6055 1.5625 13.7988 0.78125Q11.9922 0 9.95117 0Q7.91016 0 6.1084 0.78125Q4.30664 1.5625 2.93457 2.93945Q1.5625 4.31641 0.78125 6.11816Q0 7.91992 0 9.96094Q0 12.002 0.78125 13.8037Q1.5625 15.6055 2.93945 16.9824Q4.31641 18.3594 6.11816 19.1406Q7.91992 19.9219 9.96094 19.9219Z" fill="#ffffff"/>
  <path d="M6.92383 14.1797Q6.65039 14.1797 6.47949 14.0039Q6.30859 13.8281 6.30859 13.5352L6.30859 7.28516L6.25 7.28516L5.17578 8.07617Q5 8.21289 4.90234 8.24219Q4.80469 8.27148 4.67773 8.27148Q4.46289 8.27148 4.28223 8.0957Q4.10156 7.91992 4.10156 7.66602Q4.10156 7.31445 4.44336 7.07031L5.97656 6.02539Q6.24023 5.83984 6.42578 5.76172Q6.61133 5.68359 6.85547 5.68359Q7.16797 5.68359 7.36816 5.88867Q7.56836 6.09375 7.56836 6.40625L7.56836 13.5352Q7.56836 14.1797 6.92383 14.1797ZM12.4414 14.3066Q11.4062 14.3066 10.8008 13.8428Q10.1953 13.3789 10.0781 12.959Q10.0488 12.8711 10.0244 12.7734Q10 12.6758 10 12.5977Q10 12.334 10.1465 12.168Q10.293 12.002 10.5273 12.002Q10.9277 12.002 11.1523 12.3926Q11.3281 12.7246 11.665 12.9297Q12.002 13.1348 12.4316 13.1348Q13.0078 13.1348 13.4424 12.7539Q13.877 12.373 14.1113 11.6602Q14.3457 10.9473 14.3359 9.95117L14.2676 9.95117Q14.0723 10.459 13.5742 10.8447Q13.0762 11.2305 12.2461 11.2305Q11.5918 11.2305 11.0254 10.9131Q10.459 10.5957 10.1074 9.99512Q9.75586 9.39453 9.75586 8.53516Q9.75586 7.20703 10.5225 6.41113Q11.2891 5.61523 12.5586 5.61523Q13.9746 5.61523 14.7559 6.65527Q15.5371 7.69531 15.5371 9.67773Q15.5371 11.9531 14.7461 13.1299Q13.9551 14.3066 12.4414 14.3066ZM12.6367 10.1855Q13.3398 10.1855 13.7793 9.70703Q14.2188 9.22852 14.2188 8.48633Q14.2188 7.70508 13.7744 7.21191Q13.3301 6.71875 12.6367 6.71875Q11.9141 6.71875 11.4746 7.19727Q11.0352 7.67578 11.0352 8.4668Q11.0352 9.21875 11.4746 9.70215Q11.9141 10.1855 12.6367 10.1855Z" fill="none"/>
 </g>
</svg>
