<?xml version="1.0" encoding="UTF-8"?>
<!--Generator: Apple Native CoreSVG 175.5-->
<!DOCTYPE svg
PUBLIC "-//W3C//DTD SVG 1.1//EN"
       "http://www.w3.org/Graphics/SVG/1.1/DTD/svg11.dtd">
<svg version="1.1" xmlns="http://www.w3.org/2000/svg" xmlns:xlink="http://www.w3.org/1999/xlink" width="19.9219" height="19.9316">
 <g>
  <rect height="19.9316" opacity="0" width="19.9219" x="0" y="0"/>
  <path d="M9.96094 19.9219Q12.002 19.9219 13.8037 19.1406Q15.6055 18.3594 16.9824 16.9824Q18.3594 15.6055 19.1406 13.8037Q19.9219 12.002 19.9219 9.96094Q19.9219 7.91992 19.1406 6.11816Q18.3594 4.31641 16.9824 2.93945Q15.6055 1.5625 13.7988 0.78125Q11.9922 0 9.95117 0Q7.91016 0 6.1084 0.78125Q4.30664 1.5625 2.93457 2.93945Q1.5625 4.31641 0.78125 6.11816Q0 7.91992 0 9.96094Q0 12.002 0.78125 13.8037Q1.5625 15.6055 2.93945 16.9824Q4.31641 18.3594 6.11816 19.1406Q7.91992 19.9219 9.96094 19.9219Z" fill="#ffffff"/>
  <path d="M5.42969 14.0723Q5.16602 14.0723 5.00488 13.9062Q4.84375 13.7402 4.84375 13.4766Q4.84375 13.3203 4.89258 13.1885Q4.94141 13.0566 5.05859 12.9297L7.71484 9.81445Q8.07617 9.38477 8.39844 8.95508Q8.7207 8.52539 8.7207 8.02734Q8.7207 7.4707 8.35938 7.12891Q7.99805 6.78711 7.38281 6.78711Q6.8457 6.78711 6.47461 7.06543Q6.10352 7.34375 5.9082 7.91016Q5.81055 8.13477 5.67871 8.25684Q5.54688 8.37891 5.33203 8.37891Q5.06836 8.37891 4.91699 8.21777Q4.76562 8.05664 4.76562 7.77344Q4.76562 7.68555 4.78027 7.59766Q4.79492 7.50977 4.81445 7.41211Q5.00977 6.64062 5.72266 6.13281Q6.43555 5.625 7.33398 5.625Q8.52539 5.625 9.2334 6.24512Q9.94141 6.86523 9.94141 7.91992Q9.94141 8.67188 9.5752 9.26758Q9.20898 9.86328 8.64258 10.5176L6.67969 12.8125L6.67969 12.8809L9.59961 12.8809Q9.83398 12.8809 9.99512 13.0371Q10.1562 13.1934 10.1562 13.4668Q10.1562 13.7402 9.99512 13.9062Q9.83398 14.0723 9.59961 14.0723ZM14.209 14.1797Q13.5742 14.1797 13.5742 13.5352L13.5742 7.29492L13.5156 7.29492L12.4414 8.08594Q12.2754 8.22266 12.1777 8.24707Q12.0801 8.27148 11.9629 8.27148Q11.7383 8.27148 11.5576 8.0957Q11.377 7.91992 11.377 7.66602Q11.377 7.31445 11.7188 7.07031L13.2422 6.02539Q13.5059 5.83984 13.6963 5.76172Q13.8867 5.68359 14.1309 5.68359Q14.4434 5.68359 14.6436 5.88867Q14.8438 6.09375 14.8438 6.40625L14.8438 13.5352Q14.8438 14.1797 14.209 14.1797Z" fill="none"/>
 </g>
</svg>
