<?xml version="1.0" encoding="UTF-8"?>
<!--Generator: Apple Native CoreSVG 175.5-->
<!DOCTYPE svg
PUBLIC "-//W3C//DTD SVG 1.1//EN"
       "http://www.w3.org/Graphics/SVG/1.1/DTD/svg11.dtd">
<svg version="1.1" xmlns="http://www.w3.org/2000/svg" xmlns:xlink="http://www.w3.org/1999/xlink" width="19.9219" height="19.9316">
 <g>
  <rect height="19.9316" opacity="0" width="19.9219" x="0" y="0"/>
  <path d="M9.96094 19.9219Q12.002 19.9219 13.8037 19.1406Q15.6055 18.3594 16.9824 16.9824Q18.3594 15.6055 19.1406 13.8037Q19.9219 12.002 19.9219 9.96094Q19.9219 7.91992 19.1406 6.11816Q18.3594 4.31641 16.9824 2.93945Q15.6055 1.5625 13.7988 0.78125Q11.9922 0 9.95117 0Q7.91016 0 6.1084 0.78125Q4.30664 1.5625 2.93457 2.93945Q1.5625 4.31641 0.78125 6.11816Q0 7.91992 0 9.96094Q0 12.002 0.78125 13.8037Q1.5625 15.6055 2.93945 16.9824Q4.31641 18.3594 6.11816 19.1406Q7.91992 19.9219 9.96094 19.9219Z" fill="#ffffff"/>
  <path d="M4.79492 14.0723Q4.53125 14.0723 4.37012 13.9062Q4.20898 13.7402 4.20898 13.4766Q4.20898 13.1738 4.42383 12.9297L7.08008 9.81445Q7.44141 9.38477 7.76367 8.95508Q8.08594 8.52539 8.08594 8.02734Q8.08594 7.4707 7.72461 7.12891Q7.36328 6.78711 6.74805 6.78711Q6.21094 6.78711 5.83984 7.06543Q5.46875 7.34375 5.27344 7.91016Q5.17578 8.13477 5.04395 8.26172Q4.91211 8.38867 4.69727 8.38867Q4.43359 8.38867 4.28223 8.22266Q4.13086 8.05664 4.13086 7.77344Q4.13086 7.68555 4.14551 7.59766Q4.16016 7.50977 4.17969 7.41211Q4.375 6.64062 5.08789 6.13281Q5.80078 5.625 6.69922 5.625Q7.89062 5.625 8.59863 6.25Q9.30664 6.875 9.30664 7.91992Q9.30664 8.67188 8.94043 9.27246Q8.57422 9.87305 8.00781 10.5176L6.04492 12.8125L6.04492 12.8809L8.96484 12.8809Q9.19922 12.8809 9.36035 13.0371Q9.52148 13.1934 9.52148 13.4668Q9.52148 13.7402 9.36035 13.9062Q9.19922 14.0723 8.96484 14.0723ZM11.4844 14.0723Q11.2109 14.0723 11.0498 13.9062Q10.8887 13.7402 10.8887 13.4766Q10.8887 13.3203 10.9424 13.1885Q10.9961 13.0566 11.1133 12.9297L13.7695 9.81445Q14.1211 9.38477 14.4482 8.95508Q14.7754 8.52539 14.7754 8.02734Q14.7754 7.4707 14.4092 7.12891Q14.043 6.78711 13.4375 6.78711Q12.9004 6.78711 12.5244 7.06543Q12.1484 7.34375 11.9629 7.91016Q11.8555 8.13477 11.7285 8.26172Q11.6016 8.38867 11.3867 8.38867Q11.123 8.38867 10.9717 8.22266Q10.8203 8.05664 10.8203 7.77344Q10.8203 7.68555 10.835 7.59766Q10.8496 7.50977 10.8594 7.41211Q11.0547 6.64062 11.7725 6.13281Q12.4902 5.625 13.3887 5.625Q14.5801 5.625 15.2881 6.25Q15.9961 6.875 15.9961 7.91992Q15.9961 8.67188 15.625 9.27246Q15.2539 9.87305 14.6973 10.5176L12.7344 12.8125L12.7344 12.8809L15.6543 12.8809Q15.8887 12.8809 16.0498 13.0371Q16.2109 13.1934 16.2109 13.4668Q16.2109 13.7402 16.0498 13.9062Q15.8887 14.0723 15.6543 14.0723Z" fill="none"/>
 </g>
</svg>
