<?xml version="1.0" encoding="UTF-8"?>
<!--Generator: Apple Native CoreSVG 175.5-->
<!DOCTYPE svg
PUBLIC "-//W3C//DTD SVG 1.1//EN"
       "http://www.w3.org/Graphics/SVG/1.1/DTD/svg11.dtd">
<svg version="1.1" xmlns="http://www.w3.org/2000/svg" xmlns:xlink="http://www.w3.org/1999/xlink" width="17.9785" height="17.998">
 <g>
  <rect height="17.998" opacity="0" width="17.9785" x="0" y="0"/>
  <path d="M3.06641 17.998L14.9121 17.998Q16.4453 17.998 17.2119 17.2412Q17.9785 16.4844 17.9785 14.9707L17.9785 3.04688Q17.9785 1.5332 17.2119 0.776367Q16.4453 0.0195312 14.9121 0.0195312L3.06641 0.0195312Q1.5332 0.0195312 0.766602 0.776367Q0 1.5332 0 3.04688L0 14.9707Q0 16.4844 0.766602 17.2412Q1.5332 17.998 3.06641 17.998Z" fill="#ffffff"/>
  <path d="M3.82812 13.1055Q3.56445 13.1055 3.40332 12.9395Q3.24219 12.7734 3.24219 12.5098Q3.24219 12.207 3.45703 11.9629L6.11328 8.84766Q6.47461 8.41797 6.79688 7.98828Q7.11914 7.55859 7.11914 7.06055Q7.11914 6.50391 6.75781 6.16211Q6.39648 5.82031 5.78125 5.82031Q5.24414 5.82031 4.87305 6.09863Q4.50195 6.37695 4.30664 6.94336Q4.20898 7.16797 4.07715 7.29492Q3.94531 7.42188 3.73047 7.42188Q3.4668 7.42188 3.31543 7.25586Q3.16406 7.08984 3.16406 6.80664Q3.16406 6.71875 3.17871 6.63086Q3.19336 6.54297 3.21289 6.44531Q3.4082 5.67383 4.12109 5.16602Q4.83398 4.6582 5.73242 4.6582Q6.92383 4.6582 7.63184 5.2832Q8.33984 5.9082 8.33984 6.95312Q8.33984 7.70508 7.97363 8.30566Q7.60742 8.90625 7.04102 9.55078L5.07812 11.8457L5.07812 11.9141L7.99805 11.9141Q8.23242 11.9141 8.39355 12.0703Q8.55469 12.2266 8.55469 12.5Q8.55469 12.7734 8.39355 12.9395Q8.23242 13.1055 7.99805 13.1055ZM10.5176 13.1055Q10.2441 13.1055 10.083 12.9395Q9.92188 12.7734 9.92188 12.5098Q9.92188 12.3535 9.97559 12.2217Q10.0293 12.0898 10.1465 11.9629L12.8027 8.84766Q13.1543 8.41797 13.4814 7.98828Q13.8086 7.55859 13.8086 7.06055Q13.8086 6.50391 13.4424 6.16211Q13.0762 5.82031 12.4707 5.82031Q11.9336 5.82031 11.5576 6.09863Q11.1816 6.37695 10.9961 6.94336Q10.8887 7.16797 10.7617 7.29492Q10.6348 7.42188 10.4199 7.42188Q10.1562 7.42188 10.0049 7.25586Q9.85352 7.08984 9.85352 6.80664Q9.85352 6.71875 9.86816 6.63086Q9.88281 6.54297 9.89258 6.44531Q10.0879 5.67383 10.8057 5.16602Q11.5234 4.6582 12.4219 4.6582Q13.6133 4.6582 14.3213 5.2832Q15.0293 5.9082 15.0293 6.95312Q15.0293 7.70508 14.6582 8.30566Q14.2871 8.90625 13.7305 9.55078L11.7676 11.8457L11.7676 11.9141L14.6875 11.9141Q14.9219 11.9141 15.083 12.0703Q15.2441 12.2266 15.2441 12.5Q15.2441 12.7734 15.083 12.9395Q14.9219 13.1055 14.6875 13.1055Z" fill="none"/>
 </g>
</svg>
