<?xml version="1.0" encoding="UTF-8"?>
<!--Generator: Apple Native CoreSVG 175.5-->
<!DOCTYPE svg
PUBLIC "-//W3C//DTD SVG 1.1//EN"
       "http://www.w3.org/Graphics/SVG/1.1/DTD/svg11.dtd">
<svg version="1.1" xmlns="http://www.w3.org/2000/svg" xmlns:xlink="http://www.w3.org/1999/xlink" width="19.9219" height="19.9316">
 <g>
  <rect height="19.9316" opacity="0" width="19.9219" x="0" y="0"/>
  <path d="M9.96094 19.9219Q12.002 19.9219 13.8037 19.1406Q15.6055 18.3594 16.9824 16.9824Q18.3594 15.6055 19.1406 13.8037Q19.9219 12.002 19.9219 9.96094Q19.9219 7.91992 19.1406 6.11816Q18.3594 4.31641 16.9824 2.93945Q15.6055 1.5625 13.7988 0.78125Q11.9922 0 9.95117 0Q7.91016 0 6.1084 0.78125Q4.30664 1.5625 2.93457 2.93945Q1.5625 4.31641 0.78125 6.11816Q0 7.91992 0 9.96094Q0 12.002 0.78125 13.8037Q1.5625 15.6055 2.93945 16.9824Q4.31641 18.3594 6.11816 19.1406Q7.91992 19.9219 9.96094 19.9219Z" fill="#ffffff"/>
  <path d="M4.90234 14.0723Q4.63867 14.0723 4.47754 13.9062Q4.31641 13.7402 4.31641 13.4766Q4.31641 13.1836 4.53125 12.9297L7.1875 9.81445Q7.54883 9.38477 7.87109 8.95508Q8.19336 8.52539 8.19336 8.02734Q8.19336 7.4707 7.83203 7.12891Q7.4707 6.78711 6.85547 6.78711Q6.32812 6.78711 5.95215 7.06543Q5.57617 7.34375 5.38086 7.91016Q5.2832 8.13477 5.15137 8.25684Q5.01953 8.37891 4.80469 8.37891Q4.54102 8.37891 4.38965 8.21777Q4.23828 8.05664 4.23828 7.77344Q4.23828 7.68555 4.25293 7.59766Q4.26758 7.50977 4.28711 7.41211Q4.48242 6.64062 5.2002 6.13281Q5.91797 5.625 6.80664 5.625Q7.99805 5.625 8.71094 6.24512Q9.42383 6.86523 9.42383 7.91992Q9.42383 8.67188 9.05273 9.26758Q8.68164 9.86328 8.125 10.5176L6.15234 12.8027L6.15234 12.8809L9.07227 12.8809Q9.30664 12.8809 9.46777 13.0322Q9.62891 13.1836 9.62891 13.4668Q9.62891 13.7402 9.46777 13.9062Q9.30664 14.0723 9.07227 14.0723ZM12.2266 14.1895Q11.9434 14.1895 11.748 14.0039Q11.5527 13.8184 11.5527 13.5352Q11.5527 13.2715 11.6602 13.0664L14.7852 7.04102L14.7852 6.95312L11.25 6.95312Q10.9863 6.95312 10.8252 6.80176Q10.6641 6.65039 10.6641 6.39648Q10.6641 6.13281 10.8252 5.97656Q10.9863 5.82031 11.25 5.82031L15.3125 5.82031Q15.7227 5.82031 15.9668 6.0791Q16.2109 6.33789 16.2109 6.69922Q16.2109 6.85547 16.1719 7.0166Q16.1328 7.17773 16.0156 7.42188L12.8809 13.7012Q12.7441 13.9648 12.5879 14.0771Q12.4316 14.1895 12.2266 14.1895Z" fill="none"/>
 </g>
</svg>
