<?xml version="1.0" encoding="UTF-8"?>
<!--Generator: Apple Native CoreSVG 175.5-->
<!DOCTYPE svg
PUBLIC "-//W3C//DTD SVG 1.1//EN"
       "http://www.w3.org/Graphics/SVG/1.1/DTD/svg11.dtd">
<svg version="1.1" xmlns="http://www.w3.org/2000/svg" xmlns:xlink="http://www.w3.org/1999/xlink" width="17.9785" height="17.998">
 <g>
  <rect height="17.998" opacity="0" width="17.9785" x="0" y="0"/>
  <path d="M3.06641 17.998L14.9121 17.998Q16.4453 17.998 17.2119 17.2412Q17.9785 16.4844 17.9785 14.9707L17.9785 3.04688Q17.9785 1.5332 17.2119 0.776367Q16.4453 0.0195312 14.9121 0.0195312L3.06641 0.0195312Q1.5332 0.0195312 0.766602 0.776367Q0 1.5332 0 3.04688L0 14.9707Q0 16.4844 0.766602 17.2412Q1.5332 17.998 3.06641 17.998Z" fill="#ffffff"/>
  <path d="M3.93555 13.1055Q3.67188 13.1055 3.51074 12.9395Q3.34961 12.7734 3.34961 12.5098Q3.34961 12.2168 3.56445 11.9629L6.2207 8.84766Q6.58203 8.41797 6.9043 7.98828Q7.22656 7.55859 7.22656 7.06055Q7.22656 6.50391 6.86523 6.16211Q6.50391 5.82031 5.88867 5.82031Q5.36133 5.82031 4.98535 6.09863Q4.60938 6.37695 4.41406 6.94336Q4.31641 7.16797 4.18457 7.29004Q4.05273 7.41211 3.83789 7.41211Q3.57422 7.41211 3.42285 7.25098Q3.27148 7.08984 3.27148 6.80664Q3.27148 6.71875 3.28613 6.63086Q3.30078 6.54297 3.32031 6.44531Q3.51562 5.67383 4.2334 5.16602Q4.95117 4.6582 5.83984 4.6582Q7.03125 4.6582 7.74414 5.27832Q8.45703 5.89844 8.45703 6.95312Q8.45703 7.70508 8.08594 8.30078Q7.71484 8.89648 7.1582 9.55078L5.18555 11.8359L5.18555 11.9141L8.10547 11.9141Q8.33984 11.9141 8.50098 12.0654Q8.66211 12.2168 8.66211 12.5Q8.66211 12.7734 8.50098 12.9395Q8.33984 13.1055 8.10547 13.1055ZM11.2598 13.2227Q10.9766 13.2227 10.7812 13.0371Q10.5859 12.8516 10.5859 12.5684Q10.5859 12.3047 10.6934 12.0996L13.8184 6.07422L13.8184 5.98633L10.2832 5.98633Q10.0195 5.98633 9.8584 5.83496Q9.69727 5.68359 9.69727 5.42969Q9.69727 5.16602 9.8584 5.00977Q10.0195 4.85352 10.2832 4.85352L14.3457 4.85352Q14.7559 4.85352 15 5.1123Q15.2441 5.37109 15.2441 5.73242Q15.2441 5.88867 15.2051 6.0498Q15.166 6.21094 15.0488 6.45508L11.9141 12.7344Q11.7773 12.998 11.6211 13.1104Q11.4648 13.2227 11.2598 13.2227Z" fill="none"/>
 </g>
</svg>
