<?xml version="1.0" encoding="UTF-8"?>
<!--Generator: Apple Native CoreSVG 175.5-->
<!DOCTYPE svg
PUBLIC "-//W3C//DTD SVG 1.1//EN"
       "http://www.w3.org/Graphics/SVG/1.1/DTD/svg11.dtd">
<svg version="1.1" xmlns="http://www.w3.org/2000/svg" xmlns:xlink="http://www.w3.org/1999/xlink" width="19.9219" height="19.9316">
 <g>
  <rect height="19.9316" opacity="0" width="19.9219" x="0" y="0"/>
  <path d="M9.96094 19.9219Q12.002 19.9219 13.8037 19.1406Q15.6055 18.3594 16.9824 16.9824Q18.3594 15.6055 19.1406 13.8037Q19.9219 12.002 19.9219 9.96094Q19.9219 7.91992 19.1406 6.11816Q18.3594 4.31641 16.9824 2.93945Q15.6055 1.5625 13.7988 0.78125Q11.9922 0 9.95117 0Q7.91016 0 6.1084 0.78125Q4.30664 1.5625 2.93457 2.93945Q1.5625 4.31641 0.78125 6.11816Q0 7.91992 0 9.96094Q0 12.002 0.78125 13.8037Q1.5625 15.6055 2.93945 16.9824Q4.31641 18.3594 6.11816 19.1406Q7.91992 19.9219 9.96094 19.9219Z" fill="#ffffff"/>
  <path d="M4.72656 14.0723Q4.46289 14.0723 4.30176 13.9062Q4.14062 13.7402 4.14062 13.4766Q4.14062 13.3203 4.18945 13.1885Q4.23828 13.0566 4.35547 12.9297L7.01172 9.80469Q7.37305 9.38477 7.69531 8.95508Q8.01758 8.52539 8.01758 8.02734Q8.01758 7.4707 7.65137 7.12891Q7.28516 6.78711 6.67969 6.78711Q6.14258 6.78711 5.77148 7.06543Q5.40039 7.34375 5.20508 7.91016Q5.09766 8.13477 4.9707 8.25684Q4.84375 8.37891 4.62891 8.37891Q4.36523 8.37891 4.21387 8.21289Q4.0625 8.04688 4.0625 7.77344Q4.0625 7.68555 4.07715 7.59766Q4.0918 7.50977 4.11133 7.41211Q4.30664 6.64062 5.01953 6.12793Q5.73242 5.61523 6.63086 5.61523Q7.82227 5.61523 8.53027 6.24023Q9.23828 6.86523 9.23828 7.91992Q9.23828 8.67188 8.86719 9.26758Q8.49609 9.86328 7.93945 10.5176L5.97656 12.8027L5.97656 12.8809L8.89648 12.8809Q9.13086 12.8809 9.29199 13.0322Q9.45312 13.1836 9.45312 13.4668Q9.45312 13.7402 9.29199 13.9062Q9.13086 14.0723 8.89648 14.0723ZM13.252 14.3066Q12.207 14.3066 11.6016 13.8428Q10.9961 13.3789 10.8789 12.959Q10.8496 12.8711 10.8252 12.7734Q10.8008 12.6758 10.8008 12.5977Q10.8008 12.334 10.9521 12.168Q11.1035 12.002 11.3379 12.002Q11.7383 12.002 11.9629 12.3926Q12.1484 12.7246 12.4756 12.9297Q12.8027 13.1348 13.2324 13.1348Q13.8184 13.1348 14.2529 12.7539Q14.6875 12.373 14.9219 11.6602Q15.1562 10.9473 15.1465 9.95117L15.0879 9.95117Q14.8828 10.459 14.3848 10.8447Q13.8867 11.2305 13.0664 11.2305Q12.4023 11.2305 11.8359 10.9131Q11.2695 10.5957 10.918 9.99512Q10.5664 9.39453 10.5664 8.53516Q10.5664 7.20703 11.3281 6.41113Q12.0898 5.61523 13.3691 5.61523Q14.7852 5.61523 15.5615 6.65527Q16.3379 7.69531 16.3379 9.67773Q16.3379 11.9531 15.5469 13.1299Q14.7559 14.3066 13.252 14.3066ZM13.4375 10.1855Q14.1504 10.1855 14.5947 9.70703Q15.0391 9.22852 15.0391 8.48633Q15.0391 7.70508 14.5898 7.21191Q14.1406 6.71875 13.4473 6.71875Q12.7148 6.71875 12.2852 7.19727Q11.8555 7.67578 11.8555 8.4668Q11.8555 9.21875 12.29 9.70215Q12.7246 10.1855 13.4375 10.1855Z" fill="none"/>
 </g>
</svg>
