<?xml version="1.0" encoding="UTF-8"?>
<!--Generator: Apple Native CoreSVG 175.5-->
<!DOCTYPE svg
PUBLIC "-//W3C//DTD SVG 1.1//EN"
       "http://www.w3.org/Graphics/SVG/1.1/DTD/svg11.dtd">
<svg version="1.1" xmlns="http://www.w3.org/2000/svg" xmlns:xlink="http://www.w3.org/1999/xlink" width="17.9785" height="17.998">
 <g>
  <rect height="17.998" opacity="0" width="17.9785" x="0" y="0"/>
  <path d="M3.06641 17.998L14.9121 17.998Q16.4453 17.998 17.2119 17.2412Q17.9785 16.4844 17.9785 14.9707L17.9785 3.04688Q17.9785 1.5332 17.2119 0.776367Q16.4453 0.0195312 14.9121 0.0195312L3.06641 0.0195312Q1.5332 0.0195312 0.766602 0.776367Q0 1.5332 0 3.04688L0 14.9707Q0 16.4844 0.766602 17.2412Q1.5332 17.998 3.06641 17.998Z" fill="#ffffff"/>
  <path d="M3.75977 13.1055Q3.49609 13.1055 3.33496 12.9395Q3.17383 12.7734 3.17383 12.5098Q3.17383 12.3535 3.22266 12.2217Q3.27148 12.0898 3.38867 11.9629L6.04492 8.83789Q6.40625 8.41797 6.72852 7.98828Q7.05078 7.55859 7.05078 7.06055Q7.05078 6.50391 6.68457 6.16211Q6.31836 5.82031 5.71289 5.82031Q5.17578 5.82031 4.80469 6.09863Q4.43359 6.37695 4.23828 6.94336Q4.13086 7.16797 4.00391 7.29004Q3.87695 7.41211 3.66211 7.41211Q3.39844 7.41211 3.24707 7.24609Q3.0957 7.08008 3.0957 6.80664Q3.0957 6.71875 3.11035 6.63086Q3.125 6.54297 3.14453 6.44531Q3.33984 5.67383 4.05273 5.16113Q4.76562 4.64844 5.66406 4.64844Q6.85547 4.64844 7.56348 5.27344Q8.27148 5.89844 8.27148 6.95312Q8.27148 7.70508 7.90039 8.30078Q7.5293 8.89648 6.97266 9.55078L5.00977 11.8359L5.00977 11.9141L7.92969 11.9141Q8.16406 11.9141 8.3252 12.0654Q8.48633 12.2168 8.48633 12.5Q8.48633 12.7734 8.3252 12.9395Q8.16406 13.1055 7.92969 13.1055ZM12.2852 13.3398Q11.2402 13.3398 10.6348 12.876Q10.0293 12.4121 9.91211 11.9922Q9.88281 11.9043 9.8584 11.8066Q9.83398 11.709 9.83398 11.6309Q9.83398 11.3672 9.98535 11.2012Q10.1367 11.0352 10.3711 11.0352Q10.7715 11.0352 10.9961 11.4258Q11.1816 11.7578 11.5088 11.9629Q11.8359 12.168 12.2656 12.168Q12.8516 12.168 13.2861 11.7871Q13.7207 11.4062 13.9551 10.6934Q14.1895 9.98047 14.1797 8.98438L14.1211 8.98438Q13.916 9.49219 13.418 9.87793Q12.9199 10.2637 12.0996 10.2637Q11.4355 10.2637 10.8691 9.94629Q10.3027 9.62891 9.95117 9.02832Q9.59961 8.42773 9.59961 7.56836Q9.59961 6.24023 10.3613 5.44434Q11.123 4.64844 12.4023 4.64844Q13.8184 4.64844 14.5947 5.68848Q15.3711 6.72852 15.3711 8.71094Q15.3711 10.9863 14.5801 12.1631Q13.7891 13.3398 12.2852 13.3398ZM12.4707 9.21875Q13.1836 9.21875 13.6279 8.74023Q14.0723 8.26172 14.0723 7.51953Q14.0723 6.73828 13.623 6.24512Q13.1738 5.75195 12.4805 5.75195Q11.748 5.75195 11.3184 6.23047Q10.8887 6.70898 10.8887 7.5Q10.8887 8.25195 11.3232 8.73535Q11.7578 9.21875 12.4707 9.21875Z" fill="none"/>
 </g>
</svg>
