<?xml version="1.0" encoding="UTF-8"?>
<!--Generator: Apple Native CoreSVG 175.5-->
<!DOCTYPE svg
PUBLIC "-//W3C//DTD SVG 1.1//EN"
       "http://www.w3.org/Graphics/SVG/1.1/DTD/svg11.dtd">
<svg version="1.1" xmlns="http://www.w3.org/2000/svg" xmlns:xlink="http://www.w3.org/1999/xlink" width="17.9785" height="17.998">
 <g>
  <rect height="17.998" opacity="0" width="17.9785" x="0" y="0"/>
  <path d="M3.06641 17.998L14.9121 17.998Q16.4453 17.998 17.2119 17.2412Q17.9785 16.4844 17.9785 14.9707L17.9785 3.04688Q17.9785 1.5332 17.2119 0.776367Q16.4453 0.0195312 14.9121 0.0195312L3.06641 0.0195312Q1.5332 0.0195312 0.766602 0.776367Q0 1.5332 0 3.04688L0 14.9707Q0 16.4844 0.766602 17.2412Q1.5332 17.998 3.06641 17.998Z" fill="#ffffff"/>
  <path d="M8.92578 13.7891Q7.68555 13.7891 6.78711 13.252Q5.88867 12.7148 5.66406 11.8359Q5.61523 11.6309 5.61523 11.4551Q5.61523 11.1523 5.81055 10.957Q6.00586 10.7617 6.31836 10.7617Q6.81641 10.7617 7.01172 11.2793Q7.19727 11.7969 7.66602 12.1484Q8.13477 12.5 8.95508 12.5Q9.83398 12.5 10.376 12.0898Q10.918 11.6797 10.918 11.0059Q10.918 10.3223 10.3857 9.89746Q9.85352 9.47266 9.00391 9.47266L8.31055 9.47266Q8.03711 9.47266 7.86133 9.29688Q7.68555 9.12109 7.68555 8.85742Q7.68555 8.57422 7.86133 8.39844Q8.03711 8.22266 8.31055 8.22266L8.94531 8.22266Q9.66797 8.22266 10.1367 7.81738Q10.6055 7.41211 10.6055 6.78711Q10.6055 6.18164 10.1709 5.83008Q9.73633 5.47852 8.98438 5.47852Q8.28125 5.47852 7.82227 5.81055Q7.36328 6.14258 7.19727 6.69922Q7.02148 7.22656 6.50391 7.22656Q6.20117 7.22656 6.00586 7.04102Q5.81055 6.85547 5.81055 6.55273Q5.81055 6.43555 5.8252 6.34766Q5.83984 6.25977 5.85938 6.15234Q6.06445 5.25391 6.92383 4.72656Q7.7832 4.19922 9.01367 4.19922Q10.3711 4.19922 11.2354 4.87793Q12.0996 5.55664 12.0996 6.61133Q12.0996 7.40234 11.582 8.01758Q11.0645 8.63281 10.3027 8.74023L10.3027 8.81836Q11.2207 8.90625 11.8213 9.54102Q12.4219 10.1758 12.4219 11.0645Q12.4219 12.2559 11.4844 13.0225Q10.5469 13.7891 8.92578 13.7891Z" fill="none"/>
 </g>
</svg>
