<?xml version="1.0" encoding="UTF-8"?>
<!--Generator: Apple Native CoreSVG 175.5-->
<!DOCTYPE svg
PUBLIC "-//W3C//DTD SVG 1.1//EN"
       "http://www.w3.org/Graphics/SVG/1.1/DTD/svg11.dtd">
<svg version="1.1" xmlns="http://www.w3.org/2000/svg" xmlns:xlink="http://www.w3.org/1999/xlink" width="17.9785" height="17.998">
 <g>
  <rect height="17.998" opacity="0" width="17.9785" x="0" y="0"/>
  <path d="M3.06641 17.998L14.9121 17.998Q16.4453 17.998 17.2119 17.2412Q17.9785 16.4844 17.9785 14.9707L17.9785 3.04688Q17.9785 1.5332 17.2119 0.776367Q16.4453 0.0195312 14.9121 0.0195312L3.06641 0.0195312Q1.5332 0.0195312 0.766602 0.776367Q0 1.5332 0 3.04688L0 14.9707Q0 16.4844 0.766602 17.2412Q1.5332 17.998 3.06641 17.998Z" fill="#ffffff"/>
  <path d="M5.63477 13.3398Q4.60938 13.3398 3.87207 12.8027Q3.13477 12.2656 2.92969 11.5723Q2.90039 11.4746 2.89062 11.3916Q2.88086 11.3086 2.88086 11.2012Q2.88086 10.9375 3.04688 10.7666Q3.21289 10.5957 3.4668 10.5957Q3.84766 10.5957 4.04297 11.0742Q4.24805 11.6016 4.64844 11.8848Q5.04883 12.168 5.64453 12.168Q6.36719 12.168 6.82617 11.7773Q7.28516 11.3867 7.28516 10.8008Q7.28516 10.1855 6.85547 9.81445Q6.42578 9.44336 5.72266 9.44336L5.12695 9.44336Q4.88281 9.44336 4.72656 9.27734Q4.57031 9.11133 4.57031 8.86719Q4.57031 8.59375 4.72656 8.42773Q4.88281 8.26172 5.12695 8.26172L5.67383 8.26172Q6.26953 8.26172 6.64551 7.90527Q7.02148 7.54883 7.02148 7.00195Q7.02148 6.47461 6.65039 6.14746Q6.2793 5.82031 5.68359 5.82031Q5.08789 5.82031 4.72168 6.10352Q4.35547 6.38672 4.17969 6.91406Q4.11133 7.1582 3.97949 7.27539Q3.84766 7.39258 3.62305 7.39258Q3.35938 7.39258 3.20312 7.22168Q3.04688 7.05078 3.04688 6.77734Q3.04688 6.55273 3.06641 6.41602Q3.27148 5.67383 3.97949 5.16113Q4.6875 4.64844 5.71289 4.64844Q6.83594 4.64844 7.55371 5.25879Q8.27148 5.86914 8.27148 6.83594Q8.27148 7.54883 7.8418 8.10547Q7.41211 8.66211 6.78711 8.75977L6.78711 8.81836Q7.54883 8.89648 8.04688 9.47266Q8.54492 10.0488 8.54492 10.8594Q8.54492 11.9434 7.73438 12.6416Q6.92383 13.3398 5.63477 13.3398ZM10.4785 13.1055Q10.2051 13.1055 10.0488 12.9395Q9.89258 12.7734 9.89258 12.5098Q9.89258 12.207 10.1074 11.9629L12.7637 8.83789Q13.125 8.41797 13.4473 7.98828Q13.7695 7.55859 13.7695 7.06055Q13.7695 6.50391 13.4082 6.16211Q13.0469 5.82031 12.4414 5.82031Q11.9043 5.82031 11.5283 6.09863Q11.1523 6.37695 10.957 6.94336Q10.8594 7.16797 10.7275 7.29004Q10.5957 7.41211 10.3809 7.41211Q10.1172 7.41211 9.96582 7.24609Q9.81445 7.08008 9.81445 6.80664Q9.81445 6.71875 9.8291 6.63086Q9.84375 6.54297 9.86328 6.44531Q10.0586 5.67383 10.7764 5.16113Q11.4941 4.64844 12.3828 4.64844Q13.5742 4.64844 14.2871 5.27344Q15 5.89844 15 6.95312Q15 7.70508 14.6289 8.30078Q14.2578 8.89648 13.7012 9.55078L11.7285 11.8359L11.7285 11.9141L14.6484 11.9141Q14.8828 11.9141 15.0439 12.0654Q15.2051 12.2168 15.2051 12.5Q15.2051 12.7734 15.0439 12.9395Q14.8828 13.1055 14.6484 13.1055Z" fill="none"/>
 </g>
</svg>
