<?xml version="1.0" encoding="UTF-8"?>
<!--Generator: Apple Native CoreSVG 175.5-->
<!DOCTYPE svg
PUBLIC "-//W3C//DTD SVG 1.1//EN"
       "http://www.w3.org/Graphics/SVG/1.1/DTD/svg11.dtd">
<svg version="1.1" xmlns="http://www.w3.org/2000/svg" xmlns:xlink="http://www.w3.org/1999/xlink" width="17.9785" height="17.998">
 <g>
  <rect height="17.998" opacity="0" width="17.9785" x="0" y="0"/>
  <path d="M3.06641 17.998L14.9121 17.998Q16.4453 17.998 17.2119 17.2412Q17.9785 16.4844 17.9785 14.9707L17.9785 3.04688Q17.9785 1.5332 17.2119 0.776367Q16.4453 0.0195312 14.9121 0.0195312L3.06641 0.0195312Q1.5332 0.0195312 0.766602 0.776367Q0 1.5332 0 3.04688L0 14.9707Q0 16.4844 0.766602 17.2412Q1.5332 17.998 3.06641 17.998ZM3.08594 16.4258Q2.35352 16.4258 1.96289 16.04Q1.57227 15.6543 1.57227 14.8926L1.57227 3.125Q1.57227 2.36328 1.96289 1.97754Q2.35352 1.5918 3.08594 1.5918L14.8926 1.5918Q15.6152 1.5918 16.0107 1.97754Q16.4062 2.36328 16.4062 3.125L16.4062 14.8926Q16.4062 15.6543 16.0107 16.04Q15.6152 16.4258 14.8926 16.4258Z" fill="#ffffff"/>
  <path d="M5.77148 13.2031Q7.01172 13.2031 7.79785 12.5293Q8.58398 11.8555 8.58398 10.8008Q8.58398 10.0195 8.10059 9.45801Q7.61719 8.89648 6.88477 8.82812L6.88477 8.76953Q7.49023 8.67188 7.90527 8.12988Q8.32031 7.58789 8.32031 6.9043Q8.32031 5.9668 7.62695 5.37598Q6.93359 4.78516 5.83984 4.78516Q4.84375 4.78516 4.16016 5.2832Q3.47656 5.78125 3.28125 6.49414Q3.26172 6.63086 3.26172 6.8457Q3.26172 7.10938 3.41309 7.27539Q3.56445 7.44141 3.81836 7.44141Q4.0332 7.44141 4.16016 7.32422Q4.28711 7.20703 4.35547 6.97266Q4.52148 6.45508 4.87793 6.18164Q5.23438 5.9082 5.81055 5.9082Q6.38672 5.9082 6.75293 6.22559Q7.11914 6.54297 7.11914 7.06055Q7.11914 7.59766 6.75293 7.94434Q6.38672 8.29102 5.80078 8.29102L5.27344 8.29102Q5.03906 8.29102 4.8877 8.44727Q4.73633 8.60352 4.73633 8.86719Q4.73633 9.10156 4.88281 9.2627Q5.0293 9.42383 5.27344 9.42383L5.84961 9.42383Q6.54297 9.42383 6.95801 9.78516Q7.37305 10.1465 7.37305 10.7422Q7.37305 11.3086 6.92871 11.6943Q6.48438 12.0801 5.78125 12.0801Q5.20508 12.0801 4.80957 11.8018Q4.41406 11.5234 4.21875 11.0156Q4.04297 10.5469 3.66211 10.5469Q3.41797 10.5469 3.25684 10.7129Q3.0957 10.8789 3.0957 11.1328Q3.0957 11.2402 3.10547 11.3184Q3.11523 11.3965 3.14453 11.4941Q3.33984 12.168 4.05762 12.6855Q4.77539 13.2031 5.77148 13.2031ZM12.3145 13.2031Q13.6035 13.2031 14.3945 12.4609Q15.1855 11.7188 15.1855 10.4297Q15.1855 9.30664 14.4873 8.56934Q13.7891 7.83203 12.6562 7.83203Q12.168 7.83203 11.6992 8.04688Q11.2305 8.26172 11.0059 8.59375L10.9668 8.59375L11.1523 6.08398L14.3848 6.08398Q14.5898 6.08398 14.7266 5.92773Q14.8633 5.77148 14.8633 5.53711Q14.8633 5.30273 14.7314 5.14648Q14.5996 4.99023 14.3848 4.99023L11.0254 4.99023Q10.6445 4.99023 10.4053 5.21484Q10.166 5.43945 10.1465 5.82031L9.90234 8.86719Q9.87305 9.24805 10.0635 9.47754Q10.2539 9.70703 10.5859 9.70703Q10.8105 9.70703 10.9814 9.63867Q11.1523 9.57031 11.3867 9.375Q11.6895 9.11133 11.9482 8.99414Q12.207 8.87695 12.5293 8.87695Q13.1738 8.87695 13.5742 9.33105Q13.9746 9.78516 13.9746 10.459Q13.9746 11.2207 13.5303 11.6602Q13.0859 12.0996 12.3828 12.0996Q11.8848 12.0996 11.4795 11.8506Q11.0742 11.6016 10.8594 11.1621Q10.752 10.9473 10.6104 10.8447Q10.4688 10.7422 10.3027 10.7422Q10.0586 10.7422 9.90723 10.9033Q9.75586 11.0645 9.75586 11.3086Q9.75586 11.4258 9.77539 11.5381Q9.79492 11.6504 9.83398 11.748Q10.0586 12.3535 10.7275 12.7783Q11.3965 13.2031 12.3145 13.2031Z" fill="#ffffff"/>
 </g>
</svg>
