<?xml version="1.0" encoding="UTF-8"?>
<!--Generator: Apple Native CoreSVG 175.5-->
<!DOCTYPE svg
PUBLIC "-//W3C//DTD SVG 1.1//EN"
       "http://www.w3.org/Graphics/SVG/1.1/DTD/svg11.dtd">
<svg version="1.1" xmlns="http://www.w3.org/2000/svg" xmlns:xlink="http://www.w3.org/1999/xlink" width="17.9785" height="17.998">
 <g>
  <rect height="17.998" opacity="0" width="17.9785" x="0" y="0"/>
  <path d="M3.06641 17.998L14.9121 17.998Q16.4453 17.998 17.2119 17.2412Q17.9785 16.4844 17.9785 14.9707L17.9785 3.04688Q17.9785 1.5332 17.2119 0.776367Q16.4453 0.0195312 14.9121 0.0195312L3.06641 0.0195312Q1.5332 0.0195312 0.766602 0.776367Q0 1.5332 0 3.04688L0 14.9707Q0 16.4844 0.766602 17.2412Q1.5332 17.998 3.06641 17.998Z" fill="#ffffff"/>
  <path d="M5.48828 13.3398Q4.46289 13.3398 3.7207 12.8027Q2.97852 12.2656 2.77344 11.5723Q2.74414 11.4746 2.73438 11.3916Q2.72461 11.3086 2.72461 11.2012Q2.72461 10.9277 2.89062 10.7617Q3.05664 10.5957 3.31055 10.5957Q3.71094 10.5957 3.88672 11.0742Q4.0918 11.6016 4.49707 11.8848Q4.90234 12.168 5.49805 12.168Q6.2207 12.168 6.67969 11.7773Q7.13867 11.3867 7.13867 10.8008Q7.13867 10.1855 6.70898 9.81445Q6.2793 9.44336 5.56641 9.44336L4.98047 9.44336Q4.72656 9.44336 4.5752 9.27734Q4.42383 9.11133 4.42383 8.86719Q4.42383 8.59375 4.5752 8.42773Q4.72656 8.26172 4.98047 8.26172L5.51758 8.26172Q6.11328 8.26172 6.49414 7.90527Q6.875 7.54883 6.875 7.00195Q6.875 6.47461 6.49902 6.14746Q6.12305 5.82031 5.52734 5.82031Q4.94141 5.82031 4.5752 6.10352Q4.20898 6.38672 4.0332 6.91406Q3.96484 7.1582 3.83301 7.27539Q3.70117 7.39258 3.47656 7.39258Q3.21289 7.39258 3.05664 7.22168Q2.90039 7.05078 2.90039 6.77734Q2.90039 6.55273 2.91992 6.41602Q3.125 5.67383 3.82812 5.16113Q4.53125 4.64844 5.55664 4.64844Q6.68945 4.64844 7.40234 5.25879Q8.11523 5.86914 8.11523 6.83594Q8.11523 7.54883 7.68555 8.10547Q7.25586 8.66211 6.64062 8.75977L6.64062 8.81836Q7.40234 8.89648 7.89551 9.47266Q8.38867 10.0488 8.38867 10.8594Q8.38867 11.9434 7.57812 12.6416Q6.76758 13.3398 5.48828 13.3398ZM12.5391 13.3496Q11.7773 13.3496 11.1475 13.0322Q10.5176 12.7148 10.127 11.9824Q9.87305 11.5137 9.73633 10.8301Q9.59961 10.1465 9.59961 9.22852Q9.59961 6.92383 10.4346 5.78613Q11.2695 4.64844 12.7344 4.64844Q13.3008 4.64844 13.75 4.82422Q14.1992 5 14.502 5.29297Q14.8047 5.58594 14.9414 5.91797Q15.0195 6.10352 15.0195 6.30859Q15.0195 6.5625 14.873 6.71387Q14.7266 6.86523 14.5215 6.86523Q14.3164 6.86523 14.1797 6.77246Q14.043 6.67969 13.916 6.48438Q13.7207 6.19141 13.418 6.00586Q13.1152 5.82031 12.6758 5.82031Q11.8262 5.82031 11.3037 6.65039Q10.7812 7.48047 10.7812 8.90625Q10.7812 8.93555 10.7812 8.95996Q10.7812 8.98438 10.7812 9.00391L10.8496 9.00391Q11.0352 8.50586 11.5381 8.12012Q12.041 7.73438 12.8418 7.73438Q13.8281 7.73438 14.585 8.42773Q15.3418 9.12109 15.3418 10.4199Q15.3418 11.8066 14.5508 12.5781Q13.7598 13.3496 12.5391 13.3496ZM12.4805 12.2363Q13.2031 12.2363 13.6328 11.7578Q14.0625 11.2793 14.0625 10.4785Q14.0625 9.72656 13.623 9.25293Q13.1836 8.7793 12.4805 8.7793Q11.7773 8.7793 11.333 9.25293Q10.8887 9.72656 10.8887 10.4688Q10.8887 11.25 11.333 11.7432Q11.7773 12.2363 12.4805 12.2363Z" fill="none"/>
 </g>
</svg>
