<?xml version="1.0" encoding="UTF-8"?>
<!--Generator: Apple Native CoreSVG 175.5-->
<!DOCTYPE svg
PUBLIC "-//W3C//DTD SVG 1.1//EN"
       "http://www.w3.org/Graphics/SVG/1.1/DTD/svg11.dtd">
<svg version="1.1" xmlns="http://www.w3.org/2000/svg" xmlns:xlink="http://www.w3.org/1999/xlink" width="19.9219" height="19.9316">
 <g>
  <rect height="19.9316" opacity="0" width="19.9219" x="0" y="0"/>
  <path d="M9.96094 19.9219Q12.002 19.9219 13.8037 19.1406Q15.6055 18.3594 16.9824 16.9824Q18.3594 15.6055 19.1406 13.8037Q19.9219 12.002 19.9219 9.96094Q19.9219 7.91992 19.1406 6.11816Q18.3594 4.31641 16.9824 2.93945Q15.6055 1.5625 13.7988 0.78125Q11.9922 0 9.95117 0Q7.91016 0 6.1084 0.78125Q4.30664 1.5625 2.93457 2.93945Q1.5625 4.31641 0.78125 6.11816Q0 7.91992 0 9.96094Q0 12.002 0.78125 13.8037Q1.5625 15.6055 2.93945 16.9824Q4.31641 18.3594 6.11816 19.1406Q7.91992 19.9219 9.96094 19.9219Z" fill="#ffffff"/>
  <path d="M6.64062 14.1699Q5.64453 14.1699 4.92676 13.6523Q4.20898 13.1348 4.01367 12.4609Q3.98438 12.3633 3.97461 12.2852Q3.96484 12.207 3.96484 12.0996Q3.96484 11.8457 4.12598 11.6797Q4.28711 11.5137 4.53125 11.5137Q4.91211 11.5137 5.08789 11.9824Q5.2832 12.4902 5.67871 12.7686Q6.07422 13.0469 6.65039 13.0469Q7.35352 13.0469 7.79785 12.6611Q8.24219 12.2754 8.24219 11.709Q8.24219 11.1133 7.82715 10.752Q7.41211 10.3906 6.71875 10.3906L6.14258 10.3906Q5.89844 10.3906 5.75195 10.2295Q5.60547 10.0684 5.60547 9.83398Q5.60547 9.57031 5.75684 9.41406Q5.9082 9.25781 6.14258 9.25781L6.66992 9.25781Q7.25586 9.25781 7.62207 8.91113Q7.98828 8.56445 7.98828 8.02734Q7.98828 7.50977 7.62207 7.19238Q7.25586 6.875 6.67969 6.875Q6.10352 6.875 5.74707 7.14844Q5.39062 7.42188 5.22461 7.93945Q5.15625 8.17383 5.0293 8.29102Q4.90234 8.4082 4.6875 8.4082Q4.43359 8.4082 4.28223 8.24219Q4.13086 8.07617 4.13086 7.8125Q4.13086 7.59766 4.15039 7.46094Q4.3457 6.74805 5.0293 6.25Q5.71289 5.75195 6.70898 5.75195Q7.80273 5.75195 8.49609 6.34277Q9.18945 6.93359 9.18945 7.87109Q9.18945 8.55469 8.77441 9.09668Q8.35938 9.63867 7.75391 9.73633L7.75391 9.79492Q8.48633 9.86328 8.96973 10.4248Q9.45312 10.9863 9.45312 11.7676Q9.45312 12.8223 8.66699 13.4961Q7.88086 14.1699 6.64062 14.1699ZM13.1348 14.1699Q12.1191 14.1699 11.5332 13.7207Q10.9473 13.2715 10.8301 12.8711Q10.7617 12.6465 10.7617 12.5195Q10.7617 12.2656 10.9033 12.1045Q11.0449 11.9434 11.2793 11.9434Q11.6602 11.9434 11.875 12.3242Q12.0508 12.6465 12.373 12.8467Q12.6953 13.0469 13.1152 13.0469Q13.6816 13.0469 14.1016 12.6758Q14.5215 12.3047 14.751 11.6113Q14.9805 10.918 14.9707 9.95117L14.9121 9.95117Q14.7168 10.4492 14.2334 10.8203Q13.75 11.1914 12.9492 11.1914Q12.3047 11.1914 11.7529 10.8838Q11.2012 10.5762 10.8643 9.99512Q10.5273 9.41406 10.5273 8.57422Q10.5273 7.28516 11.2695 6.51855Q12.0117 5.75195 13.2422 5.75195Q14.6191 5.75195 15.376 6.75781Q16.1328 7.76367 16.1328 9.6875Q16.1328 11.8945 15.3613 13.0322Q14.5898 14.1699 13.1348 14.1699ZM13.3105 10.1855Q14.0039 10.1855 14.4336 9.7168Q14.8633 9.24805 14.8633 8.53516Q14.8633 7.77344 14.4287 7.29492Q13.9941 6.81641 13.3203 6.81641Q12.6074 6.81641 12.1875 7.28027Q11.7676 7.74414 11.7676 8.51562Q11.7676 9.24805 12.1924 9.7168Q12.6172 10.1855 13.3105 10.1855Z" fill="none"/>
 </g>
</svg>
