<?xml version="1.0" encoding="UTF-8"?>
<!--Generator: Apple Native CoreSVG 175.5-->
<!DOCTYPE svg
PUBLIC "-//W3C//DTD SVG 1.1//EN"
       "http://www.w3.org/Graphics/SVG/1.1/DTD/svg11.dtd">
<svg version="1.1" xmlns="http://www.w3.org/2000/svg" xmlns:xlink="http://www.w3.org/1999/xlink" width="17.9785" height="17.998">
 <g>
  <rect height="17.998" opacity="0" width="17.9785" x="0" y="0"/>
  <path d="M3.06641 17.998L14.9121 17.998Q16.4453 17.998 17.2119 17.2412Q17.9785 16.4844 17.9785 14.9707L17.9785 3.04688Q17.9785 1.5332 17.2119 0.776367Q16.4453 0.0195312 14.9121 0.0195312L3.06641 0.0195312Q1.5332 0.0195312 0.766602 0.776367Q0 1.5332 0 3.04688L0 14.9707Q0 16.4844 0.766602 17.2412Q1.5332 17.998 3.06641 17.998Z" fill="#ffffff"/>
  <path d="M5.15625 10.8594Q5.15625 10.7031 5.19531 10.542Q5.23438 10.3809 5.32227 10.2246Q5.86914 9.27734 6.38184 8.36914Q6.89453 7.46094 7.40723 6.55762Q7.91992 5.6543 8.45703 4.7168Q8.59375 4.46289 8.76953 4.3457Q8.94531 4.22852 9.17969 4.22852Q9.52148 4.22852 9.70703 4.44824Q9.89258 4.66797 9.89258 4.9707Q9.89258 5.08789 9.85352 5.20508Q9.81445 5.32227 9.75586 5.44922Q9.28711 6.30859 8.83789 7.11426Q8.38867 7.91992 7.94434 8.7207Q7.5 9.52148 7.04102 10.3613L9.83398 10.3613L9.83398 8.19336Q9.83398 7.79297 10.0293 7.56836Q10.2246 7.34375 10.5664 7.34375Q10.9277 7.34375 11.123 7.56348Q11.3184 7.7832 11.3184 8.19336L11.3184 10.3613L11.9922 10.3613Q12.3242 10.3613 12.5195 10.5371Q12.7148 10.7129 12.7148 11.0059Q12.7148 11.3184 12.5195 11.5088Q12.3242 11.6992 11.9922 11.6992L11.3184 11.6992L11.3184 12.7344Q11.3184 13.1445 11.123 13.3643Q10.9277 13.584 10.5664 13.584Q10.2246 13.584 10.0293 13.3594Q9.83398 13.1348 9.83398 12.7344L9.83398 11.6992L6.04492 11.6992Q5.63477 11.6992 5.39551 11.4697Q5.15625 11.2402 5.15625 10.8594Z" fill="none"/>
 </g>
</svg>
