<?xml version="1.0" encoding="UTF-8"?>
<!--Generator: Apple Native CoreSVG 175.5-->
<!DOCTYPE svg
PUBLIC "-//W3C//DTD SVG 1.1//EN"
       "http://www.w3.org/Graphics/SVG/1.1/DTD/svg11.dtd">
<svg version="1.1" xmlns="http://www.w3.org/2000/svg" xmlns:xlink="http://www.w3.org/1999/xlink" width="19.9219" height="19.9316">
 <g>
  <rect height="19.9316" opacity="0" width="19.9219" x="0" y="0"/>
  <path d="M9.96094 19.9219Q12.002 19.9219 13.8037 19.1406Q15.6055 18.3594 16.9824 16.9824Q18.3594 15.6055 19.1406 13.8037Q19.9219 12.002 19.9219 9.96094Q19.9219 7.91992 19.1406 6.11816Q18.3594 4.31641 16.9824 2.93945Q15.6055 1.5625 13.7988 0.78125Q11.9922 0 9.95117 0Q7.91016 0 6.1084 0.78125Q4.30664 1.5625 2.93457 2.93945Q1.5625 4.31641 0.78125 6.11816Q0 7.91992 0 9.96094Q0 12.002 0.78125 13.8037Q1.5625 15.6055 2.93945 16.9824Q4.31641 18.3594 6.11816 19.1406Q7.91992 19.9219 9.96094 19.9219Z" fill="#ffffff"/>
  <path d="M11.2695 14.5508Q10.918 14.5508 10.7227 14.3262Q10.5273 14.1016 10.5273 13.7012L10.5273 12.6758L6.91406 12.6758Q6.43555 12.6758 6.15234 12.4072Q5.86914 12.1387 5.86914 11.6895Q5.86914 11.4648 5.92773 11.2598Q5.98633 11.0547 6.14258 10.8008Q6.45508 10.293 6.83105 9.70703Q7.20703 9.12109 7.62207 8.49609Q8.03711 7.87109 8.45215 7.24609Q8.86719 6.62109 9.26758 6.02539Q9.56055 5.56641 9.92188 5.36621Q10.2832 5.16602 10.8105 5.16602Q11.3477 5.16602 11.6895 5.45898Q12.0312 5.75195 12.0312 6.23047L12.0312 11.3477L12.793 11.3477Q13.0957 11.3477 13.2764 11.5332Q13.457 11.7188 13.457 12.0215Q13.457 12.3145 13.2715 12.4951Q13.0859 12.6758 12.793 12.6758L12.0312 12.6758L12.0312 13.7012Q12.0312 14.1016 11.8311 14.3262Q11.6309 14.5508 11.2695 14.5508ZM10.5273 11.3477L10.5273 6.47461L10.459 6.47461Q10.1465 6.95312 9.80957 7.46094Q9.47266 7.96875 9.13574 8.47656Q8.79883 8.98438 8.48145 9.48242Q8.16406 9.98047 7.87598 10.4395Q7.58789 10.8984 7.35352 11.2891L7.35352 11.3477Z" fill="none"/>
 </g>
</svg>
