<?xml version="1.0" encoding="UTF-8"?>
<!--Generator: Apple Native CoreSVG 175.5-->
<!DOCTYPE svg
PUBLIC "-//W3C//DTD SVG 1.1//EN"
       "http://www.w3.org/Graphics/SVG/1.1/DTD/svg11.dtd">
<svg version="1.1" xmlns="http://www.w3.org/2000/svg" xmlns:xlink="http://www.w3.org/1999/xlink" width="17.9785" height="17.998">
 <g>
  <rect height="17.998" opacity="0" width="17.9785" x="0" y="0"/>
  <path d="M3.06641 17.998L14.9121 17.998Q16.4453 17.998 17.2119 17.2412Q17.9785 16.4844 17.9785 14.9707L17.9785 3.04688Q17.9785 1.5332 17.2119 0.776367Q16.4453 0.0195312 14.9121 0.0195312L3.06641 0.0195312Q1.5332 0.0195312 0.766602 0.776367Q0 1.5332 0 3.04688L0 14.9707Q0 16.4844 0.766602 17.2412Q1.5332 17.998 3.06641 17.998Z" fill="#ffffff"/>
  <path d="M10.3125 13.584Q9.96094 13.584 9.76562 13.3594Q9.57031 13.1348 9.57031 12.7344L9.57031 11.709L5.95703 11.709Q5.47852 11.709 5.19531 11.4404Q4.91211 11.1719 4.91211 10.7227Q4.91211 10.498 4.9707 10.293Q5.0293 10.0879 5.18555 9.83398Q5.49805 9.32617 5.87402 8.74023Q6.25 8.1543 6.66504 7.5293Q7.08008 6.9043 7.49512 6.2793Q7.91016 5.6543 8.31055 5.05859Q8.60352 4.59961 8.96484 4.39941Q9.32617 4.19922 9.85352 4.19922Q10.3906 4.19922 10.7324 4.49219Q11.0742 4.78516 11.0742 5.26367L11.0742 10.3809L11.8359 10.3809Q12.1387 10.3809 12.3193 10.5664Q12.5 10.752 12.5 11.0547Q12.5 11.3477 12.3145 11.5283Q12.1289 11.709 11.8359 11.709L11.0742 11.709L11.0742 12.7344Q11.0742 13.1348 10.874 13.3594Q10.6738 13.584 10.3125 13.584ZM9.57031 10.3809L9.57031 5.50781L9.50195 5.50781Q9.18945 5.98633 8.85254 6.49414Q8.51562 7.00195 8.17871 7.50977Q7.8418 8.01758 7.52441 8.51562Q7.20703 9.01367 6.91895 9.47266Q6.63086 9.93164 6.39648 10.3223L6.39648 10.3809Z" fill="none"/>
 </g>
</svg>
