<?xml version="1.0" encoding="UTF-8"?>
<!--Generator: Apple Native CoreSVG 175.5-->
<!DOCTYPE svg
PUBLIC "-//W3C//DTD SVG 1.1//EN"
       "http://www.w3.org/Graphics/SVG/1.1/DTD/svg11.dtd">
<svg version="1.1" xmlns="http://www.w3.org/2000/svg" xmlns:xlink="http://www.w3.org/1999/xlink" width="17.9785" height="17.998">
 <g>
  <rect height="17.998" opacity="0" width="17.9785" x="0" y="0"/>
  <path d="M3.06641 17.998L14.9121 17.998Q16.4453 17.998 17.2119 17.2412Q17.9785 16.4844 17.9785 14.9707L17.9785 3.04688Q17.9785 1.5332 17.2119 0.776367Q16.4453 0.0195312 14.9121 0.0195312L3.06641 0.0195312Q1.5332 0.0195312 0.766602 0.776367Q0 1.5332 0 3.04688L0 14.9707Q0 16.4844 0.766602 17.2412Q1.5332 17.998 3.06641 17.998Z" fill="#ffffff"/>
  <path d="M6.97266 13.3203Q6.66992 13.3203 6.52344 13.125Q6.37695 12.9297 6.37695 12.6367L6.37695 11.4551L3.4375 11.4551Q3.04688 11.4551 2.80762 11.2256Q2.56836 10.9961 2.56836 10.5957Q2.56836 10.3906 2.61719 10.2051Q2.66602 10.0195 2.79297 9.78516Q3.04688 9.32617 3.35449 8.79395Q3.66211 8.26172 3.99414 7.68555Q4.32617 7.10938 4.66309 6.5332Q5 5.95703 5.32227 5.42969Q5.56641 5.00977 5.85938 4.8291Q6.15234 4.64844 6.5918 4.64844Q7.03125 4.64844 7.31445 4.91211Q7.59766 5.17578 7.59766 5.61523L7.59766 10.3223L8.13477 10.3223Q8.38867 10.3223 8.54492 10.4736Q8.70117 10.625 8.70117 10.8984Q8.70117 11.4551 8.13477 11.4551L7.59766 11.4551L7.59766 12.6367Q7.59766 12.9395 7.43652 13.1299Q7.27539 13.3203 6.97266 13.3203ZM6.37695 10.3223L6.37695 6.01562L6.30859 6.01562Q6.07422 6.42578 5.81055 6.875Q5.54688 7.32422 5.2832 7.7832Q5.01953 8.24219 4.77051 8.68652Q4.52148 9.13086 4.29688 9.53613Q4.07227 9.94141 3.89648 10.2832L3.89648 10.3223ZM12.5684 13.3398Q11.709 13.3398 11.0596 12.8125Q10.4102 12.2852 10.0488 11.3135Q9.6875 10.3418 9.6875 8.99414Q9.6875 7.64648 10.0488 6.6748Q10.4102 5.70312 11.0596 5.17578Q11.709 4.64844 12.5684 4.64844Q13.4375 4.64844 14.0869 5.17578Q14.7363 5.70312 15.0928 6.6748Q15.4492 7.64648 15.4492 8.99414Q15.4492 10.3418 15.0928 11.3135Q14.7363 12.2852 14.0869 12.8125Q13.4375 13.3398 12.5684 13.3398ZM12.5684 12.1094Q13.3008 12.1094 13.7109 11.2744Q14.1211 10.4395 14.1211 8.99414Q14.1211 7.54883 13.7061 6.71387Q13.291 5.87891 12.5684 5.87891Q11.8457 5.87891 11.4307 6.71387Q11.0156 7.54883 11.0156 8.99414Q11.0156 10.4395 11.4307 11.2744Q11.8457 12.1094 12.5684 12.1094Z" fill="none"/>
 </g>
</svg>
