<?xml version="1.0" encoding="UTF-8"?>
<!--Generator: Apple Native CoreSVG 175.5-->
<!DOCTYPE svg
PUBLIC "-//W3C//DTD SVG 1.1//EN"
       "http://www.w3.org/Graphics/SVG/1.1/DTD/svg11.dtd">
<svg version="1.1" xmlns="http://www.w3.org/2000/svg" xmlns:xlink="http://www.w3.org/1999/xlink" width="17.9785" height="17.998">
 <g>
  <rect height="17.998" opacity="0" width="17.9785" x="0" y="0"/>
  <path d="M3.06641 17.998L14.9121 17.998Q16.4453 17.998 17.2119 17.2412Q17.9785 16.4844 17.9785 14.9707L17.9785 3.04688Q17.9785 1.5332 17.2119 0.776367Q16.4453 0.0195312 14.9121 0.0195312L3.06641 0.0195312Q1.5332 0.0195312 0.766602 0.776367Q0 1.5332 0 3.04688L0 14.9707Q0 16.4844 0.766602 17.2412Q1.5332 17.998 3.06641 17.998ZM3.08594 16.4258Q2.35352 16.4258 1.96289 16.04Q1.57227 15.6543 1.57227 14.8926L1.57227 3.125Q1.57227 2.36328 1.96289 1.97754Q2.35352 1.5918 3.08594 1.5918L14.8926 1.5918Q15.6152 1.5918 16.0107 1.97754Q16.4062 2.36328 16.4062 3.125L16.4062 14.8926Q16.4062 15.6543 16.0107 16.04Q15.6152 16.4258 14.8926 16.4258Z" fill="#ffffff"/>
  <path d="M7.55859 13.1836Q7.85156 13.1836 8.00781 12.998Q8.16406 12.8125 8.16406 12.5293L8.16406 11.377L8.69141 11.377Q9.23828 11.377 9.23828 10.8398Q9.23828 10.5762 9.08691 10.4297Q8.93555 10.2832 8.69141 10.2832L8.16406 10.2832L8.16406 5.71289Q8.16406 5.29297 7.89062 5.03906Q7.61719 4.78516 7.19727 4.78516Q6.76758 4.78516 6.48438 4.95605Q6.20117 5.12695 5.9668 5.53711Q5.66406 6.05469 5.33203 6.61133Q5 7.16797 4.67773 7.72461Q4.35547 8.28125 4.05273 8.80371Q3.75 9.32617 3.50586 9.76562Q3.38867 9.99023 3.33984 10.166Q3.29102 10.3418 3.29102 10.5469Q3.29102 10.9375 3.52539 11.1572Q3.75977 11.377 4.13086 11.377L6.98242 11.377L6.98242 12.5293Q6.98242 12.8125 7.12891 12.998Q7.27539 13.1836 7.55859 13.1836ZM6.98242 10.2832L4.57031 10.2832L4.57031 10.2441Q4.73633 9.91211 4.95605 9.5166Q5.17578 9.12109 5.41992 8.69141Q5.66406 8.26172 5.92285 7.81738Q6.18164 7.37305 6.43555 6.93848Q6.68945 6.50391 6.92383 6.10352L6.98242 6.10352ZM12.9297 13.0859Q13.5547 13.0859 13.5547 12.4609L13.5547 5.54688Q13.5547 5.23438 13.3643 5.03906Q13.1738 4.84375 12.8613 4.84375Q12.627 4.84375 12.4463 4.92188Q12.2656 5 12.0117 5.17578L10.5273 6.19141Q10.1953 6.42578 10.1953 6.76758Q10.1953 7.01172 10.3711 7.18262Q10.5469 7.35352 10.752 7.35352Q10.8691 7.35352 10.9668 7.3291Q11.0645 7.30469 11.2305 7.16797L12.2754 6.39648L12.334 6.39648L12.334 12.4609Q12.334 13.0859 12.9297 13.0859Z" fill="#ffffff"/>
 </g>
</svg>
