<?xml version="1.0" encoding="UTF-8"?>
<!--Generator: Apple Native CoreSVG 175.5-->
<!DOCTYPE svg
PUBLIC "-//W3C//DTD SVG 1.1//EN"
       "http://www.w3.org/Graphics/SVG/1.1/DTD/svg11.dtd">
<svg version="1.1" xmlns="http://www.w3.org/2000/svg" xmlns:xlink="http://www.w3.org/1999/xlink" width="17.9785" height="17.998">
 <g>
  <rect height="17.998" opacity="0" width="17.9785" x="0" y="0"/>
  <path d="M3.06641 17.998L14.9121 17.998Q16.4453 17.998 17.2119 17.2412Q17.9785 16.4844 17.9785 14.9707L17.9785 3.04688Q17.9785 1.5332 17.2119 0.776367Q16.4453 0.0195312 14.9121 0.0195312L3.06641 0.0195312Q1.5332 0.0195312 0.766602 0.776367Q0 1.5332 0 3.04688L0 14.9707Q0 16.4844 0.766602 17.2412Q1.5332 17.998 3.06641 17.998ZM3.08594 16.4258Q2.35352 16.4258 1.96289 16.04Q1.57227 15.6543 1.57227 14.8926L1.57227 3.125Q1.57227 2.36328 1.96289 1.97754Q2.35352 1.5918 3.08594 1.5918L14.8926 1.5918Q15.6152 1.5918 16.0107 1.97754Q16.4062 2.36328 16.4062 3.125L16.4062 14.8926Q16.4062 15.6543 16.0107 16.04Q15.6152 16.4258 14.8926 16.4258Z" fill="#ffffff"/>
  <path d="M7.09961 13.1836Q7.39258 13.1836 7.54883 12.998Q7.70508 12.8125 7.70508 12.5293L7.70508 11.377L8.23242 11.377Q8.7793 11.377 8.7793 10.8398Q8.7793 10.5762 8.62793 10.4297Q8.47656 10.2832 8.23242 10.2832L7.70508 10.2832L7.70508 5.71289Q7.70508 5.29297 7.43164 5.03906Q7.1582 4.78516 6.73828 4.78516Q6.30859 4.78516 6.02539 4.95605Q5.74219 5.12695 5.50781 5.53711Q5.20508 6.05469 4.87305 6.61133Q4.54102 7.16797 4.21875 7.72461Q3.89648 8.28125 3.59375 8.80371Q3.29102 9.32617 3.04688 9.76562Q2.92969 9.99023 2.88086 10.166Q2.83203 10.3418 2.83203 10.5469Q2.83203 10.9375 3.06641 11.1572Q3.30078 11.377 3.67188 11.377L6.52344 11.377L6.52344 12.5293Q6.52344 12.8125 6.66992 12.998Q6.81641 13.1836 7.09961 13.1836ZM6.52344 10.2832L4.11133 10.2832L4.11133 10.2441Q4.27734 9.91211 4.49707 9.5166Q4.7168 9.12109 4.96094 8.69141Q5.20508 8.26172 5.46387 7.81738Q5.72266 7.37305 5.97656 6.93848Q6.23047 6.50391 6.46484 6.10352L6.52344 6.10352ZM12.3438 13.2031Q13.584 13.2031 14.3701 12.5293Q15.1562 11.8555 15.1562 10.8008Q15.1562 10.0195 14.6729 9.45801Q14.1895 8.89648 13.4473 8.82812L13.4473 8.76953Q14.0527 8.67188 14.4727 8.12988Q14.8926 7.58789 14.8926 6.9043Q14.8926 5.9668 14.1943 5.37598Q13.4961 4.78516 12.4023 4.78516Q11.416 4.78516 10.7275 5.2832Q10.0391 5.78125 9.85352 6.49414Q9.82422 6.63086 9.82422 6.8457Q9.82422 7.10938 9.97559 7.27539Q10.127 7.44141 10.3809 7.44141Q10.6055 7.44141 10.7324 7.32422Q10.8594 7.20703 10.9277 6.97266Q11.084 6.45508 11.4453 6.18164Q11.8066 5.9082 12.373 5.9082Q12.959 5.9082 13.3252 6.22559Q13.6914 6.54297 13.6914 7.06055Q13.6914 7.59766 13.3203 7.94434Q12.9492 8.29102 12.3633 8.29102L11.8359 8.29102Q11.6016 8.29102 11.4551 8.44727Q11.3086 8.60352 11.3086 8.86719Q11.3086 9.10156 11.4551 9.2627Q11.6016 9.42383 11.8359 9.42383L12.4121 9.42383Q13.1055 9.42383 13.5205 9.78516Q13.9355 10.1465 13.9355 10.7422Q13.9355 11.3086 13.4961 11.6943Q13.0566 12.0801 12.3535 12.0801Q11.7676 12.0801 11.3721 11.8018Q10.9766 11.5234 10.7812 11.0156Q10.6055 10.5469 10.2246 10.5469Q9.98047 10.5469 9.81934 10.7129Q9.6582 10.8789 9.6582 11.1328Q9.6582 11.2402 9.67285 11.3184Q9.6875 11.3965 9.7168 11.4941Q9.90234 12.168 10.6201 12.6855Q11.3379 13.2031 12.3438 13.2031Z" fill="#ffffff"/>
 </g>
</svg>
