<?xml version="1.0" encoding="UTF-8"?>
<!--Generator: Apple Native CoreSVG 175.5-->
<!DOCTYPE svg
PUBLIC "-//W3C//DTD SVG 1.1//EN"
       "http://www.w3.org/Graphics/SVG/1.1/DTD/svg11.dtd">
<svg version="1.1" xmlns="http://www.w3.org/2000/svg" xmlns:xlink="http://www.w3.org/1999/xlink" width="17.9785" height="17.998">
 <g>
  <rect height="17.998" opacity="0" width="17.9785" x="0" y="0"/>
  <path d="M3.06641 17.998L14.9121 17.998Q16.4453 17.998 17.2119 17.2412Q17.9785 16.4844 17.9785 14.9707L17.9785 3.04688Q17.9785 1.5332 17.2119 0.776367Q16.4453 0.0195312 14.9121 0.0195312L3.06641 0.0195312Q1.5332 0.0195312 0.766602 0.776367Q0 1.5332 0 3.04688L0 14.9707Q0 16.4844 0.766602 17.2412Q1.5332 17.998 3.06641 17.998ZM3.08594 16.4258Q2.35352 16.4258 1.96289 16.04Q1.57227 15.6543 1.57227 14.8926L1.57227 3.125Q1.57227 2.36328 1.96289 1.97754Q2.35352 1.5918 3.08594 1.5918L14.8926 1.5918Q15.6152 1.5918 16.0107 1.97754Q16.4062 2.36328 16.4062 3.125L16.4062 14.8926Q16.4062 15.6543 16.0107 16.04Q15.6152 16.4258 14.8926 16.4258Z" fill="#ffffff"/>
  <path d="M6.8457 13.1836Q7.13867 13.1836 7.29492 12.998Q7.45117 12.8125 7.45117 12.5293L7.45117 11.377L7.97852 11.377Q8.52539 11.377 8.52539 10.8398Q8.52539 10.5762 8.37402 10.4297Q8.22266 10.2832 7.97852 10.2832L7.45117 10.2832L7.45117 5.71289Q7.45117 5.29297 7.17773 5.03906Q6.9043 4.78516 6.48438 4.78516Q6.05469 4.78516 5.77148 4.95605Q5.48828 5.12695 5.25391 5.53711Q4.95117 6.05469 4.61914 6.61133Q4.28711 7.16797 3.96484 7.72461Q3.64258 8.28125 3.33984 8.80371Q3.03711 9.32617 2.79297 9.76562Q2.67578 9.99023 2.62695 10.166Q2.57812 10.3418 2.57812 10.5469Q2.57812 10.9375 2.8125 11.1572Q3.04688 11.377 3.41797 11.377L6.26953 11.377L6.26953 12.5293Q6.26953 12.8125 6.41602 12.998Q6.5625 13.1836 6.8457 13.1836ZM6.26953 10.2832L3.85742 10.2832L3.85742 10.2441Q4.02344 9.91211 4.24316 9.5166Q4.46289 9.12109 4.70703 8.69141Q4.95117 8.26172 5.20996 7.81738Q5.46875 7.37305 5.72266 6.93848Q5.97656 6.50391 6.21094 6.10352L6.26953 6.10352ZM13.5742 13.1836Q13.877 13.1836 14.0283 12.998Q14.1797 12.8125 14.1797 12.5293L14.1797 11.377L14.707 11.377Q15.2539 11.377 15.2539 10.8398Q15.2539 10.5762 15.1074 10.4297Q14.9609 10.2832 14.707 10.2832L14.1797 10.2832L14.1797 5.71289Q14.1797 5.29297 13.9111 5.03906Q13.6426 4.78516 13.2129 4.78516Q12.793 4.78516 12.5098 4.95605Q12.2266 5.12695 11.9824 5.53711Q11.6797 6.05469 11.3525 6.61133Q11.0254 7.16797 10.6982 7.72461Q10.3711 8.28125 10.0732 8.80371Q9.77539 9.32617 9.52148 9.76562Q9.4043 9.99023 9.35547 10.166Q9.30664 10.3418 9.30664 10.5469Q9.30664 10.9375 9.54102 11.1572Q9.77539 11.377 10.1465 11.377L12.998 11.377L12.998 12.5293Q12.998 12.8125 13.1445 12.998Q13.291 13.1836 13.5742 13.1836ZM12.998 10.2832L10.5859 10.2832L10.5859 10.2441Q10.7617 9.91211 10.9766 9.5166Q11.1914 9.12109 11.4404 8.69141Q11.6895 8.26172 11.9434 7.81738Q12.1973 7.37305 12.4512 6.93848Q12.7051 6.50391 12.9395 6.10352L12.998 6.10352Z" fill="#ffffff"/>
 </g>
</svg>
