<?xml version="1.0" encoding="UTF-8"?>
<!--Generator: Apple Native CoreSVG 175.5-->
<!DOCTYPE svg
PUBLIC "-//W3C//DTD SVG 1.1//EN"
       "http://www.w3.org/Graphics/SVG/1.1/DTD/svg11.dtd">
<svg version="1.1" xmlns="http://www.w3.org/2000/svg" xmlns:xlink="http://www.w3.org/1999/xlink" width="17.9785" height="17.998">
 <g>
  <rect height="17.998" opacity="0" width="17.9785" x="0" y="0"/>
  <path d="M3.06641 17.998L14.9121 17.998Q16.4453 17.998 17.2119 17.2412Q17.9785 16.4844 17.9785 14.9707L17.9785 3.04688Q17.9785 1.5332 17.2119 0.776367Q16.4453 0.0195312 14.9121 0.0195312L3.06641 0.0195312Q1.5332 0.0195312 0.766602 0.776367Q0 1.5332 0 3.04688L0 14.9707Q0 16.4844 0.766602 17.2412Q1.5332 17.998 3.06641 17.998ZM3.08594 16.4258Q2.35352 16.4258 1.96289 16.04Q1.57227 15.6543 1.57227 14.8926L1.57227 3.125Q1.57227 2.36328 1.96289 1.97754Q2.35352 1.5918 3.08594 1.5918L14.8926 1.5918Q15.6152 1.5918 16.0107 1.97754Q16.4062 2.36328 16.4062 3.125L16.4062 14.8926Q16.4062 15.6543 16.0107 16.04Q15.6152 16.4258 14.8926 16.4258Z" fill="#ffffff"/>
  <path d="M7.04102 13.1836Q7.33398 13.1836 7.49023 12.998Q7.64648 12.8125 7.64648 12.5293L7.64648 11.377L8.17383 11.377Q8.7207 11.377 8.7207 10.8398Q8.7207 10.5762 8.56934 10.4297Q8.41797 10.2832 8.17383 10.2832L7.64648 10.2832L7.64648 5.71289Q7.64648 5.29297 7.37305 5.03906Q7.09961 4.78516 6.67969 4.78516Q6.25 4.78516 5.9668 4.95605Q5.68359 5.12695 5.44922 5.53711Q5.14648 6.05469 4.81445 6.61133Q4.48242 7.16797 4.16016 7.72461Q3.83789 8.28125 3.53516 8.80371Q3.23242 9.32617 2.98828 9.76562Q2.87109 9.99023 2.82227 10.166Q2.77344 10.3418 2.77344 10.5469Q2.77344 10.9375 3.00781 11.1572Q3.24219 11.377 3.61328 11.377L6.46484 11.377L6.46484 12.5293Q6.46484 12.8125 6.61133 12.998Q6.75781 13.1836 7.04102 13.1836ZM6.46484 10.2832L4.05273 10.2832L4.05273 10.2441Q4.21875 9.91211 4.43848 9.5166Q4.6582 9.12109 4.90234 8.69141Q5.14648 8.26172 5.40527 7.81738Q5.66406 7.37305 5.91797 6.93848Q6.17188 6.50391 6.40625 6.10352L6.46484 6.10352ZM12.4219 13.2129Q13.6133 13.2129 14.3799 12.4658Q15.1465 11.7188 15.1465 10.3809Q15.1465 9.12109 14.4092 8.44727Q13.6719 7.77344 12.7246 7.77344Q11.9434 7.77344 11.4551 8.14941Q10.9668 8.52539 10.791 9.00391L10.7129 9.00391Q10.7129 8.98438 10.7129 8.96484Q10.7129 8.94531 10.7129 8.91602Q10.7129 7.5293 11.2256 6.71875Q11.7383 5.9082 12.5586 5.9082Q12.9883 5.9082 13.2861 6.09375Q13.584 6.2793 13.7695 6.5625Q13.8867 6.74805 14.0186 6.83594Q14.1504 6.92383 14.3457 6.92383Q14.5508 6.92383 14.6924 6.77734Q14.834 6.63086 14.834 6.38672Q14.834 6.20117 14.7559 6.01562Q14.6289 5.69336 14.3359 5.41016Q14.043 5.12695 13.6035 4.95605Q13.1641 4.78516 12.6074 4.78516Q11.2012 4.78516 10.3857 5.88867Q9.57031 6.99219 9.57031 9.21875Q9.57031 10.1074 9.70703 10.7715Q9.84375 11.4355 10.0977 11.8945Q10.4688 12.5977 11.0742 12.9053Q11.6797 13.2129 12.4219 13.2129ZM12.373 12.1387Q11.6895 12.1387 11.2598 11.6602Q10.8301 11.1816 10.8301 10.4199Q10.8301 9.69727 11.2549 9.23828Q11.6797 8.7793 12.373 8.7793Q13.0566 8.7793 13.4863 9.23828Q13.916 9.69727 13.916 10.4297Q13.916 11.2109 13.4961 11.6748Q13.0762 12.1387 12.373 12.1387Z" fill="#ffffff"/>
 </g>
</svg>
