<?xml version="1.0" encoding="UTF-8"?>
<!--Generator: Apple Native CoreSVG 175.5-->
<!DOCTYPE svg
PUBLIC "-//W3C//DTD SVG 1.1//EN"
       "http://www.w3.org/Graphics/SVG/1.1/DTD/svg11.dtd">
<svg version="1.1" xmlns="http://www.w3.org/2000/svg" xmlns:xlink="http://www.w3.org/1999/xlink" width="24.4141" height="20.1855">
 <g>
  <rect height="20.1855" opacity="0" width="24.4141" x="0" y="0"/>
  <path d="M2.50977 16.875L21.9043 16.875Q23.1641 16.875 23.7891 16.2646Q24.4141 15.6543 24.4141 14.3652L24.4141 3.17383Q24.4141 1.89453 23.7891 1.28418Q23.1641 0.673828 21.9043 0.673828L2.50977 0.673828Q1.25977 0.673828 0.629883 1.28418Q0 1.89453 0 3.17383L0 14.3652Q0 15.6543 0.629883 16.2646Q1.25977 16.875 2.50977 16.875ZM7.29492 20.1855L17.1191 20.1855Q17.4414 20.1855 17.6758 19.9561Q17.9102 19.7266 17.9102 19.3945Q17.9102 19.0723 17.6758 18.8379Q17.4414 18.6035 17.1191 18.6035L7.29492 18.6035Q6.97266 18.6035 6.73828 18.8379Q6.50391 19.0723 6.50391 19.3945Q6.50391 19.7266 6.73828 19.9561Q6.97266 20.1855 7.29492 20.1855Z" fill="#ffffff"/>
  <path d="M9.28711 13.2129Q8.96484 13.2129 8.78418 13.0029Q8.60352 12.793 8.60352 12.4219L8.60352 11.3965L5.20508 11.3965Q4.75586 11.3965 4.4873 11.1426Q4.21875 10.8887 4.21875 10.4785Q4.21875 10.2637 4.27246 10.0732Q4.32617 9.88281 4.47266 9.6582Q4.76562 9.16992 5.12695 8.61816Q5.48828 8.06641 5.87891 7.47559Q6.26953 6.88477 6.66504 6.29395Q7.06055 5.70312 7.43164 5.14648Q7.70508 4.7168 8.03711 4.53125Q8.36914 4.3457 8.86719 4.3457Q9.36523 4.3457 9.68262 4.61914Q10 4.89258 10 5.3418L10 10.166L10.7227 10.166Q10.9961 10.166 11.167 10.3369Q11.3379 10.5078 11.3379 10.7812Q11.3379 11.0645 11.167 11.2305Q10.9961 11.3965 10.7227 11.3965L10 11.3965L10 12.4219Q10 12.793 9.81445 13.0029Q9.62891 13.2129 9.28711 13.2129ZM8.60352 10.166L8.60352 5.56641L8.53516 5.56641Q8.23242 6.01562 7.91992 6.49414Q7.60742 6.97266 7.28516 7.45605Q6.96289 7.93945 6.66504 8.40332Q6.36719 8.86719 6.09375 9.30176Q5.82031 9.73633 5.60547 10.1074L5.60547 10.166ZM13.3105 13.1543Q12.9883 13.1543 12.8027 12.9443Q12.6172 12.7344 12.6172 12.3633L12.6172 5.20508Q12.6172 4.83398 12.8027 4.62402Q12.9883 4.41406 13.3105 4.41406Q13.6621 4.41406 13.8428 4.61914Q14.0234 4.82422 14.0234 5.20508L14.0234 8.52539L14.1504 8.52539L17.9199 4.70703Q18.0762 4.54102 18.1982 4.47754Q18.3203 4.41406 18.4863 4.41406Q18.75 4.41406 18.9355 4.58008Q19.1211 4.74609 19.1211 5Q19.1211 5.14648 19.0674 5.26855Q19.0137 5.39062 18.8965 5.49805L16.2598 8.21289L19.1309 11.9531Q19.2285 12.0801 19.2773 12.2168Q19.3262 12.3535 19.3262 12.5Q19.3262 12.7832 19.1357 12.9688Q18.9453 13.1543 18.6523 13.1543Q18.4766 13.1543 18.3252 13.0762Q18.1738 12.998 18.0371 12.8125L15.2344 9.10156L14.0234 10.3613L14.0234 12.3633Q14.0234 12.7441 13.8428 12.9492Q13.6621 13.1543 13.3105 13.1543Z" fill="none"/>
 </g>
</svg>
