<?xml version="1.0" encoding="UTF-8"?>
<!--Generator: Apple Native CoreSVG 175.5-->
<!DOCTYPE svg
PUBLIC "-//W3C//DTD SVG 1.1//EN"
       "http://www.w3.org/Graphics/SVG/1.1/DTD/svg11.dtd">
<svg version="1.1" xmlns="http://www.w3.org/2000/svg" xmlns:xlink="http://www.w3.org/1999/xlink" width="17.9785" height="17.998">
 <g>
  <rect height="17.998" opacity="0" width="17.9785" x="0" y="0"/>
  <path d="M3.06641 17.998L14.9121 17.998Q16.4453 17.998 17.2119 17.2412Q17.9785 16.4844 17.9785 14.9707L17.9785 3.04688Q17.9785 1.5332 17.2119 0.776367Q16.4453 0.0195312 14.9121 0.0195312L3.06641 0.0195312Q1.5332 0.0195312 0.766602 0.776367Q0 1.5332 0 3.04688L0 14.9707Q0 16.4844 0.766602 17.2412Q1.5332 17.998 3.06641 17.998Z" fill="#ffffff"/>
  <path d="M8.93555 13.7891Q7.73438 13.7891 6.89453 13.3398Q6.05469 12.8906 5.76172 12.1191Q5.64453 11.875 5.64453 11.6309Q5.64453 11.3379 5.83496 11.1475Q6.02539 10.957 6.32812 10.957Q6.55273 10.957 6.7334 11.0791Q6.91406 11.2012 7.04102 11.4453Q7.29492 11.9434 7.79297 12.2314Q8.29102 12.5195 8.90625 12.5195Q9.74609 12.5195 10.2979 11.9727Q10.8496 11.4258 10.8496 10.5957Q10.8496 9.75586 10.3613 9.24805Q9.87305 8.74023 9.07227 8.74023Q8.69141 8.74023 8.37402 8.87207Q8.05664 9.00391 7.70508 9.30664Q7.40234 9.53125 7.19238 9.60938Q6.98242 9.6875 6.69922 9.6875Q6.2793 9.6875 6.04492 9.42383Q5.81055 9.16016 5.84961 8.7207L6.12305 5.38086Q6.15234 4.94141 6.45508 4.68262Q6.75781 4.42383 7.25586 4.42383L11.4258 4.42383Q11.6895 4.42383 11.8555 4.59961Q12.0215 4.77539 12.0215 5.04883Q12.0215 5.32227 11.8506 5.49805Q11.6797 5.67383 11.4258 5.67383L7.40234 5.67383L7.16797 8.39844L7.23633 8.39844Q7.50977 8.02734 8.07617 7.7832Q8.64258 7.53906 9.26758 7.53906Q10.6445 7.53906 11.5186 8.37891Q12.3926 9.21875 12.3926 10.5566Q12.3926 12.0215 11.4307 12.9053Q10.4688 13.7891 8.93555 13.7891Z" fill="none"/>
 </g>
</svg>
