<?xml version="1.0" encoding="UTF-8"?>
<!--Generator: Apple Native CoreSVG 175.5-->
<!DOCTYPE svg
PUBLIC "-//W3C//DTD SVG 1.1//EN"
       "http://www.w3.org/Graphics/SVG/1.1/DTD/svg11.dtd">
<svg version="1.1" xmlns="http://www.w3.org/2000/svg" xmlns:xlink="http://www.w3.org/1999/xlink" width="19.9219" height="19.9316">
 <g>
  <rect height="19.9316" opacity="0" width="19.9219" x="0" y="0"/>
  <path d="M9.96094 19.9219Q12.002 19.9219 13.8037 19.1406Q15.6055 18.3594 16.9824 16.9824Q18.3594 15.6055 19.1406 13.8037Q19.9219 12.002 19.9219 9.96094Q19.9219 7.91992 19.1406 6.11816Q18.3594 4.31641 16.9824 2.93945Q15.6055 1.5625 13.7988 0.78125Q11.9922 0 9.95117 0Q7.91016 0 6.1084 0.78125Q4.30664 1.5625 2.93457 2.93945Q1.5625 4.31641 0.78125 6.11816Q0 7.91992 0 9.96094Q0 12.002 0.78125 13.8037Q1.5625 15.6055 2.93945 16.9824Q4.31641 18.3594 6.11816 19.1406Q7.91992 19.9219 9.96094 19.9219Z" fill="#ffffff"/>
  <path d="M6.62109 14.3164Q5.67383 14.3164 4.98047 13.877Q4.28711 13.4375 4.0625 12.8125Q4.02344 12.7148 3.99902 12.5977Q3.97461 12.4805 3.97461 12.3535Q3.97461 12.0996 4.12598 11.9336Q4.27734 11.7676 4.54102 11.7676Q4.7168 11.7676 4.86328 11.875Q5.00977 11.9824 5.12695 12.207Q5.3418 12.6562 5.75684 12.915Q6.17188 13.1738 6.67969 13.1738Q7.41211 13.1738 7.86621 12.7246Q8.32031 12.2754 8.32031 11.4844Q8.32031 10.791 7.91016 10.3223Q7.5 9.85352 6.83594 9.85352Q6.50391 9.85352 6.24023 9.97559Q5.97656 10.0977 5.66406 10.3613Q5.41992 10.5664 5.24414 10.6396Q5.06836 10.7129 4.84375 10.7129Q4.49219 10.7129 4.29688 10.4736Q4.10156 10.2344 4.12109 9.83398L4.375 6.69922Q4.39453 6.29883 4.64355 6.06934Q4.89258 5.83984 5.29297 5.83984L8.75 5.83984Q8.97461 5.83984 9.11133 6.00098Q9.24805 6.16211 9.24805 6.40625Q9.24805 6.65039 9.10645 6.81152Q8.96484 6.97266 8.75 6.97266L5.41992 6.97266L5.23438 9.56055L5.27344 9.56055Q5.49805 9.21875 5.98145 8.99414Q6.46484 8.76953 6.96289 8.76953Q8.13477 8.76953 8.85254 9.53125Q9.57031 10.293 9.57031 11.4551Q9.57031 12.7832 8.75977 13.5498Q7.94922 14.3164 6.62109 14.3164ZM13.5352 14.3164Q12.666 14.3164 12.0215 13.7891Q11.377 13.2617 11.0156 12.29Q10.6543 11.3184 10.6543 9.9707Q10.6543 8.62305 11.0156 7.65137Q11.377 6.67969 12.0215 6.15234Q12.666 5.625 13.5352 5.625Q14.4043 5.625 15.0537 6.15234Q15.7031 6.67969 16.0596 7.65137Q16.416 8.62305 16.416 9.9707Q16.416 11.3184 16.0596 12.29Q15.7031 13.2617 15.0537 13.7891Q14.4043 14.3164 13.5352 14.3164ZM13.5352 13.0859Q14.2676 13.0859 14.6826 12.251Q15.0977 11.416 15.0977 9.9707Q15.0977 8.52539 14.6777 7.69043Q14.2578 6.85547 13.5352 6.85547Q12.8223 6.85547 12.4023 7.69043Q11.9824 8.52539 11.9824 9.9707Q11.9824 11.416 12.4023 12.251Q12.8223 13.0859 13.5352 13.0859Z" fill="none"/>
 </g>
</svg>
