<?xml version="1.0" encoding="UTF-8"?>
<!--Generator: Apple Native CoreSVG 175.5-->
<!DOCTYPE svg
PUBLIC "-//W3C//DTD SVG 1.1//EN"
       "http://www.w3.org/Graphics/SVG/1.1/DTD/svg11.dtd">
<svg version="1.1" xmlns="http://www.w3.org/2000/svg" xmlns:xlink="http://www.w3.org/1999/xlink" width="17.9785" height="17.998">
 <g>
  <rect height="17.998" opacity="0" width="17.9785" x="0" y="0"/>
  <path d="M3.06641 17.998L14.9121 17.998Q16.4453 17.998 17.2119 17.2412Q17.9785 16.4844 17.9785 14.9707L17.9785 3.04688Q17.9785 1.5332 17.2119 0.776367Q16.4453 0.0195312 14.9121 0.0195312L3.06641 0.0195312Q1.5332 0.0195312 0.766602 0.776367Q0 1.5332 0 3.04688L0 14.9707Q0 16.4844 0.766602 17.2412Q1.5332 17.998 3.06641 17.998Z" fill="#ffffff"/>
  <path d="M5.66406 13.3496Q4.7168 13.3496 4.02344 12.9102Q3.33008 12.4707 3.10547 11.8457Q3.06641 11.748 3.04199 11.6309Q3.01758 11.5137 3.01758 11.3867Q3.01758 11.1328 3.16895 10.9668Q3.32031 10.8008 3.58398 10.8008Q3.75977 10.8008 3.90625 10.9082Q4.05273 11.0156 4.16992 11.2402Q4.38477 11.6895 4.7998 11.9482Q5.21484 12.207 5.72266 12.207Q6.45508 12.207 6.90918 11.7578Q7.36328 11.3086 7.36328 10.5176Q7.36328 9.82422 6.95312 9.35547Q6.54297 8.88672 5.87891 8.88672Q5.54688 8.88672 5.2832 9.00879Q5.01953 9.13086 4.70703 9.39453Q4.46289 9.59961 4.28711 9.67285Q4.11133 9.74609 3.88672 9.74609Q3.53516 9.74609 3.33984 9.50684Q3.14453 9.26758 3.16406 8.86719L3.41797 5.73242Q3.4375 5.33203 3.68652 5.10254Q3.93555 4.87305 4.33594 4.87305L7.79297 4.87305Q8.01758 4.87305 8.1543 5.03418Q8.29102 5.19531 8.29102 5.43945Q8.29102 5.68359 8.14941 5.84473Q8.00781 6.00586 7.79297 6.00586L4.46289 6.00586L4.27734 8.59375L4.31641 8.59375Q4.54102 8.25195 5.02441 8.02734Q5.50781 7.80273 6.00586 7.80273Q7.17773 7.80273 7.89551 8.56445Q8.61328 9.32617 8.61328 10.4883Q8.61328 11.8164 7.80273 12.583Q6.99219 13.3496 5.66406 13.3496ZM12.5781 13.3496Q11.709 13.3496 11.0645 12.8223Q10.4199 12.2949 10.0586 11.3232Q9.69727 10.3516 9.69727 9.00391Q9.69727 7.65625 10.0586 6.68457Q10.4199 5.71289 11.0645 5.18555Q11.709 4.6582 12.5781 4.6582Q13.4473 4.6582 14.0967 5.18555Q14.7461 5.71289 15.1025 6.68457Q15.459 7.65625 15.459 9.00391Q15.459 10.3516 15.1025 11.3232Q14.7461 12.2949 14.0967 12.8223Q13.4473 13.3496 12.5781 13.3496ZM12.5781 12.1191Q13.3105 12.1191 13.7256 11.2842Q14.1406 10.4492 14.1406 9.00391Q14.1406 7.55859 13.7207 6.72363Q13.3008 5.88867 12.5781 5.88867Q11.8652 5.88867 11.4453 6.72363Q11.0254 7.55859 11.0254 9.00391Q11.0254 10.4492 11.4453 11.2842Q11.8652 12.1191 12.5781 12.1191Z" fill="none"/>
 </g>
</svg>
