<?xml version="1.0" encoding="UTF-8"?>
<!--Generator: Apple Native CoreSVG 175.5-->
<!DOCTYPE svg
PUBLIC "-//W3C//DTD SVG 1.1//EN"
       "http://www.w3.org/Graphics/SVG/1.1/DTD/svg11.dtd">
<svg version="1.1" xmlns="http://www.w3.org/2000/svg" xmlns:xlink="http://www.w3.org/1999/xlink" width="19.9219" height="19.9316">
 <g>
  <rect height="19.9316" opacity="0" width="19.9219" x="0" y="0"/>
  <path d="M9.96094 19.9219Q12.002 19.9219 13.8037 19.1406Q15.6055 18.3594 16.9824 16.9824Q18.3594 15.6055 19.1406 13.8037Q19.9219 12.002 19.9219 9.96094Q19.9219 7.91992 19.1406 6.11816Q18.3594 4.31641 16.9824 2.93945Q15.6055 1.5625 13.7988 0.78125Q11.9922 0 9.95117 0Q7.91016 0 6.1084 0.78125Q4.30664 1.5625 2.93457 2.93945Q1.5625 4.31641 0.78125 6.11816Q0 7.91992 0 9.96094Q0 12.002 0.78125 13.8037Q1.5625 15.6055 2.93945 16.9824Q4.31641 18.3594 6.11816 19.1406Q7.91992 19.9219 9.96094 19.9219Z" fill="#ffffff"/>
  <path d="M9.98047 14.7559Q8.4082 14.7559 7.43652 13.8525Q6.46484 12.9492 6.46484 11.4941Q6.46484 10.6738 6.81641 9.81445Q7.16797 8.95508 7.93945 7.91992Q8.13477 7.66602 8.34961 7.3877Q8.56445 7.10938 8.78906 6.81641Q9.01367 6.52344 9.25293 6.2207Q9.49219 5.91797 9.73633 5.58594Q9.85352 5.43945 10.0146 5.30762Q10.1758 5.17578 10.4102 5.17578Q10.7812 5.17578 10.9424 5.36621Q11.1035 5.55664 11.1035 5.79102Q11.1035 6.02539 10.8691 6.34766Q10.6836 6.58203 10.4688 6.85059Q10.2539 7.11914 10.0342 7.39746Q9.81445 7.67578 9.60449 7.94922Q9.39453 8.22266 9.19922 8.4668Q8.96484 8.76953 8.84766 8.93555Q8.73047 9.10156 8.65234 9.22852L8.75977 9.25781Q9.00391 8.99414 9.48242 8.82324Q9.96094 8.65234 10.4688 8.65234Q11.3477 8.65234 12.0264 9.0332Q12.7051 9.41406 13.0908 10.0684Q13.4766 10.7227 13.4766 11.5527Q13.4766 12.4902 13.0322 13.2129Q12.5879 13.9355 11.8018 14.3457Q11.0156 14.7559 9.98047 14.7559ZM9.98047 13.4863Q10.8789 13.4863 11.4697 12.9492Q12.0605 12.4121 12.0605 11.6309Q12.0605 10.8301 11.4648 10.3125Q10.8691 9.79492 9.9707 9.79492Q9.08203 9.79492 8.48633 10.3125Q7.89062 10.8301 7.89062 11.6113Q7.89062 12.4121 8.49121 12.9492Q9.0918 13.4863 9.98047 13.4863Z" fill="none"/>
 </g>
</svg>
