<?xml version="1.0" encoding="UTF-8"?>
<!--Generator: Apple Native CoreSVG 175.5-->
<!DOCTYPE svg
PUBLIC "-//W3C//DTD SVG 1.1//EN"
       "http://www.w3.org/Graphics/SVG/1.1/DTD/svg11.dtd">
<svg version="1.1" xmlns="http://www.w3.org/2000/svg" xmlns:xlink="http://www.w3.org/1999/xlink" width="17.9785" height="17.998">
 <g>
  <rect height="17.998" opacity="0" width="17.9785" x="0" y="0"/>
  <path d="M3.06641 17.998L14.9121 17.998Q16.4453 17.998 17.2119 17.2412Q17.9785 16.4844 17.9785 14.9707L17.9785 3.04688Q17.9785 1.5332 17.2119 0.776367Q16.4453 0.0195312 14.9121 0.0195312L3.06641 0.0195312Q1.5332 0.0195312 0.766602 0.776367Q0 1.5332 0 3.04688L0 14.9707Q0 16.4844 0.766602 17.2412Q1.5332 17.998 3.06641 17.998Z" fill="#ffffff"/>
  <path d="M9.07227 13.7891Q8.18359 13.7891 7.40723 13.4424Q6.63086 13.0957 6.13281 12.2852Q5.82031 11.7773 5.64453 11.0205Q5.46875 10.2637 5.46875 9.21875Q5.46875 6.69922 6.50391 5.44922Q7.53906 4.19922 9.32617 4.19922Q9.98047 4.19922 10.5371 4.39453Q11.0938 4.58984 11.4893 4.90723Q11.8848 5.22461 12.041 5.5957Q12.0898 5.71289 12.1094 5.81543Q12.1289 5.91797 12.1289 6.04492Q12.1289 6.30859 11.9531 6.47461Q11.7773 6.64062 11.5234 6.64062Q11.2598 6.64062 11.0791 6.50879Q10.8984 6.37695 10.6543 6.14258Q10.4395 5.87891 10.1172 5.68359Q9.79492 5.48828 9.26758 5.48828Q8.24219 5.48828 7.59766 6.40625Q6.95312 7.32422 6.95312 8.86719Q6.95312 8.89648 6.95312 8.91602Q6.95312 8.93555 6.95312 8.97461Q6.97266 8.97461 6.99219 8.97461Q7.01172 8.97461 7.03125 8.97461Q7.27539 8.41797 7.87598 7.98828Q8.47656 7.55859 9.49219 7.55859Q10.293 7.55859 10.9814 7.90527Q11.6699 8.25195 12.0996 8.9209Q12.5293 9.58984 12.5293 10.5469Q12.5293 12.0898 11.5625 12.9395Q10.5957 13.7891 9.07227 13.7891ZM9.00391 12.5781Q9.89258 12.5781 10.4199 12.041Q10.9473 11.5039 10.9473 10.6152Q10.9473 9.77539 10.4102 9.24316Q9.87305 8.71094 9.01367 8.71094Q8.16406 8.71094 7.62207 9.24316Q7.08008 9.77539 7.08008 10.6055Q7.08008 11.4551 7.62207 12.0166Q8.16406 12.5781 9.00391 12.5781Z" fill="none"/>
 </g>
</svg>
