<?xml version="1.0" encoding="UTF-8"?>
<!--Generator: Apple Native CoreSVG 175.5-->
<!DOCTYPE svg
PUBLIC "-//W3C//DTD SVG 1.1//EN"
       "http://www.w3.org/Graphics/SVG/1.1/DTD/svg11.dtd">
<svg version="1.1" xmlns="http://www.w3.org/2000/svg" xmlns:xlink="http://www.w3.org/1999/xlink" width="19.9219" height="19.9316">
 <g>
  <rect height="19.9316" opacity="0" width="19.9219" x="0" y="0"/>
  <path d="M9.96094 19.9219Q12.002 19.9219 13.8037 19.1406Q15.6055 18.3594 16.9824 16.9824Q18.3594 15.6055 19.1406 13.8037Q19.9219 12.002 19.9219 9.96094Q19.9219 7.91992 19.1406 6.11816Q18.3594 4.31641 16.9824 2.93945Q15.6055 1.5625 13.7988 0.78125Q11.9922 0 9.95117 0Q7.91016 0 6.1084 0.78125Q4.30664 1.5625 2.93457 2.93945Q1.5625 4.31641 0.78125 6.11816Q0 7.91992 0 9.96094Q0 12.002 0.78125 13.8037Q1.5625 15.6055 2.93945 16.9824Q4.31641 18.3594 6.11816 19.1406Q7.91992 19.9219 9.96094 19.9219Z" fill="#ffffff"/>
  <path d="M8.60352 14.7461Q8.27148 14.7461 8.03711 14.541Q7.80273 14.3359 7.80273 14.0137Q7.80273 13.75 7.93945 13.4961L11.6406 6.71875L11.6406 6.64062L7.37305 6.64062Q7.10938 6.64062 6.93848 6.46484Q6.76758 6.28906 6.76758 6.01562Q6.76758 5.74219 6.93359 5.56641Q7.09961 5.39062 7.37305 5.39062L12.2949 5.39062Q12.793 5.39062 13.0957 5.66895Q13.3984 5.94727 13.3984 6.36719Q13.3984 6.5332 13.3496 6.7041Q13.3008 6.875 13.1543 7.1582L9.39453 14.1895Q9.24805 14.4824 9.05762 14.6143Q8.86719 14.7461 8.60352 14.7461Z" fill="none"/>
 </g>
</svg>
