<?xml version="1.0" encoding="UTF-8"?>
<!--Generator: Apple Native CoreSVG 175.5-->
<!DOCTYPE svg
PUBLIC "-//W3C//DTD SVG 1.1//EN"
       "http://www.w3.org/Graphics/SVG/1.1/DTD/svg11.dtd">
<svg version="1.1" xmlns="http://www.w3.org/2000/svg" xmlns:xlink="http://www.w3.org/1999/xlink" width="17.9785" height="17.998">
 <g>
  <rect height="17.998" opacity="0" width="17.9785" x="0" y="0"/>
  <path d="M3.06641 17.998L14.9121 17.998Q16.4453 17.998 17.2119 17.2412Q17.9785 16.4844 17.9785 14.9707L17.9785 3.04688Q17.9785 1.5332 17.2119 0.776367Q16.4453 0.0195312 14.9121 0.0195312L3.06641 0.0195312Q1.5332 0.0195312 0.766602 0.776367Q0 1.5332 0 3.04688L0 14.9707Q0 16.4844 0.766602 17.2412Q1.5332 17.998 3.06641 17.998Z" fill="#ffffff"/>
  <path d="M7.63672 13.7793Q7.30469 13.7793 7.07031 13.5742Q6.83594 13.3691 6.83594 13.0469Q6.83594 12.7832 6.97266 12.5293L10.6738 5.75195L10.6738 5.67383L6.40625 5.67383Q6.14258 5.67383 5.97168 5.49805Q5.80078 5.32227 5.80078 5.04883Q5.80078 4.77539 5.9668 4.59961Q6.13281 4.42383 6.40625 4.42383L11.3281 4.42383Q11.8262 4.42383 12.1289 4.70215Q12.4316 4.98047 12.4316 5.40039Q12.4316 5.56641 12.3828 5.7373Q12.334 5.9082 12.1875 6.19141L8.42773 13.2227Q8.28125 13.5156 8.09082 13.6475Q7.90039 13.7793 7.63672 13.7793Z" fill="none"/>
 </g>
</svg>
