<?xml version="1.0" encoding="UTF-8"?>
<!--Generator: Apple Native CoreSVG 175.5-->
<!DOCTYPE svg
PUBLIC "-//W3C//DTD SVG 1.1//EN"
       "http://www.w3.org/Graphics/SVG/1.1/DTD/svg11.dtd">
<svg version="1.1" xmlns="http://www.w3.org/2000/svg" xmlns:xlink="http://www.w3.org/1999/xlink" width="17.9785" height="17.998">
 <g>
  <rect height="17.998" opacity="0" width="17.9785" x="0" y="0"/>
  <path d="M3.06641 17.998L14.9121 17.998Q16.4453 17.998 17.2119 17.2412Q17.9785 16.4844 17.9785 14.9707L17.9785 3.04688Q17.9785 1.5332 17.2119 0.776367Q16.4453 0.0195312 14.9121 0.0195312L3.06641 0.0195312Q1.5332 0.0195312 0.766602 0.776367Q0 1.5332 0 3.04688L0 14.9707Q0 16.4844 0.766602 17.2412Q1.5332 17.998 3.06641 17.998Z" fill="#ffffff"/>
  <path d="M8.74023 13.7891Q7.90039 13.7891 7.2998 13.5498Q6.69922 13.3105 6.33789 12.9541Q5.97656 12.5977 5.85938 12.2461Q5.83008 12.1582 5.81543 12.0752Q5.80078 11.9922 5.80078 11.9043Q5.80078 11.6113 5.98633 11.4307Q6.17188 11.25 6.46484 11.25Q6.69922 11.25 6.86035 11.3623Q7.02148 11.4746 7.1582 11.6504Q7.4707 12.0703 7.8418 12.2852Q8.21289 12.5 8.73047 12.5Q9.77539 12.5 10.415 11.5674Q11.0547 10.6348 11.0352 8.97461L10.9668 8.97461Q10.7227 9.53125 10.1172 9.95605Q9.51172 10.3809 8.50586 10.3809Q7.72461 10.3809 7.03613 10.0342Q6.34766 9.6875 5.92285 9.02344Q5.49805 8.35938 5.49805 7.41211Q5.49805 6.43555 5.92285 5.71289Q6.34766 4.99023 7.11426 4.59473Q7.88086 4.19922 8.92578 4.19922Q10.625 4.19922 11.5625 5.34668Q12.5 6.49414 12.5 8.67188Q12.5 11.2012 11.5332 12.4951Q10.5664 13.7891 8.74023 13.7891ZM8.98438 9.23828Q9.82422 9.23828 10.3711 8.70605Q10.918 8.17383 10.918 7.36328Q10.918 6.51367 10.3662 5.95703Q9.81445 5.40039 8.99414 5.40039Q8.125 5.40039 7.59277 5.93262Q7.06055 6.46484 7.06055 7.34375Q7.06055 8.17383 7.59766 8.70605Q8.13477 9.23828 8.98438 9.23828Z" fill="none"/>
 </g>
</svg>
