<?xml version="1.0" encoding="UTF-8"?>
<!--Generator: Apple Native CoreSVG 175-->
<!DOCTYPE svg
PUBLIC "-//W3C//DTD SVG 1.1//EN"
       "http://www.w3.org/Graphics/SVG/1.1/DTD/svg11.dtd">
<svg version="1.1" xmlns="http://www.w3.org/2000/svg" xmlns:xlink="http://www.w3.org/1999/xlink" width="19.1602" height="19.1504">
 <g>
  <rect height="19.1504" opacity="0" width="19.1602" x="0" y="0"/>
  <path d="M9.57031 19.1406Q11.5527 19.1406 13.2861 18.3984Q15.0195 17.6562 16.3379 16.333Q17.6562 15.0098 18.4082 13.2764Q19.1602 11.543 19.1602 9.57031Q19.1602 7.59766 18.4082 5.86426Q17.6562 4.13086 16.3379 2.80762Q15.0195 1.48438 13.2861 0.742188Q11.5527 0 9.57031 0Q7.59766 0 5.86426 0.742188Q4.13086 1.48438 2.81738 2.80762Q1.50391 4.13086 0.751953 5.86426Q0 7.59766 0 9.57031Q0 11.543 0.74707 13.2764Q1.49414 15.0098 2.8125 16.333Q4.13086 17.6562 5.86914 18.3984Q7.60742 19.1406 9.57031 19.1406ZM6.35742 14.0234Q6.18164 14.0234 6.08398 13.9307Q5.98633 13.8379 5.98633 13.6816Q5.98633 13.6328 5.99609 13.584Q6.00586 13.5352 6.03516 13.457L9.0625 5.46875Q9.19922 5.10742 9.57031 5.10742Q9.94141 5.10742 10.0781 5.46875L13.1055 13.457Q13.1348 13.5352 13.1445 13.584Q13.1543 13.6328 13.1543 13.6914Q13.1543 13.8379 13.0518 13.9307Q12.9492 14.0234 12.8027 14.0234Q12.6465 14.0234 12.5586 13.9502Q12.4707 13.877 12.4121 13.7012L11.4648 11.1621L7.67578 11.1621L6.72852 13.7012Q6.66992 13.8867 6.58203 13.9551Q6.49414 14.0234 6.35742 14.0234ZM7.90039 10.5176L11.2402 10.5176L9.59961 6.10352L9.54102 6.10352Z" fill="#ffffff"/>
 </g>
</svg>
