<?xml version="1.0" encoding="UTF-8"?>
<!--Generator: Apple Native CoreSVG 175-->
<!DOCTYPE svg
PUBLIC "-//W3C//DTD SVG 1.1//EN"
       "http://www.w3.org/Graphics/SVG/1.1/DTD/svg11.dtd">
<svg version="1.1" xmlns="http://www.w3.org/2000/svg" xmlns:xlink="http://www.w3.org/1999/xlink" width="14.3895" height="18.9865">
 <g>
  <rect height="18.9865" opacity="0" width="14.3895" x="0" y="0"/>
  <path d="M2.63046 18.9865L11.752 18.9865Q13.0505 18.9865 13.72 18.3211Q14.3895 17.6556 14.3895 16.3626L14.3895 2.66296Q14.3895 1.36719 13.72 0.701752Q13.0505 0.0363159 11.752 0.0363159L2.63046 0.0363159Q1.33636 0.0363159 0.668182 0.701752Q0 1.36719 0 2.66296L0 16.3626Q0 17.6556 0.668182 18.3211Q1.33636 18.9865 2.63046 18.9865ZM2.65701 18.2579Q0.721588 18.2579 0.721588 16.324L0.721588 2.70157Q0.721588 0.757904 2.65701 0.757904L11.7325 0.757904Q13.661 0.757904 13.661 2.70157L13.661 16.324Q13.661 18.2579 11.7325 18.2579ZM0.0405884 6.20163L2.86804 6.20163Q4.83292 6.20163 4.83292 4.24072L4.83292 0.493774L4.19266 0.493774L4.19266 4.20471Q4.19266 5.56137 2.83875 5.56137L0.0405884 5.56137Z" fill="#ffffff"/>
 </g>
</svg>
