<?xml version="1.0" encoding="UTF-8"?>
<!--Generator: Apple Native CoreSVG 175-->
<!DOCTYPE svg
PUBLIC "-//W3C//DTD SVG 1.1//EN"
       "http://www.w3.org/Graphics/SVG/1.1/DTD/svg11.dtd">
<svg version="1.1" xmlns="http://www.w3.org/2000/svg" xmlns:xlink="http://www.w3.org/1999/xlink" width="19.4446" height="19.4614">
 <g>
  <rect height="19.4614" opacity="0" width="19.4446" x="0" y="0"/>
  <path d="M0 9.7258Q0 11.7485 0.776367 13.5297Q1.55273 15.311 2.87231 16.6376Q3.03238 16.7793 3.15201 16.6278L3.31726 16.418Q3.44101 16.2816 3.3075 16.1594Q2.07504 14.9188 1.35551 13.2581Q0.635986 11.5973 0.635986 9.7258Q0.635986 7.86285 1.34552 6.22185Q2.05505 4.58084 3.30956 3.32283Q4.56406 2.06482 6.20995 1.35178Q7.85583 0.638733 9.7258 0.638733Q11.5887 0.638733 13.2346 1.35178Q14.8805 2.06482 16.135 3.32283Q17.3895 4.58084 18.0991 6.22185Q18.8086 7.86285 18.8086 9.7258Q18.8086 11.5973 18.0877 13.2545Q17.3668 14.9117 16.1371 16.1453Q15.9966 16.2886 16.1273 16.418L16.2926 16.6138Q16.4333 16.7723 16.5582 16.6306Q17.8891 15.318 18.6668 13.5332Q19.4446 11.7485 19.4446 9.7258Q19.4446 7.72858 18.6893 5.96764Q17.934 4.2067 16.5957 2.86705Q15.2574 1.5274 13.4951 0.763702Q11.7328 0 9.7258 0Q7.71179 0 5.94948 0.763702Q4.18716 1.5274 2.84889 2.86705Q1.51062 4.2067 0.75531 5.96764Q0 7.72858 0 9.7258ZM2.8418 9.7258Q2.8418 11.1137 3.35938 12.337Q3.87695 13.5602 4.77814 14.4919Q4.90036 14.6336 5.04654 14.4849L5.21179 14.2918Q5.33829 14.1679 5.20203 14.0234Q4.40201 13.1805 3.94478 12.0764Q3.48755 10.9723 3.48755 9.7258Q3.48755 8.44879 3.97598 7.32048Q4.46442 6.19217 5.32341 5.32967Q6.1824 4.46716 7.31071 3.98087Q8.43903 3.49457 9.7258 3.49457Q11.0028 3.49457 12.1311 3.98087Q13.2594 4.46716 14.1197 5.32967Q14.98 6.19217 15.4685 7.32048Q15.957 8.44879 15.957 9.7258Q15.957 10.9723 15.4998 12.0728Q15.0426 13.1734 14.2426 14.0137Q14.1231 14.1554 14.2398 14.2891L14.4008 14.4849Q14.5372 14.6407 14.6805 14.4919Q15.5676 13.5672 16.0852 12.3405Q16.6028 11.1137 16.6028 9.7258Q16.6028 8.3075 16.0672 7.06276Q15.5316 5.81802 14.584 4.87038Q13.6363 3.92273 12.3902 3.38226Q11.1441 2.8418 9.7258 2.8418Q8.29773 2.8418 7.05299 3.38226Q5.80826 3.92273 4.86061 4.87038Q3.91296 5.81802 3.37738 7.06276Q2.8418 8.3075 2.8418 9.7258ZM3.54095 18.7337Q3.42194 18.8652 3.47794 19.024Q3.53394 19.1829 3.72116 19.1829L15.6618 19.1829Q15.8488 19.1829 15.9014 19.0205Q15.954 18.8582 15.8446 18.7337L9.94614 12.0638Q9.84344 11.9527 9.69147 11.9527Q9.53949 11.9527 9.4368 12.0638ZM5.68359 9.7258Q5.68359 10.4692 5.94238 11.1428Q6.20117 11.8164 6.6629 12.3477Q6.79642 12.5063 6.92154 12.3407L7.0993 12.1364Q7.20901 12.0125 7.10464 11.861Q6.74576 11.4351 6.53755 10.8828Q6.32935 10.3305 6.32935 9.7258Q6.32935 8.79883 6.79283 8.02757Q7.25632 7.25632 8.02757 6.79634Q8.79883 6.33636 9.7258 6.33636Q10.6458 6.33636 11.417 6.79634Q12.1883 7.25632 12.6517 8.02757Q13.1152 8.79883 13.1152 9.7258Q13.1152 10.3305 12.907 10.8828Q12.6988 11.4351 12.3398 11.868Q12.2285 12.0125 12.3383 12.1532L12.509 12.3477Q12.648 12.509 12.7747 12.3547Q13.2434 11.8164 13.5022 11.1463Q13.761 10.4762 13.761 9.7258Q13.761 8.62152 13.2137 7.70332Q12.6665 6.78513 11.7496 6.23436Q10.8328 5.68359 9.7258 5.68359Q8.61176 5.68359 7.69493 6.23436Q6.77811 6.78513 6.23085 7.70332Q5.68359 8.62152 5.68359 9.7258Z" fill="#ffffff"/>
 </g>
</svg>
