<?xml version="1.0" encoding="UTF-8"?>
<!--Generator: Apple Native CoreSVG 175-->
<!DOCTYPE svg
PUBLIC "-//W3C//DTD SVG 1.1//EN"
       "http://www.w3.org/Graphics/SVG/1.1/DTD/svg11.dtd">
<svg version="1.1" xmlns="http://www.w3.org/2000/svg" xmlns:xlink="http://www.w3.org/1999/xlink" width="19.9565" height="20.8987">
 <g>
  <rect height="20.8987" opacity="0" width="19.9565" x="0" y="0"/>
  <path d="M0.718285 11.9737L1.30468 11.9737L1.30468 9.89136L0.718285 9.89136ZM5.12655 20.8987Q5.57027 20.8987 5.85699 20.6441Q6.1437 20.3894 6.19741 19.9886Q6.25112 19.5879 6.00347 19.1399L2.11904 12.1574Q1.74719 11.5097 1.06832 11.5097Q0.57409 11.5097 0.314385 11.7795Q0.0546804 12.0493 0.0101247 12.4654Q-0.034431 12.8816 0.117089 13.3266Q0.488946 14.2683 1.02956 15.3773Q1.57018 16.4862 2.17802 17.5518Q2.78585 18.6174 3.35577 19.4284Q3.8854 20.2359 4.30067 20.5673Q4.71594 20.8987 5.12655 20.8987ZM7.28704 19.0495Q7.75579 18.7831 7.86459 18.3023Q7.97338 17.8215 7.67767 17.2827L4.66085 11.866Q4.3511 11.3274 3.89333 11.1775Q3.43557 11.0277 2.97659 11.2941Q2.69338 11.4503 2.63555 11.6663Q2.57772 11.8823 2.73122 12.153L6.43667 18.8054Q6.74062 19.3605 7.28704 19.0495ZM19.2382 11.9737L19.2382 9.89136L18.6519 9.89136L18.6519 11.9737ZM14.8301 20.8987Q15.2405 20.8987 15.6544 20.5673Q16.0683 20.2359 16.6009 19.4284Q17.168 18.6174 17.7758 17.5518Q18.3835 16.4862 18.9255 15.3773Q19.4675 14.2683 19.8394 13.3266Q19.9909 12.8816 19.9464 12.4654Q19.9019 12.0493 19.6422 11.7795Q19.3824 11.5097 18.8881 11.5097Q18.2093 11.5097 17.8374 12.1574L13.953 19.1399Q13.7053 19.5879 13.7591 19.9886Q13.8128 20.3894 14.0981 20.6441Q14.3834 20.8987 14.8301 20.8987ZM12.6694 19.0495Q13.216 19.3605 13.5171 18.8054L17.2226 12.153Q17.3789 11.8823 17.3211 11.6663Q17.2632 11.4503 16.98 11.2941Q16.5183 11.0277 16.0605 11.1775Q15.6026 11.3274 15.2929 11.866L12.2761 17.2827Q11.9831 17.8215 12.0919 18.3023Q12.2007 18.7831 12.6694 19.0495ZM0.442559 9.95041Q0.442559 10.1866 0.607583 10.3446Q0.772606 10.5026 1.00469 10.5026Q1.2409 10.5026 1.39402 10.3446Q1.54714 10.1866 1.54714 9.95041Q1.54836 7.2995 2.59641 5.32158Q3.64446 3.34366 5.538 2.25029Q7.43154 1.15692 9.97335 1.15692Q12.5222 1.15692 14.4171 2.25029Q16.312 3.34366 17.3601 5.32158Q18.4081 7.2995 18.4066 9.95041Q18.4066 10.1866 18.5611 10.3446Q18.7156 10.5026 18.9519 10.5026Q19.1813 10.5026 19.3463 10.3446Q19.5113 10.1866 19.5113 9.95041Q19.5113 7.73239 18.8366 5.91347Q18.162 4.09454 16.9066 2.78336Q15.6511 1.47217 13.8951 0.76088Q12.139 0.0495911 9.97335 0.0495911Q7.81744 0.0495911 6.06008 0.76088Q4.30273 1.47217 3.04861 2.78336Q1.79449 4.09454 1.11852 5.91347Q0.442559 7.73239 0.442559 9.95041ZM4.32653 4.22501Q5.46438 3.57071 6.89794 3.21327Q8.33151 2.85583 9.97335 2.85583Q11.625 2.85583 13.0585 3.21327Q14.4921 3.57071 15.6273 4.22501Q14.7405 3.21243 13.3146 2.57614Q11.8886 1.93985 9.97335 1.93985Q8.06524 1.93985 6.6406 2.57614Q5.21597 3.21243 4.32653 4.22501Z" fill="#ffffff"/>
 </g>
</svg>
