<?xml version="1.0" encoding="UTF-8"?>
<!--Generator: Apple Native CoreSVG 175.5-->
<!DOCTYPE svg
PUBLIC "-//W3C//DTD SVG 1.1//EN"
       "http://www.w3.org/Graphics/SVG/1.1/DTD/svg11.dtd">
<svg version="1.1" xmlns="http://www.w3.org/2000/svg" xmlns:xlink="http://www.w3.org/1999/xlink" width="21.9922" height="22.666">
 <g>
  <rect height="22.666" opacity="0" width="21.9922" x="0" y="0"/>
  <path d="M16.5234 10.3809Q17.6074 10.3809 18.1836 9.81445Q18.7598 9.24805 18.7598 8.18359L18.7598 4.78516Q18.7598 3.7207 18.1836 3.1543Q17.6074 2.58789 16.5234 2.58789L9.15039 2.58789Q8.06641 2.58789 7.49023 3.1543Q6.91406 3.7207 6.91406 4.78516L6.91406 8.18359Q6.91406 9.24805 7.49023 9.81445Q8.06641 10.3809 9.15039 10.3809ZM16.5234 20.0586Q17.6074 20.0586 18.1836 19.4971Q18.7598 18.9355 18.7598 17.8613L18.7598 14.4629Q18.7598 13.3984 18.1836 12.832Q17.6074 12.2656 16.5234 12.2656L2.23633 12.2656Q1.15234 12.2656 0.576172 12.832Q0 13.3984 0 14.4629L0 17.8613Q0 18.9355 0.576172 19.4971Q1.15234 20.0586 2.23633 20.0586Z" fill="#ffffff"/>
  <path d="M21.2793 22.6367Q21.5625 22.6367 21.7773 22.4414Q21.9922 22.2461 21.9922 21.9629L21.9922 0.673828Q21.9922 0.390625 21.7773 0.195312Q21.5625 0 21.2793 0Q20.9863 0 20.7715 0.195312Q20.5566 0.390625 20.5566 0.673828L20.5566 21.9629Q20.5566 22.2461 20.7715 22.4414Q20.9863 22.6367 21.2793 22.6367Z" fill="#ffffff"/>
 </g>
</svg>
