<?xml version="1.0" encoding="UTF-8"?>
<!--Generator: Apple Native CoreSVG 175.5-->
<!DOCTYPE svg
PUBLIC "-//W3C//DTD SVG 1.1//EN"
       "http://www.w3.org/Graphics/SVG/1.1/DTD/svg11.dtd">
<svg version="1.1" xmlns="http://www.w3.org/2000/svg" xmlns:xlink="http://www.w3.org/1999/xlink" width="16.2759" height="23.7207">
 <g>
  <rect height="23.7207" opacity="0" width="16.2759" x="0" y="0"/>
  <path d="M8.13323 23.3301Q9.16839 23.3301 10.101 22.8271Q11.0336 22.3242 11.7563 21.4502Q12.4789 20.5762 12.894 19.4727Q13.309 18.3691 13.309 17.168Q13.309 16.7969 13.2407 16.4844Q13.1723 16.1719 13.0453 15.9082Q13.2602 15.9668 13.4701 16.0205Q13.6801 16.0742 13.8852 16.1328Q14.393 16.2695 14.5639 16.499Q14.7348 16.7285 14.6664 17.168L13.9535 21.8457Q13.8852 22.2656 14.1049 22.5Q14.3246 22.7344 14.6664 22.7344Q15.0278 22.7344 15.2035 22.5244Q15.3793 22.3145 15.4379 21.9531L16.2387 16.8848Q16.3754 16.0254 16.0092 15.5322Q15.643 15.0391 14.7055 14.8242L10.3012 13.7988L10.2914 13.7012Q10.6137 13.5449 10.8188 13.2666Q11.0239 12.9883 11.1215 12.6562L14.1196 12.2266Q15.0375 12.0996 15.4623 11.5918Q15.8871 11.084 15.8871 10.1758L15.8871 6.79688Q15.8871 6.44531 15.6918 6.24512Q15.4965 6.04492 15.145 6.04492Q14.7934 6.04492 14.5981 6.24512Q14.4028 6.44531 14.4028 6.79688L14.4028 9.87305Q14.4028 10.3906 14.1391 10.6006Q13.8754 10.8105 13.3969 10.8789L11.1606 11.1816Q11.0825 10.957 10.936 10.7617Q10.7895 10.5664 10.5942 10.4297L10.5942 10.332Q11.8442 10.1074 12.518 9.37988Q13.1918 8.65234 13.1918 7.53906Q13.1918 6.60156 12.8647 5.76172Q12.5375 4.92188 11.9614 4.26758L12.0492 4.19922Q12.7621 3.69141 12.8891 2.96387Q13.016 2.23633 12.5571 1.42578L11.9809 0.478516Q11.7075 0 11.2778 0Q10.975 0 10.7748 0.195312Q10.5746 0.390625 10.5746 0.673828Q10.5746 0.800781 10.5991 0.898438Q10.6235 0.996094 10.7114 1.14258L11.2192 1.91406Q11.4535 2.29492 11.4438 2.62207Q11.434 2.94922 11.1313 3.21289Q11.0922 3.24219 11.0532 3.27637Q11.0141 3.31055 10.9653 3.33984Q10.3598 2.92969 9.63714 2.7002Q8.91448 2.4707 8.13323 2.4707Q7.36175 2.4707 6.64886 2.7002Q5.93597 2.92969 5.34027 3.33008Q5.3012 3.31055 5.25726 3.27148Q5.21331 3.23242 5.17425 3.20312Q4.88128 2.93945 4.86663 2.61719Q4.85198 2.29492 5.09612 1.91406L5.60394 1.14258Q5.68206 0.996094 5.71136 0.898438Q5.74066 0.800781 5.74066 0.673828Q5.74066 0.390625 5.54046 0.195312Q5.34027 0 5.03753 0Q4.59808 0 4.33441 0.478516L3.75823 1.42578Q3.29925 2.23633 3.4262 2.96387Q3.55316 3.69141 4.26605 4.19922L4.33441 4.24805Q3.74847 4.90234 3.41155 5.75195Q3.07464 6.60156 3.07464 7.53906Q3.07464 8.65234 3.75335 9.37988Q4.43206 10.1074 5.68206 10.332L5.68206 10.4297Q5.47698 10.5664 5.33538 10.7617Q5.19378 10.957 5.11566 11.1816L2.87933 10.8789Q2.40081 10.8105 2.13714 10.6006Q1.87347 10.3906 1.87347 9.87305L1.87347 6.79688Q1.87347 6.44531 1.67816 6.24512Q1.48284 6.04492 1.13128 6.04492Q0.779718 6.04492 0.584406 6.24512Q0.389093 6.44531 0.389093 6.79688L0.389093 10.1758Q0.389093 11.084 0.813898 11.5918Q1.2387 12.0996 2.15667 12.2266L5.15472 12.6562Q5.25237 12.9883 5.45745 13.2666Q5.66253 13.5449 5.9848 13.7012L5.9848 13.7988L1.57073 14.8242Q0.623468 15.0391 0.26214 15.5322Q-0.0991881 16.0254 0.0375306 16.8848L0.838312 21.9531Q0.88714 22.3145 1.0678 22.5244Q1.24847 22.7344 1.6098 22.7344Q1.95159 22.7344 2.17132 22.5Q2.39105 22.2656 2.32269 21.8457L1.6098 17.168Q1.54144 16.7285 1.71234 16.499Q1.88323 16.2695 2.39105 16.1328Q2.59612 16.0742 2.80609 16.0205Q3.01605 15.9668 3.22112 15.9082Q3.09417 16.1719 3.03069 16.4844Q2.96722 16.7969 2.96722 17.168Q2.96722 18.3691 3.38226 19.4727Q3.7973 20.5762 4.51995 21.4502Q5.24261 22.3242 6.17034 22.8271Q7.09808 23.3301 8.13323 23.3301Z" fill="#ffffff"/>
 </g>
</svg>
