<?xml version="1.0" encoding="UTF-8"?>
<!--Generator: Apple Native CoreSVG 175-->
<!DOCTYPE svg
PUBLIC "-//W3C//DTD SVG 1.1//EN"
       "http://www.w3.org/Graphics/SVG/1.1/DTD/svg11.dtd">
<svg version="1.1" xmlns="http://www.w3.org/2000/svg" xmlns:xlink="http://www.w3.org/1999/xlink" width="14.9749" height="24.7192">
 <g>
  <rect height="24.7192" opacity="0" width="14.9749" x="0" y="0"/>
  <path d="M7.48615 23.8293Q8.47202 23.8293 9.38358 23.3334Q10.2951 22.8375 11.0178 21.9811Q11.7405 21.1247 12.1625 20.0317Q12.5846 18.9388 12.5846 17.7446Q12.5846 17.05 12.4037 16.516Q12.2228 15.9821 11.8639 15.5779Q12.2123 15.6645 12.5558 15.7499Q12.8994 15.8353 13.2451 15.9219Q13.8233 16.0657 14.0399 16.4182Q14.2565 16.7708 14.1529 17.386L13.3486 22.4857Q13.3155 22.6805 13.4332 22.7953Q13.5509 22.9102 13.7241 22.9102Q13.9096 22.9102 13.994 22.8057Q14.0784 22.7013 14.1158 22.5087L14.9378 17.2716Q15.0745 16.4122 14.7083 15.912Q14.3421 15.4118 13.4186 15.19L9.6471 14.2981L9.64435 14.2004Q10.0861 13.9879 10.3263 13.5374Q10.5666 13.0869 10.5939 12.5931L12.9029 12.2758Q13.8491 12.1419 14.2598 11.7114Q14.6704 11.281 14.6704 10.4149L14.6704 7.19772Q14.6704 7.00089 14.5701 6.89911Q14.4698 6.79733 14.2868 6.79733Q14.1111 6.79733 14.0071 6.90613Q13.9032 7.01492 13.9032 7.19772L13.9032 10.295Q13.9032 10.8899 13.6325 11.1702Q13.3619 11.4505 12.7498 11.5399L10.5626 11.8567Q10.4915 11.5758 10.338 11.3348Q10.1845 11.0938 9.94007 10.929L9.94007 10.8313Q11.1971 10.6067 11.8322 9.87915Q12.4674 9.15161 12.4674 8.03833Q12.4674 6.91101 11.9996 5.92705Q11.5319 4.94308 10.7447 4.25354L10.9311 4.1008Q11.5947 3.56491 11.6303 2.96394Q11.6658 2.36298 11.1718 1.67892L10.0893 0.225525Q9.92832 0 9.7237 0Q9.57554 0 9.47735 0.0898743Q9.37916 0.179749 9.37916 0.329437Q9.37916 0.400085 9.40357 0.46257Q9.42798 0.525055 9.49467 0.622406L10.6072 2.06177Q10.9189 2.48489 10.9197 2.86125Q10.9204 3.23761 10.4772 3.5997Q10.4099 3.65005 10.3427 3.70529Q10.2756 3.76053 10.2057 3.81104Q9.61429 3.41492 8.92322 3.19244Q8.23215 2.96997 7.48615 2.96997Q6.74976 2.96997 6.058 3.19244Q5.36625 3.41492 4.77054 3.80829Q4.70325 3.76053 4.63474 3.70392Q4.56623 3.64731 4.49909 3.59695Q4.06544 3.23486 4.06132 2.85988Q4.0572 2.48489 4.3787 2.06177L5.4842 0.622406Q5.5553 0.525055 5.58109 0.46257Q5.60688 0.400085 5.60688 0.329437Q5.60688 0.179749 5.5051 0.0898743Q5.40333 0 5.26234 0Q5.0478 0 4.89658 0.225525L3.80726 1.67892Q3.31302 2.36298 3.34858 2.96394Q3.38413 3.56491 4.05491 4.1008L4.23572 4.24805Q3.44593 4.93759 2.97542 5.9243Q2.50492 6.91101 2.50492 8.03833Q2.50492 9.15161 3.14144 9.87915Q3.77796 10.6067 5.03498 10.8313L5.03498 10.929Q4.78763 11.0938 4.6355 11.3348Q4.48337 11.5758 4.41227 11.8567L2.22523 11.5399Q1.61304 11.4505 1.34235 11.1702Q1.07166 10.8899 1.07166 10.295L1.07166 7.19772Q1.07166 7.01492 0.967749 6.90613Q0.863837 6.79733 0.688055 6.79733Q0.505255 6.79733 0.404852 6.89911Q0.304449 7.00089 0.304449 7.19772L0.304449 10.4149Q0.304449 11.281 0.715216 11.7114Q1.12598 12.1419 2.07203 12.2758L4.38099 12.5931Q4.40845 13.0869 4.64863 13.5374Q4.8888 13.9879 5.33069 14.2004L5.33069 14.2981L1.55643 15.19Q0.630225 15.4118 0.265387 15.912Q-0.0994507 16.4122 0.037268 17.2716L0.866125 22.5087Q0.893896 22.7013 0.979651 22.8057Q1.06541 22.9102 1.25095 22.9102Q1.42399 22.9102 1.54178 22.7953Q1.65958 22.6805 1.62632 22.4857L0.822028 17.386Q0.718573 16.7708 0.935171 16.4182Q1.15177 16.0657 1.72993 15.9219Q2.07554 15.8353 2.41909 15.7499Q2.76264 15.6645 3.1084 15.5779Q2.74937 15.9821 2.56992 16.516Q2.39048 17.05 2.39048 17.7446Q2.39048 18.9388 2.81254 20.0317Q3.23459 21.1247 3.95725 21.9811Q4.67991 22.8375 5.59002 23.3334Q6.50013 23.8293 7.48615 23.8293Z" fill="#ffffff"/>
 </g>
</svg>
