<?xml version="1.0" encoding="UTF-8"?>
<!--Generator: Apple Native CoreSVG 175-->
<!DOCTYPE svg
PUBLIC "-//W3C//DTD SVG 1.1//EN"
       "http://www.w3.org/Graphics/SVG/1.1/DTD/svg11.dtd">
<svg version="1.1" xmlns="http://www.w3.org/2000/svg" xmlns:xlink="http://www.w3.org/1999/xlink" width="19.1602" height="19.1504">
 <g>
  <rect height="19.1504" opacity="0" width="19.1602" x="0" y="0"/>
  <path d="M9.57031 19.1504Q11.5527 19.1504 13.2861 18.4082Q15.0195 17.666 16.3379 16.3428Q17.6562 15.0195 18.4082 13.2861Q19.1602 11.5527 19.1602 9.58008Q19.1602 7.60742 18.4082 5.87402Q17.6562 4.14062 16.3379 2.81738Q15.0195 1.49414 13.2861 0.751953Q11.5527 0.00976562 9.57031 0.00976562Q7.59766 0.00976562 5.86426 0.751953Q4.13086 1.49414 2.81738 2.81738Q1.50391 4.14062 0.751953 5.87402Q0 7.60742 0 9.58008Q0 11.5527 0.74707 13.2861Q1.49414 15.0195 2.8125 16.3428Q4.13086 17.666 5.86914 18.4082Q7.60742 19.1504 9.57031 19.1504ZM5.60547 12.041Q5.51758 11.5625 5.72754 11.2744Q5.9375 10.9863 6.45508 10.8691L8.27148 10.4492Q8.11523 10.3223 8.00293 10.1172Q7.89062 9.91211 7.85156 9.66797L6.73828 9.51172Q6.21094 9.43359 5.97656 9.18945Q5.74219 8.94531 5.74219 8.45703L5.74219 6.76758Q5.74219 6.47461 6.02539 6.47461Q6.30859 6.47461 6.30859 6.76758L6.30859 8.38867Q6.30859 8.66211 6.43066 8.78906Q6.55273 8.91602 6.8457 8.95508L7.90039 9.11133Q7.97852 8.86719 8.125 8.7207Q7.51953 8.57422 7.20703 8.18848Q6.89453 7.80273 6.89453 7.2168Q6.89453 6.03516 7.74414 5.23438L7.71484 5.21484Q7.00195 4.63867 7.57812 3.83789L8.13477 3.10547Q8.23242 2.93945 8.39844 2.93945Q8.51562 2.93945 8.58887 3.0127Q8.66211 3.08594 8.66211 3.18359Q8.66211 3.29102 8.59375 3.38867L8.01758 4.14062Q7.86133 4.3457 7.85645 4.50684Q7.85156 4.66797 8.05664 4.81445L8.1543 4.88281Q8.48633 4.69727 8.85254 4.58496Q9.21875 4.47266 9.58008 4.47266Q9.94141 4.47266 10.3125 4.58496Q10.6836 4.69727 11.0059 4.88281L11.1035 4.81445Q11.3086 4.66797 11.3037 4.50684Q11.2988 4.3457 11.1523 4.14062L10.5664 3.38867Q10.498 3.29102 10.498 3.18359Q10.498 3.07617 10.5713 3.00781Q10.6445 2.93945 10.7617 2.93945Q10.9375 2.93945 11.0352 3.10547L11.582 3.83789Q12.168 4.63867 11.4453 5.21484L11.4258 5.23438Q12.2656 6.03516 12.2656 7.2168Q12.2656 7.8125 11.9482 8.20312Q11.6309 8.59375 11.0352 8.73047Q11.1816 8.87695 11.2598 9.11133L12.3145 8.95508Q12.6074 8.91602 12.7295 8.78906Q12.8516 8.66211 12.8516 8.38867L12.8516 6.76758Q12.8516 6.47461 13.1348 6.47461Q13.4277 6.47461 13.4277 6.76758L13.4277 8.45703Q13.4277 8.94531 13.1934 9.18945Q12.959 9.43359 12.4219 9.51172L11.2988 9.66797Q11.2793 9.92188 11.1621 10.127Q11.0449 10.332 10.8887 10.4492L12.7051 10.8691Q13.2324 10.9863 13.4375 11.2744Q13.6426 11.5625 13.5645 12.041L13.1348 14.7949Q13.0859 15.0684 12.8418 15.0684Q12.7148 15.0684 12.627 14.9707Q12.5391 14.873 12.5684 14.7363L12.9883 12.0898Q13.0664 11.543 12.5684 11.4258Q12.4512 11.3965 12.3291 11.3672Q12.207 11.3379 12.0898 11.3086Q12.2168 11.5039 12.2705 11.748Q12.3242 11.9922 12.3242 12.2754Q12.3242 13.125 11.9385 13.8721Q11.5527 14.6191 10.9277 15.083Q10.3027 15.5469 9.58008 15.5469Q8.85742 15.5469 8.23242 15.083Q7.60742 14.6191 7.22168 13.8721Q6.83594 13.125 6.83594 12.2754Q6.83594 11.9922 6.89453 11.748Q6.95312 11.5039 7.07031 11.3086Q6.95312 11.3379 6.83105 11.3672Q6.70898 11.3965 6.5918 11.4258Q6.10352 11.543 6.18164 12.0898L6.60156 14.7363Q6.62109 14.873 6.53809 14.9707Q6.45508 15.0684 6.31836 15.0684Q6.07422 15.0684 6.03516 14.7949Z" fill="#ffffff"/>
 </g>
</svg>
