<?xml version="1.0" encoding="UTF-8"?>
<!--Generator: Apple Native CoreSVG 175.5-->
<!DOCTYPE svg
PUBLIC "-//W3C//DTD SVG 1.1//EN"
       "http://www.w3.org/Graphics/SVG/1.1/DTD/svg11.dtd">
<svg version="1.1" xmlns="http://www.w3.org/2000/svg" xmlns:xlink="http://www.w3.org/1999/xlink" width="17.2363" height="21.2598">
 <g>
  <rect height="21.2598" opacity="0" width="17.2363" x="0" y="0"/>
  <path d="M2.39258 6.73828Q2.39258 9.7168 5.92773 10.7031L10.8398 12.0898Q13.2812 12.7832 13.2812 14.5508L13.2812 15.2344L14.8535 15.2344L14.8535 14.5508Q14.8535 11.5723 11.3184 10.5957L6.40625 9.20898Q3.96484 8.52539 3.96484 6.73828L3.96484 6.06445L2.39258 6.06445Z" fill="#ffffff"/>
  <path d="M5.9668 0.429688Q5.69336 0.15625 5.32227 0.0830078Q4.95117 0.00976562 4.50195 0.00976562L1.86523 0.00976562Q1.42578 0.00976562 1.05469 0.0830078Q0.683594 0.15625 0.410156 0.429688Q0.136719 0.703125 0.0683594 1.06934Q0 1.43555 0 1.875L0 4.51172Q0 4.96094 0.0683594 5.33203Q0.136719 5.70312 0.410156 5.9668Q0.683594 6.24023 1.05469 6.31348Q1.42578 6.38672 1.875 6.38672L4.50195 6.38672Q4.95117 6.38672 5.32227 6.31348Q5.69336 6.24023 5.9668 5.9668Q6.23047 5.70312 6.30371 5.33203Q6.37695 4.96094 6.37695 4.51172L6.37695 1.88477Q6.37695 1.43555 6.30371 1.06934Q6.23047 0.703125 5.9668 0.429688ZM16.8359 15.3125Q16.5625 15.0391 16.1914 14.9658Q15.8203 14.8926 15.3711 14.8926L12.7344 14.8926Q12.2949 14.8926 11.9238 14.9658Q11.5527 15.0391 11.2793 15.3125Q11.0059 15.5859 10.9375 15.9521Q10.8691 16.3184 10.8691 16.7578L10.8691 19.3945Q10.8691 19.834 10.9375 20.21Q11.0059 20.5859 11.2793 20.8496Q11.5527 21.1133 11.9238 21.1865Q12.2949 21.2598 12.7344 21.2598L15.3711 21.2598Q15.8203 21.2598 16.1914 21.1865Q16.5625 21.1133 16.8359 20.8496Q17.0996 20.5859 17.168 20.21Q17.2363 19.834 17.2363 19.3945L17.2363 16.7578Q17.2363 16.3184 17.168 15.9473Q17.0996 15.5762 16.8359 15.3125Z" fill="#ffffff"/>
 </g>
</svg>
