<?xml version="1.0" encoding="UTF-8"?>
<!--Generator: Apple Native CoreSVG 175-->
<!DOCTYPE svg
PUBLIC "-//W3C//DTD SVG 1.1//EN"
       "http://www.w3.org/Graphics/SVG/1.1/DTD/svg11.dtd">
<svg version="1.1" xmlns="http://www.w3.org/2000/svg" xmlns:xlink="http://www.w3.org/1999/xlink" width="9.10156" height="21.3379">
 <g>
  <rect height="21.3379" opacity="0" width="9.10156" x="0" y="0"/>
  <path d="M0 19.3945Q0 20.332 0.507812 20.835Q1.01562 21.3379 1.96289 21.3379L7.13867 21.3379Q8.08594 21.3379 8.59375 20.835Q9.10156 20.332 9.10156 19.3945L9.10156 1.94336Q9.10156 1.00586 8.59375 0.50293Q8.08594 0 7.13867 0L1.96289 0Q1.01562 0 0.507812 0.50293Q0 1.00586 0 1.94336ZM0.703125 19.3457L0.703125 1.98242Q0.703125 1.35742 1.03516 1.02539Q1.36719 0.693359 2.00195 0.693359L7.09961 0.693359Q7.73438 0.693359 8.06641 1.02539Q8.39844 1.35742 8.39844 1.98242L8.39844 19.3457Q8.39844 19.9805 8.06641 20.3125Q7.73438 20.6445 7.09961 20.6445L2.00195 20.6445Q1.36719 20.6445 1.03516 20.3125Q0.703125 19.9805 0.703125 19.3457ZM2.8418 12.1289Q3.34961 12.1289 3.71094 11.7725Q4.07227 11.416 4.07227 10.918Q4.07227 10.4004 3.71094 10.0391Q3.34961 9.67773 2.8418 9.67773Q2.32422 9.67773 1.96289 10.0391Q1.60156 10.4004 1.60156 10.918Q1.60156 11.416 1.96289 11.7725Q2.32422 12.1289 2.8418 12.1289ZM6.2793 12.1289Q6.78711 12.1289 7.14844 11.7725Q7.50977 11.416 7.50977 10.918Q7.50977 10.4004 7.14844 10.0391Q6.78711 9.67773 6.2793 9.67773Q5.76172 9.67773 5.40039 10.0391Q5.03906 10.4004 5.03906 10.918Q5.03906 11.416 5.40039 11.7725Q5.76172 12.1289 6.2793 12.1289ZM4.55078 8.32031Q5.37109 8.32031 6.04004 7.91504Q6.70898 7.50977 7.11426 6.83594Q7.51953 6.16211 7.51953 5.35156Q7.51953 4.53125 7.11426 3.8623Q6.70898 3.19336 6.04004 2.78809Q5.37109 2.38281 4.55078 2.38281Q3.74023 2.38281 3.07129 2.78809Q2.40234 3.19336 2.00195 3.8623Q1.60156 4.53125 1.60156 5.35156Q1.60156 6.16211 2.00195 6.83594Q2.40234 7.50977 3.07129 7.91504Q3.74023 8.32031 4.55078 8.32031ZM4.56055 6.54297Q4.07227 6.54297 3.7207 6.19629Q3.36914 5.84961 3.36914 5.35156Q3.36914 4.85352 3.7207 4.50684Q4.07227 4.16016 4.56055 4.16016Q5.06836 4.16016 5.41504 4.50684Q5.76172 4.85352 5.76172 5.35156Q5.76172 5.84961 5.41504 6.19629Q5.06836 6.54297 4.56055 6.54297Z" fill="rgba(0,0,0,0.85)"/>
 </g>
</svg>
