<?xml version="1.0" encoding="UTF-8"?>
<!--Generator: Apple Native CoreSVG 175.5-->
<!DOCTYPE svg
PUBLIC "-//W3C//DTD SVG 1.1//EN"
       "http://www.w3.org/Graphics/SVG/1.1/DTD/svg11.dtd">
<svg version="1.1" xmlns="http://www.w3.org/2000/svg" xmlns:xlink="http://www.w3.org/1999/xlink" width="17.9785" height="17.998">
 <g>
  <rect height="17.998" opacity="0" width="17.9785" x="0" y="0"/>
  <path d="M3.06641 17.998L14.9121 17.998Q16.4453 17.998 17.2119 17.2412Q17.9785 16.4844 17.9785 14.9707L17.9785 3.04688Q17.9785 1.5332 17.2119 0.776367Q16.4453 0.0195312 14.9121 0.0195312L3.06641 0.0195312Q1.5332 0.0195312 0.766602 0.776367Q0 1.5332 0 3.04688L0 14.9707Q0 16.4844 0.766602 17.2412Q1.5332 17.998 3.06641 17.998ZM3.08594 16.4258Q2.35352 16.4258 1.96289 16.04Q1.57227 15.6543 1.57227 14.8926L1.57227 3.125Q1.57227 2.36328 1.96289 1.97754Q2.35352 1.5918 3.08594 1.5918L14.8926 1.5918Q15.6152 1.5918 16.0107 1.97754Q16.4062 2.36328 16.4062 3.125L16.4062 14.8926Q16.4062 15.6543 16.0107 16.04Q15.6152 16.4258 14.8926 16.4258Z" fill="#ffffff"/>
  <path d="M9.01367 13.8672Q9.32617 13.8672 9.53125 13.6621Q9.73633 13.457 9.73633 13.1348L9.73633 8.25195L9.66797 6.18164L10.6543 7.36328L11.8066 8.53516Q12.002 8.75 12.3242 8.75Q12.627 8.75 12.832 8.5498Q13.0371 8.34961 13.0371 8.04688Q13.0371 7.74414 12.8418 7.53906L9.58008 4.29688Q9.30664 4.01367 9.01367 4.01367Q8.7207 4.01367 8.44727 4.29688L5.18555 7.53906Q4.99023 7.73438 4.99023 8.04688Q4.99023 8.34961 5.19043 8.5498Q5.39062 8.75 5.69336 8.75Q5.99609 8.75 6.21094 8.53516L7.37305 7.36328L8.34961 6.19141L8.28125 8.25195L8.28125 13.1348Q8.28125 13.457 8.48633 13.6621Q8.69141 13.8672 9.01367 13.8672Z" fill="#ffffff"/>
 </g>
</svg>
