<?xml version="1.0" encoding="UTF-8"?>
<!--Generator: Apple Native CoreSVG 175-->
<!DOCTYPE svg
PUBLIC "-//W3C//DTD SVG 1.1//EN"
       "http://www.w3.org/Graphics/SVG/1.1/DTD/svg11.dtd">
<svg version="1.1" xmlns="http://www.w3.org/2000/svg" xmlns:xlink="http://www.w3.org/1999/xlink" width="17.2383" height="18.4802">
 <g>
  <rect height="18.4802" opacity="0" width="17.2383" x="0" y="0"/>
  <path d="M11.6196 0Q9.93011 0 8.66035 0.743027Q7.39059 1.48605 6.68472 2.84325Q5.97885 4.20044 5.97885 6.03607L5.97885 15.0211L6.02417 17.3735L6.17111 17.3032L4.07547 15.116L0.639496 11.6707Q0.592651 11.6238 0.523453 11.5955Q0.454254 11.5672 0.367279 11.5672Q0.211334 11.5672 0.105667 11.6729Q0 11.7786 0 11.9513Q0 12.1016 0.118713 12.2205L6.07697 18.1665Q6.13632 18.2216 6.20041 18.2513Q6.2645 18.2809 6.35162 18.2809Q6.436 18.2809 6.50002 18.2513Q6.56403 18.2216 6.62354 18.1665L12.5816 12.2205Q12.7003 12.1016 12.7003 11.9513Q12.7003 11.7786 12.5947 11.6729Q12.489 11.5672 12.3332 11.5672Q12.2461 11.5672 12.177 11.5955Q12.1078 11.6238 12.0609 11.6707L8.62778 15.116L6.52924 17.3032L6.67618 17.3735L6.7215 15.0211L6.7215 6.02737Q6.7215 4.40948 7.3336 3.22258Q7.94571 2.03568 9.04434 1.38916Q10.143 0.742645 11.5993 0.742645Q13.0582 0.742645 14.1602 1.38916Q15.2621 2.03568 15.8803 3.22258Q16.4984 4.40948 16.4984 6.02737L16.4984 9.27902Q16.4984 9.45007 16.6047 9.54872Q16.711 9.64737 16.8684 9.64737Q17.0258 9.64737 17.132 9.54384Q17.2383 9.44031 17.2383 9.272L17.2383 6.00632Q17.2383 4.1774 16.5358 2.82837Q15.8333 1.47934 14.569 0.73967Q13.3047 0 11.6196 0Z" fill="rgba(0,0,0,0.85)"/>
 </g>
</svg>
