<?xml version="1.0" encoding="UTF-8"?>
<!--Generator: Apple Native CoreSVG 175-->
<!DOCTYPE svg
PUBLIC "-//W3C//DTD SVG 1.1//EN"
       "http://www.w3.org/Graphics/SVG/1.1/DTD/svg11.dtd">
<svg version="1.1" xmlns="http://www.w3.org/2000/svg" xmlns:xlink="http://www.w3.org/1999/xlink" width="18.0844" height="18.4558">
 <g>
  <rect height="18.4558" opacity="0" width="18.0844" x="0" y="0"/>
  <path d="M18.0844 12.83Q18.0844 11.1476 17.3428 9.87785Q16.6013 8.60809 15.2426 7.89879Q13.884 7.18948 12.0511 7.18948L3.25989 7.18948L0.90744 7.24182L0.977783 7.38159L3.16483 5.28595L6.61285 1.85699Q6.6571 1.81015 6.68541 1.73752Q6.71371 1.66489 6.71371 1.58478Q6.71371 1.42883 6.60805 1.31966Q6.50238 1.21048 6.32965 1.21048Q6.17935 1.21048 6.06323 1.32935L0.124207 7.28745Q0.0621033 7.3468 0.0310516 7.4144Q0 7.48199 0 7.5621Q0 7.64648 0.0310516 7.71408Q0.0621033 7.78168 0.124207 7.84103L6.06323 13.7991Q6.17935 13.911 6.32965 13.911Q6.50238 13.911 6.60805 13.8053Q6.71371 13.6996 6.71371 13.5437Q6.71371 13.4636 6.68541 13.391Q6.6571 13.3183 6.61285 13.2715L3.16483 9.83826L0.977783 7.73987L0.90744 7.88666L3.25989 7.93198L12.057 7.93198Q13.6777 7.93198 14.8632 8.54408Q16.0487 9.15619 16.6953 10.2548Q17.3418 11.3535 17.3418 12.8098Q17.3418 14.2688 16.6953 15.3707Q16.0487 16.4726 14.8632 17.0943Q13.6777 17.7159 12.057 17.7159L8.80554 17.7159Q8.63708 17.7159 8.53706 17.8222Q8.43704 17.9285 8.43704 18.0859Q8.43704 18.2434 8.54408 18.3496Q8.65112 18.4558 8.81256 18.4558L12.0808 18.4558Q13.9098 18.4558 15.2574 17.7533Q16.6051 17.0508 17.3447 15.7865Q18.0844 14.5222 18.0844 12.83Z" fill="#ffffff"/>
 </g>
</svg>
