<?xml version="1.0" encoding="UTF-8"?>
<!--Generator: Apple Native CoreSVG 175.5-->
<!DOCTYPE svg
PUBLIC "-//W3C//DTD SVG 1.1//EN"
       "http://www.w3.org/Graphics/SVG/1.1/DTD/svg11.dtd">
<svg version="1.1" xmlns="http://www.w3.org/2000/svg" xmlns:xlink="http://www.w3.org/1999/xlink" width="25.9082" height="17.9395">
 <g>
  <rect height="17.9395" opacity="0" width="25.9082" x="0" y="0"/>
  <path d="M14.3945 17.9102Q14.8926 17.9102 15.2148 17.5879Q15.5371 17.2656 15.5371 16.7676L15.5371 13.0371L15.8203 13.0371Q17.7148 13.0371 19.1699 13.4082Q20.625 13.7793 21.7383 14.6826Q22.8516 15.5859 23.7012 17.1875Q23.9551 17.6562 24.2725 17.7832Q24.5898 17.9102 24.9023 17.9102Q25.293 17.9102 25.6006 17.5732Q25.9082 17.2363 25.9082 16.6016Q25.9082 13.8965 25.3174 11.7334Q24.7266 9.57031 23.501 8.03711Q22.2754 6.50391 20.3662 5.69336Q18.457 4.88281 15.8203 4.88281L15.5371 4.88281L15.5371 1.19141Q15.5371 0.703125 15.2148 0.351562Q14.8926 0 14.375 0Q14.0137 0 13.7305 0.161133Q13.4473 0.322266 13.0566 0.693359L5.35156 7.90039Q5.07812 8.1543 4.96582 8.42285Q4.85352 8.69141 4.85352 8.95508Q4.85352 9.20898 4.96582 9.48242Q5.07812 9.75586 5.35156 10L13.0566 17.2754Q13.4082 17.6074 13.7207 17.7588Q14.0332 17.9102 14.3945 17.9102ZM9.54102 17.9199Q10.0391 17.9199 10.3613 17.666Q10.6836 17.4121 10.6836 17.0703L10.6836 16.7383L4.41406 10.9473Q3.96484 10.5371 3.71582 10.0293Q3.4668 9.52148 3.4668 8.96484Q3.4668 8.4082 3.71094 7.90039Q3.95508 7.39258 4.41406 6.97266L10.6836 1.23047L10.6836 0.898438Q10.6836 0.546875 10.3564 0.27832Q10.0293 0.00976562 9.52148 0.00976562Q9.16016 0.00976562 8.87695 0.170898Q8.59375 0.332031 8.20312 0.703125L0.488281 7.91016Q0.214844 8.17383 0.107422 8.44727Q0 8.7207 0 8.96484Q0 9.19922 0.107422 9.47266Q0.214844 9.74609 0.488281 10.0098L8.20312 17.2852Q8.54492 17.6172 8.8623 17.7686Q9.17969 17.9199 9.54102 17.9199Z" fill="#ffffff"/>
 </g>
</svg>
