<?xml version="1.0" encoding="UTF-8"?>
<!--Generator: Apple Native CoreSVG 175.5-->
<!DOCTYPE svg
PUBLIC "-//W3C//DTD SVG 1.1//EN"
       "http://www.w3.org/Graphics/SVG/1.1/DTD/svg11.dtd">
<svg version="1.1" xmlns="http://www.w3.org/2000/svg" xmlns:xlink="http://www.w3.org/1999/xlink" width="26.6699" height="20.4395">
 <g>
  <rect height="20.4395" opacity="0" width="26.6699" x="0" y="0"/>
  <path d="M1.96289 15.9082L9.36523 11.377Q9.84375 11.084 10.0098 10.6592Q10.1758 10.2344 10.0146 9.80469Q9.85352 9.375 9.36523 9.08203L1.96289 4.55078Q1.45508 4.23828 1.00586 4.27734Q0.556641 4.31641 0.27832 4.65332Q0 4.99023 0 5.56641L0 14.8828Q0 15.4785 0.283203 15.8105Q0.566406 16.1426 1.01562 16.1768Q1.46484 16.2109 1.96289 15.9082ZM13.3301 20.4395Q13.623 20.4395 13.8379 20.2441Q14.0527 20.0488 14.0527 19.7559L14.0527 0.693359Q14.0527 0.410156 13.8379 0.214844Q13.623 0.0195312 13.3301 0.0195312Q13.0469 0.0195312 12.832 0.214844Q12.6172 0.410156 12.6172 0.693359L12.6172 19.7559Q12.6172 20.0488 12.832 20.2441Q13.0469 20.4395 13.3301 20.4395ZM24.6973 15.9082Q25.1953 16.2109 25.6445 16.1768Q26.0938 16.1426 26.3818 15.8105Q26.6699 15.4785 26.6699 14.8828L26.6699 5.56641Q26.6699 4.99023 26.3867 4.65332Q26.1035 4.31641 25.6543 4.27734Q25.2051 4.23828 24.6973 4.55078L17.2949 9.08203Q16.8066 9.375 16.6504 9.80469Q16.4941 10.2344 16.6553 10.6592Q16.8164 11.084 17.2949 11.377Z" fill="#ffffff"/>
 </g>
</svg>
