<?xml version="1.0" encoding="UTF-8"?>
<!--Generator: Apple Native CoreSVG 175-->
<!DOCTYPE svg
PUBLIC "-//W3C//DTD SVG 1.1//EN"
       "http://www.w3.org/Graphics/SVG/1.1/DTD/svg11.dtd">
<svg version="1.1" xmlns="http://www.w3.org/2000/svg" xmlns:xlink="http://www.w3.org/1999/xlink" width="17.2852" height="17.3145">
 <g>
  <rect height="17.3145" opacity="0" width="17.2852" x="0" y="0"/>
  <path d="M2.62695 17.3145L14.6484 17.3145Q15.957 17.3145 16.6211 16.6455Q17.2852 15.9766 17.2852 14.6875L17.2852 2.65625Q17.2852 1.37695 16.6211 0.703125Q15.957 0.0292969 14.6484 0.0292969L2.62695 0.0292969Q1.33789 0.0292969 0.668945 0.693359Q0 1.35742 0 2.65625L0 14.6875Q0 15.9863 0.668945 16.6504Q1.33789 17.3145 2.62695 17.3145ZM2.65625 16.5918Q1.70898 16.5918 1.2207 16.1035Q0.732422 15.6152 0.732422 14.6582L0.732422 2.69531Q0.732422 1.72852 1.2207 1.24512Q1.70898 0.761719 2.65625 0.761719L14.6289 0.761719Q15.5566 0.761719 16.0596 1.24512Q16.5625 1.72852 16.5625 2.69531L16.5625 14.6582Q16.5625 15.6152 16.0596 16.1035Q15.5566 16.5918 14.6289 16.5918ZM11.9727 6.33789Q11.8164 6.33789 11.7188 6.44043Q11.6211 6.54297 11.6211 6.70898L11.6211 9.46289L11.6504 11.1816L10.6445 10.127L5.60547 5.08789Q5.49805 4.98047 5.33203 4.98047Q5.17578 4.98047 5.07812 5.07324Q4.98047 5.16602 4.98047 5.33203Q4.98047 5.46875 5.09766 5.5957L10.1465 10.6348L11.2012 11.6602L9.83398 11.6211L6.71875 11.6211Q6.54297 11.6211 6.44531 11.7188Q6.34766 11.8164 6.34766 11.9727Q6.34766 12.1191 6.44531 12.207Q6.54297 12.2949 6.71875 12.2949L11.9531 12.2949Q12.1094 12.2949 12.207 12.2021Q12.3047 12.1094 12.3047 11.9336L12.3047 6.70898Q12.3047 6.54297 12.2119 6.44043Q12.1191 6.33789 11.9727 6.33789Z" fill="#ffffff"/>
 </g>
</svg>
