<?xml version="1.0" encoding="UTF-8"?>
<!--Generator: Apple Native CoreSVG 175.5-->
<!DOCTYPE svg
PUBLIC "-//W3C//DTD SVG 1.1//EN"
       "http://www.w3.org/Graphics/SVG/1.1/DTD/svg11.dtd">
<svg version="1.1" xmlns="http://www.w3.org/2000/svg" xmlns:xlink="http://www.w3.org/1999/xlink" width="17.9785" height="18.2129">
 <g>
  <rect height="18.2129" opacity="0" width="17.9785" x="0" y="0"/>
  <path d="M3.06641 17.9785L14.9121 17.9785Q16.4453 17.9785 17.2119 17.2217Q17.9785 16.4648 17.9785 14.9512L17.9785 3.02734Q17.9785 1.51367 17.2119 0.756836Q16.4453 0 14.9121 0L3.06641 0Q1.5332 0 0.766602 0.756836Q0 1.51367 0 3.02734L0 14.9512Q0 16.4648 0.766602 17.2217Q1.5332 17.9785 3.06641 17.9785ZM3.08594 16.4062Q2.35352 16.4062 1.96289 16.0205Q1.57227 15.6348 1.57227 14.873L1.57227 3.10547Q1.57227 2.34375 1.96289 1.95801Q2.35352 1.57227 3.08594 1.57227L14.8926 1.57227Q15.6152 1.57227 16.0107 1.95801Q16.4062 2.34375 16.4062 3.10547L16.4062 14.873Q16.4062 15.6348 16.0107 16.0205Q15.6152 16.4062 14.8926 16.4062Z" fill="#ffffff"/>
  <path d="M3.94531 10.1758Q3.94531 11.3477 4.46777 12.2021Q4.99023 13.0566 5.88867 13.5205Q6.78711 13.9844 7.92969 13.9844Q7.98828 13.9844 8.30566 13.9844Q8.62305 13.9844 8.93066 13.9844Q9.23828 13.9844 9.26758 13.9844Q9.58984 13.9844 9.80469 13.8037Q10.0195 13.623 10.0195 13.2812Q10.0195 12.9395 9.80957 12.7637Q9.59961 12.5879 9.28711 12.5879Q9.26758 12.5879 8.95508 12.5879Q8.64258 12.5879 8.31543 12.5879Q7.98828 12.5879 7.92969 12.5879Q6.82617 12.5879 6.10352 11.9189Q5.38086 11.25 5.38086 10.0977Q5.38086 8.96484 6.11328 8.36426Q6.8457 7.76367 7.91992 7.76367L10.8301 7.76367L11.9922 7.72461L11.4258 8.14453L10.1953 9.31641Q9.99023 9.51172 9.99023 9.82422Q9.99023 10.127 10.1904 10.332Q10.3906 10.5371 10.6738 10.5371Q10.9766 10.5371 11.1816 10.332L13.7793 7.66602Q14.043 7.41211 14.043 7.08008Q14.043 6.73828 13.7793 6.48438L11.1914 3.84766Q10.9863 3.63281 10.6836 3.63281Q10.3906 3.63281 10.1904 3.83789Q9.99023 4.04297 9.99023 4.3457Q9.99023 4.64844 10.2051 4.85352L11.2207 5.83008L11.9922 6.43555L10.8301 6.39648L7.91992 6.39648Q6.77734 6.39648 5.87891 6.85059Q4.98047 7.30469 4.46289 8.14941Q3.94531 8.99414 3.94531 10.1758Z" fill="#ffffff"/>
 </g>
</svg>
