<?xml version="1.0" encoding="UTF-8"?>
<!--Generator: Apple Native CoreSVG 175-->
<!DOCTYPE svg
PUBLIC "-//W3C//DTD SVG 1.1//EN"
       "http://www.w3.org/Graphics/SVG/1.1/DTD/svg11.dtd">
<svg version="1.1" xmlns="http://www.w3.org/2000/svg" xmlns:xlink="http://www.w3.org/1999/xlink" width="19.1602" height="19.3652">
 <g>
  <rect height="19.3652" opacity="0" width="19.1602" x="0" y="0"/>
  <path d="M9.57031 19.1406Q11.5527 19.1406 13.2861 18.3984Q15.0195 17.6562 16.3379 16.333Q17.6562 15.0098 18.4082 13.2764Q19.1602 11.543 19.1602 9.57031Q19.1602 7.59766 18.4082 5.86426Q17.6562 4.13086 16.3379 2.80762Q15.0195 1.48438 13.2861 0.742188Q11.5527 0 9.57031 0Q7.59766 0 5.86426 0.742188Q4.13086 1.48438 2.81738 2.80762Q1.50391 4.13086 0.751953 5.86426Q0 7.59766 0 9.57031Q0 11.543 0.74707 13.2764Q1.49414 15.0098 2.8125 16.333Q4.13086 17.6562 5.86914 18.3984Q7.60742 19.1406 9.57031 19.1406ZM5.05859 10.6641Q5.05859 9.6875 5.49316 8.95996Q5.92773 8.23242 6.71387 7.83203Q7.5 7.43164 8.54492 7.43164L12.1387 7.43164L13.0859 7.46094L12.627 7.08008L10.9375 5.42969Q10.8105 5.30273 10.8105 5.14648Q10.8105 5 10.9033 4.89258Q10.9961 4.78516 11.1719 4.78516Q11.3281 4.78516 11.4453 4.88281L13.9258 7.42188Q14.082 7.57812 14.082 7.7832Q14.082 7.96875 13.9258 8.13477L11.4355 10.6738Q11.3086 10.791 11.1719 10.791Q11.0059 10.791 10.9082 10.6836Q10.8105 10.5762 10.8105 10.4199Q10.8105 10.2734 10.9375 10.127L12.666 8.4375L13.0762 8.10547L12.1387 8.125L8.54492 8.125Q7.28516 8.125 6.52832 8.82812Q5.77148 9.53125 5.77148 10.6641Q5.77148 11.8164 6.5332 12.5244Q7.29492 13.2324 8.54492 13.2324L10.0391 13.2324Q10.2051 13.2324 10.3027 13.3252Q10.4004 13.418 10.4004 13.5742Q10.4004 13.7402 10.2979 13.8379Q10.1953 13.9355 10.0488 13.9355L8.54492 13.9355Q7.50977 13.9355 6.71875 13.5254Q5.92773 13.1152 5.49316 12.3828Q5.05859 11.6504 5.05859 10.6641Z" fill="rgba(0,0,0,0.85)"/>
 </g>
</svg>
