<?xml version="1.0" encoding="UTF-8"?>
<!--Generator: Apple Native CoreSVG 175-->
<!DOCTYPE svg
PUBLIC "-//W3C//DTD SVG 1.1//EN"
       "http://www.w3.org/Graphics/SVG/1.1/DTD/svg11.dtd">
<svg version="1.1" xmlns="http://www.w3.org/2000/svg" xmlns:xlink="http://www.w3.org/1999/xlink" width="24.541" height="17.0605">
 <g>
  <rect height="17.0605" opacity="0" width="24.541" x="0" y="0"/>
  <path d="M13.4766 17.041Q13.8184 17.041 14.0039 16.8164Q14.1895 16.5918 14.1895 16.2695L14.1895 12.1582L14.6094 12.1582Q16.8359 12.1582 18.4912 12.5879Q20.1465 13.0176 21.2891 13.9648Q22.4316 14.9121 23.1152 16.4648Q23.2715 16.7969 23.4521 16.9189Q23.6328 17.041 23.877 17.041Q24.1504 17.041 24.3457 16.8262Q24.541 16.6113 24.541 16.2305Q24.541 13.3203 23.8525 11.1963Q23.1641 9.07227 21.8652 7.69043Q20.5664 6.30859 18.7305 5.63965Q16.8945 4.9707 14.6094 4.9707L14.1895 4.9707L14.1895 0.791016Q14.1895 0.458984 14.0039 0.229492Q13.8184 0 13.4766 0Q13.2324 0 13.0371 0.112305Q12.8418 0.224609 12.6562 0.410156L5 7.51953Q4.69727 7.80273 4.57031 8.03223Q4.44336 8.26172 4.44336 8.52539Q4.44336 8.7793 4.57031 9.01367Q4.69727 9.24805 5 9.52148L12.6562 16.6504Q12.8418 16.8262 13.042 16.9336Q13.2422 17.041 13.4766 17.041ZM9.0332 17.041Q9.375 17.041 9.56055 16.8359Q9.74609 16.6309 9.74609 16.3379L9.74609 15.1074L4.4043 10.1465Q3.92578 9.70703 3.71582 9.32129Q3.50586 8.93555 3.50586 8.52539Q3.50586 8.10547 3.71582 7.72461Q3.92578 7.34375 4.4043 6.89453L9.74609 1.94336L9.74609 0.722656Q9.74609 0.429688 9.56055 0.219727Q9.375 0.00976562 9.02344 0.00976562Q8.78906 0.00976562 8.59375 0.117188Q8.39844 0.224609 8.20312 0.410156L0.556641 7.5293Q0.185547 7.86133 0.0927734 8.09082Q0 8.32031 0 8.52539Q0 8.73047 0.0976562 8.95996Q0.195312 9.18945 0.556641 9.52148L8.20312 16.6602Q8.38867 16.8262 8.59375 16.9336Q8.79883 17.041 9.0332 17.041Z" fill="#ffffff"/>
 </g>
</svg>
