<?xml version="1.0" encoding="UTF-8"?>
<!--Generator: Apple Native CoreSVG 175.5-->
<!DOCTYPE svg
PUBLIC "-//W3C//DTD SVG 1.1//EN"
       "http://www.w3.org/Graphics/SVG/1.1/DTD/svg11.dtd">
<svg version="1.1" xmlns="http://www.w3.org/2000/svg" xmlns:xlink="http://www.w3.org/1999/xlink" width="17.9785" height="17.998">
 <g>
  <rect height="17.998" opacity="0" width="17.9785" x="0" y="0"/>
  <path d="M3.06641 17.998L14.9121 17.998Q16.4453 17.998 17.2119 17.2412Q17.9785 16.4844 17.9785 14.9707L17.9785 3.04688Q17.9785 1.5332 17.2119 0.776367Q16.4453 0.0195312 14.9121 0.0195312L3.06641 0.0195312Q1.5332 0.0195312 0.766602 0.776367Q0 1.5332 0 3.04688L0 14.9707Q0 16.4844 0.766602 17.2412Q1.5332 17.998 3.06641 17.998ZM3.08594 16.4258Q2.35352 16.4258 1.96289 16.04Q1.57227 15.6543 1.57227 14.8926L1.57227 3.125Q1.57227 2.36328 1.96289 1.97754Q2.35352 1.5918 3.08594 1.5918L14.8926 1.5918Q15.6152 1.5918 16.0107 1.97754Q16.4062 2.36328 16.4062 3.125L16.4062 14.8926Q16.4062 15.6543 16.0107 16.04Q15.6152 16.4258 14.8926 16.4258Z" fill="#ffffff"/>
  <path d="M14.043 10.1855Q14.043 9.00391 13.5254 8.15918Q13.0078 7.31445 12.1094 6.86035Q11.2109 6.40625 10.0684 6.40625L7.1582 6.40625L5.99609 6.44531L6.76758 5.83984L7.7832 4.86328Q7.99805 4.6582 7.99805 4.35547Q7.99805 4.05273 7.79785 3.84766Q7.59766 3.64258 7.30469 3.64258Q7.00195 3.64258 6.79688 3.85742L4.20898 6.49414Q3.94531 6.74805 3.94531 7.08984Q3.94531 7.42188 4.20898 7.67578L6.80664 10.3418Q7.01172 10.5469 7.31445 10.5469Q7.59766 10.5469 7.79785 10.3418Q7.99805 10.1367 7.99805 9.83398Q7.99805 9.52148 7.79297 9.32617L6.57227 8.1543L5.99609 7.73438L7.1582 7.77344L10.0684 7.77344Q11.1523 7.77344 11.8799 8.37402Q12.6074 8.97461 12.6074 10.1074Q12.6074 11.2598 11.8896 11.9287Q11.1719 12.5977 10.0586 12.5977Q10 12.5977 9.67773 12.5977Q9.35547 12.5977 9.03809 12.5977Q8.7207 12.5977 8.70117 12.5977Q8.39844 12.5977 8.18359 12.7734Q7.96875 12.9492 7.96875 13.291Q7.96875 13.6328 8.18359 13.8135Q8.39844 13.9941 8.7207 13.9941Q8.75 13.9941 9.05762 13.9941Q9.36523 13.9941 9.68262 13.9941Q10 13.9941 10.0586 13.9941Q11.2012 13.9941 12.1045 13.5303Q13.0078 13.0664 13.5254 12.2119Q14.043 11.3574 14.043 10.1855Z" fill="#ffffff"/>
 </g>
</svg>
