<?xml version="1.0" encoding="UTF-8"?>
<!--Generator: Apple Native CoreSVG 175-->
<!DOCTYPE svg
PUBLIC "-//W3C//DTD SVG 1.1//EN"
       "http://www.w3.org/Graphics/SVG/1.1/DTD/svg11.dtd">
<svg version="1.1" xmlns="http://www.w3.org/2000/svg" xmlns:xlink="http://www.w3.org/1999/xlink" width="14.3442" height="18.0817">
 <g>
  <rect height="18.0817" opacity="0" width="14.3442" x="0" y="0"/>
  <path d="M12.7238 18.0817Q13.1438 18.0817 13.494 18.0789Q13.8441 18.0762 13.9844 18.0484Q14.0785 18.0305 14.1615 17.9877Q14.2445 17.9449 14.2944 17.8703Q14.3442 17.7957 14.3442 17.6753Q14.3442 17.5055 14.2323 17.4039Q14.1203 17.3024 13.9531 17.3024Q13.8329 17.3024 13.5354 17.3157Q13.2379 17.3289 12.7696 17.3289Q10.8977 17.3289 9.73442 16.7686Q8.57117 16.2082 8.02971 15.0373Q7.48825 13.8664 7.48825 12.0285L7.491 3.45749L7.45514 1.1528L9.47861 3.24493L13.5957 7.36221Q13.6426 7.40906 13.7193 7.43248Q13.7961 7.4559 13.8734 7.4559Q14.0239 7.4559 14.1331 7.35237Q14.2422 7.24884 14.2422 7.08435Q14.2422 6.92963 14.1261 6.80817L7.39578 0.117188Q7.28134 0 7.12112 0Q6.96091 0 6.84647 0.117188L0.118713 6.80817Q0 6.92963 0 7.08435Q0 7.24884 0.109177 7.35237Q0.218353 7.4559 0.368805 7.4559Q0.446167 7.4559 0.522919 7.43248Q0.59967 7.40906 0.646515 7.36221L4.76364 3.24493L6.78436 1.15555L6.7511 3.45749L6.7511 12.0461Q6.7511 15.152 8.16055 16.6168Q9.57001 18.0817 12.7238 18.0817Z" fill="rgba(0,0,0,0.85)"/>
 </g>
</svg>
