<?xml version="1.0" encoding="UTF-8"?>
<!--Generator: Apple Native CoreSVG 175-->
<!DOCTYPE svg
PUBLIC "-//W3C//DTD SVG 1.1//EN"
       "http://www.w3.org/Graphics/SVG/1.1/DTD/svg11.dtd">
<svg version="1.1" xmlns="http://www.w3.org/2000/svg" xmlns:xlink="http://www.w3.org/1999/xlink" width="17.2852" height="17.5098">
 <g>
  <rect height="17.5098" opacity="0" width="17.2852" x="0" y="0"/>
  <path d="M2.62695 17.2852L14.6484 17.2852Q15.957 17.2852 16.6211 16.6162Q17.2852 15.9473 17.2852 14.6582L17.2852 2.62695Q17.2852 1.34766 16.6211 0.673828Q15.957 0 14.6484 0L2.62695 0Q1.33789 0 0.668945 0.664062Q0 1.32812 0 2.62695L0 14.6582Q0 15.957 0.668945 16.6211Q1.33789 17.2852 2.62695 17.2852ZM2.65625 16.5625Q1.70898 16.5625 1.2207 16.0742Q0.732422 15.5859 0.732422 14.6289L0.732422 2.66602Q0.732422 1.69922 1.2207 1.21582Q1.70898 0.732422 2.65625 0.732422L14.6289 0.732422Q15.5566 0.732422 16.0596 1.21582Q16.5625 1.69922 16.5625 2.66602L16.5625 14.6289Q16.5625 15.5859 16.0596 16.0742Q15.5566 16.5625 14.6289 16.5625ZM3.96484 9.76562Q3.96484 10.791 4.42383 11.5479Q4.88281 12.3047 5.69336 12.7246Q6.50391 13.1445 7.57812 13.1445Q7.71484 13.1445 8.08105 13.1445Q8.44727 13.1445 8.78418 13.1445Q9.12109 13.1445 9.14062 13.1445Q9.29688 13.1445 9.39941 13.0518Q9.50195 12.959 9.50195 12.793Q9.50195 12.627 9.39941 12.5391Q9.29688 12.4512 9.14062 12.4512Q9.12109 12.4512 8.78418 12.4512Q8.44727 12.4512 8.08105 12.4512Q7.71484 12.4512 7.57812 12.4512Q6.2793 12.4512 5.46875 11.7139Q4.6582 10.9766 4.6582 9.75586Q4.6582 8.53516 5.46875 7.8125Q6.2793 7.08984 7.57812 7.08984L11.3281 7.08984L12.373 7.06055L11.8945 7.44141L10.0977 9.22852Q9.96094 9.35547 9.96094 9.50195Q9.96094 9.64844 10.0586 9.75098Q10.1562 9.85352 10.3125 9.85352Q10.459 9.85352 10.5762 9.74609L13.1738 7.09961Q13.3203 6.94336 13.3203 6.74805Q13.3203 6.55273 13.1738 6.39648L10.5762 3.75Q10.4688 3.64258 10.3125 3.64258Q10.1562 3.64258 10.0586 3.74512Q9.96094 3.84766 9.96094 3.99414Q9.96094 4.14062 10.0977 4.26758L11.8555 6.01562L12.373 6.43555L11.3281 6.40625L7.57812 6.40625Q6.50391 6.40625 5.69336 6.82129Q4.88281 7.23633 4.42383 7.99316Q3.96484 8.75 3.96484 9.76562Z" fill="#ffffff"/>
 </g>
</svg>
