<?xml version="1.0" encoding="UTF-8"?>
<!--Generator: Apple Native CoreSVG 175-->
<!DOCTYPE svg
PUBLIC "-//W3C//DTD SVG 1.1//EN"
       "http://www.w3.org/Graphics/SVG/1.1/DTD/svg11.dtd">
<svg version="1.1" xmlns="http://www.w3.org/2000/svg" xmlns:xlink="http://www.w3.org/1999/xlink" width="19.1602" height="19.1504">
 <g>
  <rect height="19.1504" opacity="0" width="19.1602" x="0" y="0"/>
  <path d="M9.57031 19.1406Q11.5527 19.1406 13.2861 18.3984Q15.0195 17.6562 16.3379 16.333Q17.6562 15.0098 18.4082 13.2764Q19.1602 11.543 19.1602 9.57031Q19.1602 7.59766 18.4082 5.86426Q17.6562 4.13086 16.3379 2.80762Q15.0195 1.48438 13.2861 0.742188Q11.5527 0 9.57031 0Q7.59766 0 5.86426 0.742188Q4.13086 1.48438 2.81738 2.80762Q1.50391 4.13086 0.751953 5.86426Q0 7.59766 0 9.57031Q0 11.543 0.74707 13.2764Q1.49414 15.0098 2.8125 16.333Q4.13086 17.6562 5.86914 18.3984Q7.60742 19.1406 9.57031 19.1406ZM9.58008 14.4043Q9.42383 14.4043 9.31641 14.3018Q9.20898 14.1992 9.20898 14.0332L9.20898 7.31445L9.24805 5.83984L8.03711 7.08008L6.29883 8.82812Q6.18164 8.93555 6.03516 8.93555Q5.88867 8.93555 5.79102 8.84277Q5.69336 8.75 5.69336 8.60352Q5.69336 8.45703 5.79102 8.35938L9.31641 4.83398Q9.43359 4.7168 9.58008 4.7168Q9.72656 4.7168 9.84375 4.83398L13.3789 8.35938Q13.4766 8.45703 13.4766 8.60352Q13.4766 8.75 13.374 8.84277Q13.2715 8.93555 13.1348 8.93555Q12.9785 8.93555 12.8711 8.82812L11.1328 7.08008L9.90234 5.83008L9.94141 7.31445L9.94141 14.0332Q9.94141 14.1992 9.84375 14.3018Q9.74609 14.4043 9.58008 14.4043Z" fill="#ffffff"/>
 </g>
</svg>
