<?xml version="1.0" encoding="UTF-8"?>
<!--Generator: Apple Native CoreSVG 175.5-->
<!DOCTYPE svg
PUBLIC "-//W3C//DTD SVG 1.1//EN"
       "http://www.w3.org/Graphics/SVG/1.1/DTD/svg11.dtd">
<svg version="1.1" xmlns="http://www.w3.org/2000/svg" xmlns:xlink="http://www.w3.org/1999/xlink" width="18.2129" height="23.623">
 <g>
  <rect height="23.623" opacity="0" width="18.2129" x="0" y="0"/>
  <path d="M9.11133 0Q8.73047 0 8.48145 0.239258Q8.23242 0.478516 8.23242 0.859375L8.23242 4.99023L8.30078 7.01172L5.71289 4.23828Q5.58594 4.10156 5.4248 4.04785Q5.26367 3.99414 5.08789 3.99414Q4.7168 3.99414 4.47754 4.23828Q4.23828 4.48242 4.23828 4.84375Q4.23828 5.0293 4.31152 5.19043Q4.38477 5.35156 4.53125 5.50781L8.45703 9.44336Q8.59375 9.58984 8.75977 9.66797Q8.92578 9.74609 9.11133 9.74609Q9.28711 9.74609 9.45801 9.66797Q9.62891 9.58984 9.76562 9.44336L13.6914 5.50781Q13.8379 5.35156 13.9111 5.19043Q13.9844 5.0293 13.9844 4.84375Q13.9844 4.48242 13.7451 4.23828Q13.5059 3.99414 13.1348 3.99414Q12.959 3.99414 12.7979 4.04785Q12.6367 4.10156 12.5098 4.23828L9.92188 7.01172L9.98047 4.99023L9.98047 0.859375Q9.98047 0.478516 9.73633 0.239258Q9.49219 0 9.11133 0ZM0 11.6309Q0 12.0117 0.239258 12.2559Q0.478516 12.5 0.859375 12.5L17.3633 12.5Q17.7344 12.5 17.9736 12.2559Q18.2129 12.0117 18.2129 11.6309Q18.2129 11.25 17.9736 11.001Q17.7344 10.752 17.3633 10.752L0.859375 10.752Q0.478516 10.752 0.239258 11.001Q0 11.25 0 11.6309ZM9.11133 23.2617Q9.49219 23.2617 9.73633 23.0176Q9.98047 22.7734 9.98047 22.3926L9.98047 18.2617L9.92188 16.25L12.5098 19.0137Q12.6367 19.1504 12.7979 19.2041Q12.959 19.2578 13.1348 19.2578Q13.5059 19.2578 13.7451 19.0137Q13.9844 18.7695 13.9844 18.4082Q13.9844 18.2227 13.9111 18.0615Q13.8379 17.9004 13.6914 17.7441L9.76562 13.8086Q9.62891 13.6621 9.45801 13.584Q9.28711 13.5059 9.11133 13.5059Q8.92578 13.5059 8.75977 13.584Q8.59375 13.6621 8.45703 13.8086L4.53125 17.7441Q4.38477 17.9004 4.31152 18.0615Q4.23828 18.2227 4.23828 18.4082Q4.23828 18.7695 4.47754 19.0137Q4.7168 19.2578 5.08789 19.2578Q5.26367 19.2578 5.4248 19.2041Q5.58594 19.1504 5.71289 19.0137L8.30078 16.25L8.23242 18.2617L8.23242 22.3926Q8.23242 22.7734 8.48145 23.0176Q8.73047 23.2617 9.11133 23.2617Z" fill="#ffffff"/>
 </g>
</svg>
