<?xml version="1.0" encoding="UTF-8"?>
<!--Generator: Apple Native CoreSVG 175.5-->
<!DOCTYPE svg
PUBLIC "-//W3C//DTD SVG 1.1//EN"
       "http://www.w3.org/Graphics/SVG/1.1/DTD/svg11.dtd">
<svg version="1.1" xmlns="http://www.w3.org/2000/svg" xmlns:xlink="http://www.w3.org/1999/xlink" width="15.9277" height="15.5371">
 <g>
  <rect height="15.5371" opacity="0" width="15.9277" x="0" y="0"/>
  <path d="M14.7559 0.00976562Q14.4629 0.00976562 14.2041 0.12207Q13.9453 0.234375 13.6426 0.380859L1.09375 6.47461Q0.46875 6.77734 0.234375 7.08008Q0 7.38281 0 7.77344Q0 8.16406 0.234375 8.4668Q0.46875 8.76953 1.09375 9.08203L13.6426 15.166Q13.9551 15.3223 14.2139 15.4297Q14.4727 15.5371 14.7656 15.5371Q15.3027 15.5371 15.6152 15.1562Q15.9277 14.7754 15.9277 14.1406L15.9277 1.40625Q15.9277 0.771484 15.6104 0.390625Q15.293 0.00976562 14.7559 0.00976562ZM14.2578 1.86523Q14.3555 1.86523 14.3555 1.98242L14.3652 13.5645Q14.3652 13.6816 14.2676 13.6816Q14.2383 13.6816 14.209 13.667Q14.1797 13.6523 14.1504 13.6426L2.1875 7.88086Q2.14844 7.87109 2.12402 7.8418Q2.09961 7.8125 2.09961 7.77344Q2.09961 7.73438 2.12402 7.70996Q2.14844 7.68555 2.1875 7.66602L14.1406 1.91406Q14.1699 1.89453 14.1992 1.87988Q14.2285 1.86523 14.2578 1.86523Z" fill="#ffffff"/>
 </g>
</svg>
