<?xml version="1.0" encoding="UTF-8"?>
<!--Generator: Apple Native CoreSVG 175-->
<!DOCTYPE svg
PUBLIC "-//W3C//DTD SVG 1.1//EN"
       "http://www.w3.org/Graphics/SVG/1.1/DTD/svg11.dtd">
<svg version="1.1" xmlns="http://www.w3.org/2000/svg" xmlns:xlink="http://www.w3.org/1999/xlink" width="18.2227" height="18.2129">
 <g>
  <rect height="18.2129" opacity="0" width="18.2227" x="0" y="0"/>
  <path d="M0.380859 7.45117Q0.566406 7.45117 0.673828 7.33398Q0.78125 7.2168 0.78125 7.04102L0.78125 4.3457L0.673828 1.18164L4.13086 4.66797L7.50977 8.06641Q7.62695 8.18359 7.77344 8.18359Q7.96875 8.18359 8.07617 8.07617Q8.18359 7.96875 8.18359 7.79297Q8.18359 7.70508 8.1543 7.63672Q8.125 7.56836 8.07617 7.50977L4.64844 4.08203L1.18164 0.664062L4.35547 0.78125L7.04102 0.78125Q7.20703 0.78125 7.3291 0.673828Q7.45117 0.566406 7.45117 0.390625Q7.45117 0.214844 7.33887 0.107422Q7.22656 0 7.04102 0L0.693359 0Q0.380859 0 0.19043 0.185547Q0 0.371094 0 0.693359L0 7.04102Q0 7.20703 0.102539 7.3291Q0.205078 7.45117 0.380859 7.45117ZM11.1719 18.2129L17.5195 18.2129Q17.8418 18.2129 18.0322 18.0273Q18.2227 17.8418 18.2227 17.5195L18.2227 11.1719Q18.2227 11.0059 18.1152 10.8838Q18.0078 10.7617 17.832 10.7617Q17.6562 10.7617 17.5439 10.8789Q17.4316 10.9961 17.4316 11.1719L17.4316 13.8672L17.5391 17.0215L14.082 13.5352L10.7031 10.1367Q10.5957 10.0293 10.4297 10.0293Q10.2539 10.0293 10.1367 10.1367Q10.0195 10.2441 10.0195 10.4199Q10.0195 10.5078 10.0488 10.5811Q10.0781 10.6543 10.1367 10.7031L13.5547 14.1211L17.0312 17.5391L13.8672 17.4219L11.1719 17.4219Q11.0059 17.4219 10.8887 17.5342Q10.7715 17.6465 10.7617 17.8223Q10.7617 17.998 10.8789 18.1055Q10.9961 18.2129 11.1719 18.2129Z" fill="#ffffff"/>
 </g>
</svg>
