<?xml version="1.0" encoding="UTF-8"?>
<!--Generator: Apple Native CoreSVG 175.5-->
<!DOCTYPE svg
PUBLIC "-//W3C//DTD SVG 1.1//EN"
       "http://www.w3.org/Graphics/SVG/1.1/DTD/svg11.dtd">
<svg version="1.1" xmlns="http://www.w3.org/2000/svg" xmlns:xlink="http://www.w3.org/1999/xlink" width="19.9219" height="19.9316">
 <g>
  <rect height="19.9316" opacity="0" width="19.9219" x="0" y="0"/>
  <path d="M9.96094 19.9219Q12.002 19.9219 13.8037 19.1406Q15.6055 18.3594 16.9824 16.9824Q18.3594 15.6055 19.1406 13.8037Q19.9219 12.002 19.9219 9.96094Q19.9219 7.91992 19.1406 6.11816Q18.3594 4.31641 16.9824 2.93945Q15.6055 1.5625 13.7988 0.78125Q11.9922 0 9.95117 0Q7.91016 0 6.1084 0.78125Q4.30664 1.5625 2.93457 2.93945Q1.5625 4.31641 0.78125 6.11816Q0 7.91992 0 9.96094Q0 12.002 0.78125 13.8037Q1.5625 15.6055 2.93945 16.9824Q4.31641 18.3594 6.11816 19.1406Q7.91992 19.9219 9.96094 19.9219Z" fill="#ffffff"/>
  <path d="M9.98047 4.82422Q10.3125 4.82422 10.5225 5.03906Q10.7324 5.25391 10.7324 5.58594L10.7324 10.5957L10.6543 12.7441L11.6699 11.5234L12.8516 10.3223Q13.0566 10.0977 13.3887 10.0977Q13.7012 10.0977 13.916 10.3076Q14.1309 10.5176 14.1309 10.8301Q14.1309 11.1523 13.9258 11.3574L10.5664 14.707Q10.2832 14.9902 9.98047 14.9902Q9.67773 14.9902 9.39453 14.707L6.03516 11.3574Q5.83008 11.1621 5.83008 10.8301Q5.83008 10.5176 6.04004 10.3076Q6.25 10.0977 6.5625 10.0977Q6.875 10.0977 7.09961 10.3223L8.29102 11.5234L9.29688 12.7344L9.21875 10.5957L9.21875 5.58594Q9.21875 5.25391 9.43359 5.03906Q9.64844 4.82422 9.98047 4.82422Z" fill="none"/>
 </g>
</svg>
