<?xml version="1.0" encoding="UTF-8"?>
<!--Generator: Apple Native CoreSVG 175-->
<!DOCTYPE svg
PUBLIC "-//W3C//DTD SVG 1.1//EN"
       "http://www.w3.org/Graphics/SVG/1.1/DTD/svg11.dtd">
<svg version="1.1" xmlns="http://www.w3.org/2000/svg" xmlns:xlink="http://www.w3.org/1999/xlink" width="22.6617" height="21.5425">
 <g>
  <rect height="21.5425" opacity="0" width="22.6617" x="0" y="0"/>
  <path d="M0 16.8063Q0 18.1019 0.668182 18.7673Q1.33636 19.4328 2.63046 19.4328L20.0243 19.4328Q21.3281 19.4328 21.9949 18.7603Q22.6617 18.0878 22.6617 16.8063L22.6617 4.76982Q22.6617 3.48824 21.9949 2.81578Q21.3281 2.14333 20.0243 2.14333L11.9789 2.14333Q11.8254 2.14333 11.7176 2.24976Q11.6098 2.35619 11.6098 2.50267Q11.6098 2.65618 11.7176 2.76406Q11.8254 2.87193 11.9789 2.87193L20.0047 2.87193Q20.9242 2.87193 21.4287 3.35961Q21.9331 3.84728 21.9331 4.80583L21.9331 16.7703Q21.9331 17.7288 21.4287 18.2166Q20.9242 18.7043 20.0047 18.7043L2.65701 18.7043Q1.7067 18.7043 1.21765 18.2166Q0.728607 17.7288 0.728607 16.7703L0.728607 4.80583Q0.728607 3.84728 1.21765 3.35961Q1.7067 2.87193 2.65701 2.87193L5.69992 2.87193L5.69992 4.64058Q5.69992 4.93324 5.88104 5.01938Q6.06216 5.10552 6.32889 4.92073L9.26834 2.86675Q9.4809 2.71675 9.48227 2.52732Q9.48364 2.33788 9.26834 2.18788L6.33163 0.126879Q6.06216-0.0606519 5.88104 0.0289935Q5.69992 0.118639 5.69992 0.414049L5.69992 2.14333L2.63046 2.14333Q1.33636 2.14333 0.668182 2.80876Q0 3.4742 0 4.76982Z" fill="#ffffff"/>
 </g>
</svg>
