<?xml version="1.0" encoding="UTF-8"?>
<!--Generator: Apple Native CoreSVG 175.5-->
<!DOCTYPE svg
PUBLIC "-//W3C//DTD SVG 1.1//EN"
       "http://www.w3.org/Graphics/SVG/1.1/DTD/svg11.dtd">
<svg version="1.1" xmlns="http://www.w3.org/2000/svg" xmlns:xlink="http://www.w3.org/1999/xlink" width="19.4043" height="18.5254">
 <g>
  <rect height="18.5254" opacity="0" width="19.4043" x="0" y="0"/>
  <path d="M9.69727 18.5254Q9.85352 18.5254 10.0537 18.4424Q10.2539 18.3594 10.4102 18.2617Q13.1641 16.5039 15.1807 14.5752Q17.1973 12.6465 18.3008 10.6104Q19.4043 8.57422 19.4043 6.49414Q19.4043 5.19531 18.9893 4.11621Q18.5742 3.03711 17.832 2.24609Q17.0898 1.45508 16.0986 1.02539Q15.1074 0.595703 13.9551 0.595703Q12.5293 0.595703 11.4453 1.32324Q10.3613 2.05078 9.69727 3.26172Q9.04297 2.06055 7.95898 1.32812Q6.875 0.595703 5.43945 0.595703Q4.29688 0.595703 3.30566 1.02539Q2.31445 1.45508 1.57227 2.24609Q0.830078 3.03711 0.415039 4.11621Q0 5.19531 0 6.49414Q0 8.57422 1.10352 10.6104Q2.20703 12.6465 4.22363 14.5752Q6.24023 16.5039 8.99414 18.2617Q9.15039 18.3594 9.35059 18.4424Q9.55078 18.5254 9.69727 18.5254Z" fill="#ffffff"/>
  <path d="M10.4004 13.1934Q10.4004 13.5059 10.166 13.7256Q9.93164 13.9453 9.61914 13.9453Q9.30664 13.9453 9.07715 13.7256Q8.84766 13.5059 8.84766 13.1934L8.84766 9.58008L8.90625 7.94922L8.06641 8.81836L7.17773 9.72656Q7.07031 9.83398 6.92871 9.89258Q6.78711 9.95117 6.64062 9.95117Q6.32812 9.95117 6.12793 9.75586Q5.92773 9.56055 5.92773 9.24805Q5.92773 9.08203 5.99609 8.9502Q6.06445 8.81836 6.18164 8.71094L9.05273 6.07422Q9.21875 5.92773 9.3457 5.86914Q9.47266 5.81055 9.61914 5.81055Q9.76562 5.81055 9.89746 5.86914Q10.0293 5.92773 10.1855 6.07422L13.0566 8.71094Q13.1738 8.81836 13.2422 8.9502Q13.3105 9.08203 13.3105 9.24805Q13.3105 9.56055 13.1055 9.75586Q12.9004 9.95117 12.5977 9.95117Q12.4414 9.95117 12.3047 9.89258Q12.168 9.83398 12.0605 9.72656L11.1719 8.81836L10.332 7.94922L10.4004 9.58008Z" fill="none"/>
 </g>
</svg>
