<?xml version="1.0" encoding="UTF-8"?>
<!--Generator: Apple Native CoreSVG 175.5-->
<!DOCTYPE svg
PUBLIC "-//W3C//DTD SVG 1.1//EN"
       "http://www.w3.org/Graphics/SVG/1.1/DTD/svg11.dtd">
<svg version="1.1" xmlns="http://www.w3.org/2000/svg" xmlns:xlink="http://www.w3.org/1999/xlink" width="10.5377" height="19.4923">
 <g>
  <rect height="19.4923" opacity="0" width="10.5377" x="0" y="0"/>
  <path d="M2.93969 18.8721Q3.34984 18.8721 3.56957 18.6426Q3.7893 18.4132 3.7893 17.9932L3.7893 10.4444L3.06664 10.4444Q3.36937 11.3233 3.94555 12.1192Q4.52172 12.9151 5.32738 13.5938Q6.13305 14.2725 7.1389 14.8194Q8.14476 15.3663 9.30687 15.7569Q9.71703 15.9132 10.0344 15.752Q10.3518 15.5909 10.469 15.2979Q10.5959 15.0147 10.4885 14.6925Q10.3811 14.3702 9.96117 14.1846Q8.60375 13.628 7.47094 12.9102Q6.33812 12.1925 5.51293 11.2891Q4.68773 10.3858 4.23851 9.2823Q3.7893 8.17878 3.7893 6.85065L3.7893 3.20808L2.08031 3.20808L2.08031 17.9932Q2.08031 18.4132 2.30004 18.6426Q2.51976 18.8721 2.93969 18.8721ZM0.693592 4.46784L5.17601 4.46784Q5.69359 4.46784 5.82543 4.16023Q5.95726 3.85261 5.67406 3.45222L3.48656 0.336983Q3.25219 0.00495158 2.93969 6.8772e-05Q2.62719-0.00481404 2.38305 0.336983L0.195545 3.44245Q-0.0876581 3.85261 0.039295 4.16023Q0.166248 4.46784 0.693592 4.46784Z" fill="#ffffff"/>
 </g>
</svg>
