<?xml version="1.0" encoding="UTF-8"?>
<!--Generator: Apple Native CoreSVG 175.5-->
<!DOCTYPE svg
PUBLIC "-//W3C//DTD SVG 1.1//EN"
       "http://www.w3.org/Graphics/SVG/1.1/DTD/svg11.dtd">
<svg version="1.1" xmlns="http://www.w3.org/2000/svg" xmlns:xlink="http://www.w3.org/1999/xlink" width="17.9785" height="17.998">
 <g>
  <rect height="17.998" opacity="0" width="17.9785" x="0" y="0"/>
  <path d="M3.06641 17.998L14.9121 17.998Q16.4453 17.998 17.2119 17.2412Q17.9785 16.4844 17.9785 14.9707L17.9785 3.04688Q17.9785 1.5332 17.2119 0.776367Q16.4453 0.0195312 14.9121 0.0195312L3.06641 0.0195312Q1.5332 0.0195312 0.766602 0.776367Q0 1.5332 0 3.04688L0 14.9707Q0 16.4844 0.766602 17.2412Q1.5332 17.998 3.06641 17.998ZM3.08594 16.4258Q2.35352 16.4258 1.96289 16.04Q1.57227 15.6543 1.57227 14.8926L1.57227 3.125Q1.57227 2.36328 1.96289 1.97754Q2.35352 1.5918 3.08594 1.5918L14.8926 1.5918Q15.6152 1.5918 16.0107 1.97754Q16.4062 2.36328 16.4062 3.125L16.4062 14.8926Q16.4062 15.6543 16.0107 16.04Q15.6152 16.4258 14.8926 16.4258Z" fill="#ffffff"/>
  <path d="M5.92773 11.4062Q6.25 11.4062 6.4502 11.2012Q6.65039 10.9961 6.65039 10.6445L6.65039 8.95508L6.50391 7.44141L7.91016 8.93555L11.5039 12.5391Q11.7285 12.7637 12.0605 12.7637Q12.3828 12.7637 12.5781 12.5635Q12.7734 12.3633 12.7734 12.0312Q12.7734 11.748 12.5391 11.5137L8.94531 7.91016L7.42188 6.49414L8.86719 6.65039L10.6445 6.65039Q10.9961 6.65039 11.2061 6.45508Q11.416 6.25977 11.416 5.92773Q11.416 5.60547 11.2109 5.41016Q11.0059 5.21484 10.6641 5.21484L6.02539 5.21484Q5.6543 5.21484 5.43457 5.40039Q5.21484 5.58594 5.21484 6.02539L5.21484 10.625Q5.21484 10.9668 5.41016 11.1865Q5.60547 11.4062 5.92773 11.4062Z" fill="#ffffff"/>
 </g>
</svg>
