<?xml version="1.0" encoding="UTF-8"?>
<!--Generator: Apple Native CoreSVG 175.5-->
<!DOCTYPE svg
PUBLIC "-//W3C//DTD SVG 1.1//EN"
       "http://www.w3.org/Graphics/SVG/1.1/DTD/svg11.dtd">
<svg version="1.1" xmlns="http://www.w3.org/2000/svg" xmlns:xlink="http://www.w3.org/1999/xlink" width="19.9219" height="19.9316">
 <g>
  <rect height="19.9316" opacity="0" width="19.9219" x="0" y="0"/>
  <path d="M9.96094 19.9219Q12.002 19.9219 13.8037 19.1406Q15.6055 18.3594 16.9824 16.9824Q18.3594 15.6055 19.1406 13.8037Q19.9219 12.002 19.9219 9.96094Q19.9219 7.91992 19.1406 6.11816Q18.3594 4.31641 16.9824 2.93945Q15.6055 1.5625 13.7988 0.78125Q11.9922 0 9.95117 0Q7.91016 0 6.1084 0.78125Q4.30664 1.5625 2.93457 2.93945Q1.5625 4.31641 0.78125 6.11816Q0 7.91992 0 9.96094Q0 12.002 0.78125 13.8037Q1.5625 15.6055 2.93945 16.9824Q4.31641 18.3594 6.11816 19.1406Q7.91992 19.9219 9.96094 19.9219ZM9.96094 18.2617Q8.23242 18.2617 6.72852 17.6172Q5.22461 16.9727 4.08691 15.835Q2.94922 14.6973 2.30957 13.1934Q1.66992 11.6895 1.66992 9.96094Q1.66992 8.23242 2.30957 6.72852Q2.94922 5.22461 4.08203 4.08203Q5.21484 2.93945 6.71875 2.2998Q8.22266 1.66016 9.95117 1.66016Q11.6797 1.66016 13.1885 2.2998Q14.6973 2.93945 15.835 4.08203Q16.9727 5.22461 17.6172 6.72852Q18.2617 8.23242 18.2617 9.96094Q18.2617 11.6895 17.6221 13.1934Q16.9824 14.6973 15.8398 15.835Q14.6973 16.9727 13.1934 17.6172Q11.6895 18.2617 9.96094 18.2617Z" fill="#ffffff"/>
  <path d="M6.875 12.373Q7.19727 12.373 7.39746 12.168Q7.59766 11.9629 7.59766 11.6113L7.59766 9.92188L7.45117 8.4082L8.85742 9.90234L12.4512 13.5059Q12.6758 13.7305 13.0078 13.7305Q13.3301 13.7305 13.5254 13.5303Q13.7207 13.3301 13.7207 12.998Q13.7207 12.7148 13.4863 12.4805L9.89258 8.87695L8.36914 7.46094L9.81445 7.61719L11.5918 7.61719Q11.9434 7.61719 12.1533 7.42188Q12.3633 7.22656 12.3633 6.89453Q12.3633 6.57227 12.1582 6.37695Q11.9531 6.18164 11.6113 6.18164L6.97266 6.18164Q6.60156 6.18164 6.38184 6.36719Q6.16211 6.55273 6.16211 6.99219L6.16211 11.5918Q6.16211 11.9336 6.35742 12.1533Q6.55273 12.373 6.875 12.373Z" fill="#ffffff"/>
 </g>
</svg>
