<?xml version="1.0" encoding="UTF-8"?>
<!--Generator: Apple Native CoreSVG 175.5-->
<!DOCTYPE svg
PUBLIC "-//W3C//DTD SVG 1.1//EN"
       "http://www.w3.org/Graphics/SVG/1.1/DTD/svg11.dtd">
<svg version="1.1" xmlns="http://www.w3.org/2000/svg" xmlns:xlink="http://www.w3.org/1999/xlink" width="19.9219" height="19.9316">
 <g>
  <rect height="19.9316" opacity="0" width="19.9219" x="0" y="0"/>
  <path d="M9.96094 19.9219Q12.002 19.9219 13.8037 19.1406Q15.6055 18.3594 16.9824 16.9824Q18.3594 15.6055 19.1406 13.8037Q19.9219 12.002 19.9219 9.96094Q19.9219 7.91992 19.1406 6.11816Q18.3594 4.31641 16.9824 2.93945Q15.6055 1.5625 13.7988 0.78125Q11.9922 0 9.95117 0Q7.91016 0 6.1084 0.78125Q4.30664 1.5625 2.93457 2.93945Q1.5625 4.31641 0.78125 6.11816Q0 7.91992 0 9.96094Q0 12.002 0.78125 13.8037Q1.5625 15.6055 2.93945 16.9824Q4.31641 18.3594 6.11816 19.1406Q7.91992 19.9219 9.96094 19.9219ZM9.96094 18.2617Q8.23242 18.2617 6.72852 17.6172Q5.22461 16.9727 4.08691 15.835Q2.94922 14.6973 2.30957 13.1934Q1.66992 11.6895 1.66992 9.96094Q1.66992 8.23242 2.30957 6.72852Q2.94922 5.22461 4.08203 4.08203Q5.21484 2.93945 6.71875 2.2998Q8.22266 1.66016 9.95117 1.66016Q11.6797 1.66016 13.1885 2.2998Q14.6973 2.93945 15.835 4.08203Q16.9727 5.22461 17.6172 6.72852Q18.2617 8.23242 18.2617 9.96094Q18.2617 11.6895 17.6221 13.1934Q16.9824 14.6973 15.8398 15.835Q14.6973 16.9727 13.1934 17.6172Q11.6895 18.2617 9.96094 18.2617Z" fill="#ffffff"/>
  <path d="M6.875 7.53906Q6.55273 7.53906 6.35742 7.75879Q6.16211 7.97852 6.16211 8.32031L6.16211 12.9199Q6.16211 13.3594 6.38184 13.5449Q6.60156 13.7305 6.97266 13.7305L11.6113 13.7305Q11.9531 13.7305 12.1582 13.5352Q12.3633 13.3398 12.3633 13.0176Q12.3633 12.6855 12.1533 12.4902Q11.9434 12.2949 11.5918 12.2949L9.81445 12.2949L8.36914 12.4512L9.89258 11.0352L13.4863 7.43164Q13.7207 7.19727 13.7207 6.91406Q13.7207 6.58203 13.5254 6.38184Q13.3301 6.18164 13.0078 6.18164Q12.6758 6.18164 12.4512 6.40625L8.85742 10.0098L7.45117 11.5039L7.59766 9.99023L7.59766 8.30078Q7.59766 7.94922 7.39746 7.74414Q7.19727 7.53906 6.875 7.53906Z" fill="#ffffff"/>
 </g>
</svg>
