<?xml version="1.0" encoding="UTF-8"?>
<!--Generator: Apple Native CoreSVG 175-->
<!DOCTYPE svg
PUBLIC "-//W3C//DTD SVG 1.1//EN"
       "http://www.w3.org/Graphics/SVG/1.1/DTD/svg11.dtd">
<svg version="1.1" xmlns="http://www.w3.org/2000/svg" xmlns:xlink="http://www.w3.org/1999/xlink" width="19.1602" height="19.1504">
 <g>
  <rect height="19.1504" opacity="0" width="19.1602" x="0" y="0"/>
  <path d="M9.57031 19.1406Q11.5527 19.1406 13.2861 18.3984Q15.0195 17.6562 16.3379 16.333Q17.6562 15.0098 18.4082 13.2764Q19.1602 11.543 19.1602 9.57031Q19.1602 7.59766 18.4082 5.86426Q17.6562 4.13086 16.3379 2.80762Q15.0195 1.48438 13.2861 0.742188Q11.5527 0 9.57031 0Q7.59766 0 5.86426 0.742188Q4.13086 1.48438 2.81738 2.80762Q1.50391 4.13086 0.751953 5.86426Q0 7.59766 0 9.57031Q0 11.543 0.74707 13.2764Q1.49414 15.0098 2.8125 16.333Q4.13086 17.6562 5.86914 18.3984Q7.60742 19.1406 9.57031 19.1406ZM5.33203 13.5449Q5.18555 13.5449 5.08789 13.457Q4.99023 13.3691 4.99023 13.2227L4.99023 5.89844Q4.99023 5.76172 5.08789 5.66406Q5.18555 5.56641 5.33203 5.56641Q5.47852 5.56641 5.56641 5.66406Q5.6543 5.76172 5.6543 5.89844L5.6543 13.2227Q5.6543 13.3691 5.56641 13.457Q5.47852 13.5449 5.33203 13.5449ZM15.2441 9.56055Q15.2441 9.7168 15.1465 9.80957Q15.0488 9.90234 14.9023 9.90234L9.51172 9.90234L7.67578 9.86328L9.53125 11.6602L10.7324 12.832Q10.8008 12.8906 10.835 12.9639Q10.8691 13.0371 10.8691 13.125Q10.8691 13.2812 10.7715 13.374Q10.6738 13.4668 10.5371 13.4668Q10.4395 13.4668 10.3564 13.4131Q10.2734 13.3594 10.2148 13.291L6.74805 9.81445Q6.68945 9.76562 6.65527 9.69727Q6.62109 9.62891 6.62109 9.56055Q6.62109 9.49219 6.65527 9.42383Q6.68945 9.35547 6.74805 9.30664L10.2539 5.78125Q10.3516 5.64453 10.5273 5.64453Q10.6738 5.64453 10.7715 5.74219Q10.8691 5.83984 10.8691 5.99609Q10.8691 6.08398 10.835 6.15723Q10.8008 6.23047 10.7324 6.2793L9.57031 7.42188L7.67578 9.25781L9.51172 9.22852L14.9023 9.22852Q15.0488 9.22852 15.1465 9.32129Q15.2441 9.41406 15.2441 9.56055Z" fill="#ffffff"/>
 </g>
</svg>
