<?xml version="1.0" encoding="UTF-8"?>
<!--Generator: Apple Native CoreSVG 175-->
<!DOCTYPE svg
PUBLIC "-//W3C//DTD SVG 1.1//EN"
       "http://www.w3.org/Graphics/SVG/1.1/DTD/svg11.dtd">
<svg version="1.1" xmlns="http://www.w3.org/2000/svg" xmlns:xlink="http://www.w3.org/1999/xlink" width="17.2852" height="17.3145">
 <g>
  <rect height="17.3145" opacity="0" width="17.2852" x="0" y="0"/>
  <path d="M2.62695 17.3145L14.6484 17.3145Q15.957 17.3145 16.6211 16.6455Q17.2852 15.9766 17.2852 14.6875L17.2852 2.65625Q17.2852 1.37695 16.6211 0.703125Q15.957 0.0292969 14.6484 0.0292969L2.62695 0.0292969Q1.33789 0.0292969 0.668945 0.693359Q0 1.35742 0 2.65625L0 14.6875Q0 15.9863 0.668945 16.6504Q1.33789 17.3145 2.62695 17.3145ZM5.11719 11.5527Q4.85352 11.5527 4.75098 11.3037Q4.64844 11.0547 4.79492 10.8008L8.23242 5.16602Q8.38867 4.91211 8.66211 4.90723Q8.93555 4.90234 9.10156 5.16602L12.5 10.8008Q12.6465 11.0547 12.5439 11.3037Q12.4414 11.5527 12.168 11.5527Z" fill="#ffffff"/>
 </g>
</svg>
