<?xml version="1.0" encoding="UTF-8"?>
<!--Generator: Apple Native CoreSVG 175-->
<!DOCTYPE svg
PUBLIC "-//W3C//DTD SVG 1.1//EN"
       "http://www.w3.org/Graphics/SVG/1.1/DTD/svg11.dtd">
<svg version="1.1" xmlns="http://www.w3.org/2000/svg" xmlns:xlink="http://www.w3.org/1999/xlink" width="14.0652" height="14.0472">
 <g>
  <rect height="14.0472" opacity="0" width="14.0652" x="0" y="0"/>
  <path d="M14.0652 10.6238L14.0344 0.412903Q14.0344 0.232086 13.9246 0.116043Q13.8148 0 13.6285 0L3.40347 0Q3.23242 0 3.11913 0.117416Q3.00583 0.234833 3.00583 0.389404Q3.00583 0.544128 3.11974 0.64476Q3.23364 0.745392 3.39966 0.745392L8.73154 0.745392L12.8784 0.687561L11.2871 2.20901L0.118713 13.3827Q0 13.5016 0 13.6536Q0 13.7543 0.0531006 13.8447Q0.106201 13.9351 0.195312 13.9883Q0.284424 14.0414 0.387878 14.0414Q0.528564 14.0414 0.658569 13.9183L11.8254 2.75436L13.3383 1.1673L13.289 4.48334L13.289 10.6348Q13.289 10.7938 13.4002 10.9125Q13.5114 11.0312 13.6758 11.0312Q13.8374 11.0312 13.9513 10.9152Q14.0652 10.7993 14.0652 10.6238Z" fill="#ffffff"/>
 </g>
</svg>
