<?xml version="1.0" encoding="UTF-8"?>
<!--Generator: Apple Native CoreSVG 175-->
<!DOCTYPE svg
PUBLIC "-//W3C//DTD SVG 1.1//EN"
       "http://www.w3.org/Graphics/SVG/1.1/DTD/svg11.dtd">
<svg version="1.1" xmlns="http://www.w3.org/2000/svg" xmlns:xlink="http://www.w3.org/1999/xlink" width="19.1602" height="19.1504">
 <g>
  <rect height="19.1504" opacity="0" width="19.1602" x="0" y="0"/>
  <path d="M9.57031 19.1406Q11.5527 19.1406 13.2861 18.3984Q15.0195 17.6562 16.3379 16.333Q17.6562 15.0098 18.4082 13.2764Q19.1602 11.543 19.1602 9.57031Q19.1602 7.59766 18.4082 5.86426Q17.6562 4.13086 16.3379 2.80762Q15.0195 1.48438 13.2861 0.742188Q11.5527 0 9.57031 0Q7.59766 0 5.86426 0.742188Q4.13086 1.48438 2.81738 2.80762Q1.50391 4.13086 0.751953 5.86426Q0 7.59766 0 9.57031Q0 11.543 0.74707 13.2764Q1.49414 15.0098 2.8125 16.333Q4.13086 17.6562 5.86914 18.3984Q7.60742 19.1406 9.57031 19.1406ZM9.57031 18.3984Q7.74414 18.3984 6.14746 17.71Q4.55078 17.0215 3.33496 15.8105Q2.11914 14.5996 1.43555 12.998Q0.751953 11.3965 0.751953 9.57031Q0.751953 7.74414 1.43555 6.14258Q2.11914 4.54102 3.33496 3.3252Q4.55078 2.10938 6.14746 1.4209Q7.74414 0.732422 9.57031 0.732422Q11.4062 0.732422 13.0029 1.4209Q14.5996 2.10938 15.8154 3.3252Q17.0312 4.54102 17.7197 6.14258Q18.4082 7.74414 18.4082 9.57031Q18.4082 11.3965 17.7246 12.998Q17.041 14.5996 15.8252 15.8105Q14.6094 17.0215 13.0078 17.71Q11.4062 18.3984 9.57031 18.3984ZM5.625 9.18945L8.84766 9.18945Q9.01367 9.18945 9.11621 9.09668Q9.21875 9.00391 9.21875 8.81836L9.21875 5.60547Q9.21875 5.46875 9.11621 5.36621Q9.01367 5.26367 8.87695 5.26367Q8.73047 5.26367 8.63281 5.36621Q8.53516 5.46875 8.53516 5.60547L8.53516 6.33789L8.56445 8.0957L5.51758 4.99023Q5.41016 4.88281 5.25879 4.88281Q5.10742 4.88281 5 4.99023Q4.90234 5.09766 4.90234 5.24414Q4.90234 5.39062 5 5.49805L8.11523 8.53516L6.47461 8.51562L5.625 8.50586Q5.48828 8.50586 5.38574 8.6084Q5.2832 8.71094 5.2832 8.84766Q5.2832 8.98438 5.38574 9.08691Q5.48828 9.18945 5.625 9.18945ZM10.2832 13.8477Q10.4297 13.8477 10.5273 13.7451Q10.625 13.6426 10.625 13.5059L10.625 12.7734L10.5957 11.0156L13.6328 14.1211Q13.75 14.2285 13.8965 14.2285Q14.043 14.2285 14.1504 14.1211Q14.248 14.0137 14.2529 13.8672Q14.2578 13.7207 14.1406 13.6133L11.0449 10.5762L12.6855 10.5957L13.5254 10.6055Q13.6719 10.6055 13.7695 10.5078Q13.8672 10.4102 13.8672 10.2637Q13.8672 10.1172 13.7695 10.0195Q13.6719 9.92188 13.5254 9.92188L10.3027 9.92188Q10.1465 9.92188 10.0439 10.0146Q9.94141 10.1074 9.94141 10.293L9.94141 13.5059Q9.94141 13.6426 10.0391 13.7451Q10.1367 13.8477 10.2832 13.8477Z" fill="#ffffff"/>
 </g>
</svg>
