<?xml version="1.0" encoding="UTF-8"?>
<!--Generator: Apple Native CoreSVG 175-->
<!DOCTYPE svg
PUBLIC "-//W3C//DTD SVG 1.1//EN"
       "http://www.w3.org/Graphics/SVG/1.1/DTD/svg11.dtd">
<svg version="1.1" xmlns="http://www.w3.org/2000/svg" xmlns:xlink="http://www.w3.org/1999/xlink" width="20.0977" height="17.041">
 <g>
  <rect height="17.041" opacity="0" width="20.0977" x="0" y="0"/>
  <path d="M11.0645 17.0312Q11.3086 17.0312 11.5088 16.9238Q11.709 16.8164 11.8945 16.6504L19.541 9.51172Q19.9023 9.17969 20 8.9502Q20.0977 8.7207 20.0977 8.51562Q20.0977 8.31055 20 8.08105Q19.9023 7.85156 19.541 7.51953L11.8945 0.400391Q11.6992 0.214844 11.5039 0.107422Q11.3086 0 11.0742 0Q10.7227 0 10.5371 0.224609Q10.3516 0.449219 10.3516 0.78125L10.3516 4.96094L9.94141 4.96094Q7.64648 4.96094 5.81055 5.62988Q3.97461 6.29883 2.67578 7.68555Q1.37695 9.07227 0.688477 11.1963Q0 13.3203 0 16.2207Q0 16.6016 0.195312 16.8164Q0.390625 17.0312 0.673828 17.0312Q0.908203 17.0312 1.08887 16.9092Q1.26953 16.7871 1.42578 16.4551Q2.11914 14.9023 3.25684 13.9551Q4.39453 13.0078 6.0498 12.5781Q7.70508 12.1484 9.94141 12.1484L10.3516 12.1484L10.3516 16.2598Q10.3516 16.5918 10.542 16.8115Q10.7324 17.0312 11.0645 17.0312ZM11.2402 16.1426Q11.0742 16.1426 11.0742 15.9473L11.0742 11.709Q11.0742 11.4453 10.8105 11.4453L10.0195 11.4453Q6.39648 11.4453 4.16016 12.5439Q1.92383 13.6426 0.966797 15.9766Q0.9375 16.0547 0.898438 16.1133Q0.859375 16.1719 0.791016 16.1719Q0.654297 16.1719 0.654297 16.0156Q0.673828 13.9746 1.06934 12.3291Q1.46484 10.6836 2.24121 9.43359Q3.01758 8.18359 4.14551 7.34375Q5.27344 6.50391 6.74805 6.08398Q8.22266 5.66406 10.0195 5.66406L10.8105 5.66406Q11.0742 5.66406 11.0742 5.40039L11.0742 1.04492Q11.0742 0.869141 11.25 0.869141Q11.3281 0.869141 11.3867 0.908203Q11.4453 0.947266 11.5137 0.996094L19.0234 8.01758Q19.3164 8.29102 19.3164 8.51562Q19.3164 8.62305 19.2578 8.74023Q19.1992 8.85742 19.0234 9.01367L11.4941 16.0059Q11.3477 16.1426 11.2402 16.1426Z" fill="rgba(0,0,0,0.85)"/>
 </g>
</svg>
