<?xml version="1.0" encoding="UTF-8"?>
<!--Generator: Apple Native CoreSVG 175-->
<!DOCTYPE svg
PUBLIC "-//W3C//DTD SVG 1.1//EN"
       "http://www.w3.org/Graphics/SVG/1.1/DTD/svg11.dtd">
<svg version="1.1" xmlns="http://www.w3.org/2000/svg" xmlns:xlink="http://www.w3.org/1999/xlink" width="17.2852" height="17.3145">
 <g>
  <rect height="17.3145" opacity="0" width="17.2852" x="0" y="0"/>
  <path d="M2.62695 17.3145L14.6484 17.3145Q15.957 17.3145 16.6211 16.6455Q17.2852 15.9766 17.2852 14.6875L17.2852 2.65625Q17.2852 1.37695 16.6211 0.703125Q15.957 0.0292969 14.6484 0.0292969L2.62695 0.0292969Q1.33789 0.0292969 0.668945 0.693359Q0 1.35742 0 2.65625L0 14.6875Q0 15.9863 0.668945 16.6504Q1.33789 17.3145 2.62695 17.3145ZM5.43945 3.83789Q5.53711 3.73047 5.67383 3.73535Q5.81055 3.74023 5.91797 3.83789L8.67188 6.5918Q8.7793 6.68945 8.7793 6.85547Q8.7793 6.99219 8.68164 7.08984Q8.58398 7.1875 8.45703 7.1875Q8.31055 7.1875 8.19336 7.06055L6.83594 5.69336L5.98633 4.83398L6.00586 5.64453L6.00586 13.2227Q6.00586 13.3594 5.91797 13.457Q5.83008 13.5547 5.68359 13.5547Q5.53711 13.5547 5.43945 13.4619Q5.3418 13.3691 5.3418 13.2227L5.3418 5.6543L5.36133 4.83398L4.52148 5.69336L3.1543 7.06055Q3.03711 7.1875 2.89062 7.1875Q2.75391 7.1875 2.66113 7.08984Q2.56836 6.99219 2.56836 6.85547Q2.56836 6.78711 2.59766 6.71875Q2.62695 6.65039 2.68555 6.5918ZM11.8848 13.457Q11.7773 13.5547 11.6357 13.5547Q11.4941 13.5547 11.3965 13.457L8.62305 10.7129Q8.52539 10.6055 8.52539 10.4395Q8.52539 10.3027 8.61328 10.21Q8.70117 10.1172 8.84766 10.1172Q9.00391 10.1172 9.11133 10.2246L10.4688 11.6016L11.3281 12.4609L11.2988 11.6504L11.2988 4.07227Q11.2988 3.93555 11.3916 3.83789Q11.4844 3.74023 11.6211 3.74023Q11.7676 3.74023 11.8652 3.83789Q11.9629 3.93555 11.9629 4.07227L11.9629 11.6504L11.9531 12.4609L12.793 11.6016L14.1504 10.2246Q14.2773 10.1172 14.4141 10.1172Q14.5508 10.1172 14.6484 10.21Q14.7461 10.3027 14.7461 10.4395Q14.7461 10.5859 14.6289 10.7129Z" fill="#ffffff"/>
 </g>
</svg>
