<?xml version="1.0" encoding="UTF-8"?>
<!--Generator: Apple Native CoreSVG 175.5-->
<!DOCTYPE svg
PUBLIC "-//W3C//DTD SVG 1.1//EN"
       "http://www.w3.org/Graphics/SVG/1.1/DTD/svg11.dtd">
<svg version="1.1" xmlns="http://www.w3.org/2000/svg" xmlns:xlink="http://www.w3.org/1999/xlink" width="19.9219" height="19.9316">
 <g>
  <rect height="19.9316" opacity="0" width="19.9219" x="0" y="0"/>
  <path d="M9.96094 19.9219Q12.002 19.9219 13.8037 19.1406Q15.6055 18.3594 16.9824 16.9824Q18.3594 15.6055 19.1406 13.8037Q19.9219 12.002 19.9219 9.96094Q19.9219 7.91992 19.1406 6.11816Q18.3594 4.31641 16.9824 2.93945Q15.6055 1.5625 13.7988 0.78125Q11.9922 0 9.95117 0Q7.91016 0 6.1084 0.78125Q4.30664 1.5625 2.93457 2.93945Q1.5625 4.31641 0.78125 6.11816Q0 7.91992 0 9.96094Q0 12.002 0.78125 13.8037Q1.5625 15.6055 2.93945 16.9824Q4.31641 18.3594 6.11816 19.1406Q7.91992 19.9219 9.96094 19.9219Z" fill="#ffffff"/>
  <path d="M5.58594 12.8125L5.58594 10.2441Q5.58594 8.7793 6.29883 8.07129Q7.01172 7.36328 8.47656 7.36328L11.2598 7.36328L11.2598 6.06445Q11.2598 5.57617 11.6602 5.40527Q12.0605 5.23438 12.4414 5.53711L14.8242 7.38281Q15.293 7.75391 15.293 8.17871Q15.293 8.60352 14.8242 8.97461L12.4414 10.8301Q12.0605 11.123 11.6602 10.9521Q11.2598 10.7812 11.2598 10.2832L11.2598 8.99414L8.50586 8.99414Q7.86133 8.99414 7.53418 9.32129Q7.20703 9.64844 7.20703 10.3223L7.20703 12.8125Q7.20703 13.252 6.99219 13.4863Q6.77734 13.7207 6.39648 13.7305Q6.00586 13.7305 5.7959 13.4912Q5.58594 13.252 5.58594 12.8125Z" fill="none"/>
 </g>
</svg>
