<?xml version="1.0" encoding="UTF-8"?>
<!--Generator: Apple Native CoreSVG 175.5-->
<!DOCTYPE svg
PUBLIC "-//W3C//DTD SVG 1.1//EN"
       "http://www.w3.org/Graphics/SVG/1.1/DTD/svg11.dtd">
<svg version="1.1" xmlns="http://www.w3.org/2000/svg" xmlns:xlink="http://www.w3.org/1999/xlink" width="17.9785" height="17.998">
 <g>
  <rect height="17.998" opacity="0" width="17.9785" x="0" y="0"/>
  <path d="M3.06641 17.998L14.9121 17.998Q16.4453 17.998 17.2119 17.2412Q17.9785 16.4844 17.9785 14.9707L17.9785 3.04688Q17.9785 1.5332 17.2119 0.776367Q16.4453 0.0195312 14.9121 0.0195312L3.06641 0.0195312Q1.5332 0.0195312 0.766602 0.776367Q0 1.5332 0 3.04688L0 14.9707Q0 16.4844 0.766602 17.2412Q1.5332 17.998 3.06641 17.998Z" fill="#ffffff"/>
  <path d="M15.2637 8.99414Q15.2637 9.27734 14.9707 9.58008L12.0703 12.5Q11.875 12.7051 11.5332 12.7051Q11.2305 12.7051 11.0254 12.4951Q10.8203 12.2852 10.8203 11.9727Q10.8203 11.8066 10.8789 11.6699Q10.9375 11.5332 11.0352 11.4355L11.7969 10.6836L13.0078 9.66797L10.8789 9.75586L7.10938 9.75586L4.98047 9.66797L6.19141 10.6836L6.95312 11.4355Q7.05078 11.5332 7.10938 11.6699Q7.16797 11.8066 7.16797 11.9727Q7.16797 12.2852 6.96289 12.4951Q6.75781 12.7051 6.44531 12.7051Q6.11328 12.7051 5.91797 12.5L3.01758 9.58008Q2.72461 9.27734 2.72461 8.99414Q2.72461 8.69141 3.01758 8.39844L5.91797 5.48828Q6.12305 5.27344 6.44531 5.27344Q6.75781 5.27344 6.96289 5.48828Q7.16797 5.70312 7.16797 6.01562Q7.16797 6.18164 7.11426 6.31348Q7.06055 6.44531 6.95312 6.55273L6.19141 7.29492L4.9707 8.32031L7.10938 8.23242L10.8789 8.23242L13.0176 8.32031L11.7969 7.29492L11.0352 6.55273Q10.9277 6.44531 10.874 6.31348Q10.8203 6.18164 10.8203 6.01562Q10.8203 5.70312 11.0254 5.48828Q11.2305 5.27344 11.5332 5.27344Q11.8652 5.27344 12.0703 5.48828L14.9707 8.39844Q15.2637 8.69141 15.2637 8.99414Z" fill="none"/>
 </g>
</svg>
