<?xml version="1.0" encoding="UTF-8"?>
<!--Generator: Apple Native CoreSVG 175.5-->
<!DOCTYPE svg
PUBLIC "-//W3C//DTD SVG 1.1//EN"
       "http://www.w3.org/Graphics/SVG/1.1/DTD/svg11.dtd">
<svg version="1.1" xmlns="http://www.w3.org/2000/svg" xmlns:xlink="http://www.w3.org/1999/xlink" width="23.9844" height="19.248">
 <g>
  <rect height="19.248" opacity="0" width="23.9844" x="0" y="0"/>
  <path d="M3.06641 18.623L20.918 18.623Q22.4414 18.623 23.2129 17.8662Q23.9844 17.1094 23.9844 15.5957L23.9844 5.37109Q23.9844 3.86719 23.2129 3.11035Q22.4414 2.35352 20.918 2.35352L18.125 2.35352Q17.7344 2.35352 17.5 2.29492Q17.2656 2.23633 17.085 2.09473Q16.9043 1.95312 16.6797 1.70898L15.8984 0.830078Q15.5371 0.429688 15.0977 0.214844Q14.6582 0 13.9062 0L10.0098 0Q9.25781 0 8.82324 0.214844Q8.38867 0.429688 8.01758 0.830078L7.23633 1.70898Q6.91406 2.07031 6.64062 2.21191Q6.36719 2.35352 5.79102 2.35352L3.06641 2.35352Q1.5332 2.35352 0.766602 3.11035Q0 3.86719 0 5.37109L0 15.5957Q0 17.1094 0.766602 17.8662Q1.5332 18.623 3.06641 18.623ZM3.08594 17.0508Q2.36328 17.0508 1.96777 16.665Q1.57227 16.2793 1.57227 15.5176L1.57227 5.45898Q1.57227 4.69727 1.96777 4.31152Q2.36328 3.92578 3.08594 3.92578L6.18164 3.92578Q6.8457 3.92578 7.25098 3.77441Q7.65625 3.62305 8.02734 3.21289L8.78906 2.35352Q9.20898 1.88477 9.53125 1.72852Q9.85352 1.57227 10.498 1.57227L13.418 1.57227Q14.0625 1.57227 14.3848 1.72852Q14.707 1.88477 15.127 2.35352L15.8887 3.21289Q16.2598 3.62305 16.665 3.77441Q17.0703 3.92578 17.7344 3.92578L20.8887 3.92578Q21.6113 3.92578 22.0117 4.31152Q22.4121 4.69727 22.4121 5.45898L22.4121 15.5176Q22.4121 16.2793 22.0117 16.665Q21.6113 17.0508 20.8887 17.0508Z" fill="#ffffff"/>
  <path d="M5.41992 10.0098Q5.24414 10.2734 5.3125 10.5176Q5.38086 10.7617 5.71289 10.7617L6.70898 10.7617Q6.94336 12.0801 7.68555 13.0811Q8.42773 14.082 9.5459 14.6436Q10.6641 15.2051 12.0117 15.2051Q12.8906 15.2051 13.7354 14.9121Q14.5801 14.6191 15.2051 14.1113Q15.5371 13.8477 15.6104 13.5107Q15.6836 13.1738 15.4297 12.9102Q15.1855 12.6465 14.8828 12.666Q14.5801 12.6855 14.2969 12.8906Q13.7793 13.291 13.2373 13.5059Q12.6953 13.7207 12.0117 13.7207Q11.0645 13.7207 10.2637 13.3301Q9.46289 12.9395 8.90137 12.2754Q8.33984 11.6113 8.125 10.7617L9.13086 10.7617Q9.46289 10.7617 9.54102 10.5127Q9.61914 10.2637 9.43359 10.0098L7.89062 7.88086Q7.70508 7.61719 7.42188 7.60742Q7.13867 7.59766 6.93359 7.88086ZM8.57422 6.89453Q8.81836 7.1582 9.12109 7.14355Q9.42383 7.12891 9.69727 6.91406Q10.2051 6.50391 10.752 6.29883Q11.2988 6.09375 11.9922 6.09375Q12.9297 6.09375 13.7305 6.47949Q14.5312 6.86523 15.0928 7.53418Q15.6543 8.20312 15.8691 9.04297L14.8047 9.04297Q14.4824 9.04297 14.4043 9.29199Q14.3262 9.54102 14.5117 9.79492L16.0449 11.9336Q16.2402 12.1973 16.5234 12.207Q16.8066 12.2168 17.0117 11.9336L18.5254 9.79492Q18.7012 9.54102 18.6279 9.29199Q18.5547 9.04297 18.2324 9.04297L17.2852 9.04297Q17.0508 7.73438 16.3086 6.7334Q15.5664 5.73242 14.4531 5.16602Q13.3398 4.59961 11.9922 4.59961Q11.1035 4.59961 10.2588 4.89258Q9.41406 5.18555 8.79883 5.70312Q8.4668 5.9668 8.39355 6.29883Q8.32031 6.63086 8.57422 6.89453Z" fill="#ffffff"/>
 </g>
</svg>
