<?xml version="1.0" encoding="UTF-8"?>
<!--Generator: Apple Native CoreSVG 175-->
<!DOCTYPE svg
PUBLIC "-//W3C//DTD SVG 1.1//EN"
       "http://www.w3.org/Graphics/SVG/1.1/DTD/svg11.dtd">
<svg version="1.1" xmlns="http://www.w3.org/2000/svg" xmlns:xlink="http://www.w3.org/1999/xlink" width="11.4911" height="18.2443">
 <g>
  <rect height="18.2443" opacity="0" width="11.4911" x="0" y="0"/>
  <path d="M5.74692 18.2443Q5.8313 18.2443 5.8989 18.2181Q5.96649 18.1918 6.02158 18.1297L11.382 12.7884Q11.4911 12.6697 11.4911 12.5192Q11.4911 12.3465 11.3854 12.2408Q11.2798 12.1352 11.1238 12.1352Q11.0437 12.1352 10.9711 12.1635Q10.8984 12.1919 10.8516 12.2388L8.02307 15.0793L6.07544 17.0953L6.11679 14.9844L6.11679 3.25989L6.07544 1.14899L8.02307 3.16498L10.8516 6.00555Q10.8984 6.0524 10.9711 6.08078Q11.0437 6.10916 11.1238 6.10916Q11.2798 6.10916 11.3854 6.00349Q11.4911 5.89783 11.4911 5.7251Q11.4911 5.57465 11.382 5.45593L6.02158 0.114594Q5.96649 0.0524902 5.8989 0.0262451Q5.8313 0 5.74692 0Q5.66681 0 5.59921 0.0262451Q5.53162 0.0524902 5.47226 0.114594L0.118713 5.45593Q0 5.57465 0 5.7251Q0 5.89783 0.105667 6.00349Q0.211334 6.10916 0.367279 6.10916Q0.454254 6.10916 0.523453 6.08078Q0.592651 6.0524 0.639496 6.00555L3.47076 3.16498L5.41565 1.14899L5.37689 3.25989L5.37689 14.9844L5.41565 17.0953L3.47076 15.0793L0.639496 12.2388Q0.592651 12.1919 0.523453 12.1635Q0.454254 12.1352 0.367279 12.1352Q0.211334 12.1352 0.105667 12.2408Q0 12.3465 0 12.5192Q0 12.6697 0.118713 12.7884L5.47226 18.1297Q5.53162 18.1918 5.59921 18.2181Q5.66681 18.2443 5.74692 18.2443Z" fill="#ffffff"/>
 </g>
</svg>
