<?xml version="1.0" encoding="UTF-8"?>
<!--Generator: Apple Native CoreSVG 175-->
<!DOCTYPE svg
PUBLIC "-//W3C//DTD SVG 1.1//EN"
       "http://www.w3.org/Graphics/SVG/1.1/DTD/svg11.dtd">
<svg version="1.1" xmlns="http://www.w3.org/2000/svg" xmlns:xlink="http://www.w3.org/1999/xlink" width="9.92101" height="19.3445">
 <g>
  <rect height="19.3445" opacity="0" width="9.92101" x="0" y="0"/>
  <path d="M2.52627 18.3131Q2.69748 18.3131 2.79414 18.2066Q2.89081 18.1001 2.89081 17.9193L2.89081 9.51264L2.54077 9.51264Q2.82245 10.6026 3.483 11.5531Q4.14355 12.5037 5.07579 13.2668Q6.00802 14.0299 7.12283 14.5802Q8.23764 15.1306 9.42782 15.4298Q9.61307 15.4877 9.74414 15.4004Q9.87521 15.3131 9.90802 15.1889Q9.94357 15.0533 9.88185 14.9208Q9.82013 14.7884 9.63214 14.7225Q8.40136 14.4119 7.20172 13.7434Q6.00207 13.0748 5.02925 12.1293Q4.05642 11.1838 3.47362 10.0451Q2.89081 8.90641 2.89081 7.66969L2.89081 2.84593L2.15915 2.84593L2.15915 17.9193Q2.15915 18.1001 2.2523 18.2066Q2.34546 18.3131 2.52627 18.3131ZM0.406827 3.7822L4.63611 3.7822Q4.93579 3.7822 5.02192 3.60116Q5.10806 3.42011 4.92328 3.15324L2.86929 0.220956Q2.71228 0.00138172 2.52284 8.43085e-06Q2.3334-0.00136486 2.18066 0.220956L0.126676 3.15766Q-0.0581078 3.42011 0.0266547 3.60116Q0.111417 3.7822 0.406827 3.7822Z" fill="#ffffff"/>
 </g>
</svg>
