<?xml version="1.0" encoding="UTF-8"?>
<!--Generator: Apple Native CoreSVG 175.5-->
<!DOCTYPE svg
PUBLIC "-//W3C//DTD SVG 1.1//EN"
       "http://www.w3.org/Graphics/SVG/1.1/DTD/svg11.dtd">
<svg version="1.1" xmlns="http://www.w3.org/2000/svg" xmlns:xlink="http://www.w3.org/1999/xlink" width="17.9785" height="17.998">
 <g>
  <rect height="17.998" opacity="0" width="17.9785" x="0" y="0"/>
  <path d="M3.06641 17.998L14.9121 17.998Q16.4453 17.998 17.2119 17.2412Q17.9785 16.4844 17.9785 14.9707L17.9785 3.04688Q17.9785 1.5332 17.2119 0.776367Q16.4453 0.0195312 14.9121 0.0195312L3.06641 0.0195312Q1.5332 0.0195312 0.766602 0.776367Q0 1.5332 0 3.04688L0 14.9707Q0 16.4844 0.766602 17.2412Q1.5332 17.998 3.06641 17.998ZM3.08594 16.4258Q2.35352 16.4258 1.96289 16.04Q1.57227 15.6543 1.57227 14.8926L1.57227 3.125Q1.57227 2.36328 1.96289 1.97754Q2.35352 1.5918 3.08594 1.5918L14.8926 1.5918Q15.6152 1.5918 16.0107 1.97754Q16.4062 2.36328 16.4062 3.125L16.4062 14.8926Q16.4062 15.6543 16.0107 16.04Q15.6152 16.4258 14.8926 16.4258Z" fill="#ffffff"/>
  <path d="M12.0605 6.57227Q11.7383 6.57227 11.5381 6.77734Q11.3379 6.98242 11.3379 7.33398L11.3379 9.02344L11.4844 10.5371L10.0879 9.04297L6.48438 5.43945Q6.25977 5.21484 5.92773 5.21484Q5.60547 5.21484 5.41016 5.41504Q5.21484 5.61523 5.21484 5.94727Q5.21484 6.23047 5.44922 6.46484L9.05273 10.0684L10.5664 11.4844L9.12109 11.3281L7.34375 11.3281Q6.99219 11.3281 6.78223 11.5234Q6.57227 11.7188 6.57227 12.0508Q6.57227 12.373 6.77734 12.5684Q6.98242 12.7637 7.32422 12.7637L11.9629 12.7637Q12.334 12.7637 12.5537 12.5781Q12.7734 12.3926 12.7734 11.9531L12.7734 7.35352Q12.7734 7.01172 12.5781 6.79199Q12.3828 6.57227 12.0605 6.57227Z" fill="#ffffff"/>
 </g>
</svg>
