<?xml version="1.0" encoding="UTF-8"?>
<!--Generator: Apple Native CoreSVG 175-->
<!DOCTYPE svg
PUBLIC "-//W3C//DTD SVG 1.1//EN"
       "http://www.w3.org/Graphics/SVG/1.1/DTD/svg11.dtd">
<svg version="1.1" xmlns="http://www.w3.org/2000/svg" xmlns:xlink="http://www.w3.org/1999/xlink" width="19.1602" height="19.1504">
 <g>
  <rect height="19.1504" opacity="0" width="19.1602" x="0" y="0"/>
  <path d="M9.57031 19.1406Q11.5527 19.1406 13.2861 18.3984Q15.0195 17.6562 16.3379 16.333Q17.6562 15.0098 18.4082 13.2764Q19.1602 11.543 19.1602 9.57031Q19.1602 7.59766 18.4082 5.86426Q17.6562 4.13086 16.3379 2.80762Q15.0195 1.48438 13.2861 0.742188Q11.5527 0 9.57031 0Q7.59766 0 5.86426 0.742188Q4.13086 1.48438 2.81738 2.80762Q1.50391 4.13086 0.751953 5.86426Q0 7.59766 0 9.57031Q0 11.543 0.74707 13.2764Q1.49414 15.0098 2.8125 16.333Q4.13086 17.6562 5.86914 18.3984Q7.60742 19.1406 9.57031 19.1406ZM9.57031 18.3984Q7.74414 18.3984 6.14746 17.71Q4.55078 17.0215 3.33496 15.8105Q2.11914 14.5996 1.43555 12.998Q0.751953 11.3965 0.751953 9.57031Q0.751953 7.74414 1.43555 6.14258Q2.11914 4.54102 3.33496 3.3252Q4.55078 2.10938 6.14746 1.4209Q7.74414 0.732422 9.57031 0.732422Q11.4062 0.732422 13.0029 1.4209Q14.5996 2.10938 15.8154 3.3252Q17.0312 4.54102 17.7197 6.14258Q18.4082 7.74414 18.4082 9.57031Q18.4082 11.3965 17.7246 12.998Q17.041 14.5996 15.8252 15.8105Q14.6094 17.0215 13.0078 17.71Q11.4062 18.3984 9.57031 18.3984ZM6.24023 7.25586Q6.08398 7.25586 5.99121 7.3584Q5.89844 7.46094 5.89844 7.62695L5.89844 12.8516Q5.89844 13.0273 6.00098 13.1201Q6.10352 13.2129 6.25977 13.2129L11.4941 13.2129Q11.6602 13.2129 11.7627 13.125Q11.8652 13.0371 11.8652 12.8906Q11.8652 12.7344 11.7627 12.6367Q11.6602 12.5391 11.4941 12.5391L8.36914 12.5391L7.00195 12.5781L8.05664 11.5527L13.1055 6.51367Q13.2227 6.38672 13.2227 6.25Q13.2227 6.08398 13.1299 5.99121Q13.0371 5.89844 12.8809 5.89844Q12.7148 5.89844 12.5977 6.00586L7.55859 11.0449L6.55273 12.0996L6.5918 10.3809L6.5918 7.62695Q6.5918 7.46094 6.49414 7.3584Q6.39648 7.25586 6.24023 7.25586Z" fill="#ffffff"/>
 </g>
</svg>
