<?xml version="1.0" encoding="UTF-8"?>
<!--Generator: Apple Native CoreSVG 175-->
<!DOCTYPE svg
PUBLIC "-//W3C//DTD SVG 1.1//EN"
       "http://www.w3.org/Graphics/SVG/1.1/DTD/svg11.dtd">
<svg version="1.1" xmlns="http://www.w3.org/2000/svg" xmlns:xlink="http://www.w3.org/1999/xlink" width="24.5442" height="17.0535">
 <g>
  <rect height="17.0535" opacity="0" width="24.5442" x="0" y="0"/>
  <path d="M13.4805 17.0383Q13.8239 17.0383 14.009 16.8144Q14.1942 16.5906 14.1942 16.2613L14.1942 12.1512L14.6111 12.1512Q16.8431 12.1512 18.4985 12.582Q20.154 13.0128 21.2954 13.9584Q22.4368 14.9039 23.1247 16.4633Q23.2802 16.7914 23.4605 16.9148Q23.6407 17.0383 23.8829 17.0383Q24.1541 17.0383 24.3491 16.8244Q24.5442 16.6106 24.5442 16.2289Q24.5442 13.32 23.8585 11.1955Q23.1728 9.07104 21.8733 7.68906Q20.5739 6.30707 18.7386 5.63713Q16.9032 4.96719 14.6111 4.96719L14.1942 4.96719L14.1942 0.783539Q14.1942 0.457001 14.009 0.2285Q13.8239 0 13.4821 0Q13.2404 0 13.045 0.111923Q12.8497 0.223846 12.663 0.405121L5.00702 7.52075Q4.70551 7.79572 4.57565 8.0291Q4.4458 8.26248 4.4458 8.51913Q4.4458 8.77304 4.57565 9.0078Q4.70551 9.24255 5.00702 9.51492L12.663 16.6496Q12.8458 16.8199 13.0458 16.9291Q13.2458 17.0383 13.4805 17.0383ZM9.03488 17.041Q9.3782 17.041 9.56337 16.8328Q9.74854 16.6246 9.74854 16.3321L9.74854 15.1071L4.40704 10.1457Q3.92975 9.70749 3.71941 9.31915Q3.50906 8.93082 3.50906 8.52188Q3.50906 8.10593 3.72154 7.7211Q3.93402 7.33627 4.40704 6.88828L9.74854 1.94061L9.74854 0.722656Q9.74854 0.427399 9.562 0.215073Q9.37546 0.00274658 9.02939 0.00274658Q8.79456 0.00274658 8.59924 0.11116Q8.40393 0.219574 8.21014 0.407867L0.558624 7.5235Q0.193787 7.85736 0.0968933 8.0851Q0 8.31284 0 8.52188Q0 8.72818 0.100403 8.95592Q0.200806 9.18365 0.558624 9.51752L8.21014 16.6524Q8.39737 16.8227 8.59871 16.9318Q8.80005 17.041 9.03488 17.041Z" fill="#ffffff"/>
 </g>
</svg>
