<?xml version="1.0" encoding="UTF-8"?>
<!--Generator: Apple Native CoreSVG 175.5-->
<!DOCTYPE svg
PUBLIC "-//W3C//DTD SVG 1.1//EN"
       "http://www.w3.org/Graphics/SVG/1.1/DTD/svg11.dtd">
<svg version="1.1" xmlns="http://www.w3.org/2000/svg" xmlns:xlink="http://www.w3.org/1999/xlink" width="17.9785" height="17.998">
 <g>
  <rect height="17.998" opacity="0" width="17.9785" x="0" y="0"/>
  <path d="M3.06641 17.998L14.9121 17.998Q16.4453 17.998 17.2119 17.2412Q17.9785 16.4844 17.9785 14.9707L17.9785 3.04688Q17.9785 1.5332 17.2119 0.776367Q16.4453 0.0195312 14.9121 0.0195312L3.06641 0.0195312Q1.5332 0.0195312 0.766602 0.776367Q0 1.5332 0 3.04688L0 14.9707Q0 16.4844 0.766602 17.2412Q1.5332 17.998 3.06641 17.998Z" fill="#ffffff"/>
  <path d="M12.1582 6.49414Q12.4902 6.49414 12.6904 6.71875Q12.8906 6.94336 12.8906 7.30469L12.8906 12.041Q12.8906 12.4902 12.666 12.6855Q12.4414 12.8809 12.0508 12.8809L7.27539 12.8809Q6.92383 12.8809 6.70898 12.6758Q6.49414 12.4707 6.49414 12.1387Q6.49414 11.8066 6.71387 11.6016Q6.93359 11.3965 7.29492 11.3965L9.11133 11.3965L10.6055 11.5527L9.04297 10.0879L5.3418 6.39648Q5.09766 6.15234 5.09766 5.85938Q5.09766 5.50781 5.30273 5.30273Q5.50781 5.09766 5.83008 5.09766Q6.01562 5.09766 6.16211 5.16113Q6.30859 5.22461 6.41602 5.33203L10.1074 9.0332L11.5527 10.5762L11.4062 9.01367L11.4062 7.28516Q11.4062 6.91406 11.6113 6.7041Q11.8164 6.49414 12.1582 6.49414Z" fill="none"/>
 </g>
</svg>
