<?xml version="1.0" encoding="UTF-8"?>
<!--Generator: Apple Native CoreSVG 175-->
<!DOCTYPE svg
PUBLIC "-//W3C//DTD SVG 1.1//EN"
       "http://www.w3.org/Graphics/SVG/1.1/DTD/svg11.dtd">
<svg version="1.1" xmlns="http://www.w3.org/2000/svg" xmlns:xlink="http://www.w3.org/1999/xlink" width="14.5074" height="16.8372">
 <g>
  <rect height="16.8372" opacity="0" width="14.5074" x="0" y="0"/>
  <path d="M7.25159 0Q7.08862 0 6.98021 0.103531Q6.8718 0.207062 6.8718 0.377045L6.8718 12.7785L6.90781 14.9132L4.61517 12.5343L0.852814 8.75198Q0.791779 8.68393 0.706635 8.65211Q0.62149 8.6203 0.53009 8.6203Q0.362854 8.6203 0.253677 8.7252Q0.144501 8.83011 0.144501 8.99445Q0.144501 9.10706 0.200195 9.19083Q0.25589 9.2746 0.336304 9.3605L6.96991 15.966Q7.02927 16.0281 7.10037 16.0641Q7.17148 16.1 7.25159 16.1Q7.33597 16.1 7.40845 16.0641Q7.48093 16.0281 7.54028 15.966L14.1852 9.3605Q14.2683 9.2746 14.3205 9.19083Q14.3727 9.10706 14.3727 8.99445Q14.3727 8.83011 14.2635 8.7252Q14.1544 8.6203 13.9871 8.6203Q13.8957 8.6203 13.8141 8.65211Q13.7325 8.68393 13.6714 8.75198L9.89502 12.5343L7.60239 14.9104L7.63565 12.7785L7.63565 0.377045Q7.63565 0.207062 7.52861 0.103531Q7.42157 0 7.25159 0ZM0.375824 16.0735Q0.208588 16.0735 0.104294 16.1805Q0 16.2875 0 16.4574Q0 16.6273 0.104294 16.7323Q0.208588 16.8372 0.375824 16.8372L14.1261 16.8372Q14.2961 16.8372 14.4018 16.7323Q14.5074 16.6273 14.5074 16.4574Q14.5074 16.2875 14.4018 16.1805Q14.2961 16.0735 14.1261 16.0735Z" fill="rgba(0,0,0,0.85)"/>
 </g>
</svg>
