<?xml version="1.0" encoding="UTF-8"?>
<!--Generator: Apple Native CoreSVG 175.5-->
<!DOCTYPE svg
PUBLIC "-//W3C//DTD SVG 1.1//EN"
       "http://www.w3.org/Graphics/SVG/1.1/DTD/svg11.dtd">
<svg version="1.1" xmlns="http://www.w3.org/2000/svg" xmlns:xlink="http://www.w3.org/1999/xlink" width="19.9219" height="19.9316">
 <g>
  <rect height="19.9316" opacity="0" width="19.9219" x="0" y="0"/>
  <path d="M9.96094 19.9219Q12.002 19.9219 13.8037 19.1406Q15.6055 18.3594 16.9824 16.9824Q18.3594 15.6055 19.1406 13.8037Q19.9219 12.002 19.9219 9.96094Q19.9219 7.91992 19.1406 6.11816Q18.3594 4.31641 16.9824 2.93945Q15.6055 1.5625 13.7988 0.78125Q11.9922 0 9.95117 0Q7.91016 0 6.1084 0.78125Q4.30664 1.5625 2.93457 2.93945Q1.5625 4.31641 0.78125 6.11816Q0 7.91992 0 9.96094Q0 12.002 0.78125 13.8037Q1.5625 15.6055 2.93945 16.9824Q4.31641 18.3594 6.11816 19.1406Q7.91992 19.9219 9.96094 19.9219Z" fill="#ffffff"/>
  <path d="M5.46875 9.96094Q5.16602 9.96094 4.95117 9.74609Q4.73633 9.53125 4.73633 9.21875L4.73633 5.5957Q4.73633 5.13672 4.96094 4.93652Q5.18555 4.73633 5.5957 4.73633L9.20898 4.73633Q9.51172 4.73633 9.72656 4.95117Q9.94141 5.16602 9.94141 5.46875Q9.94141 5.78125 9.72656 5.99609Q9.51172 6.21094 9.20898 6.21094L8.70117 6.20117L7.11914 6.10352L9.44336 8.33008Q9.67773 8.54492 9.68262 8.87695Q9.6875 9.20898 9.45312 9.44336Q9.22852 9.66797 8.90137 9.67285Q8.57422 9.67773 8.33984 9.43359L6.11328 7.08008L6.21094 8.7207L6.21094 9.21875Q6.21094 9.53125 5.99609 9.74609Q5.78125 9.96094 5.46875 9.96094ZM10.7227 15.1953Q10.4102 15.1953 10.1953 14.9805Q9.98047 14.7656 9.98047 14.4629Q9.98047 14.1504 10.1953 13.9355Q10.4102 13.7207 10.7227 13.7207L11.2305 13.7305L12.8125 13.8281L10.4883 11.6016Q10.2539 11.3867 10.249 11.0547Q10.2441 10.7227 10.4785 10.4883Q10.7031 10.2637 11.0303 10.2588Q11.3574 10.2539 11.5918 10.498L13.8184 12.8516L13.7207 11.2109L13.7207 10.7129Q13.7207 10.4004 13.9355 10.1855Q14.1504 9.9707 14.4531 9.9707Q14.7656 9.9707 14.9805 10.1855Q15.1953 10.4004 15.1953 10.7129L15.1953 14.3359Q15.1953 14.7949 14.9658 14.9951Q14.7363 15.1953 14.3262 15.1953Z" fill="none"/>
 </g>
</svg>
