<?xml version="1.0" encoding="UTF-8"?>
<!--Generator: Apple Native CoreSVG 175.5-->
<!DOCTYPE svg
PUBLIC "-//W3C//DTD SVG 1.1//EN"
       "http://www.w3.org/Graphics/SVG/1.1/DTD/svg11.dtd">
<svg version="1.1" xmlns="http://www.w3.org/2000/svg" xmlns:xlink="http://www.w3.org/1999/xlink" width="19.9219" height="19.9316">
 <g>
  <rect height="19.9316" opacity="0" width="19.9219" x="0" y="0"/>
  <path d="M9.96094 19.9219Q12.002 19.9219 13.8037 19.1406Q15.6055 18.3594 16.9824 16.9824Q18.3594 15.6055 19.1406 13.8037Q19.9219 12.002 19.9219 9.96094Q19.9219 7.91992 19.1406 6.11816Q18.3594 4.31641 16.9824 2.93945Q15.6055 1.5625 13.7988 0.78125Q11.9922 0 9.95117 0Q7.91016 0 6.1084 0.78125Q4.30664 1.5625 2.93457 2.93945Q1.5625 4.31641 0.78125 6.11816Q0 7.91992 0 9.96094Q0 12.002 0.78125 13.8037Q1.5625 15.6055 2.93945 16.9824Q4.31641 18.3594 6.11816 19.1406Q7.91992 19.9219 9.96094 19.9219Z" fill="#ffffff"/>
  <path d="M10.0977 15.9863Q8.29102 15.9863 6.93359 15.2344Q5.57617 14.4824 4.82422 13.1299Q4.07227 11.7773 4.07227 9.9707Q4.07227 8.17383 4.8291 6.80176Q5.58594 5.42969 6.93848 4.66309Q8.29102 3.89648 10.0781 3.89648Q11.7969 3.89648 13.1006 4.58984Q14.4043 5.2832 15.1367 6.51367Q15.8691 7.74414 15.8691 9.36523Q15.8691 11.0742 15.1318 12.1338Q14.3945 13.1934 13.1738 13.1934Q12.5781 13.1934 12.1338 12.9297Q11.6895 12.666 11.4746 12.2266Q10.8594 13.1836 9.6875 13.1836Q8.50586 13.1836 7.76855 12.29Q7.03125 11.3965 7.03125 9.98047Q7.03125 8.59375 7.76855 7.7002Q8.50586 6.80664 9.6582 6.80664Q10.1465 6.80664 10.5762 7.0166Q11.0059 7.22656 11.2891 7.54883L11.2891 7.36328Q11.2891 7.17773 11.4648 6.99219Q11.6406 6.80664 11.9238 6.80664Q12.2266 6.80664 12.4121 7.00684Q12.5977 7.20703 12.5977 7.51953L12.5977 11.2305Q12.5977 11.582 12.7783 11.7676Q12.959 11.9531 13.3105 11.9531Q13.8672 11.9531 14.2139 11.2598Q14.5605 10.5664 14.5605 9.4043Q14.5605 8.14453 13.9941 7.19727Q13.4277 6.25 12.417 5.72266Q11.4062 5.19531 10.0684 5.19531Q8.69141 5.19531 7.65625 5.80078Q6.62109 6.40625 6.04492 7.49023Q5.46875 8.57422 5.46875 10Q5.46875 11.4453 6.0498 12.4951Q6.63086 13.5449 7.70996 14.1113Q8.78906 14.6777 10.2734 14.6777Q10.8398 14.6777 11.2842 14.6045Q11.7285 14.5312 12.2266 14.4141Q12.3242 14.3945 12.4023 14.3799Q12.4805 14.3652 12.5391 14.3652Q12.793 14.3652 12.9639 14.5312Q13.1348 14.6973 13.1348 14.9512Q13.1348 15.4688 12.4805 15.6836Q12.041 15.8301 11.4111 15.9082Q10.7812 15.9863 10.0977 15.9863ZM9.92188 11.8359Q10.5664 11.8359 10.957 11.3232Q11.3477 10.8105 11.3477 9.92188Q11.3477 9.07227 10.9619 8.5791Q10.5762 8.08594 9.93164 8.08594Q9.29688 8.08594 8.91602 8.58887Q8.53516 9.0918 8.53516 9.95117Q8.53516 10.8301 8.91113 11.333Q9.28711 11.8359 9.92188 11.8359Z" fill="none"/>
 </g>
</svg>
