<?xml version="1.0" encoding="UTF-8"?>
<!--Generator: Apple Native CoreSVG 175.5-->
<!DOCTYPE svg
PUBLIC "-//W3C//DTD SVG 1.1//EN"
       "http://www.w3.org/Graphics/SVG/1.1/DTD/svg11.dtd">
<svg version="1.1" xmlns="http://www.w3.org/2000/svg" xmlns:xlink="http://www.w3.org/1999/xlink" width="20.2539" height="21.5918">
 <g>
  <rect height="21.5918" opacity="0" width="20.2539" x="0" y="0"/>
  <path d="M0 11.25Q0 13.6621 0.766602 15.5762Q1.5332 17.4902 2.92969 18.833Q4.32617 20.1758 6.21582 20.8838Q8.10547 21.5918 10.3516 21.5918Q11.5625 21.5918 12.6611 21.4404Q13.7598 21.2891 14.4727 21.0547Q14.9805 20.8984 15.1709 20.6494Q15.3613 20.4004 15.3613 20.127Q15.3613 19.8633 15.1758 19.6777Q14.9902 19.4922 14.7168 19.4922Q14.6289 19.4922 14.5166 19.5068Q14.4043 19.5215 14.2578 19.5605Q13.3594 19.7754 12.5293 19.9121Q11.6992 20.0488 10.6641 20.0488Q8.66211 20.0488 7.01172 19.4629Q5.36133 18.877 4.16992 17.749Q2.97852 16.6211 2.3291 15Q1.67969 13.3789 1.67969 11.3086Q1.67969 9.32617 2.29492 7.68555Q2.91016 6.04492 4.04785 4.84863Q5.18555 3.65234 6.76758 2.99805Q8.34961 2.34375 10.293 2.34375Q12.0117 2.34375 13.5303 2.86133Q15.0488 3.37891 16.2158 4.38477Q17.3828 5.39062 18.042 6.86035Q18.7012 8.33008 18.7012 10.2344Q18.7012 11.709 18.3838 12.8223Q18.0664 13.9355 17.4805 14.5605Q16.8945 15.1855 16.0938 15.1855Q15.293 15.1855 14.8535 14.7412Q14.4141 14.2969 14.4141 13.4961L14.4141 6.875Q14.4141 6.48438 14.2041 6.25488Q13.9941 6.02539 13.623 6.02539Q13.252 6.02539 13.042 6.25488Q12.832 6.48438 12.832 6.875L12.832 7.98828L12.7441 7.98828Q12.3633 7.08984 11.5088 6.55762Q10.6543 6.02539 9.57031 6.02539Q8.31055 6.02539 7.33887 6.69434Q6.36719 7.36328 5.81543 8.5498Q5.26367 9.73633 5.26367 11.2793Q5.26367 12.8418 5.81543 14.0381Q6.36719 15.2344 7.34375 15.9082Q8.32031 16.582 9.60938 16.582Q10.7422 16.582 11.5869 15.9961Q12.4316 15.4102 12.8613 14.375L12.9492 14.375Q13.0859 15.4004 13.8818 15.9961Q14.6777 16.5918 15.8398 16.5918Q17.207 16.5918 18.1934 15.7666Q19.1797 14.9414 19.7168 13.4912Q20.2539 12.041 20.2539 10.166Q20.2539 8.04688 19.5166 6.32324Q18.7793 4.59961 17.4463 3.36426Q16.1133 2.12891 14.2969 1.46973Q12.4805 0.810547 10.3125 0.810547Q8.03711 0.810547 6.14746 1.55273Q4.25781 2.29492 2.88086 3.67188Q1.50391 5.04883 0.751953 6.97266Q0 8.89648 0 11.25ZM9.87305 15.0391Q8.99414 15.0391 8.35449 14.5752Q7.71484 14.1113 7.36328 13.2666Q7.01172 12.4219 7.01172 11.2695Q7.01172 10.1367 7.36816 9.29688Q7.72461 8.45703 8.36426 7.99805Q9.00391 7.53906 9.88281 7.53906Q11.2305 7.53906 12.0215 8.53516Q12.8125 9.53125 12.8125 11.2305Q12.8125 12.3828 12.4463 13.2373Q12.0801 14.0918 11.4209 14.5654Q10.7617 15.0391 9.87305 15.0391Z" fill="#ffffff"/>
 </g>
</svg>
