<?xml version="1.0" encoding="UTF-8"?>
<!--Generator: Apple Native CoreSVG 175.5-->
<!DOCTYPE svg
PUBLIC "-//W3C//DTD SVG 1.1//EN"
       "http://www.w3.org/Graphics/SVG/1.1/DTD/svg11.dtd">
<svg version="1.1" xmlns="http://www.w3.org/2000/svg" xmlns:xlink="http://www.w3.org/1999/xlink" width="17.9785" height="17.998">
 <g>
  <rect height="17.998" opacity="0" width="17.9785" x="0" y="0"/>
  <path d="M3.06641 17.998L14.9121 17.998Q16.4453 17.998 17.2119 17.2412Q17.9785 16.4844 17.9785 14.9707L17.9785 3.04688Q17.9785 1.5332 17.2119 0.776367Q16.4453 0.0195312 14.9121 0.0195312L3.06641 0.0195312Q1.5332 0.0195312 0.766602 0.776367Q0 1.5332 0 3.04688L0 14.9707Q0 16.4844 0.766602 17.2412Q1.5332 17.998 3.06641 17.998ZM3.08594 16.4258Q2.35352 16.4258 1.96289 16.04Q1.57227 15.6543 1.57227 14.8926L1.57227 3.125Q1.57227 2.36328 1.96289 1.97754Q2.35352 1.5918 3.08594 1.5918L14.8926 1.5918Q15.6152 1.5918 16.0107 1.97754Q16.4062 2.36328 16.4062 3.125L16.4062 14.8926Q16.4062 15.6543 16.0107 16.04Q15.6152 16.4258 14.8926 16.4258Z" fill="#ffffff"/>
  <path d="M5.01953 11.0059Q5.01953 11.2109 5.15137 11.3477Q5.2832 11.4844 5.49805 11.4844L6.02539 11.4844L5.54688 12.9199Q5.48828 13.1152 5.48828 13.2422Q5.48828 13.4863 5.66406 13.6523Q5.83984 13.8184 6.12305 13.8184Q6.34766 13.8184 6.50391 13.7061Q6.66016 13.5938 6.73828 13.3398L7.32422 11.4844L10.6543 11.4844L11.2402 13.3496Q11.3184 13.6035 11.4648 13.7109Q11.6113 13.8184 11.8555 13.8184Q12.1387 13.8184 12.3145 13.6523Q12.4902 13.4863 12.4902 13.2422Q12.4902 13.1348 12.4219 12.9199L11.9434 11.4844L12.4805 11.4844Q12.7051 11.4844 12.832 11.3477Q12.959 11.2109 12.959 11.0059Q12.959 10.8008 12.832 10.6592Q12.7051 10.5176 12.4805 10.5176L11.6309 10.5176L11.3574 9.69727L12.4805 9.69727Q12.7051 9.69727 12.832 9.55566Q12.959 9.41406 12.959 9.20898Q12.959 9.00391 12.832 8.86719Q12.7051 8.73047 12.4805 8.73047L11.0352 8.73047L9.73633 4.82422Q9.64844 4.56055 9.46777 4.40918Q9.28711 4.25781 8.98438 4.25781Q8.68164 4.25781 8.49609 4.40918Q8.31055 4.56055 8.22266 4.82422L6.93359 8.73047L5.49805 8.73047Q5.2832 8.73047 5.15137 8.86719Q5.01953 9.00391 5.01953 9.20898Q5.01953 9.41406 5.15137 9.55566Q5.2832 9.69727 5.49805 9.69727L6.61133 9.69727L6.33789 10.5176L5.49805 10.5176Q5.2832 10.5176 5.15137 10.6592Q5.01953 10.8008 5.01953 11.0059ZM7.61719 10.5176L7.87109 9.69727L10.0977 9.69727L10.3613 10.5176ZM8.16406 8.73047L8.98438 6.11328L9.80469 8.73047Z" fill="#ffffff"/>
 </g>
</svg>
