<?xml version="1.0" encoding="UTF-8"?>
<!--Generator: Apple Native CoreSVG 175-->
<!DOCTYPE svg
PUBLIC "-//W3C//DTD SVG 1.1//EN"
       "http://www.w3.org/Graphics/SVG/1.1/DTD/svg11.dtd">
<svg version="1.1" xmlns="http://www.w3.org/2000/svg" xmlns:xlink="http://www.w3.org/1999/xlink" width="29.1853" height="15.0925">
 <g>
  <rect height="15.0925" opacity="0" width="29.1853" x="0" y="0"/>
  <path d="M0.961304 15.0784L3.04733 15.0784Q3.54843 15.0784 3.77853 14.8484Q4.00864 14.6184 4.00864 14.1144L4.00864 0.961304Q4.00864 0.451813 3.77853 0.225906Q3.54843 0 3.04733 0L0.961304 0Q0.457458 0 0.228729 0.230026Q0 0.460052 0 0.961304L0 14.1144Q0 14.6184 0.228729 14.8484Q0.457458 15.0784 0.961304 15.0784ZM15.5493 14.7223Q15.9567 14.7223 16.2769 14.417Q16.597 14.1116 16.597 13.4671L16.597 1.60156Q16.597 0.957031 16.2769 0.65033Q15.9567 0.343628 15.5493 0.343628Q15.3337 0.343628 15.1192 0.429382Q14.9048 0.515137 14.7075 0.627594L4.55948 6.59256Q4.26682 6.77139 4.11331 6.99562Q3.95981 7.21985 3.95981 7.52731Q3.95981 7.8418 4.11682 8.07304Q4.27383 8.30429 4.55948 8.4761L14.7075 14.4382Q14.8907 14.5508 15.1122 14.6365Q15.3337 14.7223 15.5493 14.7223ZM28.1375 14.7223Q28.5381 14.7223 28.8617 14.417Q29.1853 14.1116 29.1853 13.4671L29.1853 1.60156Q29.1853 0.957031 28.8617 0.65033Q28.5381 0.343628 28.1375 0.343628Q27.9219 0.343628 27.7039 0.429382Q27.486 0.515137 27.2888 0.627594L17.1477 6.59256Q16.8552 6.77139 16.7017 6.99562Q16.5482 7.21985 16.5482 7.52731Q16.5482 7.8418 16.7052 8.07304Q16.8622 8.30429 17.1477 8.4761L27.2888 14.4382Q27.4789 14.5508 27.7004 14.6365Q27.9219 14.7223 28.1375 14.7223Z" fill="rgba(0,0,0,0.85)"/>
 </g>
</svg>
