<?xml version="1.0" encoding="UTF-8"?>
<!--Generator: Apple Native CoreSVG 175-->
<!DOCTYPE svg
PUBLIC "-//W3C//DTD SVG 1.1//EN"
       "http://www.w3.org/Graphics/SVG/1.1/DTD/svg11.dtd">
<svg version="1.1" xmlns="http://www.w3.org/2000/svg" xmlns:xlink="http://www.w3.org/1999/xlink" width="19.2383" height="19.2759">
 <g>
  <rect height="19.2759" opacity="0" width="19.2383" x="0" y="0"/>
  <path d="M1.36202 17.8995Q2.29753 18.8545 3.4614 19.1473Q4.62526 19.44 5.8288 19.0663Q7.03234 18.6925 8.07649 17.6561L10.1175 15.6311Q9.60924 16.0417 9.00278 16.0079Q8.39632 15.9741 7.83113 15.4088L3.92488 11.4998Q3.3597 10.9346 3.28974 10.2864Q3.21977 9.63808 3.63039 9.13698L1.59838 11.185Q0.569018 12.2319 0.20357 13.4256Q-0.161878 14.6193 0.128725 15.7797Q0.419329 16.94 1.36202 17.8995ZM8.13036 14.448Q8.84874 15.1662 9.54889 15.176Q10.249 15.1857 10.9799 14.448L14.4432 10.9749Q15.1839 10.244 15.179 9.54867Q15.1741 8.85332 14.4628 8.13494L11.1194 4.79861Q10.408 4.08037 9.71277 4.079Q9.0175 4.07763 8.28661 4.81112L4.80654 8.2744Q4.07564 9.01232 4.08541 9.71255Q4.09517 10.4128 4.80654 11.1241ZM7.00762 10.1959Q6.76668 9.94784 6.76668 9.63167Q6.76668 9.31551 7.00762 9.07015Q7.25298 8.83181 7.56922 8.83669Q7.88545 8.84157 8.13341 9.07992Q8.35924 9.30849 8.36061 9.62816Q8.36199 9.94784 8.13341 10.1764Q7.87569 10.4343 7.55945 10.4294Q7.24321 10.4245 7.00762 10.1959ZM9.07793 8.1354Q8.83699 7.89004 8.83699 7.56899Q8.83699 7.24795 9.06557 7.01662Q9.31352 6.77126 9.62976 6.77126Q9.946 6.77126 10.1914 7.01662Q10.4225 7.24795 10.426 7.56762Q10.4296 7.88729 10.1744 8.1354Q9.95302 8.36397 9.62839 8.36397Q9.30376 8.36397 9.07793 8.1354ZM12.2447 10.1959Q12.0136 10.4245 11.6889 10.4245Q11.3643 10.4245 11.1261 10.1764Q10.8975 9.9576 10.8975 9.63305Q10.8975 9.30849 11.1261 9.07992Q11.3741 8.83181 11.6938 8.83669Q12.0136 8.84157 12.2447 9.07015Q12.4901 9.31551 12.4901 9.63167Q12.4901 9.94784 12.2447 10.1959ZM9.06557 12.2467Q8.83699 12.0181 8.83211 11.6985Q8.82723 11.3788 9.07793 11.1307Q9.31352 10.8924 9.63327 10.8972Q9.95302 10.9021 10.1744 11.1307Q10.4198 11.369 10.426 11.6936Q10.4323 12.0181 10.1914 12.2467Q9.93624 12.4948 9.62488 12.4948Q9.31352 12.4948 9.06557 12.2467ZM15.6574 10.2049L17.6514 8.08809Q18.6667 7.01739 19.0322 5.82361Q19.3976 4.62984 19.1153 3.47796Q18.833 2.32607 17.8835 1.37362Q16.9382 0.41857 15.7813 0.141241Q14.6245-0.136087 13.4294 0.234243Q12.2342 0.604574 11.1662 1.60998L9.05931 3.60415Q9.55065 3.19353 10.2519 3.2947Q10.9531 3.39586 11.5183 3.95693L15.4175 7.85601Q15.9757 8.42135 16.0217 9.06603Q16.0678 9.71071 15.6574 10.2049Z" fill="rgba(0,0,0,0.85)"/>
 </g>
</svg>
