<?xml version="1.0" encoding="UTF-8"?>
<!--Generator: Apple Native CoreSVG 175-->
<!DOCTYPE svg
PUBLIC "-//W3C//DTD SVG 1.1//EN"
       "http://www.w3.org/Graphics/SVG/1.1/DTD/svg11.dtd">
<svg version="1.1" xmlns="http://www.w3.org/2000/svg" xmlns:xlink="http://www.w3.org/1999/xlink" width="18.3856" height="14.6185">
 <g>
  <rect height="14.6185" opacity="0" width="18.3856" x="0" y="0"/>
  <path d="M0 14.5572L1.53549 14.5572L1.53549 0L0 0ZM3.04337 14.5572L3.92349 14.5572L3.92349 0L3.04337 0ZM5.39062 14.5572L7.91794 14.5572L7.91794 0L5.39062 0ZM8.83713 14.5572L10.448 14.5572L10.448 0L8.83713 0ZM11.3992 14.5572L13.9 14.5572L13.9 0L11.3992 0ZM14.67 14.5572L16.6281 14.5572L16.6281 0L14.67 0ZM17.1191 14.5572L18.3856 14.5572L18.3856 0L17.1191 0Z" fill="#ffffff"/>
 </g>
</svg>
