<?xml version="1.0" encoding="UTF-8"?>
<!--Generator: Apple Native CoreSVG 175.5-->
<!DOCTYPE svg
PUBLIC "-//W3C//DTD SVG 1.1//EN"
       "http://www.w3.org/Graphics/SVG/1.1/DTD/svg11.dtd">
<svg version="1.1" xmlns="http://www.w3.org/2000/svg" xmlns:xlink="http://www.w3.org/1999/xlink" width="19.9219" height="19.9121">
 <g>
  <rect height="19.9121" opacity="0" width="19.9219" x="0" y="0"/>
  <path d="M0.00976562 9.83398Q0.654297 8.94531 1.4502 8.13965Q2.24609 7.33398 3.13477 6.66016Q3.125 6.63086 3.12012 6.59668Q3.11523 6.5625 3.11523 6.52344Q3.10547 6.25 3.0127 5.89355Q2.91992 5.53711 2.74902 5.19043Q2.57812 4.84375 2.33887 4.59961Q2.09961 4.35547 1.78711 4.30664Q0.986328 5.44922 0.517578 6.79688Q0.0488281 8.14453 0 9.61914Q0 9.67773 0 9.73145Q0 9.78516 0.00976562 9.83398ZM4.16016 5.9375Q4.39453 5.78125 4.63379 5.63965Q4.87305 5.49805 5.11719 5.36133Q4.9707 4.04297 5.01465 2.97852Q5.05859 1.91406 5.29297 1.17188Q3.68164 2.04102 2.44141 3.44727Q2.92969 3.58398 3.27637 3.98926Q3.62305 4.39453 3.84277 4.92188Q4.0625 5.44922 4.16016 5.9375ZM6.15234 4.84375Q6.51367 4.67773 6.88477 4.53125Q7.25586 4.38477 7.63672 4.25781Q7.61719 4.10156 7.60742 3.95508Q7.59766 3.80859 7.59766 3.65234Q7.59766 2.48047 8.17871 1.53809Q8.75977 0.595703 9.74609 0Q9.69727 0 9.65332 0Q9.60938 0 9.56055 0Q8.74023 0.0292969 7.94922 0.19043Q7.1582 0.351562 6.42578 0.644531Q6.23047 1.29883 6.12305 2.33887Q6.01562 3.37891 6.15234 4.84375ZM8.74023 3.92578Q9.6582 3.69141 10.6152 3.56934Q11.5723 3.44727 12.5684 3.44727Q14.0527 3.44727 15.5078 3.73535Q16.9629 4.02344 18.291 4.56055Q17.2363 2.92969 15.6104 1.78223Q13.9844 0.634766 12.0312 0.214844Q10.9961 0.507812 10.2441 0.981445Q9.49219 1.45508 9.09668 2.11914Q8.70117 2.7832 8.7207 3.65234Q8.7207 3.7207 8.73047 3.78906Q8.74023 3.85742 8.74023 3.92578ZM3.11523 8.11523Q2.27539 8.85742 1.50879 9.74121Q0.742188 10.625 0.136719 11.6016Q0.419922 13.2715 1.25 14.7363Q2.08008 16.2012 3.30078 17.3145Q2.86133 16.2695 2.74902 15.127Q2.63672 13.9844 2.71484 12.793Q2.79297 11.6016 2.9248 10.415Q3.05664 9.22852 3.11523 8.11523ZM4.26758 7.20703Q4.27734 8.54492 4.12109 9.93164Q3.96484 11.3184 3.8623 12.666Q3.75977 14.0137 3.91602 15.2393Q4.07227 16.4648 4.6875 17.4951Q5.30273 18.5254 6.60156 19.2676Q7.38281 19.5801 8.22754 19.7461Q9.07227 19.9121 9.96094 19.9121Q10.8105 19.9121 11.5625 19.7852Q9.69727 17.5098 8.42285 15.1758Q7.14844 12.8418 6.38672 10.6396Q5.625 8.4375 5.29297 6.54297Q4.75586 6.85547 4.26758 7.20703ZM7.93945 5.32227Q7.51953 5.46875 7.10938 5.63965Q6.69922 5.81055 6.29883 6.00586Q6.60156 7.8418 7.3584 10.083Q8.11523 12.3242 9.44824 14.7314Q10.7812 17.1387 12.7832 19.4922Q14.3848 19.0137 15.7324 18.0371Q17.0801 17.0605 18.0371 15.7227Q17.998 14.5215 17.373 13.5693Q16.748 12.6172 15.752 11.8164Q14.7559 11.0156 13.5986 10.2832Q12.4414 9.55078 11.3086 8.80371Q10.1758 8.05664 9.28223 7.21191Q8.38867 6.36719 7.93945 5.32227ZM18.916 14.2676Q19.4043 13.2812 19.6631 12.1924Q19.9219 11.1035 19.9219 9.95117Q19.9219 8.95508 19.7266 8.00781Q19.5312 7.06055 19.1602 6.19141Q17.5977 5.38086 15.9668 4.97559Q14.3359 4.57031 12.5684 4.57031Q10.7617 4.57031 9.04297 5Q9.43359 5.80078 10.2051 6.48438Q10.9766 7.16797 11.9678 7.80762Q12.959 8.44727 14.0186 9.11133Q15.0781 9.77539 16.0645 10.5273Q17.0508 11.2793 17.8027 12.1973Q18.5547 13.1152 18.916 14.2676Z" fill="#ffffff"/>
 </g>
</svg>
