<?xml version="1.0" encoding="UTF-8"?>
<!--Generator: Apple Native CoreSVG 175.5-->
<!DOCTYPE svg
PUBLIC "-//W3C//DTD SVG 1.1//EN"
       "http://www.w3.org/Graphics/SVG/1.1/DTD/svg11.dtd">
<svg version="1.1" xmlns="http://www.w3.org/2000/svg" xmlns:xlink="http://www.w3.org/1999/xlink" width="19.9219" height="19.9316">
 <g>
  <rect height="19.9316" opacity="0" width="19.9219" x="0" y="0"/>
  <path d="M1.03516 10.6445Q2.36328 8.82812 4.13086 7.50488Q5.89844 6.18164 8.00781 5.45898Q10.1172 4.73633 12.4707 4.73633Q13.8965 4.73633 15.2295 5.00488Q16.5625 5.27344 17.832 5.82031L17.6172 4.56055Q16.4258 4.12109 15.1172 3.88672Q13.8086 3.65234 12.4707 3.65234Q9.9707 3.65234 7.7002 4.42871Q5.42969 5.20508 3.52539 6.61621Q1.62109 8.02734 0.224609 9.92188ZM17.6367 14.5801L18.6719 14.2773Q18.3594 13.1738 17.6709 12.2852Q16.9824 11.3965 16.0645 10.6689Q15.1465 9.94141 14.1455 9.30664Q13.1445 8.67188 12.1826 8.06641Q11.2207 7.46094 10.4443 6.82617Q9.66797 6.19141 9.2041 5.46387Q8.74023 4.73633 8.74023 3.84766Q8.74023 2.91992 9.2041 2.23145Q9.66797 1.54297 10.5371 1.08398L9.86328 0.214844Q8.85742 0.791016 8.25684 1.7334Q7.65625 2.67578 7.65625 3.84766Q7.65625 4.92188 8.12988 5.79102Q8.60352 6.66016 9.4043 7.39258Q10.2051 8.125 11.1816 8.7793Q12.1582 9.43359 13.1738 10.0684Q14.1895 10.7031 15.1025 11.3818Q16.0156 12.0605 16.6895 12.8467Q17.3633 13.6328 17.6367 14.5801ZM3.4082 16.8848L4.6582 17.002Q4.10156 15.9473 4.01367 14.6826Q3.92578 13.418 4.0625 12.041Q4.19922 10.6641 4.3457 9.26758Q4.49219 7.87109 4.39453 6.54297Q4.36523 6.07422 4.16016 5.44434Q3.95508 4.81445 3.58398 4.30176Q3.21289 3.78906 2.68555 3.66211L2.41211 4.7168Q2.64648 4.74609 2.8418 5.08789Q3.03711 5.42969 3.16406 5.86914Q3.29102 6.30859 3.31055 6.63086Q3.38867 7.79297 3.25684 9.0918Q3.125 10.3906 2.98828 11.7383Q2.85156 13.0859 2.90527 14.3945Q2.95898 15.7031 3.4082 16.8848ZM11.2793 19.209L12.1484 18.5547Q10.4297 16.4258 9.26758 14.2725Q8.10547 12.1191 7.41699 10.1172Q6.72852 8.11523 6.44043 6.41602Q6.15234 4.7168 6.19141 3.4668Q6.23047 2.2168 6.51367 1.58203L5.33203 1.74805Q5.10742 2.65625 5.14648 4.0625Q5.18555 5.46875 5.53711 7.23145Q5.88867 8.99414 6.61133 10.9863Q7.33398 12.9785 8.48633 15.0684Q9.63867 17.1582 11.2793 19.209ZM9.96094 19.9219Q12.002 19.9219 13.8037 19.1406Q15.6055 18.3594 16.9824 16.9824Q18.3594 15.6055 19.1406 13.8037Q19.9219 12.002 19.9219 9.96094Q19.9219 7.91992 19.1406 6.11816Q18.3594 4.31641 16.9824 2.93945Q15.6055 1.5625 13.7988 0.78125Q11.9922 0 9.95117 0Q7.91016 0 6.1084 0.78125Q4.30664 1.5625 2.93457 2.93945Q1.5625 4.31641 0.78125 6.11816Q0 7.91992 0 9.96094Q0 12.002 0.78125 13.8037Q1.5625 15.6055 2.93945 16.9824Q4.31641 18.3594 6.11816 19.1406Q7.91992 19.9219 9.96094 19.9219ZM9.96094 18.5938Q8.19336 18.5938 6.63086 17.915Q5.06836 17.2363 3.87695 16.0449Q2.68555 14.8535 2.00684 13.291Q1.32812 11.7285 1.32812 9.96094Q1.32812 8.19336 2.00684 6.63086Q2.68555 5.06836 3.87207 3.87695Q5.05859 2.68555 6.62109 2.00684Q8.18359 1.32812 9.95117 1.32812Q11.7188 1.32812 13.2812 2.00684Q14.8438 2.68555 16.04 3.87695Q17.2363 5.06836 17.915 6.63086Q18.5938 8.19336 18.5938 9.96094Q18.5938 11.7285 17.915 13.291Q17.2363 14.8535 16.0449 16.0449Q14.8535 17.2363 13.291 17.915Q11.7285 18.5938 9.96094 18.5938Z" fill="#ffffff"/>
 </g>
</svg>
