<?xml version="1.0" encoding="UTF-8"?>
<!--Generator: Apple Native CoreSVG 175.5-->
<!DOCTYPE svg
PUBLIC "-//W3C//DTD SVG 1.1//EN"
       "http://www.w3.org/Graphics/SVG/1.1/DTD/svg11.dtd">
<svg version="1.1" xmlns="http://www.w3.org/2000/svg" xmlns:xlink="http://www.w3.org/1999/xlink" width="22.8711" height="21.8115">
 <g>
  <rect height="21.8115" opacity="0" width="22.8711" x="0" y="0"/>
  <path d="M0 9.65088Q0 10.3442 0.400391 10.7446Q0.800781 11.145 1.49414 11.145L21.3672 11.145Q22.0605 11.145 22.4658 10.7446Q22.8711 10.3442 22.8711 9.65088L22.8711 8.23486Q22.8711 7.55127 22.4658 7.14111Q22.0605 6.73096 21.3672 6.73096L1.49414 6.73096Q0.800781 6.73096 0.400391 7.14111Q0 7.55127 0 8.23486ZM1.875 8.28369L20.9863 8.28369Q21.3281 8.28369 21.3281 8.62549L21.3281 9.25049Q21.3281 9.60205 20.9863 9.60205L1.875 9.60205Q1.54297 9.60205 1.54297 9.25049L1.54297 8.62549Q1.54297 8.28369 1.875 8.28369ZM6.21094 20.9302L16.6602 20.9302Q17.7832 20.9302 18.4424 20.5396Q19.1016 20.1489 19.4287 19.5239Q19.7559 18.8989 19.9023 18.1958L21.4551 10.7544L19.9219 10.4907L18.4668 17.6001Q18.3301 18.2251 18.1201 18.6157Q17.9102 19.0063 17.5049 19.187Q17.0996 19.3677 16.3867 19.3677L6.48438 19.3677Q5.77148 19.3677 5.36621 19.187Q4.96094 19.0063 4.75098 18.6157Q4.54102 18.2251 4.4043 17.6001L2.94922 10.4907L1.41602 10.7544L2.96875 18.1958Q3.11523 18.8989 3.44238 19.5239Q3.76953 20.1489 4.42871 20.5396Q5.08789 20.9302 6.21094 20.9302ZM7.27539 18.3032Q7.54883 18.2642 7.68555 18.0835Q7.82227 17.9028 7.7832 17.6685L6.97266 12.561Q6.93359 12.3267 6.74316 12.1997Q6.55273 12.0728 6.28906 12.1118Q6.01562 12.1606 5.87402 12.3364Q5.73242 12.5122 5.78125 12.7466L6.5918 17.854Q6.64062 18.0981 6.82617 18.2251Q7.01172 18.3521 7.27539 18.3032ZM10.0781 18.2446Q10.3418 18.2349 10.498 18.0688Q10.6543 17.9028 10.6445 17.6685L10.332 12.6099Q10.3125 12.3657 10.1416 12.2144Q9.9707 12.063 9.69727 12.0825Q9.43359 12.1021 9.27246 12.2681Q9.11133 12.4341 9.13086 12.6782L9.44336 17.7271Q9.46289 17.9712 9.63867 18.1177Q9.81445 18.2642 10.0781 18.2446ZM12.8027 18.2446Q13.0664 18.2642 13.2422 18.1177Q13.418 17.9712 13.4375 17.7271L13.75 12.6782Q13.7695 12.4341 13.6084 12.2681Q13.4473 12.1021 13.1836 12.0825Q12.9102 12.063 12.7393 12.2144Q12.5684 12.3657 12.5488 12.6099L12.2363 17.6685Q12.2266 17.9028 12.3828 18.0688Q12.5391 18.2349 12.8027 18.2446ZM15.5957 18.3032Q15.8594 18.3521 16.0498 18.2251Q16.2402 18.0981 16.2793 17.854L17.0996 12.7466Q17.1387 12.5122 16.9971 12.3364Q16.8555 12.1606 16.582 12.1118Q16.3184 12.0728 16.1328 12.1997Q15.9473 12.3267 15.8984 12.561L15.0879 17.6685Q15.0488 17.9028 15.1855 18.0835Q15.3223 18.2642 15.5957 18.3032ZM3.1543 7.13135L5.11719 7.13135L8.53516 1.18408Q8.73047 0.83252 8.6084 0.544434Q8.48633 0.256348 8.22266 0.109863Q7.95898-0.0366211 7.64648 0.012207Q7.33398 0.0610352 7.13867 0.393066ZM17.7539 7.13135L19.7168 7.13135L15.7324 0.393066Q15.5469 0.0708008 15.2344 0.0219727Q14.9219-0.0268555 14.6484 0.109863Q14.3848 0.256348 14.2627 0.544434Q14.1406 0.83252 14.3359 1.18408Z" fill="#ffffff"/>
 </g>
</svg>
