<?xml version="1.0" encoding="UTF-8"?>
<!--Generator: Apple Native CoreSVG 175.5-->
<!DOCTYPE svg
PUBLIC "-//W3C//DTD SVG 1.1//EN"
       "http://www.w3.org/Graphics/SVG/1.1/DTD/svg11.dtd">
<svg version="1.1" xmlns="http://www.w3.org/2000/svg" xmlns:xlink="http://www.w3.org/1999/xlink" width="19.9219" height="19.9316">
 <g>
  <rect height="19.9316" opacity="0" width="19.9219" x="0" y="0"/>
  <path d="M9.96094 19.9219Q12.002 19.9219 13.8037 19.1406Q15.6055 18.3594 16.9824 16.9824Q18.3594 15.6055 19.1406 13.8037Q19.9219 12.002 19.9219 9.96094Q19.9219 7.91992 19.1406 6.11816Q18.3594 4.31641 16.9824 2.93945Q15.6055 1.5625 13.7988 0.78125Q11.9922 0 9.95117 0Q7.91016 0 6.1084 0.78125Q4.30664 1.5625 2.93457 2.93945Q1.5625 4.31641 0.78125 6.11816Q0 7.91992 0 9.96094Q0 12.002 0.78125 13.8037Q1.5625 15.6055 2.93945 16.9824Q4.31641 18.3594 6.11816 19.1406Q7.91992 19.9219 9.96094 19.9219Z" fill="#ffffff"/>
  <path d="M6.25977 13.0957Q5.69336 13.0957 5.19043 12.998Q4.6875 12.9004 4.30664 12.5391Q3.94531 12.168 3.84766 11.665Q3.75 11.1621 3.75 10.6055L3.75 9.31641Q3.75 8.75977 3.84766 8.26172Q3.94531 7.76367 4.30664 7.38281Q4.6875 7.01172 5.19043 6.91406Q5.69336 6.81641 6.25977 6.81641L13.0371 6.81641Q13.5938 6.81641 14.0967 6.91406Q14.5996 7.01172 14.9707 7.38281Q15.332 7.76367 15.4346 8.26172Q15.5371 8.75977 15.5371 9.31641L15.5371 10.6055Q15.5371 11.1621 15.4346 11.665Q15.332 12.168 14.9707 12.5391Q14.5996 12.9004 14.0967 12.998Q13.5938 13.0957 13.0371 13.0957ZM6.12305 11.9727L13.1641 11.9727Q13.8965 11.9727 14.1602 11.709Q14.2773 11.5918 14.3457 11.3379Q14.4141 11.084 14.4141 10.7227L14.4141 9.18945Q14.4141 8.82812 14.3457 8.5791Q14.2773 8.33008 14.1602 8.21289Q13.8867 7.93945 13.1641 7.93945L6.12305 7.93945Q5.76172 7.93945 5.5127 8.00781Q5.26367 8.07617 5.12695 8.20312Q5.00977 8.32031 4.95117 8.56934Q4.89258 8.81836 4.89258 9.18945L4.89258 10.7227Q4.89258 11.1035 4.95117 11.3477Q5.00977 11.5918 5.12695 11.709Q5.39062 11.9727 6.12305 11.9727ZM6.17188 11.377Q5.78125 11.377 5.625 11.2402Q5.48828 11.0742 5.48828 10.6934L5.48828 9.20898Q5.48828 8.83789 5.625 8.66211Q5.78125 8.52539 6.17188 8.52539L13.125 8.52539Q13.5059 8.52539 13.6621 8.66211Q13.8281 8.82812 13.8281 9.20898L13.8281 10.6934Q13.8281 11.0742 13.6621 11.2402Q13.5156 11.377 13.125 11.377ZM15.9766 11.1523L15.9766 8.76953Q16.25 8.79883 16.5381 9.11621Q16.8262 9.43359 16.8262 9.96094Q16.8262 10.4785 16.5381 10.8057Q16.25 11.1328 15.9766 11.1523Z" fill="none"/>
 </g>
</svg>
