<?xml version="1.0" encoding="UTF-8"?>
<!--Generator: Apple Native CoreSVG 175-->
<!DOCTYPE svg
PUBLIC "-//W3C//DTD SVG 1.1//EN"
       "http://www.w3.org/Graphics/SVG/1.1/DTD/svg11.dtd">
<svg version="1.1" xmlns="http://www.w3.org/2000/svg" xmlns:xlink="http://www.w3.org/1999/xlink" width="23.4602" height="16.6428">
 <g>
  <rect height="16.6428" opacity="0" width="23.4602" x="0" y="0"/>
  <path d="M10.35 16.6428L13.1172 16.6428Q15.1074 16.6428 16.5289 16.405Q17.9504 16.1673 19.0211 15.6432Q20.4454 14.9533 21.436 13.8542Q22.4266 12.7551 22.9434 11.3505Q23.4602 9.94583 23.4602 8.32352Q23.4602 6.40472 22.7266 4.78165L0.733643 4.78165Q0 6.40472 0 8.32352Q0 9.94583 0.516815 11.3505Q1.03363 12.7551 2.02423 13.8542Q3.01483 14.9533 4.43909 15.6432Q5.5098 16.1673 6.9313 16.405Q8.35281 16.6428 10.35 16.6428ZM11.7363 11.7107Q10.9235 11.7107 10.3727 11.1613Q9.82193 10.6119 9.82193 9.82819L9.82193 7.08282L10.6906 6.70364L10.6906 8.22906Q11.1325 7.88879 11.7363 7.88879Q12.2551 7.88879 12.6957 8.15437Q13.1363 8.41995 13.4019 8.862Q13.6676 9.30405 13.6676 9.82819Q13.6676 10.34 13.4033 10.7694Q13.139 11.1989 12.7033 11.4548Q12.2676 11.7107 11.7363 11.7107ZM11.7363 10.8588Q12.1645 10.8588 12.4706 10.5527Q12.7766 10.2466 12.7766 9.82819Q12.7766 9.40445 12.4706 9.09348Q12.1645 8.7825 11.7363 8.7825Q11.3153 8.7825 11.003 9.0921Q10.6906 9.4017 10.6906 9.82819Q10.6906 10.2466 10.9981 10.5527Q11.3055 10.8588 11.7363 10.8588ZM1.04019 4.17511L22.42 4.17511Q21.8594 3.16757 21.0051 2.3584Q20.1508 1.54922 19.0211 1.01379Q17.9504 0.489502 16.5289 0.24826Q15.1074 0.00701904 13.1172 0.00701904L10.35 0.00701904Q8.35281 0.00701904 6.9313 0.24826Q5.5098 0.489502 4.43909 1.01379Q3.30933 1.54922 2.45506 2.3584Q1.6008 3.16757 1.04019 4.17511Z" fill="rgba(0,0,0,0.85)"/>
 </g>
</svg>
