<?xml version="1.0" encoding="UTF-8"?>
<!--Generator: Apple Native CoreSVG 175-->
<!DOCTYPE svg
PUBLIC "-//W3C//DTD SVG 1.1//EN"
       "http://www.w3.org/Graphics/SVG/1.1/DTD/svg11.dtd">
<svg version="1.1" xmlns="http://www.w3.org/2000/svg" xmlns:xlink="http://www.w3.org/1999/xlink" width="15.5623" height="14.7964">
 <g>
  <rect height="14.7964" opacity="0" width="15.5623" x="0" y="0"/>
  <path d="M6.48163 9.2894Q7.11609 9.56131 7.76649 9.46579Q8.4169 9.37027 8.95088 8.98064Q9.48486 8.591 9.75937 7.96646L11.5775 3.79761Q11.8492 3.18008 11.7635 2.52342Q11.6779 1.86676 11.2881 1.3279Q10.8984 0.789032 10.2641 0.510101Q9.6199 0.252228 8.96957 0.342865Q8.31924 0.433502 7.78389 0.826721Q7.24854 1.21994 6.96686 1.87103L5.1445 6.00464Q4.86298 6.6391 4.95712 7.29431Q5.05127 7.94952 5.44792 8.4787Q5.84457 9.00787 6.48163 9.2894ZM7.45392 8.67142Q6.75079 8.67142 6.25336 8.17261Q5.75592 7.6738 5.75592 6.95663Q5.75592 6.24222 6.25122 5.74554Q6.74652 5.24887 7.45392 5.24887Q8.18085 5.24887 8.67973 5.74554Q9.17862 6.24222 9.17862 6.95663Q9.17862 7.6738 8.67973 8.17261Q8.18085 8.67142 7.45392 8.67142ZM7.45392 8.12576Q7.96097 8.12576 8.29903 7.78847Q8.63708 7.45117 8.63708 6.95663Q8.63708 6.46484 8.29903 6.12617Q7.96097 5.78751 7.45392 5.78751Q6.97067 5.78751 6.63261 6.12617Q6.29456 6.46484 6.29456 6.95663Q6.29456 7.45117 6.63261 7.78847Q6.97067 8.12576 7.45392 8.12576ZM15.3598 6.62933Q15.1129 5.79651 14.6469 5.21271Q14.1809 4.62891 13.6194 4.18533Q13.0579 3.74176 12.5375 3.32764Q12.4594 3.75381 12.3032 4.11514L10.4782 8.284Q10.1102 9.11057 9.40765 9.62074Q8.70514 10.1309 7.8479 10.2486Q6.99066 10.3664 6.16409 10.018Q5.41336 9.68353 4.91722 9.07578Q4.42108 8.46802 4.24294 7.72362Q4.06479 6.97922 4.25201 6.21445Q3.81714 6.82114 3.70995 7.80724Q3.60275 8.79333 4.05426 10.0465Q4.62036 11.6316 5.69809 12.3971Q6.77582 13.1625 8.13301 13.2127Q9.4902 13.2629 10.9109 12.7066L12.6161 12.0305Q13.7747 11.5675 14.5059 10.7422Q15.2371 9.91684 15.4686 8.85727Q15.7001 7.7977 15.3598 6.62933ZM3.30627 10.3055Q2.99957 9.43832 2.93205 8.58574Q2.86453 7.73315 3.04565 6.90231Q2.16995 7.12112 1.47896 7.68089Q0.787964 8.24066 0.393982 9.04724Q0 9.85382 0 10.7938Q0 11.9008 0.538864 12.8098Q1.07773 13.7187 1.98181 14.2576Q2.88589 14.7964 3.99017 14.7964Q4.77539 14.7964 5.45586 14.5181Q6.13632 14.2398 6.66763 13.7532Q5.52582 13.3879 4.6537 12.5166Q3.78159 11.6454 3.30627 10.3055Z" fill="#ffffff"/>
 </g>
</svg>
