<?xml version="1.0" encoding="UTF-8"?>
<!--Generator: Apple Native CoreSVG 175-->
<!DOCTYPE svg
PUBLIC "-//W3C//DTD SVG 1.1//EN"
       "http://www.w3.org/Graphics/SVG/1.1/DTD/svg11.dtd">
<svg version="1.1" xmlns="http://www.w3.org/2000/svg" xmlns:xlink="http://www.w3.org/1999/xlink" width="12.4622" height="17.6309">
 <g>
  <rect height="17.6309" opacity="0" width="12.4622" x="0" y="0"/>
  <path d="M8.12027 0Q6.78329 0 5.5674 0.577927Q4.3515 1.15585 3.33649 2.20505Q2.32147 3.25424 1.57341 4.67712Q0.825348 6.10001 0.412674 7.80663Q0 9.51324 0 11.3942Q0 12.5012 0.135956 13.6041Q0.271912 14.707 0.506058 15.6155Q0.740204 16.5239 1.04332 17.0712Q1.34644 17.6184 1.67114 17.6184Q2.09686 17.6184 2.4324 17.3003Q2.76794 16.9821 2.96524 16.4973Q3.16254 16.0126 3.17352 15.5063Q2.46246 15.3072 1.90567 14.8325Q1.34888 14.3579 1.03111 13.693Q0.713348 13.0281 0.713348 12.2559Q0.713348 11.5828 0.953522 10.9885Q1.1937 10.3941 1.64917 9.91333Q1.75507 8.25943 2.30019 6.76804Q2.84531 5.27664 3.71819 4.12056Q4.59106 2.96448 5.69611 2.2979Q6.80115 1.63132 8.02002 1.63132Q9.46716 1.63132 10.1539 2.68539Q10.8406 3.73947 10.8406 5.74722L3.13004 9.77264Q2.29218 10.2133 1.89552 10.8672Q1.49887 11.5211 1.49887 12.2559Q1.49887 12.957 1.84456 13.5439Q2.19025 14.1309 2.77718 14.485Q3.36411 14.8392 4.07928 14.8392Q4.60358 14.8392 5.07149 14.6753Q5.5394 14.5114 6.29379 14.1028L10.17 11.9794Q11.0149 11.5164 11.5168 10.9434Q12.0187 10.3703 12.2404 9.55116Q12.4622 8.73199 12.4622 7.53708L12.4622 5.4657Q12.4622 2.95319 11.3698 1.47659Q10.2774 0 8.12027 0ZM4.06723 13.9673Q3.34885 13.9673 2.84744 13.4624Q2.34604 12.9575 2.34604 12.2391Q2.34604 11.5277 2.84744 11.0194Q3.34885 10.511 4.06723 10.511Q4.77142 10.511 5.27985 11.0194Q5.78827 11.5277 5.78827 12.2391Q5.78827 12.9504 5.27985 13.4589Q4.77142 13.9673 4.06723 13.9673ZM4.06723 13.4215Q4.55154 13.4215 4.90059 13.076Q5.24963 12.7306 5.24963 12.2391Q5.24963 11.7505 4.90059 11.4001Q4.55154 11.0497 4.06723 11.0497Q3.57574 11.0497 3.23029 11.4001Q2.88483 11.7505 2.88483 12.2391Q2.88483 12.7306 3.23029 13.076Q3.57574 13.4215 4.06723 13.4215Z" fill="rgba(0,0,0,0.85)"/>
 </g>
</svg>
