<?xml version="1.0" encoding="UTF-8"?>
<!--Generator: Apple Native CoreSVG 175-->
<!DOCTYPE svg
PUBLIC "-//W3C//DTD SVG 1.1//EN"
       "http://www.w3.org/Graphics/SVG/1.1/DTD/svg11.dtd">
<svg version="1.1" xmlns="http://www.w3.org/2000/svg" xmlns:xlink="http://www.w3.org/1999/xlink" width="30.8691" height="14.0918">
 <g>
  <rect height="14.0918" opacity="0" width="30.8691" x="0" y="0"/>
  <path d="M6.17188 8.84766Q6.77734 9.11133 7.39746 9.01855Q8.01758 8.92578 8.52539 8.55957Q9.0332 8.19336 9.28711 7.59766L11.0254 3.62305Q11.2793 3.03711 11.2012 2.40723Q11.123 1.77734 10.752 1.26953Q10.3809 0.761719 9.77539 0.488281Q9.16016 0.244141 8.54004 0.327148Q7.91992 0.410156 7.41211 0.786133Q6.9043 1.16211 6.63086 1.78711L4.90234 5.72266Q4.62891 6.32812 4.7168 6.95312Q4.80469 7.57812 5.18066 8.08105Q5.55664 8.58398 6.17188 8.84766ZM7.09961 8.26172Q6.42578 8.26172 5.95215 7.78809Q5.47852 7.31445 5.47852 6.63086Q5.47852 5.94727 5.95215 5.47363Q6.42578 5 7.09961 5Q7.79297 5 8.2666 5.47363Q8.74023 5.94727 8.74023 6.63086Q8.74023 7.31445 8.2666 7.78809Q7.79297 8.26172 7.09961 8.26172ZM7.09961 7.74414Q7.57812 7.74414 7.90039 7.42188Q8.22266 7.09961 8.22266 6.63086Q8.22266 6.16211 7.90039 5.83984Q7.57812 5.51758 7.09961 5.51758Q6.64062 5.51758 6.31836 5.83984Q5.99609 6.16211 5.99609 6.63086Q5.99609 7.09961 6.31836 7.42188Q6.64062 7.74414 7.09961 7.74414ZM14.6289 6.31836Q14.3945 5.51758 13.9502 4.96582Q13.5059 4.41406 12.9688 3.98926Q12.4316 3.56445 11.9434 3.17383Q11.8652 3.57422 11.7188 3.91602L9.98047 7.89062Q9.62891 8.68164 8.95508 9.16504Q8.28125 9.64844 7.4707 9.76074Q6.66016 9.87305 5.86914 9.55078Q5.14648 9.22852 4.67773 8.64746Q4.20898 8.06641 4.03809 7.3584Q3.86719 6.65039 4.04297 5.91797Q3.63281 6.49414 3.53027 7.43652Q3.42773 8.37891 3.85742 9.57031Q4.39453 11.084 5.4248 11.8115Q6.45508 12.5391 7.74902 12.5879Q9.04297 12.6367 10.3906 12.0996L12.0117 11.4648Q13.125 11.0156 13.8184 10.2295Q14.5117 9.44336 14.7314 8.43262Q14.9512 7.42188 14.6289 6.31836ZM3.1543 9.81445Q2.85156 8.98438 2.78809 8.17871Q2.72461 7.37305 2.90039 6.58203Q2.06055 6.78711 1.40625 7.31934Q0.751953 7.85156 0.375977 8.61816Q0 9.38477 0 10.2832Q0 11.3379 0.512695 12.207Q1.02539 13.0762 1.88965 13.584Q2.75391 14.0918 3.79883 14.0918Q4.55078 14.0918 5.19531 13.8281Q5.83984 13.5645 6.34766 13.0957Q5.26367 12.7539 4.42871 11.9238Q3.59375 11.0938 3.1543 9.81445ZM24.707 8.84766Q25.3027 8.58398 25.6836 8.08105Q26.0645 7.57812 26.1523 6.95312Q26.2402 6.32812 25.9668 5.72266L24.2383 1.78711Q23.9551 1.16211 23.457 0.786133Q22.959 0.410156 22.334 0.327148Q21.709 0.244141 21.0938 0.488281Q20.4883 0.761719 20.1221 1.26953Q19.7559 1.77734 19.668 2.40723Q19.5801 3.03711 19.834 3.62305L21.582 7.59766Q21.8359 8.19336 22.3486 8.55957Q22.8613 8.92578 23.4814 9.01855Q24.1016 9.11133 24.707 8.84766ZM23.7598 8.26172Q23.0762 8.26172 22.6025 7.78809Q22.1289 7.31445 22.1289 6.63086Q22.1289 5.94727 22.6025 5.47363Q23.0762 5 23.7598 5Q24.4434 5 24.9121 5.47363Q25.3809 5.94727 25.3809 6.63086Q25.3809 7.31445 24.9121 7.78809Q24.4434 8.26172 23.7598 8.26172ZM23.7598 7.74414Q24.2285 7.74414 24.5508 7.42188Q24.873 7.09961 24.873 6.63086Q24.873 6.16211 24.5508 5.83984Q24.2285 5.51758 23.7598 5.51758Q23.291 5.51758 22.9639 5.83984Q22.6367 6.16211 22.6367 6.63086Q22.6367 7.09961 22.9639 7.42188Q23.291 7.74414 23.7598 7.74414ZM16.25 6.31836Q15.918 7.42188 16.1377 8.43262Q16.3574 9.44336 17.0557 10.2295Q17.7539 11.0156 18.8574 11.4648L20.4785 12.0996Q21.8262 12.6367 23.125 12.5879Q24.4238 12.5391 25.4492 11.8115Q26.4746 11.084 27.0117 9.57031Q27.4316 8.37891 27.3389 7.43652Q27.2461 6.49414 26.8262 5.91797Q27.002 6.65039 26.8311 7.3584Q26.6602 8.06641 26.1816 8.64746Q25.7031 9.22852 24.9902 9.55078Q24.209 9.87305 23.3887 9.76074Q22.5684 9.64844 21.8994 9.16504Q21.2305 8.68164 20.8887 7.89062L19.1602 3.91602Q19.0137 3.57422 18.9258 3.17383Q18.4375 3.56445 17.9004 3.98926Q17.3633 4.41406 16.9189 4.96582Q16.4746 5.51758 16.25 6.31836ZM27.7246 9.81445Q27.2559 11.0938 26.4355 11.9238Q25.6152 12.7539 24.5215 13.0957Q25.0195 13.5645 25.6689 13.8281Q26.3184 14.0918 27.0703 14.0918Q28.1152 14.0918 28.9795 13.584Q29.8438 13.0762 30.3564 12.207Q30.8691 11.3379 30.8691 10.2832Q30.8691 9.38477 30.4932 8.61816Q30.1172 7.85156 29.4629 7.31934Q28.8086 6.78711 27.9785 6.58203Q28.1445 7.37305 28.0811 8.17871Q28.0176 8.98438 27.7246 9.81445Z" fill="rgba(0,0,0,0.85)"/>
 </g>
</svg>
