<?xml version="1.0" encoding="UTF-8"?>
<!--Generator: Apple Native CoreSVG 175-->
<!DOCTYPE svg
PUBLIC "-//W3C//DTD SVG 1.1//EN"
       "http://www.w3.org/Graphics/SVG/1.1/DTD/svg11.dtd">
<svg version="1.1" xmlns="http://www.w3.org/2000/svg" xmlns:xlink="http://www.w3.org/1999/xlink" width="17.2852" height="17.3145">
 <g>
  <rect height="17.3145" opacity="0" width="17.2852" x="0" y="0"/>
  <path d="M2.62695 17.3145L14.6484 17.3145Q15.957 17.3145 16.6211 16.6455Q17.2852 15.9766 17.2852 14.6875L17.2852 2.65625Q17.2852 1.37695 16.6211 0.703125Q15.957 0.0292969 14.6484 0.0292969L2.62695 0.0292969Q1.33789 0.0292969 0.668945 0.693359Q0 1.35742 0 2.65625L0 14.6875Q0 15.9863 0.668945 16.6504Q1.33789 17.3145 2.62695 17.3145ZM4.00391 12.2266Q3.83789 12.2266 3.73535 12.124Q3.63281 12.0215 3.63281 11.8652Q3.63281 11.4453 3.94043 11.084Q4.24805 10.7227 4.57031 10.3516Q4.85352 10.0391 4.96582 9.54102Q5.07812 9.04297 5.12695 8.45703Q5.17578 7.87109 5.25391 7.28516Q5.38086 6.14258 5.83984 5.33203Q6.29883 4.52148 7.29492 4.25781Q7.38281 3.69141 7.75879 3.33984Q8.13477 2.98828 8.65234 2.98828Q9.18945 2.98828 9.55566 3.33984Q9.92188 3.69141 10.0195 4.25781Q11.0059 4.52148 11.4697 5.33203Q11.9336 6.14258 12.0605 7.28516Q12.1387 7.87109 12.1826 8.45703Q12.2266 9.04297 12.3389 9.54102Q12.4512 10.0391 12.7344 10.3516Q13.0762 10.7227 13.374 11.084Q13.6719 11.4453 13.6719 11.8652Q13.6719 12.0215 13.5742 12.124Q13.4766 12.2266 13.3008 12.2266ZM8.65234 14.2578Q8.02734 14.2578 7.62695 13.8867Q7.22656 13.5156 7.14844 12.8906L10.166 12.8906Q10.0781 13.5156 9.68262 13.8867Q9.28711 14.2578 8.65234 14.2578Z" fill="#ffffff"/>
 </g>
</svg>
