<?xml version="1.0" encoding="UTF-8"?>
<!--Generator: Apple Native CoreSVG 175-->
<!DOCTYPE svg
PUBLIC "-//W3C//DTD SVG 1.1//EN"
       "http://www.w3.org/Graphics/SVG/1.1/DTD/svg11.dtd">
<svg version="1.1" xmlns="http://www.w3.org/2000/svg" xmlns:xlink="http://www.w3.org/1999/xlink" width="17.795" height="19.4122">
 <g>
  <rect height="19.4122" opacity="0" width="17.795" x="0" y="0"/>
  <path d="M0 15.6911Q0 15.9821 0.190201 16.1567Q0.380402 16.3313 0.694122 16.3313L5.96832 16.3313Q5.98633 17.2153 6.36497 17.9071Q6.74362 18.5989 7.39677 19.0007Q8.04993 19.4025 8.89954 19.4025Q9.74487 19.4025 10.398 19.0021Q11.0512 18.6017 11.4299 17.9085Q11.8086 17.2153 11.8266 16.3313L17.1007 16.3313Q17.4144 16.3313 17.6047 16.1567Q17.795 15.9821 17.795 15.6911Q17.795 15.1958 17.5363 14.7473Q17.2777 14.2989 16.8916 13.8699Q16.5054 13.441 16.1206 13.0086Q15.6226 12.4586 15.4138 11.5805Q15.2051 10.7024 15.1172 9.66454Q15.0293 8.62671 14.8848 7.58209Q14.7501 6.24893 14.3494 5.15808Q13.9488 4.06723 13.207 3.31566Q12.4652 2.56409 11.3 2.25006Q11.1473 1.23672 10.4916 0.618362Q9.83597 0 8.89954 0Q7.95898 0 7.30331 0.618362Q6.64764 1.23672 6.4949 2.25006Q5.32959 2.56409 4.58641 3.31566Q3.84323 4.06723 3.44406 5.15808Q3.04489 6.24893 2.91016 7.58209Q2.7655 8.62671 2.67761 9.66454Q2.58972 10.7024 2.38098 11.5805Q2.17224 12.4586 1.67419 13.0086Q1.28937 13.441 0.903244 13.8699Q0.51712 14.2989 0.25856 14.7473Q0 15.1958 0 15.6911ZM0.839844 15.63L0.839844 15.527Q0.86441 15.2637 1.0836 14.9111Q1.3028 14.5586 1.62132 14.1902Q1.93985 13.8219 2.25006 13.4966Q2.67532 13.0489 2.9023 12.4065Q3.12927 11.7641 3.24493 10.9875Q3.3606 10.211 3.43513 9.37279Q3.50967 8.53455 3.6261 7.69501Q3.79181 6.31149 4.16054 5.34271Q4.52927 4.37393 5.13496 3.79517Q5.74066 3.2164 6.60858 2.98203Q6.85745 2.91489 7.00432 2.80182Q7.15118 2.68875 7.18201 2.45392Q7.27463 1.72043 7.71149 1.20888Q8.14835 0.697327 8.89954 0.697327Q9.64645 0.697327 10.0834 1.20888Q10.5203 1.72043 10.6128 2.45392Q10.641 2.68875 10.7893 2.80182Q10.9375 2.91489 11.1835 2.98203Q12.0515 3.2164 12.6572 3.79517Q13.2628 4.37393 13.633 5.34271Q14.0031 6.31149 14.1687 7.69501Q14.2824 8.53455 14.3584 9.37279Q14.4344 10.211 14.5486 10.9875Q14.6628 11.7641 14.8898 12.4065Q15.1167 13.0489 15.5421 13.4966Q15.8549 13.8219 16.1736 14.1902Q16.4922 14.5586 16.7099 14.9111Q16.9276 15.2637 16.9522 15.527L16.9522 15.63ZM6.6832 16.3313L11.1116 16.3313Q11.053 17.4329 10.4382 18.0843Q9.82346 18.7357 8.89954 18.7357Q7.9715 18.7357 7.35527 18.0843Q6.73904 17.4329 6.6832 16.3313Z" fill="#ffffff"/>
 </g>
</svg>
