<?xml version="1.0" encoding="UTF-8"?>
<!--Generator: Apple Native CoreSVG 175.5-->
<!DOCTYPE svg
PUBLIC "-//W3C//DTD SVG 1.1//EN"
       "http://www.w3.org/Graphics/SVG/1.1/DTD/svg11.dtd">
<svg version="1.1" xmlns="http://www.w3.org/2000/svg" xmlns:xlink="http://www.w3.org/1999/xlink" width="34.834" height="20.5566">
 <g>
  <rect height="20.5566" opacity="0" width="34.834" x="0" y="0"/>
  <path d="M9.67773 16.6406L25.1562 16.6406Q25.8496 16.6406 26.2402 16.3184Q26.6309 15.9961 26.6309 15.459Q26.6309 14.9707 26.3477 14.5117Q26.0645 14.0527 25.6396 13.6133Q25.2148 13.1738 24.7949 12.7344Q24.4727 12.4023 24.292 11.8652Q24.1113 11.3281 24.0234 10.7227Q23.9355 10.1172 23.8965 9.55078Q23.8672 7.67578 23.4912 6.21094Q23.1152 4.74609 22.3242 3.75Q21.5332 2.75391 20.2344 2.28516Q19.9609 1.32812 19.2285 0.664062Q18.4961 0 17.4121 0Q16.3379 0 15.6055 0.664062Q14.873 1.32812 14.5996 2.28516Q13.3008 2.75391 12.5049 3.75Q11.709 4.74609 11.3379 6.21094Q10.9668 7.67578 10.9375 9.55078Q10.8984 10.1172 10.8105 10.7227Q10.7227 11.3281 10.542 11.8652Q10.3613 12.4023 10.0391 12.7344Q9.61914 13.1738 9.19434 13.6133Q8.76953 14.0527 8.48633 14.5117Q8.20312 14.9707 8.20312 15.459Q8.20312 15.9961 8.59375 16.3184Q8.98438 16.6406 9.67773 16.6406ZM17.4121 20.5566Q18.2422 20.5566 18.8965 20.1953Q19.5508 19.834 19.9512 19.248Q20.3516 18.6621 20.4102 17.9785L14.4238 17.9785Q14.4824 18.6621 14.8828 19.248Q15.2832 19.834 15.9375 20.1953Q16.5918 20.5566 17.4121 20.5566Z" fill="#ffffff"/>
  <path d="M6.50391 14.1699Q6.73828 13.9062 6.6748 13.5889Q6.61133 13.2715 6.37695 12.959Q5.9375 12.4121 5.72266 11.7236Q5.50781 11.0352 5.50781 10.2734Q5.50781 9.51172 5.72266 8.82324Q5.9375 8.13477 6.37695 7.58789Q6.61133 7.26562 6.6748 6.95312Q6.73828 6.64062 6.50391 6.37695Q6.25977 6.10352 5.88379 6.1084Q5.50781 6.11328 5.25391 6.44531Q4.61914 7.23633 4.26758 8.21777Q3.91602 9.19922 3.91602 10.2734Q3.91602 11.3477 4.26758 12.3291Q4.61914 13.3105 5.25391 14.1016Q5.50781 14.4336 5.88379 14.4385Q6.25977 14.4434 6.50391 14.1699ZM28.3203 14.1699Q28.5645 14.4434 28.9404 14.4385Q29.3164 14.4336 29.5801 14.1016Q30.2148 13.3105 30.5664 12.3291Q30.918 11.3477 30.918 10.2734Q30.918 9.19922 30.5664 8.21777Q30.2148 7.23633 29.5801 6.44531Q29.3164 6.11328 28.9404 6.1084Q28.5645 6.10352 28.3203 6.37695Q28.0957 6.64062 28.1592 6.95312Q28.2227 7.26562 28.457 7.58789Q28.8867 8.13477 29.1064 8.82324Q29.3262 9.51172 29.3262 10.2734Q29.3262 11.0352 29.1064 11.7236Q28.8867 12.4121 28.457 12.959Q28.2227 13.2715 28.1592 13.5889Q28.0957 13.9062 28.3203 14.1699Z" fill="#ffffff"/>
  <path d="M3.76953 16.9531Q4.00391 16.6895 3.9502 16.3672Q3.89648 16.0449 3.63281 15.7422Q2.64648 14.6484 2.11914 13.2471Q1.5918 11.8457 1.5918 10.2734Q1.5918 8.69141 2.11914 7.29492Q2.64648 5.89844 3.63281 4.80469Q3.89648 4.50195 3.9502 4.17969Q4.00391 3.85742 3.76953 3.59375Q3.53516 3.32031 3.17871 3.3252Q2.82227 3.33008 2.53906 3.64258Q1.31836 4.96094 0.65918 6.66992Q0 8.37891 0 10.2734Q0 12.168 0.65918 13.8721Q1.31836 15.5762 2.53906 16.9043Q2.82227 17.207 3.17871 17.2168Q3.53516 17.2266 3.76953 16.9531ZM31.0645 16.9531Q31.2988 17.2266 31.6553 17.2168Q32.0117 17.207 32.2949 16.9043Q33.5156 15.5762 34.1748 13.8721Q34.834 12.168 34.834 10.2734Q34.834 8.37891 34.1748 6.66992Q33.5156 4.96094 32.2949 3.64258Q32.0117 3.33008 31.6553 3.3252Q31.2988 3.32031 31.0645 3.59375Q30.8301 3.85742 30.8838 4.17969Q30.9375 4.50195 31.2012 4.80469Q32.1777 5.89844 32.71 7.29492Q33.2422 8.69141 33.2422 10.2734Q33.2422 11.8457 32.71 13.2471Q32.1777 14.6484 31.2012 15.7422Q30.9375 16.0449 30.8838 16.3672Q30.8301 16.6895 31.0645 16.9531Z" fill="#ffffff"/>
 </g>
</svg>
