<?xml version="1.0" encoding="UTF-8"?>
<!--Generator: Apple Native CoreSVG 175.5-->
<!DOCTYPE svg
PUBLIC "-//W3C//DTD SVG 1.1//EN"
       "http://www.w3.org/Graphics/SVG/1.1/DTD/svg11.dtd">
<svg version="1.1" xmlns="http://www.w3.org/2000/svg" xmlns:xlink="http://www.w3.org/1999/xlink" width="22.9441" height="25.8919">
 <g>
  <rect height="25.8919" opacity="0" width="22.9441" x="0" y="0"/>
  <path d="M16.2393 6.42741Q15.5069 6.42741 14.8966 6.71061Q14.2862 6.99382 13.793 7.59928Q13.2999 8.20475 12.9093 9.17155Q11.8448 8.08757 10.5069 7.10124Q9.16902 6.11491 7.63093 5.32389Q6.09284 4.53288 4.43757 4.02018Q2.7823 3.50749 1.09284 3.38053Q0.643626 3.35124 0.414134 3.5319Q0.184641 3.71257 0.106516 3.99577Q0.0283915 4.27897 0.0186258 4.56217Q-0.0985617 6.42741 0.521556 8.10221Q1.14167 9.77702 2.34773 11.1003Q3.55378 12.4235 5.20906 13.2389Q6.86433 14.0544 8.79792 14.1911Q8.0948 15.8708 7.14265 17.3063Q6.1905 18.7419 5.10652 19.9674Q4.02253 21.193 2.91902 22.2282Q2.65534 22.4723 2.68464 22.7751Q2.71394 23.0778 2.88972 23.3415Q3.22175 23.8688 3.82234 24.2936Q4.42292 24.7184 5.17976 25.0212Q5.93659 25.3239 6.76667 25.4704Q7.59675 25.6169 8.42195 25.5778Q9.24714 25.5387 9.9698 25.2946Q10.3702 25.1481 10.4825 24.943Q10.5948 24.738 10.5948 24.4059L10.5948 20.695Q11.376 20.6559 12.2989 20.4118Q13.2218 20.1676 14.1007 19.6549Q14.9796 19.1423 15.6583 18.3171Q16.337 17.4919 16.6593 16.2907Q16.9815 15.0895 16.7764 13.4684L16.669 12.6969Q18.1827 12.3356 19.1104 11.4811Q20.0382 10.6266 20.0382 9.65007Q20.0382 8.87858 19.5255 8.13639Q19.0128 7.39421 18.1485 6.91081Q17.2843 6.42741 16.2393 6.42741ZM17.2647 9.81608Q17.0108 9.81608 16.835 9.6403Q16.6593 9.46452 16.6593 9.22038Q16.6593 8.97624 16.835 8.79557Q17.0108 8.61491 17.2647 8.61491Q17.4991 8.61491 17.6798 8.79557Q17.8604 8.97624 17.8604 9.22038Q17.8604 9.46452 17.6798 9.6403Q17.4991 9.81608 17.2647 9.81608ZM18.7003 11.0856L22.2647 11.5934Q22.5089 11.6325 22.6846 11.5007Q22.8604 11.3688 22.919 11.154Q22.9776 10.9391 22.8995 10.734Q22.8214 10.529 22.5675 10.4215L19.3448 9.05436ZM14.9796 5.2653Q14.0323 3.57585 12.8165 2.33073Q11.6007 1.08561 10.0577 0.19694Q9.49128-0.125326 8.99324 0.0797526Q8.49519 0.284831 8.33894 0.900065Q8.12409 1.65202 7.99226 2.41374Q7.86042 3.17546 7.82136 3.92741Q9.13972 4.57194 10.336 5.36296Q11.5323 6.15397 12.5577 7.03288Q13.0655 6.33952 13.671 5.90007Q14.2764 5.46061 14.9796 5.2653Z" fill="#ffffff"/>
 </g>
</svg>
