<?xml version="1.0" encoding="UTF-8"?>
<!--Generator: Apple Native CoreSVG 175.5-->
<!DOCTYPE svg
PUBLIC "-//W3C//DTD SVG 1.1//EN"
       "http://www.w3.org/Graphics/SVG/1.1/DTD/svg11.dtd">
<svg version="1.1" xmlns="http://www.w3.org/2000/svg" xmlns:xlink="http://www.w3.org/1999/xlink" width="17.9785" height="17.998">
 <g>
  <rect height="17.998" opacity="0" width="17.9785" x="0" y="0"/>
  <path d="M3.06641 17.998L14.9121 17.998Q16.4453 17.998 17.2119 17.2412Q17.9785 16.4844 17.9785 14.9707L17.9785 3.04688Q17.9785 1.5332 17.2119 0.776367Q16.4453 0.0195312 14.9121 0.0195312L3.06641 0.0195312Q1.5332 0.0195312 0.766602 0.776367Q0 1.5332 0 3.04688L0 14.9707Q0 16.4844 0.766602 17.2412Q1.5332 17.998 3.06641 17.998ZM3.08594 16.4258Q2.35352 16.4258 1.96289 16.04Q1.57227 15.6543 1.57227 14.8926L1.57227 3.125Q1.57227 2.36328 1.96289 1.97754Q2.35352 1.5918 3.08594 1.5918L14.8926 1.5918Q15.6152 1.5918 16.0107 1.97754Q16.4062 2.36328 16.4062 3.125L16.4062 14.8926Q16.4062 15.6543 16.0107 16.04Q15.6152 16.4258 14.8926 16.4258Z" fill="#ffffff"/>
  <path d="M6.24023 12.9199Q6.24023 13.2617 6.4502 13.4717Q6.66016 13.6816 7.01172 13.6816L7.42188 13.6816L7.42188 14.4531Q7.42188 14.668 7.55371 14.7998Q7.68555 14.9316 7.89062 14.9316Q8.0957 14.9316 8.22754 14.7998Q8.35938 14.668 8.35938 14.4531L8.35938 13.6816L8.99414 13.6816L8.99414 14.4531Q8.99414 14.668 9.13086 14.7998Q9.26758 14.9316 9.46289 14.9316Q9.66797 14.9316 9.80469 14.7998Q9.94141 14.668 9.94141 14.4531L9.94141 13.6523Q11.1523 13.5254 11.8311 12.8516Q12.5098 12.1777 12.5098 11.1035Q12.5098 10.2734 12.0557 9.6875Q11.6016 9.10156 10.8496 8.87695Q11.3867 8.61328 11.7285 8.07617Q12.0703 7.53906 12.0703 6.92383Q12.0703 6.01562 11.4941 5.40039Q10.918 4.78516 9.94141 4.63867L9.94141 3.84766Q9.94141 3.64258 9.80469 3.50586Q9.66797 3.36914 9.46289 3.36914Q9.26758 3.36914 9.13086 3.50586Q8.99414 3.64258 8.99414 3.84766L8.99414 4.59961L8.35938 4.59961L8.35938 3.84766Q8.35938 3.64258 8.22754 3.50586Q8.0957 3.36914 7.89062 3.36914Q7.68555 3.36914 7.55371 3.50586Q7.42188 3.64258 7.42188 3.84766L7.42188 4.59961L7.01172 4.59961Q6.66992 4.59961 6.45508 4.81445Q6.24023 5.0293 6.24023 5.37109ZM7.49023 12.5391L7.49023 9.57031L9.14062 9.57031Q10.1855 9.57031 10.7227 9.94141Q11.2598 10.3125 11.2598 11.0547Q11.2598 11.7773 10.7471 12.1484Q10.2344 12.5195 9.24805 12.5293ZM7.49023 8.42773L7.49023 5.73242L9.16016 5.73242Q9.95117 5.73242 10.3857 6.06445Q10.8203 6.39648 10.8203 7.02148Q10.8203 7.70508 10.3223 8.07617Q9.82422 8.44727 8.88672 8.4375Z" fill="#ffffff"/>
 </g>
</svg>
