<?xml version="1.0" encoding="UTF-8"?>
<!--Generator: Apple Native CoreSVG 175.5-->
<!DOCTYPE svg
PUBLIC "-//W3C//DTD SVG 1.1//EN"
       "http://www.w3.org/Graphics/SVG/1.1/DTD/svg11.dtd">
<svg version="1.1" xmlns="http://www.w3.org/2000/svg" xmlns:xlink="http://www.w3.org/1999/xlink" width="19.9219" height="19.9316">
 <g>
  <rect height="19.9316" opacity="0" width="19.9219" x="0" y="0"/>
  <path d="M9.96094 19.9219Q12.002 19.9219 13.8037 19.1406Q15.6055 18.3594 16.9824 16.9824Q18.3594 15.6055 19.1406 13.8037Q19.9219 12.002 19.9219 9.96094Q19.9219 7.91992 19.1406 6.11816Q18.3594 4.31641 16.9824 2.93945Q15.6055 1.5625 13.7988 0.78125Q11.9922 0 9.95117 0Q7.91016 0 6.1084 0.78125Q4.30664 1.5625 2.93457 2.93945Q1.5625 4.31641 0.78125 6.11816Q0 7.91992 0 9.96094Q0 12.002 0.78125 13.8037Q1.5625 15.6055 2.93945 16.9824Q4.31641 18.3594 6.11816 19.1406Q7.91992 19.9219 9.96094 19.9219ZM9.96094 18.2617Q8.23242 18.2617 6.72852 17.6172Q5.22461 16.9727 4.08691 15.835Q2.94922 14.6973 2.30957 13.1934Q1.66992 11.6895 1.66992 9.96094Q1.66992 8.23242 2.30957 6.72852Q2.94922 5.22461 4.08203 4.08203Q5.21484 2.93945 6.71875 2.2998Q8.22266 1.66016 9.95117 1.66016Q11.6797 1.66016 13.1885 2.2998Q14.6973 2.93945 15.835 4.08203Q16.9727 5.22461 17.6172 6.72852Q18.2617 8.23242 18.2617 9.96094Q18.2617 11.6895 17.6221 13.1934Q16.9824 14.6973 15.8398 15.835Q14.6973 16.9727 13.1934 17.6172Q11.6895 18.2617 9.96094 18.2617Z" fill="#ffffff"/>
  <path d="M7.19727 13.8867Q7.19727 14.2285 7.40723 14.4385Q7.61719 14.6484 7.96875 14.6484L8.37891 14.6484L8.37891 15.4199Q8.37891 15.6348 8.51074 15.7666Q8.64258 15.8984 8.84766 15.8984Q9.05273 15.8984 9.18457 15.7666Q9.31641 15.6348 9.31641 15.4199L9.31641 14.6484L9.95117 14.6484L9.95117 15.4199Q9.95117 15.6348 10.0879 15.7666Q10.2246 15.8984 10.4199 15.8984Q10.625 15.8984 10.7617 15.7666Q10.8984 15.6348 10.8984 15.4199L10.8984 14.6191Q12.1094 14.4922 12.7881 13.8184Q13.4668 13.1445 13.4668 12.0703Q13.4668 11.2402 13.0127 10.6543Q12.5586 10.0684 11.8066 9.84375Q12.3438 9.58008 12.6855 9.04297Q13.0273 8.50586 13.0273 7.89062Q13.0273 6.98242 12.4512 6.36719Q11.875 5.75195 10.8984 5.60547L10.8984 4.81445Q10.8984 4.60938 10.7617 4.47266Q10.625 4.33594 10.4199 4.33594Q10.2246 4.33594 10.0879 4.47266Q9.95117 4.60938 9.95117 4.81445L9.95117 5.56641L9.31641 5.56641L9.31641 4.81445Q9.31641 4.60938 9.18457 4.47266Q9.05273 4.33594 8.84766 4.33594Q8.64258 4.33594 8.51074 4.47266Q8.37891 4.60938 8.37891 4.81445L8.37891 5.56641L7.96875 5.56641Q7.62695 5.56641 7.41211 5.78125Q7.19727 5.99609 7.19727 6.33789ZM8.44727 13.5059L8.44727 10.5371L10.0977 10.5371Q11.1426 10.5371 11.6797 10.9082Q12.2168 11.2793 12.2168 12.0215Q12.2168 12.7441 11.7041 13.1152Q11.1914 13.4863 10.2051 13.4961ZM8.44727 9.39453L8.44727 6.69922L10.1172 6.69922Q10.9082 6.69922 11.3428 7.03125Q11.7773 7.36328 11.7773 7.98828Q11.7773 8.67188 11.2793 9.04297Q10.7812 9.41406 9.84375 9.4043Z" fill="#ffffff"/>
 </g>
</svg>
