<?xml version="1.0" encoding="UTF-8"?>
<!--Generator: Apple Native CoreSVG 175.5-->
<!DOCTYPE svg
PUBLIC "-//W3C//DTD SVG 1.1//EN"
       "http://www.w3.org/Graphics/SVG/1.1/DTD/svg11.dtd">
<svg version="1.1" xmlns="http://www.w3.org/2000/svg" xmlns:xlink="http://www.w3.org/1999/xlink" width="19.9219" height="19.9316">
 <g>
  <rect height="19.9316" opacity="0" width="19.9219" x="0" y="0"/>
  <path d="M9.96094 19.9219Q12.002 19.9219 13.8037 19.1406Q15.6055 18.3594 16.9824 16.9824Q18.3594 15.6055 19.1406 13.8037Q19.9219 12.002 19.9219 9.96094Q19.9219 7.91992 19.1406 6.11816Q18.3594 4.31641 16.9824 2.93945Q15.6055 1.5625 13.7988 0.78125Q11.9922 0 9.95117 0Q7.91016 0 6.1084 0.78125Q4.30664 1.5625 2.93457 2.93945Q1.5625 4.31641 0.78125 6.11816Q0 7.91992 0 9.96094Q0 12.002 0.78125 13.8037Q1.5625 15.6055 2.93945 16.9824Q4.31641 18.3594 6.11816 19.1406Q7.91992 19.9219 9.96094 19.9219Z" fill="#ffffff"/>
  <path d="M7.20703 13.8867L7.20703 6.33789Q7.20703 5.99609 7.42188 5.78125Q7.63672 5.56641 7.97852 5.56641L8.38867 5.56641L8.38867 4.81445Q8.38867 4.60938 8.52051 4.47266Q8.65234 4.33594 8.85742 4.33594Q9.0625 4.33594 9.19434 4.47266Q9.32617 4.60938 9.32617 4.81445L9.32617 5.56641L9.96094 5.56641L9.96094 4.81445Q9.96094 4.60938 10.0977 4.47266Q10.2344 4.33594 10.4297 4.33594Q10.6348 4.33594 10.7715 4.47266Q10.9082 4.60938 10.9082 4.81445L10.9082 5.60547Q11.8848 5.75195 12.4609 6.36719Q13.0371 6.98242 13.0371 7.89062Q13.0371 8.50586 12.6953 9.04297Q12.3535 9.58008 11.8164 9.84375Q12.5684 10.0684 13.0225 10.6543Q13.4766 11.2402 13.4766 12.0703Q13.4766 13.1445 12.7979 13.8184Q12.1191 14.4922 10.9082 14.6191L10.9082 15.4199Q10.9082 15.6348 10.7715 15.7666Q10.6348 15.8984 10.4297 15.8984Q10.2344 15.8984 10.0977 15.7666Q9.96094 15.6348 9.96094 15.4199L9.96094 14.6484L9.32617 14.6484L9.32617 15.4199Q9.32617 15.6348 9.19434 15.7666Q9.0625 15.8984 8.85742 15.8984Q8.65234 15.8984 8.52051 15.7666Q8.38867 15.6348 8.38867 15.4199L8.38867 14.6484L7.97852 14.6484Q7.62695 14.6484 7.41699 14.4385Q7.20703 14.2285 7.20703 13.8867ZM8.45703 13.5059L10.2148 13.4961Q11.2012 13.4863 11.7139 13.1152Q12.2266 12.7441 12.2266 12.0215Q12.2266 11.2793 11.6895 10.9082Q11.1523 10.5371 10.1074 10.5371L8.45703 10.5371ZM8.45703 9.39453L9.85352 9.4043Q10.791 9.41406 11.2891 9.04297Q11.7871 8.67188 11.7871 7.98828Q11.7871 7.36328 11.3525 7.03125Q10.918 6.69922 10.127 6.69922L8.45703 6.69922Z" fill="none"/>
 </g>
</svg>
