<?xml version="1.0" encoding="UTF-8"?>
<!--Generator: Apple Native CoreSVG 175.5-->
<!DOCTYPE svg
PUBLIC "-//W3C//DTD SVG 1.1//EN"
       "http://www.w3.org/Graphics/SVG/1.1/DTD/svg11.dtd">
<svg version="1.1" xmlns="http://www.w3.org/2000/svg" xmlns:xlink="http://www.w3.org/1999/xlink" width="20.7324" height="19.9528">
 <g>
  <rect height="19.9528" opacity="0" width="20.7324" x="0" y="0"/>
  <path d="M3.17383 17.9403Q3.17383 18.6043 3.52539 18.9559L4.35547 19.8055Q4.49219 19.9422 4.68262 19.952Q4.87305 19.9618 5.01953 19.8543Q5.16602 19.7469 5.16602 19.5028L5.16602 4.47347Q5.16602 3.80941 4.81445 3.44808L3.98438 2.60824Q3.84766 2.47152 3.65723 2.45687Q3.4668 2.44222 3.32031 2.55452Q3.17383 2.66683 3.17383 2.9012ZM8.10547 17.9403Q8.10547 18.6043 8.45703 18.9559L9.28711 19.8055Q9.41406 19.9422 9.60449 19.952Q9.79492 19.9618 9.94141 19.8543Q10.0879 19.7469 10.0879 19.5028L10.0879 4.47347Q10.0879 3.80941 9.73633 3.44808L8.90625 2.60824Q8.7793 2.47152 8.58887 2.45687Q8.39844 2.44222 8.25195 2.55452Q8.10547 2.66683 8.10547 2.9012ZM13.0273 17.9403Q13.0273 18.6043 13.3789 18.9559L14.209 19.8055Q14.3457 19.9422 14.5361 19.952Q14.7266 19.9618 14.873 19.8543Q15.0195 19.7469 15.0195 19.5028L15.0195 4.47347Q15.0195 3.80941 14.668 3.44808L13.8379 2.60824Q13.7012 2.47152 13.5107 2.45687Q13.3203 2.44222 13.1738 2.55452Q13.0273 2.66683 13.0273 2.9012ZM17.959 17.9403Q17.959 18.6043 18.3105 18.9559L19.1406 19.8055Q19.2676 19.9422 19.458 19.952Q19.6484 19.9618 19.7949 19.8543Q19.9414 19.7469 19.9414 19.5028L19.9414 4.47347Q19.9414 3.80941 19.5898 3.44808L18.7598 2.60824Q18.6328 2.47152 18.4424 2.45687Q18.252 2.44222 18.1055 2.55452Q17.959 2.66683 17.959 2.9012Z" fill="#ffffff"/>
  <path d="M0 0.782064Q0 1.10433 0.234375 1.3387Q0.46875 1.57308 0.791016 1.57308L19.9414 1.57308Q20.2637 1.57308 20.498 1.3387Q20.7324 1.10433 20.7324 0.782064Q20.7324 0.459798 20.498 0.230306Q20.2637 0.000813802 19.9414 0.000813802L0.791016 0.000813802Q0.46875 0.000813802 0.234375 0.230306Q0 0.459798 0 0.782064ZM0.791016 3.8387Q1.06445 3.8387 1.25977 3.63851Q1.45508 3.43831 1.45508 3.17464Q1.45508 2.9012 1.25977 2.70589Q1.06445 2.51058 0.791016 2.51058Q0.507812 2.51058 0.3125 2.70589Q0.117188 2.9012 0.117188 3.17464Q0.117188 3.43831 0.3125 3.63851Q0.507812 3.8387 0.791016 3.8387ZM0.791016 6.10433Q1.06445 6.10433 1.25977 5.90413Q1.45508 5.70394 1.45508 5.4305Q1.45508 5.15706 1.25977 4.96175Q1.06445 4.76644 0.791016 4.76644Q0.507812 4.76644 0.3125 4.96175Q0.117188 5.15706 0.117188 5.4305Q0.117188 5.70394 0.3125 5.90413Q0.507812 6.10433 0.791016 6.10433ZM0.791016 8.36019Q1.06445 8.36019 1.25977 8.15999Q1.45508 7.9598 1.45508 7.69613Q1.45508 7.42269 1.25977 7.22738Q1.06445 7.03206 0.791016 7.03206Q0.507812 7.03206 0.3125 7.22738Q0.117188 7.42269 0.117188 7.69613Q0.117188 7.9598 0.3125 8.15999Q0.507812 8.36019 0.791016 8.36019ZM0.791016 10.6258Q1.06445 10.6258 1.25977 10.4256Q1.45508 10.2254 1.45508 9.95199Q1.45508 9.67855 1.25977 9.48324Q1.06445 9.28792 0.791016 9.28792Q0.507812 9.28792 0.3125 9.48324Q0.117188 9.67855 0.117188 9.95199Q0.117188 10.2254 0.3125 10.4256Q0.507812 10.6258 0.791016 10.6258ZM0.791016 12.8817Q1.06445 12.8817 1.25977 12.6864Q1.45508 12.491 1.45508 12.2176Q1.45508 11.9442 1.25977 11.7489Q1.06445 11.5535 0.791016 11.5535Q0.507812 11.5535 0.3125 11.7489Q0.117188 11.9442 0.117188 12.2176Q0.117188 12.491 0.3125 12.6864Q0.507812 12.8817 0.791016 12.8817ZM0.791016 15.1473Q1.06445 15.1473 1.25977 14.9471Q1.45508 14.7469 1.45508 14.4735Q1.45508 14.2 1.25977 14.0047Q1.06445 13.8094 0.791016 13.8094Q0.507812 13.8094 0.3125 14.0047Q0.117188 14.2 0.117188 14.4735Q0.117188 14.7469 0.3125 14.9471Q0.507812 15.1473 0.791016 15.1473ZM0.791016 19.9422Q1.10352 19.9422 1.33789 19.7127Q1.57227 19.4832 1.57227 19.161L1.57227 16.8563Q1.57227 16.534 1.34277 16.3045Q1.11328 16.075 0.791016 16.075Q0.46875 16.075 0.234375 16.3045Q0 16.534 0 16.8563L0 19.161Q0 19.4832 0.234375 19.7127Q0.46875 19.9422 0.791016 19.9422Z" fill="#ffffff"/>
 </g>
</svg>
