<?xml version="1.0" encoding="UTF-8"?>
<!--Generator: Apple Native CoreSVG 175.5-->
<!DOCTYPE svg
PUBLIC "-//W3C//DTD SVG 1.1//EN"
       "http://www.w3.org/Graphics/SVG/1.1/DTD/svg11.dtd">
<svg version="1.1" xmlns="http://www.w3.org/2000/svg" xmlns:xlink="http://www.w3.org/1999/xlink" width="20.7324" height="19.9512">
 <g>
  <rect height="19.9512" opacity="0" width="20.7324" x="0" y="0"/>
  <path d="M3.85742 19.9414L5.97656 19.9414Q6.28906 19.9414 6.47949 19.751Q6.66992 19.5605 6.66992 19.2383L6.66992 3.1543Q6.66992 2.83203 6.47949 2.6416Q6.28906 2.45117 5.97656 2.45117L3.85742 2.45117Q3.54492 2.45117 3.35938 2.6416Q3.17383 2.83203 3.17383 3.1543L3.17383 19.2383Q3.17383 19.5605 3.35938 19.751Q3.54492 19.9414 3.85742 19.9414ZM8.28125 19.9414L10.4102 19.9414Q10.7129 19.9414 10.8984 19.751Q11.084 19.5605 11.084 19.2383L11.084 3.1543Q11.084 2.83203 10.8984 2.6416Q10.7129 2.45117 10.4102 2.45117L8.28125 2.45117Q7.96875 2.45117 7.77832 2.6416Q7.58789 2.83203 7.58789 3.1543L7.58789 19.2383Q7.58789 19.5605 7.77832 19.751Q7.96875 19.9414 8.28125 19.9414ZM12.6953 19.9414L14.8242 19.9414Q15.1367 19.9414 15.3271 19.751Q15.5176 19.5605 15.5176 19.2383L15.5176 3.1543Q15.5176 2.83203 15.3271 2.6416Q15.1367 2.45117 14.8242 2.45117L12.6953 2.45117Q12.3926 2.45117 12.207 2.6416Q12.0215 2.83203 12.0215 3.1543L12.0215 19.2383Q12.0215 19.5605 12.207 19.751Q12.3926 19.9414 12.6953 19.9414ZM17.1289 19.9414L19.248 19.9414Q19.5605 19.9414 19.7461 19.751Q19.9316 19.5605 19.9316 19.2383L19.9316 3.1543Q19.9316 2.83203 19.7461 2.6416Q19.5605 2.45117 19.248 2.45117L17.1289 2.45117Q16.8164 2.45117 16.626 2.6416Q16.4355 2.83203 16.4355 3.1543L16.4355 19.2383Q16.4355 19.5605 16.626 19.751Q16.8164 19.9414 17.1289 19.9414Z" fill="#ffffff"/>
  <path d="M0 0.78125Q0 1.10352 0.234375 1.33789Q0.46875 1.57227 0.791016 1.57227L19.9414 1.57227Q20.2637 1.57227 20.498 1.33789Q20.7324 1.10352 20.7324 0.78125Q20.7324 0.458984 20.498 0.229492Q20.2637 0 19.9414 0L0.791016 0Q0.46875 0 0.234375 0.229492Q0 0.458984 0 0.78125ZM0.791016 3.83789Q1.06445 3.83789 1.25977 3.6377Q1.45508 3.4375 1.45508 3.17383Q1.45508 2.90039 1.25977 2.70508Q1.06445 2.50977 0.791016 2.50977Q0.507812 2.50977 0.3125 2.70508Q0.117188 2.90039 0.117188 3.17383Q0.117188 3.4375 0.3125 3.6377Q0.507812 3.83789 0.791016 3.83789ZM0.791016 6.10352Q1.06445 6.10352 1.25977 5.90332Q1.45508 5.70312 1.45508 5.42969Q1.45508 5.15625 1.25977 4.96094Q1.06445 4.76562 0.791016 4.76562Q0.507812 4.76562 0.3125 4.96094Q0.117188 5.15625 0.117188 5.42969Q0.117188 5.70312 0.3125 5.90332Q0.507812 6.10352 0.791016 6.10352ZM0.791016 8.35938Q1.06445 8.35938 1.25977 8.15918Q1.45508 7.95898 1.45508 7.69531Q1.45508 7.42188 1.25977 7.22656Q1.06445 7.03125 0.791016 7.03125Q0.507812 7.03125 0.3125 7.22656Q0.117188 7.42188 0.117188 7.69531Q0.117188 7.95898 0.3125 8.15918Q0.507812 8.35938 0.791016 8.35938ZM0.791016 10.625Q1.06445 10.625 1.25977 10.4248Q1.45508 10.2246 1.45508 9.95117Q1.45508 9.67773 1.25977 9.48242Q1.06445 9.28711 0.791016 9.28711Q0.507812 9.28711 0.3125 9.48242Q0.117188 9.67773 0.117188 9.95117Q0.117188 10.2246 0.3125 10.4248Q0.507812 10.625 0.791016 10.625ZM0.791016 12.8809Q1.06445 12.8809 1.25977 12.6855Q1.45508 12.4902 1.45508 12.2168Q1.45508 11.9434 1.25977 11.748Q1.06445 11.5527 0.791016 11.5527Q0.507812 11.5527 0.3125 11.748Q0.117188 11.9434 0.117188 12.2168Q0.117188 12.4902 0.3125 12.6855Q0.507812 12.8809 0.791016 12.8809ZM0.791016 15.1465Q1.06445 15.1465 1.25977 14.9463Q1.45508 14.7461 1.45508 14.4727Q1.45508 14.1992 1.25977 14.0039Q1.06445 13.8086 0.791016 13.8086Q0.507812 13.8086 0.3125 14.0039Q0.117188 14.1992 0.117188 14.4727Q0.117188 14.7461 0.3125 14.9463Q0.507812 15.1465 0.791016 15.1465ZM0.791016 19.9414Q1.10352 19.9414 1.33789 19.7119Q1.57227 19.4824 1.57227 19.1602L1.57227 16.8555Q1.57227 16.5332 1.34277 16.3037Q1.11328 16.0742 0.791016 16.0742Q0.46875 16.0742 0.234375 16.3037Q0 16.5332 0 16.8555L0 19.1602Q0 19.4824 0.234375 19.7119Q0.46875 19.9414 0.791016 19.9414Z" fill="#ffffff"/>
 </g>
</svg>
