<?xml version="1.0" encoding="UTF-8"?>
<!--Generator: Apple Native CoreSVG 175.5-->
<!DOCTYPE svg
PUBLIC "-//W3C//DTD SVG 1.1//EN"
       "http://www.w3.org/Graphics/SVG/1.1/DTD/svg11.dtd">
<svg version="1.1" xmlns="http://www.w3.org/2000/svg" xmlns:xlink="http://www.w3.org/1999/xlink" width="19.9219" height="19.9316">
 <g>
  <rect height="19.9316" opacity="0" width="19.9219" x="0" y="0"/>
  <path d="M9.96094 19.9316Q12.002 19.9316 13.8037 19.1504Q15.6055 18.3691 16.9824 16.9922Q18.3594 15.6152 19.1406 13.8135Q19.9219 12.0117 19.9219 9.9707Q19.9219 7.92969 19.1406 6.12793Q18.3594 4.32617 16.9824 2.94922Q15.6055 1.57227 13.7988 0.791016Q11.9922 0.00976562 9.95117 0.00976562Q7.91016 0.00976562 6.1084 0.791016Q4.30664 1.57227 2.93457 2.94922Q1.5625 4.32617 0.78125 6.12793Q0 7.92969 0 9.9707Q0 12.0117 0.78125 13.8135Q1.5625 15.6152 2.93945 16.9922Q4.31641 18.3691 6.11816 19.1504Q7.91992 19.9316 9.96094 19.9316Z" fill="#ffffff"/>
  <path d="M4.43359 13.3105L4.43359 10.625Q4.43359 10.0488 4.56543 9.6582Q4.69727 9.26758 5.0293 8.84766L5.42969 8.33984Q5.55664 7.70508 5.74707 7.11426Q5.9375 6.52344 6.06445 6.26953Q6.25 5.86914 6.59668 5.63965Q6.94336 5.41016 7.41211 5.35156Q7.64648 5.32227 8.34961 5.30762Q9.05273 5.29297 9.96094 5.29297Q10.8594 5.29297 11.5576 5.30762Q12.2559 5.32227 12.5 5.35156Q12.959 5.41992 13.3105 5.64453Q13.6621 5.86914 13.8477 6.26953Q13.9746 6.52344 14.165 7.11426Q14.3555 7.70508 14.4922 8.33984L14.8828 8.84766Q15.2051 9.26758 15.3418 9.6582Q15.4785 10.0488 15.4785 10.625L15.4785 13.3105Q15.4785 13.5742 15.2979 13.75Q15.1172 13.9258 14.8535 13.9258L14.2969 13.9258Q14.043 13.9258 13.8623 13.75Q13.6816 13.5742 13.6816 13.3105L13.6816 12.5391Q12.9004 12.5879 11.8799 12.6172Q10.8594 12.6465 9.96094 12.6465Q9.05273 12.6465 8.02734 12.6172Q7.00195 12.5879 6.23047 12.5391L6.23047 13.3105Q6.23047 13.5742 6.0498 13.75Q5.86914 13.9258 5.60547 13.9258L5.04883 13.9258Q4.79492 13.9258 4.61426 13.75Q4.43359 13.5742 4.43359 13.3105ZM8.30078 9.33594Q8.30078 9.52148 8.49609 9.52148L9.76562 9.52148L9.15039 11.2109Q9.05273 11.4355 9.22852 11.5234Q9.4043 11.6113 9.54102 11.4258L11.543 8.83789Q11.6113 8.75 11.6113 8.66211Q11.6113 8.44727 11.416 8.44727L10.1465 8.45703L10.7812 6.76758Q10.8594 6.54297 10.6934 6.46484Q10.5273 6.38672 10.3906 6.57227L8.36914 9.16016Q8.30078 9.24805 8.30078 9.33594Z" fill="none"/>
 </g>
</svg>
