<?xml version="1.0" encoding="UTF-8"?>
<!--Generator: Apple Native CoreSVG 175-->
<!DOCTYPE svg
PUBLIC "-//W3C//DTD SVG 1.1//EN"
       "http://www.w3.org/Graphics/SVG/1.1/DTD/svg11.dtd">
<svg version="1.1" xmlns="http://www.w3.org/2000/svg" xmlns:xlink="http://www.w3.org/1999/xlink" width="18.5547" height="17.2754">
 <g>
  <rect height="17.2754" opacity="0" width="18.5547" x="0" y="0"/>
  <path d="M0 5.86914Q0 7.8418 1.12793 9.77539Q2.25586 11.709 4.24805 13.5547Q6.24023 15.4004 8.81836 17.1094Q8.91602 17.1777 9.04297 17.2266Q9.16992 17.2754 9.27734 17.2754Q9.38477 17.2754 9.50684 17.2266Q9.62891 17.1777 9.72656 17.1094Q12.3242 15.4004 14.3115 13.5547Q16.2988 11.709 17.4268 9.77539Q18.5547 7.8418 18.5547 5.86914Q18.5547 4.66797 18.1689 3.66699Q17.7832 2.66602 17.085 1.92871Q16.3867 1.19141 15.4443 0.791016Q14.502 0.390625 13.3887 0.390625Q12.1094 0.390625 10.9814 1.06445Q9.85352 1.73828 9.27734 2.86133Q8.69141 1.73828 7.56836 1.06445Q6.44531 0.390625 5.16602 0.390625Q4.05273 0.390625 3.11523 0.791016Q2.17773 1.19141 1.47461 1.92871Q0.771484 2.66602 0.385742 3.66699Q0 4.66797 0 5.86914ZM0.732422 5.86914Q0.732422 4.46289 1.30371 3.39355Q1.875 2.32422 2.87598 1.71875Q3.87695 1.11328 5.16602 1.11328Q6.05469 1.11328 6.7627 1.44531Q7.4707 1.77734 8.00293 2.31934Q8.53516 2.86133 8.88672 3.52539Q8.99414 3.69141 9.08203 3.75977Q9.16992 3.82812 9.27734 3.82812Q9.39453 3.82812 9.47754 3.75977Q9.56055 3.69141 9.6582 3.52539Q10.0293 2.87109 10.5615 2.32422Q11.0938 1.77734 11.7969 1.44531Q12.5 1.11328 13.3984 1.11328Q14.6777 1.11328 15.6738 1.71875Q16.6699 2.32422 17.2461 3.39355Q17.8223 4.46289 17.8223 5.86914Q17.8223 7.24609 17.168 8.64258Q16.5137 10.0391 15.3516 11.3916Q14.1895 12.7441 12.666 14.0234Q11.1426 15.3027 9.41406 16.4551Q9.31641 16.5234 9.27734 16.5234Q9.23828 16.5234 9.15039 16.4551Q7.41211 15.3027 5.88867 14.0234Q4.36523 12.7441 3.20801 11.3916Q2.05078 10.0391 1.3916 8.64258Q0.732422 7.24609 0.732422 5.86914ZM6.2207 9.99023Q6.2207 10.0781 6.28906 10.1318Q6.35742 10.1855 6.44531 10.1855L9.0332 10.1855L7.62695 13.9648Q7.55859 14.1309 7.63184 14.2334Q7.70508 14.3359 7.83203 14.3359Q7.95898 14.3359 8.06641 14.1992L12.2266 8.97461Q12.3242 8.83789 12.3242 8.75Q12.3242 8.66211 12.2559 8.60352Q12.1875 8.54492 12.0996 8.54492L9.52148 8.54492L10.918 4.77539Q10.9863 4.60938 10.9131 4.50684Q10.8398 4.4043 10.7129 4.39941Q10.5859 4.39453 10.4688 4.53125L6.31836 9.76562Q6.2207 9.89258 6.2207 9.99023Z" fill="rgba(0,0,0,0.85)"/>
 </g>
</svg>
