<?xml version="1.0" encoding="UTF-8"?>
<!--Generator: Apple Native CoreSVG 175-->
<!DOCTYPE svg
PUBLIC "-//W3C//DTD SVG 1.1//EN"
       "http://www.w3.org/Graphics/SVG/1.1/DTD/svg11.dtd">
<svg version="1.1" xmlns="http://www.w3.org/2000/svg" xmlns:xlink="http://www.w3.org/1999/xlink" width="17.2852" height="17.3145">
 <g>
  <rect height="17.3145" opacity="0" width="17.2852" x="0" y="0"/>
  <path d="M2.62695 17.3145L14.6484 17.3145Q15.957 17.3145 16.6211 16.6455Q17.2852 15.9766 17.2852 14.6875L17.2852 2.65625Q17.2852 1.37695 16.6211 0.703125Q15.957 0.0292969 14.6484 0.0292969L2.62695 0.0292969Q1.33789 0.0292969 0.668945 0.693359Q0 1.35742 0 2.65625L0 14.6875Q0 15.9863 0.668945 16.6504Q1.33789 17.3145 2.62695 17.3145ZM2.65625 16.5918Q1.70898 16.5918 1.2207 16.1035Q0.732422 15.6152 0.732422 14.6582L0.732422 2.69531Q0.732422 1.72852 1.2207 1.24512Q1.70898 0.761719 2.65625 0.761719L14.6289 0.761719Q15.5566 0.761719 16.0596 1.24512Q16.5625 1.72852 16.5625 2.69531L16.5625 14.6582Q16.5625 15.6152 16.0596 16.1035Q15.5566 16.5918 14.6289 16.5918ZM4.24805 9.46289Q4.24805 9.58984 4.33594 9.66309Q4.42383 9.73633 4.56055 9.73633L8.0957 9.73633L6.17188 14.9023Q6.08398 15.127 6.17676 15.2686Q6.26953 15.4102 6.44531 15.415Q6.62109 15.4199 6.76758 15.2344L12.4707 8.08594Q12.5977 7.90039 12.5977 7.7832Q12.5977 7.64648 12.5098 7.57324Q12.4219 7.5 12.2852 7.5L8.75 7.5L10.6738 2.33398Q10.7617 2.10938 10.6689 1.96777Q10.5762 1.82617 10.4004 1.82129Q10.2246 1.81641 10.0781 2.00195L4.375 9.16016Q4.24805 9.33594 4.24805 9.46289Z" fill="#ffffff"/>
 </g>
</svg>
