<?xml version="1.0" encoding="UTF-8"?>
<!--Generator: Apple Native CoreSVG 175-->
<!DOCTYPE svg
PUBLIC "-//W3C//DTD SVG 1.1//EN"
       "http://www.w3.org/Graphics/SVG/1.1/DTD/svg11.dtd">
<svg version="1.1" xmlns="http://www.w3.org/2000/svg" xmlns:xlink="http://www.w3.org/1999/xlink" width="19.1602" height="19.1699">
 <g>
  <rect height="19.1699" opacity="0" width="19.1602" x="0" y="0"/>
  <path d="M9.57031 19.1699Q11.5527 19.1699 13.2861 18.4277Q15.0195 17.6855 16.3379 16.3623Q17.6562 15.0391 18.4082 13.3057Q19.1602 11.5723 19.1602 9.59961Q19.1602 7.62695 18.4082 5.89355Q17.6562 4.16016 16.3379 2.83691Q15.0195 1.51367 13.2861 0.771484Q11.5527 0.0292969 9.57031 0.0292969Q7.59766 0.0292969 5.86426 0.771484Q4.13086 1.51367 2.81738 2.83691Q1.50391 4.16016 0.751953 5.89355Q0 7.62695 0 9.59961Q0 11.5723 0.74707 13.3057Q1.49414 15.0391 2.8125 16.3623Q4.13086 17.6855 5.86914 18.4277Q7.60742 19.1699 9.57031 19.1699ZM9.57031 18.4277Q7.74414 18.4277 6.14746 17.7393Q4.55078 17.0508 3.33496 15.8398Q2.11914 14.6289 1.43555 13.0273Q0.751953 11.4258 0.751953 9.59961Q0.751953 7.77344 1.43555 6.17188Q2.11914 4.57031 3.33496 3.35449Q4.55078 2.13867 6.14746 1.4502Q7.74414 0.761719 9.57031 0.761719Q11.4062 0.761719 13.0029 1.4502Q14.5996 2.13867 15.8154 3.35449Q17.0312 4.57031 17.7197 6.17188Q18.4082 7.77344 18.4082 9.59961Q18.4082 11.4258 17.7246 13.0273Q17.041 14.6289 15.8252 15.8398Q14.6094 17.0508 13.0078 17.7393Q11.4062 18.4277 9.57031 18.4277ZM11.6016 3.28125Q11.6895 3.05664 11.5967 2.91504Q11.5039 2.77344 11.3281 2.76855Q11.1523 2.76367 11.0059 2.94922L7.92969 6.81641L9.62891 8.50586ZM9.66797 8.55469L11.9629 10.8496L13.3105 9.14062Q13.4473 8.96484 13.4473 8.81836Q13.4473 8.70117 13.3594 8.62793Q13.2715 8.55469 13.125 8.55469ZM9.15039 10.2051L6.96289 8.02734L5.68359 9.62891Q5.55664 9.79492 5.55664 9.93164Q5.55664 10.0586 5.63965 10.1318Q5.72266 10.2051 5.85938 10.2051ZM10.9961 12.041L9.17969 10.2344L7.09961 15.8496Q7.02148 16.0742 7.11426 16.2158Q7.20703 16.3574 7.37793 16.3623Q7.54883 16.3672 7.70508 16.1816ZM14.5215 14.9414Q14.6094 15.0195 14.7314 15.0244Q14.8535 15.0293 14.9316 14.9414Q15.0195 14.8438 15.0195 14.7266Q15.0195 14.6094 14.9316 14.5312L4.62891 4.20898Q4.54102 4.12109 4.41895 4.12109Q4.29688 4.12109 4.20898 4.20898Q4.11133 4.29688 4.12109 4.41406Q4.13086 4.53125 4.20898 4.62891Z" fill="#ffffff"/>
 </g>
</svg>
