<?xml version="1.0" encoding="UTF-8"?>
<!--Generator: Apple Native CoreSVG 175.5-->
<!DOCTYPE svg
PUBLIC "-//W3C//DTD SVG 1.1//EN"
       "http://www.w3.org/Graphics/SVG/1.1/DTD/svg11.dtd">
<svg version="1.1" xmlns="http://www.w3.org/2000/svg" xmlns:xlink="http://www.w3.org/1999/xlink" width="19.9219" height="19.9316">
 <g>
  <rect height="19.9316" opacity="0" width="19.9219" x="0" y="0"/>
  <path d="M9.96094 19.9219Q12.002 19.9219 13.8037 19.1406Q15.6055 18.3594 16.9824 16.9824Q18.3594 15.6055 19.1406 13.8037Q19.9219 12.002 19.9219 9.96094Q19.9219 7.91992 19.1406 6.11816Q18.3594 4.31641 16.9824 2.93945Q15.6055 1.5625 13.7988 0.78125Q11.9922 0 9.95117 0Q7.91016 0 6.1084 0.78125Q4.30664 1.5625 2.93457 2.93945Q1.5625 4.31641 0.78125 6.11816Q0 7.91992 0 9.96094Q0 12.002 0.78125 13.8037Q1.5625 15.6055 2.93945 16.9824Q4.31641 18.3594 6.11816 19.1406Q7.91992 19.9219 9.96094 19.9219ZM9.96094 18.2617Q8.23242 18.2617 6.72852 17.6172Q5.22461 16.9727 4.08691 15.835Q2.94922 14.6973 2.30957 13.1934Q1.66992 11.6895 1.66992 9.96094Q1.66992 8.23242 2.30957 6.72852Q2.94922 5.22461 4.08203 4.08203Q5.21484 2.93945 6.71875 2.2998Q8.22266 1.66016 9.95117 1.66016Q11.6797 1.66016 13.1885 2.2998Q14.6973 2.93945 15.835 4.08203Q16.9727 5.22461 17.6172 6.72852Q18.2617 8.23242 18.2617 9.96094Q18.2617 11.6895 17.6221 13.1934Q16.9824 14.6973 15.8398 15.835Q14.6973 16.9727 13.1934 17.6172Q11.6895 18.2617 9.96094 18.2617Z" fill="#ffffff"/>
  <path d="M4.59961 13.1934Q4.59961 13.4473 4.77051 13.6182Q4.94141 13.7891 5.19531 13.7891L5.73242 13.7891Q5.98633 13.7891 6.16211 13.6182Q6.33789 13.4473 6.33789 13.1934L6.33789 12.4414Q7.08984 12.4902 8.08594 12.5195Q9.08203 12.5488 9.96094 12.5488Q10.8301 12.5488 11.8262 12.5195Q12.8223 12.4902 13.5742 12.4414L13.5742 13.1934Q13.5742 13.4473 13.7451 13.6182Q13.916 13.7891 14.1699 13.7891L14.707 13.7891Q14.9609 13.7891 15.1367 13.6182Q15.3125 13.4473 15.3125 13.1934L15.3125 10.5859Q15.3125 10.0195 15.1807 9.64355Q15.0488 9.26758 14.7363 8.85742L14.3555 8.36914Q14.2188 7.75391 14.0332 7.18262Q13.8477 6.61133 13.7305 6.35742Q13.5547 5.97656 13.2129 5.75684Q12.8711 5.53711 12.4219 5.46875Q12.1875 5.43945 11.5088 5.4248Q10.8301 5.41016 9.96094 5.41016Q9.08203 5.41016 8.40332 5.4248Q7.72461 5.43945 7.49023 5.46875Q7.04102 5.52734 6.69922 5.75195Q6.35742 5.97656 6.18164 6.35742Q6.06445 6.61133 5.87402 7.18262Q5.68359 7.75391 5.56641 8.36914L5.17578 8.85742Q4.86328 9.26758 4.73145 9.64355Q4.59961 10.0195 4.59961 10.5859ZM8.34961 9.33594Q8.34961 9.24805 8.41797 9.16016L10.3809 6.65039Q10.5176 6.46484 10.6738 6.54785Q10.8301 6.63086 10.752 6.8457L10.1367 8.47656L11.3672 8.47656Q11.5625 8.47656 11.5625 8.68164Q11.5625 8.75977 11.4941 8.84766L9.55078 11.3574Q9.42383 11.543 9.25293 11.4551Q9.08203 11.3672 9.16992 11.1523L9.77539 9.51172L8.54492 9.51172Q8.34961 9.51172 8.34961 9.33594Z" fill="#ffffff"/>
 </g>
</svg>
