<?xml version="1.0" encoding="UTF-8"?>
<!--Generator: Apple Native CoreSVG 175.5-->
<!DOCTYPE svg
PUBLIC "-//W3C//DTD SVG 1.1//EN"
       "http://www.w3.org/Graphics/SVG/1.1/DTD/svg11.dtd">
<svg version="1.1" xmlns="http://www.w3.org/2000/svg" xmlns:xlink="http://www.w3.org/1999/xlink" width="23.1055" height="18.1543">
 <g>
  <rect height="18.1543" opacity="0" width="23.1055" x="0" y="0"/>
  <path d="M11.5527 15.4297Q12.7832 15.4297 14.1504 15.4004Q15.5176 15.3711 16.8359 15.3174Q18.1543 15.2637 19.2529 15.1953Q20.3516 15.127 21.0449 15.0488Q22.041 14.9316 22.5732 14.3945Q23.1055 13.8574 23.1055 12.9199L23.1055 11.2012Q23.1055 10.3711 22.9883 9.75098Q22.8711 9.13086 22.5977 8.58887Q22.3242 8.04688 21.875 7.46094L21.0449 6.39648Q20.8691 5.51758 20.6201 4.6582Q20.3711 3.79883 20.1221 3.11523Q19.873 2.43164 19.707 2.07031Q19.3164 1.24023 18.5791 0.751953Q17.8418 0.263672 16.875 0.136719Q16.543 0.0878906 15.7666 0.0585938Q14.9902 0.0292969 13.9014 0.0146484Q12.8125 0 11.5527 0Q10.293 0 9.2041 0.0195312Q8.11523 0.0390625 7.33887 0.0683594Q6.5625 0.0976562 6.24023 0.136719Q5.26367 0.253906 4.53125 0.74707Q3.79883 1.24023 3.4082 2.07031Q3.23242 2.43164 2.98828 3.11523Q2.74414 3.79883 2.49023 4.6582Q2.23633 5.51758 2.06055 6.39648L1.24023 7.46094Q0.78125 8.04688 0.512695 8.58887Q0.244141 9.13086 0.12207 9.75098Q0 10.3711 0 11.2012L0 12.9199Q0 13.8574 0.537109 14.3945Q1.07422 14.9316 2.06055 15.0488Q2.75391 15.127 3.85254 15.1953Q4.95117 15.2637 6.26953 15.3174Q7.58789 15.3711 8.95508 15.4004Q10.3223 15.4297 11.5527 15.4297ZM11.5527 14.1504Q10.3125 14.1504 8.95508 14.1211Q7.59766 14.0918 6.32324 14.0479Q5.04883 14.0039 4.02344 13.9404Q2.99805 13.877 2.40234 13.7988Q1.78711 13.7207 1.5332 13.4033Q1.2793 13.0859 1.2793 12.5293L1.2793 11.2012Q1.2793 10.5273 1.36719 10.0537Q1.45508 9.58008 1.66504 9.16016Q1.875 8.74023 2.25586 8.24219L3.25195 6.93359Q3.34961 6.40625 3.50586 5.80078Q3.66211 5.19531 3.84766 4.59961Q4.0332 4.00391 4.22363 3.49609Q4.41406 2.98828 4.57031 2.64648Q4.80469 2.13867 5.26367 1.83105Q5.72266 1.52344 6.38672 1.44531Q6.69922 1.40625 7.43164 1.36719Q8.16406 1.32812 9.21875 1.30371Q10.2734 1.2793 11.5527 1.2793Q12.8418 1.2793 13.9014 1.30371Q14.9609 1.32812 15.6885 1.36719Q16.416 1.40625 16.6992 1.44531Q17.3926 1.5332 17.8467 1.84082Q18.3008 2.14844 18.5449 2.64648Q18.7012 2.98828 18.8867 3.49609Q19.0723 4.00391 19.2578 4.59961Q19.4434 5.19531 19.5996 5.80078Q19.7559 6.40625 19.8535 6.93359L20.8594 8.24219Q21.2402 8.74023 21.4502 9.16016Q21.6602 9.58008 21.7432 10.0537Q21.8262 10.5273 21.8262 11.2012L21.8262 12.5293Q21.8262 13.0859 21.5771 13.4082Q21.3281 13.7305 20.7031 13.7988Q20.1172 13.877 19.0918 13.9355Q18.0664 13.9941 16.7871 14.043Q15.5078 14.0918 14.1553 14.1211Q12.8027 14.1504 11.5527 14.1504ZM1.79688 18.1152L2.93945 18.1152Q3.49609 18.1152 3.86719 17.7441Q4.23828 17.373 4.23828 16.8262L4.23828 14.502L0.498047 13.9648L0.498047 16.8262Q0.498047 17.373 0.869141 17.7441Q1.24023 18.1152 1.79688 18.1152ZM20.166 18.1152L21.3184 18.1152Q21.8652 18.1152 22.2363 17.7441Q22.6074 17.373 22.6074 16.8262L22.6074 13.9648L18.877 14.502L18.877 16.8262Q18.877 17.373 19.248 17.7441Q19.6191 18.1152 20.166 18.1152Z" fill="#ffffff"/>
  <path d="M8.4668 8.30078Q8.4668 8.42773 8.56445 8.51562Q8.66211 8.60352 8.78906 8.60352L11.2207 8.60352L9.92188 12.0703Q9.83398 12.3047 9.93652 12.4463Q10.0391 12.5879 10.2148 12.5928Q10.3906 12.5977 10.5469 12.4121L14.4434 7.5Q14.5703 7.36328 14.5703 7.2168Q14.5703 7.08008 14.4727 6.99219Q14.375 6.9043 14.2383 6.9043L11.8262 6.9043L13.1055 3.44727Q13.1934 3.21289 13.0957 3.07129Q12.998 2.92969 12.8223 2.9248Q12.6465 2.91992 12.5 3.10547L8.58398 8.01758Q8.4668 8.17383 8.4668 8.30078Z" fill="#ffffff"/>
 </g>
</svg>
