<?xml version="1.0" encoding="UTF-8"?>
<!--Generator: Apple Native CoreSVG 175.5-->
<!DOCTYPE svg
PUBLIC "-//W3C//DTD SVG 1.1//EN"
       "http://www.w3.org/Graphics/SVG/1.1/DTD/svg11.dtd">
<svg version="1.1" xmlns="http://www.w3.org/2000/svg" xmlns:xlink="http://www.w3.org/1999/xlink" width="17.9785" height="18.1738">
 <g>
  <rect height="18.1738" opacity="0" width="17.9785" x="0" y="0"/>
  <path d="M3.06641 18.1738L14.9121 18.1738Q16.4453 18.1738 17.2119 17.417Q17.9785 16.6602 17.9785 15.1465L17.9785 3.22266Q17.9785 1.70898 17.2119 0.952148Q16.4453 0.195312 14.9121 0.195312L3.06641 0.195312Q1.5332 0.195312 0.766602 0.952148Q0 1.70898 0 3.22266L0 15.1465Q0 16.6602 0.766602 17.417Q1.5332 18.1738 3.06641 18.1738ZM3.08594 16.6016Q2.35352 16.6016 1.96289 16.2158Q1.57227 15.8301 1.57227 15.0684L1.57227 3.30078Q1.57227 2.53906 1.96289 2.15332Q2.35352 1.76758 3.08594 1.76758L14.8926 1.76758Q15.6152 1.76758 16.0107 2.15332Q16.4062 2.53906 16.4062 3.30078L16.4062 15.0684Q16.4062 15.8301 16.0107 16.2158Q15.6152 16.6016 14.8926 16.6016Z" fill="#ffffff"/>
  <path d="M6.10352 14.3359Q6.29883 14.3359 6.45996 14.2139Q6.62109 14.0918 6.95312 13.7598L8.95508 11.7871Q8.99414 11.7383 9.04297 11.7871L11.0449 13.7598Q11.377 14.0918 11.5381 14.2139Q11.6992 14.3359 11.8848 14.3359Q12.1289 14.3359 12.2754 14.1748Q12.4219 14.0137 12.4219 13.7207L12.4219 5.49805Q12.4219 4.78516 12.0557 4.41406Q11.6895 4.04297 10.9863 4.04297L7.01172 4.04297Q6.29883 4.04297 5.9375 4.41406Q5.57617 4.78516 5.57617 5.49805L5.57617 13.7207Q5.57617 14.0137 5.71777 14.1748Q5.85938 14.3359 6.10352 14.3359Z" fill="#ffffff"/>
 </g>
</svg>
