<?xml version="1.0" encoding="UTF-8"?>
<!--Generator: Apple Native CoreSVG 175.5-->
<!DOCTYPE svg
PUBLIC "-//W3C//DTD SVG 1.1//EN"
       "http://www.w3.org/Graphics/SVG/1.1/DTD/svg11.dtd">
<svg version="1.1" xmlns="http://www.w3.org/2000/svg" xmlns:xlink="http://www.w3.org/1999/xlink" width="21.6895" height="18.1543">
 <g>
  <rect height="18.1543" opacity="0" width="21.6895" x="0" y="0"/>
  <path d="M0 16.5137Q0 17.1191 0.332031 17.373Q0.664062 17.627 1.10352 17.627Q1.34766 17.627 1.58203 17.5049Q1.81641 17.3828 2.08984 17.207Q2.90039 16.6602 3.8623 16.3428Q4.82422 16.0254 5.84961 16.0352Q6.9043 16.0449 7.91504 16.4355Q8.92578 16.8262 9.74609 17.6172Q10.0684 17.9102 10.3223 18.0225Q10.5762 18.1348 10.8496 18.1348Q11.1133 18.1348 11.3721 18.0225Q11.6309 17.9102 11.9434 17.6172Q12.7637 16.8262 13.7744 16.4355Q14.7852 16.0449 15.8496 16.0352Q16.8652 16.0254 17.8271 16.3428Q18.7891 16.6602 19.5996 17.207Q19.873 17.3828 20.1074 17.5049Q20.3418 17.627 20.5957 17.627Q21.0254 17.627 21.3574 17.373Q21.6895 17.1191 21.6895 16.5137L21.6895 3.26172Q21.6895 3.13477 21.6699 3.02734Q21.6504 2.91992 21.5723 2.79297Q21.1426 2.04102 20.293 1.40625Q19.4434 0.771484 18.2959 0.385742Q17.1484 0 15.8105 0Q14.209 0 12.8955 0.571289Q11.582 1.14258 10.8496 2.05078Q10.1074 1.14258 8.79395 0.571289Q7.48047 0 5.88867 0Q4.54102 0 3.39355 0.385742Q2.24609 0.771484 1.40137 1.40625Q0.556641 2.04102 0.117188 2.79297Q0.0390625 2.91992 0.0195312 3.02734Q0 3.13477 0 3.26172ZM1.57227 15.6836L1.57227 3.48633Q1.96289 2.91016 2.63672 2.48047Q3.31055 2.05078 4.14551 1.81152Q4.98047 1.57227 5.88867 1.57227Q7.27539 1.57227 8.4082 2.10938Q9.54102 2.64648 10.0586 3.54492L10.0586 15.8496Q9.56055 15.4492 8.90137 15.1367Q8.24219 14.8242 7.4707 14.6436Q6.69922 14.4629 5.88867 14.4629Q4.60938 14.4629 3.47656 14.7949Q2.34375 15.127 1.57227 15.6836ZM11.6309 15.8496L11.6309 3.54492Q12.1484 2.64648 13.2812 2.10938Q14.4141 1.57227 15.8105 1.57227Q16.709 1.57227 17.5439 1.81152Q18.3789 2.05078 19.0527 2.48047Q19.7266 2.91016 20.1172 3.48633L20.1172 15.6836Q19.3457 15.127 18.2129 14.7949Q17.0801 14.4629 15.8105 14.4629Q14.9902 14.4629 14.2236 14.6436Q13.457 14.8242 12.793 15.1367Q12.1289 15.4492 11.6309 15.8496Z" fill="#ffffff"/>
 </g>
</svg>
