<?xml version="1.0" encoding="UTF-8"?>
<!--Generator: Apple Native CoreSVG 175.5-->
<!DOCTYPE svg
PUBLIC "-//W3C//DTD SVG 1.1//EN"
       "http://www.w3.org/Graphics/SVG/1.1/DTD/svg11.dtd">
<svg version="1.1" xmlns="http://www.w3.org/2000/svg" xmlns:xlink="http://www.w3.org/1999/xlink" width="23.3635" height="22.2949">
 <g>
  <rect height="22.2949" opacity="0" width="23.3635" x="0" y="0"/>
  <path d="M1.20117 21.6113L3.04688 21.6113Q3.63281 21.6113 3.94043 21.2988Q4.24805 20.9863 4.24805 20.4102L4.24805 3.91602Q4.24805 3.33984 3.94043 3.02246Q3.63281 2.70508 3.04688 2.70508L1.20117 2.70508Q0.615234 2.70508 0.307617 3.02246Q0 3.33984 0 3.91602L0 20.4102Q0 20.9863 0.307617 21.2988Q0.615234 21.6113 1.20117 21.6113ZM6.5918 21.6113L10.5469 21.6113Q11.1328 21.6113 11.4404 21.2988Q11.748 20.9863 11.748 20.4102L11.748 7.24609Q11.748 6.67969 11.4404 6.3623Q11.1328 6.04492 10.5469 6.04492L6.5918 6.04492Q6.00586 6.04492 5.69336 6.3623Q5.38086 6.67969 5.38086 7.24609L5.38086 20.4102Q5.38086 20.9863 5.69336 21.2988Q6.00586 21.6113 6.5918 21.6113ZM7.51953 9.53125Q7.25586 9.53125 7.08008 9.35547Q6.9043 9.17969 6.9043 8.92578Q6.9043 8.67188 7.08008 8.50098Q7.25586 8.33008 7.51953 8.33008L9.63867 8.33008Q9.89258 8.33008 10.0635 8.50098Q10.2344 8.67188 10.2344 8.92578Q10.2344 9.17969 10.0635 9.35547Q9.89258 9.53125 9.63867 9.53125ZM7.51953 19.3359Q7.25586 19.3359 7.08008 19.1602Q6.9043 18.9844 6.9043 18.7305Q6.9043 18.4766 7.08008 18.3057Q7.25586 18.1348 7.51953 18.1348L9.63867 18.1348Q9.89258 18.1348 10.0635 18.3057Q10.2344 18.4766 10.2344 18.7305Q10.2344 18.9844 10.0635 19.1602Q9.89258 19.3359 9.63867 19.3359ZM14.0918 21.6113L16.5039 21.6113Q17.0898 21.6113 17.3975 21.2988Q17.7051 20.9863 17.7051 20.4102L17.7051 1.21094Q17.7051 0.634766 17.3975 0.317383Q17.0898 0 16.5039 0L14.0918 0Q13.5059 0 13.1982 0.317383Q12.8906 0.634766 12.8906 1.21094L12.8906 20.4102Q12.8906 20.9863 13.1982 21.2988Q13.5059 21.6113 14.0918 21.6113ZM20.7324 21.6602L22.3047 21.4355Q22.8809 21.3574 23.1494 21.0156Q23.418 20.6738 23.3496 20.0977L21.4844 3.89648Q21.416 3.33008 21.0791 3.04688Q20.7422 2.76367 20.1562 2.8418L18.5938 3.06641Q18.0176 3.14453 17.749 3.48633Q17.4805 3.82812 17.5391 4.39453L19.4141 20.5957Q19.4824 21.1719 19.8193 21.4551Q20.1562 21.7383 20.7324 21.6602Z" fill="#ffffff"/>
 </g>
</svg>
