<?xml version="1.0" encoding="UTF-8"?>
<!--Generator: Apple Native CoreSVG 175-->
<!DOCTYPE svg
PUBLIC "-//W3C//DTD SVG 1.1//EN"
       "http://www.w3.org/Graphics/SVG/1.1/DTD/svg11.dtd">
<svg version="1.1" xmlns="http://www.w3.org/2000/svg" xmlns:xlink="http://www.w3.org/1999/xlink" width="12.1797" height="19.9176">
 <g>
  <rect height="19.9176" opacity="0" width="12.1797" x="0" y="0"/>
  <path d="M0.683594 19.8996Q0.880432 19.8996 1.05934 19.7939Q1.23825 19.6883 1.50162 19.4234L6.0231 14.7566Q6.08994 14.6872 6.15662 14.7566L10.6781 19.4234Q10.9415 19.6785 11.1155 19.789Q11.2895 19.8996 11.4961 19.8996Q11.8086 19.8996 11.9942 19.6926Q12.1797 19.4856 12.1797 19.1371L12.1797 2.38083Q12.1797 1.20941 11.5778 0.604706Q10.9758 0 9.81689 0L2.36298 0Q1.20392 0 0.601959 0.604706Q0 1.20941 0 2.38083L0 19.1371Q0 19.4856 0.185547 19.6926Q0.371094 19.8996 0.683594 19.8996ZM1.05545 18.8379Q0.926971 18.9706 0.823669 18.9427Q0.720367 18.9148 0.720367 18.7402L0.720367 2.40738Q0.720367 1.56876 1.14243 1.14456Q1.56448 0.720367 2.39883 0.720367L9.78363 0.720367Q10.6152 0.720367 11.0373 1.14456Q11.4594 1.56876 11.4594 2.40738L11.4594 18.7402Q11.4594 18.9148 11.3596 18.9427Q11.2598 18.9706 11.1243 18.8379L6.42471 13.9911Q6.28876 13.8507 6.08986 13.8507Q5.89096 13.8507 5.75516 13.9911Z" fill="#ffffff"/>
 </g>
</svg>
