<?xml version="1.0" encoding="UTF-8"?>
<!--Generator: Apple Native CoreSVG 175-->
<!DOCTYPE svg
PUBLIC "-//W3C//DTD SVG 1.1//EN"
       "http://www.w3.org/Graphics/SVG/1.1/DTD/svg11.dtd">
<svg version="1.1" xmlns="http://www.w3.org/2000/svg" xmlns:xlink="http://www.w3.org/1999/xlink" width="19.1602" height="19.1504">
 <g>
  <rect height="19.1504" opacity="0" width="19.1602" x="0" y="0"/>
  <path d="M9.57031 19.1504Q11.5527 19.1504 13.2861 18.4082Q15.0195 17.666 16.3379 16.3428Q17.6562 15.0195 18.4082 13.2861Q19.1602 11.5527 19.1602 9.58008Q19.1602 7.60742 18.4082 5.87402Q17.6562 4.14062 16.3379 2.81738Q15.0195 1.49414 13.2861 0.751953Q11.5527 0.00976562 9.57031 0.00976562Q7.59766 0.00976562 5.86426 0.751953Q4.13086 1.49414 2.81738 2.81738Q1.50391 4.14062 0.751953 5.87402Q0 7.60742 0 9.58008Q0 11.5527 0.74707 13.2861Q1.49414 15.0195 2.8125 16.3428Q4.13086 17.666 5.86914 18.4082Q7.60742 19.1504 9.57031 19.1504ZM4.26758 13.8965L4.26758 6.02539Q4.26758 5.73242 4.41895 5.57617Q4.57031 5.41992 4.90234 5.41992L5.60547 5.41992Q5.92773 5.41992 6.0791 5.57617Q6.23047 5.73242 6.23047 6.02539L6.23047 13.8965Q6.23047 14.1797 6.0791 14.3408Q5.92773 14.502 5.60547 14.502L4.90234 14.502Q4.57031 14.502 4.41895 14.3408Q4.26758 14.1797 4.26758 13.8965ZM6.77734 13.8965L6.77734 7.62695Q6.77734 7.00195 7.39258 7.00195L9.10156 7.00195Q9.43359 7.00195 9.5752 7.16797Q9.7168 7.33398 9.7168 7.62695L9.7168 13.8965Q9.7168 14.1797 9.5752 14.3408Q9.43359 14.502 9.10156 14.502L7.39258 14.502Q6.77734 14.502 6.77734 13.8965ZM7.42188 13.3398Q7.42188 13.5547 7.64648 13.5547L8.86719 13.5547Q9.08203 13.5547 9.08203 13.3398Q9.08203 13.125 8.86719 13.125L7.64648 13.125Q7.42188 13.125 7.42188 13.3398ZM7.42188 8.17383Q7.42188 8.27148 7.48047 8.33008Q7.53906 8.38867 7.64648 8.38867L8.86719 8.38867Q8.96484 8.38867 9.02344 8.3252Q9.08203 8.26172 9.08203 8.17383Q9.08203 8.08594 9.02344 8.02246Q8.96484 7.95898 8.86719 7.95898L7.64648 7.95898Q7.54883 7.95898 7.48535 8.02246Q7.42188 8.08594 7.42188 8.17383ZM10.2637 13.8965L10.2637 4.93164Q10.2637 4.31641 10.8887 4.31641L11.7969 4.31641Q12.4219 4.31641 12.4219 4.93164L12.4219 5.99609L13.0566 5.85938Q13.3691 5.79102 13.5449 5.92773Q13.7207 6.06445 13.7793 6.36719L15.1172 13.6816Q15.166 13.9746 15.0488 14.1699Q14.9316 14.3652 14.6191 14.4043L14.082 14.502Q13.7695 14.5508 13.5938 14.4287Q13.418 14.3066 13.3691 14.0137L12.4219 8.88672L12.4219 13.8965Q12.4219 14.502 11.7969 14.502L10.8887 14.502Q10.2637 14.502 10.2637 13.8965Z" fill="#ffffff"/>
 </g>
</svg>
