<?xml version="1.0" encoding="UTF-8"?>
<!--Generator: Apple Native CoreSVG 175.5-->
<!DOCTYPE svg
PUBLIC "-//W3C//DTD SVG 1.1//EN"
       "http://www.w3.org/Graphics/SVG/1.1/DTD/svg11.dtd">
<svg version="1.1" xmlns="http://www.w3.org/2000/svg" xmlns:xlink="http://www.w3.org/1999/xlink" width="19.9219" height="19.9316">
 <g>
  <rect height="19.9316" opacity="0" width="19.9219" x="0" y="0"/>
  <path d="M9.96094 19.9316Q12.002 19.9316 13.8037 19.1504Q15.6055 18.3691 16.9824 16.9922Q18.3594 15.6152 19.1406 13.8135Q19.9219 12.0117 19.9219 9.9707Q19.9219 7.92969 19.1406 6.12793Q18.3594 4.32617 16.9824 2.94922Q15.6055 1.57227 13.7988 0.791016Q11.9922 0.00976562 9.95117 0.00976562Q7.91016 0.00976562 6.1084 0.791016Q4.30664 1.57227 2.93457 2.94922Q1.5625 4.32617 0.78125 6.12793Q0 7.92969 0 9.9707Q0 12.0117 0.78125 13.8135Q1.5625 15.6152 2.93945 16.9922Q4.31641 18.3691 6.11816 19.1504Q7.91992 19.9316 9.96094 19.9316Z" fill="#ffffff"/>
  <path d="M4.21875 14.3359L4.21875 6.46484Q4.21875 6.19141 4.37012 6.04492Q4.52148 5.89844 4.80469 5.89844L5.68359 5.89844Q5.95703 5.89844 6.1084 6.04492Q6.25977 6.19141 6.25977 6.46484L6.25977 14.3359Q6.25977 14.6094 6.1084 14.7559Q5.95703 14.9023 5.68359 14.9023L4.80469 14.9023Q4.52148 14.9023 4.37012 14.7559Q4.21875 14.6094 4.21875 14.3359ZM6.92383 14.3359L6.92383 8.05664Q6.92383 7.4707 7.5 7.4707L9.39453 7.4707Q9.67773 7.4707 9.81445 7.63184Q9.95117 7.79297 9.95117 8.05664L9.95117 14.3359Q9.95117 14.6094 9.81445 14.7559Q9.67773 14.9023 9.39453 14.9023L7.5 14.9023Q6.92383 14.9023 6.92383 14.3359ZM7.64648 13.5254Q7.64648 13.8477 7.94922 13.8477L8.95508 13.8477Q9.25781 13.8477 9.25781 13.5254Q9.25781 13.2227 8.95508 13.2227L7.94922 13.2227Q7.64648 13.2227 7.64648 13.5254ZM7.64648 8.86719Q7.64648 8.98438 7.72949 9.07715Q7.8125 9.16992 7.94922 9.16992L8.95508 9.16992Q9.0918 9.16992 9.1748 9.07227Q9.25781 8.97461 9.25781 8.86719Q9.25781 8.73047 9.1748 8.64746Q9.0918 8.56445 8.95508 8.56445L7.94922 8.56445Q7.82227 8.56445 7.73438 8.64746Q7.64648 8.73047 7.64648 8.86719ZM10.6445 14.3359L10.6445 5.18555Q10.6445 4.60938 11.2207 4.60938L12.3535 4.60938Q12.9297 4.60938 12.9297 5.18555L12.9297 6.18164L13.7109 5.98633Q13.9746 5.91797 14.1455 6.04492Q14.3164 6.17188 14.375 6.44531L15.9473 14.043Q15.9961 14.3164 15.8789 14.4922Q15.7617 14.668 15.498 14.7168L14.7656 14.9023Q14.502 14.9609 14.3262 14.8438Q14.1504 14.7266 14.1016 14.4629L12.9297 8.83789L12.9297 14.3359Q12.9297 14.9023 12.3535 14.9023L11.2207 14.9023Q10.6445 14.9023 10.6445 14.3359Z" fill="none"/>
 </g>
</svg>
