<?xml version="1.0" encoding="UTF-8"?>
<!--Generator: Apple Native CoreSVG 175-->
<!DOCTYPE svg
PUBLIC "-//W3C//DTD SVG 1.1//EN"
       "http://www.w3.org/Graphics/SVG/1.1/DTD/svg11.dtd">
<svg version="1.1" xmlns="http://www.w3.org/2000/svg" xmlns:xlink="http://www.w3.org/1999/xlink" width="19.8032" height="23.9847">
 <g>
  <rect height="23.9847" opacity="0" width="19.8032" x="0" y="0"/>
  <path d="M11.5089 23.9207Q13.261 23.9207 14.5371 23.5256Q15.8133 23.1305 16.5076 22.4107Q17.202 21.691 17.202 20.7074L17.202 15.332Q18.4294 14.3394 19.1163 12.7547Q19.8032 11.1699 19.8032 9.30115Q19.8032 7.20001 19.1576 5.49057Q18.5121 3.78113 17.3158 2.55417Q16.1195 1.32721 14.4555 0.663605Q12.7914 0 10.7587 0Q8.7355 0 7.08473 0.647583Q5.43396 1.29517 4.24255 2.49771Q3.05115 3.70026 2.41188 5.37415Q1.77261 7.04803 1.77261 9.09058Q1.77261 9.37805 1.77887 9.61319Q1.78513 9.84833 1.81168 10.0676L0.440216 12.5343Q0 13.3284 0 14.0823Q0 14.8227 0.47287 15.3754Q0.94574 15.928 1.79382 16.0152L1.79382 18.1941Q1.79382 19.2996 2.44301 19.8555Q3.09219 20.4114 4.19022 20.2957L6.16135 20.0809L5.82657 19.6718L5.82657 20.7074Q5.82657 21.684 6.52168 22.4037Q7.2168 23.1235 8.49106 23.5221Q9.76532 23.9207 11.5089 23.9207ZM11.5089 23.1921Q10.009 23.1921 8.89809 22.864Q7.78717 22.5359 7.17644 21.9468Q6.5657 21.3577 6.5657 20.5777L6.5657 19.5132Q6.5657 19.3988 6.493 19.3443Q6.42029 19.2899 6.31561 19.2996L4.09775 19.5558Q3.35556 19.6355 2.93892 19.2523Q2.52228 18.8692 2.52228 18.0769L2.52228 15.4886Q2.52228 15.4034 2.47559 15.363Q2.42889 15.3226 2.34802 15.3226L2.21024 15.3226Q1.54221 15.3226 1.15219 14.9835Q0.762177 14.6445 0.762177 14.0601Q0.762177 13.4886 1.08322 12.9077L2.56805 10.2211Q2.52625 9.91989 2.51236 9.63066Q2.49847 9.34143 2.49847 9.07104Q2.49847 6.56082 3.53027 4.68628Q4.56207 2.81174 6.41991 1.7701Q8.27774 0.728455 10.7587 0.728455Q13.2562 0.728455 15.1273 1.79939Q16.9984 2.87033 18.0366 4.79645Q19.0747 6.72256 19.0747 9.30115Q19.0747 11.0895 18.3815 12.5955Q17.6883 14.1016 16.4523 14.9655L16.4664 20.5777Q16.4664 21.3577 15.8508 21.9468Q15.2351 22.5359 14.1221 22.864Q13.009 23.1921 11.5089 23.1921ZM4.13513 7.46552Q4.13513 8.81836 4.9865 9.63829Q5.83786 10.4582 7.23679 10.4582Q8.60199 10.4723 9.45412 9.73671Q10.3062 9.00116 10.3062 7.81601Q10.3062 7.33078 10.1186 6.89056Q9.93088 6.45035 9.63409 6.17416Q9.50119 6.06903 9.36951 6.06903Q9.23904 6.06903 9.15726 6.15379Q9.07547 6.23856 9.07547 6.36642Q9.07547 6.46439 9.11316 6.52397Q9.15085 6.58356 9.21997 6.64291Q9.69421 7.12143 9.69421 7.81052Q9.69421 8.73199 9.01978 9.29115Q8.34534 9.85031 7.23953 9.85031Q6.09299 9.85031 5.411 9.19762Q4.729 8.54492 4.729 7.4585Q4.729 6.83044 5.03952 6.22772Q5.35004 5.625 5.8551 5.26443L5.6778 4.67255Q4.99725 5.07416 4.56619 5.84854Q4.13513 6.62292 4.13513 7.46552ZM5.37033 4.72183Q5.37033 5.58075 5.94574 6.11771Q6.52115 6.65466 7.43332 6.65466Q7.54425 6.65466 7.6442 6.56654Q7.74414 6.47842 7.74414 6.35773Q7.74414 6.23703 7.64557 6.14189Q7.547 6.04675 7.43332 6.04675Q6.77353 6.04675 6.37589 5.68413Q5.97824 5.3215 5.97824 4.72183Q5.97824 4.06479 6.4415 3.63983Q6.90475 3.21487 7.62314 3.21487Q8.2692 3.21487 8.82187 3.56598L9.1716 3.05939Q8.46756 2.60696 7.62589 2.60696Q6.66061 2.60696 6.01547 3.20892Q5.37033 3.81088 5.37033 4.72183ZM8.13751 4.53583Q8.14453 4.66476 8.22853 4.7599Q8.31253 4.85504 8.45551 4.85504Q8.57895 4.85504 8.66783 4.76753Q8.75671 4.68002 8.75671 4.56085Q8.79578 3.7085 9.35257 3.16849Q9.90936 2.62848 10.7687 2.61871Q11.2675 2.61871 11.6348 2.8611Q12.002 3.10349 12.1527 3.54095Q12.2153 3.73779 12.4641 3.6499Q12.7962 3.50967 13.1993 3.50967Q14.0164 3.51669 14.5358 4.06067Q15.0551 4.60464 15.0551 5.47928Q15.0551 6.24023 14.676 6.71638Q14.2969 7.19254 13.7391 7.53258Q13.1813 7.87262 12.6199 8.21053Q12.0586 8.54843 11.6782 9.01733Q11.2978 9.48624 11.2978 10.2469Q11.2978 11.032 11.8948 11.5115Q12.4918 11.991 13.4645 11.991Q13.5231 11.991 13.5999 11.991Q13.6766 11.991 13.7758 11.991Q13.8606 12.8343 14.2754 13.3369Q14.6902 13.8394 15.2957 13.8394Q16.1298 13.8394 16.6147 12.8874Q17.0996 11.9354 17.0996 10.3011Q17.0996 9.96094 17.0808 9.64821Q17.0621 9.33548 17.0328 9.03595L16.4195 9.25156Q16.4516 9.57657 16.4717 9.82086Q16.4919 10.0652 16.4919 10.3098Q16.4919 11.6582 16.17 12.4448Q15.8481 13.2315 15.2957 13.2315Q14.8625 13.2315 14.5998 12.7825Q14.3372 12.3335 14.3372 11.5918Q14.3372 11.3937 14.1266 11.3937Q14.0375 11.3937 13.8332 11.4021Q13.629 11.4105 13.5551 11.4105Q12.795 11.4105 12.3516 11.0947Q11.9083 10.7788 11.9083 10.2441Q11.9083 9.5874 12.2874 9.19403Q12.6665 8.80066 13.2243 8.49754Q13.782 8.19443 14.3447 7.84271Q14.9074 7.491 15.2865 6.94061Q15.6656 6.39023 15.6656 5.47928Q15.6656 4.72458 15.3533 4.14238Q15.041 3.56018 14.4917 3.22968Q13.9423 2.89917 13.2196 2.89917Q13.0852 2.89917 12.915 2.91946Q12.7449 2.93976 12.5629 2.98752Q12.2899 2.53906 11.8211 2.27989Q11.3524 2.02072 10.7687 2.02072Q9.66522 2.02072 8.9328 2.72163Q8.20038 3.42255 8.13751 4.53583ZM14.7218 9.66171Q14.7218 9.78241 14.8023 9.87267Q14.8828 9.96292 15.0133 9.96826Q16.2738 9.98322 17.0603 9.28024Q17.8468 8.57727 17.8468 7.41592Q17.8468 6.31363 17.108 5.5925Q16.3692 4.87137 15.1958 4.82727L15.159 5.44495Q16.102 5.44098 16.6705 5.98648Q17.2391 6.53198 17.2391 7.41592Q17.2391 8.30536 16.6295 8.83896Q16.0199 9.37256 15.0188 9.3605Q14.8981 9.35501 14.81 9.45152Q14.7218 9.54803 14.7218 9.66171ZM11.711 10.6261Q11.5074 10.7069 11.1904 10.7487Q10.8734 10.7906 10.6 10.7906Q9.89532 10.7906 9.30298 10.5318Q8.71063 10.273 8.45047 9.83047L7.92419 10.2452Q8.36533 10.7933 9.05334 11.0923Q9.74136 11.3913 10.5852 11.3913Q10.8664 11.3913 11.2192 11.3503Q11.572 11.3094 11.8672 11.2343ZM9.7583 7.10342L9.97772 7.67227Q10.9387 7.50626 11.4352 6.92459Q11.9318 6.34293 11.9246 5.37766Q11.9246 5.2597 11.8317 5.1667Q11.7387 5.0737 11.618 5.0737Q11.4903 5.0737 11.4071 5.16884Q11.3239 5.26398 11.3239 5.38742Q11.3239 6.1586 10.9454 6.57578Q10.5669 6.99295 9.7583 7.10342Z" fill="rgba(0,0,0,0.85)"/>
 </g>
</svg>
