<?xml version="1.0" encoding="UTF-8"?>
<!--Generator: Apple Native CoreSVG 175.5-->
<!DOCTYPE svg
PUBLIC "-//W3C//DTD SVG 1.1//EN"
       "http://www.w3.org/Graphics/SVG/1.1/DTD/svg11.dtd">
<svg version="1.1" xmlns="http://www.w3.org/2000/svg" xmlns:xlink="http://www.w3.org/1999/xlink" width="22.8418" height="22.5098">
 <g>
  <rect height="22.5098" opacity="0" width="22.8418" x="0" y="0"/>
  <path d="M0.898438 20.3418Q1.30859 20.3418 1.55273 20.0879Q1.79688 19.834 1.79688 19.4043L1.79688 12.9395L4.89258 12.9395Q4.93164 12.9395 4.99023 12.9395Q5.04883 12.9395 5.08789 12.9395L8.88672 19.7559Q9.07227 20.0781 9.27246 20.2148Q9.47266 20.3516 9.78516 20.3516Q10.1855 20.3516 10.4395 20.1123Q10.6934 19.873 10.6934 19.5117Q10.6934 19.3555 10.6494 19.2041Q10.6055 19.0527 10.5078 18.8672L6.95312 12.6562Q8.67188 12.1777 9.63867 10.8691Q10.6055 9.56055 10.6055 7.72461Q10.6055 6.17188 9.92188 5.0293Q9.23828 3.88672 7.99316 3.26172Q6.74805 2.63672 5.06836 2.63672L0.927734 2.63672Q0.498047 2.63672 0.249023 2.89551Q0 3.1543 0 3.60352L0 19.4043Q0 19.834 0.244141 20.0879Q0.488281 20.3418 0.898438 20.3418ZM1.79688 11.3379L1.79688 4.24805L4.83398 4.24805Q6.66016 4.24805 7.7002 5.17578Q8.74023 6.10352 8.74023 7.7832Q8.74023 9.48242 7.73438 10.4102Q6.72852 11.3379 4.91211 11.3379ZM17.4219 19.707Q18.877 19.707 20.1123 19.1748Q21.3477 18.6426 22.0947 17.6123Q22.8418 16.582 22.8418 15.0879Q22.8418 13.3691 21.7725 12.2998Q20.7031 11.2305 18.3984 10.6348L16.7676 10.2051Q15.3516 9.85352 14.6777 9.20898Q14.0039 8.56445 14.0039 7.57812Q14.0039 6.875 14.4043 6.27441Q14.8047 5.67383 15.5713 5.30762Q16.3379 4.94141 17.4121 4.94141Q18.291 4.94141 18.9746 5.22461Q19.6582 5.50781 20.1318 6.06934Q20.6055 6.63086 20.8398 7.44141Q20.9863 7.85156 21.2012 8.03223Q21.416 8.21289 21.748 8.21289Q22.1387 8.21289 22.3682 7.96387Q22.5977 7.71484 22.5977 7.27539Q22.5977 7.03125 22.5391 6.79688Q22.2754 5.72266 21.543 4.91211Q20.8105 4.10156 19.7461 3.65723Q18.6816 3.21289 17.4121 3.21289Q15.8984 3.21289 14.7266 3.7793Q13.5547 4.3457 12.8857 5.35645Q12.2168 6.36719 12.2168 7.68555Q12.2168 9.33594 13.2617 10.3955Q14.3066 11.4551 16.4941 12.0117L18.125 12.4316Q19.7168 12.8418 20.3906 13.4814Q21.0645 14.1211 21.0645 15.2148Q21.0645 16.084 20.6348 16.7041Q20.2051 17.3242 19.3945 17.6514Q18.584 17.9785 17.4414 17.9785Q16.4062 17.9785 15.6348 17.6807Q14.8633 17.3828 14.3652 16.8018Q13.8672 16.2207 13.6621 15.3809Q13.5352 14.9902 13.3105 14.7949Q13.0859 14.5996 12.7441 14.5996Q12.3633 14.5996 12.1338 14.8584Q11.9043 15.1172 11.9043 15.5469Q11.9043 15.7715 11.9727 16.0156Q12.2461 17.1875 13.042 18.0127Q13.8379 18.8379 14.9805 19.2725Q16.123 19.707 17.4219 19.707ZM17.373 22.5098Q17.6855 22.5098 17.9004 22.2949Q18.1152 22.0801 18.1152 21.7773L18.1152 1.21094Q18.1152 0.898438 17.9004 0.683594Q17.6855 0.46875 17.373 0.46875Q17.0703 0.46875 16.8555 0.683594Q16.6406 0.898438 16.6406 1.21094L16.6406 21.7773Q16.6406 22.0801 16.8555 22.2949Q17.0703 22.5098 17.373 22.5098Z" fill="#ffffff"/>
 </g>
</svg>
