<?xml version="1.0" encoding="UTF-8"?>
<!--Generator: Apple Native CoreSVG 175.5-->
<!DOCTYPE svg
PUBLIC "-//W3C//DTD SVG 1.1//EN"
       "http://www.w3.org/Graphics/SVG/1.1/DTD/svg11.dtd">
<svg version="1.1" xmlns="http://www.w3.org/2000/svg" xmlns:xlink="http://www.w3.org/1999/xlink" width="21.748" height="20.8496">
 <g>
  <rect height="20.8496" opacity="0" width="21.748" x="0" y="0"/>
  <path d="M3.01758 18.9258L18.7305 18.9258Q20.2441 18.9258 20.9961 18.1836Q21.748 17.4414 21.748 15.9473L21.748 6.44531Q21.748 4.94141 20.9961 4.2041Q20.2441 3.4668 18.7305 3.4668L3.01758 3.4668Q1.51367 3.4668 0.756836 4.2041Q0 4.94141 0 6.44531L0 15.9473Q0 17.4414 0.756836 18.1836Q1.51367 18.9258 3.01758 18.9258ZM3.03711 17.3633Q2.32422 17.3633 1.94824 16.9922Q1.57227 16.6211 1.57227 15.8691L1.57227 6.52344Q1.57227 5.77148 1.94824 5.40039Q2.32422 5.0293 3.03711 5.0293L18.7109 5.0293Q19.4336 5.0293 19.8047 5.40039Q20.1758 5.77148 20.1758 6.52344L20.1758 15.8691Q20.1758 16.6211 19.8047 16.9922Q19.4336 17.3633 18.7109 17.3633ZM0.810547 9.14062Q3.07617 9.92188 5.62012 10.3125Q8.16406 10.7031 10.8789 10.7031Q13.5938 10.7031 16.1328 10.3125Q18.6719 9.92188 20.9375 9.14062L20.9375 7.4707Q18.7207 8.33008 16.1816 8.75977Q13.6426 9.18945 10.8789 9.18945Q8.10547 9.18945 5.56641 8.75977Q3.02734 8.33008 0.810547 7.4707ZM9.35547 12.4609L12.3926 12.4609Q13.4766 12.4609 13.4766 11.3965L13.4766 9.90234L8.28125 9.90234L8.28125 11.3965Q8.28125 12.4609 9.35547 12.4609ZM5.92773 4.31641L7.44141 4.31641L7.44141 2.58789Q7.44141 2.03125 7.75391 1.72852Q8.06641 1.42578 8.63281 1.42578L13.1152 1.42578Q13.6914 1.42578 14.0039 1.72852Q14.3164 2.03125 14.3164 2.58789L14.3164 4.29688L15.8301 4.29688L15.8301 2.69531Q15.8301 1.31836 15.1221 0.65918Q14.4141 0 13.0957 0L8.65234 0Q7.40234 0 6.66504 0.65918Q5.92773 1.31836 5.92773 2.69531Z" fill="#ffffff"/>
 </g>
</svg>
