<?xml version="1.0" encoding="UTF-8"?>
<!--Generator: Apple Native CoreSVG 175-->
<!DOCTYPE svg
PUBLIC "-//W3C//DTD SVG 1.1//EN"
       "http://www.w3.org/Graphics/SVG/1.1/DTD/svg11.dtd">
<svg version="1.1" xmlns="http://www.w3.org/2000/svg" xmlns:xlink="http://www.w3.org/1999/xlink" width="20.7712" height="20.3162">
 <g>
  <rect height="20.3162" opacity="0" width="20.7712" x="0" y="0"/>
  <path d="M15.6934 20.3162Q15.927 20.3162 16.0717 20.155Q16.2164 19.9939 16.2164 19.7157L16.2164 16.9586L17.0508 16.9586Q18.2036 16.9586 19.0379 16.5065Q19.8723 16.0544 20.3217 15.2235Q20.7712 14.3927 20.7712 13.2454L20.7712 4.90005Q20.7712 3.74573 20.3217 2.91489Q19.8723 2.08405 19.0379 1.63193Q18.2036 1.17981 17.0508 1.17981L3.7204 1.17981Q2.5676 1.17981 1.73325 1.63544Q0.898895 2.09106 0.449448 2.92542Q0 3.75977 0 4.90005L0 13.2454Q0 14.3785 0.449448 15.2129Q0.898895 16.0474 1.73325 16.503Q2.5676 16.9586 3.7204 16.9586L11.5437 16.9586L15.0534 19.9849Q15.2284 20.1294 15.3751 20.2228Q15.5219 20.3162 15.6934 20.3162ZM15.5321 19.5064L12.189 16.5274Q12 16.3496 11.848 16.2934Q11.696 16.2372 11.4616 16.2372L3.73444 16.2372Q2.36526 16.2372 1.54694 15.426Q0.728607 14.6149 0.728607 13.2216L0.728607 4.91409Q0.728607 3.52356 1.54694 2.71591Q2.36526 1.90826 3.73444 1.90826L17.0297 1.90826Q18.4367 1.90826 19.2397 2.71591Q20.0426 3.52356 20.0426 4.91409L20.0426 13.2216Q20.0426 14.6149 19.2397 15.426Q18.4367 16.2372 17.0297 16.2372L15.8847 16.2372Q15.6953 16.2372 15.6137 16.3188Q15.5321 16.4005 15.5321 16.5829Z" fill="rgba(0,0,0,0.85)"/>
 </g>
</svg>
