<?xml version="1.0" encoding="UTF-8"?>
<!--Generator: Apple Native CoreSVG 175.5-->
<!DOCTYPE svg
PUBLIC "-//W3C//DTD SVG 1.1//EN"
       "http://www.w3.org/Graphics/SVG/1.1/DTD/svg11.dtd">
<svg version="1.1" xmlns="http://www.w3.org/2000/svg" xmlns:xlink="http://www.w3.org/1999/xlink" width="20.6152" height="19.9316">
 <g>
  <rect height="19.9316" opacity="0" width="20.6152" x="0" y="0"/>
  <path d="M11.6797 13.1055Q12.6758 13.1055 13.4912 12.6221Q14.3066 12.1387 14.7949 11.3232Q15.2832 10.5078 15.2832 9.50195Q15.2832 8.50586 14.7949 7.69043Q14.3066 6.875 13.4912 6.38672Q12.6758 5.89844 11.6797 5.89844Q10.6836 5.89844 9.86816 6.38672Q9.05273 6.875 8.56445 7.69043Q8.07617 8.50586 8.07617 9.50195Q8.07617 10.5078 8.56445 11.3232Q9.05273 12.1387 9.86816 12.6221Q10.6836 13.1055 11.6797 13.1055ZM2.58789 10.7715Q3.29102 10.7715 3.87695 10.4199Q4.46289 10.0684 4.81445 9.48242Q5.16602 8.89648 5.16602 8.18359Q5.16602 7.48047 4.81445 6.89453Q4.46289 6.30859 3.87695 5.96191Q3.29102 5.61523 2.58789 5.61523Q1.875 5.61523 1.28906 5.96191Q0.703125 6.30859 0.351562 6.89453Q0 7.48047 0 8.18359Q0 8.89648 0.351562 9.4873Q0.703125 10.0781 1.28906 10.4248Q1.875 10.7715 2.58789 10.7715ZM6.39648 19.6094Q7.1582 19.6094 7.7832 19.2334Q8.4082 18.8574 8.78418 18.2227Q9.16016 17.5879 9.16016 16.8262Q9.16016 16.0645 8.78418 15.4395Q8.4082 14.8145 7.7832 14.4385Q7.1582 14.0625 6.39648 14.0625Q5.63477 14.0625 5 14.4385Q4.36523 14.8145 3.98926 15.4395Q3.61328 16.0645 3.61328 16.8262Q3.61328 17.5879 3.98926 18.2227Q4.36523 18.8574 5 19.2334Q5.63477 19.6094 6.39648 19.6094ZM17.0215 19.9219Q17.1777 19.9219 17.2949 19.8193Q17.4121 19.7168 17.4316 19.5508Q17.5488 18.6719 17.6611 18.1836Q17.7734 17.6953 18.0225 17.4512Q18.2715 17.207 18.7891 17.0654Q19.3066 16.9238 20.2441 16.748Q20.4102 16.7188 20.5127 16.6064Q20.6152 16.4941 20.6152 16.3379Q20.6152 16.1719 20.5078 16.0645Q20.4004 15.957 20.2344 15.9277Q19.3164 15.8008 18.7988 15.6787Q18.2812 15.5566 18.0273 15.3027Q17.7734 15.0488 17.6611 14.541Q17.5488 14.0332 17.4316 13.1348Q17.4121 12.9688 17.2998 12.8613Q17.1875 12.7539 17.0215 12.7539Q16.8457 12.7539 16.7334 12.8662Q16.6211 12.9785 16.6113 13.1445Q16.5039 14.0234 16.3916 14.5117Q16.2793 15 16.0205 15.2441Q15.7617 15.4883 15.2393 15.6201Q14.7168 15.752 13.7891 15.9277Q13.623 15.957 13.5254 16.0742Q13.4277 16.1914 13.4277 16.3379Q13.4277 16.5039 13.5352 16.6113Q13.6426 16.7188 13.8281 16.748Q14.7461 16.8945 15.2588 17.0264Q15.7715 17.1582 16.0254 17.4121Q16.2793 17.666 16.3916 18.1592Q16.5039 18.6523 16.6113 19.5312Q16.6211 19.707 16.7334 19.8145Q16.8457 19.9219 17.0215 19.9219ZM6.41602 5.36133Q6.54297 5.36133 6.63086 5.2832Q6.71875 5.20508 6.74805 5.07812Q6.875 4.41406 6.96777 4.04785Q7.06055 3.68164 7.23633 3.50586Q7.41211 3.33008 7.77832 3.2373Q8.14453 3.14453 8.80859 3.00781Q8.94531 2.98828 9.02344 2.89551Q9.10156 2.80273 9.10156 2.67578Q9.10156 2.55859 9.02344 2.46582Q8.94531 2.37305 8.80859 2.35352Q8.14453 2.2168 7.77832 2.12402Q7.41211 2.03125 7.23633 1.85059Q7.06055 1.66992 6.96777 1.30859Q6.875 0.947266 6.74805 0.283203Q6.71875 0.15625 6.63086 0.078125Q6.54297 0 6.41602 0Q6.28906 0 6.20117 0.078125Q6.11328 0.15625 6.08398 0.283203Q5.9668 0.947266 5.86914 1.30859Q5.77148 1.66992 5.5957 1.85059Q5.41992 2.03125 5.05371 2.12402Q4.6875 2.2168 4.02344 2.35352Q3.88672 2.37305 3.80859 2.46582Q3.73047 2.55859 3.73047 2.67578Q3.73047 2.80273 3.80859 2.89551Q3.88672 2.98828 4.02344 3.00781Q4.6875 3.14453 5.05371 3.2373Q5.41992 3.33008 5.5957 3.50586Q5.77148 3.68164 5.86914 4.04785Q5.9668 4.41406 6.08398 5.07812Q6.11328 5.20508 6.20117 5.2832Q6.28906 5.36133 6.41602 5.36133ZM20.2246 5.70312Q20.2246 4.43359 19.5996 3.38379Q18.9746 2.33398 17.9248 1.70898Q16.875 1.08398 15.5957 1.08398Q14.4824 1.08398 13.5303 1.57227Q12.5781 2.06055 11.9336 2.90527Q11.2891 3.75 11.084 4.80469Q11.3379 4.76562 11.6797 4.76562Q12.666 4.76562 13.5205 5.13184Q14.375 5.49805 15.0293 6.15234Q15.6836 6.80664 16.0498 7.66602Q16.416 8.52539 16.416 9.50195Q16.416 9.69727 16.4014 9.88281Q16.3867 10.0684 16.3574 10.2441Q17.4512 10.0684 18.3301 9.42871Q19.209 8.78906 19.7168 7.82227Q20.2246 6.85547 20.2246 5.70312Z" fill="#ffffff"/>
 </g>
</svg>
