<?xml version="1.0" encoding="UTF-8"?>
<!--Generator: Apple Native CoreSVG 175-->
<!DOCTYPE svg
PUBLIC "-//W3C//DTD SVG 1.1//EN"
       "http://www.w3.org/Graphics/SVG/1.1/DTD/svg11.dtd">
<svg version="1.1" xmlns="http://www.w3.org/2000/svg" xmlns:xlink="http://www.w3.org/1999/xlink" width="19.1797" height="24.3707">
 <g>
  <rect height="24.3707" opacity="0" width="19.1797" x="0" y="0"/>
  <path d="M1.1351 21.8539Q1.1351 22.363 1.48514 22.7178Q1.83517 23.0727 2.34695 23.0727L3.43597 23.0727Q3.95477 23.0727 4.30611 22.7227Q4.65744 22.3727 4.65744 21.8539L4.65744 20.3313Q5.89188 20.4219 7.12372 20.4686Q8.35556 20.5153 9.57932 20.5153Q10.8058 20.5153 12.035 20.47Q13.2642 20.4247 14.5012 20.3313L14.5012 21.8539Q14.5012 22.3727 14.8512 22.7227Q15.2013 23.0727 15.7129 23.0727L16.8021 23.0727Q17.3207 23.0727 17.6721 22.7178Q18.0235 22.363 18.0235 21.8539L18.0235 2.18796Q18.0235 1.32782 17.5462 0.892639Q17.0688 0.457458 16.2274 0.361328Q14.6915 0.178528 12.9826 0.0892639Q11.2738 0 9.57932 0Q7.88055 0 6.1731 0.0892639Q4.46564 0.178528 2.92847 0.361328Q2.0871 0.457458 1.6111 0.892639Q1.1351 1.32782 1.1351 2.18796ZM2.70432 7.7066L2.70432 2.82425Q2.70432 1.94809 3.54462 1.85898Q5.21561 1.69296 6.68846 1.60858Q8.16132 1.5242 9.57932 1.5242Q10.9946 1.5242 12.4688 1.60858Q13.943 1.69296 15.6142 1.85898Q16.4543 1.94809 16.4543 2.82425L16.4543 7.7066ZM2.70432 8.59802L16.4543 8.59802L16.4543 13.4653Q16.4543 14.3414 15.6142 14.4208Q14.1351 14.5798 12.6182 14.6571Q11.1012 14.7343 9.57932 14.7343Q8.0574 14.7343 6.53831 14.6549Q5.01923 14.5755 3.54462 14.4208Q2.70432 14.3414 2.70432 13.4653ZM4.29581 18.1184Q3.88199 18.1184 3.60489 17.8469Q3.32779 17.5754 3.32779 17.1645Q3.32779 16.7508 3.60489 16.4737Q3.88199 16.1966 4.29581 16.1966Q4.70947 16.1966 4.97955 16.4737Q5.24963 16.7508 5.24963 17.1645Q5.24963 17.5754 4.97955 17.8469Q4.70947 18.1184 4.29581 18.1184ZM7.52853 17.8485Q7.22626 17.8485 7.03407 17.6563Q6.84189 17.4641 6.84189 17.1617Q6.84189 16.8567 7.0327 16.6659Q7.22351 16.4751 7.52853 16.4751L11.6273 16.4751Q11.9324 16.4751 12.1246 16.6659Q12.3167 16.8567 12.3167 17.1617Q12.3167 17.4641 12.1246 17.6563Q11.9324 17.8485 11.6273 17.8485ZM14.884 18.1184Q14.4704 18.1184 14.2002 17.8469Q13.9301 17.5754 13.9301 17.1645Q13.9301 16.7508 14.2002 16.4737Q14.4704 16.1966 14.884 16.1966Q15.295 16.1966 15.5699 16.4737Q15.8449 16.7508 15.8449 17.1645Q15.8449 17.5754 15.5699 17.8469Q15.295 18.1184 14.884 18.1184ZM1.46759 10.6387L1.46759 5.76843L0.667572 5.76843Q0.334778 5.76843 0.167389 5.93597Q0 6.10352 0 6.3887L0 10.014Q0 10.3035 0.167389 10.4711Q0.334778 10.6387 0.667572 10.6387ZM17.7121 10.6387L18.5121 10.6387Q18.8379 10.6387 19.0088 10.4711Q19.1797 10.3035 19.1797 10.014L19.1797 6.3887Q19.1797 6.10352 19.0088 5.93597Q18.8379 5.76843 18.5121 5.76843L17.7121 5.76843Z" fill="rgba(0,0,0,0.85)"/>
 </g>
</svg>
