<?xml version="1.0" encoding="UTF-8"?>
<!--Generator: Apple Native CoreSVG 175.5-->
<!DOCTYPE svg
PUBLIC "-//W3C//DTD SVG 1.1//EN"
       "http://www.w3.org/Graphics/SVG/1.1/DTD/svg11.dtd">
<svg version="1.1" xmlns="http://www.w3.org/2000/svg" xmlns:xlink="http://www.w3.org/1999/xlink" width="19.9219" height="19.9316">
 <g>
  <rect height="19.9316" opacity="0" width="19.9219" x="0" y="0"/>
  <path d="M9.96094 19.9219Q12.002 19.9219 13.8037 19.1406Q15.6055 18.3594 16.9824 16.9824Q18.3594 15.6055 19.1406 13.8037Q19.9219 12.002 19.9219 9.96094Q19.9219 7.91992 19.1406 6.11816Q18.3594 4.31641 16.9824 2.93945Q15.6055 1.5625 13.7988 0.78125Q11.9922 0 9.95117 0Q7.91016 0 6.1084 0.78125Q4.30664 1.5625 2.93457 2.93945Q1.5625 4.31641 0.78125 6.11816Q0 7.91992 0 9.96094Q0 12.002 0.78125 13.8037Q1.5625 15.6055 2.93945 16.9824Q4.31641 18.3594 6.11816 19.1406Q7.91992 19.9219 9.96094 19.9219ZM9.96094 18.2617Q8.23242 18.2617 6.72852 17.6172Q5.22461 16.9727 4.08691 15.835Q2.94922 14.6973 2.30957 13.1934Q1.66992 11.6895 1.66992 9.96094Q1.66992 8.23242 2.30957 6.72852Q2.94922 5.22461 4.08203 4.08203Q5.21484 2.93945 6.71875 2.2998Q8.22266 1.66016 9.95117 1.66016Q11.6797 1.66016 13.1885 2.2998Q14.6973 2.93945 15.835 4.08203Q16.9727 5.22461 17.6172 6.72852Q18.2617 8.23242 18.2617 9.96094Q18.2617 11.6895 17.6221 13.1934Q16.9824 14.6973 15.8398 15.835Q14.6973 16.9727 13.1934 17.6172Q11.6895 18.2617 9.96094 18.2617Z" fill="#ffffff"/>
  <path d="M6.37695 14.7754L13.5254 14.7754Q14.3457 14.7754 14.7559 14.3701Q15.166 13.9648 15.166 13.1543L15.166 6.75781Q15.166 5.94727 14.7559 5.54199Q14.3457 5.13672 13.5254 5.13672L6.37695 5.13672Q5.55664 5.13672 5.14648 5.54199Q4.73633 5.94727 4.73633 6.75781L4.73633 13.1543Q4.73633 13.9648 5.14648 14.3701Q5.55664 14.7754 6.37695 14.7754ZM6.30859 13.8867Q5.97656 13.8867 5.80566 13.7158Q5.63477 13.5449 5.63477 13.2031L5.63477 8.26172Q5.63477 7.5293 6.35742 7.5293L13.5352 7.5293Q14.2676 7.5293 14.2676 8.26172L14.2676 13.2031Q14.2676 13.5449 14.0967 13.7158Q13.9258 13.8867 13.584 13.8867ZM8.89648 9.49219L9.25781 9.49219Q9.42383 9.49219 9.49219 9.43359Q9.56055 9.375 9.56055 9.20898L9.56055 8.83789Q9.56055 8.67188 9.49219 8.6084Q9.42383 8.54492 9.25781 8.54492L8.89648 8.54492Q8.73047 8.54492 8.66699 8.6084Q8.60352 8.67188 8.60352 8.83789L8.60352 9.20898Q8.60352 9.375 8.66699 9.43359Q8.73047 9.49219 8.89648 9.49219ZM10.6445 9.49219L11.0059 9.49219Q11.1719 9.49219 11.2354 9.43359Q11.2988 9.375 11.2988 9.20898L11.2988 8.83789Q11.2988 8.67188 11.2354 8.6084Q11.1719 8.54492 11.0059 8.54492L10.6445 8.54492Q10.4785 8.54492 10.4102 8.6084Q10.3418 8.67188 10.3418 8.83789L10.3418 9.20898Q10.3418 9.375 10.4102 9.43359Q10.4785 9.49219 10.6445 9.49219ZM12.3828 9.49219L12.7344 9.49219Q13.0371 9.49219 13.0371 9.20898L13.0371 8.83789Q13.0371 8.54492 12.7344 8.54492L12.3828 8.54492Q12.0801 8.54492 12.0801 8.83789L12.0801 9.20898Q12.0801 9.375 12.1436 9.43359Q12.207 9.49219 12.3828 9.49219ZM7.16797 11.2012L7.51953 11.2012Q7.69531 11.2012 7.75879 11.1426Q7.82227 11.084 7.82227 10.918L7.82227 10.5469Q7.82227 10.2539 7.51953 10.2539L7.16797 10.2539Q6.86523 10.2539 6.86523 10.5469L6.86523 10.918Q6.86523 11.2012 7.16797 11.2012ZM8.89648 11.2012L9.25781 11.2012Q9.42383 11.2012 9.49219 11.1426Q9.56055 11.084 9.56055 10.918L9.56055 10.5469Q9.56055 10.3809 9.49219 10.3174Q9.42383 10.2539 9.25781 10.2539L8.89648 10.2539Q8.73047 10.2539 8.66699 10.3174Q8.60352 10.3809 8.60352 10.5469L8.60352 10.918Q8.60352 11.084 8.66699 11.1426Q8.73047 11.2012 8.89648 11.2012ZM10.6445 11.2012L11.0059 11.2012Q11.1719 11.2012 11.2354 11.1426Q11.2988 11.084 11.2988 10.918L11.2988 10.5469Q11.2988 10.3809 11.2354 10.3174Q11.1719 10.2539 11.0059 10.2539L10.6445 10.2539Q10.4785 10.2539 10.4102 10.3174Q10.3418 10.3809 10.3418 10.5469L10.3418 10.918Q10.3418 11.084 10.4102 11.1426Q10.4785 11.2012 10.6445 11.2012ZM12.3828 11.2012L12.7344 11.2012Q13.0371 11.2012 13.0371 10.918L13.0371 10.5469Q13.0371 10.2539 12.7344 10.2539L12.3828 10.2539Q12.0801 10.2539 12.0801 10.5469L12.0801 10.918Q12.0801 11.084 12.1436 11.1426Q12.207 11.2012 12.3828 11.2012ZM7.16797 12.9199L7.51953 12.9199Q7.82227 12.9199 7.82227 12.6172L7.82227 12.2559Q7.82227 12.0898 7.75879 12.0312Q7.69531 11.9727 7.51953 11.9727L7.16797 11.9727Q6.86523 11.9727 6.86523 12.2559L6.86523 12.6172Q6.86523 12.9199 7.16797 12.9199ZM8.89648 12.9199L9.25781 12.9199Q9.42383 12.9199 9.49219 12.8564Q9.56055 12.793 9.56055 12.6172L9.56055 12.2559Q9.56055 12.0898 9.49219 12.0312Q9.42383 11.9727 9.25781 11.9727L8.89648 11.9727Q8.73047 11.9727 8.66699 12.0312Q8.60352 12.0898 8.60352 12.2559L8.60352 12.6172Q8.60352 12.793 8.66699 12.8564Q8.73047 12.9199 8.89648 12.9199ZM10.6445 12.9199L11.0059 12.9199Q11.1719 12.9199 11.2354 12.8564Q11.2988 12.793 11.2988 12.6172L11.2988 12.2559Q11.2988 12.0898 11.2354 12.0312Q11.1719 11.9727 11.0059 11.9727L10.6445 11.9727Q10.4785 11.9727 10.4102 12.0312Q10.3418 12.0898 10.3418 12.2559L10.3418 12.6172Q10.3418 12.793 10.4102 12.8564Q10.4785 12.9199 10.6445 12.9199Z" fill="#ffffff"/>
 </g>
</svg>
