<?xml version="1.0" encoding="UTF-8"?>
<!--Generator: Apple Native CoreSVG 175-->
<!DOCTYPE svg
PUBLIC "-//W3C//DTD SVG 1.1//EN"
       "http://www.w3.org/Graphics/SVG/1.1/DTD/svg11.dtd">
<svg version="1.1" xmlns="http://www.w3.org/2000/svg" xmlns:xlink="http://www.w3.org/1999/xlink" width="19.1602" height="19.1504">
 <g>
  <rect height="19.1504" opacity="0" width="19.1602" x="0" y="0"/>
  <path d="M9.57031 19.1504Q11.5527 19.1504 13.2861 18.4082Q15.0195 17.666 16.3379 16.3428Q17.6562 15.0195 18.4082 13.2861Q19.1602 11.5527 19.1602 9.58008Q19.1602 7.60742 18.4082 5.87402Q17.6562 4.14062 16.3379 2.81738Q15.0195 1.49414 13.2861 0.751953Q11.5527 0.00976562 9.57031 0.00976562Q7.59766 0.00976562 5.86426 0.751953Q4.13086 1.49414 2.81738 2.81738Q1.50391 4.14062 0.751953 5.87402Q0 7.60742 0 9.58008Q0 11.5527 0.74707 13.2861Q1.49414 15.0195 2.8125 16.3428Q4.13086 17.666 5.86914 18.4082Q7.60742 19.1504 9.57031 19.1504ZM5.9082 14.1504Q5.23438 14.1504 4.87793 13.7988Q4.52148 13.4473 4.52148 12.7637L4.52148 6.41602Q4.52148 5.73242 4.87793 5.38086Q5.23438 5.0293 5.9082 5.0293L13.2324 5.0293Q13.916 5.0293 14.2676 5.38574Q14.6191 5.74219 14.6191 6.41602L14.6191 12.7637Q14.6191 13.4473 14.2676 13.7988Q13.916 14.1504 13.2324 14.1504ZM5.94727 13.584L13.1934 13.584Q13.6328 13.584 13.833 13.3887Q14.0332 13.1934 14.0332 12.7539L14.0332 8.23242Q14.0332 7.23633 13.0371 7.23633L6.10352 7.23633Q5.10742 7.23633 5.10742 8.23242L5.10742 12.7539Q5.10742 13.1934 5.30762 13.3887Q5.50781 13.584 5.94727 13.584ZM8.49609 9.11133Q8.37891 9.11133 8.34473 9.07227Q8.31055 9.0332 8.31055 8.91602L8.31055 8.55469Q8.31055 8.4375 8.34473 8.4082Q8.37891 8.37891 8.49609 8.37891L8.84766 8.37891Q8.97461 8.37891 9.00879 8.4082Q9.04297 8.4375 9.04297 8.55469L9.04297 8.91602Q9.04297 9.0332 9.00879 9.07227Q8.97461 9.11133 8.84766 9.11133ZM10.293 9.11133Q10.166 9.11133 10.1318 9.07227Q10.0977 9.0332 10.0977 8.91602L10.0977 8.55469Q10.0977 8.4375 10.1318 8.4082Q10.166 8.37891 10.293 8.37891L10.6445 8.37891Q10.7617 8.37891 10.791 8.4082Q10.8203 8.4375 10.8203 8.55469L10.8203 8.91602Q10.8203 9.0332 10.791 9.07227Q10.7617 9.11133 10.6445 9.11133ZM12.0703 9.11133Q11.9531 9.11133 11.9141 9.07227Q11.875 9.0332 11.875 8.91602L11.875 8.55469Q11.875 8.37891 12.0703 8.37891L12.4316 8.37891Q12.6367 8.37891 12.6367 8.55469L12.6367 8.91602Q12.6367 9.11133 12.4316 9.11133ZM6.71875 10.8691Q6.50391 10.8691 6.50391 10.6738L6.50391 10.3223Q6.50391 10.1367 6.71875 10.1367L7.06055 10.1367Q7.26562 10.1367 7.26562 10.3223L7.26562 10.6738Q7.26562 10.8008 7.22656 10.835Q7.1875 10.8691 7.06055 10.8691ZM8.49609 10.8691Q8.37891 10.8691 8.34473 10.835Q8.31055 10.8008 8.31055 10.6738L8.31055 10.3223Q8.31055 10.1953 8.34473 10.166Q8.37891 10.1367 8.49609 10.1367L8.84766 10.1367Q8.97461 10.1367 9.00879 10.166Q9.04297 10.1953 9.04297 10.3223L9.04297 10.6738Q9.04297 10.8008 9.00879 10.835Q8.97461 10.8691 8.84766 10.8691ZM10.293 10.8691Q10.166 10.8691 10.1318 10.835Q10.0977 10.8008 10.0977 10.6738L10.0977 10.3223Q10.0977 10.1953 10.1318 10.166Q10.166 10.1367 10.293 10.1367L10.6445 10.1367Q10.7617 10.1367 10.791 10.166Q10.8203 10.1953 10.8203 10.3223L10.8203 10.6738Q10.8203 10.8008 10.791 10.835Q10.7617 10.8691 10.6445 10.8691ZM12.0703 10.8691Q11.9531 10.8691 11.9141 10.835Q11.875 10.8008 11.875 10.6738L11.875 10.3223Q11.875 10.1367 12.0703 10.1367L12.4316 10.1367Q12.6367 10.1367 12.6367 10.3223L12.6367 10.6738Q12.6367 10.8691 12.4316 10.8691ZM6.71875 12.627Q6.50391 12.627 6.50391 12.4414L6.50391 12.0801Q6.50391 11.8945 6.71875 11.8945L7.06055 11.8945Q7.1875 11.8945 7.22656 11.9238Q7.26562 11.9531 7.26562 12.0801L7.26562 12.4414Q7.26562 12.627 7.06055 12.627ZM8.49609 12.627Q8.37891 12.627 8.34473 12.5928Q8.31055 12.5586 8.31055 12.4414L8.31055 12.0801Q8.31055 11.9531 8.34473 11.9238Q8.37891 11.8945 8.49609 11.8945L8.84766 11.8945Q8.97461 11.8945 9.00879 11.9238Q9.04297 11.9531 9.04297 12.0801L9.04297 12.4414Q9.04297 12.5586 9.00879 12.5928Q8.97461 12.627 8.84766 12.627ZM10.293 12.627Q10.166 12.627 10.1318 12.5928Q10.0977 12.5586 10.0977 12.4414L10.0977 12.0801Q10.0977 11.9531 10.1318 11.9238Q10.166 11.8945 10.293 11.8945L10.6445 11.8945Q10.7617 11.8945 10.791 11.9238Q10.8203 11.9531 10.8203 12.0801L10.8203 12.4414Q10.8203 12.5586 10.791 12.5928Q10.7617 12.627 10.6445 12.627Z" fill="rgba(0,0,0,0.85)"/>
 </g>
</svg>
