<?xml version="1.0" encoding="UTF-8"?>
<!--Generator: Apple Native CoreSVG 175.5-->
<!DOCTYPE svg
PUBLIC "-//W3C//DTD SVG 1.1//EN"
       "http://www.w3.org/Graphics/SVG/1.1/DTD/svg11.dtd">
<svg version="1.1" xmlns="http://www.w3.org/2000/svg" xmlns:xlink="http://www.w3.org/1999/xlink" width="25.3027" height="20.4785">
 <g>
  <rect height="20.4785" opacity="0" width="25.3027" x="0" y="0"/>
  <path d="M0 12.9297Q0 14.4434 0.766602 15.2002Q1.5332 15.957 3.06641 15.957L3.59375 15.957L3.59375 9.16992Q3.59375 7.79297 4.11621 6.81641Q4.63867 5.83984 5.625 5.32715Q6.61133 4.81445 7.99805 4.81445L9.44336 4.81445Q9.55078 4.81445 9.61426 4.80469Q9.67773 4.79492 9.73145 4.75098Q9.78516 4.70703 9.87305 4.61914L10.5664 3.91602Q11.1523 3.31055 11.7969 3.02734Q12.4414 2.74414 13.2715 2.74414L16.9727 2.74414Q17.8125 2.74414 18.4717 3.03223Q19.1309 3.32031 19.707 3.94531L20.1465 4.42383Q20.2051 4.48242 20.2686 4.55078Q20.332 4.61914 20.3711 4.63867L20.3711 3.04688Q20.3711 1.54297 19.6045 0.78125Q18.8379 0.0195312 17.3145 0.0195312L3.06641 0.0195312Q1.5332 0.0195312 0.766602 0.776367Q0 1.5332 0 3.04688Z" fill="#ffffff"/>
  <path d="M7.99805 20.4785L22.2461 20.4785Q23.7793 20.4785 24.541 19.7217Q25.3027 18.9648 25.3027 17.4512L25.3027 9.16992Q25.3027 7.65625 24.541 6.9043Q23.7793 6.15234 22.2461 6.15234L20.791 6.15234Q20.2441 6.15234 19.9854 6.0498Q19.7266 5.94727 19.4141 5.60547L18.7109 4.84375Q18.3301 4.43359 17.9346 4.25781Q17.5391 4.08203 16.9727 4.08203L13.2715 4.08203Q12.6953 4.08203 12.3047 4.25781Q11.9141 4.43359 11.5234 4.84375L10.7812 5.60547Q10.459 5.91797 10.2246 6.03516Q9.99023 6.15234 9.44336 6.15234L7.99805 6.15234Q6.46484 6.15234 5.69824 6.9043Q4.93164 7.65625 4.93164 9.16992L4.93164 17.4512Q4.93164 18.9648 5.69824 19.7217Q6.46484 20.4785 7.99805 20.4785ZM15.127 17.5879Q13.8184 17.5879 12.7441 16.9482Q11.6699 16.3086 11.0352 15.2344Q10.4004 14.1602 10.4004 12.8516Q10.4004 11.5527 11.0352 10.4785Q11.6699 9.4043 12.7441 8.76465Q13.8184 8.125 15.127 8.125Q16.4355 8.125 17.5049 8.76465Q18.5742 9.4043 19.2139 10.4785Q19.8535 11.5527 19.8535 12.8516Q19.8535 14.1602 19.2139 15.2344Q18.5742 16.3086 17.5049 16.9482Q16.4355 17.5879 15.127 17.5879ZM15.127 16.0938Q16.0156 16.0938 16.748 15.6543Q17.4805 15.2148 17.915 14.4824Q18.3496 13.75 18.3496 12.8516Q18.3496 11.9629 17.915 11.2305Q17.4805 10.498 16.748 10.0635Q16.0156 9.62891 15.127 9.62891Q14.2383 9.62891 13.5059 10.0635Q12.7734 10.498 12.334 11.2305Q11.8945 11.9629 11.8945 12.8516Q11.8945 13.75 12.334 14.4824Q12.7734 15.2148 13.5059 15.6543Q14.2383 16.0938 15.127 16.0938ZM21.123 10.6055Q20.6738 10.6055 20.3516 10.2881Q20.0293 9.9707 20.0293 9.51172Q20.0293 9.05273 20.3516 8.73047Q20.6738 8.4082 21.123 8.4082Q21.582 8.4082 21.9043 8.73047Q22.2266 9.05273 22.2266 9.51172Q22.2266 9.9707 21.9043 10.2881Q21.582 10.6055 21.123 10.6055Z" fill="#ffffff"/>
 </g>
</svg>
