<?xml version="1.0" encoding="UTF-8"?>
<!--Generator: Apple Native CoreSVG 175-->
<!DOCTYPE svg
PUBLIC "-//W3C//DTD SVG 1.1//EN"
       "http://www.w3.org/Graphics/SVG/1.1/DTD/svg11.dtd">
<svg version="1.1" xmlns="http://www.w3.org/2000/svg" xmlns:xlink="http://www.w3.org/1999/xlink" width="22.666" height="17.2949">
 <g>
  <rect height="17.2949" opacity="0" width="22.666" x="0" y="0"/>
  <path d="M2.62695 17.2852L10.9082 17.2852L10.9082 16.5625L2.65625 16.5625Q1.70898 16.5625 1.2207 16.0742Q0.732422 15.5859 0.732422 14.6191L0.732422 9.08203L0 9.08203L0 14.6582Q0 15.957 0.668945 16.6211Q1.33789 17.2852 2.62695 17.2852ZM11.7871 17.2852L20.0195 17.2852Q21.3281 17.2852 21.9971 16.6113Q22.666 15.9375 22.666 14.6582L22.666 9.08203L21.9336 9.08203L21.9336 14.6191Q21.9336 15.5859 21.4307 16.0742Q20.9277 16.5625 20 16.5625L11.7871 16.5625ZM21.9336 8.20312L22.666 8.20312L22.666 2.62695Q22.666 1.34766 21.9971 0.673828Q21.3281 0 20.0195 0L11.7871 0L11.7871 0.722656L20 0.722656Q20.9277 0.722656 21.4307 1.21094Q21.9336 1.69922 21.9336 2.65625ZM0 8.20312L0.732422 8.20312L0.732422 2.65625Q0.732422 1.69922 1.2207 1.21094Q1.70898 0.722656 2.65625 0.722656L10.9082 0.722656L10.9082 0L2.62695 0Q1.33789 0 0.668945 0.668945Q0 1.33789 0 2.62695ZM11.3672 13.7793Q12.4121 13.7793 13.3301 13.3789Q14.248 12.9785 14.9512 12.2656Q15.6543 11.5527 16.0547 10.625Q16.4551 9.69727 16.4551 8.64258Q16.4551 7.59766 16.0547 6.6748Q15.6543 5.75195 14.9512 5.05371Q14.248 4.35547 13.3301 3.95508Q12.4121 3.55469 11.3672 3.55469Q10.3125 3.55469 9.38477 3.95508Q8.45703 4.35547 7.74414 5.05371Q7.03125 5.75195 6.63086 6.6748Q6.23047 7.59766 6.23047 8.64258Q6.23047 9.70703 6.63086 10.6348Q7.03125 11.5625 7.73926 12.2705Q8.44727 12.9785 9.375 13.3789Q10.3027 13.7793 11.3672 13.7793ZM11.3672 13.1152Q10.1367 13.1152 9.12109 12.5098Q8.10547 11.9043 7.5 10.8887Q6.89453 9.87305 6.89453 8.64258Q6.89453 7.43164 7.5 6.42578Q8.10547 5.41992 9.12109 4.81934Q10.1367 4.21875 11.3672 4.21875Q12.5781 4.21875 13.584 4.81934Q14.5898 5.41992 15.1953 6.42578Q15.8008 7.43164 15.8008 8.64258Q15.8008 9.87305 15.1953 10.8887Q14.5898 11.9043 13.5791 12.5098Q12.5684 13.1152 11.3672 13.1152ZM11.3574 11.7969Q12.207 11.7969 12.915 11.3721Q13.623 10.9473 14.0479 10.2344Q14.4727 9.52148 14.4727 8.65234Q14.4727 7.80273 14.0479 7.08984Q13.623 6.37695 12.915 5.95703Q12.207 5.53711 11.3574 5.53711Q10.4883 5.53711 9.77539 5.95703Q9.0625 6.37695 8.63281 7.08984Q8.20312 7.80273 8.20312 8.65234Q8.20312 9.52148 8.63281 10.2344Q9.0625 10.9473 9.77539 11.3721Q10.4883 11.7969 11.3574 11.7969Z" fill="#ffffff"/>
 </g>
</svg>
