<?xml version="1.0" encoding="UTF-8"?>
<!--Generator: Apple Native CoreSVG 175.5-->
<!DOCTYPE svg
PUBLIC "-//W3C//DTD SVG 1.1//EN"
       "http://www.w3.org/Graphics/SVG/1.1/DTD/svg11.dtd">
<svg version="1.1" xmlns="http://www.w3.org/2000/svg" xmlns:xlink="http://www.w3.org/1999/xlink" width="22.6039" height="21.1816">
 <g>
  <rect height="21.1816" opacity="0" width="22.6039" x="0" y="0"/>
  <path d="M5.5738 0.742188Q5.21248 1.57227 5.04158 2.39746Q4.87068 3.22266 4.87068 4.02344Q4.87068 5.36133 5.32478 6.5332Q5.77888 7.70508 6.62361 8.59863Q7.46834 9.49219 8.65486 10Q9.84138 10.5078 11.316 10.5078Q12.7906 10.5078 13.9771 10Q15.1636 9.49219 16.0133 8.59863Q16.8629 7.70508 17.3121 6.5332Q17.7613 5.36133 17.7613 4.02344Q17.7613 3.22266 17.5904 2.39746Q17.4195 1.57227 17.0679 0.742188Q16.9117 0.390625 16.5601 0.34668Q16.2086 0.302734 15.9254 0.585938L13.7379 2.8125L11.8726 0.400391Q11.648 0.107422 11.316 0.107422Q10.984 0.107422 10.7691 0.400391L8.90388 2.8125L6.70662 0.585938Q6.43318 0.302734 6.08162 0.34668Q5.73005 0.390625 5.5738 0.742188ZM10.5347 20.4492Q10.5347 20.7812 10.7594 20.9814Q10.984 21.1816 11.316 21.1816Q13.2105 21.1816 14.9781 20.6299Q16.7457 20.0781 18.2447 19.0771Q19.7437 18.0762 20.8521 16.7041Q21.9605 15.332 22.5269 13.6914Q22.6832 13.2422 22.522 12.9785Q22.3609 12.7148 21.8824 12.7148Q20.0074 12.7148 18.4107 13.2275Q16.814 13.7402 15.5347 14.6484Q14.2554 15.5566 13.3277 16.7578Q12.4 17.959 11.8531 19.3457L12.107 19.6777L12.107 9.52148L10.5347 9.52148ZM9.19685 16.7188Q8.27888 15.5273 7.00447 14.6289Q5.73005 13.7305 4.14802 13.2227Q2.56599 12.7148 0.720289 12.7148Q0.251539 12.7148 0.0855232 12.9785Q-0.0804924 13.2422 0.0757576 13.6914Q0.730054 15.5859 2.08748 17.1143Q3.4449 18.6426 5.29548 19.6533Q7.14607 20.6641 9.27498 21.0059Q9.19685 20.7031 9.19685 20.4492Z" fill="#ffffff"/>
 </g>
</svg>
