<?xml version="1.0" encoding="UTF-8"?>
<!--Generator: Apple Native CoreSVG 175.5-->
<!DOCTYPE svg
PUBLIC "-//W3C//DTD SVG 1.1//EN"
       "http://www.w3.org/Graphics/SVG/1.1/DTD/svg11.dtd">
<svg version="1.1" xmlns="http://www.w3.org/2000/svg" xmlns:xlink="http://www.w3.org/1999/xlink" width="23.4766" height="18.4668">
 <g>
  <rect height="18.4668" opacity="0" width="23.4766" x="0" y="0"/>
  <path d="M4.92188 18.4473L17.6367 18.4473Q18.877 18.4473 19.9365 18.0127Q20.9961 17.5781 21.792 16.8018Q22.5879 16.0254 23.0322 14.9951Q23.4766 13.9648 23.4766 12.7734Q23.4766 11.5723 23.0176 10.542Q22.5586 9.51172 21.7285 8.75Q20.8984 7.98828 19.7803 7.56348Q18.6621 7.13867 17.3242 7.13867Q16.3477 5.20508 14.6338 4.09668Q12.9199 2.98828 10.752 2.98828Q9.32617 2.98828 8.05664 3.50098Q6.78711 4.01367 5.78613 4.94141Q4.78516 5.86914 4.16016 7.11426Q3.53516 8.35938 3.4082 9.82422Q2.43164 10.0977 1.69434 10.7129Q0.957031 11.3281 0.546875 12.1924Q0.136719 13.0566 0.136719 14.0918Q0.136719 15.3027 0.698242 16.2891Q1.25977 17.2754 2.3291 17.8613Q3.39844 18.4473 4.92188 18.4473ZM1.36719 8.88672Q1.93359 8.88672 2.3291 8.49121Q2.72461 8.0957 2.72461 7.51953Q2.72461 6.95312 2.3291 6.55762Q1.93359 6.16211 1.36719 6.16211Q0.800781 6.16211 0.400391 6.55762Q0 6.95312 0 7.51953Q0 8.0957 0.400391 8.49121Q0.800781 8.88672 1.36719 8.88672ZM15.6836 2.56836Q16.2109 2.56836 16.5869 2.19238Q16.9629 1.81641 16.9629 1.28906Q16.9629 0.761719 16.5869 0.380859Q16.2109 0 15.6836 0Q15.1562 0 14.7803 0.380859Q14.4043 0.761719 14.4043 1.28906Q14.4043 1.81641 14.7803 2.19238Q15.1562 2.56836 15.6836 2.56836ZM19.7949 5.94727Q20.5859 5.94727 21.1426 5.39062Q21.6992 4.83398 21.6992 4.02344Q21.6992 3.23242 21.1426 2.6709Q20.5859 2.10938 19.7949 2.10938Q18.9844 2.10938 18.4229 2.6709Q17.8613 3.23242 17.8613 4.02344Q17.8613 4.83398 18.4229 5.39062Q18.9844 5.94727 19.7949 5.94727Z" fill="#ffffff"/>
  <path d="M9.15039 15.1758Q8.28125 15.1758 7.74902 14.7314Q7.2168 14.2871 6.97266 13.5498Q6.72852 12.8125 6.72852 11.9531Q6.72852 11.084 6.98242 10.3564Q7.23633 9.62891 7.76855 9.19922Q8.30078 8.76953 9.12109 8.76953Q10.1074 8.76953 10.6787 9.36523Q11.25 9.96094 11.2793 10.7324Q11.2793 11.0059 11.1328 11.167Q10.9863 11.3281 10.752 11.3281Q10.332 11.3281 10.2051 10.8105Q10.127 10.4297 9.8877 10.1025Q9.64844 9.77539 9.14062 9.77539Q8.66211 9.77539 8.37891 10.0928Q8.0957 10.4102 7.96875 10.9082Q7.8418 11.4062 7.8418 11.9531Q7.8418 12.5293 7.96387 13.0371Q8.08594 13.5449 8.36914 13.8574Q8.65234 14.1699 9.15039 14.1699Q9.6582 14.1699 9.90723 13.8379Q10.1562 13.5059 10.2344 13.125Q10.3613 12.6074 10.7812 12.6074Q11.0156 12.6074 11.1621 12.7734Q11.3086 12.9395 11.3086 13.2031Q11.2793 13.9746 10.708 14.5752Q10.1367 15.1758 9.15039 15.1758ZM14.1211 15.1758Q13.0176 15.1758 12.3682 14.3066Q11.7188 13.4375 11.7188 11.9727Q11.7188 10.498 12.3682 9.63379Q13.0176 8.76953 14.1211 8.76953Q15.2148 8.76953 15.8643 9.63379Q16.5137 10.498 16.5137 11.9727Q16.5137 13.4375 15.8691 14.3066Q15.2246 15.1758 14.1211 15.1758ZM14.1211 14.1699Q14.7168 14.1699 15.0586 13.5889Q15.4004 13.0078 15.4004 11.9727Q15.4004 10.9277 15.0586 10.3516Q14.7168 9.77539 14.1211 9.77539Q13.5254 9.77539 13.1787 10.3516Q12.832 10.9277 12.832 11.9727Q12.832 13.0078 13.1787 13.5889Q13.5254 14.1699 14.1211 14.1699Z" fill="none"/>
 </g>
</svg>
