<?xml version="1.0" encoding="UTF-8"?>
<!--Generator: Apple Native CoreSVG 175.5-->
<!DOCTYPE svg
PUBLIC "-//W3C//DTD SVG 1.1//EN"
       "http://www.w3.org/Graphics/SVG/1.1/DTD/svg11.dtd">
<svg version="1.1" xmlns="http://www.w3.org/2000/svg" xmlns:xlink="http://www.w3.org/1999/xlink" width="23.4766" height="18.4668">
 <g>
  <rect height="18.4668" opacity="0" width="23.4766" x="0" y="0"/>
  <path d="M4.92188 18.4473L17.6367 18.4473Q18.877 18.4473 19.9365 18.0127Q20.9961 17.5781 21.792 16.8018Q22.5879 16.0254 23.0322 14.9951Q23.4766 13.9648 23.4766 12.7734Q23.4766 11.5723 23.0176 10.542Q22.5586 9.51172 21.7285 8.75Q20.8984 7.98828 19.7803 7.56348Q18.6621 7.13867 17.3242 7.13867Q16.3477 5.20508 14.6338 4.09668Q12.9199 2.98828 10.752 2.98828Q9.32617 2.98828 8.05664 3.50098Q6.78711 4.01367 5.78613 4.94141Q4.78516 5.86914 4.16016 7.11426Q3.53516 8.35938 3.4082 9.82422Q2.43164 10.0977 1.69434 10.7129Q0.957031 11.3281 0.546875 12.1924Q0.136719 13.0566 0.136719 14.0918Q0.136719 15.3027 0.698242 16.2891Q1.25977 17.2754 2.3291 17.8613Q3.39844 18.4473 4.92188 18.4473ZM1.36719 8.88672Q1.93359 8.88672 2.3291 8.49121Q2.72461 8.0957 2.72461 7.51953Q2.72461 6.95312 2.3291 6.55762Q1.93359 6.16211 1.36719 6.16211Q0.800781 6.16211 0.400391 6.55762Q0 6.95312 0 7.51953Q0 8.0957 0.400391 8.49121Q0.800781 8.88672 1.36719 8.88672ZM15.6836 2.56836Q16.2109 2.56836 16.5869 2.19238Q16.9629 1.81641 16.9629 1.28906Q16.9629 0.761719 16.5869 0.380859Q16.2109 0 15.6836 0Q15.1562 0 14.7803 0.380859Q14.4043 0.761719 14.4043 1.28906Q14.4043 1.81641 14.7803 2.19238Q15.1562 2.56836 15.6836 2.56836ZM19.7949 5.94727Q20.5859 5.94727 21.1426 5.39062Q21.6992 4.83398 21.6992 4.02344Q21.6992 3.23242 21.1426 2.6709Q20.5859 2.10938 19.7949 2.10938Q18.9844 2.10938 18.4229 2.6709Q17.8613 3.23242 17.8613 4.02344Q17.8613 4.83398 18.4229 5.39062Q18.9844 5.94727 19.7949 5.94727Z" fill="#ffffff"/>
  <path d="M8.37891 15.1758Q7.50977 15.1758 6.97754 14.7314Q6.44531 14.2871 6.20117 13.5498Q5.95703 12.8125 5.95703 11.9531Q5.95703 11.084 6.21094 10.3564Q6.46484 9.62891 6.99219 9.19922Q7.51953 8.76953 8.34961 8.76953Q9.33594 8.76953 9.90723 9.36523Q10.4785 9.96094 10.498 10.7324Q10.5078 11.0059 10.3613 11.167Q10.2148 11.3281 9.98047 11.3281Q9.56055 11.3281 9.43359 10.8105Q9.35547 10.4297 9.11621 10.1025Q8.87695 9.77539 8.36914 9.77539Q7.88086 9.77539 7.59766 10.0928Q7.31445 10.4102 7.19238 10.9082Q7.07031 11.4062 7.07031 11.9531Q7.07031 12.5293 7.19238 13.0371Q7.31445 13.5449 7.59766 13.8574Q7.88086 14.1699 8.37891 14.1699Q8.88672 14.1699 9.13574 13.8379Q9.38477 13.5059 9.46289 13.125Q9.58984 12.6074 10.0098 12.6074Q10.2441 12.6074 10.3906 12.7734Q10.5371 12.9395 10.5273 13.2031Q10.5078 13.9746 9.93652 14.5752Q9.36523 15.1758 8.37891 15.1758ZM13.3496 15.1758Q12.2461 15.1758 11.5967 14.3066Q10.9473 13.4375 10.9473 11.9727Q10.9473 10.498 11.5967 9.63379Q12.2461 8.76953 13.3398 8.76953Q14.4434 8.76953 15.0879 9.63379Q15.7324 10.498 15.7324 11.9727Q15.7324 13.4375 15.0879 14.3066Q14.4434 15.1758 13.3496 15.1758ZM16.5039 15.5566Q16.3574 15.5566 16.2598 15.4541Q16.1621 15.3516 16.1621 15.1953Q16.1621 14.9805 16.3086 14.834L17.0898 14.043Q17.2461 13.8672 17.3877 13.6816Q17.5293 13.4961 17.5293 13.3301Q17.5293 13.0762 17.2656 13.0762Q17.041 13.0762 16.9531 13.3691Q16.9043 13.4766 16.8115 13.5791Q16.7188 13.6816 16.5332 13.6816Q16.3867 13.6816 16.2695 13.5693Q16.1523 13.457 16.1523 13.2715Q16.1523 12.9492 16.4502 12.6367Q16.748 12.3242 17.2559 12.3242Q17.7441 12.3242 18.0566 12.6025Q18.3691 12.8809 18.3691 13.3105Q18.3691 13.6133 18.1787 13.8965Q17.9883 14.1797 17.6855 14.4727L17.3633 14.8145L18.1348 14.8145Q18.2812 14.8145 18.3887 14.9268Q18.4961 15.0391 18.4961 15.1758Q18.4961 15.332 18.3887 15.4443Q18.2812 15.5566 18.1348 15.5566ZM13.3496 14.1699Q13.9453 14.1699 14.2871 13.5889Q14.6289 13.0078 14.6289 11.9727Q14.6289 10.9277 14.2822 10.3516Q13.9355 9.77539 13.3398 9.77539Q12.7441 9.77539 12.4023 10.3516Q12.0605 10.9277 12.0605 11.9727Q12.0605 13.0078 12.4072 13.5889Q12.7539 14.1699 13.3496 14.1699Z" fill="none"/>
 </g>
</svg>
