<?xml version="1.0" encoding="UTF-8"?>
<!--Generator: Apple Native CoreSVG 175.5-->
<!DOCTYPE svg
PUBLIC "-//W3C//DTD SVG 1.1//EN"
       "http://www.w3.org/Graphics/SVG/1.1/DTD/svg11.dtd">
<svg version="1.1" xmlns="http://www.w3.org/2000/svg" xmlns:xlink="http://www.w3.org/1999/xlink" width="19.9219" height="19.9316">
 <g>
  <rect height="19.9316" opacity="0" width="19.9219" x="0" y="0"/>
  <path d="M9.96094 19.9316Q12.002 19.9316 13.8037 19.1504Q15.6055 18.3691 16.9824 16.9922Q18.3594 15.6152 19.1406 13.8135Q19.9219 12.0117 19.9219 9.9707Q19.9219 7.92969 19.1406 6.12793Q18.3594 4.32617 16.9824 2.94922Q15.6055 1.57227 13.7988 0.791016Q11.9922 0.00976562 9.95117 0.00976562Q7.91016 0.00976562 6.1084 0.791016Q4.30664 1.57227 2.93457 2.94922Q1.5625 4.32617 0.78125 6.12793Q0 7.92969 0 9.9707Q0 12.0117 0.78125 13.8135Q1.5625 15.6152 2.93945 16.9922Q4.31641 18.3691 6.11816 19.1504Q7.91992 19.9316 9.96094 19.9316Z" fill="#ffffff"/>
  <path d="M8.28125 13.3789Q7.58789 13.3789 7.20215 13.0713Q6.81641 12.7637 6.71875 12.1582L5.92773 6.60156L4.36523 6.60156Q4.13086 6.60156 3.98438 6.4502Q3.83789 6.29883 3.83789 6.06445Q3.83789 5.83008 3.98438 5.67871Q4.13086 5.52734 4.36523 5.52734L6.08398 5.52734Q6.42578 5.52734 6.66992 5.72754Q6.91406 5.92773 6.95312 6.25L7.04102 6.93359L15.1953 6.93359Q15.4102 6.93359 15.5322 7.0459Q15.6543 7.1582 15.6543 7.35352Q15.6543 7.37305 15.6494 7.43164Q15.6445 7.49023 15.6348 7.5293L15.2246 10.2637Q15.1465 10.8203 14.8486 11.1328Q14.5508 11.4453 13.9844 11.4453L7.70508 11.4453L7.75391 11.8262Q7.7832 12.0605 7.9248 12.1924Q8.06641 12.3242 8.29102 12.3242L13.75 12.3242Q13.9844 12.3242 14.126 12.4658Q14.2676 12.6074 14.2676 12.8418Q14.2676 13.0957 14.126 13.2373Q13.9844 13.3789 13.75 13.3789ZM8.4375 15.8496Q8.05664 15.8496 7.79785 15.5908Q7.53906 15.332 7.53906 14.9512Q7.53906 14.5703 7.79785 14.3066Q8.05664 14.043 8.4375 14.043Q8.80859 14.043 9.07715 14.3066Q9.3457 14.5703 9.3457 14.9512Q9.3457 15.332 9.07715 15.5908Q8.80859 15.8496 8.4375 15.8496ZM12.9297 15.8496Q12.5586 15.8496 12.29 15.5908Q12.0215 15.332 12.0215 14.9512Q12.0215 14.5703 12.29 14.3066Q12.5586 14.043 12.9297 14.043Q13.3203 14.043 13.5791 14.3066Q13.8379 14.5703 13.8379 14.9512Q13.8379 15.332 13.5791 15.5908Q13.3203 15.8496 12.9297 15.8496Z" fill="none"/>
 </g>
</svg>
