<?xml version="1.0" encoding="UTF-8"?>
<!--Generator: Apple Native CoreSVG 175.5-->
<!DOCTYPE svg
PUBLIC "-//W3C//DTD SVG 1.1//EN"
       "http://www.w3.org/Graphics/SVG/1.1/DTD/svg11.dtd">
<svg version="1.1" xmlns="http://www.w3.org/2000/svg" xmlns:xlink="http://www.w3.org/1999/xlink" width="22.5391" height="20.5762">
 <g>
  <rect height="20.5762" opacity="0" width="22.5391" x="0" y="0"/>
  <path d="M0 2.10938Q0 2.41211 0.214844 2.63184Q0.429688 2.85156 0.722656 2.85156L4.02344 2.85156L5.58594 13.5742Q5.74219 14.6191 6.30859 15.2246Q6.875 15.8301 7.93945 15.8301L19.3359 15.8301Q19.6191 15.8301 19.834 15.6201Q20.0488 15.4102 20.0488 15.0977Q20.0488 14.7852 19.834 14.5752Q19.6191 14.3652 19.3359 14.3652L8.10547 14.3652Q7.69531 14.3652 7.43652 14.0967Q7.17773 13.8281 7.11914 13.3789L6.96289 12.3535L19.3555 12.3535Q20.4297 12.3535 20.9961 11.7432Q21.5625 11.1328 21.7188 10.0781L22.5 4.91211Q22.5195 4.81445 22.5293 4.71191Q22.5391 4.60938 22.5391 4.54102Q22.5391 4.18945 22.2949 3.96973Q22.0508 3.75 21.6504 3.75L5.71289 3.75L5.51758 2.50977Q5.43945 1.94336 5.1709 1.66016Q4.90234 1.37695 4.15039 1.37695L0.722656 1.37695Q0.429688 1.37695 0.214844 1.59668Q0 1.81641 0 2.10938ZM7.11914 18.9941Q7.11914 19.4336 7.33398 19.7949Q7.54883 20.1562 7.90527 20.3662Q8.26172 20.5762 8.71094 20.5762Q9.36523 20.5762 9.8291 20.1172Q10.293 19.6582 10.293 18.9941Q10.293 18.3301 9.8291 17.8711Q9.36523 17.4121 8.71094 17.4121Q8.26172 17.4121 7.90527 17.6221Q7.54883 17.832 7.33398 18.1934Q7.11914 18.5547 7.11914 18.9941ZM16.25 18.9941Q16.25 19.6582 16.7188 20.1172Q17.1875 20.5762 17.8418 20.5762Q18.5059 20.5762 18.9697 20.1172Q19.4336 19.6582 19.4336 18.9941Q19.4336 18.3301 18.9697 17.8711Q18.5059 17.4121 17.8418 17.4121Q17.4023 17.4121 17.041 17.6221Q16.6797 17.832 16.4648 18.1934Q16.25 18.5547 16.25 18.9941Z" fill="#ffffff"/>
 </g>
</svg>
