<?xml version="1.0" encoding="UTF-8"?>
<!--Generator: Apple Native CoreSVG 175.5-->
<!DOCTYPE svg
PUBLIC "-//W3C//DTD SVG 1.1//EN"
       "http://www.w3.org/Graphics/SVG/1.1/DTD/svg11.dtd">
<svg version="1.1" xmlns="http://www.w3.org/2000/svg" xmlns:xlink="http://www.w3.org/1999/xlink" width="22.6074" height="20.8496">
 <g>
  <rect height="20.8496" opacity="0" width="22.6074" x="0" y="0"/>
  <path d="M3.01758 18.9258L19.5898 18.9258Q21.1035 18.9258 21.8555 18.1836Q22.6074 17.4414 22.6074 15.9473L22.6074 6.44531Q22.6074 4.94141 21.8555 4.2041Q21.1035 3.4668 19.5898 3.4668L3.01758 3.4668Q1.51367 3.4668 0.756836 4.2041Q0 4.94141 0 6.44531L0 15.9473Q0 17.4414 0.756836 18.1836Q1.51367 18.9258 3.01758 18.9258ZM6.34766 4.31641L7.86133 4.31641L7.86133 2.58789Q7.86133 2.03125 8.17383 1.72852Q8.48633 1.42578 9.0625 1.42578L13.5449 1.42578Q14.1113 1.42578 14.4238 1.72852Q14.7363 2.03125 14.7363 2.58789L14.7363 4.29688L16.25 4.29688L16.25 2.69531Q16.25 1.31836 15.5469 0.65918Q14.8438 0 13.5156 0L9.08203 0Q7.83203 0 7.08984 0.65918Q6.34766 1.31836 6.34766 2.69531Z" fill="#ffffff"/>
 </g>
</svg>
