<?xml version="1.0" encoding="UTF-8"?>
<!--Generator: Apple Native CoreSVG 175.5-->
<!DOCTYPE svg
PUBLIC "-//W3C//DTD SVG 1.1//EN"
       "http://www.w3.org/Graphics/SVG/1.1/DTD/svg11.dtd">
<svg version="1.1" xmlns="http://www.w3.org/2000/svg" xmlns:xlink="http://www.w3.org/1999/xlink" width="17.9785" height="17.998">
 <g>
  <rect height="17.998" opacity="0" width="17.9785" x="0" y="0"/>
  <path d="M3.06641 17.998L14.9121 17.998Q16.4453 17.998 17.2119 17.2412Q17.9785 16.4844 17.9785 14.9707L17.9785 3.04688Q17.9785 1.5332 17.2119 0.776367Q16.4453 0.0195312 14.9121 0.0195312L3.06641 0.0195312Q1.5332 0.0195312 0.766602 0.776367Q0 1.5332 0 3.04688L0 14.9707Q0 16.4844 0.766602 17.2412Q1.5332 17.998 3.06641 17.998Z" fill="#ffffff"/>
  <path d="M4.94141 9.01367Q4.94141 6.97266 5.89355 5.69824Q6.8457 4.42383 8.45703 4.21875L8.45703 3.41797Q8.45703 3.19336 8.59863 3.05664Q8.74023 2.91992 8.95508 2.91992Q9.16992 2.91992 9.31152 3.05664Q9.45312 3.19336 9.45312 3.41797L9.45312 4.20898Q10.5273 4.30664 11.333 4.90723Q12.1387 5.50781 12.4707 6.40625Q12.5098 6.5332 12.5342 6.66016Q12.5586 6.78711 12.5586 6.91406Q12.5684 7.1875 12.3975 7.3584Q12.2266 7.5293 11.9434 7.5293Q11.6797 7.5293 11.5332 7.41211Q11.3867 7.29492 11.2988 7.00195Q11.123 6.40625 10.625 5.98145Q10.127 5.55664 9.45312 5.43945L9.45312 12.6172Q10.166 12.5195 10.6787 12.1045Q11.1914 11.6895 11.3672 11.0742Q11.4453 10.8105 11.6016 10.6738Q11.7578 10.5371 12.0117 10.5371Q12.2949 10.5371 12.4658 10.708Q12.6367 10.8789 12.6367 11.1523Q12.6367 11.2891 12.6074 11.416Q12.5781 11.543 12.5391 11.6699Q12.2168 12.5684 11.4111 13.1592Q10.6055 13.75 9.45312 13.8379L9.45312 14.6387Q9.45312 14.8633 9.31152 15.0049Q9.16992 15.1465 8.95508 15.1465Q8.74023 15.1465 8.59863 15.0049Q8.45703 14.8633 8.45703 14.6387L8.45703 13.8281Q6.8457 13.6328 5.89355 12.3584Q4.94141 11.084 4.94141 9.01367ZM6.29883 9.01367Q6.29883 10.4785 6.875 11.4209Q7.45117 12.3633 8.45703 12.5879L8.45703 5.46875Q7.45117 5.68359 6.875 6.62598Q6.29883 7.56836 6.29883 9.01367Z" fill="none"/>
 </g>
</svg>
