<?xml version="1.0" encoding="UTF-8"?>
<!--Generator: Apple Native CoreSVG 175.5-->
<!DOCTYPE svg
PUBLIC "-//W3C//DTD SVG 1.1//EN"
       "http://www.w3.org/Graphics/SVG/1.1/DTD/svg11.dtd">
<svg version="1.1" xmlns="http://www.w3.org/2000/svg" xmlns:xlink="http://www.w3.org/1999/xlink" width="26.3477" height="16.9629">
 <g>
  <rect height="16.9629" opacity="0" width="26.3477" x="0" y="0"/>
  <path d="M1.02539 16.9531L3.37891 16.9531Q3.83789 16.9531 4.12109 16.6602Q4.4043 16.3672 4.4043 15.8887L4.4043 11.5039Q4.4043 11.0254 4.12109 10.7373Q3.83789 10.4492 3.37891 10.4492L1.02539 10.4492Q0.566406 10.4492 0.283203 10.7373Q0 11.0254 0 11.5039L0 15.8887Q0 16.3672 0.283203 16.6602Q0.566406 16.9531 1.02539 16.9531Z" fill="#ffffff"/>
  <path d="M8.33984 16.9531L10.6934 16.9531Q11.1523 16.9531 11.4355 16.6602Q11.7188 16.3672 11.7188 15.8887L11.7188 8.45703Q11.7188 7.97852 11.4355 7.68555Q11.1523 7.39258 10.6934 7.39258L8.33984 7.39258Q7.88086 7.39258 7.59766 7.68555Q7.31445 7.97852 7.31445 8.45703L7.31445 15.8887Q7.31445 16.3672 7.59766 16.6602Q7.88086 16.9531 8.33984 16.9531Z" fill="#ffffff"/>
  <path d="M15.6543 16.9531L18.0078 16.9531Q18.4668 16.9531 18.75 16.6602Q19.0332 16.3672 19.0332 15.8887L19.0332 4.92188Q19.0332 4.44336 18.75 4.15039Q18.4668 3.85742 18.0078 3.85742L15.6543 3.85742Q15.1953 3.85742 14.9121 4.15039Q14.6289 4.44336 14.6289 4.92188L14.6289 15.8887Q14.6289 16.3672 14.9121 16.6602Q15.1953 16.9531 15.6543 16.9531Z" fill="#ffffff"/>
  <path d="M22.959 16.9531L25.332 16.9531Q25.791 16.9531 26.0693 16.6602Q26.3477 16.3672 26.3477 15.8887L26.3477 1.06445Q26.3477 0.585938 26.0693 0.292969Q25.791 0 25.332 0L22.959 0Q22.5 0 22.2168 0.292969Q21.9336 0.585938 21.9336 1.06445L21.9336 15.8887Q21.9336 16.3672 22.2168 16.6602Q22.5 16.9531 22.959 16.9531Z" fill="#ffffff"/>
 </g>
</svg>
