<?xml version="1.0" encoding="UTF-8"?>
<!--Generator: Apple Native CoreSVG 175-->
<!DOCTYPE svg
PUBLIC "-//W3C//DTD SVG 1.1//EN"
       "http://www.w3.org/Graphics/SVG/1.1/DTD/svg11.dtd">
<svg version="1.1" xmlns="http://www.w3.org/2000/svg" xmlns:xlink="http://www.w3.org/1999/xlink" width="19.1602" height="19.1504">
 <g>
  <rect height="19.1504" opacity="0" width="19.1602" x="0" y="0"/>
  <path d="M9.57031 19.1406Q11.5527 19.1406 13.2861 18.3984Q15.0195 17.6562 16.3379 16.333Q17.6562 15.0098 18.4082 13.2764Q19.1602 11.543 19.1602 9.57031Q19.1602 7.59766 18.4082 5.86426Q17.6562 4.13086 16.3379 2.80762Q15.0195 1.48438 13.2861 0.742188Q11.5527 0 9.57031 0Q7.59766 0 5.86426 0.742188Q4.13086 1.48438 2.81738 2.80762Q1.50391 4.13086 0.751953 5.86426Q0 7.59766 0 9.57031Q0 11.543 0.74707 13.2764Q1.49414 15.0098 2.8125 16.333Q4.13086 17.6562 5.86914 18.3984Q7.60742 19.1406 9.57031 19.1406ZM6.66992 9.57031Q6.66992 8.1543 7.37305 7.27539Q8.07617 6.39648 9.26758 6.2793L9.26758 5.49805Q9.26758 5.37109 9.35059 5.2832Q9.43359 5.19531 9.57031 5.19531Q9.69727 5.19531 9.78027 5.2832Q9.86328 5.37109 9.86328 5.49805L9.86328 6.2793Q10.7227 6.35742 11.3428 6.82617Q11.9629 7.29492 12.1777 7.98828Q12.1973 8.05664 12.207 8.11523Q12.2168 8.17383 12.2168 8.22266Q12.2168 8.36914 12.1289 8.45703Q12.041 8.54492 11.9043 8.54492Q11.7871 8.54492 11.7139 8.47168Q11.6406 8.39844 11.5625 8.21289Q11.3867 7.68555 10.9424 7.33398Q10.498 6.98242 9.86328 6.91406L9.86328 12.2363Q10.498 12.168 10.9473 11.8164Q11.3965 11.4648 11.582 10.918Q11.6309 10.7617 11.7041 10.6934Q11.7773 10.625 11.9043 10.625Q12.041 10.625 12.1338 10.708Q12.2266 10.791 12.2266 10.9277Q12.2266 10.9863 12.2119 11.0449Q12.1973 11.1035 12.1777 11.1816Q12.041 11.6406 11.7139 12.0068Q11.3867 12.373 10.918 12.5977Q10.4492 12.8223 9.86328 12.8711L9.86328 13.6621Q9.86328 13.7891 9.78027 13.877Q9.69727 13.9648 9.57031 13.9648Q9.43359 13.9648 9.35059 13.877Q9.26758 13.7891 9.26758 13.6621L9.26758 12.8711Q8.07617 12.7539 7.37305 11.875Q6.66992 10.9961 6.66992 9.57031ZM7.32422 9.58008Q7.32422 10.7031 7.8418 11.4111Q8.35938 12.1191 9.26758 12.2266L9.26758 6.92383Q8.36914 7.04102 7.84668 7.74902Q7.32422 8.45703 7.32422 9.58008Z" fill="#ffffff"/>
 </g>
</svg>
