<?xml version="1.0" encoding="UTF-8"?>
<!--Generator: Apple Native CoreSVG 175.5-->
<!DOCTYPE svg
PUBLIC "-//W3C//DTD SVG 1.1//EN"
       "http://www.w3.org/Graphics/SVG/1.1/DTD/svg11.dtd">
<svg version="1.1" xmlns="http://www.w3.org/2000/svg" xmlns:xlink="http://www.w3.org/1999/xlink" width="23.9941" height="17.998">
 <g>
  <rect height="17.998" opacity="0" width="23.9941" x="0" y="0"/>
  <path d="M3.54492 17.998L20.4492 17.998Q21.9824 17.998 22.749 17.2412Q23.5156 16.4844 23.5156 14.9707L23.5156 12.0898Q23.5156 11.709 23.3105 11.5039Q23.1055 11.2988 22.7246 11.2988Q22.3438 11.2988 22.1436 11.5039Q21.9434 11.709 21.9434 12.0898L21.9434 14.8926Q21.9434 15.6543 21.5479 16.04Q21.1523 16.4258 20.4297 16.4258L3.57422 16.4258Q2.8418 16.4258 2.45117 16.04Q2.06055 15.6543 2.06055 14.8926L2.06055 12.0898Q2.06055 11.709 1.85059 11.5039Q1.64062 11.2988 1.26953 11.2988Q0.898438 11.2988 0.693359 11.5039Q0.488281 11.709 0.488281 12.0898L0.488281 14.9707Q0.488281 16.4844 1.25488 17.2412Q2.02148 17.998 3.54492 17.998ZM3.54492 0.0195312Q2.02148 0.0195312 1.25488 0.776367Q0.488281 1.5332 0.488281 3.04688L0.488281 5.43945Q0.488281 5.82031 0.693359 6.03027Q0.898438 6.24023 1.26953 6.24023Q1.64062 6.24023 1.85059 6.03027Q2.06055 5.82031 2.06055 5.43945L2.06055 3.125Q2.06055 2.36328 2.45117 1.97754Q2.8418 1.5918 3.57422 1.5918L20.4297 1.5918Q21.1523 1.5918 21.5479 1.97754Q21.9434 2.36328 21.9434 3.125L21.9434 5.43945Q21.9434 5.82031 22.1484 6.03027Q22.3535 6.24023 22.7246 6.24023Q23.1152 6.24023 23.3154 6.03027Q23.5156 5.82031 23.5156 5.43945L23.5156 3.04688Q23.5156 1.5332 22.749 0.776367Q21.9824 0.0195312 20.4492 0.0195312ZM1.26953 10.0293Q1.79688 10.0293 2.16797 9.65332Q2.53906 9.27734 2.53906 8.75Q2.53906 8.23242 2.16797 7.86133Q1.79688 7.49023 1.26953 7.49023Q0.751953 7.49023 0.375977 7.86133Q0 8.23242 0 8.75Q0 9.27734 0.375977 9.65332Q0.751953 10.0293 1.26953 10.0293ZM22.7246 10.0293Q23.252 10.0293 23.623 9.65332Q23.9941 9.27734 23.9941 8.75Q23.9941 8.23242 23.623 7.86133Q23.252 7.49023 22.7246 7.49023Q22.1973 7.49023 21.8262 7.85645Q21.4551 8.22266 21.4551 8.75Q21.4551 9.27734 21.8262 9.65332Q22.1973 10.0293 22.7246 10.0293Z" fill="#ffffff"/>
  <path d="M8.78906 13.5938Q9.05273 13.5938 9.23828 13.4521Q9.42383 13.3105 9.54102 12.9688L10.2539 10.8887L13.7402 10.8887L14.4629 12.9688Q14.668 13.5938 15.2148 13.5938Q15.5371 13.5938 15.7324 13.4033Q15.9277 13.2129 15.9277 12.9199Q15.9277 12.7148 15.8301 12.4121L13.0859 5.03906Q12.8027 4.26758 11.9922 4.26758Q11.1914 4.26758 10.9082 5.03906L8.17383 12.4121Q8.06641 12.7148 8.06641 12.9199Q8.06641 13.2227 8.26172 13.4082Q8.45703 13.5938 8.78906 13.5938ZM10.6445 9.7168L11.9434 5.9375L12.0508 5.9375L13.3496 9.7168Z" fill="#ffffff"/>
 </g>
</svg>
