<?xml version="1.0" encoding="UTF-8"?>
<!--Generator: Apple Native CoreSVG 175.5-->
<!DOCTYPE svg
PUBLIC "-//W3C//DTD SVG 1.1//EN"
       "http://www.w3.org/Graphics/SVG/1.1/DTD/svg11.dtd">
<svg version="1.1" xmlns="http://www.w3.org/2000/svg" xmlns:xlink="http://www.w3.org/1999/xlink" width="14.0039" height="20.127">
 <g>
  <rect height="20.127" opacity="0" width="14.0039" x="0" y="0"/>
  <path d="M6.47461 20.0977Q7.8418 20.0977 9.01367 19.5996Q10.1855 19.1016 11.0742 18.2129Q11.9629 17.3242 12.4609 16.1475Q12.959 14.9707 12.959 13.6133Q12.959 12.2559 12.4609 11.0742Q11.9629 9.89258 11.0742 9.00391Q10.1855 8.11523 9.00879 7.62207Q7.83203 7.12891 6.46484 7.12891Q5.10742 7.12891 3.93066 7.62207Q2.75391 8.11523 1.87012 9.00391Q0.986328 9.89258 0.493164 11.0742Q0 12.2559 0 13.6133Q0 14.9707 0.498047 16.1475Q0.996094 17.3242 1.87988 18.2129Q2.76367 19.1016 3.94043 19.5996Q5.11719 20.0977 6.47461 20.0977ZM6.47461 18.4473Q5.11719 18.4473 4.02344 17.8027Q2.92969 17.1582 2.29004 16.0645Q1.65039 14.9707 1.65039 13.6133Q1.65039 12.2559 2.29004 11.1572Q2.92969 10.0586 4.01855 9.41895Q5.10742 8.7793 6.46484 8.7793Q7.82227 8.7793 8.9209 9.41895Q10.0195 10.0586 10.6641 11.1572Q11.3086 12.2559 11.3086 13.6133Q11.3086 14.9707 10.6689 16.0645Q10.0293 17.1582 8.93555 17.8027Q7.8418 18.4473 6.47461 18.4473ZM11.3086 13.6133L12.959 13.6133L12.959 2.67578L11.3086 2.67578ZM12.1289 3.75Q12.6465 3.75 13.0762 3.49609Q13.5059 3.24219 13.7549 2.81738Q14.0039 2.39258 14.0039 1.875Q14.0039 1.35742 13.7549 0.932617Q13.5059 0.507812 13.0762 0.253906Q12.6465 0 12.1289 0Q11.6113 0 11.1865 0.253906Q10.7617 0.507812 10.5078 0.932617Q10.2539 1.35742 10.2539 1.875Q10.2539 2.39258 10.5078 2.81738Q10.7617 3.24219 11.1865 3.49609Q11.6113 3.75 12.1289 3.75Z" fill="#ffffff"/>
 </g>
</svg>
