<?xml version="1.0" encoding="UTF-8"?>
<!--Generator: Apple Native CoreSVG 175-->
<!DOCTYPE svg
PUBLIC "-//W3C//DTD SVG 1.1//EN"
       "http://www.w3.org/Graphics/SVG/1.1/DTD/svg11.dtd">
<svg version="1.1" xmlns="http://www.w3.org/2000/svg" xmlns:xlink="http://www.w3.org/1999/xlink" width="15.7812" height="20.6738">
 <g>
  <rect height="20.6738" opacity="0" width="15.7812" x="0" y="0"/>
  <path d="M2.51953 20.6738L15.4297 20.6738Q15.5859 20.6738 15.6836 20.5762Q15.7812 20.4785 15.7812 20.3125Q15.7812 20.2051 15.7178 20.1123Q15.6543 20.0195 15.5664 19.9805Q14.8535 19.541 14.5215 18.8818Q14.1895 18.2227 14.3115 17.4658Q14.4336 16.709 15.0781 15.9863Q15.3613 15.6543 15.5713 15.2002Q15.7812 14.7461 15.7812 14.0918L15.7812 2.66602Q15.7812 1.36719 15.1123 0.698242Q14.4434 0.0292969 13.1543 0.0292969L2.62695 0.0292969Q1.32812 0.0292969 0.664062 0.698242Q0 1.36719 0 2.66602L0 18.252Q0 19.4043 0.65918 20.0391Q1.31836 20.6738 2.51953 20.6738ZM0.732422 16.5332L0.732422 2.68555Q0.732422 1.73828 1.21582 1.24512Q1.69922 0.751953 2.65625 0.751953L13.1152 0.751953Q14.0723 0.751953 14.5605 1.24512Q15.0488 1.73828 15.0488 2.68555L15.0488 14.0332Q15.0488 15.8203 13.2617 15.8203L2.55859 15.8203Q1.91406 15.8203 1.47949 16.001Q1.04492 16.1816 0.732422 16.5332ZM2.55859 19.9414Q1.68945 19.9414 1.21094 19.4922Q0.732422 19.043 0.732422 18.2227Q0.732422 17.4316 1.2207 16.9873Q1.70898 16.543 2.57812 16.543L13.1055 16.543Q13.6035 16.543 14.0039 16.416Q13.4473 17.3828 13.6035 18.335Q13.7598 19.2871 14.5312 19.9414ZM1.95312 16.1914L2.61719 16.1914L2.61719 0.478516L1.95312 0.478516ZM5.68359 12.9688Q5.80078 12.9688 5.86914 12.9102Q5.9375 12.8516 5.99609 12.7051L6.79688 10.5176L10.0684 10.5176L10.8691 12.7051Q10.9668 12.9688 11.2109 12.9688Q11.3379 12.9688 11.4209 12.8857Q11.5039 12.8027 11.5039 12.6855Q11.5039 12.6172 11.4551 12.4805L8.85742 5.63477Q8.75 5.3125 8.42773 5.3125Q8.10547 5.3125 7.99805 5.63477L5.40039 12.4805Q5.36133 12.6172 5.36133 12.6758Q5.36133 12.8125 5.44434 12.8906Q5.52734 12.9688 5.68359 12.9688ZM7.00195 9.96094L8.4082 6.17188L8.45703 6.17188L9.86328 9.96094Z" fill="#ffffff"/>
 </g>
</svg>
