<?xml version="1.0" encoding="UTF-8"?>
<!--Generator: Apple Native CoreSVG 175.5-->
<!DOCTYPE svg
PUBLIC "-//W3C//DTD SVG 1.1//EN"
       "http://www.w3.org/Graphics/SVG/1.1/DTD/svg11.dtd">
<svg version="1.1" xmlns="http://www.w3.org/2000/svg" xmlns:xlink="http://www.w3.org/1999/xlink" width="20.9961" height="18.1738">
 <g>
  <rect height="18.1738" opacity="0" width="20.9961" x="0" y="0"/>
  <path d="M14.1309 5.35156L14.1309 11.6113Q14.1309 11.8652 14.2676 11.9971Q14.4043 12.1289 14.6143 12.1387Q14.8242 12.1484 15.0488 12.0117L20.0977 8.98438Q20.3027 8.85742 20.3662 8.66699Q20.4297 8.47656 20.3564 8.28613Q20.2832 8.0957 20.0879 7.97852L15.0391 4.95117Q14.8145 4.82422 14.6045 4.83398Q14.3945 4.84375 14.2627 4.97559Q14.1309 5.10742 14.1309 5.35156ZM0.361328 9.31641L15.5762 9.31641L15.5762 7.64648L0.361328 7.64648Z" fill="#ffffff"/>
  <path d="M0 17.4023Q0 17.7539 0.214844 17.9639Q0.429688 18.1738 0.78125 18.1738L20.2051 18.1738Q20.5273 18.1738 20.7617 17.9492Q20.9961 17.7246 20.9961 17.3926Q20.9961 17.0703 20.7617 16.8408Q20.5273 16.6113 20.2051 16.6113L1.8457 16.6113Q1.57227 16.6113 1.57227 16.3379L1.57227 0.898438Q1.57227 0.585938 1.34277 0.351562Q1.11328 0.117188 0.791016 0.117188Q0.458984 0.117188 0.229492 0.351562Q0 0.585938 0 0.898438Z" fill="#ffffff"/>
 </g>
</svg>
