<?xml version="1.0" encoding="UTF-8"?>
<!--Generator: Apple Native CoreSVG 175.5-->
<!DOCTYPE svg
PUBLIC "-//W3C//DTD SVG 1.1//EN"
       "http://www.w3.org/Graphics/SVG/1.1/DTD/svg11.dtd">
<svg version="1.1" xmlns="http://www.w3.org/2000/svg" xmlns:xlink="http://www.w3.org/1999/xlink" width="19.9219" height="19.9316">
 <g>
  <rect height="19.9316" opacity="0" width="19.9219" x="0" y="0"/>
  <path d="M9.96094 19.9316Q12.002 19.9316 13.8037 19.1504Q15.6055 18.3691 16.9824 16.9922Q18.3594 15.6152 19.1406 13.8135Q19.9219 12.0117 19.9219 9.9707Q19.9219 7.92969 19.1406 6.12793Q18.3594 4.32617 16.9824 2.94922Q15.6055 1.57227 13.7988 0.791016Q11.9922 0.00976562 9.95117 0.00976562Q7.91016 0.00976562 6.1084 0.791016Q4.30664 1.57227 2.93457 2.94922Q1.5625 4.32617 0.78125 6.12793Q0 7.92969 0 9.9707Q0 12.0117 0.78125 13.8135Q1.5625 15.6152 2.93945 16.9922Q4.31641 18.3691 6.11816 19.1504Q7.91992 19.9316 9.96094 19.9316Z" fill="#ffffff"/>
  <path d="M4.53125 13.7695L4.53125 5.6543Q4.53125 5.42969 4.69727 5.26367Q4.86328 5.09766 5.09766 5.09766Q5.32227 5.09766 5.48828 5.26367Q5.6543 5.42969 5.6543 5.6543L5.6543 6.67969L7.62695 8.66211Q7.70508 8.75 7.77344 8.66211L9.53125 6.86523Q9.89258 6.50391 10.3223 6.50391Q10.752 6.50391 11.1035 6.86523L12.998 8.79883L13.7109 8.06641Q13.8965 7.87109 14.1309 7.95898Q14.3652 8.04688 14.4336 8.33008L15.166 11.2305Q15.2344 11.4648 15.0537 11.6357Q14.873 11.8066 14.6289 11.748L11.7383 11.0254Q11.4648 10.9473 11.377 10.7178Q11.2891 10.4883 11.4844 10.3125L12.1973 9.59961L10.4004 7.77344Q10.3223 7.69531 10.2441 7.77344L8.47656 9.58984Q8.13477 9.94141 7.69531 9.94141Q7.28516 9.94141 6.92383 9.58984L5.6543 8.29102L5.6543 13.3496Q5.6543 13.4473 5.74219 13.4473L14.9219 13.4473Q15.1465 13.4473 15.3125 13.6133Q15.4785 13.7793 15.4785 14.0039Q15.4785 14.2383 15.3125 14.3994Q15.1465 14.5605 14.9219 14.5605L5.32227 14.5605Q4.96094 14.5605 4.74609 14.3457Q4.53125 14.1309 4.53125 13.7695Z" fill="none"/>
 </g>
</svg>
