<?xml version="1.0" encoding="UTF-8"?>
<!--Generator: Apple Native CoreSVG 175-->
<!DOCTYPE svg
PUBLIC "-//W3C//DTD SVG 1.1//EN"
       "http://www.w3.org/Graphics/SVG/1.1/DTD/svg11.dtd">
<svg version="1.1" xmlns="http://www.w3.org/2000/svg" xmlns:xlink="http://www.w3.org/1999/xlink" width="11.539" height="14.4012">
 <g>
  <rect height="14.4012" opacity="0" width="11.539" x="0" y="0"/>
  <path d="M0.370331 14.3817Q0.536041 14.3817 0.624313 14.3071Q0.712585 14.2325 0.778961 14.0543L2.53082 9.49615L9.0097 9.49615L10.7547 14.0543Q10.8211 14.2325 10.9129 14.3071Q11.0046 14.3817 11.1606 14.3817Q11.3332 14.3817 11.4361 14.2863Q11.539 14.191 11.539 14.0239Q11.539 13.9117 11.4879 13.7778L6.27502 0.364075Q6.20468 0.196075 6.08475 0.0980377Q5.96481 0 5.77026 0Q5.39642 0 5.26398 0.361328L0.0511169 13.7805Q0 13.9145 0 14.0266Q0 14.1937 0.100174 14.2877Q0.200348 14.3817 0.370331 14.3817ZM2.77039 8.81332L5.74799 1.06689L5.78979 1.06689L8.76755 8.81332Z" fill="#ffffff"/>
 </g>
</svg>
