<?xml version="1.0" encoding="UTF-8"?>
<!--Generator: Apple Native CoreSVG 175.5-->
<!DOCTYPE svg
PUBLIC "-//W3C//DTD SVG 1.1//EN"
       "http://www.w3.org/Graphics/SVG/1.1/DTD/svg11.dtd">
<svg version="1.1" xmlns="http://www.w3.org/2000/svg" xmlns:xlink="http://www.w3.org/1999/xlink" width="21.5234" height="21.5723">
 <g>
  <rect height="21.5723" opacity="0" width="21.5234" x="0" y="0"/>
  <path d="M5.80078 21.5723Q6.09375 21.5723 6.33301 21.4209Q6.57227 21.2695 6.92383 20.9473L10.4492 17.7246L17.0508 17.7246Q18.5059 17.7246 19.502 17.207Q20.498 16.6895 21.0107 15.6934Q21.5234 14.6973 21.5234 13.2617L21.5234 5.78125Q21.5234 4.3457 21.0107 3.34961Q20.498 2.35352 19.502 1.83105Q18.5059 1.30859 17.0508 1.30859L4.47266 1.30859Q3.01758 1.30859 2.02148 1.83105Q1.02539 2.35352 0.512695 3.34961Q0 4.3457 0 5.78125L0 13.2617Q0 14.6973 0.512695 15.6934Q1.02539 16.6895 2.02148 17.207Q3.01758 17.7246 4.47266 17.7246L4.93164 17.7246L4.93164 20.5664Q4.93164 21.0254 5.15625 21.2988Q5.38086 21.5723 5.80078 21.5723Z" fill="#ffffff"/>
  <path d="M9.67773 14.2773Q9.42383 14.2773 9.21875 14.1699Q9.01367 14.0625 8.81836 13.8086L6.36719 10.8008Q6.25977 10.6543 6.19629 10.4932Q6.13281 10.332 6.13281 10.166Q6.13281 9.83398 6.35742 9.59473Q6.58203 9.35547 6.91406 9.35547Q7.12891 9.35547 7.2998 9.44336Q7.4707 9.53125 7.65625 9.77539L9.63867 12.334L13.8086 5.63477Q14.082 5.18555 14.5117 5.18555Q14.8242 5.18555 15.0781 5.38574Q15.332 5.58594 15.332 5.92773Q15.332 6.09375 15.2539 6.25977Q15.1758 6.42578 15.0879 6.57227L10.498 13.8086Q10.3418 14.043 10.1367 14.1602Q9.93164 14.2773 9.67773 14.2773Z" fill="none"/>
 </g>
</svg>
