<?xml version="1.0" encoding="UTF-8"?>
<!--Generator: Apple Native CoreSVG 175.5-->
<!DOCTYPE svg
PUBLIC "-//W3C//DTD SVG 1.1//EN"
       "http://www.w3.org/Graphics/SVG/1.1/DTD/svg11.dtd">
<svg version="1.1" xmlns="http://www.w3.org/2000/svg" xmlns:xlink="http://www.w3.org/1999/xlink" width="16.4258" height="20.9473">
 <g>
  <rect height="20.9473" opacity="0" width="16.4258" x="0" y="0"/>
  <path d="M0 17.8809Q0 19.4141 0.756836 20.1758Q1.51367 20.9375 3.02734 20.9375L13.3984 20.9375Q14.9121 20.9375 15.6689 20.1758Q16.4258 19.4141 16.4258 17.8809L16.4258 3.06641Q16.4258 1.54297 15.6689 0.771484Q14.9121 0 13.3984 0L3.02734 0Q1.51367 0 0.756836 0.771484Q0 1.54297 0 3.06641ZM1.57227 17.8516L1.57227 3.0957Q1.57227 2.36328 1.95801 1.96777Q2.34375 1.57227 3.10547 1.57227L13.3203 1.57227Q14.082 1.57227 14.4678 1.96777Q14.8535 2.36328 14.8535 3.0957L14.8535 17.8516Q14.8535 18.584 14.4678 18.9746Q14.082 19.3652 13.3203 19.3652L3.10547 19.3652Q2.34375 19.3652 1.95801 18.9746Q1.57227 18.584 1.57227 17.8516Z" fill="#ffffff"/>
  <path d="M7.1582 15.0977Q7.65625 15.0977 7.94922 14.6484L12.4121 7.61719Q12.5 7.48047 12.5732 7.31934Q12.6465 7.1582 12.6465 6.99219Q12.6465 6.66992 12.4023 6.47461Q12.1582 6.2793 11.8555 6.2793Q11.4453 6.2793 11.1719 6.71875L7.11914 13.2227L5.19531 10.7324Q5.01953 10.498 4.84863 10.415Q4.67773 10.332 4.47266 10.332Q4.16016 10.332 3.94043 10.5615Q3.7207 10.791 3.7207 11.1133Q3.7207 11.416 3.94531 11.7188L6.32812 14.6484Q6.51367 14.8828 6.71387 14.9902Q6.91406 15.0977 7.1582 15.0977Z" fill="#ffffff"/>
 </g>
</svg>
