<?xml version="1.0" encoding="UTF-8"?>
<!--Generator: Apple Native CoreSVG 175-->
<!DOCTYPE svg
PUBLIC "-//W3C//DTD SVG 1.1//EN"
       "http://www.w3.org/Graphics/SVG/1.1/DTD/svg11.dtd">
<svg version="1.1" xmlns="http://www.w3.org/2000/svg" xmlns:xlink="http://www.w3.org/1999/xlink" width="23.2031" height="16.8262">
 <g>
  <rect height="16.8262" opacity="0" width="23.2031" x="0" y="0"/>
  <path d="M18.3789 15.7422Q19.4043 15.7422 20.2783 15.415Q21.1523 15.0879 21.8066 14.5068Q22.4609 13.9258 22.832 13.1445Q23.2031 12.3633 23.2031 11.4551Q23.2031 10.498 22.8613 9.65332Q22.5195 8.80859 21.8604 8.16895Q21.2012 7.5293 20.2148 7.2168Q20.2734 5.66406 19.7949 4.3457Q19.3164 3.02734 18.4229 2.05078Q17.5293 1.07422 16.3232 0.537109Q15.1172 0 13.7109 0Q12.373 0 11.333 0.449219Q10.293 0.898438 9.53125 1.64551Q8.76953 2.39258 8.28125 3.29102Q7.44141 2.93945 6.5918 3.06641Q5.74219 3.19336 5.03418 3.70605Q4.32617 4.21875 3.90137 5.00977Q3.47656 5.80078 3.49609 6.78711Q2.45117 6.86523 1.66504 7.42676Q0.878906 7.98828 0.439453 8.90137Q0 9.81445 0 10.957Q0 11.9531 0.400391 12.8223Q0.800781 13.6914 1.52344 14.3457Q2.24609 15 3.21777 15.3613Q4.18945 15.7227 5.33203 15.7227ZM18.3691 15.0195L5.33203 15Q4.01367 15 2.97363 14.458Q1.93359 13.916 1.33301 12.998Q0.732422 12.0801 0.732422 10.957Q0.732422 9.96094 1.11328 9.15527Q1.49414 8.34961 2.22656 7.87598Q2.95898 7.40234 3.98438 7.40234Q4.14062 7.40234 4.14062 7.23633Q4.14062 6.2207 4.50684 5.47852Q4.87305 4.73633 5.49805 4.30664Q6.12305 3.87695 6.89453 3.79883Q7.66602 3.7207 8.44727 4.04297Q8.58398 4.0918 8.66211 3.95508Q9.14062 3.10547 9.8291 2.36328Q10.5176 1.62109 11.4648 1.17188Q12.4121 0.722656 13.7109 0.722656Q15.3027 0.722656 16.5723 1.48438Q17.8418 2.24609 18.6182 3.54004Q19.3945 4.83398 19.5117 6.44531Q19.5312 6.69922 19.5117 6.9873Q19.4922 7.27539 19.4922 7.56836Q19.4922 7.71484 19.6191 7.74414Q20.9473 8.10547 21.709 9.11133Q22.4707 10.1172 22.4707 11.4551Q22.4707 12.4805 21.9287 13.2861Q21.3867 14.0918 20.459 14.5557Q19.5312 15.0195 18.3691 15.0195ZM10.5859 12.5684Q10.8496 12.5684 10.9668 12.3535L15.459 4.99023Q15.4883 4.93164 15.5225 4.85352Q15.5566 4.77539 15.5566 4.70703Q15.5566 4.53125 15.4346 4.42871Q15.3125 4.32617 15.1465 4.32617Q14.9219 4.32617 14.7949 4.54102L10.5762 11.5332L8.44727 8.94531Q8.31055 8.75977 8.08594 8.75977Q7.94922 8.75977 7.82227 8.86719Q7.69531 8.97461 7.69531 9.16016Q7.69531 9.32617 7.82227 9.48242L10.1953 12.3633Q10.293 12.4805 10.3857 12.5244Q10.4785 12.5684 10.5859 12.5684Z" fill="#ffffff"/>
 </g>
</svg>
