<?xml version="1.0" encoding="UTF-8"?>
<!--Generator: Apple Native CoreSVG 175-->
<!DOCTYPE svg
PUBLIC "-//W3C//DTD SVG 1.1//EN"
       "http://www.w3.org/Graphics/SVG/1.1/DTD/svg11.dtd">
<svg version="1.1" xmlns="http://www.w3.org/2000/svg" xmlns:xlink="http://www.w3.org/1999/xlink" width="21.3379" height="21.3965">
 <g>
  <rect height="21.3965" opacity="0" width="21.3379" x="0" y="0"/>
  <path d="M4.56055 18.6719L7.01172 18.6719Q7.36328 18.6719 7.59766 18.916L9.3457 20.6445Q10.0488 21.3477 10.6641 21.3477Q11.2793 21.3477 11.9922 20.6445L13.7305 18.916Q13.9746 18.6719 14.3262 18.6719L16.7676 18.6719Q17.7832 18.6719 18.2227 18.2324Q18.6621 17.793 18.6621 16.7871L18.6621 14.3359Q18.6621 14.0039 18.8965 13.75L20.6348 12.002Q21.3379 11.2988 21.3379 10.6836Q21.3379 10.0684 20.6348 9.35547L18.8965 7.60742Q18.6621 7.35352 18.6621 7.03125L18.6621 4.58008Q18.6621 3.57422 18.2227 3.12988Q17.7832 2.68555 16.7676 2.68555L14.3262 2.68555Q13.9746 2.68555 13.7305 2.45117L11.9922 0.722656Q11.2695 0 10.6592 0Q10.0488 0 9.33594 0.722656L7.59766 2.45117Q7.36328 2.68555 7.01172 2.68555L4.56055 2.68555Q3.55469 2.68555 3.11523 3.125Q2.67578 3.56445 2.67578 4.58008L2.67578 7.03125Q2.67578 7.35352 2.43164 7.60742L0.703125 9.35547Q0 10.0684 0 10.6836Q0 11.2988 0.703125 12.002L2.43164 13.75Q2.67578 14.0039 2.67578 14.3359L2.67578 16.7871Q2.67578 17.793 3.11523 18.2324Q3.55469 18.6719 4.56055 18.6719ZM4.56055 17.959Q3.85742 17.959 3.62793 17.7197Q3.39844 17.4805 3.39844 16.7871L3.39844 14.0527Q3.39844 13.6816 3.13477 13.418L1.21094 11.5039Q0.712891 11.0059 0.712891 10.6836Q0.712891 10.3613 1.21094 9.86328L3.13477 7.94922Q3.39844 7.68555 3.39844 7.30469L3.39844 4.58008Q3.39844 3.87695 3.62305 3.64258Q3.84766 3.4082 4.56055 3.4082L7.28516 3.4082Q7.66602 3.4082 7.92969 3.14453L9.84375 1.2207Q10.3418 0.732422 10.6641 0.732422Q10.9863 0.732422 11.4844 1.2207L13.4082 3.14453Q13.6719 3.4082 14.043 3.4082L16.7676 3.4082Q17.4707 3.4082 17.7051 3.64746Q17.9395 3.88672 17.9395 4.58008L17.9395 7.30469Q17.9395 7.68555 18.2031 7.94922L20.127 9.86328Q20.6152 10.3613 20.6152 10.6836Q20.6152 11.0059 20.127 11.5039L18.2031 13.418Q17.9395 13.6816 17.9395 14.0527L17.9395 16.7871Q17.9395 17.4805 17.7051 17.7197Q17.4707 17.959 16.7676 17.959L14.043 17.959Q13.6719 17.959 13.4082 18.2227L11.4844 20.1465Q10.9863 20.6348 10.6641 20.6348Q10.3418 20.6348 9.84375 20.1465L7.92969 18.2227Q7.66602 17.959 7.28516 17.959ZM9.62891 15.3027Q9.83398 15.3027 9.99023 15.1172L15.1074 7.17773Q15.1367 7.11914 15.166 7.0459Q15.1953 6.97266 15.1953 6.91406Q15.1953 6.76758 15.083 6.66504Q14.9707 6.5625 14.834 6.5625Q14.6484 6.5625 14.502 6.76758L9.61914 14.375L6.92383 11.2305Q6.85547 11.1328 6.77246 11.0938Q6.68945 11.0547 6.5918 11.0547Q6.44531 11.0547 6.33789 11.1572Q6.23047 11.2598 6.23047 11.416Q6.23047 11.5527 6.34766 11.7188L9.25781 15.1172Q9.33594 15.2148 9.42383 15.2588Q9.51172 15.3027 9.62891 15.3027Z" fill="rgba(0,0,0,0.85)"/>
 </g>
</svg>
