<?xml version="1.0" encoding="UTF-8"?>
<!--Generator: Apple Native CoreSVG 175-->
<!DOCTYPE svg
PUBLIC "-//W3C//DTD SVG 1.1//EN"
       "http://www.w3.org/Graphics/SVG/1.1/DTD/svg11.dtd">
<svg version="1.1" xmlns="http://www.w3.org/2000/svg" xmlns:xlink="http://www.w3.org/1999/xlink" width="15.7812" height="20.6738">
 <g>
  <rect height="20.6738" opacity="0" width="15.7812" x="0" y="0"/>
  <path d="M0 18.0371Q0 19.3359 0.664062 20.0049Q1.32812 20.6738 2.62695 20.6738L13.1543 20.6738Q14.4434 20.6738 15.1123 20.0049Q15.7812 19.3359 15.7812 18.0371L15.7812 2.66602Q15.7812 1.36719 15.1123 0.698242Q14.4434 0.0292969 13.1543 0.0292969L2.62695 0.0292969Q1.32812 0.0292969 0.664062 0.698242Q0 1.36719 0 2.66602ZM0.732422 18.0176L0.732422 2.68555Q0.732422 1.73828 1.21582 1.24512Q1.69922 0.751953 2.66602 0.751953L13.1152 0.751953Q14.0723 0.751953 14.5605 1.24512Q15.0488 1.73828 15.0488 2.68555L15.0488 18.0176Q15.0488 18.9648 14.5605 19.4531Q14.0723 19.9414 13.1152 19.9414L2.66602 19.9414Q1.69922 19.9414 1.21582 19.4531Q0.732422 18.9648 0.732422 18.0176ZM6.85547 14.9609Q7.06055 14.9609 7.2168 14.7754L12.334 6.83594Q12.3633 6.77734 12.3926 6.7041Q12.4219 6.63086 12.4219 6.57227Q12.4219 6.42578 12.3096 6.32324Q12.1973 6.2207 12.0605 6.2207Q11.875 6.2207 11.7285 6.42578L6.8457 14.0332L4.15039 10.8887Q4.08203 10.791 3.99902 10.752Q3.91602 10.7129 3.81836 10.7129Q3.67188 10.7129 3.56445 10.8154Q3.45703 10.918 3.45703 11.0742Q3.45703 11.2109 3.57422 11.377L6.48438 14.7754Q6.5625 14.873 6.65039 14.917Q6.73828 14.9609 6.85547 14.9609Z" fill="#ffffff"/>
 </g>
</svg>
