<?xml version="1.0" encoding="UTF-8"?>
<!--Generator: Apple Native CoreSVG 175.5-->
<!DOCTYPE svg
PUBLIC "-//W3C//DTD SVG 1.1//EN"
       "http://www.w3.org/Graphics/SVG/1.1/DTD/svg11.dtd">
<svg version="1.1" xmlns="http://www.w3.org/2000/svg" xmlns:xlink="http://www.w3.org/1999/xlink" width="17.9785" height="17.998">
 <g>
  <rect height="17.998" opacity="0" width="17.9785" x="0" y="0"/>
  <path d="M3.06641 17.998L14.9121 17.998Q16.4453 17.998 17.2119 17.2412Q17.9785 16.4844 17.9785 14.9707L17.9785 3.04688Q17.9785 1.5332 17.2119 0.776367Q16.4453 0.0195312 14.9121 0.0195312L3.06641 0.0195312Q1.5332 0.0195312 0.766602 0.776367Q0 1.5332 0 3.04688L0 14.9707Q0 16.4844 0.766602 17.2412Q1.5332 17.998 3.06641 17.998Z" fill="#ffffff"/>
  <path d="M10.0195 12.2168Q9.69727 12.5488 9.35547 12.6611Q9.01367 12.7734 8.67188 12.6611Q8.33008 12.5488 8.00781 12.2168L4.0625 8.01758Q3.83789 7.7832 3.82812 7.47559Q3.81836 7.16797 4.02344 6.95312Q4.25781 6.70898 4.58008 6.7041Q4.90234 6.69922 5.11719 6.93359L9.01367 11.0645L12.9102 6.93359Q13.125 6.69922 13.4424 6.70898Q13.7598 6.71875 13.9941 6.95312Q14.209 7.1582 14.1992 7.4707Q14.1895 7.7832 13.9551 8.01758Z" fill="none"/>
 </g>
</svg>
