<?xml version="1.0" encoding="UTF-8"?>
<!--Generator: Apple Native CoreSVG 175-->
<!DOCTYPE svg
PUBLIC "-//W3C//DTD SVG 1.1//EN"
       "http://www.w3.org/Graphics/SVG/1.1/DTD/svg11.dtd">
<svg version="1.1" xmlns="http://www.w3.org/2000/svg" xmlns:xlink="http://www.w3.org/1999/xlink" width="8.70117" height="15.3418">
 <g>
  <rect height="15.3418" opacity="0" width="8.70117" x="0" y="0"/>
  <path d="M0 7.66602Q0 7.76367 0.0390625 7.83691Q0.078125 7.91016 0.146484 7.97852L8.02734 15.2148Q8.14453 15.332 8.31055 15.332Q8.41797 15.332 8.50586 15.2832Q8.59375 15.2344 8.64746 15.1514Q8.70117 15.0684 8.70117 14.9512Q8.70117 14.7949 8.59375 14.6875L0.947266 7.66602L8.59375 0.644531Q8.70117 0.537109 8.70117 0.380859Q8.70117 0.263672 8.64746 0.175781Q8.59375 0.0878906 8.50586 0.0439453Q8.41797 0 8.31055 0Q8.14453 0 8.02734 0.107422L0.146484 7.35352Q0.078125 7.42188 0.0390625 7.49512Q0 7.56836 0 7.66602Z" fill="#ffffff"/>
 </g>
</svg>
