<?xml version="1.0" encoding="UTF-8"?>
<!--Generator: Apple Native CoreSVG 175.5-->
<!DOCTYPE svg
PUBLIC "-//W3C//DTD SVG 1.1//EN"
       "http://www.w3.org/Graphics/SVG/1.1/DTD/svg11.dtd">
<svg version="1.1" xmlns="http://www.w3.org/2000/svg" xmlns:xlink="http://www.w3.org/1999/xlink" width="17.4121" height="5.3418">
 <g>
  <rect height="5.3418" opacity="0" width="17.4121" x="0" y="0"/>
  <path d="M0.615234 1.8457L7.28516 4.45312Q7.61719 4.58008 7.99805 4.71191Q8.37891 4.84375 8.71094 4.84375Q9.0332 4.84375 9.41406 4.71191Q9.79492 4.58008 10.1367 4.45312L16.7969 1.8457Q17.0801 1.72852 17.2461 1.50391Q17.4121 1.2793 17.4121 1.00586Q17.4121 0.576172 17.1289 0.288086Q16.8457 0 16.4258 0Q16.2109 0 15.9473 0.0927734Q15.6836 0.185547 15.498 0.253906L8.01758 3.19336L9.39453 3.19336L1.91406 0.253906Q1.72852 0.185547 1.46973 0.0927734Q1.21094 0 0.986328 0Q0.566406 0 0.283203 0.288086Q0 0.576172 0 1.00586Q0 1.2793 0.166016 1.50391Q0.332031 1.72852 0.615234 1.8457Z" fill="#ffffff"/>
 </g>
</svg>
