<?xml version="1.0" encoding="UTF-8"?>
<!--Generator: Apple Native CoreSVG 175.5-->
<!DOCTYPE svg
PUBLIC "-//W3C//DTD SVG 1.1//EN"
       "http://www.w3.org/Graphics/SVG/1.1/DTD/svg11.dtd">
<svg version="1.1" xmlns="http://www.w3.org/2000/svg" xmlns:xlink="http://www.w3.org/1999/xlink" width="17.9785" height="17.998">
 <g>
  <rect height="17.998" opacity="0" width="17.9785" x="0" y="0"/>
  <path d="M3.06641 17.998L14.9121 17.998Q16.4453 17.998 17.2119 17.2412Q17.9785 16.4844 17.9785 14.9707L17.9785 3.04688Q17.9785 1.5332 17.2119 0.776367Q16.4453 0.0195312 14.9121 0.0195312L3.06641 0.0195312Q1.5332 0.0195312 0.766602 0.776367Q0 1.5332 0 3.04688L0 14.9707Q0 16.4844 0.766602 17.2412Q1.5332 17.998 3.06641 17.998Z" fill="#ffffff"/>
  <path d="M10.9277 13.8184Q10.7324 14.0039 10.415 13.9941Q10.0977 13.9844 9.89258 13.7891L5.82031 9.95117Q5.54688 9.69727 5.4541 9.3457Q5.36133 8.99414 5.4541 8.64258Q5.54688 8.29102 5.82031 8.03711L9.89258 4.20898Q10.1172 3.99414 10.415 3.98438Q10.7129 3.97461 10.918 4.17969Q11.1426 4.38477 11.1523 4.69727Q11.1621 5.00977 10.9375 5.22461L6.92383 8.99414L10.9375 12.7734Q11.1523 12.9785 11.1523 13.291Q11.1523 13.6035 10.9277 13.8184Z" fill="none"/>
 </g>
</svg>
