<?xml version="1.0" encoding="UTF-8"?>
<!--Generator: Apple Native CoreSVG 175.5-->
<!DOCTYPE svg
PUBLIC "-//W3C//DTD SVG 1.1//EN"
       "http://www.w3.org/Graphics/SVG/1.1/DTD/svg11.dtd">
<svg version="1.1" xmlns="http://www.w3.org/2000/svg" xmlns:xlink="http://www.w3.org/1999/xlink" width="18.2812" height="16.9824">
 <g>
  <rect height="16.9824" opacity="0" width="18.2812" x="0" y="0"/>
  <path d="M0.888672 16.9629Q1.08398 16.9629 1.24512 16.8945Q1.40625 16.8262 1.5332 16.6992L9.26758 9.14062Q9.55078 8.85742 9.55078 8.48633Q9.55078 8.30078 9.47754 8.125Q9.4043 7.94922 9.26758 7.83203L1.52344 0.263672Q1.25977 0 0.888672 0Q0.634766 0 0.43457 0.117188Q0.234375 0.234375 0.117188 0.439453Q0 0.644531 0 0.898438Q0 1.25977 0.253906 1.5332L7.90039 9.00391L7.90039 7.95898L0.253906 15.4395Q0 15.7129 0 16.0742Q0 16.3281 0.117188 16.5283Q0.234375 16.7285 0.43457 16.8457Q0.634766 16.9629 0.888672 16.9629Z" fill="#ffffff"/>
  <path d="M9.61914 16.9629Q9.80469 16.9629 9.96582 16.8945Q10.127 16.8262 10.2539 16.6992L17.9883 9.14062Q18.2812 8.85742 18.2812 8.48633Q18.2812 8.30078 18.2031 8.125Q18.125 7.94922 17.9883 7.83203L10.2539 0.263672Q9.98047 0 9.61914 0Q9.36523 0 9.16504 0.117188Q8.96484 0.234375 8.84277 0.439453Q8.7207 0.644531 8.7207 0.898438Q8.7207 1.25977 8.98438 1.5332L16.6211 9.00391L16.6211 7.95898L8.98438 15.4395Q8.7207 15.7129 8.7207 16.0742Q8.7207 16.3281 8.84277 16.5283Q8.96484 16.7285 9.16504 16.8457Q9.36523 16.9629 9.61914 16.9629Z" fill="#ffffff"/>
 </g>
</svg>
