<?xml version="1.0" encoding="UTF-8"?>
<!--Generator: Apple Native CoreSVG 175.5-->
<!DOCTYPE svg
PUBLIC "-//W3C//DTD SVG 1.1//EN"
       "http://www.w3.org/Graphics/SVG/1.1/DTD/svg11.dtd">
<svg version="1.1" xmlns="http://www.w3.org/2000/svg" xmlns:xlink="http://www.w3.org/1999/xlink" width="18.2812" height="16.9824">
 <g>
  <rect height="16.9824" opacity="0" width="18.2812" x="0" y="0"/>
  <path d="M16.748 16.6992Q16.875 16.8262 17.0361 16.8945Q17.1973 16.9629 17.3828 16.9629Q17.6367 16.9629 17.8418 16.8457Q18.0469 16.7285 18.1641 16.5283Q18.2812 16.3281 18.2812 16.0742Q18.2812 15.7129 18.0176 15.4395L10.3809 7.95898L10.3809 9.00391L18.0176 1.5332Q18.2812 1.25977 18.2812 0.898438Q18.2812 0.644531 18.1641 0.439453Q18.0469 0.234375 17.8418 0.117188Q17.6367 0 17.3828 0Q17.0215 0 16.748 0.263672L9.01367 7.83203Q8.87695 7.94922 8.79883 8.125Q8.7207 8.30078 8.7207 8.48633Q8.7207 8.85742 9.01367 9.14062Z" fill="#ffffff"/>
  <path d="M8.02734 16.6992Q8.1543 16.8262 8.31055 16.8945Q8.4668 16.9629 8.66211 16.9629Q8.91602 16.9629 9.11621 16.8457Q9.31641 16.7285 9.43359 16.5283Q9.55078 16.3281 9.55078 16.0742Q9.55078 15.7129 9.29688 15.4395L1.65039 7.95898L1.65039 9.00391L9.29688 1.5332Q9.55078 1.25977 9.55078 0.898438Q9.55078 0.644531 9.43359 0.439453Q9.31641 0.234375 9.11621 0.117188Q8.91602 0 8.66211 0Q8.29102 0 8.02734 0.263672L0.292969 7.83203Q0.146484 7.94922 0.0732422 8.125Q0 8.30078 0 8.48633Q0 8.85742 0.283203 9.14062Z" fill="#ffffff"/>
 </g>
</svg>
