<?xml version="1.0" encoding="UTF-8"?>
<!--Generator: Apple Native CoreSVG 175-->
<!DOCTYPE svg
PUBLIC "-//W3C//DTD SVG 1.1//EN"
       "http://www.w3.org/Graphics/SVG/1.1/DTD/svg11.dtd">
<svg version="1.1" xmlns="http://www.w3.org/2000/svg" xmlns:xlink="http://www.w3.org/1999/xlink" width="3.85513" height="16.2473">
 <g>
  <rect height="16.2473" opacity="0" width="3.85513" x="0" y="0"/>
  <path d="M3.11325 15.9926Q3.16452 16.1281 3.26393 16.1865Q3.36334 16.245 3.45825 16.245Q3.63052 16.245 3.74283 16.1305Q3.85513 16.0161 3.85513 15.8394Q3.85513 15.7555 3.82561 15.6527Q3.79608 15.5499 3.76022 15.4601L0.680084 7.87415L0.680084 8.36792L3.76022 0.782013Q3.79608 0.694885 3.82561 0.592957Q3.85513 0.491028 3.85513 0.402679Q3.85513 0.226135 3.74283 0.113068Q3.63052 0 3.45825 0Q3.36334 0 3.26393 0.0569916Q3.16452 0.113983 3.11325 0.249634L0.15152 7.53555Q0.0921631 7.67059 0.0460815 7.83134Q0 7.9921 0 8.12454Q0 8.24997 0.0460815 8.40935Q0.0921631 8.56873 0.15152 8.70667Z" fill="rgba(0,0,0,0.85)"/>
 </g>
</svg>
