<?xml version="1.0" encoding="UTF-8"?>
<!--Generator: Apple Native CoreSVG 175-->
<!DOCTYPE svg
PUBLIC "-//W3C//DTD SVG 1.1//EN"
       "http://www.w3.org/Graphics/SVG/1.1/DTD/svg11.dtd">
<svg version="1.1" xmlns="http://www.w3.org/2000/svg" xmlns:xlink="http://www.w3.org/1999/xlink" width="17.2852" height="17.3145">
 <g>
  <rect height="17.3145" opacity="0" width="17.2852" x="0" y="0"/>
  <path d="M2.62695 17.3145L14.6484 17.3145Q15.957 17.3145 16.6211 16.6455Q17.2852 15.9766 17.2852 14.6875L17.2852 2.65625Q17.2852 1.37695 16.6211 0.703125Q15.957 0.0292969 14.6484 0.0292969L2.62695 0.0292969Q1.33789 0.0292969 0.668945 0.693359Q0 1.35742 0 2.65625L0 14.6875Q0 15.9863 0.668945 16.6504Q1.33789 17.3145 2.62695 17.3145ZM2.65625 16.5918Q1.70898 16.5918 1.2207 16.1035Q0.732422 15.6152 0.732422 14.6582L0.732422 2.69531Q0.732422 1.72852 1.2207 1.24512Q1.70898 0.761719 2.65625 0.761719L14.6289 0.761719Q15.5566 0.761719 16.0596 1.24512Q16.5625 1.72852 16.5625 2.69531L16.5625 14.6582Q16.5625 15.6152 16.0596 16.1035Q15.5566 16.5918 14.6289 16.5918ZM6.58203 13.3984Q6.67969 13.5059 6.82617 13.5059Q6.97266 13.5059 7.08984 13.3984L11.5234 9.07227Q11.6602 8.94531 11.7041 8.78906Q11.748 8.63281 11.709 8.48145Q11.6699 8.33008 11.5234 8.20312L7.08984 3.87695Q6.97266 3.75977 6.83105 3.76465Q6.68945 3.76953 6.58203 3.86719Q6.47461 3.96484 6.47461 4.11621Q6.47461 4.26758 6.5918 4.375L10.957 8.63281L6.5918 12.8906Q6.47461 12.9883 6.47949 13.1396Q6.48438 13.291 6.58203 13.3984Z" fill="rgba(0,0,0,0.85)"/>
 </g>
</svg>
