<?xml version="1.0" encoding="UTF-8"?>
<!--Generator: Apple Native CoreSVG 175-->
<!DOCTYPE svg
PUBLIC "-//W3C//DTD SVG 1.1//EN"
       "http://www.w3.org/Graphics/SVG/1.1/DTD/svg11.dtd">
<svg version="1.1" xmlns="http://www.w3.org/2000/svg" xmlns:xlink="http://www.w3.org/1999/xlink" width="8.70117" height="15.3418">
 <g>
  <rect height="15.3418" opacity="0" width="8.70117" x="0" y="0"/>
  <path d="M8.70117 7.66602Q8.70117 7.56836 8.66211 7.49512Q8.62305 7.42188 8.55469 7.35352L0.664062 0.107422Q0.556641 0 0.380859 0Q0.283203 0 0.195312 0.0439453Q0.107422 0.0878906 0.0537109 0.175781Q0 0.263672 0 0.380859Q0 0.537109 0.0976562 0.644531L7.75391 7.66602L0.0976562 14.6875Q0 14.7949 0 14.9512Q0 15.0684 0.0537109 15.1514Q0.107422 15.2344 0.195312 15.2832Q0.283203 15.332 0.380859 15.332Q0.556641 15.332 0.664062 15.2148L8.55469 7.97852Q8.62305 7.91016 8.66211 7.83691Q8.70117 7.76367 8.70117 7.66602Z" fill="#ffffff"/>
 </g>
</svg>
