<?xml version="1.0" encoding="UTF-8"?>
<!--Generator: Apple Native CoreSVG 175.5-->
<!DOCTYPE svg
PUBLIC "-//W3C//DTD SVG 1.1//EN"
       "http://www.w3.org/Graphics/SVG/1.1/DTD/svg11.dtd">
<svg version="1.1" xmlns="http://www.w3.org/2000/svg" xmlns:xlink="http://www.w3.org/1999/xlink" width="20.8496" height="19.3652">
 <g>
  <rect height="19.3652" opacity="0" width="20.8496" x="0" y="0"/>
  <path d="M6.8457 6.51367Q7.73438 6.51367 8.47656 6.07422Q9.21875 5.63477 9.66309 4.89258Q10.1074 4.15039 10.1074 3.26172Q10.1074 2.37305 9.66309 1.63086Q9.21875 0.888672 8.47656 0.444336Q7.73438 0 6.8457 0Q5.95703 0 5.21484 0.444336Q4.47266 0.888672 4.02832 1.63086Q3.58398 2.37305 3.58398 3.26172Q3.58398 4.15039 4.02832 4.89258Q4.47266 5.63477 5.21484 6.07422Q5.95703 6.51367 6.8457 6.51367ZM6.8457 4.94141Q6.38672 4.94141 6.00098 4.71191Q5.61523 4.48242 5.38574 4.10156Q5.15625 3.7207 5.15625 3.26172Q5.15625 2.80273 5.38574 2.41699Q5.61523 2.03125 6.00098 1.80176Q6.38672 1.57227 6.8457 1.57227Q7.30469 1.57227 7.69043 1.80176Q8.07617 2.03125 8.30566 2.41699Q8.53516 2.80273 8.53516 3.26172Q8.53516 3.7207 8.30566 4.10156Q8.07617 4.48242 7.69043 4.71191Q7.30469 4.94141 6.8457 4.94141ZM14.0039 6.51367Q14.8926 6.51367 15.6348 6.07422Q16.377 5.63477 16.8213 4.89258Q17.2656 4.15039 17.2656 3.26172Q17.2656 2.37305 16.8213 1.63086Q16.377 0.888672 15.6348 0.444336Q14.8926 0 14.0039 0Q13.1152 0 12.373 0.444336Q11.6309 0.888672 11.1865 1.63086Q10.7422 2.37305 10.7422 3.26172Q10.7422 4.15039 11.1865 4.89258Q11.6309 5.63477 12.373 6.07422Q13.1152 6.51367 14.0039 6.51367ZM14.0039 4.94141Q13.5449 4.94141 13.1592 4.71191Q12.7734 4.48242 12.5439 4.10156Q12.3145 3.7207 12.3145 3.26172Q12.3145 2.80273 12.5439 2.41699Q12.7734 2.03125 13.1592 1.80176Q13.5449 1.57227 14.0039 1.57227Q14.4629 1.57227 14.8486 1.80176Q15.2344 2.03125 15.4639 2.41699Q15.6934 2.80273 15.6934 3.26172Q15.6934 3.7207 15.4639 4.10156Q15.2344 4.48242 14.8486 4.71191Q14.4629 4.94141 14.0039 4.94141ZM3.26172 12.9395Q4.15039 12.9395 4.89258 12.4951Q5.63477 12.0508 6.08398 11.3086Q6.5332 10.5664 6.5332 9.67773Q6.5332 8.78906 6.08398 8.04688Q5.63477 7.30469 4.89258 6.86035Q4.15039 6.41602 3.26172 6.41602Q2.37305 6.41602 1.63086 6.86035Q0.888672 7.30469 0.444336 8.04688Q0 8.78906 0 9.67773Q0 10.5664 0.444336 11.3086Q0.888672 12.0508 1.63086 12.4951Q2.37305 12.9395 3.26172 12.9395ZM3.26172 11.3672Q2.80273 11.3672 2.41699 11.1377Q2.03125 10.9082 1.80176 10.5225Q1.57227 10.1367 1.57227 9.67773Q1.57227 9.21875 1.80176 8.83301Q2.03125 8.44727 2.41699 8.21777Q2.80273 7.98828 3.26172 7.98828Q3.7207 7.98828 4.10645 8.21777Q4.49219 8.44727 4.72656 8.83301Q4.96094 9.21875 4.96094 9.67773Q4.96094 10.1367 4.72656 10.5225Q4.49219 10.9082 4.10645 11.1377Q3.7207 11.3672 3.26172 11.3672ZM10.4297 12.9395Q11.3184 12.9395 12.0605 12.4951Q12.8027 12.0508 13.2471 11.3086Q13.6914 10.5664 13.6914 9.67773Q13.6914 8.78906 13.2471 8.04688Q12.8027 7.30469 12.0605 6.86035Q11.3184 6.41602 10.4297 6.41602Q9.53125 6.41602 8.78906 6.86035Q8.04688 7.30469 7.60254 8.04688Q7.1582 8.78906 7.1582 9.67773Q7.1582 10.5664 7.60254 11.3086Q8.04688 12.0508 8.78906 12.4951Q9.53125 12.9395 10.4297 12.9395ZM10.4297 11.3672Q9.96094 11.3672 9.58008 11.1377Q9.19922 10.9082 8.96484 10.5225Q8.73047 10.1367 8.73047 9.67773Q8.73047 9.21875 8.96484 8.83301Q9.19922 8.44727 9.58008 8.21777Q9.96094 7.98828 10.4297 7.98828Q10.8887 7.98828 11.2695 8.21777Q11.6504 8.44727 11.8848 8.83301Q12.1191 9.21875 12.1191 9.67773Q12.1191 10.1367 11.8848 10.5225Q11.6504 10.9082 11.2695 11.1377Q10.8887 11.3672 10.4297 11.3672ZM17.5879 12.9395Q18.4766 12.9395 19.2188 12.4951Q19.9609 12.0508 20.4053 11.3086Q20.8496 10.5664 20.8496 9.67773Q20.8496 8.78906 20.4053 8.04688Q19.9609 7.30469 19.2188 6.86035Q18.4766 6.41602 17.5879 6.41602Q16.6992 6.41602 15.957 6.86035Q15.2148 7.30469 14.7656 8.04688Q14.3164 8.78906 14.3164 9.67773Q14.3164 10.5664 14.7656 11.3086Q15.2148 12.0508 15.957 12.4951Q16.6992 12.9395 17.5879 12.9395ZM17.5879 11.3672Q17.1289 11.3672 16.7432 11.1377Q16.3574 10.9082 16.123 10.5225Q15.8887 10.1367 15.8887 9.67773Q15.8887 9.21875 16.123 8.83301Q16.3574 8.44727 16.7432 8.21777Q17.1289 7.98828 17.5879 7.98828Q18.0469 7.98828 18.4326 8.21777Q18.8184 8.44727 19.0479 8.83301Q19.2773 9.21875 19.2773 9.67773Q19.2773 10.1367 19.0479 10.5225Q18.8184 10.9082 18.4326 11.1377Q18.0469 11.3672 17.5879 11.3672ZM6.8457 19.3555Q7.73438 19.3555 8.47656 18.9062Q9.21875 18.457 9.66309 17.7148Q10.1074 16.9727 10.1074 16.0938Q10.1074 15.2051 9.66309 14.4629Q9.21875 13.7207 8.47656 13.2764Q7.73438 12.832 6.8457 12.832Q5.95703 12.832 5.21484 13.2764Q4.47266 13.7207 4.02832 14.4629Q3.58398 15.2051 3.58398 16.0938Q3.58398 16.9824 4.02832 17.7246Q4.47266 18.4668 5.21484 18.9111Q5.95703 19.3555 6.8457 19.3555ZM6.8457 17.7832Q6.38672 17.7832 6.00098 17.5537Q5.61523 17.3242 5.38574 16.9385Q5.15625 16.5527 5.15625 16.0938Q5.15625 15.6348 5.38574 15.2539Q5.61523 14.873 6.00098 14.6387Q6.38672 14.4043 6.8457 14.4043Q7.30469 14.4043 7.69043 14.6387Q8.07617 14.873 8.30566 15.2539Q8.53516 15.6348 8.53516 16.0938Q8.53516 16.5527 8.30566 16.9385Q8.07617 17.3242 7.69043 17.5537Q7.30469 17.7832 6.8457 17.7832ZM14.0039 19.3555Q14.8926 19.3555 15.6348 18.9111Q16.377 18.4668 16.8213 17.7246Q17.2656 16.9824 17.2656 16.0938Q17.2656 15.2051 16.8213 14.4629Q16.377 13.7207 15.6348 13.2764Q14.8926 12.832 14.0039 12.832Q13.1152 12.832 12.373 13.2764Q11.6309 13.7207 11.1865 14.4629Q10.7422 15.2051 10.7422 16.0938Q10.7422 16.9824 11.1865 17.7246Q11.6309 18.4668 12.373 18.9111Q13.1152 19.3555 14.0039 19.3555ZM14.0039 17.7832Q13.5449 17.7832 13.1592 17.5537Q12.7734 17.3242 12.5439 16.9385Q12.3145 16.5527 12.3145 16.0938Q12.3145 15.6348 12.5439 15.2539Q12.7734 14.873 13.1592 14.6387Q13.5449 14.4043 14.0039 14.4043Q14.4629 14.4043 14.8486 14.6387Q15.2344 14.873 15.4639 15.2539Q15.6934 15.6348 15.6934 16.0938Q15.6934 16.5527 15.4639 16.9385Q15.2344 17.3242 14.8486 17.5537Q14.4629 17.7832 14.0039 17.7832Z" fill="#ffffff"/>
 </g>
</svg>
