<?xml version="1.0" encoding="UTF-8"?>
<!--Generator: Apple Native CoreSVG 175.5-->
<!DOCTYPE svg
PUBLIC "-//W3C//DTD SVG 1.1//EN"
       "http://www.w3.org/Graphics/SVG/1.1/DTD/svg11.dtd">
<svg version="1.1" xmlns="http://www.w3.org/2000/svg" xmlns:xlink="http://www.w3.org/1999/xlink" width="19.2578" height="18.5449">
 <g>
  <rect height="18.5449" opacity="0" width="19.2578" x="0" y="0"/>
  <path d="M4.25781 8.50586Q5.42969 8.50586 6.3916 7.9248Q7.35352 7.34375 7.93457 6.37695Q8.51562 5.41016 8.51562 4.24805Q8.51562 3.08594 7.93457 2.11914Q7.35352 1.15234 6.3916 0.576172Q5.42969 0 4.25781 0Q3.08594 0 2.11914 0.576172Q1.15234 1.15234 0.576172 2.11914Q0 3.08594 0 4.24805Q0 5.41016 0.576172 6.37695Q1.15234 7.34375 2.11914 7.9248Q3.08594 8.50586 4.25781 8.50586ZM4.25781 6.96289Q3.48633 6.96289 2.87109 6.60156Q2.25586 6.24023 1.88965 5.625Q1.52344 5.00977 1.52344 4.24805Q1.52344 3.48633 1.88965 2.86133Q2.25586 2.23633 2.87109 1.86523Q3.48633 1.49414 4.25781 1.49414Q5.01953 1.49414 5.63965 1.86523Q6.25977 2.23633 6.62109 2.86133Q6.98242 3.48633 6.98242 4.24805Q6.98242 5.00977 6.62109 5.625Q6.25977 6.24023 5.63965 6.60156Q5.01953 6.96289 4.25781 6.96289ZM15.0098 8.50586Q16.1719 8.50586 17.1387 7.9248Q18.1055 7.34375 18.6816 6.37695Q19.2578 5.41016 19.2578 4.24805Q19.2578 3.08594 18.6816 2.11914Q18.1055 1.15234 17.1387 0.576172Q16.1719 0 15.0098 0Q13.8281 0 12.8613 0.576172Q11.8945 1.15234 11.3232 2.11914Q10.752 3.08594 10.752 4.24805Q10.752 5.41016 11.3232 6.37695Q11.8945 7.34375 12.8613 7.9248Q13.8281 8.50586 15.0098 8.50586ZM15.0098 6.96289Q14.2383 6.96289 13.6182 6.60156Q12.998 6.24023 12.6367 5.625Q12.2754 5.00977 12.2754 4.24805Q12.2754 3.48633 12.6367 2.86133Q12.998 2.23633 13.6182 1.86523Q14.2383 1.49414 15.0098 1.49414Q15.7715 1.49414 16.3867 1.86523Q17.002 2.23633 17.3682 2.86133Q17.7344 3.48633 17.7344 4.24805Q17.7344 5.00977 17.3682 5.625Q17.002 6.24023 16.3867 6.60156Q15.7715 6.96289 15.0098 6.96289ZM4.25781 18.5449Q5.42969 18.5449 6.3916 17.9688Q7.35352 17.3926 7.93457 16.4258Q8.51562 15.459 8.51562 14.2871Q8.51562 13.125 7.93457 12.1631Q7.35352 11.2012 6.3916 10.6201Q5.42969 10.0391 4.25781 10.0391Q3.08594 10.0391 2.11914 10.6201Q1.15234 11.2012 0.576172 12.1631Q0 13.125 0 14.2871Q0 15.459 0.576172 16.4258Q1.15234 17.3926 2.11914 17.9688Q3.08594 18.5449 4.25781 18.5449ZM4.25781 17.0117Q3.48633 17.0117 2.87109 16.6504Q2.25586 16.2891 1.88965 15.6738Q1.52344 15.0586 1.52344 14.2871Q1.52344 13.5254 1.88965 12.9004Q2.25586 12.2754 2.87109 11.9043Q3.48633 11.5332 4.25781 11.5332Q5.01953 11.5332 5.63965 11.9043Q6.25977 12.2754 6.62109 12.9004Q6.98242 13.5254 6.98242 14.2871Q6.98242 15.0586 6.62109 15.6738Q6.25977 16.2891 5.63965 16.6504Q5.01953 17.0117 4.25781 17.0117ZM15.0098 18.5449Q16.1719 18.5449 17.1387 17.9688Q18.1055 17.3926 18.6816 16.4258Q19.2578 15.459 19.2578 14.2871Q19.2578 13.125 18.6816 12.1631Q18.1055 11.2012 17.1387 10.6201Q16.1719 10.0391 15.0098 10.0391Q13.8281 10.0391 12.8613 10.6201Q11.8945 11.2012 11.3232 12.1631Q10.752 13.125 10.752 14.2871Q10.752 15.459 11.3232 16.4258Q11.8945 17.3926 12.8613 17.9688Q13.8281 18.5449 15.0098 18.5449ZM15.0098 17.0117Q14.2383 17.0117 13.6182 16.6504Q12.998 16.2891 12.6367 15.6738Q12.2754 15.0586 12.2754 14.2871Q12.2754 13.5254 12.6367 12.9004Q12.998 12.2754 13.6182 11.9043Q14.2383 11.5332 15.0098 11.5332Q15.7715 11.5332 16.3867 11.9043Q17.002 12.2754 17.3682 12.9004Q17.7344 13.5254 17.7344 14.2871Q17.7344 15.0586 17.3682 15.6738Q17.002 16.2891 16.3867 16.6504Q15.7715 17.0117 15.0098 17.0117Z" fill="#ffffff"/>
 </g>
</svg>
