<?xml version="1.0" encoding="UTF-8"?>
<!--Generator: Apple Native CoreSVG 175.5-->
<!DOCTYPE svg
PUBLIC "-//W3C//DTD SVG 1.1//EN"
       "http://www.w3.org/Graphics/SVG/1.1/DTD/svg11.dtd">
<svg version="1.1" xmlns="http://www.w3.org/2000/svg" xmlns:xlink="http://www.w3.org/1999/xlink" width="19.9219" height="19.9316">
 <g>
  <rect height="19.9316" opacity="0" width="19.9219" x="0" y="0"/>
  <path d="M9.96094 19.9219Q12.002 19.9219 13.8037 19.1406Q15.6055 18.3594 16.9824 16.9824Q18.3594 15.6055 19.1406 13.8037Q19.9219 12.002 19.9219 9.96094Q19.9219 7.91992 19.1406 6.11816Q18.3594 4.31641 16.9824 2.93945Q15.6055 1.5625 13.7988 0.78125Q11.9922 0 9.95117 0Q7.91016 0 6.1084 0.78125Q4.30664 1.5625 2.93457 2.93945Q1.5625 4.31641 0.78125 6.11816Q0 7.91992 0 9.96094Q0 12.002 0.78125 13.8037Q1.5625 15.6055 2.93945 16.9824Q4.31641 18.3594 6.11816 19.1406Q7.91992 19.9219 9.96094 19.9219ZM9.96094 18.2617Q8.23242 18.2617 6.72852 17.6172Q5.22461 16.9727 4.08691 15.835Q2.94922 14.6973 2.30957 13.1934Q1.66992 11.6895 1.66992 9.96094Q1.66992 8.23242 2.30957 6.72852Q2.94922 5.22461 4.08203 4.08203Q5.21484 2.93945 6.71875 2.2998Q8.22266 1.66016 9.95117 1.66016Q11.6797 1.66016 13.1885 2.2998Q14.6973 2.93945 15.835 4.08203Q16.9727 5.22461 17.6172 6.72852Q18.2617 8.23242 18.2617 9.96094Q18.2617 11.6895 17.6221 13.1934Q16.9824 14.6973 15.8398 15.835Q14.6973 16.9727 13.1934 17.6172Q11.6895 18.2617 9.96094 18.2617Z" fill="#ffffff"/>
  <path d="M6.54297 8.11523Q7.09961 8.11523 7.49512 7.71484Q7.89062 7.31445 7.89062 6.76758Q7.89062 6.21094 7.49512 5.81055Q7.09961 5.41016 6.54297 5.41016Q5.99609 5.41016 5.5957 5.81055Q5.19531 6.21094 5.19531 6.76758Q5.19531 7.31445 5.5957 7.71484Q5.99609 8.11523 6.54297 8.11523ZM9.95117 8.11523Q10.5078 8.11523 10.9082 7.71484Q11.3086 7.31445 11.3086 6.76758Q11.3086 6.20117 10.9082 5.80566Q10.5078 5.41016 9.95117 5.41016Q9.39453 5.41992 8.99902 5.81055Q8.60352 6.20117 8.60352 6.76758Q8.60352 7.31445 8.99902 7.71484Q9.39453 8.11523 9.95117 8.11523ZM13.3594 8.11523Q13.916 8.11523 14.3115 7.71484Q14.707 7.31445 14.707 6.76758Q14.707 6.20117 14.3115 5.80566Q13.916 5.41016 13.3594 5.41016Q12.8027 5.41992 12.4121 5.81055Q12.0215 6.20117 12.0215 6.76758Q12.0215 7.31445 12.4121 7.71484Q12.8027 8.11523 13.3594 8.11523ZM6.54297 11.2988Q7.09961 11.2988 7.49512 10.8984Q7.89062 10.498 7.89062 9.95117Q7.89062 9.39453 7.49512 8.99414Q7.09961 8.59375 6.54297 8.60352Q5.99609 8.60352 5.5957 8.99902Q5.19531 9.39453 5.19531 9.95117Q5.19531 10.498 5.5957 10.8984Q5.99609 11.2988 6.54297 11.2988ZM9.95117 11.2988Q10.5078 11.2988 10.9082 10.8984Q11.3086 10.498 11.3086 9.95117Q11.3086 9.39453 10.9082 8.99414Q10.5078 8.59375 9.95117 8.60352Q9.39453 8.60352 8.99902 8.99902Q8.60352 9.39453 8.60352 9.95117Q8.60352 10.498 8.99902 10.8984Q9.39453 11.2988 9.95117 11.2988ZM13.3594 11.2988Q13.916 11.2988 14.3115 10.8984Q14.707 10.498 14.707 9.95117Q14.707 9.39453 14.3115 8.99414Q13.916 8.59375 13.3594 8.60352Q12.8027 8.60352 12.4121 8.99902Q12.0215 9.39453 12.0215 9.95117Q12.0215 10.498 12.4121 10.8984Q12.8027 11.2988 13.3594 11.2988ZM6.54297 14.4922Q7.09961 14.4922 7.49512 14.0967Q7.89062 13.7012 7.89062 13.1348Q7.89062 12.5879 7.49512 12.1875Q7.09961 11.7871 6.54297 11.7871Q5.99609 11.7871 5.5957 12.1875Q5.19531 12.5879 5.19531 13.1348Q5.19531 13.6914 5.5957 14.0918Q5.99609 14.4922 6.54297 14.4922ZM9.95117 14.4922Q10.5078 14.4922 10.9082 14.0918Q11.3086 13.6914 11.3086 13.1348Q11.3086 12.5879 10.9082 12.1875Q10.5078 11.7871 9.95117 11.7871Q9.39453 11.7871 8.99902 12.1875Q8.60352 12.5879 8.60352 13.1348Q8.60352 13.6914 8.99902 14.0918Q9.39453 14.4922 9.95117 14.4922ZM13.3594 14.4922Q13.916 14.4922 14.3115 14.0918Q14.707 13.6914 14.707 13.1348Q14.707 12.5879 14.3115 12.1875Q13.916 11.7871 13.3594 11.7871Q12.8027 11.7871 12.4121 12.1875Q12.0215 12.5879 12.0215 13.1348Q12.0215 13.6914 12.4121 14.0918Q12.8027 14.4922 13.3594 14.4922Z" fill="#ffffff"/>
 </g>
</svg>
