<?xml version="1.0" encoding="UTF-8"?>
<!--Generator: Apple Native CoreSVG 175.5-->
<!DOCTYPE svg
PUBLIC "-//W3C//DTD SVG 1.1//EN"
       "http://www.w3.org/Graphics/SVG/1.1/DTD/svg11.dtd">
<svg version="1.1" xmlns="http://www.w3.org/2000/svg" xmlns:xlink="http://www.w3.org/1999/xlink" width="27.3633" height="19.9316">
 <g>
  <rect height="19.9316" opacity="0" width="27.3633" x="0" y="0"/>
  <path d="M0 9.96094Q0 9.64844 0.224609 9.41895Q0.449219 9.18945 0.751953 9.18945L26.6113 9.18945Q26.9141 9.18945 27.1387 9.41895Q27.3633 9.64844 27.3633 9.96094Q27.3633 10.2832 27.1387 10.5127Q26.9141 10.7422 26.6113 10.7422L0.751953 10.7422Q0.449219 10.7422 0.224609 10.5127Q0 10.2832 0 9.96094ZM13.6914 19.9219Q15.7324 19.9219 17.5342 19.1406Q19.3359 18.3594 20.7129 16.9824Q22.0898 15.6055 22.8711 13.8037Q23.6523 12.002 23.6523 9.96094Q23.6523 7.91992 22.8662 6.11816Q22.0801 4.31641 20.7031 2.93945Q19.3262 1.5625 17.5244 0.78125Q15.7227 0 13.6816 0Q11.6309 0 9.83398 0.78125Q8.03711 1.5625 6.66016 2.93945Q5.2832 4.31641 4.50684 6.11816Q3.73047 7.91992 3.73047 9.96094Q3.73047 12.002 4.51172 13.8037Q5.29297 15.6055 6.66504 16.9824Q8.03711 18.3594 9.83887 19.1406Q11.6406 19.9219 13.6914 19.9219Z" fill="#ffffff"/>
 </g>
</svg>
