<?xml version="1.0" encoding="UTF-8"?>
<!--Generator: Apple Native CoreSVG 175-->
<!DOCTYPE svg
PUBLIC "-//W3C//DTD SVG 1.1//EN"
       "http://www.w3.org/Graphics/SVG/1.1/DTD/svg11.dtd">
<svg version="1.1" xmlns="http://www.w3.org/2000/svg" xmlns:xlink="http://www.w3.org/1999/xlink" width="19.1594" height="18.5168">
 <g>
  <rect height="18.5168" opacity="0" width="19.1594" x="0" y="0"/>
  <path d="M4.25079 8.51288Q5.40161 8.51288 6.36002 7.93182Q7.31842 7.35077 7.89597 6.38748Q8.47351 5.42419 8.47351 4.2691Q8.47351 3.11401 7.89597 2.1508Q7.31842 1.18759 6.36002 0.607834Q5.40161 0.0280762 4.25079 0.0280762Q3.07892 0.0280762 2.11563 0.607834Q1.15234 1.18759 0.576172 2.1508Q0 3.11401 0 4.2691Q0 5.42419 0.576172 6.38748Q1.15234 7.35077 2.11563 7.93182Q3.07892 8.51288 4.25079 8.51288ZM14.9394 8.51288Q16.0875 8.51288 17.0473 7.93182Q18.007 7.35077 18.5832 6.38748Q19.1594 5.42419 19.1594 4.2691Q19.1594 3.11401 18.5832 2.1508Q18.007 1.18759 17.0473 0.607834Q16.0875 0.0280762 14.9394 0.0280762Q13.7648 0.0280762 12.798 0.607834Q11.8312 1.18759 11.2599 2.1508Q10.6886 3.11401 10.6886 4.2691Q10.6886 5.42419 11.2599 6.38748Q11.8312 7.35077 12.798 7.93182Q13.7648 8.51288 14.9394 8.51288ZM4.25079 18.5168Q5.40161 18.5168 6.36002 17.9372Q7.31842 17.3575 7.89597 16.3942Q8.47351 15.4309 8.47351 14.2731Q8.47351 13.118 7.89597 12.1561Q7.31842 11.1942 6.36002 10.6131Q5.40161 10.032 4.25079 10.032Q3.07892 10.032 2.11563 10.6131Q1.15234 11.1942 0.576172 12.1561Q0 13.118 0 14.2731Q0 15.4309 0.576172 16.3942Q1.15234 17.3575 2.11563 17.9372Q3.07892 18.5168 4.25079 18.5168ZM14.9394 18.5168Q16.0875 18.5168 17.0473 17.9372Q18.007 17.3575 18.5832 16.3942Q19.1594 15.4309 19.1594 14.2731Q19.1594 13.118 18.5832 12.1561Q18.007 11.1942 17.0473 10.6131Q16.0875 10.032 14.9394 10.032Q13.7648 10.032 12.798 10.6131Q11.8312 11.1942 11.2599 12.1561Q10.6886 13.118 10.6886 14.2731Q10.6886 15.4309 11.2599 16.3942Q11.8312 17.3575 12.798 17.9372Q13.7648 18.5168 14.9394 18.5168Z" fill="rgba(0,0,0,0.85)"/>
 </g>
</svg>
