<?xml version="1.0" encoding="UTF-8"?>
<!--Generator: Apple Native CoreSVG 175.5-->
<!DOCTYPE svg
PUBLIC "-//W3C//DTD SVG 1.1//EN"
       "http://www.w3.org/Graphics/SVG/1.1/DTD/svg11.dtd">
<svg version="1.1" xmlns="http://www.w3.org/2000/svg" xmlns:xlink="http://www.w3.org/1999/xlink" width="19.9219" height="19.9316">
 <g>
  <rect height="19.9316" opacity="0" width="19.9219" x="0" y="0"/>
  <path d="M4.85352 11.0156Q4.56055 11.0156 4.36523 10.8203Q4.16992 10.625 4.16992 10.332Q4.16992 10.0488 4.36523 9.85352Q4.56055 9.6582 4.85352 9.6582L9.27734 9.6582L9.27734 3.75Q9.27734 3.4668 9.47266 3.27148Q9.66797 3.07617 9.95117 3.07617Q10.2441 3.07617 10.4395 3.27148Q10.6348 3.4668 10.6348 3.75L10.6348 10.332Q10.6348 10.625 10.4395 10.8203Q10.2441 11.0156 9.95117 11.0156ZM9.96094 19.9219Q12.002 19.9219 13.8037 19.1406Q15.6055 18.3594 16.9824 16.9824Q18.3594 15.6055 19.1406 13.8037Q19.9219 12.002 19.9219 9.96094Q19.9219 7.91992 19.1406 6.11816Q18.3594 4.31641 16.9824 2.93945Q15.6055 1.5625 13.7988 0.78125Q11.9922 0 9.95117 0Q7.91016 0 6.1084 0.78125Q4.30664 1.5625 2.93457 2.93945Q1.5625 4.31641 0.78125 6.11816Q0 7.91992 0 9.96094Q0 12.002 0.78125 13.8037Q1.5625 15.6055 2.93945 16.9824Q4.31641 18.3594 6.11816 19.1406Q7.91992 19.9219 9.96094 19.9219Z" fill="#ffffff"/>
 </g>
</svg>
