<?xml version="1.0" encoding="UTF-8"?>
<!--Generator: Apple Native CoreSVG 175.5-->
<!DOCTYPE svg
PUBLIC "-//W3C//DTD SVG 1.1//EN"
       "http://www.w3.org/Graphics/SVG/1.1/DTD/svg11.dtd">
<svg version="1.1" xmlns="http://www.w3.org/2000/svg" xmlns:xlink="http://www.w3.org/1999/xlink" width="21.8169" height="19.9316">
 <g>
  <rect height="19.9316" opacity="0" width="21.8169" x="0" y="0"/>
  <path d="M11.856 19.9219Q13.897 19.9219 15.6988 19.1406Q17.5005 18.3594 18.8775 16.9824Q20.2544 15.6055 21.0357 13.8037Q21.8169 12.002 21.8169 9.96094Q21.8169 7.91992 21.0357 6.11816Q20.2544 4.31641 18.8775 2.93945Q17.5005 1.5625 15.6988 0.78125Q13.897 0 11.856 0Q9.81497 0 8.01321 0.78125Q6.21145 1.5625 4.8345 2.93457Q3.45755 4.30664 2.6763 6.1084Q1.89505 7.91016 1.89505 9.95117L3.5552 9.95117Q3.5552 8.22266 4.19485 6.71875Q4.8345 5.21484 5.97708 4.08203Q7.11965 2.94922 8.62356 2.30957Q10.1275 1.66992 11.856 1.66992Q13.5845 1.66992 15.0884 2.30957Q16.5923 2.94922 17.73 4.08691Q18.8677 5.22461 19.5122 6.72852Q20.1568 8.23242 20.1568 9.96094Q20.1568 11.6895 19.5122 13.1982Q18.8677 14.707 17.73 15.8447Q16.5923 16.9824 15.0884 17.627Q13.5845 18.2715 11.856 18.2617Q10.4595 18.252 9.2095 17.8271Q7.9595 17.4023 6.91946 16.6309Q5.87942 15.8594 5.13723 14.8242Q4.91262 14.5215 4.59524 14.4385Q4.27786 14.3555 3.96536 14.541Q3.67239 14.7266 3.60891 15.0781Q3.54544 15.4297 3.79934 15.752Q4.72708 16.9922 5.97708 17.9346Q7.22708 18.877 8.72122 19.3994Q10.2154 19.9219 11.856 19.9219ZM0.693873 8.07617Q0.342311 8.07617 0.16653 8.21777Q-0.00925164 8.35938 0.00051398 8.59375Q0.0102796 8.82812 0.195826 9.10156L2.38333 12.207Q2.62747 12.5488 2.93997 12.5439Q3.25247 12.5391 3.48684 12.207L5.67434 9.0918Q5.85989 8.81836 5.86477 8.58887Q5.86965 8.35938 5.69387 8.21777Q5.51809 8.07617 5.1763 8.07617Z" fill="#ffffff"/>
  <path d="M11.4849 4.23828Q11.1626 4.23828 10.9331 4.46289Q10.7036 4.6875 10.7036 5.00977L10.7036 10.459Q10.7036 10.6348 10.7622 10.7861Q10.8208 10.9375 10.938 11.0938L13.3501 14.2773Q13.5943 14.5898 13.9116 14.6436Q14.229 14.6973 14.522 14.4922Q14.7954 14.3066 14.8198 13.9893Q14.8443 13.6719 14.6197 13.3789L11.3677 8.99414L12.2564 11.7285L12.2564 5.00977Q12.2564 4.6875 12.0318 4.46289Q11.8072 4.23828 11.4849 4.23828Z" fill="#ffffff"/>
 </g>
</svg>
