<?xml version="1.0" encoding="UTF-8"?>
<!--Generator: Apple Native CoreSVG 175.5-->
<!DOCTYPE svg
PUBLIC "-//W3C//DTD SVG 1.1//EN"
       "http://www.w3.org/Graphics/SVG/1.1/DTD/svg11.dtd">
<svg version="1.1" xmlns="http://www.w3.org/2000/svg" xmlns:xlink="http://www.w3.org/1999/xlink" width="22.2949" height="24.4954">
 <g>
  <rect height="24.4954" opacity="0" width="22.2949" x="0" y="0"/>
  <path d="M4.84375 21.4421L6.11328 19.235Q6.25 19.0104 6.18652 18.7809Q6.12305 18.5514 5.9082 18.4245Q5.68359 18.2975 5.45898 18.361Q5.23438 18.4245 5.09766 18.6491L3.81836 20.8757Q3.69141 21.0807 3.75 21.3102Q3.80859 21.5397 4.04297 21.6667Q4.25781 21.7839 4.49219 21.7204Q4.72656 21.6569 4.84375 21.4421ZM7.90039 24.1862L9.16992 21.9889Q9.30664 21.7643 9.24316 21.5348Q9.17969 21.3053 8.96484 21.1784Q8.74023 21.0514 8.51562 21.1149Q8.29102 21.1784 8.1543 21.403L6.875 23.6198Q6.74805 23.8346 6.80664 24.0592Q6.86523 24.2839 7.08984 24.4108Q7.31445 24.5378 7.54395 24.4743Q7.77344 24.4108 7.90039 24.1862ZM12.6172 21.4323L13.8867 19.2253Q14.0234 19.0007 13.96 18.7712Q13.8965 18.5417 13.6719 18.4147Q13.457 18.2878 13.2275 18.3512Q12.998 18.4147 12.8711 18.6393L11.5918 20.8659Q11.4648 21.071 11.5234 21.3005Q11.582 21.5299 11.8066 21.6569Q12.0215 21.7741 12.2559 21.7106Q12.4902 21.6471 12.6172 21.4323ZM15.6738 24.1764L16.9434 21.9792Q17.0703 21.7546 17.0117 21.5251Q16.9531 21.2956 16.7285 21.1686Q16.5039 21.0417 16.2793 21.1051Q16.0547 21.1686 15.9277 21.3932L14.6387 23.61Q14.5215 23.8249 14.5801 24.0495Q14.6387 24.2741 14.8633 24.401Q15.0781 24.528 15.3125 24.4645Q15.5469 24.401 15.6738 24.1764Z" fill="#ffffff"/>
  <path d="M4.58984 16.8717L16.709 16.8717Q17.9102 16.8717 18.9307 16.4518Q19.9512 16.0319 20.708 15.2848Q21.4648 14.5378 21.8799 13.5465Q22.2949 12.5553 22.2949 11.4323Q22.2949 10.2604 21.8506 9.27897Q21.4062 8.29753 20.6104 7.56999Q19.8145 6.84245 18.75 6.44206Q17.6855 6.04167 16.4453 6.04167Q15.8398 4.84049 14.8975 3.94694Q13.9551 3.05339 12.7539 2.5651Q11.5527 2.07682 10.1367 2.07682Q8.75977 2.07682 7.54395 2.57975Q6.32812 3.08268 5.37109 3.97135Q4.41406 4.86003 3.82324 6.04167Q3.23242 7.22331 3.11523 8.58073Q2.22656 8.83464 1.52344 9.41569Q0.820312 9.99674 0.410156 10.8268Q0 11.6569 0 12.6921Q0 13.8444 0.541992 14.7965Q1.08398 15.7487 2.10938 16.3102Q3.13477 16.8717 4.58984 16.8717Z" fill="#ffffff"/>
 </g>
</svg>
