<?xml version="1.0" encoding="UTF-8"?>
<!--Generator: Apple Native CoreSVG 175.5-->
<!DOCTYPE svg
PUBLIC "-//W3C//DTD SVG 1.1//EN"
       "http://www.w3.org/Graphics/SVG/1.1/DTD/svg11.dtd">
<svg version="1.1" xmlns="http://www.w3.org/2000/svg" xmlns:xlink="http://www.w3.org/1999/xlink" width="25.6152" height="27.4441">
 <g>
  <rect height="27.4441" opacity="0" width="25.6152" x="0" y="0"/>
  <path d="M20.752 14.1468Q21.8945 13.9515 22.793 13.4388Q23.6914 12.9261 24.3213 12.2474Q24.9512 11.5687 25.2832 10.8558Q25.6152 10.1429 25.6152 9.53746Q25.6152 9.25426 25.4883 9.06871Q25.3613 8.88317 25.127 8.88317Q24.8926 8.88317 24.5605 9.03942Q24.2285 9.19567 23.75 9.35192Q23.2715 9.50817 22.5977 9.50817Q21.4062 9.50817 20.5322 9.05407Q19.6582 8.59996 19.1797 7.78453Q18.7012 6.96911 18.7012 5.88512Q18.7012 5.23082 18.877 4.70836Q19.0527 4.1859 19.2236 3.78551Q19.3945 3.38512 19.3945 3.13121Q19.3945 2.89684 19.2432 2.76012Q19.0918 2.6234 18.7988 2.63317Q18.1152 2.66246 17.3926 3.02868Q16.6699 3.39489 16.0107 4.03453Q15.3516 4.67418 14.8682 5.51403Q14.3848 6.35387 14.1895 7.33043Q14.4141 7.53551 14.6289 7.82848Q14.8438 8.12145 15.0195 8.50231Q16.2598 8.59996 17.2949 9.07848Q18.3301 9.557 19.0967 10.3285Q19.8633 11.1 20.2979 12.0814Q20.7324 13.0629 20.752 14.1468Z" fill="#ffffff"/>
  <path d="M4.05273 19.1078L14.6191 19.1078Q15.9961 19.1078 17.1094 18.473Q18.2227 17.8382 18.877 16.7494Q19.5312 15.6605 19.5312 14.3129Q19.5312 12.9652 18.8623 11.8959Q18.1934 10.8265 17.041 10.2064Q15.8887 9.58629 14.4238 9.57653Q13.8574 8.48278 13.0127 7.71129Q12.168 6.93981 11.1182 6.52965Q10.0684 6.1195 8.88672 6.1195Q7.69531 6.1195 6.63086 6.55407Q5.56641 6.98864 4.72656 7.76012Q3.88672 8.53161 3.35938 9.56188Q2.83203 10.5922 2.72461 11.8031Q1.47461 12.1742 0.737305 13.1507Q0 14.1273 0 15.4164Q0 16.5101 0.512695 17.3451Q1.02539 18.18 1.93848 18.6439Q2.85156 19.1078 4.05273 19.1078ZM12.1973 22.682L10.0586 22.682L10.0391 23.1019L11.1523 20.9828Q11.2402 20.8265 11.1816 20.724Q11.123 20.6214 10.9668 20.6214L8.92578 20.6214Q8.7207 20.6214 8.63281 20.6947Q8.54492 20.7679 8.47656 20.9144L7.22656 23.7562Q7.1582 23.9222 7.22656 24.0248Q7.29492 24.1273 7.48047 24.1273L9.22852 24.1273L9.35547 23.5609L7.86133 27.1547Q7.77344 27.3597 7.92969 27.4281Q8.07617 27.4867 8.21289 27.3304L12.3438 23.1507Q12.5 22.9945 12.4512 22.8382Q12.4023 22.682 12.1973 22.682Z" fill="#ffffff"/>
 </g>
</svg>
