<?xml version="1.0" encoding="UTF-8"?>
<!--Generator: Apple Native CoreSVG 175-->
<!DOCTYPE svg
PUBLIC "-//W3C//DTD SVG 1.1//EN"
       "http://www.w3.org/Graphics/SVG/1.1/DTD/svg11.dtd">
<svg version="1.1" xmlns="http://www.w3.org/2000/svg" xmlns:xlink="http://www.w3.org/1999/xlink" width="21.9153" height="23.9493">
 <g>
  <rect height="23.9493" opacity="0" width="21.9153" x="0" y="0"/>
  <path d="M4.28055 16.2612L16.5543 16.2612Q17.6923 16.2612 18.6671 15.8659Q19.6419 15.4706 20.3706 14.7657Q21.0992 14.0609 21.5073 13.1259Q21.9153 12.1909 21.9153 11.1171Q21.9153 10.0225 21.4885 9.09732Q21.0617 8.17218 20.294 7.48683Q19.5262 6.80148 18.504 6.42566Q17.4817 6.04984 16.2906 6.04984Q15.6851 4.79953 14.7779 3.8708Q13.8707 2.94208 12.673 2.43266Q11.4754 1.92325 9.98199 1.92325Q8.66837 1.92325 7.50175 2.42618Q6.33514 2.92911 5.42381 3.82129Q4.51248 4.71347 3.94981 5.8916Q3.38715 7.06973 3.26996 8.43417Q2.36008 8.67404 1.61835 9.21993Q0.876617 9.76581 0.438309 10.5678Q0 11.3698 0 12.3909Q0 13.4449 0.506821 14.3267Q1.01364 15.2085 1.96877 15.7348Q2.92389 16.2612 4.28055 16.2612ZM4.14062 20.9932L5.65628 18.3713Q5.74371 18.2311 5.7119 18.1036Q5.68008 17.9761 5.56366 17.9053Q5.44449 17.8417 5.32539 17.8805Q5.2063 17.9193 5.11169 18.0596L3.59344 20.687Q3.51562 20.8217 3.54256 20.9493Q3.56949 21.0768 3.69141 21.1475Q3.81485 21.2155 3.93677 21.1731Q4.05869 21.1307 4.14062 20.9932ZM6.44424 23.7484L9.56406 18.3615Q9.6489 18.217 9.61838 18.0944Q9.58786 17.9717 9.47418 17.901Q9.35776 17.8374 9.23592 17.8714Q9.11407 17.9053 9.02222 18.0526L5.91492 23.4409Q5.8371 23.5811 5.86403 23.7087Q5.89096 23.8362 6.00739 23.9069Q6.12381 23.9749 6.24512 23.9339Q6.36642 23.8929 6.44424 23.7484ZM11.9141 20.9905L13.4297 18.3687Q13.5172 18.2283 13.4888 18.1008Q13.4605 17.9734 13.3344 17.9026Q13.2249 17.8389 13.101 17.8778Q12.977 17.9166 12.8922 18.057L11.3739 20.6842Q11.2961 20.819 11.323 20.9465Q11.3499 21.0741 11.4691 21.1447Q11.5855 21.2128 11.711 21.1704Q11.8364 21.128 11.9141 20.9905ZM14.222 23.7526L17.3375 18.3589Q17.4294 18.2143 17.3988 18.0917Q17.3683 17.9691 17.2449 17.8983Q17.1384 17.8347 17.0129 17.8686Q16.8875 17.9026 16.8027 18.0498L13.6926 23.4381Q13.6078 23.5784 13.6348 23.7059Q13.6618 23.8335 13.7781 23.9041Q13.9015 23.9722 14.0228 23.9312Q14.1441 23.8901 14.222 23.7526Z" fill="#ffffff"/>
 </g>
</svg>
