<?xml version="1.0" encoding="UTF-8"?>
<!--Generator: Apple Native CoreSVG 175.5-->
<!DOCTYPE svg
PUBLIC "-//W3C//DTD SVG 1.1//EN"
       "http://www.w3.org/Graphics/SVG/1.1/DTD/svg11.dtd">
<svg version="1.1" xmlns="http://www.w3.org/2000/svg" xmlns:xlink="http://www.w3.org/1999/xlink" width="28.3789" height="22.4902">
 <g>
  <rect height="22.4902" opacity="0" width="28.3789" x="0" y="0"/>
  <path d="M18.2715 6.71875Q19.2285 6.71875 19.9951 7.16797Q20.7617 7.61719 21.2158 8.39355Q21.6699 9.16992 21.6699 10.127Q21.6699 10.8984 21.3623 11.5625Q21.0547 12.2266 20.5176 12.71Q19.9805 13.1934 19.2773 13.418L19.2871 14.8926Q20.3906 14.6484 21.25 13.96Q22.1094 13.2715 22.6025 12.2754Q23.0957 11.2793 23.0957 10.127Q23.0957 8.7793 22.4512 7.68066Q21.8066 6.58203 20.708 5.93262Q19.6094 5.2832 18.2715 5.2832Q16.9238 5.2832 15.8301 5.93262Q14.7363 6.58203 14.0869 7.68066Q13.4375 8.7793 13.4375 10.127Q13.4375 10.2148 13.4473 10.3027Q13.457 10.3906 13.457 10.4785L14.9316 10.6152Q14.9023 10.498 14.8877 10.376Q14.873 10.2539 14.873 10.127Q14.873 9.16992 15.3271 8.39355Q15.7812 7.61719 16.5479 7.16797Q17.3145 6.71875 18.2715 6.71875ZM12.6074 5.61523Q12.8516 5.84961 13.1934 5.84961Q13.5352 5.84961 13.7598 5.61523Q13.9844 5.38086 13.9893 5.04395Q13.9941 4.70703 13.7598 4.48242L12.2559 2.96875Q12.0215 2.73438 11.6895 2.73438Q11.3574 2.73438 11.123 2.96875Q10.8887 3.20312 10.8838 3.54004Q10.8789 3.87695 11.123 4.11133ZM18.2715 3.73047Q18.6035 3.73047 18.8428 3.48633Q19.082 3.24219 19.082 2.91992L19.082 0.810547Q19.082 0.478516 18.8428 0.239258Q18.6035 0 18.2715 0Q17.9395 0 17.7002 0.239258Q17.4609 0.478516 17.4609 0.810547L17.4609 2.91992Q17.4609 3.24219 17.7002 3.48633Q17.9395 3.73047 18.2715 3.73047ZM22.7832 5.61523Q23.0078 5.84961 23.3545 5.84961Q23.7012 5.84961 23.9355 5.61523L25.4297 4.11133Q25.6641 3.87695 25.6641 3.54004Q25.6641 3.20312 25.4297 2.96875Q25.1953 2.73438 24.8633 2.73438Q24.5312 2.73438 24.2969 2.96875L22.7832 4.48242Q22.5488 4.70703 22.5537 5.04395Q22.5586 5.38086 22.7832 5.61523ZM25.459 10.9375L27.5781 10.9375Q27.9102 10.9375 28.1445 10.6982Q28.3789 10.459 28.3789 10.127Q28.3789 9.78516 28.1445 9.55078Q27.9102 9.31641 27.5781 9.31641L25.459 9.31641Q25.1367 9.31641 24.8926 9.55078Q24.6484 9.78516 24.6484 10.127Q24.6484 10.459 24.8926 10.6982Q25.1367 10.9375 25.459 10.9375ZM24.2969 17.2949Q24.5312 17.5293 24.8633 17.5195Q25.1953 17.5098 25.4297 17.2852Q25.6641 17.0508 25.6641 16.7139Q25.6641 16.377 25.4297 16.1426L23.916 14.6484Q23.6816 14.4238 23.3496 14.4189Q23.0176 14.4141 22.7832 14.6484Q22.5488 14.8828 22.5488 15.2197Q22.5488 15.5566 22.7832 15.791Z" fill="#ffffff"/>
  <path d="M4.14062 19.7266L14.707 19.7266Q16.123 19.7266 17.2559 19.082Q18.3887 18.4375 19.0576 17.3291Q19.7266 16.2207 19.7266 14.8438Q19.7266 13.4766 19.0479 12.3877Q18.3691 11.2988 17.207 10.6641Q16.0449 10.0293 14.5801 10.0098Q13.7207 8.39844 12.2607 7.47559Q10.8008 6.55273 8.98438 6.55273Q7.77344 6.55273 6.69434 6.9873Q5.61523 7.42188 4.76562 8.20312Q3.91602 8.98438 3.38379 10.0195Q2.85156 11.0547 2.72461 12.2559Q1.50391 12.6367 0.751953 13.6279Q0 14.6191 0 15.9473Q0 17.0508 0.517578 17.9053Q1.03516 18.7598 1.96777 19.2432Q2.90039 19.7266 4.14062 19.7266ZM4.10156 18.1641Q3.27148 18.1641 2.70508 17.876Q2.13867 17.5879 1.85059 17.0947Q1.5625 16.6016 1.5625 15.9863Q1.5625 15.2148 2.04102 14.5801Q2.51953 13.9453 3.60352 13.6621Q3.95508 13.5645 4.10645 13.3838Q4.25781 13.2031 4.28711 12.832Q4.375 11.8066 4.77051 10.9424Q5.16602 10.0781 5.80566 9.44824Q6.44531 8.81836 7.26074 8.4668Q8.07617 8.11523 8.98438 8.11523Q9.93164 8.11523 10.7324 8.45215Q11.5332 8.78906 12.168 9.43359Q12.8027 10.0781 13.2617 10.9863Q13.418 11.2988 13.6279 11.4209Q13.8379 11.543 14.209 11.543Q15.4688 11.543 16.3525 12.002Q17.2363 12.4609 17.6953 13.2178Q18.1543 13.9746 18.1543 14.8828Q18.1543 15.8008 17.7051 16.543Q17.2559 17.2852 16.4795 17.7246Q15.7031 18.1641 14.7363 18.1641Z" fill="#ffffff"/>
 </g>
</svg>
