<?xml version="1.0" encoding="UTF-8"?>
<!--Generator: Apple Native CoreSVG 175.5-->
<!DOCTYPE svg
PUBLIC "-//W3C//DTD SVG 1.1//EN"
       "http://www.w3.org/Graphics/SVG/1.1/DTD/svg11.dtd">
<svg version="1.1" xmlns="http://www.w3.org/2000/svg" xmlns:xlink="http://www.w3.org/1999/xlink" width="14.0137" height="22.8103">
 <g>
  <rect height="22.8103" opacity="0" width="14.0137" x="0" y="0"/>
  <path d="M7.46094 20.3065Q9.07227 20.3065 10.3564 19.8085Q11.6406 19.3104 12.5293 18.4169Q13.418 17.5233 13.8477 16.3222Q13.9258 16.1073 13.9697 15.8827Q14.0137 15.6581 14.0137 15.4335Q14.0137 15.0526 13.7842 14.8134Q13.5547 14.5741 13.1543 14.5741Q12.7734 14.5741 12.5635 14.7792Q12.3535 14.9843 12.2266 15.3651Q11.9531 16.3319 11.2793 17.0595Q10.6055 17.787 9.62891 18.1923Q8.65234 18.5975 7.4707 18.5975Q5.80078 18.5975 4.56055 17.7186Q3.32031 16.8397 2.6416 15.2138Q1.96289 13.5878 1.96289 11.371Q1.96289 9.18349 2.64648 7.58681Q3.33008 5.99013 4.56543 5.12099Q5.80078 4.25184 7.46094 4.25184Q8.58398 4.25184 9.53613 4.67665Q10.4883 5.10145 11.1572 5.84852Q11.8262 6.59559 12.0996 7.55263Q12.2266 7.97255 12.4365 8.15809Q12.6465 8.34364 13.0273 8.34364Q13.418 8.34364 13.6523 8.10438Q13.8867 7.86513 13.8867 7.4745Q13.877 7.25966 13.8428 7.0497Q13.8086 6.83974 13.7305 6.63466Q13.291 5.39442 12.3682 4.47645Q11.4453 3.55849 10.1855 3.05067Q8.92578 2.54286 7.46094 2.54286Q5.21484 2.54286 3.53516 3.62196Q1.85547 4.70106 0.927734 6.68349Q0 8.66591 0 11.371Q0 14.1054 0.922852 16.1122Q1.8457 18.119 3.52539 19.2128Q5.20508 20.3065 7.46094 20.3065ZM5.9375 21.9667Q5.84961 22.328 6.00098 22.538Q6.15234 22.7479 6.40625 22.7968Q6.66016 22.8456 6.89453 22.7186Q7.12891 22.5917 7.20703 22.2694L12.5488 1.29286Q12.6367 0.960829 12.4854 0.750868Q12.334 0.540907 12.0801 0.482313Q11.8262 0.42372 11.5918 0.540907Q11.3574 0.658095 11.2695 0.990126ZM2.16797 21.8886Q2.08008 22.2499 2.22656 22.4599Q2.37305 22.6698 2.63184 22.7186Q2.89062 22.7675 3.125 22.6405Q3.35938 22.5136 3.4375 22.1913L8.7793 1.21474Q8.86719 0.882704 8.71582 0.672743Q8.56445 0.462782 8.31055 0.404188Q8.05664 0.345595 7.82227 0.462782Q7.58789 0.57997 7.5 0.912001Z" fill="#ffffff"/>
 </g>
</svg>
