<?xml version="1.0" encoding="UTF-8"?>
<!--Generator: Apple Native CoreSVG 175-->
<!DOCTYPE svg
PUBLIC "-//W3C//DTD SVG 1.1//EN"
       "http://www.w3.org/Graphics/SVG/1.1/DTD/svg11.dtd">
<svg version="1.1" xmlns="http://www.w3.org/2000/svg" xmlns:xlink="http://www.w3.org/1999/xlink" width="17.2852" height="17.3145">
 <g>
  <rect height="17.3145" opacity="0" width="17.2852" x="0" y="0"/>
  <path d="M2.62695 17.3145L14.6484 17.3145Q15.957 17.3145 16.6211 16.6455Q17.2852 15.9766 17.2852 14.6875L17.2852 2.65625Q17.2852 1.37695 16.6211 0.703125Q15.957 0.0292969 14.6484 0.0292969L2.62695 0.0292969Q1.33789 0.0292969 0.668945 0.693359Q0 1.35742 0 2.65625L0 14.6875Q0 15.9863 0.668945 16.6504Q1.33789 17.3145 2.62695 17.3145ZM6.62109 7.34375L5.47852 7.34375Q4.98047 7.34375 4.56055 7.09473Q4.14062 6.8457 3.88672 6.42578Q3.63281 6.00586 3.63281 5.49805Q3.63281 4.99023 3.88184 4.5752Q4.13086 4.16016 4.55078 3.90625Q4.9707 3.65234 5.47852 3.65234Q5.98633 3.65234 6.40137 3.90625Q6.81641 4.16016 7.07031 4.5752Q7.32422 4.99023 7.32422 5.49805L7.32422 6.66016L9.94141 6.66016L9.94141 5.49805Q9.94141 4.99023 10.1904 4.5752Q10.4395 4.16016 10.8545 3.90625Q11.2695 3.65234 11.7773 3.65234Q12.2949 3.65234 12.7148 3.90625Q13.1348 4.16016 13.3838 4.5752Q13.6328 4.99023 13.6328 5.49805Q13.6328 6.00586 13.3789 6.42578Q13.125 6.8457 12.7051 7.09473Q12.2852 7.34375 11.7773 7.34375L10.6445 7.34375L10.6445 9.96094L11.7773 9.96094Q12.2852 9.96094 12.7051 10.2148Q13.125 10.4688 13.3789 10.8838Q13.6328 11.2988 13.6328 11.8066Q13.6328 12.3047 13.3838 12.7295Q13.1348 13.1543 12.7148 13.4033Q12.2949 13.6523 11.7773 13.6523Q11.2695 13.6523 10.8545 13.3984Q10.4395 13.1445 10.1904 12.7246Q9.94141 12.3047 9.94141 11.8066L9.94141 10.6445L7.32422 10.6445L7.32422 11.8066Q7.32422 12.3047 7.07031 12.7246Q6.81641 13.1445 6.40137 13.3984Q5.98633 13.6523 5.47852 13.6523Q4.9707 13.6523 4.55078 13.4033Q4.13086 13.1543 3.88184 12.7295Q3.63281 12.3047 3.63281 11.8066Q3.63281 11.2988 3.88672 10.8838Q4.14062 10.4688 4.56055 10.2148Q4.98047 9.96094 5.47852 9.96094L6.62109 9.96094ZM7.32422 9.96094L9.94141 9.96094L9.94141 7.34375L7.32422 7.34375ZM5.47852 6.66016L6.62109 6.66016L6.62109 5.49805Q6.62109 5.0293 6.28418 4.6875Q5.94727 4.3457 5.47852 4.3457Q5 4.3457 4.66309 4.68262Q4.32617 5.01953 4.32617 5.49805Q4.32617 5.98633 4.66309 6.32324Q5 6.66016 5.47852 6.66016ZM11.7773 6.66016Q12.2656 6.66016 12.6025 6.32324Q12.9395 5.98633 12.9395 5.49805Q12.9395 5.01953 12.6025 4.68262Q12.2656 4.3457 11.7773 4.3457Q11.3184 4.3457 10.9814 4.6875Q10.6445 5.0293 10.6445 5.49805L10.6445 6.66016ZM5.47852 10.6445Q5 10.6445 4.66309 10.9814Q4.32617 11.3184 4.32617 11.8066Q4.32617 12.2754 4.66309 12.6123Q5 12.9492 5.47852 12.9492Q5.94727 12.9492 6.28418 12.6123Q6.62109 12.2754 6.62109 11.8066L6.62109 10.6445ZM11.7773 10.6445L10.6445 10.6445L10.6445 11.8066Q10.6445 12.2754 10.9814 12.6123Q11.3184 12.9492 11.7773 12.9492Q12.2656 12.9492 12.6025 12.6123Q12.9395 12.2754 12.9395 11.8066Q12.9395 11.3184 12.6025 10.9814Q12.2656 10.6445 11.7773 10.6445Z" fill="#ffffff"/>
 </g>
</svg>
