<?xml version="1.0" encoding="UTF-8"?>
<!--Generator: Apple Native CoreSVG 175.5-->
<!DOCTYPE svg
PUBLIC "-//W3C//DTD SVG 1.1//EN"
       "http://www.w3.org/Graphics/SVG/1.1/DTD/svg11.dtd">
<svg version="1.1" xmlns="http://www.w3.org/2000/svg" xmlns:xlink="http://www.w3.org/1999/xlink" width="19.9219" height="19.9316">
 <g>
  <rect height="19.9316" opacity="0" width="19.9219" x="0" y="0"/>
  <path d="M9.96094 19.9219Q12.002 19.9219 13.8037 19.1406Q15.6055 18.3594 16.9824 16.9824Q18.3594 15.6055 19.1406 13.8037Q19.9219 12.002 19.9219 9.96094Q19.9219 7.91992 19.1406 6.11816Q18.3594 4.31641 16.9824 2.93945Q15.6055 1.5625 13.7988 0.78125Q11.9922 0 9.95117 0Q7.91016 0 6.1084 0.78125Q4.30664 1.5625 2.93457 2.93945Q1.5625 4.31641 0.78125 6.11816Q0 7.91992 0 9.96094Q0 12.002 0.78125 13.8037Q1.5625 15.6055 2.93945 16.9824Q4.31641 18.3594 6.11816 19.1406Q7.91992 19.9219 9.96094 19.9219ZM9.96094 18.2617Q8.23242 18.2617 6.72852 17.6172Q5.22461 16.9727 4.08691 15.835Q2.94922 14.6973 2.30957 13.1934Q1.66992 11.6895 1.66992 9.96094Q1.66992 8.23242 2.30957 6.72852Q2.94922 5.22461 4.08203 4.08203Q5.21484 2.93945 6.71875 2.2998Q8.22266 1.66016 9.95117 1.66016Q11.6797 1.66016 13.1885 2.2998Q14.6973 2.93945 15.835 4.08203Q16.9727 5.22461 17.6172 6.72852Q18.2617 8.23242 18.2617 9.96094Q18.2617 11.6895 17.6221 13.1934Q16.9824 14.6973 15.8398 15.835Q14.6973 16.9727 13.1934 17.6172Q11.6895 18.2617 9.96094 18.2617Z" fill="#ffffff"/>
  <path d="M7.65625 9.0625L7.65625 10.8691L6.91406 10.8691Q6.05469 10.8691 5.44922 11.4697Q4.84375 12.0703 4.84375 12.9199Q4.84375 13.7891 5.44922 14.3945Q6.05469 15 6.91406 15Q7.49023 15 7.95898 14.7168Q8.42773 14.4336 8.70605 13.9648Q8.98438 13.4961 8.98438 12.9199L8.98438 12.1777L10.7617 12.1777L10.7617 12.9199Q10.7617 13.4961 11.0449 13.9648Q11.3281 14.4336 11.7969 14.7168Q12.2656 15 12.832 15Q13.6914 15 14.2969 14.3945Q14.9023 13.7891 14.9023 12.9199Q14.9023 12.0703 14.2969 11.4697Q13.6914 10.8691 12.832 10.8691L12.0996 10.8691L12.0996 9.0625L12.832 9.0625Q13.6914 9.0625 14.2969 8.46191Q14.9023 7.86133 14.9023 7.00195Q14.9023 6.14258 14.2969 5.53711Q13.6914 4.93164 12.832 4.93164Q12.2656 4.93164 11.7969 5.21484Q11.3281 5.49805 11.0449 5.9668Q10.7617 6.43555 10.7617 7.00195L10.7617 7.74414L8.98438 7.74414L8.98438 7.00195Q8.98438 6.43555 8.70605 5.9668Q8.42773 5.49805 7.95898 5.21484Q7.49023 4.93164 6.91406 4.93164Q6.05469 4.93164 5.44922 5.53711Q4.84375 6.14258 4.84375 7.00195Q4.84375 7.86133 5.44922 8.46191Q6.05469 9.0625 6.91406 9.0625ZM8.98438 10.8789L8.98438 9.05273L10.7617 9.05273L10.7617 10.8789ZM6.91406 7.75391Q6.60156 7.75391 6.38184 7.53418Q6.16211 7.31445 6.16211 7.00195Q6.16211 6.69922 6.38672 6.47461Q6.61133 6.25 6.91406 6.25Q7.2168 6.25 7.43652 6.47461Q7.65625 6.69922 7.65625 7.00195L7.65625 7.75391ZM12.832 7.75391L12.0996 7.75391L12.0996 7.00195Q12.0996 6.69922 12.3145 6.47461Q12.5293 6.25 12.832 6.25Q13.1348 6.25 13.3594 6.47461Q13.584 6.69922 13.584 7.00195Q13.584 7.31445 13.3643 7.53418Q13.1445 7.75391 12.832 7.75391ZM6.91406 12.1582L7.65625 12.1582L7.65625 12.9102Q7.65625 13.2227 7.43652 13.4424Q7.2168 13.6621 6.91406 13.6621Q6.60156 13.6621 6.38184 13.4424Q6.16211 13.2227 6.16211 12.9102Q6.16211 12.6074 6.38672 12.3828Q6.61133 12.1582 6.91406 12.1582ZM12.832 12.1582Q13.1348 12.1582 13.3594 12.3828Q13.584 12.6074 13.584 12.9102Q13.584 13.2227 13.3643 13.4424Q13.1445 13.6621 12.832 13.6621Q12.5293 13.6621 12.3145 13.4424Q12.0996 13.2227 12.0996 12.9102L12.0996 12.1582Z" fill="#ffffff"/>
 </g>
</svg>
