<?xml version="1.0" encoding="UTF-8"?>
<!--Generator: Apple Native CoreSVG 175-->
<!DOCTYPE svg
PUBLIC "-//W3C//DTD SVG 1.1//EN"
       "http://www.w3.org/Graphics/SVG/1.1/DTD/svg11.dtd">
<svg version="1.1" xmlns="http://www.w3.org/2000/svg" xmlns:xlink="http://www.w3.org/1999/xlink" width="18.882" height="20.6372">
 <g>
  <rect height="20.6372" opacity="0" width="18.882" x="0" y="0"/>
  <path d="M0 17.0032Q0 17.7669 0.702896 18.4254Q1.40579 19.084 2.67982 19.5803Q3.95386 20.0766 5.67558 20.3569Q7.39731 20.6372 9.43756 20.6372Q11.4778 20.6372 13.203 20.3569Q14.9281 20.0766 16.1987 19.5803Q17.4692 19.084 18.1756 18.4254Q18.882 17.7669 18.882 17.0032Q18.882 16.8109 18.8216 16.5998Q18.7613 16.3887 18.6516 16.1816L10.1868 0.968781Q10.0618 0.757904 9.86336 0.650482Q9.66492 0.54306 9.43756 0.54306Q9.21021 0.54306 9.01527 0.650482Q8.82034 0.757904 8.69537 0.968781L0.223389 16.1816Q0.113678 16.3887 0.056839 16.5998Q0 16.8109 0 17.0032ZM0.714874 17.0032Q0.714874 16.8547 0.786743 16.6823Q0.858612 16.5099 0.94223 16.3692L9.1774 1.58676Q9.27109 1.41342 9.43756 1.41342Q9.6109 1.41342 9.70474 1.58676L17.9399 16.3692Q18.0164 16.5099 18.0882 16.6823Q18.1601 16.8547 18.1601 17.0032Q18.1601 17.5691 17.4806 18.093Q16.8011 18.6168 15.5968 19.0287Q14.3925 19.4406 12.814 19.6801Q11.2355 19.9196 9.43756 19.9196Q7.64648 19.9196 6.06796 19.6801Q4.48944 19.4406 3.28514 19.0287Q2.08084 18.6168 1.39786 18.093Q0.714874 17.5691 0.714874 17.0032Z" fill="#ffffff"/>
 </g>
</svg>
