<?xml version="1.0" encoding="UTF-8"?>
<!--Generator: Apple Native CoreSVG 175.5-->
<!DOCTYPE svg
PUBLIC "-//W3C//DTD SVG 1.1//EN"
       "http://www.w3.org/Graphics/SVG/1.1/DTD/svg11.dtd">
<svg version="1.1" xmlns="http://www.w3.org/2000/svg" xmlns:xlink="http://www.w3.org/1999/xlink" width="23.5645" height="19.1895">
 <g>
  <rect height="19.1895" opacity="0" width="23.5645" x="0" y="0"/>
  <path d="M2.91016 19.1895L20.6543 19.1895Q21.6211 19.1895 22.2705 18.8623Q22.9199 18.5352 23.2422 17.8955Q23.5645 17.2559 23.5645 16.3086L23.5645 2.89062Q23.5645 1.94336 23.2422 1.30371Q22.9199 0.664062 22.2705 0.336914Q21.6211 0.00976562 20.6543 0.00976562L2.91016 0.00976562Q1.94336 0.00976562 1.29883 0.336914Q0.654297 0.664062 0.327148 1.30371Q0 1.94336 0 2.89062L0 16.3086Q0 17.2559 0.327148 17.8955Q0.654297 18.5352 1.29883 18.8623Q1.94336 19.1895 2.91016 19.1895ZM6.00586 8.83789Q5.17578 8.83789 4.49219 8.42773Q3.80859 8.01758 3.39844 7.3291Q2.98828 6.64062 2.98828 5.81055Q2.98828 4.98047 3.39844 4.29199Q3.80859 3.60352 4.49219 3.19336Q5.17578 2.7832 6.00586 2.7832Q6.8457 2.7832 7.5293 3.19336Q8.21289 3.60352 8.62305 4.29199Q9.0332 4.98047 9.0332 5.81055Q9.0332 6.64062 8.62305 7.3291Q8.21289 8.01758 7.5293 8.42773Q6.8457 8.83789 6.00586 8.83789ZM13.8184 8.83789Q12.9883 8.83789 12.2998 8.42773Q11.6113 8.01758 11.2012 7.3291Q10.791 6.64062 10.791 5.81055Q10.791 4.98047 11.2012 4.29199Q11.6113 3.60352 12.2998 3.19336Q12.9883 2.7832 13.8184 2.7832Q14.6484 2.7832 15.3369 3.19336Q16.0254 3.60352 16.4307 4.29199Q16.8359 4.98047 16.8359 5.81055Q16.8359 6.64062 16.4307 7.3291Q16.0254 8.01758 15.3369 8.42773Q14.6484 8.83789 13.8184 8.83789ZM6.00586 16.3867Q5.17578 16.3867 4.49219 15.9766Q3.80859 15.5664 3.39844 14.8828Q2.98828 14.1992 2.98828 13.3594Q2.98828 12.5293 3.39844 11.8457Q3.80859 11.1621 4.49219 10.752Q5.17578 10.3418 6.00586 10.3418Q6.8457 10.3418 7.5293 10.752Q8.21289 11.1621 8.62305 11.8457Q9.0332 12.5293 9.0332 13.3594Q9.0332 14.1992 8.62305 14.8828Q8.21289 15.5664 7.5293 15.9766Q6.8457 16.3867 6.00586 16.3867ZM13.8184 16.3867Q12.9883 16.3867 12.2998 15.9766Q11.6113 15.5664 11.2012 14.8828Q10.791 14.1992 10.791 13.3594Q10.791 12.5293 11.2012 11.8457Q11.6113 11.1621 12.2998 10.752Q12.9883 10.3418 13.8184 10.3418Q14.6484 10.3418 15.3369 10.752Q16.0254 11.1621 16.4307 11.8457Q16.8359 12.5293 16.8359 13.3594Q16.8359 14.1992 16.4307 14.8828Q16.0254 15.5664 15.3369 15.9766Q14.6484 16.3867 13.8184 16.3867ZM20.0293 6.13281Q19.6582 6.13281 19.3994 5.87891Q19.1406 5.625 19.1406 5.24414Q19.1406 4.88281 19.3994 4.62402Q19.6582 4.36523 20.0293 4.36523Q20.3906 4.36523 20.6494 4.62402Q20.9082 4.88281 20.9082 5.24414Q20.9082 5.625 20.6494 5.87891Q20.3906 6.13281 20.0293 6.13281ZM20.0293 9.02344Q19.6582 9.02344 19.3994 8.76953Q19.1406 8.51562 19.1406 8.13477Q19.1406 7.7832 19.3994 7.51953Q19.6582 7.25586 20.0293 7.25586Q20.3906 7.25586 20.6494 7.51953Q20.9082 7.7832 20.9082 8.13477Q20.9082 8.51562 20.6494 8.76953Q20.3906 9.02344 20.0293 9.02344ZM20.0293 11.9336Q19.6582 11.9336 19.3994 11.6699Q19.1406 11.4062 19.1406 11.0449Q19.1406 10.6738 19.3994 10.4199Q19.6582 10.166 20.0293 10.166Q20.3906 10.166 20.6494 10.4199Q20.9082 10.6738 20.9082 11.0449Q20.9082 11.4062 20.6494 11.6699Q20.3906 11.9336 20.0293 11.9336ZM20.0293 14.8242Q19.6582 14.8242 19.3994 14.5605Q19.1406 14.2969 19.1406 13.9355Q19.1406 13.5645 19.3994 13.3105Q19.6582 13.0566 20.0293 13.0566Q20.3906 13.0566 20.6494 13.3105Q20.9082 13.5645 20.9082 13.9355Q20.9082 14.2969 20.6494 14.5605Q20.3906 14.8242 20.0293 14.8242ZM6.00586 7.87109Q6.86523 7.87109 7.4707 7.27051Q8.07617 6.66992 8.07617 5.81055Q8.07617 4.95117 7.4707 4.35059Q6.86523 3.75 6.00586 3.75Q5.15625 3.75 4.55566 4.35059Q3.95508 4.95117 3.95508 5.81055Q3.95508 6.66992 4.55566 7.27051Q5.15625 7.87109 6.00586 7.87109ZM6.00586 7.40234Q5.3418 7.40234 4.8877 6.94336Q4.43359 6.48438 4.43359 5.81055Q4.43359 5.13672 4.8877 4.68262Q5.3418 4.22852 6.00586 4.22852Q6.67969 4.22852 7.13379 4.68262Q7.58789 5.13672 7.58789 5.81055Q7.58789 6.48438 7.13379 6.94336Q6.67969 7.40234 6.00586 7.40234ZM13.8184 7.87109Q14.668 7.87109 15.2734 7.27051Q15.8789 6.66992 15.8789 5.81055Q15.8789 4.95117 15.2734 4.35059Q14.668 3.75 13.8184 3.75Q12.9688 3.75 12.3633 4.35059Q11.7578 4.95117 11.7578 5.81055Q11.7578 6.66992 12.3633 7.27051Q12.9688 7.87109 13.8184 7.87109ZM13.8184 7.40234Q13.1445 7.40234 12.6855 6.94336Q12.2266 6.48438 12.2266 5.81055Q12.2266 5.13672 12.6855 4.68262Q13.1445 4.22852 13.8184 4.22852Q14.4824 4.22852 14.9414 4.68262Q15.4004 5.13672 15.4004 5.81055Q15.4004 6.48438 14.9414 6.94336Q14.4824 7.40234 13.8184 7.40234ZM6.00586 15.4199Q6.86523 15.4199 7.4707 14.8193Q8.07617 14.2188 8.07617 13.3594Q8.07617 12.5098 7.4707 11.9092Q6.86523 11.3086 6.00586 11.3086Q5.15625 11.3086 4.55566 11.9092Q3.95508 12.5098 3.95508 13.3594Q3.95508 14.2188 4.55566 14.8193Q5.15625 15.4199 6.00586 15.4199ZM6.00586 14.9512Q5.3418 14.9512 4.8877 14.4922Q4.43359 14.0332 4.43359 13.3594Q4.43359 12.6953 4.8877 12.2363Q5.3418 11.7773 6.00586 11.7773Q6.67969 11.7773 7.13379 12.2363Q7.58789 12.6953 7.58789 13.3594Q7.58789 14.0332 7.13379 14.4922Q6.67969 14.9512 6.00586 14.9512ZM13.8184 15.4199Q14.668 15.4199 15.2734 14.8193Q15.8789 14.2188 15.8789 13.3594Q15.8789 12.5098 15.2734 11.9092Q14.668 11.3086 13.8184 11.3086Q12.9688 11.3086 12.3633 11.9092Q11.7578 12.5098 11.7578 13.3594Q11.7578 14.2188 12.3633 14.8193Q12.9688 15.4199 13.8184 15.4199ZM13.8184 14.9512Q13.1445 14.9512 12.6855 14.4922Q12.2266 14.0332 12.2266 13.3594Q12.2266 12.6953 12.6855 12.2363Q13.1445 11.7773 13.8184 11.7773Q14.4824 11.7773 14.9414 12.2363Q15.4004 12.6953 15.4004 13.3594Q15.4004 14.0332 14.9414 14.4922Q14.4824 14.9512 13.8184 14.9512Z" fill="#ffffff"/>
 </g>
</svg>
