<?xml version="1.0" encoding="UTF-8"?>
<!--Generator: Apple Native CoreSVG 175-->
<!DOCTYPE svg
PUBLIC "-//W3C//DTD SVG 1.1//EN"
       "http://www.w3.org/Graphics/SVG/1.1/DTD/svg11.dtd">
<svg version="1.1" xmlns="http://www.w3.org/2000/svg" xmlns:xlink="http://www.w3.org/1999/xlink" width="22.3515" height="15.8597">
 <g>
  <rect height="15.8597" opacity="0" width="22.3515" x="0" y="0"/>
  <path d="M3.76205 13.0574Q3.33237 13.0574 3.0687 12.7972Q2.80502 12.5371 2.80502 12.1269L2.80502 10.3062Q2.80502 9.89334 3.0687 9.63104Q3.33237 9.36874 3.76205 9.36874L6.15463 9.36874Q6.58432 9.36874 6.85158 9.63104Q7.11884 9.89334 7.11884 10.3062L7.11884 12.1269Q7.11884 12.5371 6.85158 12.7972Q6.58432 13.0574 6.15463 13.0574ZM0 5.5574L0 3.41797L22.3515 3.41797L22.3515 5.5574ZM2.63046 15.8597L19.7141 15.8597Q21.0081 15.8597 21.6798 15.1872Q22.3515 14.5148 22.3515 13.2359L22.3515 2.65732Q22.3515 1.37848 21.6798 0.704651Q21.0081 0.0308228 19.7141 0.0308228L2.63046 0.0308228Q1.33636 0.0308228 0.668182 0.696259Q0 1.36169 0 2.65732L0 13.2359Q0 14.5288 0.668182 15.1942Q1.33636 15.8597 2.63046 15.8597Z" fill="rgba(0,0,0,0.85)"/>
 </g>
</svg>
