<?xml version="1.0" encoding="UTF-8"?>
<!--Generator: Apple Native CoreSVG 175.5-->
<!DOCTYPE svg
PUBLIC "-//W3C//DTD SVG 1.1//EN"
       "http://www.w3.org/Graphics/SVG/1.1/DTD/svg11.dtd">
<svg version="1.1" xmlns="http://www.w3.org/2000/svg" xmlns:xlink="http://www.w3.org/1999/xlink" width="19.9219" height="19.9316">
 <g>
  <rect height="19.9316" opacity="0" width="19.9219" x="0" y="0"/>
  <path d="M9.96094 19.9219Q12.002 19.9219 13.8037 19.1406Q15.6055 18.3594 16.9824 16.9824Q18.3594 15.6055 19.1406 13.8037Q19.9219 12.002 19.9219 9.96094Q19.9219 7.91992 19.1406 6.11816Q18.3594 4.31641 16.9824 2.93945Q15.6055 1.5625 13.7988 0.78125Q11.9922 0 9.95117 0Q7.91016 0 6.1084 0.78125Q4.30664 1.5625 2.93457 2.93945Q1.5625 4.31641 0.78125 6.11816Q0 7.91992 0 9.96094Q0 12.002 0.78125 13.8037Q1.5625 15.6055 2.93945 16.9824Q4.31641 18.3594 6.11816 19.1406Q7.91992 19.9219 9.96094 19.9219ZM9.96094 18.2617Q8.23242 18.2617 6.72852 17.6172Q5.22461 16.9727 4.08691 15.835Q2.94922 14.6973 2.30957 13.1934Q1.66992 11.6895 1.66992 9.96094Q1.66992 8.23242 2.30957 6.72852Q2.94922 5.22461 4.08203 4.08203Q5.21484 2.93945 6.71875 2.2998Q8.22266 1.66016 9.95117 1.66016Q11.6797 1.66016 13.1885 2.2998Q14.6973 2.93945 15.835 4.08203Q16.9727 5.22461 17.6172 6.72852Q18.2617 8.23242 18.2617 9.96094Q18.2617 11.6895 17.6221 13.1934Q16.9824 14.6973 15.8398 15.835Q14.6973 16.9727 13.1934 17.6172Q11.6895 18.2617 9.96094 18.2617Z" fill="#ffffff"/>
  <path d="M5.99609 9.9707Q5.99609 12.1387 7.08008 13.3984Q8.16406 14.6582 9.95117 14.6582Q11.25 14.6582 12.1387 14.0625Q13.0273 13.4668 13.3594 12.5Q13.4082 12.3926 13.4277 12.2754Q13.4473 12.1582 13.457 12.0312Q13.457 11.7676 13.291 11.6064Q13.125 11.4453 12.8516 11.4453Q12.6074 11.4453 12.4561 11.5723Q12.3047 11.6992 12.2266 11.9531Q12.0508 12.5879 11.5088 12.998Q10.9668 13.4082 10.2246 13.4766L10.2246 12.0605Q10.2246 11.3574 10.6152 10.9131Q11.0059 10.4688 11.6309 10.4688Q11.7773 10.4688 11.8848 10.4883Q11.9922 10.5078 12.0801 10.5078Q12.5586 10.5078 12.5586 10.0781Q12.5586 9.81445 12.3096 9.65332Q12.0605 9.49219 11.6699 9.49219Q11.2305 9.49219 10.835 9.7168Q10.4395 9.94141 10.2148 10.3711L10.2148 9.96094Q10.2148 9.46289 9.73633 9.46289Q9.52148 9.46289 9.38965 9.60449Q9.25781 9.74609 9.25781 9.96094L9.25781 13.3887Q8.33984 13.125 7.82227 12.2266Q7.30469 11.3281 7.30469 9.96094Q7.30469 8.36914 8.02246 7.41699Q8.74023 6.46484 9.94141 6.46484Q10.7422 6.46484 11.3379 6.9043Q11.9336 7.34375 12.1582 8.02734Q12.2363 8.25195 12.3779 8.39355Q12.5195 8.53516 12.7832 8.53516Q13.0566 8.53516 13.2178 8.37402Q13.3789 8.21289 13.3789 7.93945Q13.3789 7.68555 13.291 7.44141Q13.0664 6.80664 12.5781 6.31836Q12.0898 5.83008 11.4111 5.55664Q10.7324 5.2832 9.95117 5.2832Q8.75977 5.2832 7.87109 5.85938Q6.98242 6.43555 6.48926 7.49023Q5.99609 8.54492 5.99609 9.9707Z" fill="#ffffff"/>
 </g>
</svg>
