<?xml version="1.0" encoding="UTF-8"?>
<!--Generator: Apple Native CoreSVG 175-->
<!DOCTYPE svg
PUBLIC "-//W3C//DTD SVG 1.1//EN"
       "http://www.w3.org/Graphics/SVG/1.1/DTD/svg11.dtd">
<svg version="1.1" xmlns="http://www.w3.org/2000/svg" xmlns:xlink="http://www.w3.org/1999/xlink" width="19.1602" height="19.1504">
 <g>
  <rect height="19.1504" opacity="0" width="19.1602" x="0" y="0"/>
  <path d="M9.57031 19.1406Q11.5527 19.1406 13.2861 18.3984Q15.0195 17.6562 16.3379 16.333Q17.6562 15.0098 18.4082 13.2764Q19.1602 11.543 19.1602 9.57031Q19.1602 7.59766 18.4082 5.86426Q17.6562 4.13086 16.3379 2.80762Q15.0195 1.48438 13.2861 0.742188Q11.5527 0 9.57031 0Q7.59766 0 5.86426 0.742188Q4.13086 1.48438 2.81738 2.80762Q1.50391 4.13086 0.751953 5.86426Q0 7.59766 0 9.57031Q0 11.543 0.74707 13.2764Q1.49414 15.0098 2.8125 16.333Q4.13086 17.6562 5.86914 18.3984Q7.60742 19.1406 9.57031 19.1406ZM6.05469 9.56055Q6.05469 8.25195 6.48438 7.29492Q6.91406 6.33789 7.70996 5.81543Q8.50586 5.29297 9.62891 5.29297Q10.3711 5.29297 11.0107 5.58105Q11.6504 5.86914 12.0947 6.35742Q12.5391 6.8457 12.6953 7.45117Q12.7539 7.66602 12.7539 7.92969Q12.7539 8.0957 12.6709 8.17871Q12.5879 8.26172 12.4316 8.26172Q12.2949 8.26172 12.2168 8.18359Q12.1387 8.10547 12.1094 7.96875Q11.9531 7.10938 11.2744 6.51367Q10.5957 5.91797 9.61914 5.91797Q8.25195 5.91797 7.49023 6.89941Q6.72852 7.88086 6.72852 9.54102Q6.72852 11.0938 7.37305 12.0752Q8.01758 13.0566 9.16992 13.2227L9.16992 9.57031Q9.16992 9.42383 9.25293 9.33105Q9.33594 9.23828 9.45312 9.23828Q9.59961 9.23828 9.68262 9.33105Q9.76562 9.42383 9.76562 9.57031L9.76562 10.0293Q10.0293 9.59961 10.4248 9.38477Q10.8203 9.16992 11.2988 9.16992Q11.6992 9.16992 11.9727 9.30664Q12.2461 9.44336 12.2461 9.64844Q12.2461 9.90234 11.9922 9.90234Q11.8457 9.90234 11.7139 9.83398Q11.582 9.76562 11.2598 9.76562Q10.5664 9.76562 10.1709 10.3174Q9.77539 10.8691 9.77539 11.709L9.77539 13.2617Q10.7227 13.2227 11.3574 12.6904Q11.9922 12.1582 12.1191 11.3184Q12.1387 11.1816 12.2266 11.1035Q12.3145 11.0254 12.4414 11.0254Q12.5977 11.0254 12.6953 11.1182Q12.793 11.2109 12.7832 11.3574Q12.7734 11.4453 12.7588 11.5283Q12.7441 11.6113 12.7246 11.6895Q12.4805 12.666 11.6602 13.2764Q10.8398 13.8867 9.62891 13.8867Q7.95898 13.8867 7.00684 12.7295Q6.05469 11.5723 6.05469 9.56055Z" fill="#ffffff"/>
 </g>
</svg>
