<?xml version="1.0" encoding="UTF-8"?>
<!--Generator: Apple Native CoreSVG 175-->
<!DOCTYPE svg
PUBLIC "-//W3C//DTD SVG 1.1//EN"
       "http://www.w3.org/Graphics/SVG/1.1/DTD/svg11.dtd">
<svg version="1.1" xmlns="http://www.w3.org/2000/svg" xmlns:xlink="http://www.w3.org/1999/xlink" width="19.1602" height="19.1504">
 <g>
  <rect height="19.1504" opacity="0" width="19.1602" x="0" y="0"/>
  <path d="M9.57031 19.1406Q11.5527 19.1406 13.2861 18.3984Q15.0195 17.6562 16.3379 16.333Q17.6562 15.0098 18.4082 13.2764Q19.1602 11.543 19.1602 9.57031Q19.1602 7.59766 18.4082 5.86426Q17.6562 4.13086 16.3379 2.80762Q15.0195 1.48438 13.2861 0.742188Q11.5527 0 9.57031 0Q7.59766 0 5.86426 0.742188Q4.13086 1.48438 2.81738 2.80762Q1.50391 4.13086 0.751953 5.86426Q0 7.59766 0 9.57031Q0 11.543 0.74707 13.2764Q1.49414 15.0098 2.8125 16.333Q4.13086 17.6562 5.86914 18.3984Q7.60742 19.1406 9.57031 19.1406ZM9.57031 18.3984Q7.74414 18.3984 6.14746 17.71Q4.55078 17.0215 3.33496 15.8105Q2.11914 14.5996 1.43555 12.998Q0.751953 11.3965 0.751953 9.57031Q0.751953 7.74414 1.43555 6.14258Q2.11914 4.54102 3.33496 3.3252Q4.55078 2.10938 6.14746 1.4209Q7.74414 0.732422 9.57031 0.732422Q11.4062 0.732422 13.0029 1.4209Q14.5996 2.10938 15.8154 3.3252Q17.0312 4.54102 17.7197 6.14258Q18.4082 7.74414 18.4082 9.57031Q18.4082 11.3965 17.7246 12.998Q17.041 14.5996 15.8252 15.8105Q14.6094 17.0215 13.0078 17.71Q11.4062 18.3984 9.57031 18.3984ZM6.08398 9.56055Q6.08398 11.5527 7.02637 12.7051Q7.96875 13.8574 9.62891 13.8574Q10.8398 13.8574 11.6504 13.2471Q12.4609 12.6367 12.6953 11.6699Q12.7246 11.5918 12.7393 11.5088Q12.7539 11.4258 12.7637 11.3477Q12.7637 11.2012 12.6709 11.1084Q12.5781 11.0156 12.4219 11.0156Q12.2949 11.0156 12.2119 11.0938Q12.1289 11.1719 12.1094 11.3086Q11.9824 12.1387 11.3525 12.6709Q10.7227 13.2031 9.77539 13.2422L9.77539 11.6895Q9.77539 10.8594 10.1709 10.3125Q10.5664 9.76562 11.25 9.76562Q11.5723 9.76562 11.6992 9.8291Q11.8262 9.89258 11.9727 9.89258Q12.2266 9.89258 12.2266 9.64844Q12.2266 9.44336 11.958 9.31152Q11.6895 9.17969 11.2891 9.17969Q10.8203 9.17969 10.4199 9.39453Q10.0195 9.60938 9.76562 10.0293L9.76562 9.57031Q9.76562 9.24805 9.47266 9.24805Q9.33594 9.24805 9.25781 9.33594Q9.17969 9.42383 9.17969 9.57031L9.17969 13.2031Q8.02734 13.0371 7.3877 12.0605Q6.74805 11.084 6.74805 9.54102Q6.74805 7.89062 7.50977 6.91406Q8.27148 5.9375 9.62891 5.9375Q10.6055 5.9375 11.2744 6.52832Q11.9434 7.11914 12.0898 7.97852Q12.1191 8.11523 12.1973 8.19824Q12.2754 8.28125 12.4121 8.28125Q12.5684 8.28125 12.6514 8.19336Q12.7344 8.10547 12.7344 7.93945Q12.7344 7.68555 12.6758 7.4707Q12.5195 6.86523 12.0801 6.38184Q11.6406 5.89844 11.001 5.61523Q10.3613 5.33203 9.62891 5.33203Q8.51562 5.33203 7.72461 5.84473Q6.93359 6.35742 6.50879 7.30957Q6.08398 8.26172 6.08398 9.56055Z" fill="#ffffff"/>
 </g>
</svg>
