<?xml version="1.0" encoding="UTF-8"?>
<!--Generator: Apple Native CoreSVG 175-->
<!DOCTYPE svg
PUBLIC "-//W3C//DTD SVG 1.1//EN"
       "http://www.w3.org/Graphics/SVG/1.1/DTD/svg11.dtd">
<svg version="1.1" xmlns="http://www.w3.org/2000/svg" xmlns:xlink="http://www.w3.org/1999/xlink" width="15.6438" height="19.2035">
 <g>
  <rect height="19.2035" opacity="0" width="15.6438" x="0" y="0"/>
  <path d="M7.82196 19.191Q10.1657 19.191 11.9253 18.6719Q13.6848 18.1528 14.6643 17.3096Q15.6438 16.4664 15.6438 15.4843L15.6438 3.38669L14.9153 3.38669L14.9153 15.4843Q14.9153 16.2492 14.0292 16.9361Q13.143 17.623 11.5465 18.0529Q9.94995 18.4828 7.82196 18.4828Q5.69382 18.4828 4.09729 18.0529Q2.50076 17.623 1.61469 16.9361Q0.728607 16.2492 0.728607 15.4843L0.728607 3.38669L0 3.38669L0 15.4843Q0 16.4664 0.975952 17.3096Q1.9519 18.1528 3.71147 18.6719Q5.47104 19.191 7.82196 19.191ZM7.82196 6.77078Q10.1657 6.77078 11.9253 6.32072Q13.6848 5.87067 14.6643 5.1033Q15.6438 4.33594 15.6438 3.38669Q15.6438 2.43042 14.6643 1.66519Q13.6848 0.899963 11.9253 0.449982Q10.1657 0 7.82196 0Q5.47104 0 3.71147 0.449982Q1.9519 0.899963 0.975952 1.66519Q0 2.43042 0 3.38669Q0 4.33594 0.975952 5.1033Q1.9519 5.87067 3.71147 6.32072Q5.47104 6.77078 7.82196 6.77078ZM7.82196 6.06247Q5.69382 6.06247 4.09729 5.70312Q2.50076 5.34378 1.61469 4.7348Q0.728607 4.12582 0.728607 3.38669Q0.728607 2.63672 1.61469 2.02225Q2.50076 1.40778 4.09729 1.04431Q5.69382 0.680847 7.82196 0.680847Q9.94995 0.680847 11.5465 1.04431Q13.143 1.40778 14.0292 2.02225Q14.9153 2.63672 14.9153 3.38669Q14.9153 4.12582 14.0292 4.7348Q13.143 5.34378 11.5465 5.70312Q9.94995 6.06247 7.82196 6.06247Z" fill="rgba(0,0,0,0.85)"/>
 </g>
</svg>
