<?xml version="1.0" encoding="UTF-8"?>
<!--Generator: Apple Native CoreSVG 175-->
<!DOCTYPE svg
PUBLIC "-//W3C//DTD SVG 1.1//EN"
       "http://www.w3.org/Graphics/SVG/1.1/DTD/svg11.dtd">
<svg version="1.1" xmlns="http://www.w3.org/2000/svg" xmlns:xlink="http://www.w3.org/1999/xlink" width="20.0879" height="17.3145">
 <g>
  <rect height="17.3145" opacity="0" width="20.0879" x="0" y="0"/>
  <path d="M2.63672 17.3145L10.8008 17.3145Q11.3379 17.3145 11.7773 17.1826Q12.2168 17.0508 12.5977 16.8018Q12.9785 16.5527 13.3301 16.2012L19.3262 10.2539Q19.7461 9.84375 19.917 9.45312Q20.0879 9.0625 20.0879 8.64258Q20.0879 8.34961 20.0098 8.09082Q19.9316 7.83203 19.7656 7.56836Q19.5996 7.30469 19.3262 7.04102L13.3398 0.9375Q12.9883 0.585938 12.6074 0.385742Q12.2266 0.185547 11.7822 0.107422Q11.3379 0.0292969 10.8105 0.0292969L2.63672 0.0292969Q1.33789 0.0292969 0.668945 0.693359Q0 1.35742 0 2.65625L0 14.6875Q0 15.9863 0.668945 16.6504Q1.33789 17.3145 2.63672 17.3145ZM5.01953 12.3633Q4.86328 12.3633 4.74609 12.2559Q4.62891 12.1484 4.62891 11.9922Q4.62891 11.8164 4.75586 11.6895L7.76367 8.68164L4.75586 5.67383Q4.62891 5.54688 4.62891 5.37109Q4.62891 5.21484 4.74609 5.10742Q4.86328 5 5.01953 5Q5.18555 5 5.33203 5.13672L8.33008 8.125L11.3281 5.13672Q11.4648 5 11.6309 5Q11.7871 5 11.9043 5.10742Q12.0215 5.21484 12.0215 5.37109Q12.0215 5.53711 11.8945 5.67383L8.87695 8.68164L11.8945 11.6895Q12.0215 11.8164 12.0215 11.9922Q12.0215 12.1484 11.9043 12.2559Q11.7871 12.3633 11.6211 12.3633Q11.4551 12.3633 11.3086 12.2266L8.33008 9.23828L5.33203 12.2266Q5.19531 12.3633 5.01953 12.3633Z" fill="#ffffff"/>
 </g>
</svg>
