<?xml version="1.0" encoding="UTF-8"?>
<!--Generator: Apple Native CoreSVG 175-->
<!DOCTYPE svg
PUBLIC "-//W3C//DTD SVG 1.1//EN"
       "http://www.w3.org/Graphics/SVG/1.1/DTD/svg11.dtd">
<svg version="1.1" xmlns="http://www.w3.org/2000/svg" xmlns:xlink="http://www.w3.org/1999/xlink" width="17.2852" height="17.3145">
 <g>
  <rect height="17.3145" opacity="0" width="17.2852" x="0" y="0"/>
  <path d="M2.62695 17.3145L14.6484 17.3145Q15.957 17.3145 16.6211 16.6455Q17.2852 15.9766 17.2852 14.6875L17.2852 2.65625Q17.2852 1.37695 16.6211 0.703125Q15.957 0.0292969 14.6484 0.0292969L2.62695 0.0292969Q1.33789 0.0292969 0.668945 0.693359Q0 1.35742 0 2.65625L0 14.6875Q0 15.9863 0.668945 16.6504Q1.33789 17.3145 2.62695 17.3145ZM3.93555 5.41016Q3.32031 5.40039 2.88574 4.96582Q2.45117 4.53125 2.45117 3.90625Q2.45117 3.29102 2.88574 2.86621Q3.32031 2.44141 3.93555 2.44141Q4.54102 2.44141 4.98535 2.86621Q5.42969 3.29102 5.42969 3.90625Q5.42969 4.53125 4.98535 4.97559Q4.54102 5.41992 3.93555 5.41016ZM13.3789 5.41016Q12.7637 5.40039 12.3193 4.96582Q11.875 4.53125 11.875 3.90625Q11.875 3.29102 12.3193 2.86621Q12.7637 2.44141 13.3789 2.44141Q13.9844 2.44141 14.4189 2.86621Q14.8535 3.29102 14.8535 3.90625Q14.8535 4.53125 14.4189 4.97559Q13.9844 5.41992 13.3789 5.41016ZM3.93555 10.166Q3.32031 10.166 2.88574 9.72168Q2.45117 9.27734 2.45117 8.65234Q2.45117 8.03711 2.88574 7.60742Q3.32031 7.17773 3.93555 7.17773Q4.54102 7.17773 4.98535 7.60742Q5.42969 8.03711 5.42969 8.65234Q5.42969 9.27734 4.98535 9.72168Q4.54102 10.166 3.93555 10.166ZM13.3691 10.166Q12.7539 10.166 12.3193 9.72168Q11.8848 9.27734 11.8848 8.65234Q11.8848 8.03711 12.3193 7.60742Q12.7539 7.17773 13.3691 7.17773Q13.9746 7.17773 14.4141 7.60742Q14.8535 8.03711 14.8535 8.65234Q14.8535 9.27734 14.4141 9.72168Q13.9746 10.166 13.3691 10.166ZM3.93555 14.873Q3.32031 14.873 2.88574 14.4385Q2.45117 14.0039 2.45117 13.3789Q2.45117 12.7734 2.88574 12.3389Q3.32031 11.9043 3.93555 11.9043Q4.54102 11.9043 4.97559 12.3389Q5.41016 12.7734 5.41016 13.3789Q5.41016 14.0039 4.97559 14.4385Q4.54102 14.873 3.93555 14.873ZM13.3789 14.873Q12.7637 14.873 12.3291 14.4385Q11.8945 14.0039 11.8945 13.3789Q11.8945 12.7734 12.3291 12.3389Q12.7637 11.9043 13.3789 11.9043Q13.9844 11.9043 14.4189 12.3389Q14.8535 12.7734 14.8535 13.3789Q14.8535 14.0039 14.4189 14.4385Q13.9844 14.873 13.3789 14.873Z" fill="#ffffff"/>
 </g>
</svg>
