<?xml version="1.0" encoding="UTF-8"?>
<!--Generator: Apple Native CoreSVG 175-->
<!DOCTYPE svg
PUBLIC "-//W3C//DTD SVG 1.1//EN"
       "http://www.w3.org/Graphics/SVG/1.1/DTD/svg11.dtd">
<svg version="1.1" xmlns="http://www.w3.org/2000/svg" xmlns:xlink="http://www.w3.org/1999/xlink" width="17.2852" height="17.3145">
 <g>
  <rect height="17.3145" opacity="0" width="17.2852" x="0" y="0"/>
  <path d="M2.62695 17.3145L14.6484 17.3145Q15.957 17.3145 16.6211 16.6455Q17.2852 15.9766 17.2852 14.6875L17.2852 2.65625Q17.2852 1.37695 16.6211 0.703125Q15.957 0.0292969 14.6484 0.0292969L2.62695 0.0292969Q1.33789 0.0292969 0.668945 0.693359Q0 1.35742 0 2.65625L0 14.6875Q0 15.9863 0.668945 16.6504Q1.33789 17.3145 2.62695 17.3145ZM8.65234 10.1562Q8.03711 10.1562 7.59766 9.7168Q7.1582 9.27734 7.1582 8.65234Q7.1582 8.03711 7.59766 7.60742Q8.03711 7.17773 8.65234 7.17773Q9.25781 7.17773 9.69238 7.60742Q10.127 8.03711 10.127 8.65234Q10.127 9.27734 9.69238 9.72168Q9.25781 10.166 8.65234 10.1562Z" fill="rgba(0,0,0,0.85)"/>
 </g>
</svg>
