<?xml version="1.0" encoding="UTF-8"?>
<!--Generator: Apple Native CoreSVG 175-->
<!DOCTYPE svg
PUBLIC "-//W3C//DTD SVG 1.1//EN"
       "http://www.w3.org/Graphics/SVG/1.1/DTD/svg11.dtd">
<svg version="1.1" xmlns="http://www.w3.org/2000/svg" xmlns:xlink="http://www.w3.org/1999/xlink" width="19.489" height="18.4763">
 <g>
  <rect height="18.4763" opacity="0" width="19.489" x="0" y="0"/>
  <path d="M11.821 9.23325Q11.821 11.9243 12.3079 13.9481Q12.7949 15.972 13.6545 17.0923Q14.5141 18.2126 15.655 18.2126Q16.789 18.2126 17.6535 17.0923Q18.518 15.972 19.0035 13.9481Q19.489 11.9243 19.489 9.23325Q19.489 6.53946 19.0035 4.51698Q18.518 2.49451 17.6535 1.36932Q16.789 0.244141 15.655 0.244141Q14.5141 0.244141 13.6545 1.36932Q12.7949 2.49451 12.3079 4.51698Q11.821 6.53946 11.821 9.23325ZM6.75497 9.23325Q6.75497 12.0282 7.30497 14.103Q7.85497 16.1778 9.02319 17.3222Q10.1914 18.4665 12.0424 18.4665L13.814 18.4665Q12.6792 17.6357 11.9597 15.7732L10.2828 15.7732Q10.1456 15.7732 10.0501 15.6741Q9.95458 15.5751 9.95458 15.4379Q9.95458 15.3008 10.0501 15.2031Q10.1456 15.1054 10.2828 15.1054L11.7254 15.1054Q11.5308 14.5027 11.3972 13.8615Q11.2636 13.2204 11.1953 12.7821L9.54138 12.7821Q9.41122 12.7821 9.31219 12.6845Q9.21316 12.5868 9.21316 12.4496Q9.21316 12.3125 9.31219 12.2134Q9.41122 12.1144 9.54138 12.1144L11.1162 12.1144Q11.0393 11.4673 10.996 10.7331Q10.9527 9.99893 10.9499 9.53995L9.29449 9.53995Q9.15731 9.53995 9.05966 9.44229Q8.962 9.34464 8.962 9.20746Q8.962 9.07028 9.05966 8.97125Q9.15731 8.87222 9.29449 8.87222L10.9527 8.87222Q10.9554 8.28827 10.9987 7.61795Q11.0421 6.94763 11.1217 6.30051L9.54138 6.30051Q9.41122 6.30051 9.31219 6.20148Q9.21316 6.10245 9.21316 5.96527Q9.21316 5.82809 9.31219 5.73044Q9.41122 5.63278 9.54138 5.63278L11.2061 5.63278Q11.3125 5.02899 11.4333 4.44458Q11.5542 3.86017 11.7374 3.30948L10.2828 3.30948Q10.1456 3.30948 10.0501 3.21182Q9.95458 3.11417 9.95458 2.97699Q9.95458 2.83981 10.0501 2.74078Q10.1456 2.64175 10.2828 2.64175L11.9773 2.64175Q12.6887 0.814514 13.814 0L12.0424 0Q10.1914 0 9.02319 1.14433Q7.85497 2.28867 7.30497 4.36348Q6.75497 6.43829 6.75497 9.23325ZM2.56048 16.5211Q2.67263 16.5211 2.77082 16.4588Q2.86901 16.3965 2.90983 16.2872Q2.95065 16.1778 2.88976 16.0297Q2.36364 14.5895 2.10836 13.1824Q1.85308 11.7754 1.85308 10.2484Q1.85308 8.72147 2.10836 7.31094Q2.36364 5.90042 2.88976 4.46716L2.22723 4.21524Q1.67333 5.7164 1.40905 7.19063Q1.14477 8.66486 1.14477 10.2484Q1.14477 11.8321 1.41042 13.3028Q1.67608 14.7736 2.22723 16.2817Q2.273 16.409 2.36555 16.4651Q2.45809 16.5211 2.56048 16.5211ZM0.283105 4.57153L3.96902 5.9079Q4.17181 5.97305 4.31616 5.89531Q4.4605 5.81757 4.52223 5.65369Q4.58395 5.48981 4.53115 5.31052L3.64874 2.23282Q3.58358 1.99646 3.35325 1.89827Q3.12292 1.80008 2.8948 1.95038L0.233514 3.74924Q0.0737546 3.86063 0.0229428 4.02939Q-0.027869 4.19815 0.0338528 4.35219Q0.0955746 4.50623 0.283105 4.57153Z" fill="rgba(0,0,0,0.85)"/>
 </g>
</svg>
