<?xml version="1.0" encoding="UTF-8"?>
<!--Generator: Apple Native CoreSVG 175.5-->
<!DOCTYPE svg
PUBLIC "-//W3C//DTD SVG 1.1//EN"
       "http://www.w3.org/Graphics/SVG/1.1/DTD/svg11.dtd">
<svg version="1.1" xmlns="http://www.w3.org/2000/svg" xmlns:xlink="http://www.w3.org/1999/xlink" width="19.7949" height="22.6465">
 <g>
  <rect height="22.6465" opacity="0" width="19.7949" x="0" y="0"/>
  <path d="M3.18359 3.37891L4.61914 3.37891L4.61914 0.673828Q4.61914 0.390625 4.4043 0.195312Q4.18945 0 3.90625 0Q3.61328 0 3.39844 0.195312Q3.18359 0.390625 3.18359 0.673828ZM3.90625 22.6367Q4.18945 22.6367 4.4043 22.4414Q4.61914 22.2461 4.61914 21.9629L4.61914 19.375L3.18359 19.375L3.18359 21.9629Q3.18359 22.2461 3.39844 22.4414Q3.61328 22.6367 3.90625 22.6367ZM15.1855 6.11328L16.6211 6.11328L16.6211 0.673828Q16.6211 0.390625 16.4062 0.195312Q16.1914 0 15.8984 0Q15.6152 0 15.4004 0.195312Q15.1855 0.390625 15.1855 0.673828ZM15.8984 22.6367Q16.1914 22.6367 16.4062 22.4414Q16.6211 22.2461 16.6211 21.9629L16.6211 16.543L15.1855 16.543L15.1855 21.9629Q15.1855 22.2461 15.4004 22.4414Q15.6152 22.6367 15.8984 22.6367Z" fill="#ffffff"/>
  <path d="M2.19727 20.1367L5.5957 20.1367Q6.66016 20.1367 7.22656 19.5605Q7.79297 18.9844 7.79297 17.8906L7.79297 4.74609Q7.79297 3.65234 7.22656 3.08105Q6.66016 2.50977 5.5957 2.50977L2.19727 2.50977Q1.13281 2.50977 0.566406 3.08105Q0 3.65234 0 4.74609L0 17.8906Q0 18.9844 0.566406 19.5605Q1.13281 20.1367 2.19727 20.1367ZM2.28516 18.6621Q1.89453 18.6621 1.68457 18.457Q1.47461 18.252 1.47461 17.8711L1.47461 4.76562Q1.47461 4.39453 1.68457 4.18945Q1.89453 3.98438 2.28516 3.98438L5.51758 3.98438Q5.9082 3.98438 6.11328 4.18945Q6.31836 4.39453 6.31836 4.76562L6.31836 17.8711Q6.31836 18.252 6.11328 18.457Q5.9082 18.6621 5.51758 18.6621ZM14.1992 17.2363L17.5977 17.2363Q18.6621 17.2363 19.2285 16.665Q19.7949 16.0938 19.7949 15L19.7949 7.63672Q19.7949 6.54297 19.2285 5.97168Q18.6621 5.40039 17.5977 5.40039L14.1992 5.40039Q13.1348 5.40039 12.5684 5.97168Q12.002 6.54297 12.002 7.63672L12.002 15Q12.002 16.0938 12.5684 16.665Q13.1348 17.2363 14.1992 17.2363ZM14.2773 15.7617Q13.8867 15.7617 13.6816 15.5566Q13.4766 15.3516 13.4766 14.9805L13.4766 7.66602Q13.4766 7.28516 13.6816 7.08008Q13.8867 6.875 14.2773 6.875L17.5098 6.875Q17.9004 6.875 18.1104 7.08008Q18.3203 7.28516 18.3203 7.66602L18.3203 14.9805Q18.3203 15.3516 18.1104 15.5566Q17.9004 15.7617 17.5098 15.7617Z" fill="#ffffff"/>
 </g>
</svg>
