<?xml version="1.0" encoding="UTF-8"?>
<!--Generator: Apple Native CoreSVG 175.5-->
<!DOCTYPE svg
PUBLIC "-//W3C//DTD SVG 1.1//EN"
       "http://www.w3.org/Graphics/SVG/1.1/DTD/svg11.dtd">
<svg version="1.1" xmlns="http://www.w3.org/2000/svg" xmlns:xlink="http://www.w3.org/1999/xlink" width="17.9785" height="17.998">
 <g>
  <rect height="17.998" opacity="0" width="17.9785" x="0" y="0"/>
  <path d="M3.06641 17.998L14.9121 17.998Q16.4453 17.998 17.2119 17.2412Q17.9785 16.4844 17.9785 14.9707L17.9785 3.04688Q17.9785 1.5332 17.2119 0.776367Q16.4453 0.0195312 14.9121 0.0195312L3.06641 0.0195312Q1.5332 0.0195312 0.766602 0.776367Q0 1.5332 0 3.04688L0 14.9707Q0 16.4844 0.766602 17.2412Q1.5332 17.998 3.06641 17.998Z" fill="#ffffff"/>
  <path d="M8.97461 6.49414Q8.4668 6.49414 8.12012 6.17188Q7.77344 5.84961 7.77344 5.38086Q7.77344 4.84375 8.12012 4.50195Q8.4668 4.16016 8.97461 4.16016Q9.53125 4.16016 9.87305 4.50195Q10.2148 4.84375 10.2148 5.38086Q10.2148 5.84961 9.86816 6.17188Q9.52148 6.49414 8.97461 6.49414ZM5.07812 9.85352Q4.64844 9.85352 4.38477 9.63867Q4.12109 9.42383 4.12109 9.01367Q4.12109 8.60352 4.37988 8.38379Q4.63867 8.16406 5.07812 8.16406L12.9199 8.16406Q13.3594 8.16406 13.6084 8.38379Q13.8574 8.60352 13.8574 9.01367Q13.8574 9.42383 13.5986 9.63867Q13.3398 9.85352 12.9199 9.85352ZM8.97461 13.8477Q8.4668 13.8477 8.12012 13.5205Q7.77344 13.1934 7.77344 12.7246Q7.77344 12.1875 8.12012 11.8506Q8.4668 11.5137 8.97461 11.5137Q9.53125 11.5137 9.87305 11.8506Q10.2148 12.1875 10.2148 12.7246Q10.2148 13.1934 9.86816 13.5205Q9.52148 13.8477 8.97461 13.8477Z" fill="none"/>
 </g>
</svg>
