<?xml version="1.0" encoding="UTF-8"?>
<!--Generator: Apple Native CoreSVG 175-->
<!DOCTYPE svg
PUBLIC "-//W3C//DTD SVG 1.1//EN"
       "http://www.w3.org/Graphics/SVG/1.1/DTD/svg11.dtd">
<svg version="1.1" xmlns="http://www.w3.org/2000/svg" xmlns:xlink="http://www.w3.org/1999/xlink" width="19.1602" height="19.1504">
 <g>
  <rect height="19.1504" opacity="0" width="19.1602" x="0" y="0"/>
  <path d="M9.57031 19.1406Q11.5527 19.1406 13.2861 18.3984Q15.0195 17.6562 16.3379 16.333Q17.6562 15.0098 18.4082 13.2764Q19.1602 11.543 19.1602 9.57031Q19.1602 7.59766 18.4082 5.86426Q17.6562 4.13086 16.3379 2.80762Q15.0195 1.48438 13.2861 0.742188Q11.5527 0 9.57031 0Q7.59766 0 5.86426 0.742188Q4.13086 1.48438 2.81738 2.80762Q1.50391 4.13086 0.751953 5.86426Q0 7.59766 0 9.57031Q0 11.543 0.74707 13.2764Q1.49414 15.0098 2.8125 16.333Q4.13086 17.6562 5.86914 18.3984Q7.60742 19.1406 9.57031 19.1406ZM9.57031 6.66992Q9.27734 6.66992 9.07715 6.48438Q8.87695 6.29883 8.87695 6.01562Q8.87695 5.72266 9.07715 5.51758Q9.27734 5.3125 9.57031 5.3125Q9.86328 5.3125 10.0635 5.5127Q10.2637 5.71289 10.2637 6.00586Q10.2637 6.28906 10.0635 6.47949Q9.86328 6.66992 9.57031 6.66992ZM5.22461 9.96094Q5.04883 9.96094 4.93164 9.86328Q4.81445 9.76562 4.81445 9.58008Q4.81445 9.4043 4.92676 9.30664Q5.03906 9.20898 5.22461 9.20898L13.9258 9.20898Q14.1016 9.20898 14.2139 9.30664Q14.3262 9.4043 14.3262 9.58008Q14.3262 9.76562 14.209 9.86328Q14.0918 9.96094 13.9258 9.96094ZM9.57031 13.8477Q9.27734 13.8477 9.07715 13.6621Q8.87695 13.4766 8.87695 13.1836Q8.87695 12.9004 9.07715 12.6953Q9.27734 12.4902 9.57031 12.4902Q9.86328 12.4902 10.0635 12.6904Q10.2637 12.8906 10.2637 13.1836Q10.2637 13.457 10.0635 13.6523Q9.86328 13.8477 9.57031 13.8477Z" fill="#ffffff"/>
 </g>
</svg>
