<?xml version="1.0" encoding="UTF-8"?>
<!--Generator: Apple Native CoreSVG 175-->
<!DOCTYPE svg
PUBLIC "-//W3C//DTD SVG 1.1//EN"
       "http://www.w3.org/Graphics/SVG/1.1/DTD/svg11.dtd">
<svg version="1.1" xmlns="http://www.w3.org/2000/svg" xmlns:xlink="http://www.w3.org/1999/xlink" width="17.4176" height="23.3685">
 <g>
  <rect height="23.3685" opacity="0" width="17.4176" x="0" y="0"/>
  <path d="M2.62665 21.6461L9.34219 21.6461Q9.13712 21.4899 8.94493 21.3088Q8.75275 21.1278 8.59283 20.9247L2.66525 20.9247Q1.7067 20.9247 1.21765 20.4348Q0.728607 19.9449 0.728607 18.9946L0.728607 3.66104Q0.728607 2.74155 1.21765 2.23701Q1.7067 1.73248 2.66525 1.73248L13.1165 1.73248Q14.0738 1.73248 14.5656 2.2229Q15.0574 2.71332 15.0574 3.66104L15.0574 14.4574Q15.2606 14.6214 15.4417 14.8115Q15.6227 15.0015 15.779 15.2066L15.779 3.63449Q15.779 2.34039 15.1135 1.67221Q14.4481 1.00403 13.1523 1.00403L2.62665 1.00403Q1.35468 1.00403 0.677338 1.67351Q0 2.34299 0 3.63449L0 19.0157Q0 20.3099 0.668945 20.978Q1.33789 21.6461 2.62665 21.6461ZM3.8887 5.64667L11.9028 5.64667Q12.0442 5.64667 12.1391 5.55031Q12.234 5.45395 12.234 5.31967Q12.234 5.18799 12.1391 5.09445Q12.0442 5.00092 11.9028 5.00092L3.8887 5.00092Q3.74176 5.00092 3.64471 5.09445Q3.54767 5.18799 3.54767 5.31967Q3.54767 5.45395 3.64471 5.55031Q3.74176 5.64667 3.8887 5.64667ZM3.8887 9.10126L11.9028 9.10126Q12.0442 9.10126 12.1391 9.00635Q12.234 8.91144 12.234 8.77701Q12.234 8.64273 12.1391 8.54912Q12.0442 8.45551 11.9028 8.45551L3.8887 8.45551Q3.74176 8.45551 3.64471 8.54912Q3.54767 8.64273 3.54767 8.77701Q3.54767 8.91144 3.64471 9.00635Q3.74176 9.10126 3.8887 9.10126ZM12.034 21.6461Q13.0692 21.6461 13.9176 21.1397Q14.7661 20.6332 15.2725 19.7849Q15.779 18.9365 15.779 17.9013Q15.779 16.8634 15.2725 16.0114Q14.7661 15.1595 13.9176 14.6481Q13.0692 14.1368 12.034 14.1368Q10.9988 14.1368 10.1469 14.6481Q9.29489 15.1595 8.7822 16.0127Q8.2695 16.866 8.2695 17.9013Q8.2695 18.9365 8.7822 19.7849Q9.29489 20.6332 10.1469 21.1397Q10.9988 21.6461 12.034 21.6461ZM12.034 20.9598Q11.1899 20.9598 10.4935 20.5475Q9.79721 20.1352 9.38004 19.4389Q8.96286 18.7427 8.96286 17.9013Q8.96286 17.0598 9.38004 16.3635Q9.79721 15.6673 10.4935 15.2501Q11.1899 14.8329 12.034 14.8329Q12.8726 14.8329 13.569 15.2501Q14.2653 15.6673 14.6776 16.3635Q15.0899 17.0598 15.0899 17.9013Q15.0899 18.7427 14.6776 19.4389Q14.2653 20.1352 13.5703 20.5475Q12.8754 20.9598 12.034 20.9598ZM16.9992 23.3685Q17.1863 23.3685 17.3019 23.2452Q17.4176 23.1219 17.4176 22.9407Q17.4176 22.8337 17.376 22.757Q17.3344 22.6802 17.2566 22.5981L14.684 20.0157L14.0485 20.6017L16.6098 23.1798Q16.7984 23.3685 16.9992 23.3685Z" fill="#ffffff"/>
 </g>
</svg>
