<?xml version="1.0" encoding="UTF-8"?>
<!--Generator: Apple Native CoreSVG 175.5-->
<!DOCTYPE svg
PUBLIC "-//W3C//DTD SVG 1.1//EN"
       "http://www.w3.org/Graphics/SVG/1.1/DTD/svg11.dtd">
<svg version="1.1" xmlns="http://www.w3.org/2000/svg" xmlns:xlink="http://www.w3.org/1999/xlink" width="16.4258" height="20.9473">
 <g>
  <rect height="20.9473" opacity="0" width="16.4258" x="0" y="0"/>
  <path d="M4.41406 7.88086L6.06445 7.88086Q6.50391 7.88086 6.61133 7.4707L7.45117 4.08203L6.60156 4.08203L7.83203 10.0488Q7.88086 10.3223 8.09082 10.415Q8.30078 10.5078 8.51562 10.4199Q8.73047 10.332 8.81836 10.0684L10.2051 5.27344L9.41406 5.25391L9.93164 7.44141Q10.0293 7.88086 10.4785 7.88086L12.0117 7.88086Q12.2266 7.88086 12.373 7.73438Q12.5195 7.58789 12.5195 7.38281Q12.5195 7.16797 12.373 7.02148Q12.2266 6.875 12.0117 6.875L10.5762 6.875L10.8301 7.07031L10.2734 4.91211Q10.2051 4.6582 10 4.5752Q9.79492 4.49219 9.58984 4.58496Q9.38477 4.67773 9.29688 4.93164L7.88086 9.56055L8.70117 9.56055L7.49023 3.59375Q7.43164 3.33008 7.22656 3.2373Q7.02148 3.14453 6.80664 3.23242Q6.5918 3.32031 6.5332 3.58398L5.6543 7.17773L5.94727 6.875L4.41406 6.875Q4.19922 6.875 4.05273 7.02637Q3.90625 7.17773 3.90625 7.38281Q3.90625 7.58789 4.05273 7.73438Q4.19922 7.88086 4.41406 7.88086ZM4.51172 13.0762L11.9238 13.0762Q12.1777 13.0762 12.3486 12.9004Q12.5195 12.7246 12.5195 12.4707Q12.5195 12.2168 12.3486 12.0459Q12.1777 11.875 11.9238 11.875L4.51172 11.875Q4.24805 11.875 4.07715 12.0459Q3.90625 12.2168 3.90625 12.4707Q3.90625 12.7246 4.07715 12.9004Q4.24805 13.0762 4.51172 13.0762ZM4.51172 16.4844L8.01758 16.4844Q8.28125 16.4844 8.45215 16.3135Q8.62305 16.1426 8.62305 15.8887Q8.62305 15.6348 8.45215 15.459Q8.28125 15.2832 8.01758 15.2832L4.51172 15.2832Q4.24805 15.2832 4.07715 15.459Q3.90625 15.6348 3.90625 15.8887Q3.90625 16.1426 4.07715 16.3135Q4.24805 16.4844 4.51172 16.4844ZM0 17.8809Q0 19.4141 0.756836 20.1758Q1.51367 20.9375 3.02734 20.9375L13.3984 20.9375Q14.9121 20.9375 15.6689 20.1758Q16.4258 19.4141 16.4258 17.8809L16.4258 3.06641Q16.4258 1.54297 15.6689 0.771484Q14.9121 0 13.3984 0L3.02734 0Q1.51367 0 0.756836 0.771484Q0 1.54297 0 3.06641ZM1.57227 17.8516L1.57227 3.0957Q1.57227 2.36328 1.95801 1.96777Q2.34375 1.57227 3.10547 1.57227L13.3203 1.57227Q14.082 1.57227 14.4678 1.96777Q14.8535 2.36328 14.8535 3.0957L14.8535 17.8516Q14.8535 18.584 14.4678 18.9746Q14.082 19.3652 13.3203 19.3652L3.10547 19.3652Q2.34375 19.3652 1.95801 18.9746Q1.57227 18.584 1.57227 17.8516Z" fill="#ffffff"/>
 </g>
</svg>
