<?xml version="1.0" encoding="UTF-8"?>
<!--Generator: Apple Native CoreSVG 175.5-->
<!DOCTYPE svg
PUBLIC "-//W3C//DTD SVG 1.1//EN"
       "http://www.w3.org/Graphics/SVG/1.1/DTD/svg11.dtd">
<svg version="1.1" xmlns="http://www.w3.org/2000/svg" xmlns:xlink="http://www.w3.org/1999/xlink" width="19.9707" height="24.5996">
 <g>
  <rect height="24.5996" opacity="0" width="19.9707" x="0" y="0"/>
  <path d="M16.5625 19.6973L16.9434 19.6973Q17.6953 19.6973 18.2617 19.502Q18.8281 19.3066 19.209 18.9258Q19.5898 18.5449 19.7803 17.9688Q19.9707 17.3926 19.9707 16.6309L19.9707 7.36328L14.5703 7.36328Q13.7988 7.36328 13.3838 6.94824Q12.9688 6.5332 12.9688 5.77148L12.9688 0L7.76367 0Q6.2793 0 5.50781 0.761719Q4.73633 1.52344 4.73633 2.98828L4.73633 3.54492L6.15234 3.54492Q7.17773 3.54492 8.03711 3.83789Q8.89648 4.13086 9.7168 4.95117L15.2637 10.4883Q16.084 11.3086 16.3232 12.1826Q16.5625 13.0566 16.5625 14.0527ZM14.7559 6.14258L19.8535 6.14258Q19.8145 5.9082 19.6631 5.69336Q19.5117 5.47852 19.248 5.21484L15.1172 1.00586Q14.8633 0.742188 14.6436 0.585938Q14.4238 0.429688 14.1992 0.400391L14.209 5.57617Q14.209 6.14258 14.7559 6.14258Z" fill="#ffffff"/>
  <path d="M3.02734 24.5703L12.207 24.5703Q13.7207 24.5703 14.4775 23.7988Q15.2344 23.0273 15.2344 21.5039L15.2344 13.7891L8.41797 13.7891Q7.4707 13.7891 7.02148 13.335Q6.57227 12.8809 6.57227 11.9434L6.57227 4.87305L3.02734 4.87305Q1.51367 4.87305 0.756836 5.64453Q0 6.41602 0 7.93945L0 21.5039Q0 23.0371 0.756836 23.8037Q1.51367 24.5703 3.02734 24.5703ZM8.4082 12.4512L15.0586 12.4512Q14.9805 12.168 14.8047 11.8848Q14.6289 11.6016 14.2969 11.2695L9.08203 5.95703Q8.75977 5.625 8.47168 5.41016Q8.18359 5.19531 7.90039 5.11719L7.90039 11.9531Q7.90039 12.4512 8.4082 12.4512Z" fill="#ffffff"/>
 </g>
</svg>
