<?xml version="1.0" encoding="UTF-8"?>
<!--Generator: Apple Native CoreSVG 175.5-->
<!DOCTYPE svg
PUBLIC "-//W3C//DTD SVG 1.1//EN"
       "http://www.w3.org/Graphics/SVG/1.1/DTD/svg11.dtd">
<svg version="1.1" xmlns="http://www.w3.org/2000/svg" xmlns:xlink="http://www.w3.org/1999/xlink" width="17.9785" height="17.998">
 <g>
  <rect height="17.998" opacity="0" width="17.9785" x="0" y="0"/>
  <path d="M3.06641 17.998L14.9121 17.998Q16.4453 17.998 17.2119 17.2412Q17.9785 16.4844 17.9785 14.9707L17.9785 3.04688Q17.9785 1.5332 17.2119 0.776367Q16.4453 0.0195312 14.9121 0.0195312L3.06641 0.0195312Q1.5332 0.0195312 0.766602 0.776367Q0 1.5332 0 3.04688L0 14.9707Q0 16.4844 0.766602 17.2412Q1.5332 17.998 3.06641 17.998ZM3.08594 16.4258Q2.35352 16.4258 1.96289 16.04Q1.57227 15.6543 1.57227 14.8926L1.57227 3.125Q1.57227 2.36328 1.96289 1.97754Q2.35352 1.5918 3.08594 1.5918L14.8926 1.5918Q15.6152 1.5918 16.0107 1.97754Q16.4062 2.36328 16.4062 3.125L16.4062 14.8926Q16.4062 15.6543 16.0107 16.04Q15.6152 16.4258 14.8926 16.4258Z" fill="#ffffff"/>
  <path d="M8.99414 14.5703Q9.18945 14.5703 9.32129 14.4434Q9.45312 14.3164 9.45312 14.1113L9.45312 13.4277Q10.5957 13.3105 11.3721 12.6709Q12.1484 12.0312 12.1484 10.9277Q12.1484 9.93164 11.5039 9.32617Q10.8594 8.7207 9.58984 8.49609L9.45312 8.4668L9.45312 5.74219Q9.98047 5.83984 10.3369 6.14746Q10.6934 6.45508 10.8398 6.94336Q11.0059 7.42188 11.4355 7.42188Q11.6895 7.42188 11.8506 7.26074Q12.0117 7.09961 12.0117 6.8457Q12.0117 6.76758 11.9971 6.69434Q11.9824 6.62109 11.9629 6.54297Q11.7676 5.75195 11.0791 5.23926Q10.3906 4.72656 9.45312 4.61914L9.45312 3.94531Q9.45312 3.74023 9.32129 3.61328Q9.18945 3.48633 8.99414 3.48633Q8.53516 3.48633 8.53516 3.94531L8.53516 4.61914Q7.42188 4.74609 6.70898 5.39551Q5.99609 6.04492 5.99609 7.04102Q5.99609 7.96875 6.62109 8.54492Q7.24609 9.12109 8.4668 9.4043L8.53516 9.42383L8.53516 12.3145Q7.87109 12.2168 7.48535 11.875Q7.09961 11.5332 6.98242 11.0449Q6.89453 10.8008 6.74316 10.6787Q6.5918 10.5566 6.37695 10.5566Q6.13281 10.5566 5.97168 10.7178Q5.81055 10.8789 5.81055 11.1328Q5.81055 11.2109 5.8252 11.2842Q5.83984 11.3574 5.85938 11.4355Q6.06445 12.2852 6.80664 12.7979Q7.54883 13.3105 8.53516 13.4082L8.53516 14.1113Q8.53516 14.3164 8.66699 14.4434Q8.79883 14.5703 8.99414 14.5703ZM8.53516 8.22266L8.4668 8.20312Q7.8125 8.00781 7.50488 7.70996Q7.19727 7.41211 7.19727 6.98242Q7.19727 6.5332 7.55371 6.19141Q7.91016 5.84961 8.53516 5.74219ZM9.45312 9.6582L9.66797 9.70703Q10.3711 9.90234 10.6543 10.2148Q10.9375 10.5273 10.9375 10.9961Q10.9375 11.5137 10.5713 11.8701Q10.2051 12.2266 9.45312 12.3145Z" fill="#ffffff"/>
 </g>
</svg>
