<?xml version="1.0" encoding="UTF-8"?>
<!--Generator: Apple Native CoreSVG 175.5-->
<!DOCTYPE svg
PUBLIC "-//W3C//DTD SVG 1.1//EN"
       "http://www.w3.org/Graphics/SVG/1.1/DTD/svg11.dtd">
<svg version="1.1" xmlns="http://www.w3.org/2000/svg" xmlns:xlink="http://www.w3.org/1999/xlink" width="21.8169" height="19.9316">
 <g>
  <rect height="19.9316" opacity="0" width="21.8169" x="0" y="0"/>
  <path d="M11.856 19.9219Q13.897 19.9219 15.6988 19.1406Q17.5005 18.3594 18.8775 16.9824Q20.2544 15.6055 21.0357 13.8037Q21.8169 12.002 21.8169 9.96094Q21.8169 7.91992 21.0357 6.11816Q20.2544 4.31641 18.8775 2.93945Q17.5005 1.5625 15.6988 0.78125Q13.897 0 11.856 0Q9.81497 0 8.01321 0.78125Q6.21145 1.5625 4.8345 2.93457Q3.45755 4.30664 2.6763 6.1084Q1.89505 7.91016 1.89505 9.95117L3.5552 9.95117Q3.5552 8.22266 4.19485 6.71875Q4.8345 5.21484 5.97708 4.08203Q7.11965 2.94922 8.62356 2.30957Q10.1275 1.66992 11.856 1.66992Q13.5845 1.66992 15.0884 2.30957Q16.5923 2.94922 17.73 4.08691Q18.8677 5.22461 19.5122 6.72852Q20.1568 8.23242 20.1568 9.96094Q20.1568 11.6895 19.5122 13.1982Q18.8677 14.707 17.73 15.8447Q16.5923 16.9824 15.0884 17.627Q13.5845 18.2715 11.856 18.2617Q10.4595 18.252 9.2095 17.8271Q7.9595 17.4023 6.91946 16.6309Q5.87942 15.8594 5.13723 14.8242Q4.91262 14.5215 4.59524 14.4385Q4.27786 14.3555 3.96536 14.541Q3.67239 14.7266 3.60891 15.0781Q3.54544 15.4297 3.79934 15.752Q4.72708 16.9922 5.97708 17.9346Q7.22708 18.877 8.72122 19.3994Q10.2154 19.9219 11.856 19.9219ZM0.693873 8.07617Q0.342311 8.07617 0.16653 8.21777Q-0.00925164 8.35938 0.00051398 8.59375Q0.0102796 8.82812 0.195826 9.10156L2.38333 12.207Q2.62747 12.5488 2.93997 12.5439Q3.25247 12.5391 3.48684 12.207L5.67434 9.0918Q5.85989 8.81836 5.86477 8.58887Q5.86965 8.35938 5.69387 8.21777Q5.51809 8.07617 5.1763 8.07617Z" fill="#ffffff"/>
  <path d="M11.8462 14.8047Q12.8911 14.8047 13.7017 14.4482Q14.5122 14.0918 14.9761 13.4619Q15.44 12.832 15.44 12.0215Q15.44 10.9961 14.8296 10.4053Q14.2193 9.81445 12.8228 9.47266L11.4361 9.13086Q10.6157 8.92578 10.2447 8.61816Q9.87356 8.31055 9.87356 7.82227Q9.87356 7.20703 10.396 6.82129Q10.9185 6.43555 11.7681 6.43555Q12.5396 6.43555 13.023 6.77246Q13.5064 7.10938 13.7603 7.8125Q13.8775 8.06641 14.063 8.18848Q14.2486 8.31055 14.4536 8.31055Q14.8345 8.31055 15.02 8.0127Q15.2056 7.71484 15.0786 7.27539Q14.9419 6.75781 14.5122 6.26953Q14.0825 5.78125 13.3892 5.46387Q12.6958 5.14648 11.7681 5.14648Q10.7818 5.14648 10.0152 5.49805Q9.24856 5.84961 8.80911 6.46484Q8.36965 7.08008 8.36965 7.88086Q8.36965 8.88672 9.02395 9.5166Q9.67825 10.1465 11.0161 10.459L12.4126 10.791Q13.2329 10.9863 13.5747 11.2891Q13.9165 11.5918 13.9165 12.1289Q13.9165 12.7637 13.3501 13.1396Q12.7837 13.5156 11.8462 13.5156Q10.9868 13.5156 10.4546 13.1885Q9.92239 12.8613 9.65872 12.1582Q9.5513 11.9043 9.36575 11.7871Q9.1802 11.6699 8.97512 11.6699Q8.60403 11.6699 8.42337 11.9434Q8.2427 12.2168 8.32083 12.6562Q8.43801 13.252 8.91653 13.7402Q9.39505 14.2285 10.1519 14.5166Q10.9087 14.8047 11.8462 14.8047ZM11.27 15.7617Q11.27 16.0059 11.4458 16.1816Q11.6216 16.3574 11.856 16.3574Q12.1001 16.3574 12.2759 16.1816Q12.4517 16.0059 12.4517 15.7617L12.4517 4.16992Q12.4517 3.92578 12.2759 3.75Q12.1001 3.57422 11.856 3.57422Q11.6216 3.57422 11.4458 3.75Q11.27 3.92578 11.27 4.16992Z" fill="#ffffff"/>
 </g>
</svg>
