<?xml version="1.0" encoding="UTF-8"?>
<!--Generator: Apple Native CoreSVG 175.5-->
<!DOCTYPE svg
PUBLIC "-//W3C//DTD SVG 1.1//EN"
       "http://www.w3.org/Graphics/SVG/1.1/DTD/svg11.dtd">
<svg version="1.1" xmlns="http://www.w3.org/2000/svg" xmlns:xlink="http://www.w3.org/1999/xlink" width="13.1055" height="19.6582">
 <g>
  <rect height="19.6582" opacity="0" width="13.1055" x="0" y="0"/>
  <path d="M5.15625 16.2988Q6.60156 16.2988 7.65137 15.6689Q8.70117 15.0391 9.22852 13.9648L9.27734 13.9648L9.27734 15.6445Q9.27734 16.0449 9.5166 16.2793Q9.75586 16.5137 10.1367 16.5137Q10.5078 16.5137 10.7422 16.2793Q10.9766 16.0449 10.9766 15.6445L10.9766 0.908203Q10.9766 0.488281 10.7275 0.244141Q10.4785 0 10.0879 0Q9.6875 0 9.43848 0.244141Q9.18945 0.488281 9.18945 0.908203L9.18945 7.29492L9.15039 7.29492Q8.67188 6.23047 7.63672 5.60059Q6.60156 4.9707 5.15625 4.9707Q3.76953 4.9707 2.59766 5.6543Q1.42578 6.33789 0.712891 7.60742Q0 8.87695 0 10.6348Q0 12.4023 0.712891 13.6719Q1.42578 14.9414 2.59766 15.6201Q3.76953 16.2988 5.15625 16.2988ZM5.55664 14.707Q4.50195 14.707 3.66211 14.209Q2.82227 13.7109 2.33398 12.7979Q1.8457 11.8848 1.8457 10.6348Q1.8457 9.38477 2.33398 8.47168Q2.82227 7.55859 3.66211 7.06543Q4.50195 6.57227 5.55664 6.57227Q6.57227 6.57227 7.40234 7.08496Q8.23242 7.59766 8.7207 8.51562Q9.20898 9.43359 9.20898 10.6348Q9.20898 11.8359 8.7207 12.7539Q8.23242 13.6719 7.40234 14.1895Q6.57227 14.707 5.55664 14.707ZM4.76562 2.5293Q4.76562 2.7832 4.94629 2.96875Q5.12695 3.1543 5.38086 3.1543L12.4902 3.1543Q12.7441 3.1543 12.9248 2.96875Q13.1055 2.7832 13.1055 2.5293Q13.1055 2.27539 12.9248 2.09473Q12.7441 1.91406 12.4902 1.91406L5.38086 1.91406Q5.12695 1.91406 4.94629 2.09473Q4.76562 2.27539 4.76562 2.5293ZM0.947266 18.3789Q0.947266 18.6426 1.13281 18.833Q1.31836 19.0234 1.58203 19.0234L10.9277 19.0234Q11.1914 19.0234 11.377 18.833Q11.5625 18.6426 11.5625 18.3789Q11.5625 18.125 11.377 17.9346Q11.1914 17.7441 10.9277 17.7441L1.58203 17.7441Q1.31836 17.7441 1.13281 17.9346Q0.947266 18.125 0.947266 18.3789Z" fill="#ffffff"/>
 </g>
</svg>
