<?xml version="1.0" encoding="UTF-8"?>
<!--Generator: Apple Native CoreSVG 175.5-->
<!DOCTYPE svg
PUBLIC "-//W3C//DTD SVG 1.1//EN"
       "http://www.w3.org/Graphics/SVG/1.1/DTD/svg11.dtd">
<svg version="1.1" xmlns="http://www.w3.org/2000/svg" xmlns:xlink="http://www.w3.org/1999/xlink" width="17.9785" height="17.998">
 <g>
  <rect height="17.998" opacity="0" width="17.9785" x="0" y="0"/>
  <path d="M3.06641 17.998L14.9121 17.998Q16.4453 17.998 17.2119 17.2412Q17.9785 16.4844 17.9785 14.9707L17.9785 3.04688Q17.9785 1.5332 17.2119 0.776367Q16.4453 0.0195312 14.9121 0.0195312L3.06641 0.0195312Q1.5332 0.0195312 0.766602 0.776367Q0 1.5332 0 3.04688L0 14.9707Q0 16.4844 0.766602 17.2412Q1.5332 17.998 3.06641 17.998Z" fill="#ffffff"/>
  <path d="M5.39062 9.35547Q5.39062 8.42773 5.76172 7.71973Q6.13281 7.01172 6.78223 6.61621Q7.43164 6.2207 8.26172 6.2207Q8.87695 6.2207 9.38477 6.4502Q9.89258 6.67969 10.2246 7.08008L10.2246 5.47852L8.38867 5.47852Q8.18359 5.47852 8.05176 5.3418Q7.91992 5.20508 7.91992 5Q7.91992 4.79492 8.05176 4.65332Q8.18359 4.51172 8.38867 4.51172L10.2246 4.51172L10.2246 4.04297Q10.2246 3.74023 10.4004 3.56934Q10.5762 3.39844 10.8594 3.39844Q11.1328 3.39844 11.3086 3.56934Q11.4844 3.74023 11.4844 4.04297L11.4844 4.51172L12.1289 4.51172Q12.3438 4.51172 12.4756 4.65332Q12.6074 4.79492 12.6074 5Q12.6074 5.20508 12.4707 5.3418Q12.334 5.47852 12.1289 5.47852L11.4844 5.47852L11.4844 11.9922Q11.4844 12.2656 11.3184 12.4365Q11.1523 12.6074 10.8887 12.6074Q10.6152 12.6074 10.4443 12.4365Q10.2734 12.2656 10.2734 11.9922L10.2734 11.5918Q9.56055 12.4902 8.27148 12.4902Q7.44141 12.4902 6.79199 12.0898Q6.14258 11.6895 5.7666 10.9814Q5.39062 10.2734 5.39062 9.35547ZM6.68945 9.36523Q6.68945 10.2539 7.1875 10.7959Q7.68555 11.3379 8.47656 11.3379Q9.24805 11.3379 9.75098 10.7764Q10.2539 10.2148 10.2539 9.36523Q10.2539 8.50586 9.75098 7.94922Q9.24805 7.39258 8.47656 7.39258Q7.68555 7.39258 7.1875 7.92969Q6.68945 8.4668 6.68945 9.36523ZM5.9082 13.6426Q5.9082 13.4375 6.04492 13.2959Q6.18164 13.1543 6.39648 13.1543L11.3086 13.1543Q11.5234 13.1543 11.665 13.291Q11.8066 13.4277 11.8066 13.6426Q11.8066 13.8477 11.6602 13.9893Q11.5137 14.1309 11.3086 14.1309L6.39648 14.1309Q6.19141 14.1309 6.0498 13.9893Q5.9082 13.8477 5.9082 13.6426Z" fill="none"/>
 </g>
</svg>
