<?xml version="1.0" encoding="UTF-8"?>
<!--Generator: Apple Native CoreSVG 175.5-->
<!DOCTYPE svg
PUBLIC "-//W3C//DTD SVG 1.1//EN"
       "http://www.w3.org/Graphics/SVG/1.1/DTD/svg11.dtd">
<svg version="1.1" xmlns="http://www.w3.org/2000/svg" xmlns:xlink="http://www.w3.org/1999/xlink" width="23.877" height="20.7324">
 <g>
  <rect height="20.7324" opacity="0" width="23.877" x="0" y="0"/>
  <path d="M0.78125 20.7227Q1.11328 20.7227 1.34277 20.4932Q1.57227 20.2637 1.57227 19.9414L1.57227 2.08984Q1.57227 1.57227 2.07031 1.57227L21.8066 1.57227Q22.3047 1.57227 22.3047 2.08984L22.3047 19.9414Q22.3047 20.2637 22.5342 20.4932Q22.7637 20.7227 23.0859 20.7227Q23.418 20.7227 23.6475 20.4932Q23.877 20.2637 23.877 19.9414L23.877 1.99219Q23.877 1.09375 23.3154 0.546875Q22.7539 0 21.8262 0L2.04102 0Q1.12305 0 0.561523 0.546875Q0 1.09375 0 1.99219L0 19.9414Q0 20.2637 0.229492 20.4932Q0.458984 20.7227 0.78125 20.7227Z" fill="#ffffff"/>
  <path d="M3.04688 20.3906L11.0352 20.3906Q11.3672 20.3906 11.3672 20.0586L11.3672 3.05664Q11.3672 2.72461 11.0352 2.72461L3.04688 2.72461Q2.71484 2.72461 2.71484 3.05664L2.71484 20.0586Q2.71484 20.3906 3.04688 20.3906ZM4.38477 7.98828Q4.15039 7.98828 4.15039 7.73438L4.15039 4.41406Q4.15039 4.16016 4.38477 4.16016L9.69727 4.16016Q9.93164 4.16016 9.93164 4.41406L9.93164 7.73438Q9.93164 7.98828 9.69727 7.98828ZM4.38477 13.4668Q4.15039 13.4668 4.15039 13.2129L4.15039 9.89258Q4.15039 9.64844 4.38477 9.64844L9.69727 9.64844Q9.93164 9.64844 9.93164 9.89258L9.93164 13.2129Q9.93164 13.4668 9.69727 13.4668ZM4.38477 18.9551Q4.15039 18.9551 4.15039 18.7012L4.15039 15.3809Q4.15039 15.1367 4.38477 15.1367L9.69727 15.1367Q9.93164 15.1367 9.93164 15.3809L9.93164 18.7012Q9.93164 18.9551 9.69727 18.9551ZM12.832 20.3809L20.8301 20.3809Q21.1621 20.3809 21.1621 20.0488L21.1621 3.03711Q21.1621 2.70508 20.8301 2.70508L12.832 2.70508Q12.5098 2.70508 12.5098 3.03711L12.5098 20.0488Q12.5098 20.3809 12.832 20.3809ZM14.1797 7.96875Q13.9453 7.96875 13.9453 7.71484L13.9453 4.39453Q13.9453 4.15039 14.1797 4.15039L19.4922 4.15039Q19.7168 4.15039 19.7168 4.39453L19.7168 7.71484Q19.7168 7.96875 19.4922 7.96875ZM14.1797 13.4473Q13.9453 13.4473 13.9453 13.2031L13.9453 9.87305Q13.9453 9.62891 14.1797 9.62891L19.4922 9.62891Q19.7168 9.62891 19.7168 9.87305L19.7168 13.2031Q19.7168 13.4473 19.4922 13.4473ZM14.1797 18.9355Q13.9453 18.9355 13.9453 18.6914L13.9453 15.3613Q13.9453 15.1172 14.1797 15.1172L19.4922 15.1172Q19.7168 15.1172 19.7168 15.3613L19.7168 18.6914Q19.7168 18.9355 19.4922 18.9355Z" fill="#ffffff"/>
 </g>
</svg>
