<?xml version="1.0" encoding="UTF-8"?>
<!--Generator: Apple Native CoreSVG 175.5-->
<!DOCTYPE svg
PUBLIC "-//W3C//DTD SVG 1.1//EN"
       "http://www.w3.org/Graphics/SVG/1.1/DTD/svg11.dtd">
<svg version="1.1" xmlns="http://www.w3.org/2000/svg" xmlns:xlink="http://www.w3.org/1999/xlink" width="17.9785" height="17.998">
 <g>
  <rect height="17.998" opacity="0" width="17.9785" x="0" y="0"/>
  <path d="M3.06641 17.998L14.9121 17.998Q16.4453 17.998 17.2119 17.2412Q17.9785 16.4844 17.9785 14.9707L17.9785 3.04688Q17.9785 1.5332 17.2119 0.776367Q16.4453 0.0195312 14.9121 0.0195312L3.06641 0.0195312Q1.5332 0.0195312 0.766602 0.776367Q0 1.5332 0 3.04688L0 14.9707Q0 16.4844 0.766602 17.2412Q1.5332 17.998 3.06641 17.998Z" fill="#ffffff"/>
  <path d="M9.02344 12.1289Q8.1543 12.1289 7.44141 11.6992Q6.72852 11.2695 6.29883 10.5566Q5.86914 9.84375 5.86914 8.97461Q5.86914 8.11523 6.29883 7.40723Q6.72852 6.69922 7.44141 6.27441Q8.1543 5.84961 9.02344 5.84961Q9.88281 5.84961 10.5957 6.27441Q11.3086 6.69922 11.7334 7.40723Q12.1582 8.11523 12.1582 8.97461Q12.1582 9.84375 11.7334 10.5566Q11.3086 11.2695 10.5957 11.6992Q9.88281 12.1289 9.02344 12.1289Z" fill="none"/>
 </g>
</svg>
