<?xml version="1.0" encoding="UTF-8"?>
<!--Generator: Apple Native CoreSVG 175-->
<!DOCTYPE svg
PUBLIC "-//W3C//DTD SVG 1.1//EN"
       "http://www.w3.org/Graphics/SVG/1.1/DTD/svg11.dtd">
<svg version="1.1" xmlns="http://www.w3.org/2000/svg" xmlns:xlink="http://www.w3.org/1999/xlink" width="19.85" height="19.8529">
 <g>
  <rect height="19.8529" opacity="0" width="19.85" x="0" y="0"/>
  <path d="M4.30511 13.4149Q4.63562 13.4149 4.91272 13.3598Q5.18982 13.3047 5.43732 13.1669Q5.68481 13.029 5.93521 12.7786L7.83676 10.8701Q8.28125 10.4228 8.28125 9.92027Q8.28125 9.41772 7.83676 8.96606L5.93521 7.06451Q5.68481 6.81412 5.43732 6.67488Q5.18982 6.53564 4.91272 6.48056Q4.63562 6.42548 4.30511 6.42548L1.418 6.42548Q0.719604 6.42548 0.359802 6.77368Q0 7.12189 0 7.80441L0 12.0457Q0 12.7213 0.359802 13.0681Q0.719604 13.4149 1.418 13.4149ZM6.43524 4.30084Q6.43524 4.63837 6.49384 4.91066Q6.55243 5.18295 6.69167 5.43175Q6.8309 5.68054 7.0813 5.92819L8.98285 7.83676Q9.42734 8.284 9.9334 8.284Q10.4395 8.284 10.8867 7.83676L12.7884 5.92819Q13.036 5.68054 13.1753 5.43175Q13.3145 5.18295 13.3731 4.91066Q13.4317 4.63837 13.4317 4.30084L13.4317 1.41098Q13.4317 0.712585 13.0848 0.356293Q12.7379 0 12.0457 0L7.80701 0Q7.13165 0 6.78345 0.356293Q6.43524 0.712585 6.43524 1.41098ZM15.545 6.43524Q15.2145 6.43524 14.9374 6.49384Q14.6602 6.55243 14.4128 6.69029Q14.1653 6.82816 13.9149 7.07153L12.0132 8.9801Q11.5617 9.42749 11.5617 9.93004Q11.5617 10.4326 12.0132 10.8841L13.9149 12.7856Q14.1653 13.036 14.4128 13.1753Q14.6602 13.3145 14.9374 13.3696Q15.2145 13.4247 15.545 13.4247L18.432 13.4247Q19.1306 13.4247 19.4903 13.0765Q19.85 12.7283 19.85 12.0457L19.85 7.80441Q19.85 7.12906 19.4903 6.78215Q19.1306 6.43524 18.432 6.43524ZM13.4106 15.5353Q13.4106 15.2048 13.3556 14.929Q13.3005 14.6532 13.1612 14.4044Q13.0219 14.1556 12.7715 13.9149L10.8629 12.0036Q10.4184 11.5591 9.91585 11.5591Q9.4133 11.5591 8.95905 12.0036L7.0575 13.9149Q6.80984 14.1556 6.67053 14.4044Q6.53122 14.6532 6.47614 14.929Q6.42105 15.2048 6.42105 15.5353L6.42105 18.4251Q6.42105 19.1306 6.76796 19.4855Q7.11487 19.8404 7.79999 19.8404L12.0387 19.8404Q12.7141 19.8404 13.0624 19.4855Q13.4106 19.1306 13.4106 18.4251Z" fill="#ffffff"/>
 </g>
</svg>
