<?xml version="1.0" encoding="UTF-8"?>
<!--Generator: Apple Native CoreSVG 175.5-->
<!DOCTYPE svg
PUBLIC "-//W3C//DTD SVG 1.1//EN"
       "http://www.w3.org/Graphics/SVG/1.1/DTD/svg11.dtd">
<svg version="1.1" xmlns="http://www.w3.org/2000/svg" xmlns:xlink="http://www.w3.org/1999/xlink" width="18.2715" height="22.3372">
 <g>
  <rect height="22.3372" opacity="0" width="18.2715" x="0" y="0"/>
  <path d="M0 5.83166L16.9434 5.83166L16.9434 3.24377Q16.9434 2.18908 16.3232 1.54944Q15.7031 0.909787 14.6875 0.909787L2.26562 0.909787Q1.25 0.909787 0.625 1.54944Q0 2.18908 0 3.24377ZM3.53516 4.81604Q3.16406 4.81604 2.90527 4.55236Q2.64648 4.28869 2.64648 3.92736Q2.64648 3.55627 2.90527 3.29748Q3.16406 3.03869 3.53516 3.03869Q3.89648 3.03869 4.15527 3.29748Q4.41406 3.55627 4.41406 3.92736Q4.41406 4.28869 4.15527 4.55236Q3.89648 4.81604 3.53516 4.81604ZM6.10352 4.81604Q5.73242 4.81604 5.47852 4.55236Q5.22461 4.28869 5.22461 3.92736Q5.22461 3.55627 5.47852 3.29748Q5.73242 3.03869 6.10352 3.03869Q6.46484 3.03869 6.72363 3.29748Q6.98242 3.55627 6.98242 3.92736Q6.98242 4.28869 6.72363 4.55236Q6.46484 4.81604 6.10352 4.81604ZM11.3672 4.43518Q11.1426 4.43518 11.0059 4.29358Q10.8691 4.15197 10.8691 3.92736Q10.8691 3.70276 11.0059 3.55627Q11.1426 3.40979 11.3672 3.40979L13.7695 3.40979Q14.0039 3.40979 14.1406 3.55627Q14.2773 3.70276 14.2773 3.92736Q14.2773 4.15197 14.1406 4.29358Q14.0039 4.43518 13.7695 4.43518ZM4.86328 17.4723L8.60352 17.4723Q8.45703 17.0621 8.35449 16.5836Q8.25195 16.1051 8.25195 15.5192Q8.25195 14.7281 8.51562 13.9274Q8.7793 13.1266 9.32129 12.5895Q9.86328 12.0524 10.7031 12.0524Q11.2012 12.0524 11.5723 12.2526Q11.9434 12.4528 12.1191 12.6774Q12.1875 12.5797 12.2754 12.4918Q12.3633 12.4039 12.4707 12.3551L12.4707 10.8317Q12.4707 10.4313 12.0801 10.4313L4.86328 10.4313Q4.47266 10.4313 4.47266 10.8317L4.47266 17.0719Q4.47266 17.4723 4.86328 17.4723ZM2.26562 21.4176L9.50195 21.4176Q9.57031 21.1442 9.72168 20.8805Q9.87305 20.6168 9.87305 20.2653Q9.87305 19.9528 9.59961 19.5572Q9.32617 19.1617 9.02344 18.5563L4.6875 18.5563Q4.11133 18.5563 3.75 18.1949Q3.38867 17.8336 3.38867 17.2477L3.38867 10.6559Q3.38867 10.0699 3.75 9.70861Q4.11133 9.34729 4.6875 9.34729L12.2559 9.34729Q12.832 9.34729 13.1982 9.70861Q13.5645 10.0699 13.5645 10.6559L13.5645 12.0621Q14.0137 12.0719 14.3311 12.233Q14.6484 12.3942 14.9316 12.6676Q15.1953 12.4137 15.5225 12.2526Q15.8496 12.0914 16.2109 12.0524Q16.5723 12.0133 16.9434 12.1305L16.9434 7.15979L0 7.15979L0 19.0836Q0 20.1383 0.625 20.778Q1.25 21.4176 2.26562 21.4176Z" fill="#ffffff"/>
  <path d="M11.1426 22.2184Q11.3574 22.3649 11.6602 22.3307Q11.9629 22.2965 12.1582 21.9742Q12.6074 21.1539 12.6074 20.2653Q12.6074 19.4645 12.3633 18.8395Q12.1191 18.2145 11.7969 17.6822Q11.4746 17.15 11.2256 16.6276Q10.9766 16.1051 10.9766 15.5192Q10.9766 15.2164 11.0449 14.9772Q11.1133 14.7379 11.2988 14.4254Q11.4453 14.1715 11.3574 13.9225Q11.2695 13.6735 11.0742 13.5563Q10.8594 13.4196 10.5664 13.4586Q10.2734 13.4977 10.0977 13.8102Q9.86328 14.191 9.75098 14.6305Q9.63867 15.0699 9.63867 15.5192Q9.63867 16.3004 9.88281 16.9205Q10.127 17.5406 10.4492 18.0729Q10.7715 18.6051 11.0156 19.1324Q11.2598 19.6598 11.2598 20.2653Q11.2598 20.568 11.1963 20.8024Q11.1328 21.0367 10.9473 21.3492Q10.8008 21.6129 10.8887 21.8571Q10.9766 22.1012 11.1426 22.2184ZM13.9746 22.2086Q14.209 22.3649 14.5068 22.3209Q14.8047 22.277 14.9805 21.9645Q15.4395 21.1539 15.4395 20.2653Q15.4395 19.4645 15.1953 18.8395Q14.9512 18.2145 14.6289 17.6774Q14.3066 17.1403 14.0576 16.6178Q13.8086 16.0953 13.8086 15.5094Q13.8086 15.2164 13.877 14.9723Q13.9453 14.7281 14.1211 14.4156Q14.2773 14.1617 14.1895 13.9176Q14.1016 13.6735 13.8965 13.5563Q13.6816 13.4293 13.3887 13.4635Q13.0957 13.4977 12.9199 13.8004Q12.6953 14.191 12.583 14.6256Q12.4707 15.0602 12.4707 15.5094Q12.4707 16.3004 12.7197 16.9156Q12.9688 17.5309 13.2861 18.068Q13.6035 18.6051 13.8477 19.1324Q14.0918 19.6598 14.0918 20.2653Q14.0918 20.5582 14.0283 20.7926Q13.9648 21.027 13.7891 21.3395Q13.6328 21.6129 13.7158 21.8522Q13.7988 22.0914 13.9746 22.2086ZM16.8066 22.1988Q17.041 22.3551 17.3389 22.3112Q17.6367 22.2672 17.8125 21.9547Q18.2715 21.1442 18.2715 20.2555Q18.2715 19.4547 18.0273 18.8297Q17.7832 18.2047 17.4609 17.6676Q17.1387 17.1305 16.8896 16.608Q16.6406 16.0856 16.6406 15.4996Q16.6406 15.2067 16.709 14.9625Q16.7773 14.7184 16.9531 14.4059Q17.1094 14.152 17.0166 13.9078Q16.9238 13.6637 16.7285 13.5465Q16.5137 13.4196 16.2207 13.4537Q15.9277 13.4879 15.752 13.7906Q15.5273 14.1813 15.415 14.6158Q15.3027 15.0504 15.3027 15.4996Q15.3027 16.2906 15.5469 16.9059Q15.791 17.5211 16.1133 18.0582Q16.4355 18.5953 16.6797 19.1227Q16.9238 19.65 16.9238 20.2555Q16.9238 20.5485 16.8604 20.7828Q16.7969 21.0172 16.6113 21.3297Q16.4648 21.6031 16.5479 21.8424Q16.6309 22.0817 16.8066 22.1988Z" fill="#ffffff"/>
 </g>
</svg>
