<?xml version="1.0" encoding="UTF-8"?>
<!--Generator: Apple Native CoreSVG 175-->
<!DOCTYPE svg
PUBLIC "-//W3C//DTD SVG 1.1//EN"
       "http://www.w3.org/Graphics/SVG/1.1/DTD/svg11.dtd">
<svg version="1.1" xmlns="http://www.w3.org/2000/svg" xmlns:xlink="http://www.w3.org/1999/xlink" width="22.225" height="14.809">
 <g>
  <rect height="14.809" opacity="0" width="22.225" x="0" y="0"/>
  <path d="M5.87067 14.809L16.3544 14.809Q19.2676 14.809 20.7463 13.4853Q22.225 12.1617 22.225 9.55856L22.225 5.36682Q22.225 2.70889 20.8495 1.35933Q19.4739 0.00976562 16.7711 0.00976562L5.46097 0.00976562Q2.75391 0.00976562 1.37695 1.35933Q0 2.70889 0 5.36682L0 9.55856Q0 12.1617 1.47873 13.4853Q2.95746 14.809 5.87067 14.809ZM5.87067 14.0805Q3.31284 14.0805 2.02072 12.9469Q0.728607 11.8132 0.728607 9.55856L0.728607 5.36682Q0.728607 3.06717 1.91551 1.90269Q3.10242 0.73822 5.46097 0.73822L16.7711 0.73822Q19.1254 0.73822 20.3145 1.90269Q21.5036 3.06717 21.5036 5.36682L21.5036 9.55856Q21.5036 11.8132 20.2079 12.9469Q18.9122 14.0805 16.3544 14.0805ZM0.362091 6.07025L21.8629 6.07025L21.8629 5.46371L0.362091 5.46371ZM11.116 9.19693Q11.4363 9.19693 11.6689 8.96431Q11.9016 8.73169 11.9016 8.40424Q11.9016 8.07693 11.6689 7.84569Q11.4363 7.61444 11.116 7.61444Q10.7887 7.61444 10.5575 7.84569Q10.3262 8.07693 10.3262 8.40424Q10.3262 8.73169 10.5575 8.96431Q10.7887 9.19693 11.116 9.19693Z" fill="#ffffff"/>
 </g>
</svg>
