<?xml version="1.0" encoding="UTF-8"?>
<!--Generator: Apple Native CoreSVG 175.5-->
<!DOCTYPE svg
PUBLIC "-//W3C//DTD SVG 1.1//EN"
       "http://www.w3.org/Graphics/SVG/1.1/DTD/svg11.dtd">
<svg version="1.1" xmlns="http://www.w3.org/2000/svg" xmlns:xlink="http://www.w3.org/1999/xlink" width="18.5547" height="18.0371">
 <g>
  <rect height="18.0371" opacity="0" width="18.5547" x="0" y="0"/>
  <path d="M1.39648 10.8984L17.1387 10.8984Q17.7246 10.8984 18.0371 10.6055Q18.3496 10.3125 18.3496 9.80469Q18.3496 9.56055 18.2422 9.31152Q18.1348 9.0625 17.9297 8.84766L10.4688 0.615234Q10.2148 0.341797 9.92188 0.175781Q9.62891 0.00976562 9.26758 0.00976562Q8.91602 0.00976562 8.61328 0.185547Q8.31055 0.361328 8.07617 0.615234L0.605469 8.84766Q0.400391 9.0625 0.288086 9.31152Q0.175781 9.56055 0.185547 9.80469Q0.195312 10.3125 0.50293 10.6055Q0.810547 10.8984 1.39648 10.8984ZM1.5918 18.0371L16.9629 18.0371Q17.7148 18.0371 18.1348 17.6074Q18.5547 17.1777 18.5547 16.4258L18.5547 14.6582Q18.5547 13.9062 18.1348 13.4766Q17.7148 13.0469 16.9629 13.0469L1.5918 13.0469Q0.849609 13.0469 0.424805 13.4766Q0 13.9062 0 14.6582L0 16.4258Q0 17.1777 0.424805 17.6074Q0.849609 18.0371 1.5918 18.0371Z" fill="#ffffff"/>
 </g>
</svg>
