<?xml version="1.0" encoding="UTF-8"?>
<!--Generator: Apple Native CoreSVG 175.5-->
<!DOCTYPE svg
PUBLIC "-//W3C//DTD SVG 1.1//EN"
       "http://www.w3.org/Graphics/SVG/1.1/DTD/svg11.dtd">
<svg version="1.1" xmlns="http://www.w3.org/2000/svg" xmlns:xlink="http://www.w3.org/1999/xlink" width="19.9219" height="19.9316">
 <g>
  <rect height="19.9316" opacity="0" width="19.9219" x="0" y="0"/>
  <path d="M9.96094 19.9219Q12.002 19.9219 13.8037 19.1406Q15.6055 18.3594 16.9824 16.9824Q18.3594 15.6055 19.1406 13.8037Q19.9219 12.002 19.9219 9.96094Q19.9219 7.91992 19.1406 6.11816Q18.3594 4.31641 16.9824 2.93945Q15.6055 1.5625 13.7988 0.78125Q11.9922 0 9.95117 0Q7.91016 0 6.1084 0.78125Q4.30664 1.5625 2.93457 2.93945Q1.5625 4.31641 0.78125 6.11816Q0 7.91992 0 9.96094Q0 12.002 0.78125 13.8037Q1.5625 15.6055 2.93945 16.9824Q4.31641 18.3594 6.11816 19.1406Q7.91992 19.9219 9.96094 19.9219Z" fill="#ffffff"/>
  <path d="M6.01562 14.1309Q5.54688 14.1309 5.29297 13.8867Q5.03906 13.6426 5.03906 13.1738L5.03906 12.5488Q5.03906 12.0898 5.29297 11.8457Q5.54688 11.6016 6.01562 11.6016L13.8965 11.6016Q14.3652 11.6016 14.6191 11.8457Q14.873 12.0898 14.873 12.5488L14.873 13.1738Q14.873 13.6426 14.6191 13.8867Q14.3652 14.1309 13.8965 14.1309ZM5.77148 10.3223Q5.45898 10.3223 5.30762 10.1709Q5.15625 10.0195 5.12695 9.74609Q5.11719 9.47266 5.35156 9.23828L9.32617 4.86328Q9.44336 4.73633 9.60449 4.63867Q9.76562 4.54102 9.96094 4.54102Q10.1465 4.54102 10.3076 4.62891Q10.4688 4.7168 10.5957 4.86328L14.541 9.23828Q14.7852 9.49219 14.7852 9.74609Q14.7852 10.0195 14.6094 10.1709Q14.4336 10.3223 14.1309 10.3223Z" fill="none"/>
 </g>
</svg>
