<?xml version="1.0" encoding="UTF-8"?>
<!--Generator: Apple Native CoreSVG 175-->
<!DOCTYPE svg
PUBLIC "-//W3C//DTD SVG 1.1//EN"
       "http://www.w3.org/Graphics/SVG/1.1/DTD/svg11.dtd">
<svg version="1.1" xmlns="http://www.w3.org/2000/svg" xmlns:xlink="http://www.w3.org/1999/xlink" width="19.082" height="18.2901">
 <g>
  <rect height="18.2901" opacity="0" width="19.082" x="0" y="0"/>
  <path d="M1.10825 11.4819L17.9613 11.4819Q18.4067 11.4819 18.6735 11.2558Q18.9403 11.0297 18.9403 10.6413Q18.9403 10.4463 18.8504 10.2501Q18.7605 10.0539 18.5835 9.85306L10.4337 0.432434Q10.257 0.236206 10.0238 0.119476Q9.79065 0.00274658 9.53476 0.00274658Q9.28864 0.00274658 9.05273 0.122223Q8.81683 0.241699 8.64563 0.432434L0.493011 9.85306Q0.30899 10.0609 0.221329 10.2536Q0.133667 10.4463 0.136261 10.6413Q0.139008 11.0297 0.404434 11.2558Q0.669861 11.4819 1.10825 11.4819ZM1.36688 18.2901L17.7081 18.2901Q18.3476 18.2901 18.7148 17.9026Q19.082 17.5151 19.082 16.8758L19.082 15.5159Q19.082 14.8764 18.7148 14.4889Q18.3476 14.1014 17.7081 14.1014L1.36688 14.1014Q0.730133 14.1014 0.365067 14.4889Q0 14.8764 0 15.5159L0 16.8758Q0 17.5151 0.365067 17.9026Q0.730133 18.2901 1.36688 18.2901Z" fill="rgba(0,0,0,0.85)"/>
 </g>
</svg>
