<?xml version="1.0" encoding="UTF-8"?>
<!--Generator: Apple Native CoreSVG 175.5-->
<!DOCTYPE svg
PUBLIC "-//W3C//DTD SVG 1.1//EN"
       "http://www.w3.org/Graphics/SVG/1.1/DTD/svg11.dtd">
<svg version="1.1" xmlns="http://www.w3.org/2000/svg" xmlns:xlink="http://www.w3.org/1999/xlink" width="18.1055" height="17.998">
 <g>
  <rect height="17.998" opacity="0" width="18.1055" x="0" y="0"/>
  <path d="M0 14.9707Q0 16.4844 0.766602 17.2412Q1.5332 17.998 3.06641 17.998L15.0391 17.998Q16.5723 17.998 17.3389 17.2412Q18.1055 16.4844 18.1055 14.9707L18.1055 3.04688Q18.1055 1.5332 17.3389 0.776367Q16.5723 0.0195312 15.0391 0.0195312L3.06641 0.0195312Q1.5332 0.0195312 0.766602 0.776367Q0 1.5332 0 3.04688ZM1.57227 14.8926L1.57227 3.125Q1.57227 2.36328 1.96289 1.97754Q2.35352 1.5918 3.08594 1.5918L4.01367 1.5918L4.01367 2.91992Q4.01367 3.17383 4.17969 3.34473Q4.3457 3.51562 4.59961 3.51562Q4.85352 3.51562 5.02441 3.34473Q5.19531 3.17383 5.19531 2.91992L5.19531 1.5918L6.98242 1.5918L6.98242 2.91992Q6.98242 3.17383 7.15332 3.34473Q7.32422 3.51562 7.57812 3.51562Q7.82227 3.51562 7.99316 3.34473Q8.16406 3.17383 8.16406 2.91992L8.16406 1.5918L9.96094 1.5918L9.96094 2.91992Q9.96094 3.17383 10.1318 3.34473Q10.3027 3.51562 10.5469 3.51562Q10.8008 3.51562 10.9717 3.34473Q11.1426 3.17383 11.1426 2.91992L11.1426 1.5918L12.9297 1.5918L12.9297 2.91992Q12.9297 3.17383 13.1006 3.34473Q13.2715 3.51562 13.5254 3.51562Q13.7695 3.51562 13.9404 3.34473Q14.1113 3.17383 14.1113 2.91992L14.1113 1.5918L15.0098 1.5918Q15.7422 1.5918 16.1377 1.97754Q16.5332 2.36328 16.5332 3.125L16.5332 14.8926Q16.5332 15.6543 16.1377 16.04Q15.7422 16.4258 15.0098 16.4258L14.1113 16.4258L14.1113 15.0977Q14.1113 14.8438 13.9404 14.6729Q13.7695 14.502 13.5254 14.502Q13.2715 14.502 13.1006 14.6729Q12.9297 14.8438 12.9297 15.0977L12.9297 16.4258L11.1426 16.4258L11.1426 15.0977Q11.1426 14.8438 10.9717 14.6729Q10.8008 14.502 10.5469 14.502Q10.3027 14.502 10.1318 14.6729Q9.96094 14.8438 9.96094 15.0977L9.96094 16.4258L8.16406 16.4258L8.16406 15.0977Q8.16406 14.8438 7.99316 14.6729Q7.82227 14.502 7.57812 14.502Q7.32422 14.502 7.15332 14.6729Q6.98242 14.8438 6.98242 15.0977L6.98242 16.4258L5.19531 16.4258L5.19531 15.0977Q5.19531 14.8438 5.02441 14.6729Q4.85352 14.502 4.59961 14.502Q4.3457 14.502 4.17969 14.6729Q4.01367 14.8438 4.01367 15.0977L4.01367 16.4258L3.08594 16.4258Q2.35352 16.4258 1.96289 16.04Q1.57227 15.6543 1.57227 14.8926ZM4.23828 11.875Q4.23828 12.2559 4.47754 12.4902Q4.7168 12.7246 5.10742 12.7246L12.998 12.7246Q13.3887 12.7246 13.6279 12.4902Q13.8672 12.2559 13.8672 11.875L13.8672 6.14258Q13.8672 5.75195 13.6279 5.52246Q13.3887 5.29297 12.998 5.29297L5.10742 5.29297Q4.7168 5.29297 4.47754 5.52246Q4.23828 5.75195 4.23828 6.14258Z" fill="#ffffff"/>
 </g>
</svg>
