<?xml version="1.0" encoding="UTF-8"?>
<!--Generator: Apple Native CoreSVG 175-->
<!DOCTYPE svg
PUBLIC "-//W3C//DTD SVG 1.1//EN"
       "http://www.w3.org/Graphics/SVG/1.1/DTD/svg11.dtd">
<svg version="1.1" xmlns="http://www.w3.org/2000/svg" xmlns:xlink="http://www.w3.org/1999/xlink" width="17.2852" height="17.3145">
 <g>
  <rect height="17.3145" opacity="0" width="17.2852" x="0" y="0"/>
  <path d="M2.62695 17.3145L14.6484 17.3145Q15.957 17.3145 16.6211 16.6455Q17.2852 15.9766 17.2852 14.6875L17.2852 2.65625Q17.2852 1.37695 16.6211 0.703125Q15.957 0.0292969 14.6484 0.0292969L2.62695 0.0292969Q1.33789 0.0292969 0.668945 0.693359Q0 1.35742 0 2.65625L0 14.6875Q0 15.9863 0.668945 16.6504Q1.33789 17.3145 2.62695 17.3145ZM2.65625 16.5918Q1.70898 16.5918 1.2207 16.1035Q0.732422 15.6152 0.732422 14.6582L0.732422 2.69531Q0.732422 1.72852 1.2207 1.24512Q1.70898 0.761719 2.65625 0.761719L14.6289 0.761719Q15.5566 0.761719 16.0596 1.24512Q16.5625 1.72852 16.5625 2.69531L16.5625 14.6582Q16.5625 15.6152 16.0596 16.1035Q15.5566 16.5918 14.6289 16.5918ZM8.64258 10.3906Q9.0332 10.3906 9.0332 9.93164L9.11133 4.61914Q9.11133 4.41406 8.98438 4.28223Q8.85742 4.15039 8.64258 4.15039Q8.42773 4.15039 8.2959 4.28223Q8.16406 4.41406 8.16406 4.61914L8.24219 9.93164Q8.24219 10.3906 8.64258 10.3906ZM8.64258 13.2227Q8.93555 13.2227 9.14551 13.0127Q9.35547 12.8027 9.35547 12.5195Q9.35547 12.2266 9.15039 12.0215Q8.94531 11.8164 8.64258 11.8164Q8.33984 11.8164 8.13477 12.0215Q7.92969 12.2266 7.92969 12.5195Q7.92969 12.8027 8.13477 13.0127Q8.33984 13.2227 8.64258 13.2227Z" fill="#ffffff"/>
 </g>
</svg>
