<?xml version="1.0" encoding="UTF-8"?>
<!--Generator: Apple Native CoreSVG 175.5-->
<!DOCTYPE svg
PUBLIC "-//W3C//DTD SVG 1.1//EN"
       "http://www.w3.org/Graphics/SVG/1.1/DTD/svg11.dtd">
<svg version="1.1" xmlns="http://www.w3.org/2000/svg" xmlns:xlink="http://www.w3.org/1999/xlink" width="17.9785" height="17.998">
 <g>
  <rect height="17.998" opacity="0" width="17.9785" x="0" y="0"/>
  <path d="M3.06641 17.998L14.9121 17.998Q16.4453 17.998 17.2119 17.2412Q17.9785 16.4844 17.9785 14.9707L17.9785 3.04688Q17.9785 1.5332 17.2119 0.776367Q16.4453 0.0195312 14.9121 0.0195312L3.06641 0.0195312Q1.5332 0.0195312 0.766602 0.776367Q0 1.5332 0 3.04688L0 14.9707Q0 16.4844 0.766602 17.2412Q1.5332 17.998 3.06641 17.998ZM3.08594 16.4258Q2.35352 16.4258 1.96289 16.04Q1.57227 15.6543 1.57227 14.8926L1.57227 3.125Q1.57227 2.36328 1.96289 1.97754Q2.35352 1.5918 3.08594 1.5918L14.8926 1.5918Q15.6152 1.5918 16.0107 1.97754Q16.4062 2.36328 16.4062 3.125L16.4062 14.8926Q16.4062 15.6543 16.0107 16.04Q15.6152 16.4258 14.8926 16.4258Z" fill="#ffffff"/>
  <path d="M8.99414 10.752Q9.72656 10.752 9.73633 9.98047L9.88281 4.82422Q9.89258 4.45312 9.63379 4.2041Q9.375 3.95508 8.98438 3.95508Q8.58398 3.95508 8.33496 4.19922Q8.08594 4.44336 8.0957 4.81445L8.22266 9.98047Q8.24219 10.752 8.99414 10.752ZM8.99414 13.9258Q9.41406 13.9258 9.73145 13.6328Q10.0488 13.3398 10.0488 12.9102Q10.0488 12.4805 9.73633 12.1875Q9.42383 11.8945 8.99414 11.8945Q8.56445 11.8945 8.25195 12.1924Q7.93945 12.4902 7.93945 12.9102Q7.93945 13.3301 8.25195 13.6279Q8.56445 13.9258 8.99414 13.9258Z" fill="#ffffff"/>
 </g>
</svg>
