<?xml version="1.0" encoding="UTF-8"?>
<!--Generator: Apple Native CoreSVG 175.5-->
<!DOCTYPE svg
PUBLIC "-//W3C//DTD SVG 1.1//EN"
       "http://www.w3.org/Graphics/SVG/1.1/DTD/svg11.dtd">
<svg version="1.1" xmlns="http://www.w3.org/2000/svg" xmlns:xlink="http://www.w3.org/1999/xlink" width="13.0469" height="19.6191">
 <g>
  <rect height="19.6191" opacity="0" width="13.0469" x="0" y="0"/>
  <path d="M1.55273 8.56445L3.125 8.56445L3.125 5.25391Q3.125 4.02344 3.59375 3.18848Q4.0625 2.35352 4.83887 1.92871Q5.61523 1.50391 6.52344 1.50391Q7.44141 1.50391 8.21289 1.92871Q8.98438 2.35352 9.45312 3.18848Q9.92188 4.02344 9.92188 5.25391L9.92188 8.56445L11.4941 8.56445L11.4941 5.45898Q11.4941 4.08203 11.084 3.05664Q10.6738 2.03125 9.9707 1.35254Q9.26758 0.673828 8.37402 0.336914Q7.48047 0 6.52344 0Q5.56641 0 4.67773 0.336914Q3.78906 0.673828 3.08594 1.35254Q2.38281 2.03125 1.96777 3.05664Q1.55273 4.08203 1.55273 5.45898ZM1.875 19.0527L11.1719 19.0527Q12.1191 19.0527 12.583 18.5693Q13.0469 18.0859 13.0469 17.0605L13.0469 9.89258Q13.0469 8.87695 12.583 8.39355Q12.1191 7.91016 11.1719 7.91016L2.07031 7.91016Q1.13281 7.91016 0.566406 8.39844Q0 8.88672 0 9.89258L0 17.0605Q0 18.0859 0.46875 18.5693Q0.9375 19.0527 1.875 19.0527Z" fill="#ffffff"/>
  <path d="M6.52344 14.541Q6.25 14.541 6.09863 14.3848Q5.94727 14.2285 5.9375 13.9551L5.84961 10.7324Q5.83984 10.459 6.03027 10.2734Q6.2207 10.0879 6.52344 10.0879Q6.81641 10.0879 7.01172 10.2783Q7.20703 10.4688 7.19727 10.7422L7.09961 13.9551Q7.08984 14.2285 6.94336 14.3848Q6.79688 14.541 6.52344 14.541ZM6.52344 16.7578Q6.20117 16.7578 5.96191 16.5283Q5.72266 16.2988 5.72266 15.9766Q5.72266 15.6641 5.96191 15.4297Q6.20117 15.1953 6.52344 15.1953Q6.85547 15.1953 7.09473 15.4248Q7.33398 15.6543 7.33398 15.9766Q7.33398 16.2988 7.09473 16.5283Q6.85547 16.7578 6.52344 16.7578Z" fill="none"/>
 </g>
</svg>
