<?xml version="1.0" encoding="UTF-8"?>
<!--Generator: Apple Native CoreSVG 175-->
<!DOCTYPE svg
PUBLIC "-//W3C//DTD SVG 1.1//EN"
       "http://www.w3.org/Graphics/SVG/1.1/DTD/svg11.dtd">
<svg version="1.1" xmlns="http://www.w3.org/2000/svg" xmlns:xlink="http://www.w3.org/1999/xlink" width="18.6501" height="20.0378">
 <g>
  <rect height="20.0378" opacity="0" width="18.6501" x="0" y="0"/>
  <path d="M0 10.782Q0 11.6812 0.437927 12.4171Q0.875854 13.1531 1.62193 13.5841Q2.36801 14.0152 3.28369 14.0152L15.3665 14.0152Q16.2848 14.0152 17.0296 13.5841Q17.7744 13.1531 18.2122 12.4171Q18.6501 11.6812 18.6501 10.782Q18.6501 10.3543 18.5421 9.97536Q18.4341 9.59641 18.2751 9.25385L15.1387 2.34909Q14.7794 1.55457 14.1352 1.13991Q13.4911 0.72525 12.6079 0.72525L6.04218 0.72525Q4.25232 0.72525 3.50861 2.34909L0.36087 9.25385Q0.185089 9.64844 0.0925446 10.0217Q0 10.3949 0 10.782ZM1.79688 7.91992L4.22073 2.58621Q4.76959 1.39923 5.9938 1.39923L12.6801 1.39923Q13.9044 1.39923 14.4531 2.58621L16.8629 7.91992Q16.5164 7.72369 16.1412 7.63054Q15.766 7.53738 15.3806 7.53738L3.29071 7.53738Q2.90085 7.53738 2.52563 7.63054Q2.15042 7.72369 1.79688 7.91992ZM0.730133 10.782Q0.730133 10.0761 1.07193 9.50684Q1.41373 8.93753 1.99318 8.60252Q2.57263 8.26752 3.28369 8.26752L15.3665 8.26752Q16.0774 8.26752 16.6569 8.60252Q17.2363 8.93753 17.5781 9.50684Q17.9199 10.0761 17.9199 10.782Q17.9199 11.4902 17.585 12.0582Q17.2501 12.6262 16.6719 12.9543Q16.0938 13.2823 15.3665 13.2823L3.28369 13.2823Q2.56561 13.2823 1.98616 12.9488Q1.40671 12.6152 1.06842 12.0494Q0.730133 11.4836 0.730133 10.782ZM14.3282 10.782Q14.3282 11.1929 14.6159 11.4806Q14.9036 11.7683 15.3355 11.7824Q15.7341 11.7867 16.0302 11.4884Q16.3263 11.1902 16.3263 10.782Q16.3263 10.3793 16.0302 10.0784Q15.7341 9.77737 15.3355 9.77737Q14.9301 9.77737 14.6291 10.0784Q14.3282 10.3793 14.3282 10.782ZM8.92349 18.5031L9.65195 18.5031L9.65195 13.6168L8.92349 13.6168ZM1.72302 18.7781L16.8524 18.7781Q17.0059 18.7781 17.1102 18.6716Q17.2145 18.5652 17.2145 18.4187Q17.2145 18.2695 17.1102 18.1631Q17.0059 18.0566 16.8524 18.0566L1.72302 18.0566Q1.57654 18.0566 1.47011 18.1631Q1.36368 18.2695 1.36368 18.4187Q1.36368 18.5652 1.47011 18.6716Q1.57654 18.7781 1.72302 18.7781ZM9.2926 20.0378Q9.71527 20.0378 10.0727 19.823Q10.4301 19.6082 10.645 19.2543Q10.8598 18.9005 10.8598 18.4708Q10.8598 18.0411 10.645 17.6858Q10.4301 17.3305 10.0727 17.117Q9.71527 16.9035 9.2926 16.9035Q8.86292 16.9035 8.5041 17.117Q8.14529 17.3305 7.93533 17.6858Q7.72537 18.0411 7.72537 18.4708Q7.72537 18.9005 7.93533 19.2543Q8.14529 19.6082 8.5041 19.823Q8.86292 20.0378 9.2926 20.0378Z" fill="rgba(0,0,0,0.85)"/>
 </g>
</svg>
