<?xml version="1.0" encoding="UTF-8"?>
<!--Generator: Apple Native CoreSVG 175.5-->
<!DOCTYPE svg
PUBLIC "-//W3C//DTD SVG 1.1//EN"
       "http://www.w3.org/Graphics/SVG/1.1/DTD/svg11.dtd">
<svg version="1.1" xmlns="http://www.w3.org/2000/svg" xmlns:xlink="http://www.w3.org/1999/xlink" width="20.3858" height="20.7129">
 <g>
  <rect height="20.7129" opacity="0" width="20.3858" x="0" y="0"/>
  <path d="M12.9883 8.93555L8.7207 13.2031Q8.45703 13.457 8.14941 13.5107Q7.8418 13.5645 7.58789 13.291Q7.32422 12.998 7.36816 12.7197Q7.41211 12.4414 7.69531 12.1484L11.9336 7.86133L11.0938 7.03125L3.20312 14.9219Q2.29492 15.8301 1.85547 16.377Q1.41602 16.9238 1.24023 17.2754Q1.06445 17.627 0.97168 17.9395Q0.878906 18.252 0.683594 18.6719Q0.488281 19.0918 0 19.7852L0.878906 20.7129Q1.54297 20.2246 1.96777 20.0488Q2.39258 19.873 2.72461 19.7998Q3.05664 19.7266 3.43262 19.5703Q3.80859 19.4141 4.37988 18.9795Q4.95117 18.5449 5.87891 17.627L13.7988 9.75586ZM15.3125 10.7031L15.5859 10.4004Q15.9473 10.0293 15.9521 9.60938Q15.957 9.18945 15.5762 8.80859L15.2832 8.52539Q15.8496 8.01758 16.4258 7.69531Q17.002 7.37305 17.5537 7.12891Q18.1055 6.88477 18.5938 6.61621Q19.082 6.34766 19.4629 5.95703Q20.1953 5.22461 20.3369 4.36523Q20.4785 3.50586 20.21 2.71484Q19.9414 1.92383 19.4238 1.41602Q18.916 0.898438 18.1348 0.634766Q17.3535 0.371094 16.4893 0.517578Q15.625 0.664062 14.8828 1.37695Q14.4824 1.75781 14.2188 2.24609Q13.9551 2.73438 13.7061 3.28613Q13.457 3.83789 13.1396 4.41895Q12.8223 5 12.3145 5.55664L12.0312 5.26367Q11.6504 4.88281 11.2354 4.8877Q10.8203 4.89258 10.4395 5.25391L10.1465 5.52734Q9.6875 5.95703 9.73633 6.34766Q9.78516 6.73828 10.166 7.12891L13.7109 10.6738Q14.1016 11.0547 14.4922 11.1035Q14.8828 11.1523 15.3125 10.7031Z" fill="#ffffff"/>
 </g>
</svg>
