<?xml version="1.0" encoding="UTF-8"?>
<!--Generator: Apple Native CoreSVG 175.5-->
<!DOCTYPE svg
PUBLIC "-//W3C//DTD SVG 1.1//EN"
       "http://www.w3.org/Graphics/SVG/1.1/DTD/svg11.dtd">
<svg version="1.1" xmlns="http://www.w3.org/2000/svg" xmlns:xlink="http://www.w3.org/1999/xlink" width="19.9219" height="19.9316">
 <g>
  <rect height="19.9316" opacity="0" width="19.9219" x="0" y="0"/>
  <path d="M9.96094 19.9219Q12.002 19.9219 13.8037 19.1406Q15.6055 18.3594 16.9824 16.9824Q18.3594 15.6055 19.1406 13.8037Q19.9219 12.002 19.9219 9.96094Q19.9219 7.91992 19.1406 6.11816Q18.3594 4.31641 16.9824 2.93945Q15.6055 1.5625 13.7988 0.78125Q11.9922 0 9.95117 0Q7.91016 0 6.1084 0.78125Q4.30664 1.5625 2.93457 2.93945Q1.5625 4.31641 0.78125 6.11816Q0 7.91992 0 9.96094Q0 12.002 0.78125 13.8037Q1.5625 15.6055 2.93945 16.9824Q4.31641 18.3594 6.11816 19.1406Q7.91992 19.9219 9.96094 19.9219Z" fill="#ffffff"/>
  <path d="M5.74219 14.8242Q5.74219 14.5215 5.92773 14.3311Q6.11328 14.1406 6.41602 14.1406Q6.66016 14.1406 6.86523 14.1797Q7.07031 14.2188 7.5293 14.2188Q8.11523 14.2188 8.42773 13.8721Q8.74023 13.5254 8.84766 12.7441L9.19922 10.2344L7.11914 10.2344Q6.79688 10.2344 6.58691 10.0293Q6.37695 9.82422 6.37695 9.52148Q6.37695 9.20898 6.58691 9.00391Q6.79688 8.79883 7.10938 8.79883L9.4043 8.79883L9.6582 6.91406Q9.83398 5.61523 10.5664 4.92188Q11.2988 4.22852 12.5 4.22852Q13.3203 4.22852 13.7598 4.44336Q14.1992 4.6582 14.1992 5.06836Q14.1992 5.38086 14.0137 5.56641Q13.8281 5.75195 13.5254 5.75195Q13.3008 5.75195 13.0859 5.71777Q12.8711 5.68359 12.4121 5.68359Q11.8262 5.68359 11.5137 6.03027Q11.2012 6.37695 11.0938 7.16797L10.8691 8.79883L13.3203 8.79883Q13.6426 8.79883 13.8623 9.00391Q14.082 9.20898 14.082 9.52148Q14.082 9.82422 13.8672 10.0293Q13.6523 10.2344 13.3301 10.2344L10.6543 10.2344L10.2832 12.9883Q10.1074 14.2969 9.375 14.9805Q8.64258 15.6641 7.44141 15.6641Q6.60156 15.6641 6.17188 15.4541Q5.74219 15.2441 5.74219 14.8242Z" fill="none"/>
 </g>
</svg>
