<?xml version="1.0" encoding="UTF-8"?>
<!--Generator: Apple Native CoreSVG 175.5-->
<!DOCTYPE svg
PUBLIC "-//W3C//DTD SVG 1.1//EN"
       "http://www.w3.org/Graphics/SVG/1.1/DTD/svg11.dtd">
<svg version="1.1" xmlns="http://www.w3.org/2000/svg" xmlns:xlink="http://www.w3.org/1999/xlink" width="12.2852" height="17.2559">
 <g>
  <rect height="17.2559" opacity="0" width="12.2852" x="0" y="0"/>
  <path d="M2.27539 17.2559Q3.93555 17.2559 4.99023 16.3037Q6.04492 15.3516 6.30859 13.4375L7.53906 4.52148Q7.71484 3.17383 8.2959 2.57324Q8.87695 1.97266 9.88281 1.97266Q10.625 1.97266 10.9473 2.03613Q11.2695 2.09961 11.5723 2.09961Q11.8848 2.09961 12.085 1.90918Q12.2852 1.71875 12.2852 1.37695Q12.2852 0.996094 11.9531 0.791016Q11.6211 0.585938 11.0986 0.50293Q10.5762 0.419922 10.0098 0.419922Q8.34961 0.419922 7.29492 1.37207Q6.24023 2.32422 5.97656 4.23828L4.75586 13.1641Q4.57031 14.5117 3.98926 15.1074Q3.4082 15.7031 2.40234 15.7031Q1.66992 15.7031 1.35254 15.6396Q1.03516 15.5762 0.722656 15.5762Q0.400391 15.5762 0.200195 15.7617Q0 15.9473 0 16.2988Q0 16.6797 0.332031 16.8848Q0.664062 17.0898 1.18652 17.1729Q1.70898 17.2559 2.27539 17.2559ZM1.77734 8.94531L11.2891 8.94531Q11.6406 8.94531 11.8652 8.73047Q12.0898 8.51562 12.0898 8.17383Q12.0898 7.83203 11.8604 7.6123Q11.6309 7.39258 11.2793 7.39258L1.76758 7.39258Q1.41602 7.39258 1.19141 7.6123Q0.966797 7.83203 0.966797 8.17383Q0.966797 8.51562 1.19629 8.73047Q1.42578 8.94531 1.77734 8.94531Z" fill="#ffffff"/>
 </g>
</svg>
