<?xml version="1.0" encoding="UTF-8"?>
<!--Generator: Apple Native CoreSVG 175.5-->
<!DOCTYPE svg
PUBLIC "-//W3C//DTD SVG 1.1//EN"
       "http://www.w3.org/Graphics/SVG/1.1/DTD/svg11.dtd">
<svg version="1.1" xmlns="http://www.w3.org/2000/svg" xmlns:xlink="http://www.w3.org/1999/xlink" width="19.9219" height="19.9316">
 <g>
  <rect height="19.9316" opacity="0" width="19.9219" x="0" y="0"/>
  <path d="M1.66992 9.96094Q1.66992 9.29688 1.77246 8.65723Q1.875 8.01758 2.06055 7.42188L0.527344 6.77734Q0.273438 7.5293 0.136719 8.33008Q0 9.13086 0 9.96094Q0 10.791 0.141602 11.5918Q0.283203 12.3926 0.537109 13.1445L2.06055 12.5Q1.875 11.9043 1.77246 11.2646Q1.66992 10.625 1.66992 9.96094ZM6.16211 2.55859L5.53711 1.05469Q4.08203 1.78711 2.92969 2.93945Q1.77734 4.0918 1.04492 5.54688L2.56836 6.18164Q3.1543 5.01953 4.07715 4.0918Q5 3.16406 6.16211 2.55859ZM9.95117 1.66016Q10.6152 1.66016 11.2598 1.7627Q11.9043 1.86523 12.5098 2.06055L13.1348 0.537109Q12.3828 0.273438 11.582 0.136719Q10.7812 0 9.95117 0Q9.12109 0 8.31543 0.136719Q7.50977 0.273438 6.75781 0.537109L7.40234 2.06055Q7.99805 1.86523 8.64258 1.7627Q9.28711 1.66016 9.95117 1.66016ZM17.3535 6.17188L18.8672 5.54688Q18.1348 4.0918 16.9727 2.93457Q15.8105 1.77734 14.3652 1.04492L13.7402 2.55859Q14.9023 3.1543 15.8301 4.07715Q16.7578 5 17.3535 6.17188ZM18.2617 9.96094Q18.2617 10.625 18.1592 11.2695Q18.0566 11.9141 17.8711 12.5098L19.3848 13.1543Q19.6484 12.4023 19.7852 11.5967Q19.9219 10.791 19.9219 9.96094Q19.9219 9.13086 19.7852 8.3252Q19.6484 7.51953 19.3848 6.76758L17.8613 7.41211Q18.0566 8.00781 18.1592 8.65234Q18.2617 9.29688 18.2617 9.96094ZM13.7402 17.3535L14.3652 18.877Q15.8203 18.1445 16.9775 16.9873Q18.1348 15.8301 18.8574 14.375L17.3633 13.75Q16.7676 14.9121 15.835 15.8398Q14.9023 16.7676 13.7402 17.3535ZM9.96094 18.2617Q9.28711 18.2617 8.64258 18.1592Q7.99805 18.0566 7.40234 17.8613L6.76758 19.3848Q7.51953 19.6387 8.3252 19.7803Q9.13086 19.9219 9.96094 19.9219Q10.791 19.9219 11.5869 19.7852Q12.3828 19.6484 13.1348 19.3945L12.5 17.8711Q11.8945 18.0566 11.2598 18.1592Q10.625 18.2617 9.96094 18.2617ZM2.56836 13.75L1.05469 14.375Q1.78711 15.8301 2.93945 16.9824Q4.0918 18.1348 5.53711 18.8672L6.16211 17.3438Q5 16.7578 4.07715 15.835Q3.1543 14.9121 2.56836 13.75ZM9.95117 14.8633Q10.9668 14.8633 11.7383 14.4971Q12.5098 14.1309 12.9346 13.6572Q13.3594 13.1836 13.3594 12.8613Q13.3594 12.6855 13.2178 12.6172Q13.0762 12.5488 12.9199 12.6172Q12.3926 12.9102 11.7041 13.1787Q11.0156 13.4473 9.95117 13.4473Q8.88672 13.4473 8.19824 13.1787Q7.50977 12.9102 6.97266 12.6172Q6.81641 12.5488 6.67969 12.6172Q6.54297 12.6855 6.54297 12.8613Q6.54297 13.1836 6.96777 13.6572Q7.39258 14.1309 8.16406 14.4971Q8.93555 14.8633 9.95117 14.8633ZM7.05078 9.10156Q7.51953 9.10156 7.87109 8.72559Q8.22266 8.34961 8.22266 7.76367Q8.22266 7.17773 7.87109 6.79688Q7.51953 6.41602 7.05078 6.41602Q6.5918 6.41602 6.25 6.79688Q5.9082 7.17773 5.9082 7.76367Q5.9082 8.34961 6.25 8.72559Q6.5918 9.10156 7.05078 9.10156ZM12.8418 9.10156Q13.3105 9.10156 13.6621 8.72559Q14.0137 8.34961 14.0137 7.76367Q14.0137 7.17773 13.6621 6.79688Q13.3105 6.41602 12.8418 6.41602Q12.3828 6.41602 12.041 6.79688Q11.6992 7.17773 11.6992 7.76367Q11.6992 8.34961 12.041 8.72559Q12.3828 9.10156 12.8418 9.10156Z" fill="#ffffff"/>
 </g>
</svg>
