<?xml version="1.0" encoding="UTF-8"?>
<!--Generator: Apple Native CoreSVG 175-->
<!DOCTYPE svg
PUBLIC "-//W3C//DTD SVG 1.1//EN"
       "http://www.w3.org/Graphics/SVG/1.1/DTD/svg11.dtd">
<svg version="1.1" xmlns="http://www.w3.org/2000/svg" xmlns:xlink="http://www.w3.org/1999/xlink" width="19.8312" height="22.5323">
 <g>
  <rect height="22.5323" opacity="0" width="19.8312" x="0" y="0"/>
  <path d="M9.91913 22.5125Q10.6355 22.5125 11.1478 22.3123Q11.6602 22.1121 12.0576 21.8143Q12.4551 21.5164 12.8159 21.2234Q13.1766 20.9305 13.5871 20.7303Q13.9977 20.5301 14.5508 20.5301Q15.1207 20.5301 15.5285 20.7303Q15.9363 20.9305 16.3006 21.2234Q16.6649 21.5164 17.077 21.8143Q17.489 22.1121 18.0529 22.3123Q18.6168 22.5125 19.4406 22.5125L19.4894 22.5125Q19.6347 22.5125 19.733 22.4107Q19.8312 22.309 19.8312 22.1637Q19.8312 22.028 19.733 21.9263Q19.6347 21.8246 19.4894 21.8246L19.4406 21.8246Q18.568 21.8246 17.9893 21.5098Q17.4106 21.1949 16.8637 20.8043Q16.3852 20.4597 15.8346 20.151Q15.284 19.8422 14.5508 19.8422Q13.8023 19.8422 13.242 20.167Q12.6816 20.4918 12.2031 20.8461Q11.6953 21.227 11.1765 21.5258Q10.6578 21.8246 9.91913 21.8246Q9.17343 21.8246 8.65471 21.5258Q8.13599 21.227 7.62817 20.8461Q7.14966 20.4918 6.58928 20.167Q6.0289 19.8422 5.28046 19.8422Q4.54727 19.8422 3.99666 20.151Q3.44604 20.4597 2.96753 20.8043Q2.42065 21.1949 1.84334 21.5098Q1.26602 21.8246 0.390625 21.8246L0.341797 21.8246Q0.19928 21.8246 0.0996399 21.9263Q0 22.028 0 22.1637Q0 22.309 0.0996399 22.4107Q0.19928 22.5125 0.341797 22.5125L0.390625 22.5125Q1.21719 22.5125 1.77971 22.3123Q2.34222 22.1121 2.75429 21.8143Q3.16635 21.5164 3.53065 21.2234Q3.89496 20.9305 4.30412 20.7303Q4.71329 20.5301 5.28046 20.5301Q5.83359 20.5301 6.24413 20.7303Q6.65466 20.9305 7.01538 21.2234Q7.3761 21.5164 7.77359 21.8143Q8.17108 22.1121 8.6834 22.3123Q9.19571 22.5125 9.91913 22.5125ZM0.674591 14.3863L3.87192 20.5386L4.45587 20.1555L1.30737 14.1183Q0.896454 13.3226 1.05034 12.8841Q1.20422 12.4457 1.85776 12.1504L8.42575 9.12064Q8.80554 8.94058 9.14574 8.82401Q9.48593 8.70743 9.91913 8.70743Q10.3453 8.70743 10.6856 8.82401Q11.0258 8.94058 11.4082 9.12064L17.9735 12.1504Q18.6298 12.4457 18.7823 12.8841Q18.9348 13.3226 18.5239 14.1183L15.3754 20.1555L15.9785 20.5183L19.1566 14.3863Q19.7043 13.3348 19.4504 12.65Q19.1965 11.9652 18.2462 11.5262L11.6809 8.4964Q11.3051 8.32886 10.8797 8.17413Q10.4543 8.01941 9.91913 8.01941Q9.37698 8.01941 8.95157 8.17413Q8.52615 8.32886 8.15033 8.4964L1.58508 11.5262Q0.634766 11.9652 0.382233 12.65Q0.1297 13.3348 0.674591 14.3863ZM2.59964 11.2054L3.34564 10.9621L4.32739 4.03854Q4.40857 3.46436 4.73282 3.16048Q5.05707 2.8566 5.62302 2.8566L14.2348 2.8566Q14.8062 2.8566 15.1305 3.1572Q15.4547 3.45779 15.5359 4.0155L16.5051 10.9758L17.2511 11.2054L16.2195 3.93463Q16.1023 3.07098 15.5898 2.62337Q15.0774 2.17575 14.2348 2.17575L5.62302 2.17575Q4.7789 2.17575 4.27124 2.63489Q3.76358 3.09402 3.63403 3.98239ZM5.81131 6.79794L8.9653 6.79794Q9.11957 6.79794 9.20921 6.70677Q9.29886 6.6156 9.29886 6.47491L9.29886 4.75769Q9.29886 4.61716 9.20921 4.52591Q9.11957 4.43466 8.9653 4.43466L5.81131 4.43466Q5.67078 4.43466 5.58792 4.52591Q5.50507 4.61716 5.50507 4.75769L5.50507 6.47491Q5.50507 6.6156 5.58792 6.70677Q5.67078 6.79794 5.81131 6.79794ZM10.8598 6.79794L14.0234 6.79794Q14.1707 6.79794 14.2603 6.70677Q14.35 6.6156 14.35 6.47491L14.35 4.75769Q14.35 4.61716 14.2603 4.52591Q14.1707 4.43466 14.0234 4.43466L10.8598 4.43466Q10.7219 4.43466 10.639 4.52591Q10.5562 4.61716 10.5562 4.75769L10.5562 6.47491Q10.5562 6.6156 10.639 6.70677Q10.7219 6.79794 10.8598 6.79794ZM6.12106 2.5679L6.80191 2.5679L6.80191 1.33621Q6.80191 0.680847 7.44064 0.680847L12.4144 0.680847Q13.0531 0.680847 13.0531 1.33621L13.0531 2.5679L13.734 2.5679L13.734 1.31592Q13.734 0.703125 13.3908 0.351562Q13.0476 0 12.4348 0L7.42035 0Q6.8074 0 6.46423 0.351562Q6.12106 0.703125 6.12106 1.31592Z" fill="rgba(0,0,0,0.85)"/>
 </g>
</svg>
