<?xml version="1.0" encoding="UTF-8"?>
<!--Generator: Apple Native CoreSVG 175.5-->
<!DOCTYPE svg
PUBLIC "-//W3C//DTD SVG 1.1//EN"
       "http://www.w3.org/Graphics/SVG/1.1/DTD/svg11.dtd">
<svg version="1.1" xmlns="http://www.w3.org/2000/svg" xmlns:xlink="http://www.w3.org/1999/xlink" width="24.7656" height="19.248">
 <g>
  <rect height="19.248" opacity="0" width="24.7656" x="0" y="0"/>
  <path d="M16.4844 4.26758Q17.0801 4.26758 17.5635 3.97949Q18.0469 3.69141 18.335 3.20801Q18.623 2.72461 18.623 2.12891Q18.623 1.54297 18.335 1.05469Q18.0469 0.566406 17.5635 0.283203Q17.0801 0 16.4844 0Q15.8984 0 15.4102 0.283203Q14.9219 0.566406 14.6387 1.05469Q14.3555 1.54297 14.3555 2.12891Q14.3555 2.72461 14.6387 3.20801Q14.9219 3.69141 15.4102 3.97949Q15.8984 4.26758 16.4844 4.26758ZM9.62891 19.1309Q9.96094 19.248 10.3271 19.1406Q10.6934 19.0332 10.8984 18.6035L13.3984 13.6035Q13.5449 13.3203 13.5059 13.0078Q13.4668 12.6953 13.2129 12.4512L10.1953 9.42383L14.0137 7.51953Q14.2969 7.36328 14.5312 7.60742L16.8066 9.86328Q17.0898 10.1562 17.5 10.1562L22.0117 10.1562Q22.4219 10.1562 22.7148 9.86328Q23.0078 9.57031 23.0078 9.15039Q23.0078 8.74023 22.7148 8.44727Q22.4219 8.1543 22.0117 8.1543L17.9102 8.1543L13.7012 3.93555Q12.9297 3.1543 11.8066 3.1543L3.49609 3.1543Q3.08594 3.1543 2.79297 3.44727Q2.5 3.74023 2.5 4.15039Q2.5 4.57031 2.79297 4.86328Q3.08594 5.15625 3.49609 5.15625L9.76562 5.15625Q9.85352 5.15625 9.87305 5.24902Q9.89258 5.3418 9.81445 5.37109L7.94922 6.29883Q7.20703 6.66992 6.83594 7.30957Q6.46484 7.94922 6.46484 8.65234Q6.46484 9.25781 6.73828 9.8291Q7.01172 10.4004 7.56836 10.8008L11.2305 13.4668L9.11133 17.7148Q8.85742 18.2129 9.05762 18.5986Q9.25781 18.9844 9.62891 19.1309ZM0.996094 15.1562L5.99609 15.1562Q6.62109 15.1562 6.9043 14.6094L8.03711 12.3145L7.02148 11.5625Q6.74805 11.3672 6.51855 11.1328Q6.28906 10.8984 6.11328 10.6445L5.29297 13.1543L0.996094 13.1543Q0.585938 13.1543 0.292969 13.4473Q0 13.7402 0 14.1504Q0 14.5605 0.292969 14.8584Q0.585938 15.1562 0.996094 15.1562ZM22.4805 0.498047Q21.8164 0.498047 21.2988 0.791016Q20.7812 1.08398 20.4883 1.59668Q20.1953 2.10938 20.1953 2.77344Q20.1953 3.48633 20.4541 4.21387Q20.7129 4.94141 21.0693 5.55176Q21.4258 6.16211 21.7188 6.5625Q22.0117 6.96289 22.0801 7.04102L22.8711 7.04102Q22.9395 6.96289 23.2373 6.5625Q23.5352 6.16211 23.8867 5.55176Q24.2383 4.94141 24.502 4.21387Q24.7656 3.48633 24.7656 2.77344Q24.7656 2.10938 24.4678 1.59668Q24.1699 1.08398 23.6572 0.791016Q23.1445 0.498047 22.4805 0.498047ZM22.4805 1.58203Q23.0078 1.58203 23.3447 1.91895Q23.6816 2.25586 23.6816 2.77344Q23.6816 3.24219 23.4814 3.79395Q23.2812 4.3457 22.998 4.86328Q22.7148 5.38086 22.4805 5.76172Q22.2363 5.38086 21.958 4.86328Q21.6797 4.3457 21.4795 3.79395Q21.2793 3.24219 21.2793 2.77344Q21.2793 2.25586 21.6162 1.91895Q21.9531 1.58203 22.4805 1.58203ZM21.9336 9.15039L23.0078 9.15039L23.0078 6.65039L21.9336 6.65039Z" fill="#ffffff"/>
 </g>
</svg>
