<?xml version="1.0" encoding="UTF-8"?>
<!--Generator: Apple Native CoreSVG 175.5-->
<!DOCTYPE svg
PUBLIC "-//W3C//DTD SVG 1.1//EN"
       "http://www.w3.org/Graphics/SVG/1.1/DTD/svg11.dtd">
<svg version="1.1" xmlns="http://www.w3.org/2000/svg" xmlns:xlink="http://www.w3.org/1999/xlink" width="25.0293" height="18.5254">
 <g>
  <rect height="18.5254" opacity="0" width="25.0293" x="0" y="0"/>
  <path d="M16.5137 4.26758Q17.1094 4.26758 17.5928 3.97949Q18.0762 3.69141 18.3643 3.20801Q18.6523 2.72461 18.6523 2.12891Q18.6523 1.54297 18.3643 1.05957Q18.0762 0.576172 17.5928 0.288086Q17.1094 0 16.5137 0Q15.9277 0 15.4443 0.288086Q14.9609 0.576172 14.6729 1.05957Q14.3848 1.54297 14.3848 2.12891Q14.3848 2.72461 14.6729 3.20801Q14.9609 3.69141 15.4443 3.97949Q15.9277 4.26758 16.5137 4.26758ZM9.33594 18.2812Q9.61914 18.4375 10.0293 18.3496Q10.4395 18.2617 10.6445 17.8418L13.0957 12.9688Q13.2324 12.6855 13.1885 12.373Q13.1445 12.0605 12.9102 11.8359L9.96094 8.87695L13.6816 7.01172Q13.9648 6.86523 14.209 7.09961L16.123 9.02344L16.123 13.0176Q16.123 13.418 16.416 13.7061Q16.709 13.9941 17.1094 13.9941Q17.5098 13.9941 17.7979 13.7061Q18.0859 13.418 18.0859 13.0176L18.0859 8.62305Q18.0859 8.42773 18.0273 8.25195Q17.9688 8.07617 17.8027 7.91992L13.3887 3.52539Q12.6172 2.76367 11.5332 2.76367L7.7832 2.76367Q7.29492 2.76367 7.0459 3.05176Q6.79688 3.33984 6.80664 3.73047Q6.81641 4.12109 7.11914 4.41406L8.29102 5.57617L7.8125 5.77148Q7.14844 6.04492 6.7334 6.56738Q6.31836 7.08984 6.21094 7.72949Q6.10352 8.36914 6.33789 8.98438Q6.57227 9.59961 7.19727 10.0586L10.9766 12.832L8.90625 16.9727Q8.7207 17.334 8.85254 17.7148Q8.98438 18.0957 9.33594 18.2812ZM0.976562 14.4922L5.86914 14.4922Q6.16211 14.4922 6.38672 14.3311Q6.61133 14.1699 6.72852 13.9453L7.8418 11.709L6.64062 10.8203Q6.23047 10.5176 5.94727 10.166L5.15625 12.5293L0.976562 12.5293Q0.576172 12.5293 0.288086 12.8174Q0 13.1055 0 13.5156Q0 13.916 0.288086 14.2041Q0.576172 14.4922 0.976562 14.4922ZM21.5625 17.959L24.502 17.959Q24.7168 17.959 24.873 17.7979Q25.0293 17.6367 25.0293 17.4219L25.0293 16.9336Q25.0293 16.709 24.873 16.5479Q24.7168 16.3867 24.502 16.3867L21.25 16.3867L11.7676 6.91406L10.8008 7.4707L21.084 17.7539Q21.2109 17.8906 21.3184 17.9248Q21.4258 17.959 21.5625 17.959Z" fill="#ffffff"/>
 </g>
</svg>
