<?xml version="1.0" encoding="UTF-8"?>
<!--Generator: Apple Native CoreSVG 175.5-->
<!DOCTYPE svg
PUBLIC "-//W3C//DTD SVG 1.1//EN"
       "http://www.w3.org/Graphics/SVG/1.1/DTD/svg11.dtd">
<svg version="1.1" xmlns="http://www.w3.org/2000/svg" xmlns:xlink="http://www.w3.org/1999/xlink" width="17.1194" height="24.0137">
 <g>
  <rect height="24.0137" opacity="0" width="17.1194" x="0" y="0"/>
  <path d="M8.47686 4.27734Q9.0628 4.27734 9.54619 3.98438Q10.0296 3.69141 10.3177 3.20801Q10.6058 2.72461 10.6058 2.13867Q10.6058 1.55273 10.3177 1.06934Q10.0296 0.585938 9.54619 0.292969Q9.0628 0 8.47686 0Q7.89092 0 7.40752 0.292969Q6.92412 0.585938 6.63116 1.06934Q6.33819 1.55273 6.33819 2.13867Q6.33819 2.72461 6.63116 3.20801Q6.92412 3.69141 7.40752 3.98438Q7.89092 4.27734 8.47686 4.27734ZM0.791312 11.748Q1.17217 11.8164 1.52373 11.6309Q1.8753 11.4453 1.97295 10.9961L2.80303 7.28516L4.27764 7.28516Q4.41436 7.28516 4.50225 7.3877Q4.59014 7.49023 4.55108 7.62695L3.56475 11.4258Q3.35967 12.1973 3.60869 12.8809Q3.85772 13.5645 4.49737 13.9062Q5.13701 14.248 6.11358 14.0039L9.69756 13.1152L9.0042 16.5723Q8.91631 16.9727 9.1458 17.3193Q9.3753 17.666 9.77569 17.7539Q10.1175 17.8223 10.4886 17.6172Q10.8597 17.4121 10.9573 16.9727L11.9534 11.9824Q12.0218 11.6211 11.8753 11.3379Q11.7288 11.0547 11.4554 10.8984Q11.1819 10.7422 10.8792 10.7715L7.69561 11.084L8.63311 7.5293Q8.66241 7.42188 8.76494 7.36328Q8.86748 7.30469 8.97491 7.34375L12.6272 8.73047Q13.1253 8.91602 13.5452 8.67188Q13.9651 8.42773 13.9651 7.91016L13.9651 3.30078Q13.9651 2.89062 13.6771 2.59766Q13.389 2.30469 12.9593 2.30469Q12.5491 2.30469 12.2562 2.59766Q11.9632 2.89062 11.9632 3.30078L11.9632 6.34766L10.098 5.625Q9.63897 5.45898 9.15069 5.37109Q8.66241 5.2832 8.16436 5.2832L1.99248 5.2832Q1.64092 5.2832 1.37237 5.50781Q1.10381 5.73242 1.02569 6.06445L0.0295928 10.5566Q-0.0680634 10.9668 0.156546 11.3232Q0.381155 11.6797 0.791312 11.748ZM5.29326 23.7402Q5.64483 23.8086 6.01104 23.5986Q6.37725 23.3887 6.46514 22.959L7.46123 17.9688Q7.471 17.9102 7.47588 17.832Q7.48076 17.7539 7.48076 17.6855L7.48076 14.6484L6.33819 14.9219Q6.00616 15.0098 5.69854 15.0342Q5.39092 15.0586 5.10772 15.0391L5.47881 17.7246L4.51201 22.5488Q4.43389 22.959 4.6585 23.3057Q4.88311 23.6523 5.29326 23.7402ZM9.10186 21.7773L15.5862 21.7773Q15.8108 21.7773 15.972 21.6211Q16.1331 21.4648 16.1331 21.2305Q16.1331 21.0059 15.972 20.8496Q15.8108 20.6934 15.5862 20.6934L9.10186 20.6934Q8.86748 20.6934 8.71123 20.8496Q8.55498 21.0059 8.55498 21.2305Q8.55498 21.4648 8.71123 21.6211Q8.86748 21.7773 9.10186 21.7773ZM8.096 23.9746L16.5726 23.9746Q16.7972 23.9746 16.9583 23.8135Q17.1194 23.6523 17.1194 23.4277Q17.1194 23.2031 16.9583 23.0469Q16.7972 22.8906 16.5726 22.8906L8.096 22.8906Q7.87139 22.8906 7.71514 23.0469Q7.55889 23.2031 7.55889 23.4277Q7.55889 23.6523 7.71514 23.8135Q7.87139 23.9746 8.096 23.9746Z" fill="#ffffff"/>
 </g>
</svg>
