<?xml version="1.0" encoding="UTF-8"?>
<!--Generator: Apple Native CoreSVG 175.5-->
<!DOCTYPE svg
PUBLIC "-//W3C//DTD SVG 1.1//EN"
       "http://www.w3.org/Graphics/SVG/1.1/DTD/svg11.dtd">
<svg version="1.1" xmlns="http://www.w3.org/2000/svg" xmlns:xlink="http://www.w3.org/1999/xlink" width="23.1152" height="17.4121">
 <g>
  <rect height="17.4121" opacity="0" width="23.1152" x="0" y="0"/>
  <path d="M11.5527 12.1289Q12.207 12.1289 12.6611 11.9629Q13.1152 11.7969 13.501 11.5479Q13.8867 11.2988 14.3066 11.0596Q14.7266 10.8203 15.3027 10.6738L8.53516 3.63281Q8.20312 3.29102 7.75879 3.25195Q7.31445 3.21289 6.92383 3.49609L3.0957 6.2207Q2.59766 6.57227 2.59277 7.02637Q2.58789 7.48047 2.88086 7.79297Q3.11523 8.05664 3.51074 8.125Q3.90625 8.19336 4.31641 7.90039L7.42188 5.70312L9.17969 7.50977Q9.32617 7.66602 9.34082 7.87109Q9.35547 8.07617 9.13086 8.23242L5.51758 10.6055Q5.83008 10.5762 6.17188 10.5664Q6.51367 10.5566 6.9043 10.5664Q7.73438 10.6055 8.29102 10.8447Q8.84766 11.084 9.30664 11.3818Q9.76562 11.6797 10.2832 11.9043Q10.8008 12.1289 11.5527 12.1289ZM0.546875 14.707L1.5332 14.707Q2.50977 14.707 3.16895 14.4678Q3.82812 14.2285 4.34082 13.9062Q4.85352 13.584 5.36133 13.3447Q5.86914 13.1055 6.54297 13.1055Q7.22656 13.1055 7.73438 13.3447Q8.24219 13.584 8.75 13.9062Q9.25781 14.2285 9.91699 14.4678Q10.5762 14.707 11.5527 14.707Q12.5391 14.707 13.1982 14.4678Q13.8574 14.2285 14.3652 13.9062Q14.873 13.584 15.3809 13.3447Q15.8887 13.1055 16.5723 13.1055Q17.2461 13.1055 17.7539 13.3447Q18.2617 13.584 18.7695 13.9062Q19.2773 14.2285 19.9365 14.4678Q20.5957 14.707 21.582 14.707L22.5684 14.707Q22.8027 14.707 22.959 14.5508Q23.1152 14.3945 23.1152 14.1699Q23.1152 13.9355 22.959 13.7793Q22.8027 13.623 22.5684 13.623L21.582 13.623Q20.8789 13.623 20.3516 13.3789Q19.8242 13.1348 19.3115 12.8174Q18.7988 12.5 18.1543 12.2607Q17.5098 12.0215 16.5723 12.0215Q15.625 12.0215 14.9805 12.2607Q14.3359 12.5 13.8232 12.8174Q13.3105 13.1348 12.7832 13.3789Q12.2559 13.623 11.5527 13.623Q10.8496 13.623 10.3223 13.3789Q9.79492 13.1348 9.28223 12.8174Q8.76953 12.5 8.125 12.2607Q7.48047 12.0215 6.54297 12.0215Q5.60547 12.0215 4.96094 12.2607Q4.31641 12.5 3.80371 12.8174Q3.29102 13.1348 2.76367 13.3789Q2.23633 13.623 1.5332 13.623L0.546875 13.623Q0.3125 13.623 0.15625 13.7793Q0 13.9355 0 14.1699Q0 14.3945 0.15625 14.5508Q0.3125 14.707 0.546875 14.707ZM0.546875 17.4023L1.5332 17.4023Q2.50977 17.4023 3.16895 17.1582Q3.82812 16.9141 4.34082 16.5967Q4.85352 16.2793 5.36133 16.0352Q5.86914 15.791 6.54297 15.791Q7.22656 15.791 7.73438 16.0352Q8.24219 16.2793 8.75 16.5967Q9.25781 16.9141 9.91699 17.1582Q10.5762 17.4023 11.5527 17.4023Q12.5391 17.4023 13.1982 17.1582Q13.8574 16.9141 14.3652 16.5967Q14.873 16.2793 15.3809 16.0352Q15.8887 15.791 16.5723 15.791Q17.2461 15.791 17.7539 16.0352Q18.2617 16.2793 18.7695 16.5967Q19.2773 16.9141 19.9365 17.1582Q20.5957 17.4023 21.582 17.4023L22.5684 17.4023Q22.8027 17.4023 22.959 17.2412Q23.1152 17.0801 23.1152 16.8555Q23.1152 16.6309 22.959 16.4697Q22.8027 16.3086 22.5684 16.3086L21.582 16.3086Q20.8789 16.3086 20.3516 16.0693Q19.8242 15.8301 19.3115 15.5127Q18.7988 15.1953 18.1543 14.9512Q17.5098 14.707 16.5723 14.707Q15.625 14.707 14.9805 14.9512Q14.3359 15.1953 13.8232 15.5127Q13.3105 15.8301 12.7832 16.0693Q12.2559 16.3086 11.5527 16.3086Q10.8496 16.3086 10.3223 16.0693Q9.79492 15.8301 9.28223 15.5127Q8.76953 15.1953 8.125 14.9512Q7.48047 14.707 6.54297 14.707Q5.60547 14.707 4.96094 14.9512Q4.31641 15.1953 3.80371 15.5127Q3.29102 15.8301 2.76367 16.0693Q2.23633 16.3086 1.5332 16.3086L0.546875 16.3086Q0.3125 16.3086 0.15625 16.4697Q0 16.6309 0 16.8555Q0 17.0801 0.15625 17.2412Q0.3125 17.4023 0.546875 17.4023ZM8.38867 0.546875Q8.38867 0.771484 8.5498 0.932617Q8.71094 1.09375 8.93555 1.09375Q9.58984 1.09375 10.0391 1.25Q10.4883 1.40625 10.9082 1.86523Q11.2109 2.19727 11.5527 2.19727Q11.9043 2.19727 12.207 1.86523Q12.627 1.40625 13.0713 1.25Q13.5156 1.09375 14.1797 1.09375Q14.4043 1.09375 14.5654 0.932617Q14.7266 0.771484 14.7266 0.546875Q14.7266 0.322266 14.5654 0.161133Q14.4043 0 14.1699 0Q13.3594 0 12.7588 0.224609Q12.1582 0.449219 11.5527 0.996094Q10.957 0.449219 10.3564 0.224609Q9.75586 0 8.93555 0Q8.71094 0 8.5498 0.161133Q8.38867 0.322266 8.38867 0.546875ZM15.4492 8.17383Q16.0449 8.17383 16.5283 7.88574Q17.0117 7.59766 17.2998 7.11426Q17.5879 6.63086 17.5879 6.03516Q17.5879 5.44922 17.2998 4.96582Q17.0117 4.48242 16.5283 4.19434Q16.0449 3.90625 15.4492 3.90625Q14.8633 3.90625 14.375 4.19434Q13.8867 4.48242 13.6035 4.96582Q13.3203 5.44922 13.3203 6.03516Q13.3203 6.63086 13.6035 7.11426Q13.8867 7.59766 14.375 7.88574Q14.8633 8.17383 15.4492 8.17383Z" fill="#ffffff"/>
 </g>
</svg>
