<?xml version="1.0" encoding="UTF-8"?>
<!--Generator: Apple Native CoreSVG 175.5-->
<!DOCTYPE svg
PUBLIC "-//W3C//DTD SVG 1.1//EN"
       "http://www.w3.org/Graphics/SVG/1.1/DTD/svg11.dtd">
<svg version="1.1" xmlns="http://www.w3.org/2000/svg" xmlns:xlink="http://www.w3.org/1999/xlink" width="13.1258" height="22.0605">
 <g>
  <rect height="22.0605" opacity="0" width="13.1258" x="0" y="0"/>
  <path d="M6.56288 4.20898Q7.14882 4.20898 7.62734 3.93066Q8.10585 3.65234 8.38905 3.17383Q8.67226 2.69531 8.67226 2.10938Q8.67226 1.52344 8.38905 1.04492Q8.10585 0.566406 7.62734 0.283203Q7.14882 0 6.56288 0Q5.97695 0 5.49843 0.283203Q5.01991 0.566406 4.73671 1.04492Q4.45351 1.52344 4.45351 2.10938Q4.45351 2.69531 4.73671 3.17383Q5.01991 3.65234 5.49843 3.93066Q5.97695 4.20898 6.56288 4.20898ZM6.56288 13.6621Q6.86562 13.6621 7.02187 13.8867Q7.17812 14.1113 7.34413 14.6387Q7.44179 14.9316 7.6078 15.5469Q7.77382 16.1621 7.96913 16.9287Q8.16445 17.6953 8.36464 18.4766Q8.56484 19.2578 8.73085 19.9072Q8.89687 20.5566 8.99452 20.918Q9.2289 21.7773 9.93202 21.7773Q10.4008 21.7773 10.6498 21.416Q10.8988 21.0547 10.7621 20.5957Q10.7426 20.5273 10.6254 20.0488Q10.5082 19.5703 10.3373 18.8379Q10.1664 18.1055 9.9662 17.2559Q9.76601 16.4062 9.58046 15.5908Q9.39491 14.7754 9.2582 14.1357Q9.12148 13.4961 9.07265 13.1934Q9.01405 12.793 8.97499 12.2266Q8.93593 11.6602 8.91152 11.0449Q8.8871 10.4297 8.87734 9.86816Q8.86757 9.30664 8.86757 8.92578Q8.86757 8.80859 8.96523 8.7793Q9.06288 8.75 9.14101 8.84766Q9.41445 9.22852 9.77089 9.73633Q10.1273 10.2441 10.4838 10.7422Q10.8402 11.2402 11.1088 11.6113Q11.3773 11.9824 11.475 12.0996Q11.6996 12.3438 12.017 12.3926Q12.3344 12.4414 12.6176 12.2754Q12.9984 12.0801 13.0912 11.7334Q13.184 11.3867 13.0277 11.1035Q12.9691 10.9961 12.8959 10.8838Q12.8226 10.7715 12.7445 10.6641L10.2152 6.94336Q9.81484 6.34766 9.32167 5.97168Q8.82851 5.5957 8.15956 5.41504Q7.49062 5.23438 6.56288 5.23438Q5.63515 5.23438 4.9662 5.41504Q4.29726 5.5957 3.80409 5.97168Q3.31093 6.34766 2.91054 6.94336L0.381242 10.6641Q0.303117 10.7715 0.229875 10.8838Q0.156633 10.9961 0.0980392 11.1035Q-0.0582108 11.3867 0.0345627 11.7334Q0.127336 12.0801 0.508195 12.2754Q0.791399 12.4414 1.10878 12.3926Q1.42616 12.3438 1.64101 12.0996Q1.74843 11.9824 2.01698 11.6113Q2.28554 11.2402 2.6371 10.7422Q2.98866 10.2441 3.34999 9.74121Q3.71132 9.23828 3.98476 8.84766Q4.05312 8.75 4.15566 8.78418Q4.2582 8.81836 4.2582 8.93555Q4.2582 9.31641 4.24843 9.87305Q4.23866 10.4297 4.21425 11.0449Q4.18984 11.6602 4.15077 12.2266Q4.11171 12.793 4.04335 13.1934Q3.99452 13.4961 3.8578 14.1357Q3.72109 14.7754 3.54042 15.5908Q3.35976 16.4062 3.15956 17.2559Q2.95937 18.1055 2.78359 18.8379Q2.6078 19.5703 2.4955 20.0488Q2.3832 20.5273 2.36366 20.5957Q2.22695 21.0547 2.47597 21.416Q2.72499 21.7773 3.19374 21.7773Q3.89687 21.7773 4.13124 20.918Q4.2289 20.5566 4.39491 19.9072Q4.56093 19.2578 4.75624 18.4766Q4.95155 17.6953 5.15175 16.9287Q5.35195 16.1621 5.51796 15.5469Q5.68398 14.9316 5.78163 14.6387Q5.94765 14.1113 6.1039 13.8867Q6.26015 13.6621 6.56288 13.6621Z" fill="#ffffff"/>
 </g>
</svg>
