<?xml version="1.0" encoding="UTF-8"?>
<!--Generator: Apple Native CoreSVG 175.5-->
<!DOCTYPE svg
PUBLIC "-//W3C//DTD SVG 1.1//EN"
       "http://www.w3.org/Graphics/SVG/1.1/DTD/svg11.dtd">
<svg version="1.1" xmlns="http://www.w3.org/2000/svg" xmlns:xlink="http://www.w3.org/1999/xlink" width="19.9219" height="19.9316">
 <g>
  <rect height="19.9316" opacity="0" width="19.9219" x="0" y="0"/>
  <path d="M9.96094 19.9219Q12.002 19.9219 13.8037 19.1406Q15.6055 18.3594 16.9824 16.9824Q18.3594 15.6055 19.1406 13.8037Q19.9219 12.002 19.9219 9.96094Q19.9219 7.91992 19.1406 6.11816Q18.3594 4.31641 16.9824 2.93945Q15.6055 1.5625 13.7988 0.78125Q11.9922 0 9.95117 0Q7.91016 0 6.1084 0.78125Q4.30664 1.5625 2.93457 2.93945Q1.5625 4.31641 0.78125 6.11816Q0 7.91992 0 9.96094Q0 12.002 0.78125 13.8037Q1.5625 15.6055 2.93945 16.9824Q4.31641 18.3594 6.11816 19.1406Q7.91992 19.9219 9.96094 19.9219Z" fill="#ffffff"/>
  <path d="M12.3535 16.1816Q11.9629 16.1816 11.7773 15.791L10.4785 13.1348Q10.4199 13.0469 10.3809 12.9883Q10.3418 12.9297 10.2637 12.832L9.07227 11.3477Q8.82812 11.0254 8.63281 10.6494Q8.4375 10.2734 8.47656 9.77539L8.57422 8.41797Q8.59375 8.27148 8.47656 8.20312Q8.35938 8.13477 8.23242 8.24219L7.64648 8.75977L7.5293 10.2637Q7.49023 10.8691 6.93359 10.8398Q6.66992 10.8203 6.52832 10.6396Q6.38672 10.459 6.40625 10.1758L6.52344 8.80859Q6.55273 8.52539 6.64551 8.32031Q6.73828 8.11523 6.95312 7.90039L7.90039 6.99219Q8.35938 6.54297 8.79395 6.31348Q9.22852 6.08398 9.70703 6.08398Q10.3711 6.08398 10.7373 6.50879Q11.1035 6.93359 11.0645 7.63672L10.9473 9.27734Q10.918 9.7168 10.8252 10.0732Q10.7324 10.4297 10.5859 10.9082L10.5273 11.1035L11.2695 12.1582Q11.3379 12.2559 11.4307 12.3975Q11.5234 12.5391 11.6016 12.7344L12.8223 15.1953Q12.8809 15.3223 12.915 15.4199Q12.9492 15.5176 12.9492 15.625Q12.9492 15.8691 12.7783 16.0254Q12.6074 16.1816 12.3535 16.1816ZM6.76758 16.1914Q6.5332 16.1914 6.38672 16.0352Q6.24023 15.8789 6.24023 15.6348Q6.24023 15.4785 6.31348 15.3564Q6.38672 15.2344 6.50391 15.1074L8.25195 13.0371L8.52539 11.6797L9.48242 12.8711L9.375 13.2812Q9.3457 13.4375 9.30664 13.4961Q9.26758 13.5547 9.11133 13.7402L7.22656 15.9766Q7.05078 16.1914 6.76758 16.1914ZM12.6953 9.57031Q12.4316 9.57031 12.2852 9.5166Q12.1387 9.46289 11.9922 9.32617L11.582 8.91602L11.6797 7.4707L12.5781 8.45703L14.1504 8.45703Q14.4434 8.45703 14.6094 8.6084Q14.7754 8.75977 14.7754 9.01367Q14.7754 9.57031 14.1504 9.57031ZM10.4785 5.48828Q9.96094 5.48828 9.58496 5.1123Q9.20898 4.73633 9.20898 4.20898Q9.20898 3.68164 9.58008 3.30078Q9.95117 2.91992 10.4785 2.91992Q11.0156 2.91992 11.3916 3.2959Q11.7676 3.67188 11.7676 4.20898Q11.7676 4.72656 11.3867 5.10742Q11.0059 5.48828 10.4785 5.48828Z" fill="none"/>
 </g>
</svg>
