<?xml version="1.0" encoding="UTF-8"?>
<!--Generator: Apple Native CoreSVG 175.5-->
<!DOCTYPE svg
PUBLIC "-//W3C//DTD SVG 1.1//EN"
       "http://www.w3.org/Graphics/SVG/1.1/DTD/svg11.dtd">
<svg version="1.1" xmlns="http://www.w3.org/2000/svg" xmlns:xlink="http://www.w3.org/1999/xlink" width="12.5368" height="24.6191">
 <g>
  <rect height="24.6191" opacity="0" width="12.5368" x="0" y="0"/>
  <path d="M1.42578 23.9844Q1.8457 23.9844 2.12891 23.7061Q2.41211 23.4277 2.41211 23.0273L2.41211 18.3496L5.14648 15.4395Q5.18555 15.4004 5.24414 15.4004Q5.30273 15.4004 5.33203 15.4492L7.94922 18.9551L10.1758 23.3789Q10.4004 23.8477 10.7812 23.9453Q11.1621 24.043 11.5088 23.8721Q11.8555 23.7012 12.0068 23.3447Q12.1582 22.9883 11.9336 22.5488L7.36328 13.3887Q7.05078 12.7734 6.88477 11.9775Q6.71875 11.1816 6.65039 10.3418Q6.63086 10.0684 6.78223 9.95605Q6.93359 9.84375 7.16797 9.96094L8.97461 10.8789L10.6445 14.2188Q10.8691 14.6582 11.25 14.7607Q11.6309 14.8633 11.9824 14.6973Q12.334 14.5312 12.4805 14.1699Q12.627 13.8086 12.3926 13.3398L10.5762 9.7168Q10.4199 9.42383 10.1367 9.27734L7.53906 7.97852Q6.96289 7.68555 6.37695 7.53906Q5.79102 7.39258 5.24414 7.25586Q4.60938 7.09961 4.06738 6.85547Q3.52539 6.61133 3.14453 6.06445L1.96289 4.3457L1.96289 0.966797Q1.96289 0.566406 1.66992 0.283203Q1.37695 0 0.976562 0Q0.576172 0 0.288086 0.283203Q0 0.566406 0 0.966797L0 4.6582Q0 4.82422 0.0390625 4.94629Q0.078125 5.06836 0.175781 5.20508L2.24609 8.19336Q2.38281 8.39844 2.4707 8.5791Q2.55859 8.75977 2.58789 9.10156Q2.62695 9.63867 2.71973 10.4297Q2.8125 11.2207 2.96875 12.0752Q3.125 12.9297 3.33984 13.6523L0.644531 17.3926Q0.546875 17.5391 0.507812 17.6758Q0.46875 17.8125 0.46875 17.959L0.46875 23.0273Q0.46875 23.4277 0.74707 23.7061Q1.02539 23.9844 1.42578 23.9844ZM5.91797 6.20117Q6.50391 6.20117 6.98242 5.91309Q7.46094 5.625 7.74902 5.1416Q8.03711 4.6582 8.03711 4.0625Q8.03711 3.47656 7.74902 2.99805Q7.46094 2.51953 6.98242 2.23145Q6.50391 1.94336 5.91797 1.94336Q5.32227 1.94336 4.83887 2.23145Q4.35547 2.51953 4.06738 2.99805Q3.7793 3.47656 3.7793 4.0625Q3.7793 4.6582 4.06738 5.1416Q4.35547 5.625 4.83887 5.91309Q5.32227 6.20117 5.91797 6.20117Z" fill="#ffffff"/>
 </g>
</svg>
