<?xml version="1.0" encoding="UTF-8"?>
<!--Generator: Apple Native CoreSVG 175.5-->
<!DOCTYPE svg
PUBLIC "-//W3C//DTD SVG 1.1//EN"
       "http://www.w3.org/Graphics/SVG/1.1/DTD/svg11.dtd">
<svg version="1.1" xmlns="http://www.w3.org/2000/svg" xmlns:xlink="http://www.w3.org/1999/xlink" width="23.3398" height="23.4082">
 <g>
  <rect height="23.4082" opacity="0" width="23.3398" x="0" y="0"/>
  <path d="M9.81445 4.47266Q10.4004 4.47266 10.8789 4.18945Q11.3574 3.90625 11.6455 3.42285Q11.9336 2.93945 11.9336 2.34375Q11.9336 1.75781 11.6455 1.27441Q11.3574 0.791016 10.8789 0.507812Q10.4004 0.224609 9.81445 0.224609Q9.21875 0.224609 8.73535 0.507812Q8.25195 0.791016 7.96387 1.27441Q7.67578 1.75781 7.67578 2.34375Q7.67578 2.93945 7.96387 3.42285Q8.25195 3.90625 8.73535 4.18945Q9.21875 4.47266 9.81445 4.47266ZM10.459 13.6426L15.8301 15.3027L20.9668 17.6367Q21.4648 17.8613 21.8359 17.6904Q22.207 17.5195 22.3682 17.1533Q22.5293 16.7871 22.4121 16.3965Q22.2949 16.0059 21.8262 15.791L12.9785 11.7969L12.9785 7.05078Q12.9785 6.75781 13.0615 6.66992Q13.1445 6.58203 13.3594 6.50391L16.0254 5.41992Q16.2793 5.3125 16.3525 5.23438Q16.4258 5.15625 16.5527 5.00977L19.3555 1.75781Q19.6289 1.43555 19.5947 1.02051Q19.5605 0.605469 19.2383 0.341797Q18.9258 0.0683594 18.5059 0.107422Q18.0859 0.146484 17.8223 0.458984L15.1465 3.57422L2.83203 8.60352Q2.56836 8.71094 2.39258 8.81836Q2.2168 8.92578 2.10938 9.0332L7.12891 9.0332L8.64258 8.42773Q9.05273 8.26172 9.05273 8.60352L9.05273 11.709Q9.05273 13.2129 10.459 13.6426ZM9.57031 22.1582Q9.45312 22.5488 9.58496 22.8271Q9.7168 23.1055 9.98535 23.2568Q10.2539 23.4082 10.5566 23.4082Q10.8594 23.4082 11.1377 23.2324Q11.416 23.0566 11.5137 22.6855L12.9492 17.4902Q12.9688 17.4121 12.9736 17.3438Q12.9785 17.2754 12.9785 17.2168L12.9785 15.3809L10.6445 14.668L10.9473 17.1582ZM0.546875 11.0938L8.08594 11.0938L8.08594 10.0098L0.546875 10.0098Q0.3125 10.0098 0.15625 10.166Q0 10.3223 0 10.5469Q0 10.7715 0.15625 10.9326Q0.3125 11.0938 0.546875 11.0938ZM22.8027 11.0938Q23.0273 11.0938 23.1836 10.9326Q23.3398 10.7715 23.3398 10.5469Q23.3398 10.3223 23.1836 10.166Q23.0273 10.0098 22.8027 10.0098L13.9551 10.0098L13.9551 10.7422L13.9551 11.0938Z" fill="#ffffff"/>
 </g>
</svg>
