<?xml version="1.0" encoding="UTF-8"?>
<!--Generator: Apple Native CoreSVG 175.5-->
<!DOCTYPE svg
PUBLIC "-//W3C//DTD SVG 1.1//EN"
       "http://www.w3.org/Graphics/SVG/1.1/DTD/svg11.dtd">
<svg version="1.1" xmlns="http://www.w3.org/2000/svg" xmlns:xlink="http://www.w3.org/1999/xlink" width="17.4541" height="23.3887">
 <g>
  <rect height="23.3887" opacity="0" width="17.4541" x="0" y="0"/>
  <path d="M6.99512 4.26758Q7.58105 4.26758 8.06445 3.97949Q8.54785 3.69141 8.83105 3.20312Q9.11426 2.71484 9.11426 2.11914Q9.11426 1.5332 8.83105 1.0498Q8.54785 0.566406 8.06445 0.283203Q7.58105 0 6.99512 0Q6.39941 0 5.91113 0.283203Q5.42285 0.566406 5.13477 1.0498Q4.84668 1.5332 4.84668 2.11914Q4.84668 2.71484 5.13477 3.20312Q5.42285 3.69141 5.91113 3.97949Q6.39941 4.26758 6.99512 4.26758ZM11.4678 23.252Q11.8877 23.252 12.1807 22.959Q12.4736 22.666 12.4736 22.2559L12.4736 16.709Q12.4736 16.5332 12.3711 16.3135Q12.2686 16.0938 12.0342 15.9375L8.46973 13.5645L8.46973 7.5293Q8.46973 7.28516 8.71387 7.28516L16.458 7.28516Q16.8779 7.28516 17.166 6.99219Q17.4541 6.69922 17.4541 6.28906Q17.4541 5.87891 17.166 5.58594Q16.8779 5.29297 16.458 5.29297L5.44238 5.29297Q4.73926 5.29297 4.30957 5.53223Q3.87988 5.77148 3.51855 6.2207L0.920898 9.41406Q0.608398 9.79492 0.637695 10.2295Q0.666992 10.6641 0.935547 10.9717Q1.2041 11.2793 1.61426 11.2793L4.48535 11.2793L4.48535 12.6562Q4.48535 13.3398 4.8418 13.9307Q5.19824 14.5215 5.81348 14.8535L10.4717 17.3633L10.4717 22.2559Q10.4717 22.666 10.7646 22.959Q11.0576 23.252 11.4678 23.252ZM3.46973 9.3457L4.54395 8.00781L4.54395 9.3457ZM0.237305 22.9102Q0.520508 23.2324 0.930664 23.252Q1.34082 23.2715 1.66309 22.998L5.5791 19.5703Q5.72559 19.4434 5.79883 19.3555Q5.87207 19.2676 5.9209 19.1309L6.96582 16.5332L5.36426 15.6738Q5.24707 15.6152 5.13477 15.5371Q5.02246 15.459 4.90527 15.3809L4.11426 18.2031L0.334961 21.5039Q0.0322266 21.7676 0.00292969 22.1875Q-0.0263672 22.6074 0.237305 22.9102Z" fill="#ffffff"/>
 </g>
</svg>
