<?xml version="1.0" encoding="UTF-8"?>
<!--Generator: Apple Native CoreSVG 175.5-->
<!DOCTYPE svg
PUBLIC "-//W3C//DTD SVG 1.1//EN"
       "http://www.w3.org/Graphics/SVG/1.1/DTD/svg11.dtd">
<svg version="1.1" xmlns="http://www.w3.org/2000/svg" xmlns:xlink="http://www.w3.org/1999/xlink" width="22.1486" height="22.1584">
 <g>
  <rect height="22.1584" opacity="0" width="22.1486" x="0" y="0"/>
  <path d="M1.09384 13.2325L8.9161 21.0548Q10.0001 22.1388 11.0743 22.1485Q12.1485 22.1583 13.2227 21.0841L21.0841 13.213Q22.1583 12.1485 22.1485 11.0694Q22.1388 9.99032 21.0548 8.90634L13.2423 1.09384Q12.1583 0.0098536 11.0841 8.79786e-05Q10.0099-0.00967765 8.93563 1.06454L1.06454 8.92587Q-0.00967765 10.0099 8.79786e-05 11.0792Q0.0098536 12.1485 1.09384 13.2325Z" fill="#ffffff"/>
  <path d="M13.4669 17.295Q13.0763 17.295 12.8907 16.9044L11.5919 14.2481Q11.5333 14.1602 11.4942 14.1017Q11.4552 14.0431 11.377 13.9454L10.1856 12.461Q9.94149 12.1388 9.74618 11.7628Q9.55087 11.3868 9.58993 10.8888L9.68759 9.53134Q9.70712 9.38485 9.58993 9.31649Q9.47274 9.24813 9.34579 9.35556L8.75985 9.87313L8.64267 11.377Q8.6036 11.9825 8.04696 11.9532Q7.78329 11.9337 7.64169 11.753Q7.50009 11.5724 7.51962 11.2892L7.63681 9.92196Q7.6661 9.63876 7.75888 9.43368Q7.85165 9.2286 8.06649 9.01376L9.01376 8.10556Q9.47274 7.65634 9.90731 7.42685Q10.3419 7.19735 10.8204 7.19735Q11.4845 7.19735 11.8507 7.62216Q12.2169 8.04696 12.1778 8.75009L12.0606 10.3907Q12.0313 10.8302 11.9386 11.1866Q11.8458 11.5431 11.6993 12.0216L11.6407 12.2169L12.3829 13.2716Q12.4513 13.3692 12.544 13.5108Q12.6368 13.6524 12.7149 13.8477L13.9356 16.3087Q13.9942 16.4356 14.0284 16.5333Q14.0626 16.6309 14.0626 16.7384Q14.0626 16.9825 13.8917 17.1388Q13.7208 17.295 13.4669 17.295ZM7.88095 17.3048Q7.64657 17.3048 7.50009 17.1485Q7.3536 16.9923 7.3536 16.7481Q7.3536 16.5919 7.42685 16.4698Q7.50009 16.3477 7.61728 16.2208L9.36532 14.1505L9.63876 12.7931L10.5958 13.9845L10.4884 14.3946Q10.4591 14.5509 10.42 14.6095Q10.3809 14.6681 10.2247 14.8536L8.33993 17.0899Q8.16415 17.3048 7.88095 17.3048ZM13.8087 10.6837Q13.545 10.6837 13.3985 10.63Q13.252 10.5763 13.1056 10.4395L12.6954 10.0294L12.7931 8.58407L13.6915 9.5704L15.2638 9.5704Q15.5567 9.5704 15.7227 9.72177Q15.8888 9.87313 15.8888 10.127Q15.8888 10.6837 15.2638 10.6837ZM11.5919 6.60165Q11.0743 6.60165 10.6983 6.22567Q10.3224 5.8497 10.3224 5.32235Q10.3224 4.79501 10.6934 4.41415Q11.0645 4.03329 11.5919 4.03329Q12.129 4.03329 12.505 4.40927Q12.8809 4.78524 12.8809 5.32235Q12.8809 5.83993 12.5001 6.22079Q12.1192 6.60165 11.5919 6.60165Z" fill="none"/>
 </g>
</svg>
