<?xml version="1.0" encoding="UTF-8"?>
<!--Generator: Apple Native CoreSVG 175.5-->
<!DOCTYPE svg
PUBLIC "-//W3C//DTD SVG 1.1//EN"
       "http://www.w3.org/Graphics/SVG/1.1/DTD/svg11.dtd">
<svg version="1.1" xmlns="http://www.w3.org/2000/svg" xmlns:xlink="http://www.w3.org/1999/xlink" width="15.3027" height="20.2441">
 <g>
  <rect height="20.2441" opacity="0" width="15.3027" x="0" y="0"/>
  <path d="M12.9199 4.24805Q13.5059 4.24805 13.9893 3.96484Q14.4727 3.68164 14.7607 3.19824Q15.0488 2.71484 15.0488 2.12891Q15.0488 1.5332 14.7607 1.0498Q14.4727 0.566406 13.9893 0.283203Q13.5059 0 12.9199 0Q12.334 0 11.8506 0.283203Q11.3672 0.566406 11.0791 1.0498Q10.791 1.5332 10.791 2.12891Q10.791 2.71484 11.0791 3.19824Q11.3672 3.68164 11.8506 3.96484Q12.334 4.24805 12.9199 4.24805ZM7.09961 20.2441Q8.59375 20.2441 9.8877 19.7021Q11.1816 19.1602 12.1484 18.1885Q13.1152 17.2168 13.6572 15.9277Q14.1992 14.6387 14.1992 13.1348Q14.1992 11.7578 13.6182 10.9082Q13.0371 10.0586 11.8066 9.63867L10.2637 9.10156Q9.83398 8.96484 10.1074 8.58398L11.1133 7.11914Q11.6992 6.2793 11.5088 5.56641Q11.3184 4.85352 10.4102 4.22852L6.69922 1.63086Q6.40625 1.43555 6.06445 1.42578Q5.72266 1.41602 5.42969 1.61133L1.99219 3.92578Q1.51367 4.24805 1.4502 4.64355Q1.38672 5.03906 1.60645 5.35645Q1.82617 5.67383 2.2168 5.76172Q2.60742 5.84961 3.03711 5.55664L5.95703 3.58398L7.96875 4.99023Q8.22266 5.17578 8.25684 5.38086Q8.29102 5.58594 8.125 5.82031L6.51367 8.16406Q6.07422 8.79883 6.12793 9.41895Q6.18164 10.0391 6.60645 10.5029Q7.03125 10.9668 7.70508 11.1426L11.9922 12.2168Q12.3438 12.2949 12.5293 12.5684Q12.7148 12.8418 12.7148 13.2324Q12.7148 14.7656 11.9678 16.0205Q11.2207 17.2754 9.95117 18.0127Q8.68164 18.75 7.10938 18.75Q5.52734 18.75 4.25293 18.0078Q2.97852 17.2656 2.23145 15.9912Q1.48438 14.7168 1.48438 13.1348Q1.48438 12.2656 1.72852 11.5088Q1.97266 10.752 2.39258 10.1074Q2.62695 9.75586 2.55859 9.45801Q2.49023 9.16016 2.23633 9.00879Q1.98242 8.85742 1.66992 8.92578Q1.35742 8.99414 1.10352 9.36523Q0.595703 10.1562 0.297852 11.1035Q0 12.0508 0 13.1348Q0 14.6289 0.541992 15.9229Q1.08398 17.2168 2.05078 18.1836Q3.01758 19.1504 4.30664 19.6973Q5.5957 20.2441 7.09961 20.2441ZM14.2285 20.2441Q14.6777 20.2441 14.9902 19.9268Q15.3027 19.6094 15.3027 19.1602Q15.3027 18.7109 14.9902 18.3984Q14.6777 18.0859 14.2285 18.0859Q13.7793 18.0859 13.4619 18.3984Q13.1445 18.7109 13.1445 19.1602Q13.1445 19.6094 13.4619 19.9268Q13.7793 20.2441 14.2285 20.2441Z" fill="#ffffff"/>
 </g>
</svg>
