<?xml version="1.0" encoding="UTF-8"?>
<!--Generator: Apple Native CoreSVG 175.5-->
<!DOCTYPE svg
PUBLIC "-//W3C//DTD SVG 1.1//EN"
       "http://www.w3.org/Graphics/SVG/1.1/DTD/svg11.dtd">
<svg version="1.1" xmlns="http://www.w3.org/2000/svg" xmlns:xlink="http://www.w3.org/1999/xlink" width="18.3057" height="23.4277">
 <g>
  <rect height="23.4277" opacity="0" width="18.3057" x="0" y="0"/>
  <path d="M6.92383 8.53516Q7.51953 8.53516 8.00293 8.24707Q8.48633 7.95898 8.77441 7.47559Q9.0625 6.99219 9.0625 6.39648Q9.0625 5.81055 8.77441 5.32715Q8.48633 4.84375 8.00293 4.55566Q7.51953 4.26758 6.92383 4.26758Q6.33789 4.26758 5.84961 4.55566Q5.36133 4.84375 5.07812 5.32715Q4.79492 5.81055 4.79492 6.39648Q4.79492 6.99219 5.07812 7.47559Q5.36133 7.95898 5.84961 8.24707Q6.33789 8.53516 6.92383 8.53516ZM1.72852 21.3672L7.59766 22.8418Q8.22266 22.998 8.58887 22.6221Q8.95508 22.2461 8.87695 21.6699L8.33008 17.9297L12.9785 17.9297L16.6113 21.6113Q16.8945 21.8945 17.3047 21.8945Q17.7148 21.8945 18.0078 21.6113Q18.3105 21.3281 18.3057 20.9082Q18.3008 20.4883 18.0078 20.1953L14.1699 16.3379Q13.9648 16.1426 13.8281 16.0645Q13.6914 15.9863 13.3594 15.9473L9.15039 15.5273L8.08594 12.3145Q8.02734 12.1484 8.13477 12.0117Q8.24219 11.875 8.42773 11.9141L16.123 13.4473Q16.4941 13.5254 16.8506 13.3301Q17.207 13.1348 17.2754 12.6855Q17.3438 12.2754 17.1289 11.9385Q16.9141 11.6016 16.5137 11.5234L5.87891 9.4043Q5.17578 9.26758 4.75586 9.12598Q4.33594 8.98438 4.02344 8.67188L1.97266 6.64062L1.97266 2.09961Q1.97266 1.68945 1.68945 1.40137Q1.40625 1.11328 0.996094 1.11328Q0.566406 1.11328 0.283203 1.40137Q0 1.68945 0 2.09961L0 6.88477Q0 7.1875 0.0585938 7.39258Q0.117188 7.59766 0.341797 7.82227L2.62695 10.0977Q2.97852 10.4492 3.08594 10.6543Q3.19336 10.8594 3.32031 11.2207L6.40625 20.498L2.20703 19.4434Q1.81641 19.3359 1.46484 19.5508Q1.11328 19.7656 1.02539 20.1758Q0.9375 20.5664 1.1377 20.918Q1.33789 21.2695 1.72852 21.3672ZM3.82812 2.44141Q4.32617 2.44141 4.6875 2.08496Q5.04883 1.72852 5.04883 1.2207Q5.04883 0.712891 4.6875 0.356445Q4.32617 0 3.82812 0Q3.31055 0 2.96387 0.356445Q2.61719 0.712891 2.61719 1.2207Q2.61719 1.72852 2.96387 2.08496Q3.31055 2.44141 3.82812 2.44141Z" fill="#ffffff"/>
 </g>
</svg>
