<?xml version="1.0" encoding="UTF-8"?>
<!--Generator: Apple Native CoreSVG 175.5-->
<!DOCTYPE svg
PUBLIC "-//W3C//DTD SVG 1.1//EN"
       "http://www.w3.org/Graphics/SVG/1.1/DTD/svg11.dtd">
<svg version="1.1" xmlns="http://www.w3.org/2000/svg" xmlns:xlink="http://www.w3.org/1999/xlink" width="15.9766" height="19.7168">
 <g>
  <rect height="19.7168" opacity="0" width="15.9766" x="0" y="0"/>
  <path d="M7.98828 19.7168Q8.10547 19.7168 8.27637 19.6729Q8.44727 19.6289 8.63281 19.5312Q10.7227 18.4375 12.1338 17.5586Q13.5449 16.6797 14.3896 15.8203Q15.2344 14.9609 15.6055 13.9697Q15.9766 12.9785 15.9766 11.6602L15.9766 4.29688Q15.9766 3.54492 15.6592 3.21289Q15.3418 2.88086 14.7266 2.62695Q14.3848 2.48047 13.7891 2.25586Q13.1934 2.03125 12.4756 1.76758Q11.7578 1.50391 11.04 1.24023Q10.3223 0.976562 9.73145 0.766602Q9.14062 0.556641 8.79883 0.439453Q8.60352 0.380859 8.39844 0.341797Q8.19336 0.302734 7.98828 0.302734Q7.7832 0.302734 7.58301 0.341797Q7.38281 0.380859 7.1875 0.439453Q6.8457 0.556641 6.25 0.766602Q5.6543 0.976562 4.93652 1.23535Q4.21875 1.49414 3.50098 1.7627Q2.7832 2.03125 2.1875 2.26074Q1.5918 2.49023 1.25 2.62695Q0.644531 2.87109 0.322266 3.20801Q0 3.54492 0 4.29688L0 11.6602Q0 12.9785 0.385742 13.9502Q0.771484 14.9219 1.62598 15.7568Q2.48047 16.5918 3.8916 17.4805Q5.30273 18.3691 7.34375 19.5312Q7.5293 19.6289 7.7002 19.6729Q7.87109 19.7168 7.98828 19.7168Z" fill="#ffffff"/>
  <path d="M8.92578 5.41016Q8.92578 5.07812 9.17969 4.99023Q9.43359 4.90234 9.67773 5.05859L12.1582 6.74805Q12.3926 6.9043 12.3926 7.14844Q12.3926 7.39258 12.1875 7.5293L9.6875 9.22852Q9.44336 9.38477 9.18457 9.28711Q8.92578 9.18945 8.92578 8.85742L8.92578 7.79297L3.99414 7.79297Q3.7207 7.79297 3.52539 7.60254Q3.33008 7.41211 3.33008 7.13867Q3.33008 6.86523 3.52539 6.66992Q3.7207 6.47461 3.99414 6.47461L8.92578 6.47461ZM3.54492 12.6758Q3.33008 12.5293 3.33496 12.2852Q3.33984 12.041 3.56445 11.8848L6.05469 10.1953Q6.28906 10.0391 6.54785 10.1318Q6.80664 10.2246 6.80664 10.5469L6.80664 11.6211L11.7383 11.6211Q12.0117 11.6211 12.2021 11.8164Q12.3926 12.0117 12.3926 12.2852Q12.3926 12.5488 12.2021 12.7441Q12.0117 12.9395 11.7383 12.9395L6.80664 12.9395L6.80664 14.0039Q6.80664 14.3359 6.54785 14.4336Q6.28906 14.5312 6.04492 14.375Z" fill="none"/>
 </g>
</svg>
