<?xml version="1.0" encoding="UTF-8"?>
<!--Generator: Apple Native CoreSVG 175-->
<!DOCTYPE svg
PUBLIC "-//W3C//DTD SVG 1.1//EN"
       "http://www.w3.org/Graphics/SVG/1.1/DTD/svg11.dtd">
<svg version="1.1" xmlns="http://www.w3.org/2000/svg" xmlns:xlink="http://www.w3.org/1999/xlink" width="16.0501" height="18.017">
 <g>
  <rect height="18.017" opacity="0" width="16.0501" x="0" y="0"/>
  <path d="M0.362549 18.017Q0.506287 18.017 0.612183 17.9146Q0.718079 17.8122 0.718079 17.6572L0.718079 11.6228Q0.980988 11.608 1.68152 11.3859Q2.38205 11.1638 3.61099 11.1638Q4.91211 11.1638 5.99632 11.4253Q7.08054 11.6869 8.09853 12.03Q9.11652 12.3732 10.1946 12.6347Q11.2727 12.8963 12.5548 12.8963Q13.2181 12.8963 13.6887 12.8391Q14.1594 12.7818 14.5102 12.6801Q14.861 12.5783 15.1758 12.4333Q15.5711 12.258 15.8106 11.9933Q16.0501 11.7287 16.0501 11.3361L16.0501 1.88797Q16.0501 1.60004 15.8872 1.45905Q15.7243 1.31805 15.4634 1.31805Q15.1372 1.31805 14.4229 1.54419Q13.7086 1.77032 12.4348 1.77032Q11.1528 1.77032 10.0747 1.50879Q8.99658 1.24725 7.97859 0.902786Q6.9606 0.558319 5.87639 0.298157Q4.79218 0.0379944 3.49808 0.0379944Q2.82776 0.0379944 2.35924 0.0952148Q1.89072 0.152435 1.53992 0.254211Q1.18912 0.355988 0.874329 0.500793Q0.48172 0.67627 0.24086 0.940933Q0 1.2056 0 1.59546L0 17.6572Q0 17.8024 0.107269 17.9097Q0.214539 18.017 0.362549 18.017ZM12.5548 12.1809Q11.2848 12.1809 10.2149 11.9194Q9.14505 11.6579 8.12569 11.3182Q7.10632 10.9785 6.01257 10.7171Q4.91882 10.4556 3.61099 10.4556Q2.92969 10.4556 2.23633 10.5484Q1.54297 10.6412 0.718079 10.8986L0.718079 1.54587Q0.843811 1.26648 1.59264 1.00983Q2.34146 0.753174 3.49808 0.753174Q4.7731 0.753174 5.85258 1.01471Q6.93207 1.27625 7.95143 1.61591Q8.97079 1.95557 10.0584 2.21359Q11.1461 2.47162 12.4348 2.47162Q13.1232 2.47162 13.8055 2.38373Q14.4879 2.29584 15.3348 2.04651L15.3348 11.3884Q15.202 11.6676 14.4532 11.9243Q13.7044 12.1809 12.5548 12.1809Z" fill="rgba(0,0,0,0.85)"/>
 </g>
</svg>
