<?xml version="1.0" encoding="UTF-8"?>
<!--Generator: Apple Native CoreSVG 175.5-->
<!DOCTYPE svg
PUBLIC "-//W3C//DTD SVG 1.1//EN"
       "http://www.w3.org/Graphics/SVG/1.1/DTD/svg11.dtd">
<svg version="1.1" xmlns="http://www.w3.org/2000/svg" xmlns:xlink="http://www.w3.org/1999/xlink" width="17.9785" height="17.998">
 <g>
  <rect height="17.998" opacity="0" width="17.9785" x="0" y="0"/>
  <path d="M3.06641 17.998L14.9121 17.998Q16.4453 17.998 17.2119 17.2412Q17.9785 16.4844 17.9785 14.9707L17.9785 3.04688Q17.9785 1.5332 17.2119 0.776367Q16.4453 0.0195312 14.9121 0.0195312L3.06641 0.0195312Q1.5332 0.0195312 0.766602 0.776367Q0 1.5332 0 3.04688L0 14.9707Q0 16.4844 0.766602 17.2412Q1.5332 17.998 3.06641 17.998Z" fill="#ffffff"/>
  <path d="M5.17578 14.4043Q4.98047 14.4043 4.83887 14.2627Q4.69727 14.1211 4.69727 13.9355L4.69727 5.48828Q4.69727 4.83398 5.32227 4.55078Q5.58594 4.42383 5.88867 4.36035Q6.19141 4.29688 6.77734 4.29688Q7.68555 4.29688 8.41797 4.52148Q9.15039 4.74609 9.86816 4.9707Q10.5859 5.19531 11.4453 5.19531Q12.0605 5.19531 12.4219 5.08789Q12.7832 4.98047 13.0078 4.98047Q13.5742 4.98047 13.5742 5.48828L13.5742 10.4492Q13.5742 11.1035 12.9492 11.3965Q12.6758 11.5234 12.373 11.5869Q12.0703 11.6504 11.4941 11.6504Q10.6152 11.6504 9.89746 11.4307Q9.17969 11.2109 8.45215 10.9912Q7.72461 10.7715 6.82617 10.7715Q6.36719 10.7715 6.06445 10.8398Q5.76172 10.9082 5.625 10.9668L5.625 13.9355Q5.625 14.1309 5.49805 14.2676Q5.37109 14.4043 5.17578 14.4043Z" fill="none"/>
 </g>
</svg>
