<?xml version="1.0" encoding="UTF-8"?>
<!--Generator: Apple Native CoreSVG 175-->
<!DOCTYPE svg
PUBLIC "-//W3C//DTD SVG 1.1//EN"
       "http://www.w3.org/Graphics/SVG/1.1/DTD/svg11.dtd">
<svg version="1.1" xmlns="http://www.w3.org/2000/svg" xmlns:xlink="http://www.w3.org/1999/xlink" width="19.1602" height="19.1504">
 <g>
  <rect height="19.1504" opacity="0" width="19.1602" x="0" y="0"/>
  <path d="M9.57031 19.1406Q11.5527 19.1406 13.2861 18.3984Q15.0195 17.6562 16.3379 16.333Q17.6562 15.0098 18.4082 13.2764Q19.1602 11.543 19.1602 9.57031Q19.1602 7.59766 18.4082 5.86426Q17.6562 4.13086 16.3379 2.80762Q15.0195 1.48438 13.2861 0.742188Q11.5527 0 9.57031 0Q7.59766 0 5.86426 0.742188Q4.13086 1.48438 2.81738 2.80762Q1.50391 4.13086 0.751953 5.86426Q0 7.59766 0 9.57031Q0 11.543 0.74707 13.2764Q1.49414 15.0098 2.8125 16.333Q4.13086 17.6562 5.86914 18.3984Q7.60742 19.1406 9.57031 19.1406ZM9.57031 18.3984Q7.74414 18.3984 6.14746 17.71Q4.55078 17.0215 3.33496 15.8105Q2.11914 14.5996 1.43555 12.998Q0.751953 11.3965 0.751953 9.57031Q0.751953 7.74414 1.43555 6.14258Q2.11914 4.54102 3.33496 3.3252Q4.55078 2.10938 6.14746 1.4209Q7.74414 0.732422 9.57031 0.732422Q11.4062 0.732422 13.0029 1.4209Q14.5996 2.10938 15.8154 3.3252Q17.0312 4.54102 17.7197 6.14258Q18.4082 7.74414 18.4082 9.57031Q18.4082 11.3965 17.7246 12.998Q17.041 14.5996 15.8252 15.8105Q14.6094 17.0215 13.0078 17.71Q11.4062 18.3984 9.57031 18.3984ZM5.76172 14.7363Q5.89844 14.7363 5.97656 14.6484Q6.05469 14.5605 6.05469 14.4629L6.05469 11.3281Q6.2207 11.2695 6.54785 11.1865Q6.875 11.1035 7.41211 11.1035Q8.29102 11.1035 9.00391 11.3281Q9.7168 11.5527 10.4346 11.7773Q11.1523 12.002 12.041 12.002Q12.5195 12.002 12.8369 11.9482Q13.1543 11.8945 13.4277 11.748Q13.9355 11.5137 13.9355 11.1133L13.9355 6.24023Q13.9355 5.86914 13.5645 5.86914Q13.3691 5.86914 12.998 5.98633Q12.627 6.10352 11.9922 6.10352Q11.1133 6.10352 10.4053 5.87891Q9.69727 5.6543 8.97949 5.4248Q8.26172 5.19531 7.36328 5.19531Q6.83594 5.19531 6.52832 5.26367Q6.2207 5.33203 5.98633 5.43945Q5.46875 5.6543 5.46875 6.08398L5.46875 14.4629Q5.46875 14.5605 5.54688 14.6484Q5.625 14.7363 5.76172 14.7363Z" fill="rgba(0,0,0,0.85)"/>
 </g>
</svg>
