<?xml version="1.0" encoding="UTF-8"?>
<!--Generator: Apple Native CoreSVG 175-->
<!DOCTYPE svg
PUBLIC "-//W3C//DTD SVG 1.1//EN"
       "http://www.w3.org/Graphics/SVG/1.1/DTD/svg11.dtd">
<svg version="1.1" xmlns="http://www.w3.org/2000/svg" xmlns:xlink="http://www.w3.org/1999/xlink" width="9.29214" height="20.6442">
 <g>
  <rect height="20.6442" opacity="0" width="9.29214" x="0" y="0"/>
  <path d="M3.32657 20.6137L5.9726 20.6137Q6.61255 20.6137 6.95496 20.2911Q7.29736 19.9684 7.29736 19.2755L7.29736 9.24179Q7.29736 8.58994 7.44576 8.04459Q7.59415 7.49924 7.84927 7.14691L8.68088 6.01257Q8.96362 5.62149 9.12788 5.13206Q9.29214 4.64264 9.29214 4.10904L9.29214 3.1395L0 3.1395L0 4.10904Q0 4.64264 0.162888 5.13206Q0.325775 5.62149 0.611267 6.01257L1.44028 7.14691Q1.70227 7.49924 1.84723 8.04459Q1.99219 8.58994 1.99219 9.24179L1.99219 19.2755Q1.99219 19.9684 2.33597 20.2911Q2.67975 20.6137 3.32657 20.6137ZM4.65317 13.0406Q4.17694 13.0406 3.89297 12.6873Q3.60901 12.334 3.60901 11.8454L3.60901 9.21875Q3.60901 8.73016 3.89297 8.42667Q4.17694 8.12317 4.65317 8.13293Q5.1152 8.1427 5.40276 8.43781Q5.69031 8.73291 5.69031 9.21875L5.69031 11.8454Q5.69031 12.334 5.40276 12.6873Q5.1152 13.0406 4.65317 13.0406ZM4.65317 12.4106Q4.90509 12.4106 5.08812 12.2254Q5.27115 12.0403 5.27115 11.7786Q5.27115 11.5196 5.08812 11.3282Q4.90509 11.1368 4.65317 11.1368Q4.39423 11.1368 4.20631 11.3282Q4.0184 11.5196 4.0184 11.7786Q4.0184 12.0403 4.20631 12.2254Q4.39423 12.4106 4.65317 12.4106ZM0 2.30621L9.29214 2.30621L9.29214 1.33835Q9.29214 0.635529 8.94844 0.317764Q8.60474 0 7.96478 0L1.32736 0Q0.687561 0 0.343781 0.317764Q0 0.635529 0 1.33835Z" fill="rgba(0,0,0,0.85)"/>
 </g>
</svg>
