<?xml version="1.0" encoding="UTF-8"?>
<!--Generator: Apple Native CoreSVG 175.5-->
<!DOCTYPE svg
PUBLIC "-//W3C//DTD SVG 1.1//EN"
       "http://www.w3.org/Graphics/SVG/1.1/DTD/svg11.dtd">
<svg version="1.1" xmlns="http://www.w3.org/2000/svg" xmlns:xlink="http://www.w3.org/1999/xlink" width="14.3359" height="17.8613">
 <g>
  <rect height="17.8613" opacity="0" width="14.3359" x="0" y="0"/>
  <path d="M2.59766 17.8516Q4.6582 17.8516 5.81055 16.7529Q6.96289 15.6543 7.31445 13.3984L8.74023 4.49219Q8.98438 3.00781 9.74609 2.32422Q10.5078 1.64062 11.8848 1.64062Q12.3926 1.64062 12.8076 1.71875Q13.2227 1.79688 13.5449 1.82617Q13.9746 1.83594 14.1699 1.60156Q14.3359 1.44531 14.3359 1.16211Q14.3359 0.839844 14.126 0.615234Q13.916 0.390625 13.5547 0.263672Q13.2422 0.146484 12.7734 0.0732422Q12.3047 0 11.7676 0Q9.70703 0 8.50586 1.09863Q7.30469 2.19727 6.95312 4.36523L5.53711 13.1934Q5.2832 14.7754 4.56055 15.4834Q3.83789 16.1914 2.44141 16.1914Q2.17773 16.1914 1.94336 16.1572Q1.70898 16.123 1.57227 16.0938Q1.36719 16.0547 1.17188 16.0205Q0.976562 15.9863 0.78125 15.9863Q0.410156 15.9863 0.205078 16.1914Q0 16.3965 0 16.6992Q0 17.0215 0.19043 17.2461Q0.380859 17.4707 0.751953 17.5977Q1.10352 17.7246 1.55762 17.7881Q2.01172 17.8516 2.59766 17.8516ZM2.33398 9.17969L12.3145 9.17969Q12.6562 9.17969 12.8516 8.99414Q13.0469 8.80859 13.0469 8.48633Q13.0469 8.1543 12.8516 7.9541Q12.6562 7.75391 12.3145 7.75391L2.33398 7.75391Q1.99219 7.75391 1.79199 7.9541Q1.5918 8.1543 1.5918 8.48633Q1.5918 8.80859 1.79199 8.99414Q1.99219 9.17969 2.33398 9.17969Z" fill="#ffffff"/>
 </g>
</svg>
