<?xml version="1.0" encoding="UTF-8"?>
<!--Generator: Apple Native CoreSVG 175-->
<!DOCTYPE svg
PUBLIC "-//W3C//DTD SVG 1.1//EN"
       "http://www.w3.org/Graphics/SVG/1.1/DTD/svg11.dtd">
<svg version="1.1" xmlns="http://www.w3.org/2000/svg" xmlns:xlink="http://www.w3.org/1999/xlink" width="19.1602" height="19.1504">
 <g>
  <rect height="19.1504" opacity="0" width="19.1602" x="0" y="0"/>
  <path d="M9.57031 19.1406Q11.5527 19.1406 13.2861 18.3984Q15.0195 17.6562 16.3379 16.333Q17.6562 15.0098 18.4082 13.2764Q19.1602 11.543 19.1602 9.57031Q19.1602 7.59766 18.4082 5.86426Q17.6562 4.13086 16.3379 2.80762Q15.0195 1.48438 13.2861 0.742188Q11.5527 0 9.57031 0Q7.59766 0 5.86426 0.742188Q4.13086 1.48438 2.81738 2.80762Q1.50391 4.13086 0.751953 5.86426Q0 7.59766 0 9.57031Q0 11.543 0.74707 13.2764Q1.49414 15.0098 2.8125 16.333Q4.13086 17.6562 5.86914 18.3984Q7.60742 19.1406 9.57031 19.1406ZM16.7285 9.58984Q16.7285 9.74609 16.6455 9.86816Q16.5625 9.99023 16.416 10.0684L11.2793 13.0957Q11.0938 13.2324 10.8496 13.2324Q10.6445 13.2324 10.4834 13.0811Q10.3223 12.9297 10.3223 12.5977L10.3223 9.78516Q10.293 9.87305 10.2246 9.94629Q10.1562 10.0195 10.0586 10.0684L4.92188 13.0957Q4.7168 13.2324 4.49219 13.2324Q4.29688 13.2324 4.12598 13.0811Q3.95508 12.9297 3.95508 12.5977L3.95508 6.5918Q3.95508 6.25977 4.12598 6.1084Q4.29688 5.95703 4.49219 5.95703Q4.7168 5.95703 4.92188 6.09375L10.0586 9.12109Q10.1562 9.17969 10.2246 9.24805Q10.293 9.31641 10.3223 9.41406L10.3223 6.5918Q10.3223 6.25977 10.4834 6.1084Q10.6445 5.95703 10.8496 5.95703Q11.0938 5.95703 11.2793 6.09375L16.416 9.12109Q16.5625 9.19922 16.6455 9.32129Q16.7285 9.44336 16.7285 9.58984Z" fill="rgba(0,0,0,0.85)"/>
 </g>
</svg>
