<?xml version="1.0" encoding="UTF-8"?>
<!--Generator: Apple Native CoreSVG 175.5-->
<!DOCTYPE svg
PUBLIC "-//W3C//DTD SVG 1.1//EN"
       "http://www.w3.org/Graphics/SVG/1.1/DTD/svg11.dtd">
<svg version="1.1" xmlns="http://www.w3.org/2000/svg" xmlns:xlink="http://www.w3.org/1999/xlink" width="19.9219" height="19.9316">
 <g>
  <rect height="19.9316" opacity="0" width="19.9219" x="0" y="0"/>
  <path d="M9.96094 19.9219Q12.002 19.9219 13.8037 19.1406Q15.6055 18.3594 16.9824 16.9824Q18.3594 15.6055 19.1406 13.8037Q19.9219 12.002 19.9219 9.96094Q19.9219 7.91992 19.1406 6.11816Q18.3594 4.31641 16.9824 2.93945Q15.6055 1.5625 13.7988 0.78125Q11.9922 0 9.95117 0Q7.91016 0 6.1084 0.78125Q4.30664 1.5625 2.93457 2.93945Q1.5625 4.31641 0.78125 6.11816Q0 7.91992 0 9.96094Q0 12.002 0.78125 13.8037Q1.5625 15.6055 2.93945 16.9824Q4.31641 18.3594 6.11816 19.1406Q7.91992 19.9219 9.96094 19.9219Z" fill="#ffffff"/>
  <path d="M8.19336 15.0098Q7.90039 15.0098 7.71484 14.834Q7.5293 14.6582 7.5293 14.3652L7.5293 13.3008L6.71875 13.3008Q6.49414 13.3008 6.36719 13.1543Q6.24023 13.0078 6.24023 12.793Q6.24023 12.2949 6.71875 12.2949L7.5293 12.2949L7.5293 6.06445Q7.5293 5.76172 7.70508 5.57617Q7.88086 5.39062 8.18359 5.39062L12.5781 5.39062Q12.8418 5.39062 13.0176 5.55664Q13.1934 5.72266 13.1934 6.00586Q13.1934 6.2793 13.0176 6.44531Q12.8418 6.61133 12.5781 6.61133L8.84766 6.61133L8.84766 9.45312L12.207 9.45312Q12.4707 9.45312 12.6514 9.61426Q12.832 9.77539 12.832 10.0586Q12.832 10.332 12.6514 10.498Q12.4707 10.6641 12.207 10.6641L8.84766 10.6641L8.84766 12.2949L10.918 12.2949Q11.1426 12.2949 11.2793 12.4365Q11.416 12.5781 11.416 12.793Q11.416 13.0078 11.2793 13.1543Q11.1426 13.3008 10.918 13.3008L8.84766 13.3008L8.84766 14.3555Q8.84766 14.6484 8.66699 14.8291Q8.48633 15.0098 8.19336 15.0098Z" fill="none"/>
 </g>
</svg>
