<?xml version="1.0" encoding="UTF-8"?>
<!--Generator: Apple Native CoreSVG 175.5-->
<!DOCTYPE svg
PUBLIC "-//W3C//DTD SVG 1.1//EN"
       "http://www.w3.org/Graphics/SVG/1.1/DTD/svg11.dtd">
<svg version="1.1" xmlns="http://www.w3.org/2000/svg" xmlns:xlink="http://www.w3.org/1999/xlink" width="26.0645" height="14.4434">
 <g>
  <rect height="14.4434" opacity="0" width="26.0645" x="0" y="0"/>
  <path d="M1.31836 14.4238Q2.75391 14.4238 3.49121 13.7402Q4.22852 13.0566 4.58008 11.4062L5.69336 6.06445L7.46094 6.06445Q7.89062 6.06445 8.13965 5.84961Q8.38867 5.63477 8.38867 5.27344Q8.38867 4.95117 8.19824 4.77051Q8.00781 4.58984 7.66602 4.58984L6.00586 4.58984L6.2793 3.26172Q6.47461 2.33398 6.83594 1.92383Q7.19727 1.51367 8.00781 1.51367Q8.13477 1.51367 8.24219 1.50879Q8.34961 1.50391 8.4375 1.49414Q9.14062 1.42578 9.14062 0.800781Q9.14062 0.390625 8.79395 0.200195Q8.44727 0.00976562 7.74414 0.00976562Q6.34766 0.00976562 5.58105 0.737305Q4.81445 1.46484 4.48242 3.02734L4.16016 4.58984L2.94922 4.58984Q2.51953 4.58984 2.26562 4.7998Q2.01172 5.00977 2.01172 5.38086Q2.01172 5.69336 2.20703 5.87891Q2.40234 6.06445 2.74414 6.06445L3.84766 6.06445L2.77344 11.1719Q2.56836 12.1289 2.20215 12.5244Q1.83594 12.9199 1.05469 12.9199Q0.947266 12.9199 0.854492 12.9248Q0.761719 12.9297 0.693359 12.9395Q0.351562 12.9785 0.175781 13.1641Q0 13.3496 0 13.6523Q0 14.043 0.332031 14.2334Q0.664062 14.4238 1.31836 14.4238ZM12.9883 14.4434Q13.2422 14.4434 13.3984 14.3115Q13.5547 14.1797 13.5547 13.9258Q13.5547 13.8184 13.5254 13.7354Q13.4961 13.6523 13.418 13.4961Q12.5195 12.1094 12.0312 10.5322Q11.543 8.95508 11.543 7.23633Q11.543 5.57617 12.0166 3.95508Q12.4902 2.33398 13.418 0.947266Q13.4961 0.800781 13.5254 0.712891Q13.5547 0.625 13.5547 0.517578Q13.5547 0.283203 13.3984 0.141602Q13.2422 0 12.9883 0Q12.7539 0 12.5439 0.126953Q12.334 0.253906 12.0996 0.576172Q10.9961 1.97266 10.4443 3.67676Q9.89258 5.38086 9.89258 7.22656Q9.89258 9.07227 10.4346 10.752Q10.9766 12.4316 12.0996 13.8672Q12.334 14.1895 12.5439 14.3164Q12.7539 14.4434 12.9883 14.4434ZM15.0391 11.8555Q15.2734 11.8555 15.4541 11.7578Q15.6348 11.6602 15.8203 11.3965L17.959 8.34961L17.998 8.34961L20.1855 11.4453Q20.3711 11.6992 20.5469 11.7773Q20.7227 11.8555 20.8984 11.8555Q21.25 11.8555 21.46 11.6406Q21.6699 11.4258 21.6699 11.123Q21.6699 10.9766 21.6309 10.8496Q21.5918 10.7227 21.4941 10.5957L18.9941 7.19727L21.4941 3.84766Q21.6797 3.59375 21.6797 3.30078Q21.6797 2.98828 21.4551 2.78809Q21.2305 2.58789 20.9277 2.58789Q20.6641 2.58789 20.498 2.70996Q20.332 2.83203 20.1953 3.04688L18.1348 6.06445L18.0859 6.06445L16.0156 3.03711Q15.8691 2.82227 15.6885 2.70508Q15.5078 2.58789 15.2246 2.58789Q14.8828 2.58789 14.6533 2.81738Q14.4238 3.04688 14.4238 3.33984Q14.4238 3.55469 14.4824 3.69629Q14.541 3.83789 14.6387 3.96484L17.0215 7.14844L14.4922 10.6348Q14.3945 10.7715 14.3604 10.9033Q14.3262 11.0352 14.3262 11.1816Q14.3262 11.4648 14.5361 11.6602Q14.7461 11.8555 15.0391 11.8555ZM22.9688 14.4434Q23.2031 14.4434 23.4131 14.3164Q23.623 14.1895 23.8574 13.8672Q24.9805 12.4316 25.5225 10.752Q26.0645 9.07227 26.0645 7.22656Q26.0645 5.38086 25.5127 3.67676Q24.9609 1.97266 23.8574 0.576172Q23.623 0.253906 23.4131 0.126953Q23.2031 0 22.9688 0Q22.7148 0 22.5586 0.141602Q22.4023 0.283203 22.4023 0.517578Q22.4023 0.625 22.4316 0.712891Q22.4609 0.800781 22.5391 0.947266Q23.4668 2.33398 23.9404 3.95508Q24.4141 5.57617 24.4141 7.23633Q24.4141 8.95508 23.9258 10.5322Q23.4375 12.1094 22.5391 13.4961Q22.4609 13.6523 22.4316 13.7354Q22.4023 13.8184 22.4023 13.9258Q22.4023 14.1602 22.5586 14.3018Q22.7148 14.4434 22.9688 14.4434Z" fill="#ffffff"/>
 </g>
</svg>
