<?xml version="1.0" encoding="UTF-8"?>
<!--Generator: Apple Native CoreSVG 175.5-->
<!DOCTYPE svg
PUBLIC "-//W3C//DTD SVG 1.1//EN"
       "http://www.w3.org/Graphics/SVG/1.1/DTD/svg11.dtd">
<svg version="1.1" xmlns="http://www.w3.org/2000/svg" xmlns:xlink="http://www.w3.org/1999/xlink" width="19.9219" height="19.9316">
 <g>
  <rect height="19.9316" opacity="0" width="19.9219" x="0" y="0"/>
  <path d="M9.96094 19.9316Q12.002 19.9316 13.8037 19.1504Q15.6055 18.3691 16.9824 16.9922Q18.3594 15.6152 19.1406 13.8135Q19.9219 12.0117 19.9219 9.9707Q19.9219 7.92969 19.1406 6.12793Q18.3594 4.32617 16.9824 2.94922Q15.6055 1.57227 13.7988 0.791016Q11.9922 0.00976562 9.95117 0.00976562Q7.91016 0.00976562 6.1084 0.791016Q4.30664 1.57227 2.93457 2.94922Q1.5625 4.32617 0.78125 6.12793Q0 7.92969 0 9.9707Q0 12.0117 0.78125 13.8135Q1.5625 15.6152 2.93945 16.9922Q4.31641 18.3691 6.11816 19.1504Q7.91992 19.9316 9.96094 19.9316Z" fill="#ffffff"/>
  <path d="M9.96094 15.625Q9.87305 15.625 9.77539 15.6201Q9.67773 15.6152 9.58984 15.6152L9.29688 16.1328Q9.16016 16.4453 8.81836 16.3867Q8.68164 16.3672 8.57422 16.2598Q8.4668 16.1523 8.44727 15.9961L8.36914 15.3906Q8.19336 15.3418 8.02246 15.2783Q7.85156 15.2148 7.67578 15.1465L7.23633 15.5371Q7.00195 15.7715 6.69922 15.6152Q6.41602 15.4492 6.47461 15.1172L6.60156 14.5117Q6.43555 14.3945 6.29395 14.2773Q6.15234 14.1602 6.04492 14.0625L5.48828 14.2773Q5.17578 14.4141 4.95117 14.1406Q4.85352 14.043 4.84375 13.8965Q4.83398 13.75 4.90234 13.6133L5.23438 13.0957Q5.13672 12.9395 5.04883 12.7832Q4.96094 12.627 4.88281 12.4609L4.25781 12.4902Q3.92578 12.5 3.82812 12.1875Q3.7207 11.8848 3.97461 11.6797L4.45312 11.2988Q4.4043 11.1035 4.375 10.9229Q4.3457 10.7422 4.32617 10.5664L3.75 10.3809Q3.4375 10.2734 3.4375 9.95117Q3.4375 9.63867 3.75 9.52148L4.32617 9.3457Q4.3457 9.16992 4.375 8.99414Q4.4043 8.81836 4.45312 8.62305L3.97461 8.24219Q3.7207 8.00781 3.82812 7.73438Q3.92578 7.40234 4.26758 7.43164L4.88281 7.45117Q4.96094 7.30469 5.04883 7.13867Q5.13672 6.97266 5.23438 6.81641L4.91211 6.28906Q4.73633 5.99609 4.96094 5.77148Q5.17578 5.51758 5.47852 5.625L6.04492 5.84961Q6.16211 5.74219 6.30371 5.625Q6.44531 5.50781 6.60156 5.40039L6.47461 4.80469Q6.42578 4.46289 6.69922 4.30664Q6.98242 4.13086 7.23633 4.38477L7.67578 4.76562Q7.85156 4.69727 8.01758 4.63379Q8.18359 4.57031 8.36914 4.52148L8.44727 3.90625Q8.50586 3.58398 8.81836 3.53516Q9.16016 3.47656 9.29688 3.75977L9.58984 4.30664Q9.67773 4.30664 9.77539 4.30176Q9.87305 4.29688 9.96094 4.29688Q10.0586 4.29688 10.1465 4.30176Q10.2344 4.30664 10.332 4.30664L10.6152 3.75977Q10.6738 3.64258 10.8105 3.57422Q10.9473 3.50586 11.1035 3.53516Q11.4062 3.58398 11.4648 3.90625L11.543 4.52148Q11.7285 4.57031 11.8994 4.63379Q12.0703 4.69727 12.2363 4.76562L12.6758 4.38477Q12.9199 4.13086 13.2227 4.30664Q13.4863 4.45312 13.4375 4.80469L13.3008 5.40039Q13.457 5.50781 13.6035 5.625Q13.75 5.74219 13.8672 5.84961L14.4434 5.625Q14.7266 5.51758 14.9609 5.77148Q15.166 6.01562 15 6.28906L14.6777 6.81641Q14.7656 6.95312 14.8535 7.10938Q14.9414 7.26562 15.0293 7.45117L15.6445 7.43164Q15.9863 7.40234 16.0938 7.73438Q16.1914 8.02734 15.9375 8.24219L15.4492 8.62305Q15.498 8.79883 15.5322 8.97461Q15.5664 9.15039 15.5957 9.3457L16.1621 9.52148Q16.4844 9.63867 16.4844 9.95117Q16.4844 10.2734 16.1621 10.3809L15.5957 10.5664Q15.5664 10.7617 15.5322 10.9424Q15.498 11.123 15.4492 11.2988L15.9375 11.6797Q16.2012 11.8848 16.084 12.1875Q15.9961 12.5 15.6543 12.4902L15.0293 12.4609Q14.9512 12.627 14.8633 12.7832Q14.7754 12.9395 14.6777 13.0957L15 13.6133Q15.1758 13.9062 14.9707 14.1406Q14.7363 14.4141 14.4336 14.2773L13.8672 14.0625Q13.7598 14.1602 13.6182 14.2773Q13.4766 14.3945 13.3008 14.5117L13.4375 15.1172Q13.4863 15.459 13.2227 15.6152Q12.9102 15.7617 12.6758 15.5371L12.2461 15.1465Q12.0703 15.2148 11.8945 15.2783Q11.7188 15.3418 11.543 15.3906L11.4648 16.0059Q11.4355 16.1621 11.3379 16.2646Q11.2402 16.3672 11.1035 16.3867Q10.752 16.4453 10.6152 16.1328L10.332 15.6152Q10.2344 15.6152 10.1416 15.6201Q10.0488 15.625 9.96094 15.625ZM5.47852 9.96094Q5.47852 11.0742 5.94238 12.0068Q6.40625 12.9395 7.19727 13.5547L8.75977 11.0156Q8.33984 10.5469 8.33984 9.98047Q8.33984 9.39453 8.75 8.93555L7.23633 6.32812Q6.42578 6.95312 5.95215 7.89551Q5.47852 8.83789 5.47852 9.96094ZM9.96094 5.41992Q9.46289 5.41992 8.99414 5.52246Q8.52539 5.625 8.0957 5.81055L9.61914 8.39844Q9.7168 8.36914 9.7998 8.36426Q9.88281 8.35938 9.94141 8.35938Q10.459 8.35938 10.8594 8.64746Q11.2598 8.93555 11.4746 9.46289L14.4141 9.46289Q14.2969 8.30078 13.6816 7.3877Q13.0664 6.47461 12.0996 5.94727Q11.1328 5.41992 9.96094 5.41992ZM9.96094 14.502Q11.1328 14.502 12.0996 13.9697Q13.0664 13.4375 13.6816 12.5244Q14.2969 11.6113 14.4141 10.4688L11.4844 10.4688Q11.2598 11.0059 10.8594 11.2988Q10.459 11.5918 9.94141 11.5918Q9.88281 11.5918 9.7998 11.5869Q9.7168 11.582 9.61914 11.5527L8.06641 14.1016Q8.96484 14.502 9.96094 14.502ZM9.38477 9.9707Q9.38477 10.2051 9.55566 10.3711Q9.72656 10.5371 9.95117 10.5371Q10.1953 10.5371 10.3662 10.3711Q10.5371 10.2051 10.5371 9.9707Q10.5371 9.74609 10.3662 9.58496Q10.1953 9.42383 9.95117 9.42383Q9.72656 9.42383 9.55566 9.58984Q9.38477 9.75586 9.38477 9.9707Z" fill="none"/>
 </g>
</svg>
