<?xml version="1.0" encoding="UTF-8"?>
<!--Generator: Apple Native CoreSVG 175-->
<!DOCTYPE svg
PUBLIC "-//W3C//DTD SVG 1.1//EN"
       "http://www.w3.org/Graphics/SVG/1.1/DTD/svg11.dtd">
<svg version="1.1" xmlns="http://www.w3.org/2000/svg" xmlns:xlink="http://www.w3.org/1999/xlink" width="20.125" height="20.1239">
 <g>
  <rect height="20.1239" opacity="0" width="20.125" x="0" y="0"/>
  <path d="M9.07623 20.1239L11.0489 20.1239Q11.5027 20.1239 11.799 19.8804Q12.0953 19.6368 12.2012 19.1672L12.6562 17.2215L13.3203 16.9734L15.0246 18.0414Q15.416 18.302 15.8 18.2583Q16.1841 18.2146 16.5071 17.8914L17.8883 16.5199Q18.2114 16.1969 18.2551 15.8094Q18.2988 15.4219 18.0453 15.0235L16.9649 13.329L17.2227 12.6633L19.1684 12.2055Q19.6352 12.0996 19.8801 11.802Q20.125 11.5044 20.125 11.0532L20.125 9.09149Q20.125 8.64029 19.8801 8.34259Q19.6352 8.04489 19.1684 7.93915L17.2211 7.47849L16.9676 6.8074L18.0481 5.11292Q18.3015 4.71451 18.2578 4.32838Q18.2141 3.94226 17.8911 3.6235L16.5099 2.24228Q16.1894 1.92184 15.8054 1.88164Q15.4214 1.84143 15.0301 2.09229L13.3258 3.16727L12.6562 2.91367L12.2012 0.960999Q12.0953 0.494232 11.799 0.249252Q11.5027 0.00427246 11.0489 0.00427246L9.07623 0.00427246Q8.6293 0.00427246 8.32947 0.249252Q8.02963 0.494232 7.92389 0.960999L7.47299 2.91367L6.7894 3.16727L5.08789 2.09229Q4.69376 1.84143 4.31114 1.88164Q3.92853 1.92184 3.6055 2.24228L2.22702 3.6235Q1.89407 3.94226 1.85524 4.32838Q1.81641 4.71451 2.06985 5.11292L3.14056 6.8074L2.88986 7.47849L0.956726 7.93915Q0.487061 8.04489 0.24353 8.34259Q0 8.64029 0 9.09149L0 11.0532Q0 11.5044 0.244904 11.802Q0.489807 12.0996 0.956726 12.2055L2.89536 12.6633L3.14331 13.329L2.0726 15.0235Q1.81915 15.4219 1.85799 15.8094Q1.89682 16.1969 2.22977 16.5199L3.60825 17.8914Q3.93127 18.2146 4.31526 18.2583Q4.69925 18.302 5.09338 18.0414L6.79489 16.9734L7.47299 17.2215L7.92389 19.1672Q8.02963 19.6368 8.32947 19.8804Q8.6293 20.1239 9.07623 20.1239ZM9.16916 19.409Q8.7001 19.409 8.59772 18.9523L8.0751 16.6289Q7.73132 16.5356 7.39983 16.4069Q7.06833 16.2781 6.78406 16.1531L4.78165 17.4126Q4.39499 17.673 4.04068 17.3215L2.78992 16.0777Q2.45789 15.7414 2.71561 15.3368L3.97507 13.3328Q3.85818 13.0556 3.72459 12.7254Q3.591 12.3953 3.49503 12.0586L1.17859 11.5317Q0.714874 11.4293 0.714874 10.9602L0.714874 9.18167Q0.714874 8.71521 1.17859 8.61023L3.49228 8.08044Q3.59528 7.7356 3.72948 7.4028Q3.86368 7.07001 3.96957 6.81061L2.71286 4.79965Q2.45941 4.39499 2.78442 4.06021L4.03793 2.81494Q4.3895 2.46887 4.78165 2.73087L6.77856 3.98209Q7.06284 3.85559 7.39983 3.72902Q7.73682 3.60245 8.07068 3.4993L8.59772 1.18286Q8.7001 0.719147 9.16916 0.719147L10.9558 0.719147Q11.432 0.719147 11.5247 1.18286L12.057 3.50479Q12.4106 3.60077 12.7322 3.72948Q13.0539 3.85818 13.327 3.98483L15.3336 2.73087Q15.7285 2.46887 16.08 2.81494L17.3238 4.06021Q17.6585 4.39499 17.4023 4.79965L16.1456 6.81061Q16.2683 7.07001 16.4011 7.39929Q16.534 7.72858 16.6301 8.08044L18.9536 8.61023Q19.4101 8.71521 19.4101 9.18167L19.4101 10.9602Q19.4101 11.4293 18.9536 11.5317L16.6273 12.0586Q16.5312 12.4023 16.4025 12.729Q16.2738 13.0556 16.1403 13.3328L17.3996 15.3368Q17.653 15.7414 17.3254 16.0777L16.0774 17.3215Q15.7231 17.673 15.3336 17.4126L13.3243 16.1531Q13.0539 16.2781 12.7309 16.4069Q12.4078 16.5356 12.057 16.6289L11.5247 18.9523Q11.432 19.409 10.9558 19.409ZM10.0696 13.8016Q11.095 13.8016 11.9432 13.2951Q12.7914 12.7887 13.3014 11.9356Q13.8113 11.0825 13.8113 10.0571Q13.8113 9.04144 13.3014 8.19321Q12.7914 7.34497 11.9432 6.83853Q11.095 6.33209 10.0696 6.33209Q9.05121 6.33209 8.19946 6.83853Q7.34772 7.34497 6.8364 8.19321Q6.32507 9.04144 6.32507 10.0571Q6.32507 11.0825 6.83289 11.9342Q7.3407 12.7859 8.19244 13.2938Q9.04419 13.8016 10.0696 13.8016ZM10.0696 13.0894Q9.24606 13.0894 8.55682 12.6756Q7.86758 12.2617 7.45377 11.5724Q7.03995 10.8832 7.03995 10.0571Q7.03995 9.24072 7.45728 8.55637Q7.8746 7.87201 8.56384 7.45811Q9.25308 7.04422 10.0696 7.04422Q10.8902 7.04422 11.5781 7.45811Q12.2661 7.87201 12.6799 8.55637Q13.0937 9.24072 13.0937 10.0571Q13.0937 10.8804 12.6799 11.5697Q12.2661 12.2591 11.5781 12.6743Q10.8902 13.0894 10.0696 13.0894Z" fill="rgba(0,0,0,0.85)"/>
 </g>
</svg>
