<?xml version="1.0" encoding="UTF-8"?>
<!--Generator: Apple Native CoreSVG 175-->
<!DOCTYPE svg
PUBLIC "-//W3C//DTD SVG 1.1//EN"
       "http://www.w3.org/Graphics/SVG/1.1/DTD/svg11.dtd">
<svg version="1.1" xmlns="http://www.w3.org/2000/svg" xmlns:xlink="http://www.w3.org/1999/xlink" width="18.1465" height="19.491">
 <g>
  <rect height="19.491" opacity="0" width="18.1465" x="0" y="0"/>
  <path d="M3.84995 19.2804L14.2966 19.2804Q15.35 19.2804 15.9502 18.6871Q16.5504 18.0937 16.5504 17.0305L16.5504 10.0008L16.8297 10.0008Q17.4461 9.9765 17.7963 9.57336Q18.1465 9.17023 18.1465 8.53363L18.1465 6.40106Q18.1465 5.73044 17.7664 5.32616Q17.3863 4.92188 16.72 4.92188L13.6505 4.92188Q14.1957 4.54803 14.502 3.96927Q14.8082 3.3905 14.8082 2.65854Q14.8082 1.866 14.4455 1.26717Q14.0828 0.668335 13.4498 0.334167Q12.8168 0 11.9821 0Q10.9215 0 10.1524 0.593338Q9.38324 1.18668 9.0683 2.21512Q8.75351 1.18668 7.98927 0.593338Q7.22504 0 6.15463 0Q5.327 0 4.69048 0.334167Q4.05396 0.668335 3.69476 1.26717Q3.33557 1.866 3.33557 2.65854Q3.33557 3.3905 3.64319 3.96927Q3.95081 4.54803 4.496 4.92188L1.42654 4.92188Q0.764008 4.92188 0.382004 5.32616Q0 5.73044 0 6.40106L0 8.53363Q0 9.17023 0.348816 9.57336Q0.697632 9.9765 1.31409 10.0008L1.59332 10.0008L1.59332 17.0305Q1.59332 18.0937 2.19002 18.6871Q2.78671 19.2804 3.84995 19.2804ZM8.39615 18.596L3.86566 18.596Q3.11951 18.596 2.71721 18.1973Q2.31491 17.7985 2.31491 17.0453L2.31491 10.02L8.39615 10.02ZM9.74762 18.596L9.74762 10.02L15.8218 10.02L15.8218 17.0453Q15.8218 17.7985 15.4244 18.1973Q15.027 18.596 14.2781 18.596ZM8.39615 9.31168L1.51062 9.31168Q1.12549 9.31168 0.927048 9.09081Q0.728607 8.86993 0.728607 8.49182L0.728607 6.4473Q0.728607 6.06201 0.927048 5.84251Q1.12549 5.62302 1.51062 5.62302L8.39615 5.62302ZM9.74762 9.31168L9.74762 5.62302L16.6386 5.62302Q17.014 5.62302 17.216 5.84251Q17.4179 6.06201 17.4179 6.4473L17.4179 8.49182Q17.4179 8.86993 17.216 9.09081Q17.014 9.31168 16.6386 9.31168ZM8.47153 4.92188L7.34177 4.92188Q6.0347 4.92188 5.25093 4.29214Q4.46716 3.66241 4.46716 2.66205Q4.46716 1.94992 4.94179 1.53023Q5.41641 1.11053 6.17508 1.11053Q7.19452 1.11053 7.83302 1.86424Q8.47153 2.61795 8.47153 3.8707ZM9.67224 4.92188L9.67224 3.8707Q9.67224 2.61795 10.3086 1.86424Q10.945 1.11053 11.9617 1.11053Q12.7231 1.11053 13.1998 1.53023Q13.6766 1.94992 13.6766 2.66205Q13.6766 3.66241 12.8928 4.29214Q12.1091 4.92188 10.802 4.92188Z" fill="#ffffff"/>
 </g>
</svg>
