<?xml version="1.0" encoding="UTF-8"?>
<!--Generator: Apple Native CoreSVG 175-->
<!DOCTYPE svg
PUBLIC "-//W3C//DTD SVG 1.1//EN"
       "http://www.w3.org/Graphics/SVG/1.1/DTD/svg11.dtd">
<svg version="1.1" xmlns="http://www.w3.org/2000/svg" xmlns:xlink="http://www.w3.org/1999/xlink" width="19.1602" height="19.1504">
 <g>
  <rect height="19.1504" opacity="0" width="19.1602" x="0" y="0"/>
  <path d="M9.57031 19.1504Q11.5527 19.1504 13.2861 18.4082Q15.0195 17.666 16.3379 16.3428Q17.6562 15.0195 18.4082 13.2861Q19.1602 11.5527 19.1602 9.58008Q19.1602 7.60742 18.4082 5.87402Q17.6562 4.14062 16.3379 2.81738Q15.0195 1.49414 13.2861 0.751953Q11.5527 0.00976562 9.57031 0.00976562Q7.59766 0.00976562 5.86426 0.751953Q4.13086 1.49414 2.81738 2.81738Q1.50391 4.14062 0.751953 5.87402Q0 7.60742 0 9.58008Q0 11.5527 0.74707 13.2861Q1.49414 15.0195 2.8125 16.3428Q4.13086 17.666 5.86914 18.4082Q7.60742 19.1504 9.57031 19.1504ZM5.58594 13.3398L5.58594 9.88281L9.24805 9.88281L9.24805 14.4824L6.74805 14.4824Q6.21094 14.4824 5.89844 14.1846Q5.58594 13.8867 5.58594 13.3398ZM9.89258 14.4824L9.89258 9.88281L13.5547 9.88281L13.5547 13.3398Q13.5547 13.8867 13.2422 14.1846Q12.9297 14.4824 12.3926 14.4824ZM4.74609 8.70117L4.74609 7.59766Q4.74609 7.25586 4.94141 7.05078Q5.13672 6.8457 5.46875 6.8457L7.14844 6.8457Q6.5332 6.42578 6.5332 5.6543Q6.5332 5.01953 6.94336 4.62891Q7.35352 4.23828 8.00781 4.23828Q8.58398 4.23828 8.99414 4.55078Q9.4043 4.86328 9.57031 5.41992Q9.73633 4.86328 10.1465 4.55078Q10.5566 4.23828 11.1328 4.23828Q11.7871 4.23828 12.1973 4.62891Q12.6074 5.01953 12.6074 5.6543Q12.6074 6.42578 11.9922 6.8457L13.6621 6.8457Q14.0137 6.8457 14.2041 7.05078Q14.3945 7.25586 14.3945 7.59766L14.3945 8.70117Q14.3945 9.04297 14.2041 9.24316Q14.0137 9.44336 13.6621 9.44336L9.89258 9.44336L9.89258 6.8457L10.4883 6.8457Q11.1816 6.8457 11.5967 6.51855Q12.0117 6.19141 12.0117 5.64453Q12.0117 5.27344 11.7627 5.04883Q11.5137 4.82422 11.1133 4.82422Q10.5664 4.82422 10.2295 5.22461Q9.89258 5.625 9.89258 6.28906L9.89258 6.8457L9.24805 6.8457L9.24805 6.28906Q9.24805 5.625 8.91113 5.22461Q8.57422 4.82422 8.02734 4.82422Q7.61719 4.82422 7.37305 5.04883Q7.12891 5.27344 7.12891 5.64453Q7.12891 6.19141 7.54395 6.51855Q7.95898 6.8457 8.65234 6.8457L9.24805 6.8457L9.24805 9.44336L5.46875 9.44336Q5.12695 9.44336 4.93652 9.24316Q4.74609 9.04297 4.74609 8.70117Z" fill="rgba(0,0,0,0.85)"/>
 </g>
</svg>
