<?xml version="1.0" encoding="UTF-8"?>
<!--Generator: Apple Native CoreSVG 175.5-->
<!DOCTYPE svg
PUBLIC "-//W3C//DTD SVG 1.1//EN"
       "http://www.w3.org/Graphics/SVG/1.1/DTD/svg11.dtd">
<svg version="1.1" xmlns="http://www.w3.org/2000/svg" xmlns:xlink="http://www.w3.org/1999/xlink" width="19.9219" height="19.9316">
 <g>
  <rect height="19.9316" opacity="0" width="19.9219" x="0" y="0"/>
  <path d="M2.24609 14.2676L3.33984 12.1777Q3.54492 11.7871 3.76465 11.5576Q3.98438 11.3281 4.21875 11.3281Q4.44336 11.3281 4.70215 11.5576Q4.96094 11.7871 5.3125 12.2461Q5.98633 13.1152 6.48438 13.5596Q6.98242 14.0039 7.45117 14.0039Q7.75391 14.0039 8.05664 13.7646Q8.35938 13.5254 8.55957 13.1885Q8.75977 12.8516 8.75977 12.5586Q8.75977 12.3438 8.61328 12.1436Q8.4668 11.9434 8.32031 11.7822Q8.17383 11.6211 8.17383 11.5137Q8.17383 11.3574 8.42773 11.3574Q9.14062 11.3574 9.74609 11.0254Q10.3516 10.6934 10.7227 10.2002Q11.0938 9.70703 11.0938 9.23828Q11.0938 8.78906 10.8545 8.42285Q10.6152 8.05664 10.3711 7.79297Q10.127 7.5293 10.127 7.37305Q10.127 7.26562 10.2344 7.26562Q10.3027 7.26562 10.4004 7.33887Q10.498 7.41211 10.6641 7.53906Q11.2109 7.96875 11.582 8.00781Q11.9531 8.04688 12.1533 7.84668Q12.3535 7.64648 12.4023 7.37305Q12.4316 7.2168 12.5635 7.0459Q12.6953 6.875 13.0957 6.66992Q13.6035 6.40625 14.0723 6.03516Q14.541 5.66406 14.8438 5.25391Q15.1465 4.84375 15.1465 4.46289Q15.1465 4.0918 14.9463 3.82324Q14.7461 3.55469 14.4824 3.35938Q14.2188 3.16406 14.0186 3.03711Q13.8184 2.91016 13.8184 2.82227Q13.8184 2.62695 14.7559 2.36328L14.5117 1.40625Q13.7402 1.60156 13.2275 1.95801Q12.7148 2.31445 12.7148 2.76367Q12.7148 3.05664 12.9346 3.2959Q13.1543 3.53516 13.4375 3.73535Q13.7207 3.93555 13.9404 4.11133Q14.1602 4.28711 14.1602 4.46289Q14.1602 4.6875 13.9258 4.92188Q13.6914 5.15625 13.3594 5.37109Q13.0273 5.58594 12.7148 5.75195Q12.1973 6.05469 11.9922 6.25977Q11.7871 6.46484 11.7334 6.62109Q11.6797 6.77734 11.6113 6.92383Q11.5234 7.08984 11.3867 7.04102Q11.25 6.99219 11.0596 6.85059Q10.8691 6.70898 10.625 6.58203Q10.3809 6.45508 10.0781 6.45508Q9.7168 6.45508 9.46777 6.6748Q9.21875 6.89453 9.21875 7.25586Q9.21875 7.62695 9.44336 7.9834Q9.66797 8.33984 9.8877 8.65723Q10.1074 8.97461 10.1074 9.23828Q10.1074 9.55078 9.87305 9.8291Q9.63867 10.1074 9.19922 10.2881Q8.75977 10.4688 8.14453 10.4688Q7.63672 10.4688 7.36328 10.6885Q7.08984 10.9082 7.08984 11.2988Q7.08984 11.5625 7.25098 11.8018Q7.41211 12.041 7.57324 12.2363Q7.73438 12.4316 7.73438 12.5586Q7.73438 12.6465 7.69531 12.7344Q7.65625 12.8223 7.59277 12.876Q7.5293 12.9297 7.4707 12.9297Q7.31445 12.9297 6.97754 12.6318Q6.64062 12.334 6.09375 11.6406Q5.625 11.0156 5.17578 10.6787Q4.72656 10.3418 4.27734 10.3418Q3.64258 10.3418 3.24219 10.7568Q2.8418 11.1719 2.60742 11.5918L1.65039 13.3496ZM14.3066 18.291L15.0977 17.6855Q14.873 17.3926 14.5996 17.0605Q14.3262 16.7285 13.9258 16.4893Q13.5254 16.25 12.9395 16.25Q12.5781 16.25 12.373 16.3086Q12.168 16.3672 12.002 16.4258Q11.8359 16.4844 11.5918 16.4844Q11.377 16.4844 11.2451 16.2939Q11.1133 16.1035 11.0156 15.6934Q10.9277 15.3418 10.9229 15.0977Q10.918 14.8535 11.1523 14.7559Q11.3281 14.6875 11.7139 14.5752Q12.0996 14.4629 12.4951 14.1602Q12.8906 13.8574 13.0859 13.2324Q13.3008 12.5879 13.5254 12.3193Q13.75 12.0508 14.1016 12.0508Q14.4141 12.0508 14.585 12.1875Q14.7559 12.3242 14.8926 12.5Q15.0293 12.6758 15.2295 12.8076Q15.4297 12.9395 15.8105 12.9395Q16.1426 12.9395 16.3525 12.8467Q16.5625 12.7539 16.7969 12.7539Q17.1191 12.7539 17.3291 13.0908Q17.5391 13.4277 17.5977 14.1992L18.584 13.8086Q18.4668 12.8418 18.0225 12.3047Q17.5781 11.7676 16.9336 11.7676Q16.543 11.7676 16.1523 11.8945Q15.918 11.9727 15.8154 11.9385Q15.7129 11.9043 15.5273 11.6895Q15.2246 11.3477 14.9316 11.2061Q14.6387 11.0645 14.2188 11.0645Q13.4766 11.0645 12.9785 11.4795Q12.4805 11.8945 12.1289 12.9492Q12.041 13.2324 11.8604 13.3789Q11.6797 13.5254 11.1719 13.7109L10.7617 13.8574Q10.1855 14.082 10.0098 14.5508Q9.83398 15.0195 10.0391 15.9082Q10.4102 17.4805 11.5039 17.4805Q11.9824 17.4805 12.3047 17.3682Q12.627 17.2559 12.9395 17.2559Q13.3984 17.2461 13.6816 17.5244Q13.9648 17.8027 14.3066 18.291ZM12.3145 9.36523Q12.627 9.36523 12.8613 9.21387Q13.0957 9.0625 13.3398 8.87695Q13.584 8.69141 13.9453 8.58398Q14.2969 8.48633 14.4824 8.17383Q14.668 7.86133 14.668 7.55859Q14.668 7.30469 14.541 7.12402Q14.4141 6.94336 14.1406 6.94336Q13.5449 6.94336 13.1738 7.73438Q13.0762 7.93945 12.8906 8.06641Q12.7051 8.19336 12.3145 8.30078Q11.7578 8.4668 11.7578 8.88672Q11.7578 9.13086 11.9238 9.24805Q12.0898 9.36523 12.3145 9.36523ZM9.48242 13.877Q9.90234 13.877 10.2441 13.4814Q10.5859 13.0859 10.5859 12.6562Q10.5859 12.1191 10.3955 11.8652Q10.2051 11.6113 9.95117 11.6113Q9.67773 11.6113 9.51172 11.9141Q9.3457 12.2168 9.3457 12.7148Q9.3457 12.998 9.17969 13.1006Q9.01367 13.2031 9.01367 13.4863Q9.01367 13.877 9.48242 13.877ZM7.77344 15.6641Q8.4668 15.6641 8.4668 15.0879Q8.4668 14.6387 7.96875 14.6387Q7.38281 14.6387 7.09961 14.4727Q6.81641 14.3066 6.63574 14.1406Q6.45508 13.9746 6.17188 13.9746Q5.9375 13.9746 5.79102 14.1016Q5.64453 14.2285 5.64453 14.4336Q5.64453 14.5996 5.79102 14.707Q5.9375 14.8145 6.15234 14.8145Q6.38672 14.8145 6.49414 14.9414Q6.60156 15.0684 6.71387 15.2393Q6.82617 15.4102 7.06055 15.5371Q7.29492 15.6641 7.77344 15.6641ZM9.96094 19.9219Q12.002 19.9219 13.8037 19.1406Q15.6055 18.3594 16.9824 16.9824Q18.3594 15.6055 19.1406 13.8037Q19.9219 12.002 19.9219 9.96094Q19.9219 7.91992 19.1406 6.11816Q18.3594 4.31641 16.9824 2.93945Q15.6055 1.5625 13.7988 0.78125Q11.9922 0 9.95117 0Q7.91016 0 6.1084 0.78125Q4.30664 1.5625 2.93457 2.93945Q1.5625 4.31641 0.78125 6.11816Q0 7.91992 0 9.96094Q0 12.002 0.78125 13.8037Q1.5625 15.6055 2.93945 16.9824Q4.31641 18.3594 6.11816 19.1406Q7.91992 19.9219 9.96094 19.9219ZM9.96094 18.5938Q8.19336 18.5938 6.63086 17.915Q5.06836 17.2363 3.87695 16.0449Q2.68555 14.8535 2.00684 13.291Q1.32812 11.7285 1.32812 9.96094Q1.32812 8.19336 2.00684 6.63086Q2.68555 5.06836 3.87207 3.87695Q5.05859 2.68555 6.62109 2.00684Q8.18359 1.32812 9.95117 1.32812Q11.7188 1.32812 13.2812 2.00684Q14.8438 2.68555 16.04 3.87695Q17.2363 5.06836 17.915 6.63086Q18.5938 8.19336 18.5938 9.96094Q18.5938 11.7285 17.915 13.291Q17.2363 14.8535 16.0449 16.0449Q14.8535 17.2363 13.291 17.915Q11.7285 18.5938 9.96094 18.5938Z" fill="#ffffff"/>
 </g>
</svg>
