<?xml version="1.0" encoding="UTF-8"?>
<!--Generator: Apple Native CoreSVG 175.5-->
<!DOCTYPE svg
PUBLIC "-//W3C//DTD SVG 1.1//EN"
       "http://www.w3.org/Graphics/SVG/1.1/DTD/svg11.dtd">
<svg version="1.1" xmlns="http://www.w3.org/2000/svg" xmlns:xlink="http://www.w3.org/1999/xlink" width="19.9219" height="19.9316">
 <g>
  <rect height="19.9316" opacity="0" width="19.9219" x="0" y="0"/>
  <path d="M10.3516 17.3438Q10.7227 17.3438 11.3086 16.8701Q11.8945 16.3965 12.5342 15.6543Q13.1738 14.9121 13.7402 14.0625Q14.3066 13.2129 14.6631 12.4414Q15.0195 11.6699 15.0195 11.1719Q15.0195 10.8105 14.6826 10.3369Q14.3457 9.86328 13.8281 9.41406Q13.3105 8.96484 12.7637 8.67188Q12.2168 8.37891 11.8066 8.37891Q11.5625 8.37891 11.25 8.5498Q10.9375 8.7207 10.6104 8.8916Q10.2832 9.0625 10 9.0625Q9.79492 9.0625 9.49219 8.8916Q9.18945 8.7207 8.8916 8.46191Q8.59375 8.20312 8.39355 7.93457Q8.19336 7.66602 8.19336 7.49023Q8.19336 7.28516 8.34473 7.17285Q8.49609 7.06055 8.70117 7.06055Q8.93555 7.06055 9.25781 7.26074Q9.58008 7.46094 9.94629 7.66113Q10.3125 7.86133 10.6934 7.86133Q11.1719 7.86133 11.4209 7.55859Q11.6699 7.25586 11.6699 6.78711Q11.6699 6.54297 11.543 6.2793Q11.416 6.01562 11.2109 5.69336Q11.5918 5.50781 12.1143 5.22461Q12.6367 4.94141 13.1836 4.57031Q13.7305 4.19922 14.1846 3.75488Q14.6387 3.31055 14.8828 2.80273Q14.3359 1.95312 12.9883 1.44043Q11.6406 0.927734 9.94141 0.927734Q8.69141 0.927734 7.49512 1.25977Q6.29883 1.5918 5.32227 2.15332Q4.3457 2.71484 3.72559 3.40332Q3.10547 4.0918 2.99805 4.81445Q2.91016 5.58594 3.46191 6.42578Q4.01367 7.26562 5.03906 8.1543L6.46484 9.39453Q6.80664 9.69727 6.99219 9.87305Q7.17773 10.0488 7.17773 10.2344Q7.17773 10.4395 7.06055 10.625Q6.94336 10.8105 6.82617 11.0107Q6.70898 11.2109 6.70898 11.4844Q6.70898 12.2168 7.45117 12.7637Q8.24219 13.3594 8.66699 13.6621Q9.0918 13.9648 9.25293 14.1357Q9.41406 14.3066 9.41406 14.4824Q9.42383 14.9707 9.2334 15.3662Q9.04297 15.7617 9.04297 16.2109Q9.04297 16.6113 9.46777 16.9775Q9.89258 17.3438 10.3516 17.3438ZM9.96094 19.9219Q12.002 19.9219 13.8037 19.1406Q15.6055 18.3594 16.9824 16.9824Q18.3594 15.6055 19.1406 13.8037Q19.9219 12.002 19.9219 9.96094Q19.9219 7.91992 19.1406 6.11816Q18.3594 4.31641 16.9824 2.93945Q15.6055 1.5625 13.7988 0.78125Q11.9922 0 9.95117 0Q7.91016 0 6.1084 0.78125Q4.30664 1.5625 2.93457 2.93945Q1.5625 4.31641 0.78125 6.11816Q0 7.91992 0 9.96094Q0 12.002 0.78125 13.8037Q1.5625 15.6055 2.93945 16.9824Q4.31641 18.3594 6.11816 19.1406Q7.91992 19.9219 9.96094 19.9219ZM9.96094 18.5938Q8.19336 18.5938 6.63086 17.915Q5.06836 17.2363 3.87695 16.0449Q2.68555 14.8535 2.00684 13.291Q1.32812 11.7285 1.32812 9.96094Q1.32812 8.19336 2.00684 6.63086Q2.68555 5.06836 3.87207 3.87695Q5.05859 2.68555 6.62109 2.00684Q8.18359 1.32812 9.95117 1.32812Q11.7188 1.32812 13.2812 2.00684Q14.8438 2.68555 16.04 3.87695Q17.2363 5.06836 17.915 6.63086Q18.5938 8.19336 18.5938 9.96094Q18.5938 11.7285 17.915 13.291Q17.2363 14.8535 16.0449 16.0449Q14.8535 17.2363 13.291 17.915Q11.7285 18.5938 9.96094 18.5938Z" fill="#ffffff"/>
 </g>
</svg>
