<?xml version="1.0" encoding="UTF-8"?>
<!--Generator: Apple Native CoreSVG 175.5-->
<!DOCTYPE svg
PUBLIC "-//W3C//DTD SVG 1.1//EN"
       "http://www.w3.org/Graphics/SVG/1.1/DTD/svg11.dtd">
<svg version="1.1" xmlns="http://www.w3.org/2000/svg" xmlns:xlink="http://www.w3.org/1999/xlink" width="19.9219" height="19.9316">
 <g>
  <rect height="19.9316" opacity="0" width="19.9219" x="0" y="0"/>
  <path d="M2.23633 14.2676Q2.7832 13.8477 3.09082 13.335Q3.39844 12.8223 3.56934 12.3535Q3.74023 11.8848 3.87207 11.582Q4.00391 11.2793 4.21875 11.2793Q4.44336 11.2793 4.69727 11.4941Q4.95117 11.709 5.35156 12.2168Q6.02539 13.0859 6.50879 13.5205Q6.99219 13.9551 7.45117 13.9551Q7.73438 13.9551 8.02734 13.7207Q8.32031 13.4863 8.51562 13.1396Q8.71094 12.793 8.71094 12.4609Q8.71094 12.3047 8.56445 12.1289Q8.41797 11.9531 8.27148 11.792Q8.125 11.6309 8.125 11.5137Q8.125 11.3086 8.45703 11.3086Q9.14062 11.3086 9.73145 10.9814Q10.3223 10.6543 10.6836 10.1758Q11.0449 9.69727 11.0449 9.23828Q11.0449 8.90625 10.7812 8.60352Q10.5176 8.30078 10.249 8.03711Q9.98047 7.77344 9.98047 7.55859Q9.98047 7.42188 10.0781 7.34375Q10.1758 7.26562 10.3027 7.26562Q10.3906 7.26562 10.498 7.30469Q10.6055 7.34375 10.7324 7.44141Q11.2695 7.86133 11.6162 7.90039Q11.9629 7.93945 12.1533 7.75391Q12.3438 7.56836 12.3926 7.30469Q12.4219 7.13867 12.5586 6.95801Q12.6953 6.77734 13.1152 6.57227Q13.7012 6.26953 14.1455 5.90332Q14.5898 5.53711 14.8438 5.16602Q15.0977 4.79492 15.0977 4.46289Q15.0977 4.18945 14.8975 3.94043Q14.6973 3.69141 14.4336 3.47656Q14.1699 3.26172 13.9697 3.0957Q13.7695 2.92969 13.7695 2.82227Q13.7695 2.70508 13.9746 2.59277Q14.1797 2.48047 14.6582 2.33398Q14.1504 1.875 13.457 1.51367Q12.7637 1.15234 11.8848 0.947266Q11.0059 0.742188 9.95117 0.742188Q8.30078 0.810547 6.88965 1.29883Q5.47852 1.78711 4.36523 2.62695Q3.25195 3.4668 2.46094 4.59473Q1.66992 5.72266 1.25 7.08496Q0.830078 8.44727 0.820312 9.96094Q0.810547 11.1426 1.17676 12.2754Q1.54297 13.4082 2.23633 14.2676ZM14.3164 18.2129Q17.1875 16.377 18.5352 13.7891Q18.418 12.8516 17.9883 12.334Q17.5586 11.8164 16.9336 11.8164Q16.7578 11.8164 16.5576 11.8457Q16.3574 11.875 16.1719 11.9434Q15.918 12.0215 15.8057 11.9873Q15.6934 11.9531 15.4883 11.7188Q15.1953 11.3867 14.9072 11.25Q14.6191 11.1133 14.2188 11.1133Q13.457 11.1133 12.9834 11.5381Q12.5098 11.9629 12.1777 12.959Q12.0898 13.2617 11.8994 13.4131Q11.709 13.5645 11.1914 13.7598L10.7812 13.9062Q10.2051 14.1309 10.0488 14.585Q9.89258 15.0391 10.0879 15.8984Q10.4492 17.4316 11.5039 17.4316Q11.9727 17.4316 12.2949 17.3193Q12.6172 17.207 12.9395 17.207Q13.4082 17.1973 13.6963 17.4756Q13.9844 17.7539 14.3164 18.2129ZM12.3145 9.36523Q12.627 9.36523 12.8613 9.21387Q13.0957 9.0625 13.3398 8.87695Q13.584 8.69141 13.9453 8.58398Q14.2969 8.48633 14.4824 8.17383Q14.668 7.86133 14.668 7.55859Q14.668 7.30469 14.541 7.12402Q14.4141 6.94336 14.1406 6.94336Q13.5449 6.94336 13.1738 7.73438Q13.0762 7.93945 12.8906 8.06641Q12.7051 8.19336 12.3145 8.30078Q11.7578 8.4668 11.7578 8.88672Q11.7578 9.13086 11.9238 9.24805Q12.0898 9.36523 12.3145 9.36523ZM9.48242 13.877Q9.90234 13.877 10.2441 13.4814Q10.5859 13.0859 10.5859 12.6562Q10.5859 12.1191 10.3955 11.8652Q10.2051 11.6113 9.95117 11.6113Q9.67773 11.6113 9.51172 11.9141Q9.3457 12.2168 9.3457 12.7148Q9.3457 12.998 9.17969 13.1006Q9.01367 13.2031 9.01367 13.4863Q9.01367 13.877 9.48242 13.877ZM7.77344 15.6641Q8.4668 15.6641 8.4668 15.0879Q8.4668 14.6387 7.96875 14.6387Q7.38281 14.6387 7.09961 14.4727Q6.81641 14.3066 6.63574 14.1406Q6.45508 13.9746 6.17188 13.9746Q5.9375 13.9746 5.79102 14.1016Q5.64453 14.2285 5.64453 14.4336Q5.64453 14.5996 5.79102 14.707Q5.9375 14.8145 6.15234 14.8145Q6.38672 14.8145 6.49414 14.9414Q6.60156 15.0684 6.71387 15.2393Q6.82617 15.4102 7.06055 15.5371Q7.29492 15.6641 7.77344 15.6641ZM9.96094 19.9219Q12.002 19.9219 13.8037 19.1406Q15.6055 18.3594 16.9824 16.9824Q18.3594 15.6055 19.1406 13.8037Q19.9219 12.002 19.9219 9.96094Q19.9219 7.91992 19.1406 6.11816Q18.3594 4.31641 16.9824 2.93945Q15.6055 1.5625 13.7988 0.78125Q11.9922 0 9.95117 0Q7.91016 0 6.1084 0.78125Q4.30664 1.5625 2.93457 2.93945Q1.5625 4.31641 0.78125 6.11816Q0 7.91992 0 9.96094Q0 12.002 0.78125 13.8037Q1.5625 15.6055 2.93945 16.9824Q4.31641 18.3594 6.11816 19.1406Q7.91992 19.9219 9.96094 19.9219ZM9.96094 18.5938Q8.19336 18.5938 6.63086 17.915Q5.06836 17.2363 3.87695 16.0449Q2.68555 14.8535 2.00684 13.291Q1.32812 11.7285 1.32812 9.96094Q1.32812 8.19336 2.00684 6.63086Q2.68555 5.06836 3.87207 3.87695Q5.05859 2.68555 6.62109 2.00684Q8.18359 1.32812 9.95117 1.32812Q11.7188 1.32812 13.2812 2.00684Q14.8438 2.68555 16.04 3.87695Q17.2363 5.06836 17.915 6.63086Q18.5938 8.19336 18.5938 9.96094Q18.5938 11.7285 17.915 13.291Q17.2363 14.8535 16.0449 16.0449Q14.8535 17.2363 13.291 17.915Q11.7285 18.5938 9.96094 18.5938Z" fill="#ffffff"/>
 </g>
</svg>
