<?xml version="1.0" encoding="UTF-8"?>
<!--Generator: Apple Native CoreSVG 175-->
<!DOCTYPE svg
PUBLIC "-//W3C//DTD SVG 1.1//EN"
       "http://www.w3.org/Graphics/SVG/1.1/DTD/svg11.dtd">
<svg version="1.1" xmlns="http://www.w3.org/2000/svg" xmlns:xlink="http://www.w3.org/1999/xlink" width="19.1554" height="19.1583">
 <g>
  <rect height="19.1583" opacity="0" width="19.1554" x="0" y="0"/>
  <path d="M9.57428 18.9743Q10.4845 18.9743 11.3287 18.3134Q12.173 17.6524 12.8377 16.4181Q13.5023 15.1837 13.8881 13.4557Q14.2738 11.7278 14.2738 9.59381Q14.2738 7.45987 13.8895 5.73273Q13.5051 4.00558 12.8404 2.76985Q12.1758 1.53412 11.3314 0.873108Q10.4871 0.212097 9.57428 0.212097Q8.66135 0.212097 7.82051 0.873108Q6.97968 1.53412 6.31638 2.76985Q5.65308 4.00558 5.26382 5.73273Q4.87457 7.45987 4.87457 9.59381Q4.87457 11.7278 5.26382 13.4557Q5.65308 15.1837 6.31775 16.4181Q6.98242 17.6524 7.82326 18.3134Q8.66409 18.9743 9.57428 18.9743ZM9.57428 0.775146Q10.3786 0.775146 11.0996 1.45538Q11.8207 2.13562 12.3812 3.34145Q12.9417 4.54727 13.2629 6.14906Q13.584 7.75085 13.584 9.59381Q13.584 11.368 13.2629 12.9551Q12.9417 14.5422 12.3812 15.7706Q11.8207 16.9989 11.0996 17.7038Q10.3786 18.4087 9.57428 18.4087Q8.77701 18.4087 8.05237 17.7038Q7.32773 16.9989 6.77071 15.7706Q6.21368 14.5422 5.88905 12.9551Q5.56442 11.368 5.56442 9.59381Q5.56442 7.75085 5.88905 6.14906Q6.21368 4.54727 6.77071 3.34145Q7.32773 2.13562 8.05237 1.45538Q8.77701 0.775146 9.57428 0.775146ZM9.24881 0.363007L9.24881 18.7817L9.90936 18.7817L9.90936 0.363007ZM9.57428 13.7875Q8.11951 13.7875 6.83517 14.0119Q5.55084 14.2363 4.52095 14.6439Q3.49106 15.0516 2.80045 15.5922L3.30154 16.0091Q3.98132 15.5153 4.91974 15.1659Q5.85815 14.8164 7.02751 14.6358Q8.19687 14.4551 9.57428 14.4551Q10.9586 14.4551 12.1279 14.6358Q13.2973 14.8164 14.2323 15.1659Q15.1672 15.5153 15.8469 16.0091L16.3551 15.5922Q15.6645 15.0516 14.6311 14.6439Q13.5977 14.2363 12.3133 14.0119Q11.0289 13.7875 9.57428 13.7875ZM18.7355 9.23904L0.419922 9.23904L0.419922 9.90677L18.7355 9.90677ZM9.57428 5.40283Q11.0289 5.40283 12.3133 5.18196Q13.5977 4.96109 14.6311 4.55345Q15.6645 4.14581 16.3551 3.60519L15.8469 3.18832Q15.1672 3.6821 14.2323 4.02802Q13.2973 4.37393 12.1279 4.55811Q10.9586 4.74228 9.57428 4.74228Q8.19687 4.74228 7.02751 4.55811Q5.85815 4.37393 4.91974 4.02802Q3.98132 3.6821 3.30154 3.18832L2.80045 3.60519Q3.49106 4.14581 4.52095 4.55345Q5.55084 4.96109 6.83517 5.18196Q8.11951 5.40283 9.57428 5.40283ZM9.57428 19.1486Q11.552 19.1486 13.2834 18.4024Q15.0148 17.6562 16.3355 16.3356Q17.6562 15.015 18.4058 13.28Q19.1554 11.545 19.1554 9.57428Q19.1554 7.60361 18.4058 5.86861Q17.6562 4.13361 16.3355 2.81296Q15.0148 1.49231 13.282 0.746155Q11.5492 0 9.57153 0Q7.60086 0 5.86586 0.746155Q4.13086 1.49231 2.81502 2.81296Q1.49918 4.13361 0.749588 5.86861Q0 7.60361 0 9.57428Q0 11.545 0.746078 13.28Q1.49216 15.015 2.81288 16.3356Q4.13361 17.6562 5.86853 18.4024Q7.60345 19.1486 9.57428 19.1486ZM9.57428 18.4743Q7.73636 18.4743 6.12465 17.7815Q4.51294 17.0888 3.28636 15.8622Q2.05978 14.6356 1.36703 13.0239Q0.674286 11.4122 0.674286 9.57428Q0.674286 7.73636 1.36703 6.12465Q2.05978 4.51294 3.28499 3.28636Q4.51019 2.05978 6.12541 1.36703Q7.74063 0.674286 9.57153 0.674286Q11.4095 0.674286 13.0247 1.36703Q14.6399 2.05978 15.8643 3.28636Q17.0886 4.51294 17.785 6.12465Q18.4813 7.73636 18.4813 9.57428Q18.4813 11.4122 17.785 13.0239Q17.0886 14.6356 15.8621 15.8622Q14.6356 17.0888 13.0238 17.7815Q11.412 18.4743 9.57428 18.4743Z" fill="#ffffff"/>
 </g>
</svg>
