<?xml version="1.0" encoding="UTF-8"?>
<!--Generator: Apple Native CoreSVG 175-->
<!DOCTYPE svg
PUBLIC "-//W3C//DTD SVG 1.1//EN"
       "http://www.w3.org/Graphics/SVG/1.1/DTD/svg11.dtd">
<svg version="1.1" xmlns="http://www.w3.org/2000/svg" xmlns:xlink="http://www.w3.org/1999/xlink" width="19.1602" height="22.8462">
 <g>
  <rect height="22.8462" opacity="0" width="19.1602" x="0" y="0"/>
  <path d="M0 11.4378Q0 13.4104 0.74707 15.1487Q1.49414 16.887 2.8125 18.2005Q4.13086 19.5139 5.86914 20.2659Q7.60742 21.0178 9.57031 21.0178Q11.5527 21.0178 13.2861 20.2659Q15.0195 19.5139 16.3379 18.2005Q17.6562 16.887 18.4082 15.1487Q19.1602 13.4104 19.1602 11.4378Q19.1602 9.67995 18.5547 8.10768Q17.9492 6.53541 16.875 5.27077Q15.8008 4.00612 14.3701 3.16139Q12.9395 2.31666 11.2598 2.00416L11.2598 0.412367Q11.2598 0.109633 11.0791 0.0266251Q10.8984-0.0563827 10.6348 0.119399L7.69531 2.17018Q7.48047 2.3362 7.48047 2.52174Q7.48047 2.70729 7.69531 2.86354L10.6348 4.91432Q10.8887 5.10963 11.0742 5.02174Q11.2598 4.93385 11.2598 4.64088L11.2598 2.77565Q12.793 3.06862 14.0918 3.84498Q15.3906 4.62135 16.3623 5.78346Q17.334 6.94557 17.8711 8.386Q18.4082 9.82643 18.4082 11.4378Q18.4082 13.2639 17.7197 14.8655Q17.0312 16.4671 15.8203 17.6829Q14.6094 18.8987 13.0078 19.5823Q11.4062 20.2659 9.57031 20.2659Q7.74414 20.2659 6.14746 19.5823Q4.55078 18.8987 3.33496 17.6829Q2.11914 16.4671 1.43066 14.8655Q0.742188 13.2639 0.742188 11.4378Q0.742188 9.8362 1.28418 8.39577Q1.82617 6.95534 2.78809 5.79811Q3.75 4.64088 5.03906 3.8694Q5.17578 3.78151 5.21484 3.63502Q5.25391 3.48854 5.17578 3.35182Q5.10742 3.22487 4.95117 3.19069Q4.79492 3.15651 4.64844 3.25416Q3.25195 4.09401 2.20703 5.34889Q1.16211 6.60377 0.581055 8.15651Q0 9.70924 0 11.4378ZM6.75781 15.2756Q6.9043 15.2756 6.99707 15.1829Q7.08984 15.0901 7.08984 14.9241L7.08984 8.05885Q7.08984 7.88307 6.99219 7.77565Q6.89453 7.66823 6.70898 7.66823Q6.58203 7.66823 6.48926 7.70729Q6.39648 7.74635 6.24023 7.84401L4.52148 8.96705Q4.42383 9.02565 4.38477 9.09889Q4.3457 9.17213 4.3457 9.26979Q4.3457 9.39674 4.43359 9.48952Q4.52148 9.58229 4.64844 9.58229Q4.7168 9.58229 4.75586 9.56764Q4.79492 9.55299 4.86328 9.50416L6.39648 8.48854L6.43555 8.48854L6.43555 14.9241Q6.43555 15.0803 6.52344 15.178Q6.61133 15.2756 6.75781 15.2756ZM12.0801 15.4514Q12.8809 15.4514 13.4717 14.968Q14.0625 14.4846 14.3994 13.6106Q14.7363 12.7366 14.7363 11.5647Q14.7363 10.3928 14.3994 9.51881Q14.0625 8.64479 13.4717 8.16139Q12.8809 7.67799 12.0801 7.67799Q10.8887 7.67799 10.1562 8.74733Q9.42383 9.81666 9.42383 11.5647Q9.42383 13.3225 10.1562 14.387Q10.8887 15.4514 12.0801 15.4514ZM12.0801 14.8264Q11.1914 14.8264 10.6348 13.928Q10.0781 13.0296 10.0781 11.5647Q10.0781 10.0901 10.6348 9.19166Q11.1914 8.29323 12.0801 8.29323Q12.9785 8.29323 13.5254 9.19166Q14.0723 10.0901 14.0723 11.5647Q14.0723 13.0296 13.5205 13.928Q12.9688 14.8264 12.0801 14.8264Z" fill="rgba(0,0,0,0.85)"/>
 </g>
</svg>
