<?xml version="1.0" encoding="UTF-8"?>
<!--Generator: Apple Native CoreSVG 175.5-->
<!DOCTYPE svg
PUBLIC "-//W3C//DTD SVG 1.1//EN"
       "http://www.w3.org/Graphics/SVG/1.1/DTD/svg11.dtd">
<svg version="1.1" xmlns="http://www.w3.org/2000/svg" xmlns:xlink="http://www.w3.org/1999/xlink" width="19.9219" height="23.7146">
 <g>
  <rect height="23.7146" opacity="0" width="19.9219" x="0" y="0"/>
  <path d="M0 11.8524Q0 13.8935 0.78125 15.7001Q1.5625 17.5067 2.93945 18.8788Q4.31641 20.2509 6.11816 21.0321Q7.91992 21.8134 9.96094 21.8134Q12.002 21.8134 13.8037 21.0321Q15.6055 20.2509 16.9824 18.8788Q18.3594 17.5067 19.1406 15.7001Q19.9219 13.8935 19.9219 11.8524Q19.9219 10.2118 19.4043 8.71279Q18.8867 7.21377 17.9492 5.95888Q17.0117 4.704 15.752 3.7958Q15.4297 3.55166 15.0781 3.61513Q14.7266 3.67861 14.541 3.97158Q14.3555 4.27431 14.4385 4.59658Q14.5215 4.91884 14.8242 5.14345Q15.8594 5.88564 16.6309 6.9208Q17.4023 7.95595 17.832 9.21084Q18.2617 10.4657 18.2617 11.8524Q18.2617 13.581 17.6221 15.0897Q16.9824 16.5985 15.8447 17.7362Q14.707 18.8739 13.1982 19.5136Q11.6895 20.1532 9.96094 20.1532Q8.23242 20.1532 6.72852 19.5136Q5.22461 18.8739 4.08691 17.7362Q2.94922 16.5985 2.30957 15.0897Q1.66992 13.581 1.66992 11.8524Q1.66992 10.3681 2.14844 9.04482Q2.62695 7.72158 3.49121 6.64736Q4.35547 5.57314 5.52734 4.83095Q6.69922 4.08877 8.07617 3.77627L8.07617 5.17275Q8.07617 5.69033 8.38379 5.82216Q8.69141 5.954 9.0918 5.6708L12.207 3.4833Q12.5391 3.25869 12.5439 2.94131Q12.5488 2.62392 12.207 2.38955L9.10156 0.202047Q8.69141-0.0909213 8.38379 0.0409146Q8.07617 0.172751 8.07617 0.700094L8.07617 2.07705Q6.36719 2.41884 4.89746 3.30263Q3.42773 4.18642 2.3291 5.4999Q1.23047 6.81338 0.615234 8.43447Q0 10.0556 0 11.8524Z" fill="#ffffff"/>
  <path d="M6.82617 15.9638Q8.00781 15.9638 8.71094 15.2411Q9.41406 14.5185 9.41406 13.3173Q9.41406 12.2626 8.76465 11.579Q8.11523 10.8954 7.11914 10.8954Q6.43555 10.8954 5.94238 11.2128Q5.44922 11.5302 5.25391 12.038L5.30273 12.1063Q5.29297 12.0575 5.29297 12.0429Q5.29297 12.0282 5.29297 11.9892Q5.29297 10.7782 5.74707 10.0458Q6.20117 9.31338 6.96289 9.31338Q7.34375 9.31338 7.59277 9.45986Q7.8418 9.60634 8.00781 9.87978Q8.24219 10.2411 8.63281 10.2411Q8.84766 10.2411 8.98438 10.0897Q9.12109 9.93838 9.12109 9.704Q9.12109 9.60634 9.10156 9.50869Q9.08203 9.41103 9.05273 9.33291Q8.85742 8.83486 8.32031 8.50771Q7.7832 8.18056 7.01172 8.18056Q5.60547 8.18056 4.85352 9.24013Q4.10156 10.2997 4.10156 12.2626Q4.10156 13.0341 4.22363 13.664Q4.3457 14.2938 4.59961 14.7431Q4.93164 15.3485 5.50781 15.6561Q6.08398 15.9638 6.82617 15.9638ZM6.76758 14.8798Q6.17188 14.8798 5.78125 14.455Q5.39062 14.0302 5.39062 13.3759Q5.39062 12.7313 5.77637 12.3261Q6.16211 11.9208 6.76758 11.9208Q7.38281 11.9208 7.76855 12.3212Q8.1543 12.7216 8.1543 13.3759Q8.1543 14.0692 7.77832 14.4745Q7.40234 14.8798 6.76758 14.8798ZM13.252 15.9638Q14.0625 15.9638 14.668 15.4804Q15.2734 14.997 15.6055 14.1278Q15.9375 13.2587 15.9375 12.0868Q15.9375 10.9052 15.6055 10.0263Q15.2734 9.14736 14.668 8.65908Q14.0625 8.1708 13.252 8.1708Q12.0312 8.1708 11.3037 9.24502Q10.5762 10.3192 10.5762 12.0966Q10.5762 13.8544 11.3086 14.9091Q12.041 15.9638 13.252 15.9638ZM13.252 14.7821Q12.6074 14.7821 12.2266 14.0595Q11.8457 13.3368 11.8457 12.0868Q11.8457 10.8075 12.2217 10.08Q12.5977 9.35244 13.252 9.35244Q13.9062 9.35244 14.2822 10.0751Q14.6582 10.7978 14.6582 12.0868Q14.6582 13.3368 14.2822 14.0595Q13.9062 14.7821 13.252 14.7821Z" fill="#ffffff"/>
 </g>
</svg>
