<?xml version="1.0" encoding="UTF-8"?>
<!--Generator: Apple Native CoreSVG 175.5-->
<!DOCTYPE svg
PUBLIC "-//W3C//DTD SVG 1.1//EN"
       "http://www.w3.org/Graphics/SVG/1.1/DTD/svg11.dtd">
<svg version="1.1" xmlns="http://www.w3.org/2000/svg" xmlns:xlink="http://www.w3.org/1999/xlink" width="17.9785" height="17.998">
 <g>
  <rect height="17.998" opacity="0" width="17.9785" x="0" y="0"/>
  <path d="M3.06641 17.998L14.9121 17.998Q16.4453 17.998 17.2119 17.2412Q17.9785 16.4844 17.9785 14.9707L17.9785 3.04688Q17.9785 1.5332 17.2119 0.776367Q16.4453 0.0195312 14.9121 0.0195312L3.06641 0.0195312Q1.5332 0.0195312 0.766602 0.776367Q0 1.5332 0 3.04688L0 14.9707Q0 16.4844 0.766602 17.2412Q1.5332 17.998 3.06641 17.998Z" fill="#ffffff"/>
  <path d="M6.38672 13.125Q6.02539 13.125 5.78613 12.8906Q5.54688 12.6562 5.54688 12.3145Q5.54688 12.0215 5.68359 11.8359Q5.82031 11.6504 6.14258 11.5039L11.2402 8.99414L11.2402 8.93555L6.14258 6.36719Q5.83008 6.2207 5.68848 6.02539Q5.54688 5.83008 5.54688 5.54688Q5.54688 5.21484 5.78125 4.98047Q6.01562 4.74609 6.36719 4.74609Q6.5332 4.74609 6.64551 4.78027Q6.75781 4.81445 6.875 4.87305L12.8809 8.10547Q13.4766 8.4375 13.4766 8.99414Q13.4766 9.30664 13.335 9.5166Q13.1934 9.72656 12.8809 9.88281L6.875 13.0078Q6.64062 13.125 6.38672 13.125Z" fill="none"/>
 </g>
</svg>
