<?xml version="1.0" encoding="UTF-8"?>
<!--Generator: Apple Native CoreSVG 175.5-->
<!DOCTYPE svg
PUBLIC "-//W3C//DTD SVG 1.1//EN"
       "http://www.w3.org/Graphics/SVG/1.1/DTD/svg11.dtd">
<svg version="1.1" xmlns="http://www.w3.org/2000/svg" xmlns:xlink="http://www.w3.org/1999/xlink" width="19.9219" height="19.9316">
 <g>
  <rect height="19.9316" opacity="0" width="19.9219" x="0" y="0"/>
  <path d="M9.96094 19.9219Q12.002 19.9219 13.8037 19.1406Q15.6055 18.3594 16.9824 16.9824Q18.3594 15.6055 19.1406 13.8037Q19.9219 12.002 19.9219 9.96094Q19.9219 7.91992 19.1406 6.11816Q18.3594 4.31641 16.9824 2.93945Q15.6055 1.5625 13.7988 0.78125Q11.9922 0 9.95117 0Q7.91016 0 6.1084 0.78125Q4.30664 1.5625 2.93457 2.93945Q1.5625 4.31641 0.78125 6.11816Q0 7.91992 0 9.96094Q0 12.002 0.78125 13.8037Q1.5625 15.6055 2.93945 16.9824Q4.31641 18.3594 6.11816 19.1406Q7.91992 19.9219 9.96094 19.9219Z" fill="#ffffff"/>
  <path d="M7.35352 14.0918Q6.99219 14.0918 6.75293 13.8574Q6.51367 13.623 6.51367 13.2812Q6.51367 12.9883 6.65039 12.8027Q6.78711 12.6172 7.10938 12.4707L12.207 9.96094L12.207 9.90234L7.10938 7.33398Q6.79688 7.1875 6.65527 6.99219Q6.51367 6.79688 6.51367 6.51367Q6.51367 6.18164 6.74805 5.94727Q6.98242 5.71289 7.33398 5.71289Q7.5 5.71289 7.6123 5.74707Q7.72461 5.78125 7.8418 5.83984L13.8477 9.07227Q14.4434 9.4043 14.4434 9.96094Q14.4434 10.2734 14.3018 10.4834Q14.1602 10.6934 13.8477 10.8496L7.8418 13.9746Q7.60742 14.0918 7.35352 14.0918Z" fill="none"/>
 </g>
</svg>
