<?xml version="1.0" encoding="UTF-8"?>
<!--Generator: Apple Native CoreSVG 175.5-->
<!DOCTYPE svg
PUBLIC "-//W3C//DTD SVG 1.1//EN"
       "http://www.w3.org/Graphics/SVG/1.1/DTD/svg11.dtd">
<svg version="1.1" xmlns="http://www.w3.org/2000/svg" xmlns:xlink="http://www.w3.org/1999/xlink" width="25.059" height="20.8105">
 <g>
  <rect height="20.8105" opacity="0" width="25.059" x="0" y="0"/>
  <path d="M0.146891 18.9844Q-0.0386556 19.3945 0.0101725 19.8096Q0.0590007 20.2246 0.342204 20.5029Q0.625407 20.7812 1.15275 20.7812Q1.44572 20.7812 1.71427 20.6592Q1.98283 20.5371 2.35392 20.2246L5.0297 17.9883Q5.17619 17.8711 5.24455 17.8711Q5.31291 17.8711 5.45939 17.9883L8.13517 20.2246Q8.51603 20.5371 8.78459 20.6592Q9.05314 20.7812 9.33634 20.7812Q9.86369 20.7812 10.1518 20.5029Q10.4399 20.2246 10.4838 19.8096Q10.5278 19.3945 10.3422 18.9844L6.03556 9.24805L6.03556 4.7168Q6.03556 3.60352 6.12834 2.71484Q6.22111 1.82617 6.31388 1.25Q6.40666 0.673828 6.40666 0.517578Q6.40666 0.302734 6.2797 0.170898Q6.15275 0.0390625 5.94767 0.0390625Q5.69377 0.0390625 5.35197 0.410156L3.20353 2.88086Q3.05705 3.04688 3.09123 3.22754Q3.12541 3.4082 3.31095 3.51562Q3.95549 3.78906 4.21427 3.99414Q4.47306 4.19922 4.47306 4.7168L4.47306 9.21875ZM1.15275 19.375L5.18595 10.1758L5.30314 10.1758L9.33634 19.375Q9.41447 19.5605 9.30705 19.6338Q9.19963 19.707 9.06291 19.5898L6.05509 17.0801Q5.57658 16.6992 5.24455 16.6992Q4.91252 16.6992 4.434 17.0801L1.42619 19.5898Q1.28947 19.707 1.18205 19.6338Q1.07463 19.5605 1.15275 19.375ZM7.28556 17.3633Q7.48088 17.3633 7.62736 17.2217Q7.77384 17.0801 7.77384 16.8945Q7.77384 16.709 7.63224 16.5625Q7.49064 16.416 7.28556 16.416Q7.10978 16.416 6.97306 16.5625Q6.83634 16.709 6.83634 16.8945Q6.83634 17.0898 6.96818 17.2266Q7.10002 17.3633 7.28556 17.3633ZM6.78752 16.1426Q6.97306 16.1426 7.11955 16.0059Q7.26603 15.8691 7.26603 15.6738Q7.26603 15.4785 7.11955 15.3369Q6.97306 15.1953 6.78752 15.1953Q6.5922 15.1953 6.4506 15.3418Q6.309 15.4883 6.309 15.6738Q6.309 15.8691 6.4506 16.0059Q6.5922 16.1426 6.78752 16.1426ZM6.26994 14.9121Q6.46525 14.9121 6.60197 14.7803Q6.73869 14.6484 6.73869 14.4531Q6.73869 14.2578 6.60197 14.1113Q6.46525 13.9648 6.26994 13.9648Q6.08439 13.9648 5.94279 14.1162Q5.80119 14.2676 5.80119 14.4531Q5.80119 14.6387 5.94279 14.7754Q6.08439 14.9121 6.26994 14.9121ZM9.11174 14.9414L9.80509 16.4844Q9.87345 15.7422 10.1567 15.249Q10.4399 14.7559 10.6986 14.3457Q10.9574 13.9355 10.9574 13.4375Q10.9574 12.9395 10.7914 12.5488Q10.6254 12.1582 10.4594 11.8066Q10.2934 11.4551 10.2934 11.0645Q10.2934 10.9082 10.4203 10.9082Q10.5863 10.9082 10.7328 11.084Q10.8793 11.2598 11.0502 11.4941Q11.2211 11.7285 11.4604 11.9092Q11.6996 12.0898 12.061 12.0898Q12.393 12.0898 12.6371 11.8945Q12.8813 11.6992 12.9887 11.3281L13.0668 11.3281Q13.184 11.709 13.4281 11.8994Q13.6723 12.0898 14.0043 12.0898Q14.3559 12.0898 14.6 11.9092Q14.8442 11.7285 15.0102 11.4941Q15.1762 11.2598 15.3227 11.084Q15.4692 10.9082 15.6254 10.9082Q15.7719 10.9082 15.7719 11.0645Q15.7719 11.4551 15.6059 11.8066Q15.4399 12.1582 15.269 12.5488Q15.0981 12.9395 15.0981 13.4375Q15.0981 13.8477 15.2787 14.1846Q15.4594 14.5215 15.6986 14.8926Q15.9379 15.2637 16.1186 15.7422Q16.2992 16.2207 16.2992 16.8945Q16.2992 18.2031 15.4301 18.9453Q14.561 19.6875 13.0278 19.6875Q12.432 19.6875 11.9145 19.5703Q11.3969 19.4531 10.9379 19.2285Q11.016 19.5703 11.0014 19.8438Q10.9867 20.1172 10.8598 20.3906Q11.3774 20.5957 11.9194 20.7031Q12.4613 20.8105 13.0278 20.8105Q14.3461 20.8105 15.3324 20.3223Q16.3188 19.834 16.8656 18.9551Q17.4125 18.0762 17.4125 16.8945Q17.4125 16.1621 17.2319 15.6152Q17.0512 15.0684 16.8119 14.6631Q16.5727 14.2578 16.3871 13.96Q16.2016 13.6621 16.2016 13.4277Q16.2016 13.0566 16.3676 12.7051Q16.5336 12.3535 16.6996 11.9629Q16.8656 11.5723 16.8656 11.0742Q16.8656 10.5273 16.5434 10.1807Q16.2211 9.83398 15.7133 9.83398Q15.2543 9.83398 14.9565 10.0586Q14.6586 10.2832 14.4828 10.5664Q14.3559 10.7715 14.2387 10.8984Q14.1215 11.0254 14.0336 11.0254Q13.936 11.0254 13.8871 10.9229Q13.8383 10.8203 13.8139 10.6396Q13.7895 10.459 13.7992 10.2344L13.809 4.26758Q13.809 4.05273 13.8285 3.99902Q13.8481 3.94531 13.9555 3.91602Q14.2485 3.82812 14.2875 3.41797L14.4926 1.42578Q14.5121 1.13281 14.2778 0.927734L13.4379 0.195312Q13.2621 0.0390625 13.0278 0.0390625Q12.7934 0.0390625 12.6078 0.195312L11.7778 0.927734Q11.5434 1.13281 11.5629 1.42578L11.7582 3.41797Q11.7973 3.81836 12.1 3.91602Q12.1977 3.93555 12.2221 3.99902Q12.2465 4.0625 12.2465 4.26758L12.266 10.2344Q12.266 10.4492 12.2465 10.6299Q12.227 10.8105 12.1733 10.918Q12.1195 11.0254 12.0317 11.0254Q11.934 11.0254 11.8217 10.8887Q11.7094 10.752 11.5727 10.5664Q11.3774 10.3027 11.0893 10.0684Q10.8012 9.83398 10.352 9.83398Q9.84416 9.83398 9.51701 10.1758Q9.18986 10.5176 9.18986 11.0742Q9.18986 11.5723 9.35588 11.9629Q9.52189 12.3535 9.68791 12.7051Q9.85392 13.0566 9.85392 13.4277Q9.85392 13.7012 9.60978 14.0576Q9.36564 14.4141 9.11174 14.9414ZM11.0942 16.7285Q11.2504 16.7871 11.3969 16.7139Q11.5434 16.6406 11.602 16.4941L12.4125 14.2676Q12.4613 14.1113 12.393 13.96Q12.3246 13.8086 12.1781 13.7598Q12.0219 13.7012 11.8705 13.7744Q11.7192 13.8477 11.6606 13.9941L10.85 16.2305Q10.8012 16.377 10.8695 16.5283Q10.9379 16.6797 11.0942 16.7285ZM14.9613 16.7285Q15.1176 16.6797 15.186 16.5283Q15.2543 16.377 15.1957 16.2305L14.3852 13.9941Q14.3266 13.8477 14.1801 13.7744Q14.0336 13.7012 13.8774 13.7598Q13.7309 13.8086 13.6625 13.96Q13.5942 14.1113 13.643 14.2676L14.4535 16.4941Q14.5121 16.6406 14.6586 16.7139Q14.8051 16.7871 14.9613 16.7285ZM20.684 20.752Q22.686 20.752 23.8725 19.8633Q25.059 18.9746 25.059 17.4707Q25.059 16.709 24.8588 16.2061Q24.6586 15.7031 24.3998 15.3516Q24.141 15 23.9408 14.7168Q23.7406 14.4336 23.7406 14.1113Q23.7406 13.623 23.8871 13.1396Q24.0336 12.6562 24.0336 12.0508Q24.0336 11.0449 23.3598 10.4297Q22.686 9.81445 21.4555 9.66797L21.4555 3.90625Q21.4555 3.61328 21.5092 3.49121Q21.5629 3.36914 21.7289 3.25195Q22.0121 3.07617 21.9926 2.82227L21.8461 0.410156Q21.8363 0.244141 21.7338 0.141602Q21.6313 0.0390625 21.475 0.0390625L19.8735 0.0390625Q19.727 0.0390625 19.6244 0.141602Q19.5219 0.244141 19.5121 0.410156L19.3656 2.82227Q19.3559 3.07617 19.6293 3.25195Q19.8051 3.37891 19.8539 3.50098Q19.9028 3.62305 19.9028 3.90625L19.9028 9.66797Q18.6723 9.81445 17.9985 10.4297Q17.3246 11.0449 17.3246 12.0508Q17.3246 12.6562 17.4711 13.1396Q17.6176 13.623 17.6176 14.1113Q17.6176 14.2188 17.5785 14.3555Q17.5395 14.4922 17.432 14.707Q17.5785 15.0195 17.6713 15.3174Q17.7641 15.6152 17.8324 15.918Q18.1449 15.5273 18.4379 15.0732Q18.7309 14.6191 18.7309 14.0918Q18.7309 13.5742 18.5795 13.0518Q18.4281 12.5293 18.4281 12.0508Q18.4281 11.2891 19.0434 10.9912Q19.6586 10.6934 20.684 10.6934Q21.6801 10.6934 22.3051 10.9814Q22.9301 11.2695 22.9301 12.0508Q22.9301 12.5293 22.7787 13.0518Q22.6274 13.5742 22.6274 14.0918Q22.6274 14.541 22.8276 14.9072Q23.0278 15.2734 23.2914 15.6396Q23.5551 16.0059 23.7504 16.4404Q23.9457 16.875 23.9457 17.4707Q23.9457 18.4863 23.0815 19.0674Q22.2172 19.6484 20.684 19.6484Q18.4672 19.6484 17.6567 18.4863Q17.5395 18.8086 17.4076 19.0527Q17.2758 19.2969 17.1098 19.5312Q17.6957 20.1367 18.6137 20.4443Q19.5317 20.752 20.684 20.752ZM20.684 14.8828Q21.1137 14.8828 21.4262 14.5752Q21.7387 14.2676 21.7387 13.8281Q21.7387 13.3887 21.4262 13.0762Q21.1137 12.7637 20.684 12.7637Q20.2445 12.7637 19.9272 13.0762Q19.6098 13.3887 19.6098 13.8281Q19.6098 14.2676 19.9223 14.5752Q20.2348 14.8828 20.684 14.8828ZM19.434 17.6465L21.9145 17.6465Q22.0903 17.6465 22.2123 17.5244Q22.3344 17.4023 22.3344 17.2266Q22.3344 17.041 22.2123 16.9141Q22.0903 16.7871 21.9145 16.7871L19.434 16.7871Q19.2582 16.7871 19.1313 16.9189Q19.0043 17.0508 19.0043 17.2266Q19.0043 17.4023 19.1313 17.5244Q19.2582 17.6465 19.434 17.6465Z" fill="#ffffff"/>
 </g>
</svg>
