<?xml version="1.0" encoding="UTF-8"?>
<!--Generator: Apple Native CoreSVG 175-->
<!DOCTYPE svg
PUBLIC "-//W3C//DTD SVG 1.1//EN"
       "http://www.w3.org/Graphics/SVG/1.1/DTD/svg11.dtd">
<svg version="1.1" xmlns="http://www.w3.org/2000/svg" xmlns:xlink="http://www.w3.org/1999/xlink" width="16.5135" height="16.5348">
 <g>
  <rect height="16.5348" opacity="0" width="16.5135" x="0" y="0"/>
  <path d="M8.24825 14.8629Q9.6104 14.8629 10.8032 14.3476Q11.996 13.8324 12.9057 12.9227Q13.8154 12.013 14.3334 10.8188Q14.8513 9.62467 14.8513 8.26252Q14.8513 6.90037 14.3334 5.70408Q13.8154 4.50779 12.9057 3.59806Q11.996 2.68833 10.8032 2.17525Q9.6104 1.66218 8.24825 1.66218Q6.88885 1.66218 5.69118 2.17525Q4.49352 2.68833 3.58379 3.59806Q2.67406 4.50779 2.1574 5.70408Q1.64074 6.90037 1.64074 8.26252Q1.64074 9.62467 2.1574 10.8188Q2.67406 12.013 3.58379 12.9227Q4.49352 13.8324 5.69118 14.3476Q6.88885 14.8629 8.24825 14.8629ZM8.24825 14.1387Q7.03533 14.1387 5.97248 13.6787Q4.90963 13.2187 4.0987 12.4113Q3.28777 11.6039 2.82993 10.541Q2.37209 9.47819 2.37209 8.26527Q2.37209 7.05235 2.82993 5.98949Q3.28777 4.92664 4.0987 4.11572Q4.90963 3.30479 5.97248 2.84695Q7.03533 2.38911 8.24825 2.38911Q9.45415 2.38911 10.5184 2.84695Q11.5826 3.30479 12.3935 4.11572Q13.2045 4.92664 13.6623 5.98949Q14.1201 7.05235 14.1201 8.26527Q14.1201 9.47819 13.6623 10.541Q13.2045 11.6039 12.3935 12.4113Q11.5826 13.2187 10.5184 13.6787Q9.45415 14.1387 8.24825 14.1387ZM15.4896 15.6125Q15.9924 15.1027 15.8204 14.1182Q15.6483 13.1336 14.9174 11.8311Q14.1865 10.5286 13.0115 9.04728Q11.8365 7.56596 10.3306 6.06998Q8.8345 4.56409 7.35325 3.38909Q5.872 2.21409 4.566 1.48319Q3.26 0.752296 2.27535 0.580254Q1.2907 0.408211 0.781059 0.910988Q0.278282 1.42063 0.451698 2.4052Q0.625114 3.38978 1.35464 4.69448Q2.08416 5.99918 3.26054 7.47829Q4.43691 8.95741 5.94006 10.4605Q7.43618 11.9567 8.9188 13.1366Q10.4014 14.3164 11.7025 15.046Q13.0037 15.7755 13.9917 15.9489Q14.9798 16.1223 15.4896 15.6125ZM14.967 15.0969Q14.6232 15.4435 13.7561 15.1862Q12.8889 14.9289 11.6912 14.1959Q10.4936 13.4629 9.1354 12.373Q7.77721 11.2831 6.44863 9.95197Q5.11745 8.62339 4.02409 7.26521Q2.93072 5.90702 2.19769 4.70936Q1.46465 3.5117 1.2109 2.64454Q0.957146 1.77738 1.30367 1.4336Q1.64745 1.08707 2.51461 1.33945Q3.38177 1.59184 4.57806 2.32487Q5.77435 3.0579 7.1339 4.15257Q8.49346 5.24723 9.82479 6.57581Q11.1532 7.90699 12.248 9.26174Q13.3427 10.6165 14.0722 11.8177Q14.8018 13.0188 15.0576 13.886Q15.3135 14.7532 14.967 15.0969ZM13.5037 3.02937Q13.8479 3.36643 14.3007 3.48202Q14.7534 3.5976 15.2047 3.48202Q15.6561 3.36643 15.9959 3.02937Q16.3401 2.68513 16.4557 2.2324Q16.5713 1.77967 16.4557 1.32694Q16.3401 0.874214 15.9959 0.537148Q15.6561 0.190163 15.2047 0.0759506Q14.7534-0.0382614 14.3007 0.0759506Q13.8479 0.190163 13.5037 0.537148Q13.1639 0.874214 13.0496 1.32694Q12.9353 1.77967 13.0496 2.2324Q13.1639 2.68513 13.5037 3.02937ZM13.7796 2.24216L1.91265 14.1286L2.40444 14.6204L14.2881 2.75349ZM0.525627 16.0074Q0.862694 16.3614 1.31405 16.477Q1.7654 16.5926 2.21813 16.477Q2.67086 16.3614 3.00793 16.0074Q3.35491 15.6704 3.46699 15.2176Q3.57906 14.7649 3.46699 14.3135Q3.35491 13.8622 3.00793 13.525Q2.67086 13.1781 2.21813 13.0661Q1.7654 12.954 1.31405 13.0661Q0.862694 13.1781 0.525627 13.525Q0.178642 13.8622 0.0595474 14.3135Q-0.0595474 14.7649 0.0595474 15.2176Q0.178642 15.6704 0.525627 16.0074Z" fill="#ffffff"/>
 </g>
</svg>
