<?xml version="1.0" encoding="UTF-8"?>
<!--Generator: Apple Native CoreSVG 175.5-->
<!DOCTYPE svg
PUBLIC "-//W3C//DTD SVG 1.1//EN"
       "http://www.w3.org/Graphics/SVG/1.1/DTD/svg11.dtd">
<svg version="1.1" xmlns="http://www.w3.org/2000/svg" xmlns:xlink="http://www.w3.org/1999/xlink" width="19.9219" height="19.9316">
 <g>
  <rect height="19.9316" opacity="0" width="19.9219" x="0" y="0"/>
  <path d="M9.96094 19.9219Q12.002 19.9219 13.8037 19.1406Q15.6055 18.3594 16.9824 16.9824Q18.3594 15.6055 19.1406 13.8037Q19.9219 12.002 19.9219 9.96094Q19.9219 7.91992 19.1406 6.11816Q18.3594 4.31641 16.9824 2.93945Q15.6055 1.5625 13.7988 0.78125Q11.9922 0 9.95117 0Q7.91016 0 6.1084 0.78125Q4.30664 1.5625 2.93457 2.93945Q1.5625 4.31641 0.78125 6.11816Q0 7.91992 0 9.96094Q0 12.002 0.78125 13.8037Q1.5625 15.6055 2.93945 16.9824Q4.31641 18.3594 6.11816 19.1406Q7.91992 19.9219 9.96094 19.9219ZM9.96094 18.2617Q8.23242 18.2617 6.72852 17.6172Q5.22461 16.9727 4.08691 15.835Q2.94922 14.6973 2.30957 13.1934Q1.66992 11.6895 1.66992 9.96094Q1.66992 8.23242 2.30957 6.72852Q2.94922 5.22461 4.08203 4.08203Q5.21484 2.93945 6.71875 2.2998Q8.22266 1.66016 9.95117 1.66016Q11.6797 1.66016 13.1885 2.2998Q14.6973 2.93945 15.835 4.08203Q16.9727 5.22461 17.6172 6.72852Q18.2617 8.23242 18.2617 9.96094Q18.2617 11.6895 17.6221 13.1934Q16.9824 14.6973 15.8398 15.835Q14.6973 16.9727 13.1934 17.6172Q11.6895 18.2617 9.96094 18.2617Z" fill="#ffffff"/>
  <path d="M5.6543 14.9414Q5.98633 15.2734 6.34277 15.249Q6.69922 15.2246 7.02148 14.8535L11.5137 9.74609L10.0684 8.31055L4.95117 12.7734Q4.58008 13.1055 4.55566 13.4619Q4.53125 13.8184 4.86328 14.1406ZM14.2676 10.7812Q14.4238 10.9277 14.585 10.9326Q14.7461 10.9375 14.9023 10.791L16.3574 9.3457Q16.5039 9.20898 16.499 9.04297Q16.4941 8.87695 16.3379 8.7207L15.9863 8.36914Q15.8398 8.22266 15.7324 8.18359Q15.625 8.14453 15.4688 8.16406L14.9121 8.22266L14.541 7.87109L14.707 7.1875Q14.834 6.66992 14.3066 6.15234L13.3398 5.18555Q12.666 4.52148 11.709 4.2627Q10.752 4.00391 9.79004 4.19922Q8.82812 4.39453 8.13477 5.07812Q7.95898 5.25391 7.96875 5.42969Q7.97852 5.60547 8.08594 5.73242Q8.17383 5.81055 8.30078 5.84961Q8.42773 5.88867 8.55469 5.83984Q9.25781 5.63477 9.87305 5.62988Q10.4883 5.625 11.0156 5.9375L10.6445 6.91406Q10.4297 7.48047 10.8301 7.89062L11.9043 8.96484Q12.1777 9.23828 12.6367 9.15039L13.4082 8.99414L13.7695 9.36523L13.7109 9.92188Q13.7012 10.0781 13.7354 10.1953Q13.7695 10.3125 13.9062 10.4395Z" fill="#ffffff"/>
 </g>
</svg>
