<?xml version="1.0" encoding="UTF-8"?>
<!--Generator: Apple Native CoreSVG 175.5-->
<!DOCTYPE svg
PUBLIC "-//W3C//DTD SVG 1.1//EN"
       "http://www.w3.org/Graphics/SVG/1.1/DTD/svg11.dtd">
<svg version="1.1" xmlns="http://www.w3.org/2000/svg" xmlns:xlink="http://www.w3.org/1999/xlink" width="23.0765" height="27.7637">
 <g>
  <rect height="27.7637" opacity="0" width="23.0765" x="0" y="0"/>
  <path d="M7.87109 22.959Q9.01367 24.1016 10.2637 24.6484Q11.5137 25.1953 12.7783 25.1855Q14.043 25.1758 15.2344 24.6387Q16.4258 24.1016 17.4512 23.0762Q19.1016 21.4355 19.4775 19.6729Q19.8535 17.9102 19.1504 15.8496Q18.9648 15.2637 18.7256 14.6631Q18.4863 14.0625 18.1885 13.4375Q17.8906 12.8125 17.5537 12.1582Q17.2168 11.5039 16.8457 10.8008Q16.6504 10.4199 16.4307 10Q16.2109 9.58008 16.0059 9.22852Q15.8008 8.87695 15.6348 8.71094Q15.3613 8.4375 15.0049 8.45215Q14.6484 8.4668 14.3555 8.75977Q14.0234 9.0918 14.0186 9.53125Q14.0137 9.9707 14.2676 10.7031L15.3223 13.6816Q15.4199 13.916 15.4053 14.0674Q15.3906 14.2188 15.3125 14.3066Q15.2051 14.4141 15.0684 14.4092Q14.9316 14.4043 14.7461 14.2188L7.5 6.97266Q7.19727 6.66992 6.7627 6.66992Q6.32812 6.66992 6.02539 6.97266Q5.71289 7.28516 5.71289 7.71973Q5.71289 8.1543 6.02539 8.45703L11.2012 13.6328Q11.0059 13.7207 10.8105 13.833Q10.6152 13.9453 10.4199 14.082L4.41406 8.07617Q4.10156 7.76367 3.66699 7.76367Q3.23242 7.76367 2.92969 8.07617Q2.62695 8.37891 2.62695 8.81348Q2.62695 9.24805 2.92969 9.55078L8.86719 15.4883Q8.71094 15.6641 8.56934 15.8496Q8.42773 16.0352 8.30078 16.2207L2.87109 10.791Q2.55859 10.4883 2.12402 10.4883Q1.68945 10.4883 1.38672 10.791Q1.08398 11.0938 1.08398 11.5332Q1.08398 11.9727 1.38672 12.2754L7.28516 18.1738Q7.19727 18.4277 7.13379 18.6719Q7.07031 18.916 7.02148 19.1504L2.91992 15.0488Q2.61719 14.7363 2.17773 14.7363Q1.73828 14.7363 1.43555 15.0488Q1.13281 15.3516 1.13281 15.7861Q1.13281 16.2207 1.43555 16.5234ZM12.9004 8.89648L10.9766 6.97266Q10.6738 6.66992 10.2344 6.66992Q9.79492 6.66992 9.49219 6.97266Q9.47266 6.99219 9.45312 7.03125L12.998 10.5859Q12.9102 10.127 12.8809 9.70703Q12.8516 9.28711 12.9004 8.89648ZM20.918 23.0859Q22.5684 21.4355 22.9443 19.6729Q23.3203 17.9102 22.627 15.8398Q22.4414 15.2637 22.1973 14.6631Q21.9531 14.0625 21.6602 13.4375Q21.3672 12.8125 21.0254 12.1582Q20.6836 11.5039 20.3125 10.8008Q20.1172 10.4199 19.8975 10Q19.6777 9.58008 19.4727 9.22852Q19.2676 8.87695 19.1016 8.7207Q18.8281 8.4375 18.4717 8.45215Q18.1152 8.4668 17.8223 8.75977Q17.627 8.95508 17.5391 9.20898Q17.7051 9.51172 17.8564 9.81445Q18.0078 10.1172 18.1738 10.4102Q18.5254 11.084 18.8574 11.7383Q19.1895 12.3926 19.4775 13.0273Q19.7656 13.6621 20.0098 14.2773Q20.2539 14.8926 20.4297 15.4785Q21.2402 17.9688 20.7422 20.0732Q20.2441 22.1777 18.3887 24.0137Q17.7637 24.6484 17.0508 25.1172Q18.0957 24.9707 19.0771 24.4531Q20.0586 23.9355 20.918 23.0859Z" fill="#ffffff"/>
  <path d="M14.6582 6.96289Q14.9316 6.96289 14.9512 6.67969Q15.0586 5.82031 15.1758 5.33203Q15.293 4.84375 15.5469 4.59473Q15.8008 4.3457 16.3037 4.21387Q16.8066 4.08203 17.6855 3.93555Q17.9785 3.90625 17.9785 3.65234Q17.9785 3.4082 17.7246 3.36914Q16.8359 3.20312 16.3281 3.07129Q15.8203 2.93945 15.5615 2.69531Q15.3027 2.45117 15.1807 1.97266Q15.0586 1.49414 14.9512 0.634766Q14.9316 0.351562 14.6582 0.351562Q14.4043 0.351562 14.3848 0.625Q14.2676 1.49414 14.1504 1.99219Q14.0332 2.49023 13.7793 2.74414Q13.5254 2.99805 13.0176 3.12012Q12.5098 3.24219 11.6113 3.36914Q11.5039 3.37891 11.4307 3.45703Q11.3574 3.53516 11.3574 3.65234Q11.3574 3.90625 11.6113 3.93555Q12.5098 4.11133 13.0176 4.24805Q13.5254 4.38477 13.7793 4.62891Q14.0332 4.87305 14.1504 5.35645Q14.2676 5.83984 14.3848 6.69922Q14.3945 6.81641 14.4727 6.88965Q14.5508 6.96289 14.6582 6.96289ZM8.125 4.32617Q8.31055 4.32617 8.34961 4.14062Q8.48633 3.4082 8.60352 3.09082Q8.7207 2.77344 9.0332 2.65137Q9.3457 2.5293 10.0879 2.39258Q10.293 2.34375 10.293 2.16797Q10.293 1.98242 10.0879 1.93359Q9.53125 1.82617 9.2334 1.73828Q8.93555 1.65039 8.78418 1.49414Q8.63281 1.33789 8.5498 1.03516Q8.4668 0.732422 8.34961 0.195312Q8.30078 0 8.125 0Q7.93945 0 7.90039 0.195312Q7.7832 0.732422 7.7002 1.03516Q7.61719 1.33789 7.46582 1.49414Q7.31445 1.65039 7.01172 1.73828Q6.70898 1.82617 6.16211 1.93359Q5.95703 1.98242 5.95703 2.16797Q5.95703 2.34375 6.16211 2.39258Q6.70898 2.5 7.0166 2.58789Q7.32422 2.67578 7.48047 2.82715Q7.63672 2.97852 7.71484 3.28613Q7.79297 3.59375 7.90039 4.14062Q7.93945 4.32617 8.125 4.32617ZM2.8125 26.0547Q3.00781 26.0547 3.04688 25.8301Q3.18359 25.1172 3.29102 24.707Q3.39844 24.2969 3.60352 24.0869Q3.80859 23.877 4.22852 23.7549Q4.64844 23.6328 5.40039 23.4961Q5.625 23.4375 5.625 23.2422Q5.625 23.0371 5.40039 22.998Q4.64844 22.8516 4.23828 22.7246Q3.82812 22.5977 3.62305 22.3877Q3.41797 22.1777 3.31055 21.7725Q3.20312 21.3672 3.04688 20.6543Q3.00781 20.4297 2.8125 20.4297Q2.61719 20.4297 2.56836 20.6543Q2.41211 21.3672 2.30469 21.7725Q2.19727 22.1777 1.99707 22.3877Q1.79688 22.5977 1.3916 22.7246Q0.986328 22.8516 0.224609 22.998Q0 23.0371 0 23.2422Q0 23.4375 0.224609 23.4961Q0.986328 23.6426 1.39648 23.7646Q1.80664 23.8867 2.01172 24.0967Q2.2168 24.3066 2.32422 24.7119Q2.43164 25.1172 2.56836 25.8301Q2.61719 26.0547 2.8125 26.0547Z" fill="#ffffff"/>
 </g>
</svg>
