<?xml version="1.0" encoding="UTF-8"?>
<!--Generator: Apple Native CoreSVG 175.5-->
<!DOCTYPE svg
PUBLIC "-//W3C//DTD SVG 1.1//EN"
       "http://www.w3.org/Graphics/SVG/1.1/DTD/svg11.dtd">
<svg version="1.1" xmlns="http://www.w3.org/2000/svg" xmlns:xlink="http://www.w3.org/1999/xlink" width="20.6641" height="20.4785">
 <g>
  <rect height="20.4785" opacity="0" width="20.6641" x="0" y="0"/>
  <path d="M7.80273 20.4785L17.6074 20.4785Q19.1309 20.4785 19.8975 19.7168Q20.6641 18.9551 20.6641 17.4512L20.6641 7.56836Q20.6641 6.06445 19.8975 5.30273Q19.1309 4.54102 17.6074 4.54102L7.80273 4.54102Q6.26953 4.54102 5.50293 5.29785Q4.73633 6.05469 4.73633 7.56836L4.73633 17.4512Q4.73633 18.9648 5.50293 19.7217Q6.26953 20.4785 7.80273 20.4785ZM0 12.9297Q0 14.4434 0.766602 15.2002Q1.5332 15.957 3.06641 15.957L3.39844 15.957L3.39844 7.56836Q3.39844 6.19141 3.9209 5.21484Q4.44336 4.23828 5.42969 3.72559Q6.41602 3.21289 7.80273 3.21289L15.9277 3.21289L15.9277 3.04688Q15.9277 1.54297 15.1611 0.78125Q14.3945 0.0195312 12.8711 0.0195312L3.06641 0.0195312Q1.5332 0.0195312 0.766602 0.776367Q0 1.5332 0 3.04688Z" fill="#ffffff"/>
  <path d="M9.01367 14.1895L9.01367 9.36523Q9.01367 9.13086 9.17969 8.96484Q9.3457 8.79883 9.59961 8.79883Q9.82422 8.79883 9.99512 8.96484Q10.166 9.13086 10.166 9.36523L10.166 12.3926Q10.2637 12.334 10.3613 12.2705Q10.459 12.207 10.5957 12.168L10.5957 7.75391Q10.5957 7.51953 10.7666 7.34863Q10.9375 7.17773 11.1621 7.17773Q11.3965 7.17773 11.5625 7.34863Q11.7285 7.51953 11.7285 7.75391L11.7285 11.7969Q11.8457 11.7773 11.9629 11.7627Q12.0801 11.748 12.1875 11.7383L12.1875 7.30469Q12.1875 7.07031 12.3535 6.9043Q12.5195 6.73828 12.7637 6.73828Q12.998 6.73828 13.1641 6.9043Q13.3301 7.07031 13.3301 7.30469L13.3301 11.7871Q13.4375 11.8262 13.5498 11.8555Q13.6621 11.8848 13.75 11.9141L13.75 8.04688Q13.75 7.8125 13.9209 7.65137Q14.0918 7.49023 14.3359 7.49023Q14.5605 7.49023 14.7314 7.65137Q14.9023 7.8125 14.9023 8.04688L14.9023 13.4766Q14.9023 13.7109 15.0684 13.7109Q15.1367 13.7109 15.1904 13.6572Q15.2441 13.6035 15.2832 13.4863L16.0156 11.9727Q16.2012 11.6016 16.3672 11.4355Q16.5332 11.2695 16.7871 11.2695Q17.0117 11.2695 17.1533 11.4062Q17.2949 11.543 17.2949 11.7578Q17.2949 11.9434 17.1826 12.2998Q17.0703 12.6562 16.9629 12.9883Q16.8066 13.5156 16.6504 13.999Q16.4941 14.4824 16.3232 14.917Q16.1523 15.3516 15.9473 15.7422Q15.4199 16.8457 14.5947 17.3438Q13.7695 17.8418 12.5879 17.8418Q11.5332 17.8418 10.7275 17.3975Q9.92188 16.9531 9.46777 16.1377Q9.01367 15.3223 9.01367 14.1895Z" fill="none"/>
 </g>
</svg>
