<?xml version="1.0" encoding="UTF-8"?>
<!--Generator: Apple Native CoreSVG 175.5-->
<!DOCTYPE svg
PUBLIC "-//W3C//DTD SVG 1.1//EN"
       "http://www.w3.org/Graphics/SVG/1.1/DTD/svg11.dtd">
<svg version="1.1" xmlns="http://www.w3.org/2000/svg" xmlns:xlink="http://www.w3.org/1999/xlink" width="20.8789" height="16.3379">
 <g>
  <rect height="16.3379" opacity="0" width="20.8789" x="0" y="0"/>
  <path d="M0 9.38477Q0 11.6113 0.893555 13.1641Q1.78711 14.7168 3.48145 15.5273Q5.17578 16.3379 7.55859 16.3379L9.52148 16.3379Q10.4199 16.3379 11.0693 16.0791Q11.7188 15.8203 12.0703 15.4004Q12.4219 14.9805 12.4219 14.4922Q12.4219 14.1504 12.0898 14.1504L11.2207 14.1504Q10.918 14.1504 10.7666 14.0137Q10.6152 13.877 10.6152 13.6914Q10.6152 13.4961 10.7666 13.3545Q10.918 13.2129 11.2207 13.2129L11.7969 13.2129Q12.5879 13.2129 13.0664 12.7637Q13.5449 12.3145 13.5449 11.6211Q13.5449 11.0254 13.0273 11.0254L11.8457 11.0254Q11.5234 11.0254 11.3721 10.8887Q11.2207 10.752 11.2207 10.5664Q11.2207 10.3613 11.3721 10.2246Q11.5234 10.0879 11.8457 10.0879L12.9395 10.0879Q13.8281 10.0879 14.2578 9.62891Q14.6875 9.16992 14.6875 8.50586Q14.6875 7.91016 14.1602 7.91016L11.8457 7.91016Q11.5234 7.91016 11.3721 7.77344Q11.2207 7.63672 11.2207 7.45117Q11.2207 7.24609 11.3721 7.10938Q11.5234 6.97266 11.8457 6.97266L19.6191 6.97266Q20.1855 6.97266 20.5322 6.64062Q20.8789 6.30859 20.8789 5.83008Q20.8789 5.3125 20.5322 4.99023Q20.1855 4.66797 19.6191 4.66797L8.22266 4.66797Q8.01758 4.66797 7.90527 4.55566Q7.79297 4.44336 7.79297 4.30664Q7.79297 4.0332 8.18359 3.87695L11.7383 2.36328Q12.1289 2.19727 12.3096 1.93848Q12.4902 1.67969 12.4902 1.33789Q12.4902 0.810547 12.1826 0.493164Q11.875 0.175781 11.4355 0.175781Q11.25 0.175781 11.1084 0.209961Q10.9668 0.244141 10.8398 0.292969L5.87891 1.94336Q3.79883 2.65625 2.5 3.77441Q1.20117 4.89258 0.600586 6.32324Q0 7.75391 0 9.38477Z" fill="#ffffff"/>
 </g>
</svg>
