<?xml version="1.0" encoding="UTF-8"?>
<!--Generator: Apple Native CoreSVG 175-->
<!DOCTYPE svg
PUBLIC "-//W3C//DTD SVG 1.1//EN"
       "http://www.w3.org/Graphics/SVG/1.1/DTD/svg11.dtd">
<svg version="1.1" xmlns="http://www.w3.org/2000/svg" xmlns:xlink="http://www.w3.org/1999/xlink" width="15.3394" height="17.427">
 <g>
  <rect height="17.427" opacity="0" width="15.3394" x="0" y="0"/>
  <path d="M11.2129 17.0392Q13.1067 16.3516 14.1421 15.1766Q15.1775 14.0016 15.3181 12.3381Q15.4587 10.6746 14.6704 8.50783L14.1341 7.03826Q13.8481 6.24892 13.4108 5.76842Q12.9735 5.28792 12.4887 5.11916Q12.004 4.9504 11.5645 5.11367Q11.2618 5.22384 11.3622 5.51681L11.6947 6.41753Q11.7571 6.58553 11.7085 6.70997Q11.6599 6.8344 11.55 6.87469Q11.4376 6.91924 11.3229 6.85454Q11.2082 6.78985 11.1501 6.61483L10.9152 5.98754Q10.6613 5.27465 10.0949 4.99145Q9.52853 4.70824 8.9133 4.93285Q8.37619 5.12816 8.55197 5.59691L8.98211 6.78084Q9.04025 6.94884 8.99516 7.07328Q8.95007 7.19771 8.84036 7.238Q8.72775 7.2824 8.61178 7.21915Q8.49582 7.15591 8.43326 6.98516L8.02966 5.8821Q7.73669 5.08132 7.18982 4.84557Q6.64294 4.60982 6.04464 4.82741Q5.50036 5.02273 5.67614 5.49148L6.47738 7.69805Q6.54269 7.86605 6.49402 7.98835Q6.44534 8.11065 6.33563 8.14803Q6.22302 8.19259 6.10705 8.12934Q5.99109 8.06609 5.92852 7.89535L3.53717 1.31209Q3.35162 0.804282 2.97091 0.614615Q2.59021 0.424948 2.16052 0.581198Q1.72976 0.740195 1.54559 1.13418Q1.36142 1.52816 1.54696 2.03597L4.85705 11.1204Q4.91137 11.2707 4.8479 11.3864Q4.78442 11.5021 4.66723 11.5411Q4.45392 11.615 4.24106 11.3922L1.81567 8.85863Q1.52545 8.55865 1.24087 8.49105Q0.956296 8.42345 0.695676 8.51958Q0.210141 8.69262 0.0695315 9.06081Q-0.0710783 9.42901 0.0726595 9.82665Q0.124234 9.96184 0.19534 10.0754Q0.266446 10.189 0.358609 10.3009L3.55975 14.3942Q5.17108 16.4473 7.18127 17.112Q9.19146 17.7766 11.2129 17.0392Z" fill="rgba(0,0,0,0.85)"/>
 </g>
</svg>
