<?xml version="1.0" encoding="UTF-8"?>
<!--Generator: Apple Native CoreSVG 175-->
<!DOCTYPE svg
PUBLIC "-//W3C//DTD SVG 1.1//EN"
       "http://www.w3.org/Graphics/SVG/1.1/DTD/svg11.dtd">
<svg version="1.1" xmlns="http://www.w3.org/2000/svg" xmlns:xlink="http://www.w3.org/1999/xlink" width="16.7773" height="25.3418">
 <g>
  <rect height="25.3418" opacity="0" width="16.7773" x="0" y="0"/>
  <path d="M8.82812 24.209Q10.625 24.209 12.041 23.4668Q13.457 22.7246 14.2822 21.2402Q15.1074 19.7559 15.1074 17.5293L15.1074 15.7227Q15.1074 14.043 14.4531 13.1592Q13.7988 12.2754 12.5488 12.2656Q12.4121 11.7676 12.0166 11.4697Q11.6211 11.1719 11.0352 11.1719Q10.6055 11.1719 10.1172 11.3379Q9.98047 10.8203 9.5752 10.5176Q9.16992 10.2148 8.57422 10.2148Q8.19336 10.2148 7.73438 10.3613L7.73438 6.83594Q7.73438 6.06445 7.27539 5.625Q6.81641 5.18555 6.18164 5.18555Q5.50781 5.18555 5.05371 5.625Q4.59961 6.06445 4.59961 6.83594L4.59961 15.8496Q4.59961 15.9375 4.52148 15.9375Q4.46289 15.9375 4.42383 15.8594L3.33984 13.1152Q3.11523 12.5684 2.73926 12.2998Q2.36328 12.0312 1.92383 12.0215Q1.31836 12.0215 0.869141 12.4121Q0.419922 12.8027 0.429688 13.4668Q0.439453 13.6328 0.473633 13.833Q0.507812 14.0332 0.566406 14.2188L2.39258 19.3945Q3.21289 21.7383 4.8584 22.9736Q6.50391 24.209 8.82812 24.209ZM8.83789 23.5742Q6.76758 23.5742 5.26367 22.4414Q3.75977 21.3086 3.00781 19.1699L1.19141 13.9941Q1.09375 13.7305 1.09375 13.4668Q1.09375 13.1348 1.33301 12.8955Q1.57227 12.6562 1.94336 12.6562Q2.50977 12.6562 2.80273 13.3789L4.05273 16.4258Q4.15039 16.6699 4.31152 16.7773Q4.47266 16.8848 4.6875 16.8848Q4.93164 16.8848 5.09766 16.7285Q5.26367 16.5723 5.26367 16.2988L5.26367 6.81641Q5.26367 6.35742 5.5127 6.0791Q5.76172 5.80078 6.18164 5.80078Q6.5918 5.80078 6.82617 6.0791Q7.06055 6.35742 7.06055 6.81641L7.06055 13.4668Q7.06055 13.623 7.14844 13.7402Q7.23633 13.8574 7.39258 13.8574Q7.55859 13.8574 7.6416 13.7402Q7.72461 13.623 7.72461 13.4668L7.72461 10.9863Q8.125 10.8301 8.50586 10.8301Q8.98438 10.8301 9.25293 11.1279Q9.52148 11.4258 9.52148 11.9727L9.52148 13.8281Q9.52148 14.043 9.62402 14.1357Q9.72656 14.2285 9.85352 14.2285Q9.98047 14.2285 10.083 14.1357Q10.1855 14.043 10.1855 13.8281L10.1855 11.9434Q10.5859 11.7871 10.957 11.7871Q11.4453 11.7871 11.7139 12.085Q11.9824 12.3828 11.9824 12.9297L11.9824 14.209Q11.9824 14.4141 12.0801 14.5068Q12.1777 14.5996 12.3145 14.5996Q12.4316 14.5996 12.5342 14.5068Q12.6367 14.4141 12.6367 14.209L12.6367 12.9102Q13.5156 12.9102 13.9795 13.6377Q14.4434 14.3652 14.4434 15.7617L14.4434 17.4902Q14.4434 19.5215 13.7158 20.8691Q12.9883 22.2168 11.7236 22.8955Q10.459 23.5742 8.83789 23.5742ZM1.50391 7.1875Q2.14844 7.1875 2.59277 6.73828Q3.03711 6.28906 3.03711 5.6543Q3.03711 5.0293 2.59277 4.58008Q2.14844 4.13086 1.50391 4.13086Q0.878906 4.13086 0.439453 4.58008Q0 5.0293 0 5.6543Q0 6.28906 0.439453 6.73828Q0.878906 7.1875 1.50391 7.1875ZM6.17188 3.05664Q6.80664 3.05664 7.25586 2.60742Q7.70508 2.1582 7.70508 1.52344Q7.70508 0.898438 7.25586 0.449219Q6.80664 0 6.17188 0Q5.54688 0 5.10254 0.449219Q4.6582 0.898438 4.6582 1.52344Q4.6582 2.1582 5.10254 2.60742Q5.54688 3.05664 6.17188 3.05664ZM10.8984 7.1875Q11.5332 7.1875 11.9824 6.73828Q12.4316 6.28906 12.4316 5.6543Q12.4316 5.0293 11.9824 4.58008Q11.5332 4.13086 10.8984 4.13086Q10.2734 4.13086 9.82422 4.58008Q9.375 5.0293 9.375 5.6543Q9.375 6.28906 9.82422 6.73828Q10.2734 7.1875 10.8984 7.1875ZM15.2441 7.1875Q15.8789 7.1875 16.3281 6.73828Q16.7773 6.28906 16.7773 5.6543Q16.7773 5.0293 16.3281 4.58008Q15.8789 4.13086 15.2441 4.13086Q14.6191 4.13086 14.1699 4.58008Q13.7207 5.0293 13.7207 5.6543Q13.7207 6.28906 14.1699 6.73828Q14.6191 7.1875 15.2441 7.1875ZM15.2441 3.05664Q15.8789 3.05664 16.3281 2.60742Q16.7773 2.1582 16.7773 1.52344Q16.7773 0.898438 16.3281 0.449219Q15.8789 0 15.2441 0Q14.6191 0 14.1699 0.449219Q13.7207 0.898438 13.7207 1.52344Q13.7207 2.1582 14.1699 2.60742Q14.6191 3.05664 15.2441 3.05664Z" fill="rgba(0,0,0,0.85)"/>
 </g>
</svg>
