<?xml version="1.0" encoding="UTF-8"?>
<!--Generator: Apple Native CoreSVG 175.5-->
<!DOCTYPE svg
PUBLIC "-//W3C//DTD SVG 1.1//EN"
       "http://www.w3.org/Graphics/SVG/1.1/DTD/svg11.dtd">
<svg version="1.1" xmlns="http://www.w3.org/2000/svg" xmlns:xlink="http://www.w3.org/1999/xlink" width="19.9219" height="19.9316">
 <g>
  <rect height="19.9316" opacity="0" width="19.9219" x="0" y="0"/>
  <path d="M9.96094 19.9219Q12.002 19.9219 13.8037 19.1406Q15.6055 18.3594 16.9824 16.9824Q18.3594 15.6055 19.1406 13.8037Q19.9219 12.002 19.9219 9.96094Q19.9219 7.91992 19.1406 6.11816Q18.3594 4.31641 16.9824 2.93945Q15.6055 1.5625 13.7988 0.78125Q11.9922 0 9.95117 0Q7.91016 0 6.1084 0.78125Q4.30664 1.5625 2.93457 2.93945Q1.5625 4.31641 0.78125 6.11816Q0 7.91992 0 9.96094Q0 12.002 0.78125 13.8037Q1.5625 15.6055 2.93945 16.9824Q4.31641 18.3594 6.11816 19.1406Q7.91992 19.9219 9.96094 19.9219Z" fill="#ffffff"/>
  <path d="M4.20898 11.6016Q4.20898 10.7715 4.49219 10.0977Q4.77539 9.42383 5.26367 9.02344Q5.75195 8.62305 6.35742 8.62305L7.14844 8.62305Q6.79688 9.07227 6.46973 9.7998Q6.14258 10.5273 6.13281 11.5527Q6.12305 12.4805 6.45508 13.2617Q6.78711 14.043 7.5293 14.5898L6.55273 14.5898Q5.87891 14.5898 5.34668 14.1797Q4.81445 13.7695 4.51172 13.0908Q4.20898 12.4121 4.20898 11.6016ZM6.86523 11.5625Q6.875 10.5957 7.13867 9.92676Q7.40234 9.25781 7.91992 8.57422Q8.54492 7.74414 9.28711 6.76758Q10.0293 5.79102 10.6445 4.60938Q10.791 4.30664 10.9619 4.12109Q11.1328 3.93555 11.4258 3.93555Q11.7383 3.93555 11.958 4.15039Q12.1777 4.36523 12.1777 4.73633Q12.1777 5.21484 11.9531 5.77637Q11.7285 6.33789 11.499 6.86523Q11.2695 7.39258 11.2695 7.75391Q11.2695 8.06641 11.4893 8.24219Q11.709 8.41797 12.0898 8.41797L14.0039 8.41797Q14.4043 8.41797 14.6729 8.69629Q14.9414 8.97461 14.9414 9.38477Q14.9414 9.59961 14.8682 9.78516Q14.7949 9.9707 14.6777 10.0879Q14.541 10.1855 14.6582 10.2734Q14.7559 10.3809 14.8145 10.5664Q14.873 10.752 14.873 10.9375Q14.873 11.4941 14.4434 11.748Q14.3066 11.8262 14.4043 11.9629Q14.6191 12.1973 14.6191 12.5781Q14.6191 12.9004 14.4287 13.1299Q14.2383 13.3594 13.9941 13.457Q13.9062 13.4961 13.9648 13.6133Q14.0039 13.6914 14.043 13.8184Q14.082 13.9453 14.082 14.0918Q14.082 14.4824 13.8184 14.6826Q13.5547 14.8828 13.2227 14.9707Q12.998 15.0195 12.6172 15.0537Q12.2363 15.0879 11.7188 15.0879L10.9668 15.0781Q9.70703 15.0684 8.7793 14.6045Q7.85156 14.1406 7.34863 13.3496Q6.8457 12.5586 6.86523 11.5625Z" fill="none"/>
 </g>
</svg>
