<?xml version="1.0" encoding="UTF-8"?>
<!--Generator: Apple Native CoreSVG 175.5-->
<!DOCTYPE svg
PUBLIC "-//W3C//DTD SVG 1.1//EN"
       "http://www.w3.org/Graphics/SVG/1.1/DTD/svg11.dtd">
<svg version="1.1" xmlns="http://www.w3.org/2000/svg" xmlns:xlink="http://www.w3.org/1999/xlink" width="19.9219" height="19.9316">
 <g>
  <rect height="19.9316" opacity="0" width="19.9219" x="0" y="0"/>
  <path d="M9.96094 19.9219Q12.002 19.9219 13.8037 19.1406Q15.6055 18.3594 16.9824 16.9824Q18.3594 15.6055 19.1406 13.8037Q19.9219 12.002 19.9219 9.96094Q19.9219 7.91992 19.1406 6.11816Q18.3594 4.31641 16.9824 2.93945Q15.6055 1.5625 13.7988 0.78125Q11.9922 0 9.95117 0Q7.91016 0 6.1084 0.78125Q4.30664 1.5625 2.93457 2.93945Q1.5625 4.31641 0.78125 6.11816Q0 7.91992 0 9.96094Q0 12.002 0.78125 13.8037Q1.5625 15.6055 2.93945 16.9824Q4.31641 18.3594 6.11816 19.1406Q7.91992 19.9219 9.96094 19.9219Z" fill="#ffffff"/>
  <path d="M5.91797 11.7676L5.91797 6.32812Q5.91797 6.06445 6.11328 5.86914Q6.30859 5.67383 6.58203 5.67383Q6.83594 5.67383 7.02637 5.86914Q7.2168 6.06445 7.2168 6.32812L7.2168 9.74609Q7.33398 9.67773 7.44629 9.60938Q7.55859 9.54102 7.70508 9.48242L7.70508 4.49219Q7.70508 4.22852 7.89551 4.04297Q8.08594 3.85742 8.34961 3.85742Q8.61328 3.85742 8.80371 4.04297Q8.99414 4.22852 8.99414 4.49219L8.99414 9.0625Q9.13086 9.04297 9.25781 9.02832Q9.38477 9.01367 9.50195 8.99414L9.50195 3.99414Q9.50195 3.74023 9.69238 3.54492Q9.88281 3.34961 10.1562 3.34961Q10.4297 3.34961 10.6152 3.54492Q10.8008 3.74023 10.8008 3.99414L10.8008 9.05273Q10.9277 9.0918 11.0498 9.13086Q11.1719 9.16992 11.2891 9.19922L11.2891 4.84375Q11.2891 4.58008 11.4746 4.38965Q11.6602 4.19922 11.9238 4.19922Q12.1875 4.19922 12.3779 4.38965Q12.5684 4.58008 12.5684 4.84375L12.5684 10.9766Q12.5684 11.1133 12.6172 11.1719Q12.666 11.2305 12.7637 11.2305Q12.8223 11.2305 12.8857 11.1768Q12.9492 11.123 13.0078 10.9863L13.8281 9.26758Q14.0332 8.85742 14.2236 8.66699Q14.4141 8.47656 14.707 8.47656Q14.9609 8.47656 15.1221 8.62793Q15.2832 8.7793 15.2832 9.02344Q15.2832 9.22852 15.1562 9.62891Q15.0293 10.0293 14.9121 10.4102Q14.7363 11.0059 14.5557 11.5527Q14.375 12.0996 14.1797 12.5928Q13.9844 13.0859 13.7598 13.5156Q13.1543 14.7656 12.2217 15.3271Q11.2891 15.8887 9.95117 15.8887Q8.76953 15.8887 7.85645 15.3906Q6.94336 14.8926 6.43066 13.9697Q5.91797 13.0469 5.91797 11.7676Z" fill="none"/>
 </g>
</svg>
