<?xml version="1.0" encoding="UTF-8"?>
<!--Generator: Apple Native CoreSVG 175-->
<!DOCTYPE svg
PUBLIC "-//W3C//DTD SVG 1.1//EN"
       "http://www.w3.org/Graphics/SVG/1.1/DTD/svg11.dtd">
<svg version="1.1" xmlns="http://www.w3.org/2000/svg" xmlns:xlink="http://www.w3.org/1999/xlink" width="20.8887" height="25.2185">
 <g>
  <rect height="25.2185" opacity="0" width="20.8887" x="0" y="0"/>
  <path d="M13.2028 6.93481Q13.3426 6.93481 13.3621 6.79916Q13.5118 5.87662 13.6325 5.3672Q13.7532 4.85779 14.0071 4.60876Q14.261 4.35974 14.7815 4.2244Q15.302 4.08905 16.2415 3.90747Q16.3895 3.88519 16.3895 3.75778Q16.3895 3.62625 16.2454 3.60123Q15.3102 3.414 14.7884 3.27866Q14.2665 3.14331 14.0099 2.89566Q13.7532 2.64801 13.6325 2.14493Q13.5118 1.64185 13.3621 0.719147Q13.3426 0.569611 13.2028 0.569611Q13.0754 0.569611 13.0559 0.7164Q12.9106 1.64185 12.7899 2.14691Q12.6692 2.65198 12.4188 2.90237Q12.1684 3.15277 11.643 3.28888Q11.1176 3.42499 10.17 3.60123Q10.1091 3.61099 10.0674 3.65044Q10.0258 3.68988 10.0258 3.75778Q10.0258 3.88519 10.17 3.90747Q11.1176 4.09729 11.643 4.23401Q12.1684 4.37073 12.4174 4.62189Q12.6665 4.87305 12.7885 5.37758Q12.9106 5.88211 13.0559 6.79764Q13.0656 6.85867 13.1086 6.89674Q13.1516 6.93481 13.2028 6.93481ZM6.78909 4.46686Q6.87347 4.46686 6.89423 4.37973Q7.01691 3.55591 7.15027 3.17871Q7.28363 2.80151 7.66785 2.64786Q8.05206 2.4942 8.91373 2.35046Q9.0274 2.32971 9.0274 2.23129Q9.0274 2.13715 8.91373 2.11639Q8.27271 1.98792 7.92427 1.87187Q7.57584 1.75583 7.40822 1.56448Q7.2406 1.37314 7.14005 1.02821Q7.03949 0.683289 6.89423 0.0898743Q6.87347 0 6.78909 0Q6.70197 0 6.68396 0.0898743Q6.5387 0.683289 6.44516 1.02821Q6.35162 1.37314 6.18263 1.56448Q6.01364 1.75583 5.66521 1.87187Q5.31677 1.98792 4.66171 2.11639Q4.54803 2.13715 4.54803 2.23129Q4.54803 2.32971 4.66171 2.35046Q5.31677 2.47894 5.6842 2.58789Q6.05164 2.69684 6.23108 2.87987Q6.41052 3.0629 6.49704 3.4127Q6.58356 3.76251 6.68396 4.37973Q6.70197 4.46686 6.78909 4.46686ZM2.55661 24.3111Q2.64923 24.3111 2.68127 24.213Q2.77573 23.5071 2.87613 23.0969Q2.97653 22.6868 3.18863 22.4698Q3.40073 22.2528 3.82286 22.1307Q4.245 22.0087 4.98978 21.879Q5.10895 21.8556 5.10895 21.7517Q5.10895 21.6521 4.98978 21.627Q4.25476 21.4806 3.85513 21.3466Q3.45551 21.2126 3.26096 20.9921Q3.06641 20.7716 2.95547 20.3734Q2.84454 19.9751 2.68127 19.2973Q2.64923 19.1992 2.55661 19.1992Q2.46246 19.1992 2.43912 19.2973Q2.27142 19.9751 2.16751 20.3734Q2.0636 20.7716 1.8705 20.9921Q1.6774 21.2126 1.27777 21.3466Q0.878143 21.4806 0.12619 21.627Q0 21.6521 0 21.7517Q0 21.8556 0.12619 21.879Q0.878143 22.0325 1.3002 22.1581Q1.72226 22.2836 1.92734 22.4936Q2.13242 22.7036 2.23145 23.1053Q2.33047 23.5071 2.43912 24.213Q2.46246 24.3111 2.55661 24.3111ZM16.5427 21.8907Q18.1931 20.2431 18.4776 18.2087Q18.7622 16.1743 17.695 13.934L15.322 8.97888Q15.1437 8.60596 14.8875 8.34961Q14.4461 7.90817 13.8563 7.91229Q13.2664 7.91641 12.8094 8.37616Q12.5043 8.67859 12.4291 9.14558Q12.354 9.61258 12.5813 10.1633L13.7488 12.8691Q13.7851 12.9515 13.739 12.9906Q13.6874 13.0464 13.6288 12.9878L7.29736 6.65634Q6.76208 6.12106 6.16798 6.11267Q5.57388 6.10428 5.11719 6.56097Q4.90936 6.7688 4.79568 7.03812Q4.68201 7.30743 4.71024 7.60895Q4.18915 7.13593 3.59787 7.09572Q3.00659 7.05551 2.52426 7.53799Q2.04727 8.00781 2.07207 8.63342Q2.09686 9.25903 2.55737 9.76059Q1.96411 9.70703 1.52145 10.1567Q1.06873 10.6024 1.08124 11.1919Q1.09375 11.7813 1.62506 12.3154L2.57233 13.2599Q2.26791 13.2317 1.9931 13.3502Q1.71829 13.4688 1.50787 13.6864Q1.05515 14.1321 1.07246 14.7214Q1.08978 15.3107 1.62659 15.8376L7.38129 21.5993Q8.95737 23.1755 10.5906 23.6443Q12.2238 24.113 13.7541 23.6324Q15.2844 23.1517 16.5427 21.8907ZM16.0765 21.4297Q14.9261 22.5801 13.5557 22.9969Q12.1852 23.4137 10.7223 22.9768Q9.25934 22.5398 7.83051 21.1082L2.11212 15.3926Q1.79184 15.0696 1.75392 14.7131Q1.716 14.3567 2.01523 14.0575Q2.30743 13.768 2.68768 13.7821Q3.06793 13.7962 3.38821 14.1165L6.77307 17.504Q6.92612 17.6544 7.06619 17.6503Q7.20627 17.6462 7.2879 17.5575Q7.38632 17.4661 7.38831 17.3282Q7.39029 17.1902 7.23709 17.0399L2.0903 11.8903Q1.76727 11.57 1.72935 11.2135Q1.69144 10.8571 1.99066 10.5649Q2.28287 10.2657 2.66312 10.2798Q3.04337 10.2939 3.36639 10.6239L8.16177 15.4121Q8.31207 15.5653 8.44864 15.5612Q8.58521 15.5571 8.67661 15.4657Q8.77502 15.3743 8.77563 15.2377Q8.77625 15.1012 8.62579 14.9481L3.05542 9.37775Q2.72537 9.05746 2.69592 8.6631Q2.66647 8.26874 2.9657 7.97668Q3.24097 7.6915 3.62129 7.73643Q4.00162 7.78137 4.32465 8.1044L9.90906 13.6816Q10.0145 13.7943 10.1581 13.821Q10.3017 13.8477 10.4141 13.7282Q10.5293 13.62 10.5039 13.475Q10.4785 13.3301 10.3703 13.2176L5.56793 8.41965Q5.2449 8.09921 5.22949 7.72034Q5.21408 7.34146 5.50629 7.04224Q5.80551 6.75003 6.16333 6.78658Q6.52115 6.82312 6.84418 7.14615L13.4723 13.7743Q13.6699 13.9719 13.8969 13.9592Q14.1238 13.9465 14.2966 13.781Q14.4469 13.6305 14.4844 13.4399Q14.5219 13.2492 14.4176 13.0048L13.1337 9.9324Q12.9434 9.49768 13.0446 9.15237Q13.1458 8.80707 13.4981 8.64075Q13.8629 8.47153 14.1817 8.63579Q14.5004 8.80005 14.7086 9.22897L17.0938 14.2137Q18.0746 16.2505 17.8053 18.1104Q17.536 19.9704 16.0765 21.4297ZM7.46948 5.68207Q7.25464 5.88715 7.14806 6.15784Q7.04147 6.42853 7.05978 6.73004L7.91061 7.54074Q7.59735 7.21329 7.57835 6.83304Q7.55936 6.45279 7.85858 6.16058Q8.15079 5.86136 8.5051 5.90279Q8.85941 5.94421 9.18671 6.26022L12.5 9.57352L12.7496 8.87741L9.64691 5.77042Q9.11179 5.23514 8.526 5.23026Q7.94022 5.22537 7.46948 5.68207ZM18.8922 21.0075Q20.5426 19.3712 20.8286 17.3347Q21.1145 15.2982 20.0403 13.0481L17.6645 8.09738Q17.4251 7.57935 17.0142 7.3317Q16.6032 7.08405 16.1481 7.08405Q15.8574 7.08405 15.5877 7.18246Q15.318 7.28088 15.1057 7.47406Q14.8933 7.66724 14.7704 7.93953Q14.6474 8.21182 14.6474 8.55667Q14.6474 8.73947 14.702 8.95203L15.3833 9.11957Q15.2574 8.8414 15.2574 8.61526Q15.2574 8.24036 15.4922 7.99225Q15.7269 7.74414 16.1591 7.74414Q16.7558 7.74414 17.0605 8.36884L19.4461 13.3208Q20.4312 15.3618 20.1633 17.2231Q19.8953 19.0845 18.4262 20.5481Q17.0828 21.8915 15.4875 22.2231L14.575 22.9817Q15.7527 22.9787 16.8494 22.4626Q17.9462 21.9466 18.8922 21.0075Z" fill="rgba(0,0,0,0.85)"/>
 </g>
</svg>
