<?xml version="1.0" encoding="UTF-8"?>
<!--Generator: Apple Native CoreSVG 175-->
<!DOCTYPE svg
PUBLIC "-//W3C//DTD SVG 1.1//EN"
       "http://www.w3.org/Graphics/SVG/1.1/DTD/svg11.dtd">
<svg version="1.1" xmlns="http://www.w3.org/2000/svg" xmlns:xlink="http://www.w3.org/1999/xlink" width="29.1824" height="22.4942">
 <g>
  <rect height="22.4942" opacity="0" width="29.1824" x="0" y="0"/>
  <path d="M20.2887 19.8817Q21.0484 19.8817 21.6006 19.6725Q22.1527 19.4633 22.4516 19.1073Q22.7504 18.7512 22.7504 18.3015Q22.7504 17.4324 22.1133 16.7696Q21.4761 16.1067 20.3391 15.7343Q19.202 15.3618 17.7161 15.3618Q17.2849 15.3618 16.9715 15.3799Q16.6582 15.3981 16.4146 15.4317Q16.1711 15.4652 15.9532 15.5086L15.3175 14.1133Q14.4418 12.1953 13.4071 11.1377Q12.3723 10.0801 11.2283 9.65904Q10.0844 9.23798 8.89023 9.23798Q8.60428 9.23798 8.28201 9.26315Q7.95975 9.28833 7.75543 9.33563Q7.56287 9.38553 7.4678 9.47128Q7.37274 9.55704 7.37274 9.69574Q7.37274 9.84528 7.48093 9.92912Q7.58911 10.013 7.74414 9.99176Q7.97226 9.95392 8.27621 9.93164Q8.58017 9.90936 8.87817 9.90936Q9.97742 9.90936 10.9924 10.2947Q12.0074 10.6801 12.9363 11.668Q13.8652 12.6559 14.716 14.4754L15.5411 16.2735Q16.0274 16.1633 16.4797 16.0922Q16.9321 16.0211 17.7269 16.0211Q18.9243 16.0211 19.9076 16.31Q20.891 16.5988 21.4706 17.1039Q22.0503 17.6089 22.0503 18.2758Q22.0503 18.6594 21.5601 18.9233Q21.0699 19.1872 20.2887 19.1872Q19.6812 19.1872 19.0643 19.0369Q18.4473 18.8867 17.7774 18.8867Q17.2395 18.8867 16.8165 18.9602Q16.3934 19.0337 16.0264 19.1035Q15.6593 19.1734 15.2734 19.1734Q14.7911 19.1734 14.2997 19.0096Q13.8083 18.8457 13.3176 18.4727L9.33212 15.48Q7.16415 15.5734 5.43327 14.9668Q3.70239 14.3602 2.62894 12.7278Q1.73904 12.7594 1.22971 12.3897Q0.720367 12.02 0.720367 11.3484Q0.720367 10.7356 1.17935 10.3797Q1.63834 10.0238 2.43484 10.0629Q3.30627 7.54303 4.98169 6.26648Q6.6571 4.98993 9.01245 4.98993Q10.1337 4.98993 11.1787 5.28893Q12.2238 5.58792 13.2223 6.08635Q14.2207 6.58478 15.2164 7.19612Q16.2122 7.80746 17.2443 8.44193Q18.018 8.91769 18.5548 9.10728Q19.0915 9.29688 19.5891 9.29688Q20.1508 9.29688 20.6842 8.88748Q21.2177 8.47809 22.0117 7.55829L15.9578 4.01138Q15.2126 3.57147 14.6967 3.21098Q14.1809 2.85049 13.911 2.56706Q13.6411 2.28363 13.6411 2.09061Q13.6411 1.75125 14.0592 1.43387Q14.4774 1.11649 15.1192 0.914307Q15.761 0.712128 16.425 0.712128Q17.7208 0.712128 18.8828 1.39183Q20.0449 2.07153 20.9125 3.29346L23.5379 6.96884Q24.5027 6.82159 25.3886 7.16339Q26.2746 7.50519 26.9794 8.21297Q27.6843 8.92075 28.0962 9.88129Q28.5081 10.8418 28.5081 11.9418Q28.5081 12.8363 28.2095 13.3541Q27.9109 13.8719 27.2178 14.0945Q26.5247 14.3172 25.3375 14.3172Q24.2117 14.3172 23.1033 13.8496Q21.9949 13.3821 21.2485 12.5851Q20.3137 13.0727 19.4711 13.5633Q18.6285 14.054 17.8889 14.5317Q17.1492 15.0095 16.5254 15.4617L16.9962 15.9024Q17.9251 15.2832 19.0309 14.5951Q20.1367 13.907 21.093 13.3508Q21.6859 13.8751 22.3897 14.2377Q23.0934 14.6004 23.8469 14.7904Q24.6004 14.9805 25.3238 14.9777Q26.6774 14.975 27.5262 14.6844Q28.3751 14.3938 28.7788 13.7291Q29.1824 13.0644 29.1824 11.9391Q29.1824 10.7384 28.7465 9.68582Q28.3105 8.63327 27.5629 7.84576Q26.8153 7.05826 25.8627 6.642Q24.9101 6.22574 23.8672 6.30035L21.5652 2.96951Q20.5766 1.5567 19.2487 0.778351Q17.9207 0 16.4195 0Q15.768 0 15.1395 0.163879Q14.511 0.327759 13.9963 0.610733Q13.4816 0.893707 13.1767 1.26579Q12.8719 1.63788 12.8719 2.04727Q12.8719 2.4379 13.1846 2.81174Q13.4973 3.18558 14.1008 3.61465Q14.7043 4.04373 15.5754 4.57077Q16.2207 4.95468 16.8836 5.34256Q17.5465 5.73044 18.2195 6.1203Q18.8925 6.51016 19.5697 6.90628Q20.2469 7.3024 20.9262 7.69577Q20.4312 8.17108 20.1427 8.37929Q19.8543 8.58749 19.5633 8.58749Q19.1559 8.58749 18.716 8.41896Q18.2762 8.25043 17.5551 7.80075Q16.404 7.10861 15.3577 6.47247Q14.3114 5.83633 13.2964 5.33943Q12.2813 4.84253 11.2267 4.55467Q10.172 4.26682 9.01093 4.26682Q6.50436 4.26682 4.68872 5.59593Q2.87308 6.92505 1.9075 9.46716Q1.04141 9.55704 0.520706 10.0629Q0 10.5688 0 11.3672Q0 11.9814 0.287476 12.4237Q0.574951 12.8661 1.08162 13.1206Q1.58829 13.3751 2.25815 13.4142Q2.95898 14.4263 3.99529 15.0588Q5.03159 15.6914 6.32202 15.9664Q7.61246 16.2415 9.06174 16.161L12.9286 19.0607Q13.475 19.4614 14.0553 19.6716Q14.6356 19.8817 15.2625 19.8817Q15.7582 19.8817 16.3822 19.7274Q17.0062 19.5731 17.784 19.5731Q18.582 19.5731 19.1026 19.7274Q19.6231 19.8817 20.2887 19.8817ZM8.56598 20.8591Q9.39728 20.8591 10.2299 20.7011Q11.0625 20.5431 11.8488 20.1481Q12.6352 19.7531 13.3395 19.0384L12.7754 18.5977Q12.1953 19.2149 11.5092 19.56Q10.8231 19.9051 10.0764 20.0449Q9.32968 20.1848 8.5524 20.1848Q7.29492 20.1848 6.59668 19.7586Q5.89844 19.3324 5.89844 18.5919Q5.89844 18.1793 6.1676 17.9124Q6.43677 17.6454 7.00699 17.6454Q7.4762 17.6454 8.01605 17.8149Q8.55591 17.9845 9.2746 17.9845Q9.98627 17.9845 10.4716 17.8585Q10.957 17.7325 11.3406 17.4937L10.7289 16.9879Q10.3761 17.1622 10.0551 17.2463Q9.73404 17.3305 9.3219 17.3305Q8.86597 17.3305 8.47694 17.2451Q8.08792 17.1597 7.72987 17.0709Q7.37183 16.9821 7.02194 16.9821Q6.1821 16.9821 5.69572 17.4292Q5.20935 17.8763 5.20935 18.5892Q5.20935 19.6564 6.11252 20.2577Q7.01569 20.8591 8.56598 20.8591ZM24.873 11.1015Q25.1711 11.1015 25.3855 10.8884Q25.6 10.6754 25.6 10.3773Q25.6 10.0793 25.3855 9.86626Q25.1711 9.65317 24.873 9.65317Q24.575 9.65317 24.362 9.86626Q24.1489 10.0793 24.1489 10.3773Q24.1489 10.6754 24.362 10.8884Q24.575 11.1015 24.873 11.1015Z" fill="#ffffff"/>
 </g>
</svg>
