<?xml version="1.0" encoding="UTF-8"?>
<!--Generator: Apple Native CoreSVG 175.5-->
<!DOCTYPE svg
PUBLIC "-//W3C//DTD SVG 1.1//EN"
       "http://www.w3.org/Graphics/SVG/1.1/DTD/svg11.dtd">
<svg version="1.1" xmlns="http://www.w3.org/2000/svg" xmlns:xlink="http://www.w3.org/1999/xlink" width="19.8828" height="20.7129">
 <g>
  <rect height="20.7129" opacity="0" width="19.8828" x="0" y="0"/>
  <path d="M0 10.6934Q0 12.168 0.273438 13.6963Q0.546875 15.2246 1.05957 16.6797Q1.57227 18.1348 2.28516 19.3945Q2.46094 19.707 2.77832 19.79Q3.0957 19.873 3.42773 19.6875Q3.74023 19.5215 3.81348 19.2041Q3.88672 18.8867 3.70117 18.5449Q2.72461 16.7578 2.19238 14.7119Q1.66016 12.666 1.66016 10.6934Q1.66016 8.66211 2.25098 7.00195Q2.8418 5.3418 3.93555 4.14551Q5.0293 2.94922 6.55273 2.30469Q8.07617 1.66016 9.94141 1.66016Q11.7969 1.66016 13.3203 2.30469Q14.8438 2.94922 15.9424 4.14551Q17.041 5.3418 17.6318 7.00195Q18.2227 8.66211 18.2227 10.6934Q18.2227 12.666 17.6855 14.7119Q17.1484 16.7578 16.1719 18.5449Q15.9863 18.8867 16.0596 19.2041Q16.1328 19.5215 16.4453 19.6875Q16.7773 19.873 17.0947 19.79Q17.4121 19.707 17.5879 19.3945Q18.3008 18.1348 18.8184 16.6797Q19.3359 15.2246 19.6094 13.6963Q19.8828 12.168 19.8828 10.6934Q19.8828 8.28125 19.1748 6.31348Q18.4668 4.3457 17.1533 2.93457Q15.8398 1.52344 14.0088 0.761719Q12.1777 0 9.94141 0Q7.69531 0 5.86426 0.761719Q4.0332 1.52344 2.72461 2.93457Q1.41602 4.3457 0.708008 6.31348Q0 8.28125 0 10.6934ZM3.05664 19.1504Q3.30078 19.9902 3.95996 20.3516Q4.61914 20.7129 5.46875 20.4688Q6.31836 20.2246 6.67969 19.5557Q7.04102 18.8867 6.78711 18.0469L5.39062 13.2812Q5.14648 12.4414 4.4873 12.085Q3.82812 11.7285 2.97852 11.9629Q2.12891 12.207 1.76758 12.876Q1.40625 13.5449 1.66016 14.3945ZM16.8164 19.1504L18.2129 14.3945Q18.4668 13.5352 18.1055 12.8711Q17.7441 12.207 16.8945 11.9629Q16.0449 11.7285 15.3857 12.085Q14.7266 12.4414 14.4824 13.2812L13.0859 18.0469Q12.832 18.8965 13.1982 19.5605Q13.5645 20.2246 14.4043 20.4688Q15.2539 20.7129 15.9131 20.3516Q16.5723 19.9902 16.8164 19.1504Z" fill="#ffffff"/>
 </g>
</svg>
