<?xml version="1.0" encoding="UTF-8"?>
<!--Generator: Apple Native CoreSVG 175-->
<!DOCTYPE svg
PUBLIC "-//W3C//DTD SVG 1.1//EN"
       "http://www.w3.org/Graphics/SVG/1.1/DTD/svg11.dtd">
<svg version="1.1" xmlns="http://www.w3.org/2000/svg" xmlns:xlink="http://www.w3.org/1999/xlink" width="18.9688" height="19.6021">
 <g>
  <rect height="19.6021" opacity="0" width="18.9688" x="0" y="0"/>
  <path d="M0 10.2293Q0 11.6689 0.266418 13.155Q0.532837 14.6411 1.03149 16.0575Q1.53015 17.4739 2.23587 18.7056Q2.30621 18.8423 2.45132 18.876Q2.59644 18.9098 2.75284 18.8298Q2.88239 18.7552 2.90993 18.61Q2.93747 18.4648 2.84332 18.2988Q1.8457 16.4696 1.29593 14.3639Q0.746155 12.2583 0.746155 10.2293Q0.746155 8.10669 1.37215 6.36215Q1.99814 4.61761 3.15514 3.36159Q4.31213 2.10556 5.91644 1.42586Q7.52075 0.746155 9.48441 0.746155Q11.4453 0.746155 13.0496 1.42586Q14.6539 2.10556 15.8123 3.36159Q16.9707 4.61761 17.5967 6.36215Q18.2227 8.10669 18.2227 10.2293Q18.2227 12.2583 17.6715 14.3639Q17.1204 16.4696 16.1156 18.2988Q16.0284 18.4648 16.056 18.61Q16.0835 18.7552 16.2132 18.8298Q16.3695 18.9098 16.5147 18.876Q16.6599 18.8423 16.73 18.7056Q17.4359 17.4739 17.9359 16.0575Q18.436 14.6411 18.7024 13.155Q18.9688 11.6689 18.9688 10.2293Q18.9688 7.91565 18.296 6.03226Q17.6231 4.14886 16.3729 2.79747Q15.1227 1.44608 13.376 0.723038Q11.6293 0 9.48441 0Q7.33673 0 5.59006 0.723038Q3.84338 1.44608 2.59453 2.79747Q1.34567 4.14886 0.672836 6.03226Q0 7.91565 0 10.2293ZM2.30438 18.4262Q2.51328 19.0762 3.01079 19.3321Q3.5083 19.588 4.18213 19.386Q4.82773 19.1841 5.09415 18.6768Q5.36057 18.1696 5.14893 17.5055L3.647 12.7751Q3.43796 12.1251 2.94052 11.8706Q2.44308 11.6161 1.76926 11.8153Q1.1235 12.0172 0.860596 12.5244Q0.597687 13.0316 0.802307 13.6984ZM16.6547 18.4262L18.1636 13.6984Q18.3684 13.029 18.1055 12.5231Q17.8426 12.0172 17.1968 11.8153Q16.523 11.6161 16.0255 11.8706Q15.5281 12.1251 15.3191 12.7751L13.8171 17.5055Q13.6055 18.1723 13.8732 18.6782Q14.1409 19.1841 14.7839 19.386Q15.4578 19.588 15.9553 19.3321Q16.4528 19.0762 16.6547 18.4262Z" fill="rgba(0,0,0,0.85)"/>
 </g>
</svg>
