<?xml version="1.0" encoding="UTF-8"?>
<!--Generator: Apple Native CoreSVG 175-->
<!DOCTYPE svg
PUBLIC "-//W3C//DTD SVG 1.1//EN"
       "http://www.w3.org/Graphics/SVG/1.1/DTD/svg11.dtd">
<svg version="1.1" xmlns="http://www.w3.org/2000/svg" xmlns:xlink="http://www.w3.org/1999/xlink" width="19.1602" height="19.1504">
 <g>
  <rect height="19.1504" opacity="0" width="19.1602" x="0" y="0"/>
  <path d="M9.57031 19.1406Q11.5527 19.1406 13.2861 18.3984Q15.0195 17.6562 16.3379 16.333Q17.6562 15.0098 18.4082 13.2764Q19.1602 11.543 19.1602 9.57031Q19.1602 7.59766 18.4082 5.86426Q17.6562 4.13086 16.3379 2.80762Q15.0195 1.48438 13.2861 0.742188Q11.5527 0 9.57031 0Q7.59766 0 5.86426 0.742188Q4.13086 1.48438 2.81738 2.80762Q1.50391 4.13086 0.751953 5.86426Q0 7.59766 0 9.57031Q0 11.543 0.74707 13.2764Q1.49414 15.0098 2.8125 16.333Q4.13086 17.6562 5.86914 18.3984Q7.60742 19.1406 9.57031 19.1406ZM9.57031 18.3984Q7.74414 18.3984 6.14746 17.71Q4.55078 17.0215 3.33496 15.8105Q2.11914 14.5996 1.43555 12.998Q0.751953 11.3965 0.751953 9.57031Q0.751953 7.74414 1.43555 6.14258Q2.11914 4.54102 3.33496 3.3252Q4.55078 2.10938 6.14746 1.4209Q7.74414 0.732422 9.57031 0.732422Q11.4062 0.732422 13.0029 1.4209Q14.5996 2.10938 15.8154 3.3252Q17.0312 4.54102 17.7197 6.14258Q18.4082 7.74414 18.4082 9.57031Q18.4082 11.3965 17.7246 12.998Q17.041 14.5996 15.8252 15.8105Q14.6094 17.0215 13.0078 17.71Q11.4062 18.3984 9.57031 18.3984ZM4.43359 9.54102Q4.43359 10.7422 4.74609 11.9238Q5.05859 13.1055 5.63477 14.0918Q5.69336 14.209 5.8252 14.2432Q5.95703 14.2773 6.09375 14.1992Q6.21094 14.1406 6.24512 14.0088Q6.2793 13.877 6.20117 13.7402Q5.67383 12.7832 5.39062 11.709Q5.10742 10.6348 5.10742 9.54102Q5.10742 8.08594 5.66406 6.9873Q6.2207 5.88867 7.23145 5.27832Q8.24219 4.66797 9.58008 4.66797Q10.918 4.66797 11.9287 5.27832Q12.9395 5.88867 13.5059 6.9873Q14.0723 8.08594 14.0723 9.54102Q14.0723 10.625 13.7842 11.6943Q13.4961 12.7637 12.9688 13.7402Q12.8906 13.8672 12.9199 14.0039Q12.9492 14.1406 13.0664 14.1992Q13.2031 14.2773 13.335 14.2432Q13.4668 14.209 13.5352 14.0918Q14.1016 13.1055 14.4189 11.9238Q14.7363 10.7422 14.7363 9.54102Q14.7363 7.87109 14.0967 6.62109Q13.457 5.37109 12.2949 4.68262Q11.1328 3.99414 9.58008 3.99414Q8.02734 3.99414 6.875 4.68262Q5.72266 5.37109 5.07812 6.61621Q4.43359 7.86133 4.43359 9.54102ZM5.67383 13.8965Q5.80078 14.2969 6.10352 14.458Q6.40625 14.6191 6.80664 14.4824Q7.20703 14.375 7.36816 14.0674Q7.5293 13.7598 7.40234 13.3594L6.60156 10.8594Q6.47461 10.4688 6.17188 10.3076Q5.86914 10.1465 5.46875 10.2734Q5.07812 10.3809 4.91699 10.6934Q4.75586 11.0059 4.87305 11.4062ZM13.4863 13.8965L14.2871 11.4062Q14.4141 11.0059 14.2529 10.6934Q14.0918 10.3809 13.7012 10.2734Q13.291 10.1465 12.9883 10.3076Q12.6855 10.4688 12.5684 10.8594L11.7578 13.3594Q11.6309 13.7695 11.792 14.0723Q11.9531 14.375 12.3535 14.4824Q12.7539 14.6191 13.0566 14.458Q13.3594 14.2969 13.4863 13.8965Z" fill="rgba(0,0,0,0.85)"/>
 </g>
</svg>
