<?xml version="1.0" encoding="UTF-8"?>
<!--Generator: Apple Native CoreSVG 175-->
<!DOCTYPE svg
PUBLIC "-//W3C//DTD SVG 1.1//EN"
       "http://www.w3.org/Graphics/SVG/1.1/DTD/svg11.dtd">
<svg version="1.1" xmlns="http://www.w3.org/2000/svg" xmlns:xlink="http://www.w3.org/1999/xlink" width="18.5509" height="17.2739">
 <g>
  <rect height="17.2739" opacity="0" width="18.5509" x="0" y="0"/>
  <path d="M9.27551 17.2739Q9.38248 17.2739 9.50531 17.226Q9.62814 17.1782 9.72824 17.1086Q12.3204 15.4001 14.3089 13.5558Q16.2973 11.7114 17.4241 9.77722Q18.5509 7.84302 18.5509 5.86838Q18.5509 4.66797 18.164 3.66623Q17.7771 2.66449 17.082 1.9297Q16.3869 1.19492 15.4484 0.793381Q14.5099 0.391846 13.4067 0.391846Q12.1146 0.391846 10.9849 1.09123Q9.85519 1.79062 9.27551 2.96646Q8.69156 1.79337 7.56538 1.09261Q6.43921 0.391846 5.1442 0.391846Q4.04114 0.391846 3.10402 0.793381Q2.1669 1.19492 1.47041 1.9297Q0.773926 2.66449 0.386963 3.66623Q0 4.66797 0 5.86838Q0 7.84302 1.12679 9.77722Q2.25357 11.7114 4.24339 13.5558Q6.23322 15.4001 8.81836 17.1086Q8.91846 17.1782 9.0448 17.226Q9.17114 17.2739 9.27551 17.2739Z" fill="#ffffff"/>
 </g>
</svg>
