<?xml version="1.0" encoding="UTF-8"?>
<!--Generator: Apple Native CoreSVG 175.5-->
<!DOCTYPE svg
PUBLIC "-//W3C//DTD SVG 1.1//EN"
       "http://www.w3.org/Graphics/SVG/1.1/DTD/svg11.dtd">
<svg version="1.1" xmlns="http://www.w3.org/2000/svg" xmlns:xlink="http://www.w3.org/1999/xlink" width="23.0488" height="23.4668">
 <g>
  <rect height="23.4668" opacity="0" width="23.0488" x="0" y="0"/>
  <path d="M2.2168 23.4668L8.27148 23.4668Q9.27734 23.4668 9.88281 22.8711Q10.4883 22.2754 10.4883 21.2891L10.4883 2.17773Q10.4883 1.19141 9.88281 0.595703Q9.27734 0 8.27148 0L2.2168 0Q1.21094 0 0.605469 0.595703Q0 1.19141 0 2.17773L0 21.2891Q0 22.2754 0.605469 22.8711Q1.21094 23.4668 2.2168 23.4668ZM7.8125 7.61719Q7.59766 7.61719 7.45117 7.46582Q7.30469 7.31445 7.30469 7.09961L7.30469 3.125Q7.30469 2.91016 7.45117 2.75879Q7.59766 2.60742 7.8125 2.60742Q8.02734 2.60742 8.17383 2.75879Q8.32031 2.91016 8.32031 3.125L8.32031 7.09961Q8.32031 7.31445 8.17383 7.46582Q8.02734 7.61719 7.8125 7.61719ZM5.74219 7.61719Q5.51758 7.61719 5.36621 7.46582Q5.21484 7.31445 5.21484 7.09961L5.21484 3.125Q5.21484 2.91016 5.36621 2.75879Q5.51758 2.60742 5.74219 2.60742Q5.94727 2.60742 6.09375 2.75879Q6.24023 2.91016 6.24023 3.125L6.24023 7.09961Q6.24023 7.31445 6.09375 7.46582Q5.94727 7.61719 5.74219 7.61719ZM7.8125 14.1992Q7.59766 14.1992 7.45117 14.0479Q7.30469 13.8965 7.30469 13.6816L7.30469 9.70703Q7.30469 9.50195 7.45117 9.35059Q7.59766 9.19922 7.8125 9.19922Q8.02734 9.19922 8.17383 9.35059Q8.32031 9.50195 8.32031 9.70703L8.32031 13.6816Q8.32031 13.8965 8.17383 14.0479Q8.02734 14.1992 7.8125 14.1992ZM5.74219 14.1992Q5.51758 14.1992 5.36621 14.0479Q5.21484 13.8965 5.21484 13.6816L5.21484 9.70703Q5.21484 9.50195 5.36621 9.35059Q5.51758 9.19922 5.74219 9.19922Q5.94727 9.19922 6.09375 9.35059Q6.24023 9.50195 6.24023 9.70703L6.24023 13.6816Q6.24023 13.8965 6.09375 14.0479Q5.94727 14.1992 5.74219 14.1992ZM7.8125 20.8008Q7.59766 20.8008 7.45117 20.6494Q7.30469 20.498 7.30469 20.293L7.30469 16.3184Q7.30469 16.1035 7.45117 15.9473Q7.59766 15.791 7.8125 15.791Q8.02734 15.791 8.17383 15.9473Q8.32031 16.1035 8.32031 16.3184L8.32031 20.293Q8.32031 20.498 8.17383 20.6494Q8.02734 20.8008 7.8125 20.8008ZM5.74219 20.8008Q5.51758 20.8008 5.36621 20.6494Q5.21484 20.498 5.21484 20.293L5.21484 16.3184Q5.21484 16.1035 5.36621 15.9473Q5.51758 15.791 5.74219 15.791Q5.94727 15.791 6.09375 15.9473Q6.24023 16.1035 6.24023 16.3184L6.24023 20.293Q6.24023 20.498 6.09375 20.6494Q5.94727 20.8008 5.74219 20.8008Z" fill="#ffffff"/>
  <path d="M14.3457 10.5566Q15.127 10.5566 15.7764 10.3418Q16.4258 10.127 17.0068 9.80957Q17.5879 9.49219 18.1494 9.17969Q18.7109 8.86719 19.3066 8.65234Q19.9023 8.4375 20.5762 8.4375Q20.9766 8.4375 21.333 8.53027Q21.6895 8.62305 22.1094 8.85742Q22.373 9.00391 22.5928 8.93066Q22.8125 8.85742 22.9297 8.69141Q23.0762 8.47656 23.0371 8.19336Q22.998 7.91016 22.6758 7.73438Q21.709 7.16797 20.5762 7.16797Q19.7852 7.16797 19.126 7.38281Q18.4668 7.59766 17.8809 7.91504Q17.2949 8.23242 16.7383 8.5498Q16.1816 8.86719 15.5957 9.08203Q15.0098 9.29688 14.3457 9.29688Q13.9453 9.29688 13.5889 9.19922Q13.2324 9.10156 12.8027 8.85742Q12.5488 8.7207 12.3242 8.79395Q12.0996 8.86719 11.9824 9.05273Q11.8555 9.25781 11.8945 9.53613Q11.9336 9.81445 12.2363 9.99023Q12.7148 10.293 13.2471 10.4248Q13.7793 10.5566 14.3457 10.5566ZM14.3555 13.4277Q15.127 13.4277 15.7812 13.2129Q16.4355 12.998 17.0166 12.6855Q17.5977 12.373 18.1592 12.0557Q18.7207 11.7383 19.3115 11.5234Q19.9023 11.3086 20.5762 11.3086Q20.9863 11.3086 21.3428 11.4014Q21.6992 11.4941 22.1191 11.7285Q22.373 11.875 22.5977 11.8018Q22.8223 11.7285 22.9395 11.5625Q23.0762 11.3477 23.042 11.0693Q23.0078 10.791 22.6953 10.6055Q21.709 10.0391 20.5762 10.0391Q19.7852 10.0391 19.126 10.2539Q18.4668 10.4688 17.8857 10.7861Q17.3047 11.1035 16.748 11.4209Q16.1914 11.7383 15.6055 11.9531Q15.0195 12.168 14.3555 12.168Q13.9453 12.168 13.5889 12.0703Q13.2324 11.9727 12.8125 11.7383Q12.5586 11.5918 12.3291 11.665Q12.0996 11.7383 11.9824 11.9238Q11.8555 12.1289 11.8945 12.4072Q11.9336 12.6855 12.2461 12.8613Q12.7246 13.1641 13.2568 13.2959Q13.7891 13.4277 14.3555 13.4277ZM14.3457 16.2988Q15.127 16.2988 15.7764 16.084Q16.4258 15.8691 17.0068 15.5566Q17.5879 15.2441 18.1494 14.9268Q18.7109 14.6094 19.3066 14.3945Q19.9023 14.1797 20.5762 14.1797Q20.9766 14.1797 21.333 14.2725Q21.6895 14.3652 22.1094 14.6094Q22.373 14.7559 22.5928 14.6826Q22.8125 14.6094 22.9297 14.4336Q23.0762 14.2285 23.0371 13.9453Q22.998 13.6621 22.6758 13.4766Q21.709 12.9102 20.5762 12.9102Q19.7852 12.9102 19.126 13.125Q18.4668 13.3398 17.8809 13.6572Q17.2949 13.9746 16.7383 14.292Q16.1816 14.6094 15.5957 14.8242Q15.0098 15.0391 14.3457 15.0391Q13.9453 15.0391 13.5889 14.9414Q13.2324 14.8438 12.8027 14.6094Q12.5488 14.4629 12.3242 14.5361Q12.0996 14.6094 11.9824 14.7949Q11.8555 15 11.8945 15.2832Q11.9336 15.5664 12.2363 15.7422Q12.7148 16.0352 13.2471 16.167Q13.7793 16.2988 14.3457 16.2988Z" fill="#ffffff"/>
 </g>
</svg>
