<?xml version="1.0" encoding="UTF-8"?>
<!--Generator: Apple Native CoreSVG 175-->
<!DOCTYPE svg
PUBLIC "-//W3C//DTD SVG 1.1//EN"
       "http://www.w3.org/Graphics/SVG/1.1/DTD/svg11.dtd">
<svg version="1.1" xmlns="http://www.w3.org/2000/svg" xmlns:xlink="http://www.w3.org/1999/xlink" width="19.2247" height="20.5903">
 <g>
  <rect height="20.5903" opacity="0" width="19.2247" x="0" y="0"/>
  <path d="M0.973511 15.904L8.69568 20.1313Q9.62418 20.6481 10.536 20.1313L18.2512 15.904Q18.7843 15.6118 19.0045 15.2452Q19.2247 14.8786 19.2247 14.2484L19.2247 5.84934Q19.2247 5.35389 19.027 5.08206Q18.8293 4.81022 18.5023 4.61765L10.7184 0.300486Q10.191 0.00354958 9.61723 4.00591e-05Q9.04343-0.00346946 8.50616 0.300486L0.732117 4.61765Q0.395355 4.81022 0.197678 5.08206Q0 5.35389 0 5.84934L0 14.2484Q0 14.8786 0.221481 15.2452Q0.442963 15.6118 0.973511 15.904Z" fill="#ffffff"/>
 </g>
</svg>
