<?xml version="1.0" encoding="UTF-8"?>
<!--Generator: Apple Native CoreSVG 175-->
<!DOCTYPE svg
PUBLIC "-//W3C//DTD SVG 1.1//EN"
       "http://www.w3.org/Graphics/SVG/1.1/DTD/svg11.dtd">
<svg version="1.1" xmlns="http://www.w3.org/2000/svg" xmlns:xlink="http://www.w3.org/1999/xlink" width="22.1083" height="22.4026">
 <g>
  <rect height="22.4026" opacity="0" width="22.1083" x="0" y="0"/>
  <path d="M1.99615 16.5878L6.29761 16.5878L6.29761 15.8769L2.06726 15.8769Q1.42975 15.8769 1.06682 15.5246Q0.703888 15.1723 0.703888 14.5401L0.703888 2.04758Q0.703888 1.40854 1.06682 1.05621Q1.42975 0.703888 2.06726 0.703888L10.0555 0.703888Q10.598 0.703888 10.9203 1.00136Q11.2425 1.29883 11.2547 1.83197Q11.2585 1.91757 11.2627 2.1154Q11.2668 2.31323 11.2723 2.59521Q11.4574 2.53738 11.6492 2.48779Q11.841 2.4382 12.0535 2.38968Q12.0497 1.81641 12.0305 1.65695Q11.9724 0.900726 11.4567 0.450363Q10.941 0 10.1266 0L1.99615 0Q1.07468 0 0.537338 0.53299Q0 1.06598 0 1.9902L0 14.5976Q0 15.5219 0.537338 16.0548Q1.07468 16.5878 1.99615 16.5878ZM2.52777 10.8644Q2.52777 11.8816 3.04634 12.7084Q3.56491 13.5352 4.42329 13.9982Q5.28168 14.4612 6.29761 14.4008L6.29761 12.5835Q5.76645 12.6538 5.32051 12.4353Q4.87457 12.2168 4.59999 11.8025Q4.32541 11.3882 4.32541 10.8617Q4.32541 10.3558 4.59106 9.94156Q4.85672 9.52728 5.30472 9.30679Q5.75272 9.0863 6.29761 9.14688Q6.29761 8.63464 6.33965 8.20595Q6.38168 7.77725 6.46683 7.35184Q5.40192 7.23816 4.50371 7.69073Q3.6055 8.14331 3.06664 8.9798Q2.52777 9.81628 2.52777 10.8644ZM4.32465 4.16946Q4.32465 4.84253 4.68788 5.36186Q5.05112 5.8812 5.63141 6.13434Q6.2117 6.38748 6.84799 6.25275Q6.93588 6.03439 7.04628 5.82008Q7.15668 5.60577 7.27814 5.41245Q6.90475 5.66284 6.4473 5.66284Q5.81802 5.66284 5.37895 5.22377Q4.93988 4.7847 4.93988 4.16245Q4.93988 3.54996 5.38033 3.10951Q5.82077 2.66907 6.4473 2.66907Q6.97067 2.66907 7.35405 2.96951Q7.73743 3.26996 7.88689 3.73123Q8.03635 4.1925 7.85233 4.66125Q8.0043 4.48898 8.16742 4.32846Q8.33054 4.16794 8.50739 4.0065Q8.4613 3.17535 7.8717 2.61185Q7.2821 2.04834 6.4473 2.05109Q5.56244 2.05109 4.94354 2.67006Q4.32465 3.28903 4.32465 4.16946ZM14.6336 5.87418Q15.8864 5.87418 16.9715 5.70465Q18.0566 5.53513 18.7219 5.21675Q19.3872 4.89838 19.3872 4.46243Q19.3872 4.01672 18.7219 3.70186Q18.0566 3.38699 16.9715 3.21396Q15.8864 3.04092 14.6336 3.04092Q13.3836 3.04092 12.2985 3.21396Q11.2134 3.38699 10.5516 3.70186Q9.88983 4.01672 9.88983 4.46243Q9.88983 4.89838 10.5516 5.21675Q11.2134 5.53513 12.2985 5.70465Q13.3836 5.87418 14.6336 5.87418ZM14.6336 22.2769Q18.5359 22.2769 20.3221 20.8763Q22.1083 19.4757 22.1083 16.387L22.1083 8.95538Q22.1083 7.96005 21.8893 7.23602Q21.6704 6.51199 21.3602 6.01807Q21.0501 5.52414 20.7645 5.23941Q20.6029 5.08514 20.4122 5.10208Q20.2216 5.11902 20.0771 5.2948Q19.6857 5.79636 18.904 6.11496Q18.1223 6.43356 17.0354 6.59081Q15.9485 6.74805 14.6336 6.74805Q13.3215 6.74805 12.2346 6.59081Q11.1478 6.43356 10.3661 6.11496Q9.58435 5.79636 9.19998 5.2948Q9.04846 5.11902 8.8578 5.10208Q8.66714 5.08514 8.50555 5.23941Q8.21991 5.52414 7.90977 6.01807Q7.59964 6.51199 7.38419 7.23602Q7.16873 7.96005 7.16873 8.95538L7.16873 16.387Q7.16873 19.4757 8.95142 20.8763Q10.7341 22.2769 14.6336 22.2769ZM14.6336 21.5483Q11.0789 21.5483 9.48463 20.2837Q7.89032 19.019 7.89032 16.259L7.89032 8.9801Q7.89032 8.12454 8.11646 7.38121Q8.34259 6.63788 8.89023 5.9726Q9.60754 6.78284 11.0942 7.12616Q12.5809 7.46948 14.6336 7.46948Q16.6891 7.46948 18.1758 7.12616Q19.6625 6.78284 20.3798 5.9726Q20.9274 6.63788 21.1536 7.38121Q21.3797 8.12454 21.3797 8.9801L21.3797 16.259Q21.3797 19.019 19.7854 20.2837Q18.1911 21.5483 14.6336 21.5483Z" fill="#ffffff"/>
 </g>
</svg>
