<?xml version="1.0" encoding="UTF-8"?>
<!--Generator: Apple Native CoreSVG 175.5-->
<!DOCTYPE svg
PUBLIC "-//W3C//DTD SVG 1.1//EN"
       "http://www.w3.org/Graphics/SVG/1.1/DTD/svg11.dtd">
<svg version="1.1" xmlns="http://www.w3.org/2000/svg" xmlns:xlink="http://www.w3.org/1999/xlink" width="29.1309" height="13.0176">
 <g>
  <rect height="13.0176" opacity="0" width="29.1309" x="0" y="0"/>
  <path d="M3.01758 11.377L26.1035 11.377Q27.6074 11.377 28.3691 10.625Q29.1309 9.87305 29.1309 8.39844L29.1309 2.97852Q29.1309 1.50391 28.3691 0.751953Q27.6074 0 26.1035 0L3.01758 0Q1.5332 0 0.766602 0.751953Q0 1.50391 0 2.97852L0 8.39844Q0 9.87305 0.766602 10.625Q1.5332 11.377 3.01758 11.377ZM3.01758 9.80469Q2.35352 9.80469 1.96289 9.42383Q1.57227 9.04297 1.57227 8.39844L1.57227 2.97852Q1.57227 2.33398 1.96289 1.95312Q2.35352 1.57227 3.01758 1.57227L26.1035 1.57227Q26.7676 1.57227 27.1631 1.95312Q27.5586 2.33398 27.5586 2.97852L27.5586 8.39844Q27.5586 9.04297 27.1631 9.42383Q26.7676 9.80469 26.1035 9.80469ZM5.81055 7.79297Q6.68945 7.79297 7.30957 7.17285Q7.92969 6.55273 7.92969 5.67383Q7.92969 4.78516 7.30957 4.16504Q6.68945 3.54492 5.81055 3.54492Q4.92188 3.54492 4.30176 4.16504Q3.68164 4.78516 3.68164 5.67383Q3.68164 6.55273 4.30176 7.17285Q4.92188 7.79297 5.81055 7.79297ZM10.6445 7.80273L18.4766 7.80273Q18.8477 7.80273 19.0625 7.58789Q19.2773 7.37305 19.2773 7.01172L19.2773 4.375Q19.2773 4.01367 19.0625 3.79395Q18.8477 3.57422 18.4766 3.57422L10.6445 3.57422Q10.2832 3.57422 10.0635 3.79395Q9.84375 4.01367 9.84375 4.375L9.84375 7.01172Q9.84375 7.37305 10.0635 7.58789Q10.2832 7.80273 10.6445 7.80273ZM23.3203 7.79297Q24.1992 7.79297 24.8193 7.17285Q25.4395 6.55273 25.4395 5.67383Q25.4395 4.78516 24.8193 4.16504Q24.1992 3.54492 23.3203 3.54492Q22.4414 3.54492 21.8213 4.16504Q21.2012 4.78516 21.2012 5.67383Q21.2012 6.55273 21.8213 7.17285Q22.4414 7.79297 23.3203 7.79297ZM7.23633 10.7715L2.16797 10.7715L2.16797 12.207Q2.16797 12.5684 2.3877 12.7881Q2.60742 13.0078 2.96875 13.0078L6.43555 13.0078Q6.79688 13.0078 7.0166 12.7881Q7.23633 12.5684 7.23633 12.207ZM21.8945 10.7715L21.8945 12.207Q21.8945 12.5684 22.1094 12.7881Q22.3242 13.0078 22.6953 13.0078L26.1523 13.0078Q26.5234 13.0078 26.7432 12.7881Q26.9629 12.5684 26.9629 12.207L26.9629 10.7715Z" fill="#ffffff"/>
 </g>
</svg>
