<?xml version="1.0" encoding="UTF-8"?>
<!--Generator: Apple Native CoreSVG 175.5-->
<!DOCTYPE svg
PUBLIC "-//W3C//DTD SVG 1.1//EN"
       "http://www.w3.org/Graphics/SVG/1.1/DTD/svg11.dtd">
<svg version="1.1" xmlns="http://www.w3.org/2000/svg" xmlns:xlink="http://www.w3.org/1999/xlink" width="19.9219" height="19.9316">
 <g>
  <rect height="19.9316" opacity="0" width="19.9219" x="0" y="0"/>
  <path d="M9.96094 19.9219Q12.002 19.9219 13.8037 19.1406Q15.6055 18.3594 16.9824 16.9824Q18.3594 15.6055 19.1406 13.8037Q19.9219 12.002 19.9219 9.96094Q19.9219 7.91992 19.1406 6.11816Q18.3594 4.31641 16.9824 2.93945Q15.6055 1.5625 13.7988 0.78125Q11.9922 0 9.95117 0Q7.91016 0 6.1084 0.78125Q4.30664 1.5625 2.93457 2.93945Q1.5625 4.31641 0.78125 6.11816Q0 7.91992 0 9.96094Q0 12.002 0.78125 13.8037Q1.5625 15.6055 2.93945 16.9824Q4.31641 18.3594 6.11816 19.1406Q7.91992 19.9219 9.96094 19.9219ZM9.96094 18.2617Q8.23242 18.2617 6.72852 17.6172Q5.22461 16.9727 4.08691 15.835Q2.94922 14.6973 2.30957 13.1934Q1.66992 11.6895 1.66992 9.96094Q1.66992 8.23242 2.30957 6.72852Q2.94922 5.22461 4.08203 4.08203Q5.21484 2.93945 6.71875 2.2998Q8.22266 1.66016 9.95117 1.66016Q11.6797 1.66016 13.1885 2.2998Q14.6973 2.93945 15.835 4.08203Q16.9727 5.22461 17.6172 6.72852Q18.2617 8.23242 18.2617 9.96094Q18.2617 11.6895 17.6221 13.1934Q16.9824 14.6973 15.8398 15.835Q14.6973 16.9727 13.1934 17.6172Q11.6895 18.2617 9.96094 18.2617Z" fill="#ffffff"/>
  <path d="M7.33398 15.6641L12.5879 15.6641Q13.0664 15.6641 13.335 15.4053Q13.6035 15.1465 13.6035 14.6484L13.6035 14.5215Q13.6035 13.7695 13.1689 13.0273Q12.7344 12.2852 12.1582 11.6406Q11.582 10.9961 11.1426 10.5664Q10.8203 10.2539 10.835 9.94141Q10.8496 9.62891 11.1426 9.33594Q11.582 8.90625 12.1582 8.2666Q12.7344 7.62695 13.1689 6.87988Q13.6035 6.13281 13.6035 5.38086L13.6035 5.27344Q13.6035 4.77539 13.335 4.51172Q13.0664 4.24805 12.5879 4.24805L7.33398 4.24805Q6.86523 4.24805 6.59668 4.51172Q6.32812 4.77539 6.32812 5.27344L6.32812 5.38086Q6.32812 6.13281 6.75781 6.87988Q7.1875 7.62695 7.76855 8.2666Q8.34961 8.90625 8.78906 9.33594Q9.08203 9.62891 9.0918 9.94141Q9.10156 10.2539 8.78906 10.5664Q8.34961 10.9961 7.76855 11.6406Q7.1875 12.2852 6.75781 13.0273Q6.32812 13.7695 6.32812 14.5215L6.32812 14.6484Q6.32812 15.1465 6.59668 15.4053Q6.86523 15.6641 7.33398 15.6641ZM7.8125 14.8242Q7.60742 14.8242 7.56836 14.6484Q7.5293 14.4727 7.66602 14.3457L9.52148 12.4512Q9.57031 12.4023 9.59473 12.3633Q9.61914 12.3242 9.61914 12.2559L9.61914 9.51172Q9.61914 9.16016 9.36523 8.91602Q9.04297 8.59375 8.71582 8.2666Q8.38867 7.93945 8.10547 7.63672Q7.97852 7.50977 8.02734 7.39746Q8.07617 7.28516 8.22266 7.28516L11.709 7.28516Q11.8555 7.28516 11.9043 7.39746Q11.9531 7.50977 11.8262 7.63672Q11.5332 7.93945 11.2061 8.2666Q10.8789 8.59375 10.5566 8.91602Q10.3027 9.16016 10.3027 9.51172L10.3027 12.2559Q10.3027 12.3242 10.3271 12.3633Q10.3516 12.4023 10.4004 12.4512L12.2656 14.3457Q12.3926 14.4727 12.3535 14.6484Q12.3145 14.8242 12.1094 14.8242Z" fill="#ffffff"/>
 </g>
</svg>
