<?xml version="1.0" encoding="UTF-8"?>
<!--Generator: Apple Native CoreSVG 175-->
<!DOCTYPE svg
PUBLIC "-//W3C//DTD SVG 1.1//EN"
       "http://www.w3.org/Graphics/SVG/1.1/DTD/svg11.dtd">
<svg version="1.1" xmlns="http://www.w3.org/2000/svg" xmlns:xlink="http://www.w3.org/1999/xlink" width="10.9743" height="17.2192">
 <g>
  <rect height="17.2192" opacity="0" width="10.9743" x="0" y="0"/>
  <path d="M1.24023 17.2067L9.73404 17.2067Q10.2934 17.2067 10.6339 16.8704Q10.9743 16.5341 10.9743 15.9637L10.9743 15.6348Q10.9743 14.8473 10.5669 13.9762Q10.1595 13.1052 9.52309 12.2343Q8.88672 11.3634 8.16078 10.5667Q7.43484 9.77005 6.80038 9.14261Q6.5274 8.86963 6.53282 8.58818Q6.53824 8.30673 6.80038 8.03757Q7.43484 7.41013 8.16078 6.61697Q8.88672 5.82382 9.52309 4.9543Q10.1595 4.08478 10.5669 3.21022Q10.9743 2.33566 10.9743 1.54541L10.9743 1.24573Q10.9743 0.67276 10.6339 0.33638Q10.2934 0 9.73404 0L1.24023 0Q0.683594 0 0.341797 0.33638Q0 0.67276 0 1.24573L0 1.54541Q0 2.33566 0.4039 3.21022Q0.8078 4.08478 1.44768 4.9543Q2.08755 5.82382 2.80998 6.61697Q3.53241 7.41013 4.16672 8.03757Q4.43863 8.30673 4.44061 8.58818Q4.4426 8.86963 4.16672 9.14261Q3.53241 9.77005 2.80998 10.5667Q2.08755 11.3634 1.44768 12.2343Q0.8078 13.1052 0.4039 13.9762Q0 14.8473 0 15.6348L0 15.9637Q0 16.5341 0.341797 16.8704Q0.683594 17.2067 1.24023 17.2067ZM1.80939 16.3356Q1.61636 16.3356 1.55151 16.1522Q1.48666 15.9688 1.65237 15.8015L5.06287 12.3618Q5.16479 12.2626 5.19333 12.2005Q5.22186 12.1384 5.22186 12.0142L5.22186 8.14499Q5.22186 7.9747 5.18456 7.87857Q5.14725 7.78244 5.01282 7.659Q4.35593 7.07031 3.65143 6.35818Q2.94693 5.64606 2.42035 5.01999Q2.29813 4.87381 2.34673 4.75159Q2.39532 4.62936 2.55661 4.62936L8.41751 4.62936Q8.57468 4.62936 8.62328 4.75159Q8.67188 4.87381 8.55392 5.01999Q8.02032 5.64606 7.3172 6.35818Q6.61407 7.07031 5.9613 7.659Q5.82977 7.78244 5.79247 7.87857Q5.75516 7.9747 5.75516 8.14499L5.75516 12.0142Q5.75516 12.1384 5.77873 12.2005Q5.80231 12.2626 5.90424 12.3618L9.31488 15.8015Q9.48746 15.9688 9.42398 16.1522Q9.3605 16.3356 9.15787 16.3356Z" fill="#ffffff"/>
 </g>
</svg>
