<?xml version="1.0" encoding="UTF-8"?>
<!--Generator: Apple Native CoreSVG 175-->
<!DOCTYPE svg
PUBLIC "-//W3C//DTD SVG 1.1//EN"
       "http://www.w3.org/Graphics/SVG/1.1/DTD/svg11.dtd">
<svg version="1.1" xmlns="http://www.w3.org/2000/svg" xmlns:xlink="http://www.w3.org/1999/xlink" width="19.1602" height="19.1504">
 <g>
  <rect height="19.1504" opacity="0" width="19.1602" x="0" y="0"/>
  <path d="M9.57031 19.1406Q11.5527 19.1406 13.2861 18.3984Q15.0195 17.6562 16.3379 16.333Q17.6562 15.0098 18.4082 13.2764Q19.1602 11.543 19.1602 9.57031Q19.1602 7.59766 18.4082 5.86426Q17.6562 4.13086 16.3379 2.80762Q15.0195 1.48438 13.2861 0.742188Q11.5527 0 9.57031 0Q7.59766 0 5.86426 0.742188Q4.13086 1.48438 2.81738 2.80762Q1.50391 4.13086 0.751953 5.86426Q0 7.59766 0 9.57031Q0 11.543 0.74707 13.2764Q1.49414 15.0098 2.8125 16.333Q4.13086 17.6562 5.86914 18.3984Q7.60742 19.1406 9.57031 19.1406ZM3.88672 8.55469Q3.88672 8.4082 4.01367 8.30078L8.80859 4.28711Q9.16016 3.98438 9.58496 3.98438Q10.0098 3.98438 10.3613 4.28711L13.0566 6.55273L13.0566 5.27344Q13.0566 5.04883 13.2715 5.04883L13.6719 5.04883Q13.8965 5.04883 13.8965 5.27344L13.8965 7.25586L15.127 8.30078Q15.2539 8.39844 15.2539 8.55469Q15.2539 8.68164 15.1709 8.75977Q15.0879 8.83789 14.9609 8.83789Q14.9023 8.83789 14.8584 8.81348Q14.8145 8.78906 14.7461 8.74023L10.0098 4.74609Q9.77539 4.56055 9.58496 4.55566Q9.39453 4.55078 9.16992 4.74609L4.4043 8.74023Q4.3457 8.78906 4.29688 8.81348Q4.24805 8.83789 4.18945 8.83789Q4.05273 8.83789 3.96973 8.75488Q3.88672 8.67188 3.88672 8.55469ZM5.27344 13.2617L5.27344 8.49609L9.25781 5.15625Q9.58008 4.88281 9.90234 5.15625L13.8965 8.49609L13.8965 13.2617Q13.8965 13.6914 13.6523 13.9355Q13.4082 14.1797 12.9785 14.1797L6.20117 14.1797Q5.76172 14.1797 5.51758 13.9355Q5.27344 13.6914 5.27344 13.2617ZM8.30078 13.6133L10.8496 13.6133L10.8496 10.2734Q10.8496 9.9707 10.5371 9.9707L8.61328 9.9707Q8.30078 9.9707 8.30078 10.2734Z" fill="rgba(0,0,0,0.85)"/>
 </g>
</svg>
