<?xml version="1.0" encoding="UTF-8"?>
<!--Generator: Apple Native CoreSVG 175.5-->
<!DOCTYPE svg
PUBLIC "-//W3C//DTD SVG 1.1//EN"
       "http://www.w3.org/Graphics/SVG/1.1/DTD/svg11.dtd">
<svg version="1.1" xmlns="http://www.w3.org/2000/svg" xmlns:xlink="http://www.w3.org/1999/xlink" width="17.9785" height="17.998">
 <g>
  <rect height="17.998" opacity="0" width="17.9785" x="0" y="0"/>
  <path d="M3.06641 17.998L14.9121 17.998Q16.4453 17.998 17.2119 17.2412Q17.9785 16.4844 17.9785 14.9707L17.9785 3.04688Q17.9785 1.5332 17.2119 0.776367Q16.4453 0.0195312 14.9121 0.0195312L3.06641 0.0195312Q1.5332 0.0195312 0.766602 0.776367Q0 1.5332 0 3.04688L0 14.9707Q0 16.4844 0.766602 17.2412Q1.5332 17.998 3.06641 17.998Z" fill="#ffffff"/>
  <path d="M8.98438 13.6133Q8.59375 13.6133 8.38867 13.3594Q8.18359 13.1055 8.18359 12.6953L8.18359 5.10742Q8.18359 4.70703 8.38867 4.44824Q8.59375 4.18945 8.98438 4.18945Q9.38477 4.18945 9.59473 4.43359Q9.80469 4.67773 9.80469 5.10742L9.80469 12.6953Q9.80469 13.125 9.59473 13.3691Q9.38477 13.6133 8.98438 13.6133Z" fill="none"/>
 </g>
</svg>
