<?xml version="1.0" encoding="UTF-8"?>
<!--Generator: Apple Native CoreSVG 175-->
<!DOCTYPE svg
PUBLIC "-//W3C//DTD SVG 1.1//EN"
       "http://www.w3.org/Graphics/SVG/1.1/DTD/svg11.dtd">
<svg version="1.1" xmlns="http://www.w3.org/2000/svg" xmlns:xlink="http://www.w3.org/1999/xlink" width="23.2008" height="16.8347">
 <g>
  <rect height="16.8347" opacity="0" width="23.2008" x="0" y="0"/>
  <path d="M18.3829 15.7492Q19.402 15.7492 20.2782 15.4224Q21.1543 15.0957 21.8089 14.5125Q22.4634 13.9293 22.8321 13.1488Q23.2008 12.3683 23.2008 11.4609Q23.2008 10.5058 22.8614 9.65874Q22.522 8.81165 21.8602 8.17322Q21.1984 7.53479 20.2133 7.21863Q20.2696 5.67215 19.7923 4.35287Q19.3149 3.0336 18.4206 2.05795Q17.5262 1.08231 16.3202 0.541153Q15.1141 0 13.7086 0Q12.3735 0 11.3322 0.449371Q10.291 0.898743 9.52911 1.64543Q8.76724 2.39212 8.27972 3.29361Q7.43744 2.94571 6.58966 3.07358Q5.74188 3.20145 5.03403 3.71185Q4.32617 4.22226 3.9016 5.01579Q3.47702 5.80933 3.49258 6.79245Q2.45239 6.86981 1.66428 7.43195Q0.87616 7.99408 0.43808 8.90854Q0 9.823 0 10.9581Q0 11.9621 0.400772 12.8313Q0.801544 13.7004 1.52367 14.3506Q2.24579 15.0008 3.21877 15.3645Q4.19174 15.7281 5.3363 15.7281Z" fill="#ffffff"/>
 </g>
</svg>
