<?xml version="1.0" encoding="UTF-8"?>
<!--Generator: Apple Native CoreSVG 175-->
<!DOCTYPE svg
PUBLIC "-//W3C//DTD SVG 1.1//EN"
       "http://www.w3.org/Graphics/SVG/1.1/DTD/svg11.dtd">
<svg version="1.1" xmlns="http://www.w3.org/2000/svg" xmlns:xlink="http://www.w3.org/1999/xlink" width="17.2852" height="17.3145">
 <g>
  <rect height="17.3145" opacity="0" width="17.2852" x="0" y="0"/>
  <path d="M2.62695 17.3145L14.6484 17.3145Q15.957 17.3145 16.6211 16.6455Q17.2852 15.9766 17.2852 14.6875L17.2852 2.65625Q17.2852 1.37695 16.6211 0.703125Q15.957 0.0292969 14.6484 0.0292969L2.62695 0.0292969Q1.33789 0.0292969 0.668945 0.693359Q0 1.35742 0 2.65625L0 14.6875Q0 15.9863 0.668945 16.6504Q1.33789 17.3145 2.62695 17.3145ZM2.65625 16.5918Q1.70898 16.5918 1.2207 16.1035Q0.732422 15.6152 0.732422 14.6582L0.732422 2.69531Q0.732422 1.72852 1.2207 1.24512Q1.70898 0.761719 2.65625 0.761719L14.6289 0.761719Q15.5566 0.761719 16.0596 1.24512Q16.5625 1.72852 16.5625 2.69531L16.5625 14.6582Q16.5625 15.6152 16.0596 16.1035Q15.5566 16.5918 14.6289 16.5918ZM5.06836 12.1582L12.7246 12.1582Q13.6426 12.1582 14.1992 11.5918Q14.7559 11.0254 14.7559 10.1855Q14.7559 9.41406 14.2871 8.87207Q13.8184 8.33008 13.1348 8.25195Q13.1543 8.125 13.1592 7.97852Q13.1641 7.83203 13.1641 7.71484Q13.1641 6.73828 12.71 5.9375Q12.2559 5.13672 11.4502 4.66797Q10.6445 4.19922 9.58008 4.19922Q8.64258 4.19922 7.85645 4.61426Q7.07031 5.0293 6.5918 5.79102Q6.46484 5.75195 6.29883 5.72754Q6.13281 5.70312 6.00586 5.70312Q5.25391 5.70312 4.72656 6.19629Q4.19922 6.68945 4.18945 7.4707Q3.51562 7.69531 3.03223 8.31543Q2.54883 8.93555 2.54883 9.76562Q2.54883 10.8203 3.2373 11.4893Q3.92578 12.1582 5.06836 12.1582Z" fill="rgba(0,0,0,0.85)"/>
 </g>
</svg>
