<?xml version="1.0" encoding="UTF-8"?>
<!--Generator: Apple Native CoreSVG 175.5-->
<!DOCTYPE svg
PUBLIC "-//W3C//DTD SVG 1.1//EN"
       "http://www.w3.org/Graphics/SVG/1.1/DTD/svg11.dtd">
<svg version="1.1" xmlns="http://www.w3.org/2000/svg" xmlns:xlink="http://www.w3.org/1999/xlink" width="21.5234" height="21.4551">
 <g>
  <rect height="21.4551" opacity="0" width="21.5234" x="0" y="0"/>
  <path d="M6.00586 21.4551Q6.36719 21.4551 6.66992 21.2598Q6.97266 21.0645 7.41211 20.6738L10.7812 17.6758L17.0508 17.6758Q18.5059 17.6758 19.502 17.1533Q20.498 16.6309 21.0107 15.6348Q21.5234 14.6387 21.5234 13.2031L21.5234 5.72266Q21.5234 4.28711 21.0107 3.29102Q20.498 2.29492 19.502 1.77246Q18.5059 1.25 17.0508 1.25L4.47266 1.25Q3.01758 1.25 2.02148 1.77246Q1.02539 2.29492 0.512695 3.29102Q0 4.28711 0 5.72266L0 13.2031Q0 14.6387 0.512695 15.6348Q1.02539 16.6309 2.02148 17.1533Q3.01758 17.6758 4.47266 17.6758L4.94141 17.6758L4.94141 20.2148Q4.94141 20.7812 5.21973 21.1182Q5.49805 21.4551 6.00586 21.4551ZM6.40625 19.668L6.40625 16.8359Q6.40625 16.4355 6.24023 16.2695Q6.07422 16.1035 5.67383 16.1035L4.47266 16.1035Q2.98828 16.1035 2.28027 15.3662Q1.57227 14.6289 1.57227 13.1934L1.57227 5.72266Q1.57227 4.29688 2.28027 3.55957Q2.98828 2.82227 4.47266 2.82227L17.0508 2.82227Q18.5254 2.82227 19.2383 3.55957Q19.9512 4.29688 19.9512 5.72266L19.9512 13.1934Q19.9512 14.6289 19.2383 15.3662Q18.5254 16.1035 17.0508 16.1035L10.7227 16.1035Q10.3125 16.1035 10.0586 16.1914Q9.80469 16.2793 9.53125 16.5625Z" fill="#ffffff"/>
  <path d="M9.19073 14.5311L12.8713 14.5311Q13.1517 14.5311 13.3416 14.3502Q13.5315 14.1694 13.5315 13.8981Q13.5315 13.6268 13.3416 13.4459Q13.1517 13.265 12.8713 13.265L11.75 13.265L11.75 8.66205Q11.75 8.29127 11.5691 8.06971Q11.3882 7.84816 11.0446 7.84816L9.34447 7.84816Q9.06413 7.84816 8.87422 8.02902Q8.68431 8.20988 8.68431 8.48118Q8.68431 8.75248 8.87422 8.93334Q9.06413 9.11421 9.34447 9.11421L10.3121 9.11421L10.3121 13.265L9.19073 13.265Q8.91039 13.265 8.72049 13.4459Q8.53058 13.6268 8.53058 13.8981Q8.53058 14.1694 8.72049 14.3502Q8.91039 14.5311 9.19073 14.5311ZM10.6919 6.33794Q11.1893 6.33794 11.5284 5.9943Q11.8675 5.65065 11.8675 5.16232Q11.8675 4.66494 11.5284 4.3213Q11.1893 3.97766 10.6919 3.97766Q10.2036 3.97766 9.85993 4.3213Q9.51629 4.66494 9.51629 5.16232Q9.51629 5.65065 9.85993 5.9943Q10.2036 6.33794 10.6919 6.33794Z" fill="#ffffff"/>
 </g>
</svg>
