<?xml version="1.0" encoding="UTF-8"?>
<!--Generator: Apple Native CoreSVG 175.5-->
<!DOCTYPE svg
PUBLIC "-//W3C//DTD SVG 1.1//EN"
       "http://www.w3.org/Graphics/SVG/1.1/DTD/svg11.dtd">
<svg version="1.1" xmlns="http://www.w3.org/2000/svg" xmlns:xlink="http://www.w3.org/1999/xlink" width="21.5234" height="21.5723">
 <g>
  <rect height="21.5723" opacity="0" width="21.5234" x="0" y="0"/>
  <path d="M5.80078 21.5723Q6.09375 21.5723 6.33301 21.4209Q6.57227 21.2695 6.92383 20.9473L10.4492 17.7246L17.0508 17.7246Q18.5059 17.7246 19.502 17.207Q20.498 16.6895 21.0107 15.6934Q21.5234 14.6973 21.5234 13.2617L21.5234 5.78125Q21.5234 4.3457 21.0107 3.34961Q20.498 2.35352 19.502 1.83105Q18.5059 1.30859 17.0508 1.30859L4.47266 1.30859Q3.01758 1.30859 2.02148 1.83105Q1.02539 2.35352 0.512695 3.34961Q0 4.3457 0 5.78125L0 13.2617Q0 14.6973 0.512695 15.6934Q1.02539 16.6895 2.02148 17.207Q3.01758 17.7246 4.47266 17.7246L4.93164 17.7246L4.93164 20.5664Q4.93164 21.0254 5.15625 21.2988Q5.38086 21.5723 5.80078 21.5723Z" fill="#ffffff"/>
  <path d="M9.13974 14.7517Q8.85036 14.7517 8.6514 14.5664Q8.45245 14.381 8.45245 14.0916Q8.45245 13.8203 8.6514 13.6259Q8.85036 13.4314 9.13974 13.4314L10.2882 13.4314L10.2882 9.17208L9.29347 9.17208Q9.01313 9.17208 8.81418 8.98669Q8.61523 8.80131 8.61523 8.51192Q8.61523 8.24063 8.81418 8.0462Q9.01313 7.85177 9.29347 7.85177L11.0479 7.85177Q11.4096 7.85177 11.595 8.08689Q11.7804 8.32201 11.7804 8.70183L11.7804 13.4314L12.9288 13.4314Q13.2182 13.4314 13.4172 13.6259Q13.6161 13.8203 13.6161 14.0916Q13.6161 14.381 13.4172 14.5664Q13.2182 14.7517 12.9288 14.7517ZM10.6861 6.30538Q10.1797 6.30538 9.8225 5.94817Q9.46529 5.59096 9.46529 5.08454Q9.46529 4.56908 9.8225 4.21187Q10.1797 3.85467 10.6861 3.85467Q11.2016 3.85467 11.5498 4.21187Q11.8979 4.56908 11.8979 5.08454Q11.8979 5.59096 11.5498 5.94817Q11.2016 6.30538 10.6861 6.30538Z" fill="none"/>
 </g>
</svg>
