<?xml version="1.0" encoding="UTF-8"?>
<!--Generator: Apple Native CoreSVG 175-->
<!DOCTYPE svg
PUBLIC "-//W3C//DTD SVG 1.1//EN"
       "http://www.w3.org/Graphics/SVG/1.1/DTD/svg11.dtd">
<svg version="1.1" xmlns="http://www.w3.org/2000/svg" xmlns:xlink="http://www.w3.org/1999/xlink" width="24.1516" height="17.323">
 <g>
  <rect height="17.323" opacity="0" width="24.1516" x="0" y="0"/>
  <path d="M2.63046 17.323L16.1969 17.323Q16.1125 17.2055 16.0361 17.0756Q15.9598 16.9456 15.9109 16.8007Q15.8942 16.7523 15.8774 16.699Q15.8606 16.6457 15.8438 16.5945L2.65701 16.5945Q1.7067 16.5945 1.21765 16.1068Q0.728607 15.619 0.728607 14.6605L0.728607 2.69608Q0.728607 1.73752 1.21765 1.24985Q1.7067 0.762177 2.65701 0.762177L20.0047 0.762177Q20.9242 0.762177 21.4287 1.24985Q21.9331 1.73752 21.9331 2.69608L21.9331 3.29376Q22.2195 3.29376 22.3698 3.29376Q22.52 3.29376 22.6617 3.30078L22.6617 2.66006Q22.6617 1.37848 21.9949 0.706024Q21.3281 0.0335693 20.0243 0.0335693L2.63046 0.0335693Q1.33636 0.0335693 0.668182 0.699005Q0 1.36444 0 2.66006L0 14.6965Q0 15.9921 0.668182 16.6576Q1.33636 17.323 2.63046 17.323ZM6.99188 15.8496L15.6711 15.8496Q15.6711 15.7024 15.6711 15.5537Q15.6711 15.405 15.6711 15.2647L6.99188 15.2647Q6.87119 15.2647 6.78642 15.3495Q6.70166 15.4343 6.70166 15.555Q6.70166 15.6828 6.78642 15.7662Q6.87119 15.8496 6.99188 15.8496ZM18.1879 17.323L22.4512 17.323Q23.289 17.323 23.7203 16.8972Q24.1516 16.4714 24.1516 15.6516L24.1516 5.81955Q24.1516 4.99252 23.7168 4.55833Q23.282 4.12415 22.4512 4.12415L18.1879 4.12415Q17.364 4.12415 16.9328 4.55833Q16.5016 4.99252 16.5016 5.81955L16.5016 15.6516Q16.5016 16.4714 16.9293 16.8972Q17.357 17.323 18.1879 17.323ZM18.2031 16.6554Q17.6559 16.6554 17.4091 16.4107Q17.1622 16.1659 17.1622 15.623L17.1622 5.84106Q17.1622 5.29099 17.4091 5.03784Q17.6559 4.7847 18.2031 4.7847L19.1171 4.7847Q19.1617 4.7847 19.1617 4.83902L19.1617 4.90311Q19.1617 5.10086 19.2828 5.21492Q19.404 5.32898 19.6016 5.32898L21.0374 5.32898Q21.2422 5.32898 21.3668 5.21492Q21.4914 5.10086 21.4914 4.90311L21.4914 4.83902Q21.4914 4.7847 21.5149 4.7847L22.4359 4.7847Q22.9832 4.7847 23.2372 5.03784Q23.4911 5.29099 23.4911 5.84106L23.4911 15.623Q23.4911 16.1659 23.2372 16.4107Q22.9832 16.6554 22.4359 16.6554ZM18.95 16.1574L21.6907 16.1574Q21.9691 16.1574 21.9691 15.8929Q21.9691 15.7913 21.8855 15.7078Q21.8019 15.6242 21.6907 15.6242L18.95 15.6242Q18.8316 15.6242 18.7578 15.7078Q18.6839 15.7913 18.6839 15.8929Q18.6839 16.1574 18.95 16.1574Z" fill="rgba(0,0,0,0.85)"/>
 </g>
</svg>
