<?xml version="1.0" encoding="UTF-8"?>
<!--Generator: Apple Native CoreSVG 175-->
<!DOCTYPE svg
PUBLIC "-//W3C//DTD SVG 1.1//EN"
       "http://www.w3.org/Graphics/SVG/1.1/DTD/svg11.dtd">
<svg version="1.1" xmlns="http://www.w3.org/2000/svg" xmlns:xlink="http://www.w3.org/1999/xlink" width="15.3621" height="20.8997">
 <g>
  <rect height="20.8997" opacity="0" width="15.3621" x="0" y="0"/>
  <path d="M2.55737 20.8997L12.8047 20.8997Q14.0367 20.8997 14.6994 20.243Q15.3621 19.5863 15.3621 18.3708L15.3621 2.56134Q15.3621 1.34293 14.6994 0.68634Q14.0367 0.0297546 12.8047 0.0297546L2.55737 0.0297546Q1.32538 0.0297546 0.662689 0.68634Q0 1.34293 0 2.56134L0 18.3708Q0 19.5863 0.662689 20.243Q1.32538 20.8997 2.55737 20.8997ZM0.728607 18.0812L0.728607 2.84378L14.6407 2.84378L14.6407 18.0812ZM7.69577 20.0735Q7.40036 20.0735 7.18651 19.8596Q6.97266 19.6457 6.97266 19.3504Q6.97266 19.0552 7.18651 18.8496Q7.40036 18.6441 7.69577 18.6441Q7.98828 18.6441 8.19511 18.8496Q8.40195 19.0552 8.40195 19.3504Q8.40195 19.6457 8.19511 19.8596Q7.98828 20.0735 7.69577 20.0735ZM7.68326 1.91803Q7.49649 1.91803 7.36137 1.78284Q7.22626 1.64764 7.22626 1.45828Q7.22626 1.27151 7.36137 1.13495Q7.49649 0.998383 7.68326 0.998383Q7.86285 0.998383 7.99942 1.13495Q8.13599 1.27151 8.13599 1.45828Q8.13599 1.64764 7.99942 1.78284Q7.86285 1.91803 7.68326 1.91803Z" fill="#ffffff"/>
 </g>
</svg>
