<?xml version="1.0" encoding="UTF-8"?>
<!--Generator: Apple Native CoreSVG 175-->
<!DOCTYPE svg
PUBLIC "-//W3C//DTD SVG 1.1//EN"
       "http://www.w3.org/Graphics/SVG/1.1/DTD/svg11.dtd">
<svg version="1.1" xmlns="http://www.w3.org/2000/svg" xmlns:xlink="http://www.w3.org/1999/xlink" width="22.6617" height="17.323">
 <g>
  <rect height="17.323" opacity="0" width="22.6617" x="0" y="0"/>
  <path d="M2.63046 17.323L20.0243 17.323Q21.3281 17.323 21.9949 16.6505Q22.6617 15.9781 22.6617 14.6965L22.6617 2.66006Q22.6617 1.37848 21.9949 0.706024Q21.3281 0.0335693 20.0243 0.0335693L2.63046 0.0335693Q1.33636 0.0335693 0.668182 0.699005Q0 1.36444 0 2.66006L0 14.6965Q0 15.9921 0.668182 16.6576Q1.33636 17.323 2.63046 17.323ZM1.42853 9.13315Q1.24176 9.13589 1.10527 8.99803Q0.968781 8.86017 0.973053 8.67767Q0.970306 8.49106 1.10466 8.35587Q1.23901 8.22067 1.42578 8.22067Q1.6153 8.22067 1.75041 8.35587Q1.88553 8.49106 1.88553 8.67767Q1.88553 8.86017 1.74904 8.99529Q1.61255 9.1304 1.42853 9.13315ZM2.81128 16.5945L2.81128 0.762177L19.8433 0.762177L19.8433 16.5945ZM21.1168 9.38675Q20.8215 9.38675 20.6139 9.17282Q20.4062 8.95889 20.4062 8.66364Q20.4062 8.37112 20.6117 8.16429Q20.8173 7.95746 21.1195 7.95746Q21.4148 7.95746 21.6238 8.16429Q21.8329 8.37112 21.8329 8.66364Q21.8329 8.95889 21.6238 9.17282Q21.4148 9.38675 21.1168 9.38675Z" fill="#ffffff"/>
 </g>
</svg>
