<?xml version="1.0" encoding="UTF-8"?>
<!--Generator: Apple Native CoreSVG 175-->
<!DOCTYPE svg
PUBLIC "-//W3C//DTD SVG 1.1//EN"
       "http://www.w3.org/Graphics/SVG/1.1/DTD/svg11.dtd">
<svg version="1.1" xmlns="http://www.w3.org/2000/svg" xmlns:xlink="http://www.w3.org/1999/xlink" width="19.3457" height="11.0449">
 <g>
  <rect height="11.0449" opacity="0" width="19.3457" x="0" y="0"/>
  <path d="M16.9824 11.0254Q18.125 11.0254 18.7354 10.415Q19.3457 9.80469 19.3457 8.64258L19.3457 2.37305Q19.3457 1.2207 18.7354 0.610352Q18.125 0 16.9824 0L2.36328 0Q1.21094 0 0.605469 0.610352Q0 1.2207 0 2.37305L0 8.64258Q0 9.80469 0.605469 10.415Q1.21094 11.0254 2.36328 11.0254ZM16.5332 10.293L2.8125 10.293L2.8125 0.722656L16.5332 0.722656ZM18.5254 5.49805Q18.5254 5.79102 18.3105 6.00586Q18.0957 6.2207 17.8027 6.2207Q17.5 6.2207 17.2949 6.00586Q17.0898 5.79102 17.0898 5.49805Q17.0898 5.20508 17.2949 4.99512Q17.5 4.78516 17.8027 4.78516Q18.0957 4.78516 18.3105 4.99512Q18.5254 5.20508 18.5254 5.49805ZM1.44531 6.94336Q1.32812 6.94336 1.25 6.86523Q1.17188 6.78711 1.17188 6.66992L1.17188 4.35547Q1.17188 4.23828 1.25 4.16016Q1.32812 4.08203 1.44531 4.08203Q1.5625 4.08203 1.63574 4.16016Q1.70898 4.23828 1.70898 4.35547L1.70898 6.66992Q1.70898 6.78711 1.63574 6.86523Q1.5625 6.94336 1.44531 6.94336Z" fill="#ffffff"/>
 </g>
</svg>
