<?xml version="1.0" encoding="UTF-8"?>
<!--Generator: Apple Native CoreSVG 175-->
<!DOCTYPE svg
PUBLIC "-//W3C//DTD SVG 1.1//EN"
       "http://www.w3.org/Graphics/SVG/1.1/DTD/svg11.dtd">
<svg version="1.1" xmlns="http://www.w3.org/2000/svg" xmlns:xlink="http://www.w3.org/1999/xlink" width="19.1602" height="19.1504">
 <g>
  <rect height="19.1504" opacity="0" width="19.1602" x="0" y="0"/>
  <path d="M9.57031 19.1504Q11.5527 19.1504 13.2861 18.4082Q15.0195 17.666 16.3379 16.3428Q17.6562 15.0195 18.4082 13.2861Q19.1602 11.5527 19.1602 9.58008Q19.1602 7.60742 18.4082 5.87402Q17.6562 4.14062 16.3379 2.81738Q15.0195 1.49414 13.2861 0.751953Q11.5527 0.00976562 9.57031 0.00976562Q7.59766 0.00976562 5.86426 0.751953Q4.13086 1.49414 2.81738 2.81738Q1.50391 4.14062 0.751953 5.87402Q0 7.60742 0 9.58008Q0 11.5527 0.74707 13.2861Q1.49414 15.0195 2.8125 16.3428Q4.13086 17.666 5.86914 18.4082Q7.60742 19.1504 9.57031 19.1504ZM7.55859 15.9863Q6.76758 15.9863 6.34277 15.5713Q5.91797 15.1562 5.91797 14.3555L5.91797 7.02148L6.52344 7.62695L6.52344 14.3359Q6.52344 14.8828 6.77734 15.1367Q7.03125 15.3906 7.60742 15.3906L11.5332 15.3906Q12.0996 15.3906 12.3584 15.1465Q12.6172 14.9023 12.627 14.3652L12.627 13.7402L13.1836 14.2969L13.1836 14.5117Q13.1152 15.9863 11.5918 15.9863ZM8.33008 15Q8.07617 15 8.07617 14.7559Q8.07617 14.4922 8.33008 14.4922L10.8203 14.4922Q11.0742 14.4922 11.0742 14.7559Q11.0742 15 10.8203 15ZM13.2324 12.0898L12.627 11.4844L12.627 4.84375Q12.627 4.28711 12.3682 4.02832Q12.1094 3.76953 11.5332 3.76953L10.8105 3.76953Q10.7617 3.76953 10.7617 3.84766L10.7617 3.90625Q10.7617 4.32617 10.3516 4.32617L8.78906 4.32617Q8.38867 4.32617 8.38867 3.90625L8.38867 3.84766Q8.38867 3.76953 8.32031 3.76953L7.60742 3.76953Q7.04102 3.76953 6.78223 4.02344Q6.52344 4.27734 6.52344 4.82422L6.52344 5.38086L5.95703 4.81445L5.95703 4.67773Q6.03516 3.17383 7.55859 3.17383L11.5918 3.17383Q12.373 3.17383 12.8027 3.59863Q13.2324 4.02344 13.2324 4.81445ZM14.2969 14.6973L4.42383 4.82422Q4.3457 4.73633 4.33594 4.61914Q4.32617 4.50195 4.42383 4.39453Q4.51172 4.30664 4.63867 4.30664Q4.76562 4.30664 4.85352 4.39453L14.7168 14.2773Q14.8047 14.3652 14.8047 14.4873Q14.8047 14.6094 14.7168 14.6973Q14.6289 14.8047 14.5068 14.7998Q14.3848 14.7949 14.2969 14.6973Z" fill="rgba(0,0,0,0.85)"/>
 </g>
</svg>
