<?xml version="1.0" encoding="UTF-8"?>
<!--Generator: Apple Native CoreSVG 175-->
<!DOCTYPE svg
PUBLIC "-//W3C//DTD SVG 1.1//EN"
       "http://www.w3.org/Graphics/SVG/1.1/DTD/svg11.dtd">
<svg version="1.1" xmlns="http://www.w3.org/2000/svg" xmlns:xlink="http://www.w3.org/1999/xlink" width="12.6727" height="22.6569">
 <g>
  <rect height="22.6569" opacity="0" width="12.6727" x="0" y="0"/>
  <path d="M2.11182 18.613L10.5609 18.613Q11.5872 18.613 12.13 18.0626Q12.6727 17.5122 12.6727 16.4525L12.6727 3.49152Q12.6727 2.43179 12.13 1.87782Q11.5872 1.32385 10.5609 1.32385L7.44858 1.32385L7.44858 1.11221Q7.44858 0.643768 7.12799 0.323257Q6.8074 0.00274658 6.33636 0.00274658Q5.85815 0.00274658 5.53413 0.323257Q5.21011 0.643768 5.21011 1.11221L5.21011 1.32385L2.11182 1.32385Q1.08551 1.32385 0.542755 1.87782Q0 2.43179 0 3.49152L0 16.4525Q0 17.5122 0.542755 18.0626Q1.08551 18.613 2.11182 18.613ZM2.12662 17.8918Q1.43906 17.8918 1.08498 17.5224Q0.730896 17.1529 0.730896 16.447L0.730896 3.48999Q0.730896 2.79114 1.08498 2.42157Q1.43906 2.052 2.12662 2.052L10.5461 2.052Q11.2364 2.052 11.5891 2.42157Q11.9418 2.79114 11.9418 3.48999L11.9418 16.447Q11.9418 17.1529 11.5891 17.5224Q11.2364 17.8918 10.5461 17.8918ZM6.33636 1.58722Q6.13907 1.58722 6.00433 1.45103Q5.8696 1.31485 5.8696 1.11771Q5.8696 0.930176 6.00433 0.793991Q6.13907 0.657806 6.33636 0.657806Q6.52664 0.657806 6.65787 0.793991Q6.78909 0.930176 6.78909 1.11771Q6.78909 1.31485 6.65787 1.45103Q6.52664 1.58722 6.33636 1.58722ZM3.25592 16.283L9.43634 16.283Q9.8407 16.283 10.0965 16.0368Q10.3523 15.7907 10.3523 15.3865L10.3523 5.5368Q10.3523 5.13245 10.0965 4.88991Q9.8407 4.64737 9.43634 4.64737L3.25592 4.64737Q2.8418 4.64737 2.59087 4.88991Q2.33994 5.13245 2.33994 5.5368L2.33994 15.3865Q2.33994 15.7907 2.59087 16.0368Q2.8418 16.283 3.25592 16.283ZM5.02975 14.4392Q4.89929 14.4392 4.80965 14.3552Q4.72 14.2712 4.72 14.1463Q4.72 14.0184 4.80965 13.9331Q4.89929 13.8478 5.02975 13.8478L7.66251 13.8478Q7.79724 13.8478 7.88475 13.9331Q7.97226 14.0184 7.97226 14.1463Q7.97226 14.2712 7.88475 14.3552Q7.79724 14.4392 7.66251 14.4392ZM4.38599 12.6302Q4.2485 12.6302 4.161 12.5462Q4.07349 12.4622 4.07349 12.3344Q4.07349 12.2165 4.161 12.1276Q4.2485 12.0387 4.38599 12.0387L8.41995 12.0387Q8.54767 12.0387 8.63869 12.1276Q8.72971 12.2165 8.72971 12.3344Q8.72971 12.4622 8.63869 12.5462Q8.54767 12.6302 8.41995 12.6302ZM6.33636 10.7306Q5.7254 10.7306 5.27695 10.3065Q4.82849 9.88251 4.82849 9.25903Q4.82849 8.90747 4.97635 8.57491Q5.12421 8.24234 5.29297 7.92984L6.16135 6.33133Q6.23199 6.20941 6.33636 6.20804Q6.44073 6.20667 6.51138 6.34537L7.37976 7.92984Q7.54852 8.24234 7.69638 8.57491Q7.84424 8.90747 7.84424 9.25903Q7.84424 9.88251 7.40204 10.3065Q6.95984 10.7306 6.33636 10.7306ZM8.55545 22.6569L12.3282 22.6569Q12.4734 22.6569 12.5731 22.5572Q12.6727 22.4576 12.6727 22.3123Q12.6727 22.1712 12.5731 22.0667Q12.4734 21.9623 12.3282 21.9623L8.55545 21.9623Q7.62146 21.9623 7.14394 21.5138Q6.66641 21.0654 6.66641 20.1666L6.66641 18.2138L5.95779 18.2138L5.95779 20.1666Q5.95779 21.342 6.64436 21.9994Q7.33093 22.6569 8.55545 22.6569Z" fill="#ffffff"/>
 </g>
</svg>
