<?xml version="1.0" encoding="UTF-8"?>
<!--Generator: Apple Native CoreSVG 175.5-->
<!DOCTYPE svg
PUBLIC "-//W3C//DTD SVG 1.1//EN"
       "http://www.w3.org/Graphics/SVG/1.1/DTD/svg11.dtd">
<svg version="1.1" xmlns="http://www.w3.org/2000/svg" xmlns:xlink="http://www.w3.org/1999/xlink" width="14.4727" height="25.9277">
 <g>
  <rect height="25.9277" opacity="0" width="14.4727" x="0" y="0"/>
  <path d="M2.69531 21.4648L11.7773 21.4648Q13.0566 21.4648 13.7646 20.7422Q14.4727 20.0195 14.4727 18.7207L14.4727 4.77539Q14.4727 3.47656 13.7646 2.75391Q13.0566 2.03125 11.7773 2.03125L9.19922 2.03125L9.19922 1.95312Q9.19922 1.08398 8.65723 0.541992Q8.11523 0 7.23633 0Q6.35742 0 5.81543 0.541992Q5.27344 1.08398 5.27344 1.95312L5.27344 2.03125L2.69531 2.03125Q1.41602 2.03125 0.708008 2.75391Q0 3.47656 0 4.77539L0 18.7207Q0 20.0195 0.708008 20.7422Q1.41602 21.4648 2.69531 21.4648ZM2.77344 19.8438Q2.22656 19.8438 1.92871 19.541Q1.63086 19.2383 1.63086 18.7012L1.63086 4.79492Q1.63086 4.25781 1.92871 3.95508Q2.22656 3.65234 2.77344 3.65234L11.6992 3.65234Q12.2559 3.65234 12.5488 3.95508Q12.8418 4.25781 12.8418 4.79492L12.8418 18.7012Q12.8418 19.2383 12.5488 19.541Q12.2559 19.8438 11.6992 19.8438ZM7.23633 2.69531Q6.93359 2.69531 6.72852 2.48535Q6.52344 2.27539 6.52344 1.97266Q6.52344 1.67969 6.72852 1.46973Q6.93359 1.25977 7.23633 1.25977Q7.53906 1.25977 7.74414 1.46973Q7.94922 1.67969 7.94922 1.97266Q7.94922 2.27539 7.74414 2.48535Q7.53906 2.69531 7.23633 2.69531ZM9.51172 25.7617L13.7695 25.7617Q14.0625 25.7617 14.2676 25.5566Q14.4727 25.3516 14.4727 25.0586Q14.4727 24.7559 14.2676 24.5459Q14.0625 24.3359 13.7695 24.3359L9.51172 24.3359Q8.66211 24.3359 8.2373 23.9648Q7.8125 23.5938 7.8125 22.7441L7.8125 20.3906L6.38672 20.3906L6.38672 22.7441Q6.38672 24.1797 7.23145 24.9707Q8.07617 25.7617 9.51172 25.7617Z" fill="#ffffff"/>
  <path d="M3.99414 18.4668L10.498 18.4668Q10.9375 18.4668 11.2109 18.2031Q11.4844 17.9395 11.4844 17.5L11.4844 6.98242Q11.4844 6.54297 11.2109 6.2793Q10.9375 6.01562 10.498 6.01562L3.99414 6.01562Q3.54492 6.01562 3.27637 6.2793Q3.00781 6.54297 3.00781 6.98242L3.00781 17.5Q3.00781 17.9395 3.27637 18.2031Q3.54492 18.4668 3.99414 18.4668Z" fill="#ffffff"/>
  <path d="M6.03516 16.5527Q5.82031 16.5527 5.68848 16.416Q5.55664 16.2793 5.55664 16.084Q5.55664 15.8789 5.68848 15.7373Q5.82031 15.5957 6.03516 15.5957L8.45703 15.5957Q8.66211 15.5957 8.79883 15.7373Q8.93555 15.8789 8.93555 16.084Q8.93555 16.2793 8.79883 16.416Q8.66211 16.5527 8.45703 16.5527ZM5.29297 14.5117Q5.07812 14.5117 4.94141 14.375Q4.80469 14.2383 4.80469 14.0332Q4.80469 13.8379 4.94141 13.6963Q5.07812 13.5547 5.29297 13.5547L9.22852 13.5547Q9.43359 13.5547 9.57031 13.6963Q9.70703 13.8379 9.70703 14.0332Q9.70703 14.2383 9.57031 14.375Q9.43359 14.5117 9.22852 14.5117ZM7.23633 12.1973Q6.61133 12.1973 6.15234 11.7627Q5.69336 11.3281 5.69336 10.6836Q5.69336 10.332 5.84473 9.98535Q5.99609 9.63867 6.17188 9.32617L6.96289 7.86133Q7.08984 7.62695 7.23633 7.62207Q7.38281 7.61719 7.50977 7.86133L8.30078 9.32617Q8.47656 9.63867 8.62793 9.98535Q8.7793 10.332 8.7793 10.6836Q8.7793 11.3281 8.33008 11.7627Q7.88086 12.1973 7.23633 12.1973Z" fill="none"/>
 </g>
</svg>
