<?xml version="1.0" encoding="UTF-8"?>
<!--Generator: Apple Native CoreSVG 175-->
<!DOCTYPE svg
PUBLIC "-//W3C//DTD SVG 1.1//EN"
       "http://www.w3.org/Graphics/SVG/1.1/DTD/svg11.dtd">
<svg version="1.1" xmlns="http://www.w3.org/2000/svg" xmlns:xlink="http://www.w3.org/1999/xlink" width="19.1602" height="19.1504">
 <g>
  <rect height="19.1504" opacity="0" width="19.1602" x="0" y="0"/>
  <path d="M9.57031 19.1406Q11.5527 19.1406 13.2861 18.3984Q15.0195 17.6562 16.3379 16.333Q17.6562 15.0098 18.4082 13.2764Q19.1602 11.543 19.1602 9.57031Q19.1602 7.59766 18.4082 5.86426Q17.6562 4.13086 16.3379 2.80762Q15.0195 1.48438 13.2861 0.742188Q11.5527 0 9.57031 0Q7.59766 0 5.86426 0.742188Q4.13086 1.48438 2.81738 2.80762Q1.50391 4.13086 0.751953 5.86426Q0 7.59766 0 9.57031Q0 11.543 0.74707 13.2764Q1.49414 15.0098 2.8125 16.333Q4.13086 17.6562 5.86914 18.3984Q7.60742 19.1406 9.57031 19.1406ZM9.20898 14.0234Q8.26172 14.0234 7.57812 13.5254Q6.89453 13.0273 6.73828 12.2656Q6.71875 12.1777 6.70898 12.1045Q6.69922 12.0312 6.69922 11.9629Q6.69922 11.7969 6.79199 11.6943Q6.88477 11.5918 7.05078 11.5918Q7.33398 11.5918 7.41211 11.8945Q7.50977 12.5391 8.0127 12.9395Q8.51562 13.3398 9.23828 13.3398Q10.0098 13.3398 10.4639 12.832Q10.918 12.3242 10.918 11.4453L10.918 5.51758Q10.918 5.3418 11.0205 5.23438Q11.123 5.12695 11.2988 5.12695Q11.4746 5.12695 11.5771 5.23438Q11.6797 5.3418 11.6797 5.51758L11.6797 11.4453Q11.6797 12.627 11.0254 13.3252Q10.3711 14.0234 9.20898 14.0234Z" fill="#ffffff"/>
 </g>
</svg>
