<?xml version="1.0" encoding="UTF-8"?>
<!--Generator: Apple Native CoreSVG 175.5-->
<!DOCTYPE svg
PUBLIC "-//W3C//DTD SVG 1.1//EN"
       "http://www.w3.org/Graphics/SVG/1.1/DTD/svg11.dtd">
<svg version="1.1" xmlns="http://www.w3.org/2000/svg" xmlns:xlink="http://www.w3.org/1999/xlink" width="19.9219" height="19.9316">
 <g>
  <rect height="19.9316" opacity="0" width="19.9219" x="0" y="0"/>
  <path d="M9.96094 19.9219Q12.002 19.9219 13.8037 19.1406Q15.6055 18.3594 16.9824 16.9824Q18.3594 15.6055 19.1406 13.8037Q19.9219 12.002 19.9219 9.96094Q19.9219 7.91992 19.1406 6.11816Q18.3594 4.31641 16.9824 2.93945Q15.6055 1.5625 13.7988 0.78125Q11.9922 0 9.95117 0Q7.91016 0 6.1084 0.78125Q4.30664 1.5625 2.93457 2.93945Q1.5625 4.31641 0.78125 6.11816Q0 7.91992 0 9.96094Q0 12.002 0.78125 13.8037Q1.5625 15.6055 2.93945 16.9824Q4.31641 18.3594 6.11816 19.1406Q7.91992 19.9219 9.96094 19.9219Z" fill="#ffffff"/>
  <path d="M9.48242 14.6777Q8.4375 14.6777 7.67578 14.2041Q6.91406 13.7305 6.65039 12.9492Q6.60156 12.832 6.58691 12.7148Q6.57227 12.5977 6.57227 12.4707Q6.57227 12.1387 6.77734 11.9287Q6.98242 11.7188 7.31445 11.7188Q7.80273 11.7188 8.06641 12.2656Q8.24219 12.7539 8.62305 13.0225Q9.00391 13.291 9.56055 13.291Q10.1855 13.291 10.5469 12.8662Q10.9082 12.4414 10.9082 11.6797L10.9082 6.06445Q10.9082 5.66406 11.1133 5.41016Q11.3184 5.15625 11.709 5.15625Q12.1094 5.15625 12.3193 5.40039Q12.5293 5.64453 12.5293 6.06445L12.5293 11.6992Q12.5293 13.1445 11.748 13.9111Q10.9668 14.6777 9.48242 14.6777Z" fill="none"/>
 </g>
</svg>
