<?xml version="1.0" encoding="UTF-8"?>
<!--Generator: Apple Native CoreSVG 175.5-->
<!DOCTYPE svg
PUBLIC "-//W3C//DTD SVG 1.1//EN"
       "http://www.w3.org/Graphics/SVG/1.1/DTD/svg11.dtd">
<svg version="1.1" xmlns="http://www.w3.org/2000/svg" xmlns:xlink="http://www.w3.org/1999/xlink" width="20.6641" height="20.459">
 <g>
  <rect height="20.459" opacity="0" width="20.6641" x="0" y="0"/>
  <path d="M12.8711 0.00976562L3.06641 0.00976562Q1.5332 0.00976562 0.766602 0.766602Q0 1.52344 0 3.03711L0 12.9102Q0 14.4238 0.766602 15.1807Q1.5332 15.9375 3.06641 15.9375L12.8711 15.9375Q14.4043 15.9375 15.166 15.1807Q15.9277 14.4238 15.9277 12.9102L15.9277 3.03711Q15.9277 1.52344 15.166 0.766602Q14.4043 0.00976562 12.8711 0.00976562ZM20.6641 7.54883Q20.6641 6.04492 19.9023 5.28809Q19.1406 4.53125 17.6074 4.53125L17.2656 4.53125L17.2656 12.9102Q17.2656 14.2969 16.7432 15.2686Q16.2207 16.2402 15.2393 16.7578Q14.2578 17.2754 12.8711 17.2754L4.73633 17.2754L4.73633 17.4316Q4.73633 18.9453 5.50293 19.7021Q6.26953 20.459 7.80273 20.459L17.6074 20.459Q19.1406 20.459 19.9023 19.7021Q20.6641 18.9453 20.6641 17.4316Z" fill="#ffffff"/>
  <path d="M7.49023 12.6953Q6.44531 12.6953 5.68359 12.2217Q4.92188 11.748 4.6582 10.9668Q4.60938 10.8496 4.59473 10.7324Q4.58008 10.6152 4.58008 10.4883Q4.58008 10.1562 4.78516 9.94629Q4.99023 9.73633 5.32227 9.73633Q5.81055 9.73633 6.07422 10.2832Q6.25 10.7715 6.63086 11.04Q7.01172 11.3086 7.56836 11.3086Q8.19336 11.3086 8.55469 10.8838Q8.91602 10.459 8.91602 9.69727L8.91602 4.08203Q8.91602 3.68164 9.12109 3.42773Q9.32617 3.17383 9.7168 3.17383Q10.1172 3.17383 10.3271 3.41797Q10.5371 3.66211 10.5371 4.08203L10.5371 9.7168Q10.5371 11.1621 9.75586 11.9287Q8.97461 12.6953 7.49023 12.6953Z" fill="none"/>
 </g>
</svg>
