<?xml version="1.0" encoding="UTF-8"?>
<!--Generator: Apple Native CoreSVG 175.5-->
<!DOCTYPE svg
PUBLIC "-//W3C//DTD SVG 1.1//EN"
       "http://www.w3.org/Graphics/SVG/1.1/DTD/svg11.dtd">
<svg version="1.1" xmlns="http://www.w3.org/2000/svg" xmlns:xlink="http://www.w3.org/1999/xlink" width="19.9219" height="19.9316">
 <g>
  <rect height="19.9316" opacity="0" width="19.9219" x="0" y="0"/>
  <path d="M9.96094 19.9219Q12.002 19.9219 13.8037 19.1406Q15.6055 18.3594 16.9824 16.9824Q18.3594 15.6055 19.1406 13.8037Q19.9219 12.002 19.9219 9.96094Q19.9219 7.91992 19.1406 6.11816Q18.3594 4.31641 16.9824 2.93945Q15.6055 1.5625 13.7988 0.78125Q11.9922 0 9.95117 0Q7.91016 0 6.1084 0.78125Q4.30664 1.5625 2.93457 2.93945Q1.5625 4.31641 0.78125 6.11816Q0 7.91992 0 9.96094Q0 12.002 0.78125 13.8037Q1.5625 15.6055 2.93945 16.9824Q4.31641 18.3594 6.11816 19.1406Q7.91992 19.9219 9.96094 19.9219Z" fill="#ffffff"/>
  <path d="M7.33398 14.5801Q6.95312 14.5801 6.74316 14.3408Q6.5332 14.1016 6.5332 13.6621L6.5332 6.07422Q6.5332 5.64453 6.74316 5.40039Q6.95312 5.15625 7.33398 5.15625Q7.72461 5.15625 7.93457 5.40039Q8.14453 5.64453 8.14453 6.07422L8.14453 9.52148L8.20312 9.52148L12.1777 5.47852Q12.3438 5.3125 12.4951 5.23438Q12.6465 5.15625 12.832 5.15625Q13.1445 5.15625 13.3594 5.36133Q13.5742 5.56641 13.5742 5.84961Q13.5742 6.01562 13.5156 6.15234Q13.457 6.28906 13.3203 6.43555L10.5566 9.26758L13.5645 13.2031Q13.6719 13.3496 13.7354 13.5059Q13.7988 13.6621 13.7988 13.8184Q13.7988 14.1504 13.5791 14.3652Q13.3594 14.5801 13.0176 14.5801Q12.8027 14.5801 12.6318 14.4824Q12.4609 14.3848 12.3047 14.1797L9.38477 10.3125L8.14453 11.582L8.14453 13.6621Q8.14453 14.1016 7.93457 14.3408Q7.72461 14.5801 7.33398 14.5801Z" fill="none"/>
 </g>
</svg>
