<?xml version="1.0" encoding="UTF-8"?>
<!--Generator: Apple Native CoreSVG 175-->
<!DOCTYPE svg
PUBLIC "-//W3C//DTD SVG 1.1//EN"
       "http://www.w3.org/Graphics/SVG/1.1/DTD/svg11.dtd">
<svg version="1.1" xmlns="http://www.w3.org/2000/svg" xmlns:xlink="http://www.w3.org/1999/xlink" width="19.1602" height="19.1504">
 <g>
  <rect height="19.1504" opacity="0" width="19.1602" x="0" y="0"/>
  <path d="M9.57031 19.1406Q11.5527 19.1406 13.2861 18.3984Q15.0195 17.6562 16.3379 16.333Q17.6562 15.0098 18.4082 13.2764Q19.1602 11.543 19.1602 9.57031Q19.1602 7.59766 18.4082 5.86426Q17.6562 4.13086 16.3379 2.80762Q15.0195 1.48438 13.2861 0.742188Q11.5527 0 9.57031 0Q7.59766 0 5.86426 0.742188Q4.13086 1.48438 2.81738 2.80762Q1.50391 4.13086 0.751953 5.86426Q0 7.59766 0 9.57031Q0 11.543 0.74707 13.2764Q1.49414 15.0098 2.8125 16.333Q4.13086 17.6562 5.86914 18.3984Q7.60742 19.1406 9.57031 19.1406ZM9.57031 18.3984Q7.74414 18.3984 6.14746 17.71Q4.55078 17.0215 3.33496 15.8105Q2.11914 14.5996 1.43555 12.998Q0.751953 11.3965 0.751953 9.57031Q0.751953 7.74414 1.43555 6.14258Q2.11914 4.54102 3.33496 3.3252Q4.55078 2.10938 6.14746 1.4209Q7.74414 0.732422 9.57031 0.732422Q11.4062 0.732422 13.0029 1.4209Q14.5996 2.10938 15.8154 3.3252Q17.0312 4.54102 17.7197 6.14258Q18.4082 7.74414 18.4082 9.57031Q18.4082 11.3965 17.7246 12.998Q17.041 14.5996 15.8252 15.8105Q14.6094 17.0215 13.0078 17.71Q11.4062 18.3984 9.57031 18.3984ZM7.02148 13.9648Q7.19727 13.9648 7.29492 13.8574Q7.39258 13.75 7.39258 13.5742L7.39258 10.7715L8.68164 9.45312L12.041 13.7402Q12.1387 13.8574 12.2168 13.9062Q12.2949 13.9551 12.4219 13.9551Q12.5684 13.9551 12.6758 13.8574Q12.7832 13.7598 12.7832 13.5938Q12.7832 13.5059 12.7393 13.4229Q12.6953 13.3398 12.6465 13.2812L9.22852 8.93555L12.3828 5.75195Q12.4512 5.68359 12.4756 5.62012Q12.5 5.55664 12.5 5.46875Q12.5 5.3418 12.3975 5.24414Q12.2949 5.14648 12.168 5.14648Q12.0605 5.14648 11.9873 5.18555Q11.9141 5.22461 11.8164 5.3125L7.43164 9.74609L7.39258 9.74609L7.39258 5.54688Q7.39258 5.37109 7.29492 5.25879Q7.19727 5.14648 7.02148 5.14648Q6.85547 5.14648 6.75293 5.25879Q6.65039 5.37109 6.65039 5.54688L6.65039 13.5742Q6.65039 13.75 6.75293 13.8574Q6.85547 13.9648 7.02148 13.9648Z" fill="#ffffff"/>
 </g>
</svg>
