<?xml version="1.0" encoding="UTF-8"?>
<!--Generator: Apple Native CoreSVG 175.5-->
<!DOCTYPE svg
PUBLIC "-//W3C//DTD SVG 1.1//EN"
       "http://www.w3.org/Graphics/SVG/1.1/DTD/svg11.dtd">
<svg version="1.1" xmlns="http://www.w3.org/2000/svg" xmlns:xlink="http://www.w3.org/1999/xlink" width="10.5273" height="14.4629">
 <g>
  <rect height="14.4629" opacity="0" width="10.5273" x="0" y="0"/>
  <path d="M0.888672 14.4629Q1.30859 14.4629 1.55762 14.2188Q1.80664 13.9746 1.80664 13.5547L1.80664 9.50195L3.4668 7.73438L8.7793 13.9746Q9.01367 14.248 9.2041 14.3555Q9.39453 14.4629 9.63867 14.4629Q10.0293 14.4629 10.2783 14.2285Q10.5273 13.9941 10.5273 13.6328Q10.5273 13.4473 10.4395 13.2617Q10.3516 13.0762 10.1758 12.8711L4.74609 6.45508L9.64844 1.41602Q9.79492 1.26953 9.86328 1.12305Q9.93164 0.976562 9.93164 0.810547Q9.93164 0.478516 9.69727 0.253906Q9.46289 0.0292969 9.12109 0.0292969Q8.74023 0.0292969 8.39844 0.371094L1.89453 7.1875L1.80664 7.1875L1.80664 0.927734Q1.80664 0.517578 1.55762 0.273438Q1.30859 0.0292969 0.888672 0.0292969Q0.478516 0.0292969 0.239258 0.273438Q0 0.517578 0 0.927734L0 13.5547Q0 13.9746 0.239258 14.2188Q0.478516 14.4629 0.888672 14.4629Z" fill="#ffffff"/>
 </g>
</svg>
