<?xml version="1.0" encoding="UTF-8"?>
<!--Generator: Apple Native CoreSVG 175-->
<!DOCTYPE svg
PUBLIC "-//W3C//DTD SVG 1.1//EN"
       "http://www.w3.org/Graphics/SVG/1.1/DTD/svg11.dtd">
<svg version="1.1" xmlns="http://www.w3.org/2000/svg" xmlns:xlink="http://www.w3.org/1999/xlink" width="29.897" height="14.8065">
 <g>
  <rect height="14.8065" opacity="0" width="29.897" x="0" y="0"/>
  <path d="M2.72659 11.537Q2.81479 11.6612 2.92671 11.695Q3.03864 11.7288 3.14865 11.6991Q3.25867 11.6695 3.32916 11.5872Q3.39966 11.505 3.40866 11.3902Q3.41766 11.2753 3.33328 11.1507L0.744934 7.41669L3.33328 3.68118Q3.41766 3.55652 3.40866 3.44521Q3.39966 3.33389 3.32916 3.24951Q3.25867 3.16513 3.14865 3.13408Q3.03864 3.10303 2.92671 3.13683Q2.81479 3.17062 2.72659 3.29483L0.147247 6.98624Q0 7.20306 0 7.41951Q0 7.63596 0.147247 7.84286ZM8.67157 14.7757L27.2594 14.7757Q28.5579 14.7757 29.2274 14.1019Q29.897 13.428 29.897 12.1562L29.897 2.61673Q29.897 1.34491 29.2274 0.672455Q28.5579 0 27.2594 0L8.67157 0Q7.37732 0 6.70921 0.665359Q6.04111 1.33072 6.04111 2.61673L6.04111 12.1562Q6.04111 13.4448 6.70921 14.1103Q7.37732 14.7757 8.67157 14.7757ZM8.69812 14.0543Q7.7504 14.0543 7.25998 13.5616Q6.76956 13.069 6.76956 12.1175L6.76956 2.65549Q6.76956 1.7038 7.25998 1.21262Q7.7504 0.721436 8.69812 0.721436L27.2371 0.721436Q28.1567 0.721436 28.6626 1.21262Q29.1684 1.7038 29.1684 2.65549L29.1684 12.1175Q29.1684 13.069 28.6626 13.5616Q28.1567 14.0543 27.2371 14.0543ZM9.67117 4.9823L10.4121 4.9823Q10.8165 4.9823 10.8165 4.57382L10.8165 3.83698Q10.8165 3.42575 10.4121 3.42575L9.67117 3.42575Q9.26682 3.42575 9.26682 3.83698L9.26682 4.57382Q9.26682 4.9823 9.67117 4.9823ZM12.813 4.9823L13.5567 4.9823Q13.961 4.9823 13.961 4.57382L13.961 3.83698Q13.961 3.42575 13.5567 3.42575L12.813 3.42575Q12.4016 3.42575 12.4016 3.83698L12.4016 4.57382Q12.4016 4.9823 12.813 4.9823ZM15.9575 4.9823L16.6914 4.9823Q17.1028 4.9823 17.1028 4.57382L17.1028 3.83698Q17.1028 3.42575 16.6914 3.42575L15.9575 3.42575Q15.5461 3.42575 15.5461 3.83698L15.5461 4.57382Q15.5461 4.9823 15.9575 4.9823ZM19.095 4.9823L19.836 4.9823Q20.2403 4.9823 20.2403 4.57382L20.2403 3.83698Q20.2403 3.42575 19.836 3.42575L19.095 3.42575Q18.6906 3.42575 18.6906 3.83698L18.6906 4.57382Q18.6906 4.9823 19.095 4.9823ZM22.2368 4.9823L22.9735 4.9823Q23.3849 4.9823 23.3849 4.57382L23.3849 3.83698Q23.3849 3.42575 22.9735 3.42575L22.2368 3.42575Q21.8254 3.42575 21.8254 3.83698L21.8254 4.57382Q21.8254 4.9823 22.2368 4.9823ZM25.3813 4.9823L26.1153 4.9823Q26.5266 4.9823 26.5266 4.57382L26.5266 3.83698Q26.5266 3.42575 26.1153 3.42575L25.3813 3.42575Q24.9699 3.42575 24.9699 3.83698L24.9699 4.57382Q24.9699 4.9823 25.3813 4.9823ZM9.67117 8.11981L10.4121 8.11981Q10.8165 8.11981 10.8165 7.71561L10.8165 6.97449Q10.8165 6.57028 10.4121 6.57028L9.67117 6.57028Q9.26682 6.57028 9.26682 6.97449L9.26682 7.71561Q9.26682 8.11981 9.67117 8.11981ZM12.813 8.11981L13.5567 8.11981Q13.961 8.11981 13.961 7.71561L13.961 6.97449Q13.961 6.57028 13.5567 6.57028L12.813 6.57028Q12.4016 6.57028 12.4016 6.97449L12.4016 7.71561Q12.4016 8.11981 12.813 8.11981ZM15.9575 8.11981L16.6914 8.11981Q17.1028 8.11981 17.1028 7.71561L17.1028 6.97449Q17.1028 6.57028 16.6914 6.57028L15.9575 6.57028Q15.5461 6.57028 15.5461 6.97449L15.5461 7.71561Q15.5461 8.11981 15.9575 8.11981ZM19.095 8.11981L19.836 8.11981Q20.2403 8.11981 20.2403 7.71561L20.2403 6.97449Q20.2403 6.57028 19.836 6.57028L19.095 6.57028Q18.6906 6.57028 18.6906 6.97449L18.6906 7.71561Q18.6906 8.11981 19.095 8.11981ZM22.2368 8.11981L22.9735 8.11981Q23.3849 8.11981 23.3849 7.71561L23.3849 6.97449Q23.3849 6.57028 22.9735 6.57028L22.2368 6.57028Q21.8254 6.57028 21.8254 6.97449L21.8254 7.71561Q21.8254 8.11981 22.2368 8.11981ZM25.3813 8.11981L26.1153 8.11981Q26.5266 8.11981 26.5266 7.71561L26.5266 6.97449Q26.5266 6.57028 26.1153 6.57028L25.3813 6.57028Q24.9699 6.57028 24.9699 6.97449L24.9699 7.71561Q24.9699 8.11981 25.3813 8.11981ZM9.67117 11.2643L10.4121 11.2643Q10.8165 11.2643 10.8165 10.8531L10.8165 10.1163Q10.8165 9.70779 10.4121 9.70779L9.67117 9.70779Q9.26682 9.70779 9.26682 10.1163L9.26682 10.8531Q9.26682 11.2643 9.67117 11.2643ZM12.8333 11.2643L22.9532 11.2643Q23.3849 11.2643 23.3849 10.8328L23.3849 10.1367Q23.3849 9.70779 22.9532 9.70779L12.8333 9.70779Q12.4016 9.70779 12.4016 10.1367L12.4016 10.8328Q12.4016 11.2643 12.8333 11.2643ZM25.3813 11.2643L26.1153 11.2643Q26.5266 11.2643 26.5266 10.8531L26.5266 10.1163Q26.5266 9.70779 26.1153 9.70779L25.3813 9.70779Q24.9699 9.70779 24.9699 10.1163L24.9699 10.8531Q24.9699 11.2643 25.3813 11.2643Z" fill="#ffffff"/>
 </g>
</svg>
