<?xml version="1.0" encoding="UTF-8"?>
<!--Generator: Apple Native CoreSVG 175-->
<!DOCTYPE svg
PUBLIC "-//W3C//DTD SVG 1.1//EN"
       "http://www.w3.org/Graphics/SVG/1.1/DTD/svg11.dtd">
<svg version="1.1" xmlns="http://www.w3.org/2000/svg" xmlns:xlink="http://www.w3.org/1999/xlink" width="23.8559" height="14.8065">
 <g>
  <rect height="14.8065" opacity="0" width="23.8559" x="0" y="0"/>
  <path d="M2.63046 14.7757L21.2184 14.7757Q22.5168 14.7757 23.1863 14.1019Q23.8559 13.428 23.8559 12.1562L23.8559 2.61673Q23.8559 1.34491 23.1863 0.672455Q22.5168 0 21.2184 0L2.63046 0Q1.33636 0 0.668182 0.665359Q0 1.33072 0 2.61673L0 12.1562Q0 13.4448 0.668182 14.1103Q1.33636 14.7757 2.63046 14.7757ZM2.65701 14.0543Q1.7067 14.0543 1.21765 13.5616Q0.728607 13.069 0.728607 12.1175L0.728607 2.65549Q0.728607 1.7038 1.21765 1.21262Q1.7067 0.721436 2.65701 0.721436L21.1961 0.721436Q22.1156 0.721436 22.6215 1.21262Q23.1273 1.7038 23.1273 2.65549L23.1273 12.1175Q23.1273 13.069 22.6215 13.5616Q22.1156 14.0543 21.1961 14.0543ZM3.62732 4.9823L4.37119 4.9823Q4.77539 4.9823 4.77539 4.57382L4.77539 3.83698Q4.77539 3.42575 4.37119 3.42575L3.62732 3.42575Q3.22586 3.42575 3.22586 3.83698L3.22586 4.57382Q3.22586 4.9823 3.62732 4.9823ZM6.77185 4.9823L7.51572 4.9823Q7.91718 4.9823 7.91718 4.57382L7.91718 3.83698Q7.91718 3.42575 7.51572 3.42575L6.77185 3.42575Q6.36063 3.42575 6.36063 3.83698L6.36063 4.57382Q6.36063 4.9823 6.77185 4.9823ZM9.91638 4.9823L10.6505 4.9823Q11.0617 4.9823 11.0617 4.57382L11.0617 3.83698Q11.0617 3.42575 10.6505 3.42575L9.91638 3.42575Q9.50516 3.42575 9.50516 3.83698L9.50516 4.57382Q9.50516 4.9823 9.91638 4.9823ZM13.0511 4.9823L13.795 4.9823Q14.1992 4.9823 14.1992 4.57382L14.1992 3.83698Q14.1992 3.42575 13.795 3.42575L13.0511 3.42575Q12.6497 3.42575 12.6497 3.83698L12.6497 4.57382Q12.6497 4.9823 13.0511 4.9823ZM16.1957 4.9823L16.9324 4.9823Q17.341 4.9823 17.341 4.57382L17.341 3.83698Q17.341 3.42575 16.9324 3.42575L16.1957 3.42575Q15.7845 3.42575 15.7845 3.83698L15.7845 4.57382Q15.7845 4.9823 16.1957 4.9823ZM19.3402 4.9823L20.0743 4.9823Q20.4855 4.9823 20.4855 4.57382L20.4855 3.83698Q20.4855 3.42575 20.0743 3.42575L19.3402 3.42575Q18.929 3.42575 18.929 3.83698L18.929 4.57382Q18.929 4.9823 19.3402 4.9823ZM3.62732 8.11981L4.37119 8.11981Q4.77539 8.11981 4.77539 7.71561L4.77539 6.97449Q4.77539 6.57028 4.37119 6.57028L3.62732 6.57028Q3.22586 6.57028 3.22586 6.97449L3.22586 7.71561Q3.22586 8.11981 3.62732 8.11981ZM6.77185 8.11981L7.51572 8.11981Q7.91718 8.11981 7.91718 7.71561L7.91718 6.97449Q7.91718 6.57028 7.51572 6.57028L6.77185 6.57028Q6.36063 6.57028 6.36063 6.97449L6.36063 7.71561Q6.36063 8.11981 6.77185 8.11981ZM9.91638 8.11981L10.6505 8.11981Q11.0617 8.11981 11.0617 7.71561L11.0617 6.97449Q11.0617 6.57028 10.6505 6.57028L9.91638 6.57028Q9.50516 6.57028 9.50516 6.97449L9.50516 7.71561Q9.50516 8.11981 9.91638 8.11981ZM13.0511 8.11981L13.795 8.11981Q14.1992 8.11981 14.1992 7.71561L14.1992 6.97449Q14.1992 6.57028 13.795 6.57028L13.0511 6.57028Q12.6497 6.57028 12.6497 6.97449L12.6497 7.71561Q12.6497 8.11981 13.0511 8.11981ZM16.1957 8.11981L16.9324 8.11981Q17.341 8.11981 17.341 7.71561L17.341 6.97449Q17.341 6.57028 16.9324 6.57028L16.1957 6.57028Q15.7845 6.57028 15.7845 6.97449L15.7845 7.71561Q15.7845 8.11981 16.1957 8.11981ZM19.3402 8.11981L20.0743 8.11981Q20.4855 8.11981 20.4855 7.71561L20.4855 6.97449Q20.4855 6.57028 20.0743 6.57028L19.3402 6.57028Q18.929 6.57028 18.929 6.97449L18.929 7.71561Q18.929 8.11981 19.3402 8.11981ZM3.62732 11.2643L4.37119 11.2643Q4.77539 11.2643 4.77539 10.8531L4.77539 10.1163Q4.77539 9.70779 4.37119 9.70779L3.62732 9.70779Q3.22586 9.70779 3.22586 10.1163L3.22586 10.8531Q3.22586 11.2643 3.62732 11.2643ZM6.79214 11.2643L16.9121 11.2643Q17.341 11.2643 17.341 10.8328L17.341 10.1367Q17.341 9.70779 16.9121 9.70779L6.79214 9.70779Q6.36063 9.70779 6.36063 10.1367L6.36063 10.8328Q6.36063 11.2643 6.79214 11.2643ZM19.3402 11.2643L20.0743 11.2643Q20.4855 11.2643 20.4855 10.8531L20.4855 10.1163Q20.4855 9.70779 20.0743 9.70779L19.3402 9.70779Q18.929 9.70779 18.929 10.1163L18.929 10.8531Q18.929 11.2643 19.3402 11.2643Z" fill="#ffffff"/>
 </g>
</svg>
