<?xml version="1.0" encoding="UTF-8"?>
<!--Generator: Apple Native CoreSVG 175-->
<!DOCTYPE svg
PUBLIC "-//W3C//DTD SVG 1.1//EN"
       "http://www.w3.org/Graphics/SVG/1.1/DTD/svg11.dtd">
<svg version="1.1" xmlns="http://www.w3.org/2000/svg" xmlns:xlink="http://www.w3.org/1999/xlink" width="23.8559" height="14.8065">
 <g>
  <rect height="14.8065" opacity="0" width="23.8559" x="0" y="0"/>
  <path d="M2.63046 14.7757L21.2184 14.7757Q22.5168 14.7757 23.1863 14.1019Q23.8559 13.428 23.8559 12.1562L23.8559 2.61673Q23.8559 1.34491 23.1863 0.672455Q22.5168 0 21.2184 0L2.63046 0Q1.33636 0 0.668182 0.665359Q0 1.33072 0 2.61673L0 12.1562Q0 13.4448 0.668182 14.1103Q1.33636 14.7757 2.63046 14.7757ZM2.65701 14.0543Q1.7067 14.0543 1.21765 13.5616Q0.728607 13.069 0.728607 12.1175L0.728607 2.65549Q0.728607 1.7038 1.21765 1.21262Q1.7067 0.721436 2.65701 0.721436L21.1961 0.721436Q22.1156 0.721436 22.6215 1.21262Q23.1273 1.7038 23.1273 2.65549L23.1273 12.1175Q23.1273 13.069 22.6215 13.5616Q22.1156 14.0543 21.1961 14.0543ZM9.02267 4.87839L9.59061 4.87839Q9.81766 4.87839 9.81766 4.59412L9.81766 3.81668Q9.81766 3.53241 9.59061 3.53241L9.02267 3.53241Q8.79578 3.53241 8.79578 3.81668L8.79578 4.59412Q8.79578 4.87839 9.02267 4.87839ZM11.1711 4.87839L11.7433 4.87839Q11.9563 4.87839 11.9563 4.59412L11.9563 3.81668Q11.9563 3.53241 11.7433 3.53241L11.1711 3.53241Q10.9415 3.53241 10.9415 3.81668L10.9415 4.59412Q10.9415 4.87839 11.1711 4.87839ZM13.3125 4.87839L13.8777 4.87839Q14.1048 4.87839 14.1048 4.59412L14.1048 3.81668Q14.1048 3.53241 13.8777 3.53241L13.3125 3.53241Q13.0829 3.53241 13.0829 3.81668L13.0829 4.59412Q13.0829 4.87839 13.3125 4.87839ZM15.4442 4.87839L16.0066 4.87839Q16.2364 4.87839 16.2364 4.59412L16.2364 3.81668Q16.2364 3.53241 16.0066 3.53241L15.4442 3.53241Q15.2145 3.53241 15.2145 3.81668L15.2145 4.59412Q15.2145 4.87839 15.4442 4.87839ZM17.5801 4.87839L18.1578 4.87839Q18.3849 4.87839 18.3849 4.59412L18.3849 3.81668Q18.3849 3.53241 18.1578 3.53241L17.5801 3.53241Q17.363 3.53241 17.363 3.81668L17.363 4.59412Q17.363 4.87839 17.5801 4.87839ZM19.7313 4.87839L20.2937 4.87839Q20.5235 4.87839 20.5235 4.59412L20.5235 3.81668Q20.5235 3.53241 20.2937 3.53241L19.7313 3.53241Q19.5016 3.53241 19.5016 3.81668L19.5016 4.59412Q19.5016 4.87839 19.7313 4.87839ZM9.02267 8.02032L9.59061 8.02032Q9.81766 8.02032 9.81766 7.7359L9.81766 6.95419Q9.81766 6.66992 9.59061 6.66992L9.02267 6.66992Q8.79578 6.66992 8.79578 6.95419L8.79578 7.7359Q8.79578 8.02032 9.02267 8.02032ZM11.1711 8.02032L11.7433 8.02032Q11.9563 8.02032 11.9563 7.7359L11.9563 6.95419Q11.9563 6.66992 11.7433 6.66992L11.1711 6.66992Q10.9415 6.66992 10.9415 6.95419L10.9415 7.7359Q10.9415 8.02032 11.1711 8.02032ZM13.3125 8.02032L13.8777 8.02032Q14.1048 8.02032 14.1048 7.7359L14.1048 6.95419Q14.1048 6.66992 13.8777 6.66992L13.3125 6.66992Q13.0829 6.66992 13.0829 6.95419L13.0829 7.7359Q13.0829 8.02032 13.3125 8.02032ZM15.4442 8.02032L16.0066 8.02032Q16.2364 8.02032 16.2364 7.7359L16.2364 6.95419Q16.2364 6.66992 16.0066 6.66992L15.4442 6.66992Q15.2145 6.66992 15.2145 6.95419L15.2145 7.7359Q15.2145 8.02032 15.4442 8.02032ZM17.5801 8.02032L18.1578 8.02032Q18.3849 8.02032 18.3849 7.7359L18.3849 6.95419Q18.3849 6.66992 18.1578 6.66992L17.5801 6.66992Q17.363 6.66992 17.363 6.95419L17.363 7.7359Q17.363 8.02032 17.5801 8.02032ZM19.7313 8.02032L20.2937 8.02032Q20.5235 8.02032 20.5235 7.7359L20.5235 6.95419Q20.5235 6.66992 20.2937 6.66992L19.7313 6.66992Q19.5016 6.66992 19.5016 6.95419L19.5016 7.7359Q19.5016 8.02032 19.7313 8.02032ZM9.02267 11.1577L9.59061 11.1577Q9.81766 11.1577 9.81766 10.8734L9.81766 10.096Q9.81766 9.81171 9.59061 9.81171L9.02267 9.81171Q8.79578 9.81171 8.79578 10.096L8.79578 10.8734Q8.79578 11.1577 9.02267 11.1577ZM11.1711 11.1577L18.1578 11.1577Q18.3849 11.1577 18.3849 10.8734L18.3849 10.096Q18.3849 9.81171 18.1578 9.81171L11.1711 9.81171Q10.9415 9.81171 10.9415 10.096L10.9415 10.8734Q10.9415 11.1577 11.1711 11.1577ZM19.7313 11.1577L20.2937 11.1577Q20.5235 11.1577 20.5235 10.8734L20.5235 10.096Q20.5235 9.81171 20.2937 9.81171L19.7313 9.81171Q19.5016 9.81171 19.5016 10.096L19.5016 10.8734Q19.5016 11.1577 19.7313 11.1577ZM7.18094 7.0343L3.93982 3.88779Q3.74496 3.7027 3.53737 3.78006Q3.32977 3.85742 3.32977 4.09332L3.32977 10.6796Q3.32977 10.9155 3.53737 10.9943Q3.74496 11.073 3.93982 10.8878L7.18094 7.73865Q7.3558 7.5621 7.3558 7.38434Q7.3558 7.20657 7.18094 7.0343Z" fill="#ffffff"/>
 </g>
</svg>
