<?xml version="1.0" encoding="UTF-8"?>
<!--Generator: Apple Native CoreSVG 175.5-->
<!DOCTYPE svg
PUBLIC "-//W3C//DTD SVG 1.1//EN"
       "http://www.w3.org/Graphics/SVG/1.1/DTD/svg11.dtd">
<svg version="1.1" xmlns="http://www.w3.org/2000/svg" xmlns:xlink="http://www.w3.org/1999/xlink" width="19.9219" height="19.9316">
 <g>
  <rect height="19.9316" opacity="0" width="19.9219" x="0" y="0"/>
  <path d="M9.96094 19.9219Q12.002 19.9219 13.8037 19.1406Q15.6055 18.3594 16.9824 16.9824Q18.3594 15.6055 19.1406 13.8037Q19.9219 12.002 19.9219 9.96094Q19.9219 7.91992 19.1406 6.11816Q18.3594 4.31641 16.9824 2.93945Q15.6055 1.5625 13.7988 0.78125Q11.9922 0 9.95117 0Q7.91016 0 6.1084 0.78125Q4.30664 1.5625 2.93457 2.93945Q1.5625 4.31641 0.78125 6.11816Q0 7.91992 0 9.96094Q0 12.002 0.78125 13.8037Q1.5625 15.6055 2.93945 16.9824Q4.31641 18.3594 6.11816 19.1406Q7.91992 19.9219 9.96094 19.9219Z" fill="#ffffff"/>
  <path d="M6.06445 10.0586Q6.06445 9.84375 6.20605 9.70215Q6.34766 9.56055 6.55273 9.56055L7.19727 9.56055L7.19727 5.88867Q7.19727 5.57617 7.37793 5.40039Q7.55859 5.22461 7.86133 5.22461Q8.1543 5.22461 8.33008 5.40039Q8.50586 5.57617 8.50586 5.88867L8.50586 9.56055L8.96484 9.56055L12.2168 5.52734Q12.4707 5.20508 12.7637 5.20508Q13.0273 5.20508 13.2031 5.38086Q13.3789 5.55664 13.3789 5.81055Q13.3789 6.02539 13.2129 6.24023L10.5078 9.56055L13.1152 9.56055Q13.3301 9.56055 13.4668 9.70215Q13.6035 9.84375 13.6035 10.0586Q13.6035 10.2637 13.4668 10.415Q13.3301 10.5664 13.1152 10.5664L10.5078 10.5664L13.2129 13.916Q13.3887 14.1406 13.3887 14.3555Q13.3887 14.6094 13.208 14.7852Q13.0273 14.9609 12.7637 14.9609Q12.6172 14.9609 12.4854 14.8877Q12.3535 14.8145 12.2266 14.6484L8.98438 10.5664L8.50586 10.5664L8.50586 14.2969Q8.50586 14.5996 8.3252 14.7803Q8.14453 14.9609 7.86133 14.9609Q7.56836 14.9609 7.38281 14.7803Q7.19727 14.5996 7.19727 14.2969L7.19727 10.5664L6.55273 10.5664Q6.34766 10.5664 6.20605 10.415Q6.06445 10.2637 6.06445 10.0586Z" fill="none"/>
 </g>
</svg>
