<?xml version="1.0" encoding="UTF-8"?>
<!--Generator: Apple Native CoreSVG 175-->
<!DOCTYPE svg
PUBLIC "-//W3C//DTD SVG 1.1//EN"
       "http://www.w3.org/Graphics/SVG/1.1/DTD/svg11.dtd">
<svg version="1.1" xmlns="http://www.w3.org/2000/svg" xmlns:xlink="http://www.w3.org/1999/xlink" width="19.1602" height="19.1504">
 <g>
  <rect height="19.1504" opacity="0" width="19.1602" x="0" y="0"/>
  <path d="M9.57031 19.1406Q11.5527 19.1406 13.2861 18.3984Q15.0195 17.6562 16.3379 16.333Q17.6562 15.0098 18.4082 13.2764Q19.1602 11.543 19.1602 9.57031Q19.1602 7.59766 18.4082 5.86426Q17.6562 4.13086 16.3379 2.80762Q15.0195 1.48438 13.2861 0.742188Q11.5527 0 9.57031 0Q7.59766 0 5.86426 0.742188Q4.13086 1.48438 2.81738 2.80762Q1.50391 4.13086 0.751953 5.86426Q0 7.59766 0 9.57031Q0 11.543 0.74707 13.2764Q1.49414 15.0098 2.8125 16.333Q4.13086 17.6562 5.86914 18.3984Q7.60742 19.1406 9.57031 19.1406ZM6.35742 9.70703Q6.35742 9.58008 6.44043 9.49219Q6.52344 9.4043 6.66992 9.4043L7.33398 9.4043L7.33398 5.71289Q7.33398 5.54688 7.42676 5.4541Q7.51953 5.36133 7.66602 5.36133Q7.8125 5.36133 7.90527 5.4541Q7.99805 5.54688 7.99805 5.71289L7.99805 9.4043L8.54492 9.4043L11.9238 5.53711Q12.0605 5.37109 12.2168 5.37109Q12.3535 5.37109 12.4414 5.45898Q12.5293 5.54688 12.5293 5.68359Q12.5293 5.82031 12.4316 5.91797L9.375 9.4043L12.4316 9.4043Q12.5684 9.4043 12.6514 9.49219Q12.7344 9.58008 12.7344 9.70703Q12.7344 9.83398 12.6514 9.92188Q12.5684 10.0098 12.4316 10.0098L9.35547 10.0098L12.4219 13.4863Q12.5293 13.6035 12.5293 13.7402Q12.5293 13.877 12.4316 13.9648Q12.334 14.0527 12.207 14.0527Q12.1387 14.0527 12.0703 14.0234Q12.002 13.9941 11.9531 13.9355L8.53516 10.0098L7.99805 10.0098L7.99805 13.7109Q7.99805 13.8672 7.90527 13.96Q7.8125 14.0527 7.66602 14.0527Q7.53906 14.0527 7.43652 13.96Q7.33398 13.8672 7.33398 13.7109L7.33398 10.0098L6.66992 10.0098Q6.52344 10.0098 6.44043 9.92188Q6.35742 9.83398 6.35742 9.70703Z" fill="#ffffff"/>
 </g>
</svg>
