<?xml version="1.0" encoding="UTF-8"?>
<!--Generator: Apple Native CoreSVG 175.5-->
<!DOCTYPE svg
PUBLIC "-//W3C//DTD SVG 1.1//EN"
       "http://www.w3.org/Graphics/SVG/1.1/DTD/svg11.dtd">
<svg version="1.1" xmlns="http://www.w3.org/2000/svg" xmlns:xlink="http://www.w3.org/1999/xlink" width="20.1367" height="19.1113">
 <g>
  <rect height="19.1113" opacity="0" width="20.1367" x="0" y="0"/>
  <path d="M10.0684 14.9707Q12.3535 14.9707 14.209 14.4922Q16.0645 14.0137 17.3877 13.1348Q18.7109 12.2559 19.4238 11.0498Q20.1367 9.84375 20.1367 8.37891Q20.1367 6.92383 19.4238 5.71777Q18.7109 4.51172 17.3828 3.63281Q16.0547 2.75391 14.1992 2.27539Q12.3438 1.79688 10.0586 1.79688Q7.77344 1.79688 5.92285 2.27539Q4.07227 2.75391 2.74902 3.63281Q1.42578 4.51172 0.712891 5.71777Q0 6.92383 0 8.37891Q0 9.84375 0.712891 11.0498Q1.42578 12.2559 2.74902 13.1348Q4.07227 14.0137 5.92773 14.4922Q7.7832 14.9707 10.0684 14.9707ZM10.0684 13.291Q7.58789 13.291 5.71777 12.6709Q3.84766 12.0508 2.80762 10.9473Q1.76758 9.84375 1.76758 8.37891Q1.76758 6.92383 2.80762 5.81543Q3.84766 4.70703 5.71289 4.0918Q7.57812 3.47656 10.0586 3.47656Q12.5391 3.47656 14.4141 4.0918Q16.2891 4.70703 17.3291 5.81543Q18.3691 6.92383 18.3691 8.37891Q18.3691 9.84375 17.3291 10.9473Q16.2891 12.0508 14.4189 12.6709Q12.5488 13.291 10.0684 13.291ZM10.0684 19.1113Q11.8457 19.1113 12.8467 18.3203Q13.8477 17.5293 13.8477 16.123L13.8477 15.7324Q12.9785 15.918 12.0312 16.0107Q11.084 16.1035 10.0684 16.1035Q9.05273 16.1035 8.11035 16.0107Q7.16797 15.918 6.29883 15.7324L6.29883 16.123Q6.29883 17.5293 7.29492 18.3203Q8.29102 19.1113 10.0684 19.1113Z" fill="#ffffff"/>
  <path d="M8.70117 11.4355L11.7188 11.4355Q12.002 11.4355 12.1826 11.2598Q12.3633 11.084 12.3633 10.8105Q12.3633 10.5273 12.1826 10.3516Q12.002 10.1758 11.7188 10.1758L9.43359 10.1758L9.43359 5.77148Q9.43359 5.40039 9.2334 5.19531Q9.0332 4.99023 8.70117 4.99023Q8.37891 4.99023 8.17871 5.2002Q7.97852 5.41016 7.97852 5.77148L7.97852 10.6543Q7.97852 11.0059 8.17383 11.2207Q8.36914 11.4355 8.70117 11.4355Z" fill="#ffffff"/>
 </g>
</svg>
