<?xml version="1.0" encoding="UTF-8"?>
<!--Generator: Apple Native CoreSVG 175.5-->
<!DOCTYPE svg
PUBLIC "-//W3C//DTD SVG 1.1//EN"
       "http://www.w3.org/Graphics/SVG/1.1/DTD/svg11.dtd">
<svg version="1.1" xmlns="http://www.w3.org/2000/svg" xmlns:xlink="http://www.w3.org/1999/xlink" width="18.6508" height="23.4082">
 <g>
  <rect height="23.4082" opacity="0" width="18.6508" x="0" y="0"/>
  <path d="M10.5469 12.6855L18.1445 5.08789Q18.6133 4.61914 18.6475 4.07715Q18.6816 3.53516 18.3691 3.08594Q18.0566 2.63672 17.4707 2.46094Q15.9766 1.97266 14.375 1.82129Q12.7734 1.66992 10.9668 1.77734L10.6641 1.45508Q10.127 0.888672 9.45801 0.688477Q8.78906 0.488281 8.11523 0.664062Q7.44141 0.839844 6.86523 1.40625Q6.30859 1.98242 6.12793 2.6709Q5.94727 3.35938 6.14746 4.02832Q6.34766 4.69727 6.91406 5.21484L7.23633 5.51758Q7.13867 7.31445 7.28516 8.90625Q7.43164 10.498 7.90039 12.002Q8.08594 12.5879 8.53516 12.9102Q8.98438 13.2324 9.53125 13.1934Q10.0781 13.1543 10.5469 12.6855ZM9.58008 11.709Q9.46289 11.8262 9.36035 11.7822Q9.25781 11.7383 9.15039 11.3965Q8.75 10.1172 8.62793 8.65234Q8.50586 7.1875 8.63281 5.43945Q8.66211 4.94141 8.27148 4.58984L7.8418 4.19922Q7.43164 3.81836 7.42188 3.3252Q7.41211 2.83203 7.8418 2.37305Q8.29102 1.94336 8.78418 1.94824Q9.27734 1.95312 9.66797 2.38281L10.0586 2.8125Q10.4199 3.21289 10.957 3.16406Q12.6758 3.05664 14.1357 3.17871Q15.5957 3.30078 16.875 3.71094Q17.1973 3.80859 17.2412 3.90625Q17.2852 4.00391 17.1777 4.11133ZM13.8867 11.6992Q14.7852 11.6992 15.5273 11.2598Q16.2695 10.8203 16.7139 10.0781Q17.1582 9.33594 17.1582 8.44727Q17.1582 7.8125 16.9141 7.2168Q16.6699 6.62109 16.2012 6.14258L15.4883 7.50977Q15.625 7.71484 15.6982 7.9541Q15.7715 8.19336 15.7715 8.44727Q15.7715 9.22852 15.21 9.77539Q14.6484 10.3223 13.8867 10.3223Q13.6328 10.3223 13.3887 10.249Q13.1445 10.1758 12.9395 10.0488L11.6992 10.8691Q12.1582 11.2793 12.7246 11.4893Q13.291 11.6992 13.8867 11.6992ZM6.94336 2.5293L7.94922 1.45508L6.75781 0.273438Q6.54297 0.0488281 6.24023 0.0537109Q5.9375 0.0585938 5.72266 0.273438Q5.51758 0.478516 5.5127 0.78125Q5.50781 1.08398 5.72266 1.29883ZM1.8457 13.5645L8.02734 7.88086L7.58789 6.16211L0.78125 12.4219ZM1.52344 14.3164Q2.1582 14.3164 2.60254 13.877Q3.04688 13.4375 3.04688 12.793Q3.04688 12.1582 2.60254 11.7139Q2.1582 11.2695 1.52344 11.2695Q0.878906 11.2695 0.439453 11.7139Q0 12.1582 0 12.793Q0 13.4375 0.439453 13.877Q0.878906 14.3164 1.52344 14.3164ZM5.48828 17.7832L6.60156 16.6699L1.74805 11.8457L0.644531 12.9492ZM5.78125 18.7988Q6.42578 18.7988 6.86523 18.374Q7.30469 17.9492 7.30469 17.2754Q7.30469 16.6406 6.86035 16.1963Q6.41602 15.752 5.78125 15.752Q5.13672 15.752 4.69727 16.1963Q4.25781 16.6406 4.25781 17.2754Q4.25781 17.9199 4.69727 18.3594Q5.13672 18.7988 5.78125 18.7988ZM4.99023 22.0312L6.5625 22.0312L6.5625 17.3145L4.99023 17.3145ZM1.12305 23.4082L11.5137 23.4082Q11.7871 23.4082 11.9531 23.2324Q12.1191 23.0566 12.1191 22.7637Q12.1191 22.2168 11.6797 21.8652Q11.2402 21.5137 10.498 21.5137L2.13867 21.5137Q1.39648 21.5137 0.957031 21.8652Q0.517578 22.2168 0.517578 22.7637Q0.517578 23.0566 0.683594 23.2324Q0.849609 23.4082 1.12305 23.4082Z" fill="#ffffff"/>
 </g>
</svg>
