<?xml version="1.0" encoding="UTF-8"?>
<!--Generator: Apple Native CoreSVG 175.5-->
<!DOCTYPE svg
PUBLIC "-//W3C//DTD SVG 1.1//EN"
       "http://www.w3.org/Graphics/SVG/1.1/DTD/svg11.dtd">
<svg version="1.1" xmlns="http://www.w3.org/2000/svg" xmlns:xlink="http://www.w3.org/1999/xlink" width="18.8285" height="23.1152">
 <g>
  <rect height="23.1152" opacity="0" width="18.8285" x="0" y="0"/>
  <path d="M9.42415 5.57617Q10.3226 5.57617 11.1185 5.33203Q11.9144 5.08789 12.554 4.63867Q13.1937 4.18945 13.6136 3.56934Q14.0335 2.94922 14.18 2.19727Q14.2874 1.5918 14.0042 1.15723Q13.721 0.722656 13.1253 0.556641Q12.2562 0.332031 11.3236 0.219727Q10.3909 0.107422 9.42903 0.107422Q8.46712 0.107422 7.52962 0.219727Q6.59212 0.332031 5.73274 0.556641Q5.12727 0.722656 4.84895 1.15723Q4.57063 1.5918 4.67805 2.19727Q4.81477 2.94922 5.23958 3.56934Q5.66438 4.18945 6.29915 4.63867Q6.93391 5.08789 7.7347 5.33203Q8.53548 5.57617 9.42415 5.57617ZM8.6429 9.54102L10.2152 9.54102L10.2152 4.79492L8.6429 4.79492ZM9.41438 23.1152Q12.2464 23.1152 14.3704 22.583Q16.4945 22.0508 17.6663 21.0938Q18.8382 20.1367 18.8284 18.8672L18.8284 18.7402Q18.7991 17.793 18.3841 16.7773Q17.9691 15.7617 17.2513 14.7998Q16.5335 13.8379 15.5911 13.0322Q14.6488 12.2266 13.5648 11.6992Q13.3011 10.7715 12.681 10.0684Q12.0609 9.36523 11.2161 8.96973Q10.3714 8.57422 9.41438 8.57422Q8.45735 8.57422 7.61262 8.96973Q6.7679 9.36523 6.14778 10.0684Q5.52766 10.7715 5.26399 11.6992Q4.18977 12.2266 3.25227 13.0225Q2.31477 13.8184 1.597 14.7754Q0.879226 15.7324 0.459305 16.7383Q0.0393827 17.7441 0.000320184 18.6914L0.000320184 18.8672Q-0.0192111 20.1367 1.15266 21.0938Q2.32454 22.0508 4.44856 22.583Q6.57259 23.1152 9.41438 23.1152ZM1.36751 18.8672Q1.37727 17.9883 2.38313 17.3389Q3.38899 16.6895 5.19563 16.333Q7.00227 15.9766 9.41438 15.9766Q11.8363 15.9766 13.6429 16.333Q15.4495 16.6895 16.4554 17.3389Q17.4613 17.9883 17.4613 18.8672Q17.4613 19.7363 16.4554 20.3857Q15.4495 21.0352 13.6429 21.3916Q11.8363 21.748 9.41438 21.748Q7.00227 21.748 5.19563 21.3916Q3.38899 21.0352 2.38313 20.3857Q1.37727 19.7363 1.36751 18.8672ZM9.41438 19.5996Q10.2933 19.5996 11.0892 19.2725Q11.8851 18.9453 12.388 18.3936Q12.8909 17.8418 12.8909 17.1777Q12.1292 17.0605 11.2552 16.9922Q10.3812 16.9238 9.41438 16.9238Q8.44759 16.9238 7.57356 16.9922Q6.69954 17.0605 5.93782 17.1777Q5.93782 17.8418 6.43587 18.3936Q6.93391 18.9453 7.72981 19.2725Q8.52571 19.5996 9.41438 19.5996Z" fill="#ffffff"/>
 </g>
</svg>
