<?xml version="1.0" encoding="UTF-8"?>
<!--Generator: Apple Native CoreSVG 175.5-->
<!DOCTYPE svg
PUBLIC "-//W3C//DTD SVG 1.1//EN"
       "http://www.w3.org/Graphics/SVG/1.1/DTD/svg11.dtd">
<svg version="1.1" xmlns="http://www.w3.org/2000/svg" xmlns:xlink="http://www.w3.org/1999/xlink" width="22.8711" height="27.6074">
 <g>
  <rect height="27.6074" opacity="0" width="22.8711" x="0" y="0"/>
  <path d="M12.4121 19.3066Q12.1875 19.3164 11.9531 19.3262Q11.7188 19.3359 11.4941 19.3359Q10.0098 19.3359 8.69141 18.9941Q7.37305 18.6523 6.37207 17.959Q5.37109 17.2656 4.7998 16.2305Q4.22852 15.1953 4.22852 13.8086Q4.22852 13.4375 4.29688 13.1006Q4.36523 12.7637 4.48242 12.4414Q4.35547 12.2754 4.16992 12.168Q3.98438 12.0605 3.7207 11.9922Q3.45703 11.9238 3.08594 11.8652Q2.92969 12.3145 2.8418 12.8027Q2.75391 13.291 2.75391 13.7988Q2.75391 15.4785 3.42285 16.7822Q4.0918 18.0859 5.27832 18.9795Q6.46484 19.873 8.03223 20.3369Q9.59961 20.8008 11.4062 20.8008Q11.7383 20.8008 12.0801 20.7861Q12.4219 20.7715 12.7637 20.7422ZM8.93555 6.02539Q8.99414 6.37695 9.05762 6.64062Q9.12109 6.9043 9.2041 7.09473Q9.28711 7.28516 9.4043 7.42188Q10.4395 7.01172 11.5576 6.78711Q12.6758 6.5625 13.7891 6.5625Q15.3223 6.5625 16.6943 7.0166Q18.0664 7.4707 19.126 8.31543Q20.1855 9.16016 20.7959 10.3369Q21.4062 11.5137 21.4062 12.959Q21.4062 14.2969 20.7617 15.4834Q20.1172 16.6699 19.0381 17.5879Q17.959 18.5059 16.6357 19.0332Q15.3125 19.5605 13.9551 19.5605Q13.4277 19.5605 13.0859 19.3652Q12.7441 19.1699 12.7441 18.8184Q12.7441 18.4082 13.0908 18.1006Q13.4375 17.793 14.0137 17.6221Q14.5898 17.4512 15.3027 17.4512Q16.1426 17.4512 16.8115 17.832Q17.4805 18.2129 17.8711 18.8672Q18.2617 19.5215 18.2617 20.3711Q18.2617 21.25 17.793 22.0557Q17.3242 22.8613 16.5039 23.3789Q16.2988 23.5352 16.1572 23.7061Q16.0156 23.877 16.0156 24.1406Q16.0156 24.4141 16.2207 24.6143Q16.4258 24.8145 16.7676 24.8145Q17.0312 24.8145 17.2949 24.6387Q18.4277 23.9062 19.0771 22.7588Q19.7266 21.6113 19.7266 20.3418Q19.7266 19.0918 19.1211 18.1006Q18.5156 17.1094 17.4902 16.5381Q16.4648 15.9668 15.1855 15.9668Q14.0723 15.9668 13.1836 16.333Q12.2949 16.6992 11.7773 17.3535Q11.2598 18.0078 11.2598 18.8672Q11.2598 19.5215 11.6016 20.0049Q11.9434 20.4883 12.5488 20.7568Q13.1543 21.0254 13.9551 21.0254Q15.2734 21.0254 16.5674 20.6152Q17.8613 20.2051 18.999 19.458Q20.1367 18.7109 21.0059 17.7002Q21.875 16.6895 22.373 15.4883Q22.8711 14.2871 22.8711 12.9688Q22.8711 11.2207 22.1582 9.77539Q21.4453 8.33008 20.1855 7.28027Q18.9258 6.23047 17.2803 5.65918Q15.6348 5.08789 13.7793 5.08789Q12.5488 5.08789 11.3135 5.33203Q10.0781 5.57617 8.93555 6.02539Z" fill="#ffffff"/>
  <path d="M7.03125 15.2246Q7.38281 15.2246 7.45117 14.8535Q7.64648 13.7988 7.83203 13.0859Q8.01758 12.373 8.28613 11.9141Q8.55469 11.4551 8.99414 11.1816Q9.43359 10.9082 10.127 10.7422Q10.8203 10.5762 11.8555 10.4297Q12.0312 10.4102 12.1436 10.293Q12.2559 10.1758 12.2559 10.0098Q12.2559 9.63867 11.8555 9.58984Q10.8203 9.44336 10.1172 9.28223Q9.41406 9.12109 8.95996 8.84766Q8.50586 8.57422 8.22754 8.11523Q7.94922 7.65625 7.77832 6.94336Q7.60742 6.23047 7.45117 5.17578Q7.40234 4.78516 7.03125 4.78516Q6.67969 4.78516 6.61133 5.16602Q6.41602 6.2207 6.23535 6.93359Q6.05469 7.64648 5.78125 8.10547Q5.50781 8.56445 5.06836 8.83789Q4.62891 9.11133 3.93555 9.27734Q3.24219 9.44336 2.20703 9.58984Q2.03125 9.60938 1.91895 9.72656Q1.80664 9.84375 1.80664 10.0098Q1.80664 10.1758 1.91895 10.293Q2.03125 10.4102 2.20703 10.4297Q3.24219 10.5762 3.94531 10.7373Q4.64844 10.8984 5.10254 11.1719Q5.55664 11.4453 5.83496 11.8994Q6.11328 12.3535 6.28418 13.0713Q6.45508 13.7891 6.61133 14.8438Q6.66016 15.2246 7.03125 15.2246ZM2.61719 8.03711Q2.90039 8.03711 2.94922 7.75391Q3.07617 7.12891 3.1543 6.77246Q3.23242 6.41602 3.39355 6.23535Q3.55469 6.05469 3.91113 5.96191Q4.26758 5.86914 4.94141 5.76172Q5.23438 5.71289 5.23438 5.42969Q5.23438 5.14648 4.94141 5.09766Q4.26758 4.98047 3.91113 4.88281Q3.55469 4.78516 3.39355 4.60449Q3.23242 4.42383 3.1543 4.07715Q3.07617 3.73047 2.94922 3.125Q2.90039 2.82227 2.61719 2.82227Q2.35352 2.82227 2.28516 3.125Q2.1582 3.73047 2.0752 4.07715Q1.99219 4.42383 1.83105 4.60449Q1.66992 4.78516 1.31836 4.88281Q0.966797 4.98047 0.292969 5.09766Q0 5.14648 0 5.42969Q0 5.71289 0.3125 5.76172Q0.976562 5.86914 1.32812 5.96191Q1.67969 6.05469 1.84082 6.23535Q2.00195 6.41602 2.08008 6.7627Q2.1582 7.10938 2.28516 7.72461Q2.35352 8.03711 2.61719 8.03711ZM5.78125 3.57422Q5.95703 3.57422 5.99609 3.37891Q6.10352 2.82227 6.18164 2.57324Q6.25977 2.32422 6.50879 2.22168Q6.75781 2.11914 7.37305 2.01172Q7.55859 1.97266 7.55859 1.78711Q7.55859 1.60156 7.37305 1.5625Q6.74805 1.44531 6.49902 1.34277Q6.25 1.24023 6.17188 0.991211Q6.09375 0.742188 5.99609 0.205078Q5.95703 0 5.78125 0Q5.60547 0 5.55664 0.205078Q5.43945 0.742188 5.36133 0.991211Q5.2832 1.24023 5.03906 1.34277Q4.79492 1.44531 4.17969 1.5625Q3.99414 1.60156 3.99414 1.78711Q3.99414 1.97266 4.18945 2.01172Q4.80469 2.10938 5.04395 2.21191Q5.2832 2.31445 5.36133 2.56348Q5.43945 2.8125 5.55664 3.35938Q5.60547 3.57422 5.78125 3.57422Z" fill="#ffffff"/>
 </g>
</svg>
