<?xml version="1.0" encoding="UTF-8"?>
<!--Generator: Apple Native CoreSVG 175-->
<!DOCTYPE svg
PUBLIC "-//W3C//DTD SVG 1.1//EN"
       "http://www.w3.org/Graphics/SVG/1.1/DTD/svg11.dtd">
<svg version="1.1" xmlns="http://www.w3.org/2000/svg" xmlns:xlink="http://www.w3.org/1999/xlink" width="19.1602" height="19.1504">
 <g>
  <rect height="19.1504" opacity="0" width="19.1602" x="0" y="0"/>
  <path d="M9.57031 19.1406Q11.5527 19.1406 13.2861 18.3984Q15.0195 17.6562 16.3379 16.333Q17.6562 15.0098 18.4082 13.2764Q19.1602 11.543 19.1602 9.57031Q19.1602 7.59766 18.4082 5.86426Q17.6562 4.13086 16.3379 2.80762Q15.0195 1.48438 13.2861 0.742188Q11.5527 0 9.57031 0Q7.59766 0 5.86426 0.742188Q4.13086 1.48438 2.81738 2.80762Q1.50391 4.13086 0.751953 5.86426Q0 7.59766 0 9.57031Q0 11.543 0.74707 13.2764Q1.49414 15.0098 2.8125 16.333Q4.13086 17.6562 5.86914 18.3984Q7.60742 19.1406 9.57031 19.1406ZM4.89258 5.60547Q4.91211 5.46875 5.0293 5.44434Q5.14648 5.41992 5.24414 5.53711Q5.67383 6.07422 6.30371 6.25488Q6.93359 6.43555 7.63672 6.43555Q8.13477 6.43555 8.66699 6.38184Q9.19922 6.32812 9.7168 6.32812Q11.3574 6.32812 12.3682 7.09961Q13.3789 7.87109 13.3789 9.50195Q13.3789 9.67773 13.3643 9.83887Q13.3496 10 13.3398 10.1172Q13.3398 10.2148 13.252 10.2393Q13.1641 10.2637 13.0957 10.1855Q12.4609 9.64844 11.8604 9.40918Q11.2598 9.16992 10.6982 9.08203Q10.1367 8.99414 9.59961 8.93066Q9.0625 8.86719 8.56934 8.69141Q8.07617 8.51562 7.61719 8.06641Q7.50977 7.95898 7.41211 8.03223Q7.31445 8.10547 7.37305 8.21289Q7.67578 8.78906 8.16895 9.0625Q8.66211 9.33594 9.27246 9.45801Q9.88281 9.58008 10.5469 9.70215Q11.2109 9.82422 11.8604 10.0781Q12.5098 10.332 13.0957 10.8887Q13.3203 11.1035 13.6133 11.499Q13.9062 11.8945 14.1309 12.334Q14.3555 12.7734 14.3555 13.1152Q14.3555 13.4082 14.1992 13.5938Q14.043 13.7793 13.8086 13.7793Q13.6914 13.7793 13.5889 13.7207Q13.4863 13.6621 13.4375 13.5059Q13.1836 12.6562 12.9834 12.1924Q12.7832 11.7285 12.3828 11.2695L12.6953 11.123Q12.5195 11.5918 12.0947 11.9678Q11.6699 12.3438 11.0596 12.5684Q10.4492 12.793 9.70703 12.793Q8.23242 12.793 7.11914 12.085Q6.00586 11.377 5.39062 10.0879Q4.77539 8.79883 4.77539 7.09961Q4.77539 6.81641 4.81445 6.40625Q4.85352 5.99609 4.89258 5.60547Z" fill="#ffffff"/>
 </g>
</svg>
