<?xml version="1.0" encoding="UTF-8"?>
<!--Generator: Apple Native CoreSVG 175.5-->
<!DOCTYPE svg
PUBLIC "-//W3C//DTD SVG 1.1//EN"
       "http://www.w3.org/Graphics/SVG/1.1/DTD/svg11.dtd">
<svg version="1.1" xmlns="http://www.w3.org/2000/svg" xmlns:xlink="http://www.w3.org/1999/xlink" width="21.084" height="18.5254">
 <g>
  <rect height="18.5254" opacity="0" width="21.084" x="0" y="0"/>
  <path d="M0.283203 1.18164Q0.126953 1.93359 0.0634766 2.8125Q0 3.69141 0 4.3457Q0 7.08984 0.776367 9.31641Q1.55273 11.543 3.00293 13.1445Q4.45312 14.7461 6.47461 15.6104Q8.49609 16.4746 10.9863 16.4746Q12.2656 16.4746 13.2861 16.2109Q14.3066 15.9473 15.0781 15.5371Q15.8496 15.127 16.3916 14.6631Q16.9336 14.1992 17.2607 13.7939Q17.5879 13.3887 17.7148 13.1445L16.4941 13.1152Q17.1289 13.7793 17.5635 14.4971Q17.998 15.2148 18.3252 16.0498Q18.6523 16.8848 18.9746 17.8906Q19.0918 18.2422 19.3115 18.3838Q19.5312 18.5254 19.7852 18.5254Q20.3223 18.5254 20.7031 18.1055Q21.084 17.6855 21.084 17.041Q21.084 16.5332 20.7764 15.8887Q20.4688 15.2441 19.9951 14.5752Q19.5215 13.9062 19.0186 13.335Q18.5156 12.7637 18.1445 12.4023Q17.0703 11.416 15.8545 10.8789Q14.6387 10.3418 13.3838 10.0586Q12.1289 9.77539 10.9326 9.57031Q9.73633 9.36523 8.69629 9.04785Q7.65625 8.73047 6.875 8.125Q6.09375 7.51953 5.67383 6.43555Q5.57617 6.18164 5.77637 6.04004Q5.97656 5.89844 6.2207 6.14258Q7.06055 6.98242 7.97852 7.37793Q8.89648 7.77344 9.87305 7.9248Q10.8496 8.07617 11.8652 8.1543Q12.8809 8.23242 13.9258 8.42773Q14.9707 8.62305 16.0303 9.10156Q17.0898 9.58008 18.1445 10.5566Q18.3887 10.7715 18.6377 10.6885Q18.8867 10.6055 18.9258 10.3418Q18.9648 10.1367 18.9844 9.81934Q19.0039 9.50195 19.0039 9.17969Q19.0039 6.79688 17.9785 5.22949Q16.9531 3.66211 15.1514 2.89062Q13.3496 2.11914 11.0156 2.11914Q10.2344 2.11914 9.39453 2.21191Q8.55469 2.30469 7.73438 2.40234Q6.91406 2.5 6.19141 2.5Q5.41016 2.5 4.58008 2.40723Q3.75 2.31445 2.94922 1.96777Q2.14844 1.62109 1.44531 0.869141Q1.14258 0.556641 0.771484 0.620117Q0.400391 0.683594 0.283203 1.18164Z" fill="#ffffff"/>
 </g>
</svg>
