<?xml version="1.0" encoding="UTF-8"?>
<!--Generator: Apple Native CoreSVG 175.5-->
<!DOCTYPE svg
PUBLIC "-//W3C//DTD SVG 1.1//EN"
       "http://www.w3.org/Graphics/SVG/1.1/DTD/svg11.dtd">
<svg version="1.1" xmlns="http://www.w3.org/2000/svg" xmlns:xlink="http://www.w3.org/1999/xlink" width="19.9219" height="19.9316">
 <g>
  <rect height="19.9316" opacity="0" width="19.9219" x="0" y="0"/>
  <path d="M9.96094 19.9219Q12.002 19.9219 13.8037 19.1406Q15.6055 18.3594 16.9824 16.9824Q18.3594 15.6055 19.1406 13.8037Q19.9219 12.002 19.9219 9.96094Q19.9219 7.91992 19.1406 6.11816Q18.3594 4.31641 16.9824 2.93945Q15.6055 1.5625 13.7988 0.78125Q11.9922 0 9.95117 0Q7.91016 0 6.1084 0.78125Q4.30664 1.5625 2.93457 2.93945Q1.5625 4.31641 0.78125 6.11816Q0 7.91992 0 9.96094Q0 12.002 0.78125 13.8037Q1.5625 15.6055 2.93945 16.9824Q4.31641 18.3594 6.11816 19.1406Q7.91992 19.9219 9.96094 19.9219Z" fill="#ffffff"/>
  <path d="M12.5781 14.0918Q12.3242 14.0918 12.0898 13.9746L6.08398 10.8496Q5.77148 10.6934 5.62988 10.4834Q5.48828 10.2734 5.48828 9.96094Q5.48828 9.4043 6.08398 9.07227L12.0898 5.83984Q12.207 5.78125 12.3193 5.74707Q12.4316 5.71289 12.5977 5.71289Q12.9492 5.71289 13.1836 5.94727Q13.418 6.18164 13.418 6.51367Q13.418 6.79688 13.2764 6.99219Q13.1348 7.1875 12.8223 7.33398L7.72461 9.90234L7.72461 9.96094L12.8223 12.4707Q13.1445 12.6172 13.2812 12.8027Q13.418 12.9883 13.418 13.2812Q13.418 13.623 13.1787 13.8574Q12.9395 14.0918 12.5781 14.0918Z" fill="none"/>
 </g>
</svg>
