<?xml version="1.0" encoding="UTF-8"?>
<!--Generator: Apple Native CoreSVG 175-->
<!DOCTYPE svg
PUBLIC "-//W3C//DTD SVG 1.1//EN"
       "http://www.w3.org/Graphics/SVG/1.1/DTD/svg11.dtd">
<svg version="1.1" xmlns="http://www.w3.org/2000/svg" xmlns:xlink="http://www.w3.org/1999/xlink" width="19.1554" height="19.1583">
 <g>
  <rect height="19.1583" opacity="0" width="19.1554" x="0" y="0"/>
  <path d="M9.57001 14.0973Q8.31802 14.0973 7.29378 13.4859Q6.26953 12.8746 5.65826 11.8504Q5.047 10.8263 5.047 9.57428Q5.047 8.3223 5.65826 7.29813Q6.26953 6.27396 7.29378 5.66261Q8.31802 5.05127 9.57001 5.05127Q10.8191 5.05127 11.8447 5.66261Q12.8703 6.27396 13.4803 7.29813Q14.0903 8.3223 14.0903 9.57428Q14.0903 10.8263 13.4803 11.8504Q12.8703 12.8746 11.8447 13.4859Q10.8191 14.0973 9.57001 14.0973ZM2.76245 3.99963Q3.32184 3.29651 4.01535 2.74155L6.49033 5.22354Q5.76797 5.71838 5.23483 6.45782ZM16.3789 4.05167L13.904 6.50986Q13.3804 5.77042 12.6512 5.27542L15.1262 2.79343Q15.8195 3.34854 16.3789 4.05167ZM16.4 15.1054Q15.8406 15.8015 15.15 16.3567L12.6723 13.8747Q13.3946 13.3868 13.9278 12.6402ZM2.78641 15.1575L5.25864 12.6923Q5.78476 13.4387 6.51138 13.9267L4.03641 16.4087Q3.34579 15.8536 2.78641 15.1575ZM9.57428 19.1583Q11.552 19.1583 13.2834 18.4122Q15.0148 17.666 16.3355 16.3454Q17.6562 15.0247 18.4058 13.2897Q19.1554 11.5547 19.1554 9.58405Q19.1554 7.61337 18.4058 5.87837Q17.6562 4.14337 16.3355 2.82272Q15.0148 1.50208 13.282 0.75592Q11.5492 0.00976562 9.57153 0.00976562Q7.60086 0.00976562 5.86586 0.75592Q4.13086 1.50208 2.81502 2.82272Q1.49918 4.14337 0.749588 5.87837Q0 7.61337 0 9.58405Q0 11.5547 0.746078 13.2897Q1.49216 15.0247 2.81288 16.3454Q4.13361 17.666 5.86853 18.4122Q7.60345 19.1583 9.57428 19.1583Z" fill="rgba(0,0,0,0.85)"/>
 </g>
</svg>
