<?xml version="1.0" encoding="UTF-8"?>
<!--Generator: Apple Native CoreSVG 175.5-->
<!DOCTYPE svg
PUBLIC "-//W3C//DTD SVG 1.1//EN"
       "http://www.w3.org/Graphics/SVG/1.1/DTD/svg11.dtd">
<svg version="1.1" xmlns="http://www.w3.org/2000/svg" xmlns:xlink="http://www.w3.org/1999/xlink" width="19.9219" height="19.9316">
 <g>
  <rect height="19.9316" opacity="0" width="19.9219" x="0" y="0"/>
  <path d="M9.9707 13.584Q8.96484 13.584 8.14453 13.0957Q7.32422 12.6074 6.83594 11.7871Q6.34766 10.9668 6.34766 9.96094Q6.34766 8.95508 6.83594 8.13477Q7.32422 7.31445 8.14453 6.82617Q8.96484 6.33789 9.9707 6.33789Q10.9668 6.33789 11.792 6.82617Q12.6172 7.31445 13.1006 8.13477Q13.584 8.95508 13.584 9.96094Q13.584 10.9668 13.1006 11.7871Q12.6172 12.6074 11.792 13.0957Q10.9668 13.584 9.9707 13.584ZM3.26172 5.06836Q4.00391 4.01367 5.04883 3.26172L6.98242 5.19531Q5.85938 5.9082 5.18555 6.99219ZM16.6602 5.07812L14.7266 7.00195Q14.0625 5.91797 12.9395 5.20508L14.873 3.27148Q15.918 4.02344 16.6602 5.07812ZM16.6602 14.8242Q15.918 15.8789 14.8828 16.6309L12.9395 14.6973Q14.0625 13.9844 14.7363 12.9004ZM3.27148 14.834L5.19531 12.9102Q5.86914 13.9941 6.98242 14.707L5.04883 16.6406Q4.01367 15.8887 3.27148 14.834ZM9.96094 19.9316Q12.002 19.9316 13.8037 19.1504Q15.6055 18.3691 16.9824 16.9922Q18.3594 15.6152 19.1406 13.8135Q19.9219 12.0117 19.9219 9.9707Q19.9219 7.92969 19.1406 6.12793Q18.3594 4.32617 16.9824 2.94922Q15.6055 1.57227 13.7988 0.791016Q11.9922 0.00976562 9.95117 0.00976562Q7.91016 0.00976562 6.1084 0.791016Q4.30664 1.57227 2.93457 2.94922Q1.5625 4.32617 0.78125 6.12793Q0 7.92969 0 9.9707Q0 12.0117 0.78125 13.8135Q1.5625 15.6152 2.93945 16.9922Q4.31641 18.3691 6.11816 19.1504Q7.91992 19.9316 9.96094 19.9316Z" fill="#ffffff"/>
 </g>
</svg>
