<?xml version="1.0" encoding="UTF-8"?>
<!--Generator: Apple Native CoreSVG 175-->
<!DOCTYPE svg
PUBLIC "-//W3C//DTD SVG 1.1//EN"
       "http://www.w3.org/Graphics/SVG/1.1/DTD/svg11.dtd">
<svg version="1.1" xmlns="http://www.w3.org/2000/svg" xmlns:xlink="http://www.w3.org/1999/xlink" width="17.6613" height="22.7637">
 <g>
  <rect height="22.7637" opacity="0" width="17.6613" x="0" y="0"/>
  <path d="M6.02539 17.2852L12.2461 17.2852Q12.4512 17.2852 12.4512 17.041L12.4512 14.6387L2.48047 4.67773Q2.29492 5.21484 2.1875 5.83496Q2.08008 6.45508 2.08008 7.11914Q2.08008 8.47656 2.45117 9.49707Q2.82227 10.5176 3.37402 11.3232Q3.92578 12.1289 4.47266 12.8174Q5.01953 13.5059 5.39062 14.1943Q5.76172 14.8828 5.76172 15.6836L5.76172 16.9727Q5.76172 17.1191 5.83496 17.2021Q5.9082 17.2852 6.02539 17.2852ZM9.22852 0Q7.48047 0 6.0791 0.600586Q4.67773 1.20117 3.74023 2.28516L14.1211 12.666Q14.6289 11.9727 15.1514 11.1914Q15.6738 10.4102 16.0254 9.41895Q16.377 8.42773 16.377 7.11914Q16.377 5.51758 15.8691 4.20898Q15.3613 2.90039 14.4141 1.95801Q13.4668 1.01562 12.1533 0.507812Q10.8398 0 9.22852 0ZM9.23828 21.6406Q10.1855 21.6406 10.8057 21.2354Q11.4258 20.8301 11.4941 20.166L6.98242 20.166Q7.04102 20.8301 7.66113 21.2354Q8.28125 21.6406 9.23828 21.6406ZM6.44531 19.4141L12.0312 19.4141Q12.3242 19.4141 12.5098 19.2139Q12.6953 19.0137 12.6953 18.7305Q12.6953 18.4277 12.5098 18.2324Q12.3242 18.0371 12.0312 18.0371L6.44531 18.0371Q6.15234 18.0371 5.96191 18.2324Q5.77148 18.4277 5.77148 18.7305Q5.77148 19.0137 5.96191 19.2139Q6.15234 19.4141 6.44531 19.4141ZM17.041 17.9297Q17.1484 18.0371 17.2949 18.0322Q17.4414 18.0273 17.5488 17.9297Q17.6562 17.832 17.6611 17.6758Q17.666 17.5195 17.5488 17.4219L0.625 0.478516Q0.527344 0.390625 0.371094 0.385742Q0.214844 0.380859 0.0976562 0.478516Q0 0.585938 0 0.737305Q0 0.888672 0.0976562 0.986328Z" fill="#ffffff"/>
 </g>
</svg>
