<?xml version="1.0" encoding="UTF-8"?>
<!--Generator: Apple Native CoreSVG 175.5-->
<!DOCTYPE svg
PUBLIC "-//W3C//DTD SVG 1.1//EN"
       "http://www.w3.org/Graphics/SVG/1.1/DTD/svg11.dtd">
<svg version="1.1" xmlns="http://www.w3.org/2000/svg" xmlns:xlink="http://www.w3.org/1999/xlink" width="31.8652" height="23.2324">
 <g>
  <rect height="23.2324" opacity="0" width="31.8652" x="0" y="0"/>
  <path d="M7.51953 13.4863Q9.12109 13.4863 10.4834 13.1396Q11.8457 12.793 12.8662 12.1582Q13.8867 11.5234 14.4531 10.6738Q15.0195 9.82422 15.0195 8.82812Q15.0195 7.82227 14.4531 6.97266Q13.8867 6.12305 12.8662 5.48828Q11.8457 4.85352 10.4834 4.50195Q9.12109 4.15039 7.51953 4.15039Q5.91797 4.15039 4.5459 4.50195Q3.17383 4.85352 2.15332 5.4834Q1.13281 6.11328 0.566406 6.96777Q0 7.82227 0 8.82812Q0 9.83398 0.566406 10.6836Q1.13281 11.5332 2.15332 12.1631Q3.17383 12.793 4.5459 13.1396Q5.91797 13.4863 7.51953 13.4863ZM7.51953 12.2559Q5.72266 12.2559 4.30664 11.7969Q2.89062 11.3379 2.07031 10.5615Q1.25 9.78516 1.25 8.82812Q1.25 7.87109 2.07031 7.08496Q2.89062 6.29883 4.31152 5.83496Q5.73242 5.37109 7.51953 5.37109Q9.31641 5.37109 10.7373 5.83496Q12.1582 6.29883 12.9834 7.08496Q13.8086 7.87109 13.8086 8.82812Q13.8086 9.78516 12.9834 10.5615Q12.1582 11.3379 10.7373 11.7969Q9.31641 12.2559 7.51953 12.2559ZM7.51953 11.7188Q8.90625 11.7188 10 11.3623Q11.0938 11.0059 11.7285 10.3857Q12.3633 9.76562 12.3633 8.97461Q12.3633 8.16406 11.7285 7.53906Q11.0938 6.91406 10 6.55762Q8.90625 6.20117 7.51953 6.20117Q6.14258 6.20117 5.05371 6.55762Q3.96484 6.91406 3.33496 7.53906Q2.70508 8.16406 2.70508 8.97461Q2.70508 9.76562 3.33496 10.3857Q3.96484 11.0059 5.05371 11.3623Q6.14258 11.7188 7.51953 11.7188ZM7.51953 10.6641Q6.44531 10.6641 5.5957 10.4297Q4.74609 10.1953 4.25293 9.80957Q3.75977 9.42383 3.75977 8.97461Q3.75977 8.49609 4.25293 8.11035Q4.74609 7.72461 5.5957 7.49512Q6.44531 7.26562 7.51953 7.26562Q8.60352 7.26562 9.45801 7.49512Q10.3125 7.72461 10.8057 8.11035Q11.2988 8.49609 11.2988 8.97461Q11.2988 9.42383 10.8057 9.80957Q10.3125 10.1953 9.45801 10.4297Q8.60352 10.6641 7.51953 10.6641ZM7.51953 9.4043Q8.33984 9.4043 9.06738 9.16992Q9.79492 8.93555 10.3271 8.52539Q10.8594 8.11523 11.1035 7.57812Q10.3711 7.1582 9.45312 6.91895Q8.53516 6.67969 7.51953 6.67969Q6.50391 6.67969 5.57617 6.91895Q4.64844 7.1582 3.91602 7.57812Q4.16016 8.11523 4.69727 8.53027Q5.23438 8.94531 5.96191 9.1748Q6.68945 9.4043 7.51953 9.4043ZM24.3457 13.4863Q25.9473 13.4863 27.3145 13.1396Q28.6816 12.793 29.7021 12.1631Q30.7227 11.5332 31.2939 10.6836Q31.8652 9.83398 31.8652 8.82812Q31.8652 7.82227 31.2939 6.96777Q30.7227 6.11328 29.7021 5.4834Q28.6816 4.85352 27.3145 4.50195Q25.9473 4.15039 24.3457 4.15039Q22.7441 4.15039 21.377 4.50195Q20.0098 4.85352 18.9941 5.48828Q17.9785 6.12305 17.4121 6.97266Q16.8457 7.82227 16.8457 8.82812Q16.8457 9.82422 17.4121 10.6738Q17.9785 11.5234 18.9941 12.1582Q20.0098 12.793 21.377 13.1396Q22.7441 13.4863 24.3457 13.4863ZM24.3457 12.2559Q22.5488 12.2559 21.1279 11.7969Q19.707 11.3379 18.8818 10.5615Q18.0566 9.78516 18.0566 8.82812Q18.0566 7.87109 18.8818 7.08496Q19.707 6.29883 21.1279 5.83496Q22.5488 5.37109 24.3457 5.37109Q26.1328 5.37109 27.5488 5.83496Q28.9648 6.29883 29.79 7.08496Q30.6152 7.87109 30.6152 8.82812Q30.6152 9.78516 29.7949 10.5615Q28.9746 11.3379 27.5537 11.7969Q26.1328 12.2559 24.3457 12.2559ZM24.3457 11.7188Q25.7227 11.7188 26.8115 11.3623Q27.9004 11.0059 28.5352 10.3857Q29.1699 9.76562 29.1699 8.97461Q29.1699 8.16406 28.5352 7.53906Q27.9004 6.91406 26.8115 6.55762Q25.7227 6.20117 24.3457 6.20117Q22.959 6.20117 21.8652 6.55762Q20.7715 6.91406 20.1416 7.53906Q19.5117 8.16406 19.5117 8.97461Q19.5117 9.76562 20.1416 10.3857Q20.7715 11.0059 21.8652 11.3623Q22.959 11.7188 24.3457 11.7188ZM24.3457 10.6641Q23.2617 10.6641 22.4121 10.4297Q21.5625 10.1953 21.0693 9.80957Q20.5762 9.42383 20.5762 8.97461Q20.5762 8.49609 21.0693 8.11035Q21.5625 7.72461 22.4121 7.49512Q23.2617 7.26562 24.3457 7.26562Q25.4199 7.26562 26.2744 7.49512Q27.1289 7.72461 27.6221 8.11035Q28.1152 8.49609 28.1152 8.97461Q28.1152 9.42383 27.6221 9.80957Q27.1289 10.1953 26.2744 10.4297Q25.4199 10.6641 24.3457 10.6641ZM24.3457 9.4043Q25.1758 9.4043 25.9033 9.1748Q26.6309 8.94531 27.168 8.53027Q27.7051 8.11523 27.9492 7.57812Q27.2168 7.1582 26.2891 6.91895Q25.3613 6.67969 24.3457 6.67969Q23.3301 6.67969 22.4121 6.91895Q21.4941 7.1582 20.7617 7.57812Q21.0059 8.11523 21.5381 8.52539Q22.0703 8.93555 22.7979 9.16992Q23.5254 9.4043 24.3457 9.4043ZM15.9277 23.2324Q17.5391 23.2324 18.9062 22.8809Q20.2734 22.5293 21.2939 21.8994Q22.3145 21.2695 22.8809 20.4199Q23.4473 19.5703 23.4473 18.5645Q23.4473 17.5586 22.8809 16.7041Q22.3145 15.8496 21.2939 15.2197Q20.2734 14.5898 18.9062 14.2432Q17.5391 13.8965 15.9277 13.8965Q14.3359 13.8965 12.9688 14.2432Q11.6016 14.5898 10.5811 15.2246Q9.56055 15.8594 8.99414 16.709Q8.42773 17.5586 8.42773 18.5645Q8.42773 19.5703 8.99414 20.4199Q9.56055 21.2695 10.5811 21.8994Q11.6016 22.5293 12.9688 22.8809Q14.3359 23.2324 15.9277 23.2324ZM15.9277 22.002Q14.1406 22.002 12.7148 21.543Q11.2891 21.084 10.4639 20.3027Q9.63867 19.5215 9.63867 18.5645Q9.63867 17.6074 10.4688 16.8213Q11.2988 16.0352 12.7197 15.5762Q14.1406 15.1172 15.9277 15.1172Q17.7246 15.1172 19.1455 15.5762Q20.5664 16.0352 21.3867 16.8213Q22.207 17.6074 22.207 18.5645Q22.207 19.5215 21.3867 20.3027Q20.5664 21.084 19.1455 21.543Q17.7246 22.002 15.9277 22.002ZM15.9277 21.4453Q17.3145 21.4453 18.4033 21.0889Q19.4922 20.7324 20.1221 20.1123Q20.752 19.4922 20.752 18.6914Q20.752 17.9004 20.1221 17.2754Q19.4922 16.6504 18.4033 16.2939Q17.3145 15.9375 15.9277 15.9375Q14.5508 15.9375 13.4619 16.2939Q12.373 16.6504 11.7432 17.2754Q11.1133 17.9004 11.1133 18.6914Q11.1133 19.4824 11.7432 20.1074Q12.373 20.7324 13.4619 21.0889Q14.5508 21.4453 15.9277 21.4453ZM15.9277 20.3906Q14.8535 20.3906 14.0039 20.1611Q13.1543 19.9316 12.6562 19.5459Q12.1582 19.1602 12.1582 18.6914Q12.1582 18.2227 12.6562 17.8369Q13.1543 17.4512 14.0039 17.2217Q14.8535 16.9922 15.9277 16.9922Q17.0117 16.9922 17.8662 17.2217Q18.7207 17.4512 19.209 17.8369Q19.6973 18.2227 19.6973 18.6914Q19.6973 19.1602 19.2041 19.5459Q18.7109 19.9316 17.8613 20.1611Q17.0117 20.3906 15.9277 20.3906ZM15.9277 19.1406Q16.7578 19.1406 17.4902 18.9062Q18.2227 18.6719 18.7646 18.2568Q19.3066 17.8418 19.5508 17.3145Q18.8086 16.9043 17.8857 16.6602Q16.9629 16.416 15.9277 16.416Q14.9316 16.416 14.0088 16.6602Q13.0859 16.9043 12.3535 17.3145Q12.5977 17.8418 13.1299 18.2568Q13.6621 18.6719 14.3848 18.9062Q15.1074 19.1406 15.9277 19.1406Z" fill="#ffffff"/>
 </g>
</svg>
