<?xml version="1.0" encoding="UTF-8"?>
<!--Generator: Apple Native CoreSVG 175.5-->
<!DOCTYPE svg
PUBLIC "-//W3C//DTD SVG 1.1//EN"
       "http://www.w3.org/Graphics/SVG/1.1/DTD/svg11.dtd">
<svg version="1.1" xmlns="http://www.w3.org/2000/svg" xmlns:xlink="http://www.w3.org/1999/xlink" width="19.4824" height="20.5566">
 <g>
  <rect height="20.5566" opacity="0" width="19.4824" x="0" y="0"/>
  <path d="M9.73633 20.5469Q12.666 20.5469 14.8584 19.917Q17.0508 19.2871 18.2666 18.1396Q19.4824 16.9922 19.4824 15.4395L19.4824 5.47852Q19.4824 3.81836 18.2617 2.58301Q17.041 1.34766 14.8535 0.673828Q12.666 0 9.73633 0Q6.81641 0 4.62402 0.673828Q2.43164 1.34766 1.21582 2.58301Q0 3.81836 0 5.47852L0 15.4395Q0 16.9922 1.21582 18.1396Q2.43164 19.2871 4.61914 19.917Q6.80664 20.5469 9.73633 20.5469ZM1.57227 15.4395Q1.57227 14.4141 2.60254 13.6133Q3.63281 12.8125 5.46875 12.3584Q7.30469 11.9043 9.73633 11.9043Q12.168 11.9043 14.0088 12.3584Q15.8496 12.8125 16.8799 13.6133Q17.9102 14.4141 17.9102 15.4395Q17.9102 16.4648 16.8799 17.2656Q15.8496 18.0664 14.0088 18.5205Q12.168 18.9746 9.73633 18.9746Q7.30469 18.9746 5.46875 18.5205Q3.63281 18.0664 2.60254 17.2656Q1.57227 16.4648 1.57227 15.4395ZM5.67383 13.291Q5.70312 14.0137 6.25488 14.6045Q6.80664 15.1953 7.71973 15.5518Q8.63281 15.9082 9.73633 15.9082Q10.8496 15.9082 11.7627 15.5518Q12.6758 15.1953 13.2275 14.6045Q13.7793 14.0137 13.8086 13.291Q12.959 13.0762 11.9238 12.959Q10.8887 12.8418 9.73633 12.8418Q8.58398 12.8418 7.55371 12.959Q6.52344 13.0762 5.67383 13.291Z" fill="#ffffff"/>
 </g>
</svg>
