<?xml version="1.0" encoding="UTF-8"?>
<!--Generator: Apple Native CoreSVG 175.5-->
<!DOCTYPE svg
PUBLIC "-//W3C//DTD SVG 1.1//EN"
       "http://www.w3.org/Graphics/SVG/1.1/DTD/svg11.dtd">
<svg version="1.1" xmlns="http://www.w3.org/2000/svg" xmlns:xlink="http://www.w3.org/1999/xlink" width="17.6124" height="23.3301">
 <g>
  <rect height="23.3301" opacity="0" width="17.6124" x="0" y="0"/>
  <path d="M9.25781 0Q7.68555 0 6.35742 0.605469Q5.0293 1.21094 4.13086 2.23633L13.9941 12.0996Q14.3164 11.2012 14.6289 10.4785Q14.9414 9.75586 15.2051 9.08203Q15.4688 8.4082 15.6299 7.6709Q15.791 6.93359 15.791 6.01562Q15.791 4.75586 15.2881 3.66211Q14.7852 2.56836 13.8916 1.74316Q12.998 0.917969 11.8115 0.458984Q10.625 0 9.25781 0ZM6.20117 17.7832L12.3047 17.7832Q12.8613 17.7832 12.9199 17.207Q12.9297 17.002 12.9541 16.8213Q12.9785 16.6406 13.0078 16.4746L2.76367 6.2207Q2.75391 6.45508 2.76367 6.68457Q2.77344 6.91406 2.80273 7.12891Q2.91016 7.99805 3.17383 8.74023Q3.4375 9.48242 3.7793 10.249Q4.12109 11.0156 4.47266 11.9629Q4.82422 12.9102 5.12207 14.1797Q5.41992 15.4492 5.58594 17.207Q5.61523 17.4707 5.7666 17.627Q5.91797 17.7832 6.20117 17.7832ZM6.16211 19.8926L12.3438 19.8926Q12.5879 19.8926 12.7539 19.7266Q12.9199 19.5605 12.9199 19.3164Q12.9199 19.082 12.7539 18.916Q12.5879 18.75 12.3438 18.75L6.16211 18.75Q5.91797 18.75 5.75684 18.916Q5.5957 19.082 5.5957 19.3164Q5.5957 19.5605 5.75684 19.7266Q5.91797 19.8926 6.16211 19.8926ZM9.25781 22.7246Q10.3906 22.7246 11.2207 22.2119Q12.0508 21.6992 12.1191 20.8594L6.38672 20.8594Q6.44531 21.6992 7.28027 22.2119Q8.11523 22.7246 9.25781 22.7246Z" fill="#ffffff"/>
  <path d="M16.3281 18.1641Q16.5527 18.3984 16.8604 18.3936Q17.168 18.3887 17.3926 18.1641Q17.6074 17.9492 17.6123 17.6367Q17.6172 17.3242 17.3926 17.0996L1.2793 0.986328Q1.05469 0.761719 0.737305 0.766602Q0.419922 0.771484 0.205078 0.986328Q0 1.20117 0 1.52344Q0 1.8457 0.205078 2.05078Z" fill="#ffffff"/>
 </g>
</svg>
