<?xml version="1.0" encoding="UTF-8"?>
<!--Generator: Apple Native CoreSVG 175.5-->
<!DOCTYPE svg
PUBLIC "-//W3C//DTD SVG 1.1//EN"
       "http://www.w3.org/Graphics/SVG/1.1/DTD/svg11.dtd">
<svg version="1.1" xmlns="http://www.w3.org/2000/svg" xmlns:xlink="http://www.w3.org/1999/xlink" width="17.002" height="24.4043">
 <g>
  <rect height="24.4043" opacity="0" width="17.002" x="0" y="0"/>
  <path d="M0 20.2246Q0 21.1914 0.527344 21.7236Q1.05469 22.2559 2.02148 22.2559L5.37109 22.2559Q6.33789 22.2559 6.87012 21.7236Q7.40234 21.1914 7.40234 20.2148L7.40234 4.15039Q7.40234 3.17383 6.87012 2.6416Q6.33789 2.10938 5.37109 2.10938L2.02148 2.10938Q1.05469 2.10938 0.527344 2.63672Q0 3.16406 0 4.14062ZM1.47461 20.0879L1.47461 4.27734Q1.47461 3.94531 1.66016 3.76465Q1.8457 3.58398 2.1875 3.58398L5.22461 3.58398Q5.56641 3.58398 5.74707 3.76465Q5.92773 3.94531 5.92773 4.27734L5.92773 20.0879Q5.92773 20.4199 5.74707 20.6006Q5.56641 20.7812 5.22461 20.7812L2.1875 20.7812Q1.8457 20.7812 1.66016 20.6006Q1.47461 20.4199 1.47461 20.0879ZM1.54297 2.83203L2.83203 2.83203L2.83203 0.644531Q2.83203 0.371094 2.6416 0.185547Q2.45117 0 2.17773 0Q1.9043 0 1.72363 0.185547Q1.54297 0.371094 1.54297 0.644531ZM4.57031 2.83203L5.85938 2.83203L5.85938 0.644531Q5.85938 0.371094 5.67383 0.185547Q5.48828 0 5.21484 0Q4.94141 0 4.75586 0.185547Q4.57031 0.371094 4.57031 0.644531ZM3.70117 6.85547Q4.07227 6.85547 4.33105 6.59668Q4.58984 6.33789 4.58984 5.9668Q4.58984 5.5957 4.33105 5.33691Q4.07227 5.07812 3.70117 5.07812Q3.33008 5.07812 3.07617 5.33691Q2.82227 5.5957 2.82227 5.9668Q2.82227 6.33789 3.07617 6.59668Q3.33008 6.85547 3.70117 6.85547ZM3.70117 9.96094Q4.07227 9.96094 4.33105 9.70215Q4.58984 9.44336 4.58984 9.08203Q4.58984 8.71094 4.33105 8.45215Q4.07227 8.19336 3.70117 8.19336Q3.33008 8.19336 3.07617 8.45215Q2.82227 8.71094 2.82227 9.08203Q2.82227 9.44336 3.07617 9.70215Q3.33008 9.96094 3.70117 9.96094ZM3.70117 13.0664Q4.07227 13.0664 4.33105 12.8076Q4.58984 12.5488 4.58984 12.1875Q4.58984 11.8164 4.33105 11.5625Q4.07227 11.3086 3.70117 11.3086Q3.33008 11.3086 3.07617 11.5625Q2.82227 11.8164 2.82227 12.1875Q2.82227 12.5488 3.07617 12.8076Q3.33008 13.0664 3.70117 13.0664ZM3.70117 16.1914Q4.07227 16.1914 4.33105 15.9326Q4.58984 15.6738 4.58984 15.3027Q4.58984 14.9316 4.33105 14.6729Q4.07227 14.4141 3.70117 14.4141Q3.33008 14.4141 3.07617 14.6729Q2.82227 14.9316 2.82227 15.3027Q2.82227 15.6738 3.07617 15.9326Q3.33008 16.1914 3.70117 16.1914ZM3.70117 19.2969Q4.07227 19.2969 4.33105 19.0381Q4.58984 18.7793 4.58984 18.418Q4.58984 18.0469 4.33105 17.7881Q4.07227 17.5293 3.70117 17.5293Q3.33008 17.5293 3.07617 17.7881Q2.82227 18.0469 2.82227 18.418Q2.82227 18.7793 3.07617 19.0381Q3.33008 19.2969 3.70117 19.2969ZM9.58984 20.2539Q9.58984 21.2207 10.1172 21.7529Q10.6445 22.2852 11.6211 22.2852L14.9609 22.2852Q15.9375 22.2852 16.4697 21.7529Q17.002 21.2207 17.002 20.2441L17.002 4.17969Q17.002 3.20312 16.4697 2.6709Q15.9375 2.13867 14.9609 2.13867L11.6211 2.13867Q10.6445 2.13867 10.1172 2.66602Q9.58984 3.19336 9.58984 4.16992ZM11.0645 20.1172L11.0645 4.30664Q11.0645 3.97461 11.2549 3.79395Q11.4453 3.61328 11.7773 3.61328L14.8242 3.61328Q15.1562 3.61328 15.3418 3.79395Q15.5273 3.97461 15.5273 4.30664L15.5273 20.1172Q15.5273 20.4492 15.3418 20.6299Q15.1562 20.8105 14.8242 20.8105L11.7773 20.8105Q11.4453 20.8105 11.2549 20.6299Q11.0645 20.4492 11.0645 20.1172ZM11.1328 21.5625L11.1328 23.75Q11.1328 24.0234 11.3184 24.2041Q11.5039 24.3848 11.7773 24.3848Q12.041 24.3848 12.2314 24.1992Q12.4219 24.0137 12.4219 23.75L12.4219 21.5625ZM14.1699 21.5625L14.1699 23.75Q14.1699 24.0137 14.3555 24.1992Q14.541 24.3848 14.8047 24.3848Q15.0781 24.3848 15.2686 24.2041Q15.459 24.0234 15.459 23.75L15.459 21.5625ZM13.291 6.86523Q13.6621 6.86523 13.9209 6.60645Q14.1797 6.34766 14.1797 5.97656Q14.1797 5.61523 13.9209 5.35156Q13.6621 5.08789 13.291 5.08789Q12.9297 5.08789 12.6709 5.35156Q12.4121 5.61523 12.4121 5.97656Q12.4121 6.34766 12.6709 6.60645Q12.9297 6.86523 13.291 6.86523ZM13.291 9.98047Q13.6621 9.98047 13.9209 9.72168Q14.1797 9.46289 14.1797 9.0918Q14.1797 8.7207 13.9209 8.46191Q13.6621 8.20312 13.291 8.20312Q12.9297 8.20312 12.6709 8.46191Q12.4121 8.7207 12.4121 9.0918Q12.4121 9.46289 12.6709 9.72168Q12.9297 9.98047 13.291 9.98047ZM13.291 13.0859Q13.6621 13.0859 13.9209 12.832Q14.1797 12.5781 14.1797 12.207Q14.1797 11.8359 13.9209 11.5771Q13.6621 11.3184 13.291 11.3184Q12.9297 11.3184 12.6709 11.5771Q12.4121 11.8359 12.4121 12.207Q12.4121 12.5781 12.6709 12.832Q12.9297 13.0859 13.291 13.0859ZM13.291 16.2012Q13.6621 16.2012 13.9209 15.9424Q14.1797 15.6836 14.1797 15.3125Q14.1797 14.9414 13.9209 14.6875Q13.6621 14.4336 13.291 14.4336Q12.9297 14.4336 12.6709 14.6875Q12.4121 14.9414 12.4121 15.3125Q12.4121 15.6836 12.6709 15.9424Q12.9297 16.2012 13.291 16.2012ZM13.291 19.3164Q13.6621 19.3164 13.9209 19.0576Q14.1797 18.7988 14.1797 18.4277Q14.1797 18.0566 13.9209 17.7979Q13.6621 17.5391 13.291 17.5391Q12.9297 17.5391 12.6709 17.7979Q12.4121 18.0566 12.4121 18.4277Q12.4121 18.7988 12.6709 19.0576Q12.9297 19.3164 13.291 19.3164Z" fill="#ffffff"/>
 </g>
</svg>
