<?xml version="1.0" encoding="UTF-8"?>
<!--Generator: Apple Native CoreSVG 175.5-->
<!DOCTYPE svg
PUBLIC "-//W3C//DTD SVG 1.1//EN"
       "http://www.w3.org/Graphics/SVG/1.1/DTD/svg11.dtd">
<svg version="1.1" xmlns="http://www.w3.org/2000/svg" xmlns:xlink="http://www.w3.org/1999/xlink" width="31.8652" height="23.2324">
 <g>
  <rect height="23.2324" opacity="0" width="31.8652" x="0" y="0"/>
  <path d="M7.51953 13.4863Q9.12109 13.4863 10.4834 13.1396Q11.8457 12.793 12.8662 12.1582Q13.8867 11.5234 14.4531 10.6738Q15.0195 9.82422 15.0195 8.82812Q15.0195 7.82227 14.4531 6.97266Q13.8867 6.12305 12.8662 5.48828Q11.8457 4.85352 10.4834 4.50195Q9.12109 4.15039 7.51953 4.15039Q5.91797 4.15039 4.5459 4.50195Q3.17383 4.85352 2.15332 5.4834Q1.13281 6.11328 0.566406 6.96777Q0 7.82227 0 8.82812Q0 9.83398 0.566406 10.6836Q1.13281 11.5332 2.15332 12.1631Q3.17383 12.793 4.5459 13.1396Q5.91797 13.4863 7.51953 13.4863ZM7.50977 11.6992Q6.10352 11.6992 5.00488 11.3428Q3.90625 10.9863 3.27148 10.3662Q2.63672 9.74609 2.63672 8.96484Q2.63672 8.16406 3.27148 7.54395Q3.90625 6.92383 5.00488 6.56738Q6.10352 6.21094 7.50977 6.21094Q8.91602 6.21094 10.0244 6.56738Q11.1328 6.92383 11.7676 7.54395Q12.4023 8.16406 12.4023 8.96484Q12.4023 9.74609 11.7676 10.3662Q11.1328 10.9863 10.0244 11.3428Q8.91602 11.6992 7.50977 11.6992ZM3.52539 8.96484Q3.52539 9.46289 4.0625 9.8877Q4.59961 10.3125 5.49805 10.5664Q6.39648 10.8203 7.5 10.8203Q8.60352 10.8203 9.5166 10.5664Q10.4297 10.3125 10.9717 9.8877Q11.5137 9.46289 11.5137 8.96484Q11.5137 8.38867 10.8301 7.92969Q10.3516 8.56445 9.46289 8.94531Q8.57422 9.32617 7.5 9.32617Q6.41602 9.32617 5.52734 8.9502Q4.63867 8.57422 4.14062 7.93945Q3.52539 8.38867 3.52539 8.96484ZM24.3652 13.4961Q25.957 13.4961 27.3242 13.1494Q28.6914 12.8027 29.707 12.168Q30.7227 11.5332 31.2939 10.6836Q31.8652 9.83398 31.8652 8.83789Q31.8652 7.83203 31.2939 6.98242Q30.7227 6.13281 29.707 5.49805Q28.6914 4.86328 27.3242 4.51172Q25.957 4.16016 24.3652 4.16016Q22.7539 4.16016 21.3867 4.51172Q20.0195 4.86328 18.999 5.49316Q17.9785 6.12305 17.4121 6.97754Q16.8457 7.83203 16.8457 8.83789Q16.8457 9.84375 17.4121 10.6934Q17.9785 11.543 18.999 12.1729Q20.0195 12.8027 21.3867 13.1494Q22.7539 13.4961 24.3652 13.4961ZM24.3457 11.709Q22.9395 11.709 21.8359 11.3525Q20.7324 10.9961 20.1025 10.376Q19.4727 9.75586 19.4727 8.97461Q19.4727 8.17383 20.1025 7.55371Q20.7324 6.93359 21.8359 6.57715Q22.9395 6.2207 24.3457 6.2207Q25.752 6.2207 26.8555 6.57715Q27.959 6.93359 28.5938 7.55371Q29.2285 8.17383 29.2285 8.97461Q29.2285 9.75586 28.5938 10.376Q27.959 10.9961 26.8555 11.3525Q25.752 11.709 24.3457 11.709ZM20.3613 8.97461Q20.3613 9.47266 20.8936 9.89746Q21.4258 10.3223 22.334 10.5762Q23.2422 10.8301 24.3359 10.8301Q25.4492 10.8301 26.3574 10.5762Q27.2656 10.3223 27.8076 9.89746Q28.3496 9.47266 28.3496 8.97461Q28.3496 8.67188 28.1689 8.41309Q27.9883 8.1543 27.666 7.92969Q27.1875 8.56445 26.3037 8.9502Q25.4199 9.33594 24.3359 9.33594Q23.2617 9.33594 22.3633 8.95996Q21.4648 8.58398 20.9668 7.94922Q20.3613 8.39844 20.3613 8.97461ZM15.9473 23.2324Q17.5488 23.2324 18.916 22.8809Q20.2832 22.5293 21.2988 21.8994Q22.3145 21.2695 22.8809 20.4199Q23.4473 19.5703 23.4473 18.5645Q23.4473 17.5586 22.8809 16.709Q22.3145 15.8594 21.2988 15.2246Q20.2832 14.5898 18.916 14.2432Q17.5488 13.8965 15.9473 13.8965Q14.3457 13.8965 12.9736 14.2432Q11.6016 14.5898 10.5811 15.2197Q9.56055 15.8496 8.99414 16.7041Q8.42773 17.5586 8.42773 18.5645Q8.42773 19.5703 8.99414 20.4199Q9.56055 21.2695 10.5811 21.8994Q11.6016 22.5293 12.9736 22.8809Q14.3457 23.2324 15.9473 23.2324ZM15.9375 21.4453Q14.5312 21.4453 13.4277 21.084Q12.3242 20.7227 11.6943 20.1025Q11.0645 19.4824 11.0645 18.6914Q11.0645 17.9004 11.6943 17.2803Q12.3242 16.6602 13.4277 16.3037Q14.5312 15.9473 15.9375 15.9473Q17.3535 15.9473 18.457 16.3037Q19.5605 16.6602 20.1953 17.2803Q20.8301 17.9004 20.8301 18.6914Q20.8301 19.4824 20.1953 20.1025Q19.5605 20.7227 18.457 21.084Q17.3535 21.4453 15.9375 21.4453ZM11.9531 18.6914Q11.9531 19.209 12.4902 19.6289Q13.0273 20.0488 13.9258 20.3027Q14.8242 20.5566 15.9277 20.5566Q17.041 20.5566 17.9492 20.3027Q18.8574 20.0488 19.3994 19.6289Q19.9414 19.209 19.9414 18.6914Q19.9414 18.3984 19.7607 18.1396Q19.5801 17.8809 19.2578 17.666Q18.7891 18.3008 17.9004 18.6768Q17.0117 19.0527 15.9277 19.0527Q14.8535 19.0527 13.9551 18.6816Q13.0566 18.3105 12.5586 17.6855Q12.2852 17.8906 12.1191 18.1494Q11.9531 18.4082 11.9531 18.6914Z" fill="#ffffff"/>
 </g>
</svg>
