<?xml version="1.0" encoding="UTF-8"?>
<!--Generator: Apple Native CoreSVG 175.5-->
<!DOCTYPE svg
PUBLIC "-//W3C//DTD SVG 1.1//EN"
       "http://www.w3.org/Graphics/SVG/1.1/DTD/svg11.dtd">
<svg version="1.1" xmlns="http://www.w3.org/2000/svg" xmlns:xlink="http://www.w3.org/1999/xlink" width="15.6079" height="15.8278">
 <g>
  <rect height="15.8278" opacity="0" width="15.6079" x="0" y="0"/>
  <path d="M0.224609 15.3699Q0.458984 15.5946 0.786133 15.5946Q1.11328 15.5946 1.33789 15.3699L11.0352 5.69221L12.8516 7.51838Q13.0469 7.70393 13.2568 7.70393Q13.4668 7.70393 13.6377 7.55256Q13.8086 7.40119 13.877 7.12776L15.5859 0.799632Q15.6445 0.555492 15.5469 0.355296Q15.4492 0.155101 15.2441 0.0574449Q15.0391-0.0402114 14.8047 0.028148L8.48633 1.72737Q8.21289 1.80549 8.05664 1.97151Q7.90039 2.13752 7.90039 2.34748Q7.90039 2.55744 8.0957 2.74299L9.93164 4.57893L0.224609 14.2567Q0 14.4813 0 14.8084Q0 15.1356 0.224609 15.3699Z" fill="#ffffff"/>
 </g>
</svg>
