<?xml version="1.0" encoding="UTF-8"?>
<!--Generator: Apple Native CoreSVG 175-->
<!DOCTYPE svg
PUBLIC "-//W3C//DTD SVG 1.1//EN"
       "http://www.w3.org/Graphics/SVG/1.1/DTD/svg11.dtd">
<svg version="1.1" xmlns="http://www.w3.org/2000/svg" xmlns:xlink="http://www.w3.org/1999/xlink" width="19.1554" height="19.1583">
 <g>
  <rect height="19.1583" opacity="0" width="19.1554" x="0" y="0"/>
  <path d="M9.57428 19.1486Q11.1824 19.1486 12.6525 18.6388Q14.1226 18.129 15.3207 17.2153Q13.5965 16.936 12.2785 16.07Q10.9605 15.204 10.159 13.8141Q9.59137 12.8188 9.40544 11.8692Q9.21951 10.9196 9.19067 10.0598Q8.56171 10.4634 7.96722 11.0126Q7.37274 11.5617 6.87897 12.3997Q6.05042 13.8309 6.07468 15.4501Q6.09894 17.0692 6.93253 18.7564Q7.56454 18.9455 8.22601 19.047Q8.88748 19.1486 9.57428 19.1486ZM5.96909 18.445Q5.28473 16.7493 5.34767 15.1143Q5.41061 13.4793 6.24298 12.0332Q6.74728 11.1798 7.35703 10.5894Q7.96677 9.99893 8.62259 9.56528Q7.88483 9.21143 7.22328 9.0583Q6.56174 8.90518 5.83511 8.90518Q4.20319 8.90518 2.82562 9.78058Q1.44806 10.656 0.414124 12.3579Q1.05667 14.424 2.5219 16.0257Q3.98712 17.6274 5.96909 18.445ZM0.172272 11.3934Q1.26678 9.84222 2.70233 9.0094Q4.13788 8.17657 5.83511 8.17657Q6.83823 8.17657 7.64801 8.42346Q8.45779 8.67035 9.16641 9.0419Q9.14017 8.04031 8.95035 7.2979Q8.76053 6.55548 8.34259 5.83557Q7.52655 4.43954 6.11343 3.6866Q4.70032 2.93365 2.76245 2.88254Q1.48041 4.17435 0.740204 5.89798Q0 7.62161 0 9.57428Q0 10.0398 0.0454712 10.4922Q0.0909424 10.9445 0.172272 11.3934ZM9.88785 8.78281Q10.7484 8.25165 11.2946 7.71782Q11.8407 7.18399 12.2586 6.47659Q13.0421 5.12543 13.0074 3.57018Q12.9727 2.01492 12.1194 0.358582Q11.5141 0.18631 10.8778 0.0931549Q10.2414 0 9.57153 0Q7.84958 0 6.29181 0.584183Q4.73404 1.16837 3.49808 2.19849Q5.34027 2.38083 6.73965 3.20198Q8.13904 4.02313 8.97156 5.47897Q9.47739 6.35086 9.66331 7.1727Q9.84924 7.99454 9.88785 8.78281ZM13.6671 10.5984Q15.2261 10.5984 16.5636 9.84238Q17.9012 9.0863 18.9255 7.65823Q18.6098 6.06567 17.795 4.69597Q16.9801 3.32626 15.7696 2.29126Q14.559 1.25626 13.0731 0.667267Q13.7672 2.29691 13.7352 3.86452Q13.7032 5.43213 12.8848 6.84036Q12.3004 7.85507 11.5616 8.46451Q10.8228 9.07394 10.0603 9.5285Q10.798 9.94415 11.6631 10.2713Q12.5282 10.5984 13.6671 10.5984ZM16.0689 16.5594Q17.4857 15.2536 18.3205 13.4457Q19.1554 11.6379 19.1554 9.57428Q19.1554 9.10904 19.1083 8.63678Q18.0067 9.95209 16.6231 10.6361Q15.2394 11.32 13.6671 11.32Q12.5098 11.32 11.5948 11.0079Q10.6798 10.6958 9.91913 10.2821Q9.95239 11.0326 10.1268 11.8212Q10.3012 12.6099 10.795 13.4575Q11.5871 14.8367 12.9356 15.6192Q14.2841 16.4017 16.0689 16.5594Z" fill="rgba(0,0,0,0.85)"/>
 </g>
</svg>
