<?xml version="1.0" encoding="UTF-8"?>
<!--Generator: Apple Native CoreSVG 175.5-->
<!DOCTYPE svg
PUBLIC "-//W3C//DTD SVG 1.1//EN"
       "http://www.w3.org/Graphics/SVG/1.1/DTD/svg11.dtd">
<svg version="1.1" xmlns="http://www.w3.org/2000/svg" xmlns:xlink="http://www.w3.org/1999/xlink" width="19.9219" height="19.9316">
 <g>
  <rect height="19.9316" opacity="0" width="19.9219" x="0" y="0"/>
  <path d="M9.96094 19.9219Q12.002 19.9219 13.8037 19.1406Q15.6055 18.3594 16.9824 16.9824Q18.3594 15.6055 19.1406 13.8037Q19.9219 12.002 19.9219 9.96094Q19.9219 7.91992 19.1406 6.11816Q18.3594 4.31641 16.9824 2.93945Q15.6055 1.5625 13.7988 0.78125Q11.9922 0 9.95117 0Q7.91016 0 6.1084 0.78125Q4.30664 1.5625 2.93457 2.93945Q1.5625 4.31641 0.78125 6.11816Q0 7.91992 0 9.96094Q0 12.002 0.78125 13.8037Q1.5625 15.6055 2.93945 16.9824Q4.31641 18.3594 6.11816 19.1406Q7.91992 19.9219 9.96094 19.9219ZM9.96094 18.2617Q8.23242 18.2617 6.72852 17.6172Q5.22461 16.9727 4.08691 15.835Q2.94922 14.6973 2.30957 13.1934Q1.66992 11.6895 1.66992 9.96094Q1.66992 8.23242 2.30957 6.72852Q2.94922 5.22461 4.08203 4.08203Q5.21484 2.93945 6.71875 2.2998Q8.22266 1.66016 9.95117 1.66016Q11.6797 1.66016 13.1885 2.2998Q14.6973 2.93945 15.835 4.08203Q16.9727 5.22461 17.6172 6.72852Q18.2617 8.23242 18.2617 9.96094Q18.2617 11.6895 17.6221 13.1934Q16.9824 14.6973 15.8398 15.835Q14.6973 16.9727 13.1934 17.6172Q11.6895 18.2617 9.96094 18.2617Z" fill="#ffffff"/>
  <path d="M4.64844 8.02734L15.293 8.02734Q15.6152 8.02734 15.8252 7.83691Q16.0352 7.64648 16.0352 7.34375Q16.0352 7.03125 15.8252 6.84082Q15.6152 6.65039 15.293 6.65039L4.64844 6.65039Q4.32617 6.65039 4.11621 6.84082Q3.90625 7.03125 3.90625 7.34375Q3.90625 7.64648 4.11621 7.83691Q4.32617 8.02734 4.64844 8.02734ZM6.09375 11.2598L13.8477 11.2598Q14.1699 11.2598 14.3799 11.0742Q14.5898 10.8887 14.5898 10.5762Q14.5898 10.2637 14.3799 10.0732Q14.1699 9.88281 13.8477 9.88281L6.09375 9.88281Q5.77148 9.88281 5.56152 10.0732Q5.35156 10.2637 5.35156 10.5762Q5.35156 10.8887 5.56152 11.0742Q5.77148 11.2598 6.09375 11.2598ZM7.60742 14.502L12.3438 14.502Q12.666 14.502 12.8711 14.3115Q13.0762 14.1211 13.0762 13.8184Q13.0762 13.5059 12.8711 13.3154Q12.666 13.125 12.3438 13.125L7.60742 13.125Q7.27539 13.125 7.07031 13.3154Q6.86523 13.5059 6.86523 13.8184Q6.86523 14.1211 7.07031 14.3115Q7.27539 14.502 7.60742 14.502Z" fill="#ffffff"/>
 </g>
</svg>
