<?xml version="1.0" encoding="UTF-8"?>
<!--Generator: Apple Native CoreSVG 175.5-->
<!DOCTYPE svg
PUBLIC "-//W3C//DTD SVG 1.1//EN"
       "http://www.w3.org/Graphics/SVG/1.1/DTD/svg11.dtd">
<svg version="1.1" xmlns="http://www.w3.org/2000/svg" xmlns:xlink="http://www.w3.org/1999/xlink" width="22.4023" height="17.5293">
 <g>
  <rect height="17.5293" opacity="0" width="22.4023" x="0" y="0"/>
  <path d="M1.00586 13.6426Q2.00195 13.6426 2.00195 12.6465L2.00195 4.88281Q2.00195 3.88672 1.00586 3.88672Q0 3.88672 0 4.88281L0 12.6465Q0 13.6426 1.00586 13.6426Z" fill="#ffffff"/>
  <path d="M6.10352 11.1816Q7.09961 11.1816 7.09961 10.1758L7.09961 7.35352Q7.09961 6.34766 6.10352 6.34766Q5.10742 6.34766 5.10742 7.35352L5.10742 10.1758Q5.10742 11.1816 6.10352 11.1816Z" fill="#ffffff"/>
  <path d="M11.2012 17.5293Q12.207 17.5293 12.207 16.5332L12.207 0.996094Q12.207 0 11.2012 0Q10.1953 0 10.1953 0.996094L10.1953 16.5332Q10.1953 17.5293 11.2012 17.5293Z" fill="#ffffff"/>
  <path d="M16.2988 11.1816Q17.2949 11.1816 17.2949 10.1758L17.2949 7.35352Q17.2949 6.34766 16.2988 6.34766Q15.3027 6.34766 15.3027 7.35352L15.3027 10.1758Q15.3027 11.1816 16.2988 11.1816Z" fill="#ffffff"/>
  <path d="M21.3965 13.6426Q22.4023 13.6426 22.4023 12.6465L22.4023 4.88281Q22.4023 3.88672 21.3965 3.88672Q20.4004 3.88672 20.4004 4.88281L20.4004 12.6465Q20.4004 13.6426 21.3965 13.6426Z" fill="#ffffff"/>
 </g>
</svg>
