<?xml version="1.0" encoding="UTF-8"?>
<!--Generator: Apple Native CoreSVG 175-->
<!DOCTYPE svg
PUBLIC "-//W3C//DTD SVG 1.1//EN"
       "http://www.w3.org/Graphics/SVG/1.1/DTD/svg11.dtd">
<svg version="1.1" xmlns="http://www.w3.org/2000/svg" xmlns:xlink="http://www.w3.org/1999/xlink" width="19.1602" height="19.1504">
 <g>
  <rect height="19.1504" opacity="0" width="19.1602" x="0" y="0"/>
  <path d="M9.57031 19.1504Q11.5527 19.1504 13.2861 18.4082Q15.0195 17.666 16.3379 16.3428Q17.6562 15.0195 18.4082 13.2861Q19.1602 11.5527 19.1602 9.58008Q19.1602 7.60742 18.4082 5.87402Q17.6562 4.14062 16.3379 2.81738Q15.0195 1.49414 13.2861 0.751953Q11.5527 0.00976562 9.57031 0.00976562Q7.59766 0.00976562 5.86426 0.751953Q4.13086 1.49414 2.81738 2.81738Q1.50391 4.14062 0.751953 5.87402Q0 7.60742 0 9.58008Q0 11.5527 0.74707 13.2861Q1.49414 15.0195 2.8125 16.3428Q4.13086 17.666 5.86914 18.4082Q7.60742 19.1504 9.57031 19.1504ZM4.83398 14.0918Q4.01367 13.2715 4.05762 12.2852Q4.10156 11.2988 5 10.4102L7.14844 8.26172Q7.02148 8.55469 7.00195 8.80371Q6.98242 9.05273 7.02148 9.23828L5.41992 10.8594Q4.72656 11.5332 4.69727 12.2803Q4.66797 13.0273 5.29297 13.6426Q5.88867 14.248 6.63574 14.2139Q7.38281 14.1797 8.05664 13.4961L10.0586 11.5039Q10.752 10.8301 10.7861 10.0781Q10.8203 9.32617 10.1953 8.73047Q9.88281 8.39844 9.55078 8.25684Q9.21875 8.11523 8.83789 8.125Q8.89648 7.92969 9.02832 7.77832Q9.16016 7.62695 9.29688 7.53906Q9.62891 7.57812 9.95605 7.75879Q10.2832 7.93945 10.6348 8.28125Q11.4648 9.0918 11.4209 10.083Q11.377 11.0742 10.4688 11.9727L8.50586 13.916Q7.61719 14.8047 6.64062 14.8535Q5.66406 14.9023 4.83398 14.0918ZM13.8965 5.01953Q14.7266 5.83984 14.6826 6.82129Q14.6387 7.80273 13.7402 8.70117L11.5918 10.8398Q11.7188 10.5566 11.7334 10.3027Q11.748 10.0488 11.7188 9.86328L13.3203 8.24219Q14.0234 7.56836 14.043 6.82129Q14.0625 6.07422 13.4473 5.46875Q12.8516 4.86328 12.1045 4.89258Q11.3574 4.92188 10.6738 5.60547L8.68164 7.59766Q7.98828 8.27148 7.9541 9.02832Q7.91992 9.78516 8.54492 10.3809Q8.85742 10.7031 9.18457 10.8398Q9.51172 10.9766 9.90234 10.9766Q9.84375 11.1621 9.70703 11.3232Q9.57031 11.4844 9.44336 11.5723Q9.11133 11.5332 8.78418 11.3525Q8.45703 11.1719 8.10547 10.8203Q7.27539 10.0098 7.31934 9.01855Q7.36328 8.02734 8.26172 7.12891L10.2344 5.18555Q11.1133 4.29688 12.0898 4.24805Q13.0664 4.19922 13.8965 5.01953Z" fill="#ffffff"/>
 </g>
</svg>
