<?xml version="1.0" encoding="UTF-8"?>
<!--Generator: Apple Native CoreSVG 175.5-->
<!DOCTYPE svg
PUBLIC "-//W3C//DTD SVG 1.1//EN"
       "http://www.w3.org/Graphics/SVG/1.1/DTD/svg11.dtd">
<svg version="1.1" xmlns="http://www.w3.org/2000/svg" xmlns:xlink="http://www.w3.org/1999/xlink" width="17.9785" height="17.998">
 <g>
  <rect height="17.998" opacity="0" width="17.9785" x="0" y="0"/>
  <path d="M3.06641 17.998L14.9121 17.998Q16.4453 17.998 17.2119 17.2412Q17.9785 16.4844 17.9785 14.9707L17.9785 3.04688Q17.9785 1.5332 17.2119 0.776367Q16.4453 0.0195312 14.9121 0.0195312L3.06641 0.0195312Q1.5332 0.0195312 0.766602 0.776367Q0 1.5332 0 3.04688L0 14.9707Q0 16.4844 0.766602 17.2412Q1.5332 17.998 3.06641 17.998ZM3.08594 16.4258Q2.35352 16.4258 1.96289 16.04Q1.57227 15.6543 1.57227 14.8926L1.57227 3.125Q1.57227 2.36328 1.96289 1.97754Q2.35352 1.5918 3.08594 1.5918L14.8926 1.5918Q15.6152 1.5918 16.0107 1.97754Q16.4062 2.36328 16.4062 3.125L16.4062 14.8926Q16.4062 15.6543 16.0107 16.04Q15.6152 16.4258 14.8926 16.4258Z" fill="#ffffff"/>
  <path d="M5.43945 13.0176Q5.43945 13.2715 5.5957 13.4326Q5.75195 13.5938 6.01562 13.5938L11.9141 13.5938Q12.1777 13.5938 12.3438 13.4375Q12.5098 13.2812 12.5098 13.0176Q12.5098 12.7637 12.3438 12.6074Q12.1777 12.4512 11.9141 12.4512L7.70508 12.4512Q8.00781 12.1875 8.22266 11.7725Q8.4375 11.3574 8.49609 10.8789Q8.51562 10.7617 8.52051 10.6494Q8.52539 10.5371 8.53516 10.4297L10.8594 10.4297Q11.1035 10.4297 11.2549 10.2832Q11.4062 10.1367 11.4062 9.90234Q11.4062 9.66797 11.2549 9.52637Q11.1035 9.38477 10.8594 9.38477L8.41797 9.38477Q8.36914 9.16016 8.31055 8.9502Q8.25195 8.74023 8.20312 8.53516L10.8594 8.53516Q11.1035 8.53516 11.2549 8.38867Q11.4062 8.24219 11.4062 8.00781Q11.4062 7.77344 11.2549 7.63184Q11.1035 7.49023 10.8594 7.49023L8.02734 7.49023Q8.01758 7.42188 8.01758 7.34375Q8.01758 7.26562 8.01758 7.19727Q8.01758 6.40625 8.5498 5.91309Q9.08203 5.41992 10.0488 5.41992Q10.5859 5.41992 10.9326 5.5127Q11.2793 5.60547 11.5137 5.63477Q11.7773 5.64453 11.9238 5.50293Q12.0703 5.36133 12.0703 5.11719Q12.0703 4.70703 11.5918 4.52148Q11.25 4.38477 10.8398 4.32617Q10.4297 4.26758 9.98047 4.26758Q8.4668 4.26758 7.60254 5.08301Q6.73828 5.89844 6.73828 7.27539Q6.73828 7.33398 6.73828 7.38281Q6.73828 7.43164 6.74805 7.49023L6.00586 7.49023Q5.77148 7.49023 5.62012 7.63184Q5.46875 7.77344 5.46875 8.00781Q5.46875 8.24219 5.62012 8.38867Q5.77148 8.53516 6.00586 8.53516L6.91406 8.53516Q6.96289 8.75 7.02148 8.95996Q7.08008 9.16992 7.12891 9.38477L6.00586 9.38477Q5.77148 9.38477 5.62012 9.52637Q5.46875 9.66797 5.46875 9.90234Q5.46875 10.1367 5.62012 10.2832Q5.77148 10.4297 6.00586 10.4297L7.28516 10.4297Q7.29492 10.5469 7.27539 10.752Q7.20703 11.3965 6.82617 11.8213Q6.44531 12.2461 5.94727 12.3828Q5.67383 12.4707 5.55664 12.6221Q5.43945 12.7734 5.43945 13.0176Z" fill="#ffffff"/>
 </g>
</svg>
