<?xml version="1.0" encoding="UTF-8"?>
<!--Generator: Apple Native CoreSVG 175.5-->
<!DOCTYPE svg
PUBLIC "-//W3C//DTD SVG 1.1//EN"
       "http://www.w3.org/Graphics/SVG/1.1/DTD/svg11.dtd">
<svg version="1.1" xmlns="http://www.w3.org/2000/svg" xmlns:xlink="http://www.w3.org/1999/xlink" width="17.9785" height="17.998">
 <g>
  <rect height="17.998" opacity="0" width="17.9785" x="0" y="0"/>
  <path d="M3.06641 17.998L14.9121 17.998Q16.4453 17.998 17.2119 17.2412Q17.9785 16.4844 17.9785 14.9707L17.9785 3.04688Q17.9785 1.5332 17.2119 0.776367Q16.4453 0.0195312 14.9121 0.0195312L3.06641 0.0195312Q1.5332 0.0195312 0.766602 0.776367Q0 1.5332 0 3.04688L0 14.9707Q0 16.4844 0.766602 17.2412Q1.5332 17.998 3.06641 17.998Z" fill="#ffffff"/>
  <path d="M5.32227 13.1445Q5.32227 12.9004 5.44434 12.7393Q5.56641 12.5781 5.84961 12.4902Q6.35742 12.3438 6.75293 11.9092Q7.14844 11.4746 7.2168 10.8105Q7.23633 10.6055 7.22656 10.4785L5.9082 10.4785Q5.66406 10.4785 5.50781 10.3271Q5.35156 10.1758 5.35156 9.93164Q5.35156 9.6875 5.50781 9.54102Q5.66406 9.39453 5.9082 9.39453L7.07031 9.39453Q7.02148 9.16992 6.95801 8.95996Q6.89453 8.75 6.8457 8.52539L5.9082 8.52539Q5.66406 8.52539 5.50781 8.37402Q5.35156 8.22266 5.35156 7.97852Q5.35156 7.73438 5.50781 7.58789Q5.66406 7.44141 5.9082 7.44141L6.67969 7.44141Q6.66992 7.38281 6.66992 7.33398Q6.66992 7.28516 6.66992 7.22656Q6.66992 5.80078 7.56348 4.96094Q8.45703 4.12109 10.0098 4.12109Q10.4688 4.12109 10.8936 4.17969Q11.3184 4.23828 11.6797 4.38477Q12.168 4.58008 12.168 5Q12.168 5.25391 12.0215 5.39551Q11.875 5.53711 11.5918 5.52734Q11.3477 5.49805 10.9961 5.40527Q10.6445 5.3125 10.0879 5.3125Q9.0918 5.3125 8.54004 5.82031Q7.98828 6.32812 7.98828 7.13867Q7.98828 7.2168 7.98828 7.29492Q7.98828 7.37305 7.99805 7.44141L10.918 7.44141Q11.1719 7.44141 11.3281 7.58789Q11.4844 7.73438 11.4844 7.97852Q11.4844 8.22266 11.3281 8.37402Q11.1719 8.52539 10.918 8.52539L8.18359 8.52539Q8.23242 8.74023 8.29102 8.9502Q8.34961 9.16016 8.4082 9.39453L10.918 9.39453Q11.1719 9.39453 11.3281 9.54102Q11.4844 9.6875 11.4844 9.93164Q11.4844 10.1758 11.3281 10.3271Q11.1719 10.4785 10.918 10.4785L8.52539 10.4785Q8.51562 10.5957 8.51074 10.708Q8.50586 10.8203 8.48633 10.9277Q8.41797 11.4258 8.20312 11.8604Q7.98828 12.2949 7.66602 12.5586L12.0117 12.5586Q12.2852 12.5586 12.4561 12.7197Q12.627 12.8809 12.627 13.1445Q12.627 13.418 12.4561 13.5791Q12.2852 13.7402 12.0117 13.7402L5.91797 13.7402Q5.6543 13.7402 5.48828 13.5791Q5.32227 13.418 5.32227 13.1445Z" fill="none"/>
 </g>
</svg>
