<?xml version="1.0" encoding="UTF-8"?>
<!--Generator: Apple Native CoreSVG 175-->
<!DOCTYPE svg
PUBLIC "-//W3C//DTD SVG 1.1//EN"
       "http://www.w3.org/Graphics/SVG/1.1/DTD/svg11.dtd">
<svg version="1.1" xmlns="http://www.w3.org/2000/svg" xmlns:xlink="http://www.w3.org/1999/xlink" width="19.1602" height="19.1504">
 <g>
  <rect height="19.1504" opacity="0" width="19.1602" x="0" y="0"/>
  <path d="M9.57031 19.1406Q11.5527 19.1406 13.2861 18.3984Q15.0195 17.6562 16.3379 16.333Q17.6562 15.0098 18.4082 13.2764Q19.1602 11.543 19.1602 9.57031Q19.1602 7.59766 18.4082 5.86426Q17.6562 4.13086 16.3379 2.80762Q15.0195 1.48438 13.2861 0.742188Q11.5527 0 9.57031 0Q7.59766 0 5.86426 0.742188Q4.13086 1.48438 2.81738 2.80762Q1.50391 4.13086 0.751953 5.86426Q0 7.59766 0 9.57031Q0 11.543 0.74707 13.2764Q1.49414 15.0098 2.8125 16.333Q4.13086 17.6562 5.86914 18.3984Q7.60742 19.1406 9.57031 19.1406ZM6.93359 6.50391Q6.79688 6.50391 6.69922 6.40625Q6.60156 6.30859 6.60156 6.17188Q6.60156 6.03516 6.69922 5.94238Q6.79688 5.84961 6.93359 5.84961L14.9609 5.84961Q15.0977 5.84961 15.1904 5.94238Q15.2832 6.03516 15.2832 6.17188Q15.2832 6.31836 15.1904 6.41113Q15.0977 6.50391 14.9609 6.50391ZM6.93359 13.3105Q6.79688 13.3105 6.69922 13.2178Q6.60156 13.125 6.60156 12.9883Q6.60156 12.8516 6.69922 12.7588Q6.79688 12.666 6.93359 12.666L14.9609 12.666Q15.0977 12.666 15.1904 12.7539Q15.2832 12.8418 15.2832 12.9883Q15.2832 13.1348 15.1904 13.2227Q15.0977 13.3105 14.9609 13.3105ZM6.93359 9.90234Q6.79688 9.90234 6.69922 9.80957Q6.60156 9.7168 6.60156 9.58008Q6.60156 9.45312 6.69922 9.35547Q6.79688 9.25781 6.93359 9.25781L14.9609 9.25781Q15.0977 9.25781 15.1904 9.35059Q15.2832 9.44336 15.2832 9.58008Q15.2832 9.72656 15.1904 9.81445Q15.0977 9.90234 14.9609 9.90234ZM4.59961 6.93359Q4.28711 6.93359 4.07227 6.70898Q3.85742 6.48438 3.85742 6.17188Q3.85742 5.85938 4.07227 5.63965Q4.28711 5.41992 4.59961 5.41992Q4.91211 5.41992 5.13672 5.63965Q5.36133 5.85938 5.36133 6.17188Q5.36133 6.48438 5.13672 6.70898Q4.91211 6.93359 4.59961 6.93359ZM4.59961 10.332Q4.28711 10.332 4.07227 10.1123Q3.85742 9.89258 3.85742 9.58008Q3.85742 9.26758 4.07227 9.04785Q4.28711 8.82812 4.59961 8.82812Q4.91211 8.82812 5.13672 9.04785Q5.36133 9.26758 5.36133 9.58008Q5.36133 9.89258 5.13672 10.1123Q4.91211 10.332 4.59961 10.332ZM4.59961 13.7402Q4.28711 13.7402 4.07227 13.5205Q3.85742 13.3008 3.85742 12.9883Q3.85742 12.6758 4.07227 12.4561Q4.28711 12.2363 4.59961 12.2363Q4.91211 12.2363 5.13672 12.4561Q5.36133 12.6758 5.36133 12.9883Q5.36133 13.3008 5.13672 13.5205Q4.91211 13.7402 4.59961 13.7402Z" fill="rgba(0,0,0,0.85)"/>
 </g>
</svg>
