<?xml version="1.0" encoding="UTF-8"?>
<!--Generator: Apple Native CoreSVG 175.5-->
<!DOCTYPE svg
PUBLIC "-//W3C//DTD SVG 1.1//EN"
       "http://www.w3.org/Graphics/SVG/1.1/DTD/svg11.dtd">
<svg version="1.1" xmlns="http://www.w3.org/2000/svg" xmlns:xlink="http://www.w3.org/1999/xlink" width="19.6777" height="14.2871">
 <g>
  <rect height="14.2871" opacity="0" width="19.6777" x="0" y="0"/>
  <path d="M5.54688 2.03125L18.8867 2.03125Q19.2188 2.03125 19.4482 1.80664Q19.6777 1.58203 19.6777 1.25Q19.6777 0.917969 19.4482 0.688477Q19.2188 0.458984 18.8867 0.458984L5.54688 0.458984Q5.21484 0.458984 4.98535 0.688477Q4.75586 0.917969 4.75586 1.25Q4.75586 1.58203 4.98535 1.80664Q5.21484 2.03125 5.54688 2.03125ZM5.54688 7.93945L18.8867 7.93945Q19.2188 7.93945 19.4482 7.70996Q19.6777 7.48047 19.6777 7.14844Q19.6777 6.81641 19.4482 6.5918Q19.2188 6.36719 18.8867 6.36719L5.54688 6.36719Q5.21484 6.36719 4.98535 6.5918Q4.75586 6.81641 4.75586 7.14844Q4.75586 7.48047 4.98535 7.70996Q5.21484 7.93945 5.54688 7.93945ZM5.54688 13.8379L18.8867 13.8379Q19.2188 13.8379 19.4482 13.6133Q19.6777 13.3887 19.6777 13.0566Q19.6777 12.7246 19.4482 12.4951Q19.2188 12.2656 18.8867 12.2656L5.54688 12.2656Q5.21484 12.2656 4.98535 12.4951Q4.75586 12.7246 4.75586 13.0566Q4.75586 13.3887 4.98535 13.6133Q5.21484 13.8379 5.54688 13.8379Z" fill="#ffffff"/>
  <path d="M1.23047 2.4707Q1.73828 2.4707 2.09961 2.11426Q2.46094 1.75781 2.46094 1.25Q2.46094 0.732422 2.09961 0.375977Q1.73828 0.0195312 1.23047 0.0195312Q0.722656 0.0195312 0.361328 0.375977Q0 0.732422 0 1.25Q0 1.75781 0.361328 2.11426Q0.722656 2.4707 1.23047 2.4707ZM1.23047 8.37891Q1.73828 8.37891 2.09961 8.01758Q2.46094 7.65625 2.46094 7.14844Q2.46094 6.64062 2.09961 6.2793Q1.73828 5.91797 1.23047 5.91797Q0.722656 5.91797 0.361328 6.2793Q0 6.64062 0 7.14844Q0 7.65625 0.361328 8.01758Q0.722656 8.37891 1.23047 8.37891ZM1.23047 14.2871Q1.73828 14.2871 2.09961 13.9258Q2.46094 13.5645 2.46094 13.0566Q2.46094 12.5391 2.09961 12.1826Q1.73828 11.8262 1.23047 11.8262Q0.722656 11.8262 0.361328 12.1826Q0 12.5391 0 13.0566Q0 13.5645 0.361328 13.9258Q0.722656 14.2871 1.23047 14.2871Z" fill="#ffffff"/>
 </g>
</svg>
