<?xml version="1.0" encoding="UTF-8"?>
<!--Generator: Apple Native CoreSVG 175-->
<!DOCTYPE svg
PUBLIC "-//W3C//DTD SVG 1.1//EN"
       "http://www.w3.org/Graphics/SVG/1.1/DTD/svg11.dtd">
<svg version="1.1" xmlns="http://www.w3.org/2000/svg" xmlns:xlink="http://www.w3.org/1999/xlink" width="23.475" height="13.6685">
 <g>
  <rect height="13.6685" opacity="0" width="23.475" x="0" y="0"/>
  <path d="M5.00549 1.45477L18.5422 1.45477Q18.6984 1.45477 18.8013 1.35323Q18.9043 1.25168 18.9043 1.08841Q18.9043 0.932159 18.8013 0.829163Q18.6984 0.726166 18.5422 0.726166L5.00549 0.726166Q4.84924 0.726166 4.74632 0.829163Q4.6434 0.932159 4.6434 1.08841Q4.6434 1.25168 4.74632 1.35323Q4.84924 1.45477 5.00549 1.45477ZM7.28943 7.20123L20.8289 7.20123Q20.9853 7.20123 21.0868 7.09831Q21.1884 6.99539 21.1884 6.83914Q21.1884 6.68289 21.0868 6.58134Q20.9853 6.4798 20.8289 6.4798L7.28943 6.4798Q7.13593 6.4798 7.033 6.58134Q6.93008 6.68289 6.93008 6.83914Q6.93008 6.99539 7.033 7.09831Q7.13593 7.20123 7.28943 7.20123ZM9.57626 12.9521L23.1087 12.9521Q23.2719 12.9521 23.3735 12.8505Q23.475 12.7489 23.475 12.5926Q23.475 12.4294 23.3735 12.3299Q23.2719 12.2305 23.1087 12.2305L9.57626 12.2305Q9.41299 12.2305 9.31488 12.3299Q9.21677 12.4294 9.21677 12.5926Q9.21677 12.7489 9.31488 12.8505Q9.41299 12.9521 9.57626 12.9521ZM1.07574 2.16141Q1.52039 2.16141 1.83601 1.85066Q2.15164 1.53992 2.15164 1.08841Q2.15164 0.641022 1.83601 0.326767Q1.52039 0.0125122 1.07574 0.0125122Q0.631256 0.0125122 0.315628 0.326767Q0 0.641022 0 1.08841Q0 1.53992 0.315628 1.85066Q0.631256 2.16141 1.07574 2.16141ZM3.36258 7.91489Q3.80707 7.91489 4.1227 7.59926Q4.43832 7.28363 4.43832 6.83914Q4.43832 6.39465 4.1227 6.07903Q3.80707 5.7634 3.36258 5.7634Q2.91519 5.7634 2.60094 6.07903Q2.28668 6.39465 2.28668 6.83914Q2.28668 7.28363 2.60094 7.59926Q2.91519 7.91489 3.36258 7.91489ZM5.64651 13.6685Q6.09375 13.6685 6.408 13.3529Q6.72226 13.0373 6.72226 12.5926Q6.72226 12.1454 6.408 11.8311Q6.09375 11.5169 5.64651 11.5169Q5.19501 11.5169 4.88289 11.8311Q4.57077 12.1454 4.57077 12.5926Q4.57077 13.0373 4.88289 13.3529Q5.19501 13.6685 5.64651 13.6685Z" fill="#ffffff"/>
 </g>
</svg>
