<?xml version="1.0" encoding="UTF-8"?>
<!--Generator: Apple Native CoreSVG 175.5-->
<!DOCTYPE svg
PUBLIC "-//W3C//DTD SVG 1.1//EN"
       "http://www.w3.org/Graphics/SVG/1.1/DTD/svg11.dtd">
<svg version="1.1" xmlns="http://www.w3.org/2000/svg" xmlns:xlink="http://www.w3.org/1999/xlink" width="19.9219" height="19.9316">
 <g>
  <rect height="19.9316" opacity="0" width="19.9219" x="0" y="0"/>
  <path d="M9.96094 19.9219Q12.002 19.9219 13.8037 19.1406Q15.6055 18.3594 16.9824 16.9824Q18.3594 15.6055 19.1406 13.8037Q19.9219 12.002 19.9219 9.96094Q19.9219 7.91992 19.1406 6.11816Q18.3594 4.31641 16.9824 2.93945Q15.6055 1.5625 13.7988 0.78125Q11.9922 0 9.95117 0Q7.91016 0 6.1084 0.78125Q4.30664 1.5625 2.93457 2.93945Q1.5625 4.31641 0.78125 6.11816Q0 7.91992 0 9.96094Q0 12.002 0.78125 13.8037Q1.5625 15.6055 2.93945 16.9824Q4.31641 18.3594 6.11816 19.1406Q7.91992 19.9219 9.96094 19.9219ZM9.96094 18.2617Q8.23242 18.2617 6.72852 17.6172Q5.22461 16.9727 4.08691 15.835Q2.94922 14.6973 2.30957 13.1934Q1.66992 11.6895 1.66992 9.96094Q1.66992 8.23242 2.30957 6.72852Q2.94922 5.22461 4.08203 4.08203Q5.21484 2.93945 6.71875 2.2998Q8.22266 1.66016 9.95117 1.66016Q11.6797 1.66016 13.1885 2.2998Q14.6973 2.93945 15.835 4.08203Q16.9727 5.22461 17.6172 6.72852Q18.2617 8.23242 18.2617 9.96094Q18.2617 11.6895 17.6221 13.1934Q16.9824 14.6973 15.8398 15.835Q14.6973 16.9727 13.1934 17.6172Q11.6895 18.2617 9.96094 18.2617Z" fill="#ffffff"/>
  <path d="M7.57812 7.32422L14.9023 7.32422Q15.1465 7.32422 15.3174 7.15332Q15.4883 6.98242 15.4883 6.72852Q15.4883 6.47461 15.3174 6.30859Q15.1465 6.14258 14.9023 6.14258L7.57812 6.14258Q7.32422 6.14258 7.15332 6.31348Q6.98242 6.48438 6.98242 6.72852Q6.98242 6.97266 7.1582 7.14844Q7.33398 7.32422 7.57812 7.32422ZM7.57812 13.7891L14.9023 13.7891Q15.1465 13.7891 15.3174 13.6182Q15.4883 13.4473 15.4883 13.1934Q15.4883 12.9395 15.3174 12.7734Q15.1465 12.6074 14.9023 12.6074L7.57812 12.6074Q7.33398 12.6074 7.1582 12.7783Q6.98242 12.9492 6.98242 13.1934Q6.98242 13.4473 7.15332 13.6182Q7.32422 13.7891 7.57812 13.7891ZM7.57812 10.5566L14.9023 10.5566Q15.1465 10.5566 15.3174 10.3857Q15.4883 10.2148 15.4883 9.96094Q15.4883 9.70703 15.3174 9.54102Q15.1465 9.375 14.9023 9.375L7.57812 9.375Q7.33398 9.375 7.1582 9.5459Q6.98242 9.7168 6.98242 9.96094Q6.98242 10.2051 7.1582 10.3809Q7.33398 10.5566 7.57812 10.5566ZM5.22461 7.56836Q5.56641 7.56836 5.81543 7.31934Q6.06445 7.07031 6.06445 6.72852Q6.06445 6.37695 5.82031 6.13281Q5.57617 5.88867 5.22461 5.88867Q4.87305 5.88867 4.62891 6.13281Q4.38477 6.37695 4.38477 6.72852Q4.38477 7.08008 4.62891 7.32422Q4.87305 7.56836 5.22461 7.56836ZM5.22461 10.8008Q5.56641 10.8008 5.81543 10.5518Q6.06445 10.3027 6.06445 9.96094Q6.06445 9.61914 5.81543 9.37012Q5.56641 9.12109 5.22461 9.12109Q4.87305 9.12109 4.62891 9.36523Q4.38477 9.60938 4.38477 9.96094Q4.38477 10.3125 4.62891 10.5566Q4.87305 10.8008 5.22461 10.8008ZM5.22461 14.0332Q5.57617 14.0332 5.82031 13.7891Q6.06445 13.5449 6.06445 13.1934Q6.06445 12.8516 5.81543 12.6025Q5.56641 12.3535 5.22461 12.3535Q4.87305 12.3535 4.62891 12.5977Q4.38477 12.8418 4.38477 13.1934Q4.38477 13.5449 4.62891 13.7891Q4.87305 14.0332 5.22461 14.0332Z" fill="#ffffff"/>
 </g>
</svg>
