<?xml version="1.0" encoding="UTF-8"?>
<!--Generator: Apple Native CoreSVG 175.5-->
<!DOCTYPE svg
PUBLIC "-//W3C//DTD SVG 1.1//EN"
       "http://www.w3.org/Graphics/SVG/1.1/DTD/svg11.dtd">
<svg version="1.1" xmlns="http://www.w3.org/2000/svg" xmlns:xlink="http://www.w3.org/1999/xlink" width="19.675" height="16.1354">
 <g>
  <rect height="16.1354" opacity="0" width="19.675" x="0" y="0"/>
  <path d="M6.59888 2.95539L18.8938 2.95539Q19.2161 2.95539 19.4456 2.73078Q19.675 2.50617 19.675 2.17414Q19.675 1.84211 19.4456 1.61261Q19.2161 1.38312 18.8938 1.38312L6.59888 1.38312Q6.26685 1.38312 6.03735 1.61261Q5.80786 1.84211 5.80786 2.17414Q5.80786 2.50617 6.03735 2.73078Q6.26685 2.95539 6.59888 2.95539ZM6.59888 8.86359L18.8938 8.86359Q19.2161 8.86359 19.4456 8.6341Q19.675 8.40461 19.675 8.07257Q19.675 7.74054 19.4456 7.51593Q19.2161 7.29132 18.8938 7.29132L6.59888 7.29132Q6.26685 7.29132 6.03735 7.51593Q5.80786 7.74054 5.80786 8.07257Q5.80786 8.40461 6.03735 8.6341Q6.26685 8.86359 6.59888 8.86359ZM6.59888 14.762L18.8938 14.762Q19.2161 14.762 19.4456 14.5374Q19.675 14.3128 19.675 13.9808Q19.675 13.6487 19.4456 13.4193Q19.2161 13.1898 18.8938 13.1898L6.59888 13.1898Q6.26685 13.1898 6.03735 13.4193Q5.80786 13.6487 5.80786 13.9808Q5.80786 14.3128 6.03735 14.5374Q6.26685 14.762 6.59888 14.762Z" fill="#ffffff"/>
  <path d="M1.13013 3.7757L1.96997 3.16046L2.78052 3.7757Q2.927 3.88312 3.06372 3.85871Q3.20044 3.83429 3.2688 3.72199Q3.33716 3.60968 3.27856 3.44367L2.9563 2.44757L3.77661 1.83234Q3.90356 1.73468 3.91821 1.60285Q3.93286 1.47101 3.84985 1.37336Q3.76685 1.2757 3.6106 1.2757L2.58521 1.2757L2.24341 0.211246Q2.20435 0.0745271 2.08716 0.025699Q1.96997-0.0231291 1.8479 0.0208162Q1.72583 0.0647615 1.68677 0.211246L1.34497 1.2757L0.309814 1.2757Q0.153564 1.2757 0.0705566 1.37336Q-0.0124512 1.47101 0.00219727 1.60285Q0.0168457 1.73468 0.143799 1.83234L0.973877 2.44757L0.651611 3.44367Q0.593018 3.60968 0.661377 3.72199Q0.729736 3.83429 0.861572 3.85871Q0.993408 3.88312 1.13013 3.7757ZM1.13013 9.66437L1.96997 9.04914L2.78052 9.66437Q2.927 9.77179 3.06372 9.74738Q3.20044 9.72296 3.2688 9.61066Q3.33716 9.49836 3.27856 9.33234L2.9563 8.33625L3.77661 7.72101Q3.90356 7.62336 3.91821 7.4964Q3.93286 7.36945 3.84985 7.27179Q3.76685 7.17414 3.6106 7.17414L2.58521 7.17414L2.24341 6.09992Q2.20435 5.9632 2.08716 5.91437Q1.96997 5.86554 1.8479 5.91437Q1.72583 5.9632 1.68677 6.09992L1.34497 7.17414L0.309814 7.17414Q0.153564 7.17414 0.0705566 7.27179Q-0.0124512 7.36945 0.00219727 7.4964Q0.0168457 7.62336 0.143799 7.72101L0.973877 8.33625L0.651611 9.33234Q0.593018 9.49836 0.661377 9.61066Q0.729736 9.72296 0.861572 9.74738Q0.993408 9.77179 1.13013 9.66437ZM1.13013 15.5823L1.96997 14.9671L2.78052 15.5823Q2.927 15.6898 3.06372 15.6653Q3.20044 15.6409 3.2688 15.5286Q3.33716 15.4163 3.27856 15.2503L2.9563 14.2542L3.77661 13.639Q3.90356 13.5413 3.91821 13.4095Q3.93286 13.2777 3.84985 13.1849Q3.76685 13.0921 3.6106 13.0921L2.58521 13.0921L2.24341 12.0179Q2.20435 11.8812 2.08716 11.8323Q1.96997 11.7835 1.8479 11.8323Q1.72583 11.8812 1.68677 12.0179L1.34497 13.0921L0.309814 13.0921Q0.153564 13.0921 0.0705566 13.1849Q-0.0124512 13.2777 0.00219727 13.4095Q0.0168457 13.5413 0.143799 13.639L0.973877 14.2542L0.651611 15.2503Q0.593018 15.4163 0.661377 15.5286Q0.729736 15.6409 0.861572 15.6653Q0.993408 15.6898 1.13013 15.5823Z" fill="#ffffff"/>
 </g>
</svg>
