<?xml version="1.0" encoding="UTF-8"?>
<!--Generator: Apple Native CoreSVG 175.5-->
<!DOCTYPE svg
PUBLIC "-//W3C//DTD SVG 1.1//EN"
       "http://www.w3.org/Graphics/SVG/1.1/DTD/svg11.dtd">
<svg version="1.1" xmlns="http://www.w3.org/2000/svg" xmlns:xlink="http://www.w3.org/1999/xlink" width="18.6917" height="18.5549">
 <g>
  <rect height="18.5549" opacity="0" width="18.6917" x="0" y="0"/>
  <path d="M5.04408 5.59092L0.805804 7.56358Q0.424944 7.73936 0.229632 8.02256Q0.0343192 8.30577 0.00502232 8.63292Q-0.0242746 8.96006 0.117327 9.24815Q0.258929 9.53624 0.551897 9.7169Q0.844866 9.89756 1.29408 9.90733L8.41323 9.93663Q8.52065 9.93663 8.56459 9.98057Q8.60854 10.0245 8.60854 10.1319L8.62807 17.1925Q8.62807 17.6319 8.80873 17.9249Q8.9894 18.2179 9.28237 18.3595Q9.57533 18.5011 9.90737 18.4669Q10.2394 18.4327 10.5372 18.213Q10.8351 17.9933 11.0304 17.5733L12.9347 13.4913ZM14.6535 9.77061L18.2472 2.05577Q18.4914 1.51866 18.4328 1.09874Q18.3742 0.678815 18.0861 0.420026Q17.798 0.161237 17.3634 0.122174Q16.9289 0.0831117 16.4113 0.327252L8.75502 3.88194Z" fill="#ffffff"/>
  <path d="M17.4171 16.3233Q17.632 16.5382 17.9494 16.5382Q18.2667 16.5382 18.4816 16.3233Q18.6867 16.0987 18.6915 15.7911Q18.6964 15.4835 18.4816 15.2589L3.44252 0.21983Q3.22768 0.0049867 2.9103 0.00010389Q2.59291-0.00477892 2.3683 0.21983Q2.15346 0.434674 2.15346 0.752057Q2.15346 1.06944 2.3683 1.28428Z" fill="#ffffff"/>
 </g>
</svg>
