<?xml version="1.0" encoding="UTF-8"?>
<!--Generator: Apple Native CoreSVG 175-->
<!DOCTYPE svg
PUBLIC "-//W3C//DTD SVG 1.1//EN"
       "http://www.w3.org/Graphics/SVG/1.1/DTD/svg11.dtd">
<svg version="1.1" xmlns="http://www.w3.org/2000/svg" xmlns:xlink="http://www.w3.org/1999/xlink" width="17.2852" height="17.3145">
 <g>
  <rect height="17.3145" opacity="0" width="17.2852" x="0" y="0"/>
  <path d="M2.62695 17.3145L14.6484 17.3145Q15.957 17.3145 16.6211 16.6455Q17.2852 15.9766 17.2852 14.6875L17.2852 2.65625Q17.2852 1.37695 16.6211 0.703125Q15.957 0.0292969 14.6484 0.0292969L2.62695 0.0292969Q1.33789 0.0292969 0.668945 0.693359Q0 1.35742 0 2.65625L0 14.6875Q0 15.9863 0.668945 16.6504Q1.33789 17.3145 2.62695 17.3145ZM3.29102 9.15039Q3.06641 9.15039 2.96387 9.00879Q2.86133 8.86719 2.90039 8.69141Q2.93945 8.51562 3.14453 8.41797L13.0762 3.75Q13.3008 3.64258 13.4863 3.70117Q13.6719 3.75977 13.7402 3.93555Q13.8086 4.11133 13.6914 4.35547L9.01367 14.2773Q8.92578 14.4531 8.74512 14.4971Q8.56445 14.541 8.41797 14.4434Q8.27148 14.3457 8.27148 14.1016L8.26172 9.28711Q8.26172 9.16016 8.14453 9.16016Z" fill="#ffffff"/>
 </g>
</svg>
