<?xml version="1.0" encoding="UTF-8"?>
<!--Generator: Apple Native CoreSVG 175-->
<!DOCTYPE svg
PUBLIC "-//W3C//DTD SVG 1.1//EN"
       "http://www.w3.org/Graphics/SVG/1.1/DTD/svg11.dtd">
<svg version="1.1" xmlns="http://www.w3.org/2000/svg" xmlns:xlink="http://www.w3.org/1999/xlink" width="18.2852" height="18.2657">
 <g>
  <rect height="18.2657" opacity="0" width="18.2852" x="0" y="0"/>
  <path d="M0.700884 9.29168L8.86769 9.30694Q8.93285 9.30694 8.96977 9.34379Q9.0067 9.38064 9.0067 9.44595L9.01921 17.5612Q9.01921 17.8108 9.12251 17.9737Q9.22582 18.1366 9.3887 18.2078Q9.55159 18.2791 9.73248 18.2626Q9.91338 18.246 10.0741 18.1352Q10.2349 18.0244 10.3318 17.8224L18.1603 1.20101Q18.313 0.881951 18.279 0.634225Q18.245 0.386498 18.0764 0.240243Q17.9079 0.0939874 17.6561 0.0724725Q17.4044 0.0509576 17.1117 0.18966L0.458727 7.98843Q0.239611 8.09402 0.128679 8.25416Q0.017748 8.4143 0.0024892 8.59382Q-0.0127696 8.77334 0.065508 8.93134Q0.143786 9.08935 0.303164 9.18914Q0.462542 9.28893 0.700884 9.29168Z" fill="rgba(0,0,0,0.85)"/>
 </g>
</svg>
