<?xml version="1.0" encoding="UTF-8"?>
<!--Generator: Apple Native CoreSVG 175.5-->
<!DOCTYPE svg
PUBLIC "-//W3C//DTD SVG 1.1//EN"
       "http://www.w3.org/Graphics/SVG/1.1/DTD/svg11.dtd">
<svg version="1.1" xmlns="http://www.w3.org/2000/svg" xmlns:xlink="http://www.w3.org/1999/xlink" width="28.1641" height="15.9082">
 <g>
  <rect height="15.9082" opacity="0" width="28.1641" x="0" y="0"/>
  <path d="M0 14.7949Q0 15.2539 0.322266 15.5811Q0.644531 15.9082 1.10352 15.9082L27.0605 15.9082Q27.5195 15.9082 27.8418 15.5811Q28.1641 15.2539 28.1641 14.7949Q28.1641 14.3359 27.8418 14.0088Q27.5195 13.6816 27.0605 13.6816L24.9219 13.6816L24.9219 2.08984Q24.9219 1.06445 24.3896 0.541992Q23.8574 0.0195312 22.832 0.0195312L5.33203 0.0195312Q4.36523 0.0195312 3.80371 0.541992Q3.24219 1.06445 3.24219 2.08984L3.24219 13.6816L1.10352 13.6816Q0.644531 13.6816 0.322266 14.0088Q0 14.3359 0 14.7949ZM4.81445 13.6816L4.81445 2.5293Q4.81445 2.06055 5.04883 1.82617Q5.2832 1.5918 5.75195 1.5918L22.4121 1.5918Q22.8809 1.5918 23.1152 1.82617Q23.3496 2.06055 23.3496 2.5293L23.3496 13.6816Z" fill="#ffffff"/>
  <path d="M10.584 10.214Q10.584 11.0519 11.3789 11.0519L14.6874 11.0519Q15.4823 11.0519 15.4823 10.214L15.4823 7.66814Q15.4823 6.84101 14.6874 6.84101L11.3789 6.84101Q10.584 6.84101 10.584 7.66814ZM13.9354 7.41034L14.9022 7.41034L14.9022 6.01388Q14.9022 5.47678 15.1815 5.15453Q15.4608 4.83227 15.9549 4.83227Q16.4491 4.83227 16.7283 5.15453Q17.0076 5.47678 17.0076 6.01388L17.0076 6.70137Q17.0076 6.90546 17.1473 7.05048Q17.2869 7.1955 17.491 7.1955Q17.6844 7.1955 17.8294 7.05048Q17.9744 6.90546 17.9744 6.70137L17.9744 6.01388Q17.9744 5.09007 17.4212 4.48853Q16.868 3.88698 15.9549 3.88698Q15.0419 3.88698 14.4887 4.49927Q13.9354 5.11156 13.9354 6.09982Z" fill="#ffffff"/>
 </g>
</svg>
