<?xml version="1.0" encoding="UTF-8"?>
<!--Generator: Apple Native CoreSVG 175.5-->
<!DOCTYPE svg
PUBLIC "-//W3C//DTD SVG 1.1//EN"
       "http://www.w3.org/Graphics/SVG/1.1/DTD/svg11.dtd">
<svg version="1.1" xmlns="http://www.w3.org/2000/svg" xmlns:xlink="http://www.w3.org/1999/xlink" width="20.459" height="21.6504">
 <g>
  <rect height="21.6504" opacity="0" width="20.459" x="0" y="0"/>
  <path d="M3.06641 21.6211L17.3926 21.6211Q18.916 21.6211 19.6875 20.8594Q20.459 20.0977 20.459 18.5938L20.459 8.56445Q20.459 7.06055 19.6875 6.29883Q18.916 5.53711 17.3926 5.53711L3.06641 5.53711Q1.5332 5.53711 0.766602 6.29395Q0 7.05078 0 8.56445L0 18.5938Q0 20.1074 0.766602 20.8643Q1.5332 21.6211 3.06641 21.6211ZM3.08594 20.0488Q2.35352 20.0488 1.96289 19.6582Q1.57227 19.2676 1.57227 18.5059L1.57227 8.65234Q1.57227 7.89062 1.96289 7.5Q2.35352 7.10938 3.08594 7.10938L17.3633 7.10938Q18.0859 7.10938 18.4863 7.5Q18.8867 7.89062 18.8867 8.65234L18.8867 18.5059Q18.8867 19.2676 18.4863 19.6582Q18.0859 20.0488 17.3633 20.0488ZM2.06055 3.96484L18.4082 3.96484Q18.291 3.30078 17.9443 2.94434Q17.5977 2.58789 16.8652 2.58789L3.60352 2.58789Q2.87109 2.58789 2.51953 2.94434Q2.16797 3.30078 2.06055 3.96484ZM4.07227 1.25977L16.3965 1.25977Q16.3477 0.634766 15.9912 0.317383Q15.6348 0 14.9609 0L5.49805 0Q4.82422 0 4.46777 0.317383Q4.11133 0.634766 4.07227 1.25977Z" fill="#ffffff"/>
  <path d="M6.70898 17.4316Q6.70898 18.5059 7.70508 18.5059L12.7637 18.5059Q13.7695 18.5059 13.7695 17.4316L13.7695 13.5449Q13.7695 12.5391 12.9004 12.4805L12.9004 11.3281Q12.9004 9.98047 12.1631 9.15039Q11.4258 8.32031 10.2344 8.32031Q9.04297 8.32031 8.30566 9.15039Q7.56836 9.98047 7.56836 11.3281L7.56836 12.4805Q6.70898 12.5391 6.70898 13.5449ZM8.58398 12.4707L8.58398 11.2207Q8.58398 10.3613 9.03809 9.83398Q9.49219 9.30664 10.2344 9.30664Q10.9766 9.30664 11.4307 9.83398Q11.8848 10.3613 11.8848 11.2207L11.8848 12.4707Z" fill="#ffffff"/>
 </g>
</svg>
