<?xml version="1.0" encoding="UTF-8"?>
<!--Generator: Apple Native CoreSVG 175.5-->
<!DOCTYPE svg
PUBLIC "-//W3C//DTD SVG 1.1//EN"
       "http://www.w3.org/Graphics/SVG/1.1/DTD/svg11.dtd">
<svg version="1.1" xmlns="http://www.w3.org/2000/svg" xmlns:xlink="http://www.w3.org/1999/xlink" width="20.0684" height="21.2402">
 <g>
  <rect height="21.2402" opacity="0" width="20.0684" x="0" y="0"/>
  <path d="M2.96875 21.2305L17.0996 21.2305Q18.5742 21.2305 19.3213 20.4883Q20.0684 19.7461 20.0684 18.291L20.0684 8.4668Q20.0684 7.01172 19.3213 6.27441Q18.5742 5.53711 17.0996 5.53711L2.96875 5.53711Q1.48438 5.53711 0.742188 6.27441Q0 7.01172 0 8.4668L0 18.291Q0 19.7559 0.742188 20.4932Q1.48438 21.2305 2.96875 21.2305ZM1.86523 3.96484L18.2129 3.96484Q18.0957 3.30078 17.749 2.94434Q17.4023 2.58789 16.6699 2.58789L3.4082 2.58789Q2.67578 2.58789 2.32422 2.94434Q1.97266 3.30078 1.86523 3.96484ZM3.87695 1.25977L16.2012 1.25977Q16.1523 0.634766 15.8008 0.317383Q15.4492 0 14.7656 0L5.30273 0Q4.62891 0 4.27246 0.317383Q3.91602 0.634766 3.87695 1.25977Z" fill="#ffffff"/>
  <path d="M6.40625 17.3633L6.40625 13.3594Q6.40625 12.3145 7.28516 12.2559L7.28516 11.0742Q7.28516 9.67773 8.04688 8.82812Q8.80859 7.97852 10.0391 7.97852Q11.2695 7.97852 12.0312 8.82812Q12.793 9.67773 12.793 11.0742L12.793 12.2559Q13.6816 12.3145 13.6816 13.3594L13.6816 17.3633Q13.6816 18.4668 12.6465 18.4668L7.43164 18.4668Q6.40625 18.4668 6.40625 17.3633ZM8.33984 12.2461L11.7383 12.2461L11.7383 10.957Q11.7383 10.0781 11.2744 9.53613Q10.8105 8.99414 10.0391 8.99414Q9.27734 8.99414 8.80859 9.53613Q8.33984 10.0781 8.33984 10.957Z" fill="none"/>
 </g>
</svg>
