<?xml version="1.0" encoding="UTF-8"?>
<!--Generator: Apple Native CoreSVG 175-->
<!DOCTYPE svg
PUBLIC "-//W3C//DTD SVG 1.1//EN"
       "http://www.w3.org/Graphics/SVG/1.1/DTD/svg11.dtd">
<svg version="1.1" xmlns="http://www.w3.org/2000/svg" xmlns:xlink="http://www.w3.org/1999/xlink" width="17.134" height="20.4395">
 <g>
  <rect height="20.4395" opacity="0" width="17.134" x="0" y="0"/>
  <path d="M3.74023 19.4824L13.0859 19.4824Q13.7109 19.4824 14.1504 19.2676L13.6035 18.7109Q13.4766 18.7598 13.3301 18.7793Q13.1836 18.7988 13.0176 18.7988L3.7207 18.7988Q3.125 18.7988 2.85156 18.5303Q2.57812 18.2617 2.57812 17.5195L2.57812 10.1367Q2.57812 9.41406 2.8418 9.13574Q3.10547 8.85742 3.67188 8.85742Q3.68164 8.85742 3.70117 8.85742Q3.7207 8.85742 3.73047 8.85742L3.125 8.23242Q1.8457 8.51562 1.8457 10.1758L1.8457 17.4707Q1.8457 18.5254 2.31934 19.0039Q2.79297 19.4824 3.74023 19.4824ZM8.41797 0.820312Q7.12891 0.820312 6.11816 1.37207Q5.10742 1.92383 4.4873 2.91016Q3.86719 3.89648 3.73047 5.22461L4.375 5.87891Q4.4043 4.55078 4.92188 3.56934Q5.43945 2.58789 6.33789 2.05566Q7.23633 1.52344 8.41797 1.52344Q9.59961 1.52344 10.5176 2.0752Q11.4355 2.62695 11.9531 3.62305Q12.4707 4.61914 12.4707 5.95703L12.4707 8.17383L6.67969 8.17383L7.36328 8.85742L13.1152 8.85742Q13.7012 8.85742 13.9795 9.12598Q14.2578 9.39453 14.2578 10.1367L14.2578 15.752L14.9805 16.4941L14.9805 10.1758Q14.9805 9.16016 14.5361 8.68652Q14.0918 8.21289 13.1836 8.18359L13.1836 5.95703Q13.1836 4.78516 12.8369 3.84277Q12.4902 2.90039 11.8457 2.22656Q11.2012 1.55273 10.3271 1.18652Q9.45312 0.820312 8.41797 0.820312ZM16.5137 20.332Q16.6211 20.4395 16.7725 20.4395Q16.9238 20.4395 17.0215 20.332Q17.1387 20.2148 17.1338 20.0732Q17.1289 19.9316 17.0215 19.8242L0.625 3.41797Q0.517578 3.32031 0.371094 3.31543Q0.224609 3.31055 0.107422 3.41797Q0 3.52539 0 3.67676Q0 3.82812 0.107422 3.92578Z" fill="#ffffff"/>
 </g>
</svg>
