<?xml version="1.0" encoding="UTF-8"?>
<!--Generator: Apple Native CoreSVG 175.5-->
<!DOCTYPE svg
PUBLIC "-//W3C//DTD SVG 1.1//EN"
       "http://www.w3.org/Graphics/SVG/1.1/DTD/svg11.dtd">
<svg version="1.1" xmlns="http://www.w3.org/2000/svg" xmlns:xlink="http://www.w3.org/1999/xlink" width="16.2305" height="20.2441">
 <g>
  <rect height="20.2441" opacity="0" width="16.2305" x="0" y="0"/>
  <path d="M8.11523 20.2441Q8.23242 20.2441 8.4082 20.1953Q8.58398 20.1465 8.76953 20.0488Q10.8594 18.877 12.29 17.9736Q13.7207 17.0703 14.5898 16.2207Q15.459 15.3711 15.8447 14.3799Q16.2305 13.3887 16.2305 12.0508L16.2305 4.58008Q16.2305 3.80859 15.9082 3.47656Q15.5859 3.14453 14.9609 2.88086Q14.6191 2.73438 14.0137 2.50488Q13.4082 2.27539 12.6807 2.00684Q11.9531 1.73828 11.2207 1.47461Q10.4883 1.21094 9.88281 0.996094Q9.27734 0.78125 8.93555 0.664062Q8.74023 0.605469 8.53027 0.561523Q8.32031 0.517578 8.11523 0.517578Q7.91016 0.517578 7.70508 0.566406Q7.5 0.615234 7.30469 0.664062Q6.95312 0.761719 6.34766 0.97168Q5.74219 1.18164 5.01465 1.4502Q4.28711 1.71875 3.55469 1.99219Q2.82227 2.26562 2.2168 2.5Q1.61133 2.73438 1.26953 2.88086Q0.654297 3.13477 0.327148 3.47168Q0 3.80859 0 4.58008L0 12.0508Q0 13.3887 0.390625 14.375Q0.78125 15.3613 1.65039 16.2109Q2.51953 17.0605 3.9502 17.9688Q5.38086 18.877 7.46094 20.0488Q7.64648 20.1465 7.82227 20.1953Q7.99805 20.2441 8.11523 20.2441ZM8.11523 18.4766Q7.99805 18.4766 7.86133 18.4229Q7.72461 18.3691 7.50977 18.2422Q5.82031 17.2168 4.67285 16.4795Q3.52539 15.7422 2.8418 15.0732Q2.1582 14.4043 1.85547 13.6133Q1.55273 12.8223 1.55273 11.6895L1.55273 4.88281Q1.55273 4.63867 1.61621 4.5166Q1.67969 4.39453 1.88477 4.31641Q2.32422 4.14062 2.91016 3.92578Q3.49609 3.71094 4.15039 3.47656Q4.80469 3.24219 5.45898 3.0127Q6.11328 2.7832 6.69922 2.56836Q7.28516 2.35352 7.72461 2.17773Q7.8418 2.12891 7.93945 2.10938Q8.03711 2.08984 8.11523 2.08984Q8.19336 2.08984 8.29102 2.10938Q8.38867 2.12891 8.50586 2.17773Q8.94531 2.35352 9.53125 2.57324Q10.1172 2.79297 10.7666 3.03223Q11.416 3.27148 12.0654 3.50586Q12.7148 3.74023 13.3057 3.9502Q13.8965 4.16016 14.3555 4.31641Q14.5508 4.38477 14.6143 4.51172Q14.6777 4.63867 14.6777 4.88281L14.6777 11.6895Q14.6777 12.8223 14.3799 13.6133Q14.082 14.4043 13.3936 15.0684Q12.7051 15.7324 11.5576 16.4746Q10.4102 17.2168 8.7207 18.2422Q8.50586 18.3691 8.36914 18.4229Q8.23242 18.4766 8.11523 18.4766Z" fill="#ffffff"/>
  <path d="M4.58984 13.7598Q4.58984 14.834 5.58594 14.834L10.6445 14.834Q11.6504 14.834 11.6504 13.7598L11.6504 9.87305Q11.6504 8.86719 10.7812 8.80859L10.7812 7.65625Q10.7812 6.30859 10.0439 5.47852Q9.30664 4.64844 8.11523 4.64844Q6.92383 4.64844 6.18652 5.47852Q5.44922 6.30859 5.44922 7.65625L5.44922 8.80859Q4.58984 8.86719 4.58984 9.87305ZM6.46484 8.79883L6.46484 7.54883Q6.46484 6.68945 6.91895 6.16211Q7.37305 5.63477 8.11523 5.63477Q8.85742 5.63477 9.31152 6.16211Q9.76562 6.68945 9.76562 7.54883L9.76562 8.79883Z" fill="#ffffff"/>
 </g>
</svg>
