<?xml version="1.0" encoding="UTF-8"?>
<!--Generator: Apple Native CoreSVG 175.5-->
<!DOCTYPE svg
PUBLIC "-//W3C//DTD SVG 1.1//EN"
       "http://www.w3.org/Graphics/SVG/1.1/DTD/svg11.dtd">
<svg version="1.1" xmlns="http://www.w3.org/2000/svg" xmlns:xlink="http://www.w3.org/1999/xlink" width="19.9219" height="19.9316">
 <g>
  <rect height="19.9316" opacity="0" width="19.9219" x="0" y="0"/>
  <path d="M9.96094 19.9316Q12.002 19.9316 13.8037 19.1504Q15.6055 18.3691 16.9824 16.9922Q18.3594 15.6152 19.1406 13.8135Q19.9219 12.0117 19.9219 9.9707Q19.9219 7.92969 19.1406 6.12793Q18.3594 4.32617 16.9824 2.94922Q15.6055 1.57227 13.7988 0.791016Q11.9922 0.00976562 9.95117 0.00976562Q7.91016 0.00976562 6.1084 0.791016Q4.30664 1.57227 2.93457 2.94922Q1.5625 4.32617 0.78125 6.12793Q0 7.92969 0 9.9707Q0 12.0117 0.78125 13.8135Q1.5625 15.6152 2.93945 16.9922Q4.31641 18.3691 6.11816 19.1504Q7.91992 19.9316 9.96094 19.9316Z" fill="#ffffff"/>
  <path d="M6.32812 13.9551L6.32812 9.95117Q6.32812 8.90625 7.20703 8.84766L7.20703 7.66602Q7.20703 6.26953 7.96875 5.41992Q8.73047 4.57031 9.96094 4.57031Q11.1914 4.57031 11.9531 5.41992Q12.7148 6.26953 12.7148 7.66602L12.7148 8.84766Q13.6035 8.90625 13.6035 9.95117L13.6035 13.9551Q13.6035 15.0586 12.5684 15.0586L7.35352 15.0586Q6.32812 15.0586 6.32812 13.9551ZM8.26172 8.83789L11.6602 8.83789L11.6602 7.54883Q11.6602 6.66992 11.1963 6.12793Q10.7324 5.58594 9.96094 5.58594Q9.19922 5.58594 8.73047 6.12793Q8.26172 6.66992 8.26172 7.54883Z" fill="none"/>
 </g>
</svg>
