<?xml version="1.0" encoding="UTF-8"?>
<!--Generator: Apple Native CoreSVG 175.5-->
<!DOCTYPE svg
PUBLIC "-//W3C//DTD SVG 1.1//EN"
       "http://www.w3.org/Graphics/SVG/1.1/DTD/svg11.dtd">
<svg version="1.1" xmlns="http://www.w3.org/2000/svg" xmlns:xlink="http://www.w3.org/1999/xlink" width="24.2969" height="19.7949">
 <g>
  <rect height="19.7949" opacity="0" width="24.2969" x="0" y="0"/>
  <path d="M7.89062 19.7852L21.2305 19.7852Q22.7539 19.7852 23.5254 19.0283Q24.2969 18.2715 24.2969 16.7578L24.2969 7.54883Q24.2969 6.04492 23.5254 5.2832Q22.7539 4.52148 21.2305 4.52148L7.89062 4.52148Q6.35742 4.52148 5.59082 5.27832Q4.82422 6.03516 4.82422 7.54883L4.82422 16.7578Q4.82422 18.2715 5.59082 19.0283Q6.35742 19.7852 7.89062 19.7852ZM7.89062 3.19336L19.3652 3.19336L19.3652 3.02734Q19.3652 1.52344 18.5938 0.761719Q17.8223 0 16.2988 0L3.06641 0Q1.5332 0 0.766602 0.756836Q0 1.51367 0 3.02734L0 12.2363Q0 13.75 0.766602 14.5068Q1.5332 15.2637 3.06641 15.2637L3.48633 15.2637L3.48633 7.54883Q3.48633 6.17188 4.00879 5.19531Q4.53125 4.21875 5.5127 3.70605Q6.49414 3.19336 7.89062 3.19336Z" fill="#ffffff"/>
  <path d="M10.9277 16.1426L10.9277 12.1387Q10.9277 11.0938 11.8066 11.0352L11.8066 9.85352Q11.8066 8.45703 12.5684 7.60742Q13.3301 6.75781 14.5605 6.75781Q15.791 6.75781 16.5527 7.60742Q17.3145 8.45703 17.3145 9.85352L17.3145 11.0352Q18.2031 11.0938 18.2031 12.1387L18.2031 16.1426Q18.2031 17.2461 17.168 17.2461L11.9531 17.2461Q10.9277 17.2461 10.9277 16.1426ZM12.8613 11.0254L16.2598 11.0254L16.2598 9.73633Q16.2598 8.85742 15.7959 8.31543Q15.332 7.77344 14.5605 7.77344Q13.7988 7.77344 13.3301 8.31543Q12.8613 8.85742 12.8613 9.73633Z" fill="none"/>
 </g>
</svg>
