<?xml version="1.0" encoding="UTF-8"?>
<!--Generator: Apple Native CoreSVG 175.5-->
<!DOCTYPE svg
PUBLIC "-//W3C//DTD SVG 1.1//EN"
       "http://www.w3.org/Graphics/SVG/1.1/DTD/svg11.dtd">
<svg version="1.1" xmlns="http://www.w3.org/2000/svg" xmlns:xlink="http://www.w3.org/1999/xlink" width="16.4258" height="20.9473">
 <g>
  <rect height="20.9473" opacity="0" width="16.4258" x="0" y="0"/>
  <path d="M3.02734 20.9375L13.3984 20.9375Q14.9121 20.9375 15.6689 20.1709Q16.4258 19.4043 16.4258 17.8809L16.4258 9.01367L9.35547 9.01367Q7.50977 9.01367 7.50977 7.16797L7.50977 0L3.02734 0Q1.51367 0 0.756836 0.771484Q0 1.54297 0 3.06641L0 17.8809Q0 19.4141 0.756836 20.1758Q1.51367 20.9375 3.02734 20.9375ZM9.38477 7.67578L16.3086 7.67578Q16.2598 7.37305 16.0547 7.07031Q15.8496 6.76758 15.498 6.40625L10.1172 0.927734Q9.77539 0.576172 9.46289 0.366211Q9.15039 0.15625 8.84766 0.107422L8.84766 7.14844Q8.84766 7.67578 9.38477 7.67578Z" fill="#ffffff"/>
  <path d="M5.23438 17.959L5.23438 14.668Q5.23438 13.8184 5.95703 13.7695L5.95703 12.7832Q5.95703 11.6504 6.58203 10.9521Q7.20703 10.2539 8.22266 10.2539Q9.23828 10.2539 9.86328 10.9521Q10.4883 11.6504 10.4883 12.7832L10.4883 13.7695Q11.2207 13.8184 11.2207 14.668L11.2207 17.959Q11.2207 18.877 10.3613 18.877L6.08398 18.877Q5.23438 18.877 5.23438 17.959ZM6.82617 13.7598L9.61914 13.7598L9.61914 12.6953Q9.61914 11.9727 9.2334 11.5283Q8.84766 11.084 8.22266 11.084Q7.59766 11.084 7.21191 11.5283Q6.82617 11.9727 6.82617 12.6953Z" fill="none"/>
 </g>
</svg>
