<?xml version="1.0" encoding="UTF-8"?>
<!--Generator: Apple Native CoreSVG 175-->
<!DOCTYPE svg
PUBLIC "-//W3C//DTD SVG 1.1//EN"
       "http://www.w3.org/Graphics/SVG/1.1/DTD/svg11.dtd">
<svg version="1.1" xmlns="http://www.w3.org/2000/svg" xmlns:xlink="http://www.w3.org/1999/xlink" width="23.4766" height="18.5645">
 <g>
  <rect height="18.5645" opacity="0" width="23.4766" x="0" y="0"/>
  <path d="M2.62695 14.6582L4.6875 14.6582L4.6875 13.9355L2.65625 13.9355Q1.70898 13.9355 1.2207 13.4424Q0.732422 12.9492 0.732422 12.002L0.732422 2.68555Q0.732422 1.72852 1.2207 1.23535Q1.70898 0.742188 2.65625 0.742188L16.0352 0.742188Q16.9531 0.742188 17.4658 1.23535Q17.9785 1.72852 17.9785 2.68555L17.9785 4.22852L18.7012 4.22852L18.7012 2.64648Q18.7012 1.36719 18.0322 0.693359Q17.3633 0.0195312 16.0645 0.0195312L2.62695 0.0195312Q1.33789 0.0195312 0.668945 0.683594Q0 1.34766 0 2.64648L0 12.0312Q0 13.3203 0.668945 13.9893Q1.33789 14.6582 2.62695 14.6582ZM7.00195 18.5645L20.8398 18.5645Q22.1387 18.5645 22.8076 17.8906Q23.4766 17.2168 23.4766 15.9375L23.4766 6.54297Q23.4766 5.27344 22.8076 4.59473Q22.1387 3.91602 20.8398 3.91602L7.00195 3.91602Q5.69336 3.91602 5.02441 4.58496Q4.35547 5.25391 4.35547 6.54297L4.35547 15.9375Q4.35547 17.2266 5.02441 17.8955Q5.69336 18.5645 7.00195 18.5645ZM7.02148 17.832Q6.06445 17.832 5.57617 17.3486Q5.08789 16.8652 5.08789 15.8984L5.08789 6.58203Q5.08789 5.63477 5.57617 5.1416Q6.06445 4.64844 7.02148 4.64844L20.8203 4.64844Q21.7383 4.64844 22.2461 5.1416Q22.7539 5.63477 22.7539 6.58203L22.7539 15.8984Q22.7539 16.8652 22.2461 17.3486Q21.7383 17.832 20.8203 17.832ZM10.3613 15.166Q10.3613 16.3184 11.4355 16.3184L16.416 16.3184Q17.5 16.3184 17.5 15.166L17.5 11.1035Q17.5 9.98047 16.4453 9.96094L16.4453 8.57422Q16.4453 7.35352 15.752 6.60645Q15.0586 5.85938 13.9258 5.85938Q12.8027 5.85938 12.1045 6.60645Q11.4062 7.35352 11.4062 8.57422L11.4062 9.96094Q10.3613 9.98047 10.3613 11.1035ZM12.0215 9.96094L12.0215 8.55469Q12.0215 7.60742 12.5439 7.03613Q13.0664 6.46484 13.9258 6.46484Q14.7852 6.46484 15.3125 7.03613Q15.8398 7.60742 15.8398 8.55469L15.8398 9.96094Z" fill="rgba(0,0,0,0.85)"/>
 </g>
</svg>
