<?xml version="1.0" encoding="UTF-8"?>
<!--Generator: Apple Native CoreSVG 175.5-->
<!DOCTYPE svg
PUBLIC "-//W3C//DTD SVG 1.1//EN"
       "http://www.w3.org/Graphics/SVG/1.1/DTD/svg11.dtd">
<svg version="1.1" xmlns="http://www.w3.org/2000/svg" xmlns:xlink="http://www.w3.org/1999/xlink" width="21.8134" height="19.9316">
 <g>
  <rect height="19.9316" opacity="0" width="21.8134" x="0" y="0"/>
  <path d="M0 9.96094Q0 12.002 0.78125 13.8037Q1.5625 15.6055 2.93945 16.9824Q4.31641 18.3594 6.11816 19.1406Q7.91992 19.9219 9.96094 19.9219Q11.6016 19.9219 13.0957 19.3994Q14.5898 18.877 15.8447 17.9395Q17.0996 17.002 18.0176 15.752Q18.2715 15.4297 18.208 15.0781Q18.1445 14.7266 17.8516 14.541Q17.5391 14.3555 17.2217 14.4385Q16.9043 14.5215 16.6797 14.8242Q15.9277 15.8594 14.8926 16.6309Q13.8574 17.4023 12.6025 17.8271Q11.3477 18.252 9.96094 18.2617Q8.23242 18.2617 6.72852 17.6221Q5.22461 16.9824 4.08203 15.8398Q2.93945 14.6973 2.2998 13.1934Q1.66016 11.6895 1.66016 9.96094Q1.66016 8.23242 2.2998 6.72852Q2.93945 5.22461 4.08203 4.08691Q5.22461 2.94922 6.72852 2.30957Q8.23242 1.66992 9.96094 1.66992Q11.4453 1.66992 12.7734 2.14844Q14.1016 2.62695 15.1758 3.49121Q16.25 4.35547 16.9922 5.52246Q17.7344 6.68945 18.0469 8.07617L16.6406 8.07617Q16.123 8.07617 15.9912 8.38379Q15.8594 8.69141 16.1426 9.0918L18.3301 12.207Q18.5645 12.5391 18.877 12.5439Q19.1895 12.5488 19.4336 12.207L21.6113 9.10156Q21.9043 8.69141 21.7725 8.38379Q21.6406 8.07617 21.123 8.07617L19.7363 8.07617Q19.4043 6.36719 18.5156 4.89746Q17.627 3.42773 16.3184 2.32422Q15.0098 1.2207 13.3887 0.610352Q11.7676 0 9.96094 0Q7.91992 0 6.11816 0.78125Q4.31641 1.5625 2.93945 2.93945Q1.5625 4.31641 0.78125 6.11816Q0 7.91992 0 9.96094Z" fill="#ffffff"/>
  <path d="M7.5293 14.8926L12.5879 14.8926Q13.5938 14.8926 13.5938 13.8184L13.5938 9.94141Q13.5938 8.86719 12.5879 8.86719L8.4082 8.85742L8.4082 7.60742Q8.4082 6.74805 8.8623 6.2207Q9.31641 5.69336 10.0586 5.69336Q10.8008 5.69336 11.2549 6.15234Q11.709 6.61133 11.709 7.35352L11.709 7.58789Q11.709 7.82227 11.8604 7.9541Q12.0117 8.08594 12.2363 8.08594Q12.4512 8.08594 12.5879 7.9541Q12.7246 7.82227 12.7246 7.58789L12.7246 7.35352Q12.7246 6.16211 11.9922 5.43457Q11.2598 4.70703 10.0586 4.70703Q8.86719 4.70703 8.12988 5.53711Q7.39258 6.36719 7.39258 7.71484L7.39258 8.86719Q6.5332 8.92578 6.5332 9.93164L6.5332 13.8184Q6.5332 14.8926 7.5293 14.8926Z" fill="#ffffff"/>
 </g>
</svg>
