<?xml version="1.0" encoding="UTF-8"?>
<!--Generator: Apple Native CoreSVG 175.5-->
<!DOCTYPE svg
PUBLIC "-//W3C//DTD SVG 1.1//EN"
       "http://www.w3.org/Graphics/SVG/1.1/DTD/svg11.dtd">
<svg version="1.1" xmlns="http://www.w3.org/2000/svg" xmlns:xlink="http://www.w3.org/1999/xlink" width="16.3184" height="22.0215">
 <g>
  <rect height="22.0215" opacity="0" width="16.3184" x="0" y="0"/>
  <path d="M0 19.4238Q0 20.5762 0.74707 21.2891Q1.49414 22.002 2.70508 22.002L13.6133 22.002Q14.8242 22.002 15.5713 21.2891Q16.3184 20.5762 16.3184 19.4238L16.3184 2.58789Q16.3184 1.42578 15.5713 0.712891Q14.8242 0 13.6133 0L2.70508 0Q1.49414 0 0.74707 0.712891Q0 1.42578 0 2.58789ZM1.57227 19.1602L1.57227 2.85156Q1.57227 2.24609 1.92383 1.90918Q2.27539 1.57227 2.90039 1.57227L13.418 1.57227Q14.043 1.57227 14.3945 1.90918Q14.7461 2.24609 14.7461 2.85156L14.7461 19.1602Q14.7461 19.7559 14.3945 20.0928Q14.043 20.4297 13.418 20.4297L2.90039 20.4297Q2.27539 20.4297 1.92383 20.0928Q1.57227 19.7559 1.57227 19.1602Z" fill="#ffffff"/>
  <path d="M4.65622 13.4855Q4.65622 14.3233 5.45112 14.3233L8.75964 14.3233Q9.55455 14.3233 9.55455 13.4855L9.55455 10.9396Q9.55455 10.1125 8.75964 10.1125L5.45112 10.1125Q4.65622 10.1125 4.65622 10.9396ZM8.00771 10.6818L8.97448 10.6818L8.97448 9.28537Q8.97448 8.74827 9.25377 8.42601Q9.53306 8.10375 10.0272 8.10375Q10.5213 8.10375 10.8006 8.42601Q11.0799 8.74827 11.0799 9.28537L11.0799 9.97285Q11.0799 10.1769 11.2196 10.322Q11.3592 10.467 11.5633 10.467Q11.7566 10.467 11.9017 10.322Q12.0467 10.1769 12.0467 9.97285L12.0467 9.28537Q12.0467 8.36156 11.4935 7.76001Q10.9403 7.15846 10.0272 7.15846Q9.11413 7.15846 8.56092 7.77075Q8.00771 8.38304 8.00771 9.3713Z" fill="#ffffff"/>
 </g>
</svg>
