<?xml version="1.0" encoding="UTF-8"?>
<!--Generator: Apple Native CoreSVG 175.5-->
<!DOCTYPE svg
PUBLIC "-//W3C//DTD SVG 1.1//EN"
       "http://www.w3.org/Graphics/SVG/1.1/DTD/svg11.dtd">
<svg version="1.1" xmlns="http://www.w3.org/2000/svg" xmlns:xlink="http://www.w3.org/1999/xlink" width="19.9609" height="19.6191">
 <g>
  <rect height="19.6191" opacity="0" width="19.9609" x="0" y="0"/>
  <path d="M1.875 19.0527L11.1719 19.0527Q12.1191 19.0527 12.583 18.5693Q13.0469 18.0859 13.0469 17.0605L13.0469 9.89258Q13.0469 8.87695 12.583 8.39355Q12.1191 7.91016 11.1719 7.91016L2.07031 7.92969Q1.13281 7.92969 0.566406 8.4082Q0 8.88672 0 9.89258L0 17.0605Q0 18.0859 0.46875 18.5693Q0.9375 19.0527 1.875 19.0527ZM10.0293 8.56445L11.6016 8.56445L11.6016 5.25391Q11.6016 4.02344 12.0703 3.18848Q12.5391 2.35352 13.3105 1.92871Q14.082 1.50391 15 1.50391Q15.9082 1.50391 16.6846 1.92871Q17.4609 2.35352 17.9248 3.18848Q18.3887 4.02344 18.3887 5.25391L18.3887 7.42188Q18.3887 7.87109 18.623 8.09082Q18.8574 8.31055 19.1895 8.31055Q19.5117 8.31055 19.7363 8.10059Q19.9609 7.89062 19.9609 7.42188L19.9609 5.45898Q19.9609 4.08203 19.5508 3.05664Q19.1406 2.03125 18.4375 1.35254Q17.7344 0.673828 16.8457 0.336914Q15.957 0 15 0Q14.043 0 13.1494 0.336914Q12.2559 0.673828 11.5527 1.35254Q10.8496 2.03125 10.4395 3.05664Q10.0293 4.08203 10.0293 5.45898Z" fill="#ffffff"/>
 </g>
</svg>
