<?xml version="1.0" encoding="UTF-8"?>
<!--Generator: Apple Native CoreSVG 175-->
<!DOCTYPE svg
PUBLIC "-//W3C//DTD SVG 1.1//EN"
       "http://www.w3.org/Graphics/SVG/1.1/DTD/svg11.dtd">
<svg version="1.1" xmlns="http://www.w3.org/2000/svg" xmlns:xlink="http://www.w3.org/1999/xlink" width="17.0216" height="18.0011">
 <g>
  <rect height="18.0011" opacity="0" width="17.0216" x="0" y="0"/>
  <path d="M0.213857 12.507Q-0.198588 13.7367 0.184408 14.7475Q0.567404 15.7582 1.65864 16.4838Q2.74987 17.2093 4.48227 17.6052Q6.21468 18.0011 8.51082 18.0011Q10.7999 18.0011 12.5324 17.6052Q14.2648 17.2093 15.3595 16.4838Q16.4542 15.7582 16.8372 14.7475Q17.2202 13.7367 16.8078 12.507L14.7187 6.19247L14.7187 2.58942Q14.7187 1.9754 13.9497 1.4621Q13.1808 0.948792 11.7843 0.640182Q10.3878 0.331573 8.51082 0.331573Q6.63659 0.331573 5.24361 0.640182Q3.85064 0.948792 3.07953 1.4621Q2.30843 1.9754 2.30843 2.58942L2.30843 6.16043ZM0.892416 12.7492L2.72805 7.23312Q3.31246 8.02536 4.82529 8.46817Q6.33813 8.91098 8.51082 8.91098Q9.87877 8.91098 11.0374 8.71193Q12.196 8.51288 13.0387 8.13354Q13.8815 7.75421 14.2893 7.22183L16.1222 12.7492Q16.5745 14.0984 15.7747 15.1122Q14.9749 16.1261 13.1159 16.6945Q11.2569 17.2629 8.51082 17.2629Q5.75768 17.2629 3.8987 16.6945Q2.03972 16.1261 1.24482 15.1122Q0.449911 14.0984 0.892416 12.7492ZM3.03704 2.58942Q3.03704 2.21359 3.72178 1.85524Q4.40651 1.49689 5.63637 1.26839Q6.86623 1.03989 8.51082 1.03989Q10.1554 1.03989 11.3902 1.26839Q12.6249 1.49689 13.311 1.85524Q13.9971 2.21359 13.9971 2.58942Q13.9971 2.96524 13.311 3.31871Q12.6249 3.67218 11.3902 3.90556Q10.1554 4.13895 8.51082 4.13895Q6.86623 4.13895 5.63637 3.90556Q4.40651 3.67218 3.72178 3.31871Q3.03704 2.96524 3.03704 2.58942Z" fill="rgba(0,0,0,0.85)"/>
 </g>
</svg>
