<?xml version="1.0" encoding="UTF-8"?>
<!--Generator: Apple Native CoreSVG 175.5-->
<!DOCTYPE svg
PUBLIC "-//W3C//DTD SVG 1.1//EN"
       "http://www.w3.org/Graphics/SVG/1.1/DTD/svg11.dtd">
<svg version="1.1" xmlns="http://www.w3.org/2000/svg" xmlns:xlink="http://www.w3.org/1999/xlink" width="23.6133" height="17.998">
 <g>
  <rect height="17.998" opacity="0" width="23.6133" x="0" y="0"/>
  <path d="M8.39844 0.0195312Q5.48828 0.0195312 3.63281 0.913086Q1.77734 1.80664 0.888672 3.61328Q0 5.41992 0 8.1543L0 14.9707Q0 16.4844 0.766602 17.2412Q1.5332 17.998 3.06641 17.998L20.5469 17.998Q22.0801 17.998 22.8467 17.2412Q23.6133 16.4844 23.6133 14.9707L23.6133 8.1543Q23.6133 5.41992 22.7295 3.61328Q21.8457 1.80664 19.9854 0.913086Q18.125 0.0195312 15.2246 0.0195312ZM8.39844 1.61133L15.2148 1.61133Q17.5879 1.61133 19.0967 2.30957Q20.6055 3.00781 21.3232 4.44336Q22.041 5.87891 22.041 8.06641L22.041 14.8926Q22.041 15.6543 21.6455 16.04Q21.25 16.4258 20.5273 16.4258L3.08594 16.4258Q1.57227 16.4258 1.57227 14.8926L1.57227 8.06641Q1.57227 5.87891 2.29004 4.44336Q3.00781 3.00781 4.5166 2.30957Q6.02539 1.61133 8.39844 1.61133Z" fill="#ffffff"/>
  <path d="M6.62109 13.3984L11.1133 13.3984Q11.3965 13.3984 11.582 13.2275Q11.7676 13.0566 11.7676 12.7637Q11.7676 12.4609 11.582 12.29Q11.3965 12.1191 11.1133 12.1191L7.41211 12.1191L7.41211 5.26367Q7.41211 4.86328 7.20703 4.62402Q7.00195 4.38477 6.62109 4.38477Q6.24023 4.38477 6.04492 4.62891Q5.84961 4.87305 5.84961 5.26367L5.84961 12.5293Q5.84961 12.9199 6.04492 13.1592Q6.24023 13.3984 6.62109 13.3984ZM15.1562 13.5156Q15.5371 13.5156 15.7373 13.2812Q15.9375 13.0469 15.9375 12.6367L15.9375 5.78125L18.3691 5.78125Q18.6523 5.78125 18.8379 5.60547Q19.0234 5.42969 19.0234 5.13672Q19.0234 4.83398 18.8379 4.66797Q18.6523 4.50195 18.3691 4.50195L11.9824 4.50195Q11.6992 4.50195 11.5137 4.66797Q11.3281 4.83398 11.3281 5.13672Q11.3281 5.42969 11.5137 5.60547Q11.6992 5.78125 11.9824 5.78125L14.3848 5.78125L14.3848 12.6367Q14.3848 13.0273 14.5801 13.2715Q14.7754 13.5156 15.1562 13.5156Z" fill="#ffffff"/>
 </g>
</svg>
