<?xml version="1.0" encoding="UTF-8"?>
<!--Generator: Apple Native CoreSVG 175-->
<!DOCTYPE svg
PUBLIC "-//W3C//DTD SVG 1.1//EN"
       "http://www.w3.org/Graphics/SVG/1.1/DTD/svg11.dtd">
<svg version="1.1" xmlns="http://www.w3.org/2000/svg" xmlns:xlink="http://www.w3.org/1999/xlink" width="18.643" height="23.6996">
 <g>
  <rect height="23.6996" opacity="0" width="18.643" x="0" y="0"/>
  <path d="M2.63046 19.9532L16.0126 19.9532Q17.3067 19.9532 17.9749 19.2772Q18.643 18.6012 18.643 17.3293L18.643 5.19608Q18.643 3.90747 17.9749 3.24203Q17.3067 2.5766 16.0126 2.5766L2.63046 2.5766Q1.33636 2.5766 0.668182 3.24203Q0 3.90747 0 5.19608L0 17.3293Q0 18.6153 0.668182 19.2842Q1.33636 19.9532 2.63046 19.9532ZM8.33755 14.1711Q8.02811 14.1711 7.79259 13.9196Q7.55707 13.6681 7.30896 13.3195Q7.00516 12.9071 6.80023 12.3106Q6.59531 11.714 6.59531 11.098Q6.59531 10.1184 7.12639 9.61388Q7.65747 9.10934 8.28598 9.10934Q8.61481 9.10934 8.88733 9.2543Q9.15985 9.39926 9.37302 9.39926Q9.56253 9.39926 9.86565 9.24103Q10.1688 9.08279 10.5466 9.08279Q10.6425 9.08279 10.8733 9.11697Q11.104 9.15115 11.3764 9.29123Q11.6489 9.4313 11.8774 9.75739Q11.8552 9.7699 11.676 9.9086Q11.4969 10.0473 11.3262 10.326Q11.1555 10.6047 11.1555 11.0367Q11.1555 11.5302 11.3764 11.827Q11.5973 12.1239 11.8182 12.2527Q12.0392 12.3816 12.0587 12.3914Q12.049 12.4109 11.9458 12.7043Q11.8427 12.9977 11.5903 13.3461Q11.3812 13.6458 11.1395 13.9085Q10.8977 14.1711 10.5466 14.1711Q10.3207 14.1711 10.1772 14.1035Q10.0336 14.0359 9.87267 13.9697Q9.71176 13.9035 9.44687 13.9035Q9.06921 13.9035 8.85803 14.0373Q8.64685 14.1711 8.33755 14.1711ZM9.40781 9.0242Q9.33945 9.0242 9.31717 9.0062Q9.3074 8.99643 9.3074 8.89343Q9.3074 8.62854 9.41269 8.38188Q9.51797 8.13522 9.66293 7.97073Q9.8497 7.76443 10.1235 7.62093Q10.3973 7.47742 10.6523 7.46765Q10.6648 7.50671 10.6648 7.59995Q10.6648 7.85782 10.5666 8.10448Q10.4684 8.35114 10.3137 8.54492Q10.1492 8.7442 9.89143 8.8842Q9.63364 9.0242 9.40781 9.0242ZM2.38083 22.7058L5.61493 22.7058Q5.80505 22.7058 5.93552 22.5754Q6.06598 22.4449 6.06598 22.252Q6.06598 22.066 5.93552 21.9356Q5.80505 21.8051 5.61493 21.8051L2.38083 21.8051Q2.19772 21.8051 2.06718 21.9356Q1.93665 22.066 1.93665 22.252Q1.93665 22.4449 2.06718 22.5754Q2.19772 22.7058 2.38083 22.7058ZM3.54538 22.1469L4.45038 22.1469L4.45038 19.6364L3.54538 19.6364ZM13.0281 22.7058L16.2622 22.7058Q16.4523 22.7058 16.5829 22.5754Q16.7134 22.4449 16.7134 22.252Q16.7134 22.066 16.5829 21.9356Q16.4523 21.8051 16.2622 21.8051L13.0281 21.8051Q12.845 21.8051 12.7145 21.9356Q12.5841 22.066 12.5841 22.252Q12.5841 22.4449 12.7145 22.5754Q12.845 22.7058 13.0281 22.7058ZM14.1997 22.1469L15.0977 22.1469L15.0977 19.6364L14.1997 19.6364ZM3.54538 2.93045L4.45038 2.93045L4.45038 0.451202Q4.45038 0.260925 4.31992 0.130463Q4.18945 0 3.99918 0Q3.8063 0 3.67584 0.130463Q3.54538 0.260925 3.54538 0.451202ZM14.1997 2.93045L15.0977 2.93045L15.0977 0.451202Q15.0977 0.260925 14.9672 0.130463Q14.8367 0 14.6466 0Q14.4536 0 14.3266 0.130463Q14.1997 0.260925 14.1997 0.451202Z" fill="#ffffff"/>
 </g>
</svg>
