<?xml version="1.0" encoding="UTF-8"?>
<!--Generator: Apple Native CoreSVG 175.5-->
<!DOCTYPE svg
PUBLIC "-//W3C//DTD SVG 1.1//EN"
       "http://www.w3.org/Graphics/SVG/1.1/DTD/svg11.dtd">
<svg version="1.1" xmlns="http://www.w3.org/2000/svg" xmlns:xlink="http://www.w3.org/1999/xlink" width="24.2969" height="19.7949">
 <g>
  <rect height="19.7949" opacity="0" width="24.2969" x="0" y="0"/>
  <path d="M3.06641 15.2637L5.10742 15.2637L5.10742 13.6914L3.08594 13.6914Q2.35352 13.6914 1.96289 13.3057Q1.57227 12.9199 1.57227 12.1582L1.57227 3.11523Q1.57227 2.35352 1.96289 1.96289Q2.35352 1.57227 3.08594 1.57227L16.2695 1.57227Q16.9922 1.57227 17.3926 1.96289Q17.793 2.35352 17.793 3.11523L17.793 5.23438L19.3652 5.23438L19.3652 3.02734Q19.3652 1.52344 18.5938 0.761719Q17.8223 0 16.2988 0L3.06641 0Q1.5332 0 0.766602 0.756836Q0 1.51367 0 3.02734L0 12.2363Q0 13.75 0.766602 14.5068Q1.5332 15.2637 3.06641 15.2637Z" fill="#ffffff"/>
  <path d="M7.89062 19.7852L21.2305 19.7852Q22.7539 19.7852 23.5254 19.0283Q24.2969 18.2715 24.2969 16.7578L24.2969 7.54883Q24.2969 6.04492 23.5254 5.2832Q22.7539 4.52148 21.2305 4.52148L7.89062 4.52148Q6.35742 4.52148 5.59082 5.27832Q4.82422 6.03516 4.82422 7.54883L4.82422 16.7578Q4.82422 18.2715 5.59082 19.0283Q6.35742 19.7852 7.89062 19.7852ZM6.39648 9.45312L22.7246 9.45312L22.7246 16.6797Q22.7246 17.4414 22.3242 17.8271Q21.9238 18.2129 21.2012 18.2129L7.91016 18.2129Q7.17773 18.2129 6.78711 17.8271Q6.39648 17.4414 6.39648 16.6797ZM7.91992 7.86133Q7.55859 7.86133 7.30469 7.59766Q7.05078 7.33398 7.05078 6.99219Q7.05078 6.64062 7.30469 6.37695Q7.55859 6.11328 7.91992 6.11328Q8.28125 6.11328 8.53516 6.37695Q8.78906 6.64062 8.78906 6.99219Q8.78906 7.33398 8.53516 7.59766Q8.28125 7.86133 7.91992 7.86133ZM10.7227 7.86133Q10.3613 7.86133 10.1074 7.59766Q9.85352 7.33398 9.85352 6.99219Q9.85352 6.64062 10.1074 6.37695Q10.3613 6.11328 10.7227 6.11328Q11.084 6.11328 11.3379 6.37695Q11.5918 6.64062 11.5918 6.99219Q11.5918 7.33398 11.3379 7.59766Q11.084 7.86133 10.7227 7.86133ZM13.5254 7.86133Q13.1641 7.86133 12.9102 7.59766Q12.6562 7.33398 12.6562 6.99219Q12.6562 6.64062 12.9102 6.37695Q13.1641 6.11328 13.5254 6.11328Q13.8867 6.11328 14.1406 6.37695Q14.3945 6.64062 14.3945 6.99219Q14.3945 7.33398 14.1406 7.59766Q13.8867 7.86133 13.5254 7.86133Z" fill="#ffffff"/>
 </g>
</svg>
