<?xml version="1.0" encoding="UTF-8"?>
<!--Generator: Apple Native CoreSVG 175.5-->
<!DOCTYPE svg
PUBLIC "-//W3C//DTD SVG 1.1//EN"
       "http://www.w3.org/Graphics/SVG/1.1/DTD/svg11.dtd">
<svg version="1.1" xmlns="http://www.w3.org/2000/svg" xmlns:xlink="http://www.w3.org/1999/xlink" width="25.332" height="20.2832">
 <g>
  <rect height="20.2832" opacity="0" width="25.332" x="0" y="0"/>
  <path d="M19.082 10.4102Q19.7168 10.4102 20.249 10.0928Q20.7812 9.77539 21.0938 9.24805Q21.4062 8.7207 21.4062 8.06641Q21.4062 7.42188 21.0938 6.88965Q20.7812 6.35742 20.249 6.04004Q19.7168 5.72266 19.082 5.72266Q18.4277 5.72266 17.8955 6.04004Q17.3633 6.35742 17.0508 6.88965Q16.7383 7.42188 16.7383 8.06641Q16.7383 8.7207 17.0508 9.24805Q17.3633 9.77539 17.8955 10.0928Q18.4277 10.4102 19.082 10.4102ZM22.2656 1.16211L10.8496 1.16211L10.8496 2.73438L22.2363 2.73438Q22.959 2.73438 23.3594 3.12012Q23.7598 3.50586 23.7598 4.26758L23.7598 16.0352Q23.7598 16.7969 23.3594 17.1826Q22.959 17.5684 22.2363 17.5684L20.0977 17.5684Q20.4102 17.8809 20.5713 18.2861Q20.7324 18.6914 20.7324 19.1406L22.2656 19.1406Q23.7988 19.1406 24.5654 18.3838Q25.332 17.627 25.332 16.1133L25.332 4.18945Q25.332 2.67578 24.5654 1.91895Q23.7988 1.16211 22.2656 1.16211ZM5.39062 17.5684Q4.6582 17.5684 4.2627 17.1826Q3.86719 16.7969 3.86719 16.0352L3.86719 13.1738L2.29492 13.1738L2.29492 16.1133Q2.29492 17.627 3.06641 18.3838Q3.83789 19.1406 5.36133 19.1406L15.459 19.1406L13.8867 17.5684Z" fill="#ffffff"/>
  <path d="M0 8.22266Q0 9.83398 0.605469 11.2451Q1.21094 12.6562 2.28516 13.7305Q3.35938 14.8047 4.77051 15.4102Q6.18164 16.0156 7.79297 16.0156Q9.07227 16.0156 10.2197 15.625Q11.3672 15.2344 12.3242 14.5508L17.7246 19.9512Q17.9004 20.127 18.1055 20.2051Q18.3105 20.2832 18.5449 20.2832Q18.877 20.2832 19.1309 20.1318Q19.3848 19.9805 19.5264 19.7168Q19.668 19.4531 19.668 19.1309Q19.668 18.8965 19.585 18.6865Q19.502 18.4766 19.3555 18.3301L13.9844 12.9395Q14.7363 11.9629 15.1611 10.7617Q15.5859 9.56055 15.5859 8.22266Q15.5859 6.61133 14.9805 5.2002Q14.375 3.78906 13.3057 2.71484Q12.2363 1.64062 10.8203 1.03516Q9.4043 0.429688 7.79297 0.429688Q6.18164 0.429688 4.77051 1.03516Q3.35938 1.64062 2.28516 2.71484Q1.21094 3.78906 0.605469 5.2002Q0 6.61133 0 8.22266ZM1.66992 8.22266Q1.66992 6.95312 2.14844 5.84473Q2.62695 4.73633 3.4668 3.8916Q4.30664 3.04688 5.41504 2.57324Q6.52344 2.09961 7.79297 2.09961Q9.0625 2.09961 10.1709 2.57324Q11.2793 3.04688 12.124 3.8916Q12.9688 4.73633 13.4424 5.84473Q13.916 6.95312 13.916 8.22266Q13.916 9.49219 13.4424 10.6006Q12.9688 11.709 12.124 12.5488Q11.2793 13.3887 10.1709 13.8672Q9.0625 14.3457 7.79297 14.3457Q6.52344 14.3457 5.41504 13.8672Q4.30664 13.3887 3.4668 12.5488Q2.62695 11.709 2.14844 10.6006Q1.66992 9.49219 1.66992 8.22266ZM4.69727 7.60742L10.8887 7.60742Q11.1816 7.60742 11.377 7.40234Q11.5723 7.19727 11.5723 6.91406Q11.5723 6.63086 11.377 6.43555Q11.1816 6.24023 10.8887 6.24023L4.69727 6.24023Q4.4043 6.24023 4.21387 6.43555Q4.02344 6.63086 4.02344 6.91406Q4.02344 7.19727 4.21387 7.40234Q4.4043 7.60742 4.69727 7.60742ZM4.69727 10.2051L9.19922 10.2051Q9.48242 10.2051 9.68262 10.0098Q9.88281 9.81445 9.88281 9.53125Q9.88281 9.24805 9.68262 9.04297Q9.48242 8.83789 9.19922 8.83789L4.69727 8.83789Q4.4043 8.83789 4.21387 9.04297Q4.02344 9.24805 4.02344 9.53125Q4.02344 9.81445 4.21387 10.0098Q4.4043 10.2051 4.69727 10.2051Z" fill="#ffffff"/>
 </g>
</svg>
