<?xml version="1.0" encoding="UTF-8"?>
<!--Generator: Apple Native CoreSVG 175-->
<!DOCTYPE svg
PUBLIC "-//W3C//DTD SVG 1.1//EN"
       "http://www.w3.org/Graphics/SVG/1.1/DTD/svg11.dtd">
<svg version="1.1" xmlns="http://www.w3.org/2000/svg" xmlns:xlink="http://www.w3.org/1999/xlink" width="22.6617" height="17.3035">
 <g>
  <rect height="17.3035" opacity="0" width="22.6617" x="0" y="0"/>
  <path d="M3.90045 4.94064Q3.75504 4.94064 3.65959 4.83887Q3.56415 4.73709 3.56415 4.59885Q3.56415 4.45618 3.65959 4.35577Q3.75504 4.25537 3.90045 4.25537L10.818 4.25537Q10.9535 4.25537 11.0553 4.35577Q11.1571 4.45618 11.1571 4.59885Q11.1571 4.73709 11.0553 4.83887Q10.9535 4.94064 10.818 4.94064ZM3.90045 7.25983Q3.75504 7.25983 3.65959 7.16156Q3.56415 7.06329 3.56415 6.92078Q3.56415 6.77811 3.65959 6.67984Q3.75504 6.58157 3.90045 6.58157L8.98087 6.58157Q9.12338 6.58157 9.22516 6.67984Q9.32693 6.77811 9.32693 6.92078Q9.32693 7.06329 9.22516 7.16156Q9.12338 7.25983 8.98087 7.25983ZM16.7778 7.96646Q16.1333 7.96646 15.601 7.64908Q15.0688 7.3317 14.7514 6.79947Q14.4341 6.26724 14.4341 5.62271Q14.4341 4.97818 14.7514 4.44595Q15.0688 3.91373 15.601 3.59634Q16.1333 3.27896 16.7778 3.27896Q17.4223 3.27896 17.9497 3.59634Q18.477 3.91373 18.7944 4.44595Q19.1118 4.97818 19.1118 5.62271Q19.1118 6.26724 18.7944 6.79947Q18.477 7.3317 17.9497 7.64908Q17.4223 7.96646 16.7778 7.96646ZM2.63046 17.2894L20.0243 17.2894Q21.3281 17.2894 21.9949 16.617Q22.6617 15.9445 22.6617 14.6655L22.6617 2.6265Q22.6617 1.35468 21.9949 0.677338Q21.3281 0 20.0243 0L2.63046 0Q1.33636 0 0.668182 0.668945Q0 1.33789 0 2.6265L0 14.6655Q0 15.9586 0.668182 16.624Q1.33636 17.2894 2.63046 17.2894Z" fill="rgba(0,0,0,0.85)"/>
 </g>
</svg>
