<?xml version="1.0" encoding="UTF-8"?>
<!--Generator: Apple Native CoreSVG 175-->
<!DOCTYPE svg
PUBLIC "-//W3C//DTD SVG 1.1//EN"
       "http://www.w3.org/Graphics/SVG/1.1/DTD/svg11.dtd">
<svg version="1.1" xmlns="http://www.w3.org/2000/svg" xmlns:xlink="http://www.w3.org/1999/xlink" width="19.1602" height="19.1504">
 <g>
  <rect height="19.1504" opacity="0" width="19.1602" x="0" y="0"/>
  <path d="M9.57031 19.1406Q11.5527 19.1406 13.2861 18.3984Q15.0195 17.6562 16.3379 16.333Q17.6562 15.0098 18.4082 13.2764Q19.1602 11.543 19.1602 9.57031Q19.1602 7.59766 18.4082 5.86426Q17.6562 4.13086 16.3379 2.80762Q15.0195 1.48438 13.2861 0.742188Q11.5527 0 9.57031 0Q7.59766 0 5.86426 0.742188Q4.13086 1.48438 2.81738 2.80762Q1.50391 4.13086 0.751953 5.86426Q0 7.59766 0 9.57031Q0 11.543 0.74707 13.2764Q1.49414 15.0098 2.8125 16.333Q4.13086 17.6562 5.86914 18.3984Q7.60742 19.1406 9.57031 19.1406ZM6.93359 13.7109Q6.78711 13.7109 6.68945 13.623Q6.5918 13.5352 6.5918 13.3594L6.5918 10.0098Q6.5918 8.38867 7.33398 7.48535Q8.07617 6.58203 9.25781 6.47461L9.25781 5.25391Q9.25781 5.09766 9.35059 5.01953Q9.44336 4.94141 9.58008 4.94141Q9.70703 4.94141 9.79492 5.01953Q9.88281 5.09766 9.88281 5.25391L9.88281 6.46484Q11.0742 6.57227 11.8164 7.48047Q12.5586 8.38867 12.5586 10.0098L12.5586 13.3594Q12.5586 13.5352 12.4707 13.623Q12.3828 13.7109 12.2266 13.7109Q12.0703 13.7109 11.9775 13.623Q11.8848 13.5352 11.8848 13.3594L11.8848 10.0781Q11.8848 8.73047 11.3477 7.97852Q10.8105 7.22656 9.88281 7.11914L9.88281 13.3887Q9.88281 13.5352 9.79492 13.623Q9.70703 13.7109 9.58008 13.7109Q9.44336 13.7109 9.35059 13.623Q9.25781 13.5352 9.25781 13.3887L9.25781 7.11914Q8.33984 7.23633 7.80273 7.98828Q7.26562 8.74023 7.26562 10.0781L7.26562 13.3594Q7.26562 13.5352 7.17285 13.623Q7.08008 13.7109 6.93359 13.7109Z" fill="#ffffff"/>
 </g>
</svg>
