<?xml version="1.0" encoding="UTF-8"?>
<!--Generator: Apple Native CoreSVG 175-->
<!DOCTYPE svg
PUBLIC "-//W3C//DTD SVG 1.1//EN"
       "http://www.w3.org/Graphics/SVG/1.1/DTD/svg11.dtd">
<svg version="1.1" xmlns="http://www.w3.org/2000/svg" xmlns:xlink="http://www.w3.org/1999/xlink" width="18.8008" height="18.4943">
 <g>
  <rect height="18.4943" opacity="0" width="18.8008" x="0" y="0"/>
  <path d="M0.695648 18.0711Q0.825043 18.0711 0.960617 18.0182Q1.09619 17.9652 1.23917 17.8848L6.32233 15.0403L11.554 18.2083Q12.011 18.4872 12.4297 18.4872Q12.8333 18.4872 13.2867 18.2121L18.2465 15.2907Q18.5384 15.1239 18.6696 14.9151Q18.8008 14.7063 18.8008 14.3376L18.8008 1.2114Q18.8008 0.836029 18.6147 0.630951Q18.4285 0.425873 18.1052 0.425873Q17.9828 0.425873 17.8438 0.471725Q17.7048 0.517578 17.5591 0.595398L12.4394 3.3989L7.32666 0.294647Q6.82816 0 6.34735 0Q5.84961 0 5.36957 0.294647L0.551605 3.19229Q0.262451 3.36609 0.131226 3.57491Q0 3.78372 0 4.15512L0 17.2688Q0 17.654 0.189667 17.8625Q0.379333 18.0711 0.695648 18.0711ZM6.01791 14.3805L1.0582 17.1609Q0.981598 17.2028 0.911713 17.2028Q0.728607 17.2028 0.728607 16.9902L0.728607 4.30405Q0.728607 4.12109 0.791245 3.99284Q0.853882 3.86459 1.02966 3.76694L5.70862 0.937958Q5.79224 0.903168 5.86823 0.864944Q5.94421 0.826721 6.01791 0.79895ZM6.74652 14.4173L6.74652 0.842285Q6.81763 0.86731 6.89926 0.904236Q6.9809 0.941162 7.04498 0.975952L12.0543 4.03992L12.0543 17.5899Q11.9749 17.5594 11.8887 17.5233Q11.8024 17.4872 11.73 17.4426ZM12.7829 17.6321L12.7829 4.01962L17.7426 1.32904Q17.8262 1.28723 17.8934 1.28723Q17.9688 1.28723 18.0241 1.34384Q18.0794 1.40045 18.0794 1.49963L18.0794 14.1859Q18.0794 14.3617 18.0167 14.4914Q17.9539 14.6211 17.7711 14.7258L13.1099 17.4864Q13.0305 17.5266 12.9463 17.5676Q12.8621 17.6086 12.7829 17.6321Z" fill="rgba(0,0,0,0.85)"/>
 </g>
</svg>
