<?xml version="1.0" encoding="UTF-8"?>
<!--Generator: Apple Native CoreSVG 175-->
<!DOCTYPE svg
PUBLIC "-//W3C//DTD SVG 1.1//EN"
       "http://www.w3.org/Graphics/SVG/1.1/DTD/svg11.dtd">
<svg version="1.1" xmlns="http://www.w3.org/2000/svg" xmlns:xlink="http://www.w3.org/1999/xlink" width="19.1602" height="19.1504">
 <g>
  <rect height="19.1504" opacity="0" width="19.1602" x="0" y="0"/>
  <path d="M9.57031 19.1504Q11.5527 19.1504 13.2861 18.4082Q15.0195 17.666 16.3379 16.3428Q17.6562 15.0195 18.4082 13.2861Q19.1602 11.5527 19.1602 9.58008Q19.1602 7.60742 18.4082 5.87402Q17.6562 4.14062 16.3379 2.81738Q15.0195 1.49414 13.2861 0.751953Q11.5527 0.00976562 9.57031 0.00976562Q7.59766 0.00976562 5.86426 0.751953Q4.13086 1.49414 2.81738 2.81738Q1.50391 4.14062 0.751953 5.87402Q0 7.60742 0 9.58008Q0 11.5527 0.74707 13.2861Q1.49414 15.0195 2.8125 16.3428Q4.13086 17.666 5.86914 18.4082Q7.60742 19.1504 9.57031 19.1504ZM7.70508 5.54688Q7.70508 5.0293 7.95898 4.60449Q8.21289 4.17969 8.6377 3.92578Q9.0625 3.67188 9.58008 3.67188Q10.0977 3.67188 10.5225 3.92578Q10.9473 4.17969 11.1963 4.60449Q11.4453 5.0293 11.4453 5.54688Q11.4453 6.24023 11.0059 6.74805Q10.5664 7.25586 9.91211 7.37305L9.91211 14.0039Q9.91211 14.5312 9.86816 14.9023Q9.82422 15.2734 9.75098 15.4688Q9.67773 15.6641 9.58008 15.6641Q9.48242 15.6641 9.4043 15.4639Q9.32617 15.2637 9.28711 14.8975Q9.24805 14.5312 9.24805 14.0039L9.24805 7.37305Q8.58398 7.25586 8.14453 6.74316Q7.70508 6.23047 7.70508 5.54688ZM8.4668 5.05859Q8.47656 5.3125 8.66211 5.49805Q8.84766 5.68359 9.10156 5.68359Q9.35547 5.68359 9.53125 5.49805Q9.70703 5.3125 9.7168 5.05859Q9.72656 4.80469 9.54102 4.61426Q9.35547 4.42383 9.10156 4.42383Q8.84766 4.42383 8.65234 4.61426Q8.45703 4.80469 8.4668 5.05859Z" fill="#ffffff"/>
 </g>
</svg>
