<?xml version="1.0" encoding="UTF-8"?>
<!--Generator: Apple Native CoreSVG 175.5-->
<!DOCTYPE svg
PUBLIC "-//W3C//DTD SVG 1.1//EN"
       "http://www.w3.org/Graphics/SVG/1.1/DTD/svg11.dtd">
<svg version="1.1" xmlns="http://www.w3.org/2000/svg" xmlns:xlink="http://www.w3.org/1999/xlink" width="18.5855" height="22.041">
 <g>
  <rect height="22.041" opacity="0" width="18.5855" x="0" y="0"/>
  <path d="M9.28786 22.0312Q10.5769 22.0312 11.7049 21.5527Q12.8328 21.0742 13.6824 20.2197Q14.532 19.3652 15.0154 18.2373Q15.4988 17.1094 15.4988 15.8301Q15.4988 14.541 15.0154 13.4131Q14.532 12.2852 13.6824 11.4307Q12.8328 10.5762 11.7049 10.0977Q10.5769 9.61914 9.28786 9.61914Q8.00856 9.61914 6.88063 10.0977Q5.7527 10.5762 4.89821 11.4307Q4.04372 12.2852 3.5652 13.4131Q3.08669 14.541 3.08669 15.8301Q3.08669 17.1094 3.5652 18.2373Q4.04372 19.3652 4.89821 20.2197Q5.7527 21.0742 6.88063 21.5527Q8.00856 22.0312 9.28786 22.0312ZM7.52028 19.0234Q7.23708 19.2285 7.01735 19.0674Q6.79763 18.9062 6.90505 18.584L7.60817 16.4844L5.8113 15.2051Q5.64528 15.0781 5.61599 14.9072Q5.58669 14.7363 5.69899 14.6045Q5.8113 14.4727 6.04567 14.4727L8.2527 14.4922L8.92653 12.3828Q9.03395 12.0605 9.29763 12.0605Q9.5613 12.0605 9.66872 12.3828L10.3425 14.4922L12.5496 14.4727Q12.784 14.4727 12.8914 14.6045Q12.9988 14.7363 12.9744 14.9072Q12.95 15.0781 12.784 15.1953L10.9871 16.4844L11.6902 18.584Q11.7976 18.9062 11.5779 19.0674Q11.3582 19.2285 11.075 19.0234L9.29763 17.7246ZM3.34059 11.1816Q4.06325 10.2734 5.03005 9.60449Q5.99684 8.93555 7.12966 8.60352L2.70583 0.654297L0.13747 4.57031Q0.0105168 4.75586 0.000751202 4.96094Q-0.00901442 5.16602 0.108173 5.36133ZM7.10036 5.27344L11.4851 5.27344L14.4636 0L4.12184 0ZM11.4558 8.60352Q12.5984 8.93555 13.5603 9.60449Q14.5222 10.2734 15.2449 11.1816L18.4871 5.36133Q18.5945 5.16602 18.5847 4.96094Q18.575 4.75586 18.448 4.57031L15.8797 0.654297Z" fill="#ffffff"/>
 </g>
</svg>
