<?xml version="1.0" encoding="UTF-8"?>
<!--Generator: Apple Native CoreSVG 175-->
<!DOCTYPE svg
PUBLIC "-//W3C//DTD SVG 1.1//EN"
       "http://www.w3.org/Graphics/SVG/1.1/DTD/svg11.dtd">
<svg version="1.1" xmlns="http://www.w3.org/2000/svg" xmlns:xlink="http://www.w3.org/1999/xlink" width="20.3423" height="20.4871">
 <g>
  <rect height="20.4871" opacity="0" width="20.3423" x="0" y="0"/>
  <path d="M3.41995 5.21439Q1.7363 5.21439 0.868149 6.06949Q0 6.92459 0 8.56522L0 10.3519Q0 11.9997 0.868149 12.8512Q1.7363 13.7027 3.41995 13.7027L6.32812 13.7027L6.32812 5.21439ZM7.202 13.7054Q8.69644 13.8574 10.3046 14.1936Q11.9128 14.5297 13.4271 15.0684Q14.9414 15.607 16.1511 16.3637Q16.1511 16.3106 16.1511 16.2525Q16.1511 16.1945 16.1511 16.1343L16.1511 2.77069Q16.1511 2.71591 16.1511 2.66342Q16.1511 2.61093 16.1511 2.55615Q14.9387 3.3226 13.4129 3.86398Q11.8871 4.40536 10.2776 4.74014Q8.66806 5.07492 7.202 5.21439ZM17.025 17.2534Q17.025 17.7534 17.2332 18.1245Q17.4414 18.4956 17.8146 18.7038Q18.1879 18.912 18.6809 18.912Q19.1837 18.912 19.5547 18.7038Q19.9258 18.4956 20.134 18.1245Q20.3423 17.7534 20.3423 17.2534L20.3423 1.66122Q20.3423 1.16562 20.134 0.791016Q19.9258 0.416412 19.5547 0.208206Q19.1837 0 18.6809 0Q18.1879 0 17.8146 0.208206Q17.4414 0.416412 17.2332 0.791016Q17.025 1.16562 17.025 1.66122ZM7.6387 20.2219Q8.19061 20.2219 8.61855 19.9576Q9.04648 19.6933 9.24026 19.1857Q9.43405 18.6781 9.28909 17.9488L8.66562 14.7403Q8.42148 14.6918 8.12401 14.6516Q7.82654 14.6114 7.51465 14.5842Q7.20276 14.557 6.92032 14.5332L3.74969 14.5332L5.65155 18.6848Q6.02112 19.4867 6.47621 19.8543Q6.9313 20.2219 7.6387 20.2219Z" fill="#ffffff"/>
 </g>
</svg>
