<?xml version="1.0" encoding="UTF-8"?>
<!--Generator: Apple Native CoreSVG 175.5-->
<!DOCTYPE svg
PUBLIC "-//W3C//DTD SVG 1.1//EN"
       "http://www.w3.org/Graphics/SVG/1.1/DTD/svg11.dtd">
<svg version="1.1" xmlns="http://www.w3.org/2000/svg" xmlns:xlink="http://www.w3.org/1999/xlink" width="21.748" height="20.6543">
 <g>
  <rect height="20.6543" opacity="0" width="21.748" x="0" y="0"/>
  <path d="M0 10.2734Q0 12.1875 1.04492 13.2031Q2.08984 14.2188 4.0918 14.2188L7.48047 14.2188Q8.75 14.3652 10.0342 14.6484Q11.3184 14.9316 12.5928 15.3516Q13.8672 15.7715 15.0928 16.3379Q16.3184 16.9043 17.4707 17.6074L17.4707 15.8691Q16.3477 15.1855 15.1465 14.6484Q13.9453 14.1113 12.6807 13.7109Q11.416 13.3105 10.0977 13.0469Q8.7793 12.7832 7.42188 12.6465L4.0918 12.6465Q2.75391 12.6465 2.16309 12.0898Q1.57227 11.5332 1.57227 10.2734L1.57227 8.83789Q1.57227 7.57812 2.16309 7.02148Q2.75391 6.46484 4.0918 6.46484L7.33398 6.46484Q8.71094 6.32812 10.0586 6.05957Q11.4062 5.79102 12.6855 5.39062Q13.9648 4.99023 15.166 4.45312Q16.3672 3.91602 17.4707 3.23242L17.4707 1.50391Q16.3672 2.20703 15.1123 2.77344Q13.8574 3.33984 12.5488 3.77441Q11.2402 4.20898 9.96582 4.4873Q8.69141 4.76562 7.53906 4.89258L4.0918 4.89258Q2.08984 4.89258 1.04492 5.90332Q0 6.91406 0 8.83789ZM9.08203 14.0918L7.59766 14.0918L8.41797 18.252Q8.47656 18.5742 8.33496 18.7842Q8.19336 18.9941 7.95898 19.082Q7.71484 19.1699 7.42676 19.0723Q7.13867 18.9746 6.97266 18.623L4.76562 13.9062L3.16406 13.9062L5.41992 18.9062Q5.82031 19.7949 6.37695 20.1855Q6.93359 20.5762 7.50977 20.6152Q8.08594 20.6543 8.55469 20.5078Q9.26758 20.2832 9.65332 19.6387Q10.0391 18.9941 9.84375 18.0176ZM6.16211 5.63477L6.16211 13.4766L7.74414 13.4766L7.74414 5.63477ZM16.9141 16.6309Q16.9141 17.3535 17.2168 17.8955Q17.5195 18.4375 18.0664 18.7402Q18.6133 19.043 19.3262 19.043Q20.0586 19.043 20.6006 18.7402Q21.1426 18.4375 21.4453 17.8955Q21.748 17.3535 21.748 16.6309L21.748 2.41211Q21.748 1.68945 21.4453 1.14746Q21.1426 0.605469 20.6006 0.302734Q20.0586 0 19.3262 0Q18.6133 0 18.0664 0.302734Q17.5195 0.605469 17.2168 1.14746Q16.9141 1.68945 16.9141 2.41211ZM18.4961 16.6309L18.4961 2.41211Q18.4961 2.03125 18.7207 1.80176Q18.9453 1.57227 19.3262 1.57227Q19.707 1.57227 19.9414 1.80176Q20.1758 2.03125 20.1758 2.41211L20.1758 16.6309Q20.1758 17.0117 19.9414 17.2412Q19.707 17.4707 19.3262 17.4707Q18.9453 17.4707 18.7207 17.2412Q18.4961 17.0117 18.4961 16.6309Z" fill="#ffffff"/>
 </g>
</svg>
