<?xml version="1.0" encoding="UTF-8"?>
<!--Generator: Apple Native CoreSVG 175.5-->
<!DOCTYPE svg
PUBLIC "-//W3C//DTD SVG 1.1//EN"
       "http://www.w3.org/Graphics/SVG/1.1/DTD/svg11.dtd">
<svg version="1.1" xmlns="http://www.w3.org/2000/svg" xmlns:xlink="http://www.w3.org/1999/xlink" width="18.9844" height="19.4629">
 <g>
  <rect height="19.4629" opacity="0" width="18.9844" x="0" y="0"/>
  <path d="M3.06641 9.50195L0.380859 14.7656Q0 15.5273 0 16.2891Q0 16.9922 0.327148 17.5928Q0.654297 18.1934 1.26465 18.5547Q1.875 18.916 2.73438 18.916L16.25 18.916Q17.1094 18.916 17.7197 18.5547Q18.3301 18.1934 18.6572 17.5928Q18.9844 16.9922 18.9844 16.2891Q18.9844 15.5273 18.6035 14.7559L11.8164 1.45508Q11.4844 0.791016 10.8301 0.395508Q10.1758 0 9.49219 0Q8.80859 0 8.1543 0.395508Q7.5 0.791016 7.16797 1.45508L4.81445 6.06445L5.9668 7.20703L8.50586 2.14844Q8.67188 1.83594 8.93066 1.64551Q9.18945 1.45508 9.49219 1.45508Q9.80469 1.45508 10.0586 1.64551Q10.3125 1.83594 10.4785 2.14844L15.8105 12.7734L3.17383 12.7734L4.23828 10.6738ZM2.73438 17.3828Q2.19727 17.3828 1.89941 17.0361Q1.60156 16.6895 1.60156 16.2305Q1.60156 16.0742 1.63574 15.9131Q1.66992 15.752 1.74805 15.5957L2.41211 14.2871L16.5625 14.2676L17.2363 15.5957Q17.3926 15.9277 17.3926 16.2207Q17.3926 16.6797 17.0898 17.0312Q16.7871 17.3828 16.25 17.3828ZM10.3125 11.543L10.3125 4.69727Q10.3125 4.33594 10.1025 4.11621Q9.89258 3.89648 9.53125 3.89648Q9.16992 3.89648 8.96484 4.11621Q8.75977 4.33594 8.75977 4.69727L8.75977 9.99023ZM8.99414 13.9648L10.0977 12.8516L1.66992 4.43359Q1.42578 4.18945 1.12305 4.18945Q0.820312 4.18945 0.566406 4.43359Q0.302734 4.6875 0.3125 4.99512Q0.322266 5.30273 0.566406 5.55664Z" fill="#ffffff"/>
 </g>
</svg>
