<?xml version="1.0" encoding="UTF-8"?>
<!--Generator: Apple Native CoreSVG 175-->
<!DOCTYPE svg
PUBLIC "-//W3C//DTD SVG 1.1//EN"
       "http://www.w3.org/Graphics/SVG/1.1/DTD/svg11.dtd">
<svg version="1.1" xmlns="http://www.w3.org/2000/svg" xmlns:xlink="http://www.w3.org/1999/xlink" width="17.2852" height="17.3145">
 <g>
  <rect height="17.3145" opacity="0" width="17.2852" x="0" y="0"/>
  <path d="M2.62695 17.3145L14.6484 17.3145Q15.957 17.3145 16.6211 16.6455Q17.2852 15.9766 17.2852 14.6875L17.2852 2.65625Q17.2852 1.37695 16.6211 0.703125Q15.957 0.0292969 14.6484 0.0292969L2.62695 0.0292969Q1.33789 0.0292969 0.668945 0.693359Q0 1.35742 0 2.65625L0 14.6875Q0 15.9863 0.668945 16.6504Q1.33789 17.3145 2.62695 17.3145ZM6.29883 14.6875Q6.17188 14.6875 6.08398 14.5947Q5.99609 14.502 5.99609 14.375Q5.99609 14.248 6.08398 14.1553Q6.17188 14.0625 6.29883 14.0625L8.33984 14.0625L8.33984 12.4219Q7.36328 12.3535 6.62109 11.8896Q5.87891 11.4258 5.46387 10.6689Q5.04883 9.91211 5.04883 8.96484L5.04883 7.92969Q5.04883 7.80273 5.1416 7.70996Q5.23438 7.61719 5.36133 7.61719Q5.48828 7.61719 5.58105 7.70996Q5.67383 7.80273 5.67383 7.92969L5.67383 8.96484Q5.67383 9.83398 6.03027 10.4785Q6.38672 11.123 7.05566 11.4746Q7.72461 11.8262 8.65234 11.8262Q9.58008 11.8262 10.2539 11.4746Q10.9277 11.123 11.2891 10.4785Q11.6504 9.83398 11.6504 8.96484L11.6504 7.92969Q11.6504 7.80273 11.7432 7.70996Q11.8359 7.61719 11.9531 7.61719Q12.0801 7.61719 12.1729 7.70996Q12.2656 7.80273 12.2656 7.92969L12.2656 8.96484Q12.2656 9.91211 11.8457 10.6689Q11.4258 11.4258 10.6836 11.8896Q9.94141 12.3535 8.96484 12.4219L8.96484 14.0625L11.0059 14.0625Q11.1328 14.0625 11.2256 14.1553Q11.3184 14.248 11.3184 14.375Q11.3184 14.502 11.2256 14.5947Q11.1328 14.6875 11.0059 14.6875ZM8.65234 10.5566Q7.90039 10.5566 7.45605 10.0439Q7.01172 9.53125 7.01172 8.76953L7.01172 4.44336Q7.01172 3.68164 7.45605 3.16895Q7.90039 2.65625 8.65234 2.65625Q9.39453 2.65625 9.84375 3.16895Q10.293 3.68164 10.293 4.44336L10.293 8.76953Q10.293 9.53125 9.84375 10.0439Q9.39453 10.5566 8.65234 10.5566Z" fill="#ffffff"/>
 </g>
</svg>
