<?xml version="1.0" encoding="UTF-8"?>
<!--Generator: Apple Native CoreSVG 175-->
<!DOCTYPE svg
PUBLIC "-//W3C//DTD SVG 1.1//EN"
       "http://www.w3.org/Graphics/SVG/1.1/DTD/svg11.dtd">
<svg version="1.1" xmlns="http://www.w3.org/2000/svg" xmlns:xlink="http://www.w3.org/1999/xlink" width="12.7441" height="21.9449">
 <g>
  <rect height="21.9449" opacity="0" width="12.7441" x="0" y="0"/>
  <path d="M0 10.2246Q0 11.9699 0.743942 13.3312Q1.48788 14.6925 2.84142 15.4982Q4.19495 16.3039 6.01807 16.3828L6.01807 19.5581L2.00821 19.5581Q1.86447 19.5581 1.76216 19.6605Q1.65985 19.7629 1.65985 19.9136Q1.65985 20.0546 1.76216 20.1605Q1.86447 20.2664 2.00821 20.2664L10.7359 20.2664Q10.8797 20.2664 10.9856 20.1605Q11.0915 20.0546 11.0915 19.9136Q11.0915 19.7629 10.9856 19.6605Q10.8797 19.5581 10.7359 19.5581L6.72623 19.5581L6.72623 16.3828Q8.54935 16.3039 9.9028 15.4982Q11.2563 14.6925 12.0002 13.3312Q12.7441 11.9699 12.7441 10.2246L12.7441 8.39691Q12.7441 8.25577 12.6418 8.14995Q12.5395 8.04413 12.3915 8.04413Q12.2478 8.04413 12.1454 8.14995Q12.043 8.25577 12.043 8.39691L12.043 10.2081Q12.043 11.8192 11.3419 13.0586Q10.6407 14.2981 9.37019 15.0006Q8.09967 15.7031 6.37344 15.7031Q4.64737 15.7031 3.37547 15.0006Q2.10358 14.2981 1.40594 13.0586Q0.708313 11.8192 0.708313 10.2081L0.708313 8.39691Q0.708313 8.25577 0.602417 8.14995Q0.496521 8.04413 0.352783 8.04413Q0.204773 8.04413 0.102386 8.14995Q0 8.25577 0 8.39691ZM6.37344 13.1395Q7.29813 13.1395 7.9792 12.7078Q8.66028 12.2762 9.03038 11.5295Q9.40048 10.7828 9.40048 9.83627L9.40048 3.30307Q9.40048 2.36359 9.03038 1.61339Q8.66028 0.86319 7.9792 0.431595Q7.29813 0 6.37344 0Q5.44617 0 4.76646 0.431595Q4.08676 0.86319 3.71529 1.61339Q3.34381 2.36359 3.34381 3.30307L3.34381 9.83627Q3.34381 10.7828 3.71529 11.5295Q4.08676 12.2762 4.76646 12.7078Q5.44617 13.1395 6.37344 13.1395Z" fill="#ffffff"/>
 </g>
</svg>
