<?xml version="1.0" encoding="UTF-8"?>
<!--Generator: Apple Native CoreSVG 175.5-->
<!DOCTYPE svg
PUBLIC "-//W3C//DTD SVG 1.1//EN"
       "http://www.w3.org/Graphics/SVG/1.1/DTD/svg11.dtd">
<svg version="1.1" xmlns="http://www.w3.org/2000/svg" xmlns:xlink="http://www.w3.org/1999/xlink" width="19.9219" height="19.9316">
 <g>
  <rect height="19.9316" opacity="0" width="19.9219" x="0" y="0"/>
  <path d="M9.96094 19.9219Q12.002 19.9219 13.8037 19.1406Q15.6055 18.3594 16.9824 16.9824Q18.3594 15.6055 19.1406 13.8037Q19.9219 12.002 19.9219 9.96094Q19.9219 7.91992 19.1406 6.11816Q18.3594 4.31641 16.9824 2.93945Q15.6055 1.5625 13.7988 0.78125Q11.9922 0 9.95117 0Q7.91016 0 6.1084 0.78125Q4.30664 1.5625 2.93457 2.93945Q1.5625 4.31641 0.78125 6.11816Q0 7.91992 0 9.96094Q0 12.002 0.78125 13.8037Q1.5625 15.6055 2.93945 16.9824Q4.31641 18.3594 6.11816 19.1406Q7.91992 19.9219 9.96094 19.9219ZM9.96094 18.2617Q8.23242 18.2617 6.72852 17.6172Q5.22461 16.9727 4.08691 15.835Q2.94922 14.6973 2.30957 13.1934Q1.66992 11.6895 1.66992 9.96094Q1.66992 8.23242 2.30957 6.72852Q2.94922 5.22461 4.08203 4.08203Q5.21484 2.93945 6.71875 2.2998Q8.22266 1.66016 9.95117 1.66016Q11.6797 1.66016 13.1885 2.2998Q14.6973 2.93945 15.835 4.08203Q16.9727 5.22461 17.6172 6.72852Q18.2617 8.23242 18.2617 9.96094Q18.2617 11.6895 17.6221 13.1934Q16.9824 14.6973 15.8398 15.835Q14.6973 16.9727 13.1934 17.6172Q11.6895 18.2617 9.96094 18.2617Z" fill="#ffffff"/>
  <path d="M6.8457 13.4863Q7.10938 13.4863 7.27539 13.3154Q7.44141 13.1445 7.44141 12.8711L7.44141 9.00391Q7.44141 8.4668 7.70996 8.13477Q7.97852 7.80273 8.44727 7.80273Q8.84766 7.80273 9.10645 8.0957Q9.36523 8.38867 9.36523 8.84766L9.36523 9.23828L7.31445 14.9219Q7.25586 15.0684 7.25586 15.1953Q7.25586 15.3906 7.3877 15.5176Q7.51953 15.6445 7.71484 15.6445Q8.04688 15.6445 8.18359 15.293L9.36523 12.002L9.36523 12.8711Q9.36523 13.1445 9.53125 13.3154Q9.69727 13.4863 9.96094 13.4863Q10.2246 13.4863 10.3955 13.3154Q10.5664 13.1445 10.5664 12.8711L10.5664 8.95508Q10.5664 8.42773 10.8301 8.12012Q11.0938 7.8125 11.543 7.8125Q11.9922 7.8125 12.2363 8.11035Q12.4805 8.4082 12.4805 8.91602L12.4805 12.8711Q12.4805 13.1445 12.6514 13.3154Q12.8223 13.4863 13.0859 13.4863Q13.3496 13.4863 13.5205 13.3154Q13.6914 13.1445 13.6914 12.8711L13.6914 8.81836Q13.6914 7.83203 13.1836 7.27539Q12.6758 6.71875 11.8262 6.71875Q11.5918 6.71875 11.3965 6.79688L12.1387 4.99023Q12.1973 4.85352 12.1973 4.72656Q12.1973 4.53125 12.0605 4.40918Q11.9238 4.28711 11.7188 4.28711Q11.4062 4.28711 11.2695 4.62891L10.0781 7.53906Q9.87305 7.11914 9.5166 6.91895Q9.16016 6.71875 8.69141 6.71875Q8.28125 6.71875 7.94434 6.90918Q7.60742 7.09961 7.39258 7.5L7.39258 7.38281Q7.39258 7.07031 7.23145 6.90918Q7.07031 6.74805 6.81641 6.74805Q6.55273 6.74805 6.3916 6.91406Q6.23047 7.08008 6.23047 7.35352L6.23047 12.8906Q6.23047 13.1543 6.40137 13.3203Q6.57227 13.4863 6.8457 13.4863Z" fill="#ffffff"/>
 </g>
</svg>
