<?xml version="1.0" encoding="UTF-8"?>
<!--Generator: Apple Native CoreSVG 175.5-->
<!DOCTYPE svg
PUBLIC "-//W3C//DTD SVG 1.1//EN"
       "http://www.w3.org/Graphics/SVG/1.1/DTD/svg11.dtd">
<svg version="1.1" xmlns="http://www.w3.org/2000/svg" xmlns:xlink="http://www.w3.org/1999/xlink" width="19.9219" height="19.9316">
 <g>
  <rect height="19.9316" opacity="0" width="19.9219" x="0" y="0"/>
  <path d="M0 9.96094Q0 12.002 0.78125 13.8037Q1.5625 15.6055 2.93945 16.9824Q4.31641 18.3594 6.11816 19.1406Q7.91992 19.9219 9.96094 19.9219Q12.002 19.9219 13.8037 19.1406Q15.6055 18.3594 16.9824 16.9824Q18.3594 15.6055 19.1406 13.8037Q19.9219 12.002 19.9219 9.96094Q19.9219 7.91992 19.1406 6.11816Q18.3594 4.31641 16.9824 2.93945Q15.6055 1.5625 13.7988 0.78125Q11.9922 0 9.95117 0Q7.91016 0 6.1084 0.78125Q4.30664 1.5625 2.93457 2.93945Q1.5625 4.31641 0.78125 6.11816Q0 7.91992 0 9.96094ZM1.66992 9.96094Q1.66992 8.35938 2.22168 6.94336Q2.77344 5.52734 3.76465 4.41895Q4.75586 3.31055 6.0791 2.6123Q7.40234 1.91406 8.95508 1.72852Q10.3516 2.55859 11.3232 3.7793Q12.2949 5 12.8027 6.5625Q13.3105 8.125 13.3105 9.96094Q13.3105 11.8066 12.8076 13.3643Q12.3047 14.9219 11.3379 16.1426Q10.3711 17.3633 8.99414 18.1934Q7.44141 18.0176 6.1084 17.3145Q4.77539 16.6113 3.7793 15.5029Q2.7832 14.3945 2.22656 12.9785Q1.66992 11.5625 1.66992 9.96094Z" fill="#ffffff"/>
 </g>
</svg>
