<?xml version="1.0" encoding="UTF-8"?>
<!--Generator: Apple Native CoreSVG 175.5-->
<!DOCTYPE svg
PUBLIC "-//W3C//DTD SVG 1.1//EN"
       "http://www.w3.org/Graphics/SVG/1.1/DTD/svg11.dtd">
<svg version="1.1" xmlns="http://www.w3.org/2000/svg" xmlns:xlink="http://www.w3.org/1999/xlink" width="19.9219" height="20.0098">
 <g>
  <rect height="20.0098" opacity="0" width="19.9219" x="0" y="0"/>
  <path d="M9.96094 20.0098Q12.002 20.0098 13.8037 19.2285Q15.6055 18.4473 16.9824 17.0703Q18.3594 15.6934 19.1406 13.8916Q19.9219 12.0898 19.9219 10.0488Q19.9219 8.00781 19.1406 6.20605Q18.3594 4.4043 16.9824 3.02734Q15.6055 1.65039 13.8037 0.869141Q12.002 0.0878906 9.96094 0.0878906Q7.91992 0.0878906 6.11328 0.869141Q4.30664 1.65039 2.93457 3.02734Q1.5625 4.4043 0.78125 6.20605Q0 8.00781 0 10.0488Q0 12.0898 0.78125 13.8916Q1.5625 15.6934 2.93945 17.0703Q4.31641 18.4473 6.11816 19.2285Q7.91992 20.0098 9.96094 20.0098ZM9.96094 18.3496L9.96094 1.74805Q11.6895 1.74805 13.1934 2.3877Q14.6973 3.02734 15.835 4.16992Q16.9727 5.3125 17.6172 6.81641Q18.2617 8.32031 18.2617 10.0488Q18.2617 11.7773 17.6221 13.2812Q16.9824 14.7852 15.8447 15.9229Q14.707 17.0605 13.1982 17.7051Q11.6895 18.3496 9.96094 18.3496Z" fill="#ffffff"/>
 </g>
</svg>
