<?xml version="1.0" encoding="UTF-8"?>
<!--Generator: Apple Native CoreSVG 175.5-->
<!DOCTYPE svg
PUBLIC "-//W3C//DTD SVG 1.1//EN"
       "http://www.w3.org/Graphics/SVG/1.1/DTD/svg11.dtd">
<svg version="1.1" xmlns="http://www.w3.org/2000/svg" xmlns:xlink="http://www.w3.org/1999/xlink" width="19.9219" height="19.9316">
 <g>
  <rect height="19.9316" opacity="0" width="19.9219" x="0" y="0"/>
  <path d="M9.96094 19.9316Q12.002 19.9316 13.8037 19.1504Q15.6055 18.3691 16.9824 16.9922Q18.3594 15.6152 19.1406 13.8135Q19.9219 12.0117 19.9219 9.9707Q19.9219 7.92969 19.1406 6.12793Q18.3594 4.32617 16.9824 2.94922Q15.6055 1.57227 13.7988 0.791016Q11.9922 0.00976562 9.95117 0.00976562Q7.91016 0.00976562 6.1084 0.791016Q4.30664 1.57227 2.93457 2.94922Q1.5625 4.32617 0.78125 6.12793Q0 7.92969 0 9.9707Q0 12.0117 0.78125 13.8135Q1.5625 15.6152 2.93945 16.9922Q4.31641 18.3691 6.11816 19.1504Q7.91992 19.9316 9.96094 19.9316Z" fill="#ffffff"/>
  <path d="M10.2344 15.8301Q8.99414 15.8301 7.92969 15.415Q6.86523 15 6.07422 14.2383Q5.2832 13.4766 4.83887 12.4365Q4.39453 11.3965 4.39453 10.1562Q4.39453 8.96484 4.8291 7.87598Q5.26367 6.78711 6.0498 5.95703Q6.83594 5.12695 7.88086 4.70703Q7.96875 4.66797 8.06152 4.6582Q8.1543 4.64844 8.20312 4.64844Q8.35938 4.64844 8.44727 4.75098Q8.53516 4.85352 8.53516 4.9707Q8.53516 5.00977 8.52539 5.06836Q8.51562 5.12695 8.47656 5.23438Q8.33008 5.58594 8.22266 6.17188Q8.11523 6.75781 8.11523 7.23633Q8.11523 8.75977 8.73047 9.87305Q9.3457 10.9863 10.4688 11.5918Q11.5918 12.1973 13.125 12.1973Q13.6426 12.1973 14.1357 12.1045Q14.6289 12.0117 14.9414 11.9043Q15.0977 11.8652 15.1855 11.8652Q15.3125 11.8652 15.415 11.958Q15.5176 12.0508 15.5176 12.2168Q15.5176 12.2461 15.5078 12.334Q15.498 12.4219 15.459 12.5195Q15.0977 13.4375 14.3262 14.1895Q13.5547 14.9414 12.5 15.3857Q11.4453 15.8301 10.2344 15.8301Z" fill="none"/>
 </g>
</svg>
