<?xml version="1.0" encoding="UTF-8"?>
<!--Generator: Apple Native CoreSVG 175.5-->
<!DOCTYPE svg
PUBLIC "-//W3C//DTD SVG 1.1//EN"
       "http://www.w3.org/Graphics/SVG/1.1/DTD/svg11.dtd">
<svg version="1.1" xmlns="http://www.w3.org/2000/svg" xmlns:xlink="http://www.w3.org/1999/xlink" width="18.7891" height="22.8418">
 <g>
  <rect height="22.8418" opacity="0" width="18.7891" x="0" y="0"/>
  <path d="M1.46484 8.23242L17.3242 8.23242Q17.832 8.23242 18.1104 7.99316Q18.3887 7.75391 18.4619 7.40723Q18.5352 7.06055 18.4131 6.7041Q18.291 6.34766 17.9883 6.12305L10.752 0.576172Q9.98047 0 9.39453 0Q8.80859 0 8.03711 0.576172L0.800781 6.12305Q0.498047 6.34766 0.375977 6.7041Q0.253906 7.06055 0.327148 7.40723Q0.400391 7.75391 0.678711 7.99316Q0.957031 8.23242 1.46484 8.23242ZM3.02734 6.77734Q2.85156 6.77734 2.8125 6.62598Q2.77344 6.47461 2.91016 6.35742L8.79883 1.8457Q9.04297 1.66016 9.39453 1.66504Q9.74609 1.66992 9.98047 1.8457L15.8789 6.35742Q16.0156 6.47461 15.9766 6.62598Q15.9375 6.77734 15.7617 6.77734ZM0.830078 12.2656L17.959 12.2656Q18.291 12.2656 18.54 12.0117Q18.7891 11.7578 18.7891 11.416Q18.7891 11.0742 18.54 10.8154Q18.291 10.5566 17.959 10.5566L0.830078 10.5566Q0.498047 10.5566 0.249023 10.8154Q0 11.0742 0 11.416Q0 11.7578 0.249023 12.0117Q0.498047 12.2656 0.830078 12.2656ZM1.46484 14.5996Q0.957031 14.5996 0.678711 14.834Q0.400391 15.0684 0.327148 15.4199Q0.253906 15.7715 0.375977 16.123Q0.498047 16.4746 0.800781 16.709L8.03711 22.2559Q8.80859 22.832 9.39453 22.832Q9.98047 22.832 10.752 22.2559L17.9883 16.709Q18.291 16.4746 18.4131 16.123Q18.5352 15.7715 18.4619 15.4199Q18.3887 15.0684 18.1104 14.834Q17.832 14.5996 17.3242 14.5996ZM3.02734 16.0547L15.7617 16.0547Q15.9375 16.0547 15.9766 16.2061Q16.0156 16.3574 15.8789 16.4746L9.98047 20.9863Q9.74609 21.1621 9.39453 21.167Q9.04297 21.1719 8.79883 20.9863L2.91016 16.4746Q2.77344 16.3574 2.8125 16.2061Q2.85156 16.0547 3.02734 16.0547Z" fill="#ffffff"/>
 </g>
</svg>
