<?xml version="1.0" encoding="UTF-8"?>
<!--Generator: Apple Native CoreSVG 175.5-->
<!DOCTYPE svg
PUBLIC "-//W3C//DTD SVG 1.1//EN"
       "http://www.w3.org/Graphics/SVG/1.1/DTD/svg11.dtd">
<svg version="1.1" xmlns="http://www.w3.org/2000/svg" xmlns:xlink="http://www.w3.org/1999/xlink" width="22.4805" height="19.4824">
 <g>
  <rect height="19.4824" opacity="0" width="22.4805" x="0" y="0"/>
  <path d="M0 16.9141Q0 17.666 0.356445 18.2422Q0.712891 18.8184 1.34277 19.1406Q1.97266 19.4629 2.7832 19.4629Q3.33008 19.4629 3.9502 19.248Q4.57031 19.0332 5.12207 18.5742Q5.67383 18.1152 6.02539 17.3633Q6.37695 16.6113 6.37695 15.5469L6.37695 5.63477Q6.37695 5.37109 6.18652 5.17578Q5.99609 4.98047 5.72266 4.98047Q5.44922 4.98047 5.25391 5.17578Q5.05859 5.37109 5.05859 5.63477L5.05859 12.8125Q5.05859 13.1738 4.91211 13.4033Q4.76562 13.6328 4.44336 13.6914L2.89062 14.0137Q1.41602 14.3262 0.708008 15.0635Q0 15.8008 0 16.9141ZM8.86719 11.9336Q8.86719 12.6855 9.22363 13.2568Q9.58008 13.8281 10.21 14.1553Q10.8398 14.4824 11.6504 14.4824Q12.1875 14.4824 12.8125 14.2676Q13.4375 14.0527 13.9893 13.5889Q14.541 13.125 14.8926 12.3779Q15.2441 11.6309 15.2441 10.5566L15.2441 0.654297Q15.2441 0.380859 15.0537 0.19043Q14.8633 0 14.5898 0Q14.3164 0 14.1211 0.19043Q13.9258 0.380859 13.9258 0.654297L13.9258 7.83203Q13.9258 8.19336 13.7793 8.41797Q13.6328 8.64258 13.3105 8.71094L11.7578 9.0332Q10.2734 9.3457 9.57031 10.0781Q8.86719 10.8105 8.86719 11.9336ZM16.1035 16.9141Q16.1035 17.666 16.46 18.2422Q16.8164 18.8184 17.4414 19.1406Q18.0664 19.4629 18.8867 19.4629Q19.4238 19.4629 20.0439 19.2529Q20.6641 19.043 21.2207 18.5791Q21.7773 18.1152 22.1289 17.3682Q22.4805 16.6211 22.4805 15.5469L22.4805 5.63477Q22.4805 5.37109 22.2852 5.17578Q22.0898 4.98047 21.8262 4.98047Q21.5527 4.98047 21.3574 5.17578Q21.1621 5.37109 21.1621 5.63477L21.1621 12.8125Q21.1621 13.1738 21.0107 13.4033Q20.8594 13.6328 20.5469 13.6914L18.9844 14.0234Q17.5098 14.3262 16.8066 15.0635Q16.1035 15.8008 16.1035 16.9141Z" fill="#ffffff"/>
 </g>
</svg>
