<?xml version="1.0" encoding="UTF-8"?>
<!--Generator: Apple Native CoreSVG 175.5-->
<!DOCTYPE svg
PUBLIC "-//W3C//DTD SVG 1.1//EN"
       "http://www.w3.org/Graphics/SVG/1.1/DTD/svg11.dtd">
<svg version="1.1" xmlns="http://www.w3.org/2000/svg" xmlns:xlink="http://www.w3.org/1999/xlink" width="24.4141" height="20.1855">
 <g>
  <rect height="20.1855" opacity="0" width="24.4141" x="0" y="0"/>
  <path d="M2.50977 16.875L21.9043 16.875Q23.1641 16.875 23.7891 16.2646Q24.4141 15.6543 24.4141 14.3652L24.4141 3.17383Q24.4141 1.89453 23.7891 1.28418Q23.1641 0.673828 21.9043 0.673828L2.50977 0.673828Q1.25977 0.673828 0.629883 1.28418Q0 1.89453 0 3.17383L0 14.3652Q0 15.6543 0.629883 16.2646Q1.25977 16.875 2.50977 16.875ZM7.29492 20.1855L17.1191 20.1855Q17.4414 20.1855 17.6758 19.9561Q17.9102 19.7266 17.9102 19.3945Q17.9102 19.0723 17.6758 18.8379Q17.4414 18.6035 17.1191 18.6035L7.29492 18.6035Q6.97266 18.6035 6.73828 18.8379Q6.50391 19.0723 6.50391 19.3945Q6.50391 19.7266 6.73828 19.9561Q6.97266 20.1855 7.29492 20.1855Z" fill="#ffffff"/>
  <path d="M15.3027 6.88477L12.9004 7.46094Q12.7246 7.50977 12.6514 7.6123Q12.5781 7.71484 12.5781 7.99805L12.5781 11.5039Q12.5781 12.6172 11.8994 13.3252Q11.2207 14.0332 10.127 14.0332Q9.3457 14.0332 8.8916 13.6133Q8.4375 13.1934 8.4375 12.5391Q8.4375 11.7871 8.94531 11.3525Q9.45312 10.918 10.1465 10.7324L11.0938 10.4883Q11.4844 10.3906 11.5674 10.2686Q11.6504 10.1465 11.6504 9.80469L11.6504 5.19531Q11.6504 4.73633 11.7676 4.59473Q11.8848 4.45312 12.2656 4.36523L15.2637 3.61328Q15.6738 3.50586 15.8057 3.62793Q15.9375 3.75 15.9375 4.04297L15.9375 6.05469Q15.9375 6.50391 15.8057 6.64551Q15.6738 6.78711 15.3027 6.88477Z" fill="none"/>
 </g>
</svg>
