<?xml version="1.0" encoding="UTF-8"?>
<!--Generator: Apple Native CoreSVG 175-->
<!DOCTYPE svg
PUBLIC "-//W3C//DTD SVG 1.1//EN"
       "http://www.w3.org/Graphics/SVG/1.1/DTD/svg11.dtd">
<svg version="1.1" xmlns="http://www.w3.org/2000/svg" xmlns:xlink="http://www.w3.org/1999/xlink" width="19.1602" height="19.1504">
 <g>
  <rect height="19.1504" opacity="0" width="19.1602" x="0" y="0"/>
  <path d="M9.57031 19.1406Q11.5527 19.1406 13.2861 18.3984Q15.0195 17.6562 16.3379 16.333Q17.6562 15.0098 18.4082 13.2764Q19.1602 11.543 19.1602 9.57031Q19.1602 7.59766 18.4082 5.86426Q17.6562 4.13086 16.3379 2.80762Q15.0195 1.48438 13.2861 0.742188Q11.5527 0 9.57031 0Q7.59766 0 5.86426 0.742188Q4.13086 1.48438 2.81738 2.80762Q1.50391 4.13086 0.751953 5.86426Q0 7.59766 0 9.57031Q0 11.543 0.74707 13.2764Q1.49414 15.0098 2.8125 16.333Q4.13086 17.6562 5.86914 18.3984Q7.60742 19.1406 9.57031 19.1406ZM6.60156 13.9941Q6.43555 13.9941 6.33789 13.8916Q6.24023 13.7891 6.24023 13.6133L6.24023 5.6543Q6.24023 5.39062 6.36719 5.25879Q6.49414 5.12695 6.71875 5.12695Q6.89453 5.12695 7.00684 5.2002Q7.11914 5.27344 7.23633 5.43945L12.1191 12.8125L12.168 12.8125L12.168 5.49805Q12.168 5.32227 12.2656 5.22461Q12.3633 5.12695 12.5293 5.12695Q12.6953 5.12695 12.7979 5.22461Q12.9004 5.32227 12.9004 5.49805L12.9004 13.5156Q12.9004 13.7402 12.7686 13.8672Q12.6367 13.9941 12.4121 13.9941Q12.2559 13.9941 12.1436 13.9307Q12.0312 13.8672 11.9043 13.6816L7.01172 6.32812L6.97266 6.32812L6.97266 13.6133Q6.97266 13.7988 6.87012 13.8965Q6.76758 13.9941 6.60156 13.9941Z" fill="#ffffff"/>
 </g>
</svg>
