<?xml version="1.0" encoding="UTF-8"?>
<!--Generator: Apple Native CoreSVG 175-->
<!DOCTYPE svg
PUBLIC "-//W3C//DTD SVG 1.1//EN"
       "http://www.w3.org/Graphics/SVG/1.1/DTD/svg11.dtd">
<svg version="1.1" xmlns="http://www.w3.org/2000/svg" xmlns:xlink="http://www.w3.org/1999/xlink" width="17.2852" height="17.3145">
 <g>
  <rect height="17.3145" opacity="0" width="17.2852" x="0" y="0"/>
  <path d="M2.62695 17.3145L14.6484 17.3145Q15.957 17.3145 16.6211 16.6455Q17.2852 15.9766 17.2852 14.6875L17.2852 2.65625Q17.2852 1.37695 16.6211 0.703125Q15.957 0.0292969 14.6484 0.0292969L2.62695 0.0292969Q1.33789 0.0292969 0.668945 0.693359Q0 1.35742 0 2.65625L0 14.6875Q0 15.9863 0.668945 16.6504Q1.33789 17.3145 2.62695 17.3145ZM2.65625 16.5918Q1.70898 16.5918 1.2207 16.1035Q0.732422 15.6152 0.732422 14.6582L0.732422 2.69531Q0.732422 1.72852 1.2207 1.24512Q1.70898 0.761719 2.65625 0.761719L14.6289 0.761719Q15.5566 0.761719 16.0596 1.24512Q16.5625 1.72852 16.5625 2.69531L16.5625 14.6582Q16.5625 15.6152 16.0596 16.1035Q15.5566 16.5918 14.6289 16.5918ZM5.22461 8.84766Q5.22461 8.97461 5.30762 9.05762Q5.39062 9.14062 5.53711 9.14062L5.98633 9.14062L5.98633 12.7637Q5.98633 12.9199 6.08887 13.0127Q6.19141 13.1055 6.31836 13.1055Q6.46484 13.1055 6.55762 13.0127Q6.65039 12.9199 6.65039 12.7637L6.65039 9.14062L8.4668 9.14062L10.4883 12.8223Q10.5664 12.959 10.6689 13.0322Q10.7715 13.1055 10.918 13.1055Q11.0938 13.1055 11.2012 12.9932Q11.3086 12.8809 11.3086 12.6953L11.3086 9.14062L11.7773 9.14062Q11.9141 9.14062 11.9971 9.05273Q12.0801 8.96484 12.0801 8.84766Q12.0801 8.7207 11.9971 8.63281Q11.9141 8.54492 11.7773 8.54492L11.3086 8.54492L11.3086 4.80469Q11.3086 4.6582 11.2158 4.56543Q11.123 4.47266 10.9766 4.47266Q10.8496 4.47266 10.752 4.56543Q10.6543 4.6582 10.6543 4.80469L10.6543 8.54492L8.88672 8.54492L6.80664 4.75586Q6.73828 4.61914 6.63574 4.55078Q6.5332 4.48242 6.38672 4.48242Q6.2207 4.48242 6.10352 4.58496Q5.98633 4.6875 5.98633 4.88281L5.98633 8.55469L5.53711 8.55469Q5.40039 8.55469 5.3125 8.64258Q5.22461 8.73047 5.22461 8.84766ZM6.65039 8.55469L6.65039 5.78125L8.16406 8.55469ZM9.20898 9.14062L10.6543 9.14062L10.6543 11.7969Z" fill="#ffffff"/>
 </g>
</svg>
