<?xml version="1.0" encoding="UTF-8"?>
<!--Generator: Apple Native CoreSVG 175-->
<!DOCTYPE svg
PUBLIC "-//W3C//DTD SVG 1.1//EN"
       "http://www.w3.org/Graphics/SVG/1.1/DTD/svg11.dtd">
<svg version="1.1" xmlns="http://www.w3.org/2000/svg" xmlns:xlink="http://www.w3.org/1999/xlink" width="19.1602" height="19.1504">
 <g>
  <rect height="19.1504" opacity="0" width="19.1602" x="0" y="0"/>
  <path d="M9.57031 19.1504Q11.5527 19.1504 13.2861 18.4082Q15.0195 17.666 16.3379 16.3428Q17.6562 15.0195 18.4082 13.2861Q19.1602 11.5527 19.1602 9.58008Q19.1602 7.60742 18.4082 5.87402Q17.6562 4.14062 16.3379 2.81738Q15.0195 1.49414 13.2861 0.751953Q11.5527 0.00976562 9.57031 0.00976562Q7.59766 0.00976562 5.86426 0.751953Q4.13086 1.49414 2.81738 2.81738Q1.50391 4.14062 0.751953 5.87402Q0 7.60742 0 9.58008Q0 11.5527 0.74707 13.2861Q1.49414 15.0195 2.8125 16.3428Q4.13086 17.666 5.86914 18.4082Q7.60742 19.1504 9.57031 19.1504ZM4.51172 9.19922Q4.51172 8.87695 4.70215 8.69629Q4.89258 8.51562 5.22461 8.51562L5.75195 8.51562L5.75195 13.6328Q5.75195 13.916 5.56152 14.0576Q5.37109 14.1992 5.14648 14.209Q4.89258 14.209 4.70215 14.0674Q4.51172 13.9258 4.51172 13.6328ZM5.80078 14.6191Q6.30859 14.4531 6.30859 13.8281L6.30859 5.84961Q6.30859 5.22461 6.63086 4.90234Q6.95312 4.58008 7.58789 4.58008L13.3496 4.58008Q13.9746 4.58008 14.2969 4.90234Q14.6191 5.22461 14.6191 5.84961L14.6191 13.3496Q14.6191 13.9746 14.2969 14.2969Q13.9746 14.6191 13.3496 14.6191ZM8.14453 7.23633L12.7832 7.23633Q12.8906 7.23633 12.9688 7.1582Q13.0469 7.08008 13.0469 6.98242Q13.0469 6.72852 12.7832 6.72852L8.14453 6.72852Q7.89062 6.72852 7.89062 6.98242Q7.89062 7.08008 7.96387 7.1582Q8.03711 7.23633 8.14453 7.23633ZM8.14453 8.98438L12.7832 8.98438Q13.0469 8.98438 13.0469 8.73047Q13.0469 8.61328 12.9736 8.54004Q12.9004 8.4668 12.7832 8.4668L8.14453 8.4668Q7.89062 8.4668 7.89062 8.73047Q7.89062 8.98438 8.14453 8.98438ZM11.1328 10.8203L12.7832 10.8203Q12.8906 10.8203 12.9639 10.7422Q13.0371 10.6641 13.0371 10.5664Q13.0371 10.3027 12.7832 10.3027L11.1328 10.3027Q11.0156 10.3027 10.9473 10.376Q10.8789 10.4492 10.8789 10.5664Q10.8789 10.6641 10.9473 10.7422Q11.0156 10.8203 11.1328 10.8203ZM11.1328 12.4609L12.7832 12.4609Q12.9004 12.4609 12.9688 12.3926Q13.0371 12.3242 13.0371 12.207Q13.0371 12.0996 12.9639 12.0264Q12.8906 11.9531 12.7832 11.9531L11.1328 11.9531Q11.0156 11.9531 10.9473 12.0264Q10.8789 12.0996 10.8789 12.207Q10.8789 12.3242 10.9473 12.3926Q11.0156 12.4609 11.1328 12.4609ZM8.36914 12.4609L9.60938 12.4609Q9.85352 12.4609 9.99023 12.3242Q10.127 12.1875 10.127 11.9434L10.127 10.8203Q10.127 10.3027 9.60938 10.3027L8.36914 10.3027Q7.86133 10.3027 7.86133 10.8203L7.86133 11.9434Q7.86133 12.1875 7.99805 12.3242Q8.13477 12.4609 8.36914 12.4609Z" fill="rgba(0,0,0,0.85)"/>
 </g>
</svg>
