<?xml version="1.0" encoding="UTF-8"?>
<!--Generator: Apple Native CoreSVG 175.5-->
<!DOCTYPE svg
PUBLIC "-//W3C//DTD SVG 1.1//EN"
       "http://www.w3.org/Graphics/SVG/1.1/DTD/svg11.dtd">
<svg version="1.1" xmlns="http://www.w3.org/2000/svg" xmlns:xlink="http://www.w3.org/1999/xlink" width="19.9219" height="19.9316">
 <g>
  <rect height="19.9316" opacity="0" width="19.9219" x="0" y="0"/>
  <path d="M9.96094 19.9316Q12.002 19.9316 13.8037 19.1504Q15.6055 18.3691 16.9824 16.9922Q18.3594 15.6152 19.1406 13.8135Q19.9219 12.0117 19.9219 9.9707Q19.9219 7.92969 19.1406 6.12793Q18.3594 4.32617 16.9824 2.94922Q15.6055 1.57227 13.7988 0.791016Q11.9922 0.00976562 9.95117 0.00976562Q7.91016 0.00976562 6.1084 0.791016Q4.30664 1.57227 2.93457 2.94922Q1.5625 4.32617 0.78125 6.12793Q0 7.92969 0 9.9707Q0 12.0117 0.78125 13.8135Q1.5625 15.6152 2.93945 16.9922Q4.31641 18.3691 6.11816 19.1504Q7.91992 19.9316 9.96094 19.9316Z" fill="#ffffff"/>
  <path d="M4.72656 9.52148Q4.72656 9.10156 4.97559 8.87207Q5.22461 8.64258 5.64453 8.64258L5.87891 8.64258L5.87891 13.6914Q5.87891 13.9453 5.70801 14.0967Q5.53711 14.248 5.30273 14.2578Q5.04883 14.2578 4.8877 14.1064Q4.72656 13.9551 4.72656 13.6914ZM6.29883 14.9805Q6.78711 14.707 6.78711 14.0039L6.78711 6.41602Q6.78711 5.68359 7.14844 5.32715Q7.50977 4.9707 8.24219 4.9707L13.7012 4.9707Q14.4336 4.9707 14.7998 5.32715Q15.166 5.68359 15.166 6.41602L15.166 13.5352Q15.166 14.2578 14.7998 14.6191Q14.4336 14.9805 13.7012 14.9805ZM8.68164 7.77344L13.2617 7.77344Q13.4082 7.77344 13.4961 7.68066Q13.584 7.58789 13.584 7.45117Q13.584 7.1582 13.2617 7.1582L8.68164 7.1582Q8.36914 7.1582 8.36914 7.45117Q8.36914 7.58789 8.45703 7.68066Q8.54492 7.77344 8.68164 7.77344ZM8.68164 9.41406L13.2617 9.41406Q13.584 9.41406 13.584 9.11133Q13.584 8.97461 13.4961 8.88672Q13.4082 8.79883 13.2617 8.79883L8.68164 8.79883Q8.36914 8.79883 8.36914 9.11133Q8.36914 9.41406 8.68164 9.41406ZM11.582 11.0938L13.2617 11.0938Q13.4082 11.0938 13.4961 11.001Q13.584 10.9082 13.584 10.791Q13.584 10.4688 13.2617 10.4688L11.582 10.4688Q11.4453 10.4688 11.3574 10.5615Q11.2695 10.6543 11.2695 10.791Q11.2695 10.9082 11.3574 11.001Q11.4453 11.0938 11.582 11.0938ZM11.582 12.7441L13.2617 12.7441Q13.4082 12.7441 13.4961 12.6611Q13.584 12.5781 13.584 12.4414Q13.584 12.3047 13.4961 12.2168Q13.4082 12.1289 13.2617 12.1289L11.582 12.1289Q11.4453 12.1289 11.3574 12.2168Q11.2695 12.3047 11.2695 12.4414Q11.2695 12.5781 11.3574 12.6611Q11.4453 12.7441 11.582 12.7441ZM8.89648 12.7441L10.0684 12.7441Q10.332 12.7441 10.4834 12.6025Q10.6348 12.4609 10.6348 12.1973L10.6348 11.0254Q10.6348 10.4688 10.0684 10.4688L8.89648 10.4688Q8.35938 10.4688 8.35938 11.0254L8.35938 12.1973Q8.35938 12.4609 8.50098 12.6025Q8.64258 12.7441 8.89648 12.7441Z" fill="none"/>
 </g>
</svg>
