<?xml version="1.0" encoding="UTF-8"?>
<!--Generator: Apple Native CoreSVG 175.5-->
<!DOCTYPE svg
PUBLIC "-//W3C//DTD SVG 1.1//EN"
       "http://www.w3.org/Graphics/SVG/1.1/DTD/svg11.dtd">
<svg version="1.1" xmlns="http://www.w3.org/2000/svg" xmlns:xlink="http://www.w3.org/1999/xlink" width="19.9219" height="19.9316">
 <g>
  <rect height="19.9316" opacity="0" width="19.9219" x="0" y="0"/>
  <path d="M9.96094 19.9219Q12.002 19.9219 13.8037 19.1406Q15.6055 18.3594 16.9824 16.9824Q18.3594 15.6055 19.1406 13.8037Q19.9219 12.002 19.9219 9.96094Q19.9219 7.91992 19.1406 6.11816Q18.3594 4.31641 16.9824 2.93945Q15.6055 1.5625 13.7988 0.78125Q11.9922 0 9.95117 0Q7.91016 0 6.1084 0.78125Q4.30664 1.5625 2.93457 2.93945Q1.5625 4.31641 0.78125 6.11816Q0 7.91992 0 9.96094Q0 12.002 0.78125 13.8037Q1.5625 15.6055 2.93945 16.9824Q4.31641 18.3594 6.11816 19.1406Q7.91992 19.9219 9.96094 19.9219ZM9.96094 18.2617Q8.23242 18.2617 6.72852 17.6172Q5.22461 16.9727 4.08691 15.835Q2.94922 14.6973 2.30957 13.1934Q1.66992 11.6895 1.66992 9.96094Q1.66992 8.23242 2.30957 6.72852Q2.94922 5.22461 4.08203 4.08203Q5.21484 2.93945 6.71875 2.2998Q8.22266 1.66016 9.95117 1.66016Q11.6797 1.66016 13.1885 2.2998Q14.6973 2.93945 15.835 4.08203Q16.9727 5.22461 17.6172 6.72852Q18.2617 8.23242 18.2617 9.96094Q18.2617 11.6895 17.6221 13.1934Q16.9824 14.6973 15.8398 15.835Q14.6973 16.9727 13.1934 17.6172Q11.6895 18.2617 9.96094 18.2617Z" fill="#ffffff"/>
  <path d="M4.80469 9.52148L4.80469 13.623Q4.80469 13.8867 4.96582 14.0332Q5.12695 14.1797 5.37109 14.1797Q5.61523 14.1699 5.78125 14.0234Q5.94727 13.877 5.94727 13.623L5.94727 8.65234L5.72266 8.65234Q5.30273 8.65234 5.05371 8.88184Q4.80469 9.11133 4.80469 9.52148ZM6.35742 14.8926L13.6426 14.8926Q14.3652 14.8926 14.7266 14.541Q15.0879 14.1895 15.0879 13.4766L15.0879 6.45508Q15.0879 5.74219 14.7266 5.39062Q14.3652 5.03906 13.6426 5.03906L8.28125 5.03906Q7.55859 5.03906 7.19727 5.39062Q6.83594 5.74219 6.83594 6.45508L6.83594 13.9355Q6.83594 14.6289 6.35742 14.8926ZM8.71094 7.79297Q8.56445 7.79297 8.47656 7.70508Q8.38867 7.61719 8.38867 7.48047Q8.38867 7.1875 8.71094 7.1875L13.2227 7.1875Q13.5254 7.1875 13.5254 7.48047Q13.5254 7.61719 13.4375 7.70508Q13.3496 7.79297 13.2227 7.79297ZM8.71094 9.41406Q8.38867 9.41406 8.38867 9.11133Q8.38867 8.80859 8.71094 8.80859L13.2227 8.80859Q13.3594 8.80859 13.4424 8.8916Q13.5254 8.97461 13.5254 9.11133Q13.5254 9.41406 13.2227 9.41406ZM11.5625 11.0645Q11.4258 11.0645 11.3379 10.9766Q11.25 10.8887 11.25 10.7715Q11.25 10.4492 11.5625 10.4492L13.2227 10.4492Q13.5254 10.4492 13.5254 10.7715Q13.5254 11.0645 13.2227 11.0645ZM11.5625 12.6953Q11.25 12.6953 11.25 12.3926Q11.25 12.2656 11.3379 12.1777Q11.4258 12.0898 11.5625 12.0898L13.2227 12.0898Q13.3496 12.0898 13.4375 12.1777Q13.5254 12.2656 13.5254 12.3926Q13.5254 12.6953 13.2227 12.6953ZM8.92578 12.6953Q8.38867 12.6953 8.38867 12.1582L8.38867 10.9961Q8.38867 10.4492 8.92578 10.4492L10.0781 10.4492Q10.625 10.4492 10.625 10.9961L10.625 12.1582Q10.625 12.6953 10.0781 12.6953Z" fill="#ffffff"/>
 </g>
</svg>
