<?xml version="1.0" encoding="UTF-8"?>
<!--Generator: Apple Native CoreSVG 175-->
<!DOCTYPE svg
PUBLIC "-//W3C//DTD SVG 1.1//EN"
       "http://www.w3.org/Graphics/SVG/1.1/DTD/svg11.dtd">
<svg version="1.1" xmlns="http://www.w3.org/2000/svg" xmlns:xlink="http://www.w3.org/1999/xlink" width="19.1699" height="17.3145">
 <g>
  <rect height="17.3145" opacity="0" width="19.1699" x="0" y="0"/>
  <path d="M2.62695 17.3145L16.543 17.3145Q17.8418 17.3145 18.5059 16.6455Q19.1699 15.9766 19.1699 14.6875L19.1699 2.65625Q19.1699 1.37695 18.5059 0.703125Q17.8418 0.0292969 16.543 0.0292969L2.62695 0.0292969Q1.33789 0.0292969 0.668945 0.693359Q0 1.35742 0 2.65625L0 14.6875Q0 15.9863 0.668945 16.6504Q1.33789 17.3145 2.62695 17.3145ZM2.62695 16.5918Q1.68945 16.5918 1.21094 16.1084Q0.732422 15.625 0.732422 14.6875L0.732422 6.12305Q0.732422 5.17578 1.21094 4.69727Q1.68945 4.21875 2.62695 4.21875L16.543 4.21875Q17.4512 4.21875 17.9492 4.69727Q18.4473 5.17578 18.4473 6.12305L18.4473 14.6875Q18.4473 15.625 17.9492 16.1084Q17.4512 16.5918 16.543 16.5918ZM4.00391 7.64648L15.1855 7.64648Q15.3223 7.64648 15.415 7.54883Q15.5078 7.45117 15.5078 7.31445Q15.5078 7.1875 15.415 7.09473Q15.3223 7.00195 15.1855 7.00195L4.00391 7.00195Q3.85742 7.00195 3.76465 7.09473Q3.67188 7.1875 3.67188 7.31445Q3.67188 7.45117 3.76465 7.54883Q3.85742 7.64648 4.00391 7.64648ZM4.00391 10.7324L15.1855 10.7324Q15.3223 10.7324 15.415 10.6396Q15.5078 10.5469 15.5078 10.4102Q15.5078 10.2832 15.415 10.1855Q15.3223 10.0879 15.1855 10.0879L4.00391 10.0879Q3.85742 10.0879 3.76465 10.1855Q3.67188 10.2832 3.67188 10.4102Q3.67188 10.5469 3.76465 10.6396Q3.85742 10.7324 4.00391 10.7324ZM4.00391 13.8184L11.4453 13.8184Q11.582 13.8184 11.6748 13.7256Q11.7676 13.6328 11.7676 13.4961Q11.7676 13.3691 11.6748 13.2715Q11.582 13.1738 11.4453 13.1738L4.00391 13.1738Q3.85742 13.1738 3.76465 13.2715Q3.67188 13.3691 3.67188 13.4961Q3.67188 13.6328 3.76465 13.7256Q3.85742 13.8184 4.00391 13.8184Z" fill="rgba(0,0,0,0.85)"/>
 </g>
</svg>
