<?xml version="1.0" encoding="UTF-8"?>
<!--Generator: Apple Native CoreSVG 175-->
<!DOCTYPE svg
PUBLIC "-//W3C//DTD SVG 1.1//EN"
       "http://www.w3.org/Graphics/SVG/1.1/DTD/svg11.dtd">
<svg version="1.1" xmlns="http://www.w3.org/2000/svg" xmlns:xlink="http://www.w3.org/1999/xlink" width="19.1747" height="17.323">
 <g>
  <rect height="17.323" opacity="0" width="19.1747" x="0" y="0"/>
  <path d="M2.63046 17.323L16.5398 17.323Q17.841 17.323 18.5078 16.6505Q19.1747 15.9781 19.1747 14.6965L19.1747 2.66006Q19.1747 1.37848 18.5078 0.706024Q17.841 0.0335693 16.5398 0.0335693L2.63046 0.0335693Q1.33636 0.0335693 0.668182 0.699005Q0 1.36444 0 2.66006L0 14.6965Q0 15.9921 0.668182 16.6576Q1.33636 17.323 2.63046 17.323ZM2.62466 16.5945Q1.69189 16.5945 1.21025 16.1143Q0.728607 15.634 0.728607 14.693L0.728607 6.12381Q0.728607 5.1828 1.21025 4.70253Q1.69189 4.22226 2.62466 4.22226L16.5472 4.22226Q17.4547 4.22226 17.9504 4.70253Q18.446 5.1828 18.446 6.12381L18.446 14.693Q18.446 15.634 17.9504 16.1143Q17.4547 16.5945 16.5472 16.5945Z" fill="rgba(0,0,0,0.85)"/>
 </g>
</svg>
