<?xml version="1.0" encoding="UTF-8"?>
<!--Generator: Apple Native CoreSVG 175-->
<!DOCTYPE svg
PUBLIC "-//W3C//DTD SVG 1.1//EN"
       "http://www.w3.org/Graphics/SVG/1.1/DTD/svg11.dtd">
<svg version="1.1" xmlns="http://www.w3.org/2000/svg" xmlns:xlink="http://www.w3.org/1999/xlink" width="17.2852" height="17.3145">
 <g>
  <rect height="17.3145" opacity="0" width="17.2852" x="0" y="0"/>
  <path d="M2.62695 17.3145L14.6484 17.3145Q15.957 17.3145 16.6211 16.6455Q17.2852 15.9766 17.2852 14.6875L17.2852 2.65625Q17.2852 1.37695 16.6211 0.703125Q15.957 0.0292969 14.6484 0.0292969L2.62695 0.0292969Q1.33789 0.0292969 0.668945 0.693359Q0 1.35742 0 2.65625L0 14.6875Q0 15.9863 0.668945 16.6504Q1.33789 17.3145 2.62695 17.3145ZM6.33789 13.0762Q6.17188 13.0762 6.06934 12.959Q5.9668 12.8418 5.99609 12.6758L6.47461 10.4102L5.24414 10.4102Q5.10742 10.4102 5.02441 10.3271Q4.94141 10.2441 4.94141 10.1074Q4.94141 9.95117 5.03418 9.8584Q5.12695 9.76562 5.29297 9.76562L6.63086 9.76562L7.10938 7.42188L5.9375 7.42188Q5.80078 7.42188 5.71777 7.34375Q5.63477 7.26562 5.63477 7.12891Q5.63477 6.97266 5.73242 6.87988Q5.83008 6.78711 5.98633 6.78711L7.24609 6.78711L7.72461 4.53125Q7.79297 4.21875 8.10547 4.21875Q8.27148 4.21875 8.37402 4.33594Q8.47656 4.45312 8.4375 4.61914L7.96875 6.78711L10.1172 6.78711L10.6055 4.53125Q10.6738 4.21875 10.9766 4.21875Q11.1426 4.21875 11.2451 4.33594Q11.3477 4.45312 11.3184 4.61914L10.8594 6.78711L12.0312 6.78711Q12.168 6.78711 12.2559 6.87012Q12.3438 6.95312 12.3438 7.08984Q12.3438 7.23633 12.2461 7.3291Q12.1484 7.42188 11.9922 7.42188L10.7324 7.42188L10.2246 9.76562L11.3379 9.76562Q11.4746 9.76562 11.5625 9.84863Q11.6504 9.93164 11.6504 10.0684Q11.6504 10.2148 11.5527 10.3125Q11.4551 10.4102 11.2988 10.4102L10.0781 10.4102L9.59961 12.7637Q9.53125 13.0762 9.20898 13.0762Q9.04297 13.0762 8.94043 12.959Q8.83789 12.8418 8.87695 12.6758L9.35547 10.4102L7.20703 10.4102L6.70898 12.7637Q6.64062 13.0762 6.33789 13.0762ZM7.33398 9.78516L9.51172 9.78516L10 7.40234L7.83203 7.40234Z" fill="rgba(0,0,0,0.85)"/>
 </g>
</svg>
