<?xml version="1.0" encoding="UTF-8"?>
<!--Generator: Apple Native CoreSVG 175.5-->
<!DOCTYPE svg
PUBLIC "-//W3C//DTD SVG 1.1//EN"
       "http://www.w3.org/Graphics/SVG/1.1/DTD/svg11.dtd">
<svg version="1.1" xmlns="http://www.w3.org/2000/svg" xmlns:xlink="http://www.w3.org/1999/xlink" width="17.9785" height="17.998">
 <g>
  <rect height="17.998" opacity="0" width="17.9785" x="0" y="0"/>
  <path d="M3.06641 17.998L14.9121 17.998Q16.4453 17.998 17.2119 17.2412Q17.9785 16.4844 17.9785 14.9707L17.9785 3.04688Q17.9785 1.5332 17.2119 0.776367Q16.4453 0.0195312 14.9121 0.0195312L3.06641 0.0195312Q1.5332 0.0195312 0.766602 0.776367Q0 1.5332 0 3.04688L0 14.9707Q0 16.4844 0.766602 17.2412Q1.5332 17.998 3.06641 17.998Z" fill="#ffffff"/>
  <path d="M6.39648 13.916Q6.08398 13.916 5.89355 13.6865Q5.70312 13.457 5.75195 13.1445L6.17188 11.1621L5.26367 11.1621Q5.01953 11.1621 4.85352 10.9961Q4.6875 10.8301 4.6875 10.5664Q4.6875 10.2832 4.87793 10.0879Q5.06836 9.89258 5.37109 9.89258L6.44531 9.89258L6.86523 7.85156L5.97656 7.85156Q5.73242 7.85156 5.56641 7.68555Q5.40039 7.51953 5.40039 7.25586Q5.40039 6.96289 5.5957 6.76758Q5.79102 6.57227 6.08398 6.57227L7.13867 6.57227L7.56836 4.51172Q7.68555 3.92578 8.30078 3.92578Q8.62305 3.92578 8.80859 4.16016Q8.99414 4.39453 8.92578 4.69727L8.53516 6.57227L10.4102 6.57227L10.8496 4.51172Q10.9668 3.92578 11.5723 3.92578Q11.8848 3.92578 12.0752 4.15527Q12.2656 4.38477 12.2168 4.69727L11.8164 6.57227L12.7148 6.57227Q12.959 6.57227 13.125 6.73828Q13.291 6.9043 13.291 7.16797Q13.291 7.46094 13.1006 7.65625Q12.9102 7.85156 12.6074 7.85156L11.5527 7.85156L11.1133 9.89258L11.9922 9.89258Q12.2461 9.89258 12.4121 10.0635Q12.5781 10.2344 12.5781 10.4883Q12.5781 10.7715 12.3828 10.9668Q12.1875 11.1621 11.8945 11.1621L10.8496 11.1621L10.4004 13.3398Q10.2832 13.916 9.64844 13.916Q9.33594 13.916 9.15039 13.6865Q8.96484 13.457 9.0332 13.1445L9.44336 11.1719L7.57812 11.1719L7.10938 13.3398Q6.99219 13.916 6.39648 13.916ZM7.75391 10.0098L9.76562 10.0098L10.2441 7.74414L8.22266 7.74414Z" fill="none"/>
 </g>
</svg>
