<?xml version="1.0" encoding="UTF-8"?>
<!--Generator: Apple Native CoreSVG 175.5-->
<!DOCTYPE svg
PUBLIC "-//W3C//DTD SVG 1.1//EN"
       "http://www.w3.org/Graphics/SVG/1.1/DTD/svg11.dtd">
<svg version="1.1" xmlns="http://www.w3.org/2000/svg" xmlns:xlink="http://www.w3.org/1999/xlink" width="18.5938" height="14.2871">
 <g>
  <rect height="14.2871" opacity="0" width="18.5938" x="0" y="0"/>
  <path d="M15.1953 6.81641Q16.1914 6.81641 16.958 6.3916Q17.7246 5.9668 18.1592 5.21484Q18.5938 4.46289 18.5938 3.47656Q18.5938 2.49023 18.1592 1.73828Q17.7246 0.986328 16.958 0.561523Q16.1914 0.136719 15.1953 0.136719Q14.2285 0.136719 13.4863 0.561523Q12.7441 0.986328 12.3242 1.73828Q11.9043 2.49023 11.9043 3.47656Q11.9043 4.46289 12.3242 5.21484Q12.7441 5.9668 13.4863 6.3916Q14.2285 6.81641 15.1953 6.81641ZM15.1953 5.51758Q14.4141 5.51758 13.9258 4.94629Q13.4375 4.375 13.4375 3.47656Q13.4375 2.57812 13.9258 2.01172Q14.4141 1.44531 15.1953 1.44531Q16.0254 1.44531 16.5381 2.01172Q17.0508 2.57812 17.0508 3.47656Q17.0508 4.375 16.5332 4.94629Q16.0156 5.51758 15.1953 5.51758ZM0.830078 14.2871Q1.2207 14.2871 1.44531 14.0527Q1.66992 13.8184 1.66992 13.4277L1.66992 3.22266L1.63086 3.22266L8.66211 13.6328Q8.91602 13.9941 9.14551 14.1406Q9.375 14.2871 9.69727 14.2871Q10.127 14.2871 10.3613 14.0332Q10.5957 13.7793 10.5957 13.3301L10.5957 1.06445Q10.5957 0.664062 10.3711 0.424805Q10.1465 0.185547 9.75586 0.185547Q9.375 0.185547 9.15039 0.424805Q8.92578 0.664062 8.92578 1.06445L8.92578 11.2598L8.96484 11.2598L1.93359 0.839844Q1.67969 0.46875 1.45508 0.327148Q1.23047 0.185547 0.898438 0.185547Q0.488281 0.185547 0.244141 0.449219Q0 0.712891 0 1.14258L0 13.4277Q0 13.8184 0.229492 14.0527Q0.458984 14.2871 0.830078 14.2871ZM12.8613 9.25781L17.6465 9.25781Q17.998 9.25781 18.2373 9.05273Q18.4766 8.84766 18.4766 8.48633Q18.4766 8.125 18.2373 7.91016Q17.998 7.69531 17.6465 7.69531L12.8613 7.69531Q12.5098 7.69531 12.2803 7.91016Q12.0508 8.125 12.0508 8.48633Q12.0508 8.84766 12.2803 9.05273Q12.5098 9.25781 12.8613 9.25781Z" fill="#ffffff"/>
 </g>
</svg>
