<?xml version="1.0" encoding="UTF-8"?>
<!--Generator: Apple Native CoreSVG 175.5-->
<!DOCTYPE svg
PUBLIC "-//W3C//DTD SVG 1.1//EN"
       "http://www.w3.org/Graphics/SVG/1.1/DTD/svg11.dtd">
<svg version="1.1" xmlns="http://www.w3.org/2000/svg" xmlns:xlink="http://www.w3.org/1999/xlink" width="19.9219" height="19.9316">
 <g>
  <rect height="19.9316" opacity="0" width="19.9219" x="0" y="0"/>
  <path d="M9.96094 19.9219Q12.002 19.9219 13.8037 19.1406Q15.6055 18.3594 16.9824 16.9824Q18.3594 15.6055 19.1406 13.8037Q19.9219 12.002 19.9219 9.96094Q19.9219 7.91992 19.1406 6.11816Q18.3594 4.31641 16.9824 2.93945Q15.6055 1.5625 13.7988 0.78125Q11.9922 0 9.95117 0Q7.91016 0 6.1084 0.78125Q4.30664 1.5625 2.93457 2.93945Q1.5625 4.31641 0.78125 6.11816Q0 7.91992 0 9.96094Q0 12.002 0.78125 13.8037Q1.5625 15.6055 2.93945 16.9824Q4.31641 18.3594 6.11816 19.1406Q7.91992 19.9219 9.96094 19.9219ZM9.96094 18.2617Q8.23242 18.2617 6.72852 17.6172Q5.22461 16.9727 4.08691 15.835Q2.94922 14.6973 2.30957 13.1934Q1.66992 11.6895 1.66992 9.96094Q1.66992 8.23242 2.30957 6.72852Q2.94922 5.22461 4.08203 4.08203Q5.21484 2.93945 6.71875 2.2998Q8.22266 1.66016 9.95117 1.66016Q11.6797 1.66016 13.1885 2.2998Q14.6973 2.93945 15.835 4.08203Q16.9727 5.22461 17.6172 6.72852Q18.2617 8.23242 18.2617 9.96094Q18.2617 11.6895 17.6221 13.1934Q16.9824 14.6973 15.8398 15.835Q14.6973 16.9727 13.1934 17.6172Q11.6895 18.2617 9.96094 18.2617Z" fill="#ffffff"/>
  <path d="M9.96094 14.541Q11.2012 14.541 12.1533 13.9502Q13.1055 13.3594 13.6426 12.3047Q14.1797 11.25 14.1797 9.87305Q14.1797 8.49609 13.6426 7.44141Q13.1055 6.38672 12.1533 5.79102Q11.2012 5.19531 9.96094 5.19531Q8.71094 5.19531 7.75879 5.79102Q6.80664 6.38672 6.26953 7.44141Q5.73242 8.49609 5.73242 9.87305Q5.73242 11.25 6.26953 12.3047Q6.80664 13.3594 7.75879 13.9502Q8.71094 14.541 9.96094 14.541ZM9.96094 13.3105Q9.15039 13.3105 8.5498 12.8857Q7.94922 12.4609 7.62207 11.6846Q7.29492 10.9082 7.29492 9.87305Q7.29492 8.82812 7.62207 8.05664Q7.94922 7.28516 8.5498 6.85547Q9.15039 6.42578 9.96094 6.42578Q10.7617 6.42578 11.3623 6.85547Q11.9629 7.28516 12.2949 8.05664Q12.627 8.82812 12.627 9.87305Q12.627 10.9082 12.2949 11.6846Q11.9629 12.4609 11.3623 12.8857Q10.7617 13.3105 9.96094 13.3105Z" fill="#ffffff"/>
 </g>
</svg>
