<?xml version="1.0" encoding="UTF-8"?>
<!--Generator: Apple Native CoreSVG 175-->
<!DOCTYPE svg
PUBLIC "-//W3C//DTD SVG 1.1//EN"
       "http://www.w3.org/Graphics/SVG/1.1/DTD/svg11.dtd">
<svg version="1.1" xmlns="http://www.w3.org/2000/svg" xmlns:xlink="http://www.w3.org/1999/xlink" width="17.2852" height="17.3145">
 <g>
  <rect height="17.3145" opacity="0" width="17.2852" x="0" y="0"/>
  <path d="M2.62695 17.3145L14.6484 17.3145Q15.957 17.3145 16.6211 16.6455Q17.2852 15.9766 17.2852 14.6875L17.2852 2.65625Q17.2852 1.37695 16.6211 0.703125Q15.957 0.0292969 14.6484 0.0292969L2.62695 0.0292969Q1.33789 0.0292969 0.668945 0.693359Q0 1.35742 0 2.65625L0 14.6875Q0 15.9863 0.668945 16.6504Q1.33789 17.3145 2.62695 17.3145ZM8.65234 13.1445Q7.46094 13.1445 6.57227 12.583Q5.68359 12.0215 5.18066 11.0059Q4.67773 9.99023 4.67773 8.64258Q4.67773 7.29492 5.18066 6.2793Q5.68359 5.26367 6.57227 4.69727Q7.46094 4.13086 8.65234 4.13086Q9.83398 4.13086 10.7275 4.69727Q11.6211 5.26367 12.1191 6.2793Q12.6172 7.29492 12.6172 8.64258Q12.6172 9.99023 12.1191 11.0059Q11.6211 12.0215 10.7275 12.583Q9.83398 13.1445 8.65234 13.1445ZM8.65234 12.4902Q9.60938 12.4902 10.332 12.0068Q11.0547 11.5234 11.46 10.6543Q11.8652 9.78516 11.8652 8.64258Q11.8652 7.5 11.46 6.63086Q11.0547 5.76172 10.332 5.27832Q9.60938 4.79492 8.65234 4.79492Q7.69531 4.79492 6.97266 5.27832Q6.25 5.76172 5.84473 6.63086Q5.43945 7.5 5.43945 8.64258Q5.43945 9.78516 5.84473 10.6543Q6.25 11.5234 6.97266 12.0068Q7.69531 12.4902 8.65234 12.4902Z" fill="#ffffff"/>
 </g>
</svg>
