<?xml version="1.0" encoding="UTF-8"?>
<!--Generator: Apple Native CoreSVG 175-->
<!DOCTYPE svg
PUBLIC "-//W3C//DTD SVG 1.1//EN"
       "http://www.w3.org/Graphics/SVG/1.1/DTD/svg11.dtd">
<svg version="1.1" xmlns="http://www.w3.org/2000/svg" xmlns:xlink="http://www.w3.org/1999/xlink" width="19.1602" height="19.1504">
 <g>
  <rect height="19.1504" opacity="0" width="19.1602" x="0" y="0"/>
  <path d="M9.57031 19.1406Q11.5527 19.1406 13.2861 18.3984Q15.0195 17.6562 16.3379 16.333Q17.6562 15.0098 18.4082 13.2764Q19.1602 11.543 19.1602 9.57031Q19.1602 7.59766 18.4082 5.86426Q17.6562 4.13086 16.3379 2.80762Q15.0195 1.48438 13.2861 0.742188Q11.5527 0 9.57031 0Q7.59766 0 5.86426 0.742188Q4.13086 1.48438 2.81738 2.80762Q1.50391 4.13086 0.751953 5.86426Q0 7.59766 0 9.57031Q0 11.543 0.74707 13.2764Q1.49414 15.0098 2.8125 16.333Q4.13086 17.6562 5.86914 18.3984Q7.60742 19.1406 9.57031 19.1406ZM7.46094 13.9941Q7.28516 13.9941 7.18262 13.8818Q7.08008 13.7695 7.08008 13.5938L7.08008 5.60547Q7.08008 5.42969 7.16797 5.3125Q7.25586 5.19531 7.43164 5.19531L10.1855 5.19531Q11.377 5.19531 12.1533 5.96191Q12.9297 6.72852 12.9297 7.91016Q12.9297 9.0918 12.1533 9.85352Q11.377 10.6152 10.1758 10.6152L7.83203 10.6152L7.83203 13.5938Q7.83203 13.7793 7.72949 13.8867Q7.62695 13.9941 7.46094 13.9941ZM7.83203 9.96094L10.1465 9.96094Q11.0352 9.96094 11.6064 9.38477Q12.1777 8.80859 12.1777 7.91016Q12.1777 7.00195 11.6064 6.42578Q11.0352 5.84961 10.1465 5.84961L7.83203 5.84961Z" fill="#ffffff"/>
 </g>
</svg>
