<?xml version="1.0" encoding="UTF-8"?>
<!--Generator: Apple Native CoreSVG 175.5-->
<!DOCTYPE svg
PUBLIC "-//W3C//DTD SVG 1.1//EN"
       "http://www.w3.org/Graphics/SVG/1.1/DTD/svg11.dtd">
<svg version="1.1" xmlns="http://www.w3.org/2000/svg" xmlns:xlink="http://www.w3.org/1999/xlink" width="23.5254" height="19.7559">
 <g>
  <rect height="19.7559" opacity="0" width="23.5254" x="0" y="0"/>
  <path d="M12.6367 19.5605Q14.6973 19.5605 16.2354 19.1064Q17.7734 18.6523 18.6328 17.8418Q19.4922 17.0312 19.4922 15.957Q19.4922 15.2344 19.2432 14.7559Q18.9941 14.2773 18.6719 13.9209Q18.3496 13.5645 18.1006 13.2275Q17.8516 12.8906 17.8516 12.4707Q17.8516 12.0801 18.2617 11.7627Q18.6719 11.4453 19.3164 11.1328Q19.9609 10.8203 20.6836 10.4443Q21.4062 10.0684 22.0557 9.55078Q22.7051 9.0332 23.1152 8.31055Q23.5254 7.58789 23.5254 6.58203Q23.5254 5.09766 22.793 3.88672Q22.0605 2.67578 20.7178 1.80664Q19.375 0.9375 17.5049 0.46875Q15.6348 0 13.3594 0Q10.3711 0 7.91504 0.712891Q5.45898 1.42578 3.68652 2.73926Q1.91406 4.05273 0.957031 5.88379Q0 7.71484 0 9.95117Q0 12.0996 0.908203 13.8672Q1.81641 15.6348 3.49609 16.9092Q5.17578 18.1836 7.49512 18.8721Q9.81445 19.5605 12.6367 19.5605ZM12.6367 17.8906Q10.1562 17.8906 8.13965 17.3193Q6.12305 16.748 4.67285 15.6982Q3.22266 14.6484 2.44629 13.1885Q1.66992 11.7285 1.66992 9.95117Q1.66992 8.08594 2.49512 6.5625Q3.32031 5.03906 4.86328 3.94531Q6.40625 2.85156 8.55957 2.26074Q10.7129 1.66992 13.3594 1.66992Q15.9277 1.66992 17.8369 2.29004Q19.7461 2.91016 20.8008 4.01367Q21.8555 5.11719 21.8555 6.58203Q21.8555 7.43164 21.4404 8.00293Q21.0254 8.57422 20.376 8.97461Q19.7266 9.375 18.999 9.70215Q18.2715 10.0293 17.6172 10.3906Q16.9629 10.752 16.5527 11.2451Q16.1426 11.7383 16.1426 12.4805Q16.1426 13.1055 16.3965 13.5498Q16.6504 13.9941 16.9824 14.3506Q17.3145 14.707 17.5684 15.0537Q17.8223 15.4004 17.8223 15.8301Q17.8223 16.7676 16.4062 17.3291Q14.9902 17.8906 12.6367 17.8906ZM11.8359 15.5859Q12.5781 15.5859 13.1934 15.2197Q13.8086 14.8535 14.1748 14.2383Q14.541 13.623 14.541 12.8711Q14.541 12.1387 14.1748 11.5234Q13.8086 10.9082 13.1934 10.542Q12.5781 10.1758 11.8359 10.1758Q11.0938 10.1758 10.4785 10.542Q9.86328 10.9082 9.49707 11.5234Q9.13086 12.1387 9.13086 12.8711Q9.13086 13.623 9.49707 14.2383Q9.86328 14.8535 10.4785 15.2197Q11.0938 15.5859 11.8359 15.5859ZM11.8359 14.4531Q11.3965 14.4531 11.04 14.2432Q10.6836 14.0332 10.4736 13.6719Q10.2637 13.3105 10.2637 12.8711Q10.2637 12.3926 10.4834 12.0459Q10.7031 11.6992 11.0547 11.5088Q11.4062 11.3184 11.8164 11.3184Q12.2266 11.3086 12.5928 11.4941Q12.959 11.6797 13.1836 12.0264Q13.4082 12.373 13.4082 12.8711Q13.4082 13.3105 13.1982 13.6719Q12.9883 14.0332 12.6318 14.2432Q12.2754 14.4531 11.8359 14.4531Z" fill="#ffffff"/>
  <path d="M4.93164 11.2891Q5.60547 11.2891 6.0791 10.8057Q6.55273 10.3223 6.55273 9.64844Q6.55273 8.97461 6.0791 8.50098Q5.60547 8.02734 4.93164 8.02734Q4.26758 8.02734 3.78906 8.50098Q3.31055 8.97461 3.31055 9.64844Q3.31055 10.3223 3.78906 10.8057Q4.26758 11.2891 4.93164 11.2891Z" fill="#ffffff"/>
  <path d="M8.49609 8.16406Q9.3457 8.16406 9.94629 7.56836Q10.5469 6.97266 10.5469 6.10352Q10.5469 5.26367 9.94629 4.67285Q9.3457 4.08203 8.49609 4.08203Q7.63672 4.08203 7.03613 4.67285Q6.43555 5.26367 6.43555 6.10352Q6.43555 6.97266 7.03613 7.56836Q7.63672 8.16406 8.49609 8.16406Z" fill="#ffffff"/>
  <path d="M13.4473 6.58203Q14.1309 6.58203 14.6094 6.09863Q15.0879 5.61523 15.0879 4.93164Q15.0879 4.24805 14.6094 3.76953Q14.1309 3.29102 13.4473 3.29102Q12.7734 3.29102 12.2852 3.77441Q11.7969 4.25781 11.7969 4.93164Q11.7969 5.61523 12.2852 6.09863Q12.7734 6.58203 13.4473 6.58203Z" fill="#ffffff"/>
  <path d="M17.9102 7.20703Q18.457 7.20703 18.8428 6.81641Q19.2285 6.42578 19.2285 5.86914Q19.2285 5.32227 18.8428 4.93164Q18.457 4.54102 17.9102 4.54102Q17.3535 4.54102 16.958 4.93164Q16.5625 5.32227 16.5625 5.86914Q16.5625 6.42578 16.958 6.81641Q17.3535 7.20703 17.9102 7.20703Z" fill="#ffffff"/>
 </g>
</svg>
