<?xml version="1.0" encoding="UTF-8"?>
<!--Generator: Apple Native CoreSVG 175-->
<!DOCTYPE svg
PUBLIC "-//W3C//DTD SVG 1.1//EN"
       "http://www.w3.org/Graphics/SVG/1.1/DTD/svg11.dtd">
<svg version="1.1" xmlns="http://www.w3.org/2000/svg" xmlns:xlink="http://www.w3.org/1999/xlink" width="11.5012" height="18.5083">
 <g>
  <rect height="18.5083" opacity="0" width="11.5012" x="0" y="0"/>
  <path d="M0.448914 18.5083Q0.651245 18.5083 0.775833 18.3774Q0.900421 18.2465 0.900421 18.0273L0.900421 10.9207L5.67932 10.9207Q7.44415 10.9207 8.75313 10.265Q10.0621 9.60938 10.7816 8.40782Q11.5012 7.20627 11.5012 5.58319Q11.5012 3.95752 10.783 2.75024Q10.0648 1.54297 8.75587 0.878143Q7.4469 0.213318 5.68207 0.213318L0.448914 0.213318Q0.249176 0.213318 0.124588 0.339279Q0 0.46524 0 0.694275L0 18.0273Q0 18.2492 0.124588 18.3788Q0.249176 18.5083 0.448914 18.5083ZM0.900421 10.0793L0.900421 1.04935L5.58441 1.04935Q7.12265 1.04935 8.24684 1.59851Q9.37103 2.14767 9.9791 3.16353Q10.5872 4.17938 10.5872 5.58319Q10.5872 6.97464 9.97421 7.98477Q9.36127 8.9949 8.23845 9.53712Q7.11563 10.0793 5.58441 10.0793Z" fill="#ffffff"/>
 </g>
</svg>
