<?xml version="1.0" encoding="UTF-8"?>
<!--Generator: Apple Native CoreSVG 175.5-->
<!DOCTYPE svg
PUBLIC "-//W3C//DTD SVG 1.1//EN"
       "http://www.w3.org/Graphics/SVG/1.1/DTD/svg11.dtd">
<svg version="1.1" xmlns="http://www.w3.org/2000/svg" xmlns:xlink="http://www.w3.org/1999/xlink" width="24.7447" height="24.4824">
 <g>
  <rect height="24.4824" opacity="0" width="24.7447" x="0" y="0"/>
  <path d="M15.5845 18.3203Q16.356 17.998 16.5758 17.3486Q16.7955 16.6992 16.6051 15.8594Q16.4146 15.0195 15.941 14.1113Q15.4674 13.2031 14.8228 12.3438Q14.1783 11.4844 13.5142 10.8105Q12.8404 10.1367 11.9908 9.49707Q11.1412 8.85742 10.2379 8.37891Q9.33454 7.90039 8.49958 7.70508Q7.66462 7.50977 7.01032 7.72949Q6.35603 7.94922 6.01423 8.71094L0.174386 21.6602Q-0.0697545 22.1973 0.0279018 22.6904Q0.125558 23.1836 0.457589 23.5303Q0.789621 23.877 1.2779 23.9844Q1.76618 24.0918 2.31306 23.8672ZM9.97907 14.3359Q8.8072 13.1738 8.10896 12.0996Q7.41071 11.0254 7.21052 10.2344Q7.01032 9.44336 7.34235 9.12109Q7.66462 8.78906 8.45075 8.99414Q9.23689 9.19922 10.3062 9.90234Q11.3756 10.6055 12.5474 11.7773Q13.7291 12.9395 14.4273 14.0137Q15.1256 15.0879 15.3258 15.8789Q15.5259 16.6699 15.2037 16.9824Q14.8717 17.3145 14.0806 17.1143Q13.2896 16.9141 12.2203 16.2158Q11.1509 15.5176 9.97907 14.3359Z" fill="#ffffff"/>
  <path d="M8.7779 2.13867Q9.21735 2.13867 9.53474 1.82617Q9.85212 1.51367 9.85212 1.06445Q9.85212 0.625 9.53474 0.3125Q9.21735 0 8.7779 0Q8.31892 0 8.0113 0.3125Q7.70368 0.625 7.70368 1.06445Q7.70368 1.51367 8.0113 1.82617Q8.31892 2.13867 8.7779 2.13867ZM10.067 3.96484Q10.0181 3.70117 9.84235 3.50098Q9.66657 3.30078 9.38337 3.30078Q9.10993 3.31055 8.89021 3.51074Q8.67048 3.71094 8.72907 4.00391Q9.0611 5.72266 9.0611 7.48047Q9.0611 9.23828 8.72907 10.9961Q8.66071 11.2793 8.88532 11.4746Q9.10993 11.6699 9.3736 11.6797Q9.64704 11.6797 9.82771 11.4844Q10.0084 11.2891 10.0572 11.0254Q10.399 9.23828 10.399 7.48535Q10.399 5.73242 10.067 3.96484ZM14.8131 3.82812Q15.3306 3.82812 15.7457 3.5791Q16.1607 3.33008 16.4049 2.91504Q16.649 2.5 16.649 1.99219Q16.649 1.2207 16.1168 0.688477Q15.5845 0.15625 14.8131 0.15625Q14.0513 0.15625 13.5142 0.688477Q12.9771 1.2207 12.9771 1.99219Q12.9771 2.5 13.2261 2.91504Q13.4752 3.33008 13.8902 3.5791Q14.3052 3.82812 14.8131 3.82812ZM12.9576 6.9043Q13.3189 6.9043 13.5679 6.65039Q13.817 6.39648 13.817 6.03516Q13.817 5.68359 13.5679 5.42969Q13.3189 5.17578 12.9576 5.17578Q12.606 5.17578 12.3472 5.42969Q12.0884 5.68359 12.0884 6.03516Q12.0884 6.39648 12.3472 6.65039Q12.606 6.9043 12.9576 6.9043ZM22.7818 2.69531Q23.1334 2.69531 23.3824 2.44629Q23.6314 2.19727 23.6314 1.83594Q23.6314 1.47461 23.3824 1.2207Q23.1334 0.966797 22.7818 0.966797Q22.4205 0.966797 22.1715 1.2207Q21.9224 1.47461 21.9224 1.83594Q21.9224 2.19727 22.1715 2.44629Q22.4205 2.69531 22.7818 2.69531ZM19.9595 3.33008L18.1334 5.15625Q17.9381 5.35156 17.9429 5.63477Q17.9478 5.91797 18.1334 6.11328Q18.3384 6.30859 18.6217 6.31348Q18.9049 6.31836 19.1002 6.11328L20.9263 4.29688Q21.1217 4.0918 21.1217 3.80859Q21.1217 3.52539 20.9263 3.33008Q20.731 3.13477 20.4478 3.13477Q20.1646 3.13477 19.9595 3.33008ZM16.3365 6.96289L11.356 11.9336Q11.1607 12.1289 11.1607 12.417Q11.1607 12.7051 11.356 12.9004Q11.5611 13.0957 11.8443 13.0957Q12.1275 13.0957 12.3228 12.9004L17.2935 7.91992Q17.4791 7.72461 17.4742 7.44629Q17.4693 7.16797 17.2935 6.96289Q17.0884 6.78711 16.8101 6.78711Q16.5318 6.78711 16.3365 6.96289ZM23.6705 11.4551Q24.1197 11.4551 24.4322 11.1426Q24.7447 10.8301 24.7447 10.3711Q24.7447 9.93164 24.4322 9.61914Q24.1197 9.30664 23.6705 9.30664Q23.2115 9.30664 22.9039 9.61914Q22.5963 9.93164 22.5963 10.3711Q22.5963 10.8301 22.9039 11.1426Q23.2115 11.4551 23.6705 11.4551ZM19.4713 11.8555Q20.1256 11.8555 20.5797 11.4111Q21.0338 10.9668 21.0338 10.3125Q21.0338 9.66797 20.5797 9.21387Q20.1256 8.75977 19.4713 8.75977Q18.8267 8.75977 18.3824 9.21387Q17.9381 9.66797 17.9381 10.3125Q17.9381 10.9668 18.3824 11.4111Q18.8267 11.8555 19.4713 11.8555ZM23.2994 16.4551Q23.7486 16.4551 24.0611 16.1426Q24.3736 15.8301 24.3736 15.3809Q24.3736 14.9414 24.0611 14.624Q23.7486 14.3066 23.2994 14.3066Q22.8502 14.3066 22.5377 14.624Q22.2252 14.9414 22.2252 15.3809Q22.2252 15.8301 22.5377 16.1426Q22.8502 16.4551 23.2994 16.4551ZM20.3209 14.1895Q18.5533 13.8574 16.8004 13.8574Q15.0474 13.8574 13.2506 14.1895Q12.9869 14.248 12.7916 14.4238Q12.5963 14.5996 12.606 14.873Q12.606 15.1465 12.8013 15.3711Q12.9967 15.5957 13.2896 15.5371Q15.0377 15.2051 16.7955 15.2002Q18.5533 15.1953 20.2818 15.5273Q20.565 15.5859 20.7701 15.3662Q20.9752 15.1465 20.9752 14.873Q20.9752 14.5898 20.7799 14.4141Q20.5845 14.2383 20.3209 14.1895Z" fill="#ffffff"/>
 </g>
</svg>
