<?xml version="1.0" encoding="UTF-8"?>
<!--Generator: Apple Native CoreSVG 175-->
<!DOCTYPE svg
PUBLIC "-//W3C//DTD SVG 1.1//EN"
       "http://www.w3.org/Graphics/SVG/1.1/DTD/svg11.dtd">
<svg version="1.1" xmlns="http://www.w3.org/2000/svg" xmlns:xlink="http://www.w3.org/1999/xlink" width="19.1602" height="19.1504">
 <g>
  <rect height="19.1504" opacity="0" width="19.1602" x="0" y="0"/>
  <path d="M9.57031 19.1406Q11.5527 19.1406 13.2861 18.3984Q15.0195 17.6562 16.3379 16.333Q17.6562 15.0098 18.4082 13.2764Q19.1602 11.543 19.1602 9.57031Q19.1602 7.59766 18.4082 5.86426Q17.6562 4.13086 16.3379 2.80762Q15.0195 1.48438 13.2861 0.742188Q11.5527 0 9.57031 0Q7.59766 0 5.86426 0.742188Q4.13086 1.48438 2.81738 2.80762Q1.50391 4.13086 0.751953 5.86426Q0 7.59766 0 9.57031Q0 11.543 0.74707 13.2764Q1.49414 15.0098 2.8125 16.333Q4.13086 17.6562 5.86914 18.3984Q7.60742 19.1406 9.57031 19.1406ZM6.91406 13.2715Q6.61133 13.2715 6.46484 13.1201Q6.31836 12.9688 6.31836 12.7148L6.31836 6.41602Q6.31836 6.16211 6.46484 6.00586Q6.61133 5.84961 6.91406 5.84961L7.91016 5.84961Q8.22266 5.84961 8.36426 6.00586Q8.50586 6.16211 8.50586 6.41602L8.50586 12.7148Q8.50586 12.9688 8.36426 13.1201Q8.22266 13.2715 7.91016 13.2715ZM11.2402 13.2715Q10.9473 13.2715 10.8008 13.1201Q10.6543 12.9688 10.6543 12.7148L10.6543 6.41602Q10.6543 6.16211 10.8008 6.00586Q10.9473 5.84961 11.2402 5.84961L12.2363 5.84961Q12.5391 5.84961 12.6855 6.00586Q12.832 6.16211 12.832 6.41602L12.832 12.7148Q12.832 12.9688 12.6855 13.1201Q12.5391 13.2715 12.2363 13.2715Z" fill="#ffffff"/>
 </g>
</svg>
