<?xml version="1.0" encoding="UTF-8"?>
<!--Generator: Apple Native CoreSVG 175.5-->
<!DOCTYPE svg
PUBLIC "-//W3C//DTD SVG 1.1//EN"
       "http://www.w3.org/Graphics/SVG/1.1/DTD/svg11.dtd">
<svg version="1.1" xmlns="http://www.w3.org/2000/svg" xmlns:xlink="http://www.w3.org/1999/xlink" width="18.9258" height="19.6973">
 <g>
  <rect height="19.6973" opacity="0" width="18.9258" x="0" y="0"/>
  <path d="M3.98438 10.9863L8.55469 10.9863Q8.70117 10.9863 8.80371 10.8887Q8.90625 10.791 8.90625 10.625Q8.90625 10.4688 8.80371 10.3809Q8.70117 10.293 8.55469 10.293L3.98438 10.293Q3.81836 10.293 3.7207 10.3809Q3.62305 10.4688 3.62305 10.625Q3.62305 10.791 3.7207 10.8887Q3.81836 10.9863 3.98438 10.9863ZM3.98438 9.33594L10.4004 9.33594Q10.5566 9.33594 10.6494 9.23828Q10.7422 9.14062 10.7422 8.97461Q10.7422 8.82812 10.6494 8.73535Q10.5566 8.64258 10.4004 8.64258L3.98438 8.64258Q3.81836 8.64258 3.7207 8.73535Q3.62305 8.82812 3.62305 8.97461Q3.62305 9.14062 3.7207 9.23828Q3.81836 9.33594 3.98438 9.33594ZM4.0918 5.38086Q4.28711 5.38086 4.42383 5.23926Q4.56055 5.09766 4.56055 4.91211Q4.56055 4.7168 4.42383 4.5752Q4.28711 4.43359 4.0918 4.43359Q3.89648 4.43359 3.75977 4.5752Q3.62305 4.7168 3.62305 4.91211Q3.62305 5.09766 3.75977 5.23926Q3.89648 5.38086 4.0918 5.38086ZM4.0918 7.13867Q4.28711 7.13867 4.42383 6.99707Q4.56055 6.85547 4.56055 6.66016Q4.56055 6.47461 4.42383 6.33301Q4.28711 6.19141 4.0918 6.19141Q3.89648 6.19141 3.75977 6.33301Q3.62305 6.47461 3.62305 6.66016Q3.62305 6.85547 3.75977 6.99707Q3.89648 7.13867 4.0918 7.13867ZM5.25391 5.74219Q5.25391 6.19141 5.4541 6.60156Q5.6543 7.01172 5.87891 7.19727Q5.9375 7.24609 6.00098 7.27051Q6.06445 7.29492 6.13281 7.29492Q6.25977 7.29492 6.34277 7.21191Q6.42578 7.12891 6.42578 7.01172Q6.42578 6.91406 6.38184 6.85547Q6.33789 6.79688 6.26953 6.72852Q6.06445 6.51367 5.9668 6.25977Q5.86914 6.00586 5.86914 5.74219Q5.86914 5.46875 5.97168 5.22461Q6.07422 4.98047 6.26953 4.75586Q6.33789 4.67773 6.38184 4.61914Q6.42578 4.56055 6.42578 4.46289Q6.42578 4.3457 6.34277 4.2627Q6.25977 4.17969 6.13281 4.17969Q6.07422 4.17969 6.00586 4.20898Q5.9375 4.23828 5.87891 4.28711Q5.5957 4.52148 5.4248 4.90723Q5.25391 5.29297 5.25391 5.74219Z" fill="#ffffff"/>
  <path d="M0 14.248Q0 15.5273 0.620117 16.1426Q1.24023 16.7578 2.49023 16.7578L16.4355 16.7578Q17.6855 16.7578 18.3057 16.1426Q18.9258 15.5273 18.9258 14.248L18.9258 2.50977Q18.9258 1.23047 18.2959 0.615234Q17.666 0 16.416 0L2.50977 0Q1.25977 0 0.629883 0.615234Q0 1.23047 0 2.50977ZM1.57227 12.6465L1.57227 2.53906Q1.57227 2.02148 1.80176 1.79688Q2.03125 1.57227 2.53906 1.57227L16.3867 1.57227Q16.8945 1.57227 17.124 1.79688Q17.3535 2.02148 17.3535 2.53906L17.3535 12.6465Q17.3535 13.1641 17.124 13.3838Q16.8945 13.6035 16.3867 13.6035L2.53906 13.6035Q2.03125 13.6035 1.80176 13.3838Q1.57227 13.1641 1.57227 12.6465ZM14.9805 15.7422Q14.7168 15.7422 14.5166 15.5371Q14.3164 15.332 14.3164 15.0586Q14.3164 14.7949 14.5166 14.5947Q14.7168 14.3945 14.9805 14.3945Q15.2637 14.3945 15.4639 14.5947Q15.6641 14.7949 15.6641 15.0586Q15.6641 15.332 15.4639 15.5371Q15.2637 15.7422 14.9805 15.7422ZM9.46289 17.9297Q10.5078 17.9297 11.416 17.8174Q12.3242 17.7051 13.0615 17.4902Q13.7988 17.2754 14.3115 16.9775Q14.8242 16.6797 15.0684 16.3086L3.85742 16.3086Q4.3457 17.0508 5.86426 17.4902Q7.38281 17.9297 9.46289 17.9297ZM4.77539 19.4043L14.1504 19.4043Q14.4824 19.4043 14.6582 19.2529Q14.834 19.1016 14.873 18.8867Q14.9121 18.6719 14.8193 18.4717Q14.7266 18.2715 14.502 18.1738L12.1387 17.0801L6.78711 17.0801L4.42383 18.1738Q4.19922 18.2715 4.10645 18.4717Q4.01367 18.6719 4.05273 18.8867Q4.0918 19.1016 4.26758 19.2529Q4.44336 19.4043 4.77539 19.4043Z" fill="#ffffff"/>
 </g>
</svg>
