<?xml version="1.0" encoding="UTF-8"?>
<!--Generator: Apple Native CoreSVG 175.5-->
<!DOCTYPE svg
PUBLIC "-//W3C//DTD SVG 1.1//EN"
       "http://www.w3.org/Graphics/SVG/1.1/DTD/svg11.dtd">
<svg version="1.1" xmlns="http://www.w3.org/2000/svg" xmlns:xlink="http://www.w3.org/1999/xlink" width="32.3145" height="22.8113">
 <g>
  <rect height="22.8113" opacity="0" width="32.3145" x="0" y="0"/>
  <path d="M12.2656 20.3461L24.541 20.3461Q25.6934 20.3461 26.1572 20.0189Q26.6211 19.6918 26.6211 19.0473Q26.6211 18.1098 26.0498 17.0648Q25.4785 16.0199 24.4092 15.1068Q23.3398 14.1938 21.8213 13.6225Q20.3027 13.0512 18.3984 13.0512Q16.5039 13.0512 14.9854 13.6225Q13.4668 14.1938 12.3975 15.1068Q11.3281 16.0199 10.7568 17.0648Q10.1855 18.1098 10.1855 19.0473Q10.1855 19.6918 10.6494 20.0189Q11.1133 20.3461 12.2656 20.3461ZM18.4082 11.3031Q19.4531 11.3031 20.3418 10.7318Q21.2305 10.1605 21.7725 9.18398Q22.3145 8.20742 22.3145 6.98672Q22.3145 5.78555 21.7725 4.8334Q21.2305 3.88125 20.3418 3.33438Q19.4531 2.7875 18.4082 2.7875Q17.3633 2.7875 16.4746 3.34414Q15.5859 3.90078 15.0439 4.85781Q14.502 5.81484 14.502 7.00625Q14.502 8.21719 15.0439 9.18887Q15.5859 10.1605 16.4746 10.7318Q17.3633 11.3031 18.4082 11.3031ZM1.71875 20.3461L9.14062 20.3461Q8.75977 19.7895 8.77441 19.0082Q8.78906 18.227 9.13086 17.3676Q9.47266 16.5082 10.0781 15.7025Q10.6836 14.8969 11.4648 14.2816Q10.6543 13.7348 9.58984 13.3783Q8.52539 13.0219 7.1582 13.0219Q5.50781 13.0219 4.18457 13.5639Q2.86133 14.1059 1.92871 14.9896Q0.996094 15.8734 0.498047 16.9184Q0 17.9633 0 18.9789Q0 19.6332 0.395508 19.9896Q0.791016 20.3461 1.71875 20.3461ZM7.16797 11.5277Q8.07617 11.5277 8.84766 11.0297Q9.61914 10.5316 10.0928 9.67715Q10.5664 8.82266 10.5664 7.76797Q10.5664 6.71328 10.0928 5.88809Q9.61914 5.06289 8.84766 4.58926Q8.07617 4.11563 7.16797 4.11563Q6.25977 4.11563 5.4834 4.59902Q4.70703 5.08242 4.2334 5.9125Q3.75977 6.74258 3.75977 7.7875Q3.75977 8.83242 4.2334 9.68203Q4.70703 10.5316 5.47852 11.0297Q6.25 11.5277 7.16797 11.5277Z" fill="#ffffff"/>
  <path d="M25.6348 11.0102Q25.8887 11.1859 26.1914 11.1273Q26.4941 11.0688 26.6895 10.7855Q27.2559 10.0434 27.5732 9.0082Q27.8906 7.97305 27.8906 6.85Q27.8906 5.72695 27.5732 4.6918Q27.2559 3.65664 26.6895 2.91445Q26.4941 2.63125 26.1914 2.57754Q25.8887 2.52383 25.6348 2.68984Q25.3418 2.89492 25.2979 3.22207Q25.2539 3.54922 25.4883 3.85195Q25.918 4.43789 26.1475 5.21914Q26.377 6.00039 26.377 6.85Q26.377 7.69961 26.1426 8.47598Q25.9082 9.25234 25.4883 9.84805Q25.2637 10.1605 25.3027 10.4828Q25.3418 10.8051 25.6348 11.0102Z" fill="#ffffff"/>
  <path d="M29.2578 13.559Q29.5312 13.7445 29.834 13.6859Q30.1367 13.6273 30.332 13.3441Q31.2695 12.0551 31.792 10.3559Q32.3145 8.65664 32.3145 6.85Q32.3145 5.04336 31.792 3.33438Q31.2695 1.62539 30.332 0.355859Q30.1367 0.0726563 29.834 0.0140625Q29.5312-0.0445312 29.2578 0.141016Q28.9844 0.326563 28.9453 0.63418Q28.9062 0.941797 29.1211 1.24453Q29.9219 2.37734 30.3613 3.83242Q30.8008 5.2875 30.8008 6.85Q30.8008 8.4125 30.3564 9.8627Q29.9121 11.3129 29.1211 12.4555Q28.916 12.7582 28.9502 13.0658Q28.9844 13.3734 29.2578 13.559Z" fill="#ffffff"/>
 </g>
</svg>
