<?xml version="1.0" encoding="UTF-8"?>
<!--Generator: Apple Native CoreSVG 175-->
<!DOCTYPE svg
PUBLIC "-//W3C//DTD SVG 1.1//EN"
       "http://www.w3.org/Graphics/SVG/1.1/DTD/svg11.dtd">
<svg version="1.1" xmlns="http://www.w3.org/2000/svg" xmlns:xlink="http://www.w3.org/1999/xlink" width="22.666" height="17.2949">
 <g>
  <rect height="17.2949" opacity="0" width="22.666" x="0" y="0"/>
  <path d="M2.62695 17.2852L20.0195 17.2852Q21.3281 17.2852 21.9971 16.6113Q22.666 15.9375 22.666 14.6582L22.666 2.62695Q22.666 1.34766 21.9971 0.673828Q21.3281 0 20.0195 0L2.62695 0Q1.33789 0 0.668945 0.668945Q0 1.33789 0 2.62695L0 14.6582Q0 15.957 0.668945 16.6211Q1.33789 17.2852 2.62695 17.2852ZM4.57031 16.582Q4.70703 15.6152 5.2832 14.7266Q5.85938 13.8379 6.78223 13.1396Q7.70508 12.4414 8.87207 12.0361Q10.0391 11.6309 11.3379 11.6309Q12.6465 11.6309 13.8086 12.0361Q14.9707 12.4414 15.8936 13.1396Q16.8164 13.8379 17.3975 14.7266Q17.9785 15.6152 18.1055 16.582ZM11.3379 10.0391Q10.4297 10.0391 9.6875 9.5752Q8.94531 9.11133 8.51562 8.30078Q8.08594 7.49023 8.07617 6.47461Q8.07617 5.51758 8.51074 4.72168Q8.94531 3.92578 9.6875 3.45215Q10.4297 2.97852 11.3379 2.97852Q12.2559 2.97852 12.9932 3.45215Q13.7305 3.92578 14.165 4.72168Q14.5996 5.51758 14.5996 6.47461Q14.5996 7.49023 14.165 8.2959Q13.7305 9.10156 12.9932 9.57031Q12.2559 10.0391 11.3379 10.0391Z" fill="#ffffff"/>
 </g>
</svg>
