<?xml version="1.0" encoding="UTF-8"?>
<!--Generator: Apple Native CoreSVG 175.5-->
<!DOCTYPE svg
PUBLIC "-//W3C//DTD SVG 1.1//EN"
       "http://www.w3.org/Graphics/SVG/1.1/DTD/svg11.dtd">
<svg version="1.1" xmlns="http://www.w3.org/2000/svg" xmlns:xlink="http://www.w3.org/1999/xlink" width="22.1289" height="22.8113">
 <g>
  <rect height="22.8113" opacity="0" width="22.1289" x="0" y="0"/>
  <path d="M2.08984 20.3461L14.3555 20.3461Q15.5078 20.3461 15.9717 20.0189Q16.4355 19.6918 16.4355 19.0473Q16.4355 18.1098 15.8691 17.0648Q15.3027 16.0199 14.2285 15.1068Q13.1543 14.1938 11.6357 13.6225Q10.1172 13.0512 8.22266 13.0512Q6.31836 13.0512 4.7998 13.6225Q3.28125 14.1938 2.21191 15.1068Q1.14258 16.0199 0.571289 17.0648Q0 18.1098 0 19.0473Q0 19.6918 0.46875 20.0189Q0.9375 20.3461 2.08984 20.3461ZM8.22266 11.3031Q9.26758 11.3031 10.1562 10.7318Q11.0449 10.1605 11.5869 9.18398Q12.1289 8.20742 12.1289 6.98672Q12.1289 5.78555 11.5869 4.8334Q11.0449 3.88125 10.1562 3.33438Q9.26758 2.7875 8.22266 2.7875Q7.17773 2.7875 6.28906 3.34414Q5.40039 3.90078 4.8584 4.85781Q4.31641 5.81484 4.31641 7.00625Q4.31641 8.21719 4.8584 9.18887Q5.40039 10.1605 6.28906 10.7318Q7.17773 11.3031 8.22266 11.3031Z" fill="#ffffff"/>
  <path d="M15.459 11.0102Q15.7031 11.1859 16.0059 11.1273Q16.3086 11.0688 16.5039 10.7855Q17.0703 10.0434 17.3877 9.0082Q17.7051 7.97305 17.7051 6.85Q17.7051 5.72695 17.3877 4.6918Q17.0703 3.65664 16.5039 2.91445Q16.3086 2.63125 16.0059 2.57754Q15.7031 2.52383 15.459 2.68984Q15.1562 2.89492 15.1123 3.22207Q15.0684 3.54922 15.3027 3.85195Q15.7324 4.43789 15.9619 5.21914Q16.1914 6.00039 16.1914 6.85Q16.1914 7.69961 15.957 8.47598Q15.7227 9.25234 15.3027 9.84805Q15.0781 10.1605 15.1172 10.4828Q15.1562 10.8051 15.459 11.0102Z" fill="#ffffff"/>
  <path d="M19.0723 13.559Q19.3457 13.7445 19.6484 13.6859Q19.9512 13.6273 20.1465 13.3441Q21.084 12.0551 21.6064 10.3559Q22.1289 8.65664 22.1289 6.85Q22.1289 5.04336 21.6113 3.33438Q21.0938 1.62539 20.1465 0.355859Q19.9512 0.0726563 19.6484 0.0140625Q19.3457-0.0445312 19.0723 0.141016Q18.8086 0.326563 18.7695 0.63418Q18.7305 0.941797 18.9355 1.24453Q19.7363 2.37734 20.1758 3.83242Q20.6152 5.2875 20.6152 6.85Q20.6152 8.4125 20.1709 9.8627Q19.7266 11.3129 18.9355 12.4555Q18.7305 12.7582 18.7695 13.0658Q18.8086 13.3734 19.0723 13.559Z" fill="#ffffff"/>
 </g>
</svg>
