<?xml version="1.0" encoding="UTF-8"?>
<!--Generator: Apple Native CoreSVG 175-->
<!DOCTYPE svg
PUBLIC "-//W3C//DTD SVG 1.1//EN"
       "http://www.w3.org/Graphics/SVG/1.1/DTD/svg11.dtd">
<svg version="1.1" xmlns="http://www.w3.org/2000/svg" xmlns:xlink="http://www.w3.org/1999/xlink" width="20.3418" height="20.2246">
 <g>
  <rect height="20.2246" opacity="0" width="20.3418" x="0" y="0"/>
  <path d="M2.62695 20.2148L17.7148 20.2148Q19.0039 20.2148 19.6729 19.541Q20.3418 18.8672 20.3418 17.5879L20.3418 7.33398Q20.3418 6.05469 19.6729 5.38086Q19.0039 4.70703 17.7148 4.70703L2.62695 4.70703Q1.33789 4.70703 0.668945 5.37109Q0 6.03516 0 7.33398L0 17.5879Q0 18.877 0.668945 19.5459Q1.33789 20.2148 2.62695 20.2148ZM2.65625 19.4922Q1.70898 19.4922 1.2207 18.999Q0.732422 18.5059 0.732422 17.5488L0.732422 7.37305Q0.732422 6.41602 1.2207 5.92285Q1.70898 5.42969 2.65625 5.42969L17.6855 5.42969Q18.6035 5.42969 19.1162 5.92285Q19.6289 6.41602 19.6289 7.37305L19.6289 17.5488Q19.6289 18.5059 19.1162 18.999Q18.6035 19.4922 17.6855 19.4922ZM2.13867 2.90039L18.2129 2.90039Q18.1836 2.59766 18.0127 2.40723Q17.8418 2.2168 17.5293 2.2168L2.82227 2.2168Q2.50977 2.2168 2.33398 2.40723Q2.1582 2.59766 2.13867 2.90039ZM3.98438 0.654297L16.3574 0.654297Q16.3574 0.361328 16.1768 0.180664Q15.9961 0 15.6934 0L4.6582 0Q4.3457 0 4.16992 0.180664Q3.99414 0.361328 3.98438 0.654297ZM4.00391 19.8926L16.3574 19.8926Q16.2402 18.9941 15.7178 18.1689Q15.1953 17.3438 14.3555 16.6992Q13.5156 16.0547 12.4463 15.6787Q11.377 15.3027 10.1758 15.3027Q8.98438 15.3027 7.91504 15.6787Q6.8457 16.0547 6.00586 16.6992Q5.16602 17.3438 4.63867 18.1689Q4.11133 18.9941 4.00391 19.8926ZM10.1758 13.8672Q11.0059 13.8672 11.6797 13.4375Q12.3535 13.0078 12.749 12.2803Q13.1445 11.5527 13.1445 10.625Q13.1445 9.75586 12.749 9.02832Q12.3535 8.30078 11.6797 7.87109Q11.0059 7.44141 10.1758 7.44141Q9.3457 7.44141 8.67676 7.87109Q8.00781 8.30078 7.6123 9.02832Q7.2168 9.75586 7.2168 10.625Q7.2168 11.5527 7.6123 12.2852Q8.00781 13.0176 8.67676 13.4424Q9.3457 13.8672 10.1758 13.8672Z" fill="rgba(0,0,0,0.85)"/>
 </g>
</svg>
