<?xml version="1.0" encoding="UTF-8"?>
<!--Generator: Apple Native CoreSVG 175-->
<!DOCTYPE svg
PUBLIC "-//W3C//DTD SVG 1.1//EN"
       "http://www.w3.org/Graphics/SVG/1.1/DTD/svg11.dtd">
<svg version="1.1" xmlns="http://www.w3.org/2000/svg" xmlns:xlink="http://www.w3.org/1999/xlink" width="19.1602" height="19.1504">
 <g>
  <rect height="19.1504" opacity="0" width="19.1602" x="0" y="0"/>
  <path d="M9.57031 19.1406Q11.5527 19.1406 13.2861 18.3984Q15.0195 17.6562 16.3379 16.333Q17.6562 15.0098 18.4082 13.2764Q19.1602 11.543 19.1602 9.57031Q19.1602 7.59766 18.4082 5.86426Q17.6562 4.13086 16.3379 2.80762Q15.0195 1.48438 13.2861 0.742188Q11.5527 0 9.57031 0Q7.59766 0 5.86426 0.742188Q4.13086 1.48438 2.81738 2.80762Q1.50391 4.13086 0.751953 5.86426Q0 7.59766 0 9.57031Q0 11.543 0.74707 13.2764Q1.49414 15.0098 2.8125 16.333Q4.13086 17.6562 5.86914 18.3984Q7.60742 19.1406 9.57031 19.1406ZM9.57031 18.3984Q7.74414 18.3984 6.14746 17.71Q4.55078 17.0215 3.33496 15.8105Q2.11914 14.5996 1.43555 12.998Q0.751953 11.3965 0.751953 9.57031Q0.751953 7.74414 1.43555 6.14258Q2.11914 4.54102 3.33496 3.3252Q4.55078 2.10938 6.14746 1.4209Q7.74414 0.732422 9.57031 0.732422Q11.4062 0.732422 13.0029 1.4209Q14.5996 2.10938 15.8154 3.3252Q17.0312 4.54102 17.7197 6.14258Q18.4082 7.74414 18.4082 9.57031Q18.4082 11.3965 17.7246 12.998Q17.041 14.5996 15.8252 15.8105Q14.6094 17.0215 13.0078 17.71Q11.4062 18.3984 9.57031 18.3984ZM16.1523 15.8496L16.1426 15.8008Q15.8301 15.127 14.9316 14.4238Q14.0332 13.7207 12.666 13.2422Q11.2988 12.7637 9.57031 12.7637Q7.86133 12.7637 6.49902 13.2422Q5.13672 13.7207 4.2334 14.4141Q3.33008 15.1074 3.00781 15.7617L2.99805 15.8496Q3.84766 16.7285 4.91211 17.3779Q5.97656 18.0273 7.16797 18.3838Q8.35938 18.7402 9.58008 18.7402Q10.8105 18.7402 11.9824 18.3936Q13.1543 18.0469 14.209 17.3975Q15.2637 16.748 16.1523 15.8496ZM9.57031 11.084Q10.5078 11.084 11.2598 10.6006Q12.0117 10.1172 12.4414 9.28223Q12.8711 8.44727 12.8711 7.41211Q12.8711 6.43555 12.4316 5.62012Q11.9922 4.80469 11.2451 4.31152Q10.498 3.81836 9.57031 3.81836Q8.65234 3.81836 7.90039 4.31152Q7.14844 4.80469 6.70898 5.62012Q6.26953 6.43555 6.2793 7.41211Q6.2793 8.44727 6.71387 9.27734Q7.14844 10.1074 7.89062 10.5908Q8.63281 11.0742 9.57031 11.084Z" fill="rgba(0,0,0,0.85)"/>
 </g>
</svg>
