<?xml version="1.0" encoding="UTF-8"?>
<!--Generator: Apple Native CoreSVG 175.5-->
<!DOCTYPE svg
PUBLIC "-//W3C//DTD SVG 1.1//EN"
       "http://www.w3.org/Graphics/SVG/1.1/DTD/svg11.dtd">
<svg version="1.1" xmlns="http://www.w3.org/2000/svg" xmlns:xlink="http://www.w3.org/1999/xlink" width="23.8574" height="17.8809">
 <g>
  <rect height="17.8809" opacity="0" width="23.8574" x="0" y="0"/>
  <path d="M1.66992 17.8809L14.7656 17.8809Q15.5469 17.8809 15.9912 17.5342Q16.4355 17.1875 16.4355 16.582Q16.4355 15.6445 15.8643 14.5996Q15.293 13.5547 14.2236 12.6416Q13.1543 11.7285 11.6357 11.1572Q10.1172 10.5859 8.21289 10.5859Q6.31836 10.5859 4.7998 11.1572Q3.28125 11.7285 2.20703 12.6416Q1.13281 13.5547 0.566406 14.5996Q0 15.6445 0 16.582Q0 17.1875 0.444336 17.5342Q0.888672 17.8809 1.66992 17.8809ZM8.22266 8.83789Q9.26758 8.83789 10.1562 8.2666Q11.0449 7.69531 11.5869 6.71875Q12.1289 5.74219 12.1289 4.52148Q12.1289 3.32031 11.5869 2.36816Q11.0449 1.41602 10.1562 0.869141Q9.26758 0.322266 8.22266 0.322266Q7.17773 0.322266 6.28906 0.878906Q5.40039 1.43555 4.8584 2.39258Q4.31641 3.34961 4.31641 4.54102Q4.31641 5.75195 4.8584 6.72363Q5.40039 7.69531 6.28906 8.2666Q7.17773 8.83789 8.22266 8.83789Z" fill="#ffffff"/>
  <path d="M16.3965 8.69141Q16.7383 8.69141 16.9629 8.44727L19.7266 5.67383L22.5098 8.44727Q22.7441 8.69141 23.0664 8.69141Q23.3887 8.69141 23.6182 8.45703Q23.8477 8.22266 23.8477 7.90039Q23.8477 7.57812 23.6133 7.34375L20.8398 4.57031L23.623 1.77734Q23.8574 1.54297 23.8574 1.23047Q23.8574 0.908203 23.6279 0.678711Q23.3984 0.449219 23.0762 0.449219Q22.7734 0.449219 22.5391 0.693359L19.7266 3.47656L16.9434 0.703125Q16.7285 0.46875 16.3965 0.46875Q16.0742 0.46875 15.8447 0.693359Q15.6152 0.917969 15.6152 1.24023Q15.6152 1.5625 15.8496 1.78711L18.623 4.57031L15.8496 7.35352Q15.6152 7.57812 15.6152 7.90039Q15.6152 8.22266 15.8447 8.45703Q16.0742 8.69141 16.3965 8.69141Z" fill="#ffffff"/>
 </g>
</svg>
