<?xml version="1.0" encoding="UTF-8"?>
<!--Generator: Apple Native CoreSVG 175-->
<!DOCTYPE svg
PUBLIC "-//W3C//DTD SVG 1.1//EN"
       "http://www.w3.org/Graphics/SVG/1.1/DTD/svg11.dtd">
<svg version="1.1" xmlns="http://www.w3.org/2000/svg" xmlns:xlink="http://www.w3.org/1999/xlink" width="19.1602" height="19.1504">
 <g>
  <rect height="19.1504" opacity="0" width="19.1602" x="0" y="0"/>
  <path d="M9.57031 19.1406Q11.5527 19.1406 13.2861 18.3984Q15.0195 17.6562 16.3379 16.333Q17.6562 15.0098 18.4082 13.2764Q19.1602 11.543 19.1602 9.57031Q19.1602 7.59766 18.4082 5.86426Q17.6562 4.13086 16.3379 2.80762Q15.0195 1.48438 13.2861 0.742188Q11.5527 0 9.57031 0Q7.59766 0 5.86426 0.742188Q4.13086 1.48438 2.81738 2.80762Q1.50391 4.13086 0.751953 5.86426Q0 7.59766 0 9.57031Q0 11.543 0.74707 13.2764Q1.49414 15.0098 2.8125 16.333Q4.13086 17.6562 5.86914 18.3984Q7.60742 19.1406 9.57031 19.1406ZM9.57031 18.457Q8.24219 18.457 7.05078 18.0957Q5.85938 17.7344 4.86816 17.1143Q3.87695 16.4941 3.16406 15.7031Q3.70117 14.8242 4.67773 14.1699Q5.6543 13.5156 6.91895 13.1494Q8.18359 12.7832 9.57031 12.7832Q10.957 12.7832 12.2217 13.1445Q13.4863 13.5059 14.4629 14.165Q15.4395 14.8242 15.9766 15.7031Q15.2637 16.4941 14.2725 17.1143Q13.2812 17.7344 12.0947 18.0957Q10.9082 18.457 9.57031 18.457ZM9.57031 11.1035Q8.63281 11.0938 7.88574 10.6104Q7.13867 10.127 6.7041 9.29688Q6.26953 8.4668 6.26953 7.43164Q6.25977 6.45508 6.7041 5.63965Q7.14844 4.82422 7.90039 4.33105Q8.65234 3.83789 9.57031 3.83789Q10.4883 3.83789 11.2402 4.33105Q11.9922 4.82422 12.4316 5.63965Q12.8711 6.45508 12.8711 7.43164Q12.8711 8.4668 12.4365 9.30176Q12.002 10.1367 11.2549 10.6201Q10.5078 11.1035 9.57031 11.1035Z" fill="#ffffff"/>
 </g>
</svg>
