<?xml version="1.0" encoding="UTF-8"?>
<!--Generator: Apple Native CoreSVG 175-->
<!DOCTYPE svg
PUBLIC "-//W3C//DTD SVG 1.1//EN"
       "http://www.w3.org/Graphics/SVG/1.1/DTD/svg11.dtd">
<svg version="1.1" xmlns="http://www.w3.org/2000/svg" xmlns:xlink="http://www.w3.org/1999/xlink" width="19.1602" height="19.1504">
 <g>
  <rect height="19.1504" opacity="0" width="19.1602" x="0" y="0"/>
  <path d="M9.57031 19.1504Q11.5527 19.1504 13.2861 18.4082Q15.0195 17.666 16.3379 16.3428Q17.6562 15.0195 18.4082 13.2861Q19.1602 11.5527 19.1602 9.58008Q19.1602 7.60742 18.4082 5.87402Q17.6562 4.14062 16.3379 2.81738Q15.0195 1.49414 13.2861 0.751953Q11.5527 0.00976562 9.57031 0.00976562Q7.59766 0.00976562 5.86426 0.751953Q4.13086 1.49414 2.81738 2.81738Q1.50391 4.14062 0.751953 5.87402Q0 7.60742 0 9.58008Q0 11.5527 0.74707 13.2861Q1.49414 15.0195 2.8125 16.3428Q4.13086 17.666 5.86914 18.4082Q7.60742 19.1504 9.57031 19.1504ZM8.84766 13.7988Q8.44727 13.7988 8.2373 13.667Q8.02734 13.5352 8.02734 13.2031Q8.02734 12.5781 8.52539 11.8848Q9.02344 11.1914 9.95117 10.7031Q10.8789 10.2148 12.1484 10.2148Q13.4082 10.2148 14.3213 10.7031Q15.2344 11.1914 15.7324 11.8848Q16.2305 12.5781 16.2305 13.2031Q16.2305 13.5352 16.0352 13.667Q15.8398 13.7988 15.4395 13.7988ZM12.1484 9.33594Q11.3477 9.33594 10.7959 8.71582Q10.2441 8.0957 10.2441 7.1875Q10.2344 6.33789 10.7959 5.71289Q11.3574 5.08789 12.1484 5.08789Q12.9492 5.08789 13.5059 5.70801Q14.0625 6.32812 14.0625 7.1875Q14.0625 8.0957 13.5156 8.71582Q12.9688 9.33594 12.1484 9.33594ZM3.58398 13.7988Q3.24219 13.7988 3.07129 13.6523Q2.90039 13.5059 2.90039 13.1738Q2.90039 12.4707 3.33496 11.7871Q3.76953 11.1035 4.56543 10.6494Q5.36133 10.1953 6.46484 10.1953Q7.22656 10.1953 7.80273 10.4199Q8.37891 10.6445 8.78906 10.9766Q8.24219 11.4453 7.93457 12.0264Q7.62695 12.6074 7.59277 13.1055Q7.55859 13.6035 7.83203 13.7988ZM6.46484 9.43359Q5.76172 9.43359 5.28809 8.90137Q4.81445 8.36914 4.79492 7.57812Q4.79492 6.82617 5.28809 6.28906Q5.78125 5.75195 6.46484 5.75195Q7.1582 5.75195 7.65137 6.28906Q8.14453 6.82617 8.14453 7.56836Q8.14453 8.36914 7.66113 8.90137Q7.17773 9.43359 6.46484 9.43359Z" fill="#ffffff"/>
 </g>
</svg>
