<?xml version="1.0" encoding="UTF-8"?>
<!--Generator: Apple Native CoreSVG 175-->
<!DOCTYPE svg
PUBLIC "-//W3C//DTD SVG 1.1//EN"
       "http://www.w3.org/Graphics/SVG/1.1/DTD/svg11.dtd">
<svg version="1.1" xmlns="http://www.w3.org/2000/svg" xmlns:xlink="http://www.w3.org/1999/xlink" width="19.1602" height="19.1504">
 <g>
  <rect height="19.1504" opacity="0" width="19.1602" x="0" y="0"/>
  <path d="M9.57031 19.1406Q11.5527 19.1406 13.2861 18.3984Q15.0195 17.6562 16.3379 16.333Q17.6562 15.0098 18.4082 13.2764Q19.1602 11.543 19.1602 9.57031Q19.1602 7.59766 18.4082 5.86426Q17.6562 4.13086 16.3379 2.80762Q15.0195 1.48438 13.2861 0.742188Q11.5527 0 9.57031 0Q7.59766 0 5.86426 0.742188Q4.13086 1.48438 2.81738 2.80762Q1.50391 4.13086 0.751953 5.86426Q0 7.59766 0 9.57031Q0 11.543 0.74707 13.2764Q1.49414 15.0098 2.8125 16.333Q4.13086 17.6562 5.86914 18.3984Q7.60742 19.1406 9.57031 19.1406ZM6.42578 8.06641Q6.42578 7.93945 6.50879 7.85645Q6.5918 7.77344 6.72852 7.77344L7.27539 7.77344L7.27539 5.83984Q7.27539 5.68359 7.36816 5.59082Q7.46094 5.49805 7.60742 5.49805L9.7168 5.49805Q10.918 5.49805 11.6455 6.1084Q12.373 6.71875 12.4707 7.77344L13.0078 7.77344Q13.3008 7.77344 13.3008 8.06641Q13.3008 8.20312 13.2227 8.29102Q13.1445 8.37891 13.0078 8.37891L12.4707 8.37891Q12.3828 9.44336 11.6553 10.0732Q10.9277 10.7031 9.7168 10.7031L7.94922 10.7031L7.94922 13.7305Q7.94922 13.8965 7.85645 13.9844Q7.76367 14.0723 7.61719 14.0723Q7.46094 14.0723 7.36816 13.9844Q7.27539 13.8965 7.27539 13.7305L7.27539 8.37891L6.72852 8.37891Q6.5918 8.37891 6.50879 8.29102Q6.42578 8.20312 6.42578 8.06641ZM7.95898 10.0684L9.66797 10.0684Q10.5957 10.0684 11.1523 9.61914Q11.709 9.16992 11.7969 8.37891L7.95898 8.37891ZM7.95898 7.77344L11.7969 7.77344Q11.6992 6.99219 11.1426 6.5625Q10.5859 6.13281 9.66797 6.13281L7.95898 6.13281Z" fill="#ffffff"/>
 </g>
</svg>
