<?xml version="1.0" encoding="UTF-8"?>
<!--Generator: Apple Native CoreSVG 175.5-->
<!DOCTYPE svg
PUBLIC "-//W3C//DTD SVG 1.1//EN"
       "http://www.w3.org/Graphics/SVG/1.1/DTD/svg11.dtd">
<svg version="1.1" xmlns="http://www.w3.org/2000/svg" xmlns:xlink="http://www.w3.org/1999/xlink" width="19.9219" height="19.9316">
 <g>
  <rect height="19.9316" opacity="0" width="19.9219" x="0" y="0"/>
  <path d="M9.96094 19.9219Q12.002 19.9219 13.8037 19.1406Q15.6055 18.3594 16.9824 16.9824Q18.3594 15.6055 19.1406 13.8037Q19.9219 12.002 19.9219 9.96094Q19.9219 7.91992 19.1406 6.11816Q18.3594 4.31641 16.9824 2.93945Q15.6055 1.5625 13.7988 0.78125Q11.9922 0 9.95117 0Q7.91016 0 6.1084 0.78125Q4.30664 1.5625 2.93457 2.93945Q1.5625 4.31641 0.78125 6.11816Q0 7.91992 0 9.96094Q0 12.002 0.78125 13.8037Q1.5625 15.6055 2.93945 16.9824Q4.31641 18.3594 6.11816 19.1406Q7.91992 19.9219 9.96094 19.9219ZM9.96094 18.2617Q8.23242 18.2617 6.72852 17.6172Q5.22461 16.9727 4.08691 15.835Q2.94922 14.6973 2.30957 13.1934Q1.66992 11.6895 1.66992 9.96094Q1.66992 8.23242 2.30957 6.72852Q2.94922 5.22461 4.08203 4.08203Q5.21484 2.93945 6.71875 2.2998Q8.22266 1.66016 9.95117 1.66016Q11.6797 1.66016 13.1885 2.2998Q14.6973 2.93945 15.835 4.08203Q16.9727 5.22461 17.6172 6.72852Q18.2617 8.23242 18.2617 9.96094Q18.2617 11.6895 17.6221 13.1934Q16.9824 14.6973 15.8398 15.835Q14.6973 16.9727 13.1934 17.6172Q11.6895 18.2617 9.96094 18.2617Z" fill="#ffffff"/>
  <path d="M3.30078 10.8887Q3.30078 11.25 3.42285 11.543Q3.54492 11.8359 3.78906 12.0068Q4.0332 12.1777 4.4043 12.1777Q4.82422 12.1777 5.34668 12.124Q5.86914 12.0703 6.68945 11.8164Q7.16797 11.6699 7.38281 11.4111Q7.59766 11.1523 7.60742 10.6348L7.61719 10.0293Q7.61719 9.86328 7.83203 9.78516Q8.07617 9.70703 8.62793 9.62891Q9.17969 9.55078 9.95117 9.55078Q10.7324 9.55078 11.2842 9.62891Q11.8359 9.70703 12.0801 9.78516Q12.2852 9.86328 12.2852 10.0293L12.3047 10.6348Q12.3145 11.1523 12.5293 11.4111Q12.7441 11.6699 13.2129 11.8164Q14.0332 12.0703 14.5605 12.124Q15.0879 12.1777 15.498 12.1777Q15.8789 12.1777 16.123 12.0068Q16.3672 11.8359 16.4893 11.543Q16.6113 11.25 16.6113 10.8887L16.6113 10.7812Q16.6113 9.80469 16.0303 9.08203Q15.4492 8.35938 14.4824 7.88574Q13.5156 7.41211 12.3389 7.17773Q11.1621 6.94336 9.95117 6.94336Q8.75 6.94336 7.56836 7.17773Q6.38672 7.41211 5.4248 7.88574Q4.46289 8.35938 3.88184 9.08203Q3.30078 9.80469 3.30078 10.7812Z" fill="#ffffff"/>
 </g>
</svg>
