<?xml version="1.0" encoding="UTF-8"?>
<!--Generator: Apple Native CoreSVG 175-->
<!DOCTYPE svg
PUBLIC "-//W3C//DTD SVG 1.1//EN"
       "http://www.w3.org/Graphics/SVG/1.1/DTD/svg11.dtd">
<svg version="1.1" xmlns="http://www.w3.org/2000/svg" xmlns:xlink="http://www.w3.org/1999/xlink" width="18.8184" height="19.6387">
 <g>
  <rect height="19.6387" opacity="0" width="18.8184" x="0" y="0"/>
  <path d="M13.3203 18.7402Q14.3555 18.7402 15.2295 18.4082Q16.1035 18.0762 16.8457 17.3145Q16.8652 17.2852 16.8896 17.2607Q16.9141 17.2363 16.9434 17.2168Q17.3828 16.7676 17.5928 16.2988Q17.8027 15.8301 17.8027 15.4004Q17.8027 14.9902 17.5879 14.6191Q17.373 14.248 16.9336 13.9551L14.1211 12.041Q13.5938 11.6699 12.9736 11.6602Q12.3535 11.6504 11.6895 12.2949L11.0352 12.9297Q10.8691 13.0957 10.6641 13.1299Q10.459 13.1641 10.2148 13.0371Q10.0098 12.9297 9.60449 12.6318Q9.19922 12.334 8.70117 11.9141Q8.20312 11.4941 7.71484 11.0059Q7.1582 10.459 6.78223 10.0439Q6.40625 9.62891 6.15234 9.26758Q5.89844 8.90625 5.69336 8.51562Q5.56641 8.27148 5.60547 8.07129Q5.64453 7.87109 5.81055 7.70508L6.44531 7.05078Q7.08984 6.38672 7.0752 5.76172Q7.06055 5.13672 6.69922 4.60938L4.77539 1.79688Q4.48242 1.36719 4.11621 1.15723Q3.75 0.947266 3.33984 0.9375Q2.42188 0.917969 1.52344 1.79688Q1.49414 1.82617 1.46973 1.8457Q1.44531 1.86523 1.42578 1.89453Q0.673828 2.61719 0.336914 3.48633Q0 4.35547 0 5.36133Q0 6.69922 0.581055 8.16406Q1.16211 9.62891 2.21191 11.123Q3.26172 12.6172 4.69727 14.043Q6.11328 15.4492 7.59766 16.5088Q9.08203 17.5684 10.5322 18.1543Q11.9824 18.7402 13.3203 18.7402ZM13.3203 17.9785Q12.0801 17.9785 10.7031 17.417Q9.32617 16.8555 7.91992 15.8496Q6.51367 14.8438 5.21484 13.5449Q3.90625 12.2266 2.90039 10.8154Q1.89453 9.4043 1.32324 8.0127Q0.751953 6.62109 0.751953 5.37109Q0.761719 4.54102 1.0498 3.79883Q1.33789 3.05664 1.95312 2.46094Q1.98242 2.43164 2.00684 2.41211Q2.03125 2.39258 2.05078 2.36328Q2.39258 2.04102 2.70996 1.88477Q3.02734 1.72852 3.30078 1.72852Q3.79883 1.72852 4.15039 2.24609L6.04492 5.03906Q6.26953 5.37109 6.27441 5.74219Q6.2793 6.11328 5.87891 6.51367L5.14648 7.22656Q4.80469 7.56836 4.77051 8.0127Q4.73633 8.45703 4.96094 8.83789Q5.21484 9.28711 5.80566 9.99512Q6.39648 10.7031 7.19727 11.5137Q7.73438 12.0605 8.24219 12.5098Q8.75 12.959 9.1748 13.2812Q9.59961 13.6035 9.89258 13.7793Q10.2734 13.9941 10.7178 13.9648Q11.1621 13.9355 11.5137 13.584L12.2266 12.8613Q12.6172 12.4609 12.9932 12.4658Q13.3691 12.4707 13.6914 12.6855L16.4941 14.5801Q16.7578 14.7656 16.8848 14.9756Q17.0117 15.1855 17.0117 15.4297Q17.0117 16.0254 16.3574 16.6895Q16.3281 16.7188 16.3135 16.7383Q16.2988 16.7578 16.2793 16.7773Q15.6641 17.4023 14.9219 17.6904Q14.1797 17.9785 13.3203 17.9785ZM10.2051 6.19141Q10.3516 6.19141 10.4541 6.08887Q10.5566 5.98633 10.5566 5.84961L10.5566 3.54492Q10.5566 3.38867 10.4541 3.29102Q10.3516 3.19336 10.2051 3.19336Q10.0586 3.19336 9.96094 3.29102Q9.86328 3.38867 9.86328 3.54492L9.86328 5.84961Q9.86328 5.98633 9.96094 6.08887Q10.0586 6.19141 10.2051 6.19141ZM12.2754 7.75391Q12.4219 7.75391 12.5146 7.65625Q12.6074 7.55859 12.6074 7.40234L12.6074 1.96289Q12.6074 1.82617 12.5146 1.72363Q12.4219 1.62109 12.2754 1.62109Q12.1289 1.62109 12.0312 1.72363Q11.9336 1.82617 11.9336 1.96289L11.9336 7.40234Q11.9336 7.55859 12.0312 7.65625Q12.1289 7.75391 12.2754 7.75391ZM14.3359 9.38477Q14.4824 9.38477 14.5801 9.28711Q14.6777 9.18945 14.6777 9.05273L14.6777 0.351562Q14.6777 0.205078 14.5801 0.102539Q14.4824 0 14.3359 0Q14.1992 0 14.0967 0.102539Q13.9941 0.205078 13.9941 0.351562L13.9941 9.05273Q13.9941 9.18945 14.0918 9.28711Q14.1895 9.38477 14.3359 9.38477ZM16.4062 8.33984Q16.543 8.33984 16.6455 8.2373Q16.748 8.13477 16.748 7.99805L16.748 1.38672Q16.748 1.24023 16.6455 1.14258Q16.543 1.04492 16.4062 1.04492Q16.2598 1.04492 16.1621 1.14258Q16.0645 1.24023 16.0645 1.38672L16.0645 7.99805Q16.0645 8.13477 16.1621 8.2373Q16.2598 8.33984 16.4062 8.33984ZM18.4766 6.74805Q18.623 6.74805 18.7207 6.65039Q18.8184 6.55273 18.8184 6.40625L18.8184 2.96875Q18.8184 2.83203 18.7207 2.72949Q18.623 2.62695 18.4766 2.62695Q18.3301 2.62695 18.2324 2.72949Q18.1348 2.83203 18.1348 2.96875L18.1348 6.40625Q18.1348 6.55273 18.2324 6.65039Q18.3301 6.74805 18.4766 6.74805Z" fill="#ffffff"/>
 </g>
</svg>
