<?xml version="1.0" encoding="UTF-8"?>
<!--Generator: Apple Native CoreSVG 175-->
<!DOCTYPE svg
PUBLIC "-//W3C//DTD SVG 1.1//EN"
       "http://www.w3.org/Graphics/SVG/1.1/DTD/svg11.dtd">
<svg version="1.1" xmlns="http://www.w3.org/2000/svg" xmlns:xlink="http://www.w3.org/1999/xlink" width="22.6617" height="17.3035">
 <g>
  <rect height="17.3035" opacity="0" width="22.6617" x="0" y="0"/>
  <path d="M7.15347 0.380096L3.91129 0.380096L3.91129 9.44412Q3.91129 9.84055 4.1172 10.0054Q4.32312 10.1703 4.57626 10.1703L6.49139 10.1703Q6.75156 10.1703 6.95251 10.0054Q7.15347 9.84055 7.15347 9.44412ZM12.952 0.380096L9.70978 0.380096L9.70978 9.44412Q9.70978 9.84055 9.91211 10.0054Q10.1144 10.1703 10.3719 10.1703L12.2899 10.1703Q12.543 10.1703 12.7475 10.0054Q12.952 9.84055 12.952 9.44412ZM18.7505 0.380096L15.5083 0.380096L15.5083 9.44412Q15.5083 9.84055 15.7092 10.0054Q15.9102 10.1703 16.1703 10.1703L18.0812 10.1703Q18.3414 10.1703 18.5459 10.0054Q18.7505 9.84055 18.7505 9.44412ZM5.2449 8.42224L5.2449 16.9171L5.82977 16.9171L5.82977 8.42224ZM11.0364 8.42224L11.0364 16.9171L11.6211 16.9171L11.6211 8.42224ZM16.8347 8.42224L16.8347 16.9171L17.4196 16.9171L17.4196 8.42224ZM2.63046 17.2894L20.0243 17.2894Q21.3281 17.2894 21.9949 16.617Q22.6617 15.9445 22.6617 14.6655L22.6617 2.6265Q22.6617 1.35468 21.9949 0.677338Q21.3281 0 20.0243 0L2.63046 0Q1.33636 0 0.668182 0.668945Q0 1.33789 0 2.6265L0 14.6655Q0 15.9586 0.668182 16.624Q1.33636 17.2894 2.63046 17.2894ZM2.65701 16.568Q1.7067 16.568 1.21765 16.0767Q0.728607 15.5855 0.728607 14.6269L0.728607 2.66525Q0.728607 1.7067 1.21765 1.21758Q1.7067 0.728455 2.65701 0.728455L20.0047 0.728455Q20.9242 0.728455 21.4287 1.21758Q21.9331 1.7067 21.9331 2.66525L21.9331 14.6269Q21.9331 15.5855 21.4287 16.0767Q20.9242 16.568 20.0047 16.568Z" fill="rgba(0,0,0,0.85)"/>
 </g>
</svg>
