<?xml version="1.0" encoding="UTF-8"?>
<!--Generator: Apple Native CoreSVG 175-->
<!DOCTYPE svg
PUBLIC "-//W3C//DTD SVG 1.1//EN"
       "http://www.w3.org/Graphics/SVG/1.1/DTD/svg11.dtd">
<svg version="1.1" xmlns="http://www.w3.org/2000/svg" xmlns:xlink="http://www.w3.org/1999/xlink" width="22.0526" height="19.4949">
 <g>
  <rect height="19.4949" opacity="0" width="22.0526" x="0" y="0"/>
  <path d="M11.4473 10.4758L16.9093 5.00397L13.5434 1.63513Q12.7055 0.797272 11.7513 0.51857Q10.797 0.239868 9.84535 0.518188Q8.89374 0.796509 8.05984 1.62338Q7.23282 2.44339 6.9545 3.39706Q6.67618 4.35074 6.95702 5.30998Q7.23785 6.26923 8.06885 7.10709ZM11.9453 10.9766L15.3308 14.3622Q16.1591 15.1973 17.1133 15.476Q18.0676 15.7547 19.0227 15.4799Q19.9777 15.2051 20.8145 14.3782Q21.6414 13.5539 21.9162 12.5989Q22.191 11.6438 21.9123 10.6846Q21.6336 9.72534 20.7957 8.8945L17.4173 5.50903ZM0 14.2809L9.67697 14.2809Q9.59534 13.0266 8.92464 12.0058Q8.25394 10.9851 7.18613 10.3851Q6.11832 9.78516 4.84344 9.78516Q3.56567 9.78516 2.49435 10.3851Q1.42303 10.9851 0.752335 12.0058Q0.0816345 13.0266 0 14.2809ZM0 14.9895Q0.0816345 16.2465 0.752335 17.2707Q1.42303 18.295 2.49084 18.895Q3.55865 19.4949 4.84344 19.4949Q6.12534 19.4949 7.19177 18.8914Q8.25821 18.288 8.9254 17.2659Q9.59259 16.2437 9.67697 14.9895Z" fill="rgba(0,0,0,0.85)"/>
 </g>
</svg>
