<?xml version="1.0" encoding="UTF-8"?>
<!--Generator: Apple Native CoreSVG 175-->
<!DOCTYPE svg
PUBLIC "-//W3C//DTD SVG 1.1//EN"
       "http://www.w3.org/Graphics/SVG/1.1/DTD/svg11.dtd">
<svg version="1.1" xmlns="http://www.w3.org/2000/svg" xmlns:xlink="http://www.w3.org/1999/xlink" width="17.2852" height="17.3145">
 <g>
  <rect height="17.3145" opacity="0" width="17.2852" x="0" y="0"/>
  <path d="M2.62695 17.3145L14.6484 17.3145Q15.957 17.3145 16.6211 16.6455Q17.2852 15.9766 17.2852 14.6875L17.2852 2.65625Q17.2852 1.37695 16.6211 0.703125Q15.957 0.0292969 14.6484 0.0292969L2.62695 0.0292969Q1.33789 0.0292969 0.668945 0.693359Q0 1.35742 0 2.65625L0 14.6875Q0 15.9863 0.668945 16.6504Q1.33789 17.3145 2.62695 17.3145ZM2.65625 16.5918Q1.70898 16.5918 1.2207 16.1035Q0.732422 15.6152 0.732422 14.6582L0.732422 2.69531Q0.732422 1.72852 1.2207 1.24512Q1.70898 0.761719 2.65625 0.761719L14.6289 0.761719Q15.5566 0.761719 16.0596 1.24512Q16.5625 1.72852 16.5625 2.69531L16.5625 14.6582Q16.5625 15.6152 16.0596 16.1035Q15.5566 16.5918 14.6289 16.5918ZM4.84375 10.7617Q4.84375 10.9961 5 11.1377Q5.15625 11.2793 5.41016 11.2793L8.30078 11.2793L8.30078 13.623Q8.30078 13.9551 8.36426 14.2334Q8.42773 14.5117 8.51074 14.6875Q8.59375 14.8633 8.64258 14.8633Q8.70117 14.8633 8.78418 14.6875Q8.86719 14.5117 8.93555 14.2334Q9.00391 13.9551 9.00391 13.623L9.00391 11.2793L11.875 11.2793Q12.1387 11.2793 12.2949 11.1377Q12.4512 10.9961 12.4512 10.7617Q12.4512 9.89258 11.8262 9.12598Q11.2012 8.35938 10.1465 8.00781L9.98047 5.43945Q10.3613 5.20508 10.7715 4.8877Q11.1816 4.57031 11.4062 4.26758Q11.6016 4.01367 11.6016 3.80859Q11.6016 3.62305 11.4795 3.51074Q11.3574 3.39844 11.1328 3.39844L6.16211 3.39844Q5.95703 3.39844 5.8252 3.51074Q5.69336 3.62305 5.69336 3.80859Q5.69336 4.01367 5.9375 4.31641Q6.16211 4.59961 6.55762 4.90723Q6.95312 5.21484 7.33398 5.43945L7.1582 8.00781Q6.09375 8.35938 5.46875 9.12598Q4.84375 9.89258 4.84375 10.7617Z" fill="#ffffff"/>
 </g>
</svg>
