<?xml version="1.0" encoding="UTF-8"?>
<!--Generator: Apple Native CoreSVG 175-->
<!DOCTYPE svg
PUBLIC "-//W3C//DTD SVG 1.1//EN"
       "http://www.w3.org/Graphics/SVG/1.1/DTD/svg11.dtd">
<svg version="1.1" xmlns="http://www.w3.org/2000/svg" xmlns:xlink="http://www.w3.org/1999/xlink" width="17.6367" height="22.7441">
 <g>
  <rect height="22.7441" opacity="0" width="17.6367" x="0" y="0"/>
  <path d="M1.99219 14.2188Q1.99219 14.6387 2.28027 14.8926Q2.56836 15.1465 3.04688 15.1465L8.4082 15.1465L8.4082 21.084Q8.4082 21.416 8.46191 21.7139Q8.51562 22.0117 8.59375 22.2412Q8.67188 22.4707 8.75 22.6074Q8.82812 22.7441 8.88672 22.7441Q8.94531 22.7441 9.02344 22.6074Q9.10156 22.4707 9.18457 22.2412Q9.26758 22.0117 9.31641 21.7139Q9.36523 21.416 9.36523 21.084L9.36523 15.166L11.5039 15.166L10.7812 14.4434L3.125 14.4434Q2.73438 14.4434 2.74414 14.0332Q2.75391 13.1445 3.21289 12.3535Q3.67188 11.5625 4.47266 10.9473Q5.27344 10.332 6.30859 9.9707L5.77148 9.43359Q4.62891 9.88281 3.7793 10.6201Q2.92969 11.3574 2.46094 12.2852Q1.99219 13.2129 1.99219 14.2188ZM3.52539 1.66016Q3.52539 1.96289 3.78906 2.33398Q4.04297 2.70508 4.4873 3.11523Q4.93164 3.52539 5.44922 3.91113Q5.9668 4.29688 6.43555 4.60938L6.32812 6.30859L7.01172 7.00195L7.1875 4.35547Q7.19727 4.20898 7.11914 4.16016Q6.66016 3.90625 6.18652 3.56934Q5.71289 3.23242 5.30762 2.88574Q4.90234 2.53906 4.6582 2.25098Q4.41406 1.96289 4.4043 1.81641Q4.39453 1.71875 4.44336 1.65527Q4.49219 1.5918 4.61914 1.5918L13.1641 1.5918Q13.2812 1.5918 13.335 1.65527Q13.3887 1.71875 13.3691 1.81641Q13.3594 1.96289 13.1152 2.25098Q12.8711 2.53906 12.4658 2.88574Q12.0605 3.23242 11.5869 3.56934Q11.1133 3.90625 10.6641 4.16016Q10.5762 4.20898 10.5957 4.35547L10.8984 9.04297Q9.94141 8.80859 8.89648 8.80859L8.81836 8.80859L9.55078 9.53125Q10.6738 9.60938 11.665 10.0098Q12.6562 10.4102 13.4082 11.04Q14.1602 11.6699 14.585 12.4561Q15.0098 13.2422 15.0098 14.1016Q15.0098 14.1504 15 14.1943Q14.9902 14.2383 14.9805 14.2773L15.5273 14.8535Q15.6348 14.7363 15.708 14.5801Q15.7812 14.4238 15.7812 14.2188Q15.7812 13.1641 15.2686 12.1875Q14.7559 11.2109 13.8232 10.4492Q12.8906 9.6875 11.6406 9.25781L11.3281 4.60938Q11.8066 4.29688 12.3291 3.91113Q12.8516 3.52539 13.2959 3.11523Q13.7402 2.70508 13.9844 2.33398Q14.248 1.96289 14.248 1.66016Q14.248 1.32812 14.0186 1.11816Q13.7891 0.908203 13.3984 0.908203L4.375 0.908203Q3.98438 0.908203 3.75488 1.11816Q3.52539 1.32812 3.52539 1.66016ZM0.0976562 2.44141L17.0215 19.3457Q17.1289 19.4531 17.2803 19.4531Q17.4316 19.4531 17.5293 19.3457Q17.6367 19.2285 17.6367 19.0869Q17.6367 18.9453 17.5293 18.8379L0.625 1.93359Q0.517578 1.83594 0.371094 1.82617Q0.224609 1.81641 0.0976562 1.93359Q0 2.03125 0 2.18262Q0 2.33398 0.0976562 2.44141Z" fill="rgba(0,0,0,0.85)"/>
 </g>
</svg>
