<?xml version="1.0" encoding="UTF-8"?>
<!--Generator: Apple Native CoreSVG 175.5-->
<!DOCTYPE svg
PUBLIC "-//W3C//DTD SVG 1.1//EN"
       "http://www.w3.org/Graphics/SVG/1.1/DTD/svg11.dtd">
<svg version="1.1" xmlns="http://www.w3.org/2000/svg" xmlns:xlink="http://www.w3.org/1999/xlink" width="25.3027" height="20.4785">
 <g>
  <rect height="20.4785" opacity="0" width="25.3027" x="0" y="0"/>
  <path d="M12.6465 6.75781L20.3711 6.75781L20.3711 3.04688Q20.3711 1.54297 19.6045 0.78125Q18.8379 0.0195312 17.3145 0.0195312L3.06641 0.0195312Q1.5332 0.0195312 0.766602 0.776367Q0 1.5332 0 3.04688L0 12.9297Q0 14.4434 0.766602 15.2002Q1.5332 15.957 3.06641 15.957L8.24219 15.957L8.24219 11.123Q8.24219 9.74609 8.76465 8.76953Q9.28711 7.79297 10.2686 7.27539Q11.25 6.75781 12.6465 6.75781Z" fill="#ffffff"/>
  <path d="M12.6465 20.4785L22.2461 20.4785Q23.7695 20.4785 24.5361 19.7168Q25.3027 18.9551 25.3027 17.4512L25.3027 11.123Q25.3027 9.60938 24.5361 8.85254Q23.7695 8.0957 22.2461 8.0957L12.6465 8.0957Q11.1133 8.0957 10.3467 8.85254Q9.58008 9.60938 9.58008 11.123L9.58008 17.4512Q9.58008 18.9648 10.3467 19.7217Q11.1133 20.4785 12.6465 20.4785Z" fill="#ffffff"/>
 </g>
</svg>
