<?xml version="1.0" encoding="UTF-8"?>
<!--Generator: Apple Native CoreSVG 175.5-->
<!DOCTYPE svg
PUBLIC "-//W3C//DTD SVG 1.1//EN"
       "http://www.w3.org/Graphics/SVG/1.1/DTD/svg11.dtd">
<svg version="1.1" xmlns="http://www.w3.org/2000/svg" xmlns:xlink="http://www.w3.org/1999/xlink" width="12.5586" height="20.6934">
 <g>
  <rect height="20.6934" opacity="0" width="12.5586" x="0" y="0"/>
  <path d="M2.65625 20.6738L9.90234 20.6738Q11.1035 20.6738 11.8311 19.9756Q12.5586 19.2773 12.5586 18.1348L12.5586 2.53906Q12.5586 1.39648 11.8311 0.698242Q11.1035 0 9.90234 0L2.65625 0Q1.46484 0 0.732422 0.698242Q0 1.39648 0 2.53906L0 18.1348Q0 19.2773 0.732422 19.9756Q1.46484 20.6738 2.65625 20.6738ZM2.86133 19.1016Q2.23633 19.1016 1.9043 18.7842Q1.57227 18.4668 1.57227 17.8809L1.57227 2.79297Q1.57227 2.20703 1.9043 1.88965Q2.23633 1.57227 2.86133 1.57227L9.70703 1.57227Q10.3223 1.57227 10.6543 1.88965Q10.9863 2.20703 10.9863 2.79297L10.9863 17.8809Q10.9863 18.4668 10.6543 18.7842Q10.3223 19.1016 9.70703 19.1016Z" fill="#ffffff"/>
  <path d="M3.69141 8.29102L8.87695 8.29102Q9.26758 8.29102 9.50684 8.04688Q9.74609 7.80273 9.74609 7.40234L9.74609 5.57617Q9.74609 5.17578 9.50684 4.93164Q9.26758 4.6875 8.87695 4.6875L3.69141 4.6875Q3.29102 4.6875 3.05664 4.93164Q2.82227 5.17578 2.82227 5.57617L2.82227 7.40234Q2.82227 7.80273 3.05664 8.04688Q3.29102 8.29102 3.69141 8.29102ZM3.69141 15.957L8.87695 15.957Q9.26758 15.957 9.50684 15.7178Q9.74609 15.4785 9.74609 15.0684L9.74609 13.252Q9.74609 12.8418 9.50684 12.6025Q9.26758 12.3633 8.87695 12.3633L3.69141 12.3633Q3.29102 12.3633 3.05664 12.6025Q2.82227 12.8418 2.82227 13.252L2.82227 15.0684Q2.82227 15.4785 3.05664 15.7178Q3.29102 15.957 3.69141 15.957Z" fill="#ffffff"/>
 </g>
</svg>
