<?xml version="1.0" encoding="UTF-8"?>
<!--Generator: Apple Native CoreSVG 175.5-->
<!DOCTYPE svg
PUBLIC "-//W3C//DTD SVG 1.1//EN"
       "http://www.w3.org/Graphics/SVG/1.1/DTD/svg11.dtd">
<svg version="1.1" xmlns="http://www.w3.org/2000/svg" xmlns:xlink="http://www.w3.org/1999/xlink" width="16.8555" height="17.1486">
 <g>
  <rect height="17.1486" opacity="0" width="16.8555" x="0" y="0"/>
  <path d="M10.3223 13.0323L2.08984 4.79991L2.08984 15.4444Q2.08984 16.0792 2.40723 16.4649Q2.72461 16.8507 3.26172 16.8507Q3.55469 16.8507 3.81836 16.7482Q4.08203 16.6456 4.375 16.4698ZM13.7695 11.0401L15.7617 9.8878Q16.377 9.52647 16.6162 9.24815Q16.8555 8.96983 16.8555 8.57921Q16.8555 8.18858 16.6162 7.91026Q16.377 7.63194 15.7617 7.28038L4.375 0.68858Q4.11133 0.53233 3.88184 0.429791Q3.65234 0.327252 3.39844 0.327252Q3.33008 0.327252 3.28613 0.380963Q3.24219 0.434674 3.23242 0.512799Z" fill="#ffffff"/>
  <path d="M14.668 15.7179Q14.8926 15.9425 15.2051 15.9425Q15.5176 15.9425 15.7324 15.7179Q15.9473 15.4933 15.9521 15.1857Q15.957 14.878 15.7324 14.6534L1.28906 0.21983Q1.06445 0.0049867 0.751953 0.00010389Q0.439453-0.00477892 0.214844 0.21983Q0 0.434674 0 0.752057Q0 1.06944 0.214844 1.28428Z" fill="#ffffff"/>
 </g>
</svg>
