<?xml version="1.0" encoding="UTF-8"?>
<!--Generator: Apple Native CoreSVG 175-->
<!DOCTYPE svg
PUBLIC "-//W3C//DTD SVG 1.1//EN"
       "http://www.w3.org/Graphics/SVG/1.1/DTD/svg11.dtd">
<svg version="1.1" xmlns="http://www.w3.org/2000/svg" xmlns:xlink="http://www.w3.org/1999/xlink" width="22.9492" height="18.3496">
 <g>
  <rect height="18.3496" opacity="0" width="22.9492" x="0" y="0"/>
  <path d="M1.98242 15.8203L20.9668 15.8203Q21.9531 15.8203 22.4512 15.3223Q22.9492 14.8242 22.9492 13.8281L22.9492 2.49023Q22.9492 1.50391 22.4512 1.01074Q21.9531 0.517578 20.9668 0.517578L1.98242 0.517578Q0.996094 0.517578 0.498047 1.01074Q0 1.50391 0 2.49023L0 13.8281Q0 14.8242 0.498047 15.3223Q0.996094 15.8203 1.98242 15.8203ZM6.80664 18.3496L16.1426 18.3496Q16.2988 18.3496 16.4062 18.2471Q16.5137 18.1445 16.5137 17.9883Q16.5137 17.832 16.4062 17.7295Q16.2988 17.627 16.1426 17.627L6.80664 17.627Q6.66016 17.627 6.54785 17.7295Q6.43555 17.832 6.43555 17.9883Q6.43555 18.1445 6.54785 18.2471Q6.66016 18.3496 6.80664 18.3496ZM8.20312 12.3145L8.20312 4.02344Q8.20312 3.7207 8.45703 3.61328Q8.71094 3.50586 8.96484 3.65234L15.8887 7.71484Q16.1523 7.88086 16.1523 8.16895Q16.1523 8.45703 15.8887 8.61328L8.96484 12.6855Q8.71094 12.832 8.45703 12.7246Q8.20312 12.6172 8.20312 12.3145Z" fill="rgba(0,0,0,0.85)"/>
 </g>
</svg>
