<?xml version="1.0" encoding="UTF-8"?>
<!--Generator: Apple Native CoreSVG 175-->
<!DOCTYPE svg
PUBLIC "-//W3C//DTD SVG 1.1//EN"
       "http://www.w3.org/Graphics/SVG/1.1/DTD/svg11.dtd">
<svg version="1.1" xmlns="http://www.w3.org/2000/svg" xmlns:xlink="http://www.w3.org/1999/xlink" width="15.4384" height="15.448">
 <g>
  <rect height="15.448" opacity="0" width="15.4384" x="0" y="0"/>
  <path d="M0 7.71912Q0 7.87659 0.11116 7.98637Q0.222321 8.09616 0.377045 8.09616L7.34222 8.09616L7.34222 15.0543Q7.34222 15.2089 7.45201 15.3236Q7.5618 15.4382 7.71912 15.4382Q7.87659 15.4382 7.98775 15.3236Q8.09891 15.2089 8.09891 15.0543L8.09891 8.09616L15.0543 8.09616Q15.2161 8.09616 15.3272 7.98637Q15.4384 7.87659 15.4384 7.71912Q15.4384 7.56165 15.3272 7.44698Q15.2161 7.33231 15.0543 7.33231L8.09891 7.33231L8.09891 0.376892Q8.09891 0.222168 7.98775 0.111084Q7.87659 0 7.71912 0Q7.5618 0 7.45201 0.111084Q7.34222 0.222168 7.34222 0.376892L7.34222 7.33231L0.377045 7.33231Q0.222321 7.33231 0.11116 7.44698Q0 7.56165 0 7.71912Z" fill="#ffffff"/>
 </g>
</svg>
