<?xml version="1.0" encoding="UTF-8"?>
<!--Generator: Apple Native CoreSVG 175.5-->
<!DOCTYPE svg
PUBLIC "-//W3C//DTD SVG 1.1//EN"
       "http://www.w3.org/Graphics/SVG/1.1/DTD/svg11.dtd">
<svg version="1.1" xmlns="http://www.w3.org/2000/svg" xmlns:xlink="http://www.w3.org/1999/xlink" width="17.7734" height="17.7832">
 <g>
  <rect height="17.7832" opacity="0" width="17.7734" x="0" y="0"/>
  <path d="M16.6309 1.15234Q15.8789 0.400391 14.8438 0.200195Q13.8086 0 12.5586 0L5.18555 0Q3.95508 0 2.9248 0.200195Q1.89453 0.400391 1.14258 1.15234Q0.400391 1.89453 0.200195 2.91992Q0 3.94531 0 5.17578L0 12.5586Q0 13.8086 0.195312 14.8389Q0.390625 15.8691 1.14258 16.6113Q1.89453 17.3633 2.9248 17.5635Q3.95508 17.7637 5.20508 17.7637L12.5586 17.7637Q13.8086 17.7637 14.8438 17.5635Q15.8789 17.3633 16.6309 16.6113Q17.373 15.8691 17.5732 14.8389Q17.7734 13.8086 17.7734 12.5586L17.7734 5.20508Q17.7734 3.95508 17.5732 2.9248Q17.373 1.89453 16.6309 1.15234Z" fill="#ffffff"/>
  <path d="M4.12109 8.89648Q4.12109 8.51562 4.36523 8.27637Q4.60938 8.03711 4.99023 8.03711L8.04688 8.03711L8.04688 4.98047Q8.04688 4.59961 8.27637 4.35547Q8.50586 4.11133 8.87695 4.11133Q9.25781 4.11133 9.49707 4.35547Q9.73633 4.59961 9.73633 4.98047L9.73633 8.03711L12.8027 8.03711Q13.1836 8.03711 13.4229 8.27637Q13.6621 8.51562 13.6621 8.89648Q13.6621 9.26758 13.418 9.49707Q13.1738 9.72656 12.8027 9.72656L9.73633 9.72656L9.73633 12.793Q9.73633 13.1738 9.49707 13.4131Q9.25781 13.6523 8.87695 13.6523Q8.50586 13.6523 8.27637 13.4131Q8.04688 13.1738 8.04688 12.793L8.04688 9.72656L4.99023 9.72656Q4.60938 9.72656 4.36523 9.49707Q4.12109 9.26758 4.12109 8.89648Z" fill="none"/>
 </g>
</svg>
