<?xml version="1.0" encoding="UTF-8"?>
<!--Generator: Apple Native CoreSVG 175-->
<!DOCTYPE svg
PUBLIC "-//W3C//DTD SVG 1.1//EN"
       "http://www.w3.org/Graphics/SVG/1.1/DTD/svg11.dtd">
<svg version="1.1" xmlns="http://www.w3.org/2000/svg" xmlns:xlink="http://www.w3.org/1999/xlink" width="20.7715" height="20.3223">
 <g>
  <rect height="20.3223" opacity="0" width="20.7715" x="0" y="0"/>
  <path d="M5.06836 20.3223Q5.25391 20.3223 5.39551 20.2295Q5.53711 20.1367 5.71289 19.9902L9.22852 16.9629L17.0508 16.9629Q18.2031 16.9629 19.0381 16.5088Q19.873 16.0547 20.3223 15.2197Q20.7715 14.3848 20.7715 13.252L20.7715 4.90234Q20.7715 3.75977 20.3223 2.9248Q19.873 2.08984 19.0381 1.63574Q18.2031 1.18164 17.0508 1.18164L3.7207 1.18164Q2.56836 1.18164 1.7334 1.63574Q0.898438 2.08984 0.449219 2.91992Q0 3.75 0 4.90234L0 13.252Q0 14.3945 0.449219 15.2246Q0.898438 16.0547 1.7334 16.5088Q2.56836 16.9629 3.7207 16.9629L4.55078 16.9629L4.55078 19.7168Q4.55078 20 4.69727 20.1611Q4.84375 20.3223 5.06836 20.3223ZM5.23438 19.5117L5.23438 16.582Q5.23438 16.4062 5.15625 16.3232Q5.07812 16.2402 4.88281 16.2402L3.73047 16.2402Q2.33398 16.2402 1.5332 15.4297Q0.732422 14.6191 0.732422 13.2227L0.732422 4.92188Q0.732422 3.52539 1.5332 2.71973Q2.33398 1.91406 3.73047 1.91406L17.0312 1.91406Q18.4082 1.91406 19.2236 2.71973Q20.0391 3.52539 20.0391 4.92188L20.0391 13.2227Q20.0391 14.6191 19.2236 15.4297Q18.4082 16.2402 17.0312 16.2402L9.30664 16.2402Q9.07227 16.2402 8.9209 16.2988Q8.76953 16.3574 8.58398 16.5332ZM6.07422 9.07227Q6.07422 9.21875 6.18652 9.32617Q6.29883 9.43359 6.45508 9.43359L10.0195 9.43359L10.0195 12.9883Q10.0195 13.1543 10.127 13.2666Q10.2344 13.3789 10.3809 13.3789Q10.5469 13.3789 10.6592 13.2715Q10.7715 13.1641 10.7715 12.9883L10.7715 9.43359L14.3359 9.43359Q14.4922 9.43359 14.6045 9.32617Q14.7168 9.21875 14.7168 9.07227Q14.7168 8.90625 14.6094 8.79395Q14.502 8.68164 14.3359 8.68164L10.7715 8.68164L10.7715 5.12695Q10.7715 4.95117 10.6592 4.84863Q10.5469 4.74609 10.3809 4.74609Q10.2344 4.74609 10.127 4.85352Q10.0195 4.96094 10.0195 5.12695L10.0195 8.68164L6.45508 8.68164Q6.28906 8.68164 6.18164 8.79395Q6.07422 8.90625 6.07422 9.07227Z" fill="#ffffff"/>
 </g>
</svg>
