<?xml version="1.0" encoding="UTF-8"?>
<!--Generator: Apple Native CoreSVG 175.5-->
<!DOCTYPE svg
PUBLIC "-//W3C//DTD SVG 1.1//EN"
       "http://www.w3.org/Graphics/SVG/1.1/DTD/svg11.dtd">
<svg version="1.1" xmlns="http://www.w3.org/2000/svg" xmlns:xlink="http://www.w3.org/1999/xlink" width="23.0273" height="17.9785">
 <g>
  <rect height="17.9785" opacity="0" width="23.0273" x="0" y="0"/>
  <path d="M3.06641 17.9785L19.9609 17.9785Q21.5039 17.9785 22.2656 17.2217Q23.0273 16.4648 23.0273 14.9609L23.0273 3.02734Q23.0273 1.52344 22.2656 0.761719Q21.5039 0 19.9609 0L3.06641 0Q1.5332 0 0.766602 0.756836Q0 1.51367 0 3.02734L0 14.9609Q0 16.4648 0.766602 17.2217Q1.5332 17.9785 3.06641 17.9785ZM3.08594 16.4062Q2.35352 16.4062 1.96289 16.0205Q1.57227 15.6348 1.57227 14.873L1.57227 3.11523Q1.57227 2.35352 1.96289 1.96289Q2.35352 1.57227 3.08594 1.57227L19.9414 1.57227Q20.6641 1.57227 21.0596 1.96289Q21.4551 2.35352 21.4551 3.11523L21.4551 14.873Q21.4551 15.6348 21.0596 16.0205Q20.6641 16.4062 19.9414 16.4062Z" fill="#ffffff"/>
  <path d="M6.99219 8.98438Q6.99219 9.33594 7.22656 9.56055Q7.46094 9.78516 7.83203 9.78516L10.7031 9.78516L10.7031 12.666Q10.7031 13.0371 10.9277 13.2666Q11.1523 13.4961 11.5039 13.4961Q11.875 13.4961 12.1045 13.2666Q12.334 13.0371 12.334 12.666L12.334 9.78516L15.2148 9.78516Q15.5859 9.78516 15.8154 9.56055Q16.0449 9.33594 16.0449 8.98438Q16.0449 8.61328 15.8154 8.38379Q15.5859 8.1543 15.2148 8.1543L12.334 8.1543L12.334 5.2832Q12.334 4.90234 12.1045 4.67285Q11.875 4.44336 11.5039 4.44336Q11.1523 4.44336 10.9277 4.67773Q10.7031 4.91211 10.7031 5.2832L10.7031 8.1543L7.83203 8.1543Q7.45117 8.1543 7.22168 8.38379Q6.99219 8.61328 6.99219 8.98438Z" fill="#ffffff"/>
 </g>
</svg>
