<?xml version="1.0" encoding="UTF-8"?>
<!--Generator: Apple Native CoreSVG 175.5-->
<!DOCTYPE svg
PUBLIC "-//W3C//DTD SVG 1.1//EN"
       "http://www.w3.org/Graphics/SVG/1.1/DTD/svg11.dtd">
<svg version="1.1" xmlns="http://www.w3.org/2000/svg" xmlns:xlink="http://www.w3.org/1999/xlink" width="17.1777" height="21.1621">
 <g>
  <rect height="21.1621" opacity="0" width="17.1777" x="0" y="0"/>
  <path d="M2.35352 6.68945Q2.35352 8.1543 3.25195 9.16504Q4.15039 10.1758 5.89844 10.6543L10.8105 12.041Q13.2422 12.7344 13.2422 14.502L13.2422 15.1855L14.8145 15.1855L14.8145 14.502Q14.8145 13.0469 13.9209 12.0361Q13.0273 11.0254 11.2793 10.5469L6.36719 9.16016Q3.92578 8.47656 3.92578 6.68945L3.92578 6.01562L2.35352 6.01562Z" fill="#ffffff"/>
  <path d="M14.0332 14.873Q13.1641 14.873 12.4463 15.2979Q11.7285 15.7227 11.3037 16.4404Q10.8789 17.1582 10.8789 18.0273Q10.8789 18.8965 11.3037 19.6094Q11.7285 20.3223 12.4463 20.7422Q13.1641 21.1621 14.0332 21.1621Q14.9023 21.1621 15.6152 20.7422Q16.3281 20.3223 16.7529 19.6094Q17.1777 18.8965 17.1777 18.0273Q17.1777 17.1582 16.7529 16.4404Q16.3281 15.7227 15.6152 15.2979Q14.9023 14.873 14.0332 14.873ZM14.0332 16.4062Q14.707 16.4062 15.1758 16.875Q15.6445 17.3438 15.6445 18.0273Q15.6445 18.7012 15.1758 19.165Q14.707 19.6289 14.0332 19.6289Q13.3496 19.6289 12.8809 19.165Q12.4121 18.7012 12.4121 18.0273Q12.4121 17.3438 12.8809 16.875Q13.3496 16.4062 14.0332 16.4062ZM3.14453 6.32812Q4.01367 6.32812 4.72656 5.90332Q5.43945 5.47852 5.86426 4.76074Q6.28906 4.04297 6.28906 3.17383Q6.28906 2.30469 5.86426 1.5918Q5.43945 0.878906 4.72656 0.454102Q4.01367 0.0292969 3.14453 0.0292969Q2.27539 0.0292969 1.5625 0.454102Q0.849609 0.878906 0.424805 1.5918Q0 2.30469 0 3.17383Q0 4.04297 0.424805 4.76074Q0.849609 5.47852 1.5625 5.90332Q2.27539 6.32812 3.14453 6.32812ZM3.14453 4.79492Q2.4707 4.79492 2.00195 4.32617Q1.5332 3.85742 1.5332 3.17383Q1.5332 2.49023 2.00195 2.02637Q2.4707 1.5625 3.14453 1.5625Q3.82812 1.5625 4.29199 2.02637Q4.75586 2.49023 4.75586 3.17383Q4.75586 3.85742 4.29199 4.32617Q3.82812 4.79492 3.14453 4.79492Z" fill="#ffffff"/>
 </g>
</svg>
