<?xml version="1.0" encoding="UTF-8"?>
<!--Generator: Apple Native CoreSVG 175.5-->
<!DOCTYPE svg
PUBLIC "-//W3C//DTD SVG 1.1//EN"
       "http://www.w3.org/Graphics/SVG/1.1/DTD/svg11.dtd">
<svg version="1.1" xmlns="http://www.w3.org/2000/svg" xmlns:xlink="http://www.w3.org/1999/xlink" width="18.5938" height="17.998">
 <g>
  <rect height="17.998" opacity="0" width="18.5938" x="0" y="0"/>
  <path d="M3.06641 17.998L15.5273 17.998Q17.0605 17.998 17.8271 17.2412Q18.5938 16.4844 18.5938 14.9707L18.5938 3.04688Q18.5938 1.5332 17.8271 0.776367Q17.0605 0.0195312 15.5273 0.0195312L3.06641 0.0195312Q1.5332 0.0195312 0.766602 0.776367Q0 1.5332 0 3.04688L0 14.9707Q0 16.4844 0.766602 17.2412Q1.5332 17.998 3.06641 17.998Z" fill="#ffffff"/>
  <path d="M8.88672 7.8125Q8.63281 7.8125 8.47656 7.65625Q8.32031 7.5 8.32031 7.23633L8.32031 4.29688Q8.32031 4.04297 8.47656 3.88672Q8.63281 3.73047 8.88672 3.73047L9.69727 3.73047Q9.95117 3.73047 10.1074 3.88672Q10.2637 4.04297 10.2637 4.29688L10.2637 7.23633Q10.2637 7.5 10.1074 7.65625Q9.95117 7.8125 9.69727 7.8125ZM4.46289 13.75Q4.19922 13.75 4.04785 13.5986Q3.89648 13.4473 3.89648 13.1934L3.89648 12.373Q3.89648 12.1191 4.04785 11.9629Q4.19922 11.8066 4.46289 11.8066L7.08008 11.8066Q7.33398 11.8066 7.49023 11.9629Q7.64648 12.1191 7.64648 12.373L7.64648 13.1934Q7.64648 13.4473 7.49023 13.5986Q7.33398 13.75 7.08008 13.75ZM11.5137 13.75Q11.2598 13.75 11.0986 13.5986Q10.9375 13.4473 10.9375 13.1934L10.9375 12.373Q10.9375 12.1191 11.0986 11.9629Q11.2598 11.8066 11.5137 11.8066L14.1211 11.8066Q14.3848 11.8066 14.541 11.9629Q14.6973 12.1191 14.6973 12.373L14.6973 13.1934Q14.6973 13.4473 14.5459 13.5986Q14.3945 13.75 14.1211 13.75Z" fill="none"/>
 </g>
</svg>
