<?xml version="1.0" encoding="UTF-8"?>
<!--Generator: Apple Native CoreSVG 175.5-->
<!DOCTYPE svg
PUBLIC "-//W3C//DTD SVG 1.1//EN"
       "http://www.w3.org/Graphics/SVG/1.1/DTD/svg11.dtd">
<svg version="1.1" xmlns="http://www.w3.org/2000/svg" xmlns:xlink="http://www.w3.org/1999/xlink" width="20.9277" height="16.8066">
 <g>
  <rect height="16.8066" opacity="0" width="20.9277" x="0" y="0"/>
  <path d="M5.17578 16.7871L15.7422 16.7871Q16.2793 16.7871 16.7578 16.6064Q17.2363 16.4258 17.6074 16.0742Q18.6523 15.0879 19.3945 13.8379Q20.1367 12.5879 20.5322 11.1963Q20.9277 9.80469 20.9277 8.39844Q20.9277 6.98242 20.5322 5.5957Q20.1367 4.20898 19.3945 2.95898Q18.6523 1.70898 17.6074 0.722656Q17.2461 0.371094 16.7627 0.185547Q16.2793 0 15.7422 0L5.17578 0Q4.61914 0 4.11133 0.205078Q3.60352 0.410156 3.22266 0.800781Q2.2168 1.78711 1.49414 3.02246Q0.771484 4.25781 0.385742 5.62988Q0 7.00195 0 8.39844Q0 9.80469 0.395508 11.1963Q0.791016 12.5879 1.5332 13.8379Q2.27539 15.0879 3.32031 16.0742Q3.68164 16.4258 4.16504 16.6064Q4.64844 16.7871 5.17578 16.7871ZM5.17578 15.2637Q4.6875 15.2637 4.4043 14.9805Q3.51562 14.1406 2.88574 13.0811Q2.25586 12.0215 1.91406 10.8398Q1.57227 9.6582 1.57227 8.44727Q1.57227 7.23633 1.91406 6.04492Q2.25586 4.85352 2.89551 3.78906Q3.53516 2.72461 4.42383 1.89453Q4.70703 1.62109 5.17578 1.62109L15.7422 1.62109Q16.2305 1.62109 16.5234 1.91406Q17.4023 2.74414 18.0371 3.80859Q18.6719 4.87305 19.0137 6.05469Q19.3555 7.23633 19.3555 8.44727Q19.3555 9.6582 19.0137 10.8398Q18.6719 12.0215 18.0371 13.0811Q17.4023 14.1406 16.5234 14.9805Q16.2402 15.2637 15.7422 15.2637Z" fill="#ffffff"/>
  <path d="M6.38672 12.3438Q6.74805 12.3438 7.00195 12.0996Q7.25586 11.8555 7.25586 11.4941L7.25586 5.41016Q7.25586 5.04883 7.00195 4.79004Q6.74805 4.53125 6.38672 4.53125Q6.01562 4.53125 5.77637 4.79004Q5.53711 5.04883 5.53711 5.41016L5.53711 11.4941Q5.53711 11.8555 5.78125 12.0996Q6.02539 12.3438 6.38672 12.3438ZM14.5312 12.3438Q14.8926 12.3438 15.1416 12.0947Q15.3906 11.8457 15.3906 11.4844L15.3906 5.41016Q15.3906 5.04883 15.1416 4.79004Q14.8926 4.53125 14.5312 4.53125Q14.1699 4.53125 13.9209 4.79004Q13.6719 5.04883 13.6719 5.41016L13.6719 11.4844Q13.6719 11.8457 13.9209 12.0947Q14.1699 12.3438 14.5312 12.3438Z" fill="#ffffff"/>
 </g>
</svg>
