<?xml version="1.0" encoding="UTF-8"?>
<!--Generator: Apple Native CoreSVG 175.5-->
<!DOCTYPE svg
PUBLIC "-//W3C//DTD SVG 1.1//EN"
       "http://www.w3.org/Graphics/SVG/1.1/DTD/svg11.dtd">
<svg version="1.1" xmlns="http://www.w3.org/2000/svg" xmlns:xlink="http://www.w3.org/1999/xlink" width="18.5938" height="17.998">
 <g>
  <rect height="17.998" opacity="0" width="18.5938" x="0" y="0"/>
  <path d="M3.06641 17.998L15.5273 17.998Q17.0605 17.998 17.8271 17.2412Q18.5938 16.4844 18.5938 14.9707L18.5938 3.04688Q18.5938 1.5332 17.8271 0.776367Q17.0605 0.0195312 15.5273 0.0195312L3.06641 0.0195312Q1.5332 0.0195312 0.766602 0.776367Q0 1.5332 0 3.04688L0 14.9707Q0 16.4844 0.766602 17.2412Q1.5332 17.998 3.06641 17.998ZM3.08594 16.4258Q2.35352 16.4258 1.96289 16.04Q1.57227 15.6543 1.57227 14.8926L1.57227 3.125Q1.57227 2.36328 1.96289 1.97754Q2.35352 1.5918 3.08594 1.5918L15.498 1.5918Q16.2207 1.5918 16.6211 1.97754Q17.0215 2.36328 17.0215 3.125L17.0215 14.8926Q17.0215 15.6543 16.6211 16.04Q16.2207 16.4258 15.498 16.4258Z" fill="#ffffff"/>
  <path d="M8.89648 13.8965L9.6875 13.8965Q9.94141 13.8965 10.0879 13.7451Q10.2344 13.5938 10.2344 13.3398L10.2344 10.4883Q10.2344 10.2344 10.0879 10.083Q9.94141 9.93164 9.6875 9.93164L8.89648 9.93164Q8.65234 9.93164 8.50098 10.083Q8.34961 10.2344 8.34961 10.4883L8.34961 13.3398Q8.34961 13.5938 8.50098 13.7451Q8.65234 13.8965 8.89648 13.8965ZM4.25781 8.125L4.82422 8.68164Q5 8.85742 5.21484 8.85742Q5.42969 8.85742 5.60547 8.68164L7.89062 6.39648Q8.07617 6.21094 8.07129 6.00098Q8.06641 5.79102 7.89062 5.61523L7.33398 5.04883Q7.1582 4.88281 6.94824 4.88281Q6.73828 4.88281 6.5625 5.05859L4.26758 7.34375Q4.0918 7.51953 4.0918 7.73438Q4.0918 7.94922 4.25781 8.125ZM13.7695 8.68164L14.3359 8.11523Q14.502 7.94922 14.502 7.73926Q14.502 7.5293 14.3164 7.34375L12.0312 5.05859Q11.8555 4.88281 11.6455 4.87793Q11.4355 4.87305 11.2598 5.04883L10.7031 5.61523Q10.5176 5.79102 10.5176 6.00098Q10.5176 6.21094 10.7031 6.39648L12.9883 8.68164Q13.1641 8.85742 13.374 8.85742Q13.584 8.85742 13.7695 8.68164Z" fill="#ffffff"/>
 </g>
</svg>
