<?xml version="1.0" encoding="UTF-8"?>
<!--Generator: Apple Native CoreSVG 175.5-->
<!DOCTYPE svg
PUBLIC "-//W3C//DTD SVG 1.1//EN"
       "http://www.w3.org/Graphics/SVG/1.1/DTD/svg11.dtd">
<svg version="1.1" xmlns="http://www.w3.org/2000/svg" xmlns:xlink="http://www.w3.org/1999/xlink" width="17.9785" height="17.998">
 <g>
  <rect height="17.998" opacity="0" width="17.9785" x="0" y="0"/>
  <path d="M3.06641 17.998L14.9121 17.998Q16.4453 17.998 17.2119 17.2412Q17.9785 16.4844 17.9785 14.9707L17.9785 3.04688Q17.9785 1.5332 17.2119 0.776367Q16.4453 0.0195312 14.9121 0.0195312L3.06641 0.0195312Q1.5332 0.0195312 0.766602 0.776367Q0 1.5332 0 3.04688L0 14.9707Q0 16.4844 0.766602 17.2412Q1.5332 17.998 3.06641 17.998Z" fill="#ffffff"/>
  <path d="M8.99414 14.2871Q7.89062 14.2871 6.92871 13.877Q5.9668 13.4668 5.24414 12.7393Q4.52148 12.0117 4.11133 11.0498Q3.70117 10.0879 3.70117 8.99414Q3.70117 7.89062 4.11133 6.93359Q4.52148 5.97656 5.24414 5.24902Q5.9668 4.52148 6.92871 4.11133Q7.89062 3.70117 8.99414 3.70117Q10.0879 3.70117 11.0498 4.11133Q12.0117 4.52148 12.7393 5.24902Q13.4668 5.97656 13.8721 6.93359Q14.2773 7.89062 14.2773 8.99414Q14.2773 10.0879 13.8721 11.0498Q13.4668 12.0117 12.7393 12.7393Q12.0117 13.4668 11.0498 13.877Q10.0879 14.2871 8.99414 14.2871ZM8.99414 7.08984Q9.30664 7.08984 9.53125 6.86035Q9.75586 6.63086 9.75586 6.31836Q9.75586 5.99609 9.53125 5.77148Q9.30664 5.54688 8.99414 5.54688Q8.67188 5.54688 8.44727 5.77148Q8.22266 5.99609 8.22266 6.31836Q8.22266 6.63086 8.44727 6.86035Q8.67188 7.08984 8.99414 7.08984ZM6.32812 10.1953Q6.81641 10.1953 7.16309 9.84863Q7.50977 9.50195 7.50977 9.01367Q7.50977 8.52539 7.16309 8.17871Q6.81641 7.83203 6.32812 7.83203Q5.83984 7.83203 5.49316 8.17871Q5.14648 8.52539 5.14648 9.01367Q5.14648 9.50195 5.49316 9.84863Q5.83984 10.1953 6.32812 10.1953ZM11.6504 10.1758Q12.1387 10.1758 12.4854 9.8291Q12.832 9.48242 12.832 8.99414Q12.832 8.50586 12.4854 8.15918Q12.1387 7.8125 11.6504 7.8125Q11.1621 7.8125 10.8154 8.15918Q10.4688 8.50586 10.4688 8.99414Q10.4688 9.48242 10.8154 9.8291Q11.1621 10.1758 11.6504 10.1758Z" fill="none"/>
 </g>
</svg>
