<?xml version="1.0" encoding="UTF-8"?>
<!--Generator: Apple Native CoreSVG 175.5-->
<!DOCTYPE svg
PUBLIC "-//W3C//DTD SVG 1.1//EN"
       "http://www.w3.org/Graphics/SVG/1.1/DTD/svg11.dtd">
<svg version="1.1" xmlns="http://www.w3.org/2000/svg" xmlns:xlink="http://www.w3.org/1999/xlink" width="17.9785" height="17.998">
 <g>
  <rect height="17.998" opacity="0" width="17.9785" x="0" y="0"/>
  <path d="M3.06641 17.998L14.9121 17.998Q16.4453 17.998 17.2119 17.2412Q17.9785 16.4844 17.9785 14.9707L17.9785 3.04688Q17.9785 1.5332 17.2119 0.776367Q16.4453 0.0195312 14.9121 0.0195312L3.06641 0.0195312Q1.5332 0.0195312 0.766602 0.776367Q0 1.5332 0 3.04688L0 14.9707Q0 16.4844 0.766602 17.2412Q1.5332 17.998 3.06641 17.998ZM3.08594 16.4258Q2.35352 16.4258 1.96289 16.04Q1.57227 15.6543 1.57227 14.8926L1.57227 3.125Q1.57227 2.36328 1.96289 1.97754Q2.35352 1.5918 3.08594 1.5918L14.8926 1.5918Q15.6152 1.5918 16.0107 1.97754Q16.4062 2.36328 16.4062 3.125L16.4062 14.8926Q16.4062 15.6543 16.0107 16.04Q15.6152 16.4258 14.8926 16.4258Z" fill="#ffffff"/>
  <path d="M8.99414 14.1211Q10.4102 14.1211 11.5723 13.4326Q12.7344 12.7441 13.4229 11.5771Q14.1113 10.4102 14.1113 8.99414Q14.1113 7.56836 13.4229 6.40625Q12.7344 5.24414 11.5723 4.55566Q10.4102 3.86719 8.99414 3.86719Q7.56836 3.86719 6.40625 4.55566Q5.24414 5.24414 4.55566 6.40625Q3.86719 7.56836 3.86719 8.99414Q3.86719 10.4102 4.55566 11.5771Q5.24414 12.7441 6.40625 13.4326Q7.56836 14.1211 8.99414 14.1211ZM6.5625 10.1367Q6.09375 10.1367 5.75684 9.7998Q5.41992 9.46289 5.41992 8.99414Q5.41992 8.52539 5.75684 8.18848Q6.09375 7.85156 6.5625 7.85156Q7.03125 7.85156 7.36816 8.18848Q7.70508 8.52539 7.70508 8.99414Q7.70508 9.46289 7.36816 9.7998Q7.03125 10.1367 6.5625 10.1367ZM11.416 10.1367Q10.9473 10.1367 10.6104 9.7998Q10.2734 9.46289 10.2734 8.99414Q10.2734 8.52539 10.6104 8.18848Q10.9473 7.85156 11.416 7.85156Q11.8848 7.85156 12.2217 8.18848Q12.5586 8.52539 12.5586 8.99414Q12.5586 9.46289 12.2217 9.7998Q11.8848 10.1367 11.416 10.1367Z" fill="#ffffff"/>
 </g>
</svg>
