<?xml version="1.0" encoding="UTF-8"?>
<!--Generator: Apple Native CoreSVG 175.5-->
<!DOCTYPE svg
PUBLIC "-//W3C//DTD SVG 1.1//EN"
       "http://www.w3.org/Graphics/SVG/1.1/DTD/svg11.dtd">
<svg version="1.1" xmlns="http://www.w3.org/2000/svg" xmlns:xlink="http://www.w3.org/1999/xlink" width="17.9785" height="17.998">
 <g>
  <rect height="17.998" opacity="0" width="17.9785" x="0" y="0"/>
  <path d="M3.06641 17.998L14.9121 17.998Q16.4453 17.998 17.2119 17.2412Q17.9785 16.4844 17.9785 14.9707L17.9785 3.04688Q17.9785 1.5332 17.2119 0.776367Q16.4453 0.0195312 14.9121 0.0195312L3.06641 0.0195312Q1.5332 0.0195312 0.766602 0.776367Q0 1.5332 0 3.04688L0 14.9707Q0 16.4844 0.766602 17.2412Q1.5332 17.998 3.06641 17.998Z" fill="#ffffff"/>
  <path d="M5.05859 13.7207Q4.64844 13.7207 4.37988 13.4521Q4.11133 13.1836 4.11133 12.7734L4.11133 5.21484Q4.11133 4.80469 4.37988 4.53613Q4.64844 4.26758 5.05859 4.26758L12.9199 4.26758Q13.3301 4.26758 13.5986 4.53613Q13.8672 4.80469 13.8672 5.21484L13.8672 12.7734Q13.8672 13.1836 13.5986 13.4521Q13.3301 13.7207 12.9199 13.7207ZM7.07031 9.02344Q7.29492 9.02344 7.45605 8.87207Q7.61719 8.7207 7.61719 8.48633L7.61719 6.76758Q7.61719 6.54297 7.45605 6.38184Q7.29492 6.2207 7.07031 6.2207Q6.8457 6.2207 6.69434 6.38184Q6.54297 6.54297 6.54297 6.76758L6.54297 8.48633Q6.54297 8.7207 6.69434 8.87207Q6.8457 9.02344 7.07031 9.02344ZM10.8984 9.02344Q11.123 9.02344 11.2793 8.87207Q11.4355 8.7207 11.4355 8.48633L11.4355 6.76758Q11.4355 6.54297 11.2793 6.38184Q11.123 6.2207 10.8984 6.2207Q10.6738 6.2207 10.5176 6.38184Q10.3613 6.54297 10.3613 6.76758L10.3613 8.48633Q10.3613 8.7207 10.5176 8.87207Q10.6738 9.02344 10.8984 9.02344ZM8.34961 12.0898L9.62891 12.0898Q9.91211 12.0898 9.91211 11.8066L9.91211 11.2012Q9.91211 10.8105 9.64844 10.542Q9.38477 10.2734 8.99414 10.2734Q8.59375 10.2734 8.33008 10.542Q8.06641 10.8105 8.06641 11.2012L8.06641 11.8066Q8.06641 12.0898 8.34961 12.0898Z" fill="none"/>
 </g>
</svg>
