<?xml version="1.0" encoding="UTF-8"?>
<!--Generator: Apple Native CoreSVG 175.5-->
<!DOCTYPE svg
PUBLIC "-//W3C//DTD SVG 1.1//EN"
       "http://www.w3.org/Graphics/SVG/1.1/DTD/svg11.dtd">
<svg version="1.1" xmlns="http://www.w3.org/2000/svg" xmlns:xlink="http://www.w3.org/1999/xlink" width="37.9297" height="12.6465">
 <g>
  <rect height="12.6465" opacity="0" width="37.9297" x="0" y="0"/>
  <path d="M2.75391 11.1914L27.168 11.1914Q28.3691 11.1914 29.1455 10.4102Q29.9219 9.62891 29.9219 8.4375L29.9219 2.76367Q29.9219 1.5625 29.1455 0.78125Q28.3691 0 27.168 0L2.75391 0Q1.55273 0 0.776367 0.78125Q0 1.5625 0 2.76367L0 8.4375Q0 9.63867 0.776367 10.415Q1.55273 11.1914 2.75391 11.1914ZM29.1895 8.96484L30.7031 8.96484Q31.2109 8.96484 31.543 8.6377Q31.875 8.31055 31.875 7.80273L31.875 3.60352Q31.875 3.0957 31.543 2.76855Q31.2109 2.44141 30.7031 2.44141L29.1895 2.44141ZM31.5918 6.41602L37.9297 6.41602L37.9297 5.13672L31.5918 5.13672Z" fill="#ffffff"/>
  <path d="M3.37891 7.88086Q3.1543 7.88086 3.01758 7.74902Q2.88086 7.61719 2.88086 7.39258L2.88086 3.78906Q2.88086 3.55469 3.01758 3.42285Q3.1543 3.29102 3.37891 3.29102L4.0625 3.29102Q4.27734 3.29102 4.41406 3.42285Q4.55078 3.55469 4.55078 3.78906L4.55078 7.39258Q4.55078 7.61719 4.41406 7.74902Q4.27734 7.88086 4.0625 7.88086ZM9.43359 8.70117Q8.57422 8.70117 7.87109 8.28125Q7.16797 7.86133 6.74805 7.1582Q6.32812 6.45508 6.32812 5.5957Q6.32812 4.74609 6.74805 4.03809Q7.16797 3.33008 7.87109 2.91016Q8.57422 2.49023 9.43359 2.49023Q10.2832 2.49023 10.9912 2.91016Q11.6992 3.33008 12.1191 4.03809Q12.5391 4.74609 12.5391 5.5957Q12.5391 6.45508 12.1191 7.1582Q11.6992 7.86133 10.9912 8.28125Q10.2832 8.70117 9.43359 8.70117ZM16.9043 8.70117Q16.0547 8.70117 15.3516 8.28125Q14.6484 7.86133 14.2334 7.1582Q13.8184 6.45508 13.8184 5.5957Q13.8184 4.74609 14.2334 4.03809Q14.6484 3.33008 15.3516 2.91016Q16.0547 2.49023 16.9043 2.49023Q17.7637 2.49023 18.4717 2.91016Q19.1797 3.33008 19.5996 4.03809Q20.0195 4.74609 20.0195 5.5957Q20.0195 6.45508 19.5996 7.1582Q19.1797 7.86133 18.4717 8.28125Q17.7637 8.70117 16.9043 8.70117ZM24.3848 8.70117Q23.5254 8.70117 22.8223 8.28125Q22.1191 7.86133 21.7041 7.1582Q21.2891 6.45508 21.2891 5.5957Q21.2891 4.74609 21.7041 4.03809Q22.1191 3.33008 22.8223 2.91016Q23.5254 2.49023 24.3848 2.49023Q25.2344 2.49023 25.9424 2.91016Q26.6504 3.33008 27.0703 4.03809Q27.4902 4.74609 27.4902 5.5957Q27.4902 6.45508 27.0703 7.1582Q26.6504 7.86133 25.9424 8.28125Q25.2344 8.70117 24.3848 8.70117ZM8.29102 7.22656Q8.4668 7.22656 8.59375 7.09961Q8.7207 6.97266 8.7207 6.79688L8.7207 4.4043Q8.7207 4.22852 8.59375 4.09668Q8.4668 3.96484 8.29102 3.96484Q8.11523 3.96484 7.9834 4.10156Q7.85156 4.23828 7.85156 4.4043L7.85156 6.79688Q7.85156 6.96289 7.9834 7.09473Q8.11523 7.22656 8.29102 7.22656ZM10.5762 7.22656Q10.752 7.22656 10.874 7.09961Q10.9961 6.97266 10.9961 6.79688L10.9961 4.4043Q10.9961 4.22852 10.874 4.09668Q10.752 3.96484 10.5762 3.96484Q10.3906 3.96484 10.2588 4.09668Q10.127 4.22852 10.127 4.4043L10.127 6.79688Q10.127 6.97266 10.2637 7.09961Q10.4004 7.22656 10.5762 7.22656ZM15.7617 7.22656Q15.957 7.22656 16.0791 7.09961Q16.2012 6.97266 16.2012 6.79688L16.2012 4.4043Q16.2012 4.22852 16.0791 4.09668Q15.957 3.96484 15.7617 3.96484Q15.5859 3.96484 15.4541 4.10156Q15.3223 4.23828 15.3223 4.4043L15.3223 6.79688Q15.3223 6.97266 15.4541 7.09961Q15.5859 7.22656 15.7617 7.22656ZM18.0469 7.22656Q18.2227 7.22656 18.3496 7.09961Q18.4766 6.97266 18.4766 6.79688L18.4766 4.4043Q18.4766 4.22852 18.3545 4.09668Q18.2324 3.96484 18.0469 3.96484Q17.8613 3.96484 17.7344 4.09668Q17.6074 4.22852 17.6074 4.4043L17.6074 6.79688Q17.6074 6.97266 17.7344 7.09961Q17.8613 7.22656 18.0469 7.22656ZM23.2422 7.22656Q23.418 7.22656 23.5498 7.09961Q23.6816 6.97266 23.6816 6.79688L23.6816 4.4043Q23.6816 4.22852 23.5547 4.09668Q23.4277 3.96484 23.2422 3.96484Q23.0566 3.96484 22.9297 4.10156Q22.8027 4.23828 22.8027 4.4043L22.8027 6.79688Q22.8027 6.97266 22.9297 7.09961Q23.0566 7.22656 23.2422 7.22656ZM25.5273 7.22656Q25.7031 7.22656 25.8252 7.09961Q25.9473 6.97266 25.9473 6.79688L25.9473 4.4043Q25.9473 4.22852 25.8252 4.09668Q25.7031 3.96484 25.5273 3.96484Q25.3418 3.96484 25.21 4.09668Q25.0781 4.22852 25.0781 4.4043L25.0781 6.79688Q25.0781 6.97266 25.2148 7.09961Q25.3516 7.22656 25.5273 7.22656Z" fill="none"/>
 </g>
</svg>
