<?xml version="1.0" encoding="UTF-8"?>
<!--Generator: Apple Native CoreSVG 175.5-->
<!DOCTYPE svg
PUBLIC "-//W3C//DTD SVG 1.1//EN"
       "http://www.w3.org/Graphics/SVG/1.1/DTD/svg11.dtd">
<svg version="1.1" xmlns="http://www.w3.org/2000/svg" xmlns:xlink="http://www.w3.org/1999/xlink" width="20.9277" height="16.8066">
 <g>
  <rect height="16.8066" opacity="0" width="20.9277" x="0" y="0"/>
  <path d="M5.17578 16.7871L15.7422 16.7871Q16.2793 16.7871 16.7578 16.6064Q17.2363 16.4258 17.6074 16.0742Q18.6523 15.0879 19.3945 13.8379Q20.1367 12.5879 20.5322 11.1963Q20.9277 9.80469 20.9277 8.39844Q20.9277 6.98242 20.5322 5.5957Q20.1367 4.20898 19.3945 2.95898Q18.6523 1.70898 17.6074 0.722656Q17.2461 0.371094 16.7627 0.185547Q16.2793 0 15.7422 0L5.17578 0Q4.61914 0 4.11133 0.205078Q3.60352 0.410156 3.22266 0.800781Q2.2168 1.78711 1.49414 3.02246Q0.771484 4.25781 0.385742 5.62988Q0 7.00195 0 8.39844Q0 9.80469 0.395508 11.1963Q0.791016 12.5879 1.5332 13.8379Q2.27539 15.0879 3.32031 16.0742Q3.68164 16.4258 4.16504 16.6064Q4.64844 16.7871 5.17578 16.7871Z" fill="#ffffff"/>
  <path d="M6.25977 12.4707Q5.87891 12.4707 5.62988 12.2217Q5.38086 11.9727 5.38086 11.5918L5.38086 5.3125Q5.38086 4.94141 5.62988 4.67285Q5.87891 4.4043 6.25977 4.4043Q6.63086 4.4043 6.89453 4.67285Q7.1582 4.94141 7.1582 5.3125L7.1582 11.5918Q7.1582 11.9727 6.89453 12.2217Q6.63086 12.4707 6.25977 12.4707ZM14.6582 12.4707Q14.2773 12.4707 14.0234 12.207Q13.7695 11.9434 13.7695 11.5723L13.7695 5.32227Q13.7695 4.94141 14.0234 4.67285Q14.2773 4.4043 14.6582 4.4043Q15.0391 4.4043 15.293 4.67285Q15.5469 4.94141 15.5469 5.32227L15.5469 11.5723Q15.5469 11.9531 15.293 12.2119Q15.0391 12.4707 14.6582 12.4707Z" fill="none"/>
 </g>
</svg>
