<?xml version="1.0" encoding="UTF-8"?>
<!--Generator: Apple Native CoreSVG 175.5-->
<!DOCTYPE svg
PUBLIC "-//W3C//DTD SVG 1.1//EN"
       "http://www.w3.org/Graphics/SVG/1.1/DTD/svg11.dtd">
<svg version="1.1" xmlns="http://www.w3.org/2000/svg" xmlns:xlink="http://www.w3.org/1999/xlink" width="18.5938" height="17.998">
 <g>
  <rect height="17.998" opacity="0" width="18.5938" x="0" y="0"/>
  <path d="M3.06641 17.998L15.5273 17.998Q17.0605 17.998 17.8271 17.2412Q18.5938 16.4844 18.5938 14.9707L18.5938 3.04688Q18.5938 1.5332 17.8271 0.776367Q17.0605 0.0195312 15.5273 0.0195312L3.06641 0.0195312Q1.5332 0.0195312 0.766602 0.776367Q0 1.5332 0 3.04688L0 14.9707Q0 16.4844 0.766602 17.2412Q1.5332 17.998 3.06641 17.998Z" fill="#ffffff"/>
  <path d="M5.84961 13.7891Q5.22461 13.7891 4.77539 13.3447Q4.32617 12.9004 4.32617 12.2656Q4.32617 11.6504 4.77539 11.2012Q5.22461 10.752 5.84961 10.752Q6.46484 10.752 6.90918 11.2012Q7.35352 11.6504 7.35352 12.2656Q7.35352 12.9004 6.90918 13.3447Q6.46484 13.7891 5.84961 13.7891ZM12.7539 13.7891Q12.1289 13.7891 11.6846 13.3447Q11.2402 12.9004 11.2402 12.2656Q11.2402 11.6504 11.6846 11.2012Q12.1289 10.752 12.7539 10.752Q13.3691 10.752 13.8184 11.2012Q14.2676 11.6504 14.2676 12.2656Q14.2676 12.9004 13.8184 13.3447Q13.3691 13.7891 12.7539 13.7891ZM9.29688 7.22656Q8.66211 7.22656 8.21777 6.77734Q7.77344 6.32812 7.77344 5.70312Q7.77344 5.07812 8.21777 4.63867Q8.66211 4.19922 9.29688 4.19922Q9.92188 4.19922 10.3662 4.63867Q10.8105 5.07812 10.8105 5.70312Q10.8105 6.32812 10.3662 6.77734Q9.92188 7.22656 9.29688 7.22656Z" fill="none"/>
 </g>
</svg>
