<?xml version="1.0" encoding="UTF-8"?>
<!--Generator: Apple Native CoreSVG 175-->
<!DOCTYPE svg
PUBLIC "-//W3C//DTD SVG 1.1//EN"
       "http://www.w3.org/Graphics/SVG/1.1/DTD/svg11.dtd">
<svg version="1.1" xmlns="http://www.w3.org/2000/svg" xmlns:xlink="http://www.w3.org/1999/xlink" width="20.957" height="20.2832">
 <g>
  <rect height="20.2832" opacity="0" width="20.957" x="0" y="0"/>
  <path d="M2.44141 17.1289L3.01758 17.1289L3.01758 10.8594Q3.01758 9.90234 3.59863 9.32617Q4.17969 8.75 5.13672 8.75L15.8398 8.75Q16.7969 8.75 17.373 9.32617Q17.9492 9.90234 17.9492 10.8594L17.9492 17.1289L18.5156 17.1289Q19.7266 17.1289 20.3418 16.5283Q20.957 15.9277 20.957 14.707L20.957 5.9668Q20.957 4.74609 20.3418 4.14062Q19.7266 3.53516 18.5156 3.53516L2.44141 3.53516Q1.24023 3.53516 0.620117 4.14062Q0 4.74609 0 5.9668L0 14.707Q0 15.9277 0.615234 16.5283Q1.23047 17.1289 2.44141 17.1289ZM3.76953 2.77344L17.1875 2.77344L17.1875 2.29492Q17.1875 1.57227 16.9385 1.11816Q16.6895 0.664062 16.2012 0.449219Q15.7129 0.234375 14.9805 0.234375L5.9668 0.234375Q5.25391 0.234375 4.76074 0.449219Q4.26758 0.664062 4.01855 1.11816Q3.76953 1.57227 3.76953 2.29492ZM3.89648 18.9648Q3.89648 19.5605 4.25781 19.9219Q4.61914 20.2832 5.22461 20.2832L15.7617 20.2832Q16.3477 20.2832 16.7139 19.9219Q17.0801 19.5605 17.0801 18.9648L17.0801 10.8594Q17.0801 10.3027 16.7383 9.96582Q16.3965 9.62891 15.8398 9.62891L5.13672 9.62891Q4.58008 9.62891 4.23828 9.96582Q3.89648 10.3027 3.89648 10.8594ZM6.5918 13.5449Q6.44531 13.5449 6.34766 13.4473Q6.25 13.3496 6.25 13.2227Q6.25 13.0762 6.34766 12.9834Q6.44531 12.8906 6.5918 12.8906L14.3848 12.8906Q14.5312 12.8906 14.6289 12.9834Q14.7266 13.0762 14.7266 13.2227Q14.7266 13.3496 14.6289 13.4473Q14.5312 13.5449 14.3848 13.5449ZM6.5918 17.0215Q6.44531 17.0215 6.34766 16.9238Q6.25 16.8262 6.25 16.6992Q6.25 16.5527 6.34766 16.46Q6.44531 16.3672 6.5918 16.3672L14.3848 16.3672Q14.5312 16.3672 14.6289 16.46Q14.7266 16.5527 14.7266 16.6992Q14.7266 16.8262 14.6289 16.9238Q14.5312 17.0215 14.3848 17.0215ZM14.9707 6.32812Q14.9707 5.87891 15.3125 5.53711Q15.6543 5.19531 16.123 5.19531Q16.5723 5.19531 16.9092 5.53711Q17.2461 5.87891 17.2461 6.32812Q17.2461 6.78711 16.9092 7.12891Q16.5723 7.4707 16.123 7.45117Q15.6543 7.44141 15.3125 7.12891Q14.9707 6.81641 14.9707 6.32812Z" fill="rgba(0,0,0,0.85)"/>
 </g>
</svg>
