<?xml version="1.0" encoding="UTF-8"?>
<!--Generator: Apple Native CoreSVG 175.5-->
<!DOCTYPE svg
PUBLIC "-//W3C//DTD SVG 1.1//EN"
       "http://www.w3.org/Graphics/SVG/1.1/DTD/svg11.dtd">
<svg version="1.1" xmlns="http://www.w3.org/2000/svg" xmlns:xlink="http://www.w3.org/1999/xlink" width="21.9434" height="21.3379">
 <g>
  <rect height="21.3379" opacity="0" width="21.9434" x="0" y="0"/>
  <path d="M5.44922 21.3379L16.4941 21.3379Q17.4219 21.3379 17.8906 20.8936Q18.3594 20.4492 18.3594 19.4824L18.3594 17.6074L19.0332 17.6074Q20.459 17.6074 21.2012 16.8896Q21.9434 16.1719 21.9434 14.7461L21.9434 6.79688Q21.9434 5.37109 21.2012 4.64844Q20.459 3.92578 19.0332 3.92578L2.90039 3.92578Q1.55273 3.92578 0.776367 4.64844Q0 5.37109 0 6.79688L0 14.7461Q0 16.1719 0.742188 16.8896Q1.48438 17.6074 2.90039 17.6074L3.58398 17.6074L3.58398 19.4824Q3.58398 20.4492 4.05273 20.8936Q4.52148 21.3379 5.44922 21.3379ZM6.23047 19.873Q5.83984 19.873 5.64453 19.6826Q5.44922 19.4922 5.44922 19.0918L5.44922 11.8359Q5.44922 11.4453 5.64453 11.2549Q5.83984 11.0645 6.23047 11.0645L15.7227 11.0645Q16.1133 11.0645 16.3037 11.2549Q16.4941 11.4453 16.4941 11.8359L16.4941 19.0918Q16.4941 19.4922 16.3037 19.6826Q16.1133 19.873 15.7227 19.873ZM3.86719 2.62695L18.0762 2.62695L18.0762 2.46094Q18.0762 1.73828 17.7295 1.27441Q17.3828 0.810547 16.7725 0.59082Q16.1621 0.371094 15.3711 0.371094L6.57227 0.371094Q5.82031 0.371094 5.20508 0.59082Q4.58984 0.810547 4.22852 1.27441Q3.86719 1.73828 3.86719 2.46094ZM7.85156 13.6816Q8.22266 13.6816 8.48145 13.4277Q8.74023 13.1738 8.74023 12.8027Q8.74023 12.4414 8.48145 12.1875Q8.22266 11.9336 7.85156 11.9336Q7.49023 11.9336 7.23145 12.1875Q6.97266 12.4414 6.97266 12.8027Q6.97266 13.1738 7.23145 13.4277Q7.49023 13.6816 7.85156 13.6816ZM7.85156 16.3672Q8.22266 16.3672 8.48145 16.1182Q8.74023 15.8691 8.74023 15.498Q8.74023 15.127 8.48145 14.873Q8.22266 14.6191 7.85156 14.6191Q7.49023 14.6191 7.23145 14.873Q6.97266 15.127 6.97266 15.498Q6.97266 15.8691 7.23145 16.1182Q7.49023 16.3672 7.85156 16.3672ZM7.85156 19.0625Q8.22266 19.0625 8.48145 18.8086Q8.74023 18.5547 8.74023 18.1836Q8.74023 17.8223 8.48145 17.5684Q8.22266 17.3145 7.85156 17.3145Q7.49023 17.3145 7.23145 17.5684Q6.97266 17.8223 6.97266 18.1836Q6.97266 18.5547 7.23145 18.8086Q7.49023 19.0625 7.85156 19.0625ZM14.1016 13.6816Q14.4629 13.6816 14.7217 13.4277Q14.9805 13.1738 14.9805 12.8027Q14.9805 12.4414 14.7217 12.1875Q14.4629 11.9336 14.1016 11.9336Q13.7402 11.9336 13.4814 12.1875Q13.2227 12.4414 13.2227 12.8027Q13.2227 13.1738 13.4814 13.4277Q13.7402 13.6816 14.1016 13.6816ZM14.1016 16.3672Q14.4629 16.3672 14.7217 16.1182Q14.9805 15.8691 14.9805 15.498Q14.9805 15.127 14.7217 14.873Q14.4629 14.6191 14.1016 14.6191Q13.7402 14.6191 13.4814 14.873Q13.2227 15.127 13.2227 15.498Q13.2227 15.8691 13.4814 16.1182Q13.7402 16.3672 14.1016 16.3672ZM14.1016 19.0625Q14.4629 19.0625 14.7217 18.8086Q14.9805 18.5547 14.9805 18.1836Q14.9805 17.8223 14.7217 17.5684Q14.4629 17.3145 14.1016 17.3145Q13.7402 17.3145 13.4814 17.5684Q13.2227 17.8223 13.2227 18.1836Q13.2227 18.5547 13.4814 18.8086Q13.7402 19.0625 14.1016 19.0625ZM15.7227 7.14844Q15.7227 6.65039 16.0986 6.27441Q16.4746 5.89844 16.9922 5.89844Q17.4902 5.89844 17.8662 6.27441Q18.2422 6.65039 18.2422 7.14844Q18.2422 7.67578 17.8662 8.03711Q17.4902 8.39844 16.9922 8.39844Q16.4746 8.4082 16.0986 8.04199Q15.7227 7.67578 15.7227 7.14844Z" fill="#ffffff"/>
 </g>
</svg>
