<?xml version="1.0" encoding="UTF-8"?>
<!--Generator: Apple Native CoreSVG 175.5-->
<!DOCTYPE svg
PUBLIC "-//W3C//DTD SVG 1.1//EN"
       "http://www.w3.org/Graphics/SVG/1.1/DTD/svg11.dtd">
<svg version="1.1" xmlns="http://www.w3.org/2000/svg" xmlns:xlink="http://www.w3.org/1999/xlink" width="21.9434" height="21.3574">
 <g>
  <rect height="21.3574" opacity="0" width="21.9434" x="0" y="0"/>
  <path d="M3.86719 2.63672L18.0762 2.63672L18.0762 2.4707Q18.0762 1.74805 17.7295 1.28418Q17.3828 0.820312 16.7725 0.600586Q16.1621 0.380859 15.3711 0.380859L6.57227 0.380859Q5.82031 0.380859 5.20508 0.600586Q4.58984 0.820312 4.22852 1.28418Q3.86719 1.74805 3.86719 2.4707ZM2.90039 17.6172L3.125 17.6172L3.125 12.1973Q3.125 11.1426 3.72559 10.542Q4.32617 9.94141 5.38086 9.94141L16.5625 9.94141Q17.627 9.94141 18.2227 10.542Q18.8184 11.1426 18.8184 12.1973L18.8184 17.6172L19.0332 17.6172Q20.459 17.6172 21.2012 16.8994Q21.9434 16.1816 21.9434 14.7559L21.9434 6.80664Q21.9434 5.38086 21.2012 4.6582Q20.459 3.93555 19.0332 3.93555L2.90039 3.93555Q1.55273 3.93555 0.776367 4.6582Q0 5.38086 0 6.80664L0 14.7559Q0 16.1816 0.742188 16.8994Q1.48438 17.6172 2.90039 17.6172ZM4.46289 20.0391Q4.46289 20.6348 4.82422 20.9961Q5.18555 21.3574 5.77148 21.3574L16.1719 21.3574Q16.7578 21.3574 17.1191 20.9961Q17.4805 20.6348 17.4805 20.0391L17.4805 12.1973Q17.4805 11.7871 17.2266 11.5332Q16.9727 11.2793 16.5625 11.2793L5.38086 11.2793Q4.9707 11.2793 4.7168 11.5332Q4.46289 11.7871 4.46289 12.1973ZM7.85156 19.8828Q7.49023 19.8828 7.23145 19.6289Q6.97266 19.375 6.97266 19.0039Q6.97266 18.6426 7.23145 18.3887Q7.49023 18.1348 7.85156 18.1348Q8.22266 18.1348 8.48145 18.3887Q8.74023 18.6426 8.74023 19.0039Q8.74023 19.375 8.48145 19.6289Q8.22266 19.8828 7.85156 19.8828ZM7.85156 17.1875Q7.49023 17.1875 7.23145 16.9385Q6.97266 16.6895 6.97266 16.3184Q6.97266 15.9473 7.23145 15.6934Q7.49023 15.4395 7.85156 15.4395Q8.22266 15.4395 8.48145 15.6934Q8.74023 15.9473 8.74023 16.3184Q8.74023 16.6895 8.48145 16.9385Q8.22266 17.1875 7.85156 17.1875ZM7.85156 14.502Q7.49023 14.502 7.23145 14.248Q6.97266 13.9941 6.97266 13.623Q6.97266 13.252 7.23145 13.0029Q7.49023 12.7539 7.85156 12.7539Q8.22266 12.7539 8.48145 13.0029Q8.74023 13.252 8.74023 13.623Q8.74023 13.9941 8.48145 14.248Q8.22266 14.502 7.85156 14.502ZM14.1016 19.8828Q13.7402 19.8828 13.4814 19.6289Q13.2227 19.375 13.2227 19.0039Q13.2227 18.6426 13.4814 18.3887Q13.7402 18.1348 14.1016 18.1348Q14.4629 18.1348 14.7217 18.3887Q14.9805 18.6426 14.9805 19.0039Q14.9805 19.375 14.7217 19.6289Q14.4629 19.8828 14.1016 19.8828ZM14.1016 17.1875Q13.7402 17.1875 13.4814 16.9385Q13.2227 16.6895 13.2227 16.3184Q13.2227 15.9473 13.4814 15.6934Q13.7402 15.4395 14.1016 15.4395Q14.4629 15.4395 14.7217 15.6934Q14.9805 15.9473 14.9805 16.3184Q14.9805 16.6895 14.7217 16.9385Q14.4629 17.1875 14.1016 17.1875ZM14.1016 14.502Q13.7402 14.502 13.4814 14.248Q13.2227 13.9941 13.2227 13.623Q13.2227 13.252 13.4814 13.0029Q13.7402 12.7539 14.1016 12.7539Q14.4629 12.7539 14.7217 13.0029Q14.9805 13.252 14.9805 13.623Q14.9805 13.9941 14.7217 14.248Q14.4629 14.502 14.1016 14.502ZM15.7227 7.1582Q15.7227 6.66016 16.0986 6.28418Q16.4746 5.9082 16.9922 5.9082Q17.4902 5.9082 17.8662 6.28418Q18.2422 6.66016 18.2422 7.1582Q18.2422 7.68555 17.8662 8.04688Q17.4902 8.4082 16.9922 8.4082Q16.4746 8.41797 16.0986 8.05176Q15.7227 7.68555 15.7227 7.1582Z" fill="#ffffff"/>
 </g>
</svg>
