<?xml version="1.0" encoding="UTF-8"?>
<!--Generator: Apple Native CoreSVG 175-->
<!DOCTYPE svg
PUBLIC "-//W3C//DTD SVG 1.1//EN"
       "http://www.w3.org/Graphics/SVG/1.1/DTD/svg11.dtd">
<svg version="1.1" xmlns="http://www.w3.org/2000/svg" xmlns:xlink="http://www.w3.org/1999/xlink" width="15.3738" height="17.9785">
 <g>
  <rect height="17.9785" opacity="0" width="15.3738" x="0" y="0"/>
  <path d="M0.382385 9.44855Q0.46524 9.44855 0.537109 9.42375Q0.608978 9.39896 0.658569 9.34219L8.01331 1.3266L7.36755 1.3266L14.7083 9.34219Q14.7621 9.39896 14.8367 9.42375Q14.9113 9.44855 14.9844 9.44855Q15.0977 9.44855 15.1833 9.39461Q15.2689 9.34067 15.3214 9.25652Q15.3738 9.17236 15.3738 9.05899Q15.3738 8.97629 15.3371 8.91632Q15.3004 8.85635 15.2438 8.78983L8.04382 0.919189Q7.96326 0.838776 7.8746 0.786591Q7.78595 0.734406 7.68478 0.734406Q7.50351 0.734406 7.323 0.91217L0.137177 8.78281Q0.0804138 8.84659 0.0402069 8.91144Q0 8.97629 0 9.05899Q0 9.17236 0.0504303 9.25652Q0.100861 9.34067 0.188522 9.39461Q0.276184 9.44855 0.382385 9.44855ZM0.643311 0.756683L14.711 0.756683Q14.8738 0.756683 14.9831 0.64827Q15.0923 0.539856 15.0923 0.377045Q15.0923 0.214081 14.9831 0.10704Q14.8738 0 14.711 0L0.643311 0Q0.483246 0 0.375443 0.10704Q0.267639 0.214081 0.267639 0.377045Q0.267639 0.539856 0.375443 0.64827Q0.483246 0.756683 0.643311 0.756683Z" fill="rgba(0,0,0,0.85)"/>
 </g>
</svg>
