<?xml version="1.0" encoding="UTF-8"?>
<!--Generator: Apple Native CoreSVG 175.5-->
<!DOCTYPE svg
PUBLIC "-//W3C//DTD SVG 1.1//EN"
       "http://www.w3.org/Graphics/SVG/1.1/DTD/svg11.dtd">
<svg version="1.1" xmlns="http://www.w3.org/2000/svg" xmlns:xlink="http://www.w3.org/1999/xlink" width="14.1602" height="18.6035">
 <g>
  <rect height="18.6035" opacity="0" width="14.1602" x="0" y="0"/>
  <path d="M0 14.3359Q0 14.5117 0.0732422 14.668Q0.146484 14.8242 0.263672 14.9414L3.45703 18.125Q3.69141 18.3691 3.94531 18.4814Q4.19922 18.5938 4.46289 18.5938Q4.7168 18.5938 4.96582 18.4766Q5.21484 18.3594 5.44922 18.125L8.65234 14.9316Q8.7793 14.8047 8.84766 14.6484Q8.91602 14.4922 8.91602 14.3262Q8.91602 13.9941 8.69141 13.7744Q8.4668 13.5547 8.17383 13.5547Q7.94922 13.5547 7.80273 13.6279Q7.65625 13.7012 7.5293 13.8184L6.68945 14.6582L5.19531 16.3672L5.29297 13.2129L5.29297 5.80078Q5.29297 4.56055 5.72754 3.63281Q6.16211 2.70508 6.97754 2.1875Q7.79297 1.66992 8.92578 1.66992Q9.99023 1.66992 10.7959 2.12891Q11.6016 2.58789 12.0605 3.42285Q12.5195 4.25781 12.5195 5.36133Q12.5195 6.43555 12.0752 7.25586Q11.6309 8.07617 10.8545 8.54004Q10.0781 9.00391 9.08203 9.00391Q8.55469 9.00391 8.33984 8.93066Q8.125 8.85742 7.87109 8.85742Q7.55859 8.85742 7.33398 9.05273Q7.10938 9.24805 7.10938 9.58008Q7.10938 9.98047 7.4707 10.2637Q7.75391 10.4883 8.17871 10.5762Q8.60352 10.6641 9.0332 10.6641Q10.5859 10.6641 11.7383 9.99023Q12.8906 9.31641 13.5254 8.125Q14.1602 6.93359 14.1602 5.36133Q14.1602 3.75 13.501 2.54395Q12.8418 1.33789 11.6602 0.668945Q10.4785 0 8.92578 0Q7.34375 0 6.14746 0.683594Q4.95117 1.36719 4.28223 2.68066Q3.61328 3.99414 3.61328 5.86914L3.61328 13.2227L3.71094 16.3672L2.2168 14.668L1.37695 13.8281Q1.25977 13.7109 1.1084 13.6377Q0.957031 13.5645 0.742188 13.5645Q0.449219 13.5645 0.224609 13.7842Q0 14.0039 0 14.3359Z" fill="#ffffff"/>
 </g>
</svg>
