<?xml version="1.0" encoding="UTF-8"?>
<!--Generator: Apple Native CoreSVG 175.5-->
<!DOCTYPE svg
PUBLIC "-//W3C//DTD SVG 1.1//EN"
       "http://www.w3.org/Graphics/SVG/1.1/DTD/svg11.dtd">
<svg version="1.1" xmlns="http://www.w3.org/2000/svg" xmlns:xlink="http://www.w3.org/1999/xlink" width="19.9219" height="19.9316">
 <g>
  <rect height="19.9316" opacity="0" width="19.9219" x="0" y="0"/>
  <path d="M9.96094 19.9219Q12.002 19.9219 13.8037 19.1406Q15.6055 18.3594 16.9824 16.9824Q18.3594 15.6055 19.1406 13.8037Q19.9219 12.002 19.9219 9.96094Q19.9219 7.91992 19.1406 6.11816Q18.3594 4.31641 16.9824 2.93945Q15.6055 1.5625 13.7988 0.78125Q11.9922 0 9.95117 0Q7.91016 0 6.1084 0.78125Q4.30664 1.5625 2.93457 2.93945Q1.5625 4.31641 0.78125 6.11816Q0 7.91992 0 9.96094Q0 12.002 0.78125 13.8037Q1.5625 15.6055 2.93945 16.9824Q4.31641 18.3594 6.11816 19.1406Q7.91992 19.9219 9.96094 19.9219ZM9.96094 18.2617Q8.23242 18.2617 6.72852 17.6172Q5.22461 16.9727 4.08691 15.835Q2.94922 14.6973 2.30957 13.1934Q1.66992 11.6895 1.66992 9.96094Q1.66992 8.23242 2.30957 6.72852Q2.94922 5.22461 4.08203 4.08203Q5.21484 2.93945 6.71875 2.2998Q8.22266 1.66016 9.95117 1.66016Q11.6797 1.66016 13.1885 2.2998Q14.6973 2.93945 15.835 4.08203Q16.9727 5.22461 17.6172 6.72852Q18.2617 8.23242 18.2617 9.96094Q18.2617 11.6895 17.6221 13.1934Q16.9824 14.6973 15.8398 15.835Q14.6973 16.9727 13.1934 17.6172Q11.6895 18.2617 9.96094 18.2617Z" fill="#ffffff"/>
  <path d="M5.67383 12.666Q5.67383 12.8906 5.86914 13.1055L7.75391 14.9805Q8.0957 15.293 8.41797 15.293Q8.76953 15.293 9.0918 14.9805L10.9766 13.0957Q11.1719 12.8906 11.1719 12.666Q11.1719 12.4219 11.0107 12.251Q10.8496 12.0801 10.6152 12.0801Q10.459 12.0801 10.3516 12.1289Q10.2441 12.1777 10.1465 12.2754L9.6582 12.7734L8.98438 13.5449L9.0332 12.002L9.0332 8.03711Q9.0332 6.92383 9.55566 6.33301Q10.0781 5.74219 11.0547 5.74219Q11.9531 5.74219 12.5049 6.30859Q13.0566 6.875 13.0566 7.80273Q13.0469 8.70117 12.5146 9.2627Q11.9824 9.82422 11.1426 9.82422Q10.9375 9.82422 10.8105 9.79492Q10.6836 9.76562 10.5566 9.76562Q10.3223 9.76562 10.166 9.91211Q10.0098 10.0586 10.0098 10.2832Q10.0098 10.5469 10.1855 10.7129Q10.4883 11.0059 11.1035 11.0059Q12.5195 11.0059 13.3838 10.127Q14.248 9.24805 14.248 7.80273Q14.248 6.81641 13.8477 6.0791Q13.4473 5.3418 12.7246 4.92676Q12.002 4.51172 11.0547 4.51172Q9.57031 4.51172 8.68652 5.43945Q7.80273 6.36719 7.80273 7.92969L7.80273 12.0117L7.85156 13.5449L7.1875 12.7832L6.69922 12.2852Q6.50391 12.0801 6.23047 12.0801Q5.99609 12.0801 5.83496 12.251Q5.67383 12.4219 5.67383 12.666Z" fill="#ffffff"/>
 </g>
</svg>
