<?xml version="1.0" encoding="UTF-8"?>
<!--Generator: Apple Native CoreSVG 175.5-->
<!DOCTYPE svg
PUBLIC "-//W3C//DTD SVG 1.1//EN"
       "http://www.w3.org/Graphics/SVG/1.1/DTD/svg11.dtd">
<svg version="1.1" xmlns="http://www.w3.org/2000/svg" xmlns:xlink="http://www.w3.org/1999/xlink" width="23.9062" height="18.916">
 <g>
  <rect height="18.916" opacity="0" width="23.9062" x="0" y="0"/>
  <path d="M0 15.9375Q0 17.3926 0.761719 18.1348Q1.52344 18.877 2.98828 18.877L14.9902 18.877Q16.4551 18.877 17.2119 18.1348Q17.9688 17.3926 17.9688 15.9375L17.9688 12.4902Q17.9688 12.373 18.0469 12.3291Q18.125 12.2852 18.2617 12.3828Q18.5645 12.5977 18.9062 12.7686Q19.248 12.9395 19.624 13.0371Q20 13.1348 20.4102 13.1348Q21.3281 13.1348 22.1289 12.6709Q22.9297 12.207 23.418 11.3867Q23.9062 10.5664 23.9062 9.47266Q23.9062 8.38867 23.418 7.56348Q22.9297 6.73828 22.1289 6.2793Q21.3281 5.82031 20.4102 5.82031Q20 5.82031 19.624 5.91797Q19.248 6.01562 18.9062 6.18652Q18.5645 6.35742 18.2617 6.57227Q18.125 6.66992 18.0469 6.62598Q17.9688 6.58203 17.9688 6.46484L17.9688 2.93945Q17.9688 1.49414 17.2119 0.74707Q16.4551 0 14.9902 0L2.98828 0Q1.52344 0 0.761719 0.74707Q0 1.49414 0 2.93945L0 7.25586Q0 7.87109 0.351562 8.21777Q0.703125 8.56445 1.21094 8.56445Q1.48438 8.56445 1.77246 8.44238Q2.06055 8.32031 2.34375 8.05664Q2.69531 7.73438 3.0957 7.54883Q3.49609 7.36328 3.93555 7.36328Q4.76562 7.36328 5.37598 7.93457Q5.98633 8.50586 5.98633 9.45312Q5.98633 10.4004 5.37598 10.9717Q4.76562 11.543 3.93555 11.543Q3.49609 11.543 3.0957 11.3525Q2.69531 11.1621 2.34375 10.8398Q2.06055 10.5859 1.77246 10.4639Q1.48438 10.3418 1.21094 10.3418Q0.703125 10.3418 0.351562 10.6885Q0 11.0352 0 11.6406ZM1.57227 15.8594L1.57227 12.6074Q1.57227 12.2656 1.71387 12.3096Q1.85547 12.3535 1.99219 12.4414Q2.29492 12.627 2.6123 12.7783Q2.92969 12.9297 3.27637 13.0176Q3.62305 13.1055 4.01367 13.1055Q4.93164 13.1055 5.72754 12.6465Q6.52344 12.1875 7.0166 11.3623Q7.50977 10.5371 7.50977 9.45312Q7.50977 8.36914 7.0166 7.54395Q6.52344 6.71875 5.72754 6.25977Q4.93164 5.80078 4.01367 5.80078Q3.62305 5.80078 3.27637 5.88379Q2.92969 5.9668 2.6123 6.11816Q2.29492 6.26953 1.99219 6.46484Q1.85547 6.55273 1.71387 6.59668Q1.57227 6.64062 1.57227 6.29883L1.57227 3.01758Q1.57227 2.32422 1.95312 1.94824Q2.33398 1.57227 3.01758 1.57227L14.9609 1.57227Q15.6348 1.57227 16.0156 1.94824Q16.3965 2.32422 16.3965 3.01758L16.3965 7.25586Q16.3965 7.87109 16.748 8.23242Q17.0996 8.59375 17.6074 8.59375Q17.8906 8.59375 18.1738 8.47168Q18.457 8.34961 18.7402 8.08594Q19.1016 7.76367 19.502 7.57324Q19.9023 7.38281 20.332 7.38281Q21.1621 7.38281 21.7725 7.95898Q22.3828 8.53516 22.3828 9.47266Q22.3828 10.4199 21.7725 10.9961Q21.1621 11.5723 20.332 11.5723Q19.9023 11.5723 19.502 11.3818Q19.1016 11.1914 18.7402 10.8691Q18.457 10.6055 18.1738 10.4834Q17.8906 10.3613 17.6074 10.3613Q17.0996 10.3613 16.748 10.7227Q16.3965 11.084 16.3965 11.6992L16.3965 15.8594Q16.3965 16.5625 16.0156 16.9336Q15.6348 17.3047 14.9609 17.3047L3.01758 17.3047Q2.33398 17.3047 1.95312 16.9336Q1.57227 16.5625 1.57227 15.8594Z" fill="#ffffff"/>
 </g>
</svg>
