<?xml version="1.0" encoding="UTF-8"?>
<!--Generator: Apple Native CoreSVG 175-->
<!DOCTYPE svg
PUBLIC "-//W3C//DTD SVG 1.1//EN"
       "http://www.w3.org/Graphics/SVG/1.1/DTD/svg11.dtd">
<svg version="1.1" xmlns="http://www.w3.org/2000/svg" xmlns:xlink="http://www.w3.org/1999/xlink" width="23.0887" height="18.0722">
 <g>
  <rect height="18.0722" opacity="0" width="23.0887" x="0" y="0"/>
  <path d="M0 15.8434Q0 16.8555 0.596695 17.4443Q1.19339 18.0331 2.22382 18.0331L15.0211 18.0331Q16.05 18.0331 16.6494 17.4435Q17.2488 16.8539 17.2488 15.8542L17.2488 11.5433Q17.2488 11.3477 17.383 11.2601Q17.5172 11.1726 17.7129 11.3179Q17.9933 11.516 18.3137 11.7347Q18.634 11.9534 19.0643 12.1087Q19.4945 12.2639 20.1044 12.2639Q20.9906 12.2639 21.6631 11.872Q22.3355 11.4801 22.7121 10.7803Q23.0887 10.0804 23.0887 9.16321Q23.0887 8.24173 22.7121 7.54547Q22.3355 6.84921 21.6631 6.45721Q20.9906 6.06522 20.1044 6.06522Q19.4945 6.06522 19.0643 6.21696Q18.634 6.36871 18.3137 6.58745Q17.9933 6.80618 17.7129 7.01126Q17.5172 7.14951 17.383 7.06558Q17.2488 6.98166 17.2488 6.78589L17.2488 2.17896Q17.2488 1.1792 16.6494 0.5896Q16.05 0 15.0211 0L2.22382 0Q1.19339 0 0.596695 0.592346Q0 1.18469 0 2.18979L0 6.68167Q0 7.08984 0.234375 7.34276Q0.46875 7.59567 0.830841 7.59567Q1.00464 7.59567 1.1834 7.51778Q1.36215 7.43988 1.5657 7.2644Q1.85349 7.0285 2.1508 6.82846Q2.44812 6.62842 2.80983 6.51085Q3.17154 6.39328 3.64655 6.39328Q4.38599 6.39328 4.95842 6.72379Q5.53085 7.05429 5.85083 7.64923Q6.17081 8.24417 6.17081 9.03122Q6.17081 9.8085 5.85083 10.4034Q5.53085 10.9984 4.95842 11.3338Q4.38599 11.6692 3.64655 11.6692Q3.17154 11.6692 2.80983 11.5516Q2.44812 11.434 2.1508 11.2326Q1.85349 11.0312 1.5657 10.7883Q1.36215 10.6226 1.1834 10.5447Q1.00464 10.4668 0.830841 10.4668Q0.46875 10.4668 0.234375 10.7197Q0 10.9726 0 11.3737Z" fill="rgba(0,0,0,0.85)"/>
 </g>
</svg>
