<?xml version="1.0" encoding="UTF-8"?>
<!--Generator: Apple Native CoreSVG 175-->
<!DOCTYPE svg
PUBLIC "-//W3C//DTD SVG 1.1//EN"
       "http://www.w3.org/Graphics/SVG/1.1/DTD/svg11.dtd">
<svg version="1.1" xmlns="http://www.w3.org/2000/svg" xmlns:xlink="http://www.w3.org/1999/xlink" width="19.1602" height="19.1504">
 <g>
  <rect height="19.1504" opacity="0" width="19.1602" x="0" y="0"/>
  <path d="M9.57031 19.1406Q11.5527 19.1406 13.2861 18.3984Q15.0195 17.6562 16.3379 16.333Q17.6562 15.0098 18.4082 13.2764Q19.1602 11.543 19.1602 9.57031Q19.1602 7.59766 18.4082 5.86426Q17.6562 4.13086 16.3379 2.80762Q15.0195 1.48438 13.2861 0.742188Q11.5527 0 9.57031 0Q7.59766 0 5.86426 0.742188Q4.13086 1.48438 2.81738 2.80762Q1.50391 4.13086 0.751953 5.86426Q0 7.59766 0 9.57031Q0 11.543 0.74707 13.2764Q1.49414 15.0098 2.8125 16.333Q4.13086 17.6562 5.86914 18.3984Q7.60742 19.1406 9.57031 19.1406ZM9.57031 18.3984Q7.74414 18.3984 6.14746 17.71Q4.55078 17.0215 3.33496 15.8105Q2.11914 14.5996 1.43555 12.998Q0.751953 11.3965 0.751953 9.57031Q0.751953 7.74414 1.43555 6.14258Q2.11914 4.54102 3.33496 3.3252Q4.55078 2.10938 6.14746 1.4209Q7.74414 0.732422 9.57031 0.732422Q11.4062 0.732422 13.0029 1.4209Q14.5996 2.10938 15.8154 3.3252Q17.0312 4.54102 17.7197 6.14258Q18.4082 7.74414 18.4082 9.57031Q18.4082 11.3965 17.7246 12.998Q17.041 14.5996 15.8252 15.8105Q14.6094 17.0215 13.0078 17.71Q11.4062 18.3984 9.57031 18.3984ZM9.57031 14.0332Q10.4785 14.0332 11.2207 13.6914L12.0508 14.8438Q12.1289 14.9512 12.1924 14.9854Q12.2559 15.0195 12.3535 15.0195Q12.4902 15.0195 12.5732 14.9365Q12.6562 14.8535 12.6562 14.7266Q12.6562 14.6191 12.5391 14.4531L11.7578 13.3789Q12.5879 12.8223 13.0566 11.8262Q13.5254 10.8301 13.5254 9.54102Q13.5254 8.22266 13.0322 7.2168Q12.5391 6.21094 11.6504 5.64453Q10.7617 5.07812 9.57031 5.07812Q8.37891 5.07812 7.49023 5.64453Q6.60156 6.21094 6.1084 7.2168Q5.61523 8.22266 5.61523 9.54102Q5.61523 10.8789 6.1084 11.8896Q6.60156 12.9004 7.49023 13.4668Q8.37891 14.0332 9.57031 14.0332ZM9.57031 13.3887Q8.61328 13.3887 7.89062 12.9053Q7.16797 12.4219 6.76758 11.5576Q6.36719 10.6934 6.36719 9.54102Q6.36719 8.39844 6.76758 7.54395Q7.16797 6.68945 7.89062 6.21094Q8.61328 5.73242 9.57031 5.73242Q10.5273 5.73242 11.25 6.21094Q11.9727 6.68945 12.3779 7.54395Q12.7832 8.39844 12.7832 9.54102Q12.7832 10.6348 12.4121 11.4844Q12.041 12.334 11.3574 12.8223L10.459 11.5723Q10.3418 11.416 10.1758 11.416Q10.0488 11.416 9.96094 11.499Q9.87305 11.582 9.87305 11.709Q9.87305 11.8262 9.98047 11.9727L10.8301 13.1543Q10.293 13.3887 9.57031 13.3887Z" fill="#ffffff"/>
 </g>
</svg>
