<?xml version="1.0" encoding="UTF-8"?>
<!--Generator: Apple Native CoreSVG 175.5-->
<!DOCTYPE svg
PUBLIC "-//W3C//DTD SVG 1.1//EN"
       "http://www.w3.org/Graphics/SVG/1.1/DTD/svg11.dtd">
<svg version="1.1" xmlns="http://www.w3.org/2000/svg" xmlns:xlink="http://www.w3.org/1999/xlink" width="17.9785" height="17.998">
 <g>
  <rect height="17.998" opacity="0" width="17.9785" x="0" y="0"/>
  <path d="M3.06641 17.998L14.9121 17.998Q16.4453 17.998 17.2119 17.2412Q17.9785 16.4844 17.9785 14.9707L17.9785 3.04688Q17.9785 1.5332 17.2119 0.776367Q16.4453 0.0195312 14.9121 0.0195312L3.06641 0.0195312Q1.5332 0.0195312 0.766602 0.776367Q0 1.5332 0 3.04688L0 14.9707Q0 16.4844 0.766602 17.2412Q1.5332 17.998 3.06641 17.998ZM3.08594 16.4258Q2.35352 16.4258 1.96289 16.04Q1.57227 15.6543 1.57227 14.8926L1.57227 3.125Q1.57227 2.36328 1.96289 1.97754Q2.35352 1.5918 3.08594 1.5918L14.8926 1.5918Q15.6152 1.5918 16.0107 1.97754Q16.4062 2.36328 16.4062 3.125L16.4062 14.8926Q16.4062 15.6543 16.0107 16.04Q15.6152 16.4258 14.8926 16.4258Z" fill="#ffffff"/>
  <path d="M8.80859 11.0156Q9.16992 11.0156 9.37988 10.8105Q9.58984 10.6055 9.58984 10.3223Q9.58984 10.293 9.58984 10.2588Q9.58984 10.2246 9.58984 10.2051Q9.58984 9.79492 9.83398 9.49707Q10.0781 9.19922 10.5957 8.85742Q11.2988 8.38867 11.7578 7.88086Q12.2168 7.37305 12.2168 6.49414Q12.2168 5.68359 11.7822 5.12695Q11.3477 4.57031 10.6445 4.28223Q9.94141 3.99414 9.11133 3.99414Q7.85156 3.99414 7.05566 4.50684Q6.25977 5.01953 6.05469 5.69336Q6.01562 5.81055 5.99609 5.92773Q5.97656 6.04492 5.97656 6.17188Q5.97656 6.50391 6.19141 6.6748Q6.40625 6.8457 6.65039 6.8457Q6.89453 6.8457 7.06543 6.73828Q7.23633 6.63086 7.36328 6.45508L7.53906 6.2207Q7.71484 5.9375 7.93945 5.7373Q8.16406 5.53711 8.44238 5.42969Q8.7207 5.32227 9.04297 5.32227Q9.7168 5.32227 10.1172 5.66895Q10.5176 6.01562 10.5176 6.57227Q10.5176 7.07031 10.2051 7.3877Q9.89258 7.70508 9.24805 8.1543Q8.7207 8.51562 8.37402 8.95508Q8.02734 9.39453 8.02734 10.1172Q8.02734 10.1465 8.02734 10.1807Q8.02734 10.2148 8.02734 10.2441Q8.02734 11.0156 8.80859 11.0156ZM8.7793 13.9258Q9.20898 13.9258 9.52148 13.6328Q9.83398 13.3398 9.83398 12.9102Q9.83398 12.4805 9.52148 12.1875Q9.20898 11.8945 8.7793 11.8945Q8.34961 11.8945 8.04199 12.1924Q7.73438 12.4902 7.73438 12.9102Q7.73438 13.3301 8.04688 13.6279Q8.35938 13.9258 8.7793 13.9258Z" fill="#ffffff"/>
 </g>
</svg>
