<?xml version="1.0" encoding="UTF-8"?>
<!--Generator: Apple Native CoreSVG 175-->
<!DOCTYPE svg
PUBLIC "-//W3C//DTD SVG 1.1//EN"
       "http://www.w3.org/Graphics/SVG/1.1/DTD/svg11.dtd">
<svg version="1.1" xmlns="http://www.w3.org/2000/svg" xmlns:xlink="http://www.w3.org/1999/xlink" width="19.1602" height="19.1504">
 <g>
  <rect height="19.1504" opacity="0" width="19.1602" x="0" y="0"/>
  <path d="M9.57031 19.1406Q11.5527 19.1406 13.2861 18.3984Q15.0195 17.6562 16.3379 16.333Q17.6562 15.0098 18.4082 13.2764Q19.1602 11.543 19.1602 9.57031Q19.1602 7.59766 18.4082 5.86426Q17.6562 4.13086 16.3379 2.80762Q15.0195 1.48438 13.2861 0.742188Q11.5527 0 9.57031 0Q7.59766 0 5.86426 0.742188Q4.13086 1.48438 2.81738 2.80762Q1.50391 4.13086 0.751953 5.86426Q0 7.59766 0 9.57031Q0 11.543 0.74707 13.2764Q1.49414 15.0098 2.8125 16.333Q4.13086 17.6562 5.86914 18.3984Q7.60742 19.1406 9.57031 19.1406ZM9.57031 18.3984Q7.74414 18.3984 6.14746 17.71Q4.55078 17.0215 3.33496 15.8105Q2.11914 14.5996 1.43555 12.998Q0.751953 11.3965 0.751953 9.57031Q0.751953 7.74414 1.43555 6.14258Q2.11914 4.54102 3.33496 3.3252Q4.55078 2.10938 6.14746 1.4209Q7.74414 0.732422 9.57031 0.732422Q11.4062 0.732422 13.0029 1.4209Q14.5996 2.10938 15.8154 3.3252Q17.0312 4.54102 17.7197 6.14258Q18.4082 7.74414 18.4082 9.57031Q18.4082 11.3965 17.7246 12.998Q17.041 14.5996 15.8252 15.8105Q14.6094 17.0215 13.0078 17.71Q11.4062 18.3984 9.57031 18.3984ZM9.4043 11.5234Q9.57031 11.5234 9.66797 11.4209Q9.76562 11.3184 9.76562 11.1621Q9.76562 11.084 9.76562 11.0059Q9.76562 10.9277 9.76562 10.8398Q9.76562 10.3809 10 10.0586Q10.2344 9.73633 10.8105 9.33594Q11.5723 8.81836 11.9141 8.3252Q12.2559 7.83203 12.2559 7.12891Q12.2559 6.51367 11.9141 6.03516Q11.5723 5.55664 10.9717 5.2832Q10.3711 5.00977 9.61914 5.00977Q8.4668 5.00977 7.76855 5.58105Q7.07031 6.15234 6.96289 6.9043Q6.95312 7.00195 6.94336 7.08008Q6.93359 7.1582 6.93359 7.27539Q6.93359 7.44141 7.03613 7.53906Q7.13867 7.63672 7.27539 7.63672Q7.41211 7.63672 7.50977 7.56348Q7.60742 7.49023 7.63672 7.36328L7.67578 7.22656Q7.70508 6.82617 7.95898 6.47461Q8.21289 6.12305 8.62793 5.89844Q9.04297 5.67383 9.58008 5.67383Q10.4492 5.67383 10.9619 6.09863Q11.4746 6.52344 11.4746 7.17773Q11.4746 7.68555 11.1865 8.06152Q10.8984 8.4375 10.1855 8.92578Q9.58008 9.35547 9.30664 9.77539Q9.0332 10.1953 9.0332 10.8008Q9.0332 10.8887 9.0332 10.9717Q9.0332 11.0547 9.0332 11.1426Q9.0332 11.5234 9.4043 11.5234ZM9.38477 14.1406Q9.6875 14.1406 9.89258 13.9307Q10.0977 13.7207 10.0977 13.4375Q10.0977 13.1445 9.89258 12.9395Q9.6875 12.7344 9.38477 12.7344Q9.0918 12.7344 8.88184 12.9395Q8.67188 13.1445 8.67188 13.4375Q8.67188 13.7207 8.88184 13.9307Q9.0918 14.1406 9.38477 14.1406Z" fill="#ffffff"/>
 </g>
</svg>
