<?xml version="1.0" encoding="UTF-8"?>
<!--Generator: Apple Native CoreSVG 175-->
<!DOCTYPE svg
PUBLIC "-//W3C//DTD SVG 1.1//EN"
       "http://www.w3.org/Graphics/SVG/1.1/DTD/svg11.dtd">
<svg version="1.1" xmlns="http://www.w3.org/2000/svg" xmlns:xlink="http://www.w3.org/1999/xlink" width="23.623" height="15.7324">
 <g>
  <rect height="15.7324" opacity="0" width="23.623" x="0" y="0"/>
  <path d="M3.17383 15.7227L14.043 15.7227Q15.5762 15.7227 16.3965 14.9023Q17.2168 14.082 17.2168 12.5586L17.2168 3.1543Q17.2168 1.64062 16.4062 0.820312Q15.5957 0 14.0625 0L3.17383 0Q1.66016 0 0.830078 0.820312Q0 1.64062 0 3.1543L0 12.5586Q0 14.082 0.820312 14.9023Q1.64062 15.7227 3.17383 15.7227ZM18.0859 10.7227L21.5918 13.5645Q21.8555 13.7695 22.1045 13.8916Q22.3535 14.0137 22.627 14.0137Q23.0762 14.0137 23.3496 13.7158Q23.623 13.418 23.623 12.8809L23.623 2.83203Q23.623 2.30469 23.3496 2.00195Q23.0762 1.69922 22.627 1.69922Q22.3535 1.69922 22.1045 1.82129Q21.8555 1.94336 21.5918 2.1582L18.0859 4.98047ZM8.4375 9.62891Q8.10547 9.62891 8.10547 9.27734Q8.10547 9.19922 8.10547 9.12109Q8.10547 9.04297 8.10547 8.96484Q8.10547 8.4082 8.34961 8.02734Q8.59375 7.64648 9.15039 7.25586Q9.79492 6.81641 10.0586 6.46973Q10.3223 6.12305 10.3223 5.6543Q10.3223 5.06836 9.8584 4.68262Q9.39453 4.29688 8.60352 4.29688Q7.86133 4.29688 7.41699 4.72168Q6.97266 5.14648 6.875 5.75195Q6.82617 5.89844 6.74316 5.98633Q6.66016 6.07422 6.49414 6.07422Q6.36719 6.07422 6.26953 5.98633Q6.17188 5.89844 6.17188 5.75195Q6.17188 5.6543 6.18164 5.57129Q6.19141 5.48828 6.21094 5.40039Q6.31836 4.7168 6.95312 4.19922Q7.58789 3.68164 8.63281 3.68164Q9.32617 3.68164 9.87305 3.92578Q10.4199 4.16992 10.7324 4.60938Q11.0449 5.04883 11.0449 5.61523Q11.0449 6.25977 10.7373 6.7041Q10.4297 7.14844 9.73633 7.62695Q9.20898 7.98828 8.99414 8.28613Q8.7793 8.58398 8.7793 9.00391Q8.7793 9.08203 8.7793 9.15039Q8.7793 9.21875 8.7793 9.28711Q8.7793 9.43359 8.68652 9.53125Q8.59375 9.62891 8.4375 9.62891ZM8.42773 12.0215Q8.1543 12.0215 7.95898 11.8262Q7.76367 11.6309 7.76367 11.3672Q7.76367 11.1035 7.95898 10.9131Q8.1543 10.7227 8.42773 10.7227Q8.69141 10.7227 8.88184 10.9131Q9.07227 11.1035 9.07227 11.3672Q9.07227 11.6309 8.88672 11.8262Q8.70117 12.0215 8.42773 12.0215Z" fill="#ffffff"/>
 </g>
</svg>
