<?xml version="1.0" encoding="UTF-8"?>
<!--Generator: Apple Native CoreSVG 175-->
<!DOCTYPE svg
PUBLIC "-//W3C//DTD SVG 1.1//EN"
       "http://www.w3.org/Graphics/SVG/1.1/DTD/svg11.dtd">
<svg version="1.1" xmlns="http://www.w3.org/2000/svg" xmlns:xlink="http://www.w3.org/1999/xlink" width="17.0898" height="17.1191">
 <g>
  <rect height="17.1191" opacity="0" width="17.0898" x="0" y="0"/>
  <path d="M1.02539 1.07422Q0.449219 1.66016 0.224609 2.5Q0 3.33984 0 4.67773L0 5.01953L0.732422 5.01953L0.732422 4.6582Q0.732422 3.58398 0.917969 2.81738Q1.10352 2.05078 1.55273 1.60156Q2.01172 1.14258 2.7832 0.952148Q3.55469 0.761719 4.62891 0.761719L5.07812 0.761719L5.07812 0.0390625L4.63867 0.0390625Q3.31055 0.0390625 2.45605 0.268555Q1.60156 0.498047 1.02539 1.07422ZM5.94727 0.761719L11.1426 0.761719L11.1426 0.0390625L5.94727 0.0390625ZM16.0742 1.06445Q15.4883 0.488281 14.6289 0.263672Q13.7695 0.0390625 12.3535 0.0390625L12.0117 0.0390625L12.0117 0.761719L12.5781 0.761719Q13.584 0.761719 14.3311 0.961914Q15.0781 1.16211 15.5273 1.61133Q15.9863 2.07031 16.1816 2.80762Q16.377 3.54492 16.377 4.56055L16.377 5.01953L17.0898 5.01953L17.0898 4.77539Q17.0898 3.34961 16.875 2.49512Q16.6602 1.64062 16.0742 1.06445ZM16.377 11.2695L17.0898 11.2695L17.0898 5.87891L16.377 5.87891ZM16.0742 16.084Q16.6602 15.5078 16.875 14.6533Q17.0898 13.7988 17.0898 12.373L17.0898 12.1387L16.377 12.1387L16.377 12.5879Q16.377 13.6133 16.1768 14.3457Q15.9766 15.0781 15.5273 15.5371Q15.0781 15.9961 14.3311 16.1963Q13.584 16.3965 12.5781 16.3965L12.0117 16.3965L12.0117 17.1191L12.3535 17.1191Q13.7695 17.1191 14.6338 16.8896Q15.498 16.6602 16.0742 16.084ZM5.94727 17.1191L11.1426 17.1191L11.1426 16.3965L5.94727 16.3965ZM1.01562 16.084Q1.60156 16.6602 2.46582 16.8896Q3.33008 17.1191 4.74609 17.1191L5.07812 17.1191L5.07812 16.3965L4.53125 16.3965Q3.51562 16.3965 2.76855 16.1914Q2.02148 15.9863 1.5625 15.5371Q1.10352 15.0781 0.917969 14.3457Q0.732422 13.6133 0.732422 12.5879L0.732422 12.1387L0 12.1387L0 12.373Q0 13.7988 0.219727 14.6582Q0.439453 15.5176 1.01562 16.084ZM0 11.2695L0.732422 11.2695L0.732422 5.87891L0 5.87891ZM8.37891 10.5078Q8.54492 10.5078 8.64258 10.4053Q8.74023 10.3027 8.74023 10.1465Q8.74023 10.0684 8.74023 9.99023Q8.74023 9.91211 8.74023 9.82422Q8.74023 9.36523 8.97461 9.04297Q9.20898 8.7207 9.78516 8.32031Q10.5469 7.80273 10.8887 7.30957Q11.2305 6.81641 11.2305 6.11328Q11.2305 5.49805 10.8887 5.01953Q10.5469 4.54102 9.94629 4.26758Q9.3457 3.99414 8.59375 3.99414Q7.44141 3.99414 6.74316 4.56543Q6.04492 5.13672 5.9375 5.88867Q5.92773 5.98633 5.91797 6.06445Q5.9082 6.14258 5.9082 6.25977Q5.9082 6.42578 6.01074 6.52344Q6.11328 6.62109 6.25 6.62109Q6.38672 6.62109 6.48438 6.54785Q6.58203 6.47461 6.61133 6.34766L6.65039 6.21094Q6.67969 5.81055 6.93359 5.45898Q7.1875 5.10742 7.60254 4.88281Q8.01758 4.6582 8.55469 4.6582Q9.42383 4.6582 9.93652 5.08301Q10.4492 5.50781 10.4492 6.16211Q10.4492 6.66992 10.1611 7.0459Q9.87305 7.42188 9.16016 7.91016Q8.55469 8.33984 8.28125 8.75977Q8.00781 9.17969 8.00781 9.78516Q8.00781 9.87305 8.00781 9.95605Q8.00781 10.0391 8.00781 10.127Q8.00781 10.5078 8.37891 10.5078ZM8.35938 13.125Q8.66211 13.125 8.86719 12.915Q9.07227 12.7051 9.07227 12.4219Q9.07227 12.1289 8.86719 11.9238Q8.66211 11.7188 8.35938 11.7188Q8.06641 11.7188 7.85645 11.9238Q7.64648 12.1289 7.64648 12.4219Q7.64648 12.7051 7.85645 12.915Q8.06641 13.125 8.35938 13.125Z" fill="#ffffff"/>
 </g>
</svg>
