<?xml version="1.0" encoding="UTF-8"?>
<!--Generator: Apple Native CoreSVG 175.5-->
<!DOCTYPE svg
PUBLIC "-//W3C//DTD SVG 1.1//EN"
       "http://www.w3.org/Graphics/SVG/1.1/DTD/svg11.dtd">
<svg version="1.1" xmlns="http://www.w3.org/2000/svg" xmlns:xlink="http://www.w3.org/1999/xlink" width="19.9219" height="19.9316">
 <g>
  <rect height="19.9316" opacity="0" width="19.9219" x="0" y="0"/>
  <path d="M9.96094 19.9219Q12.002 19.9219 13.8037 19.1406Q15.6055 18.3594 16.9824 16.9824Q18.3594 15.6055 19.1406 13.8037Q19.9219 12.002 19.9219 9.96094Q19.9219 7.91992 19.1406 6.11816Q18.3594 4.31641 16.9824 2.93945Q15.6055 1.5625 13.7988 0.78125Q11.9922 0 9.95117 0Q7.91016 0 6.1084 0.78125Q4.30664 1.5625 2.93457 2.93945Q1.5625 4.31641 0.78125 6.11816Q0 7.91992 0 9.96094Q0 12.002 0.78125 13.8037Q1.5625 15.6055 2.93945 16.9824Q4.31641 18.3594 6.11816 19.1406Q7.91992 19.9219 9.96094 19.9219ZM9.96094 18.2617Q8.23242 18.2617 6.72852 17.6172Q5.22461 16.9727 4.08691 15.835Q2.94922 14.6973 2.30957 13.1934Q1.66992 11.6895 1.66992 9.96094Q1.66992 8.23242 2.30957 6.72852Q2.94922 5.22461 4.08203 4.08203Q5.21484 2.93945 6.71875 2.2998Q8.22266 1.66016 9.95117 1.66016Q11.6797 1.66016 13.1885 2.2998Q14.6973 2.93945 15.835 4.08203Q16.9727 5.22461 17.6172 6.72852Q18.2617 8.23242 18.2617 9.96094Q18.2617 11.6895 17.6221 13.1934Q16.9824 14.6973 15.8398 15.835Q14.6973 16.9727 13.1934 17.6172Q11.6895 18.2617 9.96094 18.2617Z" fill="#ffffff"/>
  <path d="M7.45117 14.4336Q7.83203 14.4336 8.03223 14.2041Q8.23242 13.9746 8.23242 13.5645L8.23242 11.1328L10.0586 11.1328L11.748 13.916Q11.9238 14.1992 12.0947 14.3164Q12.2656 14.4336 12.5293 14.4336Q12.8418 14.4336 13.0371 14.248Q13.2324 14.0625 13.2324 13.7695Q13.2324 13.4863 13.0566 13.2031L11.5918 10.9082Q12.4512 10.625 12.9688 9.91211Q13.4863 9.19922 13.4863 8.29102Q13.4863 6.97266 12.6123 6.19629Q11.7383 5.41992 10.2441 5.41992L7.44141 5.41992Q7.07031 5.41992 6.875 5.66406Q6.67969 5.9082 6.67969 6.29883L6.67969 13.5645Q6.67969 13.9551 6.875 14.1943Q7.07031 14.4336 7.45117 14.4336ZM8.23242 9.99023L8.23242 6.61133L10.0586 6.61133Q10.8984 6.61133 11.416 7.06055Q11.9336 7.50977 11.9336 8.33008Q11.9336 9.13086 11.4209 9.56055Q10.9082 9.99023 10.0195 9.99023Z" fill="#ffffff"/>
 </g>
</svg>
