<?xml version="1.0" encoding="UTF-8"?>
<!--Generator: Apple Native CoreSVG 175-->
<!DOCTYPE svg
PUBLIC "-//W3C//DTD SVG 1.1//EN"
       "http://www.w3.org/Graphics/SVG/1.1/DTD/svg11.dtd">
<svg version="1.1" xmlns="http://www.w3.org/2000/svg" xmlns:xlink="http://www.w3.org/1999/xlink" width="24.9952" height="22.4902">
 <g>
  <rect height="22.4902" opacity="0" width="24.9952" x="0" y="0"/>
  <path d="M13.755 19.5117Q15.464 19.5117 16.963 18.8672Q18.462 18.2227 19.5997 17.085Q20.7374 15.9473 21.3819 14.4531Q22.0265 12.959 22.0265 11.2402Q22.0265 9.52148 21.3819 8.02246Q20.7374 6.52344 19.5997 5.39062Q18.462 4.25781 16.963 3.61328Q15.464 2.96875 13.755 2.96875Q12.0362 2.96875 10.5372 3.61328Q9.0382 4.25781 7.90539 5.39062Q6.77257 6.52344 6.12804 8.02246Q5.48351 9.52148 5.48351 11.2402Q5.48351 12.959 6.12804 14.4531Q6.77257 15.9473 7.90539 17.085Q9.0382 18.2227 10.5372 18.8672Q12.0362 19.5117 13.755 19.5117ZM13.755 0Q11.8214 0 10.0831 0.605469Q8.34484 1.21094 6.91906 2.31445Q5.49328 3.41797 4.46789 4.90723Q3.4425 6.39648 2.94445 8.16406Q3.13 8.16406 3.31066 8.2373Q3.49132 8.31055 3.62804 8.42773Q4.08703 6.75781 5.04406 5.35156Q6.00109 3.94531 7.33898 2.91016Q8.67687 1.875 10.3077 1.29883Q11.9386 0.722656 13.755 0.722656Q15.923 0.722656 17.8321 1.53809Q19.7413 2.35352 21.1866 3.79883Q22.6319 5.24414 23.4474 7.14844Q24.2628 9.05273 24.2628 11.2402Q24.2628 13.418 23.4474 15.3223Q22.6319 17.2266 21.1915 18.6719Q19.7511 20.1172 17.8419 20.9326Q15.9327 21.748 13.755 21.748Q11.9484 21.748 10.3175 21.1768Q8.68664 20.6055 7.34386 19.5703Q6.00109 18.5352 5.04406 17.1289Q4.08703 15.7227 3.62804 14.0625Q3.49132 14.1797 3.31066 14.2432Q3.13 14.3066 2.94445 14.3262Q3.45226 16.084 4.47277 17.5732Q5.49328 19.0625 6.92394 20.166Q8.35461 21.2695 10.088 21.875Q11.8214 22.4805 13.755 22.4805Q15.6105 22.4805 17.2999 21.9092Q18.9894 21.3379 20.3956 20.3076Q21.8019 19.2773 22.8321 17.876Q23.8624 16.4746 24.4288 14.79Q24.9952 13.1055 24.9952 11.2402Q24.9952 9.375 24.4239 7.69043Q23.8527 6.00586 22.8224 4.59961Q21.7921 3.19336 20.3859 2.16309Q18.9796 1.13281 17.295 0.566406Q15.6105 0 13.755 0ZM2.45617 9.14062L0.200309 10.8398Q-0.00476926 10.9961 0.000113554 11.2451Q0.00499637 11.4941 0.200309 11.6406L2.45617 13.3496Q2.71007 13.5352 2.97375 13.4424Q3.23742 13.3496 3.23742 13.0273L3.23742 9.45312Q3.23742 9.14062 2.97375 9.04297Q2.71007 8.94531 2.45617 9.14062ZM11.421 15.4395Q11.2648 15.4395 11.1671 15.3418Q11.0694 15.2441 11.0694 15.0586L11.0694 7.48047Q11.0694 7.30469 11.1525 7.19238Q11.2355 7.08008 11.4015 7.08008L13.9796 7.08008Q15.1515 7.08008 15.8741 7.76367Q16.5968 8.44727 16.5968 9.55078Q16.5968 10.4492 16.0792 11.0889Q15.5616 11.7285 14.7023 11.9141L16.421 14.8242Q16.5284 15.0098 16.5284 15.1367Q16.5284 15.2734 16.4454 15.3564Q16.3624 15.4395 16.2159 15.4395Q16.089 15.4395 16.006 15.3857Q15.923 15.332 15.8448 15.1855L13.9894 12.002L11.7823 12.002L11.7823 15.0586Q11.7823 15.2344 11.6847 15.3369Q11.587 15.4395 11.421 15.4395ZM11.7823 11.3965L13.9503 11.3965Q14.8194 11.3965 15.3517 10.8936Q15.8839 10.3906 15.8839 9.56055Q15.8839 8.7207 15.3517 8.21289Q14.8194 7.70508 13.9601 7.70508L11.7823 7.70508Z" fill="#ffffff"/>
 </g>
</svg>
