<?xml version="1.0" encoding="UTF-8"?>
<!--Generator: Apple Native CoreSVG 175-->
<!DOCTYPE svg
PUBLIC "-//W3C//DTD SVG 1.1//EN"
       "http://www.w3.org/Graphics/SVG/1.1/DTD/svg11.dtd">
<svg version="1.1" xmlns="http://www.w3.org/2000/svg" xmlns:xlink="http://www.w3.org/1999/xlink" width="22.4805" height="27.5293">
 <g>
  <rect height="27.5293" opacity="0" width="22.4805" x="0" y="0"/>
  <path d="M11.2402 22.0312Q12.9492 22.0312 14.4531 21.3867Q15.957 20.7422 17.0898 19.6045Q18.2227 18.4668 18.8672 16.9727Q19.5117 15.4785 19.5117 13.7598Q19.5117 12.041 18.8672 10.542Q18.2227 9.04297 17.0898 7.91016Q15.957 6.77734 14.4531 6.13281Q12.9492 5.48828 11.2402 5.48828Q9.52148 5.48828 8.02734 6.13281Q6.5332 6.77734 5.39551 7.91016Q4.25781 9.04297 3.61328 10.542Q2.96875 12.041 2.96875 13.7598Q2.96875 15.4785 3.61328 16.9727Q4.25781 18.4668 5.39551 19.6045Q6.5332 20.7422 8.02734 21.3867Q9.52148 22.0312 11.2402 22.0312ZM11.2402 25Q13.1055 25 14.7852 24.4336Q16.4648 23.8672 17.876 22.8369Q19.2871 21.8066 20.3174 20.4004Q21.3477 18.9941 21.9141 17.3096Q22.4805 15.625 22.4805 13.7598Q22.4805 11.8359 21.875 10.0977Q21.2695 8.35938 20.166 6.92871Q19.0625 5.49805 17.5732 4.47754Q16.084 3.45703 14.3164 2.94922Q14.3066 3.13477 14.2432 3.31543Q14.1797 3.49609 14.0625 3.63281Q15.7324 4.0918 17.1338 5.04883Q18.5352 6.00586 19.5703 7.34863Q20.6055 8.69141 21.1816 10.3223Q21.7578 11.9531 21.7578 13.7598Q21.7578 15.9375 20.9375 17.8467Q20.1172 19.7559 18.6719 21.1963Q17.2266 22.6367 15.3223 23.4521Q13.418 24.2676 11.2402 24.2676Q9.0625 24.2676 7.15332 23.4521Q5.24414 22.6367 3.80371 21.1914Q2.36328 19.7461 1.54785 17.8418Q0.732422 15.9375 0.732422 13.7598Q0.732422 11.9434 1.30371 10.3125Q1.875 8.68164 2.91016 7.34375Q3.94531 6.00586 5.35156 5.05371Q6.75781 4.10156 8.42773 3.63281Q8.30078 3.49609 8.2373 3.31543Q8.17383 3.13477 8.16406 2.94922Q6.39648 3.44727 4.90723 4.46777Q3.41797 5.48828 2.31445 6.92383Q1.21094 8.35938 0.605469 10.0928Q0 11.8262 0 13.7598Q0 15.625 0.566406 17.3096Q1.13281 18.9941 2.16309 20.3955Q3.19336 21.7969 4.59961 22.8271Q6.00586 23.8574 7.69043 24.4287Q9.375 25 11.2402 25ZM9.14062 2.46094Q8.94531 2.71484 9.04297 2.97852Q9.14062 3.24219 9.45312 3.24219L13.0371 3.24219Q13.3496 3.24219 13.4473 2.97852Q13.5449 2.71484 13.3496 2.46094L11.6504 0.205078Q11.4941 0 11.2451 0Q10.9961 0 10.8398 0.205078ZM8.90625 17.959Q8.75 17.959 8.65234 17.8613Q8.55469 17.7637 8.55469 17.5781L8.55469 10Q8.55469 9.82422 8.6377 9.71191Q8.7207 9.59961 8.88672 9.59961L11.4648 9.59961Q12.6367 9.59961 13.3594 10.2832Q14.082 10.9668 14.082 12.0703Q14.082 12.9688 13.5645 13.6084Q13.0469 14.248 12.1875 14.4336L13.9062 17.3438Q14.0137 17.5293 14.0137 17.6562Q14.0137 17.793 13.9307 17.876Q13.8477 17.959 13.7012 17.959Q13.5742 17.959 13.4912 17.9053Q13.4082 17.8516 13.3301 17.7051L11.4746 14.5215L9.26758 14.5215L9.26758 17.5781Q9.26758 17.7539 9.16992 17.8564Q9.07227 17.959 8.90625 17.959ZM9.26758 13.916L11.4355 13.916Q12.3047 13.916 12.8369 13.4131Q13.3691 12.9102 13.3691 12.0801Q13.3691 11.2402 12.8369 10.7324Q12.3047 10.2246 11.4453 10.2246L9.26758 10.2246Z" fill="rgba(0,0,0,0.85)"/>
 </g>
</svg>
