<?xml version="1.0" encoding="UTF-8"?>
<!--Generator: Apple Native CoreSVG 175.5-->
<!DOCTYPE svg
PUBLIC "-//W3C//DTD SVG 1.1//EN"
       "http://www.w3.org/Graphics/SVG/1.1/DTD/svg11.dtd">
<svg version="1.1" xmlns="http://www.w3.org/2000/svg" xmlns:xlink="http://www.w3.org/1999/xlink" width="20.1367" height="19.1113">
 <g>
  <rect height="19.1113" opacity="0" width="20.1367" x="0" y="0"/>
  <path d="M10.0684 14.9707Q12.3535 14.9707 14.209 14.4922Q16.0645 14.0137 17.3877 13.1348Q18.7109 12.2559 19.4238 11.0498Q20.1367 9.84375 20.1367 8.37891Q20.1367 6.92383 19.4238 5.71777Q18.7109 4.51172 17.3828 3.63281Q16.0547 2.75391 14.1992 2.27539Q12.3438 1.79688 10.0586 1.79688Q7.77344 1.79688 5.92285 2.27539Q4.07227 2.75391 2.74902 3.63281Q1.42578 4.51172 0.712891 5.71777Q0 6.92383 0 8.37891Q0 9.84375 0.712891 11.0498Q1.42578 12.2559 2.74902 13.1348Q4.07227 14.0137 5.92773 14.4922Q7.7832 14.9707 10.0684 14.9707ZM10.0684 13.291Q7.58789 13.291 5.71777 12.6709Q3.84766 12.0508 2.80762 10.9473Q1.76758 9.84375 1.76758 8.37891Q1.76758 6.92383 2.80762 5.81543Q3.84766 4.70703 5.71289 4.0918Q7.57812 3.47656 10.0586 3.47656Q12.5391 3.47656 14.4141 4.0918Q16.2891 4.70703 17.3291 5.81543Q18.3691 6.92383 18.3691 8.37891Q18.3691 9.84375 17.3291 10.9473Q16.2891 12.0508 14.4189 12.6709Q12.5488 13.291 10.0684 13.291ZM10.0684 19.1113Q11.8457 19.1113 12.8467 18.3203Q13.8477 17.5293 13.8477 16.123L13.8477 15.7324Q12.9785 15.918 12.0312 16.0107Q11.084 16.1035 10.0684 16.1035Q9.05273 16.1035 8.11035 16.0107Q7.16797 15.918 6.29883 15.7324L6.29883 16.123Q6.29883 17.5293 7.29492 18.3203Q8.29102 19.1113 10.0684 19.1113Z" fill="#ffffff"/>
  <path d="M8.4375 11.2988Q8.7207 11.2988 8.88184 11.1182Q9.04297 10.9375 9.04297 10.6445L9.04297 9.18945L10.0391 9.18945L11.1133 10.9375Q11.2402 11.1426 11.3672 11.2256Q11.4941 11.3086 11.6797 11.3086Q11.9043 11.3086 12.0703 11.1621Q12.2363 11.0156 12.2363 10.7812Q12.2363 10.6641 12.2021 10.5664Q12.168 10.4688 12.0996 10.3711L11.2207 8.99414Q11.7578 8.7793 12.0605 8.32031Q12.3633 7.86133 12.3633 7.28516Q12.3633 6.40625 11.7773 5.88379Q11.1914 5.36133 10.2246 5.36133L8.4375 5.36133Q7.86133 5.36133 7.86133 6.02539L7.86133 10.6445Q7.86133 11.2988 8.4375 11.2988ZM9.04297 8.26172L9.04297 6.31836L10.0977 6.31836Q10.6055 6.31836 10.8936 6.58203Q11.1816 6.8457 11.1816 7.30469Q11.1816 7.76367 10.8936 8.0127Q10.6055 8.26172 10.0781 8.26172Z" fill="#ffffff"/>
 </g>
</svg>
