<?xml version="1.0" encoding="UTF-8"?>
<!--Generator: Apple Native CoreSVG 175.5-->
<!DOCTYPE svg
PUBLIC "-//W3C//DTD SVG 1.1//EN"
       "http://www.w3.org/Graphics/SVG/1.1/DTD/svg11.dtd">
<svg version="1.1" xmlns="http://www.w3.org/2000/svg" xmlns:xlink="http://www.w3.org/1999/xlink" width="20.6641" height="20.459">
 <g>
  <rect height="20.459" opacity="0" width="20.6641" x="0" y="0"/>
  <path d="M7.80273 20.459L17.6074 20.459Q19.1406 20.459 19.9023 19.7021Q20.6641 18.9453 20.6641 17.4316L20.6641 7.54883Q20.6641 6.04492 19.9023 5.28809Q19.1406 4.53125 17.6074 4.53125L15.127 4.53125L15.127 6.10352L17.5781 6.10352Q18.3105 6.10352 18.7012 6.48926Q19.0918 6.875 19.0918 7.63672L19.0918 17.3535Q19.0918 18.1152 18.7012 18.501Q18.3105 18.8867 17.5781 18.8867L7.82227 18.8867Q7.09961 18.8867 6.7041 18.501Q6.30859 18.1152 6.30859 17.3535L6.30859 15.2051L4.73633 15.2051L4.73633 17.4316Q4.73633 18.9453 5.50293 19.7021Q6.26953 20.459 7.80273 20.459Z" fill="#ffffff"/>
  <path d="M3.06641 15.9375L12.8711 15.9375Q14.4043 15.9375 15.166 15.1807Q15.9277 14.4238 15.9277 12.9102L15.9277 3.03711Q15.9277 1.52344 15.166 0.766602Q14.4043 0.00976562 12.8711 0.00976562L3.06641 0.00976562Q1.5332 0.00976562 0.766602 0.766602Q0 1.52344 0 3.03711L0 12.9102Q0 14.4238 0.766602 15.1807Q1.5332 15.9375 3.06641 15.9375ZM3.08594 14.3652Q2.36328 14.3652 1.96777 13.9795Q1.57227 13.5938 1.57227 12.832L1.57227 3.11523Q1.57227 2.35352 1.96777 1.96777Q2.36328 1.58203 3.08594 1.58203L12.8418 1.58203Q13.5742 1.58203 13.9648 1.96777Q14.3555 2.35352 14.3555 3.11523L14.3555 12.832Q14.3555 13.5938 13.9648 13.9795Q13.5742 14.3652 12.8418 14.3652ZM5.46875 12.4512Q5.84961 12.4512 6.0498 12.2217Q6.25 11.9922 6.25 11.582L6.25 9.15039L8.07617 9.15039L9.76562 11.9336Q9.94141 12.2168 10.1123 12.334Q10.2832 12.4512 10.5469 12.4512Q10.8594 12.4512 11.0547 12.2656Q11.25 12.0801 11.25 11.7871Q11.25 11.5039 11.0742 11.2207L9.60938 8.92578Q10.4688 8.64258 10.9863 7.92969Q11.5039 7.2168 11.5039 6.30859Q11.5039 4.99023 10.6299 4.21387Q9.75586 3.4375 8.26172 3.4375L5.45898 3.4375Q5.08789 3.4375 4.89258 3.68164Q4.69727 3.92578 4.69727 4.31641L4.69727 11.582Q4.69727 11.9727 4.89258 12.2119Q5.08789 12.4512 5.46875 12.4512ZM6.25 8.00781L6.25 4.62891L8.07617 4.62891Q8.91602 4.62891 9.43359 5.07812Q9.95117 5.52734 9.95117 6.34766Q9.95117 7.14844 9.43848 7.57812Q8.92578 8.00781 8.03711 8.00781Z" fill="#ffffff"/>
 </g>
</svg>
