<?xml version="1.0" encoding="UTF-8"?>
<!--Generator: Apple Native CoreSVG 175.5-->
<!DOCTYPE svg
PUBLIC "-//W3C//DTD SVG 1.1//EN"
       "http://www.w3.org/Graphics/SVG/1.1/DTD/svg11.dtd">
<svg version="1.1" xmlns="http://www.w3.org/2000/svg" xmlns:xlink="http://www.w3.org/1999/xlink" width="23.6133" height="17.998">
 <g>
  <rect height="17.998" opacity="0" width="23.6133" x="0" y="0"/>
  <path d="M8.39844 17.998L15.2246 17.998Q18.125 17.998 19.9854 17.1045Q21.8457 16.2109 22.7295 14.4043Q23.6133 12.5977 23.6133 9.85352L23.6133 3.04688Q23.6133 1.5332 22.8467 0.776367Q22.0801 0.0195312 20.5469 0.0195312L3.06641 0.0195312Q1.5332 0.0195312 0.766602 0.776367Q0 1.5332 0 3.04688L0 9.85352Q0 12.5977 0.888672 14.4043Q1.77734 16.2109 3.63281 17.1045Q5.48828 17.998 8.39844 17.998ZM8.39844 16.4062Q6.02539 16.4062 4.5166 15.7031Q3.00781 15 2.29004 13.5693Q1.57227 12.1387 1.57227 9.95117L1.57227 3.125Q1.57227 1.5918 3.08594 1.5918L20.5273 1.5918Q21.25 1.5918 21.6455 1.97754Q22.041 2.36328 22.041 3.125L22.041 9.95117Q22.041 12.1387 21.3232 13.5693Q20.6055 15 19.0967 15.7031Q17.5879 16.4062 15.2148 16.4062Z" fill="#ffffff"/>
  <path d="M6.57227 13.4961Q6.95312 13.4961 7.1582 13.2666Q7.36328 13.0371 7.36328 12.627L7.36328 10.1953L9.17969 10.1953L10.8691 12.9785Q11.0449 13.2617 11.2158 13.3789Q11.3867 13.4961 11.6504 13.4961Q11.9629 13.4961 12.1631 13.3105Q12.3633 13.125 12.3633 12.832Q12.3633 12.5488 12.1777 12.2656L10.7129 9.9707Q11.5723 9.6875 12.0898 8.97461Q12.6074 8.26172 12.6074 7.35352Q12.6074 6.03516 11.7334 5.25879Q10.8594 4.48242 9.36523 4.48242L6.5625 4.48242Q6.19141 4.48242 5.99609 4.72656Q5.80078 4.9707 5.80078 5.36133L5.80078 12.627Q5.80078 13.0176 5.99609 13.2568Q6.19141 13.4961 6.57227 13.4961ZM7.36328 9.05273L7.36328 5.67383L9.17969 5.67383Q10.0195 5.67383 10.542 6.12305Q11.0645 6.57227 11.0645 7.39258Q11.0645 8.19336 10.5469 8.62305Q10.0293 9.05273 9.14062 9.05273ZM17.0898 13.6035Q17.4707 13.6035 17.6758 13.3691Q17.8809 13.1348 17.8809 12.7246L17.8809 5.26367Q17.8809 4.84375 17.6611 4.61426Q17.4414 4.38477 17.0508 4.38477Q16.5723 4.38477 16.0156 4.76562L14.2676 5.95703Q13.9648 6.17188 13.9648 6.51367Q13.9648 6.73828 14.1211 6.91406Q14.2773 7.08984 14.5117 7.08984Q14.6191 7.08984 14.7217 7.06055Q14.8242 7.03125 14.9902 6.91406L16.25 6.08398L16.3184 6.08398L16.3184 12.7246Q16.3184 13.1348 16.5234 13.3691Q16.7285 13.6035 17.0898 13.6035Z" fill="#ffffff"/>
 </g>
</svg>
