<?xml version="1.0" encoding="UTF-8"?>
<!--Generator: Apple Native CoreSVG 175-->
<!DOCTYPE svg
PUBLIC "-//W3C//DTD SVG 1.1//EN"
       "http://www.w3.org/Graphics/SVG/1.1/DTD/svg11.dtd">
<svg version="1.1" xmlns="http://www.w3.org/2000/svg" xmlns:xlink="http://www.w3.org/1999/xlink" width="22.7832" height="17.3145">
 <g>
  <rect height="17.3145" opacity="0" width="22.7832" x="0" y="0"/>
  <path d="M7.59766 0.0292969Q4.87305 0.0292969 3.20312 0.878906Q1.5332 1.72852 0.766602 3.40332Q0 5.07812 0 7.56836L0 14.6875Q0 15.9863 0.668945 16.6504Q1.33789 17.3145 2.62695 17.3145L20.1465 17.3145Q21.4453 17.3145 22.1143 16.6455Q22.7832 15.9766 22.7832 14.6875L22.7832 7.56836Q22.7832 5.07812 22.0215 3.40332Q21.2598 1.72852 19.585 0.878906Q17.9102 0.0292969 15.1855 0.0292969ZM5.57617 13.2031Q5.40039 13.2031 5.29785 13.0957Q5.19531 12.9883 5.19531 12.8027L5.19531 4.82422Q5.19531 4.63867 5.28809 4.52637Q5.38086 4.41406 5.54688 4.41406L8.26172 4.41406Q9.50195 4.41406 10.2637 5.12695Q11.0254 5.83984 11.0254 7.00195Q11.0254 7.94922 10.4834 8.62305Q9.94141 9.29688 9.02344 9.50195L10.8398 12.5488Q10.957 12.7441 10.957 12.8809Q10.957 13.0273 10.8643 13.1152Q10.7715 13.2031 10.625 13.2031Q10.4785 13.2031 10.3955 13.1445Q10.3125 13.0859 10.2246 12.9297L8.28125 9.58984L5.94727 9.58984L5.94727 12.8027Q5.94727 12.9785 5.84961 13.0908Q5.75195 13.2031 5.57617 13.2031ZM5.94727 8.94531L8.23242 8.94531Q9.15039 8.94531 9.71191 8.41309Q10.2734 7.88086 10.2734 7.01172Q10.2734 6.12305 9.71191 5.59082Q9.15039 5.05859 8.24219 5.05859L5.94727 5.05859ZM13.1348 13.1348Q12.9492 13.1348 12.8516 13.0322Q12.7539 12.9297 12.7539 12.7637Q12.7539 12.666 12.7832 12.5977Q12.8125 12.5293 12.8906 12.4414L16.2598 8.78906Q16.7969 8.20312 17.0703 7.70508Q17.3438 7.20703 17.3438 6.67969Q17.3438 5.9082 16.8213 5.4541Q16.2988 5 15.4297 5Q14.5605 5 14.0088 5.47363Q13.457 5.94727 13.3691 6.65039Q13.3301 6.79688 13.2422 6.875Q13.1543 6.95312 12.998 6.95312Q12.8418 6.95312 12.749 6.85547Q12.6562 6.75781 12.6562 6.60156Q12.6562 6.52344 12.6611 6.45508Q12.666 6.38672 12.6855 6.30859Q12.8223 5.43945 13.6084 4.8877Q14.3945 4.33594 15.4102 4.33594Q16.6211 4.33594 17.3438 4.9707Q18.0664 5.60547 18.0664 6.66016Q18.0664 7.31445 17.7344 7.9248Q17.4023 8.53516 16.6602 9.3457L13.8281 12.4023L13.8281 12.4609L18.1055 12.4609Q18.252 12.4609 18.3447 12.5537Q18.4375 12.6465 18.4375 12.793Q18.4375 12.9395 18.3447 13.0371Q18.252 13.1348 18.1055 13.1348Z" fill="rgba(0,0,0,0.85)"/>
 </g>
</svg>
