<?xml version="1.0" encoding="UTF-8"?>
<!--Generator: Apple Native CoreSVG 175.5-->
<!DOCTYPE svg
PUBLIC "-//W3C//DTD SVG 1.1//EN"
       "http://www.w3.org/Graphics/SVG/1.1/DTD/svg11.dtd">
<svg version="1.1" xmlns="http://www.w3.org/2000/svg" xmlns:xlink="http://www.w3.org/1999/xlink" width="23.6133" height="17.998">
 <g>
  <rect height="17.998" opacity="0" width="23.6133" x="0" y="0"/>
  <path d="M8.39844 0.0195312Q5.48828 0.0195312 3.63281 0.913086Q1.77734 1.80664 0.888672 3.61328Q0 5.41992 0 8.1543L0 14.9707Q0 16.4844 0.766602 17.2412Q1.5332 17.998 3.06641 17.998L20.5469 17.998Q22.0801 17.998 22.8467 17.2412Q23.6133 16.4844 23.6133 14.9707L23.6133 8.1543Q23.6133 5.41992 22.7295 3.61328Q21.8457 1.80664 19.9854 0.913086Q18.125 0.0195312 15.2246 0.0195312Z" fill="#ffffff"/>
  <path d="M5.66406 13.6621Q5.27344 13.6621 5.06836 13.4131Q4.86328 13.1641 4.86328 12.7539L4.86328 5.27344Q4.86328 4.86328 5.06348 4.61426Q5.26367 4.36523 5.6543 4.36523L8.54492 4.36523Q10.0879 4.36523 10.9912 5.16602Q11.8945 5.9668 11.8945 7.32422Q11.8945 8.26172 11.3623 8.99414Q10.8301 9.72656 9.94141 10.0293L11.4551 12.3828Q11.6406 12.6758 11.6406 12.9688Q11.6406 13.2715 11.4355 13.4668Q11.2305 13.6621 10.9082 13.6621Q10.6348 13.6621 10.459 13.54Q10.2832 13.418 10.0977 13.125L8.35938 10.2637L6.48438 10.2637L6.48438 12.7539Q6.48438 13.1836 6.27441 13.4229Q6.06445 13.6621 5.66406 13.6621ZM6.48438 9.07227L8.31055 9.07227Q9.22852 9.07227 9.76074 8.63281Q10.293 8.19336 10.293 7.36328Q10.293 6.51367 9.75586 6.05469Q9.21875 5.5957 8.35938 5.5957L6.48438 5.5957ZM13.916 13.5352Q13.584 13.5352 13.3984 13.3594Q13.2129 13.1836 13.2129 12.8809Q13.2129 12.7148 13.2764 12.5732Q13.3398 12.4316 13.4766 12.2852L16.6992 8.89648Q17.1289 8.42773 17.5146 7.94434Q17.9004 7.46094 17.9004 6.91406Q17.9004 6.28906 17.4658 5.9082Q17.0312 5.52734 16.3184 5.52734Q15.5762 5.52734 15.166 5.92773Q14.7559 6.32812 14.541 6.77734Q14.4043 7.00195 14.248 7.14844Q14.0918 7.29492 13.8184 7.29492Q13.5254 7.29492 13.3447 7.11914Q13.1641 6.94336 13.1641 6.65039Q13.1641 6.54297 13.1787 6.4502Q13.1934 6.35742 13.2227 6.24023Q13.4668 5.39062 14.3213 4.81445Q15.1758 4.23828 16.25 4.23828Q17.6465 4.23828 18.4961 4.94141Q19.3457 5.64453 19.3457 6.79688Q19.3457 7.63672 18.9258 8.30078Q18.5059 8.96484 17.8223 9.66797L15.4395 12.1387L15.4395 12.2168L19.0039 12.2168Q19.2969 12.2168 19.4873 12.3926Q19.6777 12.5684 19.6777 12.8809Q19.6777 13.1836 19.4873 13.3594Q19.2969 13.5352 19.0039 13.5352Z" fill="none"/>
 </g>
</svg>
