<?xml version="1.0" encoding="UTF-8"?>
<!--Generator: Apple Native CoreSVG 175-->
<!DOCTYPE svg
PUBLIC "-//W3C//DTD SVG 1.1//EN"
       "http://www.w3.org/Graphics/SVG/1.1/DTD/svg11.dtd">
<svg version="1.1" xmlns="http://www.w3.org/2000/svg" xmlns:xlink="http://www.w3.org/1999/xlink" width="22.6617" height="25.9232">
 <g>
  <rect height="25.9232" opacity="0" width="22.6617" x="0" y="0"/>
  <path d="M18.3316 10.3325Q17.7687 10.3423 17.3682 9.94516Q16.9676 9.54805 16.9676 8.9879Q16.9676 8.42775 17.3682 8.02095Q17.7687 7.61415 18.3316 7.62391Q18.8988 7.63368 19.2994 8.03071Q19.7 8.42775 19.7 8.9879Q19.7 9.54805 19.2994 9.93539Q18.8988 10.3227 18.3316 10.3325ZM18.3316 14.3036Q17.7687 14.3036 17.3682 13.9031Q16.9676 13.5025 16.9676 12.9324Q16.9676 12.3695 17.3682 11.9739Q17.7687 11.5782 18.3316 11.5782Q18.8988 11.5782 19.2994 11.9739Q19.7 12.3695 19.7 12.9324Q19.7 13.5025 19.2994 13.9031Q18.8988 14.3036 18.3316 14.3036ZM9.03091 8.72117Q8.75351 8.72117 8.5527 8.5106Q8.3519 8.30003 8.3519 8.00859Q8.3519 7.72706 8.5527 7.52488Q8.75351 7.3227 9.03091 7.3227Q9.31961 7.3227 9.51546 7.52488Q9.7113 7.72706 9.7113 8.00859Q9.7113 8.30003 9.51546 8.5106Q9.31961 8.72117 9.03091 8.72117ZM11.5044 9.36799Q11.2254 9.36799 11.033 9.16238Q10.8406 8.95677 10.8406 8.68211Q10.8406 8.38365 11.033 8.18147Q11.2254 7.97929 11.5044 7.97929Q11.7984 7.97929 11.9943 8.18147Q12.1902 8.38365 12.1902 8.68211Q12.1902 8.95677 11.9943 9.16238Q11.7984 9.36799 11.5044 9.36799ZM13.4032 11.0454Q13.1285 11.0454 12.9361 10.8446Q12.7437 10.6438 12.7437 10.3648Q12.7437 10.0708 12.9361 9.86375Q13.1285 9.65669 13.4032 9.65669Q13.6919 9.65669 13.8975 9.86375Q14.1031 10.0708 14.1031 10.3648Q14.1031 10.6438 13.8975 10.8446Q13.6919 11.0454 13.4032 11.0454ZM14.0027 13.4435Q13.7141 13.4435 13.5133 13.2427Q13.3125 13.0419 13.3125 12.7602Q13.3125 12.4716 13.5133 12.2708Q13.7141 12.07 14.0027 12.07Q14.2746 12.07 14.4754 12.2708Q14.6762 12.4716 14.6762 12.7602Q14.6762 13.0419 14.4754 13.2427Q14.2746 13.4435 14.0027 13.4435ZM13.4032 15.854Q13.1285 15.854 12.9361 15.647Q12.7437 15.4399 12.7437 15.1555Q12.7437 14.8668 12.9361 14.6661Q13.1285 14.4653 13.4032 14.4653Q13.6919 14.4653 13.8975 14.6661Q14.1031 14.8668 14.1031 15.1555Q14.1031 15.4399 13.8975 15.647Q13.6919 15.854 13.4032 15.854ZM11.5044 17.7446Q11.2254 17.7446 11.033 17.5424Q10.8406 17.3403 10.8406 17.0419Q10.8406 16.7673 11.033 16.5616Q11.2254 16.3559 11.5044 16.3559Q11.7984 16.3559 11.9943 16.5616Q12.1902 16.7673 12.1902 17.0419Q12.1902 17.3403 11.9943 17.5424Q11.7984 17.7446 11.5044 17.7446ZM9.03091 18.6118Q8.75351 18.6118 8.5527 18.4061Q8.3519 18.2004 8.3519 17.9259Q8.3519 17.6274 8.5527 17.4204Q8.75351 17.2133 9.03091 17.2133Q9.31961 17.2133 9.51546 17.4204Q9.7113 17.6274 9.7113 17.9259Q9.7113 18.2004 9.51546 18.4061Q9.31961 18.6118 9.03091 18.6118ZM6.55899 17.7446Q6.26053 17.7446 6.06461 17.5424Q5.86868 17.3403 5.86868 17.0419Q5.86868 16.7673 6.06461 16.5616Q6.26053 16.3559 6.55899 16.3559Q6.83365 16.3559 7.02461 16.5616Q7.21558 16.7673 7.21558 17.0419Q7.21558 17.3403 7.02461 17.5424Q6.83365 17.7446 6.55899 17.7446ZM4.65591 15.854Q4.37424 15.854 4.16367 15.647Q3.95309 15.4399 3.95309 15.1555Q3.95309 14.8668 4.16367 14.6661Q4.37424 14.4653 4.65591 14.4653Q4.93484 14.4653 5.12718 14.6661Q5.31952 14.8668 5.31952 15.1555Q5.31952 15.4399 5.12718 15.647Q4.93484 15.854 4.65591 15.854ZM4.06326 13.4435Q3.78159 13.4435 3.58437 13.2427Q3.38715 13.0419 3.38715 12.7602Q3.38715 12.4716 3.58437 12.2708Q3.78159 12.07 4.06326 12.07Q4.34494 12.07 4.54575 12.2708Q4.74655 12.4716 4.74655 12.7602Q4.74655 13.0419 4.54575 13.2427Q4.34494 13.4435 4.06326 13.4435ZM4.65591 11.0454Q4.37424 11.0454 4.16367 10.8446Q3.95309 10.6438 3.95309 10.3648Q3.95309 10.0708 4.16367 9.86375Q4.37424 9.65669 4.65591 9.65669Q4.93484 9.65669 5.12718 9.86375Q5.31952 10.0708 5.31952 10.3648Q5.31952 10.6438 5.12718 10.8446Q4.93484 11.0454 4.65591 11.0454ZM6.55899 9.36799Q6.26053 9.36799 6.06461 9.16238Q5.86868 8.95677 5.86868 8.68211Q5.86868 8.38365 6.06461 8.18147Q6.26053 7.97929 6.55899 7.97929Q6.83365 7.97929 7.02461 8.18147Q7.21558 8.38365 7.21558 8.68211Q7.21558 8.95677 7.02461 9.16238Q6.83365 9.36799 6.55899 9.36799ZM9.03091 11.2587Q8.75351 11.2587 8.5527 11.0579Q8.3519 10.8571 8.3519 10.5684Q8.3519 10.284 8.5527 10.077Q8.75351 9.87001 9.03091 9.87001Q9.31961 9.87001 9.51546 10.077Q9.7113 10.284 9.7113 10.5684Q9.7113 10.8571 9.51546 11.0579Q9.31961 11.2587 9.03091 11.2587ZM11.3649 12.2646Q11.0832 12.2646 10.8775 12.0589Q10.6718 11.8532 10.6718 11.5813Q10.6718 11.2996 10.8775 11.094Q11.0832 10.8884 11.3649 10.8884Q11.6464 10.8884 11.8423 11.094Q12.0383 11.2996 12.0383 11.5813Q12.0383 11.8532 11.8423 12.0589Q11.6464 12.2646 11.3649 12.2646ZM11.3649 15.0321Q11.0832 15.0321 10.8775 14.8278Q10.6718 14.6236 10.6718 14.3419Q10.6718 14.0505 10.8775 13.8483Q11.0832 13.6461 11.3649 13.6461Q11.6464 13.6461 11.8423 13.8483Q12.0383 14.0505 12.0383 14.3419Q12.0383 14.6236 11.8423 14.8278Q11.6464 15.0321 11.3649 15.0321ZM9.03091 16.0645Q8.75351 16.0645 8.5527 15.8575Q8.3519 15.6505 8.3519 15.3591Q8.3519 15.0774 8.5527 14.8766Q8.75351 14.6759 9.03091 14.6759Q9.31961 14.6759 9.51546 14.8766Q9.7113 15.0774 9.7113 15.3591Q9.7113 15.6505 9.51546 15.8575Q9.31961 16.0645 9.03091 16.0645ZM6.69846 15.0321Q6.40976 15.0321 6.21735 14.8278Q6.02493 14.6236 6.02493 14.3419Q6.02493 14.0505 6.21735 13.8483Q6.40976 13.6461 6.69846 13.6461Q6.97311 13.6461 7.1801 13.8483Q7.38708 14.0505 7.38708 14.3419Q7.38708 14.6236 7.1801 14.8278Q6.97311 15.0321 6.69846 15.0321ZM6.69846 12.2646Q6.40976 12.2646 6.21735 12.0589Q6.02493 11.8532 6.02493 11.5813Q6.02493 11.2996 6.21735 11.094Q6.40976 10.8884 6.69846 10.8884Q6.97311 10.8884 7.1801 11.094Q7.38708 11.2996 7.38708 11.5813Q7.38708 11.8532 7.1801 12.0589Q6.97311 12.2646 6.69846 12.2646ZM9.03091 13.654Q8.75351 13.654 8.5527 13.4532Q8.3519 13.2524 8.3519 12.9637Q8.3519 12.682 8.5527 12.4813Q8.75351 12.2806 9.03091 12.2806Q9.31961 12.2806 9.51546 12.4813Q9.7113 12.682 9.7113 12.9637Q9.7113 13.2524 9.51546 13.4532Q9.31961 13.654 9.03091 13.654ZM18.6945 5.06227L18.92 4.36692L5.54184 0.0200004Q5.39368-0.0285226 5.25894 0.040676Q5.12421 0.109875 5.07584 0.260631Q5.03433 0.394604 5.10345 0.529339Q5.17258 0.664074 5.3093 0.715343ZM2.63046 21.5993L20.0243 21.5993Q21.3281 21.5993 21.9949 20.9268Q22.6617 20.2544 22.6617 18.9754L22.6617 6.93635Q22.6617 5.66453 21.9949 4.98719Q21.3281 4.30986 20.0243 4.30986L2.63046 4.30986Q1.33636 4.30986 0.668182 4.9788Q0 5.64775 0 6.93635L0 18.9754Q0 20.2684 0.668182 20.9338Q1.33636 21.5993 2.63046 21.5993Z" fill="rgba(0,0,0,0.85)"/>
 </g>
</svg>
