<?xml version="1.0" encoding="UTF-8"?>
<!--Generator: Apple Native CoreSVG 175.5-->
<!DOCTYPE svg
PUBLIC "-//W3C//DTD SVG 1.1//EN"
       "http://www.w3.org/Graphics/SVG/1.1/DTD/svg11.dtd">
<svg version="1.1" xmlns="http://www.w3.org/2000/svg" xmlns:xlink="http://www.w3.org/1999/xlink" width="19.9219" height="19.9316">
 <g>
  <rect height="19.9316" opacity="0" width="19.9219" x="0" y="0"/>
  <path d="M9.96094 19.9219Q12.002 19.9219 13.8037 19.1406Q15.6055 18.3594 16.9824 16.9824Q18.3594 15.6055 19.1406 13.8037Q19.9219 12.002 19.9219 9.96094Q19.9219 7.91992 19.1406 6.11816Q18.3594 4.31641 16.9824 2.93945Q15.6055 1.5625 13.7988 0.78125Q11.9922 0 9.95117 0Q7.91016 0 6.1084 0.78125Q4.30664 1.5625 2.93457 2.93945Q1.5625 4.31641 0.78125 6.11816Q0 7.91992 0 9.96094Q0 12.002 0.78125 13.8037Q1.5625 15.6055 2.93945 16.9824Q4.31641 18.3594 6.11816 19.1406Q7.91992 19.9219 9.96094 19.9219Z" fill="#ffffff"/>
  <path d="M3.52539 9.96094Q3.52539 9.15039 3.9209 8.48145Q4.31641 7.8125 4.98047 7.41699Q5.64453 7.02148 6.45508 7.02148Q7.26562 7.02148 7.93457 7.41699Q8.60352 7.8125 8.99902 8.48145Q9.39453 9.15039 9.39453 9.96094Q9.39453 10.4688 9.22363 10.9375Q9.05273 11.4062 8.73047 11.7773L11.1914 11.7773Q10.8691 11.4062 10.7031 10.9375Q10.5371 10.4688 10.5371 9.96094Q10.5371 9.15039 10.9326 8.48145Q11.3281 7.8125 11.9922 7.41699Q12.6562 7.02148 13.4668 7.02148Q14.2773 7.02148 14.9463 7.41699Q15.6152 7.8125 16.0059 8.48145Q16.3965 9.15039 16.3965 9.96094Q16.3965 10.7715 16.0059 11.4404Q15.6152 12.1094 14.9463 12.5049Q14.2773 12.9004 13.4668 12.9004L6.45508 12.9004Q5.64453 12.9004 4.98047 12.5049Q4.31641 12.1094 3.9209 11.4404Q3.52539 10.7715 3.52539 9.96094ZM4.64844 9.95117Q4.64844 10.4492 4.89258 10.8643Q5.13672 11.2793 5.54688 11.5283Q5.95703 11.7773 6.46484 11.7773Q6.96289 11.7773 7.37305 11.5332Q7.7832 11.2891 8.02734 10.874Q8.27148 10.459 8.27148 9.95117Q8.27148 9.45312 8.02734 9.04297Q7.7832 8.63281 7.37305 8.38867Q6.96289 8.14453 6.46484 8.14453Q5.9668 8.14453 5.55176 8.38867Q5.13672 8.63281 4.89258 9.04297Q4.64844 9.45312 4.64844 9.95117ZM11.6602 9.95117Q11.6602 10.459 11.8994 10.874Q12.1387 11.2891 12.5488 11.5332Q12.959 11.7773 13.457 11.7773Q13.9648 11.7773 14.375 11.5283Q14.7852 11.2793 15.0342 10.8643Q15.2832 10.4492 15.2832 9.95117Q15.2832 9.45312 15.0342 9.04297Q14.7852 8.63281 14.3701 8.38867Q13.9551 8.14453 13.457 8.14453Q12.959 8.14453 12.5488 8.38867Q12.1387 8.63281 11.8994 9.04297Q11.6602 9.45312 11.6602 9.95117Z" fill="none"/>
 </g>
</svg>
