<?xml version="1.0" encoding="UTF-8"?>
<!--Generator: Apple Native CoreSVG 175.5-->
<!DOCTYPE svg
PUBLIC "-//W3C//DTD SVG 1.1//EN"
       "http://www.w3.org/Graphics/SVG/1.1/DTD/svg11.dtd">
<svg version="1.1" xmlns="http://www.w3.org/2000/svg" xmlns:xlink="http://www.w3.org/1999/xlink" width="23.0273" height="17.998">
 <g>
  <rect height="17.998" opacity="0" width="23.0273" x="0" y="0"/>
  <path d="M0 5.16602L1.57227 5.16602L1.57227 3.125Q1.57227 2.36328 1.96289 1.97754Q2.35352 1.5918 3.08594 1.5918L5.10742 1.5918L5.10742 0.0195312L3.06641 0.0195312Q1.5332 0.0195312 0.766602 0.776367Q0 1.5332 0 3.04688ZM0 11.5137L1.57227 11.5137L1.57227 6.50391L0 6.50391ZM3.06641 17.998L5.10742 17.998L5.10742 16.4258L3.08594 16.4258Q2.35352 16.4258 1.96289 16.04Q1.57227 15.6543 1.57227 14.8926L1.57227 12.8516L0 12.8516L0 14.9707Q0 16.4844 0.766602 17.2412Q1.5332 17.998 3.06641 17.998ZM6.44531 17.998L10.8496 17.998L10.8496 16.4258L6.44531 16.4258ZM12.1777 17.998L16.582 17.998L16.582 16.4258L12.1777 16.4258ZM19.9609 17.998Q21.4941 17.998 22.2607 17.2412Q23.0273 16.4844 23.0273 14.9707L23.0273 12.8516L21.4551 12.8516L21.4551 14.8926Q21.4551 15.6543 21.0645 16.04Q20.6738 16.4258 19.9414 16.4258L17.9199 16.4258L17.9199 17.998ZM23.0273 5.16602L23.0273 3.04688Q23.0273 1.5332 22.2607 0.776367Q21.4941 0.0195312 19.9609 0.0195312L17.9199 0.0195312L17.9199 1.5918L19.9414 1.5918Q20.6738 1.5918 21.0645 1.97754Q21.4551 2.36328 21.4551 3.125L21.4551 5.16602ZM23.0273 11.5137L23.0273 6.50391L21.4551 6.50391L21.4551 11.5137ZM6.44531 1.5918L10.8496 1.5918L10.8496 0.0195312L6.44531 0.0195312ZM12.1777 1.5918L16.582 1.5918L16.582 0.0195312L12.1777 0.0195312Z" fill="#ffffff"/>
 </g>
</svg>
