<?xml version="1.0" encoding="UTF-8"?>
<!--Generator: Apple Native CoreSVG 175-->
<!DOCTYPE svg
PUBLIC "-//W3C//DTD SVG 1.1//EN"
       "http://www.w3.org/Graphics/SVG/1.1/DTD/svg11.dtd">
<svg version="1.1" xmlns="http://www.w3.org/2000/svg" xmlns:xlink="http://www.w3.org/1999/xlink" width="17.7875" height="21.7871">
 <g>
  <rect height="21.7871" opacity="0" width="17.7875" x="0" y="0"/>
  <path d="M2.63046 16.5469L15.15 16.5469Q16.4539 16.5469 17.1207 15.8696Q17.7875 15.1923 17.7875 13.9203L17.7875 7.8949Q17.7875 6.62033 17.1207 5.94437Q16.4539 5.2684 15.15 5.2684L2.63046 5.2684Q1.33636 5.2684 0.668182 5.93735Q0 6.60629 0 7.8949L0 13.9203Q0 15.2161 0.668182 15.8815Q1.33636 16.5469 2.63046 16.5469ZM2.65701 15.8183Q1.7067 15.8183 1.21765 15.3293Q0.728607 14.8402 0.728607 13.8844L0.728607 7.93091Q0.728607 6.9722 1.21765 6.48453Q1.7067 5.99686 2.65701 5.99686L15.1305 5.99686Q16.05 5.99686 16.5545 6.48453Q17.059 6.9722 17.059 7.93091L17.059 13.8844Q17.059 14.8402 16.5545 15.3293Q16.05 15.8183 15.1305 15.8183ZM7.17819 0.0280762Q6.67496 0.0280762 6.53282 0.38765Q6.39069 0.747223 6.6777 1.16669L8.31253 3.582Q8.53561 3.89847 8.91251 3.90335Q9.2894 3.90823 9.51248 3.582L11.1391 1.16669Q11.3997 0.766754 11.2589 0.397415Q11.118 0.0280762 10.6317 0.0280762ZM7.17819 21.7871L10.6317 21.7871Q11.118 21.7871 11.2589 21.4178Q11.3997 21.0484 11.1391 20.6485L9.51248 18.2402Q9.2894 17.9114 8.91251 17.9163Q8.53561 17.9211 8.31253 18.2402L6.6777 20.6485Q6.39069 21.068 6.53282 21.4275Q6.67496 21.7871 7.17819 21.7871Z" fill="#ffffff"/>
 </g>
</svg>
