<?xml version="1.0" encoding="UTF-8"?>
<!--Generator: Apple Native CoreSVG 175.5-->
<!DOCTYPE svg
PUBLIC "-//W3C//DTD SVG 1.1//EN"
       "http://www.w3.org/Graphics/SVG/1.1/DTD/svg11.dtd">
<svg version="1.1" xmlns="http://www.w3.org/2000/svg" xmlns:xlink="http://www.w3.org/1999/xlink" width="20.6557" height="24.6698">
 <g>
  <rect height="24.6698" opacity="0" width="20.6557" x="0" y="0"/>
  <path d="M20.6557 8.07222Q20.6557 6.53902 19.8989 5.77242Q19.142 5.00582 17.6284 5.00582L8.41939 5.00582Q6.90572 5.00582 6.14888 5.77242Q5.39204 6.53902 5.39204 8.07222L5.39204 21.4121Q5.39204 22.9453 6.15376 23.7119Q6.91548 24.4785 8.41939 24.4785L17.6284 24.4785Q19.142 24.4785 19.8989 23.7119Q20.6557 22.9453 20.6557 21.4121Z" fill="#ffffff"/>
  <path d="M8.41939 3.67769L15.2944 3.67769L15.1088 2.57417Q14.8452 1.05074 13.9663 0.435503Q13.0874-0.179731 11.5932 0.0741749L2.53072 1.66597Q1.03657 1.92964 0.426223 2.81832Q-0.184128 3.70699 0.0795435 5.22066L2.37447 18.248Q2.54048 19.205 2.96529 19.8007Q3.39009 20.3964 4.06392 20.6308L4.06392 8.07222Q4.06392 6.6855 4.57661 5.69917Q5.08931 4.71285 6.06587 4.19527Q7.04243 3.67769 8.41939 3.67769Z" fill="#ffffff"/>
 </g>
</svg>
