<?xml version="1.0" encoding="UTF-8"?>
<!--Generator: Apple Native CoreSVG 175.5-->
<!DOCTYPE svg
PUBLIC "-//W3C//DTD SVG 1.1//EN"
       "http://www.w3.org/Graphics/SVG/1.1/DTD/svg11.dtd">
<svg version="1.1" xmlns="http://www.w3.org/2000/svg" xmlns:xlink="http://www.w3.org/1999/xlink" width="21.5234" height="21.4551">
 <g>
  <rect height="21.4551" opacity="0" width="21.5234" x="0" y="0"/>
  <path d="M6.00586 21.4551Q6.36719 21.4551 6.66992 21.2598Q6.97266 21.0645 7.41211 20.6738L10.7812 17.6758L17.0508 17.6758Q18.5059 17.6758 19.502 17.1533Q20.498 16.6309 21.0107 15.6348Q21.5234 14.6387 21.5234 13.2031L21.5234 5.72266Q21.5234 4.28711 21.0107 3.29102Q20.498 2.29492 19.502 1.77246Q18.5059 1.25 17.0508 1.25L4.47266 1.25Q3.01758 1.25 2.02148 1.77246Q1.02539 2.29492 0.512695 3.29102Q0 4.28711 0 5.72266L0 13.2031Q0 14.6387 0.512695 15.6348Q1.02539 16.6309 2.02148 17.1533Q3.01758 17.6758 4.47266 17.6758L4.94141 17.6758L4.94141 20.2148Q4.94141 20.7812 5.21973 21.1182Q5.49805 21.4551 6.00586 21.4551ZM6.40625 19.668L6.40625 16.8359Q6.40625 16.4355 6.24023 16.2695Q6.07422 16.1035 5.67383 16.1035L4.47266 16.1035Q2.98828 16.1035 2.28027 15.3662Q1.57227 14.6289 1.57227 13.1934L1.57227 5.72266Q1.57227 4.29688 2.28027 3.55957Q2.98828 2.82227 4.47266 2.82227L17.0508 2.82227Q18.5254 2.82227 19.2383 3.55957Q19.9512 4.29688 19.9512 5.72266L19.9512 13.1934Q19.9512 14.6289 19.2383 15.3662Q18.5254 16.1035 17.0508 16.1035L10.7227 16.1035Q10.3125 16.1035 10.0586 16.1914Q9.80469 16.2793 9.53125 16.5625Z" fill="#ffffff"/>
  <path d="M5.13672 9.21875L9.42383 9.21875Q10.4883 9.21875 10.4883 8.16406L10.4883 6.2207Q10.4883 5.18555 9.42383 5.18555L5.13672 5.18555Q4.07227 5.18555 4.07227 6.2207L4.07227 8.16406Q4.07227 9.21875 5.13672 9.21875ZM6.32812 13.7012L10.0098 13.7012Q11.0645 13.7012 11.0645 12.6562L11.0645 11.3379Q11.0645 10.2832 10.0098 10.2832L6.32812 10.2832Q5.26367 10.2832 5.26367 11.3379L5.26367 12.6562Q5.26367 13.7012 6.32812 13.7012ZM13.2129 13.125L16.2695 13.125Q17.3242 13.125 17.3242 12.0703L17.3242 6.89453Q17.3242 5.83984 16.2695 5.83984L13.2129 5.83984Q12.1582 5.83984 12.1582 6.89453L12.1582 12.0703Q12.1582 13.125 13.2129 13.125Z" fill="#ffffff"/>
 </g>
</svg>
