<?xml version="1.0" encoding="UTF-8"?>
<!--Generator: Apple Native CoreSVG 175-->
<!DOCTYPE svg
PUBLIC "-//W3C//DTD SVG 1.1//EN"
       "http://www.w3.org/Graphics/SVG/1.1/DTD/svg11.dtd">
<svg version="1.1" xmlns="http://www.w3.org/2000/svg" xmlns:xlink="http://www.w3.org/1999/xlink" width="23.4813" height="18.566">
 <g>
  <rect height="18.566" opacity="0" width="23.4813" x="0" y="0"/>
  <path d="M6.99768 18.566L20.8438 18.566Q22.1422 18.566 22.8117 17.89Q23.4813 17.2141 23.4813 15.9395L23.4813 6.5477Q23.4813 5.27573 22.8117 4.59839Q22.1422 3.92105 20.8438 3.92105L6.99768 3.92105Q5.69656 3.92105 5.02838 4.59Q4.3602 5.25894 4.3602 6.5477L4.3602 15.9395Q4.3602 17.2281 5.02838 17.897Q5.69656 18.566 6.99768 18.566ZM6.99768 3.05695L18.7044 3.05695L18.7044 2.64496Q18.7044 1.36597 18.0348 0.692139Q17.3653 0.0183105 16.0667 0.0183105L2.63046 0.0183105Q1.33636 0.0183105 0.668182 0.683746Q0 1.34918 0 2.64496L0 12.0297Q0 13.3253 0.668182 13.9908Q1.33636 14.6562 2.63046 14.6562L3.48633 14.6562L3.48633 6.5477Q3.48633 5.44495 3.90335 4.66522Q4.32037 3.8855 5.1049 3.47122Q5.88943 3.05695 6.99768 3.05695Z" fill="#ffffff"/>
 </g>
</svg>
