<?xml version="1.0" encoding="UTF-8"?>
<!--Generator: Apple Native CoreSVG 175.5-->
<!DOCTYPE svg
PUBLIC "-//W3C//DTD SVG 1.1//EN"
       "http://www.w3.org/Graphics/SVG/1.1/DTD/svg11.dtd">
<svg version="1.1" xmlns="http://www.w3.org/2000/svg" xmlns:xlink="http://www.w3.org/1999/xlink" width="17.9785" height="17.998">
 <g>
  <rect height="17.998" opacity="0" width="17.9785" x="0" y="0"/>
  <path d="M3.06641 17.998L14.9121 17.998Q16.4453 17.998 17.2119 17.2412Q17.9785 16.4844 17.9785 14.9707L17.9785 3.04688Q17.9785 1.5332 17.2119 0.776367Q16.4453 0.0195312 14.9121 0.0195312L3.06641 0.0195312Q1.5332 0.0195312 0.766602 0.776367Q0 1.5332 0 3.04688L0 14.9707Q0 16.4844 0.766602 17.2412Q1.5332 17.998 3.06641 17.998Z" fill="#ffffff"/>
  <path d="M6.72852 13.6914Q6.03516 13.6914 5.68848 13.3496Q5.3418 13.0078 5.3418 12.3145L5.3418 7.59766Q5.3418 6.92383 5.68848 6.58203Q6.03516 6.24023 6.72852 6.24023L13.457 6.24023Q14.1504 6.24023 14.4971 6.58203Q14.8438 6.92383 14.8438 7.59766L14.8438 12.3145Q14.8438 13.0078 14.4971 13.3496Q14.1504 13.6914 13.457 13.6914ZM4.74609 7.53906L4.74609 11.5527L4.51172 11.5527Q3.81836 11.5527 3.47656 11.2158Q3.13477 10.8789 3.13477 10.1953L3.13477 5.51758Q3.13477 4.82422 3.47656 4.4873Q3.81836 4.15039 4.51172 4.15039L11.25 4.15039Q11.9434 4.15039 12.2852 4.4873Q12.627 4.82422 12.627 5.51758L12.627 5.63477L6.66992 5.63477Q5.71289 5.63477 5.22949 6.11816Q4.74609 6.60156 4.74609 7.53906Z" fill="none"/>
 </g>
</svg>
