<?xml version="1.0" encoding="UTF-8"?>
<!--Generator: Apple Native CoreSVG 175-->
<!DOCTYPE svg
PUBLIC "-//W3C//DTD SVG 1.1//EN"
       "http://www.w3.org/Graphics/SVG/1.1/DTD/svg11.dtd">
<svg version="1.1" xmlns="http://www.w3.org/2000/svg" xmlns:xlink="http://www.w3.org/1999/xlink" width="15.779" height="20.6747">
 <g>
  <rect height="20.6747" opacity="0" width="15.779" x="0" y="0"/>
  <path d="M9.09882 19.075L12.977 19.075Q13.5793 19.075 13.8814 18.7729Q14.1835 18.4708 14.1835 17.8711L14.1835 11.5364Q14.1835 10.9367 13.8814 10.6346Q13.5793 10.3325 12.977 10.3325L9.09882 10.3325Q8.49655 10.3325 8.19298 10.6346Q7.8894 10.9367 7.8894 11.5364L7.8894 17.8711Q7.8894 18.4708 8.19298 18.7729Q8.49655 19.075 9.09882 19.075ZM0 18.0399Q0 19.3411 0.665436 20.0079Q1.33087 20.6747 2.62665 20.6747L13.1523 20.6747Q14.4481 20.6747 15.1135 20.0079Q15.779 19.3411 15.779 18.0399L15.779 2.66296Q15.779 1.36459 15.1135 0.695038Q14.4481 0.0254822 13.1523 0.0254822L2.62665 0.0254822Q1.33087 0.0254822 0.665436 0.695038Q0 1.36459 0 2.66296ZM0.728607 18.0176L0.728607 2.68524Q0.728607 1.73492 1.21628 1.24443Q1.70395 0.753937 2.66251 0.753937L13.1165 0.753937Q14.075 0.753937 14.5627 1.24443Q15.0504 1.73492 15.0504 2.68524L15.0504 18.0176Q15.0504 18.968 14.5627 19.4571Q14.075 19.9461 13.1165 19.9461L2.66251 19.9461Q1.70395 19.9461 1.21628 19.4571Q0.728607 18.968 0.728607 18.0176Z" fill="#ffffff"/>
 </g>
</svg>
