<?xml version="1.0" encoding="UTF-8"?>
<!--Generator: Apple Native CoreSVG 175-->
<!DOCTYPE svg
PUBLIC "-//W3C//DTD SVG 1.1//EN"
       "http://www.w3.org/Graphics/SVG/1.1/DTD/svg11.dtd">
<svg version="1.1" xmlns="http://www.w3.org/2000/svg" xmlns:xlink="http://www.w3.org/1999/xlink" width="20.0746" height="17.323">
 <g>
  <rect height="17.323" opacity="0" width="20.0746" x="0" y="0"/>
  <path d="M1.3942 7.80228L4.12155 7.80228Q4.81018 7.80228 5.1664 7.46574Q5.52261 7.12921 5.52261 6.3945L5.52261 1.4386Q5.52261 0.703888 5.1664 0.368729Q4.81018 0.0335693 4.12155 0.0335693L1.3942 0.0335693Q0.712585 0.0335693 0.356293 0.368729Q0 0.703888 0 1.4386L0 6.3945Q0 7.12921 0.356293 7.46574Q0.712585 7.80228 1.3942 7.80228ZM8.67859 7.80228L11.4059 7.80228Q12.0876 7.80228 12.4438 7.46574Q12.8 7.12921 12.8 6.3945L12.8 1.4386Q12.8 0.703888 12.4438 0.368729Q12.0876 0.0335693 11.4059 0.0335693L8.67859 0.0335693Q7.99423 0.0335693 7.6358 0.368729Q7.27737 0.703888 7.27737 1.4386L7.27737 6.3945Q7.27737 7.12921 7.6358 7.46574Q7.99423 7.80228 8.67859 7.80228ZM15.956 7.80228L18.6804 7.80228Q19.3649 7.80228 19.7198 7.46574Q20.0746 7.12921 20.0746 6.3945L20.0746 1.4386Q20.0746 0.703888 19.7198 0.368729Q19.3649 0.0335693 18.6804 0.0335693L15.956 0.0335693Q15.2715 0.0335693 14.9152 0.368729Q14.559 0.703888 14.559 1.4386L14.559 6.3945Q14.559 7.12921 14.9152 7.46574Q15.2715 7.80228 15.956 7.80228ZM1.3942 17.323L4.12155 17.323Q4.81018 17.323 5.1664 16.9878Q5.52261 16.6527 5.52261 15.918L5.52261 10.9593Q5.52261 10.2274 5.1664 9.89082Q4.81018 9.55429 4.12155 9.55429L1.3942 9.55429Q0.712585 9.55429 0.356293 9.89082Q0 10.2274 0 10.9593L0 15.918Q0 16.6527 0.356293 16.9878Q0.712585 17.323 1.3942 17.323ZM8.67859 17.323L11.4059 17.323Q12.0876 17.323 12.4438 16.9878Q12.8 16.6527 12.8 15.918L12.8 10.9593Q12.8 10.2274 12.4438 9.89082Q12.0876 9.55429 11.4059 9.55429L8.67859 9.55429Q7.99423 9.55429 7.6358 9.89082Q7.27737 10.2274 7.27737 10.9593L7.27737 15.918Q7.27737 16.6527 7.6358 16.9878Q7.99423 17.323 8.67859 17.323ZM15.956 17.323L18.6804 17.323Q19.3649 17.323 19.7198 16.9878Q20.0746 16.6527 20.0746 15.918L20.0746 10.9593Q20.0746 10.2274 19.7198 9.89082Q19.3649 9.55429 18.6804 9.55429L15.956 9.55429Q15.2715 9.55429 14.9152 9.89082Q14.559 10.2274 14.559 10.9593L14.559 15.918Q14.559 16.6527 14.9152 16.9878Q15.2715 17.323 15.956 17.323Z" fill="rgba(0,0,0,0.85)"/>
 </g>
</svg>
