<?xml version="1.0" encoding="UTF-8"?>
<!--Generator: Apple Native CoreSVG 175.5-->
<!DOCTYPE svg
PUBLIC "-//W3C//DTD SVG 1.1//EN"
       "http://www.w3.org/Graphics/SVG/1.1/DTD/svg11.dtd">
<svg version="1.1" xmlns="http://www.w3.org/2000/svg" xmlns:xlink="http://www.w3.org/1999/xlink" width="23.0273" height="21.1621">
 <g>
  <rect height="21.1621" opacity="0" width="23.0273" x="0" y="0"/>
  <path d="M19.9609 1.5918L5.23438 1.5918L22.3145 18.6621Q23.0273 17.9492 23.0273 16.5527L23.0273 4.61914Q23.0273 3.11523 22.2656 2.35352Q21.5039 1.5918 19.9609 1.5918ZM3.06641 19.5703L17.8711 19.5703L0.751953 2.48047Q0 3.18359 0 4.61914L0 16.5527Q0 18.0566 0.766602 18.8135Q1.5332 19.5703 3.06641 19.5703Z" fill="#ffffff"/>
  <path d="M20.8398 20.9375Q21.0645 21.1621 21.377 21.1621Q21.6895 21.1621 21.9043 20.9375Q22.1289 20.7129 22.1289 20.4053Q22.1289 20.0977 21.9043 19.873L2.26562 0.244141Q2.04102 0.0195312 1.72852 0.0195312Q1.41602 0.0195312 1.19141 0.244141Q0.976562 0.449219 0.976562 0.771484Q0.976562 1.09375 1.19141 1.30859Z" fill="#ffffff"/>
 </g>
</svg>
