<?xml version="1.0" encoding="UTF-8"?>
<!--Generator: Apple Native CoreSVG 175.5-->
<!DOCTYPE svg
PUBLIC "-//W3C//DTD SVG 1.1//EN"
       "http://www.w3.org/Graphics/SVG/1.1/DTD/svg11.dtd">
<svg version="1.1" xmlns="http://www.w3.org/2000/svg" xmlns:xlink="http://www.w3.org/1999/xlink" width="27.3535" height="17.9785">
 <g>
  <rect height="17.9785" opacity="0" width="27.3535" x="0" y="0"/>
  <path d="M3.76953 15.0781L14.7754 15.0781Q15.1172 14.3359 15.7324 13.7012Q16.3477 13.0664 17.1631 12.583Q17.9785 12.0996 18.9258 11.8164Q18.1934 11.2402 17.7539 10.3467Q17.3145 9.45312 17.3145 8.39844Q17.3047 7.45117 17.6709 6.62109Q18.0371 5.79102 18.6768 5.19043Q19.3164 4.58984 20.127 4.31641L20.127 3.78906Q20.127 2.91016 19.2676 2.91016L3.76953 2.91016Q2.91016 2.91016 2.91016 3.78906L2.91016 14.1992Q2.91016 15.0781 3.76953 15.0781Z" fill="#ffffff"/>
  <path d="M3.06641 17.9785L14.4043 17.9785Q14.248 17.6367 14.2334 17.2314Q14.2188 16.8262 14.2969 16.4062L3.0957 16.4062Q2.36328 16.4062 1.96777 16.0205Q1.57227 15.6348 1.57227 14.873L1.57227 3.11523Q1.57227 2.35352 1.96777 1.96289Q2.36328 1.57227 3.0957 1.57227L19.9414 1.57227Q20.6641 1.57227 21.0645 1.96289Q21.4648 2.35352 21.4648 3.11523L21.4648 4.05273Q21.875 4.0625 22.2559 4.12598Q22.6367 4.18945 23.0371 4.36523L23.0371 3.02734Q23.0371 1.52344 22.2705 0.761719Q21.5039 0 19.9707 0L3.06641 0Q1.54297 0 0.771484 0.756836Q0 1.51367 0 3.02734L0 14.9609Q0 16.4648 0.771484 17.2217Q1.54297 17.9785 3.06641 17.9785ZM16.7383 17.9785L26.1621 17.9785Q26.7188 17.9785 27.0361 17.7344Q27.3535 17.4902 27.3535 17.0508Q27.3535 16.3672 26.9434 15.6201Q26.5332 14.873 25.7666 14.2139Q25 13.5547 23.9062 13.1445Q22.8125 12.7344 21.4551 12.7344Q20.0879 12.7344 18.9941 13.1445Q17.9004 13.5547 17.1289 14.2139Q16.3574 14.873 15.9521 15.6201Q15.5469 16.3672 15.5469 17.0508Q15.5469 17.4902 15.8643 17.7344Q16.1816 17.9785 16.7383 17.9785ZM21.4551 11.4844Q22.207 11.4844 22.8418 11.0742Q23.4766 10.6641 23.8672 9.96094Q24.2578 9.25781 24.2578 8.37891Q24.2578 7.51953 23.8672 6.83594Q23.4766 6.15234 22.8369 5.76172Q22.1973 5.37109 21.4551 5.37109Q20.7031 5.37109 20.0635 5.7666Q19.4238 6.16211 19.0332 6.85059Q18.6426 7.53906 18.6426 8.39844Q18.6426 9.26758 19.0332 9.96582Q19.4238 10.6641 20.0635 11.0742Q20.7031 11.4844 21.4551 11.4844Z" fill="#ffffff"/>
 </g>
</svg>
