<?xml version="1.0" encoding="UTF-8"?>
<!--Generator: Apple Native CoreSVG 175-->
<!DOCTYPE svg
PUBLIC "-//W3C//DTD SVG 1.1//EN"
       "http://www.w3.org/Graphics/SVG/1.1/DTD/svg11.dtd">
<svg version="1.1" xmlns="http://www.w3.org/2000/svg" xmlns:xlink="http://www.w3.org/1999/xlink" width="20.7715" height="20.3223">
 <g>
  <rect height="20.3223" opacity="0" width="20.7715" x="0" y="0"/>
  <path d="M5.06836 20.3223Q5.25391 20.3223 5.39551 20.2295Q5.53711 20.1367 5.71289 19.9902L9.22852 16.9629L17.0508 16.9629Q18.2031 16.9629 19.0381 16.5088Q19.873 16.0547 20.3223 15.2197Q20.7715 14.3848 20.7715 13.252L20.7715 4.90234Q20.7715 3.75977 20.3223 2.9248Q19.873 2.08984 19.0381 1.63574Q18.2031 1.18164 17.0508 1.18164L3.7207 1.18164Q2.56836 1.18164 1.7334 1.63574Q0.898438 2.08984 0.449219 2.91992Q0 3.75 0 4.90234L0 13.252Q0 14.3945 0.449219 15.2246Q0.898438 16.0547 1.7334 16.5088Q2.56836 16.9629 3.7207 16.9629L4.55078 16.9629L4.55078 19.7168Q4.55078 20 4.69727 20.1611Q4.84375 20.3223 5.06836 20.3223ZM5.23438 19.5117L5.23438 16.582Q5.23438 16.4062 5.15625 16.3232Q5.07812 16.2402 4.88281 16.2402L3.73047 16.2402Q2.33398 16.2402 1.5332 15.4297Q0.732422 14.6191 0.732422 13.2227L0.732422 4.92188Q0.732422 3.52539 1.5332 2.71973Q2.33398 1.91406 3.73047 1.91406L17.0312 1.91406Q18.4082 1.91406 19.2236 2.71973Q20.0391 3.52539 20.0391 4.92188L20.0391 13.2227Q20.0391 14.6191 19.2236 15.4297Q18.4082 16.2402 17.0312 16.2402L9.30664 16.2402Q9.07227 16.2402 8.9209 16.2988Q8.76953 16.3574 8.58398 16.5332ZM4.04297 8.67188L8.96484 8.67188Q9.7168 8.67188 9.7168 7.91992L9.7168 5.44922Q9.7168 4.7168 8.96484 4.7168L4.04297 4.7168Q3.31055 4.7168 3.31055 5.44922L3.31055 7.91992Q3.31055 8.67188 4.04297 8.67188ZM5.3125 13.4375L9.59961 13.4375Q10.332 13.4375 10.332 12.6953L10.332 10.8496Q10.332 10.1172 9.59961 10.1172L5.3125 10.1172Q4.56055 10.1172 4.56055 10.8496L4.56055 12.6953Q4.56055 13.4375 5.3125 13.4375ZM12.6172 12.7637L16.2207 12.7637Q16.9531 12.7637 16.9531 12.0312L16.9531 6.19141Q16.9531 5.44922 16.2207 5.44922L12.6172 5.44922Q11.8848 5.44922 11.8848 6.19141L11.8848 12.0312Q11.8848 12.7637 12.6172 12.7637Z" fill="#ffffff"/>
 </g>
</svg>
