<?xml version="1.0" encoding="UTF-8"?>
<!--Generator: Apple Native CoreSVG 175-->
<!DOCTYPE svg
PUBLIC "-//W3C//DTD SVG 1.1//EN"
       "http://www.w3.org/Graphics/SVG/1.1/DTD/svg11.dtd">
<svg version="1.1" xmlns="http://www.w3.org/2000/svg" xmlns:xlink="http://www.w3.org/1999/xlink" width="22.6617" height="17.323">
 <g>
  <rect height="17.323" opacity="0" width="22.6617" x="0" y="0"/>
  <path d="M0 5.11673L0.728607 5.11673L0.728607 2.69608Q0.728607 1.73752 1.21765 1.24985Q1.7067 0.762177 2.65701 0.762177L5.07233 0.762177L5.07233 0.0335693L2.63046 0.0335693Q1.33636 0.0335693 0.668182 0.699005Q0 1.36444 0 2.66006ZM0 11.373L0.728607 11.373L0.728607 5.98358L0 5.98358ZM2.63046 17.323L5.07233 17.323L5.07233 16.5945L2.65701 16.5945Q1.7067 16.5945 1.21765 16.1068Q0.728607 15.619 0.728607 14.6605L0.728607 12.2398L0 12.2398L0 14.6965Q0 15.9921 0.668182 16.6576Q1.33636 17.323 2.63046 17.323ZM5.94604 17.323L10.8917 17.323L10.8917 16.5945L5.94604 16.5945ZM11.7628 17.323L16.7155 17.323L16.7155 16.5945L11.7628 16.5945ZM20.0243 17.323Q21.3254 17.323 21.9936 16.6576Q22.6617 15.9921 22.6617 14.6965L22.6617 12.2398L21.9331 12.2398L21.9331 14.6605Q21.9331 15.619 21.4441 16.1068Q20.955 16.5945 20.0047 16.5945L17.5894 16.5945L17.5894 17.323ZM22.6617 5.11673L22.6617 2.66006Q22.6617 1.36444 21.9936 0.699005Q21.3254 0.0335693 20.0243 0.0335693L17.5894 0.0335693L17.5894 0.762177L20.0047 0.762177Q20.955 0.762177 21.4441 1.24985Q21.9331 1.73752 21.9331 2.69608L21.9331 5.11673ZM22.6617 11.373L22.6617 5.98358L21.9331 5.98358L21.9331 11.373ZM5.94604 0.762177L10.8917 0.762177L10.8917 0.0335693L5.94604 0.0335693ZM11.7628 0.762177L16.7155 0.762177L16.7155 0.0335693L11.7628 0.0335693Z" fill="#ffffff"/>
 </g>
</svg>
