<?xml version="1.0" encoding="UTF-8"?>
<!--Generator: Apple Native CoreSVG 175.5-->
<!DOCTYPE svg
PUBLIC "-//W3C//DTD SVG 1.1//EN"
       "http://www.w3.org/Graphics/SVG/1.1/DTD/svg11.dtd">
<svg version="1.1" xmlns="http://www.w3.org/2000/svg" xmlns:xlink="http://www.w3.org/1999/xlink" width="20.6557" height="24.6698">
 <g>
  <rect height="24.6698" opacity="0" width="20.6557" x="0" y="0"/>
  <path d="M6.75923 18.9902L5.69478 19.1757Q4.95259 19.3125 4.49849 18.9853Q4.04439 18.6582 3.91743 17.9453L1.63228 4.96675Q1.50532 4.2441 1.81782 3.79488Q2.13032 3.34566 2.88228 3.20894L11.7885 1.63667Q12.5405 1.50972 12.9848 1.8271Q13.4292 2.14449 13.5561 2.86714L14.1616 6.20699L15.6948 5.93355L15.1088 2.57417Q14.8452 1.05074 13.9663 0.435503Q13.0874-0.179731 11.5932 0.0741749L2.53072 1.66597Q1.03657 1.92964 0.426223 2.81832Q-0.184128 3.70699 0.0795435 5.22066L2.37447 18.248Q2.63814 19.7519 3.52193 20.3769Q4.40572 21.0019 5.89009 20.7382L6.75923 20.582Z" fill="#ffffff"/>
  <path d="M20.6557 8.07222Q20.6557 6.53902 19.8989 5.77242Q19.142 5.00582 17.6284 5.00582L8.41939 5.00582Q6.90572 5.00582 6.14888 5.77242Q5.39204 6.53902 5.39204 8.07222L5.39204 21.4121Q5.39204 22.9453 6.15376 23.7119Q6.91548 24.4785 8.41939 24.4785L17.6284 24.4785Q19.142 24.4785 19.8989 23.7119Q20.6557 22.9453 20.6557 21.4121ZM19.0834 8.10152L19.0834 21.3925Q19.0834 22.1152 18.6977 22.5107Q18.312 22.9062 17.5502 22.9062L8.50728 22.9062Q7.74556 22.9062 7.35493 22.5107Q6.96431 22.1152 6.96431 21.3925L6.96431 8.10152Q6.96431 7.3691 7.35493 6.97359Q7.74556 6.57808 8.50728 6.57808L17.5502 6.57808Q18.312 6.57808 18.6977 6.97359Q19.0834 7.3691 19.0834 8.10152Z" fill="#ffffff"/>
 </g>
</svg>
