<?xml version="1.0" encoding="UTF-8"?>
<!--Generator: Apple Native CoreSVG 175.5-->
<!DOCTYPE svg
PUBLIC "-//W3C//DTD SVG 1.1//EN"
       "http://www.w3.org/Graphics/SVG/1.1/DTD/svg11.dtd">
<svg version="1.1" xmlns="http://www.w3.org/2000/svg" xmlns:xlink="http://www.w3.org/1999/xlink" width="22.8613" height="20.9473">
 <g>
  <rect height="20.9473" opacity="0" width="22.8613" x="0" y="0"/>
  <path d="M3.02734 20.9473L13.3984 20.9473Q14.9121 20.9473 15.6689 20.1807Q16.4258 19.4141 16.4258 17.8809L16.4258 11.4355L9.20898 11.4355Q8.81836 11.4355 8.53516 11.1475Q8.25195 10.8594 8.25195 10.4688Q8.25195 10.0684 8.53516 9.78027Q8.81836 9.49219 9.20898 9.49219L16.4258 9.49219L16.4258 3.06641Q16.4258 1.54297 15.6689 0.776367Q14.9121 0.00976562 13.3984 0.00976562L3.02734 0.00976562Q1.51367 0.00976562 0.756836 0.776367Q0 1.54297 0 3.06641L0 17.8809Q0 19.4141 0.756836 20.1807Q1.51367 20.9473 3.02734 20.9473ZM15.6641 10.4688Q15.6641 10.7812 15.8838 11.0107Q16.1035 11.2402 16.416 11.2402L19.2578 11.2402L20.7227 11.1816L20.0293 11.8457L18.457 13.3203Q18.2227 13.5254 18.2227 13.8477Q18.2227 14.1504 18.4131 14.3555Q18.6035 14.5605 18.9062 14.5605Q19.1895 14.5605 19.4238 14.3359L22.6074 11.0352Q22.7539 10.8887 22.8076 10.752Q22.8613 10.6152 22.8613 10.4688Q22.8613 10.3223 22.8076 10.1855Q22.7539 10.0488 22.6074 9.90234L19.4238 6.60156Q19.1895 6.36719 18.9062 6.36719Q18.6035 6.36719 18.4131 6.56738Q18.2227 6.76758 18.2227 7.07031Q18.2227 7.40234 18.457 7.60742L20.0293 9.0918L20.7227 9.75586L19.2578 9.6875L16.416 9.6875Q16.1035 9.6875 15.8838 9.92188Q15.6641 10.1562 15.6641 10.4688Z" fill="#ffffff"/>
 </g>
</svg>
