<?xml version="1.0" encoding="UTF-8"?>
<!--Generator: Apple Native CoreSVG 175.5-->
<!DOCTYPE svg
PUBLIC "-//W3C//DTD SVG 1.1//EN"
       "http://www.w3.org/Graphics/SVG/1.1/DTD/svg11.dtd">
<svg version="1.1" xmlns="http://www.w3.org/2000/svg" xmlns:xlink="http://www.w3.org/1999/xlink" width="19.9219" height="19.9316">
 <g>
  <rect height="19.9316" opacity="0" width="19.9219" x="0" y="0"/>
  <path d="M9.96094 19.9219Q12.002 19.9219 13.8037 19.1406Q15.6055 18.3594 16.9824 16.9824Q18.3594 15.6055 19.1406 13.8037Q19.9219 12.002 19.9219 9.96094Q19.9219 7.91992 19.1406 6.11816Q18.3594 4.31641 16.9824 2.93945Q15.6055 1.5625 13.7988 0.78125Q11.9922 0 9.95117 0Q7.91016 0 6.1084 0.78125Q4.30664 1.5625 2.93457 2.93945Q1.5625 4.31641 0.78125 6.11816Q0 7.91992 0 9.96094Q0 12.002 0.78125 13.8037Q1.5625 15.6055 2.93945 16.9824Q4.31641 18.3594 6.11816 19.1406Q7.91992 19.9219 9.96094 19.9219Z" fill="#ffffff"/>
  <path d="M3.48633 9.93164L3.48633 9.33594Q3.48633 8.10547 4.28711 7.38281Q5.08789 6.66016 6.43555 6.66016L8.89648 6.66016L8.89648 5.42969Q8.89648 5.20508 9.02344 5.07812Q9.15039 4.95117 9.38477 4.95117Q9.58984 4.95117 9.74609 5.07812L11.9434 6.9043Q12.1387 7.06055 12.1387 7.27051Q12.1387 7.48047 11.9434 7.63672L9.74609 9.46289Q9.58984 9.58984 9.38477 9.58984Q9.15039 9.58984 9.02344 9.46289Q8.89648 9.33594 8.89648 9.12109L8.89648 7.86133L6.31836 7.86133Q5.57617 7.86133 5.13184 8.2959Q4.6875 8.73047 4.6875 9.42383L4.6875 9.93164Q4.6875 10.1855 4.51172 10.3613Q4.33594 10.5371 4.08203 10.5371Q3.82812 10.5371 3.65723 10.3613Q3.48633 10.1855 3.48633 9.93164ZM15.5176 10.5371L15.5176 11.1328Q15.5176 12.3535 14.7168 13.0811Q13.916 13.8086 12.5586 13.8086L8.85742 13.8086L8.85742 15.0586Q8.85742 15.2734 8.73047 15.4004Q8.60352 15.5273 8.36914 15.5273Q8.1543 15.5273 7.99805 15.4004L5.80078 13.584Q5.61523 13.4277 5.61035 13.2129Q5.60547 12.998 5.79102 12.8516L7.99805 11.0254Q8.16406 10.8984 8.36914 10.8984Q8.59375 10.8984 8.72559 11.0205Q8.85742 11.1426 8.85742 11.3672L8.85742 12.6074L12.6758 12.6074Q13.418 12.6074 13.8623 12.1777Q14.3066 11.748 14.3066 11.0449L14.3066 10.5371Q14.3066 10.2832 14.4824 10.1123Q14.6582 9.94141 14.9121 9.94141Q15.166 9.94141 15.3418 10.1123Q15.5176 10.2832 15.5176 10.5371ZM14.9121 8.87695Q14.6191 8.87695 14.4434 8.70117Q14.2676 8.52539 14.2676 8.23242L14.2676 6.14258L14.3652 6.14258L13.7598 6.62109Q13.6133 6.72852 13.457 6.72852Q13.252 6.72852 13.1299 6.60645Q13.0078 6.48438 13.0078 6.30859Q13.0078 6.06445 13.2031 5.9082L13.9844 5.32227Q14.3945 5.00977 14.7949 5.00977Q15.127 5.00977 15.332 5.21484Q15.5371 5.41992 15.5371 5.76172L15.5371 8.23242Q15.5371 8.52539 15.3662 8.70117Q15.1953 8.87695 14.9121 8.87695Z" fill="none"/>
 </g>
</svg>
