<?xml version="1.0" encoding="UTF-8"?>
<!--Generator: Apple Native CoreSVG 175.5-->
<!DOCTYPE svg
PUBLIC "-//W3C//DTD SVG 1.1//EN"
       "http://www.w3.org/Graphics/SVG/1.1/DTD/svg11.dtd">
<svg version="1.1" xmlns="http://www.w3.org/2000/svg" xmlns:xlink="http://www.w3.org/1999/xlink" width="19.9219" height="19.9316">
 <g>
  <rect height="19.9316" opacity="0" width="19.9219" x="0" y="0"/>
  <path d="M9.96094 19.9219Q12.002 19.9219 13.8037 19.1406Q15.6055 18.3594 16.9824 16.9824Q18.3594 15.6055 19.1406 13.8037Q19.9219 12.002 19.9219 9.96094Q19.9219 7.91992 19.1406 6.11816Q18.3594 4.31641 16.9824 2.93945Q15.6055 1.5625 13.7988 0.78125Q11.9922 0 9.95117 0Q7.91016 0 6.1084 0.78125Q4.30664 1.5625 2.93457 2.93945Q1.5625 4.31641 0.78125 6.11816Q0 7.91992 0 9.96094Q0 12.002 0.78125 13.8037Q1.5625 15.6055 2.93945 16.9824Q4.31641 18.3594 6.11816 19.1406Q7.91992 19.9219 9.96094 19.9219ZM9.96094 18.2617Q8.23242 18.2617 6.72852 17.6172Q5.22461 16.9727 4.08691 15.835Q2.94922 14.6973 2.30957 13.1934Q1.66992 11.6895 1.66992 9.96094Q1.66992 8.23242 2.30957 6.72852Q2.94922 5.22461 4.08203 4.08203Q5.21484 2.93945 6.71875 2.2998Q8.22266 1.66016 9.95117 1.66016Q11.6797 1.66016 13.1885 2.2998Q14.6973 2.93945 15.835 4.08203Q16.9727 5.22461 17.6172 6.72852Q18.2617 8.23242 18.2617 9.96094Q18.2617 11.6895 17.6221 13.1934Q16.9824 14.6973 15.8398 15.835Q14.6973 16.9727 13.1934 17.6172Q11.6895 18.2617 9.96094 18.2617Z" fill="#ffffff"/>
  <path d="M3.83789 9.07227L3.83789 9.67773Q3.83789 9.94141 4.02832 10.1318Q4.21875 10.3223 4.48242 10.3223Q4.76562 10.3223 4.95605 10.1318Q5.14648 9.94141 5.14648 9.67773L5.14648 9.14062Q5.14648 8.45703 5.58594 8.04199Q6.02539 7.62695 6.73828 7.62695L10.5762 7.62695L10.5762 8.83789Q10.5762 9.08203 10.7178 9.22852Q10.8594 9.375 11.1035 9.375Q11.2988 9.375 11.5039 9.22852L13.7207 7.39258Q13.916 7.22656 13.916 6.99219Q13.916 6.75781 13.7207 6.5918L11.5039 4.74609Q11.2988 4.59961 11.1035 4.59961Q10.8594 4.59961 10.7178 4.74121Q10.5762 4.88281 10.5762 5.12695L10.5762 6.33789L6.83594 6.33789Q5.47852 6.33789 4.6582 7.08496Q3.83789 7.83203 3.83789 9.07227ZM16.084 10.8789L16.084 10.2832Q16.084 10.0098 15.8936 9.82422Q15.7031 9.63867 15.4297 9.63867Q15.1465 9.63867 14.9609 9.82422Q14.7754 10.0098 14.7754 10.2832L14.7754 10.8105Q14.7754 11.5039 14.3359 11.9189Q13.8965 12.334 13.1738 12.334L9.3457 12.334L9.3457 11.123Q9.3457 10.8789 9.2041 10.7373Q9.0625 10.5957 8.81836 10.5957Q8.61328 10.5957 8.41797 10.7422L6.20117 12.5684Q5.99609 12.7441 5.99121 12.9785Q5.98633 13.2129 6.20117 13.3789L8.41797 15.2246Q8.61328 15.3711 8.81836 15.3711Q9.0625 15.3711 9.2041 15.2246Q9.3457 15.0781 9.3457 14.834L9.3457 13.623L13.0762 13.623Q14.4434 13.623 15.2637 12.876Q16.084 12.1289 16.084 10.8789Z" fill="#ffffff"/>
 </g>
</svg>
