<?xml version="1.0" encoding="UTF-8"?>
<!--Generator: Apple Native CoreSVG 175.5-->
<!DOCTYPE svg
PUBLIC "-//W3C//DTD SVG 1.1//EN"
       "http://www.w3.org/Graphics/SVG/1.1/DTD/svg11.dtd">
<svg version="1.1" xmlns="http://www.w3.org/2000/svg" xmlns:xlink="http://www.w3.org/1999/xlink" width="19.9219" height="19.9316">
 <g>
  <rect height="19.9316" opacity="0" width="19.9219" x="0" y="0"/>
  <path d="M9.96094 19.9219Q12.002 19.9219 13.8037 19.1406Q15.6055 18.3594 16.9824 16.9824Q18.3594 15.6055 19.1406 13.8037Q19.9219 12.002 19.9219 9.96094Q19.9219 7.91992 19.1406 6.11816Q18.3594 4.31641 16.9824 2.93945Q15.6055 1.5625 13.7988 0.78125Q11.9922 0 9.95117 0Q7.91016 0 6.1084 0.78125Q4.30664 1.5625 2.93457 2.93945Q1.5625 4.31641 0.78125 6.11816Q0 7.91992 0 9.96094Q0 12.002 0.78125 13.8037Q1.5625 15.6055 2.93945 16.9824Q4.31641 18.3594 6.11816 19.1406Q7.91992 19.9219 9.96094 19.9219Z" fill="#ffffff"/>
  <path d="M3.65234 9.04297Q3.65234 7.76367 4.49707 6.99219Q5.3418 6.2207 6.74805 6.2207L10.6055 6.2207L10.6055 4.9707Q10.6055 4.72656 10.7471 4.5752Q10.8887 4.42383 11.1523 4.42383Q11.377 4.42383 11.5625 4.58008L13.8379 6.48438Q14.0527 6.66016 14.0527 6.89941Q14.0527 7.13867 13.8379 7.31445L11.5625 9.20898Q11.3965 9.35547 11.1523 9.35547Q10.8887 9.35547 10.7471 9.20898Q10.6055 9.0625 10.6055 8.79883L10.6055 7.55859L6.64062 7.55859Q5.9082 7.55859 5.45898 7.9834Q5.00977 8.4082 5.00977 9.11133L5.00977 9.66797Q5.00977 9.94141 4.80957 10.1367Q4.60938 10.332 4.31641 10.332Q4.04297 10.332 3.84766 10.1367Q3.65234 9.94141 3.65234 9.66797ZM16.2891 10.9082Q16.2891 12.1973 15.4395 12.9688Q14.5898 13.7402 13.1836 13.7402L9.33594 13.7402L9.33594 14.9902Q9.33594 15.2441 9.18945 15.3955Q9.04297 15.5469 8.78906 15.5469Q8.57422 15.5469 8.37891 15.3906L6.09375 13.4863Q5.87891 13.3105 5.87891 13.0664Q5.87891 12.8223 6.09375 12.6465L8.37891 10.7617Q8.56445 10.6152 8.78906 10.6152Q9.04297 10.6152 9.18945 10.7617Q9.33594 10.9082 9.33594 11.1621L9.33594 12.4023L13.291 12.4023Q14.0234 12.4023 14.4775 11.9775Q14.9316 11.5527 14.9316 10.8398L14.9316 10.293Q14.9316 10.0098 15.127 9.81934Q15.3223 9.62891 15.6152 9.62891Q15.8984 9.62891 16.0938 9.81934Q16.2891 10.0098 16.2891 10.293Z" fill="none"/>
 </g>
</svg>
