<?xml version="1.0" encoding="UTF-8"?>
<!--Generator: Apple Native CoreSVG 175.5-->
<!DOCTYPE svg
PUBLIC "-//W3C//DTD SVG 1.1//EN"
       "http://www.w3.org/Graphics/SVG/1.1/DTD/svg11.dtd">
<svg version="1.1" xmlns="http://www.w3.org/2000/svg" xmlns:xlink="http://www.w3.org/1999/xlink" width="14.7559" height="16.5527">
 <g>
  <rect height="16.5527" opacity="0" width="14.7559" x="0" y="0"/>
  <path d="M13.5938 16.5527Q14.1309 16.5527 14.4434 16.167Q14.7559 15.7812 14.7559 15.1465L14.7559 1.41602Q14.7559 0.78125 14.4434 0.400391Q14.1309 0.0195312 13.5938 0.0195312Q13.291 0.0195312 13.0322 0.12207Q12.7734 0.224609 12.4707 0.390625L1.09375 6.98242Q0.478516 7.33398 0.239258 7.6123Q0 7.89062 0 8.28125Q0 8.67188 0.239258 8.9502Q0.478516 9.22852 1.09375 9.58984L12.4707 16.1719Q12.7734 16.3477 13.0322 16.4502Q13.291 16.5527 13.5938 16.5527ZM13.0859 14.6875Q13.0469 14.6875 12.9688 14.6484L2.16797 8.38867Q2.12891 8.36914 2.09961 8.34473Q2.07031 8.32031 2.07031 8.28125Q2.07031 8.24219 2.09961 8.21777Q2.12891 8.19336 2.16797 8.17383L12.9688 1.92383Q13.0469 1.875 13.0859 1.875Q13.1836 1.875 13.1836 1.99219L13.1836 14.5703Q13.1836 14.6875 13.0859 14.6875Z" fill="#ffffff"/>
 </g>
</svg>
