<?xml version="1.0" encoding="UTF-8"?>
<!--Generator: Apple Native CoreSVG 175.5-->
<!DOCTYPE svg
PUBLIC "-//W3C//DTD SVG 1.1//EN"
       "http://www.w3.org/Graphics/SVG/1.1/DTD/svg11.dtd">
<svg version="1.1" xmlns="http://www.w3.org/2000/svg" xmlns:xlink="http://www.w3.org/1999/xlink" width="19.9219" height="19.9316">
 <g>
  <rect height="19.9316" opacity="0" width="19.9219" x="0" y="0"/>
  <path d="M9.96094 19.9219Q12.002 19.9219 13.8037 19.1406Q15.6055 18.3594 16.9824 16.9824Q18.3594 15.6055 19.1406 13.8037Q19.9219 12.002 19.9219 9.96094Q19.9219 7.91992 19.1406 6.11816Q18.3594 4.31641 16.9824 2.93945Q15.6055 1.5625 13.7988 0.78125Q11.9922 0 9.95117 0Q7.91016 0 6.1084 0.78125Q4.30664 1.5625 2.93457 2.93945Q1.5625 4.31641 0.78125 6.11816Q0 7.91992 0 9.96094Q0 12.002 0.78125 13.8037Q1.5625 15.6055 2.93945 16.9824Q4.31641 18.3594 6.11816 19.1406Q7.91992 19.9219 9.96094 19.9219ZM9.96094 18.2617Q8.23242 18.2617 6.72852 17.6172Q5.22461 16.9727 4.08691 15.835Q2.94922 14.6973 2.30957 13.1934Q1.66992 11.6895 1.66992 9.96094Q1.66992 8.23242 2.30957 6.72852Q2.94922 5.22461 4.08203 4.08203Q5.21484 2.93945 6.71875 2.2998Q8.22266 1.66016 9.95117 1.66016Q11.6797 1.66016 13.1885 2.2998Q14.6973 2.93945 15.835 4.08203Q16.9727 5.22461 17.6172 6.72852Q18.2617 8.23242 18.2617 9.96094Q18.2617 11.6895 17.6221 13.1934Q16.9824 14.6973 15.8398 15.835Q14.6973 16.9727 13.1934 17.6172Q11.6895 18.2617 9.96094 18.2617Z" fill="#ffffff"/>
  <path d="M5.48828 8.94531Q5.08789 9.17969 4.95605 9.5752Q4.82422 9.9707 4.95605 10.3613Q5.08789 10.752 5.46875 10.9766L11.3184 14.4336Q11.6797 14.6582 12.085 14.6338Q12.4902 14.6094 12.7783 14.3359Q13.0664 14.0625 13.0664 13.5352L13.0664 6.36719Q13.0664 5.83984 12.7783 5.56641Q12.4902 5.29297 12.085 5.26855Q11.6797 5.24414 11.3184 5.45898ZM6.99219 9.87305L11.3086 7.31445Q11.3867 7.26562 11.4404 7.28516Q11.4941 7.30469 11.4941 7.38281L11.4941 12.5195Q11.4941 12.5879 11.4404 12.6123Q11.3867 12.6367 11.3086 12.5879L7.00195 10.0586Q6.93359 10.0195 6.93848 9.96094Q6.94336 9.90234 6.99219 9.87305Z" fill="#ffffff"/>
 </g>
</svg>
