<?xml version="1.0" encoding="UTF-8"?>
<!--Generator: Apple Native CoreSVG 175.5-->
<!DOCTYPE svg
PUBLIC "-//W3C//DTD SVG 1.1//EN"
       "http://www.w3.org/Graphics/SVG/1.1/DTD/svg11.dtd">
<svg version="1.1" xmlns="http://www.w3.org/2000/svg" xmlns:xlink="http://www.w3.org/1999/xlink" width="20.6055" height="18.877">
 <g>
  <rect height="18.877" opacity="0" width="20.6055" x="0" y="0"/>
  <path d="M13.9355 17.9297Q14.2969 17.9297 14.5703 17.666L20.3125 12.0312Q20.459 11.8848 20.5322 11.7188Q20.6055 11.5527 20.6055 11.377Q20.6055 11.1914 20.5322 11.0254Q20.459 10.8594 20.3125 10.7227L14.5703 5.08789Q14.2969 4.81445 13.9355 4.81445Q13.5449 4.81445 13.3105 5.05859Q13.0762 5.30273 13.0762 5.67383Q13.0762 5.86914 13.1348 6.01562Q13.1934 6.16211 13.3105 6.2793L16.123 9.02344L18.5449 11.084L18.7109 10.6348L15.6836 10.5078L3.22266 10.5078Q2.45117 10.5078 2.09473 10.1514Q1.73828 9.79492 1.73828 8.99414L1.73828 3.22266Q1.73828 2.44141 2.08984 2.08984Q2.44141 1.73828 3.22266 1.73828L8.69141 1.73828Q9.0918 1.73828 9.33594 1.48438Q9.58008 1.23047 9.58008 0.869141Q9.58008 0.507812 9.33594 0.253906Q9.0918 0 8.69141 0L3.22266 0Q1.51367 0 0.756836 0.756836Q0 1.51367 0 3.22266L0 8.99414Q0 10.6543 0.756836 11.4502Q1.51367 12.2461 3.22266 12.2461L15.6836 12.2461L18.7109 12.1094L18.5449 11.6602L16.123 13.7305L13.3105 16.4746Q13.1934 16.5918 13.1348 16.7383Q13.0762 16.8848 13.0762 17.0703Q13.0762 17.4512 13.3105 17.6904Q13.5449 17.9297 13.9355 17.9297Z" fill="#ffffff"/>
 </g>
</svg>
