<?xml version="1.0" encoding="UTF-8"?>
<!--Generator: Apple Native CoreSVG 175.5-->
<!DOCTYPE svg
PUBLIC "-//W3C//DTD SVG 1.1//EN"
       "http://www.w3.org/Graphics/SVG/1.1/DTD/svg11.dtd">
<svg version="1.1" xmlns="http://www.w3.org/2000/svg" xmlns:xlink="http://www.w3.org/1999/xlink" width="15.5275" height="21.9824">
 <g>
  <rect height="21.9824" opacity="0" width="15.5275" x="0" y="0"/>
  <path d="M0 7.80273Q0 9.52148 0.708008 11.0303Q1.41602 12.5391 2.61719 13.6035L2.62695 20.9766Q2.62695 21.416 2.82715 21.6113Q3.02734 21.8066 3.33008 21.8066Q3.58398 21.8066 3.78906 21.6748Q3.99414 21.543 4.18945 21.3477L7.36328 18.1836Q7.49023 18.0664 7.58789 18.0176Q7.68555 17.9688 7.77344 17.9688Q7.86133 17.9688 7.95898 18.0176Q8.05664 18.0664 8.18359 18.1836L11.3574 21.3477Q11.5625 21.5527 11.7676 21.6797Q11.9727 21.8066 12.2168 21.8066Q12.5293 21.8066 12.7295 21.6113Q12.9297 21.416 12.9297 20.9766L12.9297 13.5742Q14.1211 12.5098 14.8193 11.0107Q15.5176 9.51172 15.5273 7.80273Q15.5371 6.19141 14.9268 4.78027Q14.3164 3.36914 13.2471 2.29492Q12.1777 1.2207 10.7715 0.610352Q9.36523 0 7.76367 0Q6.16211 0 4.75586 0.610352Q3.34961 1.2207 2.28027 2.29492Q1.21094 3.36914 0.605469 4.78027Q0 6.19141 0 7.80273ZM1.5918 7.80273Q1.5918 6.50391 2.06543 5.37109Q2.53906 4.23828 3.37891 3.37891Q4.21875 2.51953 5.34668 2.03613Q6.47461 1.55273 7.77344 1.55273Q9.07227 1.55273 10.1953 2.03613Q11.3184 2.51953 12.1631 3.37891Q13.0078 4.23828 13.4814 5.37109Q13.9551 6.50391 13.9551 7.80273Q13.9648 9.10156 13.4912 10.2344Q13.0176 11.3672 12.1729 12.2217Q11.3281 13.0762 10.2002 13.5596Q9.07227 14.043 7.77344 14.0332Q6.47461 14.0332 5.34668 13.5498Q4.21875 13.0664 3.37891 12.2119Q2.53906 11.3574 2.06543 10.2295Q1.5918 9.10156 1.5918 7.80273Z" fill="#ffffff"/>
 </g>
</svg>
