<?xml version="1.0" encoding="UTF-8"?>
<!--Generator: Apple Native CoreSVG 175.5-->
<!DOCTYPE svg
PUBLIC "-//W3C//DTD SVG 1.1//EN"
       "http://www.w3.org/Graphics/SVG/1.1/DTD/svg11.dtd">
<svg version="1.1" xmlns="http://www.w3.org/2000/svg" xmlns:xlink="http://www.w3.org/1999/xlink" width="19.5703" height="25.0897">
 <g>
  <rect height="25.0897" opacity="0" width="19.5703" x="0" y="0"/>
  <path d="M2.50977 21.5439L12.1875 21.5439Q13.4473 21.5439 14.0723 20.9286Q14.6973 20.3134 14.6973 19.0341L14.6973 9.3759Q14.6973 8.0966 14.0723 7.48137Q13.4473 6.86613 12.1875 6.86613L2.50977 6.86613Q1.25977 6.86613 0.629883 7.48137Q0 8.0966 0 9.3759L0 19.0341Q0 20.3134 0.629883 20.9286Q1.25977 21.5439 2.50977 21.5439Z" fill="#ffffff"/>
  <path d="M18.9551 8.73137Q19.209 8.73137 19.3896 8.5507Q19.5703 8.37004 19.5703 8.1259L19.5703 6.66105Q19.5703 5.26457 18.9893 4.20988Q18.4082 3.15519 17.3535 2.56926Q16.2988 1.98332 14.9023 1.98332L14.6973 1.98332L14.6973 0.694257Q14.6973 0.157148 14.3555 0.0350777Q14.0137-0.0869926 13.6035 0.215742L11.1426 2.02238Q10.8301 2.24699 10.8301 2.5009Q10.8301 2.7548 11.1426 2.97941L13.6035 4.77629Q14.0137 5.07902 14.3555 4.95695Q14.6973 4.83488 14.6973 4.30754L14.6973 3.11613L14.8926 3.11613Q15.9473 3.11613 16.7236 3.57023Q17.5 4.02434 17.9248 4.82512Q18.3496 5.6259 18.3496 6.67082L18.3496 8.1259Q18.3496 8.37004 18.5303 8.5507Q18.7109 8.73137 18.9551 8.73137Z" fill="#ffffff"/>
 </g>
</svg>
