<?xml version="1.0" encoding="UTF-8"?>
<!--Generator: Apple Native CoreSVG 175-->
<!DOCTYPE svg
PUBLIC "-//W3C//DTD SVG 1.1//EN"
       "http://www.w3.org/Graphics/SVG/1.1/DTD/svg11.dtd">
<svg version="1.1" xmlns="http://www.w3.org/2000/svg" xmlns:xlink="http://www.w3.org/1999/xlink" width="19.1602" height="19.1504">
 <g>
  <rect height="19.1504" opacity="0" width="19.1602" x="0" y="0"/>
  <path d="M9.57031 19.1406Q11.5527 19.1406 13.2861 18.3984Q15.0195 17.6562 16.3379 16.333Q17.6562 15.0098 18.4082 13.2764Q19.1602 11.543 19.1602 9.57031Q19.1602 7.59766 18.4082 5.86426Q17.6562 4.13086 16.3379 2.80762Q15.0195 1.48438 13.2861 0.742188Q11.5527 0 9.57031 0Q7.59766 0 5.86426 0.742188Q4.13086 1.48438 2.81738 2.80762Q1.50391 4.13086 0.751953 5.86426Q0 7.59766 0 9.57031Q0 11.543 0.74707 13.2764Q1.49414 15.0098 2.8125 16.333Q4.13086 17.6562 5.86914 18.3984Q7.60742 19.1406 9.57031 19.1406ZM9.57031 18.3984Q7.74414 18.3984 6.14746 17.71Q4.55078 17.0215 3.33496 15.8105Q2.11914 14.5996 1.43555 12.998Q0.751953 11.3965 0.751953 9.57031Q0.751953 7.74414 1.43555 6.14258Q2.11914 4.54102 3.33496 3.3252Q4.55078 2.10938 6.14746 1.4209Q7.74414 0.732422 9.57031 0.732422Q11.4062 0.732422 13.0029 1.4209Q14.5996 2.10938 15.8154 3.3252Q17.0312 4.54102 17.7197 6.14258Q18.4082 7.74414 18.4082 9.57031Q18.4082 11.3965 17.7246 12.998Q17.041 14.5996 15.8252 15.8105Q14.6094 17.0215 13.0078 17.71Q11.4062 18.3984 9.57031 18.3984ZM6.82617 14.0723Q6.95312 14.0723 7.0459 13.9795Q7.13867 13.8867 7.13867 13.7305L7.13867 10.3223L7.91992 10.3223L9.31641 13.8379Q9.41406 14.0527 9.62891 14.0527Q9.77539 14.0527 9.85352 13.9648Q9.93164 13.877 9.93164 13.7402Q9.93164 13.6914 9.92188 13.6572Q9.91211 13.623 9.89258 13.5645L8.55469 10.2148Q9.18945 9.99023 9.53125 9.35547Q9.87305 8.7207 9.87305 7.86133Q9.87305 5.48828 7.89062 5.48828L6.86523 5.48828Q6.51367 5.48828 6.51367 5.85938L6.51367 13.7109Q6.51367 13.877 6.60156 13.9746Q6.68945 14.0723 6.82617 14.0723ZM7.13867 9.70703L7.13867 6.13281L7.86133 6.13281Q8.55469 6.13281 8.89648 6.56738Q9.23828 7.00195 9.23828 7.87109Q9.23828 8.75977 8.89648 9.2334Q8.55469 9.70703 7.86133 9.70703ZM11.6699 14.0723Q12.3535 14.0723 12.7588 13.623Q13.1641 13.1738 13.1641 12.3633Q13.1641 11.6895 12.915 11.2695Q12.666 10.8496 12.0215 10.5273L11.6309 10.3223Q11.2109 10.1074 11.0449 9.84863Q10.8789 9.58984 10.8789 9.16016Q10.8789 8.68164 11.084 8.40332Q11.2891 8.125 11.6602 8.125Q12.0508 8.125 12.2461 8.41797Q12.4414 8.71094 12.4902 9.36523Q12.4902 9.52148 12.5781 9.60938Q12.666 9.69727 12.793 9.69727Q12.9199 9.69727 13.0078 9.60449Q13.0957 9.51172 13.0957 9.35547Q13.0957 9.31641 13.0957 9.27246Q13.0957 9.22852 13.0957 9.19922Q13.0371 8.45703 12.7148 7.9834Q12.3926 7.50977 11.6699 7.50977Q11.0254 7.50977 10.6348 7.95898Q10.2441 8.4082 10.2441 9.16016Q10.2441 9.77539 10.498 10.1904Q10.752 10.6055 11.3281 10.8887L11.7578 11.1035Q12.1875 11.3184 12.3682 11.6113Q12.5488 11.9043 12.5488 12.3926Q12.5488 13.4766 11.6699 13.4766Q11.2793 13.4766 11.0303 13.1543Q10.7812 12.832 10.752 12.2461Q10.752 12.0801 10.6641 11.9922Q10.5762 11.9043 10.4492 11.9043Q10.3027 11.9043 10.2197 12.002Q10.1367 12.0996 10.1367 12.2559Q10.1367 12.3535 10.1465 12.4512Q10.1562 12.5488 10.166 12.6465Q10.293 13.3398 10.6885 13.7061Q11.084 14.0723 11.6699 14.0723Z" fill="#ffffff"/>
 </g>
</svg>
