<?xml version="1.0" encoding="UTF-8"?>
<!--Generator: Apple Native CoreSVG 175.5-->
<!DOCTYPE svg
PUBLIC "-//W3C//DTD SVG 1.1//EN"
       "http://www.w3.org/Graphics/SVG/1.1/DTD/svg11.dtd">
<svg version="1.1" xmlns="http://www.w3.org/2000/svg" xmlns:xlink="http://www.w3.org/1999/xlink" width="19.9219" height="19.9316">
 <g>
  <rect height="19.9316" opacity="0" width="19.9219" x="0" y="0"/>
  <path d="M9.96094 19.9219Q12.002 19.9219 13.8037 19.1406Q15.6055 18.3594 16.9824 16.9824Q18.3594 15.6055 19.1406 13.8037Q19.9219 12.002 19.9219 9.96094Q19.9219 7.91992 19.1406 6.11816Q18.3594 4.31641 16.9824 2.93945Q15.6055 1.5625 13.7988 0.78125Q11.9922 0 9.95117 0Q7.91016 0 6.1084 0.78125Q4.30664 1.5625 2.93457 2.93945Q1.5625 4.31641 0.78125 6.11816Q0 7.91992 0 9.96094Q0 12.002 0.78125 13.8037Q1.5625 15.6055 2.93945 16.9824Q4.31641 18.3594 6.11816 19.1406Q7.91992 19.9219 9.96094 19.9219Z" fill="#ffffff"/>
  <path d="M9.86328 14.6875Q8.48633 14.6875 7.59766 14.1211Q6.70898 13.5547 6.44531 12.8418Q6.32812 12.5879 6.32812 12.334Q6.32812 12.002 6.52832 11.8066Q6.72852 11.6113 7.06055 11.6113Q7.54883 11.6113 7.82227 12.1582Q8.08594 12.7637 8.62793 13.0664Q9.16992 13.3691 9.96094 13.3691Q10.5078 13.3691 10.9521 13.208Q11.3965 13.0469 11.6553 12.7393Q11.9141 12.4316 11.9141 11.9922Q11.9141 11.4648 11.5576 11.1816Q11.2012 10.8984 10.3125 10.6543L8.84766 10.2344Q7.67578 9.91211 7.07031 9.34082Q6.46484 8.76953 6.46484 7.8125Q6.46484 6.60156 7.44141 5.83008Q8.41797 5.05859 9.96094 5.05859Q11.2402 5.05859 12.1094 5.58594Q12.9785 6.11328 13.252 6.91406Q13.3594 7.16797 13.3594 7.39258Q13.3594 7.74414 13.1592 7.91992Q12.959 8.0957 12.6367 8.0957Q12.3535 8.0957 12.1777 7.95898Q12.002 7.82227 11.8945 7.57812Q11.6406 6.94336 11.1523 6.64062Q10.6641 6.33789 9.90234 6.33789Q9.36523 6.33789 8.97461 6.50879Q8.58398 6.67969 8.36426 6.9873Q8.14453 7.29492 8.14453 7.71484Q8.14453 8.17383 8.4668 8.4668Q8.78906 8.75977 9.51172 8.95508L10.8594 9.31641Q12.1875 9.66797 12.8906 10.2637Q13.5938 10.8594 13.5938 11.8555Q13.5938 13.1543 12.5732 13.9209Q11.5527 14.6875 9.86328 14.6875Z" fill="none"/>
 </g>
</svg>
