<?xml version="1.0" encoding="UTF-8"?>
<!--Generator: Apple Native CoreSVG 175.5-->
<!DOCTYPE svg
PUBLIC "-//W3C//DTD SVG 1.1//EN"
       "http://www.w3.org/Graphics/SVG/1.1/DTD/svg11.dtd">
<svg version="1.1" xmlns="http://www.w3.org/2000/svg" xmlns:xlink="http://www.w3.org/1999/xlink" width="20.4297" height="18.5254">
 <g>
  <rect height="18.5254" opacity="0" width="20.4297" x="0" y="0"/>
  <path d="M2.49023 14.9219L3.28125 16.2695L10.2441 12.7734L17.207 16.2695L17.998 14.9219L11.0352 11.4258L11.0352 3.18359L9.46289 3.18359L9.46289 11.4258ZM0.0195312 16.3184Q0.0195312 16.9141 0.537109 17.207L2.49023 18.3496Q2.67578 18.4668 2.8418 18.4766Q3.00781 18.4863 3.26172 18.3398L5.16602 17.2363Q5.42969 17.0898 5.50781 16.9434Q5.58594 16.7969 5.57617 16.5527L5.58594 14.2871Q5.58594 13.7109 5.07812 13.418L3.11523 12.2754Q2.92969 12.168 2.74414 12.1533Q2.55859 12.1387 2.31445 12.2754L0.380859 13.3984Q0.126953 13.5352 0.0634766 13.6914Q0 13.8477 0 14.0527ZM14.8535 16.5625Q14.8438 16.8066 14.9219 16.9531Q15 17.0996 15.2637 17.2461L17.168 18.3496Q17.4219 18.4961 17.5879 18.4863Q17.7539 18.4766 17.9395 18.3594L19.8926 17.2168Q20.4102 16.9238 20.4102 16.3281L20.4297 14.0625Q20.4297 13.8574 20.3662 13.7012Q20.3027 13.5449 20.0488 13.4082L18.1152 12.2852Q17.8711 12.1484 17.6855 12.1631Q17.5 12.1777 17.3145 12.2852L15.3516 13.4277Q14.8438 13.7207 14.8438 14.2969ZM7.75391 4.85352L9.72656 5.98633Q10.2246 6.26953 10.7129 5.98633L12.6855 4.85352Q12.8906 4.73633 12.9834 4.58984Q13.0762 4.44336 13.0762 4.15039L13.0762 1.94336Q13.0762 1.65039 12.9834 1.51367Q12.8906 1.37695 12.7051 1.26953L10.7324 0.146484Q10.2148-0.146484 9.70703 0.146484L7.73438 1.26953Q7.54883 1.36719 7.45117 1.50879Q7.35352 1.65039 7.35352 1.94336L7.35352 4.15039Q7.35352 4.44336 7.45605 4.59473Q7.55859 4.74609 7.75391 4.85352Z" fill="#ffffff"/>
 </g>
</svg>
