<?xml version="1.0" encoding="UTF-8"?>
<!--Generator: Apple Native CoreSVG 175.5-->
<!DOCTYPE svg
PUBLIC "-//W3C//DTD SVG 1.1//EN"
       "http://www.w3.org/Graphics/SVG/1.1/DTD/svg11.dtd">
<svg version="1.1" xmlns="http://www.w3.org/2000/svg" xmlns:xlink="http://www.w3.org/1999/xlink" width="22.9492" height="17.998">
 <g>
  <rect height="17.998" opacity="0" width="22.9492" x="0" y="0"/>
  <path d="M0 14.9805Q0 16.4844 0.766602 17.2412Q1.5332 17.998 3.06641 17.998L19.8828 17.998Q21.4062 17.998 22.1777 17.2412Q22.9492 16.4844 22.9492 14.9805L22.9492 11.7773Q22.9492 11.2891 22.7881 10.7764Q22.627 10.2637 22.2363 9.85352L18.5352 5.91797Q18.0957 5.44922 17.6807 5.12207Q17.2656 4.79492 16.7871 4.61914Q16.3086 4.44336 15.6445 4.44336L7.11914 4.44336Q6.26953 4.44336 5.67383 4.8291Q5.07812 5.21484 4.41406 5.91797L0.712891 9.85352Q0.322266 10.2637 0.161133 10.7764Q0 11.2891 0 11.7773ZM2.17773 10.6641L5.70312 6.73828Q6.07422 6.32812 6.3916 6.1084Q6.70898 5.88867 7.14844 5.88867L15.791 5.88867Q16.2305 5.88867 16.5479 6.10352Q16.8652 6.31836 17.2461 6.73828L20.7715 10.6641Q20.9668 10.8887 20.8643 11.1523Q20.7617 11.416 20.4004 11.416L2.54883 11.416Q2.17773 11.416 2.08008 11.1523Q1.98242 10.8887 2.17773 10.6641ZM1.46484 1.40625L4.53125 4.50195Q4.9707 4.95117 5.3125 5.20996Q5.6543 5.46875 6.03516 5.58105Q6.41602 5.69336 6.96289 5.69336L15.8984 5.69336Q16.4941 5.69336 16.8896 5.58105Q17.2852 5.46875 17.6318 5.20996Q17.9785 4.95117 18.418 4.50195L21.4844 1.40625Q21.6699 1.21094 21.7188 0.976562Q21.7676 0.742188 21.6895 0.522461Q21.6113 0.302734 21.4014 0.15625Q21.1914 0.00976562 20.8691 0.00976562L2.08008 0.00976562Q1.74805 0.00976562 1.54297 0.15625Q1.33789 0.302734 1.25977 0.522461Q1.18164 0.742188 1.23047 0.976562Q1.2793 1.21094 1.46484 1.40625ZM5.57617 10.0098Q5.63477 10.1855 5.80566 10.2588Q5.97656 10.332 6.16211 10.2637L10.6543 8.62305Q10.8496 8.55469 10.9277 8.39355Q11.0059 8.23242 10.9375 8.04688Q10.8789 7.86133 10.7129 7.79297Q10.5469 7.72461 10.3516 7.79297L5.85938 9.43359Q5.67383 9.50195 5.59082 9.6582Q5.50781 9.81445 5.57617 10.0098ZM5.72266 8.22266Q5.79102 8.41797 5.95703 8.48633Q6.12305 8.55469 6.30859 8.48633L9.4043 7.36328Q9.58984 7.29492 9.67285 7.13379Q9.75586 6.97266 9.6875 6.78711Q9.62891 6.60156 9.45801 6.5332Q9.28711 6.46484 9.11133 6.5332L6.00586 7.65625Q5.82031 7.71484 5.7373 7.88086Q5.6543 8.04688 5.72266 8.22266ZM15.5957 14.6973Q15.5957 14.4629 15.7568 14.3115Q15.918 14.1602 16.1621 14.1602L18.8477 14.1602Q19.082 14.1602 19.2432 14.3115Q19.4043 14.4629 19.4043 14.6973Q19.4043 14.9316 19.2432 15.0781Q19.082 15.2246 18.8477 15.2246L16.1621 15.2246Q15.9375 15.2246 15.7666 15.0781Q15.5957 14.9316 15.5957 14.6973Z" fill="#ffffff"/>
 </g>
</svg>
