<?xml version="1.0" encoding="UTF-8"?>
<!--Generator: Apple Native CoreSVG 175-->
<!DOCTYPE svg
PUBLIC "-//W3C//DTD SVG 1.1//EN"
       "http://www.w3.org/Graphics/SVG/1.1/DTD/svg11.dtd">
<svg version="1.1" xmlns="http://www.w3.org/2000/svg" xmlns:xlink="http://www.w3.org/1999/xlink" width="22.7306" height="22.7472">
 <g>
  <rect height="22.7472" opacity="0" width="22.7306" x="0" y="0"/>
  <path d="M11.3687 20.4199Q13.2309 20.4199 14.8656 19.7162Q16.5004 19.0125 17.7454 17.7662Q18.9903 16.5199 19.6905 14.8838Q20.3906 13.2477 20.3906 11.3785Q20.3906 9.5163 19.6905 7.87666Q18.9903 6.23703 17.7454 4.99077Q16.5004 3.74451 14.8656 3.04077Q13.2309 2.33704 11.3687 2.33704Q9.49966 2.33704 7.86491 3.04077Q6.23016 3.74451 4.98871 4.99077Q3.74725 6.23703 3.04352 7.87666Q2.33978 9.5163 2.33978 11.3785Q2.33978 13.2477 3.04352 14.8838Q3.74725 16.5199 4.98871 17.7662Q6.23016 19.0125 7.86491 19.7162Q9.49966 20.4199 11.3687 20.4199ZM11.3687 19.707Q9.65042 19.707 8.14476 19.0613Q6.6391 18.4155 5.4985 17.2687Q4.35791 16.1218 3.70865 14.6142Q3.05939 13.1065 3.05939 11.3785Q3.05939 9.65744 3.70865 8.14766Q4.35791 6.63788 5.4985 5.48965Q6.6391 4.34143 8.14476 3.69568Q9.65042 3.04993 11.3687 3.04993Q13.0872 3.04993 14.5893 3.69568Q16.0915 4.34143 17.2356 5.48965Q18.3797 6.63788 19.0253 8.14766Q19.671 9.65744 19.671 11.3785Q19.671 13.1065 19.0253 14.6142Q18.3797 16.1218 17.2356 17.2687Q16.0915 18.4155 14.5893 19.0613Q13.0872 19.707 11.3687 19.707ZM11.3547 22.7472Q11.5141 22.7472 11.6123 22.6406Q11.7105 22.534 11.7105 22.3886L11.7105 15.9811Q11.7105 15.8359 11.6123 15.7306Q11.5141 15.6253 11.3547 15.6253Q11.2164 15.6253 11.1203 15.7306Q11.0242 15.8359 11.0242 15.9811L11.0242 22.3886Q11.0242 22.534 11.1203 22.6406Q11.2164 22.7472 11.3547 22.7472ZM0.358582 11.723L6.76605 11.723Q6.91132 11.723 7.01797 11.6269Q7.12463 11.5308 7.12463 11.3925Q7.12463 11.2332 7.01797 11.1349Q6.91132 11.0367 6.76605 11.0367L0.358582 11.0367Q0.213318 11.0367 0.106659 11.1349Q0 11.2332 0 11.3925Q0 11.5308 0.106659 11.6269Q0.213318 11.723 0.358582 11.723ZM11.3547 7.1344Q11.5141 7.1344 11.6123 7.02774Q11.7105 6.92108 11.7105 6.77582L11.7105 0.368347Q11.7105 0.222931 11.6123 0.116348Q11.5141 0.00976562 11.3547 0.00976562Q11.2164 0.00976562 11.1203 0.116348Q11.0242 0.222931 11.0242 0.368347L11.0242 6.77582Q11.0242 6.92108 11.1203 7.02774Q11.2164 7.1344 11.3547 7.1344ZM15.9645 11.723L22.379 11.723Q22.5243 11.723 22.6274 11.6269Q22.7306 11.5308 22.7306 11.3925Q22.7306 11.2332 22.6274 11.1349Q22.5243 11.0367 22.379 11.0367L15.9645 11.0367Q15.8261 11.0367 15.7195 11.1349Q15.6129 11.2332 15.6129 11.3925Q15.6129 11.5308 15.7195 11.6269Q15.8261 11.723 15.9645 11.723Z" fill="#ffffff"/>
 </g>
</svg>
