<?xml version="1.0" encoding="UTF-8"?>
<!--Generator: Apple Native CoreSVG 175-->
<!DOCTYPE svg
PUBLIC "-//W3C//DTD SVG 1.1//EN"
       "http://www.w3.org/Graphics/SVG/1.1/DTD/svg11.dtd">
<svg version="1.1" xmlns="http://www.w3.org/2000/svg" xmlns:xlink="http://www.w3.org/1999/xlink" width="29.1969" height="16.8692">
 <g>
  <rect height="16.8692" opacity="0" width="29.1969" x="0" y="0"/>
  <path d="M14.6075 9.4548Q15.4457 9.4548 16.1219 9.01764Q16.7981 8.58047 17.1967 7.82402Q17.5954 7.06757 17.5954 6.13205Q17.5954 5.24139 17.1932 4.50233Q16.7911 3.76328 16.1114 3.32458Q15.4317 2.88589 14.6075 2.88589Q13.7833 2.88589 13.1036 3.32733Q12.4239 3.76877 12.0168 4.5092Q11.6098 5.24963 11.6168 6.13754Q11.6168 7.07031 12.0155 7.82539Q12.4141 8.58047 13.0952 9.01764Q13.7762 9.4548 14.6075 9.4548ZM9.32663 16.3997L19.8575 16.3997Q20.3587 16.3997 20.663 16.1517Q20.9673 15.9036 20.9673 15.497Q20.9673 14.7578 20.5231 13.9477Q20.079 13.1375 19.248 12.4277Q18.4169 11.718 17.2407 11.276Q16.0645 10.834 14.6004 10.834Q13.1195 10.834 11.9434 11.276Q10.7672 11.718 9.93614 12.4277Q9.10507 13.1375 8.66447 13.9477Q8.22388 14.7578 8.22388 15.497Q8.22388 15.9036 8.52325 16.1517Q8.82263 16.3997 9.32663 16.3997ZM0.359344 16.0922Q0.515594 16.0922 0.620728 15.9858Q0.725861 15.8794 0.725861 15.7301Q0.725861 13.2559 1.42387 11.0091Q2.12189 8.76221 3.39806 6.88347Q4.67422 5.00473 6.40999 3.62328Q8.14575 2.24182 10.2225 1.48033Q12.2992 0.718842 14.595 0.718842Q16.888 0.718842 18.9661 1.48033Q21.0442 2.24182 22.7799 3.62328Q24.5157 5.00473 25.7905 6.88347Q27.0653 8.76221 27.7718 11.0091Q28.4782 13.2559 28.4782 15.7301Q28.4782 15.8794 28.5833 15.9858Q28.6884 16.0922 28.8348 16.0922Q28.9841 16.0922 29.0905 15.9858Q29.1969 15.8794 29.1969 15.7301Q29.1969 13.1328 28.4581 10.7746Q27.7193 8.41644 26.3753 6.45142Q25.0313 4.48639 23.2057 3.03711Q21.3802 1.58783 19.1956 0.793915Q17.011 0 14.595 0Q12.179 0 9.99435 0.793915Q7.80975 1.58783 5.98419 3.03711Q4.15863 4.48639 2.81822 6.45142Q1.47781 8.41644 0.738907 10.7746Q0 13.1328 0 15.7301Q0 15.8794 0.10643 15.9858Q0.21286 16.0922 0.359344 16.0922ZM5.04181 16.0895Q5.18829 16.0895 5.29472 15.983Q5.40115 15.8766 5.40115 15.7301Q5.40115 13.8531 6.09047 12.1944Q6.77979 10.5356 8.00789 9.25476Q9.23599 7.97394 10.8441 7.23282Q10.8055 7.05856 10.7784 6.86462Q10.7512 6.67068 10.7507 6.47736Q8.96179 7.23907 7.59285 8.62694Q6.22391 10.0148 5.44968 11.8373Q4.67545 13.6598 4.67545 15.7301Q4.67545 15.8766 4.78188 15.983Q4.88831 16.0895 5.04181 16.0895ZM24.1594 16.0895Q24.3086 16.0895 24.4151 15.983Q24.5216 15.8766 24.5216 15.7301Q24.5216 13.6626 23.7523 11.8449Q22.9829 10.0273 21.6154 8.64082Q20.2478 7.25433 18.4615 6.48285Q18.461 6.67618 18.4338 6.86821Q18.4067 7.06024 18.3653 7.25082Q19.9779 7.97928 21.2011 9.25743Q22.4243 10.5356 23.11 12.1944Q23.7958 13.8531 23.7958 15.7301Q23.7958 15.8766 23.9008 15.983Q24.0059 16.0895 24.1594 16.0895Z" fill="#ffffff"/>
 </g>
</svg>
