<?xml version="1.0" encoding="UTF-8"?>
<!--Generator: Apple Native CoreSVG 175.5-->
<!DOCTYPE svg
PUBLIC "-//W3C//DTD SVG 1.1//EN"
       "http://www.w3.org/Graphics/SVG/1.1/DTD/svg11.dtd">
<svg version="1.1" xmlns="http://www.w3.org/2000/svg" xmlns:xlink="http://www.w3.org/1999/xlink" width="15.8496" height="18.2129">
 <g>
  <rect height="18.2129" opacity="0" width="15.8496" x="0" y="0"/>
  <path d="M0 17.3828Q0 17.7246 0.244141 17.9688Q0.488281 18.2129 0.830078 18.2129Q1.18164 18.2129 1.42578 17.9688Q1.66992 17.7246 1.66992 17.3828L1.66992 2.31445L6.12305 2.31445Q7.28516 2.31445 8.01758 2.58789Q8.75 2.86133 9.10156 3.55469Q9.45312 4.24805 9.45312 5.51758L9.45312 12.207Q9.45312 12.5488 9.69727 12.793Q9.94141 13.0371 10.293 13.0371Q10.6348 13.0371 10.8789 12.793Q11.123 12.5488 11.123 12.207L11.123 5.19531Q11.123 3.53516 10.6299 2.48535Q10.1367 1.43555 9.15527 0.947266Q8.17383 0.458984 6.68945 0.458984L1.18164 0.458984Q0.654297 0.458984 0.327148 0.791016Q0 1.12305 0 1.66016ZM4.72656 16.7773Q4.72656 17.3145 5.04883 17.6465Q5.37109 17.9785 5.9082 17.9785L11.5137 17.9785Q13.0469 17.9785 14.0039 17.4561Q14.9609 16.9336 15.4053 15.8154Q15.8496 14.6973 15.8496 12.9004L15.8496 1.05469Q15.8496 0.712891 15.6055 0.46875Q15.3613 0.224609 15.0098 0.224609Q14.668 0.224609 14.4238 0.46875Q14.1797 0.712891 14.1797 1.05469L14.1797 12.9102Q14.1797 14.2578 13.8916 14.9463Q13.6035 15.6348 12.9248 15.8789Q12.2461 16.123 11.0547 16.123L6.39648 16.123L6.39648 6.19141Q6.39648 5.84961 6.14746 5.60547Q5.89844 5.36133 5.55664 5.36133Q5.21484 5.36133 4.9707 5.60547Q4.72656 5.84961 4.72656 6.19141Z" fill="#ffffff"/>
 </g>
</svg>
