<?xml version="1.0" encoding="UTF-8"?>
<!--Generator: Apple Native CoreSVG 175-->
<!DOCTYPE svg
PUBLIC "-//W3C//DTD SVG 1.1//EN"
       "http://www.w3.org/Graphics/SVG/1.1/DTD/svg11.dtd">
<svg version="1.1" xmlns="http://www.w3.org/2000/svg" xmlns:xlink="http://www.w3.org/1999/xlink" width="15.2734" height="19.4354">
 <g>
  <rect height="19.4354" opacity="0" width="15.2734" x="0" y="0"/>
  <path d="M7.63672 19.4354Q7.79617 19.4354 7.96707 19.3669Q8.13797 19.2984 8.27423 19.2218Q10.2867 18.0226 11.6346 17.1507Q12.9825 16.2788 13.7815 15.5144Q14.5805 14.7499 14.927 13.8993Q15.2734 13.0487 15.2734 11.8921L15.2734 4.55688Q15.2734 3.7558 14.9982 3.39561Q14.7231 3.03543 13.9743 2.74643Q13.4637 2.55066 12.9032 2.33307Q12.3427 2.11548 11.755 1.89049Q11.1673 1.6655 10.5795 1.44051Q9.99176 1.21552 9.42909 1.00906Q8.86642 0.802612 8.35587 0.622253Q8.16757 0.56366 7.99416 0.521088Q7.82074 0.478516 7.63672 0.478516Q7.4527 0.478516 7.27715 0.521088Q7.10159 0.56366 6.9133 0.622253Q6.40976 0.81665 5.84572 1.02661Q5.28168 1.23657 4.69398 1.45676Q4.10629 1.67694 3.5186 1.8998Q2.93091 2.12265 2.36679 2.33803Q1.80267 2.55341 1.29929 2.74643Q0.546112 3.02567 0.273056 3.39073Q0 3.7558 0 4.55688L0 11.8921Q0 13.0487 0.35408 13.8868Q0.70816 14.7249 1.51344 15.479Q2.31873 16.2332 3.66661 17.1078Q5.0145 17.9823 6.99921 19.2218Q7.13562 19.2984 7.30652 19.3669Q7.47742 19.4354 7.63672 19.4354Z" fill="#ffffff"/>
 </g>
</svg>
