<?xml version="1.0" encoding="UTF-8"?>
<!--Generator: Apple Native CoreSVG 175-->
<!DOCTYPE svg
PUBLIC "-//W3C//DTD SVG 1.1//EN"
       "http://www.w3.org/Graphics/SVG/1.1/DTD/svg11.dtd">
<svg version="1.1" xmlns="http://www.w3.org/2000/svg" xmlns:xlink="http://www.w3.org/1999/xlink" width="15.3235" height="19.541">
 <g>
  <rect height="19.541" opacity="0" width="15.3235" x="0" y="0"/>
  <path d="M7.66525 19.541Q7.81769 19.541 7.99347 19.4711Q8.16925 19.4012 8.30551 19.3246Q10.318 18.1105 11.6714 17.2353Q13.0247 16.3602 13.8271 15.5984Q14.6294 14.8367 14.9764 13.9861Q15.3235 13.1355 15.3235 11.9734L15.3235 4.61517Q15.3235 3.80859 15.0504 3.44841Q14.7774 3.08823 14.0259 2.79648Q13.5153 2.60071 12.952 2.38182Q12.3888 2.16293 11.7983 1.93657Q11.2079 1.71021 10.6196 1.48514Q10.0313 1.26007 9.46449 1.05232Q8.89771 0.844574 8.38715 0.671082Q8.19885 0.605469 8.02406 0.561523Q7.84927 0.517578 7.66525 0.517578Q7.48138 0.517578 7.30438 0.562897Q7.12738 0.608215 6.93909 0.671082Q6.43295 0.853119 5.86609 1.06308Q5.29922 1.27304 4.70879 1.4994Q4.11835 1.72577 3.52661 1.95Q2.93488 2.17422 2.37152 2.38747Q1.80817 2.60071 1.29776 2.79648Q0.548859 3.07846 0.274429 3.44353Q0 3.80859 0 4.61517L0 11.9734Q0 13.1355 0.35553 13.9742Q0.71106 14.8129 1.51688 15.5711Q2.32269 16.3293 3.67599 17.2094Q5.0293 18.0894 7.02499 19.3246Q7.15439 19.4012 7.33017 19.4711Q7.50595 19.541 7.66525 19.541ZM7.66525 18.7788Q7.53403 18.7788 7.3938 18.7076Q7.25357 18.6363 7.14417 18.5585Q5.43365 17.4629 4.21585 16.6834Q2.99805 15.9039 2.22656 15.2244Q1.45508 14.5448 1.0891 13.7679Q0.723114 12.991 0.723114 11.8933L0.723114 4.74915Q0.723114 4.22379 0.849838 3.98224Q0.976562 3.74069 1.3504 3.59222Q1.67038 3.46558 2.24579 3.24722Q2.8212 3.02887 3.51768 2.7594Q4.21417 2.48993 4.91417 2.22527Q5.61417 1.9606 6.19308 1.74225Q6.772 1.5239 7.08481 1.40427Q7.2583 1.32736 7.41219 1.28677Q7.56607 1.24619 7.66525 1.24619Q7.75742 1.24619 7.90787 1.29028Q8.05832 1.33438 8.23868 1.40427Q8.55865 1.5239 9.13406 1.74362Q9.70947 1.96335 10.4081 2.23068Q11.1067 2.49802 11.8053 2.76405Q12.504 3.03009 13.0807 3.25058Q13.6575 3.47107 13.9758 3.59222Q14.3469 3.73795 14.4736 3.98087Q14.6004 4.22379 14.6004 4.74915L14.6004 11.8933Q14.6004 12.991 14.2358 13.7644Q13.8712 14.5378 13.0948 15.2125Q12.3184 15.8871 11.1006 16.6679Q9.88281 17.4487 8.18634 18.5585Q8.06992 18.6363 7.92969 18.7076Q7.78946 18.7788 7.66525 18.7788Z" fill="#ffffff"/>
 </g>
</svg>
