<?xml version="1.0" encoding="UTF-8"?>
<!--Generator: Apple Native CoreSVG 175-->
<!DOCTYPE svg
PUBLIC "-//W3C//DTD SVG 1.1//EN"
       "http://www.w3.org/Graphics/SVG/1.1/DTD/svg11.dtd">
<svg version="1.1" xmlns="http://www.w3.org/2000/svg" xmlns:xlink="http://www.w3.org/1999/xlink" width="19.2247" height="20.5972">
 <g>
  <rect height="20.5972" opacity="0" width="19.2247" x="0" y="0"/>
  <path d="M0.973511 15.9074L8.95432 20.284Q9.28711 20.4622 9.60876 20.4657Q9.93042 20.4692 10.2802 20.284L18.2512 15.9074Q18.7843 15.6152 19.0045 15.2486Q19.2247 14.882 19.2247 14.2519L19.2247 5.75119Q19.2247 5.36209 19.0385 5.09254Q18.8524 4.823 18.5254 4.63745L10.7184 0.303955Q10.191 0 9.61723 0Q9.04343 0 8.50616 0.303955L0.709076 4.63745Q0.372314 4.823 0.186157 5.09254Q0 5.36209 0 5.75119L0 14.2519Q0 14.882 0.221481 15.2486Q0.442963 15.6152 0.973511 15.9074ZM1.52893 15.3917Q1.02188 15.1195 0.884018 14.8685Q0.746155 14.6176 0.746155 14.196L0.746155 5.94421L9.24652 10.5922L9.24652 19.5906ZM17.7055 15.3917L9.9852 19.5906L9.9852 10.5922L18.4785 5.94421L18.4785 14.196Q18.4785 14.6176 18.3406 14.8685Q18.2027 15.1195 17.7055 15.3917ZM9.61716 9.95621L1.02356 5.27374L5.01129 3.06015L13.6473 7.75513ZM14.3898 7.35153L5.75272 2.64526L8.94958 0.877686Q9.6199 0.496063 10.2777 0.877686L18.2109 5.27374Z" fill="rgba(0,0,0,0.85)"/>
 </g>
</svg>
