<?xml version="1.0" encoding="UTF-8"?>
<!--Generator: Apple Native CoreSVG 175.5-->
<!DOCTYPE svg
PUBLIC "-//W3C//DTD SVG 1.1//EN"
       "http://www.w3.org/Graphics/SVG/1.1/DTD/svg11.dtd">
<svg version="1.1" xmlns="http://www.w3.org/2000/svg" xmlns:xlink="http://www.w3.org/1999/xlink" width="15.8398" height="21.1426">
 <g>
  <rect height="21.1426" opacity="0" width="15.8398" x="0" y="0"/>
  <path d="M10.8984 0L8.25195 0Q7.00195 0 6.2793 0.712891Q5.55664 1.42578 5.55664 2.63672L5.55664 4.35547L7.03125 4.35547L7.03125 2.63672Q7.03125 2.09961 7.3584 1.79199Q7.68555 1.48438 8.25195 1.48438L10.8984 1.48438Q11.9531 1.48438 12.7295 1.94336Q13.5059 2.40234 13.9355 3.24219Q14.3652 4.08203 14.3652 5.21484L14.3652 20.3711Q14.3652 20.6934 14.5703 20.9082Q14.7754 21.123 15.0977 21.123Q15.4199 21.123 15.6299 20.9082Q15.8398 20.6934 15.8398 20.3711L15.8398 5.21484Q15.8398 3.62305 15.2344 2.45605Q14.6289 1.28906 13.5156 0.644531Q12.4023 0 10.8984 0ZM6.28906 4.69727Q6.76758 4.69727 7.06543 4.99512Q7.36328 5.29297 7.36328 5.76172L7.36328 7.43164Q8.30078 7.67578 9.0332 8.23242Q9.76562 8.78906 10.1855 9.60938Q10.6055 10.4297 10.6055 11.4648L11.9043 11.4648Q11.9043 10.3809 11.4844 9.41406Q11.0645 8.44727 10.332 7.7002Q9.59961 6.95312 8.64258 6.51367L8.64258 5.76172Q8.64258 5.08789 8.33984 4.55566Q8.03711 4.02344 7.50977 3.7207Q6.98242 3.41797 6.28906 3.41797Q5.60547 3.41797 5.07324 3.7207Q4.54102 4.02344 4.23828 4.55566Q3.93555 5.08789 3.93555 5.76172L3.93555 6.51367Q2.98828 6.95312 2.25098 7.7002Q1.51367 8.44727 1.09375 9.41406Q0.673828 10.3809 0.673828 11.4648L1.98242 11.4648Q1.98242 10.4297 2.39746 9.60938Q2.8125 8.78906 3.54492 8.23242Q4.27734 7.67578 5.21484 7.43164L5.21484 5.76172Q5.21484 5.29297 5.51758 4.99512Q5.82031 4.69727 6.28906 4.69727ZM0.644531 11.2891Q0.380859 11.2891 0.19043 11.4795Q0 11.6699 0 11.9336Q0 12.1973 0.19043 12.3828Q0.380859 12.5684 0.644531 12.5684L11.9434 12.5684Q12.207 12.5684 12.3926 12.3828Q12.5781 12.1973 12.5781 11.9336Q12.5781 11.6699 12.3926 11.4795Q12.207 11.2891 11.9434 11.2891Z" fill="#ffffff"/>
  <path d="M3.01758 15.2246Q3.32031 15.2246 3.52539 15.0146Q3.73047 14.8047 3.73047 14.502Q3.73047 14.209 3.52539 13.999Q3.32031 13.7891 3.01758 13.7891Q2.72461 13.7891 2.50977 13.999Q2.29492 14.209 2.29492 14.502Q2.29492 14.8047 2.50977 15.0146Q2.72461 15.2246 3.01758 15.2246ZM6.2793 15.2246Q6.58203 15.2246 6.78711 15.0146Q6.99219 14.8047 6.99219 14.502Q6.99219 14.209 6.78711 13.999Q6.58203 13.7891 6.2793 13.7891Q5.97656 13.7891 5.7666 13.999Q5.55664 14.209 5.55664 14.502Q5.55664 14.8047 5.7666 15.0146Q5.97656 15.2246 6.2793 15.2246ZM9.53125 15.2246Q9.83398 15.2246 10.0391 15.0146Q10.2441 14.8047 10.2441 14.502Q10.2441 14.209 10.0391 13.999Q9.83398 13.7891 9.53125 13.7891Q9.23828 13.7891 9.02344 13.999Q8.80859 14.209 8.80859 14.502Q8.80859 14.8047 9.02344 15.0146Q9.23828 15.2246 9.53125 15.2246Z" fill="#ffffff"/>
  <path d="M3.01758 17.9004Q3.32031 17.9004 3.52539 17.6904Q3.73047 17.4805 3.73047 17.1777Q3.73047 16.875 3.52539 16.6699Q3.32031 16.4648 3.01758 16.4648Q2.72461 16.4648 2.50977 16.6699Q2.29492 16.875 2.29492 17.1777Q2.29492 17.4805 2.50977 17.6904Q2.72461 17.9004 3.01758 17.9004ZM6.2793 17.9004Q6.58203 17.9004 6.78711 17.6904Q6.99219 17.4805 6.99219 17.1777Q6.99219 16.875 6.78711 16.6699Q6.58203 16.4648 6.2793 16.4648Q5.97656 16.4648 5.7666 16.6699Q5.55664 16.875 5.55664 17.1777Q5.55664 17.4805 5.7666 17.6904Q5.97656 17.9004 6.2793 17.9004ZM9.53125 17.9004Q9.83398 17.9004 10.0391 17.6904Q10.2441 17.4805 10.2441 17.1777Q10.2441 16.875 10.0391 16.6699Q9.83398 16.4648 9.53125 16.4648Q9.23828 16.4648 9.02344 16.6699Q8.80859 16.875 8.80859 17.1777Q8.80859 17.4805 9.02344 17.6904Q9.23828 17.9004 9.53125 17.9004Z" fill="#ffffff"/>
  <path d="M3.01758 20.5762Q3.32031 20.5762 3.52539 20.3613Q3.73047 20.1465 3.73047 19.8535Q3.73047 19.5508 3.52539 19.3457Q3.32031 19.1406 3.01758 19.1406Q2.72461 19.1406 2.50977 19.3457Q2.29492 19.5508 2.29492 19.8535Q2.29492 20.1465 2.50977 20.3613Q2.72461 20.5762 3.01758 20.5762ZM6.2793 20.5762Q6.58203 20.5762 6.78711 20.3613Q6.99219 20.1465 6.99219 19.8535Q6.99219 19.5508 6.78711 19.3457Q6.58203 19.1406 6.2793 19.1406Q5.97656 19.1406 5.7666 19.3457Q5.55664 19.5508 5.55664 19.8535Q5.55664 20.1465 5.7666 20.3613Q5.97656 20.5762 6.2793 20.5762ZM9.53125 20.5762Q9.83398 20.5762 10.0391 20.3613Q10.2441 20.1465 10.2441 19.8535Q10.2441 19.5508 10.0391 19.3457Q9.83398 19.1406 9.53125 19.1406Q9.23828 19.1406 9.02344 19.3457Q8.80859 19.5508 8.80859 19.8535Q8.80859 20.1465 9.02344 20.3613Q9.23828 20.5762 9.53125 20.5762Z" fill="#ffffff"/>
 </g>
</svg>
