<?xml version="1.0" encoding="UTF-8"?>
<!--Generator: Apple Native CoreSVG 175-->
<!DOCTYPE svg
PUBLIC "-//W3C//DTD SVG 1.1//EN"
       "http://www.w3.org/Graphics/SVG/1.1/DTD/svg11.dtd">
<svg version="1.1" xmlns="http://www.w3.org/2000/svg" xmlns:xlink="http://www.w3.org/1999/xlink" width="22.666" height="17.3145">
 <g>
  <rect height="17.3145" opacity="0" width="22.666" x="0" y="0"/>
  <path d="M2.62695 17.3145L20.0195 17.3145Q21.3281 17.3145 21.9971 16.6455Q22.666 15.9766 22.666 14.6875L22.666 2.65625Q22.666 1.37695 21.9971 0.703125Q21.3281 0.0292969 20.0195 0.0292969L2.62695 0.0292969Q1.33789 0.0292969 0.668945 0.693359Q0 1.35742 0 2.65625L0 14.6875Q0 15.9863 0.668945 16.6504Q1.33789 17.3145 2.62695 17.3145ZM2.65625 16.5918Q1.70898 16.5918 1.2207 16.1035Q0.732422 15.6152 0.732422 14.6582L0.732422 2.69531Q0.732422 1.72852 1.2207 1.24512Q1.70898 0.761719 2.65625 0.761719L20 0.761719Q20.9277 0.761719 21.4307 1.24512Q21.9336 1.72852 21.9336 2.69531L21.9336 14.6582Q21.9336 15.6152 21.4307 16.1035Q20.9277 16.5918 20 16.5918ZM14.9121 16.748L15.625 16.748L15.625 0.507812L14.9121 0.507812ZM17.4902 4.4043L20.0781 4.4043Q20.2148 4.4043 20.3076 4.31152Q20.4004 4.21875 20.4004 4.10156Q20.4004 3.96484 20.3076 3.87695Q20.2148 3.78906 20.0781 3.78906L17.4902 3.78906Q17.3535 3.78906 17.2607 3.87695Q17.168 3.96484 17.168 4.10156Q17.168 4.21875 17.2607 4.31152Q17.3535 4.4043 17.4902 4.4043ZM17.4902 7.07031L20.0781 7.07031Q20.2148 7.07031 20.3076 6.97754Q20.4004 6.88477 20.4004 6.75781Q20.4004 6.63086 20.3076 6.53809Q20.2148 6.44531 20.0781 6.44531L17.4902 6.44531Q17.3535 6.44531 17.2607 6.53809Q17.168 6.63086 17.168 6.75781Q17.168 6.88477 17.2607 6.97754Q17.3535 7.07031 17.4902 7.07031ZM17.4902 9.7168L20.0781 9.7168Q20.2148 9.7168 20.3076 9.62402Q20.4004 9.53125 20.4004 9.4043Q20.4004 9.27734 20.3076 9.18457Q20.2148 9.0918 20.0781 9.0918L17.4902 9.0918Q17.3535 9.0918 17.2607 9.18457Q17.168 9.27734 17.168 9.4043Q17.168 9.53125 17.2607 9.62402Q17.3535 9.7168 17.4902 9.7168Z" fill="#ffffff"/>
 </g>
</svg>
