<?xml version="1.0" encoding="UTF-8"?>
<!--Generator: Apple Native CoreSVG 175.5-->
<!DOCTYPE svg
PUBLIC "-//W3C//DTD SVG 1.1//EN"
       "http://www.w3.org/Graphics/SVG/1.1/DTD/svg11.dtd">
<svg version="1.1" xmlns="http://www.w3.org/2000/svg" xmlns:xlink="http://www.w3.org/1999/xlink" width="20.0099" height="21.3574">
 <g>
  <rect height="21.3574" opacity="0" width="20.0099" x="0" y="0"/>
  <path d="M11.7677 4.16992L11.7677 0.791016Q11.7677 0.46875 11.5382 0.234375Q11.3087 0 10.9864 0Q10.6642 0 10.4298 0.234375Q10.1954 0.46875 10.1954 0.791016L10.1954 4.16992ZM17.9396 12.4512Q18.9357 12.4512 19.4728 11.9238Q20.0099 11.3965 20.0099 10.4102L20.0099 4.9707Q20.0099 3.99414 19.4728 3.4668Q18.9357 2.93945 17.9396 2.93945L5.18566 2.93945Q4.53136 2.93945 4.15539 3.12988Q3.77941 3.32031 3.40832 3.68164L0.810662 6.16211Q-0.00965074 6.95312 0.00011489 7.70508Q0.00988051 8.45703 0.800896 9.20898L3.40832 11.6992Q3.77941 12.0605 4.15539 12.251Q4.53136 12.4414 5.19543 12.4414ZM11.7677 11.8945L10.1954 11.8945L10.1954 20.5078L11.7677 20.5078ZM15.5275 19.7754Q15.5275 19.4531 15.298 19.2188Q15.0685 18.9844 14.7462 18.9844L7.21691 18.9844Q6.89465 18.9844 6.66515 19.2188Q6.43566 19.4531 6.43566 19.7754Q6.43566 20.0977 6.66515 20.3271Q6.89465 20.5566 7.21691 20.5566L14.7462 20.5566Q15.0685 20.5566 15.298 20.3271Q15.5275 20.0977 15.5275 19.7754Z" fill="#ffffff"/>
 </g>
</svg>
