<?xml version="1.0" encoding="UTF-8"?>
<!--Generator: Apple Native CoreSVG 175-->
<!DOCTYPE svg
PUBLIC "-//W3C//DTD SVG 1.1//EN"
       "http://www.w3.org/Graphics/SVG/1.1/DTD/svg11.dtd">
<svg version="1.1" xmlns="http://www.w3.org/2000/svg" xmlns:xlink="http://www.w3.org/1999/xlink" width="27.2575" height="24.588">
 <g>
  <rect height="24.588" opacity="0" width="27.2575" x="0" y="0"/>
  <path d="M9.26483 24.588Q10.6731 24.588 11.8332 23.738Q12.9933 22.888 13.835 21.3728Q14.6767 19.8575 15.1292 17.8317Q15.5817 15.806 15.5817 13.4587Q15.5817 11.384 15.1606 9.6244Q14.7395 7.86484 13.9454 6.56235Q13.1512 5.25986 12.0412 4.54109Q10.9312 3.82233 9.55078 3.82233Q8.41049 3.82233 7.4855 4.41551Q6.56052 5.0087 6.01891 6.02646Q5.47729 7.04422 5.47729 8.30597Q5.47729 9.28207 5.75348 10.2372Q6.02966 11.1923 6.57715 12.0992Q7.12463 13.006 7.95586 13.8296Q8.78708 14.6532 9.89433 15.3671Q11.0016 16.0809 12.3813 16.6466Q12.4937 16.6994 12.5906 16.6994Q12.7429 16.6994 12.8363 16.5976Q12.9297 16.4958 12.9297 16.3684Q12.9297 16.277 12.8777 16.1932Q12.8258 16.1095 12.6953 16.0442Q11.4618 15.4794 10.302 14.7151Q9.1423 13.9508 8.22372 12.9842Q7.30515 12.0177 6.76567 10.8499Q6.2262 9.68216 6.2262 8.30597Q6.2262 7.25754 6.66603 6.41144Q7.10587 5.56534 7.85919 5.06691Q8.61252 4.56848 9.55078 4.56848Q10.7652 4.56848 11.7438 5.26062Q12.7223 5.95276 13.4126 7.17819Q14.1028 8.40363 14.4691 10.0127Q14.8355 11.6219 14.8355 13.4587Q14.8355 15.5669 14.4385 17.4422Q14.0414 19.3176 13.3121 20.7584Q12.5829 22.1992 11.577 23.0206Q10.5711 23.8419 9.36325 23.8419Q8.48434 23.8419 8.07365 23.3565Q7.66296 22.8711 7.66296 22.1579Q7.66296 21.2392 8.12607 20.1001Q8.58917 18.961 9.4632 17.8165Q10.3372 16.6719 11.5692 15.7082Q12.8012 14.7446 14.3446 14.155Q15.8879 13.5654 17.6926 13.5654Q18.6586 13.5654 18.6586 14.1626Q18.6586 14.536 18.5133 14.9682Q18.3679 15.4004 18.224 15.8481Q18.0801 16.2958 18.0801 16.7157Q18.0801 17.1739 18.3501 17.3717Q18.62 17.5696 18.9531 17.5696Q19.4786 17.5696 20.0459 17.2102Q20.6133 16.8509 21.1801 16.3184Q21.747 15.786 22.2637 15.2585Q22.7805 14.731 23.2117 14.3716Q23.643 14.0121 23.9293 14.0121Q24.2215 14.0121 24.3039 14.3303Q24.3863 14.6484 24.4028 15.1237Q24.4193 15.5989 24.4981 16.0706Q24.577 16.5422 24.8524 16.8604Q25.1277 17.1786 25.7477 17.1786Q26.0083 17.1786 26.2852 17.1048Q26.5622 17.0309 26.8579 16.8637Q26.9563 16.8028 27.0124 16.7114Q27.0685 16.62 27.0685 16.5219Q27.0685 16.3864 26.982 16.2825Q26.8954 16.1786 26.7458 16.1786Q26.5833 16.1786 26.3411 16.3202Q26.0989 16.4618 25.8028 16.4618Q25.4173 16.4618 25.2895 16.1346Q25.1617 15.8075 25.1411 15.3276Q25.1204 14.8477 25.0706 14.3643Q25.0208 13.8809 24.8071 13.5538Q24.5934 13.2266 24.0707 13.2266Q23.6263 13.2266 23.0889 13.5867Q22.5516 13.9468 21.9918 14.4752Q21.432 15.0035 20.8971 15.5318Q20.3621 16.0602 19.9049 16.4204Q19.4476 16.7805 19.1301 16.7805Q18.8782 16.7805 18.8782 16.4949Q18.8782 16.1504 19.0208 15.7408Q19.1634 15.3313 19.306 14.9096Q19.4485 14.4879 19.4485 14.1043Q19.4485 13.4845 19.01 13.1519Q18.5715 12.8192 17.7438 12.8192Q15.8118 12.8192 14.1486 13.4594Q12.4855 14.0996 11.149 15.1471Q9.81247 16.1946 8.86795 17.4477Q7.92343 18.7009 7.41814 19.9594Q6.91284 21.218 6.91284 22.2443Q6.91284 23.2782 7.53395 23.9331Q8.15506 24.588 9.26483 24.588ZM0.366364 20.6833L26.8954 20.6833Q27.049 20.6833 27.1532 20.5755Q27.2575 20.4677 27.2575 20.3212Q27.2575 20.1677 27.1532 20.0647Q27.049 19.9617 26.8954 19.9617L0.366364 19.9617Q0.21286 19.9617 0.10643 20.0647Q0 20.1677 0 20.3212Q0 20.4677 0.10643 20.5755Q0.21286 20.6833 0.366364 20.6833ZM0.170288 17.4301Q0.264435 17.534 0.400238 17.5327Q0.536041 17.5313 0.630035 17.4301L3.96988 14.1Q4.07379 14.0059 4.07379 13.8737Q4.07379 13.7415 3.96988 13.6403Q3.87589 13.5364 3.74008 13.5378Q3.60428 13.5391 3.51013 13.6403L0.170288 16.9676Q0.0663757 17.0645 0.0663757 17.1989Q0.0663757 17.3332 0.170288 17.4301ZM3.51013 17.4301Q3.60428 17.534 3.74008 17.534Q3.87589 17.534 3.96988 17.4301Q4.07379 17.3332 4.07379 17.1975Q4.07379 17.0618 3.96988 16.9676L0.630035 13.6403Q0.536041 13.5364 0.400238 13.5364Q0.264435 13.5364 0.170288 13.6403Q0.0663757 13.7415 0.0663757 13.8737Q0.0663757 14.0059 0.170288 14.1Z" fill="rgba(0,0,0,0.85)"/>
 </g>
</svg>
