<?xml version="1.0" encoding="UTF-8"?>
<!--Generator: Apple Native CoreSVG 175.5-->
<!DOCTYPE svg
PUBLIC "-//W3C//DTD SVG 1.1//EN"
       "http://www.w3.org/Graphics/SVG/1.1/DTD/svg11.dtd">
<svg version="1.1" xmlns="http://www.w3.org/2000/svg" xmlns:xlink="http://www.w3.org/1999/xlink" width="20.2441" height="19.1895">
 <g>
  <rect height="19.1895" opacity="0" width="20.2441" x="0" y="0"/>
  <path d="M9.28711 10.6738L10.8594 10.6738L10.8594 2.69531Q10.8594 2.1875 11.167 1.87988Q11.4746 1.57227 11.9824 1.57227Q12.4902 1.57227 12.7979 1.87988Q13.1055 2.1875 13.1055 2.69531L13.1055 4.33594Q13.1055 4.6582 13.3398 4.89258Q13.5742 5.12695 13.8965 5.12695Q14.2188 5.12695 14.4482 4.89258Q14.6777 4.6582 14.6777 4.33594L14.6777 2.69531Q14.6777 1.88477 14.3408 1.2793Q14.0039 0.673828 13.3984 0.336914Q12.793 0 11.9824 0Q11.1719 0 10.5664 0.336914Q9.96094 0.673828 9.62402 1.2793Q9.28711 1.88477 9.28711 2.69531ZM6.50391 10.6738L7.7832 10.6738L7.7832 8.11523Q7.7832 7.76367 7.56836 7.54883Q7.35352 7.33398 7.00195 7.33398L4.10156 7.33398Q3.83789 7.33398 3.64746 7.52441Q3.45703 7.71484 3.45703 7.97852Q3.45703 8.24219 3.64746 8.42773Q3.83789 8.61328 4.10156 8.61328L6.31836 8.61328Q6.50391 8.61328 6.50391 8.79883ZM12.3633 10.6738L13.6426 10.6738L13.6426 8.79883Q13.6426 8.61328 13.8281 8.61328L16.0449 8.61328Q16.3086 8.61328 16.4941 8.42773Q16.6797 8.24219 16.6797 7.97852Q16.6797 7.71484 16.4941 7.52441Q16.3086 7.33398 16.0449 7.33398L13.1445 7.33398Q12.7832 7.33398 12.5732 7.54883Q12.3633 7.76367 12.3633 8.11523ZM0.78125 11.6406L19.4629 11.6406Q19.7852 11.6406 20.0146 11.4062Q20.2441 11.1719 20.2441 10.8496Q20.2441 10.5273 20.0146 10.2979Q19.7852 10.0684 19.4629 10.0684L0.78125 10.0684Q0.458984 10.0684 0.229492 10.2979Q0 10.5273 0 10.8496Q0 11.1719 0.229492 11.4062Q0.458984 11.6406 0.78125 11.6406ZM5.625 19.1602L14.6191 19.1602Q16.0742 19.1602 17.1045 18.6572Q18.1348 18.1543 18.6768 17.1973Q19.2188 16.2402 19.2188 14.873L19.2188 11.123L17.6465 11.123L17.6465 14.873Q17.6465 16.2402 16.9043 16.9141Q16.1621 17.5879 14.6191 17.5879L5.625 17.5879Q4.08203 17.5879 3.34473 16.9141Q2.60742 16.2402 2.60742 14.873L2.60742 11.123L1.03516 11.123L1.03516 14.873Q1.03516 16.2402 1.57715 17.1973Q2.11914 18.1543 3.14453 18.6572Q4.16992 19.1602 5.625 19.1602Z" fill="#ffffff"/>
 </g>
</svg>
