<?xml version="1.0" encoding="UTF-8"?>
<!--Generator: Apple Native CoreSVG 175.5-->
<!DOCTYPE svg
PUBLIC "-//W3C//DTD SVG 1.1//EN"
       "http://www.w3.org/Graphics/SVG/1.1/DTD/svg11.dtd">
<svg version="1.1" xmlns="http://www.w3.org/2000/svg" xmlns:xlink="http://www.w3.org/1999/xlink" width="19.9219" height="23.7212">
 <g>
  <rect height="23.7212" opacity="0" width="19.9219" x="0" y="0"/>
  <path d="M0 11.8557Q0 13.8967 0.78125 15.7034Q1.5625 17.51 2.93945 18.8821Q4.31641 20.2541 6.11816 21.0354Q7.91992 21.8166 9.96094 21.8166Q12.002 21.8166 13.8037 21.0354Q15.6055 20.2541 16.9824 18.8821Q18.3594 17.51 19.1406 15.7034Q19.9219 13.8967 19.9219 11.8557Q19.9219 10.0588 19.3066 8.43773Q18.6914 6.81664 17.5928 5.50316Q16.4941 4.18969 15.0244 3.3059Q13.5547 2.42211 11.8457 2.08031L11.8457 0.693592Q11.8457 0.166248 11.543 0.039295Q11.2402-0.0876581 10.8398 0.195545L7.72461 2.37328Q7.38281 2.60765 7.38281 2.92015Q7.38281 3.23265 7.72461 3.4768L10.8301 5.6643Q11.2305 5.95726 11.5381 5.82543Q11.8457 5.69359 11.8457 5.16625L11.8457 3.77953Q13.2324 4.09203 14.3994 4.83422Q15.5664 5.5764 16.4307 6.65062Q17.2949 7.72484 17.7734 9.04808Q18.252 10.3713 18.252 11.8557Q18.252 13.5842 17.6123 15.093Q16.9727 16.6018 15.835 17.7395Q14.6973 18.8772 13.1934 19.5168Q11.6895 20.1565 9.96094 20.1565Q8.23242 20.1565 6.72363 19.5168Q5.21484 18.8772 4.07715 17.7395Q2.93945 16.6018 2.2998 15.093Q1.66016 13.5842 1.66016 11.8557Q1.66016 10.469 2.08984 9.2141Q2.51953 7.95922 3.29102 6.92406Q4.0625 5.8889 5.09766 5.14672Q5.40039 4.92211 5.4834 4.59984Q5.56641 4.27758 5.38086 3.97484Q5.19531 3.68187 4.84375 3.6184Q4.49219 3.55492 4.16992 3.79906Q2.91016 4.70726 1.97266 5.96215Q1.03516 7.21703 0.517578 8.71605Q0 10.2151 0 11.8557Z" fill="#ffffff"/>
  <path d="M5.3125 10.2639L10.1953 10.2639L10.1953 8.97484L5.3125 8.97484Q5.0293 8.97484 4.83887 9.16527Q4.64844 9.3557 4.64844 9.61937Q4.64844 9.88305 4.83887 10.0735Q5.0293 10.2639 5.3125 10.2639ZM11.5625 11.592Q12.0996 11.592 12.5488 11.3235Q12.998 11.0549 13.2666 10.6057Q13.5352 10.1565 13.5352 9.60961Q13.5352 9.06273 13.2666 8.6184Q12.998 8.17406 12.5488 7.90551Q12.0996 7.63695 11.5625 7.63695Q11.0156 7.63695 10.5664 7.90551Q10.1172 8.17406 9.84863 8.6184Q9.58008 9.06273 9.58008 9.60961Q9.58008 10.1565 9.84863 10.6057Q10.1172 11.0549 10.5664 11.3235Q11.0156 11.592 11.5625 11.592ZM11.5625 10.5862Q11.1426 10.5862 10.8691 10.303Q10.5957 10.0198 10.5957 9.60961Q10.5957 9.19945 10.8691 8.92113Q11.1426 8.64281 11.5625 8.64281Q11.9629 8.64281 12.2461 8.92113Q12.5293 9.19945 12.5293 9.60961Q12.5293 10.0198 12.2461 10.303Q11.9629 10.5862 11.5625 10.5862ZM12.8418 10.2639L14.6484 10.2639Q14.9023 10.2639 15.0879 10.0735Q15.2734 9.88305 15.2734 9.61937Q15.2734 9.3557 15.0879 9.16527Q14.9023 8.97484 14.6484 8.97484L12.8418 8.97484ZM5.27344 15.5471L7.08008 15.5471L7.08008 14.258L5.27344 14.258Q5.01953 14.258 4.83398 14.4436Q4.64844 14.6291 4.64844 14.8928Q4.64844 15.1662 4.83398 15.3567Q5.01953 15.5471 5.27344 15.5471ZM8.35938 16.8752Q8.91602 16.8752 9.36523 16.6067Q9.81445 16.3381 10.083 15.8889Q10.3516 15.4397 10.3516 14.8928Q10.3516 14.3459 10.083 13.8967Q9.81445 13.4475 9.36523 13.1789Q8.91602 12.9104 8.35938 12.9104Q7.82227 12.9104 7.37305 13.1789Q6.92383 13.4475 6.65527 13.8967Q6.38672 14.3459 6.38672 14.8928Q6.38672 15.4397 6.65527 15.8889Q6.92383 16.3381 7.37305 16.6067Q7.82227 16.8752 8.35938 16.8752ZM8.35938 15.8694Q7.95898 15.8694 7.67578 15.5862Q7.39258 15.303 7.39258 14.883Q7.39258 14.4729 7.67578 14.1946Q7.95898 13.9162 8.35938 13.9162Q8.7793 13.9162 9.0625 14.1946Q9.3457 14.4729 9.3457 14.883Q9.3457 15.303 9.0625 15.5862Q8.7793 15.8694 8.35938 15.8694ZM9.72656 15.5471L14.6094 15.5471Q14.8926 15.5471 15.083 15.3567Q15.2734 15.1662 15.2734 14.8928Q15.2734 14.6291 15.083 14.4436Q14.8926 14.258 14.6094 14.258L9.72656 14.258Z" fill="#ffffff"/>
 </g>
</svg>
