<?xml version="1.0" encoding="UTF-8"?>
<!--Generator: Apple Native CoreSVG 175.5-->
<!DOCTYPE svg
PUBLIC "-//W3C//DTD SVG 1.1//EN"
       "http://www.w3.org/Graphics/SVG/1.1/DTD/svg11.dtd">
<svg version="1.1" xmlns="http://www.w3.org/2000/svg" xmlns:xlink="http://www.w3.org/1999/xlink" width="19.9219" height="19.9316">
 <g>
  <rect height="19.9316" opacity="0" width="19.9219" x="0" y="0"/>
  <path d="M9.96094 19.9219Q12.002 19.9219 13.8037 19.1406Q15.6055 18.3594 16.9824 16.9824Q18.3594 15.6055 19.1406 13.8037Q19.9219 12.002 19.9219 9.96094Q19.9219 7.91992 19.1406 6.11816Q18.3594 4.31641 16.9824 2.93945Q15.6055 1.5625 13.7988 0.78125Q11.9922 0 9.95117 0Q7.91016 0 6.1084 0.78125Q4.30664 1.5625 2.93457 2.93945Q1.5625 4.31641 0.78125 6.11816Q0 7.91992 0 9.96094Q0 12.002 0.78125 13.8037Q1.5625 15.6055 2.93945 16.9824Q4.31641 18.3594 6.11816 19.1406Q7.91992 19.9219 9.96094 19.9219Z" fill="#ffffff"/>
  <path d="M9.99023 13.0957Q9.12109 13.0957 8.4082 12.666Q7.69531 12.2363 7.26562 11.5234Q6.83594 10.8105 6.83594 9.94141Q6.83594 9.08203 7.26562 8.37402Q7.69531 7.66602 8.4082 7.24121Q9.12109 6.81641 9.99023 6.81641Q10.8496 6.81641 11.5625 7.24121Q12.2754 7.66602 12.7002 8.37402Q13.125 9.08203 13.125 9.94141Q13.125 10.8105 12.7002 11.5234Q12.2754 12.2363 11.5625 12.666Q10.8496 13.0957 9.99023 13.0957Z" fill="none"/>
 </g>
</svg>
