<?xml version="1.0" encoding="UTF-8"?>
<!--Generator: Apple Native CoreSVG 175-->
<!DOCTYPE svg
PUBLIC "-//W3C//DTD SVG 1.1//EN"
       "http://www.w3.org/Graphics/SVG/1.1/DTD/svg11.dtd">
<svg version="1.1" xmlns="http://www.w3.org/2000/svg" xmlns:xlink="http://www.w3.org/1999/xlink" width="19.1602" height="19.1504">
 <g>
  <rect height="19.1504" opacity="0" width="19.1602" x="0" y="0"/>
  <path d="M9.57031 19.1406Q11.5527 19.1406 13.2861 18.3984Q15.0195 17.6562 16.3379 16.333Q17.6562 15.0098 18.4082 13.2764Q19.1602 11.543 19.1602 9.57031Q19.1602 7.59766 18.4082 5.86426Q17.6562 4.13086 16.3379 2.80762Q15.0195 1.48438 13.2861 0.742188Q11.5527 0 9.57031 0Q7.59766 0 5.86426 0.742188Q4.13086 1.48438 2.81738 2.80762Q1.50391 4.13086 0.751953 5.86426Q0 7.59766 0 9.57031Q0 11.543 0.74707 13.2764Q1.49414 15.0098 2.8125 16.333Q4.13086 17.6562 5.86914 18.3984Q7.60742 19.1406 9.57031 19.1406ZM9.58984 12.6562Q8.73047 12.6562 8.02734 12.2412Q7.32422 11.8262 6.89941 11.1182Q6.47461 10.4102 6.47461 9.55078Q6.47461 8.69141 6.89941 7.99316Q7.32422 7.29492 8.02734 6.875Q8.73047 6.45508 9.58984 6.45508Q10.4395 6.45508 11.1475 6.875Q11.8555 7.29492 12.2705 7.99316Q12.6855 8.69141 12.6855 9.55078Q12.6855 10.4102 12.2705 11.1182Q11.8555 11.8262 11.1475 12.2412Q10.4395 12.6562 9.58984 12.6562Z" fill="#ffffff"/>
 </g>
</svg>
