<?xml version="1.0" encoding="UTF-8"?>
<!--Generator: Apple Native CoreSVG 175.5-->
<!DOCTYPE svg
PUBLIC "-//W3C//DTD SVG 1.1//EN"
       "http://www.w3.org/Graphics/SVG/1.1/DTD/svg11.dtd">
<svg version="1.1" xmlns="http://www.w3.org/2000/svg" xmlns:xlink="http://www.w3.org/1999/xlink" width="24.4141" height="20.1855">
 <g>
  <rect height="20.1855" opacity="0" width="24.4141" x="0" y="0"/>
  <path d="M2.50977 16.875L21.9043 16.875Q23.1445 16.875 23.7793 16.2402Q24.4141 15.6055 24.4141 14.3652L24.4141 3.17383Q24.4141 1.94336 23.7793 1.30859Q23.1445 0.673828 21.9043 0.673828L2.50977 0.673828Q1.26953 0.673828 0.634766 1.30859Q0 1.94336 0 3.17383L0 14.3652Q0 15.6055 0.634766 16.2402Q1.26953 16.875 2.50977 16.875ZM2.53906 15.3027Q2.06055 15.3027 1.81641 15.0635Q1.57227 14.8242 1.57227 14.3457L1.57227 3.20312Q1.57227 2.72461 1.81641 2.48535Q2.06055 2.24609 2.53906 2.24609L21.875 2.24609Q22.3633 2.24609 22.6025 2.48535Q22.8418 2.72461 22.8418 3.20312L22.8418 14.3457Q22.8418 14.8242 22.6025 15.0635Q22.3633 15.3027 21.875 15.3027ZM7.29492 20.1855L17.1191 20.1855Q17.4414 20.1855 17.6758 19.9561Q17.9102 19.7266 17.9102 19.3945Q17.9102 19.0723 17.6758 18.8379Q17.4414 18.6035 17.1191 18.6035L7.29492 18.6035Q6.97266 18.6035 6.73828 18.8379Q6.50391 19.0723 6.50391 19.3945Q6.50391 19.7266 6.73828 19.9561Q6.97266 20.1855 7.29492 20.1855Z" fill="#ffffff"/>
  <path d="M12.6953 12.7246Q12.9688 12.7246 13.0469 12.4121Q13.2031 11.543 13.3594 10.9424Q13.5156 10.3418 13.75 9.94141Q13.9844 9.54102 14.3604 9.28711Q14.7363 9.0332 15.3369 8.87207Q15.9375 8.71094 16.8359 8.59375Q17.1582 8.55469 17.1582 8.24219Q17.1582 7.93945 16.8359 7.89062Q15.9375 7.76367 15.332 7.60254Q14.7266 7.44141 14.3359 7.1875Q13.9453 6.93359 13.7061 6.5332Q13.4668 6.13281 13.3203 5.53711Q13.1738 4.94141 13.0469 4.10156Q12.9883 3.76953 12.6953 3.76953Q12.3926 3.76953 12.3242 4.0918Q12.168 4.95117 12.0068 5.55176Q11.8457 6.15234 11.6162 6.55273Q11.3867 6.95312 11.0107 7.20215Q10.6348 7.45117 10.0342 7.60742Q9.43359 7.76367 8.54492 7.89062Q8.21289 7.93945 8.21289 8.24219Q8.21289 8.54492 8.54492 8.59375Q9.66797 8.71094 10.3467 8.9209Q11.0254 9.13086 11.4014 9.53613Q11.7773 9.94141 11.9727 10.6348Q12.168 11.3281 12.3242 12.4023Q12.3828 12.7246 12.6953 12.7246ZM8.84766 14.3066Q9.0625 14.3066 9.11133 14.0918Q9.24805 13.3789 9.3457 13.0566Q9.44336 12.7344 9.75586 12.6074Q10.0684 12.4805 10.8398 12.3633Q11.0742 12.334 11.0742 12.0996Q11.0742 11.8652 10.8398 11.8359Q10.0684 11.6992 9.75586 11.5723Q9.44336 11.4453 9.3457 11.1328Q9.24805 10.8203 9.11133 10.127Q9.0625 9.88281 8.84766 9.88281Q8.63281 9.88281 8.57422 10.127Q8.4375 10.8203 8.34473 11.1328Q8.25195 11.4453 7.94434 11.5723Q7.63672 11.6992 6.85547 11.8359Q6.63086 11.8652 6.63086 12.0996Q6.63086 12.334 6.875 12.3633Q7.64648 12.4805 7.94922 12.6074Q8.25195 12.7344 8.34473 13.0518Q8.4375 13.3691 8.57422 14.0625Q8.63281 14.3066 8.84766 14.3066Z" fill="#ffffff"/>
 </g>
</svg>
