<?xml version="1.0" encoding="UTF-8"?>
<!--Generator: Apple Native CoreSVG 175-->
<!DOCTYPE svg
PUBLIC "-//W3C//DTD SVG 1.1//EN"
       "http://www.w3.org/Graphics/SVG/1.1/DTD/svg11.dtd">
<svg version="1.1" xmlns="http://www.w3.org/2000/svg" xmlns:xlink="http://www.w3.org/1999/xlink" width="21.1914" height="16.3965">
 <g>
  <rect height="16.3965" opacity="0" width="21.1914" x="0" y="0"/>
  <path d="M10.1953 16.3867Q10.5273 16.3867 10.7031 16.1719Q10.8789 15.957 10.8789 15.6445L10.8789 0.751953Q10.8789 0.449219 10.6982 0.224609Q10.5176 0 10.1953 0Q9.96094 0 9.77539 0.107422Q9.58984 0.214844 9.4043 0.390625L5 4.64844Q4.86328 4.77539 4.62891 4.77539L1.57227 4.77539Q0.888672 4.77539 0.444336 5.22461Q0 5.67383 0 6.36719L0 10.1172Q0 10.8105 0.444336 11.2549Q0.888672 11.6992 1.57227 11.6992L4.62891 11.6992Q4.85352 11.6992 5 11.8457L9.4043 16.0156Q9.57031 16.1816 9.77051 16.2842Q9.9707 16.3867 10.1953 16.3867ZM20.8887 6.23047L18.5156 6.23047L18.5156 6.17188L20.8789 3.125Q20.9863 2.98828 21.0352 2.90039Q21.084 2.8125 21.084 2.70508Q21.084 2.54883 20.9717 2.46094Q20.8594 2.37305 20.6934 2.37305L17.9102 2.37305Q17.7637 2.37305 17.6807 2.45605Q17.5977 2.53906 17.5977 2.67578Q17.5977 2.79297 17.6807 2.88086Q17.7637 2.96875 17.9102 2.96875L20.166 2.96875L20.166 3.01758L17.8125 6.06445Q17.7051 6.20117 17.6562 6.28906Q17.6074 6.37695 17.6074 6.48438Q17.6074 6.65039 17.7197 6.73828Q17.832 6.82617 17.998 6.82617L20.8887 6.82617Q21.0254 6.82617 21.1084 6.73828Q21.1914 6.65039 21.1914 6.52344Q21.1914 6.39648 21.1084 6.31348Q21.0254 6.23047 20.8887 6.23047ZM16.0254 9.78516L14.0918 9.78516L14.0918 9.73633L16.0156 7.27539Q16.123 7.14844 16.1719 7.06055Q16.2207 6.97266 16.2207 6.86523Q16.2207 6.70898 16.1084 6.62109Q15.9961 6.5332 15.8398 6.5332L13.5059 6.5332Q13.3789 6.5332 13.291 6.62109Q13.2031 6.70898 13.2031 6.82617Q13.2031 6.95312 13.291 7.03613Q13.3789 7.11914 13.5059 7.11914L15.3223 7.11914L15.3223 7.16797L13.418 9.62891Q13.3105 9.75586 13.2617 9.84375Q13.2129 9.93164 13.2129 10.0391Q13.2129 10.1953 13.3203 10.2881Q13.4277 10.3809 13.5938 10.3809L16.0254 10.3809Q16.1621 10.3809 16.2451 10.293Q16.3281 10.2051 16.3281 10.0781Q16.3281 9.96094 16.2451 9.87305Q16.1621 9.78516 16.0254 9.78516ZM20.0879 12.8809L18.4961 12.8809L18.4961 12.8418L20.0684 10.8398Q20.166 10.7031 20.2197 10.6201Q20.2734 10.5371 20.2734 10.4297Q20.2734 10.2637 20.166 10.1807Q20.0586 10.0977 19.8926 10.0977L17.9297 10.0977Q17.793 10.0977 17.7148 10.1855Q17.6367 10.2734 17.6367 10.3906Q17.6367 10.5078 17.7148 10.5908Q17.793 10.6738 17.9297 10.6738L19.3945 10.6738L19.3945 10.7227L17.8418 12.7246Q17.7344 12.8613 17.6807 12.9443Q17.627 13.0273 17.627 13.1348Q17.627 13.291 17.7393 13.374Q17.8516 13.457 18.0078 13.457L20.0879 13.457Q20.2148 13.457 20.2979 13.374Q20.3809 13.291 20.3809 13.1738Q20.3809 13.0566 20.2979 12.9688Q20.2148 12.8809 20.0879 12.8809Z" fill="#ffffff"/>
 </g>
</svg>
