<?xml version="1.0" encoding="UTF-8"?>
<!--Generator: Apple Native CoreSVG 175-->
<!DOCTYPE svg
PUBLIC "-//W3C//DTD SVG 1.1//EN"
       "http://www.w3.org/Graphics/SVG/1.1/DTD/svg11.dtd">
<svg version="1.1" xmlns="http://www.w3.org/2000/svg" xmlns:xlink="http://www.w3.org/1999/xlink" width="19.1554" height="19.1583">
 <g>
  <rect height="19.1583" opacity="0" width="19.1554" x="0" y="0"/>
  <path d="M5.1059 14.8605Q5.43594 14.8605 5.67558 14.6217Q5.91522 14.3828 5.91522 14.0485Q5.91522 13.7141 5.67558 13.4766Q5.43594 13.2391 5.1059 13.2391Q4.77158 13.2391 4.53056 13.4766Q4.28955 13.7141 4.28955 14.0485Q4.28955 14.3828 4.53056 14.6217Q4.77158 14.8605 5.1059 14.8605ZM3.24341 10.3978Q3.58047 10.3978 3.81798 10.1567Q4.05548 9.91562 4.05548 9.5813Q4.05548 9.24423 3.81798 9.0081Q3.58047 8.77197 3.24341 8.77197Q2.90909 8.77197 2.67159 9.0081Q2.43408 9.24423 2.43408 9.5813Q2.43408 9.91562 2.67159 10.1567Q2.90909 10.3978 3.24341 10.3978ZM5.1004 5.93048Q5.43747 5.93048 5.67368 5.68947Q5.90988 5.44846 5.90988 5.11414Q5.90988 4.78409 5.67368 4.54445Q5.43747 4.30481 5.1004 4.30481Q4.76608 4.30481 4.52858 4.54445Q4.29108 4.78409 4.29108 5.11414Q4.29108 5.44846 4.52858 5.68947Q4.76608 5.93048 5.1004 5.93048ZM9.57153 4.06418Q9.90585 4.06418 10.1469 3.82317Q10.3879 3.58215 10.3879 3.24768Q10.3879 2.91061 10.1469 2.67311Q9.90585 2.43561 9.57153 2.43561Q9.24149 2.43561 9.00177 2.67311Q8.76205 2.91061 8.76205 3.24768Q8.76205 3.58215 9.00177 3.82317Q9.24149 4.06418 9.57153 4.06418ZM15.9067 10.3978Q16.241 10.3978 16.4785 10.1567Q16.716 9.91562 16.716 9.5813Q16.716 9.24423 16.4785 9.0081Q16.241 8.77197 15.9067 8.77197Q15.5695 8.77197 15.3298 9.0081Q15.0902 9.24423 15.0902 9.5813Q15.0902 9.91562 15.3298 10.1567Q15.5695 10.3978 15.9067 10.3978ZM14.0442 14.8605Q14.3785 14.8605 14.616 14.6217Q14.8535 14.3828 14.8535 14.0485Q14.8535 13.7141 14.616 13.4766Q14.3785 13.2391 14.0442 13.2391Q13.7097 13.2391 13.4722 13.4766Q13.2347 13.7141 13.2347 14.0485Q13.2347 14.3828 13.4722 14.6217Q13.7097 14.8605 14.0442 14.8605ZM8.34915 10.6212Q8.67233 10.9274 9.03282 10.9845Q9.39331 11.0416 9.74136 10.8751Q10.0894 10.7086 10.3723 10.3552L14.7882 4.79111Q14.9219 4.61731 14.8754 4.47624Q14.8289 4.33517 14.6844 4.29008Q14.5398 4.245 14.373 4.3689L8.6055 8.58841Q8.24493 8.85437 8.07503 9.20731Q7.90512 9.56024 7.967 9.93271Q8.02887 10.3052 8.34915 10.6212ZM9.57428 19.1486Q11.552 19.1486 13.2834 18.4024Q15.0148 17.6562 16.3355 16.3356Q17.6562 15.015 18.4058 13.28Q19.1554 11.545 19.1554 9.57428Q19.1554 7.60361 18.4058 5.86861Q17.6562 4.13361 16.3355 2.81296Q15.0148 1.49231 13.282 0.746155Q11.5492 0 9.57153 0Q7.60086 0 5.86586 0.746155Q4.13086 1.49231 2.81502 2.81296Q1.49918 4.13361 0.749588 5.86861Q0 7.60361 0 9.57428Q0 11.545 0.746078 13.28Q1.49216 15.015 2.81288 16.3356Q4.13361 17.6562 5.86853 18.4024Q7.60345 19.1486 9.57428 19.1486ZM9.57428 18.4024Q7.74734 18.4024 6.14853 17.7157Q4.54971 17.029 3.33466 15.8174Q2.1196 14.6059 1.43425 13.0035Q0.748901 11.4012 0.748901 9.57428Q0.748901 7.74734 1.43425 6.14502Q2.1196 4.54269 3.33328 3.32626Q4.54697 2.10983 6.14578 1.42448Q7.7446 0.739136 9.57153 0.739136Q11.4055 0.739136 13.0043 1.42448Q14.6031 2.10983 15.8195 3.32626Q17.036 4.54269 17.7227 6.14502Q18.4094 7.74734 18.4094 9.57428Q18.4094 11.4012 17.7241 13.0035Q17.0387 14.6059 15.8237 15.8174Q14.6086 17.029 13.0084 17.7157Q11.4082 18.4024 9.57428 18.4024Z" fill="#ffffff"/>
 </g>
</svg>
