<?xml version="1.0" encoding="UTF-8"?>
<!--Generator: Apple Native CoreSVG 175.5-->
<!DOCTYPE svg
PUBLIC "-//W3C//DTD SVG 1.1//EN"
       "http://www.w3.org/Graphics/SVG/1.1/DTD/svg11.dtd">
<svg version="1.1" xmlns="http://www.w3.org/2000/svg" xmlns:xlink="http://www.w3.org/1999/xlink" width="23.2812" height="18.7793">
 <g>
  <rect height="18.7793" opacity="0" width="23.2812" x="0" y="0"/>
  <path d="M10.6543 1.05469L5.625 0.507812Q4.96094 0.429688 4.53613 0.805664Q4.11133 1.18164 4.11133 1.80664Q4.11133 2.44141 4.53613 2.81738Q4.96094 3.19336 5.625 3.125L10.6543 2.56836ZM11.543 3.62305Q12.0508 3.62305 12.4609 3.37891Q12.8711 3.13477 13.1152 2.72461Q13.3594 2.31445 13.3594 1.80664Q13.3594 1.30859 13.1152 0.898438Q12.8711 0.488281 12.4609 0.244141Q12.0508 0 11.543 0Q11.0449 0 10.6348 0.244141Q10.2246 0.488281 9.98047 0.898438Q9.73633 1.30859 9.73633 1.80664Q9.73633 2.31445 9.98047 2.72461Q10.2246 3.13477 10.6348 3.37891Q11.0449 3.62305 11.543 3.62305ZM12.4316 1.05469L12.4316 2.56836L17.4707 3.125Q18.125 3.19336 18.5498 2.81738Q18.9746 2.44141 18.9746 1.80664Q18.9746 1.18164 18.5498 0.805664Q18.125 0.429688 17.4707 0.507812ZM10.6836 2.91992L10.6836 5.23438L12.4121 5.23438L12.4121 2.91992ZM8.81836 7.10938L14.248 7.10938L14.248 5.83008Q14.248 5.25391 13.9111 4.91699Q13.5742 4.58008 12.998 4.58008L10.0586 4.58008Q9.48242 4.58008 9.15039 4.91699Q8.81836 5.25391 8.81836 5.83008ZM11.5332 16.8457Q12.3438 16.8457 12.9785 16.6357Q13.6133 16.4258 14.1553 16.0498Q14.6973 15.6738 15.2441 15.1758Q15.5762 14.8438 15.9814 14.6777Q16.3867 14.5117 16.7676 14.5117Q17.4902 14.5117 17.998 15.0293Q18.5059 15.5469 18.5059 16.5137L18.5059 17.8711Q18.5059 18.1836 18.6475 18.3252Q18.7891 18.4668 19.1016 18.4668L22.6758 18.4668Q22.9883 18.4668 23.1348 18.3252Q23.2812 18.1836 23.2812 17.8711L23.2812 16.9629Q23.2812 14.873 22.7295 13.4521Q22.1777 12.0312 21.2451 11.167Q20.3125 10.3027 19.1699 9.92188Q18.0273 9.54102 16.8359 9.54102L16.416 9.54102Q16.2109 9.54102 16.0742 9.43848Q15.9375 9.33594 15.8789 9.16992L15.2832 7.55859Q15.1465 7.1875 14.9902 7.06543Q14.834 6.94336 14.5117 6.94336L8.54492 6.94336Q8.22266 6.94336 8.06641 7.06543Q7.91016 7.1875 7.77344 7.55859L7.1875 9.16992Q7.11914 9.33594 6.98242 9.43848Q6.8457 9.54102 6.65039 9.54102L0.908203 9.54102L0.908203 14.4531L6.31836 14.4531Q6.76758 14.4531 7.05078 14.5557Q7.33398 14.6582 7.65625 15.0293Q8.13477 15.5469 8.7207 15.957Q9.30664 16.3672 10.0098 16.6064Q10.7129 16.8457 11.5332 16.8457ZM0.78125 16.9141Q1.11328 16.9141 1.34277 16.6797Q1.57227 16.4453 1.57227 16.123L1.57227 8.14453Q1.57227 7.82227 1.34277 7.58789Q1.11328 7.35352 0.78125 7.35352Q0.458984 7.35352 0.229492 7.58789Q0 7.82227 0 8.14453L0 16.123Q0 16.4453 0.229492 16.6797Q0.458984 16.9141 0.78125 16.9141Z" fill="#ffffff"/>
 </g>
</svg>
