<?xml version="1.0" encoding="UTF-8"?>
<!--Generator: Apple Native CoreSVG 175-->
<!DOCTYPE svg
PUBLIC "-//W3C//DTD SVG 1.1//EN"
       "http://www.w3.org/Graphics/SVG/1.1/DTD/svg11.dtd">
<svg version="1.1" xmlns="http://www.w3.org/2000/svg" xmlns:xlink="http://www.w3.org/1999/xlink" width="24.9454" height="17.323">
 <g>
  <rect height="17.323" opacity="0" width="24.9454" x="0" y="0"/>
  <path d="M0 14.6965Q0 15.9921 0.668182 16.6576Q1.33636 17.323 2.63046 17.323L12.0235 17.323L12.0235 13.0469Q10.8867 12.9665 9.97269 12.3737Q9.05869 11.7809 8.52684 10.817Q7.995 9.85306 7.995 8.68042Q7.995 7.49802 8.52684 6.53763Q9.05869 5.57724 9.97269 4.981Q10.8867 4.38477 12.0235 4.30695L12.0235 0.0335693L2.63046 0.0335693Q1.33636 0.0335693 0.668182 0.699005Q0 1.36444 0 2.66006L0 4.17618L3.51364 4.17618Q4.40308 4.17618 4.86992 4.64508Q5.33676 5.11398 5.33676 6.00342L5.33676 11.3504Q5.33676 12.2371 4.86992 12.7074Q4.40308 13.1776 3.51364 13.1776L0 13.1776ZM0 12.4968L3.48709 12.4968Q4.65576 12.4968 4.65576 11.3254L4.65576 6.02844Q4.65576 4.86404 3.48709 4.86404L0 4.86404ZM8.66806 8.67767Q8.66806 9.65393 9.11255 10.464Q9.55704 11.2741 10.3152 11.7818Q11.0735 12.2894 12.0235 12.3698L12.0235 4.98672Q11.0735 5.06714 10.3152 5.57343Q9.55704 6.07971 9.11255 6.8885Q8.66806 7.6973 8.66806 8.67767ZM12.7113 17.323L22.3106 17.323Q23.6118 17.323 24.2786 16.6505Q24.9454 15.9781 24.9454 14.6965L24.9454 13.1776L21.4345 13.1776Q20.5423 13.1776 20.0733 12.7074Q19.6043 12.2371 19.6043 11.3504L19.6043 6.00342Q19.6043 5.11398 20.0733 4.64508Q20.5423 4.17618 21.4345 4.17618L24.9454 4.17618L24.9454 2.66006Q24.9454 1.37848 24.2786 0.706024Q23.6118 0.0335693 22.3106 0.0335693L12.7113 0.0335693L12.7113 4.31244Q13.8524 4.3956 14.7665 4.98978Q15.6805 5.58395 16.2089 6.54297Q16.7372 7.50198 16.74 8.68042Q16.7453 9.85306 16.2148 10.8156Q15.6844 11.7781 14.7676 12.3709Q13.8509 12.9637 12.7113 13.0469ZM12.7113 12.3698Q13.6613 12.2894 14.4196 11.7818Q15.1778 11.2741 15.621 10.464Q16.0641 9.65393 16.0667 8.67767Q16.0667 7.6973 15.6236 6.8885Q15.1805 6.07971 14.4209 5.57205Q13.6613 5.06439 12.7113 4.98672ZM20.2922 11.3254Q20.2922 12.4968 21.4513 12.4968L24.9454 12.4968L24.9454 4.86404L21.4513 4.86404Q20.2922 4.86404 20.2922 6.02844Z" fill="rgba(0,0,0,0.85)"/>
 </g>
</svg>
