<?xml version="1.0" encoding="UTF-8"?>
<!--Generator: Apple Native CoreSVG 175-->
<!DOCTYPE svg
PUBLIC "-//W3C//DTD SVG 1.1//EN"
       "http://www.w3.org/Graphics/SVG/1.1/DTD/svg11.dtd">
<svg version="1.1" xmlns="http://www.w3.org/2000/svg" xmlns:xlink="http://www.w3.org/1999/xlink" width="18.418" height="21.2984">
 <g>
  <rect height="21.2984" opacity="0" width="18.418" x="0" y="0"/>
  <path d="M10.166 10.9568Q10.166 10.6541 10.1025 10.4441Q10.0391 10.2342 9.87793 10.0731Q9.7168 9.91192 9.44336 9.7459L1.41602 5.10723Q1.04492 4.89239 0.722656 4.93145Q0.400391 4.97051 0.200195 5.2Q0 5.4295 0 5.80059L0 15.2537Q0 15.5564 0.0585938 15.7664Q0.117188 15.9764 0.273438 16.1326Q0.429688 16.2889 0.732422 16.4647L8.70117 21.074Q9.0918 21.2986 9.42383 21.284Q9.75586 21.2693 9.96094 21.0106Q10.166 20.7518 10.166 20.2537ZM9.12109 10.4197Q9.29688 10.5272 9.37012 10.6395Q9.44336 10.7518 9.44336 10.9666L9.44336 20.2928Q9.44336 20.4295 9.35547 20.4832Q9.26758 20.5369 9.11133 20.4588L1.05469 15.8006Q0.869141 15.6932 0.795898 15.5857Q0.722656 15.4783 0.722656 15.2439L0.722656 6.00567Q0.722656 5.82989 0.849609 5.76641Q0.976562 5.70293 1.11328 5.79082ZM9.77539 16.7479L12.9785 18.5936Q13.3594 18.8084 13.6963 18.7938Q14.0332 18.7791 14.2334 18.5252Q14.4336 18.2713 14.4336 17.7732L14.4336 8.47637Q14.4336 8.16387 14.3701 7.95879Q14.3066 7.75371 14.1504 7.5877Q13.9941 7.42168 13.7109 7.26543L5.68359 2.62676Q5.32227 2.41192 4.99512 2.45098Q4.66797 2.49004 4.46777 2.71465Q4.26758 2.93926 4.26758 3.32012L4.26758 7.13848L5 7.52911L5 3.5252Q5 3.34942 5.12695 3.28594Q5.25391 3.22246 5.39062 3.30059L13.3887 7.93926Q13.5742 8.04668 13.6426 8.15899Q13.7109 8.27129 13.7109 8.4959L13.7109 17.8025Q13.7109 17.949 13.623 18.0076Q13.5352 18.0662 13.3789 17.9686L9.77539 15.8982ZM14.043 14.4725L16.9531 16.1522Q17.334 16.367 17.6709 16.3523Q18.0078 16.3377 18.2129 16.0838Q18.418 15.8299 18.418 15.3318L18.418 6.03496Q18.418 5.73223 18.3545 5.51739Q18.291 5.30254 18.1299 5.14629Q17.9688 4.99004 17.6855 4.82403L9.66797 0.185355Q9.29688-0.0294884 8.97461 0.00469133Q8.65234 0.038871 8.45215 0.273246Q8.25195 0.507621 8.25195 0.878715L8.25195 4.59942L8.97461 4.97051L8.97461 1.09356Q8.97461 0.898246 9.10156 0.839652Q9.22852 0.781059 9.36523 0.859184L17.3633 5.49786Q17.5488 5.60528 17.6172 5.71758Q17.6855 5.82989 17.6855 6.04473L17.6855 15.3611Q17.6855 15.5076 17.5977 15.5662Q17.5098 15.6248 17.3633 15.5369L14.043 13.6131Z" fill="#ffffff"/>
 </g>
</svg>
