<?xml version="1.0" encoding="UTF-8"?>
<!--Generator: Apple Native CoreSVG 175-->
<!DOCTYPE svg
PUBLIC "-//W3C//DTD SVG 1.1//EN"
       "http://www.w3.org/Graphics/SVG/1.1/DTD/svg11.dtd">
<svg version="1.1" xmlns="http://www.w3.org/2000/svg" xmlns:xlink="http://www.w3.org/1999/xlink" width="17.2852" height="17.3145">
 <g>
  <rect height="17.3145" opacity="0" width="17.2852" x="0" y="0"/>
  <path d="M0 5.11719L0.732422 5.11719L0.732422 2.69531Q0.732422 1.72852 1.2207 1.24512Q1.70898 0.761719 2.65625 0.761719L5.06836 0.761719L5.06836 0.0292969L2.62695 0.0292969Q1.33789 0.0292969 0.668945 0.693359Q0 1.35742 0 2.65625ZM5.94727 0.761719L11.3477 0.761719L11.3477 0.0292969L5.94727 0.0292969ZM16.5625 5.11719L17.2852 5.11719L17.2852 2.65625Q17.2852 1.37695 16.6211 0.703125Q15.957 0.0292969 14.6484 0.0292969L12.2168 0.0292969L12.2168 0.761719L14.6289 0.761719Q15.5566 0.761719 16.0596 1.24512Q16.5625 1.72852 16.5625 2.69531ZM16.5625 11.3672L17.2852 11.3672L17.2852 5.97656L16.5625 5.97656ZM12.2168 17.3145L14.6484 17.3145Q15.957 17.3145 16.6211 16.6455Q17.2852 15.9766 17.2852 14.6875L17.2852 12.2363L16.5625 12.2363L16.5625 14.6582Q16.5625 15.6152 16.0596 16.1035Q15.5566 16.5918 14.6289 16.5918L12.2168 16.5918ZM5.94727 17.3145L11.3477 17.3145L11.3477 16.5918L5.94727 16.5918ZM2.62695 17.3145L5.06836 17.3145L5.06836 16.5918L2.65625 16.5918Q1.70898 16.5918 1.2207 16.1035Q0.732422 15.6152 0.732422 14.6582L0.732422 12.2363L0 12.2363L0 14.6875Q0 15.9863 0.668945 16.6504Q1.33789 17.3145 2.62695 17.3145ZM0 11.3672L0.732422 11.3672L0.732422 5.97656L0 5.97656ZM3.06641 15.7031L14.2285 15.7031Q15 15.7031 15.3467 15.3564Q15.6934 15.0098 15.6934 14.2285L15.6934 3.07617Q15.6934 2.29492 15.3467 1.94824Q15 1.60156 14.2285 1.60156L3.06641 1.60156Q2.28516 1.60156 1.94336 1.94824Q1.60156 2.29492 1.60156 3.07617L1.60156 14.2285Q1.60156 15.0098 1.94336 15.3564Q2.28516 15.7031 3.06641 15.7031Z" fill="rgba(0,0,0,0.85)"/>
 </g>
</svg>
