<?xml version="1.0" encoding="UTF-8"?>
<!--Generator: Apple Native CoreSVG 175.5-->
<!DOCTYPE svg
PUBLIC "-//W3C//DTD SVG 1.1//EN"
       "http://www.w3.org/Graphics/SVG/1.1/DTD/svg11.dtd">
<svg version="1.1" xmlns="http://www.w3.org/2000/svg" xmlns:xlink="http://www.w3.org/1999/xlink" width="17.9785" height="17.998">
 <g>
  <rect height="17.998" opacity="0" width="17.9785" x="0" y="0"/>
  <path d="M0.830078 9.79492L8.20312 9.79492L8.20312 17.168L9.77539 17.168L9.77539 9.79492L17.1484 9.79492L17.1484 8.22266L9.77539 8.22266L9.77539 0.849609L8.20312 0.849609L8.20312 8.22266L0.830078 8.22266ZM0 17.2168Q0 17.5684 0.214844 17.7832Q0.429688 17.998 0.78125 17.998L17.207 17.998Q17.5586 17.998 17.7686 17.7832Q17.9785 17.5684 17.9785 17.2168L17.9785 0.791016Q17.9785 0.439453 17.7686 0.229492Q17.5586 0.0195312 17.207 0.0195312L0.78125 0.0195312Q0.429688 0.0195312 0.214844 0.229492Q0 0.439453 0 0.791016ZM1.57227 16.1426L1.57227 1.875Q1.57227 1.5918 1.85547 1.5918L16.123 1.5918Q16.4062 1.5918 16.4062 1.875L16.4062 16.1426Q16.4062 16.4258 16.123 16.4258L1.85547 16.4258Q1.57227 16.4258 1.57227 16.1426Z" fill="#ffffff"/>
 </g>
</svg>
