<?xml version="1.0" encoding="UTF-8"?>
<!--Generator: Apple Native CoreSVG 175.5-->
<!DOCTYPE svg
PUBLIC "-//W3C//DTD SVG 1.1//EN"
       "http://www.w3.org/Graphics/SVG/1.1/DTD/svg11.dtd">
<svg version="1.1" xmlns="http://www.w3.org/2000/svg" xmlns:xlink="http://www.w3.org/1999/xlink" width="19.9707" height="22.1191">
 <g>
  <rect height="22.1191" opacity="0" width="19.9707" x="0" y="0"/>
  <path d="M9.99023 22.1191Q10.2539 22.1191 10.498 22.0068Q10.7422 21.8945 11.0547 21.709L19.4434 16.7578Q19.707 16.6016 19.8389 16.3721Q19.9707 16.1426 19.9707 15.9082Q19.9707 15.6152 19.79 15.3857Q19.6094 15.1562 19.4043 15.0488L10.3613 20.2832Q10.2539 20.3418 10.1611 20.3809Q10.0684 20.4199 9.99023 20.4199Q9.90234 20.4199 9.80957 20.3809Q9.7168 20.3418 9.60938 20.2832L0.566406 15.0488Q0.361328 15.1562 0.180664 15.3857Q0 15.6152 0 15.9082Q0 16.1426 0.131836 16.3721Q0.263672 16.6016 0.537109 16.7578L8.91602 21.709Q9.22852 21.8945 9.47266 22.0068Q9.7168 22.1191 9.99023 22.1191Z" fill="#ffffff"/>
  <path d="M9.99023 17.627Q10.2539 17.627 10.498 17.5098Q10.7422 17.3926 11.0547 17.2168L19.4434 12.2656Q19.7168 12.0996 19.8438 11.8701Q19.9707 11.6406 19.9707 11.416Q19.9707 11.1133 19.79 10.8838Q19.6094 10.6543 19.4043 10.5566L10.3613 15.7812Q10.2539 15.8398 10.1611 15.8789Q10.0684 15.918 9.99023 15.918Q9.90234 15.918 9.80957 15.8789Q9.7168 15.8398 9.60938 15.7812L0.566406 10.5566Q0.361328 10.6543 0.180664 10.8838Q0 11.1133 0 11.416Q0 11.6406 0.131836 11.8701Q0.263672 12.0996 0.537109 12.2656L8.91602 17.2168Q9.22852 17.3926 9.47266 17.5098Q9.7168 17.627 9.99023 17.627Z" fill="#ffffff"/>
  <path d="M9.99023 12.8125Q10.2832 12.8125 10.5811 12.7148Q10.8789 12.6172 11.2305 12.4121L18.8672 7.97852Q19.4629 7.62695 19.7119 7.3291Q19.9609 7.03125 19.9609 6.62109Q19.9609 6.2207 19.7119 5.92285Q19.4629 5.625 18.8672 5.27344L11.2305 0.839844Q10.8789 0.634766 10.5811 0.537109Q10.2832 0.439453 9.99023 0.439453Q9.6875 0.439453 9.39453 0.537109Q9.10156 0.634766 8.74023 0.839844L1.10352 5.27344Q0.507812 5.625 0.258789 5.92285Q0.00976562 6.2207 0.00976562 6.62109Q0.00976562 7.03125 0.258789 7.3291Q0.507812 7.62695 1.10352 7.97852L8.74023 12.4121Q9.10156 12.6172 9.39453 12.7148Q9.6875 12.8125 9.99023 12.8125ZM9.99023 11.1133Q9.79492 11.1133 9.55078 10.9766L2.11914 6.71875Q2.05078 6.67969 2.05078 6.62109Q2.05078 6.57227 2.11914 6.5332L9.55078 2.27539Q9.79492 2.13867 9.99023 2.13867Q10.1758 2.13867 10.4199 2.27539L17.8516 6.5332Q17.9199 6.57227 17.9199 6.62109Q17.9199 6.67969 17.8516 6.71875L10.4199 10.9766Q10.1758 11.1133 9.99023 11.1133Z" fill="#ffffff"/>
 </g>
</svg>
