<?xml version="1.0" encoding="UTF-8"?>
<!--Generator: Apple Native CoreSVG 175.5-->
<!DOCTYPE svg
PUBLIC "-//W3C//DTD SVG 1.1//EN"
       "http://www.w3.org/Graphics/SVG/1.1/DTD/svg11.dtd">
<svg version="1.1" xmlns="http://www.w3.org/2000/svg" xmlns:xlink="http://www.w3.org/1999/xlink" width="22.627" height="17.5879">
 <g>
  <rect height="17.5879" opacity="0" width="22.627" x="0" y="0"/>
  <path d="M3.01758 12.5586L19.6094 12.5586Q21.123 12.5586 21.875 11.8164Q22.627 11.0742 22.627 9.58008L22.627 2.97852Q22.627 1.47461 21.875 0.737305Q21.123 0 19.6094 0L3.01758 0Q1.51367 0 0.756836 0.737305Q0 1.47461 0 2.97852L0 9.58008Q0 11.0742 0.756836 11.8164Q1.51367 12.5586 3.01758 12.5586ZM3.03711 10.9863Q2.32422 10.9863 1.94824 10.6152Q1.57227 10.2441 1.57227 9.50195L1.57227 3.05664Q1.57227 2.30469 1.94824 1.93359Q2.32422 1.5625 3.03711 1.5625L19.5898 1.5625Q20.3125 1.5625 20.6836 1.93359Q21.0547 2.30469 21.0547 3.05664L21.0547 9.50195Q21.0547 10.2441 20.6836 10.6152Q20.3125 10.9863 19.5898 10.9863Z" fill="#ffffff"/>
  <path d="M0.976562 17.5098L3.03711 17.5098Q3.25195 17.5098 3.39844 17.3682Q3.54492 17.2266 3.54492 17.0117L3.54492 14.9707Q3.54492 14.7363 3.40332 14.5947Q3.26172 14.4531 3.03711 14.4531L0.976562 14.4531Q0.458984 14.4531 0.458984 14.9707L0.458984 17.0117Q0.458984 17.2266 0.605469 17.3682Q0.751953 17.5098 0.976562 17.5098ZM5.63477 17.5098L7.69531 17.5098Q7.91016 17.5098 8.05664 17.3682Q8.20312 17.2266 8.20312 17.0117L8.20312 14.9707Q8.20312 14.7363 8.06152 14.5947Q7.91992 14.4531 7.69531 14.4531L5.63477 14.4531Q5.11719 14.4531 5.11719 14.9707L5.11719 17.0117Q5.11719 17.2266 5.26367 17.3682Q5.41016 17.5098 5.63477 17.5098ZM10.293 17.5098L12.3535 17.5098Q12.5684 17.5098 12.7148 17.3682Q12.8613 17.2266 12.8613 17.0117L12.8613 14.9707Q12.8613 14.7363 12.7197 14.5947Q12.5781 14.4531 12.3535 14.4531L10.293 14.4531Q9.77539 14.4531 9.77539 14.9707L9.77539 17.0117Q9.77539 17.2266 9.92188 17.3682Q10.0684 17.5098 10.293 17.5098ZM14.9512 17.5098L17.0117 17.5098Q17.2266 17.5098 17.373 17.3682Q17.5195 17.2266 17.5195 17.0117L17.5195 14.9707Q17.5195 14.7363 17.3779 14.5947Q17.2363 14.4531 17.0117 14.4531L14.9512 14.4531Q14.4336 14.4531 14.4336 14.9707L14.4336 17.0117Q14.4336 17.2266 14.5801 17.3682Q14.7266 17.5098 14.9512 17.5098ZM19.6094 17.5098L21.6699 17.5098Q21.8848 17.5098 22.0312 17.3682Q22.1777 17.2266 22.1777 17.0117L22.1777 14.9707Q22.1777 14.7363 22.0361 14.5947Q21.8945 14.4531 21.6699 14.4531L19.6094 14.4531Q19.0918 14.4531 19.0918 14.9707L19.0918 17.0117Q19.0918 17.2266 19.2383 17.3682Q19.3848 17.5098 19.6094 17.5098Z" fill="#ffffff"/>
 </g>
</svg>
