<?xml version="1.0" encoding="UTF-8"?>
<!--Generator: Apple Native CoreSVG 175.5-->
<!DOCTYPE svg
PUBLIC "-//W3C//DTD SVG 1.1//EN"
       "http://www.w3.org/Graphics/SVG/1.1/DTD/svg11.dtd">
<svg version="1.1" xmlns="http://www.w3.org/2000/svg" xmlns:xlink="http://www.w3.org/1999/xlink" width="19.209" height="22.5684">
 <g>
  <rect height="22.5684" opacity="0" width="19.209" x="0" y="0"/>
  <path d="M1.00586 17.9297Q1.29883 17.9297 1.58203 17.7344L1.58203 7.28516Q1.58203 7.10938 1.61133 6.99707Q1.64062 6.88477 1.72363 6.80176Q1.80664 6.71875 1.95312 6.63086L11.0059 1.41602Q11.0352 0.927734 10.7617 0.649414Q10.4883 0.371094 10.0781 0.371094Q9.88281 0.371094 9.67773 0.429688Q9.47266 0.488281 9.25781 0.615234L1.06445 5.32227Q0.585938 5.60547 0.361328 5.81055Q0.136719 6.01562 0.0683594 6.31348Q0 6.61133 0 7.16797L0 16.5137Q0 17.1387 0.27832 17.5342Q0.556641 17.9297 1.00586 17.9297Z" fill="#ffffff"/>
  <path d="M4.90234 20.1855Q5.19531 20.1855 5.47852 19.9902L5.47852 9.54102Q5.47852 9.3457 5.50781 9.23828Q5.53711 9.13086 5.61523 9.05273Q5.69336 8.97461 5.85938 8.88672L14.9121 3.66211Q14.9316 3.18359 14.6631 2.90039Q14.3945 2.61719 13.9648 2.61719Q13.584 2.61719 13.1543 2.85156L4.96094 7.56836Q4.48242 7.8418 4.25293 8.05176Q4.02344 8.26172 3.95508 8.56445Q3.88672 8.86719 3.88672 9.41406L3.88672 18.7695Q3.88672 19.3945 4.1748 19.79Q4.46289 20.1855 4.90234 20.1855Z" fill="#ffffff"/>
  <path d="M9.0918 22.5684Q9.60938 22.5684 10.332 22.1582L17.9883 17.7637Q18.4375 17.5 18.7061 17.2119Q18.9746 16.9238 19.0918 16.543Q19.209 16.1621 19.209 15.6152L19.209 6.76758Q19.209 5.88867 18.9111 5.44434Q18.6133 5 18.0664 5Q17.5586 5 16.875 5.39062L9.19922 9.81445Q8.74023 10.0879 8.4668 10.3809Q8.19336 10.6738 8.07617 11.0547Q7.95898 11.4355 7.95898 11.9629L7.95898 20.8105Q7.95898 21.6602 8.24707 22.1143Q8.53516 22.5684 9.0918 22.5684Z" fill="#ffffff"/>
 </g>
</svg>
