<?xml version="1.0" encoding="UTF-8"?>
<!--Generator: Apple Native CoreSVG 175.5-->
<!DOCTYPE svg
PUBLIC "-//W3C//DTD SVG 1.1//EN"
       "http://www.w3.org/Graphics/SVG/1.1/DTD/svg11.dtd">
<svg version="1.1" xmlns="http://www.w3.org/2000/svg" xmlns:xlink="http://www.w3.org/1999/xlink" width="17.9785" height="17.998">
 <g>
  <rect height="17.998" opacity="0" width="17.9785" x="0" y="0"/>
  <path d="M1.05469 8.22266L1.05469 9.79492L16.9531 9.79492L16.9531 8.22266ZM0 3.08594L0 14.9316Q0 16.4648 0.756836 17.2314Q1.51367 17.998 3.02734 17.998L14.9512 17.998Q16.4648 17.998 17.2217 17.2314Q17.9785 16.4648 17.9785 14.9316L17.9785 3.08594Q17.9785 1.55273 17.2217 0.786133Q16.4648 0.0195312 14.9512 0.0195312L3.02734 0.0195312Q1.51367 0.0195312 0.756836 0.786133Q0 1.55273 0 3.08594ZM1.57227 3.10547Q1.57227 2.37305 1.95801 1.98242Q2.34375 1.5918 3.10547 1.5918L14.873 1.5918Q15.6348 1.5918 16.0205 1.98242Q16.4062 2.37305 16.4062 3.10547L16.4062 14.9121Q16.4062 15.6348 16.0205 16.0303Q15.6348 16.4258 14.873 16.4258L3.10547 16.4258Q2.34375 16.4258 1.95801 16.0303Q1.57227 15.6348 1.57227 14.9121Z" fill="#ffffff"/>
 </g>
</svg>
