<?xml version="1.0" encoding="UTF-8"?>
<!--Generator: Apple Native CoreSVG 175-->
<!DOCTYPE svg
PUBLIC "-//W3C//DTD SVG 1.1//EN"
       "http://www.w3.org/Graphics/SVG/1.1/DTD/svg11.dtd">
<svg version="1.1" xmlns="http://www.w3.org/2000/svg" xmlns:xlink="http://www.w3.org/1999/xlink" width="18.7868" height="19.9231">
 <g>
  <rect height="19.9231" opacity="0" width="18.7868" x="0" y="0"/>
  <path d="M11.384 10.0723L17.7223 13.7219Q17.8918 13.8173 17.8918 13.9461Q17.8918 14.075 17.7223 14.1704L9.70703 18.777Q9.5192 18.8855 9.39697 18.8855Q9.26483 18.8855 9.077 18.777L1.06171 14.1704Q0.894928 14.075 0.894928 13.9461Q0.894928 13.8173 1.06171 13.7219L7.45987 10.0426L6.70349 9.62265L0.664825 13.109Q0.332031 13.2988 0.166016 13.4891Q0 13.6794 0 13.9461Q0 14.213 0.166016 14.4032Q0.332031 14.5934 0.664825 14.7806L8.66287 19.3997Q8.8739 19.5204 9.04381 19.5899Q9.21371 19.6594 9.39697 19.6594Q9.57031 19.6594 9.74159 19.5899Q9.91287 19.5204 10.1309 19.3997L18.1192 14.7806Q18.4547 14.5934 18.6208 14.4032Q18.7868 14.213 18.7868 13.9461Q18.7868 13.6794 18.6208 13.4891Q18.4547 13.2988 18.1192 13.109L12.1138 9.64691ZM9.39697 11.4267Q9.57031 11.4267 9.74159 11.3606Q9.91287 11.2946 10.1309 11.1668L18.1192 6.55045Q18.4547 6.36063 18.6208 6.17386Q18.7868 5.98709 18.7868 5.71335Q18.7868 5.44647 18.6208 5.25978Q18.4547 5.07309 18.1192 4.879L10.1309 0.266876Q9.91287 0.13916 9.74159 0.0695801Q9.57031 0 9.39697 0Q9.21371 0 9.04381 0.0695801Q8.8739 0.13916 8.66287 0.266876L0.664825 4.879Q0.332031 5.07309 0.166016 5.25978Q0 5.44647 0 5.71335Q0 5.98709 0.166016 6.17386Q0.332031 6.36063 0.664825 6.55045L8.66287 11.1668Q8.8739 11.2946 9.04381 11.3606Q9.21371 11.4267 9.39697 11.4267ZM9.39697 10.6528Q9.26483 10.6528 9.077 10.5441L1.06171 5.94452Q0.894928 5.8493 0.894928 5.71335Q0.894928 5.58441 1.06171 5.48904L9.077 0.882416Q9.26483 0.780945 9.39697 0.780945Q9.5192 0.780945 9.70703 0.882416L17.7223 5.48904Q17.8918 5.58441 17.8918 5.71335Q17.8918 5.8493 17.7223 5.94452L9.70703 10.5441Q9.5192 10.6528 9.39697 10.6528Z" fill="#ffffff"/>
 </g>
</svg>
