<?xml version="1.0" encoding="UTF-8"?>
<!--Generator: Apple Native CoreSVG 175-->
<!DOCTYPE svg
PUBLIC "-//W3C//DTD SVG 1.1//EN"
       "http://www.w3.org/Graphics/SVG/1.1/DTD/svg11.dtd">
<svg version="1.1" xmlns="http://www.w3.org/2000/svg" xmlns:xlink="http://www.w3.org/1999/xlink" width="18.4169" height="21.291">
 <g>
  <rect height="21.291" opacity="0" width="18.4169" x="0" y="0"/>
  <path d="M10.166 10.9551Q10.166 10.6469 10.1015 10.4397Q10.0371 10.2324 9.87892 10.0696Q9.72076 9.90667 9.44305 9.74416L1.41678 5.10305Q1.04813 4.89293 0.726624 4.92925Q0.405121 4.96556 0.20256 5.19544Q0 5.42531 0 5.79259L0 15.2527Q0 15.5523 0.0582123 15.7609Q0.116425 15.9696 0.274658 16.129Q0.432892 16.2883 0.728607 16.4562L8.70544 21.07Q9.09378 21.2919 9.42558 21.2787Q9.75739 21.2656 9.9617 21.009Q10.166 20.7523 10.166 20.2485ZM9.12186 10.4191Q9.30008 10.5277 9.36958 10.6355Q9.43909 10.7433 9.43909 10.9644L9.43909 20.2855Q9.43909 20.427 9.35432 20.4816Q9.26956 20.5362 9.1098 20.4508L1.05545 15.7969Q0.864868 15.6855 0.795898 15.5798Q0.726929 15.4741 0.726929 15.2445L0.726929 6.00621Q0.726929 5.8254 0.853119 5.76444Q0.979309 5.70348 1.11801 5.78481ZM9.77066 16.7411L12.9755 18.5863Q13.3594 18.8082 13.6948 18.7938Q14.0302 18.7793 14.2331 18.5227Q14.436 18.266 14.436 17.7648L14.436 8.47142Q14.436 8.1606 14.3716 7.95331Q14.3071 7.74602 14.1489 7.58313Q13.9906 7.42025 13.7129 7.26476L5.6868 2.61953Q5.32074 2.40667 4.99573 2.44435Q4.67072 2.48204 4.47029 2.71054Q4.26987 2.93904 4.26987 3.31594L4.26987 7.13506L4.99695 7.52217L4.99695 3.52269Q4.99695 3.34172 5.12306 3.28084Q5.24918 3.21996 5.38788 3.30114L13.3917 7.93553Q13.5699 8.04418 13.6395 8.15549Q13.709 8.2668 13.709 8.4879L13.709 17.8019Q13.709 17.9406 13.6207 18.0002Q13.5324 18.0597 13.3797 17.9644L9.77066 15.8898ZM14.0414 14.4652L16.9562 16.1477Q17.3375 16.3653 17.6729 16.3508Q18.0083 16.3364 18.2126 16.0798Q18.4169 15.8231 18.4169 15.3261L18.4169 6.02849Q18.4169 5.72454 18.3524 5.51381Q18.288 5.30309 18.1297 5.14371Q17.9715 4.98433 17.6868 4.82183L9.66766 0.180866Q9.29886-0.0294005 8.97385 0.00477918Q8.64883 0.0389589 8.44978 0.271045Q8.25073 0.503131 8.25073 0.873004L8.25073 4.59874L8.97781 4.96801L8.97781 1.08678Q8.97781 0.898792 9.10393 0.836536Q9.23004 0.77428 9.36874 0.858203L17.3656 5.4926Q17.5508 5.60109 17.6168 5.71248Q17.6828 5.82387 17.6828 6.04497L17.6828 15.3589Q17.6828 15.5047 17.598 15.5607Q17.5133 15.6168 17.3605 15.5285L14.0414 13.6113Z" fill="#ffffff"/>
 </g>
</svg>
