<?xml version="1.0" encoding="UTF-8"?>
<!--Generator: Apple Native CoreSVG 175.5-->
<!DOCTYPE svg
PUBLIC "-//W3C//DTD SVG 1.1//EN"
       "http://www.w3.org/Graphics/SVG/1.1/DTD/svg11.dtd">
<svg version="1.1" xmlns="http://www.w3.org/2000/svg" xmlns:xlink="http://www.w3.org/1999/xlink" width="20.7129" height="20.7324">
 <g>
  <rect height="20.7324" opacity="0" width="20.7129" x="0" y="0"/>
  <path d="M2.26562 3.06641L18.457 3.06641L18.457 1.49414L2.26562 1.49414ZM17.666 18.4668L19.2383 18.4668L19.2383 2.27539L17.666 2.27539ZM2.26562 19.2578L18.457 19.2578L18.457 17.6855L2.26562 17.6855ZM1.47461 18.4668L3.04688 18.4668L3.04688 2.27539L1.47461 2.27539Z" fill="#ffffff"/>
  <path d="M2.26562 4.54102Q2.89062 4.54102 3.40332 4.2334Q3.91602 3.92578 4.21875 3.41309Q4.52148 2.90039 4.52148 2.27539Q4.52148 1.65039 4.21875 1.1377Q3.91602 0.625 3.40332 0.317383Q2.89062 0.00976562 2.26562 0.00976562Q1.64062 0.00976562 1.12305 0.317383Q0.605469 0.625 0.302734 1.1377Q0 1.65039 0 2.27539Q0 2.90039 0.302734 3.41309Q0.605469 3.92578 1.12305 4.2334Q1.64062 4.54102 2.26562 4.54102ZM18.457 4.54102Q19.082 4.54102 19.5947 4.2334Q20.1074 3.92578 20.4102 3.41309Q20.7129 2.90039 20.7129 2.27539Q20.7129 1.65039 20.4102 1.1377Q20.1074 0.625 19.5947 0.317383Q19.082 0.00976562 18.457 0.00976562Q17.832 0.00976562 17.3145 0.317383Q16.7969 0.625 16.4941 1.1377Q16.1914 1.65039 16.1914 2.27539Q16.1914 2.90039 16.4941 3.41309Q16.7969 3.92578 17.3145 4.2334Q17.832 4.54102 18.457 4.54102ZM18.457 20.7324Q19.082 20.7324 19.5947 20.4248Q20.1074 20.1172 20.4102 19.6045Q20.7129 19.0918 20.7129 18.4668Q20.7129 17.8418 20.4102 17.3291Q20.1074 16.8164 19.5947 16.5088Q19.082 16.2012 18.457 16.2012Q17.832 16.2012 17.3145 16.5088Q16.7969 16.8164 16.4941 17.3291Q16.1914 17.8418 16.1914 18.4668Q16.1914 19.0918 16.4941 19.6045Q16.7969 20.1172 17.3145 20.4248Q17.832 20.7324 18.457 20.7324ZM2.26562 20.7324Q2.89062 20.7324 3.40332 20.4248Q3.91602 20.1172 4.21875 19.6045Q4.52148 19.0918 4.52148 18.4668Q4.52148 17.8418 4.21875 17.3291Q3.91602 16.8164 3.40332 16.5088Q2.89062 16.2012 2.26562 16.2012Q1.64062 16.2012 1.12305 16.5088Q0.605469 16.8164 0.302734 17.3291Q0 17.8418 0 18.4668Q0 19.0918 0.302734 19.6045Q0.605469 20.1172 1.12305 20.4248Q1.64062 20.7324 2.26562 20.7324ZM8.56445 15.7031L14.5508 15.7031Q15.127 15.7031 15.4492 15.3857Q15.7715 15.0684 15.7715 14.4824L15.7715 8.61328Q15.7715 8.03711 15.4443 7.71973Q15.1172 7.40234 14.5215 7.40234L8.56445 7.40234Q7.98828 7.40234 7.66602 7.71973Q7.34375 8.03711 7.34375 8.61328L7.34375 14.4824Q7.34375 15.0684 7.66602 15.3857Q7.98828 15.7031 8.56445 15.7031ZM8.95508 14.4238Q8.62305 14.4238 8.62305 14.1016L8.62305 9.00391Q8.62305 8.68164 8.95508 8.68164L14.1309 8.68164Q14.4922 8.68164 14.4922 9.00391L14.4922 14.1016Q14.4922 14.4238 14.1602 14.4238ZM6.2207 13.3496L7.88086 13.3496L7.88086 12.0703L6.61133 12.0703Q6.2793 12.0703 6.2793 11.7383L6.2793 6.65039Q6.2793 6.31836 6.61133 6.31836L11.8164 6.31836Q12.1484 6.31836 12.1484 6.65039L12.1484 8.04688L13.4277 8.04688L13.4277 6.25977Q13.4277 5.68359 13.1055 5.36133Q12.7832 5.03906 12.1973 5.03906L6.2207 5.03906Q5.64453 5.03906 5.32227 5.36133Q5 5.68359 5 6.25977L5 12.1289Q5 12.7148 5.32227 13.0322Q5.64453 13.3496 6.2207 13.3496Z" fill="#ffffff"/>
 </g>
</svg>
