<?xml version="1.0" encoding="UTF-8"?>
<!--Generator: Apple Native CoreSVG 175.5-->
<!DOCTYPE svg
PUBLIC "-//W3C//DTD SVG 1.1//EN"
       "http://www.w3.org/Graphics/SVG/1.1/DTD/svg11.dtd">
<svg version="1.1" xmlns="http://www.w3.org/2000/svg" xmlns:xlink="http://www.w3.org/1999/xlink" width="20.6641" height="20.4785">
 <g>
  <rect height="20.4785" opacity="0" width="20.6641" x="0" y="0"/>
  <path d="M3.06641 15.957L5.53711 15.957L5.53711 14.3848L3.08594 14.3848Q2.35352 14.3848 1.96289 13.9941Q1.57227 13.6035 1.57227 12.8418L1.57227 3.13477Q1.57227 2.37305 1.96289 1.98242Q2.35352 1.5918 3.08594 1.5918L12.8418 1.5918Q13.5645 1.5918 13.96 1.98242Q14.3555 2.37305 14.3555 3.13477L14.3555 5.27344L15.9277 5.27344L15.9277 3.04688Q15.9277 1.54297 15.1611 0.78125Q14.3945 0.0195312 12.8711 0.0195312L3.06641 0.0195312Q1.5332 0.0195312 0.766602 0.776367Q0 1.5332 0 3.04688L0 12.9297Q0 14.4434 0.766602 15.2002Q1.5332 15.957 3.06641 15.957Z" fill="#ffffff"/>
  <path d="M7.80273 20.4785L17.6074 20.4785Q19.1309 20.4785 19.8975 19.7168Q20.6641 18.9551 20.6641 17.4512L20.6641 7.56836Q20.6641 6.06445 19.8975 5.30273Q19.1309 4.54102 17.6074 4.54102L7.80273 4.54102Q6.26953 4.54102 5.50293 5.29785Q4.73633 6.05469 4.73633 7.56836L4.73633 17.4512Q4.73633 18.9648 5.50293 19.7217Q6.26953 20.4785 7.80273 20.4785ZM7.82227 18.9062Q7.08984 18.9062 6.69922 18.5156Q6.30859 18.125 6.30859 17.3633L6.30859 7.65625Q6.30859 6.89453 6.69922 6.50391Q7.08984 6.11328 7.82227 6.11328L17.5781 6.11328Q18.3008 6.11328 18.6963 6.50391Q19.0918 6.89453 19.0918 7.65625L19.0918 17.3633Q19.0918 18.125 18.6963 18.5156Q18.3008 18.9062 17.5781 18.9062Z" fill="#ffffff"/>
 </g>
</svg>
