<?xml version="1.0" encoding="UTF-8"?>
<!--Generator: Apple Native CoreSVG 175.5-->
<!DOCTYPE svg
PUBLIC "-//W3C//DTD SVG 1.1//EN"
       "http://www.w3.org/Graphics/SVG/1.1/DTD/svg11.dtd">
<svg version="1.1" xmlns="http://www.w3.org/2000/svg" xmlns:xlink="http://www.w3.org/1999/xlink" width="21.5234" height="21.5723">
 <g>
  <rect height="21.5723" opacity="0" width="21.5234" x="0" y="0"/>
  <path d="M5.80078 21.5723Q6.09375 21.5723 6.33301 21.4209Q6.57227 21.2695 6.92383 20.9473L10.4492 17.7246L17.0508 17.7246Q18.5059 17.7246 19.502 17.207Q20.498 16.6895 21.0107 15.6934Q21.5234 14.6973 21.5234 13.2617L21.5234 5.78125Q21.5234 4.3457 21.0107 3.34961Q20.498 2.35352 19.502 1.83105Q18.5059 1.30859 17.0508 1.30859L4.47266 1.30859Q3.01758 1.30859 2.02148 1.83105Q1.02539 2.35352 0.512695 3.34961Q0 4.3457 0 5.78125L0 13.2617Q0 14.6973 0.512695 15.6934Q1.02539 16.6895 2.02148 17.207Q3.01758 17.7246 4.47266 17.7246L4.93164 17.7246L4.93164 20.5664Q4.93164 21.0254 5.15625 21.2988Q5.38086 21.5723 5.80078 21.5723Z" fill="#ffffff"/>
  <path d="M8.62135 13.3254Q8.412 13.4784 8.20667 13.4502Q8.00135 13.422 7.9007 13.2449Q7.80005 13.0677 7.89667 12.7939L8.74213 10.2817L6.53589 8.69548Q6.31043 8.54249 6.2903 8.34522Q6.27017 8.14794 6.40705 8.00301Q6.54394 7.85807 6.79355 7.85807L9.51512 7.85807L10.3284 5.36195Q10.4411 4.98351 10.7712 4.98351Q11.1014 4.98351 11.2221 5.36195L12.0273 7.85807L14.7328 7.85807Q14.9905 7.85807 15.1274 8.00301Q15.2642 8.14794 15.2401 8.34522Q15.2159 8.54249 14.9905 8.69548L12.8003 10.2817L13.6377 12.7939Q13.7344 13.0677 13.6337 13.2449Q13.5331 13.422 13.3277 13.4502Q13.1224 13.4784 12.9131 13.3254L10.7712 11.7552Z" fill="none"/>
 </g>
</svg>
