<?xml version="1.0" encoding="UTF-8"?>
<!--Generator: Apple Native CoreSVG 175.5-->
<!DOCTYPE svg
PUBLIC "-//W3C//DTD SVG 1.1//EN"
       "http://www.w3.org/Graphics/SVG/1.1/DTD/svg11.dtd">
<svg version="1.1" xmlns="http://www.w3.org/2000/svg" xmlns:xlink="http://www.w3.org/1999/xlink" width="19.9219" height="19.9316">
 <g>
  <rect height="19.9316" opacity="0" width="19.9219" x="0" y="0"/>
  <path d="M9.96094 19.9316Q12.002 19.9316 13.8037 19.1504Q15.6055 18.3691 16.9824 16.9922Q18.3594 15.6152 19.1406 13.8135Q19.9219 12.0117 19.9219 9.9707Q19.9219 7.92969 19.1406 6.12793Q18.3594 4.32617 16.9824 2.94922Q15.6055 1.57227 13.7988 0.791016Q11.9922 0.00976562 9.95117 0.00976562Q7.91016 0.00976562 6.1084 0.791016Q4.30664 1.57227 2.93457 2.94922Q1.5625 4.32617 0.78125 6.12793Q0 7.92969 0 9.9707Q0 12.0117 0.78125 13.8135Q1.5625 15.6152 2.93945 16.9922Q4.31641 18.3691 6.11816 19.1504Q7.91992 19.9316 9.96094 19.9316Z" fill="#ffffff"/>
  <path d="M5.2832 7.32422L5.32227 7.25586Q5.55664 6.78711 5.83008 6.71387Q6.10352 6.64062 6.57227 6.9043L8.99414 8.33008L8.99414 5.49805Q8.99414 5 9.2041 4.7998Q9.41406 4.59961 9.94141 4.59961L10.0098 4.59961Q10.5273 4.59961 10.7324 4.7998Q10.9375 5 10.9375 5.49805L10.9375 8.33008L13.3594 6.9043Q13.8379 6.63086 14.1113 6.7041Q14.3848 6.77734 14.6094 7.25586L14.6484 7.32422Q14.8828 7.79297 14.8096 8.06152Q14.7363 8.33008 14.3066 8.55469L11.7773 9.93164L14.3262 11.3965Q14.7363 11.6406 14.7998 11.9092Q14.8633 12.1777 14.6387 12.6465L14.6094 12.6855Q14.375 13.1641 14.1064 13.2373Q13.8379 13.3105 13.3789 13.0371L10.9375 11.6211L10.9375 14.4531Q10.9375 14.9609 10.7324 15.1562Q10.5273 15.3516 10.0098 15.3516L9.94141 15.3516Q9.41406 15.3516 9.2041 15.1562Q8.99414 14.9609 8.99414 14.4531L8.99414 11.6211L6.55273 13.0371Q6.11328 13.3008 5.84473 13.2275Q5.57617 13.1543 5.32227 12.6855L5.30273 12.6465Q5.04883 12.1875 5.11719 11.9189Q5.18555 11.6504 5.61523 11.3965L8.16406 9.93164L5.625 8.55469Q5.19531 8.33008 5.12207 8.06152Q5.04883 7.79297 5.2832 7.32422Z" fill="none"/>
 </g>
</svg>
