<?xml version="1.0" encoding="UTF-8"?>
<!--Generator: Apple Native CoreSVG 175-->
<!DOCTYPE svg
PUBLIC "-//W3C//DTD SVG 1.1//EN"
       "http://www.w3.org/Graphics/SVG/1.1/DTD/svg11.dtd">
<svg version="1.1" xmlns="http://www.w3.org/2000/svg" xmlns:xlink="http://www.w3.org/1999/xlink" width="19.1602" height="19.1504">
 <g>
  <rect height="19.1504" opacity="0" width="19.1602" x="0" y="0"/>
  <path d="M9.57031 19.1406Q11.5527 19.1406 13.2861 18.3984Q15.0195 17.6562 16.3379 16.333Q17.6562 15.0098 18.4082 13.2764Q19.1602 11.543 19.1602 9.57031Q19.1602 7.59766 18.4082 5.86426Q17.6562 4.13086 16.3379 2.80762Q15.0195 1.48438 13.2861 0.742188Q11.5527 0 9.57031 0Q7.59766 0 5.86426 0.742188Q4.13086 1.48438 2.81738 2.80762Q1.50391 4.13086 0.751953 5.86426Q0 7.59766 0 9.57031Q0 11.543 0.74707 13.2764Q1.49414 15.0098 2.8125 16.333Q4.13086 17.6562 5.86914 18.3984Q7.60742 19.1406 9.57031 19.1406ZM9.57031 18.3984Q7.74414 18.3984 6.14746 17.71Q4.55078 17.0215 3.33496 15.8105Q2.11914 14.5996 1.43555 12.998Q0.751953 11.3965 0.751953 9.57031Q0.751953 7.74414 1.43555 6.14258Q2.11914 4.54102 3.33496 3.3252Q4.55078 2.10938 6.14746 1.4209Q7.74414 0.732422 9.57031 0.732422Q11.4062 0.732422 13.0029 1.4209Q14.5996 2.10938 15.8154 3.3252Q17.0312 4.54102 17.7197 6.14258Q18.4082 7.74414 18.4082 9.57031Q18.4082 11.3965 17.7246 12.998Q17.041 14.5996 15.8252 15.8105Q14.6094 17.0215 13.0078 17.71Q11.4062 18.3984 9.57031 18.3984ZM6.57227 14.5508L9.57031 12.3535L12.5879 14.5508Q12.7441 14.668 12.8955 14.6387Q13.0469 14.6094 13.125 14.4824Q13.2031 14.3555 13.1348 14.1406L11.9727 10.6055L15 8.4375Q15.127 8.34961 15.1465 8.19336Q15.166 8.03711 15.0732 7.91016Q14.9805 7.7832 14.7754 7.7832L11.0547 7.7832L9.91211 4.23828Q9.85352 4.0625 9.71191 4.00391Q9.57031 3.94531 9.43359 4.00391Q9.29688 4.0625 9.23828 4.23828L8.0957 7.7832L4.375 7.7832Q4.17969 7.7832 4.08203 7.90039Q3.98438 8.01758 3.99902 8.17871Q4.01367 8.33984 4.16016 8.44727L7.1875 10.6055L6.02539 14.1406Q5.9668 14.3555 6.04004 14.4824Q6.11328 14.6094 6.25977 14.6387Q6.40625 14.668 6.57227 14.5508Z" fill="#ffffff"/>
 </g>
</svg>
