<?xml version="1.0" encoding="UTF-8"?>
<!--Generator: Apple Native CoreSVG 175.5-->
<!DOCTYPE svg
PUBLIC "-//W3C//DTD SVG 1.1//EN"
       "http://www.w3.org/Graphics/SVG/1.1/DTD/svg11.dtd">
<svg version="1.1" xmlns="http://www.w3.org/2000/svg" xmlns:xlink="http://www.w3.org/1999/xlink" width="19.1699" height="19.1895">
 <g>
  <rect height="19.1895" opacity="0" width="19.1699" x="0" y="0"/>
  <path d="M2.29492 17.4121L16.8652 17.4121Q17.9004 17.4121 18.5352 16.7822Q19.1699 16.1523 19.1699 15.1172L19.1699 2.29492Q19.1699 1.25977 18.5352 0.629883Q17.9004 0 16.8652 0L2.29492 0Q1.25977 0 0.629883 0.629883Q0 1.25977 0 2.29492L0 15.1172Q0 16.1523 0.629883 16.7822Q1.25977 17.4121 2.29492 17.4121ZM2.31445 15.8398Q1.98242 15.8398 1.77734 15.625Q1.57227 15.4102 1.57227 15.0488L1.57227 2.36328Q1.57227 2.01172 1.77734 1.79199Q1.98242 1.57227 2.31445 1.57227L16.8555 1.57227Q17.1875 1.57227 17.3926 1.79199Q17.5977 2.01172 17.5977 2.36328L17.5977 15.0488Q17.5977 15.4102 17.3926 15.625Q17.1875 15.8398 16.8555 15.8398ZM4.51172 4.30664Q4.90234 4.30664 5.19043 4.02832Q5.47852 3.75 5.47852 3.34961Q5.47852 2.93945 5.19043 2.66113Q4.90234 2.38281 4.51172 2.38281Q4.11133 2.38281 3.82324 2.66113Q3.53516 2.93945 3.53516 3.34961Q3.53516 3.75 3.82324 4.02832Q4.11133 4.30664 4.51172 4.30664ZM7.89062 4.30664Q8.29102 4.30664 8.57422 4.02832Q8.85742 3.75 8.85742 3.34961Q8.85742 2.93945 8.57422 2.66113Q8.29102 2.38281 7.89062 2.38281Q7.49023 2.38281 7.20215 2.66113Q6.91406 2.93945 6.91406 3.34961Q6.91406 3.75 7.20215 4.02832Q7.49023 4.30664 7.89062 4.30664ZM11.2695 4.30664Q11.6699 4.30664 11.9531 4.02832Q12.2363 3.75 12.2363 3.34961Q12.2363 2.93945 11.9531 2.66113Q11.6699 2.38281 11.2695 2.38281Q10.8691 2.38281 10.5811 2.66113Q10.293 2.93945 10.293 3.34961Q10.293 3.75 10.5811 4.02832Q10.8691 4.30664 11.2695 4.30664ZM14.6484 4.30664Q15.0488 4.30664 15.3369 4.02832Q15.625 3.75 15.625 3.34961Q15.625 2.93945 15.3369 2.66113Q15.0488 2.38281 14.6484 2.38281Q14.248 2.38281 13.9648 2.66113Q13.6816 2.93945 13.6816 3.34961Q13.6816 3.75 13.9648 4.02832Q14.248 4.30664 14.6484 4.30664ZM0.947266 6.41602L18.2324 6.41602L18.2324 5.13672L0.947266 5.13672ZM3.81836 14.6875L15.3516 14.6875Q15.7715 14.6875 16.0205 14.4385Q16.2695 14.1895 16.2695 13.7793L16.2695 8.48633Q16.2695 8.07617 16.0205 7.82227Q15.7715 7.56836 15.3516 7.56836L3.81836 7.56836Q3.39844 7.56836 3.1543 7.82227Q2.91016 8.07617 2.91016 8.48633L2.91016 13.7793Q2.91016 14.1895 3.1543 14.4385Q3.39844 14.6875 3.81836 14.6875ZM4.24805 13.6035Q3.99414 13.6035 3.99414 13.3496L3.99414 8.91602Q3.99414 8.65234 4.24805 8.65234L14.9316 8.65234Q15.1855 8.65234 15.1855 8.91602L15.1855 13.3496Q15.1855 13.6035 14.9316 13.6035ZM2.79297 19.1699Q3.14453 19.1699 3.35938 18.9551Q3.57422 18.7402 3.57422 18.3887L3.57422 16.4355L2.00195 16.4355L2.00195 18.3887Q2.00195 18.7402 2.22168 18.9551Q2.44141 19.1699 2.79297 19.1699ZM16.377 19.1699Q16.7285 19.1699 16.9434 18.9551Q17.1582 18.7402 17.1582 18.3887L17.1582 16.4355L15.5859 16.4355L15.5859 18.3887Q15.5859 18.7402 15.8057 18.9551Q16.0254 19.1699 16.377 19.1699Z" fill="#ffffff"/>
 </g>
</svg>
