<?xml version="1.0" encoding="UTF-8"?>
<!--Generator: Apple Native CoreSVG 175.5-->
<!DOCTYPE svg
PUBLIC "-//W3C//DTD SVG 1.1//EN"
       "http://www.w3.org/Graphics/SVG/1.1/DTD/svg11.dtd">
<svg version="1.1" xmlns="http://www.w3.org/2000/svg" xmlns:xlink="http://www.w3.org/1999/xlink" width="16.123" height="14.4824">
 <g>
  <rect height="14.4824" opacity="0" width="16.123" x="0" y="0"/>
  <path d="M8.05664 14.4727Q9.67773 14.4727 10.8691 13.9502Q12.0605 13.4277 12.7197 12.4756Q13.3789 11.5234 13.3789 10.2539Q13.3789 8.73047 12.3975 7.85156Q11.416 6.97266 9.24805 6.46484L7.65625 6.08398Q6.16211 5.72266 5.49805 5.22461Q4.83398 4.72656 4.83398 3.91602Q4.83398 3.23242 5.24902 2.70508Q5.66406 2.17773 6.38672 1.87988Q7.10938 1.58203 8.04688 1.58203Q8.88672 1.58203 9.55566 1.82617Q10.2246 2.07031 10.6934 2.54395Q11.1621 3.01758 11.4062 3.69141Q11.6406 4.23828 12.1875 4.23828Q12.5684 4.23828 12.7881 4.02832Q13.0078 3.81836 13.0078 3.45703Q13.0078 3.34961 12.9932 3.2373Q12.9785 3.125 12.9492 3.00781Q12.7246 2.11914 12.041 1.44531Q11.3574 0.771484 10.3271 0.385742Q9.29688 0 8.04688 0Q6.57227 0 5.42969 0.517578Q4.28711 1.03516 3.6377 1.94824Q2.98828 2.86133 2.98828 4.04297Q2.98828 5.48828 3.92578 6.36719Q4.86328 7.24609 6.85547 7.71484L8.65234 8.14453Q10.1758 8.51562 10.8545 9.05273Q11.5332 9.58984 11.5332 10.4688Q11.5332 11.1719 11.0889 11.7188Q10.6445 12.2656 9.8584 12.583Q9.07227 12.9004 8.05664 12.9004Q7.14844 12.9004 6.41602 12.6367Q5.68359 12.373 5.16602 11.875Q4.64844 11.377 4.39453 10.6836Q4.25781 10.3613 4.07715 10.2197Q3.89648 10.0781 3.59375 10.0781Q3.20312 10.0781 2.97363 10.3027Q2.74414 10.5273 2.74414 10.9082Q2.74414 11.1914 2.82227 11.4551Q3.07617 12.3828 3.80859 13.0566Q4.54102 13.7305 5.62988 14.1016Q6.71875 14.4727 8.05664 14.4727Z" fill="#ffffff"/>
  <path d="M0.400391 7.5L15.7227 7.5Q15.8887 7.5 16.0059 7.38281Q16.123 7.26562 16.123 7.09961Q16.123 6.93359 16.0059 6.81641Q15.8887 6.69922 15.7227 6.69922L0.400391 6.69922Q0.234375 6.69922 0.117188 6.81641Q0 6.93359 0 7.09961Q0 7.26562 0.117188 7.38281Q0.234375 7.5 0.400391 7.5Z" fill="#ffffff"/>
 </g>
</svg>
