<?xml version="1.0" encoding="UTF-8"?>
<!--Generator: Apple Native CoreSVG 175.5-->
<!DOCTYPE svg
PUBLIC "-//W3C//DTD SVG 1.1//EN"
       "http://www.w3.org/Graphics/SVG/1.1/DTD/svg11.dtd">
<svg version="1.1" xmlns="http://www.w3.org/2000/svg" xmlns:xlink="http://www.w3.org/1999/xlink" width="19.3945" height="18.5254">
 <g>
  <rect height="18.5254" opacity="0" width="19.3945" x="0" y="0"/>
  <path d="M9.69727 18.5254Q9.85352 18.5254 10.0537 18.4424Q10.2539 18.3594 10.4102 18.2617Q13.1641 16.5039 15.1807 14.5752Q17.1973 12.6465 18.2959 10.6104Q19.3945 8.57422 19.3945 6.49414Q19.3945 5.19531 18.9795 4.11621Q18.5645 3.03711 17.8271 2.24609Q17.0898 1.45508 16.0986 1.02539Q15.1074 0.595703 13.9551 0.595703Q12.5293 0.595703 11.4453 1.32324Q10.3613 2.05078 9.69727 3.26172Q9.04297 2.06055 7.95898 1.32812Q6.875 0.595703 5.43945 0.595703Q4.28711 0.595703 3.30078 1.02539Q2.31445 1.45508 1.57227 2.24609Q0.830078 3.03711 0.415039 4.11621Q0 5.19531 0 6.49414Q0 8.57422 1.09863 10.6104Q2.19727 12.6465 4.21875 14.5752Q6.24023 16.5039 8.99414 18.2617Q9.15039 18.3594 9.35059 18.4424Q9.55078 18.5254 9.69727 18.5254Z" fill="#ffffff"/>
 </g>
</svg>
