<?xml version="1.0" encoding="UTF-8"?>
<!--Generator: Apple Native CoreSVG 175.5-->
<!DOCTYPE svg
PUBLIC "-//W3C//DTD SVG 1.1//EN"
       "http://www.w3.org/Graphics/SVG/1.1/DTD/svg11.dtd">
<svg version="1.1" xmlns="http://www.w3.org/2000/svg" xmlns:xlink="http://www.w3.org/1999/xlink" width="19.5898" height="19.5996">
 <g>
  <rect height="19.5996" opacity="0" width="19.5898" x="0" y="0"/>
  <path d="M9.79492 14.7656Q10.8105 14.7656 11.7139 14.375Q12.6172 13.9844 13.3057 13.3008Q13.9941 12.6172 14.3848 11.7139Q14.7754 10.8105 14.7754 9.79492Q14.7754 8.76953 14.3848 7.87109Q13.9941 6.97266 13.3057 6.28418Q12.6172 5.5957 11.7139 5.20508Q10.8105 4.81445 9.79492 4.81445Q8.7793 4.81445 7.87598 5.20508Q6.97266 5.5957 6.28906 6.28418Q5.60547 6.97266 5.21484 7.87109Q4.82422 8.76953 4.82422 9.79492Q4.82422 10.8105 5.21484 11.7139Q5.60547 12.6172 6.28906 13.3008Q6.97266 13.9844 7.87598 14.375Q8.7793 14.7656 9.79492 14.7656ZM1.14258 10.9375Q1.61133 10.9375 1.94824 10.6006Q2.28516 10.2637 2.28516 9.79492Q2.28516 9.32617 1.94824 8.98926Q1.61133 8.65234 1.14258 8.65234Q0.673828 8.65234 0.336914 8.98926Q0 9.32617 0 9.79492Q0 10.2637 0.336914 10.6006Q0.673828 10.9375 1.14258 10.9375ZM3.67188 4.81445Q4.14062 4.81445 4.47754 4.47754Q4.81445 4.14062 4.81445 3.67188Q4.81445 3.20312 4.47754 2.86621Q4.14062 2.5293 3.67188 2.5293Q3.20312 2.5293 2.86621 2.86621Q2.5293 3.20312 2.5293 3.67188Q2.5293 4.14062 2.86621 4.47754Q3.20312 4.81445 3.67188 4.81445ZM9.79492 2.28516Q10.2637 2.28516 10.6006 1.94824Q10.9375 1.61133 10.9375 1.14258Q10.9375 0.673828 10.6006 0.336914Q10.2637 0 9.79492 0Q9.32617 0 8.98926 0.336914Q8.65234 0.673828 8.65234 1.14258Q8.65234 1.61133 8.98926 1.94824Q9.32617 2.28516 9.79492 2.28516ZM15.918 4.81445Q16.3867 4.81445 16.7236 4.47754Q17.0605 4.14062 17.0605 3.67188Q17.0605 3.20312 16.7236 2.86621Q16.3867 2.5293 15.918 2.5293Q15.4492 2.5293 15.1123 2.86621Q14.7754 3.20312 14.7754 3.67188Q14.7754 4.14062 15.1123 4.47754Q15.4492 4.81445 15.918 4.81445ZM18.4473 10.9375Q18.916 10.9375 19.2529 10.6006Q19.5898 10.2637 19.5898 9.79492Q19.5898 9.32617 19.2529 8.98926Q18.916 8.65234 18.4473 8.65234Q17.9785 8.65234 17.6416 8.98926Q17.3047 9.32617 17.3047 9.79492Q17.3047 10.2637 17.6416 10.6006Q17.9785 10.9375 18.4473 10.9375ZM15.918 17.0605Q16.3867 17.0605 16.7236 16.7236Q17.0605 16.3867 17.0605 15.918Q17.0605 15.4492 16.7236 15.1123Q16.3867 14.7754 15.918 14.7754Q15.4492 14.7754 15.1123 15.1123Q14.7754 15.4492 14.7754 15.918Q14.7754 16.3867 15.1123 16.7236Q15.4492 17.0605 15.918 17.0605ZM9.79492 19.5898Q10.2637 19.5898 10.6006 19.2529Q10.9375 18.916 10.9375 18.4473Q10.9375 17.9785 10.6006 17.6416Q10.2637 17.3047 9.79492 17.3047Q9.32617 17.3047 8.98926 17.6416Q8.65234 17.9785 8.65234 18.4473Q8.65234 18.916 8.98926 19.2529Q9.32617 19.5898 9.79492 19.5898ZM3.67188 17.0605Q4.14062 17.0605 4.47754 16.7236Q4.81445 16.3867 4.81445 15.918Q4.81445 15.4492 4.47754 15.1123Q4.14062 14.7754 3.67188 14.7754Q3.20312 14.7754 2.86621 15.1123Q2.5293 15.4492 2.5293 15.918Q2.5293 16.3867 2.86621 16.7236Q3.20312 17.0605 3.67188 17.0605Z" fill="#ffffff"/>
 </g>
</svg>
