<?xml version="1.0" encoding="UTF-8"?>
<!--Generator: Apple Native CoreSVG 175.5-->
<!DOCTYPE svg
PUBLIC "-//W3C//DTD SVG 1.1//EN"
       "http://www.w3.org/Graphics/SVG/1.1/DTD/svg11.dtd">
<svg version="1.1" xmlns="http://www.w3.org/2000/svg" xmlns:xlink="http://www.w3.org/1999/xlink" width="14.3164" height="21.6113">
 <g>
  <rect height="21.6113" opacity="0" width="14.3164" x="0" y="0"/>
  <path d="M3.02734 21.6016L11.2891 21.6016Q12.8027 21.6016 13.5596 20.8398Q14.3164 20.0781 14.3164 18.5449L14.3164 3.06641Q14.3164 1.54297 13.5596 0.771484Q12.8027 0 11.2891 0L3.02734 0Q1.51367 0 0.756836 0.771484Q0 1.54297 0 3.06641L0 18.5449Q0 20.0781 0.756836 20.8398Q1.51367 21.6016 3.02734 21.6016Z" fill="#ffffff"/>
  <path d="M3.66211 9.01367Q3.18359 9.01367 2.97363 8.80859Q2.76367 8.60352 2.76367 8.13477L2.76367 3.55469Q2.76367 3.07617 2.97363 2.87598Q3.18359 2.67578 3.66211 2.67578L10.6055 2.67578Q11.0938 2.67578 11.3037 2.87598Q11.5137 3.07617 11.5137 3.55469L11.5137 8.13477Q11.5137 8.60352 11.3037 8.80859Q11.0938 9.01367 10.6055 9.01367ZM3.66211 18.9355Q3.18359 18.9355 2.97363 18.7354Q2.76367 18.5352 2.76367 18.0566L2.76367 13.4766Q2.76367 13.0078 2.97363 12.8027Q3.18359 12.5977 3.66211 12.5977L10.6055 12.5977Q11.0938 12.5977 11.3037 12.8027Q11.5137 13.0078 11.5137 13.4766L11.5137 18.0566Q11.5137 18.5352 11.3037 18.7354Q11.0938 18.9355 10.6055 18.9355Z" fill="none"/>
 </g>
</svg>
