<?xml version="1.0" encoding="UTF-8"?>
<!--Generator: Apple Native CoreSVG 175.5-->
<!DOCTYPE svg
PUBLIC "-//W3C//DTD SVG 1.1//EN"
       "http://www.w3.org/Graphics/SVG/1.1/DTD/svg11.dtd">
<svg version="1.1" xmlns="http://www.w3.org/2000/svg" xmlns:xlink="http://www.w3.org/1999/xlink" width="22.3539" height="22.0605">
 <g>
  <rect height="22.0605" opacity="0" width="22.3539" x="0" y="0"/>
  <path d="M0.205503 21.8555Q0.400815 22.041 0.674253 22.0361Q0.94769 22.0312 1.15277 21.8359L5.96722 17.0215L5.02972 16.0742L0.205503 20.8984Q0.0101902 21.0938 0.000424592 21.3721Q-0.00934103 21.6504 0.205503 21.8555ZM12.5785 4.32617L11.3285 5.57617L13.7114 7.96875Q13.8383 8.0957 13.8432 8.29102Q13.8481 8.48633 13.7114 8.61328Q13.5746 8.74023 13.394 8.74023Q13.2133 8.74023 13.0766 8.61328L10.684 6.2207L9.2973 7.60742L11.6801 9.99023Q11.8168 10.127 11.8168 10.3174Q11.8168 10.5078 11.6899 10.6348Q11.5532 10.7715 11.3676 10.7715Q11.1821 10.7715 11.0453 10.6348L8.66253 8.24219L7.25628 9.63867L9.64886 12.0312Q9.77582 12.1582 9.7807 12.3486Q9.78558 12.5391 9.65863 12.666Q9.52191 12.8027 9.33636 12.8027Q9.15082 12.8027 9.0141 12.666L6.62152 10.2734L5.2348 11.6699L7.62738 14.043Q7.75433 14.1797 7.75433 14.3652Q7.75433 14.5508 7.63714 14.6777Q7.49066 14.834 7.30999 14.834Q7.12933 14.834 6.98285 14.6875L4.60003 12.3047L3.53558 13.3594Q2.78363 14.1113 2.76898 14.9414Q2.75433 15.7715 3.45746 16.4844L5.59613 18.6328Q6.29925 19.3359 7.1391 19.3115Q7.97894 19.2871 8.73089 18.5352L17.7543 9.50195ZM12.3149 2.51953L19.5805 9.78516Q19.8051 10.0098 20.1323 10.0098Q20.4594 10.0098 20.684 9.78516Q20.9184 9.55078 20.9184 9.22363Q20.9184 8.89648 20.684 8.67188L19.6391 7.62695L20.0395 7.22656Q20.2641 7.00195 20.269 6.6748Q20.2739 6.34766 20.0395 6.12305L18.6235 4.70703L19.8442 3.48633L21.016 4.6582Q21.2407 4.88281 21.5678 4.88281Q21.895 4.88281 22.1196 4.6582Q22.3539 4.42383 22.3539 4.09668Q22.3539 3.76953 22.1196 3.54492L18.809 0.234375Q18.5844 0 18.2573 0Q17.9301 0 17.6957 0.234375Q17.4711 0.458984 17.4711 0.786133Q17.4711 1.11328 17.6957 1.33789L18.8774 2.50977L17.6567 3.73047L15.977 2.05078Q15.7426 1.82617 15.4155 1.82617Q15.0883 1.82617 14.8637 2.05078L14.4633 2.45117L13.4282 1.41602Q13.184 1.17188 12.8666 1.17676Q12.5493 1.18164 12.3149 1.41602Q12.0903 1.64062 12.0805 1.95801Q12.0707 2.27539 12.3149 2.51953Z" fill="#ffffff"/>
 </g>
</svg>
