<?xml version="1.0" encoding="UTF-8"?>
<!--Generator: Apple Native CoreSVG 175.5-->
<!DOCTYPE svg
PUBLIC "-//W3C//DTD SVG 1.1//EN"
       "http://www.w3.org/Graphics/SVG/1.1/DTD/svg11.dtd">
<svg version="1.1" xmlns="http://www.w3.org/2000/svg" xmlns:xlink="http://www.w3.org/1999/xlink" width="19.9219" height="19.9316">
 <g>
  <rect height="19.9316" opacity="0" width="19.9219" x="0" y="0"/>
  <path d="M9.96094 19.9219Q12.002 19.9219 13.8037 19.1406Q15.6055 18.3594 16.9824 16.9824Q18.3594 15.6055 19.1406 13.8037Q19.9219 12.002 19.9219 9.96094Q19.9219 7.91992 19.1406 6.11816Q18.3594 4.31641 16.9824 2.93945Q15.6055 1.5625 13.7988 0.78125Q11.9922 0 9.95117 0Q7.91016 0 6.1084 0.78125Q4.30664 1.5625 2.93457 2.93945Q1.5625 4.31641 0.78125 6.11816Q0 7.91992 0 9.96094Q0 12.002 0.78125 13.8037Q1.5625 15.6055 2.93945 16.9824Q4.31641 18.3594 6.11816 19.1406Q7.91992 19.9219 9.96094 19.9219Z" fill="#ffffff"/>
  <path d="M9.94141 14.6191Q9.55078 14.6191 9.3457 14.3652Q9.14062 14.1113 9.14062 13.7012L9.14062 6.64062L6.66992 6.64062Q6.36719 6.64062 6.17676 6.45996Q5.98633 6.2793 5.98633 5.97656Q5.98633 5.66406 6.17676 5.48828Q6.36719 5.3125 6.66992 5.3125L13.252 5.3125Q13.5449 5.3125 13.7402 5.48828Q13.9355 5.66406 13.9355 5.97656Q13.9355 6.2793 13.7402 6.45996Q13.5449 6.64062 13.252 6.64062L10.752 6.64062L10.752 13.7012Q10.752 14.1211 10.542 14.3701Q10.332 14.6191 9.94141 14.6191Z" fill="none"/>
 </g>
</svg>
