<?xml version="1.0" encoding="UTF-8"?>
<!--Generator: Apple Native CoreSVG 175.5-->
<!DOCTYPE svg
PUBLIC "-//W3C//DTD SVG 1.1//EN"
       "http://www.w3.org/Graphics/SVG/1.1/DTD/svg11.dtd">
<svg version="1.1" xmlns="http://www.w3.org/2000/svg" xmlns:xlink="http://www.w3.org/1999/xlink" width="23.5742" height="15.2832">
 <g>
  <rect height="15.2832" opacity="0" width="23.5742" x="0" y="0"/>
  <path d="M0 0.888672L0 14.4238Q0 14.8145 0.234375 15.0488Q0.46875 15.2832 0.869141 15.2832L4.07227 15.2832Q4.47266 15.2832 4.70703 15.0488Q4.94141 14.8145 4.94141 14.4238L4.94141 4.96094L18.623 4.96094L18.623 14.4238Q18.623 14.8145 18.8623 15.0488Q19.1016 15.2832 19.4922 15.2832L22.7051 15.2832Q23.0957 15.2832 23.335 15.0488Q23.5742 14.8145 23.5742 14.4238L23.5742 0.888672Q23.5742 0.488281 23.335 0.253906Q23.0957 0.0195312 22.7051 0.0195312L0.869141 0.0195312Q0.46875 0.0195312 0.234375 0.253906Q0 0.488281 0 0.888672Z" fill="#ffffff"/>
 </g>
</svg>
