<?xml version="1.0" encoding="UTF-8"?>
<!--Generator: Apple Native CoreSVG 175-->
<!DOCTYPE svg
PUBLIC "-//W3C//DTD SVG 1.1//EN"
       "http://www.w3.org/Graphics/SVG/1.1/DTD/svg11.dtd">
<svg version="1.1" xmlns="http://www.w3.org/2000/svg" xmlns:xlink="http://www.w3.org/1999/xlink" width="21.2012" height="22.461">
 <g>
  <rect height="22.461" opacity="0" width="21.2012" x="0" y="0"/>
  <path d="M14.6582 17.7686L4.7168 7.80764L0.917969 11.5869Q0 12.5049 0 13.4424Q0 14.3799 0.917969 15.3076L7.16797 21.5576Q8.08594 22.4658 9.0332 22.461Q9.98047 22.4561 10.8789 21.5479ZM6.5332 6.001L16.4746 15.9326L20.5371 11.8604Q20.8398 11.5576 20.9766 11.333Q21.1133 11.1084 21.1572 10.8057Q21.2012 10.503 21.2012 9.98538L21.2012 6.26467Q21.2012 5.85452 21.1426 5.59085Q21.084 5.32717 20.9033 5.07815Q20.7227 4.82913 20.3516 4.45803L18.0273 2.13382Q17.6465 1.76272 17.4023 1.58206Q17.1582 1.40139 16.8945 1.3428Q16.6309 1.28421 16.2207 1.28421L12.5 1.28421Q11.9824 1.28421 11.6797 1.32815Q11.377 1.3721 11.1475 1.50882Q10.918 1.64553 10.625 1.9385ZM14.668 8.31546Q14.2383 8.31546 13.9551 8.03225Q13.6719 7.74905 13.6719 7.32913Q13.6719 6.90921 13.9551 6.62112Q14.2383 6.33303 14.668 6.33303Q15.0781 6.33303 15.3662 6.62112Q15.6543 6.90921 15.6543 7.32913Q15.6543 7.74905 15.3662 8.03225Q15.0781 8.31546 14.668 8.31546ZM18.7695 20.5615Q18.8867 20.669 19.0283 20.669Q19.1699 20.669 19.2871 20.5615Q19.3945 20.4737 19.3945 20.3174Q19.3945 20.1612 19.2871 20.0537L2.42188 3.19827Q2.32422 3.09085 2.17773 3.08108Q2.03125 3.07132 1.9043 3.19827Q1.80664 3.29592 1.80664 3.44729Q1.80664 3.59866 1.9043 3.70608Z" fill="rgba(0,0,0,0.85)"/>
 </g>
</svg>
