<?xml version="1.0" encoding="UTF-8"?>
<!--Generator: Apple Native CoreSVG 175-->
<!DOCTYPE svg
PUBLIC "-//W3C//DTD SVG 1.1//EN"
       "http://www.w3.org/Graphics/SVG/1.1/DTD/svg11.dtd">
<svg version="1.1" xmlns="http://www.w3.org/2000/svg" xmlns:xlink="http://www.w3.org/1999/xlink" width="19.1602" height="19.1504">
 <g>
  <rect height="19.1504" opacity="0" width="19.1602" x="0" y="0"/>
  <path d="M9.57031 19.1504Q11.5527 19.1504 13.2861 18.4082Q15.0195 17.666 16.3379 16.3428Q17.6562 15.0195 18.4082 13.2861Q19.1602 11.5527 19.1602 9.58008Q19.1602 7.60742 18.4082 5.87402Q17.6562 4.14062 16.3379 2.81738Q15.0195 1.49414 13.2861 0.751953Q11.5527 0.00976562 9.57031 0.00976562Q7.59766 0.00976562 5.86426 0.751953Q4.13086 1.49414 2.81738 2.81738Q1.50391 4.14062 0.751953 5.87402Q0 7.60742 0 9.58008Q0 11.5527 0.74707 13.2861Q1.49414 15.0195 2.8125 16.3428Q4.13086 17.666 5.86914 18.4082Q7.60742 19.1504 9.57031 19.1504ZM11.2109 14.7461Q10.5664 15.3906 9.58496 15.3613Q8.60352 15.332 7.42188 14.6582Q6.24023 13.9844 4.99023 12.7246Q3.73047 11.4746 3.06152 10.293Q2.39258 9.11133 2.35352 8.12988Q2.31445 7.14844 2.95898 6.50391Q3.32031 6.15234 3.65723 6.21094Q3.99414 6.26953 4.36523 6.72852L5.45898 8.06641Q5.77148 8.44727 5.70801 8.74023Q5.64453 9.0332 5.35156 9.31641L5.23438 9.42383Q5 9.63867 5.22949 10.0537Q5.45898 10.4688 6.35742 11.3672Q7.25586 12.2559 7.65625 12.4805Q8.05664 12.7051 8.28125 12.4902L8.4082 12.3633Q8.69141 12.0996 8.96973 12.0215Q9.24805 11.9434 9.64844 12.2656L11.0059 13.3594Q11.4551 13.7207 11.5137 14.0625Q11.5723 14.4043 11.2109 14.7461ZM7.30469 8.33984Q6.77734 8.33984 6.77734 7.8125L6.77734 6.96289Q6.77734 6.44531 7.30469 6.44531L8.1543 6.44531Q8.67188 6.44531 8.67188 6.96289L8.67188 7.8125Q8.67188 8.33984 8.1543 8.33984ZM9.87305 8.33984Q9.33594 8.33984 9.33594 7.8125L9.33594 6.96289Q9.33594 6.44531 9.87305 6.44531L10.7324 6.44531Q11.2402 6.44531 11.2402 6.96289L11.2402 7.8125Q11.2402 8.33984 10.7324 8.33984ZM12.4316 8.33984Q11.9238 8.33984 11.9238 7.8125L11.9238 6.96289Q11.9238 6.44531 12.4316 6.44531L13.2812 6.44531Q13.8086 6.44531 13.8086 6.96289L13.8086 7.8125Q13.8086 8.33984 13.2812 8.33984ZM15.0098 8.33984Q14.4922 8.33984 14.4922 7.8125L14.4922 6.96289Q14.4922 6.44531 15.0098 6.44531L15.8496 6.44531Q16.3965 6.44531 16.3965 6.96289L16.3965 7.8125Q16.3965 8.33984 15.8496 8.33984ZM7.28516 10.9082Q6.77734 10.9082 6.77734 10.3906L6.77734 9.53125Q6.77734 9.01367 7.28516 9.01367L8.13477 9.01367Q8.67188 9.01367 8.67188 9.53125L8.67188 10.3906Q8.67188 10.9082 8.13477 10.9082ZM9.86328 10.9082Q9.33594 10.9082 9.33594 10.3906L9.33594 9.53125Q9.33594 9.01367 9.86328 9.01367L13.3008 9.01367Q13.8184 9.01367 13.8184 9.53125L13.8184 10.3906Q13.8184 10.9082 13.3008 10.9082ZM15.0293 10.9082Q14.5117 10.9082 14.5117 10.3906L14.5117 9.53125Q14.5117 9.01367 15.0293 9.01367L15.8691 9.01367Q16.3965 9.01367 16.3965 9.53125L16.3965 10.3906Q16.3965 10.9082 15.8691 10.9082Z" fill="#ffffff"/>
 </g>
</svg>
