<?xml version="1.0" encoding="UTF-8"?>
<!--Generator: Apple Native CoreSVG 175.5-->
<!DOCTYPE svg
PUBLIC "-//W3C//DTD SVG 1.1//EN"
       "http://www.w3.org/Graphics/SVG/1.1/DTD/svg11.dtd">
<svg version="1.1" xmlns="http://www.w3.org/2000/svg" xmlns:xlink="http://www.w3.org/1999/xlink" width="13.1738" height="18.2129">
 <g>
  <rect height="18.2129" opacity="0" width="13.1738" x="0" y="0"/>
  <path d="M0 1.09375Q0 1.35742 0.185547 1.54297Q0.371094 1.72852 0.644531 1.72852L12.5293 1.72852Q12.8027 1.72852 12.9883 1.54297Q13.1738 1.35742 13.1738 1.09375Q13.1738 0.830078 12.9883 0.644531Q12.8027 0.458984 12.5293 0.458984L0.644531 0.458984Q0.371094 0.458984 0.185547 0.644531Q0 0.830078 0 1.09375ZM0 4.73633Q0 5.05859 0.229492 5.28809Q0.458984 5.51758 0.78125 5.51758L5.6543 5.51758L5.6543 17.2754Q5.6543 17.666 5.92773 17.9395Q6.20117 18.2129 6.58203 18.2129Q6.97266 18.2129 7.24609 17.9395Q7.51953 17.666 7.51953 17.2754L7.51953 5.51758L12.3828 5.51758Q12.7148 5.51758 12.9443 5.28809Q13.1738 5.05859 13.1738 4.73633Q13.1738 4.41406 12.9443 4.18457Q12.7148 3.95508 12.3828 3.95508L0.78125 3.95508Q0.458984 3.95508 0.229492 4.18457Q0 4.41406 0 4.73633Z" fill="#ffffff"/>
 </g>
</svg>
