<?xml version="1.0" encoding="UTF-8"?>
<!--Generator: Apple Native CoreSVG 175.5-->
<!DOCTYPE svg
PUBLIC "-//W3C//DTD SVG 1.1//EN"
       "http://www.w3.org/Graphics/SVG/1.1/DTD/svg11.dtd">
<svg version="1.1" xmlns="http://www.w3.org/2000/svg" xmlns:xlink="http://www.w3.org/1999/xlink" width="19.9219" height="19.9316">
 <g>
  <rect height="19.9316" opacity="0" width="19.9219" x="0" y="0"/>
  <path d="M9.96094 19.9219Q12.002 19.9219 13.8037 19.1406Q15.6055 18.3594 16.9824 16.9824Q18.3594 15.6055 19.1406 13.8037Q19.9219 12.002 19.9219 9.96094Q19.9219 7.91992 19.1406 6.11816Q18.3594 4.31641 16.9824 2.93945Q15.6055 1.5625 13.7988 0.78125Q11.9922 0 9.95117 0Q7.91016 0 6.1084 0.78125Q4.30664 1.5625 2.93457 2.93945Q1.5625 4.31641 0.78125 6.11816Q0 7.91992 0 9.96094Q0 12.002 0.78125 13.8037Q1.5625 15.6055 2.93945 16.9824Q4.31641 18.3594 6.11816 19.1406Q7.91992 19.9219 9.96094 19.9219ZM9.96094 18.2617Q8.23242 18.2617 6.72852 17.6172Q5.22461 16.9727 4.08691 15.835Q2.94922 14.6973 2.30957 13.1934Q1.66992 11.6895 1.66992 9.96094Q1.66992 8.23242 2.30957 6.72852Q2.94922 5.22461 4.08203 4.08203Q5.21484 2.93945 6.71875 2.2998Q8.22266 1.66016 9.95117 1.66016Q11.6797 1.66016 13.1885 2.2998Q14.6973 2.93945 15.835 4.08203Q16.9727 5.22461 17.6172 6.72852Q18.2617 8.23242 18.2617 9.96094Q18.2617 11.6895 17.6221 13.1934Q16.9824 14.6973 15.8398 15.835Q14.6973 16.9727 13.1934 17.6172Q11.6895 18.2617 9.96094 18.2617Z" fill="#ffffff"/>
  <path d="M6.46484 7.87109Q6.46484 8.125 6.62109 8.28125Q6.77734 8.4375 7.04102 8.4375L9.32617 8.4375L9.32617 14.2383Q9.32617 14.5312 9.50195 14.707Q9.67773 14.8828 9.96094 14.8828Q10.2441 14.8828 10.4199 14.707Q10.5957 14.5312 10.5957 14.2383L10.5957 8.4375L12.8711 8.4375Q13.125 8.4375 13.2812 8.28125Q13.4375 8.125 13.4375 7.87109Q13.4375 7.61719 13.2812 7.46582Q13.125 7.31445 12.8711 7.31445L7.04102 7.31445Q6.77734 7.31445 6.62109 7.46582Q6.46484 7.61719 6.46484 7.87109ZM6.44531 5.99609Q6.44531 6.20117 6.58203 6.34277Q6.71875 6.48438 6.92383 6.48438L12.9785 6.48438Q13.1836 6.48438 13.3154 6.34277Q13.4473 6.20117 13.4473 5.99609Q13.4473 5.78125 13.3154 5.64941Q13.1836 5.51758 12.9785 5.51758L6.92383 5.51758Q6.71875 5.51758 6.58203 5.64941Q6.44531 5.78125 6.44531 5.99609Z" fill="#ffffff"/>
 </g>
</svg>
