<?xml version="1.0" encoding="UTF-8"?>
<!--Generator: Apple Native CoreSVG 175.5-->
<!DOCTYPE svg
PUBLIC "-//W3C//DTD SVG 1.1//EN"
       "http://www.w3.org/Graphics/SVG/1.1/DTD/svg11.dtd">
<svg version="1.1" xmlns="http://www.w3.org/2000/svg" xmlns:xlink="http://www.w3.org/1999/xlink" width="20.9959" height="21.6309">
 <g>
  <rect height="21.6309" opacity="0" width="20.9959" x="0" y="0"/>
  <path d="M19.3848 2.27539Q18.4863 1.37695 17.3145 0.981445Q16.1426 0.585938 14.8633 0.683594Q13.584 0.78125 12.3389 1.35254Q11.0938 1.92383 10.0488 2.96875Q8.83789 4.17969 8.30078 5.63965Q7.76367 7.09961 7.74414 8.58398Q7.72461 9.67773 7.62695 10.5908Q7.5293 11.5039 7.23145 12.3438Q6.93359 13.1836 6.33301 14.0479Q5.73242 14.9121 4.7168 15.9277L5.73242 16.9336Q6.74805 15.9277 7.60742 15.3369Q8.4668 14.7461 9.30176 14.4531Q10.1367 14.1602 11.0449 14.0576Q11.9531 13.9551 13.0566 13.916Q14.5703 13.8672 16.0156 13.3447Q17.4609 12.8223 18.6816 11.6016Q19.7266 10.5566 20.3027 9.31152Q20.8789 8.06641 20.9766 6.78711Q21.0742 5.50781 20.6787 4.33594Q20.2832 3.16406 19.3848 2.27539ZM18.3398 3.31055Q19.2969 4.27734 19.5459 5.5127Q19.7949 6.74805 19.3213 8.05664Q18.8477 9.36523 17.6465 10.5566Q16.4355 11.7578 15.1221 12.2363Q13.8086 12.7148 12.5781 12.4707Q11.3477 12.2266 10.3906 11.2695Q9.42383 10.3125 9.17969 9.08203Q8.93555 7.85156 9.41406 6.5332Q9.89258 5.21484 11.0938 4.01367Q12.2949 2.82227 13.6035 2.34375Q14.9121 1.86523 16.1475 2.10938Q17.3828 2.35352 18.3398 3.31055ZM9.3457 12.3145Q9.55078 12.5391 9.79492 12.7197Q10.0391 12.9004 10.293 13.0566Q9.57031 13.1836 8.88184 13.4473Q8.19336 13.7109 7.4707 14.1895Q7.95898 13.4668 8.21777 12.7783Q8.47656 12.0898 8.59375 11.3672Q8.75 11.6309 8.94043 11.8652Q9.13086 12.0996 9.3457 12.3145ZM0.341797 20.6445L0.986328 21.2988Q1.32812 21.6309 1.77246 21.6309Q2.2168 21.6309 2.55859 21.2988L6.33789 17.5098Q6.67969 17.168 6.67969 16.7188Q6.67969 16.2695 6.33789 15.9375L5.69336 15.2832Q5.35156 14.9512 4.90723 14.9512Q4.46289 14.9512 4.12109 15.2832L0.341797 19.082Q0 19.4141 0 19.8584Q0 20.3027 0.341797 20.6445ZM8.50586 8.4668L8.99414 8.95508L16.0352 1.91406L15.5469 1.41602ZM9.05273 10.7129L9.53125 11.2012L18.2715 2.4707L17.8027 1.97266ZM10.4492 12.1191L10.9473 12.6074L19.6875 3.86719L19.1992 3.36914ZM12.7051 12.666L13.1836 13.1641L20.2344 6.11328L19.7363 5.625ZM14.8242 1.68945L19.9023 6.75781L20.3906 6.26953L15.3125 1.20117ZM12.6172 2.14844L19.4922 9.04297L20 8.54492L13.1055 1.66016ZM11.1914 3.35938L18.2715 10.459L18.7793 9.96094L11.6797 2.86133ZM9.95117 4.59961L17.0312 11.6992L17.5293 11.2012L10.4395 4.10156ZM8.74023 6.02539L15.625 12.9199L16.1133 12.4316L9.21875 5.54688ZM8.26172 8.21289L13.3691 13.3301L13.8672 12.832L8.75 7.72461Z" fill="#ffffff"/>
 </g>
</svg>
