<?xml version="1.0" encoding="UTF-8"?>
<!--Generator: Apple Native CoreSVG 175.5-->
<!DOCTYPE svg
PUBLIC "-//W3C//DTD SVG 1.1//EN"
       "http://www.w3.org/Graphics/SVG/1.1/DTD/svg11.dtd">
<svg version="1.1" xmlns="http://www.w3.org/2000/svg" xmlns:xlink="http://www.w3.org/1999/xlink" width="19.6777" height="16.8848">
 <g>
  <rect height="16.8848" opacity="0" width="19.6777" x="0" y="0"/>
  <path d="M0.732422 1.54297L18.9258 1.54297Q19.2383 1.54297 19.458 1.32812Q19.6777 1.11328 19.6777 0.800781Q19.6777 0.488281 19.458 0.27832Q19.2383 0.0683594 18.9258 0.0683594L0.732422 0.0683594Q0.429688 0.0683594 0.214844 0.27832Q0 0.488281 0 0.800781Q0 1.11328 0.214844 1.32812Q0.429688 1.54297 0.732422 1.54297ZM0.732422 6.65039L18.9258 6.65039Q19.2383 6.65039 19.458 6.44043Q19.6777 6.23047 19.6777 5.91797Q19.6777 5.60547 19.458 5.39062Q19.2383 5.17578 18.9258 5.17578L0.732422 5.17578Q0.429688 5.17578 0.214844 5.39062Q0 5.60547 0 5.91797Q0 6.23047 0.214844 6.44043Q0.429688 6.65039 0.732422 6.65039ZM12.2461 11.7676L18.9258 11.7676Q19.2383 11.7676 19.458 11.5576Q19.6777 11.3477 19.6777 11.0352Q19.6777 10.7227 19.458 10.5078Q19.2383 10.293 18.9258 10.293L12.2461 10.293Q11.9434 10.293 11.7285 10.5078Q11.5137 10.7227 11.5137 11.0352Q11.5137 11.3477 11.7285 11.5576Q11.9434 11.7676 12.2461 11.7676ZM12.2461 16.8848L18.9258 16.8848Q19.2383 16.8848 19.458 16.6699Q19.6777 16.4551 19.6777 16.1523Q19.6777 15.8398 19.458 15.625Q19.2383 15.4102 18.9258 15.4102L12.2461 15.4102Q11.9434 15.4102 11.7285 15.625Q11.5137 15.8398 11.5137 16.1523Q11.5137 16.4551 11.7285 16.6699Q11.9434 16.8848 12.2461 16.8848Z" fill="#ffffff"/>
  <path d="M0.00976562 10.2051L0.00976562 12.4219Q0.00976562 13.457 0.673828 14.0527Q1.33789 14.6484 2.36328 14.6484L5.24414 14.6484L5.24414 15.6641Q5.24414 16.0645 5.45898 16.2842Q5.67383 16.5039 5.99121 16.5088Q6.30859 16.5137 6.61133 16.2695L9.25781 14.1504Q9.56055 13.9062 9.56055 13.5498Q9.56055 13.1934 9.25781 12.959L6.61133 10.8496Q6.31836 10.6055 6.00098 10.6152Q5.68359 10.625 5.46387 10.8398Q5.24414 11.0547 5.24414 11.4355L5.24414 12.4121L2.57812 12.4121Q2.24609 12.4121 2.24609 12.0801L2.24609 10.2051Q2.24609 9.61914 1.95312 9.27246Q1.66016 8.92578 1.13281 8.92578Q0.595703 8.92578 0.302734 9.27246Q0.00976562 9.61914 0.00976562 10.2051Z" fill="#ffffff"/>
 </g>
</svg>
