<?xml version="1.0" encoding="UTF-8"?>
<!--Generator: Apple Native CoreSVG 175-->
<!DOCTYPE svg
PUBLIC "-//W3C//DTD SVG 1.1//EN"
       "http://www.w3.org/Graphics/SVG/1.1/DTD/svg11.dtd">
<svg version="1.1" xmlns="http://www.w3.org/2000/svg" xmlns:xlink="http://www.w3.org/1999/xlink" width="18.9062" height="16.1035">
 <g>
  <rect height="16.1035" opacity="0" width="18.9062" x="0" y="0"/>
  <path d="M0.351562 0.712891L18.5449 0.712891Q18.7012 0.712891 18.8037 0.610352Q18.9062 0.507812 18.9062 0.351562Q18.9062 0.205078 18.8037 0.107422Q18.7012 0.00976562 18.5449 0.00976562L0.351562 0.00976562Q0.195312 0.00976562 0.0976562 0.107422Q0 0.205078 0 0.351562Q0 0.507812 0.0976562 0.610352Q0.195312 0.712891 0.351562 0.712891ZM0.351562 5.83984L18.5449 5.83984Q18.7012 5.83984 18.8037 5.74219Q18.9062 5.64453 18.9062 5.48828Q18.9062 5.33203 18.8037 5.23438Q18.7012 5.13672 18.5449 5.13672L0.351562 5.13672Q0.195312 5.13672 0.0976562 5.23438Q0 5.33203 0 5.48828Q0 5.64453 0.0976562 5.74219Q0.195312 5.83984 0.351562 5.83984ZM11.6309 10.9668L18.5449 10.9668Q18.7012 10.9668 18.8037 10.8691Q18.9062 10.7715 18.9062 10.625Q18.9062 10.4688 18.8037 10.3662Q18.7012 10.2637 18.5449 10.2637L11.6309 10.2637Q11.4746 10.2637 11.377 10.3662Q11.2793 10.4688 11.2793 10.625Q11.2793 10.7715 11.377 10.8691Q11.4746 10.9668 11.6309 10.9668ZM11.6309 16.1035L18.5449 16.1035Q18.7012 16.1035 18.8037 16.001Q18.9062 15.8984 18.9062 15.752Q18.9062 15.5957 18.8037 15.498Q18.7012 15.4004 18.5449 15.4004L11.6309 15.4004Q11.4746 15.4004 11.377 15.498Q11.2793 15.5957 11.2793 15.752Q11.2793 15.8984 11.377 16.001Q11.4746 16.1035 11.6309 16.1035ZM0.00976562 9.01367L0.00976562 12.7051Q0.00976562 13.125 0.292969 13.3936Q0.576172 13.6621 0.986328 13.6621L4.96094 13.6621L4.96094 14.9512Q4.96094 15.2344 5.13184 15.4004Q5.30273 15.5664 5.55176 15.5811Q5.80078 15.5957 6.03516 15.4102L8.29102 13.6719Q8.57422 13.4668 8.57422 13.1299Q8.57422 12.793 8.29102 12.5781L6.03516 10.8398Q5.80078 10.6641 5.55176 10.6738Q5.30273 10.6836 5.13184 10.8496Q4.96094 11.0156 4.96094 11.2988L4.96094 12.5L1.31836 12.5Q1.17188 12.5 1.17188 12.3535L1.17188 9.01367Q1.17188 8.75 1.01562 8.5791Q0.859375 8.4082 0.595703 8.4082Q0.322266 8.4082 0.166016 8.5791Q0.00976562 8.75 0.00976562 9.01367Z" fill="#ffffff"/>
 </g>
</svg>
