<?xml version="1.0" encoding="UTF-8"?>
<!--Generator: Apple Native CoreSVG 175-->
<!DOCTYPE svg
PUBLIC "-//W3C//DTD SVG 1.1//EN"
       "http://www.w3.org/Graphics/SVG/1.1/DTD/svg11.dtd">
<svg version="1.1" xmlns="http://www.w3.org/2000/svg" xmlns:xlink="http://www.w3.org/1999/xlink" width="13.2922" height="18.6185">
 <g>
  <rect height="18.6185" opacity="0" width="13.2922" x="0" y="0"/>
  <path d="M12.952 7.61566Q13.1055 7.61566 13.1989 7.52235Q13.2922 7.42905 13.2922 7.28088L13.2922 0.369263Q13.2922 0.209045 13.1926 0.104523Q13.093 0 12.9286 0Q12.7821 0 12.6817 0.0476837Q12.5813 0.0953674 12.4509 0.185547L10.5579 1.42853Q10.4485 1.49506 10.4098 1.56143Q10.3711 1.62781 10.3711 1.71371Q10.3711 1.82434 10.45 1.90948Q10.5289 1.99463 10.6578 1.99463Q10.7199 1.99463 10.7641 1.97746Q10.8083 1.9603 10.8633 1.92581L12.6106 0.798492L12.6257 0.798492L12.6257 7.28088Q12.6257 7.42905 12.7086 7.52235Q12.7914 7.61566 12.952 7.61566ZM0.370331 16.4903Q0.536041 16.4903 0.624313 16.4157Q0.712585 16.3411 0.778961 16.1629L2.53082 11.6048L9.0097 11.6048L10.7547 16.1629Q10.8211 16.3411 10.9129 16.4157Q11.0046 16.4903 11.1606 16.4903Q11.3332 16.4903 11.4361 16.395Q11.539 16.2996 11.539 16.1325Q11.539 16.0204 11.4879 15.8864L6.27502 2.47269Q6.20468 2.30469 6.08475 2.20665Q5.96481 2.10861 5.77026 2.10861Q5.39642 2.10861 5.26398 2.46994L0.0511169 15.8891Q0 16.0231 0 16.1353Q0 16.3023 0.100174 16.3963Q0.200348 16.4903 0.370331 16.4903ZM2.77039 10.9219L5.74799 3.17551L5.78979 3.17551L8.76755 10.9219Z" fill="rgba(0,0,0,0.85)"/>
 </g>
</svg>
