<?xml version="1.0" encoding="UTF-8"?>
<!--Generator: Apple Native CoreSVG 175.5-->
<!DOCTYPE svg
PUBLIC "-//W3C//DTD SVG 1.1//EN"
       "http://www.w3.org/Graphics/SVG/1.1/DTD/svg11.dtd">
<svg version="1.1" xmlns="http://www.w3.org/2000/svg" xmlns:xlink="http://www.w3.org/1999/xlink" width="19.6777" height="16.9043">
 <g>
  <rect height="16.9043" opacity="0" width="19.6777" x="0" y="0"/>
  <path d="M13.418 1.48438L18.9258 1.48438Q19.2383 1.48438 19.458 1.26953Q19.6777 1.05469 19.6777 0.742188Q19.6777 0.439453 19.458 0.224609Q19.2383 0.00976562 18.9258 0.00976562L13.418 0.00976562Q13.1055 0.00976562 12.8955 0.224609Q12.6855 0.439453 12.6855 0.742188Q12.6855 1.05469 12.8955 1.26953Q13.1055 1.48438 13.418 1.48438ZM13.418 6.60156L18.9258 6.60156Q19.2383 6.60156 19.458 6.38672Q19.6777 6.17188 19.6777 5.85938Q19.6777 5.54688 19.458 5.33691Q19.2383 5.12695 18.9258 5.12695L13.418 5.12695Q13.1055 5.12695 12.8955 5.33691Q12.6855 5.54688 12.6855 5.85938Q12.6855 6.17188 12.8955 6.38672Q13.1055 6.60156 13.418 6.60156ZM0.732422 11.7188L18.9258 11.7188Q19.2383 11.7188 19.458 11.5039Q19.6777 11.2891 19.6777 10.9766Q19.6777 10.6641 19.458 10.4541Q19.2383 10.2441 18.9258 10.2441L0.732422 10.2441Q0.429688 10.2441 0.214844 10.4541Q0 10.6641 0 10.9766Q0 11.2891 0.214844 11.5039Q0.429688 11.7188 0.732422 11.7188ZM0.732422 16.8262L18.9258 16.8262Q19.2383 16.8262 19.458 16.6162Q19.6777 16.4062 19.6777 16.0938Q19.6777 15.7812 19.458 15.5664Q19.2383 15.3516 18.9258 15.3516L0.732422 15.3516Q0.429688 15.3516 0.214844 15.5664Q0 15.7812 0 16.0938Q0 16.4062 0.214844 16.6162Q0.429688 16.8262 0.732422 16.8262Z" fill="#ffffff"/>
  <path d="M2.69531 7.23633Q3.31055 7.23633 3.82812 6.97266Q4.3457 6.70898 4.65332 6.22559Q4.96094 5.74219 4.96094 5.08789Q4.96094 4.15039 4.38965 3.58398Q3.81836 3.01758 2.94922 3.01758Q2.34375 3.01758 1.93359 3.33496Q1.52344 3.65234 1.37695 4.28711L1.5332 4.30664Q1.58203 3.44727 1.95312 2.79297Q2.32422 2.13867 2.94922 1.75781Q3.57422 1.37695 4.38477 1.33789Q4.6582 1.32812 4.84375 1.14258Q5.0293 0.957031 5.0293 0.683594Q5.0293 0.351562 4.78516 0.175781Q4.54102 0 4.17969 0Q3.07617 0 2.13379 0.571289Q1.19141 1.14258 0.610352 2.12891Q0.0292969 3.11523 0.0292969 4.3457Q0.0292969 5.66406 0.805664 6.4502Q1.58203 7.23633 2.69531 7.23633ZM8.67188 7.23633Q9.28711 7.23633 9.80469 6.97266Q10.3223 6.70898 10.6348 6.22559Q10.9473 5.74219 10.9473 5.08789Q10.9473 4.15039 10.376 3.58398Q9.80469 3.01758 8.92578 3.01758Q8.33008 3.01758 7.91504 3.33496Q7.5 3.65234 7.35352 4.28711L7.50977 4.30664Q7.55859 3.44727 7.92969 2.78809Q8.30078 2.12891 8.92578 1.75293Q9.55078 1.37695 10.3516 1.33789Q10.6445 1.32812 10.8301 1.14258Q11.0156 0.957031 11.0156 0.683594Q11.0156 0.351562 10.7715 0.175781Q10.5273 0 10.1562 0Q9.0625 0 8.11523 0.571289Q7.16797 1.14258 6.58691 2.12891Q6.00586 3.11523 6.00586 4.3457Q6.00586 5.66406 6.78223 6.4502Q7.55859 7.23633 8.67188 7.23633Z" fill="#ffffff"/>
 </g>
</svg>
