<?xml version="1.0" encoding="UTF-8"?>
<!--Generator: Apple Native CoreSVG 175.5-->
<!DOCTYPE svg
PUBLIC "-//W3C//DTD SVG 1.1//EN"
       "http://www.w3.org/Graphics/SVG/1.1/DTD/svg11.dtd">
<svg version="1.1" xmlns="http://www.w3.org/2000/svg" xmlns:xlink="http://www.w3.org/1999/xlink" width="18.3594" height="14.4824">
 <g>
  <rect height="14.4824" opacity="0" width="18.3594" x="0" y="0"/>
  <path d="M4.98047 14.4336Q5.38086 14.4336 5.625 14.1943Q5.86914 13.9551 5.86914 13.5449L5.86914 1.06445Q5.86914 0.585938 5.5957 0.332031Q5.32227 0.078125 4.86328 0.078125Q4.53125 0.078125 4.29688 0.180664Q4.0625 0.283203 3.75977 0.478516L0.507812 2.58789Q0 2.91992 0 3.38867Q0 3.69141 0.200195 3.88672Q0.400391 4.08203 0.722656 4.08203Q0.917969 4.08203 1.04004 4.02832Q1.16211 3.97461 1.28906 3.88672L4.07227 2.13867L4.11133 2.13867L4.11133 13.5449Q4.11133 13.9551 4.34082 14.1943Q4.57031 14.4336 4.98047 14.4336ZM9.43359 14.2383L17.5488 14.2383Q17.9199 14.2383 18.1396 14.0234Q18.3594 13.8086 18.3594 13.457Q18.3594 13.1055 18.1396 12.8857Q17.9199 12.666 17.5488 12.666L11.0449 12.666L11.0449 12.6172L14.8633 8.87695Q16.0156 7.75391 16.6699 6.92871Q17.3242 6.10352 17.5977 5.40527Q17.8711 4.70703 17.8711 3.95508Q17.8711 2.83203 17.2656 1.93848Q16.6602 1.04492 15.6104 0.522461Q14.5605 0 13.2422 0Q11.6797 0 10.459 0.78125Q9.23828 1.5625 8.78906 2.85156Q8.62305 3.32031 8.62305 3.70117Q8.62305 4.0625 8.82812 4.28711Q9.0332 4.51172 9.39453 4.51172Q9.73633 4.51172 9.90723 4.34082Q10.0781 4.16992 10.1953 3.80859Q10.2539 3.58398 10.3369 3.37402Q10.4199 3.16406 10.5371 2.97852Q10.9277 2.32422 11.626 1.93848Q12.3242 1.55273 13.2422 1.55273Q14.0332 1.55273 14.6777 1.88965Q15.3223 2.22656 15.7031 2.79297Q16.084 3.35938 16.084 4.05273Q16.084 4.60938 15.8887 5.1123Q15.6934 5.61523 15.1758 6.25Q14.6582 6.88477 13.6914 7.8418L9.12109 12.4121Q8.81836 12.7148 8.69629 12.9346Q8.57422 13.1543 8.57422 13.418Q8.57422 13.7988 8.80859 14.0186Q9.04297 14.2383 9.43359 14.2383Z" fill="#ffffff"/>
 </g>
</svg>
