<?xml version="1.0" encoding="UTF-8"?>
<!--Generator: Apple Native CoreSVG 175.5-->
<!DOCTYPE svg
PUBLIC "-//W3C//DTD SVG 1.1//EN"
       "http://www.w3.org/Graphics/SVG/1.1/DTD/svg11.dtd">
<svg version="1.1" xmlns="http://www.w3.org/2000/svg" xmlns:xlink="http://www.w3.org/1999/xlink" width="32.9759" height="22.5451">
 <g>
  <rect height="22.5451" opacity="0" width="32.9759" x="0" y="0"/>
  <path d="M21.1812 21.5997Q23.5836 22.2344 25.5562 21.7364Q27.5289 21.2383 28.9205 19.6905Q30.3121 18.1426 30.9859 15.6329L32.8218 8.80671Q33.1929 7.41999 32.6705 6.52643Q32.148 5.63288 30.732 5.25202L21.064 2.66413Q19.6578 2.29303 18.7691 2.80085Q17.8804 3.30866 17.4996 4.70514L16.6988 7.63483L17.3628 11.4044L19.0328 5.18366Q19.2086 4.52936 19.6187 4.2901Q20.0289 4.05085 20.6734 4.22663L30.3023 6.79499Q30.9468 6.97077 31.1812 7.39069Q31.4156 7.81061 31.2398 8.47467L29.4234 15.2325Q28.8863 17.2637 27.773 18.5089Q26.6597 19.754 25.0875 20.1544Q23.5152 20.5548 21.5816 20.0469Q19.3453 19.4317 18.1295 17.9571Q16.9136 16.4825 16.9234 14.3438L15.5953 16.7559Q16.1519 18.543 17.5777 19.7735Q19.0035 21.004 21.1812 21.5997ZM20.8687 11.2872Q21.4058 11.4337 21.899 11.1553Q22.3921 10.877 22.5386 10.3301Q22.6851 9.78327 22.4019 9.2901Q22.1187 8.79694 21.5621 8.64069Q21.025 8.49421 20.5367 8.78229Q20.0484 9.07038 19.8921 9.61725Q19.7457 10.1641 20.0337 10.6524Q20.3218 11.1407 20.8687 11.2872ZM26.6011 12.8204Q27.148 12.9571 27.6363 12.6739Q28.1246 12.3907 28.2711 11.8438Q28.4175 11.2969 28.1343 10.8087Q27.8511 10.3204 27.3043 10.1739Q26.7574 10.0274 26.2691 10.3057Q25.7808 10.584 25.6441 11.1309Q25.4878 11.6778 25.7711 12.171Q26.0543 12.6641 26.6011 12.8204ZM22.4898 16.5606Q23.3003 16.7755 23.9986 17.171Q24.6968 17.5665 25.4586 18.2501Q25.7515 18.5137 26.0445 18.3819Q26.3375 18.2501 26.3179 17.8594Q26.2691 16.5704 25.3902 15.5792Q24.5113 14.588 23.105 14.2266Q21.6988 13.8458 20.4439 14.2657Q19.189 14.6856 18.4957 15.7696Q18.2906 16.0821 18.481 16.3555Q18.6714 16.629 19.0621 16.5411Q20.0386 16.3262 20.8589 16.3311Q21.6793 16.336 22.4898 16.5606Z" fill="#ffffff"/>
  <path d="M11.7964 19.0801Q14.2086 18.4258 15.6636 17.0147Q17.1187 15.6036 17.5533 13.5674Q17.9878 11.5313 17.314 9.01178L15.4781 2.17585Q15.107 0.789127 14.2086 0.286198Q13.3101-0.216732 11.9039 0.164127L2.22613 2.73249Q0.810115 3.10358 0.29742 3.99225Q-0.215275 4.88092 0.155818 6.28717L1.97222 13.1231Q2.63629 15.6329 4.03277 17.1807Q5.42926 18.7286 7.40679 19.2266Q9.38433 19.7247 11.7964 19.0801ZM11.3765 17.5274Q9.46246 18.0352 7.88531 17.6299Q6.30816 17.2247 5.19488 15.9747Q4.0816 14.7247 3.54449 12.7032L1.72808 5.93561Q1.5523 5.28131 1.78668 4.87116Q2.02105 4.461 2.66558 4.27546L12.2945 1.69733Q12.939 1.52155 13.3589 1.77057Q13.7789 2.0196 13.9449 2.67389L15.7515 9.44147Q16.2984 11.4727 15.9566 13.1085Q15.6148 14.7442 14.4576 15.877Q13.3003 17.0098 11.3765 17.5274ZM10.8492 15.5255Q12.3921 15.0958 13.3199 14.0069Q14.2476 12.918 14.2964 11.463Q14.3062 11.0919 14.0425 10.9747Q13.7789 10.8575 13.4664 11.1016Q12.4703 11.8048 11.5181 12.1319Q10.566 12.459 10.0679 12.5958Q9.56988 12.7325 8.57867 12.9278Q7.58746 13.1231 6.35699 13.0059Q5.96637 12.9571 5.79547 13.1915Q5.62457 13.4258 5.82965 13.7188Q6.60113 14.959 7.94879 15.4424Q9.29644 15.9258 10.8492 15.5255ZM6.07379 9.30475Q6.60113 9.16803 6.8941 9.29987Q7.18707 9.43171 7.41168 9.37311Q7.56793 9.33405 7.62652 9.1485Q7.68512 8.96296 7.61676 8.69928Q7.46051 8.04499 6.85992 7.70319Q6.25933 7.36139 5.6148 7.55671Q4.96051 7.72272 4.60894 8.30866Q4.25738 8.8946 4.44293 9.53913Q4.52105 9.81256 4.66754 9.9444Q4.81402 10.0762 4.97027 10.0372Q5.18512 9.96881 5.37066 9.70514Q5.55621 9.44147 6.07379 9.30475ZM11.855 7.73249Q12.3824 7.59577 12.6753 7.7276Q12.9683 7.85944 13.1929 7.81061Q13.3492 7.76178 13.4127 7.57624Q13.4761 7.39069 13.398 7.12702Q13.2418 6.47272 12.6461 6.13581Q12.0503 5.79889 11.4058 5.99421Q10.7418 6.15046 10.3902 6.74128Q10.0386 7.3321 10.2242 7.96686Q10.3023 8.2403 10.4488 8.37702Q10.5953 8.51374 10.7515 8.46491Q10.9761 8.39655 11.1568 8.13288Q11.3375 7.86921 11.855 7.73249Z" fill="#ffffff"/>
 </g>
</svg>
