<?xml version="1.0" encoding="UTF-8"?>
<!--Generator: Apple Native CoreSVG 175.5-->
<!DOCTYPE svg
PUBLIC "-//W3C//DTD SVG 1.1//EN"
       "http://www.w3.org/Graphics/SVG/1.1/DTD/svg11.dtd">
<svg version="1.1" xmlns="http://www.w3.org/2000/svg" xmlns:xlink="http://www.w3.org/1999/xlink" width="19.9219" height="19.9316">
 <g>
  <rect height="19.9316" opacity="0" width="19.9219" x="0" y="0"/>
  <path d="M9.96094 19.9219Q12.002 19.9219 13.8037 19.1406Q15.6055 18.3594 16.9824 16.9824Q18.3594 15.6055 19.1406 13.8037Q19.9219 12.002 19.9219 9.96094Q19.9219 7.91992 19.1406 6.11816Q18.3594 4.31641 16.9824 2.93945Q15.6055 1.5625 13.7988 0.78125Q11.9922 0 9.95117 0Q7.91016 0 6.1084 0.78125Q4.30664 1.5625 2.93457 2.93945Q1.5625 4.31641 0.78125 6.11816Q0 7.91992 0 9.96094Q0 12.002 0.78125 13.8037Q1.5625 15.6055 2.93945 16.9824Q4.31641 18.3594 6.11816 19.1406Q7.91992 19.9219 9.96094 19.9219Z" fill="#ffffff"/>
  <path d="M9.96094 15.6836Q8.78906 15.6836 7.75391 15.2344Q6.71875 14.7852 5.92773 13.9941Q5.13672 13.2031 4.6875 12.168Q4.23828 11.1328 4.23828 9.96094Q4.23828 8.91602 4.60938 7.96387Q4.98047 7.01172 5.61523 6.26953Q5.82031 6.02539 6.1084 6.00098Q6.39648 5.97656 6.60156 6.19141Q6.79688 6.38672 6.78711 6.65039Q6.77734 6.91406 6.62109 7.11914Q6.12305 7.69531 5.84473 8.41309Q5.56641 9.13086 5.56641 9.96094Q5.56641 11.1914 6.15234 12.1875Q6.73828 13.1836 7.73438 13.7695Q8.73047 14.3555 9.96094 14.3555Q11.1914 14.3555 12.1875 13.7695Q13.1836 13.1836 13.7646 12.1875Q14.3457 11.1914 14.3457 9.96094Q14.3457 8.81836 13.8525 7.88086Q13.3594 6.94336 12.5 6.34277Q11.6406 5.74219 10.5469 5.60547L10.5469 6.47461Q10.5469 6.72852 10.376 6.91406Q10.2051 7.09961 9.94141 7.09961Q9.66797 7.09961 9.50195 6.91406Q9.33594 6.72852 9.33594 6.47461L9.33594 4.88281Q9.33594 4.59961 9.49707 4.41895Q9.6582 4.23828 9.9707 4.23828Q11.1426 4.23828 12.1777 4.68262Q13.2129 5.12695 14.0039 5.91797Q14.7949 6.70898 15.2393 7.74414Q15.6836 8.7793 15.6836 9.96094Q15.6836 11.1328 15.2393 12.168Q14.7949 13.2031 14.0039 13.9941Q13.2129 14.7852 12.1777 15.2344Q11.1426 15.6836 9.96094 15.6836ZM10.918 10.8301Q10.5469 11.1914 10.083 11.1328Q9.61914 11.0742 9.32617 10.625L7.55859 7.99805Q7.43164 7.80273 7.49512 7.63184Q7.55859 7.46094 7.73438 7.39746Q7.91016 7.33398 8.10547 7.46094L10.7324 9.22852Q11.1621 9.53125 11.2256 9.98535Q11.2891 10.4395 10.918 10.8301Z" fill="none"/>
 </g>
</svg>
