<?xml version="1.0" encoding="UTF-8"?>
<!--Generator: Apple Native CoreSVG 175.5-->
<!DOCTYPE svg
PUBLIC "-//W3C//DTD SVG 1.1//EN"
       "http://www.w3.org/Graphics/SVG/1.1/DTD/svg11.dtd">
<svg version="1.1" xmlns="http://www.w3.org/2000/svg" xmlns:xlink="http://www.w3.org/1999/xlink" width="14.6991" height="23.623">
 <g>
  <rect height="23.623" opacity="0" width="14.6991" x="0" y="0"/>
  <path d="M0.899368 1.57227L13.8095 1.57227Q14.1318 1.57227 14.3613 1.33789Q14.5908 1.10352 14.5908 0.78125Q14.5908 0.458984 14.3613 0.229492Q14.1318 0 13.8095 0L0.899368 0Q0.577102 0 0.342727 0.229492Q0.108352 0.458984 0.108352 0.78125Q0.108352 1.10352 0.342727 1.33789Q0.577102 1.57227 0.899368 1.57227ZM1.68062 9.01367L3.24312 8.84766L2.72554 1.20117L1.14351 1.24023ZM11.456 8.84766L13.0283 9.01367L13.5556 1.24023L11.9834 1.20117ZM7.35445 14.0625Q9.53218 14.0625 11.1875 13.6475Q12.8427 13.2324 13.7705 12.4805Q14.6982 11.7285 14.6982 10.7031Q14.6982 9.6875 13.7656 8.93066Q12.833 8.17383 11.1777 7.75879Q9.52241 7.34375 7.35445 7.34375Q5.18648 7.34375 3.52632 7.75879Q1.86616 8.17383 0.933547 8.93066Q0.00093006 9.6875 0.00093006 10.7031Q0.00093006 11.7285 0.93843 12.4805Q1.87593 13.2324 3.5312 13.6475Q5.18648 14.0625 7.35445 14.0625ZM7.35445 12.4902Q5.66499 12.4902 4.36616 12.251Q3.06734 12.0117 2.33003 11.6064Q1.59273 11.2012 1.59273 10.7031Q1.59273 10.2051 2.33003 9.7998Q3.06734 9.39453 4.36616 9.15527Q5.66499 8.91602 7.35445 8.91602Q9.03413 8.91602 10.3378 9.15527Q11.6416 9.39453 12.3789 9.7998Q13.1162 10.2051 13.1162 10.7031Q13.1162 11.2012 12.3837 11.6064Q11.6513 12.0117 10.3525 12.251Q9.05366 12.4902 7.35445 12.4902ZM7.00288 17.832L7.70601 17.832Q9.76656 17.832 11.3584 16.9189Q12.9501 16.0059 13.8388 14.3945Q14.7275 12.7832 14.6982 10.7031L13.1162 10.7031Q13.1455 12.3535 12.4668 13.6084Q11.788 14.8633 10.5576 15.5615Q9.3271 16.2598 7.70601 16.2598L7.00288 16.2598Q5.37202 16.2598 4.14156 15.5615Q2.91109 14.8633 2.23726 13.6133Q1.56343 12.3633 1.59273 10.7031L0.00093006 10.7031Q-0.0283668 12.793 0.865188 14.3994Q1.75874 16.0059 3.34566 16.9189Q4.93257 17.832 7.00288 17.832ZM7.37398 23.5938Q8.26265 23.5938 9.20015 23.4473Q10.1376 23.3008 10.9335 22.998Q11.7294 22.6953 12.1884 22.2363Q12.374 22.041 12.3984 21.8018Q12.4228 21.5625 12.3544 21.2988L10.7334 15.9766L9.33687 16.7773L10.958 22.1387L11.0361 21.1426Q10.5576 21.5625 9.53706 21.792Q8.51656 22.0215 7.37398 22.0215Q6.22163 22.0215 5.20113 21.792Q4.18062 21.5625 3.71187 21.1426L3.78023 22.1387L5.41109 16.7773L4.0146 15.9766L2.39351 21.2988Q2.31538 21.5625 2.3398 21.8018Q2.36421 22.041 2.54976 22.2363Q3.01851 22.6953 3.81441 22.998Q4.61031 23.3008 5.54292 23.4473Q6.47554 23.5938 7.37398 23.5938Z" fill="#ffffff"/>
 </g>
</svg>
