<?xml version="1.0" encoding="UTF-8"?>
<!--Generator: Apple Native CoreSVG 175.5-->
<!DOCTYPE svg
PUBLIC "-//W3C//DTD SVG 1.1//EN"
       "http://www.w3.org/Graphics/SVG/1.1/DTD/svg11.dtd">
<svg version="1.1" xmlns="http://www.w3.org/2000/svg" xmlns:xlink="http://www.w3.org/1999/xlink" width="14.2871" height="23.623">
 <g>
  <rect height="23.623" opacity="0" width="14.2871" x="0" y="0"/>
  <path d="M0.78125 1.60156L13.5059 1.60156Q13.8281 1.60156 14.0576 1.36719Q14.2871 1.13281 14.2871 0.810547Q14.2871 0.488281 14.0576 0.258789Q13.8281 0.0292969 13.5059 0.0292969L0.78125 0.0292969Q0.458984 0.0292969 0.229492 0.258789Q0 0.488281 0 0.810547Q0 1.13281 0.229492 1.36719Q0.458984 1.60156 0.78125 1.60156ZM7.14844 13.1152Q8.63281 13.1152 9.87305 12.9395Q11.1133 12.7637 12.0264 12.4365Q12.9395 12.1094 13.4375 11.665Q13.9355 11.2207 13.9355 10.6836Q13.9355 10.1562 13.4326 9.71191Q12.9297 9.26758 12.0166 8.94531Q11.1035 8.62305 9.86328 8.44727Q8.62305 8.27148 7.14844 8.27148Q5.67383 8.27148 4.43359 8.44727Q3.19336 8.62305 2.28027 8.94531Q1.36719 9.26758 0.859375 9.71191Q0.351562 10.1562 0.351562 10.6836Q0.351562 11.2207 0.859375 11.665Q1.36719 12.1094 2.28027 12.4365Q3.19336 12.7637 4.43359 12.9395Q5.67383 13.1152 7.14844 13.1152ZM6.81641 17.7637L7.4707 17.7637Q9.11133 17.7637 10.4443 17.1533Q11.7773 16.543 12.6611 15.4004Q13.5449 14.2578 13.8281 12.666Q12.832 13.3789 11.1084 13.7646Q9.38477 14.1504 7.14844 14.1504Q4.92188 14.1504 3.18848 13.7646Q1.45508 13.3789 0.46875 12.6562Q0.742188 14.2578 1.62109 15.4004Q2.5 16.543 3.83789 17.1533Q5.17578 17.7637 6.81641 17.7637ZM7.14844 23.623Q7.93945 23.623 8.83789 23.4766Q9.73633 23.3301 10.5225 23.0273Q11.3086 22.7246 11.7676 22.2656Q11.9531 22.0703 11.9775 21.8311Q12.002 21.5918 11.9238 21.3281L10.9668 18.1348Q10.166 18.4863 9.27734 18.667Q8.38867 18.8477 7.48047 18.8477L6.77734 18.8477Q5.87891 18.8477 5 18.6719Q4.12109 18.4961 3.32031 18.1543L2.36328 21.3281Q2.28516 21.5918 2.30957 21.8311Q2.33398 22.0703 2.51953 22.2656Q2.98828 22.7246 3.77441 23.0273Q4.56055 23.3301 5.4541 23.4766Q6.34766 23.623 7.14844 23.623ZM12.7832 8.07617L13.1641 2.68555L1.12305 2.68555L1.51367 8.07617Q2.55859 7.64648 3.99902 7.41699Q5.43945 7.1875 7.14844 7.1875Q8.85742 7.1875 10.2979 7.41699Q11.7383 7.64648 12.7832 8.07617Z" fill="#ffffff"/>
 </g>
</svg>
