<?xml version="1.0" encoding="UTF-8"?>
<!--Generator: Apple Native CoreSVG 175-->
<!DOCTYPE svg
PUBLIC "-//W3C//DTD SVG 1.1//EN"
       "http://www.w3.org/Graphics/SVG/1.1/DTD/svg11.dtd">
<svg version="1.1" xmlns="http://www.w3.org/2000/svg" xmlns:xlink="http://www.w3.org/1999/xlink" width="16.4117" height="23.4201">
 <g>
  <rect height="23.4201" opacity="0" width="16.4117" x="0" y="0"/>
  <path d="M3.21243 19.9036L13.1993 19.9036Q14.3497 19.9036 15.0549 19.4636Q15.7602 19.0236 16.086 18.2947Q16.4117 17.5658 16.4117 16.7047L16.4117 10.3778Q16.4117 8.80478 16.267 7.3452Q16.1223 5.88562 15.9071 4.69757Q15.6918 3.50952 15.4895 2.75787Q15.3012 2.0755 14.9145 1.55205Q14.5277 1.02859 13.967 0.703583Q13.4062 0.378571 12.7156 0.297699Q11.9656 0.206757 10.7928 0.133514Q9.6199 0.0602722 8.20587 0.0602722Q6.79184 0.0602722 5.61546 0.133514Q4.43909 0.206757 3.69614 0.297699Q2.99576 0.378571 2.43851 0.703583Q1.88126 1.02859 1.49239 1.55205Q1.10352 2.0755 0.922241 2.75787Q0.710144 3.50952 0.498428 4.69757Q0.286713 5.88562 0.143356 7.3452Q0 8.80478 0 10.3778L0 16.7047Q0 17.5658 0.322266 18.2947Q0.644531 19.0236 1.3533 19.4636Q2.06207 19.9036 3.21243 19.9036ZM5.59341 3.0481Q5.39017 3.0481 5.28183 2.92778Q5.17349 2.80746 5.17349 2.61841Q5.17349 2.43912 5.28183 2.32018Q5.39017 2.20123 5.59341 2.20123L10.8156 2.20123Q11.0117 2.20123 11.125 2.32018Q11.2383 2.43912 11.2383 2.61841Q11.2383 2.80746 11.125 2.92778Q11.0117 3.0481 10.8156 3.0481ZM8.20587 13.8521Q6.68243 13.8423 5.43472 13.7915Q4.18701 13.7407 3.27652 13.6641Q2.78091 13.6125 2.51099 13.3053Q2.24106 12.998 2.24106 12.5035L2.24106 10.0746Q2.24106 9.22897 2.29614 8.44536Q2.35123 7.66174 2.44263 6.96999Q2.53403 6.27823 2.64725 5.70435Q2.71835 5.29068 2.96989 5.03014Q3.22144 4.76959 3.59726 4.73053Q4.46243 4.64691 5.57343 4.5932Q6.68442 4.53949 8.20587 4.53674Q9.70627 4.534 10.8004 4.58694Q11.8945 4.63989 12.684 4.72351Q13.1075 4.76959 13.3885 5.03014Q13.6696 5.29068 13.7407 5.70435Q13.8539 6.27823 13.9453 6.96999Q14.0367 7.66174 14.0918 8.44536Q14.1469 9.22897 14.1469 10.0746L14.1469 12.5035Q14.1469 13.0008 13.877 13.308Q13.607 13.6153 13.1114 13.6641Q12.1126 13.7489 10.8719 13.7969Q9.6312 13.8449 8.20587 13.8521ZM3.62976 17.7193Q3.1308 17.7193 2.80052 17.3925Q2.47025 17.0657 2.47025 16.5642Q2.47025 16.0626 2.80052 15.7323Q3.1308 15.4021 3.62976 15.4021Q4.1243 15.4021 4.45946 15.7323Q4.79462 16.0626 4.79462 16.5642Q4.79462 17.0657 4.45808 17.3925Q4.12155 17.7193 3.62976 17.7193ZM12.7977 17.722Q12.2989 17.722 11.961 17.3925Q11.6231 17.063 11.6231 16.5642Q11.6231 16.0654 11.961 15.7323Q12.2989 15.3993 12.7977 15.3993Q13.2965 15.3993 13.626 15.7323Q13.9555 16.0654 13.9555 16.5642Q13.9555 17.063 13.6211 17.3925Q13.2867 17.722 12.7977 17.722ZM1.58279 23.4201L1.98196 23.4201Q2.23358 23.4201 2.36557 23.2005L4.67499 19.4942L3.45657 19.4942L1.33316 22.9008Q1.24847 23.0286 1.25877 23.1466Q1.26907 23.2646 1.35094 23.3424Q1.4328 23.4201 1.58279 23.4201ZM2.58987 22.3091L13.8161 22.3091L13.8161 21.3153L2.58987 21.3153ZM14.4266 23.4201L14.8257 23.4201Q14.973 23.4201 15.0535 23.341Q15.134 23.2619 15.143 23.1452Q15.152 23.0286 15.0671 22.9008L12.9492 19.4942L11.7308 19.4942L14.0402 23.2005Q14.175 23.4201 14.4266 23.4201Z" fill="#ffffff"/>
 </g>
</svg>
