<?xml version="1.0" encoding="UTF-8"?>
<!--Generator: Apple Native CoreSVG 175.5-->
<!DOCTYPE svg
PUBLIC "-//W3C//DTD SVG 1.1//EN"
       "http://www.w3.org/Graphics/SVG/1.1/DTD/svg11.dtd">
<svg version="1.1" xmlns="http://www.w3.org/2000/svg" xmlns:xlink="http://www.w3.org/1999/xlink" width="16.4258" height="24.4043">
 <g>
  <rect height="24.4043" opacity="0" width="16.4258" x="0" y="0"/>
  <path d="M2.73438 20.1074L13.6914 20.1074Q14.5605 20.1074 15.1709 19.7412Q15.7812 19.375 16.1035 18.7305Q16.4258 18.0859 16.4258 17.2461L16.4258 10.2441Q16.4258 8.94531 16.3232 7.7002Q16.2207 6.45508 16.0547 5.37598Q15.8887 4.29688 15.6934 3.49609Q15.498 2.66602 15.0586 2.00195Q14.6191 1.33789 13.96 0.917969Q13.3008 0.498047 12.4414 0.410156Q11.9727 0.361328 10.835 0.288086Q9.69727 0.214844 8.21289 0.214844Q6.72852 0.214844 5.59082 0.288086Q4.45312 0.361328 3.98438 0.410156Q3.11523 0.498047 2.45605 0.917969Q1.79688 1.33789 1.3623 2.00195Q0.927734 2.66602 0.732422 3.49609Q0.527344 4.29688 0.361328 5.37598Q0.195312 6.45508 0.0976562 7.7002Q0 8.94531 0 10.2441L0 17.2461Q0 18.0859 0.322266 18.7305Q0.644531 19.375 1.25488 19.7412Q1.86523 20.1074 2.73438 20.1074ZM5.71289 3.25195Q5.43945 3.25195 5.27832 3.08594Q5.11719 2.91992 5.11719 2.64648Q5.11719 2.38281 5.27832 2.22168Q5.43945 2.06055 5.71289 2.06055L10.7031 2.06055Q10.9766 2.06055 11.1426 2.22168Q11.3086 2.38281 11.3086 2.64648Q11.3086 2.91992 11.1426 3.08594Q10.9766 3.25195 10.7031 3.25195ZM8.21289 13.6621Q6.51367 13.6523 5.05859 13.584Q3.60352 13.5156 2.8125 13.418Q2.37305 13.3594 2.1875 13.0908Q2.00195 12.8223 2.00195 12.4121L2.00195 10.166Q2.00195 9.17969 2.06055 8.33984Q2.11914 7.5 2.20703 6.875Q2.29492 6.25 2.37305 5.9082Q2.45117 5.58594 2.64648 5.37109Q2.8418 5.15625 3.1543 5.11719Q3.98438 5.01953 5.12695 4.96582Q6.26953 4.91211 8.21289 4.90234Q10.1562 4.89258 11.2891 4.95605Q12.4219 5.01953 13.2324 5.11719Q13.5645 5.15625 13.7646 5.37109Q13.9648 5.58594 14.043 5.9082Q14.1211 6.25 14.209 6.875Q14.2969 7.5 14.3555 8.33984Q14.4141 9.17969 14.4141 10.166L14.4141 12.4121Q14.4141 12.832 14.2285 13.1006Q14.043 13.3691 13.6035 13.418Q12.4219 13.5449 10.9668 13.6035Q9.51172 13.6621 8.21289 13.6621ZM3.67188 18.0566Q3.0957 18.0566 2.71973 17.6807Q2.34375 17.3047 2.34375 16.7188Q2.34375 16.1328 2.71973 15.7568Q3.0957 15.3809 3.67188 15.3809Q4.25781 15.3809 4.63867 15.7568Q5.01953 16.1328 5.01953 16.7188Q5.01953 17.3047 4.63379 17.6807Q4.24805 18.0566 3.67188 18.0566ZM12.7344 18.0664Q12.1582 18.0664 11.7676 17.6807Q11.377 17.2949 11.377 16.7188Q11.377 16.1426 11.7676 15.7568Q12.1582 15.3711 12.7344 15.3711Q13.3105 15.3711 13.6963 15.7568Q14.082 16.1426 14.082 16.7188Q14.082 17.2949 13.6914 17.6807Q13.3008 18.0664 12.7344 18.0664ZM1.48438 24.4043L2.03125 24.4043Q2.40234 24.4043 2.59766 24.0723L5.37109 19.5996L3.50586 19.5996L1.04492 23.5547Q0.917969 23.7598 0.942383 23.9551Q0.966797 24.1504 1.1084 24.2773Q1.25 24.4043 1.48438 24.4043ZM2.34375 23.1738L14.1113 23.1738L14.1113 21.709L2.34375 21.709ZM14.4336 24.4043L14.9805 24.4043Q15.2051 24.4043 15.3418 24.2725Q15.4785 24.1406 15.498 23.9502Q15.5176 23.7598 15.3906 23.5547L12.9492 19.5996L11.084 19.5996L13.8574 24.0723Q14.0625 24.4043 14.4336 24.4043Z" fill="#ffffff"/>
 </g>
</svg>
