<?xml version="1.0" encoding="UTF-8"?>
<!--Generator: Apple Native CoreSVG 175.5-->
<!DOCTYPE svg
PUBLIC "-//W3C//DTD SVG 1.1//EN"
       "http://www.w3.org/Graphics/SVG/1.1/DTD/svg11.dtd">
<svg version="1.1" xmlns="http://www.w3.org/2000/svg" xmlns:xlink="http://www.w3.org/1999/xlink" width="19.9432" height="23.4668">
 <g>
  <rect height="23.4668" opacity="0" width="19.9432" x="0" y="0"/>
  <path d="M0.101024 17.0508Q-0.191945 18.2227 0.364696 18.9062Q0.921336 19.5898 2.22993 19.5898L17.7084 19.5898Q19.0268 19.5898 19.5786 18.9062Q20.1303 18.2227 19.8471 17.0508L17.1323 6.02539Q16.8588 4.92188 16.2094 4.3457Q15.56 3.76953 14.3686 3.76953L5.57954 3.76953Q4.38813 3.76953 3.73384 4.3457Q3.07954 4.92188 2.8061 6.02539ZM1.5854 17.0508L4.21235 6.23047Q4.44673 5.24414 5.51118 5.24414L14.437 5.24414Q15.4916 5.24414 15.7358 6.23047L18.353 17.0508Q18.4702 17.5391 18.2553 17.8271Q18.0405 18.1152 17.562 18.1152L2.37641 18.1152Q1.90766 18.1152 1.68794 17.8271Q1.46821 17.5391 1.5854 17.0508ZM9.98384 23.3594Q10.3256 23.3594 10.5209 23.1494Q10.7163 22.9395 10.7163 22.5781L10.7163 0.78125Q10.7163 0.419922 10.5209 0.209961Q10.3256 0 9.98384 0Q9.63227 0 9.43696 0.209961Q9.24165 0.419922 9.24165 0.78125L9.24165 22.5781Q9.24165 22.9395 9.43696 23.1494Q9.63227 23.3594 9.98384 23.3594Z" fill="#ffffff"/>
 </g>
</svg>
