<?xml version="1.0" encoding="UTF-8"?>
<!--Generator: Apple Native CoreSVG 175.5-->
<!DOCTYPE svg
PUBLIC "-//W3C//DTD SVG 1.1//EN"
       "http://www.w3.org/Graphics/SVG/1.1/DTD/svg11.dtd">
<svg version="1.1" xmlns="http://www.w3.org/2000/svg" xmlns:xlink="http://www.w3.org/1999/xlink" width="18.916" height="23.7012">
 <g>
  <rect height="23.7012" opacity="0" width="18.916" x="0" y="0"/>
  <path d="M16.2891 15.2051L16.7188 5.35156L18.1836 5.35156Q18.4863 5.35156 18.7012 5.13184Q18.916 4.91211 18.916 4.60938Q18.916 4.30664 18.7012 4.0918Q18.4863 3.87695 18.1836 3.87695L13.8281 3.87695L13.8281 2.38281Q13.8281 1.2793 13.1494 0.639648Q12.4707 0 11.2988 0L7.58789 0Q6.42578 0 5.74707 0.639648Q5.06836 1.2793 5.06836 2.38281L5.06836 3.62305L4.69727 3.62305L8.87695 7.80273L8.87695 7.27539Q9.01367 6.92383 9.45312 6.92383Q9.73633 6.92383 9.91211 7.08496Q10.0879 7.24609 10.0879 7.5L10.0879 9.01367L12.1387 11.0645L12.2363 7.5Q12.2461 7.23633 12.4121 7.08008Q12.5781 6.92383 12.8418 6.92383Q13.125 6.92383 13.291 7.08496Q13.457 7.24609 13.4473 7.5L13.3203 12.2461ZM6.83594 3.87695L6.83594 2.48047Q6.83594 2.10938 7.07031 1.88477Q7.30469 1.66016 7.70508 1.66016L11.2012 1.66016Q11.6016 1.66016 11.8359 1.88477Q12.0703 2.10938 12.0703 2.48047L12.0703 3.87695ZM4.81445 21.5039L14.1016 21.5039Q14.7754 21.5039 15.249 21.2158Q15.7227 20.9277 15.9082 20.4199L15.918 20.2051L13.1738 17.4609L13.1543 18.1348Q13.1543 18.3984 12.9834 18.5547Q12.8125 18.7109 12.5488 18.7109Q12.2656 18.7109 12.0996 18.5498Q11.9336 18.3887 11.9434 18.1348L11.9922 16.2695L10.0879 14.3652L10.0879 18.1348Q10.0879 18.3887 9.91211 18.5498Q9.73633 18.7109 9.45312 18.7109Q9.17969 18.7109 9.00391 18.5498Q8.82812 18.3887 8.82812 18.1348L8.82812 13.1152L6.77734 11.0547L6.97266 18.1348Q6.98242 18.3887 6.81152 18.5498Q6.64062 18.7109 6.36719 18.7109Q6.09375 18.7109 5.92773 18.5547Q5.76172 18.3984 5.75195 18.1348L5.52734 9.80469L2.25586 6.55273L2.83203 19.6191Q2.87109 20.5273 3.38867 21.0156Q3.90625 21.5039 4.81445 21.5039Z" fill="#ffffff"/>
  <path d="M17.627 20.2539Q17.8418 20.4688 18.1592 20.4688Q18.4766 20.4688 18.6914 20.2539Q18.9062 20.0293 18.9062 19.7168Q18.9062 19.4043 18.6914 19.1895L1.28906 1.77734Q1.06445 1.5625 0.751953 1.55762Q0.439453 1.55273 0.214844 1.77734Q0 1.99219 0 2.30957Q0 2.62695 0.214844 2.8418Z" fill="#ffffff"/>
 </g>
</svg>
