<?xml version="1.0" encoding="UTF-8"?>
<!--Generator: Apple Native CoreSVG 175-->
<!DOCTYPE svg
PUBLIC "-//W3C//DTD SVG 1.1//EN"
       "http://www.w3.org/Graphics/SVG/1.1/DTD/svg11.dtd">
<svg version="1.1" xmlns="http://www.w3.org/2000/svg" xmlns:xlink="http://www.w3.org/1999/xlink" width="22.6617" height="23.5529">
 <g>
  <rect height="23.5529" opacity="0" width="22.6617" x="0" y="0"/>
  <path d="M2.63046 21.7368L20.0243 21.7368Q21.3281 21.7368 21.9949 21.0594Q22.6617 20.3821 22.6617 19.1103L22.6617 13.7578Q22.6617 13.3328 22.5846 13.0849Q22.5075 12.8371 22.2949 12.5703L18.3118 7.4469Q18.0005 7.05475 17.7346 6.80023Q17.4687 6.54572 17.1854 6.40182Q16.902 6.25793 16.5385 6.20087Q16.1751 6.1438 15.6683 6.1438L14.3449 6.1438L14.3449 6.80359L15.7855 6.80359Q16.4 6.80359 16.8055 6.99364Q17.211 7.18369 17.5844 7.64771L21.6469 12.8555Q21.7949 13.0466 21.7548 13.1536Q21.7148 13.2607 21.5112 13.2607L14.4469 13.2607Q14.2137 13.2607 14.1033 13.3958Q13.9929 13.5309 13.9929 13.7422L13.9929 13.8094Q13.9929 14.5657 13.643 15.1788Q13.293 15.7918 12.6903 16.1561Q12.0876 16.5204 11.3309 16.5204Q10.5672 16.5204 9.96796 16.1561Q9.36874 15.7918 9.02016 15.1788Q8.67157 14.5657 8.67157 13.8094L8.67157 13.7422Q8.67157 13.5309 8.55629 13.3958Q8.44101 13.2607 8.21487 13.2607L1.15585 13.2607Q0.94696 13.2607 0.911026 13.1495Q0.875092 13.0383 1.01059 12.8555L5.07187 7.65594Q5.44098 7.18918 5.85274 6.99638Q6.2645 6.80359 6.87622 6.80359L8.34061 6.80359L8.34061 6.1438L6.98639 6.1438Q6.48666 6.1438 6.1232 6.20087Q5.75974 6.25793 5.47279 6.40182Q5.18585 6.54572 4.91867 6.80161Q4.65149 7.0575 4.34723 7.45514L0.366821 12.5703Q0.157013 12.8343 0.0785065 13.0836Q0 13.3328 0 13.7578L0 19.1103Q0 20.3989 0.668182 21.0678Q1.33636 21.7368 2.63046 21.7368ZM2.65701 21.0083Q1.7067 21.0083 1.21765 20.5192Q0.728607 20.0301 0.728607 19.0715L0.728607 13.9368L7.93945 13.9368Q7.97226 14.9013 8.43361 15.6366Q8.89496 16.3719 9.65141 16.787Q10.4079 17.202 11.3309 17.202Q12.2566 17.202 13.0131 16.7834Q13.7695 16.3649 14.2295 15.6296Q14.6895 14.8943 14.7153 13.9368L21.9331 13.9368L21.9331 19.0715Q21.9331 20.0301 21.4287 20.5192Q20.9242 21.0083 20.0047 21.0083ZM11.3309 13.9445Q11.4746 13.9445 11.5824 13.8395Q11.6902 13.7344 11.6902 13.5907L11.6902 2.43637L11.6641 1.07269L12.8203 2.24152L14.7168 4.16092Q14.8305 4.27582 14.9727 4.27582Q15.1067 4.27582 15.2049 4.17892Q15.3032 4.08203 15.3032 3.94379Q15.3032 3.81531 15.1981 3.70743L11.588 0.116119Q11.5257 0.0540161 11.4629 0.0270081Q11.4 0 11.3309 0Q11.2617 0 11.1988 0.0270081Q11.1359 0.0540161 11.0738 0.116119L7.45667 3.70743Q7.35153 3.81531 7.35153 3.94379Q7.35153 4.08203 7.44141 4.17892Q7.53128 4.27582 7.67227 4.27582Q7.82425 4.27582 7.93793 4.16092L9.82742 2.24152L10.9906 1.06293L10.9673 2.43637L10.9673 13.5907Q10.9673 13.7344 11.0737 13.8395Q11.1801 13.9445 11.3309 13.9445Z" fill="rgba(0,0,0,0.85)"/>
 </g>
</svg>
