<?xml version="1.0" encoding="UTF-8"?>
<!--Generator: Apple Native CoreSVG 175-->
<!DOCTYPE svg
PUBLIC "-//W3C//DTD SVG 1.1//EN"
       "http://www.w3.org/Graphics/SVG/1.1/DTD/svg11.dtd">
<svg version="1.1" xmlns="http://www.w3.org/2000/svg" xmlns:xlink="http://www.w3.org/1999/xlink" width="19.1602" height="19.1504">
 <g>
  <rect height="19.1504" opacity="0" width="19.1602" x="0" y="0"/>
  <path d="M9.57031 19.1504Q11.5527 19.1504 13.2861 18.4082Q15.0195 17.666 16.3379 16.3428Q17.6562 15.0195 18.4082 13.2861Q19.1602 11.5527 19.1602 9.58008Q19.1602 7.60742 18.4082 5.87402Q17.6562 4.14062 16.3379 2.81738Q15.0195 1.49414 13.2861 0.751953Q11.5527 0.00976562 9.57031 0.00976562Q7.59766 0.00976562 5.86426 0.751953Q4.13086 1.49414 2.81738 2.81738Q1.50391 4.14062 0.751953 5.87402Q0 7.60742 0 9.58008Q0 11.5527 0.74707 13.2861Q1.49414 15.0195 2.8125 16.3428Q4.13086 17.666 5.86914 18.4082Q7.60742 19.1504 9.57031 19.1504ZM5.10742 13.418Q4.43359 13.418 4.0918 13.0713Q3.75 12.7246 3.75 12.0605L3.75 9.35547Q3.75 9.14062 3.78906 9.00879Q3.82812 8.87695 3.93555 8.74023L6.02539 6.00586Q6.23047 5.74219 6.41113 5.5957Q6.5918 5.44922 6.82617 5.39062Q7.06055 5.33203 7.40234 5.33203L11.7578 5.33203Q12.0996 5.33203 12.3291 5.39062Q12.5586 5.44922 12.7393 5.5957Q12.9199 5.74219 13.1348 6.00586L15.2148 8.74023Q15.3223 8.87695 15.3662 9.00879Q15.4102 9.14062 15.4102 9.35547L15.4102 12.0605Q15.4102 12.7148 15.0635 13.0664Q14.7168 13.418 14.0527 13.418ZM4.58984 9.08203L7.96875 9.08203Q8.08594 9.08203 8.14453 9.16016Q8.20312 9.23828 8.20312 9.33594L8.20312 9.39453Q8.20312 10 8.59375 10.3857Q8.98438 10.7715 9.58008 10.7715Q10.166 10.7715 10.5615 10.3857Q10.957 10 10.957 9.39453L10.957 9.33594Q10.957 9.23828 11.0156 9.16016Q11.0742 9.08203 11.1914 9.08203L14.5703 9.08203Q14.6387 9.08203 14.6533 9.04297Q14.668 9.00391 14.6484 8.96484L12.6465 6.31836Q12.4805 6.09375 12.3145 5.99121Q12.1484 5.88867 11.8359 5.88867L7.32422 5.88867Q7.00195 5.88867 6.84082 5.99121Q6.67969 6.09375 6.51367 6.31836L4.53125 8.96484Q4.49219 9.00391 4.50684 9.04297Q4.52148 9.08203 4.58984 9.08203Z" fill="#ffffff"/>
 </g>
</svg>
