<?xml version="1.0" encoding="UTF-8"?>
<!--Generator: Apple Native CoreSVG 175-->
<!DOCTYPE svg
PUBLIC "-//W3C//DTD SVG 1.1//EN"
       "http://www.w3.org/Graphics/SVG/1.1/DTD/svg11.dtd">
<svg version="1.1" xmlns="http://www.w3.org/2000/svg" xmlns:xlink="http://www.w3.org/1999/xlink" width="22.6617" height="15.7053">
 <g>
  <rect height="15.7053" opacity="0" width="22.6617" x="0" y="0"/>
  <path d="M2.63046 15.7053L20.0243 15.7053Q21.3281 15.7053 21.9949 15.0327Q22.6617 14.3602 22.6617 13.0786L22.6617 7.81448Q22.6617 7.52975 22.6256 7.32979Q22.5894 7.12982 22.5095 6.96732Q22.4297 6.80481 22.2949 6.62704L18.2509 1.34232Q17.8543 0.82077 17.5063 0.537796Q17.1582 0.254822 16.719 0.144272Q16.2798 0.0337219 15.6075 0.0337219L7.05429 0.0337219Q6.38199 0.0337219 5.94276 0.144272Q5.50354 0.254822 5.15549 0.537796Q4.80743 0.82077 4.4136 1.34232L0.366821 6.62704Q0.225067 6.80481 0.145187 6.96732Q0.0653076 7.12982 0.0326538 7.32979Q0 7.52975 0 7.81448L0 13.0786Q0 14.3744 0.668182 15.0398Q1.33636 15.7053 2.63046 15.7053ZM11.3309 10.6204Q10.5634 10.6204 9.95453 10.2542Q9.3457 9.888 8.993 9.26537Q8.64029 8.64273 8.64029 7.87552L8.64029 7.81097Q8.64029 7.59155 8.52448 7.45224Q8.40866 7.31293 8.17429 7.31293L1.03943 7.31293Q0.914917 7.31293 0.882263 7.22565Q0.849609 7.13837 0.917664 7.04269L5.1355 1.54037Q5.48431 1.09268 5.90485 0.895233Q6.32538 0.697784 6.9371 0.697784L15.7246 0.697784Q16.3391 0.697784 16.7547 0.895233Q17.1703 1.09268 17.5262 1.54037L21.7511 7.04269Q21.8164 7.13837 21.7838 7.22565Q21.7511 7.31293 21.6293 7.31293L14.4875 7.31293Q14.2531 7.31293 14.1386 7.45224Q14.0242 7.59155 14.0242 7.81097L14.0242 7.87552Q14.0242 8.64273 13.6701 9.26537Q13.316 9.888 12.7072 10.2542Q12.0984 10.6204 11.3309 10.6204ZM15.6856 2.44263L6.97617 2.44263Q6.84418 2.44263 6.75667 2.52663Q6.66916 2.61063 6.66916 2.74963Q6.66916 2.88177 6.75667 2.96219Q6.84418 3.0426 6.97617 3.0426L15.6856 3.0426Q15.8133 3.0426 15.8994 2.96219Q15.9856 2.88177 15.9856 2.74963Q15.9856 2.61063 15.8994 2.52663Q15.8133 2.44263 15.6856 2.44263ZM17.2656 4.85367L5.3891 4.85367Q5.26138 4.85367 5.1725 4.94308Q5.08362 5.0325 5.08362 5.15747Q5.08362 5.28961 5.1725 5.37628Q5.26138 5.46295 5.3891 5.46295L17.2656 5.46295Q17.3933 5.46295 17.4822 5.37628Q17.5711 5.28961 17.5711 5.15747Q17.5711 5.0325 17.4822 4.94308Q17.3933 4.85367 17.2656 4.85367Z" fill="rgba(0,0,0,0.85)"/>
 </g>
</svg>
