<?xml version="1.0" encoding="UTF-8"?>
<!--Generator: Apple Native CoreSVG 175.5-->
<!DOCTYPE svg
PUBLIC "-//W3C//DTD SVG 1.1//EN"
       "http://www.w3.org/Graphics/SVG/1.1/DTD/svg11.dtd">
<svg version="1.1" xmlns="http://www.w3.org/2000/svg" xmlns:xlink="http://www.w3.org/1999/xlink" width="19.9219" height="19.9316">
 <g>
  <rect height="19.9316" opacity="0" width="19.9219" x="0" y="0"/>
  <path d="M9.96094 19.9316Q12.002 19.9316 13.8037 19.1504Q15.6055 18.3691 16.9824 16.9922Q18.3594 15.6152 19.1406 13.8135Q19.9219 12.0117 19.9219 9.9707Q19.9219 7.92969 19.1406 6.12793Q18.3594 4.32617 16.9824 2.94922Q15.6055 1.57227 13.7988 0.791016Q11.9922 0.00976562 9.95117 0.00976562Q7.91016 0.00976562 6.1084 0.791016Q4.30664 1.57227 2.93457 2.94922Q1.5625 4.32617 0.78125 6.12793Q0 7.92969 0 9.9707Q0 12.0117 0.78125 13.8135Q1.5625 15.6152 2.93945 16.9922Q4.31641 18.3691 6.11816 19.1504Q7.91992 19.9316 9.96094 19.9316Z" fill="#ffffff"/>
  <path d="M5.64453 14.0625Q4.86328 14.0625 4.46777 13.667Q4.07227 13.2715 4.07227 12.5098L4.07227 9.74609Q4.07227 9.4043 4.13574 9.20898Q4.19922 9.01367 4.36523 8.79883L6.13281 6.39648Q6.41602 5.99609 6.66016 5.78613Q6.9043 5.57617 7.20215 5.49316Q7.5 5.41016 7.93945 5.41016L12.002 5.41016Q12.4414 5.41016 12.7344 5.49316Q13.0273 5.57617 13.2715 5.78613Q13.5156 5.99609 13.8086 6.39648L15.5762 8.79883Q15.7324 9.01367 15.8008 9.20898Q15.8691 9.4043 15.8691 9.74609L15.8691 12.5098Q15.8691 13.2715 15.4785 13.667Q15.0879 14.0625 14.2969 14.0625ZM5.48828 9.42383L8.37891 9.42383Q8.57422 9.42383 8.67676 9.55078Q8.7793 9.67773 8.7793 9.82422L8.7793 9.95117Q8.7793 10.4785 9.10156 10.7812Q9.42383 11.084 9.9707 11.084Q10.5176 11.084 10.8447 10.7812Q11.1719 10.4785 11.1719 9.95117L11.1719 9.82422Q11.1719 9.67773 11.2646 9.55078Q11.3574 9.42383 11.5625 9.42383L14.4531 9.42383Q14.5703 9.42383 14.5996 9.33594Q14.6289 9.24805 14.5801 9.17969L12.832 6.80664Q12.6855 6.60156 12.5098 6.50879Q12.334 6.41602 12.0703 6.41602L7.88086 6.41602Q7.61719 6.41602 7.43652 6.50879Q7.25586 6.60156 7.10938 6.80664L5.37109 9.17969Q5.3125 9.26758 5.3418 9.3457Q5.37109 9.42383 5.48828 9.42383Z" fill="none"/>
 </g>
</svg>
