<?xml version="1.0" encoding="UTF-8"?>
<!--Generator: Apple Native CoreSVG 175.5-->
<!DOCTYPE svg
PUBLIC "-//W3C//DTD SVG 1.1//EN"
       "http://www.w3.org/Graphics/SVG/1.1/DTD/svg11.dtd">
<svg version="1.1" xmlns="http://www.w3.org/2000/svg" xmlns:xlink="http://www.w3.org/1999/xlink" width="23.0273" height="22.8223">
 <g>
  <rect height="22.8223" opacity="0" width="23.0273" x="0" y="0"/>
  <path d="M3.06641 13.3887L19.9609 13.3887Q21.5039 13.3887 22.2656 12.6562Q23.0273 11.9238 23.0273 10.498L23.0273 6.54297Q23.0273 6.09375 22.9932 5.74219Q22.959 5.39062 22.8418 5.10254Q22.7246 4.81445 22.4707 4.58008L19.0137 1.30859Q18.4863 0.810547 18.0127 0.527344Q17.5391 0.244141 17.002 0.12207Q16.4648 0 15.7422 0L7.28516 0Q6.5625 0 6.03027 0.12207Q5.49805 0.244141 5.02441 0.527344Q4.55078 0.810547 4.02344 1.30859L0.556641 4.58008Q0.302734 4.81445 0.185547 5.10254Q0.0683594 5.39062 0.0341797 5.74219Q0 6.09375 0 6.54297L0 10.498Q0 11.9141 0.766602 12.6514Q1.5332 13.3887 3.06641 13.3887ZM11.5137 9.00391Q10.8203 9.00391 10.3125 8.65723Q9.80469 8.31055 9.52637 7.77832Q9.24805 7.24609 9.24805 6.67969L9.24805 6.64062Q9.24805 6.33789 9.0625 6.09375Q8.87695 5.84961 8.49609 5.84961L2.29492 5.84961Q1.875 5.84961 1.77246 5.66895Q1.66992 5.48828 2.00195 5.17578L5.22461 2.13867Q5.67383 1.71875 6.05957 1.54297Q6.44531 1.36719 7.13867 1.36719L15.8887 1.36719Q16.5918 1.36719 16.9727 1.54297Q17.3535 1.71875 17.8027 2.13867L21.0254 5.17578Q21.377 5.50781 21.2646 5.67871Q21.1523 5.84961 20.7422 5.84961L14.5312 5.84961Q14.1504 5.84961 13.9697 6.09375Q13.7891 6.33789 13.7891 6.64062L13.7891 6.67969Q13.7891 7.24609 13.5059 7.77832Q13.2227 8.31055 12.7148 8.65723Q12.207 9.00391 11.5137 9.00391ZM3.06641 22.4707L19.9609 22.4707Q21.4941 22.4707 22.2607 21.709Q23.0273 20.9473 23.0273 19.4434L23.0273 15.8496Q23.0273 15.4297 22.7734 15.0977Q22.5195 14.7656 22.0801 14.7656L14.5312 14.7656Q14.1504 14.7656 13.9697 15.0049Q13.7891 15.2441 13.7891 15.5469L13.7891 15.5859Q13.7891 16.1523 13.5059 16.6895Q13.2227 17.2266 12.7148 17.5732Q12.207 17.9199 11.5137 17.9199Q10.8203 17.9199 10.3125 17.5732Q9.80469 17.2266 9.52637 16.6895Q9.24805 16.1523 9.24805 15.5859L9.24805 15.5469Q9.24805 15.2441 9.0625 15.0049Q8.87695 14.7656 8.49609 14.7656L0.947266 14.7656Q0.507812 14.7656 0.253906 15.0977Q0 15.4297 0 15.8496L0 19.4434Q0 20.957 0.766602 21.7139Q1.5332 22.4707 3.06641 22.4707Z" fill="#ffffff"/>
 </g>
</svg>
