<?xml version="1.0" encoding="UTF-8"?>
<!--Generator: Apple Native CoreSVG 175.5-->
<!DOCTYPE svg
PUBLIC "-//W3C//DTD SVG 1.1//EN"
       "http://www.w3.org/Graphics/SVG/1.1/DTD/svg11.dtd">
<svg version="1.1" xmlns="http://www.w3.org/2000/svg" xmlns:xlink="http://www.w3.org/1999/xlink" width="23.0273" height="24.6777">
 <g>
  <rect height="24.6777" opacity="0" width="23.0273" x="0" y="0"/>
  <path d="M3.06641 22.6367L19.9609 22.6367Q21.5039 22.6367 22.2656 21.875Q23.0273 21.1133 23.0273 19.6094L23.0273 14.2188Q23.0273 13.5547 22.915 13.1641Q22.8027 12.7734 22.4707 12.3633L19.1992 8.16406Q18.6035 7.41211 18.1689 7.02148Q17.7344 6.63086 17.207 6.48926Q16.6797 6.34766 15.8105 6.34766L14.0918 6.34766L14.0918 7.72461L15.9277 7.72461Q16.4648 7.72461 16.8555 7.87109Q17.2461 8.01758 17.6562 8.55469L21.0352 12.9297Q21.3184 13.3105 21.2354 13.4668Q21.1523 13.623 20.752 13.623L14.7266 13.623Q14.3164 13.623 14.1211 13.8867Q13.9258 14.1504 13.9258 14.4727L13.9258 14.5117Q13.9258 15.1074 13.6279 15.6738Q13.3301 16.2402 12.7881 16.6064Q12.2461 16.9727 11.5137 16.9727Q10.7812 16.9727 10.2393 16.6064Q9.69727 16.2402 9.4043 15.6738Q9.11133 15.1074 9.11133 14.5117L9.11133 14.4727Q9.11133 14.1504 8.91113 13.8867Q8.71094 13.623 8.30078 13.623L2.29492 13.623Q1.875 13.623 1.80176 13.4521Q1.72852 13.2812 2.00195 12.9297L5.35156 8.58398Q5.78125 8.03711 6.17676 7.88086Q6.57227 7.72461 7.09961 7.72461L8.94531 7.72461L8.94531 6.34766L7.2168 6.34766Q6.34766 6.34766 5.82031 6.48926Q5.29297 6.63086 4.8584 7.02637Q4.42383 7.42188 3.81836 8.19336L0.556641 12.3633Q0.234375 12.7734 0.117188 13.1641Q0 13.5547 0 14.2188L0 19.6094Q0 21.123 0.766602 21.8799Q1.5332 22.6367 3.06641 22.6367Z" fill="#ffffff"/>
  <path d="M11.5137 14.3945Q11.8262 14.3945 12.0605 14.1699Q12.2949 13.9453 12.2949 13.6328L12.2949 3.60352L12.2266 2.14844L12.8906 2.83203L14.3652 4.41406Q14.5703 4.64844 14.9023 4.64844Q15.2051 4.64844 15.4053 4.45312Q15.6055 4.25781 15.6055 3.96484Q15.6055 3.68164 15.3809 3.44727L12.0801 0.263672Q11.9336 0.117188 11.7969 0.0585938Q11.6602 0 11.5137 0Q11.3672 0 11.2305 0.0585938Q11.0938 0.117188 10.9473 0.263672L7.64648 3.44727Q7.42188 3.68164 7.42188 3.96484Q7.42188 4.25781 7.61719 4.45312Q7.8125 4.64844 8.11523 4.64844Q8.45703 4.64844 8.66211 4.41406L10.1367 2.83203L10.8008 2.13867L10.7422 3.60352L10.7422 13.6328Q10.7422 13.9453 10.9717 14.1699Q11.2012 14.3945 11.5137 14.3945Z" fill="#ffffff"/>
 </g>
</svg>
