<?xml version="1.0" encoding="UTF-8"?>
<!--Generator: Apple Native CoreSVG 175.5-->
<!DOCTYPE svg
PUBLIC "-//W3C//DTD SVG 1.1//EN"
       "http://www.w3.org/Graphics/SVG/1.1/DTD/svg11.dtd">
<svg version="1.1" xmlns="http://www.w3.org/2000/svg" xmlns:xlink="http://www.w3.org/1999/xlink" width="19.9219" height="19.9316">
 <g>
  <rect height="19.9316" opacity="0" width="19.9219" x="0" y="0"/>
  <path d="M9.96094 19.9219Q12.002 19.9219 13.8037 19.1406Q15.6055 18.3594 16.9824 16.9824Q18.3594 15.6055 19.1406 13.8037Q19.9219 12.002 19.9219 9.96094Q19.9219 7.91992 19.1406 6.11816Q18.3594 4.31641 16.9824 2.93945Q15.6055 1.5625 13.7988 0.78125Q11.9922 0 9.95117 0Q7.91016 0 6.1084 0.78125Q4.30664 1.5625 2.93457 2.93945Q1.5625 4.31641 0.78125 6.11816Q0 7.91992 0 9.96094Q0 12.002 0.78125 13.8037Q1.5625 15.6055 2.93945 16.9824Q4.31641 18.3594 6.11816 19.1406Q7.91992 19.9219 9.96094 19.9219ZM9.96094 18.2617Q8.23242 18.2617 6.72852 17.6172Q5.22461 16.9727 4.08691 15.835Q2.94922 14.6973 2.30957 13.1934Q1.66992 11.6895 1.66992 9.96094Q1.66992 8.23242 2.30957 6.72852Q2.94922 5.22461 4.08203 4.08203Q5.21484 2.93945 6.71875 2.2998Q8.22266 1.66016 9.95117 1.66016Q11.6797 1.66016 13.1885 2.2998Q14.6973 2.93945 15.835 4.08203Q16.9727 5.22461 17.6172 6.72852Q18.2617 8.23242 18.2617 9.96094Q18.2617 11.6895 17.6221 13.1934Q16.9824 14.6973 15.8398 15.835Q14.6973 16.9727 13.1934 17.6172Q11.6895 18.2617 9.96094 18.2617Z" fill="#ffffff"/>
  <path d="M5.03906 11.8652Q4.7168 12.4219 4.76074 12.9199Q4.80469 13.418 5.16113 13.7305Q5.51758 14.043 6.14258 14.043L13.7891 14.043Q14.4141 14.043 14.7705 13.7305Q15.127 13.418 15.1709 12.9199Q15.2148 12.4219 14.8926 11.8652L11.1914 5.42969Q10.8887 4.90234 10.4297 4.72168Q9.9707 4.54102 9.50684 4.7168Q9.04297 4.89258 8.73047 5.43945ZM6.30859 12.3828L9.79492 6.29883Q9.85352 6.19141 9.96094 6.19141Q10.0684 6.19141 10.127 6.29883L13.623 12.3828Q13.6914 12.4902 13.6572 12.5879Q13.623 12.6855 13.4766 12.6855L6.45508 12.6855Q6.30859 12.6855 6.27441 12.5879Q6.24023 12.4902 6.30859 12.3828Z" fill="#ffffff"/>
 </g>
</svg>
