<?xml version="1.0" encoding="UTF-8"?>
<!--Generator: Apple Native CoreSVG 175-->
<!DOCTYPE svg
PUBLIC "-//W3C//DTD SVG 1.1//EN"
       "http://www.w3.org/Graphics/SVG/1.1/DTD/svg11.dtd">
<svg version="1.1" xmlns="http://www.w3.org/2000/svg" xmlns:xlink="http://www.w3.org/1999/xlink" width="19.1602" height="19.1504">
 <g>
  <rect height="19.1504" opacity="0" width="19.1602" x="0" y="0"/>
  <path d="M9.57031 19.1406Q11.5527 19.1406 13.2861 18.3984Q15.0195 17.6562 16.3379 16.333Q17.6562 15.0098 18.4082 13.2764Q19.1602 11.543 19.1602 9.57031Q19.1602 7.59766 18.4082 5.86426Q17.6562 4.13086 16.3379 2.80762Q15.0195 1.48438 13.2861 0.742188Q11.5527 0 9.57031 0Q7.59766 0 5.86426 0.742188Q4.13086 1.48438 2.81738 2.80762Q1.50391 4.13086 0.751953 5.86426Q0 7.59766 0 9.57031Q0 11.543 0.74707 13.2764Q1.49414 15.0098 2.8125 16.333Q4.13086 17.6562 5.86914 18.3984Q7.60742 19.1406 9.57031 19.1406ZM9.57031 18.3984Q7.74414 18.3984 6.14746 17.71Q4.55078 17.0215 3.33496 15.8105Q2.11914 14.5996 1.43555 12.998Q0.751953 11.3965 0.751953 9.57031Q0.751953 7.74414 1.43555 6.14258Q2.11914 4.54102 3.33496 3.3252Q4.55078 2.10938 6.14746 1.4209Q7.74414 0.732422 9.57031 0.732422Q11.4062 0.732422 13.0029 1.4209Q14.5996 2.10938 15.8154 3.3252Q17.0312 4.54102 17.7197 6.14258Q18.4082 7.74414 18.4082 9.57031Q18.4082 11.3965 17.7246 12.998Q17.041 14.5996 15.8252 15.8105Q14.6094 17.0215 13.0078 17.71Q11.4062 18.3984 9.57031 18.3984ZM4.96094 11.6406Q4.7168 12.0508 4.73633 12.4365Q4.75586 12.8223 5.03418 13.0664Q5.3125 13.3105 5.83984 13.3105L13.3301 13.3105Q13.8672 13.3105 14.1406 13.0664Q14.4141 12.8223 14.4336 12.4365Q14.4531 12.0508 14.2188 11.6406L10.5859 5.33203Q10.3711 4.95117 9.99023 4.7998Q9.60938 4.64844 9.21387 4.78027Q8.81836 4.91211 8.54492 5.39062ZM5.5957 11.8848L9.14062 5.69336Q9.29688 5.42969 9.58496 5.42969Q9.87305 5.42969 10.0195 5.69336L13.584 11.8848Q13.75 12.168 13.6963 12.4023Q13.6426 12.6367 13.252 12.6367L5.92773 12.6367Q5.53711 12.6367 5.4834 12.4023Q5.42969 12.168 5.5957 11.8848Z" fill="rgba(0,0,0,0.85)"/>
 </g>
</svg>
