<?xml version="1.0" encoding="UTF-8"?>
<!--Generator: Apple Native CoreSVG 175.5-->
<!DOCTYPE svg
PUBLIC "-//W3C//DTD SVG 1.1//EN"
       "http://www.w3.org/Graphics/SVG/1.1/DTD/svg11.dtd">
<svg version="1.1" xmlns="http://www.w3.org/2000/svg" xmlns:xlink="http://www.w3.org/1999/xlink" width="19.9219" height="20.0098">
 <g>
  <rect height="20.0098" opacity="0" width="19.9219" x="0" y="0"/>
  <path d="M9.96094 20.0098Q12.002 20.0098 13.8037 19.2285Q15.6055 18.4473 16.9824 17.0703Q18.3594 15.6934 19.1406 13.8916Q19.9219 12.0898 19.9219 10.0488Q19.9219 8.00781 19.1406 6.20605Q18.3594 4.4043 16.9824 3.02734Q15.6055 1.65039 13.7988 0.869141Q11.9922 0.0878906 9.95117 0.0878906Q7.91016 0.0878906 6.1084 0.869141Q4.30664 1.65039 2.93457 3.02734Q1.5625 4.4043 0.78125 6.20605Q0 8.00781 0 10.0488Q0 12.0898 0.78125 13.8916Q1.5625 15.6934 2.93945 17.0703Q4.31641 18.4473 6.11816 19.2285Q7.91992 20.0098 9.96094 20.0098Z" fill="#ffffff"/>
  <path d="M4.89258 12.0117L8.70117 5.38086Q9.02344 4.82422 9.50195 4.64355Q9.98047 4.46289 10.4541 4.64355Q10.9277 4.82422 11.2402 5.37109L15.0586 12.0117Q15.3906 12.5879 15.3467 13.1006Q15.3027 13.6133 14.9316 13.9404Q14.5605 14.2676 13.916 14.2676L6.03516 14.2676Q5.39062 14.2676 5.01953 13.9404Q4.64844 13.6133 4.60449 13.1006Q4.56055 12.5879 4.89258 12.0117ZM6.21094 12.5488Q6.13281 12.6562 6.17188 12.7539Q6.21094 12.8516 6.35742 12.8516L13.584 12.8516Q13.7402 12.8516 13.7793 12.7539Q13.8184 12.6562 13.7402 12.5488L10.127 6.2793Q10.0684 6.16211 9.96582 6.16211Q9.86328 6.16211 9.80469 6.2793Z" fill="none"/>
 </g>
</svg>
