<?xml version="1.0" encoding="UTF-8"?>
<!--Generator: Apple Native CoreSVG 175.5-->
<!DOCTYPE svg
PUBLIC "-//W3C//DTD SVG 1.1//EN"
       "http://www.w3.org/Graphics/SVG/1.1/DTD/svg11.dtd">
<svg version="1.1" xmlns="http://www.w3.org/2000/svg" xmlns:xlink="http://www.w3.org/1999/xlink" width="25.7192" height="21.3184">
 <g>
  <rect height="21.3184" opacity="0" width="25.7192" x="0" y="0"/>
  <path d="M7.89337 21.3184L17.825 21.3184Q19.1824 21.3184 19.8514 20.6592Q20.5203 20 20.5399 18.6523L20.6668 9.0625L23.0594 9.60938Q23.743 9.75586 24.1775 9.48242Q24.6121 9.20898 24.7781 8.50586L25.6473 5.03906Q25.8231 4.3457 25.5691 3.8623Q25.3152 3.37891 24.6414 3.0957L17.7664 0.166016Q17.4734 0.0390625 17.2 0.0439453Q16.9266 0.0488281 16.6531 0.175781Q16.0086 0.478516 15.4178 0.683594Q14.827 0.888672 14.2068 0.996094Q13.5867 1.10352 12.8641 1.10352Q12.1316 1.10352 11.5115 0.996094Q10.8914 0.888672 10.3006 0.683594Q9.70977 0.478516 9.06524 0.175781Q8.79181 0.0488281 8.51837 0.0439453Q8.24493 0.0390625 7.95196 0.166016L1.07696 3.0957Q0.412899 3.37891 0.15411 3.8623Q-0.104679 4.3457 0.0711025 5.03906L0.940243 8.50586Q1.10626 9.20898 1.54083 9.48242Q1.9754 9.75586 2.65899 9.60938L5.06134 9.0625L5.17852 18.6523Q5.19806 20 5.867 20.6592Q6.53595 21.3184 7.89337 21.3184ZM12.8641 4.15039Q12.0242 4.15039 11.365 3.87695Q10.7059 3.60352 10.242 3.0957Q9.77813 2.58789 9.52423 1.875Q10.2859 2.16797 11.1404 2.32422Q11.9949 2.48047 12.8641 2.48047Q13.7234 2.48047 14.5779 2.32422Q15.4324 2.16797 16.1941 1.875Q15.95 2.57812 15.491 3.08594Q15.032 3.59375 14.368 3.87207Q13.7039 4.15039 12.8641 4.15039Z" fill="#ffffff"/>
 </g>
</svg>
