<?xml version="1.0" encoding="UTF-8"?>
<!--Generator: Apple Native CoreSVG 175.5-->
<!DOCTYPE svg
PUBLIC "-//W3C//DTD SVG 1.1//EN"
       "http://www.w3.org/Graphics/SVG/1.1/DTD/svg11.dtd">
<svg version="1.1" xmlns="http://www.w3.org/2000/svg" xmlns:xlink="http://www.w3.org/1999/xlink" width="17.9785" height="17.998">
 <g>
  <rect height="17.998" opacity="0" width="17.9785" x="0" y="0"/>
  <path d="M3.06641 17.998L14.9121 17.998Q16.4453 17.998 17.2119 17.2412Q17.9785 16.4844 17.9785 14.9707L17.9785 3.04688Q17.9785 1.5332 17.2119 0.776367Q16.4453 0.0195312 14.9121 0.0195312L3.06641 0.0195312Q1.5332 0.0195312 0.766602 0.776367Q0 1.5332 0 3.04688L0 14.9707Q0 16.4844 0.766602 17.2412Q1.5332 17.998 3.06641 17.998ZM3.08594 16.4258Q2.35352 16.4258 1.96289 16.04Q1.57227 15.6543 1.57227 14.8926L1.57227 3.125Q1.57227 2.36328 1.96289 1.97754Q2.35352 1.5918 3.08594 1.5918L14.8926 1.5918Q15.6152 1.5918 16.0107 1.97754Q16.4062 2.36328 16.4062 3.125L16.4062 14.8926Q16.4062 15.6543 16.0107 16.04Q15.6152 16.4258 14.8926 16.4258Z" fill="#ffffff"/>
  <path d="M8.99414 13.8184Q9.27734 13.8184 9.45312 13.6426Q9.62891 13.4668 9.62891 13.1641L9.62891 10.9766L11.2891 10.2344Q11.6211 10.0781 11.6211 9.76562Q11.6211 9.56055 11.4893 9.42871Q11.3574 9.29688 11.1523 9.29688Q11.0352 9.29688 10.8984 9.35547L9.62891 9.94141L9.62891 9.01367L11.2891 8.26172Q11.6211 8.11523 11.6211 7.80273Q11.6211 7.59766 11.4893 7.46094Q11.3574 7.32422 11.1523 7.32422Q11.0449 7.32422 10.9082 7.38281L9.62891 7.97852L9.62891 5.69336L11.9531 5.69336Q12.2168 5.69336 12.3926 5.52734Q12.5684 5.36133 12.5684 5.09766Q12.5684 4.83398 12.3926 4.67285Q12.2168 4.51172 11.9531 4.51172L6.02539 4.51172Q5.75195 4.51172 5.58105 4.67285Q5.41016 4.83398 5.41016 5.09766Q5.41016 5.36133 5.58105 5.52734Q5.75195 5.69336 6.02539 5.69336L8.34961 5.69336L8.34961 8.50586L6.70898 9.23828Q6.37695 9.39453 6.37695 9.69727Q6.37695 9.90234 6.50391 10.0391Q6.63086 10.1758 6.83594 10.1758Q6.9043 10.1758 6.96777 10.1562Q7.03125 10.1367 7.08984 10.1172L8.34961 9.53125L8.34961 10.4688L6.70898 11.2109Q6.37695 11.3672 6.37695 11.6699Q6.37695 11.875 6.50391 12.0068Q6.63086 12.1387 6.83594 12.1387Q6.9043 12.1387 6.96777 12.124Q7.03125 12.1094 7.08984 12.0801L8.34961 11.5039L8.34961 13.1641Q8.34961 13.4668 8.53027 13.6426Q8.71094 13.8184 8.99414 13.8184Z" fill="#ffffff"/>
 </g>
</svg>
