<?xml version="1.0" encoding="UTF-8"?>
<!--Generator: Apple Native CoreSVG 175.5-->
<!DOCTYPE svg
PUBLIC "-//W3C//DTD SVG 1.1//EN"
       "http://www.w3.org/Graphics/SVG/1.1/DTD/svg11.dtd">
<svg version="1.1" xmlns="http://www.w3.org/2000/svg" xmlns:xlink="http://www.w3.org/1999/xlink" width="19.9219" height="19.9316">
 <g>
  <rect height="19.9316" opacity="0" width="19.9219" x="0" y="0"/>
  <path d="M9.96094 19.9219Q12.002 19.9219 13.8037 19.1406Q15.6055 18.3594 16.9824 16.9824Q18.3594 15.6055 19.1406 13.8037Q19.9219 12.002 19.9219 9.96094Q19.9219 7.91992 19.1406 6.11816Q18.3594 4.31641 16.9824 2.93945Q15.6055 1.5625 13.7988 0.78125Q11.9922 0 9.95117 0Q7.91016 0 6.1084 0.78125Q4.30664 1.5625 2.93457 2.93945Q1.5625 4.31641 0.78125 6.11816Q0 7.91992 0 9.96094Q0 12.002 0.78125 13.8037Q1.5625 15.6055 2.93945 16.9824Q4.31641 18.3594 6.11816 19.1406Q7.91992 19.9219 9.96094 19.9219ZM9.96094 18.2617Q8.23242 18.2617 6.72852 17.6172Q5.22461 16.9727 4.08691 15.835Q2.94922 14.6973 2.30957 13.1934Q1.66992 11.6895 1.66992 9.96094Q1.66992 8.23242 2.30957 6.72852Q2.94922 5.22461 4.08203 4.08203Q5.21484 2.93945 6.71875 2.2998Q8.22266 1.66016 9.95117 1.66016Q11.6797 1.66016 13.1885 2.2998Q14.6973 2.93945 15.835 4.08203Q16.9727 5.22461 17.6172 6.72852Q18.2617 8.23242 18.2617 9.96094Q18.2617 11.6895 17.6221 13.1934Q16.9824 14.6973 15.8398 15.835Q14.6973 16.9727 13.1934 17.6172Q11.6895 18.2617 9.96094 18.2617Z" fill="#ffffff"/>
  <path d="M9.95117 14.7852Q10.2344 14.7852 10.4102 14.6094Q10.5859 14.4336 10.5859 14.1309L10.5859 11.9434L12.2461 11.2012Q12.5781 11.0449 12.5781 10.7324Q12.5781 10.5273 12.4463 10.3955Q12.3145 10.2637 12.1094 10.2637Q11.9922 10.2637 11.8555 10.3223L10.5859 10.9082L10.5859 9.98047L12.2461 9.22852Q12.5781 9.08203 12.5781 8.76953Q12.5781 8.56445 12.4463 8.42773Q12.3145 8.29102 12.1094 8.29102Q12.002 8.29102 11.8652 8.34961L10.5859 8.94531L10.5859 6.66016L12.9102 6.66016Q13.1738 6.66016 13.3496 6.49414Q13.5254 6.32812 13.5254 6.06445Q13.5254 5.80078 13.3496 5.63965Q13.1738 5.47852 12.9102 5.47852L6.98242 5.47852Q6.70898 5.47852 6.53809 5.63965Q6.36719 5.80078 6.36719 6.06445Q6.36719 6.32812 6.53809 6.49414Q6.70898 6.66016 6.98242 6.66016L9.30664 6.66016L9.30664 9.47266L7.66602 10.2051Q7.33398 10.3613 7.33398 10.6641Q7.33398 10.8691 7.46094 11.0059Q7.58789 11.1426 7.79297 11.1426Q7.86133 11.1426 7.9248 11.123Q7.98828 11.1035 8.04688 11.084L9.30664 10.498L9.30664 11.4355L7.66602 12.1777Q7.33398 12.334 7.33398 12.6367Q7.33398 12.8418 7.46094 12.9736Q7.58789 13.1055 7.79297 13.1055Q7.86133 13.1055 7.9248 13.0908Q7.98828 13.0762 8.04688 13.0469L9.30664 12.4707L9.30664 14.1309Q9.30664 14.4336 9.4873 14.6094Q9.66797 14.7852 9.95117 14.7852Z" fill="#ffffff"/>
 </g>
</svg>
