<?xml version="1.0" encoding="UTF-8"?>
<!--Generator: Apple Native CoreSVG 175-->
<!DOCTYPE svg
PUBLIC "-//W3C//DTD SVG 1.1//EN"
       "http://www.w3.org/Graphics/SVG/1.1/DTD/svg11.dtd">
<svg version="1.1" xmlns="http://www.w3.org/2000/svg" xmlns:xlink="http://www.w3.org/1999/xlink" width="19.1602" height="19.1504">
 <g>
  <rect height="19.1504" opacity="0" width="19.1602" x="0" y="0"/>
  <path d="M9.57031 19.1406Q11.5527 19.1406 13.2861 18.3984Q15.0195 17.6562 16.3379 16.333Q17.6562 15.0098 18.4082 13.2764Q19.1602 11.543 19.1602 9.57031Q19.1602 7.59766 18.4082 5.86426Q17.6562 4.13086 16.3379 2.80762Q15.0195 1.48438 13.2861 0.742188Q11.5527 0 9.57031 0Q7.59766 0 5.86426 0.742188Q4.13086 1.48438 2.81738 2.80762Q1.50391 4.13086 0.751953 5.86426Q0 7.59766 0 9.57031Q0 11.543 0.74707 13.2764Q1.49414 15.0098 2.8125 16.333Q4.13086 17.6562 5.86914 18.3984Q7.60742 19.1406 9.57031 19.1406ZM9.57031 18.3984Q7.74414 18.3984 6.14746 17.71Q4.55078 17.0215 3.33496 15.8105Q2.11914 14.5996 1.43555 12.998Q0.751953 11.3965 0.751953 9.57031Q0.751953 7.74414 1.43555 6.14258Q2.11914 4.54102 3.33496 3.3252Q4.55078 2.10938 6.14746 1.4209Q7.74414 0.732422 9.57031 0.732422Q11.4062 0.732422 13.0029 1.4209Q14.5996 2.10938 15.8154 3.3252Q17.0312 4.54102 17.7197 6.14258Q18.4082 7.74414 18.4082 9.57031Q18.4082 11.3965 17.7246 12.998Q17.041 14.5996 15.8252 15.8105Q14.6094 17.0215 13.0078 17.71Q11.4062 18.3984 9.57031 18.3984ZM4.95117 12.8516L14.1992 12.8516Q14.7168 12.8516 15.0293 12.5488Q15.3418 12.2461 15.3418 11.7188L15.3418 6.38672Q15.3418 5.85938 15.0342 5.55176Q14.7266 5.24414 14.1992 5.24414L4.95117 5.24414Q4.42383 5.24414 4.11621 5.55176Q3.80859 5.85938 3.80859 6.38672L3.80859 11.7188Q3.80859 12.2461 4.11621 12.5488Q4.42383 12.8516 4.95117 12.8516ZM4.98047 12.207Q4.74609 12.207 4.60449 12.0654Q4.46289 11.9238 4.46289 11.6895L4.46289 6.39648Q4.46289 6.16211 4.60449 6.03027Q4.74609 5.89844 4.98047 5.89844L14.1699 5.89844Q14.4043 5.89844 14.5459 6.03516Q14.6875 6.17188 14.6875 6.39648L14.6875 11.6895Q14.6875 11.9238 14.5459 12.0654Q14.4043 12.207 14.1699 12.207ZM6.78711 14.7168L12.3633 14.7168Q12.5 14.7168 12.5977 14.6191Q12.6953 14.5215 12.6953 14.375Q12.6953 14.248 12.5977 14.1553Q12.5 14.0625 12.3633 14.0625L6.78711 14.0625Q6.65039 14.0625 6.55273 14.1553Q6.45508 14.248 6.45508 14.375Q6.45508 14.5215 6.55273 14.6191Q6.65039 14.7168 6.78711 14.7168Z" fill="#ffffff"/>
 </g>
</svg>
