<?xml version="1.0" encoding="UTF-8"?>
<!--Generator: Apple Native CoreSVG 175-->
<!DOCTYPE svg
PUBLIC "-//W3C//DTD SVG 1.1//EN"
       "http://www.w3.org/Graphics/SVG/1.1/DTD/svg11.dtd">
<svg version="1.1" xmlns="http://www.w3.org/2000/svg" xmlns:xlink="http://www.w3.org/1999/xlink" width="19.1602" height="19.1504">
 <g>
  <rect height="19.1504" opacity="0" width="19.1602" x="0" y="0"/>
  <path d="M9.57031 19.1406Q11.5527 19.1406 13.2861 18.3984Q15.0195 17.6562 16.3379 16.333Q17.6562 15.0098 18.4082 13.2764Q19.1602 11.543 19.1602 9.57031Q19.1602 7.59766 18.4082 5.86426Q17.6562 4.13086 16.3379 2.80762Q15.0195 1.48438 13.2861 0.742188Q11.5527 0 9.57031 0Q7.59766 0 5.86426 0.742188Q4.13086 1.48438 2.81738 2.80762Q1.50391 4.13086 0.751953 5.86426Q0 7.59766 0 9.57031Q0 11.543 0.74707 13.2764Q1.49414 15.0098 2.8125 16.333Q4.13086 17.6562 5.86914 18.3984Q7.60742 19.1406 9.57031 19.1406ZM4.92188 12.8711Q4.39453 12.8711 4.08691 12.5635Q3.7793 12.2559 3.7793 11.7285L3.7793 6.35742Q3.7793 5.83008 4.08691 5.51758Q4.39453 5.20508 4.92188 5.20508L14.2285 5.20508Q14.7656 5.20508 15.0732 5.51758Q15.3809 5.83008 15.3809 6.35742L15.3809 11.7285Q15.3809 12.2559 15.0732 12.5635Q14.7656 12.8711 14.2285 12.8711ZM4.96094 12.2168L14.1992 12.2168Q14.4434 12.2168 14.585 12.0752Q14.7266 11.9336 14.7266 11.6992L14.7266 6.38672Q14.7266 6.14258 14.585 6.00586Q14.4434 5.86914 14.1992 5.86914L4.96094 5.86914Q4.72656 5.86914 4.58496 6.00586Q4.44336 6.14258 4.44336 6.38672L4.44336 11.6992Q4.44336 11.9336 4.58496 12.0752Q4.72656 12.2168 4.96094 12.2168ZM6.77734 14.7461Q6.64062 14.7461 6.54297 14.6484Q6.44531 14.5508 6.44531 14.4043Q6.44531 14.2773 6.54297 14.1797Q6.64062 14.082 6.77734 14.082L12.3828 14.082Q12.5195 14.082 12.6172 14.1797Q12.7148 14.2773 12.7148 14.4043Q12.7148 14.5508 12.6221 14.6484Q12.5293 14.7461 12.3828 14.7461Z" fill="#ffffff"/>
 </g>
</svg>
