<?xml version="1.0" encoding="UTF-8"?>
<!--Generator: Apple Native CoreSVG 175.5-->
<!DOCTYPE svg
PUBLIC "-//W3C//DTD SVG 1.1//EN"
       "http://www.w3.org/Graphics/SVG/1.1/DTD/svg11.dtd">
<svg version="1.1" xmlns="http://www.w3.org/2000/svg" xmlns:xlink="http://www.w3.org/1999/xlink" width="19.9219" height="19.9316">
 <g>
  <rect height="19.9316" opacity="0" width="19.9219" x="0" y="0"/>
  <path d="M9.96094 19.9219Q12.002 19.9219 13.8037 19.1406Q15.6055 18.3594 16.9824 16.9824Q18.3594 15.6055 19.1406 13.8037Q19.9219 12.002 19.9219 9.96094Q19.9219 7.91992 19.1406 6.11816Q18.3594 4.31641 16.9824 2.93945Q15.6055 1.5625 13.7988 0.78125Q11.9922 0 9.95117 0Q7.91016 0 6.1084 0.78125Q4.30664 1.5625 2.93457 2.93945Q1.5625 4.31641 0.78125 6.11816Q0 7.91992 0 9.96094Q0 12.002 0.78125 13.8037Q1.5625 15.6055 2.93945 16.9824Q4.31641 18.3594 6.11816 19.1406Q7.91992 19.9219 9.96094 19.9219ZM9.96094 18.2617Q8.23242 18.2617 6.72852 17.6172Q5.22461 16.9727 4.08691 15.835Q2.94922 14.6973 2.30957 13.1934Q1.66992 11.6895 1.66992 9.96094Q1.66992 8.23242 2.30957 6.72852Q2.94922 5.22461 4.08203 4.08203Q5.21484 2.93945 6.71875 2.2998Q8.22266 1.66016 9.95117 1.66016Q11.6797 1.66016 13.1885 2.2998Q14.6973 2.93945 15.835 4.08203Q16.9727 5.22461 17.6172 6.72852Q18.2617 8.23242 18.2617 9.96094Q18.2617 11.6895 17.6221 13.1934Q16.9824 14.6973 15.8398 15.835Q14.6973 16.9727 13.1934 17.6172Q11.6895 18.2617 9.96094 18.2617Z" fill="#ffffff"/>
  <path d="M9.95117 14.541Q11.0938 14.541 11.9531 14.126Q12.8125 13.7109 13.291 12.9541Q13.7695 12.1973 13.7695 11.1719L13.7695 6.18164Q13.7695 5.77148 13.5645 5.53711Q13.3594 5.30273 12.9785 5.30273Q12.6172 5.30273 12.417 5.53711Q12.2168 5.77148 12.2168 6.18164L12.2168 11.0254Q12.2168 12.0508 11.5967 12.6514Q10.9766 13.252 9.95117 13.252Q8.92578 13.252 8.31055 12.6514Q7.69531 12.0508 7.69531 11.0254L7.69531 6.18164Q7.69531 5.77148 7.48535 5.53711Q7.27539 5.30273 6.9043 5.30273Q6.54297 5.30273 6.33789 5.53711Q6.13281 5.77148 6.13281 6.18164L6.13281 11.1719Q6.13281 12.1973 6.61133 12.9541Q7.08984 13.7109 7.94922 14.126Q8.80859 14.541 9.95117 14.541Z" fill="#ffffff"/>
 </g>
</svg>
