<?xml version="1.0" encoding="UTF-8"?>
<!--Generator: Apple Native CoreSVG 175.5-->
<!DOCTYPE svg
PUBLIC "-//W3C//DTD SVG 1.1//EN"
       "http://www.w3.org/Graphics/SVG/1.1/DTD/svg11.dtd">
<svg version="1.1" xmlns="http://www.w3.org/2000/svg" xmlns:xlink="http://www.w3.org/1999/xlink" width="17.9785" height="17.998">
 <g>
  <rect height="17.998" opacity="0" width="17.9785" x="0" y="0"/>
  <path d="M3.06641 17.998L14.9121 17.998Q16.4453 17.998 17.2119 17.2412Q17.9785 16.4844 17.9785 14.9707L17.9785 3.04688Q17.9785 1.5332 17.2119 0.776367Q16.4453 0.0195312 14.9121 0.0195312L3.06641 0.0195312Q1.5332 0.0195312 0.766602 0.776367Q0 1.5332 0 3.04688L0 14.9707Q0 16.4844 0.766602 17.2412Q1.5332 17.998 3.06641 17.998Z" fill="#ffffff"/>
  <path d="M8.99414 13.7207Q7.8125 13.7207 6.92383 13.291Q6.03516 12.8613 5.54199 12.0801Q5.04883 11.2988 5.04883 10.2441L5.04883 5.09766Q5.04883 4.66797 5.25879 4.42871Q5.46875 4.18945 5.84961 4.18945Q6.24023 4.18945 6.45508 4.42871Q6.66992 4.66797 6.66992 5.09766L6.66992 10.0879Q6.66992 11.1426 7.30469 11.7627Q7.93945 12.3828 8.99414 12.3828Q10.0488 12.3828 10.6885 11.7627Q11.3281 11.1426 11.3281 10.0879L11.3281 5.09766Q11.3281 4.66797 11.5381 4.42871Q11.748 4.18945 12.1191 4.18945Q12.5195 4.18945 12.7295 4.42871Q12.9395 4.66797 12.9395 5.09766L12.9395 10.2441Q12.9395 11.2988 12.4463 12.0801Q11.9531 12.8613 11.0645 13.291Q10.1758 13.7207 8.99414 13.7207Z" fill="none"/>
 </g>
</svg>
