<?xml version="1.0" encoding="UTF-8"?>
<!--Generator: Apple Native CoreSVG 175-->
<!DOCTYPE svg
PUBLIC "-//W3C//DTD SVG 1.1//EN"
       "http://www.w3.org/Graphics/SVG/1.1/DTD/svg11.dtd">
<svg version="1.1" xmlns="http://www.w3.org/2000/svg" xmlns:xlink="http://www.w3.org/1999/xlink" width="19.1602" height="19.1504">
 <g>
  <rect height="19.1504" opacity="0" width="19.1602" x="0" y="0"/>
  <path d="M9.57031 19.1406Q11.5527 19.1406 13.2861 18.3984Q15.0195 17.6562 16.3379 16.333Q17.6562 15.0098 18.4082 13.2764Q19.1602 11.543 19.1602 9.57031Q19.1602 7.59766 18.4082 5.86426Q17.6562 4.13086 16.3379 2.80762Q15.0195 1.48438 13.2861 0.742188Q11.5527 0 9.57031 0Q7.59766 0 5.86426 0.742188Q4.13086 1.48438 2.81738 2.80762Q1.50391 4.13086 0.751953 5.86426Q0 7.59766 0 9.57031Q0 11.543 0.74707 13.2764Q1.49414 15.0098 2.8125 16.333Q4.13086 17.6562 5.86914 18.3984Q7.60742 19.1406 9.57031 19.1406ZM9.57031 18.3984Q7.74414 18.3984 6.14746 17.71Q4.55078 17.0215 3.33496 15.8105Q2.11914 14.5996 1.43555 12.998Q0.751953 11.3965 0.751953 9.57031Q0.751953 7.74414 1.43555 6.14258Q2.11914 4.54102 3.33496 3.3252Q4.55078 2.10938 6.14746 1.4209Q7.74414 0.732422 9.57031 0.732422Q11.4062 0.732422 13.0029 1.4209Q14.5996 2.10938 15.8154 3.3252Q17.0312 4.54102 17.7197 6.14258Q18.4082 7.74414 18.4082 9.57031Q18.4082 11.3965 17.7246 12.998Q17.041 14.5996 15.8252 15.8105Q14.6094 17.0215 13.0078 17.71Q11.4062 18.3984 9.57031 18.3984ZM6.39648 4.86328Q5.625 4.86328 5.22949 5.25391Q4.83398 5.64453 4.83398 6.41602L4.83398 7.8418Q4.83398 8.01758 4.93164 8.11523Q5.0293 8.21289 5.18555 8.21289Q5.3418 8.21289 5.43457 8.11523Q5.52734 8.01758 5.52734 7.8418L5.52734 6.47461Q5.52734 5.54688 6.45508 5.54688L7.83203 5.54688Q7.98828 5.54688 8.09082 5.4541Q8.19336 5.36133 8.19336 5.20508Q8.19336 5.04883 8.09082 4.95605Q7.98828 4.86328 7.83203 4.86328ZM12.6953 4.86328L11.2695 4.86328Q11.1035 4.86328 11.001 4.95605Q10.8984 5.04883 10.8984 5.20508Q10.8984 5.36133 11.001 5.4541Q11.1035 5.54688 11.2695 5.54688L12.6465 5.54688Q13.5645 5.54688 13.5645 6.47461L13.5645 7.8418Q13.5645 8.01758 13.6621 8.11523Q13.7598 8.21289 13.916 8.21289Q14.0723 8.21289 14.165 8.11523Q14.2578 8.01758 14.2578 7.8418L14.2578 6.41602Q14.2578 5.64453 13.8623 5.25391Q13.4668 4.86328 12.6953 4.86328ZM6.39648 14.2871L7.83203 14.2871Q7.98828 14.2871 8.09082 14.1895Q8.19336 14.0918 8.19336 13.9355Q8.19336 13.7891 8.09082 13.6914Q7.98828 13.5938 7.83203 13.5938L6.45508 13.5938Q5.52734 13.5938 5.52734 12.666L5.52734 11.2988Q5.52734 11.1328 5.43457 11.0303Q5.3418 10.9277 5.18555 10.9277Q5.0293 10.9277 4.93164 11.0303Q4.83398 11.1328 4.83398 11.2988L4.83398 12.7246Q4.83398 13.4961 5.22949 13.8916Q5.625 14.2871 6.39648 14.2871ZM12.6953 14.2871Q13.4668 14.2871 13.8623 13.8916Q14.2578 13.4961 14.2578 12.7246L14.2578 11.2988Q14.2578 11.1328 14.165 11.0303Q14.0723 10.9277 13.916 10.9277Q13.7598 10.9277 13.6621 11.0303Q13.5645 11.1328 13.5645 11.2988L13.5645 12.666Q13.5645 13.5938 12.6465 13.5938L11.2695 13.5938Q11.1035 13.5938 11.001 13.6914Q10.8984 13.7891 10.8984 13.9355Q10.8984 14.0918 11.001 14.1895Q11.1035 14.2871 11.2695 14.2871Z" fill="#ffffff"/>
 </g>
</svg>
