<?xml version="1.0" encoding="UTF-8"?>
<!--Generator: Apple Native CoreSVG 175-->
<!DOCTYPE svg
PUBLIC "-//W3C//DTD SVG 1.1//EN"
       "http://www.w3.org/Graphics/SVG/1.1/DTD/svg11.dtd">
<svg version="1.1" xmlns="http://www.w3.org/2000/svg" xmlns:xlink="http://www.w3.org/1999/xlink" width="15.779" height="20.6747">
 <g>
  <rect height="20.6747" opacity="0" width="15.779" x="0" y="0"/>
  <path d="M2.62665 20.6747L13.1523 20.6747Q14.4341 20.6747 15.1065 20.0066Q15.779 19.3384 15.779 18.0399L15.779 2.66296Q15.779 1.36185 15.1135 0.693665Q14.4481 0.0254822 13.1523 0.0254822L10.3485 0.0254822Q10.2351 0.0254822 10.1682 0.0987244Q10.1012 0.171967 10.1012 0.287933Q10.1012 0.303192 10.1012 0.317612Q10.1012 0.332031 10.1012 0.34729Q10.1012 1.25946 9.48219 1.85417Q8.86322 2.44888 7.8894 2.44888Q6.91559 2.44888 6.29669 1.85417Q5.6778 1.25946 5.6778 0.34729Q5.6778 0.332031 5.6778 0.317612Q5.6778 0.303192 5.6778 0.287933Q5.6778 0.171967 5.61081 0.0987244Q5.54382 0.0254822 5.43045 0.0254822L2.62665 0.0254822Q1.33087 0.0254822 0.665436 0.693665Q0 1.36185 0 2.66296L0 18.0399Q0 19.3384 0.672455 20.0066Q1.34491 20.6747 2.62665 20.6747ZM3.88596 6.56265Q3.74176 6.56265 3.64471 6.47118Q3.54767 6.3797 3.54767 6.23566Q3.54767 6.08017 3.64471 5.99014Q3.74176 5.90012 3.88596 5.90012L11.9098 5.90012Q12.0442 5.90012 12.1378 5.99014Q12.2313 6.08017 12.2313 6.23566Q12.2313 6.3797 12.1378 6.47118Q12.0442 6.56265 11.9098 6.56265ZM3.88596 10.2403Q3.74176 10.2403 3.64471 10.1468Q3.54767 10.0533 3.54767 9.91882Q3.54767 9.78439 3.64471 9.68948Q3.74176 9.59457 3.88596 9.59457L7.82776 9.59457Q7.97195 9.59457 8.069 9.68948Q8.16605 9.78439 8.16605 9.91882Q8.16605 10.0533 8.069 10.1468Q7.97195 10.2403 7.82776 10.2403Z" fill="rgba(0,0,0,0.85)"/>
 </g>
</svg>
