<?xml version="1.0" encoding="UTF-8"?>
<!--Generator: Apple Native CoreSVG 175-->
<!DOCTYPE svg
PUBLIC "-//W3C//DTD SVG 1.1//EN"
       "http://www.w3.org/Graphics/SVG/1.1/DTD/svg11.dtd">
<svg version="1.1" xmlns="http://www.w3.org/2000/svg" xmlns:xlink="http://www.w3.org/1999/xlink" width="16.1079" height="17.5003">
 <g>
  <rect height="17.5003" opacity="0" width="16.1079" x="0" y="0"/>
  <path d="M6.88202 9.11087Q7.13791 9.32922 7.351 9.32922Q7.56409 9.32922 7.82425 9.11087L11.9699 5.49683Q12.0723 5.39993 12.0877 5.26382Q12.1031 5.12772 12.0149 5.00854Q11.9083 4.89212 11.7524 4.88861Q11.5965 4.8851 11.4578 5.00854L7.35046 8.5968L4.85275 6.46912Q4.7406 6.37222 4.59396 6.38176Q4.44733 6.3913 4.35745 6.5007Q4.24652 6.62262 4.26529 6.76361Q4.28406 6.9046 4.40582 7.00851ZM4.09653 17.5003L10.9543 17.5003Q12.2231 17.5003 13.1413 17.0054Q14.0594 16.5105 14.5551 15.5882Q15.0508 14.666 15.0508 13.396L15.0508 4.12384Q15.0508 2.84683 14.5551 1.9281Q14.0594 1.00937 13.1413 0.512238Q12.2231 0.0151062 10.9543 0.0151062L4.09653 0.0151062Q2.82776 0.0151062 1.90956 0.512238Q0.991364 1.00937 0.495682 1.9281Q0 2.84683 0 4.12384L0 13.396Q0 14.666 0.495682 15.5882Q0.991364 16.5105 1.90956 17.0054Q2.82776 17.5003 4.09653 17.5003ZM4.0773 16.7789Q2.50702 16.7789 1.61781 15.8877Q0.728607 14.9965 0.728607 13.4082L0.728607 4.11835Q0.728607 2.53006 1.61781 1.64024Q2.50702 0.750427 4.0773 0.750427L10.9735 0.750427Q12.5368 0.750427 13.4295 1.64024Q14.3222 2.53006 14.3222 4.11835L14.3222 13.4082Q14.3222 14.9965 13.4295 15.8877Q12.5368 16.7789 10.9735 16.7789ZM14.7485 7.75345L15.2582 7.75345Q15.6497 7.75345 15.8788 7.49428Q16.1079 7.23511 16.1079 6.81168L16.1079 5.03311Q16.1079 4.61395 15.8788 4.36043Q15.6497 4.1069 15.2582 4.1069L14.7485 4.1069Z" fill="rgba(0,0,0,0.85)"/>
 </g>
</svg>
