<?xml version="1.0" encoding="UTF-8"?>
<!--Generator: Apple Native CoreSVG 175.5-->
<!DOCTYPE svg
PUBLIC "-//W3C//DTD SVG 1.1//EN"
       "http://www.w3.org/Graphics/SVG/1.1/DTD/svg11.dtd">
<svg version="1.1" xmlns="http://www.w3.org/2000/svg" xmlns:xlink="http://www.w3.org/1999/xlink" width="20.5273" height="19.6387">
 <g>
  <rect height="19.6387" opacity="0" width="20.5273" x="0" y="0"/>
  <path d="M20.5273 4.6875Q20.5273 4.4043 20.3223 4.2041Q20.1172 4.00391 19.834 4.00391L19.7852 4.00391Q18.9941 4.00391 18.4766 3.7207Q17.959 3.4375 17.4121 3.04688Q16.9336 2.69531 16.3232 2.3584Q15.7129 2.02148 14.9023 2.02148Q14.0625 2.02148 13.4424 2.37793Q12.8223 2.73438 12.3438 3.0957Q11.8359 3.47656 11.377 3.74023Q10.918 4.00391 10.2637 4.00391Q9.60938 4.00391 9.14551 3.74023Q8.68164 3.47656 8.18359 3.0957Q7.70508 2.73438 7.08496 2.37793Q6.46484 2.02148 5.625 2.02148Q5.20508 2.02148 4.83398 2.12891L6.46484 3.75Q6.50391 3.76953 6.55273 3.79883Q6.60156 3.82812 6.65039 3.84766Q6.94336 3.98438 7.22168 4.17969Q7.5 4.375 7.80273 4.58496Q8.10547 4.79492 8.45703 4.97559Q8.80859 5.15625 9.24805 5.26855Q9.6875 5.38086 10.2637 5.38086Q11.0645 5.38086 11.626 5.18066Q12.1875 4.98047 12.6025 4.68262Q13.0176 4.38477 13.3643 4.0918Q13.7109 3.79883 14.0723 3.59863Q14.4336 3.39844 14.9023 3.39844Q15.3711 3.39844 15.7275 3.59863Q16.084 3.79883 16.4258 4.0918Q16.7676 4.38477 17.2021 4.68262Q17.6367 4.98047 18.252 5.18066Q18.8672 5.38086 19.7852 5.38086L19.834 5.38086Q20.1172 5.38086 20.3223 5.18066Q20.5273 4.98047 20.5273 4.6875ZM0 10.791Q0 11.0742 0.200195 11.2744Q0.400391 11.4746 0.693359 11.4746L0.742188 11.4746Q1.65039 11.4746 2.27051 11.2744Q2.89062 11.0742 3.32031 10.7812Q3.75 10.4883 4.0918 10.1904Q4.43359 9.89258 4.79004 9.69238Q5.14648 9.49219 5.625 9.49219Q5.87891 9.49219 6.07422 9.57031Q6.26953 9.64844 6.4502 9.75586Q6.63086 9.86328 6.82617 9.9707Q7.02148 10.0781 7.27539 10.127L5.78125 8.63281Q5.68359 8.60352 5.5957 8.5498Q5.50781 8.49609 5.42969 8.4375Q5.32227 8.35938 5.2002 8.29102Q5.07812 8.22266 4.92188 8.22266Q4.69727 8.22266 4.36523 8.37891Q4.0332 8.53516 3.69141 8.75Q3.34961 8.96484 3.11523 9.14062Q2.55859 9.53125 2.04102 9.81445Q1.52344 10.0977 0.742188 10.0977L0.693359 10.0977Q0.400391 10.0977 0.200195 10.2979Q0 10.498 0 10.791ZM20.5273 10.791Q20.5273 10.498 20.3223 10.2979Q20.1172 10.0977 19.834 10.0977L19.7852 10.0977Q18.9941 10.0977 18.4766 9.81445Q17.959 9.53125 17.4121 9.14062Q16.9336 8.79883 16.3232 8.45703Q15.7129 8.11523 14.9023 8.11523Q14.0625 8.11523 13.4424 8.47656Q12.8223 8.83789 12.3438 9.18945Q12.2754 9.23828 12.2119 9.28711Q12.1484 9.33594 12.0898 9.375L13.1055 10.4004Q13.3984 10.166 13.667 9.96094Q13.9355 9.75586 14.2285 9.62402Q14.5215 9.49219 14.9023 9.49219Q15.3711 9.49219 15.7275 9.69238Q16.084 9.89258 16.4258 10.1904Q16.7676 10.4883 17.2021 10.7812Q17.6367 11.0742 18.252 11.2744Q18.8672 11.4746 19.7852 11.4746L19.834 11.4746Q20.1172 11.4746 20.3223 11.2744Q20.5273 11.0742 20.5273 10.791ZM0 16.8848Q0 17.168 0.200195 17.373Q0.400391 17.5781 0.693359 17.5781L0.742188 17.5781Q1.65039 17.5781 2.27051 17.3779Q2.89062 17.1777 3.32031 16.8799Q3.75 16.582 4.0918 16.2891Q4.43359 15.9961 4.79004 15.7959Q5.14648 15.5957 5.625 15.5957Q6.09375 15.5957 6.45508 15.7959Q6.81641 15.9961 7.16309 16.2891Q7.50977 16.582 7.9248 16.8799Q8.33984 17.1777 8.90137 17.3779Q9.46289 17.5781 10.2637 17.5781Q10.8984 17.5781 11.377 17.4414Q11.8555 17.3047 12.2314 17.0898Q12.6074 16.875 12.9199 16.6309Q13.2324 16.3867 13.5352 16.1816L12.5195 15.166Q12.1582 15.4199 11.8213 15.6592Q11.4844 15.8984 11.1133 16.0498Q10.7422 16.2012 10.2637 16.2012Q9.60938 16.2012 9.14551 15.9375Q8.68164 15.6738 8.18359 15.2832Q7.70508 14.9316 7.08496 14.5752Q6.46484 14.2188 5.625 14.2188Q4.81445 14.2188 4.2041 14.5557Q3.59375 14.8926 3.11523 15.2441Q2.55859 15.6348 2.04102 15.918Q1.52344 16.2012 0.742188 16.2012L0.693359 16.2012Q0.400391 16.2012 0.200195 16.4014Q0 16.6016 0 16.8848Z" fill="#ffffff"/>
  <path d="M18.3887 19.4238Q18.6133 19.6387 18.9258 19.6387Q19.2383 19.6387 19.4531 19.4238Q19.668 19.1992 19.6729 18.8867Q19.6777 18.5742 19.4531 18.3594L2.07031 0.966797Q1.8457 0.751953 1.5332 0.751953Q1.2207 0.751953 0.996094 0.966797Q0.78125 1.18164 0.78125 1.50391Q0.78125 1.82617 0.996094 2.03125Z" fill="#ffffff"/>
 </g>
</svg>
