<?xml version="1.0" encoding="UTF-8"?>
<!--Generator: Apple Native CoreSVG 175.5-->
<!DOCTYPE svg
PUBLIC "-//W3C//DTD SVG 1.1//EN"
       "http://www.w3.org/Graphics/SVG/1.1/DTD/svg11.dtd">
<svg version="1.1" xmlns="http://www.w3.org/2000/svg" xmlns:xlink="http://www.w3.org/1999/xlink" width="14.1021" height="23.2287">
 <g>
  <rect height="23.2287" opacity="0" width="14.1021" x="0" y="0"/>
  <path d="M10.625 11.6192Q10.625 13.1231 11.123 14.4952Q11.6211 15.8673 12.5488 16.961Q12.7832 17.2442 13.0518 17.3077Q13.3203 17.3712 13.5498 17.2784Q13.7793 17.1856 13.9307 16.9854Q14.082 16.7852 14.0967 16.5411Q14.1113 16.297 13.9355 16.0626Q13.0469 14.9493 12.6709 13.9288Q12.2949 12.9083 12.2949 11.6192Q12.2949 10.3302 12.6709 9.30966Q13.0469 8.28915 13.9355 7.17587Q14.1113 6.94149 14.1016 6.69247Q14.0918 6.44345 13.9404 6.24325Q13.7891 6.04305 13.5547 5.95028Q13.3203 5.85751 13.0566 5.92098Q12.793 5.98446 12.5488 6.26766Q11.6211 7.36141 11.123 8.73348Q10.625 10.1056 10.625 11.6192Z" fill="#ffffff"/>
  <path d="M5.32227 11.6192Q5.32227 13.9141 6.02051 16.0284Q6.71875 18.1427 8.02734 19.8907Q8.25195 20.213 8.53027 20.3009Q8.80859 20.3888 9.0625 20.3058Q9.31641 20.2227 9.47754 20.0177Q9.63867 19.8126 9.64355 19.5391Q9.64844 19.2657 9.42383 18.9825Q8.23242 17.4102 7.6123 15.5352Q6.99219 13.6602 6.99219 11.6192Q6.99219 9.57821 7.6123 7.69833Q8.23242 5.81845 9.42383 4.25595Q9.64844 3.96298 9.64355 3.68954Q9.63867 3.4161 9.47754 3.21591Q9.31641 3.01571 9.0625 2.9327Q8.80859 2.8497 8.53027 2.93759Q8.25195 3.02548 8.02734 3.33798Q6.71875 5.09579 6.02051 7.20516Q5.32227 9.31454 5.32227 11.6192Z" fill="#ffffff"/>
  <path d="M0 11.6192Q0 14.7149 0.932617 17.5518Q1.86523 20.3888 3.57422 22.7813Q3.79883 23.0841 4.07227 23.1768Q4.3457 23.2696 4.59473 23.1964Q4.84375 23.1231 5.00488 22.9229Q5.16602 22.7227 5.17578 22.4493Q5.18555 22.1759 4.96094 21.8731Q3.35938 19.6661 2.51953 17.0587Q1.67969 14.4513 1.67969 11.6192Q1.67969 8.77743 2.51953 6.17001Q3.35938 3.56259 4.96094 1.35555Q5.18555 1.05282 5.18066 0.779383Q5.17578 0.505946 5.00977 0.315516Q4.84375 0.125086 4.58984 0.051844Q4.33594-0.0213982 4.0625 0.0664924Q3.78906 0.154383 3.57422 0.457117Q1.85547 2.8497 0.927734 5.68661Q0 8.52352 0 11.6192Z" fill="#ffffff"/>
 </g>
</svg>
