<?xml version="1.0" encoding="UTF-8"?>
<!--Generator: Apple Native CoreSVG 175-->
<!DOCTYPE svg
PUBLIC "-//W3C//DTD SVG 1.1//EN"
       "http://www.w3.org/Graphics/SVG/1.1/DTD/svg11.dtd">
<svg version="1.1" xmlns="http://www.w3.org/2000/svg" xmlns:xlink="http://www.w3.org/1999/xlink" width="22.6617" height="17.3035">
 <g>
  <rect height="17.3035" opacity="0" width="22.6617" x="0" y="0"/>
  <path d="M0 9.22073L0 8.56552L2.68875 8.56552L4.68277 3.73978Q4.75082 3.56216 4.89929 3.51509Q5.04776 3.46802 5.1899 3.52776Q5.33203 3.58749 5.37781 3.73169L8.25516 12.3784L9.42337 8.91006Q9.47617 8.74054 9.59297 8.65303Q9.70978 8.56552 9.89304 8.56552L12.645 8.56552L14.6417 3.73978Q14.7098 3.56216 14.8582 3.51509Q15.0066 3.46802 15.1488 3.52776Q15.291 3.58749 15.334 3.73169L18.2141 12.3784L19.3796 8.91006Q19.4351 8.74054 19.5519 8.65303Q19.6687 8.56552 19.8492 8.56552L22.6617 8.56552L22.6617 9.22073L19.9477 9.22073L18.5902 13.3844Q18.5374 13.5382 18.3877 13.5937Q18.2379 13.6491 18.0916 13.5964Q17.9453 13.5437 17.8926 13.3855L15.0082 4.64066L13.2269 8.86215Q13.1406 9.07379 13.0406 9.14726Q12.9407 9.22073 12.7574 9.22073L9.99573 9.22073L8.63129 13.3844Q8.57849 13.5382 8.43224 13.5937Q8.28598 13.6491 8.13614 13.5964Q7.9863 13.5437 7.9364 13.3855L5.04929 4.64066L3.28445 8.86215Q3.19107 9.07379 3.0864 9.14726Q2.98172 9.22073 2.7742 9.22073ZM2.63046 17.2894L20.0243 17.2894Q21.3281 17.2894 21.9949 16.617Q22.6617 15.9445 22.6617 14.6655L22.6617 2.6265Q22.6617 1.35468 21.9949 0.677338Q21.3281 0 20.0243 0L2.63046 0Q1.33636 0 0.668182 0.668945Q0 1.33789 0 2.6265L0 14.6655Q0 15.9586 0.668182 16.624Q1.33636 17.2894 2.63046 17.2894Z" fill="rgba(0,0,0,0.85)"/>
 </g>
</svg>
