<?xml version="1.0" encoding="UTF-8"?>
<!--Generator: Apple Native CoreSVG 175.5-->
<!DOCTYPE svg
PUBLIC "-//W3C//DTD SVG 1.1//EN"
       "http://www.w3.org/Graphics/SVG/1.1/DTD/svg11.dtd">
<svg version="1.1" xmlns="http://www.w3.org/2000/svg" xmlns:xlink="http://www.w3.org/1999/xlink" width="19.9219" height="19.9316">
 <g>
  <rect height="19.9316" opacity="0" width="19.9219" x="0" y="0"/>
  <path d="M9.96094 19.9316Q12.002 19.9316 13.8037 19.1504Q15.6055 18.3691 16.9824 16.9922Q18.3594 15.6152 19.1406 13.8135Q19.9219 12.0117 19.9219 9.9707Q19.9219 7.92969 19.1406 6.12793Q18.3594 4.32617 16.9824 2.94922Q15.6055 1.57227 13.7988 0.791016Q11.9922 0.00976562 9.95117 0.00976562Q7.91016 0.00976562 6.1084 0.791016Q4.30664 1.57227 2.93457 2.94922Q1.5625 4.32617 0.78125 6.12793Q0 7.92969 0 9.9707Q0 12.0117 0.78125 13.8135Q1.5625 15.6152 2.93945 16.9922Q4.31641 18.3691 6.11816 19.1504Q7.91992 19.9316 9.96094 19.9316Z" fill="#ffffff"/>
  <path d="M12.0703 9.9707Q12.0703 8.33984 12.9199 7.1582Q13.0859 6.92383 13.3594 6.87012Q13.6328 6.81641 13.877 6.97266Q14.1406 7.14844 14.1797 7.44629Q14.2188 7.74414 14.0234 8.00781Q13.4473 8.76953 13.4473 9.9707Q13.4473 11.1328 14.0234 11.9238Q14.2188 12.1973 14.1748 12.4854Q14.1309 12.7734 13.877 12.959Q13.6328 13.125 13.3545 13.0664Q13.0762 13.0078 12.9199 12.7734Q12.5098 12.2461 12.29 11.5039Q12.0703 10.7617 12.0703 9.9707Z" fill="none"/>
  <path d="M8.91602 9.9707Q8.91602 8.69141 9.27734 7.50977Q9.63867 6.32812 10.3125 5.41016Q10.498 5.16602 10.7666 5.1123Q11.0352 5.05859 11.2695 5.22461Q11.5039 5.39062 11.5527 5.67383Q11.6016 5.95703 11.416 6.2207Q10.8789 6.96289 10.5859 7.93945Q10.293 8.91602 10.293 9.9707Q10.293 11.0156 10.5859 11.9922Q10.8789 12.9688 11.416 13.7207Q11.6016 13.9746 11.5527 14.2627Q11.5039 14.5508 11.2695 14.707Q11.0352 14.8828 10.7666 14.8291Q10.498 14.7754 10.3125 14.5312Q9.63867 13.5938 9.27734 12.4121Q8.91602 11.2305 8.91602 9.9707Z" fill="none"/>
  <path d="M5.77148 9.9707Q5.77148 8.24219 6.26465 6.61621Q6.75781 4.99023 7.68555 3.66211Q7.86133 3.39844 8.13965 3.33984Q8.41797 3.28125 8.65234 3.45703Q8.89648 3.63281 8.93555 3.91113Q8.97461 4.18945 8.79883 4.44336Q7.98828 5.58594 7.55859 7.01172Q7.12891 8.4375 7.12891 9.9707Q7.12891 11.4844 7.56348 12.9199Q7.99805 14.3555 8.79883 15.498Q8.97461 15.752 8.93555 16.0303Q8.89648 16.3086 8.65234 16.4844Q8.42773 16.6504 8.14453 16.5918Q7.86133 16.5332 7.68555 16.2793Q6.75781 14.9609 6.26465 13.3301Q5.77148 11.6992 5.77148 9.9707Z" fill="none"/>
 </g>
</svg>
