<?xml version="1.0" encoding="UTF-8"?>
<!--Generator: Apple Native CoreSVG 175.5-->
<!DOCTYPE svg
PUBLIC "-//W3C//DTD SVG 1.1//EN"
       "http://www.w3.org/Graphics/SVG/1.1/DTD/svg11.dtd">
<svg version="1.1" xmlns="http://www.w3.org/2000/svg" xmlns:xlink="http://www.w3.org/1999/xlink" width="14.1075" height="23.2287">
 <g>
  <rect height="23.2287" opacity="0" width="14.1075" x="0" y="0"/>
  <path d="M3.48252 11.6192Q3.48252 10.1056 2.98447 8.73348Q2.48642 7.36141 1.55869 6.26766Q1.31455 5.98446 1.04599 5.92098Q0.777439 5.85751 0.547947 5.95028Q0.318455 6.04305 0.167087 6.24325Q0.0157203 6.44345 0.00107184 6.69247Q-0.0135766 6.94149 0.17197 7.17587Q1.05088 8.28915 1.42685 9.30966Q1.80283 10.3302 1.80283 11.6192Q1.80283 12.9083 1.42685 13.9288Q1.05088 14.9493 0.17197 16.0626Q-0.00381098 16.297 0.0108375 16.5411Q0.0254859 16.7852 0.17197 16.9854Q0.318455 17.1856 0.55283 17.2784Q0.787205 17.3712 1.05088 17.3077Q1.31455 17.2442 1.55869 16.961Q2.48642 15.8673 2.98447 14.4952Q3.48252 13.1231 3.48252 11.6192Z" fill="#ffffff"/>
  <path d="M8.78525 11.6192Q8.78525 9.31454 8.08701 7.20516Q7.38877 5.09579 6.08017 3.33798Q5.8458 3.02548 5.56748 2.93759Q5.28916 2.8497 5.04013 2.9327Q4.79111 3.01571 4.62998 3.21591Q4.46885 3.4161 4.46396 3.68954Q4.45908 3.96298 4.67392 4.25595Q5.86533 5.81845 6.49033 7.69833Q7.11533 9.57821 7.11533 11.6192Q7.11533 13.6602 6.49033 15.5352Q5.86533 17.4102 4.67392 18.9825Q4.45908 19.2657 4.46396 19.5391Q4.46885 19.8126 4.62998 20.0177Q4.79111 20.2227 5.04013 20.3058Q5.28916 20.3888 5.56748 20.3009Q5.8458 20.213 6.08017 19.8907Q7.38877 18.1427 8.08701 16.0284Q8.78525 13.9141 8.78525 11.6192Z" fill="#ffffff"/>
  <path d="M14.1075 11.6192Q14.1075 8.52352 13.1749 5.68661Q12.2423 2.8497 10.5235 0.457117Q10.3185 0.154383 10.045 0.0664924Q9.77158-0.0213982 9.51767 0.051844Q9.26377 0.125086 9.09775 0.315516Q8.93174 0.505946 8.92197 0.779383Q8.9122 1.05282 9.14658 1.35555Q10.7481 3.56259 11.588 6.17001Q12.4278 8.77743 12.4278 11.6192Q12.4278 14.4513 11.588 17.0587Q10.7481 19.6661 9.14658 21.8731Q8.92197 22.1759 8.92685 22.4493Q8.93174 22.7227 9.09775 22.9229Q9.26377 23.1231 9.51279 23.1964Q9.76181 23.2696 10.0353 23.1768Q10.3087 23.0841 10.5235 22.7813Q12.2423 20.3888 13.1749 17.5518Q14.1075 14.7149 14.1075 11.6192Z" fill="#ffffff"/>
 </g>
</svg>
