<?xml version="1.0" encoding="UTF-8"?>
<!--Generator: Apple Native CoreSVG 175.5-->
<!DOCTYPE svg
PUBLIC "-//W3C//DTD SVG 1.1//EN"
       "http://www.w3.org/Graphics/SVG/1.1/DTD/svg11.dtd">
<svg version="1.1" xmlns="http://www.w3.org/2000/svg" xmlns:xlink="http://www.w3.org/1999/xlink" width="19.5605" height="21.0254">
 <g>
  <rect height="21.0254" opacity="0" width="19.5605" x="0" y="0"/>
  <path d="M0.703125 12.4023L5.0293 12.4023Q5.69336 12.4023 5.83008 11.8164L7.71484 3.14453L6.97266 3.14453L9.86328 20.5078Q9.90234 20.7715 10.0928 20.8984Q10.2832 21.0254 10.5225 21.0254Q10.7617 21.0254 10.957 20.8984Q11.1523 20.7715 11.2012 20.5078L14.0039 7.35352L13.3887 7.34375L14.2676 11.7383Q14.3945 12.4023 15.0684 12.4023L18.8574 12.4023Q19.1504 12.4023 19.3555 12.2021Q19.5605 12.002 19.5605 11.7188Q19.5605 11.4258 19.3604 11.2256Q19.1602 11.0254 18.8574 11.0254L14.248 11.0254L15.6543 12.168L14.2773 6.05469Q14.2188 5.80078 14.0332 5.67871Q13.8477 5.55664 13.623 5.55664Q13.3984 5.55664 13.208 5.68848Q13.0176 5.82031 12.959 6.08398L10.1074 18.8281L10.8008 18.8281L7.93945 1.47461Q7.90039 1.2207 7.72461 1.08887Q7.54883 0.957031 7.3291 0.952148Q7.10938 0.947266 6.92383 1.0791Q6.73828 1.21094 6.67969 1.47461L4.36523 12.168L5.77148 11.0254L0.703125 11.0254Q0.400391 11.0254 0.200195 11.2305Q0 11.4355 0 11.7188Q0 12.002 0.200195 12.2021Q0.400391 12.4023 0.703125 12.4023Z" fill="#ffffff"/>
 </g>
</svg>
