<?xml version="1.0" encoding="UTF-8"?>
<!--Generator: Apple Native CoreSVG 175-->
<!DOCTYPE svg
PUBLIC "-//W3C//DTD SVG 1.1//EN"
       "http://www.w3.org/Graphics/SVG/1.1/DTD/svg11.dtd">
<svg version="1.1" xmlns="http://www.w3.org/2000/svg" xmlns:xlink="http://www.w3.org/1999/xlink" width="24.2293" height="22.1793">
 <g>
  <rect height="22.1793" opacity="0" width="24.2293" x="0" y="0"/>
  <path d="M0.344543 12.6277L3.64182 12.6277Q3.75275 12.6277 3.84491 12.5611Q3.93707 12.4945 3.96484 12.3851L4.64172 9.6579L4.46167 9.6579L6.15234 17.6921Q6.18011 17.8226 6.27365 17.8892Q6.36719 17.9558 6.48224 17.9558Q6.59729 17.9558 6.68808 17.8892Q6.77887 17.8226 6.80389 17.6823L8.30475 7.67776L9.92615 21.8953Q9.94415 22.0325 10.0377 22.1059Q10.1312 22.1793 10.2525 22.1793Q10.3738 22.1793 10.4639 22.1059Q10.5539 22.0325 10.5664 21.8953L12.1269 4.35516L13.6832 21.8575Q13.6957 22.0113 13.7892 22.0882Q13.8828 22.1652 14.0005 22.1652Q14.1183 22.1652 14.2119 22.0882Q14.3054 22.0113 14.3304 21.8575L15.952 7.67776L17.4597 17.7133Q17.4847 17.8465 17.5734 17.9118Q17.662 17.977 17.7757 17.977Q17.8894 17.977 17.9795 17.9118Q18.0696 17.8465 18.1042 17.7133L19.7922 9.66446L19.6039 9.66721L20.2917 12.3851Q20.318 12.5027 20.4109 12.5652Q20.5038 12.6277 20.6078 12.6277L23.8875 12.6277Q24.0327 12.6277 24.131 12.5224Q24.2293 12.4171 24.2293 12.2816Q24.2293 12.1532 24.131 12.0465Q24.0327 11.9398 23.8875 11.9398L20.8546 11.9398L19.996 8.51868Q19.9629 8.38715 19.8707 8.32481Q19.7784 8.26248 19.6675 8.26599Q19.5566 8.2695 19.4693 8.33534Q19.382 8.40118 19.3515 8.5257L17.834 15.8389L16.225 5.17853Q16.207 5.04135 16.1121 4.96933Q16.0172 4.89731 15.9021 4.89731Q15.787 4.89731 15.6935 4.9707Q15.6 5.0441 15.5777 5.18829L14.045 18.6534L12.4512 0.67688Q12.4387 0.53009 12.3424 0.45311Q12.2461 0.376129 12.1248 0.376129Q12.0035 0.376129 11.9072 0.45311Q11.8109 0.53009 11.8054 0.67688L10.2116 18.6534L8.67188 5.18829Q8.65662 5.04135 8.56308 4.96445Q8.46954 4.88754 8.35449 4.88754Q8.23944 4.88754 8.14453 4.96094Q8.04962 5.03433 8.03162 5.17853L6.42258 15.8389L4.89807 8.54691Q4.86755 8.4137 4.77676 8.34358Q4.68597 8.27347 4.57855 8.27347Q4.47113 8.27347 4.37752 8.34358Q4.28391 8.4137 4.24652 8.54691L3.39493 11.9398L0.344543 11.9398Q0.196533 11.9398 0.0982666 12.0465Q0 12.1532 0 12.2816Q0 12.4171 0.0982666 12.5224Q0.196533 12.6277 0.344543 12.6277Z" fill="#ffffff"/>
 </g>
</svg>
