<?xml version="1.0" encoding="UTF-8"?>
<!--Generator: Apple Native CoreSVG 175.5-->
<!DOCTYPE svg
PUBLIC "-//W3C//DTD SVG 1.1//EN"
       "http://www.w3.org/Graphics/SVG/1.1/DTD/svg11.dtd">
<svg version="1.1" xmlns="http://www.w3.org/2000/svg" xmlns:xlink="http://www.w3.org/1999/xlink" width="15.6934" height="19.6973">
 <g>
  <rect height="19.6973" opacity="0" width="15.6934" x="0" y="0"/>
  <path d="M7.85156 15.7129Q9.47266 15.7129 10.8936 15.1025Q12.3145 14.4922 13.3936 13.4131Q14.4727 12.334 15.083 10.9082Q15.6934 9.48242 15.6934 7.85156Q15.6934 6.23047 15.083 4.80469Q14.4727 3.37891 13.3936 2.2998Q12.3145 1.2207 10.8936 0.610352Q9.47266 0 7.85156 0Q6.23047 0 4.80469 0.610352Q3.37891 1.2207 2.2998 2.2998Q1.2207 3.37891 0.610352 4.80469Q0 6.23047 0 7.85156Q0 9.48242 0.610352 10.9082Q1.2207 12.334 2.2998 13.4131Q3.37891 14.4922 4.80469 15.1025Q6.23047 15.7129 7.85156 15.7129ZM7.85156 14.1406Q6.5332 14.1406 5.39062 13.6572Q4.24805 13.1738 3.38867 12.3145Q2.5293 11.4551 2.05078 10.3174Q1.57227 9.17969 1.57227 7.85156Q1.57227 6.5332 2.05078 5.39062Q2.5293 4.24805 3.38867 3.39355Q4.24805 2.53906 5.39062 2.05566Q6.5332 1.57227 7.85156 1.57227Q9.16992 1.57227 10.3076 2.05566Q11.4453 2.53906 12.3047 3.39355Q13.1641 4.24805 13.6426 5.39062Q14.1211 6.5332 14.1211 7.85156Q14.1211 9.17969 13.6426 10.3174Q13.1641 11.4551 12.3047 12.3145Q11.4453 13.1738 10.3076 13.6572Q9.16992 14.1406 7.85156 14.1406ZM7.07031 18.8965L8.64258 18.8965L8.64258 14.9902L7.07031 14.9902ZM4.43359 19.6777L11.2695 19.6777Q11.5918 19.6777 11.8213 19.4482Q12.0508 19.2188 12.0508 18.8965Q12.0508 18.5742 11.8213 18.3398Q11.5918 18.1055 11.2695 18.1055L4.44336 18.1055Q4.12109 18.1055 3.88672 18.3398Q3.65234 18.5742 3.65234 18.8965Q3.65234 19.2188 3.88184 19.4482Q4.11133 19.6777 4.43359 19.6777Z" fill="#ffffff"/>
  <path d="M7.85156 12.4121Q9.12109 12.4121 10.1514 11.8018Q11.1816 11.1914 11.7871 10.1611Q12.3926 9.13086 12.3926 7.85156Q12.3926 6.58203 11.7871 5.55176Q11.1816 4.52148 10.1514 3.91113Q9.12109 3.30078 7.85156 3.30078Q6.58203 3.30078 5.55176 3.91113Q4.52148 4.52148 3.91113 5.55176Q3.30078 6.58203 3.30078 7.85156Q3.30078 9.13086 3.91113 10.1611Q4.52148 11.1914 5.55176 11.8018Q6.58203 12.4121 7.85156 12.4121ZM7.85156 9.9707Q6.96289 9.9707 6.34766 9.35547Q5.73242 8.74023 5.73242 7.85156Q5.73242 6.96289 6.34766 6.34766Q6.96289 5.73242 7.85156 5.73242Q8.74023 5.73242 9.35059 6.34766Q9.96094 6.96289 9.96094 7.85156Q9.96094 8.74023 9.35059 9.35547Q8.74023 9.9707 7.85156 9.9707Z" fill="#ffffff"/>
 </g>
</svg>
