<?xml version="1.0" encoding="UTF-8"?>
<!--Generator: Apple Native CoreSVG 175.5-->
<!DOCTYPE svg
PUBLIC "-//W3C//DTD SVG 1.1//EN"
       "http://www.w3.org/Graphics/SVG/1.1/DTD/svg11.dtd">
<svg version="1.1" xmlns="http://www.w3.org/2000/svg" xmlns:xlink="http://www.w3.org/1999/xlink" width="22.4809" height="16.2402">
 <g>
  <rect height="16.2402" opacity="0" width="22.4809" x="0" y="0"/>
  <path d="M11.2356 16.2402Q11.4016 16.2402 11.5676 16.1475Q11.7336 16.0547 12.0168 15.7715L14.3996 13.4863Q14.5071 13.3789 14.5315 13.2275Q14.5559 13.0762 14.4485 12.9492Q13.97 12.334 13.1155 11.875Q12.261 11.416 11.2356 11.416Q10.1809 11.416 9.32152 11.8945Q8.46215 12.373 7.98363 13.0078Q7.91527 13.125 7.93969 13.252Q7.9641 13.3789 8.08129 13.4863L10.4543 15.7715Q10.7375 16.0449 10.9036 16.1426Q11.0696 16.2402 11.2356 16.2402Z" fill="#ffffff"/>
  <path d="M5.52269 10.9277Q5.67894 11.0742 5.86449 11.0596Q6.05004 11.0449 6.19652 10.8887Q7.07543 9.91211 8.42308 9.27734Q9.77074 8.64258 11.2356 8.65234Q12.72 8.64258 14.0676 9.29199Q15.4153 9.94141 16.3137 10.918Q16.4504 11.0645 16.6213 11.0645Q16.7922 11.0645 16.9485 10.918L18.4621 9.41406Q18.5793 9.29688 18.5891 9.14551Q18.5989 8.99414 18.4914 8.86719Q17.759 7.95898 16.6409 7.24609Q15.5227 6.5332 14.1409 6.11816Q12.759 5.70312 11.2356 5.70312Q9.71215 5.70312 8.33031 6.11816Q6.94847 6.5332 5.83519 7.24609Q4.72191 7.95898 3.97972 8.86719Q3.8723 8.99414 3.87719 9.14062Q3.88207 9.28711 4.00902 9.41406Z" fill="#ffffff"/>
  <path d="M1.46996 6.8457Q1.61644 6.99219 1.80199 6.9873Q1.98754 6.98242 2.12426 6.83594Q3.92113 4.92188 6.25023 3.93066Q8.57933 2.93945 11.2356 2.93945Q13.9114 2.93945 16.2453 3.93555Q18.5793 4.93164 20.3664 6.8457Q20.5032 6.98242 20.6789 6.97754Q20.8547 6.97266 21.0012 6.82617L22.3489 5.47852Q22.4758 5.3418 22.4807 5.19531Q22.4856 5.04883 22.3782 4.92188Q21.2356 3.50586 19.4875 2.39746Q17.7395 1.28906 15.6203 0.649414Q13.5012 0.00976562 11.2356 0.00976562Q8.96996 0.00976562 6.85082 0.644531Q4.73168 1.2793 2.98363 2.39258Q1.23558 3.50586 0.093006 4.92188Q-0.0046503 5.04883 0.000232515 5.19531Q0.00511533 5.3418 0.122303 5.47852Z" fill="#ffffff"/>
 </g>
</svg>
