<?xml version="1.0" encoding="UTF-8"?>
<!--Generator: Apple Native CoreSVG 175.5-->
<!DOCTYPE svg
PUBLIC "-//W3C//DTD SVG 1.1//EN"
       "http://www.w3.org/Graphics/SVG/1.1/DTD/svg11.dtd">
<svg version="1.1" xmlns="http://www.w3.org/2000/svg" xmlns:xlink="http://www.w3.org/1999/xlink" width="20.0508" height="18.916">
 <g>
  <rect height="18.916" opacity="0" width="20.0508" x="0" y="0"/>
  <path d="M0.890625 7.46094Q3 6.78711 5.13867 6.78711Q6.03711 6.78711 6.81348 6.86035Q7.58984 6.93359 8.34668 7.00195Q9.10352 7.07031 9.95312 7.07031Q10.832 7.07031 11.4717 6.70898Q12.1113 6.34766 12.458 5.72754Q12.8047 5.10742 12.8047 4.32617Q12.8047 3.53516 12.4385 2.91504Q12.0723 2.29492 11.4521 1.94824Q10.832 1.60156 10.0801 1.60156Q9.24023 1.60156 8.56641 2.06543Q7.89258 2.5293 7.58008 3.22266Q7.46289 3.4668 7.5166 3.71582Q7.57031 3.96484 7.82422 4.10156Q8.05859 4.21875 8.3125 4.13574Q8.56641 4.05273 8.72266 3.75977Q8.88867 3.38867 9.25488 3.12988Q9.62109 2.87109 10.0801 2.87109Q10.6855 2.87109 11.1055 3.2666Q11.5254 3.66211 11.5254 4.32617Q11.5254 4.99023 11.0957 5.39551Q10.666 5.80078 9.95312 5.80078Q9.14258 5.80078 8.39551 5.72754Q7.64844 5.6543 6.85742 5.58105Q6.06641 5.50781 5.13867 5.50781Q3.9375 5.50781 2.75586 5.70801Q1.57422 5.9082 0.5 6.25Q0.1875 6.33789 0.0703125 6.57227Q-0.046875 6.80664 0.03125 7.06055Q0.0996094 7.31445 0.329102 7.43652Q0.558594 7.55859 0.890625 7.46094ZM16.1641 12.0312Q17.3066 12.0312 18.1807 11.5869Q19.0547 11.1426 19.5527 10.3613Q20.0508 9.58008 20.0508 8.56445Q20.0508 7.56836 19.5869 6.79199Q19.123 6.01562 18.3418 5.57129Q17.5605 5.12695 16.6133 5.12695Q15.7246 5.12695 15.0215 5.50293Q14.3184 5.87891 13.8691 6.52344Q13.4199 7.16797 13.3027 7.97852Q13.2539 8.28125 13.4053 8.50098Q13.5566 8.7207 13.8203 8.75Q14.0938 8.78906 14.3037 8.62793Q14.5137 8.4668 14.5723 8.11523Q14.6602 7.60742 14.9482 7.22168Q15.2363 6.83594 15.666 6.61621Q16.0957 6.39648 16.6133 6.39648Q17.209 6.39648 17.7021 6.6748Q18.1953 6.95312 18.4834 7.44141Q18.7715 7.92969 18.7715 8.56445Q18.7715 9.54102 18.0635 10.1514Q17.3555 10.7617 16.1641 10.7617Q15.0508 10.7617 13.8789 10.5029Q12.707 10.2441 11.4619 9.91211Q10.2168 9.58008 8.87402 9.32129Q7.53125 9.0625 6.06641 9.0625Q4.55273 9.0625 3.1709 9.30176Q1.78906 9.54102 0.5 10Q0.197266 10.0977 0.0751953 10.332Q-0.046875 10.5664 0.03125 10.8203Q0.0996094 11.0742 0.333984 11.2012Q0.568359 11.3281 0.890625 11.2109Q2.08203 10.7617 3.35156 10.5518Q4.62109 10.3418 6.06641 10.3418Q7.52148 10.3418 8.8252 10.5957Q10.1289 10.8496 11.3398 11.1865Q12.5508 11.5234 13.7422 11.7773Q14.9336 12.0312 16.1641 12.0312ZM9.96289 18.916Q10.7148 18.916 11.3203 18.5742Q11.9258 18.2324 12.2773 17.6221Q12.6289 17.0117 12.6289 16.2109Q12.6289 14.4824 10.9102 13.5498Q9.19141 12.6172 5.93945 12.6172Q4.58203 12.6172 3.16113 12.8662Q1.74023 13.1152 0.5 13.5449Q0.197266 13.6426 0.0751953 13.877Q-0.046875 14.1113 0.03125 14.3652Q0.0996094 14.6094 0.333984 14.7412Q0.568359 14.873 0.890625 14.7559Q2.05273 14.3457 3.33691 14.1211Q4.62109 13.8965 5.93945 13.8965Q8.5957 13.8965 9.97754 14.5215Q11.3594 15.1465 11.3594 16.2109Q11.3594 16.8848 10.9492 17.2656Q10.5391 17.6465 9.96289 17.6465Q9.38672 17.6465 9.04004 17.2852Q8.69336 16.9238 8.58594 16.3086Q8.54688 16.0352 8.35645 15.8447Q8.16602 15.6543 7.84375 15.6836Q7.51172 15.7031 7.375 15.9424Q7.23828 16.1816 7.28711 16.4746Q7.41406 17.5 8.12695 18.208Q8.83984 18.916 9.96289 18.916Z" fill="#ffffff"/>
 </g>
</svg>
