<?xml version="1.0" encoding="UTF-8"?>
<!--Generator: Apple Native CoreSVG 175.5-->
<!DOCTYPE svg
PUBLIC "-//W3C//DTD SVG 1.1//EN"
       "http://www.w3.org/Graphics/SVG/1.1/DTD/svg11.dtd">
<svg version="1.1" xmlns="http://www.w3.org/2000/svg" xmlns:xlink="http://www.w3.org/1999/xlink" width="20.0873" height="20.7324">
 <g>
  <rect height="20.7324" opacity="0" width="20.0873" x="0" y="0"/>
  <path d="M1.72821 10.5469L2.25556 6.86523L9.26728 6.86523L9.24774 10.8984L2.03095 10.8984Q1.88446 10.8984 1.79169 10.7959Q1.69892 10.6934 1.72821 10.5469ZM2.45087 5.53711L2.97821 1.875Q3.02704 1.57227 3.28095 1.57227L9.3161 1.57227L9.27704 5.53711ZM10.7419 1.57227L16.8063 1.57227Q17.0602 1.57227 17.1091 1.875L17.6364 5.53711L10.7712 5.53711ZM10.7809 6.86523L17.822 6.86523L18.3591 10.5469Q18.3884 10.6934 18.2907 10.7959Q18.1931 10.8984 18.0466 10.8984L10.8102 10.8984Z" fill="none"/>
  <path d="M1.27899 12.4707L18.8083 12.4707Q19.4626 12.4707 19.819 12.002Q20.1755 11.5332 20.0583 10.7715L18.6813 1.48438Q18.5739 0.820312 18.1931 0.410156Q17.8122 0 17.1188 0L2.96845 0Q2.27509 0 1.88935 0.410156Q1.5036 0.820312 1.40595 1.48438L0.0289948 10.7715Q-0.0881927 11.5332 0.268253 12.002Q0.624698 12.4707 1.27899 12.4707ZM1.72821 10.5469L2.25556 6.86523L9.26728 6.86523L9.24774 10.8984L2.03095 10.8984Q1.88446 10.8984 1.79169 10.7959Q1.69892 10.6934 1.72821 10.5469ZM2.45087 5.53711L2.97821 1.875Q3.02704 1.57227 3.28095 1.57227L9.3161 1.57227L9.27704 5.53711ZM10.7419 1.57227L16.8063 1.57227Q17.0602 1.57227 17.1091 1.875L17.6364 5.53711L10.7712 5.53711ZM10.7809 6.86523L17.822 6.86523L18.3591 10.5469Q18.3884 10.6934 18.2907 10.7959Q18.1931 10.8984 18.0466 10.8984L10.8102 10.8984ZM1.31806 11.6699L1.31806 19.9121L2.89032 19.9121L2.89032 11.6699ZM17.0407 11.6699L17.0407 19.9121L18.613 19.9121L18.613 11.6699ZM0.0094636 19.9121Q0.0094636 20.2441 0.248721 20.4834Q0.487979 20.7227 0.82001 20.7227L19.1403 20.7227Q19.4724 20.7227 19.7116 20.4834Q19.9509 20.2441 19.9509 19.9121Q19.9509 19.5801 19.7116 19.3408Q19.4724 19.1016 19.1403 19.1016L0.82001 19.1016Q0.487979 19.1016 0.248721 19.3408Q0.0094636 19.5801 0.0094636 19.9121Z" fill="#ffffff"/>
 </g>
</svg>
