<?xml version="1.0" encoding="UTF-8"?>
<!--Generator: Apple Native CoreSVG 175-->
<!DOCTYPE svg
PUBLIC "-//W3C//DTD SVG 1.1//EN"
       "http://www.w3.org/Graphics/SVG/1.1/DTD/svg11.dtd">
<svg version="1.1" xmlns="http://www.w3.org/2000/svg" xmlns:xlink="http://www.w3.org/1999/xlink" width="19.7843" height="17.5378">
 <g>
  <rect height="17.5378" opacity="0" width="19.7843" x="0" y="0"/>
  <path d="M0.462399 6.60309Q2.49441 5.73944 4.7315 5.73944Q5.76361 5.73944 6.5962 5.83374Q7.4288 5.92804 8.23484 6.01753Q9.04089 6.10703 10.0031 6.10703Q10.7624 6.10703 11.3318 5.79491Q11.9012 5.48279 12.2232 4.93301Q12.5452 4.38324 12.5452 3.6792Q12.5452 3.00781 12.2317 2.45796Q11.9182 1.90811 11.379 1.58607Q10.8397 1.26404 10.1581 1.26404Q9.24795 1.26404 8.59877 1.81229Q7.94958 2.36053 7.78463 3.13828Q7.74481 3.284 7.81256 3.39233Q7.88031 3.50067 8.02176 3.53195Q8.14367 3.55774 8.24293 3.49236Q8.34219 3.42697 8.38583 3.29559Q8.51675 2.72064 8.99893 2.31422Q9.48111 1.90781 10.1581 1.90781Q10.9113 1.90781 11.405 2.42287Q11.8987 2.93793 11.8987 3.6792Q11.8987 4.47693 11.3776 4.97009Q10.8565 5.46326 10.0031 5.46326Q9.04486 5.46326 8.2556 5.37247Q7.46634 5.28168 6.63664 5.19081Q5.80694 5.09995 4.7315 5.09995Q3.55856 5.09995 2.40149 5.34233Q1.24441 5.58472 0.219479 6.02493Q0.0757412 6.07773 0.0253109 6.19606Q-0.0251194 6.31439 0.0249294 6.4418Q0.0652126 6.56204 0.185681 6.61034Q0.306149 6.65863 0.462399 6.60309ZM16.1437 10.8218Q17.2581 10.8218 18.0758 10.4197Q18.8936 10.0175 19.339 9.30664Q19.7843 8.59573 19.7843 7.67151Q19.7843 6.80191 19.3696 6.09238Q18.955 5.38284 18.2511 4.96307Q17.5472 4.5433 16.6843 4.5433Q15.8307 4.5433 15.1558 4.93332Q14.4808 5.32333 14.0632 5.97496Q13.6457 6.62659 13.5706 7.40891Q13.5569 7.56409 13.645 7.66777Q13.7331 7.77145 13.8703 7.77969Q14.003 7.78351 14.1005 7.70325Q14.1979 7.62299 14.2144 7.46826Q14.2742 6.84799 14.608 6.33217Q14.9418 5.81635 15.4769 5.50171Q16.012 5.18707 16.6843 5.18707Q17.3714 5.18707 17.9313 5.52162Q18.4913 5.85617 18.818 6.4183Q19.1448 6.98044 19.1448 7.67151Q19.1448 8.78159 18.3419 9.47983Q17.539 10.1781 16.1437 10.1781Q14.9811 10.1781 13.7777 9.92279Q12.5742 9.66751 11.3009 9.33197Q10.0277 8.99643 8.66377 8.74115Q7.29986 8.48587 5.81396 8.48587Q4.23697 8.48587 2.86924 8.76381Q1.50152 9.04175 0.219479 9.55002Q0.0855068 9.59839 0.0301937 9.72382Q-0.0251194 9.84924 0.0249294 9.96948Q0.0652126 10.0969 0.187054 10.1465Q0.308895 10.1961 0.448361 10.1352Q1.65381 9.57336 2.97255 9.34937Q4.29129 9.12537 5.81396 9.12537Q7.26904 9.12537 8.60792 9.38278Q9.9468 9.6402 11.207 9.97711Q12.4671 10.314 13.6902 10.5679Q14.9132 10.8218 16.1437 10.8218ZM10.0339 17.5378Q10.6945 17.5378 11.2226 17.2277Q11.7507 16.9176 12.0601 16.3776Q12.3694 15.8376 12.3694 15.1422Q12.3694 13.5683 10.7316 12.72Q9.09369 11.8718 6.06665 11.8718Q4.57571 11.8718 3.03877 12.17Q1.50183 12.4683 0.233517 12.9332Q0.0855068 12.9816 0.0301937 13.107Q-0.0251194 13.2324 0.0249294 13.3527Q0.0652126 13.4703 0.187054 13.5283Q0.308895 13.5863 0.448361 13.5324Q1.68783 13.0449 3.16183 12.7781Q4.63583 12.5113 6.06665 12.5113Q8.79324 12.5113 10.2595 13.2101Q11.7257 13.909 11.7257 15.1422Q11.7257 15.9145 11.2417 16.4043Q10.7577 16.8941 10.0339 16.8941Q9.3453 16.8941 8.88258 16.487Q8.41986 16.08 8.31945 15.3453Q8.30145 15.2054 8.20242 15.1064Q8.10339 15.0073 7.95691 15.0156Q7.79364 15.0211 7.71315 15.1408Q7.63266 15.2605 7.66043 15.4059Q7.78036 16.382 8.43 16.9599Q9.07965 17.5378 10.0339 17.5378Z" fill="rgba(0,0,0,0.85)"/>
 </g>
</svg>
