<?xml version="1.0" encoding="UTF-8"?>
<!--Generator: Apple Native CoreSVG 175.5-->
<!DOCTYPE svg
PUBLIC "-//W3C//DTD SVG 1.1//EN"
       "http://www.w3.org/Graphics/SVG/1.1/DTD/svg11.dtd">
<svg version="1.1" xmlns="http://www.w3.org/2000/svg" xmlns:xlink="http://www.w3.org/1999/xlink" width="21.3236" height="19.3457">
 <g>
  <rect height="19.3457" opacity="0" width="21.3236" x="0" y="0"/>
  <path d="M1.67254 17.168L3.5866 10.3223L9.65105 10.3223L7.57097 17.7637L2.15105 17.7637Q1.84832 17.7637 1.72136 17.6123Q1.59441 17.4609 1.67254 17.168ZM4.00652 8.76953L5.84246 2.2168Q5.92058 1.91406 6.11101 1.75781Q6.30144 1.60156 6.59441 1.60156L12.0827 1.60156L10.0807 8.76953ZM9.19207 17.7637L11.2624 10.3223L17.3854 10.3223L15.4811 17.1484Q15.403 17.4414 15.2126 17.6025Q15.0221 17.7637 14.7292 17.7637ZM11.6823 8.76953L13.694 1.60156L19.1725 1.60156Q19.4753 1.60156 19.6022 1.75293Q19.7292 1.9043 19.6511 2.19727L17.8151 8.76953Z" fill="none"/>
  <path d="M1.84832 19.3457L15.071 19.3457Q15.7741 19.3457 16.238 18.9746Q16.7018 18.6035 16.8776 17.9492L21.2136 2.33398Q21.4089 1.64062 21.2575 1.11816Q21.1061 0.595703 20.6471 0.307617Q20.1882 0.0195312 19.4753 0.0195312L6.25261 0.0195312Q5.54949 0.0195312 5.08562 0.390625Q4.62175 0.761719 4.44597 1.40625L0.110035 17.0312Q-0.0852773 17.7246 0.0660899 18.2471Q0.217457 18.7695 0.676441 19.0576Q1.13543 19.3457 1.84832 19.3457ZM1.67254 17.168L3.5866 10.3223L9.65105 10.3223L7.57097 17.7637L2.15105 17.7637Q1.84832 17.7637 1.72136 17.6123Q1.59441 17.4609 1.67254 17.168ZM4.00652 8.76953L5.84246 2.2168Q5.92058 1.91406 6.11101 1.75781Q6.30144 1.60156 6.59441 1.60156L12.0827 1.60156L10.0807 8.76953ZM9.19207 17.7637L11.2624 10.3223L17.3854 10.3223L15.4811 17.1484Q15.403 17.4414 15.2126 17.6025Q15.0221 17.7637 14.7292 17.7637ZM11.6823 8.76953L13.694 1.60156L19.1725 1.60156Q19.4753 1.60156 19.6022 1.75293Q19.7292 1.9043 19.6511 2.19727L17.8151 8.76953Z" fill="#ffffff"/>
 </g>
</svg>
