<?xml version="1.0" encoding="UTF-8"?>
<!--Generator: Apple Native CoreSVG 175.5-->
<!DOCTYPE svg
PUBLIC "-//W3C//DTD SVG 1.1//EN"
       "http://www.w3.org/Graphics/SVG/1.1/DTD/svg11.dtd">
<svg version="1.1" xmlns="http://www.w3.org/2000/svg" xmlns:xlink="http://www.w3.org/1999/xlink" width="17.9785" height="17.998">
 <g>
  <rect height="17.998" opacity="0" width="17.9785" x="0" y="0"/>
  <path d="M3.06641 17.998L14.9121 17.998Q16.4453 17.998 17.2119 17.2412Q17.9785 16.4844 17.9785 14.9707L17.9785 3.04688Q17.9785 1.5332 17.2119 0.776367Q16.4453 0.0195312 14.9121 0.0195312L3.06641 0.0195312Q1.5332 0.0195312 0.766602 0.776367Q0 1.5332 0 3.04688L0 14.9707Q0 16.4844 0.766602 17.2412Q1.5332 17.998 3.06641 17.998Z" fill="#ffffff"/>
  <path d="M4.66797 8.79883Q4.66797 8.58398 4.80957 8.44238Q4.95117 8.30078 5.16602 8.30078L5.61523 8.30078L5.12695 5.15625Q5.10742 5.07812 5.09277 5.00488Q5.07812 4.93164 5.07812 4.84375Q5.07812 4.57031 5.26367 4.41406Q5.44922 4.25781 5.73242 4.25781Q5.9668 4.25781 6.15234 4.39453Q6.33789 4.53125 6.36719 4.79492L6.80664 8.30078L7.65625 8.30078L8.23242 4.92188Q8.28125 4.59961 8.49121 4.42871Q8.70117 4.25781 8.98438 4.25781Q9.26758 4.25781 9.4873 4.42871Q9.70703 4.59961 9.75586 4.91211L10.3223 8.29102L11.2109 8.29102L11.6602 4.78516Q11.6895 4.52148 11.875 4.38477Q12.0605 4.24805 12.2949 4.24805Q12.5684 4.24805 12.7441 4.39941Q12.9199 4.55078 12.9199 4.81445Q12.9199 4.90234 12.9102 4.96582Q12.9004 5.0293 12.8906 5.10742L12.3926 8.29102L12.8223 8.29102Q13.0469 8.29102 13.1836 8.43262Q13.3203 8.57422 13.3203 8.78906Q13.3203 8.99414 13.1836 9.14551Q13.0469 9.29688 12.8223 9.29688L12.2266 9.29688L11.5918 13.3691Q11.543 13.6719 11.3428 13.833Q11.1426 13.9941 10.8691 13.9941Q10.5957 13.9941 10.3955 13.8379Q10.1953 13.6816 10.1465 13.3789L9.44336 9.29688L8.54492 9.29688L7.87109 13.3789Q7.82227 13.6914 7.62207 13.8428Q7.42188 13.9941 7.14844 13.9941Q6.875 13.9941 6.6748 13.833Q6.47461 13.6719 6.42578 13.3691L5.78125 9.30664L5.16602 9.30664Q4.95117 9.30664 4.80957 9.15527Q4.66797 9.00391 4.66797 8.79883ZM6.93359 9.28711L7.17773 11.6504L7.51953 9.28711ZM8.7207 8.30078L9.29688 8.30078L9.00391 6.32812ZM10.4785 9.28711L10.8398 11.709L11.1035 9.28711Z" fill="none"/>
 </g>
</svg>
