<?xml version="1.0" encoding="UTF-8"?>
<!--Generator: Apple Native CoreSVG 175.5-->
<!DOCTYPE svg
PUBLIC "-//W3C//DTD SVG 1.1//EN"
       "http://www.w3.org/Graphics/SVG/1.1/DTD/svg11.dtd">
<svg version="1.1" xmlns="http://www.w3.org/2000/svg" xmlns:xlink="http://www.w3.org/1999/xlink" width="22.7226" height="23.314">
 <g>
  <rect height="23.314" opacity="0" width="22.7226" x="0" y="0"/>
  <path d="M1.20219 22.1111Q2.00297 22.9119 3.00395 23.1853Q4.00492 23.4588 5.00102 23.1511Q5.99711 22.8435 6.78813 21.8963Q7.13969 21.4763 7.6768 20.7097Q8.21391 19.9431 8.89262 18.9763Q9.57133 18.0095 10.3282 16.9744Q11.085 15.9392 11.8663 14.9675Q12.6475 13.9959 13.4092 13.2439Q14.0342 12.6091 14.6934 12.3845Q15.3526 12.1599 16.0362 12.1209Q16.7198 12.0818 17.4131 12.0281Q18.1065 11.9744 18.8096 11.6912L17.1495 5.63649Q17.003 5.07008 17.2325 4.63551Q17.462 4.20094 18.1163 4.02516L21.7784 3.0486Q21.6905 2.79469 21.4659 2.46754Q21.2413 2.1404 20.9385 1.8279Q20.0889 0.958755 19.0196 0.514419Q17.9502 0.0700827 16.8174 0.0505515Q15.6846 0.0310202 14.6202 0.416762Q13.5557 0.802505 12.7256 1.59352Q11.9151 2.37477 11.5196 3.15114Q11.1241 3.9275 10.9922 4.69899Q10.8604 5.47047 10.8506 6.20778Q10.8409 6.94508 10.8018 7.63356Q10.7627 8.32204 10.5528 8.94215Q10.3428 9.56227 9.8057 10.0994Q8.79985 11.1052 7.6475 11.9841Q6.49516 12.8631 5.3477 13.6443Q4.20024 14.4256 3.17973 15.1384Q2.15922 15.8513 1.41703 16.5154Q0.489299 17.3357 0.171916 18.3269Q-0.145467 19.3181 0.123088 20.3093Q0.391642 21.3006 1.20219 22.1111ZM3.96586 20.5486Q3.46781 20.5486 3.11137 20.197Q2.75492 19.8455 2.75492 19.3474Q2.75492 18.8494 3.11137 18.4929Q3.46781 18.1365 3.96586 18.1365Q4.46391 18.1365 4.81547 18.4929Q5.16703 18.8494 5.16703 19.3474Q5.16703 19.8455 4.81547 20.197Q4.46391 20.5486 3.96586 20.5486ZM13.1455 7.50172Q12.9893 7.54079 12.8575 7.46754Q12.7256 7.3943 12.6768 7.21852Q12.628 7.09157 12.711 6.95485Q12.794 6.81813 12.9405 6.7693L15.2256 6.15407Q15.3623 6.115 15.4991 6.19313Q15.6358 6.27125 15.6748 6.4275Q15.7334 6.59352 15.6455 6.72536Q15.5577 6.85719 15.4112 6.90602ZM13.4385 8.66383Q13.087 8.76149 12.96 8.38063Q12.9209 8.25368 12.9991 8.11696Q13.0772 7.98024 13.2334 7.94118L15.5088 7.31618Q15.6553 7.28688 15.792 7.36012Q15.9288 7.43336 15.9678 7.58961Q16.0166 7.75563 15.9336 7.88747Q15.8506 8.0193 15.6944 8.06813ZM13.7217 9.82594Q13.5655 9.87477 13.4288 9.79665Q13.292 9.71852 13.2627 9.54274Q13.1748 9.20094 13.5362 9.10329L15.8018 8.49782Q15.958 8.44899 16.0948 8.52711Q16.2315 8.60524 16.2608 8.75172Q16.2998 8.89821 16.2217 9.03981Q16.1436 9.18141 16.0069 9.21071ZM19.8838 11.2224Q20.167 11.0564 20.46 10.8318Q20.753 10.6072 21.0557 10.324Q21.9834 9.48415 22.418 8.3611Q22.8526 7.23805 22.667 6.33961L19.708 7.15016Q19.4639 7.21852 19.2442 7.23317Q19.0245 7.24782 18.7901 7.20875Z" fill="#ffffff"/>
 </g>
</svg>
