<?xml version="1.0" encoding="UTF-8"?>
<!--Generator: Apple Native CoreSVG 175-->
<!DOCTYPE svg
PUBLIC "-//W3C//DTD SVG 1.1//EN"
       "http://www.w3.org/Graphics/SVG/1.1/DTD/svg11.dtd">
<svg version="1.1" xmlns="http://www.w3.org/2000/svg" xmlns:xlink="http://www.w3.org/1999/xlink" width="19.1602" height="19.1504">
 <g>
  <rect height="19.1504" opacity="0" width="19.1602" x="0" y="0"/>
  <path d="M9.57031 19.1406Q11.5527 19.1406 13.2861 18.3984Q15.0195 17.6562 16.3379 16.333Q17.6562 15.0098 18.4082 13.2764Q19.1602 11.543 19.1602 9.57031Q19.1602 7.59766 18.4082 5.86426Q17.6562 4.13086 16.3379 2.80762Q15.0195 1.48438 13.2861 0.742188Q11.5527 0 9.57031 0Q7.59766 0 5.86426 0.742188Q4.13086 1.48438 2.81738 2.80762Q1.50391 4.13086 0.751953 5.86426Q0 7.59766 0 9.57031Q0 11.543 0.74707 13.2764Q1.49414 15.0098 2.8125 16.333Q4.13086 17.6562 5.86914 18.3984Q7.60742 19.1406 9.57031 19.1406ZM6.75781 13.9941Q6.5918 13.9941 6.49414 13.9014Q6.39648 13.8086 6.39648 13.6719Q6.39648 13.5547 6.48438 13.4277L9.12109 9.55078L6.54297 5.74219Q6.44531 5.5957 6.44531 5.47852Q6.44531 5.32227 6.55273 5.22461Q6.66016 5.12695 6.80664 5.12695Q6.93359 5.12695 7.01172 5.17578Q7.08984 5.22461 7.1582 5.33203L9.56055 8.96484L9.60938 8.96484L12.0312 5.3418Q12.0898 5.22461 12.1729 5.17578Q12.2559 5.12695 12.3633 5.12695Q12.5195 5.12695 12.6221 5.21973Q12.7246 5.3125 12.7246 5.44922Q12.7246 5.56641 12.627 5.70312L10 9.56055L12.5977 13.3887Q12.6855 13.5254 12.6855 13.6426Q12.6855 13.7988 12.5879 13.8965Q12.4902 13.9941 12.334 13.9941Q12.2168 13.9941 12.1338 13.9453Q12.0508 13.8965 11.9824 13.7793L9.57031 10.1562L9.52148 10.1562L7.09961 13.7793Q7.02148 13.8965 6.94824 13.9453Q6.875 13.9941 6.75781 13.9941Z" fill="#ffffff"/>
 </g>
</svg>
