<?xml version="1.0" encoding="UTF-8"?>
<!--Generator: Apple Native CoreSVG 175.5-->
<!DOCTYPE svg
PUBLIC "-//W3C//DTD SVG 1.1//EN"
       "http://www.w3.org/Graphics/SVG/1.1/DTD/svg11.dtd">
<svg version="1.1" xmlns="http://www.w3.org/2000/svg" xmlns:xlink="http://www.w3.org/1999/xlink" width="19.9219" height="19.9316">
 <g>
  <rect height="19.9316" opacity="0" width="19.9219" x="0" y="0"/>
  <path d="M9.96094 19.9219Q12.002 19.9219 13.8037 19.1406Q15.6055 18.3594 16.9824 16.9824Q18.3594 15.6055 19.1406 13.8037Q19.9219 12.002 19.9219 9.96094Q19.9219 7.91992 19.1406 6.11816Q18.3594 4.31641 16.9824 2.93945Q15.6055 1.5625 13.7988 0.78125Q11.9922 0 9.95117 0Q7.91016 0 6.1084 0.78125Q4.30664 1.5625 2.93457 2.93945Q1.5625 4.31641 0.78125 6.11816Q0 7.91992 0 9.96094Q0 12.002 0.78125 13.8037Q1.5625 15.6055 2.93945 16.9824Q4.31641 18.3594 6.11816 19.1406Q7.91992 19.9219 9.96094 19.9219Z" fill="#ffffff"/>
  <path d="M6.96289 14.5801Q6.65039 14.5801 6.43555 14.375Q6.2207 14.1699 6.2207 13.877Q6.2207 13.6035 6.39648 13.3496L8.95508 9.81445L6.54297 6.49414Q6.32812 6.20117 6.32812 5.9082Q6.32812 5.5957 6.5625 5.37598Q6.79688 5.15625 7.11914 5.15625Q7.37305 5.15625 7.54395 5.25879Q7.71484 5.36133 7.89062 5.60547L10.0293 8.71094L10.0781 8.71094L12.1875 5.61523Q12.3438 5.36133 12.5146 5.25879Q12.6855 5.15625 12.9199 5.15625Q13.2422 5.15625 13.4619 5.36133Q13.6816 5.56641 13.6816 5.86914Q13.6816 6.15234 13.4863 6.40625L10.9473 9.86328L13.4668 13.3105Q13.6621 13.5547 13.6621 13.8379Q13.6621 14.1699 13.4375 14.375Q13.2129 14.5801 12.8613 14.5801Q12.627 14.5801 12.4658 14.4775Q12.3047 14.375 12.1094 14.1113L9.94141 11.0156L9.90234 11.0156L7.72461 14.1113Q7.5293 14.375 7.37305 14.4775Q7.2168 14.5801 6.96289 14.5801Z" fill="none"/>
 </g>
</svg>
