<?xml version="1.0" encoding="UTF-8"?>
<!--Generator: Apple Native CoreSVG 175-->
<!DOCTYPE svg
PUBLIC "-//W3C//DTD SVG 1.1//EN"
       "http://www.w3.org/Graphics/SVG/1.1/DTD/svg11.dtd">
<svg version="1.1" xmlns="http://www.w3.org/2000/svg" xmlns:xlink="http://www.w3.org/1999/xlink" width="16.945" height="15.7053">
 <g>
  <rect height="15.7053" opacity="0" width="16.945" x="0" y="0"/>
  <path d="M2.76611 15.385Q3.03055 15.385 3.1794 15.2295Q3.32825 15.074 3.40668 14.8497L7.5267 0.746918L16.5489 0.746918Q16.7229 0.746918 16.834 0.64476Q16.945 0.542603 16.945 0.374298Q16.945 0.201569 16.834 0.100784Q16.7229 0 16.5489 0L7.49313 0Q7.22198 0 7.05772 0.110168Q6.89346 0.220337 6.81763 0.47821L2.81021 14.274L2.7356 14.274L0.773163 7.46185Q0.726166 7.2934 0.631638 7.21413Q0.537109 7.13486 0.39917 7.13486Q0.219574 7.13486 0.109787 7.23976Q0 7.34467 0 7.49939Q0 7.56851 0.0187683 7.63Q0.0375366 7.6915 0.0598145 7.77084L2.16522 14.9008Q2.24533 15.1451 2.39082 15.265Q2.53632 15.385 2.76611 15.385ZM9.44534 13.7935Q9.56848 13.7935 9.64584 13.7409Q9.72321 13.6884 9.80164 13.5739L12.2568 9.90875L12.3099 9.90875L14.7383 13.5739Q14.8196 13.6884 14.8991 13.7409Q14.9786 13.7935 15.1086 13.7935Q15.2661 13.7935 15.3696 13.6919Q15.4732 13.5904 15.4732 13.4314Q15.4732 13.3087 15.3833 13.1715L12.7541 9.29428L15.4169 5.39032Q15.5095 5.25055 15.5095 5.13062Q15.5095 4.99115 15.4052 4.89441Q15.3009 4.79767 15.1392 4.79767Q15.0189 4.79767 14.9402 4.84749Q14.8615 4.89731 14.7813 5.01617L12.3466 8.67981L12.2978 8.67981L9.87198 5.01343Q9.79187 4.89731 9.71321 4.84749Q9.63455 4.79767 9.50165 4.79767Q9.34692 4.79767 9.24072 4.89983Q9.13452 5.00198 9.13452 5.16266Q9.13452 5.28366 9.22821 5.42908L11.8387 9.28757L9.17038 13.2021Q9.08325 13.3435 9.08325 13.4564Q9.08325 13.6029 9.1848 13.6982Q9.28635 13.7935 9.44534 13.7935Z" fill="#ffffff"/>
 </g>
</svg>
