<?xml version="1.0" encoding="UTF-8"?>
<!--Generator: Apple Native CoreSVG 175.5-->
<!DOCTYPE svg
PUBLIC "-//W3C//DTD SVG 1.1//EN"
       "http://www.w3.org/Graphics/SVG/1.1/DTD/svg11.dtd">
<svg version="1.1" xmlns="http://www.w3.org/2000/svg" xmlns:xlink="http://www.w3.org/1999/xlink" width="17.9785" height="17.998">
 <g>
  <rect height="17.998" opacity="0" width="17.9785" x="0" y="0"/>
  <path d="M3.06641 17.998L14.9121 17.998Q16.4453 17.998 17.2119 17.2412Q17.9785 16.4844 17.9785 14.9707L17.9785 3.04688Q17.9785 1.5332 17.2119 0.776367Q16.4453 0.0195312 14.9121 0.0195312L3.06641 0.0195312Q1.5332 0.0195312 0.766602 0.776367Q0 1.5332 0 3.04688L0 14.9707Q0 16.4844 0.766602 17.2412Q1.5332 17.998 3.06641 17.998Z" fill="#ffffff"/>
  <path d="M5.99609 13.6133Q5.68359 13.6133 5.46875 13.4082Q5.25391 13.2031 5.25391 12.9102Q5.25391 12.6367 5.42969 12.3828L7.98828 8.84766L5.57617 5.52734Q5.36133 5.23438 5.36133 4.94141Q5.36133 4.62891 5.5957 4.40918Q5.83008 4.18945 6.15234 4.18945Q6.40625 4.18945 6.57715 4.29199Q6.74805 4.39453 6.92383 4.63867L9.0625 7.74414L9.11133 7.74414L11.2207 4.64844Q11.377 4.39453 11.5479 4.29199Q11.7188 4.18945 11.9531 4.18945Q12.2754 4.18945 12.4951 4.39453Q12.7148 4.59961 12.7148 4.90234Q12.7148 5.18555 12.5195 5.43945L9.98047 8.89648L12.5 12.3438Q12.6953 12.5879 12.6953 12.8711Q12.6953 13.2031 12.4707 13.4082Q12.2461 13.6133 11.8945 13.6133Q11.6602 13.6133 11.499 13.5107Q11.3379 13.4082 11.1426 13.1445L8.97461 10.0488L8.93555 10.0488L6.75781 13.1445Q6.5625 13.4082 6.40625 13.5107Q6.25 13.6133 5.99609 13.6133Z" fill="none"/>
 </g>
</svg>
