<?xml version="1.0" encoding="UTF-8"?>
<!--Generator: Apple Native CoreSVG 175-->
<!DOCTYPE svg
PUBLIC "-//W3C//DTD SVG 1.1//EN"
       "http://www.w3.org/Graphics/SVG/1.1/DTD/svg11.dtd">
<svg version="1.1" xmlns="http://www.w3.org/2000/svg" xmlns:xlink="http://www.w3.org/1999/xlink" width="14.8383" height="14.8694">
 <g>
  <rect height="14.8694" opacity="0" width="14.8383" x="0" y="0"/>
  <path d="M0.115345 14.754Q0.192707 14.8287 0.287236 14.8556Q0.381764 14.8825 0.479878 14.8556Q0.577992 14.8287 0.652607 14.754L7.42278 7.99073L14.1861 14.754Q14.2607 14.8287 14.3587 14.8556Q14.4568 14.8825 14.5527 14.857Q14.6486 14.8314 14.7232 14.754Q14.7978 14.6794 14.8234 14.5849Q14.8491 14.4904 14.8234 14.3923Q14.7978 14.2943 14.7232 14.2197L7.96004 7.45362L14.7232 0.683298Q14.7978 0.608682 14.8248 0.510644Q14.8518 0.412607 14.8248 0.318078Q14.7978 0.22355 14.7232 0.148935Q14.6458 0.0715727 14.5513 0.0460142Q14.4568 0.0204558 14.3587 0.0460142Q14.2607 0.0715727 14.1861 0.148935L7.42278 6.91224L0.652607 0.148935Q0.577992 0.0715727 0.478581 0.0460142Q0.37917 0.0204558 0.284565 0.0460142Q0.189961 0.0715727 0.115345 0.148935Q0.0407299 0.22355 0.0151714 0.318078Q-0.010387 0.412607 0.0151714 0.510644Q0.0407299 0.608682 0.115345 0.683298L6.87865 7.45362L0.115345 14.2197Q0.0407299 14.2943 0.0137981 14.3923Q-0.0131336 14.4904 0.0125011 14.5849Q0.0381359 14.6794 0.115345 14.754Z" fill="#ffffff"/>
 </g>
</svg>
