<?xml version="1.0" encoding="UTF-8"?>
<!--Generator: Apple Native CoreSVG 175.5-->
<!DOCTYPE svg
PUBLIC "-//W3C//DTD SVG 1.1//EN"
       "http://www.w3.org/Graphics/SVG/1.1/DTD/svg11.dtd">
<svg version="1.1" xmlns="http://www.w3.org/2000/svg" xmlns:xlink="http://www.w3.org/1999/xlink" width="17.9785" height="17.998">
 <g>
  <rect height="17.998" opacity="0" width="17.9785" x="0" y="0"/>
  <path d="M3.06641 17.998L14.9121 17.998Q16.4453 17.998 17.2119 17.2412Q17.9785 16.4844 17.9785 14.9707L17.9785 3.04688Q17.9785 1.5332 17.2119 0.776367Q16.4453 0.0195312 14.9121 0.0195312L3.06641 0.0195312Q1.5332 0.0195312 0.766602 0.776367Q0 1.5332 0 3.04688L0 14.9707Q0 16.4844 0.766602 17.2412Q1.5332 17.998 3.06641 17.998ZM3.08594 16.4258Q2.35352 16.4258 1.96289 16.04Q1.57227 15.6543 1.57227 14.8926L1.57227 3.125Q1.57227 2.36328 1.96289 1.97754Q2.35352 1.5918 3.08594 1.5918L14.8926 1.5918Q15.6152 1.5918 16.0107 1.97754Q16.4062 2.36328 16.4062 3.125L16.4062 14.8926Q16.4062 15.6543 16.0107 16.04Q15.6152 16.4258 14.8926 16.4258Z" fill="#ffffff"/>
  <path d="M5.66406 13.125Q6.00586 13.125 6.23047 12.8809L8.99414 10.1074L11.7773 12.8809Q12.0117 13.125 12.334 13.125Q12.6562 13.125 12.8857 12.8906Q13.1152 12.6562 13.1152 12.334Q13.1152 12.0117 12.8809 11.7773L10.1074 9.00391L12.8906 6.21094Q13.125 5.97656 13.125 5.66406Q13.125 5.3418 12.8955 5.1123Q12.666 4.88281 12.3438 4.88281Q12.041 4.88281 11.8066 5.12695L8.99414 7.91016L6.21094 5.13672Q5.99609 4.90234 5.66406 4.90234Q5.3418 4.90234 5.1123 5.12695Q4.88281 5.35156 4.88281 5.67383Q4.88281 5.99609 5.11719 6.2207L7.89062 9.00391L5.11719 11.7871Q4.88281 12.0117 4.88281 12.334Q4.88281 12.6562 5.1123 12.8906Q5.3418 13.125 5.66406 13.125Z" fill="#ffffff"/>
 </g>
</svg>
