<?xml version="1.0" encoding="UTF-8"?>
<!--Generator: Apple Native CoreSVG 175.5-->
<!DOCTYPE svg
PUBLIC "-//W3C//DTD SVG 1.1//EN"
       "http://www.w3.org/Graphics/SVG/1.1/DTD/svg11.dtd">
<svg version="1.1" xmlns="http://www.w3.org/2000/svg" xmlns:xlink="http://www.w3.org/1999/xlink" width="17.7734" height="17.7832">
 <g>
  <rect height="17.7832" opacity="0" width="17.7734" x="0" y="0"/>
  <path d="M16.6309 1.15234Q15.8789 0.400391 14.8438 0.200195Q13.8086 0 12.5586 0L5.18555 0Q3.95508 0 2.9248 0.200195Q1.89453 0.400391 1.14258 1.15234Q0.400391 1.89453 0.200195 2.91992Q0 3.94531 0 5.17578L0 12.5586Q0 13.8086 0.195312 14.8389Q0.390625 15.8691 1.14258 16.6113Q1.89453 17.3633 2.9248 17.5635Q3.95508 17.7637 5.20508 17.7637L12.5586 17.7637Q13.8086 17.7637 14.8438 17.5635Q15.8789 17.3633 16.6309 16.6113Q17.373 15.8691 17.5732 14.8389Q17.7734 13.8086 17.7734 12.5586L17.7734 5.20508Q17.7734 3.95508 17.5732 2.9248Q17.373 1.89453 16.6309 1.15234Z" fill="#ffffff"/>
  <path d="M5.60547 12.9883Q5.27344 12.9883 5.03906 12.749Q4.80469 12.5098 4.80469 12.1777Q4.80469 11.8457 5.03906 11.6113L7.75391 8.89648L5.03906 6.19141Q4.80469 5.94727 4.80469 5.625Q4.80469 5.2832 5.03906 5.05371Q5.27344 4.82422 5.60547 4.82422Q5.92773 4.82422 6.17188 5.04883L8.89648 7.76367L11.6406 5.03906Q11.875 4.80469 12.1973 4.80469Q12.5293 4.80469 12.7637 5.03906Q12.998 5.27344 12.998 5.60547Q12.998 5.9375 12.7637 6.18164L10.0391 8.89648L12.7539 11.6016Q12.9883 11.8164 12.9883 12.1777Q12.9883 12.5098 12.7539 12.749Q12.5195 12.9883 12.1777 12.9883Q11.8262 12.9883 11.6016 12.7539L8.89648 10.0391L6.20117 12.7539Q5.95703 12.9883 5.60547 12.9883Z" fill="none"/>
 </g>
</svg>
