<?xml version="1.0" encoding="UTF-8"?>
<!--Generator: Apple Native CoreSVG 175.5-->
<!DOCTYPE svg
PUBLIC "-//W3C//DTD SVG 1.1//EN"
       "http://www.w3.org/Graphics/SVG/1.1/DTD/svg11.dtd">
<svg version="1.1" xmlns="http://www.w3.org/2000/svg" xmlns:xlink="http://www.w3.org/1999/xlink" width="19.9219" height="19.9902">
 <g>
  <rect height="19.9902" opacity="0" width="19.9219" x="0" y="0"/>
  <path d="M9.96094 19.9902Q12.002 19.9902 13.8037 19.209Q15.6055 18.4277 16.9824 17.0508Q18.3594 15.6738 19.1406 13.8721Q19.9219 12.0703 19.9219 10.0293Q19.9219 7.98828 19.1406 6.18652Q18.3594 4.38477 16.9824 3.00781Q15.6055 1.63086 13.7988 0.849609Q11.9922 0.0683594 9.95117 0.0683594Q7.91016 0.0683594 6.1084 0.849609Q4.30664 1.63086 2.93457 3.00781Q1.5625 4.38477 0.78125 6.18652Q0 7.98828 0 10.0293Q0 12.0703 0.78125 13.8721Q1.5625 15.6738 2.93945 17.0508Q4.31641 18.4277 6.11816 19.209Q7.91992 19.9902 9.96094 19.9902ZM9.96094 18.3301Q8.23242 18.3301 6.72852 17.6855Q5.22461 17.041 4.08691 15.9033Q2.94922 14.7656 2.30957 13.2617Q1.66992 11.7578 1.66992 10.0293Q1.66992 8.30078 2.30957 6.79688Q2.94922 5.29297 4.08203 4.15039Q5.21484 3.00781 6.71875 2.36816Q8.22266 1.72852 9.95117 1.72852Q11.6797 1.72852 13.1885 2.36816Q14.6973 3.00781 15.835 4.15039Q16.9727 5.29297 17.6172 6.79688Q18.2617 8.30078 18.2617 10.0293Q18.2617 11.7578 17.6221 13.2617Q16.9824 14.7656 15.8398 15.9033Q14.6973 17.041 13.1934 17.6855Q11.6895 18.3301 9.96094 18.3301Z" fill="#ffffff"/>
  <path d="M7.23633 15.4785L12.666 15.4785Q13.4277 15.4785 13.7793 15.083Q14.1309 14.6875 14.2383 13.9258L14.9414 9.0918L4.9707 9.0918L5.66406 13.9258Q5.77148 14.6875 6.12305 15.083Q6.47461 15.4785 7.23633 15.4785ZM8.4668 14.0723Q8.28125 14.0723 8.15918 13.9453Q8.03711 13.8184 8.03711 13.6523Q8.03711 13.4863 8.17383 13.3594L9.35547 12.1582L8.17383 10.9668Q8.03711 10.8301 8.03711 10.6738Q8.03711 10.498 8.15918 10.376Q8.28125 10.2539 8.4668 10.2539Q8.62305 10.2539 8.75 10.3809L9.94141 11.5723L11.1523 10.3809Q11.2891 10.2441 11.4355 10.2441Q11.6211 10.2441 11.7432 10.3662Q11.8652 10.4883 11.8652 10.6738Q11.8652 10.8301 11.7383 10.9668L10.5469 12.1582L11.7383 13.3594Q11.8555 13.4961 11.8555 13.6523Q11.8555 13.8184 11.7334 13.9453Q11.6113 14.0723 11.4355 14.0723Q11.3477 14.0723 11.2744 14.0332Q11.2012 13.9941 11.1426 13.9453L9.94141 12.7539L8.75977 13.9453Q8.62305 14.0723 8.4668 14.0723ZM4.6875 8.30078L15.2148 8.30078Q15.6543 8.30078 15.8789 8.05664Q16.1035 7.8125 16.1035 7.38281L16.1035 6.88477Q16.1035 6.44531 15.8789 6.20117Q15.6543 5.95703 15.2148 5.95703L4.6875 5.95703Q4.26758 5.95703 4.0332 6.20117Q3.79883 6.44531 3.79883 6.88477L3.79883 7.38281Q3.79883 7.8125 4.02344 8.05664Q4.24805 8.30078 4.6875 8.30078Z" fill="#ffffff"/>
 </g>
</svg>
