<?xml version="1.0" encoding="UTF-8"?>
<!--Generator: Apple Native CoreSVG 175-->
<!DOCTYPE svg
PUBLIC "-//W3C//DTD SVG 1.1//EN"
       "http://www.w3.org/Graphics/SVG/1.1/DTD/svg11.dtd">
<svg version="1.1" xmlns="http://www.w3.org/2000/svg" xmlns:xlink="http://www.w3.org/1999/xlink" width="19.1602" height="19.1504">
 <g>
  <rect height="19.1504" opacity="0" width="19.1602" x="0" y="0"/>
  <path d="M9.57031 19.1406Q11.5527 19.1406 13.2861 18.3984Q15.0195 17.6562 16.3379 16.333Q17.6562 15.0098 18.4082 13.2764Q19.1602 11.543 19.1602 9.57031Q19.1602 7.59766 18.4082 5.86426Q17.6562 4.13086 16.3379 2.80762Q15.0195 1.48438 13.2861 0.742188Q11.5527 0 9.57031 0Q7.59766 0 5.86426 0.742188Q4.13086 1.48438 2.81738 2.80762Q1.50391 4.13086 0.751953 5.86426Q0 7.59766 0 9.57031Q0 11.543 0.74707 13.2764Q1.49414 15.0098 2.8125 16.333Q4.13086 17.6562 5.86914 18.3984Q7.60742 19.1406 9.57031 19.1406ZM9.57031 18.3984Q7.74414 18.3984 6.14746 17.71Q4.55078 17.0215 3.33496 15.8105Q2.11914 14.5996 1.43555 12.998Q0.751953 11.3965 0.751953 9.57031Q0.751953 7.74414 1.43555 6.14258Q2.11914 4.54102 3.33496 3.3252Q4.55078 2.10938 6.14746 1.4209Q7.74414 0.732422 9.57031 0.732422Q11.4062 0.732422 13.0029 1.4209Q14.5996 2.10938 15.8154 3.3252Q17.0312 4.54102 17.7197 6.14258Q18.4082 7.74414 18.4082 9.57031Q18.4082 11.3965 17.7246 12.998Q17.041 14.5996 15.8252 15.8105Q14.6094 17.0215 13.0078 17.71Q11.4062 18.3984 9.57031 18.3984ZM9.57031 13.9648Q9.74609 13.9648 9.84863 13.8623Q9.95117 13.7598 9.95117 13.5742L9.95117 10.1855L12.9785 5.71289Q13.0664 5.60547 13.0664 5.48828Q13.0664 5.35156 12.9688 5.24902Q12.8711 5.14648 12.7148 5.14648Q12.6074 5.14648 12.5244 5.2002Q12.4414 5.25391 12.373 5.36133L9.59961 9.41406L9.55078 9.41406L6.78711 5.36133Q6.71875 5.24414 6.63574 5.19531Q6.55273 5.14648 6.43555 5.14648Q6.2793 5.14648 6.18164 5.24902Q6.08398 5.35156 6.08398 5.47852Q6.08398 5.60547 6.16211 5.71289L9.19922 10.1855L9.19922 13.5742Q9.19922 13.75 9.30176 13.8574Q9.4043 13.9648 9.57031 13.9648Z" fill="rgba(0,0,0,0.85)"/>
 </g>
</svg>
