<?xml version="1.0" encoding="UTF-8"?>
<!--Generator: Apple Native CoreSVG 175.5-->
<!DOCTYPE svg
PUBLIC "-//W3C//DTD SVG 1.1//EN"
       "http://www.w3.org/Graphics/SVG/1.1/DTD/svg11.dtd">
<svg version="1.1" xmlns="http://www.w3.org/2000/svg" xmlns:xlink="http://www.w3.org/1999/xlink" width="19.9219" height="19.9316">
 <g>
  <rect height="19.9316" opacity="0" width="19.9219" x="0" y="0"/>
  <path d="M9.96094 19.9219Q12.002 19.9219 13.8037 19.1406Q15.6055 18.3594 16.9824 16.9824Q18.3594 15.6055 19.1406 13.8037Q19.9219 12.002 19.9219 9.96094Q19.9219 7.91992 19.1406 6.11816Q18.3594 4.31641 16.9824 2.93945Q15.6055 1.5625 13.7988 0.78125Q11.9922 0 9.95117 0Q7.91016 0 6.1084 0.78125Q4.30664 1.5625 2.93457 2.93945Q1.5625 4.31641 0.78125 6.11816Q0 7.91992 0 9.96094Q0 12.002 0.78125 13.8037Q1.5625 15.6055 2.93945 16.9824Q4.31641 18.3594 6.11816 19.1406Q7.91992 19.9219 9.96094 19.9219Z" fill="#ffffff"/>
  <path d="M9.9707 15.0586Q9.6875 15.0586 9.51172 14.8682Q9.33594 14.6777 9.33594 14.375L9.33594 12.9297L7.49023 12.9297Q7.27539 12.9297 7.13867 12.7881Q7.00195 12.6465 7.00195 12.4316Q7.00195 12.2168 7.13867 12.0752Q7.27539 11.9336 7.49023 11.9336L9.33594 11.9336L9.33594 11.1621L7.49023 11.1621Q7.27539 11.1621 7.13867 11.0156Q7.00195 10.8691 7.00195 10.6641Q7.00195 10.4492 7.13867 10.3027Q7.27539 10.1562 7.49023 10.1562L8.86719 10.1562L6.41602 6.21094Q6.34766 6.10352 6.31836 6.00586Q6.28906 5.9082 6.28906 5.79102Q6.28906 5.53711 6.47461 5.36621Q6.66016 5.19531 6.93359 5.19531Q7.10938 5.19531 7.25586 5.27344Q7.40234 5.35156 7.50977 5.52734L9.9707 9.67773L12.4316 5.53711Q12.5391 5.36133 12.6807 5.2832Q12.8223 5.20508 13.0078 5.20508Q13.2812 5.20508 13.4619 5.38086Q13.6426 5.55664 13.6426 5.80078Q13.6426 6.02539 13.5156 6.2207L11.0742 10.1562L12.4707 10.1562Q12.6953 10.1562 12.832 10.3027Q12.9688 10.4492 12.9688 10.6641Q12.9688 10.8691 12.832 11.0156Q12.6953 11.1621 12.4707 11.1621L10.6055 11.1621L10.6055 11.9336L12.4707 11.9336Q12.6953 11.9336 12.832 12.0752Q12.9688 12.2168 12.9688 12.4316Q12.9688 12.6465 12.832 12.7881Q12.6953 12.9297 12.4707 12.9297L10.6055 12.9297L10.6055 14.3848Q10.6055 14.6875 10.4248 14.873Q10.2441 15.0586 9.9707 15.0586Z" fill="none"/>
 </g>
</svg>
