<?xml version="1.0" encoding="UTF-8"?>
<!--Generator: Apple Native CoreSVG 175.5-->
<!DOCTYPE svg
PUBLIC "-//W3C//DTD SVG 1.1//EN"
       "http://www.w3.org/Graphics/SVG/1.1/DTD/svg11.dtd">
<svg version="1.1" xmlns="http://www.w3.org/2000/svg" xmlns:xlink="http://www.w3.org/1999/xlink" width="17.9785" height="17.998">
 <g>
  <rect height="17.998" opacity="0" width="17.9785" x="0" y="0"/>
  <path d="M3.06641 17.998L14.9121 17.998Q16.4453 17.998 17.2119 17.2412Q17.9785 16.4844 17.9785 14.9707L17.9785 3.04688Q17.9785 1.5332 17.2119 0.776367Q16.4453 0.0195312 14.9121 0.0195312L3.06641 0.0195312Q1.5332 0.0195312 0.766602 0.776367Q0 1.5332 0 3.04688L0 14.9707Q0 16.4844 0.766602 17.2412Q1.5332 17.998 3.06641 17.998ZM3.08594 16.4258Q2.35352 16.4258 1.96289 16.04Q1.57227 15.6543 1.57227 14.8926L1.57227 3.125Q1.57227 2.36328 1.96289 1.97754Q2.35352 1.5918 3.08594 1.5918L14.8926 1.5918Q15.6152 1.5918 16.0107 1.97754Q16.4062 2.36328 16.4062 3.125L16.4062 14.8926Q16.4062 15.6543 16.0107 16.04Q15.6152 16.4258 14.8926 16.4258Z" fill="#ffffff"/>
  <path d="M9.00391 13.9355Q9.26758 13.9355 9.44336 13.7598Q9.61914 13.584 9.61914 13.291L9.61914 11.875L11.4258 11.875Q11.6406 11.875 11.7725 11.7334Q11.9043 11.5918 11.9043 11.3867Q11.9043 11.1816 11.7725 11.0449Q11.6406 10.9082 11.4258 10.9082L9.61914 10.9082L9.61914 10.1562L11.4258 10.1562Q11.6406 10.1562 11.7725 10.0195Q11.9043 9.88281 11.9043 9.67773Q11.9043 9.46289 11.7725 9.32617Q11.6406 9.18945 11.4258 9.18945L10.0684 9.18945L12.4414 5.37109Q12.5586 5.17578 12.5586 4.9707Q12.5586 4.73633 12.3828 4.56543Q12.207 4.39453 11.9434 4.39453Q11.7676 4.39453 11.6309 4.46777Q11.4941 4.54102 11.3965 4.7168L9.00391 8.73047L6.61133 4.70703Q6.50391 4.53125 6.37207 4.45801Q6.24023 4.38477 6.06445 4.38477Q5.79102 4.38477 5.61523 4.55078Q5.43945 4.7168 5.43945 4.96094Q5.43945 5.06836 5.46875 5.16602Q5.49805 5.26367 5.55664 5.36133L7.93945 9.18945L6.60156 9.18945Q6.38672 9.18945 6.25977 9.32617Q6.13281 9.46289 6.13281 9.67773Q6.13281 9.88281 6.26465 10.0195Q6.39648 10.1562 6.60156 10.1562L8.38867 10.1562L8.38867 10.9082L6.60156 10.9082Q6.38672 10.9082 6.25977 11.0449Q6.13281 11.1816 6.13281 11.3867Q6.13281 11.5918 6.26465 11.7334Q6.39648 11.875 6.60156 11.875L8.38867 11.875L8.38867 13.2812Q8.38867 13.5742 8.55957 13.7549Q8.73047 13.9355 9.00391 13.9355Z" fill="#ffffff"/>
 </g>
</svg>
