<?xml version="1.0" encoding="UTF-8"?>
<!--Generator: Apple Native CoreSVG 175-->
<!DOCTYPE svg
PUBLIC "-//W3C//DTD SVG 1.1//EN"
       "http://www.w3.org/Graphics/SVG/1.1/DTD/svg11.dtd">
<svg version="1.1" xmlns="http://www.w3.org/2000/svg" xmlns:xlink="http://www.w3.org/1999/xlink" width="17.2852" height="17.3145">
 <g>
  <rect height="17.3145" opacity="0" width="17.2852" x="0" y="0"/>
  <path d="M2.62695 17.3145L14.6484 17.3145Q15.957 17.3145 16.6211 16.6455Q17.2852 15.9766 17.2852 14.6875L17.2852 2.65625Q17.2852 1.37695 16.6211 0.703125Q15.957 0.0292969 14.6484 0.0292969L2.62695 0.0292969Q1.33789 0.0292969 0.668945 0.693359Q0 1.35742 0 2.65625L0 14.6875Q0 15.9863 0.668945 16.6504Q1.33789 17.3145 2.62695 17.3145ZM5.85938 13.0078Q5.64453 13.0078 5.5127 12.8857Q5.38086 12.7637 5.38086 12.5781Q5.38086 12.373 5.56641 12.1289L10.7715 5.00977L10.7715 4.95117L5.76172 4.95117Q5.61523 4.95117 5.51758 4.8584Q5.41992 4.76562 5.41992 4.61914Q5.41992 4.47266 5.51758 4.37988Q5.61523 4.28711 5.76172 4.28711L11.2109 4.28711Q11.416 4.28711 11.5479 4.41406Q11.6797 4.54102 11.6797 4.72656Q11.6797 4.85352 11.6504 4.94141Q11.6211 5.0293 11.5137 5.16602L6.33789 12.2754L6.33789 12.334L11.5625 12.334Q11.7188 12.334 11.8164 12.4268Q11.9141 12.5195 11.9141 12.666Q11.9141 12.8125 11.8164 12.9102Q11.7188 13.0078 11.5625 13.0078Z" fill="#ffffff"/>
 </g>
</svg>
