<?xml version="1.0" encoding="UTF-8"?>
<!--Generator: Apple Native CoreSVG 175-->
<!DOCTYPE svg
PUBLIC "-//W3C//DTD SVG 1.1//EN"
       "http://www.w3.org/Graphics/SVG/1.1/DTD/svg11.dtd">
<svg version="1.1" xmlns="http://www.w3.org/2000/svg" xmlns:xlink="http://www.w3.org/1999/xlink" width="19.1602" height="19.1504">
 <g>
  <rect height="19.1504" opacity="0" width="19.1602" x="0" y="0"/>
  <path d="M9.57031 19.1406Q11.5527 19.1406 13.2861 18.3984Q15.0195 17.6562 16.3379 16.333Q17.6562 15.0098 18.4082 13.2764Q19.1602 11.543 19.1602 9.57031Q19.1602 7.59766 18.4082 5.86426Q17.6562 4.13086 16.3379 2.80762Q15.0195 1.48438 13.2861 0.742188Q11.5527 0 9.57031 0Q7.59766 0 5.86426 0.742188Q4.13086 1.48438 2.81738 2.80762Q1.50391 4.13086 0.751953 5.86426Q0 7.59766 0 9.57031Q0 11.543 0.74707 13.2764Q1.49414 15.0098 2.8125 16.333Q4.13086 17.6562 5.86914 18.3984Q7.60742 19.1406 9.57031 19.1406ZM7.50977 13.6328Q7.36328 13.6328 7.27051 13.5352Q7.17773 13.4375 7.17773 13.291L7.17773 11.6699L3.82812 11.6699Q3.59375 11.6699 3.44727 11.543Q3.30078 11.416 3.30078 11.1816Q3.30078 11.084 3.33008 10.9766Q3.35938 10.8691 3.41797 10.7715Q3.69141 10.3516 4.11133 9.70703Q4.53125 9.0625 4.99512 8.34473Q5.45898 7.62695 5.88867 6.97266Q6.31836 6.31836 6.62109 5.86914Q6.76758 5.63477 6.92383 5.54688Q7.08008 5.45898 7.30469 5.45898Q7.53906 5.45898 7.68555 5.5957Q7.83203 5.73242 7.83203 5.9668L7.83203 11.0352L8.80859 11.0352Q8.94531 11.0352 9.0332 11.1279Q9.12109 11.2207 9.12109 11.3574Q9.12109 11.4941 9.03809 11.582Q8.95508 11.6699 8.80859 11.6699L7.83203 11.6699L7.83203 13.291Q7.83203 13.4375 7.74902 13.5352Q7.66602 13.6328 7.50977 13.6328ZM7.17773 11.0352L7.17773 6.20117L7.14844 6.20117Q6.95312 6.50391 6.63086 6.9873Q6.30859 7.4707 5.92773 8.05176Q5.54688 8.63281 5.17578 9.19922Q4.80469 9.76562 4.50195 10.249Q4.19922 10.7324 4.0332 11.0156L4.0332 11.0352ZM11.4648 13.6133Q11.3086 13.6133 11.2158 13.5107Q11.123 13.4082 11.123 13.2715Q11.123 13.1445 11.1719 13.0469L14.6289 6.23047L14.6289 6.18164L10.5371 6.18164Q10.3809 6.18164 10.293 6.09375Q10.2051 6.00586 10.2051 5.86914Q10.2051 5.72266 10.293 5.63477Q10.3809 5.54688 10.5371 5.54688L14.8242 5.54688Q15.0684 5.54688 15.2148 5.67871Q15.3613 5.81055 15.3613 6.01562Q15.3613 6.11328 15.3418 6.19141Q15.3223 6.26953 15.2539 6.40625L11.8066 13.3594Q11.748 13.4961 11.665 13.5547Q11.582 13.6133 11.4648 13.6133Z" fill="#ffffff"/>
 </g>
</svg>
