<?xml version="1.0" encoding="UTF-8"?>
<!--Generator: Apple Native CoreSVG 175-->
<!DOCTYPE svg
PUBLIC "-//W3C//DTD SVG 1.1//EN"
       "http://www.w3.org/Graphics/SVG/1.1/DTD/svg11.dtd">
<svg version="1.1" xmlns="http://www.w3.org/2000/svg" xmlns:xlink="http://www.w3.org/1999/xlink" width="17.2852" height="17.3145">
 <g>
  <rect height="17.3145" opacity="0" width="17.2852" x="0" y="0"/>
  <path d="M2.62695 17.3145L14.6484 17.3145Q15.957 17.3145 16.6211 16.6455Q17.2852 15.9766 17.2852 14.6875L17.2852 2.65625Q17.2852 1.37695 16.6211 0.703125Q15.957 0.0292969 14.6484 0.0292969L2.62695 0.0292969Q1.33789 0.0292969 0.668945 0.693359Q0 1.35742 0 2.65625L0 14.6875Q0 15.9863 0.668945 16.6504Q1.33789 17.3145 2.62695 17.3145ZM5.32227 12.7637Q4.49219 12.7637 3.86719 12.2461Q3.24219 11.7285 2.89062 10.8057Q2.53906 9.88281 2.53906 8.65234Q2.53906 7.42188 2.89062 6.49414Q3.24219 5.56641 3.86719 5.05371Q4.49219 4.54102 5.32227 4.54102Q6.15234 4.54102 6.77734 5.05371Q7.40234 5.56641 7.75391 6.49414Q8.10547 7.42188 8.10547 8.65234Q8.10547 9.88281 7.75391 10.8057Q7.40234 11.7285 6.77734 12.2461Q6.15234 12.7637 5.32227 12.7637ZM5.32227 12.1094Q6.25977 12.1094 6.83594 11.1572Q7.41211 10.2051 7.41211 8.65234Q7.41211 7.09961 6.83594 6.14746Q6.25977 5.19531 5.32227 5.19531Q4.39453 5.19531 3.80859 6.14746Q3.22266 7.09961 3.22266 8.65234Q3.22266 10.2051 3.80859 11.1572Q4.39453 12.1094 5.32227 12.1094ZM12.1289 12.7734Q11.2598 12.7734 10.6836 12.417Q10.1074 12.0605 9.78516 11.3965Q9.54102 10.918 9.43359 10.293Q9.32617 9.66797 9.32617 8.90625Q9.32617 6.81641 10.1074 5.67871Q10.8887 4.54102 12.2852 4.54102Q12.9004 4.54102 13.3691 4.75586Q13.8379 4.9707 14.1309 5.28809Q14.4238 5.60547 14.5215 5.88867Q14.5605 5.98633 14.5605 6.08398Q14.5605 6.21094 14.4824 6.29883Q14.4043 6.38672 14.2578 6.38672Q14.1602 6.38672 14.0869 6.32812Q14.0137 6.26953 13.9551 6.16211Q13.7207 5.71289 13.2764 5.44434Q12.832 5.17578 12.2656 5.17578Q11.1914 5.17578 10.5713 6.15723Q9.95117 7.13867 9.95117 8.88672Q9.95117 8.90625 9.95117 8.93066Q9.95117 8.95508 9.95117 8.97461L9.98047 8.97461Q10.2344 8.34961 10.8643 7.94922Q11.4941 7.54883 12.2852 7.54883Q13.3789 7.54883 14.1064 8.25684Q14.834 8.96484 14.834 10.0879Q14.834 11.2988 14.082 12.0361Q13.3301 12.7734 12.1289 12.7734ZM12.1289 12.1387Q13.0469 12.1387 13.6035 11.5918Q14.1602 11.0449 14.1602 10.127Q14.1602 9.23828 13.5938 8.69629Q13.0273 8.1543 12.1387 8.1543Q11.2402 8.1543 10.6689 8.70605Q10.0977 9.25781 10.0977 10.1172Q10.0977 10.9961 10.6689 11.5674Q11.2402 12.1387 12.1289 12.1387Z" fill="#ffffff"/>
 </g>
</svg>
