<?xml version="1.0" encoding="UTF-8"?>
<!--Generator: Apple Native CoreSVG 175-->
<!DOCTYPE svg
PUBLIC "-//W3C//DTD SVG 1.1//EN"
       "http://www.w3.org/Graphics/SVG/1.1/DTD/svg11.dtd">
<svg version="1.1" xmlns="http://www.w3.org/2000/svg" xmlns:xlink="http://www.w3.org/1999/xlink" width="19.1602" height="19.1504">
 <g>
  <rect height="19.1504" opacity="0" width="19.1602" x="0" y="0"/>
  <path d="M9.57031 19.1406Q11.5527 19.1406 13.2861 18.3984Q15.0195 17.6562 16.3379 16.333Q17.6562 15.0098 18.4082 13.2764Q19.1602 11.543 19.1602 9.57031Q19.1602 7.59766 18.4082 5.86426Q17.6562 4.13086 16.3379 2.80762Q15.0195 1.48438 13.2861 0.742188Q11.5527 0 9.57031 0Q7.59766 0 5.86426 0.742188Q4.13086 1.48438 2.81738 2.80762Q1.50391 4.13086 0.751953 5.86426Q0 7.59766 0 9.57031Q0 11.543 0.74707 13.2764Q1.49414 15.0098 2.8125 16.333Q4.13086 17.6562 5.86914 18.3984Q7.60742 19.1406 9.57031 19.1406ZM9.59961 14.0723Q8.20312 14.0723 7.31934 13.2422Q6.43555 12.4121 6.43555 11.1133Q6.43555 10.3711 6.76758 9.59961Q7.09961 8.82812 7.82227 7.87109Q7.91992 7.74414 8.14941 7.45117Q8.37891 7.1582 8.67676 6.79199Q8.97461 6.42578 9.2627 6.06445Q9.55078 5.70312 9.76562 5.42969Q9.86328 5.30273 9.95117 5.20996Q10.0391 5.11719 10.1953 5.11719Q10.3613 5.11719 10.4346 5.20996Q10.5078 5.30273 10.5078 5.41016Q10.5078 5.54688 10.3809 5.71289Q10.166 5.98633 9.86328 6.35254Q9.56055 6.71875 9.26758 7.08984Q8.97461 7.46094 8.73535 7.75391Q8.49609 8.04688 8.39844 8.19336Q8.17383 8.49609 8.05664 8.66211Q7.93945 8.82812 7.82227 9.00391L7.90039 9.01367Q8.23242 8.7207 8.73047 8.55469Q9.22852 8.38867 9.77539 8.38867Q10.6348 8.38867 11.2988 8.74512Q11.9629 9.10156 12.3438 9.72656Q12.7246 10.3516 12.7246 11.1621Q12.7246 12.0117 12.3242 12.6709Q11.9238 13.3301 11.2207 13.7012Q10.5176 14.0723 9.59961 14.0723ZM9.59961 13.418Q10.6543 13.418 11.3428 12.7832Q12.0312 12.1484 12.0312 11.1914Q12.0312 10.2148 11.3379 9.59473Q10.6445 8.97461 9.56055 8.97461Q8.50586 8.97461 7.81738 9.58984Q7.12891 10.2051 7.12891 11.1426Q7.12891 12.1289 7.83691 12.7734Q8.54492 13.418 9.59961 13.418Z" fill="#ffffff"/>
 </g>
</svg>
