<?xml version="1.0" encoding="UTF-8"?>
<!--Generator: Apple Native CoreSVG 175-->
<!DOCTYPE svg
PUBLIC "-//W3C//DTD SVG 1.1//EN"
       "http://www.w3.org/Graphics/SVG/1.1/DTD/svg11.dtd">
<svg version="1.1" xmlns="http://www.w3.org/2000/svg" xmlns:xlink="http://www.w3.org/1999/xlink" width="19.1602" height="19.1504">
 <g>
  <rect height="19.1504" opacity="0" width="19.1602" x="0" y="0"/>
  <path d="M9.57031 19.1406Q11.5527 19.1406 13.2861 18.3984Q15.0195 17.6562 16.3379 16.333Q17.6562 15.0098 18.4082 13.2764Q19.1602 11.543 19.1602 9.57031Q19.1602 7.59766 18.4082 5.86426Q17.6562 4.13086 16.3379 2.80762Q15.0195 1.48438 13.2861 0.742188Q11.5527 0 9.57031 0Q7.59766 0 5.86426 0.742188Q4.13086 1.48438 2.81738 2.80762Q1.50391 4.13086 0.751953 5.86426Q0 7.59766 0 9.57031Q0 11.543 0.74707 13.2764Q1.49414 15.0098 2.8125 16.333Q4.13086 17.6562 5.86914 18.3984Q7.60742 19.1406 9.57031 19.1406ZM4.58008 13.5352Q4.41406 13.5352 4.31641 13.4424Q4.21875 13.3496 4.21875 13.1836Q4.21875 13.0078 4.33594 12.8711L7.23633 9.51172Q7.70508 8.95508 7.94922 8.52051Q8.19336 8.08594 8.19336 7.60742Q8.19336 6.92383 7.73438 6.50879Q7.27539 6.09375 6.49414 6.09375Q5.74219 6.09375 5.24414 6.50879Q4.74609 6.92383 4.66797 7.57812Q4.63867 7.72461 4.55566 7.80762Q4.47266 7.89062 4.33594 7.89062Q4.17969 7.89062 4.0918 7.79297Q4.00391 7.69531 4.00391 7.54883Q4.00391 7.4707 4.01367 7.41211Q4.02344 7.35352 4.0332 7.26562Q4.17969 6.48438 4.87305 5.97168Q5.56641 5.45898 6.48438 5.45898Q7.55859 5.45898 8.21289 6.04004Q8.86719 6.62109 8.86719 7.58789Q8.86719 8.19336 8.56445 8.74512Q8.26172 9.29688 7.60742 10.0488L5.19531 12.8613L5.19531 12.8906L8.78906 12.8906Q8.93555 12.8906 9.01855 12.9785Q9.10156 13.0664 9.10156 13.2129Q9.10156 13.3496 9.01855 13.4424Q8.93555 13.5352 8.78906 13.5352ZM11.1035 13.5352Q10.9473 13.5352 10.8447 13.4424Q10.7422 13.3496 10.7422 13.1836Q10.7422 13.0859 10.7666 13.0127Q10.791 12.9395 10.8594 12.8711L13.7598 9.51172Q14.2188 8.95508 14.4678 8.52051Q14.7168 8.08594 14.7168 7.60742Q14.7168 6.92383 14.2578 6.50879Q13.7988 6.09375 13.0176 6.09375Q12.2754 6.09375 11.7725 6.50879Q11.2695 6.92383 11.1914 7.57812Q11.1621 7.72461 11.084 7.80762Q11.0059 7.89062 10.8594 7.89062Q10.7031 7.89062 10.6152 7.79297Q10.5273 7.69531 10.5273 7.54883Q10.5273 7.4707 10.5371 7.41211Q10.5469 7.35352 10.5566 7.26562Q10.7031 6.48438 11.4014 5.97168Q12.0996 5.45898 13.0078 5.45898Q14.0918 5.45898 14.7461 6.04004Q15.4004 6.62109 15.4004 7.58789Q15.4004 8.19336 15.0928 8.74512Q14.7852 9.29688 14.1309 10.0488L11.7188 12.8613L11.7188 12.8906L15.3125 12.8906Q15.459 12.8906 15.542 12.9785Q15.625 13.0664 15.625 13.2129Q15.625 13.3496 15.542 13.4424Q15.459 13.5352 15.3125 13.5352Z" fill="#ffffff"/>
 </g>
</svg>
