<?xml version="1.0" encoding="UTF-8"?>
<!--Generator: Apple Native CoreSVG 175-->
<!DOCTYPE svg
PUBLIC "-//W3C//DTD SVG 1.1//EN"
       "http://www.w3.org/Graphics/SVG/1.1/DTD/svg11.dtd">
<svg version="1.1" xmlns="http://www.w3.org/2000/svg" xmlns:xlink="http://www.w3.org/1999/xlink" width="17.2852" height="17.3145">
 <g>
  <rect height="17.3145" opacity="0" width="17.2852" x="0" y="0"/>
  <path d="M2.62695 17.3145L14.6484 17.3145Q15.957 17.3145 16.6211 16.6455Q17.2852 15.9766 17.2852 14.6875L17.2852 2.65625Q17.2852 1.37695 16.6211 0.703125Q15.957 0.0292969 14.6484 0.0292969L2.62695 0.0292969Q1.33789 0.0292969 0.668945 0.693359Q0 1.35742 0 2.65625L0 14.6875Q0 15.9863 0.668945 16.6504Q1.33789 17.3145 2.62695 17.3145ZM2.65625 16.5918Q1.70898 16.5918 1.2207 16.1035Q0.732422 15.6152 0.732422 14.6582L0.732422 2.69531Q0.732422 1.72852 1.2207 1.24512Q1.70898 0.761719 2.65625 0.761719L14.6289 0.761719Q15.5566 0.761719 16.0596 1.24512Q16.5625 1.72852 16.5625 2.69531L16.5625 14.6582Q16.5625 15.6152 16.0596 16.1035Q15.5566 16.5918 14.6289 16.5918ZM5.36133 12.7344Q6.52344 12.7344 7.27539 12.0898Q8.02734 11.4453 8.02734 10.4492Q8.02734 9.6875 7.50977 9.12598Q6.99219 8.56445 6.23047 8.48633L6.23047 8.4668Q6.88477 8.34961 7.32422 7.80273Q7.76367 7.25586 7.76367 6.57227Q7.76367 5.69336 7.08496 5.13184Q6.40625 4.57031 5.37109 4.57031Q4.51172 4.57031 3.84277 5.00488Q3.17383 5.43945 2.99805 6.16211Q2.96875 6.29883 2.96875 6.44531Q2.96875 6.60156 3.05176 6.69922Q3.13477 6.79688 3.30078 6.79688Q3.42773 6.79688 3.50586 6.72363Q3.58398 6.65039 3.62305 6.49414Q3.74023 5.9082 4.19922 5.55664Q4.6582 5.20508 5.36133 5.20508Q6.13281 5.20508 6.61133 5.60547Q7.08984 6.00586 7.08984 6.65039Q7.08984 7.30469 6.61133 7.74902Q6.13281 8.19336 5.40039 8.19336L4.67773 8.19336Q4.54102 8.19336 4.45312 8.28125Q4.36523 8.36914 4.36523 8.51562Q4.36523 8.65234 4.44824 8.74023Q4.53125 8.82812 4.67773 8.82812L5.46875 8.82812Q6.28906 8.82812 6.82129 9.28711Q7.35352 9.74609 7.35352 10.4395Q7.35352 11.1719 6.80664 11.6357Q6.25977 12.0996 5.37109 12.0996Q4.70703 12.0996 4.17969 11.7529Q3.65234 11.4062 3.45703 10.8105Q3.35938 10.5176 3.13477 10.5176Q2.98828 10.5176 2.89551 10.6152Q2.80273 10.7129 2.80273 10.8496Q2.80273 10.9375 2.81738 11.001Q2.83203 11.0645 2.85156 11.123Q3.05664 11.7773 3.74023 12.2559Q4.42383 12.7344 5.36133 12.7344ZM12.0996 12.7344Q13.3008 12.7344 14.0869 12.085Q14.873 11.4355 14.873 10.4199Q14.873 9.70703 14.4043 9.15039Q13.9355 8.59375 13.2031 8.44727L13.2031 8.39844Q13.8184 8.22266 14.1943 7.73438Q14.5703 7.24609 14.5703 6.64062Q14.5703 5.72266 13.877 5.14648Q13.1836 4.57031 12.1094 4.57031Q11.0449 4.57031 10.3418 5.14648Q9.63867 5.72266 9.63867 6.64062Q9.63867 7.24609 10.0146 7.72461Q10.3906 8.20312 11.0156 8.39844L11.0156 8.44727Q10.2734 8.59375 9.80957 9.15039Q9.3457 9.70703 9.3457 10.4199Q9.3457 11.4453 10.127 12.0898Q10.9082 12.7344 12.0996 12.7344ZM12.1094 12.1484Q11.1816 12.1484 10.5811 11.6602Q9.98047 11.1719 9.98047 10.4102Q9.98047 9.6875 10.5811 9.20898Q11.1816 8.73047 12.1094 8.73047Q13.0371 8.73047 13.6377 9.20898Q14.2383 9.6875 14.2383 10.4102Q14.2383 11.1719 13.6377 11.6602Q13.0371 12.1484 12.1094 12.1484ZM12.1094 8.16406Q11.3184 8.16406 10.8203 7.73438Q10.3223 7.30469 10.3223 6.66016Q10.3223 5.99609 10.8154 5.57617Q11.3086 5.15625 12.1094 5.15625Q12.9102 5.15625 13.4033 5.57617Q13.8965 5.99609 13.8965 6.66016Q13.8965 7.30469 13.3984 7.73438Q12.9004 8.16406 12.1094 8.16406Z" fill="#ffffff"/>
 </g>
</svg>
