<?xml version="1.0" encoding="UTF-8"?>
<!--Generator: Apple Native CoreSVG 175-->
<!DOCTYPE svg
PUBLIC "-//W3C//DTD SVG 1.1//EN"
       "http://www.w3.org/Graphics/SVG/1.1/DTD/svg11.dtd">
<svg version="1.1" xmlns="http://www.w3.org/2000/svg" xmlns:xlink="http://www.w3.org/1999/xlink" width="17.2852" height="17.3145">
 <g>
  <rect height="17.3145" opacity="0" width="17.2852" x="0" y="0"/>
  <path d="M2.62695 17.3145L14.6484 17.3145Q15.957 17.3145 16.6211 16.6455Q17.2852 15.9766 17.2852 14.6875L17.2852 2.65625Q17.2852 1.37695 16.6211 0.703125Q15.957 0.0292969 14.6484 0.0292969L2.62695 0.0292969Q1.33789 0.0292969 0.668945 0.693359Q0 1.35742 0 2.65625L0 14.6875Q0 15.9863 0.668945 16.6504Q1.33789 17.3145 2.62695 17.3145ZM2.65625 16.5918Q1.70898 16.5918 1.2207 16.1035Q0.732422 15.6152 0.732422 14.6582L0.732422 2.69531Q0.732422 1.72852 1.2207 1.24512Q1.70898 0.761719 2.65625 0.761719L14.6289 0.761719Q15.5566 0.761719 16.0596 1.24512Q16.5625 1.72852 16.5625 2.69531L16.5625 14.6582Q16.5625 15.6152 16.0596 16.1035Q15.5566 16.5918 14.6289 16.5918ZM4.19922 12.5879L8.38867 12.5879Q8.53516 12.5879 8.61328 12.4951Q8.69141 12.4023 8.69141 12.2656Q8.69141 12.1289 8.61328 12.041Q8.53516 11.9531 8.38867 11.9531L4.81445 11.9531L4.81445 11.9238L7.20703 9.13086Q7.85156 8.37891 8.15918 7.82715Q8.4668 7.27539 8.4668 6.68945Q8.4668 5.72266 7.8125 5.14648Q7.1582 4.57031 6.09375 4.57031Q5.19531 4.57031 4.50195 5.07812Q3.80859 5.58594 3.66211 6.36719Q3.65234 6.44531 3.64258 6.50879Q3.63281 6.57227 3.63281 6.64062Q3.63281 6.78711 3.7207 6.88477Q3.80859 6.98242 3.95508 6.98242Q4.10156 6.98242 4.17969 6.89941Q4.25781 6.81641 4.28711 6.66992Q4.36523 6.02539 4.86328 5.61523Q5.36133 5.20508 6.11328 5.20508Q6.88477 5.20508 7.33887 5.61035Q7.79297 6.01562 7.79297 6.69922Q7.79297 7.17773 7.55371 7.6123Q7.31445 8.04688 6.8457 8.59375L3.95508 11.9336Q3.84766 12.0605 3.84766 12.2461Q3.84766 12.4121 3.94531 12.5Q4.04297 12.5879 4.19922 12.5879ZM12.7051 12.6562Q13.0371 12.6562 13.0371 12.334L13.0371 4.99023Q13.0371 4.82422 12.9297 4.72656Q12.8223 4.62891 12.6562 4.62891Q12.5293 4.62891 12.4414 4.66309Q12.3535 4.69727 12.2461 4.76562L10.3613 5.99609Q10.1953 6.10352 10.1953 6.28906Q10.1953 6.41602 10.2881 6.50879Q10.3809 6.60156 10.5078 6.60156Q10.5566 6.60156 10.5957 6.59668Q10.6348 6.5918 10.7031 6.54297L12.334 5.45898L12.3828 5.45898L12.3828 12.334Q12.3828 12.6562 12.7051 12.6562Z" fill="#ffffff"/>
 </g>
</svg>
