<?xml version="1.0" encoding="UTF-8"?>
<!--Generator: Apple Native CoreSVG 175-->
<!DOCTYPE svg
PUBLIC "-//W3C//DTD SVG 1.1//EN"
       "http://www.w3.org/Graphics/SVG/1.1/DTD/svg11.dtd">
<svg version="1.1" xmlns="http://www.w3.org/2000/svg" xmlns:xlink="http://www.w3.org/1999/xlink" width="19.1602" height="19.1504">
 <g>
  <rect height="19.1504" opacity="0" width="19.1602" x="0" y="0"/>
  <path d="M9.57031 19.1406Q11.5527 19.1406 13.2861 18.3984Q15.0195 17.6562 16.3379 16.333Q17.6562 15.0098 18.4082 13.2764Q19.1602 11.543 19.1602 9.57031Q19.1602 7.59766 18.4082 5.86426Q17.6562 4.13086 16.3379 2.80762Q15.0195 1.48438 13.2861 0.742188Q11.5527 0 9.57031 0Q7.59766 0 5.86426 0.742188Q4.13086 1.48438 2.81738 2.80762Q1.50391 4.13086 0.751953 5.86426Q0 7.59766 0 9.57031Q0 11.543 0.74707 13.2764Q1.49414 15.0098 2.8125 16.333Q4.13086 17.6562 5.86914 18.3984Q7.60742 19.1406 9.57031 19.1406ZM6.37695 11.4062Q6.37695 11.3281 6.39648 11.2451Q6.41602 11.1621 6.48438 11.0449Q6.95312 10.1758 7.52441 9.16992Q8.0957 8.16406 8.66211 7.18262Q9.22852 6.20117 9.69727 5.40039Q9.76562 5.2832 9.84375 5.22461Q9.92188 5.16602 10.0391 5.16602Q10.2246 5.16602 10.3125 5.27344Q10.4004 5.38086 10.4004 5.52734Q10.4004 5.58594 10.3857 5.63965Q10.3711 5.69336 10.332 5.75195Q9.89258 6.58203 9.34082 7.5293Q8.78906 8.47656 8.25684 9.4043Q7.72461 10.332 7.31445 11.1133L10.7129 11.1133L10.7129 8.58398Q10.7129 8.38867 10.8105 8.28613Q10.9082 8.18359 11.0742 8.18359Q11.2402 8.18359 11.3379 8.28613Q11.4355 8.38867 11.4355 8.58398L11.4355 11.1133L12.4902 11.1133Q12.6562 11.1133 12.7588 11.2061Q12.8613 11.2988 12.8613 11.4648Q12.8613 11.6211 12.7588 11.7139Q12.6562 11.8066 12.4902 11.8066L11.4355 11.8066L11.4355 13.584Q11.4355 13.7793 11.3379 13.8867Q11.2402 13.9941 11.0742 13.9941Q10.9082 13.9941 10.8105 13.8867Q10.7129 13.7793 10.7129 13.584L10.7129 11.8066L6.82617 11.8066Q6.62109 11.8066 6.49902 11.6992Q6.37695 11.5918 6.37695 11.4062Z" fill="#ffffff"/>
 </g>
</svg>
