<?xml version="1.0" encoding="UTF-8"?>
<!--Generator: Apple Native CoreSVG 175-->
<!DOCTYPE svg
PUBLIC "-//W3C//DTD SVG 1.1//EN"
       "http://www.w3.org/Graphics/SVG/1.1/DTD/svg11.dtd">
<svg version="1.1" xmlns="http://www.w3.org/2000/svg" xmlns:xlink="http://www.w3.org/1999/xlink" width="17.2852" height="17.3145">
 <g>
  <rect height="17.3145" opacity="0" width="17.2852" x="0" y="0"/>
  <path d="M2.62695 17.3145L14.6484 17.3145Q15.957 17.3145 16.6211 16.6455Q17.2852 15.9766 17.2852 14.6875L17.2852 2.65625Q17.2852 1.37695 16.6211 0.703125Q15.957 0.0292969 14.6484 0.0292969L2.62695 0.0292969Q1.33789 0.0292969 0.668945 0.693359Q0 1.35742 0 2.65625L0 14.6875Q0 15.9863 0.668945 16.6504Q1.33789 17.3145 2.62695 17.3145ZM2.65625 16.5918Q1.70898 16.5918 1.2207 16.1035Q0.732422 15.6152 0.732422 14.6582L0.732422 2.69531Q0.732422 1.72852 1.2207 1.24512Q1.70898 0.761719 2.65625 0.761719L14.6289 0.761719Q15.5566 0.761719 16.0596 1.24512Q16.5625 1.72852 16.5625 2.69531L16.5625 14.6582Q16.5625 15.6152 16.0596 16.1035Q15.5566 16.5918 14.6289 16.5918ZM3.66211 12.5879L7.85156 12.5879Q7.99805 12.5879 8.07617 12.4951Q8.1543 12.4023 8.1543 12.2656Q8.1543 12.1289 8.07617 12.041Q7.99805 11.9531 7.85156 11.9531L4.27734 11.9531L4.27734 11.9238L6.66992 9.13086Q7.31445 8.37891 7.62207 7.82715Q7.92969 7.27539 7.92969 6.68945Q7.92969 5.72266 7.27539 5.14648Q6.62109 4.57031 5.55664 4.57031Q4.6582 4.57031 3.96484 5.07812Q3.27148 5.58594 3.125 6.36719Q3.11523 6.44531 3.10547 6.50879Q3.0957 6.57227 3.0957 6.64062Q3.0957 6.78711 3.18359 6.88477Q3.27148 6.98242 3.41797 6.98242Q3.56445 6.98242 3.64258 6.89941Q3.7207 6.81641 3.75 6.66992Q3.82812 6.02539 4.32617 5.61523Q4.82422 5.20508 5.57617 5.20508Q6.34766 5.20508 6.80176 5.61035Q7.25586 6.01562 7.25586 6.69922Q7.25586 7.17773 7.0166 7.6123Q6.77734 8.04688 6.30859 8.59375L3.41797 11.9336Q3.31055 12.0605 3.31055 12.2461Q3.31055 12.4121 3.4082 12.5Q3.50586 12.5879 3.66211 12.5879ZM13.2617 12.6758Q13.4082 12.6758 13.4961 12.5879Q13.584 12.5 13.584 12.3535L13.584 10.7227L14.5605 10.7227Q14.8633 10.7227 14.8633 10.4297Q14.8633 10.293 14.7754 10.2002Q14.6875 10.1074 14.5605 10.1074L13.584 10.1074L13.584 5.06836Q13.584 4.83398 13.4375 4.70215Q13.291 4.57031 13.0566 4.57031Q12.8418 4.57031 12.6855 4.6582Q12.5293 4.74609 12.373 4.9707Q12.0801 5.41992 11.6553 6.07422Q11.2305 6.72852 10.7666 7.44141Q10.3027 8.1543 9.88281 8.79395Q9.46289 9.43359 9.18945 9.85352Q9.14062 9.95117 9.11133 10.0537Q9.08203 10.1562 9.08203 10.2539Q9.08203 10.4883 9.22363 10.6055Q9.36523 10.7227 9.59961 10.7227L12.9297 10.7227L12.9297 12.3535Q12.9297 12.5 13.0225 12.5879Q13.1152 12.6758 13.2617 12.6758ZM12.9297 10.1074L9.80469 10.1074L9.80469 10.0879Q9.96094 9.80469 10.2686 9.32617Q10.5762 8.84766 10.9473 8.27637Q11.3184 7.70508 11.6943 7.13379Q12.0703 6.5625 12.3926 6.0791Q12.7148 5.5957 12.9004 5.30273L12.9297 5.30273Z" fill="#ffffff"/>
 </g>
</svg>
