<?xml version="1.0" encoding="UTF-8"?>
<!--Generator: Apple Native CoreSVG 175-->
<!DOCTYPE svg
PUBLIC "-//W3C//DTD SVG 1.1//EN"
       "http://www.w3.org/Graphics/SVG/1.1/DTD/svg11.dtd">
<svg version="1.1" xmlns="http://www.w3.org/2000/svg" xmlns:xlink="http://www.w3.org/1999/xlink" width="19.1602" height="19.1504">
 <g>
  <rect height="19.1504" opacity="0" width="19.1602" x="0" y="0"/>
  <path d="M9.57031 19.1406Q11.5527 19.1406 13.2861 18.3984Q15.0195 17.6562 16.3379 16.333Q17.6562 15.0098 18.4082 13.2764Q19.1602 11.543 19.1602 9.57031Q19.1602 7.59766 18.4082 5.86426Q17.6562 4.13086 16.3379 2.80762Q15.0195 1.48438 13.2861 0.742188Q11.5527 0 9.57031 0Q7.59766 0 5.86426 0.742188Q4.13086 1.48438 2.81738 2.80762Q1.50391 4.13086 0.751953 5.86426Q0 7.59766 0 9.57031Q0 11.543 0.74707 13.2764Q1.49414 15.0098 2.8125 16.333Q4.13086 17.6562 5.86914 18.3984Q7.60742 19.1406 9.57031 19.1406ZM9.57031 18.3984Q7.74414 18.3984 6.14746 17.71Q4.55078 17.0215 3.33496 15.8105Q2.11914 14.5996 1.43555 12.998Q0.751953 11.3965 0.751953 9.57031Q0.751953 7.74414 1.43555 6.14258Q2.11914 4.54102 3.33496 3.3252Q4.55078 2.10938 6.14746 1.4209Q7.74414 0.732422 9.57031 0.732422Q11.4062 0.732422 13.0029 1.4209Q14.5996 2.10938 15.8154 3.3252Q17.0312 4.54102 17.7197 6.14258Q18.4082 7.74414 18.4082 9.57031Q18.4082 11.3965 17.7246 12.998Q17.041 14.5996 15.8252 15.8105Q14.6094 17.0215 13.0078 17.71Q11.4062 18.3984 9.57031 18.3984ZM6.68945 13.6523Q7.85156 13.6523 8.60352 13.0078Q9.35547 12.3633 9.35547 11.3672Q9.35547 10.6055 8.83789 10.0439Q8.32031 9.48242 7.55859 9.4043L7.55859 9.38477Q8.21289 9.26758 8.65234 8.7207Q9.0918 8.17383 9.0918 7.49023Q9.0918 6.61133 8.41309 6.0498Q7.73438 5.48828 6.69922 5.48828Q5.83984 5.48828 5.1709 5.92285Q4.50195 6.35742 4.32617 7.08008Q4.29688 7.2168 4.29688 7.36328Q4.29688 7.51953 4.37988 7.61719Q4.46289 7.71484 4.62891 7.71484Q4.75586 7.71484 4.83398 7.6416Q4.91211 7.56836 4.95117 7.41211Q5.06836 6.82617 5.52734 6.47461Q5.98633 6.12305 6.68945 6.12305Q7.46094 6.12305 7.93945 6.52344Q8.41797 6.92383 8.41797 7.56836Q8.41797 8.22266 7.93945 8.66699Q7.46094 9.11133 6.72852 9.11133L6.00586 9.11133Q5.86914 9.11133 5.78125 9.19922Q5.69336 9.28711 5.69336 9.43359Q5.69336 9.57031 5.77637 9.6582Q5.85938 9.74609 6.00586 9.74609L6.79688 9.74609Q7.61719 9.74609 8.14941 10.2051Q8.68164 10.6641 8.68164 11.3574Q8.68164 12.0898 8.13477 12.5537Q7.58789 13.0176 6.69922 13.0176Q6.03516 13.0176 5.50781 12.6709Q4.98047 12.3242 4.78516 11.7285Q4.6875 11.4355 4.46289 11.4355Q4.31641 11.4355 4.22363 11.5332Q4.13086 11.6309 4.13086 11.7676Q4.13086 11.8555 4.14551 11.9189Q4.16016 11.9824 4.17969 12.041Q4.38477 12.6953 5.06836 13.1738Q5.75195 13.6523 6.68945 13.6523ZM11.709 13.584Q11.8262 13.584 11.9043 13.5254Q11.9824 13.4668 12.0508 13.3398L15.4785 6.42578Q15.5371 6.28906 15.5615 6.21094Q15.5859 6.13281 15.5859 6.04492Q15.5859 5.83008 15.4346 5.70312Q15.2832 5.57617 15.0488 5.57617L10.7812 5.57617Q10.625 5.57617 10.5371 5.65918Q10.4492 5.74219 10.4492 5.88867Q10.4492 6.02539 10.5371 6.11328Q10.625 6.20117 10.7812 6.20117L14.8633 6.20117L14.8633 6.24023L11.416 13.0273Q11.3574 13.125 11.3574 13.252Q11.3574 13.3789 11.4502 13.4814Q11.543 13.584 11.709 13.584Z" fill="#ffffff"/>
 </g>
</svg>
