<?xml version="1.0" encoding="UTF-8"?>
<!--Generator: Apple Native CoreSVG 175-->
<!DOCTYPE svg
PUBLIC "-//W3C//DTD SVG 1.1//EN"
       "http://www.w3.org/Graphics/SVG/1.1/DTD/svg11.dtd">
<svg version="1.1" xmlns="http://www.w3.org/2000/svg" xmlns:xlink="http://www.w3.org/1999/xlink" width="17.2852" height="17.3145">
 <g>
  <rect height="17.3145" opacity="0" width="17.2852" x="0" y="0"/>
  <path d="M2.62695 17.3145L14.6484 17.3145Q15.957 17.3145 16.6211 16.6455Q17.2852 15.9766 17.2852 14.6875L17.2852 2.65625Q17.2852 1.37695 16.6211 0.703125Q15.957 0.0292969 14.6484 0.0292969L2.62695 0.0292969Q1.33789 0.0292969 0.668945 0.693359Q0 1.35742 0 2.65625L0 14.6875Q0 15.9863 0.668945 16.6504Q1.33789 17.3145 2.62695 17.3145ZM5.44922 10.4883Q5.44922 10.4102 5.46875 10.3271Q5.48828 10.2441 5.55664 10.127Q6.02539 9.25781 6.59668 8.25195Q7.16797 7.24609 7.73438 6.26465Q8.30078 5.2832 8.76953 4.48242Q8.83789 4.36523 8.91602 4.30664Q8.99414 4.24805 9.11133 4.24805Q9.29688 4.24805 9.38477 4.35547Q9.47266 4.46289 9.47266 4.60938Q9.47266 4.66797 9.45801 4.72168Q9.44336 4.77539 9.4043 4.83398Q8.96484 5.66406 8.41309 6.61133Q7.86133 7.55859 7.3291 8.48633Q6.79688 9.41406 6.38672 10.1953L9.78516 10.1953L9.78516 7.66602Q9.78516 7.4707 9.88281 7.36816Q9.98047 7.26562 10.1465 7.26562Q10.3125 7.26562 10.4102 7.36816Q10.5078 7.4707 10.5078 7.66602L10.5078 10.1953L11.5625 10.1953Q11.7285 10.1953 11.8311 10.2881Q11.9336 10.3809 11.9336 10.5469Q11.9336 10.7031 11.8311 10.7959Q11.7285 10.8887 11.5625 10.8887L10.5078 10.8887L10.5078 12.666Q10.5078 12.8613 10.4102 12.9688Q10.3125 13.0762 10.1465 13.0762Q9.98047 13.0762 9.88281 12.9688Q9.78516 12.8613 9.78516 12.666L9.78516 10.8887L5.89844 10.8887Q5.69336 10.8887 5.57129 10.7812Q5.44922 10.6738 5.44922 10.4883Z" fill="#ffffff"/>
 </g>
</svg>
