<?xml version="1.0" encoding="UTF-8"?>
<!--Generator: Apple Native CoreSVG 175-->
<!DOCTYPE svg
PUBLIC "-//W3C//DTD SVG 1.1//EN"
       "http://www.w3.org/Graphics/SVG/1.1/DTD/svg11.dtd">
<svg version="1.1" xmlns="http://www.w3.org/2000/svg" xmlns:xlink="http://www.w3.org/1999/xlink" width="17.2852" height="17.3145">
 <g>
  <rect height="17.3145" opacity="0" width="17.2852" x="0" y="0"/>
  <path d="M2.62695 17.3145L14.6484 17.3145Q15.957 17.3145 16.6211 16.6455Q17.2852 15.9766 17.2852 14.6875L17.2852 2.65625Q17.2852 1.37695 16.6211 0.703125Q15.957 0.0292969 14.6484 0.0292969L2.62695 0.0292969Q1.33789 0.0292969 0.668945 0.693359Q0 1.35742 0 2.65625L0 14.6875Q0 15.9863 0.668945 16.6504Q1.33789 17.3145 2.62695 17.3145ZM2.65625 16.5918Q1.70898 16.5918 1.2207 16.1035Q0.732422 15.6152 0.732422 14.6582L0.732422 2.69531Q0.732422 1.72852 1.2207 1.24512Q1.70898 0.761719 2.65625 0.761719L14.6289 0.761719Q15.5566 0.761719 16.0596 1.24512Q16.5625 1.72852 16.5625 2.69531L16.5625 14.6582Q16.5625 15.6152 16.0596 16.1035Q15.5566 16.5918 14.6289 16.5918ZM6.58203 12.6758Q6.73828 12.6758 6.82129 12.5879Q6.9043 12.5 6.9043 12.3535L6.9043 10.7227L7.88086 10.7227Q8.18359 10.7227 8.18359 10.4297Q8.18359 10.293 8.0957 10.2002Q8.00781 10.1074 7.88086 10.1074L6.9043 10.1074L6.9043 5.06836Q6.9043 4.83398 6.75781 4.70215Q6.61133 4.57031 6.38672 4.57031Q6.16211 4.57031 6.00586 4.6582Q5.84961 4.74609 5.70312 4.9707Q5.41016 5.41992 4.98047 6.07422Q4.55078 6.72852 4.08691 7.44141Q3.62305 8.1543 3.20801 8.79395Q2.79297 9.43359 2.51953 9.85352Q2.46094 9.95117 2.43164 10.0537Q2.40234 10.1562 2.40234 10.2539Q2.40234 10.4883 2.54395 10.6055Q2.68555 10.7227 2.92969 10.7227L6.25977 10.7227L6.25977 12.3535Q6.25977 12.5 6.34766 12.5879Q6.43555 12.6758 6.58203 12.6758ZM6.25977 10.1074L3.125 10.1074L3.125 10.0879Q3.28125 9.80469 3.58887 9.32617Q3.89648 8.84766 4.26758 8.27637Q4.63867 7.70508 5.01465 7.13379Q5.39062 6.5625 5.71289 6.0791Q6.03516 5.5957 6.2207 5.30273L6.25977 5.30273ZM13.3105 12.6758Q13.4668 12.6758 13.5498 12.5879Q13.6328 12.5 13.6328 12.3535L13.6328 10.7227L14.6094 10.7227Q14.9121 10.7227 14.9121 10.4297Q14.9121 10.293 14.8291 10.2002Q14.7461 10.1074 14.6094 10.1074L13.6328 10.1074L13.6328 5.06836Q13.6328 4.83398 13.4912 4.70215Q13.3496 4.57031 13.1152 4.57031Q12.8906 4.57031 12.7344 4.6582Q12.5781 4.74609 12.4316 4.9707Q12.1387 5.41992 11.709 6.07422Q11.2793 6.72852 10.8154 7.44141Q10.3516 8.1543 9.93652 8.79395Q9.52148 9.43359 9.24805 9.85352Q9.18945 9.95117 9.16016 10.0537Q9.13086 10.1562 9.13086 10.2539Q9.13086 10.4883 9.27734 10.6055Q9.42383 10.7227 9.6582 10.7227L12.9883 10.7227L12.9883 12.3535Q12.9883 12.5 13.0762 12.5879Q13.1641 12.6758 13.3105 12.6758ZM12.9883 10.1074L9.85352 10.1074L9.85352 10.0879Q10.0195 9.80469 10.3223 9.32617Q10.625 8.84766 10.9961 8.27637Q11.3672 7.70508 11.7432 7.13379Q12.1191 6.5625 12.4414 6.0791Q12.7637 5.5957 12.959 5.30273L12.9883 5.30273Z" fill="#ffffff"/>
 </g>
</svg>
