<?xml version="1.0" encoding="UTF-8"?>
<!--Generator: Apple Native CoreSVG 175-->
<!DOCTYPE svg
PUBLIC "-//W3C//DTD SVG 1.1//EN"
       "http://www.w3.org/Graphics/SVG/1.1/DTD/svg11.dtd">
<svg version="1.1" xmlns="http://www.w3.org/2000/svg" xmlns:xlink="http://www.w3.org/1999/xlink" width="17.2852" height="17.3145">
 <g>
  <rect height="17.3145" opacity="0" width="17.2852" x="0" y="0"/>
  <path d="M2.62695 17.3145L14.6484 17.3145Q15.957 17.3145 16.6211 16.6455Q17.2852 15.9766 17.2852 14.6875L17.2852 2.65625Q17.2852 1.37695 16.6211 0.703125Q15.957 0.0292969 14.6484 0.0292969L2.62695 0.0292969Q1.33789 0.0292969 0.668945 0.693359Q0 1.35742 0 2.65625L0 14.6875Q0 15.9863 0.668945 16.6504Q1.33789 17.3145 2.62695 17.3145ZM8.64258 13.1543Q7.71484 13.1543 7.00684 12.5879Q6.29883 12.0215 5.9082 11.0059Q5.51758 9.99023 5.51758 8.65234Q5.51758 7.30469 5.9082 6.29395Q6.29883 5.2832 7.00684 4.7168Q7.71484 4.15039 8.64258 4.15039Q9.57031 4.15039 10.2734 4.7168Q10.9766 5.2832 11.3672 6.29395Q11.7578 7.30469 11.7578 8.65234Q11.7578 9.99023 11.3672 11.0059Q10.9766 12.0215 10.2734 12.5879Q9.57031 13.1543 8.64258 13.1543ZM8.64258 12.4902Q9.69727 12.4902 10.3613 11.4258Q11.0254 10.3613 11.0254 8.65234Q11.0254 6.94336 10.3613 5.87891Q9.69727 4.81445 8.64258 4.81445Q7.57812 4.81445 6.91895 5.87891Q6.25977 6.94336 6.25977 8.65234Q6.25977 10.3613 6.91895 11.4258Q7.57812 12.4902 8.64258 12.4902Z" fill="#ffffff"/>
 </g>
</svg>
