<?xml version="1.0" encoding="UTF-8"?>
<!--Generator: Apple Native CoreSVG 175-->
<!DOCTYPE svg
PUBLIC "-//W3C//DTD SVG 1.1//EN"
       "http://www.w3.org/Graphics/SVG/1.1/DTD/svg11.dtd">
<svg version="1.1" xmlns="http://www.w3.org/2000/svg" xmlns:xlink="http://www.w3.org/1999/xlink" width="17.2852" height="17.3145">
 <g>
  <rect height="17.3145" opacity="0" width="17.2852" x="0" y="0"/>
  <path d="M2.62695 17.3145L14.6484 17.3145Q15.957 17.3145 16.6211 16.6455Q17.2852 15.9766 17.2852 14.6875L17.2852 2.65625Q17.2852 1.37695 16.6211 0.703125Q15.957 0.0292969 14.6484 0.0292969L2.62695 0.0292969Q1.33789 0.0292969 0.668945 0.693359Q0 1.35742 0 2.65625L0 14.6875Q0 15.9863 0.668945 16.6504Q1.33789 17.3145 2.62695 17.3145ZM2.65625 16.5918Q1.70898 16.5918 1.2207 16.1035Q0.732422 15.6152 0.732422 14.6582L0.732422 2.69531Q0.732422 1.72852 1.2207 1.24512Q1.70898 0.761719 2.65625 0.761719L14.6289 0.761719Q15.5566 0.761719 16.0596 1.24512Q16.5625 1.72852 16.5625 2.69531L16.5625 14.6582Q16.5625 15.6152 16.0596 16.1035Q15.5566 16.5918 14.6289 16.5918ZM6.61133 12.6758Q6.76758 12.6758 6.85059 12.5879Q6.93359 12.5 6.93359 12.3535L6.93359 10.7227L7.91016 10.7227Q8.21289 10.7227 8.21289 10.4297Q8.21289 10.293 8.12988 10.2002Q8.04688 10.1074 7.91016 10.1074L6.93359 10.1074L6.93359 5.06836Q6.93359 4.83398 6.78711 4.70215Q6.64062 4.57031 6.41602 4.57031Q6.19141 4.57031 6.03516 4.6582Q5.87891 4.74609 5.73242 4.9707Q5.43945 5.41992 5.00977 6.07422Q4.58008 6.72852 4.11621 7.44141Q3.65234 8.1543 3.2373 8.79395Q2.82227 9.43359 2.54883 9.85352Q2.5 9.95117 2.46582 10.0537Q2.43164 10.1562 2.43164 10.2539Q2.43164 10.4883 2.57812 10.6055Q2.72461 10.7227 2.95898 10.7227L6.29883 10.7227L6.29883 12.3535Q6.29883 12.5 6.38184 12.5879Q6.46484 12.6758 6.61133 12.6758ZM6.29883 10.1074L3.1543 10.1074L3.1543 10.0879Q3.32031 9.80469 3.62305 9.32617Q3.92578 8.84766 4.29688 8.27637Q4.66797 7.70508 5.04395 7.13379Q5.41992 6.5625 5.74219 6.0791Q6.06445 5.5957 6.25977 5.30273L6.29883 5.30273ZM12.0801 12.7344Q13.2715 12.7344 14.0576 12.085Q14.8438 11.4355 14.8438 10.4199Q14.8438 9.70703 14.375 9.15039Q13.9062 8.59375 13.1836 8.44727L13.1836 8.39844Q13.7988 8.22266 14.1748 7.73438Q14.5508 7.24609 14.5508 6.64062Q14.5508 5.72266 13.8525 5.14648Q13.1543 4.57031 12.0801 4.57031Q11.0156 4.57031 10.3174 5.14648Q9.61914 5.72266 9.61914 6.64062Q9.61914 7.24609 9.99512 7.72461Q10.3711 8.20312 10.9961 8.39844L10.9961 8.44727Q10.2539 8.59375 9.78516 9.15039Q9.31641 9.70703 9.31641 10.4199Q9.31641 11.4453 10.0977 12.0898Q10.8789 12.7344 12.0801 12.7344ZM12.0801 12.1484Q11.1621 12.1484 10.5566 11.6602Q9.95117 11.1719 9.95117 10.4102Q9.95117 9.6875 10.5566 9.20898Q11.1621 8.73047 12.0801 8.73047Q13.0078 8.73047 13.6084 9.20898Q14.209 9.6875 14.209 10.4102Q14.209 11.1719 13.6133 11.6602Q13.0176 12.1484 12.0801 12.1484ZM12.0801 8.16406Q11.2891 8.16406 10.791 7.73438Q10.293 7.30469 10.293 6.66016Q10.293 5.99609 10.7861 5.57617Q11.2793 5.15625 12.0801 5.15625Q12.8809 5.15625 13.3789 5.57617Q13.877 5.99609 13.877 6.66016Q13.877 7.30469 13.374 7.73438Q12.8711 8.16406 12.0801 8.16406Z" fill="#ffffff"/>
 </g>
</svg>
