<?xml version="1.0" encoding="UTF-8"?>
<!--Generator: Apple Native CoreSVG 175-->
<!DOCTYPE svg
PUBLIC "-//W3C//DTD SVG 1.1//EN"
       "http://www.w3.org/Graphics/SVG/1.1/DTD/svg11.dtd">
<svg version="1.1" xmlns="http://www.w3.org/2000/svg" xmlns:xlink="http://www.w3.org/1999/xlink" width="19.1602" height="19.1504">
 <g>
  <rect height="19.1504" opacity="0" width="19.1602" x="0" y="0"/>
  <path d="M9.57031 19.1406Q11.5527 19.1406 13.2861 18.3984Q15.0195 17.6562 16.3379 16.333Q17.6562 15.0098 18.4082 13.2764Q19.1602 11.543 19.1602 9.57031Q19.1602 7.59766 18.4082 5.86426Q17.6562 4.13086 16.3379 2.80762Q15.0195 1.48438 13.2861 0.742188Q11.5527 0 9.57031 0Q7.59766 0 5.86426 0.742188Q4.13086 1.48438 2.81738 2.80762Q1.50391 4.13086 0.751953 5.86426Q0 7.59766 0 9.57031Q0 11.543 0.74707 13.2764Q1.49414 15.0098 2.8125 16.333Q4.13086 17.6562 5.86914 18.3984Q7.60742 19.1406 9.57031 19.1406ZM6.25 13.6816Q5.41992 13.6816 4.79492 13.1641Q4.16992 12.6465 3.81836 11.7236Q3.4668 10.8008 3.4668 9.57031Q3.4668 8.33984 3.81836 7.41211Q4.16992 6.48438 4.79492 5.97168Q5.41992 5.45898 6.25 5.45898Q7.08008 5.45898 7.70508 5.97168Q8.33008 6.48438 8.68164 7.41211Q9.0332 8.33984 9.0332 9.57031Q9.0332 10.8008 8.68164 11.7236Q8.33008 12.6465 7.70508 13.1641Q7.08008 13.6816 6.25 13.6816ZM6.25 13.0273Q7.1875 13.0273 7.76367 12.0752Q8.33984 11.123 8.33984 9.57031Q8.33984 8.01758 7.76367 7.06543Q7.1875 6.11328 6.25 6.11328Q5.32227 6.11328 4.73633 7.06543Q4.15039 8.01758 4.15039 9.57031Q4.15039 11.123 4.73633 12.0752Q5.32227 13.0273 6.25 13.0273ZM13.0566 13.6914Q12.1875 13.6914 11.6113 13.335Q11.0352 12.9785 10.7129 12.3145Q10.4688 11.8359 10.3613 11.2109Q10.2539 10.5859 10.2539 9.82422Q10.2539 7.73438 11.0352 6.59668Q11.8164 5.45898 13.2129 5.45898Q13.8281 5.45898 14.2969 5.67383Q14.7656 5.88867 15.0586 6.20605Q15.3516 6.52344 15.4492 6.80664Q15.4883 6.9043 15.4883 7.00195Q15.4883 7.12891 15.4102 7.2168Q15.332 7.30469 15.1855 7.30469Q15.0879 7.30469 15.0146 7.24609Q14.9414 7.1875 14.8828 7.08008Q14.6484 6.63086 14.2041 6.3623Q13.7598 6.09375 13.1934 6.09375Q12.1191 6.09375 11.499 7.0752Q10.8789 8.05664 10.8789 9.80469Q10.8789 9.82422 10.8789 9.84863Q10.8789 9.87305 10.8789 9.89258L10.9082 9.89258Q11.1621 9.26758 11.792 8.86719Q12.4219 8.4668 13.2129 8.4668Q14.3066 8.4668 15.0342 9.1748Q15.7617 9.88281 15.7617 11.0059Q15.7617 12.2168 15.0098 12.9541Q14.2578 13.6914 13.0566 13.6914ZM13.0566 13.0566Q13.9746 13.0566 14.5312 12.5098Q15.0879 11.9629 15.0879 11.0449Q15.0879 10.1562 14.5215 9.61426Q13.9551 9.07227 13.0664 9.07227Q12.168 9.07227 11.5967 9.62402Q11.0254 10.1758 11.0254 11.0352Q11.0254 11.9141 11.5967 12.4854Q12.168 13.0566 13.0566 13.0566Z" fill="#ffffff"/>
 </g>
</svg>
