<?xml version="1.0" encoding="UTF-8"?>
<!--Generator: Apple Native CoreSVG 175-->
<!DOCTYPE svg
PUBLIC "-//W3C//DTD SVG 1.1//EN"
       "http://www.w3.org/Graphics/SVG/1.1/DTD/svg11.dtd">
<svg version="1.1" xmlns="http://www.w3.org/2000/svg" xmlns:xlink="http://www.w3.org/1999/xlink" width="19.1602" height="19.1504">
 <g>
  <rect height="19.1504" opacity="0" width="19.1602" x="0" y="0"/>
  <path d="M9.57031 19.1406Q11.5527 19.1406 13.2861 18.3984Q15.0195 17.6562 16.3379 16.333Q17.6562 15.0098 18.4082 13.2764Q19.1602 11.543 19.1602 9.57031Q19.1602 7.59766 18.4082 5.86426Q17.6562 4.13086 16.3379 2.80762Q15.0195 1.48438 13.2861 0.742188Q11.5527 0 9.57031 0Q7.59766 0 5.86426 0.742188Q4.13086 1.48438 2.81738 2.80762Q1.50391 4.13086 0.751953 5.86426Q0 7.59766 0 9.57031Q0 11.543 0.74707 13.2764Q1.49414 15.0098 2.8125 16.333Q4.13086 17.6562 5.86914 18.3984Q7.60742 19.1406 9.57031 19.1406ZM9.57031 18.3984Q7.74414 18.3984 6.14746 17.71Q4.55078 17.0215 3.33496 15.8105Q2.11914 14.5996 1.43555 12.998Q0.751953 11.3965 0.751953 9.57031Q0.751953 7.74414 1.43555 6.14258Q2.11914 4.54102 3.33496 3.3252Q4.55078 2.10938 6.14746 1.4209Q7.74414 0.732422 9.57031 0.732422Q11.4062 0.732422 13.0029 1.4209Q14.5996 2.10938 15.8154 3.3252Q17.0312 4.54102 17.7197 6.14258Q18.4082 7.74414 18.4082 9.57031Q18.4082 11.3965 17.7246 12.998Q17.041 14.5996 15.8252 15.8105Q14.6094 17.0215 13.0078 17.71Q11.4062 18.3984 9.57031 18.3984ZM4.58984 13.5059L8.7793 13.5059Q8.92578 13.5059 9.00391 13.4131Q9.08203 13.3203 9.08203 13.1836Q9.08203 13.0469 9.00391 12.959Q8.92578 12.8711 8.7793 12.8711L5.20508 12.8711L5.20508 12.8418L7.59766 10.0488Q8.24219 9.29688 8.5498 8.74512Q8.85742 8.19336 8.85742 7.60742Q8.85742 6.64062 8.20312 6.06445Q7.54883 5.48828 6.48438 5.48828Q5.58594 5.48828 4.89258 5.99609Q4.19922 6.50391 4.05273 7.28516Q4.04297 7.36328 4.0332 7.42676Q4.02344 7.49023 4.02344 7.55859Q4.02344 7.70508 4.11133 7.80273Q4.19922 7.90039 4.3457 7.90039Q4.49219 7.90039 4.57031 7.81738Q4.64844 7.73438 4.67773 7.58789Q4.75586 6.94336 5.25391 6.5332Q5.75195 6.12305 6.50391 6.12305Q7.27539 6.12305 7.72949 6.52832Q8.18359 6.93359 8.18359 7.61719Q8.18359 8.0957 7.94434 8.53027Q7.70508 8.96484 7.23633 9.51172L4.3457 12.8516Q4.23828 12.9785 4.23828 13.1641Q4.23828 13.3301 4.33594 13.418Q4.43359 13.5059 4.58984 13.5059ZM14.1895 13.5938Q14.3359 13.5938 14.4238 13.5059Q14.5117 13.418 14.5117 13.2715L14.5117 11.6406L15.4883 11.6406Q15.791 11.6406 15.791 11.3477Q15.791 11.2109 15.7031 11.1182Q15.6152 11.0254 15.4883 11.0254L14.5117 11.0254L14.5117 5.98633Q14.5117 5.75195 14.3652 5.62012Q14.2188 5.48828 13.9844 5.48828Q13.7695 5.48828 13.6133 5.57617Q13.457 5.66406 13.3008 5.88867Q13.0078 6.33789 12.583 6.99219Q12.1582 7.64648 11.6943 8.35938Q11.2305 9.07227 10.8105 9.71191Q10.3906 10.3516 10.1172 10.7715Q10.0684 10.8691 10.0391 10.9717Q10.0098 11.0742 10.0098 11.1719Q10.0098 11.4062 10.1514 11.5234Q10.293 11.6406 10.5273 11.6406L13.8574 11.6406L13.8574 13.2715Q13.8574 13.418 13.9502 13.5059Q14.043 13.5938 14.1895 13.5938ZM13.8574 11.0254L10.7324 11.0254L10.7324 11.0059Q10.8887 10.7227 11.1963 10.2441Q11.5039 9.76562 11.875 9.19434Q12.2461 8.62305 12.6221 8.05176Q12.998 7.48047 13.3203 6.99707Q13.6426 6.51367 13.8281 6.2207L13.8574 6.2207Z" fill="#ffffff"/>
 </g>
</svg>
