<?xml version="1.0" encoding="UTF-8"?>
<!--Generator: Apple Native CoreSVG 175-->
<!DOCTYPE svg
PUBLIC "-//W3C//DTD SVG 1.1//EN"
       "http://www.w3.org/Graphics/SVG/1.1/DTD/svg11.dtd">
<svg version="1.1" xmlns="http://www.w3.org/2000/svg" xmlns:xlink="http://www.w3.org/1999/xlink" width="19.1602" height="19.1504">
 <g>
  <rect height="19.1504" opacity="0" width="19.1602" x="0" y="0"/>
  <path d="M9.57031 19.1406Q11.5527 19.1406 13.2861 18.3984Q15.0195 17.6562 16.3379 16.333Q17.6562 15.0098 18.4082 13.2764Q19.1602 11.543 19.1602 9.57031Q19.1602 7.59766 18.4082 5.86426Q17.6562 4.13086 16.3379 2.80762Q15.0195 1.48438 13.2861 0.742188Q11.5527 0 9.57031 0Q7.59766 0 5.86426 0.742188Q4.13086 1.48438 2.81738 2.80762Q1.50391 4.13086 0.751953 5.86426Q0 7.59766 0 9.57031Q0 11.543 0.74707 13.2764Q1.49414 15.0098 2.8125 16.333Q4.13086 17.6562 5.86914 18.3984Q7.60742 19.1406 9.57031 19.1406ZM9.57031 18.3984Q7.74414 18.3984 6.14746 17.71Q4.55078 17.0215 3.33496 15.8105Q2.11914 14.5996 1.43555 12.998Q0.751953 11.3965 0.751953 9.57031Q0.751953 7.74414 1.43555 6.14258Q2.11914 4.54102 3.33496 3.3252Q4.55078 2.10938 6.14746 1.4209Q7.74414 0.732422 9.57031 0.732422Q11.4062 0.732422 13.0029 1.4209Q14.5996 2.10938 15.8154 3.3252Q17.0312 4.54102 17.7197 6.14258Q18.4082 7.74414 18.4082 9.57031Q18.4082 11.3965 17.7246 12.998Q17.041 14.5996 15.8252 15.8105Q14.6094 17.0215 13.0078 17.71Q11.4062 18.3984 9.57031 18.3984ZM6.75781 13.5742Q7.08984 13.5742 7.08984 13.252L7.08984 5.9082Q7.08984 5.74219 6.98242 5.64453Q6.875 5.54688 6.71875 5.54688Q6.60156 5.54688 6.50879 5.58105Q6.41602 5.61523 6.30859 5.68359L4.42383 6.91406Q4.25781 7.02148 4.25781 7.20703Q4.25781 7.33398 4.3457 7.42676Q4.43359 7.51953 4.56055 7.51953Q4.61914 7.51953 4.6582 7.51465Q4.69727 7.50977 4.75586 7.46094L6.39648 6.37695L6.43555 6.37695L6.43555 13.252Q6.43555 13.5742 6.75781 13.5742ZM11.7188 13.6523Q12.8809 13.6523 13.6279 13.0078Q14.375 12.3633 14.375 11.3672Q14.375 10.6055 13.8623 10.0439Q13.3496 9.48242 12.5781 9.4043L12.5781 9.38477Q13.2324 9.26758 13.6719 8.7207Q14.1113 8.17383 14.1113 7.49023Q14.1113 6.61133 13.4326 6.0498Q12.7539 5.48828 11.7188 5.48828Q10.8594 5.48828 10.1904 5.92285Q9.52148 6.35742 9.35547 7.08008Q9.31641 7.2168 9.31641 7.36328Q9.31641 7.51953 9.39941 7.61719Q9.48242 7.71484 9.64844 7.71484Q9.77539 7.71484 9.85352 7.6416Q9.93164 7.56836 9.9707 7.41211Q10.0879 6.82617 10.5518 6.47461Q11.0156 6.12305 11.709 6.12305Q12.4805 6.12305 12.959 6.52344Q13.4375 6.92383 13.4375 7.56836Q13.4375 8.22266 12.959 8.66699Q12.4805 9.11133 11.748 9.11133L11.0254 9.11133Q10.8887 9.11133 10.8008 9.19922Q10.7129 9.28711 10.7129 9.43359Q10.7129 9.57031 10.7959 9.6582Q10.8789 9.74609 11.0254 9.74609L11.8164 9.74609Q12.6367 9.74609 13.1689 10.2051Q13.7012 10.6641 13.7012 11.3574Q13.7012 12.0898 13.1543 12.5537Q12.6074 13.0176 11.7188 13.0176Q11.0547 13.0176 10.5322 12.6709Q10.0098 12.3242 9.81445 11.7285Q9.70703 11.4355 9.48242 11.4355Q9.33594 11.4355 9.24316 11.5332Q9.15039 11.6309 9.15039 11.7676Q9.15039 11.8555 9.16504 11.9189Q9.17969 11.9824 9.19922 12.041Q9.41406 12.6953 10.0928 13.1738Q10.7715 13.6523 11.7188 13.6523Z" fill="#ffffff"/>
 </g>
</svg>
