<?xml version="1.0" encoding="UTF-8"?>
<!--Generator: Apple Native CoreSVG 175-->
<!DOCTYPE svg
PUBLIC "-//W3C//DTD SVG 1.1//EN"
       "http://www.w3.org/Graphics/SVG/1.1/DTD/svg11.dtd">
<svg version="1.1" xmlns="http://www.w3.org/2000/svg" xmlns:xlink="http://www.w3.org/1999/xlink" width="17.2852" height="17.3145">
 <g>
  <rect height="17.3145" opacity="0" width="17.2852" x="0" y="0"/>
  <path d="M2.62695 17.3145L14.6484 17.3145Q15.957 17.3145 16.6211 16.6455Q17.2852 15.9766 17.2852 14.6875L17.2852 2.65625Q17.2852 1.37695 16.6211 0.703125Q15.957 0.0292969 14.6484 0.0292969L2.62695 0.0292969Q1.33789 0.0292969 0.668945 0.693359Q0 1.35742 0 2.65625L0 14.6875Q0 15.9863 0.668945 16.6504Q1.33789 17.3145 2.62695 17.3145ZM5.3418 12.7637Q4.51172 12.7637 3.88672 12.2461Q3.26172 11.7285 2.91016 10.8057Q2.55859 9.88281 2.55859 8.65234Q2.55859 7.42188 2.91016 6.49414Q3.26172 5.56641 3.88672 5.05371Q4.51172 4.54102 5.3418 4.54102Q6.17188 4.54102 6.79688 5.05371Q7.42188 5.56641 7.77344 6.49414Q8.125 7.42188 8.125 8.65234Q8.125 9.88281 7.77344 10.8057Q7.42188 11.7285 6.79688 12.2461Q6.17188 12.7637 5.3418 12.7637ZM5.3418 12.1094Q6.2793 12.1094 6.86035 11.1572Q7.44141 10.2051 7.44141 8.65234Q7.44141 7.09961 6.86035 6.14746Q6.2793 5.19531 5.3418 5.19531Q4.41406 5.19531 3.82812 6.14746Q3.24219 7.09961 3.24219 8.65234Q3.24219 10.2051 3.82812 11.1572Q4.41406 12.1094 5.3418 12.1094ZM12.0117 12.7637Q11.0645 12.7637 10.3809 12.2803Q9.69727 11.7969 9.48242 11.1426Q9.46289 11.0742 9.44824 11.0156Q9.43359 10.957 9.43359 10.8691Q9.43359 10.7227 9.52148 10.6201Q9.60938 10.5176 9.76562 10.5176Q10 10.5176 10.1074 10.8203Q10.3027 11.4258 10.8252 11.7725Q11.3477 12.1191 12.0117 12.1191Q12.9199 12.1191 13.4668 11.6504Q14.0137 11.1816 14.0137 10.4492Q14.0137 9.75586 13.4766 9.29688Q12.9395 8.83789 12.1191 8.83789L11.3184 8.83789Q11.1719 8.83789 11.0938 8.74512Q11.0156 8.65234 11.0156 8.51562Q11.0156 8.36914 11.0986 8.28125Q11.1816 8.19336 11.3184 8.19336L12.0508 8.19336Q12.7832 8.19336 13.2617 7.74414Q13.7402 7.29492 13.7402 6.64062Q13.7402 5.98633 13.2617 5.58105Q12.7832 5.17578 12.0117 5.17578Q11.3086 5.17578 10.8398 5.53711Q10.3711 5.89844 10.2539 6.48438Q10.2246 6.64062 10.1465 6.71387Q10.0684 6.78711 9.94141 6.78711Q9.75586 6.78711 9.67773 6.68457Q9.59961 6.58203 9.59961 6.42578Q9.59961 6.2793 9.62891 6.15234Q9.80469 5.41992 10.4785 4.98047Q11.1523 4.54102 12.0215 4.54102Q13.0664 4.54102 13.7451 5.10742Q14.4238 5.67383 14.4238 6.5625Q14.4238 7.24609 13.9795 7.79785Q13.5352 8.34961 12.8809 8.4668L12.8809 8.48633Q13.6621 8.56445 14.1797 9.13086Q14.6973 9.69727 14.6973 10.459Q14.6973 11.4648 13.9404 12.1143Q13.1836 12.7637 12.0117 12.7637Z" fill="#ffffff"/>
 </g>
</svg>
