<?xml version="1.0" encoding="UTF-8"?>
<!--Generator: Apple Native CoreSVG 175-->
<!DOCTYPE svg
PUBLIC "-//W3C//DTD SVG 1.1//EN"
       "http://www.w3.org/Graphics/SVG/1.1/DTD/svg11.dtd">
<svg version="1.1" xmlns="http://www.w3.org/2000/svg" xmlns:xlink="http://www.w3.org/1999/xlink" width="19.1602" height="19.1504">
 <g>
  <rect height="19.1504" opacity="0" width="19.1602" x="0" y="0"/>
  <path d="M9.57031 19.1406Q11.5527 19.1406 13.2861 18.3984Q15.0195 17.6562 16.3379 16.333Q17.6562 15.0098 18.4082 13.2764Q19.1602 11.543 19.1602 9.57031Q19.1602 7.59766 18.4082 5.86426Q17.6562 4.13086 16.3379 2.80762Q15.0195 1.48438 13.2861 0.742188Q11.5527 0 9.57031 0Q7.59766 0 5.86426 0.742188Q4.13086 1.48438 2.81738 2.80762Q1.50391 4.13086 0.751953 5.86426Q0 7.59766 0 9.57031Q0 11.543 0.74707 13.2764Q1.49414 15.0098 2.8125 16.333Q4.13086 17.6562 5.86914 18.3984Q7.60742 19.1406 9.57031 19.1406ZM9.57031 18.3984Q7.74414 18.3984 6.14746 17.71Q4.55078 17.0215 3.33496 15.8105Q2.11914 14.5996 1.43555 12.998Q0.751953 11.3965 0.751953 9.57031Q0.751953 7.74414 1.43555 6.14258Q2.11914 4.54102 3.33496 3.3252Q4.55078 2.10938 6.14746 1.4209Q7.74414 0.732422 9.57031 0.732422Q11.4062 0.732422 13.0029 1.4209Q14.5996 2.10938 15.8154 3.3252Q17.0312 4.54102 17.7197 6.14258Q18.4082 7.74414 18.4082 9.57031Q18.4082 11.3965 17.7246 12.998Q17.041 14.5996 15.8252 15.8105Q14.6094 17.0215 13.0078 17.71Q11.4062 18.3984 9.57031 18.3984ZM4.39453 13.5059L8.58398 13.5059Q8.73047 13.5059 8.80859 13.4131Q8.88672 13.3203 8.88672 13.1836Q8.88672 13.0469 8.80859 12.959Q8.73047 12.8711 8.58398 12.8711L5.00977 12.8711L5.00977 12.8418L7.40234 10.0488Q8.04688 9.29688 8.35449 8.74512Q8.66211 8.19336 8.66211 7.60742Q8.66211 6.64062 8.00781 6.06445Q7.35352 5.48828 6.28906 5.48828Q5.39062 5.48828 4.69727 5.99609Q4.00391 6.50391 3.85742 7.28516Q3.84766 7.36328 3.83789 7.42676Q3.82812 7.49023 3.82812 7.55859Q3.82812 7.70508 3.91602 7.80273Q4.00391 7.90039 4.15039 7.90039Q4.29688 7.90039 4.375 7.81738Q4.45312 7.73438 4.48242 7.58789Q4.56055 6.94336 5.05859 6.5332Q5.55664 6.12305 6.30859 6.12305Q7.08008 6.12305 7.53418 6.52832Q7.98828 6.93359 7.98828 7.61719Q7.98828 8.0957 7.74902 8.53027Q7.50977 8.96484 7.04102 9.51172L4.15039 12.8516Q4.04297 12.9785 4.04297 13.1641Q4.04297 13.3301 4.14062 13.418Q4.23828 13.5059 4.39453 13.5059ZM12.8223 13.6523Q14.0137 13.6523 14.7998 13.0029Q15.5859 12.3535 15.5859 11.3379Q15.5859 10.625 15.1172 10.0684Q14.6484 9.51172 13.916 9.36523L13.916 9.31641Q14.5312 9.14062 14.9121 8.65234Q15.293 8.16406 15.293 7.55859Q15.293 6.64062 14.5898 6.06445Q13.8867 5.48828 12.8125 5.48828Q11.748 5.48828 11.0498 6.06445Q10.3516 6.64062 10.3516 7.55859Q10.3516 8.16406 10.7275 8.64258Q11.1035 9.12109 11.7285 9.31641L11.7285 9.36523Q10.9961 9.51172 10.5273 10.0684Q10.0586 10.625 10.0586 11.3379Q10.0586 12.3633 10.835 13.0078Q11.6113 13.6523 12.8223 13.6523ZM12.8223 13.0664Q11.8945 13.0664 11.2939 12.5781Q10.6934 12.0898 10.6934 11.3281Q10.6934 10.6055 11.2939 10.127Q11.8945 9.64844 12.8223 9.64844Q13.7598 9.64844 14.3506 10.127Q14.9414 10.6055 14.9414 11.3281Q14.9414 12.0898 14.3457 12.5781Q13.75 13.0664 12.8223 13.0664ZM12.8125 9.08203Q12.0312 9.08203 11.5332 8.65234Q11.0352 8.22266 11.0352 7.57812Q11.0352 6.91406 11.5283 6.49414Q12.0215 6.07422 12.8125 6.07422Q13.623 6.07422 14.1162 6.49414Q14.6094 6.91406 14.6094 7.57812Q14.6094 8.22266 14.1113 8.65234Q13.6133 9.08203 12.8125 9.08203Z" fill="#ffffff"/>
 </g>
</svg>
