<?xml version="1.0" encoding="UTF-8"?>
<!--Generator: Apple Native CoreSVG 175-->
<!DOCTYPE svg
PUBLIC "-//W3C//DTD SVG 1.1//EN"
       "http://www.w3.org/Graphics/SVG/1.1/DTD/svg11.dtd">
<svg version="1.1" xmlns="http://www.w3.org/2000/svg" xmlns:xlink="http://www.w3.org/1999/xlink" width="19.1602" height="19.1504">
 <g>
  <rect height="19.1504" opacity="0" width="19.1602" x="0" y="0"/>
  <path d="M9.57031 19.1406Q11.5527 19.1406 13.2861 18.3984Q15.0195 17.6562 16.3379 16.333Q17.6562 15.0098 18.4082 13.2764Q19.1602 11.543 19.1602 9.57031Q19.1602 7.59766 18.4082 5.86426Q17.6562 4.13086 16.3379 2.80762Q15.0195 1.48438 13.2861 0.742188Q11.5527 0 9.57031 0Q7.59766 0 5.86426 0.742188Q4.13086 1.48438 2.81738 2.80762Q1.50391 4.13086 0.751953 5.86426Q0 7.59766 0 9.57031Q0 11.543 0.74707 13.2764Q1.49414 15.0098 2.8125 16.333Q4.13086 17.6562 5.86914 18.3984Q7.60742 19.1406 9.57031 19.1406ZM9.57031 18.3984Q7.74414 18.3984 6.14746 17.71Q4.55078 17.0215 3.33496 15.8105Q2.11914 14.5996 1.43555 12.998Q0.751953 11.3965 0.751953 9.57031Q0.751953 7.74414 1.43555 6.14258Q2.11914 4.54102 3.33496 3.3252Q4.55078 2.10938 6.14746 1.4209Q7.74414 0.732422 9.57031 0.732422Q11.4062 0.732422 13.0029 1.4209Q14.5996 2.10938 15.8154 3.3252Q17.0312 4.54102 17.7197 6.14258Q18.4082 7.74414 18.4082 9.57031Q18.4082 11.3965 17.7246 12.998Q17.041 14.5996 15.8252 15.8105Q14.6094 17.0215 13.0078 17.71Q11.4062 18.3984 9.57031 18.3984ZM4.26758 13.5059L8.45703 13.5059Q8.60352 13.5059 8.68164 13.4131Q8.75977 13.3203 8.75977 13.1836Q8.75977 13.0469 8.68164 12.959Q8.60352 12.8711 8.45703 12.8711L4.88281 12.8711L4.88281 12.8418L7.27539 10.0488Q7.91992 9.29688 8.22754 8.74512Q8.53516 8.19336 8.53516 7.60742Q8.53516 6.64062 7.88086 6.06445Q7.22656 5.48828 6.16211 5.48828Q5.26367 5.48828 4.57031 5.99609Q3.87695 6.50391 3.73047 7.28516Q3.7207 7.36328 3.71094 7.42676Q3.70117 7.49023 3.70117 7.55859Q3.70117 7.70508 3.78906 7.80273Q3.87695 7.90039 4.02344 7.90039Q4.16992 7.90039 4.24805 7.81738Q4.32617 7.73438 4.35547 7.58789Q4.43359 6.94336 4.93164 6.5332Q5.42969 6.12305 6.18164 6.12305Q6.95312 6.12305 7.40723 6.52832Q7.86133 6.93359 7.86133 7.61719Q7.86133 8.0957 7.62207 8.53027Q7.38281 8.96484 6.91406 9.51172L4.02344 12.8516Q3.91602 12.9785 3.91602 13.1641Q3.91602 13.3301 4.01367 13.418Q4.11133 13.5059 4.26758 13.5059ZM12.793 13.6523Q14.0039 13.6523 14.7559 12.9248Q15.5078 12.1973 15.5078 10.9961Q15.5078 9.89258 14.8047 9.16504Q14.1016 8.4375 12.998 8.4375Q12.4414 8.4375 11.9287 8.68164Q11.416 8.92578 11.1035 9.3457L11.084 9.3457L11.3281 6.18164L14.8535 6.18164Q14.9805 6.18164 15.0684 6.09375Q15.1562 6.00586 15.1562 5.87891Q15.1562 5.75195 15.0684 5.66406Q14.9805 5.57617 14.8535 5.57617L11.2012 5.57617Q10.9961 5.57617 10.874 5.70312Q10.752 5.83008 10.7422 6.03516L10.4492 9.61914Q10.4395 9.81445 10.5469 9.93164Q10.6543 10.0488 10.8301 10.0488Q10.9473 10.0488 11.0352 10.0146Q11.123 9.98047 11.2207 9.87305Q11.6406 9.42383 12.0459 9.22852Q12.4512 9.0332 12.9297 9.0332Q13.7793 9.0332 14.3213 9.58984Q14.8633 10.1465 14.8633 11.0059Q14.8633 11.8945 14.292 12.4609Q13.7207 13.0273 12.8613 13.0273Q12.1582 13.0273 11.626 12.6855Q11.0938 12.3438 10.9277 11.8066Q10.8789 11.6797 10.8008 11.6064Q10.7227 11.5332 10.6055 11.5332Q10.4785 11.5332 10.3906 11.6162Q10.3027 11.6992 10.3027 11.8359Q10.3027 11.8945 10.3174 11.9531Q10.332 12.0117 10.3516 12.0801Q10.5762 12.7441 11.2109 13.1982Q11.8457 13.6523 12.793 13.6523Z" fill="#ffffff"/>
 </g>
</svg>
