<?xml version="1.0" encoding="UTF-8"?>
<!--Generator: Apple Native CoreSVG 175-->
<!DOCTYPE svg
PUBLIC "-//W3C//DTD SVG 1.1//EN"
       "http://www.w3.org/Graphics/SVG/1.1/DTD/svg11.dtd">
<svg version="1.1" xmlns="http://www.w3.org/2000/svg" xmlns:xlink="http://www.w3.org/1999/xlink" width="17.2852" height="17.3145">
 <g>
  <rect height="17.3145" opacity="0" width="17.2852" x="0" y="0"/>
  <path d="M2.62695 17.3145L14.6484 17.3145Q15.957 17.3145 16.6211 16.6455Q17.2852 15.9766 17.2852 14.6875L17.2852 2.65625Q17.2852 1.37695 16.6211 0.703125Q15.957 0.0292969 14.6484 0.0292969L2.62695 0.0292969Q1.33789 0.0292969 0.668945 0.693359Q0 1.35742 0 2.65625L0 14.6875Q0 15.9863 0.668945 16.6504Q1.33789 17.3145 2.62695 17.3145ZM9.0625 13.0664Q8.89648 13.0664 8.79395 12.9541Q8.69141 12.8418 8.69141 12.666L8.69141 5.09766L8.64258 5.09766L6.79688 6.2793Q6.72852 6.32812 6.68457 6.34277Q6.64062 6.35742 6.58203 6.35742Q6.45508 6.35742 6.3623 6.25977Q6.26953 6.16211 6.26953 6.03516Q6.26953 5.92773 6.31348 5.85938Q6.35742 5.79102 6.44531 5.72266L8.48633 4.39453Q8.65234 4.27734 8.76953 4.2334Q8.88672 4.18945 9.02344 4.18945Q9.20898 4.18945 9.32617 4.30176Q9.44336 4.41406 9.44336 4.60938L9.44336 12.666Q9.44336 12.8418 9.3457 12.9541Q9.24805 13.0664 9.0625 13.0664Z" fill="#ffffff"/>
 </g>
</svg>
