<?xml version="1.0" encoding="UTF-8"?>
<!--Generator: Apple Native CoreSVG 175-->
<!DOCTYPE svg
PUBLIC "-//W3C//DTD SVG 1.1//EN"
       "http://www.w3.org/Graphics/SVG/1.1/DTD/svg11.dtd">
<svg version="1.1" xmlns="http://www.w3.org/2000/svg" xmlns:xlink="http://www.w3.org/1999/xlink" width="17.2852" height="17.3145">
 <g>
  <rect height="17.3145" opacity="0" width="17.2852" x="0" y="0"/>
  <path d="M2.62695 17.3145L14.6484 17.3145Q15.957 17.3145 16.6211 16.6455Q17.2852 15.9766 17.2852 14.6875L17.2852 2.65625Q17.2852 1.37695 16.6211 0.703125Q15.957 0.0292969 14.6484 0.0292969L2.62695 0.0292969Q1.33789 0.0292969 0.668945 0.693359Q0 1.35742 0 2.65625L0 14.6875Q0 15.9863 0.668945 16.6504Q1.33789 17.3145 2.62695 17.3145ZM2.65625 16.5918Q1.70898 16.5918 1.2207 16.1035Q0.732422 15.6152 0.732422 14.6582L0.732422 2.69531Q0.732422 1.72852 1.2207 1.24512Q1.70898 0.761719 2.65625 0.761719L14.6289 0.761719Q15.5566 0.761719 16.0596 1.24512Q16.5625 1.72852 16.5625 2.69531L16.5625 14.6582Q16.5625 15.6152 16.0596 16.1035Q15.5566 16.5918 14.6289 16.5918ZM5.52734 12.7441Q6.72852 12.7441 7.48535 12.0166Q8.24219 11.2891 8.24219 10.0879Q8.24219 8.98438 7.53906 8.25684Q6.83594 7.5293 5.72266 7.5293Q5.16602 7.5293 4.6582 7.77344Q4.15039 8.01758 3.82812 8.4375L3.81836 8.4375L4.0625 5.27344L7.57812 5.27344Q7.70508 5.27344 7.79785 5.18555Q7.89062 5.09766 7.89062 4.9707Q7.89062 4.84375 7.80273 4.75586Q7.71484 4.66797 7.57812 4.66797L3.93555 4.66797Q3.73047 4.66797 3.6084 4.79492Q3.48633 4.92188 3.47656 5.12695L3.18359 8.71094Q3.17383 8.90625 3.27637 9.02344Q3.37891 9.14062 3.56445 9.14062Q3.68164 9.14062 3.76465 9.10645Q3.84766 9.07227 3.95508 8.96484Q4.375 8.51562 4.78027 8.32031Q5.18555 8.125 5.6543 8.125Q6.51367 8.125 7.05566 8.68164Q7.59766 9.23828 7.59766 10.0977Q7.59766 10.9863 7.02637 11.5527Q6.45508 12.1191 5.58594 12.1191Q4.89258 12.1191 4.35547 11.7773Q3.81836 11.4355 3.66211 10.8984Q3.61328 10.7715 3.53516 10.6982Q3.45703 10.625 3.33984 10.625Q3.21289 10.625 3.125 10.708Q3.03711 10.791 3.03711 10.9277Q3.03711 10.9863 3.05176 11.0449Q3.06641 11.1035 3.08594 11.1719Q3.30078 11.8359 3.93555 12.29Q4.57031 12.7441 5.52734 12.7441ZM12.2949 12.7441Q13.1152 12.7441 13.7354 12.2314Q14.3555 11.7188 14.707 10.8008Q15.0586 9.88281 15.0586 8.66211Q15.0586 7.44141 14.707 6.51855Q14.3555 5.5957 13.7354 5.08789Q13.1152 4.58008 12.2949 4.58008Q11.4648 4.58008 10.8447 5.08789Q10.2246 5.5957 9.87793 6.51855Q9.53125 7.44141 9.53125 8.66211Q9.53125 9.88281 9.87793 10.8008Q10.2246 11.7188 10.8447 12.2314Q11.4648 12.7441 12.2949 12.7441ZM12.2949 12.0996Q11.3574 12.0996 10.7812 11.1523Q10.2051 10.2051 10.2051 8.66211Q10.2051 7.11914 10.7812 6.17188Q11.3574 5.22461 12.2949 5.22461Q13.2227 5.22461 13.8037 6.17188Q14.3848 7.11914 14.3848 8.66211Q14.3848 10.2051 13.8037 11.1523Q13.2227 12.0996 12.2949 12.0996Z" fill="#ffffff"/>
 </g>
</svg>
