<?xml version="1.0" encoding="UTF-8"?>
<!--Generator: Apple Native CoreSVG 175-->
<!DOCTYPE svg
PUBLIC "-//W3C//DTD SVG 1.1//EN"
       "http://www.w3.org/Graphics/SVG/1.1/DTD/svg11.dtd">
<svg version="1.1" xmlns="http://www.w3.org/2000/svg" xmlns:xlink="http://www.w3.org/1999/xlink" width="17.2852" height="17.3145">
 <g>
  <rect height="17.3145" opacity="0" width="17.2852" x="0" y="0"/>
  <path d="M2.62695 17.3145L14.6484 17.3145Q15.957 17.3145 16.6211 16.6455Q17.2852 15.9766 17.2852 14.6875L17.2852 2.65625Q17.2852 1.37695 16.6211 0.703125Q15.957 0.0292969 14.6484 0.0292969L2.62695 0.0292969Q1.33789 0.0292969 0.668945 0.693359Q0 1.35742 0 2.65625L0 14.6875Q0 15.9863 0.668945 16.6504Q1.33789 17.3145 2.62695 17.3145ZM2.65625 16.5918Q1.70898 16.5918 1.2207 16.1035Q0.732422 15.6152 0.732422 14.6582L0.732422 2.69531Q0.732422 1.72852 1.2207 1.24512Q1.70898 0.761719 2.65625 0.761719L14.6289 0.761719Q15.5566 0.761719 16.0596 1.24512Q16.5625 1.72852 16.5625 2.69531L16.5625 14.6582Q16.5625 15.6152 16.0596 16.1035Q15.5566 16.5918 14.6289 16.5918ZM5.52734 12.7344Q6.34766 12.7344 6.97266 12.2217Q7.59766 11.709 7.94434 10.791Q8.29102 9.87305 8.29102 8.65234Q8.29102 7.43164 7.94434 6.50879Q7.59766 5.58594 6.97266 5.07812Q6.34766 4.57031 5.52734 4.57031Q4.70703 4.57031 4.08203 5.07812Q3.45703 5.58594 3.11035 6.50879Q2.76367 7.43164 2.76367 8.65234Q2.76367 9.87305 3.11035 10.791Q3.45703 11.709 4.08203 12.2217Q4.70703 12.7344 5.52734 12.7344ZM5.52734 12.0898Q4.59961 12.0898 4.01855 11.1426Q3.4375 10.1953 3.4375 8.65234Q3.4375 7.10938 4.01855 6.16211Q4.59961 5.21484 5.52734 5.21484Q6.45508 5.21484 7.03613 6.16211Q7.61719 7.10938 7.61719 8.65234Q7.61719 10.1953 7.03613 11.1426Q6.45508 12.0898 5.52734 12.0898ZM10.1562 12.5879L14.3555 12.5879Q14.4922 12.5879 14.5752 12.4951Q14.6582 12.4023 14.6582 12.2656Q14.6582 12.1289 14.5752 12.041Q14.4922 11.9531 14.3555 11.9531L10.7715 11.9531L10.7715 11.9238L13.1738 9.13086Q13.8184 8.37891 14.126 7.82715Q14.4336 7.27539 14.4336 6.68945Q14.4336 5.72266 13.7793 5.14648Q13.125 4.57031 12.0605 4.57031Q11.1523 4.57031 10.459 5.07812Q9.76562 5.58594 9.61914 6.36719Q9.60938 6.44531 9.59961 6.50879Q9.58984 6.57227 9.58984 6.64062Q9.58984 6.78711 9.67773 6.88477Q9.76562 6.98242 9.91211 6.98242Q10.0684 6.98242 10.1465 6.89941Q10.2246 6.81641 10.2441 6.66992Q10.332 6.02539 10.8301 5.61523Q11.3281 5.20508 12.0703 5.20508Q12.8516 5.20508 13.3057 5.61035Q13.7598 6.01562 13.7598 6.69922Q13.7598 7.17773 13.5156 7.6123Q13.2715 8.04688 12.8125 8.59375L9.92188 11.9336Q9.80469 12.0605 9.80469 12.2461Q9.80469 12.4121 9.90723 12.5Q10.0098 12.5879 10.1562 12.5879Z" fill="#ffffff"/>
 </g>
</svg>
