<?xml version="1.0" encoding="UTF-8"?>
<!--Generator: Apple Native CoreSVG 175-->
<!DOCTYPE svg
PUBLIC "-//W3C//DTD SVG 1.1//EN"
       "http://www.w3.org/Graphics/SVG/1.1/DTD/svg11.dtd">
<svg version="1.1" xmlns="http://www.w3.org/2000/svg" xmlns:xlink="http://www.w3.org/1999/xlink" width="19.1602" height="19.1504">
 <g>
  <rect height="19.1504" opacity="0" width="19.1602" x="0" y="0"/>
  <path d="M9.57031 19.1406Q11.5527 19.1406 13.2861 18.3984Q15.0195 17.6562 16.3379 16.333Q17.6562 15.0098 18.4082 13.2764Q19.1602 11.543 19.1602 9.57031Q19.1602 7.59766 18.4082 5.86426Q17.6562 4.13086 16.3379 2.80762Q15.0195 1.48438 13.2861 0.742188Q11.5527 0 9.57031 0Q7.59766 0 5.86426 0.742188Q4.13086 1.48438 2.81738 2.80762Q1.50391 4.13086 0.751953 5.86426Q0 7.59766 0 9.57031Q0 11.543 0.74707 13.2764Q1.49414 15.0098 2.8125 16.333Q4.13086 17.6562 5.86914 18.3984Q7.60742 19.1406 9.57031 19.1406ZM7.53906 13.6328Q7.39258 13.6328 7.2998 13.5352Q7.20703 13.4375 7.20703 13.291L7.20703 11.6699L3.85742 11.6699Q3.62305 11.6699 3.47656 11.543Q3.33008 11.416 3.33008 11.1816Q3.33008 11.084 3.36426 10.9766Q3.39844 10.8691 3.44727 10.7715Q3.7207 10.3516 4.14062 9.70703Q4.56055 9.0625 5.02441 8.34473Q5.48828 7.62695 5.91797 6.97266Q6.34766 6.31836 6.65039 5.86914Q6.79688 5.63477 6.95312 5.54688Q7.10938 5.45898 7.33398 5.45898Q7.56836 5.45898 7.71484 5.5957Q7.86133 5.73242 7.86133 5.9668L7.86133 11.0352L8.84766 11.0352Q8.97461 11.0352 9.0625 11.1279Q9.15039 11.2207 9.15039 11.3574Q9.15039 11.4941 9.06738 11.582Q8.98438 11.6699 8.84766 11.6699L7.86133 11.6699L7.86133 13.291Q7.86133 13.4375 7.77832 13.5352Q7.69531 13.6328 7.53906 13.6328ZM7.20703 11.0352L7.20703 6.20117L7.17773 6.20117Q6.98242 6.50391 6.66016 6.9873Q6.33789 7.4707 5.95703 8.05176Q5.57617 8.63281 5.20508 9.19922Q4.83398 9.76562 4.53125 10.249Q4.22852 10.7324 4.0625 11.0156L4.0625 11.0352ZM10.8594 13.5352Q10.6934 13.5352 10.5957 13.4424Q10.498 13.3496 10.498 13.1836Q10.498 13.0078 10.6152 12.8711L13.5156 9.50195Q13.9844 8.95508 14.2285 8.52051Q14.4727 8.08594 14.4727 7.60742Q14.4727 6.92383 14.0137 6.50879Q13.5547 6.09375 12.7734 6.09375Q12.0215 6.09375 11.5234 6.50879Q11.0254 6.92383 10.9473 7.57812Q10.918 7.72461 10.835 7.80762Q10.752 7.89062 10.6152 7.89062Q10.459 7.89062 10.3711 7.79297Q10.2832 7.69531 10.2832 7.54883Q10.2832 7.4707 10.293 7.41211Q10.3027 7.35352 10.3125 7.26562Q10.459 6.48438 11.1523 5.97168Q11.8457 5.45898 12.7637 5.45898Q13.8379 5.45898 14.4922 6.04004Q15.1465 6.62109 15.1465 7.58789Q15.1465 8.19336 14.8389 8.74512Q14.5312 9.29688 13.8867 10.0488L11.4746 12.8516L11.4746 12.8906L15.0684 12.8906Q15.2148 12.8906 15.2979 12.9785Q15.3809 13.0664 15.3809 13.2129Q15.3809 13.3496 15.2979 13.4424Q15.2148 13.5352 15.0684 13.5352Z" fill="#ffffff"/>
 </g>
</svg>
