<?xml version="1.0" encoding="UTF-8"?>
<!--Generator: Apple Native CoreSVG 175-->
<!DOCTYPE svg
PUBLIC "-//W3C//DTD SVG 1.1//EN"
       "http://www.w3.org/Graphics/SVG/1.1/DTD/svg11.dtd">
<svg version="1.1" xmlns="http://www.w3.org/2000/svg" xmlns:xlink="http://www.w3.org/1999/xlink" width="19.1602" height="19.1504">
 <g>
  <rect height="19.1504" opacity="0" width="19.1602" x="0" y="0"/>
  <path d="M9.57031 19.1406Q11.5527 19.1406 13.2861 18.3984Q15.0195 17.6562 16.3379 16.333Q17.6562 15.0098 18.4082 13.2764Q19.1602 11.543 19.1602 9.57031Q19.1602 7.59766 18.4082 5.86426Q17.6562 4.13086 16.3379 2.80762Q15.0195 1.48438 13.2861 0.742188Q11.5527 0 9.57031 0Q7.59766 0 5.86426 0.742188Q4.13086 1.48438 2.81738 2.80762Q1.50391 4.13086 0.751953 5.86426Q0 7.59766 0 9.57031Q0 11.543 0.74707 13.2764Q1.49414 15.0098 2.8125 16.333Q4.13086 17.6562 5.86914 18.3984Q7.60742 19.1406 9.57031 19.1406ZM6.5625 13.6035Q6.42578 13.6035 6.33301 13.5156Q6.24023 13.4277 6.24023 13.2715L6.24023 6.35742L6.19141 6.35742L4.55078 7.45117Q4.49219 7.49023 4.44824 7.5Q4.4043 7.50977 4.35547 7.50977Q4.22852 7.50977 4.13574 7.41699Q4.04297 7.32422 4.04297 7.19727Q4.04297 7.00195 4.21875 6.89453L6.09375 5.66406Q6.21094 5.58594 6.30371 5.55176Q6.39648 5.51758 6.52344 5.51758Q6.68945 5.51758 6.79199 5.61523Q6.89453 5.71289 6.89453 5.88867L6.89453 13.2715Q6.89453 13.4277 6.80664 13.5156Q6.71875 13.6035 6.5625 13.6035ZM12.0312 13.6914Q11.1523 13.6914 10.5811 13.335Q10.0098 12.9785 9.67773 12.3145Q9.44336 11.8359 9.33105 11.2109Q9.21875 10.5859 9.21875 9.82422Q9.21875 7.73438 10 6.59668Q10.7812 5.45898 12.168 5.45898Q12.793 5.45898 13.2568 5.67383Q13.7207 5.88867 14.0186 6.20605Q14.3164 6.52344 14.4141 6.80664Q14.4434 6.9043 14.4434 7.00195Q14.4434 7.12891 14.3701 7.2168Q14.2969 7.30469 14.1602 7.30469Q14.043 7.30469 13.9746 7.24609Q13.9062 7.1875 13.8477 7.08008Q13.6133 6.63086 13.1738 6.3623Q12.7344 6.09375 12.168 6.09375Q11.084 6.09375 10.4688 7.0752Q9.85352 8.05664 9.85352 9.80469Q9.85352 9.82422 9.85352 9.84863Q9.85352 9.87305 9.85352 9.89258L9.86328 9.89258Q10.127 9.26758 10.7568 8.86719Q11.3867 8.4668 12.1777 8.4668Q13.2715 8.4668 13.999 9.1748Q14.7266 9.88281 14.7266 11.0059Q14.7266 12.2168 13.9795 12.9541Q13.2324 13.6914 12.0312 13.6914ZM12.0215 13.0566Q12.9395 13.0566 13.501 12.5098Q14.0625 11.9629 14.0625 11.0449Q14.0625 10.1562 13.4961 9.61426Q12.9297 9.07227 12.0312 9.07227Q11.1426 9.07227 10.5615 9.62402Q9.98047 10.1758 9.98047 11.0352Q9.98047 11.9141 10.5566 12.4854Q11.1328 13.0566 12.0215 13.0566Z" fill="#ffffff"/>
 </g>
</svg>
