<?xml version="1.0" encoding="UTF-8"?>
<!--Generator: Apple Native CoreSVG 175-->
<!DOCTYPE svg
PUBLIC "-//W3C//DTD SVG 1.1//EN"
       "http://www.w3.org/Graphics/SVG/1.1/DTD/svg11.dtd">
<svg version="1.1" xmlns="http://www.w3.org/2000/svg" xmlns:xlink="http://www.w3.org/1999/xlink" width="17.2852" height="17.3145">
 <g>
  <rect height="17.3145" opacity="0" width="17.2852" x="0" y="0"/>
  <path d="M2.62695 17.3145L14.6484 17.3145Q15.957 17.3145 16.6211 16.6455Q17.2852 15.9766 17.2852 14.6875L17.2852 2.65625Q17.2852 1.37695 16.6211 0.703125Q15.957 0.0292969 14.6484 0.0292969L2.62695 0.0292969Q1.33789 0.0292969 0.668945 0.693359Q0 1.35742 0 2.65625L0 14.6875Q0 15.9863 0.668945 16.6504Q1.33789 17.3145 2.62695 17.3145ZM3.7793 12.6172Q3.61328 12.6172 3.51562 12.5244Q3.41797 12.4316 3.41797 12.2656Q3.41797 12.0898 3.53516 11.9531L6.43555 8.59375Q6.9043 8.03711 7.14844 7.60254Q7.39258 7.16797 7.39258 6.68945Q7.39258 6.00586 6.93359 5.59082Q6.47461 5.17578 5.69336 5.17578Q4.95117 5.17578 4.44824 5.59082Q3.94531 6.00586 3.86719 6.66016Q3.83789 6.80664 3.75488 6.88965Q3.67188 6.97266 3.53516 6.97266Q3.37891 6.97266 3.29102 6.875Q3.20312 6.77734 3.20312 6.63086Q3.20312 6.55273 3.21289 6.49414Q3.22266 6.43555 3.23242 6.34766Q3.37891 5.56641 4.07227 5.05371Q4.76562 4.54102 5.68359 4.54102Q6.75781 4.54102 7.41699 5.12207Q8.07617 5.70312 8.07617 6.66992Q8.07617 7.27539 7.76855 7.82715Q7.46094 8.37891 6.80664 9.13086L4.39453 11.9336L4.39453 11.9727L7.98828 11.9727Q8.13477 11.9727 8.21777 12.0605Q8.30078 12.1484 8.30078 12.2949Q8.30078 12.4316 8.21777 12.5244Q8.13477 12.6172 7.98828 12.6172ZM10.7227 12.6953Q10.5664 12.6953 10.4736 12.5928Q10.3809 12.4902 10.3809 12.3535Q10.3809 12.2266 10.4395 12.1289L13.8965 5.3125L13.8965 5.26367L9.80469 5.26367Q9.63867 5.26367 9.55078 5.17578Q9.46289 5.08789 9.46289 4.95117Q9.46289 4.80469 9.55078 4.7168Q9.63867 4.62891 9.80469 4.62891L14.0918 4.62891Q14.3262 4.62891 14.4775 4.76074Q14.6289 4.89258 14.6289 5.09766Q14.6289 5.19531 14.6045 5.27344Q14.5801 5.35156 14.5117 5.48828L11.0742 12.4512Q11.0156 12.5781 10.9326 12.6367Q10.8496 12.6953 10.7227 12.6953Z" fill="#ffffff"/>
 </g>
</svg>
