<?xml version="1.0" encoding="UTF-8"?>
<!--Generator: Apple Native CoreSVG 175-->
<!DOCTYPE svg
PUBLIC "-//W3C//DTD SVG 1.1//EN"
       "http://www.w3.org/Graphics/SVG/1.1/DTD/svg11.dtd">
<svg version="1.1" xmlns="http://www.w3.org/2000/svg" xmlns:xlink="http://www.w3.org/1999/xlink" width="19.1602" height="19.1504">
 <g>
  <rect height="19.1504" opacity="0" width="19.1602" x="0" y="0"/>
  <path d="M9.57031 19.1406Q11.5527 19.1406 13.2861 18.3984Q15.0195 17.6562 16.3379 16.333Q17.6562 15.0098 18.4082 13.2764Q19.1602 11.543 19.1602 9.57031Q19.1602 7.59766 18.4082 5.86426Q17.6562 4.13086 16.3379 2.80762Q15.0195 1.48438 13.2861 0.742188Q11.5527 0 9.57031 0Q7.59766 0 5.86426 0.742188Q4.13086 1.48438 2.81738 2.80762Q1.50391 4.13086 0.751953 5.86426Q0 7.59766 0 9.57031Q0 11.543 0.74707 13.2764Q1.49414 15.0098 2.8125 16.333Q4.13086 17.6562 5.86914 18.3984Q7.60742 19.1406 9.57031 19.1406ZM9.57031 18.3984Q7.74414 18.3984 6.14746 17.71Q4.55078 17.0215 3.33496 15.8105Q2.11914 14.5996 1.43555 12.998Q0.751953 11.3965 0.751953 9.57031Q0.751953 7.74414 1.43555 6.14258Q2.11914 4.54102 3.33496 3.3252Q4.55078 2.10938 6.14746 1.4209Q7.74414 0.732422 9.57031 0.732422Q11.4062 0.732422 13.0029 1.4209Q14.5996 2.10938 15.8154 3.3252Q17.0312 4.54102 17.7197 6.14258Q18.4082 7.74414 18.4082 9.57031Q18.4082 11.3965 17.7246 12.998Q17.041 14.5996 15.8252 15.8105Q14.6094 17.0215 13.0078 17.71Q11.4062 18.3984 9.57031 18.3984ZM6.19141 13.6523Q7.35352 13.6523 8.11035 13.0078Q8.86719 12.3633 8.86719 11.3672Q8.86719 10.6055 8.34473 10.0439Q7.82227 9.48242 7.06055 9.4043L7.06055 9.38477Q7.70508 9.26758 8.14941 8.7207Q8.59375 8.17383 8.59375 7.49023Q8.59375 6.61133 7.91992 6.0498Q7.24609 5.48828 6.20117 5.48828Q5.3418 5.48828 4.67285 5.92285Q4.00391 6.35742 3.82812 7.08008Q3.79883 7.2168 3.79883 7.36328Q3.79883 7.51953 3.87695 7.61719Q3.95508 7.71484 4.13086 7.71484Q4.25781 7.71484 4.33594 7.6416Q4.41406 7.56836 4.45312 7.41211Q4.57031 6.82617 5.0293 6.47461Q5.48828 6.12305 6.19141 6.12305Q6.96289 6.12305 7.43652 6.52344Q7.91016 6.92383 7.91016 7.56836Q7.91016 8.22266 7.43652 8.66699Q6.96289 9.11133 6.23047 9.11133L5.50781 9.11133Q5.37109 9.11133 5.2832 9.19922Q5.19531 9.28711 5.19531 9.43359Q5.19531 9.57031 5.27832 9.6582Q5.36133 9.74609 5.50781 9.74609L6.29883 9.74609Q7.11914 9.74609 7.65137 10.2051Q8.18359 10.6641 8.18359 11.3574Q8.18359 12.0898 7.63672 12.5537Q7.08984 13.0176 6.19141 13.0176Q5.53711 13.0176 5.01465 12.6709Q4.49219 12.3242 4.29688 11.7285Q4.19922 11.4355 3.95508 11.4355Q3.80859 11.4355 3.7207 11.5332Q3.63281 11.6309 3.63281 11.7676Q3.63281 11.8555 3.64746 11.9189Q3.66211 11.9824 3.68164 12.041Q3.89648 12.6953 4.5752 13.1738Q5.25391 13.6523 6.19141 13.6523ZM12.7246 13.6523Q14.1504 13.6523 14.8975 12.5293Q15.6445 11.4062 15.6445 9.11133Q15.6445 7.29492 14.8779 6.3916Q14.1113 5.48828 12.8516 5.48828Q11.6797 5.48828 10.9229 6.23047Q10.166 6.97266 10.166 8.13477Q10.166 8.87695 10.498 9.46289Q10.8301 10.0488 11.3916 10.3809Q11.9531 10.7129 12.666 10.7129Q13.5254 10.7129 14.1211 10.3271Q14.7168 9.94141 15.0098 9.24805L15.0391 9.24805Q15.0391 10.498 14.7656 11.3379Q14.4922 12.1777 13.9697 12.6074Q13.4473 13.0371 12.7246 13.0371Q12.1582 13.0371 11.709 12.7686Q11.2598 12.5 11.0547 12.0703Q10.9277 11.7969 10.7129 11.7969Q10.5859 11.7969 10.5078 11.8848Q10.4297 11.9727 10.4297 12.1094Q10.4297 12.2852 10.5664 12.5391Q10.791 12.9199 11.3672 13.2861Q11.9434 13.6523 12.7246 13.6523ZM12.8418 10.127Q11.9531 10.127 11.3916 9.55078Q10.8301 8.97461 10.8301 8.0957Q10.8301 7.2168 11.4014 6.65527Q11.9727 6.09375 12.8613 6.09375Q13.7207 6.09375 14.3066 6.66992Q14.8926 7.24609 14.8926 8.11523Q14.8926 8.97461 14.3115 9.55078Q13.7305 10.127 12.8418 10.127Z" fill="#ffffff"/>
 </g>
</svg>
