<?xml version="1.0" encoding="UTF-8"?>
<!--Generator: Apple Native CoreSVG 175-->
<!DOCTYPE svg
PUBLIC "-//W3C//DTD SVG 1.1//EN"
       "http://www.w3.org/Graphics/SVG/1.1/DTD/svg11.dtd">
<svg version="1.1" xmlns="http://www.w3.org/2000/svg" xmlns:xlink="http://www.w3.org/1999/xlink" width="17.2852" height="17.3145">
 <g>
  <rect height="17.3145" opacity="0" width="17.2852" x="0" y="0"/>
  <path d="M2.62695 17.3145L14.6484 17.3145Q15.957 17.3145 16.6211 16.6455Q17.2852 15.9766 17.2852 14.6875L17.2852 2.65625Q17.2852 1.37695 16.6211 0.703125Q15.957 0.0292969 14.6484 0.0292969L2.62695 0.0292969Q1.33789 0.0292969 0.668945 0.693359Q0 1.35742 0 2.65625L0 14.6875Q0 15.9863 0.668945 16.6504Q1.33789 17.3145 2.62695 17.3145ZM2.65625 16.5918Q1.70898 16.5918 1.2207 16.1035Q0.732422 15.6152 0.732422 14.6582L0.732422 2.69531Q0.732422 1.72852 1.2207 1.24512Q1.70898 0.761719 2.65625 0.761719L14.6289 0.761719Q15.5566 0.761719 16.0596 1.24512Q16.5625 1.72852 16.5625 2.69531L16.5625 14.6582Q16.5625 15.6152 16.0596 16.1035Q15.5566 16.5918 14.6289 16.5918ZM6.14258 12.7344Q7.30469 12.7344 8.05664 12.0898Q8.80859 11.4453 8.80859 10.4492Q8.80859 9.6875 8.29102 9.12598Q7.77344 8.56445 7.01172 8.48633L7.01172 8.4668Q7.66602 8.34961 8.10547 7.80273Q8.54492 7.25586 8.54492 6.57227Q8.54492 5.69336 7.86621 5.13184Q7.1875 4.57031 6.15234 4.57031Q5.29297 4.57031 4.62402 5.00488Q3.95508 5.43945 3.7793 6.16211Q3.75 6.29883 3.75 6.44531Q3.75 6.60156 3.83301 6.69922Q3.91602 6.79688 4.08203 6.79688Q4.20898 6.79688 4.28711 6.72363Q4.36523 6.65039 4.4043 6.49414Q4.52148 5.9082 4.98047 5.55664Q5.43945 5.20508 6.14258 5.20508Q6.91406 5.20508 7.39258 5.60547Q7.87109 6.00586 7.87109 6.65039Q7.87109 7.30469 7.39258 7.74902Q6.91406 8.19336 6.18164 8.19336L5.45898 8.19336Q5.32227 8.19336 5.23438 8.28125Q5.14648 8.36914 5.14648 8.51562Q5.14648 8.65234 5.22949 8.74023Q5.3125 8.82812 5.45898 8.82812L6.25 8.82812Q7.07031 8.82812 7.60254 9.28711Q8.13477 9.74609 8.13477 10.4395Q8.13477 11.1719 7.58789 11.6357Q7.04102 12.0996 6.15234 12.0996Q5.48828 12.0996 4.96094 11.7529Q4.43359 11.4062 4.23828 10.8105Q4.14062 10.5176 3.91602 10.5176Q3.76953 10.5176 3.67676 10.6152Q3.58398 10.7129 3.58398 10.8496Q3.58398 10.9375 3.59863 11.001Q3.61328 11.0645 3.63281 11.123Q3.83789 11.7773 4.52148 12.2559Q5.20508 12.7344 6.14258 12.7344ZM12.8223 12.6562Q13.1445 12.6562 13.1445 12.334L13.1445 4.99023Q13.1445 4.82422 13.042 4.72656Q12.9395 4.62891 12.7734 4.62891Q12.6562 4.62891 12.5635 4.66309Q12.4707 4.69727 12.3633 4.76562L10.4785 5.99609Q10.3125 6.10352 10.3125 6.28906Q10.3125 6.41602 10.4053 6.50879Q10.498 6.60156 10.6152 6.60156Q10.6738 6.60156 10.7129 6.59668Q10.752 6.5918 10.8203 6.54297L12.4512 5.45898L12.4902 5.45898L12.4902 12.334Q12.4902 12.6562 12.8223 12.6562Z" fill="#ffffff"/>
 </g>
</svg>
