<?xml version="1.0" encoding="UTF-8"?>
<!--Generator: Apple Native CoreSVG 175.5-->
<!DOCTYPE svg
PUBLIC "-//W3C//DTD SVG 1.1//EN"
       "http://www.w3.org/Graphics/SVG/1.1/DTD/svg11.dtd">
<svg version="1.1" xmlns="http://www.w3.org/2000/svg" xmlns:xlink="http://www.w3.org/1999/xlink" width="17.9785" height="17.998">
 <g>
  <rect height="17.998" opacity="0" width="17.9785" x="0" y="0"/>
  <path d="M3.06641 17.998L14.9121 17.998Q16.4453 17.998 17.2119 17.2412Q17.9785 16.4844 17.9785 14.9707L17.9785 3.04688Q17.9785 1.5332 17.2119 0.776367Q16.4453 0.0195312 14.9121 0.0195312L3.06641 0.0195312Q1.5332 0.0195312 0.766602 0.776367Q0 1.5332 0 3.04688L0 14.9707Q0 16.4844 0.766602 17.2412Q1.5332 17.998 3.06641 17.998Z" fill="#007aff"/>
  <path d="M8.99414 13.7891Q7.91992 13.7891 7.11914 13.1885Q6.31836 12.5879 5.87402 11.5088Q5.42969 10.4297 5.42969 8.99414Q5.42969 7.55859 5.87402 6.47949Q6.31836 5.40039 7.11914 4.7998Q7.91992 4.19922 8.99414 4.19922Q10.0586 4.19922 10.8594 4.7998Q11.6602 5.40039 12.1045 6.47949Q12.5488 7.55859 12.5488 8.99414Q12.5488 10.4297 12.1045 11.5088Q11.6602 12.5879 10.8594 13.1885Q10.0586 13.7891 8.99414 13.7891ZM8.99414 12.4902Q9.89258 12.4902 10.4492 11.5283Q11.0059 10.5664 11.0059 8.99414Q11.0059 7.42188 10.4492 6.45996Q9.89258 5.49805 8.99414 5.49805Q8.0957 5.49805 7.53906 6.45996Q6.98242 7.42188 6.98242 8.99414Q6.98242 10.5664 7.53906 11.5283Q8.0957 12.4902 8.99414 12.4902Z" fill="#ffffff"/>
 </g>
</svg>
