<?xml version="1.0" encoding="UTF-8"?>
<!--Generator: Apple Native CoreSVG 175.5-->
<!DOCTYPE svg
PUBLIC "-//W3C//DTD SVG 1.1//EN"
       "http://www.w3.org/Graphics/SVG/1.1/DTD/svg11.dtd">
<svg version="1.1" xmlns="http://www.w3.org/2000/svg" xmlns:xlink="http://www.w3.org/1999/xlink" width="17.9785" height="17.998">
 <g>
  <rect height="17.998" opacity="0" width="17.9785" x="0" y="0"/>
  <path d="M3.06641 17.998L14.9121 17.998Q16.4453 17.998 17.2119 17.2412Q17.9785 16.4844 17.9785 14.9707L17.9785 3.04688Q17.9785 1.5332 17.2119 0.776367Q16.4453 0.0195312 14.9121 0.0195312L3.06641 0.0195312Q1.5332 0.0195312 0.766602 0.776367Q0 1.5332 0 3.04688L0 14.9707Q0 16.4844 0.766602 17.2412Q1.5332 17.998 3.06641 17.998Z" fill="#007aff"/>
  <path d="M5.48828 13.3398Q4.61914 13.3398 3.97461 12.8125Q3.33008 12.2852 2.96875 11.3135Q2.60742 10.3418 2.60742 8.99414Q2.60742 7.64648 2.96875 6.6748Q3.33008 5.70312 3.97461 5.17578Q4.61914 4.64844 5.48828 4.64844Q6.35742 4.64844 7.00684 5.17578Q7.65625 5.70312 8.0127 6.6748Q8.36914 7.64648 8.36914 8.99414Q8.36914 10.3418 8.0127 11.3135Q7.65625 12.2852 7.00684 12.8125Q6.35742 13.3398 5.48828 13.3398ZM5.48828 12.1094Q6.2207 12.1094 6.63086 11.2744Q7.04102 10.4395 7.04102 8.99414Q7.04102 7.54883 6.62598 6.71387Q6.21094 5.87891 5.48828 5.87891Q4.76562 5.87891 4.35059 6.71387Q3.93555 7.54883 3.93555 8.99414Q3.93555 10.4395 4.35059 11.2744Q4.76562 12.1094 5.48828 12.1094ZM12.4902 13.3398Q11.6211 13.3398 10.9717 12.8125Q10.3223 12.2852 9.96582 11.3135Q9.60938 10.3418 9.60938 8.99414Q9.60938 7.64648 9.96582 6.6748Q10.3223 5.70312 10.9717 5.17578Q11.6211 4.64844 12.4902 4.64844Q13.3594 4.64844 14.0039 5.17578Q14.6484 5.70312 15.0098 6.6748Q15.3711 7.64648 15.3711 8.99414Q15.3711 10.3418 15.0098 11.3135Q14.6484 12.2852 14.0039 12.8125Q13.3594 13.3398 12.4902 13.3398ZM12.4902 12.1094Q13.2129 12.1094 13.6279 11.2744Q14.043 10.4395 14.043 8.99414Q14.043 7.54883 13.6279 6.71387Q13.2129 5.87891 12.4902 5.87891Q11.7676 5.87891 11.3525 6.71387Q10.9375 7.54883 10.9375 8.99414Q10.9375 10.4395 11.3525 11.2744Q11.7676 12.1094 12.4902 12.1094Z" fill="#ffffff"/>
 </g>
</svg>
