<?xml version="1.0" encoding="UTF-8"?>
<!--Generator: Apple Native CoreSVG 175.5-->
<!DOCTYPE svg
PUBLIC "-//W3C//DTD SVG 1.1//EN"
       "http://www.w3.org/Graphics/SVG/1.1/DTD/svg11.dtd">
<svg version="1.1" xmlns="http://www.w3.org/2000/svg" xmlns:xlink="http://www.w3.org/1999/xlink" width="19.9219" height="19.9316">
 <g>
  <rect height="19.9316" opacity="0" width="19.9219" x="0" y="0"/>
  <path d="M9.96094 19.9219Q12.002 19.9219 13.8037 19.1406Q15.6055 18.3594 16.9824 16.9824Q18.3594 15.6055 19.1406 13.8037Q19.9219 12.002 19.9219 9.96094Q19.9219 7.91992 19.1406 6.11816Q18.3594 4.31641 16.9824 2.93945Q15.6055 1.5625 13.7988 0.78125Q11.9922 0 9.95117 0Q7.91016 0 6.1084 0.78125Q4.30664 1.5625 2.93457 2.93945Q1.5625 4.31641 0.78125 6.11816Q0 7.91992 0 9.96094Q0 12.002 0.78125 13.8037Q1.5625 15.6055 2.93945 16.9824Q4.31641 18.3594 6.11816 19.1406Q7.91992 19.9219 9.96094 19.9219Z" fill="#007aff"/>
  <path d="M6.67969 14.3066Q5.81055 14.3066 5.16113 13.7793Q4.51172 13.252 4.15527 12.2803Q3.79883 11.3086 3.79883 9.96094Q3.79883 8.61328 4.15527 7.6416Q4.51172 6.66992 5.16113 6.14258Q5.81055 5.61523 6.67969 5.61523Q7.54883 5.61523 8.19336 6.14258Q8.83789 6.66992 9.19922 7.6416Q9.56055 8.61328 9.56055 9.96094Q9.56055 11.3086 9.19922 12.2803Q8.83789 13.252 8.19336 13.7793Q7.54883 14.3066 6.67969 14.3066ZM6.67969 13.0762Q7.41211 13.0762 7.82227 12.2412Q8.23242 11.4062 8.23242 9.96094Q8.23242 8.51562 7.81738 7.68066Q7.40234 6.8457 6.67969 6.8457Q5.95703 6.8457 5.54199 7.68066Q5.12695 8.51562 5.12695 9.96094Q5.12695 11.4062 5.54199 12.2412Q5.95703 13.0762 6.67969 13.0762ZM11.3574 14.0723Q11.0938 14.0723 10.9326 13.9062Q10.7715 13.7402 10.7715 13.4766Q10.7715 13.3203 10.8203 13.1885Q10.8691 13.0566 10.9961 12.9297L13.6523 9.80469Q14.0039 9.38477 14.3311 8.95508Q14.6582 8.52539 14.6582 8.02734Q14.6582 7.4707 14.292 7.12891Q13.9258 6.78711 13.3203 6.78711Q12.7734 6.78711 12.4023 7.06543Q12.0312 7.34375 11.8359 7.91016Q11.7383 8.13477 11.6064 8.25684Q11.4746 8.37891 11.2598 8.37891Q10.9961 8.37891 10.8447 8.21289Q10.6934 8.04688 10.6934 7.77344Q10.6934 7.68555 10.708 7.59766Q10.7227 7.50977 10.7422 7.41211Q10.9375 6.64062 11.6553 6.12793Q12.373 5.61523 13.2715 5.61523Q14.4531 5.61523 15.1611 6.24023Q15.8691 6.86523 15.8691 7.91992Q15.8691 8.67188 15.5029 9.26758Q15.1367 9.86328 14.5703 10.5176L12.6074 12.8027L12.6074 12.8809L15.5273 12.8809Q15.7715 12.8809 15.9326 13.0322Q16.0938 13.1836 16.0938 13.4668Q16.0938 13.7402 15.9326 13.9062Q15.7715 14.0723 15.5273 14.0723Z" fill="#ffffff"/>
 </g>
</svg>
