<?xml version="1.0" encoding="UTF-8"?>
<!--Generator: Apple Native CoreSVG 175.5-->
<!DOCTYPE svg
PUBLIC "-//W3C//DTD SVG 1.1//EN"
       "http://www.w3.org/Graphics/SVG/1.1/DTD/svg11.dtd">
<svg version="1.1" xmlns="http://www.w3.org/2000/svg" xmlns:xlink="http://www.w3.org/1999/xlink" width="17.9785" height="17.998">
 <g>
  <rect height="17.998" opacity="0" width="17.9785" x="0" y="0"/>
  <path d="M3.06641 17.998L14.9121 17.998Q16.4453 17.998 17.2119 17.2412Q17.9785 16.4844 17.9785 14.9707L17.9785 3.04688Q17.9785 1.5332 17.2119 0.776367Q16.4453 0.0195312 14.9121 0.0195312L3.06641 0.0195312Q1.5332 0.0195312 0.766602 0.776367Q0 1.5332 0 3.04688L0 14.9707Q0 16.4844 0.766602 17.2412Q1.5332 17.998 3.06641 17.998ZM3.08594 16.4258Q2.35352 16.4258 1.96289 16.04Q1.57227 15.6543 1.57227 14.8926L1.57227 3.125Q1.57227 2.36328 1.96289 1.97754Q2.35352 1.5918 3.08594 1.5918L14.8926 1.5918Q15.6152 1.5918 16.0107 1.97754Q16.4062 2.36328 16.4062 3.125L16.4062 14.8926Q16.4062 15.6543 16.0107 16.04Q15.6152 16.4258 14.8926 16.4258Z" fill="#007aff"/>
  <path d="M5.63477 13.2031Q6.47461 13.2031 7.10449 12.6904Q7.73438 12.1777 8.08105 11.2354Q8.42773 10.293 8.42773 8.99414Q8.42773 7.69531 8.08105 6.74805Q7.73438 5.80078 7.10449 5.29297Q6.47461 4.78516 5.63477 4.78516Q4.79492 4.78516 4.16504 5.29297Q3.53516 5.80078 3.18848 6.74805Q2.8418 7.69531 2.8418 8.99414Q2.8418 10.293 3.18848 11.2354Q3.53516 12.1777 4.16504 12.6904Q4.79492 13.2031 5.63477 13.2031ZM5.63477 12.0215Q4.94141 12.0215 4.53125 11.2109Q4.12109 10.4004 4.12109 8.99414Q4.12109 7.58789 4.53125 6.77734Q4.94141 5.9668 5.63477 5.9668Q6.33789 5.9668 6.74316 6.77734Q7.14844 7.58789 7.14844 8.99414Q7.14844 10.4004 6.74316 11.2109Q6.33789 12.0215 5.63477 12.0215ZM13.7012 13.1836Q13.9941 13.1836 14.1455 12.998Q14.2969 12.8125 14.2969 12.5293L14.2969 11.377L14.8242 11.377Q15.3809 11.377 15.3809 10.8398Q15.3809 10.5762 15.2295 10.4297Q15.0781 10.2832 14.8242 10.2832L14.2969 10.2832L14.2969 5.71289Q14.2969 5.29297 14.0283 5.03906Q13.7598 4.78516 13.3301 4.78516Q12.9102 4.78516 12.627 4.95605Q12.3438 5.12695 12.0996 5.53711Q11.7969 6.05469 11.4697 6.61133Q11.1426 7.16797 10.8154 7.72461Q10.4883 8.28125 10.1904 8.80371Q9.89258 9.32617 9.63867 9.76562Q9.52148 9.99023 9.47754 10.166Q9.43359 10.3418 9.43359 10.5469Q9.43359 10.9375 9.66309 11.1572Q9.89258 11.377 10.2637 11.377L13.1152 11.377L13.1152 12.5293Q13.1152 12.8125 13.2617 12.998Q13.4082 13.1836 13.7012 13.1836ZM13.1152 10.2832L10.7031 10.2832L10.7031 10.2441Q10.8789 9.91211 11.0938 9.5166Q11.3086 9.12109 11.5576 8.69141Q11.8066 8.26172 12.0654 7.81738Q12.3242 7.37305 12.5781 6.93848Q12.832 6.50391 13.0664 6.10352L13.1152 6.10352Z" fill="#007aff"/>
 </g>
</svg>
