<?xml version="1.0" encoding="UTF-8"?>
<!--Generator: Apple Native CoreSVG 175.5-->
<!DOCTYPE svg
PUBLIC "-//W3C//DTD SVG 1.1//EN"
       "http://www.w3.org/Graphics/SVG/1.1/DTD/svg11.dtd">
<svg version="1.1" xmlns="http://www.w3.org/2000/svg" xmlns:xlink="http://www.w3.org/1999/xlink" width="19.9219" height="19.9316">
 <g>
  <rect height="19.9316" opacity="0" width="19.9219" x="0" y="0"/>
  <path d="M9.96094 19.9219Q12.002 19.9219 13.8037 19.1406Q15.6055 18.3594 16.9824 16.9824Q18.3594 15.6055 19.1406 13.8037Q19.9219 12.002 19.9219 9.96094Q19.9219 7.91992 19.1406 6.11816Q18.3594 4.31641 16.9824 2.93945Q15.6055 1.5625 13.7988 0.78125Q11.9922 0 9.95117 0Q7.91016 0 6.1084 0.78125Q4.30664 1.5625 2.93457 2.93945Q1.5625 4.31641 0.78125 6.11816Q0 7.91992 0 9.96094Q0 12.002 0.78125 13.8037Q1.5625 15.6055 2.93945 16.9824Q4.31641 18.3594 6.11816 19.1406Q7.91992 19.9219 9.96094 19.9219Z" fill="#007aff"/>
  <path d="M6.55273 14.3066Q5.68359 14.3066 5.03906 13.7793Q4.39453 13.252 4.0332 12.2803Q3.67188 11.3086 3.67188 9.96094Q3.67188 8.61328 4.0332 7.6416Q4.39453 6.66992 5.03906 6.14258Q5.68359 5.61523 6.55273 5.61523Q7.42188 5.61523 8.07129 6.14258Q8.7207 6.66992 9.07715 7.6416Q9.43359 8.61328 9.43359 9.96094Q9.43359 11.3086 9.07715 12.2803Q8.7207 13.252 8.07129 13.7793Q7.42188 14.3066 6.55273 14.3066ZM6.55273 13.0762Q7.28516 13.0762 7.69531 12.2412Q8.10547 11.4062 8.10547 9.96094Q8.10547 8.51562 7.69043 7.68066Q7.27539 6.8457 6.55273 6.8457Q5.83984 6.8457 5.41992 7.68066Q5 8.51562 5 9.96094Q5 11.4062 5.41992 12.2412Q5.83984 13.0762 6.55273 13.0762ZM13.3789 14.3066Q12.4316 14.3066 11.7383 13.8672Q11.0449 13.4277 10.8203 12.8027Q10.7812 12.7051 10.7568 12.5879Q10.7324 12.4707 10.7324 12.3438Q10.7324 12.0898 10.8887 11.9238Q11.0449 11.7578 11.2988 11.7578Q11.4746 11.7578 11.626 11.8652Q11.7773 11.9727 11.8848 12.1973Q12.0996 12.6465 12.5146 12.9053Q12.9297 13.1641 13.4473 13.1641Q14.1699 13.1641 14.624 12.7148Q15.0781 12.2656 15.0781 11.4746Q15.0781 10.7812 14.668 10.3125Q14.2578 9.84375 13.5938 9.84375Q13.2617 9.84375 12.998 9.96582Q12.7344 10.0879 12.4219 10.3516Q12.1777 10.5566 12.002 10.6299Q11.8262 10.7031 11.6016 10.7031Q11.25 10.7031 11.0547 10.4639Q10.8594 10.2246 10.8887 9.82422L11.1328 6.68945Q11.1523 6.28906 11.4062 6.05957Q11.6602 5.83008 12.0605 5.83008L15.5078 5.83008Q15.7324 5.83008 15.874 5.99121Q16.0156 6.15234 16.0156 6.39648Q16.0156 6.64062 15.8691 6.80176Q15.7227 6.96289 15.5078 6.96289L12.1777 6.96289L11.9922 9.55078L12.041 9.55078Q12.2559 9.20898 12.7441 8.98438Q13.2324 8.75977 13.7305 8.75977Q14.9023 8.75977 15.6201 9.52148Q16.3379 10.2832 16.3379 11.4453Q16.3379 12.7734 15.5225 13.54Q14.707 14.3066 13.3789 14.3066Z" fill="#ffffff"/>
 </g>
</svg>
