<?xml version="1.0" encoding="UTF-8"?>
<!--Generator: Apple Native CoreSVG 175.5-->
<!DOCTYPE svg
PUBLIC "-//W3C//DTD SVG 1.1//EN"
       "http://www.w3.org/Graphics/SVG/1.1/DTD/svg11.dtd">
<svg version="1.1" xmlns="http://www.w3.org/2000/svg" xmlns:xlink="http://www.w3.org/1999/xlink" width="17.9785" height="17.998">
 <g>
  <rect height="17.998" opacity="0" width="17.9785" x="0" y="0"/>
  <path d="M3.06641 17.998L14.9121 17.998Q16.4453 17.998 17.2119 17.2412Q17.9785 16.4844 17.9785 14.9707L17.9785 3.04688Q17.9785 1.5332 17.2119 0.776367Q16.4453 0.0195312 14.9121 0.0195312L3.06641 0.0195312Q1.5332 0.0195312 0.766602 0.776367Q0 1.5332 0 3.04688L0 14.9707Q0 16.4844 0.766602 17.2412Q1.5332 17.998 3.06641 17.998Z" fill="#007aff"/>
  <path d="M5.58594 13.3398Q4.7168 13.3398 4.07227 12.8125Q3.42773 12.2852 3.06641 11.3135Q2.70508 10.3418 2.70508 8.99414Q2.70508 7.64648 3.06641 6.6748Q3.42773 5.70312 4.07227 5.17578Q4.7168 4.64844 5.58594 4.64844Q6.45508 4.64844 7.10449 5.17578Q7.75391 5.70312 8.11035 6.6748Q8.4668 7.64648 8.4668 8.99414Q8.4668 10.3418 8.11035 11.3135Q7.75391 12.2852 7.10449 12.8125Q6.45508 13.3398 5.58594 13.3398ZM5.58594 12.1094Q6.31836 12.1094 6.72852 11.2744Q7.13867 10.4395 7.13867 8.99414Q7.13867 7.54883 6.72363 6.71387Q6.30859 5.87891 5.58594 5.87891Q4.87305 5.87891 4.45312 6.71387Q4.0332 7.54883 4.0332 8.99414Q4.0332 10.4395 4.45312 11.2744Q4.87305 12.1094 5.58594 12.1094ZM12.4121 13.3398Q11.4648 13.3398 10.7715 12.9004Q10.0781 12.4609 9.85352 11.8359Q9.81445 11.7383 9.79004 11.6211Q9.76562 11.5039 9.76562 11.377Q9.76562 11.123 9.92188 10.957Q10.0781 10.791 10.332 10.791Q10.5078 10.791 10.6592 10.8984Q10.8105 11.0059 10.918 11.2305Q11.1328 11.6797 11.5479 11.9385Q11.9629 12.1973 12.4805 12.1973Q13.2031 12.1973 13.6572 11.748Q14.1113 11.2988 14.1113 10.5078Q14.1113 9.81445 13.7012 9.3457Q13.291 8.87695 12.627 8.87695Q12.2949 8.87695 12.0312 8.99902Q11.7676 9.12109 11.4551 9.38477Q11.2109 9.58984 11.0352 9.66309Q10.8594 9.73633 10.6348 9.73633Q10.2832 9.73633 10.0879 9.49707Q9.89258 9.25781 9.92188 8.85742L10.166 5.72266Q10.1855 5.32227 10.4395 5.09277Q10.6934 4.86328 11.0938 4.86328L14.541 4.86328Q14.7656 4.86328 14.9072 5.02441Q15.0488 5.18555 15.0488 5.42969Q15.0488 5.67383 14.9023 5.83496Q14.7559 5.99609 14.541 5.99609L11.2109 5.99609L11.0254 8.58398L11.0742 8.58398Q11.2891 8.24219 11.7773 8.01758Q12.2656 7.79297 12.7637 7.79297Q13.9355 7.79297 14.6533 8.55469Q15.3711 9.31641 15.3711 10.4785Q15.3711 11.8066 14.5557 12.5732Q13.7402 13.3398 12.4121 13.3398Z" fill="#ffffff"/>
 </g>
</svg>
