<?xml version="1.0" encoding="UTF-8"?>
<!--Generator: Apple Native CoreSVG 175.5-->
<!DOCTYPE svg
PUBLIC "-//W3C//DTD SVG 1.1//EN"
       "http://www.w3.org/Graphics/SVG/1.1/DTD/svg11.dtd">
<svg version="1.1" xmlns="http://www.w3.org/2000/svg" xmlns:xlink="http://www.w3.org/1999/xlink" width="19.9219" height="19.9316">
 <g>
  <rect height="19.9316" opacity="0" width="19.9219" x="0" y="0"/>
  <path d="M9.96094 19.9219Q12.002 19.9219 13.8037 19.1406Q15.6055 18.3594 16.9824 16.9824Q18.3594 15.6055 19.1406 13.8037Q19.9219 12.002 19.9219 9.96094Q19.9219 7.91992 19.1406 6.11816Q18.3594 4.31641 16.9824 2.93945Q15.6055 1.5625 13.7988 0.78125Q11.9922 0 9.95117 0Q7.91016 0 6.1084 0.78125Q4.30664 1.5625 2.93457 2.93945Q1.5625 4.31641 0.78125 6.11816Q0 7.91992 0 9.96094Q0 12.002 0.78125 13.8037Q1.5625 15.6055 2.93945 16.9824Q4.31641 18.3594 6.11816 19.1406Q7.91992 19.9219 9.96094 19.9219Z" fill="#007aff"/>
  <path d="M6.5918 14.3066Q5.72266 14.3066 5.07812 13.7793Q4.43359 13.252 4.07227 12.2803Q3.71094 11.3086 3.71094 9.96094Q3.71094 8.61328 4.07227 7.6416Q4.43359 6.66992 5.07812 6.14258Q5.72266 5.61523 6.5918 5.61523Q7.46094 5.61523 8.11035 6.14258Q8.75977 6.66992 9.11621 7.6416Q9.47266 8.61328 9.47266 9.96094Q9.47266 11.3086 9.11621 12.2803Q8.75977 13.252 8.11035 13.7793Q7.46094 14.3066 6.5918 14.3066ZM6.5918 13.0762Q7.32422 13.0762 7.73438 12.2412Q8.14453 11.4062 8.14453 9.96094Q8.14453 8.51562 7.72949 7.68066Q7.31445 6.8457 6.5918 6.8457Q5.87891 6.8457 5.45898 7.68066Q5.03906 8.51562 5.03906 9.96094Q5.03906 11.4062 5.45898 12.2412Q5.87891 13.0762 6.5918 13.0762ZM13.457 14.3066Q12.1387 14.3066 11.3379 13.6279Q10.5371 12.9492 10.5371 11.8457Q10.5371 11.0742 10.9863 10.4932Q11.4355 9.91211 12.2559 9.74609L12.2559 9.6875Q11.5527 9.48242 11.1914 8.98926Q10.8301 8.49609 10.8301 7.83203Q10.8301 6.8457 11.5723 6.23047Q12.3145 5.61523 13.4766 5.61523Q14.6191 5.61523 15.3613 6.23047Q16.1035 6.8457 16.1035 7.83203Q16.1035 8.49609 15.7373 8.99902Q15.3711 9.50195 14.6777 9.6875L14.6777 9.74609Q15.498 9.91211 15.9473 10.4883Q16.3965 11.0645 16.3965 11.8359Q16.3965 12.9395 15.5811 13.623Q14.7656 14.3066 13.457 14.3066ZM13.4863 13.252Q14.1895 13.252 14.6533 12.8369Q15.1172 12.4219 15.1172 11.7578Q15.1172 11.0938 14.6582 10.6738Q14.1992 10.2539 13.4863 10.2539Q12.7637 10.2539 12.2949 10.6787Q11.8262 11.1035 11.8262 11.7578Q11.8262 12.4219 12.2949 12.8369Q12.7637 13.252 13.4863 13.252ZM13.4766 9.28711Q14.0625 9.28711 14.4336 8.91113Q14.8047 8.53516 14.8047 7.95898Q14.8047 7.39258 14.4336 7.03125Q14.0625 6.66992 13.4766 6.66992Q12.8711 6.66992 12.5 7.03125Q12.1289 7.39258 12.1289 7.95898Q12.1289 8.53516 12.5049 8.91113Q12.8809 9.28711 13.4766 9.28711Z" fill="#ffffff"/>
 </g>
</svg>
