<?xml version="1.0" encoding="UTF-8"?>
<!--Generator: Apple Native CoreSVG 175.5-->
<!DOCTYPE svg
PUBLIC "-//W3C//DTD SVG 1.1//EN"
       "http://www.w3.org/Graphics/SVG/1.1/DTD/svg11.dtd">
<svg version="1.1" xmlns="http://www.w3.org/2000/svg" xmlns:xlink="http://www.w3.org/1999/xlink" width="17.9785" height="17.998">
 <g>
  <rect height="17.998" opacity="0" width="17.9785" x="0" y="0"/>
  <path d="M3.06641 17.998L14.9121 17.998Q16.4453 17.998 17.2119 17.2412Q17.9785 16.4844 17.9785 14.9707L17.9785 3.04688Q17.9785 1.5332 17.2119 0.776367Q16.4453 0.0195312 14.9121 0.0195312L3.06641 0.0195312Q1.5332 0.0195312 0.766602 0.776367Q0 1.5332 0 3.04688L0 14.9707Q0 16.4844 0.766602 17.2412Q1.5332 17.998 3.06641 17.998Z" fill="#007aff"/>
  <path d="M5.625 13.3398Q4.75586 13.3398 4.11133 12.8125Q3.4668 12.2852 3.10547 11.3135Q2.74414 10.3418 2.74414 8.99414Q2.74414 7.64648 3.10547 6.6748Q3.4668 5.70312 4.11133 5.17578Q4.75586 4.64844 5.625 4.64844Q6.49414 4.64844 7.14355 5.17578Q7.79297 5.70312 8.14941 6.6748Q8.50586 7.64648 8.50586 8.99414Q8.50586 10.3418 8.14941 11.3135Q7.79297 12.2852 7.14355 12.8125Q6.49414 13.3398 5.625 13.3398ZM5.625 12.1094Q6.35742 12.1094 6.76758 11.2744Q7.17773 10.4395 7.17773 8.99414Q7.17773 7.54883 6.7627 6.71387Q6.34766 5.87891 5.625 5.87891Q4.91211 5.87891 4.49219 6.71387Q4.07227 7.54883 4.07227 8.99414Q4.07227 10.4395 4.49219 11.2744Q4.91211 12.1094 5.625 12.1094ZM12.4902 13.3398Q11.1719 13.3398 10.3711 12.6611Q9.57031 11.9824 9.57031 10.8789Q9.57031 10.1074 10.0195 9.52637Q10.4688 8.94531 11.2891 8.7793L11.2891 8.7207Q10.5859 8.51562 10.2246 8.02246Q9.86328 7.5293 9.86328 6.86523Q9.86328 5.87891 10.6055 5.26367Q11.3477 4.64844 12.5098 4.64844Q13.6523 4.64844 14.3945 5.26367Q15.1367 5.87891 15.1367 6.86523Q15.1367 7.5293 14.7705 8.03223Q14.4043 8.53516 13.7109 8.7207L13.7109 8.7793Q14.5312 8.94531 14.9805 9.52148Q15.4297 10.0977 15.4297 10.8691Q15.4297 11.9727 14.6143 12.6562Q13.7988 13.3398 12.4902 13.3398ZM12.5195 12.2852Q13.2227 12.2852 13.6865 11.8701Q14.1504 11.4551 14.1504 10.791Q14.1504 10.127 13.6914 9.70703Q13.2324 9.28711 12.5195 9.28711Q11.7969 9.28711 11.3281 9.71191Q10.8594 10.1367 10.8594 10.791Q10.8594 11.4551 11.3281 11.8701Q11.7969 12.2852 12.5195 12.2852ZM12.5098 8.32031Q13.0957 8.32031 13.4668 7.94434Q13.8379 7.56836 13.8379 6.99219Q13.8379 6.42578 13.4668 6.06445Q13.0957 5.70312 12.5098 5.70312Q11.9043 5.70312 11.5332 6.06445Q11.1621 6.42578 11.1621 6.99219Q11.1621 7.56836 11.5381 7.94434Q11.9141 8.32031 12.5098 8.32031Z" fill="#ffffff"/>
 </g>
</svg>
