<?xml version="1.0" encoding="UTF-8"?>
<!--Generator: Apple Native CoreSVG 175.5-->
<!DOCTYPE svg
PUBLIC "-//W3C//DTD SVG 1.1//EN"
       "http://www.w3.org/Graphics/SVG/1.1/DTD/svg11.dtd">
<svg version="1.1" xmlns="http://www.w3.org/2000/svg" xmlns:xlink="http://www.w3.org/1999/xlink" width="17.9785" height="17.998">
 <g>
  <rect height="17.998" opacity="0" width="17.9785" x="0" y="0"/>
  <path d="M3.06641 17.998L14.9121 17.998Q16.4453 17.998 17.2119 17.2412Q17.9785 16.4844 17.9785 14.9707L17.9785 3.04688Q17.9785 1.5332 17.2119 0.776367Q16.4453 0.0195312 14.9121 0.0195312L3.06641 0.0195312Q1.5332 0.0195312 0.766602 0.776367Q0 1.5332 0 3.04688L0 14.9707Q0 16.4844 0.766602 17.2412Q1.5332 17.998 3.06641 17.998ZM3.08594 16.4258Q2.35352 16.4258 1.96289 16.04Q1.57227 15.6543 1.57227 14.8926L1.57227 3.125Q1.57227 2.36328 1.96289 1.97754Q2.35352 1.5918 3.08594 1.5918L14.8926 1.5918Q15.6152 1.5918 16.0107 1.97754Q16.4062 2.36328 16.4062 3.125L16.4062 14.8926Q16.4062 15.6543 16.0107 16.04Q15.6152 16.4258 14.8926 16.4258Z" fill="#007aff"/>
  <path d="M6.35742 13.0859Q6.98242 13.0859 6.98242 12.4609L6.98242 5.54688Q6.98242 5.23438 6.79199 5.03906Q6.60156 4.84375 6.28906 4.84375Q6.05469 4.84375 5.87402 4.92188Q5.69336 5 5.43945 5.17578L3.95508 6.19141Q3.62305 6.42578 3.62305 6.76758Q3.62305 7.01172 3.79395 7.18262Q3.96484 7.35352 4.17969 7.35352Q4.29688 7.35352 4.39453 7.3291Q4.49219 7.30469 4.6582 7.16797L5.70312 6.39648L5.76172 6.39648L5.76172 12.4609Q5.76172 13.0859 6.35742 13.0859ZM11.5332 13.2031Q12.373 13.2031 13.0029 12.6904Q13.6328 12.1777 13.9795 11.2354Q14.3262 10.293 14.3262 8.99414Q14.3262 7.69531 13.9795 6.74805Q13.6328 5.80078 13.0029 5.29297Q12.373 4.78516 11.5332 4.78516Q10.6934 4.78516 10.0635 5.29297Q9.43359 5.80078 9.08691 6.74805Q8.74023 7.69531 8.74023 8.99414Q8.74023 10.293 9.08691 11.2354Q9.43359 12.1777 10.0635 12.6904Q10.6934 13.2031 11.5332 13.2031ZM11.5332 12.0215Q10.8301 12.0215 10.4248 11.2109Q10.0195 10.4004 10.0195 8.99414Q10.0195 7.58789 10.4248 6.77734Q10.8301 5.9668 11.5332 5.9668Q12.2266 5.9668 12.6367 6.77734Q13.0469 7.58789 13.0469 8.99414Q13.0469 10.4004 12.6416 11.2109Q12.2363 12.0215 11.5332 12.0215Z" fill="#007aff"/>
 </g>
</svg>
