<?xml version="1.0" encoding="UTF-8"?>
<!--Generator: Apple Native CoreSVG 175.5-->
<!DOCTYPE svg
PUBLIC "-//W3C//DTD SVG 1.1//EN"
       "http://www.w3.org/Graphics/SVG/1.1/DTD/svg11.dtd">
<svg version="1.1" xmlns="http://www.w3.org/2000/svg" xmlns:xlink="http://www.w3.org/1999/xlink" width="19.9219" height="19.9316">
 <g>
  <rect height="19.9316" opacity="0" width="19.9219" x="0" y="0"/>
  <path d="M9.96094 19.9219Q12.002 19.9219 13.8037 19.1406Q15.6055 18.3594 16.9824 16.9824Q18.3594 15.6055 19.1406 13.8037Q19.9219 12.002 19.9219 9.96094Q19.9219 7.91992 19.1406 6.11816Q18.3594 4.31641 16.9824 2.93945Q15.6055 1.5625 13.7988 0.78125Q11.9922 0 9.95117 0Q7.91016 0 6.1084 0.78125Q4.30664 1.5625 2.93457 2.93945Q1.5625 4.31641 0.78125 6.11816Q0 7.91992 0 9.96094Q0 12.002 0.78125 13.8037Q1.5625 15.6055 2.93945 16.9824Q4.31641 18.3594 6.11816 19.1406Q7.91992 19.9219 9.96094 19.9219ZM9.96094 18.2617Q8.23242 18.2617 6.72852 17.6172Q5.22461 16.9727 4.08691 15.835Q2.94922 14.6973 2.30957 13.1934Q1.66992 11.6895 1.66992 9.96094Q1.66992 8.23242 2.30957 6.72852Q2.94922 5.22461 4.08203 4.08203Q5.21484 2.93945 6.71875 2.2998Q8.22266 1.66016 9.95117 1.66016Q11.6797 1.66016 13.1885 2.2998Q14.6973 2.93945 15.835 4.08203Q16.9727 5.22461 17.6172 6.72852Q18.2617 8.23242 18.2617 9.96094Q18.2617 11.6895 17.6221 13.1934Q16.9824 14.6973 15.8398 15.835Q14.6973 16.9727 13.1934 17.6172Q11.6895 18.2617 9.96094 18.2617Z" fill="#007aff"/>
  <path d="M7.28516 14.0527Q7.91016 14.0527 7.91016 13.4277L7.91016 6.51367Q7.91016 6.20117 7.71973 6.00586Q7.5293 5.81055 7.2168 5.81055Q6.98242 5.81055 6.80176 5.88867Q6.62109 5.9668 6.36719 6.14258L4.88281 7.1582Q4.55078 7.39258 4.55078 7.73438Q4.55078 7.97852 4.72168 8.14941Q4.89258 8.32031 5.10742 8.32031Q5.22461 8.32031 5.32227 8.2959Q5.41992 8.27148 5.58594 8.13477L6.63086 7.36328L6.68945 7.36328L6.68945 13.4277Q6.68945 14.0527 7.28516 14.0527ZM12.1973 14.1699Q13.4375 14.1699 14.2236 13.4961Q15.0098 12.8223 15.0098 11.7676Q15.0098 10.9863 14.5312 10.4248Q14.0527 9.86328 13.3105 9.79492L13.3105 9.73633Q13.916 9.63867 14.3311 9.09668Q14.7461 8.55469 14.7461 7.87109Q14.7461 6.93359 14.0527 6.34277Q13.3594 5.75195 12.2656 5.75195Q11.2695 5.75195 10.5859 6.25Q9.90234 6.74805 9.70703 7.46094Q9.6875 7.59766 9.6875 7.8125Q9.6875 8.07617 9.83887 8.24219Q9.99023 8.4082 10.2441 8.4082Q10.459 8.4082 10.5859 8.29102Q10.7129 8.17383 10.791 7.93945Q10.9473 7.42188 11.3086 7.14844Q11.6699 6.875 12.2363 6.875Q12.8125 6.875 13.1836 7.19238Q13.5547 7.50977 13.5547 8.02734Q13.5547 8.56445 13.1836 8.91113Q12.8125 9.25781 12.2266 9.25781L11.6992 9.25781Q11.4648 9.25781 11.3135 9.41406Q11.1621 9.57031 11.1621 9.83398Q11.1621 10.0684 11.3086 10.2295Q11.4551 10.3906 11.6992 10.3906L12.2754 10.3906Q12.9688 10.3906 13.3838 10.752Q13.7988 11.1133 13.7988 11.709Q13.7988 12.2754 13.3545 12.6611Q12.9102 13.0469 12.207 13.0469Q11.6309 13.0469 11.2354 12.7686Q10.8398 12.4902 10.6445 11.9824Q10.4688 11.5137 10.0879 11.5137Q9.84375 11.5137 9.68262 11.6797Q9.52148 11.8457 9.52148 12.0996Q9.52148 12.207 9.53613 12.2852Q9.55078 12.3633 9.57031 12.4609Q9.76562 13.1348 10.4834 13.6523Q11.2012 14.1699 12.1973 14.1699Z" fill="#007aff"/>
 </g>
</svg>
