<?xml version="1.0" encoding="UTF-8"?>
<!--Generator: Apple Native CoreSVG 175.5-->
<!DOCTYPE svg
PUBLIC "-//W3C//DTD SVG 1.1//EN"
       "http://www.w3.org/Graphics/SVG/1.1/DTD/svg11.dtd">
<svg version="1.1" xmlns="http://www.w3.org/2000/svg" xmlns:xlink="http://www.w3.org/1999/xlink" width="17.9785" height="17.998">
 <g>
  <rect height="17.998" opacity="0" width="17.9785" x="0" y="0"/>
  <path d="M3.06641 17.998L14.9121 17.998Q16.4453 17.998 17.2119 17.2412Q17.9785 16.4844 17.9785 14.9707L17.9785 3.04688Q17.9785 1.5332 17.2119 0.776367Q16.4453 0.0195312 14.9121 0.0195312L3.06641 0.0195312Q1.5332 0.0195312 0.766602 0.776367Q0 1.5332 0 3.04688L0 14.9707Q0 16.4844 0.766602 17.2412Q1.5332 17.998 3.06641 17.998ZM3.08594 16.4258Q2.35352 16.4258 1.96289 16.04Q1.57227 15.6543 1.57227 14.8926L1.57227 3.125Q1.57227 2.36328 1.96289 1.97754Q2.35352 1.5918 3.08594 1.5918L14.8926 1.5918Q15.6152 1.5918 16.0107 1.97754Q16.4062 2.36328 16.4062 3.125L16.4062 14.8926Q16.4062 15.6543 16.0107 16.04Q15.6152 16.4258 14.8926 16.4258Z" fill="#007aff"/>
  <path d="M6.32812 13.0859Q6.95312 13.0859 6.95312 12.4609L6.95312 5.54688Q6.95312 5.23438 6.7627 5.03906Q6.57227 4.84375 6.25977 4.84375Q6.02539 4.84375 5.84473 4.92188Q5.66406 5 5.41016 5.17578L3.92578 6.19141Q3.59375 6.42578 3.59375 6.76758Q3.59375 7.01172 3.76465 7.18262Q3.93555 7.35352 4.15039 7.35352Q4.26758 7.35352 4.36523 7.3291Q4.46289 7.30469 4.62891 7.16797L5.67383 6.39648L5.73242 6.39648L5.73242 12.4609Q5.73242 13.0859 6.32812 13.0859ZM11.2402 13.2031Q12.4805 13.2031 13.2666 12.5293Q14.0527 11.8555 14.0527 10.8008Q14.0527 10.0195 13.5742 9.45801Q13.0957 8.89648 12.3535 8.82812L12.3535 8.76953Q12.959 8.67188 13.374 8.12988Q13.7891 7.58789 13.7891 6.9043Q13.7891 5.9668 13.0957 5.37598Q12.4023 4.78516 11.3086 4.78516Q10.3125 4.78516 9.62891 5.2832Q8.94531 5.78125 8.75 6.49414Q8.73047 6.63086 8.73047 6.8457Q8.73047 7.10938 8.88184 7.27539Q9.0332 7.44141 9.28711 7.44141Q9.50195 7.44141 9.62891 7.32422Q9.75586 7.20703 9.83398 6.97266Q9.99023 6.45508 10.3516 6.18164Q10.7129 5.9082 11.2793 5.9082Q11.8555 5.9082 12.2266 6.22559Q12.5977 6.54297 12.5977 7.06055Q12.5977 7.59766 12.2266 7.94434Q11.8555 8.29102 11.2695 8.29102L10.7422 8.29102Q10.5078 8.29102 10.3564 8.44727Q10.2051 8.60352 10.2051 8.86719Q10.2051 9.10156 10.3516 9.2627Q10.498 9.42383 10.7422 9.42383L11.3184 9.42383Q12.0117 9.42383 12.4268 9.78516Q12.8418 10.1465 12.8418 10.7422Q12.8418 11.3086 12.3975 11.6943Q11.9531 12.0801 11.25 12.0801Q10.6738 12.0801 10.2783 11.8018Q9.88281 11.5234 9.6875 11.0156Q9.51172 10.5469 9.13086 10.5469Q8.88672 10.5469 8.72559 10.7129Q8.56445 10.8789 8.56445 11.1328Q8.56445 11.2402 8.5791 11.3184Q8.59375 11.3965 8.61328 11.4941Q8.80859 12.168 9.52637 12.6855Q10.2441 13.2031 11.2402 13.2031Z" fill="#007aff"/>
 </g>
</svg>
