<?xml version="1.0" encoding="UTF-8"?>
<!--Generator: Apple Native CoreSVG 175.5-->
<!DOCTYPE svg
PUBLIC "-//W3C//DTD SVG 1.1//EN"
       "http://www.w3.org/Graphics/SVG/1.1/DTD/svg11.dtd">
<svg version="1.1" xmlns="http://www.w3.org/2000/svg" xmlns:xlink="http://www.w3.org/1999/xlink" width="19.9219" height="19.9316">
 <g>
  <rect height="19.9316" opacity="0" width="19.9219" x="0" y="0"/>
  <path d="M9.96094 19.9219Q12.002 19.9219 13.8037 19.1406Q15.6055 18.3594 16.9824 16.9824Q18.3594 15.6055 19.1406 13.8037Q19.9219 12.002 19.9219 9.96094Q19.9219 7.91992 19.1406 6.11816Q18.3594 4.31641 16.9824 2.93945Q15.6055 1.5625 13.7988 0.78125Q11.9922 0 9.95117 0Q7.91016 0 6.1084 0.78125Q4.30664 1.5625 2.93457 2.93945Q1.5625 4.31641 0.78125 6.11816Q0 7.91992 0 9.96094Q0 12.002 0.78125 13.8037Q1.5625 15.6055 2.93945 16.9824Q4.31641 18.3594 6.11816 19.1406Q7.91992 19.9219 9.96094 19.9219Z" fill="#007aff"/>
  <path d="M6.95312 14.1797Q6.66992 14.1797 6.49902 14.0039Q6.32812 13.8281 6.32812 13.5352L6.32812 7.28516L6.26953 7.28516L5.20508 8.07617Q5.0293 8.21289 4.92676 8.24219Q4.82422 8.27148 4.70703 8.27148Q4.49219 8.27148 4.31152 8.0957Q4.13086 7.91992 4.13086 7.66602Q4.13086 7.30469 4.47266 7.07031L5.99609 6.02539Q6.25977 5.83984 6.44531 5.76172Q6.63086 5.68359 6.875 5.68359Q7.19727 5.68359 7.39746 5.88867Q7.59766 6.09375 7.59766 6.40625L7.59766 13.5352Q7.59766 13.8281 7.42188 14.0039Q7.24609 14.1797 6.95312 14.1797ZM12.4609 14.3164Q11.6992 14.3164 11.0693 13.999Q10.4395 13.6816 10.0488 12.9492Q9.79492 12.4805 9.65332 11.7969Q9.51172 11.1133 9.51172 10.1953Q9.51172 7.89062 10.3516 6.75293Q11.1914 5.61523 12.6465 5.61523Q13.2227 5.61523 13.6719 5.79102Q14.1211 5.9668 14.4238 6.25977Q14.7266 6.55273 14.8633 6.88477Q14.9316 7.08008 14.9316 7.27539Q14.9316 7.5293 14.79 7.68066Q14.6484 7.83203 14.4434 7.83203Q14.2383 7.83203 14.1016 7.73926Q13.9648 7.64648 13.8281 7.45117Q13.6426 7.1582 13.3398 6.97266Q13.0371 6.78711 12.5977 6.78711Q11.748 6.78711 11.2256 7.61719Q10.7031 8.44727 10.7031 9.87305Q10.7031 9.90234 10.7031 9.92676Q10.7031 9.95117 10.7031 9.9707L10.7715 9.9707Q10.957 9.47266 11.46 9.08691Q11.9629 8.70117 12.7637 8.70117Q13.75 8.70117 14.502 9.39453Q15.2539 10.0879 15.2539 11.3867Q15.2539 12.7734 14.4678 13.5449Q13.6816 14.3164 12.4609 14.3164ZM12.3926 13.2031Q13.125 13.2031 13.5547 12.7246Q13.9844 12.2461 13.9844 11.4453Q13.9844 10.6934 13.5449 10.2197Q13.1055 9.74609 12.3926 9.74609Q11.6992 9.74609 11.2549 10.2197Q10.8105 10.6934 10.8105 11.4355Q10.8105 12.2168 11.2549 12.71Q11.6992 13.2031 12.3926 13.2031Z" fill="#ffffff"/>
 </g>
</svg>
