<?xml version="1.0" encoding="UTF-8"?>
<!--Generator: Apple Native CoreSVG 175.5-->
<!DOCTYPE svg
PUBLIC "-//W3C//DTD SVG 1.1//EN"
       "http://www.w3.org/Graphics/SVG/1.1/DTD/svg11.dtd">
<svg version="1.1" xmlns="http://www.w3.org/2000/svg" xmlns:xlink="http://www.w3.org/1999/xlink" width="19.9219" height="19.9316">
 <g>
  <rect height="19.9316" opacity="0" width="19.9219" x="0" y="0"/>
  <path d="M9.96094 19.9219Q12.002 19.9219 13.8037 19.1406Q15.6055 18.3594 16.9824 16.9824Q18.3594 15.6055 19.1406 13.8037Q19.9219 12.002 19.9219 9.96094Q19.9219 7.91992 19.1406 6.11816Q18.3594 4.31641 16.9824 2.93945Q15.6055 1.5625 13.7988 0.78125Q11.9922 0 9.95117 0Q7.91016 0 6.1084 0.78125Q4.30664 1.5625 2.93457 2.93945Q1.5625 4.31641 0.78125 6.11816Q0 7.91992 0 9.96094Q0 12.002 0.78125 13.8037Q1.5625 15.6055 2.93945 16.9824Q4.31641 18.3594 6.11816 19.1406Q7.91992 19.9219 9.96094 19.9219ZM9.96094 18.2617Q8.23242 18.2617 6.72852 17.6172Q5.22461 16.9727 4.08691 15.835Q2.94922 14.6973 2.30957 13.1934Q1.66992 11.6895 1.66992 9.96094Q1.66992 8.23242 2.30957 6.72852Q2.94922 5.22461 4.08203 4.08203Q5.21484 2.93945 6.71875 2.2998Q8.22266 1.66016 9.95117 1.66016Q11.6797 1.66016 13.1885 2.2998Q14.6973 2.93945 15.835 4.08203Q16.9727 5.22461 17.6172 6.72852Q18.2617 8.23242 18.2617 9.96094Q18.2617 11.6895 17.6221 13.1934Q16.9824 14.6973 15.8398 15.835Q14.6973 16.9727 13.1934 17.6172Q11.6895 18.2617 9.96094 18.2617Z" fill="#007aff"/>
  <path d="M7.45117 14.0527Q8.07617 14.0527 8.07617 13.4277L8.07617 6.51367Q8.07617 6.20117 7.88574 6.00586Q7.69531 5.81055 7.38281 5.81055Q7.14844 5.81055 6.96777 5.88867Q6.78711 5.9668 6.5332 6.14258L5.04883 7.1582Q4.7168 7.39258 4.7168 7.73438Q4.7168 7.97852 4.8877 8.14941Q5.05859 8.32031 5.27344 8.32031Q5.39062 8.32031 5.48828 8.2959Q5.58594 8.27148 5.75195 8.13477L6.79688 7.36328L6.85547 7.36328L6.85547 13.4277Q6.85547 14.0527 7.45117 14.0527ZM11.2012 14.0625Q11.3965 14.0625 11.5479 13.9502Q11.6992 13.8379 11.8262 13.584L14.873 7.49023Q14.9902 7.25586 15.0244 7.10449Q15.0586 6.95312 15.0586 6.79688Q15.0586 6.44531 14.8242 6.19629Q14.5898 5.94727 14.1895 5.94727L10.2539 5.94727Q10 5.94727 9.84375 6.09863Q9.6875 6.25 9.6875 6.50391Q9.6875 6.74805 9.84375 6.89453Q10 7.04102 10.2539 7.04102L13.6816 7.04102L13.6816 7.11914L10.6543 12.9785Q10.5566 13.1641 10.5566 13.4277Q10.5566 13.7012 10.7422 13.8818Q10.9277 14.0625 11.2012 14.0625Z" fill="#007aff"/>
 </g>
</svg>
