<?xml version="1.0" encoding="UTF-8"?>
<!--Generator: Apple Native CoreSVG 175.5-->
<!DOCTYPE svg
PUBLIC "-//W3C//DTD SVG 1.1//EN"
       "http://www.w3.org/Graphics/SVG/1.1/DTD/svg11.dtd">
<svg version="1.1" xmlns="http://www.w3.org/2000/svg" xmlns:xlink="http://www.w3.org/1999/xlink" width="19.9219" height="19.9316">
 <g>
  <rect height="19.9316" opacity="0" width="19.9219" x="0" y="0"/>
  <path d="M9.96094 19.9219Q12.002 19.9219 13.8037 19.1406Q15.6055 18.3594 16.9824 16.9824Q18.3594 15.6055 19.1406 13.8037Q19.9219 12.002 19.9219 9.96094Q19.9219 7.91992 19.1406 6.11816Q18.3594 4.31641 16.9824 2.93945Q15.6055 1.5625 13.7988 0.78125Q11.9922 0 9.95117 0Q7.91016 0 6.1084 0.78125Q4.30664 1.5625 2.93457 2.93945Q1.5625 4.31641 0.78125 6.11816Q0 7.91992 0 9.96094Q0 12.002 0.78125 13.8037Q1.5625 15.6055 2.93945 16.9824Q4.31641 18.3594 6.11816 19.1406Q7.91992 19.9219 9.96094 19.9219ZM9.96094 18.2617Q8.23242 18.2617 6.72852 17.6172Q5.22461 16.9727 4.08691 15.835Q2.94922 14.6973 2.30957 13.1934Q1.66992 11.6895 1.66992 9.96094Q1.66992 8.23242 2.30957 6.72852Q2.94922 5.22461 4.08203 4.08203Q5.21484 2.93945 6.71875 2.2998Q8.22266 1.66016 9.95117 1.66016Q11.6797 1.66016 13.1885 2.2998Q14.6973 2.93945 15.835 4.08203Q16.9727 5.22461 17.6172 6.72852Q18.2617 8.23242 18.2617 9.96094Q18.2617 11.6895 17.6221 13.1934Q16.9824 14.6973 15.8398 15.835Q14.6973 16.9727 13.1934 17.6172Q11.6895 18.2617 9.96094 18.2617Z" fill="#007aff"/>
  <path d="M4.93164 13.9453L8.97461 13.9453Q9.20898 13.9453 9.36035 13.7842Q9.51172 13.623 9.51172 13.3594Q9.51172 13.0957 9.36035 12.9443Q9.20898 12.793 8.97461 12.793L6.13281 12.793L6.13281 12.7246L8.04688 10.498Q8.59375 9.87305 8.9502 9.29199Q9.30664 8.71094 9.30664 7.97852Q9.30664 6.96289 8.61816 6.35742Q7.92969 5.75195 6.77734 5.75195Q5.9082 5.75195 5.21484 6.25Q4.52148 6.74805 4.33594 7.49023Q4.31641 7.58789 4.30176 7.6709Q4.28711 7.75391 4.28711 7.8418Q4.28711 8.10547 4.43359 8.2666Q4.58008 8.42773 4.83398 8.42773Q5.03906 8.42773 5.16602 8.30566Q5.29297 8.18359 5.39062 7.96875Q5.57617 7.42188 5.94238 7.14844Q6.30859 6.875 6.82617 6.875Q7.42188 6.875 7.77344 7.20703Q8.125 7.53906 8.125 8.08594Q8.125 8.56445 7.8125 8.98438Q7.5 9.4043 7.14844 9.81445L4.57031 12.8418Q4.36523 13.0762 4.36523 13.3691Q4.36523 13.6328 4.5166 13.7891Q4.66797 13.9453 4.93164 13.9453ZM14.541 14.1504Q14.834 14.1504 14.9854 13.9648Q15.1367 13.7793 15.1367 13.4961L15.1367 12.3438L15.6738 12.3438Q16.2207 12.3438 16.2207 11.8066Q16.2207 11.543 16.0693 11.3965Q15.918 11.25 15.6738 11.25L15.1367 11.25L15.1367 6.67969Q15.1367 6.25977 14.8682 6.00586Q14.5996 5.75195 14.1699 5.75195Q13.75 5.75195 13.4668 5.92285Q13.1836 6.09375 12.9492 6.50391Q12.6367 7.02148 12.3096 7.57812Q11.9824 8.13477 11.6553 8.69141Q11.3281 9.24805 11.0303 9.77051Q10.7324 10.293 10.4883 10.7324Q10.3711 10.957 10.3223 11.1328Q10.2734 11.3086 10.2734 11.5137Q10.2734 11.9043 10.5029 12.124Q10.7324 12.3438 11.1035 12.3438L13.9551 12.3438L13.9551 13.4961Q13.9551 13.7793 14.1016 13.9648Q14.248 14.1504 14.541 14.1504ZM13.9551 11.25L11.543 11.25L11.543 11.2109Q11.7188 10.8789 11.9385 10.4834Q12.1582 10.0879 12.4023 9.6582Q12.6465 9.22852 12.9053 8.78418Q13.1641 8.33984 13.418 7.90527Q13.6719 7.4707 13.9062 7.07031L13.9551 7.07031Z" fill="#007aff"/>
 </g>
</svg>
