<?xml version="1.0" encoding="UTF-8"?>
<!--Generator: Apple Native CoreSVG 175.5-->
<!DOCTYPE svg
PUBLIC "-//W3C//DTD SVG 1.1//EN"
       "http://www.w3.org/Graphics/SVG/1.1/DTD/svg11.dtd">
<svg version="1.1" xmlns="http://www.w3.org/2000/svg" xmlns:xlink="http://www.w3.org/1999/xlink" width="17.9785" height="17.998">
 <g>
  <rect height="17.998" opacity="0" width="17.9785" x="0" y="0"/>
  <path d="M3.06641 17.998L14.9121 17.998Q16.4453 17.998 17.2119 17.2412Q17.9785 16.4844 17.9785 14.9707L17.9785 3.04688Q17.9785 1.5332 17.2119 0.776367Q16.4453 0.0195312 14.9121 0.0195312L3.06641 0.0195312Q1.5332 0.0195312 0.766602 0.776367Q0 1.5332 0 3.04688L0 14.9707Q0 16.4844 0.766602 17.2412Q1.5332 17.998 3.06641 17.998ZM3.08594 16.4258Q2.35352 16.4258 1.96289 16.04Q1.57227 15.6543 1.57227 14.8926L1.57227 3.125Q1.57227 2.36328 1.96289 1.97754Q2.35352 1.5918 3.08594 1.5918L14.8926 1.5918Q15.6152 1.5918 16.0107 1.97754Q16.4062 2.36328 16.4062 3.125L16.4062 14.8926Q16.4062 15.6543 16.0107 16.04Q15.6152 16.4258 14.8926 16.4258Z" fill="#007aff"/>
  <path d="M3.97461 12.9785L8.01758 12.9785Q8.25195 12.9785 8.40332 12.8174Q8.55469 12.6562 8.55469 12.3926Q8.55469 12.1289 8.40332 11.9775Q8.25195 11.8262 8.01758 11.8262L5.17578 11.8262L5.17578 11.7578L7.08984 9.53125Q7.63672 8.90625 7.99316 8.3252Q8.34961 7.74414 8.34961 7.01172Q8.34961 5.99609 7.66113 5.39062Q6.97266 4.78516 5.82031 4.78516Q4.95117 4.78516 4.25781 5.2832Q3.56445 5.78125 3.37891 6.52344Q3.35938 6.62109 3.34473 6.7041Q3.33008 6.78711 3.33008 6.875Q3.33008 7.13867 3.47656 7.2998Q3.62305 7.46094 3.87695 7.46094Q4.08203 7.46094 4.20898 7.33887Q4.33594 7.2168 4.43359 7.00195Q4.61914 6.45508 4.98535 6.18164Q5.35156 5.9082 5.86914 5.9082Q6.46484 5.9082 6.81641 6.24023Q7.16797 6.57227 7.16797 7.11914Q7.16797 7.59766 6.85547 8.01758Q6.54297 8.4375 6.19141 8.84766L3.61328 11.875Q3.4082 12.1094 3.4082 12.4023Q3.4082 12.666 3.55957 12.8223Q3.71094 12.9785 3.97461 12.9785ZM13.584 13.1836Q13.877 13.1836 14.0283 12.998Q14.1797 12.8125 14.1797 12.5293L14.1797 11.377L14.7168 11.377Q15.2637 11.377 15.2637 10.8398Q15.2637 10.5762 15.1123 10.4297Q14.9609 10.2832 14.7168 10.2832L14.1797 10.2832L14.1797 5.71289Q14.1797 5.29297 13.9111 5.03906Q13.6426 4.78516 13.2129 4.78516Q12.793 4.78516 12.5098 4.95605Q12.2266 5.12695 11.9922 5.53711Q11.6797 6.05469 11.3525 6.61133Q11.0254 7.16797 10.6982 7.72461Q10.3711 8.28125 10.0732 8.80371Q9.77539 9.32617 9.53125 9.76562Q9.41406 9.99023 9.36523 10.166Q9.31641 10.3418 9.31641 10.5469Q9.31641 10.9375 9.5459 11.1572Q9.77539 11.377 10.1465 11.377L12.998 11.377L12.998 12.5293Q12.998 12.8125 13.1445 12.998Q13.291 13.1836 13.584 13.1836ZM12.998 10.2832L10.5859 10.2832L10.5859 10.2441Q10.7617 9.91211 10.9814 9.5166Q11.2012 9.12109 11.4453 8.69141Q11.6895 8.26172 11.9482 7.81738Q12.207 7.37305 12.4609 6.93848Q12.7148 6.50391 12.9492 6.10352L12.998 6.10352Z" fill="#007aff"/>
 </g>
</svg>
