<?xml version="1.0" encoding="UTF-8"?>
<!--Generator: Apple Native CoreSVG 175.5-->
<!DOCTYPE svg
PUBLIC "-//W3C//DTD SVG 1.1//EN"
       "http://www.w3.org/Graphics/SVG/1.1/DTD/svg11.dtd">
<svg version="1.1" xmlns="http://www.w3.org/2000/svg" xmlns:xlink="http://www.w3.org/1999/xlink" width="19.9219" height="19.9316">
 <g>
  <rect height="19.9316" opacity="0" width="19.9219" x="0" y="0"/>
  <path d="M9.96094 19.9219Q12.002 19.9219 13.8037 19.1406Q15.6055 18.3594 16.9824 16.9824Q18.3594 15.6055 19.1406 13.8037Q19.9219 12.002 19.9219 9.96094Q19.9219 7.91992 19.1406 6.11816Q18.3594 4.31641 16.9824 2.93945Q15.6055 1.5625 13.7988 0.78125Q11.9922 0 9.95117 0Q7.91016 0 6.1084 0.78125Q4.30664 1.5625 2.93457 2.93945Q1.5625 4.31641 0.78125 6.11816Q0 7.91992 0 9.96094Q0 12.002 0.78125 13.8037Q1.5625 15.6055 2.93945 16.9824Q4.31641 18.3594 6.11816 19.1406Q7.91992 19.9219 9.96094 19.9219Z" fill="#007aff"/>
  <path d="M4.69727 14.0723Q4.43359 14.0723 4.27246 13.9062Q4.11133 13.7402 4.11133 13.4766Q4.11133 13.1543 4.32617 12.9297L6.98242 9.80469Q7.34375 9.38477 7.66602 8.95508Q7.98828 8.52539 7.98828 8.02734Q7.98828 7.4707 7.62207 7.12891Q7.25586 6.78711 6.65039 6.78711Q6.11328 6.78711 5.74219 7.06543Q5.37109 7.34375 5.17578 7.91016Q5.07812 8.13477 4.94629 8.25684Q4.81445 8.37891 4.59961 8.37891Q4.33594 8.37891 4.18457 8.21289Q4.0332 8.04688 4.0332 7.77344Q4.0332 7.68555 4.04785 7.59766Q4.0625 7.50977 4.08203 7.41211Q4.27734 6.64062 4.99023 6.12793Q5.70312 5.61523 6.60156 5.61523Q7.79297 5.61523 8.50098 6.24023Q9.20898 6.86523 9.20898 7.91992Q9.20898 8.67188 8.83789 9.26758Q8.4668 9.86328 7.91016 10.5176L5.94727 12.8027L5.94727 12.8809L8.86719 12.8809Q9.10156 12.8809 9.2627 13.0322Q9.42383 13.1836 9.42383 13.4668Q9.42383 13.7402 9.2627 13.9062Q9.10156 14.0723 8.86719 14.0723ZM13.291 14.3066Q12.3438 14.3066 11.6504 13.8672Q10.957 13.4277 10.7324 12.8027Q10.6934 12.7051 10.6689 12.5879Q10.6445 12.4707 10.6445 12.3438Q10.6445 12.0898 10.8008 11.9238Q10.957 11.7578 11.2109 11.7578Q11.3867 11.7578 11.5332 11.8652Q11.6797 11.9727 11.7871 12.1973Q12.0117 12.6465 12.4268 12.9053Q12.8418 13.1641 13.3594 13.1641Q14.0918 13.1641 14.541 12.7148Q14.9902 12.2656 14.9902 11.4746Q14.9902 10.7812 14.5801 10.3125Q14.1699 9.84375 13.5059 9.84375Q13.1738 9.84375 12.9053 9.96582Q12.6367 10.0879 12.334 10.3516Q12.0898 10.5566 11.9141 10.6299Q11.7383 10.7031 11.5039 10.7031Q11.1621 10.7031 10.9668 10.4639Q10.7715 10.2246 10.8008 9.82422L11.0547 6.68945Q11.0742 6.28906 11.3184 6.05957Q11.5625 5.83008 11.9629 5.83008L15.4199 5.83008Q15.6348 5.83008 15.7764 5.99121Q15.918 6.15234 15.918 6.39648Q15.918 6.64062 15.7764 6.80176Q15.6348 6.96289 15.4199 6.96289L12.0898 6.96289L11.9043 9.55078L11.9434 9.55078Q12.1777 9.20898 12.6562 8.98438Q13.1348 8.75977 13.6426 8.75977Q14.8145 8.75977 15.5322 9.52148Q16.25 10.2832 16.25 11.4453Q16.25 12.7734 15.4346 13.54Q14.6191 14.3066 13.291 14.3066Z" fill="#ffffff"/>
 </g>
</svg>
