<?xml version="1.0" encoding="UTF-8"?>
<!--Generator: Apple Native CoreSVG 175.5-->
<!DOCTYPE svg
PUBLIC "-//W3C//DTD SVG 1.1//EN"
       "http://www.w3.org/Graphics/SVG/1.1/DTD/svg11.dtd">
<svg version="1.1" xmlns="http://www.w3.org/2000/svg" xmlns:xlink="http://www.w3.org/1999/xlink" width="19.9219" height="19.9316">
 <g>
  <rect height="19.9316" opacity="0" width="19.9219" x="0" y="0"/>
  <path d="M9.96094 19.9219Q12.002 19.9219 13.8037 19.1406Q15.6055 18.3594 16.9824 16.9824Q18.3594 15.6055 19.1406 13.8037Q19.9219 12.002 19.9219 9.96094Q19.9219 7.91992 19.1406 6.11816Q18.3594 4.31641 16.9824 2.93945Q15.6055 1.5625 13.7988 0.78125Q11.9922 0 9.95117 0Q7.91016 0 6.1084 0.78125Q4.30664 1.5625 2.93457 2.93945Q1.5625 4.31641 0.78125 6.11816Q0 7.91992 0 9.96094Q0 12.002 0.78125 13.8037Q1.5625 15.6055 2.93945 16.9824Q4.31641 18.3594 6.11816 19.1406Q7.91992 19.9219 9.96094 19.9219ZM9.96094 18.2617Q8.23242 18.2617 6.72852 17.6172Q5.22461 16.9727 4.08691 15.835Q2.94922 14.6973 2.30957 13.1934Q1.66992 11.6895 1.66992 9.96094Q1.66992 8.23242 2.30957 6.72852Q2.94922 5.22461 4.08203 4.08203Q5.21484 2.93945 6.71875 2.2998Q8.22266 1.66016 9.95117 1.66016Q11.6797 1.66016 13.1885 2.2998Q14.6973 2.93945 15.835 4.08203Q16.9727 5.22461 17.6172 6.72852Q18.2617 8.23242 18.2617 9.96094Q18.2617 11.6895 17.6221 13.1934Q16.9824 14.6973 15.8398 15.835Q14.6973 16.9727 13.1934 17.6172Q11.6895 18.2617 9.96094 18.2617Z" fill="#007aff"/>
  <path d="M4.84375 13.9453L8.88672 13.9453Q9.12109 13.9453 9.27246 13.7842Q9.42383 13.623 9.42383 13.3594Q9.42383 13.0957 9.27246 12.9443Q9.12109 12.793 8.88672 12.793L6.04492 12.793L6.04492 12.7246L7.95898 10.498Q8.50586 9.87305 8.8623 9.29199Q9.21875 8.71094 9.21875 7.97852Q9.21875 6.96289 8.53027 6.35742Q7.8418 5.75195 6.68945 5.75195Q5.82031 5.75195 5.12695 6.25Q4.43359 6.74805 4.24805 7.49023Q4.22852 7.58789 4.21387 7.6709Q4.19922 7.75391 4.19922 7.8418Q4.19922 8.10547 4.3457 8.2666Q4.49219 8.42773 4.74609 8.42773Q4.95117 8.42773 5.07812 8.30566Q5.20508 8.18359 5.30273 7.96875Q5.48828 7.42188 5.85449 7.14844Q6.2207 6.875 6.73828 6.875Q7.33398 6.875 7.68555 7.20703Q8.03711 7.53906 8.03711 8.08594Q8.03711 8.56445 7.72461 8.98438Q7.41211 9.4043 7.06055 9.81445L4.48242 12.8418Q4.27734 13.0762 4.27734 13.3691Q4.27734 13.6328 4.42871 13.7891Q4.58008 13.9453 4.84375 13.9453ZM13.1738 14.1699Q14.4629 14.1699 15.2539 13.4277Q16.0449 12.6855 16.0449 11.3965Q16.0449 10.2734 15.3467 9.53613Q14.6484 8.79883 13.5156 8.79883Q13.0273 8.79883 12.5586 9.01367Q12.0898 9.22852 11.875 9.56055L11.8262 9.56055L12.0117 7.05078L15.2441 7.05078Q15.4492 7.05078 15.5859 6.89453Q15.7227 6.73828 15.7227 6.50391Q15.7227 6.26953 15.5908 6.11328Q15.459 5.95703 15.2441 5.95703L11.8848 5.95703Q11.5039 5.95703 11.2646 6.18164Q11.0254 6.40625 11.0059 6.78711L10.7617 9.83398Q10.7324 10.2148 10.9229 10.4443Q11.1133 10.6738 11.4453 10.6738Q11.6699 10.6738 11.8408 10.6055Q12.0117 10.5371 12.2461 10.3418Q12.5488 10.0781 12.8076 9.96094Q13.0664 9.84375 13.3887 9.84375Q14.0332 9.84375 14.4336 10.2979Q14.834 10.752 14.834 11.4258Q14.834 12.1875 14.3896 12.627Q13.9453 13.0664 13.2422 13.0664Q12.7441 13.0664 12.3389 12.8174Q11.9336 12.5684 11.7188 12.1289Q11.6113 11.9141 11.4697 11.8115Q11.3281 11.709 11.1621 11.709Q10.918 11.709 10.7666 11.8701Q10.6152 12.0312 10.6152 12.2754Q10.6152 12.3926 10.6348 12.5049Q10.6543 12.6172 10.6934 12.7148Q10.918 13.3203 11.5869 13.7451Q12.2559 14.1699 13.1738 14.1699Z" fill="#007aff"/>
 </g>
</svg>
