<?xml version="1.0" encoding="UTF-8"?>
<!--Generator: Apple Native CoreSVG 175.5-->
<!DOCTYPE svg
PUBLIC "-//W3C//DTD SVG 1.1//EN"
       "http://www.w3.org/Graphics/SVG/1.1/DTD/svg11.dtd">
<svg version="1.1" xmlns="http://www.w3.org/2000/svg" xmlns:xlink="http://www.w3.org/1999/xlink" width="17.9785" height="17.998">
 <g>
  <rect height="17.998" opacity="0" width="17.9785" x="0" y="0"/>
  <path d="M3.06641 17.998L14.9121 17.998Q16.4453 17.998 17.2119 17.2412Q17.9785 16.4844 17.9785 14.9707L17.9785 3.04688Q17.9785 1.5332 17.2119 0.776367Q16.4453 0.0195312 14.9121 0.0195312L3.06641 0.0195312Q1.5332 0.0195312 0.766602 0.776367Q0 1.5332 0 3.04688L0 14.9707Q0 16.4844 0.766602 17.2412Q1.5332 17.998 3.06641 17.998ZM3.08594 16.4258Q2.35352 16.4258 1.96289 16.04Q1.57227 15.6543 1.57227 14.8926L1.57227 3.125Q1.57227 2.36328 1.96289 1.97754Q2.35352 1.5918 3.08594 1.5918L14.8926 1.5918Q15.6152 1.5918 16.0107 1.97754Q16.4062 2.36328 16.4062 3.125L16.4062 14.8926Q16.4062 15.6543 16.0107 16.04Q15.6152 16.4258 14.8926 16.4258Z" fill="#007aff"/>
  <path d="M3.88672 12.9785L7.92969 12.9785Q8.16406 12.9785 8.31543 12.8174Q8.4668 12.6562 8.4668 12.3926Q8.4668 12.1289 8.31543 11.9775Q8.16406 11.8262 7.92969 11.8262L5.08789 11.8262L5.08789 11.7578L7.00195 9.53125Q7.54883 8.90625 7.90527 8.3252Q8.26172 7.74414 8.26172 7.01172Q8.26172 5.99609 7.57324 5.39062Q6.88477 4.78516 5.73242 4.78516Q4.86328 4.78516 4.16992 5.2832Q3.47656 5.78125 3.29102 6.52344Q3.27148 6.62109 3.25684 6.7041Q3.24219 6.78711 3.24219 6.875Q3.24219 7.13867 3.38867 7.2998Q3.53516 7.46094 3.78906 7.46094Q3.99414 7.46094 4.12109 7.33887Q4.24805 7.2168 4.3457 7.00195Q4.53125 6.45508 4.89746 6.18164Q5.26367 5.9082 5.78125 5.9082Q6.37695 5.9082 6.72852 6.24023Q7.08008 6.57227 7.08008 7.11914Q7.08008 7.59766 6.76758 8.01758Q6.45508 8.4375 6.10352 8.84766L3.52539 11.875Q3.32031 12.1094 3.32031 12.4023Q3.32031 12.666 3.47168 12.8223Q3.62305 12.9785 3.88672 12.9785ZM12.2168 13.2031Q13.5059 13.2031 14.2969 12.4609Q15.0879 11.7188 15.0879 10.4297Q15.0879 9.30664 14.3896 8.56934Q13.6914 7.83203 12.5586 7.83203Q12.0703 7.83203 11.6016 8.04688Q11.1328 8.26172 10.918 8.59375L10.8691 8.59375L11.0547 6.08398L14.2871 6.08398Q14.4922 6.08398 14.6289 5.92773Q14.7656 5.77148 14.7656 5.53711Q14.7656 5.30273 14.6338 5.14648Q14.502 4.99023 14.2871 4.99023L10.9277 4.99023Q10.5469 4.99023 10.3076 5.21484Q10.0684 5.43945 10.0488 5.82031L9.80469 8.86719Q9.77539 9.24805 9.96582 9.47754Q10.1562 9.70703 10.4883 9.70703Q10.7129 9.70703 10.8838 9.63867Q11.0547 9.57031 11.2891 9.375Q11.5918 9.11133 11.8506 8.99414Q12.1094 8.87695 12.4316 8.87695Q13.0762 8.87695 13.4766 9.33105Q13.877 9.78516 13.877 10.459Q13.877 11.2207 13.4326 11.6602Q12.9883 12.0996 12.2852 12.0996Q11.7871 12.0996 11.3818 11.8506Q10.9766 11.6016 10.7617 11.1621Q10.6543 10.9473 10.5127 10.8447Q10.3711 10.7422 10.2051 10.7422Q9.96094 10.7422 9.80957 10.9033Q9.6582 11.0645 9.6582 11.3086Q9.6582 11.4258 9.67773 11.5381Q9.69727 11.6504 9.73633 11.748Q9.96094 12.3535 10.6299 12.7783Q11.2988 13.2031 12.2168 13.2031Z" fill="#007aff"/>
 </g>
</svg>
