<?xml version="1.0" encoding="UTF-8"?>
<!--Generator: Apple Native CoreSVG 175.5-->
<!DOCTYPE svg
PUBLIC "-//W3C//DTD SVG 1.1//EN"
       "http://www.w3.org/Graphics/SVG/1.1/DTD/svg11.dtd">
<svg version="1.1" xmlns="http://www.w3.org/2000/svg" xmlns:xlink="http://www.w3.org/1999/xlink" width="17.9785" height="17.998">
 <g>
  <rect height="17.998" opacity="0" width="17.9785" x="0" y="0"/>
  <path d="M3.06641 17.998L14.9121 17.998Q16.4453 17.998 17.2119 17.2412Q17.9785 16.4844 17.9785 14.9707L17.9785 3.04688Q17.9785 1.5332 17.2119 0.776367Q16.4453 0.0195312 14.9121 0.0195312L3.06641 0.0195312Q1.5332 0.0195312 0.766602 0.776367Q0 1.5332 0 3.04688L0 14.9707Q0 16.4844 0.766602 17.2412Q1.5332 17.998 3.06641 17.998ZM3.08594 16.4258Q2.35352 16.4258 1.96289 16.04Q1.57227 15.6543 1.57227 14.8926L1.57227 3.125Q1.57227 2.36328 1.96289 1.97754Q2.35352 1.5918 3.08594 1.5918L14.8926 1.5918Q15.6152 1.5918 16.0107 1.97754Q16.4062 2.36328 16.4062 3.125L16.4062 14.8926Q16.4062 15.6543 16.0107 16.04Q15.6152 16.4258 14.8926 16.4258Z" fill="#007aff"/>
  <path d="M3.80859 12.9785L7.85156 12.9785Q8.08594 12.9785 8.2373 12.8174Q8.38867 12.6562 8.38867 12.3926Q8.38867 12.1289 8.2373 11.9775Q8.08594 11.8262 7.85156 11.8262L5.00977 11.8262L5.00977 11.7578L6.92383 9.53125Q7.4707 8.90625 7.82715 8.3252Q8.18359 7.74414 8.18359 7.01172Q8.18359 5.99609 7.49512 5.39062Q6.80664 4.78516 5.6543 4.78516Q4.78516 4.78516 4.0918 5.2832Q3.39844 5.78125 3.21289 6.52344Q3.19336 6.62109 3.17871 6.7041Q3.16406 6.78711 3.16406 6.875Q3.16406 7.13867 3.31055 7.2998Q3.45703 7.46094 3.71094 7.46094Q3.91602 7.46094 4.04297 7.33887Q4.16992 7.2168 4.26758 7.00195Q4.45312 6.45508 4.81934 6.18164Q5.18555 5.9082 5.70312 5.9082Q6.29883 5.9082 6.65039 6.24023Q7.00195 6.57227 7.00195 7.11914Q7.00195 7.59766 6.68945 8.01758Q6.37695 8.4375 6.02539 8.84766L3.44727 11.875Q3.24219 12.1094 3.24219 12.4023Q3.24219 12.666 3.39355 12.8223Q3.54492 12.9785 3.80859 12.9785ZM12.3438 13.2129Q13.5254 13.2129 14.292 12.4658Q15.0586 11.7188 15.0586 10.3809Q15.0586 9.12109 14.3262 8.44727Q13.5938 7.77344 12.6367 7.77344Q11.8555 7.77344 11.3672 8.14941Q10.8789 8.52539 10.7031 9.00391L10.6348 9.00391Q10.6348 8.98438 10.6348 8.96484Q10.6348 8.94531 10.6348 8.91602Q10.6348 7.5293 11.1426 6.71875Q11.6504 5.9082 12.4805 5.9082Q12.9004 5.9082 13.1982 6.09375Q13.4961 6.2793 13.6816 6.5625Q13.8086 6.74805 13.9355 6.83594Q14.0625 6.92383 14.2676 6.92383Q14.4629 6.92383 14.6045 6.77734Q14.7461 6.63086 14.7461 6.38672Q14.7461 6.20117 14.668 6.01562Q14.5508 5.69336 14.2529 5.41016Q13.9551 5.12695 13.5205 4.95605Q13.0859 4.78516 12.5293 4.78516Q11.1133 4.78516 10.2979 5.88867Q9.48242 6.99219 9.48242 9.21875Q9.48242 10.1074 9.62402 10.7715Q9.76562 11.4355 10.0098 11.8945Q10.3809 12.5977 10.9863 12.9053Q11.5918 13.2129 12.3438 13.2129ZM12.2852 12.1387Q11.6016 12.1387 11.1719 11.6602Q10.7422 11.1816 10.7422 10.4199Q10.7422 9.69727 11.1719 9.23828Q11.6016 8.7793 12.2852 8.7793Q12.9785 8.7793 13.4033 9.23828Q13.8281 9.69727 13.8281 10.4297Q13.8281 11.2109 13.4082 11.6748Q12.9883 12.1387 12.2852 12.1387Z" fill="#007aff"/>
 </g>
</svg>
