<?xml version="1.0" encoding="UTF-8"?>
<!--Generator: Apple Native CoreSVG 175.5-->
<!DOCTYPE svg
PUBLIC "-//W3C//DTD SVG 1.1//EN"
       "http://www.w3.org/Graphics/SVG/1.1/DTD/svg11.dtd">
<svg version="1.1" xmlns="http://www.w3.org/2000/svg" xmlns:xlink="http://www.w3.org/1999/xlink" width="19.9219" height="19.9316">
 <g>
  <rect height="19.9316" opacity="0" width="19.9219" x="0" y="0"/>
  <path d="M9.96094 19.9219Q12.002 19.9219 13.8037 19.1406Q15.6055 18.3594 16.9824 16.9824Q18.3594 15.6055 19.1406 13.8037Q19.9219 12.002 19.9219 9.96094Q19.9219 7.91992 19.1406 6.11816Q18.3594 4.31641 16.9824 2.93945Q15.6055 1.5625 13.7988 0.78125Q11.9922 0 9.95117 0Q7.91016 0 6.1084 0.78125Q4.30664 1.5625 2.93457 2.93945Q1.5625 4.31641 0.78125 6.11816Q0 7.91992 0 9.96094Q0 12.002 0.78125 13.8037Q1.5625 15.6055 2.93945 16.9824Q4.31641 18.3594 6.11816 19.1406Q7.91992 19.9219 9.96094 19.9219ZM9.96094 18.2617Q8.23242 18.2617 6.72852 17.6172Q5.22461 16.9727 4.08691 15.835Q2.94922 14.6973 2.30957 13.1934Q1.66992 11.6895 1.66992 9.96094Q1.66992 8.23242 2.30957 6.72852Q2.94922 5.22461 4.08203 4.08203Q5.21484 2.93945 6.71875 2.2998Q8.22266 1.66016 9.95117 1.66016Q11.6797 1.66016 13.1885 2.2998Q14.6973 2.93945 15.835 4.08203Q16.9727 5.22461 17.6172 6.72852Q18.2617 8.23242 18.2617 9.96094Q18.2617 11.6895 17.6221 13.1934Q16.9824 14.6973 15.8398 15.835Q14.6973 16.9727 13.1934 17.6172Q11.6895 18.2617 9.96094 18.2617Z" fill="#007aff"/>
  <path d="M5.04883 13.9453L9.0918 13.9453Q9.32617 13.9453 9.47754 13.7842Q9.62891 13.623 9.62891 13.3594Q9.62891 13.0957 9.47754 12.9443Q9.32617 12.793 9.0918 12.793L6.25 12.793L6.25 12.7246L8.16406 10.498Q8.71094 9.87305 9.06738 9.29199Q9.42383 8.71094 9.42383 7.97852Q9.42383 6.96289 8.73535 6.35742Q8.04688 5.75195 6.89453 5.75195Q6.02539 5.75195 5.33203 6.25Q4.63867 6.74805 4.45312 7.49023Q4.43359 7.58789 4.41895 7.6709Q4.4043 7.75391 4.4043 7.8418Q4.4043 8.10547 4.55078 8.2666Q4.69727 8.42773 4.95117 8.42773Q5.15625 8.42773 5.2832 8.30566Q5.41016 8.18359 5.50781 7.96875Q5.69336 7.42188 6.05957 7.14844Q6.42578 6.875 6.94336 6.875Q7.53906 6.875 7.89062 7.20703Q8.24219 7.53906 8.24219 8.08594Q8.24219 8.56445 7.92969 8.98438Q7.61719 9.4043 7.26562 9.81445L4.6875 12.8418Q4.48242 13.0762 4.48242 13.3691Q4.48242 13.6328 4.63379 13.7891Q4.78516 13.9453 5.04883 13.9453ZM12.1484 14.0625Q12.3438 14.0625 12.4951 13.9502Q12.6465 13.8379 12.7734 13.584L15.8203 7.49023Q15.9375 7.25586 15.9717 7.10449Q16.0059 6.95312 16.0059 6.79688Q16.0059 6.44531 15.7715 6.19629Q15.5371 5.94727 15.1367 5.94727L11.2012 5.94727Q10.9473 5.94727 10.791 6.09863Q10.6348 6.25 10.6348 6.50391Q10.6348 6.74805 10.791 6.89453Q10.9473 7.04102 11.2012 7.04102L14.6289 7.04102L14.6289 7.11914L11.6016 12.9785Q11.4941 13.1641 11.4941 13.4277Q11.4941 13.7012 11.6846 13.8818Q11.875 14.0625 12.1484 14.0625Z" fill="#007aff"/>
 </g>
</svg>
