<?xml version="1.0" encoding="UTF-8"?>
<!--Generator: Apple Native CoreSVG 175.5-->
<!DOCTYPE svg
PUBLIC "-//W3C//DTD SVG 1.1//EN"
       "http://www.w3.org/Graphics/SVG/1.1/DTD/svg11.dtd">
<svg version="1.1" xmlns="http://www.w3.org/2000/svg" xmlns:xlink="http://www.w3.org/1999/xlink" width="19.9219" height="19.9316">
 <g>
  <rect height="19.9316" opacity="0" width="19.9219" x="0" y="0"/>
  <path d="M9.96094 19.9219Q12.002 19.9219 13.8037 19.1406Q15.6055 18.3594 16.9824 16.9824Q18.3594 15.6055 19.1406 13.8037Q19.9219 12.002 19.9219 9.96094Q19.9219 7.91992 19.1406 6.11816Q18.3594 4.31641 16.9824 2.93945Q15.6055 1.5625 13.7988 0.78125Q11.9922 0 9.95117 0Q7.91016 0 6.1084 0.78125Q4.30664 1.5625 2.93457 2.93945Q1.5625 4.31641 0.78125 6.11816Q0 7.91992 0 9.96094Q0 12.002 0.78125 13.8037Q1.5625 15.6055 2.93945 16.9824Q4.31641 18.3594 6.11816 19.1406Q7.91992 19.9219 9.96094 19.9219Z" fill="#007aff"/>
  <path d="M7.33398 14.3066Q6.30859 14.3066 5.56641 13.7695Q4.82422 13.2324 4.62891 12.5391Q4.59961 12.4414 4.58984 12.3584Q4.58008 12.2754 4.58008 12.168Q4.58008 11.9043 4.74121 11.7334Q4.90234 11.5625 5.16602 11.5625Q5.54688 11.5625 5.74219 12.041Q5.9375 12.5684 6.34277 12.8516Q6.74805 13.1348 7.34375 13.1348Q8.06641 13.1348 8.52539 12.7441Q8.98438 12.3535 8.98438 11.7676Q8.98438 11.1523 8.55469 10.7812Q8.125 10.4102 7.41211 10.4102L6.82617 10.4102Q6.58203 10.4102 6.42578 10.2441Q6.26953 10.0781 6.26953 9.83398Q6.26953 9.56055 6.42578 9.39453Q6.58203 9.22852 6.82617 9.22852L7.36328 9.22852Q7.96875 9.22852 8.34473 8.87207Q8.7207 8.51562 8.7207 7.96875Q8.7207 7.44141 8.34961 7.11426Q7.97852 6.78711 7.37305 6.78711Q6.78711 6.78711 6.4209 7.07031Q6.05469 7.35352 5.87891 7.88086Q5.81055 8.125 5.67871 8.24219Q5.54688 8.35938 5.32227 8.35938Q5.05859 8.35938 4.90234 8.18848Q4.74609 8.01758 4.74609 7.74414Q4.74609 7.51953 4.76562 7.38281Q4.9707 6.64062 5.67871 6.12793Q6.38672 5.61523 7.41211 5.61523Q8.53516 5.61523 9.25293 6.22559Q9.9707 6.83594 9.9707 7.80273Q9.9707 8.51562 9.54102 9.07227Q9.11133 9.62891 8.48633 9.72656L8.48633 9.78516Q9.24805 9.86328 9.74121 10.4395Q10.2344 11.0156 10.2344 11.8262Q10.2344 12.9102 9.42871 13.6084Q8.62305 14.3066 7.33398 14.3066ZM14.3359 14.1797Q14.0625 14.1797 13.8916 14.0039Q13.7207 13.8281 13.7207 13.5352L13.7207 7.28516L13.6621 7.28516L12.5879 8.07617Q12.4121 8.21289 12.3145 8.24219Q12.2168 8.27148 12.0898 8.27148Q11.875 8.27148 11.6943 8.0957Q11.5137 7.91992 11.5137 7.66602Q11.5137 7.31445 11.8555 7.07031L13.3887 6.02539Q13.6523 5.83984 13.8379 5.76172Q14.0234 5.68359 14.2773 5.68359Q14.5898 5.68359 14.7852 5.88867Q14.9805 6.09375 14.9805 6.40625L14.9805 13.5352Q14.9805 14.1797 14.3359 14.1797Z" fill="#ffffff"/>
 </g>
</svg>
