<?xml version="1.0" encoding="UTF-8"?>
<!--Generator: Apple Native CoreSVG 175.5-->
<!DOCTYPE svg
PUBLIC "-//W3C//DTD SVG 1.1//EN"
       "http://www.w3.org/Graphics/SVG/1.1/DTD/svg11.dtd">
<svg version="1.1" xmlns="http://www.w3.org/2000/svg" xmlns:xlink="http://www.w3.org/1999/xlink" width="19.9219" height="19.9316">
 <g>
  <rect height="19.9316" opacity="0" width="19.9219" x="0" y="0"/>
  <path d="M9.96094 19.9219Q12.002 19.9219 13.8037 19.1406Q15.6055 18.3594 16.9824 16.9824Q18.3594 15.6055 19.1406 13.8037Q19.9219 12.002 19.9219 9.96094Q19.9219 7.91992 19.1406 6.11816Q18.3594 4.31641 16.9824 2.93945Q15.6055 1.5625 13.7988 0.78125Q11.9922 0 9.95117 0Q7.91016 0 6.1084 0.78125Q4.30664 1.5625 2.93457 2.93945Q1.5625 4.31641 0.78125 6.11816Q0 7.91992 0 9.96094Q0 12.002 0.78125 13.8037Q1.5625 15.6055 2.93945 16.9824Q4.31641 18.3594 6.11816 19.1406Q7.91992 19.9219 9.96094 19.9219ZM9.96094 18.2617Q8.23242 18.2617 6.72852 17.6172Q5.22461 16.9727 4.08691 15.835Q2.94922 14.6973 2.30957 13.1934Q1.66992 11.6895 1.66992 9.96094Q1.66992 8.23242 2.30957 6.72852Q2.94922 5.22461 4.08203 4.08203Q5.21484 2.93945 6.71875 2.2998Q8.22266 1.66016 9.95117 1.66016Q11.6797 1.66016 13.1885 2.2998Q14.6973 2.93945 15.835 4.08203Q16.9727 5.22461 17.6172 6.72852Q18.2617 8.23242 18.2617 9.96094Q18.2617 11.6895 17.6221 13.1934Q16.9824 14.6973 15.8398 15.835Q14.6973 16.9727 13.1934 17.6172Q11.6895 18.2617 9.96094 18.2617Z" fill="#007aff"/>
  <path d="M7.40234 14.1699Q8.64258 14.1699 9.42871 13.4961Q10.2148 12.8223 10.2148 11.7676Q10.2148 10.9863 9.73145 10.4248Q9.24805 9.86328 8.51562 9.79492L8.51562 9.73633Q9.12109 9.63867 9.53613 9.09668Q9.95117 8.55469 9.95117 7.87109Q9.95117 6.93359 9.25781 6.34277Q8.56445 5.75195 7.4707 5.75195Q6.47461 5.75195 5.79102 6.25Q5.10742 6.74805 4.91211 7.46094Q4.89258 7.59766 4.89258 7.8125Q4.89258 8.07617 5.04395 8.24219Q5.19531 8.4082 5.44922 8.4082Q5.66406 8.4082 5.79102 8.29102Q5.91797 8.17383 5.98633 7.93945Q6.15234 7.42188 6.50879 7.14844Q6.86523 6.875 7.44141 6.875Q8.01758 6.875 8.38379 7.19238Q8.75 7.50977 8.75 8.02734Q8.75 8.56445 8.38379 8.91113Q8.01758 9.25781 7.43164 9.25781L6.9043 9.25781Q6.66992 9.25781 6.51855 9.41406Q6.36719 9.57031 6.36719 9.83398Q6.36719 10.0684 6.51367 10.2295Q6.66016 10.3906 6.9043 10.3906L7.48047 10.3906Q8.17383 10.3906 8.58887 10.752Q9.00391 11.1133 9.00391 11.709Q9.00391 12.2754 8.55957 12.6611Q8.11523 13.0469 7.41211 13.0469Q6.83594 13.0469 6.44043 12.7686Q6.04492 12.4902 5.84961 11.9824Q5.67383 11.5137 5.29297 11.5137Q5.04883 11.5137 4.8877 11.6797Q4.72656 11.8457 4.72656 12.0996Q4.72656 12.207 4.73633 12.2852Q4.74609 12.3633 4.77539 12.4609Q4.9707 13.1348 5.68848 13.6523Q6.40625 14.1699 7.40234 14.1699ZM14.1895 14.0527Q14.8145 14.0527 14.8145 13.4277L14.8145 6.51367Q14.8145 6.20117 14.624 6.00586Q14.4336 5.81055 14.1309 5.81055Q13.8867 5.81055 13.7061 5.88867Q13.5254 5.9668 13.2715 6.14258L11.7871 7.1582Q11.4551 7.39258 11.4551 7.73438Q11.4551 7.97852 11.6309 8.14941Q11.8066 8.32031 12.0117 8.32031Q12.1387 8.32031 12.2314 8.2959Q12.3242 8.27148 12.4902 8.13477L13.5352 7.36328L13.5938 7.36328L13.5938 13.4277Q13.5938 14.0527 14.1895 14.0527Z" fill="#007aff"/>
 </g>
</svg>
