<?xml version="1.0" encoding="UTF-8"?>
<!--Generator: Apple Native CoreSVG 175.5-->
<!DOCTYPE svg
PUBLIC "-//W3C//DTD SVG 1.1//EN"
       "http://www.w3.org/Graphics/SVG/1.1/DTD/svg11.dtd">
<svg version="1.1" xmlns="http://www.w3.org/2000/svg" xmlns:xlink="http://www.w3.org/1999/xlink" width="17.9785" height="17.998">
 <g>
  <rect height="17.998" opacity="0" width="17.9785" x="0" y="0"/>
  <path d="M3.06641 17.998L14.9121 17.998Q16.4453 17.998 17.2119 17.2412Q17.9785 16.4844 17.9785 14.9707L17.9785 3.04688Q17.9785 1.5332 17.2119 0.776367Q16.4453 0.0195312 14.9121 0.0195312L3.06641 0.0195312Q1.5332 0.0195312 0.766602 0.776367Q0 1.5332 0 3.04688L0 14.9707Q0 16.4844 0.766602 17.2412Q1.5332 17.998 3.06641 17.998Z" fill="#007aff"/>
  <path d="M5.66406 13.3398Q4.63867 13.3398 3.89648 12.8027Q3.1543 12.2656 2.95898 11.5723Q2.92969 11.4746 2.91504 11.3916Q2.90039 11.3086 2.90039 11.2012Q2.90039 10.9375 3.06641 10.7666Q3.23242 10.5957 3.49609 10.5957Q3.87695 10.5957 4.07227 11.0742Q4.26758 11.6016 4.67285 11.8848Q5.07812 12.168 5.67383 12.168Q6.39648 12.168 6.85547 11.7773Q7.31445 11.3867 7.31445 10.8008Q7.31445 10.1855 6.88477 9.81445Q6.45508 9.44336 5.74219 9.44336L5.15625 9.44336Q4.91211 9.44336 4.75586 9.27734Q4.59961 9.11133 4.59961 8.86719Q4.59961 8.59375 4.75586 8.42773Q4.91211 8.26172 5.15625 8.26172L5.69336 8.26172Q6.29883 8.26172 6.6748 7.90527Q7.05078 7.54883 7.05078 7.00195Q7.05078 6.47461 6.67969 6.14746Q6.30859 5.82031 5.70312 5.82031Q5.11719 5.82031 4.75098 6.10352Q4.38477 6.38672 4.20898 6.91406Q4.14062 7.1582 4.00879 7.27539Q3.87695 7.39258 3.65234 7.39258Q3.38867 7.39258 3.23242 7.22168Q3.07617 7.05078 3.07617 6.77734Q3.07617 6.55273 3.0957 6.41602Q3.30078 5.67383 4.00391 5.16113Q4.70703 4.64844 5.73242 4.64844Q6.86523 4.64844 7.58301 5.25879Q8.30078 5.86914 8.30078 6.83594Q8.30078 7.54883 7.87109 8.10547Q7.44141 8.66211 6.81641 8.75977L6.81641 8.81836Q7.57812 8.89648 8.07129 9.47266Q8.56445 10.0488 8.56445 10.8594Q8.56445 11.9434 7.75879 12.6416Q6.95312 13.3398 5.66406 13.3398ZM12.4121 13.3398Q11.4648 13.3398 10.7715 12.9004Q10.0781 12.4609 9.85352 11.8359Q9.81445 11.7383 9.79492 11.6211Q9.77539 11.5039 9.77539 11.377Q9.77539 11.123 9.93164 10.957Q10.0879 10.791 10.3418 10.791Q10.5176 10.791 10.6592 10.8984Q10.8008 11.0059 10.918 11.2305Q11.1426 11.6797 11.5576 11.9385Q11.9727 12.1973 12.4805 12.1973Q13.2129 12.1973 13.667 11.748Q14.1211 11.2988 14.1211 10.5078Q14.1211 9.81445 13.7061 9.3457Q13.291 8.87695 12.6367 8.87695Q12.3047 8.87695 12.0361 8.99902Q11.7676 9.12109 11.4648 9.38477Q11.2207 9.58984 11.0449 9.66309Q10.8691 9.73633 10.6348 9.73633Q10.2832 9.73633 10.0879 9.49707Q9.89258 9.25781 9.92188 8.85742L10.1758 5.72266Q10.1953 5.32227 10.4395 5.09277Q10.6836 4.86328 11.084 4.86328L14.5508 4.86328Q14.7656 4.86328 14.9072 5.02441Q15.0488 5.18555 15.0488 5.42969Q15.0488 5.67383 14.9072 5.83496Q14.7656 5.99609 14.5508 5.99609L11.2207 5.99609L11.0254 8.58398L11.0645 8.58398Q11.2988 8.24219 11.7773 8.01758Q12.2559 7.79297 12.7637 7.79297Q13.9355 7.79297 14.6582 8.55469Q15.3809 9.31641 15.3809 10.4785Q15.3809 11.8066 14.5654 12.5732Q13.75 13.3398 12.4121 13.3398Z" fill="#ffffff"/>
 </g>
</svg>
