<?xml version="1.0" encoding="UTF-8"?>
<!--Generator: Apple Native CoreSVG 175.5-->
<!DOCTYPE svg
PUBLIC "-//W3C//DTD SVG 1.1//EN"
       "http://www.w3.org/Graphics/SVG/1.1/DTD/svg11.dtd">
<svg version="1.1" xmlns="http://www.w3.org/2000/svg" xmlns:xlink="http://www.w3.org/1999/xlink" width="17.9785" height="17.998">
 <g>
  <rect height="17.998" opacity="0" width="17.9785" x="0" y="0"/>
  <path d="M3.06641 17.998L14.9121 17.998Q16.4453 17.998 17.2119 17.2412Q17.9785 16.4844 17.9785 14.9707L17.9785 3.04688Q17.9785 1.5332 17.2119 0.776367Q16.4453 0.0195312 14.9121 0.0195312L3.06641 0.0195312Q1.5332 0.0195312 0.766602 0.776367Q0 1.5332 0 3.04688L0 14.9707Q0 16.4844 0.766602 17.2412Q1.5332 17.998 3.06641 17.998ZM3.08594 16.4258Q2.35352 16.4258 1.96289 16.04Q1.57227 15.6543 1.57227 14.8926L1.57227 3.125Q1.57227 2.36328 1.96289 1.97754Q2.35352 1.5918 3.08594 1.5918L14.8926 1.5918Q15.6152 1.5918 16.0107 1.97754Q16.4062 2.36328 16.4062 3.125L16.4062 14.8926Q16.4062 15.6543 16.0107 16.04Q15.6152 16.4258 14.8926 16.4258Z" fill="#007aff"/>
  <path d="M5.5957 13.2031Q6.83594 13.2031 7.62207 12.5293Q8.4082 11.8555 8.4082 10.8008Q8.4082 10.0195 7.9248 9.45801Q7.44141 8.89648 6.70898 8.82812L6.70898 8.76953Q7.31445 8.67188 7.72949 8.12988Q8.14453 7.58789 8.14453 6.9043Q8.14453 5.9668 7.45117 5.37598Q6.75781 4.78516 5.66406 4.78516Q4.66797 4.78516 3.98438 5.2832Q3.30078 5.78125 3.10547 6.49414Q3.08594 6.63086 3.08594 6.8457Q3.08594 7.10938 3.2373 7.27539Q3.38867 7.44141 3.64258 7.44141Q3.85742 7.44141 3.98438 7.32422Q4.11133 7.20703 4.17969 6.97266Q4.3457 6.45508 4.70215 6.18164Q5.05859 5.9082 5.63477 5.9082Q6.21094 5.9082 6.57715 6.22559Q6.94336 6.54297 6.94336 7.06055Q6.94336 7.59766 6.57715 7.94434Q6.21094 8.29102 5.625 8.29102L5.09766 8.29102Q4.86328 8.29102 4.71191 8.44727Q4.56055 8.60352 4.56055 8.86719Q4.56055 9.10156 4.70703 9.2627Q4.85352 9.42383 5.09766 9.42383L5.67383 9.42383Q6.36719 9.42383 6.78223 9.78516Q7.19727 10.1465 7.19727 10.7422Q7.19727 11.3086 6.75293 11.6943Q6.30859 12.0801 5.60547 12.0801Q5.0293 12.0801 4.63379 11.8018Q4.23828 11.5234 4.04297 11.0156Q3.86719 10.5469 3.48633 10.5469Q3.24219 10.5469 3.08105 10.7129Q2.91992 10.8789 2.91992 11.1328Q2.91992 11.2402 2.92969 11.3184Q2.93945 11.3965 2.96875 11.4941Q3.16406 12.168 3.88184 12.6855Q4.59961 13.2031 5.5957 13.2031ZM12.4316 13.2129Q13.623 13.2129 14.3848 12.4658Q15.1465 11.7188 15.1465 10.3809Q15.1465 9.12109 14.4141 8.44727Q13.6816 7.77344 12.7246 7.77344Q11.9531 7.77344 11.4648 8.14941Q10.9766 8.52539 10.791 9.00391L10.7227 9.00391Q10.7227 8.98438 10.7227 8.96484Q10.7227 8.94531 10.7227 8.91602Q10.7227 7.5293 11.2305 6.71875Q11.7383 5.9082 12.5684 5.9082Q12.9883 5.9082 13.2861 6.09375Q13.584 6.2793 13.7695 6.5625Q13.8965 6.74805 14.0234 6.83594Q14.1504 6.92383 14.3555 6.92383Q14.5605 6.92383 14.6973 6.77734Q14.834 6.63086 14.834 6.38672Q14.834 6.20117 14.7656 6.01562Q14.6387 5.69336 14.3457 5.41016Q14.0527 5.12695 13.6133 4.95605Q13.1738 4.78516 12.6172 4.78516Q11.2109 4.78516 10.3955 5.88867Q9.58008 6.99219 9.58008 9.21875Q9.58008 10.1074 9.7168 10.7715Q9.85352 11.4355 10.0977 11.8945Q10.4785 12.5977 11.084 12.9053Q11.6895 13.2129 12.4316 13.2129ZM12.373 12.1387Q11.6992 12.1387 11.2646 11.6602Q10.8301 11.1816 10.8301 10.4199Q10.8301 9.69727 11.2598 9.23828Q11.6895 8.7793 12.3828 8.7793Q13.0664 8.7793 13.4912 9.23828Q13.916 9.69727 13.916 10.4297Q13.916 11.2109 13.501 11.6748Q13.0859 12.1387 12.373 12.1387Z" fill="#007aff"/>
 </g>
</svg>
