<?xml version="1.0" encoding="UTF-8"?>
<!--Generator: Apple Native CoreSVG 175.5-->
<!DOCTYPE svg
PUBLIC "-//W3C//DTD SVG 1.1//EN"
       "http://www.w3.org/Graphics/SVG/1.1/DTD/svg11.dtd">
<svg version="1.1" xmlns="http://www.w3.org/2000/svg" xmlns:xlink="http://www.w3.org/1999/xlink" width="19.9219" height="19.9316">
 <g>
  <rect height="19.9316" opacity="0" width="19.9219" x="0" y="0"/>
  <path d="M9.96094 19.9219Q12.002 19.9219 13.8037 19.1406Q15.6055 18.3594 16.9824 16.9824Q18.3594 15.6055 19.1406 13.8037Q19.9219 12.002 19.9219 9.96094Q19.9219 7.91992 19.1406 6.11816Q18.3594 4.31641 16.9824 2.93945Q15.6055 1.5625 13.7988 0.78125Q11.9922 0 9.95117 0Q7.91016 0 6.1084 0.78125Q4.30664 1.5625 2.93457 2.93945Q1.5625 4.31641 0.78125 6.11816Q0 7.91992 0 9.96094Q0 12.002 0.78125 13.8037Q1.5625 15.6055 2.93945 16.9824Q4.31641 18.3594 6.11816 19.1406Q7.91992 19.9219 9.96094 19.9219ZM9.96094 18.2617Q8.23242 18.2617 6.72852 17.6172Q5.22461 16.9727 4.08691 15.835Q2.94922 14.6973 2.30957 13.1934Q1.66992 11.6895 1.66992 9.96094Q1.66992 8.23242 2.30957 6.72852Q2.94922 5.22461 4.08203 4.08203Q5.21484 2.93945 6.71875 2.2998Q8.22266 1.66016 9.95117 1.66016Q11.6797 1.66016 13.1885 2.2998Q14.6973 2.93945 15.835 4.08203Q16.9727 5.22461 17.6172 6.72852Q18.2617 8.23242 18.2617 9.96094Q18.2617 11.6895 17.6221 13.1934Q16.9824 14.6973 15.8398 15.835Q14.6973 16.9727 13.1934 17.6172Q11.6895 18.2617 9.96094 18.2617Z" fill="#007aff"/>
  <path d="M6.82617 14.1699Q8.06641 14.1699 8.85254 13.4961Q9.63867 12.8223 9.63867 11.7676Q9.63867 10.9863 9.15527 10.4248Q8.67188 9.86328 7.93945 9.79492L7.93945 9.73633Q8.54492 9.63867 8.95996 9.09668Q9.375 8.55469 9.375 7.87109Q9.375 6.93359 8.68164 6.34277Q7.98828 5.75195 6.89453 5.75195Q5.89844 5.75195 5.21484 6.25Q4.53125 6.74805 4.33594 7.46094Q4.31641 7.59766 4.31641 7.8125Q4.31641 8.07617 4.46777 8.24219Q4.61914 8.4082 4.87305 8.4082Q5.08789 8.4082 5.21484 8.29102Q5.3418 8.17383 5.41016 7.93945Q5.57617 7.42188 5.93262 7.14844Q6.28906 6.875 6.86523 6.875Q7.44141 6.875 7.80762 7.19238Q8.17383 7.50977 8.17383 8.02734Q8.17383 8.56445 7.80762 8.91113Q7.44141 9.25781 6.85547 9.25781L6.32812 9.25781Q6.09375 9.25781 5.94238 9.41406Q5.79102 9.57031 5.79102 9.83398Q5.79102 10.0684 5.9375 10.2295Q6.08398 10.3906 6.32812 10.3906L6.9043 10.3906Q7.59766 10.3906 8.0127 10.752Q8.42773 11.1133 8.42773 11.709Q8.42773 12.2754 7.9834 12.6611Q7.53906 13.0469 6.83594 13.0469Q6.25977 13.0469 5.86426 12.7686Q5.46875 12.4902 5.27344 11.9824Q5.09766 11.5137 4.7168 11.5137Q4.47266 11.5137 4.31152 11.6797Q4.15039 11.8457 4.15039 12.0996Q4.15039 12.207 4.16016 12.2852Q4.16992 12.3633 4.19922 12.4609Q4.39453 13.1348 5.1123 13.6523Q5.83008 14.1699 6.82617 14.1699ZM12.1484 14.0625Q12.3438 14.0625 12.4902 13.9502Q12.6367 13.8379 12.7637 13.584L15.8203 7.49023Q15.9277 7.25586 15.9619 7.10449Q15.9961 6.95312 15.9961 6.79688Q15.9961 6.44531 15.7617 6.19629Q15.5273 5.94727 15.1367 5.94727L11.1914 5.94727Q10.9375 5.94727 10.7812 6.09863Q10.625 6.25 10.625 6.50391Q10.625 6.74805 10.7812 6.89453Q10.9375 7.04102 11.1914 7.04102L14.6191 7.04102L14.6191 7.11914L11.6016 12.9785Q11.4941 13.1641 11.4941 13.4277Q11.4941 13.7012 11.6797 13.8818Q11.8652 14.0625 12.1484 14.0625Z" fill="#007aff"/>
 </g>
</svg>
