<?xml version="1.0" encoding="UTF-8"?>
<!--Generator: Apple Native CoreSVG 175.5-->
<!DOCTYPE svg
PUBLIC "-//W3C//DTD SVG 1.1//EN"
       "http://www.w3.org/Graphics/SVG/1.1/DTD/svg11.dtd">
<svg version="1.1" xmlns="http://www.w3.org/2000/svg" xmlns:xlink="http://www.w3.org/1999/xlink" width="17.9785" height="17.998">
 <g>
  <rect height="17.998" opacity="0" width="17.9785" x="0" y="0"/>
  <path d="M3.06641 17.998L14.9121 17.998Q16.4453 17.998 17.2119 17.2412Q17.9785 16.4844 17.9785 14.9707L17.9785 3.04688Q17.9785 1.5332 17.2119 0.776367Q16.4453 0.0195312 14.9121 0.0195312L3.06641 0.0195312Q1.5332 0.0195312 0.766602 0.776367Q0 1.5332 0 3.04688L0 14.9707Q0 16.4844 0.766602 17.2412Q1.5332 17.998 3.06641 17.998ZM3.08594 16.4258Q2.35352 16.4258 1.96289 16.04Q1.57227 15.6543 1.57227 14.8926L1.57227 3.125Q1.57227 2.36328 1.96289 1.97754Q2.35352 1.5918 3.08594 1.5918L14.8926 1.5918Q15.6152 1.5918 16.0107 1.97754Q16.4062 2.36328 16.4062 3.125L16.4062 14.8926Q16.4062 15.6543 16.0107 16.04Q15.6152 16.4258 14.8926 16.4258Z" fill="#007aff"/>
  <path d="M5.86914 13.2031Q7.10938 13.2031 7.89551 12.5293Q8.68164 11.8555 8.68164 10.8008Q8.68164 10.0195 8.19824 9.45801Q7.71484 8.89648 6.98242 8.82812L6.98242 8.76953Q7.58789 8.67188 8.00293 8.12988Q8.41797 7.58789 8.41797 6.9043Q8.41797 5.9668 7.72461 5.37598Q7.03125 4.78516 5.9375 4.78516Q4.94141 4.78516 4.25781 5.2832Q3.57422 5.78125 3.37891 6.49414Q3.35938 6.63086 3.35938 6.8457Q3.35938 7.10938 3.51074 7.27539Q3.66211 7.44141 3.91602 7.44141Q4.13086 7.44141 4.25781 7.32422Q4.38477 7.20703 4.45312 6.97266Q4.61914 6.45508 4.97559 6.18164Q5.33203 5.9082 5.9082 5.9082Q6.48438 5.9082 6.85059 6.22559Q7.2168 6.54297 7.2168 7.06055Q7.2168 7.59766 6.85059 7.94434Q6.48438 8.29102 5.89844 8.29102L5.37109 8.29102Q5.13672 8.29102 4.98535 8.44727Q4.83398 8.60352 4.83398 8.86719Q4.83398 9.10156 4.98047 9.2627Q5.12695 9.42383 5.37109 9.42383L5.94727 9.42383Q6.64062 9.42383 7.05566 9.78516Q7.4707 10.1465 7.4707 10.7422Q7.4707 11.3086 7.02637 11.6943Q6.58203 12.0801 5.87891 12.0801Q5.30273 12.0801 4.90723 11.8018Q4.51172 11.5234 4.31641 11.0156Q4.14062 10.5469 3.75977 10.5469Q3.51562 10.5469 3.35449 10.7129Q3.19336 10.8789 3.19336 11.1328Q3.19336 11.2402 3.20312 11.3184Q3.21289 11.3965 3.24219 11.4941Q3.4375 12.168 4.15527 12.6855Q4.87305 13.2031 5.86914 13.2031ZM11.1914 13.0957Q11.3867 13.0957 11.5332 12.9834Q11.6797 12.8711 11.8066 12.6172L14.8633 6.52344Q14.9707 6.28906 15.0049 6.1377Q15.0391 5.98633 15.0391 5.83008Q15.0391 5.47852 14.8047 5.22949Q14.5703 4.98047 14.1797 4.98047L10.2344 4.98047Q9.98047 4.98047 9.82422 5.13184Q9.66797 5.2832 9.66797 5.53711Q9.66797 5.78125 9.82422 5.92773Q9.98047 6.07422 10.2344 6.07422L13.6621 6.07422L13.6621 6.15234L10.6445 12.0117Q10.5371 12.1973 10.5371 12.4609Q10.5371 12.7344 10.7227 12.915Q10.9082 13.0957 11.1914 13.0957Z" fill="#007aff"/>
 </g>
</svg>
