<?xml version="1.0" encoding="UTF-8"?>
<!--Generator: Apple Native CoreSVG 175.5-->
<!DOCTYPE svg
PUBLIC "-//W3C//DTD SVG 1.1//EN"
       "http://www.w3.org/Graphics/SVG/1.1/DTD/svg11.dtd">
<svg version="1.1" xmlns="http://www.w3.org/2000/svg" xmlns:xlink="http://www.w3.org/1999/xlink" width="19.9219" height="19.9316">
 <g>
  <rect height="19.9316" opacity="0" width="19.9219" x="0" y="0"/>
  <path d="M9.96094 19.9219Q12.002 19.9219 13.8037 19.1406Q15.6055 18.3594 16.9824 16.9824Q18.3594 15.6055 19.1406 13.8037Q19.9219 12.002 19.9219 9.96094Q19.9219 7.91992 19.1406 6.11816Q18.3594 4.31641 16.9824 2.93945Q15.6055 1.5625 13.7988 0.78125Q11.9922 0 9.95117 0Q7.91016 0 6.1084 0.78125Q4.30664 1.5625 2.93457 2.93945Q1.5625 4.31641 0.78125 6.11816Q0 7.91992 0 9.96094Q0 12.002 0.78125 13.8037Q1.5625 15.6055 2.93945 16.9824Q4.31641 18.3594 6.11816 19.1406Q7.91992 19.9219 9.96094 19.9219Z" fill="#007aff"/>
  <path d="M6.67969 14.1699Q5.68359 14.1699 4.96582 13.6523Q4.24805 13.1348 4.05273 12.4609Q4.02344 12.3633 4.01367 12.2852Q4.00391 12.207 4.00391 12.0996Q4.00391 11.8457 4.16504 11.6797Q4.32617 11.5137 4.57031 11.5137Q4.95117 11.5137 5.12695 11.9824Q5.32227 12.4902 5.71777 12.7686Q6.11328 13.0469 6.68945 13.0469Q7.39258 13.0469 7.83691 12.6611Q8.28125 12.2754 8.28125 11.709Q8.28125 11.1133 7.86621 10.752Q7.45117 10.3906 6.75781 10.3906L6.18164 10.3906Q5.9375 10.3906 5.79102 10.2295Q5.64453 10.0684 5.64453 9.83398Q5.64453 9.57031 5.7959 9.41406Q5.94727 9.25781 6.18164 9.25781L6.70898 9.25781Q7.29492 9.25781 7.66113 8.91113Q8.02734 8.56445 8.02734 8.02734Q8.02734 7.50977 7.66113 7.19238Q7.29492 6.875 6.71875 6.875Q6.14258 6.875 5.78613 7.14844Q5.42969 7.42188 5.26367 7.93945Q5.19531 8.17383 5.06836 8.29102Q4.94141 8.4082 4.72656 8.4082Q4.47266 8.4082 4.32129 8.24219Q4.16992 8.07617 4.16992 7.8125Q4.16992 7.59766 4.18945 7.46094Q4.38477 6.74805 5.06836 6.25Q5.75195 5.75195 6.74805 5.75195Q7.8418 5.75195 8.53516 6.34277Q9.22852 6.93359 9.22852 7.87109Q9.22852 8.55469 8.81348 9.09668Q8.39844 9.63867 7.79297 9.73633L7.79297 9.79492Q8.52539 9.86328 9.00879 10.4248Q9.49219 10.9863 9.49219 11.7676Q9.49219 12.8223 8.70605 13.4961Q7.91992 14.1699 6.67969 14.1699ZM13.418 14.1699Q12.1484 14.1699 11.3721 13.5107Q10.5957 12.8516 10.5957 11.7871Q10.5957 11.0352 11.0303 10.4736Q11.4648 9.91211 12.2559 9.75586L12.2559 9.69727Q11.5723 9.50195 11.2256 9.01855Q10.8789 8.53516 10.8789 7.90039Q10.8789 6.94336 11.5967 6.34766Q12.3145 5.75195 13.4375 5.75195Q14.5605 5.75195 15.2734 6.34766Q15.9863 6.94336 15.9863 7.90039Q15.9863 8.53516 15.6348 9.02832Q15.2832 9.52148 14.6094 9.69727L14.6094 9.75586Q15.4004 9.91211 15.835 10.4688Q16.2695 11.0254 16.2695 11.7773Q16.2695 12.8418 15.4785 13.5059Q14.6875 14.1699 13.418 14.1699ZM13.4473 13.1543Q14.1309 13.1543 14.585 12.749Q15.0391 12.3438 15.0391 11.6992Q15.0391 11.0645 14.5947 10.6543Q14.1504 10.2441 13.4473 10.2441Q12.7441 10.2441 12.29 10.6543Q11.8359 11.0645 11.8359 11.6992Q11.8359 12.3438 12.29 12.749Q12.7441 13.1543 13.4473 13.1543ZM13.4375 9.30664Q14.0039 9.30664 14.3701 8.94043Q14.7363 8.57422 14.7363 8.01758Q14.7363 7.46094 14.3701 7.11426Q14.0039 6.76758 13.4375 6.76758Q12.8613 6.76758 12.4951 7.11426Q12.1289 7.46094 12.1289 8.01758Q12.1289 8.57422 12.4951 8.94043Q12.8613 9.30664 13.4375 9.30664Z" fill="#ffffff"/>
 </g>
</svg>
