<?xml version="1.0" encoding="UTF-8"?>
<!--Generator: Apple Native CoreSVG 175.5-->
<!DOCTYPE svg
PUBLIC "-//W3C//DTD SVG 1.1//EN"
       "http://www.w3.org/Graphics/SVG/1.1/DTD/svg11.dtd">
<svg version="1.1" xmlns="http://www.w3.org/2000/svg" xmlns:xlink="http://www.w3.org/1999/xlink" width="19.9219" height="19.9316">
 <g>
  <rect height="19.9316" opacity="0" width="19.9219" x="0" y="0"/>
  <path d="M9.96094 19.9219Q12.002 19.9219 13.8037 19.1406Q15.6055 18.3594 16.9824 16.9824Q18.3594 15.6055 19.1406 13.8037Q19.9219 12.002 19.9219 9.96094Q19.9219 7.91992 19.1406 6.11816Q18.3594 4.31641 16.9824 2.93945Q15.6055 1.5625 13.7988 0.78125Q11.9922 0 9.95117 0Q7.91016 0 6.1084 0.78125Q4.30664 1.5625 2.93457 2.93945Q1.5625 4.31641 0.78125 6.11816Q0 7.91992 0 9.96094Q0 12.002 0.78125 13.8037Q1.5625 15.6055 2.93945 16.9824Q4.31641 18.3594 6.11816 19.1406Q7.91992 19.9219 9.96094 19.9219Z" fill="#007aff"/>
  <path d="M7.97852 14.2871Q7.68555 14.2871 7.53418 14.0918Q7.38281 13.8965 7.38281 13.6035L7.38281 12.4219L4.44336 12.4219Q4.0625 12.4219 3.81836 12.1924Q3.57422 11.9629 3.57422 11.5625Q3.57422 11.3574 3.62793 11.1719Q3.68164 10.9863 3.79883 10.752Q4.05273 10.293 4.36035 9.76074Q4.66797 9.22852 5.00488 8.65234Q5.3418 8.07617 5.67871 7.5Q6.01562 6.92383 6.32812 6.39648Q6.57227 5.97656 6.87012 5.7959Q7.16797 5.61523 7.60742 5.61523Q8.04688 5.61523 8.3252 5.87891Q8.60352 6.14258 8.60352 6.58203L8.60352 11.2891L9.15039 11.2891Q9.4043 11.2891 9.56055 11.4404Q9.7168 11.5918 9.7168 11.8652Q9.7168 12.1289 9.56055 12.2754Q9.4043 12.4219 9.15039 12.4219L8.60352 12.4219L8.60352 13.6035Q8.60352 13.9062 8.44727 14.0967Q8.29102 14.2871 7.97852 14.2871ZM7.38281 11.2891L7.38281 6.98242L7.32422 6.98242Q7.08008 7.39258 6.82129 7.8418Q6.5625 8.29102 6.29395 8.75Q6.02539 9.20898 5.77637 9.65332Q5.52734 10.0977 5.30273 10.5029Q5.07812 10.9082 4.90234 11.25L4.90234 11.2891ZM11.3672 14.0723Q11.0938 14.0723 10.9375 13.9062Q10.7812 13.7402 10.7812 13.4766Q10.7812 13.1641 10.9961 12.9297L13.6426 9.80469Q14.0137 9.38477 14.3359 8.95508Q14.6582 8.52539 14.6582 8.02734Q14.6582 7.4707 14.2969 7.12891Q13.9355 6.78711 13.3301 6.78711Q12.7832 6.78711 12.4121 7.06543Q12.041 7.34375 11.8457 7.91016Q11.7383 8.13477 11.6113 8.25684Q11.4844 8.37891 11.2695 8.37891Q10.9961 8.37891 10.8496 8.21289Q10.7031 8.04688 10.7031 7.77344Q10.7031 7.68555 10.7178 7.59766Q10.7324 7.50977 10.752 7.41211Q10.9473 6.64062 11.6602 6.12793Q12.373 5.61523 13.2812 5.61523Q14.4629 5.61523 15.1709 6.24023Q15.8789 6.86523 15.8789 7.91992Q15.8789 8.67188 15.5078 9.26758Q15.1367 9.86328 14.5801 10.5176L12.6074 12.8027L12.6074 12.8809L15.5371 12.8809Q15.7715 12.8809 15.9326 13.0322Q16.0938 13.1836 16.0938 13.4668Q16.0938 13.7402 15.9326 13.9062Q15.7715 14.0723 15.5371 14.0723Z" fill="#ffffff"/>
 </g>
</svg>
