<?xml version="1.0" encoding="UTF-8"?>
<!--Generator: Apple Native CoreSVG 175.5-->
<!DOCTYPE svg
PUBLIC "-//W3C//DTD SVG 1.1//EN"
       "http://www.w3.org/Graphics/SVG/1.1/DTD/svg11.dtd">
<svg version="1.1" xmlns="http://www.w3.org/2000/svg" xmlns:xlink="http://www.w3.org/1999/xlink" width="19.9219" height="19.9316">
 <g>
  <rect height="19.9316" opacity="0" width="19.9219" x="0" y="0"/>
  <path d="M9.96094 19.9219Q12.002 19.9219 13.8037 19.1406Q15.6055 18.3594 16.9824 16.9824Q18.3594 15.6055 19.1406 13.8037Q19.9219 12.002 19.9219 9.96094Q19.9219 7.91992 19.1406 6.11816Q18.3594 4.31641 16.9824 2.93945Q15.6055 1.5625 13.7988 0.78125Q11.9922 0 9.95117 0Q7.91016 0 6.1084 0.78125Q4.30664 1.5625 2.93457 2.93945Q1.5625 4.31641 0.78125 6.11816Q0 7.91992 0 9.96094Q0 12.002 0.78125 13.8037Q1.5625 15.6055 2.93945 16.9824Q4.31641 18.3594 6.11816 19.1406Q7.91992 19.9219 9.96094 19.9219Z" fill="#007aff"/>
  <path d="M7.94922 14.2871Q7.64648 14.2871 7.5 14.0918Q7.35352 13.8965 7.35352 13.6035L7.35352 12.4219L4.41406 12.4219Q4.02344 12.4219 3.78418 12.1924Q3.54492 11.9629 3.54492 11.5625Q3.54492 11.3574 3.59375 11.1719Q3.64258 10.9863 3.76953 10.752Q4.02344 10.293 4.33105 9.76074Q4.63867 9.22852 4.9707 8.65234Q5.30273 8.07617 5.63965 7.5Q5.97656 6.92383 6.29883 6.39648Q6.54297 5.97656 6.83594 5.7959Q7.12891 5.61523 7.57812 5.61523Q8.01758 5.61523 8.2959 5.87891Q8.57422 6.14258 8.57422 6.58203L8.57422 11.2891L9.11133 11.2891Q9.375 11.2891 9.52637 11.4404Q9.67773 11.5918 9.67773 11.8652Q9.67773 12.1289 9.52637 12.2754Q9.375 12.4219 9.11133 12.4219L8.57422 12.4219L8.57422 13.6035Q8.57422 13.9062 8.41309 14.0967Q8.25195 14.2871 7.94922 14.2871ZM7.35352 11.2891L7.35352 6.98242L7.29492 6.98242Q7.05078 7.39258 6.79199 7.8418Q6.5332 8.29102 6.26465 8.75Q5.99609 9.20898 5.74707 9.65332Q5.49805 10.0977 5.27344 10.5029Q5.04883 10.9082 4.87305 11.25L4.87305 11.2891ZM13.4961 14.3164Q12.7344 14.3164 12.1094 13.999Q11.4844 13.6816 11.1035 12.9492Q10.8398 12.4805 10.6982 11.7969Q10.5566 11.1133 10.5566 10.1953Q10.5566 7.89062 11.3965 6.75293Q12.2363 5.61523 13.6914 5.61523Q14.2676 5.61523 14.7168 5.79102Q15.166 5.9668 15.4736 6.25977Q15.7812 6.55273 15.9082 6.88477Q15.9863 7.08008 15.9863 7.27539Q15.9863 7.5293 15.8398 7.68066Q15.6934 7.83203 15.4785 7.83203Q15.2734 7.83203 15.1416 7.73926Q15.0098 7.64648 14.8828 7.45117Q14.6875 7.1582 14.3799 6.97266Q14.0723 6.78711 13.6426 6.78711Q12.793 6.78711 12.2656 7.61719Q11.7383 8.44727 11.7383 9.87305Q11.7383 9.90234 11.7383 9.92676Q11.7383 9.95117 11.7383 9.9707L11.8164 9.9707Q12.002 9.47266 12.5049 9.08691Q13.0078 8.70117 13.8086 8.70117Q14.7852 8.70117 15.5469 9.39453Q16.3086 10.0879 16.3086 11.3867Q16.3086 12.7734 15.5176 13.5449Q14.7266 14.3164 13.4961 14.3164ZM13.4473 13.2031Q14.1699 13.2031 14.5947 12.7246Q15.0195 12.2461 15.0195 11.4453Q15.0195 10.6934 14.5898 10.2197Q14.1602 9.74609 13.4473 9.74609Q12.7344 9.74609 12.2949 10.2197Q11.8555 10.6934 11.8555 11.4355Q11.8555 12.2168 12.2998 12.71Q12.7441 13.2031 13.4473 13.2031Z" fill="#ffffff"/>
 </g>
</svg>
