<?xml version="1.0" encoding="UTF-8"?>
<!--Generator: Apple Native CoreSVG 175.5-->
<!DOCTYPE svg
PUBLIC "-//W3C//DTD SVG 1.1//EN"
       "http://www.w3.org/Graphics/SVG/1.1/DTD/svg11.dtd">
<svg version="1.1" xmlns="http://www.w3.org/2000/svg" xmlns:xlink="http://www.w3.org/1999/xlink" width="19.9219" height="19.9316">
 <g>
  <rect height="19.9316" opacity="0" width="19.9219" x="0" y="0"/>
  <path d="M9.96094 19.9219Q12.002 19.9219 13.8037 19.1406Q15.6055 18.3594 16.9824 16.9824Q18.3594 15.6055 19.1406 13.8037Q19.9219 12.002 19.9219 9.96094Q19.9219 7.91992 19.1406 6.11816Q18.3594 4.31641 16.9824 2.93945Q15.6055 1.5625 13.7988 0.78125Q11.9922 0 9.95117 0Q7.91016 0 6.1084 0.78125Q4.30664 1.5625 2.93457 2.93945Q1.5625 4.31641 0.78125 6.11816Q0 7.91992 0 9.96094Q0 12.002 0.78125 13.8037Q1.5625 15.6055 2.93945 16.9824Q4.31641 18.3594 6.11816 19.1406Q7.91992 19.9219 9.96094 19.9219ZM9.96094 18.2617Q8.23242 18.2617 6.72852 17.6172Q5.22461 16.9727 4.08691 15.835Q2.94922 14.6973 2.30957 13.1934Q1.66992 11.6895 1.66992 9.96094Q1.66992 8.23242 2.30957 6.72852Q2.94922 5.22461 4.08203 4.08203Q5.21484 2.93945 6.71875 2.2998Q8.22266 1.66016 9.95117 1.66016Q11.6797 1.66016 13.1885 2.2998Q14.6973 2.93945 15.835 4.08203Q16.9727 5.22461 17.6172 6.72852Q18.2617 8.23242 18.2617 9.96094Q18.2617 11.6895 17.6221 13.1934Q16.9824 14.6973 15.8398 15.835Q14.6973 16.9727 13.1934 17.6172Q11.6895 18.2617 9.96094 18.2617Z" fill="#007aff"/>
  <path d="M7.95898 14.1504Q8.25195 14.1504 8.4082 13.9648Q8.56445 13.7793 8.56445 13.4961L8.56445 12.3438L9.0918 12.3438Q9.63867 12.3438 9.63867 11.8066Q9.63867 11.543 9.4873 11.3965Q9.33594 11.25 9.0918 11.25L8.56445 11.25L8.56445 6.67969Q8.56445 6.25977 8.29102 6.00586Q8.01758 5.75195 7.59766 5.75195Q7.16797 5.75195 6.88477 5.92285Q6.60156 6.09375 6.36719 6.50391Q6.06445 7.02148 5.73242 7.57812Q5.40039 8.13477 5.07812 8.69141Q4.75586 9.24805 4.45312 9.77051Q4.15039 10.293 3.90625 10.7324Q3.78906 10.957 3.74023 11.1328Q3.69141 11.3086 3.69141 11.5137Q3.69141 11.9043 3.92578 12.124Q4.16016 12.3438 4.53125 12.3438L7.38281 12.3438L7.38281 13.4961Q7.38281 13.7793 7.5293 13.9648Q7.67578 14.1504 7.95898 14.1504ZM7.38281 11.25L4.9707 11.25L4.9707 11.2109Q5.13672 10.8789 5.35645 10.4834Q5.57617 10.0879 5.82031 9.6582Q6.06445 9.22852 6.32324 8.78418Q6.58203 8.33984 6.83594 7.90527Q7.08984 7.4707 7.32422 7.07031L7.38281 7.07031ZM12.0605 14.0625Q12.2559 14.0625 12.4072 13.9502Q12.5586 13.8379 12.6855 13.584L15.7324 7.49023Q15.8496 7.25586 15.8838 7.10449Q15.918 6.95312 15.918 6.79688Q15.918 6.44531 15.6836 6.19629Q15.4492 5.94727 15.0488 5.94727L11.1133 5.94727Q10.8594 5.94727 10.7031 6.09863Q10.5469 6.25 10.5469 6.50391Q10.5469 6.74805 10.7031 6.89453Q10.8594 7.04102 11.1133 7.04102L14.541 7.04102L14.541 7.11914L11.5137 12.9785Q11.4062 13.1641 11.4062 13.4277Q11.4062 13.7012 11.5967 13.8818Q11.7871 14.0625 12.0605 14.0625Z" fill="#007aff"/>
 </g>
</svg>
