<?xml version="1.0" encoding="UTF-8"?>
<!--Generator: Apple Native CoreSVG 175.5-->
<!DOCTYPE svg
PUBLIC "-//W3C//DTD SVG 1.1//EN"
       "http://www.w3.org/Graphics/SVG/1.1/DTD/svg11.dtd">
<svg version="1.1" xmlns="http://www.w3.org/2000/svg" xmlns:xlink="http://www.w3.org/1999/xlink" width="17.9785" height="17.998">
 <g>
  <rect height="17.998" opacity="0" width="17.9785" x="0" y="0"/>
  <path d="M3.06641 17.998L14.9121 17.998Q16.4453 17.998 17.2119 17.2412Q17.9785 16.4844 17.9785 14.9707L17.9785 3.04688Q17.9785 1.5332 17.2119 0.776367Q16.4453 0.0195312 14.9121 0.0195312L3.06641 0.0195312Q1.5332 0.0195312 0.766602 0.776367Q0 1.5332 0 3.04688L0 14.9707Q0 16.4844 0.766602 17.2412Q1.5332 17.998 3.06641 17.998ZM3.08594 16.4258Q2.35352 16.4258 1.96289 16.04Q1.57227 15.6543 1.57227 14.8926L1.57227 3.125Q1.57227 2.36328 1.96289 1.97754Q2.35352 1.5918 3.08594 1.5918L14.8926 1.5918Q15.6152 1.5918 16.0107 1.97754Q16.4062 2.36328 16.4062 3.125L16.4062 14.8926Q16.4062 15.6543 16.0107 16.04Q15.6152 16.4258 14.8926 16.4258Z" fill="#007aff"/>
  <path d="M5.76172 13.2129Q7.05078 13.2129 7.83691 12.4707Q8.62305 11.7285 8.62305 10.4395Q8.62305 9.31641 7.9248 8.5791Q7.22656 7.8418 6.09375 7.8418Q5.60547 7.8418 5.13672 8.05664Q4.66797 8.27148 4.45312 8.60352L4.41406 8.60352L4.58984 6.09375L7.82227 6.09375Q8.02734 6.09375 8.16895 5.9375Q8.31055 5.78125 8.31055 5.54688Q8.31055 5.3125 8.17383 5.15625Q8.03711 5 7.82227 5L4.47266 5Q4.08203 5 3.84277 5.22461Q3.60352 5.44922 3.58398 5.83008L3.33984 8.87695Q3.32031 9.25781 3.50586 9.4873Q3.69141 9.7168 4.0332 9.7168Q4.25781 9.7168 4.42383 9.64844Q4.58984 9.58008 4.82422 9.38477Q5.12695 9.12109 5.38574 9.00391Q5.64453 8.88672 5.9668 8.88672Q6.61133 8.88672 7.01172 9.34082Q7.41211 9.79492 7.41211 10.4688Q7.41211 11.2305 6.97266 11.6699Q6.5332 12.1094 5.82031 12.1094Q5.32227 12.1094 4.91699 11.8604Q4.51172 11.6113 4.30664 11.1719Q4.19922 10.957 4.05762 10.8545Q3.91602 10.752 3.74023 10.752Q3.49609 10.752 3.34473 10.9131Q3.19336 11.0742 3.19336 11.3184Q3.19336 11.4355 3.21777 11.5479Q3.24219 11.6602 3.28125 11.7578Q3.49609 12.3633 4.16992 12.7881Q4.84375 13.2129 5.76172 13.2129ZM12.4707 13.2129Q13.3105 13.2129 13.9404 12.7002Q14.5703 12.1875 14.917 11.2451Q15.2637 10.3027 15.2637 9.00391Q15.2637 7.70508 14.917 6.75781Q14.5703 5.81055 13.9404 5.30273Q13.3105 4.79492 12.4707 4.79492Q11.6309 4.79492 11.001 5.30273Q10.3711 5.81055 10.0244 6.75781Q9.67773 7.70508 9.67773 9.00391Q9.67773 10.3027 10.0244 11.2451Q10.3711 12.1875 11.001 12.7002Q11.6309 13.2129 12.4707 13.2129ZM12.4707 12.0312Q11.7773 12.0312 11.3672 11.2207Q10.957 10.4102 10.957 9.00391Q10.957 7.59766 11.3672 6.78711Q11.7773 5.97656 12.4707 5.97656Q13.1738 5.97656 13.5791 6.78711Q13.9844 7.59766 13.9844 9.00391Q13.9844 10.4102 13.5791 11.2207Q13.1738 12.0312 12.4707 12.0312Z" fill="#007aff"/>
 </g>
</svg>
