<?xml version="1.0" encoding="UTF-8"?>
<!--Generator: Apple Native CoreSVG 175.5-->
<!DOCTYPE svg
PUBLIC "-//W3C//DTD SVG 1.1//EN"
       "http://www.w3.org/Graphics/SVG/1.1/DTD/svg11.dtd">
<svg version="1.1" xmlns="http://www.w3.org/2000/svg" xmlns:xlink="http://www.w3.org/1999/xlink" width="17.9785" height="17.998">
 <g>
  <rect height="17.998" opacity="0" width="17.9785" x="0" y="0"/>
  <path d="M3.06641 17.998L14.9121 17.998Q16.4453 17.998 17.2119 17.2412Q17.9785 16.4844 17.9785 14.9707L17.9785 3.04688Q17.9785 1.5332 17.2119 0.776367Q16.4453 0.0195312 14.9121 0.0195312L3.06641 0.0195312Q1.5332 0.0195312 0.766602 0.776367Q0 1.5332 0 3.04688L0 14.9707Q0 16.4844 0.766602 17.2412Q1.5332 17.998 3.06641 17.998Z" fill="#007aff"/>
  <path d="M5.49805 7.40234Q5.49805 6.46484 5.94238 5.74219Q6.38672 5.01953 7.18262 4.60938Q7.97852 4.19922 9.02344 4.19922Q10.5859 4.19922 11.5674 5.10742Q12.5488 6.01562 12.5488 7.48047Q12.5488 8.30078 12.2119 9.10645Q11.875 9.91211 11.1719 10.8398Q10.9082 11.2012 10.5859 11.6211Q10.2637 12.041 9.94141 12.4512Q9.61914 12.8613 9.35547 13.1836Q9.14062 13.457 8.97949 13.6182Q8.81836 13.7793 8.52539 13.7793Q8.21289 13.7793 8.03223 13.5938Q7.85156 13.4082 7.85156 13.1836Q7.85156 13.0371 7.91016 12.8955Q7.96875 12.7539 8.0957 12.6074Q8.54492 12.0605 9.01855 11.4795Q9.49219 10.8984 9.91211 10.3613Q10.0781 10.166 10.1953 10.0049Q10.3125 9.84375 10.3711 9.73633L10.2344 9.73633Q9.98047 10 9.50195 10.1611Q9.02344 10.3223 8.51562 10.3223Q7.64648 10.3223 6.96289 9.94629Q6.2793 9.57031 5.88867 8.90625Q5.49805 8.24219 5.49805 7.40234ZM6.92383 7.34375Q6.92383 8.14453 7.52441 8.66699Q8.125 9.18945 9.02344 9.18945Q9.91211 9.18945 10.5127 8.66699Q11.1133 8.14453 11.1133 7.34375Q11.1133 6.55273 10.5078 6.02051Q9.90234 5.48828 9.01367 5.48828Q8.125 5.48828 7.52441 6.01562Q6.92383 6.54297 6.92383 7.34375Z" fill="#ffffff"/>
 </g>
</svg>
