<?xml version="1.0" encoding="UTF-8"?>
<!--Generator: Apple Native CoreSVG 175.5-->
<!DOCTYPE svg
PUBLIC "-//W3C//DTD SVG 1.1//EN"
       "http://www.w3.org/Graphics/SVG/1.1/DTD/svg11.dtd">
<svg version="1.1" xmlns="http://www.w3.org/2000/svg" xmlns:xlink="http://www.w3.org/1999/xlink" width="19.9219" height="19.9316">
 <g>
  <rect height="19.9316" opacity="0" width="19.9219" x="0" y="0"/>
  <path d="M9.96094 19.9219Q12.002 19.9219 13.8037 19.1406Q15.6055 18.3594 16.9824 16.9824Q18.3594 15.6055 19.1406 13.8037Q19.9219 12.002 19.9219 9.96094Q19.9219 7.91992 19.1406 6.11816Q18.3594 4.31641 16.9824 2.93945Q15.6055 1.5625 13.7988 0.78125Q11.9922 0 9.95117 0Q7.91016 0 6.1084 0.78125Q4.30664 1.5625 2.93457 2.93945Q1.5625 4.31641 0.78125 6.11816Q0 7.91992 0 9.96094Q0 12.002 0.78125 13.8037Q1.5625 15.6055 2.93945 16.9824Q4.31641 18.3594 6.11816 19.1406Q7.91992 19.9219 9.96094 19.9219Z" fill="#007aff"/>
  <path d="M9.70703 14.7559Q8.86719 14.7559 8.2666 14.5166Q7.66602 14.2773 7.30469 13.9209Q6.94336 13.5645 6.82617 13.2129Q6.79688 13.125 6.78223 13.042Q6.76758 12.959 6.76758 12.8711Q6.76758 12.5781 6.95312 12.3975Q7.13867 12.2168 7.43164 12.2168Q7.66602 12.2168 7.82715 12.3291Q7.98828 12.4414 8.125 12.6172Q8.4375 13.0371 8.80859 13.252Q9.17969 13.4668 9.69727 13.4668Q10.7422 13.4668 11.3818 12.5342Q12.0215 11.6016 12.002 9.94141L11.9336 9.94141Q11.6895 10.498 11.084 10.9229Q10.4785 11.3477 9.47266 11.3477Q8.69141 11.3477 8.00293 11.001Q7.31445 10.6543 6.88965 9.99023Q6.46484 9.32617 6.46484 8.37891Q6.46484 7.40234 6.88965 6.67969Q7.31445 5.95703 8.08105 5.56152Q8.84766 5.16602 9.89258 5.16602Q11.5918 5.16602 12.5293 6.31348Q13.4668 7.46094 13.4668 9.63867Q13.4668 12.168 12.5 13.4619Q11.5332 14.7559 9.70703 14.7559ZM9.95117 10.2051Q10.791 10.2051 11.3379 9.67285Q11.8848 9.14062 11.8848 8.33008Q11.8848 7.48047 11.333 6.92383Q10.7812 6.36719 9.96094 6.36719Q9.0918 6.36719 8.55957 6.89941Q8.02734 7.43164 8.02734 8.31055Q8.02734 9.14062 8.56445 9.67285Q9.10156 10.2051 9.95117 10.2051Z" fill="#ffffff"/>
 </g>
</svg>
