<?xml version="1.0" encoding="UTF-8"?>
<!--Generator: Apple Native CoreSVG 175-->
<!DOCTYPE svg
PUBLIC "-//W3C//DTD SVG 1.1//EN"
       "http://www.w3.org/Graphics/SVG/1.1/DTD/svg11.dtd">
<svg version="1.1" xmlns="http://www.w3.org/2000/svg" xmlns:xlink="http://www.w3.org/1999/xlink" width="17.2852" height="17.3145">
 <g>
  <rect height="17.3145" opacity="0" width="17.2852" x="0" y="0"/>
  <path d="M2.62695 17.3145L14.6484 17.3145Q15.957 17.3145 16.6211 16.6455Q17.2852 15.9766 17.2852 14.6875L17.2852 2.65625Q17.2852 1.37695 16.6211 0.703125Q15.957 0.0292969 14.6484 0.0292969L2.62695 0.0292969Q1.33789 0.0292969 0.668945 0.693359Q0 1.35742 0 2.65625L0 14.6875Q0 15.9863 0.668945 16.6504Q1.33789 17.3145 2.62695 17.3145Z" fill="#ffffff"/>
  <path d="M5.41992 13.1055Q5.24414 13.1055 5.14648 13.0127Q5.04883 12.9199 5.04883 12.7637Q5.04883 12.7148 5.05859 12.666Q5.06836 12.6172 5.09766 12.5391L8.125 4.55078Q8.26172 4.18945 8.63281 4.18945Q9.00391 4.18945 9.14062 4.55078L12.168 12.5391Q12.1973 12.6172 12.207 12.666Q12.2168 12.7148 12.2168 12.7734Q12.2168 12.9199 12.1143 13.0127Q12.0117 13.1055 11.8652 13.1055Q11.709 13.1055 11.6211 13.0322Q11.5332 12.959 11.4746 12.7832L10.5273 10.2441L6.73828 10.2441L5.79102 12.7832Q5.73242 12.9688 5.64453 13.0371Q5.55664 13.1055 5.41992 13.1055ZM6.96289 9.59961L10.3027 9.59961L8.66211 5.18555L8.60352 5.18555Z" fill="#ffffff"/>
 </g>
</svg>
