<?xml version="1.0" encoding="UTF-8"?>
<!--Generator: Apple Native CoreSVG 175.5-->
<!DOCTYPE svg
PUBLIC "-//W3C//DTD SVG 1.1//EN"
       "http://www.w3.org/Graphics/SVG/1.1/DTD/svg11.dtd">
<svg version="1.1" xmlns="http://www.w3.org/2000/svg" xmlns:xlink="http://www.w3.org/1999/xlink" width="19.1133" height="22.9785">
 <g>
  <rect height="22.9785" opacity="0" width="19.1133" x="0" y="0"/>
  <path d="M3.01758 21.2402L11.8262 21.2402Q13.3203 21.2402 14.0771 20.4883Q14.834 19.7363 14.834 18.2617L14.834 2.96875Q14.834 1.49414 14.0674 0.74707Q13.3008 0 11.8262 0L3.01758 0Q1.5332 0 0.766602 0.74707Q0 1.49414 0 2.96875L0 18.2617Q0 19.7363 0.761719 20.4883Q1.52344 21.2402 3.01758 21.2402ZM3.95508 5.41016Q3.36914 5.41016 2.9541 4.99023Q2.53906 4.57031 2.53906 3.97461Q2.53906 3.39844 2.9541 2.9834Q3.36914 2.56836 3.95508 2.56836Q4.54102 2.56836 4.96094 2.9834Q5.38086 3.39844 5.38086 3.97461Q5.38086 4.57031 4.96094 4.99023Q4.54102 5.41016 3.95508 5.41016ZM3.11523 13.584Q2.85156 13.584 2.66602 13.4033Q2.48047 13.2227 2.48047 12.9492Q2.48047 12.6855 2.66602 12.5Q2.85156 12.3145 3.11523 12.3145L6.04492 12.3145Q6.31836 12.3145 6.50391 12.5Q6.68945 12.6855 6.68945 12.9492Q6.68945 13.2227 6.50391 13.4033Q6.31836 13.584 6.04492 13.584ZM3.11523 16.1035Q2.85156 16.1035 2.66602 15.918Q2.48047 15.7324 2.48047 15.4688Q2.48047 15.1953 2.66602 15.0146Q2.85156 14.834 3.11523 14.834L6.04492 14.834Q6.31836 14.834 6.50391 15.0146Q6.68945 15.1953 6.68945 15.4688Q6.68945 15.7324 6.50391 15.918Q6.31836 16.1035 6.04492 16.1035ZM3.11523 18.623Q2.85156 18.623 2.66602 18.4375Q2.48047 18.252 2.48047 17.9883Q2.48047 17.7148 2.66602 17.5293Q2.85156 17.3438 3.11523 17.3438L6.04492 17.3438Q6.31836 17.3438 6.50391 17.5293Q6.68945 17.7148 6.68945 17.9883Q6.68945 18.252 6.50391 18.4375Q6.31836 18.623 6.04492 18.623ZM8.78906 13.584Q8.51562 13.584 8.33008 13.4033Q8.14453 13.2227 8.14453 12.9492Q8.14453 12.6855 8.33008 12.5Q8.51562 12.3145 8.78906 12.3145L11.7188 12.3145Q11.9824 12.3145 12.168 12.5Q12.3535 12.6855 12.3535 12.9492Q12.3535 13.2227 12.168 13.4033Q11.9824 13.584 11.7188 13.584ZM8.78906 16.1035Q8.51562 16.1035 8.33008 15.918Q8.14453 15.7324 8.14453 15.4688Q8.14453 15.1953 8.33008 15.0146Q8.51562 14.834 8.78906 14.834L11.7188 14.834Q11.9824 14.834 12.168 15.0146Q12.3535 15.1953 12.3535 15.4688Q12.3535 15.7324 12.168 15.918Q11.9824 16.1035 11.7188 16.1035ZM8.78906 18.623Q8.51562 18.623 8.33008 18.4375Q8.14453 18.252 8.14453 17.9883Q8.14453 17.7148 8.33008 17.5293Q8.51562 17.3438 8.78906 17.3438L11.7188 17.3438Q11.9824 17.3438 12.168 17.5293Q12.3535 17.7148 12.3535 17.9883Q12.3535 18.252 12.168 18.4375Q11.9824 18.623 11.7188 18.623ZM2.83203 22.959Q3.18359 22.959 3.39844 22.7393Q3.61328 22.5195 3.61328 22.168L3.61328 20.2539L2.04102 20.2539L2.04102 22.168Q2.04102 22.5195 2.26074 22.7393Q2.48047 22.959 2.83203 22.959ZM12.002 22.959Q12.3535 22.959 12.5732 22.7393Q12.793 22.5195 12.793 22.168L12.793 20.2539L11.2207 20.2539L11.2207 22.168Q11.2207 22.5195 11.4355 22.7393Q11.6504 22.959 12.002 22.959Z" fill="#007aff"/>
  <path d="M10.4004 5.09766Q9.84375 5.09766 9.31152 4.96094Q8.7793 4.82422 8.30078 4.53125Q7.98828 4.35547 7.94922 4.07715Q7.91016 3.79883 8.04688 3.59375Q8.16406 3.4082 8.38867 3.33496Q8.61328 3.26172 8.86719 3.39844Q9.28711 3.64258 9.64844 3.74023Q10.0098 3.83789 10.4004 3.83789Q11.2402 3.83789 11.9531 3.51562Q12.666 3.19336 13.3691 2.77344Q14.0723 2.35352 14.8584 2.03125Q15.6445 1.70898 16.6406 1.70898Q17.7637 1.70898 18.7402 2.27539Q19.0625 2.45117 19.1016 2.73438Q19.1406 3.01758 18.9941 3.23242Q18.877 3.39844 18.6572 3.47168Q18.4375 3.54492 18.1738 3.39844Q17.7539 3.16406 17.3975 3.07129Q17.041 2.97852 16.6406 2.97852Q15.791 2.97852 15.0684 3.2959Q14.3457 3.61328 13.6475 4.0332Q12.9492 4.45312 12.1631 4.77539Q11.377 5.09766 10.4004 5.09766ZM10.4102 7.82227Q9.85352 7.82227 9.32129 7.68555Q8.78906 7.54883 8.31055 7.25586Q7.99805 7.08008 7.9541 6.80176Q7.91016 6.52344 8.04688 6.31836Q8.16406 6.12305 8.39355 6.0498Q8.62305 5.97656 8.87695 6.12305Q9.29688 6.35742 9.65332 6.45996Q10.0098 6.5625 10.4102 6.5625Q11.25 6.5625 11.9629 6.24023Q12.6758 5.91797 13.374 5.49316Q14.0723 5.06836 14.8633 4.74609Q15.6543 4.42383 16.6406 4.42383Q17.7734 4.42383 18.7598 4.99023Q19.0723 5.17578 19.1064 5.45898Q19.1406 5.74219 19.0039 5.94727Q18.8867 6.12305 18.6621 6.19629Q18.4375 6.26953 18.1836 6.12305Q17.7637 5.88867 17.4023 5.79102Q17.041 5.69336 16.6406 5.69336Q15.791 5.69336 15.0732 6.01562Q14.3555 6.33789 13.6523 6.75781Q12.9492 7.17773 12.168 7.5Q11.3867 7.82227 10.4102 7.82227ZM10.4004 10.5371Q9.84375 10.5371 9.31152 10.4053Q8.7793 10.2734 8.30078 9.9707Q7.98828 9.79492 7.94922 9.5166Q7.91016 9.23828 8.04688 9.0332Q8.16406 8.84766 8.38867 8.77441Q8.61328 8.70117 8.86719 8.83789Q9.28711 9.08203 9.64844 9.17969Q10.0098 9.27734 10.4004 9.27734Q11.2402 9.27734 11.9531 8.95508Q12.666 8.63281 13.3691 8.21289Q14.0723 7.79297 14.8584 7.4707Q15.6445 7.14844 16.6406 7.14844Q17.7637 7.14844 18.7402 7.71484Q19.0625 7.89062 19.1016 8.17383Q19.1406 8.45703 18.9941 8.67188Q18.877 8.83789 18.6572 8.91113Q18.4375 8.98438 18.1738 8.83789Q17.7539 8.60352 17.3975 8.51074Q17.041 8.41797 16.6406 8.41797Q15.791 8.41797 15.0684 8.73535Q14.3457 9.05273 13.6475 9.47266Q12.9492 9.89258 12.1631 10.2148Q11.377 10.5371 10.4004 10.5371Z" fill="#007aff"/>
 </g>
</svg>
