<?xml version="1.0" encoding="UTF-8"?>
<!--Generator: Apple Native CoreSVG 175.5-->
<!DOCTYPE svg
PUBLIC "-//W3C//DTD SVG 1.1//EN"
       "http://www.w3.org/Graphics/SVG/1.1/DTD/svg11.dtd">
<svg version="1.1" xmlns="http://www.w3.org/2000/svg" xmlns:xlink="http://www.w3.org/1999/xlink" width="23.3553" height="22.6715">
 <g>
  <rect height="22.6715" opacity="0" width="23.3553" x="0" y="0"/>
  <path d="M1.13507 20.0711L22.2093 20.0711Q22.5316 20.0711 22.761 19.8367Q22.9905 19.6024 22.9905 19.2801Q22.9905 18.9578 22.761 18.7283Q22.5316 18.4988 22.2093 18.4988L1.13507 18.4988Q0.8128 18.4988 0.583308 18.7283Q0.353816 18.9578 0.353816 19.2801Q0.353816 19.6024 0.583308 19.8367Q0.8128 20.0711 1.13507 20.0711Z" fill="#007aff"/>
  <path d="M2.56085 9.78791L19.2894 14.2899Q20.2269 14.5438 21.1058 14.4656Q21.9847 14.3875 22.595 13.9822Q23.2054 13.577 23.3323 12.8446Q23.4398 12.1805 23.0442 11.5848Q22.6487 10.9891 21.9261 10.5545Q21.2034 10.1199 20.3343 9.95393L14.2503 8.74299Q13.9378 8.6844 13.723 8.54279Q13.5081 8.40119 13.2933 8.07893L8.12725 0.647286Q7.87335 0.295723 7.46319 0.188301L6.76983 0.01252Q6.58428-0.0363081 6.4671 0.105293Q6.34991 0.246895 6.4085 0.471504L8.2835 8.41096L8.89874 7.6883L3.77178 6.68244L5.41241 7.69807L1.4671 3.08869Q1.19366 2.77619 0.715144 2.87385L0.34405 2.95197Q0.148738 2.99104 0.0608474 3.12775Q-0.0270433 3.26447 0.0120192 3.44025L1.04718 8.49885Q1.1546 8.98713 1.54034 9.30451Q1.92608 9.6219 2.56085 9.78791Z" fill="#007aff"/>
 </g>
</svg>
