<?xml version="1.0" encoding="UTF-8"?>
<!--Generator: Apple Native CoreSVG 175-->
<!DOCTYPE svg
PUBLIC "-//W3C//DTD SVG 1.1//EN"
       "http://www.w3.org/Graphics/SVG/1.1/DTD/svg11.dtd">
<svg version="1.1" xmlns="http://www.w3.org/2000/svg" xmlns:xlink="http://www.w3.org/1999/xlink" width="19.1602" height="19.1504">
 <g>
  <rect height="19.1504" opacity="0" width="19.1602" x="0" y="0"/>
  <path d="M9.57031 19.1406Q11.5527 19.1406 13.2861 18.3984Q15.0195 17.6562 16.3379 16.333Q17.6562 15.0098 18.4082 13.2764Q19.1602 11.543 19.1602 9.57031Q19.1602 7.59766 18.4082 5.86426Q17.6562 4.13086 16.3379 2.80762Q15.0195 1.48438 13.2861 0.742188Q11.5527 0 9.57031 0Q7.59766 0 5.86426 0.742188Q4.13086 1.48438 2.81738 2.80762Q1.50391 4.13086 0.751953 5.86426Q0 7.59766 0 9.57031Q0 11.543 0.74707 13.2764Q1.49414 15.0098 2.8125 16.333Q4.13086 17.6562 5.86914 18.3984Q7.60742 19.1406 9.57031 19.1406ZM9.57031 18.3984Q7.74414 18.3984 6.14746 17.71Q4.55078 17.0215 3.33496 15.8105Q2.11914 14.5996 1.43555 12.998Q0.751953 11.3965 0.751953 9.57031Q0.751953 7.74414 1.43555 6.14258Q2.11914 4.54102 3.33496 3.3252Q4.55078 2.10938 6.14746 1.4209Q7.74414 0.732422 9.57031 0.732422Q11.4062 0.732422 13.0029 1.4209Q14.5996 2.10938 15.8154 3.3252Q17.0312 4.54102 17.7197 6.14258Q18.4082 7.74414 18.4082 9.57031Q18.4082 11.3965 17.7246 12.998Q17.041 14.5996 15.8252 15.8105Q14.6094 17.0215 13.0078 17.71Q11.4062 18.3984 9.57031 18.3984ZM9.57031 4.51172Q8.53516 4.51172 7.62207 4.90723Q6.70898 5.30273 6.01074 6.00098Q5.3125 6.69922 4.91699 7.61719Q4.52148 8.53516 4.52148 9.57031Q4.52148 10.6445 4.95605 11.626Q5.39062 12.6074 6.19141 13.3105L6.55273 12.8809Q5.84961 12.2363 5.46387 11.3721Q5.07812 10.5078 5.07812 9.57031Q5.07812 8.33984 5.69336 7.31445Q6.30859 6.28906 7.3291 5.67871Q8.34961 5.06836 9.57031 5.06836Q10.8105 5.06836 11.8311 5.67871Q12.8516 6.28906 13.4619 7.31445Q14.0723 8.33984 14.0723 9.57031Q14.0723 10.5078 13.6865 11.3721Q13.3008 12.2363 12.5977 12.8809L12.9688 13.3105Q13.7598 12.6074 14.1992 11.626Q14.6387 10.6445 14.6387 9.57031Q14.6387 8.53516 14.2383 7.61719Q13.8379 6.69922 13.1445 6.00098Q12.4512 5.30273 11.5332 4.90723Q10.6152 4.51172 9.57031 4.51172ZM9.57031 5.95703Q8.58398 5.95703 7.76367 6.44531Q6.94336 6.93359 6.45508 7.75391Q5.9668 8.57422 5.9668 9.57031Q5.9668 10.3223 6.26953 11.0156Q6.57227 11.709 7.12891 12.2168L7.51953 11.7969Q7.04102 11.3574 6.78223 10.7764Q6.52344 10.1953 6.52344 9.57031Q6.52344 8.74023 6.93848 8.04199Q7.35352 7.34375 8.04688 6.93359Q8.74023 6.52344 9.57031 6.52344Q10.4102 6.52344 11.1035 6.93359Q11.7969 7.34375 12.2119 8.04199Q12.627 8.74023 12.627 9.57031Q12.627 10.1953 12.373 10.7764Q12.1191 11.3574 11.6309 11.7969L12.0117 12.2168Q12.5879 11.6992 12.8906 11.0107Q13.1934 10.3223 13.1934 9.57031Q13.1934 8.57422 12.7002 7.75391Q12.207 6.93359 11.3867 6.44531Q10.5664 5.95703 9.57031 5.95703ZM9.57031 7.40234Q8.98438 7.40234 8.49121 7.69531Q7.99805 7.98828 7.70508 8.48145Q7.41211 8.97461 7.41211 9.57031Q7.41211 10.0098 7.58301 10.415Q7.75391 10.8203 8.08594 11.1523L8.4668 10.7031Q7.96875 10.2344 7.96875 9.57031Q7.96875 8.90625 8.44238 8.43262Q8.91602 7.95898 9.57031 7.95898Q10.2344 7.95898 10.708 8.43262Q11.1816 8.90625 11.1816 9.57031Q11.1816 10.2344 10.6836 10.7031L11.0742 11.1523Q11.748 10.459 11.748 9.57031Q11.748 8.97461 11.4551 8.48145Q11.1621 7.98828 10.6689 7.69531Q10.1758 7.40234 9.57031 7.40234ZM6.57227 14.6777L12.5879 14.6777Q12.7637 14.6777 12.8271 14.5264Q12.8906 14.375 12.793 14.2578L9.80469 10.8789Q9.72656 10.7812 9.58008 10.7812Q9.43359 10.7812 9.3457 10.8789L6.36719 14.2578Q6.25 14.375 6.31836 14.5264Q6.38672 14.6777 6.57227 14.6777Z" fill="#000000"/>
 </g>
</svg>
