<?xml version="1.0" encoding="UTF-8"?>
<!--Generator: Apple Native CoreSVG 175-->
<!DOCTYPE svg
PUBLIC "-//W3C//DTD SVG 1.1//EN"
       "http://www.w3.org/Graphics/SVG/1.1/DTD/svg11.dtd">
<svg version="1.1" xmlns="http://www.w3.org/2000/svg" xmlns:xlink="http://www.w3.org/1999/xlink" width="17.373" height="17.6074">
 <g>
  <rect height="17.6074" opacity="0" width="17.373" x="0" y="0"/>
  <path d="M3.86719 7.10938Q4.63867 7.10938 5.32715 6.83105Q6.01562 6.55273 6.5332 6.05957Q7.05078 5.56641 7.34375 4.91699Q7.63672 4.26758 7.63672 3.53516Q7.63672 2.57812 7.12402 1.77246Q6.61133 0.966797 5.75684 0.483398Q4.90234 0 3.86719 0Q3.07617 0 2.40234 0.258789Q1.72852 0.517578 1.18164 0.97168Q0.634766 1.42578 0.253906 2.01172Q0 2.39258 0 2.87109L0 4.23828Q0 4.7168 0.253906 5.10742Q0.634766 5.68359 1.18164 6.13281Q1.72852 6.58203 2.40234 6.83594Q3.07617 7.08984 3.86719 7.10938ZM1.49414 4.83398Q1.34766 4.83398 1.25488 4.73633Q1.16211 4.63867 1.16211 4.48242L1.16211 2.59766Q1.16211 2.45117 1.25488 2.35352Q1.34766 2.25586 1.49414 2.25586Q1.65039 2.25586 1.74316 2.35352Q1.83594 2.45117 1.83594 2.59766L1.83594 4.48242Q1.83594 4.63867 1.74316 4.73633Q1.65039 4.83398 1.49414 4.83398ZM4.52148 14.8438L6.74805 14.8438L6.74805 6.93359Q6.2793 7.29492 5.71289 7.5293Q5.14648 7.76367 4.52148 7.85156ZM5.23438 17.5684L6.01562 17.5684Q6.38672 17.5684 6.56738 17.4072Q6.74805 17.2461 6.74805 16.9336L6.74805 15.6445L4.52148 15.6445L4.52148 16.9336Q4.52148 17.2461 4.70703 17.4072Q4.89258 17.5684 5.23438 17.5684ZM13.5059 7.10938Q14.2969 7.08984 14.9756 6.83594Q15.6543 6.58203 16.1963 6.13281Q16.7383 5.68359 17.1289 5.10742Q17.373 4.7168 17.373 4.23828L17.373 2.87109Q17.373 2.39258 17.1289 2.01172Q16.7383 1.42578 16.1914 0.97168Q15.6445 0.517578 14.9707 0.258789Q14.2969 0 13.5059 0Q12.4707 0 11.6162 0.483398Q10.7617 0.966797 10.2539 1.77246Q9.74609 2.57812 9.73633 3.53516Q9.73633 4.26758 10.0293 4.91699Q10.3223 5.56641 10.8398 6.05957Q11.3574 6.55273 12.0459 6.83105Q12.7344 7.10938 13.5059 7.10938ZM15.8789 4.83398Q15.7324 4.83398 15.6348 4.73633Q15.5371 4.63867 15.5371 4.48242L15.5371 2.59766Q15.5371 2.45117 15.6348 2.35352Q15.7324 2.25586 15.8789 2.25586Q16.0254 2.25586 16.1182 2.35352Q16.2109 2.45117 16.2109 2.59766L16.2109 4.48242Q16.2109 4.63867 16.1182 4.73633Q16.0254 4.83398 15.8789 4.83398ZM12.8516 14.8438L12.8516 7.85156Q12.2266 7.76367 11.665 7.5293Q11.1035 7.29492 10.625 6.93359L10.625 14.8438ZM12.1387 17.5684Q12.4805 17.5684 12.666 17.4072Q12.8516 17.2461 12.8516 16.9336L12.8516 15.6445L10.625 15.6445L10.625 16.9336Q10.625 17.2461 10.8105 17.4072Q10.9961 17.5684 11.3574 17.5684Z" fill="#007aff"/>
 </g>
</svg>
