<?xml version="1.0" encoding="UTF-8"?>
<!--Generator: Apple Native CoreSVG 175-->
<!DOCTYPE svg
PUBLIC "-//W3C//DTD SVG 1.1//EN"
       "http://www.w3.org/Graphics/SVG/1.1/DTD/svg11.dtd">
<svg version="1.1" xmlns="http://www.w3.org/2000/svg" xmlns:xlink="http://www.w3.org/1999/xlink" width="7.63674" height="17.6044">
 <g>
  <rect height="17.6044" opacity="0" width="7.63674" x="0" y="0"/>
  <path d="M3.86795 7.10434Q4.64294 7.10709 5.32875 6.82762Q6.01456 6.54816 6.53366 6.05614Q7.05276 5.56412 7.34612 4.91524Q7.63947 4.26636 7.63672 3.5376Q7.63397 2.57309 7.12326 1.77094Q6.61255 0.968781 5.75882 0.48439Q4.90509 0 3.86795 0Q3.08044 0 2.40334 0.259399Q1.72623 0.518799 1.18202 0.97168Q0.637817 1.42456 0.250854 2.01019Q0 2.39334 0 2.86957L0 4.23477Q0 4.71954 0.250854 5.10117Q0.635223 5.68405 1.18073 6.12991Q1.72623 6.57578 2.40334 6.83029Q3.08044 7.08481 3.86795 7.10434ZM1.49612 4.83292Q1.34995 4.83292 1.25679 4.73618Q1.16364 4.63943 1.16364 4.48364L1.16364 2.59689Q1.16364 2.45087 1.25679 2.35275Q1.34995 2.25464 1.49612 2.25464Q1.65192 2.25464 1.74507 2.35275Q1.83823 2.45087 1.83823 2.59689L1.83823 4.48364Q1.83823 4.63943 1.74507 4.73618Q1.65192 4.83292 1.49612 4.83292ZM4.52072 14.8445L6.74728 14.8445L6.74728 6.92978Q6.27655 7.29462 5.70915 7.53075Q5.14175 7.76688 4.52072 7.84653ZM5.23865 17.5681L6.01959 17.5681Q6.38443 17.5681 6.56586 17.4046Q6.74728 17.2411 6.74728 16.9308L6.74728 15.6383L4.52072 15.6383L4.52072 16.9308Q4.52072 17.2411 4.70566 17.4046Q4.89059 17.5681 5.23865 17.5681Z" fill="#000000"/>
 </g>
</svg>
