<?xml version="1.0" encoding="UTF-8"?>
<!--Generator: Apple Native CoreSVG 175-->
<!DOCTYPE svg
PUBLIC "-//W3C//DTD SVG 1.1//EN"
       "http://www.w3.org/Graphics/SVG/1.1/DTD/svg11.dtd">
<svg version="1.1" xmlns="http://www.w3.org/2000/svg" xmlns:xlink="http://www.w3.org/1999/xlink" width="22.0872" height="15.7574">
 <g>
  <rect height="15.7574" opacity="0" width="22.0872" x="0" y="0"/>
  <path d="M6.09421 0.0473022Q5.25192 0.0402832 4.384 0.348434Q3.51608 0.656586 2.73323 1.19896Q1.95038 1.74133 1.33415 2.44057Q0.717926 3.1398 0.358963 3.91914Q0 4.69849 0 5.47623Q0 6.27625 0.351181 6.98364Q0.702362 7.69104 1.28365 8.22777Q1.86493 8.7645 2.5647 9.06349Q3.26447 9.36249 3.95905 9.36249Q4.72031 9.36249 5.54924 9.03343Q6.37817 8.70438 7.15469 8.15353Q7.93121 7.60269 8.5537 6.9133Q9.17618 6.22391 9.54628 5.48225Q9.91638 4.7406 9.91638 4.04373Q9.91638 2.92191 9.40216 2.01859Q8.88794 1.11526 8.02231 0.586166Q7.15668 0.0570679 6.09421 0.0473022ZM3.12271 8.15552Q2.74063 8.15552 2.22618 7.74498Q1.71173 7.33444 1.3562 6.74881Q0.993805 6.15082 1.00845 5.74165Q1.0231 5.33249 1.39801 5.33249Q1.77032 5.33249 2.28127 5.74165Q2.79221 6.15082 3.14774 6.74881Q3.51013 7.33444 3.49899 7.74498Q3.48785 8.15552 3.12271 8.15552ZM5.66452 4.08829Q5.47226 3.8266 5.5336 3.50761Q5.59494 3.18863 5.84686 2.99927L7.14813 2.04102Q7.41409 1.84875 7.73521 1.90659Q8.05634 1.96442 8.23868 2.23312Q8.44772 2.49924 8.40317 2.82036Q8.35861 3.14148 8.07861 3.33359L6.76331 4.25827Q6.48483 4.4574 6.15883 4.40933Q5.83282 4.36127 5.66452 4.08829ZM6.65009 15.7574L7.77222 15.7574Q8.1398 15.7574 8.31833 15.5913Q8.49686 15.4251 8.49686 15.1094L8.49686 8.08167Q7.92191 8.60672 7.26898 9.02954Q6.61606 9.45236 5.92545 9.7258L5.92545 15.1094Q5.92545 15.4251 6.11099 15.5913Q6.29654 15.7574 6.65009 15.7574ZM15.986 0.0473022Q14.9306 0.0570679 14.0649 0.586166Q13.1993 1.11526 12.6815 2.01859Q12.1637 2.92191 12.1637 4.04373Q12.1637 4.7406 12.5338 5.48225Q12.9039 6.22391 13.5264 6.9133Q14.1489 7.60269 14.9255 8.15353Q15.7021 8.70438 16.5309 9.03343Q17.3598 9.36249 18.1282 9.36249Q18.8254 9.36249 19.5238 9.06349Q20.2223 8.7645 20.8014 8.22777Q21.3805 7.69104 21.7339 6.98364Q22.0872 6.27625 22.0872 5.47623Q22.0872 4.69849 21.7282 3.91914Q21.3692 3.1398 20.7529 2.44057Q20.1367 1.74133 19.3504 1.19896Q18.5641 0.656586 17.6997 0.348434Q16.8352 0.0402832 15.986 0.0473022ZM18.9645 8.15552Q18.5992 8.15552 18.5846 7.74498Q18.5699 7.33444 18.9325 6.74881Q19.288 6.15082 19.799 5.74165Q20.3099 5.33249 20.6821 5.33249Q21.0571 5.33249 21.0718 5.74165Q21.0864 6.15082 20.7239 6.74881Q20.3685 7.33444 19.8576 7.74498Q19.3466 8.15552 18.9645 8.15552ZM16.4227 4.08829Q16.2473 4.36127 15.9248 4.40933Q15.6024 4.4574 15.3265 4.25827L14.0044 3.33359Q13.7285 3.14148 13.684 2.82036Q13.6395 2.49924 13.8414 2.23312Q14.0239 1.96442 14.3463 1.90659Q14.6687 1.84875 14.9391 2.04102L16.236 2.99927Q16.4949 3.18161 16.5514 3.5041Q16.6078 3.8266 16.4227 4.08829ZM15.4301 15.7574Q15.7907 15.7574 15.9727 15.5913Q16.1548 15.4251 16.1548 15.1094L16.1548 9.7258Q15.4669 9.45236 14.8126 9.02954Q14.1583 8.60672 13.5832 8.08167L13.5832 15.1094Q13.5832 15.4251 13.7653 15.5913Q13.9473 15.7574 14.3079 15.7574Z" fill="#000000"/>
 </g>
</svg>
