<?xml version="1.0" encoding="UTF-8"?>
<!--Generator: Apple Native CoreSVG 175-->
<!DOCTYPE svg
PUBLIC "-//W3C//DTD SVG 1.1//EN"
       "http://www.w3.org/Graphics/SVG/1.1/DTD/svg11.dtd">
<svg version="1.1" xmlns="http://www.w3.org/2000/svg" xmlns:xlink="http://www.w3.org/1999/xlink" width="20.5211" height="18.0225">
 <g>
  <rect height="18.0225" opacity="0" width="20.5211" x="0" y="0"/>
  <path d="M20.5211 9.00635Q20.5211 8.48923 20.0945 8.0835Q19.668 7.67776 18.9606 7.44362Q18.2532 7.20947 17.4098 7.20947L13.636 7.20947Q13.268 7.20947 13.0791 7.13074Q12.8903 7.052 12.6602 6.79962L6.7305 0.323486Q6.43631 0 6.06293 0L5.02853 0Q4.85703 0 4.77478 0.135956Q4.69254 0.271912 4.78317 0.455933L7.83875 7.20947L2.96219 7.70554L1.34918 4.77982Q1.16791 4.47739 0.790558 4.47739L0.363617 4.47739Q0.192261 4.47739 0.0961304 4.56863Q0 4.65988 0 4.84116L0 13.1715Q0 13.3501 0.0961304 13.4413Q0.192261 13.5326 0.363617 13.5326L0.790558 13.5326Q1.16791 13.5326 1.34918 13.2329L2.96219 10.3072L7.83875 10.7962L4.78317 17.5568Q4.69254 17.7408 4.77478 17.8732Q4.85703 18.0057 5.02853 18.0057L6.06293 18.0057Q6.43631 18.0057 6.7305 17.6892L12.6602 11.2103Q12.8903 10.9579 13.0791 10.8771Q13.268 10.7962 13.636 10.7962L17.4098 10.7962Q18.2532 10.7962 18.9606 10.5656Q19.668 10.3349 20.0945 9.9292Q20.5211 9.52347 20.5211 9.00635Z" fill="#000000"/>
 </g>
</svg>
