<?xml version="1.0" encoding="UTF-8"?>
<!--Generator: Apple Native CoreSVG 175-->
<!DOCTYPE svg
PUBLIC "-//W3C//DTD SVG 1.1//EN"
       "http://www.w3.org/Graphics/SVG/1.1/DTD/svg11.dtd">
<svg version="1.1" xmlns="http://www.w3.org/2000/svg" xmlns:xlink="http://www.w3.org/1999/xlink" width="18.1798" height="21.3193">
 <g>
  <rect height="21.3193" opacity="0" width="18.1798" x="0" y="0"/>
  <path d="M9.08981 19.7267Q10.9673 19.7267 12.6159 19.0167Q14.2645 18.3067 15.517 17.0542Q16.7696 15.8017 17.4747 14.1579Q18.1798 12.5142 18.1798 10.6367Q18.1798 8.75946 17.4747 7.11082Q16.7696 5.46219 15.517 4.21318Q14.2645 2.96417 12.6159 2.25418Q10.9673 1.54419 9.08981 1.54419Q7.21252 1.54419 5.56877 2.25418Q3.92502 2.96417 2.6725 4.21318Q1.41998 5.46219 0.709991 7.11082Q0 8.75946 0 10.6367Q0 12.5142 0.709991 14.1579Q1.41998 15.8017 2.6725 17.0542Q3.92502 18.3067 5.56877 19.0167Q7.21252 19.7267 9.08981 19.7267ZM3.9505 11.4227Q3.80783 11.4227 3.71094 11.3223Q3.61404 11.2219 3.61404 11.0724Q3.61404 10.941 3.71094 10.8407Q3.80783 10.7404 3.9505 10.7404L8.75778 10.7404L8.75778 4.31763Q8.75778 4.17236 8.85468 4.07898Q8.95157 3.9856 9.08707 3.9856Q9.2395 3.9856 9.3399 4.07898Q9.44031 4.17236 9.44031 4.31763L9.44031 11.0724Q9.44031 11.2219 9.3399 11.3223Q9.2395 11.4227 9.08707 11.4227ZM1.83167 3.59695Q1.93909 3.59695 2.01637 3.57254Q2.09366 3.54813 2.20108 3.47L5.19836 1.37894Q5.4425 1.20743 5.4425 0.96756Q5.4425 0.705566 5.16479 0.461426Q4.89563 0.228577 4.49921 0.114288Q4.10278 0 3.67737 0Q2.96478 0 2.3996 0.325394Q1.83441 0.650787 1.51039 1.20415Q1.18637 1.75751 1.18637 2.44186Q1.18637 2.63794 1.2162 2.84966Q1.24603 3.06137 1.32416 3.22037Q1.38824 3.38486 1.51367 3.49091Q1.6391 3.59695 1.83167 3.59695ZM16.3481 3.59695Q16.5407 3.59695 16.666 3.48953Q16.7914 3.38211 16.8652 3.22037Q16.9293 3.06412 16.9614 2.85103Q16.9934 2.63794 16.9934 2.44186Q16.9934 1.75751 16.6694 1.20415Q16.3454 0.650787 15.7801 0.325394Q15.2148 0 14.5094 0Q14.084 0 13.684 0.114288Q13.284 0.228577 13.0148 0.461426Q12.7441 0.705566 12.7441 0.96756Q12.7441 1.20743 12.984 1.37894L15.9785 3.47Q16.086 3.54813 16.1668 3.57254Q16.2477 3.59695 16.3481 3.59695ZM1.44608 19.4786Q1.54846 19.5837 1.69006 19.5837Q1.83167 19.5837 1.9368 19.4759L3.69812 17.7032L3.22693 17.2348L1.44882 19.0004Q1.35071 19.0985 1.3472 19.2387Q1.34369 19.379 1.44608 19.4786ZM16.7336 19.4786Q16.8359 19.379 16.8338 19.2387Q16.8317 19.0985 16.731 19.0004L14.9527 17.2348L14.4844 17.7032L16.243 19.4759Q16.3481 19.5837 16.4897 19.5837Q16.6313 19.5837 16.7336 19.4786Z" fill="#007aff"/>
 </g>
</svg>
