<?xml version="1.0" encoding="UTF-8"?>
<!--Generator: Apple Native CoreSVG 175.5-->
<!DOCTYPE svg
PUBLIC "-//W3C//DTD SVG 1.1//EN"
       "http://www.w3.org/Graphics/SVG/1.1/DTD/svg11.dtd">
<svg version="1.1" xmlns="http://www.w3.org/2000/svg" xmlns:xlink="http://www.w3.org/1999/xlink" width="22.6367" height="22.041">
 <g>
  <rect height="22.041" opacity="0" width="22.6367" x="0" y="0"/>
  <path d="M4.78516 22.041L8.18359 22.041Q9.24805 22.041 9.81445 21.4697Q10.3809 20.8984 10.3809 19.8047L10.3809 5.51758Q10.3809 4.43359 9.81445 3.85742Q9.24805 3.28125 8.18359 3.28125L4.78516 3.28125Q3.7207 3.28125 3.1543 3.85742Q2.58789 4.43359 2.58789 5.51758L2.58789 19.8047Q2.58789 20.8984 3.1543 21.4697Q3.7207 22.041 4.78516 22.041ZM4.87305 20.5664Q4.48242 20.5664 4.27246 20.3613Q4.0625 20.1562 4.0625 19.7754L4.0625 5.54688Q4.0625 5.16602 4.27246 4.96094Q4.48242 4.75586 4.87305 4.75586L8.0957 4.75586Q8.49609 4.75586 8.70117 4.96094Q8.90625 5.16602 8.90625 5.54688L8.90625 19.7754Q8.90625 20.1562 8.70117 20.3613Q8.49609 20.5664 8.0957 20.5664ZM14.4727 15.127L17.8711 15.127Q18.9355 15.127 19.502 14.5508Q20.0684 13.9746 20.0684 12.8906L20.0684 5.51758Q20.0684 4.43359 19.502 3.85742Q18.9355 3.28125 17.8711 3.28125L14.4727 3.28125Q13.3984 3.28125 12.832 3.85742Q12.2656 4.43359 12.2656 5.51758L12.2656 12.8906Q12.2656 13.9746 12.832 14.5508Q13.3984 15.127 14.4727 15.127ZM14.5508 13.6523Q14.1602 13.6523 13.9502 13.4473Q13.7402 13.2422 13.7402 12.8613L13.7402 5.54688Q13.7402 5.16602 13.9502 4.96094Q14.1602 4.75586 14.5508 4.75586L17.7832 4.75586Q18.1738 4.75586 18.3838 4.96094Q18.5938 5.16602 18.5938 5.54688L18.5938 12.8613Q18.5938 13.2422 18.3838 13.4473Q18.1738 13.6523 17.7832 13.6523Z" fill="#007aff"/>
  <path d="M0.683594 1.45508L21.9629 1.45508Q22.2461 1.45508 22.4414 1.24023Q22.6367 1.02539 22.6367 0.742188Q22.6367 0.449219 22.4414 0.234375Q22.2461 0.0195312 21.9629 0.0195312L0.683594 0.0195312Q0.390625 0.0195312 0.195312 0.234375Q0 0.449219 0 0.742188Q0 1.02539 0.195312 1.24023Q0.390625 1.45508 0.683594 1.45508Z" fill="#007aff"/>
 </g>
</svg>
