<?xml version="1.0" encoding="UTF-8"?>
<!--Generator: Apple Native CoreSVG 175-->
<!DOCTYPE svg
PUBLIC "-//W3C//DTD SVG 1.1//EN"
       "http://www.w3.org/Graphics/SVG/1.1/DTD/svg11.dtd">
<svg version="1.1" xmlns="http://www.w3.org/2000/svg" xmlns:xlink="http://www.w3.org/1999/xlink" width="19.8294" height="21.0324">
 <g>
  <rect height="21.0324" opacity="0" width="19.8294" x="0" y="0"/>
  <path d="M15.7008 9.52148Q16.3797 9.52148 16.7787 9.12872Q17.1777 8.73596 17.1777 8.05542L17.1777 3.65936Q17.1777 2.98859 16.7787 2.59094Q16.3797 2.1933 15.7008 2.1933L7.84973 2.1933Q7.17346 2.1933 6.77658 2.59094Q6.3797 2.98859 6.3797 3.65936L6.3797 8.05542Q6.3797 8.73596 6.77658 9.12872Q7.17346 9.52148 7.84973 9.52148ZM15.6813 8.82034L7.87903 8.82034Q7.51923 8.82034 7.30003 8.60115Q7.08084 8.38196 7.08084 8.01956L7.08084 3.69812Q7.08084 3.33557 7.30003 3.11859Q7.51923 2.90161 7.87903 2.90161L15.6813 2.90161Q16.0384 2.90161 16.254 3.11859Q16.4696 3.33557 16.4696 3.69812L16.4696 8.01956Q16.4696 8.38196 16.254 8.60115Q16.0384 8.82034 15.6813 8.82034ZM15.7008 18.8055Q16.3797 18.8055 16.7787 18.4078Q17.1777 18.0101 17.1777 17.3395L17.1777 12.9434Q17.1777 12.2629 16.7787 11.8701Q16.3797 11.4774 15.7008 11.4774L1.47705 11.4774Q0.793762 11.4774 0.396881 11.8701Q0 12.2629 0 12.9434L0 17.3395Q0 18.0101 0.396881 18.4078Q0.793762 18.8055 1.47705 18.8055ZM15.6813 18.0972L1.49918 18.0972Q1.13953 18.0972 0.923843 17.8802Q0.70816 17.6633 0.70816 17.3007L0.70816 12.9793Q0.70816 12.6169 0.923843 12.3977Q1.13953 12.1785 1.49918 12.1785L15.6813 12.1785Q16.0384 12.1785 16.254 12.3977Q16.4696 12.6169 16.4696 12.9793L16.4696 17.3007Q16.4696 17.6633 16.254 17.8802Q16.0384 18.0972 15.6813 18.0972ZM19.4794 21.0324Q19.6219 21.0324 19.7256 20.932Q19.8294 20.8316 19.8294 20.6891L19.8294 0.342102Q19.8294 0.206604 19.7256 0.106201Q19.6219 0.00579834 19.4794 0.00579834Q19.3369 0.00579834 19.2345 0.106201Q19.1321 0.206604 19.1321 0.342102L19.1321 20.6891Q19.1321 20.8316 19.2345 20.932Q19.3369 21.0324 19.4794 21.0324Z" fill="#007aff"/>
 </g>
</svg>
