<?xml version="1.0" encoding="UTF-8"?>
<!--Generator: Apple Native CoreSVG 175.5-->
<!DOCTYPE svg
PUBLIC "-//W3C//DTD SVG 1.1//EN"
       "http://www.w3.org/Graphics/SVG/1.1/DTD/svg11.dtd">
<svg version="1.1" xmlns="http://www.w3.org/2000/svg" xmlns:xlink="http://www.w3.org/1999/xlink" width="22.6367" height="18.8184">
 <g>
  <rect height="18.8184" opacity="0" width="22.6367" x="0" y="0"/>
  <path d="M0.683594 10.1465L3.20312 10.1465L3.20312 8.71094L0.683594 8.71094Q0.390625 8.71094 0.195312 8.92578Q0 9.14062 0 9.42383Q0 9.70703 0.195312 9.92676Q0.390625 10.1465 0.683594 10.1465ZM9.58008 10.1465L13.0371 10.1465L13.0371 8.71094L9.58008 8.71094ZM19.4727 10.1465L21.9629 10.1465Q22.2461 10.1465 22.4414 9.92676Q22.6367 9.70703 22.6367 9.42383Q22.6367 9.14062 22.4414 8.92578Q22.2461 8.71094 21.9629 8.71094L19.4727 8.71094Z" fill="#007aff"/>
  <path d="M4.78516 18.8184L8.18359 18.8184Q9.24805 18.8184 9.81445 18.2373Q10.3809 17.6562 10.3809 16.5625L10.3809 2.28516Q10.3809 1.19141 9.81445 0.620117Q9.24805 0.0488281 8.18359 0.0488281L4.78516 0.0488281Q3.7207 0.0488281 3.1543 0.620117Q2.58789 1.19141 2.58789 2.28516L2.58789 16.5625Q2.58789 17.6562 3.1543 18.2373Q3.7207 18.8184 4.78516 18.8184ZM14.4727 15.3418L17.8711 15.3418Q18.9355 15.3418 19.502 14.7705Q20.0684 14.1992 20.0684 13.1055L20.0684 5.74219Q20.0684 4.64844 19.502 4.07715Q18.9355 3.50586 17.8711 3.50586L14.4727 3.50586Q13.3984 3.50586 12.832 4.07715Q12.2656 4.64844 12.2656 5.74219L12.2656 13.1055Q12.2656 14.1992 12.832 14.7705Q13.3984 15.3418 14.4727 15.3418Z" fill="#007aff"/>
 </g>
</svg>
