<?xml version="1.0" encoding="UTF-8"?>
<!--Generator: Apple Native CoreSVG 175-->
<!DOCTYPE svg
PUBLIC "-//W3C//DTD SVG 1.1//EN"
       "http://www.w3.org/Graphics/SVG/1.1/DTD/svg11.dtd">
<svg version="1.1" xmlns="http://www.w3.org/2000/svg" xmlns:xlink="http://www.w3.org/1999/xlink" width="21.0266" height="19.8364">
 <g>
  <rect height="19.8364" opacity="0" width="21.0266" x="0" y="0"/>
  <path d="M3.69843 0Q3.01804 0 2.6252 0.395508Q2.23236 0.791016 2.23236 1.47705L2.23236 15.7008Q2.23236 16.377 2.6252 16.7773Q3.01804 17.1777 3.69843 17.1777L8.09448 17.1777Q8.76526 17.1777 9.1629 16.7773Q9.56055 16.377 9.56055 15.7008L9.56055 1.47705Q9.56055 0.791016 9.1629 0.395508Q8.76526 0 8.09448 0ZM12.9727 6.37268Q12.3019 6.37268 11.9043 6.7717Q11.5067 7.17072 11.5067 7.84973L11.5067 15.7008Q11.5067 16.377 11.9043 16.7773Q12.3019 17.1777 12.9727 17.1777L17.3688 17.1777Q18.0466 17.1777 18.4407 16.7773Q18.8348 16.377 18.8348 15.7008L18.8348 7.84973Q18.8348 7.17072 18.4407 6.7717Q18.0466 6.37268 17.3688 6.37268ZM0.33905 19.1376Q0.200806 19.1376 0.100403 19.2399Q0 19.3422 0 19.4876Q0 19.6231 0.100403 19.729Q0.200806 19.8349 0.33905 19.8349L20.6833 19.8349Q20.8258 19.8349 20.9262 19.729Q21.0266 19.6231 21.0266 19.4876Q21.0266 19.3422 20.9262 19.2399Q20.8258 19.1376 20.6833 19.1376Z" fill="#007aff"/>
 </g>
</svg>
