<?xml version="1.0" encoding="UTF-8"?>
<!--Generator: Apple Native CoreSVG 175.5-->
<!DOCTYPE svg
PUBLIC "-//W3C//DTD SVG 1.1//EN"
       "http://www.w3.org/Graphics/SVG/1.1/DTD/svg11.dtd">
<svg version="1.1" xmlns="http://www.w3.org/2000/svg" xmlns:xlink="http://www.w3.org/1999/xlink" width="19.9414" height="17.9004">
 <g>
  <rect height="17.9004" opacity="0" width="19.9414" x="0" y="0"/>
  <path d="M0.917969 17.9004L5.625 17.9004Q6.25977 17.9004 6.75293 17.5732Q7.24609 17.2461 7.5 16.6797L13.9062 2.23633Q14.1309 1.76758 14.6973 1.76758L19.0234 1.76758Q19.4043 1.76758 19.6729 1.50879Q19.9414 1.25 19.9414 0.878906Q19.9414 0.517578 19.6729 0.258789Q19.4043 0 19.0234 0L14.2578 0Q13.584 0 13.1299 0.292969Q12.6758 0.585938 12.4023 1.20117L5.9668 15.6543Q5.85938 15.8887 5.66895 16.0107Q5.47852 16.1328 5.21484 16.1328L0.917969 16.1328Q0.537109 16.1328 0.268555 16.3916Q0 16.6504 0 17.0215Q0 17.3926 0.268555 17.6465Q0.537109 17.9004 0.917969 17.9004ZM12.7051 17.9004L19.0234 17.9004Q19.4043 17.9004 19.668 17.6514Q19.9316 17.4023 19.9316 17.0312Q19.9316 16.6602 19.668 16.4062Q19.4043 16.1523 19.0234 16.1523L12.7051 16.1523Q12.3145 16.1523 12.0508 16.4062Q11.7871 16.6602 11.7871 17.0312Q11.7871 17.4023 12.0508 17.6514Q12.3145 17.9004 12.7051 17.9004Z" fill="#007aff"/>
 </g>
</svg>
