<?xml version="1.0" encoding="UTF-8"?>
<!--Generator: Apple Native CoreSVG 175-->
<!DOCTYPE svg
PUBLIC "-//W3C//DTD SVG 1.1//EN"
       "http://www.w3.org/Graphics/SVG/1.1/DTD/svg11.dtd">
<svg version="1.1" xmlns="http://www.w3.org/2000/svg" xmlns:xlink="http://www.w3.org/1999/xlink" width="19.1602" height="19.1504">
 <g>
  <rect height="19.1504" opacity="0" width="19.1602" x="0" y="0"/>
  <path d="M9.57031 19.1406Q11.5527 19.1406 13.2861 18.3984Q15.0195 17.6562 16.3379 16.333Q17.6562 15.0098 18.4082 13.2764Q19.1602 11.543 19.1602 9.57031Q19.1602 7.59766 18.4082 5.86426Q17.6562 4.13086 16.3379 2.80762Q15.0195 1.48438 13.2861 0.742188Q11.5527 0 9.57031 0Q7.59766 0 5.86426 0.742188Q4.13086 1.48438 2.81738 2.80762Q1.50391 4.13086 0.751953 5.86426Q0 7.59766 0 9.57031Q0 11.543 0.74707 13.2764Q1.49414 15.0098 2.8125 16.333Q4.13086 17.6562 5.86914 18.3984Q7.60742 19.1406 9.57031 19.1406ZM9.57031 18.3984Q7.74414 18.3984 6.14746 17.71Q4.55078 17.0215 3.33496 15.8105Q2.11914 14.5996 1.43555 12.998Q0.751953 11.3965 0.751953 9.57031Q0.751953 7.74414 1.43555 6.14258Q2.11914 4.54102 3.33496 3.3252Q4.55078 2.10938 6.14746 1.4209Q7.74414 0.732422 9.57031 0.732422Q11.4062 0.732422 13.0029 1.4209Q14.5996 2.10938 15.8154 3.3252Q17.0312 4.54102 17.7197 6.14258Q18.4082 7.74414 18.4082 9.57031Q18.4082 11.3965 17.7246 12.998Q17.041 14.5996 15.8252 15.8105Q14.6094 17.0215 13.0078 17.71Q11.4062 18.3984 9.57031 18.3984ZM5.63477 12.002L6.05469 14.7461Q6.09375 15.0195 6.34766 15.0195Q6.47461 15.0195 6.55762 14.9219Q6.64062 14.8242 6.61133 14.6875L6.20117 12.0605Q6.15234 11.7676 6.25 11.6162Q6.34766 11.4648 6.61133 11.4062Q6.72852 11.377 6.85059 11.3428Q6.97266 11.3086 7.08984 11.2793Q6.96289 11.4844 6.90918 11.7188Q6.85547 11.9531 6.85547 12.2461Q6.85547 13.0859 7.23633 13.8281Q7.61719 14.5703 8.24219 15.0342Q8.86719 15.498 9.58008 15.498Q10.293 15.498 10.918 15.0342Q11.543 14.5703 11.9238 13.8281Q12.3047 13.0859 12.3047 12.2461Q12.3047 11.9531 12.251 11.7188Q12.1973 11.4844 12.0703 11.2793Q12.1875 11.3086 12.3096 11.3428Q12.4316 11.377 12.5488 11.4062Q12.8223 11.4648 12.9102 11.6162Q12.998 11.7676 12.959 12.0605L12.5391 14.6875Q12.5195 14.8242 12.6025 14.9219Q12.6855 15.0195 12.8223 15.0195Q13.0664 15.0195 13.1055 14.7461L13.5352 12.002Q13.6035 11.5332 13.4033 11.2549Q13.2031 10.9766 12.6855 10.8398L10.8789 10.4297Q11.0352 10.3125 11.1523 10.1074Q11.2695 9.90234 11.2891 9.6582L12.4023 9.49219Q12.9297 9.42383 13.1641 9.17969Q13.3984 8.93555 13.3984 8.45703L13.3984 6.77734Q13.3984 6.48438 13.1055 6.48438Q12.8223 6.48438 12.8223 6.77734L12.8223 8.37891Q12.8223 8.65234 12.7051 8.78418Q12.5879 8.91602 12.2949 8.95508L11.25 9.10156Q11.1719 8.86719 11.0254 8.7207Q11.6113 8.59375 11.9287 8.20312Q12.2461 7.8125 12.2461 7.2168Q12.2461 6.04492 11.4062 5.25391L11.4258 5.23438Q12.1387 4.6582 11.5625 3.86719L11.0156 3.13477Q10.918 2.96875 10.752 2.96875Q10.6348 2.96875 10.5566 3.03711Q10.4785 3.10547 10.4785 3.21289Q10.4785 3.31055 10.5566 3.41797L11.1426 4.16016Q11.2891 4.375 11.2891 4.53613Q11.2891 4.69727 11.0938 4.83398L10.9961 4.91211Q10.3125 4.50195 9.58008 4.50195Q8.84766 4.50195 8.1543 4.91211L8.06641 4.83398Q7.87109 4.69727 7.87109 4.53613Q7.87109 4.375 8.02734 4.16016L8.60352 3.41797Q8.67188 3.31055 8.67188 3.21289Q8.67188 3.10547 8.59375 3.03711Q8.51562 2.96875 8.41797 2.96875Q8.24219 2.96875 8.14453 3.13477L7.59766 3.86719Q7.02148 4.6582 7.73438 5.23438L7.75391 5.25391Q6.91406 6.04492 6.91406 7.2168Q6.91406 7.80273 7.22656 8.18359Q7.53906 8.56445 8.13477 8.7207Q7.97852 8.85742 7.91016 9.10156L6.86523 8.95508Q6.58203 8.91602 6.45508 8.78418Q6.32812 8.65234 6.32812 8.37891L6.32812 6.77734Q6.32812 6.48438 6.05469 6.48438Q5.77148 6.48438 5.77148 6.77734L5.77148 8.45703Q5.77148 8.93555 6.00098 9.17969Q6.23047 9.42383 6.75781 9.49219L7.87109 9.6582Q7.89062 9.90234 8.00781 10.1025Q8.125 10.3027 8.28125 10.4297L6.47461 10.8398Q5.95703 10.9668 5.75195 11.25Q5.54688 11.5332 5.63477 12.002Z" fill="#000000"/>
 </g>
</svg>
