<?xml version="1.0" encoding="UTF-8"?>
<!--Generator: Apple Native CoreSVG 175-->
<!DOCTYPE svg
PUBLIC "-//W3C//DTD SVG 1.1//EN"
       "http://www.w3.org/Graphics/SVG/1.1/DTD/svg11.dtd">
<svg version="1.1" xmlns="http://www.w3.org/2000/svg" xmlns:xlink="http://www.w3.org/1999/xlink" width="18.7918" height="17.323">
 <g>
  <rect height="17.323" opacity="0" width="18.7918" x="0" y="0"/>
  <path d="M0 6.38199Q0 8.19916 0.680237 9.8027Q1.36047 11.4062 2.5531 12.6192Q2.68158 12.7559 2.8447 12.7538Q3.00781 12.7516 3.11569 12.6328Q3.2164 12.5168 3.19084 12.3633Q3.16528 12.2098 3.04932 12.0898Q1.9574 10.975 1.34216 9.51385Q0.726929 8.05267 0.726929 6.38199Q0.726929 4.7113 1.34216 3.2502Q1.9574 1.78909 3.04932 0.674133Q3.16528 0.554352 3.19084 0.400772Q3.2164 0.247192 3.11569 0.131226Q3.00781 0.0125122 2.8447 0.0138855Q2.68158 0.0152588 2.5531 0.144958Q1.75659 0.953522 1.18668 1.94275Q0.61676 2.93198 0.30838 4.05037Q0 5.16876 0 6.38199ZM3.80905 6.38199Q3.80905 7.40707 4.17465 8.32169Q4.54025 9.2363 5.20309 9.93591Q5.32349 10.0711 5.49202 10.0725Q5.66055 10.0739 5.77118 9.94797Q5.87189 9.832 5.84709 9.68475Q5.8223 9.53751 5.7074 9.40506Q5.11337 8.85117 4.82468 8.05717Q4.53598 7.26318 4.53598 6.38199Q4.53598 5.50079 4.8555 4.73984Q5.17502 3.97888 5.7074 3.35892Q5.81528 3.21945 5.84358 3.07571Q5.87189 2.93198 5.77118 2.81601Q5.66055 2.69012 5.49202 2.6915Q5.32349 2.69287 5.20309 2.82806Q4.54025 3.52768 4.17465 4.44237Q3.80905 5.35706 3.80905 6.38199ZM8.11401 6.38199Q8.11401 6.82495 8.37479 7.16187Q8.63556 7.49878 9.04266 7.61246L9.04266 16.9261Q9.04266 17.1004 9.14009 17.2117Q9.23752 17.323 9.40079 17.323Q9.55978 17.323 9.65454 17.2131Q9.7493 17.1031 9.7493 16.9261L9.7493 7.61246Q10.1535 7.49878 10.4156 7.16187Q10.6778 6.82495 10.6778 6.38199Q10.6778 6.02036 10.5067 5.72891Q10.3355 5.43747 10.0455 5.26497Q9.75555 5.09247 9.40079 5.09247Q9.03641 5.09247 8.74634 5.26497Q8.45627 5.43747 8.28514 5.72891Q8.11401 6.02036 8.11401 6.38199ZM13.0208 9.94797Q13.1313 10.0739 13.2999 10.0725Q13.4685 10.0711 13.5887 9.93591Q14.2587 9.2363 14.6208 8.32169Q14.9829 7.40707 14.9829 6.38199Q14.9829 5.35706 14.6208 4.44237Q14.2587 3.52768 13.5887 2.82806Q13.4685 2.69287 13.2999 2.6915Q13.1313 2.69012 13.0208 2.81601Q12.9199 2.93198 12.9482 3.07571Q12.9765 3.21945 13.0914 3.35892Q13.6168 3.97888 13.9363 4.73984Q14.2558 5.50079 14.2558 6.38199Q14.2558 7.26318 13.9707 8.05717Q13.6856 8.85117 13.0914 9.40506Q12.9695 9.53751 12.9447 9.68475Q12.9199 9.832 13.0208 9.94797ZM15.6763 12.6328Q15.784 12.7516 15.952 12.7538Q16.12 12.7559 16.2387 12.6192Q17.4384 11.4062 18.1151 9.8027Q18.7918 8.19916 18.7918 6.38199Q18.7918 5.16876 18.4869 4.05037Q18.1821 2.93198 17.6086 1.94275Q17.0352 0.953522 16.2387 0.144958Q16.12 0.0152588 15.952 0.0138855Q15.784 0.0125122 15.6763 0.131226Q15.5754 0.247192 15.6046 0.400772Q15.6337 0.554352 15.7426 0.674133Q16.8414 1.78909 17.4532 3.2502Q18.0649 4.7113 18.0649 6.38199Q18.0649 8.05267 17.4532 9.51385Q16.8414 10.975 15.7426 12.0898Q15.6337 12.2098 15.6046 12.3633Q15.5754 12.5168 15.6763 12.6328Z" fill="#32d74b"/>
 </g>
</svg>
