<?xml version="1.0" encoding="UTF-8"?>
<!--Generator: Apple Native CoreSVG 175.5-->
<!DOCTYPE svg
PUBLIC "-//W3C//DTD SVG 1.1//EN"
       "http://www.w3.org/Graphics/SVG/1.1/DTD/svg11.dtd">
<svg version="1.1" xmlns="http://www.w3.org/2000/svg" xmlns:xlink="http://www.w3.org/1999/xlink" width="17.7734" height="17.7832">
 <g>
  <rect height="17.7832" opacity="0" width="17.7734" x="0" y="0"/>
  <path d="M0 8.57422L4.6875 8.57422Q4.02344 8.28125 3.52051 7.83203Q3.01758 7.38281 2.73926 6.81152Q2.46094 6.24023 2.46094 5.58594Q2.46094 4.82422 2.80273 4.22363Q3.14453 3.62305 3.73535 3.27637Q4.32617 2.92969 5.08789 2.92969Q5.73242 2.92969 6.32812 3.19336Q6.92383 3.45703 7.41211 3.94043Q7.90039 4.42383 8.24219 5.08789L8.24219 0L9.52148 0L9.52148 5.08789Q9.86328 4.42383 10.3516 3.94043Q10.8398 3.45703 11.4355 3.19336Q12.0312 2.92969 12.6855 2.92969Q13.4375 2.92969 14.0332 3.27637Q14.6289 3.62305 14.9707 4.22363Q15.3125 4.82422 15.3125 5.58594Q15.3125 6.24023 15.0293 6.81152Q14.7461 7.38281 14.2432 7.83203Q13.7402 8.28125 13.0762 8.57422L17.7734 8.57422L17.7734 9.73633L10.5371 9.73633Q10.7617 10.2051 11.2158 10.752Q11.6699 11.2988 12.2461 11.792Q12.8223 12.2852 13.4326 12.6221Q14.043 12.959 14.5898 13.0176Q14.9902 13.0566 15.21 13.2959Q15.4297 13.5352 15.4297 13.9258Q15.4297 14.2676 15.1709 14.5264Q14.9121 14.7852 14.4629 14.7266Q13.8672 14.6387 13.1348 14.2676Q12.4023 13.8965 11.6895 13.3105Q10.9766 12.7246 10.415 11.9971Q9.85352 11.2695 9.59961 10.459L9.52148 10.459L9.52148 17.7637L8.24219 17.7637L8.24219 10.459L8.17383 10.459Q7.91016 11.2695 7.35352 11.9971Q6.79688 12.7246 6.08398 13.3105Q5.37109 13.8965 4.63867 14.2676Q3.90625 14.6387 3.30078 14.7266Q2.85156 14.7852 2.59277 14.5264Q2.33398 14.2676 2.33398 13.9258Q2.33398 13.5352 2.55371 13.3008Q2.77344 13.0664 3.18359 13.0176Q3.7207 12.959 4.33105 12.6172Q4.94141 12.2754 5.51758 11.7822Q6.09375 11.2891 6.54785 10.7471Q7.00195 10.2051 7.22656 9.73633L0 9.73633ZM7.74414 8.41797L8.05664 8.41797L8.05664 8.11523Q8.05664 7.38281 7.82715 6.71387Q7.59766 6.04492 7.19238 5.53223Q6.78711 5.01953 6.26465 4.72168Q5.74219 4.42383 5.16602 4.42383Q4.59961 4.42383 4.26758 4.77051Q3.93555 5.11719 3.93555 5.69336Q3.93555 6.19141 4.23828 6.6748Q4.54102 7.1582 5.06836 7.54883Q5.5957 7.93945 6.28418 8.17871Q6.97266 8.41797 7.74414 8.41797ZM10.0293 8.41797Q10.8008 8.41797 11.4844 8.17871Q12.168 7.93945 12.7002 7.54883Q13.2324 7.1582 13.5303 6.6748Q13.8281 6.19141 13.8281 5.69336Q13.8281 5.11719 13.4961 4.77051Q13.1641 4.42383 12.6074 4.42383Q12.0215 4.42383 11.499 4.72168Q10.9766 5.01953 10.5762 5.53223Q10.1758 6.04492 9.94629 6.71387Q9.7168 7.38281 9.7168 8.11523L9.7168 8.41797ZM16.6309 1.15234Q15.8789 0.400391 14.8438 0.200195Q13.8086 0 12.5586 0L5.18555 0Q3.95508 0 2.9248 0.200195Q1.89453 0.400391 1.14258 1.15234Q0.400391 1.89453 0.200195 2.91992Q0 3.94531 0 5.17578L0 12.5586Q0 13.8086 0.195312 14.8389Q0.390625 15.8691 1.14258 16.6113Q1.89453 17.3633 2.9248 17.5635Q3.95508 17.7637 5.20508 17.7637L12.5586 17.7637Q13.8086 17.7637 14.8438 17.5635Q15.8789 17.3633 16.6309 16.6113Q17.373 15.8691 17.5732 14.8389Q17.7734 13.8086 17.7734 12.5586L17.7734 5.20508Q17.7734 3.95508 17.5732 2.9248Q17.373 1.89453 16.6309 1.15234Z" fill="#007aff"/>
 </g>
</svg>
