<?xml version="1.0" encoding="UTF-8"?>
<!--Generator: Apple Native CoreSVG 175-->
<!DOCTYPE svg
PUBLIC "-//W3C//DTD SVG 1.1//EN"
       "http://www.w3.org/Graphics/SVG/1.1/DTD/svg11.dtd">
<svg version="1.1" xmlns="http://www.w3.org/2000/svg" xmlns:xlink="http://www.w3.org/1999/xlink" width="17.0493" height="17.0691">
 <g>
  <rect height="17.0691" opacity="0" width="17.0493" x="0" y="0"/>
  <path d="M16.0262 1.05545Q15.4359 0.46524 14.566 0.243912Q13.6961 0.022583 12.2704 0.022583L4.67224 0.022583Q3.33633 0.022583 2.47482 0.250931Q1.61331 0.479279 1.03012 1.06247Q0.442505 1.64993 0.221252 2.49954Q0 3.34915 0 4.69925L0 12.2929Q0 13.7328 0.21637 14.5978Q0.432739 15.4628 1.01608 16.0364Q1.61331 16.6266 2.48184 16.8478Q3.35037 17.0691 4.77615 17.0691L12.2704 17.0691Q13.6961 17.0691 14.5695 16.8478Q15.443 16.6266 16.0262 16.0364Q16.6138 15.4558 16.8315 14.5943Q17.0493 13.7328 17.0493 12.2929L17.0493 4.79874Q17.0493 3.36594 16.8315 2.49741Q16.6138 1.62888 16.0262 1.05545Z" fill="#000000"/>
 </g>
</svg>
