<?xml version="1.0" encoding="UTF-8"?>
<!--Generator: Apple Native CoreSVG 175-->
<!DOCTYPE svg
PUBLIC "-//W3C//DTD SVG 1.1//EN"
       "http://www.w3.org/Graphics/SVG/1.1/DTD/svg11.dtd">
<svg version="1.1" xmlns="http://www.w3.org/2000/svg" xmlns:xlink="http://www.w3.org/1999/xlink" width="17.0493" height="17.0691">
 <g>
  <rect height="17.0691" opacity="0" width="17.0493" x="0" y="0"/>
  <path d="M0 8.28751L5.43274 8.28751Q4.67026 8.00858 4.02672 7.53471Q3.38318 7.06085 2.9924 6.44386Q2.60162 5.82687 2.60162 5.13046Q2.60162 4.44611 2.87308 3.94745Q3.14453 3.44879 3.61931 3.17596Q4.09409 2.90314 4.72229 2.90314Q5.42313 2.90314 6.09962 3.27225Q6.77612 3.64136 7.32071 4.28299Q7.8653 4.92462 8.1929 5.75027L8.1929 0.022583L8.84659 0.022583L8.84659 5.75027Q9.16718 4.92462 9.71527 4.28299Q10.2634 3.64136 10.9364 3.27225Q11.6093 2.90314 12.3129 2.90314Q12.9382 2.90314 13.418 3.17596Q13.8977 3.44879 14.1656 3.94745Q14.4336 4.44611 14.4336 5.13046Q14.4336 5.82687 14.045 6.44386Q13.6563 7.06085 13.0128 7.53471Q12.3692 8.00858 11.5997 8.28751L17.0493 8.28751L17.0493 8.90121L9.30664 8.90121Q9.70001 9.6933 10.3088 10.43Q10.9177 11.1667 11.6063 11.7654Q12.2949 12.364 12.951 12.7502Q13.607 13.1363 14.0906 13.2159Q14.3575 13.255 14.4682 13.3712Q14.579 13.4874 14.579 13.6742Q14.579 13.8402 14.4502 13.9795Q14.3214 14.1188 14.0973 14.0813Q13.586 13.9651 12.8992 13.6152Q12.2125 13.2652 11.475 12.6828Q10.7375 12.1004 10.0565 11.2885Q9.37546 10.4765 8.88245 9.44107L8.84659 9.44107L8.84659 17.0691L8.1929 17.0691L8.1929 9.44107L8.15979 9.44107Q7.65701 10.4765 6.97731 11.2885Q6.29761 12.1004 5.56015 12.6828Q4.82269 13.2652 4.13597 13.6152Q3.44925 13.9651 2.9422 14.0813Q2.71088 14.1188 2.58568 13.9795Q2.46048 13.8402 2.46048 13.6742Q2.46048 13.4874 2.57126 13.3726Q2.68204 13.2578 2.94449 13.2159Q3.43246 13.1363 4.08501 12.7488Q4.73755 12.3613 5.42969 11.7627Q6.12183 11.1641 6.73065 10.4287Q7.33948 9.6933 7.73285 8.90121L0 8.90121ZM7.77924 8.25073L8.06366 8.25073L8.06366 7.99026Q8.06366 7.1312 7.78496 6.34277Q7.50626 5.55435 7.03064 4.94316Q6.55502 4.33197 5.95879 3.97789Q5.36255 3.62381 4.73709 3.62381Q4.11453 3.62381 3.71567 4.04434Q3.3168 4.46487 3.3168 5.16754Q3.3168 5.74997 3.68637 6.29662Q4.05594 6.84326 4.68521 7.28668Q5.31448 7.7301 6.11542 7.99042Q6.91635 8.25073 7.77924 8.25073ZM9.25583 8.25073Q10.1187 8.25073 10.9184 7.99042Q11.718 7.7301 12.3486 7.28668Q12.9793 6.84326 13.3475 6.29662Q13.7157 5.74997 13.7157 5.16754Q13.7157 4.46487 13.3168 4.04434Q12.9179 3.62381 12.2981 3.62381Q11.6699 3.62381 11.0772 3.97789Q10.4845 4.33197 10.0102 4.94316Q9.53598 5.55435 9.25377 6.34277Q8.97156 7.1312 8.97156 7.99026L8.97156 8.25073ZM16.0262 1.05545Q15.4359 0.46524 14.566 0.243912Q13.6961 0.022583 12.2704 0.022583L4.67224 0.022583Q3.33633 0.022583 2.47482 0.250931Q1.61331 0.479279 1.03012 1.06247Q0.442505 1.64993 0.221252 2.49954Q0 3.34915 0 4.69925L0 12.2929Q0 13.7328 0.21637 14.5978Q0.432739 15.4628 1.01608 16.0364Q1.61331 16.6266 2.48184 16.8478Q3.35037 17.0691 4.77615 17.0691L12.2704 17.0691Q13.6961 17.0691 14.5695 16.8478Q15.443 16.6266 16.0262 16.0364Q16.6138 15.4558 16.8315 14.5943Q17.0493 13.7328 17.0493 12.2929L17.0493 4.79874Q17.0493 3.36594 16.8315 2.49741Q16.6138 1.62888 16.0262 1.05545Z" fill="#007aff"/>
 </g>
</svg>
