<?xml version="1.0" encoding="UTF-8"?>
<!--Generator: Apple Native CoreSVG 175-->
<!DOCTYPE svg
PUBLIC "-//W3C//DTD SVG 1.1//EN"
       "http://www.w3.org/Graphics/SVG/1.1/DTD/svg11.dtd">
<svg version="1.1" xmlns="http://www.w3.org/2000/svg" xmlns:xlink="http://www.w3.org/1999/xlink" width="9.45312" height="21.3379">
 <g>
  <rect height="21.3379" opacity="0" width="9.45312" x="0" y="0"/>
  <path d="M2.13867 21.3379L7.31445 21.3379Q8.34961 21.3379 8.90137 20.791Q9.45312 20.2441 9.45312 19.2285L9.45312 2.10938Q9.45312 1.09375 8.90137 0.546875Q8.34961 0 7.31445 0L2.13867 0Q1.10352 0 0.551758 0.546875Q0 1.09375 0 2.10938L0 19.2285Q0 20.2441 0.551758 20.791Q1.10352 21.3379 2.13867 21.3379ZM2.1875 20.6445Q1.46484 20.6445 1.08398 20.2637Q0.703125 19.8828 0.703125 19.1602L0.703125 2.17773Q0.703125 1.45508 1.08398 1.07422Q1.46484 0.693359 2.1875 0.693359L7.26562 0.693359Q7.97852 0.693359 8.36426 1.07422Q8.75 1.45508 8.75 2.17773L8.75 19.1602Q8.75 19.8828 8.36426 20.2637Q7.97852 20.6445 7.26562 20.6445ZM2.99805 8.42773Q3.51562 8.42773 3.87207 8.07129Q4.22852 7.71484 4.22852 7.2168Q4.22852 6.69922 3.87207 6.33789Q3.51562 5.97656 2.99805 5.97656Q2.48047 5.97656 2.11914 6.33789Q1.75781 6.69922 1.75781 7.2168Q1.75781 7.71484 2.11914 8.07129Q2.48047 8.42773 2.99805 8.42773ZM6.47461 8.42773Q6.97266 8.42773 7.3291 8.07129Q7.68555 7.71484 7.68555 7.2168Q7.68555 6.69922 7.3291 6.33789Q6.97266 5.97656 6.47461 5.97656Q5.94727 5.97656 5.58594 6.33789Q5.22461 6.69922 5.22461 7.2168Q5.22461 7.71484 5.58594 8.07129Q5.94727 8.42773 6.47461 8.42773ZM2.99805 11.8945Q3.51562 11.8945 3.87207 11.5332Q4.22852 11.1719 4.22852 10.6641Q4.22852 10.1465 3.87207 9.78027Q3.51562 9.41406 2.99805 9.41406Q2.48047 9.41406 2.11914 9.78027Q1.75781 10.1465 1.75781 10.6641Q1.75781 11.1719 2.11914 11.5332Q2.48047 11.8945 2.99805 11.8945ZM2.99805 15.332Q3.51562 15.332 3.87207 14.9756Q4.22852 14.6191 4.22852 14.1113Q4.22852 13.5938 3.87207 13.2324Q3.51562 12.8711 2.99805 12.8711Q2.48047 12.8711 2.11914 13.2324Q1.75781 13.5938 1.75781 14.1113Q1.75781 14.6191 2.11914 14.9756Q2.48047 15.332 2.99805 15.332ZM6.46484 15.332Q6.96289 15.332 7.32422 14.9756Q7.68555 14.6191 7.68555 14.1113L7.68555 10.6445Q7.68555 10.1367 7.32422 9.77539Q6.96289 9.41406 6.46484 9.41406Q5.94727 9.41406 5.59082 9.77539Q5.23438 10.1367 5.23438 10.6445L5.23438 14.1113Q5.23438 14.6191 5.59082 14.9756Q5.94727 15.332 6.46484 15.332Z" fill="#000000"/>
 </g>
</svg>
