<?xml version="1.0" encoding="UTF-8"?>
<!--Generator: Apple Native CoreSVG 175-->
<!DOCTYPE svg
PUBLIC "-//W3C//DTD SVG 1.1//EN"
       "http://www.w3.org/Graphics/SVG/1.1/DTD/svg11.dtd">
<svg version="1.1" xmlns="http://www.w3.org/2000/svg" xmlns:xlink="http://www.w3.org/1999/xlink" width="18.595" height="18.6136">
 <g>
  <rect height="18.6136" opacity="0" width="18.595" x="0" y="0"/>
  <path d="M4.81674 7.20581Q4.81415 6.64642 5.20393 6.18607Q5.59372 5.72571 6.19919 5.69641Q6.22849 6.0437 6.04782 6.41129Q5.86716 6.77887 5.54352 7.01538Q5.21988 7.25189 4.81674 7.20581ZM7.57187 10.6641Q7.45743 11.0547 7.21542 11.4781Q6.97342 11.9016 6.63712 12.2054Q6.54373 12.3004 6.40076 12.3639Q6.25778 12.4274 6.07224 12.4274Q5.89645 12.4274 5.77087 12.3842Q5.64529 12.341 5.48904 12.2781Q5.40543 12.2488 5.27008 12.2Q5.13474 12.1512 4.98276 12.1512Q4.61884 12.1512 4.39423 12.2955Q4.16962 12.4397 3.87115 12.4397Q3.47733 12.4397 3.06061 11.9391Q2.64496 11.4534 2.37076 10.7644Q2.09656 10.0754 2.09656 9.41833Q2.09656 9.02496 2.20886 8.64548Q2.32117 8.26599 2.57507 7.96753Q3.02429 7.38861 3.81805 7.38861Q4.19617 7.38861 4.42833 7.54135Q4.66049 7.69409 4.84879 7.69409Q5.08316 7.69409 5.37964 7.53296Q5.67612 7.37183 6.12808 7.37183Q6.98044 7.37183 7.40585 8.02612Q7.12692 8.19916 6.98456 8.39233Q6.84219 8.58551 6.79764 8.74725Q6.72104 9.00818 6.69724 9.29764Q6.67343 9.5871 6.79764 9.88281Q6.90781 10.1492 7.09335 10.3453Q7.2789 10.5414 7.57187 10.6641ZM10.2977 6.19446L10.2977 7.37183L11.2575 7.37183L11.2575 8.16559L10.2977 8.16559L10.2977 10.9543Q10.2977 11.575 10.9172 11.575Q10.9883 11.575 11.0985 11.5736Q11.2086 11.5723 11.2309 11.5457L11.2309 12.3883Q11.1836 12.3981 11.0225 12.4127Q10.8614 12.4274 10.6926 12.4274Q9.92111 12.4274 9.59396 12.1198Q9.26682 11.8121 9.26682 11.0574L9.26682 8.16559L8.5582 8.16559L8.5582 7.37183L9.26682 7.37183L9.26682 6.19446ZM14.6614 12.3883L13.5747 12.3883L11.7332 7.37183L12.8297 7.37183L14.1101 11.4062L15.3477 7.37183L16.4734 7.37183ZM4.77615 18.6136L13.8161 18.6136Q15.2419 18.6136 16.1153 18.391Q16.9887 18.1683 17.5719 17.5809Q18.1595 16.9977 18.3772 16.134Q18.595 15.2702 18.595 13.8347L18.595 4.80972Q18.595 3.37692 18.3772 2.50839Q18.1595 1.63986 17.5719 1.06628Q16.9817 0.478821 16.1118 0.256195Q15.2419 0.0335693 13.8161 0.0335693L4.67224 0.0335693Q3.33633 0.0335693 2.47482 0.263214Q1.61331 0.492859 1.03012 1.07346Q0.442505 1.66367 0.221252 2.51328Q0 3.36288 0 4.71283L0 13.8347Q0 15.2702 0.21637 16.1375Q0.432739 17.0047 1.01608 17.5809Q1.61331 18.1683 2.48184 18.391Q3.35037 18.6136 4.77615 18.6136Z" fill="#000000"/>
 </g>
</svg>
