<?xml version="1.0" encoding="UTF-8"?>
<!--Generator: Apple Native CoreSVG 175-->
<!DOCTYPE svg
PUBLIC "-//W3C//DTD SVG 1.1//EN"
       "http://www.w3.org/Graphics/SVG/1.1/DTD/svg11.dtd">
<svg version="1.1" xmlns="http://www.w3.org/2000/svg" xmlns:xlink="http://www.w3.org/1999/xlink" width="9.30664" height="21.3379">
 <g>
  <rect height="21.3379" opacity="0" width="9.30664" x="0" y="0"/>
  <path d="M2.08008 21.3379L7.23633 21.3379Q8.24219 21.3379 8.77441 20.8057Q9.30664 20.2734 9.30664 19.2578L9.30664 2.08008Q9.30664 1.07422 8.77441 0.541992Q8.24219 0.00976562 7.23633 0.00976562L2.08008 0.00976562Q1.07422 0.00976562 0.537109 0.541992Q0 1.07422 0 2.08008L0 19.2578Q0 20.2734 0.537109 20.8057Q1.07422 21.3379 2.08008 21.3379ZM2.80273 8.34961Q2.27539 8.34961 1.9043 7.9834Q1.5332 7.61719 1.5332 7.10938Q1.5332 6.58203 1.9043 6.21582Q2.27539 5.84961 2.80273 5.84961Q3.32031 5.84961 3.68652 6.21582Q4.05273 6.58203 4.05273 7.10938Q4.05273 7.61719 3.68652 7.9834Q3.32031 8.34961 2.80273 8.34961ZM6.32812 8.34961Q5.80078 8.34961 5.42969 7.9834Q5.05859 7.61719 5.05859 7.10938Q5.05859 6.58203 5.42969 6.21582Q5.80078 5.84961 6.32812 5.84961Q6.83594 5.84961 7.20215 6.21582Q7.56836 6.58203 7.56836 7.10938Q7.56836 7.61719 7.20215 7.9834Q6.83594 8.34961 6.32812 8.34961ZM2.80273 11.9238Q2.27539 11.9238 1.9043 11.5576Q1.5332 11.1914 1.5332 10.6641Q1.5332 10.1367 1.9043 9.76562Q2.27539 9.39453 2.80273 9.39453Q3.32031 9.39453 3.68652 9.76562Q4.05273 10.1367 4.05273 10.6641Q4.05273 11.1914 3.68652 11.5576Q3.32031 11.9238 2.80273 11.9238ZM2.80273 15.459Q2.27539 15.459 1.9043 15.0928Q1.5332 14.7266 1.5332 14.2188Q1.5332 13.6914 1.9043 13.3252Q2.27539 12.959 2.80273 12.959Q3.32031 12.959 3.68652 13.3252Q4.05273 13.6914 4.05273 14.2188Q4.05273 14.7266 3.68652 15.0928Q3.32031 15.459 2.80273 15.459ZM6.32812 15.459Q5.80078 15.459 5.43945 15.0977Q5.07812 14.7363 5.07812 14.2285L5.07812 10.6445Q5.07812 10.127 5.43945 9.76074Q5.80078 9.39453 6.32812 9.39453Q6.83594 9.39453 7.20215 9.76074Q7.56836 10.127 7.56836 10.6445L7.56836 14.2285Q7.56836 14.7363 7.20215 15.0977Q6.83594 15.459 6.32812 15.459Z" fill="#000000"/>
 </g>
</svg>
