<?xml version="1.0" encoding="UTF-8"?>
<!--Generator: Apple Native CoreSVG 175-->
<!DOCTYPE svg
PUBLIC "-//W3C//DTD SVG 1.1//EN"
       "http://www.w3.org/Graphics/SVG/1.1/DTD/svg11.dtd">
<svg version="1.1" xmlns="http://www.w3.org/2000/svg" xmlns:xlink="http://www.w3.org/1999/xlink" width="8.24615" height="21.3419">
 <g>
  <rect height="21.3419" opacity="0" width="8.24615" x="0" y="0"/>
  <path d="M2.07703 21.3419L6.17188 21.3419Q7.1785 21.3419 7.71233 20.8067Q8.24615 20.2715 8.24615 19.2578L8.24615 2.08557Q8.24615 1.07895 7.71233 0.543747Q7.1785 0.00854492 6.17188 0.00854492L2.07703 0.00854492Q1.07025 0.00854492 0.535126 0.543747Q0 1.07895 0 2.08557L0 19.2578Q0 20.2715 0.535126 20.8067Q1.07025 21.3419 2.07703 21.3419ZM4.12659 7.74918Q3.30078 7.74918 2.62283 7.34749Q1.94489 6.9458 1.54533 6.26648Q1.14578 5.58716 1.14578 4.76837Q1.14578 3.94257 1.54533 3.26462Q1.94489 2.58667 2.62283 2.18849Q3.30078 1.79031 4.12659 1.79031Q4.95514 1.79031 5.63301 2.18849Q6.31088 2.58667 6.71051 3.26462Q7.11014 3.94257 7.11014 4.76837Q7.11014 5.58716 6.71051 6.26648Q6.31088 6.9458 5.63301 7.34749Q4.95514 7.74918 4.12659 7.74918ZM2.6297 10.7587Q2.15942 10.7587 1.83014 10.4223Q1.50085 10.0859 1.50085 9.6199Q1.50085 9.14688 1.82877 8.82248Q2.15668 8.49808 2.6297 8.49808Q3.10547 8.49808 3.43826 8.82248Q3.77106 9.14688 3.77106 9.6199Q3.77106 10.0859 3.43689 10.4223Q3.10272 10.7587 2.6297 10.7587ZM5.62897 10.7587Q5.1532 10.7587 4.81895 10.4223Q4.48471 10.0859 4.48471 9.6199Q4.48471 9.14688 4.81895 8.82248Q5.1532 8.49808 5.62897 8.49808Q6.09924 8.49808 6.42715 8.82248Q6.75507 9.14688 6.75507 9.6199Q6.75507 10.0832 6.42578 10.4209Q6.0965 10.7587 5.62897 10.7587ZM2.6297 13.652Q2.15942 13.652 1.83014 13.3157Q1.50085 12.9793 1.50085 12.509Q1.50085 12.043 1.83014 11.7102Q2.15942 11.3774 2.6297 11.3774Q3.10547 11.3774 3.43826 11.7102Q3.77106 12.043 3.77106 12.509Q3.77106 12.982 3.43826 13.317Q3.10547 13.652 2.6297 13.652ZM2.6297 16.541Q2.15942 16.541 1.83014 16.2047Q1.50085 15.8684 1.50085 15.4051Q1.50085 14.9321 1.83014 14.5966Q2.15942 14.261 2.6297 14.261Q3.10272 14.261 3.43689 14.5966Q3.77106 14.9321 3.77106 15.4051Q3.77106 15.8711 3.43826 16.2061Q3.10547 16.541 2.6297 16.541ZM5.61646 16.541Q5.1825 16.541 4.86778 16.2242Q4.55307 15.9074 4.55307 15.4805L4.55307 12.4406Q4.55307 11.9969 4.86641 11.6872Q5.17975 11.3774 5.61646 11.3774Q6.0672 11.3774 6.38672 11.6885Q6.70624 11.9997 6.70624 12.4406L6.70624 15.4805Q6.70624 15.9215 6.38672 16.2312Q6.0672 16.541 5.61646 16.541Z" fill="#000000"/>
 </g>
</svg>
