<?xml version="1.0" encoding="UTF-8"?>
<!--Generator: Apple Native CoreSVG 175-->
<!DOCTYPE svg
PUBLIC "-//W3C//DTD SVG 1.1//EN"
       "http://www.w3.org/Graphics/SVG/1.1/DTD/svg11.dtd">
<svg version="1.1" xmlns="http://www.w3.org/2000/svg" xmlns:xlink="http://www.w3.org/1999/xlink" width="16.0701" height="23.4238">
 <g>
  <rect height="23.4238" opacity="0" width="16.0701" x="0" y="0"/>
  <path d="M0.000440667 10.0343Q-0.0218372 11.4085 1.08214 12.4957L5.59187 17.0293Q4.59028 17.7827 4.04455 18.3697Q3.49882 18.9566 3.28421 19.4912Q3.06959 20.0258 3.06959 20.625Q3.06959 21.4058 3.45885 22.0314Q3.8481 22.657 4.503 23.0195Q5.15791 23.382 5.95823 23.3945Q6.66258 23.4042 7.23898 23.1468Q7.81538 22.8894 8.22935 22.4657L15.0688 15.6207Q16.1532 14.5433 16.0632 13.3337Q15.9732 12.1242 14.745 10.8917L10.5533 6.707L12.1934 5.06409Q12.6282 4.62219 12.8665 4.08432Q13.1048 3.54645 13.1119 2.97928Q13.1314 2.14172 12.7433 1.46515Q12.3552 0.788574 11.6786 0.394287Q11.002 0 10.1477 0Q9.42854 0 8.83558 0.277328Q8.24263 0.554657 7.59154 1.20422L0.844557 7.93869Q0.0199719 8.77457 0.000440667 10.0343ZM2.62037 7.19406L8.1114 1.71722Q8.6392 1.1824 9.10574 0.958939Q9.57228 0.735474 10.1477 0.735474Q11.1215 0.735474 11.7586 1.36772Q12.3958 1.99997 12.3958 2.96677Q12.3958 3.38318 12.2114 3.79395Q12.027 4.20471 11.6806 4.54407L5.83403 10.3879Q5.98799 9.43161 5.59973 8.66325Q5.21147 7.8949 4.42763 7.4836Q3.64378 7.0723 2.62037 7.19406ZM0.787642 10.164Q0.787642 9.13162 1.38914 8.49312Q1.99064 7.85461 2.93089 7.85461Q3.91447 7.85461 4.53833 8.51265Q5.16218 9.17068 5.16218 10.2324Q5.16218 10.3398 5.15181 10.5865Q5.14143 10.8331 5.08482 11.0512Q5.04347 11.23 5.11084 11.3541Q5.17821 11.4781 5.3044 11.5356Q5.43059 11.593 5.56555 11.5799Q5.70051 11.5668 5.79146 11.4731L10.0445 7.21558L14.2322 11.4117Q15.2641 12.4339 15.336 13.3449Q15.4079 14.2558 14.556 15.1077L8.87266 20.798Q8.90013 20.1488 8.74838 19.6771Q8.59663 19.2055 8.24347 18.755Q7.8903 18.3046 7.31062 17.7222L1.94929 12.3245Q1.30003 11.6727 1.04384 11.1935Q0.787642 10.7144 0.787642 10.164ZM3.79103 20.6425Q3.79103 19.8059 4.33386 19.1361Q4.87669 18.4663 6.1508 17.5671L6.80479 18.2281Q7.58909 19.0195 7.88656 19.5279Q8.18403 20.0363 8.1938 20.6425Q8.1938 21.1945 7.89694 21.6542Q7.60008 22.114 7.09151 22.3886Q6.58293 22.6633 5.95823 22.6633Q5.36848 22.6633 4.87318 22.3927Q4.37788 22.1222 4.08446 21.6638Q3.79103 21.2054 3.79103 20.6425Z" fill="#007aff"/>
 </g>
</svg>
