<?xml version="1.0" encoding="UTF-8"?>
<!--Generator: Apple Native CoreSVG 175-->
<!DOCTYPE svg
PUBLIC "-//W3C//DTD SVG 1.1//EN"
       "http://www.w3.org/Graphics/SVG/1.1/DTD/svg11.dtd">
<svg version="1.1" xmlns="http://www.w3.org/2000/svg" xmlns:xlink="http://www.w3.org/1999/xlink" width="18.595" height="18.6136">
 <g>
  <rect height="18.6136" opacity="0" width="18.595" x="0" y="0"/>
  <path d="M4.84802 7.22229Q5.24841 7.26135 5.56931 7.02965Q5.8902 6.79794 6.06949 6.43311Q6.24878 6.06827 6.21948 5.71945Q5.61676 5.746 5.22751 6.20224Q4.83826 6.65848 4.84802 7.22229ZM7.57858 10.6573Q7.29538 10.5304 7.11121 10.3343Q6.92703 10.1382 6.81259 9.87457Q6.6954 9.58862 6.71921 9.2984Q6.74301 9.00818 6.81259 8.75Q6.86401 8.591 7.00157 8.39569Q7.13913 8.20038 7.42233 8.03436Q6.99966 7.37854 6.14853 7.37854Q5.69214 7.37854 5.40192 7.54181Q5.11169 7.70508 4.88007 7.70508Q4.6875 7.70508 4.45663 7.55371Q4.22577 7.40234 3.85742 7.40234Q3.0719 7.40234 2.61841 7.97577Q2.36725 8.27148 2.25494 8.64822Q2.14264 9.02496 2.14264 9.41559Q2.14264 10.0644 2.41547 10.748Q2.68829 11.4316 3.09845 11.9214Q3.50983 12.4167 3.9035 12.4167Q4.20624 12.4167 4.42459 12.2737Q4.64294 12.1307 5.01129 12.1307Q5.16327 12.1307 5.29724 12.1796Q5.43121 12.2284 5.51483 12.2577Q5.66833 12.3207 5.79391 12.3638Q5.91949 12.4069 6.09253 12.4069Q6.27548 12.4069 6.41838 12.3434Q6.56128 12.28 6.65192 12.1851Q6.98563 11.884 7.22977 11.4597Q7.47391 11.0355 7.57858 10.6573ZM10.2895 6.21201L9.26682 6.21201L9.26682 7.37854L8.55667 7.37854L8.55667 8.17383L9.26682 8.17383L9.26682 11.041Q9.26682 11.7944 9.59473 12.1007Q9.92264 12.4069 10.6816 12.4069Q10.8476 12.4069 11.0074 12.3923Q11.1671 12.3776 11.2215 12.3679L11.2215 11.5237Q11.1922 11.5503 11.0869 11.5552Q10.9816 11.5601 10.9035 11.5601Q10.2895 11.5601 10.2895 10.9378L10.2895 8.17383L11.248 8.17383L11.248 7.37854L10.2895 7.37854ZM14.6289 12.3679L16.4273 7.37854L15.3098 7.37854L14.0762 11.387L12.8067 7.37854L11.7113 7.37854L13.5532 12.3679ZM4.77615 18.6136L13.8161 18.6136Q15.2419 18.6136 16.1153 18.391Q16.9887 18.1683 17.5719 17.5809Q18.1595 16.9977 18.3772 16.134Q18.595 15.2702 18.595 13.8347L18.595 4.80972Q18.595 3.37692 18.3772 2.50839Q18.1595 1.63986 17.5719 1.06628Q16.9817 0.478821 16.1118 0.256195Q15.2419 0.0335693 13.8161 0.0335693L4.67224 0.0335693Q3.33633 0.0335693 2.47482 0.263214Q1.61331 0.492859 1.03012 1.07346Q0.442505 1.66367 0.221252 2.51328Q0 3.36288 0 4.71283L0 13.8347Q0 15.2702 0.21637 16.1375Q0.432739 17.0047 1.01608 17.5809Q1.61331 18.1683 2.48184 18.391Q3.35037 18.6136 4.77615 18.6136ZM4.52652 17.8851Q3.51456 17.8851 2.76588 17.6873Q2.01721 17.4895 1.56097 17.0331Q1.10748 16.5796 0.918045 15.8394Q0.728607 15.0992 0.728607 14.0871L0.728607 4.66675Q0.728607 3.58597 0.918045 2.82326Q1.10748 2.06055 1.55396 1.60431Q2.00745 1.14365 2.78343 0.952835Q3.55942 0.762024 4.62616 0.762024L14.0685 0.762024Q15.0734 0.762024 15.8221 0.95993Q16.5707 1.15784 17.0242 1.61407Q17.4805 2.06757 17.6734 2.80777Q17.8664 3.54797 17.8664 4.56009L17.8664 14.0871Q17.8664 15.0992 17.6699 15.8394Q17.4734 16.5796 17.0242 17.0331Q16.5707 17.4965 15.8221 17.6908Q15.0734 17.8851 14.0685 17.8851Z" fill="#007aff"/>
 </g>
</svg>
