<?xml version="1.0" encoding="UTF-8"?>
<!--Generator: Apple Native CoreSVG 175-->
<!DOCTYPE svg
PUBLIC "-//W3C//DTD SVG 1.1//EN"
       "http://www.w3.org/Graphics/SVG/1.1/DTD/svg11.dtd">
<svg version="1.1" xmlns="http://www.w3.org/2000/svg" xmlns:xlink="http://www.w3.org/1999/xlink" width="27.5" height="18.6426">
 <g>
  <rect height="18.6426" opacity="0" width="27.5" x="0" y="0"/>
  <path d="M3.11523 15.5664Q3.21289 15.4492 3.18848 15.2979Q3.16406 15.1465 3.04688 15.0195Q1.95312 13.9062 1.33789 12.4463Q0.722656 10.9863 0.722656 9.31641Q0.722656 7.63672 1.33789 6.18164Q1.95312 4.72656 3.04688 3.61328Q3.16406 3.48633 3.18848 3.33496Q3.21289 3.18359 3.11523 3.06641Q3.00781 2.93945 2.84668 2.94922Q2.68555 2.95898 2.54883 3.08594Q1.35742 4.29688 0.678711 5.89844Q0 7.5 0 9.31641Q0 11.1328 0.678711 12.7295Q1.35742 14.3262 2.54883 15.5469Q2.68555 15.6738 2.84668 15.6787Q3.00781 15.6836 3.11523 15.5664ZM5.73242 12.8809Q5.83008 12.7637 5.80566 12.6123Q5.78125 12.4609 5.66406 12.3438Q5.06836 11.7871 4.78027 10.9912Q4.49219 10.1953 4.49219 9.31641Q4.49219 8.4375 4.78027 7.6416Q5.06836 6.8457 5.66406 6.28906Q5.78125 6.16211 5.80566 6.01562Q5.83008 5.86914 5.73242 5.75195Q5.61523 5.625 5.44922 5.62988Q5.2832 5.63477 5.16602 5.78125Q4.49219 6.46484 4.13086 7.37793Q3.76953 8.29102 3.76953 9.31641Q3.76953 10.3418 4.13086 11.25Q4.49219 12.1582 5.16602 12.8516Q5.2832 12.9883 5.44922 12.998Q5.61523 13.0078 5.73242 12.8809ZM24.3848 15.5664Q24.4922 15.6836 24.6582 15.6787Q24.8242 15.6738 24.9512 15.5469Q26.1426 14.3262 26.8213 12.7295Q27.5 11.1328 27.5 9.31641Q27.5 7.5 26.8213 5.89844Q26.1426 4.29688 24.9512 3.08594Q24.8242 2.95898 24.6582 2.94922Q24.4922 2.93945 24.3848 3.06641Q24.2773 3.18359 24.3066 3.33496Q24.3359 3.48633 24.4531 3.61328Q25.5469 4.72656 26.1572 6.18164Q26.7676 7.63672 26.7676 9.31641Q26.7676 10.9863 26.1572 12.4463Q25.5469 13.9062 24.4531 15.0195Q24.3359 15.1465 24.3066 15.2979Q24.2773 15.4492 24.3848 15.5664ZM21.7773 12.8809Q21.8848 13.0078 22.0508 12.998Q22.2168 12.9883 22.3438 12.8516Q23.0078 12.1582 23.374 11.25Q23.7402 10.3418 23.7402 9.31641Q23.7402 8.29102 23.374 7.37793Q23.0078 6.46484 22.3438 5.78125Q22.2168 5.63477 22.0508 5.62988Q21.8848 5.625 21.7773 5.75195Q21.6699 5.86914 21.6943 6.01562Q21.7188 6.16211 21.8359 6.28906Q22.4316 6.8457 22.7197 7.6416Q23.0078 8.4375 23.0078 9.31641Q23.0078 10.1953 22.7197 10.9912Q22.4316 11.7871 21.8359 12.3438Q21.7188 12.4609 21.6943 12.6123Q21.6699 12.7637 21.7773 12.8809ZM7.67578 12.5781Q7.67578 13.6914 8.06152 14.4385Q8.44727 15.1855 9.24805 15.6348Q9.59961 15.8301 9.77051 16.0205Q9.94141 16.2109 10.0879 16.6113L10.5078 17.959Q10.7129 18.6426 11.4355 18.6426L15.5176 18.6426Q16.2598 18.6426 16.4453 17.959L16.8848 16.6113Q17.002 16.2109 17.1777 16.0205Q17.3535 15.8301 17.7051 15.6348Q18.5059 15.1855 18.8916 14.4385Q19.2773 13.6914 19.2773 12.5781L19.2773 6.07422Q19.2773 4.95117 18.8916 4.20898Q18.5059 3.4668 17.7051 3.00781Q17.3535 2.82227 17.1777 2.63184Q17.002 2.44141 16.8848 2.04102L16.4453 0.683594Q16.2598 0.00976562 15.5176 0.00976562L11.4355 0.00976562Q10.7129 0.00976562 10.5078 0.683594L10.0879 2.04102Q9.95117 2.44141 9.77539 2.63184Q9.59961 2.82227 9.24805 3.00781Q8.45703 3.45703 8.06641 4.2041Q7.67578 4.95117 7.67578 6.07422ZM8.36914 12.5195L8.36914 6.14258Q8.36914 4.79492 9.12109 4.0332Q9.87305 3.27148 11.2207 3.27148L15.7422 3.27148Q17.0801 3.27148 17.832 4.0332Q18.584 4.79492 18.584 6.14258L18.584 12.5195Q18.584 13.8574 17.832 14.6191Q17.0801 15.3809 15.7422 15.3809L11.2207 15.3809Q9.87305 15.3809 9.12109 14.6191Q8.36914 13.8574 8.36914 12.5195ZM18.9746 8.75L19.3945 8.75Q19.707 8.75 19.8926 8.54492Q20.0781 8.33984 20.0781 7.99805L20.0781 6.60156Q20.0781 6.2793 19.8926 6.07422Q19.707 5.86914 19.3945 5.86914L18.9746 5.86914Z" fill="#000000"/>
 </g>
</svg>
