<?xml version="1.0" encoding="UTF-8"?>
<!--Generator: Apple Native CoreSVG 175-->
<!DOCTYPE svg
PUBLIC "-//W3C//DTD SVG 1.1//EN"
       "http://www.w3.org/Graphics/SVG/1.1/DTD/svg11.dtd">
<svg version="1.1" xmlns="http://www.w3.org/2000/svg" xmlns:xlink="http://www.w3.org/1999/xlink" width="9.31641" height="21.3379">
 <g>
  <rect height="21.3379" opacity="0" width="9.31641" x="0" y="0"/>
  <path d="M0 19.3945Q0 20.332 0.507812 20.835Q1.01562 21.3379 1.96289 21.3379L7.34375 21.3379Q8.30078 21.3379 8.80859 20.835Q9.31641 20.332 9.31641 19.3945L9.31641 1.94336Q9.31641 1.00586 8.80859 0.50293Q8.30078 0 7.34375 0L1.96289 0Q1.01562 0 0.507812 0.50293Q0 1.00586 0 1.94336ZM4.64844 12.627Q4.12109 12.627 3.75 12.2607Q3.37891 11.8945 3.37891 11.3867Q3.37891 10.8594 3.75 10.4883Q4.12109 10.1172 4.64844 10.1172Q5.16602 10.1172 5.53223 10.4883Q5.89844 10.8594 5.89844 11.3867Q5.89844 11.8945 5.53223 12.2607Q5.16602 12.627 4.64844 12.627ZM4.64844 8.85742Q3.76953 8.85742 3.04199 8.41797Q2.31445 7.97852 1.88477 7.25098Q1.45508 6.52344 1.45508 5.64453Q1.45508 4.75586 1.88477 4.02832Q2.31445 3.30078 3.04199 2.87109Q3.76953 2.44141 4.64844 2.44141Q5.53711 2.44141 6.26953 2.87109Q7.00195 3.30078 7.43164 4.02832Q7.86133 4.75586 7.86133 5.64453Q7.86133 6.52344 7.43164 7.25098Q7.00195 7.97852 6.26953 8.41797Q5.53711 8.85742 4.64844 8.85742ZM4.6582 6.94336Q5.20508 6.94336 5.58105 6.5625Q5.95703 6.18164 5.95703 5.64453Q5.95703 5.09766 5.58105 4.72168Q5.20508 4.3457 4.6582 4.3457Q4.13086 4.3457 3.75 4.72168Q3.36914 5.09766 3.36914 5.64453Q3.36914 6.18164 3.75 6.5625Q4.13086 6.94336 4.6582 6.94336Z" fill="#007aff"/>
 </g>
</svg>
