<?xml version="1.0" encoding="UTF-8"?>
<!--Generator: Apple Native CoreSVG 175-->
<!DOCTYPE svg
PUBLIC "-//W3C//DTD SVG 1.1//EN"
       "http://www.w3.org/Graphics/SVG/1.1/DTD/svg11.dtd">
<svg version="1.1" xmlns="http://www.w3.org/2000/svg" xmlns:xlink="http://www.w3.org/1999/xlink" width="19.622" height="22.6013">
 <g>
  <rect height="22.6013" opacity="0" width="19.622" x="0" y="0"/>
  <path d="M9.82697 1.56418Q10.161 1.56418 10.3837 1.34361Q10.6064 1.12305 10.6064 0.789185Q10.6064 0.457916 10.3823 0.228958Q10.1582 0 9.82697 0Q9.51263 0 9.2823 0.228958Q9.05197 0.457916 9.05197 0.789185Q9.05197 1.11328 9.27742 1.33873Q9.50287 1.56418 9.82697 1.56418ZM5.29968 4.17938Q5.64072 4.17938 5.86121 3.95538Q6.0817 3.73138 6.0817 3.39035Q6.0817 3.0661 5.85632 2.83714Q5.63095 2.60818 5.29968 2.60818Q4.9852 2.60818 4.75494 2.84203Q4.52469 3.07587 4.52469 3.39035Q4.52469 3.72162 4.75006 3.9505Q4.97543 4.17938 5.29968 4.17938ZM14.3517 4.17938Q14.6857 4.17938 14.9097 3.95538Q15.1337 3.73138 15.1337 3.39035Q15.1337 3.0661 14.9048 2.83714Q14.6759 2.60818 14.3517 2.60818Q14.0372 2.60818 13.8034 2.84203Q13.5696 3.07587 13.5696 3.39035Q13.5696 3.72162 13.7985 3.9505Q14.0274 4.17938 14.3517 4.17938ZM0.782166 6.81961Q1.11603 6.81961 1.33522 6.59912Q1.55441 6.37863 1.55441 6.0376Q1.55441 5.71335 1.33034 5.48935Q1.10626 5.26535 0.782166 5.26535Q0.450897 5.26535 0.225449 5.49072Q0 5.71609 0 6.0376Q0 6.36887 0.225449 6.59424Q0.450897 6.81961 0.782166 6.81961ZM9.82697 7.13882Q10.2907 7.13882 10.6081 6.82137Q10.9254 6.50391 10.9254 6.0376Q10.9254 5.59067 10.6046 5.26489Q10.2837 4.93912 9.82697 4.93912Q9.38019 4.93912 9.05304 5.26489Q8.72589 5.59067 8.72589 6.0376Q8.72589 6.49414 9.05167 6.81648Q9.37744 7.13882 9.82697 7.13882ZM18.8399 6.81961Q19.1739 6.81961 19.398 6.59912Q19.622 6.37863 19.622 6.0376Q19.622 5.70633 19.3966 5.48584Q19.1711 5.26535 18.8399 5.26535Q18.5255 5.26535 18.2917 5.49423Q18.0579 5.72311 18.0579 6.0376Q18.0579 6.36887 18.2868 6.59424Q18.5158 6.81961 18.8399 6.81961ZM5.29968 9.76654Q5.77316 9.76654 6.08704 9.44565Q6.40091 9.12476 6.40091 8.65829Q6.40091 8.2016 6.07864 7.87933Q5.75638 7.55707 5.29968 7.55707Q4.85977 7.55707 4.53049 7.88422Q4.2012 8.21136 4.2012 8.65829Q4.2012 9.11499 4.52209 9.44077Q4.84299 9.76654 5.29968 9.76654ZM14.3517 9.76654Q14.8251 9.76654 15.139 9.44565Q15.4529 9.12476 15.4529 8.65829Q15.4529 8.2016 15.1306 7.87933Q14.8083 7.55707 14.3517 7.55707Q13.9047 7.55707 13.5789 7.88422Q13.2532 8.21136 13.2532 8.65829Q13.2532 9.11499 13.5706 9.44077Q13.8879 9.76654 14.3517 9.76654ZM0.782166 12.0708Q1.11328 12.0708 1.33385 11.8489Q1.55441 11.627 1.55441 11.2958Q1.55441 10.9715 1.33034 10.7426Q1.10626 10.5138 0.782166 10.5138Q0.450897 10.5138 0.225449 10.7391Q0 10.9645 0 11.2958Q0 11.62 0.225449 11.8454Q0.450897 12.0708 0.782166 12.0708ZM9.82697 12.5961Q10.3673 12.5961 10.7474 12.2174Q11.1275 11.8387 11.1275 11.2958Q11.1275 10.938 10.9486 10.6442Q10.7697 10.3505 10.4772 10.173Q10.1848 9.99542 9.82697 9.99542Q9.46915 9.99542 9.17679 10.1743Q8.88443 10.3532 8.70552 10.647Q8.52661 10.9407 8.52661 11.2958Q8.52661 11.6536 8.70415 11.946Q8.88168 12.2383 9.179 12.4172Q9.47632 12.5961 9.82697 12.5961ZM18.8399 12.0708Q19.1739 12.0708 19.398 11.8503Q19.622 11.6298 19.622 11.2958Q19.622 10.9575 19.3966 10.7356Q19.1711 10.5138 18.8399 10.5138Q18.5255 10.5138 18.2917 10.744Q18.0579 10.9743 18.0579 11.2958Q18.0579 11.62 18.2868 11.8454Q18.5158 12.0708 18.8399 12.0708ZM5.29968 15.0345Q5.76614 15.0345 6.08353 14.7136Q6.40091 14.3927 6.40091 13.9333Q6.40091 13.4695 6.07864 13.1473Q5.75638 12.825 5.29968 12.825Q4.85275 12.825 4.52698 13.1522Q4.2012 13.4793 4.2012 13.9333Q4.2012 14.39 4.5256 14.7122Q4.85001 15.0345 5.29968 15.0345ZM14.3517 15.0345Q14.8181 15.0345 15.1355 14.7136Q15.4529 14.3927 15.4529 13.9333Q15.4529 13.4695 15.1306 13.1473Q14.8083 12.825 14.3517 12.825Q13.8977 12.825 13.5754 13.1522Q13.2532 13.4793 13.2532 13.9333Q13.2532 14.39 13.5741 14.7122Q13.895 15.0345 14.3517 15.0345ZM0.782166 17.3262Q1.11603 17.3262 1.33522 17.1057Q1.55441 16.8852 1.55441 16.5442Q1.55441 16.2199 1.33034 15.9959Q1.10626 15.7719 0.782166 15.7719Q0.460663 15.7719 0.230331 16.0008Q0 16.2297 0 16.5442Q0 16.8852 0.220566 17.1057Q0.441132 17.3262 0.782166 17.3262ZM9.82697 17.6454Q10.2907 17.6454 10.6081 17.328Q10.9254 17.0107 10.9254 16.5442Q10.9254 16.0974 10.6046 15.7716Q10.2837 15.4457 9.82697 15.4457Q9.38721 15.4457 9.05655 15.7764Q8.72589 16.1072 8.72589 16.5442Q8.72589 17.0079 9.04816 17.3267Q9.37042 17.6454 9.82697 17.6454ZM18.8399 17.3262Q19.1809 17.3262 19.4015 17.1106Q19.622 16.895 19.622 16.5442Q19.622 16.2199 19.3931 15.9959Q19.1641 15.7719 18.8399 15.7719Q18.5255 15.7719 18.2917 16.0008Q18.0579 16.2297 18.0579 16.5442Q18.0579 16.8782 18.2868 17.1022Q18.5158 17.3262 18.8399 17.3262ZM5.29968 19.9736Q5.64072 19.9736 5.86121 19.7544Q6.0817 19.5352 6.0817 19.2012Q6.0817 18.8699 5.85632 18.6411Q5.63095 18.4122 5.29968 18.4122Q4.9852 18.4122 4.75494 18.6411Q4.52469 18.8699 4.52469 19.2012Q4.52469 19.5255 4.75006 19.7495Q4.97543 19.9736 5.29968 19.9736ZM14.3517 19.9736Q14.6857 19.9736 14.9097 19.7544Q15.1337 19.5352 15.1337 19.2012Q15.1337 18.8699 14.9048 18.6411Q14.6759 18.4122 14.3517 18.4122Q14.0372 18.4122 13.8034 18.6411Q13.5696 18.8699 13.5696 19.2012Q13.5696 19.5255 13.7985 19.7495Q14.0274 19.9736 14.3517 19.9736ZM9.82697 22.5916Q10.161 22.5916 10.3837 22.3675Q10.6064 22.1434 10.6064 21.8024Q10.6064 21.4783 10.3823 21.2493Q10.1582 21.0204 9.82697 21.0204Q9.51263 21.0204 9.2823 21.2542Q9.05197 21.488 9.05197 21.8024Q9.05197 22.1336 9.27742 22.3626Q9.50287 22.5916 9.82697 22.5916Z" fill="#000000"/>
 </g>
</svg>
