<?xml version="1.0" encoding="UTF-8"?>
<!--Generator: Apple Native CoreSVG 175.5-->
<!DOCTYPE svg
PUBLIC "-//W3C//DTD SVG 1.1//EN"
       "http://www.w3.org/Graphics/SVG/1.1/DTD/svg11.dtd">
<svg version="1.1" xmlns="http://www.w3.org/2000/svg" xmlns:xlink="http://www.w3.org/1999/xlink" width="20.6836" height="23.7402">
 <g>
  <rect height="23.7402" opacity="0" width="20.6836" x="0" y="0"/>
  <path d="M10.3613 13.4961Q11.0352 13.4961 11.5137 13.0225Q11.9922 12.5488 11.9922 11.8652Q11.9922 11.416 11.7676 11.0449Q11.543 10.6738 11.1768 10.4541Q10.8105 10.2344 10.3613 10.2344Q9.91211 10.2344 9.5459 10.459Q9.17969 10.6836 8.95508 11.0547Q8.73047 11.4258 8.73047 11.8652Q8.73047 12.3145 8.9502 12.6807Q9.16992 13.0469 9.54102 13.2715Q9.91211 13.4961 10.3613 13.4961Z" fill="#007aff"/>
  <path d="M10.3613 7.8418Q10.9375 7.8418 11.3428 7.43652Q11.748 7.03125 11.748 6.44531Q11.748 5.87891 11.3428 5.46875Q10.9375 5.05859 10.3613 5.05859Q9.79492 5.05859 9.37988 5.46875Q8.96484 5.87891 8.96484 6.44531Q8.96484 7.02148 9.375 7.43164Q9.78516 7.8418 10.3613 7.8418ZM5.69336 10.5469Q6.2793 10.5469 6.68457 10.1416Q7.08984 9.73633 7.08984 9.15039Q7.08984 8.57422 6.67969 8.16406Q6.26953 7.75391 5.69336 7.75391Q5.12695 7.75391 4.7168 8.16895Q4.30664 8.58398 4.30664 9.15039Q4.30664 9.72656 4.71191 10.1367Q5.11719 10.5469 5.69336 10.5469ZM15.0195 10.5469Q15.6055 10.5469 16.0107 10.1416Q16.416 9.73633 16.416 9.15039Q16.416 8.57422 16.0059 8.16406Q15.5957 7.75391 15.0195 7.75391Q14.4531 7.75391 14.043 8.16895Q13.6328 8.58398 13.6328 9.15039Q13.6328 9.72656 14.0381 10.1367Q14.4434 10.5469 15.0195 10.5469ZM5.69336 15.9766Q6.2793 15.9766 6.68457 15.5713Q7.08984 15.166 7.08984 14.5801Q7.08984 14.0039 6.67969 13.5938Q6.26953 13.1836 5.69336 13.1836Q5.12695 13.1836 4.7168 13.5986Q4.30664 14.0137 4.30664 14.5801Q4.30664 15.1562 4.71191 15.5664Q5.11719 15.9766 5.69336 15.9766ZM15.0195 15.9766Q15.6055 15.9766 16.0107 15.5713Q16.416 15.166 16.416 14.5801Q16.416 14.0039 16.0059 13.5938Q15.5957 13.1836 15.0195 13.1836Q14.4531 13.1836 14.043 13.5986Q13.6328 14.0137 13.6328 14.5801Q13.6328 15.1562 14.0381 15.5664Q14.4434 15.9766 15.0195 15.9766ZM10.3613 18.6719Q10.9375 18.6719 11.3428 18.2666Q11.748 17.8613 11.748 17.2754Q11.748 16.709 11.3428 16.2988Q10.9375 15.8887 10.3613 15.8887Q9.79492 15.8887 9.37988 16.3037Q8.96484 16.7188 8.96484 17.2754Q8.96484 17.8516 9.375 18.2617Q9.78516 18.6719 10.3613 18.6719Z" fill="#007aff"/>
  <path d="M10.3613 2.07031Q10.8008 2.07031 11.0938 1.77246Q11.3867 1.47461 11.3867 1.03516Q11.3867 0.605469 11.0889 0.302734Q10.791 0 10.3613 0Q9.94141 0 9.63379 0.302734Q9.32617 0.605469 9.32617 1.03516Q9.32617 1.46484 9.62891 1.76758Q9.93164 2.07031 10.3613 2.07031ZM5.69336 4.75586Q6.13281 4.75586 6.43066 4.45801Q6.72852 4.16016 6.72852 3.7207Q6.72852 3.29102 6.42578 2.98828Q6.12305 2.68555 5.69336 2.68555Q5.27344 2.68555 4.96582 2.99316Q4.6582 3.30078 4.6582 3.7207Q4.6582 4.15039 4.96094 4.45312Q5.26367 4.75586 5.69336 4.75586ZM15.0195 4.75586Q15.459 4.75586 15.7568 4.45801Q16.0547 4.16016 16.0547 3.7207Q16.0547 3.29102 15.752 2.98828Q15.4492 2.68555 15.0195 2.68555Q14.5996 2.68555 14.292 2.99316Q13.9844 3.30078 13.9844 3.7207Q13.9844 4.15039 14.2871 4.45312Q14.5898 4.75586 15.0195 4.75586ZM1.03516 7.48047Q1.47461 7.48047 1.76758 7.18262Q2.06055 6.88477 2.06055 6.44531Q2.06055 6.01562 1.7627 5.71777Q1.46484 5.41992 1.03516 5.41992Q0.605469 5.41992 0.302734 5.72266Q0 6.02539 0 6.44531Q0 6.875 0.302734 7.17773Q0.605469 7.48047 1.03516 7.48047ZM19.6484 7.48047Q20.0879 7.48047 20.3857 7.18262Q20.6836 6.88477 20.6836 6.44531Q20.6836 6.01562 20.3809 5.71777Q20.0781 5.41992 19.6484 5.41992Q19.2285 5.41992 18.9209 5.72266Q18.6133 6.02539 18.6133 6.44531Q18.6133 6.875 18.916 7.17773Q19.2188 7.48047 19.6484 7.48047ZM1.03516 12.9004Q1.46484 12.9004 1.7627 12.5977Q2.06055 12.2949 2.06055 11.8652Q2.06055 11.4355 1.7627 11.1328Q1.46484 10.8301 1.03516 10.8301Q0.605469 10.8301 0.302734 11.1328Q0 11.4355 0 11.8652Q0 12.2949 0.302734 12.5977Q0.605469 12.9004 1.03516 12.9004ZM19.6484 12.9004Q20.0879 12.9004 20.3857 12.6025Q20.6836 12.3047 20.6836 11.8652Q20.6836 11.4355 20.3809 11.1328Q20.0781 10.8301 19.6484 10.8301Q19.2285 10.8301 18.9209 11.1377Q18.6133 11.4453 18.6133 11.8652Q18.6133 12.2949 18.916 12.5977Q19.2188 12.9004 19.6484 12.9004ZM1.03516 18.3105Q1.47461 18.3105 1.76758 18.0127Q2.06055 17.7148 2.06055 17.2754Q2.06055 16.8457 1.7627 16.5479Q1.46484 16.25 1.03516 16.25Q0.615234 16.25 0.307617 16.5527Q0 16.8555 0 17.2754Q0 17.7148 0.297852 18.0127Q0.595703 18.3105 1.03516 18.3105ZM19.6484 18.3105Q20.0879 18.3105 20.3857 18.0176Q20.6836 17.7246 20.6836 17.2754Q20.6836 16.8457 20.3809 16.5479Q20.0781 16.25 19.6484 16.25Q19.2285 16.25 18.9209 16.5527Q18.6133 16.8555 18.6133 17.2754Q18.6133 17.7148 18.916 18.0127Q19.2188 18.3105 19.6484 18.3105ZM5.69336 21.0352Q6.13281 21.0352 6.43066 20.7422Q6.72852 20.4492 6.72852 20.0098Q6.72852 19.5801 6.42578 19.2773Q6.12305 18.9746 5.69336 18.9746Q5.27344 18.9746 4.96582 19.2773Q4.6582 19.5801 4.6582 20.0098Q4.6582 20.4395 4.96094 20.7373Q5.26367 21.0352 5.69336 21.0352ZM15.0195 21.0352Q15.459 21.0352 15.7568 20.7422Q16.0547 20.4492 16.0547 20.0098Q16.0547 19.5801 15.752 19.2773Q15.4492 18.9746 15.0195 18.9746Q14.5996 18.9746 14.292 19.2773Q13.9844 19.5801 13.9844 20.0098Q13.9844 20.4395 14.2871 20.7373Q14.5898 21.0352 15.0195 21.0352ZM10.3613 23.7305Q10.8008 23.7305 11.0938 23.4326Q11.3867 23.1348 11.3867 22.6953Q11.3867 22.2656 11.0889 21.9629Q10.791 21.6602 10.3613 21.6602Q9.94141 21.6602 9.63379 21.9678Q9.32617 22.2754 9.32617 22.6953Q9.32617 23.125 9.62891 23.4277Q9.93164 23.7305 10.3613 23.7305Z" fill="#007aff"/>
 </g>
</svg>
