<?xml version="1.0" encoding="UTF-8"?>
<!--Generator: Apple Native CoreSVG 175.5-->
<!DOCTYPE svg
PUBLIC "-//W3C//DTD SVG 1.1//EN"
       "http://www.w3.org/Graphics/SVG/1.1/DTD/svg11.dtd">
<svg version="1.1" xmlns="http://www.w3.org/2000/svg" xmlns:xlink="http://www.w3.org/1999/xlink" width="19.5215" height="17.998">
 <g>
  <rect height="17.998" opacity="0" width="19.5215" x="0" y="0"/>
  <path d="M4.4043 17.998L15.1172 17.998Q16.5625 17.998 17.3145 17.2607Q18.0664 16.5234 18.0664 15.0879L18.0664 4.6582L16.4941 4.6582L16.4941 15.166Q16.4941 15.8203 16.1377 16.1719Q15.7812 16.5234 15.1367 16.5234L4.38477 16.5234Q3.73047 16.5234 3.37891 16.1719Q3.02734 15.8203 3.02734 15.166L3.02734 4.6582L1.45508 4.6582L1.45508 15.0879Q1.45508 16.5332 2.20703 17.2656Q2.95898 17.998 4.4043 17.998ZM6.54297 9.32617L12.9883 9.32617Q13.3008 9.32617 13.4961 9.13086Q13.6914 8.93555 13.6914 8.61328L13.6914 8.30078Q13.6914 7.97852 13.4961 7.78809Q13.3008 7.59766 12.9883 7.59766L6.54297 7.59766Q6.23047 7.59766 6.04004 7.78809Q5.84961 7.97852 5.84961 8.30078L5.84961 8.61328Q5.84961 8.93555 6.04004 9.13086Q6.23047 9.32617 6.54297 9.32617ZM1.85547 5.39062L17.666 5.39062Q18.5645 5.39062 19.043 4.86328Q19.5215 4.33594 19.5215 3.44727L19.5215 1.96289Q19.5215 1.06445 19.043 0.541992Q18.5645 0.0195312 17.666 0.0195312L1.85547 0.0195312Q0.996094 0.0195312 0.498047 0.541992Q0 1.06445 0 1.96289L0 3.44727Q0 4.33594 0.478516 4.86328Q0.957031 5.39062 1.85547 5.39062ZM2.25586 3.91602Q1.88477 3.91602 1.72852 3.75Q1.57227 3.58398 1.57227 3.22266L1.57227 2.1875Q1.57227 1.81641 1.72852 1.65527Q1.88477 1.49414 2.25586 1.49414L17.2754 1.49414Q17.6465 1.49414 17.7979 1.65527Q17.9492 1.81641 17.9492 2.1875L17.9492 3.22266Q17.9492 3.58398 17.7979 3.75Q17.6465 3.91602 17.2754 3.91602Z" fill="#007aff"/>
 </g>
</svg>
