<?xml version="1.0" encoding="UTF-8"?>
<!--Generator: Apple Native CoreSVG 175-->
<!DOCTYPE svg
PUBLIC "-//W3C//DTD SVG 1.1//EN"
       "http://www.w3.org/Graphics/SVG/1.1/DTD/svg11.dtd">
<svg version="1.1" xmlns="http://www.w3.org/2000/svg" xmlns:xlink="http://www.w3.org/1999/xlink" width="15.2559" height="15.8066">
 <g>
  <rect height="15.8066" opacity="0" width="15.2559" x="0" y="0"/>
  <path d="M15.2559 15.0328Q15.2559 14.8523 15.1928 14.6989Q15.1297 14.5456 15.0227 14.3272L8.45352 0.677338Q8.28171 0.33783 8.08792 0.173798Q7.89413 0.00976562 7.63016 0.00976562Q7.36176 0.00976562 7.1666 0.173798Q6.97144 0.33783 6.80237 0.677338L0.237579 14.3272Q0.133209 14.5483 0.0666046 14.7017Q0 14.855 0 15.0356Q0 15.3926 0.243759 15.5996Q0.487518 15.8066 0.911407 15.8066L14.3417 15.8038Q14.7754 15.8038 15.0156 15.5968Q15.2559 15.3899 15.2559 15.0328ZM14.4524 14.8961Q14.4524 15.0781 14.1875 15.0781L1.06567 15.0781Q0.810547 15.0781 0.810547 14.8961Q0.810547 14.8245 0.834427 14.7672Q0.858307 14.7098 0.891876 14.6452L7.34695 1.14258Q7.38754 1.06415 7.45766 0.985565Q7.52777 0.906982 7.63016 0.906982Q7.72537 0.906982 7.79686 0.985565Q7.86835 1.06415 7.90894 1.14258L14.364 14.6452Q14.3948 14.7098 14.4236 14.7672Q14.4524 14.8245 14.4524 14.8961Z" fill="#ffffff"/>
 </g>
</svg>
