<?xml version="1.0" encoding="UTF-8"?>
<!--Generator: Apple Native CoreSVG 175.5-->
<!DOCTYPE svg
PUBLIC "-//W3C//DTD SVG 1.1//EN"
       "http://www.w3.org/Graphics/SVG/1.1/DTD/svg11.dtd">
<svg version="1.1" xmlns="http://www.w3.org/2000/svg" xmlns:xlink="http://www.w3.org/1999/xlink" width="24.9418" height="20.9473">
 <g>
  <rect height="20.9473" opacity="0" width="24.9418" x="0" y="0"/>
  <path d="M8.516 17.8809Q8.516 19.4141 9.27284 20.1758Q10.0297 20.9375 11.5433 20.9375L21.9144 20.9375Q23.4281 20.9375 24.1849 20.1758Q24.9418 19.4141 24.9418 17.8809L24.9418 3.06641Q24.9418 1.54297 24.1849 0.771484Q23.4281 0 21.9144 0L11.5433 0Q10.0297 0 9.27284 0.771484Q8.516 1.54297 8.516 3.06641ZM10.0883 17.8516L10.0883 3.0957Q10.0883 2.36328 10.4789 1.96777Q10.8695 1.57227 11.6312 1.57227L21.8363 1.57227Q22.598 1.57227 22.9838 1.96777Q23.3695 2.36328 23.3695 3.0957L23.3695 17.8516Q23.3695 18.584 22.9838 18.9746Q22.598 19.3652 21.8363 19.3652L11.6312 19.3652Q10.8695 19.3652 10.4789 18.9746Q10.0883 18.584 10.0883 17.8516Z" fill="#007aff"/>
  <path d="M21.4555 15.127Q21.7191 15.127 21.8949 14.9805Q22.0707 14.834 22.0707 14.5508L22.0707 5.625Q22.0707 5.33203 21.8949 5.19043Q21.7191 5.04883 21.4555 5.04883Q21.0551 5.04883 20.4154 5.35156Q19.7758 5.6543 19.1312 6.2793Q18.4867 6.9043 18.0473 7.85156Q17.6078 8.79883 17.6078 10.0879Q17.6078 11.3672 18.0473 12.3193Q18.4867 13.2715 19.1312 13.8916Q19.7758 14.5117 20.4154 14.8193Q21.0551 15.127 21.4555 15.127ZM14.0726 12.5879Q14.8539 12.5879 15.4789 12.251Q16.1039 11.9141 16.4603 11.3477Q16.8168 10.7812 16.8168 10.0879Q16.807 9.39453 16.4506 8.82324Q16.0941 8.25195 15.474 7.91504Q14.8539 7.57812 14.0726 7.57812Q13.3402 7.57812 12.7299 7.91504Q12.1195 8.25195 11.7582 8.82324Q11.3969 9.39453 11.3969 10.0879Q11.3969 10.7812 11.7582 11.3477Q12.1195 11.9141 12.7299 12.251Q13.3402 12.5879 14.0726 12.5879Z" fill="#007aff"/>
  <path d="M0.234751 8.81836Q-0.00939002 9.0918 0.000375601 9.39453Q0.0101412 9.69727 0.220102 9.90234Q0.430063 10.1074 0.791391 10.1074L2.45155 10.1074L2.45155 14.3848Q2.45155 14.707 2.67127 14.9268Q2.891 15.1465 3.22303 15.1465Q3.53553 15.1465 3.75526 14.9268Q3.97498 14.707 3.97498 14.3848L3.97498 10.1074L5.61561 10.1074Q6.00623 10.1074 6.21131 9.89258Q6.41639 9.67773 6.41639 9.37988Q6.41639 9.08203 6.18202 8.81836L3.76014 6.08398Q3.516 5.81055 3.20838 5.80566Q2.90077 5.80078 2.64686 6.08398Z" fill="#007aff"/>
 </g>
</svg>
