<?xml version="1.0" encoding="UTF-8"?>
<!--Generator: Apple Native CoreSVG 175.5-->
<!DOCTYPE svg
PUBLIC "-//W3C//DTD SVG 1.1//EN"
       "http://www.w3.org/Graphics/SVG/1.1/DTD/svg11.dtd">
<svg version="1.1" xmlns="http://www.w3.org/2000/svg" xmlns:xlink="http://www.w3.org/1999/xlink" width="19.9707" height="24.5996">
 <g>
  <rect height="24.5996" opacity="0" width="19.9707" x="0" y="0"/>
  <path d="M4.73633 5.78125L12.2363 5.78125Q12.793 5.78125 13.3105 6.02539Q13.8281 6.26953 14.1553 6.77734Q14.4824 7.28516 14.4824 8.08594L14.4824 19.6973L16.9434 19.6973Q18.457 19.6973 19.2139 18.9258Q19.9707 18.1543 19.9707 16.6309L19.9707 3.06641Q19.9707 1.54297 19.2139 0.771484Q18.457 0 16.9434 0L7.76367 0Q6.25 0 5.49316 0.766602Q4.73633 1.5332 4.73633 3.06641ZM9.3457 2.77344L9.3457 2.56836Q9.3457 2.34375 9.49707 2.16797Q9.64844 1.99219 9.9707 1.99219L14.7363 1.99219Q15.0488 1.99219 15.2051 2.16797Q15.3613 2.34375 15.3613 2.56836L15.3613 2.77344Q15.3613 2.99805 15.2051 3.17383Q15.0488 3.34961 14.7363 3.34961L9.9707 3.34961Q9.64844 3.34961 9.49707 3.17383Q9.3457 2.99805 9.3457 2.77344Z" fill="#007aff"/>
  <path d="M0 21.5039Q0 23.0371 0.756836 23.8037Q1.51367 24.5703 3.02734 24.5703L12.207 24.5703Q13.7207 24.5703 14.4775 23.7988Q15.2344 23.0273 15.2344 21.5039L15.2344 7.93945Q15.2344 6.41602 14.4775 5.64453Q13.7207 4.87305 12.207 4.87305L3.02734 4.87305Q1.51367 4.87305 0.756836 5.63965Q0 6.40625 0 7.93945ZM1.57227 21.4746L1.57227 7.95898Q1.57227 7.23633 1.95801 6.84082Q2.34375 6.44531 3.0957 6.44531L12.1289 6.44531Q12.8809 6.44531 13.2715 6.84082Q13.6621 7.23633 13.6621 7.95898L13.6621 21.4746Q13.6621 22.207 13.2715 22.6025Q12.8809 22.998 12.1289 22.998L3.0957 22.998Q2.34375 22.998 1.95801 22.6025Q1.57227 22.207 1.57227 21.4746ZM7.61719 18.9453Q7.89062 18.9453 8.06152 18.7744Q8.23242 18.6035 8.23242 18.3301L8.23242 14.1016L8.17383 12.3535L9.0332 13.3789L9.98047 14.3262Q10.1465 14.5117 10.4102 14.5117Q10.6641 14.5117 10.8398 14.3457Q11.0156 14.1797 11.0156 13.916Q11.0156 13.6719 10.8398 13.4961L8.0957 10.7617Q7.86133 10.5176 7.61719 10.5176Q7.38281 10.5176 7.14844 10.7617L4.39453 13.4961Q4.22852 13.6621 4.22852 13.916Q4.22852 14.1797 4.39941 14.3457Q4.57031 14.5117 4.82422 14.5117Q5.06836 14.5117 5.25391 14.3262L6.21094 13.3789L7.07031 12.3535L7.00195 14.1016L7.00195 18.3301Q7.00195 18.5938 7.17285 18.7695Q7.34375 18.9453 7.61719 18.9453Z" fill="#007aff"/>
 </g>
</svg>
