<?xml version="1.0" encoding="UTF-8"?>
<!--Generator: Apple Native CoreSVG 175-->
<!DOCTYPE svg
PUBLIC "-//W3C//DTD SVG 1.1//EN"
       "http://www.w3.org/Graphics/SVG/1.1/DTD/svg11.dtd">
<svg version="1.1" xmlns="http://www.w3.org/2000/svg" xmlns:xlink="http://www.w3.org/1999/xlink" width="19.1602" height="19.3652">
 <g>
  <rect height="19.3652" opacity="0" width="19.1602" x="0" y="0"/>
  <path d="M9.57031 19.1406Q11.5527 19.1406 13.2861 18.3984Q15.0195 17.6562 16.3379 16.333Q17.6562 15.0098 18.4082 13.2764Q19.1602 11.543 19.1602 9.57031Q19.1602 7.59766 18.4082 5.86426Q17.6562 4.13086 16.3379 2.80762Q15.0195 1.48438 13.2861 0.742188Q11.5527 0 9.57031 0Q7.59766 0 5.86426 0.742188Q4.13086 1.48438 2.81738 2.80762Q1.50391 4.13086 0.751953 5.86426Q0 7.59766 0 9.57031Q0 11.543 0.74707 13.2764Q1.49414 15.0098 2.8125 16.333Q4.13086 17.6562 5.86914 18.3984Q7.60742 19.1406 9.57031 19.1406Z" fill="#007aff"/>
  <path d="M14.082 10.6641Q14.082 11.6504 13.6426 12.3828Q13.2031 13.1152 12.417 13.5254Q11.6309 13.9355 10.5957 13.9355L9.10156 13.9355Q8.94531 13.9355 8.83789 13.8379Q8.73047 13.7402 8.73047 13.5742Q8.73047 13.418 8.83789 13.3252Q8.94531 13.2324 9.0918 13.2324L10.5957 13.2324Q11.8457 13.2324 12.6074 12.5244Q13.3691 11.8164 13.3691 10.6641Q13.3691 9.53125 12.6074 8.82812Q11.8457 8.125 10.5957 8.125L7.00195 8.125L6.05469 8.10547L6.48438 8.4375L8.20312 10.127Q8.33008 10.2734 8.33008 10.4199Q8.33008 10.5762 8.23242 10.6836Q8.13477 10.791 7.96875 10.791Q7.83203 10.791 7.69531 10.6738L5.20508 8.13477Q5.05859 7.96875 5.05859 7.7832Q5.05859 7.57812 5.20508 7.42188L7.69531 4.88281Q7.82227 4.78516 7.96875 4.78516Q8.13477 4.78516 8.23242 4.89258Q8.33008 5 8.33008 5.14648Q8.33008 5.30273 8.20312 5.42969L6.52344 7.08008L6.05469 7.46094L7.00195 7.43164L10.5957 7.43164Q11.6309 7.43164 12.417 7.83203Q13.2031 8.23242 13.6426 8.95996Q14.082 9.6875 14.082 10.6641Z" fill="#ffffff"/>
 </g>
</svg>
