<?xml version="1.0" encoding="UTF-8"?>
<!--Generator: Apple Native CoreSVG 175-->
<!DOCTYPE svg
PUBLIC "-//W3C//DTD SVG 1.1//EN"
       "http://www.w3.org/Graphics/SVG/1.1/DTD/svg11.dtd">
<svg version="1.1" xmlns="http://www.w3.org/2000/svg" xmlns:xlink="http://www.w3.org/1999/xlink" width="17.2852" height="17.3145">
 <g>
  <rect height="17.3145" opacity="0" width="17.2852" x="0" y="0"/>
  <path d="M2.62695 17.3145L14.6484 17.3145Q15.957 17.3145 16.6211 16.6455Q17.2852 15.9766 17.2852 14.6875L17.2852 2.65625Q17.2852 1.37695 16.6211 0.703125Q15.957 0.0292969 14.6484 0.0292969L2.62695 0.0292969Q1.33789 0.0292969 0.668945 0.693359Q0 1.35742 0 2.65625L0 14.6875Q0 15.9863 0.668945 16.6504Q1.33789 17.3145 2.62695 17.3145ZM13.1543 9.74609Q13.1543 10.7324 12.7148 11.4648Q12.2754 12.1973 11.4893 12.6074Q10.7031 13.0176 9.66797 13.0176L8.17383 13.0176Q8.01758 13.0176 7.91016 12.9199Q7.80273 12.8223 7.80273 12.6562Q7.80273 12.5 7.91016 12.4072Q8.01758 12.3145 8.16406 12.3145L9.66797 12.3145Q10.918 12.3145 11.6797 11.6064Q12.4414 10.8984 12.4414 9.74609Q12.4414 8.61328 11.6797 7.91016Q10.918 7.20703 9.66797 7.20703L6.07422 7.20703L5.12695 7.1875L5.55664 7.51953L7.27539 9.20898Q7.40234 9.35547 7.40234 9.50195Q7.40234 9.6582 7.30469 9.76562Q7.20703 9.87305 7.04102 9.87305Q6.9043 9.87305 6.76758 9.75586L4.27734 7.2168Q4.13086 7.05078 4.13086 6.86523Q4.13086 6.66016 4.27734 6.50391L6.76758 3.96484Q6.89453 3.86719 7.04102 3.86719Q7.20703 3.86719 7.30469 3.97461Q7.40234 4.08203 7.40234 4.22852Q7.40234 4.38477 7.27539 4.51172L5.5957 6.16211L5.12695 6.54297L6.07422 6.51367L9.66797 6.51367Q10.7031 6.51367 11.4893 6.91406Q12.2754 7.31445 12.7148 8.04199Q13.1543 8.76953 13.1543 9.74609Z" fill="#000000"/>
 </g>
</svg>
