<?xml version="1.0" encoding="UTF-8"?>
<!--Generator: Apple Native CoreSVG 175-->
<!DOCTYPE svg
PUBLIC "-//W3C//DTD SVG 1.1//EN"
       "http://www.w3.org/Graphics/SVG/1.1/DTD/svg11.dtd">
<svg version="1.1" xmlns="http://www.w3.org/2000/svg" xmlns:xlink="http://www.w3.org/1999/xlink" width="19.1602" height="19.1504">
 <g>
  <rect height="19.1504" opacity="0" width="19.1602" x="0" y="0"/>
  <path d="M9.57031 19.1406Q11.5527 19.1406 13.2861 18.3984Q15.0195 17.6562 16.3379 16.333Q17.6562 15.0098 18.4082 13.2764Q19.1602 11.543 19.1602 9.57031Q19.1602 7.59766 18.4082 5.86426Q17.6562 4.13086 16.3379 2.80762Q15.0195 1.48438 13.2861 0.742188Q11.5527 0 9.57031 0Q7.59766 0 5.86426 0.742188Q4.13086 1.48438 2.81738 2.80762Q1.50391 4.13086 0.751953 5.86426Q0 7.59766 0 9.57031Q0 11.543 0.74707 13.2764Q1.49414 15.0098 2.8125 16.333Q4.13086 17.6562 5.86914 18.3984Q7.60742 19.1406 9.57031 19.1406Z" fill="#ffffff"/>
  <path d="M4.52148 9.55078Q4.52148 9.41406 4.64844 9.29688L8.37891 5.56641Q8.48633 5.45898 8.63281 5.45898Q8.78906 5.45898 8.87695 5.55176Q8.96484 5.64453 8.96484 5.78125Q8.96484 5.92773 8.83789 6.05469L6.89453 7.99805L5.63477 9.23828L7.11914 9.18945L14.2773 9.18945Q14.4336 9.18945 14.541 9.29199Q14.6484 9.39453 14.6484 9.57031Q14.6484 9.7168 14.5459 9.81934Q14.4434 9.92188 14.2773 9.92188L7.11914 9.92188L5.64453 9.88281L6.89453 11.1133L8.83789 13.0566Q8.96484 13.1836 8.96484 13.3301Q8.96484 13.4668 8.87695 13.5645Q8.78906 13.6621 8.63281 13.6621Q8.48633 13.6621 8.37891 13.5547L4.64844 9.82422Q4.52148 9.70703 4.52148 9.55078Z" fill="#ffffff"/>
 </g>
</svg>
