<?xml version="1.0" encoding="UTF-8"?>
<!--Generator: Apple Native CoreSVG 175-->
<!DOCTYPE svg
PUBLIC "-//W3C//DTD SVG 1.1//EN"
       "http://www.w3.org/Graphics/SVG/1.1/DTD/svg11.dtd">
<svg version="1.1" xmlns="http://www.w3.org/2000/svg" xmlns:xlink="http://www.w3.org/1999/xlink" width="24.547" height="17.048">
 <g>
  <rect height="17.048" opacity="0" width="24.547" x="0" y="0"/>
  <path d="M13.4833 17.0383Q13.8266 17.0383 14.0118 16.8144Q14.1969 16.5906 14.1969 16.2613L14.1969 12.1512L14.6138 12.1512Q16.8457 12.1512 18.5012 12.582Q20.1567 13.0128 21.2981 13.9584Q22.4396 14.9039 23.1274 16.4633Q23.2759 16.7914 23.4597 16.9148Q23.6435 17.0383 23.8857 17.0383Q24.1568 17.0383 24.3519 16.8209Q24.547 16.6035 24.547 16.2289Q24.547 13.3199 23.8577 11.1954Q23.1685 9.07104 21.8726 7.68906Q20.5766 6.30707 18.7413 5.63713Q16.906 4.96719 14.6138 4.96719L14.1969 4.96719L14.1969 0.783539Q14.1969 0.457001 14.0118 0.2285Q13.8266 0 13.4778 0Q13.2431 0 13.0478 0.108414Q12.8525 0.216827 12.6587 0.405121L5.00977 7.52075Q4.64218 7.85461 4.54536 8.08235Q4.44855 8.31009 4.44855 8.51913Q4.44855 8.72543 4.54887 8.95317Q4.6492 9.18091 5.00977 9.51477L12.6587 16.6496Q12.8485 16.8199 13.0485 16.9291Q13.2484 17.0383 13.4833 17.0383ZM13.3063 16.1481Q13.2043 16.1481 13.0531 16.0109L5.53055 9.02115Q5.35248 8.85696 5.29289 8.74275Q5.23331 8.62854 5.23331 8.51913Q5.23331 8.29773 5.53055 8.01712L13.0461 1.00281Q13.1064 0.952301 13.163 0.910339Q13.2196 0.868378 13.2965 0.868378Q13.4755 0.868378 13.4755 1.04721L13.4755 5.40237Q13.4755 5.66833 13.7372 5.66833L14.5255 5.66833Q16.3263 5.66833 17.8009 6.08963Q19.2755 6.51093 20.4071 7.351Q21.5387 8.19107 22.3079 9.43947Q23.0771 10.6879 23.4796 12.333Q23.8821 13.9781 23.8914 16.0229Q23.8914 16.1797 23.7572 16.1797Q23.6926 16.1797 23.6555 16.1201Q23.6185 16.0605 23.5849 15.9766Q22.9454 14.4254 21.7419 13.4195Q20.5383 12.4136 18.7418 11.9318Q16.9453 11.45 14.5255 11.45L13.7372 11.45Q13.4755 11.45 13.4755 11.716L13.4755 15.9523Q13.4755 16.1481 13.3063 16.1481ZM9.03488 17.0383Q9.3782 17.0383 9.56337 16.8144Q9.74854 16.5906 9.74854 16.2613L9.74854 13.2945L9.02695 12.7547L9.02695 15.9523Q9.02695 16.1481 8.85513 16.1481Q8.75595 16.1481 8.60474 16.0109L1.08215 9.02115Q0.903931 8.85696 0.844421 8.74275Q0.784912 8.62854 0.784912 8.51913Q0.784912 8.29773 1.08215 8.01712L8.59772 1.00281Q8.65784 0.952301 8.71452 0.910339Q8.77121 0.868378 8.84811 0.868378Q9.02695 0.868378 9.02695 1.04721L9.02695 4.25705L9.74854 3.71994L9.74854 0.783539Q9.74854 0.457001 9.562 0.2285Q9.37546 0 9.02939 0Q8.79456 0 8.59924 0.108414Q8.40393 0.216827 8.21014 0.405121L0.558624 7.52075Q0.19104 7.85461 0.09552 8.08235Q0 8.31009 0 8.51913Q0 8.72543 0.100403 8.95317Q0.200806 9.18091 0.558624 9.51477L8.21014 16.6496Q8.39737 16.8199 8.59871 16.9291Q8.80005 17.0383 9.03488 17.0383Z" fill="#007aff"/>
 </g>
</svg>
