<?xml version="1.0" encoding="UTF-8"?>
<!--Generator: Apple Native CoreSVG 175-->
<!DOCTYPE svg
PUBLIC "-//W3C//DTD SVG 1.1//EN"
       "http://www.w3.org/Graphics/SVG/1.1/DTD/svg11.dtd">
<svg version="1.1" xmlns="http://www.w3.org/2000/svg" xmlns:xlink="http://www.w3.org/1999/xlink" width="18.5509" height="17.2739">
 <g>
  <rect height="17.2739" opacity="0" width="18.5509" x="0" y="0"/>
  <path d="M9.63364 5.625Q9.63364 5.48401 9.52858 5.37811Q9.42352 5.27222 9.27551 5.27222Q9.12735 5.27222 9.02367 5.37811Q8.91998 5.48401 8.91998 5.625L8.91998 10.5524L8.9505 12.5801L7.10785 10.7082L6.4032 9.97971Q6.36185 9.93561 6.29051 9.90509Q6.21918 9.87457 6.14578 9.87457Q6.00754 9.87457 5.90714 9.9736Q5.80673 10.0726 5.80673 10.2251Q5.80673 10.3558 5.8667 10.4266Q5.92667 10.4973 6.00861 10.5696L9.00986 13.5219Q9.07471 13.584 9.14192 13.6131Q9.20914 13.6421 9.27551 13.6421Q9.34464 13.6421 9.41048 13.6131Q9.47632 13.584 9.54117 13.5219L12.5423 10.5696Q12.6173 10.4973 12.6808 10.4266Q12.7443 10.3558 12.7443 10.2251Q12.7443 10.0726 12.6439 9.9736Q12.5435 9.87457 12.4051 9.87457Q12.3289 9.87457 12.2591 9.90509Q12.1892 9.93561 12.1477 9.97971L11.443 10.7082L9.59351 12.5801L9.63364 10.5524ZM0 5.86838Q0 7.84302 1.12679 9.77722Q2.25357 11.7114 4.24339 13.5558Q6.23322 15.4001 8.81836 17.1086Q8.91846 17.1782 9.0448 17.226Q9.17114 17.2739 9.27551 17.2739Q9.38248 17.2739 9.50531 17.226Q9.62814 17.1782 9.72824 17.1086Q12.3204 15.4001 14.3089 13.5558Q16.2973 11.7114 17.4241 9.77722Q18.5509 7.84302 18.5509 5.86838Q18.5509 4.66797 18.164 3.66623Q17.7771 2.66449 17.0792 1.9297Q16.3814 1.19492 15.4409 0.793381Q14.5004 0.391846 13.3864 0.391846Q12.1063 0.391846 10.9808 1.06483Q9.85519 1.73782 9.27551 2.86484Q8.69156 1.73782 7.56805 1.06483Q6.44455 0.391846 5.16449 0.391846Q4.05319 0.391846 3.11279 0.793381Q2.17239 1.19492 1.47316 1.9297Q0.773926 2.66449 0.386963 3.66623Q0 4.66797 0 5.86838ZM0.728607 5.86838Q0.728607 4.46411 1.30104 3.39401Q1.87347 2.32391 2.87605 1.7186Q3.87863 1.11328 5.159 1.11328Q6.04889 1.11328 6.75789 1.44394Q7.46689 1.7746 7.99889 2.31918Q8.53088 2.86377 8.88565 3.52066Q8.99231 3.69415 9.07761 3.76152Q9.1629 3.82889 9.27551 3.82889Q9.38797 3.82889 9.47197 3.76015Q9.55597 3.69141 9.65836 3.52066Q10.0255 2.86636 10.5589 2.32048Q11.0922 1.7746 11.7971 1.44394Q12.502 1.11328 13.3919 1.11328Q14.6724 1.11328 15.6714 1.7186Q16.6704 2.32391 17.2463 3.39401Q17.8223 4.46411 17.8223 5.86838Q17.8223 7.24686 17.1645 8.64197Q16.5067 10.0371 15.3463 11.3926Q14.1859 12.7481 12.6631 14.0272Q11.1403 15.3062 9.41025 16.4555Q9.31458 16.5234 9.27551 16.5234Q9.23645 16.5234 9.14337 16.4555Q7.41333 15.3062 5.8905 14.0272Q4.36768 12.7481 3.20595 11.3926Q2.04422 10.0371 1.38641 8.64197Q0.728607 7.24686 0.728607 5.86838Z" fill="#007aff"/>
 </g>
</svg>
