<?xml version="1.0" encoding="UTF-8"?>
<!--Generator: Apple Native CoreSVG 175-->
<!DOCTYPE svg
PUBLIC "-//W3C//DTD SVG 1.1//EN"
       "http://www.w3.org/Graphics/SVG/1.1/DTD/svg11.dtd">
<svg version="1.1" xmlns="http://www.w3.org/2000/svg" xmlns:xlink="http://www.w3.org/1999/xlink" width="18.252" height="11.5137">
 <g>
  <rect height="11.5137" opacity="0" width="18.252" x="0" y="0"/>
  <path d="M0 5.74219Q0 5.83008 0.0292969 5.89844Q0.0585938 5.9668 0.117188 6.02539L5.45898 11.3867Q5.57617 11.4941 5.73242 11.4941Q5.89844 11.4941 6.00586 11.3867Q6.11328 11.2793 6.11328 11.123Q6.11328 11.0449 6.08398 10.9717Q6.05469 10.8984 6.00586 10.8496L3.16406 8.02734L1.15234 6.07422L3.26172 6.11328L14.9902 6.11328L17.0996 6.07422L15.0879 8.02734L12.2461 10.8496Q12.1973 10.8984 12.168 10.9717Q12.1387 11.0449 12.1387 11.123Q12.1387 11.2793 12.2461 11.3867Q12.3535 11.4941 12.5195 11.4941Q12.6758 11.4941 12.793 11.3867L18.1348 6.02539Q18.1934 5.9668 18.2227 5.89844Q18.252 5.83008 18.252 5.74219Q18.252 5.66406 18.2227 5.5957Q18.1934 5.52734 18.1348 5.46875L12.793 0.117188Q12.6758 0 12.5195 0Q12.3535 0 12.2461 0.107422Q12.1387 0.214844 12.1387 0.371094Q12.1387 0.458984 12.168 0.527344Q12.1973 0.595703 12.2461 0.634766L15.0879 3.4668L17.0996 5.41992L14.9902 5.38086L3.26172 5.38086L1.15234 5.41992L3.16406 3.4668L6.00586 0.634766Q6.05469 0.595703 6.08398 0.527344Q6.11328 0.458984 6.11328 0.371094Q6.11328 0.214844 6.00586 0.107422Q5.89844 0 5.73242 0Q5.57617 0 5.45898 0.117188L0.117188 5.46875Q0.0585938 5.52734 0.0292969 5.5957Q0 5.66406 0 5.74219Z" fill="#ffffff"/>
 </g>
</svg>
