<?xml version="1.0" encoding="UTF-8"?>
<!--Generator: Apple Native CoreSVG 175.5-->
<!DOCTYPE svg
PUBLIC "-//W3C//DTD SVG 1.1//EN"
       "http://www.w3.org/Graphics/SVG/1.1/DTD/svg11.dtd">
<svg version="1.1" xmlns="http://www.w3.org/2000/svg" xmlns:xlink="http://www.w3.org/1999/xlink" width="15.2441" height="18.4473">
 <g>
  <rect height="18.4473" opacity="0" width="15.2441" x="0" y="0"/>
  <path d="M13.1738 18.4473Q13.5938 18.4473 13.9404 18.4375Q14.2871 18.4277 14.5117 18.3789Q14.6973 18.3398 14.8682 18.2373Q15.0391 18.1348 15.1416 17.9688Q15.2441 17.8027 15.2441 17.5488Q15.2441 17.168 14.9951 16.9434Q14.7461 16.7188 14.375 16.7188Q14.1211 16.7188 13.8623 16.7285Q13.6035 16.7383 13.2617 16.7383Q11.5234 16.7383 10.4199 16.2939Q9.31641 15.8496 8.78906 14.8193Q8.26172 13.7891 8.26172 12.0215L8.27148 5.3418L8.19336 2.68555L10.1465 4.83398L13.3496 8.03711Q13.4668 8.1543 13.6279 8.21289Q13.7891 8.27148 13.9648 8.27148Q14.3262 8.27148 14.5654 8.02734Q14.8047 7.7832 14.8047 7.42188Q14.8047 7.07031 14.541 6.78711L8.05664 0.292969Q7.77344 0 7.40234 0Q7.03125 0 6.74805 0.292969L0.273438 6.78711Q0 7.07031 0 7.42188Q0 7.7832 0.239258 8.02734Q0.478516 8.27148 0.839844 8.27148Q1.01562 8.27148 1.17676 8.21289Q1.33789 8.1543 1.45508 8.03711L4.6582 4.83398L6.60156 2.69531L6.5332 5.3418L6.5332 12.1094Q6.5332 15.5176 8.16406 16.9824Q9.79492 18.4473 13.1738 18.4473Z" fill="#007aff"/>
 </g>
</svg>
