<?xml version="1.0" encoding="UTF-8"?>
<!--Generator: Apple Native CoreSVG 175.5-->
<!DOCTYPE svg
PUBLIC "-//W3C//DTD SVG 1.1//EN"
       "http://www.w3.org/Graphics/SVG/1.1/DTD/svg11.dtd">
<svg version="1.1" xmlns="http://www.w3.org/2000/svg" xmlns:xlink="http://www.w3.org/1999/xlink" width="19.9219" height="20.1465">
 <g>
  <rect height="20.1465" opacity="0" width="19.9219" x="0" y="0"/>
  <path d="M9.96094 19.9219Q12.002 19.9219 13.8037 19.1406Q15.6055 18.3594 16.9824 16.9824Q18.3594 15.6055 19.1406 13.8037Q19.9219 12.002 19.9219 9.96094Q19.9219 7.91992 19.1406 6.11816Q18.3594 4.31641 16.9824 2.93945Q15.6055 1.5625 13.7988 0.78125Q11.9922 0 9.95117 0Q7.91016 0 6.1084 0.78125Q4.30664 1.5625 2.93457 2.93945Q1.5625 4.31641 0.78125 6.11816Q0 7.91992 0 9.96094Q0 12.002 0.78125 13.8037Q1.5625 15.6055 2.93945 16.9824Q4.31641 18.3594 6.11816 19.1406Q7.91992 19.9219 9.96094 19.9219Z" fill="#007aff"/>
  <path d="M4.95117 11.0547Q4.95117 9.95117 5.44434 9.12109Q5.9375 8.29102 6.82129 7.83203Q7.70508 7.37305 8.88672 7.37305L11.7383 7.37305L12.7441 7.42188L12.0801 6.89453L11.0938 5.9375Q10.8691 5.73242 10.8691 5.41992Q10.8691 5.09766 11.0742 4.88281Q11.2793 4.66797 11.5918 4.66797Q11.9141 4.66797 12.1289 4.88281L14.6777 7.4707Q14.9414 7.75391 14.9414 8.0957Q14.9414 8.44727 14.6777 8.71094L12.1191 11.3281Q11.9141 11.543 11.582 11.543Q11.2793 11.543 11.0742 11.3232Q10.8691 11.1035 10.8691 10.791Q10.8691 10.4883 11.0938 10.2539L12.2754 9.11133L12.7344 8.78906L11.7383 8.82812L8.88672 8.82812Q7.76367 8.82812 7.08496 9.44336Q6.40625 10.0586 6.40625 11.0547Q6.40625 12.1387 7.09473 12.7979Q7.7832 13.457 8.89648 13.457L10.2246 13.457Q10.5664 13.457 10.7764 13.6572Q10.9863 13.8574 10.9863 14.1797Q10.9863 14.5117 10.7715 14.7119Q10.5566 14.9121 10.2051 14.9121L8.89648 14.9121Q7.71484 14.9121 6.82617 14.4336Q5.9375 13.9551 5.44434 13.0859Q4.95117 12.2168 4.95117 11.0547Z" fill="#ffffff"/>
 </g>
</svg>
