<?xml version="1.0" encoding="UTF-8"?>
<!--Generator: Apple Native CoreSVG 175-->
<!DOCTYPE svg
PUBLIC "-//W3C//DTD SVG 1.1//EN"
       "http://www.w3.org/Graphics/SVG/1.1/DTD/svg11.dtd">
<svg version="1.1" xmlns="http://www.w3.org/2000/svg" xmlns:xlink="http://www.w3.org/1999/xlink" width="17.2852" height="17.3145">
 <g>
  <rect height="17.3145" opacity="0" width="17.2852" x="0" y="0"/>
  <path d="M2.62695 17.3145L14.6484 17.3145Q15.957 17.3145 16.6211 16.6455Q17.2852 15.9766 17.2852 14.6875L17.2852 2.65625Q17.2852 1.37695 16.6211 0.703125Q15.957 0.0292969 14.6484 0.0292969L2.62695 0.0292969Q1.33789 0.0292969 0.668945 0.693359Q0 1.35742 0 2.65625L0 14.6875Q0 15.9863 0.668945 16.6504Q1.33789 17.3145 2.62695 17.3145ZM8.66211 13.4863Q8.50586 13.4863 8.39844 13.3838Q8.29102 13.2812 8.29102 13.1152L8.29102 6.39648L8.33008 4.92188L7.11914 6.16211L5.38086 7.91016Q5.26367 8.01758 5.11719 8.01758Q4.9707 8.01758 4.87305 7.9248Q4.77539 7.83203 4.77539 7.68555Q4.77539 7.53906 4.87305 7.44141L8.39844 3.91602Q8.51562 3.79883 8.66211 3.79883Q8.80859 3.79883 8.92578 3.91602L12.4609 7.44141Q12.5586 7.53906 12.5586 7.68555Q12.5586 7.83203 12.4561 7.9248Q12.3535 8.01758 12.2168 8.01758Q12.0605 8.01758 11.9531 7.91016L10.2148 6.16211L8.98438 4.91211L9.02344 6.39648L9.02344 13.1152Q9.02344 13.2812 8.92578 13.3838Q8.82812 13.4863 8.66211 13.4863Z" fill="#007aff"/>
 </g>
</svg>
