<?xml version="1.0" encoding="UTF-8"?>
<!--Generator: Apple Native CoreSVG 175.5-->
<!DOCTYPE svg
PUBLIC "-//W3C//DTD SVG 1.1//EN"
       "http://www.w3.org/Graphics/SVG/1.1/DTD/svg11.dtd">
<svg version="1.1" xmlns="http://www.w3.org/2000/svg" xmlns:xlink="http://www.w3.org/1999/xlink" width="19.9219" height="19.9316">
 <g>
  <rect height="19.9316" opacity="0" width="19.9219" x="0" y="0"/>
  <path d="M9.96094 19.9219Q12.002 19.9219 13.8037 19.1406Q15.6055 18.3594 16.9824 16.9824Q18.3594 15.6055 19.1406 13.8037Q19.9219 12.002 19.9219 9.96094Q19.9219 7.91992 19.1406 6.11816Q18.3594 4.31641 16.9824 2.93945Q15.6055 1.5625 13.7988 0.78125Q11.9922 0 9.95117 0Q7.91016 0 6.1084 0.78125Q4.30664 1.5625 2.93457 2.93945Q1.5625 4.31641 0.78125 6.11816Q0 7.91992 0 9.96094Q0 12.002 0.78125 13.8037Q1.5625 15.6055 2.93945 16.9824Q4.31641 18.3594 6.11816 19.1406Q7.91992 19.9219 9.96094 19.9219ZM9.96094 18.2617Q8.23242 18.2617 6.72852 17.6172Q5.22461 16.9727 4.08691 15.835Q2.94922 14.6973 2.30957 13.1934Q1.66992 11.6895 1.66992 9.96094Q1.66992 8.23242 2.30957 6.72852Q2.94922 5.22461 4.08203 4.08203Q5.21484 2.93945 6.71875 2.2998Q8.22266 1.66016 9.95117 1.66016Q11.6797 1.66016 13.1885 2.2998Q14.6973 2.93945 15.835 4.08203Q16.9727 5.22461 17.6172 6.72852Q18.2617 8.23242 18.2617 9.96094Q18.2617 11.6895 17.6221 13.1934Q16.9824 14.6973 15.8398 15.835Q14.6973 16.9727 13.1934 17.6172Q11.6895 18.2617 9.96094 18.2617Z" fill="#007aff"/>
  <path d="M5.09766 14.1504Q5.27344 14.1504 5.44434 14.082Q5.61523 14.0137 5.74219 13.7598Q6.43555 12.4707 7.44629 12.002Q8.45703 11.5332 9.98047 11.5332L10.1367 11.5332L10.1367 13.5449Q10.1367 13.8086 10.3076 13.9795Q10.4785 14.1504 10.7422 14.1504Q10.9375 14.1504 11.1035 14.0674Q11.2695 13.9844 11.4551 13.8086L15.6055 9.90234Q15.7617 9.76562 15.8203 9.61914Q15.8789 9.47266 15.8789 9.3457Q15.8789 9.20898 15.8203 9.0625Q15.7617 8.91602 15.6055 8.7793L11.4551 4.90234Q11.25 4.70703 11.0986 4.61914Q10.9473 4.53125 10.752 4.53125Q10.4883 4.53125 10.3125 4.72168Q10.1367 4.91211 10.1367 5.16602L10.1367 7.16797L9.98047 7.16797Q8.0957 7.16797 6.89941 7.92969Q5.70312 8.69141 5.13184 10.1025Q4.56055 11.5137 4.56055 13.457Q4.56055 13.7988 4.72656 13.9746Q4.89258 14.1504 5.09766 14.1504Z" fill="#007aff"/>
 </g>
</svg>
