<?xml version="1.0" encoding="UTF-8"?>
<!--Generator: Apple Native CoreSVG 175.5-->
<!DOCTYPE svg
PUBLIC "-//W3C//DTD SVG 1.1//EN"
       "http://www.w3.org/Graphics/SVG/1.1/DTD/svg11.dtd">
<svg version="1.1" xmlns="http://www.w3.org/2000/svg" xmlns:xlink="http://www.w3.org/1999/xlink" width="26.25" height="19.1504">
 <g>
  <rect height="19.1504" opacity="0" width="26.25" x="0" y="0"/>
  <path d="M0 13.8086Q0 14.1797 0.273438 14.4434L4.58008 18.8574Q4.7168 19.0039 4.88281 19.0771Q5.04883 19.1504 5.23438 19.1504Q5.41016 19.1504 5.57617 19.0771Q5.74219 19.0039 5.87891 18.8574L10.1953 14.4434Q10.459 14.1797 10.459 13.8086Q10.459 13.418 10.2197 13.1836Q9.98047 12.9492 9.59961 12.9492Q9.41406 12.9492 9.2627 13.0078Q9.11133 13.0664 9.00391 13.1836L7.58789 14.6777L6.00586 16.4941L6.10352 14.2383L6.10352 4.91211L6.00586 2.65625L7.58789 4.47266L9.00391 5.9668Q9.11133 6.08398 9.2627 6.14258Q9.41406 6.20117 9.59961 6.20117Q9.98047 6.20117 10.2197 5.9668Q10.459 5.73242 10.459 5.3418Q10.459 4.9707 10.1953 4.70703L5.87891 0.292969Q5.74219 0.146484 5.57617 0.0732422Q5.41016 0 5.23438 0Q5.04883 0 4.88281 0.0732422Q4.7168 0.146484 4.58008 0.292969L0.273438 4.70703Q0 4.9707 0 5.3418Q0 5.73242 0.239258 5.9668Q0.478516 6.20117 0.859375 6.20117Q1.04492 6.20117 1.19629 6.1377Q1.34766 6.07422 1.45508 5.9668L2.88086 4.47266L4.45312 2.65625L4.35547 4.91211L4.35547 14.2383L4.45312 16.4941L2.88086 14.6777L1.45508 13.1836Q1.34766 13.0762 1.19629 13.0127Q1.04492 12.9492 0.859375 12.9492Q0.478516 12.9492 0.239258 13.1836Q0 13.418 0 13.8086ZM12.3633 6.99219Q12.3633 7.20703 12.5098 7.3584Q12.6562 7.50977 12.8809 7.53906Q14.2676 7.69531 15.21 7.90527Q16.1523 8.11523 16.7676 8.48145Q17.3828 8.84766 17.7539 9.46777Q18.125 10.0879 18.3545 11.0547Q18.584 12.0215 18.7695 13.4473Q18.8086 13.6621 18.96 13.7988Q19.1113 13.9355 19.3066 13.9355Q19.5117 13.9355 19.6631 13.7988Q19.8145 13.6621 19.8535 13.4473Q20.0391 12.0215 20.2637 11.0547Q20.4883 10.0879 20.8643 9.46777Q21.2402 8.84766 21.8555 8.48145Q22.4707 8.11523 23.4131 7.90527Q24.3555 7.69531 25.7324 7.53906Q25.9668 7.50977 26.1084 7.3584Q26.25 7.20703 26.25 6.99219Q26.25 6.77734 26.1084 6.62598Q25.9668 6.47461 25.7324 6.44531Q24.3555 6.28906 23.4131 6.0791Q22.4707 5.86914 21.8555 5.50293Q21.2402 5.13672 20.8691 4.5166Q20.498 3.89648 20.2686 2.92969Q20.0391 1.96289 19.8535 0.537109Q19.8145 0.322266 19.668 0.19043Q19.5215 0.0585938 19.3066 0.0585938Q19.1016 0.0585938 18.9551 0.19043Q18.8086 0.322266 18.7695 0.537109Q18.5742 1.95312 18.3447 2.91016Q18.1152 3.86719 17.7441 4.47754Q17.373 5.08789 16.7627 5.4541Q16.1523 5.82031 15.21 6.04004Q14.2676 6.25977 12.8809 6.44531Q12.6465 6.47461 12.5049 6.62598Q12.3633 6.77734 12.3633 6.99219ZM11.4355 15.498Q11.4355 15.6445 11.5332 15.7617Q11.6309 15.8789 11.7871 15.9082Q12.7246 16.084 13.2471 16.2158Q13.7695 16.3477 14.0234 16.5918Q14.2773 16.8359 14.3896 17.3242Q14.502 17.8125 14.6094 18.6914Q14.6387 18.8574 14.751 18.9697Q14.8633 19.082 15.0195 19.082Q15.1855 19.082 15.2979 18.9746Q15.4102 18.8672 15.4395 18.7012Q15.5566 17.7832 15.6787 17.2705Q15.8008 16.7578 16.0645 16.5088Q16.3281 16.2598 16.8408 16.1475Q17.3535 16.0352 18.2422 15.9082Q18.4082 15.8789 18.5107 15.7666Q18.6133 15.6543 18.6133 15.498Q18.6133 15.3516 18.5156 15.2344Q18.418 15.1172 18.252 15.0879Q17.3438 14.9121 16.8311 14.7803Q16.3184 14.6484 16.0596 14.4043Q15.8008 14.1602 15.6787 13.6719Q15.5566 13.1836 15.4395 12.2852Q15.4102 12.1191 15.293 12.0166Q15.1758 11.9141 15.0195 11.9141Q14.8633 11.9141 14.751 12.0215Q14.6387 12.1289 14.6094 12.3047Q14.502 13.1836 14.3896 13.6768Q14.2773 14.1699 14.0283 14.4238Q13.7793 14.6777 13.2617 14.8096Q12.7441 14.9414 11.8262 15.0879Q11.4355 15.1562 11.4355 15.498Z" fill="#007aff"/>
 </g>
</svg>
