<?xml version="1.0" encoding="UTF-8"?>
<!--Generator: Apple Native CoreSVG 175-->
<!DOCTYPE svg
PUBLIC "-//W3C//DTD SVG 1.1//EN"
       "http://www.w3.org/Graphics/SVG/1.1/DTD/svg11.dtd">
<svg version="1.1" xmlns="http://www.w3.org/2000/svg" xmlns:xlink="http://www.w3.org/1999/xlink" width="17.2852" height="17.3145">
 <g>
  <rect height="17.3145" opacity="0" width="17.2852" x="0" y="0"/>
  <path d="M2.62695 17.3145L14.6484 17.3145Q15.957 17.3145 16.6211 16.6455Q17.2852 15.9766 17.2852 14.6875L17.2852 2.65625Q17.2852 1.37695 16.6211 0.703125Q15.957 0.0292969 14.6484 0.0292969L2.62695 0.0292969Q1.33789 0.0292969 0.668945 0.693359Q0 1.35742 0 2.65625L0 14.6875Q0 15.9863 0.668945 16.6504Q1.33789 17.3145 2.62695 17.3145ZM2.65625 16.5918Q1.70898 16.5918 1.2207 16.1035Q0.732422 15.6152 0.732422 14.6582L0.732422 2.69531Q0.732422 1.72852 1.2207 1.24512Q1.70898 0.761719 2.65625 0.761719L14.6289 0.761719Q15.5566 0.761719 16.0596 1.24512Q16.5625 1.72852 16.5625 2.69531L16.5625 14.6582Q16.5625 15.6152 16.0596 16.1035Q15.5566 16.5918 14.6289 16.5918ZM8.65234 13.4473Q8.81836 13.4473 8.91602 13.3496Q9.01367 13.252 9.01367 13.0859L9.01367 6.39648L8.98438 4.92188L10.1953 6.17188L11.9238 7.91016Q12.041 8.01758 12.1875 8.01758Q12.3242 8.01758 12.4219 7.9248Q12.5195 7.83203 12.5195 7.69531Q12.5195 7.55859 12.4219 7.45117L8.91602 3.94531Q8.79883 3.82812 8.65234 3.82812Q8.51562 3.82812 8.39844 3.94531L4.90234 7.45117Q4.79492 7.54883 4.79492 7.69531Q4.79492 7.83203 4.8877 7.9248Q4.98047 8.01758 5.13672 8.01758Q5.27344 8.01758 5.39062 7.91016L7.11914 6.17188L8.32031 4.93164L8.29102 6.39648L8.29102 13.0859Q8.29102 13.252 8.39355 13.3496Q8.49609 13.4473 8.65234 13.4473Z" fill="#007aff"/>
 </g>
</svg>
