<?xml version="1.0" encoding="UTF-8"?>
<!--Generator: Apple Native CoreSVG 175.5-->
<!DOCTYPE svg
PUBLIC "-//W3C//DTD SVG 1.1//EN"
       "http://www.w3.org/Graphics/SVG/1.1/DTD/svg11.dtd">
<svg version="1.1" xmlns="http://www.w3.org/2000/svg" xmlns:xlink="http://www.w3.org/1999/xlink" width="21.0547" height="17.9199">
 <g>
  <rect height="17.9199" opacity="0" width="21.0547" x="0" y="0"/>
  <path d="M9.54102 17.9102Q10.0391 17.9102 10.3613 17.5879Q10.6836 17.2656 10.6836 16.7676L10.6836 13.0371L10.9668 13.0371Q12.8613 13.0371 14.3164 13.4082Q15.7715 13.7793 16.8848 14.6826Q17.998 15.5859 18.8477 17.1875Q19.1016 17.6562 19.4189 17.7832Q19.7363 17.9102 20.0488 17.9102Q20.4395 17.9102 20.7471 17.5732Q21.0547 17.2363 21.0547 16.6016Q21.0547 13.8965 20.4639 11.7334Q19.873 9.57031 18.6475 8.03711Q17.4219 6.50391 15.5127 5.69336Q13.6035 4.88281 10.9668 4.88281L10.6836 4.88281L10.6836 1.19141Q10.6836 0.703125 10.3613 0.351562Q10.0391 0 9.52148 0Q9.16016 0 8.87695 0.161133Q8.59375 0.322266 8.20312 0.693359L0.498047 7.90039Q0.214844 8.16406 0.107422 8.4375Q0 8.71094 0 8.95508Q0 9.18945 0.107422 9.46289Q0.214844 9.73633 0.498047 10L8.20312 17.2754Q8.55469 17.6074 8.86719 17.7588Q9.17969 17.9102 9.54102 17.9102ZM8.98438 15.8105Q8.89648 15.8105 8.81836 15.7227L1.85547 9.14062Q1.79688 9.08203 1.77246 9.03809Q1.74805 8.99414 1.74805 8.95508Q1.74805 8.86719 1.85547 8.76953L8.80859 2.09961Q8.84766 2.07031 8.88672 2.0459Q8.92578 2.02148 8.97461 2.02148Q9.11133 2.02148 9.11133 2.1582L9.11133 6.03516Q9.11133 6.35742 9.44336 6.35742L10.752 6.35742Q12.7637 6.35742 14.2383 6.87012Q15.7129 7.38281 16.7285 8.28613Q17.7441 9.18945 18.3691 10.3711Q18.9941 11.5527 19.3018 12.8955Q19.6094 14.2383 19.668 15.6152Q19.668 15.7227 19.5898 15.7227Q19.5605 15.7227 19.541 15.6982Q19.5215 15.6738 19.502 15.625Q18.9258 14.4043 17.7539 13.4863Q16.582 12.5684 14.8291 12.0654Q13.0762 11.5625 10.752 11.5625L9.44336 11.5625Q9.11133 11.5625 9.11133 11.8848L9.11133 15.6641Q9.11133 15.8105 8.98438 15.8105Z" fill="#007aff"/>
 </g>
</svg>
