<?xml version="1.0" encoding="UTF-8"?>
<!--Generator: Apple Native CoreSVG 175.5-->
<!DOCTYPE svg
PUBLIC "-//W3C//DTD SVG 1.1//EN"
       "http://www.w3.org/Graphics/SVG/1.1/DTD/svg11.dtd">
<svg version="1.1" xmlns="http://www.w3.org/2000/svg" xmlns:xlink="http://www.w3.org/1999/xlink" width="15.2441" height="18.4473">
 <g>
  <rect height="18.4473" opacity="0" width="15.2441" x="0" y="0"/>
  <path d="M13.1738 0Q9.79492 0 8.16406 1.46484Q6.5332 2.92969 6.5332 6.33789L6.5332 13.1055L6.60156 15.752L4.6582 13.6133L1.45508 10.4102Q1.33789 10.293 1.17676 10.2344Q1.01562 10.1758 0.839844 10.1758Q0.478516 10.1758 0.239258 10.4199Q0 10.6641 0 11.0254Q0 11.377 0.273438 11.6602L6.74805 18.1543Q7.03125 18.4473 7.40234 18.4473Q7.77344 18.4473 8.05664 18.1543L14.541 11.6602Q14.8047 11.377 14.8047 11.0254Q14.8047 10.6641 14.5654 10.4199Q14.3262 10.1758 13.9648 10.1758Q13.7891 10.1758 13.6279 10.2344Q13.4668 10.293 13.3496 10.4102L10.1465 13.6133L8.19336 15.7617L8.27148 13.1055L8.26172 6.42578Q8.26172 4.6582 8.78906 3.62793Q9.31641 2.59766 10.4199 2.15332Q11.5234 1.70898 13.2617 1.70898Q13.6035 1.70898 13.8623 1.71875Q14.1211 1.72852 14.375 1.72852Q14.7461 1.72852 14.9951 1.50391Q15.2441 1.2793 15.2441 0.898438Q15.2441 0.644531 15.1416 0.473633Q15.0391 0.302734 14.8682 0.205078Q14.6973 0.107422 14.5117 0.0683594Q14.2871 0.0292969 13.9404 0.0146484Q13.5938 0 13.1738 0Z" fill="#007aff"/>
 </g>
</svg>
