<?xml version="1.0" encoding="UTF-8"?>
<!--Generator: Apple Native CoreSVG 175-->
<!DOCTYPE svg
PUBLIC "-//W3C//DTD SVG 1.1//EN"
       "http://www.w3.org/Graphics/SVG/1.1/DTD/svg11.dtd">
<svg version="1.1" xmlns="http://www.w3.org/2000/svg" xmlns:xlink="http://www.w3.org/1999/xlink" width="19.1602" height="19.1504">
 <g>
  <rect height="19.1504" opacity="0" width="19.1602" x="0" y="0"/>
  <path d="M9.57031 19.1406Q11.5527 19.1406 13.2861 18.3984Q15.0195 17.6562 16.3379 16.333Q17.6562 15.0098 18.4082 13.2764Q19.1602 11.543 19.1602 9.57031Q19.1602 7.59766 18.4082 5.86426Q17.6562 4.13086 16.3379 2.80762Q15.0195 1.48438 13.2861 0.742188Q11.5527 0 9.57031 0Q7.59766 0 5.86426 0.742188Q4.13086 1.48438 2.81738 2.80762Q1.50391 4.13086 0.751953 5.86426Q0 7.59766 0 9.57031Q0 11.543 0.74707 13.2764Q1.49414 15.0098 2.8125 16.333Q4.13086 17.6562 5.86914 18.3984Q7.60742 19.1406 9.57031 19.1406ZM9.57031 18.3984Q7.74414 18.3984 6.14746 17.71Q4.55078 17.0215 3.33496 15.8105Q2.11914 14.5996 1.43555 12.998Q0.751953 11.3965 0.751953 9.57031Q0.751953 7.74414 1.43555 6.14258Q2.11914 4.54102 3.33496 3.3252Q4.55078 2.10938 6.14746 1.4209Q7.74414 0.732422 9.57031 0.732422Q11.4062 0.732422 13.0029 1.4209Q14.5996 2.10938 15.8154 3.3252Q17.0312 4.54102 17.7197 6.14258Q18.4082 7.74414 18.4082 9.57031Q18.4082 11.3965 17.7246 12.998Q17.041 14.5996 15.8252 15.8105Q14.6094 17.0215 13.0078 17.71Q11.4062 18.3984 9.57031 18.3984ZM6.24023 11.8555Q6.39648 11.8555 6.49414 11.7529Q6.5918 11.6504 6.5918 11.4844L6.5918 8.73047L6.55273 7.01172L7.55859 8.06641L12.5977 13.1055Q12.7148 13.2129 12.8809 13.2129Q13.0371 13.2129 13.1299 13.1201Q13.2227 13.0273 13.2227 12.8613Q13.2227 12.7246 13.1055 12.5977L8.05664 7.55859L7.00195 6.5332L8.36914 6.57227L11.4941 6.57227Q11.6602 6.57227 11.7627 6.47461Q11.8652 6.37695 11.8652 6.2207Q11.8652 6.07422 11.7627 5.98633Q11.6602 5.89844 11.4941 5.89844L6.25977 5.89844Q6.10352 5.89844 6.00098 5.99121Q5.89844 6.08398 5.89844 6.25977L5.89844 11.4844Q5.89844 11.6504 5.99121 11.7529Q6.08398 11.8555 6.24023 11.8555Z" fill="#007aff"/>
 </g>
</svg>
