<?xml version="1.0" encoding="UTF-8"?>
<!--Generator: Apple Native CoreSVG 175.5-->
<!DOCTYPE svg
PUBLIC "-//W3C//DTD SVG 1.1//EN"
       "http://www.w3.org/Graphics/SVG/1.1/DTD/svg11.dtd">
<svg version="1.1" xmlns="http://www.w3.org/2000/svg" xmlns:xlink="http://www.w3.org/1999/xlink" width="19.9219" height="19.9316">
 <g>
  <rect height="19.9316" opacity="0" width="19.9219" x="0" y="0"/>
  <path d="M9.96094 19.9219Q12.002 19.9219 13.8037 19.1406Q15.6055 18.3594 16.9824 16.9824Q18.3594 15.6055 19.1406 13.8037Q19.9219 12.002 19.9219 9.96094Q19.9219 7.91992 19.1406 6.11816Q18.3594 4.31641 16.9824 2.93945Q15.6055 1.5625 13.7988 0.78125Q11.9922 0 9.95117 0Q7.91016 0 6.1084 0.78125Q4.30664 1.5625 2.93457 2.93945Q1.5625 4.31641 0.78125 6.11816Q0 7.91992 0 9.96094Q0 12.002 0.78125 13.8037Q1.5625 15.6055 2.93945 16.9824Q4.31641 18.3594 6.11816 19.1406Q7.91992 19.9219 9.96094 19.9219ZM9.96094 18.2617Q8.23242 18.2617 6.72852 17.6172Q5.22461 16.9727 4.08691 15.835Q2.94922 14.6973 2.30957 13.1934Q1.66992 11.6895 1.66992 9.96094Q1.66992 8.23242 2.30957 6.72852Q2.94922 5.22461 4.08203 4.08203Q5.21484 2.93945 6.71875 2.2998Q8.22266 1.66016 9.95117 1.66016Q11.6797 1.66016 13.1885 2.2998Q14.6973 2.93945 15.835 4.08203Q16.9727 5.22461 17.6172 6.72852Q18.2617 8.23242 18.2617 9.96094Q18.2617 11.6895 17.6221 13.1934Q16.9824 14.6973 15.8398 15.835Q14.6973 16.9727 13.1934 17.6172Q11.6895 18.2617 9.96094 18.2617Z" fill="#007aff"/>
  <path d="M5.38086 6.57227Q5.18555 6.75781 5.18555 7.0459Q5.18555 7.33398 5.38086 7.51953L7.83203 9.92188Q8.04688 10.1074 8.29102 10.1074Q8.56445 10.1074 8.74023 9.93652Q8.91602 9.76562 8.91602 9.49219Q8.91602 9.22852 8.73047 9.04297L7.69531 8.03711L7.28516 7.65625L7.74414 7.68555L14.082 7.68555Q14.3555 7.68555 14.5361 7.5Q14.7168 7.31445 14.7168 7.04102Q14.7168 6.77734 14.5361 6.59668Q14.3555 6.41602 14.082 6.41602L7.75391 6.41602L7.29492 6.42578L7.69531 6.06445L8.73047 5.05859Q8.91602 4.88281 8.91602 4.60938Q8.91602 4.33594 8.74023 4.16016Q8.56445 3.98438 8.29102 3.98438Q8.03711 3.98438 7.83203 4.18945ZM14.5215 13.3594Q14.7168 13.1641 14.7119 12.8955Q14.707 12.627 14.5215 12.4414L12.0605 10.0391Q11.8652 9.84375 11.6016 9.84375Q11.3281 9.84375 11.1523 10.0195Q10.9766 10.1953 10.9766 10.459Q10.9766 10.7227 11.1621 10.9082L12.2168 11.9141L12.6172 12.2949L12.1484 12.2656L5.81055 12.2656Q5.54688 12.2656 5.36621 12.4463Q5.18555 12.627 5.18555 12.9004Q5.18555 13.1738 5.36133 13.3545Q5.53711 13.5352 5.81055 13.5352L12.1387 13.5352L12.6172 13.5254L12.2168 13.8867L11.1719 14.8926Q10.9766 15.0977 10.9766 15.3418Q10.9766 15.6152 11.1572 15.791Q11.3379 15.9668 11.6016 15.9668Q11.8359 15.9668 12.0605 15.7715Z" fill="#007aff"/>
 </g>
</svg>
