<?xml version="1.0" encoding="UTF-8"?>
<!--Generator: Apple Native CoreSVG 175-->
<!DOCTYPE svg
PUBLIC "-//W3C//DTD SVG 1.1//EN"
       "http://www.w3.org/Graphics/SVG/1.1/DTD/svg11.dtd">
<svg version="1.1" xmlns="http://www.w3.org/2000/svg" xmlns:xlink="http://www.w3.org/1999/xlink" width="22.8375" height="17.1381">
 <g>
  <rect height="17.1381" opacity="0" width="22.8375" x="0" y="0"/>
  <path d="M1.74423 16.413L7.3024 16.413Q8.17825 16.413 8.60886 15.978Q9.03946 15.5431 9.03946 14.6404L9.03946 12.2099L13.0891 12.2099L13.0891 16.2712Q13.0891 16.5935 13.2742 16.8173Q13.4593 17.0412 13.8028 17.0412Q14.0445 17.0412 14.2445 16.9306Q14.4446 16.8201 14.6274 16.6524L22.2833 9.52469Q22.6367 9.18365 22.7371 8.95592Q22.8375 8.72818 22.8375 8.52203Q22.8375 8.31726 22.7406 8.08739Q22.6437 7.85751 22.2833 7.5235L14.6274 0.407867Q14.4336 0.226593 14.2383 0.113297Q14.043 0 13.8083 0Q13.4621 0 13.2756 0.233459Q13.0891 0.466919 13.0891 0.786438L13.0891 4.99023L6.51917 4.99023Q5.63629 4.99023 5.20912 5.42038Q4.78195 5.85052 4.78195 6.75598L4.78195 8.46649L1.74423 8.46649Q0.861359 8.46649 0.430679 8.89656Q0 9.32663 0 10.2295L0 14.6404Q0 15.5431 0.430679 15.978Q0.861359 16.413 1.74423 16.413ZM1.76285 15.6953Q0.728607 15.6953 0.728607 14.5958L0.728607 10.2811Q0.728607 9.18411 1.76285 9.18411L4.78745 9.18411L4.78745 10.7286Q4.78745 11.1989 4.93103 11.5169Q5.07462 11.8349 5.49179 12.1591L8.311 14.2775L8.311 14.5958Q8.311 15.6953 7.27661 15.6953ZM13.9824 16.1578Q13.8176 16.1578 13.8176 15.9552L13.8176 11.7188Q13.8176 11.4528 13.5489 11.4528L6.54495 11.4528Q5.50354 11.4528 5.50354 10.3532L5.50354 6.7778Q5.50354 5.67123 6.54495 5.67123L13.5489 5.67123Q13.8176 5.67123 13.8176 5.41214L13.8176 1.05011Q13.8176 0.878296 13.9896 0.878296Q14.0665 0.878296 14.1231 0.920258Q14.1797 0.962219 14.2398 1.01257L21.7555 8.02002Q22.0528 8.3075 22.0528 8.52203Q22.0528 8.63831 21.9932 8.75259Q21.9336 8.86688 21.7555 9.0239L14.2328 16.0208Q14.0817 16.1578 13.9824 16.1578Z" fill="#000000"/>
 </g>
</svg>
