<?xml version="1.0" encoding="UTF-8"?>
<!--Generator: Apple Native CoreSVG 175-->
<!DOCTYPE svg
PUBLIC "-//W3C//DTD SVG 1.1//EN"
       "http://www.w3.org/Graphics/SVG/1.1/DTD/svg11.dtd">
<svg version="1.1" xmlns="http://www.w3.org/2000/svg" xmlns:xlink="http://www.w3.org/1999/xlink" width="15.2559" height="15.8066">
 <g>
  <rect height="15.8066" opacity="0" width="15.2559" x="0" y="0"/>
  <path d="M15.2559 0.783539Q15.2559 0.436249 15.0156 0.22438Q14.7754 0.0125122 14.3417 0.0125122L0.911407 0.00976562Q0.487518 0.00976562 0.243759 0.221634Q0 0.433502 0 0.780792Q0 0.961304 0.0666046 1.11465Q0.133209 1.26801 0.237579 1.48911L6.80237 15.1418Q6.97144 15.4785 7.1666 15.6425Q7.36176 15.8066 7.63016 15.8066Q7.89413 15.8066 8.08792 15.6425Q8.28171 15.4785 8.45352 15.1418L15.0227 1.48911Q15.1297 1.27075 15.1928 1.1174Q15.2559 0.96405 15.2559 0.783539Z" fill="#ffffff"/>
 </g>
</svg>
