<?xml version="1.0" encoding="UTF-8"?>
<!--Generator: Apple Native CoreSVG 175-->
<!DOCTYPE svg
PUBLIC "-//W3C//DTD SVG 1.1//EN"
       "http://www.w3.org/Graphics/SVG/1.1/DTD/svg11.dtd">
<svg version="1.1" xmlns="http://www.w3.org/2000/svg" xmlns:xlink="http://www.w3.org/1999/xlink" width="25.6508" height="17.5974">
 <g>
  <rect height="17.5974" opacity="0" width="25.6508" x="0" y="0"/>
  <path d="M8.51089 17.5974Q8.6644 17.5974 8.78517 17.5114Q8.90594 17.4254 8.94608 17.2801Q9.44534 15.4735 10.2549 14.3977Q11.0645 13.322 12.2768 12.8444Q13.4891 12.3668 15.1993 12.3668L15.9023 12.3907L15.9023 16.5009Q15.9023 16.8231 16.0874 17.047Q16.2726 17.2708 16.6161 17.2708Q16.8578 17.2708 17.0578 17.1603Q17.2578 17.0497 17.4406 16.882L25.0992 9.75433Q25.45 9.4133 25.5504 9.18556Q25.6508 8.95782 25.6508 8.75168Q25.6508 8.54691 25.5539 8.31703Q25.457 8.08716 25.0992 7.75314L17.4406 0.637512Q17.2469 0.456238 17.0515 0.342941Q16.8562 0.229645 16.6216 0.229645Q16.2753 0.229645 16.0888 0.463104Q15.9023 0.696564 15.9023 1.01608L15.9023 5.19958L15.4926 5.19958Q13.5164 5.19958 12.0617 5.91408Q10.607 6.62857 9.7123 8.14316Q8.8176 9.65775 8.5289 12.0465L8.4848 12.0465Q8.18512 9.61716 7.30606 8.10799Q6.427 6.59882 5.00412 5.8992Q3.58124 5.19958 1.65817 5.19958Q1.577 5.19958 1.47247 5.19958Q1.36795 5.19958 1.23795 5.19958Q0.632782 5.19958 0.316391 5.50407Q0 5.80856 0 6.48758L0 11.1626Q0 11.7888 0.312347 12.079Q0.624695 12.3692 1.2204 12.3692Q1.3887 12.3692 1.5551 12.3692Q1.7215 12.3692 1.8898 12.3692Q3.59344 12.3692 4.80377 12.8753Q6.0141 13.3813 6.81076 14.4647Q7.60742 15.5481 8.07846 17.2774Q8.11172 17.4254 8.22968 17.5114Q8.34763 17.5974 8.51089 17.5974Z" fill="#007aff"/>
 </g>
</svg>
