<?xml version="1.0" encoding="UTF-8"?>
<!--Generator: Apple Native CoreSVG 175-->
<!DOCTYPE svg
PUBLIC "-//W3C//DTD SVG 1.1//EN"
       "http://www.w3.org/Graphics/SVG/1.1/DTD/svg11.dtd">
<svg version="1.1" xmlns="http://www.w3.org/2000/svg" xmlns:xlink="http://www.w3.org/1999/xlink" width="17.2852" height="17.3145">
 <g>
  <rect height="17.3145" opacity="0" width="17.2852" x="0" y="0"/>
  <path d="M2.62695 17.3145L14.6484 17.3145Q15.957 17.3145 16.6211 16.6455Q17.2852 15.9766 17.2852 14.6875L17.2852 2.65625Q17.2852 1.37695 16.6211 0.703125Q15.957 0.0292969 14.6484 0.0292969L2.62695 0.0292969Q1.33789 0.0292969 0.668945 0.693359Q0 1.35742 0 2.65625L0 14.6875Q0 15.9863 0.668945 16.6504Q1.33789 17.3145 2.62695 17.3145ZM2.65625 16.5918Q1.70898 16.5918 1.2207 16.1035Q0.732422 15.6152 0.732422 14.6582L0.732422 2.69531Q0.732422 1.72852 1.2207 1.24512Q1.70898 0.761719 2.65625 0.761719L14.6289 0.761719Q15.5566 0.761719 16.0596 1.24512Q16.5625 1.72852 16.5625 2.69531L16.5625 14.6582Q16.5625 15.6152 16.0596 16.1035Q15.5566 16.5918 14.6289 16.5918ZM5.45898 3.85742L2.71484 6.60156Q2.60742 6.71875 2.60742 6.86523Q2.60742 7.00195 2.70508 7.09473Q2.80273 7.1875 2.91992 7.1875Q3.07617 7.1875 3.19336 7.07031L4.54102 5.70312L5.39062 4.84375L5.36133 5.66406L5.36133 13.1934Q5.36133 13.3398 5.46387 13.4326Q5.56641 13.5254 5.70312 13.5254Q5.83984 13.5254 5.93262 13.4277Q6.02539 13.3301 6.02539 13.1934L6.02539 5.66406L5.99609 4.84375L6.8457 5.70312L8.20312 7.07031Q8.32031 7.1875 8.45703 7.1875Q8.59375 7.1875 8.68652 7.09473Q8.7793 7.00195 8.7793 6.86523Q8.7793 6.69922 8.67188 6.60156L5.92773 3.85742Q5.83008 3.7793 5.69824 3.76953Q5.56641 3.75977 5.45898 3.85742ZM11.8555 13.4375L14.5898 10.6934Q14.6973 10.5859 14.6973 10.4297Q14.6973 10.293 14.6045 10.2002Q14.5117 10.1074 14.375 10.1074Q14.2383 10.1074 14.1211 10.2246L12.7637 11.582L11.9238 12.4512L11.9434 11.6309L11.9434 4.10156Q11.9434 3.95508 11.8408 3.8623Q11.7383 3.76953 11.6016 3.76953Q11.4648 3.76953 11.3721 3.86719Q11.2793 3.96484 11.2793 4.10156L11.2793 11.6309L11.2988 12.4512L10.459 11.582L9.11133 10.2246Q9.00391 10.1074 8.84766 10.1074Q8.70117 10.1074 8.61328 10.1953Q8.52539 10.2832 8.52539 10.4297Q8.52539 10.5859 8.62305 10.6934L11.377 13.4375Q11.4648 13.5254 11.6064 13.5254Q11.748 13.5254 11.8555 13.4375Z" fill="#000000"/>
 </g>
</svg>
