<?xml version="1.0" encoding="UTF-8"?>
<!--Generator: Apple Native CoreSVG 175.5-->
<!DOCTYPE svg
PUBLIC "-//W3C//DTD SVG 1.1//EN"
       "http://www.w3.org/Graphics/SVG/1.1/DTD/svg11.dtd">
<svg version="1.1" xmlns="http://www.w3.org/2000/svg" xmlns:xlink="http://www.w3.org/1999/xlink" width="24.9418" height="20.9473">
 <g>
  <rect height="20.9473" opacity="0" width="24.9418" x="0" y="0"/>
  <path d="M8.516 17.8809Q8.516 19.4141 9.27284 20.1758Q10.0297 20.9375 11.5433 20.9375L21.9144 20.9375Q23.4281 20.9375 24.1849 20.1758Q24.9418 19.4141 24.9418 17.8809L24.9418 3.06641Q24.9418 1.54297 24.1849 0.771484Q23.4281 0 21.9144 0L11.5433 0Q10.0297 0 9.27284 0.771484Q8.516 1.54297 8.516 3.06641ZM10.0883 17.8516L10.0883 3.0957Q10.0883 2.36328 10.4789 1.96777Q10.8695 1.57227 11.6312 1.57227L21.8363 1.57227Q22.598 1.57227 22.9838 1.96777Q23.3695 2.36328 23.3695 3.0957L23.3695 17.8516Q23.3695 18.584 22.9838 18.9746Q22.598 19.3652 21.8363 19.3652L11.6312 19.3652Q10.8695 19.3652 10.4789 18.9746Q10.0883 18.584 10.0883 17.8516Z" fill="#007aff"/>
  <path d="M12.266 15.4199L21.1918 15.4199Q21.4848 15.4199 21.6264 15.249Q21.768 15.0781 21.768 14.8047Q21.768 14.4043 21.4652 13.7646Q21.1625 13.125 20.5375 12.4854Q19.9125 11.8457 18.9652 11.4062Q18.018 10.9668 16.7289 10.9668Q15.4496 10.9668 14.4974 11.4062Q13.5453 11.8457 12.9252 12.4854Q12.3051 13.125 11.9974 13.7646Q11.6898 14.4043 11.6898 14.8047Q11.6898 15.0781 11.8363 15.249Q11.9828 15.4199 12.266 15.4199ZM16.7289 10.166Q17.4223 10.1758 17.9935 9.81445Q18.5648 9.45312 18.9017 8.83301Q19.2387 8.21289 19.2387 7.43164Q19.2387 6.69922 18.9017 6.08887Q18.5648 5.47852 17.9935 5.1123Q17.4223 4.74609 16.7289 4.74609Q16.0355 4.74609 15.4691 5.1123Q14.9027 5.47852 14.5658 6.08887Q14.2289 6.69922 14.2289 7.43164Q14.2289 8.21289 14.5658 8.82812Q14.9027 9.44336 15.4691 9.80469Q16.0355 10.166 16.7289 10.166Z" fill="#007aff"/>
  <path d="M0.234751 8.81836Q-0.00939002 9.0918 0.000375601 9.39453Q0.0101412 9.69727 0.220102 9.90234Q0.430063 10.1074 0.791391 10.1074L2.45155 10.1074L2.45155 14.3848Q2.45155 14.707 2.67127 14.9268Q2.891 15.1465 3.22303 15.1465Q3.53553 15.1465 3.75526 14.9268Q3.97498 14.707 3.97498 14.3848L3.97498 10.1074L5.61561 10.1074Q6.00623 10.1074 6.21131 9.89258Q6.41639 9.67773 6.41639 9.37988Q6.41639 9.08203 6.18202 8.81836L3.76014 6.08398Q3.516 5.81055 3.20838 5.80566Q2.90077 5.80078 2.64686 6.08398Z" fill="#007aff"/>
 </g>
</svg>
