<?xml version="1.0" encoding="UTF-8"?>
<!--Generator: Apple Native CoreSVG 175.5-->
<!DOCTYPE svg
PUBLIC "-//W3C//DTD SVG 1.1//EN"
       "http://www.w3.org/Graphics/SVG/1.1/DTD/svg11.dtd">
<svg version="1.1" xmlns="http://www.w3.org/2000/svg" xmlns:xlink="http://www.w3.org/1999/xlink" width="23.0273" height="17.9785">
 <g>
  <rect height="17.9785" opacity="0" width="23.0273" x="0" y="0"/>
  <path d="M3.06641 17.9785L19.9609 17.9785Q21.5039 17.9785 22.2656 17.2217Q23.0273 16.4648 23.0273 14.9609L23.0273 3.02734Q23.0273 1.52344 22.2656 0.761719Q21.5039 0 19.9609 0L3.06641 0Q1.5332 0 0.766602 0.756836Q0 1.51367 0 3.02734L0 14.9609Q0 16.4648 0.766602 17.2217Q1.5332 17.9785 3.06641 17.9785Z" fill="#007aff"/>
  <path d="M3.29102 10.4883Q3.29102 10.2051 3.56445 9.94141L7.8125 5.69336L8.58398 4.99023L6.10352 5.07812L5.11719 5.07812Q4.81445 5.07812 4.59961 4.88281Q4.38477 4.6875 4.38477 4.375Q4.38477 4.04297 4.58984 3.84766Q4.79492 3.65234 5.11719 3.65234L10.1172 3.65234Q10.4492 3.65234 10.6543 3.85742Q10.8594 4.0625 10.8594 4.39453L10.8594 9.24805Q10.8594 9.58008 10.6641 9.78516Q10.4688 9.99023 10.1562 9.99023Q9.83398 9.99023 9.63379 9.78516Q9.43359 9.58008 9.43359 9.24805L9.43359 8.27148L9.53125 5.91797L8.81836 6.69922L4.57031 10.9473Q4.29688 11.2207 4.02344 11.2207Q3.7207 11.2207 3.50586 11.001Q3.29102 10.7812 3.29102 10.4883ZM19.873 7.5Q19.873 7.79297 19.5996 8.04688L15.3516 12.2949L14.5801 13.0078L17.0605 12.9102L18.0469 12.9102Q18.3496 12.9102 18.5645 13.1055Q18.7793 13.3008 18.7793 13.623Q18.7793 13.9453 18.5742 14.1406Q18.3691 14.3359 18.0469 14.3359L13.0469 14.3359Q12.7148 14.3359 12.5098 14.1357Q12.3047 13.9355 12.3047 13.6035L12.3047 8.74023Q12.3047 8.4082 12.5 8.20801Q12.6953 8.00781 13.0078 8.00781Q13.3301 8.00781 13.5303 8.20801Q13.7305 8.4082 13.7305 8.74023L13.7305 9.7168L13.6426 12.0801L14.3457 11.2988L18.5938 7.04102Q18.8672 6.77734 19.1406 6.77734Q19.4434 6.77734 19.6582 6.99707Q19.873 7.2168 19.873 7.5Z" fill="#ffffff"/>
 </g>
</svg>
