<?xml version="1.0" encoding="UTF-8"?>
<!--Generator: Apple Native CoreSVG 175.5-->
<!DOCTYPE svg
PUBLIC "-//W3C//DTD SVG 1.1//EN"
       "http://www.w3.org/Graphics/SVG/1.1/DTD/svg11.dtd">
<svg version="1.1" xmlns="http://www.w3.org/2000/svg" xmlns:xlink="http://www.w3.org/1999/xlink" width="17.9785" height="17.998">
 <g>
  <rect height="17.998" opacity="0" width="17.9785" x="0" y="0"/>
  <path d="M3.06641 17.998L14.9121 17.998Q16.4453 17.998 17.2119 17.2412Q17.9785 16.4844 17.9785 14.9707L17.9785 3.04688Q17.9785 1.5332 17.2119 0.776367Q16.4453 0.0195312 14.9121 0.0195312L3.06641 0.0195312Q1.5332 0.0195312 0.766602 0.776367Q0 1.5332 0 3.04688L0 14.9707Q0 16.4844 0.766602 17.2412Q1.5332 17.998 3.06641 17.998ZM3.08594 16.4258Q2.35352 16.4258 1.96289 16.04Q1.57227 15.6543 1.57227 14.8926L1.57227 3.125Q1.57227 2.36328 1.96289 1.97754Q2.35352 1.5918 3.08594 1.5918L14.8926 1.5918Q15.6152 1.5918 16.0107 1.97754Q16.4062 2.36328 16.4062 3.125L16.4062 14.8926Q16.4062 15.6543 16.0107 16.04Q15.6152 16.4258 14.8926 16.4258Z" fill="#007aff"/>
  <path d="M4.42383 5.60547Q4.22852 5.79102 4.22852 6.0791Q4.22852 6.36719 4.42383 6.55273L6.875 8.95508Q7.08984 9.14062 7.33398 9.14062Q7.60742 9.14062 7.7832 8.96973Q7.95898 8.79883 7.95898 8.52539Q7.95898 8.26172 7.77344 8.07617L6.73828 7.07031L6.32812 6.68945L6.78711 6.71875L13.125 6.71875Q13.3984 6.71875 13.5791 6.5332Q13.7598 6.34766 13.7598 6.07422Q13.7598 5.81055 13.5791 5.62988Q13.3984 5.44922 13.125 5.44922L6.79688 5.44922L6.33789 5.45898L6.73828 5.09766L7.77344 4.0918Q7.95898 3.91602 7.95898 3.64258Q7.95898 3.36914 7.7832 3.19336Q7.60742 3.01758 7.33398 3.01758Q7.08008 3.01758 6.875 3.22266ZM13.5645 12.3926Q13.7598 12.1973 13.7549 11.9287Q13.75 11.6602 13.5645 11.4746L11.1035 9.07227Q10.9082 8.87695 10.6445 8.87695Q10.3711 8.87695 10.1953 9.05273Q10.0195 9.22852 10.0195 9.49219Q10.0195 9.75586 10.2051 9.94141L11.2598 10.9473L11.6602 11.3281L11.1914 11.2988L4.85352 11.2988Q4.58984 11.2988 4.40918 11.4795Q4.22852 11.6602 4.22852 11.9336Q4.22852 12.207 4.4043 12.3877Q4.58008 12.5684 4.85352 12.5684L11.1816 12.5684L11.6602 12.5586L11.2598 12.9199L10.2148 13.9258Q10.0195 14.1309 10.0195 14.375Q10.0195 14.6484 10.2002 14.8242Q10.3809 15 10.6445 15Q10.8789 15 11.1035 14.8047Z" fill="#007aff"/>
 </g>
</svg>
