<?xml version="1.0" encoding="UTF-8"?>
<!--Generator: Apple Native CoreSVG 175-->
<!DOCTYPE svg
PUBLIC "-//W3C//DTD SVG 1.1//EN"
       "http://www.w3.org/Graphics/SVG/1.1/DTD/svg11.dtd">
<svg version="1.1" xmlns="http://www.w3.org/2000/svg" xmlns:xlink="http://www.w3.org/1999/xlink" width="19.1602" height="19.1504">
 <g>
  <rect height="19.1504" opacity="0" width="19.1602" x="0" y="0"/>
  <path d="M9.57031 19.1406Q11.5527 19.1406 13.2861 18.3984Q15.0195 17.6562 16.3379 16.333Q17.6562 15.0098 18.4082 13.2764Q19.1602 11.543 19.1602 9.57031Q19.1602 7.59766 18.4082 5.86426Q17.6562 4.13086 16.3379 2.80762Q15.0195 1.48438 13.2861 0.742188Q11.5527 0 9.57031 0Q7.59766 0 5.86426 0.742188Q4.13086 1.48438 2.81738 2.80762Q1.50391 4.13086 0.751953 5.86426Q0 7.59766 0 9.57031Q0 11.543 0.74707 13.2764Q1.49414 15.0098 2.8125 16.333Q4.13086 17.6562 5.86914 18.3984Q7.60742 19.1406 9.57031 19.1406ZM9.57031 18.3984Q7.74414 18.3984 6.14746 17.71Q4.55078 17.0215 3.33496 15.8105Q2.11914 14.5996 1.43555 12.998Q0.751953 11.3965 0.751953 9.57031Q0.751953 7.74414 1.43555 6.14258Q2.11914 4.54102 3.33496 3.3252Q4.55078 2.10938 6.14746 1.4209Q7.74414 0.732422 9.57031 0.732422Q11.4062 0.732422 13.0029 1.4209Q14.5996 2.10938 15.8154 3.3252Q17.0312 4.54102 17.7197 6.14258Q18.4082 7.74414 18.4082 9.57031Q18.4082 11.3965 17.7246 12.998Q17.041 14.5996 15.8252 15.8105Q14.6094 17.0215 13.0078 17.71Q11.4062 18.3984 9.57031 18.3984ZM4.55078 9.55078Q4.55078 9.69727 4.66797 9.81445L8.38867 13.5254Q8.49609 13.6426 8.64258 13.6426Q8.7793 13.6426 8.87207 13.5449Q8.96484 13.4473 8.96484 13.3105Q8.96484 13.1641 8.83789 13.0371L6.9043 11.1035L5.6543 9.88281L7.11914 9.92188L14.248 9.92188Q14.4141 9.92188 14.5117 9.81934Q14.6094 9.7168 14.6094 9.57031Q14.6094 9.39453 14.5068 9.29688Q14.4043 9.19922 14.248 9.19922L7.11914 9.19922L5.6543 9.24805L6.9043 8.01758L8.83789 6.07422Q8.96484 5.94727 8.96484 5.81055Q8.96484 5.67383 8.87207 5.57617Q8.7793 5.47852 8.64258 5.47852Q8.49609 5.47852 8.38867 5.5957L4.66797 9.29688Q4.55078 9.42383 4.55078 9.55078Z" fill="#000000"/>
 </g>
</svg>
