<?xml version="1.0" encoding="UTF-8"?>
<!--Generator: Apple Native CoreSVG 175-->
<!DOCTYPE svg
PUBLIC "-//W3C//DTD SVG 1.1//EN"
       "http://www.w3.org/Graphics/SVG/1.1/DTD/svg11.dtd">
<svg version="1.1" xmlns="http://www.w3.org/2000/svg" xmlns:xlink="http://www.w3.org/1999/xlink" width="17.2852" height="17.3145">
 <g>
  <rect height="17.3145" opacity="0" width="17.2852" x="0" y="0"/>
  <path d="M2.62695 17.3145L14.6484 17.3145Q15.957 17.3145 16.6211 16.6455Q17.2852 15.9766 17.2852 14.6875L17.2852 2.65625Q17.2852 1.37695 16.6211 0.703125Q15.957 0.0292969 14.6484 0.0292969L2.62695 0.0292969Q1.33789 0.0292969 0.668945 0.693359Q0 1.35742 0 2.65625L0 14.6875Q0 15.9863 0.668945 16.6504Q1.33789 17.3145 2.62695 17.3145ZM3.82812 5.46875L6.58203 2.72461Q6.69922 2.60742 6.8457 2.60742Q6.98242 2.60742 7.08008 2.70508Q7.17773 2.80273 7.17773 2.92969Q7.17773 3.07617 7.05078 3.20312L5.69336 4.56055L4.82422 5.40039L5.64453 5.38086L13.2227 5.38086Q13.3691 5.38086 13.4668 5.4834Q13.5645 5.58594 13.5645 5.72266Q13.5645 5.86914 13.4668 5.96191Q13.3691 6.05469 13.2227 6.05469L5.64453 6.05469L4.82422 6.02539L5.69336 6.875L7.05078 8.23242Q7.17773 8.35938 7.17773 8.50586Q7.17773 8.63281 7.08008 8.72559Q6.98242 8.81836 6.8457 8.81836Q6.68945 8.81836 6.58203 8.7207L3.82812 5.95703Q3.74023 5.84961 3.73047 5.71289Q3.7207 5.57617 3.82812 5.46875ZM13.4668 11.8652L10.7031 14.6289Q10.5957 14.7363 10.4395 14.7363Q10.3125 14.7363 10.2148 14.6387Q10.1172 14.541 10.1172 14.4141Q10.1172 14.2871 10.2344 14.1406L11.6016 12.7832L12.4707 11.9434L11.6504 11.9727L4.07227 11.9727Q3.92578 11.9727 3.83301 11.8652Q3.74023 11.7578 3.74023 11.6211Q3.74023 11.4844 3.83789 11.3867Q3.93555 11.2891 4.07227 11.2891L11.6504 11.2891L12.4707 11.3184L11.6016 10.4785L10.2246 9.12109Q10.1172 9.00391 10.1172 8.84766Q10.1172 8.71094 10.21 8.61816Q10.3027 8.52539 10.4395 8.52539Q10.6055 8.52539 10.7031 8.63281L13.4668 11.3965Q13.5547 11.4941 13.5596 11.6309Q13.5645 11.7676 13.4668 11.8652Z" fill="#ffffff"/>
 </g>
</svg>
