<?xml version="1.0" encoding="UTF-8"?>
<!--Generator: Apple Native CoreSVG 175-->
<!DOCTYPE svg
PUBLIC "-//W3C//DTD SVG 1.1//EN"
       "http://www.w3.org/Graphics/SVG/1.1/DTD/svg11.dtd">
<svg version="1.1" xmlns="http://www.w3.org/2000/svg" xmlns:xlink="http://www.w3.org/1999/xlink" width="10.5864" height="15.3906">
 <g>
  <rect height="15.3906" opacity="0" width="10.5864" x="0" y="0"/>
  <path d="M0.370331 14.5158Q0.536041 14.5158 0.693359 14.4124L1.2645 14.0283Q1.92001 13.5811 2.59384 12.9426Q3.26767 12.3041 3.84964 11.6036Q4.43161 10.903 4.81796 10.2696Q5.20432 9.63624 5.27496 9.19633L5.31845 9.19633Q5.3891 9.63624 5.77408 10.2683Q6.15906 10.9003 6.74103 11.6022Q7.323 12.3041 7.99683 12.9426Q8.67065 13.5811 9.3219 14.0283L9.89304 14.4124Q10.0504 14.5158 10.2203 14.5158Q10.3876 14.5158 10.487 14.4129Q10.5864 14.31 10.5864 14.1525Q10.5864 13.9385 10.3633 13.7872L9.72549 13.3736Q9.04892 12.9193 8.33405 12.2334Q7.61917 11.5474 7.01431 10.756Q6.40945 9.96461 6.03424 9.19236Q5.65903 8.42011 5.65903 7.8029L5.65903 2.64665L4.92737 2.64665L4.92737 7.8029Q4.92737 8.42011 4.55215 9.19236Q4.17694 9.96461 3.57071 10.7546Q2.96448 11.5447 2.25098 12.232Q1.53748 12.9193 0.860901 13.3736L0.223083 13.7872Q0 13.9385 0 14.1553Q0 14.3115 0.101547 14.4137Q0.203094 14.5158 0.370331 14.5158ZM3.18207 3.7822L7.41135 3.7822Q7.70401 3.7822 7.79015 3.60116Q7.87628 3.42011 7.68875 3.15324L5.63751 0.213784Q5.48752 0.001382 5.29808 8.71009e-06Q5.10864-0.00136458 4.94888 0.213784L2.8949 3.15064Q2.71011 3.42011 2.79839 3.60116Q2.88666 3.7822 3.18207 3.7822Z" fill="#007aff"/>
 </g>
</svg>
