<?xml version="1.0" encoding="UTF-8"?>
<!--Generator: Apple Native CoreSVG 175.5-->
<!DOCTYPE svg
PUBLIC "-//W3C//DTD SVG 1.1//EN"
       "http://www.w3.org/Graphics/SVG/1.1/DTD/svg11.dtd">
<svg version="1.1" xmlns="http://www.w3.org/2000/svg" xmlns:xlink="http://www.w3.org/1999/xlink" width="18.3301" height="15.4395">
 <g>
  <rect height="15.4395" opacity="0" width="18.3301" x="0" y="0"/>
  <path d="M0.917969 15.4395Q1.29883 15.4395 1.54785 15.1953Q1.79688 14.9512 1.79688 14.5703Q1.79688 14.3164 1.78223 14.0527Q1.76758 13.7891 1.76758 13.4473Q1.76758 11.6309 2.23145 10.5078Q2.69531 9.38477 3.75488 8.86719Q4.81445 8.34961 6.61133 8.34961L13.3496 8.34961L15.752 8.20312L12.4512 11.2109L10.2832 13.418Q10.1758 13.5352 10.1123 13.7012Q10.0488 13.8672 10.0488 14.043Q10.0488 14.4043 10.2979 14.6436Q10.5469 14.8828 10.9082 14.8828Q11.2598 14.8828 11.543 14.6094L18.0273 8.13477Q18.3301 7.8418 18.3301 7.4707Q18.3301 7.09961 18.0273 6.81641L11.5625 0.361328Q11.2598 0.0683594 10.9082 0.0683594Q10.5469 0.0683594 10.2979 0.307617Q10.0488 0.546875 10.0488 0.908203Q10.0488 1.08398 10.1074 1.24512Q10.166 1.40625 10.2832 1.52344L12.4512 3.73047L15.7422 6.73828L13.3496 6.60156L6.52344 6.60156Q3.04688 6.60156 1.52344 8.20801Q0 9.81445 0 13.3594Q0 13.7891 0.0195312 14.1357Q0.0390625 14.4824 0.0878906 14.707Q0.126953 14.9023 0.224609 15.0684Q0.322266 15.2344 0.493164 15.3369Q0.664062 15.4395 0.917969 15.4395Z" fill="#007aff"/>
 </g>
</svg>
