<?xml version="1.0" encoding="UTF-8"?>
<!--Generator: Apple Native CoreSVG 175-->
<!DOCTYPE svg
PUBLIC "-//W3C//DTD SVG 1.1//EN"
       "http://www.w3.org/Graphics/SVG/1.1/DTD/svg11.dtd">
<svg version="1.1" xmlns="http://www.w3.org/2000/svg" xmlns:xlink="http://www.w3.org/1999/xlink" width="14.0652" height="14.0472">
 <g>
  <rect height="14.0472" opacity="0" width="14.0652" x="0" y="0"/>
  <path d="M0 10.6238Q0 10.7993 0.117416 10.9152Q0.234833 11.0312 0.396576 11.0312Q0.560913 11.0312 0.668564 10.9125Q0.776215 10.7938 0.776215 10.6348L0.776215 4.48334L0.726929 1.1673L2.23984 2.75436L13.4109 13.9183Q13.5339 14.0414 13.6746 14.0414Q13.7851 14.0414 13.8721 13.9883Q13.959 13.9351 14.0121 13.8447Q14.0652 13.7543 14.0652 13.6536Q14.0652 13.5016 13.9536 13.3827L2.78519 2.20901L1.19385 0.687561L5.33371 0.745392L10.6726 0.745392Q10.8316 0.745392 10.949 0.64476Q11.0664 0.544128 11.0664 0.389404Q11.0664 0.234833 10.9531 0.117416Q10.8398 0 10.6618 0L0.436707 0Q0.257416 0 0.144119 0.116043Q0.0308228 0.232086 0.0308228 0.412903Z" fill="#ffffff"/>
 </g>
</svg>
