<?xml version="1.0" encoding="UTF-8"?>
<!--Generator: Apple Native CoreSVG 175-->
<!DOCTYPE svg
PUBLIC "-//W3C//DTD SVG 1.1//EN"
       "http://www.w3.org/Graphics/SVG/1.1/DTD/svg11.dtd">
<svg version="1.1" xmlns="http://www.w3.org/2000/svg" xmlns:xlink="http://www.w3.org/1999/xlink" width="16.7145" height="23.6081">
 <g>
  <rect height="23.6081" opacity="0" width="16.7145" x="0" y="0"/>
  <path d="M0 12.4249Q0 14.1824 0.640793 15.7041Q1.28159 17.2258 2.42462 18.3701Q3.56766 19.5145 5.08575 20.1574Q6.60385 20.8003 8.35159 20.8003Q10.1035 20.8003 11.6216 20.1574Q13.1398 19.5145 14.2828 18.3701Q15.4259 17.2258 16.0702 15.7041Q16.7145 14.1824 16.7145 12.4249Q16.7145 10.6871 16.0702 9.17595Q15.4259 7.66479 14.2828 6.52885Q13.1398 5.39291 11.6216 4.75563Q10.1035 4.11835 8.35159 4.11835Q7.56485 4.11835 6.84692 4.21501Q6.129 4.31168 5.60745 4.44595L9.3512 0.640259Q9.40933 0.579224 9.43848 0.510101Q9.46762 0.440979 9.46762 0.357819Q9.46762 0.21286 9.36737 0.10643Q9.26712 0 9.1066 0Q8.93509 0 8.82584 0.107727L4.49997 4.56238Q4.29108 4.77417 4.29108 4.93744Q4.29108 5.01907 4.33205 5.10231Q4.37302 5.18555 4.49997 5.31952L8.83987 9.76318Q8.94211 9.86832 9.09683 9.86832Q9.2601 9.86832 9.36386 9.76326Q9.46762 9.6582 9.46762 9.51599Q9.46762 9.42993 9.43848 9.36218Q9.40933 9.29443 9.34845 9.23355L5.36957 5.19684Q5.961 5.02884 6.74652 4.93782Q7.53204 4.8468 8.35159 4.8468Q9.95697 4.8468 11.3418 5.42534Q12.7266 6.00388 13.7708 7.04102Q14.8149 8.07816 15.4004 9.45587Q15.9859 10.8336 15.9859 12.4249Q15.9859 14.0332 15.4004 15.4228Q14.8149 16.8124 13.7708 17.858Q12.7266 18.9035 11.3418 19.4912Q9.95697 20.0789 8.35159 20.0789Q6.75034 20.0789 5.3656 19.4912Q3.98087 18.9035 2.93671 17.858Q1.89255 16.8124 1.31058 15.4228Q0.728607 14.0332 0.728607 12.4249Q0.728607 12.2632 0.628967 12.1603Q0.529327 12.0573 0.367584 12.0573Q0.205841 12.0573 0.102921 12.1603Q0 12.2632 0 12.4249Z" fill="#007aff"/>
 </g>
</svg>
