<?xml version="1.0" encoding="UTF-8"?>
<!--Generator: Apple Native CoreSVG 175-->
<!DOCTYPE svg
PUBLIC "-//W3C//DTD SVG 1.1//EN"
       "http://www.w3.org/Graphics/SVG/1.1/DTD/svg11.dtd">
<svg version="1.1" xmlns="http://www.w3.org/2000/svg" xmlns:xlink="http://www.w3.org/1999/xlink" width="17.2852" height="17.5293">
 <g>
  <rect height="17.5293" opacity="0" width="17.2852" x="0" y="0"/>
  <path d="M2.62695 17.2852L14.6484 17.2852Q15.957 17.2852 16.6211 16.6162Q17.2852 15.9473 17.2852 14.6582L17.2852 2.62695Q17.2852 1.34766 16.6211 0.673828Q15.957 0 14.6484 0L2.62695 0Q1.33789 0 0.668945 0.664062Q0 1.32812 0 2.62695L0 14.6582Q0 15.957 0.668945 16.6211Q1.33789 17.2852 2.62695 17.2852ZM4.13086 9.7168Q4.13086 8.74023 4.56543 8.0127Q5 7.28516 5.78613 6.88477Q6.57227 6.48438 7.61719 6.48438L11.2109 6.48438L12.1582 6.51367L11.6992 6.13281L10.0098 4.48242Q9.88281 4.35547 9.88281 4.19922Q9.88281 4.05273 9.97559 3.94531Q10.0684 3.83789 10.2441 3.83789Q10.4004 3.83789 10.5176 3.93555L12.998 6.47461Q13.1543 6.63086 13.1543 6.83594Q13.1543 7.02148 12.998 7.1875L10.5078 9.72656Q10.3809 9.84375 10.2441 9.84375Q10.0781 9.84375 9.98047 9.73633Q9.88281 9.62891 9.88281 9.47266Q9.88281 9.32617 10.0098 9.17969L11.7383 7.49023L12.1484 7.1582L11.2109 7.17773L7.61719 7.17773Q6.35742 7.17773 5.60059 7.88086Q4.84375 8.58398 4.84375 9.7168Q4.84375 10.8691 5.60547 11.5771Q6.36719 12.2852 7.61719 12.2852L9.11133 12.2852Q9.27734 12.2852 9.375 12.3779Q9.47266 12.4707 9.47266 12.627Q9.47266 12.793 9.37012 12.8906Q9.26758 12.9883 9.12109 12.9883L7.61719 12.9883Q6.58203 12.9883 5.79102 12.5781Q5 12.168 4.56543 11.4355Q4.13086 10.7031 4.13086 9.7168Z" fill="#007aff"/>
 </g>
</svg>
