<?xml version="1.0" encoding="UTF-8"?>
<!--Generator: Apple Native CoreSVG 175-->
<!DOCTYPE svg
PUBLIC "-//W3C//DTD SVG 1.1//EN"
       "http://www.w3.org/Graphics/SVG/1.1/DTD/svg11.dtd">
<svg version="1.1" xmlns="http://www.w3.org/2000/svg" xmlns:xlink="http://www.w3.org/1999/xlink" width="19.1602" height="19.1504">
 <g>
  <rect height="19.1504" opacity="0" width="19.1602" x="0" y="0"/>
  <path d="M9.57031 19.1406Q11.5527 19.1406 13.2861 18.3984Q15.0195 17.6562 16.3379 16.333Q17.6562 15.0098 18.4082 13.2764Q19.1602 11.543 19.1602 9.57031Q19.1602 7.59766 18.4082 5.86426Q17.6562 4.13086 16.3379 2.80762Q15.0195 1.48438 13.2861 0.742188Q11.5527 0 9.57031 0Q7.59766 0 5.86426 0.742188Q4.13086 1.48438 2.81738 2.80762Q1.50391 4.13086 0.751953 5.86426Q0 7.59766 0 9.57031Q0 11.543 0.74707 13.2764Q1.49414 15.0098 2.8125 16.333Q4.13086 17.6562 5.86914 18.3984Q7.60742 19.1406 9.57031 19.1406Z" fill="#ffffff"/>
  <path d="M3.91602 9.56055Q3.91602 9.41406 4.01367 9.32129Q4.11133 9.22852 4.25781 9.22852L9.64844 9.22852L11.4844 9.25781L9.58984 7.42188L8.42773 6.2793Q8.35938 6.23047 8.3252 6.15723Q8.29102 6.08398 8.29102 5.99609Q8.29102 5.83984 8.38867 5.74219Q8.48633 5.64453 8.63281 5.64453Q8.79883 5.64453 8.90625 5.78125L12.4121 9.30664Q12.4707 9.35547 12.5 9.42383Q12.5293 9.49219 12.5293 9.56055Q12.5293 9.62891 12.5 9.69727Q12.4707 9.76562 12.4121 9.81445L8.94531 13.291Q8.88672 13.3594 8.80859 13.4131Q8.73047 13.4668 8.62305 13.4668Q8.48633 13.4668 8.38867 13.374Q8.29102 13.2812 8.29102 13.125Q8.29102 13.0371 8.3252 12.9639Q8.35938 12.8906 8.42773 12.832L9.61914 11.6602L11.4844 9.86328L9.64844 9.90234L4.25781 9.90234Q4.11133 9.90234 4.01367 9.80957Q3.91602 9.7168 3.91602 9.56055ZM13.8281 13.5449Q13.6816 13.5449 13.5938 13.457Q13.5059 13.3691 13.5059 13.2227L13.5059 5.89844Q13.5059 5.76172 13.5938 5.66406Q13.6816 5.56641 13.8281 5.56641Q13.9746 5.56641 14.0723 5.66406Q14.1699 5.76172 14.1699 5.89844L14.1699 13.2227Q14.1699 13.3691 14.0723 13.457Q13.9746 13.5449 13.8281 13.5449Z" fill="#ffffff"/>
 </g>
</svg>
