<?xml version="1.0" encoding="UTF-8"?>
<!--Generator: Apple Native CoreSVG 175.5-->
<!DOCTYPE svg
PUBLIC "-//W3C//DTD SVG 1.1//EN"
       "http://www.w3.org/Graphics/SVG/1.1/DTD/svg11.dtd">
<svg version="1.1" xmlns="http://www.w3.org/2000/svg" xmlns:xlink="http://www.w3.org/1999/xlink" width="24.1804" height="17.998">
 <g>
  <rect height="17.998" opacity="0" width="24.1804" x="0" y="0"/>
  <path d="M0.234751 6.78711Q0.488657 7.04102 0.80604 7.02637Q1.12342 7.01172 1.36756 6.76758L2.30506 5.83984L3.75038 4.30664L3.75038 14.9707Q3.75038 16.4844 4.52186 17.2412Q5.29334 17.998 6.81678 17.998L14.766 17.998Q15.1859 17.998 15.4154 17.793Q15.6449 17.5879 15.6351 17.2168Q15.6351 16.8359 15.4105 16.6309Q15.1859 16.4258 14.766 16.4258L6.84608 16.4258Q6.11366 16.4258 5.71815 16.04Q5.32264 15.6543 5.32264 14.8926L5.32264 4.28711L6.77772 5.83984L7.71522 6.76758Q7.96913 7.01172 8.28163 7.02637Q8.59413 7.04102 8.84803 6.78711Q9.09217 6.54297 9.08729 6.2207Q9.08241 5.89844 8.8285 5.6543L5.53748 2.37305Q5.05897 1.9043 4.54627 1.9043Q4.03358 1.9043 3.55506 2.37305L0.264047 5.6543Q0.0101412 5.89844 0.000375601 6.2207Q-0.00939002 6.54297 0.234751 6.78711ZM8.5453 0.800781Q8.55506 1.18164 8.77967 1.38672Q9.00428 1.5918 9.41444 1.5918L17.3441 1.5918Q18.0765 1.5918 18.4672 1.97754Q18.8578 2.36328 18.8578 3.125L18.8578 13.7305L17.4027 12.168L16.4652 11.25Q16.2113 11.0059 15.8988 10.9912Q15.5863 10.9766 15.3324 11.2207Q15.0883 11.4746 15.0931 11.792Q15.098 12.1094 15.3519 12.3633L18.643 15.6348Q19.1215 16.1133 19.639 16.1133Q20.1566 16.1133 20.6351 15.6348L23.9164 12.3633Q24.1703 12.1094 24.1801 11.792Q24.1898 11.4746 23.9457 11.2207Q23.6918 10.9766 23.3793 10.9912Q23.0668 11.0059 22.8129 11.25L21.8754 12.168L20.4301 13.7109L20.4301 3.04688Q20.4301 1.5332 19.6635 0.776367Q18.8969 0.0195312 17.3637 0.0195312L9.41444 0.0195312Q9.00428 0.0195312 8.76991 0.224609Q8.53553 0.429688 8.5453 0.800781Z" fill="#007aff"/>
 </g>
</svg>
