<?xml version="1.0" encoding="UTF-8"?>
<!--Generator: Apple Native CoreSVG 175.5-->
<!DOCTYPE svg
PUBLIC "-//W3C//DTD SVG 1.1//EN"
       "http://www.w3.org/Graphics/SVG/1.1/DTD/svg11.dtd">
<svg version="1.1" xmlns="http://www.w3.org/2000/svg" xmlns:xlink="http://www.w3.org/1999/xlink" width="23.9062" height="17.9395">
 <g>
  <rect height="17.9395" opacity="0" width="23.9062" x="0" y="0"/>
  <path d="M2.41211 17.8613L8.30078 17.8613Q9.57031 17.8613 10.1416 17.2998Q10.7129 16.7383 10.7129 15.498L10.7129 13.2715L13.2227 13.2715L13.2227 16.7773Q13.2227 17.2754 13.5449 17.5977Q13.8672 17.9199 14.3652 17.9199Q14.7266 17.9199 15.0391 17.7637Q15.3516 17.6074 15.7031 17.2852L23.4082 10.0098Q23.6914 9.74609 23.7988 9.47266Q23.9062 9.19922 23.9062 8.96484Q23.9062 8.71094 23.7988 8.44238Q23.6914 8.17383 23.4082 7.91016L15.7031 0.703125Q15.3125 0.332031 15.0293 0.166016Q14.7461 0 14.3848 0Q13.877 0 13.5498 0.356445Q13.2227 0.712891 13.2227 1.20117L13.2227 4.99023L6.88477 4.99023Q5.61523 4.99023 5.04395 5.54688Q4.47266 6.10352 4.47266 7.35352L4.47266 9.39453L2.41211 9.39453Q1.14258 9.39453 0.571289 9.95117Q0 10.5078 0 11.748L0 15.498Q0 16.7383 0.571289 17.2998Q1.14258 17.8613 2.41211 17.8613ZM2.5293 16.3281Q1.57227 16.3281 1.57227 15.2637L1.57227 11.9824Q1.57227 10.9277 2.5293 10.9277L4.49219 10.9277L4.49219 11.3965Q4.49219 11.8457 4.65332 12.1777Q4.81445 12.5098 5.22461 12.7637L9.14062 15.1562L9.14062 15.2637Q9.14062 16.3281 8.18359 16.3281ZM14.9316 15.8203Q14.7949 15.8203 14.7949 15.6738L14.7949 11.8945Q14.7949 11.5723 14.4629 11.5723L7.00195 11.5723Q6.04492 11.5723 6.04492 10.5078L6.04492 7.43164Q6.04492 6.36719 7.00195 6.36719L14.4629 6.36719Q14.7949 6.36719 14.7949 6.04492L14.7949 2.16797Q14.7949 2.03125 14.9316 2.03125Q14.9805 2.03125 15.0195 2.05566Q15.0586 2.08008 15.0977 2.10938L22.0508 8.7793Q22.1582 8.87695 22.1582 8.96484Q22.1582 9.00391 22.1338 9.04785Q22.1094 9.0918 22.0508 9.15039L15.0977 15.7324Q15.0098 15.8203 14.9316 15.8203Z" fill="#007aff"/>
 </g>
</svg>
