<?xml version="1.0" encoding="UTF-8"?>
<!--Generator: Apple Native CoreSVG 175-->
<!DOCTYPE svg
PUBLIC "-//W3C//DTD SVG 1.1//EN"
       "http://www.w3.org/Graphics/SVG/1.1/DTD/svg11.dtd">
<svg version="1.1" xmlns="http://www.w3.org/2000/svg" xmlns:xlink="http://www.w3.org/1999/xlink" width="14.0625" height="14.0527">
 <g>
  <rect height="14.0527" opacity="0" width="14.0625" x="0" y="0"/>
  <path d="M14.0625 10.625L14.0332 0.419922Q14.0332 0.234375 13.9258 0.117188Q13.8184 0 13.6328 0L3.4082 0Q3.23242 0 3.12012 0.117188Q3.00781 0.234375 3.00781 0.390625Q3.00781 0.546875 3.12012 0.649414Q3.23242 0.751953 3.39844 0.751953L8.73047 0.751953L12.8809 0.693359L11.2891 2.20703L0.117188 13.3887Q0 13.5059 0 13.6523Q0 13.7598 0.0537109 13.8477Q0.107422 13.9355 0.195312 13.9893Q0.283203 14.043 0.390625 14.043Q0.527344 14.043 0.654297 13.9258L11.8262 2.75391L13.3398 1.17188L13.291 4.48242L13.291 10.6348Q13.291 10.8008 13.4033 10.918Q13.5156 11.0352 13.6719 11.0352Q13.8379 11.0352 13.9502 10.918Q14.0625 10.8008 14.0625 10.625Z" fill="#000000"/>
 </g>
</svg>
