<?xml version="1.0" encoding="UTF-8"?>
<!--Generator: Apple Native CoreSVG 175-->
<!DOCTYPE svg
PUBLIC "-//W3C//DTD SVG 1.1//EN"
       "http://www.w3.org/Graphics/SVG/1.1/DTD/svg11.dtd">
<svg version="1.1" xmlns="http://www.w3.org/2000/svg" xmlns:xlink="http://www.w3.org/1999/xlink" width="22.8375" height="17.1381">
 <g>
  <rect height="17.1381" opacity="0" width="22.8375" x="0" y="0"/>
  <path d="M13.8028 17.0412Q14.0445 17.0412 14.2445 16.9306Q14.4446 16.8201 14.6274 16.6524L22.2833 9.52469Q22.6367 9.18365 22.7371 8.95592Q22.8375 8.72818 22.8375 8.52203Q22.8375 8.31726 22.7406 8.08739Q22.6437 7.85751 22.2833 7.5235L14.6274 0.407867Q14.4336 0.226593 14.2383 0.113297Q14.043 0 13.8083 0Q13.4621 0 13.2756 0.233459Q13.0891 0.466919 13.0891 0.786438L13.0891 4.99023L6.51917 4.99023Q5.63629 4.99023 5.20912 5.42038Q4.78195 5.85052 4.78195 6.75598L4.78195 8.46649L1.74423 8.46649Q0.861359 8.46649 0.430679 8.89656Q0 9.32663 0 10.2295L0 14.6404Q0 15.5431 0.430679 15.978Q0.861359 16.413 1.74423 16.413L7.3024 16.413Q8.17825 16.413 8.60886 15.978Q9.03946 15.5431 9.03946 14.6404L9.03946 12.2099L13.0891 12.2099L13.0891 16.2712Q13.0891 16.5935 13.2742 16.8173Q13.4593 17.0412 13.8028 17.0412ZM8.32001 14.2993L5.86517 12.9724Q5.33508 12.6837 5.09216 12.3181Q4.84924 11.9525 4.84528 11.5282Q4.84253 11.3676 4.95483 11.3481Q5.06714 11.3286 5.14954 11.5076Q5.25391 11.7455 5.43808 11.9019Q5.62225 12.0583 5.89767 12.1376Q6.1731 12.2169 6.54175 12.2169L8.43994 12.2169L8.43994 14.2477Q8.43994 14.2938 8.40088 14.3098Q8.36182 14.3259 8.32001 14.2993Z" fill="#007aff"/>
 </g>
</svg>
