<?xml version="1.0" encoding="UTF-8"?>
<!--Generator: Apple Native CoreSVG 175.5-->
<!DOCTYPE svg
PUBLIC "-//W3C//DTD SVG 1.1//EN"
       "http://www.w3.org/Graphics/SVG/1.1/DTD/svg11.dtd">
<svg version="1.1" xmlns="http://www.w3.org/2000/svg" xmlns:xlink="http://www.w3.org/1999/xlink" width="19.9219" height="19.9316">
 <g>
  <rect height="19.9316" opacity="0" width="19.9219" x="0" y="0"/>
  <path d="M9.96094 19.9219Q12.002 19.9219 13.8037 19.1406Q15.6055 18.3594 16.9824 16.9824Q18.3594 15.6055 19.1406 13.8037Q19.9219 12.002 19.9219 9.96094Q19.9219 7.91992 19.1406 6.11816Q18.3594 4.31641 16.9824 2.93945Q15.6055 1.5625 13.7988 0.78125Q11.9922 0 9.95117 0Q7.91016 0 6.1084 0.78125Q4.30664 1.5625 2.93457 2.93945Q1.5625 4.31641 0.78125 6.11816Q0 7.91992 0 9.96094Q0 12.002 0.78125 13.8037Q1.5625 15.6055 2.93945 16.9824Q4.31641 18.3594 6.11816 19.1406Q7.91992 19.9219 9.96094 19.9219ZM9.96094 18.2617Q8.23242 18.2617 6.72852 17.6172Q5.22461 16.9727 4.08691 15.835Q2.94922 14.6973 2.30957 13.1934Q1.66992 11.6895 1.66992 9.96094Q1.66992 8.23242 2.30957 6.72852Q2.94922 5.22461 4.08203 4.08203Q5.21484 2.93945 6.71875 2.2998Q8.22266 1.66016 9.95117 1.66016Q11.6797 1.66016 13.1885 2.2998Q14.6973 2.93945 15.835 4.08203Q16.9727 5.22461 17.6172 6.72852Q18.2617 8.23242 18.2617 9.96094Q18.2617 11.6895 17.6221 13.1934Q16.9824 14.6973 15.8398 15.835Q14.6973 16.9727 13.1934 17.6172Q11.6895 18.2617 9.96094 18.2617Z" fill="#007aff"/>
  <path d="M5.74219 9.95117Q6.02539 9.95117 6.22559 9.75098Q6.42578 9.55078 6.42578 9.25781L6.42578 8.78906L6.32812 7.23633L8.4375 9.46289Q8.65234 9.6875 8.95508 9.6875Q9.25781 9.6875 9.47266 9.47266Q9.6875 9.25781 9.68262 8.9502Q9.67773 8.64258 9.46289 8.4375L7.26562 6.32812L8.75977 6.42578L9.23828 6.43555Q9.52148 6.43555 9.72168 6.23047Q9.92188 6.02539 9.92188 5.74219Q9.92188 5.45898 9.72168 5.25879Q9.52148 5.05859 9.23828 5.05859L5.84961 5.05859Q5.46875 5.05859 5.25879 5.24414Q5.04883 5.42969 5.04883 5.85938L5.04883 9.25781Q5.04883 9.55078 5.24902 9.75098Q5.44922 9.95117 5.74219 9.95117ZM10.6738 14.873L14.0527 14.873Q14.4336 14.873 14.6484 14.6875Q14.8633 14.502 14.8633 14.0723L14.8633 10.6738Q14.8633 10.3809 14.6631 10.1807Q14.4629 9.98047 14.1699 9.98047Q13.8867 9.98047 13.6865 10.1807Q13.4863 10.3809 13.4863 10.6738L13.4863 11.1426L13.584 12.6953L11.4746 10.4688Q11.2598 10.2441 10.957 10.2441Q10.6543 10.2441 10.4395 10.459Q10.2246 10.6738 10.2295 10.9814Q10.2344 11.2891 10.4492 11.4941L12.6465 13.6035L11.1523 13.5059L10.6738 13.4961Q10.3906 13.4961 10.1855 13.7012Q9.98047 13.9062 9.98047 14.1895Q9.98047 14.4727 10.1855 14.6729Q10.3906 14.873 10.6738 14.873Z" fill="#007aff"/>
 </g>
</svg>
