<?xml version="1.0" encoding="UTF-8"?>
<!--Generator: Apple Native CoreSVG 175.5-->
<!DOCTYPE svg
PUBLIC "-//W3C//DTD SVG 1.1//EN"
       "http://www.w3.org/Graphics/SVG/1.1/DTD/svg11.dtd">
<svg version="1.1" xmlns="http://www.w3.org/2000/svg" xmlns:xlink="http://www.w3.org/1999/xlink" width="14.873" height="17.2168">
 <g>
  <rect height="17.2168" opacity="0" width="14.873" x="0" y="0"/>
  <path d="M7.44141 0Q7.06055 0 6.81152 0.244141Q6.5625 0.488281 6.5625 0.869141L6.5625 10.7324L6.64062 12.832L3.70117 9.60938L1.51367 7.45117Q1.39648 7.33398 1.23047 7.27051Q1.06445 7.20703 0.888672 7.20703Q0.517578 7.20703 0.27832 7.45605Q0.0390625 7.70508 0.0390625 8.06641Q0.0390625 8.24219 0.112305 8.40332Q0.185547 8.56445 0.322266 8.7207L6.78711 15.1855Q6.92383 15.332 7.08984 15.4102Q7.25586 15.4883 7.44141 15.4883Q7.61719 15.4883 7.78809 15.4102Q7.95898 15.332 8.0957 15.1855L14.5508 8.7207Q14.6973 8.56445 14.7705 8.40332Q14.8438 8.24219 14.8438 8.06641Q14.8438 7.70508 14.6045 7.45605Q14.3652 7.20703 13.9941 7.20703Q13.8184 7.20703 13.6523 7.27051Q13.4863 7.33398 13.3691 7.45117L11.1816 9.60938L8.24219 12.8223L8.31055 10.7324L8.31055 0.869141Q8.31055 0.488281 8.06641 0.244141Q7.82227 0 7.44141 0ZM0.839844 15.4688Q0.46875 15.4688 0.234375 15.7129Q0 15.957 0 16.3379Q0 16.7188 0.234375 16.9678Q0.46875 17.2168 0.839844 17.2168L14.0137 17.2168Q14.3945 17.2168 14.6338 16.9678Q14.873 16.7188 14.873 16.3379Q14.873 15.957 14.6338 15.7129Q14.3945 15.4688 14.0137 15.4688Z" fill="#007aff"/>
 </g>
</svg>
