<?xml version="1.0" encoding="UTF-8"?>
<!--Generator: Apple Native CoreSVG 175-->
<!DOCTYPE svg
PUBLIC "-//W3C//DTD SVG 1.1//EN"
       "http://www.w3.org/Graphics/SVG/1.1/DTD/svg11.dtd">
<svg version="1.1" xmlns="http://www.w3.org/2000/svg" xmlns:xlink="http://www.w3.org/1999/xlink" width="20.0986" height="17.048">
 <g>
  <rect height="17.048" opacity="0" width="20.0986" x="0" y="0"/>
  <path d="M11.0637 17.0383Q11.3028 17.0383 11.5041 16.9291Q11.7055 16.8199 11.8884 16.6496L19.5442 9.51477Q19.8978 9.18091 19.9982 8.95317Q20.0986 8.72543 20.0986 8.51913Q20.0986 8.31009 20.0017 8.08235Q19.9048 7.85461 19.5442 7.52075L11.8884 0.405121Q11.6946 0.216827 11.5015 0.108414Q11.3083 0 11.0692 0Q10.7204 0 10.5338 0.2285Q10.3473 0.457001 10.3473 0.783539L10.3473 4.96719L9.93759 4.96719Q7.64801 4.96719 5.80917 5.63713Q3.97034 6.30707 2.67441 7.68906Q1.37848 9.07104 0.68924 11.1954Q0 13.3199 0 16.2289Q0 16.6035 0.19516 16.8209Q0.39032 17.0383 0.668488 17.0383Q0.910645 17.0383 1.09093 16.9148Q1.27121 16.7914 1.41968 16.4633Q2.11456 14.9039 3.25592 13.9584Q4.39728 13.0128 6.04927 12.582Q7.70126 12.1512 9.93759 12.1512L10.3473 12.1512L10.3473 16.2613Q10.3473 16.5906 10.5373 16.8144Q10.7274 17.0383 11.0637 17.0383Z" fill="#007aff"/>
 </g>
</svg>
