<?xml version="1.0" encoding="UTF-8"?>
<!--Generator: Apple Native CoreSVG 175-->
<!DOCTYPE svg
PUBLIC "-//W3C//DTD SVG 1.1//EN"
       "http://www.w3.org/Graphics/SVG/1.1/DTD/svg11.dtd">
<svg version="1.1" xmlns="http://www.w3.org/2000/svg" xmlns:xlink="http://www.w3.org/1999/xlink" width="24.863" height="19.6097">
 <g>
  <rect height="19.6097" opacity="0" width="24.863" x="0" y="0"/>
  <path d="M8.9856 10.6528Q9.30939 10.4582 9.42619 10.1459Q9.543 9.83353 9.4381 9.51637Q9.33319 9.19922 8.9856 8.99063L1.49887 4.36798Q1.18484 4.17343 0.836182 4.17381Q0.487518 4.17419 0.243759 4.40292Q0 4.63165 0 5.13748L0 14.503Q0 15.0073 0.245132 15.2396Q0.490265 15.4718 0.838928 15.4695Q1.18759 15.4672 1.49887 15.2754ZM8.57346 10.1273L1.2262 14.675Q1.08917 14.7589 0.879974 14.7359Q0.670776 14.7128 0.670776 14.3542L0.670776 5.289Q0.670776 4.92493 0.881348 4.90463Q1.09192 4.88434 1.2262 4.96841L8.55667 9.49219Q8.79852 9.64447 8.77136 9.83414Q8.7442 10.0238 8.57346 10.1273ZM12.4301 19.6097Q12.5755 19.6097 12.6778 19.5094Q12.7802 19.409 12.7802 19.2636L12.7802 0.376892Q12.7802 0.234375 12.6778 0.133972Q12.5755 0.0335693 12.4301 0.0335693Q12.2876 0.0335693 12.1852 0.133972Q12.0828 0.234375 12.0828 0.376892L12.0828 19.2636Q12.0828 19.409 12.1852 19.5094Q12.2876 19.6097 12.4301 19.6097ZM23.3684 15.2754Q23.6755 15.4672 24.0228 15.4695Q24.37 15.4718 24.6165 15.2396Q24.863 15.0073 24.863 14.503L24.863 5.13748Q24.863 4.63165 24.6178 4.40292Q24.3727 4.17419 24.0255 4.17381Q23.6783 4.17343 23.3684 4.36798L15.8746 8.99063Q15.527 9.19922 15.4235 9.51637Q15.32 9.83353 15.4354 10.1459Q15.5508 10.4582 15.8746 10.6528ZM23.634 14.675L16.2965 10.1273Q16.1232 10.0238 16.0939 9.83414Q16.0646 9.64447 16.3036 9.49219L23.634 4.96841Q23.7685 4.88434 23.979 4.90463Q24.1895 4.92493 24.1895 5.289L24.1895 14.3542Q24.1895 14.7128 23.9817 14.7359Q23.774 14.7589 23.634 14.675Z" fill="#000000"/>
 </g>
</svg>
