<?xml version="1.0" encoding="UTF-8"?>
<!--Generator: Apple Native CoreSVG 175-->
<!DOCTYPE svg
PUBLIC "-//W3C//DTD SVG 1.1//EN"
       "http://www.w3.org/Graphics/SVG/1.1/DTD/svg11.dtd">
<svg version="1.1" xmlns="http://www.w3.org/2000/svg" xmlns:xlink="http://www.w3.org/1999/xlink" width="14.2352" height="18.0817">
 <g>
  <rect height="18.0817" opacity="0" width="14.2352" x="0" y="0"/>
  <path d="M7.12112 0Q6.95816 0 6.85463 0.105667Q6.7511 0.211334 6.7511 0.367279L6.7511 14.8598L6.78558 17.1863L6.95282 17.1176L4.55353 14.6227L0.639496 10.7195Q0.592651 10.6726 0.519409 10.6492Q0.446167 10.6258 0.361786 10.6258Q0.211334 10.6258 0.105667 10.7293Q0 10.8328 0 10.9973Q0 11.152 0.118713 11.2735L6.83945 17.9645Q6.90155 18.0196 6.96915 18.0506Q7.03674 18.0817 7.12112 18.0817Q7.20123 18.0817 7.26883 18.0506Q7.33643 18.0196 7.39578 17.9645L14.1261 11.2735Q14.2352 11.152 14.2352 10.9973Q14.2352 10.8328 14.1296 10.7293Q14.0239 10.6258 13.8734 10.6258Q13.7891 10.6258 13.7158 10.6492Q13.6426 10.6726 13.5957 10.7195L9.6817 14.6227L7.27966 17.1176L7.44965 17.1863L7.491 14.8598L7.491 0.367279Q7.491 0.211334 7.38396 0.105667Q7.27692 0 7.12112 0Z" fill="#ffffff"/>
 </g>
</svg>
