<?xml version="1.0" encoding="UTF-8"?>
<!--Generator: Apple Native CoreSVG 175.5-->
<!DOCTYPE svg
PUBLIC "-//W3C//DTD SVG 1.1//EN"
       "http://www.w3.org/Graphics/SVG/1.1/DTD/svg11.dtd">
<svg version="1.1" xmlns="http://www.w3.org/2000/svg" xmlns:xlink="http://www.w3.org/1999/xlink" width="17.9785" height="17.998">
 <g>
  <rect height="17.998" opacity="0" width="17.9785" x="0" y="0"/>
  <path d="M3.06641 17.998L14.9121 17.998Q16.4453 17.998 17.2119 17.2412Q17.9785 16.4844 17.9785 14.9707L17.9785 3.04688Q17.9785 1.5332 17.2119 0.776367Q16.4453 0.0195312 14.9121 0.0195312L3.06641 0.0195312Q1.5332 0.0195312 0.766602 0.776367Q0 1.5332 0 3.04688L0 14.9707Q0 16.4844 0.766602 17.2412Q1.5332 17.998 3.06641 17.998Z" fill="#007aff"/>
  <path d="M4.27734 5.49805L6.80664 3.04688Q7.02148 2.83203 7.28516 2.83203Q7.56836 2.83203 7.74902 3.0127Q7.92969 3.19336 7.92969 3.47656Q7.92969 3.75977 7.73438 3.94531L6.66992 4.98047L6.26953 5.3418L6.73828 5.33203L13.252 5.33203Q13.5352 5.33203 13.7207 5.51758Q13.9062 5.70312 13.9062 5.98633Q13.9062 6.26953 13.7207 6.45996Q13.5352 6.65039 13.252 6.65039L6.72852 6.65039L6.25977 6.62109L6.66992 7.01172L7.73438 8.03711Q7.92969 8.23242 7.92969 8.50586Q7.92969 8.78906 7.74902 8.96484Q7.56836 9.14062 7.28516 9.14062Q7.03125 9.14062 6.80664 8.95508L4.27734 6.47461Q4.08203 6.2793 4.08203 5.98633Q4.08203 5.69336 4.27734 5.49805ZM13.6914 12.5L11.1719 14.9805Q10.9375 15.1855 10.6934 15.1855Q10.4199 15.1855 10.2344 15Q10.0488 14.8145 10.0488 14.541Q10.0488 14.2871 10.2539 14.0723L11.3086 13.0371L11.7285 12.6758L11.2402 12.6855L4.72656 12.6855Q4.45312 12.6855 4.26758 12.5Q4.08203 12.3145 4.08203 12.0215Q4.08203 11.7383 4.26758 11.5527Q4.45312 11.3672 4.72656 11.3672L11.25 11.3672L11.7285 11.3965L11.3086 11.0059L10.2344 9.98047Q10.0488 9.78516 10.0488 9.51172Q10.0488 9.23828 10.2295 9.05762Q10.4102 8.87695 10.6934 8.87695Q10.9668 8.87695 11.1719 9.07227L13.6914 11.5527Q13.8965 11.748 13.9014 12.0215Q13.9062 12.2949 13.6914 12.5Z" fill="#ffffff"/>
 </g>
</svg>
