<?xml version="1.0" encoding="UTF-8"?>
<!--Generator: Apple Native CoreSVG 175.5-->
<!DOCTYPE svg
PUBLIC "-//W3C//DTD SVG 1.1//EN"
       "http://www.w3.org/Graphics/SVG/1.1/DTD/svg11.dtd">
<svg version="1.1" xmlns="http://www.w3.org/2000/svg" xmlns:xlink="http://www.w3.org/1999/xlink" width="12.0605" height="19.2285">
 <g>
  <rect height="19.2285" opacity="0" width="12.0605" x="0" y="0"/>
  <path d="M6.03516 19.2285Q6.21094 19.2285 6.37695 19.1602Q6.54297 19.0918 6.68945 18.9453L11.7969 13.7305Q12.0605 13.457 12.0605 13.0957Q12.0605 12.7051 11.8213 12.4658Q11.582 12.2266 11.2012 12.2266Q11.0156 12.2266 10.8691 12.29Q10.7227 12.3535 10.6055 12.4707L8.38867 14.7559L6.80664 16.582L6.9043 14.3164L6.9043 4.91211L6.80664 2.64648L8.38867 4.47266L10.6055 6.75781Q10.7227 6.875 10.8691 6.93848Q11.0156 7.00195 11.2012 7.00195Q11.582 7.00195 11.8213 6.7627Q12.0605 6.52344 12.0605 6.13281Q12.0605 5.77148 11.7969 5.49805L6.68945 0.283203Q6.54297 0.136719 6.37695 0.0683594Q6.21094 0 6.03516 0Q5.84961 0 5.68359 0.0683594Q5.51758 0.136719 5.38086 0.283203L0.273438 5.49805Q0 5.77148 0 6.13281Q0 6.52344 0.239258 6.7627Q0.478516 7.00195 0.859375 7.00195Q1.04492 7.00195 1.19141 6.93848Q1.33789 6.875 1.45508 6.75781L3.68164 4.47266L5.25391 2.64648L5.16602 4.91211L5.16602 14.3164L5.25391 16.582L3.68164 14.7559L1.45508 12.4707Q1.33789 12.3535 1.19141 12.29Q1.04492 12.2266 0.859375 12.2266Q0.478516 12.2266 0.239258 12.4658Q0 12.7051 0 13.0957Q0 13.457 0.273438 13.7305L5.38086 18.9453Q5.51758 19.0918 5.68359 19.1602Q5.84961 19.2285 6.03516 19.2285Z" fill="#007aff"/>
 </g>
</svg>
