<?xml version="1.0" encoding="UTF-8"?>
<!--Generator: Apple Native CoreSVG 175-->
<!DOCTYPE svg
PUBLIC "-//W3C//DTD SVG 1.1//EN"
       "http://www.w3.org/Graphics/SVG/1.1/DTD/svg11.dtd">
<svg version="1.1" xmlns="http://www.w3.org/2000/svg" xmlns:xlink="http://www.w3.org/1999/xlink" width="23.7804" height="17.323">
 <g>
  <rect height="17.323" opacity="0" width="23.7804" x="0" y="0"/>
  <path d="M0.115608 6.8222Q0.228828 6.93558 0.377449 6.92795Q0.52607 6.92032 0.636696 6.79565L1.93278 5.52338L3.90543 3.46985L3.90543 14.6965Q3.90543 15.9921 4.57491 16.6576Q5.24439 17.323 6.54292 17.323L15.7507 17.323Q15.9175 17.323 16.0239 17.2199Q16.1303 17.1169 16.1276 16.9637Q16.1276 16.8007 16.0225 16.6976Q15.9175 16.5945 15.7507 16.5945L6.56519 16.5945Q5.61472 16.5945 5.12431 16.1068Q4.63389 15.619 4.63389 14.6605L4.63389 3.46451L6.62333 5.52338L7.91239 6.79565Q8.02576 6.89911 8.1695 6.92085Q8.31324 6.9426 8.43348 6.8222Q8.55814 6.69754 8.54975 6.55106Q8.54136 6.40457 8.42097 6.28708L4.74329 2.61902Q4.52494 2.39639 4.27592 2.39639Q4.02689 2.39639 3.80854 2.61902L0.130867 6.28708Q0.010475 6.40457 0.000709421 6.55106Q-0.0090562 6.69754 0.115608 6.8222ZM7.65269 0.392914Q7.65543 0.555878 7.76049 0.659027Q7.86555 0.762177 8.02973 0.762177L17.218 0.762177Q18.1683 0.762177 18.6608 1.24985Q19.1534 1.73752 19.1534 2.69608L19.1534 13.8922L17.1639 11.8304L15.8749 10.5609Q15.7617 10.4575 15.6144 10.4357Q15.4672 10.414 15.3468 10.5316Q15.2221 10.659 15.2341 10.8041Q15.2461 10.9492 15.3593 11.0695L19.037 14.7348Q19.2553 14.9602 19.5093 14.9602Q19.7633 14.9602 19.9816 14.7348L23.6495 11.0695Q23.7699 10.9492 23.7797 10.8041Q23.7895 10.659 23.6648 10.5316Q23.5514 10.4211 23.4077 10.4322Q23.264 10.4433 23.1437 10.5609L21.8547 11.8304L19.875 13.8867L19.875 2.66006Q19.875 1.36444 19.2068 0.699005Q18.5386 0.0335693 17.2445 0.0335693L8.02973 0.0335693Q7.86555 0.0335693 7.75774 0.136719Q7.64994 0.239868 7.65269 0.392914Z" fill="#007aff"/>
 </g>
</svg>
