<?xml version="1.0" encoding="UTF-8"?>
<!--Generator: Apple Native CoreSVG 175-->
<!DOCTYPE svg
PUBLIC "-//W3C//DTD SVG 1.1//EN"
       "http://www.w3.org/Graphics/SVG/1.1/DTD/svg11.dtd">
<svg version="1.1" xmlns="http://www.w3.org/2000/svg" xmlns:xlink="http://www.w3.org/1999/xlink" width="20.6467" height="21.1795">
 <g>
  <rect height="21.1795" opacity="0" width="20.6467" x="0" y="0"/>
  <path d="M19.8599 21.1795Q20.172 21.1795 20.4093 20.9693Q20.6467 20.7591 20.6467 20.3137L20.6467 12.3982Q20.6467 11.6626 20.3279 11.3438Q20.0092 11.0251 19.2735 11.0251L7.54746 11.0251Q7.33567 11.0251 7.17629 11.1171Q7.01691 11.2091 6.9323 11.3642Q6.84769 11.5193 6.84769 11.7162Q6.84769 11.899 6.93505 12.0595Q7.0224 12.22 7.22351 12.356L19.2688 21.0005Q19.4048 21.0892 19.5595 21.1343Q19.7142 21.1795 19.8599 21.1795ZM19.2735 10.2017Q20.0092 10.2017 20.3279 9.88297Q20.6467 9.56421 20.6467 8.82858L20.6467 0.905914Q20.6467 0.467682 20.4093 0.257492Q20.172 0.0473022 19.8599 0.0473022Q19.7142 0.0473022 19.5595 0.0888824Q19.4048 0.130463 19.2688 0.223541L7.22351 8.8707Q7.0224 9.00665 6.93505 9.16725Q6.84769 9.32785 6.84769 9.51065Q6.84769 9.70749 6.9323 9.86259Q7.01691 10.0177 7.17629 10.1097Q7.33567 10.2017 7.54746 10.2017ZM2.64115 19.729L4.33838 17.4774Q4.53842 17.2247 4.4384 16.9593Q4.33838 16.6939 4.03015 16.6939L2.55371 16.6939L2.55371 4.53293L4.03015 4.53293Q4.33838 4.53293 4.4384 4.2675Q4.53842 4.00208 4.33838 3.74924L2.64115 1.49765Q2.48093 1.28052 2.23389 1.2854Q1.98685 1.29028 1.83365 1.49765L0.130923 3.74924Q-0.0636263 3.99933 0.0322752 4.26613Q0.128177 4.53293 0.451663 4.53293L1.92002 4.53293L1.92002 16.6939L0.451663 16.6939Q0.13367 16.6939 0.0336484 16.9593Q-0.0663729 17.2247 0.130923 17.4774L1.83365 19.729Q1.98685 19.9365 2.23389 19.94Q2.48093 19.9435 2.64115 19.729Z" fill="#000000"/>
 </g>
</svg>
