<?xml version="1.0" encoding="UTF-8"?>
<!--Generator: Apple Native CoreSVG 175-->
<!DOCTYPE svg
PUBLIC "-//W3C//DTD SVG 1.1//EN"
       "http://www.w3.org/Graphics/SVG/1.1/DTD/svg11.dtd">
<svg version="1.1" xmlns="http://www.w3.org/2000/svg" xmlns:xlink="http://www.w3.org/1999/xlink" width="18.1754" height="14.7824">
 <g>
  <rect height="14.7824" opacity="0" width="18.1754" x="0" y="0"/>
  <path d="M0.411682 14.3938Q0.581665 14.3938 0.686569 14.2832Q0.791473 14.1727 0.791473 14.0027Q0.791473 13.8824 0.780334 13.5836Q0.769196 13.2848 0.769196 12.8235Q0.769196 10.9367 1.33148 9.76799Q1.89377 8.59924 3.07289 8.06053Q4.25201 7.52182 6.09802 7.52182L14.6855 7.52182L16.9754 7.48093L14.6237 9.77859L10.7965 13.6238Q10.7523 13.6707 10.7204 13.7453Q10.6886 13.8199 10.6886 13.9043Q10.6886 14.0617 10.8006 14.1709Q10.9125 14.2801 11.077 14.2801Q11.2387 14.2801 11.3531 14.1614L18.0344 7.44766Q18.1754 7.3024 18.1754 7.13516Q18.1754 6.96793 18.0344 6.83243L11.45 0.208588Q11.2387 0 11.077 0Q10.9125 0 10.8006 0.109177Q10.6886 0.218353 10.6886 0.375824Q10.6886 0.453186 10.7156 0.522919Q10.7425 0.592651 10.7965 0.653534L14.6237 4.49875L16.9727 6.79642L14.6855 6.75812L6.08047 6.75812Q2.95547 6.75812 1.47774 8.16772Q0 9.57733 0 12.7777Q0 13.2004 0.00549316 13.5506Q0.0109863 13.9008 0.0386047 14.034Q0.0566101 14.1309 0.0980377 14.2125Q0.139465 14.2941 0.215454 14.3439Q0.291443 14.3938 0.411682 14.3938Z" fill="#000000"/>
 </g>
</svg>
