<?xml version="1.0" encoding="UTF-8"?>
<!--Generator: Apple Native CoreSVG 175-->
<!DOCTYPE svg
PUBLIC "-//W3C//DTD SVG 1.1//EN"
       "http://www.w3.org/Graphics/SVG/1.1/DTD/svg11.dtd">
<svg version="1.1" xmlns="http://www.w3.org/2000/svg" xmlns:xlink="http://www.w3.org/1999/xlink" width="14.2352" height="18.0817">
 <g>
  <rect height="18.0817" opacity="0" width="14.2352" x="0" y="0"/>
  <path d="M7.12112 18.0817Q7.27692 18.0817 7.38396 17.976Q7.491 17.8703 7.491 17.7144L7.491 3.22189L7.44965 0.895386L7.27966 0.96405L9.6817 3.45901L13.5957 7.36221Q13.6426 7.40906 13.7158 7.43248Q13.7891 7.4559 13.8734 7.4559Q14.0239 7.4559 14.1296 7.35237Q14.2352 7.24884 14.2352 7.08435Q14.2352 6.92963 14.1261 6.80817L7.39578 0.117188Q7.33643 0.0621033 7.26883 0.0310516Q7.20123 0 7.12112 0Q7.03674 0 6.96915 0.0310516Q6.90155 0.0621033 6.83945 0.117188L0.118713 6.80817Q0 6.92963 0 7.08435Q0 7.24884 0.105667 7.35237Q0.211334 7.4559 0.361786 7.4559Q0.446167 7.4559 0.519409 7.43248Q0.592651 7.40906 0.639496 7.36221L4.55353 3.45901L6.95282 0.96405L6.78558 0.895386L6.7511 3.22189L6.7511 17.7144Q6.7511 17.8703 6.85463 17.976Q6.95816 18.0817 7.12112 18.0817Z" fill="#007aff"/>
 </g>
</svg>
