<?xml version="1.0" encoding="UTF-8"?>
<!--Generator: Apple Native CoreSVG 175.5-->
<!DOCTYPE svg
PUBLIC "-//W3C//DTD SVG 1.1//EN"
       "http://www.w3.org/Graphics/SVG/1.1/DTD/svg11.dtd">
<svg version="1.1" xmlns="http://www.w3.org/2000/svg" xmlns:xlink="http://www.w3.org/1999/xlink" width="21.0547" height="17.9199">
 <g>
  <rect height="17.9199" opacity="0" width="21.0547" x="0" y="0"/>
  <path d="M0 8.95508Q0 9.18945 0.107422 9.46289Q0.214844 9.73633 0.498047 10L8.20312 17.2754Q8.55469 17.6074 8.86719 17.7588Q9.17969 17.9102 9.54102 17.9102Q10.0391 17.9102 10.3613 17.5879Q10.6836 17.2656 10.6836 16.7676L10.6836 13.0371L18.6133 13.0371Q19.7754 13.0371 20.415 12.4072Q21.0547 11.7773 21.0547 10.6445L21.0547 7.27539Q21.0547 6.14258 20.415 5.5127Q19.7754 4.88281 18.6133 4.88281L10.6836 4.88281L10.6836 1.19141Q10.6836 0.703125 10.3613 0.351562Q10.0391 0 9.52148 0Q9.16016 0 8.87695 0.161133Q8.59375 0.322266 8.20312 0.693359L0.498047 7.90039Q0.214844 8.16406 0.107422 8.4375Q0 8.71094 0 8.95508ZM1.74805 8.95508Q1.74805 8.86719 1.85547 8.76953L8.80859 2.09961Q8.84766 2.07031 8.88672 2.0459Q8.92578 2.02148 8.97461 2.02148Q9.11133 2.02148 9.11133 2.1582L9.11133 6.03516Q9.11133 6.35742 9.44336 6.35742L18.5938 6.35742Q19.0625 6.35742 19.3213 6.61621Q19.5801 6.875 19.5801 7.35352L19.5801 10.5664Q19.5801 11.5625 18.5938 11.5625L9.44336 11.5625Q9.11133 11.5625 9.11133 11.8848L9.11133 15.6641Q9.11133 15.8105 8.98438 15.8105Q8.89648 15.8105 8.81836 15.7227L1.85547 9.14062Q1.79688 9.08203 1.77246 9.03809Q1.74805 8.99414 1.74805 8.95508Z" fill="#007aff"/>
 </g>
</svg>
