<?xml version="1.0" encoding="UTF-8"?>
<!--Generator: Apple Native CoreSVG 175.5-->
<!DOCTYPE svg
PUBLIC "-//W3C//DTD SVG 1.1//EN"
       "http://www.w3.org/Graphics/SVG/1.1/DTD/svg11.dtd">
<svg version="1.1" xmlns="http://www.w3.org/2000/svg" xmlns:xlink="http://www.w3.org/1999/xlink" width="16.4258" height="20.9473">
 <g>
  <rect height="20.9473" opacity="0" width="16.4258" x="0" y="0"/>
  <path d="M3.02734 20.9375L13.3984 20.9375Q14.9121 20.9375 15.6689 20.1709Q16.4258 19.4043 16.4258 17.8809L16.4258 9.01367Q16.4258 8.37891 16.3574 7.94922Q16.2891 7.51953 16.0889 7.16309Q15.8887 6.80664 15.498 6.40625L10.1172 0.927734Q9.74609 0.546875 9.39453 0.34668Q9.04297 0.146484 8.62793 0.0732422Q8.21289 0 7.66602 0L3.02734 0Q1.51367 0 0.756836 0.771484Q0 1.54297 0 3.06641L0 17.8809Q0 19.4141 0.756836 20.1758Q1.51367 20.9375 3.02734 20.9375ZM3.0957 19.3652Q2.34375 19.3652 1.95801 18.9746Q1.57227 18.584 1.57227 17.8516L1.57227 3.0957Q1.57227 2.37305 1.95801 1.97266Q2.34375 1.57227 3.10547 1.57227L7.45117 1.57227L7.45117 7.24609Q7.45117 8.16406 7.91016 8.62305Q8.36914 9.08203 9.28711 9.08203L14.8535 9.08203L14.8535 17.8516Q14.8535 18.584 14.4678 18.9746Q14.082 19.3652 13.3203 19.3652ZM9.46289 7.60742Q9.16992 7.60742 9.04785 7.48047Q8.92578 7.35352 8.92578 7.06055L8.92578 1.875L14.5508 7.60742Z" fill="#007aff"/>
  <path d="M8.95508 10.9277Q8.95508 10.6348 8.73535 10.4199Q8.51562 10.2051 8.21289 10.2051Q7.91016 10.2051 7.69043 10.4199Q7.4707 10.6348 7.4707 10.9277L7.4707 14.4727L7.5293 16.0645L6.69922 15.2051L5.82031 14.3066Q5.71289 14.1992 5.57129 14.1406Q5.42969 14.082 5.29297 14.082Q5 14.082 4.80469 14.2725Q4.60938 14.4629 4.60938 14.7559Q4.60938 14.9219 4.67285 15.0488Q4.73633 15.1758 4.85352 15.2832L7.66602 17.8711Q7.82227 18.0176 7.94434 18.0713Q8.06641 18.125 8.21289 18.125Q8.35938 18.125 8.48145 18.0713Q8.60352 18.0176 8.75977 17.8711L11.5723 15.2832Q11.6895 15.1758 11.7529 15.0488Q11.8164 14.9219 11.8164 14.7559Q11.8164 14.4629 11.6211 14.2725Q11.4258 14.082 11.1328 14.082Q10.9863 14.082 10.8496 14.1406Q10.7129 14.1992 10.6055 14.3066L9.72656 15.2051L8.89648 16.0645L8.95508 14.4727Z" fill="#007aff"/>
 </g>
</svg>
