<?xml version="1.0" encoding="UTF-8"?>
<!--Generator: Apple Native CoreSVG 175-->
<!DOCTYPE svg
PUBLIC "-//W3C//DTD SVG 1.1//EN"
       "http://www.w3.org/Graphics/SVG/1.1/DTD/svg11.dtd">
<svg version="1.1" xmlns="http://www.w3.org/2000/svg" xmlns:xlink="http://www.w3.org/1999/xlink" width="20.0984" height="17.048">
 <g>
  <rect height="17.048" opacity="0" width="20.0984" x="0" y="0"/>
  <path d="M9.03473 17.0383Q9.37805 17.0383 9.56322 16.8144Q9.74838 16.5906 9.74838 16.2613L9.74838 12.1512L10.1582 12.1512Q12.3973 12.1512 14.0492 12.582Q15.7011 13.0128 16.8461 13.9584Q17.991 14.9039 18.6789 16.4633Q18.8274 16.7914 19.0076 16.9148Q19.1879 17.0383 19.4371 17.0383Q19.7083 17.0383 19.9033 16.8209Q20.0984 16.6035 20.0984 16.2289Q20.0984 13.3199 19.4092 11.1954Q18.7199 9.07104 17.424 7.68906Q16.1281 6.30707 14.2928 5.63713Q12.4574 4.96719 10.1582 4.96719L9.74838 4.96719L9.74838 0.783539Q9.74838 0.457001 9.56322 0.2285Q9.37805 0 9.02924 0Q8.79456 0 8.59924 0.108414Q8.40393 0.216827 8.21014 0.405121L0.554199 7.52075Q0.193634 7.85461 0.096817 8.08235Q0 8.31009 0 8.51913Q0 8.72543 0.100403 8.95317Q0.200806 9.18091 0.554199 9.51477L8.21014 16.6496Q8.39294 16.8199 8.59291 16.9291Q8.79288 17.0383 9.03473 17.0383ZM8.85773 16.1481Q8.7558 16.1481 8.60733 16.0109L1.082 9.02115Q0.903931 8.85696 0.840836 8.74275Q0.77774 8.62854 0.77774 8.51913Q0.77774 8.29773 1.082 8.01712L8.59756 1.00281Q8.65082 0.952301 8.71094 0.910339Q8.77106 0.868378 8.84796 0.868378Q9.01993 0.868378 9.01993 1.04721L9.01993 5.40237Q9.01993 5.66833 9.28864 5.66833L10.0769 5.66833Q11.8777 5.66833 13.3524 6.08963Q14.827 6.51093 15.955 7.351Q17.0831 8.19107 17.8558 9.43947Q18.6285 10.6879 19.0276 12.333Q19.4266 13.9781 19.4429 16.0229Q19.4429 16.1797 19.3086 16.1797Q19.2441 16.1797 19.2035 16.1201Q19.1629 16.0605 19.1293 15.9766Q18.4969 14.4254 17.2933 13.4195Q16.0898 12.4136 14.2912 11.9318Q12.4925 11.45 10.0769 11.45L9.28864 11.45Q9.01993 11.45 9.01993 11.716L9.01993 15.9523Q9.01993 16.1481 8.85773 16.1481Z" fill="#000000"/>
 </g>
</svg>
