<?xml version="1.0" encoding="UTF-8"?>
<!--Generator: Apple Native CoreSVG 175.5-->
<!DOCTYPE svg
PUBLIC "-//W3C//DTD SVG 1.1//EN"
       "http://www.w3.org/Graphics/SVG/1.1/DTD/svg11.dtd">
<svg version="1.1" xmlns="http://www.w3.org/2000/svg" xmlns:xlink="http://www.w3.org/1999/xlink" width="18.457" height="20.1855">
 <g>
  <rect height="20.1855" opacity="0" width="18.457" x="0" y="0"/>
  <path d="M0 13.9551Q0 15.8301 0.795898 17.2314Q1.5918 18.6328 3.11523 19.4092Q4.63867 20.1855 6.82617 20.1855L9.08203 20.1855Q9.48242 20.1855 9.72656 19.9316Q9.9707 19.6777 9.9707 19.3164Q9.9707 18.9551 9.72656 18.7012Q9.48242 18.4473 9.08203 18.4473L6.83594 18.4473Q5.16602 18.4473 4.0332 17.8467Q2.90039 17.2461 2.31934 16.2109Q1.73828 15.1758 1.73828 13.8574Q1.73828 12.5488 2.31934 11.5381Q2.90039 10.5273 4.0332 9.96094Q5.16602 9.39453 6.83594 9.39453L13.5352 9.39453L16.5723 9.25781L16.3965 8.80859L13.9746 10.8789L11.1621 13.623Q11.0449 13.7402 10.9863 13.8867Q10.9277 14.0332 10.9277 14.2188Q10.9277 14.5996 11.1621 14.8389Q11.3965 15.0781 11.7871 15.0781Q12.1582 15.0781 12.4219 14.8047L18.1641 9.16992Q18.3105 9.0332 18.3838 8.86719Q18.457 8.70117 18.457 8.52539Q18.457 8.33984 18.3838 8.17383Q18.3105 8.00781 18.1641 7.87109L12.4219 2.23633Q12.1582 1.96289 11.7871 1.96289Q11.3965 1.96289 11.1621 2.20215Q10.9277 2.44141 10.9277 2.82227Q10.9277 3.00781 10.9863 3.1543Q11.0449 3.30078 11.1621 3.41797L13.9746 6.17188L16.3965 8.23242L16.5723 7.7832L13.5352 7.64648L6.98242 7.64648Q4.75586 7.64648 3.19336 8.44727Q1.63086 9.24805 0.81543 10.6689Q0 12.0898 0 13.9551Z" fill="#007aff"/>
 </g>
</svg>
