<?xml version="1.0" encoding="UTF-8"?>
<!--Generator: Apple Native CoreSVG 175.5-->
<!DOCTYPE svg
PUBLIC "-//W3C//DTD SVG 1.1//EN"
       "http://www.w3.org/Graphics/SVG/1.1/DTD/svg11.dtd">
<svg version="1.1" xmlns="http://www.w3.org/2000/svg" xmlns:xlink="http://www.w3.org/1999/xlink" width="19.9219" height="19.9316">
 <g>
  <rect height="19.9316" opacity="0" width="19.9219" x="0" y="0"/>
  <path d="M9.96094 19.9219Q12.002 19.9219 13.8037 19.1406Q15.6055 18.3594 16.9824 16.9824Q18.3594 15.6055 19.1406 13.8037Q19.9219 12.002 19.9219 9.96094Q19.9219 7.91992 19.1406 6.11816Q18.3594 4.31641 16.9824 2.93945Q15.6055 1.5625 13.7988 0.78125Q11.9922 0 9.95117 0Q7.91016 0 6.1084 0.78125Q4.30664 1.5625 2.93457 2.93945Q1.5625 4.31641 0.78125 6.11816Q0 7.91992 0 9.96094Q0 12.002 0.78125 13.8037Q1.5625 15.6055 2.93945 16.9824Q4.31641 18.3594 6.11816 19.1406Q7.91992 19.9219 9.96094 19.9219ZM9.96094 18.2617Q8.23242 18.2617 6.72852 17.6172Q5.22461 16.9727 4.08691 15.835Q2.94922 14.6973 2.30957 13.1934Q1.66992 11.6895 1.66992 9.96094Q1.66992 8.23242 2.30957 6.72852Q2.94922 5.22461 4.08203 4.08203Q5.21484 2.93945 6.71875 2.2998Q8.22266 1.66016 9.95117 1.66016Q11.6797 1.66016 13.1885 2.2998Q14.6973 2.93945 15.835 4.08203Q16.9727 5.22461 17.6172 6.72852Q18.2617 8.23242 18.2617 9.96094Q18.2617 11.6895 17.6221 13.1934Q16.9824 14.6973 15.8398 15.835Q14.6973 16.9727 13.1934 17.6172Q11.6895 18.2617 9.96094 18.2617Z" fill="#007aff"/>
  <path d="M4.89258 11.1523Q4.89258 12.3242 5.41504 13.1787Q5.9375 14.0332 6.83594 14.4971Q7.73438 14.9609 8.87695 14.9609Q8.93555 14.9609 9.25293 14.9609Q9.57031 14.9609 9.87793 14.9609Q10.1855 14.9609 10.2148 14.9609Q10.5371 14.9609 10.752 14.7803Q10.9668 14.5996 10.9668 14.2578Q10.9668 13.916 10.7568 13.7402Q10.5469 13.5645 10.2344 13.5645Q10.2148 13.5645 9.90234 13.5645Q9.58984 13.5645 9.2627 13.5645Q8.93555 13.5645 8.87695 13.5645Q7.77344 13.5645 7.05078 12.8955Q6.32812 12.2266 6.32812 11.0742Q6.32812 9.94141 7.06055 9.34082Q7.79297 8.74023 8.86719 8.74023L11.7773 8.74023L12.9395 8.70117L12.373 9.12109L11.1426 10.293Q10.9375 10.4883 10.9375 10.8008Q10.9375 11.1035 11.1377 11.3086Q11.3379 11.5137 11.6211 11.5137Q11.9238 11.5137 12.1289 11.3086L14.7266 8.64258Q14.9902 8.38867 14.9902 8.05664Q14.9902 7.71484 14.7266 7.46094L12.1387 4.82422Q11.9336 4.60938 11.6309 4.60938Q11.3379 4.60938 11.1377 4.81445Q10.9375 5.01953 10.9375 5.32227Q10.9375 5.625 11.1523 5.83008L12.168 6.80664L12.9395 7.41211L11.7773 7.37305L8.86719 7.37305Q7.72461 7.37305 6.82617 7.82715Q5.92773 8.28125 5.41016 9.12598Q4.89258 9.9707 4.89258 11.1523Z" fill="#007aff"/>
 </g>
</svg>
