<?xml version="1.0" encoding="UTF-8"?>
<!--Generator: Apple Native CoreSVG 175-->
<!DOCTYPE svg
PUBLIC "-//W3C//DTD SVG 1.1//EN"
       "http://www.w3.org/Graphics/SVG/1.1/DTD/svg11.dtd">
<svg version="1.1" xmlns="http://www.w3.org/2000/svg" xmlns:xlink="http://www.w3.org/1999/xlink" width="15.791" height="15.2637">
 <g>
  <rect height="15.2637" opacity="0" width="15.791" x="0" y="0"/>
  <path d="M15.0195 0.00976562Q14.8438 0.00976562 14.6875 0.0732422Q14.5312 0.136719 14.3164 0.244141L0.664062 6.81641Q0.332031 6.98242 0.166016 7.17773Q0 7.37305 0 7.63672Q0 7.91016 0.166016 8.10059Q0.332031 8.29102 0.664062 8.4668L14.3164 15.0293Q14.541 15.1367 14.6924 15.2002Q14.8438 15.2637 15.0293 15.2637Q15.3711 15.2637 15.5811 15.0195Q15.791 14.7754 15.791 14.3457L15.791 0.927734Q15.791 0.498047 15.5859 0.253906Q15.3809 0.00976562 15.0195 0.00976562Z" fill="#000000"/>
 </g>
</svg>
