<?xml version="1.0" encoding="UTF-8"?>
<!--Generator: Apple Native CoreSVG 175.5-->
<!DOCTYPE svg
PUBLIC "-//W3C//DTD SVG 1.1//EN"
       "http://www.w3.org/Graphics/SVG/1.1/DTD/svg11.dtd">
<svg version="1.1" xmlns="http://www.w3.org/2000/svg" xmlns:xlink="http://www.w3.org/1999/xlink" width="17.7734" height="17.7832">
 <g>
  <rect height="17.7832" opacity="0" width="17.7734" x="0" y="0"/>
  <path d="M16.6309 1.15234Q15.8789 0.400391 14.8438 0.200195Q13.8086 0 12.5586 0L5.18555 0Q3.95508 0 2.9248 0.200195Q1.89453 0.400391 1.14258 1.15234Q0.400391 1.89453 0.200195 2.91992Q0 3.94531 0 5.17578L0 12.5586Q0 13.8086 0.195312 14.8389Q0.390625 15.8691 1.14258 16.6113Q1.89453 17.3633 2.9248 17.5635Q3.95508 17.7637 5.20508 17.7637L12.5586 17.7637Q13.8086 17.7637 14.8438 17.5635Q15.8789 17.3633 16.6309 16.6113Q17.373 15.8691 17.5732 14.8389Q17.7734 13.8086 17.7734 12.5586L17.7734 5.20508Q17.7734 3.95508 17.5732 2.9248Q17.373 1.89453 16.6309 1.15234Z" fill="#007aff"/>
  <path d="M12.0508 11.377Q11.709 11.377 11.5039 11.167Q11.2988 10.957 11.2988 10.5859L11.2988 8.85742L11.4453 7.29492L10 8.83789L6.30859 12.5391Q6.20117 12.6465 6.05469 12.71Q5.9082 12.7734 5.72266 12.7734Q5.40039 12.7734 5.19531 12.5684Q4.99023 12.3633 4.99023 12.0117Q4.99023 11.7188 5.23438 11.4746L8.93555 7.7832L10.498 6.31836L9.00391 6.47461L7.1875 6.47461Q6.82617 6.47461 6.60645 6.26953Q6.38672 6.06445 6.38672 5.73242Q6.38672 5.40039 6.60156 5.19531Q6.81641 4.99023 7.16797 4.99023L11.9434 4.99023Q12.334 4.99023 12.5586 5.18555Q12.7832 5.38086 12.7832 5.83008L12.7832 10.5664Q12.7832 10.9277 12.583 11.1523Q12.3828 11.377 12.0508 11.377Z" fill="#ffffff"/>
 </g>
</svg>
