<?xml version="1.0" encoding="UTF-8"?>
<!--Generator: Apple Native CoreSVG 175-->
<!DOCTYPE svg
PUBLIC "-//W3C//DTD SVG 1.1//EN"
       "http://www.w3.org/Graphics/SVG/1.1/DTD/svg11.dtd">
<svg version="1.1" xmlns="http://www.w3.org/2000/svg" xmlns:xlink="http://www.w3.org/1999/xlink" width="18.0859" height="18.4473">
 <g>
  <rect height="18.4473" opacity="0" width="18.0859" x="0" y="0"/>
  <path d="M0 12.8223Q0 14.5215 0.737305 15.7861Q1.47461 17.0508 2.82227 17.749Q4.16992 18.4473 6.00586 18.4473L9.26758 18.4473Q9.44336 18.4473 9.5459 18.3447Q9.64844 18.2422 9.64844 18.0859Q9.64844 17.9199 9.5459 17.8174Q9.44336 17.7148 9.28711 17.7148L6.02539 17.7148Q4.4043 17.7148 3.21777 17.0898Q2.03125 16.4648 1.38672 15.3662Q0.742188 14.2676 0.742188 12.8027Q0.742188 11.3477 1.38672 10.249Q2.03125 9.15039 3.21777 8.54004Q4.4043 7.92969 6.02539 7.92969L14.8242 7.92969L17.1777 7.88086L17.1094 7.73438L14.9121 9.83398L11.4746 13.2715Q11.4258 13.3105 11.3965 13.3838Q11.3672 13.457 11.3672 13.5352Q11.3672 13.6914 11.4746 13.7988Q11.582 13.9062 11.748 13.9062Q11.9141 13.9062 12.0215 13.7988L17.9688 7.83203Q18.0176 7.77344 18.0518 7.70996Q18.0859 7.64648 18.0859 7.55859Q18.0859 7.48047 18.0518 7.41211Q18.0176 7.34375 17.9688 7.28516L12.0215 1.32812Q11.9141 1.21094 11.748 1.21094Q11.582 1.21094 11.4746 1.31836Q11.3672 1.42578 11.3672 1.58203Q11.3672 1.66016 11.3965 1.7334Q11.4258 1.80664 11.4746 1.85547L14.9121 5.2832L17.1094 7.37305L17.1777 7.23633L14.8242 7.1875L6.04492 7.1875Q4.19922 7.1875 2.8418 7.89551Q1.48438 8.60352 0.742188 9.87305Q0 11.1426 0 12.8223Z" fill="#ffffff"/>
 </g>
</svg>
