<?xml version="1.0" encoding="UTF-8"?>
<!--Generator: Apple Native CoreSVG 175.5-->
<!DOCTYPE svg
PUBLIC "-//W3C//DTD SVG 1.1//EN"
       "http://www.w3.org/Graphics/SVG/1.1/DTD/svg11.dtd">
<svg version="1.1" xmlns="http://www.w3.org/2000/svg" xmlns:xlink="http://www.w3.org/1999/xlink" width="29.0992" height="20.4395">
 <g>
  <rect height="20.4395" opacity="0" width="29.0992" x="0" y="0"/>
  <path d="M0.73122 11.377L8.1238 15.9082Q8.59255 16.1914 9.04177 16.1621Q9.49099 16.1328 9.79372 15.8057Q10.0965 15.4785 10.0965 14.8828L10.0965 5.56641Q10.0965 4.99023 9.7986 4.66309Q9.50075 4.33594 9.05153 4.29688Q8.60231 4.25781 8.1238 4.55078L0.73122 9.08203Q0.233173 9.375 0.0769231 9.80469Q-0.0793269 10.2344 0.0818059 10.6592Q0.242939 11.084 0.73122 11.377ZM1.77614 10.4297Q1.65895 10.3516 1.62966 10.2441Q1.60036 10.1367 1.77614 10.0195L8.32888 5.9668Q8.39724 5.91797 8.53395 5.92773Q8.67067 5.9375 8.67067 6.13281L8.67067 14.3262Q8.67067 14.502 8.54372 14.5264Q8.41677 14.5508 8.32888 14.4922ZM14.5496 20.4395Q14.8328 20.4395 15.0525 20.2441Q15.2722 20.0488 15.2722 19.7559L15.2722 0.693359Q15.2722 0.410156 15.0525 0.214844Q14.8328 0.0195312 14.5496 0.0195312Q14.2664 0.0195312 14.0515 0.214844Q13.8367 0.410156 13.8367 0.693359L13.8367 19.7559Q13.8367 20.0488 14.0515 20.2441Q14.2664 20.4395 14.5496 20.4395ZM20.9754 15.9082L28.3777 11.377Q28.8562 11.084 29.0174 10.6592Q29.1785 10.2344 29.0222 9.80469Q28.866 9.375 28.3777 9.08203L20.9754 4.55078Q20.4968 4.25781 20.0476 4.29688Q19.5984 4.33594 19.3006 4.66309Q19.0027 4.99023 19.0027 5.56641L19.0027 14.8828Q19.0027 15.4785 19.3054 15.8057Q19.6082 16.1328 20.0574 16.1621Q20.5066 16.1914 20.9754 15.9082ZM20.7703 14.4922Q20.6824 14.541 20.5554 14.5215Q20.4285 14.502 20.4285 14.3262L20.4285 6.13281Q20.4285 5.9375 20.5652 5.92773Q20.7019 5.91797 20.7703 5.9668L27.323 10.0195Q27.4988 10.1367 27.4695 10.249Q27.4402 10.3613 27.323 10.4297Z" fill="#007aff"/>
 </g>
</svg>
