<?xml version="1.0" encoding="UTF-8"?>
<!--Generator: Apple Native CoreSVG 175-->
<!DOCTYPE svg
PUBLIC "-//W3C//DTD SVG 1.1//EN"
       "http://www.w3.org/Graphics/SVG/1.1/DTD/svg11.dtd">
<svg version="1.1" xmlns="http://www.w3.org/2000/svg" xmlns:xlink="http://www.w3.org/1999/xlink" width="19.1602" height="19.1504">
 <g>
  <rect height="19.1504" opacity="0" width="19.1602" x="0" y="0"/>
  <path d="M9.57031 19.1406Q11.5527 19.1406 13.2861 18.3984Q15.0195 17.6562 16.3379 16.333Q17.6562 15.0098 18.4082 13.2764Q19.1602 11.543 19.1602 9.57031Q19.1602 7.59766 18.4082 5.86426Q17.6562 4.13086 16.3379 2.80762Q15.0195 1.48438 13.2861 0.742188Q11.5527 0 9.57031 0Q7.59766 0 5.86426 0.742188Q4.13086 1.48438 2.81738 2.80762Q1.50391 4.13086 0.751953 5.86426Q0 7.59766 0 9.57031Q0 11.543 0.74707 13.2764Q1.49414 15.0098 2.8125 16.333Q4.13086 17.6562 5.86914 18.3984Q7.60742 19.1406 9.57031 19.1406ZM9.57031 18.3984Q7.74414 18.3984 6.14746 17.71Q4.55078 17.0215 3.33496 15.8105Q2.11914 14.5996 1.43555 12.998Q0.751953 11.3965 0.751953 9.57031Q0.751953 7.74414 1.43555 6.14258Q2.11914 4.54102 3.33496 3.3252Q4.55078 2.10938 6.14746 1.4209Q7.74414 0.732422 9.57031 0.732422Q11.4062 0.732422 13.0029 1.4209Q14.5996 2.10938 15.8154 3.3252Q17.0312 4.54102 17.7197 6.14258Q18.4082 7.74414 18.4082 9.57031Q18.4082 11.3965 17.7246 12.998Q17.041 14.5996 15.8252 15.8105Q14.6094 17.0215 13.0078 17.71Q11.4062 18.3984 9.57031 18.3984ZM10.6738 4.99023Q9.6582 4.99023 8.90137 5.44922Q8.14453 5.9082 7.72949 6.72363Q7.31445 7.53906 7.31445 8.60352L7.31445 12.3535L7.34375 13.3984L6.92383 12.8711L5.17578 11.123Q5.04883 10.9863 4.90234 10.9863Q4.75586 10.9863 4.65332 11.084Q4.55078 11.1816 4.55078 11.3379Q4.55078 11.4941 4.66797 11.6016L7.30469 14.1992Q7.46094 14.3457 7.65625 14.3457Q7.85156 14.3457 8.00781 14.1992L10.6641 11.6016Q10.7617 11.4844 10.7617 11.3379Q10.7617 11.1816 10.6641 11.084Q10.5664 10.9863 10.4102 10.9863Q10.2637 10.9863 10.1367 11.123L8.34961 12.9199L7.97852 13.3984L7.99805 12.3535L7.99805 8.60352Q7.99805 7.30469 8.7207 6.49414Q9.44336 5.68359 10.6641 5.68359Q11.8848 5.68359 12.627 6.48926Q13.3691 7.29492 13.3691 8.60352Q13.3691 8.74023 13.3691 9.10645Q13.3691 9.47266 13.3691 9.80957Q13.3691 10.1465 13.3691 10.166Q13.3691 10.3223 13.457 10.4248Q13.5449 10.5273 13.7109 10.5273Q13.8672 10.5273 13.96 10.4248Q14.0527 10.3223 14.0527 10.166Q14.0527 10.1465 14.0527 9.80957Q14.0527 9.47266 14.0527 9.10645Q14.0527 8.74023 14.0527 8.60352Q14.0527 7.5293 13.6328 6.71875Q13.2129 5.9082 12.4561 5.44922Q11.6992 4.99023 10.6738 4.99023Z" fill="#000000"/>
 </g>
</svg>
