<?xml version="1.0" encoding="UTF-8"?>
<!--Generator: Apple Native CoreSVG 175-->
<!DOCTYPE svg
PUBLIC "-//W3C//DTD SVG 1.1//EN"
       "http://www.w3.org/Graphics/SVG/1.1/DTD/svg11.dtd">
<svg version="1.1" xmlns="http://www.w3.org/2000/svg" xmlns:xlink="http://www.w3.org/1999/xlink" width="14.0625" height="14.0527">
 <g>
  <rect height="14.0527" opacity="0" width="14.0625" x="0" y="0"/>
  <path d="M14.0625 3.42773Q14.0625 3.25195 13.9502 3.13965Q13.8379 3.02734 13.6719 3.02734Q13.5156 3.02734 13.4033 3.13965Q13.291 3.25195 13.291 3.4082L13.291 9.56055L13.3398 12.8809L11.8262 11.2891L0.654297 0.136719Q0.527344 0 0.390625 0Q0.283203 0 0.195312 0.0537109Q0.107422 0.107422 0.0537109 0.200195Q0 0.292969 0 0.390625Q0 0.546875 0.117188 0.664062L11.2891 11.8359L12.8809 13.3594L8.73047 13.3008L3.39844 13.3008Q3.23242 13.3008 3.12012 13.4033Q3.00781 13.5059 3.00781 13.6621Q3.00781 13.8184 3.12012 13.9307Q3.23242 14.043 3.4082 14.043L13.6328 14.043Q13.8184 14.043 13.9258 13.9307Q14.0332 13.8184 14.0332 13.6426Z" fill="#007aff"/>
 </g>
</svg>
