<?xml version="1.0" encoding="UTF-8"?>
<!--Generator: Apple Native CoreSVG 175-->
<!DOCTYPE svg
PUBLIC "-//W3C//DTD SVG 1.1//EN"
       "http://www.w3.org/Graphics/SVG/1.1/DTD/svg11.dtd">
<svg version="1.1" xmlns="http://www.w3.org/2000/svg" xmlns:xlink="http://www.w3.org/1999/xlink" width="18.1348" height="14.252">
 <g>
  <rect height="14.252" opacity="0" width="18.1348" x="0" y="0"/>
  <path d="M18.1348 7.12112Q18.1348 6.96091 18.0176 6.84647L11.4165 0.201569Q11.3023 0.0804138 11.2186 0.0402069Q11.1348 0 11.0504 0Q10.8859 0 10.7824 0.109177Q10.6789 0.218353 10.6789 0.368805Q10.6789 0.446167 10.6988 0.5159Q10.7187 0.585632 10.7727 0.646515L14.6758 4.55353L17.3082 7.0903L17.4051 6.8129L14.8721 6.75125L0.367279 6.75125Q0.211334 6.75125 0.105667 6.85471Q0 6.95816 0 7.12112Q0 7.28409 0.105667 7.38754Q0.211334 7.491 0.367279 7.491L14.8721 7.491L17.4051 7.42935L17.3082 7.15469L14.6758 9.68872L10.7727 13.5957Q10.7257 13.6426 10.7023 13.7193Q10.6789 13.7961 10.6789 13.8734Q10.6789 14.0239 10.7824 14.1331Q10.8859 14.2422 11.0504 14.2422Q11.2051 14.2422 11.3266 14.1235L18.0176 7.39578Q18.1348 7.27432 18.1348 7.12112Z" fill="#007aff"/>
 </g>
</svg>
