<?xml version="1.0" encoding="UTF-8"?>
<!--Generator: Apple Native CoreSVG 175-->
<!DOCTYPE svg
PUBLIC "-//W3C//DTD SVG 1.1//EN"
       "http://www.w3.org/Graphics/SVG/1.1/DTD/svg11.dtd">
<svg version="1.1" xmlns="http://www.w3.org/2000/svg" xmlns:xlink="http://www.w3.org/1999/xlink" width="17.0508" height="17.0605">
 <g>
  <rect height="17.0605" opacity="0" width="17.0508" x="0" y="0"/>
  <path d="M16.0254 1.05469Q15.4395 0.458984 14.5654 0.239258Q13.6914 0.0195312 12.2656 0.0195312L4.66797 0.0195312Q3.33984 0.0195312 2.47559 0.249023Q1.61133 0.478516 1.02539 1.05469Q0.439453 1.65039 0.219727 2.5Q0 3.34961 0 4.69727L0 12.2852Q0 13.7305 0.214844 14.5947Q0.429688 15.459 1.01562 16.0352Q1.61133 16.6211 2.48047 16.8408Q3.34961 17.0605 4.77539 17.0605L12.2656 17.0605Q13.6914 17.0605 14.5654 16.8408Q15.4395 16.6211 16.0254 16.0352Q16.6113 15.4492 16.8311 14.5898Q17.0508 13.7305 17.0508 12.2852L17.0508 4.79492Q17.0508 3.35938 16.8311 2.49023Q16.6113 1.62109 16.0254 1.05469ZM11.875 10.8203Q11.709 10.8203 11.6113 10.7227Q11.5137 10.625 11.5137 10.4492L11.5137 7.69531L11.5527 5.95703L10.5371 7.02148L5.47852 12.0801Q5.42969 12.1387 5.35645 12.168Q5.2832 12.1973 5.18555 12.1973Q5.0293 12.1973 4.93164 12.0996Q4.83398 12.002 4.83398 11.8457Q4.83398 11.6895 4.95117 11.5723L10.0195 6.50391L11.084 5.47852L9.7168 5.51758L6.5918 5.51758Q6.41602 5.51758 6.31348 5.41504Q6.21094 5.3125 6.21094 5.15625Q6.21094 5.00977 6.31348 4.91699Q6.41602 4.82422 6.58203 4.82422L11.8457 4.82422Q12.0117 4.82422 12.1143 4.92188Q12.2168 5.01953 12.2168 5.19531L12.2168 10.4395Q12.2168 10.6152 12.1191 10.7178Q12.0215 10.8203 11.875 10.8203Z" fill="#007aff"/>
 </g>
</svg>
