<?xml version="1.0" encoding="UTF-8"?>
<!--Generator: Apple Native CoreSVG 175-->
<!DOCTYPE svg
PUBLIC "-//W3C//DTD SVG 1.1//EN"
       "http://www.w3.org/Graphics/SVG/1.1/DTD/svg11.dtd">
<svg version="1.1" xmlns="http://www.w3.org/2000/svg" xmlns:xlink="http://www.w3.org/1999/xlink" width="13.3623" height="20.2286">
 <g>
  <rect height="20.2286" opacity="0" width="13.3623" x="0" y="0"/>
  <path d="M5.6102 20.202Q7.29996 20.202 8.56033 19.5084Q9.82071 18.8148 10.5143 17.5532Q11.2079 16.2915 11.2079 14.5918L11.2079 12.5809Q11.2079 12.4289 11.0973 12.3219Q10.9868 12.2148 10.8348 12.2148Q10.6801 12.2148 10.5695 12.3219Q10.459 12.4289 10.459 12.5809L10.459 14.5918Q10.459 16.0367 9.84749 17.1334Q9.23599 18.2301 8.14415 18.8451Q7.05231 19.4601 5.6102 19.4601Q4.16519 19.4601 3.07205 18.8451Q1.97891 18.2301 1.36391 17.1334Q0.748901 16.0367 0.748901 14.5918L0.748901 5.60471Q0.748901 4.1626 1.36391 3.06938Q1.97891 1.97617 3.07205 1.36116Q4.16519 0.746155 5.6102 0.746155Q7.05231 0.746155 8.14415 1.36116Q9.23599 1.97617 9.84749 3.06938Q10.459 4.1626 10.459 5.60471L10.459 7.05353L11.2079 7.05353L11.2079 5.60471Q11.2079 3.90778 10.5143 2.6461Q9.82071 1.38443 8.56033 0.692215Q7.29996 0 5.6102 0Q3.91052 0 2.64885 0.692215Q1.38718 1.38443 0.693588 2.6461Q0 3.90778 0 5.60471L0 14.5918Q0 16.2915 0.693588 17.5532Q1.38718 18.8148 2.64885 19.5084Q3.91052 20.202 5.6102 20.202ZM12.9555 6.28357L8.72345 6.28357Q8.43094 6.28357 8.3448 6.46461Q8.25867 6.64566 8.4433 6.91254L10.4973 9.85199Q10.6473 10.0645 10.8367 10.0659Q11.0262 10.0673 11.1789 9.85199L13.2356 6.91528Q13.4204 6.64566 13.3356 6.46461Q13.2509 6.28357 12.9555 6.28357Z" fill="#000000"/>
 </g>
</svg>
