<?xml version="1.0" encoding="UTF-8"?>
<!--Generator: Apple Native CoreSVG 175-->
<!DOCTYPE svg
PUBLIC "-//W3C//DTD SVG 1.1//EN"
       "http://www.w3.org/Graphics/SVG/1.1/DTD/svg11.dtd">
<svg version="1.1" xmlns="http://www.w3.org/2000/svg" xmlns:xlink="http://www.w3.org/1999/xlink" width="15.2559" height="15.8066">
 <g>
  <rect height="15.8066" opacity="0" width="15.2559" x="0" y="0"/>
  <path d="M15.2559 0.783539Q15.2559 0.436249 15.0156 0.22438Q14.7754 0.0125122 14.3417 0.0125122L0.911407 0.00976562Q0.487518 0.00976562 0.243759 0.221634Q0 0.433502 0 0.780792Q0 0.961304 0.0666046 1.11465Q0.133209 1.26801 0.237579 1.48911L6.80237 15.1418Q6.97144 15.4785 7.1666 15.6425Q7.36176 15.8066 7.63016 15.8066Q7.89413 15.8066 8.08792 15.6425Q8.28171 15.4785 8.45352 15.1418L15.0227 1.48911Q15.1297 1.27075 15.1928 1.1174Q15.2559 0.96405 15.2559 0.783539ZM14.4524 0.930023Q14.4524 0.994568 14.4236 1.05545Q14.3948 1.11633 14.364 1.18362L7.90894 14.6738Q7.86835 14.7549 7.79686 14.8322Q7.72537 14.9094 7.63016 14.9094Q7.52777 14.9094 7.45766 14.8322Q7.38754 14.7549 7.34695 14.6738L0.891876 1.18088Q0.858307 1.11374 0.834427 1.05278Q0.810547 0.991821 0.810547 0.927277Q0.810547 0.73822 1.06567 0.73822L14.1875 0.740967Q14.4524 0.740967 14.4524 0.930023Z" fill="#ffffff"/>
 </g>
</svg>
