<?xml version="1.0" encoding="UTF-8"?>
<!--Generator: Apple Native CoreSVG 175.5-->
<!DOCTYPE svg
PUBLIC "-//W3C//DTD SVG 1.1//EN"
       "http://www.w3.org/Graphics/SVG/1.1/DTD/svg11.dtd">
<svg version="1.1" xmlns="http://www.w3.org/2000/svg" xmlns:xlink="http://www.w3.org/1999/xlink" width="14.2678" height="21.1426">
 <g>
  <rect height="21.1426" opacity="0" width="14.2678" x="0" y="0"/>
  <path d="M6.07422 21.123Q7.89062 21.123 9.25293 20.3662Q10.6152 19.6094 11.3721 18.2422Q12.1289 16.875 12.1289 15.0488L12.1289 13.1152Q12.1289 12.7734 11.8848 12.5293Q11.6406 12.2852 11.2988 12.2852Q10.9473 12.2852 10.7031 12.5293Q10.459 12.7734 10.459 13.1152L10.459 15.0488Q10.459 16.3672 9.90723 17.3584Q9.35547 18.3496 8.36914 18.9014Q7.38281 19.4531 6.07422 19.4531Q4.75586 19.4531 3.76465 18.9014Q2.77344 18.3496 2.22168 17.3584Q1.66992 16.3672 1.66992 15.0488L1.66992 6.05469Q1.66992 4.74609 2.22168 3.75488Q2.77344 2.76367 3.76465 2.21191Q4.75586 1.66016 6.07422 1.66016Q7.38281 1.66016 8.36914 2.21191Q9.35547 2.76367 9.90723 3.75488Q10.459 4.74609 10.459 6.05469L10.459 7.23633L12.1289 7.23633L12.1289 6.05469Q12.1289 4.23828 11.3721 2.87109Q10.6152 1.50391 9.25293 0.751953Q7.89062 0 6.07422 0Q4.24805 0 2.88086 0.751953Q1.51367 1.50391 0.756836 2.87109Q0 4.23828 0 6.05469L0 15.0488Q0 16.875 0.756836 18.2422Q1.51367 19.6094 2.88086 20.3662Q4.24805 21.123 6.07422 21.123ZM13.5742 6.09375L9.08203 6.09375Q8.56445 6.09375 8.43262 6.40137Q8.30078 6.70898 8.58398 7.10938L10.7715 10.2246Q11.0059 10.5566 11.3184 10.5615Q11.6309 10.5664 11.875 10.2246L14.0723 7.11914Q14.3555 6.70898 14.2285 6.40137Q14.1016 6.09375 13.5742 6.09375Z" fill="#007aff"/>
 </g>
</svg>
