<?xml version="1.0" encoding="UTF-8"?>
<!--Generator: Apple Native CoreSVG 175.5-->
<!DOCTYPE svg
PUBLIC "-//W3C//DTD SVG 1.1//EN"
       "http://www.w3.org/Graphics/SVG/1.1/DTD/svg11.dtd">
<svg version="1.1" xmlns="http://www.w3.org/2000/svg" xmlns:xlink="http://www.w3.org/1999/xlink" width="19.9219" height="19.9512">
 <g>
  <rect height="19.9512" opacity="0" width="19.9219" x="0" y="0"/>
  <path d="M9.96094 19.9219Q12.002 19.9219 13.8037 19.1406Q15.6055 18.3594 16.9824 16.9824Q18.3594 15.6055 19.1406 13.8037Q19.9219 12.002 19.9219 9.96094Q19.9219 7.91992 19.1406 6.11816Q18.3594 4.31641 16.9824 2.93945Q15.6055 1.5625 13.7988 0.78125Q11.9922 0 9.95117 0Q7.91016 0 6.1084 0.78125Q4.30664 1.5625 2.93457 2.93945Q1.5625 4.31641 0.78125 6.11816Q0 7.91992 0 9.96094Q0 12.002 0.78125 13.8037Q1.5625 15.6055 2.93945 16.9824Q4.31641 18.3594 6.11816 19.1406Q7.91992 19.9219 9.96094 19.9219ZM9.96094 18.2617Q8.23242 18.2617 6.72852 17.6172Q5.22461 16.9727 4.08691 15.835Q2.94922 14.6973 2.30957 13.1934Q1.66992 11.6895 1.66992 9.96094Q1.66992 8.23242 2.30957 6.72852Q2.94922 5.22461 4.08203 4.08203Q5.21484 2.93945 6.71875 2.2998Q8.22266 1.66016 9.95117 1.66016Q11.6797 1.66016 13.1885 2.2998Q14.6973 2.93945 15.835 4.08203Q16.9727 5.22461 17.6172 6.72852Q18.2617 8.23242 18.2617 9.96094Q18.2617 11.6895 17.6221 13.1934Q16.9824 14.6973 15.8398 15.835Q14.6973 16.9727 13.1934 17.6172Q11.6895 18.2617 9.96094 18.2617Z" fill="#007aff"/>
  <path d="M9.9707 14.9902Q10.3516 14.9902 10.5566 14.7754Q10.7617 14.5605 10.752 14.1602L10.6641 11.2305L13.3105 12.959Q13.5449 13.0957 13.8184 13.0957Q14.1211 13.0957 14.3555 12.8809Q14.5898 12.666 14.5898 12.2852Q14.5898 12.0508 14.4775 11.8799Q14.3652 11.709 14.1211 11.582L11.3477 10.0195L14.1211 8.48633Q14.3652 8.34961 14.4775 8.17383Q14.5898 7.99805 14.5898 7.76367Q14.5898 7.39258 14.3555 7.17285Q14.1211 6.95312 13.8184 6.95312Q13.5352 6.95312 13.3105 7.09961L10.6641 8.78906L10.752 5.78125Q10.7617 5.38086 10.5566 5.15625Q10.3516 4.93164 9.9707 4.93164Q9.58984 4.93164 9.37012 5.16113Q9.15039 5.39062 9.15039 5.78125L9.23828 8.78906L6.5918 7.10938Q6.36719 6.96289 6.08398 6.96289Q5.78125 6.96289 5.54688 7.18262Q5.3125 7.40234 5.3125 7.77344Q5.3125 8.01758 5.4248 8.18848Q5.53711 8.35938 5.78125 8.49609L8.53516 10.0195L5.78125 11.5723Q5.3125 11.8164 5.3125 12.2754Q5.3125 12.6562 5.54688 12.8711Q5.78125 13.0859 6.08398 13.0859Q6.35742 13.0859 6.5918 12.9492L9.23828 11.2305L9.15039 14.1602Q9.15039 14.541 9.37012 14.7656Q9.58984 14.9902 9.9707 14.9902Z" fill="#007aff"/>
 </g>
</svg>
