<?xml version="1.0" encoding="UTF-8"?>
<!--Generator: Apple Native CoreSVG 175-->
<!DOCTYPE svg
PUBLIC "-//W3C//DTD SVG 1.1//EN"
       "http://www.w3.org/Graphics/SVG/1.1/DTD/svg11.dtd">
<svg version="1.1" xmlns="http://www.w3.org/2000/svg" xmlns:xlink="http://www.w3.org/1999/xlink" width="17.2852" height="17.3145">
 <g>
  <rect height="17.3145" opacity="0" width="17.2852" x="0" y="0"/>
  <path d="M2.62695 17.3145L14.6484 17.3145Q15.957 17.3145 16.6211 16.6455Q17.2852 15.9766 17.2852 14.6875L17.2852 2.65625Q17.2852 1.37695 16.6211 0.703125Q15.957 0.0292969 14.6484 0.0292969L2.62695 0.0292969Q1.33789 0.0292969 0.668945 0.693359Q0 1.35742 0 2.65625L0 14.6875Q0 15.9863 0.668945 16.6504Q1.33789 17.3145 2.62695 17.3145ZM2.65625 16.5918Q1.70898 16.5918 1.2207 16.1035Q0.732422 15.6152 0.732422 14.6582L0.732422 2.69531Q0.732422 1.72852 1.2207 1.24512Q1.70898 0.761719 2.65625 0.761719L14.6289 0.761719Q15.5566 0.761719 16.0596 1.24512Q16.5625 1.72852 16.5625 2.69531L16.5625 14.6582Q16.5625 15.6152 16.0596 16.1035Q15.5566 16.5918 14.6289 16.5918ZM5.24414 10.4004Q5.24414 10.5176 5.32715 10.6055Q5.41016 10.6934 5.55664 10.6934L6.17188 10.6934L5.47852 12.6172Q5.44922 12.7344 5.44922 12.7832Q5.44922 12.9395 5.54688 13.0225Q5.64453 13.1055 5.78125 13.1055Q5.89844 13.1055 5.97656 13.0469Q6.05469 12.9883 6.09375 12.8613L6.85547 10.6934L10.459 10.6934L11.2207 12.8711Q11.2598 12.9883 11.3379 13.0469Q11.416 13.1055 11.5332 13.1055Q11.6699 13.1055 11.7676 13.0225Q11.8652 12.9395 11.8652 12.7832Q11.8652 12.7051 11.8262 12.6172L11.1426 10.6934L11.748 10.6934Q11.8848 10.6934 11.9678 10.6055Q12.0508 10.5176 12.0508 10.4004Q12.0508 10.2734 11.9678 10.1807Q11.8848 10.0879 11.748 10.0879L10.9375 10.0879L10.6055 9.15039L11.748 9.15039Q11.8848 9.15039 11.9678 9.06738Q12.0508 8.98438 12.0508 8.85742Q12.0508 8.73047 11.9678 8.64258Q11.8848 8.55469 11.748 8.55469L10.3906 8.55469L9.0332 4.74609Q8.98438 4.59961 8.8916 4.52148Q8.79883 4.44336 8.66211 4.44336Q8.51562 4.44336 8.42285 4.52148Q8.33008 4.59961 8.28125 4.74609L6.92383 8.55469L5.55664 8.55469Q5.41016 8.55469 5.32715 8.64258Q5.24414 8.73047 5.24414 8.85742Q5.24414 8.98438 5.32715 9.06738Q5.41016 9.15039 5.55664 9.15039L6.70898 9.15039L6.37695 10.0879L5.55664 10.0879Q5.41016 10.0879 5.32715 10.1807Q5.24414 10.2734 5.24414 10.4004ZM7.06055 10.0879L7.39258 9.15039L9.92188 9.15039L10.2539 10.0879ZM7.59766 8.55469L8.66211 5.53711L9.7168 8.55469Z" fill="#007aff"/>
 </g>
</svg>
