<?xml version="1.0" encoding="UTF-8"?>
<!--Generator: Apple Native CoreSVG 175.5-->
<!DOCTYPE svg
PUBLIC "-//W3C//DTD SVG 1.1//EN"
       "http://www.w3.org/Graphics/SVG/1.1/DTD/svg11.dtd">
<svg version="1.1" xmlns="http://www.w3.org/2000/svg" xmlns:xlink="http://www.w3.org/1999/xlink" width="11.1523" height="22.8809">
 <g>
  <rect height="22.8809" opacity="0" width="11.1523" x="0" y="0"/>
  <path d="M2.54883 22.8809L8.60352 22.8809Q9.77539 22.8809 10.4639 22.2217Q11.1523 21.5625 11.1523 20.4492L11.1523 2.42188Q11.1523 1.31836 10.4639 0.65918Q9.77539 0 8.60352 0L2.54883 0Q1.37695 0 0.688477 0.65918Q0 1.31836 0 2.42188L0 20.4492Q0 21.5625 0.688477 22.2217Q1.37695 22.8809 2.54883 22.8809ZM6.19141 3.52539Q5.92773 3.52539 5.74219 3.34473Q5.55664 3.16406 5.55664 2.90039Q5.55664 2.63672 5.74219 2.45117Q5.92773 2.26562 6.19141 2.26562L8.33984 2.26562Q8.60352 2.26562 8.78418 2.45117Q8.96484 2.63672 8.96484 2.90039Q8.96484 3.16406 8.78418 3.34473Q8.60352 3.52539 8.33984 3.52539ZM3.11523 7.27539Q2.70508 7.27539 2.42188 6.99219Q2.13867 6.70898 2.13867 6.28906Q2.13867 5.89844 2.42188 5.60547Q2.70508 5.3125 3.11523 5.3125Q3.52539 5.3125 3.81348 5.60547Q4.10156 5.89844 4.10156 6.28906Q4.10156 6.70898 3.81348 6.99219Q3.52539 7.27539 3.11523 7.27539ZM5.57617 7.27539Q5.16602 7.27539 4.88281 6.99219Q4.59961 6.70898 4.59961 6.28906Q4.59961 5.89844 4.88281 5.60547Q5.16602 5.3125 5.57617 5.3125Q5.98633 5.3125 6.26953 5.60547Q6.55273 5.89844 6.55273 6.28906Q6.55273 6.70898 6.26953 6.99219Q5.98633 7.27539 5.57617 7.27539ZM8.04688 7.27539Q7.63672 7.27539 7.35352 6.99219Q7.07031 6.70898 7.07031 6.28906Q7.07031 5.89844 7.35352 5.60547Q7.63672 5.3125 8.04688 5.3125Q8.45703 5.3125 8.74023 5.60547Q9.02344 5.89844 9.02344 6.28906Q9.02344 6.70898 8.74023 6.99219Q8.45703 7.27539 8.04688 7.27539ZM3.11523 10.0879Q2.70508 10.0879 2.42188 9.80469Q2.13867 9.52148 2.13867 9.11133Q2.13867 8.71094 2.42188 8.42285Q2.70508 8.13477 3.11523 8.13477Q3.52539 8.13477 3.81348 8.42285Q4.10156 8.71094 4.10156 9.11133Q4.10156 9.52148 3.81348 9.80469Q3.52539 10.0879 3.11523 10.0879ZM5.57617 10.0879Q5.16602 10.0879 4.88281 9.80469Q4.59961 9.52148 4.59961 9.11133Q4.59961 8.71094 4.88281 8.42285Q5.16602 8.13477 5.57617 8.13477Q5.98633 8.13477 6.26953 8.42285Q6.55273 8.71094 6.55273 9.11133Q6.55273 9.52148 6.26953 9.80469Q5.98633 10.0879 5.57617 10.0879ZM8.04688 10.0879Q7.63672 10.0879 7.35352 9.80469Q7.07031 9.52148 7.07031 9.11133Q7.07031 8.71094 7.35352 8.42285Q7.63672 8.13477 8.04688 8.13477Q8.45703 8.13477 8.74023 8.42285Q9.02344 8.71094 9.02344 9.11133Q9.02344 9.52148 8.74023 9.80469Q8.45703 10.0879 8.04688 10.0879ZM3.11523 12.9004Q2.70508 12.9004 2.42188 12.6221Q2.13867 12.3438 2.13867 11.9238Q2.13867 11.5234 2.42188 11.2354Q2.70508 10.9473 3.11523 10.9473Q3.52539 10.9473 3.81348 11.2354Q4.10156 11.5234 4.10156 11.9238Q4.10156 12.3438 3.81348 12.6221Q3.52539 12.9004 3.11523 12.9004ZM5.57617 12.9004Q5.16602 12.9004 4.88281 12.6172Q4.59961 12.334 4.59961 11.9238Q4.59961 11.5137 4.88281 11.2305Q5.16602 10.9473 5.57617 10.9473Q5.98633 10.9473 6.26953 11.2305Q6.55273 11.5137 6.55273 11.9238Q6.55273 12.334 6.26953 12.6172Q5.98633 12.9004 5.57617 12.9004ZM8.04688 12.9004Q7.63672 12.9004 7.35352 12.6172Q7.07031 12.334 7.07031 11.9238Q7.07031 11.5137 7.35352 11.2305Q7.63672 10.9473 8.04688 10.9473Q8.45703 10.9473 8.74023 11.2305Q9.02344 11.5137 9.02344 11.9238Q9.02344 12.334 8.74023 12.6172Q8.45703 12.9004 8.04688 12.9004ZM2.90039 19.5898Q2.57812 19.5898 2.3584 19.3652Q2.13867 19.1406 2.13867 18.8281L2.13867 15.2637Q2.13867 14.9512 2.3584 14.7314Q2.57812 14.5117 2.90039 14.5117Q3.21289 14.5117 3.43262 14.7314Q3.65234 14.9512 3.65234 15.2637L3.65234 18.8281Q3.65234 19.1406 3.43262 19.3652Q3.21289 19.5898 2.90039 19.5898ZM5.07812 16.6699Q4.83398 16.6699 4.69727 16.5283Q4.56055 16.3867 4.56055 16.1426L4.56055 15.4883Q4.56055 15.2344 4.69727 15.0928Q4.83398 14.9512 5.07812 14.9512L6.06445 14.9512Q6.32812 14.9512 6.45996 15.0928Q6.5918 15.2344 6.5918 15.4883L6.5918 16.1426Q6.5918 16.3867 6.45996 16.5283Q6.32812 16.6699 6.06445 16.6699ZM5.07812 19.1309Q4.83398 19.1309 4.69727 18.9941Q4.56055 18.8574 4.56055 18.6133L4.56055 17.959Q4.56055 17.4316 5.07812 17.4316L6.06445 17.4316Q6.5918 17.4316 6.5918 17.959L6.5918 18.6133Q6.5918 19.1309 6.06445 19.1309ZM8.26172 19.5898Q7.94922 19.5898 7.72949 19.3652Q7.50977 19.1406 7.50977 18.8281L7.50977 15.2637Q7.50977 14.9512 7.72949 14.7314Q7.94922 14.5117 8.26172 14.5117Q8.58398 14.5117 8.80371 14.7314Q9.02344 14.9512 9.02344 15.2637L9.02344 18.8281Q9.02344 19.1406 8.80371 19.3652Q8.58398 19.5898 8.26172 19.5898Z" fill="#007aff"/>
 </g>
</svg>
