<?xml version="1.0" encoding="UTF-8"?>
<!--Generator: Apple Native CoreSVG 175-->
<!DOCTYPE svg
PUBLIC "-//W3C//DTD SVG 1.1//EN"
       "http://www.w3.org/Graphics/SVG/1.1/DTD/svg11.dtd">
<svg version="1.1" xmlns="http://www.w3.org/2000/svg" xmlns:xlink="http://www.w3.org/1999/xlink" width="17.2852" height="17.3145">
 <g>
  <rect height="17.3145" opacity="0" width="17.2852" x="0" y="0"/>
  <path d="M2.62695 17.3145L14.6484 17.3145Q15.957 17.3145 16.6211 16.6455Q17.2852 15.9766 17.2852 14.6875L17.2852 2.65625Q17.2852 1.37695 16.6211 0.703125Q15.957 0.0292969 14.6484 0.0292969L2.62695 0.0292969Q1.33789 0.0292969 0.668945 0.693359Q0 1.35742 0 2.65625L0 14.6875Q0 15.9863 0.668945 16.6504Q1.33789 17.3145 2.62695 17.3145Z" fill="#ffffff"/>
  <path d="M6.08398 13.0566Q5.9082 13.0566 5.80566 12.9443Q5.70312 12.832 5.70312 12.6367L5.70312 4.64844Q5.70312 4.22852 6.08398 4.22852L8.94531 4.22852Q10.0879 4.22852 10.8057 4.83398Q11.5234 5.43945 11.5234 6.39648Q11.5234 7.12891 11.1182 7.68555Q10.7129 8.24219 10.0781 8.39844L10.0781 8.4375Q10.9766 8.56445 11.5088 9.15039Q12.041 9.73633 12.041 10.6152Q12.041 11.7578 11.2207 12.4072Q10.4004 13.0566 8.97461 13.0566ZM6.43555 8.20312L8.64258 8.20312Q9.58008 8.20312 10.1709 7.73438Q10.7617 7.26562 10.7617 6.5332Q10.7617 5.74219 10.2539 5.30762Q9.74609 4.87305 8.80859 4.87305L6.43555 4.87305ZM6.43555 12.4121L8.65234 12.4121Q9.95117 12.4121 10.6055 11.9629Q11.2598 11.5137 11.2598 10.625Q11.2598 9.78516 10.6885 9.30664Q10.1172 8.82812 9.12109 8.82812L6.43555 8.82812Z" fill="#ffffff"/>
 </g>
</svg>
