<?xml version="1.0" encoding="UTF-8"?>
<!--Generator: Apple Native CoreSVG 175.5-->
<!DOCTYPE svg
PUBLIC "-//W3C//DTD SVG 1.1//EN"
       "http://www.w3.org/Graphics/SVG/1.1/DTD/svg11.dtd">
<svg version="1.1" xmlns="http://www.w3.org/2000/svg" xmlns:xlink="http://www.w3.org/1999/xlink" width="17.9785" height="17.998">
 <g>
  <rect height="17.998" opacity="0" width="17.9785" x="0" y="0"/>
  <path d="M3.06641 17.998L14.9121 17.998Q16.4453 17.998 17.2119 17.2412Q17.9785 16.4844 17.9785 14.9707L17.9785 3.04688Q17.9785 1.5332 17.2119 0.776367Q16.4453 0.0195312 14.9121 0.0195312L3.06641 0.0195312Q1.5332 0.0195312 0.766602 0.776367Q0 1.5332 0 3.04688L0 14.9707Q0 16.4844 0.766602 17.2412Q1.5332 17.998 3.06641 17.998Z" fill="#007aff"/>
  <path d="M6.5918 13.5059Q6.17188 13.5059 5.93262 13.2666Q5.69336 13.0273 5.69336 12.6074L5.69336 5.20508Q5.69336 4.29688 6.5918 4.29688L9.55078 4.29688Q10.8496 4.29688 11.6309 4.91699Q12.4121 5.53711 12.4121 6.57227Q12.4121 7.32422 11.9775 7.87109Q11.543 8.41797 10.791 8.60352L10.791 8.66211Q11.7969 8.78906 12.3779 9.38965Q12.959 9.99023 12.959 10.918Q12.959 12.0996 12.0264 12.8027Q11.0938 13.5059 9.53125 13.5059ZM7.25586 8.21289L8.76953 8.21289Q9.78516 8.21289 10.3223 7.85156Q10.8594 7.49023 10.8594 6.82617Q10.8594 6.20117 10.4248 5.84473Q9.99023 5.48828 9.22852 5.48828L7.25586 5.48828ZM7.25586 12.3145L8.89648 12.3145Q10.1562 12.3145 10.752 11.958Q11.3477 11.6016 11.3477 10.8496Q11.3477 10.127 10.835 9.72656Q10.3223 9.32617 9.39453 9.32617L7.25586 9.32617Z" fill="#ffffff"/>
 </g>
</svg>
