<?xml version="1.0" encoding="UTF-8"?>
<!--Generator: Apple Native CoreSVG 175.5-->
<!DOCTYPE svg
PUBLIC "-//W3C//DTD SVG 1.1//EN"
       "http://www.w3.org/Graphics/SVG/1.1/DTD/svg11.dtd">
<svg version="1.1" xmlns="http://www.w3.org/2000/svg" xmlns:xlink="http://www.w3.org/1999/xlink" width="19.9219" height="19.9316">
 <g>
  <rect height="19.9316" opacity="0" width="19.9219" x="0" y="0"/>
  <path d="M9.96094 19.9219Q12.002 19.9219 13.8037 19.1406Q15.6055 18.3594 16.9824 16.9824Q18.3594 15.6055 19.1406 13.8037Q19.9219 12.002 19.9219 9.96094Q19.9219 7.91992 19.1406 6.11816Q18.3594 4.31641 16.9824 2.93945Q15.6055 1.5625 13.7988 0.78125Q11.9922 0 9.95117 0Q7.91016 0 6.1084 0.78125Q4.30664 1.5625 2.93457 2.93945Q1.5625 4.31641 0.78125 6.11816Q0 7.91992 0 9.96094Q0 12.002 0.78125 13.8037Q1.5625 15.6055 2.93945 16.9824Q4.31641 18.3594 6.11816 19.1406Q7.91992 19.9219 9.96094 19.9219Z" fill="#007aff"/>
  <path d="M5.57617 13.1738L5.57617 6.74805Q5.57617 6.12305 6.20117 6.12305L7.28516 6.12305Q7.91016 6.12305 7.91016 6.74805L7.91016 9.6875Q8.01758 9.44336 8.31055 9.27734L13.1152 6.45508Q13.252 6.36719 13.3838 6.32812Q13.5156 6.28906 13.6523 6.28906Q13.9355 6.28906 14.1309 6.48926Q14.3262 6.68945 14.3262 7.08008L14.3262 12.8711Q14.3262 13.2715 14.1309 13.4668Q13.9355 13.6621 13.6523 13.6621Q13.5156 13.6621 13.3838 13.623Q13.252 13.584 13.1152 13.4961L8.31055 10.6738Q8.01758 10.5078 7.91016 10.2637L7.91016 13.1738Q7.91016 13.7988 7.28516 13.7988L6.20117 13.7988Q5.57617 13.7988 5.57617 13.1738Z" fill="#ffffff"/>
 </g>
</svg>
