<?xml version="1.0" encoding="UTF-8"?>
<!--Generator: Apple Native CoreSVG 175.5-->
<!DOCTYPE svg
PUBLIC "-//W3C//DTD SVG 1.1//EN"
       "http://www.w3.org/Graphics/SVG/1.1/DTD/svg11.dtd">
<svg version="1.1" xmlns="http://www.w3.org/2000/svg" xmlns:xlink="http://www.w3.org/1999/xlink" width="31.6602" height="15.9082">
 <g>
  <rect height="15.9082" opacity="0" width="31.6602" x="0" y="0"/>
  <path d="M1.29883 15.9082L3.52539 15.9082Q4.16016 15.9082 4.49219 15.5762Q4.82422 15.2441 4.82422 14.5996L4.82422 1.29883Q4.82422 0.634766 4.49219 0.317383Q4.16016 0 3.52539 0L1.29883 0Q0.654297 0 0.327148 0.332031Q0 0.664062 0 1.29883L0 14.5996Q0 15.2441 0.327148 15.5762Q0.654297 15.9082 1.29883 15.9082ZM16.8359 15.6152Q17.4121 15.6152 17.8271 15.1904Q18.2422 14.7656 18.2422 13.9453L18.2422 1.95312Q18.2422 1.13281 17.8271 0.703125Q17.4121 0.273438 16.8359 0.273438Q16.543 0.273438 16.2793 0.366211Q16.0156 0.458984 15.7129 0.634766L5.76172 6.49414Q5.24414 6.80664 5.00977 7.16797Q4.77539 7.5293 4.77539 7.94922Q4.77539 8.36914 5.00977 8.73047Q5.24414 9.0918 5.76172 9.4043L15.7129 15.2539Q16.0156 15.4297 16.2793 15.5225Q16.543 15.6152 16.8359 15.6152ZM30.2539 15.6152Q30.8301 15.6152 31.2451 15.1904Q31.6602 14.7656 31.6602 13.9453L31.6602 1.95312Q31.6602 1.13281 31.2451 0.703125Q30.8301 0.273438 30.2539 0.273438Q29.9609 0.273438 29.6973 0.366211Q29.4336 0.458984 29.1309 0.634766L19.1797 6.49414Q18.6621 6.80664 18.4277 7.16797Q18.1934 7.5293 18.1934 7.94922Q18.1934 8.36914 18.4277 8.73047Q18.6621 9.0918 19.1797 9.4043L29.1309 15.2539Q29.4336 15.4297 29.6973 15.5225Q29.9609 15.6152 30.2539 15.6152Z" fill="#007aff"/>
 </g>
</svg>
