<?xml version="1.0" encoding="UTF-8"?>
<!--Generator: Apple Native CoreSVG 175.5-->
<!DOCTYPE svg
PUBLIC "-//W3C//DTD SVG 1.1//EN"
       "http://www.w3.org/Graphics/SVG/1.1/DTD/svg11.dtd">
<svg version="1.1" xmlns="http://www.w3.org/2000/svg" xmlns:xlink="http://www.w3.org/1999/xlink" width="11.7578" height="21.9238">
 <g>
  <rect height="21.9238" opacity="0" width="11.7578" x="0" y="0"/>
  <path d="M1.21094 19.707L5.9082 19.707Q7.73438 19.707 9.04297 19.1357Q10.3516 18.5645 11.0547 17.4951Q11.7578 16.4258 11.7578 14.9316Q11.7578 13.7598 11.2549 12.8467Q10.752 11.9336 9.85352 11.3672Q8.95508 10.8008 7.76367 10.6543L7.76367 10.5762Q8.65234 10.4102 9.35547 9.85352Q10.0586 9.29688 10.4639 8.48145Q10.8691 7.66602 10.8691 6.72852Q10.8691 5.43945 10.2441 4.47754Q9.61914 3.51562 8.49609 2.9834Q7.37305 2.45117 5.88867 2.45117L1.21094 2.45117Q0.654297 2.45117 0.327148 2.7832Q0 3.11523 0 3.66211L0 18.4961Q0 19.043 0.327148 19.375Q0.654297 19.707 1.21094 19.707ZM1.86523 4.0918L5.45898 4.0918Q6.5625 4.0918 7.3584 4.41895Q8.1543 4.74609 8.5791 5.38086Q9.00391 6.01562 9.00391 6.92383Q9.00391 7.91016 8.52051 8.59863Q8.03711 9.28711 7.12402 9.63867Q6.21094 9.99023 4.92188 9.99023L1.86523 9.99023ZM1.86523 18.0664L1.86523 11.6406L5.39062 11.6406Q7.55859 11.6406 8.71094 12.4561Q9.86328 13.2715 9.86328 14.8535Q9.86328 16.4258 8.75488 17.2461Q7.64648 18.0664 5.61523 18.0664ZM4.38477 21.2793Q4.38477 21.543 4.5752 21.7334Q4.76562 21.9238 5.0293 21.9238Q5.29297 21.9238 5.47852 21.7334Q5.66406 21.543 5.66406 21.2793L5.66406 0.712891Q5.66406 0.449219 5.47852 0.258789Q5.29297 0.0683594 5.0293 0.0683594Q4.76562 0.0683594 4.5752 0.258789Q4.38477 0.449219 4.38477 0.712891Z" fill="#007aff"/>
 </g>
</svg>
