<?xml version="1.0" encoding="UTF-8"?>
<!--Generator: Apple Native CoreSVG 175-->
<!DOCTYPE svg
PUBLIC "-//W3C//DTD SVG 1.1//EN"
       "http://www.w3.org/Graphics/SVG/1.1/DTD/svg11.dtd">
<svg version="1.1" xmlns="http://www.w3.org/2000/svg" xmlns:xlink="http://www.w3.org/1999/xlink" width="19.1602" height="19.1504">
 <g>
  <rect height="19.1504" opacity="0" width="19.1602" x="0" y="0"/>
  <path d="M9.57031 19.1406Q11.5527 19.1406 13.2861 18.3984Q15.0195 17.6562 16.3379 16.333Q17.6562 15.0098 18.4082 13.2764Q19.1602 11.543 19.1602 9.57031Q19.1602 7.59766 18.4082 5.86426Q17.6562 4.13086 16.3379 2.80762Q15.0195 1.48438 13.2861 0.742188Q11.5527 0 9.57031 0Q7.59766 0 5.86426 0.742188Q4.13086 1.48438 2.81738 2.80762Q1.50391 4.13086 0.751953 5.86426Q0 7.59766 0 9.57031Q0 11.543 0.74707 13.2764Q1.49414 15.0098 2.8125 16.333Q4.13086 17.6562 5.86914 18.3984Q7.60742 19.1406 9.57031 19.1406Z" fill="#ffffff"/>
  <path d="M9.56055 15.0586Q9.44336 15.0586 9.35547 14.9756Q9.26758 14.8926 9.26758 14.7559L9.26758 13.8574L7.65625 13.8574Q7.48047 13.8574 7.36816 13.75Q7.25586 13.6426 7.25586 13.457L7.25586 5.88867Q7.25586 5.70312 7.36816 5.5957Q7.48047 5.48828 7.65625 5.48828L9.26758 5.48828L9.26758 4.67773Q9.26758 4.54102 9.35547 4.45801Q9.44336 4.375 9.56055 4.375Q9.6875 4.375 9.77051 4.45801Q9.85352 4.54102 9.85352 4.67773L9.85352 5.48828L10.0488 5.48828Q11.1621 5.48828 11.8408 6.0791Q12.5195 6.66992 12.5195 7.59766Q12.5195 8.21289 12.1973 8.7207Q11.875 9.22852 11.3086 9.49219Q12.0312 9.70703 12.4902 10.2539Q12.9492 10.8008 12.9492 11.5723Q12.9492 12.6074 12.1875 13.2324Q11.4258 13.8574 10.0977 13.8574L9.85352 13.8574L9.85352 14.7559Q9.85352 14.8926 9.77051 14.9756Q9.6875 15.0586 9.56055 15.0586ZM7.91016 13.2227L9.26758 13.2129L9.26758 9.86328L7.91016 9.86328ZM9.85352 13.2129Q11.084 13.2031 11.6846 12.7734Q12.2852 12.3438 12.2852 11.5625Q12.2852 10.752 11.6602 10.3125Q11.0352 9.87305 9.85352 9.86328ZM7.90039 9.22852L9.26758 9.22852L9.26758 6.10352L7.91016 6.10352ZM9.85352 9.21875Q10.8301 9.18945 11.333 8.75977Q11.8359 8.33008 11.8359 7.60742Q11.8359 6.9043 11.3281 6.50879Q10.8203 6.11328 9.85352 6.11328Z" fill="#ffffff"/>
 </g>
</svg>
