<?xml version="1.0" encoding="UTF-8"?>
<!--Generator: Apple Native CoreSVG 175.5-->
<!DOCTYPE svg
PUBLIC "-//W3C//DTD SVG 1.1//EN"
       "http://www.w3.org/Graphics/SVG/1.1/DTD/svg11.dtd">
<svg version="1.1" xmlns="http://www.w3.org/2000/svg" xmlns:xlink="http://www.w3.org/1999/xlink" width="25.7812" height="16.1426">
 <g>
  <rect height="16.1426" opacity="0" width="25.7812" x="0" y="0"/>
  <path d="M2.62695 12.9395Q2.62695 13.5156 3.19336 13.5156L22.5977 13.5156Q23.1641 13.5156 23.1641 12.9395L23.1641 3.19336Q23.1641 2.61719 22.5977 2.61719L3.19336 2.61719Q2.62695 2.61719 2.62695 3.19336ZM3.61328 12.3047L3.61328 3.82812Q3.61328 3.60352 3.82812 3.60352L21.9531 3.60352Q22.1777 3.60352 22.1777 3.82812L22.1777 12.3047Q22.1777 12.5293 21.9531 12.5293L3.82812 12.5293Q3.61328 12.5293 3.61328 12.3047ZM12.8516 13.5156Q13.9062 13.5156 14.7656 12.8467Q15.625 12.1777 16.1328 10.9521Q16.6406 9.72656 16.6406 8.05664Q16.6406 6.39648 16.1328 5.17578Q15.625 3.95508 14.7656 3.28613Q13.9062 2.61719 12.8516 2.61719Q11.8262 2.61719 10.9863 3.28613Q10.1465 3.95508 9.64844 5.17578Q9.15039 6.39648 9.15039 8.05664Q9.15039 9.72656 9.64844 10.9521Q10.1465 12.1777 10.9863 12.8467Q11.8262 13.5156 12.8516 13.5156ZM12.8516 12.3633Q12.1582 12.3633 11.5723 11.8408Q10.9863 11.3184 10.6348 10.3516Q10.2832 9.38477 10.2832 8.05664Q10.2832 6.73828 10.6348 5.77637Q10.9863 4.81445 11.5723 4.29199Q12.1582 3.76953 12.8516 3.76953Q13.5742 3.76953 14.1797 4.29199Q14.7852 4.81445 15.1514 5.77637Q15.5176 6.73828 15.5176 8.05664Q15.5176 9.38477 15.1514 10.3516Q14.7852 11.3184 14.1797 11.8408Q13.5742 12.3633 12.8516 12.3633Z" fill="#007aff"/>
  <path d="M0 15.3613Q0 15.7129 0.214844 15.9277Q0.429688 16.1426 0.78125 16.1426L25.0098 16.1426Q25.3613 16.1426 25.5713 15.9277Q25.7812 15.7129 25.7812 15.3613L25.7812 0.771484Q25.7812 0.419922 25.5713 0.209961Q25.3613 0 25.0098 0L0.78125 0Q0.429688 0 0.214844 0.209961Q0 0.419922 0 0.771484ZM1.57227 14.2871L1.57227 1.85547Q1.57227 1.57227 1.85547 1.57227L23.9258 1.57227Q24.209 1.57227 24.209 1.85547L24.209 14.2871Q24.209 14.5703 23.9258 14.5703L1.85547 14.5703Q1.57227 14.5703 1.57227 14.2871Z" fill="#007aff"/>
 </g>
</svg>
