<?xml version="1.0" encoding="UTF-8"?>
<!--Generator: Apple Native CoreSVG 175-->
<!DOCTYPE svg
PUBLIC "-//W3C//DTD SVG 1.1//EN"
       "http://www.w3.org/Graphics/SVG/1.1/DTD/svg11.dtd">
<svg version="1.1" xmlns="http://www.w3.org/2000/svg" xmlns:xlink="http://www.w3.org/1999/xlink" width="19.1554" height="19.1583">
 <g>
  <rect height="19.1583" opacity="0" width="19.1554" x="0" y="0"/>
  <path d="M9.57306 11.3486Q10.0563 11.3486 10.4616 11.1083Q10.8669 10.8681 11.1071 10.4663Q11.3474 10.0645 11.3474 9.57428Q11.3474 9.08401 11.1071 8.68225Q10.8669 8.28049 10.4616 8.04024Q10.0563 7.79999 9.57306 7.79999Q9.08279 7.79999 8.67752 8.04024Q8.27225 8.28049 8.032 8.68225Q7.79175 9.08401 7.79175 9.57428Q7.79175 10.0645 8.032 10.4663Q8.27225 10.8681 8.67752 11.1083Q9.08279 11.3486 9.57306 11.3486ZM9.57306 10.6946Q9.10507 10.6946 8.77541 10.3684Q8.44574 10.0423 8.44574 9.57428Q8.44574 9.10629 8.77541 8.78014Q9.10507 8.45398 9.57306 8.45398Q10.034 8.45398 10.3637 8.78014Q10.6934 9.10629 10.6934 9.57428Q10.6934 10.0423 10.3637 10.3684Q10.034 10.6946 9.57306 10.6946ZM8.79608 10.8611L8.28751 10.3523L7.22458 11.4082Q7.11945 11.5231 7.11945 11.671Q7.11945 11.8188 7.22458 11.924Q7.33673 12.029 7.48459 12.029Q7.63245 12.029 7.74017 11.924ZM10.3706 8.27194L10.8794 8.77502L14.709 4.94537Q14.8167 4.84039 14.8167 4.69246Q14.8167 4.54453 14.709 4.4368Q14.6039 4.33167 14.456 4.33167Q14.3082 4.33167 14.2032 4.4368ZM9.57428 19.1486Q11.552 19.1486 13.2834 18.4024Q15.0148 17.6562 16.3355 16.3356Q17.6562 15.015 18.4058 13.28Q19.1554 11.545 19.1554 9.57428Q19.1554 7.60361 18.4058 5.86861Q17.6562 4.13361 16.3355 2.81296Q15.0148 1.49231 13.282 0.746155Q11.5492 0 9.57153 0Q7.60086 0 5.86586 0.746155Q4.13086 1.49231 2.81502 2.81296Q1.49918 4.13361 0.749588 5.86861Q0 7.60361 0 9.57428Q0 11.545 0.746078 13.28Q1.49216 15.015 2.81288 16.3356Q4.13361 17.6562 5.86853 18.4024Q7.60345 19.1486 9.57428 19.1486ZM9.57428 18.4024Q7.74734 18.4024 6.14853 17.7157Q4.54971 17.029 3.33466 15.8174Q2.1196 14.6059 1.43425 13.0035Q0.748901 11.4012 0.748901 9.57428Q0.748901 7.74734 1.43425 6.14502Q2.1196 4.54269 3.33328 3.32626Q4.54697 2.10983 6.14578 1.42448Q7.7446 0.739136 9.57153 0.739136Q11.4055 0.739136 13.0043 1.42448Q14.6031 2.10983 15.8195 3.32626Q17.036 4.54269 17.7227 6.14502Q18.4094 7.74734 18.4094 9.57428Q18.4094 11.4012 17.7241 13.0035Q17.0387 14.6059 15.8237 15.8174Q14.6086 17.029 13.0084 17.7157Q11.4082 18.4024 9.57428 18.4024Z" fill="#007aff"/>
 </g>
</svg>
