<?xml version="1.0" encoding="UTF-8"?>
<!--Generator: Apple Native CoreSVG 175.5-->
<!DOCTYPE svg
PUBLIC "-//W3C//DTD SVG 1.1//EN"
       "http://www.w3.org/Graphics/SVG/1.1/DTD/svg11.dtd">
<svg version="1.1" xmlns="http://www.w3.org/2000/svg" xmlns:xlink="http://www.w3.org/1999/xlink" width="22.8711" height="21.8115">
 <g>
  <rect height="21.8115" opacity="0" width="22.8711" x="0" y="0"/>
  <path d="M0 8.71338Q0 9.40674 0.400391 9.80713Q0.800781 10.2075 1.49414 10.2075L21.3672 10.2075Q22.0605 10.2075 22.4658 9.80713Q22.8711 9.40674 22.8711 8.71338L22.8711 8.23486Q22.8711 7.55127 22.4658 7.14111Q22.0605 6.73096 21.3672 6.73096L1.49414 6.73096Q0.800781 6.73096 0.400391 7.14111Q0 7.55127 0 8.23486ZM6.21094 20.9302L16.6602 20.9302Q17.7832 20.9302 18.4424 20.5396Q19.1016 20.1489 19.4336 19.5239Q19.7656 18.8989 19.9023 18.1958L21.2598 11.5454L1.62109 11.5454L2.96875 18.1958Q3.10547 18.8989 3.4375 19.5239Q3.76953 20.1489 4.42871 20.5396Q5.08789 20.9302 6.21094 20.9302ZM6.8457 19.2505Q6.57227 19.2896 6.38184 19.1577Q6.19141 19.0259 6.14258 18.7817L5.30273 13.8696Q5.25391 13.6255 5.40039 13.4399Q5.54688 13.2544 5.83008 13.2056Q6.10352 13.1665 6.30371 13.2983Q6.50391 13.4302 6.54297 13.6743L7.37305 18.5864Q7.41211 18.8306 7.27539 19.0161Q7.13867 19.2017 6.8457 19.2505ZM9.94141 19.2407Q9.6582 19.2603 9.47754 19.104Q9.29688 18.9478 9.27734 18.6938L8.95508 13.8403Q8.93555 13.5864 9.10156 13.4155Q9.26758 13.2446 9.54102 13.2251Q9.82422 13.2056 10.0049 13.3618Q10.1855 13.5181 10.2051 13.772L10.5273 18.6255Q10.5371 18.8794 10.3711 19.0503Q10.2051 19.2212 9.94141 19.2407ZM12.9492 19.2407Q12.6758 19.2212 12.5098 19.0503Q12.3438 18.8794 12.3535 18.6255L12.6758 13.772Q12.6953 13.5181 12.876 13.3618Q13.0566 13.2056 13.3398 13.2251Q13.6133 13.2446 13.7793 13.4155Q13.9453 13.5864 13.9258 13.8403L13.6035 18.6938Q13.584 18.9478 13.4033 19.104Q13.2227 19.2603 12.9492 19.2407ZM16.0254 19.2505Q15.7422 19.2017 15.6006 19.0161Q15.459 18.8306 15.498 18.5864L16.3281 13.6743Q16.3672 13.4302 16.5674 13.2983Q16.7676 13.1665 17.041 13.2056Q17.3242 13.2544 17.4707 13.4497Q17.6172 13.645 17.5684 13.8892L16.7285 18.7817Q16.6797 19.0259 16.4844 19.1577Q16.2891 19.2896 16.0254 19.2505ZM3.14453 7.15088L5.09766 7.15088L8.53516 1.18408Q8.73047 0.83252 8.6084 0.544434Q8.48633 0.256348 8.22266 0.109863Q7.95898-0.0366211 7.64648 0.012207Q7.33398 0.0610352 7.13867 0.393066ZM17.7734 7.15088L19.7266 7.15088L15.7324 0.393066Q15.5469 0.0708008 15.2344 0.0219727Q14.9219-0.0268555 14.6484 0.109863Q14.3848 0.256348 14.2627 0.544434Q14.1406 0.83252 14.3359 1.18408Z" fill="#007aff"/>
 </g>
</svg>
