<?xml version="1.0" encoding="UTF-8"?>
<!--Generator: Apple Native CoreSVG 175.5-->
<!DOCTYPE svg
PUBLIC "-//W3C//DTD SVG 1.1//EN"
       "http://www.w3.org/Graphics/SVG/1.1/DTD/svg11.dtd">
<svg version="1.1" xmlns="http://www.w3.org/2000/svg" xmlns:xlink="http://www.w3.org/1999/xlink" width="19.9219" height="19.9316">
 <g>
  <rect height="19.9316" opacity="0" width="19.9219" x="0" y="0"/>
  <path d="M9.96094 19.9219Q12.002 19.9219 13.8037 19.1406Q15.6055 18.3594 16.9824 16.9824Q18.3594 15.6055 19.1406 13.8037Q19.9219 12.002 19.9219 9.96094Q19.9219 7.91992 19.1406 6.11816Q18.3594 4.31641 16.9824 2.93945Q15.6055 1.5625 13.7988 0.78125Q11.9922 0 9.95117 0Q7.91016 0 6.1084 0.78125Q4.30664 1.5625 2.93457 2.93945Q1.5625 4.31641 0.78125 6.11816Q0 7.91992 0 9.96094Q0 12.002 0.78125 13.8037Q1.5625 15.6055 2.93945 16.9824Q4.31641 18.3594 6.11816 19.1406Q7.91992 19.9219 9.96094 19.9219ZM9.96094 18.2617Q8.23242 18.2617 6.72852 17.6172Q5.22461 16.9727 4.08691 15.835Q2.94922 14.6973 2.30957 13.1934Q1.66992 11.6895 1.66992 9.96094Q1.66992 8.23242 2.30957 6.72852Q2.94922 5.22461 4.08203 4.08203Q5.21484 2.93945 6.71875 2.2998Q8.22266 1.66016 9.95117 1.66016Q11.6797 1.66016 13.1885 2.2998Q14.6973 2.93945 15.835 4.08203Q16.9727 5.22461 17.6172 6.72852Q18.2617 8.23242 18.2617 9.96094Q18.2617 11.6895 17.6221 13.1934Q16.9824 14.6973 15.8398 15.835Q14.6973 16.9727 13.1934 17.6172Q11.6895 18.2617 9.96094 18.2617Z" fill="#32d74b"/>
  <path d="M6.37695 12.998L12.9492 12.998Q13.4961 12.998 13.9844 12.9053Q14.4727 12.8125 14.8242 12.4609Q15.1758 12.0996 15.2734 11.6113Q15.3711 11.123 15.3711 10.5859L15.3711 9.33594Q15.3711 8.78906 15.2734 8.30566Q15.1758 7.82227 14.8242 7.46094Q14.4727 7.10938 13.9795 7.01172Q13.4863 6.91406 12.9492 6.91406L6.37695 6.91406Q5.83984 6.91406 5.34668 7.01172Q4.85352 7.10938 4.49219 7.46094Q4.14062 7.82227 4.04785 8.30566Q3.95508 8.78906 3.95508 9.33594L3.95508 10.5859Q3.95508 11.123 4.04785 11.6113Q4.14062 12.0996 4.49219 12.4609Q4.85352 12.8125 5.3418 12.9053Q5.83008 12.998 6.37695 12.998ZM6.25 11.9141Q5.53711 11.9141 5.2832 11.6602Q5.16602 11.543 5.10742 11.3037Q5.04883 11.0645 5.04883 10.7031L5.04883 9.20898Q5.04883 8.85742 5.10742 8.61328Q5.16602 8.36914 5.2832 8.25195Q5.41992 8.125 5.65918 8.06152Q5.89844 7.99805 6.25 7.99805L13.0762 7.99805Q13.7793 7.99805 14.043 8.26172Q14.1602 8.37891 14.2236 8.62305Q14.2871 8.86719 14.2871 9.20898L14.2871 10.7031Q14.2871 11.0547 14.2236 11.2988Q14.1602 11.543 14.043 11.6602Q13.7891 11.9141 13.0762 11.9141ZM6.29883 11.3379L13.0371 11.3379Q13.418 11.3379 13.5645 11.2012Q13.7207 11.0449 13.7207 10.6738L13.7207 9.22852Q13.7207 8.85742 13.5645 8.70117Q13.4082 8.56445 13.0371 8.56445L6.29883 8.56445Q5.91797 8.56445 5.76172 8.70117Q5.625 8.85742 5.625 9.22852L5.625 10.6738Q5.625 11.0547 5.76172 11.2012Q5.91797 11.3379 6.29883 11.3379ZM15.8008 11.1133Q16.0645 11.0938 16.3428 10.7812Q16.6211 10.4688 16.6211 9.96094Q16.6211 9.45312 16.3428 9.14062Q16.0645 8.82812 15.8008 8.80859Z" fill="#32d74b"/>
 </g>
</svg>
