<?xml version="1.0" encoding="UTF-8"?>
<!--Generator: Apple Native CoreSVG 175.5-->
<!DOCTYPE svg
PUBLIC "-//W3C//DTD SVG 1.1//EN"
       "http://www.w3.org/Graphics/SVG/1.1/DTD/svg11.dtd">
<svg version="1.1" xmlns="http://www.w3.org/2000/svg" xmlns:xlink="http://www.w3.org/1999/xlink" width="19.7265" height="23.1671">
 <g>
  <rect height="23.1671" opacity="0" width="19.7265" x="0" y="0"/>
  <path d="M11.1011 4.99662L12.6539 5.56303L14.2359 1.19779Q14.3629 0.846229 14.231 0.533729Q14.0992 0.221229 13.7574 0.0942758Q13.4156-0.0326773 13.1177 0.113807Q12.8199 0.260291 12.6929 0.631385ZM11.2672 1.79349Q9.54841 1.44193 8.02986 1.64213Q6.5113 1.84232 5.22224 2.44779Q3.93318 3.05326 2.91267 3.93705Q1.89216 4.82084 1.17439 5.85599Q0.456617 6.89115 0.0757576 7.93607Q-0.0804924 8.34623 0.0855232 8.66361Q0.251539 8.98099 0.544508 9.09818Q0.778883 9.18607 0.998609 9.10795Q1.21834 9.02982 1.40388 8.87357Q2.08748 8.36576 2.75154 8.1851Q3.4156 8.00443 4.16755 8.28764Q4.67537 8.46342 4.98298 8.7808Q5.2906 9.09818 5.46638 9.44974Q5.5738 9.66459 5.7447 9.66459Q5.9156 9.66459 5.9742 9.43021Q6.38435 7.79935 7.16072 6.37357Q7.93709 4.94779 8.98689 3.78568Q10.0367 2.62357 11.2672 1.79349ZM13.2301 1.44193Q12.1851 2.14506 11.2281 3.09721Q10.2711 4.04935 9.47029 5.17728Q8.66951 6.30521 8.07869 7.55033Q7.48787 8.79545 7.17537 10.104Q7.11677 10.3579 7.28279 10.4898Q7.4488 10.6216 7.74177 10.5142Q8.32771 10.2701 8.88923 10.2115Q9.45076 10.1529 9.98787 10.3482Q10.525 10.5435 10.9156 10.9488Q11.3062 11.354 11.609 11.9204Q11.7554 12.1841 11.9605 12.1939Q12.1656 12.2037 12.2926 11.9693Q12.8883 10.7779 13.2398 9.43998Q13.5914 8.10209 13.7037 6.72025Q13.816 5.33842 13.6939 3.99076Q13.5719 2.6431 13.2301 1.44193ZM14.5582 2.9849Q14.9683 4.41068 15.022 5.97318Q15.0758 7.53568 14.7486 9.13236Q14.4215 10.729 13.7086 12.2525Q13.6109 12.4576 13.733 12.5747Q13.8551 12.6919 14.0797 12.5845Q14.4508 12.438 14.8853 12.3892Q15.3199 12.3404 15.8179 12.5259Q16.5797 12.7994 16.9752 13.3706Q17.3707 13.9419 17.566 14.7525Q17.6051 14.9966 17.7271 15.1968Q17.8492 15.397 18.0738 15.4751Q18.3765 15.5826 18.7086 15.441Q19.0406 15.2994 19.1871 14.8892Q19.5679 13.8443 19.6851 12.5943Q19.8023 11.3443 19.5875 10.0064Q19.3726 8.66849 18.772 7.37455Q18.1715 6.0806 17.1363 4.95267Q16.1011 3.82474 14.5582 2.9849ZM4.89021 22.0669Q4.77302 22.3892 4.91462 22.6968Q5.05623 23.0044 5.37849 23.1216Q5.69099 23.229 6.00837 23.0826Q6.32576 22.9361 6.43318 22.6236L10.9449 10.2505L9.40193 9.68412Z" fill="#007aff"/>
 </g>
</svg>
