<?xml version="1.0" encoding="UTF-8"?>
<!--Generator: Apple Native CoreSVG 175.5-->
<!DOCTYPE svg
PUBLIC "-//W3C//DTD SVG 1.1//EN"
       "http://www.w3.org/Graphics/SVG/1.1/DTD/svg11.dtd">
<svg version="1.1" xmlns="http://www.w3.org/2000/svg" xmlns:xlink="http://www.w3.org/1999/xlink" width="19.7131" height="23.1493">
 <g>
  <rect height="23.1493" opacity="0" width="19.7131" x="0" y="0"/>
  <path d="M0.0697545 7.91743Q-0.0767299 8.32759 0.0844029 8.64985Q0.245536 8.97212 0.54827 9.07954Q0.782645 9.16743 1.00237 9.08442Q1.2221 9.00142 1.41741 8.84517Q2.08147 8.35689 2.74554 8.17622Q3.4096 7.99556 4.17132 8.269Q4.93304 8.54243 5.2846 9.08931Q5.63616 9.63618 5.77288 10.4272Q5.81194 10.6811 5.9096 10.8764Q6.00725 11.0717 6.23186 11.1499Q6.46624 11.2377 6.67132 11.1547Q6.8764 11.0717 7.07171 10.9057Q7.51116 10.5346 8.07268 10.3491Q8.63421 10.1635 9.20061 10.1928L4.87444 22.0483Q4.75725 22.3608 4.90374 22.6733Q5.05022 22.9858 5.37249 23.103Q5.68499 23.2104 5.99749 23.0688Q6.30999 22.9272 6.42718 22.6049L10.7436 10.7495Q11.1928 11.0913 11.5004 11.5942Q11.808 12.0971 11.8959 12.6733Q11.9545 12.9174 12.0522 13.1127Q12.1498 13.3081 12.3744 13.3862Q12.5991 13.4741 12.8041 13.3862Q13.0092 13.2983 13.2045 13.1323Q13.81 12.6245 14.4301 12.4243Q15.0502 12.2241 15.8119 12.4975Q16.5737 12.7807 16.9692 13.3471Q17.3647 13.9135 17.5502 14.7338Q17.6088 14.9682 17.7211 15.1733Q17.8334 15.3784 18.0678 15.4565Q18.3705 15.5639 18.7074 15.4272Q19.0444 15.2905 19.1811 14.8706Q19.5815 13.7768 19.684 12.4487Q19.7866 11.1206 19.5278 9.71431Q19.269 8.30806 18.5707 6.9604Q17.8725 5.61275 16.6811 4.47505Q15.4897 3.33735 13.7221 2.5561L14.2299 1.17915Q14.3569 0.817823 14.225 0.510206Q14.0932 0.202589 13.7416 0.0756357Q13.3998-0.0513174 13.1069 0.10005Q12.8139 0.251417 12.6772 0.612745L12.1791 1.99946Q10.3237 1.45259 8.67815 1.56001Q7.03265 1.66743 5.63616 2.24849Q4.23968 2.82954 3.13128 3.73775Q2.02288 4.64595 1.24651 5.72993Q0.470145 6.81392 0.0697545 7.91743ZM2.35491 6.78462Q2.97991 5.82759 3.85393 5.07075Q4.72796 4.31392 5.80706 3.82075Q6.88616 3.32759 8.10686 3.16157Q9.32757 2.99556 10.6362 3.22017Q9.45452 3.99165 8.3803 5.32466Q7.30608 6.65767 6.5639 8.41548Q6.27093 7.84907 5.79729 7.46333Q5.32366 7.07759 4.69866 6.85298Q3.50725 6.42329 2.35491 6.78462ZM7.74554 8.90376Q8.30218 7.57564 9.07366 6.52095Q9.84515 5.46626 10.7143 4.73872Q11.5834 4.01118 12.433 3.66939Q12.8725 4.47993 13.0776 5.5981Q13.2826 6.71626 13.1948 8.02485Q13.1069 9.33345 12.6772 10.7104Q12.3256 10.0952 11.7592 9.6313Q11.1928 9.16743 10.5287 8.91353Q9.86468 8.66939 9.13225 8.66939Q8.39983 8.66939 7.74554 8.90376ZM13.8881 11.0815Q14.4643 9.25532 14.4936 7.54634Q14.5229 5.83735 14.1225 4.4897Q15.2651 5.16353 16.0903 6.07661Q16.9155 6.9897 17.4233 8.05903Q17.9311 9.12837 18.1117 10.2709Q18.2924 11.4135 18.1557 12.5366Q17.8237 12.0288 17.3647 11.6674Q16.9057 11.3061 16.3295 11.0815Q15.0307 10.6127 13.8881 11.0815Z" fill="#007aff"/>
 </g>
</svg>
