<?xml version="1.0" encoding="UTF-8"?>
<!--Generator: Apple Native CoreSVG 175-->
<!DOCTYPE svg
PUBLIC "-//W3C//DTD SVG 1.1//EN"
       "http://www.w3.org/Graphics/SVG/1.1/DTD/svg11.dtd">
<svg version="1.1" xmlns="http://www.w3.org/2000/svg" xmlns:xlink="http://www.w3.org/1999/xlink" width="18.595" height="18.5464">
 <g>
  <rect height="18.5464" opacity="0" width="18.595" x="0" y="0"/>
  <path d="M5.62775 18.5297L12.8606 18.5297Q15.6816 18.5297 17.1383 17.1025Q18.595 15.6754 18.595 12.9019L18.595 5.63477Q18.595 2.85431 17.1383 1.42715Q15.6816 0 12.8606 0L5.62775 0Q2.85431 0 1.42715 1.42715Q0 2.85431 0 5.63477L0 12.9019Q0 15.6754 1.42715 17.1025Q2.85431 18.5297 5.62775 18.5297ZM5.58167 17.8082Q3.19489 17.8082 1.96175 16.575Q0.728607 15.3418 0.728607 12.948L0.728607 5.58868Q0.728607 3.19489 1.96175 1.96167Q3.19489 0.728455 5.58167 0.728455L13.1129 0.728455Q15.452 0.728455 16.6592 1.90834Q17.8664 3.08823 17.8664 5.37537L17.8664 13.1543Q17.8664 15.4485 16.6592 16.6283Q15.452 17.8082 13.1129 17.8082ZM9.29611 13.8875Q10.5754 13.8875 11.6217 13.2576Q12.668 12.6277 13.2881 11.5779Q13.9082 10.5281 13.9082 9.26834Q13.9082 7.99881 13.277 6.95389Q12.6457 5.90897 11.5973 5.28885Q10.5489 4.66873 9.29611 4.66873Q8.95706 4.66873 8.64944 4.70291Q8.34183 4.73709 8.07541 4.81522L8.07541 7.4324Q8.64182 7.02225 9.29611 7.02225Q9.89456 7.02225 10.3975 7.32986Q10.9004 7.63748 11.208 8.15018Q11.5157 8.66287 11.5157 9.26834Q11.5157 9.87381 11.2164 10.3719Q10.9172 10.8699 10.4108 11.1678Q9.90433 11.4656 9.29611 11.4656Q8.36136 11.4656 7.72034 10.8308Q7.07932 10.1961 7.07932 9.26834L7.07932 5.21561Q5.9758 5.83084 5.33127 6.90994Q4.68674 7.98904 4.68674 9.26834Q4.68674 10.5476 5.30685 11.5974Q5.92697 12.6472 6.97327 13.2674Q8.01956 13.8875 9.29611 13.8875ZM9.29611 10.489Q9.78439 10.489 10.1457 10.1228Q10.507 9.75662 10.507 9.26834Q10.507 8.79959 10.1408 8.43338Q9.77463 8.06717 9.29611 8.06717Q8.82034 8.06717 8.45413 8.42361Q8.08792 8.78006 8.08792 9.26834Q8.08792 9.77615 8.44437 10.1326Q8.80081 10.489 9.29611 10.489Z" fill="#ffffff"/>
 </g>
</svg>
