<?xml version="1.0" encoding="UTF-8"?>
<!--Generator: Apple Native CoreSVG 175-->
<!DOCTYPE svg
PUBLIC "-//W3C//DTD SVG 1.1//EN"
       "http://www.w3.org/Graphics/SVG/1.1/DTD/svg11.dtd">
<svg version="1.1" xmlns="http://www.w3.org/2000/svg" xmlns:xlink="http://www.w3.org/1999/xlink" width="24.9805" height="16.7871">
 <g>
  <rect height="16.7871" opacity="0" width="24.9805" x="0" y="0"/>
  <path d="M7.73438 0Q6.46484 0 5.30762 0.551758Q4.15039 1.10352 3.18359 2.09961Q2.2168 3.0957 1.50391 4.45312Q0.791016 5.81055 0.395508 7.43652Q0 9.0625 0 10.8594Q0 11.9043 0.131836 12.959Q0.263672 14.0137 0.483398 14.8779Q0.703125 15.7422 0.991211 16.2598Q1.2793 16.7773 1.5918 16.7773Q2.00195 16.7773 2.31445 16.4795Q2.62695 16.1816 2.81738 15.7129Q3.00781 15.2441 3.01758 14.7754Q2.34375 14.5801 1.81152 14.126Q1.2793 13.6719 0.976562 13.042Q0.673828 12.4121 0.673828 11.6797Q0.673828 11.0352 0.90332 10.4688Q1.13281 9.90234 1.57227 9.44336Q1.66992 7.87109 2.1875 6.4502Q2.70508 5.0293 3.53516 3.92578Q4.36523 2.82227 5.41992 2.1875Q6.47461 1.55273 7.63672 1.55273Q9.01367 1.55273 9.66797 2.55859Q10.3223 3.56445 10.3223 5.46875L2.98828 9.31641Q2.1875 9.73633 1.80664 10.3564Q1.42578 10.9766 1.42578 11.6797Q1.42578 12.3438 1.75293 12.9004Q2.08008 13.457 2.63672 13.7939Q3.19336 14.1309 3.88672 14.1309Q4.375 14.1309 4.82422 13.9795Q5.27344 13.8281 5.98633 13.4375L9.67773 11.4062Q10.4883 10.9668 10.9668 10.4248Q11.4453 9.88281 11.6553 9.10156Q11.8652 8.32031 11.8652 7.1875L11.8652 5.20508Q11.8652 2.8125 10.8252 1.40625Q9.78516 0 7.73438 0ZM3.86719 13.3008Q3.19336 13.3008 2.70996 12.8223Q2.22656 12.3438 2.22656 11.6602Q2.22656 10.9766 2.70996 10.4932Q3.19336 10.0098 3.86719 10.0098Q4.55078 10.0098 5.03418 10.4932Q5.51758 10.9766 5.51758 11.6602Q5.51758 12.334 5.03418 12.8174Q4.55078 13.3008 3.86719 13.3008ZM3.86719 12.7832Q4.33594 12.7832 4.66797 12.4512Q5 12.1191 5 11.6602Q5 11.1914 4.66797 10.8545Q4.33594 10.5176 3.86719 10.5176Q3.39844 10.5176 3.07129 10.8545Q2.74414 11.1914 2.74414 11.6602Q2.74414 12.1191 3.07129 12.4512Q3.39844 12.7832 3.86719 12.7832ZM17.2461 0Q15.1953 0 14.1553 1.40625Q13.1152 2.8125 13.1152 5.20508L13.1152 7.1875Q13.1152 8.32031 13.3252 9.10156Q13.5352 9.88281 14.0137 10.4248Q14.4922 10.9668 15.3027 11.4062L18.9941 13.4375Q19.707 13.8281 20.1514 13.9795Q20.5957 14.1309 21.084 14.1309Q21.7773 14.1309 22.334 13.7939Q22.8906 13.457 23.2178 12.9004Q23.5449 12.3438 23.5449 11.6797Q23.5449 10.9766 23.1689 10.3564Q22.793 9.73633 22.002 9.31641L14.6484 5.46875Q14.6484 3.56445 15.3027 2.55859Q15.957 1.55273 17.334 1.55273Q18.5059 1.55273 19.5557 2.1875Q20.6055 2.82227 21.4355 3.92578Q22.2656 5.0293 22.7881 6.4502Q23.3105 7.87109 23.4082 9.44336Q23.8477 9.90234 24.0771 10.4688Q24.3066 11.0352 24.3066 11.6797Q24.3066 12.4121 23.999 13.042Q23.6914 13.6719 23.1592 14.126Q22.627 14.5801 21.9531 14.7754Q21.9727 15.2441 22.1582 15.7129Q22.3438 16.1816 22.6611 16.4795Q22.9785 16.7773 23.3789 16.7773Q23.7012 16.7773 23.9893 16.2598Q24.2773 15.7422 24.4971 14.8779Q24.7168 14.0137 24.8486 12.959Q24.9805 11.9043 24.9805 10.8594Q24.9805 9.0625 24.5898 7.43652Q24.1992 5.81055 23.4814 4.45312Q22.7637 3.0957 21.7969 2.09961Q20.8301 1.10352 19.6729 0.551758Q18.5156 0 17.2461 0ZM21.1035 13.3008Q20.4297 13.3008 19.9463 12.8174Q19.4629 12.334 19.4629 11.6602Q19.4629 10.9766 19.9463 10.4932Q20.4297 10.0098 21.1035 10.0098Q21.7773 10.0098 22.2656 10.4932Q22.7539 10.9766 22.7539 11.6602Q22.7539 12.3438 22.2656 12.8223Q21.7773 13.3008 21.1035 13.3008ZM21.1035 12.7832Q21.582 12.7832 21.9092 12.4512Q22.2363 12.1191 22.2363 11.6602Q22.2363 11.1914 21.9092 10.8545Q21.582 10.5176 21.1035 10.5176Q20.6445 10.5176 20.3174 10.8545Q19.9902 11.1914 19.9902 11.6602Q19.9902 12.1191 20.3174 12.4512Q20.6445 12.7832 21.1035 12.7832Z" fill="#000000"/>
 </g>
</svg>
