<?xml version="1.0" encoding="UTF-8"?>
<!--Generator: Apple Native CoreSVG 175-->
<!DOCTYPE svg
PUBLIC "-//W3C//DTD SVG 1.1//EN"
       "http://www.w3.org/Graphics/SVG/1.1/DTD/svg11.dtd">
<svg version="1.1" xmlns="http://www.w3.org/2000/svg" xmlns:xlink="http://www.w3.org/1999/xlink" width="25.8173" height="18.4927">
 <g>
  <rect height="18.4927" opacity="0" width="25.8173" x="0" y="0"/>
  <path d="M4.33472 14.1731L11.6547 14.1731Q11.8379 14.1731 11.9635 14.0593Q12.0891 13.9455 12.1071 13.7454L12.4644 10.1485Q12.4797 9.90829 12.343 9.76608Q12.2063 9.62387 11.9521 9.62387L4.33472 9.62387Q3.71017 9.62387 3.19572 9.93134Q2.68127 10.2388 2.37381 10.7616Q2.06635 11.2845 2.06635 11.9118Q2.06635 12.532 2.37381 13.0452Q2.68127 13.5583 3.19572 13.8657Q3.71017 14.1731 4.33472 14.1731ZM4.33472 12.9352Q4.77463 12.9352 5.07622 12.6329Q5.37781 12.3306 5.37781 11.8907Q5.37781 11.4578 5.07622 11.1493Q4.77463 10.8408 4.33472 10.8408Q3.90198 10.8408 3.59474 11.1493Q3.28751 11.4578 3.28751 11.8907Q3.28751 12.3306 3.59474 12.6329Q3.90198 12.9352 4.33472 12.9352ZM9.56879 18.49L10.3629 18.49L10.6836 15.4829L9.87274 15.4829ZM4.33472 13.474Q3.67508 13.474 3.21198 13.0122Q2.74887 12.5505 2.74887 11.8907Q2.74887 11.2379 3.21198 10.77Q3.67508 10.302 4.33472 10.302Q4.99451 10.302 5.45898 10.77Q5.92346 11.2379 5.92346 11.8907Q5.92346 12.5505 5.45898 13.0122Q4.99451 13.474 4.33472 13.474ZM8.07236 0Q6.51367 0 5.06584 0.672073Q3.61801 1.34415 2.47757 2.57324Q1.33713 3.80234 0.668564 5.47974Q0 7.15714 0 9.17465Q0 10.2399 0.134583 11.4055Q0.269165 12.5711 0.522842 13.6733Q0.77652 14.7755 1.14395 15.6657Q1.51138 16.5559 1.98402 17.0907Q2.45667 17.6254 3.01987 17.6352Q3.38669 17.6352 3.59352 17.2433Q3.80035 16.8513 3.80035 16.1087Q3.80035 15.7872 3.77029 15.4884Q3.74023 15.1895 3.66058 14.893Q2.98477 14.7325 2.44278 14.3032Q1.90079 13.8739 1.59081 13.2552Q1.28082 12.6364 1.28082 11.9118Q1.28082 11.5176 1.37619 11.1464Q1.47156 10.7751 1.64688 10.4477Q1.56296 10.1324 1.51253 9.81453Q1.4621 9.49661 1.4621 9.15283Q1.4621 7.55478 2.04842 6.15891Q2.63474 4.76303 3.58986 3.70598Q4.54498 2.64893 5.69595 2.052Q6.84692 1.45508 7.97897 1.45508Q9.40826 1.45508 10.095 2.52052Q10.7817 3.58597 10.5907 5.43488L9.53949 15.659Q9.50745 16.0454 9.7039 16.2469Q9.90036 16.4485 10.1862 16.4653Q10.472 16.4821 10.7061 16.3274Q10.9402 16.1728 10.9723 15.8493L12.025 5.37354Q12.2871 2.79419 11.2534 1.39709Q10.2196 0 8.07236 0ZM21.4798 14.1731Q22.1071 14.1731 22.6215 13.8657Q23.136 13.5583 23.4435 13.0452Q23.7509 12.532 23.7509 11.9118Q23.7509 11.2845 23.4435 10.7616Q23.136 10.2388 22.6215 9.93134Q22.1071 9.62387 21.4798 9.62387L13.8724 9.62387Q13.611 9.62387 13.4743 9.76608Q13.3376 9.90829 13.3528 10.1485L13.7102 13.7454Q13.7325 13.9455 13.8594 14.0593Q13.9864 14.1731 14.1599 14.1731ZM21.4798 12.9352Q21.9125 12.9352 22.2198 12.6329Q22.527 12.3306 22.527 11.8907Q22.527 11.4578 22.2198 11.1493Q21.9125 10.8408 21.4798 10.8408Q21.0399 10.8408 20.7397 11.1493Q20.4396 11.4578 20.4396 11.8907Q20.4396 12.3306 20.7397 12.6329Q21.0399 12.9352 21.4798 12.9352ZM16.2485 18.49L15.9419 15.4829L15.1337 15.4829L15.4544 18.49ZM21.4798 13.474Q20.82 13.474 20.359 13.0122Q19.8981 12.5505 19.8981 11.8907Q19.8981 11.2379 20.359 10.77Q20.82 10.302 21.4798 10.302Q22.1423 10.302 22.6075 10.77Q23.0727 11.2379 23.0727 11.8907Q23.0727 12.5505 22.6075 13.0122Q22.1423 13.474 21.4798 13.474ZM17.7451 0Q15.5977 0 14.5674 1.39709Q13.5371 2.79419 13.7923 5.37354L14.845 15.8493Q14.8813 16.1728 15.1168 16.3274Q15.3523 16.4821 15.6381 16.4653Q15.9239 16.4485 16.1204 16.2469Q16.3168 16.0454 16.275 15.659L15.2266 5.43488Q15.0258 3.58597 15.7174 2.52052Q16.409 1.45508 17.8383 1.45508Q18.9703 1.45508 20.1213 2.052Q21.2723 2.64893 22.2309 3.70598Q23.1895 4.76303 23.771 6.15891Q24.3524 7.55478 24.3524 9.15283Q24.3524 9.49661 24.3034 9.81453Q24.2545 10.1324 24.1704 10.4477Q24.3459 10.7751 24.4398 11.1464Q24.5337 11.5176 24.5337 11.9118Q24.5337 12.6364 24.2237 13.2552Q23.9137 13.8739 23.3731 14.3032Q22.8325 14.7325 22.1567 14.893Q22.077 15.1895 22.0456 15.4884Q22.0142 15.7872 22.0142 16.1087Q22.0142 16.8513 22.221 17.2433Q22.4278 17.6352 22.8017 17.6352Q23.3578 17.6254 23.8306 17.0907Q24.3033 16.5559 24.672 15.6657Q25.0407 14.7755 25.2966 13.6733Q25.5524 12.5711 25.6848 11.4055Q25.8173 10.2399 25.8173 9.17465Q25.8173 7.15714 25.1473 5.47974Q24.4774 3.80234 23.3383 2.57324Q22.1992 1.34415 20.7514 0.672073Q19.3036 0 17.7451 0Z" fill="#000000"/>
 </g>
</svg>
