<?xml version="1.0" encoding="UTF-8"?>
<!--Generator: Apple Native CoreSVG 175-->
<!DOCTYPE svg
PUBLIC "-//W3C//DTD SVG 1.1//EN"
       "http://www.w3.org/Graphics/SVG/1.1/DTD/svg11.dtd">
<svg version="1.1" xmlns="http://www.w3.org/2000/svg" xmlns:xlink="http://www.w3.org/1999/xlink" width="14.3379" height="15.4865">
 <g>
  <rect height="15.4865" opacity="0" width="14.3379" x="0" y="0"/>
  <path d="M11.125 11.283Q11.6992 11.283 12.2645 11.0487Q12.8297 10.8145 13.2479 10.3315Q13.6661 9.84848 13.7985 9.11255L14.2598 6.62628Q14.4981 5.38208 14.0092 4.30962Q13.5204 3.23715 12.3949 2.38464Q11.2695 1.53214 9.59061 0.944977Q8.17734 0.454254 6.78986 0.227127Q5.40237 0 4.01566 0Q3.60306 0 3.41751 0.147095Q3.23196 0.294189 3.23196 0.606689Q3.23196 1.31638 3.60153 1.78261Q3.9711 2.24884 4.61761 2.33521Q5.75241 2.50244 6.68518 2.76527Q7.61795 3.02811 8.29498 3.37036Q8.69537 3.56293 8.82912 3.83072Q8.96286 4.09851 8.88748 4.55505L8.35114 7.80243Q8.19656 8.76251 8.52547 9.55215Q8.85437 10.3418 9.53873 10.8124Q10.2231 11.283 11.125 11.283ZM11.125 10.0771Q10.4485 10.0771 9.98184 9.60693Q9.51523 9.13681 9.51523 8.46024Q9.51523 7.78641 9.98184 7.31842Q10.4485 6.85043 11.125 6.85043Q11.7946 6.85043 12.2612 7.31705Q12.7278 7.78366 12.7278 8.46024Q12.7278 9.13956 12.2612 9.60831Q11.7946 10.0771 11.125 10.0771ZM11.125 9.53125Q11.5747 9.53125 11.8819 9.22409Q12.189 8.91693 12.189 8.46024Q12.189 8.01331 11.8819 7.70119Q11.5747 7.38907 11.125 7.38907Q10.6755 7.38907 10.3648 7.70119Q10.054 8.01331 10.054 8.46024Q10.054 8.91693 10.3648 9.22409Q10.6755 9.53125 11.125 9.53125ZM11.125 12.0755Q10.2582 12.0755 9.54391 11.7257Q8.82965 11.3759 8.33633 10.7683Q7.84302 10.1607 7.63672 9.36554Q7.43042 8.5704 7.57812 7.67426L7.92389 5.55939Q6.44577 5.93872 5.47722 6.5696Q4.50867 7.20047 4.0863 8.08945Q4.83475 11.3927 6.51993 14.3169Q6.9368 14.5302 7.3848 14.6208Q7.83279 14.7115 8.44498 14.7115Q9.65973 14.7115 10.6906 14.4109Q11.7215 14.1103 12.4969 13.54Q13.2722 12.9697 13.7207 12.148Q14.1692 11.3263 14.2122 10.2814Q13.7677 11.1052 12.9482 11.5903Q12.1286 12.0755 11.125 12.0755ZM0 11.7989Q0 12.9013 0.45784 13.7249Q0.91568 14.5485 1.7379 15.0112Q2.56012 15.4739 3.66684 15.4739Q4.24026 15.4739 4.78012 15.3167Q5.31998 15.1595 5.87769 14.7849Q4.97467 13.2434 4.3399 11.6059Q3.70514 9.96841 3.30505 8.23914Q2.29568 8.39737 1.55212 8.89595Q0.808563 9.39453 0.404282 10.1428Q0 10.8911 0 11.7989Z" fill="#007aff"/>
 </g>
</svg>
