<?xml version="1.0" encoding="UTF-8"?>
<!--Generator: Apple Native CoreSVG 175.5-->
<!DOCTYPE svg
PUBLIC "-//W3C//DTD SVG 1.1//EN"
       "http://www.w3.org/Graphics/SVG/1.1/DTD/svg11.dtd">
<svg version="1.1" xmlns="http://www.w3.org/2000/svg" xmlns:xlink="http://www.w3.org/1999/xlink" width="24.7461" height="16.4941">
 <g>
  <rect height="16.4941" opacity="0" width="24.7461" x="0" y="0"/>
  <path d="M0.830078 16.4746L1.41602 16.4746Q1.78711 16.4746 2.0166 16.25Q2.24609 16.0254 2.24609 15.6445L2.24609 14.1992Q2.33398 14.2188 2.53418 14.2334Q2.73438 14.248 2.91016 14.248L21.8359 14.248Q22.0117 14.248 22.2168 14.2334Q22.4219 14.2188 22.5 14.1992L22.5 15.6445Q22.5 16.0254 22.7295 16.25Q22.959 16.4746 23.3301 16.4746L23.916 16.4746Q24.2969 16.4746 24.5215 16.25Q24.7461 16.0254 24.7461 15.6445L24.7461 8.95508Q24.7461 7.55859 24.0088 6.82129Q23.2715 6.08398 21.8652 6.08398L2.88086 6.08398Q1.48438 6.08398 0.742188 6.82129Q0 7.55859 0 8.95508L0 15.6445Q0 16.0254 0.224609 16.25Q0.449219 16.4746 0.830078 16.4746ZM1.95312 12.8223Q1.62109 12.8223 1.62109 12.4414L1.62109 8.73047Q1.62109 8.17383 1.96289 7.8418Q2.30469 7.50977 2.87109 7.50977L21.8848 7.50977Q22.4512 7.50977 22.7881 7.8418Q23.125 8.17383 23.125 8.73047L23.125 12.4414Q23.125 12.8223 22.793 12.8223ZM2.53906 6.28906L5.10742 6.28906L5.10742 4.27734Q5.10742 3.60352 5.47852 3.2373Q5.84961 2.87109 6.54297 2.87109L9.9707 2.87109Q10.6543 2.87109 11.0254 3.2373Q11.3965 3.60352 11.3965 4.27734L11.3965 6.28906L13.3496 6.28906L13.3496 4.27734Q13.3496 3.60352 13.7207 3.2373Q14.0918 2.87109 14.7754 2.87109L18.2031 2.87109Q18.8965 2.87109 19.2676 3.2373Q19.6387 3.60352 19.6387 4.27734L19.6387 6.28906L22.207 6.28906L22.207 2.73438Q22.207 1.37695 21.5039 0.688477Q20.8008 0 19.4824 0L5.26367 0Q3.95508 0 3.24707 0.688477Q2.53906 1.37695 2.53906 2.73438Z" fill="#66d4cf"/>
 </g>
</svg>
