<?xml version="1.0" encoding="UTF-8"?>
<!--Generator: Apple Native CoreSVG 175.5-->
<!DOCTYPE svg
PUBLIC "-//W3C//DTD SVG 1.1//EN"
       "http://www.w3.org/Graphics/SVG/1.1/DTD/svg11.dtd">
<svg version="1.1" xmlns="http://www.w3.org/2000/svg" xmlns:xlink="http://www.w3.org/1999/xlink" width="19.9219" height="19.9316">
 <g>
  <rect height="19.9316" opacity="0" width="19.9219" x="0" y="0"/>
  <path d="M9.96094 19.9219Q12.002 19.9219 13.8037 19.1406Q15.6055 18.3594 16.9824 16.9824Q18.3594 15.6055 19.1406 13.8037Q19.9219 12.002 19.9219 9.96094Q19.9219 7.91992 19.1406 6.11816Q18.3594 4.31641 16.9824 2.93945Q15.6055 1.5625 13.7988 0.78125Q11.9922 0 9.95117 0Q7.91016 0 6.1084 0.78125Q4.30664 1.5625 2.93457 2.93945Q1.5625 4.31641 0.78125 6.11816Q0 7.91992 0 9.96094Q0 12.002 0.78125 13.8037Q1.5625 15.6055 2.93945 16.9824Q4.31641 18.3594 6.11816 19.1406Q7.91992 19.9219 9.96094 19.9219ZM9.96094 18.2617Q8.23242 18.2617 6.72852 17.6172Q5.22461 16.9727 4.08691 15.835Q2.94922 14.6973 2.30957 13.1934Q1.66992 11.6895 1.66992 9.96094Q1.66992 8.23242 2.30957 6.72852Q2.94922 5.22461 4.08203 4.08203Q5.21484 2.93945 6.71875 2.2998Q8.22266 1.66016 9.95117 1.66016Q11.6797 1.66016 13.1885 2.2998Q14.6973 2.93945 15.835 4.08203Q16.9727 5.22461 17.6172 6.72852Q18.2617 8.23242 18.2617 9.96094Q18.2617 11.6895 17.6221 13.1934Q16.9824 14.6973 15.8398 15.835Q14.6973 16.9727 13.1934 17.6172Q11.6895 18.2617 9.96094 18.2617Z" fill="#66d4cf"/>
  <path d="M4.0625 13.4766Q4.0625 13.8672 4.46289 13.8672L4.72656 13.8672Q5.12695 13.8672 5.12695 13.4766L5.12695 12.793Q5.16602 12.8027 5.26367 12.8027Q5.36133 12.8027 5.44922 12.8027L14.4727 12.8027Q14.5605 12.8027 14.6533 12.8027Q14.7461 12.8027 14.7852 12.793L14.7852 13.4766Q14.7852 13.8672 15.1855 13.8672L15.459 13.8672Q15.8496 13.8672 15.8496 13.4766L15.8496 10.7031Q15.8496 10.0391 15.4932 9.68262Q15.1367 9.32617 14.4727 9.32617L5.43945 9.32617Q4.77539 9.32617 4.41895 9.68262Q4.0625 10.0391 4.0625 10.7031ZM5.17578 8.66211L6.35742 8.66211L6.35742 8.00781Q6.35742 7.67578 6.5332 7.5Q6.70898 7.32422 7.05078 7.32422L8.7793 7.32422Q9.11133 7.32422 9.28711 7.5Q9.46289 7.67578 9.46289 8.00781L9.46289 8.66211L10.5176 8.66211L10.5176 8.00781Q10.5176 7.32422 11.2207 7.32422L12.8418 7.32422Q13.5547 7.32422 13.5547 8.00781L13.5547 8.66211L14.7363 8.66211L14.7363 7.33398Q14.7363 6.68945 14.3994 6.36719Q14.0625 6.04492 13.4473 6.04492L6.47461 6.04492Q5.84961 6.04492 5.5127 6.36719Q5.17578 6.68945 5.17578 7.33398Z" fill="#66d4cf"/>
 </g>
</svg>
