<?xml version="1.0" encoding="UTF-8"?>
<!--Generator: Apple Native CoreSVG 175-->
<!DOCTYPE svg
PUBLIC "-//W3C//DTD SVG 1.1//EN"
       "http://www.w3.org/Graphics/SVG/1.1/DTD/svg11.dtd">
<svg version="1.1" xmlns="http://www.w3.org/2000/svg" xmlns:xlink="http://www.w3.org/1999/xlink" width="19.1602" height="19.1504">
 <g>
  <rect height="19.1504" opacity="0" width="19.1602" x="0" y="0"/>
  <path d="M9.57031 19.1406Q11.5527 19.1406 13.2861 18.3984Q15.0195 17.6562 16.3379 16.333Q17.6562 15.0098 18.4082 13.2764Q19.1602 11.543 19.1602 9.57031Q19.1602 7.59766 18.4082 5.86426Q17.6562 4.13086 16.3379 2.80762Q15.0195 1.48438 13.2861 0.742188Q11.5527 0 9.57031 0Q7.59766 0 5.86426 0.742188Q4.13086 1.48438 2.81738 2.80762Q1.50391 4.13086 0.751953 5.86426Q0 7.59766 0 9.57031Q0 11.543 0.74707 13.2764Q1.49414 15.0098 2.8125 16.333Q4.13086 17.6562 5.86914 18.3984Q7.60742 19.1406 9.57031 19.1406ZM9.57031 18.3984Q7.74414 18.3984 6.14746 17.71Q4.55078 17.0215 3.33496 15.8105Q2.11914 14.5996 1.43555 12.998Q0.751953 11.3965 0.751953 9.57031Q0.751953 7.74414 1.43555 6.14258Q2.11914 4.54102 3.33496 3.3252Q4.55078 2.10938 6.14746 1.4209Q7.74414 0.732422 9.57031 0.732422Q11.4062 0.732422 13.0029 1.4209Q14.5996 2.10938 15.8154 3.3252Q17.0312 4.54102 17.7197 6.14258Q18.4082 7.74414 18.4082 9.57031Q18.4082 11.3965 17.7246 12.998Q17.041 14.5996 15.8252 15.8105Q14.6094 17.0215 13.0078 17.71Q11.4062 18.3984 9.57031 18.3984ZM4.95117 13.1152L14.209 13.1152Q14.375 13.1152 14.4727 13.0176Q14.5703 12.9199 14.5703 12.7637Q14.5703 12.3438 14.2676 11.9873Q13.9648 11.6309 13.6328 11.2598Q13.3496 10.957 13.2373 10.459Q13.125 9.96094 13.0811 9.37012Q13.0371 8.7793 12.9492 8.20312Q12.8418 7.08008 12.3779 6.2793Q11.9141 5.47852 10.9375 5.19531Q10.8398 4.63867 10.4736 4.28711Q10.1074 3.93555 9.58008 3.93555Q9.05273 3.93555 8.68652 4.28711Q8.32031 4.63867 8.23242 5.19531Q7.24609 5.47852 6.78711 6.2793Q6.32812 7.08008 6.20117 8.20312Q6.12305 8.7793 6.0791 9.37012Q6.03516 9.96094 5.91797 10.4541Q5.80078 10.9473 5.51758 11.2598Q5.20508 11.6309 4.89746 11.9873Q4.58984 12.3438 4.58984 12.7637Q4.58984 12.9199 4.6875 13.0176Q4.78516 13.1152 4.95117 13.1152ZM9.58008 15.1367Q10.2051 15.1367 10.6006 14.7656Q10.9961 14.3945 11.0742 13.7793L8.07617 13.7793Q8.16406 14.3945 8.55957 14.7656Q8.95508 15.1367 9.58008 15.1367Z" fill="#ff3b30"/>
 </g>
</svg>
