<?xml version="1.0" encoding="UTF-8"?>
<!--Generator: Apple Native CoreSVG 175.5-->
<!DOCTYPE svg
PUBLIC "-//W3C//DTD SVG 1.1//EN"
       "http://www.w3.org/Graphics/SVG/1.1/DTD/svg11.dtd">
<svg version="1.1" xmlns="http://www.w3.org/2000/svg" xmlns:xlink="http://www.w3.org/1999/xlink" width="19.9219" height="19.9316">
 <g>
  <rect height="19.9316" opacity="0" width="19.9219" x="0" y="0"/>
  <path d="M9.96094 19.9219Q12.002 19.9219 13.8037 19.1406Q15.6055 18.3594 16.9824 16.9824Q18.3594 15.6055 19.1406 13.8037Q19.9219 12.002 19.9219 9.96094Q19.9219 7.91992 19.1406 6.11816Q18.3594 4.31641 16.9824 2.93945Q15.6055 1.5625 13.7988 0.78125Q11.9922 0 9.95117 0Q7.91016 0 6.1084 0.78125Q4.30664 1.5625 2.93457 2.93945Q1.5625 4.31641 0.78125 6.11816Q0 7.91992 0 9.96094Q0 12.002 0.78125 13.8037Q1.5625 15.6055 2.93945 16.9824Q4.31641 18.3594 6.11816 19.1406Q7.91992 19.9219 9.96094 19.9219ZM9.96094 18.2617Q8.23242 18.2617 6.72852 17.6172Q5.22461 16.9727 4.08691 15.835Q2.94922 14.6973 2.30957 13.1934Q1.66992 11.6895 1.66992 9.96094Q1.66992 8.23242 2.30957 6.72852Q2.94922 5.22461 4.08203 4.08203Q5.21484 2.93945 6.71875 2.2998Q8.22266 1.66016 9.95117 1.66016Q11.6797 1.66016 13.1885 2.2998Q14.6973 2.93945 15.835 4.08203Q16.9727 5.22461 17.6172 6.72852Q18.2617 8.23242 18.2617 9.96094Q18.2617 11.6895 17.6221 13.1934Q16.9824 14.6973 15.8398 15.835Q14.6973 16.9727 13.1934 17.6172Q11.6895 18.2617 9.96094 18.2617Z" fill="#007aff"/>
  <path d="M5.61523 13.8574Q6.37695 13.8574 6.99707 13.4863Q7.61719 13.1152 7.98828 12.4951Q8.35938 11.875 8.35938 11.1133Q8.35938 10.3613 7.98828 9.73633Q7.61719 9.11133 6.99707 8.74023Q6.37695 8.36914 5.61523 8.36914Q4.85352 8.36914 4.2334 8.74023Q3.61328 9.11133 3.24219 9.73633Q2.87109 10.3613 2.87109 11.1133Q2.87109 11.875 3.24219 12.4951Q3.61328 13.1152 4.2334 13.4863Q4.85352 13.8574 5.61523 13.8574ZM5.625 13.0566Q4.81445 13.0566 4.24316 12.4902Q3.67188 11.9238 3.67188 11.1035Q3.67188 10.293 4.24316 9.72656Q4.81445 9.16016 5.625 9.16016Q6.43555 9.16016 7.00195 9.72656Q7.56836 10.293 7.56836 11.1035Q7.56836 11.9238 7.00195 12.4902Q6.43555 13.0566 5.625 13.0566ZM5.625 11.7676Q5.88867 11.7676 6.0791 11.5771Q6.26953 11.3867 6.26953 11.1133Q6.26953 10.8398 6.0791 10.6494Q5.88867 10.459 5.625 10.459Q5.3418 10.459 5.15137 10.6494Q4.96094 10.8398 4.96094 11.1133Q4.96094 11.3867 5.15137 11.5771Q5.3418 11.7676 5.625 11.7676ZM14.3066 13.8574Q15.0684 13.8574 15.6934 13.4863Q16.3184 13.1152 16.6846 12.4951Q17.0508 11.875 17.0508 11.1133Q17.0508 10.3613 16.6846 9.73633Q16.3184 9.11133 15.6934 8.74023Q15.0684 8.36914 14.3066 8.36914Q13.5547 8.36914 12.9297 8.74023Q12.3047 9.11133 11.9336 9.73633Q11.5625 10.3613 11.5625 11.1133Q11.5625 11.875 11.9336 12.4951Q12.3047 13.1152 12.9297 13.4863Q13.5547 13.8574 14.3066 13.8574ZM14.3262 13.0566Q13.5059 13.0566 12.9346 12.4902Q12.3633 11.9238 12.3633 11.1035Q12.3633 10.293 12.9346 9.72656Q13.5059 9.16016 14.3262 9.16016Q15.127 9.16016 15.6982 9.72656Q16.2695 10.293 16.2695 11.1035Q16.2695 11.9238 15.6982 12.4902Q15.127 13.0566 14.3262 13.0566ZM14.3262 11.7676Q14.5898 11.7676 14.7803 11.5771Q14.9707 11.3867 14.9707 11.1133Q14.9707 10.8398 14.7803 10.6494Q14.5898 10.459 14.3262 10.459Q14.043 10.459 13.8525 10.6494Q13.6621 10.8398 13.6621 11.1133Q13.6621 11.3867 13.8525 11.5771Q14.043 11.7676 14.3262 11.7676ZM6.58203 6.77734L8.41797 6.77734Q8.58398 6.77734 8.70605 6.66016Q8.82812 6.54297 8.82812 6.38672Q8.82812 6.2207 8.71094 6.10352Q8.59375 5.98633 8.41797 5.98633L6.58203 5.98633Q6.41602 5.98633 6.29883 6.10352Q6.18164 6.2207 6.18164 6.38672Q6.18164 6.54297 6.29883 6.66016Q6.41602 6.77734 6.58203 6.77734ZM5.49805 10.6738L6.13281 11.1328L8.26172 8.7793L9.27734 10.6152L8.0957 10.6152L8.0957 11.3672L9.375 11.3672Q9.67773 11.3672 9.84863 11.2891Q10.0195 11.2109 10.1855 11.0352L12.6562 8.14453L13.8281 11.0352L14.5508 10.7129L12.373 5.38086Q12.2266 5.05859 11.8457 5.05859L10.6445 5.05859Q10.4785 5.05859 10.3564 5.1709Q10.2344 5.2832 10.2344 5.44922Q10.2344 5.60547 10.3516 5.72266Q10.4688 5.83984 10.6445 5.83984L11.7285 5.83984L12.334 7.33398L8.60352 7.8125L7.88086 6.50391L7.08984 6.69922L7.83203 8.00781ZM9.01367 8.55469L11.7285 8.08594L9.92188 10.166Z" fill="#007aff"/>
 </g>
</svg>
