<?xml version="1.0" encoding="UTF-8"?>
<!--Generator: Apple Native CoreSVG 175.5-->
<!DOCTYPE svg
PUBLIC "-//W3C//DTD SVG 1.1//EN"
       "http://www.w3.org/Graphics/SVG/1.1/DTD/svg11.dtd">
<svg version="1.1" xmlns="http://www.w3.org/2000/svg" xmlns:xlink="http://www.w3.org/1999/xlink" width="11.7578" height="22.3926">
 <g>
  <rect height="22.3926" opacity="0" width="11.7578" x="0" y="0"/>
  <path d="M1.21094 19.9414L5.9082 19.9414Q7.73438 19.9414 9.04297 19.3701Q10.3516 18.7988 11.0547 17.7295Q11.7578 16.6602 11.7578 15.166Q11.7578 13.9941 11.2549 13.0811Q10.752 12.168 9.85352 11.6016Q8.95508 11.0352 7.76367 10.8887L7.76367 10.8105Q8.65234 10.6445 9.35547 10.0879Q10.0586 9.53125 10.4639 8.71582Q10.8691 7.90039 10.8691 6.96289Q10.8691 5.67383 10.2441 4.71191Q9.61914 3.75 8.49609 3.21777Q7.37305 2.68555 5.88867 2.68555L1.21094 2.68555Q0.654297 2.68555 0.327148 3.01758Q0 3.34961 0 3.89648L0 18.7305Q0 19.2773 0.327148 19.6094Q0.654297 19.9414 1.21094 19.9414ZM1.86523 10.2246L1.86523 4.32617L5.45898 4.32617Q6.5625 4.32617 7.3584 4.65332Q8.1543 4.98047 8.5791 5.61523Q9.00391 6.25 9.00391 7.1582Q9.00391 8.14453 8.52051 8.83301Q8.03711 9.52148 7.12402 9.87305Q6.21094 10.2246 4.92188 10.2246ZM1.86523 18.3008L1.86523 11.875L5.39062 11.875Q7.55859 11.875 8.71094 12.6904Q9.86328 13.5059 9.86328 15.0879Q9.86328 16.6602 8.75488 17.4805Q7.64648 18.3008 5.61523 18.3008ZM3.60352 3.79883L3.60352 0.947266Q3.60352 0.683594 3.41797 0.493164Q3.23242 0.302734 2.96875 0.302734Q2.69531 0.302734 2.50977 0.493164Q2.32422 0.683594 2.32422 0.947266L2.32422 3.79883ZM6.67969 3.79883L6.67969 0.947266Q6.67969 0.683594 6.48926 0.493164Q6.29883 0.302734 6.03516 0.302734Q5.77148 0.302734 5.58594 0.493164Q5.40039 0.683594 5.40039 0.947266L5.40039 3.79883ZM3.60352 18.8379L2.32422 18.8379L2.32422 21.7578Q2.32422 22.0215 2.50977 22.207Q2.69531 22.3926 2.96875 22.3926Q3.23242 22.3926 3.41797 22.207Q3.60352 22.0215 3.60352 21.7578ZM6.67969 18.8379L5.40039 18.8379L5.40039 21.7578Q5.40039 22.0215 5.58594 22.207Q5.77148 22.3926 6.03516 22.3926Q6.29883 22.3926 6.48926 22.207Q6.67969 22.0215 6.67969 21.7578Z" fill="#007aff"/>
 </g>
</svg>
