<?xml version="1.0" encoding="UTF-8"?>
<!--Generator: Apple Native CoreSVG 175.5-->
<!DOCTYPE svg
PUBLIC "-//W3C//DTD SVG 1.1//EN"
       "http://www.w3.org/Graphics/SVG/1.1/DTD/svg11.dtd">
<svg version="1.1" xmlns="http://www.w3.org/2000/svg" xmlns:xlink="http://www.w3.org/1999/xlink" width="20.7324" height="19.9512">
 <g>
  <rect height="19.9512" opacity="0" width="20.7324" x="0" y="0"/>
  <path d="M3.06641 4.61914L17.9102 4.61914Q18.5742 4.61914 18.9355 4.26758L19.7754 3.4375Q19.9121 3.30078 19.9268 3.11035Q19.9414 2.91992 19.8291 2.77344Q19.7168 2.62695 19.4824 2.62695L4.63867 2.62695Q3.97461 2.62695 3.61328 2.97852L2.77344 3.80859Q2.63672 3.94531 2.62207 4.13574Q2.60742 4.32617 2.71973 4.47266Q2.83203 4.61914 3.06641 4.61914ZM3.06641 9.6582L17.9102 9.6582Q18.584 9.6582 18.9355 9.31641L19.7754 8.47656Q19.9121 8.34961 19.9268 8.15918Q19.9414 7.96875 19.8291 7.82227Q19.7168 7.67578 19.4824 7.67578L4.63867 7.67578Q3.97461 7.67578 3.61328 8.02734L2.77344 8.85742Q2.63672 8.99414 2.62207 9.17969Q2.60742 9.36523 2.71973 9.51172Q2.83203 9.6582 3.06641 9.6582ZM3.06641 14.6777L17.9102 14.6777Q18.5645 14.6777 18.9355 14.3164L19.7754 13.4863Q19.9121 13.3594 19.9268 13.1738Q19.9414 12.9883 19.8291 12.8418Q19.7168 12.6953 19.4824 12.6953L4.63867 12.6953Q3.97461 12.6953 3.61328 13.0469L2.77344 13.877Q2.63672 14.0039 2.62207 14.1943Q2.60742 14.3848 2.71973 14.5312Q2.83203 14.6777 3.06641 14.6777ZM3.06641 19.7266L17.9102 19.7266Q18.5645 19.7266 18.9355 19.3555L19.7754 18.5254Q19.9121 18.3984 19.9268 18.208Q19.9414 18.0176 19.8291 17.8711Q19.7168 17.7246 19.4824 17.7246L4.63867 17.7246Q3.98438 17.7246 3.61328 18.0859L2.77344 18.916Q2.63672 19.043 2.62207 19.2334Q2.60742 19.4238 2.71973 19.5752Q2.83203 19.7266 3.06641 19.7266Z" fill="#007aff"/>
  <path d="M0 0.78125Q0 1.10352 0.234375 1.33789Q0.46875 1.57227 0.791016 1.57227L19.9414 1.57227Q20.2637 1.57227 20.498 1.33789Q20.7324 1.10352 20.7324 0.78125Q20.7324 0.458984 20.498 0.229492Q20.2637 0 19.9414 0L0.791016 0Q0.46875 0 0.234375 0.229492Q0 0.458984 0 0.78125ZM0.791016 3.83789Q1.06445 3.83789 1.25977 3.6377Q1.45508 3.4375 1.45508 3.17383Q1.45508 2.90039 1.25977 2.70508Q1.06445 2.50977 0.791016 2.50977Q0.507812 2.50977 0.3125 2.70508Q0.117188 2.90039 0.117188 3.17383Q0.117188 3.4375 0.3125 3.6377Q0.507812 3.83789 0.791016 3.83789ZM0.791016 6.10352Q1.06445 6.10352 1.25977 5.90332Q1.45508 5.70312 1.45508 5.42969Q1.45508 5.15625 1.25977 4.96094Q1.06445 4.76562 0.791016 4.76562Q0.507812 4.76562 0.3125 4.96094Q0.117188 5.15625 0.117188 5.42969Q0.117188 5.70312 0.3125 5.90332Q0.507812 6.10352 0.791016 6.10352ZM0.791016 8.35938Q1.06445 8.35938 1.25977 8.15918Q1.45508 7.95898 1.45508 7.69531Q1.45508 7.42188 1.25977 7.22656Q1.06445 7.03125 0.791016 7.03125Q0.507812 7.03125 0.3125 7.22656Q0.117188 7.42188 0.117188 7.69531Q0.117188 7.95898 0.3125 8.15918Q0.507812 8.35938 0.791016 8.35938ZM0.791016 10.625Q1.06445 10.625 1.25977 10.4248Q1.45508 10.2246 1.45508 9.95117Q1.45508 9.67773 1.25977 9.48242Q1.06445 9.28711 0.791016 9.28711Q0.507812 9.28711 0.3125 9.48242Q0.117188 9.67773 0.117188 9.95117Q0.117188 10.2246 0.3125 10.4248Q0.507812 10.625 0.791016 10.625ZM0.791016 12.8809Q1.06445 12.8809 1.25977 12.6855Q1.45508 12.4902 1.45508 12.2168Q1.45508 11.9434 1.25977 11.748Q1.06445 11.5527 0.791016 11.5527Q0.507812 11.5527 0.3125 11.748Q0.117188 11.9434 0.117188 12.2168Q0.117188 12.4902 0.3125 12.6855Q0.507812 12.8809 0.791016 12.8809ZM0.791016 15.1465Q1.06445 15.1465 1.25977 14.9463Q1.45508 14.7461 1.45508 14.4727Q1.45508 14.1992 1.25977 14.0039Q1.06445 13.8086 0.791016 13.8086Q0.507812 13.8086 0.3125 14.0039Q0.117188 14.1992 0.117188 14.4727Q0.117188 14.7461 0.3125 14.9463Q0.507812 15.1465 0.791016 15.1465ZM0.791016 19.9414Q1.10352 19.9414 1.33789 19.7119Q1.57227 19.4824 1.57227 19.1602L1.57227 16.8555Q1.57227 16.5332 1.34277 16.3037Q1.11328 16.0742 0.791016 16.0742Q0.46875 16.0742 0.234375 16.3037Q0 16.5332 0 16.8555L0 19.1602Q0 19.4824 0.234375 19.7119Q0.46875 19.9414 0.791016 19.9414Z" fill="#007aff"/>
 </g>
</svg>
