<?xml version="1.0" encoding="UTF-8"?>
<!--Generator: Apple Native CoreSVG 175.5-->
<!DOCTYPE svg
PUBLIC "-//W3C//DTD SVG 1.1//EN"
       "http://www.w3.org/Graphics/SVG/1.1/DTD/svg11.dtd">
<svg version="1.1" xmlns="http://www.w3.org/2000/svg" xmlns:xlink="http://www.w3.org/1999/xlink" width="20.7324" height="19.9512">
 <g>
  <rect height="19.9512" opacity="0" width="20.7324" x="0" y="0"/>
  <path d="M2.63672 3.31055L2.63672 5.56641Q2.63672 5.87891 2.83203 6.06445Q3.02734 6.25 3.34961 6.25L19.2383 6.25Q19.5703 6.25 19.7559 6.05957Q19.9414 5.86914 19.9414 5.55664L19.9414 3.30078Q19.9414 2.98828 19.751 2.79785Q19.5605 2.60742 19.2383 2.60742L3.34961 2.60742Q3.02734 2.60742 2.83203 2.80273Q2.63672 2.99805 2.63672 3.31055ZM2.63672 7.86133L2.63672 10.1367Q2.63672 10.4395 2.83203 10.625Q3.02734 10.8105 3.34961 10.8105L19.248 10.8105Q19.5605 10.8105 19.751 10.6201Q19.9414 10.4297 19.9414 10.1367L19.9414 7.85156Q19.9414 7.54883 19.751 7.36328Q19.5605 7.17773 19.248 7.17773L3.35938 7.17773Q3.03711 7.17773 2.83691 7.36816Q2.63672 7.55859 2.63672 7.86133ZM2.63672 12.4219L2.63672 14.6875Q2.63672 15 2.83203 15.1904Q3.02734 15.3809 3.34961 15.3809L19.2383 15.3809Q19.5703 15.3809 19.7559 15.1904Q19.9414 15 19.9414 14.6875L19.9414 12.4121Q19.9414 12.1191 19.7559 11.9336Q19.5703 11.748 19.2383 11.748L3.34961 11.748Q3.02734 11.748 2.83203 11.9336Q2.63672 12.1191 2.63672 12.4219ZM2.63672 16.9824L2.63672 19.248Q2.63672 19.5508 2.82715 19.7412Q3.01758 19.9316 3.33984 19.9316L19.2285 19.9316Q19.5508 19.9316 19.7461 19.7412Q19.9414 19.5508 19.9414 19.248L19.9414 16.9824Q19.9414 16.6699 19.751 16.4844Q19.5605 16.2988 19.2383 16.2988L3.34961 16.2988Q3.01758 16.2988 2.82715 16.4893Q2.63672 16.6797 2.63672 16.9824Z" fill="#007aff"/>
  <path d="M0 0.78125Q0 1.10352 0.234375 1.33789Q0.46875 1.57227 0.791016 1.57227L19.9414 1.57227Q20.2637 1.57227 20.498 1.33789Q20.7324 1.10352 20.7324 0.78125Q20.7324 0.458984 20.498 0.229492Q20.2637 0 19.9414 0L0.791016 0Q0.46875 0 0.234375 0.229492Q0 0.458984 0 0.78125ZM0.791016 3.83789Q1.06445 3.83789 1.25977 3.6377Q1.45508 3.4375 1.45508 3.17383Q1.45508 2.90039 1.25977 2.70508Q1.06445 2.50977 0.791016 2.50977Q0.507812 2.50977 0.3125 2.70508Q0.117188 2.90039 0.117188 3.17383Q0.117188 3.4375 0.3125 3.6377Q0.507812 3.83789 0.791016 3.83789ZM0.791016 6.10352Q1.06445 6.10352 1.25977 5.90332Q1.45508 5.70312 1.45508 5.42969Q1.45508 5.15625 1.25977 4.96094Q1.06445 4.76562 0.791016 4.76562Q0.507812 4.76562 0.3125 4.96094Q0.117188 5.15625 0.117188 5.42969Q0.117188 5.70312 0.3125 5.90332Q0.507812 6.10352 0.791016 6.10352ZM0.791016 8.35938Q1.06445 8.35938 1.25977 8.15918Q1.45508 7.95898 1.45508 7.69531Q1.45508 7.42188 1.25977 7.22656Q1.06445 7.03125 0.791016 7.03125Q0.507812 7.03125 0.3125 7.22656Q0.117188 7.42188 0.117188 7.69531Q0.117188 7.95898 0.3125 8.15918Q0.507812 8.35938 0.791016 8.35938ZM0.791016 10.625Q1.06445 10.625 1.25977 10.4248Q1.45508 10.2246 1.45508 9.95117Q1.45508 9.67773 1.25977 9.48242Q1.06445 9.28711 0.791016 9.28711Q0.507812 9.28711 0.3125 9.48242Q0.117188 9.67773 0.117188 9.95117Q0.117188 10.2246 0.3125 10.4248Q0.507812 10.625 0.791016 10.625ZM0.791016 12.8809Q1.06445 12.8809 1.25977 12.6855Q1.45508 12.4902 1.45508 12.2168Q1.45508 11.9434 1.25977 11.748Q1.06445 11.5527 0.791016 11.5527Q0.507812 11.5527 0.3125 11.748Q0.117188 11.9434 0.117188 12.2168Q0.117188 12.4902 0.3125 12.6855Q0.507812 12.8809 0.791016 12.8809ZM0.791016 15.1465Q1.06445 15.1465 1.25977 14.9463Q1.45508 14.7461 1.45508 14.4727Q1.45508 14.1992 1.25977 14.0039Q1.06445 13.8086 0.791016 13.8086Q0.507812 13.8086 0.3125 14.0039Q0.117188 14.1992 0.117188 14.4727Q0.117188 14.7461 0.3125 14.9463Q0.507812 15.1465 0.791016 15.1465ZM0.791016 19.9414Q1.10352 19.9414 1.33789 19.7119Q1.57227 19.4824 1.57227 19.1602L1.57227 16.8555Q1.57227 16.5332 1.34277 16.3037Q1.11328 16.0742 0.791016 16.0742Q0.46875 16.0742 0.234375 16.3037Q0 16.5332 0 16.8555L0 19.1602Q0 19.4824 0.234375 19.7119Q0.46875 19.9414 0.791016 19.9414Z" fill="#007aff"/>
 </g>
</svg>
