<?xml version="1.0" encoding="UTF-8"?>
<!--Generator: Apple Native CoreSVG 175.5-->
<!DOCTYPE svg
PUBLIC "-//W3C//DTD SVG 1.1//EN"
       "http://www.w3.org/Graphics/SVG/1.1/DTD/svg11.dtd">
<svg version="1.1" xmlns="http://www.w3.org/2000/svg" xmlns:xlink="http://www.w3.org/1999/xlink" width="16.25" height="21.9923">
 <g>
  <rect height="21.9923" opacity="0" width="16.25" x="0" y="0"/>
  <path d="M5.88867 21.421L10.3516 15.8253L3.51562 8.98931L1.51367 11.4991Q1.25 11.8311 1.25 12.1241Q1.25 12.4073 1.4502 12.5977Q1.65039 12.7881 1.95312 12.7881L7.31445 12.8663L4.56055 20.6983Q4.38477 21.2061 4.59473 21.5137Q4.80469 21.8213 5.18066 21.8262Q5.55664 21.8311 5.88867 21.421ZM12.7344 12.8467L14.7559 10.3272Q15.0098 10.0049 15.0098 9.7022Q15.0098 9.419 14.8145 9.23345Q14.6191 9.04791 14.3164 9.03814L8.94531 8.96002L11.709 1.12799Q11.8848 0.620173 11.6748 0.312556Q11.4648 0.00493894 11.0889 5.61243e-05Q10.7129-0.00482669 10.3809 0.415095L5.89844 6.02056Z" fill="#007aff"/>
  <path d="M14.9609 18.8135Q15.1855 19.0381 15.498 19.0381Q15.8105 19.0381 16.0254 18.8135Q16.25 18.6085 16.25 18.2911Q16.25 17.9737 16.0254 17.7491L1.28906 3.01275Q1.07422 2.79791 0.751953 2.79302Q0.429688 2.78814 0.214844 3.01275Q0 3.2276 0 3.54498Q0 3.86236 0.214844 4.0772Z" fill="#007aff"/>
 </g>
</svg>
