<?xml version="1.0" encoding="UTF-8"?>
<!--Generator: Apple Native CoreSVG 175.5-->
<!DOCTYPE svg
PUBLIC "-//W3C//DTD SVG 1.1//EN"
       "http://www.w3.org/Graphics/SVG/1.1/DTD/svg11.dtd">
<svg version="1.1" xmlns="http://www.w3.org/2000/svg" xmlns:xlink="http://www.w3.org/1999/xlink" width="23.0273" height="17.998">
 <g>
  <rect height="17.998" opacity="0" width="23.0273" x="0" y="0"/>
  <path d="M3.06641 17.9785L19.9609 17.9785Q21.5039 17.9785 22.2656 17.2217Q23.0273 16.4648 23.0273 14.9609L23.0273 5.51758Q23.0273 4.01367 22.2656 3.25684Q21.5039 2.5 19.9609 2.5L3.06641 2.5Q1.5332 2.5 0.766602 3.25684Q0 4.01367 0 5.51758L0 14.9609Q0 16.4648 0.766602 17.2217Q1.5332 17.9785 3.06641 17.9785ZM3.08594 16.4062Q2.35352 16.4062 1.96289 16.0205Q1.57227 15.6348 1.57227 14.873L1.57227 5.60547Q1.57227 4.84375 1.96289 4.45801Q2.35352 4.07227 3.08594 4.07227L19.9414 4.07227Q20.6641 4.07227 21.0596 4.45801Q21.4551 4.84375 21.4551 5.60547L21.4551 14.873Q21.4551 15.6348 21.0596 16.0205Q20.6641 16.4062 19.9414 16.4062ZM4.29688 3.23242L9.54102 3.23242L9.54102 1.19141Q9.54102 0.634766 9.22852 0.317383Q8.91602 0 8.35938 0L5.47852 0Q4.92188 0 4.60938 0.317383Q4.29688 0.634766 4.29688 1.19141ZM13.4766 3.23242L18.7109 3.23242L18.7109 1.19141Q18.7109 0.634766 18.4033 0.317383Q18.0957 0 17.5293 0L14.6484 0Q14.0918 0 13.7842 0.317383Q13.4766 0.634766 13.4766 1.19141Z" fill="#007aff"/>
  <path d="M8.41797 10.8691Q8.41797 11.0059 8.51562 11.0938Q8.61328 11.1816 8.75 11.1816L11.1719 11.1816L9.87305 14.6484Q9.78516 14.873 9.8877 15.0195Q9.99023 15.166 10.1709 15.1709Q10.3516 15.1758 10.498 14.9805L14.4043 10.0781Q14.5312 9.94141 14.5312 9.79492Q14.5312 9.6582 14.4287 9.57031Q14.3262 9.48242 14.1895 9.48242L11.7773 9.48242L13.0664 6.02539Q13.1543 5.79102 13.0518 5.64453Q12.9492 5.49805 12.7734 5.49805Q12.5977 5.49805 12.4512 5.68359L8.53516 10.5957Q8.41797 10.752 8.41797 10.8691Z" fill="#007aff"/>
 </g>
</svg>
