<?xml version="1.0" encoding="UTF-8"?>
<!--Generator: Apple Native CoreSVG 175-->
<!DOCTYPE svg
PUBLIC "-//W3C//DTD SVG 1.1//EN"
       "http://www.w3.org/Graphics/SVG/1.1/DTD/svg11.dtd">
<svg version="1.1" xmlns="http://www.w3.org/2000/svg" xmlns:xlink="http://www.w3.org/1999/xlink" width="12.4802" height="20.6746">
 <g>
  <rect height="20.6746" opacity="0" width="12.4802" x="0" y="0"/>
  <path d="M0 11.5426Q0 11.65 0.0722504 11.735Q0.144501 11.82 0.316467 11.82L5.9465 11.82L2.93091 19.934Q2.85477 20.1391 2.89833 20.2789Q2.94189 20.4188 3.05534 20.4776Q3.16879 20.5364 3.31627 20.4948Q3.46375 20.4531 3.59543 20.2911L12.3106 9.34486Q12.4802 9.12819 12.4802 8.96599Q12.4802 8.86558 12.4079 8.77708Q12.3357 8.68858 12.1637 8.68858L6.54068 8.68858L9.54926 0.581586Q9.63257 0.372235 9.589 0.232389Q9.54544 0.0925418 9.42841 0.0337191Q9.31137-0.0251035 9.16389 0.0186892Q9.01642 0.062482 8.89191 0.220258L0.169525 11.1637Q0 11.3901 0 11.5426Z" fill="#ffd60a"/>
 </g>
</svg>
