<?xml version="1.0" encoding="UTF-8"?>
<!--Generator: Apple Native CoreSVG 175.5-->
<!DOCTYPE svg
PUBLIC "-//W3C//DTD SVG 1.1//EN"
       "http://www.w3.org/Graphics/SVG/1.1/DTD/svg11.dtd">
<svg version="1.1" xmlns="http://www.w3.org/2000/svg" xmlns:xlink="http://www.w3.org/1999/xlink" width="13.7598" height="21.9729">
 <g>
  <rect height="21.9729" opacity="0" width="13.7598" x="0" y="0"/>
  <path d="M0 12.1144Q0 12.3976 0.195312 12.588Q0.390625 12.7784 0.703125 12.7784L6.2207 12.7784L3.31055 20.6886Q3.16406 21.0695 3.25684 21.3429Q3.34961 21.6163 3.5791 21.7384Q3.80859 21.8605 4.09668 21.7872Q4.38477 21.714 4.62891 21.4113L13.5059 10.3175Q13.7598 9.99524 13.7598 9.69251Q13.7598 9.4093 13.5645 9.21888Q13.3691 9.02845 13.0566 9.02845L7.53906 9.02845L10.4492 1.11829Q10.5957 0.747196 10.5029 0.473758Q10.4102 0.200321 10.1807 0.0782502Q9.95117-0.0438201 9.66309 0.0245393Q9.375 0.0928986 9.13086 0.405399L0.253906 11.4894Q0 11.8214 0 12.1144Z" fill="#ffd60a"/>
 </g>
</svg>
