<?xml version="1.0" encoding="UTF-8"?>
<!--Generator: Apple Native CoreSVG 175-->
<!DOCTYPE svg
PUBLIC "-//W3C//DTD SVG 1.1//EN"
       "http://www.w3.org/Graphics/SVG/1.1/DTD/svg11.dtd">
<svg version="1.1" xmlns="http://www.w3.org/2000/svg" xmlns:xlink="http://www.w3.org/1999/xlink" width="22.1875" height="17.6074">
 <g>
  <rect height="17.6074" opacity="0" width="22.1875" x="0" y="0"/>
  <path d="M11.0938 15.0781Q12.2656 15.0781 13.5986 15.0488Q14.9316 15.0195 16.2256 14.9658Q17.5195 14.9121 18.6133 14.8486Q19.707 14.7852 20.3906 14.6973Q21.2305 14.5996 21.709 14.165Q22.1875 13.7305 22.1875 12.8711L22.1875 11.1523Q22.1875 10.2832 22.0508 9.67285Q21.9141 9.0625 21.6504 8.5791Q21.3867 8.0957 21.0059 7.59766L20.1465 6.48438Q19.9707 5.60547 19.7266 4.74609Q19.4824 3.88672 19.2334 3.20312Q18.9844 2.51953 18.8184 2.1582Q18.4277 1.33789 17.7295 0.922852Q17.0312 0.507812 16.2207 0.400391Q15.8789 0.351562 15.0879 0.322266Q14.2969 0.292969 13.2471 0.27832Q12.1973 0.263672 11.0938 0.263672Q9.98047 0.263672 8.93066 0.283203Q7.88086 0.302734 7.08984 0.332031Q6.29883 0.361328 5.9668 0.400391Q5.14648 0.507812 4.45312 0.922852Q3.75977 1.33789 3.36914 2.1582Q3.20312 2.51953 2.9541 3.20312Q2.70508 3.88672 2.46094 4.74609Q2.2168 5.60547 2.04102 6.48438L1.18164 7.59766Q0.800781 8.0957 0.537109 8.5791Q0.273438 9.0625 0.136719 9.67285Q0 10.2832 0 11.1523L0 12.8711Q0 13.7305 0.478516 14.165Q0.957031 14.5996 1.79688 14.6973Q2.48047 14.7852 3.56934 14.8486Q4.6582 14.9121 5.95703 14.9658Q7.25586 15.0195 8.58887 15.0488Q9.92188 15.0781 11.0938 15.0781ZM1.2207 17.6074L2.30469 17.6074Q2.82227 17.6074 3.17383 17.2607Q3.52539 16.9141 3.52539 16.3867L3.52539 14.1016L0 12.4219L0 16.3867Q0 16.9141 0.351562 17.2607Q0.703125 17.6074 1.2207 17.6074ZM19.873 17.6074L20.9668 17.6074Q21.4844 17.6074 21.8359 17.2607Q22.1875 16.9141 22.1875 16.3867L22.1875 12.4219L18.6621 14.1016L18.6621 16.3867Q18.6621 16.9141 19.0137 17.2607Q19.3652 17.6074 19.873 17.6074Z" fill="#32d74b"/>
  <path d="M8.01758 8.24219Q8.01758 8.13477 8.11523 8.00781L12.2949 2.75391Q12.4121 2.60742 12.5391 2.6123Q12.666 2.61719 12.7393 2.71484Q12.8125 2.8125 12.7441 2.98828L11.3379 6.77734L13.9355 6.77734Q14.0332 6.77734 14.1016 6.83594Q14.1699 6.89453 14.1699 6.99219Q14.1699 7.07031 14.0625 7.20703L9.87305 12.4805Q9.76562 12.6172 9.63379 12.6123Q9.50195 12.6074 9.43848 12.5049Q9.375 12.4023 9.43359 12.2266L10.8496 8.42773L8.24219 8.42773Q8.1543 8.42773 8.08594 8.37402Q8.01758 8.32031 8.01758 8.24219Z" fill="#ffffff"/>
 </g>
</svg>
