<?xml version="1.0" encoding="UTF-8"?>
<!--Generator: Apple Native CoreSVG 175.5-->
<!DOCTYPE svg
PUBLIC "-//W3C//DTD SVG 1.1//EN"
       "http://www.w3.org/Graphics/SVG/1.1/DTD/svg11.dtd">
<svg version="1.1" xmlns="http://www.w3.org/2000/svg" xmlns:xlink="http://www.w3.org/1999/xlink" width="17.9785" height="17.998">
 <g>
  <rect height="17.998" opacity="0" width="17.9785" x="0" y="0"/>
  <path d="M3.06641 17.998L14.9121 17.998Q16.4453 17.998 17.2119 17.2412Q17.9785 16.4844 17.9785 14.9707L17.9785 3.04688Q17.9785 1.5332 17.2119 0.776367Q16.4453 0.0195312 14.9121 0.0195312L3.06641 0.0195312Q1.5332 0.0195312 0.766602 0.776367Q0 1.5332 0 3.04688L0 14.9707Q0 16.4844 0.766602 17.2412Q1.5332 17.998 3.06641 17.998Z" fill="#ffd60a"/>
  <path d="M4.58984 9.67773Q4.58984 9.47266 4.75586 9.28711L10.2734 2.36328Q10.4883 2.09961 10.7373 2.10449Q10.9863 2.10938 11.1279 2.30957Q11.2695 2.50977 11.1426 2.83203L9.31641 7.72461L12.7344 7.72461Q12.9297 7.72461 13.0615 7.85156Q13.1934 7.97852 13.1934 8.17383Q13.1934 8.36914 13.0273 8.56445L7.50977 15.4883Q7.30469 15.752 7.05078 15.7471Q6.79688 15.7422 6.65527 15.5371Q6.51367 15.332 6.64062 15.0098L8.4668 10.1172L5.04883 10.1172Q4.85352 10.1172 4.72168 9.99512Q4.58984 9.87305 4.58984 9.67773Z" fill="#ffffff"/>
 </g>
</svg>
