<?xml version="1.0" encoding="UTF-8"?>
<!--Generator: Apple Native CoreSVG 175-->
<!DOCTYPE svg
PUBLIC "-//W3C//DTD SVG 1.1//EN"
       "http://www.w3.org/Graphics/SVG/1.1/DTD/svg11.dtd">
<svg version="1.1" xmlns="http://www.w3.org/2000/svg" xmlns:xlink="http://www.w3.org/1999/xlink" width="15.3223" height="19.541">
 <g>
  <rect height="19.541" opacity="0" width="15.3223" x="0" y="0"/>
  <path d="M7.66602 19.541Q7.82227 19.541 7.99805 19.4727Q8.17383 19.4043 8.31055 19.3262Q10.3223 18.1152 11.6748 17.2363Q13.0273 16.3574 13.8281 15.5957Q14.6289 14.834 14.9756 13.9844Q15.3223 13.1348 15.3223 11.9727L15.3223 4.61914Q15.3223 3.80859 15.0488 3.44727Q14.7754 3.08594 14.0234 2.79297Q13.5156 2.59766 12.9541 2.37793Q12.3926 2.1582 11.8018 1.93359Q11.2109 1.70898 10.6201 1.48438Q10.0293 1.25977 9.46289 1.0498Q8.89648 0.839844 8.38867 0.673828Q8.20312 0.605469 8.02734 0.561523Q7.85156 0.517578 7.66602 0.517578Q7.48047 0.517578 7.30469 0.561523Q7.12891 0.605469 6.94336 0.673828Q6.43555 0.849609 5.86914 1.05957Q5.30273 1.26953 4.71191 1.49902Q4.12109 1.72852 3.53027 1.95312Q2.93945 2.17773 2.37305 2.3877Q1.80664 2.59766 1.29883 2.79297Q0.546875 3.07617 0.273438 3.44238Q0 3.80859 0 4.61914L0 11.9727Q0 13.1348 0.356445 13.9746Q0.712891 14.8145 1.51855 15.5713Q2.32422 16.3281 3.67676 17.207Q5.0293 18.0859 7.03125 19.3262Q7.1582 19.4043 7.33398 19.4727Q7.50977 19.541 7.66602 19.541ZM7.66602 18.7793Q7.53906 18.7793 7.39746 18.7061Q7.25586 18.6328 7.14844 18.5547Q5.43945 17.4609 4.21875 16.6846Q2.99805 15.9082 2.22656 15.2246Q1.45508 14.541 1.08887 13.7646Q0.722656 12.9883 0.722656 11.8945L0.722656 4.74609Q0.722656 4.22852 0.849609 3.98438Q0.976562 3.74023 1.34766 3.59375Q1.66992 3.4668 2.24609 3.24707Q2.82227 3.02734 3.52051 2.75879Q4.21875 2.49023 4.91699 2.22656Q5.61523 1.96289 6.19629 1.74316Q6.77734 1.52344 7.08984 1.40625Q7.25586 1.32812 7.41211 1.28906Q7.56836 1.25 7.66602 1.25Q7.76367 1.25 7.91016 1.29395Q8.05664 1.33789 8.24219 1.40625Q8.56445 1.52344 9.13574 1.74316Q9.70703 1.96289 10.4053 2.23145Q11.1035 2.5 11.8066 2.76367Q12.5098 3.02734 13.0859 3.24707Q13.6621 3.4668 13.9746 3.59375Q14.3457 3.74023 14.4727 3.98438Q14.5996 4.22852 14.5996 4.74609L14.5996 11.8945Q14.5996 12.9883 14.2383 13.7646Q13.877 14.541 13.1006 15.2148Q12.3242 15.8887 11.1035 16.6699Q9.88281 17.4512 8.18359 18.5547Q8.07617 18.6328 7.93457 18.7061Q7.79297 18.7793 7.66602 18.7793ZM3.48633 10.3027Q3.48633 10.4297 3.56934 10.498Q3.65234 10.5664 3.7793 10.5664L7.14844 10.5664L5.32227 15.4883Q5.23438 15.7031 5.32227 15.835Q5.41016 15.9668 5.57617 15.9717Q5.74219 15.9766 5.88867 15.8008L11.3184 8.99414Q11.4355 8.81836 11.4355 8.71094Q11.4355 8.57422 11.3525 8.50586Q11.2695 8.4375 11.1426 8.4375L7.77344 8.4375L9.60938 3.51562Q9.6875 3.30078 9.59961 3.16895Q9.51172 3.03711 9.3457 3.03223Q9.17969 3.02734 9.0332 3.20312L3.60352 10.0195Q3.48633 10.1855 3.48633 10.3027Z" fill="#007aff"/>
 </g>
</svg>
