<?xml version="1.0" encoding="UTF-8"?>
<!--Generator: Apple Native CoreSVG 175-->
<!DOCTYPE svg
PUBLIC "-//W3C//DTD SVG 1.1//EN"
       "http://www.w3.org/Graphics/SVG/1.1/DTD/svg11.dtd">
<svg version="1.1" xmlns="http://www.w3.org/2000/svg" xmlns:xlink="http://www.w3.org/1999/xlink" width="15.2734" height="19.4434">
 <g>
  <rect height="19.4434" opacity="0" width="15.2734" x="0" y="0"/>
  <path d="M7.63672 19.4434Q7.80273 19.4434 7.97363 19.375Q8.14453 19.3066 8.28125 19.2285Q10.293 18.0273 11.6406 17.1533Q12.9883 16.2793 13.7842 15.5176Q14.5801 14.7559 14.9268 13.9062Q15.2734 13.0566 15.2734 11.8945L15.2734 4.56055Q15.2734 3.75977 15 3.39844Q14.7266 3.03711 13.9746 2.75391Q13.4668 2.55859 12.9053 2.33887Q12.3438 2.11914 11.7578 1.89453Q11.1719 1.66992 10.5859 1.44531Q10 1.2207 9.43359 1.01562Q8.86719 0.810547 8.35938 0.625Q8.17383 0.566406 7.99805 0.522461Q7.82227 0.478516 7.63672 0.478516Q7.46094 0.478516 7.28516 0.522461Q7.10938 0.566406 6.91406 0.625Q6.41602 0.820312 5.84961 1.03027Q5.2832 1.24023 4.69727 1.45996Q4.11133 1.67969 3.52051 1.9043Q2.92969 2.12891 2.36816 2.34375Q1.80664 2.55859 1.29883 2.75391Q0.546875 3.02734 0.273438 3.39355Q0 3.75977 0 4.56055L0 11.8945Q0 13.0566 0.356445 13.8916Q0.712891 14.7266 1.51855 15.4834Q2.32422 16.2402 3.67188 17.1143Q5.01953 17.9883 7.00195 19.2285Q7.13867 19.3066 7.30957 19.375Q7.48047 19.4434 7.63672 19.4434ZM3.22266 10.293Q3.22266 10.166 3.34961 9.99023L9.08203 2.79297Q9.23828 2.60742 9.41406 2.60742Q9.58984 2.60742 9.6875 2.75391Q9.78516 2.90039 9.6875 3.125L7.76367 8.32031L11.3086 8.32031Q11.4453 8.32031 11.5381 8.39355Q11.6309 8.4668 11.6309 8.60352Q11.6309 8.73047 11.4941 8.90625L5.77148 16.1035Q5.61523 16.2891 5.43945 16.2842Q5.26367 16.2793 5.16602 16.1377Q5.06836 15.9961 5.15625 15.7715L7.08984 10.5762L3.53516 10.5762Q3.39844 10.5762 3.31055 10.5029Q3.22266 10.4297 3.22266 10.293Z" fill="#000000"/>
 </g>
</svg>
