<?xml version="1.0" encoding="UTF-8"?>
<!--Generator: Apple Native CoreSVG 175-->
<!DOCTYPE svg
PUBLIC "-//W3C//DTD SVG 1.1//EN"
       "http://www.w3.org/Graphics/SVG/1.1/DTD/svg11.dtd">
<svg version="1.1" xmlns="http://www.w3.org/2000/svg" xmlns:xlink="http://www.w3.org/1999/xlink" width="22.6617" height="17.2949">
 <g>
  <rect height="17.2949" opacity="0" width="22.6617" x="0" y="0"/>
  <path d="M2.63046 17.2824L20.0243 17.2824Q21.3281 17.2824 21.9949 16.61Q22.6617 15.9375 22.6617 14.6587L22.6617 5.11673Q22.6617 3.83789 21.9949 3.16544Q21.3281 2.49298 20.0243 2.49298L2.63046 2.49298Q1.33636 2.49298 0.668182 3.15842Q0 3.82385 0 5.11673L0 14.6587Q0 15.9515 0.668182 16.617Q1.33636 17.2824 2.63046 17.2824ZM2.65701 16.561Q1.7067 16.561 1.21765 16.0697Q0.728607 15.5785 0.728607 14.6199L0.728607 5.15549Q0.728607 4.19693 1.21765 3.70567Q1.7067 3.21442 2.65701 3.21442L20.0047 3.21442Q20.9242 3.21442 21.4287 3.70567Q21.9331 4.19693 21.9331 5.15549L21.9331 14.6199Q21.9331 15.5785 21.4287 16.0697Q20.9242 16.561 20.0047 16.561ZM3.87497 2.83157L9.11209 2.83157L9.11209 0.95932Q9.11209 0.508118 8.86292 0.254059Q8.61374 0 8.12729 0L4.86679 0Q4.38049 0 4.12773 0.254059Q3.87497 0.508118 3.87497 0.95932ZM13.5469 2.83157L18.7813 2.83157L18.7813 0.95932Q18.7813 0.508118 18.5299 0.254059Q18.2785 0 17.7895 0L14.529 0Q14.0425 0 13.7947 0.254059Q13.5469 0.508118 13.5469 0.95932ZM8.27026 10.623Q8.27026 10.7106 8.33633 10.7633Q8.4024 10.816 8.49686 10.816L11.0805 10.816L9.67621 14.5921Q9.60938 14.7606 9.67674 14.8649Q9.74411 14.9692 9.87206 14.9706Q10 14.9719 10.1114 14.8328L14.2708 9.60709Q14.3765 9.47037 14.3765 9.38004Q14.3765 9.2926 14.3092 9.23637Q14.2418 9.18015 14.1473 9.18015L11.5594 9.18015L12.968 5.40665Q13.0278 5.24261 12.9568 5.13832Q12.8859 5.03403 12.7593 5.03403Q12.6328 5.03403 12.5215 5.17029L8.35938 10.3989Q8.27026 10.5269 8.27026 10.623Z" fill="#ffffff"/>
 </g>
</svg>
