<?xml version="1.0" encoding="UTF-8"?>
<!--Generator: Apple Native CoreSVG 175-->
<!DOCTYPE svg
PUBLIC "-//W3C//DTD SVG 1.1//EN"
       "http://www.w3.org/Graphics/SVG/1.1/DTD/svg11.dtd">
<svg version="1.1" xmlns="http://www.w3.org/2000/svg" xmlns:xlink="http://www.w3.org/1999/xlink" width="25.307" height="11.9214">
 <g>
  <rect height="11.9214" opacity="0" width="25.307" x="0" y="0"/>
  <path d="M0.178691 10.13Q-0.0013629 10.3613 1.0395e-05 10.5699Q0.00138369 10.7785 0.130855 10.9123Q0.260325 11.0461 0.470286 11.0676Q0.680247 11.089 0.919047 10.9531L7.90071 6.875L17.0091 11.7706Q17.1475 11.8398 17.2749 11.8806Q17.4022 11.9214 17.5269 11.9214Q17.8616 11.9214 18.1299 11.5768L25.1276 2.67761Q25.3011 2.46124 25.3067 2.24701Q25.3124 2.03278 25.1933 1.8837Q25.0742 1.73462 24.8634 1.70143Q24.6526 1.66824 24.3959 1.82373L17.4635 5.896L8.32414 0.986328Q8.07832 0.849609 7.84867 0.849609Q7.5026 0.849609 7.24122 1.17996ZM1.24238 10.0163Q1.18272 10.0511 1.16609 10.015Q1.14945 9.97879 1.17997 9.93164L7.78352 1.68198Q7.87049 1.57425 7.98661 1.64062L17.1471 6.54327Q17.3682 6.66016 17.502 6.6449Q17.6358 6.62964 17.8236 6.51566L24.1159 2.71835Q24.1843 2.67929 24.2155 2.72461Q24.2467 2.76993 24.2091 2.81006L17.5765 11.089Q17.4936 11.1967 17.3732 11.1234L8.21702 6.22772Q7.99867 6.11084 7.86355 6.1261Q7.72843 6.14136 7.53343 6.25275Z" fill="#007aff"/>
 </g>
</svg>
