<?xml version="1.0" encoding="UTF-8"?>
<!--Generator: Apple Native CoreSVG 175.5-->
<!DOCTYPE svg
PUBLIC "-//W3C//DTD SVG 1.1//EN"
       "http://www.w3.org/Graphics/SVG/1.1/DTD/svg11.dtd">
<svg version="1.1" xmlns="http://www.w3.org/2000/svg" xmlns:xlink="http://www.w3.org/1999/xlink" width="16.4258" height="20.9277">
 <g>
  <rect height="20.9277" opacity="0" width="16.4258" x="0" y="0"/>
  <path d="M2.99805 20.9277L15.6445 20.9277Q15.9668 20.9277 16.1963 20.6982Q16.4258 20.4688 16.4258 20.1465Q16.4258 19.8926 16.2695 19.6826Q16.1133 19.4727 15.8789 19.3945Q15.2637 19.1504 14.9951 18.5986Q14.7266 18.0469 14.8633 17.3779Q15 16.709 15.6055 16.0938Q15.8789 15.8203 16.1523 15.4102Q16.4258 15 16.4258 14.2676L16.4258 3.06641Q16.4258 1.54297 15.6689 0.771484Q14.9121 0 13.3984 0L3.02734 0Q1.51367 0 0.756836 0.766602Q0 1.5332 0 3.06641L0 17.9102Q0 19.4141 0.751953 20.1709Q1.50391 20.9277 2.99805 20.9277ZM3.08594 19.3555Q2.34375 19.3555 1.95801 18.9746Q1.57227 18.5938 1.57227 17.9004Q1.57227 17.2461 2.00684 16.8506Q2.44141 16.4551 3.17383 16.4551L13.1934 16.4551Q13.3789 16.4551 13.5352 16.4258Q13.1934 17.1875 13.2373 17.9541Q13.2812 18.7207 13.6719 19.3555ZM2.79297 14.9707Q2.56836 14.9707 2.40234 14.8047Q2.23633 14.6387 2.23633 14.4043L2.23633 2.07031Q2.23633 1.83594 2.40234 1.6748Q2.56836 1.51367 2.79297 1.51367Q3.01758 1.51367 3.18848 1.6748Q3.35938 1.83594 3.35938 2.07031L3.35938 14.4043Q3.35938 14.6387 3.18848 14.8047Q3.01758 14.9707 2.79297 14.9707Z" fill="#007aff"/>
 </g>
</svg>
