<?xml version="1.0" encoding="UTF-8"?>
<!--Generator: Apple Native CoreSVG 175.5-->
<!DOCTYPE svg
PUBLIC "-//W3C//DTD SVG 1.1//EN"
       "http://www.w3.org/Graphics/SVG/1.1/DTD/svg11.dtd">
<svg version="1.1" xmlns="http://www.w3.org/2000/svg" xmlns:xlink="http://www.w3.org/1999/xlink" width="19.9219" height="19.9316">
 <g>
  <rect height="19.9316" opacity="0" width="19.9219" x="0" y="0"/>
  <path d="M9.96094 19.9316Q12.002 19.9316 13.8037 19.1504Q15.6055 18.3691 16.9824 16.9922Q18.3594 15.6152 19.1406 13.8135Q19.9219 12.0117 19.9219 9.9707Q19.9219 7.92969 19.1406 6.12793Q18.3594 4.32617 16.9824 2.94922Q15.6055 1.57227 13.7988 0.791016Q11.9922 0.00976562 9.95117 0.00976562Q7.91016 0.00976562 6.1084 0.791016Q4.30664 1.57227 2.93457 2.94922Q1.5625 4.32617 0.78125 6.12793Q0 7.92969 0 9.9707Q0 12.0117 0.78125 13.8135Q1.5625 15.6152 2.93945 16.9922Q4.31641 18.3691 6.11816 19.1504Q7.91992 19.9316 9.96094 19.9316Z" fill="#ff453a"/>
  <path d="M6.98242 15.3125Q6.73828 15.3125 6.58691 15.1416Q6.43555 14.9707 6.43555 14.668L6.43555 6.19141Q6.43555 5.44922 6.81152 5.06836Q7.1875 4.6875 7.91992 4.6875L12.0117 4.6875Q12.7441 4.6875 13.1201 5.06836Q13.4961 5.44922 13.4961 6.19141L13.4961 14.668Q13.4961 14.9707 13.3447 15.1416Q13.1934 15.3125 12.9395 15.3125Q12.7441 15.3125 12.583 15.1807Q12.4219 15.0488 12.0703 14.707L10.0098 12.6855Q9.96094 12.6367 9.92188 12.6855L7.86133 14.707Q7.50977 15.0488 7.34863 15.1807Q7.1875 15.3125 6.98242 15.3125Z" fill="#ffffff"/>
 </g>
</svg>
