<?xml version="1.0" encoding="UTF-8"?>
<!--Generator: Apple Native CoreSVG 175-->
<!DOCTYPE svg
PUBLIC "-//W3C//DTD SVG 1.1//EN"
       "http://www.w3.org/Graphics/SVG/1.1/DTD/svg11.dtd">
<svg version="1.1" xmlns="http://www.w3.org/2000/svg" xmlns:xlink="http://www.w3.org/1999/xlink" width="20.9282" height="20.9027">
 <g>
  <rect height="20.9027" opacity="0" width="20.9282" x="0" y="0"/>
  <path d="M1.25748 20.7887L2.73041 20.7887Q3.37967 20.7887 3.68378 20.4656Q3.98788 20.1425 3.98788 19.5312L3.98788 3.50113Q3.98788 2.88986 3.68378 2.56546Q3.37967 2.24106 2.73041 2.24106L1.25748 2.24106Q0.601196 2.24106 0.300598 2.56546Q0 2.88986 0 3.50113L0 19.5312Q0 20.1425 0.300598 20.4656Q0.601196 20.7887 1.25748 20.7887ZM6.07147 20.7887L9.56253 20.7887Q10.2188 20.7887 10.5194 20.4656Q10.82 20.1425 10.82 19.5312L10.82 6.76086Q10.82 6.15234 10.5194 5.82794Q10.2188 5.50354 9.56253 5.50354L6.07147 5.50354Q5.41519 5.50354 5.1133 5.82794Q4.8114 6.15234 4.8114 6.76086L4.8114 19.5312Q4.8114 20.1425 5.1133 20.4656Q5.41519 20.7887 6.07147 20.7887ZM6.57028 8.20938Q6.42624 8.20938 6.33133 8.11447Q6.23642 8.01956 6.23642 7.88513Q6.23642 7.7507 6.33133 7.65717Q6.42624 7.56363 6.57028 7.56363L9.06921 7.56363Q9.21051 7.56363 9.30412 7.65717Q9.39774 7.7507 9.39774 7.88513Q9.39774 8.01956 9.30412 8.11447Q9.21051 8.20938 9.06921 8.20938ZM6.57028 18.7312Q6.42624 18.7312 6.33133 18.6363Q6.23642 18.5414 6.23642 18.407Q6.23642 18.2726 6.33133 18.179Q6.42624 18.0855 6.57028 18.0855L9.06921 18.0855Q9.21051 18.0855 9.30412 18.179Q9.39774 18.2726 9.39774 18.407Q9.39774 18.5414 9.30412 18.6363Q9.21051 18.7312 9.06921 18.7312ZM12.9036 20.7887L14.7954 20.7887Q15.4446 20.7887 15.7487 20.4656Q16.0529 20.1425 16.0529 19.5312L16.0529 1.26007Q16.0529 0.648804 15.7487 0.324402Q15.4446 0 14.7954 0L12.9036 0Q12.2543 0 11.9537 0.324402Q11.6531 0.648804 11.6531 1.26007L11.6531 19.5312Q11.6531 20.1425 11.9537 20.4656Q12.2543 20.7887 12.9036 20.7887ZM18.6653 20.8446L19.7876 20.7394Q20.4341 20.6894 20.7062 20.3336Q20.9782 19.9777 20.9169 19.3665L19.5016 4.23386Q19.4473 3.62534 19.1174 3.3316Q18.7875 3.03787 18.1314 3.09494L17.0117 3.21396Q16.3583 3.27805 16.0898 3.62686Q15.8212 3.97568 15.8798 4.57733L17.3048 19.7168Q17.366 20.321 17.6889 20.6113Q18.0118 20.9015 18.6653 20.8446Z" fill="#007aff"/>
 </g>
</svg>
