<?xml version="1.0" encoding="UTF-8"?>
<!--Generator: Apple Native CoreSVG 175-->
<!DOCTYPE svg
PUBLIC "-//W3C//DTD SVG 1.1//EN"
       "http://www.w3.org/Graphics/SVG/1.1/DTD/svg11.dtd">
<svg version="1.1" xmlns="http://www.w3.org/2000/svg" xmlns:xlink="http://www.w3.org/1999/xlink" width="19.1602" height="19.1504">
 <g>
  <rect height="19.1504" opacity="0" width="19.1602" x="0" y="0"/>
  <path d="M9.57031 19.1406Q11.5527 19.1406 13.2861 18.3984Q15.0195 17.6562 16.3379 16.333Q17.6562 15.0098 18.4082 13.2764Q19.1602 11.543 19.1602 9.57031Q19.1602 7.59766 18.4082 5.86426Q17.6562 4.13086 16.3379 2.80762Q15.0195 1.48438 13.2861 0.742188Q11.5527 0 9.57031 0Q7.59766 0 5.86426 0.742188Q4.13086 1.48438 2.81738 2.80762Q1.50391 4.13086 0.751953 5.86426Q0 7.59766 0 9.57031Q0 11.543 0.74707 13.2764Q1.49414 15.0098 2.8125 16.333Q4.13086 17.6562 5.86914 18.3984Q7.60742 19.1406 9.57031 19.1406ZM9.57031 18.3984Q7.74414 18.3984 6.14746 17.71Q4.55078 17.0215 3.33496 15.8105Q2.11914 14.5996 1.43555 12.998Q0.751953 11.3965 0.751953 9.57031Q0.751953 7.74414 1.43555 6.14258Q2.11914 4.54102 3.33496 3.3252Q4.55078 2.10938 6.14746 1.4209Q7.74414 0.732422 9.57031 0.732422Q11.4062 0.732422 13.0029 1.4209Q14.5996 2.10938 15.8154 3.3252Q17.0312 4.54102 17.7197 6.14258Q18.4082 7.74414 18.4082 9.57031Q18.4082 11.3965 17.7246 12.998Q17.041 14.5996 15.8252 15.8105Q14.6094 17.0215 13.0078 17.71Q11.4062 18.3984 9.57031 18.3984ZM6.85547 14.9219L13.4277 14.9219Q13.5449 14.9219 13.623 14.8389Q13.7012 14.7559 13.7012 14.6387Q13.7012 14.5605 13.6572 14.4873Q13.6133 14.4141 13.5547 14.3848Q13.0176 14.0625 12.9443 13.5303Q12.8711 12.998 13.3008 12.5098Q13.4961 12.3047 13.5986 12.0508Q13.7012 11.7969 13.7012 11.4746L13.7012 5.6543Q13.7012 4.95117 13.3301 4.58984Q12.959 4.22852 12.2559 4.22852L6.92383 4.22852Q6.21094 4.22852 5.84473 4.58984Q5.47852 4.95117 5.47852 5.6543L5.47852 13.584Q5.47852 14.209 5.83984 14.5654Q6.20117 14.9219 6.85547 14.9219ZM6.875 14.3555Q6.47461 14.3555 6.25977 14.1504Q6.04492 13.9453 6.04492 13.5742Q6.04492 13.2227 6.26465 13.0225Q6.48438 12.8223 6.88477 12.8223L12.2363 12.8223Q12.3145 12.8223 12.3828 12.8125Q12.4512 12.8027 12.5098 12.793Q12.1484 13.6621 12.7148 14.3555ZM6.66992 11.9531Q6.41602 11.9531 6.41602 11.6992L6.41602 5.39062Q6.41602 5.13672 6.66992 5.13672Q6.77734 5.13672 6.85547 5.20996Q6.93359 5.2832 6.93359 5.39062L6.93359 11.6992Q6.93359 11.7969 6.85547 11.875Q6.77734 11.9531 6.66992 11.9531Z" fill="#000000"/>
 </g>
</svg>
