<?xml version="1.0" encoding="UTF-8"?>
<!--Generator: Apple Native CoreSVG 175-->
<!DOCTYPE svg
PUBLIC "-//W3C//DTD SVG 1.1//EN"
       "http://www.w3.org/Graphics/SVG/1.1/DTD/svg11.dtd">
<svg version="1.1" xmlns="http://www.w3.org/2000/svg" xmlns:xlink="http://www.w3.org/1999/xlink" width="19.1602" height="19.1504">
 <g>
  <rect height="19.1504" opacity="0" width="19.1602" x="0" y="0"/>
  <path d="M9.57031 19.1504Q11.5527 19.1504 13.2861 18.4082Q15.0195 17.666 16.3379 16.3428Q17.6562 15.0195 18.4082 13.2861Q19.1602 11.5527 19.1602 9.58008Q19.1602 7.60742 18.4082 5.87402Q17.6562 4.14062 16.3379 2.81738Q15.0195 1.49414 13.2861 0.751953Q11.5527 0.00976562 9.57031 0.00976562Q7.59766 0.00976562 5.86426 0.751953Q4.13086 1.49414 2.81738 2.81738Q1.50391 4.14062 0.751953 5.87402Q0 7.60742 0 9.58008Q0 11.5527 0.74707 13.2861Q1.49414 15.0195 2.8125 16.3428Q4.13086 17.666 5.86914 18.4082Q7.60742 19.1504 9.57031 19.1504ZM6.83594 14.9609Q6.18164 14.9609 5.81543 14.6094Q5.44922 14.2578 5.44922 13.6133L5.44922 5.64453Q5.44922 4.93164 5.81543 4.56543Q6.18164 4.19922 6.89453 4.19922L12.2754 4.19922Q12.9883 4.19922 13.3545 4.56543Q13.7207 4.93164 13.7207 5.64453L13.7207 11.4941Q13.7207 11.8164 13.6182 12.0752Q13.5156 12.334 13.3301 12.5391Q12.8906 13.0273 12.9639 13.5645Q13.0371 14.1016 13.5742 14.4238Q13.6328 14.4531 13.6768 14.5264Q13.7207 14.5996 13.7207 14.668Q13.7207 14.7949 13.6377 14.8779Q13.5547 14.9609 13.4473 14.9609ZM6.85547 14.3945L12.7246 14.3945Q12.1582 13.7012 12.5293 12.832Q12.4609 12.8418 12.3926 12.8467Q12.3242 12.8516 12.2559 12.8516L6.86523 12.8516Q6.46484 12.8516 6.24512 13.0518Q6.02539 13.252 6.02539 13.6035Q6.02539 13.9844 6.24023 14.1895Q6.45508 14.3945 6.85547 14.3945ZM6.66016 11.9727Q6.76758 11.9727 6.8457 11.8945Q6.92383 11.8164 6.92383 11.7188L6.92383 5.37109Q6.92383 5.27344 6.8457 5.19531Q6.76758 5.11719 6.66016 5.11719Q6.5332 5.11719 6.46484 5.19043Q6.39648 5.26367 6.39648 5.37109L6.39648 11.7188Q6.39648 11.8262 6.46484 11.8994Q6.5332 11.9727 6.66016 11.9727Z" fill="#000000"/>
 </g>
</svg>
