<?xml version="1.0" encoding="UTF-8"?>
<!--Generator: Apple Native CoreSVG 175.5-->
<!DOCTYPE svg
PUBLIC "-//W3C//DTD SVG 1.1//EN"
       "http://www.w3.org/Graphics/SVG/1.1/DTD/svg11.dtd">
<svg version="1.1" xmlns="http://www.w3.org/2000/svg" xmlns:xlink="http://www.w3.org/1999/xlink" width="17.9785" height="17.998">
 <g>
  <rect height="17.998" opacity="0" width="17.9785" x="0" y="0"/>
  <path d="M3.06641 17.998L14.9121 17.998Q16.4453 17.998 17.2119 17.2412Q17.9785 16.4844 17.9785 14.9707L17.9785 3.04688Q17.9785 1.5332 17.2119 0.776367Q16.4453 0.0195312 14.9121 0.0195312L3.06641 0.0195312Q1.5332 0.0195312 0.766602 0.776367Q0 1.5332 0 3.04688L0 14.9707Q0 16.4844 0.766602 17.2412Q1.5332 17.998 3.06641 17.998Z" fill="#ff453a"/>
  <path d="M6.01562 14.3262Q5.77148 14.3262 5.62012 14.1553Q5.46875 13.9844 5.46875 13.6816L5.46875 5.20508Q5.46875 4.46289 5.84473 4.08203Q6.2207 3.70117 6.95312 3.70117L11.0449 3.70117Q11.7773 3.70117 12.1533 4.08203Q12.5293 4.46289 12.5293 5.20508L12.5293 13.6816Q12.5293 13.9844 12.3779 14.1553Q12.2266 14.3262 11.9727 14.3262Q11.7773 14.3262 11.6162 14.1943Q11.4551 14.0625 11.1035 13.7207L9.04297 11.6992Q8.99414 11.6504 8.95508 11.6992L6.89453 13.7207Q6.54297 14.0625 6.38184 14.1943Q6.2207 14.3262 6.01562 14.3262Z" fill="#ffffff"/>
 </g>
</svg>
