<?xml version="1.0" encoding="UTF-8"?>
<!--Generator: Apple Native CoreSVG 175-->
<!DOCTYPE svg
PUBLIC "-//W3C//DTD SVG 1.1//EN"
       "http://www.w3.org/Graphics/SVG/1.1/DTD/svg11.dtd">
<svg version="1.1" xmlns="http://www.w3.org/2000/svg" xmlns:xlink="http://www.w3.org/1999/xlink" width="21.0138" height="16.6037">
 <g>
  <rect height="16.6037" opacity="0" width="21.0138" x="0" y="0"/>
  <path d="M5.43747 0Q4.40552 0 3.36975 0.283661Q2.33398 0.567322 1.47812 1.11298Q0.622253 1.65863 0.124207 2.45743Q0.043335 2.57584 0.0216675 2.66548Q0 2.75513 0 2.92313L0 16.1961Q0 16.3763 0.103149 16.4859Q0.206299 16.5955 0.391846 16.5955Q0.52536 16.5955 0.612717 16.5509Q0.700073 16.5063 0.780487 16.4314Q1.65192 15.5771 2.91168 15.1788Q4.17145 14.7806 5.52582 14.7806Q6.44928 14.7806 7.2184 15.0077Q7.98752 15.2348 8.58009 15.5804Q9.17267 15.9259 9.57779 16.2837Q9.71283 16.3994 9.87732 16.3994Q10.0012 16.3994 10.0889 16.3152Q10.1765 16.2309 10.1765 16.0876L10.1765 2.41058Q10.1765 2.25052 10.1424 2.15912Q10.1082 2.06772 10.0137 1.95404Q9.16443 0.968018 7.95647 0.484009Q6.7485 0 5.43747 0ZM15.5692 0Q14.2653 0 13.0537 0.484009Q11.8422 0.968018 11.0001 1.95404Q10.9055 2.06772 10.8713 2.15912Q10.8371 2.25052 10.8371 2.41058L10.8371 16.0876Q10.8371 16.2309 10.9248 16.3152Q11.0126 16.3994 11.1363 16.3994Q11.3008 16.3994 11.436 16.2837Q11.8411 15.9259 12.4337 15.5804Q13.0263 15.2348 13.7954 15.0077Q14.5645 14.7806 15.488 14.7806Q16.8422 14.7806 18.102 15.1788Q19.3617 15.5771 20.2333 16.4314Q20.3137 16.5063 20.401 16.5509Q20.4883 16.5955 20.6219 16.5955Q20.8005 16.5955 20.9071 16.4859Q21.0138 16.3763 21.0138 16.1961L21.0138 2.92313Q21.0138 2.75513 20.9921 2.66411Q20.9703 2.57309 20.8896 2.45743Q20.3915 1.65863 19.5357 1.11298Q18.6798 0.567322 17.644 0.283661Q16.6083 0 15.5692 0Z" fill="#007aff"/>
 </g>
</svg>
