<?xml version="1.0" encoding="UTF-8"?>
<!--Generator: Apple Native CoreSVG 175.5-->
<!DOCTYPE svg
PUBLIC "-//W3C//DTD SVG 1.1//EN"
       "http://www.w3.org/Graphics/SVG/1.1/DTD/svg11.dtd">
<svg version="1.1" xmlns="http://www.w3.org/2000/svg" xmlns:xlink="http://www.w3.org/1999/xlink" width="19.9219" height="19.9316">
 <g>
  <rect height="19.9316" opacity="0" width="19.9219" x="0" y="0"/>
  <path d="M9.96094 19.9219Q12.002 19.9219 13.8037 19.1406Q15.6055 18.3594 16.9824 16.9824Q18.3594 15.6055 19.1406 13.8037Q19.9219 12.002 19.9219 9.96094Q19.9219 7.91992 19.1406 6.11816Q18.3594 4.31641 16.9824 2.93945Q15.6055 1.5625 13.7988 0.78125Q11.9922 0 9.95117 0Q7.91016 0 6.1084 0.78125Q4.30664 1.5625 2.93457 2.93945Q1.5625 4.31641 0.78125 6.11816Q0 7.91992 0 9.96094Q0 12.002 0.78125 13.8037Q1.5625 15.6055 2.93945 16.9824Q4.31641 18.3594 6.11816 19.1406Q7.91992 19.9219 9.96094 19.9219ZM9.96094 18.2617Q8.23242 18.2617 6.72852 17.6172Q5.22461 16.9727 4.08691 15.835Q2.94922 14.6973 2.30957 13.1934Q1.66992 11.6895 1.66992 9.96094Q1.66992 8.23242 2.30957 6.72852Q2.94922 5.22461 4.08203 4.08203Q5.21484 2.93945 6.71875 2.2998Q8.22266 1.66016 9.95117 1.66016Q11.6797 1.66016 13.1885 2.2998Q14.6973 2.93945 15.835 4.08203Q16.9727 5.22461 17.6172 6.72852Q18.2617 8.23242 18.2617 9.96094Q18.2617 11.6895 17.6221 13.1934Q16.9824 14.6973 15.8398 15.835Q14.6973 16.9727 13.1934 17.6172Q11.6895 18.2617 9.96094 18.2617Z" fill="#007aff"/>
  <path d="M7.39258 15.127L13.6035 15.127Q13.7598 15.127 13.8818 15.0049Q14.0039 14.8828 14.0039 14.7168Q14.0039 14.5898 13.9258 14.4775Q13.8477 14.3652 13.7402 14.3262Q13.2812 14.1406 13.2227 13.6572Q13.1641 13.1738 13.5938 12.7441Q13.7402 12.5977 13.8721 12.3926Q14.0039 12.1875 14.0039 11.8262L14.0039 6.32812Q14.0039 5.57617 13.6279 5.19043Q13.252 4.80469 12.5 4.80469L7.41211 4.80469Q6.66016 4.80469 6.28418 5.18555Q5.9082 5.56641 5.9082 6.32812L5.9082 13.623Q5.9082 14.3652 6.2793 14.7461Q6.65039 15.127 7.39258 15.127ZM7.44141 14.3164Q7.08984 14.3164 6.9043 14.1309Q6.71875 13.9453 6.71875 13.6133Q6.71875 13.3008 6.92871 13.1152Q7.13867 12.9297 7.48047 12.9297L12.3926 12.9297Q12.4316 12.9297 12.4609 12.9248Q12.4902 12.9199 12.5195 12.9199Q12.2363 13.6426 12.5781 14.3164ZM7.28516 12.1191Q7.00195 12.1191 7.00195 11.8262L7.00195 5.91797Q7.00195 5.625 7.28516 5.625Q7.42188 5.625 7.50977 5.71289Q7.59766 5.80078 7.59766 5.91797L7.59766 11.8262Q7.59766 11.9531 7.50977 12.0361Q7.42188 12.1191 7.28516 12.1191Z" fill="#007aff"/>
 </g>
</svg>
