<?xml version="1.0" encoding="UTF-8"?>
<!--Generator: Apple Native CoreSVG 175.5-->
<!DOCTYPE svg
PUBLIC "-//W3C//DTD SVG 1.1//EN"
       "http://www.w3.org/Graphics/SVG/1.1/DTD/svg11.dtd">
<svg version="1.1" xmlns="http://www.w3.org/2000/svg" xmlns:xlink="http://www.w3.org/1999/xlink" width="28.4375" height="21.4746">
 <g>
  <rect height="21.4746" opacity="0" width="28.4375" x="0" y="0"/>
  <path d="M2.65625 18.75L4.79492 18.75L4.79492 17.1777L2.67578 17.1777Q2.12891 17.1777 1.85059 16.8994Q1.57227 16.6211 1.57227 16.0742L1.57227 3.32031Q1.57227 2.76367 1.85059 2.48535Q2.12891 2.20703 2.67578 2.20703L16.9629 2.20703Q17.5098 2.20703 17.793 2.48535Q18.0762 2.76367 18.0762 3.32031L18.0762 17.6367L19.6484 17.0703L19.6484 3.29102Q19.6484 1.99219 18.9746 1.31348Q18.3008 0.634766 16.9922 0.634766L2.65625 0.634766Q1.34766 0.634766 0.673828 1.30859Q0 1.98242 0 3.29102L0 16.1035Q0 17.4023 0.673828 18.0762Q1.34766 18.75 2.65625 18.75ZM9.84375 18.75L18.75 18.75L18.75 17.1777L9.84375 17.1777ZM18.7891 7.59766L22.1484 7.59766Q22.5195 7.59766 22.8076 7.69531Q23.0957 7.79297 23.3984 8.125L26.4648 11.5723Q26.6602 11.7969 26.7627 12.0801Q26.8652 12.3633 26.8652 12.627L26.8652 16.0742Q26.8652 16.6211 26.582 16.8994Q26.2988 17.1777 25.752 17.1777L24.1797 17.1777L24.1797 18.75L25.7812 18.75Q27.0898 18.75 27.7637 18.0762Q28.4375 17.4023 28.4375 16.1035L28.4375 12.6562Q28.4375 11.9336 28.2959 11.5186Q28.1543 11.1035 27.7441 10.6445L24.4238 6.89453Q23.9844 6.41602 23.4766 6.2207Q22.9688 6.02539 22.2461 6.02539L18.7891 6.02539ZM21.4746 12.7441L25.7324 12.7441Q25.7324 12.5684 25.6689 12.4512Q25.6055 12.334 25.498 12.2168L22.5879 8.94531Q22.4316 8.7793 22.2412 8.67676Q22.0508 8.57422 21.8457 8.57422L20.6348 8.57422L20.6348 11.9141Q20.6348 12.2949 20.8594 12.5195Q21.084 12.7441 21.4746 12.7441ZM7.24609 21.4746Q8.16406 21.4746 8.9209 21.0254Q9.67773 20.5762 10.127 19.8193Q10.5762 19.0625 10.5762 18.1348Q10.5762 17.2168 10.127 16.46Q9.67773 15.7031 8.9209 15.2539Q8.16406 14.8047 7.24609 14.8047Q6.31836 14.8047 5.56152 15.2539Q4.80469 15.7031 4.35059 16.46Q3.89648 17.2168 3.89648 18.1348Q3.89648 19.0625 4.35059 19.8193Q4.80469 20.5762 5.56152 21.0254Q6.31836 21.4746 7.24609 21.4746ZM7.24609 20.1465Q6.68945 20.1465 6.23047 19.8779Q5.77148 19.6094 5.49805 19.1504Q5.22461 18.6914 5.22461 18.1348Q5.22461 17.5781 5.49805 17.124Q5.77148 16.6699 6.23047 16.3965Q6.68945 16.123 7.24609 16.123Q7.79297 16.123 8.25195 16.3965Q8.71094 16.6699 8.97949 17.124Q9.24805 17.5781 9.24805 18.1348Q9.24805 18.6914 8.97949 19.1504Q8.71094 19.6094 8.25195 19.8779Q7.79297 20.1465 7.24609 20.1465ZM21.3184 21.4746Q22.2363 21.4746 22.9932 21.0254Q23.75 20.5762 24.1992 19.8193Q24.6484 19.0625 24.6484 18.1348Q24.6484 17.2168 24.1992 16.46Q23.75 15.7031 22.9932 15.2539Q22.2363 14.8047 21.3184 14.8047Q20.4004 14.8047 19.6387 15.2539Q18.877 15.7031 18.4277 16.46Q17.9785 17.2168 17.9785 18.1348Q17.9785 19.0625 18.4277 19.8193Q18.877 20.5762 19.6387 21.0254Q20.4004 21.4746 21.3184 21.4746ZM21.3184 20.1465Q20.7617 20.1465 20.3076 19.8779Q19.8535 19.6094 19.5801 19.1504Q19.3066 18.6914 19.3066 18.1348Q19.3066 17.5781 19.5801 17.124Q19.8535 16.6699 20.3076 16.3965Q20.7617 16.123 21.3184 16.123Q21.8652 16.123 22.3193 16.3965Q22.7734 16.6699 23.0469 17.124Q23.3203 17.5781 23.3203 18.1348Q23.3203 18.6914 23.0518 19.1504Q22.7832 19.6094 22.3291 19.8779Q21.875 20.1465 21.3184 20.1465Z" fill="#007aff"/>
 </g>
</svg>
