<?xml version="1.0" encoding="UTF-8"?>
<!--Generator: Apple Native CoreSVG 175.5-->
<!DOCTYPE svg
PUBLIC "-//W3C//DTD SVG 1.1//EN"
       "http://www.w3.org/Graphics/SVG/1.1/DTD/svg11.dtd">
<svg version="1.1" xmlns="http://www.w3.org/2000/svg" xmlns:xlink="http://www.w3.org/1999/xlink" width="28.4375" height="20.8496">
 <g>
  <rect height="20.8496" opacity="0" width="28.4375" x="0" y="0"/>
  <path d="M18.3105 15.459L18.3105 2.97852Q18.3105 1.67969 17.6367 1.00098Q16.9629 0.322266 15.6543 0.322266L2.65625 0.322266Q1.34766 0.322266 0.673828 0.996094Q0 1.66992 0 2.97852L0 15.791Q0 16.6602 0.302734 17.251Q0.605469 17.8418 1.19629 18.1396Q1.78711 18.4375 2.65625 18.4375L3.32031 18.4375Q3.29102 18.2422 3.29102 18.0371Q3.29102 17.2168 3.59863 16.499Q3.90625 15.7812 4.44824 15.2393Q4.99023 14.6973 5.70801 14.3896Q6.42578 14.082 7.24609 14.082Q8.05664 14.082 8.77441 14.3896Q9.49219 14.6973 10.0342 15.2393Q10.5762 15.7812 10.8838 16.499Q11.1914 17.2168 11.1914 18.0371Q11.1914 18.2422 11.1621 18.4375L17.3828 18.4375Q17.3535 18.2324 17.3535 18.0273Q17.3535 17.2754 17.5977 16.6162Q17.8418 15.957 18.3105 15.459ZM19.6484 5.71289L19.6484 14.4922Q20 14.2969 20.4102 14.1846Q20.8203 14.0723 21.2598 14.0723Q22.0801 14.0723 22.7979 14.3799Q23.5156 14.6875 24.0674 15.2295Q24.6191 15.7715 24.9365 16.4893Q25.2539 17.207 25.2539 18.0273Q25.2539 18.2324 25.2246 18.4375L25.8203 18.4375Q27.1094 18.4375 27.7734 17.7588Q28.4375 17.0801 28.4375 15.791L28.4375 12.3438Q28.4375 11.6211 28.2959 11.2061Q28.1543 10.791 27.7441 10.332L24.4238 6.58203Q23.9844 6.10352 23.4766 5.9082Q22.9688 5.71289 22.2461 5.71289ZM22.1777 11.9434Q21.7676 11.9434 21.5283 11.7041Q21.2891 11.4648 21.2891 11.0547L21.2891 7.51953L22.1484 7.51953Q22.4805 7.51953 22.7344 7.60742Q22.9883 7.69531 23.2715 8.01758L26.25 11.3574Q26.3672 11.4844 26.4453 11.6309Q26.5234 11.7773 26.5527 11.9434ZM7.24609 20.8496Q8.02734 20.8496 8.66211 20.4688Q9.29688 20.0879 9.67773 19.4482Q10.0586 18.8086 10.0586 18.0371Q10.0586 17.2559 9.67773 16.6162Q9.29688 15.9766 8.65723 15.6006Q8.01758 15.2246 7.24609 15.2246Q6.46484 15.2246 5.8252 15.6006Q5.18555 15.9766 4.80957 16.6162Q4.43359 17.2559 4.43359 18.0371Q4.43359 18.8086 4.80957 19.4482Q5.18555 20.0879 5.8252 20.4688Q6.46484 20.8496 7.24609 20.8496ZM21.2988 20.8496Q22.0801 20.8496 22.7197 20.4688Q23.3594 20.0879 23.7354 19.4482Q24.1113 18.8086 24.1113 18.0273Q24.1113 17.2461 23.7305 16.6064Q23.3496 15.9668 22.7148 15.5908Q22.0801 15.2148 21.2988 15.2148Q20.5273 15.2148 19.8877 15.5908Q19.248 15.9668 18.8672 16.6064Q18.4863 17.2461 18.4863 18.0273Q18.4863 18.7988 18.8672 19.4434Q19.248 20.0879 19.8877 20.4688Q20.5273 20.8496 21.2988 20.8496Z" fill="#007aff"/>
 </g>
</svg>
