<?xml version="1.0" encoding="UTF-8"?>
<!--Generator: Apple Native CoreSVG 175.5-->
<!DOCTYPE svg
PUBLIC "-//W3C//DTD SVG 1.1//EN"
       "http://www.w3.org/Graphics/SVG/1.1/DTD/svg11.dtd">
<svg version="1.1" xmlns="http://www.w3.org/2000/svg" xmlns:xlink="http://www.w3.org/1999/xlink" width="17.9785" height="17.998">
 <g>
  <rect height="17.998" opacity="0" width="17.9785" x="0" y="0"/>
  <path d="M3.06641 17.998L14.9121 17.998Q16.4453 17.998 17.2119 17.2412Q17.9785 16.4844 17.9785 14.9707L17.9785 3.04688Q17.9785 1.5332 17.2119 0.776367Q16.4453 0.0195312 14.9121 0.0195312L3.06641 0.0195312Q1.5332 0.0195312 0.766602 0.776367Q0 1.5332 0 3.04688L0 14.9707Q0 16.4844 0.766602 17.2412Q1.5332 17.998 3.06641 17.998Z" fill="#007aff"/>
  <path d="M4.74609 13.5449Q4.45312 13.5449 4.26758 13.3643Q4.08203 13.1836 4.08203 12.8906L4.08203 5.3125Q4.08203 4.90234 4.28223 4.64844Q4.48242 4.39453 4.85352 4.39453L6.48438 4.39453Q7.75391 4.39453 8.36914 5.05859Q8.98438 5.72266 8.98438 6.94336Q8.98438 7.73438 8.65234 8.4375Q8.32031 9.14062 7.68555 9.38477L8.99414 12.6367Q9.16992 13.0762 8.92578 13.3105Q8.68164 13.5449 8.34961 13.5449Q8.1543 13.5449 7.98828 13.4473Q7.82227 13.3496 7.73438 13.1348L6.40625 9.63867Q6.34766 9.64844 6.29883 9.64844Q6.25 9.64844 6.20117 9.64844L5.41016 9.64844L5.41016 12.8906Q5.41016 13.1836 5.22461 13.3643Q5.03906 13.5449 4.74609 13.5449ZM5.41016 8.62305L6.33789 8.62305Q7.02148 8.62305 7.3291 8.16406Q7.63672 7.70508 7.63672 6.99219Q7.63672 6.2793 7.31934 5.87402Q7.00195 5.46875 6.32812 5.46875L5.41016 5.46875ZM12.2852 14.2285Q12.1094 14.2285 11.9873 14.1016Q11.8652 13.9746 11.8652 13.7988L11.8652 13.1152Q10.9863 13.0078 10.459 12.4902Q9.93164 11.9727 9.82422 11.1914Q9.76562 10.8008 9.96094 10.5908Q10.1562 10.3809 10.4199 10.3809Q10.625 10.3809 10.7812 10.5127Q10.9375 10.6445 10.9668 10.8887Q11.0156 11.3477 11.2305 11.6406Q11.4453 11.9336 11.8652 12.0117L11.8652 9.43359L11.5137 9.25781Q10.7227 8.84766 10.2734 8.30078Q9.82422 7.75391 9.82422 6.93359Q9.82422 6.04492 10.3955 5.47363Q10.9668 4.90234 11.8652 4.80469L11.8652 4.14062Q11.8652 3.97461 11.9873 3.84766Q12.1094 3.7207 12.2852 3.7207Q12.4512 3.7207 12.5781 3.84766Q12.7051 3.97461 12.7051 4.14062L12.7051 4.81445Q13.5254 4.94141 14.0088 5.45898Q14.4922 5.97656 14.5801 6.70898Q14.6387 7.13867 14.4385 7.33398Q14.2383 7.5293 13.9746 7.5293Q13.7695 7.5293 13.6035 7.39746Q13.4375 7.26562 13.418 7.01172Q13.3887 6.62109 13.208 6.33301Q13.0273 6.04492 12.7051 5.9375L12.7051 8.44727L13.0273 8.63281Q13.916 9.11133 14.3311 9.64844Q14.7461 10.1855 14.7461 10.918Q14.7461 11.8555 14.1846 12.4365Q13.623 13.0176 12.7051 13.125L12.7051 13.7988Q12.7051 13.9746 12.5781 14.1016Q12.4512 14.2285 12.2852 14.2285ZM11.8652 5.89844Q11.5039 5.98633 11.2891 6.24023Q11.0742 6.49414 11.0742 6.88477Q11.0742 7.28516 11.2939 7.53906Q11.5137 7.79297 11.8164 7.96875L11.8652 7.99805ZM12.7051 12.0117Q13.0957 11.9336 13.3057 11.665Q13.5156 11.3965 13.5156 11.0059Q13.5156 10.6543 13.291 10.3809Q13.0664 10.1074 12.7344 9.90234L12.7051 9.89258Z" fill="#ffffff"/>
 </g>
</svg>
