<?xml version="1.0" encoding="UTF-8"?>
<!--Generator: Apple Native CoreSVG 175.5-->
<!DOCTYPE svg
PUBLIC "-//W3C//DTD SVG 1.1//EN"
       "http://www.w3.org/Graphics/SVG/1.1/DTD/svg11.dtd">
<svg version="1.1" xmlns="http://www.w3.org/2000/svg" xmlns:xlink="http://www.w3.org/1999/xlink" width="21.5234" height="21.6504">
 <g>
  <rect height="21.6504" opacity="0" width="21.5234" x="0" y="0"/>
  <path d="M10.7422 21.6504Q11.0742 21.6504 11.3818 21.4697Q11.6895 21.2891 11.9824 20.791L13.7891 17.7734L17.0508 17.7734Q18.5059 17.7734 19.502 17.251Q20.498 16.7285 21.0107 15.7324Q21.5234 14.7363 21.5234 13.3008L21.5234 5.82031Q21.5234 4.38477 21.0107 3.38867Q20.498 2.39258 19.502 1.87012Q18.5059 1.34766 17.0508 1.34766L4.47266 1.34766Q3.01758 1.34766 2.02148 1.87012Q1.02539 2.39258 0.512695 3.38867Q0 4.38477 0 5.82031L0 13.3008Q0 14.7363 0.512695 15.7324Q1.02539 16.7285 2.02148 17.251Q3.01758 17.7734 4.47266 17.7734L7.69531 17.7734L9.50195 20.791Q9.79492 21.2891 10.1025 21.4697Q10.4102 21.6504 10.7422 21.6504ZM10.7422 20.0488L9.11133 16.9922Q8.86719 16.5234 8.62305 16.3623Q8.37891 16.2012 7.86133 16.2012L4.47266 16.2012Q2.98828 16.2012 2.28027 15.4639Q1.57227 14.7266 1.57227 13.291L1.57227 5.82031Q1.57227 4.39453 2.28027 3.65723Q2.98828 2.91992 4.47266 2.91992L17.0508 2.91992Q18.5254 2.91992 19.2383 3.65723Q19.9512 4.39453 19.9512 5.82031L19.9512 13.291Q19.9512 14.7266 19.2383 15.4639Q18.5254 16.2012 17.0508 16.2012L13.623 16.2012Q13.1055 16.2012 12.8613 16.3623Q12.6172 16.5234 12.373 16.9922Z" fill="#007aff"/>
 </g>
</svg>
