<?xml version="1.0" encoding="UTF-8"?>
<!--Generator: Apple Native CoreSVG 175.5-->
<!DOCTYPE svg
PUBLIC "-//W3C//DTD SVG 1.1//EN"
       "http://www.w3.org/Graphics/SVG/1.1/DTD/svg11.dtd">
<svg version="1.1" xmlns="http://www.w3.org/2000/svg" xmlns:xlink="http://www.w3.org/1999/xlink" width="20.6836" height="21.5723">
 <g>
  <rect height="21.5723" opacity="0" width="20.6836" x="0" y="0"/>
  <path d="M14.9414 21.5723Q15.3516 21.5723 15.5811 21.2988Q15.8105 21.0254 15.8105 20.5664L15.8105 17.7246L16.9043 17.7246Q18.0273 17.7246 18.8818 17.2412Q19.7363 16.7578 20.21 15.8838Q20.6836 15.0098 20.6836 13.8379L20.6836 5.37109Q20.6836 3.60352 19.6387 2.61719Q18.5938 1.63086 16.9043 1.63086L3.7793 1.63086Q2.02148 1.63086 1.01074 2.62207Q0 3.61328 0 5.37109L0 13.8379Q0 15.5859 1.01074 16.6553Q2.02148 17.7246 3.7793 17.7246L10.2832 17.7246L13.8184 20.9473Q14.1602 21.2695 14.4043 21.4209Q14.6484 21.5723 14.9414 21.5723Z" fill="#007aff"/>
 </g>
</svg>
