<?xml version="1.0" encoding="UTF-8"?>
<!--Generator: Apple Native CoreSVG 175-->
<!DOCTYPE svg
PUBLIC "-//W3C//DTD SVG 1.1//EN"
       "http://www.w3.org/Graphics/SVG/1.1/DTD/svg11.dtd">
<svg version="1.1" xmlns="http://www.w3.org/2000/svg" xmlns:xlink="http://www.w3.org/1999/xlink" width="19.1602" height="19.1504">
 <g>
  <rect height="19.1504" opacity="0" width="19.1602" x="0" y="0"/>
  <path d="M9.57031 19.1504Q11.5527 19.1504 13.2861 18.4082Q15.0195 17.666 16.3379 16.3428Q17.6562 15.0195 18.4082 13.2861Q19.1602 11.5527 19.1602 9.58008Q19.1602 7.60742 18.4082 5.87402Q17.6562 4.14062 16.3379 2.81738Q15.0195 1.49414 13.2861 0.751953Q11.5527 0.00976562 9.57031 0.00976562Q7.59766 0.00976562 5.86426 0.751953Q4.13086 1.49414 2.81738 2.81738Q1.50391 4.14062 0.751953 5.87402Q0 7.60742 0 9.58008Q0 11.5527 0.74707 13.2861Q1.49414 15.0195 2.8125 16.3428Q4.13086 17.666 5.86914 18.4082Q7.60742 19.1504 9.57031 19.1504ZM6.73828 15.2246Q6.49414 15.2246 6.49414 14.9609L6.49414 13.457L6.04492 13.457Q5.13672 13.457 4.60938 12.9297Q4.08203 12.4023 4.08203 11.4941L4.08203 7.08008Q4.08203 6.18164 4.60938 5.65918Q5.13672 5.13672 6.04492 5.13672L13.0957 5.13672Q14.0039 5.13672 14.5312 5.66406Q15.0586 6.19141 15.0586 7.08008L15.0586 11.4941Q15.0586 12.3926 14.5312 12.9248Q14.0039 13.457 13.0957 13.457L8.91602 13.457L7.05078 15.0781Q6.875 15.2246 6.73828 15.2246Z" fill="#ffffff"/>
 </g>
</svg>
