<?xml version="1.0" encoding="UTF-8"?>
<!--Generator: Apple Native CoreSVG 175-->
<!DOCTYPE svg
PUBLIC "-//W3C//DTD SVG 1.1//EN"
       "http://www.w3.org/Graphics/SVG/1.1/DTD/svg11.dtd">
<svg version="1.1" xmlns="http://www.w3.org/2000/svg" xmlns:xlink="http://www.w3.org/1999/xlink" width="20.7712" height="20.3568">
 <g>
  <rect height="20.3568" opacity="0" width="20.7712" x="0" y="0"/>
  <path d="M10.3836 20.3568Q10.5609 20.3568 10.7104 20.257Q10.8598 20.1572 11.0051 19.9403L12.9102 16.9789L17.0508 16.9789Q18.2036 16.9789 19.0379 16.5233Q19.8723 16.0677 20.3217 15.2332Q20.7712 14.3988 20.7712 13.2657L20.7712 4.92035Q20.7712 3.78006 20.3217 2.94571Q19.8723 2.11136 19.0379 1.65573Q18.2036 1.2001 17.0508 1.2001L3.7204 1.2001Q2.5676 1.2001 1.73325 1.65222Q0.898895 2.10434 0.449448 2.93518Q0 3.76602 0 4.92035L0 13.2657Q0 14.413 0.449448 15.2438Q0.898895 16.0747 1.73325 16.5268Q2.5676 16.9789 3.7204 16.9789L7.85004 16.9789L9.7551 19.9403Q9.90036 20.1572 10.0498 20.257Q10.1993 20.3568 10.3836 20.3568Z" fill="#000000"/>
 </g>
</svg>
