<?xml version="1.0" encoding="UTF-8"?>
<!--Generator: Apple Native CoreSVG 175-->
<!DOCTYPE svg
PUBLIC "-//W3C//DTD SVG 1.1//EN"
       "http://www.w3.org/Graphics/SVG/1.1/DTD/svg11.dtd">
<svg version="1.1" xmlns="http://www.w3.org/2000/svg" xmlns:xlink="http://www.w3.org/1999/xlink" width="19.1602" height="19.1504">
 <g>
  <rect height="19.1504" opacity="0" width="19.1602" x="0" y="0"/>
  <path d="M9.57031 19.1406Q11.5527 19.1406 13.2861 18.3984Q15.0195 17.6562 16.3379 16.333Q17.6562 15.0098 18.4082 13.2764Q19.1602 11.543 19.1602 9.57031Q19.1602 7.59766 18.4082 5.86426Q17.6562 4.13086 16.3379 2.80762Q15.0195 1.48438 13.2861 0.742188Q11.5527 0 9.57031 0Q7.59766 0 5.86426 0.742188Q4.13086 1.48438 2.81738 2.80762Q1.50391 4.13086 0.751953 5.86426Q0 7.59766 0 9.57031Q0 11.543 0.74707 13.2764Q1.49414 15.0098 2.8125 16.333Q4.13086 17.6562 5.86914 18.3984Q7.60742 19.1406 9.57031 19.1406ZM9.57031 18.3984Q7.74414 18.3984 6.14746 17.71Q4.55078 17.0215 3.33496 15.8105Q2.11914 14.5996 1.43555 12.998Q0.751953 11.3965 0.751953 9.57031Q0.751953 7.74414 1.43555 6.14258Q2.11914 4.54102 3.33496 3.3252Q4.55078 2.10938 6.14746 1.4209Q7.74414 0.732422 9.57031 0.732422Q11.4062 0.732422 13.0029 1.4209Q14.5996 2.10938 15.8154 3.3252Q17.0312 4.54102 17.7197 6.14258Q18.4082 7.74414 18.4082 9.57031Q18.4082 11.3965 17.7246 12.998Q17.041 14.5996 15.8252 15.8105Q14.6094 17.0215 13.0078 17.71Q11.4062 18.3984 9.57031 18.3984ZM4.0625 6.76758Q4.0625 6.89453 4.14551 6.96777Q4.22852 7.04102 4.35547 7.04102L14.7852 7.04102Q14.9219 7.04102 15.0049 6.96777Q15.0879 6.89453 15.0879 6.76758Q15.0879 6.61133 14.9121 6.51367L10.166 3.7793Q9.88281 3.61328 9.57031 3.61328Q9.25781 3.61328 8.98438 3.7793L4.22852 6.51367Q4.15039 6.55273 4.10645 6.62109Q4.0625 6.68945 4.0625 6.76758ZM4.73633 13.4082Q4.73633 13.5059 4.7998 13.5693Q4.86328 13.6328 4.9707 13.6328L6.38672 13.6328Q6.49414 13.6328 6.55762 13.5742Q6.62109 13.5156 6.62109 13.4082L6.62109 13.3203Q6.62109 13.0762 6.38672 13.0762L5.9668 13.0762L5.9668 8.125L6.38672 8.125Q6.62109 8.125 6.62109 7.90039L6.62109 7.8125Q6.62109 7.71484 6.55273 7.6416Q6.48438 7.56836 6.38672 7.56836L4.9707 7.56836Q4.87305 7.56836 4.80469 7.6416Q4.73633 7.71484 4.73633 7.8125L4.73633 7.90039Q4.73633 8.125 4.9707 8.125L5.41016 8.125L5.41016 13.0762L4.9707 13.0762Q4.73633 13.0762 4.73633 13.3203ZM7.34375 13.4082Q7.34375 13.5156 7.40234 13.5742Q7.46094 13.6328 7.56836 13.6328L8.97461 13.6328Q9.0918 13.6328 9.16016 13.5742Q9.22852 13.5156 9.22852 13.4082L9.22852 13.3203Q9.22852 13.0762 8.97461 13.0762L8.56445 13.0762L8.56445 8.125L8.97461 8.125Q9.22852 8.125 9.22852 7.90039L9.22852 7.8125Q9.22852 7.71484 9.16016 7.6416Q9.0918 7.56836 8.97461 7.56836L7.56836 7.56836Q7.4707 7.56836 7.40723 7.6416Q7.34375 7.71484 7.34375 7.8125L7.34375 7.90039Q7.34375 8.125 7.56836 8.125L8.00781 8.125L8.00781 13.0762L7.56836 13.0762Q7.34375 13.0762 7.34375 13.3203ZM9.94141 13.4082Q9.94141 13.5059 10.0049 13.5693Q10.0684 13.6328 10.1758 13.6328L11.582 13.6328Q11.6895 13.6328 11.7627 13.5693Q11.8359 13.5059 11.8359 13.4082L11.8359 13.3203Q11.8359 13.0762 11.582 13.0762L11.1719 13.0762L11.1719 8.125L11.582 8.125Q11.8359 8.125 11.8359 7.90039L11.8359 7.8125Q11.8359 7.71484 11.7627 7.6416Q11.6895 7.56836 11.582 7.56836L10.1758 7.56836Q10.0781 7.56836 10.0098 7.6416Q9.94141 7.71484 9.94141 7.8125L9.94141 7.90039Q9.94141 8.125 10.1758 8.125L10.6152 8.125L10.6152 13.0762L10.1758 13.0762Q9.94141 13.0762 9.94141 13.3203ZM12.5391 13.4082Q12.5391 13.5059 12.6074 13.5693Q12.6758 13.6328 12.7832 13.6328L14.1895 13.6328Q14.2969 13.6328 14.3652 13.5742Q14.4336 13.5156 14.4336 13.4082L14.4336 13.3203Q14.4336 13.0762 14.1895 13.0762L13.7793 13.0762L13.7793 8.125L14.1895 8.125Q14.4336 8.125 14.4336 7.90039L14.4336 7.8125Q14.4336 7.71484 14.3604 7.6416Q14.2871 7.56836 14.1895 7.56836L12.7832 7.56836Q12.6855 7.56836 12.6123 7.6416Q12.5391 7.71484 12.5391 7.8125L12.5391 7.90039Q12.5391 8.125 12.7832 8.125L13.2227 8.125L13.2227 13.0762L12.7832 13.0762Q12.5391 13.0762 12.5391 13.3203ZM3.96484 14.4629Q3.96484 14.5801 4.04785 14.6582Q4.13086 14.7363 4.24805 14.7363L14.8926 14.7363Q15.0098 14.7363 15.1025 14.6582Q15.1953 14.5801 15.1953 14.4629Q15.1953 14.3359 15.1074 14.2529Q15.0195 14.1699 14.8926 14.1699L4.24805 14.1699Q4.12109 14.1699 4.04297 14.2529Q3.96484 14.3359 3.96484 14.4629Z" fill="#000000"/>
 </g>
</svg>
