<?xml version="1.0" encoding="UTF-8"?>
<!--Generator: Apple Native CoreSVG 175.5-->
<!DOCTYPE svg
PUBLIC "-//W3C//DTD SVG 1.1//EN"
       "http://www.w3.org/Graphics/SVG/1.1/DTD/svg11.dtd">
<svg version="1.1" xmlns="http://www.w3.org/2000/svg" xmlns:xlink="http://www.w3.org/1999/xlink" width="25.3125" height="23.9941">
 <g>
  <rect height="23.9941" opacity="0" width="25.3125" x="0" y="0"/>
  <path d="M24.4434 12.8613Q24.8828 12.6465 25.0977 12.3584Q25.3125 12.0703 25.3125 11.7676Q25.3125 11.4648 25.0977 11.2061Q24.8828 10.9473 24.4434 10.791L19.6875 9.15039L21.7285 4.98047Q21.875 4.6582 21.875 4.35547Q21.875 3.93555 21.5869 3.65234Q21.2988 3.36914 20.8789 3.36914Q20.7324 3.36914 20.5762 3.40332Q20.4199 3.4375 20.2637 3.51562L15.9473 5.625L13.7012 0.810547Q13.5156 0.410156 13.2373 0.205078Q12.959 0 12.6562 0Q12.3633 0 12.0801 0.205078Q11.7969 0.410156 11.6113 0.810547L9.375 5.625L5.04883 3.51562Q4.89258 3.4375 4.73633 3.40332Q4.58008 3.36914 4.43359 3.36914Q4.01367 3.36914 3.72559 3.65234Q3.4375 3.93555 3.4375 4.35547Q3.4375 4.6582 3.59375 4.98047L5.625 9.15039L0.869141 10.791Q0.439453 10.9375 0.219727 11.2061Q0 11.4746 0 11.7773Q0 12.0801 0.214844 12.3633Q0.429688 12.6465 0.869141 12.8613L5.42969 15.0488L2.96875 20.2637Q2.80273 20.6055 2.80273 20.9277Q2.80273 21.3086 3.03223 21.5527Q3.26172 21.7969 3.62305 21.7969Q3.7793 21.7969 3.94531 21.7432Q4.11133 21.6895 4.28711 21.5918L10.1172 18.1445L11.7188 23.0859Q11.8555 23.4961 12.1143 23.7061Q12.373 23.916 12.6562 23.916Q12.9492 23.916 13.2031 23.7061Q13.457 23.4961 13.5938 23.0859L15.2051 18.1445L21.0254 21.5918Q21.2012 21.6895 21.3721 21.7383Q21.543 21.7871 21.6895 21.7871Q22.041 21.7871 22.2803 21.5527Q22.5195 21.3184 22.5195 20.9375Q22.5195 20.625 22.3438 20.2637L19.8828 15.0488ZM23.2227 11.7871L23.2227 11.8555L18.2227 14.043Q18.0859 14.1016 18.0127 14.1943Q17.9395 14.2871 17.9395 14.4043Q17.9395 14.502 18.0078 14.6094L20.5762 19.7949L20.5273 19.8535L14.7754 16.2207Q14.7168 16.1816 14.6484 16.1572Q14.5801 16.1328 14.5215 16.1328Q14.4043 16.1328 14.3164 16.2158Q14.2285 16.2988 14.1895 16.4453L12.6855 21.5039L12.627 21.5039L11.1328 16.4453Q11.084 16.2988 10.9961 16.2158Q10.9082 16.1328 10.791 16.1328Q10.7324 16.1328 10.6689 16.1572Q10.6055 16.1816 10.5371 16.2207L4.79492 19.8535L4.73633 19.7949L7.30469 14.6094Q7.37305 14.502 7.37305 14.4043Q7.37305 14.2871 7.2998 14.1943Q7.22656 14.1016 7.09961 14.043L2.08984 11.8555L2.08984 11.7871L7.28516 10.1855Q7.43164 10.1367 7.50977 10.0488Q7.58789 9.96094 7.58789 9.84375Q7.58789 9.72656 7.51953 9.60938L5.18555 5.15625L5.23438 5.10742L9.72656 7.4707Q9.78516 7.5 9.84375 7.51953Q9.90234 7.53906 9.96094 7.53906Q10.0684 7.53906 10.1562 7.4707Q10.2441 7.40234 10.293 7.27539L12.627 2.05078L12.6855 2.05078L15.0195 7.27539Q15.0684 7.40234 15.1562 7.4707Q15.2441 7.53906 15.3516 7.53906Q15.4102 7.53906 15.4688 7.51953Q15.5273 7.5 15.5957 7.4707L20.0781 5.10742L20.127 5.15625L17.793 9.60938Q17.7246 9.72656 17.7246 9.84375Q17.7246 9.96094 17.8027 10.0488Q17.8809 10.1367 18.0273 10.1855Z" fill="#007aff"/>
 </g>
</svg>
