<?xml version="1.0" encoding="UTF-8"?>
<!--Generator: Apple Native CoreSVG 175-->
<!DOCTYPE svg
PUBLIC "-//W3C//DTD SVG 1.1//EN"
       "http://www.w3.org/Graphics/SVG/1.1/DTD/svg11.dtd">
<svg version="1.1" xmlns="http://www.w3.org/2000/svg" xmlns:xlink="http://www.w3.org/1999/xlink" width="25.1836" height="23.7637">
 <g>
  <rect height="23.7637" opacity="0" width="25.1836" x="0" y="0"/>
  <path d="M24.5758 12.4075Q24.8901 12.2516 25.0368 12.0823Q25.1836 11.913 25.1836 11.7043Q25.1836 11.4957 25.0404 11.3156Q24.8973 11.1356 24.5758 11.0242L19.2535 9.19342L21.5523 4.50089Q21.6679 4.2598 21.6679 4.03595Q21.6679 3.7735 21.4859 3.59283Q21.3039 3.41217 21.0414 3.41217Q20.9328 3.41217 20.8131 3.44147Q20.6934 3.47076 20.5792 3.53485L15.771 5.88089L13.2953 0.570374Q13.1688 0.292206 12.9881 0.146103Q12.8075 0 12.5919 0Q12.3761 0 12.1968 0.146103Q12.0175 0.292206 11.8883 0.570374L9.41528 5.88089L4.60434 3.53485Q4.49295 3.47076 4.37187 3.44147Q4.25079 3.41217 4.14215 3.41217Q3.8797 3.41217 3.69766 3.59283Q3.51562 3.7735 3.51562 4.03595Q3.51562 4.2598 3.63403 4.50089L5.93002 9.19342L0.607758 11.0242Q0.289001 11.1328 0.144501 11.3156Q0 11.4984 0 11.707Q0 11.913 0.146713 12.0823Q0.293427 12.2516 0.607758 12.4075L5.70236 14.8289L2.9863 20.5301Q2.85553 20.8128 2.85553 21.0339Q2.85553 21.2407 2.99576 21.3885Q3.13599 21.5364 3.33984 21.5364Q3.44421 21.5364 3.55606 21.4967Q3.66791 21.4571 3.78479 21.3945L10.2011 17.5949L12.007 23.145Q12.0946 23.3977 12.2437 23.5487Q12.3929 23.6996 12.5919 23.6996Q12.7934 23.6996 12.9412 23.5487Q13.089 23.3977 13.1766 23.145L14.9852 17.5949L21.3988 21.3945Q21.5182 21.4571 21.6288 21.4954Q21.7393 21.5337 21.8437 21.5337Q22.0448 21.5337 22.1878 21.3885Q22.3308 21.2434 22.3308 21.0367Q22.3308 20.8183 22.1973 20.5301L19.4812 14.8289Z" fill="#007aff"/>
 </g>
</svg>
