<?xml version="1.0" encoding="UTF-8"?>
<!--Generator: Apple Native CoreSVG 175-->
<!DOCTYPE svg
PUBLIC "-//W3C//DTD SVG 1.1//EN"
       "http://www.w3.org/Graphics/SVG/1.1/DTD/svg11.dtd">
<svg version="1.1" xmlns="http://www.w3.org/2000/svg" xmlns:xlink="http://www.w3.org/1999/xlink" width="19.9626" height="21.7105">
 <g>
  <rect height="21.7105" opacity="0" width="19.9626" x="0" y="0"/>
  <path d="M2.34695 21.6669L3.43597 21.6669Q3.95477 21.6669 4.30611 21.3133Q4.65744 20.9598 4.65744 20.448L4.65744 18.9183Q5.9227 19.016 7.26349 19.0662Q8.60428 19.1164 9.9707 19.1164Q11.3371 19.1164 12.685 19.0675Q14.0329 19.0187 15.3079 18.9253L15.3079 20.448Q15.3079 20.9598 15.6614 21.3133Q16.0149 21.6669 16.5266 21.6669L17.6157 21.6669Q18.1274 21.6669 18.4788 21.3084Q18.8301 20.95 18.8301 20.448L18.8301 2.1933Q18.8301 1.33743 18.3527 0.898743Q17.8754 0.460052 17.0438 0.364075Q15.4813 0.181274 13.6754 0.0906372Q11.8695 0 9.9707 0Q8.07465 0 6.27365 0.0927734Q4.47266 0.185547 2.92847 0.364075Q2.0871 0.460052 1.6111 0.898743Q1.1351 1.33743 1.1351 2.1933L1.1351 20.448Q1.1351 20.95 1.48514 21.3084Q1.83517 21.6669 2.34695 21.6669ZM3.55942 12.9175Q2.71912 12.8273 2.71912 11.9524L2.71912 2.85858Q2.71912 1.95663 3.59344 1.86752Q4.71451 1.7601 5.79025 1.68686Q6.866 1.61362 7.91779 1.57593Q8.96957 1.53824 10.0135 1.53824Q11.0574 1.53824 12.1022 1.57593Q13.147 1.61362 14.2108 1.68686Q15.2747 1.7601 16.3747 1.86752Q17.2461 1.95663 17.2461 2.85858L17.2461 11.9524Q17.2461 12.8273 16.4059 12.9175Q15.3973 13.0289 14.3301 13.1033Q13.2629 13.1776 12.1594 13.2124Q11.0559 13.2472 9.94827 13.2472Q8.84064 13.2472 7.74628 13.2089Q6.65192 13.1706 5.59807 13.0997Q4.54422 13.0289 3.55942 12.9175ZM4.35471 16.6544Q3.93707 16.6544 3.65662 16.3773Q3.37616 16.1003 3.37616 15.6758Q3.37616 15.2512 3.65662 14.9707Q3.93707 14.6902 4.35471 14.6902Q4.77936 14.6902 5.0563 14.9707Q5.33325 15.2512 5.33325 15.6758Q5.33325 16.1003 5.0563 16.3773Q4.77936 16.6544 4.35471 16.6544ZM7.63794 16.3652Q7.32742 16.3652 7.13387 16.1716Q6.94031 15.9781 6.94031 15.6703Q6.94031 15.3668 7.13387 15.1746Q7.32742 14.9825 7.63794 14.9825L12.2586 14.9825Q12.5664 14.9825 12.7564 15.1746Q12.9465 15.3668 12.9465 15.6703Q12.9465 15.9781 12.7564 16.1716Q12.5664 16.3652 12.2586 16.3652ZM15.6079 16.6544Q15.1833 16.6544 14.9112 16.3773Q14.6391 16.1003 14.6391 15.6758Q14.6391 15.2512 14.9112 14.9707Q15.1833 14.6902 15.6079 14.6902Q16.0352 14.6902 16.3156 14.9707Q16.5961 15.2512 16.5961 15.6758Q16.5961 16.1003 16.3156 16.3773Q16.0352 16.6544 15.6079 16.6544ZM1.46759 8.45856L1.46759 3.48663L0.667572 3.48663Q0.334778 3.48663 0.167389 3.65425Q0 3.82187 0 4.11407L0 7.84103Q0 8.12622 0.167389 8.29239Q0.334778 8.45856 0.667572 8.45856ZM18.502 8.45856L19.295 8.45856Q19.6278 8.45856 19.7952 8.29239Q19.9626 8.12622 19.9626 7.84103L19.9626 4.11407Q19.9626 3.82187 19.7952 3.65425Q19.6278 3.48663 19.295 3.48663L18.502 3.48663Z" fill="#000000"/>
 </g>
</svg>
