<?xml version="1.0" encoding="UTF-8"?>
<!--Generator: Apple Native CoreSVG 175-->
<!DOCTYPE svg
PUBLIC "-//W3C//DTD SVG 1.1//EN"
       "http://www.w3.org/Graphics/SVG/1.1/DTD/svg11.dtd">
<svg version="1.1" xmlns="http://www.w3.org/2000/svg" xmlns:xlink="http://www.w3.org/1999/xlink" width="20.0508" height="21.7621">
 <g>
  <rect height="21.7621" opacity="0" width="20.0508" x="0" y="0"/>
  <path d="M1.1351 16.9664Q1.1351 17.8297 1.63315 18.2782L1.63315 20.4887Q1.63315 20.9976 1.98318 21.3525Q2.33322 21.7075 2.85202 21.7075L3.94104 21.7075Q4.45282 21.7075 4.80415 21.3574Q5.15549 21.0074 5.15549 20.4887L5.15549 19.0009Q6.28632 19.079 7.50763 19.1193Q8.72894 19.1597 10.0113 19.1597Q11.3008 19.1597 12.5256 19.1228Q13.7505 19.086 14.8911 19.0079L14.8911 20.4887Q14.8911 21.0074 15.2446 21.3574Q15.5981 21.7075 16.1098 21.7075L17.1989 21.7075Q17.7106 21.7075 18.0655 21.3525Q18.4204 20.9976 18.4204 20.4887L18.4204 18.2782Q18.9185 17.8297 18.9185 16.9664L18.9185 2.1933Q18.9185 1.33743 18.4376 0.902328Q17.9567 0.467224 17.1223 0.364075Q15.5707 0.181274 13.7547 0.0906372Q11.9388 0 10.0113 0Q8.08121 0 6.27365 0.0941467Q4.46609 0.188293 2.92847 0.364075Q2.0871 0.467224 1.6111 0.902328Q1.1351 1.33743 1.1351 2.1933ZM10.0113 18.4851Q8.02887 18.4851 6.26015 18.4007Q4.49142 18.3163 3.04535 18.1363Q2.37808 18.0582 2.08694 17.7619Q1.79581 17.4657 1.79581 16.8851L1.79581 2.27463Q1.79581 1.70395 2.09442 1.40488Q2.39304 1.1058 3.04535 1.02341Q4.48318 0.850372 6.26625 0.758972Q8.04932 0.667572 10.0113 0.674591Q11.8907 0.68161 13.6737 0.765991Q15.4567 0.850372 16.9984 1.02341Q17.6727 1.10153 17.9618 1.40137Q18.2509 1.7012 18.2509 2.27463L18.2509 16.8851Q18.2509 17.4657 17.9618 17.7654Q17.6727 18.0652 16.9984 18.1363Q15.4485 18.3163 13.6784 18.4007Q11.9083 18.4851 10.0113 18.4851ZM3.63678 12.9433Q5.09766 13.1047 6.70898 13.1889Q8.32031 13.273 9.98886 13.273Q11.6574 13.273 13.2877 13.1924Q14.9181 13.1117 16.4168 12.9433Q17.2476 12.8531 17.2476 11.9945L17.2476 2.95624Q17.2476 2.06635 16.3882 1.98013Q14.7531 1.82663 13.1822 1.74278Q11.6113 1.65894 10.0541 1.66031Q8.49686 1.66168 6.91193 1.74057Q5.327 1.81946 3.66806 1.98013Q2.80594 2.06635 2.80594 2.95624L2.80594 11.9945Q2.80594 12.8531 3.63678 12.9433ZM1.46759 8.50632L1.46759 3.48663L0.667572 3.48663Q0.334778 3.48663 0.167389 3.65425Q0 3.82187 0 4.11407L0 7.88162Q0 8.17383 0.167389 8.34007Q0.334778 8.50632 0.667572 8.50632ZM18.5832 8.50632L19.3832 8.50632Q19.709 8.50632 19.8799 8.34007Q20.0508 8.17383 20.0508 7.88162L20.0508 4.11407Q20.0508 3.82187 19.8799 3.65425Q19.709 3.48663 19.3832 3.48663L18.5832 3.48663ZM4.46335 16.5918Q4.87701 16.5918 5.14847 16.3203Q5.41992 16.0489 5.41992 15.6351Q5.41992 15.2187 5.14847 14.9451Q4.87701 14.6715 4.46335 14.6715Q4.04694 14.6715 3.76976 14.9451Q3.49258 15.2187 3.49258 15.6351Q3.49258 16.0489 3.76976 16.3203Q4.04694 16.5918 4.46335 16.5918ZM7.63794 16.3246L12.3399 16.3246Q12.6477 16.3246 12.8413 16.1311Q13.0348 15.9375 13.0348 15.6297Q13.0348 15.3261 12.8413 15.1339Q12.6477 14.9417 12.3399 14.9417L7.63794 14.9417Q7.32742 14.9417 7.13387 15.1339Q6.94031 15.3261 6.94031 15.6297Q6.94031 15.9375 7.13387 16.1311Q7.32742 16.3246 7.63794 16.3246ZM15.5875 16.5918Q16.0039 16.5918 16.2789 16.3203Q16.554 16.0489 16.554 15.6351Q16.554 15.2187 16.2789 14.9451Q16.0039 14.6715 15.5875 14.6715Q15.1738 14.6715 14.9037 14.9451Q14.6336 15.2187 14.6336 15.6351Q14.6336 16.0489 14.9037 16.3203Q15.1738 16.5918 15.5875 16.5918Z" fill="#007aff"/>
 </g>
</svg>
