<?xml version="1.0" encoding="UTF-8"?>
<!--Generator: Apple Native CoreSVG 175.5-->
<!DOCTYPE svg
PUBLIC "-//W3C//DTD SVG 1.1//EN"
       "http://www.w3.org/Graphics/SVG/1.1/DTD/svg11.dtd">
<svg version="1.1" xmlns="http://www.w3.org/2000/svg" xmlns:xlink="http://www.w3.org/1999/xlink" width="21.7383" height="22.8027">
 <g>
  <rect height="22.8027" opacity="0" width="21.7383" x="0" y="0"/>
  <path d="M1.36719 17.5781Q1.36719 18.4766 1.86523 19.0234L1.86523 21.4941Q1.86523 22.0312 2.23633 22.4072Q2.60742 22.7832 3.1543 22.7832L4.30664 22.7832Q4.85352 22.7832 5.22949 22.4121Q5.60547 22.041 5.60547 21.4941L5.60547 19.9219Q6.80664 20 8.12988 20.0439Q9.45312 20.0879 10.8691 20.0879Q12.2852 20.0879 13.6084 20.0439Q14.9316 20 16.1426 19.9219L16.1426 21.4941Q16.1426 22.041 16.5137 22.4121Q16.8848 22.7832 17.4316 22.7832L18.584 22.7832Q19.1309 22.7832 19.5068 22.4072Q19.8828 22.0312 19.8828 21.4941L19.8828 19.0234Q20.3809 18.4766 20.3809 17.5781L20.3809 2.50977Q20.3809 1.5625 19.8438 1.02539Q19.3066 0.488281 18.3105 0.371094Q16.7871 0.195312 14.834 0.0976562Q12.8809 0 10.8691 0Q8.84766 0 6.89941 0.0976562Q4.95117 0.195312 3.42773 0.371094Q2.43164 0.488281 1.89941 1.02539Q1.36719 1.5625 1.36719 2.50977ZM10.8691 18.8086Q8.71094 18.8086 6.91406 18.7207Q5.11719 18.6328 3.76953 18.4668Q3.14453 18.3887 2.89551 18.0713Q2.64648 17.7539 2.64648 17.1875L2.64648 2.90039Q2.64648 2.34375 2.93457 2.0166Q3.22266 1.68945 3.76953 1.62109Q5.08789 1.45508 6.94824 1.36719Q8.80859 1.2793 10.8691 1.2793Q12.9102 1.2793 14.7705 1.36719Q16.6309 1.45508 17.9688 1.62109Q18.5938 1.69922 18.8477 2.0166Q19.1016 2.33398 19.1016 2.90039L19.1016 17.1875Q19.1016 17.7539 18.8477 18.0713Q18.5938 18.3887 17.9688 18.4668Q16.6016 18.6328 14.7998 18.7207Q12.998 18.8086 10.8691 18.8086ZM4.55078 13.3301Q5.97656 13.5547 7.58789 13.667Q9.19922 13.7793 10.8643 13.7793Q12.5293 13.7793 14.1455 13.667Q15.7617 13.5547 17.1973 13.3301Q18.1055 13.1836 18.1055 12.2266L18.1055 3.82812Q18.1055 2.73438 17.0703 2.62695Q15.625 2.48047 14.0576 2.40723Q12.4902 2.33398 10.8838 2.33887Q9.27734 2.34375 7.70996 2.41211Q6.14258 2.48047 4.6875 2.62695Q3.64258 2.73438 3.64258 3.82812L3.64258 12.2266Q3.64258 13.1836 4.55078 13.3301ZM2.00195 9.33594L2.00195 3.61328L0.927734 3.61328Q0.517578 3.61328 0.258789 3.84766Q0 4.08203 0 4.47266L0 8.48633Q0 8.87695 0.258789 9.10645Q0.517578 9.33594 0.927734 9.33594ZM19.7363 9.33594L20.8105 9.33594Q21.2207 9.33594 21.4795 9.10645Q21.7383 8.87695 21.7383 8.48633L21.7383 4.47266Q21.7383 4.08203 21.4795 3.84766Q21.2207 3.61328 20.8105 3.61328L19.7363 3.61328ZM5.29297 17.2949Q5.79102 17.2949 6.13281 16.9531Q6.47461 16.6113 6.47461 16.1133Q6.47461 15.6055 6.13281 15.2686Q5.79102 14.9316 5.29297 14.9316Q4.78516 14.9316 4.44824 15.2686Q4.11133 15.6055 4.11133 16.1133Q4.11133 16.6113 4.44824 16.9531Q4.78516 17.2949 5.29297 17.2949ZM8.54492 16.9434L13.1836 16.9434Q13.5547 16.9434 13.7939 16.7041Q14.0332 16.4648 14.0332 16.0938Q14.0332 15.7129 13.7939 15.4785Q13.5547 15.2441 13.1836 15.2441L8.54492 15.2441Q8.16406 15.2441 7.9248 15.4785Q7.68555 15.7129 7.68555 16.0938Q7.68555 16.4648 7.9248 16.7041Q8.16406 16.9434 8.54492 16.9434ZM16.4453 17.2949Q16.9531 17.2949 17.2949 16.9531Q17.6367 16.6113 17.6367 16.1133Q17.6367 15.6055 17.2949 15.2686Q16.9531 14.9316 16.4453 14.9316Q15.9473 14.9316 15.6104 15.2686Q15.2734 15.6055 15.2734 16.1133Q15.2734 16.6113 15.6104 16.9531Q15.9473 17.2949 16.4453 17.2949Z" fill="#007aff"/>
 </g>
</svg>
