<?xml version="1.0" encoding="UTF-8"?>
<!--Generator: Apple Native CoreSVG 175.5-->
<!DOCTYPE svg
PUBLIC "-//W3C//DTD SVG 1.1//EN"
       "http://www.w3.org/Graphics/SVG/1.1/DTD/svg11.dtd">
<svg version="1.1" xmlns="http://www.w3.org/2000/svg" xmlns:xlink="http://www.w3.org/1999/xlink" width="20.8008" height="24.4238">
 <g>
  <rect height="24.4238" opacity="0" width="20.8008" x="0" y="0"/>
  <path d="M10.4004 20.8984Q11.5234 20.8984 12.7539 20.8545Q13.9844 20.8105 15.1807 20.7275Q16.377 20.6445 17.373 20.5273Q18.3691 20.4102 18.9014 19.873Q19.4336 19.3359 19.4336 18.3887L19.4336 2.5Q19.4336 1.5625 18.9014 1.02539Q18.3691 0.488281 17.373 0.371094Q16.377 0.253906 15.1807 0.170898Q13.9844 0.0878906 12.7539 0.0439453Q11.5234 0 10.4004 0Q9.27734 0 8.04199 0.0439453Q6.80664 0.0878906 5.61523 0.170898Q4.42383 0.253906 3.42773 0.371094Q2.43164 0.488281 1.89941 1.02539Q1.36719 1.5625 1.36719 2.5L1.36719 18.3887Q1.36719 19.3359 1.89941 19.873Q2.43164 20.4102 3.42773 20.5273Q4.42383 20.6445 5.61523 20.7275Q6.80664 20.8105 8.04199 20.8545Q9.27734 20.8984 10.4004 20.8984ZM10.4004 19.6191Q9.22852 19.6191 8.02246 19.5752Q6.81641 19.5312 5.71777 19.458Q4.61914 19.3848 3.76953 19.2773Q3.14453 19.1992 2.89551 18.8818Q2.64648 18.5645 2.64648 17.998L2.64648 2.89062Q2.64648 2.33398 2.89551 2.0166Q3.14453 1.69922 3.76953 1.62109Q4.61914 1.51367 5.71777 1.43555Q6.81641 1.35742 8.02246 1.31836Q9.22852 1.2793 10.4004 1.2793Q11.5527 1.2793 12.749 1.32324Q13.9453 1.36719 15.0537 1.44043Q16.1621 1.51367 17.0312 1.62109Q17.6465 1.68945 17.9004 2.01172Q18.1543 2.33398 18.1543 2.89062L18.1543 17.998Q18.1543 18.5645 17.9004 18.8818Q17.6465 19.1992 17.0312 19.2773Q16.1621 19.3848 15.0537 19.458Q13.9453 19.5312 12.749 19.5752Q11.5527 19.6191 10.4004 19.6191ZM3.1543 23.5938L4.30664 23.5938Q4.85352 23.5938 5.22949 23.2227Q5.60547 22.8516 5.60547 22.3047L5.60547 20.1953L1.86523 19.6289L1.86523 22.3047Q1.86523 22.8418 2.23633 23.2178Q2.60742 23.5938 3.1543 23.5938ZM16.4941 23.5938L17.6367 23.5938Q18.1934 23.5938 18.5645 23.2178Q18.9355 22.8418 18.9355 22.3047L18.9355 19.6289L15.1953 20.1953L15.1953 22.3047Q15.1953 22.8516 15.5713 23.2227Q15.9473 23.5938 16.4941 23.5938ZM2.00195 11.6504L2.00195 6.61133L0.927734 6.61133Q0.517578 6.61133 0.258789 6.8457Q0 7.08008 0 7.4707L0 10.8008Q0 11.1816 0.258789 11.416Q0.517578 11.6504 0.927734 11.6504ZM18.7988 11.6504L19.873 11.6504Q20.2832 11.6504 20.542 11.416Q20.8008 11.1816 20.8008 10.8008L20.8008 7.4707Q20.8008 7.08008 20.542 6.8457Q20.2832 6.61133 19.873 6.61133L18.7988 6.61133ZM3.65234 7.91992L17.1484 7.91992L17.1484 3.92578Q17.1484 2.82227 16.0156 2.69531Q14.7461 2.55859 13.3154 2.49023Q11.8848 2.42188 10.4004 2.42188Q8.91602 2.42188 7.48535 2.49023Q6.05469 2.55859 4.79492 2.69531Q3.65234 2.83203 3.65234 3.92578ZM3.65234 9.24805L3.65234 13.1348Q3.65234 14.0723 4.56055 14.2285Q5.67383 14.4238 7.19238 14.5215Q8.71094 14.6191 10.3613 14.624Q12.0117 14.6289 13.5498 14.5312Q15.0879 14.4336 16.2402 14.2285Q16.6406 14.1602 16.8945 13.8916Q17.1484 13.623 17.1484 13.1348L17.1484 9.24805ZM5.16602 18.1055Q5.63477 18.1055 5.95215 17.7832Q6.26953 17.4609 6.26953 17.002Q6.26953 16.5332 5.95215 16.2158Q5.63477 15.8984 5.16602 15.8984Q4.69727 15.8984 4.37988 16.2158Q4.0625 16.5332 4.0625 17.002Q4.0625 17.4609 4.37988 17.7832Q4.69727 18.1055 5.16602 18.1055ZM8.50586 17.8125L12.2754 17.8125Q12.627 17.8125 12.8613 17.5781Q13.0957 17.3438 13.0957 16.9922Q13.0957 16.6309 12.8662 16.4014Q12.6367 16.1719 12.2754 16.1719L8.50586 16.1719Q8.14453 16.1719 7.91504 16.4014Q7.68555 16.6309 7.68555 16.9922Q7.68555 17.3438 7.91992 17.5781Q8.1543 17.8125 8.50586 17.8125ZM15.6348 18.1055Q16.0938 18.1055 16.416 17.7832Q16.7383 17.4609 16.7383 17.002Q16.7383 16.5332 16.416 16.2158Q16.0938 15.8984 15.6348 15.8984Q15.166 15.8984 14.8486 16.2158Q14.5312 16.5332 14.5312 17.002Q14.5312 17.4609 14.8486 17.7832Q15.166 18.1055 15.6348 18.1055Z" fill="#007aff"/>
 </g>
</svg>
