<?xml version="1.0" encoding="UTF-8"?>
<!--Generator: Apple Native CoreSVG 175-->
<!DOCTYPE svg
PUBLIC "-//W3C//DTD SVG 1.1//EN"
       "http://www.w3.org/Graphics/SVG/1.1/DTD/svg11.dtd">
<svg version="1.1" xmlns="http://www.w3.org/2000/svg" xmlns:xlink="http://www.w3.org/1999/xlink" width="19.1602" height="19.1504">
 <g>
  <rect height="19.1504" opacity="0" width="19.1602" x="0" y="0"/>
  <path d="M9.57031 19.1406Q11.5527 19.1406 13.2861 18.3984Q15.0195 17.6562 16.3379 16.333Q17.6562 15.0098 18.4082 13.2764Q19.1602 11.543 19.1602 9.57031Q19.1602 7.59766 18.4082 5.86426Q17.6562 4.13086 16.3379 2.80762Q15.0195 1.48438 13.2861 0.742188Q11.5527 0 9.57031 0Q7.59766 0 5.86426 0.742188Q4.13086 1.48438 2.81738 2.80762Q1.50391 4.13086 0.751953 5.86426Q0 7.59766 0 9.57031Q0 11.543 0.74707 13.2764Q1.49414 15.0098 2.8125 16.333Q4.13086 17.6562 5.86914 18.3984Q7.60742 19.1406 9.57031 19.1406Z" fill="#000000"/>
  <path d="M9.6582 14.0625Q8.50586 14.0625 7.63672 13.4961Q6.76758 12.9297 6.2793 11.9189Q5.79102 10.9082 5.79102 9.56055Q5.79102 8.22266 6.2793 7.20703Q6.76758 6.19141 7.63672 5.62012Q8.50586 5.04883 9.6582 5.04883Q10.4883 5.04883 11.1963 5.35645Q11.9043 5.66406 12.3877 6.18652Q12.8711 6.70898 13.0176 7.37305Q13.0371 7.50977 13.0469 7.56348Q13.0566 7.61719 13.0566 7.67578Q13.0566 7.86133 12.9688 7.95898Q12.8809 8.05664 12.7051 8.05664Q12.5781 8.05664 12.4902 7.97852Q12.4023 7.90039 12.3535 7.74414Q12.207 6.83594 11.4648 6.28418Q10.7227 5.73242 9.66797 5.73242Q8.75 5.73242 8.04688 6.2207Q7.34375 6.70898 6.94824 7.57324Q6.55273 8.4375 6.55273 9.56055Q6.55273 10.6934 6.94824 11.5576Q7.34375 12.4219 8.04688 12.9102Q8.75 13.3984 9.66797 13.3984Q10.7227 13.3984 11.46 12.8467Q12.1973 12.2949 12.3535 11.377Q12.4414 11.0645 12.7051 11.0645Q12.8809 11.0645 12.9688 11.1621Q13.0566 11.2598 13.0566 11.4453Q13.0566 11.4941 13.0469 11.5527Q13.0371 11.6113 13.0176 11.748Q12.8809 12.4219 12.4023 12.9443Q11.9238 13.4668 11.2109 13.7646Q10.498 14.0625 9.6582 14.0625Z" fill="#ffffff"/>
 </g>
</svg>
