<?xml version="1.0" encoding="UTF-8"?>
<!--Generator: Apple Native CoreSVG 175-->
<!DOCTYPE svg
PUBLIC "-//W3C//DTD SVG 1.1//EN"
       "http://www.w3.org/Graphics/SVG/1.1/DTD/svg11.dtd">
<svg version="1.1" xmlns="http://www.w3.org/2000/svg" xmlns:xlink="http://www.w3.org/1999/xlink" width="17.2852" height="17.3145">
 <g>
  <rect height="17.3145" opacity="0" width="17.2852" x="0" y="0"/>
  <path d="M2.62695 17.3145L14.6484 17.3145Q15.957 17.3145 16.6211 16.6455Q17.2852 15.9766 17.2852 14.6875L17.2852 2.65625Q17.2852 1.37695 16.6211 0.703125Q15.957 0.0292969 14.6484 0.0292969L2.62695 0.0292969Q1.33789 0.0292969 0.668945 0.693359Q0 1.35742 0 2.65625L0 14.6875Q0 15.9863 0.668945 16.6504Q1.33789 17.3145 2.62695 17.3145Z" fill="#000000"/>
  <path d="M8.7207 13.1445Q7.56836 13.1445 6.69922 12.5781Q5.83008 12.0117 5.3418 11.001Q4.85352 9.99023 4.85352 8.64258Q4.85352 7.30469 5.3418 6.28906Q5.83008 5.27344 6.69922 4.70215Q7.56836 4.13086 8.7207 4.13086Q9.55078 4.13086 10.2588 4.43848Q10.9668 4.74609 11.4502 5.26855Q11.9336 5.79102 12.0801 6.45508Q12.0996 6.5918 12.1094 6.64551Q12.1191 6.69922 12.1191 6.75781Q12.1191 6.94336 12.0312 7.04102Q11.9434 7.13867 11.7676 7.13867Q11.6406 7.13867 11.5527 7.06055Q11.4648 6.98242 11.416 6.82617Q11.2695 5.91797 10.5273 5.36621Q9.78516 4.81445 8.73047 4.81445Q7.8125 4.81445 7.10938 5.30273Q6.40625 5.79102 6.01074 6.65527Q5.61523 7.51953 5.61523 8.64258Q5.61523 9.77539 6.01074 10.6396Q6.40625 11.5039 7.10938 11.9922Q7.8125 12.4805 8.73047 12.4805Q9.78516 12.4805 10.5225 11.9287Q11.2598 11.377 11.416 10.459Q11.5039 10.1465 11.7676 10.1465Q11.9434 10.1465 12.0312 10.2441Q12.1191 10.3418 12.1191 10.5273Q12.1191 10.5762 12.1094 10.6348Q12.0996 10.6934 12.0801 10.8301Q11.9434 11.5039 11.4648 12.0264Q10.9863 12.5488 10.2734 12.8467Q9.56055 13.1445 8.7207 13.1445Z" fill="#ffffff"/>
 </g>
</svg>
