<?xml version="1.0" encoding="UTF-8"?>
<!--Generator: Apple Native CoreSVG 175.5-->
<!DOCTYPE svg
PUBLIC "-//W3C//DTD SVG 1.1//EN"
       "http://www.w3.org/Graphics/SVG/1.1/DTD/svg11.dtd">
<svg version="1.1" xmlns="http://www.w3.org/2000/svg" xmlns:xlink="http://www.w3.org/1999/xlink" width="15.8691" height="22.3926">
 <g>
  <rect height="22.3926" opacity="0" width="15.8691" x="0" y="0"/>
  <path d="M2.25586 20.5762L13.6133 20.5762Q14.6191 20.5762 15.2441 19.9365Q15.8691 19.2969 15.8691 18.2422L15.8691 2.33398Q15.8691 1.2793 15.2441 0.639648Q14.6191 0 13.6133 0L2.25586 0Q1.25 0 0.625 0.639648Q0 1.2793 0 2.33398L0 18.2422Q0 19.2969 0.625 19.9365Q1.25 20.5762 2.25586 20.5762ZM2.33398 19.0039Q1.99219 19.0039 1.78223 18.7939Q1.57227 18.584 1.57227 18.2324L1.57227 2.34375Q1.57227 1.99219 1.78223 1.78223Q1.99219 1.57227 2.33398 1.57227L13.5352 1.57227Q13.877 1.57227 14.0869 1.78223Q14.2969 1.99219 14.2969 2.34375L14.2969 18.2324Q14.2969 18.584 14.0869 18.7939Q13.877 19.0039 13.5352 19.0039ZM7.29492 19.7363L8.57422 19.7363L8.57422 0.810547L7.29492 0.810547ZM5.40039 11.6797Q5.83008 11.6797 6.13281 11.377Q6.43555 11.0742 6.43555 10.6543Q6.43555 10.2246 6.13281 9.92188Q5.83008 9.61914 5.40039 9.61914Q4.98047 9.61914 4.67285 9.92188Q4.36523 10.2246 4.36523 10.6543Q4.36523 11.0742 4.67285 11.377Q4.98047 11.6797 5.40039 11.6797ZM10.459 11.6797Q10.8887 11.6797 11.1914 11.377Q11.4941 11.0742 11.4941 10.6543Q11.4941 10.2246 11.1914 9.92188Q10.8887 9.61914 10.459 9.61914Q10.0391 9.61914 9.73145 9.92188Q9.42383 10.2246 9.42383 10.6543Q9.42383 11.0742 9.73145 11.377Q10.0391 11.6797 10.459 11.6797ZM2.86133 22.3828Q3.22266 22.3828 3.44727 22.1582Q3.67188 21.9336 3.67188 21.5625L3.67188 19.5996L2.05078 19.5996L2.05078 21.5625Q2.05078 21.9336 2.27539 22.1582Q2.5 22.3828 2.86133 22.3828ZM13.0078 22.3828Q13.3691 22.3828 13.5938 22.1582Q13.8184 21.9336 13.8184 21.5625L13.8184 19.5996L12.1973 19.5996L12.1973 21.5625Q12.1973 21.9336 12.4219 22.1582Q12.6465 22.3828 13.0078 22.3828Z" fill="#007aff"/>
 </g>
</svg>
