<?xml version="1.0" encoding="UTF-8"?>
<!--Generator: Apple Native CoreSVG 175-->
<!DOCTYPE svg
PUBLIC "-//W3C//DTD SVG 1.1//EN"
       "http://www.w3.org/Graphics/SVG/1.1/DTD/svg11.dtd">
<svg version="1.1" xmlns="http://www.w3.org/2000/svg" xmlns:xlink="http://www.w3.org/1999/xlink" width="19.1699" height="17.3145">
 <g>
  <rect height="17.3145" opacity="0" width="19.1699" x="0" y="0"/>
  <path d="M2.62695 17.3145L16.543 17.3145Q17.8418 17.3145 18.5059 16.6455Q19.1699 15.9766 19.1699 14.6875L19.1699 2.65625Q19.1699 1.37695 18.5059 0.703125Q17.8418 0.0292969 16.543 0.0292969L2.62695 0.0292969Q1.33789 0.0292969 0.668945 0.693359Q0 1.35742 0 2.65625L0 14.6875Q0 15.9863 0.668945 16.6504Q1.33789 17.3145 2.62695 17.3145ZM2.62695 16.5918Q1.68945 16.5918 1.21094 16.1084Q0.732422 15.625 0.732422 14.6875L0.732422 6.12305Q0.732422 5.17578 1.21094 4.69727Q1.68945 4.21875 2.62695 4.21875L16.543 4.21875Q17.4512 4.21875 17.9492 4.69727Q18.4473 5.17578 18.4473 6.12305L18.4473 14.6875Q18.4473 15.625 17.9492 16.1084Q17.4512 16.5918 16.543 16.5918ZM7.60742 7.63672L8.18359 7.63672Q8.37891 7.63672 8.43262 7.58789Q8.48633 7.53906 8.48633 7.34375L8.48633 6.76758Q8.48633 6.58203 8.43262 6.5332Q8.37891 6.48438 8.18359 6.48438L7.60742 6.48438Q7.41211 6.48438 7.3584 6.5332Q7.30469 6.58203 7.30469 6.76758L7.30469 7.34375Q7.30469 7.53906 7.3584 7.58789Q7.41211 7.63672 7.60742 7.63672ZM11.0059 7.63672L11.582 7.63672Q11.7773 7.63672 11.8311 7.58789Q11.8848 7.53906 11.8848 7.34375L11.8848 6.76758Q11.8848 6.58203 11.8311 6.5332Q11.7773 6.48438 11.582 6.48438L11.0059 6.48438Q10.8105 6.48438 10.7568 6.5332Q10.7031 6.58203 10.7031 6.76758L10.7031 7.34375Q10.7031 7.53906 10.7568 7.58789Q10.8105 7.63672 11.0059 7.63672ZM14.4043 7.63672L14.9805 7.63672Q15.1758 7.63672 15.2295 7.58789Q15.2832 7.53906 15.2832 7.34375L15.2832 6.76758Q15.2832 6.58203 15.2295 6.5332Q15.1758 6.48438 14.9805 6.48438L14.4043 6.48438Q14.209 6.48438 14.1602 6.5332Q14.1113 6.58203 14.1113 6.76758L14.1113 7.34375Q14.1113 7.53906 14.1602 7.58789Q14.209 7.63672 14.4043 7.63672ZM4.20898 10.9863L4.78516 10.9863Q4.98047 10.9863 5.03418 10.9375Q5.08789 10.8887 5.08789 10.6934L5.08789 10.127Q5.08789 9.93164 5.03418 9.88281Q4.98047 9.83398 4.78516 9.83398L4.20898 9.83398Q4.01367 9.83398 3.95996 9.88281Q3.90625 9.93164 3.90625 10.127L3.90625 10.6934Q3.90625 10.8887 3.95996 10.9375Q4.01367 10.9863 4.20898 10.9863ZM7.60742 10.9863L8.18359 10.9863Q8.37891 10.9863 8.43262 10.9375Q8.48633 10.8887 8.48633 10.6934L8.48633 10.127Q8.48633 9.93164 8.43262 9.88281Q8.37891 9.83398 8.18359 9.83398L7.60742 9.83398Q7.41211 9.83398 7.3584 9.88281Q7.30469 9.93164 7.30469 10.127L7.30469 10.6934Q7.30469 10.8887 7.3584 10.9375Q7.41211 10.9863 7.60742 10.9863ZM11.0059 10.9863L11.582 10.9863Q11.7773 10.9863 11.8311 10.9375Q11.8848 10.8887 11.8848 10.6934L11.8848 10.127Q11.8848 9.93164 11.8311 9.88281Q11.7773 9.83398 11.582 9.83398L11.0059 9.83398Q10.8105 9.83398 10.7568 9.88281Q10.7031 9.93164 10.7031 10.127L10.7031 10.6934Q10.7031 10.8887 10.7568 10.9375Q10.8105 10.9863 11.0059 10.9863ZM14.4043 10.9863L14.9805 10.9863Q15.1758 10.9863 15.2295 10.9375Q15.2832 10.8887 15.2832 10.6934L15.2832 10.127Q15.2832 9.93164 15.2295 9.88281Q15.1758 9.83398 14.9805 9.83398L14.4043 9.83398Q14.209 9.83398 14.1602 9.88281Q14.1113 9.93164 14.1113 10.127L14.1113 10.6934Q14.1113 10.8887 14.1602 10.9375Q14.209 10.9863 14.4043 10.9863ZM4.20898 14.3359L4.78516 14.3359Q4.98047 14.3359 5.03418 14.2871Q5.08789 14.2383 5.08789 14.043L5.08789 13.4766Q5.08789 13.2812 5.03418 13.2324Q4.98047 13.1836 4.78516 13.1836L4.20898 13.1836Q4.01367 13.1836 3.95996 13.2324Q3.90625 13.2812 3.90625 13.4766L3.90625 14.043Q3.90625 14.2383 3.95996 14.2871Q4.01367 14.3359 4.20898 14.3359ZM7.60742 14.3359L8.18359 14.3359Q8.37891 14.3359 8.43262 14.2871Q8.48633 14.2383 8.48633 14.043L8.48633 13.4766Q8.48633 13.2812 8.43262 13.2324Q8.37891 13.1836 8.18359 13.1836L7.60742 13.1836Q7.41211 13.1836 7.3584 13.2324Q7.30469 13.2812 7.30469 13.4766L7.30469 14.043Q7.30469 14.2383 7.3584 14.2871Q7.41211 14.3359 7.60742 14.3359ZM11.0059 14.3359L11.582 14.3359Q11.7773 14.3359 11.8311 14.2871Q11.8848 14.2383 11.8848 14.043L11.8848 13.4766Q11.8848 13.2812 11.8311 13.2324Q11.7773 13.1836 11.582 13.1836L11.0059 13.1836Q10.8105 13.1836 10.7568 13.2324Q10.7031 13.2812 10.7031 13.4766L10.7031 14.043Q10.7031 14.2383 10.7568 14.2871Q10.8105 14.3359 11.0059 14.3359Z" fill="#ff453a"/>
 </g>
</svg>
