<?xml version="1.0" encoding="UTF-8"?>
<!--Generator: Apple Native CoreSVG 175-->
<!DOCTYPE svg
PUBLIC "-//W3C//DTD SVG 1.1//EN"
       "http://www.w3.org/Graphics/SVG/1.1/DTD/svg11.dtd">
<svg version="1.1" xmlns="http://www.w3.org/2000/svg" xmlns:xlink="http://www.w3.org/1999/xlink" width="22.6617" height="17.3035">
 <g>
  <rect height="17.3035" opacity="0" width="22.6617" x="0" y="0"/>
  <path d="M2.79648 1.60233Q2.20398 1.60233 1.89964 1.90582Q1.59531 2.20932 1.59531 2.81174L1.59531 8.21045L6.89774 8.21045Q6.99219 7.16995 7.5473 6.30531Q8.10242 5.44067 8.97682 4.88556Q9.85123 4.33044 10.9087 4.2218L10.9087 1.60233ZM19.8582 1.60233L11.7824 1.60233L11.7824 4.2218Q12.8203 4.33044 13.6898 4.88556Q14.5593 5.44067 15.1109 6.30531Q15.6625 7.16995 15.764 8.21045L21.062 8.21045L21.062 2.81174Q21.062 2.20932 20.7599 1.90582Q20.4578 1.60233 19.8582 1.60233ZM2.79648 15.6969L10.9087 15.6969L10.9087 13.0772Q9.85123 12.966 8.97682 12.4123Q8.10242 11.8585 7.5473 10.9904Q6.99219 10.1222 6.89774 9.08157L1.59531 9.08157L1.59531 14.4875Q1.59531 15.0897 1.89964 15.3933Q2.20398 15.6969 2.79648 15.6969ZM19.8582 15.6969Q20.4578 15.6969 20.7599 15.3933Q21.062 15.0897 21.062 14.4875L21.062 9.08157L15.764 9.08157Q15.6625 10.1222 15.1109 10.9904Q14.5593 11.8585 13.6898 12.4123Q12.8203 12.966 11.7824 13.0772L11.7824 15.6969ZM11.3406 11.7914Q12.1938 11.7914 12.9045 11.3648Q13.6153 10.9383 14.0405 10.224Q14.4656 9.50974 14.4656 8.64685Q14.4656 7.79373 14.0405 7.08435Q13.6153 6.37497 12.9045 5.94978Q12.1938 5.5246 11.3406 5.5246Q10.4805 5.5246 9.76486 5.94978Q9.04922 6.37497 8.62404 7.08435Q8.19885 7.79373 8.19885 8.64685Q8.19885 9.50974 8.62404 10.224Q9.04922 10.9383 9.76486 11.3648Q10.4805 11.7914 11.3406 11.7914ZM2.63046 17.2894L10.9087 17.2894L10.9087 16.568L2.65701 16.568Q1.7067 16.568 1.21765 16.0767Q0.728607 15.5855 0.728607 14.6269L0.728607 9.08157L0 9.08157L0 14.6655Q0 15.9586 0.668182 16.624Q1.33636 17.2894 2.63046 17.2894ZM11.7824 17.2894L20.0243 17.2894Q21.3281 17.2894 21.9949 16.617Q22.6617 15.9445 22.6617 14.6655L22.6617 9.08157L21.9331 9.08157L21.9331 14.6269Q21.9331 15.5855 21.4287 16.0767Q20.9242 16.568 20.0047 16.568L11.7824 16.568ZM21.9331 8.21045L22.6617 8.21045L22.6617 2.6265Q22.6617 1.35468 21.9949 0.677338Q21.3281 0 20.0243 0L11.7824 0L11.7824 0.728455L20.0047 0.728455Q20.9242 0.728455 21.4287 1.21758Q21.9331 1.7067 21.9331 2.66525ZM0 8.21045L0.728607 8.21045L0.728607 2.66525Q0.728607 1.7067 1.21765 1.21758Q1.7067 0.728455 2.65701 0.728455L10.9087 0.728455L10.9087 0L2.63046 0Q1.33636 0 0.668182 0.668945Q0 1.33789 0 2.6265Z" fill="#007aff"/>
 </g>
</svg>
