<?xml version="1.0" encoding="UTF-8"?>
<!--Generator: Apple Native CoreSVG 175-->
<!DOCTYPE svg
PUBLIC "-//W3C//DTD SVG 1.1//EN"
       "http://www.w3.org/Graphics/SVG/1.1/DTD/svg11.dtd">
<svg version="1.1" xmlns="http://www.w3.org/2000/svg" xmlns:xlink="http://www.w3.org/1999/xlink" width="24.3184" height="19.0302">
 <g>
  <rect height="19.0302" opacity="0" width="24.3184" x="0" y="0"/>
  <path d="M0 12.4937Q0 13.7895 0.668182 14.455Q1.33636 15.1204 2.63046 15.1204L3.90305 15.1204L3.90305 7.7005Q3.90305 6.59775 4.32007 5.81451Q4.73709 5.03128 5.52307 4.617Q6.30905 4.20273 7.41455 4.20273L8.79654 4.20273Q9.00238 4.20273 9.11156 4.18594Q9.22073 4.16916 9.3412 4.07249Q9.46167 3.97583 9.70428 3.74023L10.3343 3.12149Q10.8781 2.57935 11.4418 2.35588Q12.0055 2.13242 12.7864 2.13242L16.3188 2.13242Q17.1024 2.13242 17.6666 2.35725Q18.2309 2.58209 18.772 3.12973L19.3449 3.69965Q19.4035 3.75122 19.453 3.80203Q19.5024 3.85284 19.5415 3.88641L19.5415 2.66022Q19.5415 1.38824 18.8733 0.710907Q18.2051 0.0335693 16.9138 0.0335693L2.63046 0.0335693Q1.33636 0.0335693 0.668182 0.702515Q0 1.37146 0 2.66022ZM7.41455 19.0302L21.6907 19.0302Q22.9848 19.0302 23.6516 18.3612Q24.3184 17.6923 24.3184 16.4035L24.3184 7.7005Q24.3184 6.40472 23.6516 5.74066Q22.9848 5.0766 21.6907 5.0766L20.2989 5.0766Q19.7028 5.0766 19.4405 4.91432Q19.1782 4.75204 18.7883 4.375L18.1485 3.73993Q17.7394 3.33679 17.3439 3.17154Q16.9484 3.00629 16.3188 3.00629L12.7864 3.00629Q12.1539 3.00629 11.7598 3.17154Q11.3657 3.33679 10.947 3.73993L10.3032 4.375Q9.91058 4.75082 9.65157 4.91371Q9.39255 5.0766 8.79654 5.0766L7.41455 5.0766Q6.11328 5.0766 5.4451 5.74066Q4.77692 6.40472 4.77692 7.7005L4.77692 16.4035Q4.77692 17.6923 5.4451 18.3612Q6.11328 19.0302 7.41455 19.0302ZM14.5505 16.5895Q13.2066 16.5895 12.1043 15.9323Q11.002 15.2751 10.3497 14.1692Q9.69727 13.0634 9.69727 11.7125Q9.69727 10.3645 10.3497 9.25865Q11.002 8.15277 12.1043 7.49557Q13.2066 6.83838 14.5505 6.83838Q15.8942 6.83838 16.9952 7.49557Q18.0962 8.15277 18.7498 9.25865Q19.4035 10.3645 19.4035 11.7125Q19.4035 13.0634 18.7498 14.1692Q18.0962 15.2751 16.9952 15.9323Q15.8942 16.5895 14.5505 16.5895ZM14.5505 15.8688Q15.6921 15.8688 16.632 15.3063Q17.5719 14.7438 18.126 13.8039Q18.6801 12.8641 18.6801 11.7125Q18.6801 10.5708 18.126 9.62746Q17.5719 8.68408 16.632 8.12294Q15.6921 7.5618 14.5505 7.5618Q13.4087 7.5618 12.4723 8.12294Q11.5359 8.68408 10.977 9.62746Q10.4181 10.5708 10.4181 11.7125Q10.4181 12.8641 10.977 13.8039Q11.5359 14.7438 12.4723 15.3063Q13.4087 15.8688 14.5505 15.8688ZM20.7645 9.16412Q20.3716 9.16412 20.0985 8.89244Q19.8254 8.62076 19.8254 8.2251Q19.8254 7.83646 20.0985 7.55989Q20.3716 7.28333 20.7645 7.28333Q21.1531 7.28333 21.4297 7.55989Q21.7062 7.83646 21.7062 8.2251Q21.7062 8.62076 21.4297 8.89244Q21.1531 9.16412 20.7645 9.16412Z" fill="#000000"/>
 </g>
</svg>
