<?xml version="1.0" encoding="UTF-8"?>
<!--Generator: Apple Native CoreSVG 175.5-->
<!DOCTYPE svg
PUBLIC "-//W3C//DTD SVG 1.1//EN"
       "http://www.w3.org/Graphics/SVG/1.1/DTD/svg11.dtd">
<svg version="1.1" xmlns="http://www.w3.org/2000/svg" xmlns:xlink="http://www.w3.org/1999/xlink" width="23.9844" height="19.248">
 <g>
  <rect height="19.248" opacity="0" width="23.9844" x="0" y="0"/>
  <path d="M3.06641 18.623L20.918 18.623Q22.4414 18.623 23.2129 17.8662Q23.9844 17.1094 23.9844 15.5957L23.9844 5.37109Q23.9844 3.86719 23.2129 3.11035Q22.4414 2.35352 20.918 2.35352L18.125 2.35352Q17.7344 2.35352 17.5 2.29492Q17.2656 2.23633 17.085 2.09473Q16.9043 1.95312 16.6797 1.70898L15.8984 0.830078Q15.5371 0.429688 15.0977 0.214844Q14.6582 0 13.9062 0L10.0098 0Q9.25781 0 8.82324 0.214844Q8.38867 0.429688 8.01758 0.830078L7.23633 1.70898Q6.91406 2.07031 6.64062 2.21191Q6.36719 2.35352 5.79102 2.35352L3.06641 2.35352Q1.5332 2.35352 0.766602 3.11035Q0 3.86719 0 5.37109L0 15.5957Q0 17.1094 0.766602 17.8662Q1.5332 18.623 3.06641 18.623ZM3.08594 17.0508Q2.36328 17.0508 1.96777 16.665Q1.57227 16.2793 1.57227 15.5176L1.57227 5.45898Q1.57227 4.69727 1.96777 4.31152Q2.36328 3.92578 3.08594 3.92578L6.18164 3.92578Q6.8457 3.92578 7.25098 3.77441Q7.65625 3.62305 8.02734 3.21289L8.78906 2.35352Q9.20898 1.88477 9.53125 1.72852Q9.85352 1.57227 10.498 1.57227L13.418 1.57227Q14.0625 1.57227 14.3848 1.72852Q14.707 1.88477 15.127 2.35352L15.8887 3.21289Q16.2598 3.62305 16.665 3.77441Q17.0703 3.92578 17.7344 3.92578L20.8887 3.92578Q21.6113 3.92578 22.0117 4.31152Q22.4121 4.69727 22.4121 5.45898L22.4121 15.5176Q22.4121 16.2793 22.0117 16.665Q21.6113 17.0508 20.8887 17.0508ZM11.9922 15.6445Q13.0957 15.6445 14.0625 15.2344Q15.0293 14.8242 15.7617 14.0918Q16.4941 13.3594 16.9043 12.3926Q17.3145 11.4258 17.3145 10.3027Q17.3145 8.81836 16.6016 7.60742Q15.8887 6.39648 14.6777 5.68359Q13.4668 4.9707 11.9922 4.9707Q10.8789 4.9707 9.91211 5.38086Q8.94531 5.79102 8.21777 6.52344Q7.49023 7.25586 7.0752 8.22266Q6.66016 9.18945 6.66016 10.3027Q6.66016 11.4258 7.0752 12.3926Q7.49023 13.3594 8.21777 14.0918Q8.94531 14.8242 9.91211 15.2344Q10.8789 15.6445 11.9922 15.6445ZM11.9922 14.1602Q10.9277 14.1602 10.0537 13.6426Q9.17969 13.125 8.65723 12.251Q8.13477 11.377 8.13477 10.3027Q8.13477 9.23828 8.65723 8.36426Q9.17969 7.49023 10.0537 6.96777Q10.9277 6.44531 11.9922 6.44531Q13.0566 6.44531 13.9307 6.96777Q14.8047 7.49023 15.3223 8.36426Q15.8398 9.23828 15.8398 10.3027Q15.8398 11.377 15.3223 12.251Q14.8047 13.125 13.9307 13.6426Q13.0566 14.1602 11.9922 14.1602ZM17.7148 6.70898Q17.7148 7.22656 18.0762 7.57324Q18.4375 7.91992 18.9453 7.91992Q19.4336 7.91992 19.7949 7.56836Q20.1562 7.2168 20.1562 6.70898Q20.1562 6.2207 19.7949 5.85938Q19.4336 5.49805 18.9453 5.49805Q18.4375 5.49805 18.0762 5.85938Q17.7148 6.2207 17.7148 6.70898Z" fill="#007aff"/>
 </g>
</svg>
