<?xml version="1.0" encoding="UTF-8"?>
<!--Generator: Apple Native CoreSVG 175.5-->
<!DOCTYPE svg
PUBLIC "-//W3C//DTD SVG 1.1//EN"
       "http://www.w3.org/Graphics/SVG/1.1/DTD/svg11.dtd">
<svg version="1.1" xmlns="http://www.w3.org/2000/svg" xmlns:xlink="http://www.w3.org/1999/xlink" width="21.5332" height="20.5176">
 <g>
  <rect height="20.5176" opacity="0" width="21.5332" x="0" y="0"/>
  <path d="M6.875 20.5176Q8.30078 20.5176 9.5459 19.9805Q10.791 19.4434 11.7383 18.501Q12.6855 17.5586 13.2178 16.3086Q13.75 15.0586 13.75 13.6328Q13.75 12.2168 13.2129 10.9717Q12.6758 9.72656 11.7334 8.78418Q10.791 7.8418 9.5459 7.30469Q8.30078 6.76758 6.875 6.76758Q5.45898 6.76758 4.20898 7.30469Q2.95898 7.8418 2.0166 8.78418Q1.07422 9.72656 0.537109 10.9717Q0 12.2168 0 13.6328Q0 15.0586 0.537109 16.3086Q1.07422 17.5586 2.0166 18.501Q2.95898 19.4434 4.20898 19.9805Q5.45898 20.5176 6.875 20.5176ZM6.875 18.9551Q5.78125 18.9551 4.81445 18.54Q3.84766 18.125 3.11523 17.3975Q2.38281 16.6699 1.97266 15.7031Q1.5625 14.7363 1.5625 13.6328Q1.5625 12.5391 1.97266 11.5771Q2.38281 10.6152 3.11523 9.8877Q3.84766 9.16016 4.81445 8.74512Q5.78125 8.33008 6.875 8.33008Q7.97852 8.33008 8.94043 8.74512Q9.90234 9.16016 10.6299 9.8877Q11.3574 10.6152 11.7725 11.5771Q12.1875 12.5391 12.1875 13.6328Q12.1875 14.7363 11.7725 15.7031Q11.3574 16.6699 10.6299 17.3975Q9.90234 18.125 8.94043 18.54Q7.97852 18.9551 6.875 18.9551Z" fill="#007aff"/>
  <path d="M14.668 20.5176Q16.084 20.5176 17.3291 19.9805Q18.5742 19.4434 19.5215 18.501Q20.4688 17.5586 21.001 16.3086Q21.5332 15.0586 21.5332 13.6328Q21.5332 12.2168 21.001 10.9717Q20.4688 9.72656 19.5215 8.78418Q18.5742 7.8418 17.3291 7.30469Q16.084 6.76758 14.668 6.76758Q13.2422 6.76758 11.9922 7.30469Q10.7422 7.8418 9.7998 8.78418Q8.85742 9.72656 8.32031 10.9717Q7.7832 12.2168 7.7832 13.6328Q7.7832 15.0586 8.32031 16.3086Q8.85742 17.5586 9.7998 18.501Q10.7422 19.4434 11.9922 19.9805Q13.2422 20.5176 14.668 20.5176ZM14.668 18.9551Q13.5645 18.9551 12.5977 18.54Q11.6309 18.125 10.9033 17.3975Q10.1758 16.6699 9.76074 15.7031Q9.3457 14.7363 9.3457 13.6328Q9.3457 12.5391 9.76074 11.5771Q10.1758 10.6152 10.9033 9.8877Q11.6309 9.16016 12.5977 8.74512Q13.5645 8.33008 14.668 8.33008Q15.7617 8.33008 16.7236 8.74512Q17.6855 9.16016 18.4131 9.8877Q19.1406 10.6152 19.5557 11.5771Q19.9707 12.5391 19.9707 13.6328Q19.9707 14.7363 19.5605 15.7031Q19.1504 16.6699 18.4229 17.3975Q17.6953 18.125 16.7285 18.54Q15.7617 18.9551 14.668 18.9551Z" fill="#007aff"/>
  <path d="M10.7715 13.8086Q12.1875 13.8086 13.4326 13.2764Q14.6777 12.7441 15.625 11.7969Q16.5723 10.8496 17.1045 9.60449Q17.6367 8.35938 17.6367 6.93359Q17.6367 5.50781 17.1045 4.26758Q16.5723 3.02734 15.625 2.08008Q14.6777 1.13281 13.4326 0.595703Q12.1875 0.0585938 10.7715 0.0585938Q9.3457 0.0585938 8.10059 0.595703Q6.85547 1.13281 5.9082 2.08008Q4.96094 3.02734 4.42383 4.26758Q3.88672 5.50781 3.88672 6.93359Q3.88672 8.35938 4.42383 9.60449Q4.96094 10.8496 5.9082 11.7969Q6.85547 12.7441 8.10059 13.2764Q9.3457 13.8086 10.7715 13.8086ZM10.7715 12.2461Q9.66797 12.2461 8.70117 11.8359Q7.73438 11.4258 7.00684 10.6934Q6.2793 9.96094 5.86426 8.99902Q5.44922 8.03711 5.44922 6.93359Q5.44922 5.83008 5.86426 4.87305Q6.2793 3.91602 7.00684 3.18359Q7.73438 2.45117 8.70117 2.03613Q9.66797 1.62109 10.7715 1.62109Q11.8652 1.62109 12.8271 2.03613Q13.7891 2.45117 14.5215 3.17871Q15.2539 3.90625 15.6641 4.86816Q16.0742 5.83008 16.0742 6.93359Q16.0742 8.03711 15.6641 8.99902Q15.2539 9.96094 14.5215 10.6934Q13.7891 11.4258 12.8271 11.8359Q11.8652 12.2461 10.7715 12.2461Z" fill="#007aff"/>
 </g>
</svg>
