<?xml version="1.0" encoding="UTF-8"?>
<!--Generator: Apple Native CoreSVG 175.5-->
<!DOCTYPE svg
PUBLIC "-//W3C//DTD SVG 1.1//EN"
       "http://www.w3.org/Graphics/SVG/1.1/DTD/svg11.dtd">
<svg version="1.1" xmlns="http://www.w3.org/2000/svg" xmlns:xlink="http://www.w3.org/1999/xlink" width="23.0273" height="17.9785">
 <g>
  <rect height="17.9785" opacity="0" width="23.0273" x="0" y="0"/>
  <path d="M3.06641 17.9785L10.8594 17.9785L10.8594 16.4062L3.08594 16.4062Q2.35352 16.4062 1.96289 16.0205Q1.57227 15.6348 1.57227 14.873L1.57227 9.6582L0 9.6582L0 14.9609Q0 16.4648 0.766602 17.2217Q1.5332 17.9785 3.06641 17.9785ZM12.1973 17.9785L19.9609 17.9785Q21.5039 17.9785 22.2656 17.2217Q23.0273 16.4648 23.0273 14.9609L23.0273 9.6582L21.4551 9.6582L21.4551 14.873Q21.4551 15.6348 21.0596 16.0205Q20.6641 16.4062 19.9414 16.4062L12.1973 16.4062ZM21.4551 8.33008L23.0273 8.33008L23.0273 3.02734Q23.0273 1.52344 22.2656 0.761719Q21.5039 0 19.9609 0L12.1973 0L12.1973 1.57227L19.9414 1.57227Q20.6641 1.57227 21.0596 1.96289Q21.4551 2.35352 21.4551 3.11523ZM0 8.33008L1.57227 8.33008L1.57227 3.11523Q1.57227 2.35352 1.96289 1.96289Q2.35352 1.57227 3.08594 1.57227L10.8594 1.57227L10.8594 0L3.06641 0Q1.5332 0 0.766602 0.756836Q0 1.51367 0 3.02734Z" fill="#007aff"/>
  <path d="M11.3477 11.0059Q11.709 11.0059 11.9189 10.8008Q12.1289 10.5957 12.1289 10.3125Q12.1289 10.2832 12.1289 10.249Q12.1289 10.2148 12.1289 10.1953Q12.1289 9.78516 12.373 9.4873Q12.6172 9.18945 13.1348 8.84766Q13.8379 8.37891 14.2969 7.87109Q14.7559 7.36328 14.7559 6.48438Q14.7559 5.67383 14.3213 5.11719Q13.8867 4.56055 13.1836 4.27246Q12.4805 3.98438 11.6504 3.98438Q10.3906 3.98438 9.59473 4.49707Q8.79883 5.00977 8.59375 5.68359Q8.55469 5.80078 8.53516 5.91797Q8.51562 6.03516 8.51562 6.16211Q8.51562 6.49414 8.73047 6.66504Q8.94531 6.83594 9.18945 6.83594Q9.43359 6.83594 9.60449 6.72852Q9.77539 6.62109 9.90234 6.44531L10.0781 6.21094Q10.2539 5.92773 10.4785 5.72754Q10.7031 5.52734 10.9814 5.41992Q11.2598 5.3125 11.582 5.3125Q12.2559 5.3125 12.6562 5.65918Q13.0566 6.00586 13.0566 6.5625Q13.0566 7.06055 12.7441 7.37793Q12.4316 7.69531 11.7871 8.14453Q11.2598 8.50586 10.9131 8.94531Q10.5664 9.38477 10.5664 10.1074Q10.5664 10.1367 10.5664 10.1709Q10.5664 10.2051 10.5664 10.2344Q10.5664 11.0059 11.3477 11.0059ZM11.3184 13.916Q11.748 13.916 12.0605 13.623Q12.373 13.3301 12.373 12.9004Q12.373 12.4707 12.0605 12.1777Q11.748 11.8848 11.3184 11.8848Q10.8887 11.8848 10.5811 12.1826Q10.2734 12.4805 10.2734 12.9004Q10.2734 13.3203 10.5859 13.6182Q10.8984 13.916 11.3184 13.916Z" fill="#007aff"/>
 </g>
</svg>
