<?xml version="1.0" encoding="UTF-8"?>
<!--Generator: Apple Native CoreSVG 175-->
<!DOCTYPE svg
PUBLIC "-//W3C//DTD SVG 1.1//EN"
       "http://www.w3.org/Graphics/SVG/1.1/DTD/svg11.dtd">
<svg version="1.1" xmlns="http://www.w3.org/2000/svg" xmlns:xlink="http://www.w3.org/1999/xlink" width="19.1602" height="19.1504">
 <g>
  <rect height="19.1504" opacity="0" width="19.1602" x="0" y="0"/>
  <path d="M9.57031 19.1406Q11.5527 19.1406 13.2861 18.3984Q15.0195 17.6562 16.3379 16.333Q17.6562 15.0098 18.4082 13.2764Q19.1602 11.543 19.1602 9.57031Q19.1602 7.59766 18.4082 5.86426Q17.6562 4.13086 16.3379 2.80762Q15.0195 1.48438 13.2861 0.742188Q11.5527 0 9.57031 0Q7.59766 0 5.86426 0.742188Q4.13086 1.48438 2.81738 2.80762Q1.50391 4.13086 0.751953 5.86426Q0 7.59766 0 9.57031Q0 11.543 0.74707 13.2764Q1.49414 15.0098 2.8125 16.333Q4.13086 17.6562 5.86914 18.3984Q7.60742 19.1406 9.57031 19.1406ZM9.57031 18.3984Q7.74414 18.3984 6.14746 17.71Q4.55078 17.0215 3.33496 15.8105Q2.11914 14.5996 1.43555 12.998Q0.751953 11.3965 0.751953 9.57031Q0.751953 7.74414 1.43555 6.14258Q2.11914 4.54102 3.33496 3.3252Q4.55078 2.10938 6.14746 1.4209Q7.74414 0.732422 9.57031 0.732422Q11.4062 0.732422 13.0029 1.4209Q14.5996 2.10938 15.8154 3.3252Q17.0312 4.54102 17.7197 6.14258Q18.4082 7.74414 18.4082 9.57031Q18.4082 11.3965 17.7246 12.998Q17.041 14.5996 15.8252 15.8105Q14.6094 17.0215 13.0078 17.71Q11.4062 18.3984 9.57031 18.3984ZM5.01953 13.9453L14.1406 13.9453Q14.8047 13.9453 15.1514 13.6035Q15.498 13.2617 15.498 12.5879L15.498 7.28516Q15.498 6.61133 15.1514 6.26465Q14.8047 5.91797 14.1406 5.91797L12.6465 5.91797Q12.334 5.91797 12.1973 5.86426Q12.0605 5.81055 11.8652 5.58594L11.416 5.10742Q11.2109 4.88281 11.0205 4.7998Q10.8301 4.7168 10.4688 4.7168L8.55469 4.7168Q8.19336 4.7168 7.99805 4.7998Q7.80273 4.88281 7.59766 5.10742L7.16797 5.58594Q6.97266 5.80078 6.83105 5.85938Q6.68945 5.91797 6.37695 5.91797L5.01953 5.91797Q4.3457 5.91797 3.99902 6.26465Q3.65234 6.61133 3.65234 7.28516L3.65234 12.5879Q3.65234 13.2617 3.99902 13.6035Q4.3457 13.9453 5.01953 13.9453ZM9.58984 12.8125Q8.76953 12.8125 8.10059 12.417Q7.43164 12.0215 7.03613 11.3574Q6.64062 10.6934 6.64062 9.86328Q6.64062 9.05273 7.03613 8.38867Q7.43164 7.72461 8.10059 7.3291Q8.76953 6.93359 9.58984 6.93359Q10.4004 6.93359 11.0596 7.3291Q11.7188 7.72461 12.1143 8.38867Q12.5098 9.05273 12.5098 9.86328Q12.5098 10.6934 12.1143 11.3574Q11.7188 12.0215 11.0596 12.417Q10.4004 12.8125 9.58984 12.8125ZM9.58008 12.3047Q10.2539 12.3047 10.8008 11.9775Q11.3477 11.6504 11.6699 11.0986Q11.9922 10.5469 11.9922 9.86328Q11.9922 9.19922 11.6699 8.64258Q11.3477 8.08594 10.8008 7.75879Q10.2539 7.43164 9.58008 7.43164Q8.90625 7.43164 8.35449 7.75879Q7.80273 8.08594 7.48047 8.64258Q7.1582 9.19922 7.1582 9.86328Q7.1582 10.5469 7.48047 11.0986Q7.80273 11.6504 8.35449 11.9775Q8.90625 12.3047 9.58008 12.3047ZM13.4961 8.45703Q13.2812 8.45703 13.1299 8.30566Q12.9785 8.1543 12.9785 7.92969Q12.9785 7.71484 13.1299 7.56348Q13.2812 7.41211 13.4961 7.41211Q13.7109 7.41211 13.8525 7.56348Q13.9941 7.71484 14.0039 7.92969Q14.0137 8.1543 13.8623 8.30566Q13.7109 8.45703 13.4961 8.45703Z" fill="#007aff"/>
 </g>
</svg>
