<?xml version="1.0" encoding="UTF-8"?>
<!--Generator: Apple Native CoreSVG 175-->
<!DOCTYPE svg
PUBLIC "-//W3C//DTD SVG 1.1//EN"
       "http://www.w3.org/Graphics/SVG/1.1/DTD/svg11.dtd">
<svg version="1.1" xmlns="http://www.w3.org/2000/svg" xmlns:xlink="http://www.w3.org/1999/xlink" width="24.3184" height="19.0302">
 <g>
  <rect height="19.0302" opacity="0" width="24.3184" x="0" y="0"/>
  <path d="M2.63046 15.1204L5.01801 15.1204L5.01801 14.3988L2.65701 14.3988Q1.7067 14.3988 1.21765 13.9062Q0.728607 13.4137 0.728607 12.4551L0.728607 2.69882Q0.728607 1.74026 1.21765 1.25122Q1.7067 0.762177 2.65701 0.762177L16.8845 0.762177Q17.804 0.762177 18.3119 1.25122Q18.8199 1.74026 18.8199 2.69882L18.8199 4.89929L19.5415 4.89929L19.5415 2.66022Q19.5415 1.38824 18.8733 0.710907Q18.2051 0.0335693 16.9138 0.0335693L2.63046 0.0335693Q1.33636 0.0335693 0.668182 0.702515Q0 1.37146 0 2.66022L0 12.4937Q0 13.7895 0.668182 14.455Q1.33636 15.1204 2.63046 15.1204ZM7.41455 19.0302L21.6907 19.0302Q22.9848 19.0302 23.6516 18.3612Q24.3184 17.6923 24.3184 16.4035L24.3184 7.55829Q24.3184 6.26251 23.6516 5.59845Q22.9848 4.93439 21.6907 4.93439L20.3395 4.93439Q19.7433 4.93439 19.481 4.77211Q19.2188 4.60983 18.8289 4.22577L18.1891 3.59772Q17.7802 3.19458 17.3846 3.02383Q16.9891 2.85309 16.3594 2.85309L12.7386 2.85309Q12.1133 2.85309 11.7178 3.02383Q11.3223 3.19458 10.9062 3.59772L10.2692 4.22577Q9.87656 4.60983 9.61426 4.77211Q9.35196 4.93439 8.75595 4.93439L7.41455 4.93439Q6.11328 4.93439 5.4451 5.59845Q4.77692 6.26251 4.77692 7.55829L4.77692 16.4035Q4.77692 17.6923 5.4451 18.3612Q6.11328 19.0302 7.41455 19.0302ZM7.43408 18.3015Q6.48361 18.3015 5.99457 17.8125Q5.50552 17.3235 5.50552 16.3649L5.50552 7.59689Q5.50552 6.63834 5.99457 6.14716Q6.48361 5.65598 7.43408 5.65598L8.83438 5.65598Q9.50439 5.65598 9.8764 5.47157Q10.2484 5.28717 10.6688 4.87976L11.3329 4.21219Q11.6937 3.86261 12.0026 3.72215Q12.3114 3.5817 12.8102 3.5817L16.2852 3.5817Q16.7841 3.5817 17.0928 3.72215Q17.4016 3.86261 17.7625 4.21219L18.4363 4.87976Q18.8496 5.28717 19.2252 5.47157Q19.6008 5.65598 20.2609 5.65598L21.6614 5.65598Q22.6117 5.65598 23.1043 6.14716Q23.597 6.63834 23.597 7.59689L23.597 16.3649Q23.597 17.3235 23.1043 17.8125Q22.6117 18.3015 21.6614 18.3015ZM14.5505 16.5895Q15.8942 16.5895 16.9952 15.9323Q18.0962 15.2751 18.7498 14.1692Q19.4035 13.0634 19.4035 11.7125Q19.4035 10.3645 18.7498 9.25865Q18.0962 8.15277 16.9952 7.49557Q15.8942 6.83838 14.5505 6.83838Q13.2066 6.83838 12.1043 7.49557Q11.002 8.15277 10.3497 9.25865Q9.69727 10.3645 9.69727 11.7125Q9.69727 13.0634 10.3497 14.1692Q11.002 15.2751 12.1043 15.9323Q13.2066 16.5895 14.5505 16.5895ZM14.5505 15.8688Q13.4087 15.8688 12.4723 15.3063Q11.5359 14.7438 10.977 13.8039Q10.4181 12.8641 10.4181 11.7125Q10.4181 10.5708 10.977 9.62746Q11.5359 8.68408 12.4723 8.12294Q13.4087 7.5618 14.5505 7.5618Q15.6921 7.5618 16.632 8.12294Q17.5719 8.68408 18.126 9.62746Q18.6801 10.5708 18.6801 11.7125Q18.6801 12.8641 18.126 13.8039Q17.5719 14.7438 16.632 15.3063Q15.6921 15.8688 14.5505 15.8688ZM20.7645 9.16412Q21.1531 9.16412 21.4297 8.89244Q21.7062 8.62076 21.7062 8.2251Q21.7062 7.83646 21.4297 7.55989Q21.1531 7.28333 20.7645 7.28333Q20.3716 7.28333 20.0985 7.55989Q19.8254 7.83646 19.8254 8.2251Q19.8254 8.62076 20.0985 8.89244Q20.3716 9.16412 20.7645 9.16412Z" fill="#ffffff"/>
 </g>
</svg>
