<?xml version="1.0" encoding="UTF-8"?>
<!--Generator: Apple Native CoreSVG 175.5-->
<!DOCTYPE svg
PUBLIC "-//W3C//DTD SVG 1.1//EN"
       "http://www.w3.org/Graphics/SVG/1.1/DTD/svg11.dtd">
<svg version="1.1" xmlns="http://www.w3.org/2000/svg" xmlns:xlink="http://www.w3.org/1999/xlink" width="19.9219" height="19.9316">
 <g>
  <rect height="19.9316" opacity="0" width="19.9219" x="0" y="0"/>
  <path d="M9.96094 14.7559Q11.2695 14.7559 12.3584 14.1016Q13.4473 13.4473 14.1016 12.3584Q14.7559 11.2695 14.7559 9.96094Q14.7559 8.65234 14.1016 7.55859Q13.4473 6.46484 12.3584 5.81055Q11.2695 5.15625 9.96094 5.15625Q8.65234 5.15625 7.56348 5.81055Q6.47461 6.46484 5.82031 7.55859Q5.16602 8.65234 5.16602 9.96094Q5.16602 11.2695 5.82031 12.3584Q6.47461 13.4473 7.56348 14.1016Q8.65234 14.7559 9.96094 14.7559ZM9.96094 13.2812Q9.0625 13.2812 8.30566 12.8271Q7.54883 12.373 7.09473 11.6162Q6.64062 10.8594 6.64062 9.96094Q6.64062 9.05273 7.09473 8.2959Q7.54883 7.53906 8.30078 7.08496Q9.05273 6.63086 9.96094 6.63086Q10.8594 6.63086 11.6162 7.08496Q12.373 7.53906 12.8271 8.2959Q13.2812 9.05273 13.2812 9.96094Q13.2812 10.8691 12.8271 11.6211Q12.373 12.373 11.6211 12.8271Q10.8691 13.2812 9.96094 13.2812ZM18.1738 6.63086L18.1738 5.16602L10.0098 5.15625L10.0098 6.63086ZM16.9824 15.5078L18.2227 14.7266L14.1895 7.73438L12.9199 8.4668ZM8.7207 18.7207L10.0098 19.4141L14.0625 12.4219L12.793 11.6797ZM1.74805 13.2812L1.74805 14.7461L9.91211 14.7559L9.91211 13.2812ZM2.93945 4.39453L1.69922 5.18555L5.73242 12.1777L7.00195 11.4453ZM11.2012 1.18164L9.91211 0.498047L5.85938 7.49023L7.12891 8.23242ZM9.96094 19.9219Q12.002 19.9219 13.8037 19.1406Q15.6055 18.3594 16.9824 16.9824Q18.3594 15.6055 19.1406 13.8037Q19.9219 12.002 19.9219 9.96094Q19.9219 7.91992 19.1406 6.11816Q18.3594 4.31641 16.9824 2.93945Q15.6055 1.5625 13.7988 0.78125Q11.9922 0 9.95117 0Q7.91016 0 6.1084 0.78125Q4.30664 1.5625 2.93457 2.93945Q1.5625 4.31641 0.78125 6.11816Q0 7.91992 0 9.96094Q0 12.002 0.78125 13.8037Q1.5625 15.6055 2.93945 16.9824Q4.31641 18.3594 6.11816 19.1406Q7.91992 19.9219 9.96094 19.9219ZM9.96094 18.2617Q8.23242 18.2617 6.72852 17.6172Q5.22461 16.9727 4.08691 15.835Q2.94922 14.6973 2.30957 13.1934Q1.66992 11.6895 1.66992 9.96094Q1.66992 8.23242 2.30957 6.72852Q2.94922 5.22461 4.08203 4.08203Q5.21484 2.93945 6.71875 2.2998Q8.22266 1.66016 9.95117 1.66016Q11.6797 1.66016 13.1885 2.2998Q14.6973 2.93945 15.835 4.08203Q16.9727 5.22461 17.6172 6.72852Q18.2617 8.23242 18.2617 9.96094Q18.2617 11.6895 17.6221 13.1934Q16.9824 14.6973 15.8398 15.835Q14.6973 16.9727 13.1934 17.6172Q11.6895 18.2617 9.96094 18.2617Z" fill="#007aff"/>
 </g>
</svg>
