<?xml version="1.0" encoding="UTF-8"?>
<!--Generator: Apple Native CoreSVG 175.5-->
<!DOCTYPE svg
PUBLIC "-//W3C//DTD SVG 1.1//EN"
       "http://www.w3.org/Graphics/SVG/1.1/DTD/svg11.dtd">
<svg version="1.1" xmlns="http://www.w3.org/2000/svg" xmlns:xlink="http://www.w3.org/1999/xlink" width="11.7676" height="19.4824">
 <g>
  <rect height="19.4824" opacity="0" width="11.7676" x="0" y="0"/>
  <path d="M2.65625 19.4824L9.11133 19.4824Q10.3027 19.4824 11.0352 18.7842Q11.7676 18.0859 11.7676 16.9434L11.7676 2.53906Q11.7676 1.39648 11.0352 0.698242Q10.3027 0 9.11133 0L2.65625 0Q1.46484 0 0.732422 0.698242Q0 1.39648 0 2.53906L0 16.9434Q0 18.0859 0.732422 18.7842Q1.46484 19.4824 2.65625 19.4824ZM2.86133 17.9102Q2.23633 17.9102 1.9043 17.5928Q1.57227 17.2754 1.57227 16.6895L1.57227 2.79297Q1.57227 2.20703 1.9043 1.88965Q2.23633 1.57227 2.86133 1.57227L8.90625 1.57227Q9.52148 1.57227 9.8584 1.88965Q10.1953 2.20703 10.1953 2.79297L10.1953 16.6895Q10.1953 17.2754 9.8584 17.5928Q9.52148 17.9102 8.90625 17.9102ZM3.33984 8.87695L8.42773 8.87695Q8.80859 8.87695 9.02344 8.68164Q9.23828 8.48633 9.23828 8.13477L9.23828 3.32031Q9.23828 2.96875 9.02344 2.77344Q8.80859 2.57812 8.42773 2.57812L3.33984 2.57812Q2.95898 2.57812 2.74414 2.77344Q2.5293 2.96875 2.5293 3.32031L2.5293 8.13477Q2.5293 8.48633 2.74414 8.68164Q2.95898 8.87695 3.33984 8.87695ZM3.16406 11.7383L4.0625 11.7383Q4.44336 11.7383 4.44336 11.3867L4.44336 10.459Q4.44336 10.1172 4.0625 10.1172L3.16406 10.1172Q2.8125 10.1172 2.8125 10.459L2.8125 11.3867Q2.8125 11.7383 3.16406 11.7383ZM5.40039 11.7383L6.29883 11.7383Q6.66992 11.7383 6.66992 11.3867L6.66992 10.459Q6.66992 10.1172 6.29883 10.1172L5.40039 10.1172Q5.04883 10.1172 5.04883 10.459L5.04883 11.3867Q5.04883 11.7383 5.40039 11.7383ZM7.63672 11.7383L8.53516 11.7383Q8.91602 11.7383 8.91602 11.3867L8.91602 10.459Q8.91602 10.1172 8.53516 10.1172L7.63672 10.1172Q7.28516 10.1172 7.28516 10.459L7.28516 11.3867Q7.28516 11.7383 7.63672 11.7383ZM3.16406 14.1406L4.0625 14.1406Q4.44336 14.1406 4.44336 13.7988L4.44336 12.8711Q4.44336 12.5195 4.0625 12.5195L3.16406 12.5195Q2.8125 12.5195 2.8125 12.8711L2.8125 13.7988Q2.8125 14.1406 3.16406 14.1406ZM5.40039 14.1406L6.29883 14.1406Q6.66992 14.1406 6.66992 13.7988L6.66992 12.8711Q6.66992 12.5195 6.29883 12.5195L5.40039 12.5195Q5.04883 12.5195 5.04883 12.8711L5.04883 13.7988Q5.04883 14.1406 5.40039 14.1406ZM7.63672 14.1406L8.53516 14.1406Q8.91602 14.1406 8.91602 13.7988L8.91602 12.8711Q8.91602 12.5195 8.53516 12.5195L7.63672 12.5195Q7.28516 12.5195 7.28516 12.8711L7.28516 13.7988Q7.28516 14.1406 7.63672 14.1406ZM3.16406 16.5527L4.0625 16.5527Q4.44336 16.5527 4.44336 16.2012L4.44336 15.2734Q4.44336 14.9219 4.0625 14.9219L3.16406 14.9219Q2.8125 14.9219 2.8125 15.2734L2.8125 16.2012Q2.8125 16.5527 3.16406 16.5527ZM5.40039 16.5527L6.29883 16.5527Q6.66992 16.5527 6.66992 16.2012L6.66992 15.2734Q6.66992 14.9219 6.29883 14.9219L5.40039 14.9219Q5.04883 14.9219 5.04883 15.2734L5.04883 16.2012Q5.04883 16.5527 5.40039 16.5527ZM7.63672 16.5527L8.53516 16.5527Q8.91602 16.5527 8.91602 16.2012L8.91602 15.2734Q8.91602 14.9219 8.53516 14.9219L7.63672 14.9219Q7.28516 14.9219 7.28516 15.2734L7.28516 16.2012Q7.28516 16.5527 7.63672 16.5527Z" fill="#007aff"/>
 </g>
</svg>
