<?xml version="1.0" encoding="UTF-8"?>
<!--Generator: Apple Native CoreSVG 175.5-->
<!DOCTYPE svg
PUBLIC "-//W3C//DTD SVG 1.1//EN"
       "http://www.w3.org/Graphics/SVG/1.1/DTD/svg11.dtd">
<svg version="1.1" xmlns="http://www.w3.org/2000/svg" xmlns:xlink="http://www.w3.org/1999/xlink" width="17.5391" height="23.7207">
 <g>
  <rect height="23.7207" opacity="0" width="17.5391" x="0" y="0"/>
  <path d="M8.76953 0Q6.11328 0 4.14062 1.0498Q2.16797 2.09961 1.08398 4.02832Q0 5.95703 0 8.59375L0 15.1172Q0 17.7539 1.08398 19.6826Q2.16797 21.6113 4.14062 22.6562Q6.11328 23.7012 8.76953 23.7012Q11.4258 23.7012 13.3984 22.6562Q15.3711 21.6113 16.4551 19.6826Q17.5391 17.7539 17.5391 15.1172L17.5391 8.59375Q17.5391 5.95703 16.4551 4.02832Q15.3711 2.09961 13.3984 1.0498Q11.4258 0 8.76953 0Z" fill="#007aff"/>
 </g>
</svg>
