<?xml version="1.0" encoding="UTF-8"?>
<!--Generator: Apple Native CoreSVG 175-->
<!DOCTYPE svg
PUBLIC "-//W3C//DTD SVG 1.1//EN"
       "http://www.w3.org/Graphics/SVG/1.1/DTD/svg11.dtd">
<svg version="1.1" xmlns="http://www.w3.org/2000/svg" xmlns:xlink="http://www.w3.org/1999/xlink" width="16.3719" height="23.0457">
 <g>
  <rect height="23.0457" opacity="0" width="16.3719" x="0" y="0"/>
  <path d="M8.18604 23.0331Q10.7367 23.0331 12.5687 22.0831Q14.4008 21.1331 15.3864 19.3521Q16.3719 17.5711 16.3719 15.089L16.3719 7.94693Q16.3719 5.46478 15.3864 3.68378Q14.4008 1.90277 12.5687 0.951385Q10.7367 0 8.18604 0Q5.63522 0 3.79967 0.951385Q1.96411 1.90277 0.982056 3.68378Q0 5.46478 0 7.94693L0 15.089Q0 17.5711 0.982056 19.3521Q1.96411 21.1331 3.79967 22.0831Q5.63522 23.0331 8.18604 23.0331ZM15.638 11.5179L0.726929 11.5179L0.726929 7.88589Q0.726929 5.64407 1.6227 4.04877Q2.51846 2.45346 4.18602 1.59935Q5.85358 0.745239 8.18604 0.745239Q10.5113 0.745239 12.1824 1.59935Q13.8535 2.45346 14.7457 4.04877Q15.638 5.64407 15.638 7.88589Z" fill="#ffffff"/>
 </g>
</svg>
