<?xml version="1.0" encoding="UTF-8"?>
<!--Generator: Apple Native CoreSVG 175.5-->
<!DOCTYPE svg
PUBLIC "-//W3C//DTD SVG 1.1//EN"
       "http://www.w3.org/Graphics/SVG/1.1/DTD/svg11.dtd">
<svg version="1.1" xmlns="http://www.w3.org/2000/svg" xmlns:xlink="http://www.w3.org/1999/xlink" width="20.5273" height="20.7129">
 <g>
  <rect height="20.7129" opacity="0" width="20.5273" x="0" y="0"/>
  <path d="M7.24609 14.4434L13.2812 14.4434Q14.3066 14.4434 14.8389 13.8818Q15.3711 13.3203 15.3711 12.3535L15.3711 10.6836L19.0723 10.6836Q19.6777 10.6836 20.1025 10.3516Q20.5273 10.0195 20.5273 9.45312Q20.5273 9.11133 20.3564 8.82324Q20.1855 8.53516 19.8535 8.25195L11.4746 0.859375Q11.1719 0.595703 10.8838 0.43457Q10.5957 0.273438 10.2637 0.273438Q9.94141 0.273438 9.64844 0.43457Q9.35547 0.595703 9.05273 0.859375L0.673828 8.26172Q0.332031 8.56445 0.166016 8.83789Q0 9.11133 0 9.45312Q0 10.0195 0.424805 10.3516Q0.849609 10.6836 1.45508 10.6836L5.15625 10.6836L5.15625 12.3535Q5.15625 13.3203 5.68848 13.8818Q6.2207 14.4434 7.24609 14.4434ZM7.40234 12.9688Q7.12891 12.9688 6.95801 12.7979Q6.78711 12.627 6.78711 12.3535L6.78711 9.54102Q6.78711 9.36523 6.71387 9.28711Q6.64062 9.20898 6.45508 9.20898L2.20703 9.20898Q2.09961 9.20898 2.09961 9.13086Q2.09961 9.07227 2.1582 9.01367L10.0586 2.1582Q10.1758 2.05078 10.2637 2.05078Q10.3613 2.05078 10.4688 2.1582L18.3691 9.01367Q18.4277 9.07227 18.4277 9.13086Q18.4277 9.20898 18.3203 9.20898L14.0723 9.20898Q13.8965 9.20898 13.8184 9.28711Q13.7402 9.36523 13.7402 9.54102L13.7402 12.3535Q13.7402 12.6172 13.5645 12.793Q13.3887 12.9688 13.125 12.9688ZM6.82617 20.7129L13.6133 20.7129Q14.4629 20.7129 14.9268 20.2588Q15.3906 19.8047 15.3906 18.9551L15.3906 17.5586Q15.3906 16.6992 14.9268 16.2354Q14.4629 15.7715 13.6133 15.7715L6.82617 15.7715Q5.98633 15.7715 5.52246 16.2402Q5.05859 16.709 5.05859 17.5586L5.05859 18.9551Q5.05859 19.7949 5.52246 20.2539Q5.98633 20.7129 6.82617 20.7129ZM7.05078 19.3359Q6.5332 19.3359 6.5332 18.8184L6.5332 17.6953Q6.5332 17.4414 6.66504 17.2949Q6.79688 17.1484 7.05078 17.1484L13.3887 17.1484Q13.6426 17.1484 13.7793 17.2949Q13.916 17.4414 13.916 17.6953L13.916 18.8184Q13.916 19.3359 13.3887 19.3359Z" fill="#007aff"/>
 </g>
</svg>
