<?xml version="1.0" encoding="UTF-8"?>
<!--Generator: Apple Native CoreSVG 175.5-->
<!DOCTYPE svg
PUBLIC "-//W3C//DTD SVG 1.1//EN"
       "http://www.w3.org/Graphics/SVG/1.1/DTD/svg11.dtd">
<svg version="1.1" xmlns="http://www.w3.org/2000/svg" xmlns:xlink="http://www.w3.org/1999/xlink" width="25.6445" height="19.1504">
 <g>
  <rect height="19.1504" opacity="0" width="25.6445" x="0" y="0"/>
  <path d="M25.6445 9.57031Q25.6445 7.40234 24.9316 5.63965Q24.2188 3.87695 22.8955 2.61719Q21.5723 1.35742 19.7314 0.678711Q17.8906 0 15.6348 0L10 0Q7.74414 0 5.9082 0.678711Q4.07227 1.35742 2.74902 2.61719Q1.42578 3.87695 0.712891 5.63965Q0 7.40234 0 9.57031Q0 11.7383 0.712891 13.4961Q1.42578 15.2539 2.74902 16.5186Q4.07227 17.7832 5.9082 18.4619Q7.74414 19.1406 10 19.1406L15.6348 19.1406Q17.8906 19.1406 19.7314 18.4619Q21.5723 17.7832 22.8955 16.5186Q24.2188 15.2539 24.9316 13.4961Q25.6445 11.7383 25.6445 9.57031ZM24.0625 9.57031Q24.0625 11.9824 23.0469 13.7744Q22.0312 15.5664 20.2051 16.5576Q18.3789 17.5488 15.9277 17.5488L12.8223 17.5488L12.8223 1.5918L15.9277 1.5918Q18.3789 1.5918 20.2051 2.58301Q22.0312 3.57422 23.0469 5.36621Q24.0625 7.1582 24.0625 9.57031Z" fill="#007aff"/>
 </g>
</svg>
