<?xml version="1.0" encoding="UTF-8"?>
<!--Generator: Apple Native CoreSVG 175-->
<!DOCTYPE svg
PUBLIC "-//W3C//DTD SVG 1.1//EN"
       "http://www.w3.org/Graphics/SVG/1.1/DTD/svg11.dtd">
<svg version="1.1" xmlns="http://www.w3.org/2000/svg" xmlns:xlink="http://www.w3.org/1999/xlink" width="24.8242" height="18.291">
 <g>
  <rect height="18.291" opacity="0" width="24.8242" x="0" y="0"/>
  <path d="M0 9.14062Q0 11.25 0.644531 12.9297Q1.28906 14.6094 2.49023 15.8105Q3.69141 17.0117 5.37109 17.6465Q7.05078 18.2812 9.13086 18.2812L15.6934 18.2812Q17.7637 18.2812 19.4482 17.6465Q21.1328 17.0117 22.334 15.8105Q23.5352 14.6094 24.1797 12.9297Q24.8242 11.25 24.8242 9.14062Q24.8242 7.03125 24.1797 5.34668Q23.5352 3.66211 22.334 2.46582Q21.1328 1.26953 19.4482 0.634766Q17.7637 0 15.6934 0L9.13086 0Q7.05078 0 5.37109 0.634766Q3.69141 1.26953 2.49023 2.46582Q1.28906 3.66211 0.644531 5.34668Q0 7.03125 0 9.14062ZM0.742188 9.14062Q0.742188 6.55273 1.77246 4.66797Q2.80273 2.7832 4.67285 1.75293Q6.54297 0.722656 9.0625 0.722656L15.752 0.722656Q18.2812 0.722656 20.1514 1.75293Q22.0215 2.7832 23.0469 4.66797Q24.0723 6.55273 24.0723 9.14062Q24.0723 11.7188 23.0469 13.6084Q22.0215 15.498 20.1514 16.5234Q18.2812 17.5488 15.752 17.5488L9.0625 17.5488Q6.54297 17.5488 4.67285 16.5234Q2.80273 15.498 1.77246 13.6084Q0.742188 11.7188 0.742188 9.14062ZM1.64062 9.14062Q1.64062 11.4551 2.54395 13.1445Q3.44727 14.834 5.1123 15.7422Q6.77734 16.6504 9.07227 16.6504L15.752 16.6504Q18.0566 16.6504 19.7217 15.7422Q21.3867 14.834 22.2852 13.1445Q23.1836 11.4551 23.1836 9.14062Q23.1836 6.81641 22.2852 5.13184Q21.3867 3.44727 19.7217 2.53418Q18.0566 1.62109 15.752 1.62109L9.07227 1.62109Q6.77734 1.62109 5.1123 2.53418Q3.44727 3.44727 2.54395 5.13184Q1.64062 6.81641 1.64062 9.14062Z" fill="#007aff"/>
 </g>
</svg>
