<?xml version="1.0" encoding="UTF-8"?>
<!--Generator: Apple Native CoreSVG 175-->
<!DOCTYPE svg
PUBLIC "-//W3C//DTD SVG 1.1//EN"
       "http://www.w3.org/Graphics/SVG/1.1/DTD/svg11.dtd">
<svg version="1.1" xmlns="http://www.w3.org/2000/svg" xmlns:xlink="http://www.w3.org/1999/xlink" width="16.3719" height="23.0457">
 <g>
  <rect height="23.0457" opacity="0" width="16.3719" x="0" y="0"/>
  <path d="M8.18604 0Q5.63522 0 3.79967 0.951385Q1.96411 1.90277 0.982056 3.68378Q0 5.46478 0 7.94693L0 15.089Q0 17.5711 0.982056 19.3521Q1.96411 21.1331 3.79967 22.0831Q5.63522 23.0331 8.18604 23.0331Q10.7367 23.0331 12.5687 22.0831Q14.4008 21.1331 15.3864 19.3521Q16.3719 17.5711 16.3719 15.089L16.3719 7.94693Q16.3719 5.46478 15.3864 3.68378Q14.4008 1.90277 12.5687 0.951385Q10.7367 0 8.18604 0Z" fill="#000000"/>
 </g>
</svg>
