<?xml version="1.0" encoding="UTF-8"?>
<!--Generator: Apple Native CoreSVG 175.5-->
<!DOCTYPE svg
PUBLIC "-//W3C//DTD SVG 1.1//EN"
       "http://www.w3.org/Graphics/SVG/1.1/DTD/svg11.dtd">
<svg version="1.1" xmlns="http://www.w3.org/2000/svg" xmlns:xlink="http://www.w3.org/1999/xlink" width="23.1055" height="18.1543">
 <g>
  <rect height="18.1543" opacity="0" width="23.1055" x="0" y="0"/>
  <path d="M4.0332 5.57617Q4.14062 5.04883 4.32617 4.45312Q4.51172 3.85742 4.70703 3.34473Q4.90234 2.83203 5.05859 2.54883Q5.25391 2.20703 5.49805 2.04102Q5.74219 1.875 6.13281 1.81641Q6.68945 1.73828 7.98828 1.69434Q9.28711 1.65039 11.5527 1.65039Q13.8184 1.65039 15.1221 1.68945Q16.4258 1.72852 16.9727 1.81641Q17.373 1.875 17.6074 2.04102Q17.8418 2.20703 18.0469 2.54883Q18.2129 2.82227 18.4033 3.33496Q18.5938 3.84766 18.7744 4.44824Q18.9551 5.04883 19.082 5.57617Q19.1504 5.84961 19.0381 5.96191Q18.9258 6.07422 18.6426 6.05469Q17.832 6.00586 16.8604 5.95703Q15.8887 5.9082 14.6045 5.87891Q13.3203 5.84961 11.5527 5.84961Q9.78516 5.84961 8.50098 5.87891Q7.2168 5.9082 6.25 5.95703Q5.2832 6.00586 4.47266 6.05469Q4.18945 6.07422 4.07715 5.96191Q3.96484 5.84961 4.0332 5.57617ZM4.51172 12.793Q3.83789 12.793 3.38867 12.3389Q2.93945 11.8848 2.93945 11.2207Q2.93945 10.5469 3.38867 10.0977Q3.83789 9.64844 4.51172 9.64844Q5.18555 9.64844 5.63477 10.0977Q6.08398 10.5469 6.08398 11.2207Q6.08398 11.8848 5.63477 12.3389Q5.18555 12.793 4.51172 12.793ZM8.97461 12.4023Q8.4668 12.4023 8.1543 12.0898Q7.8418 11.7773 7.8418 11.2695Q7.8418 10.7715 8.1543 10.459Q8.4668 10.1465 8.97461 10.1465L14.1406 10.1465Q14.6387 10.1465 14.9512 10.459Q15.2637 10.7715 15.2637 11.2695Q15.2637 11.7773 14.9512 12.0898Q14.6387 12.4023 14.1406 12.4023ZM18.5938 12.793Q17.9297 12.793 17.4805 12.3389Q17.0312 11.8848 17.0312 11.2207Q17.0312 10.5469 17.4805 10.0977Q17.9297 9.64844 18.5938 9.64844Q19.2676 9.64844 19.7168 10.0977Q20.166 10.5469 20.166 11.2207Q20.166 11.8848 19.7168 12.3389Q19.2676 12.793 18.5938 12.793ZM11.5527 15.4297Q12.7832 15.4297 14.1504 15.4004Q15.5176 15.3711 16.8359 15.3174Q18.1543 15.2637 19.2529 15.1953Q20.3516 15.127 21.0449 15.0488Q22.041 14.9316 22.5732 14.3945Q23.1055 13.8574 23.1055 12.9199L23.1055 11.2012Q23.1055 10.3711 22.9883 9.75098Q22.8711 9.13086 22.5977 8.58887Q22.3242 8.04688 21.875 7.46094L21.0449 6.39648Q20.8691 5.51758 20.6201 4.6582Q20.3711 3.79883 20.1221 3.11523Q19.873 2.43164 19.707 2.07031Q19.3164 1.24023 18.5791 0.751953Q17.8418 0.263672 16.875 0.136719Q16.543 0.0878906 15.7666 0.0585938Q14.9902 0.0292969 13.9014 0.0146484Q12.8125 0 11.5527 0Q10.293 0 9.2041 0.0195312Q8.11523 0.0390625 7.33887 0.0683594Q6.5625 0.0976562 6.24023 0.136719Q5.26367 0.253906 4.53125 0.74707Q3.79883 1.24023 3.4082 2.07031Q3.23242 2.43164 2.98828 3.11523Q2.74414 3.79883 2.49023 4.6582Q2.23633 5.51758 2.06055 6.39648L1.24023 7.46094Q0.78125 8.04688 0.512695 8.58887Q0.244141 9.13086 0.12207 9.75098Q0 10.3711 0 11.2012L0 12.9199Q0 13.8574 0.537109 14.3945Q1.07422 14.9316 2.06055 15.0488Q2.75391 15.127 3.85254 15.1953Q4.95117 15.2637 6.26953 15.3174Q7.58789 15.3711 8.95508 15.4004Q10.3223 15.4297 11.5527 15.4297ZM1.29883 18.1152L2.44141 18.1152Q2.98828 18.1152 3.36426 17.7441Q3.74023 17.373 3.74023 16.8262L3.74023 14.3945L0 12.6172L0 16.8262Q0 17.373 0.371094 17.7441Q0.742188 18.1152 1.29883 18.1152ZM20.6641 18.1152L21.8164 18.1152Q22.3633 18.1152 22.7344 17.7441Q23.1055 17.373 23.1055 16.8262L23.1055 12.6172L19.375 14.3945L19.375 16.8262Q19.375 17.373 19.7461 17.7441Q20.1172 18.1152 20.6641 18.1152Z" fill="#0a84ff"/>
 </g>
</svg>
