<?xml version="1.0" encoding="UTF-8"?>
<!--Generator: Apple Native CoreSVG 175-->
<!DOCTYPE svg
PUBLIC "-//W3C//DTD SVG 1.1//EN"
       "http://www.w3.org/Graphics/SVG/1.1/DTD/svg11.dtd">
<svg version="1.1" xmlns="http://www.w3.org/2000/svg" xmlns:xlink="http://www.w3.org/1999/xlink" width="19.1602" height="19.1504">
 <g>
  <rect height="19.1504" opacity="0" width="19.1602" x="0" y="0"/>
  <path d="M9.57031 19.1406Q11.5527 19.1406 13.2861 18.3984Q15.0195 17.6562 16.3379 16.333Q17.6562 15.0098 18.4082 13.2764Q19.1602 11.543 19.1602 9.57031Q19.1602 7.59766 18.4082 5.86426Q17.6562 4.13086 16.3379 2.80762Q15.0195 1.48438 13.2861 0.742188Q11.5527 0 9.57031 0Q7.59766 0 5.86426 0.742188Q4.13086 1.48438 2.81738 2.80762Q1.50391 4.13086 0.751953 5.86426Q0 7.59766 0 9.57031Q0 11.543 0.74707 13.2764Q1.49414 15.0098 2.8125 16.333Q4.13086 17.6562 5.86914 18.3984Q7.60742 19.1406 9.57031 19.1406ZM9.57031 18.3984Q7.74414 18.3984 6.14746 17.71Q4.55078 17.0215 3.33496 15.8105Q2.11914 14.5996 1.43555 12.998Q0.751953 11.3965 0.751953 9.57031Q0.751953 7.74414 1.43555 6.14258Q2.11914 4.54102 3.33496 3.3252Q4.55078 2.10938 6.14746 1.4209Q7.74414 0.732422 9.57031 0.732422Q11.4062 0.732422 13.0029 1.4209Q14.5996 2.10938 15.8154 3.3252Q17.0312 4.54102 17.7197 6.14258Q18.4082 7.74414 18.4082 9.57031Q18.4082 11.3965 17.7246 12.998Q17.041 14.5996 15.8252 15.8105Q14.6094 17.0215 13.0078 17.71Q11.4062 18.3984 9.57031 18.3984ZM4.08203 13.0762Q4.08203 13.3301 4.25293 13.5059Q4.42383 13.6816 4.67773 13.6816L5.22461 13.6816Q5.47852 13.6816 5.6543 13.5059Q5.83008 13.3301 5.83008 13.0762L5.83008 12.3047Q6.63086 12.3535 7.66602 12.3877Q8.70117 12.4219 9.58008 12.4219Q10.4688 12.4219 11.5039 12.3877Q12.5391 12.3535 13.3301 12.3047L13.3301 13.0762Q13.3301 13.3301 13.5107 13.5059Q13.6914 13.6816 13.9453 13.6816L14.4824 13.6816Q14.7363 13.6816 14.9121 13.5059Q15.0879 13.3301 15.0879 13.0762L15.0879 10.4785Q15.0879 9.83398 14.9365 9.45312Q14.7852 9.07227 14.502 8.7207L14.0723 8.16406Q13.9355 7.5 13.7354 6.88477Q13.5352 6.26953 13.418 6.00586Q13.2227 5.60547 12.876 5.40039Q12.5293 5.19531 12.1191 5.14648Q11.875 5.11719 11.1377 5.09766Q10.4004 5.07812 9.58008 5.07812Q8.75977 5.07812 8.02734 5.09766Q7.29492 5.11719 7.04102 5.14648Q6.64062 5.19531 6.29395 5.40039Q5.94727 5.60547 5.75195 6.00586Q5.63477 6.26953 5.42969 6.88477Q5.22461 7.5 5.08789 8.16406L4.66797 8.7207Q4.38477 9.07227 4.2334 9.45312Q4.08203 9.83398 4.08203 10.4785ZM5.9082 7.80273Q6.01562 7.29492 6.15723 6.87988Q6.29883 6.46484 6.42578 6.26953Q6.5332 6.07422 6.7041 5.94727Q6.875 5.82031 7.14844 5.79102Q7.44141 5.75195 8.06641 5.7373Q8.69141 5.72266 9.58008 5.72266Q10.4785 5.72266 11.1035 5.7373Q11.7285 5.75195 12.0215 5.79102Q12.2949 5.82031 12.4658 5.94727Q12.6367 6.07422 12.7441 6.26953Q12.8613 6.45508 13.0029 6.875Q13.1445 7.29492 13.2617 7.80273Q13.3105 8.01758 13.0762 8.00781Q12.4414 7.95898 11.665 7.93457Q10.8887 7.91016 9.58008 7.91016Q8.27148 7.91016 7.5 7.93457Q6.72852 7.95898 6.09375 8.00781Q5.85938 8.01758 5.9082 7.80273ZM5.44922 10.4395Q5.44922 10.1758 5.63477 9.99512Q5.82031 9.81445 6.08398 9.81445Q6.35742 9.81445 6.53809 9.99512Q6.71875 10.1758 6.71875 10.4395Q6.71875 10.7227 6.53809 10.9033Q6.35742 11.084 6.08398 11.084Q5.82031 11.084 5.63477 10.9033Q5.44922 10.7227 5.44922 10.4395ZM7.93945 10.5566Q7.93945 10.3516 8.06152 10.2246Q8.18359 10.0977 8.37891 10.0977L10.7715 10.0977Q10.9766 10.0977 11.1035 10.2246Q11.2305 10.3516 11.2305 10.5566Q11.2305 10.752 11.1035 10.8789Q10.9766 11.0059 10.7715 11.0059L8.37891 11.0059Q8.18359 11.0059 8.06152 10.8789Q7.93945 10.752 7.93945 10.5566ZM12.4414 10.4395Q12.4414 10.1758 12.6221 9.99512Q12.8027 9.81445 13.0762 9.81445Q13.3496 9.81445 13.5352 9.99512Q13.7207 10.1758 13.7207 10.4395Q13.7207 10.7227 13.5352 10.9033Q13.3496 11.084 13.0762 11.084Q12.8027 11.084 12.6221 10.9033Q12.4414 10.7227 12.4414 10.4395Z" fill="#0a84ff"/>
 </g>
</svg>
