<?xml version="1.0" encoding="UTF-8"?>
<!--Generator: Apple Native CoreSVG 175.5-->
<!DOCTYPE svg
PUBLIC "-//W3C//DTD SVG 1.1//EN"
       "http://www.w3.org/Graphics/SVG/1.1/DTD/svg11.dtd">
<svg version="1.1" xmlns="http://www.w3.org/2000/svg" xmlns:xlink="http://www.w3.org/1999/xlink" width="21.6956" height="23.1348">
 <g>
  <rect height="23.1348" opacity="0" width="21.6956" x="0" y="0"/>
  <path d="M1.27035 22.9785L1.31917 22.9785Q2.23714 22.9785 2.85238 22.7783Q3.46761 22.5781 3.90218 22.2852Q4.33675 21.9922 4.67855 21.6943Q5.02035 21.3965 5.37679 21.1963Q5.73324 20.9961 6.21175 20.9961Q6.67074 20.9961 7.03206 21.1963Q7.39339 21.3965 7.74495 21.6943Q8.09652 21.9922 8.51156 22.2852Q8.9266 22.5781 9.48812 22.7783Q10.0496 22.9785 10.8504 22.9785Q11.6414 22.9785 12.203 22.7783Q12.7645 22.5781 13.1795 22.2852Q13.5946 21.9922 13.9461 21.6943Q14.2977 21.3965 14.659 21.1963Q15.0203 20.9961 15.4793 20.9961Q15.9578 20.9961 16.3143 21.1963Q16.6707 21.3965 17.0125 21.6943Q17.3543 21.9922 17.7889 22.2852Q18.2235 22.5781 18.8387 22.7783Q19.4539 22.9785 20.3719 22.9785L20.4207 22.9785Q20.7039 22.9785 20.9041 22.7783Q21.1043 22.5781 21.1043 22.2949Q21.1043 22.0117 20.9041 21.8066Q20.7039 21.6016 20.4207 21.6016L20.3719 21.6016Q19.5809 21.6016 19.0633 21.3184Q18.5457 21.0352 17.9891 20.6445Q17.5203 20.3027 16.91 19.9609Q16.2996 19.6191 15.4793 19.6191Q14.6395 19.6191 14.0194 19.9805Q13.3993 20.3418 12.9207 20.6934Q12.4227 21.084 11.9637 21.3428Q11.5047 21.6016 10.8504 21.6016Q10.1864 21.6016 9.72738 21.3428Q9.26839 21.084 8.77035 20.6934Q8.29183 20.3418 7.67171 19.9805Q7.0516 19.6191 6.21175 19.6191Q5.39144 19.6191 4.78109 19.9609Q4.17074 20.3027 3.70199 20.6445Q3.14535 21.0352 2.62777 21.3184Q2.11019 21.6016 1.31917 21.6016L1.27035 21.6016Q0.987142 21.6016 0.786947 21.8066Q0.586751 22.0117 0.586751 22.2949Q0.586751 22.5781 0.786947 22.7783Q0.987142 22.9785 1.27035 22.9785ZM3.76058 21.3867L5.09847 20.9961L1.67074 16.3379Q1.50472 16.123 1.59261 15.918Q1.6805 15.7129 1.97347 15.7129L19.7176 15.7129Q20.0203 15.7129 20.1034 15.918Q20.1864 16.123 20.0203 16.3477L16.5926 20.9863L17.9403 21.377L21.2606 16.9727Q21.7098 16.3867 21.6951 15.8057Q21.6805 15.2246 21.2557 14.8389Q20.8309 14.4531 20.0594 14.4531L1.63167 14.4531Q0.860189 14.4531 0.440267 14.8389Q0.0203451 15.2246 0.000813802 15.8057Q-0.0187174 16.3867 0.430501 16.9727ZM5.72347 4.64844Q5.67464 4.84375 5.76253 4.92188Q5.85042 5 6.0555 4.99023Q6.62191 4.95117 7.29574 4.91699Q7.96956 4.88281 8.83382 4.86328Q9.69808 4.84375 10.8407 4.84375Q11.9832 4.84375 12.8475 4.86328Q13.7118 4.88281 14.3856 4.91699Q15.0594 4.95117 15.6258 4.99023Q15.8309 5 15.9188 4.92188Q16.0067 4.84375 15.9578 4.64844Q15.8309 4.07227 15.616 3.43262Q15.4012 2.79297 15.2254 2.5Q15.0887 2.24609 14.908 2.13379Q14.7274 2.02148 14.4539 1.97266Q14.0731 1.92383 13.1893 1.88965Q12.3055 1.85547 10.8407 1.85547Q9.37581 1.85547 8.49202 1.88965Q7.60824 1.92383 7.22738 1.97266Q6.95394 2.02148 6.77327 2.13379Q6.59261 2.24609 6.44613 2.5Q6.28011 2.79297 6.06527 3.43262Q5.85042 4.07227 5.72347 4.64844ZM5.68441 9.51172Q6.18245 9.51172 6.51449 9.18457Q6.84652 8.85742 6.84652 8.35938Q6.84652 7.86133 6.51449 7.53418Q6.18245 7.20703 5.68441 7.20703Q5.19613 7.20703 4.8641 7.53418Q4.53206 7.86133 4.53206 8.35938Q4.53206 8.85742 4.8641 9.18457Q5.19613 9.51172 5.68441 9.51172ZM8.95589 9.23828L12.7254 9.23828Q13.0965 9.23828 13.3309 9.00391Q13.5653 8.76953 13.5653 8.39844Q13.5653 8.02734 13.3309 7.79785Q13.0965 7.56836 12.7254 7.56836L8.95589 7.56836Q8.5848 7.56836 8.35042 7.79785Q8.11605 8.02734 8.11605 8.39844Q8.11605 8.76953 8.35042 9.00391Q8.5848 9.23828 8.95589 9.23828ZM15.9871 9.51172Q16.4852 9.51172 16.8172 9.18457Q17.1493 8.85742 17.1493 8.35938Q17.1493 7.86133 16.8172 7.53418Q16.4852 7.20703 15.9871 7.20703Q15.4989 7.20703 15.1668 7.53418Q14.8348 7.86133 14.8348 8.35938Q14.8348 8.85742 15.1668 9.18457Q15.4989 9.51172 15.9871 9.51172ZM10.8407 11.5918Q11.7391 11.5918 12.7401 11.5723Q13.741 11.5527 14.7078 11.5137Q15.6746 11.4746 16.4803 11.4258Q17.286 11.377 17.8035 11.3184Q18.5946 11.2305 19.0243 10.7861Q19.4539 10.3418 19.4539 9.60938L19.4539 8.33984Q19.4539 7.40234 19.2391 6.78223Q19.0243 6.16211 18.5164 5.51758L17.9305 4.77539Q17.7938 4.12109 17.6131 3.49609Q17.4325 2.87109 17.2518 2.37305Q17.0711 1.875 16.9442 1.60156Q16.3387 0.322266 14.7567 0.0976562Q14.5125 0.0683594 13.951 0.0488281Q13.3895 0.0292969 12.5887 0.0146484Q11.7879 0 10.8407 0Q9.90316 0 9.10726 0.0146484Q8.31136 0.0292969 7.74495 0.0488281Q7.17855 0.0683594 6.93441 0.0976562Q6.17269 0.195312 5.60628 0.581055Q5.03988 0.966797 4.72738 1.60156Q4.5516 2.00195 4.24886 2.90039Q3.94613 3.79883 3.74105 4.77539L3.17464 5.51758Q2.66683 6.16211 2.45199 6.78223Q2.23714 7.40234 2.23714 8.33984L2.23714 9.60938Q2.23714 10.3418 2.66195 10.7861Q3.08675 11.2305 3.87777 11.3184Q4.38558 11.377 5.19613 11.4258Q6.00667 11.4746 6.96859 11.5137Q7.9305 11.5527 8.93148 11.5723Q9.93245 11.5918 10.8407 11.5918ZM10.8407 10.3418Q9.93245 10.3418 8.94124 10.3271Q7.95003 10.3125 7.01742 10.2783Q6.0848 10.2441 5.33773 10.2002Q4.59066 10.1562 4.16097 10.0977Q3.78988 10.0488 3.63851 9.87305Q3.48714 9.69727 3.48714 9.32617L3.48714 8.33984Q3.48714 7.63672 3.61898 7.22168Q3.75081 6.80664 4.16097 6.2793L4.92269 5.29297Q5.01058 4.77539 5.1766 4.16992Q5.34261 3.56445 5.53304 3.02246Q5.72347 2.48047 5.86995 2.1582Q6.0262 1.81641 6.32894 1.61621Q6.63167 1.41602 7.08089 1.36719Q7.42269 1.32812 8.42855 1.28418Q9.43441 1.24023 10.8407 1.24023Q12.2469 1.24023 13.2625 1.28418Q14.2782 1.32812 14.5809 1.36719Q15.0399 1.42578 15.3426 1.62109Q15.6453 1.81641 15.8114 2.1582Q15.9676 2.49023 16.158 3.03223Q16.3485 3.57422 16.5145 4.17969Q16.6805 4.78516 16.7586 5.29297L17.5203 6.2793Q17.9207 6.80664 18.0623 7.22656Q18.2039 7.64648 18.2039 8.33984L18.2039 9.32617Q18.2039 9.70703 18.0477 9.87793Q17.8914 10.0488 17.5106 10.0977Q17.0809 10.1465 16.3338 10.1953Q15.5868 10.2441 14.6541 10.2734Q13.7215 10.3027 12.7352 10.3223Q11.7489 10.3418 10.8407 10.3418ZM3.70199 13.4082L4.54183 13.4082Q4.95199 13.4082 5.23031 13.1348Q5.50863 12.8613 5.50863 12.4609L5.50863 10.752L2.74495 10.3516L2.74495 12.4609Q2.74495 12.8613 3.02327 13.1348Q3.3016 13.4082 3.70199 13.4082ZM17.1395 13.4082L17.9793 13.4082Q18.3797 13.4082 18.658 13.1348Q18.9364 12.8613 18.9364 12.4609L18.9364 10.3516L16.1727 10.752L16.1825 12.4609Q16.1825 12.8613 16.4559 13.1348Q16.7293 13.4082 17.1395 13.4082Z" fill="#007aff"/>
 </g>
</svg>
