<?xml version="1.0" encoding="UTF-8"?>
<!--Generator: Apple Native CoreSVG 175-->
<!DOCTYPE svg
PUBLIC "-//W3C//DTD SVG 1.1//EN"
       "http://www.w3.org/Graphics/SVG/1.1/DTD/svg11.dtd">
<svg version="1.1" xmlns="http://www.w3.org/2000/svg" xmlns:xlink="http://www.w3.org/1999/xlink" width="23.2945" height="22.7863">
 <g>
  <rect height="22.7863" opacity="0" width="23.2945" x="0" y="0"/>
  <path d="M2.07354 22.6778L2.12237 22.6778Q2.94894 22.6778 3.51283 22.4776Q4.07671 22.2774 4.48878 21.9809Q4.90084 21.6844 5.26377 21.3901Q5.6267 21.0957 6.03587 20.8955Q6.44503 20.6953 7.01495 20.6953Q7.56533 20.6953 7.97587 20.8955Q8.38641 21.0957 8.7485 21.3901Q9.11059 21.6844 9.50808 21.9809Q9.90557 22.2774 10.4179 22.4776Q10.9302 22.6778 11.6466 22.6778Q12.3673 22.6778 12.881 22.4776Q13.3946 22.2774 13.7908 21.9809Q14.1869 21.6844 14.549 21.3901Q14.9111 21.0957 15.3216 20.8955Q15.7321 20.6953 16.2825 20.6953Q16.8454 20.6953 17.2581 20.8955Q17.6708 21.0957 18.0301 21.3901Q18.3895 21.6844 18.8065 21.9809Q19.2235 22.2774 19.786 22.4776Q20.3485 22.6778 21.1751 22.6778L21.2239 22.6778Q21.3594 22.6778 21.4612 22.576Q21.563 22.4742 21.563 22.3386Q21.563 22.196 21.4612 22.0929Q21.3594 21.9897 21.2239 21.9897L21.1751 21.9897Q20.2997 21.9897 19.7224 21.675Q19.1451 21.3602 18.5955 20.9766Q18.1197 20.6277 17.5691 20.3175Q17.0185 20.0073 16.2825 20.0073Q15.5368 20.0073 14.9751 20.3335Q14.4133 20.6596 13.9376 21.0112Q13.4297 21.4018 12.911 21.6958Q12.3923 21.9897 11.6466 21.9897Q10.9052 21.9897 10.3865 21.6958Q9.86773 21.4018 9.36266 21.0112Q8.88415 20.6596 8.32377 20.3335Q7.76339 20.0073 7.01495 20.0073Q6.28176 20.0073 5.73115 20.3175Q5.18054 20.6277 4.70202 20.9766Q4.1524 21.3602 3.57508 21.675Q2.99777 21.9897 2.12237 21.9897L2.07354 21.9897Q1.93087 21.9897 1.83268 22.0929Q1.73449 22.196 1.73449 22.3386Q1.73449 22.4742 1.83268 22.576Q1.93087 22.6778 2.07354 22.6778ZM0.235314 16.257L3.52709 20.723Q3.68243 20.6248 3.84768 20.5087Q4.01293 20.3925 4.19497 20.2679Q4.74658 19.8663 5.43231 19.5048Q6.11804 19.1432 7.01495 19.1432Q7.93414 19.1432 8.62963 19.5229Q9.32513 19.9026 9.88207 20.3195Q10.3926 20.7057 10.7592 20.9122Q11.1258 21.1186 11.6466 21.1186Q12.1662 21.1186 12.53 20.9149Q12.8939 20.7112 13.3895 20.3398Q13.9505 19.9136 14.6542 19.5284Q15.3578 19.1432 16.2825 19.1432Q17.1794 19.1432 17.8665 19.5048Q18.5536 19.8663 19.1025 20.2679Q19.2845 20.3925 19.4462 20.5087Q19.6079 20.6248 19.7731 20.723L23.0481 16.257Q23.3145 15.9032 23.2929 15.5225Q23.2712 15.1418 23.001 14.8756Q22.7309 14.6094 22.2476 14.6094L1.04983 14.6094Q0.566583 14.6094 0.297799 14.8791Q0.0290155 15.1488 0.00246518 15.5295Q-0.0240851 15.9102 0.235314 16.257ZM5.91372 4.19449Q6.08294 3.41599 6.31106 2.77084Q6.53918 2.1257 6.72198 1.8132Q6.88952 1.51993 7.15456 1.32614Q7.41961 1.13235 7.85326 1.07925Q8.29577 1.02341 9.27256 0.996246Q10.2494 0.969086 11.6536 0.969086Q13.0579 0.969086 14.0347 0.994873Q15.0115 1.02066 15.454 1.07925Q15.8876 1.1351 16.1513 1.32751Q16.415 1.51993 16.5853 1.8132Q16.7681 2.1257 16.9899 2.77084Q17.2118 3.41599 17.3934 4.19449Q17.4282 4.34052 17.3628 4.44115Q17.2974 4.54178 17.0993 4.52927Q16.4333 4.48318 15.6971 4.44901Q14.961 4.41483 13.9905 4.3988Q13.02 4.38278 11.6536 4.38278Q10.2872 4.38278 9.31666 4.3988Q8.34612 4.41483 7.61004 4.44901Q6.87396 4.48318 6.20791 4.52927Q6.00985 4.54178 5.94576 4.44115Q5.88168 4.34052 5.91372 4.19449ZM6.27932 9.24026Q5.85436 9.24026 5.57642 8.96233Q5.29849 8.68439 5.29849 8.25928Q5.29849 7.84134 5.57642 7.5634Q5.85436 7.28546 6.27932 7.28546Q6.69741 7.28546 6.97672 7.5634Q7.25604 7.84134 7.25604 8.25928Q7.25604 8.68439 6.97672 8.96233Q6.69741 9.24026 6.27932 9.24026ZM9.81097 9.11163Q9.5032 9.11163 9.31239 8.92082Q9.12158 8.73001 9.12158 8.42499Q9.12158 8.11279 9.31239 7.92198Q9.5032 7.73117 9.81097 7.73117L13.4961 7.73117Q13.804 7.73117 13.9949 7.92198Q14.1857 8.11279 14.1857 8.42499Q14.1857 8.73001 13.9949 8.92082Q13.804 9.11163 13.4961 9.11163ZM17.0278 9.24026Q16.6098 9.24026 16.3305 8.96233Q16.0512 8.68439 16.0512 8.25928Q16.0512 7.84134 16.3305 7.5634Q16.6098 7.28546 17.0278 7.28546Q17.4529 7.28546 17.7308 7.5634Q18.0088 7.84134 18.0088 8.25928Q18.0088 8.68439 17.7308 8.96233Q17.4529 9.24026 17.0278 9.24026ZM11.6536 11.2933Q12.545 11.2933 13.5601 11.2724Q14.5751 11.2515 15.5686 11.2138Q16.5622 11.1761 17.3924 11.1224Q18.2227 11.0687 18.7517 11.0129Q19.383 10.932 19.7489 10.5997Q20.1149 10.2675 20.1149 9.61914L20.1149 8.30307Q20.1149 7.30621 19.8817 6.73157Q19.6485 6.15692 19.2137 5.59677L18.5619 4.74091Q18.3568 3.73199 18.0448 2.78999Q17.7329 1.84799 17.5403 1.44333Q17.2501 0.816803 16.7165 0.499039Q16.1829 0.181274 15.5614 0.104675Q15.306 0.0683594 14.703 0.0439453Q14.1001 0.0195312 13.3007 0.00976562Q12.5012 0 11.6536 0Q10.806 0 10.0066 0.0111389Q9.20718 0.0222778 8.60423 0.0453186Q8.00127 0.0683594 7.74584 0.104675Q7.12435 0.185547 6.59075 0.501175Q6.05715 0.816803 5.76693 1.44333Q5.57436 1.84799 5.2624 2.78999Q4.95043 3.73199 4.74535 4.74091L4.0935 5.59677Q3.65862 6.15692 3.42547 6.73157Q3.19232 7.30621 3.19232 8.30307L3.19232 9.61914Q3.19232 10.2675 3.5583 10.5997Q3.92428 10.932 4.55554 11.0129Q5.0844 11.0687 5.91471 11.1224Q6.74502 11.1761 7.73859 11.2138Q8.73217 11.2515 9.74719 11.2724Q10.7622 11.2933 11.6536 11.2933ZM4.11852 13.2281L4.9512 13.2281Q5.34457 13.2281 5.61099 12.9582Q5.8774 12.6883 5.8774 12.2977L5.8774 10.5484L3.19232 9.26788L3.19232 12.2977Q3.19232 12.6883 3.46224 12.9582Q3.73217 13.2281 4.11852 13.2281ZM18.3559 13.2281L19.1887 13.2281Q19.5751 13.2281 19.845 12.9582Q20.1149 12.6883 20.1149 12.2977L20.1149 9.26788L17.4298 10.5484L17.4298 12.2977Q17.4298 12.6883 17.6962 12.9582Q17.9625 13.2281 18.3559 13.2281Z" fill="#007aff"/>
 </g>
</svg>
