<?xml version="1.0" encoding="UTF-8"?>
<!--Generator: Apple Native CoreSVG 175.5-->
<!DOCTYPE svg
PUBLIC "-//W3C//DTD SVG 1.1//EN"
       "http://www.w3.org/Graphics/SVG/1.1/DTD/svg11.dtd">
<svg version="1.1" xmlns="http://www.w3.org/2000/svg" xmlns:xlink="http://www.w3.org/1999/xlink" width="22.4906" height="22.8107">
 <g>
  <rect height="22.8107" opacity="0" width="22.4906" x="0" y="0"/>
  <path d="M15.9861 6.26374Q16.3669 6.01959 16.738 5.52643Q17.1091 5.03327 17.4167 4.40827Q17.7243 3.78327 17.9099 3.12897Q18.0954 2.47467 18.1247 1.89362Q18.154 1.31256 17.9782 0.912173Q17.8025 0.511782 17.3728 0.40436Q16.9236 0.306704 16.5818 0.580142Q16.24 0.853579 16.0056 1.38581Q15.7712 1.91803 15.6491 2.59186Q15.5271 3.26569 15.5222 3.95905Q15.5173 4.65241 15.6296 5.26276Q15.7419 5.87311 15.9861 6.26374ZM16.2204 6.64459Q16.7868 6.64459 17.4997 6.37116Q18.2126 6.09772 18.945 5.63385Q19.6775 5.16999 20.3122 4.5987Q20.947 4.02741 21.3571 3.4317Q21.7673 2.836 21.8405 2.28913Q21.9138 1.74225 21.5134 1.34186Q21.113 0.94147 20.571 1.01471Q20.029 1.08795 19.4333 1.49811Q18.8376 1.90827 18.2663 2.54303Q17.695 3.1778 17.2312 3.91022Q16.7673 4.64264 16.4939 5.36042Q16.2204 6.07819 16.2204 6.64459ZM16.6013 6.8692Q16.9919 7.11334 17.5974 7.23053Q18.2029 7.34772 18.9011 7.34284Q19.5993 7.33795 20.2732 7.21588Q20.947 7.09381 21.4792 6.85944Q22.0114 6.62506 22.2898 6.28815Q22.5681 5.95124 22.4607 5.51178Q22.3532 5.07233 21.9529 4.89167Q21.5525 4.711 20.9763 4.73542Q20.4001 4.75983 19.7458 4.95026Q19.0915 5.14069 18.4616 5.44342Q17.8318 5.74616 17.3386 6.11725Q16.8454 6.48834 16.6013 6.8692ZM0.575898 22.2403Q0.946992 22.6212 1.50852 22.7725Q2.07004 22.9239 2.78293 22.4747L7.68527 19.4083L6.5134 18.2462Q6.31809 18.0508 6.31809 17.7921Q6.31809 17.5333 6.50363 17.338Q6.68918 17.1524 6.95285 17.1475Q7.21652 17.1426 7.41184 17.338L8.79855 18.7051L9.8923 18.0118L8.25168 16.4298Q8.05637 16.2344 8.05637 15.9708Q8.05637 15.7071 8.24191 15.5215Q8.43723 15.3262 8.69602 15.3214Q8.9548 15.3165 9.15012 15.5118L11.0056 17.3282L15.7712 14.3204Q17.0212 13.5391 17.7487 12.5674Q18.4763 11.5958 18.6716 10.546Q18.8669 9.49616 18.5056 8.44147Q18.1443 7.38678 17.2068 6.43952L16.3669 5.58991Q15.2829 4.49616 14.0476 4.18366Q12.8122 3.87116 11.5964 4.31061Q10.3806 4.75006 9.34543 5.91217L11.9431 8.47077Q12.1482 8.66608 12.1482 8.92487Q12.1482 9.18366 11.9626 9.3692Q11.7771 9.56452 11.5134 9.5694Q11.2497 9.57428 11.0544 9.37897L8.55441 6.93756L7.87082 8.01178L9.73605 9.83795Q9.94113 10.0333 9.94113 10.2969Q9.94113 10.5606 9.74582 10.7462Q9.55051 10.9415 9.2966 10.9415Q9.04269 10.9415 8.83762 10.7462L7.17746 9.13483L0.321992 20.004Q-0.0881644 20.668 0.0241403 21.2393Q0.136445 21.8106 0.575898 22.2403Z" fill="#007aff"/>
 </g>
</svg>
