<?xml version="1.0" encoding="UTF-8"?>
<!--Generator: Apple Native CoreSVG 175.5-->
<!DOCTYPE svg
PUBLIC "-//W3C//DTD SVG 1.1//EN"
       "http://www.w3.org/Graphics/SVG/1.1/DTD/svg11.dtd">
<svg version="1.1" xmlns="http://www.w3.org/2000/svg" xmlns:xlink="http://www.w3.org/1999/xlink" width="19.3848" height="17.1582">
 <g>
  <rect height="17.1582" opacity="0" width="19.3848" x="0" y="0"/>
  <path d="M5.625 9.31641L13.7598 9.31641L13.7598 7.08008Q13.7598 6.2207 14.1162 5.54688Q14.4727 4.87305 15.0977 4.48242Q15.7227 4.0918 16.543 4.0918L16.6504 4.0918L16.6504 2.11914Q16.6504 1.16211 16.084 0.581055Q15.5176 0 14.5996 0L4.78516 0Q3.86719 0 3.2959 0.581055Q2.72461 1.16211 2.72461 2.11914L2.72461 4.0918L2.83203 4.0918Q3.65234 4.0918 4.28223 4.48242Q4.91211 4.87305 5.26855 5.54688Q5.625 6.2207 5.625 7.08008ZM0 13.0176Q0 13.9355 0.556641 14.4922Q1.11328 15.0488 2.00195 15.0488L17.3828 15.0488Q18.2715 15.0488 18.8281 14.4922Q19.3848 13.9355 19.3848 13.0176L19.3848 7.08008Q19.3848 6.17188 18.8281 5.61035Q18.2715 5.04883 17.3828 5.04883L16.8945 5.04883Q16.0059 5.04883 15.4492 5.61035Q14.8926 6.17188 14.8926 7.08008L14.8926 10.4492L4.48242 10.4492L4.48242 7.08008Q4.48242 6.17188 3.93066 5.61035Q3.37891 5.04883 2.48047 5.04883L2.00195 5.04883Q1.11328 5.04883 0.556641 5.61035Q0 6.17188 0 7.08008ZM3.44727 17.1387L4.0625 17.1387Q4.45312 17.1387 4.69238 16.9043Q4.93164 16.6699 4.93164 16.2793L4.93164 14.209L2.58789 14.209L2.58789 16.2793Q2.58789 16.6699 2.82227 16.9043Q3.05664 17.1387 3.44727 17.1387ZM15.3223 17.1387L15.9277 17.1387Q16.3281 17.1387 16.5576 16.9043Q16.7871 16.6699 16.7871 16.2793L16.7871 14.209L14.4531 14.209L14.4531 16.2793Q14.4531 16.6699 14.6875 16.9043Q14.9219 17.1387 15.3223 17.1387Z" fill="#007aff"/>
 </g>
</svg>
