<?xml version="1.0" encoding="UTF-8"?>
<!--Generator: Apple Native CoreSVG 175.5-->
<!DOCTYPE svg
PUBLIC "-//W3C//DTD SVG 1.1//EN"
       "http://www.w3.org/Graphics/SVG/1.1/DTD/svg11.dtd">
<svg version="1.1" xmlns="http://www.w3.org/2000/svg" xmlns:xlink="http://www.w3.org/1999/xlink" width="30.0977" height="24.9512">
 <g>
  <rect height="24.9512" opacity="0" width="30.0977" x="0" y="0"/>
  <path d="M15.0488 5.46875Q15.9473 5.46875 16.7969 5.18555Q17.6465 4.90234 18.335 4.39941Q19.0234 3.89648 19.4287 3.22266Q19.834 2.54883 19.834 1.76758Q19.834 1.28906 19.5508 0.957031Q19.2676 0.625 18.6523 0.429688Q17.8711 0.205078 16.9434 0.102539Q16.0156 0 15.0488 0Q14.0918 0 13.1592 0.102539Q12.2266 0.205078 11.4551 0.429688Q10.8301 0.625 10.5518 0.957031Q10.2734 1.28906 10.2734 1.76758Q10.2734 2.54883 10.6787 3.22266Q11.084 3.89648 11.7676 4.39941Q12.4512 4.90234 13.3057 5.18555Q14.1602 5.46875 15.0488 5.46875ZM14.4141 11.2012L15.6934 11.2012L15.6934 4.6875L14.4141 4.6875ZM2.04102 15.5859Q2.60742 15.5859 3.07129 15.3076Q3.53516 15.0293 3.80859 14.5654Q4.08203 14.1016 4.08203 13.5352Q4.08203 12.9688 3.80859 12.5049Q3.53516 12.041 3.07129 11.7676Q2.60742 11.4941 2.04102 11.4941Q1.47461 11.4941 1.01074 11.7725Q0.546875 12.0508 0.273438 12.5146Q0 12.9785 0 13.5352Q0 14.0918 0.27832 14.5605Q0.556641 15.0293 1.02051 15.3076Q1.48438 15.5859 2.04102 15.5859ZM7.72461 15.5859Q8.41797 15.5859 8.99414 15.2441Q9.57031 14.9023 9.91211 14.3311Q10.2539 13.7598 10.2539 13.0664Q10.2539 12.373 9.91211 11.7969Q9.57031 11.2207 8.99414 10.8789Q8.41797 10.5371 7.72461 10.5371Q7.04102 10.5371 6.46973 10.8789Q5.89844 11.2207 5.55664 11.7969Q5.21484 12.373 5.21484 13.0664Q5.21484 13.7598 5.55664 14.3311Q5.89844 14.9023 6.46973 15.2441Q7.04102 15.5859 7.72461 15.5859ZM15.0586 17.8809Q16.0547 17.8809 16.8701 17.3926Q17.6855 16.9043 18.1738 16.0889Q18.6621 15.2734 18.6621 14.2773Q18.6621 13.2715 18.1738 12.4561Q17.6855 11.6406 16.8701 11.1523Q16.0547 10.6641 15.0586 10.6641Q14.0527 10.6641 13.2373 11.1523Q12.4219 11.6406 11.9336 12.4561Q11.4453 13.2715 11.4453 14.2773Q11.4453 15.2734 11.9336 16.0889Q12.4219 16.9043 13.2373 17.3926Q14.0527 17.8809 15.0586 17.8809ZM22.373 15.5859Q23.0566 15.5859 23.6279 15.2441Q24.1992 14.9023 24.541 14.3311Q24.8828 13.7598 24.8828 13.0664Q24.8828 12.373 24.541 11.7969Q24.1992 11.2207 23.6279 10.8789Q23.0566 10.5371 22.373 10.5371Q21.6797 10.5371 21.1035 10.8789Q20.5273 11.2207 20.1855 11.7969Q19.8438 12.373 19.8438 13.0664Q19.8438 13.7598 20.1855 14.3311Q20.5273 14.9023 21.1035 15.2441Q21.6797 15.5859 22.373 15.5859ZM28.0566 15.5859Q28.6133 15.5859 29.0771 15.3076Q29.541 15.0293 29.8193 14.5605Q30.0977 14.0918 30.0977 13.5352Q30.0977 12.9785 29.8193 12.5146Q29.541 12.0508 29.082 11.7725Q28.623 11.4941 28.0566 11.4941Q27.4902 11.4941 27.0264 11.7676Q26.5625 12.041 26.2891 12.5049Q26.0156 12.9688 26.0156 13.5352Q26.0156 14.1016 26.2891 14.5654Q26.5625 15.0293 27.0264 15.3076Q27.4902 15.5859 28.0566 15.5859ZM15.0586 24.8828Q15.7422 24.8828 16.3086 24.5459Q16.875 24.209 17.2168 23.6377Q17.5586 23.0664 17.5586 22.3828Q17.5586 21.6992 17.2168 21.1279Q16.875 20.5566 16.3086 20.2197Q15.7422 19.8828 15.0586 19.8828Q14.3652 19.8828 13.7988 20.2197Q13.2324 20.5566 12.8906 21.1279Q12.5488 21.6992 12.5488 22.3828Q12.5488 23.0664 12.8906 23.6377Q13.2324 24.209 13.7988 24.5459Q14.3652 24.8828 15.0586 24.8828ZM2.91016 15L1.63086 15Q1.64062 15.9668 2.12402 16.7285Q2.60742 17.4902 3.39355 17.9736Q4.17969 18.457 5.10254 18.5938Q6.02539 18.7305 6.94336 18.4521Q7.86133 18.1738 8.59375 17.4023L7.90039 16.3379Q7.41211 16.9434 6.77246 17.1875Q6.13281 17.4316 5.46387 17.373Q4.79492 17.3145 4.21875 17.0068Q3.64258 16.6992 3.28125 16.1816Q2.91992 15.6641 2.91016 15ZM8.35938 15L7.08008 15Q7.06055 16.0254 7.49512 16.7969Q7.92969 17.5684 8.67676 18.0371Q9.42383 18.5059 10.3418 18.6133Q11.2598 18.7207 12.2217 18.4082Q13.1836 18.0957 14.043 17.3047L12.8223 16.6602Q12.0801 17.2168 11.2939 17.3389Q10.5078 17.4609 9.83398 17.2119Q9.16016 16.9629 8.75 16.3965Q8.33984 15.8301 8.35938 15ZM21.7383 15Q21.7578 15.8301 21.3477 16.3965Q20.9375 16.9629 20.2637 17.2119Q19.5898 17.4609 18.7988 17.3389Q18.0078 17.2168 17.2754 16.6602L16.0547 17.3047Q16.9141 18.0957 17.876 18.4082Q18.8379 18.7207 19.7559 18.6133Q20.6738 18.5059 21.4209 18.0371Q22.168 17.5684 22.6025 16.7969Q23.0371 16.0254 23.0176 15ZM27.1875 15Q27.1777 15.6641 26.8164 16.1816Q26.4551 16.6992 25.8789 17.0068Q25.3027 17.3145 24.6338 17.373Q23.9648 17.4316 23.3252 17.1875Q22.6855 16.9434 22.1973 16.3379L21.5039 17.4023Q22.2363 18.1738 23.1543 18.4521Q24.0723 18.7305 24.9951 18.5938Q25.918 18.457 26.7041 17.9736Q27.4902 17.4902 27.9736 16.7285Q28.457 15.9668 28.4668 15ZM14.4141 17.2754L14.4141 20.6348L15.6934 20.6348L15.6934 17.2754Z" fill="#007aff"/>
 </g>
</svg>
