<?xml version="1.0" encoding="UTF-8"?>
<!--Generator: Apple Native CoreSVG 175-->
<!DOCTYPE svg
PUBLIC "-//W3C//DTD SVG 1.1//EN"
       "http://www.w3.org/Graphics/SVG/1.1/DTD/svg11.dtd">
<svg version="1.1" xmlns="http://www.w3.org/2000/svg" xmlns:xlink="http://www.w3.org/1999/xlink" width="19.1602" height="19.1504">
 <g>
  <rect height="19.1504" opacity="0" width="19.1602" x="0" y="0"/>
  <path d="M9.57031 19.1406Q11.5527 19.1406 13.2861 18.3984Q15.0195 17.6562 16.3379 16.333Q17.6562 15.0098 18.4082 13.2764Q19.1602 11.543 19.1602 9.57031Q19.1602 7.59766 18.4082 5.86426Q17.6562 4.13086 16.3379 2.80762Q15.0195 1.48438 13.2861 0.742188Q11.5527 0 9.57031 0Q7.59766 0 5.86426 0.742188Q4.13086 1.48438 2.81738 2.80762Q1.50391 4.13086 0.751953 5.86426Q0 7.59766 0 9.57031Q0 11.543 0.74707 13.2764Q1.49414 15.0098 2.8125 16.333Q4.13086 17.6562 5.86914 18.3984Q7.60742 19.1406 9.57031 19.1406ZM9.57031 18.3984Q7.74414 18.3984 6.14746 17.71Q4.55078 17.0215 3.33496 15.8105Q2.11914 14.5996 1.43555 12.998Q0.751953 11.3965 0.751953 9.57031Q0.751953 7.74414 1.43555 6.14258Q2.11914 4.54102 3.33496 3.3252Q4.55078 2.10938 6.14746 1.4209Q7.74414 0.732422 9.57031 0.732422Q11.4062 0.732422 13.0029 1.4209Q14.5996 2.10938 15.8154 3.3252Q17.0312 4.54102 17.7197 6.14258Q18.4082 7.74414 18.4082 9.57031Q18.4082 11.3965 17.7246 12.998Q17.041 14.5996 15.8252 15.8105Q14.6094 17.0215 13.0078 17.71Q11.4062 18.3984 9.57031 18.3984ZM4.38477 13.5547Q4.38477 13.7891 4.53125 13.9355Q4.67773 14.082 4.91211 14.082L14.502 14.082Q14.6289 14.082 14.7217 13.999Q14.8145 13.916 14.8145 13.7891Q14.8145 13.6621 14.7266 13.5693Q14.6387 13.4766 14.502 13.4766L5.10742 13.4766Q5 13.4766 5 13.3789L5 5.25391Q5 5.12695 4.91211 5.03418Q4.82422 4.94141 4.69727 4.94141Q4.57031 4.94141 4.47754 5.03418Q4.38477 5.12695 4.38477 5.25391ZM4.90234 11.0645L6.92383 9.08203Q7.08984 8.93555 7.23633 9.08203L9.26758 11.0742Q9.55078 11.3477 9.86328 11.3477Q10.2051 11.3477 10.4688 11.0742L12.6953 8.81836L13.5938 9.6875Q13.7109 9.80469 13.8477 9.76562Q13.9844 9.72656 14.0234 9.57031L14.5605 6.875Q14.6094 6.71875 14.502 6.61621Q14.3945 6.51367 14.2285 6.54297L11.5527 7.08984Q11.3867 7.11914 11.3379 7.26562Q11.2891 7.41211 11.416 7.50977L12.2656 8.38867L10.0195 10.6641Q9.88281 10.8203 9.7168 10.6641L7.67578 8.66211Q7.41211 8.38867 7.08008 8.38867Q6.73828 8.38867 6.47461 8.66211L4.47266 10.6152Z" fill="#007aff"/>
 </g>
</svg>
