<?xml version="1.0" encoding="UTF-8"?>
<!--Generator: Apple Native CoreSVG 175.5-->
<!DOCTYPE svg
PUBLIC "-//W3C//DTD SVG 1.1//EN"
       "http://www.w3.org/Graphics/SVG/1.1/DTD/svg11.dtd">
<svg version="1.1" xmlns="http://www.w3.org/2000/svg" xmlns:xlink="http://www.w3.org/1999/xlink" width="24.541" height="18.4082">
 <g>
  <rect height="18.4082" opacity="0" width="24.541" x="0" y="0"/>
  <path d="M2.03125 18.2617L4.93164 18.2617Q5.94727 18.2617 6.45996 17.7783Q6.97266 17.2949 6.97266 16.3379L6.97266 7.62695Q6.97266 6.66992 6.45996 6.18164Q5.94727 5.69336 4.93164 5.69336L2.03125 5.69336Q1.02539 5.69336 0.512695 6.18164Q0 6.66992 0 7.62695L0 16.3379Q0 17.2949 0.512695 17.7783Q1.02539 18.2617 2.03125 18.2617Z" fill="#007aff"/>
  <path d="M10.8105 18.2617L13.7207 18.2617Q14.7266 18.2617 15.2393 17.7783Q15.752 17.2949 15.752 16.3379L15.752 4.78516Q15.752 3.82812 15.2393 3.33984Q14.7266 2.85156 13.7207 2.85156L10.8105 2.85156Q9.80469 2.85156 9.29199 3.33984Q8.7793 3.82812 8.7793 4.78516L8.7793 16.3379Q8.7793 17.2949 9.29199 17.7783Q9.80469 18.2617 10.8105 18.2617Z" fill="#007aff"/>
  <path d="M19.5898 18.2617L22.5 18.2617Q23.5156 18.2617 24.0283 17.7783Q24.541 17.2949 24.541 16.3379L24.541 1.93359Q24.541 0.976562 24.0283 0.488281Q23.5156 0 22.5 0L19.5898 0Q18.5938 0 18.0811 0.488281Q17.5684 0.976562 17.5684 1.93359L17.5684 16.3379Q17.5684 17.2949 18.0811 17.7783Q18.5938 18.2617 19.5898 18.2617Z" fill="#007aff"/>
 </g>
</svg>
