<?xml version="1.0" encoding="UTF-8"?>
<!--Generator: Apple Native CoreSVG 175.5-->
<!DOCTYPE svg
PUBLIC "-//W3C//DTD SVG 1.1//EN"
       "http://www.w3.org/Graphics/SVG/1.1/DTD/svg11.dtd">
<svg version="1.1" xmlns="http://www.w3.org/2000/svg" xmlns:xlink="http://www.w3.org/1999/xlink" width="22.1826" height="22.2754">
 <g>
  <rect height="22.2754" opacity="0" width="22.1826" x="0" y="0"/>
  <path d="M5.17578 19.5605L7.28516 19.5605Q7.58789 19.5605 7.7832 19.7656L9.28711 21.2598Q10.2148 22.1875 11.0889 22.1826Q11.9629 22.1777 12.8906 21.2598L14.3945 19.7656Q14.5996 19.5605 14.8926 19.5605L17.002 19.5605Q18.3105 19.5605 18.9355 18.9404Q19.5605 18.3203 19.5605 17.002L19.5605 14.8926Q19.5605 14.5996 19.7656 14.3945L21.25 12.8906Q22.1875 11.9727 22.1826 11.0938Q22.1777 10.2148 21.25 9.28711L19.7656 7.7832Q19.5605 7.57812 19.5605 7.29492L19.5605 5.17578Q19.5605 3.87695 18.9404 3.24707Q18.3203 2.61719 17.002 2.61719L14.8926 2.61719Q14.5996 2.61719 14.3945 2.42188L12.8906 0.927734Q11.9629 0 11.0889 0Q10.2148 0 9.28711 0.927734L7.7832 2.42188Q7.58789 2.61719 7.28516 2.61719L5.17578 2.61719Q3.86719 2.61719 3.24219 3.2373Q2.61719 3.85742 2.61719 5.17578L2.61719 7.29492Q2.61719 7.57812 2.42188 7.7832L0.927734 9.28711Q0 10.2148 0 11.0938Q0 11.9727 0.927734 12.8906L2.42188 14.3945Q2.61719 14.5996 2.61719 14.8926L2.61719 17.002Q2.61719 18.3105 3.24219 18.9355Q3.86719 19.5605 5.17578 19.5605ZM5.17578 18.0078Q4.52148 18.0078 4.3457 17.832Q4.16992 17.6562 4.16992 17.002L4.16992 14.375Q4.16992 13.9453 3.86719 13.6426L2.02148 11.8066Q1.55273 11.3379 1.55273 11.0938Q1.55273 10.8496 2.02148 10.3809L3.86719 8.54492Q4.16992 8.23242 4.16992 7.80273L4.16992 5.17578Q4.16992 4.52148 4.34082 4.3457Q4.51172 4.16992 5.17578 4.16992L7.80273 4.16992Q8.25195 4.16992 8.54492 3.86719L10.3809 2.02148Q10.8496 1.5625 11.0889 1.5625Q11.3281 1.5625 11.7969 2.02148L13.6426 3.86719Q13.9355 4.16992 14.375 4.16992L17.002 4.16992Q17.6562 4.16992 17.832 4.35059Q18.0078 4.53125 18.0078 5.17578L18.0078 7.80273Q18.0078 8.23242 18.3203 8.54492L20.166 10.3809Q20.625 10.8496 20.625 11.0938Q20.625 11.3379 20.166 11.8066L18.3203 13.6426Q18.0078 13.9453 18.0078 14.375L18.0078 17.002Q18.0078 17.6562 17.832 17.832Q17.6562 18.0078 17.002 18.0078L14.375 18.0078Q13.9355 18.0078 13.6426 18.3203L11.7969 20.166Q11.3281 20.625 11.0889 20.625Q10.8496 20.625 10.3809 20.166L8.54492 18.3203Q8.25195 18.0078 7.80273 18.0078Z" fill="#007aff"/>
  <path d="M10.0293 15.7227Q10.5273 15.7227 10.8203 15.2734L15.2832 8.24219Q15.3711 8.10547 15.4443 7.94434Q15.5176 7.7832 15.5176 7.61719Q15.5176 7.29492 15.2734 7.09961Q15.0293 6.9043 14.7266 6.9043Q14.3164 6.9043 14.043 7.34375L9.99023 13.8477L8.06641 11.3574Q7.89062 11.123 7.71973 11.04Q7.54883 10.957 7.34375 10.957Q7.03125 10.957 6.81152 11.1865Q6.5918 11.416 6.5918 11.7383Q6.5918 12.041 6.81641 12.3438L9.19922 15.2734Q9.38477 15.5078 9.58496 15.6152Q9.78516 15.7227 10.0293 15.7227Z" fill="#007aff"/>
 </g>
</svg>
