<?xml version="1.0" encoding="UTF-8"?>
<!--Generator: Apple Native CoreSVG 175.5-->
<!DOCTYPE svg
PUBLIC "-//W3C//DTD SVG 1.1//EN"
       "http://www.w3.org/Graphics/SVG/1.1/DTD/svg11.dtd">
<svg version="1.1" xmlns="http://www.w3.org/2000/svg" xmlns:xlink="http://www.w3.org/1999/xlink" width="15.9766" height="19.7168">
 <g>
  <rect height="19.7168" opacity="0" width="15.9766" x="0" y="0"/>
  <path d="M7.98828 19.7168Q8.10547 19.7168 8.27637 19.6729Q8.44727 19.6289 8.63281 19.5312Q10.7227 18.4375 12.1338 17.5586Q13.5449 16.6797 14.3896 15.8203Q15.2344 14.9609 15.6055 13.9697Q15.9766 12.9785 15.9766 11.6602L15.9766 4.29688Q15.9766 3.54492 15.6592 3.21289Q15.3418 2.88086 14.7266 2.62695Q14.3848 2.48047 13.7891 2.25586Q13.1934 2.03125 12.4756 1.76758Q11.7578 1.50391 11.04 1.24023Q10.3223 0.976562 9.73145 0.766602Q9.14062 0.556641 8.79883 0.439453Q8.60352 0.380859 8.39844 0.341797Q8.19336 0.302734 7.98828 0.302734Q7.7832 0.302734 7.58301 0.341797Q7.38281 0.380859 7.1875 0.439453Q6.8457 0.556641 6.25 0.766602Q5.6543 0.976562 4.93652 1.23535Q4.21875 1.49414 3.50098 1.7627Q2.7832 2.03125 2.1875 2.26074Q1.5918 2.49023 1.25 2.62695Q0.644531 2.87109 0.322266 3.20801Q0 3.54492 0 4.29688L0 11.6602Q0 12.9785 0.385742 13.9502Q0.771484 14.9219 1.62598 15.7568Q2.48047 16.5918 3.8916 17.4805Q5.30273 18.3691 7.34375 19.5312Q7.5293 19.6289 7.7002 19.6729Q7.87109 19.7168 7.98828 19.7168Z" fill="#007aff"/>
  <path d="M6.89453 14.4141Q6.64062 14.4141 6.43555 14.3066Q6.23047 14.1992 6.03516 13.9453L3.58398 10.9375Q3.47656 10.791 3.41309 10.6299Q3.34961 10.4688 3.34961 10.3027Q3.34961 9.9707 3.57422 9.73145Q3.79883 9.49219 4.13086 9.49219Q4.3457 9.49219 4.5166 9.58008Q4.6875 9.66797 4.87305 9.91211L6.85547 12.4707L11.0254 5.77148Q11.2988 5.32227 11.7285 5.32227Q12.041 5.32227 12.2949 5.52246Q12.5488 5.72266 12.5488 6.06445Q12.5488 6.23047 12.4707 6.39648Q12.3926 6.5625 12.3047 6.70898L7.71484 13.9453Q7.55859 14.1797 7.35352 14.2969Q7.14844 14.4141 6.89453 14.4141Z" fill="#ffffff"/>
 </g>
</svg>
