<?xml version="1.0" encoding="UTF-8"?>
<!--Generator: Apple Native CoreSVG 175-->
<!DOCTYPE svg
PUBLIC "-//W3C//DTD SVG 1.1//EN"
       "http://www.w3.org/Graphics/SVG/1.1/DTD/svg11.dtd">
<svg version="1.1" xmlns="http://www.w3.org/2000/svg" xmlns:xlink="http://www.w3.org/1999/xlink" width="17.4376" height="15.3934">
 <g>
  <rect height="15.3934" opacity="0" width="17.4376" x="0" y="0"/>
  <path d="M8.0484 15.2368Q8.11218 15.2934 8.17703 15.3336Q8.24188 15.3738 8.3316 15.3738Q8.43796 15.3738 8.52562 15.32Q8.61328 15.2661 8.66371 15.1784Q8.71414 15.0906 8.71414 14.9844Q8.71414 14.8129 8.60779 14.7153L0.616913 7.37534L0.616913 7.98431L8.60779 0.668335Q8.71414 0.556641 8.71414 0.385132Q8.71414 0.278931 8.66371 0.189819Q8.61328 0.100708 8.52562 0.050354Q8.43796 0 8.3316 0Q8.19962 0 8.05542 0.122986L0.187531 7.32574Q0.10437 7.40082 0.0521851 7.49222Q0 7.58362 0 7.6918Q0 7.86606 0.177765 8.04382ZM16.7691 15.2368Q16.8329 15.2934 16.9026 15.3336Q16.9724 15.3738 17.0523 15.3738Q17.1587 15.3738 17.2477 15.32Q17.3367 15.2661 17.3872 15.1784Q17.4376 15.0906 17.4376 14.9844Q17.4376 14.8129 17.3355 14.7153L9.34021 7.37534L9.34021 7.98431L17.3355 0.668335Q17.4376 0.556641 17.4376 0.385132Q17.4376 0.278931 17.3872 0.189819Q17.3367 0.100708 17.2477 0.050354Q17.1587 0 17.0523 0Q16.9231 0 16.7831 0.122986L8.91525 7.32574Q8.83484 7.40082 8.77777 7.49222Q8.7207 7.58362 8.7207 7.6918Q8.7207 7.86606 8.90121 8.04382Z" fill="#ffffff"/>
 </g>
</svg>
