<?xml version="1.0" encoding="UTF-8"?>
<!--Generator: Apple Native CoreSVG 175-->
<!DOCTYPE svg
PUBLIC "-//W3C//DTD SVG 1.1//EN"
       "http://www.w3.org/Graphics/SVG/1.1/DTD/svg11.dtd">
<svg version="1.1" xmlns="http://www.w3.org/2000/svg" xmlns:xlink="http://www.w3.org/1999/xlink" width="17.4414" height="15.4004">
 <g>
  <rect height="15.4004" opacity="0" width="17.4414" x="0" y="0"/>
  <path d="M8.04688 15.2441Q8.11523 15.293 8.17871 15.3369Q8.24219 15.3809 8.33008 15.3809Q8.4375 15.3809 8.52539 15.3271Q8.61328 15.2734 8.66211 15.1855Q8.71094 15.0977 8.71094 14.9902Q8.71094 14.8145 8.60352 14.7168L0.615234 7.38281L0.615234 7.98828L8.60352 0.673828Q8.71094 0.556641 8.71094 0.390625Q8.71094 0.283203 8.66211 0.195312Q8.61328 0.107422 8.52539 0.0537109Q8.4375 0 8.33008 0Q8.20312 0 8.05664 0.126953L0.185547 7.33398Q0.107422 7.40234 0.0537109 7.49512Q0 7.58789 0 7.69531Q0 7.87109 0.175781 8.04688ZM16.7676 15.2441Q16.8359 15.293 16.9043 15.3369Q16.9727 15.3809 17.0508 15.3809Q17.1582 15.3809 17.2461 15.3271Q17.334 15.2734 17.3877 15.1855Q17.4414 15.0977 17.4414 14.9902Q17.4414 14.8145 17.334 14.7168L9.33594 7.38281L9.33594 7.98828L17.334 0.673828Q17.4414 0.556641 17.4414 0.390625Q17.4414 0.283203 17.3877 0.195312Q17.334 0.107422 17.2461 0.0537109Q17.1582 0 17.0508 0Q16.9238 0 16.7871 0.126953L8.91602 7.33398Q8.83789 7.40234 8.7793 7.49512Q8.7207 7.58789 8.7207 7.69531Q8.7207 7.87109 8.89648 8.04688Z" fill="#007aff"/>
 </g>
</svg>
