<?xml version="1.0" encoding="UTF-8"?>
<!--Generator: Apple Native CoreSVG 175-->
<!DOCTYPE svg
PUBLIC "-//W3C//DTD SVG 1.1//EN"
       "http://www.w3.org/Graphics/SVG/1.1/DTD/svg11.dtd">
<svg version="1.1" xmlns="http://www.w3.org/2000/svg" xmlns:xlink="http://www.w3.org/1999/xlink" width="17.2852" height="17.3145">
 <g>
  <rect height="17.3145" opacity="0" width="17.2852" x="0" y="0"/>
  <path d="M2.62695 17.3145L14.6484 17.3145Q15.957 17.3145 16.6211 16.6455Q17.2852 15.9766 17.2852 14.6875L17.2852 2.65625Q17.2852 1.37695 16.6211 0.703125Q15.957 0.0292969 14.6484 0.0292969L2.62695 0.0292969Q1.33789 0.0292969 0.668945 0.693359Q0 1.35742 0 2.65625L0 14.6875Q0 15.9863 0.668945 16.6504Q1.33789 17.3145 2.62695 17.3145ZM2.65625 16.5918Q1.70898 16.5918 1.2207 16.1035Q0.732422 15.6152 0.732422 14.6582L0.732422 2.69531Q0.732422 1.72852 1.2207 1.24512Q1.70898 0.761719 2.65625 0.761719L14.6289 0.761719Q15.5566 0.761719 16.0596 1.24512Q16.5625 1.72852 16.5625 2.69531L16.5625 14.6582Q16.5625 15.6152 16.0596 16.1035Q15.5566 16.5918 14.6289 16.5918ZM10.4492 13.3984Q10.5469 13.291 10.5469 13.1396Q10.5469 12.9883 10.4297 12.8906L6.06445 8.63281L10.4297 4.375Q10.5566 4.26758 10.5518 4.11621Q10.5469 3.96484 10.4395 3.86719Q10.332 3.76953 10.1904 3.76465Q10.0488 3.75977 9.93164 3.87695L5.49805 8.20312Q5.36133 8.33008 5.31738 8.48145Q5.27344 8.63281 5.32227 8.78906Q5.37109 8.94531 5.49805 9.07227L9.93164 13.3984Q10.0488 13.5059 10.1953 13.5059Q10.3418 13.5059 10.4492 13.3984Z" fill="#007aff"/>
 </g>
</svg>
