<?xml version="1.0" encoding="UTF-8"?>
<!--Generator: Apple Native CoreSVG 175.5-->
<!DOCTYPE svg
PUBLIC "-//W3C//DTD SVG 1.1//EN"
       "http://www.w3.org/Graphics/SVG/1.1/DTD/svg11.dtd">
<svg version="1.1" xmlns="http://www.w3.org/2000/svg" xmlns:xlink="http://www.w3.org/1999/xlink" width="4.85352" height="17.4707">
 <g>
  <rect height="17.4707" opacity="0" width="4.85352" x="0" y="0"/>
  <path d="M1.8457 16.7871L4.46289 10.127Q4.58984 9.78516 4.72168 9.4043Q4.85352 9.02344 4.85352 8.70117Q4.85352 8.37891 4.72168 7.99316Q4.58984 7.60742 4.46289 7.27539L1.8457 0.615234Q1.73828 0.332031 1.50391 0.166016Q1.26953 0 1.00586 0Q0.576172 0 0.288086 0.27832Q0 0.556641 0 0.986328Q0 1.20117 0.0927734 1.46484Q0.185547 1.72852 0.253906 1.91406L3.19336 9.39453L3.19336 8.00781L0.253906 15.4883Q0.185547 15.6836 0.0927734 15.9375Q0 16.1914 0 16.416Q0 16.8457 0.288086 17.1289Q0.576172 17.4121 1.00586 17.4121Q1.26953 17.4121 1.50391 17.2412Q1.73828 17.0703 1.8457 16.7871Z" fill="#007aff"/>
 </g>
</svg>
