<?xml version="1.0" encoding="UTF-8"?>
<!--Generator: Apple Native CoreSVG 175.5-->
<!DOCTYPE svg
PUBLIC "-//W3C//DTD SVG 1.1//EN"
       "http://www.w3.org/Graphics/SVG/1.1/DTD/svg11.dtd">
<svg version="1.1" xmlns="http://www.w3.org/2000/svg" xmlns:xlink="http://www.w3.org/1999/xlink" width="9.55078" height="16.9629">
 <g>
  <rect height="16.9629" opacity="0" width="9.55078" x="0" y="0"/>
  <path d="M9.55078 8.47656Q9.55078 8.29102 9.47754 8.12988Q9.4043 7.96875 9.26758 7.83203L1.5332 0.253906Q1.26953 0 0.888672 0Q0.644531 0 0.439453 0.117188Q0.234375 0.234375 0.117188 0.43457Q0 0.634766 0 0.888672Q0 1.25 0.253906 1.52344L7.36328 8.47656L0.253906 15.4297Q0 15.7031 0 16.0645Q0 16.3184 0.117188 16.5186Q0.234375 16.7188 0.439453 16.8359Q0.644531 16.9531 0.888672 16.9531Q1.26953 16.9531 1.5332 16.6895L9.26758 9.12109Q9.4043 8.98438 9.47754 8.82324Q9.55078 8.66211 9.55078 8.47656Z" fill="#007aff"/>
 </g>
</svg>
