<?xml version="1.0" encoding="UTF-8"?>
<!--Generator: Apple Native CoreSVG 175-->
<!DOCTYPE svg
PUBLIC "-//W3C//DTD SVG 1.1//EN"
       "http://www.w3.org/Graphics/SVG/1.1/DTD/svg11.dtd">
<svg version="1.1" xmlns="http://www.w3.org/2000/svg" xmlns:xlink="http://www.w3.org/1999/xlink" width="8.7001" height="15.3458">
 <g>
  <rect height="15.3458" opacity="0" width="8.7001" x="0" y="0"/>
  <path d="M8.7001 7.668Q8.7001 7.56683 8.66196 7.49359Q8.62381 7.42035 8.55743 7.35397L0.668335 0.106201Q0.552368 0 0.382385 0Q0.28595 0 0.196915 0.0468445Q0.10788 0.093689 0.0539398 0.181427Q0 0.269165 0 0.382385Q0 0.539856 0.0991821 0.644531L7.74994 7.668L0.0991821 14.6915Q0 14.7961 0 14.9536Q0 15.0668 0.0539398 15.1511Q0.10788 15.2353 0.196915 15.2856Q0.28595 15.336 0.382385 15.336Q0.552368 15.336 0.668335 15.22L8.55743 7.98203Q8.62381 7.91565 8.66196 7.8389Q8.7001 7.76215 8.7001 7.668Z" fill="#007aff"/>
 </g>
</svg>
