<?xml version="1.0" encoding="UTF-8"?>
<!--Generator: Apple Native CoreSVG 175.5-->
<!DOCTYPE svg
PUBLIC "-//W3C//DTD SVG 1.1//EN"
       "http://www.w3.org/Graphics/SVG/1.1/DTD/svg11.dtd">
<svg version="1.1" xmlns="http://www.w3.org/2000/svg" xmlns:xlink="http://www.w3.org/1999/xlink" width="27.373" height="18.5052">
 <g>
  <rect height="18.5052" opacity="0" width="27.373" x="0" y="0"/>
  <path d="M0 9.24773Q0 9.4528 0.0878906 9.64323Q0.175781 9.83366 0.341797 9.98015L6.86523 15.8688Q7.17773 16.152 7.54395 16.1471Q7.91016 16.1423 8.16406 15.8591Q8.41797 15.5661 8.38379 15.1999Q8.34961 14.8337 8.05664 14.57L2.1875 9.24773L8.05664 3.92546Q8.34961 3.66179 8.38379 3.2907Q8.41797 2.9196 8.16406 2.6364Q7.91016 2.3532 7.54395 2.34831Q7.17773 2.34343 6.86523 2.62663L0.341797 8.50554Q0.175781 8.66179 0.0878906 8.85222Q0 9.04265 0 9.24773ZM11.0156 18.4665Q11.4062 18.5739 11.7236 18.3835Q12.041 18.193 12.1582 17.8024L17.0215 1.13249Q17.1289 0.78093 16.9678 0.46843Q16.8066 0.15593 16.416 0.0582736Q16.0352-0.0491483 15.7275 0.111985Q15.4199 0.273117 15.293 0.722336L10.459 17.3044Q10.3418 17.7048 10.4736 18.0319Q10.6055 18.3591 11.0156 18.4665ZM27.373 9.24773Q27.373 9.04265 27.29 8.85222Q27.207 8.66179 27.041 8.50554L20.5176 2.62663Q20.2051 2.34343 19.8389 2.34831Q19.4727 2.3532 19.2188 2.6364Q18.9551 2.9196 18.9893 3.2907Q19.0234 3.66179 19.3164 3.92546L25.1953 9.24773L19.3164 14.57Q19.0234 14.8337 18.9893 15.1999Q18.9551 15.5661 19.2188 15.8591Q19.4727 16.1423 19.8389 16.1471Q20.2051 16.152 20.5176 15.8688L27.041 9.98015Q27.207 9.83366 27.29 9.64323Q27.373 9.4528 27.373 9.24773Z" fill="#007aff"/>
 </g>
</svg>
