<?xml version="1.0" encoding="UTF-8"?>
<!--Generator: Apple Native CoreSVG 175.5-->
<!DOCTYPE svg
PUBLIC "-//W3C//DTD SVG 1.1//EN"
       "http://www.w3.org/Graphics/SVG/1.1/DTD/svg11.dtd">
<svg version="1.1" xmlns="http://www.w3.org/2000/svg" xmlns:xlink="http://www.w3.org/1999/xlink" width="11.2793" height="16.9824">
 <g>
  <rect height="16.9824" opacity="0" width="11.2793" x="0" y="0"/>
  <path d="M0 16.0742Q0 16.3281 0.117188 16.5332Q0.234375 16.7383 0.439453 16.8555Q0.644531 16.9727 0.898438 16.9727Q1.08398 16.9727 1.24023 16.9043Q1.39648 16.8359 1.5332 16.6992L9.26758 9.14062Q9.55078 8.85742 9.55078 8.48633Q9.55078 8.29102 9.47754 8.125Q9.4043 7.95898 9.27734 7.83203L1.5332 0.263672Q1.39648 0.136719 1.24023 0.0683594Q1.08398 0 0.888672 0Q0.634766 0 0.43457 0.117188Q0.234375 0.234375 0.117188 0.43457Q0 0.634766 0 0.898438Q0 1.08398 0.0683594 1.24512Q0.136719 1.40625 0.263672 1.5332L7.98828 9.08203L7.98828 7.88086L0.263672 15.4395Q0.126953 15.5762 0.0634766 15.7324Q0 15.8887 0 16.0742ZM9.53125 16.123Q9.53125 16.4941 9.77539 16.7334Q10.0195 16.9727 10.4004 16.9727Q10.7812 16.9727 11.0303 16.7334Q11.2793 16.4941 11.2793 16.123L11.2793 0.869141Q11.2793 0.488281 11.0303 0.244141Q10.7812 0 10.4004 0Q10.0195 0 9.77539 0.244141Q9.53125 0.488281 9.53125 0.869141Z" fill="#007aff"/>
 </g>
</svg>
