<?xml version="1.0" encoding="UTF-8"?>
<!--Generator: Apple Native CoreSVG 175-->
<!DOCTYPE svg
PUBLIC "-//W3C//DTD SVG 1.1//EN"
       "http://www.w3.org/Graphics/SVG/1.1/DTD/svg11.dtd">
<svg version="1.1" xmlns="http://www.w3.org/2000/svg" xmlns:xlink="http://www.w3.org/1999/xlink" width="17.2852" height="17.3145">
 <g>
  <rect height="17.3145" opacity="0" width="17.2852" x="0" y="0"/>
  <path d="M2.62695 17.3145L14.6484 17.3145Q15.957 17.3145 16.6211 16.6455Q17.2852 15.9766 17.2852 14.6875L17.2852 2.65625Q17.2852 1.37695 16.6211 0.703125Q15.957 0.0292969 14.6484 0.0292969L2.62695 0.0292969Q1.33789 0.0292969 0.668945 0.693359Q0 1.35742 0 2.65625L0 14.6875Q0 15.9863 0.668945 16.6504Q1.33789 17.3145 2.62695 17.3145ZM9.11133 11.9043Q8.96484 12.0605 8.80859 12.1094Q8.65234 12.1582 8.49609 12.1094Q8.33984 12.0605 8.19336 11.9043L3.85742 7.45117Q3.74023 7.33398 3.73535 7.18262Q3.73047 7.03125 3.84766 6.91406Q3.94531 6.81641 4.10645 6.80664Q4.26758 6.79688 4.38477 6.92383L8.65234 11.3086L12.9297 6.92383Q13.0371 6.79688 13.1982 6.80664Q13.3594 6.81641 13.4668 6.91406Q13.584 7.03125 13.5742 7.18262Q13.5645 7.33398 13.457 7.45117Z" fill="#000000"/>
 </g>
</svg>
