<?xml version="1.0" encoding="UTF-8"?>
<!--Generator: Apple Native CoreSVG 175-->
<!DOCTYPE svg
PUBLIC "-//W3C//DTD SVG 1.1//EN"
       "http://www.w3.org/Graphics/SVG/1.1/DTD/svg11.dtd">
<svg version="1.1" xmlns="http://www.w3.org/2000/svg" xmlns:xlink="http://www.w3.org/1999/xlink" width="17.4376" height="15.3934">
 <g>
  <rect height="15.3934" opacity="0" width="17.4376" x="0" y="0"/>
  <path d="M0.382385 15.3738Q0.47226 15.3738 0.538483 15.3336Q0.604706 15.2934 0.668335 15.2368L8.53638 8.04382Q8.71414 7.86606 8.71414 7.6918Q8.71414 7.58362 8.65845 7.49222Q8.60275 7.40082 8.52234 7.32574L0.658569 0.122986Q0.514526 0 0.382385 0Q0.276184 0 0.188522 0.050354Q0.100861 0.100708 0.0504303 0.189819Q0 0.278931 0 0.385132Q0 0.556641 0.0991821 0.668335L8.09723 7.98431L8.09723 7.37534L0.0991821 14.7153Q0 14.8129 0 14.9844Q0 15.0906 0.0504303 15.1784Q0.100861 15.2661 0.188522 15.32Q0.276184 15.3738 0.382385 15.3738ZM9.11285 15.3738Q9.19296 15.3738 9.25919 15.3336Q9.32541 15.2934 9.38904 15.2368L17.2571 8.04382Q17.4376 7.86606 17.4376 7.6918Q17.4376 7.58362 17.384 7.49222Q17.3305 7.40082 17.2501 7.32574L9.38202 0.122986Q9.23523 0 9.11285 0Q9.00665 0 8.91899 0.050354Q8.83133 0.100708 8.77602 0.189819Q8.7207 0.278931 8.7207 0.385132Q8.7207 0.556641 8.82965 0.668335L16.825 7.98431L16.825 7.37534L8.82965 14.7153Q8.7207 14.8129 8.7207 14.9844Q8.7207 15.0906 8.77602 15.1784Q8.83133 15.2661 8.91899 15.32Q9.00665 15.3738 9.11285 15.3738Z" fill="#007aff"/>
 </g>
</svg>
