<?xml version="1.0" encoding="UTF-8"?>
<!--Generator: Apple Native CoreSVG 175-->
<!DOCTYPE svg
PUBLIC "-//W3C//DTD SVG 1.1//EN"
       "http://www.w3.org/Graphics/SVG/1.1/DTD/svg11.dtd">
<svg version="1.1" xmlns="http://www.w3.org/2000/svg" xmlns:xlink="http://www.w3.org/1999/xlink" width="25.6505" height="18.1719">
 <g>
  <rect height="18.1719" opacity="0" width="25.6505" x="0" y="0"/>
  <path d="M0 9.08108Q0 9.16668 0.038681 9.24809Q0.0773621 9.32949 0.137939 9.3916L7.06207 15.6388Q7.19879 15.7603 7.35764 15.7554Q7.51648 15.7505 7.62268 15.6291Q7.72888 15.5049 7.71584 15.3461Q7.70279 15.1873 7.57858 15.0782L0.957031 9.08108L7.57858 3.07675Q7.70279 2.97482 7.71584 2.81117Q7.72888 2.64752 7.62268 2.53308Q7.51648 2.41146 7.35764 2.40658Q7.19879 2.4017 7.06207 2.52331L0.137939 8.76782Q0.0773621 8.82565 0.038681 8.91056Q0 8.99548 0 9.08108ZM10.1227 18.1521Q10.2884 18.2034 10.4265 18.1219Q10.5646 18.0404 10.6114 17.8749L15.6715 0.529902Q15.7156 0.375178 15.6459 0.238459Q15.5762 0.10174 15.4106 0.060389Q15.2547 0.0162911 15.1193 0.082438Q14.984 0.148585 14.9274 0.337794L9.87549 17.6651Q9.82849 17.8263 9.89357 17.9672Q9.95865 18.108 10.1227 18.1521ZM25.6505 9.08108Q25.6505 8.99548 25.6132 8.91056Q25.5759 8.82565 25.5153 8.76782L18.5912 2.52331Q18.4615 2.4017 18.2991 2.40658Q18.1367 2.41146 18.0305 2.53308Q17.9216 2.64752 17.9346 2.81117Q17.9477 2.97482 18.0719 3.07675L24.7032 9.08108L18.0719 15.0782Q17.9477 15.1873 17.9346 15.3461Q17.9216 15.5049 18.0305 15.6291Q18.1367 15.7505 18.2991 15.7554Q18.4615 15.7603 18.5912 15.6388L25.5153 9.3916Q25.5759 9.32949 25.6132 9.24809Q25.6505 9.16668 25.6505 9.08108Z" fill="#000000"/>
 </g>
</svg>
