<?xml version="1.0" encoding="UTF-8"?>
<!--Generator: Apple Native CoreSVG 175.5-->
<!DOCTYPE svg
PUBLIC "-//W3C//DTD SVG 1.1//EN"
       "http://www.w3.org/Graphics/SVG/1.1/DTD/svg11.dtd">
<svg version="1.1" xmlns="http://www.w3.org/2000/svg" xmlns:xlink="http://www.w3.org/1999/xlink" width="15.0195" height="17.4707">
 <g>
  <rect height="17.4707" opacity="0" width="15.0195" x="0" y="0"/>
  <path d="M7.50977 0Q7.34375 0 7.18262 0.0683594Q7.02148 0.136719 6.8457 0.283203L0.263672 5.625Q0 5.84961 0 6.26953Q0 6.52344 0.117188 6.72363Q0.234375 6.92383 0.43457 7.04102Q0.634766 7.1582 0.888672 7.1582Q1.05469 7.1582 1.21094 7.09961Q1.36719 7.04102 1.54297 6.9043L7.50977 2.04102L13.4766 6.9043Q13.6426 7.04102 13.8037 7.09961Q13.9648 7.1582 14.1211 7.1582Q14.3848 7.1582 14.585 7.04102Q14.7852 6.92383 14.9023 6.72363Q15.0195 6.52344 15.0195 6.26953Q15.0195 5.84961 14.7559 5.625L8.17383 0.273438Q7.99805 0.136719 7.83691 0.0683594Q7.67578 0 7.50977 0ZM7.50977 17.2852Q7.67578 17.2852 7.83691 17.2168Q7.99805 17.1484 8.17383 17.0117L14.7559 11.6602Q15.0195 11.4258 15.0195 11.0156Q15.0195 10.7617 14.9023 10.5566Q14.7852 10.3516 14.585 10.2344Q14.3848 10.1172 14.1211 10.1172Q13.9648 10.1172 13.8037 10.1807Q13.6426 10.2441 13.4766 10.3809L7.50977 15.2441L1.54297 10.3809Q1.36719 10.2441 1.21094 10.1807Q1.05469 10.1172 0.888672 10.1172Q0.634766 10.1172 0.43457 10.2344Q0.234375 10.3516 0.117188 10.5566Q0 10.7617 0 11.0156Q0 11.4258 0.263672 11.6602L6.8457 17.002Q7.02148 17.1484 7.18262 17.2168Q7.34375 17.2852 7.50977 17.2852Z" fill="#007aff"/>
 </g>
</svg>
