<?xml version="1.0" encoding="UTF-8"?>
<!--Generator: Apple Native CoreSVG 175-->
<!DOCTYPE svg
PUBLIC "-//W3C//DTD SVG 1.1//EN"
       "http://www.w3.org/Graphics/SVG/1.1/DTD/svg11.dtd">
<svg version="1.1" xmlns="http://www.w3.org/2000/svg" xmlns:xlink="http://www.w3.org/1999/xlink" width="17.4414" height="15.4004">
 <g>
  <rect height="15.4004" opacity="0" width="17.4414" x="0" y="0"/>
  <path d="M0.380859 15.3809Q0.46875 15.3809 0.537109 15.3369Q0.605469 15.293 0.664062 15.2441L8.53516 8.04688Q8.71094 7.87109 8.71094 7.69531Q8.71094 7.58789 8.65723 7.49512Q8.60352 7.40234 8.52539 7.33398L0.654297 0.126953Q0.517578 0 0.380859 0Q0.273438 0 0.185547 0.0537109Q0.0976562 0.107422 0.0488281 0.195312Q0 0.283203 0 0.390625Q0 0.556641 0.0976562 0.673828L8.0957 7.98828L8.0957 7.38281L0.0976562 14.7168Q0 14.8145 0 14.9902Q0 15.0977 0.0488281 15.1855Q0.0976562 15.2734 0.185547 15.3271Q0.273438 15.3809 0.380859 15.3809ZM9.11133 15.3809Q9.18945 15.3809 9.25781 15.3369Q9.32617 15.293 9.38477 15.2441L17.2559 8.04688Q17.4414 7.87109 17.4414 7.69531Q17.4414 7.58789 17.3877 7.49512Q17.334 7.40234 17.2461 7.33398L9.38477 0.126953Q9.23828 0 9.11133 0Q9.00391 0 8.91602 0.0537109Q8.82812 0.107422 8.77441 0.195312Q8.7207 0.283203 8.7207 0.390625Q8.7207 0.556641 8.82812 0.673828L16.8262 7.98828L16.8262 7.38281L8.82812 14.7168Q8.7207 14.8145 8.7207 14.9902Q8.7207 15.0977 8.77441 15.1855Q8.82812 15.2734 8.91602 15.3271Q9.00391 15.3809 9.11133 15.3809Z" fill="#000000"/>
 </g>
</svg>
