<?xml version="1.0" encoding="UTF-8"?>
<!--Generator: Apple Native CoreSVG 175-->
<!DOCTYPE svg
PUBLIC "-//W3C//DTD SVG 1.1//EN"
       "http://www.w3.org/Graphics/SVG/1.1/DTD/svg11.dtd">
<svg version="1.1" xmlns="http://www.w3.org/2000/svg" xmlns:xlink="http://www.w3.org/1999/xlink" width="22.473" height="22.991">
 <g>
  <rect height="22.991" opacity="0" width="22.473" x="0" y="0"/>
  <path d="M4.25079 15.7317Q5.40161 15.7317 6.36002 15.1506Q7.31842 14.5695 7.89597 13.6063Q8.47351 12.643 8.47351 11.4879Q8.47351 10.3328 7.89597 9.36951Q7.31842 8.40622 6.36002 7.82654Q5.40161 7.24686 4.25079 7.24686Q3.07892 7.24686 2.11563 7.82654Q1.15234 8.40622 0.576172 9.36951Q0 10.3328 0 11.4879Q0 12.643 0.576172 13.6063Q1.15234 14.5695 2.11563 15.1506Q3.07892 15.7317 4.25079 15.7317ZM4.25079 15Q3.26141 15 2.4633 14.5367Q1.66519 14.0735 1.19354 13.2776Q0.721893 12.4817 0.721893 11.4879Q0.721893 10.5153 1.19354 9.71451Q1.66519 8.91373 2.4633 8.43361Q3.26141 7.95349 4.25079 7.95349Q5.23041 7.95349 6.02982 8.43361Q6.82922 8.91373 7.29958 9.71451Q7.76993 10.5153 7.76993 11.4879Q7.76993 12.4817 7.29958 13.2776Q6.82922 14.0735 6.02982 14.5367Q5.23041 15 4.25079 15ZM18.2532 15.7317Q19.4012 15.7317 20.3609 15.1506Q21.3206 14.5695 21.8968 13.6063Q22.473 12.643 22.473 11.4879Q22.473 10.3328 21.8968 9.36951Q21.3206 8.40622 20.3609 7.82654Q19.4012 7.24686 18.2532 7.24686Q17.0786 7.24686 16.1153 7.82654Q15.152 8.40622 14.5758 9.36951Q13.9996 10.3328 13.9996 11.4879Q13.9996 12.643 14.5758 13.6063Q15.152 14.5695 16.1153 15.1506Q17.0786 15.7317 18.2532 15.7317ZM18.2532 15Q17.2566 15 16.4607 14.5367Q15.6648 14.0735 15.1945 13.2776Q14.7243 12.4817 14.7243 11.4879Q14.7243 10.5153 15.1945 9.71451Q15.6648 8.91373 16.4607 8.43361Q17.2566 7.95349 18.2532 7.95349Q19.2328 7.95349 20.0308 8.43361Q20.8289 8.91373 21.2992 9.71451Q21.7696 10.5153 21.7696 11.4879Q21.7696 12.4817 21.2992 13.2776Q20.8289 14.0735 20.0308 14.5367Q19.2328 15 18.2532 15ZM11.2352 22.9785Q12.386 22.9785 13.3457 22.3988Q14.3054 21.8192 14.8816 20.8559Q15.4578 19.8926 15.4578 18.7347Q15.4578 17.5797 14.8816 16.6164Q14.3054 15.6531 13.3457 15.0734Q12.386 14.4937 11.2352 14.4937Q10.0633 14.4937 9.10004 15.0734Q8.13675 15.6531 7.56058 16.6164Q6.98441 17.5797 6.98441 18.7347Q6.98441 19.8926 7.56058 20.8559Q8.13675 21.8192 9.10004 22.3988Q10.0633 22.9785 11.2352 22.9785ZM11.2352 22.2539Q10.2414 22.2539 9.4455 21.7871Q8.6496 21.3203 8.17795 20.5258Q7.7063 19.7313 7.7063 18.7347Q7.7063 17.7621 8.17795 16.9614Q8.6496 16.1606 9.4455 15.6841Q10.2414 15.2075 11.2352 15.2075Q12.2176 15.2075 13.0156 15.6841Q13.8136 16.1606 14.284 16.9614Q14.7543 17.7621 14.7543 18.7347Q14.7543 19.7313 14.284 20.5258Q13.8136 21.3203 13.0156 21.7871Q12.2176 22.2539 11.2352 22.2539ZM11.2352 8.47778Q12.386 8.47778 13.3457 7.90024Q14.3054 7.32269 14.8816 6.35941Q15.4578 5.39612 15.4578 4.24103Q15.4578 3.08319 14.8816 2.11777Q14.3054 1.15234 13.3457 0.576172Q12.386 0 11.2352 0Q10.0633 0 9.10004 0.576172Q8.13675 1.15234 7.56058 2.11777Q6.98441 3.08319 6.98441 4.24103Q6.98441 5.39612 7.56058 6.35941Q8.13675 7.32269 9.10004 7.90024Q10.0633 8.47778 11.2352 8.47778Z" fill="#007aff"/>
 </g>
</svg>
