<?xml version="1.0" encoding="UTF-8"?>
<!--Generator: Apple Native CoreSVG 175-->
<!DOCTYPE svg
PUBLIC "-//W3C//DTD SVG 1.1//EN"
       "http://www.w3.org/Graphics/SVG/1.1/DTD/svg11.dtd">
<svg version="1.1" xmlns="http://www.w3.org/2000/svg" xmlns:xlink="http://www.w3.org/1999/xlink" width="20.0809" height="19.1785">
 <g>
  <rect height="19.1785" opacity="0" width="20.0809" x="0" y="0"/>
  <path d="M2.85156 5.69611Q3.63281 5.69611 4.27734 5.31036Q4.92188 4.92462 5.30762 4.27872Q5.69336 3.63281 5.69336 2.85431Q5.69336 2.08008 5.30762 1.43066Q4.92188 0.78125 4.27734 0.390625Q3.63281 0 2.85156 0Q2.07031 0 1.4209 0.390625Q0.771484 0.78125 0.385742 1.43066Q0 2.08008 0 2.85431Q0 3.63281 0.385742 4.27872Q0.771484 4.92462 1.4209 5.31036Q2.07031 5.69611 2.85156 5.69611ZM2.85156 4.98199Q2.25433 4.98199 1.77032 4.69666Q1.28632 4.41132 1.00235 3.92868Q0.718384 3.44604 0.718384 2.85858Q0.718384 2.26135 1.00235 1.77734Q1.28632 1.29333 1.77032 1.00449Q2.25433 0.715637 2.85156 0.715637Q3.44879 0.715637 3.93143 1.00449Q4.41406 1.29333 4.6994 1.77734Q4.98474 2.26135 4.98474 2.85858Q4.98474 3.44604 4.6994 3.92868Q4.41406 4.41132 3.93143 4.69666Q3.44879 4.98199 2.85156 4.98199ZM10.0488 5.69885Q10.8301 5.69885 11.4746 5.31174Q12.1191 4.92462 12.5063 4.27872Q12.8934 3.63281 12.8934 2.85858Q12.8934 2.07458 12.5063 1.42654Q12.1191 0.778503 11.4746 0.389252Q10.8301 0 10.0488 0Q9.26056 0.00274658 8.61465 0.390625Q7.96875 0.778503 7.57812 1.42654Q7.1875 2.07458 7.1875 2.85858Q7.1875 3.63281 7.57812 4.27872Q7.96875 4.92462 8.61465 5.31174Q9.26056 5.69885 10.0488 5.69885ZM10.0488 4.98199Q9.44458 4.98199 8.96057 4.69666Q8.47656 4.41132 8.1926 3.92868Q7.90863 3.44604 7.90863 2.85858Q7.90863 2.26135 8.1926 1.77734Q8.47656 1.29333 8.96057 1.00449Q9.44458 0.715637 10.0488 0.715637Q10.6461 0.715637 11.1252 1.00449Q11.6043 1.29333 11.8883 1.77734Q12.1722 2.26135 12.1722 2.85858Q12.175 3.44604 11.891 3.92868Q11.6071 4.41132 11.1266 4.69666Q10.6461 4.98199 10.0488 4.98199ZM17.2363 5.69885Q18.0203 5.69885 18.6649 5.31174Q19.3094 4.92462 19.6951 4.27872Q20.0809 3.63281 20.0809 2.85858Q20.0809 2.07458 19.6951 1.42654Q19.3094 0.778503 18.6649 0.389252Q18.0203 0 17.2363 0Q16.4551 0.00274658 15.807 0.390625Q15.159 0.778503 14.7733 1.42654Q14.3875 2.07458 14.3875 2.85858Q14.3875 3.63281 14.7733 4.27872Q15.159 4.92462 15.807 5.31174Q16.4551 5.69885 17.2363 5.69885ZM17.2363 4.98856Q16.6364 4.98856 16.151 4.70535Q15.6656 4.42215 15.3816 3.93547Q15.0977 3.44879 15.0977 2.85858Q15.0977 2.25861 15.3816 1.77185Q15.6656 1.2851 16.151 0.994873Q16.6364 0.704651 17.2363 0.704651Q17.8363 0.704651 18.3195 0.994873Q18.8026 1.2851 19.0894 1.77185Q19.3762 2.25861 19.3762 2.85858Q19.3762 3.44879 19.0894 3.93547Q18.8026 4.42215 18.3195 4.70535Q17.8363 4.98856 17.2363 4.98856ZM2.85156 12.4316Q3.63281 12.4316 4.27734 12.0445Q4.92188 11.6574 5.30762 11.0129Q5.69336 10.3683 5.69336 9.5871Q5.69336 8.80585 5.30762 8.15643Q4.92188 7.50702 4.27734 7.11777Q3.63281 6.72852 2.85156 6.73126Q2.07031 6.73126 1.4209 7.12051Q0.771484 7.50977 0.385742 8.15781Q0 8.80585 0 9.5871Q0 10.3683 0.385742 11.0129Q0.771484 11.6574 1.4209 12.0445Q2.07031 12.4316 2.85156 12.4316ZM2.85156 11.7241Q2.25159 11.7241 1.76483 11.4374Q1.27808 11.1507 0.992737 10.6675Q0.707397 10.1843 0.707397 9.58435Q0.707397 8.99414 0.992737 8.50739Q1.27808 8.02063 1.76483 7.72903Q2.25159 7.43744 2.85156 7.43744Q3.45154 7.43744 3.93692 7.72903Q4.4223 8.02063 4.70413 8.50739Q4.98596 8.99414 4.98596 9.58435Q4.98596 10.1843 4.70413 10.6675Q4.4223 11.1507 3.93692 11.4374Q3.45154 11.7241 2.85156 11.7241ZM10.0488 12.4316Q10.8301 12.4316 11.4746 12.0445Q12.1191 11.6574 12.5063 11.0129Q12.8934 10.3683 12.8934 9.5871Q12.8934 8.80585 12.5063 8.15643Q12.1191 7.50702 11.4746 7.11777Q10.8301 6.72852 10.0488 6.73126Q9.26056 6.73126 8.61465 7.12051Q7.96875 7.50977 7.57812 8.15781Q7.1875 8.80585 7.1875 9.5871Q7.1875 10.3683 7.57812 11.0129Q7.96875 11.6574 8.61465 12.0445Q9.26056 12.4316 10.0488 12.4316ZM10.0488 11.7241Q9.44183 11.7241 8.95508 11.4374Q8.46832 11.1507 8.18512 10.6675Q7.90192 10.1843 7.90192 9.58435Q7.90192 8.99414 8.18512 8.50739Q8.46832 8.02063 8.95508 7.72903Q9.44183 7.43744 10.0488 7.43744Q10.6418 7.43744 11.1272 7.72903Q11.6125 8.02063 11.8993 8.50739Q12.186 8.99414 12.186 9.58435Q12.186 10.1843 11.8993 10.6675Q11.6125 11.1507 11.1272 11.4374Q10.6418 11.7241 10.0488 11.7241ZM17.2363 12.4316Q18.0203 12.4316 18.6649 12.0445Q19.3094 11.6574 19.6951 11.0129Q20.0809 10.3683 20.0809 9.5871Q20.0809 8.80585 19.6951 8.15643Q19.3094 7.50702 18.6649 7.11777Q18.0203 6.72852 17.2363 6.73126Q16.4551 6.73126 15.807 7.12051Q15.159 7.50977 14.7733 8.15781Q14.3875 8.80585 14.3875 9.5871Q14.3875 10.3683 14.7733 11.0129Q15.159 11.6574 15.807 12.0445Q16.4551 12.4316 17.2363 12.4316ZM17.2363 11.7241Q16.6364 11.7241 16.151 11.4374Q15.6656 11.1507 15.3816 10.6675Q15.0977 10.1843 15.0977 9.58435Q15.0977 8.99414 15.3816 8.50739Q15.6656 8.02063 16.151 7.72903Q16.6364 7.43744 17.2363 7.43744Q17.8363 7.43744 18.3195 7.72903Q18.8026 8.02063 19.0894 8.50739Q19.3762 8.99414 19.3762 9.58435Q19.3762 10.1843 19.0894 10.6675Q18.8026 11.1507 18.3195 11.4374Q17.8363 11.7241 17.2363 11.7241ZM2.85156 19.1531Q3.63281 19.1531 4.27734 18.766Q4.92188 18.3789 5.30762 17.7309Q5.69336 17.0828 5.69336 16.3086Q5.69336 15.5273 5.30762 14.8779Q4.92188 14.2285 4.27734 13.8393Q3.63281 13.45 2.85156 13.45Q2.07031 13.45 1.4209 13.8393Q0.771484 14.2285 0.385742 14.8779Q0 15.5273 0 16.3086Q0 17.0828 0.385742 17.7309Q0.771484 18.3789 1.4209 18.766Q2.07031 19.1531 2.85156 19.1531ZM2.85156 18.4386Q2.25159 18.4386 1.76483 18.1554Q1.27808 17.8722 0.992737 17.3855Q0.707397 16.8988 0.707397 16.3058Q0.707397 15.7156 0.992737 15.2254Q1.27808 14.7351 1.76483 14.447Q2.25159 14.1589 2.85156 14.1589Q3.45154 14.1589 3.93692 14.447Q4.4223 14.7351 4.70413 15.2254Q4.98596 15.7156 4.98596 16.3058Q4.98596 16.8988 4.70413 17.3855Q4.4223 17.8722 3.93692 18.1554Q3.45154 18.4386 2.85156 18.4386ZM10.0488 19.1531Q10.8301 19.1531 11.4746 18.766Q12.1191 18.3789 12.5063 17.7309Q12.8934 17.0828 12.8934 16.3086Q12.8934 15.5273 12.5063 14.8779Q12.1191 14.2285 11.4746 13.8393Q10.8301 13.45 10.0488 13.45Q9.26056 13.45 8.61465 13.8393Q7.96875 14.2285 7.57812 14.8779Q7.1875 15.5273 7.1875 16.3086Q7.1875 17.0828 7.57812 17.7309Q7.96875 18.3789 8.61465 18.766Q9.26056 19.1531 10.0488 19.1531ZM10.0488 18.4386Q9.44183 18.4386 8.95508 18.1554Q8.46832 17.8722 8.18512 17.3855Q7.90192 16.8988 7.90192 16.3058Q7.90192 15.7156 8.18512 15.2254Q8.46832 14.7351 8.95508 14.447Q9.44183 14.1589 10.0488 14.1589Q10.6418 14.1589 11.1272 14.447Q11.6125 14.7351 11.8993 15.2254Q12.186 15.7156 12.186 16.3058Q12.186 16.8988 11.8993 17.3855Q11.6125 17.8722 11.1272 18.1554Q10.6418 18.4386 10.0488 18.4386ZM17.2363 19.1531Q18.0203 19.1531 18.6649 18.766Q19.3094 18.3789 19.6951 17.7309Q20.0809 17.0828 20.0809 16.3086Q20.0809 15.5273 19.6951 14.8779Q19.3094 14.2285 18.6649 13.8393Q18.0203 13.45 17.2363 13.45Q16.4551 13.45 15.807 13.8393Q15.159 14.2285 14.7733 14.8779Q14.3875 15.5273 14.3875 16.3086Q14.3875 17.0828 14.7733 17.7309Q15.159 18.3789 15.807 18.766Q16.4551 19.1531 17.2363 19.1531ZM17.2363 18.4386Q16.6364 18.4386 16.151 18.1554Q15.6656 17.8722 15.3816 17.3855Q15.0977 16.8988 15.0977 16.3058Q15.0977 15.7156 15.3816 15.2254Q15.6656 14.7351 16.151 14.447Q16.6364 14.1589 17.2363 14.1589Q17.8363 14.1589 18.3195 14.447Q18.8026 14.7351 19.0894 15.2254Q19.3762 15.7156 19.3762 16.3058Q19.3762 16.8988 19.0894 17.3855Q18.8026 17.8722 18.3195 18.1554Q17.8363 18.4386 17.2363 18.4386Z" fill="#000000"/>
 </g>
</svg>
