<?xml version="1.0" encoding="UTF-8"?>
<!--Generator: Apple Native CoreSVG 175.5-->
<!DOCTYPE svg
PUBLIC "-//W3C//DTD SVG 1.1//EN"
       "http://www.w3.org/Graphics/SVG/1.1/DTD/svg11.dtd">
<svg version="1.1" xmlns="http://www.w3.org/2000/svg" xmlns:xlink="http://www.w3.org/1999/xlink" width="20.2637" height="18.7793">
 <g>
  <rect height="18.7793" opacity="0" width="20.2637" x="0" y="0"/>
  <path d="M6.55273 5.92773Q7.36328 5.92773 8.03711 5.52734Q8.71094 5.12695 9.11621 4.45312Q9.52148 3.7793 9.52148 2.96875Q9.52148 2.1582 9.11621 1.48438Q8.71094 0.810547 8.03711 0.405273Q7.36328 0 6.55273 0Q5.74219 0 5.06836 0.405273Q4.39453 0.810547 3.98926 1.48438Q3.58398 2.1582 3.58398 2.96875Q3.58398 3.76953 3.98438 4.44336Q4.38477 5.11719 5.05859 5.52246Q5.73242 5.92773 6.55273 5.92773ZM13.7109 5.92773Q14.5215 5.92773 15.2002 5.52734Q15.8789 5.12695 16.2842 4.45312Q16.6895 3.7793 16.6895 2.96875Q16.6895 2.1582 16.2842 1.48438Q15.8789 0.810547 15.2002 0.405273Q14.5215 0 13.7109 0Q12.9004 0 12.2266 0.405273Q11.5527 0.810547 11.1475 1.48438Q10.7422 2.1582 10.7422 2.96875Q10.7422 3.7793 11.1475 4.45312Q11.5527 5.12695 12.2266 5.52734Q12.9004 5.92773 13.7109 5.92773ZM2.96875 12.3535Q3.7793 12.3535 4.45801 11.9482Q5.13672 11.543 5.54199 10.8691Q5.94727 10.1953 5.94727 9.38477Q5.94727 8.57422 5.54199 7.89551Q5.13672 7.2168 4.45801 6.81641Q3.7793 6.41602 2.96875 6.41602Q2.1582 6.41602 1.48438 6.81641Q0.810547 7.2168 0.405273 7.89551Q0 8.57422 0 9.38477Q0 10.1855 0.400391 10.8643Q0.800781 11.543 1.47949 11.9482Q2.1582 12.3535 2.96875 12.3535ZM17.2949 12.3535Q18.1055 12.3535 18.7793 11.9482Q19.4531 11.543 19.8584 10.8691Q20.2637 10.1953 20.2637 9.38477Q20.2637 8.57422 19.8584 7.89551Q19.4531 7.2168 18.7793 6.81641Q18.1055 6.41602 17.2949 6.41602Q16.4844 6.41602 15.8057 6.81641Q15.127 7.2168 14.7217 7.89551Q14.3164 8.57422 14.3164 9.38477Q14.3164 10.1953 14.7217 10.8691Q15.127 11.543 15.8057 11.9482Q16.4844 12.3535 17.2949 12.3535ZM6.55273 18.7695Q7.36328 18.7695 8.03711 18.3643Q8.71094 17.959 9.11621 17.2852Q9.52148 16.6113 9.52148 15.8008Q9.52148 14.9902 9.11621 14.3164Q8.71094 13.6426 8.03711 13.2373Q7.36328 12.832 6.55273 12.832Q5.74219 12.832 5.06836 13.2373Q4.39453 13.6426 3.98926 14.3164Q3.58398 14.9902 3.58398 15.8008Q3.58398 16.6016 3.98438 17.2803Q4.38477 17.959 5.05859 18.3643Q5.73242 18.7695 6.55273 18.7695ZM13.7109 18.7695Q14.5215 18.7695 15.2002 18.3643Q15.8789 17.959 16.2842 17.2852Q16.6895 16.6113 16.6895 15.8008Q16.6895 14.9902 16.2842 14.3164Q15.8789 13.6426 15.2002 13.2373Q14.5215 12.832 13.7109 12.832Q12.9004 12.832 12.2266 13.2373Q11.5527 13.6426 11.1475 14.3164Q10.7422 14.9902 10.7422 15.8008Q10.7422 16.6113 11.1475 17.2852Q11.5527 17.959 12.2266 18.3643Q12.9004 18.7695 13.7109 18.7695Z" fill="#007aff"/>
 </g>
</svg>
