<?xml version="1.0" encoding="UTF-8"?>
<!--Generator: Apple Native CoreSVG 175-->
<!DOCTYPE svg
PUBLIC "-//W3C//DTD SVG 1.1//EN"
       "http://www.w3.org/Graphics/SVG/1.1/DTD/svg11.dtd">
<svg version="1.1" xmlns="http://www.w3.org/2000/svg" xmlns:xlink="http://www.w3.org/1999/xlink" width="22.473" height="22.991">
 <g>
  <rect height="22.991" opacity="0" width="22.473" x="0" y="0"/>
  <path d="M4.25079 15.7317Q5.40161 15.7317 6.36002 15.1506Q7.31842 14.5695 7.89597 13.6063Q8.47351 12.643 8.47351 11.4879Q8.47351 10.3328 7.89597 9.36951Q7.31842 8.40622 6.36002 7.82654Q5.40161 7.24686 4.25079 7.24686Q3.07892 7.24686 2.11563 7.82654Q1.15234 8.40622 0.576172 9.36951Q0 10.3328 0 11.4879Q0 12.643 0.576172 13.6063Q1.15234 14.5695 2.11563 15.1506Q3.07892 15.7317 4.25079 15.7317ZM11.2352 8.47778Q12.386 8.47778 13.3457 7.90024Q14.3054 7.32269 14.8816 6.35941Q15.4578 5.39612 15.4578 4.24103Q15.4578 3.08319 14.8816 2.11777Q14.3054 1.15234 13.3457 0.576172Q12.386 0 11.2352 0Q10.0633 0 9.10004 0.576172Q8.13675 1.15234 7.56058 2.11777Q6.98441 3.08319 6.98441 4.24103Q6.98441 5.39612 7.56058 6.35941Q8.13675 7.32269 9.10004 7.90024Q10.0633 8.47778 11.2352 8.47778ZM18.2532 15.7317Q19.4012 15.7317 20.3609 15.1506Q21.3206 14.5695 21.8968 13.6063Q22.473 12.643 22.473 11.4879Q22.473 10.3328 21.8968 9.36951Q21.3206 8.40622 20.3609 7.82654Q19.4012 7.24686 18.2532 7.24686Q17.0786 7.24686 16.1153 7.82654Q15.152 8.40622 14.5758 9.36951Q13.9996 10.3328 13.9996 11.4879Q13.9996 12.643 14.5758 13.6063Q15.152 14.5695 16.1153 15.1506Q17.0786 15.7317 18.2532 15.7317ZM11.2352 22.9785Q12.386 22.9785 13.3457 22.3988Q14.3054 21.8192 14.8816 20.8559Q15.4578 19.8926 15.4578 18.7347Q15.4578 17.5797 14.8816 16.6164Q14.3054 15.6531 13.3457 15.0734Q12.386 14.4937 11.2352 14.4937Q10.0633 14.4937 9.10004 15.0734Q8.13675 15.6531 7.56058 16.6164Q6.98441 17.5797 6.98441 18.7347Q6.98441 19.8926 7.56058 20.8559Q8.13675 21.8192 9.10004 22.3988Q10.0633 22.9785 11.2352 22.9785Z" fill="#007aff"/>
 </g>
</svg>
