<?xml version="1.0" encoding="UTF-8"?>
<!--Generator: Apple Native CoreSVG 175-->
<!DOCTYPE svg
PUBLIC "-//W3C//DTD SVG 1.1//EN"
       "http://www.w3.org/Graphics/SVG/1.1/DTD/svg11.dtd">
<svg version="1.1" xmlns="http://www.w3.org/2000/svg" xmlns:xlink="http://www.w3.org/1999/xlink" width="25.5984" height="19.1583">
 <g>
  <rect height="19.1583" opacity="0" width="25.5984" x="0" y="0"/>
  <path d="M0 9.59534Q0 9.74182 0.105057 9.84833Q0.210114 9.95483 0.358276 9.95483L25.2473 9.95483Q25.3883 9.95483 25.4934 9.84833Q25.5984 9.74182 25.5984 9.59534Q25.5984 9.44458 25.4934 9.33815Q25.3883 9.23172 25.2473 9.23172L0.358276 9.23172Q0.210114 9.23172 0.105057 9.33815Q0 9.44458 0 9.59534ZM12.8055 19.1486Q14.7762 19.1486 16.5112 18.4024Q18.2462 17.6562 19.5634 16.3356Q20.8806 15.015 21.6302 13.28Q22.3798 11.545 22.3798 9.57428Q22.3798 7.60361 21.6288 5.86861Q20.8778 4.13361 19.5606 2.81296Q18.2434 1.49231 16.5084 0.746155Q14.7734 0 12.8027 0Q10.8293 0 9.09576 0.746155Q7.36221 1.49231 6.04149 2.81296Q4.72076 4.13361 3.97247 5.86861Q3.22418 7.60361 3.22418 9.57428Q3.22418 11.545 3.97385 13.28Q4.72351 15.015 6.04286 16.3356Q7.36221 17.6562 9.09363 18.4024Q10.825 19.1486 12.8055 19.1486ZM12.8055 18.4024Q10.9715 18.4024 9.37271 17.7157Q7.7739 17.029 6.55884 15.8174Q5.34378 14.6059 4.65706 13.0035Q3.97034 11.4012 3.97034 9.57428Q3.97034 7.74734 4.65569 6.14502Q5.34103 4.54269 6.55609 3.32626Q7.77115 2.10983 9.36996 1.42448Q10.9688 0.739136 12.8027 0.739136Q14.6269 0.739136 16.2271 1.42448Q17.8273 2.10983 19.0424 3.32626Q20.2574 4.54269 20.9441 6.14502Q21.6309 7.74734 21.6336 9.57428Q21.6336 11.4012 20.9483 13.0035Q20.2629 14.6059 19.0465 15.8174Q17.83 17.029 16.2299 17.7157Q14.6297 18.4024 12.8055 18.4024Z" fill="#007aff"/>
 </g>
</svg>
