<?xml version="1.0" encoding="UTF-8"?>
<!--Generator: Apple Native CoreSVG 175.5-->
<!DOCTYPE svg
PUBLIC "-//W3C//DTD SVG 1.1//EN"
       "http://www.w3.org/Graphics/SVG/1.1/DTD/svg11.dtd">
<svg version="1.1" xmlns="http://www.w3.org/2000/svg" xmlns:xlink="http://www.w3.org/1999/xlink" width="19.2578" height="18.5449">
 <g>
  <rect height="18.5449" opacity="0" width="19.2578" x="0" y="0"/>
  <path d="M4.25781 8.50586Q5.42969 8.50586 6.3916 7.9248Q7.35352 7.34375 7.93457 6.37695Q8.51562 5.41016 8.51562 4.24805Q8.51562 3.08594 7.93457 2.11914Q7.35352 1.15234 6.3916 0.576172Q5.42969 0 4.25781 0Q3.08594 0 2.11914 0.576172Q1.15234 1.15234 0.576172 2.11914Q0 3.08594 0 4.24805Q0 5.41016 0.576172 6.37695Q1.15234 7.34375 2.11914 7.9248Q3.08594 8.50586 4.25781 8.50586ZM15.0098 8.50586Q16.1719 8.50586 17.1387 7.9248Q18.1055 7.34375 18.6816 6.37695Q19.2578 5.41016 19.2578 4.24805Q19.2578 3.08594 18.6816 2.11914Q18.1055 1.15234 17.1387 0.576172Q16.1719 0 15.0098 0Q13.8281 0 12.8613 0.576172Q11.8945 1.15234 11.3232 2.11914Q10.752 3.08594 10.752 4.24805Q10.752 5.41016 11.3232 6.37695Q11.8945 7.34375 12.8613 7.9248Q13.8281 8.50586 15.0098 8.50586ZM4.25781 18.5449Q5.42969 18.5449 6.3916 17.9688Q7.35352 17.3926 7.93457 16.4258Q8.51562 15.459 8.51562 14.2871Q8.51562 13.125 7.93457 12.1631Q7.35352 11.2012 6.3916 10.6201Q5.42969 10.0391 4.25781 10.0391Q3.08594 10.0391 2.11914 10.6201Q1.15234 11.2012 0.576172 12.1631Q0 13.125 0 14.2871Q0 15.459 0.576172 16.4258Q1.15234 17.3926 2.11914 17.9688Q3.08594 18.5449 4.25781 18.5449ZM15.0098 18.5449Q16.1719 18.5449 17.1387 17.9688Q18.1055 17.3926 18.6816 16.4258Q19.2578 15.459 19.2578 14.2871Q19.2578 13.125 18.6816 12.1631Q18.1055 11.2012 17.1387 10.6201Q16.1719 10.0391 15.0098 10.0391Q13.8281 10.0391 12.8613 10.6201Q11.8945 11.2012 11.3232 12.1631Q10.752 13.125 10.752 14.2871Q10.752 15.459 11.3232 16.4258Q11.8945 17.3926 12.8613 17.9688Q13.8281 18.5449 15.0098 18.5449Z" fill="#007aff"/>
 </g>
</svg>
