<?xml version="1.0" encoding="UTF-8"?>
<!--Generator: Apple Native CoreSVG 175-->
<!DOCTYPE svg
PUBLIC "-//W3C//DTD SVG 1.1//EN"
       "http://www.w3.org/Graphics/SVG/1.1/DTD/svg11.dtd">
<svg version="1.1" xmlns="http://www.w3.org/2000/svg" xmlns:xlink="http://www.w3.org/1999/xlink" width="23.5637" height="10.5612">
 <g>
  <rect height="10.5612" opacity="0" width="23.5637" x="0" y="0"/>
  <path d="M5.2829 10.5444Q6.34918 10.5444 7.29729 10.1318Q8.24539 9.71909 8.97034 8.99055Q9.69528 8.26202 10.108 7.3056Q10.5208 6.34918 10.5208 5.27573Q10.5208 4.19525 10.108 3.24371Q9.69528 2.29218 8.97034 1.56227Q8.24539 0.832367 7.29729 0.416183Q6.34918 0 5.2829 0Q4.18549 0 3.22906 0.416183Q2.27264 0.832367 1.54762 1.56227Q0.822601 2.29218 0.411301 3.24371Q0 4.19525 0 5.27573Q0 6.34918 0.411301 7.3056Q0.822601 8.26202 1.54762 8.99055Q2.27264 9.71909 3.22906 10.1318Q4.18549 10.5444 5.2829 10.5444ZM18.3258 10.5444Q19.3993 10.5444 20.3438 10.1318Q21.2883 9.71909 22.0147 8.99055Q22.7411 8.26202 23.1524 7.3056Q23.5637 6.34918 23.5637 5.27573Q23.5637 4.19525 23.1524 3.24371Q22.7411 2.29218 22.0147 1.56227Q21.2883 0.832367 20.3438 0.416183Q19.3993 0 18.3258 0Q17.2356 0 16.2756 0.416183Q15.3157 0.832367 14.5907 1.56227Q13.8657 2.29218 13.4544 3.24371Q13.0431 4.19525 13.0431 5.27573Q13.0431 6.34918 13.4544 7.3056Q13.8657 8.26202 14.5907 8.99055Q15.3157 9.71909 16.2756 10.1318Q17.2356 10.5444 18.3258 10.5444Z" fill="#ffffff"/>
 </g>
</svg>
