<?xml version="1.0" encoding="UTF-8"?>
<!--Generator: Apple Native CoreSVG 175.5-->
<!DOCTYPE svg
PUBLIC "-//W3C//DTD SVG 1.1//EN"
       "http://www.w3.org/Graphics/SVG/1.1/DTD/svg11.dtd">
<svg version="1.1" xmlns="http://www.w3.org/2000/svg" xmlns:xlink="http://www.w3.org/1999/xlink" width="19.9219" height="19.9316">
 <g>
  <rect height="19.9316" opacity="0" width="19.9219" x="0" y="0"/>
  <path d="M9.96094 19.9219Q12.002 19.9219 13.8037 19.1406Q15.6055 18.3594 16.9824 16.9824Q18.3594 15.6055 19.1406 13.8037Q19.9219 12.002 19.9219 9.96094Q19.9219 7.91992 19.1406 6.11816Q18.3594 4.31641 16.9824 2.93945Q15.6055 1.5625 13.7988 0.78125Q11.9922 0 9.95117 0Q7.91016 0 6.1084 0.78125Q4.30664 1.5625 2.93457 2.93945Q1.5625 4.31641 0.78125 6.11816Q0 7.91992 0 9.96094Q0 12.002 0.78125 13.8037Q1.5625 15.6055 2.93945 16.9824Q4.31641 18.3594 6.11816 19.1406Q7.91992 19.9219 9.96094 19.9219ZM9.96094 18.2617Q8.23242 18.2617 6.72852 17.6172Q5.22461 16.9727 4.08691 15.835Q2.94922 14.6973 2.30957 13.1934Q1.66992 11.6895 1.66992 9.96094Q1.66992 8.23242 2.30957 6.72852Q2.94922 5.22461 4.08203 4.08203Q5.21484 2.93945 6.71875 2.2998Q8.22266 1.66016 9.95117 1.66016Q11.6797 1.66016 13.1885 2.2998Q14.6973 2.93945 15.835 4.08203Q16.9727 5.22461 17.6172 6.72852Q18.2617 8.23242 18.2617 9.96094Q18.2617 11.6895 17.6221 13.1934Q16.9824 14.6973 15.8398 15.835Q14.6973 16.9727 13.1934 17.6172Q11.6895 18.2617 9.96094 18.2617Z" fill="#007aff"/>
  <path d="M9.99023 15.2051Q11.0645 15.2051 12.0117 14.79Q12.959 14.375 13.6816 13.6523Q14.4043 12.9297 14.8145 11.9873Q15.2246 11.0449 15.2246 9.9707Q15.2246 8.90625 14.8096 7.95898Q14.3945 7.01172 13.6719 6.28906Q12.9492 5.56641 12.0068 5.15137Q11.0645 4.73633 9.99023 4.73633Q8.92578 4.73633 7.97852 5.15137Q7.03125 5.56641 6.30859 6.28906Q5.58594 7.01172 5.17578 7.95898Q4.76562 8.90625 4.76562 9.9707Q4.76562 11.0352 5.17578 11.9824Q5.58594 12.9297 6.31348 13.6523Q7.04102 14.375 7.9834 14.79Q8.92578 15.2051 9.99023 15.2051ZM9.99023 13.6816Q8.98438 13.6816 8.14453 13.1738Q7.30469 12.666 6.79688 11.8213Q6.28906 10.9766 6.28906 9.9707Q6.28906 8.95508 6.79199 8.11035Q7.29492 7.26562 8.13965 6.7627Q8.98438 6.25977 9.99023 6.25977Q11.0059 6.25977 11.8457 6.76758Q12.6855 7.27539 13.1934 8.12012Q13.7012 8.96484 13.7012 9.9707Q13.7012 10.9863 13.1934 11.8311Q12.6855 12.6758 11.8457 13.1787Q11.0059 13.6816 9.99023 13.6816Z" fill="#007aff"/>
 </g>
</svg>
