<?xml version="1.0" encoding="UTF-8"?>
<!--Generator: Apple Native CoreSVG 175-->
<!DOCTYPE svg
PUBLIC "-//W3C//DTD SVG 1.1//EN"
       "http://www.w3.org/Graphics/SVG/1.1/DTD/svg11.dtd">
<svg version="1.1" xmlns="http://www.w3.org/2000/svg" xmlns:xlink="http://www.w3.org/1999/xlink" width="19.1554" height="19.1583">
 <g>
  <rect height="19.1583" opacity="0" width="19.1554" x="0" y="0"/>
  <path d="M9.57428 19.1486Q11.552 19.1486 13.2834 18.4024Q15.0148 17.6562 16.3355 16.3356Q17.6562 15.015 18.4058 13.28Q19.1554 11.545 19.1554 9.57428Q19.1554 7.60361 18.4058 5.86861Q17.6562 4.13361 16.3369 2.81296Q15.0175 1.49231 13.2812 0.746155Q11.545 0 9.57428 0Q7.60345 0 5.86853 0.746155Q4.13361 1.49231 2.81288 2.81296Q1.49216 4.13361 0.746078 5.86861Q0 7.60361 0 9.57428Q0 11.545 0.746078 13.28Q1.49216 15.015 2.81288 16.3356Q4.13361 17.6562 5.86853 18.4024Q7.60345 19.1486 9.57428 19.1486ZM9.57428 18.4024Q7.74734 18.4024 6.14716 17.7157Q4.54697 17.029 3.33191 15.8174Q2.11685 14.6059 1.4315 13.0035Q0.746155 11.4012 0.746155 9.57428Q0.746155 7.74734 1.43288 6.14502Q2.1196 4.54269 3.33466 3.32626Q4.54971 2.10983 6.1499 1.42448Q7.75009 0.739136 9.57428 0.739136Z" fill="#ffffff"/>
 </g>
</svg>
