<?xml version="1.0" encoding="UTF-8"?>
<!--Generator: Apple Native CoreSVG 175-->
<!DOCTYPE svg
PUBLIC "-//W3C//DTD SVG 1.1//EN"
       "http://www.w3.org/Graphics/SVG/1.1/DTD/svg11.dtd">
<svg version="1.1" xmlns="http://www.w3.org/2000/svg" xmlns:xlink="http://www.w3.org/1999/xlink" width="19.1602" height="19.1504">
 <g>
  <rect height="19.1504" opacity="0" width="19.1602" x="0" y="0"/>
  <path d="M9.57031 19.1406Q11.5527 19.1406 13.2861 18.3984Q15.0195 17.6562 16.3379 16.333Q17.6562 15.0098 18.4082 13.2764Q19.1602 11.543 19.1602 9.57031Q19.1602 7.59766 18.4082 5.86426Q17.6562 4.13086 16.3379 2.80762Q15.0195 1.48438 13.2861 0.742188Q11.5527 0 9.57031 0Q7.59766 0 5.86426 0.742188Q4.13086 1.48438 2.81738 2.80762Q1.50391 4.13086 0.751953 5.86426Q0 7.59766 0 9.57031Q0 11.543 0.74707 13.2764Q1.49414 15.0098 2.8125 16.333Q4.13086 17.6562 5.86914 18.3984Q7.60742 19.1406 9.57031 19.1406ZM9.57031 18.3984Q7.74414 18.3984 6.14746 17.71Q4.55078 17.0215 3.33496 15.8105Q2.11914 14.5996 1.43555 12.998Q0.751953 11.3965 0.751953 9.57031Q0.751953 7.74414 1.43555 6.14258Q2.11914 4.54102 3.33496 3.3252Q4.55078 2.10938 6.14746 1.4209Q7.74414 0.732422 9.57031 0.732422Q11.4062 0.732422 13.0029 1.4209Q14.5996 2.10938 15.8154 3.3252Q17.0312 4.54102 17.7197 6.14258Q18.4082 7.74414 18.4082 9.57031Q18.4082 11.3965 17.7246 12.998Q17.041 14.5996 15.8252 15.8105Q14.6094 17.0215 13.0078 17.71Q11.4062 18.3984 9.57031 18.3984ZM6.62109 10.1172Q6.49414 10.1172 6.41602 10.0391Q6.33789 9.96094 6.33789 9.83398Q6.33789 9.70703 6.41602 9.62402Q6.49414 9.54102 6.62109 9.54102L9.29688 9.54102L9.29688 5.97656Q9.29688 5.85938 9.375 5.77637Q9.45312 5.69336 9.58008 5.69336Q9.7168 5.69336 9.80469 5.77637Q9.89258 5.85938 9.89258 5.97656L9.89258 9.83398Q9.89258 9.96094 9.7998 10.0391Q9.70703 10.1172 9.58008 10.1172ZM9.58008 14.8242Q10.6641 14.8242 11.6162 14.4141Q12.5684 14.0039 13.2959 13.2764Q14.0234 12.5488 14.4336 11.6016Q14.8438 10.6543 14.8438 9.57031Q14.8438 8.48633 14.4336 7.53906Q14.0234 6.5918 13.2959 5.86426Q12.5684 5.13672 11.6162 4.72656Q10.6641 4.31641 9.58008 4.31641Q8.49609 4.31641 7.54883 4.72656Q6.60156 5.13672 5.87402 5.86426Q5.14648 6.5918 4.73633 7.53906Q4.32617 8.48633 4.32617 9.57031Q4.32617 10.6543 4.73633 11.6016Q5.14648 12.5488 5.86914 13.2764Q6.5918 14.0039 7.54883 14.4141Q8.50586 14.8242 9.58008 14.8242Z" fill="#000000"/>
 </g>
</svg>
