<?xml version="1.0" encoding="UTF-8"?>
<!--Generator: Apple Native CoreSVG 175-->
<!DOCTYPE svg
PUBLIC "-//W3C//DTD SVG 1.1//EN"
       "http://www.w3.org/Graphics/SVG/1.1/DTD/svg11.dtd">
<svg version="1.1" xmlns="http://www.w3.org/2000/svg" xmlns:xlink="http://www.w3.org/1999/xlink" width="23.0023" height="16.1932">
 <g>
  <rect height="16.1932" opacity="0" width="23.0023" x="0" y="0"/>
  <path d="M4.4899 15.0371L17.3735 15.0371Q18.5547 15.0371 19.5805 14.6201Q20.6062 14.203 21.3741 13.4667Q22.1419 12.7304 22.5721 11.7529Q23.0023 10.7753 23.0023 9.64447Q23.0023 8.50662 22.5539 7.53395Q22.1054 6.56128 21.3 5.84038Q20.4945 5.11948 19.4207 4.72282Q18.3469 4.32617 17.0891 4.32617Q16.1266 2.35031 14.4675 1.17516Q12.8085 0 10.479 0Q9.09805 0 7.87773 0.524597Q6.65741 1.04919 5.70213 1.98395Q4.74686 2.9187 4.15352 4.16382Q3.56018 5.40894 3.44025 6.84296Q2.4707 7.09793 1.69121 7.6696Q0.911713 8.24127 0.455856 9.08234Q0 9.9234 0 10.9796Q0 12.0964 0.529861 13.016Q1.05972 13.9355 2.0623 14.4863Q3.06488 15.0371 4.4899 15.0371ZM4.48441 14.3085Q3.28873 14.3085 2.44926 13.8661Q1.6098 13.4238 1.17271 12.6714Q0.735626 11.9191 0.735626 10.9933Q0.735626 9.72763 1.5313 8.81241Q2.32697 7.89719 3.6731 7.54684Q3.94257 7.47726 4.04457 7.35382Q4.14658 7.23038 4.15466 7.0047Q4.23553 5.70114 4.77036 4.56207Q5.30518 3.423 6.17783 2.55951Q7.05048 1.69601 8.15475 1.21223Q9.25903 0.728455 10.479 0.728455Q11.8925 0.728455 13.0265 1.22711Q14.1605 1.72577 15.0156 2.60468Q15.8707 3.48358 16.4246 4.64172Q16.537 4.88358 16.6969 4.97246Q16.8567 5.06134 17.1442 5.06134Q18.6253 5.06134 19.7826 5.68123Q20.9398 6.30112 21.6019 7.34703Q22.2641 8.39294 22.2641 9.67926Q22.2641 10.9526 21.6138 12.0042Q20.9636 13.0557 19.8609 13.6821Q18.7582 14.3085 17.3895 14.3085Z" fill="#ffffff"/>
 </g>
</svg>
