<?xml version="1.0" encoding="UTF-8"?>
<!--Generator: Apple Native CoreSVG 175-->
<!DOCTYPE svg
PUBLIC "-//W3C//DTD SVG 1.1//EN"
       "http://www.w3.org/Graphics/SVG/1.1/DTD/svg11.dtd">
<svg version="1.1" xmlns="http://www.w3.org/2000/svg" xmlns:xlink="http://www.w3.org/1999/xlink" width="21.9153" height="23.9483">
 <g>
  <rect height="23.9483" opacity="0" width="21.9153" x="0" y="0"/>
  <path d="M4.28055 16.2606L16.5543 16.2606Q17.6923 16.2606 18.6671 15.8654Q19.6419 15.4701 20.3706 14.7652Q21.0992 14.0603 21.5073 13.1253Q21.9153 12.1904 21.9153 11.1166Q21.9153 10.0219 21.4885 9.09679Q21.0617 8.17165 20.294 7.4863Q19.5262 6.80096 18.504 6.42513Q17.4817 6.04931 16.2906 6.04931Q15.6851 4.799 14.7779 3.87028Q13.8707 2.94155 12.673 2.43214Q11.4754 1.92272 9.98199 1.92272Q8.66837 1.92272 7.50175 2.42565Q6.33514 2.92858 5.42381 3.82076Q4.51248 4.71294 3.94981 5.89107Q3.38715 7.06921 3.26996 8.43365Q2.36008 8.67351 1.61835 9.2194Q0.876617 9.76528 0.438309 10.5673Q0 11.3693 0 12.3904Q0 13.4443 0.506821 14.3261Q1.01364 15.2079 1.96877 15.7343Q2.92389 16.2606 4.28055 16.2606Z" fill="#ffffff"/>
  <path d="M2.46918 23.7521L5.57938 18.3665Q5.66406 18.2165 5.63362 18.0938Q5.60318 17.9712 5.48401 17.9005Q5.37186 17.8369 5.24918 17.8708Q5.1265 17.9048 5.04181 18.0548L1.92184 23.4459Q1.84692 23.5806 1.87248 23.7082Q1.89804 23.8357 2.01721 23.9064Q2.1434 23.9744 2.26387 23.932Q2.38434 23.8896 2.46918 23.7521ZM6.36566 23.7521L9.48013 18.3665Q9.56757 18.2165 9.53575 18.0938Q9.50394 17.9712 9.38751 17.9005Q9.26834 17.8369 9.14917 17.8708Q9.03 17.9048 8.93555 18.0548L5.82535 23.4459Q5.75043 23.5806 5.77599 23.7082Q5.80154 23.8357 5.92072 23.9064Q6.03714 23.9744 6.16249 23.932Q6.28784 23.8896 6.36566 23.7521ZM10.2454 23.7521L13.3598 18.3665Q13.4473 18.2165 13.4155 18.0938Q13.3836 17.9712 13.2672 17.9005Q13.148 17.8369 13.0254 17.8708Q12.9027 17.9048 12.8152 18.0548L9.70505 23.4459Q9.63013 23.5806 9.65218 23.7082Q9.67422 23.8357 9.80042 23.9064Q9.91684 23.9744 10.0422 23.932Q10.1675 23.8896 10.2454 23.7521ZM14.1379 23.7478L17.2536 18.361Q17.3383 18.2165 17.3113 18.0912Q17.2844 17.9658 17.1582 17.9005Q17.0488 17.8326 16.9248 17.8687Q16.8008 17.9048 16.7188 18.052L13.6015 23.4404Q13.5239 23.5806 13.5494 23.7082Q13.575 23.8357 13.6914 23.9064Q13.8121 23.9744 13.9375 23.932Q14.063 23.8896 14.1379 23.7478Z" fill="#5ac8f5"/>
 </g>
</svg>
