<?xml version="1.0" encoding="UTF-8"?>
<!--Generator: Apple Native CoreSVG 175.5-->
<!DOCTYPE svg
PUBLIC "-//W3C//DTD SVG 1.1//EN"
       "http://www.w3.org/Graphics/SVG/1.1/DTD/svg11.dtd">
<svg version="1.1" xmlns="http://www.w3.org/2000/svg" xmlns:xlink="http://www.w3.org/1999/xlink" width="25.674" height="26.2533">
 <g>
  <rect height="26.2533" opacity="0" width="25.674" x="0" y="0"/>
  <path d="M3.97461 23.1999L5.24414 20.9928Q5.38086 20.7682 5.31738 20.5387Q5.25391 20.3092 5.03906 20.1823Q4.81445 20.0553 4.58984 20.1188Q4.36523 20.1823 4.22852 20.4069L2.94922 22.6335Q2.82227 22.8385 2.88086 23.068Q2.93945 23.2975 3.16406 23.4245Q3.38867 23.5417 3.61816 23.4782Q3.84766 23.4147 3.97461 23.1999ZM7.03125 25.944L8.30078 23.7467Q8.4375 23.5221 8.37402 23.2926Q8.31055 23.0632 8.0957 22.9362Q7.87109 22.7995 7.64648 22.8678Q7.42188 22.9362 7.28516 23.1608L6.00586 25.3776Q5.87891 25.5924 5.9375 25.8171Q5.99609 26.0417 6.2207 26.1686Q6.44531 26.2956 6.6748 26.2321Q6.9043 26.1686 7.03125 25.944ZM11.748 23.1901L13.0176 20.9831Q13.1445 20.7585 13.0859 20.529Q13.0273 20.2995 12.8027 20.1725Q12.5879 20.0456 12.3584 20.109Q12.1289 20.1725 12.002 20.3971L10.7227 22.6237Q10.5957 22.8288 10.6543 23.0583Q10.7129 23.2878 10.9375 23.4147Q11.1523 23.5319 11.3867 23.4684Q11.6211 23.4049 11.748 23.1901ZM14.7949 25.9342L16.0742 23.737Q16.2012 23.5124 16.1426 23.2829Q16.084 23.0534 15.8594 22.9264Q15.6348 22.7897 15.4102 22.8581Q15.1855 22.9264 15.0488 23.151L13.7695 25.3678Q13.6523 25.5827 13.7109 25.8073Q13.7695 26.0319 13.9941 26.1589Q14.209 26.2858 14.4434 26.2223Q14.6777 26.1589 14.7949 25.9342Z" fill="#007aff"/>
  <path d="M18.8672 13.6296Q19.9609 13.6979 20.8887 13.527Q21.8164 13.3561 22.5732 12.9948Q23.3301 12.6335 23.9111 12.1403Q24.4922 11.6471 24.9072 11.0661Q25.3223 10.485 25.5566 9.86979Q25.8008 9.28385 25.5371 8.83464Q25.2734 8.38542 24.6973 8.38542Q24.2578 8.38542 23.8184 8.51237Q23.3789 8.63932 22.5977 8.63932Q21.3477 8.63932 20.5029 8.19499Q19.6582 7.75065 19.2236 6.93522Q18.7891 6.11979 18.7891 4.98698Q18.7891 4.43034 18.877 4.02995Q18.9648 3.62956 19.0479 3.31706Q19.1309 3.00456 19.1309 2.73112Q19.1309 2.12565 18.6768 1.86686Q18.2227 1.60807 17.5781 1.82292Q16.8066 2.07682 16.1133 2.59928Q15.4199 3.12174 14.8926 3.85905Q14.3652 4.59635 14.0576 5.49967Q13.75 6.40299 13.75 7.41862Q13.75 8.06315 13.8672 8.68815Q13.9844 9.31315 14.2188 9.89909L15.8398 9.86979Q15.1855 8.77604 15.1855 7.37956Q15.1855 6.67643 15.376 6.05143Q15.5664 5.42643 15.9033 4.90397Q16.2402 4.38151 16.6748 3.98112Q17.1094 3.58073 17.5879 3.31706L17.6953 3.39518Q17.5781 3.74674 17.4805 4.23014Q17.3828 4.71354 17.3828 5.27995Q17.3828 6.6862 18.0127 7.75065Q18.6426 8.8151 19.7461 9.41569Q20.8496 10.0163 22.2656 10.0163Q22.7832 10.0163 23.2471 9.93815Q23.7109 9.86003 24.0527 9.74284L24.1211 9.82096Q23.877 10.2799 23.4229 10.7389Q22.9688 11.1979 22.3145 11.5592Q21.6602 11.9206 20.7959 12.1012Q19.9316 12.2819 18.8672 12.2038Z" fill="#007aff"/>
  <path d="M4.14062 18.6198L14.707 18.6198Q16.123 18.6198 17.2559 17.9704Q18.3887 17.321 19.0576 16.2126Q19.7266 15.1042 19.7266 13.7272Q19.7266 12.36 19.0479 11.2712Q18.3691 10.1823 17.207 9.54753Q16.0449 8.91276 14.5801 8.89323Q13.7207 7.2819 12.2607 6.35905Q10.8008 5.4362 8.98438 5.4362Q7.77344 5.4362 6.69434 5.87077Q5.61523 6.30534 4.76562 7.08659Q3.91602 7.86784 3.38379 8.90299Q2.85156 9.93815 2.72461 11.1393Q1.50391 11.5202 0.751953 12.5114Q0 13.5026 0 14.8405Q0 15.9342 0.517578 16.7887Q1.03516 17.6432 1.96777 18.1315Q2.90039 18.6198 4.14062 18.6198ZM4.10156 17.0573Q3.27148 17.0573 2.70508 16.7643Q2.13867 16.4714 1.85059 15.9782Q1.5625 15.485 1.5625 14.8796Q1.5625 14.0983 2.04102 13.4635Q2.51953 12.8288 3.60352 12.5456Q3.95508 12.4479 4.10645 12.2673Q4.25781 12.0866 4.28711 11.7155Q4.375 10.6901 4.77051 9.82585Q5.16602 8.96159 5.80566 8.33171Q6.44531 7.70182 7.26074 7.35026Q8.07617 6.9987 8.98438 6.9987Q9.93164 6.9987 10.7324 7.33561Q11.5332 7.67253 12.168 8.31706Q12.8027 8.96159 13.2617 9.86979Q13.418 10.1823 13.6279 10.3092Q13.8379 10.4362 14.209 10.4362Q15.4688 10.4362 16.3525 10.8903Q17.2363 11.3444 17.6953 12.1012Q18.1543 12.8581 18.1543 13.776Q18.1543 14.6842 17.7051 15.4264Q17.2559 16.1686 16.4795 16.613Q15.7031 17.0573 14.7363 17.0573Z" fill="#007aff"/>
 </g>
</svg>
