<?xml version="1.0" encoding="UTF-8"?>
<!--Generator: Apple Native CoreSVG 175-->
<!DOCTYPE svg
PUBLIC "-//W3C//DTD SVG 1.1//EN"
       "http://www.w3.org/Graphics/SVG/1.1/DTD/svg11.dtd">
<svg version="1.1" xmlns="http://www.w3.org/2000/svg" xmlns:xlink="http://www.w3.org/1999/xlink" width="27.8375" height="22.2653">
 <g>
  <rect height="22.2653" opacity="0" width="27.8375" x="0" y="0"/>
  <path d="M3.79608 19.3118L14.503 19.3118Q15.8348 19.3118 16.9043 18.7059Q17.9738 18.1 18.604 17.0689Q19.2343 16.0379 19.2343 14.7664Q19.2343 13.4976 18.5873 12.4861Q17.9402 11.4746 16.8273 10.8855Q15.7144 10.2965 14.3129 10.284Q13.4676 8.66562 12.0744 7.67952Q10.6812 6.69342 8.78036 6.69342Q7.62573 6.69342 6.59935 7.1315Q5.57297 7.56958 4.77257 8.34732Q3.97217 9.12506 3.4716 10.1567Q2.97104 11.1884 2.86514 12.3825Q1.65848 12.7071 0.829239 13.6209Q0 14.5348 0 15.8769Q0 16.8259 0.457764 17.6065Q0.915527 18.3871 1.76735 18.8495Q2.61917 19.3118 3.79608 19.3118ZM3.7851 18.614Q2.79327 18.614 2.10388 18.2451Q1.41449 17.8761 1.05255 17.2565Q0.690613 16.6368 0.690613 15.8879Q0.690613 14.8492 1.34491 14.102Q1.99921 13.3548 3.1395 13.0223Q3.35739 12.9599 3.44551 12.86Q3.53363 12.7602 3.54889 12.5648Q3.62259 11.4903 4.06731 10.5487Q4.51202 9.60709 5.22903 8.89984Q5.94604 8.1926 6.85989 7.79182Q7.77374 7.39105 8.78036 7.39105Q9.9527 7.39105 10.8906 7.81235Q11.8285 8.23364 12.53 8.96606Q13.2315 9.69849 13.6905 10.6137Q13.7906 10.8067 13.9232 10.8866Q14.0558 10.9665 14.2863 10.9665Q15.5179 10.9665 16.4825 11.4782Q17.4472 11.9899 17.9941 12.8593Q18.541 13.7286 18.541 14.7984Q18.541 15.8501 18.0038 16.7188Q17.4667 17.5876 16.5533 18.1008Q15.6398 18.614 14.5042 18.614ZM18.0183 5.89615Q19.1159 5.89615 20.0021 6.41922Q20.8882 6.94229 21.4091 7.83112Q21.9301 8.71994 21.9301 9.81766Q21.9301 10.7227 21.5451 11.5273Q21.1601 12.332 20.4824 12.9174Q19.8047 13.5028 18.9188 13.7695L18.9566 14.4637Q20.025 14.1844 20.8492 13.503Q21.6734 12.8215 22.142 11.8641Q22.6105 10.9067 22.6105 9.81766Q22.6105 8.54034 21.9941 7.49443Q21.3777 6.44852 20.3353 5.82718Q19.2929 5.20584 18.0183 5.20584Q16.741 5.20584 15.6965 5.82718Q14.6519 6.44852 14.0341 7.49443Q13.4163 8.54034 13.4163 9.81766Q13.4163 9.84924 13.419 9.8774Q13.4218 9.90555 13.4218 9.93713L14.1161 9.98245Q14.1078 9.94263 14.1037 9.90143Q14.0996 9.86023 14.0996 9.81766Q14.0996 8.71994 14.624 7.83112Q15.1485 6.94229 16.0345 6.41922Q16.9206 5.89615 18.0183 5.89615ZM13.0151 5.30594Q13.1187 5.40665 13.2671 5.40665Q13.4155 5.40665 13.5136 5.30594Q13.6118 5.20508 13.6131 5.05806Q13.6145 4.91104 13.5136 4.81293L11.5808 2.87735Q11.4731 2.76962 11.3309 2.77313Q11.1887 2.77664 11.0878 2.87735Q10.9871 2.98523 10.9822 3.12881Q10.9773 3.2724 11.0878 3.38013ZM18.0254 3.42819Q18.1676 3.42819 18.2767 3.32115Q18.3859 3.21411 18.3859 3.07465L18.3859 0.353546Q18.3859 0.204315 18.2767 0.102158Q18.1676 0 18.0254 0Q17.8831 0 17.774 0.102158Q17.6648 0.204315 17.6648 0.353546L17.6648 3.07465Q17.6648 3.21411 17.774 3.32115Q17.8831 3.42819 18.0254 3.42819ZM22.5371 5.30594Q22.6352 5.40665 22.785 5.40665Q22.9347 5.40665 23.0356 5.30594L24.9657 3.38013Q25.0734 3.2724 25.0699 3.12881Q25.0664 2.98523 24.9657 2.87735Q24.8648 2.77664 24.7226 2.77313Q24.5804 2.76962 24.4727 2.87735L22.5371 4.81293Q22.4362 4.91104 22.4376 5.05806Q22.439 5.20508 22.5371 5.30594ZM24.7418 10.1712L27.4867 10.1712Q27.636 10.1712 27.7367 10.069Q27.8375 9.96689 27.8375 9.81766Q27.8375 9.6727 27.7367 9.57191Q27.636 9.47113 27.4867 9.47113L24.7418 9.47113Q24.6024 9.47113 24.4988 9.57191Q24.3953 9.6727 24.3953 9.81766Q24.3953 9.96689 24.4988 10.069Q24.6024 10.1712 24.7418 10.1712ZM24.4727 16.7746Q24.5804 16.8825 24.7226 16.8762Q24.8648 16.87 24.9657 16.772Q25.0664 16.6711 25.0699 16.5276Q25.0734 16.384 24.9657 16.2692L23.0301 14.3462Q22.9292 14.248 22.7836 14.2467Q22.6379 14.2453 22.5371 14.3462Q22.4362 14.4469 22.4362 14.594Q22.4362 14.7411 22.5371 14.8419Z" fill="#007aff"/>
 </g>
</svg>
