<?xml version="1.0" encoding="UTF-8"?>
<!--Generator: Apple Native CoreSVG 175-->
<!DOCTYPE svg
PUBLIC "-//W3C//DTD SVG 1.1//EN"
       "http://www.w3.org/Graphics/SVG/1.1/DTD/svg11.dtd">
<svg version="1.1" xmlns="http://www.w3.org/2000/svg" xmlns:xlink="http://www.w3.org/1999/xlink" width="27.7106" height="27.9711">
 <g>
  <rect height="27.9711" opacity="0" width="27.7106" x="0" y="0"/>
  <path d="M3.69415 19.8541L14.4011 19.8541Q15.6937 19.8541 16.7437 19.2615Q17.7937 18.6689 18.4164 17.6609Q19.039 16.6529 19.039 15.4107Q19.039 14.1544 18.3982 13.159Q17.7574 12.1635 16.6543 11.5877Q15.5511 11.0119 14.1566 11.0162Q13.555 9.85483 12.7244 9.05526Q11.8938 8.2557 10.872 7.84196Q9.85031 7.42822 8.67569 7.42822Q7.54761 7.42822 6.53587 7.85791Q5.52414 8.2876 4.72649 9.06045Q3.92883 9.83331 3.43666 10.8636Q2.94449 11.8939 2.8511 13.088Q1.54495 13.424 0.772476 14.3527Q0 15.2815 0 16.5072Q0 17.4955 0.470505 18.2496Q0.94101 19.0037 1.77322 19.4289Q2.60544 19.8541 3.69415 19.8541Z" fill="#ffffff"/>
  <path d="M19.8457 14.7384Q21.0394 14.0904 21.7615 12.9797Q22.4835 11.869 22.4835 10.4673Q22.4835 9.18298 21.8671 8.13707Q21.2508 7.09115 20.2084 6.4734Q19.166 5.85565 17.8914 5.85565Q16.4085 5.85565 15.2599 6.67032Q14.1113 7.48498 13.6253 8.77435Q13.9211 9.11493 14.1742 9.47358Q14.4273 9.83224 14.6309 10.2197Q16.1015 10.3256 17.2043 10.9409Q18.307 11.5563 18.9834 12.5401Q19.6597 13.524 19.8457 14.7384ZM12.8882 5.95559Q12.9918 6.05646 13.1402 6.05646Q13.2886 6.05646 13.3867 5.95559Q13.4848 5.85489 13.4862 5.70779Q13.4875 5.5607 13.3867 5.45999L11.4539 3.52716Q11.3461 3.41928 11.2039 3.42279Q11.0617 3.4263 10.9608 3.52716Q10.8601 3.62787 10.8553 3.77145Q10.8504 3.91504 10.9608 4.02292ZM17.8984 4.07083Q18.0406 4.07083 18.1498 3.96379Q18.259 3.85675 18.259 3.72445L18.259 0.996336Q18.259 0.851377 18.1498 0.750593Q18.0406 0.649808 17.8984 0.649808Q17.7562 0.649808 17.647 0.750593Q17.5378 0.851377 17.5378 0.996336L17.5378 3.72445Q17.5378 3.85675 17.647 3.96379Q17.7562 4.07083 17.8984 4.07083ZM22.4101 5.95559Q22.5082 6.05646 22.658 6.05646Q22.8078 6.05646 22.9086 5.95559L24.8387 4.02292Q24.9464 3.91504 24.9429 3.77145Q24.9394 3.62787 24.8387 3.52716Q24.7379 3.4263 24.5956 3.42279Q24.4534 3.41928 24.3457 3.52716L22.4101 5.45999Q22.3093 5.5607 22.3106 5.70779Q22.312 5.85489 22.4101 5.95559ZM24.6149 10.8138L27.3598 10.8138Q27.509 10.8138 27.6098 10.7117Q27.7106 10.6095 27.7106 10.4673Q27.7106 10.3225 27.6098 10.2217Q27.509 10.1209 27.3598 10.1209L24.6149 10.1209Q24.4754 10.1209 24.3719 10.2217Q24.2683 10.3225 24.2683 10.4673Q24.2683 10.6095 24.3719 10.7117Q24.4754 10.8138 24.6149 10.8138ZM24.3457 17.4146Q24.4534 17.5253 24.5956 17.519Q24.7379 17.5128 24.8387 17.4119Q24.9394 17.3139 24.9429 17.1703Q24.9464 17.0268 24.8387 16.9189L22.9031 14.9888Q22.8023 14.8908 22.6566 14.8895Q22.511 14.8881 22.4101 14.9888Q22.3093 15.0897 22.3093 15.2368Q22.3093 15.3838 22.4101 15.4846Z" fill="#ffd60a"/>
  <path d="M11.0019 23.7307L9.14459 23.7307L9.24454 24.0072L10.4422 21.7783Q10.5301 21.6151 10.4715 21.5041Q10.4129 21.3932 10.2496 21.3932L9.31244 21.3932Q9.10034 21.3932 9.00543 21.4713Q8.91052 21.5495 8.84918 21.7002L7.66953 24.3943Q7.58698 24.5841 7.67647 24.6867Q7.76596 24.7892 7.94449 24.7892L9.39026 24.7892L9.51721 24.2017L8.06519 27.662Q7.97028 27.8881 8.14056 27.9537Q8.31512 28.0221 8.44482 27.8208L11.2047 24.1783Q11.3258 24.015 11.2664 23.8728Q11.207 23.7307 11.0019 23.7307Z" fill="#ffffff"/>
 </g>
</svg>
