<?xml version="1.0" encoding="UTF-8"?>
<!--Generator: Apple Native CoreSVG 175.5-->
<!DOCTYPE svg
PUBLIC "-//W3C//DTD SVG 1.1//EN"
       "http://www.w3.org/Graphics/SVG/1.1/DTD/svg11.dtd">
<svg version="1.1" xmlns="http://www.w3.org/2000/svg" xmlns:xlink="http://www.w3.org/1999/xlink" width="28.3789" height="28.7215">
 <g>
  <rect height="28.7215" opacity="0" width="28.3789" x="0" y="0"/>
  <path d="M18.2715 6.06486Q16.9238 6.06486 15.8301 6.71427Q14.7363 7.36369 14.0869 8.46232Q13.4375 9.56095 13.4375 10.9086Q13.4375 10.9965 13.4473 11.0844Q13.457 11.1723 13.457 11.2504L14.9316 11.3871Q14.9023 11.2699 14.8877 11.1528Q14.873 11.0356 14.873 10.9086Q14.873 9.94181 15.3271 9.17033Q15.7812 8.39884 16.5479 7.94474Q17.3145 7.49064 18.2715 7.49064Q19.2285 7.49064 19.9951 7.94474Q20.7617 8.39884 21.2158 9.17033Q21.6699 9.94181 21.6699 10.9086Q21.6699 11.6801 21.3623 12.3442Q21.0547 13.0082 20.5176 13.4916Q19.9805 13.975 19.2773 14.1996L19.2871 15.6742Q20.3906 15.4301 21.25 14.7416Q22.1094 14.0531 22.6025 13.057Q23.0957 12.061 23.0957 10.9086Q23.0957 9.56095 22.4512 8.46232Q21.8066 7.36369 20.708 6.71427Q19.6094 6.06486 18.2715 6.06486ZM12.6074 6.39689Q12.8516 6.63127 13.1934 6.63127Q13.5352 6.63127 13.7598 6.39689Q13.9844 6.16252 13.9893 5.8256Q13.9941 5.48869 13.7598 5.25431L12.2559 3.75041Q12.0215 3.51603 11.6895 3.51603Q11.3574 3.51603 11.123 3.75041Q10.8887 3.98478 10.8838 4.3217Q10.8789 4.65861 11.123 4.89299ZM18.2715 4.51213Q18.6035 4.51213 18.8428 4.26799Q19.082 4.02384 19.082 3.70158L19.082 1.5922Q19.082 1.25041 18.8428 1.01603Q18.6035 0.781657 18.2715 0.781657Q17.9395 0.781657 17.7002 1.01603Q17.4609 1.25041 17.4609 1.5922L17.4609 3.70158Q17.4609 4.02384 17.7002 4.26799Q17.9395 4.51213 18.2715 4.51213ZM22.7832 6.39689Q23.0078 6.63127 23.3545 6.63127Q23.7012 6.63127 23.9355 6.39689L25.4297 4.89299Q25.6641 4.65861 25.6641 4.3217Q25.6641 3.98478 25.4297 3.75041Q25.1953 3.51603 24.8633 3.51603Q24.5312 3.51603 24.2969 3.75041L22.7832 5.25431Q22.5488 5.48869 22.5537 5.8256Q22.5586 6.16252 22.7832 6.39689ZM25.459 11.7192L27.5781 11.7192Q27.9102 11.7192 28.1445 11.4799Q28.3789 11.2406 28.3789 10.9086Q28.3789 10.5668 28.1445 10.3324Q27.9102 10.0981 27.5781 10.0981L25.459 10.0981Q25.1367 10.0981 24.8926 10.3324Q24.6484 10.5668 24.6484 10.9086Q24.6484 11.2406 24.8926 11.4799Q25.1367 11.7192 25.459 11.7192ZM24.2969 18.0668Q24.5312 18.311 24.8633 18.3012Q25.1953 18.2914 25.4297 18.057Q25.6641 17.8324 25.6641 17.4955Q25.6641 17.1586 25.4297 16.9242L23.916 15.4301Q23.6816 15.2055 23.3496 15.2006Q23.0176 15.1957 22.7832 15.4301Q22.5488 15.6645 22.5488 16.0014Q22.5488 16.3383 22.7832 16.5727Z" fill="#007aff"/>
  <path d="M4.14062 20.5082L14.707 20.5082Q16.123 20.5082 17.2559 19.8637Q18.3887 19.2192 19.0576 18.1108Q19.7266 17.0024 19.7266 15.6254Q19.7266 14.2582 19.0479 13.1694Q18.3691 12.0805 17.207 11.4457Q16.0449 10.811 14.5801 10.7914Q13.7207 9.18009 12.2607 8.25724Q10.8008 7.33439 8.98438 7.33439Q7.77344 7.33439 6.69434 7.76896Q5.61523 8.20353 4.76562 8.98478Q3.91602 9.76603 3.38379 10.8012Q2.85156 11.8363 2.72461 13.0375Q1.50391 13.4184 0.751953 14.4096Q0 15.4008 0 16.7289Q0 17.8324 0.517578 18.6869Q1.03516 19.5414 1.96777 20.0248Q2.90039 20.5082 4.14062 20.5082ZM4.10156 18.9457Q3.27148 18.9457 2.70508 18.6576Q2.13867 18.3695 1.85059 17.8764Q1.5625 17.3832 1.5625 16.768Q1.5625 15.9965 2.04102 15.3617Q2.51953 14.727 3.60352 14.4438Q3.95508 14.3461 4.10645 14.1654Q4.25781 13.9848 4.28711 13.6137Q4.375 12.5883 4.77051 11.724Q5.16602 10.8598 5.80566 10.225Q6.44531 9.59025 7.26074 9.24357Q8.07617 8.89689 8.98438 8.89689Q9.93164 8.89689 10.7324 9.23381Q11.5332 9.57072 12.168 10.2104Q12.8027 10.85 13.2617 11.768Q13.418 12.0805 13.6279 12.2026Q13.8379 12.3246 14.209 12.3246Q15.4688 12.3246 16.3525 12.7836Q17.2363 13.2426 17.6953 13.9994Q18.1543 14.7563 18.1543 15.6645Q18.1543 16.5824 17.7051 17.3246Q17.2559 18.0668 16.4795 18.5063Q15.7031 18.9457 14.7363 18.9457ZM12.2266 23.9653L10.0879 23.9653L10.0684 24.3754L11.1816 22.266Q11.2598 22.1098 11.2061 22.0024Q11.1523 21.8949 10.9863 21.8949L8.94531 21.8949Q8.75 21.8949 8.66211 21.9731Q8.57422 22.0512 8.50586 22.1879L7.25586 25.0297Q7.17773 25.2055 7.25098 25.308Q7.32422 25.4106 7.50977 25.4106L9.25781 25.4106L9.375 24.8442L7.89062 28.4379Q7.80273 28.643 7.94922 28.7016Q8.0957 28.7699 8.24219 28.6039L12.373 24.434Q12.5195 24.2778 12.4756 24.1215Q12.4316 23.9653 12.2266 23.9653Z" fill="#007aff"/>
 </g>
</svg>
