<?xml version="1.0" encoding="UTF-8"?>
<!--Generator: Apple Native CoreSVG 175.5-->
<!DOCTYPE svg
PUBLIC "-//W3C//DTD SVG 1.1//EN"
       "http://www.w3.org/Graphics/SVG/1.1/DTD/svg11.dtd">
<svg version="1.1" xmlns="http://www.w3.org/2000/svg" xmlns:xlink="http://www.w3.org/1999/xlink" width="22.422" height="24.0527">
 <g>
  <rect height="24.0527" opacity="0" width="22.422" x="0" y="0"/>
  <path d="M1.04501 19.4238L5.43954 23.8281Q5.67392 24.0527 6.00107 24.0527Q6.32821 24.0527 6.56259 23.8281Q6.7872 23.5938 6.7872 23.2666Q6.7872 22.9395 6.56259 22.7148L3.6915 19.834L18.2227 5.30273L21.0938 8.17383Q21.3184 8.4082 21.6407 8.41309Q21.963 8.41797 22.1876 8.18359Q22.422 7.94922 22.422 7.62695Q22.422 7.30469 22.1876 7.07031L17.7931 2.67578Q16.7384 1.62109 15.4786 1.63086Q14.2188 1.64062 13.1544 2.70508L1.07431 14.7852Q0.00985522 15.8398 8.95929e-05 17.1045Q-0.00967603 18.3691 1.04501 19.4238ZM17.0606 6.16211L16.1427 7.10938L19.2384 10.1953Q19.4337 10.4004 19.7071 10.4004Q19.9806 10.4004 20.1661 10.2051Q20.3614 10.0195 20.3663 9.74121Q20.3712 9.46289 20.1759 9.26758ZM15.127 8.0957L14.2091 9.04297L17.3048 12.1289Q17.5001 12.3242 17.7735 12.3242Q18.047 12.3242 18.2325 12.1387Q18.4278 11.9434 18.4327 11.6748Q18.4376 11.4062 18.2423 11.2109ZM13.2032 10.0293L12.2852 10.9766L15.3712 14.0723Q15.5665 14.2578 15.8399 14.2578Q16.1134 14.2578 16.2989 14.082Q16.4942 13.8867 16.4991 13.6084Q16.504 13.3301 16.3087 13.1445ZM11.2794 11.9629L10.3517 12.8906L13.4474 15.9961Q13.6427 16.1914 13.9161 16.1914Q14.1895 16.1914 14.3751 15.9961Q14.5704 15.8105 14.5753 15.5322Q14.5802 15.2539 14.3849 15.0684ZM9.34579 13.8965L8.41806 14.8242L11.5138 17.9395Q11.7091 18.125 11.9825 18.125Q12.2559 18.125 12.4415 17.9395Q12.6368 17.7441 12.6417 17.4658Q12.6466 17.1875 12.4513 17.002ZM7.4122 15.8301L6.48446 16.7578L9.58017 19.873Q9.77548 20.0586 10.0489 20.0586Q10.3224 20.0586 10.5079 19.873Q10.6934 19.6777 10.6983 19.4043Q10.7032 19.1309 10.5177 18.9355ZM5.47861 17.7637L4.55087 18.6914L7.64657 21.8066Q7.84189 21.9922 8.11532 21.9922Q8.38876 21.9922 8.57431 21.8066Q8.76962 21.6113 8.7745 21.3379Q8.77939 21.0645 8.58407 20.8691Z" fill="#007aff"/>
 </g>
</svg>
