<?xml version="1.0" encoding="UTF-8"?>
<!--Generator: Apple Native CoreSVG 175.5-->
<!DOCTYPE svg
PUBLIC "-//W3C//DTD SVG 1.1//EN"
       "http://www.w3.org/Graphics/SVG/1.1/DTD/svg11.dtd">
<svg version="1.1" xmlns="http://www.w3.org/2000/svg" xmlns:xlink="http://www.w3.org/1999/xlink" width="17.9785" height="17.998">
 <g>
  <rect height="17.998" opacity="0" width="17.9785" x="0" y="0"/>
  <path d="M3.06641 17.998L14.9121 17.998Q16.4453 17.998 17.2119 17.2412Q17.9785 16.4844 17.9785 14.9707L17.9785 3.04688Q17.9785 1.5332 17.2119 0.776367Q16.4453 0.0195312 14.9121 0.0195312L3.06641 0.0195312Q1.5332 0.0195312 0.766602 0.776367Q0 1.5332 0 3.04688L0 14.9707Q0 16.4844 0.766602 17.2412Q1.5332 17.998 3.06641 17.998ZM3.08594 16.4258Q2.35352 16.4258 1.96289 16.04Q1.57227 15.6543 1.57227 14.8926L1.57227 3.125Q1.57227 2.36328 1.96289 1.97754Q2.35352 1.5918 3.08594 1.5918L14.8926 1.5918Q15.6152 1.5918 16.0107 1.97754Q16.4062 2.36328 16.4062 3.125L16.4062 14.8926Q16.4062 15.6543 16.0107 16.04Q15.6152 16.4258 14.8926 16.4258Z" fill="#007aff"/>
  <path d="M6.70898 8.0957L6.70898 9.90234L5.9668 9.90234Q5.10742 9.90234 4.50195 10.5029Q3.89648 11.1035 3.89648 11.9531Q3.89648 12.8223 4.50195 13.4277Q5.10742 14.0332 5.9668 14.0332Q6.54297 14.0332 7.01172 13.75Q7.48047 13.4668 7.75879 12.998Q8.03711 12.5293 8.03711 11.9531L8.03711 11.2109L9.81445 11.2109L9.81445 11.9531Q9.81445 12.5293 10.0977 12.998Q10.3809 13.4668 10.8496 13.75Q11.3184 14.0332 11.8848 14.0332Q12.7441 14.0332 13.3496 13.4277Q13.9551 12.8223 13.9551 11.9531Q13.9551 11.1035 13.3496 10.5029Q12.7441 9.90234 11.8848 9.90234L11.1523 9.90234L11.1523 8.0957L11.8848 8.0957Q12.7441 8.0957 13.3496 7.49512Q13.9551 6.89453 13.9551 6.03516Q13.9551 5.17578 13.3496 4.57031Q12.7441 3.96484 11.8848 3.96484Q11.3184 3.96484 10.8496 4.24805Q10.3809 4.53125 10.0977 5Q9.81445 5.46875 9.81445 6.03516L9.81445 6.77734L8.03711 6.77734L8.03711 6.03516Q8.03711 5.46875 7.75879 5Q7.48047 4.53125 7.01172 4.24805Q6.54297 3.96484 5.9668 3.96484Q5.10742 3.96484 4.50195 4.57031Q3.89648 5.17578 3.89648 6.03516Q3.89648 6.89453 4.50195 7.49512Q5.10742 8.0957 5.9668 8.0957ZM8.03711 9.91211L8.03711 8.08594L9.81445 8.08594L9.81445 9.91211ZM5.9668 6.78711Q5.6543 6.78711 5.43457 6.56738Q5.21484 6.34766 5.21484 6.03516Q5.21484 5.73242 5.43945 5.50781Q5.66406 5.2832 5.9668 5.2832Q6.26953 5.2832 6.48926 5.50781Q6.70898 5.73242 6.70898 6.03516L6.70898 6.78711ZM11.8848 6.78711L11.1523 6.78711L11.1523 6.03516Q11.1523 5.73242 11.3672 5.50781Q11.582 5.2832 11.8848 5.2832Q12.1875 5.2832 12.4121 5.50781Q12.6367 5.73242 12.6367 6.03516Q12.6367 6.34766 12.417 6.56738Q12.1973 6.78711 11.8848 6.78711ZM5.9668 11.1914L6.70898 11.1914L6.70898 11.9434Q6.70898 12.2559 6.48926 12.4756Q6.26953 12.6953 5.9668 12.6953Q5.6543 12.6953 5.43457 12.4756Q5.21484 12.2559 5.21484 11.9434Q5.21484 11.6406 5.43945 11.416Q5.66406 11.1914 5.9668 11.1914ZM11.8848 11.1914Q12.1875 11.1914 12.4121 11.416Q12.6367 11.6406 12.6367 11.9434Q12.6367 12.2559 12.417 12.4756Q12.1973 12.6953 11.8848 12.6953Q11.582 12.6953 11.3672 12.4756Q11.1523 12.2559 11.1523 11.9434L11.1523 11.1914Z" fill="#007aff"/>
 </g>
</svg>
