<?xml version="1.0" encoding="UTF-8"?>
<!--Generator: Apple Native CoreSVG 175-->
<!DOCTYPE svg
PUBLIC "-//W3C//DTD SVG 1.1//EN"
       "http://www.w3.org/Graphics/SVG/1.1/DTD/svg11.dtd">
<svg version="1.1" xmlns="http://www.w3.org/2000/svg" xmlns:xlink="http://www.w3.org/1999/xlink" width="18.3488" height="18.3826">
 <g>
  <rect height="18.3826" opacity="0" width="18.3488" x="0" y="0"/>
  <path d="M5.67429 6.40472L5.67429 11.9708L3.19107 11.9708Q2.31842 11.9708 1.59416 12.4017Q0.869904 12.8325 0.434952 13.5575Q0 14.2825 0 15.1649Q0 16.0474 0.434952 16.7764Q0.869904 17.5055 1.59416 17.9391Q2.31842 18.3728 3.19107 18.3728Q4.07349 18.3728 4.79767 17.9391Q5.52185 17.5055 5.95551 16.7764Q6.38916 16.0474 6.38916 15.1649L6.38916 12.6775L11.9597 12.6775L11.9597 15.1649Q11.9597 16.0474 12.3947 16.7764Q12.8297 17.5055 13.5539 17.9391Q14.2781 18.3728 15.1578 18.3728Q16.0332 18.3728 16.7574 17.9391Q17.4817 17.5055 17.9153 16.7764Q18.3488 16.0474 18.3488 15.1649Q18.3488 14.2825 17.9153 13.5575Q17.4817 12.8325 16.7574 12.4017Q16.0332 11.9708 15.1578 11.9708L12.6746 11.9708L12.6746 6.40472L15.1578 6.40472Q16.0332 6.40472 16.7574 5.97389Q17.4817 5.54306 17.9153 4.81804Q18.3488 4.09302 18.3488 3.2106Q18.3488 2.32819 17.9153 1.59912Q17.4817 0.870056 16.7574 0.435028Q16.0332 0 15.1578 0Q14.2781 0 13.5539 0.435028Q12.8297 0.870056 12.3947 1.59912Q11.9597 2.32819 11.9597 3.2106L11.9597 5.69809L6.38916 5.69809L6.38916 3.2106Q6.38916 2.32819 5.95551 1.59912Q5.52185 0.870056 4.79767 0.435028Q4.07349 0 3.19107 0Q2.31842 0 1.59416 0.435028Q0.869904 0.870056 0.434952 1.59912Q0 2.32819 0 3.2106Q0 4.09302 0.434952 4.81804Q0.869904 5.54306 1.59416 5.97389Q2.31842 6.40472 3.19107 6.40472ZM3.19107 5.69656Q2.51328 5.69656 1.95297 5.36118Q1.39267 5.02579 1.05377 4.45709Q0.714874 3.8884 0.714874 3.2106Q0.714874 2.52319 1.05377 1.95793Q1.39267 1.39267 1.95297 1.05377Q2.51328 0.714874 3.19107 0.714874Q3.87573 0.714874 4.43611 1.05377Q4.99649 1.39267 5.33539 1.95793Q5.67429 2.52319 5.67429 3.2106L5.67429 5.69656ZM15.1578 5.69656L12.6746 5.69656L12.6746 3.2106Q12.6746 2.52319 13.0135 1.95793Q13.3524 1.39267 13.9127 1.05377Q14.4731 0.714874 15.1578 0.714874Q15.8356 0.714874 16.3972 1.05377Q16.9589 1.39267 17.2964 1.95793Q17.634 2.52319 17.634 3.2106Q17.634 3.8884 17.2964 4.45709Q16.9589 5.02579 16.3972 5.36118Q15.8356 5.69656 15.1578 5.69656ZM6.38916 11.9762L6.38916 6.39938L11.9597 6.39938L11.9597 11.9762ZM3.19107 12.6692L5.67429 12.6692L5.67429 15.1622Q5.67429 15.8469 5.33539 16.4121Q4.99649 16.9774 4.43611 17.3163Q3.87573 17.6552 3.19107 17.6552Q2.51328 17.6552 1.95297 17.3163Q1.39267 16.9774 1.05377 16.4121Q0.714874 15.8469 0.714874 15.1622Q0.714874 14.4746 1.05377 13.9095Q1.39267 13.3443 1.95297 13.0067Q2.51328 12.6692 3.19107 12.6692ZM15.1578 12.6692Q15.8356 12.6692 16.3972 13.0067Q16.9589 13.3443 17.2964 13.9095Q17.634 14.4746 17.634 15.1622Q17.634 15.8469 17.2964 16.4121Q16.9589 16.9774 16.3972 17.3163Q15.8356 17.6552 15.1578 17.6552Q14.4731 17.6552 13.9127 17.3163Q13.3524 16.9774 13.0135 16.4121Q12.6746 15.8469 12.6746 15.1622L12.6746 12.6692Z" fill="#007aff"/>
 </g>
</svg>
