<?xml version="1.0" encoding="UTF-8"?>
<!--Generator: Apple Native CoreSVG 175-->
<!DOCTYPE svg
PUBLIC "-//W3C//DTD SVG 1.1//EN"
       "http://www.w3.org/Graphics/SVG/1.1/DTD/svg11.dtd">
<svg version="1.1" xmlns="http://www.w3.org/2000/svg" xmlns:xlink="http://www.w3.org/1999/xlink" width="12.7324" height="19.931">
 <g>
  <rect height="19.931" opacity="0" width="12.7324" x="0" y="0"/>
  <path d="M6.35788 19.931Q9.49493 19.931 11.1137 18.0968Q12.7324 16.2627 12.7324 12.7353Q12.7324 10.5559 12.6481 8.68484Q12.5638 6.81381 12.4438 5.50323Q12.1817 2.6059 10.7491 1.31409Q9.31641 0.0222778 6.35788 0.0222778Q3.3992 0.0222778 1.96663 1.31409Q0.534058 2.6059 0.278931 5.50323Q0.158997 6.81381 0.0794983 8.68484Q0 10.5559 0 12.7353Q0 16.2627 1.61034 18.0968Q3.22067 19.931 6.35788 19.931ZM6.35788 19.2094Q3.56339 19.2094 2.146 17.5837Q0.728607 15.9579 0.728607 12.7353Q0.728607 10.6998 0.796127 8.82629Q0.863647 6.95282 0.993347 5.57236Q1.14685 3.84186 1.72989 2.7774Q2.31293 1.71295 3.44086 1.23192Q4.56879 0.750885 6.35788 0.750885Q8.14682 0.750885 9.27475 1.23192Q10.4027 1.71295 10.9871 2.7774Q11.5715 3.84186 11.725 5.57236Q11.8617 6.95282 11.9328 8.82629Q12.0039 10.6998 12.0039 12.7353Q12.0039 15.9579 10.583 17.5837Q9.16214 19.2094 6.35788 19.2094ZM0.63324 6.51138L12.0879 6.51138L12.0879 5.85083L0.63324 5.85083ZM6.02814 6.16211L6.69571 6.15082L6.69571 0.45166L6.02814 0.448914Z" fill="#ffffff"/>
 </g>
</svg>
