<?xml version="1.0" encoding="UTF-8"?>
<!--Generator: Apple Native CoreSVG 175.5-->
<!DOCTYPE svg
PUBLIC "-//W3C//DTD SVG 1.1//EN"
       "http://www.w3.org/Graphics/SVG/1.1/DTD/svg11.dtd">
<svg version="1.1" xmlns="http://www.w3.org/2000/svg" xmlns:xlink="http://www.w3.org/1999/xlink" width="17.168" height="25.9863">
 <g>
  <rect height="25.9863" opacity="0" width="17.168" x="0" y="0"/>
  <path d="M3.06641 21.4746L7.8125 21.4746L7.8125 4.49219L3.06641 4.49219Q1.5332 4.49219 0.766602 5.24902Q0 6.00586 0 7.51953L0 18.457Q0 19.9609 0.766602 20.7178Q1.5332 21.4746 3.06641 21.4746ZM14.1016 21.4746Q15.6348 21.4746 16.4014 20.7178Q17.168 19.9609 17.168 18.457L17.168 7.51953Q17.168 6.01562 16.4014 5.25391Q15.6348 4.49219 14.1016 4.49219L9.33594 4.49219L9.33594 21.4746ZM8.57422 0Q8.25195 0 8.03223 0.224609Q7.8125 0.449219 7.8125 0.761719L7.8125 4.49219L9.33594 4.49219L9.33594 0.761719Q9.33594 0.449219 9.11621 0.224609Q8.89648 0 8.57422 0ZM8.57422 25.9668Q8.89648 25.9668 9.11621 25.7471Q9.33594 25.5273 9.33594 25.2051L9.33594 21.4746L7.8125 21.4746L7.8125 25.2051Q7.8125 25.5273 8.03223 25.7471Q8.25195 25.9668 8.57422 25.9668Z" fill="#007aff"/>
 </g>
</svg>
