<?xml version="1.0" encoding="UTF-8"?>
<!--Generator: Apple Native CoreSVG 175.5-->
<!DOCTYPE svg
PUBLIC "-//W3C//DTD SVG 1.1//EN"
       "http://www.w3.org/Graphics/SVG/1.1/DTD/svg11.dtd">
<svg version="1.1" xmlns="http://www.w3.org/2000/svg" xmlns:xlink="http://www.w3.org/1999/xlink" width="23.5645" height="19.1895">
 <g>
  <rect height="19.1895" opacity="0" width="23.5645" x="0" y="0"/>
  <path d="M2.91016 19.1895L20.6543 19.1895Q21.6211 19.1895 22.2705 18.8623Q22.9199 18.5352 23.2422 17.8955Q23.5645 17.2559 23.5645 16.3086L23.5645 2.89062Q23.5645 1.94336 23.2422 1.30371Q22.9199 0.664062 22.2705 0.336914Q21.6211 0.00976562 20.6543 0.00976562L2.91016 0.00976562Q1.94336 0.00976562 1.29883 0.336914Q0.654297 0.664062 0.327148 1.30371Q0 1.94336 0 2.89062L0 16.3086Q0 17.2559 0.327148 17.8955Q0.654297 18.5352 1.29883 18.8623Q1.94336 19.1895 2.91016 19.1895ZM2.91992 17.6172Q2.27539 17.6172 1.92383 17.2607Q1.57227 16.9043 1.57227 16.2305L1.57227 2.96875Q1.57227 2.29492 1.92383 1.93848Q2.27539 1.58203 2.91992 1.58203L20.6445 1.58203Q21.2891 1.58203 21.6406 1.93848Q21.9922 2.29492 21.9922 2.96875L21.9922 16.2305Q21.9922 16.9043 21.6406 17.2607Q21.2891 17.6172 20.6445 17.6172ZM6.28906 8.85742Q7.09961 8.85742 7.76367 8.46191Q8.42773 8.06641 8.82324 7.40234Q9.21875 6.73828 9.21875 5.92773Q9.21875 5.12695 8.82324 4.46289Q8.42773 3.79883 7.76367 3.39844Q7.09961 2.99805 6.28906 2.99805Q5.48828 2.99805 4.82422 3.39844Q4.16016 3.79883 3.75977 4.46289Q3.35938 5.12695 3.35938 5.92773Q3.35938 6.73828 3.75977 7.40234Q4.16016 8.06641 4.82422 8.46191Q5.48828 8.85742 6.28906 8.85742ZM6.28906 7.92969Q5.46875 7.92969 4.88281 7.34375Q4.29688 6.75781 4.29688 5.92773Q4.29688 5.09766 4.88281 4.51172Q5.46875 3.92578 6.28906 3.92578Q7.11914 3.92578 7.70508 4.51172Q8.29102 5.09766 8.29102 5.92773Q8.29102 6.75781 7.70508 7.34375Q7.11914 7.92969 6.28906 7.92969ZM6.28906 7.4707Q6.94336 7.4707 7.38281 7.02637Q7.82227 6.58203 7.82227 5.92773Q7.82227 5.2832 7.38281 4.83887Q6.94336 4.39453 6.28906 4.39453Q5.64453 4.39453 5.2002 4.83887Q4.75586 5.2832 4.75586 5.92773Q4.75586 6.58203 5.2002 7.02637Q5.64453 7.4707 6.28906 7.4707ZM13.8574 8.85742Q14.6582 8.85742 15.3223 8.46191Q15.9863 8.06641 16.3818 7.40234Q16.7773 6.73828 16.7773 5.92773Q16.7773 5.12695 16.3818 4.46289Q15.9863 3.79883 15.3223 3.39844Q14.6582 2.99805 13.8574 2.99805Q13.0469 2.99805 12.3828 3.39844Q11.7188 3.79883 11.3232 4.46289Q10.9277 5.12695 10.9277 5.92773Q10.9277 6.73828 11.3232 7.40234Q11.7188 8.06641 12.3828 8.46191Q13.0469 8.85742 13.8574 8.85742ZM13.8574 7.92969Q13.0273 7.92969 12.4414 7.34375Q11.8555 6.75781 11.8555 5.92773Q11.8555 5.09766 12.4414 4.51172Q13.0273 3.92578 13.8574 3.92578Q14.6777 3.92578 15.2637 4.51172Q15.8496 5.09766 15.8496 5.92773Q15.8496 6.75781 15.2637 7.34375Q14.6777 7.92969 13.8574 7.92969ZM13.8574 7.4707Q14.502 7.4707 14.9463 7.02637Q15.3906 6.58203 15.3906 5.92773Q15.3906 5.2832 14.9463 4.83887Q14.502 4.39453 13.8574 4.39453Q13.2031 4.39453 12.7588 4.83887Q12.3145 5.2832 12.3145 5.92773Q12.3145 6.58203 12.7588 7.02637Q13.2031 7.4707 13.8574 7.4707ZM6.28906 16.1719Q7.09961 16.1719 7.76367 15.7764Q8.42773 15.3809 8.82324 14.7168Q9.21875 14.0527 9.21875 13.2422Q9.21875 12.4414 8.82324 11.7773Q8.42773 11.1133 7.76367 10.7178Q7.09961 10.3223 6.28906 10.3223Q5.48828 10.3223 4.82422 10.7178Q4.16016 11.1133 3.75977 11.7773Q3.35938 12.4414 3.35938 13.2422Q3.35938 14.0527 3.75977 14.7168Q4.16016 15.3809 4.82422 15.7764Q5.48828 16.1719 6.28906 16.1719ZM6.28906 15.2441Q5.46875 15.2441 4.88281 14.6582Q4.29688 14.0723 4.29688 13.2422Q4.29688 12.4219 4.88281 11.8359Q5.46875 11.25 6.28906 11.25Q7.11914 11.25 7.70508 11.8359Q8.29102 12.4219 8.29102 13.2422Q8.29102 14.0723 7.70508 14.6582Q7.11914 15.2441 6.28906 15.2441ZM6.28906 14.7852Q6.94336 14.7852 7.38281 14.3408Q7.82227 13.8965 7.82227 13.2422Q7.82227 12.5977 7.38281 12.1533Q6.94336 11.709 6.28906 11.709Q5.64453 11.709 5.2002 12.1533Q4.75586 12.5977 4.75586 13.2422Q4.75586 13.8965 5.2002 14.3408Q5.64453 14.7852 6.28906 14.7852ZM13.8574 16.1719Q14.6582 16.1719 15.3223 15.7764Q15.9863 15.3809 16.3818 14.7168Q16.7773 14.0527 16.7773 13.2422Q16.7773 12.4414 16.3818 11.7773Q15.9863 11.1133 15.3223 10.7178Q14.6582 10.3223 13.8574 10.3223Q13.0469 10.3223 12.3828 10.7178Q11.7188 11.1133 11.3232 11.7773Q10.9277 12.4414 10.9277 13.2422Q10.9277 14.0527 11.3232 14.7168Q11.7188 15.3809 12.3828 15.7764Q13.0469 16.1719 13.8574 16.1719ZM13.8574 15.2441Q13.0273 15.2441 12.4414 14.6582Q11.8555 14.0723 11.8555 13.2422Q11.8555 12.4219 12.4414 11.8359Q13.0273 11.25 13.8574 11.25Q14.6777 11.25 15.2637 11.8359Q15.8496 12.4219 15.8496 13.2422Q15.8496 14.0723 15.2637 14.6582Q14.6777 15.2441 13.8574 15.2441ZM13.8574 14.7852Q14.502 14.7852 14.9463 14.3408Q15.3906 13.8965 15.3906 13.2422Q15.3906 12.5977 14.9463 12.1533Q14.502 11.709 13.8574 11.709Q13.2031 11.709 12.7588 12.1533Q12.3145 12.5977 12.3145 13.2422Q12.3145 13.8965 12.7588 14.3408Q13.2031 14.7852 13.8574 14.7852ZM19.7754 6.24023Q20.1367 6.24023 20.3809 5.99121Q20.625 5.74219 20.625 5.38086Q20.625 5.0293 20.3809 4.78027Q20.1367 4.53125 19.7754 4.53125Q19.4238 4.53125 19.1699 4.78027Q18.916 5.0293 18.916 5.38086Q18.916 5.74219 19.1699 5.99121Q19.4238 6.24023 19.7754 6.24023ZM19.7754 9.04297Q20.1367 9.04297 20.3809 8.79395Q20.625 8.54492 20.625 8.18359Q20.625 7.83203 20.3809 7.58301Q20.1367 7.33398 19.7754 7.33398Q19.4238 7.33398 19.1699 7.58301Q18.916 7.83203 18.916 8.18359Q18.916 8.54492 19.1699 8.79395Q19.4238 9.04297 19.7754 9.04297ZM19.7754 11.8555Q20.1367 11.8555 20.3809 11.6016Q20.625 11.3477 20.625 10.9961Q20.625 10.6348 20.3809 10.3906Q20.1367 10.1465 19.7754 10.1465Q19.4238 10.1465 19.1699 10.3906Q18.916 10.6348 18.916 10.9961Q18.916 11.3477 19.1699 11.6016Q19.4238 11.8555 19.7754 11.8555ZM19.7754 14.6582Q20.1367 14.6582 20.3809 14.4092Q20.625 14.1602 20.625 13.7988Q20.625 13.4473 20.3809 13.1982Q20.1367 12.9492 19.7754 12.9492Q19.4238 12.9492 19.1699 13.1982Q18.916 13.4473 18.916 13.7988Q18.916 14.1602 19.1699 14.4092Q19.4238 14.6582 19.7754 14.6582Z" fill="#007aff"/>
 </g>
</svg>
