<?xml version="1.0" encoding="UTF-8"?>
<!--Generator: Apple Native CoreSVG 175-->
<!DOCTYPE svg
PUBLIC "-//W3C//DTD SVG 1.1//EN"
       "http://www.w3.org/Graphics/SVG/1.1/DTD/svg11.dtd">
<svg version="1.1" xmlns="http://www.w3.org/2000/svg" xmlns:xlink="http://www.w3.org/1999/xlink" width="18.1848" height="17.8058">
 <g>
  <rect height="17.8058" opacity="0" width="18.1848" x="0" y="0"/>
  <path d="M5.08438 13.6343L13.5172 13.6343Q14.0204 13.6343 14.0204 13.1355L14.0204 4.70123Q14.0204 4.20502 13.5172 4.20502L5.08438 4.20502Q4.5813 4.20502 4.5813 4.70123L4.5813 13.1355Q4.5813 13.6343 5.08438 13.6343ZM5.44113 12.9738Q5.24185 12.9738 5.24185 12.7745L5.24185 5.06485Q5.24185 4.86557 5.44113 4.86557L13.1578 4.86557Q13.3527 4.86557 13.3527 5.06485L13.3527 12.7745Q13.3527 12.9738 13.1578 12.9738ZM2.34726 16.3754L16.2473 16.3754Q16.4864 16.3754 16.6238 16.2428Q16.7613 16.1101 16.7613 15.8711L16.7613 1.96838Q16.7613 1.72928 16.6238 1.59531Q16.4864 1.46133 16.2473 1.46133L2.34726 1.46133Q2.11517 1.46133 1.97769 1.59531Q1.84021 1.72928 1.84021 1.96838L1.84021 15.8711Q1.84021 16.1101 1.97769 16.2428Q2.11517 16.3754 2.34726 16.3754ZM2.77466 15.6538Q2.56882 15.6538 2.56882 15.448L2.56882 2.39136Q2.56882 2.18277 2.77466 2.18277L15.827 2.18277Q16.0329 2.18277 16.0329 2.39136L16.0329 15.448Q16.0329 15.6538 15.827 15.6538ZM6.22391 15.9007L5.50232 15.9007L5.50232 17.4394Q5.50232 17.5941 5.60471 17.7Q5.70709 17.8058 5.86182 17.8058Q6.01639 17.8058 6.12015 17.7Q6.22391 17.5941 6.22391 17.4394ZM9.66019 15.9007L8.93875 15.9007L8.93875 17.4394Q8.93875 17.5941 9.04243 17.7Q9.14612 17.8058 9.30084 17.8058Q9.45557 17.8058 9.55788 17.7Q9.66019 17.5941 9.66019 17.4394ZM13.2059 15.9007L12.4773 15.9007L12.4773 17.4394Q12.4773 17.5941 12.5797 17.7Q12.682 17.8058 12.8438 17.8058Q12.9985 17.8058 13.1022 17.7Q13.2059 17.5941 13.2059 17.4394ZM16.284 11.9679L16.284 12.6964L17.8227 12.6964Q17.9774 12.6964 18.0811 12.5927Q18.1848 12.489 18.1848 12.3343Q18.1848 12.1796 18.0811 12.0737Q17.9774 11.9679 17.8227 11.9679ZM16.284 8.53592L16.284 9.25735L17.8227 9.25735Q17.9774 9.25735 18.0811 9.15504Q18.1848 9.05273 18.1848 8.89801Q18.1848 8.74329 18.0811 8.6396Q17.9774 8.53592 17.8227 8.53592ZM16.284 5.09949L16.284 5.82108L17.8227 5.82108Q17.9774 5.82108 18.0811 5.71739Q18.1848 5.61371 18.1848 5.45898Q18.1848 5.30426 18.0811 5.20187Q17.9774 5.09949 17.8227 5.09949ZM12.3778 1.93863L13.0992 1.93863L13.0992 0.399933Q13.0992 0.245209 12.9955 0.139389Q12.8918 0.0335693 12.7371 0.0335693Q12.5824 0.0335693 12.4801 0.139389Q12.3778 0.245209 12.3778 0.399933ZM8.93875 1.93863L9.66019 1.93863L9.66019 0.399933Q9.66019 0.245209 9.55788 0.139389Q9.45557 0.0335693 9.30084 0.0335693Q9.14612 0.0335693 9.04243 0.139389Q8.93875 0.245209 8.93875 0.399933ZM5.50232 1.93863L6.22391 1.93863L6.22391 0.399933Q6.22391 0.245209 6.12015 0.139389Q6.01639 0.0335693 5.86182 0.0335693Q5.70709 0.0335693 5.60471 0.139389Q5.50232 0.245209 5.50232 0.399933ZM2.31491 5.82382L2.31491 5.10223L0.359344 5.10223Q0.204773 5.10223 0.102386 5.20462Q0 5.30701 0 5.46173Q0 5.61646 0.102386 5.72014Q0.204773 5.82382 0.359344 5.82382ZM2.31491 9.2601L2.31491 8.53165L0.359344 8.53165Q0.204773 8.53165 0.102386 8.63884Q0 8.74603 0 8.90076Q0 9.05548 0.102386 9.15779Q0.204773 9.2601 0.359344 9.2601ZM2.31491 12.6991L2.31491 11.9707L0.359344 11.9707Q0.204773 11.9707 0.102386 12.0765Q0 12.1823 0 12.337Q0 12.4918 0.102386 12.5954Q0.204773 12.6991 0.359344 12.6991Z" fill="#007aff"/>
 </g>
</svg>
