<?xml version="1.0" encoding="UTF-8"?>
<!--Generator: Apple Native CoreSVG 175-->
<!DOCTYPE svg
PUBLIC "-//W3C//DTD SVG 1.1//EN"
       "http://www.w3.org/Graphics/SVG/1.1/DTD/svg11.dtd">
<svg version="1.1" xmlns="http://www.w3.org/2000/svg" xmlns:xlink="http://www.w3.org/1999/xlink" width="22.3515" height="15.8597">
 <g>
  <rect height="15.8597" opacity="0" width="22.3515" x="0" y="0"/>
  <path d="M3.84338 12.9761L6.23596 12.9761Q6.67267 12.9761 6.93634 12.7159Q7.20001 12.4557 7.20001 12.0386L7.20001 10.2249Q7.20001 9.81201 6.93634 9.54971Q6.67267 9.28741 6.23596 9.28741L3.84338 9.28741Q3.4137 9.28741 3.15002 9.54971Q2.88635 9.81201 2.88635 10.2249L2.88635 12.0386Q2.88635 12.4557 3.15002 12.7159Q3.4137 12.9761 3.84338 12.9761ZM0.432434 5.34683L21.9641 5.34683L21.9641 3.2074L0.432434 3.2074ZM2.63046 15.8597L19.7141 15.8597Q21.0081 15.8597 21.6798 15.1872Q22.3515 14.5148 22.3515 13.2359L22.3515 2.65732Q22.3515 1.37848 21.6798 0.704651Q21.0081 0.0308228 19.7141 0.0308228L2.63046 0.0308228Q1.33636 0.0308228 0.668182 0.696259Q0 1.36169 0 2.65732L0 13.2359Q0 14.5288 0.668182 15.1942Q1.33636 15.8597 2.63046 15.8597ZM2.65701 15.1382Q1.7067 15.1382 1.21765 14.647Q0.728607 14.1557 0.728607 13.1972L0.728607 2.69608Q0.728607 1.73752 1.21765 1.24489Q1.7067 0.752258 2.65701 0.752258L19.6945 0.752258Q20.607 0.752258 21.115 1.24489Q21.6231 1.73752 21.6231 2.69608L21.6231 13.1972Q21.6231 14.1557 21.115 14.647Q20.607 15.1382 19.6945 15.1382Z" fill="#000000"/>
 </g>
</svg>
