<?xml version="1.0" encoding="UTF-8"?>
<!--Generator: Apple Native CoreSVG 175-->
<!DOCTYPE svg
PUBLIC "-//W3C//DTD SVG 1.1//EN"
       "http://www.w3.org/Graphics/SVG/1.1/DTD/svg11.dtd">
<svg version="1.1" xmlns="http://www.w3.org/2000/svg" xmlns:xlink="http://www.w3.org/1999/xlink" width="20.3122" height="20.8011">
 <g>
  <rect height="20.8011" opacity="0" width="20.3122" x="0" y="0"/>
  <path d="M20.3122 15.5261Q20.3122 15.3574 20.2077 15.264Q20.1031 15.1706 19.9527 15.1706L5.85663 15.1706Q5.65079 15.1706 5.65079 14.9648L5.65079 0.953064Q5.65079 0.802612 5.5555 0.689163Q5.46021 0.575714 5.29572 0.575714Q5.13397 0.575714 5.02815 0.689163Q4.92233 0.802612 4.92233 0.953064L4.92233 15.3676Q4.92233 15.6067 5.05844 15.7393Q5.19455 15.8719 5.43365 15.8719L19.9527 15.8719Q20.1031 15.8719 20.2077 15.7785Q20.3122 15.6851 20.3122 15.5261ZM0 5.85068Q0 6.01242 0.104523 6.10931Q0.209045 6.20621 0.356598 6.20621L14.4554 6.20621Q14.6614 6.20621 14.6614 6.41205L14.6614 20.4167Q14.6614 20.5699 14.7567 20.6855Q14.852 20.8011 15.0137 20.8011Q15.1782 20.8011 15.284 20.6855Q15.3899 20.5699 15.3899 20.4167L15.3899 6.01212Q15.3899 5.77301 15.2538 5.63553Q15.1176 5.49805 14.8856 5.49805L0.356598 5.49805Q0.209045 5.49805 0.104523 5.59624Q0 5.69443 0 5.85068Z" fill="#007aff"/>
 </g>
</svg>
