<?xml version="1.0" encoding="UTF-8"?>
<!--Generator: Apple Native CoreSVG 175-->
<!DOCTYPE svg
PUBLIC "-//W3C//DTD SVG 1.1//EN"
       "http://www.w3.org/Graphics/SVG/1.1/DTD/svg11.dtd">
<svg version="1.1" xmlns="http://www.w3.org/2000/svg" xmlns:xlink="http://www.w3.org/1999/xlink" width="21.5332" height="20.0488">
 <g>
  <rect height="20.0488" opacity="0" width="21.5332" x="0" y="0"/>
  <path d="M2.4707 18.1836L19.0625 18.1836Q20.293 18.1836 20.9131 17.583Q21.5332 16.9824 21.5332 15.7324L21.5332 5.92773Q21.5332 4.69727 20.9131 4.0918Q20.293 3.48633 19.0625 3.48633L2.4707 3.48633Q1.23047 3.48633 0.615234 4.0918Q0 4.69727 0 5.92773L0 15.7324Q0 16.9824 0.615234 17.583Q1.23047 18.1836 2.4707 18.1836ZM2.4707 17.4805Q1.5625 17.4805 1.14746 17.0557Q0.732422 16.6309 0.732422 15.7227L0.732422 5.95703Q0.732422 5.03906 1.14746 4.61426Q1.5625 4.18945 2.4707 4.18945L19.0527 4.18945Q19.9609 4.18945 20.3809 4.61426Q20.8008 5.03906 20.8008 5.95703L20.8008 15.7227Q20.8008 16.6309 20.3809 17.0557Q19.9609 17.4805 19.0527 17.4805ZM6.16211 3.92578L6.86523 3.92578L6.86523 1.95312Q6.86523 1.35742 7.23145 1.02539Q7.59766 0.693359 8.24219 0.693359L13.2812 0.693359Q13.9355 0.693359 14.292 1.02539Q14.6484 1.35742 14.6484 1.95312L14.6484 3.91602L15.3711 3.91602L15.3711 1.98242Q15.3711 1.02539 14.8145 0.512695Q14.2578 0 13.252 0L8.26172 0Q7.28516 0 6.72363 0.512695Q6.16211 1.02539 6.16211 1.98242ZM6.12305 11.9531Q6.12305 12.3242 6.35254 12.5488Q6.58203 12.7734 6.94336 12.7734L8.85742 12.7734L8.85742 14.6875Q8.85742 15.0586 9.08203 15.2832Q9.30664 15.5078 9.67773 15.5078L11.2305 15.5078Q11.5918 15.5078 11.8164 15.2832Q12.041 15.0586 12.041 14.6875L12.041 12.7734L13.9551 12.7734Q14.3262 12.7734 14.5557 12.5488Q14.7852 12.3242 14.7852 11.9531L14.7852 10.4004Q14.7852 10.0293 14.5557 9.80469Q14.3262 9.58008 13.9551 9.58008L12.041 9.58008L12.041 7.67578Q12.041 7.30469 11.8164 7.08008Q11.5918 6.85547 11.2305 6.85547L9.67773 6.85547Q9.30664 6.85547 9.08203 7.08008Q8.85742 7.30469 8.85742 7.67578L8.85742 9.58008L6.94336 9.58008Q6.58203 9.58008 6.35254 9.80469Q6.12305 10.0293 6.12305 10.4004Z" fill="#007aff"/>
 </g>
</svg>
