<?xml version="1.0" encoding="UTF-8"?>
<!--Generator: Apple Native CoreSVG 175.5-->
<!DOCTYPE svg
PUBLIC "-//W3C//DTD SVG 1.1//EN"
       "http://www.w3.org/Graphics/SVG/1.1/DTD/svg11.dtd">
<svg version="1.1" xmlns="http://www.w3.org/2000/svg" xmlns:xlink="http://www.w3.org/1999/xlink" width="20.957" height="20.9863">
 <g>
  <rect height="20.9863" opacity="0" width="20.957" x="0" y="0"/>
  <path d="M0 12.0703Q0 13.4473 0.668945 14.126Q1.33789 14.8047 2.69531 14.8047L6.16211 14.8047L6.16211 18.2715Q6.16211 19.6289 6.84082 20.2979Q7.51953 20.9668 8.89648 20.9668L12.0605 20.9668Q13.4375 20.9668 14.1162 20.2979Q14.7949 19.6289 14.7949 18.2715L14.7949 14.8047L18.2617 14.8047Q19.6191 14.8047 20.2881 14.126Q20.957 13.4473 20.957 12.0703L20.957 8.90625Q20.957 7.5293 20.2881 6.85059Q19.6191 6.17188 18.2617 6.17188L14.7949 6.17188L14.7949 2.69531Q14.7949 1.33789 14.1162 0.668945Q13.4375 0 12.0605 0L8.89648 0Q7.51953 0 6.84082 0.668945Q6.16211 1.33789 6.16211 2.69531L6.16211 6.17188L2.69531 6.17188Q1.33789 6.17188 0.668945 6.85059Q0 7.5293 0 8.90625ZM1.57227 12.041L1.57227 8.93555Q1.57227 8.33984 1.875 8.04199Q2.17773 7.74414 2.7832 7.74414L7.73438 7.74414L7.73438 2.7832Q7.73438 2.17773 8.03223 1.875Q8.33008 1.57227 8.92578 1.57227L12.0312 1.57227Q12.627 1.57227 12.9248 1.875Q13.2227 2.17773 13.2227 2.7832L13.2227 7.74414L18.1738 7.74414Q18.7793 7.74414 19.082 8.04199Q19.3848 8.33984 19.3848 8.93555L19.3848 12.041Q19.3848 12.6367 19.082 12.9346Q18.7793 13.2324 18.1738 13.2324L13.2227 13.2324L13.2227 18.1934Q13.2227 18.7891 12.9248 19.0918Q12.627 19.3945 12.0312 19.3945L8.92578 19.3945Q8.33008 19.3945 8.03223 19.0918Q7.73438 18.7891 7.73438 18.1934L7.73438 13.2324L2.7832 13.2324Q2.17773 13.2324 1.875 12.9346Q1.57227 12.6367 1.57227 12.041Z" fill="#007aff"/>
 </g>
</svg>
