<?xml version="1.0" encoding="UTF-8"?>
<!--Generator: Apple Native CoreSVG 175.5-->
<!DOCTYPE svg
PUBLIC "-//W3C//DTD SVG 1.1//EN"
       "http://www.w3.org/Graphics/SVG/1.1/DTD/svg11.dtd">
<svg version="1.1" xmlns="http://www.w3.org/2000/svg" xmlns:xlink="http://www.w3.org/1999/xlink" width="14.0137" height="17.8027">
 <g>
  <rect height="17.8027" opacity="0" width="14.0137" x="0" y="0"/>
  <path d="M7.46094 17.8027Q9.07227 17.8027 10.3564 17.3047Q11.6406 16.8066 12.5293 15.9131Q13.418 15.0195 13.8477 13.8184Q13.9258 13.6035 13.9697 13.3789Q14.0137 13.1543 14.0137 12.9297Q14.0137 12.5488 13.7842 12.3096Q13.5547 12.0703 13.1543 12.0703Q12.7734 12.0703 12.5635 12.2754Q12.3535 12.4805 12.2266 12.8613Q11.9531 13.8281 11.2793 14.5557Q10.6055 15.2832 9.62891 15.6885Q8.65234 16.0938 7.4707 16.0938Q5.80078 16.0938 4.56055 15.2148Q3.32031 14.3359 2.6416 12.71Q1.96289 11.084 1.96289 8.86719Q1.96289 6.67969 2.64648 5.08301Q3.33008 3.48633 4.56543 2.61719Q5.80078 1.74805 7.46094 1.74805Q8.58398 1.74805 9.53613 2.17285Q10.4883 2.59766 11.1572 3.34473Q11.8262 4.0918 12.0996 5.04883Q12.2266 5.46875 12.4365 5.6543Q12.6465 5.83984 13.0273 5.83984Q13.418 5.83984 13.6523 5.60059Q13.8867 5.36133 13.8867 4.9707Q13.877 4.75586 13.8428 4.5459Q13.8086 4.33594 13.7305 4.13086Q13.291 2.89062 12.3682 1.97266Q11.4453 1.05469 10.1855 0.546875Q8.92578 0.0390625 7.46094 0.0390625Q5.21484 0.0390625 3.53516 1.11816Q1.85547 2.19727 0.927734 4.17969Q0 6.16211 0 8.86719Q0 11.6016 0.922852 13.6084Q1.8457 15.6152 3.52539 16.709Q5.20508 17.8027 7.46094 17.8027ZM6.40625 17.0508L7.68555 17.0508L7.68555 13.0176Q7.68555 12.002 8.09082 11.2305Q8.49609 10.459 9.20898 10.0244Q9.92188 9.58984 10.8594 9.58984Q11.0938 9.58984 11.2891 9.62402Q11.4844 9.6582 11.6113 9.67773Q12.0215 9.6875 12.1826 9.42383Q12.3438 9.16016 12.2461 8.84277Q12.1484 8.52539 11.7773 8.37891Q11.5527 8.28125 11.3086 8.2373Q11.0645 8.19336 10.8105 8.19336Q9.64844 8.19336 8.81348 8.82812Q7.97852 9.46289 7.68555 10.4395L7.65625 10.4395L7.65625 8.90625Q7.65625 8.59375 7.48535 8.41309Q7.31445 8.23242 7.04102 8.23242Q6.74805 8.23242 6.57715 8.41309Q6.40625 8.59375 6.40625 8.90625Z" fill="#007aff"/>
 </g>
</svg>
