<?xml version="1.0" encoding="UTF-8"?>
<!--Generator: Apple Native CoreSVG 175.5-->
<!DOCTYPE svg
PUBLIC "-//W3C//DTD SVG 1.1//EN"
       "http://www.w3.org/Graphics/SVG/1.1/DTD/svg11.dtd">
<svg version="1.1" xmlns="http://www.w3.org/2000/svg" xmlns:xlink="http://www.w3.org/1999/xlink" width="17.9785" height="17.998">
 <g>
  <rect height="17.998" opacity="0" width="17.9785" x="0" y="0"/>
  <path d="M3.06641 17.998L14.9121 17.998Q16.4453 17.998 17.2119 17.2412Q17.9785 16.4844 17.9785 14.9707L17.9785 3.04688Q17.9785 1.5332 17.2119 0.776367Q16.4453 0.0195312 14.9121 0.0195312L3.06641 0.0195312Q1.5332 0.0195312 0.766602 0.776367Q0 1.5332 0 3.04688L0 14.9707Q0 16.4844 0.766602 17.2412Q1.5332 17.998 3.06641 17.998Z" fill="#007aff"/>
  <path d="M4.91211 9.00391Q4.91211 7.5293 5.41992 6.44531Q5.92773 5.36133 6.8457 4.76074Q7.76367 4.16016 8.99414 4.16016Q9.80469 4.16016 10.5029 4.44336Q11.2012 4.72656 11.7041 5.22949Q12.207 5.73242 12.4414 6.38672Q12.5293 6.65039 12.5293 6.9043Q12.5293 7.1875 12.3633 7.35352Q12.1973 7.51953 11.9141 7.51953Q11.6406 7.51953 11.4941 7.37305Q11.3477 7.22656 11.2695 6.99219Q11.0254 6.29883 10.415 5.84473Q9.80469 5.39062 8.98438 5.39062Q7.74414 5.39062 7.00684 6.37207Q6.26953 7.35352 6.26953 8.99414Q6.26953 10.4004 6.80176 11.3281Q7.33398 12.2559 8.27148 12.5293L8.27148 8.99414Q8.27148 8.76953 8.41309 8.62305Q8.55469 8.47656 8.76953 8.47656Q8.98438 8.47656 9.12598 8.61328Q9.26758 8.75 9.26758 8.99414L9.26758 9.41406Q9.50195 8.96484 9.90234 8.73535Q10.3027 8.50586 10.7617 8.50586Q11.1719 8.50586 11.4258 8.67188Q11.6797 8.83789 11.6797 9.11133Q11.6797 9.56055 11.1816 9.56055Q11.0938 9.56055 10.9863 9.54102Q10.8789 9.52148 10.7227 9.52148Q10.0879 9.52148 9.68262 9.98047Q9.27734 10.4395 9.27734 11.1621L9.27734 12.6172Q10.0391 12.5488 10.5957 12.124Q11.1523 11.6992 11.3379 11.0547Q11.416 10.791 11.5723 10.6592Q11.7285 10.5273 11.9824 10.5273Q12.2656 10.5273 12.4365 10.6934Q12.6074 10.8594 12.6074 11.1328Q12.5977 11.2598 12.5781 11.3818Q12.5586 11.5039 12.5098 11.6211Q12.1582 12.6172 11.2451 13.2324Q10.332 13.8477 8.99414 13.8477Q7.14844 13.8477 6.03027 12.5439Q4.91211 11.2402 4.91211 9.00391Z" fill="#ffffff"/>
 </g>
</svg>
