<?xml version="1.0" encoding="UTF-8"?>
<!--Generator: Apple Native CoreSVG 175-->
<!DOCTYPE svg
PUBLIC "-//W3C//DTD SVG 1.1//EN"
       "http://www.w3.org/Graphics/SVG/1.1/DTD/svg11.dtd">
<svg version="1.1" xmlns="http://www.w3.org/2000/svg" xmlns:xlink="http://www.w3.org/1999/xlink" width="19.245" height="20.5652">
 <g>
  <rect height="20.5652" opacity="0" width="19.245" x="0" y="0"/>
  <path d="M9.95087 7.10464L9.95087 9.80042L18.8371 4.89914Q18.7207 4.76013 18.4547 4.60968L10.7376 0.30426Q10.5316 0.184784 10.3371 0.108948Q10.1427 0.0331116 9.95087 0L9.95087 2.66327L9.27383 2.66327L9.27383 0.00823975Q9.08752 0.0386047 8.90121 0.114441Q8.7149 0.190277 8.5144 0.30426L0.792999 4.62372Q0.524292 4.76715 0.414886 4.89914L9.27383 9.79095L9.27383 7.10464ZM9.27383 6.26755L9.27383 3.51013L9.95087 3.51013L9.95087 6.26755ZM10.0629 20.3941Q10.1187 20.3914 10.1852 20.3564Q10.2516 20.3215 10.3075 20.2922L18.2632 15.9227Q18.4442 15.8281 18.5825 15.7238Q18.7207 15.6195 18.8278 15.5028L16.5527 14.3407L16.87 13.73L19.1609 14.9121Q19.245 14.6121 19.245 14.2563L19.245 6.24802Q19.245 5.91827 19.1949 5.76599L10.5363 10.4906L12.9016 11.7043L12.6012 12.3077L10.0629 11.0089ZM15.7805 13.9418L13.3762 12.7094L13.6864 12.1129L16.0809 13.3383ZM9.189 20.3941L9.189 10.9949L6.63666 12.3077L6.33636 11.7043L8.70163 10.4906L0.0570679 5.76599Q0 5.91827 0 6.24802L0 14.2563Q0 14.6457 0.0909424 14.8953L2.36801 13.73L2.68509 14.3407L0.410156 15.5028Q0.517273 15.6195 0.66391 15.7238Q0.810547 15.8281 0.981598 15.9227L8.94028 20.2922Q8.99612 20.3215 9.06113 20.3564Q9.12613 20.3914 9.189 20.3941ZM3.45749 13.9418L3.15704 13.3383L5.55435 12.1129L5.86166 12.7094Z" fill="#ffffff"/>
 </g>
</svg>
