<?xml version="1.0" encoding="UTF-8"?>
<!--Generator: Apple Native CoreSVG 175.5-->
<!DOCTYPE svg
PUBLIC "-//W3C//DTD SVG 1.1//EN"
       "http://www.w3.org/Graphics/SVG/1.1/DTD/svg11.dtd">
<svg version="1.1" xmlns="http://www.w3.org/2000/svg" xmlns:xlink="http://www.w3.org/1999/xlink" width="25.3711" height="18.9941">
 <g>
  <rect height="18.9941" opacity="0" width="25.3711" x="0" y="0"/>
  <path d="M12.2949 14.3164L13.1738 14.3164Q15.0098 14.3164 16.5088 13.7256Q18.0078 13.1348 19.0918 12.0312Q20.1758 10.9277 20.7617 9.37988Q21.3477 7.83203 21.3477 5.91797L21.3477 3.93555Q21.3477 2.77344 20.2637 1.89453Q19.1797 1.01562 17.2412 0.522461Q15.3027 0.0292969 12.7344 0.0292969Q10.166 0.0292969 8.22754 0.522461Q6.28906 1.01562 5.20508 1.89453Q4.12109 2.77344 4.12109 3.93555L4.12109 5.91797Q4.12109 7.77344 4.70703 9.30664Q5.29297 10.8398 6.37695 11.9629Q7.46094 13.0859 8.96484 13.7012Q10.4688 14.3164 12.2949 14.3164ZM12.7344 6.31836Q10.6934 6.31836 9.0918 6.00098Q7.49023 5.68359 6.56738 5.14648Q5.64453 4.60938 5.64453 3.93555Q5.64453 3.26172 6.56738 2.72461Q7.49023 2.1875 9.0918 1.87012Q10.6934 1.55273 12.7344 1.55273Q14.7852 1.55273 16.3867 1.87012Q17.9883 2.1875 18.9111 2.72461Q19.834 3.26172 19.834 3.93555Q19.834 4.60938 18.9111 5.14648Q17.9883 5.68359 16.3867 6.00098Q14.7852 6.31836 12.7344 6.31836ZM20.293 10L21.0645 10Q22.6953 10 23.623 9.18945Q24.5508 8.37891 24.5508 6.96289Q24.5508 5.54688 23.6182 4.73633Q22.6855 3.92578 21.0645 3.92578L20.4395 3.92578L20.4395 5.43945L21.0645 5.43945Q21.9922 5.43945 22.5098 5.84473Q23.0273 6.25 23.0273 6.96289Q23.0273 7.67578 22.5098 8.08105Q21.9922 8.48633 21.0645 8.48633L20.293 8.48633ZM12.6855 18.9941Q15.4688 18.9941 17.793 18.623Q20.1172 18.252 21.8164 17.5586Q23.5156 16.8652 24.4434 15.918Q25.3711 14.9707 25.3711 13.8184Q25.3711 12.9297 24.7852 12.1484Q24.1992 11.3672 23.1348 10.7422Q22.6953 10.9277 22.2119 11.0254Q21.7285 11.123 21.1719 11.1426Q20.0098 13.1738 17.9443 14.3164Q15.8789 15.459 13.1738 15.459L12.2949 15.459Q10.293 15.459 8.61328 14.7852Q6.93359 14.1113 5.69336 12.8906Q4.45312 11.6699 3.75 10Q1.97266 10.6934 0.986328 11.665Q0 12.6367 0 13.8184Q0 14.9707 0.932617 15.918Q1.86523 16.8652 3.56445 17.5586Q5.26367 18.252 7.58301 18.623Q9.90234 18.9941 12.6855 18.9941Z" fill="#007aff"/>
 </g>
</svg>
