<?xml version="1.0" encoding="UTF-8"?>
<!--Generator: Apple Native CoreSVG 175.5-->
<!DOCTYPE svg
PUBLIC "-//W3C//DTD SVG 1.1//EN"
       "http://www.w3.org/Graphics/SVG/1.1/DTD/svg11.dtd">
<svg version="1.1" xmlns="http://www.w3.org/2000/svg" xmlns:xlink="http://www.w3.org/1999/xlink" width="17.9785" height="17.998">
 <g>
  <rect height="17.998" opacity="0" width="17.9785" x="0" y="0"/>
  <path d="M3.06641 17.998L14.9121 17.998Q16.4453 17.998 17.2119 17.2412Q17.9785 16.4844 17.9785 14.9707L17.9785 3.04688Q17.9785 1.5332 17.2119 0.776367Q16.4453 0.0195312 14.9121 0.0195312L3.06641 0.0195312Q1.5332 0.0195312 0.766602 0.776367Q0 1.5332 0 3.04688L0 14.9707Q0 16.4844 0.766602 17.2412Q1.5332 17.998 3.06641 17.998ZM3.08594 16.4258Q2.35352 16.4258 1.96289 16.04Q1.57227 15.6543 1.57227 14.8926L1.57227 3.125Q1.57227 2.36328 1.96289 1.97754Q2.35352 1.5918 3.08594 1.5918L14.8926 1.5918Q15.6152 1.5918 16.0107 1.97754Q16.4062 2.36328 16.4062 3.125L16.4062 14.8926Q16.4062 15.6543 16.0107 16.04Q15.6152 16.4258 14.8926 16.4258Z" fill="#007aff"/>
  <path d="M7.06055 14.3262Q7.5 14.3262 7.73926 14.1406Q7.97852 13.9551 7.97852 13.6523Q7.97852 13.3594 7.7832 13.1836Q7.58789 13.0078 7.29492 13.0078Q6.80664 13.0078 6.59668 12.7637Q6.38672 12.5195 6.38672 11.9141L6.38672 10.5762Q6.38672 9.93164 6.01074 9.47754Q5.63477 9.02344 4.9707 8.90625L4.9707 9.0918Q5.63477 8.97461 6.01074 8.53027Q6.38672 8.08594 6.38672 7.43164L6.38672 6.10352Q6.38672 5.49805 6.59668 5.24902Q6.80664 5 7.29492 5Q7.58789 5 7.7832 4.8291Q7.97852 4.6582 7.97852 4.36523Q7.97852 4.0625 7.73926 3.87207Q7.5 3.68164 7.06055 3.68164Q6.07422 3.68164 5.51758 4.25781Q4.96094 4.83398 4.96094 5.9668L4.96094 7.1875Q4.96094 7.71484 4.81934 7.90039Q4.67773 8.08594 4.30664 8.18359Q3.99414 8.27148 3.84277 8.50098Q3.69141 8.73047 3.69141 9.00879Q3.69141 9.28711 3.84277 9.5166Q3.99414 9.74609 4.30664 9.82422Q4.67773 9.93164 4.81934 10.1172Q4.96094 10.3027 4.96094 10.8301L4.96094 12.0508Q4.96094 13.1836 5.51758 13.7549Q6.07422 14.3262 7.06055 14.3262ZM10.9473 14.3262Q11.9336 14.3262 12.4902 13.7549Q13.0469 13.1836 13.0469 12.0508L13.0469 10.8301Q13.0469 10.3027 13.1934 10.1123Q13.3398 9.92188 13.7109 9.82422Q14.0137 9.74609 14.165 9.51172Q14.3164 9.27734 14.3213 8.99902Q14.3262 8.7207 14.1699 8.49121Q14.0137 8.26172 13.7109 8.18359Q13.3398 8.08594 13.1934 7.90039Q13.0469 7.71484 13.0469 7.1875L13.0469 5.9668Q13.0469 4.83398 12.4902 4.25781Q11.9336 3.68164 10.9473 3.68164Q10.5078 3.68164 10.2734 3.87207Q10.0391 4.0625 10.0391 4.36523Q10.0391 4.6582 10.2295 4.8291Q10.4199 5 10.7129 5Q11.2109 5 11.416 5.24902Q11.6211 5.49805 11.6211 6.10352L11.6211 7.43164Q11.6211 8.08594 12.002 8.53027Q12.3828 8.97461 13.0469 9.0918L13.0469 8.90625Q12.3828 9.02344 12.002 9.47754Q11.6211 9.93164 11.6211 10.5762L11.6211 11.9141Q11.6211 12.5195 11.416 12.7637Q11.2109 13.0078 10.7129 13.0078Q10.4199 13.0078 10.2295 13.1836Q10.0391 13.3594 10.0391 13.6523Q10.0391 13.9551 10.2734 14.1406Q10.5078 14.3262 10.9473 14.3262Z" fill="#007aff"/>
 </g>
</svg>
