<?xml version="1.0" encoding="UTF-8"?>
<!--Generator: Apple Native CoreSVG 175.5-->
<!DOCTYPE svg
PUBLIC "-//W3C//DTD SVG 1.1//EN"
       "http://www.w3.org/Graphics/SVG/1.1/DTD/svg11.dtd">
<svg version="1.1" xmlns="http://www.w3.org/2000/svg" xmlns:xlink="http://www.w3.org/1999/xlink" width="24.6191" height="21.416">
 <g>
  <rect height="21.416" opacity="0" width="24.6191" x="0" y="0"/>
  <path d="M0 1.66992Q0 2.08984 0.205078 2.43652Q0.410156 2.7832 0.751953 2.98828Q1.09375 3.19336 1.51367 3.19336Q1.91406 3.19336 2.26074 2.98828Q2.60742 2.7832 2.79297 2.46094L21.8262 2.46094Q22.0215 2.7832 22.3633 2.98828Q22.7051 3.19336 23.1055 3.19336Q23.5254 3.19336 23.8672 2.98828Q24.209 2.7832 24.4141 2.43652Q24.6191 2.08984 24.6191 1.66992Q24.6191 1.25977 24.4141 0.913086Q24.209 0.566406 23.8672 0.361328Q23.5254 0.15625 23.1055 0.15625Q22.7051 0.15625 22.3633 0.361328Q22.0215 0.566406 21.8262 0.888672L2.79297 0.888672Q2.60742 0.566406 2.26074 0.361328Q1.91406 0.15625 1.51367 0.15625Q1.09375 0.15625 0.751953 0.361328Q0.410156 0.566406 0.205078 0.913086Q0 1.25977 0 1.66992Z" fill="#007aff"/>
  <path d="M4.30664 20.6738L6.00586 20.6738Q6.30859 20.6738 6.50391 20.4736Q6.69922 20.2734 6.69922 19.9707L6.69922 0.712891Q6.69922 0.400391 6.50391 0.200195Q6.30859 0 6.00586 0L4.30664 0Q4.00391 0 3.80859 0.200195Q3.61328 0.400391 3.61328 0.712891L3.61328 19.9707Q3.61328 20.2734 3.80859 20.4736Q4.00391 20.6738 4.30664 20.6738ZM18.6133 20.6738L20.3125 20.6738Q20.6152 20.6738 20.8105 20.4736Q21.0059 20.2734 21.0059 19.9707L21.0059 0.712891Q21.0059 0.400391 20.8105 0.200195Q20.6152 0 20.3125 0L18.6133 0Q18.3105 0 18.1152 0.200195Q17.9199 0.400391 17.9199 0.712891L17.9199 19.9707Q17.9199 20.2734 18.1152 20.4736Q18.3105 20.6738 18.6133 20.6738Z" fill="#007aff"/>
 </g>
</svg>
