<?xml version="1.0" encoding="UTF-8"?>
<!--Generator: Apple Native CoreSVG 175.5-->
<!DOCTYPE svg
PUBLIC "-//W3C//DTD SVG 1.1//EN"
       "http://www.w3.org/Graphics/SVG/1.1/DTD/svg11.dtd">
<svg version="1.1" xmlns="http://www.w3.org/2000/svg" xmlns:xlink="http://www.w3.org/1999/xlink" width="16.7969" height="20.5957">
 <g>
  <rect height="20.5957" opacity="0" width="16.7969" x="0" y="0"/>
  <path d="M0 12.0117L0 10.3125Q1.54297 11.6309 3.61328 12.2559Q5.68359 12.8809 8.39844 12.8809Q11.1133 12.8809 13.1787 12.2559Q15.2441 11.6309 16.7969 10.3125L16.7969 12.0117Q15.166 13.2129 13.1006 13.7842Q11.0352 14.3555 8.39844 14.3555Q5.76172 14.3555 3.69629 13.7842Q1.63086 13.2129 0 12.0117ZM0 15.9766Q0 16.9824 0.600586 17.8271Q1.20117 18.6719 2.31934 19.2871Q3.4375 19.9023 4.97559 20.2393Q6.51367 20.5762 8.39844 20.5762Q10.2734 20.5762 11.8164 20.2393Q13.3594 19.9023 14.4727 19.2871Q15.5859 18.6719 16.1914 17.8271Q16.7969 16.9824 16.7969 15.9766L16.7969 4.16016Q16.7969 2.92969 15.7471 1.99219Q14.6973 1.05469 12.8076 0.527344Q10.918 0 8.39844 0Q5.87891 0 3.98926 0.527344Q2.09961 1.05469 1.0498 1.99219Q0 2.92969 0 4.16016ZM1.57227 4.16016Q1.57227 3.33984 2.42676 2.71484Q3.28125 2.08984 4.81445 1.7334Q6.34766 1.37695 8.39844 1.37695Q10.4492 1.37695 11.9824 1.7334Q13.5156 2.08984 14.3701 2.71484Q15.2246 3.33984 15.2246 4.16016Q15.2246 4.94141 14.3652 5.54688Q13.5059 6.15234 11.9678 6.49414Q10.4297 6.83594 8.39844 6.83594Q6.36719 6.83594 4.8291 6.49414Q3.29102 6.15234 2.43164 5.54688Q1.57227 4.94141 1.57227 4.16016Z" fill="#007aff"/>
 </g>
</svg>
