<?xml version="1.0" encoding="UTF-8"?>
<!--Generator: Apple Native CoreSVG 175-->
<!DOCTYPE svg
PUBLIC "-//W3C//DTD SVG 1.1//EN"
       "http://www.w3.org/Graphics/SVG/1.1/DTD/svg11.dtd">
<svg version="1.1" xmlns="http://www.w3.org/2000/svg" xmlns:xlink="http://www.w3.org/1999/xlink" width="15.6438" height="19.2035">
 <g>
  <rect height="19.2035" opacity="0" width="15.6438" x="0" y="0"/>
  <path d="M0 15.4843Q0 16.216 0.572433 16.8849Q1.14487 17.5539 2.18925 18.0742Q3.23364 18.5945 4.66621 18.8927Q6.09879 19.191 7.82196 19.191Q9.54224 19.191 10.9727 18.8927Q12.4031 18.5945 13.4496 18.0742Q14.4962 17.5539 15.07 16.8849Q15.6438 16.216 15.6438 15.4843L15.6438 3.38669Q15.6438 2.43042 14.6643 1.66519Q13.6848 0.899963 11.9253 0.449982Q10.1657 0 7.82196 0Q5.47104 0 3.71147 0.449982Q1.9519 0.899963 0.975952 1.66519Q0 2.43042 0 3.38669ZM0.728607 3.38669Q0.728607 2.63672 1.61469 2.02225Q2.50076 1.40778 4.09729 1.04431Q5.69382 0.680847 7.82196 0.680847Q9.94995 0.680847 11.5465 1.04431Q13.143 1.40778 14.0292 2.02225Q14.9153 2.63672 14.9153 3.38669Q14.9153 4.12582 14.0067 4.7348Q13.098 5.34378 11.4967 5.70312Q9.89532 6.06247 7.82196 6.06247Q5.74844 6.06247 4.14711 5.70312Q2.54578 5.34378 1.63719 4.7348Q0.728607 4.12582 0.728607 3.38669Z" fill="#000000"/>
 </g>
</svg>
