<?xml version="1.0" encoding="UTF-8"?>
<!--Generator: Apple Native CoreSVG 175-->
<!DOCTYPE svg
PUBLIC "-//W3C//DTD SVG 1.1//EN"
       "http://www.w3.org/Graphics/SVG/1.1/DTD/svg11.dtd">
<svg version="1.1" xmlns="http://www.w3.org/2000/svg" xmlns:xlink="http://www.w3.org/1999/xlink" width="8.77274" height="17.8497">
 <g>
  <rect height="17.8497" opacity="0" width="8.77274" x="0" y="0"/>
  <path d="M0.352783 17.8403Q0.50354 17.8403 0.60585 17.7401Q0.70816 17.6399 0.70816 17.4821L0.70816 0.35553Q0.70816 0.197754 0.60585 0.098877Q0.50354 0 0.352783 0Q0.197601 0 0.0988007 0.098877Q0 0.197754 0 0.35553L0 17.4821Q0 17.6399 0.0988007 17.7401Q0.197601 17.8403 0.352783 17.8403Z" fill="rgba(255,255,255,0.55)"/>
  <path d="M7.50244 11.4247Q7.7977 11.6238 8.0909 11.6203Q8.38409 11.6168 8.57841 11.426Q8.77274 11.2352 8.77274 10.8731L8.77274 6.98944Q8.77274 6.4212 8.37021 6.26587Q7.96768 6.11053 7.50244 6.42822L4.79019 8.26691Q4.55627 8.43399 4.47266 8.68752Q4.38904 8.94104 4.46777 9.19594Q4.54651 9.45084 4.79019 9.61105Z" fill="rgba(255,255,255,0.85)"/>
 </g>
</svg>
