<?xml version="1.0" encoding="UTF-8"?>
<!--Generator: Apple Native CoreSVG 175-->
<!DOCTYPE svg
PUBLIC "-//W3C//DTD SVG 1.1//EN"
       "http://www.w3.org/Graphics/SVG/1.1/DTD/svg11.dtd">
<svg version="1.1" xmlns="http://www.w3.org/2000/svg" xmlns:xlink="http://www.w3.org/1999/xlink" width="19.1554" height="19.3137">
 <g>
  <rect height="19.3137" opacity="0" width="19.1554" x="0" y="0"/>
  <path d="M0.0202942 13.7825L0.0202942 18.1406Q0.0202942 19.3137 1.19736 19.3137L5.69336 19.3137Q3.77533 18.5535 2.30782 17.1172Q0.840302 15.6808 0.0202942 13.7825ZM19.1351 13.7825Q18.3153 15.6808 16.8442 17.1172Q15.3731 18.5535 13.4579 19.3137L17.9512 19.3137Q19.1351 19.3137 19.1351 18.1406ZM6.3031 6.94031Q6.18668 6.83365 6.19858 6.69319Q6.21048 6.55273 6.31012 6.44608Q6.40549 6.35071 6.54457 6.3472Q6.68365 6.34369 6.80008 6.46011L9.57153 9.23431L14.4113 4.40155Q14.5137 4.29214 14.6514 4.29703Q14.7891 4.30191 14.8843 4.40155Q15.0008 4.50821 15.0008 4.65004Q15.0008 4.79187 14.8984 4.89136L9.8262 9.96643Q9.72382 10.0688 9.57985 10.0723Q9.43588 10.0758 9.31961 9.96643ZM9.57428 19.2262Q11.545 19.2262 13.2799 18.4801Q15.0148 17.7339 16.3355 16.4133Q17.6562 15.0926 18.4058 13.3576Q19.1554 11.6226 19.1554 9.65195Q19.1554 7.68127 18.4058 5.94627Q17.6562 4.21127 16.3355 2.89062Q15.0148 1.56998 13.282 0.823822Q11.5492 0.0776672 9.57153 0.0776672Q7.60086 0.0776672 5.86586 0.823822Q4.13086 1.56998 2.81151 2.89062Q1.49216 4.21127 0.746078 5.94627Q0 7.68127 0 9.65195Q0 11.6226 0.746078 13.3576Q1.49216 15.0926 2.81288 16.4133Q4.13361 17.7339 5.86853 18.4801Q7.60345 19.2262 9.57428 19.2262Z" fill="#007aff"/>
 </g>
</svg>
