<?xml version="1.0" encoding="UTF-8"?>
<!--Generator: Apple Native CoreSVG 175-->
<!DOCTYPE svg
PUBLIC "-//W3C//DTD SVG 1.1//EN"
       "http://www.w3.org/Graphics/SVG/1.1/DTD/svg11.dtd">
<svg version="1.1" xmlns="http://www.w3.org/2000/svg" xmlns:xlink="http://www.w3.org/1999/xlink" width="21.4735" height="19.6286">
 <g>
  <rect height="19.6286" opacity="0" width="21.4735" x="0" y="0"/>
  <path d="M10.7367 17.3372Q12.0961 17.3372 13.2938 16.8206Q14.4914 16.304 15.4012 15.3942Q16.311 14.4844 16.8241 13.2916Q17.3372 12.0988 17.3372 10.7339Q17.3372 9.37195 16.8241 8.17566Q16.311 6.97937 15.4012 6.06956Q14.4914 5.15976 13.2938 4.64455Q12.0961 4.12933 10.7367 4.12933Q9.37744 4.12933 8.17978 4.64455Q6.98212 5.15976 6.07231 6.06956Q5.16251 6.97937 4.64806 8.17566Q4.13361 9.37195 4.13361 10.7339Q4.13361 12.0961 4.64806 13.2903Q5.16251 14.4844 6.07231 15.3942Q6.98212 16.304 8.17978 16.8206Q9.37744 17.3372 10.7367 17.3372ZM10.7367 4.86053Q11.9496 4.86053 13.0139 5.31837Q14.0782 5.77621 14.8878 6.58577Q15.6973 7.39532 16.1551 8.45963Q16.6129 9.52393 16.6129 10.7339Q16.6129 11.9469 16.1551 13.0112Q15.6973 14.0755 14.8878 14.8815Q14.0782 15.6876 13.0139 16.1488Q11.9496 16.6101 10.7367 16.6101Q9.52393 16.6101 8.45963 16.1488Q7.39532 15.6876 6.5844 14.8815Q5.77347 14.0755 5.3157 13.0112Q4.85794 11.9469 4.85794 10.7339Q4.85794 9.52393 5.3157 8.45963Q5.77347 7.39532 6.5844 6.58577Q7.39532 5.77621 8.45963 5.31837Q9.52393 4.86053 10.7367 4.86053ZM14.7516 15.0638L15.2539 14.5602L10.8989 10.1868Q10.7922 10.0871 10.6464 10.0906Q10.5005 10.0941 10.3966 10.1868Q10.2942 10.2875 10.2942 10.435Q10.2942 10.5824 10.3966 10.6876ZM17.7138 18.5497Q18.0711 18.5497 18.3257 18.2965Q18.5802 18.0434 18.5802 17.6833Q18.5802 17.3259 18.327 17.0714Q18.0739 16.8169 17.7138 16.8169Q17.3605 16.8169 17.1061 17.07Q16.8517 17.3232 16.8517 17.6833Q16.8517 18.0434 17.1048 18.2965Q17.3579 18.5497 17.7138 18.5497ZM20.6044 11.5891Q20.9618 11.5891 21.2177 11.3346Q21.4735 11.0802 21.4735 10.7199Q21.4735 10.3696 21.219 10.1151Q20.9645 9.86053 20.6044 9.86053Q20.2469 9.86053 19.9911 10.1137Q19.7353 10.3668 19.7353 10.7199Q19.7353 11.0774 19.9919 11.3332Q20.2486 11.5891 20.6044 11.5891ZM17.7138 4.64264Q18.0711 4.64264 18.3257 4.3895Q18.5802 4.13635 18.5802 3.77625Q18.5802 3.41599 18.327 3.16284Q18.0739 2.9097 17.7138 2.9097Q17.3605 2.9097 17.1061 3.16284Q16.8517 3.41599 16.8517 3.77625Q16.8517 4.13361 17.1048 4.38812Q17.3579 4.64264 17.7138 4.64264ZM10.7367 1.72852Q11.0942 1.72852 11.3487 1.474Q11.6032 1.21948 11.6032 0.859375Q11.6032 0.509033 11.3501 0.254517Q11.097 0 10.7367 0Q10.3793 0 10.1248 0.253143Q9.8703 0.506287 9.8703 0.859375Q9.8703 1.21948 10.1234 1.474Q10.3766 1.72852 10.7367 1.72852ZM3.75549 4.63715Q4.11285 4.63715 4.36737 4.384Q4.62189 4.13086 4.62189 3.77075Q4.62189 3.41766 4.36874 3.16101Q4.1156 2.90436 3.75549 2.90436Q3.40515 2.90436 3.15063 3.16101Q2.89612 3.41766 2.89612 3.77075Q2.89612 4.12811 3.14926 4.38263Q3.4024 4.63715 3.75549 4.63715ZM0.869141 11.5891Q1.22665 11.5891 1.48109 11.3346Q1.73553 11.0802 1.73553 10.7199Q1.73553 10.3696 1.47888 10.1151Q1.22223 9.86053 0.869141 9.86053Q0.51178 9.86053 0.25589 10.1137Q0 10.3668 0 10.7199Q0 11.0774 0.254517 11.3332Q0.509033 11.5891 0.869141 11.5891ZM3.75824 18.5524Q4.1156 18.5524 4.37012 18.2957Q4.62463 18.0391 4.62463 17.686Q4.62463 17.3286 4.37149 17.0741Q4.11835 16.8196 3.75824 16.8196Q3.4079 16.8196 3.15338 17.0728Q2.89886 17.3259 2.89886 17.686Q2.89886 18.0461 3.15201 18.2993Q3.40515 18.5524 3.75824 18.5524Z" fill="#ffffff"/>
 </g>
</svg>
