<?xml version="1.0" encoding="UTF-8"?>
<!--Generator: Apple Native CoreSVG 175-->
<!DOCTYPE svg
PUBLIC "-//W3C//DTD SVG 1.1//EN"
       "http://www.w3.org/Graphics/SVG/1.1/DTD/svg11.dtd">
<svg version="1.1" xmlns="http://www.w3.org/2000/svg" xmlns:xlink="http://www.w3.org/1999/xlink" width="21.203" height="21.2162">
 <g>
  <rect height="21.2162" opacity="0" width="21.203" x="0" y="0"/>
  <path d="M20.2779 12.4661Q21.2003 11.5439 21.203 10.6046Q21.2057 9.66524 20.2862 8.743L12.4502 0.923939Q11.5307 0.00429201 10.5901 1.95536e-05Q9.64943-0.00425291 8.72017 0.925007L0.907674 8.73751Q-0.0145672 9.6599 0.000233789 10.6089Q0.0150348 11.5579 0.920491 12.4607L8.73269 20.2965Q9.63814 21.2021 10.5858 21.2064Q11.5334 21.2107 12.4557 20.2884ZM10.5956 0.778218L10.5956 20.4282Q9.89831 20.4282 9.2347 19.7646L1.43853 11.9824Q0.765157 11.3118 0.778432 10.6018Q0.791707 9.89183 1.44982 9.23372L9.23729 1.44625Q9.90807 0.775471 10.5956 0.778218Z" fill="#007aff"/>
 </g>
</svg>
