<?xml version="1.0" encoding="UTF-8"?>
<!--Generator: Apple Native CoreSVG 175-->
<!DOCTYPE svg
PUBLIC "-//W3C//DTD SVG 1.1//EN"
       "http://www.w3.org/Graphics/SVG/1.1/DTD/svg11.dtd">
<svg version="1.1" xmlns="http://www.w3.org/2000/svg" xmlns:xlink="http://www.w3.org/1999/xlink" width="17.2852" height="17.3145">
 <g>
  <rect height="17.3145" opacity="0" width="17.2852" x="0" y="0"/>
  <path d="M2.62695 17.3145L14.6484 17.3145Q15.957 17.3145 16.6211 16.6455Q17.2852 15.9766 17.2852 14.6875L17.2852 2.65625Q17.2852 1.37695 16.6211 0.703125Q15.957 0.0292969 14.6484 0.0292969L2.62695 0.0292969Q1.33789 0.0292969 0.668945 0.693359Q0 1.35742 0 2.65625L0 14.6875Q0 15.9863 0.668945 16.6504Q1.33789 17.3145 2.62695 17.3145ZM2.65625 16.5918Q1.70898 16.5918 1.2207 16.1035Q0.732422 15.6152 0.732422 14.6582L0.732422 2.69531Q0.732422 1.72852 1.2207 1.24512Q1.70898 0.761719 2.65625 0.761719L14.6289 0.761719Q15.5566 0.761719 16.0596 1.24512Q16.5625 1.72852 16.5625 2.69531L16.5625 14.6582Q16.5625 15.6152 16.0596 16.1035Q15.5566 16.5918 14.6289 16.5918ZM3.95508 5.41992Q4.55078 5.42969 4.99023 4.99512Q5.42969 4.56055 5.42969 3.93555Q5.42969 3.33008 4.99023 2.90039Q4.55078 2.4707 3.95508 2.4707Q3.34961 2.4707 2.91504 2.90039Q2.48047 3.33008 2.48047 3.93555Q2.48047 4.56055 2.91504 4.98535Q3.34961 5.41016 3.95508 5.41992ZM13.3398 5.41992Q13.9453 5.42969 14.375 4.99512Q14.8047 4.56055 14.8047 3.93555Q14.8047 3.33008 14.375 2.90039Q13.9453 2.4707 13.3398 2.4707Q12.7344 2.4707 12.2949 2.90039Q11.8555 3.33008 11.8555 3.93555Q11.8555 4.56055 12.2949 4.98535Q12.7344 5.41016 13.3398 5.41992ZM3.95508 10.1465Q4.55078 10.1465 4.99023 9.71191Q5.42969 9.27734 5.42969 8.65234Q5.42969 8.04688 4.99023 7.61719Q4.55078 7.1875 3.95508 7.1875Q3.34961 7.1875 2.91504 7.61719Q2.48047 8.04688 2.48047 8.65234Q2.48047 9.27734 2.91504 9.71191Q3.34961 10.1465 3.95508 10.1465ZM13.3301 10.1465Q13.9258 10.1465 14.3652 9.71191Q14.8047 9.27734 14.8047 8.65234Q14.8047 8.04688 14.3652 7.61719Q13.9258 7.1875 13.3301 7.1875Q12.7246 7.1875 12.29 7.61719Q11.8555 8.04688 11.8555 8.65234Q11.8555 9.27734 12.29 9.71191Q12.7246 10.1465 13.3301 10.1465ZM3.95508 14.834Q4.55078 14.834 4.98535 14.3994Q5.41992 13.9648 5.41992 13.3594Q5.41992 12.7441 4.98535 12.3145Q4.55078 11.8848 3.95508 11.8848Q3.34961 11.8848 2.91504 12.3145Q2.48047 12.7441 2.48047 13.3594Q2.48047 13.9648 2.91504 14.3994Q3.34961 14.834 3.95508 14.834ZM13.3398 14.834Q13.9453 14.834 14.375 14.3994Q14.8047 13.9648 14.8047 13.3594Q14.8047 12.7441 14.375 12.3145Q13.9453 11.8848 13.3398 11.8848Q12.7344 11.8848 12.2998 12.3145Q11.8652 12.7441 11.8652 13.3594Q11.8652 13.9648 12.2998 14.3994Q12.7344 14.834 13.3398 14.834Z" fill="#ffffff"/>
 </g>
</svg>
