<?xml version="1.0" encoding="UTF-8"?>
<!--Generator: Apple Native CoreSVG 175-->
<!DOCTYPE svg
PUBLIC "-//W3C//DTD SVG 1.1//EN"
       "http://www.w3.org/Graphics/SVG/1.1/DTD/svg11.dtd">
<svg version="1.1" xmlns="http://www.w3.org/2000/svg" xmlns:xlink="http://www.w3.org/1999/xlink" width="17.2852" height="17.3145">
 <g>
  <rect height="17.3145" opacity="0" width="17.2852" x="0" y="0"/>
  <path d="M2.62695 17.3145L14.6484 17.3145Q15.957 17.3145 16.6211 16.6455Q17.2852 15.9766 17.2852 14.6875L17.2852 2.65625Q17.2852 1.37695 16.6211 0.703125Q15.957 0.0292969 14.6484 0.0292969L2.62695 0.0292969Q1.33789 0.0292969 0.668945 0.693359Q0 1.35742 0 2.65625L0 14.6875Q0 15.9863 0.668945 16.6504Q1.33789 17.3145 2.62695 17.3145ZM13.3789 5.41016Q12.7539 5.40039 12.3145 4.96582Q11.875 4.53125 11.875 3.90625Q11.875 3.29102 12.3145 2.86621Q12.7539 2.44141 13.3789 2.44141Q13.9844 2.44141 14.4189 2.86621Q14.8535 3.29102 14.8535 3.90625Q14.8535 4.53125 14.4189 4.97559Q13.9844 5.41992 13.3789 5.41016ZM8.66211 10.166Q8.03711 10.166 7.60254 9.72168Q7.16797 9.27734 7.16797 8.65234Q7.16797 8.03711 7.60254 7.60742Q8.03711 7.17773 8.66211 7.17773Q9.25781 7.17773 9.69727 7.60742Q10.1367 8.03711 10.1367 8.65234Q10.1367 9.27734 9.69727 9.72168Q9.25781 10.166 8.66211 10.166ZM3.93555 14.873Q3.32031 14.873 2.88574 14.4385Q2.45117 14.0039 2.45117 13.3789Q2.45117 12.7734 2.88574 12.3389Q3.32031 11.9043 3.93555 11.9043Q4.54102 11.9043 4.97559 12.3389Q5.41016 12.7734 5.41016 13.3789Q5.41016 14.0039 4.97559 14.4385Q4.54102 14.873 3.93555 14.873Z" fill="#ffffff"/>
 </g>
</svg>
