<?xml version="1.0" encoding="UTF-8"?>
<!--Generator: Apple Native CoreSVG 175-->
<!DOCTYPE svg
PUBLIC "-//W3C//DTD SVG 1.1//EN"
       "http://www.w3.org/Graphics/SVG/1.1/DTD/svg11.dtd">
<svg version="1.1" xmlns="http://www.w3.org/2000/svg" xmlns:xlink="http://www.w3.org/1999/xlink" width="18.4665" height="19.8849">
 <g>
  <rect height="19.8849" opacity="0" width="18.4665" x="0" y="0"/>
  <path d="M9.23325 8.22234Q12.0024 8.22234 14.08 7.71239Q16.1575 7.20244 17.312 6.28424Q18.4665 5.36604 18.4665 4.14427Q18.4665 2.91533 17.312 1.99713Q16.1575 1.07893 14.08 0.571122Q12.0024 0.0633095 9.23325 0.0633095Q6.46408 0.0633095 4.38652 0.571122Q2.30896 1.07893 1.15448 1.99713Q0 2.91533 0 4.14427Q0 5.36604 1.15448 6.28424Q2.30896 7.20244 4.38652 7.71239Q6.46408 8.22234 9.23325 8.22234ZM9.23325 7.5009Q6.68671 7.5009 4.77226 7.06885Q2.85782 6.6368 1.79321 5.88171Q0.728607 5.12663 0.728607 4.14427Q0.728607 3.16176 1.79321 2.4053Q2.85782 1.64885 4.77226 1.21687Q6.68671 0.784898 9.23325 0.784898Q11.7798 0.784898 13.6942 1.21687Q15.6087 1.64885 16.6733 2.4053Q17.7379 3.16176 17.7379 4.14427Q17.7379 5.12663 16.6733 5.88171Q15.6087 6.6368 13.6942 7.06885Q11.7798 7.5009 9.23325 7.5009ZM9.23325 13.0443Q12.0282 13.0443 14.103 12.4908Q16.1778 11.9372 17.3222 10.7704Q18.4665 9.60356 18.4665 7.75664L18.4665 4.14427L17.7379 4.14427L17.7379 7.75664Q17.7379 9.37972 16.6842 10.3848Q15.6305 11.3899 13.7174 11.8528Q11.8044 12.3157 9.23325 12.3157Q6.65939 12.3157 4.7477 11.8528Q2.836 11.3899 1.7823 10.3848Q0.728607 9.37972 0.728607 7.75664L0.728607 4.14427L0 4.14427L0 7.75664Q0 9.60356 1.14433 10.7704Q2.28867 11.9372 4.36348 12.4908Q6.43829 13.0443 9.23325 13.0443ZM3.30948 8.99611L3.30948 6.938L2.64175 6.938L2.64175 8.99611Q2.64175 9.13329 2.74078 9.23232Q2.83981 9.33135 2.97699 9.33135Q3.11417 9.33135 3.21182 9.23232Q3.30948 9.13329 3.30948 8.99611ZM6.30035 9.73753L6.30035 7.67943L5.6398 7.67943L5.6398 9.73753Q5.6398 9.87471 5.73395 9.97023Q5.82809 10.0658 5.96527 10.0658Q6.10245 10.0658 6.2014 9.97023Q6.30035 9.87471 6.30035 9.73753ZM9.53995 9.98442L9.53995 7.92632L8.87222 7.92632L8.87222 9.98442Q8.87222 10.1216 8.97125 10.2193Q9.07028 10.3169 9.20746 10.3169Q9.34464 10.3169 9.44229 10.2193Q9.53995 10.1216 9.53995 9.98442ZM12.7821 9.73753L12.7821 7.67943L12.1144 7.67943L12.1144 9.73753Q12.1144 9.87471 12.2134 9.97023Q12.3125 10.0658 12.4496 10.0658Q12.5868 10.0658 12.6845 9.97023Q12.7821 9.87471 12.7821 9.73753ZM15.773 8.99611L15.773 6.938L15.1125 6.938L15.1125 8.99611Q15.1125 9.13329 15.2066 9.23232Q15.3008 9.33135 15.4379 9.33135Q15.5751 9.33135 15.6741 9.23232Q15.773 9.13329 15.773 8.99611ZM16.3008 17.5419Q16.3008 17.4368 16.2434 17.3434Q16.1859 17.25 16.0752 17.2127Q15.9645 17.1754 15.8192 17.2125Q14.5305 17.5661 13.0701 17.7561Q11.6098 17.9462 10.2484 17.9462Q8.88016 17.9462 7.42462 17.7561Q5.96909 17.5661 4.67346 17.2125L4.48044 17.906Q5.82306 18.2634 7.33162 18.4554Q8.84018 18.6474 10.2484 18.6474Q11.6524 18.6474 13.1631 18.454Q14.6739 18.2606 16.0094 17.906Q16.1816 17.8532 16.2412 17.7536Q16.3008 17.6539 16.3008 17.5419ZM4.88159 19.5849L6.01181 15.8232Q6.07269 15.6204 5.98656 15.4796Q5.90042 15.3387 5.73303 15.284Q5.56564 15.2293 5.38635 15.2989L2.3703 16.3541Q2.1312 16.429 2.04842 16.6663Q1.96564 16.9037 2.11868 17.1248L4.06647 19.6654Q4.18472 19.8181 4.35699 19.8653Q4.52927 19.9126 4.67987 19.8459Q4.83047 19.7793 4.88159 19.5849Z" fill="#007aff"/>
 </g>
</svg>
