<?xml version="1.0" encoding="UTF-8"?>
<!--Generator: Apple Native CoreSVG 175-->
<!DOCTYPE svg
PUBLIC "-//W3C//DTD SVG 1.1//EN"
       "http://www.w3.org/Graphics/SVG/1.1/DTD/svg11.dtd">
<svg version="1.1" xmlns="http://www.w3.org/2000/svg" xmlns:xlink="http://www.w3.org/1999/xlink" width="20.0723" height="18.4763">
 <g>
  <rect height="18.4763" opacity="0" width="20.0723" x="0" y="0"/>
  <path d="M0 9.23325Q0 12.0282 0.551376 14.103Q1.10275 16.1778 2.26952 17.3222Q3.43628 18.4665 5.28748 18.4665L7.06177 18.4665Q5.92422 17.6357 5.20462 15.7732L3.52768 15.7732Q3.39066 15.7732 3.29514 15.6741Q3.19962 15.5751 3.19962 15.4379Q3.19962 15.3008 3.29514 15.2031Q3.39066 15.1054 3.52768 15.1054L4.97025 15.1054Q4.77844 14.5027 4.64348 13.8615Q4.50851 13.2204 4.44016 12.7821L2.78641 12.7821Q2.65625 12.7821 2.55859 12.6845Q2.46094 12.5868 2.46094 12.4496Q2.46094 12.3125 2.55859 12.2134Q2.65625 12.1144 2.78641 12.1144L4.36127 12.1144Q4.28436 11.4673 4.24103 10.7331Q4.19769 9.99893 4.19495 9.53995L2.54227 9.53995Q2.40509 9.53995 2.30606 9.44229Q2.20703 9.34464 2.20703 9.20746Q2.20703 9.07028 2.30606 8.97125Q2.40509 8.87222 2.54227 8.87222L4.19769 8.87222Q4.20044 8.28827 4.24377 7.61795Q4.28711 6.94763 4.36676 6.30051L2.78641 6.30051Q2.65625 6.30051 2.55859 6.20148Q2.46094 6.10245 2.46094 5.96527Q2.46094 5.82809 2.55859 5.73044Q2.65625 5.63278 2.78641 5.63278L4.45114 5.63278Q4.55734 5.02899 4.67827 4.44458Q4.79919 3.86017 4.98245 3.30948L3.52768 3.30948Q3.39066 3.30948 3.29514 3.21182Q3.19962 3.11417 3.19962 2.97699Q3.19962 2.83981 3.29514 2.74078Q3.39066 2.64175 3.52768 2.64175L5.22232 2.64175Q5.93628 0.814514 7.06177 0L5.28748 0Q3.43628 0 2.26952 1.14433Q1.10275 2.28867 0.551376 4.36348Q0 6.43829 0 9.23325ZM11.2813 9.65317L14.0012 11.8837Q14.1719 12.0348 14.362 12.0312Q14.552 12.0277 14.6915 11.9038Q14.8309 11.7798 14.8309 11.5524L14.8309 9.61609L19.6895 9.61609Q19.861 9.61609 19.9667 9.50554Q20.0723 9.39499 20.0723 9.23599Q20.0723 9.06448 19.9667 8.95882Q19.861 8.85315 19.6895 8.85315L14.8309 8.85315L14.8309 6.91132Q14.8309 6.68671 14.6928 6.56273Q14.5547 6.43875 14.3661 6.4325Q14.1774 6.42624 14.0012 6.57028L11.2813 8.81058Q11.077 8.97583 11.0699 9.22485Q11.0629 9.47388 11.2813 9.65317ZM10.7329 8.13797L12.5876 6.59607Q12.3763 4.65149 11.86 3.22617Q11.3438 1.80084 10.591 1.02249Q9.83826 0.244141 8.90274 0.244141Q7.76169 0.244141 6.90079 1.36932Q6.03989 2.49451 5.55435 4.51698Q5.06882 6.53946 5.06882 9.23325Q5.06882 11.9243 5.55435 13.9481Q6.03989 15.972 6.90079 17.0923Q7.76169 18.2126 8.90274 18.2126Q9.83826 18.2126 10.591 17.4391Q11.3438 16.6656 11.86 15.2403Q12.3763 13.815 12.5876 11.8704L10.7259 10.3258Q10.3726 10.034 10.2594 9.63364Q10.1462 9.23325 10.2665 8.82797Q10.3868 8.4227 10.7329 8.13797Z" fill="#007aff"/>
 </g>
</svg>
