<?xml version="1.0" encoding="UTF-8"?>
<!--Generator: Apple Native CoreSVG 175-->
<!DOCTYPE svg
PUBLIC "-//W3C//DTD SVG 1.1//EN"
       "http://www.w3.org/Graphics/SVG/1.1/DTD/svg11.dtd">
<svg version="1.1" xmlns="http://www.w3.org/2000/svg" xmlns:xlink="http://www.w3.org/1999/xlink" width="19.489" height="18.4763">
 <g>
  <rect height="18.4763" opacity="0" width="19.489" x="0" y="0"/>
  <path d="M11.821 9.23325Q11.821 11.9243 12.3079 13.9481Q12.7949 15.972 13.6545 17.0923Q14.5141 18.2126 15.655 18.2126Q16.789 18.2126 17.6535 17.0923Q18.518 15.972 19.0035 13.9481Q19.489 11.9243 19.489 9.23325Q19.489 6.53946 19.0035 4.51698Q18.518 2.49451 17.6535 1.36932Q16.789 0.244141 15.655 0.244141Q14.5141 0.244141 13.6545 1.36932Q12.7949 2.49451 12.3079 4.51698Q11.821 6.53946 11.821 9.23325ZM6.75497 9.23325Q6.75497 12.0282 7.30497 14.103Q7.85497 16.1778 9.02319 17.3222Q10.1914 18.4665 12.0424 18.4665L13.814 18.4665Q12.6792 17.6357 11.9597 15.7732L10.2828 15.7732Q10.1456 15.7732 10.0501 15.6741Q9.95458 15.5751 9.95458 15.4379Q9.95458 15.3008 10.0501 15.2031Q10.1456 15.1054 10.2828 15.1054L11.7254 15.1054Q11.5308 14.5027 11.3972 13.8615Q11.2636 13.2204 11.1953 12.7821L9.54138 12.7821Q9.41122 12.7821 9.31219 12.6845Q9.21316 12.5868 9.21316 12.4496Q9.21316 12.3125 9.31219 12.2134Q9.41122 12.1144 9.54138 12.1144L11.1162 12.1144Q11.0393 11.4673 10.996 10.7331Q10.9527 9.99893 10.9499 9.53995L9.29449 9.53995Q9.15731 9.53995 9.05966 9.44229Q8.962 9.34464 8.962 9.20746Q8.962 9.07028 9.05966 8.97125Q9.15731 8.87222 9.29449 8.87222L10.9527 8.87222Q10.9554 8.28827 10.9987 7.61795Q11.0421 6.94763 11.1217 6.30051L9.54138 6.30051Q9.41122 6.30051 9.31219 6.20148Q9.21316 6.10245 9.21316 5.96527Q9.21316 5.82809 9.31219 5.73044Q9.41122 5.63278 9.54138 5.63278L11.2061 5.63278Q11.3125 5.02899 11.4333 4.44458Q11.5542 3.86017 11.7374 3.30948L10.2828 3.30948Q10.1456 3.30948 10.0501 3.21182Q9.95458 3.11417 9.95458 2.97699Q9.95458 2.83981 10.0501 2.74078Q10.1456 2.64175 10.2828 2.64175L11.9773 2.64175Q12.6887 0.814514 13.814 0L12.0424 0Q10.1914 0 9.02319 1.14433Q7.85497 2.28867 7.30497 4.36348Q6.75497 6.43829 6.75497 9.23325ZM2.56048 1.87103Q2.45809 1.87103 2.36555 1.92574Q2.273 1.98044 2.22723 2.1106Q1.67608 3.61176 1.41042 5.08598Q1.14477 6.56021 1.14477 8.14377Q1.14477 9.72733 1.40905 11.2016Q1.67333 12.6758 2.22723 14.1769L2.88976 13.925Q2.36364 12.4919 2.10836 11.0813Q1.85308 9.67072 1.85308 8.14377Q1.85308 6.61407 2.10836 5.20493Q2.36364 3.79578 2.88976 2.36252Q2.95065 2.21451 2.90983 2.10373Q2.86901 1.99295 2.77082 1.93199Q2.67263 1.87103 2.56048 1.87103ZM0.283105 13.8208Q0.0955746 13.886 0.0338528 14.0401Q-0.027869 14.1942 0.0229428 14.3629Q0.0737546 14.5317 0.233514 14.6359L2.8948 16.4348Q3.12292 16.5852 3.35325 16.4905Q3.58358 16.3957 3.64874 16.1594L4.53115 13.0817Q4.56869 12.9649 4.5548 12.8614Q4.54092 12.7579 4.49445 12.669Q4.44799 12.5801 4.37025 12.526Q4.2925 12.4719 4.19325 12.4545Q4.09399 12.4371 3.96902 12.4774Z" fill="#007aff"/>
 </g>
</svg>
