<?xml version="1.0" encoding="UTF-8"?>
<!--Generator: Apple Native CoreSVG 175-->
<!DOCTYPE svg
PUBLIC "-//W3C//DTD SVG 1.1//EN"
       "http://www.w3.org/Graphics/SVG/1.1/DTD/svg11.dtd">
<svg version="1.1" xmlns="http://www.w3.org/2000/svg" xmlns:xlink="http://www.w3.org/1999/xlink" width="19.7359" height="18.4763">
 <g>
  <rect height="18.4763" opacity="0" width="19.7359" x="0" y="0"/>
  <path d="M11.5769 9.23325Q11.5769 12.0024 12.0833 14.08Q12.5898 16.1575 13.508 17.312Q14.4262 18.4665 15.655 18.4665Q16.8769 18.4665 17.7951 17.312Q18.7133 16.1575 19.2246 14.08Q19.7359 12.0024 19.7359 9.23325Q19.7359 6.46408 19.2246 4.38652Q18.7133 2.30896 17.7951 1.15448Q16.8769 0 15.655 0Q14.4262 0 13.508 1.15448Q12.5898 2.30896 12.0833 4.38652Q11.5769 6.46408 11.5769 9.23325ZM12.2983 9.23325Q12.2983 6.68671 12.7304 4.77226Q13.1624 2.85782 13.9175 1.7897Q14.6726 0.721588 15.655 0.721588Q16.6375 0.721588 17.3939 1.7897Q18.1504 2.85782 18.5789 4.77226Q19.0073 6.68671 19.0073 9.23325Q19.0073 11.7798 18.5789 13.6942Q18.1504 15.6087 17.3939 16.6733Q16.6375 17.7379 15.655 17.7379Q14.6726 17.7379 13.9175 16.6733Q13.1624 15.6087 12.7304 13.6942Q12.2983 11.7798 12.2983 9.23325ZM6.75497 9.23325Q6.75497 12.0282 7.30497 14.103Q7.85497 16.1778 9.02319 17.3222Q10.1914 18.4665 12.0424 18.4665L15.655 18.4665L15.655 17.7379L12.0424 17.7379Q10.4125 17.7379 9.41091 16.6842Q8.40933 15.6305 7.94645 13.7174Q7.48358 11.8044 7.48358 9.23325Q7.48358 6.65939 7.94645 4.7477Q8.40933 2.836 9.41091 1.77879Q10.4125 0.721588 12.0424 0.721588L15.655 0.721588L15.655 0L12.0424 0Q10.1914 0 9.02319 1.14433Q7.85497 2.28867 7.30497 4.36348Q6.75497 6.43829 6.75497 9.23325ZM10.8031 3.30948L12.8612 3.30948L12.8612 2.64175L10.8031 2.64175Q10.6659 2.64175 10.5669 2.74078Q10.4679 2.83981 10.4679 2.97699Q10.4679 3.11417 10.5669 3.21182Q10.6659 3.30948 10.8031 3.30948ZM10.0617 6.30051L12.1198 6.30051L12.1198 5.63278L10.0617 5.63278Q9.92452 5.63278 9.82549 5.73044Q9.72646 5.82809 9.72646 5.96527Q9.72646 6.10245 9.82549 6.20148Q9.92452 6.30051 10.0617 6.30051ZM9.81481 9.53995L11.8659 9.53995L11.8659 8.87222L9.81481 8.87222Q9.67764 8.87222 9.57998 8.97125Q9.48232 9.07028 9.48232 9.20746Q9.48232 9.34464 9.57998 9.44229Q9.67764 9.53995 9.81481 9.53995ZM10.0617 12.7821L12.1198 12.7821L12.1198 12.1144L10.0617 12.1144Q9.92452 12.1144 9.82549 12.2134Q9.72646 12.3125 9.72646 12.4496Q9.72646 12.5868 9.82549 12.6845Q9.92452 12.7821 10.0617 12.7821ZM10.8031 15.7732L12.8612 15.7732L12.8612 15.1054L10.8031 15.1054Q10.6659 15.1054 10.5669 15.2031Q10.4679 15.3008 10.4679 15.4379Q10.4679 15.5751 10.5669 15.6741Q10.6659 15.7732 10.8031 15.7732ZM2.25027 16.3008Q2.36242 16.3008 2.45229 16.2399Q2.54217 16.179 2.58299 16.0718Q2.6238 15.9645 2.57955 15.8192Q2.23318 14.5305 2.04313 13.0701Q1.85308 11.6098 1.85308 10.2484Q1.85308 8.88016 2.04313 7.4247Q2.23318 5.96924 2.57955 4.67072L1.89321 4.48044Q1.5386 5.82306 1.34168 7.3317Q1.14477 8.84033 1.14477 10.2484Q1.14477 11.6524 1.34168 13.1596Q1.5386 14.6669 1.89321 16.0094Q1.93899 16.1816 2.04214 16.2412Q2.14529 16.3008 2.25027 16.3008ZM0.283105 4.78485L3.96902 6.11847Q4.17181 6.18637 4.31616 6.10725Q4.4605 6.02814 4.52223 5.86563Q4.58395 5.70312 4.53115 5.51682L3.64874 2.43637Q3.58358 2.20001 3.35325 2.10526Q3.12292 2.0105 2.8948 2.1637L0.233514 3.95981Q0.0737546 4.06403 0.0229428 4.23279Q-0.027869 4.40155 0.0338528 4.55566Q0.0955746 4.70978 0.283105 4.78485Z" fill="#ffffff"/>
 </g>
</svg>
