<?xml version="1.0" encoding="UTF-8"?>
<!--Generator: Apple Native CoreSVG 175.5-->
<!DOCTYPE svg
PUBLIC "-//W3C//DTD SVG 1.1//EN"
       "http://www.w3.org/Graphics/SVG/1.1/DTD/svg11.dtd">
<svg version="1.1" xmlns="http://www.w3.org/2000/svg" xmlns:xlink="http://www.w3.org/1999/xlink" width="18.5254" height="22.002">
 <g>
  <rect height="22.002" opacity="0" width="18.5254" x="0" y="0"/>
  <path d="M2.26562 21.1621L7.5293 21.1621Q7.22656 20.8203 6.99219 20.4248Q6.75781 20.0293 6.60156 19.5898L2.33398 19.5898Q1.99219 19.5898 1.78223 19.3799Q1.57227 19.1699 1.57227 18.8184L1.57227 3.00781Q1.57227 2.65625 1.78223 2.44141Q1.99219 2.22656 2.33398 2.22656L14.6094 2.22656Q14.9512 2.22656 15.1611 2.44141Q15.3711 2.65625 15.3711 3.00781L15.3711 11.8164Q15.791 11.9043 16.1865 12.0703Q16.582 12.2363 16.9434 12.4512L16.9434 2.98828Q16.9434 1.94336 16.3232 1.29883Q15.7031 0.654297 14.6875 0.654297L2.26562 0.654297Q1.25 0.654297 0.625 1.29883Q0 1.94336 0 2.98828L0 18.8379Q0 19.8828 0.625 20.5225Q1.25 21.1621 2.26562 21.1621ZM3.68164 4.85352Q4.04297 4.85352 4.29199 4.59961Q4.54102 4.3457 4.54102 3.98438Q4.54102 3.63281 4.29199 3.37891Q4.04297 3.125 3.68164 3.125Q3.33008 3.125 3.07617 3.37891Q2.82227 3.63281 2.82227 3.98438Q2.82227 4.3457 3.07617 4.59961Q3.33008 4.85352 3.68164 4.85352ZM6.17188 4.85352Q6.5332 4.85352 6.78223 4.59961Q7.03125 4.3457 7.03125 3.98438Q7.03125 3.63281 6.78223 3.37891Q6.5332 3.125 6.17188 3.125Q5.82031 3.125 5.57129 3.37891Q5.32227 3.63281 5.32227 3.98438Q5.32227 4.3457 5.57129 4.59961Q5.82031 4.85352 6.17188 4.85352ZM0.859375 7.03125L16.0938 7.03125L16.0938 5.75195L0.859375 5.75195ZM6.17188 9.18945L10.7812 9.18945Q10.9961 9.18945 11.1328 9.05273Q11.2695 8.91602 11.2695 8.69141Q11.2695 8.47656 11.1328 8.33984Q10.9961 8.20312 10.7812 8.20312L6.17188 8.20312Q5.94727 8.20312 5.81055 8.33984Q5.67383 8.47656 5.67383 8.69141Q5.67383 8.91602 5.81055 9.05273Q5.94727 9.18945 6.17188 9.18945ZM0.722656 18.457L6.2207 18.457Q6.15234 18.1055 6.14258 17.8076Q6.13281 17.5098 6.15234 17.1777L0.722656 17.1777Z" fill="#007aff"/>
  <path d="M11.8848 22.002Q12.8418 22.002 13.6865 21.6455Q14.5312 21.2891 15.166 20.6494Q15.8008 20.0098 16.1621 19.1699Q16.5234 18.3301 16.5234 17.3633Q16.5234 16.3867 16.1621 15.5469Q15.8008 14.707 15.166 14.0723Q14.5312 13.4375 13.6865 13.0762Q12.8418 12.7148 11.8848 12.7148Q10.918 12.7148 10.0732 13.0762Q9.22852 13.4375 8.59375 14.0723Q7.95898 14.707 7.59766 15.5469Q7.23633 16.3867 7.23633 17.3633Q7.23633 18.3301 7.59766 19.1699Q7.95898 20.0098 8.59375 20.6494Q9.22852 21.2891 10.0732 21.6455Q10.918 22.002 11.8848 22.002ZM11.8848 21.0156Q10.8301 21.0156 10.0049 20.5371Q9.17969 20.0586 8.70117 19.2285Q8.22266 18.3984 8.22266 17.3633Q8.22266 16.3184 8.70117 15.4883Q9.17969 14.6582 10.0049 14.1797Q10.8301 13.7012 11.8848 13.7012Q12.9199 13.7012 13.75 14.1797Q14.5801 14.6582 15.0586 15.4883Q15.5371 16.3184 15.5371 17.3633Q15.5371 18.3984 15.0586 19.2285Q14.5801 20.0586 13.75 20.5371Q12.9199 21.0156 11.8848 21.0156ZM11.8848 20.2832Q12.6855 20.2832 13.3496 19.8877Q14.0137 19.4922 14.4092 18.8281Q14.8047 18.1641 14.8047 17.3633Q14.8047 16.5527 14.4092 15.8887Q14.0137 15.2246 13.3496 14.834Q12.6855 14.4434 11.8848 14.4434Q11.0742 14.4434 10.4102 14.8389Q9.74609 15.2344 9.35059 15.8936Q8.95508 16.5527 8.95508 17.3633Q8.95508 18.1641 9.35059 18.8281Q9.74609 19.4922 10.4102 19.8877Q11.0742 20.2832 11.8848 20.2832ZM11.8848 19.3945Q10.9863 19.3945 10.415 18.8232Q9.84375 18.252 9.84375 17.3633Q9.84375 16.4648 10.415 15.8984Q10.9863 15.332 11.8848 15.332Q12.7734 15.332 13.3447 15.8984Q13.916 16.4648 13.916 17.3633Q13.916 18.252 13.3447 18.8232Q12.7734 19.3945 11.8848 19.3945ZM13.8867 22.002Q14.8535 22.002 15.6934 21.6455Q16.5332 21.2891 17.168 20.6494Q17.8027 20.0098 18.1641 19.1699Q18.5254 18.3301 18.5254 17.3633Q18.5254 16.3867 18.1641 15.5469Q17.8027 14.707 17.168 14.0723Q16.5332 13.4375 15.6934 13.0762Q14.8535 12.7148 13.8867 12.7148Q13.0566 12.7148 12.3242 12.998L13.457 13.7305Q13.5645 13.7207 13.6719 13.7109Q13.7793 13.7012 13.8867 13.7012Q14.9316 13.7012 15.7568 14.1797Q16.582 14.6582 17.0605 15.4883Q17.5391 16.3184 17.5391 17.3633Q17.5391 18.3984 17.0605 19.2285Q16.582 20.0586 15.7568 20.5371Q14.9316 21.0156 13.8867 21.0156Q13.7793 21.0156 13.6719 21.0107Q13.5645 21.0059 13.457 20.9961L12.6465 21.8359Q13.2324 22.002 13.8867 22.002Z" fill="#007aff"/>
 </g>
</svg>
