<?xml version="1.0" encoding="UTF-8"?>
<!--Generator: Apple Native CoreSVG 175-->
<!DOCTYPE svg
PUBLIC "-//W3C//DTD SVG 1.1//EN"
       "http://www.w3.org/Graphics/SVG/1.1/DTD/svg11.dtd">
<svg version="1.1" xmlns="http://www.w3.org/2000/svg" xmlns:xlink="http://www.w3.org/1999/xlink" width="29.7481" height="19.0256">
 <g>
  <rect height="19.0256" opacity="0" width="29.7481" x="0" y="0"/>
  <path d="M1.33911 15.8611L13.925 15.8611L13.925 15.1395L1.37543 15.1395Q1.08124 15.1395 0.904922 14.9632Q0.728607 14.7868 0.728607 14.4997L0.728607 1.92551Q0.728607 1.63559 0.904922 1.46065Q1.08124 1.28571 1.37543 1.28571L20.7457 1.28571Q21.0469 1.28571 21.2233 1.46065Q21.3997 1.63559 21.3997 1.92551L21.3997 5.28564L22.1211 5.28564L22.1211 1.90323Q22.1211 1.28448 21.7596 0.920792Q21.398 0.557098 20.7793 0.557098L1.33911 0.557098Q0.730133 0.557098 0.365067 0.920792Q0 1.28448 0 1.90323L0 14.5192Q0 15.1309 0.365067 15.496Q0.730133 15.8611 1.33911 15.8611ZM8.19611 18.4946L13.925 18.4946L13.925 15.7341L8.19611 15.7341ZM7.98981 19.0256L14.1383 19.0256Q14.2918 19.0256 14.3983 18.9226Q14.5047 18.8196 14.5047 18.6563Q14.5047 18.5001 14.3983 18.3971Q14.2918 18.2942 14.1383 18.2942L7.98981 18.2942Q7.82928 18.2942 7.72148 18.3971Q7.61368 18.5001 7.61368 18.6563Q7.61368 18.8196 7.72148 18.9226Q7.82928 19.0256 7.98981 19.0256ZM13.1265 14.5645Q13.1265 15.5556 13.6263 16.0499Q14.1261 16.5442 15.1161 16.5442L27.7614 16.5442Q28.7512 16.5442 29.2496 16.0499Q29.7481 15.5556 29.7481 14.5645L29.7481 6.97006Q29.7481 5.979 29.2496 5.47981Q28.7512 4.98062 27.7614 4.98062L15.1161 4.98062Q14.1261 4.98062 13.6263 5.47981Q13.1265 5.979 13.1265 6.97006ZM13.8551 14.5352L13.8551 6.99234Q13.8551 6.34109 14.1774 6.02509Q14.4997 5.70908 15.1524 5.70908L27.7251 5.70908Q28.3778 5.70908 28.6987 6.02509Q29.0196 6.34109 29.0196 6.99234L29.0196 14.5352Q29.0196 15.1935 28.6987 15.5081Q28.3778 15.8228 27.7251 15.8228L15.1524 15.8228Q14.4997 15.8228 14.1774 15.5081Q13.8551 15.1935 13.8551 14.5352ZM19.0723 18.4946L23.8051 18.4946L23.8051 16.1508L19.0723 16.1508ZM18.8661 19.0256L24.0086 19.0256Q24.1719 19.0256 24.2783 18.9226Q24.3848 18.8196 24.3848 18.6563Q24.3848 18.5001 24.2783 18.3971Q24.1719 18.2942 24.0086 18.2942L18.8661 18.2942Q18.7054 18.2942 18.5976 18.3971Q18.4898 18.5001 18.4898 18.6563Q18.4898 18.8196 18.5976 18.9226Q18.7054 19.0256 18.8661 19.0256Z" fill="#000000"/>
 </g>
</svg>
