<?xml version="1.0" encoding="UTF-8"?>
<!--Generator: Apple Native CoreSVG 175.5-->
<!DOCTYPE svg
PUBLIC "-//W3C//DTD SVG 1.1//EN"
       "http://www.w3.org/Graphics/SVG/1.1/DTD/svg11.dtd">
<svg version="1.1" xmlns="http://www.w3.org/2000/svg" xmlns:xlink="http://www.w3.org/1999/xlink" width="23.3789" height="23.291">
 <g>
  <rect height="23.291" opacity="0" width="23.3789" x="0" y="0"/>
  <path d="M8.00781 10.1562L15.3711 10.1562Q16.4648 10.1562 17.0361 9.59473Q17.6074 9.0332 17.6074 7.95898L17.6074 5.23438Q17.6074 4.16992 17.0361 3.60352Q16.4648 3.03711 15.3711 3.03711L8.00781 3.03711Q6.91406 3.03711 6.34277 3.60352Q5.77148 4.16992 5.77148 5.23438L5.77148 7.95898Q5.77148 9.0332 6.34277 9.59473Q6.91406 10.1562 8.00781 10.1562ZM8.02734 8.68164Q7.65625 8.68164 7.45117 8.47656Q7.24609 8.27148 7.24609 7.88086L7.24609 5.32227Q7.24609 4.93164 7.45117 4.72168Q7.65625 4.51172 8.02734 4.51172L15.3516 4.51172Q15.7227 4.51172 15.9277 4.72168Q16.1328 4.93164 16.1328 5.32227L16.1328 7.88086Q16.1328 8.27148 15.9277 8.47656Q15.7227 8.68164 15.3516 8.68164ZM4.55078 23.2812L18.8281 23.2812Q19.9219 23.2812 20.4932 22.7148Q21.0645 22.1484 21.0645 21.084L21.0645 18.3594Q21.0645 17.2852 20.4932 16.7236Q19.9219 16.1621 18.8281 16.1621L4.55078 16.1621Q3.45703 16.1621 2.88574 16.7236Q2.31445 17.2852 2.31445 18.3594L2.31445 21.084Q2.31445 22.1484 2.88574 22.7148Q3.45703 23.2812 4.55078 23.2812ZM4.57031 21.8066Q4.19922 21.8066 3.99414 21.5967Q3.78906 21.3867 3.78906 20.9961L3.78906 18.4375Q3.78906 18.0469 3.99414 17.8418Q4.19922 17.6367 4.57031 17.6367L18.8086 17.6367Q19.1797 17.6367 19.3848 17.8418Q19.5898 18.0469 19.5898 18.4375L19.5898 20.9961Q19.5898 21.3867 19.3848 21.5967Q19.1797 21.8066 18.8086 21.8066Z" fill="#007aff"/>
  <path d="M0.683594 1.43555L22.6953 1.43555Q22.9883 1.43555 23.1836 1.2207Q23.3789 1.00586 23.3789 0.712891Q23.3789 0.429688 23.1836 0.214844Q22.9883 0 22.6953 0L0.683594 0Q0.390625 0 0.195312 0.214844Q0 0.429688 0 0.712891Q0 1.00586 0.195312 1.2207Q0.390625 1.43555 0.683594 1.43555ZM0.683594 14.5508L22.6953 14.5508Q22.9883 14.5508 23.1836 14.3359Q23.3789 14.1211 23.3789 13.8379Q23.3789 13.5547 23.1836 13.335Q22.9883 13.1152 22.6953 13.1152L0.683594 13.1152Q0.390625 13.1152 0.195312 13.335Q0 13.5547 0 13.8379Q0 14.1211 0.195312 14.3359Q0.390625 14.5508 0.683594 14.5508Z" fill="#007aff"/>
 </g>
</svg>
