<?xml version="1.0" encoding="UTF-8"?>
<!--Generator: Apple Native CoreSVG 175.5-->
<!DOCTYPE svg
PUBLIC "-//W3C//DTD SVG 1.1//EN"
       "http://www.w3.org/Graphics/SVG/1.1/DTD/svg11.dtd">
<svg version="1.1" xmlns="http://www.w3.org/2000/svg" xmlns:xlink="http://www.w3.org/1999/xlink" width="16.4258" height="22.8418">
 <g>
  <rect height="22.8418" opacity="0" width="16.4258" x="0" y="0"/>
  <path d="M0 18.8281Q0 20.3613 0.756836 21.123Q1.51367 21.8848 3.02734 21.8848L13.3984 21.8848Q14.9121 21.8848 15.6689 21.123Q16.4258 20.3613 16.4258 18.8281L16.4258 4.01367Q16.4258 2.49023 15.6689 1.71875Q14.9121 0.947266 13.3984 0.947266L3.02734 0.947266Q1.51367 0.947266 0.756836 1.71875Q0 2.49023 0 4.01367ZM1.57227 18.7988L1.57227 4.04297Q1.57227 3.31055 1.95801 2.91504Q2.34375 2.51953 3.10547 2.51953L13.3203 2.51953Q14.082 2.51953 14.4678 2.91504Q14.8535 3.31055 14.8535 4.04297L14.8535 18.7988Q14.8535 19.5312 14.4678 19.9219Q14.082 20.3125 13.3203 20.3125L3.10547 20.3125Q2.34375 20.3125 1.95801 19.9219Q1.57227 19.5312 1.57227 18.7988ZM7.60742 21.1621L8.81836 21.1621L8.81836 7.29492L7.60742 7.29492ZM8.21289 7.66602Q9.32617 7.66602 9.95117 7.06055Q10.5762 6.45508 10.5762 5.39062Q10.5762 5.18555 10.5518 4.98047Q10.5273 4.77539 10.4883 4.57031L9.57031 0.566406Q9.51172 0.3125 9.30664 0.15625Q9.10156 0 8.82812 0L7.59766 0Q7.32422 0 7.11914 0.15625Q6.91406 0.3125 6.85547 0.566406L5.9375 4.57031Q5.89844 4.77539 5.87402 4.98047Q5.84961 5.18555 5.84961 5.39062Q5.84961 6.45508 6.47461 7.06055Q7.09961 7.66602 8.21289 7.66602ZM8.21289 6.36719Q7.75391 6.36719 7.45117 6.05957Q7.14844 5.75195 7.14844 5.29297Q7.14844 4.85352 7.45605 4.54102Q7.76367 4.22852 8.21289 4.22852Q8.66211 4.22852 8.96973 4.54102Q9.27734 4.85352 9.27734 5.29297Q9.27734 5.75195 8.97461 6.05957Q8.67188 6.36719 8.21289 6.36719ZM8.21289 9.93164L10.5176 9.93164Q10.7715 9.93164 10.9473 9.75586Q11.123 9.58008 11.123 9.32617Q11.123 9.07227 10.9473 8.90137Q10.7715 8.73047 10.5176 8.73047L8.21289 8.73047ZM5.9082 11.2598L8.21289 11.2598L8.21289 10.0586L5.9082 10.0586Q5.6543 10.0586 5.47852 10.2295Q5.30273 10.4004 5.30273 10.6445Q5.30273 10.8984 5.47852 11.0791Q5.6543 11.2598 5.9082 11.2598ZM8.21289 12.5781L10.5176 12.5781Q10.7715 12.5781 10.9473 12.4023Q11.123 12.2266 11.123 11.9727Q11.123 11.7188 10.9473 11.5479Q10.7715 11.377 10.5176 11.377L8.21289 11.377ZM5.9082 13.9062L8.21289 13.9062L8.21289 12.7051L5.9082 12.7051Q5.6543 12.7051 5.47852 12.876Q5.30273 13.0469 5.30273 13.291Q5.30273 13.5449 5.47852 13.7256Q5.6543 13.9062 5.9082 13.9062ZM8.21289 15.2246L10.5176 15.2246Q10.7715 15.2246 10.9473 15.0488Q11.123 14.873 11.123 14.6191Q11.123 14.3652 10.9473 14.1943Q10.7715 14.0234 10.5176 14.0234L8.21289 14.0234ZM5.9082 16.5527L8.21289 16.5527L8.21289 15.3516L5.9082 15.3516Q5.6543 15.3516 5.47852 15.5225Q5.30273 15.6934 5.30273 15.9375Q5.30273 16.2012 5.47852 16.377Q5.6543 16.5527 5.9082 16.5527ZM8.21289 17.8711L10.5176 17.8711Q10.7715 17.8711 10.9473 17.6953Q11.123 17.5195 11.123 17.2656Q11.123 17.0117 10.9473 16.8408Q10.7715 16.6699 10.5176 16.6699L8.21289 16.6699ZM5.9082 19.1992L8.21289 19.1992L8.21289 17.998L5.9082 17.998Q5.6543 17.998 5.47852 18.1689Q5.30273 18.3398 5.30273 18.5938Q5.30273 18.8477 5.47852 19.0234Q5.6543 19.1992 5.9082 19.1992Z" fill="#007aff"/>
 </g>
</svg>
