<?xml version="1.0" encoding="UTF-8"?>
<!--Generator: Apple Native CoreSVG 175-->
<!DOCTYPE svg
PUBLIC "-//W3C//DTD SVG 1.1//EN"
       "http://www.w3.org/Graphics/SVG/1.1/DTD/svg11.dtd">
<svg version="1.1" xmlns="http://www.w3.org/2000/svg" xmlns:xlink="http://www.w3.org/1999/xlink" width="15.779" height="20.6747">
 <g>
  <rect height="20.6747" opacity="0" width="15.779" x="0" y="0"/>
  <path d="M2.95074 8.67661Q3.14453 8.67661 3.21533 8.461L3.7793 6.99509L5.92468 6.99509L6.48712 8.461Q6.55777 8.67661 6.75583 8.67661Q6.89728 8.67661 6.97289 8.60107Q7.04849 8.52554 7.04849 8.40363Q7.04849 8.33557 7.01797 8.23608L5.20981 3.60748Q5.11444 3.35358 4.85626 3.35358Q4.58786 3.35358 4.49265 3.60748L2.68448 8.23608Q2.65121 8.33008 2.65121 8.40363Q2.65121 8.52554 2.7282 8.60107Q2.80518 8.67661 2.95074 8.67661ZM3.96179 6.47278L4.83673 4.12659L4.86023 4.12659L5.73792 6.47278ZM8.87421 4.88129L13.0058 4.88129Q13.15 4.88129 13.2436 4.78638Q13.3371 4.69147 13.3371 4.55704Q13.3371 4.42276 13.2436 4.32922Q13.15 4.23569 13.0058 4.23569L8.87421 4.23569Q8.72742 4.23569 8.6338 4.32922Q8.54019 4.42276 8.54019 4.55704Q8.54019 4.69147 8.6338 4.78638Q8.72742 4.88129 8.87421 4.88129ZM8.87421 8.33176L13.0058 8.33176Q13.15 8.33176 13.2436 8.23685Q13.3371 8.14194 13.3371 8.00751Q13.3371 7.87308 13.2436 7.77954Q13.15 7.686 13.0058 7.686L8.87421 7.686Q8.72742 7.686 8.6338 7.77954Q8.54019 7.87308 8.54019 8.00751Q8.54019 8.14194 8.6338 8.23685Q8.72742 8.33176 8.87421 8.33176ZM2.33521 17.2446L2.69531 17.2446L4.3782 15.7066Q4.72351 15.3853 5.05981 15.3853Q5.41718 15.3853 5.75394 15.7066L6.6391 16.5164L8.95737 14.5142Q9.38797 14.1536 9.78165 14.1536Q10.0023 14.1536 10.2238 14.2381Q10.4453 14.3227 10.6242 14.5212L13.0835 17.2243L13.4438 17.2243L13.4438 11.6985Q13.4438 10.4208 12.1562 10.4208L3.62549 10.4208Q2.9863 10.4208 2.66075 10.7374Q2.33521 11.0539 2.33521 11.6985ZM5.83908 14.4789Q5.3363 14.4789 4.97597 14.1207Q4.61563 13.7625 4.61563 13.2556Q4.61563 12.7528 4.97597 12.3898Q5.3363 12.0267 5.83908 12.0322Q6.34613 12.0349 6.70433 12.3939Q7.06253 12.7528 7.06253 13.2556Q7.06253 13.7625 6.70433 14.1207Q6.34613 14.4789 5.83908 14.4789ZM0 18.0399Q0 19.3411 0.665436 20.0079Q1.33087 20.6747 2.62665 20.6747L13.1523 20.6747Q14.4481 20.6747 15.1135 20.0079Q15.779 19.3411 15.779 18.0399L15.779 2.66296Q15.779 1.36459 15.1135 0.695038Q14.4481 0.0254822 13.1523 0.0254822L2.62665 0.0254822Q1.33087 0.0254822 0.665436 0.695038Q0 1.36459 0 2.66296ZM0.728607 18.0176L0.728607 2.68524Q0.728607 1.73492 1.21628 1.24443Q1.70395 0.753937 2.66251 0.753937L13.1165 0.753937Q14.075 0.753937 14.5627 1.24443Q15.0504 1.73492 15.0504 2.68524L15.0504 18.0176Q15.0504 18.968 14.5627 19.4571Q14.075 19.9461 13.1165 19.9461L2.66251 19.9461Q1.70395 19.9461 1.21628 19.4571Q0.728607 18.968 0.728607 18.0176Z" fill="#ffffff"/>
 </g>
</svg>
