<?xml version="1.0" encoding="UTF-8"?>
<!--Generator: Apple Native CoreSVG 175-->
<!DOCTYPE svg
PUBLIC "-//W3C//DTD SVG 1.1//EN"
       "http://www.w3.org/Graphics/SVG/1.1/DTD/svg11.dtd">
<svg version="1.1" xmlns="http://www.w3.org/2000/svg" xmlns:xlink="http://www.w3.org/1999/xlink" width="15.779" height="20.6747">
 <g>
  <rect height="20.6747" opacity="0" width="15.779" x="0" y="0"/>
  <path d="M3.66837 4.36295L12.1933 4.36295Q12.3375 4.36295 12.431 4.26804Q12.5246 4.17313 12.5246 4.0387Q12.5246 3.90442 12.431 3.81081Q12.3375 3.71719 12.1933 3.71719L3.66837 3.71719Q3.52158 3.71719 3.42445 3.81081Q3.32733 3.90442 3.32733 4.0387Q3.32733 4.17313 3.42445 4.26804Q3.52158 4.36295 3.66837 4.36295ZM3.66837 7.02621L9.14536 7.02621Q9.2894 7.02621 9.38301 6.9313Q9.47662 6.8364 9.47662 6.70197Q9.47662 6.56769 9.38301 6.47415Q9.2894 6.38062 9.14536 6.38062L3.66837 6.38062Q3.52158 6.38062 3.42445 6.47415Q3.32733 6.56769 3.32733 6.70197Q3.32733 6.8364 3.42445 6.9313Q3.52158 7.02621 3.66837 7.02621ZM3.83591 18.1638L11.9456 18.1638Q13.2304 18.1638 13.2304 16.886L13.2304 10.3242Q13.2304 9.04388 11.9456 9.04388L3.83591 9.04388Q3.19962 9.04388 2.87407 9.35829Q2.54852 9.6727 2.54852 10.3242L2.54852 16.886Q2.54852 17.5305 2.87407 17.8471Q3.19962 18.1638 3.83591 18.1638ZM0 18.0399Q0 19.3411 0.665436 20.0079Q1.33087 20.6747 2.62665 20.6747L13.1523 20.6747Q14.4481 20.6747 15.1135 20.0079Q15.779 19.3411 15.779 18.0399L15.779 2.66296Q15.779 1.36459 15.1135 0.695038Q14.4481 0.0254822 13.1523 0.0254822L2.62665 0.0254822Q1.33087 0.0254822 0.665436 0.695038Q0 1.36459 0 2.66296ZM0.728607 18.0176L0.728607 2.68524Q0.728607 1.73492 1.21628 1.24443Q1.70395 0.753937 2.66251 0.753937L13.1165 0.753937Q14.075 0.753937 14.5627 1.24443Q15.0504 1.73492 15.0504 2.68524L15.0504 18.0176Q15.0504 18.968 14.5627 19.4571Q14.075 19.9461 13.1165 19.9461L2.66251 19.9461Q1.70395 19.9461 1.21628 19.4571Q0.728607 18.968 0.728607 18.0176Z" fill="#ffffff"/>
 </g>
</svg>
