<?xml version="1.0" encoding="UTF-8"?>
<!--Generator: Apple Native CoreSVG 175-->
<!DOCTYPE svg
PUBLIC "-//W3C//DTD SVG 1.1//EN"
       "http://www.w3.org/Graphics/SVG/1.1/DTD/svg11.dtd">
<svg version="1.1" xmlns="http://www.w3.org/2000/svg" xmlns:xlink="http://www.w3.org/1999/xlink" width="15.779" height="20.6747">
 <g>
  <rect height="20.6747" opacity="0" width="15.779" x="0" y="0"/>
  <path d="M2.86255 8.58841Q2.72385 8.58841 2.64687 8.51631Q2.56989 8.44421 2.56989 8.3223Q2.56989 8.2489 2.60315 8.15475L4.41132 3.52631Q4.50668 3.2724 4.76791 3.2724Q5.03326 3.2724 5.12848 3.52631L6.9368 8.15475Q6.9519 8.19611 6.95953 8.24043Q6.96716 8.28476 6.96716 8.3223Q6.96716 8.44421 6.89163 8.51631Q6.8161 8.58841 6.67465 8.58841Q6.58051 8.58841 6.51192 8.53584Q6.44333 8.48328 6.40579 8.37265L5.84335 6.91376L3.6911 6.91376L3.134 8.37265Q3.06335 8.58841 2.86255 8.58841ZM3.88046 6.38443L5.65659 6.38443L4.7789 4.04541L4.75555 4.04541ZM8.87421 4.80011Q8.72742 4.80011 8.6338 4.7052Q8.54019 4.61029 8.54019 4.47586Q8.54019 4.34143 8.6338 4.24789Q8.72742 4.15436 8.87421 4.15436L13.0872 4.15436Q13.2312 4.15436 13.3248 4.24789Q13.4184 4.34143 13.4184 4.47586Q13.4184 4.61029 13.3248 4.7052Q13.2312 4.80011 13.0872 4.80011ZM8.87421 8.25043Q8.72742 8.25043 8.6338 8.15552Q8.54019 8.06061 8.54019 7.92618Q8.54019 7.7919 8.6338 7.69829Q8.72742 7.60468 8.87421 7.60468L13.0872 7.60468Q13.2312 7.60468 13.3248 7.69829Q13.4184 7.7919 13.4184 7.92618Q13.4184 8.06061 13.3248 8.15552Q13.2312 8.25043 13.0872 8.25043ZM2.25388 17.2446L2.25388 11.6985Q2.25388 11.0539 2.5795 10.7374Q2.90512 10.4208 3.54416 10.4208L12.2375 10.4208Q13.5249 10.4208 13.5249 11.6985L13.5249 17.2243L13.0835 17.2243L10.6242 14.5212Q10.4453 14.3227 10.2238 14.2381Q10.0023 14.1536 9.78165 14.1536Q9.59457 14.1536 9.38362 14.243Q9.17267 14.3324 8.95737 14.5142L6.6391 16.5164L5.75394 15.7066Q5.41718 15.3853 5.05981 15.3853Q4.72351 15.3853 4.3782 15.7066L2.69531 17.2446ZM5.83908 14.4789Q6.34613 14.4789 6.70433 14.1207Q7.06253 13.7625 7.06253 13.2556Q7.06253 12.7528 6.70433 12.3939Q6.34613 12.0349 5.83908 12.0322Q5.3363 12.0267 4.97597 12.3898Q4.61563 12.7528 4.61563 13.2556Q4.61563 13.7625 4.97597 14.1207Q5.3363 14.4789 5.83908 14.4789ZM0 18.0399Q0 19.3411 0.665436 20.0079Q1.33087 20.6747 2.62665 20.6747L13.1523 20.6747Q14.4481 20.6747 15.1135 20.0079Q15.779 19.3411 15.779 18.0399L15.779 2.66296Q15.779 1.36459 15.1135 0.695038Q14.4481 0.0254822 13.1523 0.0254822L2.62665 0.0254822Q1.33087 0.0254822 0.665436 0.695038Q0 1.36459 0 2.66296Z" fill="#ffffff"/>
 </g>
</svg>
