<?xml version="1.0" encoding="UTF-8"?>
<!--Generator: Apple Native CoreSVG 175-->
<!DOCTYPE svg
PUBLIC "-//W3C//DTD SVG 1.1//EN"
       "http://www.w3.org/Graphics/SVG/1.1/DTD/svg11.dtd">
<svg version="1.1" xmlns="http://www.w3.org/2000/svg" xmlns:xlink="http://www.w3.org/1999/xlink" width="19.4714" height="23.9667">
 <g>
  <rect height="23.9667" opacity="0" width="19.4714" x="0" y="0"/>
  <path d="M4.72931 3.67844L6.2648 3.67844Q6.9809 3.67844 7.49924 3.86948Q8.01758 4.06052 8.59192 4.6347L14.6309 10.6499Q15.2051 11.2312 15.4092 11.7432Q15.6133 12.2551 15.6133 12.977L15.6133 19.4019L16.8449 19.4019Q17.4844 19.4019 17.977 19.2312Q18.4695 19.0605 18.8012 18.7289Q19.1328 18.3972 19.3021 17.9054Q19.4714 17.4136 19.4714 16.7644L19.4714 2.63748Q19.4714 1.33896 18.8025 0.669479Q18.1335 0 16.8449 0L7.3558 0Q6.07422 0 5.40176 0.668106Q4.72931 1.33621 4.72931 2.63748ZM9.47922 2.42188L9.47922 2.26593Q9.47922 2.09763 9.599 1.96404Q9.71878 1.83044 9.96368 1.83044L14.23 1.83044Q14.4724 1.83044 14.5969 1.96404Q14.7215 2.09763 14.7215 2.26593L14.7215 2.42188Q14.7215 2.59018 14.5969 2.72728Q14.4724 2.86438 14.23 2.86438L9.96368 2.86438Q9.71878 2.86438 9.599 2.72728Q9.47922 2.59018 9.47922 2.42188ZM0 21.3139Q0 22.6152 0.665436 23.2834Q1.33087 23.9516 2.62665 23.9516L12.1156 23.9516Q13.4114 23.9516 14.0768 23.282Q14.7423 22.6125 14.7423 21.3139L14.7423 12.8258L8.12973 12.8258Q7.38632 12.8258 7.01797 12.4525Q6.64963 12.0793 6.64963 11.3316L6.64963 4.54956L2.62665 4.54956Q1.34491 4.54956 0.672455 5.21912Q0 5.88867 0 7.18704ZM8.21838 11.9519L14.5102 11.9519Q14.4742 11.7882 14.3512 11.6315Q14.2282 11.4749 14.0578 11.3116L8.16101 5.38742Q8.00049 5.22415 7.8389 5.09369Q7.67731 4.96323 7.52075 4.92722L7.52075 11.257Q7.52075 11.9519 8.21838 11.9519Z" fill="#000000"/>
 </g>
</svg>
