<?xml version="1.0" encoding="UTF-8"?>
<!--Generator: Apple Native CoreSVG 175.5-->
<!DOCTYPE svg
PUBLIC "-//W3C//DTD SVG 1.1//EN"
       "http://www.w3.org/Graphics/SVG/1.1/DTD/svg11.dtd">
<svg version="1.1" xmlns="http://www.w3.org/2000/svg" xmlns:xlink="http://www.w3.org/1999/xlink" width="16.4258" height="20.9473">
 <g>
  <rect height="20.9473" opacity="0" width="16.4258" x="0" y="0"/>
  <path d="M3.76953 7.30469Q3.76953 7.08984 3.9209 6.93359Q4.07227 6.77734 4.29688 6.77734L5.6543 6.77734L6.47461 3.38867Q6.54297 3.11523 6.7627 3.02734Q6.98242 2.93945 7.19238 3.03223Q7.40234 3.125 7.4707 3.39844L8.37891 7.92969L9.32617 4.77539Q9.41406 4.51172 9.62891 4.42383Q9.84375 4.33594 10.0586 4.41895Q10.2734 4.50195 10.3418 4.75586L10.8691 6.77734L12.1289 6.77734Q12.3535 6.77734 12.5049 6.92871Q12.6562 7.08008 12.6562 7.30469Q12.6562 7.50977 12.5 7.66602Q12.3438 7.82227 12.1289 7.82227L10.5469 7.82227Q10.0781 7.82227 9.98047 7.37305L9.80469 6.66992L8.83789 10.0684Q8.75 10.3418 8.52539 10.4297Q8.30078 10.5176 8.08594 10.4248Q7.87109 10.332 7.8125 10.0488L6.94336 5.83008L6.5625 7.40234Q6.45508 7.82227 5.99609 7.82227L4.29688 7.82227Q4.07227 7.82227 3.9209 7.66602Q3.76953 7.50977 3.76953 7.30469ZM3.76953 12.5488Q3.76953 12.2852 3.94531 12.1094Q4.12109 11.9336 4.39453 11.9336L12.041 11.9336Q12.3047 11.9336 12.4805 12.1094Q12.6562 12.2852 12.6562 12.5488Q12.6562 12.8125 12.4805 12.9932Q12.3047 13.1738 12.041 13.1738L4.39453 13.1738Q4.12109 13.1738 3.94531 12.9932Q3.76953 12.8125 3.76953 12.5488ZM3.76953 16.0742Q3.76953 15.8105 3.94531 15.6299Q4.12109 15.4492 4.39453 15.4492L8.00781 15.4492Q8.28125 15.4492 8.45703 15.6299Q8.63281 15.8105 8.63281 16.0742Q8.63281 16.3379 8.45703 16.5137Q8.28125 16.6895 8.00781 16.6895L4.39453 16.6895Q4.12109 16.6895 3.94531 16.5137Q3.76953 16.3379 3.76953 16.0742ZM0 17.8809Q0 19.4141 0.756836 20.1758Q1.51367 20.9375 3.02734 20.9375L13.3984 20.9375Q14.9121 20.9375 15.6689 20.1758Q16.4258 19.4141 16.4258 17.8809L16.4258 3.06641Q16.4258 1.54297 15.6689 0.771484Q14.9121 0 13.3984 0L3.02734 0Q1.51367 0 0.756836 0.771484Q0 1.54297 0 3.06641Z" fill="#007aff"/>
 </g>
</svg>
