<?xml version="1.0" encoding="UTF-8"?>
<!--Generator: Apple Native CoreSVG 175-->
<!DOCTYPE svg
PUBLIC "-//W3C//DTD SVG 1.1//EN"
       "http://www.w3.org/Graphics/SVG/1.1/DTD/svg11.dtd">
<svg version="1.1" xmlns="http://www.w3.org/2000/svg" xmlns:xlink="http://www.w3.org/1999/xlink" width="15.779" height="20.6747">
 <g>
  <rect height="20.6747" opacity="0" width="15.779" x="0" y="0"/>
  <path d="M3.86017 4.66415Q3.71323 4.66415 3.61832 4.5665Q3.52341 4.46884 3.52341 4.33167Q3.52341 4.19739 3.61832 4.10248Q3.71323 4.00757 3.86017 4.00757L11.9215 4.00757Q12.0656 4.00757 12.1641 4.10248Q12.2626 4.19739 12.2626 4.33167Q12.2626 4.46884 12.1641 4.5665Q12.0656 4.66415 11.9215 4.66415ZM3.86017 8.13766Q3.71323 8.13766 3.61832 8.04352Q3.52341 7.94937 3.52341 7.81219Q3.52341 7.67776 3.61832 7.58286Q3.71323 7.48795 3.86017 7.48795L11.9215 7.48795Q12.0656 7.48795 12.1641 7.58286Q12.2626 7.67776 12.2626 7.81219Q12.2626 7.94937 12.1641 8.04352Q12.0656 8.13766 11.9215 8.13766ZM3.86017 11.618Q3.71323 11.618 3.61832 11.5218Q3.52341 11.4255 3.52341 11.291Q3.52341 11.154 3.61832 11.0577Q3.71323 10.9615 3.86017 10.9615L7.82501 10.9615Q7.97195 10.9615 8.06686 11.0577Q8.16177 11.154 8.16177 11.291Q8.16177 11.4255 8.06686 11.5218Q7.97195 11.618 7.82501 11.618ZM0 18.0399Q0 19.3411 0.665436 20.0079Q1.33087 20.6747 2.62665 20.6747L13.1523 20.6747Q14.4481 20.6747 15.1135 20.0079Q15.779 19.3411 15.779 18.0399L15.779 2.66296Q15.779 1.36459 15.1135 0.695038Q14.4481 0.0254822 13.1523 0.0254822L2.62665 0.0254822Q1.33087 0.0254822 0.665436 0.695038Q0 1.36459 0 2.66296Z" fill="#000000"/>
 </g>
</svg>
