<?xml version="1.0" encoding="UTF-8"?>
<!--Generator: Apple Native CoreSVG 175.5-->
<!DOCTYPE svg
PUBLIC "-//W3C//DTD SVG 1.1//EN"
       "http://www.w3.org/Graphics/SVG/1.1/DTD/svg11.dtd">
<svg version="1.1" xmlns="http://www.w3.org/2000/svg" xmlns:xlink="http://www.w3.org/1999/xlink" width="23.0273" height="17.9785">
 <g>
  <rect height="17.9785" opacity="0" width="23.0273" x="0" y="0"/>
  <path d="M3.06641 17.9785L19.9609 17.9785Q21.5039 17.9785 22.2656 17.2217Q23.0273 16.4648 23.0273 14.9609L23.0273 3.02734Q23.0273 1.52344 22.2656 0.761719Q21.5039 0 19.9609 0L3.06641 0Q1.5332 0 0.766602 0.756836Q0 1.51367 0 3.02734L0 14.9609Q0 16.4648 0.766602 17.2217Q1.5332 17.9785 3.06641 17.9785ZM3.08594 16.4062Q2.35352 16.4062 1.96289 16.0205Q1.57227 15.6348 1.57227 14.873L1.57227 3.11523Q1.57227 2.35352 1.96289 1.96289Q2.35352 1.57227 3.08594 1.57227L19.9414 1.57227Q20.6641 1.57227 21.0596 1.96289Q21.4551 2.35352 21.4551 3.11523L21.4551 14.873Q21.4551 15.6348 21.0596 16.0205Q20.6641 16.4062 19.9414 16.4062Z" fill="#007aff"/>
  <path d="M4.19922 14.0039Q4.19922 14.3848 4.43848 14.6191Q4.67773 14.8535 5.06836 14.8535L17.9883 14.8535Q18.3789 14.8535 18.6182 14.6191Q18.8574 14.3848 18.8574 14.0039L18.8574 12.5391Q18.8574 12.1582 18.6182 11.9238Q18.3789 11.6895 17.9883 11.6895L5.06836 11.6895Q4.67773 11.6895 4.43848 11.9238Q4.19922 12.1582 4.19922 12.5391ZM11.5234 3.18359Q11.2109 3.18359 10.9814 3.4082Q10.752 3.63281 10.752 3.94531L10.752 6.77734L10.8105 8.4082L9.9707 7.53906L8.70117 6.25977Q8.4668 6.03516 8.16406 6.03516Q7.85156 6.03516 7.65137 6.22559Q7.45117 6.41602 7.45117 6.71875Q7.45117 6.88477 7.51953 7.02148Q7.58789 7.1582 7.70508 7.26562L10.957 10.293Q11.25 10.5566 11.5234 10.5566Q11.7969 10.5566 12.0898 10.293L15.3418 7.26562Q15.4688 7.1582 15.5322 7.02148Q15.5957 6.88477 15.5957 6.71875Q15.5957 6.41602 15.3906 6.22559Q15.1855 6.03516 14.873 6.03516Q14.5801 6.03516 14.3457 6.25977L13.0762 7.53906L12.2363 8.4082L12.3047 6.77734L12.3047 3.94531Q12.3047 3.63281 12.0703 3.4082Q11.8359 3.18359 11.5234 3.18359Z" fill="#007aff"/>
 </g>
</svg>
