<?xml version="1.0" encoding="UTF-8"?>
<!--Generator: Apple Native CoreSVG 175-->
<!DOCTYPE svg
PUBLIC "-//W3C//DTD SVG 1.1//EN"
       "http://www.w3.org/Graphics/SVG/1.1/DTD/svg11.dtd">
<svg version="1.1" xmlns="http://www.w3.org/2000/svg" xmlns:xlink="http://www.w3.org/1999/xlink" width="17.2852" height="17.3145">
 <g>
  <rect height="17.3145" opacity="0" width="17.2852" x="0" y="0"/>
  <path d="M2.62695 17.3145L14.6484 17.3145Q15.957 17.3145 16.6211 16.6455Q17.2852 15.9766 17.2852 14.6875L17.2852 2.65625Q17.2852 1.37695 16.6211 0.703125Q15.957 0.0292969 14.6484 0.0292969L2.62695 0.0292969Q1.33789 0.0292969 0.668945 0.693359Q0 1.35742 0 2.65625L0 14.6875Q0 15.9863 0.668945 16.6504Q1.33789 17.3145 2.62695 17.3145ZM2.65625 16.5918Q1.70898 16.5918 1.2207 16.1035Q0.732422 15.6152 0.732422 14.6582L0.732422 2.69531Q0.732422 1.72852 1.2207 1.24512Q1.70898 0.761719 2.65625 0.761719L14.6289 0.761719Q15.5566 0.761719 16.0596 1.24512Q16.5625 1.72852 16.5625 2.69531L16.5625 14.6582Q16.5625 15.6152 16.0596 16.1035Q15.5566 16.5918 14.6289 16.5918ZM5.63477 8.98438Q5.63477 9.80469 5.96191 10.415Q6.28906 11.0254 6.8457 11.3623Q7.40234 11.6992 8.07617 11.6992Q9.375 11.6992 10.0293 10.6348L10.0293 11.3867Q10.0293 11.5332 10.1123 11.626Q10.1953 11.7188 10.3516 11.7188Q10.4883 11.7188 10.5713 11.626Q10.6543 11.5332 10.6543 11.3867L10.6543 5.45898L11.377 5.45898Q11.5039 5.45898 11.582 5.37598Q11.6602 5.29297 11.6602 5.15625Q11.6602 5.03906 11.5869 4.95605Q11.5137 4.87305 11.377 4.87305L10.6543 4.87305L10.6543 4.24805Q10.6543 4.0918 10.5664 4.00391Q10.4785 3.91602 10.332 3.91602Q10.1758 3.91602 10.0928 4.00391Q10.0098 4.0918 10.0098 4.24805L10.0098 4.87305L8.21289 4.87305Q8.06641 4.87305 7.98828 4.95605Q7.91016 5.03906 7.91016 5.15625Q7.91016 5.29297 7.98828 5.37598Q8.06641 5.45898 8.21289 5.45898L10.0098 5.45898L10.0098 7.32422Q9.69727 6.81641 9.18945 6.53809Q8.68164 6.25977 8.07617 6.25977Q7.06055 6.25977 6.34766 7.00195Q5.63477 7.74414 5.63477 8.98438ZM6.2793 8.98438Q6.2793 8.03711 6.81641 7.46582Q7.35352 6.89453 8.125 6.89453Q8.91602 6.89453 9.43848 7.49512Q9.96094 8.0957 9.96094 8.98438Q9.96094 9.86328 9.43848 10.4639Q8.91602 11.0645 8.125 11.0645Q7.35352 11.0645 6.81641 10.4932Q6.2793 9.92188 6.2793 8.98438ZM5.95703 12.5977Q5.95703 12.7344 6.04492 12.8174Q6.13281 12.9004 6.25 12.9004L10.6543 12.9004Q10.7812 12.9004 10.8643 12.8174Q10.9473 12.7344 10.9473 12.5977Q10.9473 12.4707 10.8691 12.3877Q10.791 12.3047 10.6543 12.3047L6.25 12.3047Q6.12305 12.3047 6.04004 12.3877Q5.95703 12.4707 5.95703 12.5977Z" fill="#000000"/>
 </g>
</svg>
