<?xml version="1.0" encoding="UTF-8"?>
<!--Generator: Apple Native CoreSVG 175.5-->
<!DOCTYPE svg
PUBLIC "-//W3C//DTD SVG 1.1//EN"
       "http://www.w3.org/Graphics/SVG/1.1/DTD/svg11.dtd">
<svg version="1.1" xmlns="http://www.w3.org/2000/svg" xmlns:xlink="http://www.w3.org/1999/xlink" width="14.8828" height="20.7324">
 <g>
  <rect height="20.7324" opacity="0" width="14.8828" x="0" y="0"/>
  <path d="M14.8828 19.9414L14.8828 1.99219Q14.8828 1.09375 14.3213 0.546875Q13.7598 0 12.8418 0L2.04102 0Q1.12305 0 0.561523 0.546875Q0 1.09375 0 1.99219L0 19.9414Q0 20.2637 0.229492 20.4932Q0.458984 20.7227 0.78125 20.7227Q1.11328 20.7227 1.34277 20.4932Q1.57227 20.2637 1.57227 19.9414L1.57227 2.08984Q1.57227 1.57227 2.07031 1.57227L12.8125 1.57227Q13.3105 1.57227 13.3105 2.08984L13.3105 19.9414Q13.3105 20.2637 13.54 20.4932Q13.7695 20.7227 14.1016 20.7227Q14.4238 20.7227 14.6533 20.4932Q14.8828 20.2637 14.8828 19.9414Z" fill="#007aff"/>
  <path d="M12.168 20.166L12.168 2.91992Q12.168 2.77344 12.0703 2.70996Q11.9727 2.64648 11.8262 2.70508L8.75 4.07227Q8.57422 4.15039 8.49609 4.2334Q8.41797 4.31641 8.41797 4.50195L8.41797 18.5742Q8.41797 18.7598 8.49609 18.8477Q8.57422 18.9355 8.75977 19.0137L11.8262 20.3711Q11.9727 20.4297 12.0703 20.3662Q12.168 20.3027 12.168 20.166Z" fill="#007aff"/>
 </g>
</svg>
