<?xml version="1.0" encoding="UTF-8"?>
<!--Generator: Apple Native CoreSVG 175.5-->
<!DOCTYPE svg
PUBLIC "-//W3C//DTD SVG 1.1//EN"
       "http://www.w3.org/Graphics/SVG/1.1/DTD/svg11.dtd">
<svg version="1.1" xmlns="http://www.w3.org/2000/svg" xmlns:xlink="http://www.w3.org/1999/xlink" width="23.877" height="20.7324">
 <g>
  <rect height="20.7324" opacity="0" width="23.877" x="0" y="0"/>
  <path d="M0.78125 20.7227Q1.11328 20.7227 1.34277 20.4932Q1.57227 20.2637 1.57227 19.9414L1.57227 2.08984Q1.57227 1.57227 2.07031 1.57227L21.8066 1.57227Q22.3047 1.57227 22.3047 2.08984L22.3047 19.9414Q22.3047 20.2637 22.5342 20.4932Q22.7637 20.7227 23.0859 20.7227Q23.418 20.7227 23.6475 20.4932Q23.877 20.2637 23.877 19.9414L23.877 1.99219Q23.877 1.09375 23.3154 0.546875Q22.7539 0 21.8262 0L2.04102 0Q1.12305 0 0.561523 0.546875Q0 1.09375 0 1.99219L0 19.9414Q0 20.2637 0.229492 20.4932Q0.458984 20.7227 0.78125 20.7227Z" fill="#007aff"/>
  <path d="M3.04688 6.85547L20.8301 6.85547Q21.1621 6.85547 21.1621 6.5332L21.1621 3.03711Q21.1621 2.70508 20.8301 2.70508L3.04688 2.70508Q2.71484 2.70508 2.71484 3.03711L2.71484 6.5332Q2.71484 6.85547 3.04688 6.85547ZM10.0293 5.25391Q9.81445 5.25391 9.6875 5.12207Q9.56055 4.99023 9.56055 4.78516Q9.56055 4.57031 9.6875 4.43848Q9.81445 4.30664 10.0293 4.30664L13.8477 4.30664Q14.0527 4.30664 14.1846 4.43848Q14.3164 4.57031 14.3164 4.78516Q14.3164 4.99023 14.1846 5.12207Q14.0527 5.25391 13.8477 5.25391Z" fill="#007aff"/>
 </g>
</svg>
