<?xml version="1.0" encoding="UTF-8"?>
<!--Generator: Apple Native CoreSVG 175-->
<!DOCTYPE svg
PUBLIC "-//W3C//DTD SVG 1.1//EN"
       "http://www.w3.org/Graphics/SVG/1.1/DTD/svg11.dtd">
<svg version="1.1" xmlns="http://www.w3.org/2000/svg" xmlns:xlink="http://www.w3.org/1999/xlink" width="17.2852" height="17.3145">
 <g>
  <rect height="17.3145" opacity="0" width="17.2852" x="0" y="0"/>
  <path d="M0 16.8066Q0 17.041 0.136719 17.1777Q0.273438 17.3145 0.507812 17.3145L16.7773 17.3145Q17.0215 17.3145 17.1533 17.1777Q17.2852 17.041 17.2852 16.8066L17.2852 0.537109Q17.2852 0.302734 17.1533 0.166016Q17.0215 0.0292969 16.7773 0.0292969L0.507812 0.0292969Q0.273438 0.0292969 0.136719 0.166016Q0 0.302734 0 0.537109ZM8.67188 11.7578Q7.8125 11.7578 7.10938 11.3428Q6.40625 10.9277 5.98145 10.2197Q5.55664 9.51172 5.55664 8.65234Q5.55664 7.79297 5.98145 7.09473Q6.40625 6.39648 7.10938 5.97656Q7.8125 5.55664 8.67188 5.55664Q9.52148 5.55664 10.2295 5.97656Q10.9375 6.39648 11.3525 7.09473Q11.7676 7.79297 11.7676 8.65234Q11.7676 9.51172 11.3525 10.2197Q10.9375 10.9277 10.2295 11.3428Q9.52148 11.7578 8.67188 11.7578Z" fill="#000000"/>
 </g>
</svg>
