<?xml version="1.0" encoding="UTF-8"?>
<!--Generator: Apple Native CoreSVG 175.5-->
<!DOCTYPE svg
PUBLIC "-//W3C//DTD SVG 1.1//EN"
       "http://www.w3.org/Graphics/SVG/1.1/DTD/svg11.dtd">
<svg version="1.1" xmlns="http://www.w3.org/2000/svg" xmlns:xlink="http://www.w3.org/1999/xlink" width="17.9785" height="17.998">
 <g>
  <rect height="17.998" opacity="0" width="17.9785" x="0" y="0"/>
  <path d="M0 17.2168Q0 17.5684 0.214844 17.7832Q0.429688 17.998 0.78125 17.998L17.207 17.998Q17.5586 17.998 17.7686 17.7832Q17.9785 17.5684 17.9785 17.2168L17.9785 0.791016Q17.9785 0.439453 17.7686 0.229492Q17.5586 0.0195312 17.207 0.0195312L0.78125 0.0195312Q0.429688 0.0195312 0.214844 0.229492Q0 0.439453 0 0.791016Z" fill="#007aff"/>
  <path d="M9.02344 12.1484Q8.1543 12.1484 7.44141 11.7188Q6.72852 11.2891 6.29883 10.5762Q5.86914 9.86328 5.86914 8.99414Q5.86914 8.13477 6.29883 7.42676Q6.72852 6.71875 7.44141 6.29395Q8.1543 5.86914 9.02344 5.86914Q9.88281 5.86914 10.5957 6.29395Q11.3086 6.71875 11.7334 7.42676Q12.1582 8.13477 12.1582 8.99414Q12.1582 9.86328 11.7334 10.5762Q11.3086 11.2891 10.5957 11.7188Q9.88281 12.1484 9.02344 12.1484Z" fill="#ffffff"/>
 </g>
</svg>
