<?xml version="1.0" encoding="UTF-8"?>
<!--Generator: Apple Native CoreSVG 175.5-->
<!DOCTYPE svg
PUBLIC "-//W3C//DTD SVG 1.1//EN"
       "http://www.w3.org/Graphics/SVG/1.1/DTD/svg11.dtd">
<svg version="1.1" xmlns="http://www.w3.org/2000/svg" xmlns:xlink="http://www.w3.org/1999/xlink" width="15.9082" height="19.151">
 <g>
  <rect height="19.151" opacity="0" width="15.9082" x="0" y="0"/>
  <path d="M0 9.59016Q0 10.0687 0.244141 10.4642Q0.488281 10.8597 0.898438 11.0989Q1.30859 11.3382 1.78711 11.3382Q2.27539 11.3382 2.67578 11.0989Q3.07617 10.8597 3.31543 10.4544Q3.55469 10.0491 3.55469 9.57063Q3.55469 8.83821 3.04199 8.31574Q2.5293 7.79328 1.78711 7.79328Q1.29883 7.79328 0.893555 8.03742Q0.488281 8.28157 0.244141 8.69172Q0 9.10188 0 9.59016Z" fill="#007aff"/>
  <path d="M5.48828 13.5062Q5.73242 13.7796 6.1084 13.7747Q6.48438 13.7698 6.73828 13.4378Q7.38281 12.6468 7.73438 11.6654Q8.08594 10.6839 8.08594 9.60969Q8.08594 8.53547 7.73438 7.54914Q7.38281 6.56282 6.73828 5.78157Q6.48438 5.43977 6.1084 5.43489Q5.73242 5.43 5.48828 5.71321Q5.25391 5.97688 5.32227 6.28938Q5.39062 6.60188 5.61523 6.92414Q6.04492 7.47102 6.26953 8.15949Q6.49414 8.84797 6.49414 9.60969Q6.49414 10.3714 6.27441 11.0599Q6.05469 11.7484 5.61523 12.2952Q5.38086 12.6077 5.31738 12.9251Q5.25391 13.2425 5.48828 13.5062Z" fill="#007aff"/>
  <path d="M8.22266 16.2894Q8.45703 16.5628 8.81836 16.5579Q9.17969 16.553 9.46289 16.2405Q10.6738 14.9222 11.333 13.2132Q11.9922 11.5042 11.9922 9.60969Q11.9922 8.34016 11.6992 7.15364Q11.4062 5.96711 10.8398 4.90754Q10.2734 3.84797 9.46289 2.97883Q9.17969 2.66633 8.81836 2.66145Q8.45703 2.65657 8.22266 2.93Q7.98828 3.19367 8.04199 3.51594Q8.0957 3.83821 8.35938 4.14094Q9.35547 5.22492 9.87793 6.62629Q10.4004 8.02766 10.4004 9.60969Q10.4004 11.182 9.87305 12.5833Q9.3457 13.9847 8.35938 15.0784Q8.0957 15.3812 8.04199 15.6986Q7.98828 16.0159 8.22266 16.2894Z" fill="#007aff"/>
  <path d="M11.0449 18.887Q11.2695 19.1409 11.6211 19.1507Q11.9727 19.1605 12.2461 18.8675Q13.9941 17.0413 14.9512 14.6585Q15.9082 12.2757 15.9082 9.60969Q15.9082 6.93391 14.9561 4.54621Q14.0039 2.15852 12.2461 0.342112Q11.9727 0.0491431 11.6211 0.0637916Q11.2695 0.07844 11.0449 0.322581Q10.8203 0.576487 10.8594 0.908518Q10.8984 1.24055 11.1621 1.51399Q12.6953 3.09602 13.5059 5.1761Q14.3164 7.25617 14.3164 9.60969Q14.3164 11.9632 13.4961 14.0335Q12.6758 16.1038 11.1621 17.6956Q10.8984 17.9788 10.8594 18.306Q10.8203 18.6331 11.0449 18.887Z" fill="#007aff"/>
 </g>
</svg>
