<?xml version="1.0" encoding="UTF-8"?>
<!--Generator: Apple Native CoreSVG 175-->
<!DOCTYPE svg
PUBLIC "-//W3C//DTD SVG 1.1//EN"
       "http://www.w3.org/Graphics/SVG/1.1/DTD/svg11.dtd">
<svg version="1.1" xmlns="http://www.w3.org/2000/svg" xmlns:xlink="http://www.w3.org/1999/xlink" width="18.1152" height="18.1543">
 <g>
  <rect height="18.1543" opacity="0" width="18.1152" x="0" y="0"/>
  <path d="M0.361328 5.69336Q0.732422 5.69336 0.732422 5.32227L0.732422 2.69531Q0.732422 1.73828 1.2207 1.25Q1.70898 0.761719 2.65625 0.761719L5.2832 0.761719Q5.66406 0.761719 5.66406 0.400391Q5.66406 0.0390625 5.2832 0.0390625L2.62695 0.0390625Q1.33789 0.0390625 0.668945 0.703125Q0 1.36719 0 2.66602L0 5.32227Q0 5.69336 0.361328 5.69336ZM17.7539 5.69336Q18.1152 5.69336 18.1152 5.32227L18.1152 2.66602Q18.1152 1.38672 17.4463 0.712891Q16.7773 0.0390625 15.4883 0.0390625L12.8223 0.0390625Q12.4512 0.0390625 12.4512 0.400391Q12.4512 0.761719 12.8223 0.761719L15.459 0.761719Q16.377 0.761719 16.8848 1.25Q17.3926 1.73828 17.3926 2.69531L17.3926 5.32227Q17.3926 5.69336 17.7539 5.69336ZM2.62695 18.1543L5.2832 18.1543Q5.66406 18.1543 5.66406 17.793Q5.66406 17.4316 5.2832 17.4316L2.65625 17.4316Q1.70898 17.4316 1.2207 16.9385Q0.732422 16.4453 0.732422 15.4883L0.732422 12.8711Q0.732422 12.4902 0.361328 12.4902Q0 12.4902 0 12.8711L0 15.5273Q0 16.8164 0.668945 17.4854Q1.33789 18.1543 2.62695 18.1543ZM12.8223 18.1543L15.4883 18.1543Q16.7773 18.1543 17.4463 17.4805Q18.1152 16.8066 18.1152 15.5273L18.1152 12.8711Q18.1152 12.4902 17.7539 12.4902Q17.3926 12.4902 17.3926 12.8711L17.3926 15.4883Q17.3926 16.4453 16.8848 16.9385Q16.377 17.4316 15.459 17.4316L12.8223 17.4316Q12.4512 17.4316 12.4512 17.793Q12.4512 18.1543 12.8223 18.1543ZM9.0918 14.2383Q10.1367 14.2383 11.0547 13.8379Q11.9727 13.4375 12.6758 12.7246Q13.3789 12.0117 13.7793 11.084Q14.1797 10.1562 14.1797 9.10156Q14.1797 8.05664 13.7793 7.13379Q13.3789 6.21094 12.6758 5.5127Q11.9727 4.81445 11.0547 4.41406Q10.1367 4.01367 9.0918 4.01367Q8.03711 4.01367 7.10938 4.41406Q6.18164 4.81445 5.46875 5.5127Q4.75586 6.21094 4.35547 7.13379Q3.95508 8.05664 3.95508 9.10156Q3.95508 10.166 4.35547 11.0938Q4.75586 12.0215 5.46387 12.7295Q6.17188 13.4375 7.09961 13.8379Q8.02734 14.2383 9.0918 14.2383ZM9.0918 13.5742Q7.86133 13.5742 6.8457 12.9688Q5.83008 12.3633 5.22461 11.3477Q4.61914 10.332 4.61914 9.10156Q4.61914 7.89062 5.22461 6.88477Q5.83008 5.87891 6.8457 5.27832Q7.86133 4.67773 9.0918 4.67773Q10.3027 4.67773 11.3086 5.27832Q12.3145 5.87891 12.9199 6.88477Q13.5254 7.89062 13.5254 9.10156Q13.5254 10.332 12.9199 11.3477Q12.3145 12.3633 11.3037 12.9688Q10.293 13.5742 9.0918 13.5742ZM9.08203 12.2559Q9.93164 12.2559 10.6396 11.8311Q11.3477 11.4062 11.7725 10.6934Q12.1973 9.98047 12.1973 9.11133Q12.1973 8.26172 11.7725 7.54883Q11.3477 6.83594 10.6396 6.41602Q9.93164 5.99609 9.08203 5.99609Q8.21289 5.99609 7.5 6.41602Q6.78711 6.83594 6.35742 7.54883Q5.92773 8.26172 5.92773 9.11133Q5.92773 9.98047 6.35742 10.6934Q6.78711 11.4062 7.5 11.8311Q8.21289 12.2559 9.08203 12.2559Z" fill="#ffffff"/>
 </g>
</svg>
