<?xml version="1.0" encoding="UTF-8"?>
<!--Generator: Apple Native CoreSVG 175.5-->
<!DOCTYPE svg
PUBLIC "-//W3C//DTD SVG 1.1//EN"
       "http://www.w3.org/Graphics/SVG/1.1/DTD/svg11.dtd">
<svg version="1.1" xmlns="http://www.w3.org/2000/svg" xmlns:xlink="http://www.w3.org/1999/xlink" width="13.5352" height="19.7949">
 <g>
  <rect height="19.7949" opacity="0" width="13.5352" x="0" y="0"/>
  <path d="M6.76758 19.7754Q8.79883 19.7754 10.3223 18.9502Q11.8457 18.125 12.6904 16.6357Q13.5352 15.1465 13.5352 13.1641Q13.5352 12.1875 13.3203 11.2402Q13.1055 10.293 12.793 9.45312Q12.4805 8.61328 12.1973 7.96875Q11.416 6.20117 10.2881 4.33594Q9.16016 2.4707 8.08594 0.820312Q7.83203 0.429688 7.51465 0.214844Q7.19727 0 6.76758 0Q6.33789 0 6.02539 0.214844Q5.71289 0.429688 5.44922 0.820312Q4.38477 2.4707 3.25195 4.33594Q2.11914 6.20117 1.33789 7.96875Q1.05469 8.61328 0.742188 9.45312Q0.429688 10.293 0.214844 11.2402Q0 12.1875 0 13.1641Q0 15.1465 0.844727 16.6357Q1.68945 18.125 3.21289 18.9502Q4.73633 19.7754 6.76758 19.7754ZM6.76758 18.1738Q5.21484 18.1738 4.05273 17.5488Q2.89062 16.9238 2.24609 15.7959Q1.60156 14.668 1.60156 13.1641Q1.60156 11.9629 1.97754 10.8252Q2.35352 9.6875 2.76367 8.74023Q3.58398 6.81641 4.61426 5.18066Q5.64453 3.54492 6.66992 2.00195Q6.71875 1.92383 6.77734 1.92383Q6.83594 1.92383 6.875 2.00195Q7.89062 3.54492 8.92578 5.17578Q9.96094 6.80664 10.7617 8.73047Q11.1719 9.6875 11.5576 10.8252Q11.9434 11.9629 11.9434 13.1641Q11.9434 14.668 11.2939 15.7959Q10.6445 16.9238 9.48242 17.5488Q8.32031 18.1738 6.76758 18.1738Z" fill="#007aff"/>
 </g>
</svg>
