<?xml version="1.0" encoding="UTF-8"?>
<!--Generator: Apple Native CoreSVG 175-->
<!DOCTYPE svg
PUBLIC "-//W3C//DTD SVG 1.1//EN"
       "http://www.w3.org/Graphics/SVG/1.1/DTD/svg11.dtd">
<svg version="1.1" xmlns="http://www.w3.org/2000/svg" xmlns:xlink="http://www.w3.org/1999/xlink" width="19.1602" height="19.1504">
 <g>
  <rect height="19.1504" opacity="0" width="19.1602" x="0" y="0"/>
  <path d="M9.57031 19.1406Q11.5527 19.1406 13.2861 18.3984Q15.0195 17.6562 16.3379 16.333Q17.6562 15.0098 18.4082 13.2764Q19.1602 11.543 19.1602 9.57031Q19.1602 7.59766 18.4082 5.86426Q17.6562 4.13086 16.3379 2.80762Q15.0195 1.48438 13.2861 0.742188Q11.5527 0 9.57031 0Q7.59766 0 5.86426 0.742188Q4.13086 1.48438 2.81738 2.80762Q1.50391 4.13086 0.751953 5.86426Q0 7.59766 0 9.57031Q0 11.543 0.74707 13.2764Q1.49414 15.0098 2.8125 16.333Q4.13086 17.6562 5.86914 18.3984Q7.60742 19.1406 9.57031 19.1406ZM9.57031 14.9512Q8.47656 14.9512 7.65625 14.5117Q6.83594 14.0723 6.38672 13.2764Q5.9375 12.4805 5.9375 11.416Q5.9375 10.7324 6.18652 9.95605Q6.43555 9.17969 6.80664 8.36914Q7.25586 7.41211 7.84668 6.3916Q8.4375 5.37109 9.0625 4.42383Q9.16992 4.25781 9.28223 4.17969Q9.39453 4.10156 9.57031 4.10156Q9.73633 4.10156 9.84863 4.17969Q9.96094 4.25781 10.0684 4.42383Q10.6934 5.37109 11.2891 6.3916Q11.8848 7.41211 12.3242 8.36914Q12.7051 9.17969 12.9541 9.95605Q13.2031 10.7324 13.2031 11.416Q13.2031 12.4805 12.749 13.2764Q12.2949 14.0723 11.4746 14.5117Q10.6543 14.9512 9.57031 14.9512Z" fill="#000000"/>
 </g>
</svg>
