<?xml version="1.0" encoding="UTF-8"?>
<!--Generator: Apple Native CoreSVG 175.5-->
<!DOCTYPE svg
PUBLIC "-//W3C//DTD SVG 1.1//EN"
       "http://www.w3.org/Graphics/SVG/1.1/DTD/svg11.dtd">
<svg version="1.1" xmlns="http://www.w3.org/2000/svg" xmlns:xlink="http://www.w3.org/1999/xlink" width="16.6992" height="24.6387">
 <g>
  <rect height="24.6387" opacity="0" width="16.6992" x="0" y="0"/>
  <path d="M6.76758 22.1973Q8.79883 22.1973 10.3223 21.3721Q11.8457 20.5469 12.6904 19.0576Q13.5352 17.5684 13.5352 15.5859Q13.5352 14.6094 13.3203 13.6621Q13.1055 12.7148 12.793 11.875Q12.4805 11.0352 12.1973 10.3906Q11.416 8.62305 10.2881 6.75781Q9.16016 4.89258 8.08594 3.24219Q7.82227 2.85156 7.50977 2.63672Q7.19727 2.42188 6.76758 2.42188Q6.32812 2.42188 6.01562 2.63672Q5.70312 2.85156 5.44922 3.24219Q4.375 4.89258 3.24707 6.75781Q2.11914 8.62305 1.33789 10.3906Q1.05469 11.0352 0.742188 11.875Q0.429688 12.7148 0.214844 13.6621Q0 14.6094 0 15.5859Q0 17.5684 0.844727 19.0576Q1.68945 20.5469 3.21289 21.3721Q4.73633 22.1973 6.76758 22.1973ZM6.76758 20.5957Q5.21484 20.5957 4.05273 19.9707Q2.89062 19.3457 2.24121 18.2178Q1.5918 17.0898 1.5918 15.5859Q1.5918 14.3848 1.97266 13.2471Q2.35352 12.1094 2.76367 11.1621Q3.58398 9.23828 4.61426 7.60254Q5.64453 5.9668 6.66992 4.42383Q6.71875 4.3457 6.77246 4.3457Q6.82617 4.3457 6.875 4.42383Q7.89062 5.9668 8.9209 7.59766Q9.95117 9.22852 10.7617 11.1523Q11.1719 12.1094 11.5527 13.2471Q11.9336 14.3848 11.9336 15.5859Q11.9336 17.0898 11.2891 18.2178Q10.6445 19.3457 9.48242 19.9707Q8.32031 20.5957 6.76758 20.5957ZM13.7109 5.9668Q14.5508 5.9668 15.2295 5.57129Q15.9082 5.17578 16.3037 4.49707Q16.6992 3.81836 16.6992 2.98828Q16.6992 2.14844 16.3037 1.46973Q15.9082 0.791016 15.2295 0.395508Q14.5508 0 13.7109 0Q12.8809 0 12.2021 0.395508Q11.5234 0.791016 11.1279 1.46973Q10.7324 2.14844 10.7324 2.98828Q10.7324 3.81836 11.1279 4.49707Q11.5234 5.17578 12.2021 5.57129Q12.8809 5.9668 13.7109 5.9668ZM13.7109 4.58984Q13.0371 4.58984 12.5732 4.12598Q12.1094 3.66211 12.1094 2.98828Q12.1094 2.30469 12.5732 1.84082Q13.0371 1.37695 13.7109 1.37695Q14.3945 1.37695 14.8584 1.84082Q15.3223 2.30469 15.3223 2.98828Q15.3223 3.66211 14.8584 4.12598Q14.3945 4.58984 13.7109 4.58984Z" fill="#007aff"/>
 </g>
</svg>
