<?xml version="1.0" encoding="UTF-8"?>
<!--Generator: Apple Native CoreSVG 175.5-->
<!DOCTYPE svg
PUBLIC "-//W3C//DTD SVG 1.1//EN"
       "http://www.w3.org/Graphics/SVG/1.1/DTD/svg11.dtd">
<svg version="1.1" xmlns="http://www.w3.org/2000/svg" xmlns:xlink="http://www.w3.org/1999/xlink" width="15" height="22.7051">
 <g>
  <rect height="22.7051" opacity="0" width="15" x="0" y="0"/>
  <path d="M0 16.4062Q0 17.7539 0.532227 18.7451Q1.06445 19.7363 2.03125 20.2783Q2.99805 20.8203 4.30664 20.8203Q5.78125 20.8203 6.875 20.1807Q7.96875 19.541 8.66211 18.3008L9.54102 16.7285Q10.0488 15.7812 10.6494 15.0732Q11.25 14.3652 11.8652 13.7695Q12.4805 13.1738 13.042 12.583Q13.6035 11.9922 14.043 11.3086Q14.4824 10.625 14.7412 9.73145Q15 8.83789 15 7.62695Q15 5.3418 14.0771 3.62793Q13.1543 1.91406 11.4893 0.957031Q9.82422 0 7.60742 0Q5.33203 0 3.62305 0.961914Q1.91406 1.92383 0.957031 3.64746Q0 5.37109 0 7.66602Z" fill="#0a84ff"/>
  <path d="M2.62695 12.1875L2.62695 7.31445Q2.62695 5.94727 3.23242 4.91211Q3.83789 3.87695 4.95605 3.30078Q6.07422 2.72461 7.59766 2.72461Q9.07227 2.72461 10.1465 3.30078Q11.2207 3.87695 11.8018 4.91211Q12.3828 5.94727 12.3828 7.31445Q12.3828 7.61719 12.1631 7.83691Q11.9434 8.05664 11.6406 8.05664Q11.3477 8.05664 11.1279 7.83691Q10.9082 7.61719 10.9082 7.31445Q10.9082 5.89844 10.0342 5.04883Q9.16016 4.19922 7.59766 4.19922Q6.50391 4.19922 5.71777 4.58984Q4.93164 4.98047 4.5166 5.67871Q4.10156 6.37695 4.10156 7.31445L4.10156 8.55469L7.05078 8.55469Q8.23242 8.55469 8.95508 9.21875Q9.67773 9.88281 9.67773 10.957Q9.67773 11.4062 9.49707 11.9189Q9.31641 12.4316 9.01367 12.8125L7.74414 14.4238Q7.49023 14.7461 7.13867 14.7461Q6.83594 14.7461 6.61621 14.5312Q6.39648 14.3164 6.39648 14.0137Q6.39648 13.7305 6.5918 13.4863L7.76367 12.0117Q7.93945 11.7969 8.04688 11.5186Q8.1543 11.2402 8.1543 11.0156Q8.1543 10.5762 7.86133 10.3027Q7.56836 10.0293 7.07031 10.0293L4.10156 10.0293L4.10156 12.1875Q4.10156 12.4902 3.88184 12.71Q3.66211 12.9297 3.35938 12.9297Q3.05664 12.9297 2.8418 12.71Q2.62695 12.4902 2.62695 12.1875Z" fill="#ffffff"/>
 </g>
</svg>
