<?xml version="1.0" encoding="UTF-8"?>
<!--Generator: Apple Native CoreSVG 175.5-->
<!DOCTYPE svg
PUBLIC "-//W3C//DTD SVG 1.1//EN"
       "http://www.w3.org/Graphics/SVG/1.1/DTD/svg11.dtd">
<svg version="1.1" xmlns="http://www.w3.org/2000/svg" xmlns:xlink="http://www.w3.org/1999/xlink" width="23.3008" height="15.498">
 <g>
  <rect height="15.498" opacity="0" width="23.3008" x="0" y="0"/>
  <path d="M6.02539 15.498L17.2754 15.498Q20.3223 15.498 21.8115 14.0479Q23.3008 12.5977 23.3008 9.62891L23.3008 5.9082Q23.3008 2.91992 21.8408 1.46484Q20.3809 0.00976562 17.3828 0.00976562L5.91797 0.00976562Q2.92969 0.00976562 1.46484 1.46484Q0 2.91992 0 5.9082L0 9.62891Q0 12.5977 1.48926 14.0479Q2.97852 15.498 6.02539 15.498ZM6.02539 13.9258Q3.7207 13.9258 2.64648 12.8906Q1.57227 11.8555 1.57227 9.62891L1.57227 5.9082Q1.57227 3.67188 2.62207 2.62695Q3.67188 1.58203 5.91797 1.58203L17.3828 1.58203Q19.6387 1.58203 20.6836 2.62695Q21.7285 3.67188 21.7285 5.9082L21.7285 9.62891Q21.7285 11.8555 20.6543 12.8906Q19.5801 13.9258 17.2754 13.9258ZM0.791016 6.5625L22.5098 6.5625L22.5098 5.57617L0.791016 5.57617ZM11.6504 10.1953Q12.041 10.1953 12.3193 9.91699Q12.5977 9.63867 12.5977 9.24805Q12.5977 8.85742 12.3193 8.58398Q12.041 8.31055 11.6504 8.31055Q11.2598 8.31055 10.9863 8.58398Q10.7129 8.85742 10.7129 9.24805Q10.7129 9.63867 10.9863 9.91699Q11.2598 10.1953 11.6504 10.1953Z" fill="#007aff"/>
 </g>
</svg>
