<?xml version="1.0" encoding="UTF-8"?>
<!--Generator: Apple Native CoreSVG 175-->
<!DOCTYPE svg
PUBLIC "-//W3C//DTD SVG 1.1//EN"
       "http://www.w3.org/Graphics/SVG/1.1/DTD/svg11.dtd">
<svg version="1.1" xmlns="http://www.w3.org/2000/svg" xmlns:xlink="http://www.w3.org/1999/xlink" width="17.375" height="17.6044">
 <g>
  <rect height="17.6044" opacity="0" width="17.375" x="0" y="0"/>
  <path d="M3.86795 7.10434Q4.64294 7.10709 5.32875 6.82762Q6.01456 6.54816 6.53503 6.05614Q7.05551 5.56412 7.35023 4.91524Q7.64496 4.26636 7.64496 3.5376Q7.64496 2.57309 7.13287 1.77094Q6.62079 0.968781 5.76294 0.48439Q4.90509 0 3.86795 0Q3.08044 0 2.40334 0.259399Q1.72623 0.518799 1.18202 0.97168Q0.637817 1.42456 0.250854 2.01019Q0 2.39334 0 2.86957L0 4.23477Q0 4.71954 0.250854 5.10117Q0.635223 5.68405 1.18073 6.12991Q1.72623 6.57578 2.40334 6.83029Q3.08044 7.08481 3.86795 7.10434ZM1.49612 4.83292Q1.35269 4.83292 1.26091 4.73755Q1.16913 4.64218 1.16913 4.48914L1.16913 2.5914Q1.16913 2.44812 1.26091 2.35138Q1.35269 2.25464 1.49612 2.25464Q1.64917 2.25464 1.74454 2.35138Q1.8399 2.44812 1.8399 2.5914L1.8399 4.48914Q1.8399 4.64218 1.74454 4.73755Q1.64917 4.83292 1.49612 4.83292ZM5.23865 14.6922L6.01959 14.6922Q6.38443 14.6922 6.56586 14.5322Q6.74728 14.3723 6.74728 14.0524L6.74728 6.92978Q6.27655 7.29462 5.70915 7.53075Q5.14175 7.76688 4.52072 7.84653L4.52072 14.0524Q4.52072 14.3723 4.70566 14.5322Q4.89059 14.6922 5.23865 14.6922ZM5.3363 17.5681L5.93597 17.5681L5.93597 13.6411L5.3363 13.6411ZM13.5071 7.10434Q14.2876 7.08481 14.9648 6.83029Q15.6419 6.57578 16.1909 6.12991Q16.74 5.68405 17.1243 5.10117Q17.375 4.71954 17.375 4.23477L17.375 2.86957Q17.375 2.39334 17.1243 2.01019Q16.7372 1.42456 16.1896 0.97168Q15.6419 0.518799 14.9648 0.259399Q14.2876 0 13.5071 0Q12.4699 0 11.6122 0.48439Q10.7544 0.968781 10.2422 1.77094Q9.73007 2.57309 9.73007 3.5376Q9.73007 4.26636 10.0248 4.91524Q10.3195 5.56412 10.8401 6.05614Q11.3606 6.54816 12.0428 6.82762Q12.7251 7.10709 13.5071 7.10434ZM15.8763 4.83292Q15.7259 4.83292 15.6306 4.73755Q15.5353 4.64218 15.5353 4.48914L15.5353 2.5914Q15.5353 2.44812 15.6306 2.35138Q15.7259 2.25464 15.8763 2.25464Q16.0223 2.25464 16.1141 2.35138Q16.2059 2.44812 16.2059 2.5914L16.2059 4.48914Q16.2059 4.64218 16.1141 4.73755Q16.0223 4.83292 15.8763 4.83292ZM11.3556 14.6922L12.1364 14.6922Q12.4844 14.6922 12.6694 14.5322Q12.8543 14.3723 12.8543 14.0524L12.8543 7.84653Q12.2305 7.76688 11.6645 7.53075Q11.0985 7.29462 10.6277 6.92978L10.6277 14.0524Q10.6277 14.3723 10.8092 14.5322Q10.9908 14.6922 11.3556 14.6922ZM12.0387 17.5681L12.0387 13.6411L11.432 13.6411L11.432 17.5681Z" fill="#000000"/>
 </g>
</svg>
