<?xml version="1.0" encoding="UTF-8"?>
<!--Generator: Apple Native CoreSVG 175-->
<!DOCTYPE svg
PUBLIC "-//W3C//DTD SVG 1.1//EN"
       "http://www.w3.org/Graphics/SVG/1.1/DTD/svg11.dtd">
<svg version="1.1" xmlns="http://www.w3.org/2000/svg" xmlns:xlink="http://www.w3.org/1999/xlink" width="19.1321" height="18.3417">
 <g>
  <rect height="18.3417" opacity="0" width="19.1321" x="0" y="0"/>
  <path d="M1.15982 11.539L17.9778 11.539Q18.4335 11.539 18.7113 11.3068Q18.9891 11.0745 18.9847 10.6644Q18.9874 10.4585 18.8943 10.2576Q18.8011 10.0566 18.6188 9.84756L10.4973 0.469055Q10.3223 0.267487 10.0768 0.142517Q9.83124 0.0175476 9.56879 0.0175476Q9.30618 0.0175476 9.06204 0.139771Q8.8179 0.261993 8.63754 0.469055L0.518799 9.84756Q0.329285 10.0664 0.241013 10.2625Q0.15274 10.4585 0.15274 10.6644Q0.15274 11.0745 0.428314 11.3068Q0.703888 11.539 1.15982 11.539ZM1.45676 10.8519Q1.04965 10.8519 1.04965 10.5499Q1.04965 10.3679 1.21216 10.1746L9.13391 1.02966Q9.22623 0.930481 9.33456 0.87677Q9.4429 0.823059 9.56879 0.823059Q9.83047 0.823059 10.0035 1.02966L17.9227 10.1746Q18.0948 10.3706 18.0948 10.5499Q18.0948 10.8519 17.6808 10.8519ZM1.47385 18.3417L17.6582 18.3417Q18.3504 18.3417 18.7412 17.938Q19.1321 17.5343 19.1321 16.8405L19.1321 15.612Q19.1321 14.9252 18.7412 14.5181Q18.3504 14.1109 17.6582 14.1109L1.47385 14.1109Q0.784454 14.1109 0.392227 14.5181Q0 14.9252 0 15.612L0 16.8405Q0 17.5343 0.392227 17.938Q0.784454 18.3417 1.47385 18.3417ZM1.50238 17.6445Q1.13083 17.6445 0.929718 17.4181Q0.728607 17.1918 0.728607 16.8202L0.728607 15.6323Q0.728607 15.2609 0.929718 15.0346Q1.13083 14.8082 1.50238 14.8082L17.6297 14.8082Q18.0038 14.8082 18.2072 15.0346Q18.4105 15.2609 18.4105 15.6323L18.4105 16.8202Q18.4105 17.1918 18.2072 17.4181Q18.0038 17.6445 17.6297 17.6445Z" fill="#007aff"/>
 </g>
</svg>
