<?xml version="1.0" encoding="UTF-8"?>
<!--Generator: Apple Native CoreSVG 175.5-->
<!DOCTYPE svg
PUBLIC "-//W3C//DTD SVG 1.1//EN"
       "http://www.w3.org/Graphics/SVG/1.1/DTD/svg11.dtd">
<svg version="1.1" xmlns="http://www.w3.org/2000/svg" xmlns:xlink="http://www.w3.org/1999/xlink" width="18.8086" height="18.2715">
 <g>
  <rect height="18.2715" opacity="0" width="18.8086" x="0" y="0"/>
  <path d="M1.63086 11.1523L17.1973 11.1523Q17.8711 11.1523 18.2227 10.8252Q18.5742 10.498 18.584 9.91211Q18.5938 9.62891 18.4619 9.35059Q18.3301 9.07227 18.1055 8.82812L10.7715 0.771484Q10.498 0.478516 10.1611 0.283203Q9.82422 0.0878906 9.41406 0.0878906Q9.00391 0.0878906 8.67188 0.273438Q8.33984 0.458984 8.04688 0.771484L0.722656 8.82812Q0.498047 9.08203 0.371094 9.35547Q0.244141 9.62891 0.244141 9.91211Q0.244141 10.498 0.600586 10.8252Q0.957031 11.1523 1.63086 11.1523ZM2.66602 9.67773Q2.39258 9.67773 2.39258 9.45312Q2.39258 9.35547 2.4707 9.26758L9.0918 2.07031Q9.16992 1.99219 9.24316 1.93848Q9.31641 1.88477 9.41406 1.88477Q9.57031 1.88477 9.73633 2.07031L16.3477 9.26758Q16.4355 9.36523 16.4355 9.45312Q16.4355 9.67773 16.1621 9.67773ZM2.09961 18.2715L16.709 18.2715Q17.7246 18.2715 18.2666 17.7588Q18.8086 17.2461 18.8086 16.25L18.8086 15.127Q18.8086 14.1309 18.2666 13.6182Q17.7246 13.1055 16.709 13.1055L2.09961 13.1055Q1.09375 13.1055 0.546875 13.6182Q0 14.1309 0 15.127L0 16.25Q0 17.2461 0.546875 17.7588Q1.09375 18.2715 2.09961 18.2715ZM2.22656 16.8359Q1.9043 16.8359 1.73828 16.6553Q1.57227 16.4746 1.57227 16.1523L1.57227 15.2246Q1.57227 14.9023 1.73828 14.7217Q1.9043 14.541 2.22656 14.541L16.582 14.541Q16.9141 14.541 17.0752 14.7217Q17.2363 14.9023 17.2363 15.2246L17.2363 16.1523Q17.2363 16.4746 17.0752 16.6553Q16.9141 16.8359 16.582 16.8359Z" fill="#007aff"/>
 </g>
</svg>
