<?xml version="1.0" encoding="UTF-8"?>
<!--Generator: Apple Native CoreSVG 175-->
<!DOCTYPE svg
PUBLIC "-//W3C//DTD SVG 1.1//EN"
       "http://www.w3.org/Graphics/SVG/1.1/DTD/svg11.dtd">
<svg version="1.1" xmlns="http://www.w3.org/2000/svg" xmlns:xlink="http://www.w3.org/1999/xlink" width="20.7715" height="20.3223">
 <g>
  <rect height="20.3223" opacity="0" width="20.7715" x="0" y="0"/>
  <path d="M5.06836 20.3223Q5.25391 20.3223 5.39551 20.2295Q5.53711 20.1367 5.71289 19.9902L9.22852 16.9629L17.0508 16.9629Q18.2031 16.9629 19.0381 16.5088Q19.873 16.0547 20.3223 15.2197Q20.7715 14.3848 20.7715 13.252L20.7715 4.90234Q20.7715 3.75977 20.3223 2.9248Q19.873 2.08984 19.0381 1.63574Q18.2031 1.18164 17.0508 1.18164L3.7207 1.18164Q2.56836 1.18164 1.7334 1.63574Q0.898438 2.08984 0.449219 2.91992Q0 3.75 0 4.90234L0 13.252Q0 14.3945 0.449219 15.2246Q0.898438 16.0547 1.7334 16.5088Q2.56836 16.9629 3.7207 16.9629L4.55078 16.9629L4.55078 19.7168Q4.55078 20 4.69727 20.1611Q4.84375 20.3223 5.06836 20.3223ZM5.23438 19.5117L5.23438 16.582Q5.23438 16.4062 5.15625 16.3232Q5.07812 16.2402 4.88281 16.2402L3.73047 16.2402Q2.33398 16.2402 1.5332 15.4297Q0.732422 14.6191 0.732422 13.2227L0.732422 4.92188Q0.732422 3.52539 1.5332 2.71973Q2.33398 1.91406 3.73047 1.91406L17.0312 1.91406Q18.4082 1.91406 19.2236 2.71973Q20.0391 3.52539 20.0391 4.92188L20.0391 13.2227Q20.0391 14.6191 19.2236 15.4297Q18.4082 16.2402 17.0312 16.2402L9.30664 16.2402Q9.07227 16.2402 8.9209 16.2988Q8.76953 16.3574 8.58398 16.5332ZM6.13281 10.1855Q6.5918 10.1855 6.91895 9.85352Q7.24609 9.52148 7.24609 9.0625Q7.24609 8.60352 6.91895 8.27637Q6.5918 7.94922 6.13281 7.94922Q5.66406 7.94922 5.33203 8.27637Q5 8.60352 5 9.0625Q5 9.52148 5.33203 9.85352Q5.66406 10.1855 6.13281 10.1855ZM10.3906 10.1855Q10.8398 10.1855 11.167 9.85352Q11.4941 9.52148 11.4941 9.0625Q11.4941 8.60352 11.167 8.27637Q10.8398 7.94922 10.3906 7.94922Q9.91211 7.94922 9.58496 8.27637Q9.25781 8.60352 9.25781 9.0625Q9.25781 9.52148 9.58496 9.85352Q9.91211 10.1855 10.3906 10.1855ZM14.6387 10.1855Q15.0977 10.1855 15.4297 9.85352Q15.7617 9.52148 15.7617 9.0625Q15.7617 8.60352 15.4297 8.27637Q15.0977 7.94922 14.6387 7.94922Q14.1699 7.94922 13.8428 8.27637Q13.5156 8.60352 13.5156 9.0625Q13.5156 9.52148 13.8428 9.85352Q14.1699 10.1855 14.6387 10.1855Z" fill="#ffffff"/>
 </g>
</svg>
