<?xml version="1.0" encoding="UTF-8"?>
<!--Generator: Apple Native CoreSVG 175-->
<!DOCTYPE svg
PUBLIC "-//W3C//DTD SVG 1.1//EN"
       "http://www.w3.org/Graphics/SVG/1.1/DTD/svg11.dtd">
<svg version="1.1" xmlns="http://www.w3.org/2000/svg" xmlns:xlink="http://www.w3.org/1999/xlink" width="19.0039" height="12.1582">
 <g>
  <rect height="12.1582" opacity="0" width="19.0039" x="0" y="0"/>
  <path d="M0 9.89258Q0 10.9473 0.595703 11.543Q1.19141 12.1387 2.25586 12.1387L16.748 12.1387Q17.8125 12.1387 18.4082 11.543Q19.0039 10.9473 19.0039 9.89258L19.0039 2.25586Q19.0039 1.19141 18.4082 0.595703Q17.8125 0 16.748 0L2.25586 0Q1.19141 0 0.595703 0.595703Q0 1.19141 0 2.25586ZM5.22461 7.20703Q4.74609 7.20703 4.41406 6.875Q4.08203 6.54297 4.08203 6.07422Q4.08203 5.60547 4.41406 5.27832Q4.74609 4.95117 5.22461 4.95117Q5.69336 4.95117 6.02051 5.27832Q6.34766 5.60547 6.34766 6.07422Q6.34766 6.54297 6.02051 6.875Q5.69336 7.20703 5.22461 7.20703ZM9.51172 7.20703Q9.0332 7.20703 8.70605 6.875Q8.37891 6.54297 8.37891 6.07422Q8.37891 5.60547 8.70605 5.27832Q9.0332 4.95117 9.51172 4.95117Q9.9707 4.95117 10.3027 5.27832Q10.6348 5.60547 10.6348 6.07422Q10.6348 6.54297 10.3027 6.875Q9.9707 7.20703 9.51172 7.20703ZM13.7988 7.20703Q13.3301 7.20703 12.998 6.875Q12.666 6.54297 12.666 6.07422Q12.666 5.60547 12.998 5.27832Q13.3301 4.95117 13.7988 4.95117Q14.2578 4.95117 14.5898 5.27832Q14.9219 5.60547 14.9219 6.07422Q14.9219 6.54297 14.5898 6.875Q14.2578 7.20703 13.7988 7.20703Z" fill="#000000"/>
 </g>
</svg>
