<?xml version="1.0" encoding="UTF-8"?>
<!--Generator: Apple Native CoreSVG 175-->
<!DOCTYPE svg
PUBLIC "-//W3C//DTD SVG 1.1//EN"
       "http://www.w3.org/Graphics/SVG/1.1/DTD/svg11.dtd">
<svg version="1.1" xmlns="http://www.w3.org/2000/svg" xmlns:xlink="http://www.w3.org/1999/xlink" width="20.7715" height="20.3418">
 <g>
  <rect height="20.3418" opacity="0" width="20.7715" x="0" y="0"/>
  <path d="M5.0293 20.3418Q5.18555 20.3418 5.32227 20.2588Q5.45898 20.1758 5.60547 20.0391L9.16016 16.9727L17.0508 16.9727Q18.2031 16.9727 19.0381 16.5186Q19.873 16.0645 20.3223 15.2295Q20.7715 14.3945 20.7715 13.2617L20.7715 4.91211Q20.7715 3.76953 20.3223 2.93457Q19.873 2.09961 19.0381 1.64551Q18.2031 1.19141 17.0508 1.19141L3.7207 1.19141Q2.56836 1.19141 1.7334 1.64551Q0.898438 2.09961 0.449219 2.92969Q0 3.75977 0 4.91211L0 13.2617Q0 14.4043 0.449219 15.2344Q0.898438 16.0645 1.7334 16.5186Q2.56836 16.9727 3.7207 16.9727L4.55078 16.9727L4.55078 19.7852Q4.55078 20.0488 4.68262 20.1953Q4.81445 20.3418 5.0293 20.3418ZM9.27734 4.96094Q9.27734 4.49219 9.59961 4.16504Q9.92188 3.83789 10.4004 3.83789Q10.8496 3.83789 11.1768 4.16504Q11.5039 4.49219 11.5039 4.96094Q11.5039 5.41992 11.1768 5.74707Q10.8496 6.07422 10.4004 6.07422Q9.92188 6.07422 9.59961 5.74707Q9.27734 5.41992 9.27734 4.96094ZM9.27734 9.08203Q9.27734 8.61328 9.59961 8.29102Q9.92188 7.96875 10.4004 7.96875Q10.8496 7.96875 11.1768 8.29102Q11.5039 8.61328 11.5039 9.08203Q11.5039 9.54102 11.1768 9.86328Q10.8496 10.1855 10.4004 10.1855Q9.92188 10.1855 9.59961 9.86328Q9.27734 9.54102 9.27734 9.08203ZM9.27734 13.2129Q9.27734 12.7344 9.59961 12.4121Q9.92188 12.0898 10.4004 12.0898Q10.8496 12.0898 11.1768 12.4121Q11.5039 12.7344 11.5039 13.2129Q11.5039 13.6621 11.1768 13.9893Q10.8496 14.3164 10.4004 14.3164Q9.92188 14.3164 9.59961 13.9893Q9.27734 13.6621 9.27734 13.2129Z" fill="#000000"/>
 </g>
</svg>
