<?xml version="1.0" encoding="UTF-8"?>
<!--Generator: Apple Native CoreSVG 175.5-->
<!DOCTYPE svg
PUBLIC "-//W3C//DTD SVG 1.1//EN"
       "http://www.w3.org/Graphics/SVG/1.1/DTD/svg11.dtd">
<svg version="1.1" xmlns="http://www.w3.org/2000/svg" xmlns:xlink="http://www.w3.org/1999/xlink" width="15.9082" height="20.5176">
 <g>
  <rect height="20.5176" opacity="0" width="15.9082" x="0" y="0"/>
  <path d="M3.06641 20.4785L10.6543 20.4785Q12.1875 20.4785 12.9492 19.7217Q13.7109 18.9648 13.7109 17.4707L13.7109 17.2852L9.18945 17.2852Q8.7793 17.7832 8.16895 18.0859Q7.55859 18.3887 6.85547 18.3887Q6.02539 18.3887 5.33691 17.9834Q4.64844 17.5781 4.24316 16.8896Q3.83789 16.2012 3.83789 15.3711Q3.83789 14.541 4.24316 13.8574Q4.64844 13.1738 5.33691 12.7686Q6.02539 12.3633 6.85547 12.3633Q7.55859 12.3633 8.16406 12.6562Q8.76953 12.9492 9.17969 13.457L13.7109 13.457L13.7109 3.02734Q13.7109 1.51367 12.9492 0.756836Q12.1875 0 10.6543 0L3.06641 0Q1.54297 0 0.771484 0.756836Q0 1.51367 0 3.02734L0 17.4512Q0 18.9648 0.771484 19.7217Q1.54297 20.4785 3.06641 20.4785ZM3.74023 4.90234Q3.22266 4.90234 2.87109 4.5459Q2.51953 4.18945 2.51953 3.69141Q2.51953 3.18359 2.87109 2.82227Q3.22266 2.46094 3.74023 2.46094Q4.24805 2.46094 4.60449 2.82227Q4.96094 3.18359 4.96094 3.69141Q4.96094 4.18945 4.60449 4.5459Q4.24805 4.90234 3.74023 4.90234ZM6.85547 4.90234Q6.34766 4.90234 5.99609 4.5459Q5.64453 4.18945 5.64453 3.69141Q5.64453 3.18359 5.99609 2.82227Q6.34766 2.46094 6.85547 2.46094Q7.37305 2.46094 7.72949 2.82227Q8.08594 3.18359 8.08594 3.69141Q8.08594 4.18945 7.72949 4.5459Q7.37305 4.90234 6.85547 4.90234ZM9.99023 4.90234Q9.48242 4.90234 9.12598 4.5459Q8.76953 4.18945 8.76953 3.69141Q8.76953 3.18359 9.12598 2.82227Q9.48242 2.46094 9.99023 2.46094Q10.498 2.46094 10.8496 2.82227Q11.2012 3.18359 11.2012 3.69141Q11.2012 4.18945 10.8496 4.5459Q10.498 4.90234 9.99023 4.90234ZM3.74023 7.91016Q3.22266 7.91016 2.87109 7.55371Q2.51953 7.19727 2.51953 6.68945Q2.51953 6.17188 2.87109 5.81543Q3.22266 5.45898 3.74023 5.45898Q4.24805 5.45898 4.60449 5.81543Q4.96094 6.17188 4.96094 6.68945Q4.96094 7.19727 4.60449 7.55371Q4.24805 7.91016 3.74023 7.91016ZM6.85547 7.91016Q6.34766 7.91016 5.99609 7.55371Q5.64453 7.19727 5.64453 6.68945Q5.64453 6.17188 5.99609 5.81543Q6.34766 5.45898 6.85547 5.45898Q7.37305 5.45898 7.72949 5.81543Q8.08594 6.17188 8.08594 6.68945Q8.08594 7.19727 7.72949 7.55371Q7.37305 7.91016 6.85547 7.91016ZM9.99023 7.91016Q9.48242 7.91016 9.12598 7.55371Q8.76953 7.19727 8.76953 6.68945Q8.76953 6.17188 9.12598 5.81543Q9.48242 5.45898 9.99023 5.45898Q10.498 5.45898 10.8496 5.81543Q11.2012 6.17188 11.2012 6.68945Q11.2012 7.19727 10.8496 7.55371Q10.498 7.91016 9.99023 7.91016ZM3.74023 10.9277Q3.22266 10.9277 2.87109 10.5713Q2.51953 10.2148 2.51953 9.69727Q2.51953 9.18945 2.87109 8.83301Q3.22266 8.47656 3.74023 8.47656Q4.24805 8.47656 4.60449 8.83301Q4.96094 9.18945 4.96094 9.69727Q4.96094 10.2148 4.60449 10.5713Q4.24805 10.9277 3.74023 10.9277ZM6.85547 10.9277Q6.34766 10.9277 5.99609 10.5713Q5.64453 10.2148 5.64453 9.69727Q5.64453 9.18945 5.99609 8.83301Q6.34766 8.47656 6.85547 8.47656Q7.37305 8.47656 7.72949 8.83301Q8.08594 9.18945 8.08594 9.69727Q8.08594 10.2148 7.72949 10.5713Q7.37305 10.9277 6.85547 10.9277ZM9.99023 10.9277Q9.48242 10.9277 9.12598 10.5713Q8.76953 10.2148 8.76953 9.69727Q8.76953 9.18945 9.12598 8.83301Q9.48242 8.47656 9.99023 8.47656Q10.498 8.47656 10.8496 8.83301Q11.2012 9.18945 11.2012 9.69727Q11.2012 10.2148 10.8496 10.5713Q10.498 10.9277 9.99023 10.9277Z" fill="#007aff"/>
  <path d="M6.85547 16.5527L14.7266 16.5527Q15.2148 16.5527 15.5615 16.2061Q15.9082 15.8594 15.9082 15.3711Q15.9082 14.8828 15.5615 14.5361Q15.2148 14.1895 14.7266 14.1895L6.85547 14.1895Q6.36719 14.1895 6.02051 14.5361Q5.67383 14.8828 5.67383 15.3711Q5.67383 15.8594 6.02051 16.2061Q6.36719 16.5527 6.85547 16.5527Z" fill="#007aff"/>
 </g>
</svg>
