<?xml version="1.0" encoding="UTF-8"?>
<!--Generator: Apple Native CoreSVG 175-->
<!DOCTYPE svg
PUBLIC "-//W3C//DTD SVG 1.1//EN"
       "http://www.w3.org/Graphics/SVG/1.1/DTD/svg11.dtd">
<svg version="1.1" xmlns="http://www.w3.org/2000/svg" xmlns:xlink="http://www.w3.org/1999/xlink" width="20.775" height="16.1005">
 <g>
  <rect height="16.1005" opacity="0" width="20.775" x="0" y="0"/>
  <path d="M2.63046 16.1005L18.2056 16.1005Q19.4606 16.1005 20.1178 15.4245Q20.775 14.7485 20.775 13.4738L20.775 2.65747Q20.775 1.3855 20.1068 0.709534Q19.4386 0.0335693 18.1445 0.0335693L2.56958 0.0335693Q1.32156 0.0335693 0.660782 0.702515Q0 1.37146 0 2.65747L0 13.4738Q0 14.7626 0.668182 15.4315Q1.33636 16.1005 2.63046 16.1005ZM2.64221 15.3868Q1.69189 15.3868 1.19926 14.8991Q0.706635 14.4113 0.706635 13.4528L0.706635 2.67853Q0.706635 1.72272 1.19926 1.23505Q1.69189 0.747375 2.64221 0.747375L18.1398 0.747375Q19.0594 0.747375 19.5639 1.23505Q20.0684 1.72272 20.0684 2.68127L20.0684 13.4555Q20.0684 14.4113 19.5639 14.8991Q19.0594 15.3868 18.1398 15.3868ZM10.4492 10.2618Q10.8403 10.2618 11.268 10.0864Q11.6957 9.91104 12.1289 9.49463L20.2837 1.54694L19.7742 1.03485L11.666 8.97507Q11.3509 9.28757 11.0346 9.41643Q10.7184 9.54529 10.4492 9.54529Q10.1843 9.54529 9.86115 9.41154Q9.53796 9.2778 9.2395 8.97507L1.1203 1.03088L0.608215 1.54297L8.77655 9.49463Q9.207 9.91104 9.63615 10.0864Q10.0653 10.2618 10.4492 10.2618ZM19.6555 15.1164L20.1437 14.5903L13.3473 8.06885L12.838 8.55713ZM0.709839 14.6422L1.18408 15.1825L8.06763 8.55713L7.55539 8.06885Z" fill="#007aff"/>
 </g>
</svg>
