<?xml version="1.0" encoding="UTF-8"?>
<!--Generator: Apple Native CoreSVG 175-->
<!DOCTYPE svg
PUBLIC "-//W3C//DTD SVG 1.1//EN"
       "http://www.w3.org/Graphics/SVG/1.1/DTD/svg11.dtd">
<svg version="1.1" xmlns="http://www.w3.org/2000/svg" xmlns:xlink="http://www.w3.org/1999/xlink" width="20.775" height="24.3167">
 <g>
  <rect height="24.3167" opacity="0" width="20.775" x="0" y="0"/>
  <path d="M2.63046 21.7754L18.1445 21.7754Q19.4386 21.7754 20.1068 21.1029Q20.775 20.4305 20.775 19.1487L20.775 8.85544Q20.775 8.293 20.722 7.90665Q20.6691 7.52029 20.5275 7.23236Q20.3859 6.94443 20.1199 6.68297Q19.854 6.42151 19.4418 6.11282L12.0337 0.618286Q11.7032 0.36438 11.2823 0.18219Q10.8614 0 10.3876 0Q9.91364 0 9.49631 0.18219Q9.07898 0.36438 8.74146 0.618286L1.34018 6.11282Q0.921021 6.42151 0.658569 6.68297Q0.396118 6.94443 0.251007 7.23236Q0.105896 7.52029 0.052948 7.90665Q0 8.293 0 8.85544L0 19.1487Q0 20.4445 0.668182 21.1099Q1.33636 21.7754 2.63046 21.7754ZM2.64221 21.0687Q1.69189 21.0687 1.19926 20.5775Q0.706635 20.0862 0.706635 19.1277L0.706635 8.80264Q0.706635 8.22617 0.782013 7.87659Q0.857391 7.52701 1.07635 7.26273Q1.29532 6.99844 1.73355 6.67221L9.08203 1.2175Q9.39423 0.993347 9.68758 0.848999Q9.98093 0.704651 10.3876 0.704651Q10.787 0.704651 11.0875 0.848999Q11.3879 0.993347 11.7 1.2175L19.0485 6.67221Q19.4797 6.99844 19.6986 7.26273Q19.9176 7.52701 19.993 7.87659Q20.0684 8.22617 20.0684 8.80264L20.0684 19.1277Q20.0684 20.0862 19.5639 20.5775Q19.0594 21.0687 18.1398 21.0687ZM0.667572 20.3586L1.18683 20.8609L9.2395 12.9788Q9.53796 12.6778 9.86115 12.5432Q10.1843 12.4086 10.4492 12.4086Q10.7184 12.4086 11.0346 12.5397Q11.3509 12.6707 11.666 12.9788L19.7188 20.8609L20.2351 20.3586L12.1289 12.4594Q11.6957 12.043 11.268 11.8711Q10.8403 11.6992 10.4492 11.6992Q10.0653 11.6992 9.63615 11.8711Q9.207 12.043 8.77655 12.4594ZM7.55539 13.8895L8.06763 13.3968L1.29608 6.88354L0.772705 7.38586ZM12.838 13.3968L13.3473 13.8895L20.1302 7.38586L19.6066 6.88354Z" fill="#ffffff"/>
 </g>
</svg>
