<?xml version="1.0" encoding="UTF-8"?>
<!--Generator: Apple Native CoreSVG 175-->
<!DOCTYPE svg
PUBLIC "-//W3C//DTD SVG 1.1//EN"
       "http://www.w3.org/Graphics/SVG/1.1/DTD/svg11.dtd">
<svg version="1.1" xmlns="http://www.w3.org/2000/svg" xmlns:xlink="http://www.w3.org/1999/xlink" width="20.775" height="24.252">
 <g>
  <rect height="24.252" opacity="0" width="20.775" x="0" y="0"/>
  <path d="M0.252686 20.4517L7.17026 13.6992L0.790253 7.59232Q0.62851 7.43057 0.81131 7.30042L9.18472 1.15906Q9.53049 0.908203 9.81606 0.8004Q10.1016 0.692596 10.3876 0.692596Q10.6805 0.692596 10.9471 0.79689Q11.2137 0.901184 11.5903 1.15906L19.9637 7.30042Q20.1535 7.43759 19.9637 7.61337L13.7325 13.6992L20.5504 20.3688Q20.775 20.0148 20.775 19.0961L20.775 8.31497Q20.775 7.81143 20.6982 7.48604Q20.6215 7.16064 20.3805 6.88034Q20.1395 6.60004 19.6657 6.24374L12.0337 0.618439Q11.6907 0.371552 11.276 0.185776Q10.8614 0 10.3876 0Q9.91364 0 9.50256 0.185776Q9.09149 0.371552 8.74146 0.618439L1.11374 6.24374Q0.635529 6.60004 0.395889 6.88034Q0.15625 7.16064 0.078125 7.48604Q0 7.81143 0 8.31497L0 19.0961Q0 20.0809 0.252686 20.4517ZM2.56958 21.7227L18.1445 21.7227Q19.5645 21.7227 20.034 21.111L11.6013 12.8461Q11.0562 12.3012 10.4492 12.3012Q9.8465 12.3012 9.30435 12.8461L0.798798 21.1809Q1.259 21.7227 2.56958 21.7227Z" fill="#000000"/>
 </g>
</svg>
