<?xml version="1.0" encoding="UTF-8"?>
<!--Generator: Apple Native CoreSVG 175-->
<!DOCTYPE svg
PUBLIC "-//W3C//DTD SVG 1.1//EN"
       "http://www.w3.org/Graphics/SVG/1.1/DTD/svg11.dtd">
<svg version="1.1" xmlns="http://www.w3.org/2000/svg" xmlns:xlink="http://www.w3.org/1999/xlink" width="20.775" height="16.1005">
 <g>
  <rect height="16.1005" opacity="0" width="20.775" x="0" y="0"/>
  <path d="M10.4492 9.45511Q11.0562 9.45511 11.6013 8.91022L20.034 0.642548Q19.5645 0.0335693 18.1445 0.0335693L2.56958 0.0335693Q1.259 0.0335693 0.801544 0.575409L9.30435 8.91022Q9.8465 9.45511 10.4492 9.45511ZM0.300446 14.9149L7.30316 8.1871L0.252686 1.30478Q0 1.67542 0 2.65747L0 13.4738Q0 14.516 0.300446 14.9149ZM2.63046 16.1005L18.2056 16.1005Q19.5035 16.1005 19.9637 15.5614L12.9578 8.80661L12.1938 9.55948Q11.3622 10.3493 10.4492 10.3493Q9.53354 10.3493 8.7117 9.55948L7.93793 8.80661L0.881195 15.6149Q1.33942 16.1005 2.63046 16.1005ZM20.5125 14.8347Q20.775 14.4614 20.775 13.4738L20.775 2.65747Q20.775 1.74149 20.5602 1.39725L13.5997 8.1871Z" fill="#ffffff"/>
 </g>
</svg>
