<?xml version="1.0" encoding="UTF-8"?>
<!--Generator: Apple Native CoreSVG 175.5-->
<!DOCTYPE svg
PUBLIC "-//W3C//DTD SVG 1.1//EN"
       "http://www.w3.org/Graphics/SVG/1.1/DTD/svg11.dtd">
<svg version="1.1" xmlns="http://www.w3.org/2000/svg" xmlns:xlink="http://www.w3.org/1999/xlink" width="21.5625" height="24.8145">
 <g>
  <rect height="24.8145" opacity="0" width="21.5625" x="0" y="0"/>
  <path d="M0.224609 20.5078L6.52344 14.2969L1.24023 9.16016Q0.888672 8.80859 1.24023 8.54492L9.59961 2.08008Q9.98047 1.78711 10.2344 1.64062Q10.4883 1.49414 10.7812 1.49414Q11.0742 1.49414 11.3232 1.64062Q11.5723 1.78711 11.9629 2.08008L20.3223 8.54492Q20.6738 8.80859 20.3223 9.16016L15.0684 14.2969L21.3379 20.4883Q21.5625 20.0781 21.5625 19.082L21.5625 9.17969Q21.5625 8.66211 21.4893 8.29102Q21.416 7.91992 21.2207 7.62207Q21.0254 7.32422 20.6641 7.03125L12.793 0.927734Q12.2461 0.498047 11.7822 0.249023Q11.3184 0 10.7812 0Q10.2441 0 9.78027 0.249023Q9.31641 0.498047 8.76953 0.927734L0.888672 7.03125Q0.537109 7.32422 0.34668 7.62207Q0.15625 7.91992 0.078125 8.29102Q0 8.66211 0 9.17969L0 19.082Q0 20.0879 0.224609 20.5078ZM2.77344 22.1094L18.4961 22.1094Q19.9512 22.1094 20.498 21.582L12.002 13.1836Q11.3867 12.5684 10.8008 12.5684Q10.2051 12.5684 9.59961 13.1836L1.04492 21.6309Q1.5332 22.1094 2.77344 22.1094Z" fill="#007aff"/>
 </g>
</svg>
