<?xml version="1.0" encoding="UTF-8"?>
<!--Generator: Apple Native CoreSVG 175-->
<!DOCTYPE svg
PUBLIC "-//W3C//DTD SVG 1.1//EN"
       "http://www.w3.org/Graphics/SVG/1.1/DTD/svg11.dtd">
<svg version="1.1" xmlns="http://www.w3.org/2000/svg" xmlns:xlink="http://www.w3.org/1999/xlink" width="19.1602" height="19.1504">
 <g>
  <rect height="19.1504" opacity="0" width="19.1602" x="0" y="0"/>
  <path d="M9.57031 19.1504Q11.5527 19.1504 13.2861 18.4082Q15.0195 17.666 16.3379 16.3428Q17.6562 15.0195 18.4082 13.2861Q19.1602 11.5527 19.1602 9.58008Q19.1602 7.60742 18.4082 5.87402Q17.6562 4.14062 16.3379 2.81738Q15.0195 1.49414 13.2861 0.751953Q11.5527 0.00976562 9.57031 0.00976562Q7.59766 0.00976562 5.86426 0.751953Q4.13086 1.49414 2.81738 2.81738Q1.50391 4.14062 0.751953 5.87402Q0 7.60742 0 9.58008Q0 11.5527 0.74707 13.2861Q1.49414 15.0195 2.8125 16.3428Q4.13086 17.666 5.86914 18.4082Q7.60742 19.1504 9.57031 19.1504Z" fill="#0a84ff"/>
  <path d="M7.87109 9.63867L4.39453 13.1055Q4.31641 12.998 4.27246 12.8125Q4.22852 12.627 4.22852 12.3633L4.22852 6.79688Q4.22852 6.29883 4.3457 6.11328ZM9.59961 10.2832Q9.46289 10.2832 9.30664 10.2148Q9.15039 10.1465 9.01367 10.0293L4.6875 5.68359Q4.76562 5.58594 4.99023 5.51758Q5.21484 5.44922 5.55664 5.44922L13.6523 5.44922Q13.9941 5.44922 14.2139 5.51758Q14.4336 5.58594 14.5215 5.68359L10.1855 10.0293Q9.92188 10.2832 9.59961 10.2832ZM11.2695 9.63867L14.8047 6.11328Q14.9121 6.29883 14.9121 6.79688L14.9121 12.3633Q14.9121 12.627 14.873 12.8125Q14.834 12.998 14.7461 13.1055ZM9.59961 10.7715Q10.0781 10.7715 10.4883 10.3809L10.918 9.98047L14.4531 13.5156Q14.2871 13.7109 13.6523 13.7109L5.55664 13.7109Q4.92188 13.7109 4.74609 13.5156L8.28125 9.98047L8.71094 10.3809Q9.12109 10.7715 9.59961 10.7715Z" fill="#ffffff"/>
 </g>
</svg>
