<?xml version="1.0" encoding="UTF-8"?>
<!--Generator: Apple Native CoreSVG 175-->
<!DOCTYPE svg
PUBLIC "-//W3C//DTD SVG 1.1//EN"
       "http://www.w3.org/Graphics/SVG/1.1/DTD/svg11.dtd">
<svg version="1.1" xmlns="http://www.w3.org/2000/svg" xmlns:xlink="http://www.w3.org/1999/xlink" width="17.2852" height="17.3145">
 <g>
  <rect height="17.3145" opacity="0" width="17.2852" x="0" y="0"/>
  <path d="M2.62695 17.3145L14.6484 17.3145Q15.957 17.3145 16.6211 16.6455Q17.2852 15.9766 17.2852 14.6875L17.2852 2.65625Q17.2852 1.37695 16.6211 0.703125Q15.957 0.0292969 14.6484 0.0292969L2.62695 0.0292969Q1.33789 0.0292969 0.668945 0.693359Q0 1.35742 0 2.65625L0 14.6875Q0 15.9863 0.668945 16.6504Q1.33789 17.3145 2.62695 17.3145ZM2.65625 16.5918Q1.70898 16.5918 1.2207 16.1035Q0.732422 15.6152 0.732422 14.6582L0.732422 2.69531Q0.732422 1.72852 1.2207 1.24512Q1.70898 0.761719 2.65625 0.761719L14.6289 0.761719Q15.5566 0.761719 16.0596 1.24512Q16.5625 1.72852 16.5625 2.69531L16.5625 14.6582Q16.5625 15.6152 16.0596 16.1035Q15.5566 16.5918 14.6289 16.5918ZM4.58984 10.7422L12.6855 10.7422Q12.8516 10.7422 12.959 10.6494Q13.0664 10.5566 13.0664 10.3906Q13.0664 10.2246 12.9639 10.1318Q12.8613 10.0391 12.6855 10.0391L4.58984 10.0391Q4.42383 10.0391 4.31641 10.1318Q4.20898 10.2246 4.20898 10.3906Q4.20898 10.5566 4.31641 10.6494Q4.42383 10.7422 4.58984 10.7422ZM4.58984 7.29492L12.6855 7.29492Q12.8516 7.29492 12.959 7.19727Q13.0664 7.09961 13.0664 6.93359Q13.0664 6.76758 12.9639 6.6748Q12.8613 6.58203 12.6855 6.58203L4.58984 6.58203Q4.42383 6.58203 4.31641 6.6748Q4.20898 6.76758 4.20898 6.93359Q4.20898 7.09961 4.31641 7.19727Q4.42383 7.29492 4.58984 7.29492Z" fill="#000000"/>
 </g>
</svg>
