<?xml version="1.0" encoding="UTF-8"?>
<!--Generator: Apple Native CoreSVG 175-->
<!DOCTYPE svg
PUBLIC "-//W3C//DTD SVG 1.1//EN"
       "http://www.w3.org/Graphics/SVG/1.1/DTD/svg11.dtd">
<svg version="1.1" xmlns="http://www.w3.org/2000/svg" xmlns:xlink="http://www.w3.org/1999/xlink" width="12.8415" height="6.81458">
 <g>
  <rect height="6.81458" opacity="0" width="12.8415" x="0" y="0"/>
  <path d="M0.377045 0.797272L12.4644 0.797272Q12.5653 0.797272 12.6516 0.742035Q12.7379 0.686798 12.7897 0.600433Q12.8415 0.514069 12.8415 0.410614Q12.8415 0.309753 12.7897 0.222092Q12.7379 0.13443 12.6516 0.0839996Q12.5653 0.0335693 12.4644 0.0335693L0.377045 0.0335693Q0.276184 0.0335693 0.189819 0.0839996Q0.103455 0.13443 0.0517273 0.222092Q0 0.309753 0 0.410614Q0 0.514069 0.0517273 0.600433Q0.103455 0.686798 0.189819 0.742035Q0.276184 0.797272 0.377045 0.797272ZM0.377045 6.81458L12.4644 6.81458Q12.5653 6.81458 12.6516 6.76414Q12.7379 6.71371 12.7897 6.62605Q12.8415 6.53839 12.8415 6.43753Q12.8415 6.33408 12.7897 6.24771Q12.7379 6.16135 12.6516 6.10611Q12.5653 6.05087 12.4644 6.05087L0.377045 6.05087Q0.276184 6.05087 0.189819 6.10611Q0.103455 6.16135 0.0517273 6.24771Q0 6.33408 0 6.43753Q0 6.53839 0.0517273 6.62605Q0.103455 6.71371 0.189819 6.76414Q0.276184 6.81458 0.377045 6.81458Z" fill="#ffffff"/>
 </g>
</svg>
