<?xml version="1.0" encoding="UTF-8"?>
<!--Generator: Apple Native CoreSVG 175.5-->
<!DOCTYPE svg
PUBLIC "-//W3C//DTD SVG 1.1//EN"
       "http://www.w3.org/Graphics/SVG/1.1/DTD/svg11.dtd">
<svg version="1.1" xmlns="http://www.w3.org/2000/svg" xmlns:xlink="http://www.w3.org/1999/xlink" width="19.9121" height="19.9153">
 <g>
  <rect height="19.9153" opacity="0" width="19.9121" x="0" y="0"/>
  <path d="M9.95117 19.9137Q11.9922 19.9137 13.7939 19.1325Q15.5957 18.3512 16.9727 16.9743Q18.3496 15.5973 19.1309 13.7955Q19.9121 11.9938 19.9121 9.95277Q19.9121 7.91175 19.1455 6.12464Q18.3789 4.33753 17.0264 2.98011Q15.6738 1.62269 13.9209 0.836555Q12.168 0.0504225 10.1953 0.00159439Q9.77539-0.0179369 9.4873 0.20179Q9.19922 0.421516 9.19922 0.79261Q9.19922 1.12464 9.42871 1.37366Q9.6582 1.62269 10.0781 1.64222Q11.7969 1.69105 13.2812 2.34534Q14.7656 2.99964 15.8789 4.12269Q16.9922 5.24574 17.6221 6.73499Q18.252 8.22425 18.252 9.95277Q18.252 11.6813 17.6123 13.1852Q16.9727 14.6891 15.835 15.8268Q14.6973 16.9645 13.1885 17.609Q11.6797 18.2535 9.95117 18.2535Q8.1543 18.2535 6.63574 17.5846Q5.11719 16.9157 4.00391 15.7535Q2.89062 14.5914 2.27539 13.0875Q1.66016 11.5836 1.66016 9.92347Q1.66016 9.49378 1.40137 9.26917Q1.14258 9.04456 0.810547 9.04456Q0.439453 9.04456 0.219727 9.32777Q0 9.61097 0 10.0407Q0 12.0426 0.78125 13.8248Q1.5625 15.6071 2.93457 16.9791Q4.30664 18.3512 6.1084 19.1325Q7.91016 19.9137 9.95117 19.9137Z" fill="#007aff"/>
  <path d="M9.23828 10.3239Q9.60938 10.3239 9.85352 10.0748Q10.0977 9.82581 10.0977 9.46449Q10.0977 9.11292 9.82422 8.82972L4.72656 3.74183L2.85156 2.07191Q3.39844 2.14027 3.98438 2.16468Q4.57031 2.18909 5.05859 2.19398Q5.54688 2.19886 5.78125 2.19886Q6.11328 2.19886 6.34277 1.96449Q6.57227 1.73011 6.57227 1.39808Q6.57227 1.06605 6.34277 0.836555Q6.11328 0.607063 5.78125 0.607063L1.39648 0.607063Q0.400391 0.607063 0.400391 1.59339L0.400391 5.97816Q0.400391 6.31019 0.634766 6.53968Q0.869141 6.76917 1.19141 6.76917Q1.51367 6.76917 1.74316 6.53968Q1.97266 6.31019 1.97266 5.97816Q1.97266 5.75355 1.96777 5.24574Q1.96289 4.73792 1.94336 4.1471Q1.92383 3.55628 1.875 3.04847L3.52539 4.93324L8.62305 10.0407Q8.89648 10.3239 9.23828 10.3239Z" fill="#007aff"/>
 </g>
</svg>
