<?xml version="1.0" encoding="UTF-8"?>
<!--Generator: Apple Native CoreSVG 175.5-->
<!DOCTYPE svg
PUBLIC "-//W3C//DTD SVG 1.1//EN"
       "http://www.w3.org/Graphics/SVG/1.1/DTD/svg11.dtd">
<svg version="1.1" xmlns="http://www.w3.org/2000/svg" xmlns:xlink="http://www.w3.org/1999/xlink" width="15.7715" height="18.7012">
 <g>
  <rect height="18.7012" opacity="0" width="15.7715" x="0" y="0"/>
  <path d="M1.39648 13.3203Q1.78711 13.3203 2.03125 13.0859Q2.27539 12.8516 2.27539 12.4512L2.36328 1.07422Q2.36328 1.07422 2.36328 1.07422Q2.36328 1.07422 2.36328 1.07422Q2.36328 0.654297 2.0752 0.395508Q1.78711 0.136719 1.38672 0.136719Q0.996094 0.136719 0.703125 0.395508Q0.410156 0.654297 0.410156 1.07422Q0.410156 1.07422 0.410156 1.07422Q0.410156 1.07422 0.410156 1.07422L0.517578 12.4512Q0.527344 12.8516 0.771484 13.0859Q1.01562 13.3203 1.39648 13.3203ZM1.38672 18.7012Q1.77734 18.7012 2.08984 18.5156Q2.40234 18.3301 2.58789 18.0127Q2.77344 17.6953 2.77344 17.3145Q2.77344 16.9336 2.58789 16.6162Q2.40234 16.2988 2.08984 16.1133Q1.77734 15.9277 1.38672 15.9277Q1.00586 15.9277 0.693359 16.1133Q0.380859 16.2988 0.19043 16.6162Q0 16.9336 0 17.3145Q0 17.6953 0.19043 18.0127Q0.380859 18.3301 0.693359 18.5156Q1.00586 18.7012 1.38672 18.7012ZM10 13.3594Q10.5078 13.3594 10.7471 13.0469Q10.9863 12.7344 10.9863 12.2656Q10.9863 12.1777 10.9863 12.0947Q10.9863 12.0117 10.9863 11.9336Q10.9961 11.2891 11.1816 10.8398Q11.3672 10.3906 11.8115 9.98047Q12.2559 9.57031 13.0371 9.0332Q14.2871 8.18359 15.0293 7.15332Q15.7715 6.12305 15.7715 4.70703Q15.7715 3.24219 15.0537 2.21191Q14.3359 1.18164 13.1201 0.639648Q11.9043 0.0976562 10.4297 0.0976562Q9.32617 0.0976562 8.34473 0.439453Q7.36328 0.78125 6.61621 1.43555Q5.86914 2.08984 5.44922 3.02734Q5.29297 3.36914 5.22461 3.69629Q5.15625 4.02344 5.15625 4.30664Q5.15625 4.72656 5.39551 4.99023Q5.63477 5.25391 6.07422 5.25391Q6.44531 5.25391 6.69434 5.04883Q6.94336 4.84375 7.05078 4.48242Q7.30469 3.55469 7.7832 2.99316Q8.26172 2.43164 8.91602 2.17773Q9.57031 1.92383 10.3613 1.92383Q11.3086 1.92383 12.0801 2.26074Q12.8516 2.59766 13.3008 3.22266Q13.75 3.84766 13.75 4.69727Q13.75 5.40039 13.4814 5.92285Q13.2129 6.44531 12.7344 6.87988Q12.2559 7.31445 11.6309 7.75391Q10.8691 8.29102 10.2686 8.86719Q9.66797 9.44336 9.32129 10.1318Q8.97461 10.8203 8.97461 11.6797Q8.97461 11.8359 8.97461 11.9873Q8.97461 12.1387 8.97461 12.2949Q8.97461 12.7637 9.2334 13.0615Q9.49219 13.3594 10 13.3594ZM10 18.7012Q10.3809 18.7012 10.6982 18.5156Q11.0156 18.3301 11.2012 18.0127Q11.3867 17.6953 11.3867 17.3145Q11.3867 16.9336 11.2012 16.6162Q11.0156 16.2988 10.6982 16.1133Q10.3809 15.9277 10 15.9277Q9.61914 15.9277 9.30176 16.1133Q8.98438 16.2988 8.79883 16.6162Q8.61328 16.9336 8.61328 17.3145Q8.61328 17.6953 8.79883 18.0127Q8.98438 18.3301 9.30176 18.5156Q9.61914 18.7012 10 18.7012Z" fill="#007aff"/>
 </g>
</svg>
