<?xml version="1.0" encoding="UTF-8"?>
<!--Generator: Apple Native CoreSVG 175-->
<!DOCTYPE svg
PUBLIC "-//W3C//DTD SVG 1.1//EN"
       "http://www.w3.org/Graphics/SVG/1.1/DTD/svg11.dtd">
<svg version="1.1" xmlns="http://www.w3.org/2000/svg" xmlns:xlink="http://www.w3.org/1999/xlink" width="19.1602" height="19.1504">
 <g>
  <rect height="19.1504" opacity="0" width="19.1602" x="0" y="0"/>
  <path d="M9.57031 19.1406Q11.5527 19.1406 13.2861 18.3984Q15.0195 17.6562 16.3379 16.333Q17.6562 15.0098 18.4082 13.2764Q19.1602 11.543 19.1602 9.57031Q19.1602 7.59766 18.4082 5.86426Q17.6562 4.13086 16.3379 2.80762Q15.0195 1.48438 13.2861 0.742188Q11.5527 0 9.57031 0Q7.59766 0 5.86426 0.742188Q4.13086 1.48438 2.81738 2.80762Q1.50391 4.13086 0.751953 5.86426Q0 7.59766 0 9.57031Q0 11.543 0.74707 13.2764Q1.49414 15.0098 2.8125 16.333Q4.13086 17.6562 5.86914 18.3984Q7.60742 19.1406 9.57031 19.1406Z" fill="#ff3b30"/>
  <path d="M9.58008 11.3184Q9.17969 11.3184 9.16992 10.8496L9.10156 5.50781Q9.10156 5.29297 9.22852 5.16113Q9.35547 5.0293 9.58008 5.0293Q9.79492 5.0293 9.92676 5.16602Q10.0586 5.30273 10.0586 5.50781L9.98047 10.8496Q9.9707 11.3184 9.58008 11.3184ZM9.58008 14.1699Q9.27734 14.1699 9.06738 13.9551Q8.85742 13.7402 8.85742 13.457Q8.85742 13.1738 9.06738 12.959Q9.27734 12.7441 9.58008 12.7441Q9.87305 12.7441 10.0879 12.9541Q10.3027 13.1641 10.3027 13.457Q10.3027 13.7402 10.0879 13.9551Q9.87305 14.1699 9.58008 14.1699Z" fill="#ffffff"/>
 </g>
</svg>
