<?xml version="1.0" encoding="UTF-8"?>
<!--Generator: Apple Native CoreSVG 175.5-->
<!DOCTYPE svg
PUBLIC "-//W3C//DTD SVG 1.1//EN"
       "http://www.w3.org/Graphics/SVG/1.1/DTD/svg11.dtd">
<svg version="1.1" xmlns="http://www.w3.org/2000/svg" xmlns:xlink="http://www.w3.org/1999/xlink" width="21.5234" height="21.5723">
 <g>
  <rect height="21.5723" opacity="0" width="21.5234" x="0" y="0"/>
  <path d="M5.80078 21.5723Q6.09375 21.5723 6.33301 21.4209Q6.57227 21.2695 6.92383 20.9473L10.4492 17.7246L17.0508 17.7246Q18.5059 17.7246 19.502 17.207Q20.498 16.6895 21.0107 15.6934Q21.5234 14.6973 21.5234 13.2617L21.5234 5.78125Q21.5234 4.3457 21.0107 3.34961Q20.498 2.35352 19.502 1.83105Q18.5059 1.30859 17.0508 1.30859L4.47266 1.30859Q3.01758 1.30859 2.02148 1.83105Q1.02539 2.35352 0.512695 3.34961Q0 4.3457 0 5.78125L0 13.2617Q0 14.6973 0.512695 15.6934Q1.02539 16.6895 2.02148 17.207Q3.01758 17.7246 4.47266 17.7246L4.93164 17.7246L4.93164 20.5664Q4.93164 21.0254 5.15625 21.2988Q5.38086 21.5723 5.80078 21.5723Z" fill="#007aff"/>
  <path d="M10.7715 11.3281Q9.99023 11.3281 9.9707 10.5273L9.84375 5.20508Q9.83398 4.82422 10.0928 4.57031Q10.3516 4.31641 10.7617 4.31641Q11.1621 4.31641 11.4307 4.5752Q11.6992 4.83398 11.6895 5.21484L11.543 10.5273Q11.5332 11.3281 10.7715 11.3281ZM10.7715 14.5996Q10.332 14.5996 10.0049 14.2969Q9.67773 13.9941 9.67773 13.5547Q9.67773 13.125 10 12.8125Q10.3223 12.5 10.7715 12.5Q11.2109 12.5 11.5381 12.8076Q11.8652 13.1152 11.8652 13.5547Q11.8652 13.9941 11.5381 14.2969Q11.2109 14.5996 10.7715 14.5996Z" fill="#ffffff"/>
 </g>
</svg>
