<?xml version="1.0" encoding="UTF-8"?>
<!--Generator: Apple Native CoreSVG 175.5-->
<!DOCTYPE svg
PUBLIC "-//W3C//DTD SVG 1.1//EN"
       "http://www.w3.org/Graphics/SVG/1.1/DTD/svg11.dtd">
<svg version="1.1" xmlns="http://www.w3.org/2000/svg" xmlns:xlink="http://www.w3.org/1999/xlink" width="20.0684" height="19.3262">
 <g>
  <rect height="19.3262" opacity="0" width="20.0684" x="0" y="0"/>
  <path d="M7.07031 19.3164L12.998 19.3164Q13.6133 19.3164 14.0479 19.1895Q14.4824 19.0625 14.8145 18.8135Q15.1465 18.5645 15.4688 18.2227L19.2578 14.043Q19.5801 13.6914 19.7559 13.3838Q19.9316 13.0762 20 12.7295Q20.0684 12.3828 20.0684 11.8945L20.0684 7.43164Q20.0684 6.94336 20 6.5918Q19.9316 6.24023 19.7559 5.9375Q19.5801 5.63477 19.2578 5.2832L15.4688 1.10352Q15.1465 0.751953 14.8145 0.507812Q14.4824 0.263672 14.0479 0.131836Q13.6133 0 12.998 0L7.07031 0Q6.44531 0 6.01562 0.131836Q5.58594 0.263672 5.25391 0.507812Q4.92188 0.751953 4.59961 1.10352L0.810547 5.2832Q0.488281 5.63477 0.3125 5.9375Q0.136719 6.24023 0.0683594 6.5918Q0 6.94336 0 7.43164L0 11.8945Q0 12.3828 0.0683594 12.7295Q0.136719 13.0762 0.3125 13.3838Q0.488281 13.6914 0.810547 14.043L4.59961 18.2227Q4.92188 18.5645 5.25391 18.8135Q5.58594 19.0625 6.01562 19.1895Q6.44531 19.3164 7.07031 19.3164Z" fill="#ff453a"/>
  <path d="M10.0391 11.4746Q9.25781 11.4746 9.23828 10.6738L9.11133 5.35156Q9.10156 4.9707 9.36035 4.7168Q9.61914 4.46289 10.0293 4.46289Q10.4297 4.46289 10.6982 4.72168Q10.9668 4.98047 10.957 5.36133L10.8105 10.6738Q10.8008 11.4746 10.0391 11.4746ZM10.0391 14.7461Q9.59961 14.7461 9.27246 14.4434Q8.94531 14.1406 8.94531 13.7012Q8.94531 13.2715 9.26758 12.959Q9.58984 12.6465 10.0391 12.6465Q10.4785 12.6465 10.8057 12.9541Q11.1328 13.2617 11.1328 13.7012Q11.1328 14.1406 10.8057 14.4434Q10.4785 14.7461 10.0391 14.7461Z" fill="#ffffff"/>
 </g>
</svg>
