<?xml version="1.0" encoding="UTF-8"?>
<!--Generator: Apple Native CoreSVG 175.5-->
<!DOCTYPE svg
PUBLIC "-//W3C//DTD SVG 1.1//EN"
       "http://www.w3.org/Graphics/SVG/1.1/DTD/svg11.dtd">
<svg version="1.1" xmlns="http://www.w3.org/2000/svg" xmlns:xlink="http://www.w3.org/1999/xlink" width="26.6895" height="18.2815">
 <g>
  <rect height="18.2815" opacity="0" width="26.6895" x="0" y="0"/>
  <path d="M13.3496 17.5148Q14.707 17.5148 15.957 17.2901Q17.207 17.0655 18.3398 16.6749L17.0605 15.3956Q16.1914 15.6593 15.2637 15.8155Q14.3359 15.9718 13.3496 15.9718Q11.7383 15.9718 10.2539 15.5714Q8.76953 15.171 7.4707 14.5118Q6.17188 13.8526 5.11719 13.0714Q4.0625 12.2901 3.2959 11.5235Q2.5293 10.7569 2.11914 10.1222Q1.70898 9.48741 1.70898 9.14561Q1.70898 8.89171 2.03613 8.37413Q2.36328 7.85655 2.97363 7.19249Q3.58398 6.52842 4.44824 5.81553Q5.3125 5.10264 6.39648 4.45811L5.18555 3.24717Q3.96484 3.99913 3.00293 4.84385Q2.04102 5.68858 1.37207 6.50889Q0.703125 7.32921 0.351562 8.01768Q0 8.70616 0 9.14561Q0 9.64366 0.444336 10.4493Q0.888672 11.255 1.72852 12.1974Q2.56836 13.1398 3.75 14.0773Q4.93164 15.0148 6.4209 15.7911Q7.91016 16.5675 9.65332 17.0411Q11.3965 17.5148 13.3496 17.5148ZM13.3496 0.776471Q12.0703 0.776471 10.9131 0.981549Q9.75586 1.18663 8.67188 1.54796L9.96094 2.82725Q10.7715 2.59288 11.6064 2.45616Q12.4414 2.31944 13.3496 2.31944Q14.9512 2.31944 16.4355 2.73448Q17.9199 3.14952 19.2188 3.82823Q20.5176 4.50694 21.5723 5.29796Q22.627 6.08897 23.3887 6.86534Q24.1504 7.64171 24.5654 8.24717Q24.9805 8.85264 24.9805 9.14561Q24.9805 9.44835 24.6729 9.96104Q24.3652 10.4737 23.7842 11.1134Q23.2031 11.753 22.3926 12.4269Q21.582 13.1007 20.5664 13.7257L21.7676 14.9269Q22.9199 14.1749 23.833 13.3448Q24.7461 12.5148 25.3809 11.7189Q26.0156 10.923 26.3525 10.2491Q26.6895 9.5753 26.6895 9.14561Q26.6895 8.64756 26.25 7.8419Q25.8105 7.03624 24.9805 6.09385Q24.1504 5.15147 22.9736 4.21397Q21.7969 3.27647 20.3125 2.5001Q18.8281 1.72374 17.0752 1.2501Q15.3223 0.776471 13.3496 0.776471ZM13.3496 14.6144Q13.9941 14.6144 14.5947 14.463Q15.1953 14.3116 15.7422 14.048L8.41797 6.72374Q8.14453 7.27061 7.99805 7.88096Q7.85156 8.49131 7.85156 9.14561Q7.86133 10.2589 8.28125 11.2501Q8.70117 12.2413 9.45312 12.9982Q10.2051 13.755 11.2012 14.1847Q12.1973 14.6144 13.3496 14.6144ZM18.3594 11.2843Q18.584 10.796 18.7061 10.254Q18.8281 9.71202 18.8281 9.14561Q18.8281 8.00303 18.4033 7.00694Q17.9785 6.01085 17.2266 5.26378Q16.4746 4.51671 15.4785 4.09678Q14.4824 3.67686 13.3496 3.67686Q12.7734 3.67686 12.2314 3.79405Q11.6895 3.91124 11.2012 4.12608Z" fill="#007aff"/>
  <path d="M20.9473 17.6026Q21.1719 17.8273 21.4795 17.837Q21.7871 17.8468 22.0117 17.6026Q22.2559 17.3585 22.2461 17.0607Q22.2363 16.7628 22.0117 16.5382L5.68359 0.21983Q5.46875 0.0049867 5.15137 0.00010389Q4.83398-0.00477892 4.60938 0.21983Q4.39453 0.434674 4.39453 0.752057Q4.39453 1.06944 4.60938 1.28428Z" fill="#007aff"/>
 </g>
</svg>
