<?xml version="1.0" encoding="UTF-8"?>
<!--Generator: Apple Native CoreSVG 175-->
<!DOCTYPE svg
PUBLIC "-//W3C//DTD SVG 1.1//EN"
       "http://www.w3.org/Graphics/SVG/1.1/DTD/svg11.dtd">
<svg version="1.1" xmlns="http://www.w3.org/2000/svg" xmlns:xlink="http://www.w3.org/1999/xlink" width="17.2852" height="17.3145">
 <g>
  <rect height="17.3145" opacity="0" width="17.2852" x="0" y="0"/>
  <path d="M2.62695 17.3145L14.6484 17.3145Q15.957 17.3145 16.6211 16.6455Q17.2852 15.9766 17.2852 14.6875L17.2852 2.65625Q17.2852 1.37695 16.6211 0.703125Q15.957 0.0292969 14.6484 0.0292969L2.62695 0.0292969Q1.33789 0.0292969 0.668945 0.693359Q0 1.35742 0 2.65625L0 14.6875Q0 15.9863 0.668945 16.6504Q1.33789 17.3145 2.62695 17.3145ZM8.64258 12.9297Q7.4707 12.9297 6.4502 12.5879Q5.42969 12.2461 4.59961 11.7139Q3.76953 11.1816 3.16895 10.5859Q2.56836 9.99023 2.24609 9.46777Q1.92383 8.94531 1.92383 8.64258Q1.92383 8.33984 2.24121 7.82227Q2.55859 7.30469 3.14453 6.70898Q3.73047 6.11328 4.56055 5.57617Q5.39062 5.03906 6.4209 4.69727Q7.45117 4.35547 8.64258 4.35547Q9.80469 4.35547 10.8252 4.69727Q11.8457 5.03906 12.6807 5.57617Q13.5156 6.11328 14.1162 6.70898Q14.7168 7.30469 15.0391 7.82227Q15.3613 8.33984 15.3613 8.64258Q15.3613 8.94531 15.0391 9.46777Q14.7168 9.99023 14.1162 10.5859Q13.5156 11.1816 12.6855 11.7139Q11.8555 12.2461 10.8301 12.5879Q9.80469 12.9297 8.64258 12.9297ZM8.64258 11.4648Q9.41406 11.4648 10.0586 11.0791Q10.7031 10.6934 11.0889 10.0537Q11.4746 9.41406 11.4746 8.64258Q11.4746 7.86133 11.0889 7.22168Q10.7031 6.58203 10.0586 6.20117Q9.41406 5.82031 8.64258 5.82031Q7.86133 5.82031 7.2168 6.20117Q6.57227 6.58203 6.18652 7.22168Q5.80078 7.86133 5.80078 8.64258Q5.81055 9.41406 6.19629 10.0537Q6.58203 10.6934 7.22168 11.0791Q7.86133 11.4648 8.64258 11.4648ZM8.65234 9.69727Q8.21289 9.69727 7.89551 9.38477Q7.57812 9.07227 7.57812 8.64258Q7.57812 8.21289 7.89551 7.90039Q8.21289 7.58789 8.65234 7.58789Q9.08203 7.58789 9.39453 7.90039Q9.70703 8.21289 9.70703 8.64258Q9.70703 9.07227 9.39453 9.38477Q9.08203 9.69727 8.65234 9.69727Z" fill="#000000"/>
 </g>
</svg>
