<?xml version="1.0" encoding="UTF-8"?>
<!--Generator: Apple Native CoreSVG 175-->
<!DOCTYPE svg
PUBLIC "-//W3C//DTD SVG 1.1//EN"
       "http://www.w3.org/Graphics/SVG/1.1/DTD/svg11.dtd">
<svg version="1.1" xmlns="http://www.w3.org/2000/svg" xmlns:xlink="http://www.w3.org/1999/xlink" width="25.5664" height="17.8432">
 <g>
  <rect height="17.8432" opacity="0" width="25.5664" x="0" y="0"/>
  <path d="M12.793 17.0808Q14.2578 17.0808 15.6006 16.7878Q16.9434 16.4948 18.1152 15.987L15.5859 13.4773Q14.9707 13.8581 14.2627 14.0681Q13.5547 14.278 12.793 14.278Q11.6699 14.278 10.6982 13.863Q9.72656 13.448 8.98926 12.7058Q8.25195 11.9636 7.83691 10.9919Q7.42188 10.0202 7.40234 8.92648Q7.39258 8.14523 7.60742 7.42746Q7.82227 6.70968 8.21289 6.09445L5.20508 2.98898Q3.98438 3.73117 3.02246 4.57589Q2.06055 5.42062 1.38672 6.25558Q0.712891 7.09054 0.356445 7.78878Q0 8.48703 0 8.92648Q0 9.40499 0.429688 10.1862Q0.859375 10.9675 1.66992 11.8855Q2.48047 12.8034 3.61816 13.7165Q4.75586 14.6296 6.18164 15.3913Q7.60742 16.153 9.27246 16.6169Q10.9375 17.0808 12.793 17.0808ZM20.3516 14.8542Q21.9629 13.8581 23.1348 12.7009Q24.3066 11.5437 24.9365 10.528Q25.5664 9.51242 25.5664 8.92648Q25.5664 8.44796 25.1367 7.66671Q24.707 6.88546 23.8965 5.96749Q23.0859 5.04953 21.9482 4.13644Q20.8105 3.22335 19.3848 2.46164Q17.959 1.69992 16.2988 1.23605Q14.6387 0.772182 12.793 0.772182Q11.3574 0.772182 10.0342 1.0505Q8.71094 1.32882 7.51953 1.8171L10.0586 4.32687Q10.6445 3.97531 11.3428 3.77511Q12.041 3.57492 12.793 3.57492Q13.8965 3.57492 14.8682 3.98507Q15.8398 4.39523 16.582 5.13253Q17.3242 5.86984 17.749 6.84152Q18.1738 7.8132 18.1738 8.92648Q18.1738 9.66867 17.9639 10.362Q17.7539 11.0554 17.373 11.6511ZM10.6641 8.88742Q10.6641 9.48312 10.9521 9.95675Q11.2402 10.4304 11.7188 10.7087Q12.1973 10.987 12.793 10.987Q12.8613 10.987 12.9395 10.987Q13.0176 10.987 13.0957 10.9773L10.6934 8.57492Q10.6836 8.65304 10.6738 8.73117Q10.6641 8.80929 10.6641 8.88742ZM14.9219 8.88742Q14.9219 8.29171 14.6387 7.81808Q14.3555 7.34445 13.8721 7.06613Q13.3887 6.78781 12.8027 6.78781Q12.7246 6.78781 12.6514 6.78781Q12.5781 6.78781 12.5 6.79757L14.8926 9.19015Q14.9023 9.12179 14.9121 9.04367Q14.9219 8.96554 14.9219 8.88742ZM20.8105 17.4128Q20.918 17.5202 21.0645 17.5202Q21.2109 17.5202 21.3184 17.4128Q21.4355 17.2956 21.4307 17.154Q21.4258 17.0124 21.3184 16.905L4.52148 0.117885Q4.43359 0.0104632 4.27734 0.000697545Q4.12109-0.00906808 4.01367 0.117885Q3.90625 0.215541 3.90625 0.362026Q3.90625 0.50851 4.01367 0.625698Z" fill="#000000"/>
 </g>
</svg>
