<?xml version="1.0" encoding="UTF-8"?>
<!--Generator: Apple Native CoreSVG 175-->
<!DOCTYPE svg
PUBLIC "-//W3C//DTD SVG 1.1//EN"
       "http://www.w3.org/Graphics/SVG/1.1/DTD/svg11.dtd">
<svg version="1.1" xmlns="http://www.w3.org/2000/svg" xmlns:xlink="http://www.w3.org/1999/xlink" width="21.2907" height="17.0511">
 <g>
  <rect height="17.0511" opacity="0" width="21.2907" x="0" y="0"/>
  <path d="M4.88983 17.0511Q5.91599 17.0511 6.80489 16.4198Q7.69379 15.7886 8.36723 14.6441Q9.04068 13.4996 9.4178 11.9375Q9.79492 10.3754 9.79492 8.52066Q9.79492 6.65894 9.42131 5.1017Q9.0477 3.54446 8.37425 2.40349Q7.70081 1.26251 6.8119 0.631256Q5.923 0 4.88983 0Q3.57895 0 2.49962 1.00952Q1.42029 2.01904 0.75386 3.79936Q0.0874329 5.57968 0 7.90497Q0.285492 7.23114 0.88295 6.84677Q1.48041 6.4624 2.2934 6.4624Q3.43903 6.4624 4.13322 7.19345Q4.82742 7.9245 4.82742 9.11636Q4.82742 10.3207 4.13322 11.0553Q3.43903 11.7899 2.2934 11.7899Q1.55701 11.7899 0.995102 11.4716Q0.433197 11.1534 0.118408 10.5898Q0.371857 12.5163 1.05644 13.9695Q1.74103 15.4227 2.72972 16.2369Q3.71841 17.0511 4.88983 17.0511ZM1.52771 8.88428Q1.77032 8.92609 1.9725 8.73863Q2.17468 8.55118 2.22885 8.24722Q2.29019 7.95029 2.16133 7.70149Q2.03247 7.4527 1.78009 7.40387Q1.54022 7.35504 1.334 7.54608Q1.12778 7.73712 1.06918 8.04092Q1.00357 8.34763 1.14082 8.59505Q1.27808 8.84247 1.52771 8.88428ZM16.3786 17.0511Q17.4091 17.0511 18.2993 16.4198Q19.1895 15.7886 19.8629 14.6441Q20.5363 13.4996 20.9135 11.941Q21.2907 10.3824 21.2907 8.52066Q21.2907 6.65894 20.9135 5.1017Q20.5363 3.54446 19.8629 2.40349Q19.1895 1.26251 18.2993 0.631256Q17.4091 0 16.3786 0Q15.0648 0 13.9905 1.00952Q12.9161 2.01904 12.2448 3.79936Q11.5735 5.57968 11.4886 7.90497Q11.7743 7.23114 12.3717 6.84677Q12.9692 6.4624 13.7863 6.4624Q14.9251 6.4624 15.6206 7.19345Q16.3161 7.9245 16.3161 9.11636Q16.3161 10.3207 15.6206 11.0553Q14.9251 11.7899 13.7863 11.7899Q13.0431 11.7899 12.4825 11.4716Q11.9218 11.1534 11.6071 10.5898Q11.8677 12.5163 12.5473 13.9695Q13.2269 15.4227 14.2156 16.2369Q15.2043 17.0511 16.3786 17.0511ZM13.0165 8.88428Q13.2562 8.92609 13.4598 8.73863Q13.6633 8.55118 13.7177 8.24722Q13.7762 7.95029 13.6487 7.70012Q13.5211 7.44995 13.2687 7.40387Q13.036 7.35504 12.8262 7.54608Q12.6164 7.73712 12.5578 8.04092Q12.4922 8.34763 12.6282 8.59726Q12.7641 8.84689 13.0165 8.88428Z" fill="#007aff"/>
 </g>
</svg>
