<?xml version="1.0" encoding="UTF-8"?>
<!--Generator: Apple Native CoreSVG 175-->
<!DOCTYPE svg
PUBLIC "-//W3C//DTD SVG 1.1//EN"
       "http://www.w3.org/Graphics/SVG/1.1/DTD/svg11.dtd">
<svg version="1.1" xmlns="http://www.w3.org/2000/svg" xmlns:xlink="http://www.w3.org/1999/xlink" width="19.1602" height="19.1504">
 <g>
  <rect height="19.1504" opacity="0" width="19.1602" x="0" y="0"/>
  <path d="M9.57031 19.1504Q11.5527 19.1504 13.2861 18.4082Q15.0195 17.666 16.3379 16.3428Q17.6562 15.0195 18.4082 13.2861Q19.1602 11.5527 19.1602 9.58008Q19.1602 7.60742 18.4082 5.87402Q17.6562 4.14062 16.3379 2.81738Q15.0195 1.49414 13.2861 0.751953Q11.5527 0.00976562 9.57031 0.00976562Q7.59766 0.00976562 5.86426 0.751953Q4.13086 1.49414 2.81738 2.81738Q1.50391 4.14062 0.751953 5.87402Q0 7.60742 0 9.58008Q0 11.5527 0.74707 13.2861Q1.49414 15.0195 2.8125 16.3428Q4.13086 17.666 5.86914 18.4082Q7.60742 19.1504 9.57031 19.1504Z" fill="#ffffff"/>
  <path d="M7.40234 14.0039Q7.22656 14.0039 7.12402 13.8916Q7.02148 13.7793 7.02148 13.6035L7.02148 5.625Q7.02148 5.43945 7.10938 5.32227Q7.19727 5.20508 7.37305 5.20508L12.0898 5.20508Q12.2559 5.20508 12.3438 5.30273Q12.4316 5.40039 12.4316 5.54688Q12.4316 5.68359 12.3438 5.78125Q12.2559 5.87891 12.0898 5.87891L7.77344 5.87891L7.77344 9.23828L11.7383 9.23828Q11.9043 9.23828 11.9873 9.33105Q12.0703 9.42383 12.0703 9.57031Q12.0703 9.7168 11.9873 9.80957Q11.9043 9.90234 11.7383 9.90234L7.77344 9.90234L7.77344 13.6035Q7.77344 13.7891 7.6709 13.8965Q7.56836 14.0039 7.40234 14.0039Z" fill="#ffffff"/>
 </g>
</svg>
