<?xml version="1.0" encoding="UTF-8"?>
<!--Generator: Apple Native CoreSVG 175-->
<!DOCTYPE svg
PUBLIC "-//W3C//DTD SVG 1.1//EN"
       "http://www.w3.org/Graphics/SVG/1.1/DTD/svg11.dtd">
<svg version="1.1" xmlns="http://www.w3.org/2000/svg" xmlns:xlink="http://www.w3.org/1999/xlink" width="17.2852" height="17.3145">
 <g>
  <rect height="17.3145" opacity="0" width="17.2852" x="0" y="0"/>
  <path d="M2.62695 17.3145L14.6484 17.3145Q15.957 17.3145 16.6211 16.6455Q17.2852 15.9766 17.2852 14.6875L17.2852 2.65625Q17.2852 1.37695 16.6211 0.703125Q15.957 0.0292969 14.6484 0.0292969L2.62695 0.0292969Q1.33789 0.0292969 0.668945 0.693359Q0 1.35742 0 2.65625L0 14.6875Q0 15.9863 0.668945 16.6504Q1.33789 17.3145 2.62695 17.3145ZM2.65625 16.5918Q1.70898 16.5918 1.2207 16.1035Q0.732422 15.6152 0.732422 14.6582L0.732422 2.69531Q0.732422 1.72852 1.2207 1.24512Q1.70898 0.761719 2.65625 0.761719L14.6289 0.761719Q15.5566 0.761719 16.0596 1.24512Q16.5625 1.72852 16.5625 2.69531L16.5625 14.6582Q16.5625 15.6152 16.0596 16.1035Q15.5566 16.5918 14.6289 16.5918ZM6.48438 13.0469Q6.66016 13.0469 6.75781 12.9395Q6.85547 12.832 6.85547 12.6562L6.85547 8.96484L10.791 8.96484Q10.9473 8.96484 11.0352 8.87207Q11.123 8.7793 11.123 8.64258Q11.123 8.50586 11.0352 8.4082Q10.9473 8.31055 10.791 8.31055L6.85547 8.31055L6.85547 4.98047L11.1523 4.98047Q11.3086 4.98047 11.3965 4.87793Q11.4844 4.77539 11.4844 4.63867Q11.4844 4.49219 11.3965 4.39941Q11.3086 4.30664 11.1523 4.30664L6.45508 4.30664Q6.28906 4.30664 6.20117 4.42383Q6.11328 4.54102 6.11328 4.72656L6.11328 12.6562Q6.11328 12.8223 6.21094 12.9346Q6.30859 13.0469 6.48438 13.0469Z" fill="#000000"/>
 </g>
</svg>
