<?xml version="1.0" encoding="UTF-8"?>
<!--Generator: Apple Native CoreSVG 175-->
<!DOCTYPE svg
PUBLIC "-//W3C//DTD SVG 1.1//EN"
       "http://www.w3.org/Graphics/SVG/1.1/DTD/svg11.dtd">
<svg version="1.1" xmlns="http://www.w3.org/2000/svg" xmlns:xlink="http://www.w3.org/1999/xlink" width="27.702" height="13.5754">
 <g>
  <rect height="13.5754" opacity="0" width="27.702" x="0" y="0"/>
  <path d="M13.8489 13.5742Q15.9114 13.5742 17.5999 13.216Q19.2883 12.8578 20.5124 12.1944Q21.7365 11.5309 22.4007 10.611Q23.0649 9.69101 23.0649 8.5704L23.0649 4.20074Q23.0649 2.9187 21.9315 1.97479Q20.7982 1.03088 18.7283 0.515442Q16.6583 0 13.8489 0Q11.0394 0 8.96812 0.515442Q6.89682 1.03088 5.76347 1.97479Q4.63013 2.9187 4.63013 4.20074L4.63013 8.5704Q4.63013 9.69101 5.29083 10.611Q5.95154 11.5309 7.1756 12.1944Q8.39966 12.8578 10.0951 13.216Q11.7906 13.5742 13.8489 13.5742ZM9.245 4.79294Q9.245 4.65073 9.35066 4.53804Q9.45633 4.42535 9.61258 4.42535L18.0992 4.42535Q18.2582 4.42535 18.371 4.53804Q18.4837 4.65073 18.4837 4.79294Q18.4837 4.94492 18.371 5.05409Q18.2582 5.16327 18.0992 5.16327L9.61258 5.16327Q9.45633 5.16327 9.35066 5.05409Q9.245 4.94492 9.245 4.79294ZM9.245 8.20389Q9.245 8.05191 9.35066 7.93922Q9.45633 7.82654 9.61258 7.82654L18.0992 7.82654Q18.2582 7.82654 18.371 7.93922Q18.4837 8.05191 18.4837 8.20389Q18.4837 8.3461 18.371 8.45879Q18.2582 8.57147 18.0992 8.56445L9.61258 8.56445Q9.45633 8.57147 9.35066 8.45879Q9.245 8.3461 9.245 8.20389ZM0 5.65674Q0 7.08832 0.642548 8.16429Q1.2851 9.24026 2.43927 9.84161Q3.59344 10.443 5.14343 10.443L5.36331 10.443L5.36331 9.72153L4.98718 9.72153Q3.74222 9.72153 2.78053 9.19945Q1.81885 8.67737 1.27373 7.75963Q0.728607 6.84189 0.728607 5.65674Q0.728607 4.71954 1.2645 4.14536Q1.80038 3.57117 2.70126 3.57117L5.23712 3.57117L5.23712 2.84256L2.70126 2.84256Q1.87546 2.84256 1.26801 3.19023Q0.660553 3.5379 0.330276 4.17114Q0 4.80438 0 5.65674ZM27.702 5.65674Q27.702 4.80438 27.3682 4.17114Q27.0345 3.5379 26.4305 3.19023Q25.8266 2.84256 25.0009 2.84256L22.4649 2.84256L22.4649 3.57117L25.0009 3.57117Q25.9016 3.57117 26.4375 4.14536Q26.9734 4.71954 26.9734 5.65674Q26.9734 6.84189 26.4284 7.75963Q25.8833 8.67737 24.9229 9.19945Q23.9626 9.72153 22.7148 9.72153L22.3387 9.72153L22.3387 10.443L22.5613 10.443Q24.1016 10.443 25.2592 9.84161Q26.4169 9.24026 27.0595 8.16429Q27.702 7.08832 27.702 5.65674Z" fill="#007aff"/>
 </g>
</svg>
