<?xml version="1.0" encoding="UTF-8"?>
<!--Generator: Apple Native CoreSVG 175.5-->
<!DOCTYPE svg
PUBLIC "-//W3C//DTD SVG 1.1//EN"
       "http://www.w3.org/Graphics/SVG/1.1/DTD/svg11.dtd">
<svg version="1.1" xmlns="http://www.w3.org/2000/svg" xmlns:xlink="http://www.w3.org/1999/xlink" width="20.8691" height="20.8887">
 <g>
  <rect height="20.8887" opacity="0" width="20.8691" x="0" y="0"/>
  <path d="M0 13.8477Q0 15.0293 0.478516 16.1572Q0.957031 17.2852 1.75781 18.1934Q2.55859 19.1016 3.54004 19.6387Q4.52148 20.1758 5.52734 20.1758Q6.73828 20.1758 7.60742 19.4629Q8.47656 18.75 9.18457 17.3828Q9.89258 16.0156 10.6348 14.0723Q10.6934 14.0723 10.7568 14.0674Q10.8203 14.0625 10.8789 14.0527Q11.0742 14.043 11.2109 14.0039L11.2109 18.1543Q11.2109 19.4922 11.8799 20.1855Q12.5488 20.8789 13.8379 20.8789Q15.0195 20.8789 16.1475 20.4004Q17.2754 19.9219 18.1836 19.1211Q19.0918 18.3203 19.6338 17.3389Q20.1758 16.3574 20.1758 15.3516Q20.1758 14.1309 19.458 13.2666Q18.7402 12.4023 17.3779 11.6895Q16.0156 10.9766 14.0625 10.2441Q14.0625 10.1855 14.0576 10.1221Q14.0527 10.0586 14.043 10Q14.043 9.91211 14.0283 9.8291Q14.0137 9.74609 13.9941 9.6582L18.1543 9.6582Q19.4824 9.6582 20.1758 8.98926Q20.8691 8.32031 20.8691 7.03125Q20.8691 5.84961 20.3906 4.72168Q19.9121 3.59375 19.1113 2.68555Q18.3105 1.77734 17.3291 1.23535Q16.3477 0.693359 15.3418 0.693359Q14.1309 0.693359 13.2617 1.41113Q12.3926 2.12891 11.6797 3.49609Q10.9668 4.86328 10.2344 6.80664Q10.1758 6.80664 10.1123 6.81152Q10.0488 6.81641 9.99023 6.82617Q9.90234 6.83594 9.81934 6.8457Q9.73633 6.85547 9.6582 6.875L9.6582 2.72461Q9.6582 1.38672 8.98926 0.693359Q8.32031 0 7.03125 0Q5.84961 0 4.72168 0.478516Q3.59375 0.957031 2.68555 1.75781Q1.77734 2.55859 1.23535 3.54004Q0.693359 4.52148 0.693359 5.52734Q0.693359 6.73828 1.41113 7.60742Q2.12891 8.47656 3.49121 9.18457Q4.85352 9.89258 6.79688 10.6348Q6.80664 10.7031 6.80664 10.7715Q6.80664 10.8398 6.81641 10.8984Q6.82617 10.9766 6.84082 11.0547Q6.85547 11.1328 6.86523 11.2207L2.71484 11.2207Q1.38672 11.2207 0.693359 11.8896Q0 12.5586 0 13.8477ZM8.17383 10.4395Q8.17383 9.81445 8.47656 9.30176Q8.7793 8.78906 9.29199 8.48145Q9.80469 8.17383 10.4297 8.17383Q11.0547 8.17383 11.5723 8.47656Q12.0898 8.7793 12.3926 9.29688Q12.6953 9.81445 12.6953 10.4395Q12.6953 11.0645 12.3926 11.5771Q12.0898 12.0898 11.5723 12.3975Q11.0547 12.7051 10.4297 12.7051Q9.80469 12.7051 9.29199 12.3975Q8.7793 12.0898 8.47656 11.5771Q8.17383 11.0645 8.17383 10.4395ZM9.0918 10.4395Q9.0918 10.9961 9.47754 11.3818Q9.86328 11.7676 10.4297 11.7676Q10.9863 11.7676 11.3721 11.3818Q11.7578 10.9961 11.7578 10.4395Q11.7578 9.88281 11.3721 9.49219Q10.9863 9.10156 10.4297 9.10156Q9.86328 9.10156 9.47754 9.49219Q9.0918 9.88281 9.0918 10.4395Z" fill="#007aff"/>
 </g>
</svg>
