<?xml version="1.0" encoding="UTF-8"?>
<!--Generator: Apple Native CoreSVG 175-->
<!DOCTYPE svg
PUBLIC "-//W3C//DTD SVG 1.1//EN"
       "http://www.w3.org/Graphics/SVG/1.1/DTD/svg11.dtd">
<svg version="1.1" xmlns="http://www.w3.org/2000/svg" xmlns:xlink="http://www.w3.org/1999/xlink" width="20.1027" height="20.1294">
 <g>
  <rect height="20.1294" opacity="0" width="20.1027" x="0" y="0"/>
  <path d="M0 13.1024Q0 14.2418 0.446854 15.3135Q0.893707 16.3852 1.66641 17.2442Q2.43912 18.1032 3.42056 18.6051Q4.40201 19.1071 5.46402 19.1071Q6.59058 19.1071 7.41753 18.4856Q8.24448 17.8641 8.84003 16.6059Q9.43558 15.3477 9.85428 13.4325Q9.92691 13.4395 9.99397 13.4381Q10.061 13.4367 10.1337 13.434Q10.4204 13.4383 10.7259 13.3781L10.7259 17.6762Q10.7259 18.9017 11.3174 19.5107Q11.909 20.1196 13.0786 20.1196Q14.218 20.1196 15.2932 19.6727Q16.3684 19.2258 17.2239 18.4531Q18.0794 17.6805 18.5827 16.6991Q19.086 15.7176 19.086 14.6555Q19.086 13.5262 18.4666 12.7006Q17.8473 11.875 16.5869 11.2782Q15.3265 10.6813 13.4016 10.2652Q13.4087 10.1926 13.4108 10.1186Q13.4129 10.0446 13.4102 9.97894Q13.4102 9.81369 13.392 9.66393Q13.3739 9.51416 13.3403 9.36996L17.6622 9.36996Q18.8847 9.36996 19.4937 8.77838Q20.1027 8.1868 20.1027 7.01721Q20.1027 5.87784 19.6523 4.80263Q19.202 3.72742 18.4328 2.87193Q17.6637 2.01645 16.6823 1.51314Q15.7008 1.00983 14.6387 1.00983Q13.5051 1.00983 12.6746 1.63269Q11.8442 2.25555 11.2473 3.51723Q10.6503 4.7789 10.2344 6.70822Q10.1617 6.7012 10.0912 6.69907Q10.0208 6.69693 9.94812 6.69968Q9.79691 6.70242 9.65416 6.71921Q9.51141 6.73599 9.37698 6.76254L9.37698 2.44339Q9.37698 1.21796 8.7854 0.608978Q8.19382 0 7.02423 0Q5.87769 0 4.80606 0.44693Q3.73444 0.89386 2.87544 1.66649Q2.01645 2.43912 1.51314 3.41705Q1.00983 4.39499 1.00983 5.46417Q1.00983 6.59073 1.63261 7.41768Q2.2554 8.24463 3.51227 8.83659Q4.76913 9.42856 6.6774 9.85443Q6.67313 9.93683 6.66954 10.0122Q6.66595 10.0876 6.6687 10.1672Q6.67145 10.3157 6.68961 10.4571Q6.70776 10.5984 6.73172 10.7426L2.44064 10.7426Q1.21796 10.7426 0.608978 11.3342Q0 11.9258 0 13.1024ZM7.37228 10.0598Q7.37228 9.32938 7.73125 8.71826Q8.09021 8.10715 8.69781 7.73621Q9.30542 7.36526 10.036 7.36526Q10.7735 7.36526 11.386 7.73132Q11.9984 8.09738 12.3644 8.70987Q12.7304 9.32236 12.7304 10.0598Q12.7304 10.7973 12.3644 11.4014Q11.9984 12.0055 11.386 12.3694Q10.7735 12.7333 10.036 12.7333Q9.30542 12.7333 8.70132 12.3694Q8.09723 12.0055 7.73476 11.4014Q7.37228 10.7973 7.37228 10.0598ZM8.67691 10.0598Q8.67691 10.6305 9.06975 11.0268Q9.46259 11.423 10.036 11.423Q10.6207 11.423 11.0205 11.0268Q11.4203 10.6305 11.4203 10.0598Q11.4203 9.48212 11.017 9.07738Q10.6137 8.67264 10.036 8.67264Q9.46259 8.67264 9.06975 9.07387Q8.67691 9.4751 8.67691 10.0598Z" fill="#ffffff"/>
 </g>
</svg>
