<?xml version="1.0" encoding="UTF-8"?>
<!--Generator: Apple Native CoreSVG 175-->
<!DOCTYPE svg
PUBLIC "-//W3C//DTD SVG 1.1//EN"
       "http://www.w3.org/Graphics/SVG/1.1/DTD/svg11.dtd">
<svg version="1.1" xmlns="http://www.w3.org/2000/svg" xmlns:xlink="http://www.w3.org/1999/xlink" width="20.9988" height="20.2887">
 <g>
  <rect height="20.2887" opacity="0" width="20.9988" x="0" y="0"/>
  <path d="M3.76877 3.67813L4.50195 3.67813L4.50195 2.20932Q4.50195 1.39725 4.84123 1.05583Q5.18051 0.714417 5.98557 0.714417L15.0133 0.714417Q15.8183 0.714417 16.1611 1.05583Q16.5039 1.39725 16.5039 2.20932L16.5039 3.67264L17.2371 3.67264L17.2371 2.23251Q17.2371 1.08093 16.6901 0.550461Q16.143 0.019989 15.0078 0.019989L5.99106 0.019989Q4.87076 0.019989 4.31976 0.550461Q3.76877 1.08093 3.76877 2.23251ZM2.45316 17.318L4.18289 17.318L4.18289 16.6098L2.44766 16.6098Q1.56143 16.6098 1.15341 16.2004Q0.745392 15.791 0.745392 14.9004L0.745392 5.68085Q0.745392 4.79019 1.15341 4.38087Q1.56143 3.97156 2.44766 3.97156L18.5539 3.97156Q19.4446 3.97156 19.8504 4.38087Q20.2562 4.79019 20.2562 5.68085L20.2562 14.9004Q20.2562 15.791 19.8504 16.2004Q19.4446 16.6098 18.5539 16.6098L16.7911 16.6098L16.7911 17.318L18.5484 17.318Q19.7704 17.318 20.3846 16.7127Q20.9988 16.1075 20.9988 14.8856L20.9988 5.69565Q20.9988 4.47388 20.3846 3.86856Q19.7704 3.26324 18.5484 3.26324L2.45316 3.26324Q1.24344 3.26324 0.621719 3.86856Q0 4.47388 0 5.69565L0 14.8856Q0 16.1075 0.615616 16.7127Q1.23123 17.318 2.45316 17.318ZM5.81482 20.2887L15.184 20.2887Q16.2242 20.2887 16.7211 19.8008Q17.218 19.3129 17.218 18.2617L17.218 15.3809Q17.218 14.3297 16.7211 13.8418Q16.2242 13.3539 15.184 13.3539L5.81482 13.3539Q4.77859 13.3539 4.27971 13.8418Q3.78082 14.3297 3.78082 15.3809L3.78082 18.2617Q3.78082 19.3129 4.27773 19.8008Q4.77463 20.2887 5.81482 20.2887ZM5.92346 19.5876Q5.16022 19.5876 4.84184 19.267Q4.52347 18.9465 4.52347 18.1805L4.52347 15.4594Q4.52347 14.696 4.84184 14.3756Q5.16022 14.0552 5.92346 14.0552L15.0851 14.0552Q15.8414 14.0552 16.1584 14.3756Q16.4754 14.696 16.4754 15.4594L16.4754 18.1805Q16.4754 18.9465 16.1584 19.267Q15.8414 19.5876 15.0851 19.5876ZM6.55502 16.8031Q6.55502 17.0032 6.68556 17.135Q6.8161 17.2668 7.01599 17.2668L13.9996 17.2668Q14.1829 17.2668 14.3134 17.135Q14.4438 17.0032 14.4438 16.8031Q14.4438 16.6199 14.3134 16.4929Q14.1829 16.366 13.9996 16.366L7.01599 16.366Q6.8161 16.366 6.68556 16.4929Q6.55502 16.6199 6.55502 16.8031ZM5.57465 7.76871L6.31836 7.76871Q6.72272 7.76871 6.72272 7.3645L6.72272 6.62338Q6.72272 6.21918 6.31836 6.21918L5.57465 6.21918Q5.17303 6.21918 5.17303 6.62338L5.17303 7.3645Q5.17303 7.76871 5.57465 7.76871ZM8.61176 7.76871L9.35272 7.76871Q9.75708 7.76871 9.75708 7.3645L9.75708 6.62338Q9.75708 6.21918 9.35272 6.21918L8.61176 6.21918Q8.2074 6.21918 8.2074 6.62338L8.2074 7.3645Q8.2074 7.76871 8.61176 7.76871ZM11.6461 7.76871L12.3898 7.76871Q12.7914 7.76871 12.7914 7.3645L12.7914 6.62338Q12.7914 6.21918 12.3898 6.21918L11.6461 6.21918Q11.2418 6.21918 11.2418 6.62338L11.2418 7.3645Q11.2418 7.76871 11.6461 7.76871ZM14.6875 7.76871L15.4242 7.76871Q15.8356 7.76871 15.8356 7.3645L15.8356 6.62338Q15.8356 6.21918 15.4242 6.21918L14.6875 6.21918Q14.2789 6.21918 14.2789 6.62338L14.2789 7.3645Q14.2789 7.76871 14.6875 7.76871ZM5.57465 11.116L6.31836 11.116Q6.72272 11.116 6.72272 10.7117L6.72272 9.96796Q6.72272 9.56375 6.31836 9.56375L5.57465 9.56375Q5.17303 9.56375 5.17303 9.96796L5.17303 10.7117Q5.17303 11.116 5.57465 11.116ZM8.61176 11.116L9.35272 11.116Q9.75708 11.116 9.75708 10.7117L9.75708 9.96796Q9.75708 9.56375 9.35272 9.56375L8.61176 9.56375Q8.2074 9.56375 8.2074 9.96796L8.2074 10.7117Q8.2074 11.116 8.61176 11.116ZM11.6461 11.116L12.3898 11.116Q12.7914 11.116 12.7914 10.7117L12.7914 9.96796Q12.7914 9.56375 12.3898 9.56375L11.6461 9.56375Q11.2418 9.56375 11.2418 9.96796L11.2418 10.7117Q11.2418 11.116 11.6461 11.116ZM14.6875 11.116L15.4242 11.116Q15.8356 11.116 15.8356 10.7117L15.8356 9.96796Q15.8356 9.56375 15.4242 9.56375L14.6875 9.56375Q14.2789 9.56375 14.2789 9.96796L14.2789 10.7117Q14.2789 11.116 14.6875 11.116Z" fill="#000000"/>
 </g>
</svg>
