<?xml version="1.0" encoding="UTF-8"?>
<!--Generator: Apple Native CoreSVG 175.5-->
<!DOCTYPE svg
PUBLIC "-//W3C//DTD SVG 1.1//EN"
       "http://www.w3.org/Graphics/SVG/1.1/DTD/svg11.dtd">
<svg version="1.1" xmlns="http://www.w3.org/2000/svg" xmlns:xlink="http://www.w3.org/1999/xlink" width="20.609" height="24.3066">
 <g>
  <rect height="24.3066" opacity="0" width="20.609" x="0" y="0"/>
  <path d="M10.3012 24.3066Q11.102 24.3066 11.6635 24.1064Q12.2251 23.9062 12.6401 23.6084Q13.0552 23.3105 13.4018 23.0176Q13.7485 22.7246 14.1098 22.5244Q14.4712 22.3242 14.9399 22.3242Q15.4184 22.3242 15.77 22.5244Q16.1216 22.7246 16.4682 23.0176Q16.8149 23.3105 17.2446 23.6084Q17.6743 23.9062 18.2944 24.1064Q18.9145 24.3066 19.8227 24.3066L19.8716 24.3066Q20.1645 24.3066 20.3647 24.1064Q20.5649 23.9062 20.5649 23.6133Q20.5649 23.3301 20.3647 23.1299Q20.1645 22.9297 19.8716 22.9297L19.8227 22.9297Q19.0415 22.9297 18.519 22.6465Q17.9966 22.3633 17.4497 21.9727Q16.9712 21.6211 16.3608 21.2842Q15.7505 20.9473 14.9399 20.9473Q14.1001 20.9473 13.48 21.3037Q12.8598 21.6602 12.3813 22.0215Q11.8735 22.4023 11.4145 22.666Q10.9555 22.9297 10.3012 22.9297Q9.64695 22.9297 9.18796 22.666Q8.72898 22.4023 8.22117 22.0215Q7.74265 21.6602 7.12253 21.3037Q6.50242 20.9473 5.66257 20.9473Q4.85203 20.9473 4.24167 21.2842Q3.63132 21.6211 3.15281 21.9727Q2.60593 22.3633 2.08835 22.6465Q1.57078 22.9297 0.77976 22.9297L0.730932 22.9297Q0.447729 22.9297 0.242651 23.1299Q0.0375728 23.3301 0.0375728 23.6133Q0.0375728 23.9062 0.242651 24.1064Q0.447729 24.3066 0.730932 24.3066L0.77976 24.3066Q1.69773 24.3066 2.31296 24.1064Q2.9282 23.9062 3.35789 23.6084Q3.78757 23.3105 4.13425 23.0176Q4.48093 22.7246 4.83738 22.5244Q5.19382 22.3242 5.66257 22.3242Q6.13132 22.3242 6.49265 22.5244Q6.85398 22.7246 7.20066 23.0176Q7.54734 23.3105 7.96238 23.6084Q8.37742 23.9062 8.93894 24.1064Q9.50046 24.3066 10.3012 24.3066ZM10.3012 21.7871Q10.643 21.7871 10.9018 21.6553Q11.1606 21.5234 11.6977 21.1035Q12.02 20.8691 12.4887 20.5664Q12.9575 20.2637 13.5727 20.0342Q14.188 19.8047 14.9399 19.8047Q15.604 19.8047 16.1802 19.9902Q16.7563 20.1758 17.3813 20.5566L20.1645 15.625Q20.7895 14.5312 20.5356 13.7354Q20.2817 12.9395 19.1977 12.4414L12.0981 9.17969Q11.7856 9.0332 11.3462 8.85742Q10.9067 8.68164 10.3012 8.68164Q9.69578 8.68164 9.25632 8.85742Q8.81687 9.0332 8.50437 9.17969L1.40476 12.4414Q0.320776 12.9395 0.0717525 13.7354Q-0.177271 14.5312 0.437963 15.625L3.22117 20.5566Q3.84617 20.1758 4.42234 19.9902Q4.99851 19.8047 5.66257 19.8047Q6.41453 19.8047 7.02976 20.0342Q7.64499 20.2637 8.11863 20.5664Q8.59226 20.8691 8.90476 21.1035Q9.45164 21.5234 9.71042 21.6553Q9.96921 21.7871 10.3012 21.7871ZM10.3012 7.35352Q10.9653 7.35352 11.4682 7.50488Q11.9712 7.65625 12.6548 7.96875L17.7719 10.3223L16.9321 4.0918Q16.8247 3.30078 16.3413 2.78809Q15.8579 2.27539 15.0669 2.27539L5.55515 2.27539Q4.76414 2.27539 4.2905 2.8125Q3.81687 3.34961 3.68992 4.28711L2.85007 10.3125L7.94773 7.96875Q8.63132 7.65625 9.13914 7.50488Q9.64695 7.35352 10.3012 7.35352ZM5.9946 6.31836Q5.60398 6.31836 5.60398 5.91797L5.60398 4.35547Q5.60398 3.95508 5.9946 3.95508L9.02195 3.95508Q9.51023 3.95508 9.51023 4.35547L9.51023 5.91797Q9.51023 6.31836 9.02195 6.31836ZM11.4829 6.31836Q11.102 6.31836 11.102 5.91797L11.102 4.35547Q11.102 3.95508 11.4829 3.95508L14.52 3.95508Q15.0083 3.95508 15.0083 4.35547L15.0083 5.91797Q15.0083 6.31836 14.52 6.31836ZM6.24851 2.56836L14.3637 2.56836L14.3637 1.73828Q14.3637 1.02539 13.9682 0.625Q13.5727 0.224609 12.8598 0.224609L7.75242 0.224609Q7.03953 0.224609 6.64402 0.625Q6.24851 1.02539 6.24851 1.73828Z" fill="#007aff"/>
 </g>
</svg>
