<?xml version="1.0" encoding="UTF-8"?>
<!--Generator: Apple Native CoreSVG 175-->
<!DOCTYPE svg
PUBLIC "-//W3C//DTD SVG 1.1//EN"
       "http://www.w3.org/Graphics/SVG/1.1/DTD/svg11.dtd">
<svg version="1.1" xmlns="http://www.w3.org/2000/svg" xmlns:xlink="http://www.w3.org/1999/xlink" width="24.3867" height="17.7826">
 <g>
  <rect height="17.7826" opacity="0" width="24.3867" x="0" y="0"/>
  <path d="M0 0.369263Q0 0.515747 0.10643 0.622177Q0.21286 0.728607 0.359344 0.728607L24.0202 0.728607Q24.1739 0.728607 24.2803 0.622177Q24.3867 0.515747 24.3867 0.369263Q24.3867 0.215759 24.2803 0.10788Q24.1739 0 24.0202 0L0.359344 0Q0.21286 0 0.10643 0.10788Q0 0.215759 0 0.369263ZM2.81998 9.32709L17.2516 9.32709L17.2516 13.1345Q17.2516 13.2716 17.3228 13.3622Q17.3941 13.4528 17.507 13.4937Q17.6199 13.5345 17.7431 13.5117Q17.8664 13.4888 17.9605 13.3849L21.9258 9.35837Q22.0395 9.23492 22.0846 9.08096Q22.1297 8.927 22.0902 8.78563Q22.0508 8.64426 21.9246 8.54988Q21.7984 8.45551 21.5765 8.45551L7.14493 8.45551L7.14493 4.64813Q7.14493 4.51096 7.07367 4.42039Q7.00241 4.32983 6.8895 4.28894Q6.77658 4.24805 6.65466 4.27094Q6.53275 4.29382 6.436 4.39774L2.47345 8.42422Q2.35703 8.54767 2.31194 8.70163Q2.26685 8.85559 2.30629 8.99696Q2.34573 9.13834 2.47322 9.23271Q2.60071 9.32709 2.81998 9.32709ZM0 17.3825Q0 17.536 0.10643 17.6438Q0.21286 17.7516 0.359344 17.7516L24.0202 17.7516Q24.1739 17.7516 24.2803 17.6438Q24.3867 17.536 24.3867 17.3825Q24.3867 17.236 24.2803 17.1296Q24.1739 17.0232 24.0202 17.0232L0.359344 17.0232Q0.21286 17.0232 0.10643 17.1296Q0 17.236 0 17.3825Z" fill="#007aff"/>
 </g>
</svg>
