<?xml version="1.0" encoding="UTF-8"?>
<!--Generator: Apple Native CoreSVG 175.5-->
<!DOCTYPE svg
PUBLIC "-//W3C//DTD SVG 1.1//EN"
       "http://www.w3.org/Graphics/SVG/1.1/DTD/svg11.dtd">
<svg version="1.1" xmlns="http://www.w3.org/2000/svg" xmlns:xlink="http://www.w3.org/1999/xlink" width="20.4492" height="27.5488">
 <g>
  <rect height="27.5488" opacity="0" width="20.4492" x="0" y="0"/>
  <path d="M18.3301 9.3457Q18.916 9.3457 19.3994 9.0625Q19.8828 8.7793 20.166 8.29102Q20.4492 7.80273 20.4492 7.2168Q20.4492 6.63086 20.166 6.14746Q19.8828 5.66406 19.3994 5.38086Q18.916 5.09766 18.3301 5.09766Q17.7344 5.09766 17.251 5.38086Q16.7676 5.66406 16.4795 6.14746Q16.1914 6.63086 16.1914 7.2168Q16.1914 7.80273 16.4795 8.29102Q16.7676 8.7793 17.251 9.0625Q17.7344 9.3457 18.3301 9.3457ZM1.00586 12.0215L5.86914 12.0215L8.85742 14.7363Q8.95508 14.8242 8.91602 14.9268Q8.87695 15.0293 8.75 15.0293L5.3418 15.0293Q5.11719 15.0293 4.90723 15.0879Q4.69727 15.1465 4.55078 15.3027L0.927734 18.9355Q0.634766 19.2383 0.629883 19.6436Q0.625 20.0488 0.927734 20.3516Q1.2207 20.6445 1.63574 20.6445Q2.05078 20.6445 2.34375 20.3516L5.5957 17.0996L9.57031 17.7539Q10.5273 17.9102 11.4453 17.6221Q12.3633 17.334 13.0566 16.6309L15.3027 14.3945Q15.4395 14.248 15.5957 14.3115Q15.752 14.375 15.752 14.5703L15.752 16.1133L13.0469 18.8184Q12.7539 19.1113 12.7588 19.5264Q12.7637 19.9414 13.0469 20.2344Q13.3398 20.5273 13.7695 20.5273Q14.1797 20.5273 14.4727 20.2344L17.4707 17.2363Q17.7637 16.9434 17.7637 16.5234L17.7637 12.0605Q17.7637 11.0938 17.1777 10.5176L11.2402 4.59961L11.2402 7.43164L13.7988 9.99023Q14.082 10.2637 13.7988 10.5469L11.1426 13.2129L6.82617 10.1855Q6.58203 10.0098 6.2207 10.0098L1.00586 10.0098Q0.585938 10.0098 0.292969 10.3076Q0 10.6055 0 11.0156Q0 11.4258 0.292969 11.7236Q0.585938 12.0215 1.00586 12.0215ZM11.7578 22.0605Q12.4805 22.0605 13.0566 21.7188Q13.6328 21.377 13.9697 20.791Q14.3066 20.2051 14.2969 19.4824L13.2129 19.4824Q13.2227 20.127 12.8027 20.5518Q12.3828 20.9766 11.7578 20.9766Q11.1328 20.9766 10.7129 20.6055Q10.293 20.2344 10.293 19.5215L10.293 0.537109Q10.293 0.322266 10.1318 0.161133Q9.9707 0 9.75586 0Q9.53125 0 9.37012 0.161133Q9.20898 0.322266 9.20898 0.537109L9.20898 19.5215Q9.20898 20.3027 9.5459 20.874Q9.88281 21.4453 10.459 21.7529Q11.0352 22.0605 11.7578 22.0605ZM13.75 27.5391Q13.9844 27.5391 14.1406 27.3828Q14.2969 27.2266 14.2969 26.9922L14.2969 14.9805L13.2129 14.9805L13.2129 26.9922Q13.2129 27.2266 13.3691 27.3828Q13.5254 27.5391 13.75 27.5391Z" fill="#007aff"/>
 </g>
</svg>
