<?xml version="1.0" encoding="UTF-8"?>
<!--Generator: Apple Native CoreSVG 175.5-->
<!DOCTYPE svg
PUBLIC "-//W3C//DTD SVG 1.1//EN"
       "http://www.w3.org/Graphics/SVG/1.1/DTD/svg11.dtd">
<svg version="1.1" xmlns="http://www.w3.org/2000/svg" xmlns:xlink="http://www.w3.org/1999/xlink" width="22.2168" height="21.416">
 <g>
  <rect height="21.416" opacity="0" width="22.2168" x="0" y="0"/>
  <path d="M12.3535 4.26758Q12.9395 4.26758 13.4229 3.97949Q13.9062 3.69141 14.1943 3.20312Q14.4824 2.71484 14.4824 2.12891Q14.4824 1.54297 14.1943 1.05957Q13.9062 0.576172 13.4229 0.288086Q12.9395 0 12.3535 0Q11.7676 0 11.2842 0.288086Q10.8008 0.576172 10.5078 1.05957Q10.2148 1.54297 10.2148 2.12891Q10.2148 2.71484 10.5078 3.20312Q10.8008 3.69141 11.2842 3.97949Q11.7676 4.26758 12.3535 4.26758ZM15.0977 21.1914Q15.4102 21.0645 15.6055 20.752Q15.8008 20.4395 15.6738 20L14.1992 14.8535Q14.082 14.4727 13.75 14.2773L10.6738 12.4707L12.1387 8.125Q12.2168 7.87109 12.4365 7.8418Q12.6562 7.8125 12.8418 7.99805L15.0195 10.166Q15.332 10.459 15.7031 10.459Q16.1133 10.459 16.4062 10.166L19.3457 7.2168Q19.6289 6.92383 19.6338 6.52832Q19.6387 6.13281 19.3457 5.83984Q19.0625 5.55664 18.6572 5.55176Q18.252 5.54688 17.959 5.83984L15.7031 8.0957L13.8184 6.14258Q13.1641 5.46875 12.3682 5.26367Q11.5723 5.05859 10.2148 5.05859L0.986328 5.05859Q0.585938 5.05859 0.292969 5.34668Q0 5.63477 0 6.04492Q0 6.44531 0.292969 6.7334Q0.585938 7.02148 0.986328 7.02148L7.8418 7.02148Q8.05664 7.02148 8.20801 7.1875Q8.35938 7.35352 8.25195 7.64648L7.10938 11.0742Q6.9043 11.6797 7.0166 12.2803Q7.12891 12.8809 7.49512 13.3594Q7.86133 13.8379 8.44727 14.0918L12.4219 15.8398L13.7891 20.5078Q13.9355 21.0254 14.3311 21.1719Q14.7266 21.3184 15.0977 21.1914ZM2.63672 20.8496Q2.83203 21.1328 3.17871 21.2402Q3.52539 21.3477 3.93555 21.123L8.32031 18.6914Q8.65234 18.5059 8.7793 18.125L9.61914 15.6348L8.07617 14.9609Q7.93945 14.8926 7.80762 14.8242Q7.67578 14.7559 7.53906 14.668L7.00195 17.168L2.98828 19.4141Q2.51953 19.6777 2.46582 20.1074Q2.41211 20.5371 2.63672 20.8496ZM16.1914 12.6562L22.2168 12.6562L22.2168 11.5723L16.1914 11.5723Q15.9668 11.5723 15.8105 11.7285Q15.6543 11.8848 15.6543 12.1094Q15.6543 12.3438 15.8105 12.5Q15.9668 12.6562 16.1914 12.6562ZM1.34766 5.43945L2.33398 5.43945L2.33398 4.0625L1.34766 4.0625ZM1.8457 0.341797Q1.07422 0.341797 0.537109 0.878906Q0 1.41602 0 2.19727Q0 2.66602 0.249023 3.14941Q0.498047 3.63281 0.913086 4.00391Q1.32812 4.375 1.8457 4.49219Q2.35352 4.375 2.77344 4.00391Q3.19336 3.63281 3.4375 3.14941Q3.68164 2.66602 3.68164 2.19727Q3.68164 1.41602 3.14453 0.878906Q2.60742 0.341797 1.8457 0.341797Z" fill="#007aff"/>
 </g>
</svg>
