<?xml version="1.0" encoding="UTF-8"?>
<!--Generator: Apple Native CoreSVG 175.5-->
<!DOCTYPE svg
PUBLIC "-//W3C//DTD SVG 1.1//EN"
       "http://www.w3.org/Graphics/SVG/1.1/DTD/svg11.dtd">
<svg version="1.1" xmlns="http://www.w3.org/2000/svg" xmlns:xlink="http://www.w3.org/1999/xlink" width="23.1518" height="23.6621">
 <g>
  <rect height="23.6621" opacity="0" width="23.1518" x="0" y="0"/>
  <path d="M14.7184 5.79102Q15.3043 5.79102 15.7877 5.50293Q16.2711 5.21484 16.5641 4.73145Q16.857 4.24805 16.857 3.66211Q16.857 3.07617 16.5641 2.59277Q16.2711 2.10938 15.7877 1.81641Q15.3043 1.52344 14.7184 1.52344Q14.1324 1.52344 13.649 1.81641Q13.1656 2.10938 12.8775 2.59277Q12.5895 3.07617 12.5895 3.66211Q12.5895 4.24805 12.8775 4.73145Q13.1656 5.21484 13.649 5.50293Q14.1324 5.79102 14.7184 5.79102ZM8.0875 18.418Q8.41953 18.6426 8.82969 18.5791Q9.23984 18.5156 9.48398 18.1836L11.7887 14.9609L13.9664 15.332L11.818 18.5352Q11.5934 18.8867 11.6666 19.3018Q11.7398 19.7168 12.1012 19.9219Q12.5211 20.1758 12.902 20.0684Q13.2828 19.9609 13.4879 19.6484L16.398 15.2734Q16.5836 14.9805 16.5787 14.6289Q16.5738 14.2773 16.3639 13.9893Q16.1539 13.7012 15.734 13.5938L11.7398 12.6367Q11.4469 12.5586 11.3541 12.3389Q11.2613 12.1191 11.4273 11.8652L13.1168 9.3457Q13.3219 9.0332 13.6344 9.24805L16.0855 10.9277Q16.2711 11.0449 16.4762 11.084L21.9645 12.0898Q22.3355 12.1484 22.7018 11.9336Q23.068 11.7188 23.1363 11.2793Q23.2047 10.8789 22.9703 10.5371Q22.7359 10.1953 22.3355 10.127L17.0523 9.16016L8.90781 3.59375L11.2418 1.92383Q11.5836 1.67969 11.652 1.27441Q11.7203 0.869141 11.4859 0.537109Q11.232 0.195312 10.8268 0.126953Q10.4215 0.0585938 10.0895 0.292969L6.59336 2.79297Q6.16367 3.10547 6.15879 3.62305Q6.15391 4.14062 6.60313 4.43359L9.58164 6.47461Q9.88438 6.68945 9.66953 6.98242L7.18906 10.5957Q6.79844 11.1621 6.72031 11.7871Q6.64219 12.4121 6.85703 12.9785Q7.07188 13.5449 7.56992 13.9502Q8.06797 14.3555 8.82969 14.4727L9.58164 14.5996L7.85313 17.0117Q7.60898 17.3535 7.67734 17.7637Q7.7457 18.1738 8.0875 18.418ZM0.196875 15.2246Q0.0210937 15.3809 0.0015625 15.625Q-0.0179688 15.8691 0.206641 16.0742Q1.93516 17.5977 4.27891 18.9697Q6.62266 20.3418 9.40586 21.3965Q12.1891 22.4512 15.2506 23.0566Q18.3121 23.6621 21.4566 23.6621Q21.6812 23.6621 21.8375 23.5059Q21.9937 23.3496 21.9937 23.125Q21.9937 22.8906 21.8375 22.7344Q21.6812 22.5781 21.4566 22.5781Q18.4 22.5781 15.4459 21.9971Q12.4918 21.416 9.80137 20.3955Q7.11094 19.375 4.8502 18.0518Q2.58945 16.7285 0.919531 15.2441Q0.733984 15.0781 0.533789 15.0879Q0.333594 15.0977 0.196875 15.2246ZM0.802344 19.4238Q1.38828 19.4238 2.18906 19.1943Q2.98984 18.9648 3.77109 18.4766L2.25742 16.9824Q1.97422 17.3242 1.73984 17.5537Q1.50547 17.7832 1.23691 17.9736Q0.968359 18.1641 0.5875 18.3691Q0.362891 18.4961 0.279883 18.6768Q0.196875 18.8574 0.255469 19.0527Q0.294531 19.1992 0.436133 19.3115Q0.577734 19.4238 0.802344 19.4238Z" fill="#007aff"/>
 </g>
</svg>
