<?xml version="1.0" encoding="UTF-8"?>
<!--Generator: Apple Native CoreSVG 175.5-->
<!DOCTYPE svg
PUBLIC "-//W3C//DTD SVG 1.1//EN"
       "http://www.w3.org/Graphics/SVG/1.1/DTD/svg11.dtd">
<svg version="1.1" xmlns="http://www.w3.org/2000/svg" xmlns:xlink="http://www.w3.org/1999/xlink" width="19.9219" height="19.9316">
 <g>
  <rect height="19.9316" opacity="0" width="19.9219" x="0" y="0"/>
  <path d="M9.96094 19.9219Q12.002 19.9219 13.8037 19.1406Q15.6055 18.3594 16.9824 16.9824Q18.3594 15.6055 19.1406 13.8037Q19.9219 12.002 19.9219 9.96094Q19.9219 7.91992 19.1406 6.11816Q18.3594 4.31641 16.9824 2.93945Q15.6055 1.5625 13.7988 0.78125Q11.9922 0 9.95117 0Q7.91016 0 6.1084 0.78125Q4.30664 1.5625 2.93457 2.93945Q1.5625 4.31641 0.78125 6.11816Q0 7.91992 0 9.96094Q0 12.002 0.78125 13.8037Q1.5625 15.6055 2.93945 16.9824Q4.31641 18.3594 6.11816 19.1406Q7.91992 19.9219 9.96094 19.9219ZM9.96094 18.2617Q8.23242 18.2617 6.72852 17.6172Q5.22461 16.9727 4.08691 15.835Q2.94922 14.6973 2.30957 13.1934Q1.66992 11.6895 1.66992 9.96094Q1.66992 8.23242 2.30957 6.72852Q2.94922 5.22461 4.08203 4.08203Q5.21484 2.93945 6.71875 2.2998Q8.22266 1.66016 9.95117 1.66016Q11.6797 1.66016 13.1885 2.2998Q14.6973 2.93945 15.835 4.08203Q16.9727 5.22461 17.6172 6.72852Q18.2617 8.23242 18.2617 9.96094Q18.2617 11.6895 17.6221 13.1934Q16.9824 14.6973 15.8398 15.835Q14.6973 16.9727 13.1934 17.6172Q11.6895 18.2617 9.96094 18.2617Z" fill="#007aff"/>
  <path d="M9.05273 16.582Q9.6875 16.582 9.6875 15.8887L9.6875 11.8945Q9.6875 11.5723 9.95117 11.5723Q10.1855 11.5723 10.1855 11.8945L10.1855 15.8887Q10.1855 16.2305 10.3711 16.4062Q10.5566 16.582 10.8398 16.582Q11.4648 16.582 11.4648 15.8887L11.4648 8.91602Q11.4648 8.65234 11.6895 8.65234Q11.9043 8.65234 11.9043 8.91602L11.9043 11.7676Q11.9043 12.0703 12.0752 12.2314Q12.2461 12.3926 12.5 12.3926Q13.0762 12.3926 13.0762 11.7676L13.0762 9.0625Q13.0762 7.75391 12.3145 7.29492Q11.5527 6.83594 9.96094 6.83594L9.14062 6.83594Q8.83789 6.83594 8.65723 6.77246Q8.47656 6.70898 8.25195 6.55273L7.39258 5.95703L7.26562 4.00391Q7.24609 3.70117 7.0752 3.5498Q6.9043 3.39844 6.65039 3.41797Q6.38672 3.4375 6.23535 3.60352Q6.08398 3.76953 6.10352 4.0918L6.23047 6.03516Q6.25 6.34766 6.38184 6.55273Q6.51367 6.75781 6.71875 6.9043L8.13477 7.93945Q8.39844 8.13477 8.39844 8.45703L8.39844 15.8887Q8.39844 16.2305 8.58398 16.4062Q8.76953 16.582 9.05273 16.582ZM9.96094 6.26953Q10.4883 6.26953 10.8594 5.89355Q11.2305 5.51758 11.2305 5.00977Q11.2305 4.47266 10.8594 4.10156Q10.4883 3.73047 9.96094 3.73047Q9.42383 3.73047 9.05762 4.10156Q8.69141 4.47266 8.69141 5.00977Q8.69141 5.50781 9.05762 5.88867Q9.42383 6.26953 9.96094 6.26953Z" fill="#007aff"/>
 </g>
</svg>
