<?xml version="1.0" encoding="UTF-8"?>
<!--Generator: Apple Native CoreSVG 175.5-->
<!DOCTYPE svg
PUBLIC "-//W3C//DTD SVG 1.1//EN"
       "http://www.w3.org/Graphics/SVG/1.1/DTD/svg11.dtd">
<svg version="1.1" xmlns="http://www.w3.org/2000/svg" xmlns:xlink="http://www.w3.org/1999/xlink" width="20.9527" height="19.9512">
 <g>
  <rect height="19.9512" opacity="0" width="20.9527" x="0" y="0"/>
  <path d="M5.97752 4.26758Q6.56345 4.26758 7.04685 3.97949Q7.53025 3.69141 7.81834 3.20312Q8.10642 2.71484 8.10642 2.11914Q8.10642 1.5332 7.81834 1.0498Q7.53025 0.566406 7.04685 0.283203Q6.56345 0 5.97752 0Q5.39158 0 4.90818 0.283203Q4.42478 0.566406 4.13181 1.0498Q3.83884 1.5332 3.83884 2.11914Q3.83884 2.71484 4.13181 3.20312Q4.42478 3.69141 4.90818 3.97949Q5.39158 4.26758 5.97752 4.26758ZM20.4209 17.8809L13.9853 14.4043L10.2646 11.8164Q9.85447 11.5332 9.51267 11.1133Q9.79587 10.9375 9.90818 10.6445Q10.0205 10.3516 9.94236 10.0293L9.20994 7.06055Q9.01462 6.2793 8.37498 5.78613Q7.73533 5.29297 6.92478 5.29297L4.60056 5.29297Q4.06345 5.29297 3.66794 5.43945Q3.27244 5.58594 2.93064 5.92773L0.284156 8.57422Q0.0400152 8.81836 0.00583556 9.15527Q-0.0283441 9.49219 0.137671 9.78516L1.99314 13.0371L1.99314 18.7598Q1.99314 19.1602 2.28611 19.458Q2.57908 19.7559 2.98923 19.7559Q3.39939 19.7559 3.69236 19.458Q3.98533 19.1602 3.98533 18.7598L3.98533 13.8477L9.67869 14.2578L13.126 16.2109L19.4834 19.6289Q19.9228 19.8633 20.3037 19.7021Q20.6845 19.541 20.8408 19.2383Q21.0263 18.8672 20.9043 18.4717Q20.7822 18.0762 20.4209 17.8809ZM2.24705 9.45312L3.9658 7.72461L5.30369 11.1719L4.249 11.7773L3.57517 11.7773Z" fill="#007aff"/>
 </g>
</svg>
