<?xml version="1.0" encoding="UTF-8"?>
<!--Generator: Apple Native CoreSVG 175.5-->
<!DOCTYPE svg
PUBLIC "-//W3C//DTD SVG 1.1//EN"
       "http://www.w3.org/Graphics/SVG/1.1/DTD/svg11.dtd">
<svg version="1.1" xmlns="http://www.w3.org/2000/svg" xmlns:xlink="http://www.w3.org/1999/xlink" width="20.8834" height="22.6074">
 <g>
  <rect height="22.6074" opacity="0" width="20.8834" x="0" y="0"/>
  <path d="M9.77989 4.25781Q10.3658 4.25781 10.8492 3.96973Q11.3326 3.68164 11.6158 3.19824Q11.899 2.71484 11.899 2.11914Q11.899 1.5332 11.6158 1.05469Q11.3326 0.576172 10.8492 0.288086Q10.3658 0 9.77989 0Q9.18418 0 8.70078 0.288086Q8.21739 0.576172 7.9293 1.05469Q7.64121 1.5332 7.64121 2.11914Q7.64121 2.71484 7.9293 3.19824Q8.21739 3.68164 8.70078 3.96973Q9.18418 4.25781 9.77989 4.25781ZM0.785745 22.1777Q1.06895 22.4414 1.47422 22.4707Q1.8795 22.5 2.20176 22.1777L6.4791 17.9102Q6.68418 17.7246 6.73301 17.5391Q6.78184 17.3535 6.76231 17.0703L6.51817 14.3164Q6.5084 14.1895 6.60117 14.1357Q6.69395 14.082 6.78184 14.1699L9.84825 16.8066L11.44 21.7578Q11.5768 22.1875 11.9576 22.3535Q12.3385 22.5195 12.7096 22.4121Q13.1295 22.2852 13.315 21.9141Q13.5006 21.543 13.3639 21.1426L11.7135 15.9277Q11.6744 15.8105 11.6109 15.7031Q11.5475 15.5957 11.4596 15.5078L8.15879 12.2461L10.2779 8.00781Q10.3463 7.87109 10.4781 7.84668Q10.61 7.82227 10.7272 7.93945L13.1002 10.332Q13.2662 10.4883 13.5201 10.5762L18.276 12.002Q18.5689 12.0898 18.9693 11.9434Q19.3697 11.7969 19.526 11.3086Q19.6432 10.9082 19.443 10.5371Q19.2428 10.166 18.8424 10.0488L14.3404 8.7207L11.7721 6.12305Q10.9322 5.2832 9.71153 5.2832L2.91465 5.2832Q2.62168 5.2832 2.38242 5.43457Q2.14317 5.58594 2.01621 5.83984L0.111917 9.62891Q-0.0736297 10 0.0484406 10.3955Q0.170511 10.791 0.561136 10.9766Q0.951761 11.1523 1.3375 11.0303Q1.72325 10.9082 1.91856 10.5176L3.52989 7.30469L5.5416 7.30469Q5.71739 7.30469 5.79551 7.44141Q5.87364 7.57812 5.79551 7.73438L4.3209 10.6934Q3.93028 11.4844 3.82774 12.3682Q3.7252 13.252 3.94004 14.1113L4.64317 16.875L0.766214 20.7324Q0.473245 21.0156 0.478128 21.4453Q0.483011 21.875 0.785745 22.1777ZM18.5592 17.7344Q19.2037 17.7344 19.7311 17.417Q20.2584 17.0996 20.5709 16.5771Q20.8834 16.0547 20.8834 15.4102Q20.8834 14.7754 20.5709 14.248Q20.2584 13.7207 19.7311 13.4082Q19.2037 13.0957 18.5592 13.0957Q17.9244 13.0957 17.3971 13.4082Q16.8697 13.7207 16.5572 14.248Q16.2447 14.7754 16.2447 15.4102Q16.2447 16.0547 16.5572 16.5771Q16.8697 17.0996 17.3971 17.417Q17.9244 17.7344 18.5592 17.7344Z" fill="#007aff"/>
 </g>
</svg>
