<?xml version="1.0" encoding="UTF-8"?>
<!--Generator: Apple Native CoreSVG 175.5-->
<!DOCTYPE svg
PUBLIC "-//W3C//DTD SVG 1.1//EN"
       "http://www.w3.org/Graphics/SVG/1.1/DTD/svg11.dtd">
<svg version="1.1" xmlns="http://www.w3.org/2000/svg" xmlns:xlink="http://www.w3.org/1999/xlink" width="13.1445" height="26.5527">
 <g>
  <rect height="26.5527" opacity="0" width="13.1445" x="0" y="0"/>
  <path d="M6.57227 7.20703Q7.14844 7.20703 7.62207 6.92383Q8.0957 6.64062 8.37891 6.16211Q8.66211 5.68359 8.66211 5.09766Q8.66211 4.52148 8.37891 4.04785Q8.0957 3.57422 7.62207 3.29102Q7.14844 3.00781 6.57227 3.00781Q5.98633 3.00781 5.50781 3.29102Q5.0293 3.57422 4.74609 4.04785Q4.46289 4.52148 4.46289 5.09766Q4.46289 5.68359 4.74609 6.16211Q5.0293 6.64062 5.50781 6.92383Q5.98633 7.20703 6.57227 7.20703ZM5.15625 26.5527Q5.53711 26.5527 5.82031 26.2695Q6.10352 25.9863 6.10352 25.6055L6.10352 20.4883L6.57227 16.6895L7.03125 20.4883L7.03125 25.6055Q7.03125 25.9863 7.31445 26.2695Q7.59766 26.5527 7.97852 26.5527Q8.36914 26.5527 8.64746 26.2695Q8.92578 25.9863 8.92578 25.6055L8.92578 11.9824Q8.92578 11.8945 9.00879 11.8799Q9.0918 11.8652 9.13086 11.9434Q9.72656 13.0469 10.1611 14.0381Q10.5957 15.0293 10.8838 15.791Q11.1719 16.5527 11.3086 16.9824Q11.4453 17.3438 11.792 17.5195Q12.1387 17.6953 12.5098 17.5684Q12.8027 17.4707 12.9736 17.2217Q13.1445 16.9727 13.1445 16.6797Q13.1445 16.5137 13.0957 16.377Q13.0762 16.3184 12.8809 15.7666Q12.6855 15.2148 12.3438 14.3604Q12.002 13.5059 11.5381 12.5244Q11.0742 11.543 10.5225 10.6152Q9.9707 9.6875 9.36523 8.99414Q9.04297 8.62305 8.58887 8.41797Q8.13477 8.21289 7.61719 8.21289L5.51758 8.21289Q5.00977 8.21289 4.55078 8.41797Q4.0918 8.62305 3.7793 8.99414Q3.16406 9.6875 2.6123 10.6152Q2.06055 11.543 1.60156 12.5244Q1.14258 13.5059 0.800781 14.3604Q0.458984 15.2148 0.263672 15.7666Q0.0683594 16.3184 0.0488281 16.377Q0 16.5137 0 16.6895Q0 16.9824 0.170898 17.2266Q0.341797 17.4707 0.634766 17.5684Q0.996094 17.6953 1.34766 17.5195Q1.69922 17.3438 1.82617 16.9824Q1.97266 16.5527 2.25586 15.791Q2.53906 15.0293 2.97363 14.0381Q3.4082 13.0469 4.01367 11.9434Q4.04297 11.8652 4.13086 11.8799Q4.21875 11.8945 4.21875 11.9824L4.21875 25.6055Q4.21875 25.9863 4.49707 26.2695Q4.77539 26.5527 5.15625 26.5527ZM6.57227 1.08398Q8.32031 1.08398 9.5459 2.12402Q10.7715 3.16406 11.416 5.13184Q12.0605 7.09961 12.0605 9.89258L12.0605 16.6895L13.1445 16.6895L13.1445 9.89258Q13.1445 6.74805 12.3779 4.53613Q11.6113 2.32422 10.1416 1.16211Q8.67188 0 6.57227 0Q4.47266 0 3.00781 1.16211Q1.54297 2.32422 0.776367 4.53613Q0.00976562 6.74805 0.00976562 9.89258L0.00976562 16.6992L1.09375 16.6992L1.09375 9.89258Q1.09375 7.09961 1.7334 5.13184Q2.37305 3.16406 3.59863 2.12402Q4.82422 1.08398 6.57227 1.08398Z" fill="#007aff"/>
 </g>
</svg>
