<?xml version="1.0" encoding="UTF-8"?>
<!--Generator: Apple Native CoreSVG 175.5-->
<!DOCTYPE svg
PUBLIC "-//W3C//DTD SVG 1.1//EN"
       "http://www.w3.org/Graphics/SVG/1.1/DTD/svg11.dtd">
<svg version="1.1" xmlns="http://www.w3.org/2000/svg" xmlns:xlink="http://www.w3.org/1999/xlink" width="15.4964" height="24.6191">
 <g>
  <rect height="24.6191" opacity="0" width="15.4964" x="0" y="0"/>
  <path d="M8.05664 4.26758Q8.64258 4.26758 9.12109 3.97949Q9.59961 3.69141 9.8877 3.20312Q10.1758 2.71484 10.1758 2.11914Q10.1758 1.5332 9.8877 1.05469Q9.59961 0.576172 9.12109 0.288086Q8.64258 0 8.05664 0Q7.46094 0 6.97266 0.288086Q6.48438 0.576172 6.19629 1.05469Q5.9082 1.5332 5.9082 2.11914Q5.9082 2.71484 6.19629 3.20312Q6.48438 3.69141 6.97266 3.97949Q7.46094 4.26758 8.05664 4.26758ZM11.6992 24.3848Q12.0996 24.2676 12.2754 23.8916Q12.4512 23.5156 12.3242 23.1152L10.7715 18.4375Q10.7422 18.3301 10.6982 18.2666Q10.6543 18.2031 10.5859 18.1055L7.97852 15.1172L8.52539 9.16992Q8.53516 9.02344 8.66699 8.98926Q8.79883 8.95508 8.87695 9.08203L10.1367 11.0254Q10.4199 11.4453 10.8691 11.6992L14.0234 13.3984Q14.3848 13.5938 14.7803 13.4766Q15.1758 13.3594 15.3809 12.998Q15.5664 12.6367 15.4541 12.2363Q15.3418 11.8359 14.9805 11.6406L11.8164 9.95117L9.7168 6.70898Q9.28711 6.03516 8.64746 5.66406Q8.00781 5.29297 7.13867 5.29297L5.05859 5.29297L4.24805 12.998Q4.16992 13.75 4.35059 14.3018Q4.53125 14.8535 5.13672 15.4688L8.94531 19.2969L10.4395 23.7402Q10.5957 24.2285 10.9717 24.3506Q11.3477 24.4727 11.6992 24.3848ZM3.01758 12.998L4.61914 12.998Q5.26367 12.998 5.70312 12.5781Q6.14258 12.1582 6.14258 11.543L6.14258 5.71289Q6.14258 5.09766 5.70312 4.67285Q5.26367 4.24805 4.61914 4.24805L3.52539 4.24805Q2.59766 4.24805 2.08008 4.77051Q1.5625 5.29297 1.5625 6.24023L1.5625 11.543Q1.5625 12.1875 1.96777 12.5928Q2.37305 12.998 3.01758 12.998ZM0.292969 24.1211Q0.595703 24.4336 0.996094 24.4238Q1.39648 24.4141 1.68945 24.1211L5.3418 20.4883Q5.39062 20.4297 5.44434 20.376Q5.49805 20.3223 5.52734 20.2539L6.5332 18.2129L4.78516 16.4648L3.76953 19.248L0.292969 22.7441Q0 23.0371 0 23.4375Q0 23.8379 0.292969 24.1211ZM14.4336 7.96875Q14.209 7.96875 14.0527 8.125Q13.8965 8.28125 13.8965 8.50586L13.8965 9.99023L14.9805 10.5762L14.9805 8.50586Q14.9805 8.28125 14.8242 8.125Q14.668 7.96875 14.4336 7.96875ZM14.4336 24.4141Q14.668 24.4141 14.8242 24.2529Q14.9805 24.0918 14.9805 23.8672L14.9805 14.3945Q14.4336 14.541 13.8965 14.3652L13.8965 23.8672Q13.8965 24.0918 14.0527 24.2529Q14.209 24.4141 14.4336 24.4141Z" fill="#007aff"/>
 </g>
</svg>
