<?xml version="1.0" encoding="UTF-8"?>
<!--Generator: Apple Native CoreSVG 175.5-->
<!DOCTYPE svg
PUBLIC "-//W3C//DTD SVG 1.1//EN"
       "http://www.w3.org/Graphics/SVG/1.1/DTD/svg11.dtd">
<svg version="1.1" xmlns="http://www.w3.org/2000/svg" xmlns:xlink="http://www.w3.org/1999/xlink" width="17.0801" height="23.7598">
 <g>
  <rect height="23.7598" opacity="0" width="17.0801" x="0" y="0"/>
  <path d="M4.10156 7.37305Q4.6875 7.37305 5.1709 7.08496Q5.6543 6.79688 5.9375 6.31348Q6.2207 5.83008 6.2207 5.23438Q6.2207 4.64844 5.9375 4.16992Q5.6543 3.69141 5.1709 3.40332Q4.6875 3.11523 4.10156 3.11523Q3.50586 3.11523 3.02246 3.40332Q2.53906 3.69141 2.25098 4.16992Q1.96289 4.64844 1.96289 5.23438Q1.96289 5.83008 2.25098 6.31348Q2.53906 6.79688 3.02246 7.08496Q3.50586 7.37305 4.10156 7.37305ZM9.42383 17.5977L12.4512 13.4375L14.3652 16.9336Q14.6875 18.4375 14.8389 19.6484Q14.9902 20.8594 15.0391 21.6309Q15.0879 22.4023 15.0879 22.5781Q15.0879 23.0273 15.3809 23.3301Q15.6738 23.6328 16.084 23.6328Q16.5039 23.6328 16.792 23.335Q17.0801 23.0371 17.0801 22.6074Q17.0801 22.5586 17.041 21.7383Q17.002 20.918 16.8359 19.5264Q16.6699 18.1348 16.3184 16.377L16.2793 16.2012Q16.0352 14.9902 15.5566 13.4326Q15.0781 11.875 14.3066 10.1367Q13.5352 8.39844 12.417 6.63574Q11.2988 4.87305 9.77051 3.24707Q8.24219 1.62109 6.25977 0.302734Q6.00586 0.146484 5.77637 0.0732422Q5.54688 0 5.29297 0L0.996094 0Q0.585938 0 0.292969 0.292969Q0 0.585938 0 0.996094Q0 1.42578 0.292969 1.72363Q0.585938 2.02148 0.996094 2.02148L5.21484 2.02148Q5.99609 2.55859 6.68457 3.14453Q7.37305 3.73047 7.99805 4.36523Q8.18359 4.54102 8.04688 4.77539L4.66797 10.5469Q4.46289 10.9082 4.53613 11.2549Q4.60938 11.6016 4.87793 11.8311Q5.14648 12.0605 5.53711 12.0605L10.1465 12.0605L7.72461 16.5137L7.62695 16.6895L4.64844 22.1387Q4.44336 22.5098 4.55566 22.915Q4.66797 23.3203 5.03906 23.5059Q5.38086 23.6914 5.78613 23.5986Q6.19141 23.5059 6.41602 23.1055ZM7.27539 10.0586L8.02734 8.7793Q8.11523 8.61328 8.25684 8.62793Q8.39844 8.64258 8.47656 8.75L9.35547 10.0586Z" fill="#007aff"/>
 </g>
</svg>
