<?xml version="1.0" encoding="UTF-8"?>
<!--Generator: Apple Native CoreSVG 175.5-->
<!DOCTYPE svg
PUBLIC "-//W3C//DTD SVG 1.1//EN"
       "http://www.w3.org/Graphics/SVG/1.1/DTD/svg11.dtd">
<svg version="1.1" xmlns="http://www.w3.org/2000/svg" xmlns:xlink="http://www.w3.org/1999/xlink" width="22.4221" height="15.2051">
 <g>
  <rect height="15.2051" opacity="0" width="22.4221" x="0" y="0"/>
  <path d="M18.467 4.26758Q19.0529 4.26758 19.5412 3.98438Q20.0295 3.70117 20.3127 3.21289Q20.5959 2.72461 20.5959 2.13867Q20.5959 1.54297 20.3127 1.05957Q20.0295 0.576172 19.5412 0.288086Q19.0529 0 18.467 0Q17.8713 0 17.3879 0.288086Q16.9045 0.576172 16.6164 1.05957Q16.3283 1.54297 16.3283 2.13867Q16.3283 2.72461 16.6164 3.21289Q16.9045 3.70117 17.3879 3.98438Q17.8713 4.26758 18.467 4.26758ZM1.30879 14.2871L7.05098 12.8516L7.05098 14.1992Q7.05098 14.6094 7.34395 14.8975Q7.63692 15.1855 8.03731 15.1855Q8.44746 15.1855 8.74043 14.8975Q9.0334 14.6094 9.0334 14.1992L9.0334 12.4902L13.2033 11.8652Q13.7795 11.7871 14.3361 11.543Q14.8928 11.2988 15.3615 10.9375L18.9748 8.23242Q19.0725 8.16406 19.1945 8.17871Q19.3166 8.19336 19.3752 8.32031L20.4397 10.4688L20.4397 14.1992Q20.4397 14.6289 20.718 14.9072Q20.9963 15.1855 21.4357 15.1855Q21.8752 15.1855 22.1486 14.9072Q22.4221 14.6289 22.4221 14.1992L22.4221 10.2344Q22.4221 9.98047 22.3147 9.77539L20.6057 6.36719Q20.3518 5.84961 19.8781 5.55664Q19.4045 5.26367 18.8381 5.26367L17.9592 5.26367Q16.6408 5.26367 15.5861 6.06445L12.7541 8.17383L8.59395 7.34375Q7.93965 7.2168 7.49532 7.49512Q7.05098 7.77344 7.05098 8.4668L7.05098 10.8008L0.830277 12.3828Q0.341996 12.5 0.151566 12.8271Q-0.0388632 13.1543 0.00996492 13.4961Q0.0783243 13.8867 0.415238 14.1602Q0.752152 14.4336 1.30879 14.2871ZM9.0334 10.3223L9.0334 9.57031L10.3908 9.99023ZM13.7404 15.1855L17.7053 15.1855Q18.3205 15.1855 18.7551 14.751Q19.1897 14.3164 19.1897 13.6914Q19.1897 13.0859 18.7551 12.6465Q18.3205 12.207 17.7053 12.207L13.7404 12.207Q13.1252 12.207 12.6906 12.6465Q12.2561 13.0859 12.2561 13.6914Q12.2561 14.3164 12.6906 14.751Q13.1252 15.1855 13.7404 15.1855ZM17.7053 14.4824Q17.383 14.4824 17.1535 14.248Q16.924 14.0137 16.924 13.6816Q16.924 13.3594 17.1535 13.1348Q17.383 12.9102 17.7053 12.9102Q18.0373 12.9102 18.2619 13.1348Q18.4865 13.3594 18.4865 13.6816Q18.4865 14.0137 18.2619 14.248Q18.0373 14.4824 17.7053 14.4824Z" fill="#007aff"/>
 </g>
</svg>
