<?xml version="1.0" encoding="UTF-8"?>
<!--Generator: Apple Native CoreSVG 175.5-->
<!DOCTYPE svg
PUBLIC "-//W3C//DTD SVG 1.1//EN"
       "http://www.w3.org/Graphics/SVG/1.1/DTD/svg11.dtd">
<svg version="1.1" xmlns="http://www.w3.org/2000/svg" xmlns:xlink="http://www.w3.org/1999/xlink" width="18.8945" height="18.5431">
 <g>
  <rect height="18.5431" opacity="0" width="18.8945" x="0" y="0"/>
  <path d="M3.83626 4.84283Q4.4222 4.84283 4.9056 4.55963Q5.389 4.27642 5.67708 3.79302Q5.96517 3.30963 5.96517 2.71392Q5.96517 2.12798 5.67708 1.64459Q5.389 1.16119 4.9056 0.873102Q4.4222 0.585016 3.83626 0.585016Q3.25033 0.585016 2.76693 0.873102Q2.28353 1.16119 1.99544 1.64459Q1.70736 2.12798 1.70736 2.71392Q1.70736 3.30963 1.99544 3.79302Q2.28353 4.27642 2.76693 4.55963Q3.25033 4.84283 3.83626 4.84283ZM0.0276693 8.94439L0.594076 12.4405Q0.681966 12.919 0.984701 13.1241Q1.28743 13.3292 1.639 13.2754Q1.99056 13.2217 2.22005 12.9434Q2.44954 12.6651 2.37142 12.1866L1.87337 9.169L3.85579 8.39752Q4.36361 8.2022 4.54915 8.60259L6.37533 12.2159Q6.78548 13.0264 7.13704 13.3682Q7.48861 13.71 7.82064 13.9542L13.7093 18.2803Q14.0999 18.5635 14.4808 18.4756Q14.8617 18.3878 15.096 18.085Q15.3304 17.7823 15.2962 17.3917Q15.262 17.001 14.8226 16.6788L10.2425 13.3194Q10.0765 13.1924 10.0863 13.0069Q10.096 12.8213 10.2816 12.7139L13.3968 10.917L17.4788 12.8702Q17.9183 13.0753 18.2747 12.9288Q18.6312 12.7823 18.7972 12.4503Q18.9632 12.1182 18.846 11.7471Q18.7288 11.376 18.2113 11.1319L13.8558 9.06158Q13.4554 8.86627 13.0843 8.91021Q12.7132 8.95416 12.391 9.1397L10.3402 10.3409Q9.94954 10.5753 9.77376 10.2139L8.12337 6.85455Q8.00618 6.62017 8.05013 6.40533Q8.09408 6.19048 8.34798 6.0733L9.85189 5.3897Q10.223 5.21392 10.3939 5.04302Q10.5648 4.87213 10.6722 4.5108L11.6292 1.20025Q11.7562 0.731501 11.5706 0.428766Q11.3851 0.126032 11.0531 0.0332584Q10.721-0.059515 10.3988 0.106501Q10.0765 0.272516 9.93978 0.741266L9.01204 3.98345L0.691732 7.64556Q-0.138346 8.00689 0.0276693 8.94439Z" fill="#007aff"/>
 </g>
</svg>
