<?xml version="1.0" encoding="UTF-8"?>
<!--Generator: Apple Native CoreSVG 175.5-->
<!DOCTYPE svg
PUBLIC "-//W3C//DTD SVG 1.1//EN"
       "http://www.w3.org/Graphics/SVG/1.1/DTD/svg11.dtd">
<svg version="1.1" xmlns="http://www.w3.org/2000/svg" xmlns:xlink="http://www.w3.org/1999/xlink" width="19.0258" height="22.041">
 <g>
  <rect height="22.041" opacity="0" width="19.0258" x="0" y="0"/>
  <path d="M17.3828 21.1035L14.4531 17.6074Q14.2285 17.3535 14.1602 17.2217Q14.0918 17.0898 14.0039 16.8262L13.7891 16.1621L15.3613 14.1895L15.8301 16.3965L18.7305 19.834Q19.0723 20.2441 19.0186 20.6152Q18.9648 20.9863 18.6816 21.2207Q18.3984 21.4551 18.0322 21.4502Q17.666 21.4453 17.3828 21.1035ZM10.2344 20.8105Q10.0098 21.2695 9.62402 21.3818Q9.23828 21.4941 8.88672 21.3379Q8.53516 21.1816 8.38867 20.8154Q8.24219 20.4492 8.48633 19.9512L10.4785 15.918Q10.5957 15.6934 10.7422 15.4541Q10.8887 15.2148 11.0352 15.0195L12.2949 13.2324L12.207 12.9688Q11.9531 12.207 11.8359 11.6504Q11.7188 11.0938 11.6699 10.3418L11.4746 7.51953Q11.3965 6.52344 11.9531 5.84473Q12.5098 5.16602 13.5352 5.16602Q14.3066 5.16602 14.9023 5.54199Q15.498 5.91797 16.2109 6.61133L17.7051 8.08594Q18.0762 8.44727 18.2178 8.7793Q18.3594 9.11133 18.3984 9.58984L18.584 11.8945Q18.6133 12.334 18.3936 12.6123Q18.1738 12.8906 17.7637 12.9102Q17.3535 12.9395 17.1143 12.7051Q16.875 12.4707 16.8359 12.002L16.6211 9.47266L15.8984 8.82812Q15.7031 8.65234 15.5029 8.73535Q15.3027 8.81836 15.3223 9.01367L15.4785 11.1523Q15.5371 11.9629 15.332 12.4756Q15.127 12.9883 14.5605 13.6816L12.5879 16.1621Q12.4316 16.3477 12.3877 16.4502Q12.3438 16.5527 12.2754 16.6699ZM6.8457 8.97461L9.0918 8.97461L10.5176 7.40234L10.6836 9.75586L10.1172 10.3223Q9.88281 10.5566 9.62891 10.6445Q9.375 10.7324 8.94531 10.7324L6.8457 10.7324Q6.39648 10.7324 6.13281 10.498Q5.86914 10.2637 5.86914 9.85352Q5.86914 9.46289 6.1377 9.21875Q6.40625 8.97461 6.8457 8.97461ZM12.4512 4.28711Q11.8652 4.28711 11.3818 3.99902Q10.8984 3.71094 10.6104 3.22754Q10.3223 2.74414 10.3223 2.1582Q10.3223 1.5625 10.6104 1.0791Q10.8984 0.595703 11.3818 0.3125Q11.8652 0.0292969 12.4512 0.0292969Q13.0371 0.0292969 13.5205 0.3125Q14.0039 0.595703 14.292 1.0791Q14.5801 1.5625 14.5801 2.1582Q14.5801 2.74414 14.292 3.22754Q14.0039 3.71094 13.5205 3.99902Q13.0371 4.28711 12.4512 4.28711Z" fill="#007aff"/>
  <path d="M0 20.8496Q0 21.1816 0.239258 21.4209Q0.478516 21.6602 0.810547 21.6602Q1.15234 21.6602 1.3916 21.4209Q1.63086 21.1816 1.63086 20.8496L1.63086 0.810547Q1.63086 0.478516 1.3916 0.239258Q1.15234 0 0.810547 0Q0.478516 0 0.239258 0.239258Q0 0.478516 0 0.810547Z" fill="#007aff"/>
 </g>
</svg>
