<?xml version="1.0" encoding="UTF-8"?>
<!--Generator: Apple Native CoreSVG 175.5-->
<!DOCTYPE svg
PUBLIC "-//W3C//DTD SVG 1.1//EN"
       "http://www.w3.org/Graphics/SVG/1.1/DTD/svg11.dtd">
<svg version="1.1" xmlns="http://www.w3.org/2000/svg" xmlns:xlink="http://www.w3.org/1999/xlink" width="23.7207" height="19.8145">
 <g>
  <rect height="19.8145" opacity="0" width="23.7207" x="0" y="0"/>
  <path d="M5.44922 4.26758Q6.03516 4.26758 6.51855 3.97949Q7.00195 3.69141 7.29004 3.20312Q7.57812 2.71484 7.57812 2.11914Q7.57812 1.5332 7.29004 1.05469Q7.00195 0.576172 6.51855 0.288086Q6.03516 0 5.44922 0Q4.86328 0 4.375 0.288086Q3.88672 0.576172 3.59863 1.05469Q3.31055 1.5332 3.31055 2.11914Q3.31055 2.71484 3.59863 3.20312Q3.88672 3.69141 4.375 3.97949Q4.86328 4.26758 5.44922 4.26758ZM3.30078 16.8848Q3.84766 16.6895 4.32617 16.4453Q4.80469 16.2012 5.33203 15.9961L5.48828 14.5703Q5.49805 14.4922 5.58105 14.4775Q5.66406 14.4629 5.69336 14.5312L6.28906 15.7227Q6.52344 15.6738 6.78711 15.6445Q7.05078 15.6152 7.35352 15.6152Q7.71484 15.6152 8.00781 15.6689Q8.30078 15.7227 8.54492 15.8105L7.55859 13.1543L7.55859 7.27539Q7.55859 6.46484 7.01172 5.87891Q6.46484 5.29297 5.45898 5.29297L5 5.29297Q4.4043 5.29297 3.75 5.44434Q3.0957 5.5957 2.49023 6.19141L0.273438 8.39844Q0 8.67188 0 9.07227Q0 9.47266 0.273438 9.73633L3.30078 12.7246ZM3.30078 10.0977L2.28516 9.07227L2.99805 8.34961Q3.08594 8.26172 3.19336 8.30078Q3.30078 8.33984 3.30078 8.47656ZM1.47461 14.1504L22.1484 1.46484Q22.3438 1.34766 22.3926 1.12793Q22.4414 0.908203 22.3047 0.703125Q22.1875 0.507812 21.9727 0.458984Q21.7578 0.410156 21.5625 0.537109L0.898438 13.2129Q0.703125 13.3398 0.649414 13.5547Q0.595703 13.7695 0.732422 13.9746Q0.849609 14.1699 1.06445 14.2188Q1.2793 14.2676 1.47461 14.1504ZM1.15234 19.8047L2.14844 19.8047Q3.125 19.8047 3.78418 19.5605Q4.44336 19.3164 4.95117 18.999Q5.45898 18.6816 5.9668 18.4375Q6.47461 18.1934 7.1582 18.1934Q7.83203 18.1934 8.33984 18.4375Q8.84766 18.6816 9.36035 18.999Q9.87305 19.3164 10.5322 19.5605Q11.1914 19.8047 12.168 19.8047Q13.1445 19.8047 13.8037 19.5605Q14.4629 19.3164 14.9707 18.999Q15.4785 18.6816 15.9912 18.4375Q16.5039 18.1934 17.1777 18.1934Q17.8516 18.1934 18.3643 18.4375Q18.877 18.6816 19.3848 18.999Q19.8926 19.3164 20.5518 19.5605Q21.2109 19.8047 22.1875 19.8047L23.1836 19.8047Q23.4082 19.8047 23.5645 19.6484Q23.7207 19.4922 23.7207 19.2676Q23.7207 19.0332 23.5645 18.877Q23.4082 18.7207 23.1836 18.7207L22.1875 18.7207Q21.4844 18.7207 20.957 18.4766Q20.4297 18.2324 19.917 17.915Q19.4043 17.5977 18.7598 17.3535Q18.1152 17.1094 17.1777 17.1094Q16.2402 17.1094 15.5957 17.3535Q14.9512 17.5977 14.4385 17.915Q13.9258 18.2324 13.3984 18.4766Q12.8711 18.7207 12.168 18.7207Q11.4648 18.7207 10.9375 18.4766Q10.4102 18.2324 9.89746 17.915Q9.38477 17.5977 8.74023 17.3535Q8.0957 17.1094 7.1582 17.1094Q6.2207 17.1094 5.57617 17.3535Q4.93164 17.5977 4.41895 17.915Q3.90625 18.2324 3.37891 18.4766Q2.85156 18.7207 2.14844 18.7207L1.15234 18.7207Q0.927734 18.7207 0.766602 18.877Q0.605469 19.0332 0.605469 19.2676Q0.605469 19.4922 0.766602 19.6484Q0.927734 19.8047 1.15234 19.8047Z" fill="#007aff"/>
 </g>
</svg>
