<?xml version="1.0" encoding="UTF-8"?>
<!--Generator: Apple Native CoreSVG 175.5-->
<!DOCTYPE svg
PUBLIC "-//W3C//DTD SVG 1.1//EN"
       "http://www.w3.org/Graphics/SVG/1.1/DTD/svg11.dtd">
<svg version="1.1" xmlns="http://www.w3.org/2000/svg" xmlns:xlink="http://www.w3.org/1999/xlink" width="16.8688" height="21.2793">
 <g>
  <rect height="21.2793" opacity="0" width="16.8688" x="0" y="0"/>
  <path d="M6.54652 19.6973Q6.82972 19.6191 7.01527 19.5117Q7.20082 19.4043 7.318 19.1797L9.46644 15.3125Q9.51527 15.2148 9.62269 15.2148L14.8766 15.2148L14.8766 20.166Q14.8766 20.5859 15.1696 20.874Q15.4625 21.1621 15.8629 21.1621Q16.2828 21.1621 16.5758 20.874Q16.8688 20.5859 16.8688 20.166L16.8688 14.3359Q16.8688 13.8477 16.6051 13.5645Q16.3414 13.2812 15.8336 13.2324L11.4098 12.832L11.4098 7.27539Q11.4098 6.46484 10.8629 5.87891Q10.3161 5.29297 9.31019 5.29297L8.84144 5.29297Q8.24574 5.29297 7.74769 5.43457Q7.24964 5.57617 6.66371 6.01562L3.38246 8.47656Q3.09925 8.68164 3.01625 8.98926Q2.93324 9.29688 3.03578 9.59961Q3.13832 9.90234 3.43129 10.0977L7.44496 12.7637L7.44496 13.0176L5.69691 17.8613L0.735973 19.2285Q0.335582 19.3359 0.130504 19.6875Q-0.0745739 20.0391 0.0426136 20.4395Q0.159801 20.8594 0.496715 21.0498Q0.833629 21.2402 1.26332 21.1328ZM5.69691 9.21875L7.18129 8.10547Q7.26918 8.04688 7.35707 8.08594Q7.44496 8.125 7.44496 8.23242L7.44496 10.3809ZM9.31019 4.26758Q9.89613 4.26758 10.3746 3.97949Q10.8532 3.69141 11.1412 3.20312Q11.4293 2.71484 11.4293 2.11914Q11.4293 1.54297 11.1412 1.05957Q10.8532 0.576172 10.3746 0.288086Q9.89613 0 9.31019 0Q8.71449 0 8.22621 0.288086Q7.73793 0.576172 7.44984 1.05957Q7.16175 1.54297 7.16175 2.11914Q7.16175 2.71484 7.44984 3.20312Q7.73793 3.69141 8.22621 3.97949Q8.71449 4.26758 9.31019 4.26758Z" fill="#007aff"/>
 </g>
</svg>
