<?xml version="1.0" encoding="UTF-8"?>
<!--Generator: Apple Native CoreSVG 175.5-->
<!DOCTYPE svg
PUBLIC "-//W3C//DTD SVG 1.1//EN"
       "http://www.w3.org/Graphics/SVG/1.1/DTD/svg11.dtd">
<svg version="1.1" xmlns="http://www.w3.org/2000/svg" xmlns:xlink="http://www.w3.org/1999/xlink" width="23.5352" height="22.0605">
 <g>
  <rect height="22.0605" opacity="0" width="23.5352" x="0" y="0"/>
  <path d="M8.99414 10.7324Q9.58008 10.7324 10.0635 10.4443Q10.5469 10.1562 10.835 9.67285Q11.123 9.18945 11.123 8.59375Q11.123 8.00781 10.835 7.52441Q10.5469 7.04102 10.0635 6.75293Q9.58008 6.46484 8.99414 6.46484Q8.39844 6.46484 7.91504 6.75293Q7.43164 7.04102 7.14355 7.52441Q6.85547 8.00781 6.85547 8.59375Q6.85547 9.18945 7.14355 9.67285Q7.43164 10.1562 7.91504 10.4443Q8.39844 10.7324 8.99414 10.7324ZM10.0098 18.2324Q10.3711 18.0078 10.752 17.8174Q11.1328 17.627 11.5332 17.4805L11.5332 13.7695Q11.5332 13.5254 11.7773 13.5254L13.0176 13.5254Q13.4277 13.5254 13.7207 13.2324Q14.0137 12.9395 14.0137 12.5293L14.0137 6.45508L12.0215 8.05664L12.0215 11.543L8.51562 11.543Q7.86133 11.543 7.44629 11.9531Q7.03125 12.3633 7.03125 13.0176L7.03125 14.8828Q7.8418 15.4883 8.60352 16.3135Q9.36523 17.1387 10.0098 18.2324ZM15.5176 11.5137Q15.9277 11.5137 16.2207 11.2305Q16.5137 10.9473 16.5137 10.5273L16.5137 3.98438L14.5117 5.97656L14.5117 10.5273Q14.5117 10.9473 14.8096 11.2305Q15.1074 11.5137 15.5176 11.5137ZM12.0215 8.76953L13.125 8.76953L13.125 7.83203L20.0195 0.9375Q20.1758 0.78125 20.1758 0.551758Q20.1758 0.322266 20.0195 0.166016Q19.8535 0 19.6289 0Q19.4043 0 19.2383 0.166016L12.3047 7.08984Q12.0215 7.37305 12.0215 7.8418ZM0.546875 15.498Q1.65039 15.498 2.78809 15.7568Q3.92578 16.0156 5.00488 16.6699Q6.08398 17.3242 7.02637 18.501Q7.96875 19.6777 8.68164 21.5039Q8.81836 21.8848 9.1748 21.9531Q9.53125 22.0215 9.78516 21.7676Q11.4258 20.1172 13.418 19.6094Q15.4102 19.1016 18.1348 19.873Q18.3594 19.9316 18.5303 19.8438Q18.7012 19.7559 18.7988 19.5312Q19.3652 18.2324 20.4736 17.5732Q21.582 16.9141 22.9883 16.9141Q23.2227 16.9141 23.3789 16.7578Q23.5352 16.6016 23.5352 16.377Q23.5352 16.1426 23.3789 15.9863Q23.2227 15.8301 22.9883 15.8301Q21.4355 15.8301 20.0879 16.5723Q18.7402 17.3145 17.9883 18.7109Q15.3516 18.0566 13.2568 18.5547Q11.1621 19.0527 9.47266 20.5762Q8.66211 18.7207 7.60742 17.5195Q6.55273 16.3184 5.35645 15.6396Q4.16016 14.9609 2.9248 14.6875Q1.68945 14.4141 0.546875 14.4141Q0.3125 14.4141 0.15625 14.5752Q0 14.7363 0 14.9609Q0 15.1855 0.15625 15.3418Q0.3125 15.498 0.546875 15.498Z" fill="#007aff"/>
 </g>
</svg>
