<?xml version="1.0" encoding="UTF-8"?>
<!--Generator: Apple Native CoreSVG 175.5-->
<!DOCTYPE svg
PUBLIC "-//W3C//DTD SVG 1.1//EN"
       "http://www.w3.org/Graphics/SVG/1.1/DTD/svg11.dtd">
<svg version="1.1" xmlns="http://www.w3.org/2000/svg" xmlns:xlink="http://www.w3.org/1999/xlink" width="22.4231" height="20.7324">
 <g>
  <rect height="20.7324" opacity="0" width="22.4231" x="0" y="0"/>
  <path d="M16.6016 4.25781Q17.1777 4.25781 17.6611 3.96973Q18.1445 3.68164 18.4277 3.19824Q18.7109 2.71484 18.7109 2.11914Q18.7109 1.5332 18.4277 1.05469Q18.1445 0.576172 17.6611 0.288086Q17.1777 0 16.6016 0Q16.0059 0 15.5176 0.288086Q15.0293 0.576172 14.7461 1.05469Q14.4629 1.5332 14.4629 2.11914Q14.4629 2.71484 14.7461 3.19824Q15.0293 3.68164 15.5176 3.96973Q16.0059 4.25781 16.6016 4.25781ZM11.6504 20.0488L13.6328 20.0488L13.6328 13.7109Q13.6328 13.3789 13.4375 13.1152L11.2695 10.1953L14.0234 7.43164Q14.1602 7.28516 14.3457 7.28516Q14.5312 7.28516 14.668 7.43164L17.2852 10.0684Q17.4219 10.2148 17.6074 10.2783Q17.793 10.3418 17.9883 10.3418Q18.4082 10.3418 18.6816 10.0684L21.6113 7.13867Q21.7676 6.98242 21.8359 6.79688Q21.9043 6.61133 21.9043 6.43555Q21.9043 5.99609 21.6113 5.72754Q21.3184 5.45898 20.918 5.43945Q20.5176 5.41992 20.1953 5.73242L17.9883 7.93945L14.2578 4.23828Q13.8965 3.88672 13.5059 3.69629Q13.1152 3.50586 12.5391 3.50586L8.38867 3.50586Q7.87109 3.50586 7.50977 3.85742L4.66797 6.69922Q4.3457 7.02148 4.36523 7.42188Q4.38477 7.82227 4.6582 8.11523Q4.93164 8.4082 5.36133 8.4082Q5.77148 8.4082 6.05469 8.10547L8.68164 5.48828L10.4199 5.48828Q10.5273 5.48828 10.5615 5.57129Q10.5957 5.6543 10.5078 5.73242L8.38867 7.86133Q7.73438 8.51562 7.72949 9.36035Q7.72461 10.2051 8.38867 10.8691L11.6504 14.1211ZM7.2168 10.8887L5.83984 12.7344L0.986328 12.7344Q0.585938 12.7344 0.292969 13.0176Q0 13.3008 0 13.7207Q0 14.1309 0.292969 14.4141Q0.585938 14.6973 0.986328 14.6973L6.32812 14.6973Q6.75781 14.6973 7.08984 14.3652L8.82812 12.6367L7.72461 11.543Q7.41211 11.2207 7.2168 10.8887ZM20.8203 17.5488Q20.8203 17.7734 20.9814 17.9346Q21.1426 18.0957 21.3477 18.0957Q21.582 18.0957 21.7432 17.9346Q21.9043 17.7734 21.9043 17.5488L21.9043 6.43555L20.8203 6.43555ZM0.644531 7.32422Q0.419922 7.32422 0.258789 7.48047Q0.0976562 7.63672 0.0976562 7.85156Q0.0976562 8.07617 0.258789 8.24219Q0.419922 8.4082 0.644531 8.4082L5.36133 8.4082L5.36133 7.32422ZM19.8047 20.7129Q20.5566 20.7129 21.0645 20.5469Q21.5723 20.3809 22.0898 20.1367Q22.3145 20.0391 22.3877 19.8389Q22.4609 19.6387 22.3828 19.4531Q22.3242 19.248 22.1094 19.1406Q21.8945 19.0332 21.6309 19.1699Q21.2109 19.3848 20.8203 19.5068Q20.4297 19.6289 19.8047 19.6289L2.72461 19.6289Q2.5 19.6289 2.33887 19.7803Q2.17773 19.9316 2.17773 20.1562Q2.17773 20.3711 2.33398 20.542Q2.49023 20.7129 2.72461 20.7129Z" fill="#007aff"/>
 </g>
</svg>
