<?xml version="1.0" encoding="UTF-8"?>
<!--Generator: Apple Native CoreSVG 175.5-->
<!DOCTYPE svg
PUBLIC "-//W3C//DTD SVG 1.1//EN"
       "http://www.w3.org/Graphics/SVG/1.1/DTD/svg11.dtd">
<svg version="1.1" xmlns="http://www.w3.org/2000/svg" xmlns:xlink="http://www.w3.org/1999/xlink" width="19.1406" height="25.3938">
 <g>
  <rect height="25.3938" opacity="0" width="19.1406" x="0" y="0"/>
  <path d="M17.0215 9.44004Q17.6074 9.44004 18.0908 9.15196Q18.5742 8.86387 18.8574 8.37559Q19.1406 7.88731 19.1406 7.29161Q19.1406 6.70567 18.8574 6.22227Q18.5742 5.73887 18.0908 5.45567Q17.6074 5.17246 17.0215 5.17246Q16.4258 5.17246 15.9375 5.45567Q15.4492 5.73887 15.1611 6.22227Q14.873 6.70567 14.873 7.29161Q14.873 7.88731 15.1611 8.37559Q15.4492 8.86387 15.9375 9.15196Q16.4258 9.44004 17.0215 9.44004ZM8.28125 17.0963L11.9043 19.7428L9.79492 23.9518Q9.60938 24.3131 9.74121 24.7086Q9.87305 25.1041 10.2441 25.2994Q10.5762 25.4557 10.9717 25.3531Q11.3672 25.2506 11.5625 24.8502L14.0332 19.9088Q14.1992 19.5865 14.1406 19.2643Q14.082 18.942 13.8281 18.6979L11.9629 16.9498L15.1367 16.9498Q15.5664 16.9498 15.8496 16.6568Q16.1328 16.3639 16.1328 15.9537L16.1328 11.9791Q16.1328 11.1686 15.7373 10.4898Q15.3418 9.81114 14.6631 9.41075Q13.9844 9.01036 13.1641 9.01036L9.50195 9.01036L10.1367 6.78379Q10.2441 6.39317 10.0537 6.03672Q9.86328 5.68028 9.46289 5.56309Q9.07227 5.4459 8.71582 5.6461Q8.35938 5.84629 8.24219 6.23692L7.25586 9.71348Q7.11914 10.2115 7.37793 10.5973Q7.63672 10.983 8.16406 10.983L11.7285 10.983Q11.7578 10.983 11.7725 11.0172Q11.7871 11.0514 11.7578 11.0709L8.65234 12.6432Q7.99805 12.9654 7.63184 13.5318Q7.26562 14.0982 7.21191 14.7574Q7.1582 15.4166 7.42188 16.0367Q7.68555 16.6568 8.28125 17.0963ZM12.041 15.0064L14.0137 14.0689Q14.082 14.0397 14.1455 14.0787Q14.209 14.1178 14.209 14.1861L14.209 15.0064ZM6.83594 16.9205L5.98633 19.4205L1.01562 19.4205Q0.595703 19.4205 0.297852 19.7135Q0 20.0064 0 20.4166Q0 20.8463 0.297852 21.1393Q0.595703 21.4322 1.01562 21.4322L6.69922 21.4322Q6.98242 21.4322 7.23145 21.2809Q7.48047 21.1295 7.60742 20.8561L8.74023 18.5904L7.72461 17.858Q7.19727 17.4674 6.83594 16.9205ZM8.78906 4.39121L9.58984 4.39121Q9.88281 4.02989 10.1709 3.55137Q10.459 3.07286 10.6543 2.57481Q10.8496 2.07676 10.8496 1.67637Q10.8496 0.934183 10.3906 0.470316Q9.93164 0.006449 9.19922 0.006449Q8.45703 0.006449 7.98828 0.470316Q7.51953 0.934183 7.51953 1.67637Q7.51953 2.12559 7.71484 2.6334Q7.91016 3.14121 8.19824 3.60508Q8.48633 4.06895 8.78906 4.39121ZM8.63281 14.6451L9.73633 14.6451L9.73633 4.02989L8.63281 4.02989Z" fill="#007aff"/>
 </g>
</svg>
