<?xml version="1.0" encoding="UTF-8"?>
<!--Generator: Apple Native CoreSVG 175.5-->
<!DOCTYPE svg
PUBLIC "-//W3C//DTD SVG 1.1//EN"
       "http://www.w3.org/Graphics/SVG/1.1/DTD/svg11.dtd">
<svg version="1.1" xmlns="http://www.w3.org/2000/svg" xmlns:xlink="http://www.w3.org/1999/xlink" width="15.4201" height="22.9199">
 <g>
  <rect height="22.9199" opacity="0" width="15.4201" x="0" y="0"/>
  <path d="M13.1812 4.26758Q13.7574 4.26758 14.2408 3.97949Q14.7242 3.69141 15.0123 3.20312Q15.3004 2.71484 15.3004 2.11914Q15.3004 1.5332 15.0123 1.05469Q14.7242 0.576172 14.2408 0.288086Q13.7574 0 13.1812 0Q12.5855 0 12.0972 0.288086Q11.6089 0.576172 11.3209 1.05469Q11.0328 1.5332 11.0328 2.11914Q11.0328 2.71484 11.3209 3.20312Q11.6089 3.69141 12.0972 3.97949Q12.5855 4.26758 13.1812 4.26758ZM8.27887 19.3457Q8.69879 19.3457 9.00152 19.0479Q9.30426 18.75 9.30426 18.3398L9.30426 13.2227Q9.30426 12.8613 9.06988 12.5879L6.75543 9.74609Q6.64801 9.60938 6.67731 9.47754Q6.7066 9.3457 6.84332 9.26758L9.65582 7.80273Q9.81207 7.72461 9.94879 7.77832Q10.0855 7.83203 10.105 8.01758L10.3492 9.74609Q10.4273 10.293 11.023 10.5859L13.8062 11.9824Q14.3726 12.2656 14.7877 12.0996Q15.2027 11.9336 15.3492 11.5723Q15.4859 11.2402 15.3589 10.8496Q15.232 10.459 14.7632 10.2246L12.2828 8.95508L11.8824 6.00586Q11.7652 5.21484 11.2183 4.68262Q10.6714 4.15039 9.88531 4.02344Q9.09918 3.89648 8.2691 4.33594L4.59723 6.25Q3.75738 6.68945 3.40094 7.40234Q3.04449 8.11523 3.17633 8.89648Q3.30817 9.67773 3.94293 10.3125L7.29254 13.6523L7.29254 18.3398Q7.29254 18.75 7.58551 19.0479Q7.87848 19.3457 8.27887 19.3457ZM0.466368 13.0273Q0.749571 13.5352 1.23785 13.7061Q1.72613 13.877 2.25348 13.7598L4.36285 13.291Q4.58746 13.252 4.71442 13.0957Q4.84137 12.9395 4.84137 12.7051Q4.84137 12.4805 4.69977 12.3291Q4.55817 12.1777 4.34332 12.1387L0.739806 11.5137Q0.290587 11.4355 0.0952744 11.7285Q-0.100038 12.0215 0.10504 12.3926ZM2.17535 13.125L4.81207 20.957L5.87652 20.5859L3.27887 12.793ZM8.25934 22.8711Q9.34332 22.8711 10.2173 22.3535Q11.0914 21.8359 11.6089 20.9619Q12.1265 20.0879 12.1265 19.0137Q12.1265 17.9102 11.565 17.0117Q11.0035 16.1133 10.0855 15.6152L10.0855 17.0801Q10.4859 17.4414 10.7007 17.9395Q10.9156 18.4375 10.9156 19.0137Q10.9156 19.7461 10.5543 20.3467Q10.1929 20.9473 9.59234 21.3037Q8.99176 21.6602 8.25934 21.6602Q7.53668 21.6602 6.93609 21.2988Q6.33551 20.9375 5.97418 20.3369Q5.61285 19.7363 5.61285 19.0137Q5.61285 18.4375 5.85211 17.9248Q6.09137 17.4121 6.50152 17.041L6.50152 15.5957Q5.57379 16.0645 4.98785 16.9824Q4.40192 17.9004 4.40192 19.0137Q4.40192 20.0879 4.92438 20.9619Q5.44684 21.8359 6.32574 22.3535Q7.20465 22.8711 8.25934 22.8711ZM10.6226 20.6934L11.7164 21.0645L14.1773 13.584Q14.2554 13.3691 14.1529 13.1494Q14.0504 12.9297 13.8453 12.8711Q13.6011 12.793 13.4009 12.9053Q13.2007 13.0176 13.1324 13.2324ZM2.88824 22.041Q2.69293 22.168 2.65875 22.373Q2.62457 22.5781 2.73199 22.7393Q2.83942 22.9004 3.07379 22.9004L13.4351 22.9004Q13.6695 22.9004 13.7818 22.7344Q13.8941 22.5684 13.8599 22.3633Q13.8257 22.1582 13.6402 22.041L11.3453 20.5371L9.2652 21.9727L7.25348 21.9727L5.1734 20.5371Z" fill="#007aff"/>
 </g>
</svg>
