<?xml version="1.0" encoding="UTF-8"?>
<!--Generator: Apple Native CoreSVG 175.5-->
<!DOCTYPE svg
PUBLIC "-//W3C//DTD SVG 1.1//EN"
       "http://www.w3.org/Graphics/SVG/1.1/DTD/svg11.dtd">
<svg version="1.1" xmlns="http://www.w3.org/2000/svg" xmlns:xlink="http://www.w3.org/1999/xlink" width="23.462" height="22.9199">
 <g>
  <rect height="22.9199" opacity="0" width="23.462" x="0" y="0"/>
  <path d="M17.7734 11.2695Q18.3594 11.2695 18.8428 10.9814Q19.3262 10.6934 19.6143 10.21Q19.9023 9.72656 19.9023 9.14062Q19.9023 8.54492 19.6143 8.06152Q19.3262 7.57812 18.8428 7.29004Q18.3594 7.00195 17.7734 7.00195Q17.1777 7.00195 16.6943 7.29004Q16.2109 7.57812 15.9229 8.06152Q15.6348 8.54492 15.6348 9.14062Q15.6348 9.72656 15.9229 10.21Q16.2109 10.6934 16.6943 10.9814Q17.1777 11.2695 17.7734 11.2695ZM10.9863 18.9258L14.834 18.9258L18.8281 14.9316Q18.9746 14.7852 19.1846 14.7852Q19.3945 14.7852 19.5312 14.9316L21.1719 16.5625L19.4727 18.2715Q19.1504 18.6035 19.1846 18.9697Q19.2188 19.3359 19.4824 19.5947Q19.7461 19.8535 20.1123 19.8926Q20.4785 19.9316 20.8008 19.5996L23.1738 17.2363Q23.4668 16.9434 23.4619 16.5576Q23.457 16.1719 23.1738 15.8887L20.4102 13.1348Q20.0098 12.7344 19.4971 12.5146Q18.9844 12.2949 18.418 12.2949L11.2305 12.2949L11.2305 14.1992L13.623 14.1992Q13.75 14.1992 13.7988 14.3066Q13.8477 14.4141 13.7598 14.502L10.9863 17.2656ZM1.35742 18.9258L11.5625 18.9258L11.5625 1.01562Q11.5625 0.654297 11.2793 0.458984Q10.9961 0.263672 10.6396 0.327148Q10.2832 0.390625 10.0488 0.810547L0.693359 17.6465Q0.410156 18.1641 0.634766 18.5449Q0.859375 18.9258 1.35742 18.9258ZM2.06055 17.8418Q1.97266 17.8418 1.94336 17.7783Q1.91406 17.7148 1.94336 17.666L10.2441 2.70508Q10.293 2.61719 10.3857 2.63184Q10.4785 2.64648 10.4785 2.74414L10.4785 17.8418ZM0.546875 22.9199L1.5332 22.9199Q2.51953 22.9199 3.17871 22.6758Q3.83789 22.4316 4.3457 22.1143Q4.85352 21.7969 5.36133 21.5527Q5.86914 21.3086 6.55273 21.3086Q7.22656 21.3086 7.73438 21.5527Q8.24219 21.7969 8.75 22.1143Q9.25781 22.4316 9.91699 22.6758Q10.5762 22.9199 11.5625 22.9199Q12.5391 22.9199 13.1982 22.6758Q13.8574 22.4316 14.3652 22.1143Q14.873 21.7969 15.3809 21.5527Q15.8887 21.3086 16.5723 21.3086Q17.2461 21.3086 17.7539 21.5527Q18.2617 21.7969 18.7744 22.1143Q19.2871 22.4316 19.9463 22.6758Q20.6055 22.9199 21.582 22.9199L22.5781 22.9199Q22.8027 22.9199 22.959 22.7637Q23.1152 22.6074 23.1152 22.3828Q23.1152 22.1484 22.959 21.9922Q22.8027 21.8359 22.5781 21.8359L21.582 21.8359Q20.8789 21.8359 20.3516 21.5918Q19.8242 21.3477 19.3115 21.0303Q18.7988 20.7129 18.1543 20.4688Q17.5098 20.2246 16.5723 20.2246Q15.6348 20.2246 14.9902 20.4688Q14.3457 20.7129 13.833 21.0303Q13.3203 21.3477 12.793 21.5918Q12.2656 21.8359 11.5625 21.8359Q10.8594 21.8359 10.332 21.5918Q9.80469 21.3477 9.29199 21.0303Q8.7793 20.7129 8.13477 20.4688Q7.49023 20.2246 6.55273 20.2246Q5.60547 20.2246 4.96094 20.4688Q4.31641 20.7129 3.80371 21.0303Q3.29102 21.3477 2.76367 21.5918Q2.23633 21.8359 1.5332 21.8359L0.546875 21.8359Q0.322266 21.8359 0.161133 21.9922Q0 22.1484 0 22.3828Q0 22.6074 0.161133 22.7637Q0.322266 22.9199 0.546875 22.9199Z" fill="#007aff"/>
 </g>
</svg>
