<?xml version="1.0" encoding="UTF-8"?>
<!--Generator: Apple Native CoreSVG 175.5-->
<!DOCTYPE svg
PUBLIC "-//W3C//DTD SVG 1.1//EN"
       "http://www.w3.org/Graphics/SVG/1.1/DTD/svg11.dtd">
<svg version="1.1" xmlns="http://www.w3.org/2000/svg" xmlns:xlink="http://www.w3.org/1999/xlink" width="21.4029" height="23.4082">
 <g>
  <rect height="23.4082" opacity="0" width="21.4029" x="0" y="0"/>
  <path d="M14.5279 4.24805Q15.1138 4.24805 15.5972 3.96484Q16.0806 3.68164 16.3687 3.19824Q16.6568 2.71484 16.6568 2.12891Q16.6568 1.5332 16.3687 1.0498Q16.0806 0.566406 15.5972 0.283203Q15.1138 0 14.5279 0Q13.942 0 13.4586 0.283203Q12.9752 0.566406 12.6871 1.0498Q12.399 1.5332 12.399 2.12891Q12.399 2.71484 12.6871 3.19824Q12.9752 3.68164 13.4586 3.96484Q13.942 4.24805 14.5279 4.24805ZM3.94195 14.375L9.56695 14.375L14.7623 15.1074Q16.2271 15.3125 17.1695 14.6924Q18.1119 14.0723 18.1119 12.6758L18.1119 9.16016Q18.1119 9.02344 18.2193 8.98438Q18.3267 8.94531 18.4146 9.0332L19.3814 10.0098L19.3814 13.3496Q19.3814 13.7695 19.6841 14.0723Q19.9869 14.375 20.397 14.375Q20.817 14.375 21.1099 14.0723Q21.4029 13.7695 21.4029 13.3496L21.4029 9.58008Q21.4029 9.15039 21.1002 8.85742L18.6392 6.40625Q18.0826 5.86914 17.3941 5.57129Q16.7056 5.27344 15.9244 5.27344L6.2857 5.27344Q5.87554 5.27344 5.57281 5.57617Q5.27008 5.87891 5.27008 6.28906Q5.27008 6.70898 5.56793 7.00684Q5.86578 7.30469 6.2857 7.30469L13.6978 7.30469Q13.9127 7.30469 14.0591 7.45605Q14.2056 7.60742 14.2056 7.8125L14.2056 12.3438L3.94195 12.3438Q3.51226 12.3438 3.21441 12.6367Q2.91656 12.9297 2.91656 13.3496Q2.91656 13.7695 3.21929 14.0723Q3.52203 14.375 3.94195 14.375ZM16.4029 23.0176Q16.6959 23.3105 17.1109 23.3105Q17.5259 23.3105 17.8189 23.0176Q18.1216 22.7246 18.1168 22.3096Q18.1119 21.8945 17.8189 21.5918L14.5865 18.3203L15.7388 16.084Q15.4849 16.1035 15.2017 16.0889Q14.9185 16.0742 14.6255 16.0352L13.2291 15.8398L12.3795 18.1836Q12.1646 18.7793 12.6236 19.2383ZM0.992732 10.0586Q1.6275 10.6836 2.27203 10.8887Q2.91656 11.0938 3.43414 11.0059Q3.95172 10.918 4.22515 10.6543Q4.48883 10.3809 4.5523 9.88281Q4.61578 9.38477 4.38629 8.76953Q4.15679 8.1543 3.53179 7.51953Q2.88726 6.88477 2.26715 6.65039Q1.64703 6.41602 1.14898 6.48438Q0.650935 6.55273 0.377497 6.82617Q0.113826 7.08984 0.0259349 7.60742Q-0.0619557 8.125 0.148005 8.76953Q0.357966 9.41406 0.992732 10.0586Z" fill="#007aff"/>
 </g>
</svg>
