<?xml version="1.0" encoding="UTF-8"?>
<!--Generator: Apple Native CoreSVG 175.5-->
<!DOCTYPE svg
PUBLIC "-//W3C//DTD SVG 1.1//EN"
       "http://www.w3.org/Graphics/SVG/1.1/DTD/svg11.dtd">
<svg version="1.1" xmlns="http://www.w3.org/2000/svg" xmlns:xlink="http://www.w3.org/1999/xlink" width="18.3707" height="20.8887">
 <g>
  <rect height="20.8887" opacity="0" width="18.3707" x="0" y="0"/>
  <path d="M3.40979 4.26758Q3.99572 4.26758 4.47912 3.97949Q4.96252 3.69141 5.25061 3.20801Q5.53869 2.72461 5.53869 2.13867Q5.53869 1.54297 5.25061 1.05957Q4.96252 0.576172 4.47912 0.288086Q3.99572 0 3.40979 0Q2.81408 0 2.33069 0.288086Q1.84729 0.576172 1.5592 1.05957Q1.27111 1.54297 1.27111 2.13867Q1.27111 2.72461 1.5592 3.20801Q1.84729 3.69141 2.33069 3.97949Q2.81408 4.26758 3.40979 4.26758ZM6.76916 20.7324Q7.13049 20.8301 7.4967 20.6543Q7.86291 20.4785 7.9801 20.0391L9.45471 14.6875Q9.59143 14.1699 9.39123 13.8184Q9.19104 13.4668 8.67346 13.3203L4.37658 12.0996L4.70861 8.33008Q4.71838 8.24219 4.80139 8.20312Q4.8844 8.16406 4.95276 8.22266L6.94494 9.64844Q7.20861 9.84375 7.52111 9.84375Q7.83361 9.84375 8.10705 9.64844L11.5738 7.16797Q11.9156 6.93359 11.984 6.52832Q12.0524 6.12305 11.8082 5.78125Q11.5738 5.43945 11.1637 5.37598Q10.7535 5.3125 10.4215 5.54688L7.53088 7.62695L5.14807 5.91797Q4.77697 5.64453 4.31799 5.46875Q3.85901 5.29297 3.2926 5.29297Q2.34533 5.29297 1.70569 5.83008Q1.06604 6.36719 1.00744 7.20703L0.675412 11.8555Q0.607052 12.9004 1.11975 13.6133Q1.63244 14.3262 2.79455 14.4922L7.25744 15.1367L6.06604 19.5117Q5.94885 19.9512 6.15881 20.2881Q6.36877 20.625 6.76916 20.7324ZM15.7145 8.65234Q16.4371 8.65234 17.0426 8.29102Q17.6481 7.92969 18.0094 7.32422Q18.3707 6.71875 18.3707 5.98633Q18.3707 5.25391 18.0094 4.65332Q17.6481 4.05273 17.0426 3.69629Q16.4371 3.33984 15.7145 3.33984Q14.9723 3.33984 14.3717 3.69629Q13.7711 4.05273 13.4098 4.65332Q13.0485 5.25391 13.0485 5.98633Q13.0485 6.71875 13.4098 7.32422Q13.7711 7.92969 14.3717 8.29102Q14.9723 8.65234 15.7145 8.65234ZM15.7145 7.56836Q15.0406 7.56836 14.5865 7.11426Q14.1324 6.66016 14.1324 5.98633Q14.1324 5.33203 14.5865 4.87793Q15.0406 4.42383 15.7145 4.42383Q16.3883 4.42383 16.8375 4.87793Q17.2867 5.33203 17.2867 5.98633Q17.2867 6.66016 16.8375 7.11426Q16.3883 7.56836 15.7145 7.56836ZM9.2594 20.8203L14.7574 20.8203Q15.0406 20.8203 15.1725 20.6348Q15.3043 20.4492 15.275 20.21Q15.2457 19.9707 15.0211 19.8145L13.0875 18.5352Q13.234 18.3008 13.3317 18.0469Q13.4293 17.793 13.4977 17.5098L15.7731 8.4375L14.6891 8.18359L12.4235 17.2559Q12.15 18.3496 11.276 19.0332Q10.402 19.7168 9.2594 19.7168Q9.02502 19.7168 8.86877 19.8828Q8.71252 20.0488 8.71252 20.2734Q8.71252 20.4883 8.86877 20.6543Q9.02502 20.8203 9.2594 20.8203ZM1.99377 17.1094L3.9469 16.6895Q4.13244 16.6602 4.23498 16.5137Q4.33752 16.3672 4.33752 16.1816Q4.33752 15.9961 4.22033 15.8594Q4.10315 15.7227 3.92736 15.7031L0.636349 15.1367Q0.362912 15.0977 0.216427 15.21Q0.069943 15.3223 0.0357633 15.5078Q0.00158361 15.6934 0.0894742 15.8789L0.275021 16.2402Q0.528927 16.7676 0.953732 17.002Q1.37854 17.2363 1.99377 17.1094ZM0.56799 20.8203L4.79651 20.8203Q5.04065 20.8203 5.1969 20.6592Q5.35315 20.498 5.35315 20.2734Q5.35315 20.0488 5.1969 19.8828Q5.04065 19.7168 4.79651 19.7168Q4.31799 19.7168 3.98108 19.4922Q3.64416 19.2676 3.52697 18.7012L2.9508 16.1035L1.87658 16.3379L2.33557 18.4473L0.265255 19.8145Q0.0406461 19.9707 0.00646643 20.21Q-0.0277133 20.4492 0.118771 20.6348Q0.265255 20.8203 0.56799 20.8203Z" fill="#007aff"/>
 </g>
</svg>
