<?xml version="1.0" encoding="UTF-8"?>
<!--Generator: Apple Native CoreSVG 175.5-->
<!DOCTYPE svg
PUBLIC "-//W3C//DTD SVG 1.1//EN"
       "http://www.w3.org/Graphics/SVG/1.1/DTD/svg11.dtd">
<svg version="1.1" xmlns="http://www.w3.org/2000/svg" xmlns:xlink="http://www.w3.org/1999/xlink" width="19.3652" height="24.502">
 <g>
  <rect height="24.502" opacity="0" width="19.3652" x="0" y="0"/>
  <path d="M11.4844 4.26758Q12.0703 4.26758 12.5537 3.97949Q13.0371 3.69141 13.3252 3.20801Q13.6133 2.72461 13.6133 2.11914Q13.6133 1.5332 13.3252 1.05469Q13.0371 0.576172 12.5537 0.288086Q12.0703 0 11.4844 0Q10.8887 0 10.4053 0.288086Q9.92188 0.576172 9.63379 1.05469Q9.3457 1.5332 9.3457 2.11914Q9.3457 2.72461 9.63379 3.20801Q9.92188 3.69141 10.4053 3.97949Q10.8887 4.26758 11.4844 4.26758ZM1.98242 16.0254L8.41797 16.0254Q8.86719 16.0254 9.13086 15.7471Q9.39453 15.4688 9.42383 15.0928Q9.45312 14.7168 9.19922 14.4141L7.1875 11.9434L12.9492 11.5625L18.3594 11.5625Q18.7695 11.5625 19.0674 11.2744Q19.3652 10.9863 19.3652 10.5762Q19.3652 10.166 19.0674 9.87305Q18.7695 9.58008 18.3594 9.58008L8.34961 9.58008L10.7129 7.20703Q10.8984 7.03125 11.1035 7.06055L18.1934 7.97852Q18.623 8.02734 18.96 7.74414Q19.2969 7.46094 19.2969 7.00195Q19.2969 6.63086 19.0527 6.35254Q18.8086 6.07422 18.4375 6.02539L3.59375 4.15039Q3.13477 4.0918 2.77344 4.42383L0.292969 6.9043Q0 7.19727 0 7.59277Q0 7.98828 0.292969 8.29102Q0.556641 8.56445 0.976562 8.5791Q1.39648 8.59375 1.68945 8.29102L3.82812 6.16211L6.14258 6.45508Q6.30859 6.47461 6.35742 6.61133Q6.40625 6.74805 6.28906 6.86523L4.10156 9.02344Q3.4668 9.6582 3.44727 10.5518Q3.42773 11.4453 4.10156 12.1191L6.01562 14.0527L1.98242 14.0527Q1.57227 14.0527 1.28418 14.3408Q0.996094 14.6289 0.996094 15.0391Q0.996094 15.4395 1.28418 15.7324Q1.57227 16.0254 1.98242 16.0254ZM11.5918 24.502Q11.8164 24.502 11.9727 24.3457Q12.1289 24.1895 12.1289 23.9648L12.1289 13.7891Q12.1289 13.5645 11.9727 13.4082Q11.8164 13.252 11.5918 13.252Q11.3574 13.252 11.2012 13.4082Q11.0449 13.5645 11.0449 13.7891L11.0449 23.9648Q11.0449 24.1895 11.2012 24.3457Q11.3574 24.502 11.5918 24.502Z" fill="#007aff"/>
 </g>
</svg>
