<?xml version="1.0" encoding="UTF-8"?>
<!--Generator: Apple Native CoreSVG 175.5-->
<!DOCTYPE svg
PUBLIC "-//W3C//DTD SVG 1.1//EN"
       "http://www.w3.org/Graphics/SVG/1.1/DTD/svg11.dtd">
<svg version="1.1" xmlns="http://www.w3.org/2000/svg" xmlns:xlink="http://www.w3.org/1999/xlink" width="20.1693" height="21.709">
 <g>
  <rect height="21.709" opacity="0" width="20.1693" x="0" y="0"/>
  <path d="M13.7207 4.26758Q14.3066 4.26758 14.79 3.97949Q15.2734 3.69141 15.5566 3.20801Q15.8398 2.72461 15.8398 2.12891Q15.8398 1.5332 15.5566 1.0498Q15.2734 0.566406 14.79 0.283203Q14.3066 0 13.7207 0Q13.125 0 12.6367 0.283203Q12.1484 0.566406 11.8604 1.0498Q11.5723 1.5332 11.5723 2.12891Q11.5723 2.72461 11.8604 3.20801Q12.1484 3.69141 12.6367 3.97949Q13.125 4.26758 13.7207 4.26758ZM7.07031 21.6992Q7.48047 21.6992 7.7832 21.4062Q8.08594 21.1133 8.08594 20.6934L8.08594 11.5234Q9.75586 11.25 11.1133 10.2197Q12.4707 9.18945 13.1738 7.67578Q13.2324 7.5293 13.4082 7.46582Q13.584 7.40234 13.877 7.50977L18.8184 9.16992Q19.3262 9.3457 19.668 9.12598Q20.0098 8.90625 20.1172 8.54492Q20.2344 8.18359 20.0879 7.79785Q19.9414 7.41211 19.4629 7.25586L4.6582 2.31445Q4.14062 2.13867 3.80371 2.3584Q3.4668 2.57812 3.34961 2.93945Q3.23242 3.30078 3.38379 3.68652Q3.53516 4.07227 4.01367 4.22852L9.33594 6.00586Q9.52148 6.07422 9.59473 6.25977Q9.66797 6.44531 9.55078 6.64062Q9.13086 7.31445 8.50586 7.69043Q7.88086 8.06641 7.07031 8.06641L2.02148 8.06641L2.02148 2.99805Q2.02148 2.54883 1.74316 2.27051Q1.46484 1.99219 1.00586 1.99219Q0.556641 1.99219 0.27832 2.27051Q0 2.54883 0 2.99805L0 8.99414Q0 9.49219 0.229492 9.74121Q0.458984 9.99023 0.839844 10.0586L5.3125 10.8008L6.06445 15.2148L6.06445 20.6934Q6.06445 21.1133 6.35742 21.4062Q6.65039 21.6992 7.07031 21.6992Z" fill="#007aff"/>
 </g>
</svg>
