<?xml version="1.0" encoding="UTF-8"?>
<!--Generator: Apple Native CoreSVG 175.5-->
<!DOCTYPE svg
PUBLIC "-//W3C//DTD SVG 1.1//EN"
       "http://www.w3.org/Graphics/SVG/1.1/DTD/svg11.dtd">
<svg version="1.1" xmlns="http://www.w3.org/2000/svg" xmlns:xlink="http://www.w3.org/1999/xlink" width="21.2207" height="24.2676">
 <g>
  <rect height="24.2676" opacity="0" width="21.2207" x="0" y="0"/>
  <path d="M16.0254 4.39453Q16.6016 4.39453 17.0898 4.10645Q17.5781 3.81836 17.8662 3.33496Q18.1543 2.85156 18.1543 2.26562Q18.1543 1.67969 17.8662 1.19629Q17.5781 0.712891 17.0898 0.419922Q16.6016 0.126953 16.0254 0.126953Q15.4395 0.126953 14.9512 0.419922Q14.4629 0.712891 14.1748 1.19629Q13.8867 1.67969 13.8867 2.26562Q13.8867 2.85156 14.1748 3.33496Q14.4629 3.81836 14.9512 4.10645Q15.4395 4.39453 16.0254 4.39453ZM12.2363 18.0957Q12.6562 18.0957 12.9443 17.8027Q13.2324 17.5098 13.2324 17.0996L13.2324 12.3926Q13.2324 11.9434 12.959 11.6895L10.3711 9.11133L12.6758 6.79688Q12.7832 6.68945 12.9443 6.68945Q13.1055 6.68945 13.2129 6.79688L14.8242 8.41797Q14.9512 8.55469 15.1367 8.62793Q15.3223 8.70117 15.5176 8.70117L20.2246 8.70117Q20.6445 8.70117 20.9326 8.4082Q21.2207 8.11523 21.2207 7.69531Q21.2207 7.28516 20.9326 6.99219Q20.6445 6.69922 20.2246 6.69922L15.9277 6.69922L12.4316 3.18359Q12.0996 2.8418 11.6455 2.66113Q11.1914 2.48047 10.7227 2.48047L7.04102 2.48047Q6.54297 2.48047 6.28906 2.77832Q6.03516 3.07617 6.0498 3.48145Q6.06445 3.88672 6.37695 4.19922L8.01758 5.83008L6.69922 7.11914Q6.28906 7.5293 6.15234 8.08105Q6.01562 8.63281 6.15234 9.18457Q6.28906 9.73633 6.69922 10.1465L8.4375 11.8652L8.4375 17.334Q8.4375 17.7441 8.72559 18.0371Q9.01367 18.3301 9.43359 18.3301Q9.84375 18.3301 10.1367 18.0371Q10.4297 17.7441 10.4297 17.334L10.4297 12.002L11.2402 12.8027L11.2402 17.0996Q11.2402 17.5098 11.5332 17.8027Q11.8262 18.0957 12.2363 18.0957ZM0.546875 6.94336L10.0098 6.94336L10.0098 5.85938L0.546875 5.85938Q0.322266 5.85938 0.161133 6.02051Q0 6.18164 0 6.40625Q0 6.62109 0.161133 6.78223Q0.322266 6.94336 0.546875 6.94336ZM20.6543 17.6172Q20.8789 17.6172 21.04 17.4561Q21.2012 17.2949 21.2012 17.0703L21.2012 7.72461L20.1172 7.72461L20.1172 17.0703Q20.1172 17.2949 20.2783 17.4561Q20.4395 17.6172 20.6543 17.6172ZM15.9863 24.2676Q16.2109 24.2676 16.3721 24.1064Q16.5332 23.9453 16.5332 23.7207Q16.5332 23.4961 16.3721 23.3398Q16.2109 23.1836 15.9863 23.1836Q15.4883 23.1836 15.2344 23.0566Q14.9805 22.9297 14.5605 22.5098L4.16016 12.0996Q3.99414 11.9336 3.76953 11.9336Q3.54492 11.9336 3.38867 12.0996Q3.23242 12.2559 3.23242 12.4805Q3.23242 12.7051 3.38867 12.8613L13.9453 23.418Q14.4043 23.877 14.9121 24.0723Q15.4199 24.2676 15.9863 24.2676ZM18.5156 23.7402Q18.7402 23.7402 18.8965 23.584Q19.0527 23.4277 19.0527 23.1934Q19.0527 22.9688 18.8965 22.8125Q18.7402 22.6562 18.5156 22.6562Q18.0078 22.6562 17.7588 22.5293Q17.5098 22.4023 17.0801 21.9824L6.67969 11.582Q6.51367 11.4062 6.28906 11.4062Q6.06445 11.4062 5.9082 11.5723Q5.75195 11.7285 5.75195 11.9531Q5.75195 12.1777 5.9082 12.334L16.4648 22.8906Q16.9238 23.3496 17.4316 23.5449Q17.9395 23.7402 18.5156 23.7402Z" fill="#007aff"/>
 </g>
</svg>
