<?xml version="1.0" encoding="UTF-8"?>
<!--Generator: Apple Native CoreSVG 175-->
<!DOCTYPE svg
PUBLIC "-//W3C//DTD SVG 1.1//EN"
       "http://www.w3.org/Graphics/SVG/1.1/DTD/svg11.dtd">
<svg version="1.1" xmlns="http://www.w3.org/2000/svg" xmlns:xlink="http://www.w3.org/1999/xlink" width="22.6617" height="17.3706">
 <g>
  <rect height="17.3706" opacity="0" width="22.6617" x="0" y="0"/>
  <path d="M1.32156 17.3706L21.3332 17.3706Q21.9812 17.3706 22.3215 17.0283Q22.6617 16.6859 22.6617 16.0503L22.6617 1.37497Q22.6617 0.749207 22.3215 0.40329Q21.9812 0.057373 21.3332 0.057373L1.32156 0.057373Q0.683289 0.057373 0.341644 0.40329Q0 0.749207 0 1.37497L0 16.0503Q0 16.6859 0.341644 17.0283Q0.683289 17.3706 1.32156 17.3706ZM1.34537 16.6422Q0.70816 16.6422 0.70816 16.0007L0.70816 14.4121Q0.70816 14.214 0.847092 14.0717Q0.986023 13.9293 1.20789 13.9293L3.07938 13.9293Q3.29422 13.9293 3.4317 14.0717Q3.56918 14.214 3.56918 14.4121L3.56918 16.1354Q3.56918 16.3687 3.4317 16.5054Q3.29422 16.6422 3.07938 16.6422ZM1.20789 13.2973Q0.986023 13.2973 0.847092 13.1521Q0.70816 13.0069 0.70816 12.8143L0.70816 11.1597Q0.70816 10.9308 0.839996 10.7954Q0.971832 10.6601 1.20789 10.6601L3.07938 10.6601Q3.29422 10.6601 3.4317 10.7954Q3.56918 10.9308 3.56918 11.1597L3.56918 12.8143Q3.56918 13.0069 3.4317 13.1521Q3.29422 13.2973 3.07938 13.2973ZM1.20789 10.0276Q0.986023 10.0276 0.847092 9.88739Q0.70816 9.74716 0.70816 9.54758L0.70816 7.89993Q0.70816 7.67105 0.839996 7.5322Q0.971832 7.39334 1.20789 7.39334L3.07938 7.39334Q3.29422 7.39334 3.4317 7.5322Q3.56918 7.67105 3.56918 7.89993L3.56918 9.54758Q3.56918 9.74716 3.4317 9.88739Q3.29422 10.0276 3.07938 10.0276ZM1.20789 6.77338Q0.986023 6.77338 0.847092 6.62964Q0.70816 6.4859 0.70816 6.29333L0.70816 4.64294Q0.70816 4.40704 0.839996 4.2717Q0.971832 4.13635 1.20789 4.13635L3.07938 4.13635Q3.29422 4.13635 3.4317 4.2717Q3.56918 4.40704 3.56918 4.64294L3.56918 6.29333Q3.56918 6.4859 3.4317 6.62964Q3.29422 6.77338 3.07938 6.77338ZM1.20789 3.49167Q0.986023 3.49167 0.847092 3.35144Q0.70816 3.21121 0.70816 3.01163L0.70816 1.42303Q0.70816 0.78598 1.34537 0.78598L3.07938 0.78598Q3.29422 0.78598 3.4317 0.921326Q3.56918 1.05667 3.56918 1.28555L3.56918 3.01163Q3.56918 3.21121 3.4317 3.35144Q3.29422 3.49167 3.07938 3.49167ZM4.71878 16.6422Q4.49417 16.6422 4.37561 16.5236Q4.25705 16.405 4.25705 16.1804L4.25705 9.53781Q4.25705 9.31595 4.37561 9.19739Q4.49417 9.07883 4.71878 9.07883L17.9457 9.07883Q18.1676 9.07883 18.2861 9.19739Q18.4047 9.31595 18.4047 9.53781L18.4047 16.1804Q18.4047 16.405 18.2861 16.5236Q18.1676 16.6422 17.9457 16.6422ZM4.71878 8.35464Q4.49417 8.35464 4.37561 8.23257Q4.25705 8.1105 4.25705 7.88864L4.25705 1.24222Q4.25705 1.02036 4.37561 0.903168Q4.49417 0.78598 4.71878 0.78598L17.9457 0.78598Q18.1676 0.78598 18.2861 0.903168Q18.4047 1.02036 18.4047 1.24222L18.4047 7.88864Q18.4047 8.1105 18.2861 8.23257Q18.1676 8.35464 17.9457 8.35464ZM19.5824 16.6422Q19.3703 16.6422 19.2314 16.5054Q19.0926 16.3687 19.0926 16.1354L19.0926 14.4121Q19.0926 14.214 19.2314 14.0717Q19.3703 13.9293 19.5824 13.9293L21.4539 13.9293Q21.6757 13.9293 21.8146 14.0717Q21.9534 14.214 21.9534 14.4121L21.9534 16.0007Q21.9534 16.6422 21.3164 16.6422ZM19.5824 13.2973Q19.3703 13.2973 19.2314 13.1521Q19.0926 13.0069 19.0926 12.8143L19.0926 11.1597Q19.0926 10.9308 19.2314 10.7954Q19.3703 10.6601 19.5824 10.6601L21.4539 10.6601Q21.6925 10.6601 21.823 10.7954Q21.9534 10.9308 21.9534 11.1597L21.9534 12.8143Q21.9534 13.0069 21.8146 13.1521Q21.6757 13.2973 21.4539 13.2973ZM19.5824 10.0276Q19.3703 10.0276 19.2314 9.88739Q19.0926 9.74716 19.0926 9.54758L19.0926 7.89993Q19.0926 7.67105 19.2314 7.5322Q19.3703 7.39334 19.5824 7.39334L21.4539 7.39334Q21.6925 7.39334 21.823 7.5322Q21.9534 7.67105 21.9534 7.89993L21.9534 9.54758Q21.9534 9.74716 21.8146 9.88739Q21.6757 10.0276 21.4539 10.0276ZM19.5824 6.77338Q19.3703 6.77338 19.2314 6.62964Q19.0926 6.4859 19.0926 6.29333L19.0926 4.64294Q19.0926 4.40704 19.2314 4.2717Q19.3703 4.13635 19.5824 4.13635L21.4539 4.13635Q21.6925 4.13635 21.823 4.2717Q21.9534 4.40704 21.9534 4.64294L21.9534 6.29333Q21.9534 6.4859 21.8146 6.62964Q21.6757 6.77338 21.4539 6.77338ZM19.5824 3.49167Q19.3703 3.49167 19.2314 3.35144Q19.0926 3.21121 19.0926 3.01163L19.0926 1.28555Q19.0926 1.05667 19.2314 0.921326Q19.3703 0.78598 19.5824 0.78598L21.3164 0.78598Q21.9534 0.78598 21.9534 1.42303L21.9534 3.01163Q21.9534 3.21121 21.8146 3.35144Q21.6757 3.49167 21.4539 3.49167Z" fill="#ffffff"/>
 </g>
</svg>
