<?xml version="1.0" encoding="UTF-8"?>
<!--Generator: Apple Native CoreSVG 175.5-->
<!DOCTYPE svg
PUBLIC "-//W3C//DTD SVG 1.1//EN"
       "http://www.w3.org/Graphics/SVG/1.1/DTD/svg11.dtd">
<svg version="1.1" xmlns="http://www.w3.org/2000/svg" xmlns:xlink="http://www.w3.org/1999/xlink" width="20.5566" height="21.6504">
 <g>
  <rect height="21.6504" opacity="0" width="20.5566" x="0" y="0"/>
  <path d="M2.09961 3.96484L18.4473 3.96484Q18.3301 3.30078 17.9834 2.94434Q17.6367 2.58789 16.9043 2.58789L3.64258 2.58789Q2.91016 2.58789 2.55859 2.94434Q2.20703 3.30078 2.09961 3.96484ZM4.11133 1.25977L16.4355 1.25977Q16.3867 0.634766 16.0303 0.317383Q15.6738 0 15 0L5.53711 0Q4.86328 0 4.50684 0.317383Q4.15039 0.634766 4.11133 1.25977ZM1.76758 21.5918L18.7793 21.5918Q19.5996 21.5918 20.0781 21.1182Q20.5566 20.6445 20.5566 19.8535L20.5566 7.28516Q20.5566 6.49414 20.0781 6.01562Q19.5996 5.53711 18.7793 5.53711L1.76758 5.53711Q0.957031 5.53711 0.478516 6.01562Q0 6.49414 0 7.28516L0 19.8535Q0 20.6445 0.478516 21.1182Q0.957031 21.5918 1.76758 21.5918ZM1.77734 20.1855Q1.31836 20.1855 1.31836 19.7363L1.31836 18.7598Q1.31836 18.5742 1.43555 18.457Q1.55273 18.3398 1.74805 18.3398L2.87109 18.3398Q3.05664 18.3398 3.16895 18.457Q3.28125 18.5742 3.28125 18.7598L3.28125 19.7754Q3.28125 19.9512 3.16895 20.0684Q3.05664 20.1855 2.87109 20.1855ZM1.74805 17.2949Q1.55273 17.2949 1.43555 17.1777Q1.31836 17.0605 1.31836 16.8945L1.31836 15.8984Q1.31836 15.4785 1.74805 15.4785L2.87109 15.4785Q3.05664 15.4785 3.16895 15.5957Q3.28125 15.7129 3.28125 15.8984L3.28125 16.8945Q3.28125 17.0605 3.16895 17.1777Q3.05664 17.2949 2.87109 17.2949ZM1.74805 14.4922Q1.55273 14.4922 1.43555 14.3652Q1.31836 14.2383 1.31836 14.0625L1.31836 13.0957Q1.31836 12.8906 1.43066 12.7686Q1.54297 12.6465 1.74805 12.6465L2.87109 12.6465Q3.05664 12.6465 3.16895 12.7686Q3.28125 12.8906 3.28125 13.0957L3.28125 14.0625Q3.28125 14.2383 3.16895 14.3652Q3.05664 14.4922 2.87109 14.4922ZM1.74805 11.6699Q1.55273 11.6699 1.43555 11.5527Q1.31836 11.4355 1.31836 11.2793L1.31836 10.2637Q1.31836 10.0879 1.43066 9.96582Q1.54297 9.84375 1.74805 9.84375L2.87109 9.84375Q3.05664 9.84375 3.16895 9.96582Q3.28125 10.0879 3.28125 10.2637L3.28125 11.2793Q3.28125 11.4355 3.16895 11.5527Q3.05664 11.6699 2.87109 11.6699ZM1.74805 8.78906Q1.55273 8.78906 1.43555 8.67188Q1.31836 8.55469 1.31836 8.38867L1.31836 7.40234Q1.31836 6.94336 1.77734 6.94336L2.87109 6.94336Q3.05664 6.94336 3.16895 7.06055Q3.28125 7.17773 3.28125 7.37305L3.28125 8.38867Q3.28125 8.55469 3.16895 8.67188Q3.05664 8.78906 2.87109 8.78906ZM4.92188 20.1855Q4.74609 20.1855 4.63867 20.0781Q4.53125 19.9707 4.53125 19.7852L4.53125 14.6973Q4.53125 14.502 4.63867 14.3994Q4.74609 14.2969 4.92188 14.2969L15.625 14.2969Q15.8105 14.2969 15.918 14.3994Q16.0254 14.502 16.0254 14.6973L16.0254 19.7852Q16.0254 19.9707 15.918 20.0781Q15.8105 20.1855 15.625 20.1855ZM4.92188 12.8613Q4.74609 12.8613 4.63867 12.7588Q4.53125 12.6562 4.53125 12.4609L4.53125 7.34375Q4.53125 7.1582 4.63867 7.05078Q4.74609 6.94336 4.92188 6.94336L15.625 6.94336Q15.8105 6.94336 15.918 7.05078Q16.0254 7.1582 16.0254 7.34375L16.0254 12.4609Q16.0254 12.6562 15.918 12.7588Q15.8105 12.8613 15.625 12.8613ZM17.6758 20.1855Q17.5 20.1855 17.3877 20.0684Q17.2754 19.9512 17.2754 19.7754L17.2754 18.7598Q17.2754 18.5742 17.3877 18.457Q17.5 18.3398 17.6758 18.3398L18.8086 18.3398Q19.0039 18.3398 19.1211 18.457Q19.2383 18.5742 19.2383 18.7598L19.2383 19.7363Q19.2383 20.1855 18.7793 20.1855ZM17.6758 17.2949Q17.5 17.2949 17.3877 17.1777Q17.2754 17.0605 17.2754 16.8945L17.2754 15.8984Q17.2754 15.4785 17.6758 15.4785L18.8086 15.4785Q19.2383 15.4785 19.2383 15.8984L19.2383 16.8945Q19.2383 17.0605 19.1211 17.1777Q19.0039 17.2949 18.8086 17.2949ZM17.6758 14.4922Q17.5 14.4922 17.3877 14.3652Q17.2754 14.2383 17.2754 14.0625L17.2754 13.0957Q17.2754 12.8906 17.3877 12.7686Q17.5 12.6465 17.6758 12.6465L18.8086 12.6465Q19.0039 12.6465 19.1211 12.7686Q19.2383 12.8906 19.2383 13.0957L19.2383 14.0625Q19.2383 14.2383 19.1211 14.3652Q19.0039 14.4922 18.8086 14.4922ZM17.6758 11.6699Q17.5 11.6699 17.3877 11.5527Q17.2754 11.4355 17.2754 11.2793L17.2754 10.2637Q17.2754 10.0879 17.3877 9.96582Q17.5 9.84375 17.6758 9.84375L18.8086 9.84375Q19.0039 9.84375 19.1211 9.96582Q19.2383 10.0879 19.2383 10.2637L19.2383 11.2793Q19.2383 11.4355 19.1211 11.5527Q19.0039 11.6699 18.8086 11.6699ZM17.6758 8.78906Q17.5 8.78906 17.3877 8.67188Q17.2754 8.55469 17.2754 8.38867L17.2754 7.37305Q17.2754 6.94336 17.6758 6.94336L18.7793 6.94336Q19.2383 6.94336 19.2383 7.40234L19.2383 8.38867Q19.2383 8.55469 19.1211 8.67188Q19.0039 8.78906 18.8086 8.78906Z" fill="#007aff"/>
 </g>
</svg>
