<?xml version="1.0" encoding="UTF-8"?>
<!--Generator: Apple Native CoreSVG 175.5-->
<!DOCTYPE svg
PUBLIC "-//W3C//DTD SVG 1.1//EN"
       "http://www.w3.org/Graphics/SVG/1.1/DTD/svg11.dtd">
<svg version="1.1" xmlns="http://www.w3.org/2000/svg" xmlns:xlink="http://www.w3.org/1999/xlink" width="22.3242" height="19.6191">
 <g>
  <rect height="19.6191" opacity="0" width="22.3242" x="0" y="0"/>
  <path d="M1.03516 5.3125L21.2891 5.3125Q21.7578 5.3125 22.041 5.02441Q22.3242 4.73633 22.3242 4.26758L22.3242 1.02539Q22.3242 0.566406 22.041 0.283203Q21.7578 0 21.2891 0L1.03516 0Q0.566406 0 0.283203 0.283203Q0 0.566406 0 1.02539L0 4.26758Q0 4.73633 0.283203 5.02441Q0.566406 5.3125 1.03516 5.3125ZM1.82617 3.74023Q1.57227 3.74023 1.57227 3.47656L1.57227 1.83594Q1.57227 1.57227 1.82617 1.57227L20.498 1.57227Q20.752 1.57227 20.752 1.83594L20.752 3.47656Q20.752 3.74023 20.498 3.74023ZM2.24609 18.7988L3.81836 18.7988L3.81836 4.51172L2.24609 4.51172ZM18.5059 18.7988L20.0781 18.7988L20.0781 4.51172L18.5059 4.51172ZM5.47852 18.7988L6.70898 18.7988L6.70898 8.53516Q6.70898 8.03711 7.19727 8.03711L15.127 8.03711Q15.6152 8.03711 15.6152 8.53516L15.6152 18.7988L16.8457 18.7988L16.8457 8.18359Q16.8457 7.54883 16.4746 7.18262Q16.1035 6.81641 15.4785 6.81641L6.8457 6.81641Q6.2207 6.81641 5.84961 7.18262Q5.47852 7.54883 5.47852 8.18359ZM0.820312 19.5898L21.5039 19.5898Q21.8262 19.5898 22.0605 19.3555Q22.2949 19.1211 22.2949 18.7988Q22.2949 18.4766 22.0605 18.2471Q21.8262 18.0176 21.5039 18.0176L0.820312 18.0176Q0.498047 18.0176 0.263672 18.2471Q0.0292969 18.4766 0.0292969 18.7988Q0.0292969 19.1211 0.263672 19.3555Q0.498047 19.5898 0.820312 19.5898ZM11.0059 17.2656Q12.4414 17.2656 13.3057 16.3818Q14.1699 15.498 14.1699 14.0625Q14.1699 12.8613 13.7207 11.9971Q13.2715 11.1328 12.5635 10.5811Q11.8555 10.0293 11.0547 9.77051Q10.2539 9.51172 9.55078 9.51172Q9.18945 9.51172 9.05273 9.69727Q8.91602 9.88281 9.11133 10.1367Q9.44336 10.5566 9.69727 11.0498Q9.95117 11.543 9.93164 12.1973Q9.77539 11.8945 9.5166 11.709Q9.25781 11.5234 9.02344 11.5234Q8.79883 11.5234 8.79883 11.748Q8.79883 11.8164 8.79883 11.9385Q8.79883 12.0605 8.79883 12.1582Q8.79883 12.6074 8.65234 12.9688Q8.50586 13.3301 8.35449 13.75Q8.20312 14.1699 8.20312 14.8145Q8.20312 15.9277 8.97461 16.5967Q9.74609 17.2656 11.0059 17.2656ZM11.1035 16.2598Q10.6055 16.2598 10.2979 15.9814Q9.99023 15.7031 9.99023 15.2441Q9.99023 14.7754 10.2246 14.5264Q10.459 14.2773 10.5176 13.9453Q10.7715 14.1113 10.918 14.502Q11.0742 14.2773 11.1475 13.9111Q11.2207 13.5449 11.1328 13.0566Q11.5723 13.2129 11.9727 13.7256Q12.373 14.2383 12.373 14.9219Q12.373 15.459 12.0605 15.8594Q11.748 16.2598 11.1035 16.2598Z" fill="#007aff"/>
 </g>
</svg>
