<?xml version="1.0" encoding="UTF-8"?>
<!--Generator: Apple Native CoreSVG 175.5-->
<!DOCTYPE svg
PUBLIC "-//W3C//DTD SVG 1.1//EN"
       "http://www.w3.org/Graphics/SVG/1.1/DTD/svg11.dtd">
<svg version="1.1" xmlns="http://www.w3.org/2000/svg" xmlns:xlink="http://www.w3.org/1999/xlink" width="22.3242" height="19.6387">
 <g>
  <rect height="19.6387" opacity="0" width="22.3242" x="0" y="0"/>
  <path d="M1.03516 4.23828L21.2891 4.23828Q21.748 4.23828 22.0361 3.9502Q22.3242 3.66211 22.3242 3.19336L22.3242 1.02539Q22.3242 0.576172 22.0361 0.288086Q21.748 0 21.2891 0L1.03516 0Q0.576172 0 0.288086 0.288086Q0 0.576172 0 1.02539L0 3.19336Q0 3.66211 0.288086 3.9502Q0.576172 4.23828 1.03516 4.23828ZM2.24609 18.7695L20.0781 18.7695L20.0781 5.37109L2.24609 5.37109ZM5.47852 18.0176L5.47852 8.57422Q5.47852 7.93945 5.84961 7.57324Q6.2207 7.20703 6.8457 7.20703L15.4785 7.20703Q16.1035 7.20703 16.4746 7.57324Q16.8457 7.93945 16.8457 8.57422L16.8457 18.0176L15.6152 18.0176L15.6152 8.92578Q15.6152 8.42773 15.127 8.42773L7.19727 8.42773Q6.70898 8.42773 6.70898 8.92578L6.70898 18.0176ZM11.0547 17.0215Q9.93164 17.0215 9.24805 16.4258Q8.56445 15.8301 8.56445 14.8438Q8.56445 14.2773 8.69629 13.9014Q8.82812 13.5254 8.96484 13.2031Q9.10156 12.8809 9.10156 12.4805Q9.10156 12.3926 9.09668 12.2852Q9.0918 12.1777 9.0918 12.1191Q9.0918 11.9238 9.28711 11.9238Q9.50195 11.9238 9.73145 12.0898Q9.96094 12.2559 10.0977 12.5195Q10.127 11.9434 9.90234 11.499Q9.67773 11.0547 9.375 10.6738Q9.20898 10.459 9.32129 10.293Q9.43359 10.127 9.75586 10.127Q10.3906 10.127 11.1035 10.3613Q11.8164 10.5957 12.4463 11.084Q13.0762 11.5723 13.4717 12.3389Q13.8672 13.1055 13.8672 14.1797Q13.8672 15.459 13.1006 16.2402Q12.334 17.0215 11.0547 17.0215ZM11.1523 16.123Q11.7188 16.123 11.9922 15.7715Q12.2656 15.4199 12.2656 14.9414Q12.2656 14.3457 11.9141 13.8916Q11.5625 13.4375 11.1719 13.291Q11.25 13.7207 11.1816 14.043Q11.1133 14.3652 10.9863 14.5703Q10.8398 14.2188 10.625 14.0723Q10.5762 14.375 10.3662 14.5947Q10.1562 14.8145 10.1562 15.2246Q10.1562 15.6348 10.4297 15.8789Q10.7031 16.123 11.1523 16.123ZM0.820312 19.5898L21.5039 19.5898Q21.8262 19.5898 22.0605 19.3555Q22.2949 19.1211 22.2949 18.7988Q22.2949 18.4766 22.0605 18.2471Q21.8262 18.0176 21.5039 18.0176L0.820312 18.0176Q0.498047 18.0176 0.263672 18.2471Q0.0292969 18.4766 0.0292969 18.7988Q0.0292969 19.1211 0.263672 19.3555Q0.498047 19.5898 0.820312 19.5898Z" fill="#007aff"/>
 </g>
</svg>
