<?xml version="1.0" encoding="UTF-8"?>
<!--Generator: Apple Native CoreSVG 175.5-->
<!DOCTYPE svg
PUBLIC "-//W3C//DTD SVG 1.1//EN"
       "http://www.w3.org/Graphics/SVG/1.1/DTD/svg11.dtd">
<svg version="1.1" xmlns="http://www.w3.org/2000/svg" xmlns:xlink="http://www.w3.org/1999/xlink" width="27.5377" height="21.7841">
 <g>
  <rect height="21.7841" opacity="0" width="27.5377" x="0" y="0"/>
  <path d="M11.4146 5.74067L12.8111 5.45747Q12.6939 4.68598 12.4595 4.00239Q12.2252 3.31879 11.6783 2.49848Q11.5123 2.25434 11.7271 2.18598Q12.8892 1.78559 14.149 1.85395Q15.4088 1.92231 16.5562 2.41547Q17.7037 2.90864 18.5435 3.77778Q19.3834 4.64692 19.7056 5.84809L21.1705 5.67231Q20.858 4.33442 20.0328 3.2895Q19.2076 2.24457 18.0357 1.56098Q16.8638 0.877387 15.5162 0.594184Q14.1685 0.310981 12.7965 0.476997Q11.4244 0.643012 10.2037 1.31684Q9.84235 1.51215 9.77888 1.8686Q9.7154 2.22504 10.0181 2.62543Q10.5064 3.26997 10.775 3.75825Q11.0435 4.24653 11.1802 4.70551Q11.317 5.1645 11.4146 5.74067ZM16.0631 18.2895Q17.1861 18.2895 18.4703 18.0551Q19.7545 17.8207 21.0386 17.3764Q22.3228 16.9321 23.4898 16.312Q24.6568 15.6918 25.5699 14.9106Q26.483 14.1293 27.0103 13.226Q27.5377 12.3227 27.5377 11.3168Q27.5377 10.3207 27.0103 9.41743Q26.483 8.51411 25.5699 7.73286Q24.6568 6.95161 23.4898 6.33149Q22.3228 5.71137 21.0386 5.26704Q19.7545 4.8227 18.4703 4.58832Q17.1861 4.35395 16.0631 4.35395Q13.6802 4.35395 11.3267 5.22797Q8.97321 6.102 7.00056 8.01606Q5.7115 6.55122 4.20271 5.76508Q2.69392 4.97895 0.945871 4.94965Q0.574777 4.93989 0.315988 5.15961Q0.0571987 5.37934 0.0279018 5.75043Q-0.0697545 6.76606 0.174386 7.79145Q0.418527 8.81684 0.931222 9.73481Q1.44392 10.6528 2.14704 11.3168Q1.44392 11.9907 0.931222 12.9086Q0.418527 13.8266 0.174386 14.852Q-0.0697545 15.8774 0.0279018 16.893Q0.0571987 17.2641 0.315988 17.4838Q0.574777 17.7036 0.945871 17.6938Q2.69392 17.6645 4.20271 16.8784Q5.7115 16.0922 7.00056 14.6372Q8.97321 16.5414 11.3267 17.4155Q13.6802 18.2895 16.0631 18.2895ZM16.0631 16.7172Q13.7095 16.7172 11.5172 15.8237Q9.32478 14.9301 7.48884 12.8793Q7.2447 12.6059 6.94196 12.6157Q6.63923 12.6254 6.39509 12.9184Q5.33064 14.2368 4.24665 15.018Q3.16267 15.7993 1.88337 16.0239Q1.75642 16.0434 1.67341 15.9555Q1.5904 15.8676 1.60993 15.7407Q1.73689 14.5981 2.34724 13.5922Q2.95759 12.5864 3.79743 11.9223Q4.17829 11.6 4.17829 11.3217Q4.17829 11.0434 3.78767 10.7114Q2.95759 10.0473 2.34724 9.04633Q1.73689 8.04536 1.60993 6.90278Q1.5904 6.77582 1.67341 6.68793Q1.75642 6.60004 1.88337 6.61957Q3.16267 6.84418 4.24177 7.62055Q5.32087 8.39692 6.39509 9.72504Q6.62946 10.0278 6.93708 10.0327Q7.2447 10.0375 7.47907 9.77387Q9.32478 7.71332 11.5172 6.81977Q13.7095 5.92622 16.0631 5.92622Q17.3131 5.92622 18.6802 6.22407Q20.0474 6.52192 21.3463 7.04926Q22.6451 7.57661 23.6949 8.2602Q24.7447 8.94379 25.3697 9.72993Q25.9947 10.5161 25.9947 11.3168Q25.9947 12.1274 25.3697 12.9135Q24.7447 13.6997 23.6949 14.3832Q22.6451 15.0668 21.3463 15.5942Q20.0474 16.1215 18.6802 16.4194Q17.3131 16.7172 16.0631 16.7172ZM22.1275 11.9125Q22.5474 11.9125 22.8551 11.6098Q23.1627 11.3071 23.1627 10.8872Q23.1627 10.4672 22.8551 10.1645Q22.5474 9.86176 22.1275 9.86176Q21.7076 9.86176 21.4049 10.1645Q21.1021 10.4672 21.1021 10.8872Q21.1021 11.3071 21.4049 11.6098Q21.7076 11.9125 22.1275 11.9125ZM12.9869 17.1762L12.5767 20.5356Q12.5279 20.9457 12.6793 21.2485Q12.8306 21.5512 13.1578 21.6928Q13.4849 21.8344 13.9634 21.7563Q14.9009 21.6098 15.8677 21.2143Q16.8345 20.8188 17.7379 20.228Q18.6412 19.6372 19.4127 18.9096Q20.1842 18.1821 20.7213 17.3813L18.7095 17.6254Q17.7916 18.4262 16.7711 19.1Q15.7506 19.7739 14.5592 20.0961Q14.2076 20.184 14.2467 19.8325L14.4908 17.4008Z" fill="#007aff"/>
 </g>
</svg>
