<?xml version="1.0" encoding="UTF-8"?>
<!--Generator: Apple Native CoreSVG 175.5-->
<!DOCTYPE svg
PUBLIC "-//W3C//DTD SVG 1.1//EN"
       "http://www.w3.org/Graphics/SVG/1.1/DTD/svg11.dtd">
<svg version="1.1" xmlns="http://www.w3.org/2000/svg" xmlns:xlink="http://www.w3.org/1999/xlink" width="17.3438" height="19.1699">
 <g>
  <rect height="19.1699" opacity="0" width="17.3438" x="0" y="0"/>
  <path d="M0.742188 19.1699Q1.05469 19.1699 1.26953 18.9551Q1.48438 18.7402 1.48438 18.4375L1.48438 13.0078Q1.66992 12.9297 2.33887 12.7393Q3.00781 12.5488 4.08203 12.5488Q5.43945 12.5488 6.58691 12.8174Q7.73438 13.0859 8.80859 13.4326Q9.88281 13.7793 10.9961 14.0479Q12.1094 14.3164 13.3984 14.3164Q14.1602 14.3164 14.6484 14.2627Q15.1367 14.209 15.498 14.0967Q15.8594 13.9844 16.2305 13.8184Q16.7383 13.5938 17.041 13.1885Q17.3438 12.7832 17.3438 12.1094L17.3438 2.19727Q17.3438 1.79688 17.0508 1.58203Q16.7578 1.36719 16.3281 1.36719Q15.9668 1.36719 15.249 1.57227Q14.5312 1.77734 13.2715 1.77734Q11.9824 1.77734 10.8691 1.50879Q9.75586 1.24023 8.68164 0.888672Q7.60742 0.537109 6.45996 0.273438Q5.3125 0.00976562 3.95508 0.00976562Q3.19336 0.00976562 2.7002 0.0634766Q2.20703 0.117188 1.8457 0.229492Q1.48438 0.341797 1.11328 0.507812Q0.615234 0.732422 0.307617 1.1377Q0 1.54297 0 2.20703L0 18.4375Q0 18.7305 0.219727 18.9502Q0.439453 19.1699 0.742188 19.1699ZM1.48438 8.54492L1.48438 5.23438Q1.58203 4.99023 2.19727 4.72656Q2.8125 4.46289 3.95508 4.46289Q4.18945 4.46289 4.4873 4.47754Q4.78516 4.49219 5.03906 4.52148L5.03906 1.54297Q6.02539 1.65039 6.91895 1.89941Q7.8125 2.14844 8.71094 2.41211L8.71094 5.39062Q9.61914 5.67383 10.5029 5.88867Q11.3867 6.10352 12.373 6.19141L12.373 3.21289Q12.5879 3.23242 12.8125 3.24219Q13.0371 3.25195 13.2715 3.25195Q14.0723 3.25195 14.7266 3.16406Q15.3809 3.07617 15.8691 2.93945L15.8691 5.91797Q15.5078 6.01562 14.8291 6.12305Q14.1504 6.23047 13.2715 6.23047Q13.0469 6.23047 12.8174 6.21582Q12.5879 6.20117 12.373 6.19141L12.373 9.50195Q12.5879 9.52148 12.7979 9.53125Q13.0078 9.54102 13.2715 9.54102Q14.0723 9.54102 14.7266 9.45312Q15.3809 9.36523 15.8691 9.22852L15.8691 12.0703Q15.7715 12.3145 15.1562 12.5781Q14.541 12.8418 13.3984 12.8418Q13.1348 12.8418 12.8809 12.8271Q12.627 12.8125 12.373 12.7832L12.373 9.50195Q11.7188 9.43359 11.1182 9.32129Q10.5176 9.20898 9.92676 9.05762Q9.33594 8.90625 8.71094 8.70117L8.71094 11.8945Q7.86133 11.6406 6.96289 11.416Q6.06445 11.1914 5.03906 11.1035L5.03906 7.83203Q4.75586 7.80273 4.53125 7.78809Q4.30664 7.77344 3.95508 7.77344Q2.8125 7.77344 2.19727 8.03711Q1.58203 8.30078 1.48438 8.54492ZM5.03906 7.83203Q6.05469 7.94922 6.89453 8.18359Q7.73438 8.41797 8.71094 8.70117L8.71094 5.39062Q7.79297 5.11719 6.92383 4.86816Q6.05469 4.61914 5.03906 4.52148Z" fill="#007aff"/>
 </g>
</svg>
