<?xml version="1.0" encoding="UTF-8"?>
<!--Generator: Apple Native CoreSVG 175-->
<!DOCTYPE svg
PUBLIC "-//W3C//DTD SVG 1.1//EN"
       "http://www.w3.org/Graphics/SVG/1.1/DTD/svg11.dtd">
<svg version="1.1" xmlns="http://www.w3.org/2000/svg" xmlns:xlink="http://www.w3.org/1999/xlink" width="19.1602" height="19.1504">
 <g>
  <rect height="19.1504" opacity="0" width="19.1602" x="0" y="0"/>
  <path d="M9.57031 19.1406Q11.5527 19.1406 13.2861 18.3984Q15.0195 17.6562 16.3379 16.333Q17.6562 15.0098 18.4082 13.2764Q19.1602 11.543 19.1602 9.57031Q19.1602 7.59766 18.4082 5.86426Q17.6562 4.13086 16.3379 2.80762Q15.0195 1.48438 13.2861 0.742188Q11.5527 0 9.57031 0Q7.59766 0 5.86426 0.742188Q4.13086 1.48438 2.81738 2.80762Q1.50391 4.13086 0.751953 5.86426Q0 7.59766 0 9.57031Q0 11.543 0.74707 13.2764Q1.49414 15.0098 2.8125 16.333Q4.13086 17.6562 5.86914 18.3984Q7.60742 19.1406 9.57031 19.1406ZM9.57031 18.3984Q7.74414 18.3984 6.14746 17.71Q4.55078 17.0215 3.33496 15.8105Q2.11914 14.5996 1.43555 12.998Q0.751953 11.3965 0.751953 9.57031Q0.751953 7.74414 1.43555 6.14258Q2.11914 4.54102 3.33496 3.3252Q4.55078 2.10938 6.14746 1.4209Q7.74414 0.732422 9.57031 0.732422Q11.4062 0.732422 13.0029 1.4209Q14.5996 2.10938 15.8154 3.3252Q17.0312 4.54102 17.7197 6.14258Q18.4082 7.74414 18.4082 9.57031Q18.4082 11.3965 17.7246 12.998Q17.041 14.5996 15.8252 15.8105Q14.6094 17.0215 13.0078 17.71Q11.4062 18.3984 9.57031 18.3984ZM6.42578 5.27344L12.998 11.8457Q13.2812 11.7676 13.5498 11.5869Q13.8184 11.4062 13.8184 11.1133L13.8184 6.24023Q13.8184 5.86914 13.4473 5.86914Q13.2715 5.86914 12.8955 5.98633Q12.5195 6.10352 11.8848 6.10352Q11.0059 6.10352 10.2979 5.87891Q9.58984 5.6543 8.87207 5.4248Q8.1543 5.19531 7.25586 5.19531Q6.99219 5.19531 6.79199 5.21973Q6.5918 5.24414 6.42578 5.27344ZM10.8789 11.8945L5.36133 6.39648L5.36133 14.4629Q5.36133 14.5605 5.43945 14.6484Q5.51758 14.7363 5.6543 14.7363Q5.80078 14.7363 5.86914 14.6484Q5.9375 14.5605 5.9375 14.4629L5.9375 11.3281Q6.11328 11.2695 6.44531 11.1865Q6.77734 11.1035 7.30469 11.1035Q7.99805 11.1035 8.5791 11.2549Q9.16016 11.4062 9.71191 11.5918Q10.2637 11.7773 10.8789 11.8945ZM14.541 14.9316Q14.6289 15.0098 14.751 15.0146Q14.873 15.0195 14.9512 14.9316Q15.0391 14.834 15.0391 14.7168Q15.0391 14.5996 14.9512 14.5215L4.64844 4.19922Q4.56055 4.11133 4.43848 4.11133Q4.31641 4.11133 4.22852 4.19922Q4.13086 4.28711 4.14062 4.4043Q4.15039 4.52148 4.22852 4.61914Z" fill="#007aff"/>
 </g>
</svg>
