<?xml version="1.0" encoding="UTF-8"?>
<!--Generator: Apple Native CoreSVG 175-->
<!DOCTYPE svg
PUBLIC "-//W3C//DTD SVG 1.1//EN"
       "http://www.w3.org/Graphics/SVG/1.1/DTD/svg11.dtd">
<svg version="1.1" xmlns="http://www.w3.org/2000/svg" xmlns:xlink="http://www.w3.org/1999/xlink" width="19.1602" height="19.1504">
 <g>
  <rect height="19.1504" opacity="0" width="19.1602" x="0" y="0"/>
  <path d="M9.57031 19.1406Q11.5527 19.1406 13.2861 18.3984Q15.0195 17.6562 16.3379 16.333Q17.6562 15.0098 18.4082 13.2764Q19.1602 11.543 19.1602 9.57031Q19.1602 7.59766 18.4082 5.86426Q17.6562 4.13086 16.3379 2.80762Q15.0195 1.48438 13.2861 0.742188Q11.5527 0 9.57031 0Q7.59766 0 5.86426 0.742188Q4.13086 1.48438 2.81738 2.80762Q1.50391 4.13086 0.751953 5.86426Q0 7.59766 0 9.57031Q0 11.543 0.74707 13.2764Q1.49414 15.0098 2.8125 16.333Q4.13086 17.6562 5.86914 18.3984Q7.60742 19.1406 9.57031 19.1406ZM9.57031 18.3984Q7.74414 18.3984 6.14746 17.71Q4.55078 17.0215 3.33496 15.8105Q2.11914 14.5996 1.43555 12.998Q0.751953 11.3965 0.751953 9.57031Q0.751953 7.74414 1.43555 6.14258Q2.11914 4.54102 3.33496 3.3252Q4.55078 2.10938 6.14746 1.4209Q7.74414 0.732422 9.57031 0.732422Q11.4062 0.732422 13.0029 1.4209Q14.5996 2.10938 15.8154 3.3252Q17.0312 4.54102 17.7197 6.14258Q18.4082 7.74414 18.4082 9.57031Q18.4082 11.3965 17.7246 12.998Q17.041 14.5996 15.8252 15.8105Q14.6094 17.0215 13.0078 17.71Q11.4062 18.3984 9.57031 18.3984ZM9.66797 15.4102Q11.0645 15.4102 12.1094 14.8145Q13.1543 14.2188 13.7402 13.1396Q14.3262 12.0605 14.3262 10.6152Q14.3262 8.80859 13.6523 7.51465Q12.9785 6.2207 11.9043 5.38574Q10.8301 4.55078 9.59473 4.15527Q8.35938 3.75977 7.22656 3.75977Q6.95312 3.75977 6.81641 3.84766Q6.67969 3.93555 6.67969 4.10156Q6.67969 4.24805 6.81641 4.39453Q7.32422 5 7.74902 5.7373Q8.17383 6.47461 8.17383 7.20703Q8.17383 7.4707 8.10059 7.70996Q8.02734 7.94922 7.85156 8.16406L8.04688 8.11523Q7.85156 7.54883 7.37305 7.20703Q6.89453 6.86523 6.55273 6.86523Q6.35742 6.86523 6.35742 7.08984Q6.35742 7.1875 6.38184 7.41211Q6.40625 7.63672 6.40625 7.82227Q6.40625 8.37891 6.26465 8.80859Q6.12305 9.23828 5.92773 9.65332Q5.73242 10.0684 5.59082 10.5811Q5.44922 11.0938 5.44922 11.8164Q5.44922 12.9004 5.9668 13.7061Q6.48438 14.5117 7.43652 14.9609Q8.38867 15.4102 9.66797 15.4102ZM9.73633 13.8379Q9.0332 13.8379 8.60352 13.4473Q8.17383 13.0566 8.17383 12.4121Q8.17383 11.9727 8.33008 11.6846Q8.48633 11.3965 8.66211 11.1572Q8.83789 10.918 8.87695 10.6348Q8.88672 10.5957 8.90625 10.5859Q8.92578 10.5762 8.95508 10.6055Q9.14062 10.752 9.27246 10.9473Q9.4043 11.1426 9.51172 11.3672Q9.70703 11.0938 9.79492 10.5713Q9.88281 10.0488 9.77539 9.39453Q9.77539 9.35547 9.79004 9.34082Q9.80469 9.32617 9.83398 9.3457Q10.6641 9.74609 11.0938 10.4785Q11.5234 11.2109 11.5234 11.9434Q11.5234 12.7051 11.084 13.2715Q10.6445 13.8379 9.73633 13.8379Z" fill="#007aff"/>
 </g>
</svg>
