<?xml version="1.0" encoding="UTF-8"?>
<!--Generator: Apple Native CoreSVG 175-->
<!DOCTYPE svg
PUBLIC "-//W3C//DTD SVG 1.1//EN"
       "http://www.w3.org/Graphics/SVG/1.1/DTD/svg11.dtd">
<svg version="1.1" xmlns="http://www.w3.org/2000/svg" xmlns:xlink="http://www.w3.org/1999/xlink" width="19.1602" height="19.1504">
 <g>
  <rect height="19.1504" opacity="0" width="19.1602" x="0" y="0"/>
  <path d="M9.57031 19.1504Q11.5527 19.1504 13.2861 18.4082Q15.0195 17.666 16.3379 16.3428Q17.6562 15.0195 18.4082 13.2861Q19.1602 11.5527 19.1602 9.58008Q19.1602 7.60742 18.4082 5.87402Q17.6562 4.14062 16.3379 2.81738Q15.0195 1.49414 13.2861 0.751953Q11.5527 0.00976562 9.57031 0.00976562Q7.59766 0.00976562 5.86426 0.751953Q4.13086 1.49414 2.81738 2.81738Q1.50391 4.14062 0.751953 5.87402Q0 7.60742 0 9.58008Q0 11.5527 0.74707 13.2861Q1.49414 15.0195 2.8125 16.3428Q4.13086 17.666 5.86914 18.4082Q7.60742 19.1504 9.57031 19.1504ZM5.41992 11.8359Q5.41992 11.1035 5.56641 10.5957Q5.71289 10.0879 5.90332 9.66797Q6.09375 9.24805 6.24023 8.81348Q6.38672 8.37891 6.38672 7.82227Q6.38672 7.63672 6.3623 7.41211Q6.33789 7.1875 6.33789 7.08008Q6.33789 6.86523 6.5332 6.86523Q6.8457 6.86523 7.29004 7.1582Q7.73438 7.45117 7.96875 7.94922Q8.16406 7.61719 8.16406 7.20703Q8.1543 6.45508 7.72949 5.72266Q7.30469 4.99023 6.78711 4.375Q6.66016 4.21875 6.66016 4.08203Q6.66016 3.90625 6.79688 3.81836Q6.93359 3.73047 7.20703 3.73047Q8.11523 3.73047 9.10645 3.97949Q10.0977 4.22852 11.0303 4.76074Q11.9629 5.29297 12.7148 6.1084Q13.4668 6.92383 13.9111 8.05176Q14.3555 9.17969 14.3555 10.6348Q14.3555 12.0898 13.7695 13.1738Q13.1836 14.2578 12.124 14.8584Q11.0645 15.459 9.66797 15.459Q8.37891 15.459 7.42188 15.0098Q6.46484 14.5605 5.94238 13.7451Q5.41992 12.9297 5.41992 11.8359ZM8.1543 12.4414Q8.1543 13.0859 8.58887 13.4863Q9.02344 13.8867 9.73633 13.8867Q10.6543 13.8867 11.0938 13.3105Q11.5332 12.7344 11.5332 11.9727Q11.5332 11.2305 11.1035 10.4932Q10.6738 9.75586 9.83398 9.3457Q9.80469 9.32617 9.79004 9.3457Q9.77539 9.36523 9.77539 9.4043Q9.87305 10.0586 9.79492 10.5811Q9.7168 11.1035 9.51172 11.3867Q9.39453 11.1621 9.2627 10.9668Q9.13086 10.7715 8.94531 10.6152Q8.92578 10.5957 8.90137 10.6006Q8.87695 10.6055 8.87695 10.6445Q8.82812 10.9375 8.65234 11.1719Q8.47656 11.4062 8.31543 11.6992Q8.1543 11.9922 8.1543 12.4414Z" fill="#ffffff"/>
 </g>
</svg>
