<?xml version="1.0" encoding="UTF-8"?>
<!--Generator: Apple Native CoreSVG 175.5-->
<!DOCTYPE svg
PUBLIC "-//W3C//DTD SVG 1.1//EN"
       "http://www.w3.org/Graphics/SVG/1.1/DTD/svg11.dtd">
<svg version="1.1" xmlns="http://www.w3.org/2000/svg" xmlns:xlink="http://www.w3.org/1999/xlink" width="18.7109" height="21.748">
 <g>
  <rect height="21.748" opacity="0" width="18.7109" x="0" y="0"/>
  <path d="M1.67969 12.793Q1.67969 14.4141 2.27539 16.0059Q2.87109 17.5977 4.0625 18.8965Q5.25391 20.1953 7.04102 20.9717Q8.82812 21.748 11.2012 21.748Q12.5684 21.748 13.6621 21.3623Q14.7559 20.9766 15.3906 20.3125Q16.0254 19.6484 16.0254 18.8379Q16.0254 18.2617 15.625 17.8662Q15.2246 17.4707 14.4629 17.3828Q14.2676 17.3535 14.0967 17.4414Q13.9258 17.5293 13.8867 17.7734Q13.7598 18.7891 13.1201 19.4336Q12.4805 20.0781 11.543 20.0781Q10.8789 20.0781 10.4932 19.7266Q10.1074 19.375 10.1074 18.8672Q10.1074 18.291 10.5957 17.8369Q11.084 17.3828 11.8604 16.9629Q12.6367 16.543 13.5059 16.0742Q14.375 15.6055 15.1514 15.0098Q15.9277 14.4141 16.4209 13.623Q16.9141 12.832 16.9141 11.748Q16.9141 10.6836 16.4551 9.87305Q15.9961 9.0625 15.2051 8.60352Q14.4141 8.14453 13.4082 8.14453Q12.0117 8.14453 10.9619 8.86719Q9.91211 9.58984 9.41406 10.791Q9.48242 9.58984 9.0625 8.75977Q8.64258 7.92969 7.89551 7.5Q7.14844 7.07031 6.24023 7.07031Q4.75586 7.07031 3.74023 7.85645Q2.72461 8.64258 2.20215 9.94141Q1.67969 11.2402 1.67969 12.793ZM3.1543 12.793Q3.1543 11.4551 3.51562 10.5078Q3.87695 9.56055 4.54102 9.05273Q5.20508 8.54492 6.13281 8.54492Q6.92383 8.54492 7.48535 8.97461Q8.04688 9.4043 8.35449 10.1318Q8.66211 10.8594 8.69141 11.7578Q8.70117 12.0996 8.92578 12.2266Q9.15039 12.3535 9.40918 12.29Q9.66797 12.2266 9.78516 11.9922Q10.4004 10.8008 11.3721 10.21Q12.3438 9.61914 13.3789 9.61914Q13.9844 9.61914 14.4482 9.8877Q14.9121 10.1562 15.1758 10.6592Q15.4395 11.1621 15.4395 11.8457Q15.4395 12.6465 14.9463 13.252Q14.4531 13.8574 13.6816 14.3457Q12.9102 14.834 12.0459 15.293Q11.1816 15.752 10.4102 16.2549Q9.63867 16.7578 9.15039 17.3877Q8.66211 18.0176 8.66211 18.8672Q8.66211 19.2188 8.78906 19.5312Q8.91602 19.8438 9.14062 20.0879Q7.62695 19.7949 6.50391 19.1016Q5.38086 18.4082 4.63867 17.417Q3.89648 16.4258 3.52539 15.2441Q3.1543 14.0625 3.1543 12.793ZM4.04297 2.04102Q4.98047 2.04102 5.91797 2.50488Q6.85547 2.96875 7.8418 3.65723Q8.82812 4.3457 9.91211 5.03418Q10.9961 5.72266 12.2168 6.18652Q13.4375 6.65039 14.8535 6.65039Q16.0742 6.65039 16.9385 6.18652Q17.8027 5.72266 18.2568 4.92676Q18.7109 4.13086 18.7109 3.14453Q18.7109 2.64648 18.584 2.12402Q18.457 1.60156 18.1934 1.09375Q18.0273 0.78125 17.7588 0.712891Q17.4902 0.644531 17.2412 0.756836Q16.9922 0.869141 16.8848 1.12793Q16.7773 1.38672 16.9629 1.72852Q17.3828 2.5293 17.3828 3.27148Q17.3828 4.17969 16.7432 4.72656Q16.1035 5.27344 14.8535 5.27344Q13.6621 5.27344 12.5732 4.80957Q11.4844 4.3457 10.4443 3.65723Q9.4043 2.96875 8.37402 2.28027Q7.34375 1.5918 6.26953 1.12793Q5.19531 0.664062 4.04297 0.664062Q2.77344 0.664062 1.87012 1.16211Q0.966797 1.66016 0.483398 2.48535Q0 3.31055 0 4.28711Q0 5.27344 0.478516 6.20117Q0.634766 6.51367 0.908203 6.57715Q1.18164 6.64062 1.42578 6.52344Q1.66992 6.40625 1.77734 6.15234Q1.88477 5.89844 1.70898 5.56641Q1.52344 5.19531 1.43066 4.84375Q1.33789 4.49219 1.33789 4.16992Q1.33789 3.25195 2.03613 2.64648Q2.73438 2.04102 4.04297 2.04102ZM8.79883 10.8496L9.41406 11.0352L10.166 10.5469Q10.3223 9.49219 10.708 8.60352Q11.0938 7.71484 11.5234 6.88965Q11.9531 6.06445 12.2607 5.20996Q12.5684 4.35547 12.5684 3.36914Q12.5684 2.50977 12.207 1.81152Q11.8457 1.11328 11.2256 0.693359Q10.6055 0.273438 9.82422 0.273438Q8.78906 0.273438 8.05664 0.966797Q7.32422 1.66016 7.29492 2.71484L8.57422 3.08594Q8.58398 2.44141 8.92578 2.0459Q9.26758 1.65039 9.82422 1.65039Q10.4199 1.65039 10.8057 2.12402Q11.1914 2.59766 11.1914 3.36914Q11.1914 4.16016 10.8643 4.93652Q10.5371 5.71289 10.0928 6.57227Q9.64844 7.43164 9.27246 8.47656Q8.89648 9.52148 8.79883 10.8496Z" fill="#007aff"/>
 </g>
</svg>
