<?xml version="1.0" encoding="UTF-8"?>
<!--Generator: Apple Native CoreSVG 175-->
<!DOCTYPE svg
PUBLIC "-//W3C//DTD SVG 1.1//EN"
       "http://www.w3.org/Graphics/SVG/1.1/DTD/svg11.dtd">
<svg version="1.1" xmlns="http://www.w3.org/2000/svg" xmlns:xlink="http://www.w3.org/1999/xlink" width="20.307" height="21.4967">
 <g>
  <rect height="21.4967" opacity="0" width="20.307" x="0" y="0"/>
  <path d="M1.49734 7.8649L18.8098 7.8649Q19.4887 7.8649 19.8978 7.45848Q20.307 7.05206 20.307 6.37152L20.307 2.02307Q20.307 1.34268 19.8978 0.936184Q19.4887 0.52969 18.8098 0.52969L1.49734 0.52969Q0.818329 0.52969 0.409164 0.936184Q0 1.34268 0 2.02307L0 6.37152Q0 7.05206 0.409164 7.45848Q0.818329 7.8649 1.49734 7.8649ZM1.51962 7.15673Q1.15585 7.15673 0.932007 6.93014Q0.70816 6.70355 0.70816 6.33291L0.70816 2.05908Q0.70816 1.68844 0.932007 1.46322Q1.15585 1.238 1.51962 1.238L18.7805 1.238Q19.1512 1.238 19.375 1.46322Q19.5988 1.68844 19.5988 2.05908L19.5988 6.33291Q19.5988 6.70355 19.375 6.93014Q19.1512 7.15673 18.7805 7.15673ZM9.80896 9.63369L10.5035 9.63369L10.5035 7.67279L9.80896 7.67279ZM1.49734 16.7048L18.8098 16.7048Q19.4887 16.7048 19.8978 16.3019Q20.307 15.899 20.307 15.2184L20.307 10.8629Q20.307 10.1896 19.8978 9.78308Q19.4887 9.37658 18.8098 9.37658L1.49734 9.37658Q0.818329 9.37658 0.409164 9.78308Q0 10.1896 0 10.8629L0 15.2184Q0 15.899 0.409164 16.3019Q0.818329 16.7048 1.49734 16.7048ZM1.51962 16.0036Q1.15585 16.0036 0.932007 15.7784Q0.70816 15.5532 0.70816 15.1826L0.70816 10.9017Q0.70816 10.5379 0.932007 10.3114Q1.15585 10.0849 1.51962 10.0849L18.7805 10.0849Q19.1512 10.0849 19.375 10.3114Q19.5988 10.5379 19.5988 10.9017L19.5988 15.1826Q19.5988 15.5532 19.375 15.7784Q19.1512 16.0036 18.7805 16.0036ZM9.79218 18.6053L10.5106 18.6053L10.5106 16.4008L9.79218 16.4008ZM9.74838 21.29Q9.91684 21.5001 10.1639 21.4966Q10.4109 21.4931 10.5626 21.29L12.4261 18.8076Q12.6149 18.5477 12.5205 18.2825Q12.4261 18.0173 12.1028 18.0173L8.20541 18.0173Q7.88635 18.0173 7.78709 18.2812Q7.68784 18.545 7.88635 18.8076Z" fill="#007aff"/>
 </g>
</svg>
