<?xml version="1.0" encoding="UTF-8"?>
<!--Generator: Apple Native CoreSVG 175.5-->
<!DOCTYPE svg
PUBLIC "-//W3C//DTD SVG 1.1//EN"
       "http://www.w3.org/Graphics/SVG/1.1/DTD/svg11.dtd">
<svg version="1.1" xmlns="http://www.w3.org/2000/svg" xmlns:xlink="http://www.w3.org/1999/xlink" width="19.7473" height="19.7569">
 <g>
  <rect height="19.7569" opacity="0" width="19.7473" x="0" y="0"/>
  <path d="M2.18819 19.2974Q3.52608 19.6978 5.00557 19.7417Q6.48506 19.7857 7.98897 19.483L0.26436 11.7583Q-0.0383748 13.272 0.00557053 14.7466Q0.0495158 16.2212 0.449906 17.5591Q0.694047 18.3697 1.03584 18.7115Q1.37764 19.0533 2.18819 19.2974ZM15.4304 15.4302Q16.6413 14.2291 17.5105 12.8472Q18.3796 11.4654 18.9069 10.0005L9.74678 0.840379Q8.28194 1.36772 6.89522 2.23686Q5.5085 3.106 4.30733 4.31694Q3.10616 5.51811 2.23702 6.89995Q1.36788 8.28179 0.830766 9.74663L9.99092 18.9068Q11.4655 18.3794 12.8474 17.5103Q14.2292 16.6412 15.4304 15.4302ZM8.50655 13.8677Q8.37959 13.9947 8.19405 13.9947Q8.0085 13.9947 7.88155 13.858L5.87959 11.856Q5.75264 11.7291 5.75264 11.5484Q5.75264 11.3677 5.87959 11.2408Q6.00655 11.1041 6.19698 11.1041Q6.38741 11.1041 6.50459 11.231L7.19795 11.9244L7.92061 11.1919L7.22725 10.5083Q7.1003 10.3814 7.1003 10.2007Q7.1003 10.0201 7.22725 9.88335Q7.3542 9.75639 7.54463 9.75639Q7.73506 9.75639 7.86202 9.87358L8.54561 10.5767L9.26827 9.84429L8.57491 9.16069Q8.44795 9.03374 8.44307 8.85307Q8.43819 8.67241 8.57491 8.53569Q8.71163 8.40874 8.89717 8.40386Q9.08272 8.39897 9.19991 8.52593L9.89327 9.21929L10.6257 8.49663L9.92256 7.81304Q9.80538 7.68608 9.80049 7.50054Q9.79561 7.31499 9.92256 7.18804Q10.0593 7.05132 10.2399 7.05132Q10.4206 7.05132 10.5476 7.17827L11.2409 7.87163L11.9733 7.14897L11.28 6.45561Q11.153 6.33843 11.1481 6.15288Q11.1433 5.96733 11.28 5.84038Q11.4069 5.71343 11.5876 5.71343Q11.7683 5.71343 11.8952 5.83061L13.9069 7.84233Q14.0339 7.96929 14.0339 8.15483Q14.0339 8.34038 13.9069 8.46733Q13.7702 8.60405 13.5896 8.59917Q13.4089 8.59429 13.2722 8.45757L12.5886 7.77397L11.8659 8.49663L12.5593 9.18999Q12.6862 9.31694 12.6862 9.50249Q12.6862 9.68804 12.5593 9.82475Q12.4226 9.95171 12.2419 9.94682Q12.0612 9.94194 11.9343 9.81499L11.2409 9.13139L10.5183 9.84429L11.2116 10.5376Q11.3386 10.6646 11.3386 10.8501Q11.3386 11.0357 11.2116 11.1724Q11.0749 11.2994 10.8942 11.2945Q10.7136 11.2896 10.5866 11.1626L9.89327 10.4791L9.17061 11.1919L9.8542 11.8853Q9.99092 12.0123 9.99092 12.1978Q9.99092 12.3833 9.8542 12.5201Q9.72725 12.647 9.5417 12.6421Q9.35616 12.6373 9.23897 12.5103L8.54561 11.8267L7.82295 12.5494L8.50655 13.233Q8.64327 13.3599 8.64327 13.5455Q8.64327 13.731 8.50655 13.8677ZM19.2976 2.18804Q19.0534 1.38725 18.7067 1.04057Q18.3601 0.693894 17.5593 0.449754Q16.2214 0.0493632 14.7419 0.00541792Q13.2624-0.0385274 11.7585 0.273973L19.4733 7.98882Q19.7858 6.48491 19.7419 5.00542Q19.698 3.52593 19.2976 2.18804Z" fill="#007aff"/>
 </g>
</svg>
