<?xml version="1.0" encoding="UTF-8"?>
<!--Generator: Apple Native CoreSVG 175-->
<!DOCTYPE svg
PUBLIC "-//W3C//DTD SVG 1.1//EN"
       "http://www.w3.org/Graphics/SVG/1.1/DTD/svg11.dtd">
<svg version="1.1" xmlns="http://www.w3.org/2000/svg" xmlns:xlink="http://www.w3.org/1999/xlink" width="29.1853" height="15.0925">
 <g>
  <rect height="15.0925" opacity="0" width="29.1853" x="0" y="0"/>
  <path d="M26.1407 15.0784L28.2239 15.0784Q28.7279 15.0784 28.9566 14.8484Q29.1853 14.6184 29.1853 14.1144L29.1853 0.961304Q29.1853 0.451813 28.9566 0.225906Q28.7279 0 28.2239 0L26.1407 0Q25.6367 0 25.4067 0.230026Q25.1767 0.460052 25.1767 0.961304L25.1767 14.1144Q25.1767 14.6184 25.4067 14.8484Q25.6367 15.0784 26.1407 15.0784ZM13.629 14.7223Q13.8544 14.7223 14.0723 14.6365Q14.2903 14.5508 14.4778 14.4382L24.6259 8.4761Q24.9113 8.30429 25.0684 8.07304Q25.2255 7.8418 25.2255 7.52731Q25.2255 7.21985 25.0719 6.99562Q24.9184 6.77139 24.6259 6.59256L14.4778 0.627594Q14.2805 0.515137 14.0675 0.429382Q13.8544 0.343628 13.629 0.343628Q13.2286 0.343628 12.9085 0.65033Q12.5883 0.957031 12.5883 1.60156L12.5883 13.4671Q12.5883 14.1116 12.9085 14.417Q13.2286 14.7223 13.629 14.7223ZM1.04767 14.7223Q1.26602 14.7223 1.48399 14.6365Q1.70197 14.5508 1.8895 14.4382L12.0375 8.4761Q12.3232 8.30429 12.4802 8.07304Q12.6372 7.8418 12.6372 7.52731Q12.6372 7.21985 12.4837 6.99562Q12.3302 6.77139 12.0375 6.59256L1.8895 0.627594Q1.6922 0.515137 1.47911 0.429382Q1.26602 0.343628 1.04767 0.343628Q0.640259 0.343628 0.320129 0.65033Q0 0.957031 0 1.60156L0 13.4671Q0 14.1116 0.320129 14.417Q0.640259 14.7223 1.04767 14.7223Z" fill="#000000"/>
 </g>
</svg>
