<?xml version="1.0" encoding="UTF-8"?>
<!--Generator: Apple Native CoreSVG 175.5-->
<!DOCTYPE svg
PUBLIC "-//W3C//DTD SVG 1.1//EN"
       "http://www.w3.org/Graphics/SVG/1.1/DTD/svg11.dtd">
<svg version="1.1" xmlns="http://www.w3.org/2000/svg" xmlns:xlink="http://www.w3.org/1999/xlink" width="25.4707" height="20.1074">
 <g>
  <rect height="20.1074" opacity="0" width="25.4707" x="0" y="0"/>
  <path d="M11.8457 20.1074Q14.4434 20.1074 16.6846 19.2773Q18.9258 18.4473 20.7031 16.9434Q22.4805 15.4395 23.6914 13.4131Q24.9023 11.3867 25.4395 8.99414Q25.5176 8.62305 25.4004 8.33008Q25.2832 8.03711 25.0098 7.86621Q24.7363 7.69531 24.3457 7.69531L15.0684 7.69531L15.0684 9.26758L24.541 9.26758L23.9062 8.7207Q23.3887 10.8887 22.2852 12.6904Q21.1816 14.4922 19.5996 15.8008Q18.0176 17.1094 16.0498 17.8223Q14.082 18.5352 11.8457 18.5352Q9.53125 18.5352 7.6416 17.8564Q5.75195 17.1777 4.38965 15.9326Q3.02734 14.6875 2.29492 12.9785Q1.5625 11.2695 1.5625 9.20898Q1.5625 7.54883 2.11426 6.15234Q2.66602 4.75586 3.65723 3.73047Q4.64844 2.70508 5.98145 2.14355Q7.31445 1.58203 8.87695 1.58203Q10.0781 1.58203 11.0889 1.95312Q12.0996 2.32422 12.8369 2.99805Q13.5742 3.67188 13.9795 4.58984Q14.3848 5.50781 14.3848 6.61133Q14.3848 7.83203 13.9111 8.7793Q13.4375 9.72656 12.6074 10.2686Q11.7773 10.8105 10.7031 10.8105Q9.79492 10.8105 9.10156 10.4492Q8.4082 10.0879 8.01758 9.47266Q7.62695 8.85742 7.62695 8.08594Q7.62695 7.48047 7.87598 6.99707Q8.125 6.51367 8.55957 6.23047Q8.99414 5.94727 9.56055 5.94727Q10.2539 5.94727 10.6348 6.30859Q11.0156 6.66992 11.0156 7.2168Q11.0156 7.62695 10.791 7.89062Q10.5664 8.1543 10.2051 8.1543Q9.91211 8.1543 9.78027 8.03223Q9.64844 7.91016 9.57031 7.76367Q9.49219 7.62695 9.37012 7.54883Q9.24805 7.4707 9.04297 7.4707Q8.80859 7.4707 8.60352 7.65625Q8.39844 7.8418 8.39844 8.20312Q8.39844 8.69141 8.85254 9.20898Q9.30664 9.72656 10.1953 9.72656Q11.1914 9.72656 11.8896 9.03809Q12.5879 8.34961 12.5879 7.2168Q12.5879 6.42578 12.1875 5.78125Q11.7871 5.13672 11.0986 4.75586Q10.4102 4.375 9.56055 4.375Q8.60352 4.375 7.80762 4.86816Q7.01172 5.36133 6.5332 6.20605Q6.05469 7.05078 6.05469 8.08594Q6.05469 9.28711 6.65527 10.2588Q7.25586 11.2305 8.30566 11.8066Q9.35547 12.3828 10.7031 12.3828Q11.8555 12.3828 12.7246 12.0117Q13.5938 11.6406 14.209 11.0254Q14.8242 10.4102 15.21 9.65332Q15.5957 8.89648 15.7764 8.10547Q15.957 7.31445 15.957 6.61133Q15.957 5.17578 15.4346 3.96973Q14.9121 2.76367 13.96 1.875Q13.0078 0.986328 11.7139 0.498047Q10.4199 0.00976562 8.87695 0.00976562Q6.98242 0.00976562 5.36621 0.688477Q3.75 1.36719 2.54395 2.60742Q1.33789 3.84766 0.668945 5.52734Q0 7.20703 0 9.20898Q0 11.6113 0.849609 13.6035Q1.69922 15.5957 3.27148 17.0557Q4.84375 18.5156 7.0166 19.3115Q9.18945 20.1074 11.8457 20.1074ZM13.7793 1.9043L10.127 5.56641L10.9668 6.40625L14.6191 2.74414ZM8.36914 0.351562L8.36914 5.63477L9.55078 5.63477L9.55078 0.351562ZM3.22266 2.67578L7.08008 6.54297L7.91016 5.69336L4.0625 1.83594ZM1.18164 8.65234L6.82617 8.65234L6.82617 7.4707L1.18164 7.4707ZM3.27148 15.6152L7.93945 10.9473L7.10938 10.1074L2.45117 14.7754ZM9.79492 19.1895L10.9766 19.1895L10.9766 11.8555L9.79492 11.8555ZM18.8379 17.1387L19.668 16.2988L13.5938 10.2148L12.7637 11.0547Z" fill="#007aff"/>
 </g>
</svg>
