<?xml version="1.0" encoding="UTF-8"?>
<!--Generator: Apple Native CoreSVG 175.5-->
<!DOCTYPE svg
PUBLIC "-//W3C//DTD SVG 1.1//EN"
       "http://www.w3.org/Graphics/SVG/1.1/DTD/svg11.dtd">
<svg version="1.1" xmlns="http://www.w3.org/2000/svg" xmlns:xlink="http://www.w3.org/1999/xlink" width="17.9785" height="17.998">
 <g>
  <rect height="17.998" opacity="0" width="17.9785" x="0" y="0"/>
  <path d="M3.06641 17.998L14.9121 17.998Q16.4453 17.998 17.2119 17.2412Q17.9785 16.4844 17.9785 14.9707L17.9785 3.04688Q17.9785 1.5332 17.2119 0.776367Q16.4453 0.0195312 14.9121 0.0195312L3.06641 0.0195312Q1.5332 0.0195312 0.766602 0.776367Q0 1.5332 0 3.04688L0 14.9707Q0 16.4844 0.766602 17.2412Q1.5332 17.998 3.06641 17.998Z" fill="#007aff"/>
  <path d="M7.22656 14.043Q6.93359 14.043 6.74805 13.8672Q6.5625 13.6914 6.5625 13.3984L6.5625 12.334L5.75195 12.334Q5.52734 12.334 5.40039 12.1875Q5.27344 12.041 5.27344 11.8262Q5.27344 11.3281 5.75195 11.3281L6.5625 11.3281L6.5625 5.09766Q6.5625 4.79492 6.73828 4.60938Q6.91406 4.42383 7.2168 4.42383L11.6113 4.42383Q11.875 4.42383 12.0508 4.58984Q12.2266 4.75586 12.2266 5.03906Q12.2266 5.3125 12.0508 5.47852Q11.875 5.64453 11.6113 5.64453L7.88086 5.64453L7.88086 8.48633L11.2402 8.48633Q11.5039 8.48633 11.6846 8.64746Q11.8652 8.80859 11.8652 9.0918Q11.8652 9.36523 11.6846 9.53125Q11.5039 9.69727 11.2402 9.69727L7.88086 9.69727L7.88086 11.3281L9.95117 11.3281Q10.1758 11.3281 10.3125 11.4697Q10.4492 11.6113 10.4492 11.8262Q10.4492 12.041 10.3125 12.1875Q10.1758 12.334 9.95117 12.334L7.88086 12.334L7.88086 13.3887Q7.88086 13.6816 7.7002 13.8623Q7.51953 14.043 7.22656 14.043Z" fill="#ffffff"/>
 </g>
</svg>
