<?xml version="1.0" encoding="UTF-8"?>
<!--Generator: Apple Native CoreSVG 175-->
<!DOCTYPE svg
PUBLIC "-//W3C//DTD SVG 1.1//EN"
       "http://www.w3.org/Graphics/SVG/1.1/DTD/svg11.dtd">
<svg version="1.1" xmlns="http://www.w3.org/2000/svg" xmlns:xlink="http://www.w3.org/1999/xlink" width="19.1602" height="19.1504">
 <g>
  <rect height="19.1504" opacity="0" width="19.1602" x="0" y="0"/>
  <path d="M9.57031 19.1406Q11.5527 19.1406 13.2861 18.3984Q15.0195 17.6562 16.3379 16.333Q17.6562 15.0098 18.4082 13.2764Q19.1602 11.543 19.1602 9.57031Q19.1602 7.59766 18.4082 5.86426Q17.6562 4.13086 16.3379 2.80762Q15.0195 1.48438 13.2861 0.742188Q11.5527 0 9.57031 0Q7.59766 0 5.86426 0.742188Q4.13086 1.48438 2.81738 2.80762Q1.50391 4.13086 0.751953 5.86426Q0 7.59766 0 9.57031Q0 11.543 0.74707 13.2764Q1.49414 15.0098 2.8125 16.333Q4.13086 17.6562 5.86914 18.3984Q7.60742 19.1406 9.57031 19.1406Z" fill="#ffffff"/>
  <path d="M7.83203 14.1016Q7.68555 14.1016 7.58789 14.0039Q7.49023 13.9062 7.49023 13.7402L7.49023 12.3926L6.74805 12.3926Q6.62109 12.3926 6.53809 12.3096Q6.45508 12.2266 6.45508 12.0898Q6.45508 11.7871 6.74805 11.7871L7.49023 11.7871L7.49023 5.83008Q7.49023 5.67383 7.58301 5.57617Q7.67578 5.47852 7.83203 5.47852L12.041 5.47852Q12.1875 5.47852 12.2754 5.57129Q12.3633 5.66406 12.3633 5.81055Q12.3633 5.95703 12.2754 6.04492Q12.1875 6.13281 12.041 6.13281L8.16406 6.13281L8.16406 9.26758L11.6895 9.26758Q11.8359 9.26758 11.9238 9.36035Q12.0117 9.45312 12.0117 9.59961Q12.0117 9.74609 11.9238 9.83398Q11.8359 9.92188 11.6895 9.92188L8.16406 9.92188L8.16406 11.7871L10.5176 11.7871Q10.6543 11.7871 10.7373 11.875Q10.8203 11.9629 10.8203 12.0898Q10.8203 12.2266 10.7373 12.3096Q10.6543 12.3926 10.5176 12.3926L8.16406 12.3926L8.16406 13.7598Q8.16406 13.9258 8.07129 14.0137Q7.97852 14.1016 7.83203 14.1016Z" fill="#ffffff"/>
 </g>
</svg>
