<?xml version="1.0" encoding="UTF-8"?>
<!--Generator: Apple Native CoreSVG 175.5-->
<!DOCTYPE svg
PUBLIC "-//W3C//DTD SVG 1.1//EN"
       "http://www.w3.org/Graphics/SVG/1.1/DTD/svg11.dtd">
<svg version="1.1" xmlns="http://www.w3.org/2000/svg" xmlns:xlink="http://www.w3.org/1999/xlink" width="30.1673" height="19.6191">
 <g>
  <rect height="19.6191" opacity="0" width="30.1673" x="0" y="0"/>
  <path d="M0 10.9277Q0 12.8809 0.874023 14.4775Q1.74805 16.0742 3.37402 17.2266Q5 18.3789 7.26562 18.999Q9.53125 19.6191 12.3145 19.6191Q15.0977 19.6191 17.3682 18.999Q19.6387 18.3789 21.2646 17.2266Q22.8906 16.0742 23.7646 14.4775Q24.6387 12.8809 24.6387 10.9277Q24.6387 10.1074 23.7402 9.38965Q22.8418 8.67188 21.1963 8.125Q19.5508 7.57812 17.2949 7.27051Q15.0391 6.96289 12.3145 6.96289Q9.59961 6.96289 7.34375 7.27051Q5.08789 7.57812 3.44238 8.125Q1.79688 8.67188 0.898438 9.38965Q0 10.1074 0 10.9277ZM1.57227 10.9277Q1.57227 10.6641 1.97266 10.376Q2.37305 10.0879 3.10547 9.80957Q3.83789 9.53125 4.83398 9.28711Q5.83008 9.04297 7.03125 8.85254Q8.23242 8.66211 9.57031 8.5498Q10.9082 8.4375 12.3145 8.4375Q13.7207 8.4375 15.0586 8.5498Q16.3965 8.66211 17.5977 8.85254Q18.7988 9.04297 19.7998 9.28711Q20.8008 9.53125 21.5332 9.80957Q22.2656 10.0879 22.666 10.376Q23.0664 10.6641 23.0664 10.9277Q23.0664 11.2305 22.5244 11.5674Q21.9824 11.9043 20.9961 12.2314Q20.0098 12.5586 18.667 12.8174Q17.3242 13.0762 15.7129 13.2324Q14.1016 13.3887 12.3145 13.3887Q10.5371 13.3887 8.92578 13.2324Q7.31445 13.0762 5.97168 12.8174Q4.62891 12.5586 3.64258 12.2314Q2.65625 11.9043 2.11426 11.5674Q1.57227 11.2305 1.57227 10.9277ZM22.5781 9.86328L29.0234 5.91797Q29.6973 5.50781 29.9609 4.95605Q30.2246 4.4043 30.1514 3.83301Q30.0781 3.26172 29.7217 2.79785Q29.3652 2.33398 28.7939 2.09961Q28.2227 1.86523 27.4902 1.97266Q26.7578 2.08008 25.9375 2.67578L18.4082 8.0957ZM6.64062 13.5254L17.1582 13.5645Q17.1582 12.5488 16.665 11.7969Q16.1719 11.0449 15.3516 10.625Q14.5312 10.2051 13.5742 10.2051Q12.627 10.2051 11.8311 10.6006Q11.0352 10.9961 10.5371 11.6504Q10.2832 11.5625 10.0342 11.5234Q9.78516 11.4844 9.50195 11.4844Q8.78906 11.4844 8.18848 11.7529Q7.58789 12.0215 7.17773 12.4854Q6.76758 12.9492 6.64062 13.5254Z" fill="#007aff"/>
 </g>
</svg>
