<?xml version="1.0" encoding="UTF-8"?>
<!--Generator: Apple Native CoreSVG 175.5-->
<!DOCTYPE svg
PUBLIC "-//W3C//DTD SVG 1.1//EN"
       "http://www.w3.org/Graphics/SVG/1.1/DTD/svg11.dtd">
<svg version="1.1" xmlns="http://www.w3.org/2000/svg" xmlns:xlink="http://www.w3.org/1999/xlink" width="30.3652" height="19.6191">
 <g>
  <rect height="19.6191" opacity="0" width="30.3652" x="0" y="0"/>
  <path d="M0 10.9277Q0 12.8809 0.874023 14.4775Q1.74805 16.0742 3.37402 17.2266Q5 18.3789 7.26562 18.999Q9.53125 19.6191 12.3145 19.6191Q15.0977 19.6191 17.3682 18.999Q19.6387 18.3789 21.2646 17.2266Q22.8906 16.0742 23.7646 14.4775Q24.6387 12.8809 24.6387 10.9277Q24.6387 10.1074 23.7402 9.38965Q22.8418 8.67188 21.1963 8.125Q19.5508 7.57812 17.2949 7.27051Q15.0391 6.96289 12.3145 6.96289Q9.59961 6.96289 7.34375 7.27051Q5.08789 7.57812 3.44238 8.125Q1.79688 8.67188 0.898438 9.38965Q0 10.1074 0 10.9277ZM1.57227 10.9277Q1.57227 10.6641 1.97266 10.376Q2.37305 10.0879 3.10547 9.80957Q3.83789 9.53125 4.83398 9.28711Q5.83008 9.04297 7.03125 8.85254Q8.23242 8.66211 9.57031 8.5498Q10.9082 8.4375 12.3145 8.4375Q13.7207 8.4375 15.0586 8.5498Q16.3965 8.66211 17.5977 8.85254Q18.7988 9.04297 19.7998 9.28711Q20.8008 9.53125 21.5332 9.80957Q22.2656 10.0879 22.666 10.376Q23.0664 10.6641 23.0664 10.9277Q23.0664 11.2305 22.5244 11.5576Q21.9824 11.8848 20.9961 12.1973Q20.0098 12.5098 18.667 12.7539Q17.3242 12.998 15.7129 13.1445Q14.1016 13.291 12.3145 13.291Q10.5371 13.291 8.92578 13.1445Q7.31445 12.998 5.97168 12.7539Q4.62891 12.5098 3.64258 12.1973Q2.65625 11.8848 2.11426 11.5576Q1.57227 11.2305 1.57227 10.9277ZM1.875 12.8906Q2.83203 13.457 4.45801 13.9062Q6.08398 14.3555 8.11523 14.6094Q10.1465 14.8633 12.3145 14.8633Q14.4922 14.8633 16.5234 14.6094Q18.5547 14.3555 20.1807 13.9062Q21.8066 13.457 22.7637 12.8906Q22.3633 14.4434 20.9277 15.6055Q19.4922 16.7676 17.2754 17.4072Q15.0586 18.0469 12.3145 18.0469Q9.57031 18.0469 7.3584 17.4072Q5.14648 16.7676 3.71094 15.6055Q2.27539 14.4434 1.875 12.8906ZM22.5977 10.0781L29.1211 6.08398Q29.8535 5.64453 30.1416 5.03906Q30.4297 4.43359 30.3467 3.81836Q30.2637 3.20312 29.8828 2.69531Q29.502 2.1875 28.8818 1.92871Q28.2617 1.66992 27.4805 1.77734Q26.6992 1.88477 25.8203 2.51953L18.0176 8.13477L19.668 8.57422L26.9434 3.61328Q27.373 3.32031 27.7246 3.29102Q28.0762 3.26172 28.3057 3.41309Q28.5352 3.56445 28.6182 3.81836Q28.7012 4.07227 28.5938 4.35059Q28.4863 4.62891 28.1543 4.83398L21.2207 9.13086ZM6.64062 13.5254L17.1582 13.5645Q17.1582 12.5488 16.665 11.7969Q16.1719 11.0449 15.3516 10.625Q14.5312 10.2051 13.5742 10.2051Q12.627 10.2051 11.8311 10.6006Q11.0352 10.9961 10.5371 11.6504Q10.2832 11.5625 10.0342 11.5234Q9.78516 11.4844 9.50195 11.4844Q8.78906 11.4844 8.18848 11.7529Q7.58789 12.0215 7.17773 12.4854Q6.76758 12.9492 6.64062 13.5254Z" fill="#007aff"/>
 </g>
</svg>
