<?xml version="1.0" encoding="UTF-8"?>
<!--Generator: Apple Native CoreSVG 175-->
<!DOCTYPE svg
PUBLIC "-//W3C//DTD SVG 1.1//EN"
       "http://www.w3.org/Graphics/SVG/1.1/DTD/svg11.dtd">
<svg version="1.1" xmlns="http://www.w3.org/2000/svg" xmlns:xlink="http://www.w3.org/1999/xlink" width="19.6954" height="21.9534">
 <g>
  <rect height="21.9534" opacity="0" width="19.6954" x="0" y="0"/>
  <path d="M14.7203 21.5152L14.7203 2.53036Q14.7203 1.30859 14.0766 0.654297Q13.4329 0 12.197 0L3.77182 0Q2.53601 0 1.89224 0.645905Q1.24847 1.29181 1.24847 2.53036L1.24847 21.5152L1.96991 21.5152L1.96991 2.55264Q1.96991 0.728455 3.80112 0.728455L12.1677 0.728455Q13.0426 0.728455 13.5194 1.19118Q13.9961 1.6539 13.9961 2.55264L13.9961 21.5152ZM0 21.5773Q0 21.7238 0.10643 21.8316Q0.21286 21.9394 0.359344 21.9394L15.5997 21.9394Q15.7462 21.9394 15.854 21.8316Q15.9618 21.7238 15.9618 21.5773Q15.9618 21.4308 15.854 21.3244Q15.7462 21.218 15.5997 21.218L0.359344 21.218Q0.21286 21.218 0.10643 21.3244Q0 21.4308 0 21.5773ZM4.13361 10.5316L11.8422 10.5316Q12.2461 10.5316 12.4975 10.2836Q12.7489 10.0356 12.7489 9.64249L12.7489 2.89719Q12.7489 2.50427 12.4975 2.25761Q12.2461 2.01096 11.8422 2.01096L4.13361 2.01096Q3.72269 2.01096 3.4713 2.25761Q3.21991 2.50427 3.21991 2.89719L3.21991 9.64249Q3.21991 10.0356 3.4713 10.2836Q3.72269 10.5316 4.13361 10.5316ZM17.8841 19.6082Q18.6986 19.6082 19.197 19.1077Q19.6954 18.6073 19.6954 17.7847L19.6954 6.99722Q19.6954 5.18433 19.061 4.03824Q18.438 3.00262 17.2603 2.63748Q17.0923 2.58743 16.9671 2.66792Q16.8419 2.74841 16.8059 2.87415Q16.777 3.00705 16.8385 3.13576Q16.9 3.26447 17.0567 3.31009Q17.5708 3.44879 17.9655 3.79173Q18.3601 4.13467 18.6188 4.70985Q18.8774 5.28503 18.9746 6.09879L17.3813 6.09879Q17.0985 6.09879 16.9161 6.2812Q16.7337 6.46362 16.7337 6.74637L16.7337 10.1413Q16.7337 10.4285 16.9175 10.6087Q17.1013 10.789 17.3813 10.789L19.0091 10.789L19.0091 17.7847Q19.0091 18.2988 18.6995 18.6103Q18.3899 18.9218 17.8841 18.9218Q17.3645 18.9218 17.0489 18.6103Q16.7332 18.2988 16.7332 17.7847L16.7332 16.1316Q16.7332 15.0558 16.1559 14.4742Q15.5786 13.8925 14.4806 13.8757L14.4806 14.5789Q15.1482 14.5789 15.6024 14.9911Q16.0567 15.4034 16.0567 16.1316L16.0567 17.7847Q16.0567 18.6073 16.5612 19.1077Q17.0657 19.6082 17.8841 19.6082Z" fill="#007aff"/>
 </g>
</svg>
