<?xml version="1.0" encoding="UTF-8"?>
<!--Generator: Apple Native CoreSVG 175-->
<!DOCTYPE svg
PUBLIC "-//W3C//DTD SVG 1.1//EN"
       "http://www.w3.org/Graphics/SVG/1.1/DTD/svg11.dtd">
<svg version="1.1" xmlns="http://www.w3.org/2000/svg" xmlns:xlink="http://www.w3.org/1999/xlink" width="19.1602" height="19.1504">
 <g>
  <rect height="19.1504" opacity="0" width="19.1602" x="0" y="0"/>
  <path d="M9.57031 19.1406Q11.5527 19.1406 13.2861 18.3984Q15.0195 17.6562 16.3379 16.333Q17.6562 15.0098 18.4082 13.2764Q19.1602 11.543 19.1602 9.57031Q19.1602 7.59766 18.4082 5.86426Q17.6562 4.13086 16.3379 2.80762Q15.0195 1.48438 13.2861 0.742188Q11.5527 0 9.57031 0Q7.59766 0 5.86426 0.742188Q4.13086 1.48438 2.81738 2.80762Q1.50391 4.13086 0.751953 5.86426Q0 7.59766 0 9.57031Q0 11.543 0.74707 13.2764Q1.49414 15.0098 2.8125 16.333Q4.13086 17.6562 5.86914 18.3984Q7.60742 19.1406 9.57031 19.1406ZM9.57031 18.3984Q7.74414 18.3984 6.14746 17.71Q4.55078 17.0215 3.33496 15.8105Q2.11914 14.5996 1.43555 12.998Q0.751953 11.3965 0.751953 9.57031Q0.751953 7.74414 1.43555 6.14258Q2.11914 4.54102 3.33496 3.3252Q4.55078 2.10938 6.14746 1.4209Q7.74414 0.732422 9.57031 0.732422Q11.4062 0.732422 13.0029 1.4209Q14.5996 2.10938 15.8154 3.3252Q17.0312 4.54102 17.7197 6.14258Q18.4082 7.74414 18.4082 9.57031Q18.4082 11.3965 17.7246 12.998Q17.041 14.5996 15.8252 15.8105Q14.6094 17.0215 13.0078 17.71Q11.4062 18.3984 9.57031 18.3984ZM12.5195 14.7266L12.5195 5.06836Q12.5195 3.76953 11.2207 3.76953L6.79688 3.76953Q5.50781 3.76953 5.50781 5.06836L5.50781 14.7266ZM7.1582 9.16992Q6.78711 9.16992 6.78711 8.79883L6.78711 5.51758Q6.78711 5.16602 7.1582 5.16602L10.8789 5.16602Q11.2402 5.16602 11.2402 5.51758L11.2402 8.79883Q11.2402 9.16992 10.8789 9.16992ZM4.80469 14.8242Q4.80469 14.9414 4.8877 15.0293Q4.9707 15.1172 5.07812 15.1172L12.832 15.1172Q13.0273 15.1172 13.1201 15.0293Q13.2129 14.9414 13.2129 14.8242Q13.2129 14.7266 13.1201 14.6436Q13.0273 14.5605 12.832 14.5605L5.07812 14.5605Q4.9707 14.5605 4.8877 14.6436Q4.80469 14.7266 4.80469 14.8242ZM11.9531 13.1641L14.0137 13.1641Q14.4824 13.1641 14.7656 12.8906Q15.0488 12.6172 15.0488 12.1387L15.0488 7.37305Q15.0488 6.44531 14.6973 5.82031Q14.3652 5.25391 13.7305 5.03906Q13.6133 5.00977 13.5156 5.06348Q13.418 5.11719 13.3984 5.23438Q13.3789 5.3418 13.4277 5.43457Q13.4766 5.52734 13.5742 5.55664Q13.9258 5.6543 14.165 5.96191Q14.4043 6.26953 14.4922 6.81641L13.7695 6.81641Q13.584 6.81641 13.4766 6.94336Q13.3691 7.07031 13.3691 7.24609L13.3691 9.00391Q13.3691 9.19922 13.4766 9.30664Q13.584 9.41406 13.7695 9.41406L14.5215 9.41406L14.5215 12.1387Q14.5215 12.6465 14.0137 12.6465L11.9531 12.6465Z" fill="#000000"/>
 </g>
</svg>
