<?xml version="1.0" encoding="UTF-8"?>
<!--Generator: Apple Native CoreSVG 175-->
<!DOCTYPE svg
PUBLIC "-//W3C//DTD SVG 1.1//EN"
       "http://www.w3.org/Graphics/SVG/1.1/DTD/svg11.dtd">
<svg version="1.1" xmlns="http://www.w3.org/2000/svg" xmlns:xlink="http://www.w3.org/1999/xlink" width="19.1602" height="19.1504">
 <g>
  <rect height="19.1504" opacity="0" width="19.1602" x="0" y="0"/>
  <path d="M9.57031 19.1406Q11.5527 19.1406 13.2861 18.3984Q15.0195 17.6562 16.3379 16.333Q17.6562 15.0098 18.4082 13.2764Q19.1602 11.543 19.1602 9.57031Q19.1602 7.59766 18.4082 5.86426Q17.6562 4.13086 16.3379 2.80762Q15.0195 1.48438 13.2861 0.742188Q11.5527 0 9.57031 0Q7.59766 0 5.86426 0.742188Q4.13086 1.48438 2.81738 2.80762Q1.50391 4.13086 0.751953 5.86426Q0 7.59766 0 9.57031Q0 11.543 0.74707 13.2764Q1.49414 15.0098 2.8125 16.333Q4.13086 17.6562 5.86914 18.3984Q7.60742 19.1406 9.57031 19.1406ZM9.57031 18.3984Q7.74414 18.3984 6.14746 17.71Q4.55078 17.0215 3.33496 15.8105Q2.11914 14.5996 1.43555 12.998Q0.751953 11.3965 0.751953 9.57031Q0.751953 7.74414 1.43555 6.14258Q2.11914 4.54102 3.33496 3.3252Q4.55078 2.10938 6.14746 1.4209Q7.74414 0.732422 9.57031 0.732422Q11.4062 0.732422 13.0029 1.4209Q14.5996 2.10938 15.8154 3.3252Q17.0312 4.54102 17.7197 6.14258Q18.4082 7.74414 18.4082 9.57031Q18.4082 11.3965 17.7246 12.998Q17.041 14.5996 15.8252 15.8105Q14.6094 17.0215 13.0078 17.71Q11.4062 18.3984 9.57031 18.3984ZM9.6582 14.0332Q10.6934 14.0332 11.4551 13.6035Q12.2168 13.1738 12.6367 12.4023Q13.0566 11.6309 13.0566 10.5762L13.0566 9.90234Q13.0566 9.50195 12.6953 9.50195L9.77539 9.50195Q9.62891 9.50195 9.54102 9.59473Q9.45312 9.6875 9.45312 9.82422Q9.45312 9.95117 9.54102 10.0439Q9.62891 10.1367 9.77539 10.1367L12.3145 10.1367L12.3145 10.625Q12.3145 11.9043 11.6162 12.6367Q10.918 13.3691 9.6582 13.3691Q8.75 13.3691 8.05176 12.8906Q7.35352 12.4121 6.95801 11.5479Q6.5625 10.6836 6.5625 9.56055Q6.5625 8.42773 6.95801 7.56836Q7.35352 6.70898 8.04688 6.23047Q8.74023 5.75195 9.6582 5.75195Q10.7129 5.75195 11.4502 6.29883Q12.1875 6.8457 12.3438 7.75391Q12.3828 7.91992 12.4609 7.98828Q12.5391 8.05664 12.6855 8.05664Q12.8418 8.05664 12.9297 7.96387Q13.0176 7.87109 13.0176 7.69531Q13.0176 7.62695 13.0078 7.54883Q12.998 7.4707 12.9785 7.39258Q12.8711 6.88477 12.4609 6.34766Q12.0508 5.81055 11.3525 5.44434Q10.6543 5.07812 9.64844 5.07812Q8.50586 5.07812 7.64648 5.63965Q6.78711 6.20117 6.30371 7.21191Q5.82031 8.22266 5.82031 9.56055Q5.82031 10.9082 6.30371 11.9141Q6.78711 12.9199 7.65137 13.4766Q8.51562 14.0332 9.6582 14.0332Z" fill="#ffffff"/>
 </g>
</svg>
