<?xml version="1.0" encoding="UTF-8"?>
<!--Generator: Apple Native CoreSVG 175.5-->
<!DOCTYPE svg
PUBLIC "-//W3C//DTD SVG 1.1//EN"
       "http://www.w3.org/Graphics/SVG/1.1/DTD/svg11.dtd">
<svg version="1.1" xmlns="http://www.w3.org/2000/svg" xmlns:xlink="http://www.w3.org/1999/xlink" width="17.9785" height="17.998">
 <g>
  <rect height="17.998" opacity="0" width="17.9785" x="0" y="0"/>
  <path d="M3.06641 17.998L14.9121 17.998Q16.4453 17.998 17.2119 17.2412Q17.9785 16.4844 17.9785 14.9707L17.9785 3.04688Q17.9785 1.5332 17.2119 0.776367Q16.4453 0.0195312 14.9121 0.0195312L3.06641 0.0195312Q1.5332 0.0195312 0.766602 0.776367Q0 1.5332 0 3.04688L0 14.9707Q0 16.4844 0.766602 17.2412Q1.5332 17.998 3.06641 17.998Z" fill="#007aff"/>
  <path d="M9.05273 13.7695Q7.71484 13.7695 6.73828 13.1738Q5.76172 12.5781 5.22949 11.4893Q4.69727 10.4004 4.69727 8.90625Q4.69727 7.42188 5.22461 6.32812Q5.75195 5.23438 6.72363 4.63379Q7.69531 4.0332 9.01367 4.0332Q9.96094 4.0332 10.7129 4.32129Q11.4648 4.60938 11.9824 5.1123Q12.5 5.61523 12.7441 6.25977Q12.7832 6.38672 12.8076 6.49414Q12.832 6.60156 12.832 6.72852Q12.832 7.05078 12.6416 7.24121Q12.4512 7.43164 12.1289 7.43164Q11.8945 7.43164 11.7383 7.30957Q11.582 7.1875 11.4648 6.93359Q11.1426 6.18164 10.5225 5.78125Q9.90234 5.38086 9.04297 5.38086Q8.22266 5.38086 7.61719 5.82031Q7.01172 6.25977 6.6748 7.05566Q6.33789 7.85156 6.33789 8.90625Q6.33789 9.9707 6.67969 10.7617Q7.02148 11.5527 7.63184 11.9922Q8.24219 12.4316 9.07227 12.4316Q10.2148 12.4316 10.8008 11.8799Q11.3867 11.3281 11.3867 10.4395L11.3867 9.77539L9.52148 9.77539Q9.24805 9.77539 9.08691 9.59961Q8.92578 9.42383 8.92578 9.18945Q8.92578 8.93555 9.08691 8.76953Q9.24805 8.60352 9.52148 8.60352L12.1484 8.60352Q12.998 8.60352 12.998 9.48242L12.998 10.2246Q12.998 11.2695 12.5293 12.0703Q12.0605 12.8711 11.1768 13.3203Q10.293 13.7695 9.05273 13.7695Z" fill="#ffffff"/>
 </g>
</svg>
