<?xml version="1.0" encoding="UTF-8"?>
<!--Generator: Apple Native CoreSVG 175.5-->
<!DOCTYPE svg
PUBLIC "-//W3C//DTD SVG 1.1//EN"
       "http://www.w3.org/Graphics/SVG/1.1/DTD/svg11.dtd">
<svg version="1.1" xmlns="http://www.w3.org/2000/svg" xmlns:xlink="http://www.w3.org/1999/xlink" width="26.9531" height="21.416">
 <g>
  <rect height="21.416" opacity="0" width="26.9531" x="0" y="0"/>
  <path d="M7.04102 15.4102L8.36914 15.4102Q8.67188 15.4102 8.87207 15.2441Q9.07227 15.0781 9.14062 14.8047L9.53125 13.1934Q9.73633 13.1152 9.93164 13.0371Q10.127 12.959 10.3027 12.8613L11.7188 13.7402Q11.9629 13.8867 12.2266 13.8623Q12.4902 13.8379 12.6953 13.6328L13.6328 12.6855Q13.8281 12.4805 13.8623 12.2119Q13.8965 11.9434 13.7402 11.6895L12.8711 10.3027Q12.959 10.1172 13.042 9.92676Q13.125 9.73633 13.1836 9.54102L14.7949 9.15039Q15.0879 9.08203 15.249 8.88672Q15.4102 8.69141 15.4102 8.38867L15.4102 7.07031Q15.4102 6.45508 14.7949 6.30859L13.2031 5.9082Q13.125 5.69336 13.0469 5.50293Q12.9688 5.3125 12.8906 5.14648L13.7402 3.73047Q13.8867 3.4668 13.877 3.21289Q13.8672 2.95898 13.6523 2.75391L12.6953 1.81641Q12.4902 1.62109 12.2363 1.58203Q11.9824 1.54297 11.7383 1.68945L10.3027 2.57812Q10.1367 2.48047 9.94141 2.40234Q9.74609 2.32422 9.53125 2.25586L9.14062 0.615234Q9.07227 0.341797 8.87207 0.175781Q8.67188 0.00976562 8.36914 0.00976562L7.04102 0.00976562Q6.73828 0.00976562 6.53809 0.175781Q6.33789 0.341797 6.26953 0.615234L5.87891 2.23633Q5.67383 2.31445 5.47363 2.39258Q5.27344 2.4707 5.09766 2.56836L3.67188 1.68945Q3.42773 1.54297 3.17383 1.58203Q2.91992 1.62109 2.71484 1.81641L1.75781 2.75391Q1.54297 2.95898 1.5332 3.21289Q1.52344 3.4668 1.66992 3.73047L2.51953 5.14648Q2.44141 5.3125 2.36328 5.50293Q2.28516 5.69336 2.20703 5.9082L0.605469 6.30859Q0 6.45508 0 7.07031L0 8.38867Q0 8.69141 0.161133 8.88672Q0.322266 9.08203 0.605469 9.15039L2.22656 9.54102Q2.28516 9.73633 2.36816 9.92676Q2.45117 10.1172 2.53906 10.3027L1.66992 11.6895Q1.51367 11.9434 1.54785 12.2119Q1.58203 12.4805 1.77734 12.6855L2.71484 13.6328Q2.91992 13.8379 3.18359 13.8623Q3.44727 13.8867 3.69141 13.7402L5.10742 12.8613Q5.2832 12.959 5.47852 13.0371Q5.67383 13.1152 5.87891 13.1934L6.26953 14.8047Q6.33789 15.0781 6.53809 15.2441Q6.73828 15.4102 7.04102 15.4102ZM7.70508 10.166Q7.03125 10.166 6.46973 9.83398Q5.9082 9.50195 5.57617 8.94043Q5.24414 8.37891 5.24414 7.69531Q5.24414 7.03125 5.57617 6.47461Q5.9082 5.91797 6.46973 5.58594Q7.03125 5.25391 7.70508 5.25391Q8.37891 5.25391 8.93555 5.58594Q9.49219 5.91797 9.8291 6.47461Q10.166 7.03125 10.166 7.69531Q10.166 8.37891 9.8291 8.94043Q9.49219 9.50195 8.93555 9.83398Q8.37891 10.166 7.70508 10.166ZM19.7852 21.416L20.8984 21.416Q21.1621 21.416 21.3379 21.2744Q21.5137 21.1328 21.5723 20.8984L21.8945 19.502Q22.0801 19.4336 22.251 19.3652Q22.4219 19.2969 22.5781 19.209L23.7988 19.9707Q24.0039 20.0977 24.2285 20.0781Q24.4531 20.0586 24.6387 19.8828L25.4199 19.0918Q25.5957 18.9062 25.625 18.6719Q25.6543 18.4375 25.5176 18.2324L24.7656 17.0215Q24.8438 16.8652 24.9121 16.6992Q24.9805 16.5332 25.0391 16.3672L26.4453 16.0352Q26.9531 15.918 26.9531 15.3711L26.9531 14.2676Q26.9531 13.7109 26.4453 13.5938L25.0488 13.2617Q24.9219 12.8613 24.7754 12.5977L25.5176 11.3672Q25.6543 11.1523 25.6396 10.9326Q25.625 10.7129 25.4395 10.5273L24.6387 9.74609Q24.4531 9.57031 24.2334 9.53613Q24.0137 9.50195 23.8086 9.62891L22.5781 10.4004Q22.4316 10.332 22.2559 10.2539Q22.0801 10.1758 21.8945 10.127L21.5723 8.70117Q21.5137 8.4668 21.3379 8.32031Q21.1621 8.17383 20.8984 8.17383L19.7852 8.17383Q19.5215 8.17383 19.3457 8.32031Q19.1699 8.4668 19.1113 8.70117L18.7793 10.1074Q18.6035 10.1758 18.4277 10.2393Q18.252 10.3027 18.0957 10.3906L16.8652 9.62891Q16.6699 9.51172 16.4453 9.54102Q16.2207 9.57031 16.0449 9.74609L15.2539 10.5273Q15.0586 10.7129 15.0439 10.9326Q15.0293 11.1523 15.166 11.3672L15.8984 12.5977Q15.8301 12.7344 15.7666 12.9004Q15.7031 13.0664 15.6348 13.2617L14.248 13.5938Q14.0039 13.6523 13.8623 13.8281Q13.7207 14.0039 13.7207 14.2676L13.7207 15.3711Q13.7207 15.6348 13.8623 15.8105Q14.0039 15.9863 14.248 16.0352L15.6543 16.3672Q15.7031 16.5332 15.7715 16.6992Q15.8398 16.8652 15.918 17.0215L15.166 18.2324Q15.0195 18.4375 15.0537 18.6719Q15.0879 18.9062 15.2637 19.0918L16.0449 19.8828Q16.2207 20.0586 16.4502 20.0781Q16.6797 20.0977 16.8848 19.9707L18.1055 19.209Q18.2617 19.2969 18.4326 19.3652Q18.6035 19.4336 18.7793 19.502L19.1113 20.8984Q19.1699 21.1328 19.3457 21.2744Q19.5215 21.416 19.7852 21.416ZM20.3418 16.748Q19.541 16.748 18.9648 16.1768Q18.3887 15.6055 18.3887 14.7852Q18.3887 13.9844 18.9648 13.4131Q19.541 12.8418 20.3418 12.8418Q21.1523 12.8418 21.7236 13.4131Q22.2949 13.9844 22.2949 14.7852Q22.2949 15.6055 21.7236 16.1768Q21.1523 16.748 20.3418 16.748Z" fill="#007aff"/>
 </g>
</svg>
