<?xml version="1.0" encoding="UTF-8"?>
<!--Generator: Apple Native CoreSVG 175.5-->
<!DOCTYPE svg
PUBLIC "-//W3C//DTD SVG 1.1//EN"
       "http://www.w3.org/Graphics/SVG/1.1/DTD/svg11.dtd">
<svg version="1.1" xmlns="http://www.w3.org/2000/svg" xmlns:xlink="http://www.w3.org/1999/xlink" width="22.9492" height="16.6895">
 <g>
  <rect height="16.6895" opacity="0" width="22.9492" x="0" y="0"/>
  <path d="M0.595703 8.18359L0.595703 9.25781L9.94141 9.25781Q9.72656 9.70703 9.30176 10.2197Q8.87695 10.7324 8.33496 11.1963Q7.79297 11.6602 7.2168 11.9775Q6.64062 12.2949 6.13281 12.3535Q5.76172 12.3926 5.55664 12.6123Q5.35156 12.832 5.35156 13.1836Q5.35156 13.5059 5.59082 13.75Q5.83008 13.9941 6.25 13.9355Q6.80664 13.8477 7.49512 13.501Q8.18359 13.1543 8.85254 12.6074Q9.52148 12.0605 10.0439 11.377Q10.5664 10.6934 10.8105 9.94141L10.8789 9.94141L10.8789 16.4746L12.0605 16.4746L12.0605 9.94141L12.1387 9.94141Q12.3828 10.6934 12.9053 11.377Q13.4277 12.0605 14.0967 12.6074Q14.7656 13.1543 15.4492 13.501Q16.1328 13.8477 16.6992 13.9355Q17.1191 13.9941 17.3584 13.75Q17.5977 13.5059 17.5977 13.1836Q17.5977 12.832 17.3926 12.6123Q17.1875 12.3926 16.8066 12.3535Q16.2988 12.2949 15.7275 11.9775Q15.1562 11.6602 14.6143 11.1963Q14.0723 10.7324 13.6475 10.2197Q13.2227 9.70703 13.0078 9.25781L22.2559 9.25781L22.2559 8.18359L15.3809 8.18359Q16.0059 7.90039 16.4795 7.48047Q16.9531 7.06055 17.2168 6.52832Q17.4805 5.99609 17.4805 5.38086Q17.4805 4.30664 16.7822 3.6084Q16.084 2.91016 15.0293 2.91016Q14.4238 2.91016 13.8672 3.1543Q13.3105 3.39844 12.8467 3.85254Q12.3828 4.30664 12.0605 4.93164L12.0605 0.175781L10.8789 0.175781L10.8789 4.93164Q10.5664 4.30664 10.1025 3.85254Q9.63867 3.39844 9.08203 3.1543Q8.52539 2.91016 7.91016 2.91016Q6.86523 2.91016 6.16211 3.6084Q5.45898 4.30664 5.45898 5.38086Q5.45898 5.99609 5.72754 6.52832Q5.99609 7.06055 6.46973 7.48047Q6.94336 7.90039 7.55859 8.18359ZM10.4102 8.03711Q9.6875 8.03711 9.04297 7.8125Q8.39844 7.58789 7.90039 7.22168Q7.40234 6.85547 7.11914 6.40137Q6.83594 5.94727 6.83594 5.48828Q6.83594 4.93164 7.14844 4.61426Q7.46094 4.29688 7.98828 4.29688Q8.53516 4.29688 9.02344 4.57031Q9.51172 4.84375 9.89258 5.32715Q10.2734 5.81055 10.4883 6.43555Q10.7031 7.06055 10.7031 7.76367L10.7031 8.03711ZM12.5293 8.03711L12.2363 8.03711L12.2363 7.76367Q12.2363 7.06055 12.4561 6.43555Q12.6758 5.81055 13.0566 5.32715Q13.4375 4.84375 13.9258 4.57031Q14.4141 4.29688 14.9512 4.29688Q15.4883 4.29688 15.7959 4.61426Q16.1035 4.93164 16.1035 5.48828Q16.1035 5.94727 15.8203 6.40137Q15.5371 6.85547 15.0439 7.22168Q14.5508 7.58789 13.9062 7.8125Q13.2617 8.03711 12.5293 8.03711ZM3.06641 16.6895L19.8828 16.6895Q21.416 16.6895 22.1826 15.9326Q22.9492 15.1758 22.9492 13.6719L22.9492 3.03711Q22.9492 1.5332 22.1826 0.771484Q21.416 0.00976562 19.8828 0.00976562L3.06641 0.00976562Q1.5332 0.00976562 0.766602 0.766602Q0 1.52344 0 3.03711L0 13.6719Q0 15.1758 0.766602 15.9326Q1.5332 16.6895 3.06641 16.6895ZM3.08594 15.1172Q2.35352 15.1172 1.96289 14.7314Q1.57227 14.3457 1.57227 13.584L1.57227 3.125Q1.57227 2.36328 1.96289 1.97266Q2.35352 1.58203 3.08594 1.58203L19.8633 1.58203Q20.5859 1.58203 20.9814 1.97266Q21.377 2.36328 21.377 3.125L21.377 13.584Q21.377 14.3457 20.9814 14.7314Q20.5859 15.1172 19.8633 15.1172Z" fill="#007aff"/>
 </g>
</svg>
