<?xml version="1.0" encoding="UTF-8"?>
<!--Generator: Apple Native CoreSVG 175.5-->
<!DOCTYPE svg
PUBLIC "-//W3C//DTD SVG 1.1//EN"
       "http://www.w3.org/Graphics/SVG/1.1/DTD/svg11.dtd">
<svg version="1.1" xmlns="http://www.w3.org/2000/svg" xmlns:xlink="http://www.w3.org/1999/xlink" width="19.9219" height="19.9316">
 <g>
  <rect height="19.9316" opacity="0" width="19.9219" x="0" y="0"/>
  <path d="M10.3711 17.373Q11.0449 17.373 11.6553 16.9385Q12.2656 16.5039 12.7637 15.8936Q13.2617 15.2832 13.6084 14.7266Q13.9551 14.1699 14.1016 13.9258Q14.4727 13.3203 14.4189 12.7588Q14.3652 12.1973 14.3652 11.8262Q14.3652 11.6504 14.624 11.3574Q14.8828 11.0645 15.1416 10.6836Q15.4004 10.3027 15.4004 9.88281Q15.4004 9.56055 15.0977 9.27246Q14.7949 8.98438 14.3994 8.72559Q14.0039 8.4668 13.7012 8.25195Q13.3984 8.03711 13.3984 7.85156Q13.3984 7.61719 13.5498 7.44141Q13.7012 7.26562 13.8867 7.26562Q14.0527 7.26562 14.3115 7.4707Q14.5703 7.67578 14.8682 7.94434Q15.166 8.21289 15.4541 8.41797Q15.7422 8.62305 15.9668 8.62305Q16.1621 8.62305 16.2598 8.54004Q16.3574 8.45703 16.4258 8.36914Q16.4941 8.28125 16.6016 8.28125Q16.7871 8.28125 16.9287 8.71582Q17.0703 9.15039 17.2656 9.76562Q17.4609 10.3809 17.7979 10.9375Q18.1348 11.4941 18.7109 11.748Q19.0234 11.377 19.2041 10.9473Q19.3848 10.5176 19.3848 9.96094Q19.3848 8.05664 18.6523 6.35254Q17.9199 4.64844 16.6211 3.33984Q15.3223 2.03125 13.6133 1.28418Q11.9043 0.537109 9.95117 0.537109Q8.49609 0.546875 7.62695 0.864258Q6.75781 1.18164 6.36719 1.66504Q5.97656 2.14844 5.97656 2.63672Q5.97656 3.11523 5.82031 3.4375Q5.66406 3.75977 5.4541 3.99902Q5.24414 4.23828 5.08789 4.46289Q4.93164 4.6875 4.93164 4.98047Q4.93164 5.3418 5.16602 5.56641Q5.40039 5.79102 5.80078 5.79102Q6.23047 5.79102 6.46973 5.60547Q6.70898 5.41992 6.86035 5.17578Q7.01172 4.93164 7.14844 4.74609Q7.28516 4.56055 7.5 4.56055Q7.71484 4.56055 7.93457 4.72656Q8.1543 4.89258 8.41797 5.05371Q8.68164 5.21484 9.04297 5.21484Q9.28711 5.21484 9.40918 5.07324Q9.53125 4.93164 9.54102 4.7168Q9.56055 4.61914 9.60449 4.5752Q9.64844 4.53125 9.73633 4.53125Q10.0488 4.53125 10.3516 4.72168Q10.6543 4.91211 10.8545 5.18066Q11.0547 5.44922 11.0547 5.66406Q11.0547 5.9668 10.9473 6.17676Q10.8398 6.38672 10.6445 6.38672Q10.4199 6.38672 10.0146 6.25977Q9.60938 6.13281 9.11621 6.00098Q8.62305 5.86914 8.13477 5.86914Q7.04102 5.86914 6.12793 6.33789Q5.21484 6.80664 4.66797 7.57812Q4.12109 8.34961 4.12109 9.27734Q4.12109 10.4785 4.80469 11.1523Q5.48828 11.8262 6.72852 11.8262Q7.49023 11.8262 7.9834 12.2803Q8.47656 12.7344 8.47656 13.4375Q8.47656 13.9844 8.49121 14.6582Q8.50586 15.332 8.65723 15.9521Q8.80859 16.5723 9.2041 16.9727Q9.59961 17.373 10.3711 17.373ZM12.832 4.07227Q12.5684 4.07227 12.4072 4.16504Q12.2461 4.25781 12.0117 4.25781Q11.7871 4.25781 11.6357 4.11621Q11.4844 3.97461 11.4844 3.74023Q11.4844 3.38867 11.8164 3.19824Q12.1484 3.00781 12.7539 3.00781Q13.2715 3.00781 13.6133 3.24219Q13.9551 3.47656 13.9551 3.81836Q13.9551 4.01367 13.8477 4.14551Q13.7402 4.27734 13.5742 4.27734Q13.3105 4.27734 13.1494 4.1748Q12.9883 4.07227 12.832 4.07227ZM9.96094 19.9219Q12.002 19.9219 13.8037 19.1406Q15.6055 18.3594 16.9824 16.9824Q18.3594 15.6055 19.1406 13.8037Q19.9219 12.002 19.9219 9.96094Q19.9219 7.91992 19.1406 6.11816Q18.3594 4.31641 16.9824 2.93945Q15.6055 1.5625 13.7988 0.78125Q11.9922 0 9.95117 0Q7.91016 0 6.1084 0.78125Q4.30664 1.5625 2.93457 2.93945Q1.5625 4.31641 0.78125 6.11816Q0 7.91992 0 9.96094Q0 12.002 0.78125 13.8037Q1.5625 15.6055 2.93945 16.9824Q4.31641 18.3594 6.11816 19.1406Q7.91992 19.9219 9.96094 19.9219ZM9.96094 18.5938Q8.19336 18.5938 6.63086 17.915Q5.06836 17.2363 3.87695 16.0449Q2.68555 14.8535 2.00684 13.291Q1.32812 11.7285 1.32812 9.96094Q1.32812 8.19336 2.00684 6.63086Q2.68555 5.06836 3.87207 3.87695Q5.05859 2.68555 6.62109 2.00684Q8.18359 1.32812 9.95117 1.32812Q11.7188 1.32812 13.2812 2.00684Q14.8438 2.68555 16.04 3.87695Q17.2363 5.06836 17.915 6.63086Q18.5938 8.19336 18.5938 9.96094Q18.5938 11.7285 17.915 13.291Q17.2363 14.8535 16.0449 16.0449Q14.8535 17.2363 13.291 17.915Q11.7285 18.5938 9.96094 18.5938Z" fill="#007aff"/>
 </g>
</svg>
