<?xml version="1.0" encoding="UTF-8"?>
<!--Generator: Apple Native CoreSVG 175-->
<!DOCTYPE svg
PUBLIC "-//W3C//DTD SVG 1.1//EN"
       "http://www.w3.org/Graphics/SVG/1.1/DTD/svg11.dtd">
<svg version="1.1" xmlns="http://www.w3.org/2000/svg" xmlns:xlink="http://www.w3.org/1999/xlink" width="19.1554" height="19.1583">
 <g>
  <rect height="19.1583" opacity="0" width="19.1554" x="0" y="0"/>
  <path d="M9.98596 17.0978Q10.35 17.0978 10.936 16.6241Q11.5219 16.1505 12.1686 15.3977Q12.8152 14.6449 13.3852 13.7918Q13.9551 12.9387 14.315 12.1637Q14.675 11.3887 14.675 10.8907Q14.675 10.5363 14.3346 10.0627Q13.9941 9.58908 13.4766 9.13986Q12.959 8.69064 12.4121 8.39417Q11.8652 8.09769 11.4621 8.09769Q11.225 8.09769 10.9055 8.27209Q10.5859 8.4465 10.2518 8.62091Q9.9176 8.79532 9.6344 8.79532Q9.41528 8.79532 9.09142 8.6174Q8.76755 8.43948 8.44513 8.17368Q8.12271 7.90787 7.90489 7.63229Q7.68707 7.35672 7.68707 7.1669Q7.68707 6.94061 7.89124 6.7791Q8.0954 6.61758 8.31451 6.61758Q8.53485 6.61758 8.85712 6.84242Q9.17938 7.06726 9.53499 7.28851Q9.89059 7.50977 10.2013 7.50977Q10.7079 7.50977 10.9956 7.20352Q11.2833 6.89728 11.2833 6.37939Q11.2833 6.15631 11.1668 5.91728Q11.0504 5.67825 10.8031 5.3418Q11.2051 5.13519 11.7838 4.81682Q12.3625 4.49844 12.9621 4.07112Q13.5617 3.6438 14.0405 3.1221Q14.5192 2.6004 14.7141 1.99417Q13.7312 1.20789 12.3555 0.772552Q10.9798 0.337219 9.56879 0.337219Q8.41721 0.337219 7.36504 0.605927Q6.31287 0.874634 5.41016 1.33774Q4.50745 1.80084 3.80295 2.38388Q3.09845 2.96692 2.64648 3.61221Q2.33368 4.58054 2.79045 5.65239Q3.24722 6.72424 4.47662 7.80273L5.9938 9.14856Q6.29333 9.40903 6.47186 9.57077Q6.65039 9.73251 6.65039 9.91806Q6.65039 10.0739 6.57188 10.2735Q6.49338 10.4732 6.41487 10.705Q6.33636 10.9367 6.33636 11.2032Q6.33636 11.9286 7.07153 12.4754Q7.79922 13.022 8.23807 13.3353Q8.67691 13.6485 8.87321 13.8475Q9.06952 14.0465 9.06952 14.2435Q9.07928 14.7388 8.88535 15.1413Q8.69141 15.5438 8.69141 15.993Q8.69141 16.3864 9.1127 16.7421Q9.534 17.0978 9.98596 17.0978ZM9.57428 19.1486Q11.552 19.1486 13.2834 18.4024Q15.0148 17.6562 16.3355 16.3356Q17.6562 15.015 18.4058 13.28Q19.1554 11.545 19.1554 9.57428Q19.1554 7.60361 18.4058 5.86861Q17.6562 4.13361 16.3355 2.81296Q15.0148 1.49231 13.282 0.746155Q11.5492 0 9.57153 0Q7.60086 0 5.86586 0.746155Q4.13086 1.49231 2.81502 2.81296Q1.49918 4.13361 0.749588 5.86861Q0 7.60361 0 9.57428Q0 11.545 0.746078 13.28Q1.49216 15.015 2.81288 16.3356Q4.13361 17.6562 5.86853 18.4024Q7.60345 19.1486 9.57428 19.1486ZM9.57428 18.4743Q7.73636 18.4743 6.12465 17.7815Q4.51294 17.0888 3.28636 15.8622Q2.05978 14.6356 1.36703 13.0239Q0.674286 11.4122 0.674286 9.57428Q0.674286 7.73636 1.36703 6.12465Q2.05978 4.51294 3.28499 3.28636Q4.51019 2.05978 6.12541 1.36703Q7.74063 0.674286 9.57153 0.674286Q11.4095 0.674286 13.0247 1.36703Q14.6399 2.05978 15.8643 3.28636Q17.0886 4.51294 17.785 6.12465Q18.4813 7.73636 18.4813 9.57428Q18.4813 11.4122 17.785 13.0239Q17.0886 14.6356 15.8621 15.8622Q14.6356 17.0888 13.0238 17.7815Q11.412 18.4743 9.57428 18.4743Z" fill="#ffffff"/>
 </g>
</svg>
