<?xml version="1.0" encoding="UTF-8"?>
<!--Generator: Apple Native CoreSVG 175-->
<!DOCTYPE svg
PUBLIC "-//W3C//DTD SVG 1.1//EN"
       "http://www.w3.org/Graphics/SVG/1.1/DTD/svg11.dtd">
<svg version="1.1" xmlns="http://www.w3.org/2000/svg" xmlns:xlink="http://www.w3.org/1999/xlink" width="19.1554" height="19.1583">
 <g>
  <rect height="19.1583" opacity="0" width="19.1554" x="0" y="0"/>
  <path d="M9.98444 17.1899Q10.3691 17.1899 10.9625 16.7122Q11.5559 16.2344 12.2051 15.4743Q12.8543 14.7142 13.4311 13.855Q14.0079 12.9958 14.3719 12.2134Q14.736 11.431 14.736 10.9219Q14.736 10.5539 14.3922 10.0715Q14.0485 9.58908 13.5213 9.13521Q12.9942 8.68134 12.4399 8.37936Q11.8855 8.07739 11.4688 8.07739Q11.2207 8.07739 10.8992 8.2518Q10.5777 8.42621 10.2449 8.60062Q9.91211 8.77502 9.63989 8.77502Q9.43161 8.77502 9.10843 8.59985Q8.78525 8.42468 8.46413 8.16216Q8.14301 7.89963 7.92389 7.63008Q7.70477 7.36053 7.70477 7.1817Q7.70477 6.98288 7.90962 6.82137Q8.11447 6.65985 8.31451 6.65985Q8.5144 6.65985 8.84079 6.88583Q9.16718 7.11182 9.52347 7.33994Q9.87976 7.56805 10.177 7.56805Q10.7079 7.56805 11.0227 7.2448Q11.3376 6.92154 11.3376 6.37115Q11.3376 5.9848 10.8751 5.36331Q11.2852 5.15823 11.8618 4.83932Q12.4384 4.52042 13.0317 4.10439Q13.625 3.68835 14.0891 3.19344Q14.5531 2.69852 14.7285 2.14417L14.2012 1.80481Q14.0903 2.32697 13.6327 2.81021Q13.175 3.29346 12.5497 3.7075Q11.9243 4.12155 11.2862 4.45457Q10.648 4.7876 10.186 5.02625Q10.0902 5.08606 10.0632 5.1712Q10.0363 5.25635 10.1195 5.36301Q10.4504 5.8223 10.5907 6.05965Q10.7309 6.297 10.7309 6.49811Q10.7309 6.69968 10.593 6.83403Q10.455 6.96838 10.2579 6.96838Q10.0566 6.96838 9.68964 6.74026Q9.32266 6.51215 8.94119 6.28265Q8.55972 6.05316 8.31451 6.05316Q8.03864 6.05316 7.75856 6.22879Q7.47849 6.40442 7.29179 6.66496Q7.1051 6.92551 7.1051 7.1817Q7.1051 7.46445 7.37694 7.836Q7.64877 8.20755 8.05527 8.56239Q8.46176 8.91724 8.89046 9.14597Q9.31915 9.37469 9.63989 9.37469Q9.92035 9.37469 10.2844 9.20029Q10.6485 9.02588 10.9735 8.8501Q11.2985 8.67432 11.4688 8.67432Q11.748 8.67432 12.1934 8.92761Q12.6387 9.18091 13.0854 9.55711Q13.5321 9.93332 13.8342 10.3053Q14.1364 10.6773 14.1364 10.9219Q14.1364 11.2988 13.8036 11.9827Q13.4708 12.6665 12.9523 13.4563Q12.4339 14.2462 11.8562 14.962Q11.2785 15.6778 10.7719 16.134Q10.2652 16.5903 9.98322 16.5903Q9.74686 16.5903 9.50218 16.4092Q9.25751 16.2282 9.25751 16.0001Q9.25751 15.9149 9.28543 15.7926Q9.31335 15.6703 9.40125 15.4094Q9.47937 15.175 9.55887 14.8837Q9.63837 14.5923 9.6286 14.2688Q9.61884 13.8887 9.28871 13.5326Q8.95859 13.1766 8.04306 12.522Q7.88681 12.4146 7.72209 12.2974Q7.55737 12.1802 7.40112 12.063Q6.88446 11.6676 6.88446 11.2344Q6.88446 11.0306 7.01843 10.6117Q7.1579 10.1392 7.1579 9.93561Q7.1579 9.67392 7.02209 9.46007Q6.88629 9.24622 6.53473 8.9505Q6.4859 8.91144 6.44333 8.87238Q6.40076 8.83331 6.35895 8.797L4.78943 7.40051Q3.89023 6.60583 3.46992 5.89256Q3.04962 5.17929 3.05313 4.4957Q3.05664 3.8121 3.43323 3.11569L2.86987 2.99774Q2.4527 3.71536 2.45842 4.50378Q2.46414 5.29221 2.93381 6.13518Q3.40347 6.97815 4.39529 7.85431L5.94101 9.2215Q6.22147 9.47266 6.38985 9.62288Q6.55823 9.7731 6.55823 9.94385Q6.55823 10.1492 6.42151 10.4848Q6.28479 10.8203 6.28479 11.2344Q6.28479 11.9786 7.03751 12.5446Q8.05862 13.3157 8.54378 13.66Q9.02893 14.0044 9.02893 14.2813Q9.0387 14.7726 8.84476 15.1766Q8.65082 15.5806 8.65082 16.0391Q8.65082 16.3148 8.85567 16.5768Q9.06052 16.8387 9.36775 17.0143Q9.67499 17.1899 9.98444 17.1899ZM9.57428 19.1486Q11.552 19.1486 13.2834 18.4024Q15.0148 17.6562 16.3355 16.3356Q17.6562 15.015 18.4058 13.28Q19.1554 11.545 19.1554 9.57428Q19.1554 7.60361 18.4058 5.86861Q17.6562 4.13361 16.3355 2.81296Q15.0148 1.49231 13.282 0.746155Q11.5492 0 9.57153 0Q7.60086 0 5.86586 0.746155Q4.13086 1.49231 2.81502 2.81296Q1.49918 4.13361 0.749588 5.86861Q0 7.60361 0 9.57428Q0 11.545 0.746078 13.28Q1.49216 15.015 2.81288 16.3356Q4.13361 17.6562 5.86853 18.4024Q7.60345 19.1486 9.57428 19.1486ZM9.57428 18.4743Q7.73636 18.4743 6.12465 17.7815Q4.51294 17.0888 3.28636 15.8622Q2.05978 14.6356 1.36703 13.0239Q0.674286 11.4122 0.674286 9.57428Q0.674286 7.73636 1.36703 6.12465Q2.05978 4.51294 3.28499 3.28636Q4.51019 2.05978 6.12541 1.36703Q7.74063 0.674286 9.57153 0.674286Q11.4095 0.674286 13.0247 1.36703Q14.6399 2.05978 15.8643 3.28636Q17.0886 4.51294 17.785 6.12465Q18.4813 7.73636 18.4813 9.57428Q18.4813 11.4122 17.785 13.0239Q17.0886 14.6356 15.8621 15.8622Q14.6356 17.0888 13.0238 17.7815Q11.412 18.4743 9.57428 18.4743Z" fill="#007aff"/>
 </g>
</svg>
