<?xml version="1.0" encoding="UTF-8"?>
<!--Generator: Apple Native CoreSVG 175.5-->
<!DOCTYPE svg
PUBLIC "-//W3C//DTD SVG 1.1//EN"
       "http://www.w3.org/Graphics/SVG/1.1/DTD/svg11.dtd">
<svg version="1.1" xmlns="http://www.w3.org/2000/svg" xmlns:xlink="http://www.w3.org/1999/xlink" width="19.9219" height="23.7212">
 <g>
  <rect height="23.7212" opacity="0" width="19.9219" x="0" y="0"/>
  <path d="M0 11.8557Q0 13.8967 0.78125 15.7034Q1.5625 17.51 2.93945 18.8821Q4.31641 20.2541 6.11816 21.0354Q7.91992 21.8166 9.96094 21.8166Q12.002 21.8166 13.8037 21.0354Q15.6055 20.2541 16.9824 18.8821Q18.3594 17.51 19.1406 15.7034Q19.9219 13.8967 19.9219 11.8557Q19.9219 10.0588 19.3066 8.43773Q18.6914 6.81664 17.5928 5.50316Q16.4941 4.18969 15.0244 3.3059Q13.5547 2.42211 11.8457 2.08031L11.8457 0.693592Q11.8457 0.166248 11.543 0.039295Q11.2402-0.0876581 10.8398 0.195545L7.72461 2.37328Q7.38281 2.60765 7.38281 2.92015Q7.38281 3.23265 7.72461 3.4768L10.8301 5.6643Q11.2305 5.95726 11.5381 5.82543Q11.8457 5.69359 11.8457 5.16625L11.8457 3.77953Q13.2324 4.09203 14.3994 4.83422Q15.5664 5.5764 16.4307 6.65062Q17.2949 7.72484 17.7734 9.04808Q18.252 10.3713 18.252 11.8557Q18.252 13.5842 17.6123 15.093Q16.9727 16.6018 15.835 17.7395Q14.6973 18.8772 13.1934 19.5168Q11.6895 20.1565 9.96094 20.1565Q8.23242 20.1565 6.72363 19.5168Q5.21484 18.8772 4.07715 17.7395Q2.93945 16.6018 2.2998 15.093Q1.66016 13.5842 1.66016 11.8557Q1.66016 10.469 2.08984 9.2141Q2.51953 7.95922 3.29102 6.92406Q4.0625 5.8889 5.09766 5.14672Q5.40039 4.92211 5.4834 4.59984Q5.56641 4.27758 5.38086 3.97484Q5.19531 3.68187 4.84375 3.6184Q4.49219 3.55492 4.16992 3.79906Q2.91016 4.70726 1.97266 5.96215Q1.03516 7.21703 0.517578 8.71605Q0 10.2151 0 11.8557Z" fill="#007aff"/>
  <path d="M7.93945 15.9475Q8.55469 15.9475 8.55469 15.2151L8.55469 14.4045L9.02344 14.4045Q9.27734 14.4045 9.42871 14.2532Q9.58008 14.1018 9.58008 13.8479Q9.58008 13.594 9.42871 13.4475Q9.27734 13.301 9.02344 13.301L8.55469 13.301L8.55469 9.15062Q8.55469 8.69164 8.27637 8.4768Q7.99805 8.26195 7.57812 8.26195Q7.1875 8.26195 6.92871 8.42308Q6.66992 8.58422 6.44531 8.97484Q6.18164 9.4143 5.89355 9.90258Q5.60547 10.3909 5.3125 10.8987Q5.01953 11.4065 4.73633 11.9045Q4.45312 12.4026 4.19922 12.8518Q4.08203 13.0666 4.03809 13.2375Q3.99414 13.4084 3.99414 13.6233Q3.99414 13.9748 4.2041 14.1897Q4.41406 14.4045 4.79492 14.4045L7.35352 14.4045L7.35352 15.2151Q7.35352 15.9475 7.93945 15.9475ZM5.27344 13.301L5.27344 13.2717Q5.78125 12.3147 6.29395 11.3625Q6.80664 10.4104 7.31445 9.45336L7.35352 9.45336L7.35352 13.301ZM12.9004 15.9768Q14.1113 15.9768 14.8486 15.259Q15.5859 14.5412 15.5859 13.3596Q15.5859 12.2854 14.9268 11.592Q14.2676 10.8987 13.2227 10.8987Q12.7637 10.8987 12.3145 11.1135Q11.8652 11.3284 11.6797 11.6995L11.7285 11.6995L11.9043 9.49242L14.8242 9.49242Q15.0391 9.49242 15.2002 9.33617Q15.3613 9.17992 15.3613 8.92601Q15.3613 8.68187 15.2002 8.53051Q15.0391 8.37914 14.8242 8.37914L11.6992 8.37914Q10.9277 8.37914 10.8691 9.18969L10.6543 12.0022Q10.625 12.3635 10.8008 12.5442Q10.9766 12.7248 11.2891 12.7248Q11.5332 12.7248 11.6797 12.6662Q11.8262 12.6077 12.0312 12.4514Q12.3145 12.1975 12.5586 12.0852Q12.8027 11.9729 13.0957 11.9729Q13.6621 11.9729 14.0137 12.3586Q14.3652 12.7444 14.3652 13.3791Q14.3652 14.0237 13.96 14.4436Q13.5547 14.8635 12.9492 14.8635Q12.5195 14.8635 12.168 14.634Q11.8164 14.4045 11.6211 14.0237Q11.5137 13.8381 11.377 13.7356Q11.2402 13.633 11.0645 13.633Q10.8203 13.633 10.6689 13.7893Q10.5176 13.9455 10.5176 14.1995Q10.5176 14.2971 10.5371 14.3948Q10.5566 14.4924 10.5957 14.5901Q10.791 15.1174 11.4014 15.5471Q12.0117 15.9768 12.9004 15.9768Z" fill="#007aff"/>
 </g>
</svg>
