<?xml version="1.0" encoding="UTF-8"?>
<!--Generator: Apple Native CoreSVG 175-->
<!DOCTYPE svg
PUBLIC "-//W3C//DTD SVG 1.1//EN"
       "http://www.w3.org/Graphics/SVG/1.1/DTD/svg11.dtd">
<svg version="1.1" xmlns="http://www.w3.org/2000/svg" xmlns:xlink="http://www.w3.org/1999/xlink" width="19.1602" height="22.8462">
 <g>
  <rect height="22.8462" opacity="0" width="19.1602" x="0" y="0"/>
  <path d="M0 11.4378Q0 13.4104 0.74707 15.1487Q1.49414 16.887 2.8125 18.2005Q4.13086 19.5139 5.86914 20.2659Q7.60742 21.0178 9.57031 21.0178Q11.5527 21.0178 13.2861 20.2659Q15.0195 19.5139 16.3379 18.2005Q17.6562 16.887 18.4082 15.1487Q19.1602 13.4104 19.1602 11.4378Q19.1602 9.67995 18.5547 8.10768Q17.9492 6.53541 16.875 5.27077Q15.8008 4.00612 14.3701 3.16139Q12.9395 2.31666 11.2598 2.00416L11.2598 0.412367Q11.2598 0.109633 11.0791 0.0266251Q10.8984-0.0563827 10.6348 0.119399L7.69531 2.17018Q7.48047 2.3362 7.48047 2.52174Q7.48047 2.70729 7.69531 2.86354L10.6348 4.91432Q10.8887 5.10963 11.0742 5.02174Q11.2598 4.93385 11.2598 4.64088L11.2598 2.77565Q12.793 3.06862 14.0918 3.84498Q15.3906 4.62135 16.3623 5.78346Q17.334 6.94557 17.8711 8.386Q18.4082 9.82643 18.4082 11.4378Q18.4082 13.2639 17.7197 14.8655Q17.0312 16.4671 15.8203 17.6829Q14.6094 18.8987 13.0078 19.5823Q11.4062 20.2659 9.57031 20.2659Q7.74414 20.2659 6.14746 19.5823Q4.55078 18.8987 3.33496 17.6829Q2.11914 16.4671 1.43066 14.8655Q0.742188 13.2639 0.742188 11.4378Q0.742188 9.8362 1.28418 8.39577Q1.82617 6.95534 2.78809 5.79811Q3.75 4.64088 5.03906 3.8694Q5.17578 3.78151 5.21484 3.63502Q5.25391 3.48854 5.17578 3.35182Q5.10742 3.22487 4.95117 3.19069Q4.79492 3.15651 4.64844 3.25416Q3.25195 4.09401 2.20703 5.34889Q1.16211 6.60377 0.581055 8.15651Q0 9.70924 0 11.4378ZM9.61914 15.4514Q10.8008 15.4514 11.5381 14.7581Q12.2754 14.0647 12.2754 12.9221Q12.2754 11.8772 11.6016 11.1887Q10.9277 10.5003 9.85352 10.5003Q9.32617 10.5003 8.83301 10.7346Q8.33984 10.969 8.06641 11.3792L8.03711 11.3792L8.28125 8.44948L11.7188 8.44948Q11.8457 8.44948 11.9336 8.36159Q12.0215 8.2737 12.0215 8.14674Q12.0215 8.01002 11.9336 7.9319Q11.8457 7.85377 11.7188 7.85377L8.14453 7.85377Q7.69531 7.85377 7.66602 8.31276L7.41211 11.6526Q7.40234 11.8479 7.49512 11.9553Q7.58789 12.0628 7.77344 12.0628Q7.91016 12.0628 7.98828 12.0237Q8.06641 11.9846 8.17383 11.887Q8.57422 11.4573 8.94531 11.2766Q9.31641 11.096 9.77539 11.096Q10.5859 11.096 11.0938 11.6087Q11.6016 12.1214 11.6016 12.9417Q11.6016 13.7717 11.0498 14.3137Q10.498 14.8557 9.6582 14.8557Q9.0332 14.8557 8.53516 14.5188Q8.03711 14.1819 7.89062 13.6741Q7.8418 13.5471 7.76367 13.4788Q7.68555 13.4104 7.55859 13.4104Q7.43164 13.4104 7.34863 13.4983Q7.26562 13.5862 7.26562 13.7229Q7.26562 13.7717 7.27051 13.8255Q7.27539 13.8792 7.29492 13.9378Q7.4707 14.5823 8.12012 15.0169Q8.76953 15.4514 9.61914 15.4514Z" fill="#007aff"/>
 </g>
</svg>
