<?xml version="1.0" encoding="UTF-8"?>
<!--Generator: Apple Native CoreSVG 175-->
<!DOCTYPE svg
PUBLIC "-//W3C//DTD SVG 1.1//EN"
       "http://www.w3.org/Graphics/SVG/1.1/DTD/svg11.dtd">
<svg version="1.1" xmlns="http://www.w3.org/2000/svg" xmlns:xlink="http://www.w3.org/1999/xlink" width="19.1602" height="22.8462">
 <g>
  <rect height="22.8462" opacity="0" width="19.1602" x="0" y="0"/>
  <path d="M0 11.4378Q0 13.4104 0.74707 15.1487Q1.49414 16.887 2.8125 18.2005Q4.13086 19.5139 5.86914 20.2659Q7.60742 21.0178 9.57031 21.0178Q11.5527 21.0178 13.2861 20.2659Q15.0195 19.5139 16.3379 18.2005Q17.6562 16.887 18.4082 15.1487Q19.1602 13.4104 19.1602 11.4378Q19.1602 9.67995 18.5547 8.10768Q17.9492 6.53541 16.875 5.27077Q15.8008 4.00612 14.3701 3.16139Q12.9395 2.31666 11.2598 2.00416L11.2598 0.412367Q11.2598 0.109633 11.0791 0.0266251Q10.8984-0.0563827 10.6348 0.119399L7.69531 2.17018Q7.48047 2.3362 7.48047 2.52174Q7.48047 2.70729 7.69531 2.86354L10.6348 4.91432Q10.8887 5.10963 11.0742 5.02174Q11.2598 4.93385 11.2598 4.64088L11.2598 2.77565Q12.793 3.06862 14.0918 3.84498Q15.3906 4.62135 16.3623 5.78346Q17.334 6.94557 17.8711 8.386Q18.4082 9.82643 18.4082 11.4378Q18.4082 13.2639 17.7197 14.8655Q17.0312 16.4671 15.8203 17.6829Q14.6094 18.8987 13.0078 19.5823Q11.4062 20.2659 9.57031 20.2659Q7.74414 20.2659 6.14746 19.5823Q4.55078 18.8987 3.33496 17.6829Q2.11914 16.4671 1.43066 14.8655Q0.742188 13.2639 0.742188 11.4378Q0.742188 9.8362 1.28418 8.39577Q1.82617 6.95534 2.78809 5.79811Q3.75 4.64088 5.03906 3.8694Q5.17578 3.78151 5.21484 3.63502Q5.25391 3.48854 5.17578 3.35182Q5.10742 3.22487 4.95117 3.19069Q4.79492 3.15651 4.64844 3.25416Q3.25195 4.09401 2.20703 5.34889Q1.16211 6.60377 0.581055 8.15651Q0 9.70924 0 11.4378ZM6.58203 15.4514Q7.71484 15.4514 8.44238 14.8411Q9.16992 14.2307 9.16992 13.2737Q9.16992 12.551 8.67188 12.0188Q8.17383 11.4866 7.44141 11.4085L7.44141 11.3987Q8.04688 11.2815 8.47168 10.7737Q8.89648 10.2659 8.89648 9.59205Q8.89648 8.76198 8.25195 8.21998Q7.60742 7.67799 6.60156 7.67799Q5.75195 7.67799 5.11719 8.10768Q4.48242 8.53737 4.33594 9.2112Q4.31641 9.29909 4.31152 9.35768Q4.30664 9.41627 4.30664 9.4651Q4.30664 9.61159 4.38965 9.69948Q4.47266 9.78737 4.60938 9.78737Q4.89258 9.78737 4.94141 9.5237Q5.03906 8.95729 5.49316 8.61549Q5.94727 8.2737 6.5918 8.2737Q7.32422 8.2737 7.77832 8.66432Q8.23242 9.05495 8.23242 9.66041Q8.23242 10.2854 7.77344 10.7102Q7.31445 11.135 6.63086 11.135L5.97656 11.135Q5.83008 11.135 5.74219 11.2131Q5.6543 11.2913 5.6543 11.428Q5.6543 11.5745 5.74219 11.6526Q5.83008 11.7307 5.97656 11.7307L6.68945 11.7307Q7.46094 11.7307 7.97852 12.1702Q8.49609 12.6096 8.49609 13.2542Q8.49609 13.9573 7.96387 14.4016Q7.43164 14.846 6.5918 14.846Q5.91797 14.846 5.41504 14.5042Q4.91211 14.1624 4.77539 13.6057Q4.73633 13.4592 4.66309 13.3909Q4.58984 13.3225 4.45312 13.3225Q4.31641 13.3225 4.22852 13.4202Q4.14062 13.5178 4.14062 13.6546Q4.14062 13.7131 4.14551 13.7717Q4.15039 13.8303 4.17969 13.9182Q4.36523 14.5823 5.02441 15.0169Q5.68359 15.4514 6.58203 15.4514ZM13.1543 15.4514Q13.9355 15.4514 14.5312 14.968Q15.127 14.4846 15.4639 13.6106Q15.8008 12.7366 15.8008 11.5647Q15.8008 10.3928 15.4639 9.51881Q15.127 8.64479 14.5312 8.16139Q13.9355 7.67799 13.1543 7.67799Q11.9531 7.67799 11.2207 8.74733Q10.4883 9.81666 10.4883 11.5647Q10.4883 13.3225 11.2207 14.387Q11.9531 15.4514 13.1543 15.4514ZM13.1543 14.8264Q12.2559 14.8264 11.6992 13.928Q11.1426 13.0296 11.1426 11.5647Q11.1426 10.0901 11.6943 9.19166Q12.2461 8.29323 13.1543 8.29323Q14.0332 8.29323 14.585 9.19166Q15.1367 10.0901 15.1367 11.5647Q15.1367 13.0296 14.585 13.928Q14.0332 14.8264 13.1543 14.8264Z" fill="#ffffff"/>
 </g>
</svg>
