<?xml version="1.0" encoding="UTF-8"?>
<!--Generator: Apple Native CoreSVG 175-->
<!DOCTYPE svg
PUBLIC "-//W3C//DTD SVG 1.1//EN"
       "http://www.w3.org/Graphics/SVG/1.1/DTD/svg11.dtd">
<svg version="1.1" xmlns="http://www.w3.org/2000/svg" xmlns:xlink="http://www.w3.org/1999/xlink" width="19.1602" height="22.8202">
 <g>
  <rect height="22.8202" opacity="0" width="19.1602" x="0" y="0"/>
  <path d="M0 11.4247Q0 13.3974 0.74707 15.1357Q1.49414 16.874 2.8125 18.1874Q4.13086 19.5009 5.86914 20.2529Q7.60742 21.0048 9.57031 21.0048Q11.5527 21.0048 13.2861 20.2529Q15.0195 19.5009 16.3379 18.1874Q17.6562 16.874 18.4082 15.1357Q19.1602 13.3974 19.1602 11.4247Q19.1602 9.69622 18.5742 8.14348Q17.9883 6.59075 16.9434 5.33587Q15.8984 4.08098 14.5117 3.24114Q14.3555 3.14348 14.2041 3.17766Q14.0527 3.21184 13.9746 3.3388Q13.8965 3.47552 13.9355 3.622Q13.9746 3.76848 14.1113 3.85638Q15.4004 4.62786 16.3672 5.78509Q17.334 6.94231 17.8711 8.38274Q18.4082 9.82317 18.4082 11.4247Q18.4082 13.2509 17.7246 14.8525Q17.041 16.454 15.8252 17.6699Q14.6094 18.8857 13.0078 19.5693Q11.4062 20.2529 9.57031 20.2529Q7.74414 20.2529 6.14746 19.5693Q4.55078 18.8857 3.33496 17.6699Q2.11914 16.454 1.43555 14.8525Q0.751953 13.2509 0.751953 11.4247Q0.751953 9.80364 1.28906 8.36809Q1.82617 6.93255 2.79785 5.77044Q3.76953 4.60833 5.07324 3.83196Q6.37695 3.05559 7.90039 2.76263L7.90039 4.63763Q7.90039 4.93059 8.08594 5.0136Q8.27148 5.09661 8.52539 4.91106L11.4648 2.86028Q11.6797 2.7138 11.6797 2.52337Q11.6797 2.33294 11.4648 2.17669L8.53516 0.125907Q8.26172-0.0596401 8.08105 0.0282506Q7.90039 0.116141 7.90039 0.40911L7.90039 1.99114Q6.2207 2.29388 4.78516 3.1386Q3.34961 3.98333 2.27539 5.24798Q1.20117 6.51263 0.600586 8.08977Q0 9.66692 0 11.4247ZM5.25391 11.4052Q5.25391 11.5517 5.36621 11.6591Q5.47852 11.7665 5.63477 11.7665L9.19922 11.7665L9.19922 15.3212Q9.19922 15.4872 9.30664 15.5995Q9.41406 15.7118 9.56055 15.7118Q9.72656 15.7118 9.83887 15.6044Q9.95117 15.497 9.95117 15.3212L9.95117 11.7665L13.5156 11.7665Q13.6719 11.7665 13.7842 11.6591Q13.8965 11.5517 13.8965 11.4052Q13.8965 11.2392 13.7891 11.1269Q13.6816 11.0146 13.5156 11.0146L9.95117 11.0146L9.95117 7.45989Q9.95117 7.28411 9.83887 7.18157Q9.72656 7.07903 9.56055 7.07903Q9.41406 7.07903 9.30664 7.18645Q9.19922 7.29388 9.19922 7.45989L9.19922 11.0146L5.63477 11.0146Q5.46875 11.0146 5.36133 11.1269Q5.25391 11.2392 5.25391 11.4052Z" fill="#ffffff"/>
 </g>
</svg>
