<?xml version="1.0" encoding="UTF-8"?>
<!--Generator: Apple Native CoreSVG 175.5-->
<!DOCTYPE svg
PUBLIC "-//W3C//DTD SVG 1.1//EN"
       "http://www.w3.org/Graphics/SVG/1.1/DTD/svg11.dtd">
<svg version="1.1" xmlns="http://www.w3.org/2000/svg" xmlns:xlink="http://www.w3.org/1999/xlink" width="19.9219" height="23.7146">
 <g>
  <rect height="23.7146" opacity="0" width="19.9219" x="0" y="0"/>
  <path d="M0 11.8524Q0 13.8935 0.78125 15.7001Q1.5625 17.5067 2.93945 18.8788Q4.31641 20.2509 6.11816 21.0321Q7.91992 21.8134 9.96094 21.8134Q12.002 21.8134 13.8037 21.0321Q15.6055 20.2509 16.9824 18.8788Q18.3594 17.5067 19.1406 15.7001Q19.9219 13.8935 19.9219 11.8524Q19.9219 10.2118 19.4043 8.71279Q18.8867 7.21377 17.9492 5.95888Q17.0117 4.704 15.752 3.7958Q15.4297 3.55166 15.0781 3.61513Q14.7266 3.67861 14.541 3.97158Q14.3555 4.27431 14.4385 4.59658Q14.5215 4.91884 14.8242 5.14345Q15.8594 5.88564 16.6309 6.9208Q17.4023 7.95595 17.832 9.21084Q18.2617 10.4657 18.2617 11.8524Q18.2617 13.581 17.6221 15.0897Q16.9824 16.5985 15.8447 17.7362Q14.707 18.8739 13.1982 19.5136Q11.6895 20.1532 9.96094 20.1532Q8.23242 20.1532 6.72852 19.5136Q5.22461 18.8739 4.08691 17.7362Q2.94922 16.5985 2.30957 15.0897Q1.66992 13.581 1.66992 11.8524Q1.66992 10.3681 2.14844 9.04482Q2.62695 7.72158 3.49121 6.64736Q4.35547 5.57314 5.52734 4.83095Q6.69922 4.08877 8.07617 3.77627L8.07617 5.17275Q8.07617 5.69033 8.38379 5.82216Q8.69141 5.954 9.0918 5.6708L12.207 3.4833Q12.5391 3.25869 12.5439 2.94131Q12.5488 2.62392 12.207 2.38955L9.10156 0.202047Q8.69141-0.0909213 8.38379 0.0409146Q8.07617 0.172751 8.07617 0.700094L8.07617 2.07705Q6.36719 2.41884 4.89746 3.30263Q3.42773 4.18642 2.3291 5.4999Q1.23047 6.81338 0.615234 8.43447Q0 10.0556 0 11.8524Z" fill="#007aff"/>
  <path d="M7.23633 15.8466Q7.51953 15.8466 7.69043 15.6659Q7.86133 15.4853 7.86133 15.1728L7.86133 9.03017Q7.86133 8.66884 7.68066 8.45888Q7.5 8.24892 7.16797 8.24892Q6.96289 8.24892 6.79688 8.32216Q6.63086 8.39541 6.35742 8.57119L5.00977 9.47939Q4.84375 9.59658 4.76562 9.7333Q4.6875 9.87002 4.6875 10.0458Q4.6875 10.2899 4.85352 10.4657Q5.01953 10.6415 5.25391 10.6415Q5.39062 10.6415 5.4834 10.6073Q5.57617 10.5731 5.72266 10.4657L6.66016 9.78213L6.63086 9.78213L6.63086 15.1728Q6.63086 15.4755 6.79688 15.661Q6.96289 15.8466 7.23633 15.8466ZM12.3242 15.9638Q13.1348 15.9638 13.7402 15.4804Q14.3457 14.997 14.6777 14.1278Q15.0098 13.2587 15.0098 12.0868Q15.0098 10.9052 14.6777 10.0263Q14.3457 9.14736 13.7402 8.65908Q13.1348 8.1708 12.3242 8.1708Q11.1133 8.1708 10.376 9.24013Q9.63867 10.3095 9.63867 12.0868Q9.63867 13.8446 10.376 14.9042Q11.1133 15.9638 12.3242 15.9638ZM12.3242 14.7821Q11.6797 14.7821 11.2939 14.0595Q10.9082 13.3368 10.9082 12.0868Q10.9082 10.8075 11.2891 10.08Q11.6699 9.35244 12.3242 9.35244Q12.9785 9.35244 13.3545 10.0751Q13.7305 10.7978 13.7305 12.0868Q13.7305 13.3368 13.3496 14.0595Q12.9688 14.7821 12.3242 14.7821Z" fill="#007aff"/>
 </g>
</svg>
