<?xml version="1.0" encoding="UTF-8"?>
<!--Generator: Apple Native CoreSVG 175-->
<!DOCTYPE svg
PUBLIC "-//W3C//DTD SVG 1.1//EN"
       "http://www.w3.org/Graphics/SVG/1.1/DTD/svg11.dtd">
<svg version="1.1" xmlns="http://www.w3.org/2000/svg" xmlns:xlink="http://www.w3.org/1999/xlink" width="19.1602" height="22.8202">
 <g>
  <rect height="22.8202" opacity="0" width="19.1602" x="0" y="0"/>
  <path d="M0 11.4247Q0 13.3974 0.74707 15.1357Q1.49414 16.874 2.8125 18.1874Q4.13086 19.5009 5.86914 20.2529Q7.60742 21.0048 9.57031 21.0048Q11.5527 21.0048 13.2861 20.2529Q15.0195 19.5009 16.3379 18.1874Q17.6562 16.874 18.4082 15.1357Q19.1602 13.3974 19.1602 11.4247Q19.1602 9.69622 18.5742 8.14348Q17.9883 6.59075 16.9434 5.33587Q15.8984 4.08098 14.5117 3.24114Q14.3555 3.14348 14.2041 3.17766Q14.0527 3.21184 13.9746 3.3388Q13.8965 3.47552 13.9355 3.622Q13.9746 3.76848 14.1113 3.85638Q15.4004 4.62786 16.3672 5.78509Q17.334 6.94231 17.8711 8.38274Q18.4082 9.82317 18.4082 11.4247Q18.4082 13.2509 17.7246 14.8525Q17.041 16.454 15.8252 17.6699Q14.6094 18.8857 13.0078 19.5693Q11.4062 20.2529 9.57031 20.2529Q7.74414 20.2529 6.14746 19.5693Q4.55078 18.8857 3.33496 17.6699Q2.11914 16.454 1.43555 14.8525Q0.751953 13.2509 0.751953 11.4247Q0.751953 9.80364 1.28906 8.36809Q1.82617 6.93255 2.79785 5.77044Q3.76953 4.60833 5.07324 3.83196Q6.37695 3.05559 7.90039 2.76263L7.90039 4.63763Q7.90039 4.93059 8.08594 5.0136Q8.27148 5.09661 8.52539 4.91106L11.4648 2.86028Q11.6797 2.7138 11.6797 2.52337Q11.6797 2.33294 11.4648 2.17669L8.53516 0.125907Q8.26172-0.0596401 8.08105 0.0282506Q7.90039 0.116141 7.90039 0.40911L7.90039 1.99114Q6.2207 2.29388 4.78516 3.1386Q3.34961 3.98333 2.27539 5.24798Q1.20117 6.51263 0.600586 8.08977Q0 9.66692 0 11.4247ZM6.04492 15.4384Q7.37305 15.4384 8.12012 14.3544Q8.86719 13.2704 8.86719 11.3173Q8.86719 10.5165 8.73535 9.88665Q8.60352 9.25677 8.35938 8.86614Q8.02734 8.28997 7.45605 7.98235Q6.88477 7.67473 6.18164 7.67473Q5.01953 7.67473 4.30664 8.36809Q3.59375 9.06145 3.59375 10.204Q3.59375 11.2587 4.27734 11.9374Q4.96094 12.6161 5.99609 12.6161Q6.80664 12.6161 7.36816 12.2402Q7.92969 11.8642 8.23242 11.2392L8.21289 11.2001Q8.21289 11.2294 8.21777 11.2636Q8.22266 11.2978 8.22266 11.3466Q8.22266 12.4306 7.96387 13.2118Q7.70508 13.9931 7.21191 14.4179Q6.71875 14.8427 6.05469 14.8427Q5.53711 14.8427 5.10742 14.5986Q4.67773 14.3544 4.47266 13.9345Q4.4043 13.7978 4.32617 13.7441Q4.24805 13.6904 4.13086 13.6904Q4.00391 13.6904 3.92578 13.7783Q3.84766 13.8661 3.84766 14.0029Q3.84766 14.0517 3.85742 14.0908Q3.86719 14.1298 3.87695 14.1884Q3.95508 14.4325 4.25293 14.7255Q4.55078 15.0185 5.00977 15.2284Q5.46875 15.4384 6.04492 15.4384ZM6.17188 12.0302Q5.33203 12.0302 4.7998 11.5175Q4.26758 11.0048 4.26758 10.1552Q4.26758 9.29583 4.79492 8.77825Q5.32227 8.26067 6.18164 8.26067Q7.01172 8.26067 7.55371 8.80266Q8.0957 9.34466 8.0957 10.1747Q8.0957 10.9755 7.54883 11.5029Q7.00195 12.0302 6.17188 12.0302ZM12.9297 15.4384Q13.7109 15.4384 14.3066 14.955Q14.9023 14.4716 15.2393 13.5976Q15.5762 12.7236 15.5762 11.5517Q15.5762 10.3798 15.2393 9.50579Q14.9023 8.63177 14.3066 8.14837Q13.7109 7.66497 12.9297 7.66497Q11.7285 7.66497 10.9961 8.73431Q10.2637 9.80364 10.2637 11.5517Q10.2637 13.3095 10.9961 14.374Q11.7285 15.4384 12.9297 15.4384ZM12.9297 14.8134Q12.0312 14.8134 11.4746 13.915Q10.918 13.0165 10.918 11.5517Q10.918 10.0771 11.4697 9.17864Q12.0215 8.2802 12.9297 8.2802Q13.8086 8.2802 14.3604 9.17864Q14.9121 10.0771 14.9121 11.5517Q14.9121 13.0165 14.3604 13.915Q13.8086 14.8134 12.9297 14.8134Z" fill="#007aff"/>
 </g>
</svg>
