<?xml version="1.0" encoding="UTF-8"?>
<!--Generator: Apple Native CoreSVG 175.5-->
<!DOCTYPE svg
PUBLIC "-//W3C//DTD SVG 1.1//EN"
       "http://www.w3.org/Graphics/SVG/1.1/DTD/svg11.dtd">
<svg version="1.1" xmlns="http://www.w3.org/2000/svg" xmlns:xlink="http://www.w3.org/1999/xlink" width="16.2305" height="21.958">
 <g>
  <rect height="21.958" opacity="0" width="16.2305" x="0" y="0"/>
  <path d="M1.92383 19.9292L13.0273 21.8921Q14.0234 22.0679 14.7412 21.7749Q15.459 21.4819 15.8447 20.7642Q16.2305 20.0464 16.2305 18.9624L16.2305 6.88232Q16.2305 5.38818 15.4688 4.73389Q14.707 4.07959 13.2227 3.81592L2.45117 1.92139Q1.70898 1.78467 1.15723 1.99463Q0.605469 2.20459 0.302734 2.70264Q0 3.20068 0 3.92334L0 17.7124Q0 18.6499 0.483398 19.2065Q0.966797 19.7632 1.92383 19.9292ZM2.30469 18.3765Q1.93359 18.3179 1.75293 18.0981Q1.57227 17.8784 1.57227 17.4878L1.57227 4.18701Q1.57227 3.79639 1.82129 3.61084Q2.07031 3.42529 2.5 3.49365L13.1445 5.36865Q13.8867 5.50537 14.2725 5.84229Q14.6582 6.1792 14.6582 6.86279L14.6582 18.7866Q14.6582 19.6167 14.2041 20.0122Q13.75 20.4077 12.959 20.2612ZM13.7891 5.02686L15.3613 5.02686L15.3613 2.7417Q15.3613 1.19873 14.3848 0.500488Q13.4082-0.197754 11.6699 0.114746L1.46484 1.91162L2.05078 3.27881L12.2266 1.58936Q12.959 1.4624 13.374 1.75537Q13.7891 2.04834 13.7891 2.68311ZM2.87109 8.04443Q2.87109 8.35693 3.06641 8.5083Q3.26172 8.65967 3.51562 8.66455Q3.76953 8.66943 3.95996 8.52783Q4.15039 8.38623 4.15039 8.09326L4.15039 6.78467Q4.15039 6.38428 4.60938 6.45264L5.89844 6.68701Q6.21094 6.73584 6.3916 6.57471Q6.57227 6.41357 6.61621 6.16943Q6.66016 5.92529 6.54785 5.71045Q6.43555 5.49561 6.15234 5.44678L4.0625 5.07568Q3.50586 4.97803 3.18848 5.2124Q2.87109 5.44678 2.87109 5.98389ZM12.0801 9.63623Q12.0801 9.93896 12.2705 10.105Q12.4609 10.271 12.7148 10.2808Q12.9688 10.2905 13.1641 10.1294Q13.3594 9.96826 13.3594 9.63623L13.3594 8.00537Q13.3594 7.32178 13.0029 6.95557Q12.6465 6.58936 11.8359 6.44287L10.8203 6.26709Q10.4883 6.2085 10.2881 6.36475Q10.0879 6.521 10.0488 6.77002Q10.0098 7.01904 10.1416 7.23389Q10.2734 7.44873 10.6055 7.50732L11.416 7.65381Q11.8457 7.73193 11.9629 7.95166Q12.0801 8.17139 12.0801 8.396ZM4.15039 14.2651Q4.15039 13.9624 3.95996 13.7964Q3.76953 13.6304 3.51562 13.6206Q3.26172 13.6108 3.06641 13.772Q2.87109 13.9331 2.87109 14.2651L2.87109 15.896Q2.87109 16.5796 3.22754 16.9458Q3.58398 17.312 4.39453 17.4585L5.41016 17.6343Q5.74219 17.6929 5.94238 17.5317Q6.14258 17.3706 6.18652 17.1265Q6.23047 16.8823 6.09375 16.6626Q5.95703 16.4429 5.625 16.394L4.81445 16.2476Q4.38477 16.1694 4.26758 15.9448Q4.15039 15.7202 4.15039 15.5054ZM13.3594 15.8569Q13.3594 15.5444 13.1641 15.3931Q12.9688 15.2417 12.7148 15.2368Q12.4609 15.2319 12.2705 15.3735Q12.0801 15.5151 12.0801 15.8081L12.0801 17.1167Q12.0801 17.5171 11.6211 17.4487L10.332 17.2144Q10.0195 17.1655 9.83887 17.3267Q9.6582 17.4878 9.61426 17.7319Q9.57031 17.9761 9.68262 18.1909Q9.79492 18.4058 10.0781 18.4546L12.168 18.8257Q12.7246 18.9233 13.042 18.689Q13.3594 18.4546 13.3594 17.9175Z" fill="#007aff"/>
 </g>
</svg>
