<?xml version="1.0" encoding="UTF-8"?>
<!--Generator: Apple Native CoreSVG 175-->
<!DOCTYPE svg
PUBLIC "-//W3C//DTD SVG 1.1//EN"
       "http://www.w3.org/Graphics/SVG/1.1/DTD/svg11.dtd">
<svg version="1.1" xmlns="http://www.w3.org/2000/svg" xmlns:xlink="http://www.w3.org/1999/xlink" width="15.3868" height="21.1853">
 <g>
  <rect height="21.1853" opacity="0" width="15.3868" x="0" y="0"/>
  <path d="M1.57928 19.2053L12.4156 21.1121Q13.3133 21.2737 13.9819 21.0194Q14.6504 20.7651 15.0186 20.1422Q15.3868 19.5194 15.3868 18.5761L15.3868 6.41861Q15.3868 5.25498 14.7552 4.64287Q14.1235 4.03077 12.822 3.79517L2.17697 1.9217Q1.49811 1.79902 1.0096 1.95275Q0.521088 2.10648 0.260544 2.50962Q0 2.91276 0 3.52997L0 17.3471Q0 18.1441 0.384979 18.6058Q0.769958 19.0675 1.57928 19.2053ZM1.71402 18.4894Q1.20941 18.4026 0.969009 18.1056Q0.728607 17.8085 0.728607 17.2702L0.728607 3.65998Q0.728607 3.05848 1.09711 2.78153Q1.46561 2.50458 2.12036 2.62223L12.793 4.50425Q13.746 4.67606 14.2021 5.12902Q14.6582 5.58198 14.6582 6.33576L14.6582 18.548Q14.6582 19.5889 14.0565 20.0758Q13.4547 20.5627 12.4597 20.3812ZM13.7891 4.59122L14.5107 4.59122L14.5107 2.19361Q14.5107 0.953069 13.7098 0.388418Q12.9089-0.176234 11.4801 0.0799612L1.23993 1.89789L1.46729 2.54792L11.7133 0.767065Q12.6918 0.590978 13.2404 0.975347Q13.7891 1.35972 13.7891 2.19834ZM2.18201 7.09565Q2.18201 7.26746 2.28241 7.35207Q2.38281 7.43668 2.51373 7.43805Q2.64465 7.43943 2.74361 7.35756Q2.84256 7.2757 2.84256 7.10923L2.84256 5.58976Q2.84256 4.89411 3.63907 5.03281L5.13199 5.29526Q5.28992 5.32303 5.3862 5.23568Q5.48248 5.14832 5.50529 5.01671Q5.52811 4.88511 5.46509 4.77219Q5.40207 4.65928 5.23132 4.63151L3.59848 4.34479Q2.95746 4.24012 2.56973 4.48151Q2.18201 4.72291 2.18201 5.33738ZM12.5441 8.91938Q12.5441 9.07456 12.6431 9.1597Q12.7422 9.24485 12.873 9.2511Q13.0038 9.25736 13.1042 9.1771Q13.2047 9.09684 13.2047 8.91938L13.2047 7.45026Q13.2047 6.73859 12.7955 6.31615Q12.3863 5.89371 11.5054 5.73304L10.6024 5.57847Q10.439 5.54795 10.3302 5.63035Q10.2214 5.71274 10.2 5.84229Q10.1785 5.97184 10.2576 6.08819Q10.3368 6.20453 10.5351 6.24909L11.3667 6.39557Q12.0004 6.50895 12.2723 6.79192Q12.5441 7.0749 12.5441 7.53159ZM2.84256 14.2444Q2.84256 14.0823 2.74361 13.9971Q2.64465 13.9119 2.51373 13.9056Q2.38281 13.8994 2.28241 13.9832Q2.18201 14.0671 2.18201 14.2444L2.18201 15.7065Q2.18201 16.4182 2.59125 16.8477Q3.00049 17.2772 3.88123 17.4237L4.77737 17.5784Q4.94766 17.6018 5.05295 17.518Q5.15823 17.4342 5.18112 17.3061Q5.20401 17.178 5.12703 17.0602Q5.05005 16.9424 4.84451 16.9147L4.01291 16.7612Q3.38638 16.648 3.11447 16.3635Q2.84256 16.0791 2.84256 15.6253ZM13.2047 16.0613Q13.2047 15.8893 13.1042 15.8048Q13.0038 15.7202 12.873 15.7188Q12.7422 15.7175 12.6431 15.7993Q12.5441 15.881 12.5441 16.0545L12.5441 17.567Q12.5441 18.2628 11.7476 18.1311L10.2547 17.8615Q10.0969 17.8409 10.0006 17.9247Q9.90433 18.0084 9.88144 18.1401Q9.85855 18.2718 9.92165 18.3846Q9.98474 18.4975 10.1485 18.5252L11.7813 18.812Q12.4223 18.9237 12.8135 18.6823Q13.2047 18.4409 13.2047 17.8264Z" fill="#000000"/>
 </g>
</svg>
