<?xml version="1.0" encoding="UTF-8"?>
<!--Generator: Apple Native CoreSVG 175.5-->
<!DOCTYPE svg
PUBLIC "-//W3C//DTD SVG 1.1//EN"
       "http://www.w3.org/Graphics/SVG/1.1/DTD/svg11.dtd">
<svg version="1.1" xmlns="http://www.w3.org/2000/svg" xmlns:xlink="http://www.w3.org/1999/xlink" width="19.9219" height="19.9316">
 <g>
  <rect height="19.9316" opacity="0" width="19.9219" x="0" y="0"/>
  <path d="M9.96094 19.9219Q12.002 19.9219 13.8037 19.1406Q15.6055 18.3594 16.9824 16.9824Q18.3594 15.6055 19.1406 13.8037Q19.9219 12.002 19.9219 9.96094Q19.9219 7.91992 19.1406 6.11816Q18.3594 4.31641 16.9824 2.93945Q15.6055 1.5625 13.7988 0.78125Q11.9922 0 9.95117 0Q7.91016 0 6.1084 0.78125Q4.30664 1.5625 2.93457 2.93945Q1.5625 4.31641 0.78125 6.11816Q0 7.91992 0 9.96094Q0 12.002 0.78125 13.8037Q1.5625 15.6055 2.93945 16.9824Q4.31641 18.3594 6.11816 19.1406Q7.91992 19.9219 9.96094 19.9219ZM9.96094 18.2617Q8.23242 18.2617 6.72852 17.6172Q5.22461 16.9727 4.08691 15.835Q2.94922 14.6973 2.30957 13.1934Q1.66992 11.6895 1.66992 9.96094Q1.66992 8.23242 2.30957 6.72852Q2.94922 5.22461 4.08203 4.08203Q5.21484 2.93945 6.71875 2.2998Q8.22266 1.66016 9.95117 1.66016Q11.6797 1.66016 13.1885 2.2998Q14.6973 2.93945 15.835 4.08203Q16.9727 5.22461 17.6172 6.72852Q18.2617 8.23242 18.2617 9.96094Q18.2617 11.6895 17.6221 13.1934Q16.9824 14.6973 15.8398 15.835Q14.6973 16.9727 13.1934 17.6172Q11.6895 18.2617 9.96094 18.2617Z" fill="#007aff"/>
  <path d="M4.36523 11.875Q4.36523 12.1973 4.56055 12.3828Q4.75586 12.5684 5.08789 12.5684L7.32422 12.5684L7.32422 14.8047Q7.32422 15.1465 7.50977 15.3369Q7.69531 15.5273 8.01758 15.5273Q8.33008 15.5273 8.51074 15.3369Q8.69141 15.1465 8.69141 14.8047L8.69141 12.5684L11.2109 12.5684L11.2109 14.8047Q11.2109 15.1465 11.3916 15.3369Q11.5723 15.5273 11.8945 15.5273Q12.207 15.5273 12.3926 15.3369Q12.5781 15.1465 12.5781 14.8047L12.5781 12.5684L14.8145 12.5684Q15.1562 12.5684 15.3467 12.3828Q15.5371 12.1973 15.5371 11.875Q15.5371 11.5625 15.3467 11.3818Q15.1562 11.2012 14.8145 11.2012L12.5781 11.2012L12.5781 8.70117L14.8145 8.70117Q15.1562 8.70117 15.3467 8.51562Q15.5371 8.33008 15.5371 8.01758Q15.5371 7.69531 15.3467 7.51465Q15.1562 7.33398 14.8145 7.33398L12.5781 7.33398L12.5781 5.09766Q12.5781 4.75586 12.3926 4.56543Q12.207 4.375 11.8945 4.375Q11.5723 4.375 11.3916 4.56543Q11.2109 4.75586 11.2109 5.09766L11.2109 7.33398L8.69141 7.33398L8.69141 5.09766Q8.69141 4.75586 8.51074 4.56543Q8.33008 4.375 8.01758 4.375Q7.69531 4.375 7.50977 4.56543Q7.32422 4.75586 7.32422 5.09766L7.32422 7.33398L5.08789 7.33398Q4.75586 7.33398 4.56055 7.51465Q4.36523 7.69531 4.36523 8.01758Q4.36523 8.33008 4.56055 8.51562Q4.75586 8.70117 5.08789 8.70117L7.32422 8.70117L7.32422 11.2012L5.08789 11.2012Q4.75586 11.2012 4.56055 11.3818Q4.36523 11.5625 4.36523 11.875ZM8.70117 11.2012L8.70117 8.70117L11.2207 8.70117L11.2207 11.2012Z" fill="#007aff"/>
 </g>
</svg>
