<?xml version="1.0" encoding="UTF-8"?>
<!--Generator: Apple Native CoreSVG 175.5-->
<!DOCTYPE svg
PUBLIC "-//W3C//DTD SVG 1.1//EN"
       "http://www.w3.org/Graphics/SVG/1.1/DTD/svg11.dtd">
<svg version="1.1" xmlns="http://www.w3.org/2000/svg" xmlns:xlink="http://www.w3.org/1999/xlink" width="18.8867" height="18.5645">
 <g>
  <rect height="18.5645" opacity="0" width="18.8867" x="0" y="0"/>
  <path d="M5.83984 18.5059Q6.17188 18.5059 6.37207 18.3008Q6.57227 18.0957 6.57227 17.7344L6.57227 0.78125Q6.57227 0.419922 6.37207 0.209961Q6.17188 0 5.83984 0Q5.48828 0 5.29297 0.209961Q5.09766 0.419922 5.09766 0.78125L5.09766 17.7344Q5.09766 18.0957 5.29297 18.3008Q5.48828 18.5059 5.83984 18.5059ZM12.998 18.5059Q13.3301 18.5059 13.5303 18.3008Q13.7305 18.0957 13.7305 17.7344L13.7305 0.78125Q13.7305 0.419922 13.5303 0.209961Q13.3301 0 12.998 0Q12.6465 0 12.4512 0.209961Q12.2559 0.419922 12.2559 0.78125L12.2559 17.7344Q12.2559 18.0957 12.4512 18.3008Q12.6465 18.5059 12.998 18.5059ZM0.78125 13.4961L18.1055 13.4961Q18.4668 13.4961 18.6768 13.2959Q18.8867 13.0957 18.8867 12.7539Q18.8867 12.4121 18.6768 12.2168Q18.4668 12.0215 18.1055 12.0215L0.78125 12.0215Q0.419922 12.0215 0.209961 12.2168Q0 12.4121 0 12.7539Q0 13.0957 0.209961 13.2959Q0.419922 13.4961 0.78125 13.4961ZM0.78125 6.52344L18.1055 6.52344Q18.4668 6.52344 18.6768 6.32812Q18.8867 6.13281 18.8867 5.79102Q18.8867 5.43945 18.6768 5.24414Q18.4668 5.04883 18.1055 5.04883L0.78125 5.04883Q0.419922 5.04883 0.209961 5.24414Q0 5.43945 0 5.79102Q0 6.13281 0.209961 6.32812Q0.419922 6.52344 0.78125 6.52344Z" fill="#007aff"/>
 </g>
</svg>
