<?xml version="1.0" encoding="UTF-8"?>
<!--Generator: Apple Native CoreSVG 175.5-->
<!DOCTYPE svg
PUBLIC "-//W3C//DTD SVG 1.1//EN"
       "http://www.w3.org/Graphics/SVG/1.1/DTD/svg11.dtd">
<svg version="1.1" xmlns="http://www.w3.org/2000/svg" xmlns:xlink="http://www.w3.org/1999/xlink" width="14.1309" height="21.9238">
 <g>
  <rect height="21.9238" opacity="0" width="14.1309" x="0" y="0"/>
  <path d="M7.46094 19.873Q9.60938 19.873 11.0986 18.999Q12.5879 18.125 13.3594 16.5039Q14.1309 14.8828 14.1309 12.6562L14.1309 11.6992Q14.1309 11.2305 13.8721 10.9668Q13.6133 10.7031 13.1641 10.7031L7.7832 10.7031L7.7832 12.3438L12.2656 12.3438L12.2656 13.0664Q12.2656 14.5996 11.6895 15.7471Q11.1133 16.8945 10.0391 17.5293Q8.96484 18.1641 7.4707 18.1641Q5.80078 18.1641 4.56055 17.2803Q3.32031 16.3965 2.6416 14.7705Q1.96289 13.1445 1.96289 10.9277Q1.96289 8.74023 2.64648 7.14355Q3.33008 5.54688 4.56543 4.67773Q5.80078 3.80859 7.46094 3.80859Q8.56445 3.80859 9.51172 4.22363Q10.459 4.63867 11.123 5.37109Q11.7871 6.10352 12.0508 7.05078Q12.1875 7.48047 12.3926 7.66113Q12.5977 7.8418 12.9785 7.8418Q13.3789 7.8418 13.6133 7.60254Q13.8477 7.36328 13.8379 6.97266Q13.8379 6.75781 13.7988 6.54785Q13.7598 6.33789 13.6914 6.13281Q13.2617 4.93164 12.3535 4.02344Q11.4453 3.11523 10.1904 2.60742Q8.93555 2.09961 7.46094 2.09961Q5.20508 2.09961 3.53027 3.18359Q1.85547 4.26758 0.927734 6.25Q0 8.23242 0 10.9277Q0 13.6621 0.922852 15.6689Q1.8457 17.6758 3.52051 18.7744Q5.19531 19.873 7.46094 19.873ZM7.37305 21.9238Q7.64648 21.9238 7.82715 21.7432Q8.00781 21.5625 8.00781 21.2793L8.00781 0.712891Q8.00781 0.429688 7.82715 0.253906Q7.64648 0.078125 7.37305 0.078125Q7.10938 0.078125 6.92383 0.253906Q6.73828 0.429688 6.73828 0.712891L6.73828 21.2793Q6.73828 21.5625 6.92383 21.7432Q7.10938 21.9238 7.37305 21.9238Z" fill="#007aff"/>
 </g>
</svg>
