<?xml version="1.0" encoding="UTF-8"?>
<!--Generator: Apple Native CoreSVG 175-->
<!DOCTYPE svg
PUBLIC "-//W3C//DTD SVG 1.1//EN"
       "http://www.w3.org/Graphics/SVG/1.1/DTD/svg11.dtd">
<svg version="1.1" xmlns="http://www.w3.org/2000/svg" xmlns:xlink="http://www.w3.org/1999/xlink" width="22.8952" height="20.0433">
 <g>
  <rect height="20.0433" opacity="0" width="22.8952" x="0" y="0"/>
  <path d="M0.10651 18.8187Q-0.0299038 19.1234 0.0083958 19.3978Q0.0466954 19.6722 0.238498 19.8451Q0.430301 20.018 0.760807 20.018Q0.927127 20.018 1.10428 19.9487Q1.28144 19.8793 1.50498 19.6933L4.41269 17.2812Q4.7139 17.0375 4.8526 17.0375Q4.98413 17.0375 5.28534 17.2812L8.19321 19.6933Q8.41935 19.8793 8.5965 19.9487Q8.77365 20.018 8.93738 20.018Q9.26773 20.018 9.46091 19.8451Q9.65409 19.6722 9.69101 19.3978Q9.72794 19.1234 9.59168 18.8187L5.50995 9.42688L5.50995 4.55109Q5.50995 3.43079 5.60273 2.5386Q5.6955 1.64642 5.78827 1.07376Q5.88105 0.501099 5.88105 0.344849Q5.88105 0.18631 5.79277 0.0931549Q5.7045 0 5.54871 0Q5.35797 0 5.05844 0.335846L2.91703 2.80655Q2.80564 2.92343 2.82227 3.03726Q2.8389 3.15109 2.96814 3.2164Q3.61969 3.48984 3.91365 3.73009Q4.20761 3.97034 4.20761 4.55109L4.20761 9.39056ZM0.648197 19.0898L4.63227 9.84146L5.06577 9.84146L9.04984 19.0898Q9.13498 19.2964 9.00292 19.3661Q8.87085 19.4359 8.74115 19.3398L5.62088 16.7458Q5.16343 16.3719 4.8526 16.3719Q4.53461 16.3719 4.07715 16.7458L0.956882 19.3398Q0.827182 19.4359 0.695118 19.3661Q0.563053 19.2964 0.648197 19.0898ZM7.06238 17.0711Q7.22245 17.0711 7.33376 16.9611Q7.44507 16.8512 7.44507 16.7078Q7.44507 16.5503 7.33162 16.4355Q7.21817 16.3206 7.06238 16.3206Q6.92871 16.3206 6.81305 16.4391Q6.69739 16.5575 6.69739 16.7078Q6.69739 16.8539 6.80817 16.9625Q6.91895 17.0711 7.06238 17.0711ZM6.57837 15.9207Q6.73569 15.9207 6.85059 15.8086Q6.96549 15.6964 6.96549 15.5504Q6.96549 15.3972 6.85059 15.2872Q6.73569 15.1773 6.57837 15.1773Q6.43921 15.1773 6.32576 15.2921Q6.21231 15.407 6.21231 15.5504Q6.21231 15.7034 6.32576 15.8121Q6.43921 15.9207 6.57837 15.9207ZM6.09589 14.7676Q6.24909 14.7676 6.36116 14.6568Q6.47324 14.5461 6.47324 14.4Q6.47324 14.2398 6.36467 14.132Q6.25611 14.0242 6.09589 14.0242Q5.95261 14.0242 5.84259 14.1369Q5.73258 14.2496 5.73258 14.4Q5.73258 14.5503 5.83901 14.659Q5.94544 14.7676 6.09589 14.7676ZM8.38227 14.7406L8.77335 15.6297Q8.90488 15.0351 9.16352 14.6193Q9.42215 14.2035 9.63524 13.8355Q9.84833 13.4676 9.84833 13.0258Q9.84833 12.5558 9.68582 12.1758Q9.52332 11.7957 9.3573 11.4441Q9.19129 11.0925 9.19129 10.6879Q9.19129 10.4753 9.37439 10.4753Q9.5546 10.4753 9.69399 10.6582Q9.83338 10.8411 9.98322 11.0825Q10.1331 11.3239 10.3477 11.508Q10.5623 11.6922 10.8885 11.6922Q11.2627 11.6922 11.5666 11.3071Q11.8706 10.9219 11.8796 10.0867L12.1265 10.0867Q12.1451 10.9247 12.4455 11.3084Q12.746 11.6922 13.1201 11.6922Q13.4506 11.6922 13.6631 11.508Q13.8756 11.3239 14.0276 11.0825Q14.1795 10.8411 14.319 10.6582Q14.4585 10.4753 14.6288 10.4753Q14.8174 10.4753 14.8174 10.6879Q14.8174 11.0925 14.6548 11.4441Q14.4923 11.7957 14.325 12.1758Q14.1577 12.5558 14.1577 13.0258Q14.1577 13.429 14.3384 13.7659Q14.519 14.1028 14.7547 14.4774Q14.9904 14.852 15.1711 15.341Q15.3517 15.8301 15.3517 16.5179Q15.3517 17.8336 14.4405 18.6109Q13.5292 19.3883 11.996 19.3883Q11.4987 19.3883 11.0409 19.2957Q10.583 19.203 10.1732 19.0277Q10.2022 19.1867 10.2016 19.3582Q10.201 19.5297 10.1373 19.7047Q10.5635 19.8676 11.0246 19.9504Q11.4858 20.0333 11.996 20.0333Q13.2088 20.0333 14.1072 19.5977Q15.0056 19.1621 15.4998 18.3746Q15.994 17.5871 15.994 16.5179Q15.994 15.7292 15.8098 15.1929Q15.6256 14.6567 15.3864 14.2865Q15.1471 13.9163 14.9651 13.6291Q14.783 13.3418 14.783 13.0511Q14.783 12.6097 14.949 12.2371Q15.1151 11.8645 15.2811 11.4949Q15.4471 11.1253 15.4471 10.6906Q15.4471 10.2985 15.2303 10.0572Q15.0136 9.81598 14.6674 9.81598Q14.2857 9.81598 14.0371 10.0933Q13.7885 10.3706 13.6057 10.6538Q13.4787 10.8308 13.372 10.9578Q13.2654 11.0847 13.1354 11.0847Q12.9393 11.0847 12.8342 10.8662Q12.7292 10.6476 12.6872 10.358Q12.6451 10.0684 12.6549 9.85077L12.6576 4.10187Q12.6576 3.85895 12.6948 3.77007Q12.7319 3.68118 12.8955 3.62381Q13.1041 3.54996 13.1432 3.23822L13.3342 1.24603Q13.3467 1.01639 13.1686 0.860596L12.3218 0.121002Q12.1811 0 11.996 0Q11.8318 0 11.6815 0.121002L10.8374 0.860596Q10.6592 1.01639 10.6787 1.24603L10.867 3.23822Q10.8991 3.55423 11.1034 3.62381Q11.2573 3.67142 11.3063 3.76305Q11.3553 3.85468 11.3553 4.10187L11.3538 9.85077Q11.3608 10.0656 11.3237 10.3552Q11.2866 10.6448 11.1766 10.8648Q11.0666 11.0847 10.8733 11.0847Q10.7405 11.0847 10.6352 10.9586Q10.5299 10.8324 10.4073 10.6538Q10.2119 10.3761 9.96605 10.0961Q9.72016 9.81598 9.34128 9.81598Q8.99521 9.81598 8.78052 10.0558Q8.56583 10.2957 8.56583 10.6906Q8.56583 11.1253 8.72834 11.4949Q8.89084 11.8645 9.05686 12.2371Q9.22287 12.6097 9.22287 13.0511Q9.22287 13.409 8.92952 13.7794Q8.63617 14.1499 8.38227 14.7406ZM10.0975 16.373Q10.2115 16.4105 10.3159 16.3619Q10.4202 16.3133 10.4576 16.209L11.3385 13.7926Q11.3803 13.6856 11.3295 13.5799Q11.2787 13.4743 11.1745 13.4395Q11.0603 13.3949 10.9547 13.4435Q10.849 13.4921 10.8044 13.5965L9.92371 16.0156Q9.88892 16.1198 9.93965 16.229Q9.99039 16.3382 10.0975 16.373ZM13.9084 16.373Q14.0155 16.3382 14.0698 16.229Q14.124 16.1198 14.0796 16.0156L13.1987 13.5965Q13.1612 13.4921 13.0569 13.4435Q12.9526 13.3949 12.8384 13.4395Q12.7342 13.4743 12.6834 13.5799Q12.6326 13.6856 12.6674 13.7926L13.5483 16.209Q13.5928 16.3133 13.6936 16.3619Q13.7944 16.4105 13.9084 16.373ZM18.9139 19.9817Q20.7542 19.9817 21.8247 19.202Q22.8952 18.4222 22.8952 17.0871Q22.8952 16.3887 22.6985 15.9068Q22.5018 15.425 22.2395 15.0664Q21.9772 14.7078 21.777 14.3964Q21.5768 14.0851 21.5768 13.7277Q21.5768 13.1761 21.7268 12.6962Q21.8768 12.2163 21.8768 11.6742Q21.8768 10.8441 21.2557 10.3133Q20.6346 9.78241 19.5589 9.65698L19.5589 3.74054Q19.5589 3.40546 19.6266 3.25523Q19.6944 3.10501 19.8814 2.9808Q20.1155 2.83325 20.096 2.65656L19.9495 0.244446Q19.9397 0.134735 19.8724 0.0673676Q19.805 0 19.7119 0L18.1033 0Q18.0132 0 17.9458 0.0673676Q17.8784 0.134735 17.8687 0.244446L17.7362 2.65656Q17.7194 2.83325 17.9366 2.9808Q18.1264 3.10776 18.1928 3.25798Q18.2593 3.4082 18.2593 3.74054L18.2593 9.65698Q17.1906 9.78241 16.5694 10.3133Q15.9483 10.8441 15.9483 11.6742Q15.9483 12.2163 16.0948 12.6962Q16.2413 13.1761 16.2413 13.7277Q16.2413 13.8914 16.1916 14.0422Q16.142 14.193 16.0558 14.3585Q16.1389 14.5164 16.2035 14.6912Q16.2682 14.866 16.3155 15.0563Q16.5295 14.743 16.6995 14.4189Q16.8694 14.0948 16.8694 13.7082Q16.8694 13.1976 16.725 12.6822Q16.5807 12.1667 16.5807 11.6742Q16.5807 10.9547 17.1854 10.5936Q17.7901 10.2324 18.9139 10.2324Q19.9522 10.2324 20.6018 10.5662Q21.2514 10.9 21.2514 11.6742Q21.2514 12.1667 21.1 12.6822Q20.9486 13.1976 20.9486 13.7082Q20.9486 14.1434 21.1453 14.5026Q21.342 14.8618 21.6022 15.228Q21.8623 15.5942 22.0612 16.0358Q22.26 16.4774 22.26 17.0871Q22.26 18.1378 21.3782 18.7435Q20.4964 19.3492 18.9139 19.3492Q16.9081 19.3492 16.0413 18.398Q15.9734 18.5585 15.8907 18.6902Q15.8081 18.8219 15.7123 18.9578Q16.228 19.4649 17.0475 19.7233Q17.867 19.9817 18.9139 19.9817ZM18.9139 14.4218Q19.3155 14.4218 19.5998 14.1354Q19.8842 13.8489 19.8842 13.4445Q19.8842 13.0402 19.5998 12.7558Q19.3155 12.4715 18.9139 12.4715Q18.5167 12.4715 18.2239 12.7558Q17.9311 13.0402 17.9311 13.4445Q17.9311 13.8489 18.2225 14.1354Q18.5139 14.4218 18.9139 14.4218ZM17.6709 17.1294L20.1514 17.1294Q20.257 17.1294 20.3404 17.053Q20.4237 16.9766 20.4237 16.857Q20.4237 16.7348 20.3404 16.6535Q20.257 16.5723 20.1514 16.5723L17.6709 16.5723Q17.5584 16.5723 17.4737 16.6549Q17.3889 16.7375 17.3889 16.857Q17.3889 16.9766 17.4737 17.053Q17.5584 17.1294 17.6709 17.1294Z" fill="#000000"/>
 </g>
</svg>
