<?xml version="1.0" encoding="UTF-8"?>
<!--Generator: Apple Native CoreSVG 175-->
<!DOCTYPE svg
PUBLIC "-//W3C//DTD SVG 1.1//EN"
       "http://www.w3.org/Graphics/SVG/1.1/DTD/svg11.dtd">
<svg version="1.1" xmlns="http://www.w3.org/2000/svg" xmlns:xlink="http://www.w3.org/1999/xlink" width="19.8242" height="18.9941">
 <g>
  <rect height="18.9941" opacity="0" width="19.8242" x="0" y="0"/>
  <path d="M12.4512 0L2.62695 0Q1.33789 0 0.668945 0.673828Q0 1.34766 0 2.62695L0 12.4609Q0 13.7305 0.668945 14.4092Q1.33789 15.0879 2.62695 15.0879L12.4512 15.0879Q13.75 15.0879 14.4189 14.4189Q15.0879 13.75 15.0879 12.4609L15.0879 2.62695Q15.0879 1.32812 14.4189 0.664062Q13.75 0 12.4512 0ZM19.8242 6.52344Q19.8242 5.23438 19.1553 4.57031Q18.4863 3.90625 17.1973 3.90625L15.957 3.90625L15.957 12.4609Q15.957 13.5645 15.542 14.3408Q15.127 15.1172 14.3408 15.5371Q13.5547 15.957 12.4512 15.957L4.73633 15.957L4.73633 16.3574Q4.73633 17.6465 5.40527 18.3154Q6.07422 18.9844 7.37305 18.9844L17.1973 18.9844Q18.4863 18.9844 19.1553 18.3203Q19.8242 17.6562 19.8242 16.3574ZM4.55078 11.9629Q4.375 11.9629 4.27246 11.8506Q4.16992 11.7383 4.16992 11.5625L4.16992 3.48633Q4.16992 3.30078 4.27246 3.19824Q4.375 3.0957 4.55078 3.0957Q4.7168 3.0957 4.81934 3.19824Q4.92188 3.30078 4.92188 3.48633L4.92188 7.02148L10.1562 7.02148L10.1562 3.48633Q10.1562 3.30078 10.2588 3.19824Q10.3613 3.0957 10.5273 3.0957Q10.7129 3.0957 10.8105 3.19824Q10.9082 3.30078 10.9082 3.48633L10.9082 11.5625Q10.9082 11.748 10.8105 11.8555Q10.7129 11.9629 10.5273 11.9629Q10.3613 11.9629 10.2588 11.8506Q10.1562 11.7383 10.1562 11.5625L10.1562 7.67578L4.92188 7.67578L4.92188 11.5625Q4.92188 11.748 4.81934 11.8555Q4.7168 11.9629 4.55078 11.9629Z" fill="#000000"/>
 </g>
</svg>
