<?xml version="1.0" encoding="UTF-8"?>
<!--Generator: Apple Native CoreSVG 175.5-->
<!DOCTYPE svg
PUBLIC "-//W3C//DTD SVG 1.1//EN"
       "http://www.w3.org/Graphics/SVG/1.1/DTD/svg11.dtd">
<svg version="1.1" xmlns="http://www.w3.org/2000/svg" xmlns:xlink="http://www.w3.org/1999/xlink" width="17.9785" height="17.998">
 <g>
  <rect height="17.998" opacity="0" width="17.9785" x="0" y="0"/>
  <path d="M3.06641 17.998L14.9121 17.998Q16.4453 17.998 17.2119 17.2412Q17.9785 16.4844 17.9785 14.9707L17.9785 3.04688Q17.9785 1.5332 17.2119 0.776367Q16.4453 0.0195312 14.9121 0.0195312L3.06641 0.0195312Q1.5332 0.0195312 0.766602 0.776367Q0 1.5332 0 3.04688L0 14.9707Q0 16.4844 0.766602 17.2412Q1.5332 17.998 3.06641 17.998ZM3.08594 16.4258Q2.35352 16.4258 1.96289 16.04Q1.57227 15.6543 1.57227 14.8926L1.57227 3.125Q1.57227 2.36328 1.96289 1.97754Q2.35352 1.5918 3.08594 1.5918L14.8926 1.5918Q15.6152 1.5918 16.0107 1.97754Q16.4062 2.36328 16.4062 3.125L16.4062 14.8926Q16.4062 15.6543 16.0107 16.04Q15.6152 16.4258 14.8926 16.4258Z" fill="#007aff"/>
  <path d="M5.91797 13.4668Q6.28906 13.4668 6.49902 13.2373Q6.70898 13.0078 6.70898 12.5977L6.70898 9.375L11.2793 9.375L11.2793 12.5977Q11.2793 13.0078 11.4844 13.2373Q11.6895 13.4668 12.041 13.4668Q12.4219 13.4668 12.627 13.2373Q12.832 13.0078 12.832 12.5977L12.832 5.20508Q12.832 4.79492 12.627 4.56543Q12.4219 4.33594 12.041 4.33594Q11.6895 4.33594 11.4844 4.57031Q11.2793 4.80469 11.2793 5.20508L11.2793 8.1543L6.70898 8.1543L6.70898 5.20508Q6.70898 4.79492 6.49902 4.56543Q6.28906 4.33594 5.91797 4.33594Q5.55664 4.33594 5.35156 4.57031Q5.14648 4.80469 5.14648 5.20508L5.14648 12.5977Q5.14648 13.0078 5.35156 13.2373Q5.55664 13.4668 5.91797 13.4668Z" fill="#007aff"/>
 </g>
</svg>
