<?xml version="1.0" encoding="UTF-8"?>
<!--Generator: Apple Native CoreSVG 175-->
<!DOCTYPE svg
PUBLIC "-//W3C//DTD SVG 1.1//EN"
       "http://www.w3.org/Graphics/SVG/1.1/DTD/svg11.dtd">
<svg version="1.1" xmlns="http://www.w3.org/2000/svg" xmlns:xlink="http://www.w3.org/1999/xlink" width="19.8242" height="18.9941">
 <g>
  <rect height="18.9941" opacity="0" width="19.8242" x="0" y="0"/>
  <path d="M7.37305 18.9844L17.1973 18.9844Q18.4863 18.9844 19.1553 18.3203Q19.8242 17.6562 19.8242 16.3574L19.8242 6.52344Q19.8242 5.23438 19.1553 4.57031Q18.4863 3.90625 17.1973 3.90625L14.8242 3.90625L14.8242 4.62891L17.168 4.62891Q18.1152 4.62891 18.6035 5.11719Q19.0918 5.60547 19.0918 6.5625L19.0918 16.3281Q19.0918 17.2852 18.6035 17.7734Q18.1152 18.2617 17.168 18.2617L7.39258 18.2617Q6.47461 18.2617 5.97168 17.7734Q5.46875 17.2852 5.46875 16.3281L5.46875 14.7656L4.73633 14.7656L4.73633 16.3574Q4.73633 17.6465 5.40527 18.3154Q6.07422 18.9844 7.37305 18.9844ZM2.62695 15.0879L12.4512 15.0879Q13.75 15.0879 14.4189 14.4189Q15.0879 13.75 15.0879 12.4609L15.0879 2.62695Q15.0879 1.32812 14.4189 0.664062Q13.75 0 12.4512 0L2.62695 0Q1.33789 0 0.668945 0.673828Q0 1.34766 0 2.62695L0 12.4609Q0 13.7305 0.668945 14.4092Q1.33789 15.0879 2.62695 15.0879ZM2.65625 14.3555Q1.73828 14.3555 1.23535 13.8672Q0.732422 13.3789 0.732422 12.4219L0.732422 2.65625Q0.732422 1.70898 1.23535 1.21582Q1.73828 0.722656 2.65625 0.722656L12.4316 0.722656Q13.3789 0.722656 13.8672 1.21582Q14.3555 1.70898 14.3555 2.65625L14.3555 12.4219Q14.3555 13.3789 13.8672 13.8672Q13.3789 14.3555 12.4316 14.3555ZM4.57031 11.9336Q4.74609 11.9336 4.84375 11.8262Q4.94141 11.7188 4.94141 11.543L4.94141 7.68555L10.1367 7.68555L10.1367 11.543Q10.1367 11.7188 10.2393 11.8262Q10.3418 11.9336 10.5078 11.9336Q10.6836 11.9336 10.7812 11.8262Q10.8789 11.7188 10.8789 11.543L10.8789 3.51562Q10.8789 3.33008 10.7812 3.22266Q10.6836 3.11523 10.5078 3.11523Q10.3418 3.11523 10.2393 3.22754Q10.1367 3.33984 10.1367 3.51562L10.1367 7.02148L4.94141 7.02148L4.94141 3.51562Q4.94141 3.33008 4.84375 3.22266Q4.74609 3.11523 4.57031 3.11523Q4.4043 3.11523 4.30176 3.22754Q4.19922 3.33984 4.19922 3.51562L4.19922 11.543Q4.19922 11.7188 4.30176 11.8262Q4.4043 11.9336 4.57031 11.9336Z" fill="#007aff"/>
 </g>
</svg>
