<?xml version="1.0" encoding="UTF-8"?>
<!--Generator: Apple Native CoreSVG 175-->
<!DOCTYPE svg
PUBLIC "-//W3C//DTD SVG 1.1//EN"
       "http://www.w3.org/Graphics/SVG/1.1/DTD/svg11.dtd">
<svg version="1.1" xmlns="http://www.w3.org/2000/svg" xmlns:xlink="http://www.w3.org/1999/xlink" width="17.2852" height="17.3145">
 <g>
  <rect height="17.3145" opacity="0" width="17.2852" x="0" y="0"/>
  <path d="M2.62695 17.3145L14.6484 17.3145Q15.957 17.3145 16.6211 16.6455Q17.2852 15.9766 17.2852 14.6875L17.2852 2.65625Q17.2852 1.37695 16.6211 0.703125Q15.957 0.0292969 14.6484 0.0292969L2.62695 0.0292969Q1.33789 0.0292969 0.668945 0.693359Q0 1.35742 0 2.65625L0 14.6875Q0 15.9863 0.668945 16.6504Q1.33789 17.3145 2.62695 17.3145Z" fill="#000000"/>
  <path d="M5.6543 13.0762Q5.47852 13.0762 5.37598 12.9639Q5.27344 12.8516 5.27344 12.6758L5.27344 4.59961Q5.27344 4.41406 5.37598 4.31152Q5.47852 4.20898 5.6543 4.20898Q5.82031 4.20898 5.92285 4.31152Q6.02539 4.41406 6.02539 4.59961L6.02539 8.13477L11.2598 8.13477L11.2598 4.59961Q11.2598 4.41406 11.3623 4.31152Q11.4648 4.20898 11.6309 4.20898Q11.8164 4.20898 11.9141 4.31152Q12.0117 4.41406 12.0117 4.59961L12.0117 12.6758Q12.0117 12.8613 11.9141 12.9688Q11.8164 13.0762 11.6309 13.0762Q11.4648 13.0762 11.3623 12.9639Q11.2598 12.8516 11.2598 12.6758L11.2598 8.78906L6.02539 8.78906L6.02539 12.6758Q6.02539 12.8613 5.92285 12.9688Q5.82031 13.0762 5.6543 13.0762Z" fill="#ffffff"/>
 </g>
</svg>
