<?xml version="1.0" encoding="UTF-8"?>
<!--Generator: Apple Native CoreSVG 175-->
<!DOCTYPE svg
PUBLIC "-//W3C//DTD SVG 1.1//EN"
       "http://www.w3.org/Graphics/SVG/1.1/DTD/svg11.dtd">
<svg version="1.1" xmlns="http://www.w3.org/2000/svg" xmlns:xlink="http://www.w3.org/1999/xlink" width="23.3009" height="22.0841">
 <g>
  <rect height="22.0841" opacity="0" width="23.3009" x="0" y="0"/>
  <path d="M2.08595 21.5262Q2.67433 22.1243 3.27178 22.0812Q3.86924 22.038 4.48402 21.3492L14.165 10.6465L11.5258 8.00752L0.730508 17.5887Q0.0391322 18.2063 0.00220591 18.8024Q-0.0347204 19.3985 0.546487 19.9965ZM19.2173 13.5046Q19.4244 13.7062 19.6396 13.7082Q19.8548 13.7102 20.0732 13.4918L23.083 10.4875Q23.3028 10.2747 23.3009 10.0553Q23.2989 9.83598 23.0946 9.63441L22.3142 8.86521Q21.9649 8.52586 21.7255 8.4575Q21.486 8.38914 21.054 8.39448L20.3825 8.4398L19.4321 7.48246L19.6657 6.33042Q19.7645 5.8368 19.6395 5.45007Q19.5145 5.06333 19.1111 4.66676L16.9091 2.47743Q16.1196 1.69495 15.1309 1.19492Q14.1422 0.694894 13.0575 0.491189Q11.9727 0.287484 10.902 0.39689Q9.83131 0.506295 8.86176 0.930718Q7.89222 1.35514 7.13676 2.10786Q6.85554 2.38908 6.84478 2.68365Q6.83402 2.97822 7.00248 3.18284Q7.12898 3.33482 7.3442 3.41508Q7.55943 3.49534 7.82035 3.43827Q9.23209 3.16331 10.4513 3.25059Q11.6704 3.33787 12.756 4.12736L11.9758 5.91721Q11.7599 6.40153 11.8475 6.79376Q11.9352 7.18598 12.2794 7.53983L14.5486 9.82301Q14.802 10.0668 15.0545 10.128Q15.3071 10.1891 15.7152 10.1082L17.0696 9.84223L18.0173 10.7925L17.9871 11.4711Q17.9746 11.8988 18.0346 12.1516Q18.0946 12.4043 18.4438 12.7411Z" fill="#000000"/>
 </g>
</svg>
