<?xml version="1.0" encoding="UTF-8"?>
<!--Generator: Apple Native CoreSVG 175-->
<!DOCTYPE svg
PUBLIC "-//W3C//DTD SVG 1.1//EN"
       "http://www.w3.org/Graphics/SVG/1.1/DTD/svg11.dtd">
<svg version="1.1" xmlns="http://www.w3.org/2000/svg" xmlns:xlink="http://www.w3.org/1999/xlink" width="18.5844" height="20.8597">
 <g>
  <rect height="20.8597" opacity="0" width="18.5844" x="0" y="0"/>
  <path d="M0 13.5124Q0 14.9319 0.525589 16.1187Q1.05118 17.3055 1.96854 18.0152Q2.88589 18.725 4.07257 18.725L6.17615 18.725Q4.77646 17.8441 4.11713 16.4699Q3.45779 15.0957 3.48709 13.4148Q3.50662 12.1312 3.78059 11.1656Q4.05457 10.2 4.44206 9.48769Q4.82956 8.77533 5.19455 8.25394L3.71552 8.25394Q2.64603 8.25394 1.80466 8.95393Q0.963287 9.65393 0.481644 10.8455Q0 12.037 0 13.5124ZM4.35928 13.437Q4.36096 14.7536 4.86015 15.8719Q5.35934 16.9902 6.3076 17.8283Q7.25586 18.6664 8.59238 19.1399Q9.92889 19.6133 11.6023 19.6257L12.9047 19.6426Q13.8417 19.6524 14.516 19.5924Q15.1903 19.5325 15.5862 19.4223Q16.1398 19.2828 16.6022 18.9182Q17.0645 18.5535 17.0645 17.8661Q17.0645 17.5941 16.9997 17.3863Q16.9348 17.1785 16.8372 17.0195Q16.7242 16.8285 16.8887 16.7574Q17.3363 16.5578 17.657 16.1633Q17.9778 15.7687 17.9778 15.1984Q17.9778 14.557 17.6543 14.1121Q17.4855 13.8847 17.7324 13.7425Q18.0602 13.5612 18.261 13.175Q18.4618 12.7887 18.4618 12.3257Q18.4618 11.998 18.3578 11.6738Q18.2539 11.3496 18.0559 11.1711Q17.8676 11.0066 18.102 10.8086Q18.325 10.6203 18.4547 10.3045Q18.5844 9.98871 18.5844 9.58008Q18.5844 9.11987 18.3655 8.73703Q18.1465 8.35419 17.7707 8.12553Q17.3949 7.89688 16.918 7.89688L13.5364 7.89688Q12.9019 7.89688 12.5058 7.58728Q12.1097 7.27768 12.1097 6.75629Q12.1097 6.26678 12.3531 5.61485Q12.5964 4.96292 12.9193 4.23004Q13.2422 3.49716 13.4856 2.76924Q13.7289 2.04132 13.7289 1.40976Q13.7289 0.74173 13.3461 0.370865Q12.9633 0 12.3956 0Q11.884 0 11.5842 0.325546Q11.2843 0.651093 11.0054 1.18942Q9.94568 3.27423 8.6306 4.98596Q7.31552 6.69769 6.2265 8.13675Q5.60745 8.95386 5.19531 9.73824Q4.78317 10.5226 4.57397 11.4144Q4.36478 12.3062 4.35928 13.437Z" fill="#007aff"/>
 </g>
</svg>
