<?xml version="1.0" encoding="UTF-8"?>
<!--Generator: Apple Native CoreSVG 175.5-->
<!DOCTYPE svg
PUBLIC "-//W3C//DTD SVG 1.1//EN"
       "http://www.w3.org/Graphics/SVG/1.1/DTD/svg11.dtd">
<svg version="1.1" xmlns="http://www.w3.org/2000/svg" xmlns:xlink="http://www.w3.org/1999/xlink" width="16.752" height="21.5723">
 <g>
  <rect height="21.5723" opacity="0" width="16.752" x="0" y="0"/>
  <path d="M7.875 20.8789Q10.1992 20.8789 11.7129 19.9023Q13.2266 18.9258 14.1934 16.9727Q14.4668 16.4258 14.7207 15.8301Q14.9746 15.2344 15.209 14.585Q15.4434 13.9355 15.6729 13.2324Q15.9023 12.5293 16.127 11.7773Q16.2539 11.3672 16.4004 10.9131Q16.5469 10.459 16.6494 10.0684Q16.752 9.67773 16.752 9.44336Q16.752 9.05273 16.4883 8.80859Q16.2246 8.56445 15.8145 8.56445Q15.3457 8.56445 15.0283 8.87695Q14.7109 9.18945 14.3691 9.88281L13.0215 12.7344Q12.9141 12.9688 12.7969 13.0664Q12.6797 13.1641 12.5625 13.1641Q12.416 13.1641 12.3037 13.0615Q12.1914 12.959 12.2305 12.7051L13.4121 2.51953Q13.4609 2.04102 13.2021 1.75781Q12.9434 1.47461 12.582 1.40625Q12.2012 1.33789 11.8252 1.52832Q11.4492 1.71875 11.3711 2.19727L10.1309 9.78516Q9.93555 9.70703 9.71582 9.64844Q9.49609 9.58984 9.26172 9.55078L9.26172 1.01562Q9.26172 0.595703 8.9541 0.297852Q8.64648 0 8.2168 0Q7.78711 0 7.47949 0.297852Q7.17188 0.595703 7.17188 1.01562L7.17188 9.44336Q6.9375 9.46289 6.70801 9.49219Q6.47852 9.52148 6.24414 9.56055L5.23828 2.06055Q5.16992 1.54297 4.81348 1.34277Q4.45703 1.14258 4.06641 1.21094Q3.69531 1.26953 3.40723 1.56738Q3.11914 1.86523 3.17773 2.35352L4.1543 10.2246Q3.91992 10.3418 3.7002 10.4688Q3.48047 10.5957 3.27539 10.7227L2.03516 4.67773Q1.92773 4.17969 1.57617 3.98438Q1.22461 3.78906 0.853516 3.84766Q0.492188 3.91602 0.21875 4.21875Q-0.0546875 4.52148 0.0136719 5.0293L1.18555 14.0234Q1.46875 16.1621 2.30859 17.7002Q3.14844 19.2383 4.54004 20.0586Q5.93164 20.8789 7.875 20.8789Z" fill="#007aff"/>
 </g>
</svg>
