<?xml version="1.0" encoding="UTF-8"?>
<!--Generator: Apple Native CoreSVG 175.5-->
<!DOCTYPE svg
PUBLIC "-//W3C//DTD SVG 1.1//EN"
       "http://www.w3.org/Graphics/SVG/1.1/DTD/svg11.dtd">
<svg version="1.1" xmlns="http://www.w3.org/2000/svg" xmlns:xlink="http://www.w3.org/1999/xlink" width="19.1504" height="21.5723">
 <g>
  <rect height="21.5723" opacity="0" width="19.1504" x="0" y="0"/>
  <path d="M10.2832 20.8789Q11.5918 20.8789 12.6416 20.5664Q13.6914 20.2539 14.5117 19.6289L3.58398 8.70117L3.58398 14.0234Q3.58398 15.6445 4.08203 16.9141Q4.58008 18.1836 5.47852 19.0674Q6.37695 19.9512 7.60254 20.415Q8.82812 20.8789 10.2832 20.8789ZM16.8945 16.5039Q16.9824 16.3281 17.0654 16.1328Q17.1484 15.9375 17.207 15.7324Q17.5586 14.834 17.8809 13.8428Q18.2031 12.8516 18.5352 11.7773Q18.6621 11.3672 18.8037 10.9131Q18.9453 10.459 19.0479 10.0684Q19.1504 9.67773 19.1504 9.44336Q19.1504 9.05273 18.8916 8.80859Q18.6328 8.56445 18.2129 8.56445Q17.7539 8.56445 17.4365 8.87695Q17.1191 9.18945 16.7773 9.88281L15.4199 12.7344Q15.3223 12.9688 15.2051 13.0664Q15.0879 13.1641 14.9707 13.1641Q14.8145 13.1641 14.7217 13.0615Q14.6289 12.959 14.6289 12.7051L14.6289 2.46094Q14.6289 2.03125 14.3213 1.72363Q14.0137 1.41602 13.584 1.41602Q13.1543 1.41602 12.8467 1.72363Q12.5391 2.03125 12.5391 2.46094L12.5391 9.78516Q12.334 9.70703 12.1191 9.64844Q11.9043 9.58984 11.6699 9.55078L11.6699 1.05469Q11.6699 0.615234 11.3623 0.307617Q11.0547 0 10.625 0Q10.1855 0 9.87793 0.307617Q9.57031 0.615234 9.57031 1.05469L9.57031 8.84766Q9.46289 8.85742 9.4043 8.8623Q9.3457 8.86719 9.26758 8.88672ZM6.5625 6.17188L8.65234 8.27148L8.65234 1.88477Q8.65234 1.45508 8.34473 1.14746Q8.03711 0.839844 7.60742 0.839844Q7.17773 0.839844 6.87012 1.14746Q6.5625 1.45508 6.5625 1.88477ZM4.36523 3.99414L5.68359 5.30273L5.68359 4.92188Q5.68359 4.49219 5.37598 4.18457Q5.06836 3.87695 4.63867 3.87695Q4.55078 3.87695 4.48242 3.90625Q4.41406 3.93555 4.36523 3.99414Z" fill="#007aff"/>
  <path d="M17.5684 20.9961Q17.7832 21.2109 18.1006 21.2109Q18.418 21.2109 18.6328 20.9961Q18.8477 20.7715 18.8477 20.459Q18.8477 20.1465 18.6328 19.9316L1.2793 2.58789Q1.06445 2.37305 0.74707 2.37305Q0.429688 2.37305 0.205078 2.58789Q0 2.80273 0 3.12012Q0 3.4375 0.205078 3.65234Z" fill="#007aff"/>
 </g>
</svg>
