<?xml version="1.0" encoding="UTF-8"?>
<!--Generator: Apple Native CoreSVG 175-->
<!DOCTYPE svg
PUBLIC "-//W3C//DTD SVG 1.1//EN"
       "http://www.w3.org/Graphics/SVG/1.1/DTD/svg11.dtd">
<svg version="1.1" xmlns="http://www.w3.org/2000/svg" xmlns:xlink="http://www.w3.org/1999/xlink" width="19.8204" height="19.0302">
 <g>
  <rect height="19.0302" opacity="0" width="19.8204" x="0" y="0"/>
  <path d="M8.64227 13.1438Q8.64227 14.343 9.11118 15.1495Q9.58008 15.956 10.3683 16.3589Q11.1566 16.7618 12.1329 16.7618Q13.3669 16.7618 14.2857 16.0858Q15.2046 15.4099 15.6828 13.8786Q15.8191 13.4653 15.9465 13.0348Q16.0739 12.6044 16.195 12.1638Q16.3161 11.7232 16.4301 11.2688Q16.4716 11.125 16.5051 10.9963Q16.5387 10.8676 16.5387 10.786Q16.5387 10.5922 16.409 10.4815Q16.2793 10.3708 16.097 10.3708Q15.9442 10.3708 15.8133 10.4651Q15.6824 10.5594 15.584 10.7774L14.9046 12.4489Q14.8347 12.6364 14.7424 12.6993Q14.65 12.7621 14.5465 12.7621Q14.2496 12.7621 14.2496 12.3758L14.2496 7.1965Q14.2496 6.99997 14.1096 6.85997Q13.9696 6.71997 13.766 6.71997Q13.5739 6.71997 13.4303 6.85997Q13.2867 6.99997 13.2867 7.1965L13.2867 10.8243Q13.161 10.7669 13.0233 10.7235Q12.8856 10.6801 12.7332 10.6367L12.7332 6.2207Q12.7332 6.02432 12.5967 5.88074Q12.4602 5.73715 12.2636 5.73715Q12.0743 5.73715 11.9307 5.88074Q11.7871 6.02432 11.7871 6.2207L11.7871 10.5739Q11.6164 10.5836 11.4465 10.6088Q11.2766 10.634 11.134 10.6606L11.134 6.81213Q11.134 6.61301 10.9904 6.47079Q10.8469 6.32858 10.645 6.32858Q10.4555 6.32858 10.3084 6.47079Q10.1613 6.61301 10.1613 6.81213L10.1613 10.977Q9.99496 11.0469 9.86076 11.1315Q9.72656 11.2161 9.6106 11.3L9.6106 8.43094Q9.6106 8.23166 9.46564 8.08815Q9.32068 7.94464 9.11728 7.94464Q8.92075 7.94464 8.78151 8.08815Q8.64227 8.23166 8.64227 8.43094ZM2.63046 15.1204L4.99573 15.1204L4.99573 14.3988L2.65701 14.3988Q1.7067 14.3988 1.21765 13.9062Q0.728607 13.4137 0.728607 12.4551L0.728607 2.69882Q0.728607 1.74026 1.21765 1.25122Q1.7067 0.762177 2.65701 0.762177L12.4269 0.762177Q13.3466 0.762177 13.851 1.25122Q14.3555 1.74026 14.3555 2.69882L14.3555 4.26102L15.0841 4.26102L15.0841 2.66022Q15.0841 1.38824 14.4159 0.710907Q13.7477 0.0335693 12.4492 0.0335693L2.63046 0.0335693Q1.33636 0.0335693 0.668182 0.702515Q0 1.37146 0 2.66022L0 12.4937Q0 13.7895 0.668182 14.455Q1.33636 15.1204 2.63046 15.1204ZM7.37381 19.0302L17.1925 19.0302Q18.484 19.0302 19.1522 18.3528Q19.8204 17.6755 19.8204 16.4035L19.8204 6.56998Q19.8204 5.29099 19.1522 4.61716Q18.484 3.94333 17.1925 3.94333L7.37381 3.94333Q6.07269 3.94333 5.40451 4.60876Q4.73633 5.2742 4.73633 6.56998L4.73633 16.4035Q4.73633 17.6923 5.40451 18.3612Q6.07269 19.0302 7.37381 19.0302ZM7.39334 18.3015Q6.44302 18.3015 5.95398 17.8125Q5.46494 17.3235 5.46494 16.3649L5.46494 6.60858Q5.46494 5.65002 5.95398 5.15747Q6.44302 4.66492 7.39334 4.66492L17.1632 4.66492Q18.0829 4.66492 18.5873 5.15747Q19.0918 5.65002 19.0918 6.60858L19.0918 16.3649Q19.0918 17.3235 18.5873 17.8125Q18.0829 18.3015 17.1632 18.3015Z" fill="#007aff"/>
 </g>
</svg>
