<?xml version="1.0" encoding="UTF-8"?>
<!--Generator: Apple Native CoreSVG 175-->
<!DOCTYPE svg
PUBLIC "-//W3C//DTD SVG 1.1//EN"
       "http://www.w3.org/Graphics/SVG/1.1/DTD/svg11.dtd">
<svg version="1.1" xmlns="http://www.w3.org/2000/svg" xmlns:xlink="http://www.w3.org/1999/xlink" width="19.4184" height="18.0435">
 <g>
  <rect height="18.0435" opacity="0" width="19.4184" x="0" y="0"/>
  <path d="M4.26208 2.33049Q2.94617 3.14348 1.99142 4.37372Q1.03668 5.60396 0.518341 7.15044Q0 8.69691 0 10.4599Q0 10.5969 0.102539 10.7079Q0.205078 10.8188 0.332489 10.8162Q0.466766 10.8135 0.555496 10.7221Q0.644226 10.6307 0.64682 10.4794Q0.656281 7.97899 1.68907 6.03761Q2.72186 4.09624 4.49066 2.97624ZM15.2423 17.5888Q16.9228 16.9771 18.0026 15.7941Q19.0825 14.6111 19.3491 12.9354Q19.6158 11.2598 18.8556 9.16063L18.2384 7.46797Q17.6622 5.89296 16.7466 5.28421Q15.831 4.67546 14.6544 5.0966Q14.3547 4.67546 13.8786 4.52684Q13.4024 4.37822 12.8571 4.57628Q12.4496 4.72978 12.0532 5.0551Q11.7525 4.62312 11.264 4.47252Q10.7755 4.32191 10.2219 4.52272Q9.85474 4.65669 9.48013 4.95317L8.26843 1.63911Q8.01224 0.907912 7.42935 0.65187Q6.84647 0.395827 6.2442 0.618453Q5.61371 0.843825 5.33577 1.41397Q5.05783 1.98411 5.3212 2.71257L8.40668 11.1844Q8.43597 11.2653 8.36761 11.2918Q8.31177 11.3114 8.2489 11.2485L6.29074 9.04222Q5.88913 8.60704 5.44655 8.48306Q5.00397 8.35908 4.5903 8.49962Q4.01764 8.70866 3.72795 9.227Q3.43826 9.74534 3.67935 10.3708Q3.74069 10.5223 3.83873 10.7018Q3.93677 10.8814 4.06052 11.0259L7.55005 15.2692Q9.1243 17.1849 11.0905 17.7855Q13.0566 18.3861 15.2423 17.5888ZM15.0333 16.9844Q13.0884 17.6946 11.288 17.1442Q9.48761 16.5938 8.04855 14.8454L4.56604 10.6004Q4.39148 10.3798 4.29932 10.1395Q4.1832 9.82789 4.33144 9.52318Q4.47968 9.21846 4.82346 9.08296Q5.35599 8.89421 5.88013 9.46886L8.08945 11.9083Q8.27148 12.1028 8.45863 12.1495Q8.64578 12.1962 8.84338 12.1224Q9.07043 12.043 9.17786 11.8413Q9.28528 11.6396 9.18915 11.3735L5.94299 2.46644Q5.78644 2.03294 5.92331 1.68901Q6.06018 1.34508 6.45859 1.19539Q6.84738 1.05562 7.16393 1.23743Q7.48047 1.41923 7.63718 1.84572L9.91104 8.09846Q9.96368 8.24419 10.0856 8.32429Q10.2075 8.4044 10.3532 8.35161Q10.5103 8.29896 10.5452 8.15874Q10.5801 8.01851 10.5273 7.87553L9.68094 5.54384Q10.0153 5.25865 10.3618 5.13017Q10.816 4.96812 11.1703 5.15542Q11.5247 5.34273 11.7079 5.85161L12.3485 7.5966Q12.4153 7.79146 12.542 7.84914Q12.6688 7.90681 12.7977 7.86104Q12.9099 7.81801 12.9743 7.69319Q13.0388 7.56837 12.9622 7.37077L12.3134 5.60441Q12.6477 5.31221 12.997 5.19075Q13.4512 5.02153 13.8055 5.20883Q14.1599 5.39613 14.343 5.91218L14.7833 7.10588Q14.8528 7.30363 14.9782 7.36124Q15.1036 7.41884 15.2325 7.37321Q15.3445 7.33018 15.409 7.20537Q15.4735 7.08055 15.3996 6.88295L14.9626 5.67354Q15.786 5.37157 16.4657 5.89715Q17.1454 6.42274 17.6274 7.73439L18.2216 9.3622Q18.9095 11.2572 18.6921 12.777Q18.4747 14.2969 17.5188 15.3653Q16.563 16.4337 15.0333 16.9844Z" fill="#007aff"/>
 </g>
</svg>
