<?xml version="1.0" encoding="UTF-8"?>
<!--Generator: Apple Native CoreSVG 175-->
<!DOCTYPE svg
PUBLIC "-//W3C//DTD SVG 1.1//EN"
       "http://www.w3.org/Graphics/SVG/1.1/DTD/svg11.dtd">
<svg version="1.1" xmlns="http://www.w3.org/2000/svg" xmlns:xlink="http://www.w3.org/1999/xlink" width="15.8484" height="18.0435">
 <g>
  <rect height="18.0435" opacity="0" width="15.8484" x="0" y="0"/>
  <path d="M11.6725 17.5888Q13.3529 16.9771 14.4328 15.7941Q15.5126 14.6111 15.7792 12.9354Q16.0458 11.2598 15.2857 9.16063L14.6685 7.46797Q14.0896 5.89296 13.174 5.28421Q12.2584 4.67546 11.0845 5.0966Q10.7849 4.67546 10.3087 4.52684Q9.83256 4.37822 9.28721 4.57628Q8.8798 4.72978 8.47636 5.0551Q8.18263 4.62312 7.69412 4.47252Q7.20561 4.32191 6.65202 4.52272Q6.28489 4.65669 5.91029 4.95317L4.69859 1.63911Q4.43522 0.907912 3.85592 0.65187Q3.27662 0.395827 2.67436 0.618453Q2.04386 0.843825 1.76592 1.41397Q1.48799 1.98411 1.7512 2.71257L4.83683 11.1844Q4.86613 11.2653 4.79777 11.2918Q4.7349 11.3114 4.67906 11.2485L2.71372 9.04222Q2.31928 8.60704 1.8767 8.48306Q1.43412 8.35908 1.02046 8.49962Q0.447794 8.70866 0.158106 9.227Q-0.131582 9.74534 0.109507 10.3708Q0.170847 10.5223 0.268885 10.7018Q0.366923 10.8814 0.490672 11.0259L3.9802 15.2692Q5.55445 17.1849 7.52062 17.7855Q9.4868 18.3861 11.6725 17.5888ZM11.4634 16.9844Q9.51853 17.6946 7.71815 17.1442Q5.91777 16.5938 4.47871 14.8454L0.996195 10.6004Q0.818888 10.3798 0.729472 10.1395Q0.613352 9.82789 0.756709 9.52318Q0.900065 9.21846 1.25361 9.08296Q1.78599 8.89421 2.31028 9.46886L4.5196 11.9083Q4.69462 12.1028 4.88528 12.1495Q5.07594 12.1962 5.27079 12.1224Q5.50059 12.043 5.60801 11.8413Q5.71543 11.6396 5.6193 11.3735L2.37315 2.46644Q2.21659 2.03294 2.35346 1.68901Q2.49034 1.34508 2.886 1.19539Q3.27754 1.05562 3.59408 1.23743Q3.91062 1.41923 4.06733 1.84572L6.3412 8.09846Q6.39384 8.24419 6.51576 8.32429Q6.63767 8.4044 6.7834 8.35161Q6.94041 8.29896 6.97398 8.15874Q7.00755 8.01851 6.9575 7.87553L6.10835 5.54384Q6.44267 5.25865 6.79194 5.13017Q7.2462 4.96812 7.6005 5.15542Q7.95481 5.34273 8.13807 5.85161L8.77864 7.5966Q8.84547 7.79146 8.97082 7.84914Q9.09617 7.90681 9.22511 7.86104Q9.33726 7.81801 9.39822 7.69319Q9.45918 7.56837 9.39234 7.37077L8.74354 5.60441Q9.07786 5.31221 9.42713 5.19075Q9.88139 5.02153 10.2357 5.20883Q10.59 5.39613 10.7731 5.91218L11.2135 7.10588Q11.2829 7.30363 11.4083 7.36124Q11.5338 7.41884 11.6627 7.37321Q11.7747 7.33018 11.8392 7.20537Q11.9036 7.08055 11.8298 6.88295L11.383 5.67354Q12.2161 5.37157 12.8958 5.89715Q13.5755 6.42274 14.0505 7.73439L14.6447 9.3622Q15.3369 11.2572 15.1209 12.777Q14.9049 14.2969 13.9455 15.3653Q12.9861 16.4337 11.4634 16.9844Z" fill="#ffffff"/>
 </g>
</svg>
