<?xml version="1.0" encoding="UTF-8"?>
<!--Generator: Apple Native CoreSVG 175.5-->
<!DOCTYPE svg
PUBLIC "-//W3C//DTD SVG 1.1//EN"
       "http://www.w3.org/Graphics/SVG/1.1/DTD/svg11.dtd">
<svg version="1.1" xmlns="http://www.w3.org/2000/svg" xmlns:xlink="http://www.w3.org/1999/xlink" width="15.9473" height="20.6348">
 <g>
  <rect height="20.6348" opacity="0" width="15.9473" x="0" y="0"/>
  <path d="M6.89453 0.0878906Q4.83398 0.0878906 3.28125 0.97168Q1.72852 1.85547 0.864258 3.50098Q0 5.14648 0 7.43164L0 9.56055Q0 11.25 0.756836 12.1924Q1.51367 13.1348 2.88086 13.1543Q3.04688 13.6914 3.47168 13.999Q3.89648 14.3066 4.51172 14.3066Q4.93164 14.3066 5.36133 14.1602Q5.55664 14.7559 6.01562 15.0928Q6.47461 15.4297 7.10938 15.4297Q7.46094 15.4297 7.80273 15.332L7.80273 18.584Q7.80273 19.502 8.35449 20.0684Q8.90625 20.6348 9.77539 20.6348Q10.6445 20.6348 11.2012 20.0684Q11.7578 19.502 11.7578 18.584L11.7578 10.4297Q11.7578 10.3418 11.8359 10.3418Q11.8945 10.3418 11.9141 10.4102L12.5684 11.9727Q12.8125 12.5488 13.2275 12.8467Q13.6426 13.1445 14.1602 13.1445Q14.873 13.1445 15.4102 12.71Q15.9473 12.2754 15.9473 11.4648Q15.9473 11.25 15.9033 10.9717Q15.8594 10.6934 15.7715 10.4395L14.0527 5.60547Q13.0762 2.86133 11.2793 1.47461Q9.48242 0.0878906 6.89453 0.0878906ZM6.8457 1.43555Q8.89648 1.43555 10.4297 2.48047Q11.9629 3.52539 12.8613 6.02539L14.5898 10.8496Q14.668 11.0742 14.668 11.2891Q14.668 11.543 14.4922 11.7334Q14.3164 11.9238 14.0234 11.9238Q13.5742 11.9238 13.3496 11.3867L12.0215 8.41797Q11.8555 8.05664 11.6357 7.91504Q11.416 7.77344 11.1621 7.77344Q10.8496 7.77344 10.6543 7.99316Q10.459 8.21289 10.459 8.54492L10.459 18.6719Q10.459 18.9844 10.2686 19.1797Q10.0781 19.375 9.77539 19.375Q9.47266 19.375 9.28711 19.1797Q9.10156 18.9844 9.10156 18.6719L9.10156 11.4453Q9.10156 11.1816 8.91113 11.0107Q8.7207 10.8398 8.4668 10.8398Q8.22266 10.8398 8.04199 11.0107Q7.86133 11.1816 7.86133 11.4453L7.86133 14.043Q7.58789 14.1699 7.27539 14.1699Q6.91406 14.1699 6.7041 13.9502Q6.49414 13.7305 6.49414 13.3398L6.49414 11.0742Q6.49414 10.8008 6.30371 10.6348Q6.11328 10.4688 5.86914 10.4688Q5.625 10.4688 5.43945 10.6348Q5.25391 10.8008 5.25391 11.0742L5.25391 12.9199Q4.98047 13.0469 4.67773 13.0469Q4.30664 13.0469 4.10156 12.8223Q3.89648 12.5977 3.89648 12.2168L3.89648 10.6934Q3.89648 10.4297 3.70605 10.2637Q3.51562 10.0977 3.26172 10.0977Q3.02734 10.0977 2.8418 10.2637Q2.65625 10.4297 2.65625 10.6934L2.65625 11.8164Q2.00195 11.8164 1.64551 11.1768Q1.28906 10.5371 1.28906 9.36523L1.28906 7.58789Q1.28906 5.625 1.95801 4.24805Q2.62695 2.87109 3.87695 2.15332Q5.12695 1.43555 6.8457 1.43555Z" fill="#007aff"/>
 </g>
</svg>
