<?xml version="1.0" encoding="UTF-8"?>
<!--Generator: Apple Native CoreSVG 175-->
<!DOCTYPE svg
PUBLIC "-//W3C//DTD SVG 1.1//EN"
       "http://www.w3.org/Graphics/SVG/1.1/DTD/svg11.dtd">
<svg version="1.1" xmlns="http://www.w3.org/2000/svg" xmlns:xlink="http://www.w3.org/1999/xlink" width="19.1602" height="19.1504">
 <g>
  <rect height="19.1504" opacity="0" width="19.1602" x="0" y="0"/>
  <path d="M9.57031 19.1406Q11.5527 19.1406 13.2861 18.3984Q15.0195 17.6562 16.3379 16.333Q17.6562 15.0098 18.4082 13.2764Q19.1602 11.543 19.1602 9.57031Q19.1602 7.59766 18.4082 5.86426Q17.6562 4.13086 16.3379 2.80762Q15.0195 1.48438 13.2861 0.742188Q11.5527 0 9.57031 0Q7.59766 0 5.86426 0.742188Q4.13086 1.48438 2.81738 2.80762Q1.50391 4.13086 0.751953 5.86426Q0 7.59766 0 9.57031Q0 11.543 0.74707 13.2764Q1.49414 15.0098 2.8125 16.333Q4.13086 17.6562 5.86914 18.3984Q7.60742 19.1406 9.57031 19.1406ZM9.57031 18.3984Q7.74414 18.3984 6.14746 17.71Q4.55078 17.0215 3.33496 15.8105Q2.11914 14.5996 1.43555 12.998Q0.751953 11.3965 0.751953 9.57031Q0.751953 7.74414 1.43555 6.14258Q2.11914 4.54102 3.33496 3.3252Q4.55078 2.10938 6.14746 1.4209Q7.74414 0.732422 9.57031 0.732422Q11.4062 0.732422 13.0029 1.4209Q14.5996 2.10938 15.8154 3.3252Q17.0312 4.54102 17.7197 6.14258Q18.4082 7.74414 18.4082 9.57031Q18.4082 11.3965 17.7246 12.998Q17.041 14.5996 15.8252 15.8105Q14.6094 17.0215 13.0078 17.71Q11.4062 18.3984 9.57031 18.3984ZM15 7.7832Q15 6.99219 14.707 6.31836Q14.4141 5.64453 13.8965 5.24414Q13.3789 4.84375 12.7051 4.84375L11.5137 4.84375Q12.3047 5.3418 12.6807 6.12305Q13.0566 6.9043 13.0371 7.85156Q13.0273 8.93555 12.7051 9.62891Q12.3828 10.3223 12.0801 10.7715L12.9199 10.7715Q13.5156 10.7715 13.9893 10.376Q14.4629 9.98047 14.7314 9.30176Q15 8.62305 15 7.7832ZM12.5488 7.8418Q12.5488 6.8457 12.0557 6.05469Q11.5625 5.26367 10.6396 4.7998Q9.7168 4.33594 8.45703 4.33594L7.72461 4.32617Q7.1875 4.32617 6.80664 4.35547Q6.42578 4.38477 6.21094 4.45312Q5.89844 4.53125 5.62988 4.74121Q5.36133 4.95117 5.36133 5.33203Q5.36133 5.48828 5.40527 5.60547Q5.44922 5.72266 5.49805 5.81055Q5.55664 5.91797 5.46875 5.95703Q5.21484 6.07422 5.03418 6.29883Q4.85352 6.52344 4.85352 6.83594Q4.85352 7.02148 4.90234 7.18262Q4.95117 7.34375 5.03906 7.45117Q5.13672 7.57812 5 7.66602Q4.58984 7.89062 4.58984 8.4668Q4.58984 8.65234 4.64355 8.83789Q4.69727 9.02344 4.80469 9.11133Q4.91211 9.20898 4.77539 9.31641Q4.51172 9.55078 4.51172 10.0195Q4.51172 10.4102 4.78027 10.6934Q5.04883 10.9766 5.44922 10.9766L7.36328 10.9766Q7.72461 10.9766 7.94922 11.1475Q8.17383 11.3184 8.17383 11.6113Q8.17383 11.9824 7.94434 12.5098Q7.71484 13.0371 7.48535 13.5986Q7.25586 14.1602 7.25586 14.6387Q7.25586 15 7.4707 15.21Q7.68555 15.4199 8.00781 15.4199Q8.30078 15.4199 8.47168 15.2441Q8.64258 15.0684 8.79883 14.7559Q9.39453 13.5742 10.1416 12.6123Q10.8887 11.6504 11.4941 10.8301Q12.0215 10.1367 12.2852 9.46777Q12.5488 8.79883 12.5488 7.8418Z" fill="#007aff"/>
 </g>
</svg>
