<?xml version="1.0" encoding="UTF-8"?>
<!--Generator: Apple Native CoreSVG 175.5-->
<!DOCTYPE svg
PUBLIC "-//W3C//DTD SVG 1.1//EN"
       "http://www.w3.org/Graphics/SVG/1.1/DTD/svg11.dtd">
<svg version="1.1" xmlns="http://www.w3.org/2000/svg" xmlns:xlink="http://www.w3.org/1999/xlink" width="19.248" height="20.5566">
 <g>
  <rect height="20.5566" opacity="0" width="19.248" x="0" y="0"/>
  <path d="M0 13.7402Q0 15.1855 0.551758 16.3916Q1.10352 17.5977 2.06055 18.3252Q3.01758 19.0527 4.22852 19.0527L5.94727 19.0527Q4.62891 18.0859 4.04785 16.6895Q3.4668 15.293 3.4668 13.6426Q3.4668 12.4219 3.74023 11.4307Q4.01367 10.4395 4.42871 9.68262Q4.84375 8.92578 5.26367 8.39844L3.86719 8.39844Q2.77344 8.39844 1.89941 9.10645Q1.02539 9.81445 0.512695 11.0254Q0 12.2363 0 13.7402ZM4.81445 13.6621Q4.81445 15 5.31738 16.1523Q5.82031 17.3047 6.77246 18.1641Q7.72461 19.0234 9.08203 19.502Q10.4395 19.9805 12.1387 19.9805L13.4668 19.9805Q14.4141 19.9805 15.1074 19.917Q15.8008 19.8535 16.1914 19.7461Q16.7578 19.5996 17.2217 19.2334Q17.6855 18.8672 17.6855 18.1738Q17.6855 17.8906 17.6221 17.6807Q17.5586 17.4707 17.4707 17.3145Q17.3438 17.1094 17.5293 17.041Q17.9785 16.8555 18.3057 16.4404Q18.6328 16.0254 18.6328 15.4492Q18.6328 14.7852 18.291 14.3555Q18.1152 14.1211 18.3789 13.9746Q18.7012 13.7793 18.9111 13.3984Q19.1211 13.0176 19.1211 12.5391Q19.1211 12.1973 19.0137 11.8701Q18.9062 11.543 18.7207 11.3672Q18.5254 11.1914 18.75 10.9863Q18.9746 10.791 19.1113 10.4688Q19.248 10.1465 19.248 9.73633Q19.248 9.26758 19.0234 8.87695Q18.7988 8.48633 18.418 8.25684Q18.0371 8.02734 17.5488 8.02734L14.1113 8.02734Q13.4668 8.02734 13.0664 7.71484Q12.666 7.40234 12.666 6.85547Q12.666 6.36719 12.9102 5.70801Q13.1543 5.04883 13.4766 4.30664Q13.7988 3.56445 14.0479 2.82227Q14.2969 2.08008 14.2969 1.43555Q14.2969 0.751953 13.9111 0.375977Q13.5254 0 12.9492 0Q12.4219 0 12.1191 0.332031Q11.8164 0.664062 11.5332 1.21094Q10.4492 3.32031 9.11133 5.06348Q7.77344 6.80664 6.66992 8.27148Q6.04492 9.10156 5.62988 9.90234Q5.21484 10.7031 5.01465 11.6113Q4.81445 12.5195 4.81445 13.6621Z" fill="#007aff"/>
 </g>
</svg>
