<?xml version="1.0" encoding="UTF-8"?>
<!--Generator: Apple Native CoreSVG 175.5-->
<!DOCTYPE svg
PUBLIC "-//W3C//DTD SVG 1.1//EN"
       "http://www.w3.org/Graphics/SVG/1.1/DTD/svg11.dtd">
<svg version="1.1" xmlns="http://www.w3.org/2000/svg" xmlns:xlink="http://www.w3.org/1999/xlink" width="15.9473" height="22.2363">
 <g>
  <rect height="22.2363" opacity="0" width="15.9473" x="0" y="0"/>
  <path d="M6.9043 21.2598Q9.48242 21.2598 11.2793 19.873Q13.0762 18.4863 14.0527 15.7422L15.7715 10.9082Q15.9473 10.4102 15.9473 9.96094Q15.9473 9.18945 15.4297 8.69629Q14.9121 8.20312 14.1699 8.20312Q13.6621 8.20312 13.2324 8.50098Q12.8027 8.79883 12.5586 9.375L11.9238 10.9375Q11.8945 11.0059 11.8359 11.0059Q11.7676 11.0059 11.7676 10.918L11.7676 3.08594Q11.7676 2.22656 11.2744 1.72363Q10.7812 1.2207 9.96094 1.2207Q9.6582 1.2207 9.39453 1.32324Q9.13086 1.42578 8.92578 1.62109Q8.82812 0.869141 8.36914 0.43457Q7.91016 0 7.1875 0Q6.47461 0 6.00586 0.439453Q5.53711 0.878906 5.42969 1.60156Q5.04883 1.2207 4.48242 1.2207Q3.7207 1.2207 3.25684 1.71387Q2.79297 2.20703 2.79297 3.01758L2.79297 4.10156Q2.59766 3.89648 2.31445 3.78906Q2.03125 3.68164 1.71875 3.68164Q0.957031 3.68164 0.478516 4.18945Q0 4.69727 0 5.52734L0 13.916Q0 16.2012 0.864258 17.8467Q1.72852 19.4922 3.28125 20.376Q4.83398 21.2598 6.9043 21.2598ZM6.85547 19.9121Q5.12695 19.9121 3.88184 19.1943Q2.63672 18.4766 1.96289 17.0996Q1.28906 15.7227 1.28906 13.7598L1.28906 5.66406Q1.28906 5.35156 1.47461 5.15625Q1.66016 4.96094 1.96289 4.96094Q2.26562 4.96094 2.46094 5.15625Q2.65625 5.35156 2.65625 5.66406L2.65625 10.6543Q2.65625 10.918 2.8418 11.0889Q3.02734 11.2598 3.26172 11.2598Q3.51562 11.2598 3.70605 11.0889Q3.89648 10.918 3.89648 10.6543L3.89648 3.19336Q3.89648 2.88086 4.07715 2.68066Q4.25781 2.48047 4.56055 2.48047Q4.86328 2.48047 5.05859 2.68066Q5.25391 2.88086 5.25391 3.19336L5.25391 10.1562Q5.25391 10.4199 5.43945 10.5908Q5.625 10.7617 5.86914 10.7617Q6.11328 10.7617 6.30371 10.5908Q6.49414 10.4199 6.49414 10.1562L6.49414 1.98242Q6.49414 1.66992 6.68945 1.46484Q6.88477 1.25977 7.1875 1.25977Q7.48047 1.25977 7.6709 1.46484Q7.86133 1.66992 7.86133 1.98242L7.86133 10.1562Q7.86133 10.4102 8.04199 10.5859Q8.22266 10.7617 8.47656 10.7617Q8.73047 10.7617 8.91602 10.5859Q9.10156 10.4102 9.10156 10.1562L9.10156 3.19336Q9.10156 2.88086 9.29199 2.68066Q9.48242 2.48047 9.78516 2.48047Q10.0879 2.48047 10.2783 2.68066Q10.4688 2.88086 10.4688 3.19336L10.4688 12.8027Q10.4688 13.1641 10.6641 13.3691Q10.8594 13.5742 11.1621 13.5742Q11.4258 13.5742 11.6455 13.4375Q11.8652 13.3008 12.0312 12.9297L13.4375 9.79492Q13.5742 9.47266 13.8232 9.36523Q14.0723 9.25781 14.3262 9.35547Q14.6094 9.46289 14.6924 9.7168Q14.7754 9.9707 14.6484 10.332L12.8613 15.3223Q11.9629 17.8223 10.4297 18.8672Q8.89648 19.9121 6.85547 19.9121Z" fill="#0a84ff"/>
 </g>
</svg>
