<?xml version="1.0" encoding="UTF-8"?>
<!--Generator: Apple Native CoreSVG 175-->
<!DOCTYPE svg
PUBLIC "-//W3C//DTD SVG 1.1//EN"
       "http://www.w3.org/Graphics/SVG/1.1/DTD/svg11.dtd">
<svg version="1.1" xmlns="http://www.w3.org/2000/svg" xmlns:xlink="http://www.w3.org/1999/xlink" width="14.6747" height="20.6754">
 <g>
  <rect height="20.6754" opacity="0" width="14.6747" x="0" y="0"/>
  <path d="M6.27151 20.0644Q8.60352 20.0644 10.2422 18.8289Q11.881 17.5934 12.7098 15.2499L14.534 10.0714Q14.6747 9.70001 14.6747 9.32114Q14.6747 8.6972 14.252 8.2814Q13.8293 7.8656 13.1856 7.8656Q12.7551 7.8656 12.3711 8.14232Q11.9872 8.41904 11.7641 8.97415L10.6793 11.7108Q10.643 11.7932 10.5774 11.7932Q10.509 11.7932 10.509 11.7053L10.509 2.75543Q10.509 2.0015 10.0932 1.57242Q9.67743 1.14334 9.0329 1.14334Q8.73016 1.14334 8.46298 1.25641Q8.1958 1.36948 7.99774 1.59988Q7.97028 0.897217 7.57812 0.448608Q7.18597 0 6.51245 0Q5.83481 0 5.41176 0.46051Q4.98871 0.921021 4.95865 1.59454Q4.57779 1.14334 3.94104 1.14334Q3.31284 1.14334 2.90527 1.56967Q2.49771 1.996 2.49771 2.74338L2.49771 4.08035Q2.29538 3.8472 2.0192 3.73978Q1.74301 3.63235 1.44455 3.63235Q0.809326 3.63235 0.404663 4.0593Q0 4.48624 0 5.23895L0 13.3817Q0 15.6105 0.822067 17.0943Q1.64413 18.5782 3.06328 19.3213Q4.48242 20.0644 6.27151 20.0644ZM6.2648 19.4058Q4.64188 19.4058 3.37563 18.7337Q2.10938 18.0617 1.38634 16.7164Q0.6633 15.3711 0.6633 13.3519L0.6633 5.27023Q0.6633 4.81018 0.887527 4.53049Q1.11176 4.25079 1.53397 4.25079Q1.94916 4.25079 2.20779 4.53049Q2.46643 4.81018 2.46643 5.27023L2.46643 10.0566Q2.46643 10.271 2.5676 10.3646Q2.66876 10.4582 2.79068 10.4582Q2.92496 10.4582 3.02399 10.3646Q3.12302 10.271 3.12302 10.0566L3.12302 2.77847Q3.12302 2.32529 3.34587 2.0443Q3.56873 1.76331 3.99109 1.76331Q4.40628 1.76331 4.66484 2.0443Q4.9234 2.32529 4.9234 2.77847L4.9234 9.55856Q4.9234 9.77295 5.02457 9.86656Q5.12573 9.96017 5.2504 9.96017Q5.38208 9.96017 5.48111 9.86656Q5.58014 9.77295 5.58014 9.55856L5.58014 1.67999Q5.58014 1.21994 5.83519 0.919952Q6.09024 0.619965 6.51245 0.619965Q6.90399 0.619965 7.14363 0.919952Q7.38327 1.21994 7.38327 1.67999L7.38327 9.56558Q7.38327 9.72809 7.46193 9.84413Q7.54059 9.96017 7.71011 9.96017Q7.8656 9.96017 7.94922 9.84413Q8.03284 9.72809 8.03284 9.56558L8.03284 2.77847Q8.03284 2.32529 8.2901 2.0443Q8.54736 1.76331 8.96957 1.76331Q9.38477 1.76331 9.61037 2.0443Q9.83597 2.32529 9.83597 2.77847L9.83597 12.1558Q9.83597 12.4329 10.0066 12.5851Q10.1773 12.7374 10.4169 12.7374Q10.6313 12.7374 10.7912 12.6324Q10.9512 12.5273 11.0539 12.2757L12.3125 9.19724Q12.4915 8.75549 12.8072 8.58475Q13.123 8.414 13.4825 8.54691Q13.8641 8.67538 13.9752 9.02069Q14.0863 9.366 13.9243 9.81171L12.0949 15.0269Q11.3441 17.1613 9.8391 18.2835Q8.33405 19.4058 6.2648 19.4058Z" fill="#0a84ff"/>
 </g>
</svg>
