<?xml version="1.0" encoding="UTF-8"?>
<!--Generator: Apple Native CoreSVG 175-->
<!DOCTYPE svg
PUBLIC "-//W3C//DTD SVG 1.1//EN"
       "http://www.w3.org/Graphics/SVG/1.1/DTD/svg11.dtd">
<svg version="1.1" xmlns="http://www.w3.org/2000/svg" xmlns:xlink="http://www.w3.org/1999/xlink" width="16.9264" height="22.359">
 <g>
  <rect height="22.359" opacity="0" width="16.9264" x="0" y="0"/>
  <path d="M4.10934 0Q3.25821 0 2.51366 0.317535Q1.7691 0.635071 1.20567 1.19858Q0.642242 1.76208 0.321121 2.50526Q0 3.24844 0 4.09531Q0 4.80972 0.235367 5.47287Q0.470734 6.13602 0.908203 6.67221Q0.978851 6.75552 1.05721 6.79222Q1.13556 6.82892 1.20895 6.82892Q1.33362 6.82892 1.43127 6.74866Q1.52893 6.6684 1.54556 6.54373Q1.56219 6.41907 1.45554 6.29456Q1.07895 5.84686 0.869751 5.28069Q0.660553 4.71451 0.660553 4.09531Q0.660553 3.14133 1.1264 2.36458Q1.59225 1.58783 2.37389 1.12419Q3.15552 0.660553 4.10934 0.660553Q5.0563 0.660553 5.83305 1.12419Q6.6098 1.58783 7.07214 2.36816Q7.53448 3.1485 7.53448 4.09531Q7.53448 4.14139 7.53448 4.17267Q7.53448 4.20395 7.53448 4.23706Q7.53708 4.41452 7.63611 4.49203Q7.73514 4.56955 7.85004 4.56955Q8.0043 4.56955 8.09555 4.47441Q8.1868 4.37927 8.19229 4.245Q8.19504 4.21448 8.19504 4.18129Q8.19504 4.1481 8.19504 4.09531Q8.19504 2.96555 7.64267 2.03644Q7.0903 1.10733 6.16119 0.553665Q5.23209 0 4.10934 0ZM12.8001 19.5052Q14.6938 18.8176 15.7291 17.6426Q16.7645 16.4676 16.9051 14.8041Q17.0457 13.1406 16.2575 10.9738L15.7211 9.50424Q15.4352 8.7149 14.9979 8.23441Q14.5605 7.75391 14.0759 7.58514Q13.5912 7.41638 13.1517 7.57965Q12.8462 7.68982 12.9536 7.98279L13.2817 8.88351Q13.3443 9.05151 13.2956 9.17595Q13.2469 9.30038 13.1372 9.34067Q13.0247 9.38522 12.9087 9.32053Q12.7927 9.25583 12.7371 9.08081L12.5024 8.45352Q12.2458 7.74063 11.6808 7.45743Q11.1157 7.17422 10.5005 7.39883Q9.96338 7.59415 10.1364 8.0629L10.5692 9.24683Q10.6247 9.41483 10.5809 9.53926Q10.5371 9.6637 10.4274 9.70398Q10.3122 9.74838 10.1975 9.68513Q10.0829 9.62189 10.0177 9.45114L9.61685 8.34808Q9.3309 7.5473 8.77914 7.31155Q8.22739 7.07581 7.63168 7.2934Q7.09457 7.48871 7.26334 7.95746L8.06458 10.164Q8.12698 10.332 8.07976 10.4543Q8.03253 10.5766 7.92267 10.614Q7.80746 10.6586 7.69279 10.5953Q7.57812 10.5321 7.52274 10.3613L5.12421 3.77808Q4.93866 3.27026 4.55803 3.0806Q4.1774 2.89093 3.74771 3.04718Q3.31406 3.20618 3.13126 3.60016Q2.94846 3.99414 3.134 4.50195L6.44424 13.5864Q6.49841 13.7367 6.43494 13.8524Q6.37146 13.968 6.26144 14.0071Q6.03836 14.081 5.82809 13.8582L3.40271 11.3246Q3.11249 11.0246 2.83142 10.957Q2.55035 10.8894 2.28012 10.9856Q1.79733 11.1586 1.65672 11.5268Q1.51611 11.895 1.66687 12.2926Q1.71143 12.4278 1.78246 12.5414Q1.85349 12.655 1.9458 12.7669L5.14694 16.8602Q6.75827 18.9133 8.76839 19.5779Q10.7785 20.2426 12.8001 19.5052Z" fill="#000000"/>
 </g>
</svg>
