<?xml version="1.0" encoding="UTF-8"?>
<!--Generator: Apple Native CoreSVG 175-->
<!DOCTYPE svg
PUBLIC "-//W3C//DTD SVG 1.1//EN"
       "http://www.w3.org/Graphics/SVG/1.1/DTD/svg11.dtd">
<svg version="1.1" xmlns="http://www.w3.org/2000/svg" xmlns:xlink="http://www.w3.org/1999/xlink" width="17.2894" height="17.323">
 <g>
  <rect height="17.323" opacity="0" width="17.2894" x="0" y="0"/>
  <path d="M2.63046 17.323L14.6519 17.323Q15.9532 17.323 16.6213 16.6505Q17.2894 15.9781 17.2894 14.6965L17.2894 2.66006Q17.2894 1.37848 16.6213 0.706024Q15.9532 0.0335693 14.6519 0.0335693L2.63046 0.0335693Q1.33636 0.0335693 0.668182 0.699005Q0 1.36444 0 2.66006L0 14.6965Q0 15.9921 0.668182 16.6576Q1.33636 17.323 2.63046 17.323Z" fill="#0a84ff"/>
  <path d="M4.62143 10.575L4.62143 5.1355Q4.62143 4.91409 4.78516 4.75037Q4.94888 4.58664 5.18005 4.58664Q5.40588 4.58664 5.56953 4.75037Q5.73318 4.91409 5.73318 5.1355L5.73318 8.45505Q5.86884 8.35159 6.02814 8.25508Q6.18744 8.15857 6.38046 8.0719L6.38046 3.26447Q6.38046 3.03589 6.54633 2.87498Q6.71219 2.71408 6.93359 2.71408Q7.16217 2.71408 7.32933 2.87498Q7.49649 3.03589 7.49649 3.26447L7.49649 7.70813Q7.67273 7.67456 7.86293 7.65289Q8.05313 7.63123 8.24341 7.61871L8.24341 2.59064Q8.24341 2.36481 8.40782 2.19765Q8.57224 2.03049 8.80356 2.03049Q9.02771 2.03049 9.18869 2.19765Q9.34967 2.36481 9.34967 2.59064L9.34967 7.68433Q9.51874 7.73041 9.67598 7.78709Q9.83322 7.84378 9.9855 7.90817L9.9855 3.71445Q9.9855 3.48587 10.1465 3.32359Q10.3075 3.16132 10.5386 3.16132Q10.7645 3.16132 10.9267 3.32359Q11.089 3.48587 11.089 3.71445L11.089 9.69955Q11.089 9.93469 11.1919 10.0355Q11.2949 10.1363 11.4391 10.1363Q11.5497 10.1363 11.6575 10.065Q11.7653 9.99374 11.852 9.77966L12.6372 7.85004Q12.7438 7.59445 12.8956 7.4884Q13.0473 7.38235 13.2277 7.38235Q13.4325 7.38235 13.5809 7.50916Q13.7292 7.63596 13.7292 7.85889Q13.7292 7.95151 13.6959 8.09883Q13.6626 8.24615 13.6086 8.41599Q13.475 8.93433 13.3366 9.4426Q13.1981 9.95087 13.0485 10.451Q12.8989 10.9512 12.7374 11.4301Q12.1883 13.1934 11.1326 13.9693Q10.0769 14.7453 8.64059 14.7453Q7.52228 14.7453 6.60919 14.2824Q5.69611 13.8194 5.15877 12.8896Q4.62143 11.9597 4.62143 10.575Z" fill="#ffffff"/>
 </g>
</svg>
