<?xml version="1.0" encoding="UTF-8"?>
<!--Generator: Apple Native CoreSVG 175.5-->
<!DOCTYPE svg
PUBLIC "-//W3C//DTD SVG 1.1//EN"
       "http://www.w3.org/Graphics/SVG/1.1/DTD/svg11.dtd">
<svg version="1.1" xmlns="http://www.w3.org/2000/svg" xmlns:xlink="http://www.w3.org/1999/xlink" width="15.5664" height="21.5723">
 <g>
  <rect height="21.5723" opacity="0" width="15.5664" x="0" y="0"/>
  <path d="M0 14.0234Q0 15.6445 0.498047 16.9141Q0.996094 18.1836 1.89453 19.0674Q2.79297 19.9512 4.01855 20.415Q5.24414 20.8789 6.69922 20.8789Q9.02344 20.8789 10.5371 19.9023Q12.0508 18.9258 13.0078 16.9727Q13.291 16.4258 13.5449 15.8301Q13.7988 15.2344 14.0332 14.585Q14.2676 13.9355 14.4922 13.2324Q14.7168 12.5293 14.9512 11.7773Q15.0781 11.3672 15.2197 10.9131Q15.3613 10.459 15.4639 10.0684Q15.5664 9.67773 15.5664 9.44336Q15.5664 9.05273 15.3076 8.80859Q15.0488 8.56445 14.6289 8.56445Q14.1699 8.56445 13.8525 8.87695Q13.5352 9.18945 13.1934 9.88281L11.8359 12.7344Q11.7383 12.9688 11.6211 13.0664Q11.5039 13.1641 11.3867 13.1641Q11.2305 13.1641 11.1377 13.0615Q11.0449 12.959 11.0449 12.7051L11.0449 2.46094Q11.0449 2.03125 10.7373 1.72363Q10.4297 1.41602 10 1.41602Q9.57031 1.41602 9.2627 1.72363Q8.95508 2.03125 8.95508 2.46094L8.95508 9.78516Q8.75 9.70703 8.53516 9.64844Q8.32031 9.58984 8.08594 9.55078L8.08594 1.05469Q8.08594 0.615234 7.77832 0.307617Q7.4707 0 7.04102 0Q6.60156 0 6.29395 0.307617Q5.98633 0.615234 5.98633 1.05469L5.98633 9.44336Q5.76172 9.46289 5.52734 9.49219Q5.29297 9.52148 5.06836 9.56055L5.06836 1.88477Q5.06836 1.45508 4.76074 1.14746Q4.45312 0.839844 4.02344 0.839844Q3.59375 0.839844 3.28613 1.14746Q2.97852 1.45508 2.97852 1.88477L2.97852 10.2246Q2.73438 10.3418 2.51465 10.4688Q2.29492 10.5957 2.09961 10.7227L2.09961 4.92188Q2.09961 4.49219 1.79199 4.18457Q1.48438 3.87695 1.05469 3.87695Q0.615234 3.87695 0.307617 4.18457Q0 4.49219 0 4.92188Z" fill="#0a84ff"/>
 </g>
</svg>
