<?xml version="1.0" encoding="UTF-8"?>
<!--Generator: Apple Native CoreSVG 175.5-->
<!DOCTYPE svg
PUBLIC "-//W3C//DTD SVG 1.1//EN"
       "http://www.w3.org/Graphics/SVG/1.1/DTD/svg11.dtd">
<svg version="1.1" xmlns="http://www.w3.org/2000/svg" xmlns:xlink="http://www.w3.org/1999/xlink" width="19.9219" height="19.9316">
 <g>
  <rect height="19.9316" opacity="0" width="19.9219" x="0" y="0"/>
  <path d="M9.96094 19.9219Q12.002 19.9219 13.8037 19.1406Q15.6055 18.3594 16.9824 16.9824Q18.3594 15.6055 19.1406 13.8037Q19.9219 12.002 19.9219 9.96094Q19.9219 7.91992 19.1406 6.11816Q18.3594 4.31641 16.9824 2.93945Q15.6055 1.5625 13.7988 0.78125Q11.9922 0 9.95117 0Q7.91016 0 6.1084 0.78125Q4.30664 1.5625 2.93457 2.93945Q1.5625 4.31641 0.78125 6.11816Q0 7.91992 0 9.96094Q0 12.002 0.78125 13.8037Q1.5625 15.6055 2.93945 16.9824Q4.31641 18.3594 6.11816 19.1406Q7.91992 19.9219 9.96094 19.9219ZM9.96094 18.2617Q8.23242 18.2617 6.72852 17.6172Q5.22461 16.9727 4.08691 15.835Q2.94922 14.6973 2.30957 13.1934Q1.66992 11.6895 1.66992 9.96094Q1.66992 8.23242 2.30957 6.72852Q2.94922 5.22461 4.08203 4.08203Q5.21484 2.93945 6.71875 2.2998Q8.22266 1.66016 9.95117 1.66016Q11.6797 1.66016 13.1885 2.2998Q14.6973 2.93945 15.835 4.08203Q16.9727 5.22461 17.6172 6.72852Q18.2617 8.23242 18.2617 9.96094Q18.2617 11.6895 17.6221 13.1934Q16.9824 14.6973 15.8398 15.835Q14.6973 16.9727 13.1934 17.6172Q11.6895 18.2617 9.96094 18.2617Z" fill="#0a84ff"/>
  <path d="M6.05469 11.6895Q6.05469 12.9297 6.55273 13.8281Q7.05078 14.7266 7.93457 15.21Q8.81836 15.6934 9.96094 15.6934Q11.2598 15.6934 12.1631 15.1465Q13.0664 14.5996 13.6621 13.3789Q13.877 12.959 14.0625 12.4854Q14.248 12.0117 14.4238 11.4795Q14.5996 10.9473 14.7754 10.3711Q14.8828 10.0098 15.0049 9.62402Q15.127 9.23828 15.127 9.0332Q15.127 8.79883 14.9707 8.65234Q14.8145 8.50586 14.5703 8.50586Q14.2969 8.50586 14.1064 8.68652Q13.916 8.86719 13.7207 9.26758L12.9297 10.9375Q12.8711 11.0645 12.8076 11.1182Q12.7441 11.1719 12.6855 11.1719Q12.5977 11.1719 12.5488 11.1133Q12.5 11.0547 12.5 10.9277L12.5 4.98047Q12.5 4.72656 12.3145 4.54102Q12.1289 4.35547 11.875 4.35547Q11.6211 4.35547 11.4404 4.54102Q11.2598 4.72656 11.2598 4.98047L11.2598 9.19922Q11.1426 9.16992 11.0254 9.13086Q10.9082 9.0918 10.7812 9.0625L10.7812 4.15039Q10.7812 3.89648 10.6006 3.71094Q10.4199 3.52539 10.1562 3.52539Q9.90234 3.52539 9.7168 3.71094Q9.53125 3.89648 9.53125 4.15039L9.53125 9.00391Q9.41406 9.02344 9.28711 9.03809Q9.16016 9.05273 9.0332 9.07227L9.0332 4.63867Q9.0332 4.38477 8.84766 4.2041Q8.66211 4.02344 8.4082 4.02344Q8.1543 4.02344 7.96875 4.2041Q7.7832 4.38477 7.7832 4.63867L7.7832 9.47266Q7.64648 9.53125 7.53418 9.59961Q7.42188 9.66797 7.30469 9.73633L7.30469 6.41602Q7.30469 6.15234 7.12402 5.9668Q6.94336 5.78125 6.68945 5.78125Q6.42578 5.78125 6.24023 5.9668Q6.05469 6.15234 6.05469 6.41602Z" fill="#0a84ff"/>
 </g>
</svg>
