<?xml version="1.0" encoding="UTF-8"?>
<!--Generator: Apple Native CoreSVG 175.5-->
<!DOCTYPE svg
PUBLIC "-//W3C//DTD SVG 1.1//EN"
       "http://www.w3.org/Graphics/SVG/1.1/DTD/svg11.dtd">
<svg version="1.1" xmlns="http://www.w3.org/2000/svg" xmlns:xlink="http://www.w3.org/1999/xlink" width="21.7188" height="20.8496">
 <g>
  <rect height="20.8496" opacity="0" width="21.7188" x="0" y="0"/>
  <path d="M6.71875 16.4062Q6.71875 17.7539 7.24609 18.75Q7.77344 19.7461 8.74023 20.2881Q9.70703 20.8301 11.0254 20.8301Q12.4902 20.8301 13.584 20.1855Q14.6777 19.541 15.3711 18.3008L16.25 16.7285Q16.7676 15.791 17.3682 15.0781Q17.9688 14.3652 18.584 13.7695Q19.1992 13.1738 19.7607 12.583Q20.3223 11.9922 20.7617 11.3086Q21.2012 10.625 21.46 9.73633Q21.7188 8.84766 21.7188 7.63672Q21.7188 5.3418 20.7959 3.62793Q19.873 1.91406 18.208 0.957031Q16.543 0 14.3262 0Q12.0508 0 10.3369 0.961914Q8.62305 1.92383 7.6709 3.64746Q6.71875 5.37109 6.71875 7.66602ZM8.19336 16.3086L8.19336 7.66602Q8.19336 5.80078 8.95996 4.40918Q9.72656 3.01758 11.1035 2.24609Q12.4805 1.47461 14.3262 1.47461Q16.1035 1.47461 17.4316 2.24609Q18.7598 3.01758 19.502 4.4043Q20.2441 5.79102 20.2441 7.63672Q20.2441 8.64258 20 9.41406Q19.7559 10.1855 19.3408 10.8057Q18.9258 11.4258 18.3887 11.9873Q17.8516 12.5488 17.2559 13.1396Q16.6602 13.7305 16.0645 14.4385Q15.4688 15.1465 14.9414 16.0742L14.0918 17.5195Q13.5645 18.4277 12.832 18.8721Q12.0996 19.3164 11.0938 19.3164Q9.73633 19.3164 8.96484 18.5107Q8.19336 17.7051 8.19336 16.3086ZM9.7168 13.5742Q9.7168 14.3359 10.2441 14.7949Q10.7715 15.2539 11.6309 15.2539Q12.7344 15.2441 13.418 14.4238Q14.1016 13.6035 14.1016 12.4316Q14.1016 11.582 13.8086 10.9814Q13.5156 10.3809 13.0811 9.92676Q12.6465 9.47266 12.2119 9.0625Q11.7773 8.65234 11.4844 8.20312Q11.1914 7.75391 11.1914 7.1582Q11.1914 6.39648 11.582 5.79102Q11.9727 5.18555 12.6758 4.84375Q13.3789 4.50195 14.3066 4.50195Q15.7324 4.50195 16.582 5.35156Q17.4316 6.20117 17.4316 7.61719Q17.4316 7.91016 17.6465 8.12988Q17.8613 8.34961 18.1641 8.34961Q18.4668 8.34961 18.6865 8.12988Q18.9062 7.91016 18.9062 7.61719Q18.9062 6.24023 18.3301 5.20508Q17.7539 4.16992 16.7188 3.59863Q15.6836 3.02734 14.3066 3.02734Q12.9395 3.02734 11.9043 3.55469Q10.8691 4.08203 10.293 5.01953Q9.7168 5.95703 9.7168 7.1582Q9.7168 7.95898 10.0195 8.51562Q10.3223 9.07227 10.7178 9.48242Q11.1133 9.89258 11.416 10.2295Q11.7188 10.5664 11.7188 10.9277Q11.7188 11.2402 11.5186 11.4307Q11.3184 11.6211 11.0205 11.7822Q10.7227 11.9434 10.4248 12.1484Q10.127 12.3535 9.92188 12.6855Q9.7168 13.0176 9.7168 13.5742Z" fill="#007aff"/>
  <path d="M1.79688 19.9902Q2.5293 19.9902 3.04688 19.4727Q3.56445 18.9551 3.56445 18.2227Q3.56445 17.4805 3.04688 16.9629Q2.5293 16.4453 1.79688 16.4453Q1.03516 16.4453 0.517578 16.958Q0 17.4707 0 18.2227Q0 18.9551 0.522461 19.4727Q1.04492 19.9902 1.79688 19.9902Z" fill="#007aff"/>
  <path d="M1.79688 14.9121Q2.28516 14.9121 2.68555 14.668Q3.08594 14.4238 3.3252 14.0186Q3.56445 13.6133 3.56445 13.1152Q3.56445 12.3828 3.04688 11.8652Q2.5293 11.3477 1.79688 11.3477Q1.29883 11.3477 0.888672 11.5869Q0.478516 11.8262 0.239258 12.2266Q0 12.627 0 13.1152Q0 13.8672 0.517578 14.3896Q1.03516 14.9121 1.79688 14.9121Z" fill="#007aff"/>
  <path d="M1.79688 9.80469Q2.5293 9.80469 3.04688 9.28711Q3.56445 8.76953 3.56445 8.02734Q3.56445 7.27539 3.04688 6.75781Q2.5293 6.24023 1.79688 6.24023Q1.03516 6.24023 0.517578 6.75781Q0 7.27539 0 8.02734Q0 8.76953 0.517578 9.28711Q1.03516 9.80469 1.79688 9.80469Z" fill="#007aff"/>
  <path d="M1.79688 4.70703Q2.5293 4.70703 3.04688 4.18945Q3.56445 3.67188 3.56445 2.92969Q3.56445 2.19727 3.04688 1.67969Q2.5293 1.16211 1.79688 1.16211Q1.04492 1.16211 0.522461 1.67969Q0 2.19727 0 2.92969Q0 3.67188 0.517578 4.18945Q1.03516 4.70703 1.79688 4.70703Z" fill="#007aff"/>
 </g>
</svg>
