<?xml version="1.0" encoding="UTF-8"?>
<!--Generator: Apple Native CoreSVG 175.5-->
<!DOCTYPE svg
PUBLIC "-//W3C//DTD SVG 1.1//EN"
       "http://www.w3.org/Graphics/SVG/1.1/DTD/svg11.dtd">
<svg version="1.1" xmlns="http://www.w3.org/2000/svg" xmlns:xlink="http://www.w3.org/1999/xlink" width="19.9219" height="19.9316">
 <g>
  <rect height="19.9316" opacity="0" width="19.9219" x="0" y="0"/>
  <path d="M9.96094 19.9219Q12.002 19.9219 13.8037 19.1406Q15.6055 18.3594 16.9824 16.9824Q18.3594 15.6055 19.1406 13.8037Q19.9219 12.002 19.9219 9.96094Q19.9219 7.91992 19.1406 6.11816Q18.3594 4.31641 16.9824 2.93945Q15.6055 1.5625 13.7988 0.78125Q11.9922 0 9.95117 0Q7.91016 0 6.1084 0.78125Q4.30664 1.5625 2.93457 2.93945Q1.5625 4.31641 0.78125 6.11816Q0 7.91992 0 9.96094Q0 12.002 0.78125 13.8037Q1.5625 15.6055 2.93945 16.9824Q4.31641 18.3594 6.11816 19.1406Q7.91992 19.9219 9.96094 19.9219Z" fill="#007aff"/>
  <path d="M7.38281 5.68359Q7.5 5.6543 7.61719 5.6543Q8.39844 5.6543 8.99414 6.06445Q9.58984 6.47461 9.96094 7.13867Q10.3223 6.47461 10.9229 6.06445Q11.5234 5.6543 12.3047 5.6543Q13.1348 5.6543 13.7744 6.04004Q14.4141 6.42578 14.7852 7.09473Q15.1562 7.76367 15.1562 8.63281Q15.1562 9.54102 14.7363 10.3857Q14.3164 11.2305 13.6816 11.9922ZM11.9824 13.6523Q11.582 13.9844 11.1865 14.2822Q10.791 14.5801 10.4395 14.834Q10.332 14.9121 10.2002 14.9854Q10.0684 15.0586 9.98047 15.0586Q9.88281 15.0586 9.74121 14.9805Q9.59961 14.9023 9.47266 14.834Q8.86719 14.4629 8.20801 13.96Q7.54883 13.457 6.93848 12.8564Q6.32812 12.2559 5.83496 11.5674Q5.3418 10.8789 5.05371 10.1416Q4.76562 9.4043 4.76562 8.63281Q4.76562 8.13477 4.89258 7.7002Q5.01953 7.26562 5.24414 6.91406ZM14.5605 15.1855L4.7168 5.3418Q4.58984 5.21484 4.58984 5.0293Q4.58984 4.84375 4.7168 4.7168Q4.85352 4.58008 5.03418 4.58008Q5.21484 4.58008 5.35156 4.7168L15.1855 14.5605Q15.3223 14.6875 15.3223 14.8682Q15.3223 15.0488 15.1855 15.1855Q15.0684 15.3125 14.8779 15.3076Q14.6875 15.3027 14.5605 15.1855Z" fill="#ffffff"/>
 </g>
</svg>
