<?xml version="1.0" encoding="UTF-8"?>
<!--Generator: Apple Native CoreSVG 175.5-->
<!DOCTYPE svg
PUBLIC "-//W3C//DTD SVG 1.1//EN"
       "http://www.w3.org/Graphics/SVG/1.1/DTD/svg11.dtd">
<svg version="1.1" xmlns="http://www.w3.org/2000/svg" xmlns:xlink="http://www.w3.org/1999/xlink" width="21.7188" height="20.8496">
 <g>
  <rect height="20.8496" opacity="0" width="21.7188" x="0" y="0"/>
  <path d="M6.71875 16.4062Q6.71875 17.7539 7.24609 18.75Q7.77344 19.7461 8.74023 20.2881Q9.70703 20.8301 11.0254 20.8301Q12.4902 20.8301 13.584 20.1855Q14.6777 19.541 15.3711 18.3008L16.25 16.7285Q16.7676 15.791 17.3682 15.0781Q17.9688 14.3652 18.584 13.7695Q19.1992 13.1738 19.7607 12.583Q20.3223 11.9922 20.7617 11.3086Q21.2012 10.625 21.46 9.73633Q21.7188 8.84766 21.7188 7.63672Q21.7188 5.3418 20.7959 3.62793Q19.873 1.91406 18.208 0.957031Q16.543 0 14.3262 0Q12.0508 0 10.3369 0.961914Q8.62305 1.92383 7.6709 3.64746Q6.71875 5.37109 6.71875 7.66602ZM9.57031 13.7109Q9.57031 13.1445 9.78027 12.7979Q9.99023 12.4512 10.2979 12.2363Q10.6055 12.0215 10.918 11.8555Q11.2305 11.6895 11.4355 11.4941Q11.6406 11.2988 11.6406 10.9766Q11.6406 10.6055 11.3281 10.2539Q11.0156 9.90234 10.6055 9.48242Q10.1953 9.0625 9.88281 8.49121Q9.57031 7.91992 9.57031 7.09961Q9.57031 5.85938 10.166 4.89258Q10.7617 3.92578 11.8262 3.37891Q12.8906 2.83203 14.3066 2.83203Q15.7324 2.83203 16.7969 3.42285Q17.8613 4.01367 18.457 5.07812Q19.0527 6.14258 19.0527 7.56836Q19.0527 7.88086 18.8232 8.10547Q18.5938 8.33008 18.2812 8.33008Q17.9785 8.33008 17.749 8.10547Q17.5195 7.88086 17.5195 7.56836Q17.5195 6.11328 16.6455 5.23926Q15.7715 4.36523 14.3066 4.36523Q13.3496 4.36523 12.627 4.7168Q11.9043 5.06836 11.5039 5.68848Q11.1035 6.30859 11.1035 7.09961Q11.1035 7.71484 11.4062 8.17383Q11.709 8.63281 12.1582 9.05273Q12.6074 9.47266 13.0518 9.94629Q13.4961 10.4199 13.7988 11.0352Q14.1016 11.6504 14.1016 12.5293Q14.1016 13.3301 13.7793 13.9941Q13.457 14.6582 12.8857 15.0537Q12.3145 15.4492 11.5527 15.4492Q10.6641 15.4492 10.1172 14.9707Q9.57031 14.4922 9.57031 13.7109Z" fill="#007aff"/>
  <path d="M1.79688 19.9902Q2.5293 19.9902 3.04688 19.4727Q3.56445 18.9551 3.56445 18.2227Q3.56445 17.4805 3.04688 16.9629Q2.5293 16.4453 1.79688 16.4453Q1.03516 16.4453 0.517578 16.958Q0 17.4707 0 18.2227Q0 18.9551 0.522461 19.4727Q1.04492 19.9902 1.79688 19.9902Z" fill="#007aff"/>
  <path d="M1.79688 14.9121Q2.28516 14.9121 2.68555 14.668Q3.08594 14.4238 3.3252 14.0186Q3.56445 13.6133 3.56445 13.1152Q3.56445 12.3828 3.04688 11.8652Q2.5293 11.3477 1.79688 11.3477Q1.29883 11.3477 0.888672 11.5869Q0.478516 11.8262 0.239258 12.2266Q0 12.627 0 13.1152Q0 13.8672 0.517578 14.3896Q1.03516 14.9121 1.79688 14.9121Z" fill="#007aff"/>
  <path d="M1.79688 9.80469Q2.5293 9.80469 3.04688 9.28711Q3.56445 8.76953 3.56445 8.02734Q3.56445 7.27539 3.04688 6.75781Q2.5293 6.24023 1.79688 6.24023Q1.03516 6.24023 0.517578 6.75781Q0 7.27539 0 8.02734Q0 8.76953 0.517578 9.28711Q1.03516 9.80469 1.79688 9.80469Z" fill="#007aff"/>
  <path d="M1.79688 4.70703Q2.5293 4.70703 3.04688 4.18945Q3.56445 3.67188 3.56445 2.92969Q3.56445 2.19727 3.04688 1.67969Q2.5293 1.16211 1.79688 1.16211Q1.04492 1.16211 0.522461 1.67969Q0 2.19727 0 2.92969Q0 3.67188 0.517578 4.18945Q1.03516 4.70703 1.79688 4.70703Z" fill="#007aff"/>
 </g>
</svg>
