<?xml version="1.0" encoding="UTF-8"?>
<!--Generator: Apple Native CoreSVG 175.5-->
<!DOCTYPE svg
PUBLIC "-//W3C//DTD SVG 1.1//EN"
       "http://www.w3.org/Graphics/SVG/1.1/DTD/svg11.dtd">
<svg version="1.1" xmlns="http://www.w3.org/2000/svg" xmlns:xlink="http://www.w3.org/1999/xlink" width="20.3027" height="20.0979">
 <g>
  <rect height="20.0979" opacity="0" width="20.3027" x="0" y="0"/>
  <path d="M17.0508 14.3702Q18.6035 12.6612 19.4531 10.8741Q20.3027 9.08702 20.3027 7.28038Q20.3027 5.98155 19.8877 4.90245Q19.4727 3.82335 18.7256 3.03233Q17.9785 2.24131 16.9678 1.81163Q15.957 1.38194 14.7656 1.38194Q13.4082 1.38194 12.3389 1.97764Q11.2695 2.57335 10.6055 3.55967Q9.95117 2.57335 8.87695 1.97764Q7.80273 1.38194 6.44531 1.38194Q5.41016 1.38194 4.44336 1.74327L5.75195 3.05186Q6.05469 2.95421 6.42578 2.95421Q7.34375 2.95421 8.01758 3.28135Q8.69141 3.6085 9.16016 4.09678Q9.62891 4.58506 9.94141 5.07335Q10.1465 5.36631 10.2881 5.46885Q10.4297 5.57139 10.6055 5.57139Q10.7812 5.57139 10.918 5.46397Q11.0547 5.35655 11.2695 5.07335Q11.6016 4.59483 12.0752 4.10167Q12.5488 3.6085 13.208 3.28135Q13.8672 2.95421 14.7852 2.95421Q15.918 2.95421 16.8115 3.4962Q17.7051 4.03819 18.2178 5.00987Q18.7305 5.98155 18.7305 7.28038Q18.7305 8.75499 17.9492 10.2687Q17.168 11.7823 15.8984 13.2179ZM14.2578 16.9581L13.1348 15.8351Q12.5781 16.2843 11.9922 16.714Q11.4062 17.1437 10.8105 17.544Q10.6445 17.6612 10.6055 17.6612Q10.5664 17.6612 10.4102 17.544Q8.87695 16.5284 7.45605 15.3126Q6.03516 14.0968 4.91211 12.7589Q3.78906 11.421 3.13477 10.0294Q2.48047 8.6378 2.48047 7.28038Q2.48047 6.78233 2.57324 6.34776Q2.66602 5.91319 2.83203 5.53233L1.62109 4.31163Q1.2793 4.94639 1.09375 5.69346Q0.908203 6.44053 0.908203 7.28038Q0.908203 9.36046 2.00684 11.3966Q3.10547 13.4327 5.12695 15.3614Q7.14844 17.2901 9.90234 19.048Q10.0586 19.1456 10.2588 19.2286Q10.459 19.3116 10.6055 19.3116Q10.7617 19.3116 10.9619 19.2286Q11.1621 19.1456 11.3184 19.048Q12.0996 18.5401 12.8418 18.0128Q13.584 17.4855 14.2578 16.9581Z" fill="#007aff"/>
  <path d="M17.8418 18.8917Q18.0664 19.1163 18.3789 19.1163Q18.6914 19.1163 18.9062 18.8917Q19.1211 18.6671 19.126 18.3595Q19.1309 18.0519 18.9062 17.8273L1.28906 0.21983Q1.06445 0.0049867 0.751953 0.00010389Q0.439453-0.00477892 0.214844 0.21983Q0 0.434674 0 0.752057Q0 1.06944 0.214844 1.28428Z" fill="#007aff"/>
 </g>
</svg>
