<?xml version="1.0" encoding="UTF-8"?>
<!--Generator: Apple Native CoreSVG 175.5-->
<!DOCTYPE svg
PUBLIC "-//W3C//DTD SVG 1.1//EN"
       "http://www.w3.org/Graphics/SVG/1.1/DTD/svg11.dtd">
<svg version="1.1" xmlns="http://www.w3.org/2000/svg" xmlns:xlink="http://www.w3.org/1999/xlink" width="19.7168" height="21.1035">
 <g>
  <rect height="21.1035" opacity="0" width="19.7168" x="0" y="0"/>
  <path d="M1.36719 16.709L8.1543 20.5566Q9.86328 21.5234 11.5625 20.5566L18.3496 16.709Q19.0234 16.3184 19.3701 15.8252Q19.7168 15.332 19.7168 14.2871L19.7168 6.68945Q19.7168 5.67383 19.375 5.20508Q19.0332 4.73633 18.418 4.375L11.6113 0.507812Q10.7324 0 9.86328 0Q8.99414 0 8.10547 0.507812L1.30859 4.375Q0.683594 4.73633 0.341797 5.20508Q0 5.67383 0 6.68945L0 14.2871Q0 15.332 0.351562 15.8252Q0.703125 16.3184 1.36719 16.709Z" fill="#007aff"/>
 </g>
</svg>
