<?xml version="1.0" encoding="UTF-8"?>
<!--Generator: Apple Native CoreSVG 175.5-->
<!DOCTYPE svg
PUBLIC "-//W3C//DTD SVG 1.1//EN"
       "http://www.w3.org/Graphics/SVG/1.1/DTD/svg11.dtd">
<svg version="1.1" xmlns="http://www.w3.org/2000/svg" xmlns:xlink="http://www.w3.org/1999/xlink" width="19.8145" height="21.1429">
 <g>
  <rect height="21.1429" opacity="0" width="19.8145" x="0" y="0"/>
  <path d="M1.39648 16.7971L8.18359 20.6447Q9.91211 21.631 11.6309 20.6447L18.418 16.7971Q19.1016 16.4064 19.458 15.9035Q19.8145 15.4006 19.8145 14.3361L19.8145 6.73846Q19.8145 5.71307 19.4629 5.22967Q19.1113 4.74627 18.4863 4.38494L11.6797 0.517756Q10.7715-0.00958807 9.89746 0.000177557Q9.02344 0.00994318 8.13477 0.517756L1.33789 4.38494Q0.712891 4.74627 0.356445 5.22967Q0 5.71307 0 6.73846L0 14.3361Q0 15.4006 0.361328 15.9035Q0.722656 16.4064 1.39648 16.7971ZM9.91211 1.67987Q10.4297 1.67987 10.9961 2.00213L17.5488 5.7619Q17.9199 5.96697 18.0762 6.20623Q18.2324 6.44549 18.2324 6.81658L18.2324 14.2971Q18.2324 14.6877 18.0713 14.9465Q17.9102 15.2053 17.5 15.4396L10.9961 19.1408Q10.4102 19.4728 9.91211 19.4728Z" fill="#007aff"/>
 </g>
</svg>
