<?xml version="1.0" encoding="UTF-8"?>
<!--Generator: Apple Native CoreSVG 175-->
<!DOCTYPE svg
PUBLIC "-//W3C//DTD SVG 1.1//EN"
       "http://www.w3.org/Graphics/SVG/1.1/DTD/svg11.dtd">
<svg version="1.1" xmlns="http://www.w3.org/2000/svg" xmlns:xlink="http://www.w3.org/1999/xlink" width="20.2017" height="21.3513">
 <g>
  <rect height="21.3513" opacity="0" width="20.2017" x="0" y="0"/>
  <path d="M1.81763 15.8025L6.03043 15.8025L6.03043 13.7985Q5.92651 13.8068 5.75943 13.8068Q4.85825 13.8068 4.09225 13.3624Q3.32626 12.9181 2.86507 12.1542Q2.40387 11.3902 2.40387 10.4512Q2.40387 9.52621 2.86018 8.76373Q3.3165 8.00125 4.07898 7.54852Q4.84146 7.09579 5.75241 7.09579Q5.8371 7.09579 5.8934 7.09854Q5.94971 7.10129 6.03043 7.11105L6.03043 5.69656Q5.92224 5.71884 5.75943 5.71884Q5.02426 5.71884 4.51584 5.19638Q4.00742 4.67392 4.00742 3.95279Q4.00742 3.15323 4.55368 2.67838Q5.09995 2.20352 5.78049 2.19925Q6.1441 2.202 6.47812 2.34207Q6.81213 2.48215 7.05505 2.75284Q7.43942 2.44888 7.94197 2.27859Q8.44452 2.10831 9.104 2.10831L11.4278 2.10831Q11.4278 2.00592 11.425 1.90514Q11.4223 1.80435 11.4223 1.68945Q11.3965 0.908661 10.9107 0.45433Q10.425 0 9.61838 0L1.81763 0Q0.986786 0 0.493393 0.482864Q0 0.965729 0 1.79657L0 13.9934Q0 14.8367 0.493393 15.3196Q0.986786 15.8025 1.81763 15.8025ZM4.56024 3.95279Q4.56024 4.46289 4.92233 4.81232Q5.28442 5.16174 5.75241 5.16174Q5.84106 5.16174 5.92506 5.1432Q6.00906 5.12466 6.04813 5.11368Q6.05896 4.47937 6.19415 4.02863Q6.32935 3.57788 6.66412 3.16956Q6.4946 2.96768 6.2635 2.85927Q6.03241 2.75085 5.78049 2.75085Q5.30121 2.75085 4.93073 3.08212Q4.56024 3.41339 4.56024 3.95279ZM4.11133 10.4512Q4.11133 11.1215 4.58481 11.6118Q5.05829 12.1021 5.75943 12.1091Q5.8371 12.1091 5.91293 12.1036Q5.98877 12.0981 6.03043 12.1024L6.03043 8.81683Q5.99579 8.81134 5.94597 8.8073Q5.89615 8.80325 5.82108 8.80325Q5.1059 8.80325 4.60861 9.28154Q4.11133 9.75983 4.11133 10.4512ZM6.9043 5.20401L6.9043 19.1336Q6.9043 20.213 7.46017 20.7773Q8.01605 21.3416 9.104 21.3416L17.9922 21.3416Q19.0829 21.3416 19.6423 20.7773Q20.2017 20.213 20.2017 19.1336L20.2017 5.20401Q20.2017 4.1008 19.6458 3.54012Q19.09 2.97943 17.9922 2.97943L9.104 2.97943Q8.00903 2.97943 7.45667 3.54012Q6.9043 4.1008 6.9043 5.20401ZM13.5481 18.9626Q12.4782 18.9626 11.5979 18.4401Q10.7176 17.9176 10.1973 17.0325Q9.67697 16.1473 9.67697 15.0703Q9.67697 13.9906 10.1973 13.1091Q10.7176 12.2275 11.5979 11.7085Q12.4782 11.1896 13.5481 11.1966Q14.6251 11.1993 15.5032 11.7183Q16.3814 12.2372 16.9016 13.1139Q17.4219 13.9906 17.4219 15.0703Q17.4219 16.1473 16.9016 17.0325Q16.3814 17.9176 15.5032 18.4401Q14.6251 18.9626 13.5481 18.9626ZM13.5481 9.4017Q12.9848 9.4017 12.5268 9.1333Q12.0688 8.8649 11.797 8.40691Q11.5251 7.94891 11.5251 7.39273Q11.5251 6.82938 11.797 6.37489Q12.0688 5.92041 12.5317 5.65338Q12.9945 5.38635 13.5481 5.38635Q14.1185 5.39612 14.5765 5.66315Q15.0345 5.93018 15.3028 6.38329Q15.5711 6.8364 15.5711 7.39273Q15.5739 7.94891 15.302 8.4034Q15.0302 8.85788 14.5708 9.12979Q14.1113 9.4017 13.5481 9.4017ZM13.5481 16.9836Q14.3594 16.9836 14.9104 16.4286Q15.4614 15.8736 15.4614 15.0703Q15.4614 14.259 14.9104 13.7067Q14.3594 13.1544 13.5481 13.1544Q12.7493 13.1544 12.1921 13.7067Q11.6348 14.259 11.6348 15.0703Q11.6348 15.8736 12.2005 16.4286Q12.7661 16.9836 13.5481 16.9836ZM13.5481 8.81531Q14.1434 8.81531 14.5605 8.39188Q14.9777 7.96844 14.9777 7.39273Q14.9777 6.8071 14.5557 6.39343Q14.1336 5.97977 13.5481 5.97977Q12.9527 5.97977 12.5404 6.38367Q12.1281 6.78757 12.1281 7.39273Q12.1281 7.96844 12.5453 8.39188Q12.9625 8.81531 13.5481 8.81531Z" fill="#007aff"/>
 </g>
</svg>
