<?xml version="1.0" encoding="UTF-8"?>
<!--Generator: Apple Native CoreSVG 175.5-->
<!DOCTYPE svg
PUBLIC "-//W3C//DTD SVG 1.1//EN"
       "http://www.w3.org/Graphics/SVG/1.1/DTD/svg11.dtd">
<svg version="1.1" xmlns="http://www.w3.org/2000/svg" xmlns:xlink="http://www.w3.org/1999/xlink" width="29.1309" height="13.0176">
 <g>
  <rect height="13.0176" opacity="0" width="29.1309" x="0" y="0"/>
  <path d="M3.01758 11.377L26.1035 11.377Q27.6074 11.377 28.3691 10.625Q29.1309 9.87305 29.1309 8.39844L29.1309 2.97852Q29.1309 1.50391 28.3691 0.751953Q27.6074 0 26.1035 0L3.01758 0Q1.5332 0 0.766602 0.751953Q0 1.50391 0 2.97852L0 8.39844Q0 9.87305 0.766602 10.625Q1.5332 11.377 3.01758 11.377ZM5.53711 7.86133Q4.92188 7.86133 4.42871 7.56836Q3.93555 7.27539 3.6377 6.77734Q3.33984 6.2793 3.33984 5.67383Q3.33984 5.05859 3.6377 4.56543Q3.93555 4.07227 4.42871 3.77441Q4.92188 3.47656 5.53711 3.47656Q6.13281 3.47656 6.63086 3.77441Q7.12891 4.07227 7.42188 4.56543Q7.71484 5.05859 7.71484 5.67383Q7.71484 6.2793 7.42188 6.77734Q7.12891 7.27539 6.63086 7.56836Q6.13281 7.86133 5.53711 7.86133ZM10.5273 7.87109Q10.1562 7.87109 9.92676 7.64648Q9.69727 7.42188 9.69727 7.05078L9.69727 4.33594Q9.69727 3.95508 9.92676 3.73047Q10.1562 3.50586 10.5273 3.50586L18.5938 3.50586Q18.9746 3.50586 19.1992 3.73047Q19.4238 3.95508 19.4238 4.33594L19.4238 7.05078Q19.4238 7.42188 19.1992 7.64648Q18.9746 7.87109 18.5938 7.87109ZM23.5938 7.86133Q22.9883 7.86133 22.4951 7.56836Q22.002 7.27539 21.709 6.77734Q21.416 6.2793 21.416 5.67383Q21.416 5.05859 21.709 4.56543Q22.002 4.07227 22.4951 3.77441Q22.9883 3.47656 23.5938 3.47656Q24.1992 3.47656 24.6973 3.77441Q25.1953 4.07227 25.4883 4.56543Q25.7812 5.05859 25.7812 5.67383Q25.7812 6.2793 25.4883 6.77734Q25.1953 7.27539 24.6973 7.56836Q24.1992 7.86133 23.5938 7.86133ZM7.23633 10.7715L2.16797 10.7715L2.16797 12.207Q2.16797 12.5684 2.3877 12.7881Q2.60742 13.0078 2.96875 13.0078L6.43555 13.0078Q6.79688 13.0078 7.0166 12.7881Q7.23633 12.5684 7.23633 12.207ZM21.8945 10.7715L21.8945 12.207Q21.8945 12.5684 22.1094 12.7881Q22.3242 13.0078 22.6953 13.0078L26.1523 13.0078Q26.5234 13.0078 26.7432 12.7881Q26.9629 12.5684 26.9629 12.207L26.9629 10.7715Z" fill="#007aff"/>
 </g>
</svg>
