<?xml version="1.0" encoding="UTF-8"?>
<!--Generator: Apple Native CoreSVG 175-->
<!DOCTYPE svg
PUBLIC "-//W3C//DTD SVG 1.1//EN"
       "http://www.w3.org/Graphics/SVG/1.1/DTD/svg11.dtd">
<svg version="1.1" xmlns="http://www.w3.org/2000/svg" xmlns:xlink="http://www.w3.org/1999/xlink" width="21.8617" height="22.1948">
 <g>
  <rect height="22.1948" opacity="0" width="21.8617" x="0" y="0"/>
  <path d="M1.92978 16.7395L5.61996 16.7395L5.61996 16.0382L1.99814 16.0382Q1.39725 16.0382 1.0527 15.7021Q0.70816 15.3659 0.70816 14.7652L0.70816 1.9812Q0.70816 1.37344 1.0527 1.03729Q1.39725 0.701141 1.99814 0.701141L10.8617 0.701141Q11.4653 0.701141 11.8133 1.03729Q12.1613 1.37344 12.1613 1.9812L12.1613 5.95581Q12.2125 5.95581 12.2594 5.95444Q12.3062 5.95306 12.3602 5.95306L12.8625 5.95306L12.8625 1.92108Q12.8625 1.02921 12.3409 0.514603Q11.8192 0 10.93 0L1.92978 0Q1.04065 0 0.520325 0.514603Q0 1.02921 0 1.92108L0 14.8155Q0 15.7101 0.520325 16.2248Q1.04065 16.7395 1.92978 16.7395ZM2.74811 10.9891Q2.74811 11.8718 3.11958 12.6208Q3.49106 13.3699 4.14284 13.8841Q4.79462 14.3983 5.61996 14.5761Q5.61996 14.0813 5.61996 13.5815Q5.61996 13.0817 5.61996 12.5867Q5.18051 12.3726 4.90997 11.946Q4.63943 11.5195 4.63943 10.9891Q4.63943 10.439 4.93591 9.99702Q5.23239 9.55505 5.70557 9.35349Q5.82031 8.60229 6.04218 8.15369Q6.26404 7.70508 6.56754 7.30927Q6.53397 7.30927 6.50116 7.30927Q6.46835 7.30927 6.43478 7.30927Q5.41061 7.30927 4.57542 7.8054Q3.74023 8.30154 3.24417 9.13666Q2.74811 9.97177 2.74811 10.9891ZM6.43478 6.08551Q7.19727 6.07849 7.75375 5.53963Q8.31024 5.00076 8.3075 4.2128Q8.30475 3.43903 7.75665 2.89452Q7.20856 2.35001 6.43478 2.34726Q5.65399 2.34726 5.10315 2.89314Q4.55231 3.43903 4.55231 4.2128Q4.55231 5.00076 5.1088 5.53963Q5.66528 6.07849 6.43478 6.08551ZM6.43478 5.47653Q5.90347 5.47653 5.53726 5.10681Q5.17105 4.73709 5.17105 4.2128Q5.17105 3.69019 5.53947 3.32535Q5.9079 2.96051 6.43478 2.96051Q6.95633 2.96051 7.32384 3.32809Q7.69135 3.69568 7.69135 4.2128Q7.69135 4.73709 7.32513 5.10681Q6.95892 5.47653 6.43478 5.47653ZM10.4419 22.1715L17.9137 22.1715Q19.0895 22.1715 19.8139 21.9913Q20.5383 21.8112 21.0228 21.3226Q21.4973 20.8382 21.6795 20.1292Q21.8617 19.4203 21.8617 18.2234L21.8617 10.775Q21.8617 9.58511 21.6795 8.86909Q21.4973 8.15308 21.0228 7.67853Q20.5313 7.19681 19.8104 7.01187Q19.0895 6.82693 17.9137 6.82693L10.3563 6.82693Q9.25201 6.82693 8.53813 7.01538Q7.82425 7.20383 7.34268 7.68555Q6.8512 8.17688 6.67114 8.87749Q6.49109 9.57809 6.49109 10.6921L6.49109 18.2234Q6.49109 19.4203 6.67114 20.1328Q6.8512 20.8453 7.34268 21.3226Q7.82425 21.8112 8.54164 21.9913Q9.25903 22.1715 10.4419 22.1715ZM12.7563 15.6093Q12.6685 15.9315 12.4669 16.2796Q12.2653 16.6277 11.9849 16.88Q11.897 16.9582 11.7833 17.014Q11.6696 17.0699 11.5204 17.0699Q11.3739 17.0699 11.2679 17.0294Q11.1618 16.989 11.0349 16.9499Q10.9708 16.9304 10.8563 16.8829Q10.7419 16.8355 10.6192 16.8355Q10.3137 16.8355 10.1317 16.9611Q9.94965 17.0866 9.69574 17.0866Q9.37469 17.0866 9.03168 16.6737Q8.68439 16.2621 8.45764 15.6915Q8.2309 15.121 8.2309 14.5882Q8.2309 14.2491 8.32367 13.9415Q8.41644 13.6339 8.63129 13.3842Q9.00238 12.8987 9.65942 12.8987Q9.96643 12.8987 10.1561 13.0243Q10.3458 13.1499 10.4977 13.1499Q10.6903 13.1499 10.938 13.0194Q11.1856 12.8889 11.5692 12.8889Q12.2583 12.8889 12.6266 13.4261Q12.3895 13.5698 12.2716 13.7288Q12.1536 13.8878 12.1188 14.0273Q12.0547 14.2393 12.0345 14.48Q12.0142 14.7206 12.1188 14.9648Q12.3114 15.421 12.7563 15.6093ZM10.4825 12.7495Q10.47 12.2905 10.7999 11.9048Q11.1298 11.519 11.6208 11.5039Q11.6473 11.7924 11.4973 12.0966Q11.3474 12.4007 11.0823 12.5946Q10.8173 12.7885 10.4825 12.7495ZM15.0107 11.9141L15.0107 12.8889L15.8043 12.8889L15.8043 13.5503L15.0107 13.5503L15.0107 15.8437Q15.0107 16.3737 15.5228 16.3737Q15.5841 16.3737 15.6698 16.3689Q15.7555 16.364 15.7805 16.3374L15.7805 17.0476Q15.7431 17.0476 15.6099 17.0587Q15.4767 17.0699 15.3329 17.0699Q14.6954 17.0699 14.4255 16.8159Q14.1556 16.562 14.1556 15.93L14.1556 13.5503L13.5767 13.5503L13.5767 12.8889L14.1556 12.8889L14.1556 11.9141ZM18.6153 17.0476L17.7281 17.0476L16.1949 12.8889L17.1005 12.8889L18.1563 16.2245L19.1747 12.8889L20.1122 12.8889Z" fill="#007aff"/>
 </g>
</svg>
