<?xml version="1.0" encoding="UTF-8"?>
<!--Generator: Apple Native CoreSVG 175-->
<!DOCTYPE svg
PUBLIC "-//W3C//DTD SVG 1.1//EN"
       "http://www.w3.org/Graphics/SVG/1.1/DTD/svg11.dtd">
<svg version="1.1" xmlns="http://www.w3.org/2000/svg" xmlns:xlink="http://www.w3.org/1999/xlink" width="14.9394" height="19.2896">
 <g>
  <rect height="19.2896" opacity="0" width="14.9394" x="0" y="0"/>
  <path d="M7.47192 19.229Q11.3672 19.229 13.1533 17.8319Q14.9394 16.4348 14.9394 13.3461L14.9394 5.91446Q14.9394 4.91913 14.724 4.19029Q14.5087 3.46146 14.1949 2.97234Q13.8812 2.48322 13.6028 2.19849Q13.441 2.04422 13.2504 2.06116Q13.0598 2.07809 12.9082 2.25388Q12.5168 2.74841 11.7352 3.07053Q10.9535 3.39264 9.86526 3.54988Q8.77701 3.70712 7.47192 3.70712Q6.15982 3.70712 5.07286 3.54988Q3.9859 3.39264 3.20427 3.07053Q2.42264 2.74841 2.03125 2.25388Q1.88675 2.07809 1.69609 2.06116Q1.50543 2.04422 1.34369 2.19849Q1.0582 2.48322 0.746689 2.97234Q0.435181 3.46146 0.21759 4.19029Q0 4.91913 0 5.91446L0 13.3461Q0 16.4348 1.78612 17.8319Q3.57224 19.229 7.47192 19.229ZM7.47192 18.5074Q3.91449 18.5074 2.32155 17.2427Q0.728607 15.9781 0.728607 13.2111L0.728607 5.93216Q0.728607 5.08362 0.951233 4.33678Q1.17386 3.58994 1.72852 2.93167Q2.44293 3.73489 3.92616 4.08173Q5.40939 4.42856 7.47192 4.42856Q9.52728 4.42856 11.0105 4.08173Q12.4937 3.73489 13.2082 2.93167Q13.7656 3.58994 13.9918 4.33678Q14.218 5.08362 14.218 5.93216L14.218 13.2111Q14.218 15.9781 12.6202 17.2427Q11.0223 18.5074 7.47192 18.5074ZM7.47192 2.83325Q8.87619 2.83325 9.94591 2.66022Q11.0156 2.48718 11.617 2.17232Q12.2183 1.85745 12.2183 1.41449Q12.2183 0.9758 11.617 0.660934Q11.0156 0.346069 9.94591 0.173035Q8.87619 0 7.47192 0Q6.06323 0 4.99352 0.173035Q3.9238 0.346069 3.32245 0.660934Q2.7211 0.9758 2.7211 1.41449Q2.7211 1.85745 3.32245 2.17232Q3.9238 2.48718 4.99352 2.66022Q6.06323 2.83325 7.47192 2.83325Z" fill="#ffffff"/>
 </g>
</svg>
