<?xml version="1.0" encoding="UTF-8"?>
<!--Generator: Apple Native CoreSVG 175-->
<!DOCTYPE svg
PUBLIC "-//W3C//DTD SVG 1.1//EN"
       "http://www.w3.org/Graphics/SVG/1.1/DTD/svg11.dtd">
<svg version="1.1" xmlns="http://www.w3.org/2000/svg" xmlns:xlink="http://www.w3.org/1999/xlink" width="18.8278" height="17.1793">
 <g>
  <rect height="17.1793" opacity="0" width="18.8278" x="0" y="0"/>
  <path d="M9.41528 17.1793Q10.8559 17.1793 11.862 17.076Q12.868 16.9727 13.5667 16.7641Q14.2653 16.5555 14.776 16.2396Q15.2867 15.9238 15.7437 15.4961Q17.1747 14.1852 18.0013 12.3377Q18.8278 10.4903 18.8278 8.3934Q18.8278 6.4859 18.1038 4.80171Q17.3798 3.11752 15.8047 1.91055Q15.6129 1.7363 15.3809 1.75156Q15.1489 1.76682 15.034 1.95038Q14.7801 2.50229 14.0516 2.90115Q13.3231 3.30002 12.1568 3.51364Q10.9906 3.72726 9.41528 3.72726Q7.84409 3.72726 6.67442 3.51364Q5.50476 3.30002 4.77623 2.90115Q4.0477 2.50229 3.79654 1.95038Q3.68164 1.76682 3.44826 1.75156Q3.21487 1.7363 3.02307 1.91055Q1.44806 3.11752 0.72403 4.80171Q0 6.4859 0 8.3934Q0 10.4903 0.826569 12.3377Q1.65314 14.1852 3.08395 15.4961Q3.54095 15.9238 4.05663 16.2396Q4.5723 16.5555 5.26955 16.7641Q5.9668 16.9727 6.96938 17.076Q7.97195 17.1793 9.41528 17.1793ZM9.41528 16.4508Q7.76413 16.4508 6.69907 16.3181Q5.634 16.1855 4.91295 15.8609Q4.19189 15.5363 3.57193 14.9695Q2.21375 13.709 1.47118 11.9968Q0.728607 10.2847 0.728607 8.3934Q0.728607 7.28287 1.00746 6.22192Q1.28632 5.16098 1.91231 4.19868Q2.5383 3.23639 3.56674 2.42508L3.24066 2.48398Q3.71918 3.42743 5.34592 3.93814Q6.97266 4.44885 9.41528 4.44885Q11.862 4.44885 13.4853 3.93814Q15.1086 3.42743 15.5872 2.48398L15.2609 2.42508Q16.2965 3.23639 16.9189 4.19868Q17.5414 5.16098 17.8238 6.22192Q18.1062 7.28287 18.1062 8.3934Q18.1062 10.2847 17.365 11.9968Q16.6238 13.709 15.2559 14.9695Q14.6359 15.5363 13.9149 15.8609Q13.1938 16.1855 12.1288 16.3181Q11.0637 16.4508 9.41528 16.4508ZM9.41528 2.85614Q10.8992 2.85614 11.9674 2.68661Q13.0356 2.51709 13.611 2.20932Q14.1864 1.90155 14.1864 1.47263Q14.1864 1.0437 13.611 0.732346Q13.0356 0.42099 11.9674 0.252838Q10.8992 0.0846863 9.41528 0.0846863Q7.92847 0.0846863 6.86035 0.252838Q5.79224 0.42099 5.22034 0.732346Q4.64844 1.0437 4.64844 1.47263Q4.64844 1.90155 5.22034 2.20932Q5.79224 2.51709 6.86035 2.68661Q7.92847 2.85614 9.41528 2.85614Z" fill="#ffffff"/>
 </g>
</svg>
