<?xml version="1.0" encoding="UTF-8"?>
<!--Generator: Apple Native CoreSVG 175-->
<!DOCTYPE svg
PUBLIC "-//W3C//DTD SVG 1.1//EN"
       "http://www.w3.org/Graphics/SVG/1.1/DTD/svg11.dtd">
<svg version="1.1" xmlns="http://www.w3.org/2000/svg" xmlns:xlink="http://www.w3.org/1999/xlink" width="24.3109" height="20.506">
 <g>
  <rect height="20.506" opacity="0" width="24.3109" x="0" y="0"/>
  <path d="M8.54065 2.50275Q9.84146 2.50275 10.793 2.35138Q11.7445 2.20001 12.2641 1.92017Q12.7837 1.64032 12.7837 1.25473Q12.7837 0.862122 12.2641 0.583649Q11.7445 0.305176 10.793 0.155182Q9.84146 0.00518799 8.54065 0.00518799Q7.24258 0.00518799 6.29105 0.155182Q5.33951 0.305176 4.81781 0.583649Q4.29611 0.862122 4.29611 1.25473Q4.29611 1.64032 4.81781 1.92017Q5.33951 2.20001 6.29105 2.35138Q7.24258 2.50275 8.54065 2.50275ZM0 7.51144Q0 9.42001 0.749817 11.0966Q1.49963 12.7731 2.80075 13.9641Q3.28003 14.407 3.82149 14.7202Q4.36295 15.0333 5.19409 15.2161Q4.91364 14.3832 4.76151 13.5057Q4.60938 12.6282 4.60938 11.7297Q4.60938 9.4368 5.4863 7.61398Q6.36322 5.79117 7.97455 4.56497Q8.51913 4.14734 9.13673 3.81256Q9.75433 3.47778 10.4335 3.22739Q10.0203 3.28201 9.55368 3.31291Q9.08707 3.34381 8.54065 3.34381Q6.96716 3.34381 5.91774 3.13423Q4.86832 2.92465 4.26056 2.54555Q3.6528 2.16644 3.40622 1.64734Q3.31558 1.4801 3.12851 1.45805Q2.94144 1.436 2.76489 1.6008Q1.40198 2.66571 0.700989 4.17374Q0 5.68176 0 7.51144ZM14.8958 6.18286Q16.3727 6.18286 17.4409 6.01685Q18.5091 5.85083 19.0858 5.53947Q19.6625 5.22812 19.6625 4.79919Q19.6625 4.37042 19.0858 4.06258Q18.5091 3.75473 17.4409 3.58658Q16.3727 3.41843 14.8958 3.41843Q13.4117 3.41843 12.3436 3.58658Q11.2755 3.75473 10.6987 4.06258Q10.1219 4.37042 10.1219 4.79919Q10.1219 5.22812 10.6987 5.53947Q11.2755 5.85083 12.3436 6.01685Q13.4117 6.18286 14.8958 6.18286ZM14.8958 20.506Q16.3364 20.506 17.3389 20.4026Q18.3414 20.2992 19.0401 20.0906Q19.7388 19.882 20.2495 19.5663Q20.7602 19.2505 21.227 18.8298Q22.6508 17.5145 23.4808 15.6705Q24.3109 13.8266 24.3109 11.7297Q24.3109 9.81964 23.5801 8.12996Q22.8493 6.44028 21.254 5.19653Q21.0649 5.03326 20.8661 5.05394Q20.6673 5.07462 20.5711 5.2446Q20.2985 5.81955 19.5557 6.22444Q18.8129 6.62933 17.6385 6.84303Q16.4641 7.05673 14.8958 7.05673Q13.3203 7.05673 12.1459 6.84303Q10.9715 6.62933 10.2287 6.22444Q9.48593 5.81955 9.21326 5.2446Q9.1243 5.07462 8.92326 5.05394Q8.72223 5.03326 8.53317 5.19653Q6.93512 6.44028 6.20918 8.12996Q5.48325 9.81964 5.48325 11.7297Q5.48325 13.8266 6.30981 15.6705Q7.13638 17.5145 8.5672 18.8298Q9.0242 19.2505 9.53499 19.5663Q10.0458 19.882 10.7444 20.0906Q11.443 20.2992 12.4455 20.4026Q13.448 20.506 14.8958 20.506Z" fill="#007aff"/>
 </g>
</svg>
