<?xml version="1.0" encoding="UTF-8"?>
<!--Generator: Apple Native CoreSVG 175.5-->
<!DOCTYPE svg
PUBLIC "-//W3C//DTD SVG 1.1//EN"
       "http://www.w3.org/Graphics/SVG/1.1/DTD/svg11.dtd">
<svg version="1.1" xmlns="http://www.w3.org/2000/svg" xmlns:xlink="http://www.w3.org/1999/xlink" width="11.4453" height="17.9785">
 <g>
  <rect height="17.9785" opacity="0" width="11.4453" x="0" y="0"/>
  <path d="M1.5918 17.959L9.85352 17.959Q10.5957 17.959 11.0205 17.5488Q11.4453 17.1387 11.4453 16.3574L11.4453 16.1621Q11.4453 15.2832 11.0449 14.3945Q10.6445 13.5059 10.0293 12.6807Q9.41406 11.8555 8.75488 11.1572Q8.0957 10.459 7.58789 9.95117Q7.12891 9.49219 7.10938 8.98926Q7.08984 8.48633 7.58789 7.98828Q8.0957 7.48047 8.75488 6.78223Q9.41406 6.08398 10.0293 5.26367Q10.6445 4.44336 11.0449 3.55469Q11.4453 2.66602 11.4453 1.77734L11.4453 1.61133Q11.4453 0.820312 11.0205 0.410156Q10.5957 0 9.85352 0L1.5918 0Q0.859375 0 0.429688 0.410156Q0 0.820312 0 1.61133L0 1.77734Q0 2.66602 0.400391 3.55469Q0.800781 4.44336 1.41602 5.26367Q2.03125 6.08398 2.69043 6.78223Q3.34961 7.48047 3.85742 7.98828Q4.32617 8.44727 4.3457 8.9502Q4.36523 9.45312 3.85742 9.95117Q3.34961 10.459 2.69043 11.1572Q2.03125 11.8555 1.41602 12.6807Q0.800781 13.5059 0.400391 14.3945Q0 15.2832 0 16.1621L0 16.3574Q0 17.1387 0.429688 17.5488Q0.859375 17.959 1.5918 17.959Z" fill="#5e5ce6"/>
  <path d="M2.34375 16.6309Q2.03125 16.6309 1.96289 16.3525Q1.89453 16.0742 2.10938 15.8789L5.25391 12.8809Q5.72266 12.4414 6.19141 12.8809L9.33594 15.8789Q9.55078 16.0742 9.4873 16.3525Q9.42383 16.6309 9.10156 16.6309Z" fill="#ffffff"/>
 </g>
</svg>
