<?xml version="1.0" encoding="UTF-8"?>
<!--Generator: Apple Native CoreSVG 175.5-->
<!DOCTYPE svg
PUBLIC "-//W3C//DTD SVG 1.1//EN"
       "http://www.w3.org/Graphics/SVG/1.1/DTD/svg11.dtd">
<svg version="1.1" xmlns="http://www.w3.org/2000/svg" xmlns:xlink="http://www.w3.org/1999/xlink" width="23.3105" height="22.1582">
 <g>
  <rect height="22.1582" opacity="0" width="23.3105" x="0" y="0"/>
  <path d="M14.1699 18.9355L9.13086 18.9355L9.13086 12.4805Q9.13086 12.1387 9.34082 11.9385Q9.55078 11.7383 9.88281 11.7383L13.4277 11.7383Q13.7695 11.7383 13.9697 11.9385Q14.1699 12.1387 14.1699 12.4805ZM3.04688 18.3496Q3.04688 19.375 3.62793 19.9414Q4.20898 20.5078 5.24414 20.5078L18.0859 20.5078Q19.1113 20.5078 19.6924 19.9414Q20.2734 19.375 20.2734 18.3496L20.2734 10.6152L12.2461 3.88672Q11.6602 3.38867 11.0742 3.88672L3.04688 10.6152ZM0 9.63867Q0 9.94141 0.224609 10.1807Q0.449219 10.4199 0.839844 10.4199Q1.04492 10.4199 1.21582 10.3223Q1.38672 10.2246 1.54297 10.1074L11.3184 1.9043Q11.4844 1.75781 11.665 1.75781Q11.8457 1.75781 12.0117 1.9043L21.7871 10.1074Q21.9336 10.2246 22.1045 10.3223Q22.2754 10.4199 22.4805 10.4199Q22.8223 10.4199 23.0664 10.2197Q23.3105 10.0195 23.3105 9.66797Q23.3105 9.25781 23.0078 9.00391L12.8418 0.458984Q12.2949 0 11.665 0Q11.0352 0 10.4883 0.458984L0.3125 9.00391Q0 9.25781 0 9.63867ZM17.8223 5.23438L20.2734 7.30469L20.2734 2.79297Q20.2734 2.4707 20.083 2.28027Q19.8926 2.08984 19.5703 2.08984L18.5254 2.08984Q18.2129 2.08984 18.0176 2.28027Q17.8223 2.4707 17.8223 2.79297Z" fill="#5ac8f5"/>
 </g>
</svg>
