<?xml version="1.0" encoding="UTF-8"?>
<!--Generator: Apple Native CoreSVG 175-->
<!DOCTYPE svg
PUBLIC "-//W3C//DTD SVG 1.1//EN"
       "http://www.w3.org/Graphics/SVG/1.1/DTD/svg11.dtd">
<svg version="1.1" xmlns="http://www.w3.org/2000/svg" xmlns:xlink="http://www.w3.org/1999/xlink" width="19.1602" height="19.1504">
 <g>
  <rect height="19.1504" opacity="0" width="19.1602" x="0" y="0"/>
  <path d="M9.57031 19.1406Q11.5527 19.1406 13.2861 18.3984Q15.0195 17.6562 16.3379 16.333Q17.6562 15.0098 18.4082 13.2764Q19.1602 11.543 19.1602 9.57031Q19.1602 7.59766 18.4082 5.86426Q17.6562 4.13086 16.3379 2.80762Q15.0195 1.48438 13.2861 0.742188Q11.5527 0 9.57031 0Q7.59766 0 5.86426 0.742188Q4.13086 1.48438 2.81738 2.80762Q1.50391 4.13086 0.751953 5.86426Q0 7.59766 0 9.57031Q0 11.543 0.74707 13.2764Q1.49414 15.0098 2.8125 16.333Q4.13086 17.6562 5.86914 18.3984Q7.60742 19.1406 9.57031 19.1406ZM9.57031 18.3984Q7.74414 18.3984 6.14746 17.71Q4.55078 17.0215 3.33496 15.8105Q2.11914 14.5996 1.43555 12.998Q0.751953 11.3965 0.751953 9.57031Q0.751953 7.74414 1.43555 6.14258Q2.11914 4.54102 3.33496 3.3252Q4.55078 2.10938 6.14746 1.4209Q7.74414 0.732422 9.57031 0.732422Q11.4062 0.732422 13.0029 1.4209Q14.5996 2.10938 15.8154 3.3252Q17.0312 4.54102 17.7197 6.14258Q18.4082 7.74414 18.4082 9.57031Q18.4082 11.3965 17.7246 12.998Q17.041 14.5996 15.8252 15.8105Q14.6094 17.0215 13.0078 17.71Q11.4062 18.3984 9.57031 18.3984ZM6.25977 10.2441Q6.25977 10.5371 6.57227 10.5371L7.24609 10.5371Q7.08008 10.7617 6.99707 11.0254Q6.91406 11.2891 6.91406 11.5234Q6.91406 12.1484 7.24609 12.6367Q7.57812 13.125 8.18848 13.4082Q8.79883 13.6914 9.60938 13.6914Q10.5176 13.6914 11.2061 13.2764Q11.8945 12.8613 12.1289 12.1777Q12.2168 11.9727 12.2363 11.8066Q12.2754 11.6504 12.1826 11.543Q12.0898 11.4355 11.9336 11.4355Q11.8164 11.4355 11.7334 11.4941Q11.6504 11.5527 11.6113 11.6797Q11.4746 12.3047 10.9277 12.6904Q10.3809 13.0762 9.61914 13.0762Q8.7207 13.0762 8.1543 12.6465Q7.58789 12.2168 7.58789 11.5039Q7.58789 11.2305 7.70996 10.9717Q7.83203 10.7129 8.08594 10.5371L12.5879 10.5371Q12.8906 10.5371 12.8906 10.2441Q12.8906 10.127 12.8076 10.0391Q12.7246 9.95117 12.5879 9.95117L6.57227 9.95117Q6.42578 9.95117 6.34277 10.0391Q6.25977 10.127 6.25977 10.2441ZM6.26953 8.69141Q6.26953 8.79883 6.35254 8.88672Q6.43555 8.97461 6.58203 8.97461L12.5879 8.97461Q12.7246 8.97461 12.8076 8.88672Q12.8906 8.79883 12.8906 8.69141Q12.8906 8.38867 12.5879 8.38867L11.9141 8.38867Q12.0801 8.16406 12.1631 7.90039Q12.2461 7.63672 12.2461 7.40234Q12.2461 6.77734 11.9092 6.29395Q11.5723 5.81055 10.9668 5.52734Q10.3613 5.24414 9.55078 5.24414Q8.64258 5.24414 7.97363 5.66406Q7.30469 6.08398 7.02148 6.75781Q6.94336 6.95312 6.91406 7.11914Q6.89453 7.27539 6.97754 7.3877Q7.06055 7.5 7.22656 7.5Q7.34375 7.5 7.42676 7.43652Q7.50977 7.37305 7.53906 7.24609Q7.69531 6.63086 8.2373 6.24512Q8.7793 5.85938 9.54102 5.85938Q10.4395 5.85938 11.0059 6.28418Q11.5723 6.70898 11.5723 7.42188Q11.5723 7.69531 11.4502 7.95898Q11.3281 8.22266 11.0645 8.38867L6.58203 8.38867Q6.26953 8.38867 6.26953 8.69141Z" fill="#000000"/>
 </g>
</svg>
