<?xml version="1.0" encoding="UTF-8"?>
<!--Generator: Apple Native CoreSVG 175-->
<!DOCTYPE svg
PUBLIC "-//W3C//DTD SVG 1.1//EN"
       "http://www.w3.org/Graphics/SVG/1.1/DTD/svg11.dtd">
<svg version="1.1" xmlns="http://www.w3.org/2000/svg" xmlns:xlink="http://www.w3.org/1999/xlink" width="17.2852" height="17.3145">
 <g>
  <rect height="17.3145" opacity="0" width="17.2852" x="0" y="0"/>
  <path d="M2.62695 17.3145L14.6484 17.3145Q15.957 17.3145 16.6211 16.6455Q17.2852 15.9766 17.2852 14.6875L17.2852 2.65625Q17.2852 1.37695 16.6211 0.703125Q15.957 0.0292969 14.6484 0.0292969L2.62695 0.0292969Q1.33789 0.0292969 0.668945 0.693359Q0 1.35742 0 2.65625L0 14.6875Q0 15.9863 0.668945 16.6504Q1.33789 17.3145 2.62695 17.3145Z" fill="#000000"/>
  <path d="M5.3125 9.32617Q5.3125 9.20898 5.40039 9.12598Q5.48828 9.04297 5.63477 9.04297L11.6797 9.04297Q11.8262 9.04297 11.9092 9.12598Q11.9922 9.20898 11.9922 9.32617Q11.9922 9.62891 11.6797 9.62891L7.16797 9.62891Q6.89453 9.80469 6.77734 10.0684Q6.66016 10.332 6.66016 10.6055Q6.66016 11.3184 7.22656 11.748Q7.79297 12.1777 8.70117 12.1777Q9.46289 12.1777 10.0098 11.792Q10.5566 11.4062 10.7031 10.7812Q10.7422 10.6543 10.8301 10.5908Q10.918 10.5273 11.0254 10.5273Q11.1914 10.5273 11.2793 10.6348Q11.3672 10.7422 11.3379 10.9082Q11.3184 11.084 11.2305 11.2793Q10.9863 11.9727 10.293 12.3877Q9.59961 12.8027 8.69141 12.8027Q7.87109 12.8027 7.26074 12.5195Q6.65039 12.2363 6.31348 11.7432Q5.97656 11.25 5.97656 10.625Q5.97656 10.3906 6.05957 10.127Q6.14258 9.86328 6.30859 9.62891L5.63477 9.62891Q5.48828 9.62891 5.40039 9.5459Q5.3125 9.46289 5.3125 9.32617ZM5.32227 7.76367Q5.32227 7.46094 5.63477 7.46094L10.1562 7.46094Q10.4199 7.28516 10.542 7.02637Q10.6641 6.76758 10.6641 6.48438Q10.6641 5.77148 10.0928 5.34668Q9.52148 4.92188 8.62305 4.92188Q7.85156 4.92188 7.31445 5.30762Q6.77734 5.69336 6.61133 6.31836Q6.58203 6.44531 6.49414 6.50391Q6.40625 6.5625 6.29883 6.5625Q6.13281 6.5625 6.04492 6.45508Q5.95703 6.34766 5.98633 6.18164Q6.00586 6.00586 6.09375 5.81055Q6.36719 5.12695 7.04102 4.70703Q7.71484 4.28711 8.63281 4.28711Q9.44336 4.28711 10.0537 4.5752Q10.6641 4.86328 11.0059 5.35156Q11.3477 5.83984 11.3477 6.47461Q11.3477 6.70898 11.2598 6.97266Q11.1719 7.23633 11.0156 7.46094L11.6895 7.46094Q11.8359 7.46094 11.9189 7.54395Q12.002 7.62695 12.002 7.76367Q12.002 7.88086 11.9189 7.96875Q11.8359 8.05664 11.6895 8.05664L5.63477 8.05664Q5.48828 8.05664 5.40527 7.96875Q5.32227 7.88086 5.32227 7.76367Z" fill="#ffffff"/>
 </g>
</svg>
