<?xml version="1.0" encoding="UTF-8"?>
<!--Generator: Apple Native CoreSVG 175.5-->
<!DOCTYPE svg
PUBLIC "-//W3C//DTD SVG 1.1//EN"
       "http://www.w3.org/Graphics/SVG/1.1/DTD/svg11.dtd">
<svg version="1.1" xmlns="http://www.w3.org/2000/svg" xmlns:xlink="http://www.w3.org/1999/xlink" width="20.9974" height="18.3887">
 <g>
  <rect height="18.3887" opacity="0" width="20.9974" x="0" y="0"/>
  <path d="M3.95641 6.58203Q5.25524 6.58203 6.35387 6.21094Q7.4525 5.83984 8.4486 5.29297Q9.44469 4.74609 10.4261 4.19434Q11.4076 3.64258 12.4623 3.27148Q13.517 2.90039 14.7474 2.90039Q15.4603 2.90039 16.1341 3.07617Q16.808 3.25195 17.5502 3.68164Q17.8627 3.85742 18.1361 3.76953Q18.4095 3.68164 18.5658 3.4668Q18.7416 3.20312 18.6927 2.85645Q18.6439 2.50977 18.2338 2.26562Q17.4134 1.78711 16.5492 1.55762Q15.6849 1.32812 14.7474 1.32812Q13.4193 1.32812 12.306 1.69922Q11.1927 2.07031 10.1918 2.62207Q9.19078 3.17383 8.21911 3.7207Q7.24743 4.26758 6.2025 4.63867Q5.15758 5.00977 3.95641 5.00977Q3.23375 5.00977 2.55993 4.83398Q1.8861 4.6582 1.14391 4.22852Q0.83141 4.05273 0.557972 4.14062Q0.284535 4.22852 0.128285 4.45312Q-0.0377308 4.7168 0.0110973 5.06348Q0.0599254 5.41016 0.460316 5.64453Q1.29039 6.12305 2.14977 6.35254Q3.00914 6.58203 3.95641 6.58203ZM3.96618 11.8262Q5.12828 11.8262 6.12438 11.5186Q7.12047 11.2109 8.02868 10.7471Q8.93688 10.2832 9.8109 9.78027Q10.6849 9.27734 11.598 8.86719Q12.5111 8.45703 13.5267 8.28125Q13.7513 7.85156 13.9857 7.42676Q14.2201 7.00195 14.4447 6.57227Q13.1459 6.63086 12.0619 7.02148Q10.9779 7.41211 10.016 7.94922Q9.05407 8.48633 8.11168 9.01367Q7.1693 9.54102 6.15856 9.89746Q5.14782 10.2539 3.96618 10.2539Q3.24352 10.2539 2.57457 10.0732Q1.90563 9.89258 1.15368 9.46289Q0.841175 9.28711 0.567738 9.375Q0.2943 9.46289 0.147816 9.6875Q-0.0279652 9.95117 0.0208629 10.2979Q0.0696911 10.6445 0.470082 10.8789Q1.30016 11.3574 2.16442 11.5918Q3.02868 11.8262 3.96618 11.8262ZM3.95641 17.0605Q5.05993 17.0605 6.02184 16.7773Q6.98375 16.4941 7.85289 16.0547Q8.72203 15.6152 9.56188 15.1367Q10.4017 14.6582 11.2709 14.2578Q11.2318 13.9355 11.3099 13.4229Q11.3881 12.9102 11.515 12.4805Q10.5384 12.8711 9.64489 13.3838Q8.75133 13.8965 7.85778 14.375Q6.96422 14.8535 6.00719 15.1709Q5.05016 15.4883 3.95641 15.4883Q3.23375 15.4883 2.55993 15.3076Q1.8861 15.127 1.14391 14.6973Q0.83141 14.5215 0.557972 14.6094Q0.284535 14.6973 0.128285 14.9219Q-0.0377308 15.1855 0.0110973 15.5322Q0.0599254 15.8789 0.460316 16.1133Q1.29039 16.5918 2.14977 16.8262Q3.00914 17.0605 3.95641 17.0605Z" fill="#007aff"/>
  <path d="M16.7787 18.3887Q17.9506 18.3887 18.9076 17.8369Q19.8646 17.2852 20.431 16.3525Q20.9974 15.4199 20.9974 14.2676Q20.9974 13.3203 20.6117 12.4023Q20.2259 11.4844 19.806 10.7129L17.5892 6.58203Q17.3256 6.07422 16.7787 6.07422Q16.2318 6.07422 15.9584 6.58203L13.7513 10.7129Q13.3314 11.4844 12.9506 12.4023Q12.5697 13.3203 12.5697 14.2676Q12.5697 15.4199 13.1361 16.3525Q13.7025 17.2852 14.6547 17.8369Q15.6068 18.3887 16.7787 18.3887Z" fill="#007aff"/>
 </g>
</svg>
