<?xml version="1.0" encoding="UTF-8"?>
<!--Generator: Apple Native CoreSVG 175-->
<!DOCTYPE svg
PUBLIC "-//W3C//DTD SVG 1.1//EN"
       "http://www.w3.org/Graphics/SVG/1.1/DTD/svg11.dtd">
<svg version="1.1" xmlns="http://www.w3.org/2000/svg" xmlns:xlink="http://www.w3.org/1999/xlink" width="23.2031" height="20.2637">
 <g>
  <rect height="20.2637" opacity="0" width="23.2031" x="0" y="0"/>
  <path d="M5.33203 17.4414L14.8047 17.4414L14.082 16.7285L5.33203 16.7188Q4.01367 16.7188 2.97363 16.1768Q1.93359 15.6348 1.33301 14.7168Q0.732422 13.7988 0.732422 12.6758Q0.732422 11.6797 1.11328 10.874Q1.49414 10.0684 2.22656 9.59473Q2.95898 9.12109 3.98438 9.12109Q4.14062 9.12109 4.14062 8.95508Q4.14062 8.4375 4.24805 8.00293Q4.35547 7.56836 4.56055 7.22656L4.00391 6.66016Q3.75 7.04102 3.61816 7.50977Q3.48633 7.97852 3.49609 8.50586Q2.45117 8.58398 1.66504 9.14551Q0.878906 9.70703 0.439453 10.6201Q0 11.5332 0 12.6758Q0 13.6719 0.400391 14.541Q0.800781 15.4102 1.52344 16.0645Q2.24609 16.7188 3.21777 17.0801Q4.18945 17.4414 5.33203 17.4414ZM18.418 17.4316Q19.873 17.373 20.9473 16.8066Q22.0215 16.2402 22.6123 15.293Q23.2031 14.3457 23.2031 13.1738Q23.2031 12.2168 22.8613 11.3721Q22.5195 10.5273 21.8604 9.8877Q21.2012 9.24805 20.2148 8.93555Q20.2734 7.38281 19.7949 6.06445Q19.3164 4.74609 18.4229 3.76953Q17.5293 2.79297 16.3232 2.25586Q15.1172 1.71875 13.7109 1.71875Q12.373 1.71875 11.333 2.16797Q10.293 2.61719 9.53125 3.36426Q8.76953 4.11133 8.28125 5.00977Q7.71484 4.83398 7.13379 4.84375Q6.55273 4.85352 6.02539 5.0293L6.66016 5.67383Q7.08984 5.57617 7.53906 5.60059Q7.98828 5.625 8.44727 5.76172Q8.58398 5.80078 8.66211 5.67383Q9.14062 4.82422 9.8291 4.08203Q10.5176 3.33984 11.4648 2.89062Q12.4121 2.44141 13.7109 2.44141Q15.3027 2.44141 16.5723 3.20312Q17.8418 3.96484 18.6182 5.25879Q19.3945 6.55273 19.5117 8.16406Q19.5312 8.41797 19.5117 8.70605Q19.4922 8.99414 19.4922 9.28711Q19.4922 9.43359 19.6191 9.46289Q20.9473 9.82422 21.709 10.8301Q22.4707 11.8359 22.4707 13.1738Q22.4707 14.1992 21.9287 15.0049Q21.3867 15.8105 20.459 16.2744Q19.5312 16.7383 18.3691 16.7383L17.7344 16.7383ZM18.8184 20.166Q18.9258 20.2637 19.0723 20.2637Q19.2188 20.2637 19.3262 20.166Q19.4238 20.0684 19.4287 19.9121Q19.4336 19.7559 19.3262 19.6484L2.69531 3.02734Q2.60742 2.93945 2.44629 2.92969Q2.28516 2.91992 2.1875 3.02734Q2.08008 3.125 2.08496 3.28125Q2.08984 3.4375 2.1875 3.53516Z" fill="#000000"/>
 </g>
</svg>
