<?xml version="1.0" encoding="UTF-8"?>
<!--Generator: Apple Native CoreSVG 175.5-->
<!DOCTYPE svg
PUBLIC "-//W3C//DTD SVG 1.1//EN"
       "http://www.w3.org/Graphics/SVG/1.1/DTD/svg11.dtd">
<svg version="1.1" xmlns="http://www.w3.org/2000/svg" xmlns:xlink="http://www.w3.org/1999/xlink" width="20.0598" height="18.2715">
 <g>
  <rect height="18.2715" opacity="0" width="20.0598" x="0" y="0"/>
  <path d="M0.732422 18.2129Q1.04492 18.2129 1.25977 17.9932Q1.47461 17.7734 1.47461 17.4609L1.47461 0.742188Q1.47461 0.429688 1.25977 0.214844Q1.04492 0 0.732422 0Q0.429688 0 0.214844 0.214844Q0 0.429688 0 0.742188L0 17.4609Q0 17.7734 0.214844 17.9932Q0.429688 18.2129 0.732422 18.2129ZM5.60547 18.2129Q5.91797 18.2129 6.13281 17.9932Q6.34766 17.7734 6.34766 17.4609L6.34766 0.742188Q6.34766 0.429688 6.13281 0.214844Q5.91797 0 5.60547 0Q5.30273 0 5.08789 0.214844Q4.87305 0.429688 4.87305 0.742188L4.87305 17.4609Q4.87305 17.7734 5.08789 17.9932Q5.30273 18.2129 5.60547 18.2129ZM10.4785 18.2129Q10.791 18.2129 11.0059 17.9932Q11.2207 17.7734 11.2207 17.4609L11.2207 0.742188Q11.2207 0.429688 11.0059 0.214844Q10.791 0 10.4785 0Q10.1758 0 9.96094 0.214844Q9.74609 0.429688 9.74609 0.742188L9.74609 17.4609Q9.74609 17.7734 9.96094 17.9932Q10.1758 18.2129 10.4785 18.2129Z" fill="rgba(255,255,255,0.55)"/>
  <path d="M16.4062 12.0996L19.6387 9.94141Q19.9219 9.74609 20.0146 9.43848Q20.1074 9.13086 20.0098 8.82812Q19.9121 8.52539 19.6387 8.33008L16.4062 6.13281Q16.0254 5.87891 15.6738 5.87891Q15.3223 5.87891 15.0928 6.11816Q14.8633 6.35742 14.873 6.80664L14.873 11.4355Q14.8633 11.875 15.0977 12.0996Q15.332 12.3242 15.6885 12.3291Q16.0449 12.334 16.4062 12.0996Z" fill="rgba(255,255,255,0.85)"/>
 </g>
</svg>
