<?xml version="1.0" encoding="UTF-8"?>
<!--Generator: Apple Native CoreSVG 175-->
<!DOCTYPE svg
PUBLIC "-//W3C//DTD SVG 1.1//EN"
       "http://www.w3.org/Graphics/SVG/1.1/DTD/svg11.dtd">
<svg version="1.1" xmlns="http://www.w3.org/2000/svg" xmlns:xlink="http://www.w3.org/1999/xlink" width="17.2852" height="17.3145">
 <g>
  <rect height="17.3145" opacity="0" width="17.2852" x="0" y="0"/>
  <path d="M2.62695 17.3145L14.6484 17.3145Q15.957 17.3145 16.6211 16.6455Q17.2852 15.9766 17.2852 14.6875L17.2852 2.65625Q17.2852 1.37695 16.6211 0.703125Q15.957 0.0292969 14.6484 0.0292969L2.62695 0.0292969Q1.33789 0.0292969 0.668945 0.693359Q0 1.35742 0 2.65625L0 14.6875Q0 15.9863 0.668945 16.6504Q1.33789 17.3145 2.62695 17.3145Z" fill="#000000"/>
  <path d="M10.0879 13.1836Q9.94141 13.1836 9.77539 13.0273L5.89844 9.4043Q5.82031 9.32617 5.7666 9.24316Q5.71289 9.16016 5.71289 9.04297Q5.71289 8.88672 5.81055 8.79395Q5.9082 8.70117 6.06445 8.70117L7.57812 8.70117Q8.51562 8.70117 9.11133 8.35449Q9.70703 8.00781 9.82422 7.31445L6.01562 7.31445Q5.87891 7.31445 5.79102 7.22168Q5.70312 7.12891 5.70312 7.01172Q5.70312 6.875 5.79102 6.79199Q5.87891 6.70898 6.01562 6.70898L9.81445 6.70898Q9.73633 6.04492 9.29199 5.63477Q8.84766 5.22461 8.21289 5.22461L6.02539 5.22461Q5.87891 5.22461 5.78613 5.13184Q5.69336 5.03906 5.69336 4.90234Q5.69336 4.76562 5.78613 4.67285Q5.87891 4.58008 6.02539 4.58008L8.57422 4.58008Q8.80859 4.58008 9.02832 4.58008Q9.24805 4.58008 9.48242 4.58008L11.2695 4.58008Q11.416 4.58008 11.499 4.66309Q11.582 4.74609 11.582 4.88281Q11.582 5 11.499 5.09277Q11.416 5.18555 11.2695 5.18555L9.77539 5.18555Q10.1074 5.46875 10.2832 5.85938Q10.459 6.25 10.498 6.70898L11.3086 6.70898Q11.4551 6.70898 11.5381 6.79199Q11.6211 6.875 11.6211 7.01172Q11.6211 7.12891 11.5381 7.22168Q11.4551 7.31445 11.3086 7.31445L10.498 7.31445Q10.3906 8.29102 9.62891 8.81836Q8.86719 9.3457 7.40234 9.3457L6.77734 9.3457L10.2637 12.5781Q10.3418 12.6465 10.376 12.7148Q10.4102 12.7832 10.4102 12.8711Q10.4102 12.998 10.3174 13.0908Q10.2246 13.1836 10.0879 13.1836Z" fill="#ffffff"/>
 </g>
</svg>
