<?xml version="1.0" encoding="UTF-8"?>
<!--Generator: Apple Native CoreSVG 175-->
<!DOCTYPE svg
PUBLIC "-//W3C//DTD SVG 1.1//EN"
       "http://www.w3.org/Graphics/SVG/1.1/DTD/svg11.dtd">
<svg version="1.1" xmlns="http://www.w3.org/2000/svg" xmlns:xlink="http://www.w3.org/1999/xlink" width="17.2852" height="17.3145">
 <g>
  <rect height="17.3145" opacity="0" width="17.2852" x="0" y="0"/>
  <path d="M2.62695 17.3145L14.6484 17.3145Q15.957 17.3145 16.6211 16.6455Q17.2852 15.9766 17.2852 14.6875L17.2852 2.65625Q17.2852 1.37695 16.6211 0.703125Q15.957 0.0292969 14.6484 0.0292969L2.62695 0.0292969Q1.33789 0.0292969 0.668945 0.693359Q0 1.35742 0 2.65625L0 14.6875Q0 15.9863 0.668945 16.6504Q1.33789 17.3145 2.62695 17.3145ZM2.65625 16.5918Q1.70898 16.5918 1.2207 16.1035Q0.732422 15.6152 0.732422 14.6582L0.732422 2.69531Q0.732422 1.72852 1.2207 1.24512Q1.70898 0.761719 2.65625 0.761719L14.6289 0.761719Q15.5566 0.761719 16.0596 1.24512Q16.5625 1.72852 16.5625 2.69531L16.5625 14.6582Q16.5625 15.6152 16.0596 16.1035Q15.5566 16.5918 14.6289 16.5918ZM10.0879 13.1543Q10.2148 13.1543 10.3076 13.0615Q10.4004 12.9688 10.4004 12.8418Q10.4004 12.7637 10.3711 12.6904Q10.3418 12.6172 10.2637 12.5586L6.79688 9.33594L7.41211 9.33594Q8.87695 9.33594 9.62891 8.81348Q10.3809 8.29102 10.4883 7.32422L11.2988 7.32422Q11.4355 7.32422 11.5186 7.23633Q11.6016 7.14844 11.6016 7.02148Q11.6016 6.89453 11.5186 6.80664Q11.4355 6.71875 11.2988 6.71875L10.4883 6.71875Q10.4492 6.26953 10.2783 5.88379Q10.1074 5.49805 9.76562 5.20508L11.2598 5.20508Q11.3965 5.20508 11.4795 5.11719Q11.5625 5.0293 11.5625 4.91211Q11.5625 4.78516 11.4795 4.69727Q11.3965 4.60938 11.2598 4.60938L9.49219 4.60938Q9.26758 4.60938 9.04297 4.60938Q8.81836 4.60938 8.58398 4.60938L6.05469 4.60938Q5.89844 4.60938 5.81055 4.70215Q5.72266 4.79492 5.72266 4.93164Q5.72266 5.05859 5.81055 5.15625Q5.89844 5.25391 6.05469 5.25391L8.23242 5.25391Q8.84766 5.25391 9.29688 5.65918Q9.74609 6.06445 9.82422 6.71875L6.03516 6.71875Q5.89844 6.71875 5.81543 6.80664Q5.73242 6.89453 5.73242 7.02148Q5.73242 7.14844 5.81543 7.23633Q5.89844 7.32422 6.03516 7.32422L9.82422 7.32422Q9.7168 8.00781 9.12598 8.35449Q8.53516 8.70117 7.58789 8.70117L6.08398 8.70117Q5.9375 8.70117 5.83984 8.79395Q5.74219 8.88672 5.74219 9.04297Q5.74219 9.16016 5.7959 9.23828Q5.84961 9.31641 5.92773 9.39453L9.78516 12.998Q9.94141 13.1543 10.0879 13.1543Z" fill="#007aff"/>
 </g>
</svg>
