<?xml version="1.0" encoding="UTF-8"?>
<!--Generator: Apple Native CoreSVG 175.5-->
<!DOCTYPE svg
PUBLIC "-//W3C//DTD SVG 1.1//EN"
       "http://www.w3.org/Graphics/SVG/1.1/DTD/svg11.dtd">
<svg version="1.1" xmlns="http://www.w3.org/2000/svg" xmlns:xlink="http://www.w3.org/1999/xlink" width="22.4707" height="16.3574">
 <g>
  <rect height="16.3574" opacity="0" width="22.4707" x="0" y="0"/>
  <path d="M8.35938 13.5547L8.35938 11.4746Q8.35938 11.25 8.52051 11.084Q8.68164 10.918 8.92578 10.918Q9.16016 10.918 9.32129 11.084Q9.48242 11.25 9.48242 11.4746L9.48242 13.5547Q9.48242 13.7891 9.32129 13.9551Q9.16016 14.1211 8.92578 14.1211Q8.68164 14.1211 8.52051 13.9551Q8.35938 13.7891 8.35938 13.5547ZM10.6641 13.5547L10.6641 11.4746Q10.6641 11.25 10.8301 11.084Q10.9961 10.918 11.2402 10.918Q11.4648 10.918 11.6309 11.084Q11.7969 11.25 11.7969 11.4746L11.7969 13.5547Q11.7969 13.7891 11.6309 13.9551Q11.4648 14.1211 11.2402 14.1211Q10.9961 14.1211 10.8301 13.9551Q10.6641 13.7891 10.6641 13.5547ZM12.9785 13.5547L12.9785 11.4746Q12.9785 11.25 13.1445 11.084Q13.3105 10.918 13.5449 10.918Q13.7793 10.918 13.9453 11.084Q14.1113 11.25 14.1113 11.4746L14.1113 13.5547Q14.1113 13.7891 13.9453 13.9551Q13.7793 14.1211 13.5449 14.1211Q13.3105 14.1211 13.1445 13.9551Q12.9785 13.7891 12.9785 13.5547ZM15.293 13.5547L15.293 11.4746Q15.293 11.25 15.459 11.084Q15.625 10.918 15.8594 10.918Q16.0938 10.918 16.2549 11.084Q16.416 11.25 16.416 11.4746L16.416 13.5547Q16.416 13.7891 16.2549 13.9551Q16.0938 14.1211 15.8594 14.1211Q15.625 14.1211 15.459 13.9551Q15.293 13.7891 15.293 13.5547ZM17.6172 13.5547L17.6172 11.4746Q17.6172 11.25 17.7783 11.084Q17.9395 10.918 18.1836 10.918Q18.418 10.918 18.5742 11.084Q18.7305 11.25 18.7305 11.4746L18.7305 13.5547Q18.7305 13.7891 18.5742 13.9551Q18.418 14.1211 18.1836 14.1211Q17.9395 14.1211 17.7783 13.9551Q17.6172 13.7891 17.6172 13.5547ZM3.86719 16.3574L18.6035 16.3574Q19.7461 16.3574 20.6201 15.8691Q21.4941 15.3809 21.9824 14.5166Q22.4707 13.6523 22.4707 12.5195Q22.4707 11.3867 21.9824 10.5176Q21.4941 9.64844 20.6201 9.16016Q19.7461 8.67188 18.6035 8.67188L3.86719 8.67188Q2.72461 8.67188 1.85059 9.16016Q0.976562 9.64844 0.488281 10.5176Q0 11.3867 0 12.5195Q0 13.6523 0.488281 14.5166Q0.976562 15.3809 1.85059 15.8691Q2.72461 16.3574 3.86719 16.3574ZM3.86719 7.33398L18.6035 7.33398Q19.9609 7.33398 21.084 7.91016L18.75 2.27539Q18.291 1.17188 17.3682 0.59082Q16.4453 0.00976562 15.1758 0.00976562L7.29492 0.00976562Q6.03516 0.00976562 5.10742 0.59082Q4.17969 1.17188 3.7207 2.27539L1.37695 7.91016Q1.92383 7.63672 2.54883 7.48535Q3.17383 7.33398 3.86719 7.33398Z" fill="#007aff"/>
 </g>
</svg>
