<?xml version="1.0" encoding="UTF-8"?>
<!--Generator: Apple Native CoreSVG 175-->
<!DOCTYPE svg
PUBLIC "-//W3C//DTD SVG 1.1//EN"
       "http://www.w3.org/Graphics/SVG/1.1/DTD/svg11.dtd">
<svg version="1.1" xmlns="http://www.w3.org/2000/svg" xmlns:xlink="http://www.w3.org/1999/xlink" width="22.6617" height="17.323">
 <g>
  <rect height="17.323" opacity="0" width="22.6617" x="0" y="0"/>
  <path d="M2.63046 17.323L20.0243 17.323Q21.3281 17.323 21.9949 16.6505Q22.6617 15.9781 22.6617 14.6965L22.6617 2.66006Q22.6617 1.37848 21.9949 0.706024Q21.3281 0.0335693 20.0243 0.0335693L2.63046 0.0335693Q1.33636 0.0335693 0.668182 0.699005Q0 1.36444 0 2.66006L0 14.6965Q0 15.9921 0.668182 16.6576Q1.33636 17.323 2.63046 17.323ZM2.65701 16.5945Q1.7067 16.5945 1.21765 16.1068Q0.728607 15.619 0.728607 14.6605L0.728607 2.69608Q0.728607 1.73752 1.21765 1.24985Q1.7067 0.762177 2.65701 0.762177L20.0047 0.762177Q20.9242 0.762177 21.4287 1.24985Q21.9331 1.73752 21.9331 2.69608L21.9331 14.6605Q21.9331 15.619 21.4287 16.1068Q20.9242 16.5945 20.0047 16.5945ZM6.99188 15.8496L15.6656 15.8496Q15.7906 15.8496 15.8753 15.7662Q15.9601 15.6828 15.9601 15.555Q15.9601 15.4343 15.8753 15.3495Q15.7906 15.2647 15.6656 15.2647L6.99188 15.2647Q6.87119 15.2647 6.78642 15.3495Q6.70166 15.4343 6.70166 15.555Q6.70166 15.6828 6.78642 15.7662Q6.87119 15.8496 6.99188 15.8496Z" fill="#000000"/>
 </g>
</svg>
