<?xml version="1.0" encoding="UTF-8"?>
<!--Generator: Apple Native CoreSVG 175-->
<!DOCTYPE svg
PUBLIC "-//W3C//DTD SVG 1.1//EN"
       "http://www.w3.org/Graphics/SVG/1.1/DTD/svg11.dtd">
<svg version="1.1" xmlns="http://www.w3.org/2000/svg" xmlns:xlink="http://www.w3.org/1999/xlink" width="19.1602" height="19.1504">
 <g>
  <rect height="19.1504" opacity="0" width="19.1602" x="0" y="0"/>
  <path d="M9.57031 19.1406Q11.5527 19.1406 13.2861 18.3984Q15.0195 17.6562 16.3379 16.333Q17.6562 15.0098 18.4082 13.2764Q19.1602 11.543 19.1602 9.57031Q19.1602 7.59766 18.4082 5.86426Q17.6562 4.13086 16.3379 2.80762Q15.0195 1.48438 13.2861 0.742188Q11.5527 0 9.57031 0Q7.59766 0 5.86426 0.742188Q4.13086 1.48438 2.81738 2.80762Q1.50391 4.13086 0.751953 5.86426Q0 7.59766 0 9.57031Q0 11.543 0.74707 13.2764Q1.49414 15.0098 2.8125 16.333Q4.13086 17.6562 5.86914 18.3984Q7.60742 19.1406 9.57031 19.1406ZM9.57031 18.3984Q7.74414 18.3984 6.14746 17.71Q4.55078 17.0215 3.33496 15.8105Q2.11914 14.5996 1.43555 12.998Q0.751953 11.3965 0.751953 9.57031Q0.751953 7.74414 1.43555 6.14258Q2.11914 4.54102 3.33496 3.3252Q4.55078 2.10938 6.14746 1.4209Q7.74414 0.732422 9.57031 0.732422Q11.4062 0.732422 13.0029 1.4209Q14.5996 2.10938 15.8154 3.3252Q17.0312 4.54102 17.7197 6.14258Q18.4082 7.74414 18.4082 9.57031Q18.4082 11.3965 17.7246 12.998Q17.041 14.5996 15.8252 15.8105Q14.6094 17.0215 13.0078 17.71Q11.4062 18.3984 9.57031 18.3984ZM7.57812 15.9473L11.5723 15.9473Q12.3633 15.9473 12.7832 15.5273Q13.2031 15.1074 13.2031 14.3262L13.2031 4.83398Q13.2031 4.05273 12.7832 3.62793Q12.3633 3.20312 11.5723 3.20312L7.57812 3.20312Q6.78711 3.20312 6.36719 3.62793Q5.94727 4.05273 5.94727 4.83398L5.94727 14.3262Q5.94727 15.1074 6.36719 15.5273Q6.78711 15.9473 7.57812 15.9473ZM7.61719 15.3418Q7.05078 15.3418 6.79688 15.0928Q6.54297 14.8438 6.54297 14.2871L6.54297 4.86328Q6.54297 4.31641 6.79688 4.05762Q7.05078 3.79883 7.61719 3.79883L8.33984 3.79883Q8.39844 3.79883 8.39844 3.86719L8.39844 3.92578Q8.39844 4.33594 8.78906 4.33594L10.3516 4.33594Q10.752 4.33594 10.752 3.92578L10.752 3.86719Q10.752 3.79883 10.8105 3.79883L11.5234 3.79883Q12.0898 3.79883 12.3535 4.05762Q12.6172 4.31641 12.6172 4.86328L12.6172 14.2871Q12.6172 14.8438 12.3535 15.0928Q12.0898 15.3418 11.5234 15.3418ZM8.33984 14.9707L10.8105 14.9707Q11.0645 14.9707 11.0645 14.7266Q11.0645 14.4531 10.8105 14.4531L8.33984 14.4531Q8.08594 14.4531 8.08594 14.7266Q8.08594 14.9707 8.33984 14.9707Z" fill="#000000"/>
 </g>
</svg>
