<?xml version="1.0" encoding="UTF-8"?>
<!--Generator: Apple Native CoreSVG 175-->
<!DOCTYPE svg
PUBLIC "-//W3C//DTD SVG 1.1//EN"
       "http://www.w3.org/Graphics/SVG/1.1/DTD/svg11.dtd">
<svg version="1.1" xmlns="http://www.w3.org/2000/svg" xmlns:xlink="http://www.w3.org/1999/xlink" width="11.0254" height="19.3457">
 <g>
  <rect height="19.3457" opacity="0" width="11.0254" x="0" y="0"/>
  <path d="M0 16.9727Q0 18.125 0.610352 18.7305Q1.2207 19.3359 2.38281 19.3359L8.65234 19.3359Q9.80469 19.3359 10.415 18.7305Q11.0254 18.125 11.0254 16.9727L11.0254 2.36328Q11.0254 1.21094 10.415 0.605469Q9.80469 0 8.65234 0L2.38281 0Q1.2207 0 0.610352 0.605469Q0 1.21094 0 2.36328ZM0.732422 16.9238L0.732422 2.42188Q0.732422 1.54297 1.14746 1.13281Q1.5625 0.722656 2.45117 0.722656L8.58398 0.722656Q9.47266 0.722656 9.8877 1.13281Q10.3027 1.54297 10.3027 2.42188L10.3027 16.9238Q10.3027 17.8027 9.8877 18.208Q9.47266 18.6133 8.58398 18.6133L2.45117 18.6133Q1.5625 18.6133 1.14746 18.208Q0.732422 17.8027 0.732422 16.9238ZM3.01758 4.0625Q3.42773 4.0625 3.74512 3.75Q4.0625 3.4375 4.0625 3.00781Q4.0625 2.57812 3.74512 2.27539Q3.42773 1.97266 3.01758 1.97266Q2.58789 1.97266 2.28027 2.27539Q1.97266 2.57812 1.97266 3.00781Q1.97266 3.4375 2.28027 3.75Q2.58789 4.0625 3.01758 4.0625Z" fill="#007aff"/>
 </g>
</svg>
