<?xml version="1.0" encoding="UTF-8"?>
<!--Generator: Apple Native CoreSVG 175-->
<!DOCTYPE svg
PUBLIC "-//W3C//DTD SVG 1.1//EN"
       "http://www.w3.org/Graphics/SVG/1.1/DTD/svg11.dtd">
<svg version="1.1" xmlns="http://www.w3.org/2000/svg" xmlns:xlink="http://www.w3.org/1999/xlink" width="19.1602" height="19.1504">
 <g>
  <rect height="19.1504" opacity="0" width="19.1602" x="0" y="0"/>
  <path d="M9.57031 19.1406Q11.5527 19.1406 13.2861 18.3984Q15.0195 17.6562 16.3379 16.333Q17.6562 15.0098 18.4082 13.2764Q19.1602 11.543 19.1602 9.57031Q19.1602 7.59766 18.4082 5.86426Q17.6562 4.13086 16.3379 2.80762Q15.0195 1.48438 13.2861 0.742188Q11.5527 0 9.57031 0Q7.59766 0 5.86426 0.742188Q4.13086 1.48438 2.81738 2.80762Q1.50391 4.13086 0.751953 5.86426Q0 7.59766 0 9.57031Q0 11.543 0.74707 13.2764Q1.49414 15.0098 2.8125 16.333Q4.13086 17.6562 5.86914 18.3984Q7.60742 19.1406 9.57031 19.1406ZM9.57031 18.3984Q7.74414 18.3984 6.14746 17.71Q4.55078 17.0215 3.33496 15.8105Q2.11914 14.5996 1.43555 12.998Q0.751953 11.3965 0.751953 9.57031Q0.751953 7.74414 1.43555 6.14258Q2.11914 4.54102 3.33496 3.3252Q4.55078 2.10938 6.14746 1.4209Q7.74414 0.732422 9.57031 0.732422Q11.4062 0.732422 13.0029 1.4209Q14.5996 2.10938 15.8154 3.3252Q17.0312 4.54102 17.7197 6.14258Q18.4082 7.74414 18.4082 9.57031Q18.4082 11.3965 17.7246 12.998Q17.041 14.5996 15.8252 15.8105Q14.6094 17.0215 13.0078 17.71Q11.4062 18.3984 9.57031 18.3984ZM7.55859 15.9473L11.5918 15.9473Q13.0957 15.9473 13.1641 14.4727L13.1641 14.2578L12.5195 13.6133L12.5195 14.0332L6.5332 14.0332L6.5332 7.61719L5.94727 7.04102L5.94727 14.3359Q5.94727 15.1074 6.35742 15.5273Q6.76758 15.9473 7.55859 15.9473ZM9.57031 15.332Q9.39453 15.332 9.26758 15.2051Q9.14062 15.0781 9.14062 14.9023Q9.14062 14.7168 9.26758 14.585Q9.39453 14.4531 9.57031 14.4531Q9.75586 14.4531 9.88281 14.585Q10.0098 14.7168 10.0098 14.9023Q10.0098 15.0781 9.88281 15.2051Q9.75586 15.332 9.57031 15.332ZM11.5918 3.20312L7.55859 3.20312Q6.05469 3.20312 5.98633 4.67773L5.98633 4.83398L6.62109 5.47852L6.62109 5.11719L12.6074 5.11719L12.6074 11.4746L13.2031 12.0605L13.2031 4.81445Q13.2031 4.0332 12.793 3.61816Q12.3828 3.20312 11.5918 3.20312ZM8.54492 4.18945Q8.54492 3.94531 8.79883 3.94531L10.3516 3.94531Q10.5957 3.94531 10.5957 4.18945Q10.5957 4.27734 10.5225 4.36035Q10.4492 4.44336 10.3516 4.44336L8.79883 4.44336Q8.69141 4.44336 8.61816 4.36035Q8.54492 4.27734 8.54492 4.18945ZM14.2676 14.6582Q14.3555 14.7461 14.4775 14.751Q14.5996 14.7559 14.6777 14.6582Q14.7656 14.5703 14.7656 14.4531Q14.7656 14.3359 14.6777 14.2383L4.87305 4.42383Q4.78516 4.33594 4.66309 4.33594Q4.54102 4.33594 4.45312 4.42383Q4.35547 4.52148 4.36523 4.63867Q4.375 4.75586 4.45312 4.84375Z" fill="#ffffff"/>
 </g>
</svg>
