<?xml version="1.0" encoding="UTF-8"?>
<!--Generator: Apple Native CoreSVG 175-->
<!DOCTYPE svg
PUBLIC "-//W3C//DTD SVG 1.1//EN"
       "http://www.w3.org/Graphics/SVG/1.1/DTD/svg11.dtd">
<svg version="1.1" xmlns="http://www.w3.org/2000/svg" xmlns:xlink="http://www.w3.org/1999/xlink" width="19.1602" height="19.1504">
 <g>
  <rect height="19.1504" opacity="0" width="19.1602" x="0" y="0"/>
  <path d="M9.57031 19.1406Q11.5527 19.1406 13.2861 18.3984Q15.0195 17.6562 16.3379 16.333Q17.6562 15.0098 18.4082 13.2764Q19.1602 11.543 19.1602 9.57031Q19.1602 7.59766 18.4082 5.86426Q17.6562 4.13086 16.3379 2.80762Q15.0195 1.48438 13.2861 0.742188Q11.5527 0 9.57031 0Q7.59766 0 5.86426 0.742188Q4.13086 1.48438 2.81738 2.80762Q1.50391 4.13086 0.751953 5.86426Q0 7.59766 0 9.57031Q0 11.543 0.74707 13.2764Q1.49414 15.0098 2.8125 16.333Q4.13086 17.6562 5.86914 18.3984Q7.60742 19.1406 9.57031 19.1406ZM9.57031 18.3984Q7.74414 18.3984 6.14746 17.71Q4.55078 17.0215 3.33496 15.8105Q2.11914 14.5996 1.43555 12.998Q0.751953 11.3965 0.751953 9.57031Q0.751953 7.74414 1.43555 6.14258Q2.11914 4.54102 3.33496 3.3252Q4.55078 2.10938 6.14746 1.4209Q7.74414 0.732422 9.57031 0.732422Q11.4062 0.732422 13.0029 1.4209Q14.5996 2.10938 15.8154 3.3252Q17.0312 4.54102 17.7197 6.14258Q18.4082 7.74414 18.4082 9.57031Q18.4082 11.3965 17.7246 12.998Q17.041 14.5996 15.8252 15.8105Q14.6094 17.0215 13.0078 17.71Q11.4062 18.3984 9.57031 18.3984ZM7.76367 15.3711L11.377 15.3711Q12.0996 15.3711 12.4951 14.9854Q12.8906 14.5996 12.8906 13.877L12.8906 5.2832Q12.8906 4.56055 12.4951 4.16992Q12.0996 3.7793 11.377 3.7793L7.76367 3.7793Q7.03125 3.7793 6.65039 4.16504Q6.26953 4.55078 6.26953 5.2832L6.26953 13.877Q6.26953 14.5996 6.65039 14.9854Q7.03125 15.3711 7.76367 15.3711ZM7.80273 14.7949Q7.30469 14.7949 7.07031 14.5654Q6.83594 14.3359 6.83594 13.8477L6.83594 5.3125Q6.83594 4.81445 7.06543 4.58008Q7.29492 4.3457 7.80273 4.3457L8.44727 4.3457Q8.48633 4.3457 8.48633 4.39453L8.48633 4.45312Q8.48633 4.84375 8.86719 4.84375L10.2637 4.84375Q10.6543 4.84375 10.6543 4.45312L10.6543 4.39453Q10.6543 4.3457 10.6836 4.3457L11.3477 4.3457Q11.8359 4.3457 12.0703 4.58008Q12.3047 4.81445 12.3047 5.3125L12.3047 13.8477Q12.3047 14.3359 12.0703 14.5654Q11.8359 14.7949 11.3477 14.7949ZM8.4375 14.4824L10.6934 14.4824Q10.9473 14.4824 10.9473 14.2383Q10.9473 13.9746 10.6934 13.9746L8.4375 13.9746Q8.20312 13.9746 8.20312 14.2383Q8.20312 14.4824 8.4375 14.4824ZM3.76953 12.5293Q3.88672 12.3633 3.7207 12.1582Q2.67578 11.0547 2.67578 9.57031Q2.67578 8.07617 3.7207 6.98242Q3.88672 6.76758 3.76953 6.61133Q3.68164 6.50391 3.55957 6.50391Q3.4375 6.50391 3.34961 6.60156Q2.12891 7.85156 2.12891 9.57031Q2.12891 11.2891 3.34961 12.5391Q3.4375 12.6367 3.55957 12.6367Q3.68164 12.6367 3.76953 12.5293ZM5.11719 11.2793Q5.27344 11.1035 5.07812 10.9082Q4.58008 10.4297 4.58008 9.57031Q4.58008 8.70117 5.07812 8.23242Q5.27344 8.02734 5.11719 7.86133Q5.03906 7.74414 4.91699 7.74902Q4.79492 7.75391 4.7168 7.85156Q4.02344 8.58398 4.02344 9.57031Q4.02344 10.5566 4.7168 11.2891Q4.79492 11.377 4.91699 11.3818Q5.03906 11.3867 5.11719 11.2793ZM14.0234 11.2793Q14.0918 11.3867 14.2139 11.3818Q14.3359 11.377 14.4336 11.2891Q15.1172 10.5566 15.1172 9.57031Q15.1172 8.58398 14.4336 7.85156Q14.3359 7.75391 14.2139 7.74902Q14.0918 7.74414 14.0234 7.86133Q13.8672 8.02734 14.0625 8.23242Q14.5605 8.70117 14.5605 9.57031Q14.5605 10.4297 14.0625 10.9082Q13.8672 11.1035 14.0234 11.2793ZM15.3711 12.5293Q15.4492 12.6367 15.5762 12.6367Q15.7031 12.6367 15.791 12.5391Q17.0117 11.2891 17.0117 9.57031Q17.0117 7.85156 15.791 6.60156Q15.7031 6.50391 15.5762 6.50391Q15.4492 6.50391 15.3711 6.61133Q15.2441 6.76758 15.4297 6.98242Q16.4648 8.07617 16.4648 9.57031Q16.4648 11.0547 15.4297 12.1582Q15.2441 12.3633 15.3711 12.5293Z" fill="#000000"/>
 </g>
</svg>
