<?xml version="1.0" encoding="UTF-8"?>
<!--Generator: Apple Native CoreSVG 175-->
<!DOCTYPE svg
PUBLIC "-//W3C//DTD SVG 1.1//EN"
       "http://www.w3.org/Graphics/SVG/1.1/DTD/svg11.dtd">
<svg version="1.1" xmlns="http://www.w3.org/2000/svg" xmlns:xlink="http://www.w3.org/1999/xlink" width="11.0301" height="19.3436">
 <g>
  <rect height="19.3436" opacity="0" width="11.0301" x="0" y="0"/>
  <path d="M0 16.9775Q0 18.1271 0.60936 18.734Q1.21872 19.3408 2.38205 19.3408L8.64807 19.3408Q9.80713 19.3408 10.4186 18.734Q11.0301 18.1271 11.0301 16.9775L11.0301 2.36343Q11.0301 1.21368 10.4186 0.606842Q9.80713 0 8.64807 0L2.38205 0Q1.21872 0 0.60936 0.606842Q0 1.21368 0 2.36343ZM0.728607 16.5294L0.728607 2.81143L10.3017 2.81143L10.3017 16.5294ZM5.52979 18.5216Q5.23438 18.5216 5.02052 18.3077Q4.80667 18.0939 4.80667 17.7986Q4.80667 17.5032 5.02052 17.2977Q5.23438 17.0923 5.52979 17.0923Q5.8223 17.0923 6.02913 17.2977Q6.23596 17.5032 6.23596 17.7986Q6.23596 18.0939 6.02913 18.3077Q5.8223 18.5216 5.52979 18.5216ZM5.52979 1.89621Q5.32074 1.89621 5.17448 1.74988Q5.02823 1.60355 5.02823 1.39465Q5.02823 1.20239 5.17448 1.05751Q5.32074 0.912628 5.52979 0.912628Q5.72189 0.912628 5.86685 1.05751Q6.01181 1.20239 6.01181 1.39465Q6.01181 1.60355 5.86685 1.74988Q5.72189 1.89621 5.52979 1.89621Z" fill="#007aff"/>
 </g>
</svg>
