<?xml version="1.0" encoding="UTF-8"?>
<!--Generator: Apple Native CoreSVG 175-->
<!DOCTYPE svg
PUBLIC "-//W3C//DTD SVG 1.1//EN"
       "http://www.w3.org/Graphics/SVG/1.1/DTD/svg11.dtd">
<svg version="1.1" xmlns="http://www.w3.org/2000/svg" xmlns:xlink="http://www.w3.org/1999/xlink" width="13.6708" height="10.4755">
 <g>
  <rect height="10.4755" opacity="0" width="13.6708" x="0" y="0"/>
  <path d="M0 8.54111Q0 9.47739 0.490799 9.97643Q0.981598 10.4755 1.8988 10.4755L11.772 10.4755Q12.692 10.4755 13.1814 9.97643Q13.6708 9.47739 13.6708 8.54111L13.6708 1.93436Q13.6708 0.998077 13.1814 0.499039Q12.692 0 11.772 0L1.8988 0Q0.981598 0 0.490799 0.499039Q0 0.998077 0 1.93436ZM0.728607 8.50052L0.728607 1.97495Q0.728607 1.36139 1.0479 1.04141Q1.36719 0.721436 1.97266 0.721436L11.7009 0.721436Q12.3036 0.721436 12.6229 1.04141Q12.9422 1.36139 12.9422 1.97495L12.9422 8.50052Q12.9422 9.11407 12.6229 9.43405Q12.3036 9.75403 11.7009 9.75403L1.97266 9.75403Q1.36719 9.75403 1.0479 9.43405Q0.728607 9.11407 0.728607 8.50052ZM8.46451 8.43842Q9.35043 8.43842 10.0762 8.00652Q10.802 7.57462 11.236 6.84532Q11.6701 6.11603 11.6701 5.23285Q11.6701 4.34967 11.236 3.62038Q10.802 2.89108 10.0762 2.45567Q9.35043 2.02026 8.46451 2.02026Q7.57431 2.02026 6.84853 2.45567Q6.12274 2.89108 5.68871 3.62038Q5.25467 4.34967 5.25467 5.23285Q5.25467 6.11603 5.68871 6.84532Q6.12274 7.57462 6.84853 8.00652Q7.57431 8.43842 8.46451 8.43842ZM8.46451 7.78595Q7.76138 7.78595 7.1817 7.44064Q6.60202 7.09534 6.25809 6.51566Q5.91415 5.93597 5.91415 5.23285Q5.91415 4.52698 6.25809 3.94867Q6.60202 3.37036 7.1817 3.02505Q7.76138 2.67975 8.46451 2.67975Q9.17038 2.67975 9.75006 3.02505Q10.3297 3.37036 10.6702 3.94867Q11.0106 4.52698 11.0106 5.23285Q11.0106 5.93597 10.6702 6.51566Q10.3297 7.09534 9.75006 7.44064Q9.17038 7.78595 8.46451 7.78595Z" fill="#007aff"/>
 </g>
</svg>
