<?xml version="1.0" encoding="UTF-8"?>
<!--Generator: Apple Native CoreSVG 175-->
<!DOCTYPE svg
PUBLIC "-//W3C//DTD SVG 1.1//EN"
       "http://www.w3.org/Graphics/SVG/1.1/DTD/svg11.dtd">
<svg version="1.1" xmlns="http://www.w3.org/2000/svg" xmlns:xlink="http://www.w3.org/1999/xlink" width="9.77966" height="14.0732">
 <g>
  <rect height="14.0732" opacity="0" width="9.77966" x="0" y="0"/>
  <path d="M0.352325 14.0634L6.707 14.0634Q6.86172 14.0634 6.9619 13.9651Q7.06207 13.8669 7.06207 13.7149Q7.06207 13.5587 6.96327 13.4688Q6.86447 13.3789 6.70975 13.3789L3.91754 13.3789L6.63513 0.684509L9.42734 0.684509Q9.57932 0.684509 9.67949 0.589752Q9.77966 0.494995 9.77966 0.343018Q9.77966 0.179749 9.68086 0.0898743Q9.58206 0 9.43008 0L3.06015 0Q2.90817 0 2.80937 0.0898743Q2.71057 0.179749 2.71057 0.343018Q2.71057 0.494995 2.81075 0.589752Q2.91092 0.684509 3.0629 0.684509L5.8551 0.684509L3.14453 13.3789L0.349579 13.3789Q0.197601 13.3789 0.0988007 13.4688Q0 13.5587 0 13.7149Q0 13.8669 0.100174 13.9651Q0.200348 14.0634 0.352325 14.0634Z" fill="rgba(255,255,255,0.85)"/>
 </g>
</svg>
