<?xml version="1.0" encoding="UTF-8"?>
<!--Generator: Apple Native CoreSVG 175.5-->
<!DOCTYPE svg
PUBLIC "-//W3C//DTD SVG 1.1//EN"
       "http://www.w3.org/Graphics/SVG/1.1/DTD/svg11.dtd">
<svg version="1.1" xmlns="http://www.w3.org/2000/svg" xmlns:xlink="http://www.w3.org/1999/xlink" width="10.1172" height="13.9746">
 <g>
  <rect height="13.9746" opacity="0" width="10.1172" x="0" y="0"/>
  <path d="M0.78125 13.9648L6.95312 13.9648Q7.30469 13.9648 7.52441 13.7646Q7.74414 13.5645 7.74414 13.2227Q7.74414 12.8906 7.5293 12.6953Q7.31445 12.5 6.96289 12.5L4.77539 12.5L7.14844 1.46484L9.33594 1.46484Q9.67773 1.46484 9.89746 1.26465Q10.1172 1.06445 10.1172 0.722656Q10.1172 0.390625 9.90234 0.195312Q9.6875 0 9.3457 0L3.14453 0Q2.80273 0 2.58789 0.195312Q2.37305 0.390625 2.37305 0.722656Q2.37305 1.06445 2.59277 1.26465Q2.8125 1.46484 3.1543 1.46484L5.3418 1.46484L2.96875 12.5L0.771484 12.5Q0.429688 12.5 0.214844 12.6953Q0 12.8906 0 13.2227Q0 13.5645 0.219727 13.7646Q0.439453 13.9648 0.78125 13.9648Z" fill="rgba(255,255,255,0.85)"/>
 </g>
</svg>
