<?xml version="1.0" encoding="UTF-8"?>
<!--Generator: Apple Native CoreSVG 175.5-->
<!DOCTYPE svg
PUBLIC "-//W3C//DTD SVG 1.1//EN"
       "http://www.w3.org/Graphics/SVG/1.1/DTD/svg11.dtd">
<svg version="1.1" xmlns="http://www.w3.org/2000/svg" xmlns:xlink="http://www.w3.org/1999/xlink" width="17.9785" height="17.998">
 <g>
  <rect height="17.998" opacity="0" width="17.9785" x="0" y="0"/>
  <path d="M3.06641 17.998L14.9121 17.998Q16.4453 17.998 17.2119 17.2412Q17.9785 16.4844 17.9785 14.9707L17.9785 3.04688Q17.9785 1.5332 17.2119 0.776367Q16.4453 0.0195312 14.9121 0.0195312L3.06641 0.0195312Q1.5332 0.0195312 0.766602 0.776367Q0 1.5332 0 3.04688L0 14.9707Q0 16.4844 0.766602 17.2412Q1.5332 17.998 3.06641 17.998Z" fill="#007aff"/>
  <path d="M8.51562 13.7109Q7.4707 13.7109 6.70898 13.2373Q5.94727 12.7637 5.68359 11.9824Q5.63477 11.8652 5.62012 11.748Q5.60547 11.6309 5.60547 11.5039Q5.60547 11.1719 5.81055 10.9619Q6.01562 10.752 6.34766 10.752Q6.83594 10.752 7.09961 11.2988Q7.27539 11.7871 7.65625 12.0557Q8.03711 12.3242 8.59375 12.3242Q9.21875 12.3242 9.58008 11.8994Q9.94141 11.4746 9.94141 10.7129L9.94141 5.09766Q9.94141 4.69727 10.1465 4.44336Q10.3516 4.18945 10.7422 4.18945Q11.1426 4.18945 11.3525 4.43359Q11.5625 4.67773 11.5625 5.09766L11.5625 10.7324Q11.5625 12.1777 10.7812 12.9443Q10 13.7109 8.51562 13.7109Z" fill="#ffffff"/>
 </g>
</svg>
