<?xml version="1.0" encoding="UTF-8"?>
<!--Generator: Apple Native CoreSVG 175-->
<!DOCTYPE svg
PUBLIC "-//W3C//DTD SVG 1.1//EN"
       "http://www.w3.org/Graphics/SVG/1.1/DTD/svg11.dtd">
<svg version="1.1" xmlns="http://www.w3.org/2000/svg" xmlns:xlink="http://www.w3.org/1999/xlink" width="19.1602" height="19.1504">
 <g>
  <rect height="19.1504" opacity="0" width="19.1602" x="0" y="0"/>
  <path d="M9.57031 19.1406Q11.5527 19.1406 13.2861 18.3984Q15.0195 17.6562 16.3379 16.333Q17.6562 15.0098 18.4082 13.2764Q19.1602 11.543 19.1602 9.57031Q19.1602 7.59766 18.4082 5.86426Q17.6562 4.13086 16.3379 2.80762Q15.0195 1.48438 13.2861 0.742188Q11.5527 0 9.57031 0Q7.59766 0 5.86426 0.742188Q4.13086 1.48438 2.81738 2.80762Q1.50391 4.13086 0.751953 5.86426Q0 7.59766 0 9.57031Q0 11.543 0.74707 13.2764Q1.49414 15.0098 2.8125 16.333Q4.13086 17.6562 5.86914 18.3984Q7.60742 19.1406 9.57031 19.1406Z" fill="#007aff"/>
  <path d="M7.01172 13.9941Q6.83594 13.9941 6.7334 13.8818Q6.63086 13.7695 6.63086 13.5938L6.63086 5.51758Q6.63086 5.3418 6.7334 5.23438Q6.83594 5.12695 7.01172 5.12695Q7.17773 5.12695 7.28027 5.23438Q7.38281 5.3418 7.38281 5.51758L7.38281 9.74609L7.42188 9.74609L11.8457 5.29297Q11.9336 5.19531 12.0068 5.16113Q12.0801 5.12695 12.1875 5.12695Q12.3242 5.12695 12.4268 5.21973Q12.5293 5.3125 12.5293 5.44922Q12.5293 5.52734 12.5049 5.5957Q12.4805 5.66406 12.4121 5.73242L9.23828 8.93555L12.6758 13.3008Q12.7246 13.3691 12.7686 13.4473Q12.8125 13.5254 12.8125 13.6133Q12.8125 13.7891 12.7051 13.8867Q12.5977 13.9844 12.4414 13.9844Q12.3145 13.9844 12.2363 13.9355Q12.1582 13.8867 12.0508 13.7598L8.68164 9.45312L7.38281 10.7812L7.38281 13.5938Q7.38281 13.7695 7.28027 13.8818Q7.17773 13.9941 7.01172 13.9941Z" fill="#ffffff"/>
 </g>
</svg>
