<?xml version="1.0" encoding="UTF-8"?>
<!--Generator: Apple Native CoreSVG 175-->
<!DOCTYPE svg
PUBLIC "-//W3C//DTD SVG 1.1//EN"
       "http://www.w3.org/Graphics/SVG/1.1/DTD/svg11.dtd">
<svg version="1.1" xmlns="http://www.w3.org/2000/svg" xmlns:xlink="http://www.w3.org/1999/xlink" width="17.2852" height="17.3145">
 <g>
  <rect height="17.3145" opacity="0" width="17.2852" x="0" y="0"/>
  <path d="M2.62695 17.3145L14.6484 17.3145Q15.957 17.3145 16.6211 16.6455Q17.2852 15.9766 17.2852 14.6875L17.2852 2.65625Q17.2852 1.37695 16.6211 0.703125Q15.957 0.0292969 14.6484 0.0292969L2.62695 0.0292969Q1.33789 0.0292969 0.668945 0.693359Q0 1.35742 0 2.65625L0 14.6875Q0 15.9863 0.668945 16.6504Q1.33789 17.3145 2.62695 17.3145ZM2.65625 16.5918Q1.70898 16.5918 1.2207 16.1035Q0.732422 15.6152 0.732422 14.6582L0.732422 2.69531Q0.732422 1.72852 1.2207 1.24512Q1.70898 0.761719 2.65625 0.761719L14.6289 0.761719Q15.5566 0.761719 16.0596 1.24512Q16.5625 1.72852 16.5625 2.69531L16.5625 14.6582Q16.5625 15.6152 16.0596 16.1035Q15.5566 16.5918 14.6289 16.5918ZM6.09375 13.0469Q6.26953 13.0469 6.36719 12.9395Q6.46484 12.832 6.46484 12.6562L6.46484 9.85352L7.75391 8.53516L11.1133 12.8223Q11.2109 12.9395 11.2891 12.9883Q11.3672 13.0371 11.4941 13.0371Q11.6406 13.0371 11.748 12.9395Q11.8555 12.8418 11.8555 12.6758Q11.8555 12.5879 11.8115 12.5049Q11.7676 12.4219 11.7188 12.3633L8.30078 8.01758L11.4551 4.83398Q11.5234 4.76562 11.5479 4.70215Q11.5723 4.63867 11.5723 4.55078Q11.5723 4.42383 11.4697 4.32617Q11.3672 4.22852 11.2402 4.22852Q11.1328 4.22852 11.0596 4.26758Q10.9863 4.30664 10.8887 4.39453L6.50391 8.82812L6.46484 8.82812L6.46484 4.62891Q6.46484 4.45312 6.36719 4.34082Q6.26953 4.22852 6.09375 4.22852Q5.92773 4.22852 5.8252 4.34082Q5.72266 4.45312 5.72266 4.62891L5.72266 12.6562Q5.72266 12.832 5.8252 12.9395Q5.92773 13.0469 6.09375 13.0469Z" fill="#007aff"/>
 </g>
</svg>
