<?xml version="1.0" encoding="UTF-8"?>
<!--Generator: Apple Native CoreSVG 175-->
<!DOCTYPE svg
PUBLIC "-//W3C//DTD SVG 1.1//EN"
       "http://www.w3.org/Graphics/SVG/1.1/DTD/svg11.dtd">
<svg version="1.1" xmlns="http://www.w3.org/2000/svg" xmlns:xlink="http://www.w3.org/1999/xlink" width="9.86649" height="14.6011">
 <g>
  <rect height="14.6011" opacity="0" width="9.86649" x="0" y="0"/>
  <path d="M0.382385 14.4547Q0.563354 14.4547 0.668259 14.3476Q0.773163 14.2406 0.773163 14.0598L0.773163 9.14215L2.86911 6.93863L9.08859 14.2125Q9.20349 14.3523 9.28848 14.4035Q9.37347 14.4547 9.49097 14.4547Q9.64966 14.4547 9.75807 14.3539Q9.86649 14.2531 9.86649 14.0956Q9.86649 14.0015 9.82079 13.9179Q9.77509 13.8344 9.71176 13.7558L3.42422 6.39771L9.06494 0.613251Q9.12704 0.551147 9.16374 0.482025Q9.20044 0.412903 9.20044 0.338287Q9.20044 0.196075 9.09615 0.0980377Q8.99185 0 8.84689 0Q8.67691 0 8.51089 0.173035L0.832825 8.09326L0.773163 8.09326L0.773163 0.39917Q0.773163 0.214081 0.668259 0.10704Q0.563354 0 0.382385 0Q0.211334 0 0.105667 0.10704Q0 0.214081 0 0.39917L0 14.0598Q0 14.2406 0.105667 14.3476Q0.211334 14.4547 0.382385 14.4547Z" fill="#000000"/>
 </g>
</svg>
