<?xml version="1.0" encoding="UTF-8"?>
<!--Generator: Apple Native CoreSVG 175.5-->
<!DOCTYPE svg
PUBLIC "-//W3C//DTD SVG 1.1//EN"
       "http://www.w3.org/Graphics/SVG/1.1/DTD/svg11.dtd">
<svg version="1.1" xmlns="http://www.w3.org/2000/svg" xmlns:xlink="http://www.w3.org/1999/xlink" width="19.1211" height="19.1309">
 <g>
  <rect height="19.1309" opacity="0" width="19.1211" x="0" y="0"/>
  <path d="M0.78125 6.23047Q1.57227 6.23047 1.57227 5.42969L1.57227 3.125Q1.57227 2.36328 1.96289 1.97754Q2.35352 1.5918 3.08594 1.5918L5.44922 1.5918Q6.25 1.5918 6.25 0.800781Q6.25 0.0195312 5.44922 0.0195312L3.06641 0.0195312Q1.5332 0.0195312 0.766602 0.776367Q0 1.5332 0 3.03711L0 5.42969Q0 6.23047 0.78125 6.23047ZM18.3301 6.23047Q19.1211 6.23047 19.1211 5.42969L19.1211 3.03711Q19.1211 1.5332 18.3545 0.776367Q17.5879 0.0195312 16.0547 0.0195312L13.6621 0.0195312Q12.8711 0.0195312 12.8711 0.800781Q12.8711 1.5918 13.6621 1.5918L16.0254 1.5918Q16.748 1.5918 17.1484 1.97754Q17.5488 2.36328 17.5488 3.125L17.5488 5.42969Q17.5488 6.23047 18.3301 6.23047ZM3.06641 19.1309L5.44922 19.1309Q6.25 19.1309 6.25 18.3496Q6.25 17.5586 5.44922 17.5586L3.08594 17.5586Q2.35352 17.5586 1.96289 17.1729Q1.57227 16.7871 1.57227 16.0254L1.57227 13.7207Q1.57227 12.9199 0.78125 12.9199Q0 12.9199 0 13.7207L0 16.1035Q0 17.6172 0.766602 18.374Q1.5332 19.1309 3.06641 19.1309ZM13.6621 19.1309L16.0547 19.1309Q17.5879 19.1309 18.3545 18.374Q19.1211 17.6172 19.1211 16.1035L19.1211 13.7207Q19.1211 12.9199 18.3301 12.9199Q17.5488 12.9199 17.5488 13.7207L17.5488 16.0254Q17.5488 16.7871 17.1484 17.1729Q16.748 17.5586 16.0254 17.5586L13.6621 17.5586Q12.8711 17.5586 12.8711 18.3496Q12.8711 19.1309 13.6621 19.1309Z" fill="#007aff"/>
  <path d="M9.57031 3.62305Q8.66211 3.62305 7.92969 4.05762Q7.19727 4.49219 6.7627 5.22461Q6.32812 5.95703 6.32812 6.8457Q6.32812 7.88086 6.88965 8.70117Q7.45117 9.52148 8.38867 9.89258L8.38867 14.8926Q8.39844 15.0781 8.54492 15.2148L9.38477 16.0645Q9.46289 16.1426 9.56055 16.1475Q9.6582 16.1523 9.73633 16.0645L11.3477 14.4727Q11.4355 14.3848 11.4355 14.2822Q11.4355 14.1797 11.3477 14.1113L10.3516 13.1055L11.7285 11.748Q11.8066 11.6797 11.7969 11.5771Q11.7871 11.4746 11.709 11.3965L10.3516 10.0293Q11.5332 9.55078 12.168 8.72559Q12.8027 7.90039 12.8027 6.8457Q12.8027 5.95703 12.3633 5.22461Q11.9238 4.49219 11.1914 4.05762Q10.459 3.62305 9.57031 3.62305ZM9.56055 5.16602Q9.9707 5.16602 10.2588 5.46387Q10.5469 5.76172 10.5469 6.17188Q10.5469 6.5918 10.2588 6.88477Q9.9707 7.17773 9.56055 7.17773Q9.15039 7.17773 8.85254 6.88477Q8.55469 6.5918 8.55469 6.17188Q8.55469 5.76172 8.84766 5.46387Q9.14062 5.16602 9.56055 5.16602Z" fill="#007aff"/>
 </g>
</svg>
