<?xml version="1.0" encoding="UTF-8"?>
<!--Generator: Apple Native CoreSVG 175.5-->
<!DOCTYPE svg
PUBLIC "-//W3C//DTD SVG 1.1//EN"
       "http://www.w3.org/Graphics/SVG/1.1/DTD/svg11.dtd">
<svg version="1.1" xmlns="http://www.w3.org/2000/svg" xmlns:xlink="http://www.w3.org/1999/xlink" width="24.5801" height="15.4395">
 <g>
  <rect height="15.4395" opacity="0" width="24.5801" x="0" y="0"/>
  <path d="M3.06641 15.4297L21.5137 15.4297Q23.0371 15.4297 23.8086 14.668Q24.5801 13.9062 24.5801 12.4023L24.5801 3.01758Q24.5801 1.51367 23.8086 0.756836Q23.0371 0 21.5137 0L3.06641 0Q1.5332 0 0.766602 0.756836Q0 1.51367 0 3.01758L0 12.4023Q0 13.916 0.766602 14.6729Q1.5332 15.4297 3.06641 15.4297Z" fill="#007aff"/>
  <path d="M9.19922 5.35156Q8.90625 5.35156 8.90625 5.0293L8.90625 3.89648Q8.90625 3.57422 9.19922 3.57422L9.95117 3.57422Q10.2441 3.57422 10.2441 3.89648L10.2441 5.0293Q10.2441 5.35156 9.95117 5.35156ZM11.416 5.35156Q11.1133 5.35156 11.1133 5.0293L11.1133 3.89648Q11.1133 3.57422 11.416 3.57422L12.1582 3.57422Q12.4512 3.57422 12.4512 3.89648L12.4512 5.0293Q12.4512 5.35156 12.1582 5.35156ZM13.6328 5.35156Q13.3301 5.35156 13.3301 5.0293L13.3301 3.89648Q13.3301 3.57422 13.6328 3.57422L14.375 3.57422Q14.668 3.57422 14.668 3.89648L14.668 5.0293Q14.668 5.35156 14.375 5.35156ZM15.8398 5.35156Q15.5371 5.35156 15.5371 5.0293L15.5371 3.89648Q15.5371 3.57422 15.8398 3.57422L16.5625 3.57422Q16.8652 3.57422 16.8652 3.89648L16.8652 5.0293Q16.8652 5.35156 16.5625 5.35156ZM18.0371 5.35156Q17.7539 5.35156 17.7539 5.0293L17.7539 3.89648Q17.7539 3.57422 18.0371 3.57422L18.7891 3.57422Q19.082 3.57422 19.082 3.89648L19.082 5.0293Q19.082 5.35156 18.7891 5.35156ZM20.2637 5.35156Q19.9609 5.35156 19.9609 5.0293L19.9609 3.89648Q19.9609 3.57422 20.2637 3.57422L20.9863 3.57422Q21.2891 3.57422 21.2891 3.89648L21.2891 5.0293Q21.2891 5.35156 20.9863 5.35156ZM9.19922 8.58398Q8.90625 8.58398 8.90625 8.26172L8.90625 7.13867Q8.90625 6.81641 9.19922 6.81641L9.95117 6.81641Q10.2441 6.81641 10.2441 7.13867L10.2441 8.26172Q10.2441 8.58398 9.95117 8.58398ZM11.416 8.58398Q11.1133 8.58398 11.1133 8.26172L11.1133 7.13867Q11.1133 6.81641 11.416 6.81641L12.1582 6.81641Q12.4512 6.81641 12.4512 7.13867L12.4512 8.26172Q12.4512 8.58398 12.1582 8.58398ZM13.6328 8.58398Q13.3301 8.58398 13.3301 8.26172L13.3301 7.13867Q13.3301 6.81641 13.6328 6.81641L14.375 6.81641Q14.668 6.81641 14.668 7.13867L14.668 8.26172Q14.668 8.58398 14.375 8.58398ZM15.8398 8.58398Q15.5371 8.58398 15.5371 8.26172L15.5371 7.13867Q15.5371 6.81641 15.8398 6.81641L16.5625 6.81641Q16.8652 6.81641 16.8652 7.13867L16.8652 8.26172Q16.8652 8.58398 16.5625 8.58398ZM18.0371 8.58398Q17.7539 8.58398 17.7539 8.26172L17.7539 7.13867Q17.7539 6.81641 18.0371 6.81641L18.7891 6.81641Q19.082 6.81641 19.082 7.13867L19.082 8.26172Q19.082 8.58398 18.7891 8.58398ZM20.2637 8.58398Q19.9609 8.58398 19.9609 8.26172L19.9609 7.13867Q19.9609 6.81641 20.2637 6.81641L20.9863 6.81641Q21.2891 6.81641 21.2891 7.13867L21.2891 8.26172Q21.2891 8.58398 20.9863 8.58398ZM9.19922 11.8262Q8.90625 11.8262 8.90625 11.5039L8.90625 10.3711Q8.90625 10.0488 9.19922 10.0488L9.95117 10.0488Q10.2441 10.0488 10.2441 10.3711L10.2441 11.5039Q10.2441 11.8262 9.95117 11.8262ZM11.416 11.8262Q11.1133 11.8262 11.1133 11.5039L11.1133 10.3711Q11.1133 10.0488 11.416 10.0488L18.7891 10.0488Q19.082 10.0488 19.082 10.3711L19.082 11.5039Q19.082 11.8262 18.7891 11.8262ZM20.2637 11.8262Q19.9609 11.8262 19.9609 11.5039L19.9609 10.3711Q19.9609 10.0488 20.2637 10.0488L20.9863 10.0488Q21.2891 10.0488 21.2891 10.3711L21.2891 11.5039Q21.2891 11.8262 20.9863 11.8262ZM7.1582 7.14844Q7.43164 7.41211 7.43164 7.70996Q7.43164 8.00781 7.1582 8.27148L4.20898 11.084Q3.95508 11.3184 3.61816 11.2305Q3.28125 11.1426 3.28125 10.7324L3.28125 4.6875Q3.28125 4.28711 3.61816 4.19434Q3.95508 4.10156 4.20898 4.3457Z" fill="#007aff"/>
 </g>
</svg>
