<?xml version="1.0" encoding="UTF-8"?>
<!--Generator: Apple Native CoreSVG 175.5-->
<!DOCTYPE svg
PUBLIC "-//W3C//DTD SVG 1.1//EN"
       "http://www.w3.org/Graphics/SVG/1.1/DTD/svg11.dtd">
<svg version="1.1" xmlns="http://www.w3.org/2000/svg" xmlns:xlink="http://www.w3.org/1999/xlink" width="31.4648" height="15.4395">
 <g>
  <rect height="15.4395" opacity="0" width="31.4648" x="0" y="0"/>
  <path d="M3.00781 12.2754Q3.22266 12.5684 3.47168 12.6514Q3.7207 12.7344 3.9502 12.666Q4.17969 12.5977 4.33105 12.417Q4.48242 12.2363 4.50195 12.002Q4.52148 11.7676 4.3457 11.5234L1.63086 7.70508L4.3457 3.90625Q4.52148 3.66211 4.50195 3.42773Q4.48242 3.19336 4.33105 3.01758Q4.17969 2.8418 3.9502 2.76855Q3.7207 2.69531 3.47168 2.77832Q3.22266 2.86133 3.00781 3.1543L0.224609 7.02148Q0 7.34375 0 7.71484Q0 8.08594 0.224609 8.39844ZM9.95117 15.4297L28.3984 15.4297Q29.9219 15.4297 30.6934 14.668Q31.4648 13.9062 31.4648 12.4023L31.4648 3.01758Q31.4648 1.51367 30.6934 0.756836Q29.9219 0 28.3984 0L9.95117 0Q8.41797 0 7.65137 0.756836Q6.88477 1.51367 6.88477 3.01758L6.88477 12.4023Q6.88477 13.916 7.65137 14.6729Q8.41797 15.4297 9.95117 15.4297ZM10.5957 5.37109Q10.1465 5.37109 10.1465 4.92188L10.1465 3.99414Q10.1465 3.54492 10.5957 3.54492L11.5137 3.54492Q11.9727 3.54492 11.9727 3.99414L11.9727 4.92188Q11.9727 5.37109 11.5137 5.37109ZM13.8281 5.37109Q13.3789 5.37109 13.3789 4.92188L13.3789 3.99414Q13.3789 3.54492 13.8281 3.54492L14.7559 3.54492Q15.2148 3.54492 15.2148 3.99414L15.2148 4.92188Q15.2148 5.37109 14.7559 5.37109ZM17.0703 5.37109Q16.6211 5.37109 16.6211 4.92188L16.6211 3.99414Q16.6211 3.54492 17.0703 3.54492L17.9883 3.54492Q18.4473 3.54492 18.4473 3.99414L18.4473 4.92188Q18.4473 5.37109 17.9883 5.37109ZM20.3223 5.37109Q19.8633 5.37109 19.8633 4.92188L19.8633 3.99414Q19.8633 3.54492 20.3223 3.54492L21.2402 3.54492Q21.6895 3.54492 21.6895 3.99414L21.6895 4.92188Q21.6895 5.37109 21.2402 5.37109ZM23.5547 5.37109Q23.0957 5.37109 23.0957 4.92188L23.0957 3.99414Q23.0957 3.54492 23.5547 3.54492L24.4824 3.54492Q24.9316 3.54492 24.9316 3.99414L24.9316 4.92188Q24.9316 5.37109 24.4824 5.37109ZM26.7969 5.37109Q26.3379 5.37109 26.3379 4.92188L26.3379 3.99414Q26.3379 3.54492 26.7969 3.54492L27.7148 3.54492Q28.1641 3.54492 28.1641 3.99414L28.1641 4.92188Q28.1641 5.37109 27.7148 5.37109ZM10.5957 8.61328Q10.1465 8.61328 10.1465 8.16406L10.1465 7.23633Q10.1465 6.78711 10.5957 6.78711L11.5137 6.78711Q11.9727 6.78711 11.9727 7.23633L11.9727 8.16406Q11.9727 8.61328 11.5137 8.61328ZM13.8281 8.61328Q13.3789 8.61328 13.3789 8.16406L13.3789 7.23633Q13.3789 6.78711 13.8281 6.78711L14.7559 6.78711Q15.2148 6.78711 15.2148 7.23633L15.2148 8.16406Q15.2148 8.61328 14.7559 8.61328ZM17.0703 8.61328Q16.6211 8.61328 16.6211 8.16406L16.6211 7.23633Q16.6211 6.78711 17.0703 6.78711L17.9883 6.78711Q18.4473 6.78711 18.4473 7.23633L18.4473 8.16406Q18.4473 8.61328 17.9883 8.61328ZM20.3223 8.61328Q19.8633 8.61328 19.8633 8.16406L19.8633 7.23633Q19.8633 6.78711 20.3223 6.78711L21.2402 6.78711Q21.6895 6.78711 21.6895 7.23633L21.6895 8.16406Q21.6895 8.61328 21.2402 8.61328ZM23.5547 8.61328Q23.0957 8.61328 23.0957 8.16406L23.0957 7.23633Q23.0957 6.78711 23.5547 6.78711L24.4824 6.78711Q24.9316 6.78711 24.9316 7.23633L24.9316 8.16406Q24.9316 8.61328 24.4824 8.61328ZM26.7969 8.61328Q26.3379 8.61328 26.3379 8.16406L26.3379 7.23633Q26.3379 6.78711 26.7969 6.78711L27.7148 6.78711Q28.1641 6.78711 28.1641 7.23633L28.1641 8.16406Q28.1641 8.61328 27.7148 8.61328ZM10.5957 11.8555Q10.1465 11.8555 10.1465 11.4062L10.1465 10.4785Q10.1465 10.0293 10.5957 10.0293L11.5137 10.0293Q11.9727 10.0293 11.9727 10.4785L11.9727 11.4062Q11.9727 11.8555 11.5137 11.8555ZM13.9355 11.8555Q13.3789 11.8555 13.3789 11.2988L13.3789 10.5762Q13.3789 10.0293 13.9355 10.0293L24.375 10.0293Q24.9316 10.0293 24.9316 10.5762L24.9316 11.2988Q24.9316 11.8555 24.375 11.8555ZM26.7969 11.8555Q26.3379 11.8555 26.3379 11.4062L26.3379 10.4785Q26.3379 10.0293 26.7969 10.0293L27.7148 10.0293Q28.1641 10.0293 28.1641 10.4785L28.1641 11.4062Q28.1641 11.8555 27.7148 11.8555Z" fill="#007aff"/>
 </g>
</svg>
