<?xml version="1.0" encoding="UTF-8"?>
<!--Generator: Apple Native CoreSVG 175.5-->
<!DOCTYPE svg
PUBLIC "-//W3C//DTD SVG 1.1//EN"
       "http://www.w3.org/Graphics/SVG/1.1/DTD/svg11.dtd">
<svg version="1.1" xmlns="http://www.w3.org/2000/svg" xmlns:xlink="http://www.w3.org/1999/xlink" width="24.5801" height="25.9863">
 <g>
  <rect height="25.9863" opacity="0" width="24.5801" x="0" y="0"/>
  <path d="M12.2852 25.9863Q12.5781 25.9863 12.915 25.8691Q13.252 25.752 13.5449 25.6445L18.623 23.7793Q18.9062 23.6719 19.0283 23.457Q19.1504 23.2422 19.1504 23.0762Q19.1504 22.7246 18.916 22.4658Q18.6816 22.207 18.3008 22.207Q18.1152 22.207 17.8809 22.2852Q17.6465 22.3633 17.4805 22.4316L11.6895 24.5898L12.9004 24.5898L7.09961 22.4316Q6.93359 22.3633 6.70898 22.2852Q6.48438 22.207 6.28906 22.207Q5.92773 22.207 5.68359 22.4561Q5.43945 22.7051 5.43945 23.0762Q5.43945 23.2422 5.55664 23.457Q5.67383 23.6719 5.9668 23.7793L11.0352 25.6445Q11.3379 25.7617 11.6748 25.874Q12.0117 25.9863 12.2852 25.9863ZM3.06641 20.7031L21.5137 20.7031Q23.0371 20.7031 23.8086 19.9414Q24.5801 19.1797 24.5801 17.6758L24.5801 8.29102Q24.5801 6.78711 23.8086 6.03027Q23.0371 5.27344 21.5137 5.27344L3.06641 5.27344Q1.5332 5.27344 0.766602 6.03027Q0 6.78711 0 8.29102L0 17.6758Q0 19.1895 0.766602 19.9463Q1.5332 20.7031 3.06641 20.7031ZM3.08594 19.1309Q2.35352 19.1309 1.96289 18.7402Q1.57227 18.3496 1.57227 17.5879L1.57227 8.37891Q1.57227 7.61719 1.96289 7.23145Q2.35352 6.8457 3.08594 6.8457L21.4844 6.8457Q22.207 6.8457 22.6074 7.23145Q23.0078 7.61719 23.0078 8.37891L23.0078 17.5879Q23.0078 18.3496 22.6074 18.7402Q22.207 19.1309 21.4844 19.1309ZM3.96484 10.7129L4.86328 10.7129Q5.30273 10.7129 5.30273 10.2832L5.30273 9.38477Q5.30273 8.94531 4.86328 8.94531L3.96484 8.94531Q3.53516 8.94531 3.53516 9.38477L3.53516 10.2832Q3.53516 10.7129 3.96484 10.7129ZM7.10938 10.7129L8.00781 10.7129Q8.4375 10.7129 8.4375 10.2832L8.4375 9.38477Q8.4375 8.94531 8.00781 8.94531L7.10938 8.94531Q6.66992 8.94531 6.66992 9.38477L6.66992 10.2832Q6.66992 10.7129 7.10938 10.7129ZM10.2539 10.7129L11.1426 10.7129Q11.582 10.7129 11.582 10.2832L11.582 9.38477Q11.582 8.94531 11.1426 8.94531L10.2539 8.94531Q9.81445 8.94531 9.81445 9.38477L9.81445 10.2832Q9.81445 10.7129 10.2539 10.7129ZM13.3887 10.7129L14.2871 10.7129Q14.7266 10.7129 14.7266 10.2832L14.7266 9.38477Q14.7266 8.94531 14.2871 8.94531L13.3887 8.94531Q12.959 8.94531 12.959 9.38477L12.959 10.2832Q12.959 10.7129 13.3887 10.7129ZM16.5332 10.7129L17.4316 10.7129Q17.8613 10.7129 17.8613 10.2832L17.8613 9.38477Q17.8613 8.94531 17.4316 8.94531L16.5332 8.94531Q16.0938 8.94531 16.0938 9.38477L16.0938 10.2832Q16.0938 10.7129 16.5332 10.7129ZM19.6777 10.7129L20.5664 10.7129Q21.0059 10.7129 21.0059 10.2832L21.0059 9.38477Q21.0059 8.94531 20.5664 8.94531L19.6777 8.94531Q19.2383 8.94531 19.2383 9.38477L19.2383 10.2832Q19.2383 10.7129 19.6777 10.7129ZM3.96484 13.8574L4.86328 13.8574Q5.30273 13.8574 5.30273 13.418L5.30273 12.5293Q5.30273 12.0898 4.86328 12.0898L3.96484 12.0898Q3.53516 12.0898 3.53516 12.5293L3.53516 13.418Q3.53516 13.8574 3.96484 13.8574ZM7.10938 13.8574L8.00781 13.8574Q8.4375 13.8574 8.4375 13.418L8.4375 12.5293Q8.4375 12.0898 8.00781 12.0898L7.10938 12.0898Q6.66992 12.0898 6.66992 12.5293L6.66992 13.418Q6.66992 13.8574 7.10938 13.8574ZM10.2539 13.8574L11.1426 13.8574Q11.582 13.8574 11.582 13.418L11.582 12.5293Q11.582 12.0898 11.1426 12.0898L10.2539 12.0898Q9.81445 12.0898 9.81445 12.5293L9.81445 13.418Q9.81445 13.8574 10.2539 13.8574ZM13.3887 13.8574L14.2871 13.8574Q14.7266 13.8574 14.7266 13.418L14.7266 12.5293Q14.7266 12.0898 14.2871 12.0898L13.3887 12.0898Q12.959 12.0898 12.959 12.5293L12.959 13.418Q12.959 13.8574 13.3887 13.8574ZM16.5332 13.8574L17.4316 13.8574Q17.8613 13.8574 17.8613 13.418L17.8613 12.5293Q17.8613 12.0898 17.4316 12.0898L16.5332 12.0898Q16.0938 12.0898 16.0938 12.5293L16.0938 13.418Q16.0938 13.8574 16.5332 13.8574ZM19.6777 13.8574L20.5664 13.8574Q21.0059 13.8574 21.0059 13.418L21.0059 12.5293Q21.0059 12.0898 20.5664 12.0898L19.6777 12.0898Q19.2383 12.0898 19.2383 12.5293L19.2383 13.418Q19.2383 13.8574 19.6777 13.8574ZM3.96484 17.002L4.86328 17.002Q5.30273 17.002 5.30273 16.5625L5.30273 15.6641Q5.30273 15.2344 4.86328 15.2344L3.96484 15.2344Q3.53516 15.2344 3.53516 15.6641L3.53516 16.5625Q3.53516 17.002 3.96484 17.002ZM7.20703 17.002L17.334 17.002Q17.8613 17.002 17.8613 16.4648L17.8613 15.7617Q17.8613 15.2344 17.334 15.2344L7.20703 15.2344Q6.66992 15.2344 6.66992 15.7617L6.66992 16.4648Q6.66992 17.002 7.20703 17.002ZM19.6777 17.002L20.5664 17.002Q21.0059 17.002 21.0059 16.5625L21.0059 15.6641Q21.0059 15.2344 20.5664 15.2344L19.6777 15.2344Q19.2383 15.2344 19.2383 15.6641L19.2383 16.5625Q19.2383 17.002 19.6777 17.002Z" fill="#007aff"/>
 </g>
</svg>
