<?xml version="1.0" encoding="UTF-8"?>
<!--Generator: Apple Native CoreSVG 175-->
<!DOCTYPE svg
PUBLIC "-//W3C//DTD SVG 1.1//EN"
       "http://www.w3.org/Graphics/SVG/1.1/DTD/svg11.dtd">
<svg version="1.1" xmlns="http://www.w3.org/2000/svg" xmlns:xlink="http://www.w3.org/1999/xlink" width="19.1602" height="19.1504">
 <g>
  <rect height="19.1504" opacity="0" width="19.1602" x="0" y="0"/>
  <path d="M9.57031 19.1406Q11.5527 19.1406 13.2861 18.3984Q15.0195 17.6562 16.3379 16.333Q17.6562 15.0098 18.4082 13.2764Q19.1602 11.543 19.1602 9.57031Q19.1602 7.59766 18.4082 5.86426Q17.6562 4.13086 16.3379 2.80762Q15.0195 1.48438 13.2861 0.742188Q11.5527 0 9.57031 0Q7.59766 0 5.86426 0.742188Q4.13086 1.48438 2.81738 2.80762Q1.50391 4.13086 0.751953 5.86426Q0 7.59766 0 9.57031Q0 11.543 0.74707 13.2764Q1.49414 15.0098 2.8125 16.333Q4.13086 17.6562 5.86914 18.3984Q7.60742 19.1406 9.57031 19.1406ZM9.57031 18.3984Q7.74414 18.3984 6.14746 17.71Q4.55078 17.0215 3.33496 15.8105Q2.11914 14.5996 1.43555 12.998Q0.751953 11.3965 0.751953 9.57031Q0.751953 7.74414 1.43555 6.14258Q2.11914 4.54102 3.33496 3.3252Q4.55078 2.10938 6.14746 1.4209Q7.74414 0.732422 9.57031 0.732422Q11.4062 0.732422 13.0029 1.4209Q14.5996 2.10938 15.8154 3.3252Q17.0312 4.54102 17.7197 6.14258Q18.4082 7.74414 18.4082 9.57031Q18.4082 11.3965 17.7246 12.998Q17.041 14.5996 15.8252 15.8105Q14.6094 17.0215 13.0078 17.71Q11.4062 18.3984 9.57031 18.3984ZM6.38672 9.70703Q6.38672 9.82422 6.46973 9.91699Q6.55273 10.0098 6.69922 10.0098L7.35352 10.0098L7.35352 13.6816Q7.35352 13.8379 7.45117 13.9307Q7.54883 14.0234 7.68555 14.0234Q7.83203 14.0234 7.9248 13.9307Q8.01758 13.8379 8.01758 13.6816L8.01758 10.0098L8.53516 10.0098L11.9336 13.9062Q12.0508 14.0234 12.1875 14.0234Q12.3145 14.0234 12.4072 13.9355Q12.5 13.8477 12.5 13.7207Q12.5 13.5742 12.4023 13.457L9.35547 10.0098L12.4121 10.0098Q12.5586 10.0098 12.6367 9.91699Q12.7148 9.82422 12.7148 9.70703Q12.7148 9.58008 12.6367 9.49219Q12.5586 9.4043 12.4121 9.4043L9.36523 9.4043L12.4219 5.94727Q12.5098 5.84961 12.5098 5.71289Q12.5098 5.57617 12.4219 5.48828Q12.334 5.40039 12.207 5.40039Q12.041 5.40039 11.9141 5.56641L8.55469 9.4043L8.01758 9.4043L8.01758 5.74219Q8.01758 5.57617 7.9248 5.48828Q7.83203 5.40039 7.68555 5.40039Q7.53906 5.40039 7.44629 5.48828Q7.35352 5.57617 7.35352 5.74219L7.35352 9.4043L6.69922 9.4043Q6.55273 9.4043 6.46973 9.49219Q6.38672 9.58008 6.38672 9.70703Z" fill="#007aff"/>
 </g>
</svg>
