<?xml version="1.0" encoding="UTF-8"?>
<!--Generator: Apple Native CoreSVG 175.5-->
<!DOCTYPE svg
PUBLIC "-//W3C//DTD SVG 1.1//EN"
       "http://www.w3.org/Graphics/SVG/1.1/DTD/svg11.dtd">
<svg version="1.1" xmlns="http://www.w3.org/2000/svg" xmlns:xlink="http://www.w3.org/1999/xlink" width="19.9805" height="19.1113">
 <g>
  <rect height="19.1113" opacity="0" width="19.9805" x="0" y="0"/>
  <path d="M9.99023 14.6777Q12.334 14.6777 14.1846 14.1895Q16.0352 13.7012 17.3291 12.832Q18.623 11.9629 19.3018 10.8252Q19.9805 9.6875 19.9805 8.37891Q19.9805 7.08008 19.3018 5.9375Q18.623 4.79492 17.3242 3.93066Q16.0254 3.06641 14.1748 2.57812Q12.3242 2.08984 9.98047 2.08984Q7.64648 2.08984 5.7959 2.57812Q3.94531 3.06641 2.65137 3.93066Q1.35742 4.79492 0.678711 5.9375Q0 7.08008 0 8.37891Q0 9.6875 0.678711 10.8252Q1.35742 11.9629 2.65137 12.832Q3.94531 13.7012 5.7959 14.1895Q7.64648 14.6777 9.99023 14.6777ZM9.99023 19.1113Q11.7676 19.1113 12.7686 18.3203Q13.7695 17.5293 13.7695 16.123L13.7695 15.6348Q12.8809 15.8105 11.9385 15.9082Q10.9961 16.0059 9.99023 16.0059Q8.99414 16.0059 8.04688 15.9082Q7.09961 15.8105 6.2207 15.6348L6.2207 16.123Q6.2207 17.5293 7.2168 18.3203Q8.21289 19.1113 9.99023 19.1113Z" fill="#007aff"/>
  <path d="M8.65234 11.543Q8.32031 11.543 8.11523 11.3135Q7.91016 11.084 7.91016 10.7227L7.91016 5.69336Q7.91016 5.32227 8.11523 5.10254Q8.32031 4.88281 8.65234 4.88281Q8.99414 4.88281 9.2041 5.10254Q9.41406 5.32227 9.41406 5.69336L9.41406 10.2344L11.7676 10.2344Q12.0605 10.2344 12.2461 10.415Q12.4316 10.5957 12.4316 10.8887Q12.4316 11.1719 12.2461 11.3574Q12.0605 11.543 11.7676 11.543Z" fill="#ffffff"/>
 </g>
</svg>
