<?xml version="1.0" encoding="UTF-8"?>
<!--Generator: Apple Native CoreSVG 175-->
<!DOCTYPE svg
PUBLIC "-//W3C//DTD SVG 1.1//EN"
       "http://www.w3.org/Graphics/SVG/1.1/DTD/svg11.dtd">
<svg version="1.1" xmlns="http://www.w3.org/2000/svg" xmlns:xlink="http://www.w3.org/1999/xlink" width="22.4805" height="27.5293">
 <g>
  <rect height="27.5293" opacity="0" width="22.4805" x="0" y="0"/>
  <path d="M11.2402 22.0312Q12.9492 22.0312 14.4531 21.3867Q15.957 20.7422 17.0898 19.6045Q18.2227 18.4668 18.8672 16.9727Q19.5117 15.4785 19.5117 13.7598Q19.5117 12.041 18.8672 10.542Q18.2227 9.04297 17.0898 7.91016Q15.957 6.77734 14.4531 6.13281Q12.9492 5.48828 11.2402 5.48828Q9.52148 5.48828 8.02734 6.13281Q6.5332 6.77734 5.39551 7.91016Q4.25781 9.04297 3.61328 10.542Q2.96875 12.041 2.96875 13.7598Q2.96875 15.4785 3.61328 16.9727Q4.25781 18.4668 5.39551 19.6045Q6.5332 20.7422 8.02734 21.3867Q9.52148 22.0312 11.2402 22.0312ZM11.2402 21.2988Q9.67773 21.2988 8.31055 20.7178Q6.94336 20.1367 5.90332 19.0967Q4.86328 18.0566 4.27734 16.6895Q3.69141 15.3223 3.69141 13.7598Q3.69141 12.1875 4.27734 10.8203Q4.86328 9.45312 5.90332 8.41797Q6.94336 7.38281 8.31055 6.79688Q9.67773 6.21094 11.2402 6.21094Q12.8027 6.21094 14.1748 6.79688Q15.5469 7.38281 16.582 8.41797Q17.6172 9.45312 18.2031 10.8203Q18.7891 12.1875 18.7891 13.7598Q18.7891 15.3223 18.2031 16.6895Q17.6172 18.0566 16.582 19.0967Q15.5469 20.1367 14.1748 20.7178Q12.8027 21.2988 11.2402 21.2988ZM11.2402 25Q13.1055 25 14.7852 24.4336Q16.4648 23.8672 17.876 22.8369Q19.2871 21.8066 20.3174 20.4004Q21.3477 18.9941 21.9141 17.3096Q22.4805 15.625 22.4805 13.7598Q22.4805 11.8359 21.875 10.0977Q21.2695 8.35938 20.166 6.92871Q19.0625 5.49805 17.5732 4.47754Q16.084 3.45703 14.3164 2.94922Q14.3066 3.13477 14.2432 3.31543Q14.1797 3.49609 14.0625 3.63281Q15.7324 4.0918 17.1338 5.04883Q18.5352 6.00586 19.5703 7.34863Q20.6055 8.69141 21.1816 10.3223Q21.7578 11.9531 21.7578 13.7598Q21.7578 15.9375 20.9375 17.8467Q20.1172 19.7559 18.6719 21.1963Q17.2266 22.6367 15.3223 23.4521Q13.418 24.2676 11.2402 24.2676Q9.0625 24.2676 7.15332 23.4521Q5.24414 22.6367 3.80371 21.1914Q2.36328 19.7461 1.54785 17.8418Q0.732422 15.9375 0.732422 13.7598Q0.732422 11.9434 1.30371 10.3125Q1.875 8.68164 2.91016 7.34375Q3.94531 6.00586 5.35156 5.05371Q6.75781 4.10156 8.42773 3.63281Q8.30078 3.49609 8.2373 3.31543Q8.17383 3.13477 8.16406 2.94922Q6.39648 3.44727 4.90723 4.46777Q3.41797 5.48828 2.31445 6.92383Q1.21094 8.35938 0.605469 10.0928Q0 11.8262 0 13.7598Q0 15.625 0.566406 17.3096Q1.13281 18.9941 2.16309 20.3955Q3.19336 21.7969 4.59961 22.8271Q6.00586 23.8574 7.69043 24.4287Q9.375 25 11.2402 25ZM9.14062 2.46094Q8.94531 2.71484 9.04297 2.97852Q9.14062 3.24219 9.45312 3.24219L13.0371 3.24219Q13.3496 3.24219 13.4473 2.97852Q13.5449 2.71484 13.3496 2.46094L11.6504 0.205078Q11.4941 0 11.2451 0Q10.9961 0 10.8398 0.205078ZM9.33594 17.8613L13.7305 17.8613Q13.877 17.8613 13.9648 17.7783Q14.0527 17.6953 14.0527 17.5488Q14.0527 17.4023 13.96 17.3193Q13.8672 17.2363 13.7305 17.2363L9.6875 17.2363L9.6875 9.94141Q9.6875 9.76562 9.59473 9.66309Q9.50195 9.56055 9.33594 9.56055Q9.16992 9.56055 9.07715 9.66309Q8.98438 9.76562 8.98438 9.94141L8.98438 17.4902Q8.98438 17.6562 9.07715 17.7588Q9.16992 17.8613 9.33594 17.8613Z" fill="#007aff"/>
 </g>
</svg>
