<?xml version="1.0" encoding="UTF-8"?>
<!--Generator: Apple Native CoreSVG 175-->
<!DOCTYPE svg
PUBLIC "-//W3C//DTD SVG 1.1//EN"
       "http://www.w3.org/Graphics/SVG/1.1/DTD/svg11.dtd">
<svg version="1.1" xmlns="http://www.w3.org/2000/svg" xmlns:xlink="http://www.w3.org/1999/xlink" width="22.7832" height="17.3145">
 <g>
  <rect height="17.3145" opacity="0" width="22.7832" x="0" y="0"/>
  <path d="M7.59766 0.0292969Q4.87305 0.0292969 3.20312 0.878906Q1.5332 1.72852 0.766602 3.40332Q0 5.07812 0 7.56836L0 14.6875Q0 15.9863 0.668945 16.6504Q1.33789 17.3145 2.62695 17.3145L20.1465 17.3145Q21.4453 17.3145 22.1143 16.6455Q22.7832 15.9766 22.7832 14.6875L22.7832 7.56836Q22.7832 5.07812 22.0215 3.40332Q21.2598 1.72852 19.585 0.878906Q17.9102 0.0292969 15.1855 0.0292969ZM6.33789 13.1348Q6.16211 13.1348 6.05957 13.0225Q5.95703 12.9102 5.95703 12.7344L5.95703 4.72656Q5.95703 4.55078 6.05469 4.44336Q6.15234 4.33594 6.33789 4.33594Q6.50391 4.33594 6.60645 4.44336Q6.70898 4.55078 6.70898 4.72656L6.70898 12.4609L10.957 12.4609Q11.1035 12.4609 11.2012 12.5537Q11.2988 12.6465 11.2988 12.793Q11.2988 12.9492 11.2061 13.042Q11.1133 13.1348 10.957 13.1348ZM12.5098 13.1348Q12.3242 13.1348 12.2217 13.0371Q12.1191 12.9395 12.1191 12.7637Q12.1191 12.666 12.1533 12.5977Q12.1875 12.5293 12.2559 12.4414L15.6348 8.78906Q16.1621 8.20312 16.4355 7.70508Q16.709 7.20703 16.709 6.67969Q16.709 5.91797 16.1914 5.45898Q15.6738 5 14.8047 5Q13.9453 5 13.3838 5.47363Q12.8223 5.94727 12.7441 6.65039Q12.7051 6.79688 12.6172 6.875Q12.5293 6.95312 12.373 6.95312Q12.207 6.95312 12.1143 6.85547Q12.0215 6.75781 12.0215 6.60156Q12.0215 6.52344 12.0312 6.45508Q12.041 6.38672 12.0508 6.30859Q12.1973 5.44922 12.9834 4.89258Q13.7695 4.33594 14.7852 4.33594Q15.9863 4.33594 16.709 4.9707Q17.4316 5.60547 17.4316 6.66016Q17.4316 7.31445 17.0996 7.9248Q16.7676 8.53516 16.0254 9.3457L13.1934 12.4023L13.1934 12.4609L17.4707 12.4609Q17.627 12.4609 17.7197 12.5537Q17.8125 12.6465 17.8125 12.793Q17.8125 12.9395 17.7197 13.0371Q17.627 13.1348 17.4707 13.1348Z" fill="#007aff"/>
 </g>
</svg>
