<?xml version="1.0" encoding="UTF-8"?>
<!--Generator: Apple Native CoreSVG 175.5-->
<!DOCTYPE svg
PUBLIC "-//W3C//DTD SVG 1.1//EN"
       "http://www.w3.org/Graphics/SVG/1.1/DTD/svg11.dtd">
<svg version="1.1" xmlns="http://www.w3.org/2000/svg" xmlns:xlink="http://www.w3.org/1999/xlink" width="22.1387" height="23.1529">
 <g>
  <rect height="23.1529" opacity="0" width="22.1387" x="0" y="0"/>
  <path d="M4.98047 8.44658L3.16406 6.91338Q2.89062 6.679 2.57324 6.66924Q2.25586 6.65947 2.03125 6.92314Q1.80664 7.19658 1.875 7.51396Q1.94336 7.83135 2.20703 8.05596L4.04297 9.59892ZM3.20312 13.0657L0.800781 13.0657Q0.439453 13.0657 0.219727 13.2708Q0 13.4759 0 13.8177Q0 14.1497 0.219727 14.3548Q0.439453 14.5599 0.810547 14.5599L3.20312 14.5501ZM3.99414 18.7786L2.16797 20.302Q1.9043 20.5267 1.84082 20.844Q1.77734 21.1614 2.00195 21.4251Q2.22656 21.6985 2.54395 21.6888Q2.86133 21.679 3.13477 21.4446L4.93164 19.9212ZM17.1582 8.44658L18.0957 9.59892L19.9316 8.05596Q20.1953 7.83135 20.2588 7.51396Q20.3223 7.19658 20.1074 6.92314Q19.8828 6.65947 19.5654 6.66924Q19.248 6.679 18.9746 6.91338ZM18.9355 13.0657L18.9355 14.5501L21.3281 14.5599Q21.6992 14.5599 21.9189 14.3548Q22.1387 14.1497 22.1387 13.8177Q22.1387 13.4759 21.9189 13.2708Q21.6992 13.0657 21.3379 13.0657ZM18.1445 18.7786L17.1973 19.9212L19.0039 21.4446Q19.2773 21.679 19.5947 21.6888Q19.9121 21.6985 20.1367 21.4251Q20.3613 21.1614 20.2979 20.844Q20.2344 20.5267 19.9609 20.302Z" fill="#000000"/>
  <path d="M2.49023 14.3353Q2.49023 16.6985 3.35449 18.5589Q4.21875 20.4192 5.77637 21.5862Q7.33398 22.7532 9.43359 23.0169Q9.93164 23.0755 10.1807 22.9046Q10.4297 22.7337 10.4297 22.3528L10.4297 11.2395Q10.4297 10.9759 10.6152 10.7903Q10.8008 10.6048 11.0645 10.6048Q11.3281 10.6048 11.5186 10.7903Q11.709 10.9759 11.709 11.2395L11.709 22.3528Q11.709 22.7337 11.958 22.9046Q12.207 23.0755 12.7051 23.0169Q14.8047 22.7532 16.3623 21.5862Q17.9199 20.4192 18.7842 18.5589Q19.6484 16.6985 19.6484 14.3353Q19.6484 13.2806 19.3945 12.0892Q19.1406 10.8978 18.6816 9.86748Q18.2227 8.83721 17.5977 8.25127Q17.1191 7.81181 16.8066 7.7581Q16.4941 7.70439 16.2207 7.82158Q15.1367 8.30986 13.8086 8.59306Q12.4805 8.87627 11.0645 8.87627Q9.6582 8.87627 8.33008 8.59306Q7.00195 8.30986 5.91797 7.82158Q5.64453 7.70439 5.33203 7.7581Q5.01953 7.81181 4.54102 8.25127Q3.91602 8.83721 3.45703 9.86748Q2.99805 10.8978 2.74414 12.0892Q2.49023 13.2806 2.49023 14.3353Z" fill="#ff453a"/>
  <path d="M7.26562 12.4798Q6.74805 12.4798 6.38184 12.1038Q6.01562 11.7278 6.01562 11.22Q6.01562 10.7024 6.38184 10.3313Q6.74805 9.96025 7.26562 9.96025Q7.7832 9.96025 8.1543 10.3313Q8.52539 10.7024 8.52539 11.22Q8.52539 11.7278 8.1543 12.1038Q7.7832 12.4798 7.26562 12.4798ZM6.2207 16.679Q5.61523 16.679 5.18555 16.2493Q4.75586 15.8196 4.75586 15.2044Q4.75586 14.6087 5.18555 14.179Q5.61523 13.7493 6.2207 13.7493Q6.81641 13.7493 7.25098 14.179Q7.68555 14.6087 7.68555 15.2044Q7.68555 15.8196 7.25098 16.2493Q6.81641 16.679 6.2207 16.679ZM7.46094 20.2532Q7.01172 20.2532 6.69922 19.9407Q6.38672 19.6282 6.38672 19.179Q6.38672 18.7298 6.69922 18.4173Q7.01172 18.1048 7.46094 18.1048Q7.91016 18.1048 8.22754 18.4173Q8.54492 18.7298 8.54492 19.179Q8.54492 19.6282 8.22754 19.9407Q7.91016 20.2532 7.46094 20.2532ZM14.873 12.4798Q14.3555 12.4798 13.9844 12.1038Q13.6133 11.7278 13.6133 11.22Q13.6133 10.7024 13.9844 10.3313Q14.3555 9.96025 14.873 9.96025Q15.3906 9.96025 15.7568 10.3313Q16.123 10.7024 16.123 11.22Q16.123 11.7278 15.7568 12.1038Q15.3906 12.4798 14.873 12.4798ZM15.918 16.679Q15.3125 16.679 14.8828 16.2493Q14.4531 15.8196 14.4531 15.2044Q14.4531 14.6087 14.8828 14.179Q15.3125 13.7493 15.918 13.7493Q16.5234 13.7493 16.9531 14.179Q17.3828 14.6087 17.3828 15.2044Q17.3828 15.8196 16.9531 16.2493Q16.5234 16.679 15.918 16.679ZM14.6777 20.2532Q14.2285 20.2532 13.9111 19.9407Q13.5938 19.6282 13.5938 19.179Q13.5938 18.7298 13.9111 18.4173Q14.2285 18.1048 14.6777 18.1048Q15.127 18.1048 15.4395 18.4173Q15.752 18.7298 15.752 19.179Q15.752 19.6282 15.4395 19.9407Q15.127 20.2532 14.6777 20.2532Z" fill="#000000"/>
  <path d="M5.87891 5.72197Q5.87891 6.1126 6.05957 6.42021Q6.24023 6.72783 6.70898 6.94267Q7.50977 7.31377 8.66699 7.52861Q9.82422 7.74346 11.0645 7.74346Q12.3145 7.74346 13.4717 7.52861Q14.6289 7.31377 15.4297 6.94267Q15.8984 6.72783 16.0791 6.42021Q16.2598 6.1126 16.2598 5.72197Q16.2598 4.64775 15.6152 3.77373Q14.9707 2.89971 13.8037 2.38213Q12.6367 1.86455 11.0645 1.86455Q9.50195 1.86455 8.33496 2.38213Q7.16797 2.89971 6.52344 3.77373Q5.87891 4.64775 5.87891 5.72197ZM6.76758 1.41533L7.43164 1.65947Q7.74414 1.76689 7.87109 1.94267Q7.99805 2.11846 7.93945 2.37236L7.82227 2.87041L9.25781 2.86064L9.32617 2.3626Q9.4043 1.64971 9.07715 1.13701Q8.75 0.624315 8.02734 0.370408L7.25586 0.0579084Q6.89453-0.0690447 6.64062 0.0823225Q6.38672 0.23369 6.29395 0.507127Q6.20117 0.780565 6.30859 1.04424Q6.41602 1.30791 6.76758 1.41533ZM15.3711 1.41533Q15.7227 1.30791 15.8301 1.04424Q15.9375 0.780565 15.8447 0.507127Q15.752 0.23369 15.498 0.0823225Q15.2441-0.0690447 14.8828 0.0579084L14.1113 0.370408Q13.3887 0.624315 13.0566 1.13701Q12.7246 1.64971 12.8125 2.3626L12.8809 2.86064L14.3164 2.87041L14.1992 2.37236Q14.1406 2.11846 14.2676 1.94267Q14.3945 1.76689 14.707 1.65947Z" fill="#000000"/>
 </g>
</svg>
