<?xml version="1.0" encoding="UTF-8"?>
<!--Generator: Apple Native CoreSVG 175.5-->
<!DOCTYPE svg
PUBLIC "-//W3C//DTD SVG 1.1//EN"
       "http://www.w3.org/Graphics/SVG/1.1/DTD/svg11.dtd">
<svg version="1.1" xmlns="http://www.w3.org/2000/svg" xmlns:xlink="http://www.w3.org/1999/xlink" width="15.1038" height="23.6426">
 <g>
  <rect height="23.6426" opacity="0" width="15.1038" x="0" y="0"/>
  <path d="M7.55188 11.543Q9.16321 11.543 10.7159 11.4453Q12.2687 11.3477 13.587 11.1426Q14.6124 10.9961 14.9542 10.2881Q15.296 9.58008 14.8566 8.56445L11.9562 2.03125Q11.4972 0.996094 10.7306 0.498047Q9.96399 0 8.81165 0L6.28235 0Q5.13977 0 4.36829 0.498047Q3.5968 0.996094 3.14758 2.03125L0.247192 8.56445Q-0.192261 9.58008 0.149536 10.2881Q0.491333 10.9961 1.51672 11.1426Q2.82532 11.3477 4.38293 11.4453Q5.94055 11.543 7.55188 11.543ZM7.55188 10.1074Q6.22375 10.1074 4.87122 10.0293Q3.51868 9.95117 2.0636 9.78516Q1.65344 9.73633 1.57043 9.50684Q1.48743 9.27734 1.66321 8.87695L4.43665 2.61719Q4.71008 2.01172 5.16418 1.71875Q5.61829 1.42578 6.28235 1.42578L8.81165 1.42578Q9.48547 1.42578 9.93958 1.71875Q10.3937 2.01172 10.6671 2.61719L13.4406 8.87695Q13.6163 9.27734 13.5284 9.50684Q13.4406 9.73633 13.0402 9.78516Q11.5851 9.95117 10.2325 10.0293Q8.88 10.1074 7.55188 10.1074ZM6.73157 12.998L8.36243 12.998L8.36243 11.1133L6.73157 11.1133ZM6.04797 23.6328L9.04602 23.6328Q10.9308 23.6328 11.9904 22.71Q13.0499 21.7871 13.0499 20.1367Q13.0499 19.1016 12.7374 17.6465Q12.4249 16.1914 11.8683 14.6387Q11.5363 13.7402 10.838 13.2373Q10.1398 12.7344 9.13391 12.7344L5.96008 12.7344Q4.95422 12.7344 4.25598 13.2373Q3.55774 13.7402 3.22571 14.6387Q2.66907 16.1914 2.35657 17.6465Q2.04407 19.1016 2.04407 20.1367Q2.04407 21.7871 3.10364 22.71Q4.16321 23.6328 6.04797 23.6328ZM6.04797 22.207Q4.82727 22.207 4.14368 21.6602Q3.46008 21.1133 3.46008 20.1367Q3.46008 19.209 3.75305 17.8857Q4.04602 16.5625 4.55383 15.127Q4.71985 14.668 5.06653 14.4141Q5.41321 14.1602 5.96008 14.1602L9.13391 14.1602Q9.68079 14.1602 10.0323 14.4141Q10.3839 14.668 10.5402 15.127Q11.0577 16.5625 11.3458 17.8857Q11.6339 19.209 11.6339 20.1367Q11.6339 21.1133 10.9503 21.6602Q10.2667 22.207 9.04602 22.207Z" fill="#007aff"/>
 </g>
</svg>
