<?xml version="1.0" encoding="UTF-8"?>
<!--Generator: Apple Native CoreSVG 175-->
<!DOCTYPE svg
PUBLIC "-//W3C//DTD SVG 1.1//EN"
       "http://www.w3.org/Graphics/SVG/1.1/DTD/svg11.dtd">
<svg version="1.1" xmlns="http://www.w3.org/2000/svg" xmlns:xlink="http://www.w3.org/1999/xlink" width="26.5575" height="14.8505">
 <g>
  <rect height="14.8505" opacity="0" width="26.5575" x="0" y="0"/>
  <path d="M0.716858 14.7075L18.5852 14.7075Q18.2187 14.2418 18.129 13.602Q18.1218 13.5274 18.1134 13.4352Q18.105 13.343 18.098 13.2542L0.716858 13.2542Q0.405426 13.2542 0.202713 13.4654Q0 13.6766 0 13.9809Q0 14.2923 0.202713 14.4999Q0.405426 14.7075 0.716858 14.7075ZM2.84851 13.6L3.57697 13.6L3.57697 2.00348Q3.57697 1.35895 3.89923 1.04027Q4.2215 0.721588 4.85901 0.721588L23.0876 0.721588Q23.0782 0.376129 22.8758 0.188065Q22.6735 0 22.3199 0L4.74136 0Q3.81683 0 3.33267 0.476761Q2.84851 0.953522 2.84851 1.89453ZM20.5937 14.736L24.857 14.736Q25.6949 14.736 26.1262 14.3137Q26.5575 13.8914 26.5575 13.0644L26.5575 3.23242Q26.5575 2.40555 26.1213 1.97136Q25.6851 1.53717 24.857 1.53717L20.5937 1.53717Q19.7699 1.53717 19.3387 1.97136Q18.9075 2.40555 18.9075 3.23242L18.9075 13.0644Q18.9075 13.8914 19.3352 14.3137Q19.7629 14.736 20.5937 14.736ZM20.6062 14.0755Q20.0591 14.0755 19.8135 13.8272Q19.568 13.5789 19.568 13.036L19.568 3.26096Q19.568 2.71103 19.8135 2.45438Q20.0591 2.19772 20.6062 2.19772L21.5231 2.19772Q21.5675 2.19772 21.5675 2.2493L21.5675 2.32315Q21.5675 2.51373 21.6887 2.62779Q21.8098 2.74185 22.0074 2.74185L23.4433 2.74185Q23.6481 2.74185 23.7727 2.62779Q23.8972 2.51373 23.8972 2.32315L23.8972 2.2493Q23.8972 2.19772 23.9207 2.19772L24.8418 2.19772Q25.3891 2.19772 25.643 2.45438Q25.8969 2.71103 25.8969 3.26096L25.8969 13.036Q25.8969 13.5789 25.643 13.8272Q25.3891 14.0755 24.8418 14.0755ZM21.3559 13.5774L24.0965 13.5774Q24.375 13.5774 24.375 13.3058Q24.375 13.2016 24.2914 13.1194Q24.2078 13.0371 24.0965 13.0371L21.3559 13.0371Q21.2375 13.0371 21.1636 13.1194Q21.0898 13.2016 21.0898 13.3058Q21.0898 13.5774 21.3559 13.5774Z" fill="#007aff"/>
 </g>
</svg>
