<?xml version="1.0" encoding="UTF-8"?>
<!--Generator: Apple Native CoreSVG 175.5-->
<!DOCTYPE svg
PUBLIC "-//W3C//DTD SVG 1.1//EN"
       "http://www.w3.org/Graphics/SVG/1.1/DTD/svg11.dtd">
<svg version="1.1" xmlns="http://www.w3.org/2000/svg" xmlns:xlink="http://www.w3.org/1999/xlink" width="16.2793" height="21.8848">
 <g>
  <rect height="21.8848" opacity="0" width="16.2793" x="0" y="0"/>
  <path d="M0.849609 19.5508L14.1602 19.5508Q14.5215 19.5508 14.7412 19.3408Q14.9609 19.1309 14.9609 18.7695Q14.9609 18.4277 14.7412 18.208Q14.5215 17.9883 14.1602 17.9883L9.58984 17.9883Q7.96875 17.9883 6.56738 17.4121Q5.16602 16.8359 4.11133 15.8057Q3.05664 14.7754 2.46094 13.3936Q1.86523 12.0117 1.86523 10.3906Q1.86523 8.78906 2.37305 7.57324Q2.88086 6.35742 3.76953 5.53711Q4.6582 4.7168 5.80566 4.30664Q6.95312 3.89648 8.22266 3.89648Q9.47266 3.89648 10.5908 4.31152Q11.709 4.72656 12.583 5.49316Q13.457 6.25977 13.9697 7.3291Q14.4824 8.39844 14.5215 9.70703Q14.541 10.127 14.7656 10.4053Q14.9902 10.6836 15.4199 10.6836Q15.8398 10.6836 16.0596 10.4053Q16.2793 10.127 16.2793 9.7168Q16.2695 8.4082 15.8496 7.26074Q15.4297 6.11328 14.6777 5.18555Q13.9258 4.25781 12.9199 3.58887Q11.9141 2.91992 10.7178 2.56348Q9.52148 2.20703 8.22266 2.20703Q6.5625 2.20703 5.07812 2.75879Q3.59375 3.31055 2.45117 4.3457Q1.30859 5.38086 0.654297 6.84082Q0 8.30078 0 10.1074Q0 11.4941 0.351562 12.7148Q0.703125 13.9355 1.33301 14.9512Q1.96289 15.9668 2.82227 16.7285Q3.68164 17.4902 4.6875 17.9492L4.6875 17.9883L0.849609 17.9883Q0.488281 17.9883 0.268555 18.208Q0.0488281 18.4277 0.0488281 18.7695Q0.0488281 19.1309 0.268555 19.3408Q0.488281 19.5508 0.849609 19.5508ZM10.2441 10.4395Q10.5176 10.4395 10.7031 10.2637Q10.8887 10.0879 10.8887 9.79492L10.8887 0.644531Q10.8887 0.351562 10.7031 0.175781Q10.5176 0 10.2441 0Q9.9707 0 9.79004 0.180664Q9.60938 0.361328 9.60938 0.644531L9.60938 9.79492Q9.60938 10.0879 9.79004 10.2637Q9.9707 10.4395 10.2441 10.4395ZM6.25 10.4395Q6.52344 10.4395 6.70898 10.2637Q6.89453 10.0879 6.89453 9.79492L6.89453 0.644531Q6.89453 0.361328 6.70898 0.180664Q6.52344 0 6.25 0Q5.97656 0 5.7959 0.175781Q5.61523 0.351562 5.61523 0.644531L5.61523 9.79492Q5.61523 10.0879 5.7959 10.2637Q5.97656 10.4395 6.25 10.4395Z" fill="#007aff"/>
 </g>
</svg>
