<?xml version="1.0" encoding="UTF-8"?>
<!--Generator: Apple Native CoreSVG 175.5-->
<!DOCTYPE svg
PUBLIC "-//W3C//DTD SVG 1.1//EN"
       "http://www.w3.org/Graphics/SVG/1.1/DTD/svg11.dtd">
<svg version="1.1" xmlns="http://www.w3.org/2000/svg" xmlns:xlink="http://www.w3.org/1999/xlink" width="17.9785" height="17.998">
 <g>
  <rect height="17.998" opacity="0" width="17.9785" x="0" y="0"/>
  <path d="M3.06641 17.998L14.9121 17.998Q16.4453 17.998 17.2119 17.2412Q17.9785 16.4844 17.9785 14.9707L17.9785 3.04688Q17.9785 1.5332 17.2119 0.776367Q16.4453 0.0195312 14.9121 0.0195312L3.06641 0.0195312Q1.5332 0.0195312 0.766602 0.776367Q0 1.5332 0 3.04688L0 14.9707Q0 16.4844 0.766602 17.2412Q1.5332 17.998 3.06641 17.998Z" fill="#007aff"/>
  <path d="M5.61523 13.7891Q5.35156 13.7891 5.19531 13.6279Q5.03906 13.4668 5.03906 13.2129Q5.03906 12.9688 5.20508 12.8125Q5.37109 12.6562 5.625 12.6562L7.09961 12.6562Q6.18164 12.0508 5.625 10.9961Q5.06836 9.94141 5.06836 8.64258Q5.06836 7.13867 5.75195 6.07422Q6.43555 5.00977 7.62695 4.58008L7.62695 3.69141Q7.62695 3.4668 7.76855 3.33008Q7.91016 3.19336 8.125 3.19336Q8.33008 3.19336 8.47168 3.33008Q8.61328 3.4668 8.61328 3.69141L8.61328 4.38477Q8.74023 4.375 8.87695 4.36523Q9.01367 4.35547 9.13086 4.35547Q9.23828 4.35547 9.34082 4.36035Q9.44336 4.36523 9.55078 4.375L9.55078 3.69141Q9.55078 3.4668 9.68262 3.33008Q9.81445 3.19336 10.0293 3.19336Q10.2441 3.19336 10.3857 3.33008Q10.5273 3.4668 10.5273 3.69141L10.5273 4.60938Q11.2598 4.89258 11.8066 5.45898Q12.3535 6.02539 12.6611 6.79199Q12.9688 7.55859 12.9688 8.44727Q12.9688 8.73047 12.7979 8.91602Q12.627 9.10156 12.3633 9.10156Q12.0801 9.10156 11.9043 8.91602Q11.7285 8.73047 11.7188 8.4375Q11.709 7.59766 11.3867 6.96777Q11.0645 6.33789 10.5273 5.9668L10.5273 8.49609Q10.5273 8.71094 10.3857 8.84766Q10.2441 8.98438 10.0293 8.98438Q9.81445 8.98438 9.68262 8.84766Q9.55078 8.71094 9.55078 8.49609L9.55078 5.5957Q9.45312 5.57617 9.3457 5.56641Q9.23828 5.55664 9.12109 5.55664Q8.87695 5.55664 8.61328 5.5957L8.61328 8.49609Q8.61328 8.71094 8.47656 8.84766Q8.33984 8.98438 8.125 8.98438Q7.91016 8.98438 7.76855 8.84766Q7.62695 8.71094 7.62695 8.49609L7.62695 5.9375Q7.02148 6.31836 6.69434 7.03613Q6.36719 7.75391 6.36719 8.78906Q6.36719 9.89258 6.88965 10.7666Q7.41211 11.6406 8.30078 12.1484Q9.18945 12.6562 10.3027 12.6562L11.8555 12.6562Q12.0996 12.6562 12.2656 12.8125Q12.4316 12.9688 12.4316 13.2129Q12.4316 13.4668 12.2705 13.6279Q12.1094 13.7891 11.8555 13.7891Z" fill="#ffffff"/>
 </g>
</svg>
