<?xml version="1.0" encoding="UTF-8"?>
<!--Generator: Apple Native CoreSVG 175-->
<!DOCTYPE svg
PUBLIC "-//W3C//DTD SVG 1.1//EN"
       "http://www.w3.org/Graphics/SVG/1.1/DTD/svg11.dtd">
<svg version="1.1" xmlns="http://www.w3.org/2000/svg" xmlns:xlink="http://www.w3.org/1999/xlink" width="21.6759" height="28.3807">
 <g>
  <rect height="28.3807" opacity="0" width="21.6759" x="0" y="0"/>
  <path d="M11.7442 19.7987Q11.4493 19.8225 11.1411 19.8393Q10.8328 19.8561 10.5238 19.8561Q9.02542 19.8561 7.71057 19.5143Q6.39572 19.1725 5.39825 18.4721Q4.40079 17.7718 3.83652 16.705Q3.27225 15.6383 3.27225 14.1953Q3.27225 13.4163 3.48831 12.7068Q3.70438 11.9972 4.08173 11.3586Q3.98987 11.3191 3.87817 11.2856Q3.76648 11.252 3.63991 11.2258Q3.51334 11.1996 3.36716 11.1832Q2.98599 11.8575 2.77855 12.6129Q2.57111 13.3684 2.57111 14.1855Q2.57111 15.7808 3.19084 16.9756Q3.81058 18.1703 4.90921 18.9654Q6.00784 19.7604 7.45918 20.154Q8.91052 20.5476 10.5836 20.5476Q10.9227 20.5476 11.254 20.533Q11.5852 20.5183 11.913 20.489ZM8.16208 6.99554Q8.18558 7.14325 8.21739 7.26631Q8.24921 7.38937 8.29002 7.48489Q8.33084 7.58041 8.37784 7.66785Q9.47617 7.20154 10.6787 6.94878Q11.8813 6.69601 13.1 6.69601Q14.6965 6.69601 16.1213 7.16774Q17.5461 7.63947 18.6373 8.51929Q19.7285 9.39911 20.3564 10.6322Q20.9843 11.8652 20.9843 13.3878Q20.9843 14.7539 20.3152 15.9826Q19.6461 17.2113 18.5284 18.1644Q17.4106 19.1174 16.0381 19.6624Q14.6657 20.2074 13.266 20.2074Q12.6543 20.2074 12.2211 19.9699Q11.7879 19.7324 11.7879 19.2471Q11.7879 18.7456 12.233 18.3677Q12.6782 17.9898 13.3317 17.7802Q13.9851 17.5706 14.6066 17.5706Q15.5238 17.5706 16.2525 17.9867Q16.9812 18.4027 17.407 19.1203Q17.8328 19.8378 17.8328 20.7578Q17.8328 21.8054 17.2234 22.7447Q16.6141 23.6839 15.5618 24.2296Q15.4692 24.2944 15.405 24.3704Q15.3407 24.4464 15.3407 24.5766Q15.3407 24.6953 15.4298 24.7971Q15.5188 24.8988 15.6918 24.8988Q15.8078 24.8988 15.945 24.8215Q17.1129 24.1875 17.8186 23.0646Q18.5243 21.9417 18.5243 20.7004Q18.5243 19.6262 18.0067 18.7544Q17.4892 17.8827 16.5974 17.3747Q15.7056 16.8668 14.5738 16.8668Q13.7418 16.8668 12.9375 17.1696Q12.1332 17.4725 11.6051 18.0144Q11.077 18.5562 11.077 19.2538Q11.077 19.7816 11.359 20.1525Q11.6411 20.5234 12.134 20.7181Q12.627 20.9128 13.266 20.9128Q14.5 20.9128 15.7166 20.5273Q16.9333 20.1418 18.0077 19.4404Q19.082 18.739 19.9055 17.7915Q20.7289 16.844 21.2024 15.7202Q21.6759 14.5964 21.6759 13.3624Q21.6759 11.7198 20.9982 10.3694Q20.3204 9.01901 19.1309 8.03604Q17.9414 7.05307 16.3908 6.51695Q14.8402 5.98083 13.0972 5.98083Q11.8246 5.98083 10.5682 6.24603Q9.31183 6.51123 8.16208 6.99554ZM6.75705 15.0558Q6.96793 15.0558 7.00119 14.8465Q7.17545 13.6722 7.34337 12.9066Q7.51129 12.141 7.77634 11.6785Q8.04138 11.216 8.50197 10.9566Q8.96255 10.6972 9.70863 10.5523Q10.4547 10.4074 11.5883 10.2609Q11.6867 10.2484 11.7463 10.1875Q11.8059 10.1265 11.8059 10.0308Q11.8059 9.82849 11.5883 9.80774Q10.4477 9.66125 9.70238 9.51416Q8.95706 9.36707 8.49594 9.10774Q8.03482 8.84842 7.76703 8.38593Q7.49924 7.92343 7.33536 7.15775Q7.17148 6.39206 7.00119 5.2179Q6.97342 5.00305 6.75705 5.00305Q6.54617 5.00305 6.51291 5.21515Q6.33163 6.38947 6.16501 7.15508Q5.99838 7.92068 5.73204 8.38318Q5.4657 8.84567 5.00862 9.10507Q4.55154 9.36447 3.80547 9.51286Q3.05939 9.66125 1.92581 9.80774Q1.82739 9.81323 1.76781 9.87419Q1.70822 9.93515 1.70822 10.0308Q1.70822 10.1265 1.76781 10.1875Q1.82739 10.2484 1.92581 10.2609Q3.05939 10.4074 3.80821 10.5509Q4.55704 10.6944 5.01816 10.9538Q5.47928 11.2132 5.74707 11.6743Q6.01486 12.1355 6.17874 12.9025Q6.34262 13.6694 6.51291 14.8508Q6.54068 15.0558 6.75705 15.0558ZM2.34299 7.78397Q2.50671 7.78397 2.53433 7.62024Q2.61215 7.05154 2.68326 6.69861Q2.75436 6.34567 2.92603 6.14037Q3.09769 5.93506 3.46817 5.82474Q3.83865 5.71442 4.51248 5.63507Q4.68597 5.60745 4.68597 5.44373Q4.68597 5.28 4.51248 5.25925Q3.83865 5.17731 3.46817 5.06561Q3.09769 4.95392 2.92603 4.74861Q2.75436 4.5433 2.68326 4.19312Q2.61215 3.84293 2.53433 3.27957Q2.50671 3.10349 2.34299 3.10349Q2.18475 3.10349 2.15866 3.27957Q2.07382 3.84293 2.00485 4.19312Q1.93588 4.5433 1.76071 4.74861Q1.58554 4.95392 1.21643 5.06561Q0.847321 5.17731 0.173492 5.25925Q0 5.28 0 5.44373Q0 5.60745 0.171814 5.63507Q0.850067 5.71442 1.21918 5.82474Q1.58829 5.93506 1.76346 6.14037Q1.93863 6.34567 2.00623 6.69586Q2.07382 7.04605 2.15866 7.612Q2.18475 7.78397 2.34299 7.78397ZM5.62653 3.44055Q5.71091 3.44055 5.72891 3.34366Q5.80124 2.8363 5.8934 2.55211Q5.98557 2.26791 6.27678 2.11266Q6.56799 1.9574 7.23953 1.83594Q7.3407 1.81091 7.3407 1.72379Q7.3407 1.63666 7.23953 1.61163Q6.56525 1.48743 6.27403 1.33217Q5.98282 1.17691 5.89066 0.892715Q5.79849 0.608521 5.72891 0.106659Q5.71091 0 5.62653 0Q5.53513 0 5.50735 0.106659Q5.43945 0.608521 5.34729 0.892715Q5.25513 1.17691 4.96529 1.33217Q4.67545 1.48743 3.99689 1.61163Q3.90274 1.63666 3.90274 1.72379Q3.90274 1.80389 3.99963 1.83594Q4.67819 1.95465 4.96666 2.10991Q5.25513 2.26517 5.34729 2.54936Q5.43945 2.83356 5.50735 3.33817Q5.53513 3.44055 5.62653 3.44055Z" fill="#ffffff"/>
 </g>
</svg>
