<?xml version="1.0" encoding="UTF-8"?>
<!--Generator: Apple Native CoreSVG 175-->
<!DOCTYPE svg
PUBLIC "-//W3C//DTD SVG 1.1//EN"
       "http://www.w3.org/Graphics/SVG/1.1/DTD/svg11.dtd">
<svg version="1.1" xmlns="http://www.w3.org/2000/svg" xmlns:xlink="http://www.w3.org/1999/xlink" width="19.1075" height="21.4169">
 <g>
  <rect height="21.4169" opacity="0" width="19.1075" x="0" y="0"/>
  <path d="M0 10.7036Q0 12.2989 0.619736 13.4937Q1.23947 14.6884 2.3381 15.4835Q3.43674 16.2785 4.89296 16.6721Q6.34918 17.0657 8.01254 17.0657Q8.35159 17.0657 8.68637 17.0511Q9.02115 17.0364 9.34189 17.0071L9.18289 16.3168Q8.87817 16.3406 8.57132 16.3574Q8.26447 16.3742 7.95547 16.3742Q6.45432 16.3742 5.14084 16.0324Q3.82736 15.6906 2.83203 14.9902Q1.8367 14.2899 1.27243 13.2231Q0.70816 12.1564 0.70816 10.7133Q0.70816 9.39194 1.25587 8.24486Q1.80359 7.09778 2.76703 6.17256Q3.73047 5.24734 4.98634 4.58656Q6.24222 3.92578 7.66273 3.56995Q9.08325 3.21411 10.5289 3.21411Q12.1324 3.21411 13.5551 3.68584Q14.9777 4.15756 16.0725 5.03738Q17.1672 5.91721 17.7902 7.15027Q18.4132 8.38333 18.4132 9.90585Q18.4132 11.272 17.7441 12.5007Q17.075 13.7294 15.9573 14.6825Q14.8395 15.6355 13.467 16.1805Q12.0946 16.7255 10.6949 16.7255Q10.0903 16.7255 9.65492 16.488Q9.21951 16.2505 9.21951 15.7652Q9.21951 15.2637 9.66682 14.8858Q10.1141 14.5079 10.7655 14.2983Q11.4168 14.0887 12.0425 14.0887Q12.9527 14.0887 13.6814 14.5048Q14.4101 14.9208 14.8359 15.6384Q15.2617 16.3559 15.2617 17.2758Q15.2617 18.3235 14.6523 19.2628Q14.043 20.202 12.9933 20.7477Q12.8981 20.8125 12.8339 20.8885Q12.7696 20.9645 12.7696 21.0947Q12.7696 21.2134 12.8587 21.3152Q12.9477 21.4169 13.1305 21.4169Q13.2367 21.4169 13.3766 21.3396Q14.5418 20.7056 15.2489 19.5827Q15.956 18.4598 15.956 17.2185Q15.956 16.1443 15.4384 15.2725Q14.9208 14.4008 14.0276 13.8928Q13.1345 13.3849 12.0055 13.3849Q11.1707 13.3849 10.3664 13.6877Q9.56207 13.9906 9.03885 14.5325Q8.51562 15.0743 8.51562 15.7719Q8.51562 16.2997 8.7928 16.6706Q9.06998 17.0415 9.56291 17.2362Q10.0558 17.4309 10.6949 17.4309Q11.9316 17.4309 13.1469 17.0454Q14.3622 16.6599 15.4366 15.9585Q16.5109 15.2571 17.3357 14.3096Q18.1606 13.3621 18.634 12.2383Q19.1075 11.1145 19.1075 9.88052Q19.1075 8.23792 18.4284 6.88751Q17.7493 5.53711 16.5633 4.55414Q15.3773 3.57117 13.8268 3.03505Q12.2762 2.49893 10.5261 2.49893Q8.98239 2.49893 7.46094 2.88795Q5.93948 3.27698 4.59511 4.00002Q3.25073 4.72305 2.21733 5.73402Q1.18393 6.745 0.591965 8.00064Q0 9.25629 0 10.7036Z" fill="#007aff"/>
 </g>
</svg>
