<?xml version="1.0" encoding="UTF-8"?>
<!--Generator: Apple Native CoreSVG 175.5-->
<!DOCTYPE svg
PUBLIC "-//W3C//DTD SVG 1.1//EN"
       "http://www.w3.org/Graphics/SVG/1.1/DTD/svg11.dtd">
<svg version="1.1" xmlns="http://www.w3.org/2000/svg" xmlns:xlink="http://www.w3.org/1999/xlink" width="22.6074" height="20.8496">
 <g>
  <rect height="20.8496" opacity="0" width="22.6074" x="0" y="0"/>
  <path d="M1.36719 10.6836L21.2402 10.6836L21.2402 9.20898L1.36719 9.20898ZM5.21484 12.0215L7.63672 12.0215Q8.1543 12.0215 8.4375 11.7432Q8.7207 11.4648 8.7207 10.957L8.7207 8.95508Q8.7207 8.4375 8.4375 8.15918Q8.1543 7.88086 7.63672 7.88086L5.21484 7.88086Q4.69727 7.88086 4.41895 8.15918Q4.14062 8.4375 4.14062 8.95508L4.14062 10.957Q4.14062 11.4648 4.41895 11.7432Q4.69727 12.0215 5.21484 12.0215ZM14.9609 12.0215L17.3828 12.0215Q17.9004 12.0215 18.1836 11.7432Q18.4668 11.4648 18.4668 10.957L18.4668 8.95508Q18.4668 8.4375 18.1836 8.15918Q17.9004 7.88086 17.3828 7.88086L14.9609 7.88086Q14.4434 7.88086 14.1602 8.15918Q13.877 8.4375 13.877 8.95508L13.877 10.957Q13.877 11.4648 14.1602 11.7432Q14.4434 12.0215 14.9609 12.0215ZM3.01758 18.9258L19.5898 18.9258Q21.1035 18.9258 21.8555 18.1836Q22.6074 17.4414 22.6074 15.9473L22.6074 6.44531Q22.6074 4.94141 21.8555 4.2041Q21.1035 3.4668 19.5898 3.4668L3.01758 3.4668Q1.51367 3.4668 0.756836 4.2041Q0 4.94141 0 6.44531L0 15.9473Q0 17.4414 0.756836 18.1836Q1.51367 18.9258 3.01758 18.9258ZM3.03711 17.3633Q2.32422 17.3633 1.94824 16.9922Q1.57227 16.6211 1.57227 15.8691L1.57227 6.52344Q1.57227 5.77148 1.94824 5.40039Q2.32422 5.0293 3.03711 5.0293L19.5703 5.0293Q20.2832 5.0293 20.6592 5.40039Q21.0352 5.77148 21.0352 6.52344L21.0352 15.8691Q21.0352 16.6211 20.6592 16.9922Q20.2832 17.3633 19.5703 17.3633ZM6.34766 4.31641L7.86133 4.31641L7.86133 2.58789Q7.86133 2.03125 8.17383 1.72852Q8.48633 1.42578 9.0625 1.42578L13.5449 1.42578Q14.1113 1.42578 14.4238 1.72852Q14.7363 2.03125 14.7363 2.58789L14.7363 4.29688L16.25 4.29688L16.25 2.69531Q16.25 1.31836 15.5469 0.65918Q14.8438 0 13.5156 0L9.08203 0Q7.83203 0 7.08984 0.65918Q6.34766 1.31836 6.34766 2.69531Z" fill="#007aff"/>
 </g>
</svg>
