<?xml version="1.0" encoding="UTF-8"?>
<!--Generator: Apple Native CoreSVG 175.5-->
<!DOCTYPE svg
PUBLIC "-//W3C//DTD SVG 1.1//EN"
       "http://www.w3.org/Graphics/SVG/1.1/DTD/svg11.dtd">
<svg version="1.1" xmlns="http://www.w3.org/2000/svg" xmlns:xlink="http://www.w3.org/1999/xlink" width="10.0983" height="21.3297">
 <g>
  <rect height="21.3297" opacity="0" width="10.0983" x="0" y="0"/>
  <path d="M3.2251 19.6443Q2.78564 19.6736 2.32178 19.869Q1.85791 20.0643 1.53564 20.367Q1.2915 20.5916 1.55518 20.7772Q1.9165 21.0506 2.40479 21.1776Q2.89307 21.3045 3.34229 21.2459Q3.77197 21.2166 4.23584 21.0115Q4.69971 20.8065 5.03174 20.5037Q5.31494 20.2401 4.97314 20.0447Q4.61182 19.8299 4.12842 19.7176Q3.64502 19.6053 3.2251 19.6443ZM1.17432 16.3436Q0.969238 16.0311 0.725098 16.324Q0.432129 16.6561 0.236816 17.1199Q0.0415039 17.5838 0.012207 18.0135Q-0.0366211 18.4627 0.109863 18.951Q0.256348 19.4393 0.539551 19.7811Q0.734863 20.035 0.949707 19.7908Q1.23291 19.4783 1.42334 19.0096Q1.61377 18.5408 1.6333 18.0916Q1.65283 17.6717 1.52588 17.1883Q1.39893 16.7049 1.17432 16.3436ZM5.979 16.9979Q5.56885 17.1346 5.17334 17.4422Q4.77783 17.7498 4.54346 18.1307Q4.36768 18.4139 4.67041 18.5213Q5.09033 18.6971 5.59814 18.6971Q6.10596 18.6971 6.51611 18.5311Q6.9165 18.3846 7.31689 18.0721Q7.71729 17.7596 7.95166 17.3787Q8.14697 17.0565 7.79541 16.949Q7.38525 16.8221 6.88232 16.8367Q6.37939 16.8514 5.979 16.9979ZM3.1665 14.3416Q2.87354 14.0682 2.72705 14.4197Q2.53174 14.8201 2.46338 15.3182Q2.39502 15.8162 2.47314 16.2361Q2.55127 16.6951 2.81494 17.1297Q3.07861 17.5643 3.43018 17.8182Q3.70361 18.0135 3.83057 17.7205Q4.02588 17.3397 4.08447 16.8416Q4.14307 16.3436 4.05518 15.9041Q3.96729 15.494 3.72314 15.0594Q3.479 14.6248 3.1665 14.3416ZM10.0903 13.2186Q10.1489 12.8572 9.77783 12.8963Q9.35791 12.9451 8.90869 13.16Q8.45947 13.3748 8.14697 13.6776Q7.83447 13.9608 7.59521 14.4002Q7.35596 14.8397 7.2876 15.2889Q7.23877 15.6209 7.56104 15.6014Q8.02002 15.5818 8.48389 15.3817Q8.94775 15.1815 9.25049 14.8592Q9.56299 14.5565 9.79736 14.1024Q10.0317 13.6483 10.0903 13.2186ZM4.48486 12.3787Q4.12354 12.242 4.12354 12.6326Q4.09424 13.0623 4.23584 13.5457Q4.37744 14.0291 4.62158 14.4002Q4.85596 14.7811 5.27588 15.0692Q5.6958 15.3572 6.13525 15.4647Q6.44775 15.5233 6.46729 15.2108Q6.48682 14.7518 6.34521 14.2733Q6.20361 13.7947 5.93994 13.4529Q5.68604 13.1111 5.29053 12.8133Q4.89502 12.5154 4.48486 12.3787ZM6.11572 10.0936Q5.80322 9.82013 5.33936 9.63947Q4.87549 9.4588 4.43604 9.41974Q4.07471 9.40997 4.1333 9.7713Q4.23096 10.201 4.49463 10.6356Q4.7583 11.0701 5.09033 11.3533Q5.4126 11.6463 5.89111 11.8221Q6.36963 11.9979 6.82861 11.9881Q7.14111 11.9783 7.08252 11.6658Q6.99463 11.2361 6.73096 10.8016Q6.46729 10.367 6.11572 10.0936ZM10.0806 8.81427Q10.0415 8.42365 9.68994 8.5799Q9.29932 8.73615 8.91357 9.05353Q8.52783 9.37091 8.30322 9.74201Q8.06885 10.1229 7.95166 10.6111Q7.83447 11.0994 7.8833 11.5193Q7.92236 11.8514 8.23486 11.7537Q8.65479 11.6365 9.05029 11.3192Q9.4458 11.0018 9.67041 10.6111Q9.90479 10.2303 10.0171 9.73712Q10.1294 9.24396 10.0806 8.81427ZM5.58838 6.81232Q5.18799 6.66583 4.68994 6.65607Q4.19189 6.6463 3.78174 6.76349Q3.43018 6.88068 3.61572 7.17365Q3.84033 7.54474 4.23584 7.86701Q4.63135 8.18927 5.06104 8.35529Q5.47119 8.5213 5.979 8.52619Q6.48682 8.53107 6.90674 8.35529Q7.19971 8.21857 7.03369 7.9549Q6.79932 7.57404 6.40381 7.26642Q6.0083 6.9588 5.58838 6.81232ZM8.85986 4.25372Q8.69385 3.92169 8.41064 4.15607Q8.10791 4.44904 7.85889 4.88361Q7.60986 5.31818 7.52197 5.7381Q7.42432 6.16779 7.48291 6.66583Q7.5415 7.16388 7.73682 7.54474Q7.89307 7.83771 8.13721 7.65216Q8.49854 7.38849 8.76221 6.9588Q9.02588 6.52912 9.104 6.0799Q9.19189 5.65997 9.12354 5.15704Q9.05518 4.65412 8.85986 4.25372ZM3.81104 3.99982Q3.39111 3.91193 2.89307 3.97052Q2.39502 4.02912 2.01416 4.2049Q1.6626 4.36115 1.90674 4.64435Q2.18994 4.96662 2.62451 5.2254Q3.05908 5.48419 3.48877 5.58185Q3.92822 5.69904 4.43115 5.63068Q4.93408 5.56232 5.31494 5.33771Q5.58838 5.16193 5.39307 4.92755Q5.11963 4.58576 4.68506 4.33185Q4.25049 4.07794 3.81104 3.99982ZM6.70166 0.992006Q6.48682 0.689271 6.24268 0.972475Q5.96924 1.31427 5.77881 1.77326Q5.58838 2.23224 5.56885 2.65216Q5.52979 3.08185 5.66162 3.57013Q5.79346 4.05841 6.0376 4.42951Q6.21338 4.69318 6.45752 4.46857Q6.77979 4.1463 6.97998 3.67755Q7.18018 3.2088 7.18994 2.76935Q7.21924 2.34943 7.08252 1.85626Q6.9458 1.3631 6.70166 0.992006ZM1.6626 0.00567769Q1.2915-0.0431504 1.33057 0.327943Q1.39893 0.767396 1.61865 1.2215Q1.83838 1.6756 2.13135 1.97833Q2.44385 2.32013 2.89795 2.53497Q3.35205 2.74982 3.80127 2.77912Q4.11377 2.78888 4.08447 2.47638Q4.03564 2.04669 3.81104 1.59259Q3.58643 1.13849 3.27393 0.835756Q2.97119 0.533021 2.53174 0.303529Q2.09229 0.0740371 1.6626 0.00567769Z" fill="#007aff"/>
 </g>
</svg>
