<?xml version="1.0" encoding="UTF-8"?>
<!--Generator: Apple Native CoreSVG 175-->
<!DOCTYPE svg
PUBLIC "-//W3C//DTD SVG 1.1//EN"
       "http://www.w3.org/Graphics/SVG/1.1/DTD/svg11.dtd">
<svg version="1.1" xmlns="http://www.w3.org/2000/svg" xmlns:xlink="http://www.w3.org/1999/xlink" width="20.0153" height="17.7802">
 <g>
  <rect height="17.7802" opacity="0" width="20.0153" x="0" y="0"/>
  <path d="M0.248108 0.689545Q0.133972 1.51169 0.0669861 2.37305Q0 3.23441 0 3.80432Q0 6.48514 0.734177 8.6731Q1.46835 10.8611 2.83066 12.4345Q4.19296 14.0079 6.09138 14.8581Q7.98981 15.7083 10.3114 15.7083Q11.2392 15.7083 12.0769 15.5325Q12.9146 15.3568 13.6368 15.0345Q14.359 14.7122 14.9361 14.2764Q15.5133 13.8406 15.9248 13.3264Q16.3364 12.8122 16.5547 12.2446L15.8824 12.5105Q16.4468 13.1535 16.8006 13.7799Q17.1544 14.4063 17.4464 15.2096Q17.7383 16.0129 18.1097 17.1875Q18.2129 17.518 18.4221 17.6491Q18.6313 17.7802 18.8712 17.7802Q19.373 17.7802 19.6941 17.3883Q20.0153 16.9965 20.0153 16.3872Q20.0153 15.8513 19.7428 15.1926Q19.4704 14.534 19.0495 13.8686Q18.6285 13.2031 18.1783 12.6424Q17.7281 12.0818 17.3711 11.7415Q16.3672 10.7903 15.2498 10.2672Q14.1324 9.74411 12.9795 9.47151Q11.8266 9.19891 10.7111 9.00436Q9.59564 8.80981 8.59428 8.52409Q7.59293 8.23837 6.78009 7.69264Q5.96725 7.14691 5.4277 6.15433Q5.29495 5.90744 5.47401 5.77988Q5.65308 5.65231 5.86914 5.8754Q6.65985 6.67313 7.52151 7.04399Q8.38318 7.41486 9.30702 7.56271Q10.2309 7.71057 11.2043 7.79922Q12.1777 7.88788 13.191 8.09731Q14.2043 8.30673 15.2533 8.8063Q16.3023 9.30588 17.3781 10.2895Q17.538 10.4199 17.7097 10.3721Q17.8813 10.3242 17.9134 10.1169Q17.9454 9.86954 17.9649 9.53812Q17.9845 9.2067 17.9845 8.82812Q17.9845 6.56494 17.0223 5.09598Q16.0602 3.62701 14.3358 2.91527Q12.6114 2.20352 10.3336 2.20352Q9.60861 2.20352 8.86719 2.2541Q8.12576 2.30469 7.39685 2.36015Q6.66794 2.41562 5.98053 2.41562Q4.99527 2.41562 4.07379 2.27013Q3.15231 2.12463 2.35863 1.72173Q1.56494 1.31882 0.974274 0.545807Q0.783997 0.303497 0.539474 0.352936Q0.294952 0.402374 0.248108 0.689545Z" fill="#32d74b"/>
 </g>
</svg>
