<?xml version="1.0" encoding="UTF-8"?>
<!--Generator: Apple Native CoreSVG 175-->
<!DOCTYPE svg
PUBLIC "-//W3C//DTD SVG 1.1//EN"
       "http://www.w3.org/Graphics/SVG/1.1/DTD/svg11.dtd">
<svg version="1.1" xmlns="http://www.w3.org/2000/svg" xmlns:xlink="http://www.w3.org/1999/xlink" width="19.1602" height="19.1504">
 <g>
  <rect height="19.1504" opacity="0" width="19.1602" x="0" y="0"/>
  <path d="M9.57031 19.1406Q11.5527 19.1406 13.2861 18.3984Q15.0195 17.6562 16.3379 16.333Q17.6562 15.0098 18.4082 13.2764Q19.1602 11.543 19.1602 9.57031Q19.1602 7.59766 18.4082 5.86426Q17.6562 4.13086 16.3379 2.80762Q15.0195 1.48438 13.2861 0.742188Q11.5527 0 9.57031 0Q7.59766 0 5.86426 0.742188Q4.13086 1.48438 2.81738 2.80762Q1.50391 4.13086 0.751953 5.86426Q0 7.59766 0 9.57031Q0 11.543 0.74707 13.2764Q1.49414 15.0098 2.8125 16.333Q4.13086 17.6562 5.86914 18.3984Q7.60742 19.1406 9.57031 19.1406ZM9.57031 18.3984Q7.74414 18.3984 6.14746 17.71Q4.55078 17.0215 3.33496 15.8105Q2.11914 14.5996 1.43555 12.998Q0.751953 11.3965 0.751953 9.57031Q0.751953 7.74414 1.43555 6.14258Q2.11914 4.54102 3.33496 3.3252Q4.55078 2.10938 6.14746 1.4209Q7.74414 0.732422 9.57031 0.732422Q11.4062 0.732422 13.0029 1.4209Q14.5996 2.10938 15.8154 3.3252Q17.0312 4.54102 17.7197 6.14258Q18.4082 7.74414 18.4082 9.57031Q18.4082 11.3965 17.7246 12.998Q17.041 14.5996 15.8252 15.8105Q14.6094 17.0215 13.0078 17.71Q11.4062 18.3984 9.57031 18.3984ZM11.9336 13.0859Q12.1094 13.0859 12.2119 12.9834Q12.3145 12.8809 12.3145 12.7148Q12.3145 12.5879 12.251 12.4951Q12.1875 12.4023 12.041 12.3242L6.92383 9.59961L6.92383 9.55078L12.041 6.80664Q12.1875 6.73828 12.251 6.64062Q12.3145 6.54297 12.3145 6.41602Q12.3145 6.25 12.2119 6.14746Q12.1094 6.04492 11.9336 6.04492Q11.8262 6.04492 11.6895 6.11328L6.19141 9.15039Q5.91797 9.30664 5.91797 9.58008Q5.91797 9.72656 5.98633 9.8291Q6.05469 9.93164 6.19141 10.0098L11.6895 13.0176Q11.8262 13.0859 11.9336 13.0859Z" fill="#ffffff"/>
 </g>
</svg>
