<?xml version="1.0" encoding="UTF-8"?>
<!--Generator: Apple Native CoreSVG 175-->
<!DOCTYPE svg
PUBLIC "-//W3C//DTD SVG 1.1//EN"
       "http://www.w3.org/Graphics/SVG/1.1/DTD/svg11.dtd">
<svg version="1.1" xmlns="http://www.w3.org/2000/svg" xmlns:xlink="http://www.w3.org/1999/xlink" width="17.2852" height="17.3145">
 <g>
  <rect height="17.3145" opacity="0" width="17.2852" x="0" y="0"/>
  <path d="M2.62695 17.3145L14.6484 17.3145Q15.957 17.3145 16.6211 16.6455Q17.2852 15.9766 17.2852 14.6875L17.2852 2.65625Q17.2852 1.37695 16.6211 0.703125Q15.957 0.0292969 14.6484 0.0292969L2.62695 0.0292969Q1.33789 0.0292969 0.668945 0.693359Q0 1.35742 0 2.65625L0 14.6875Q0 15.9863 0.668945 16.6504Q1.33789 17.3145 2.62695 17.3145ZM2.65625 16.5918Q1.70898 16.5918 1.2207 16.1035Q0.732422 15.6152 0.732422 14.6582L0.732422 2.69531Q0.732422 1.72852 1.2207 1.24512Q1.70898 0.761719 2.65625 0.761719L14.6289 0.761719Q15.5566 0.761719 16.0596 1.24512Q16.5625 1.72852 16.5625 2.69531L16.5625 14.6582Q16.5625 15.6152 16.0596 16.1035Q15.5566 16.5918 14.6289 16.5918ZM11.0156 12.168Q11.1914 12.168 11.2939 12.0654Q11.3965 11.9629 11.3965 11.7969Q11.3965 11.6699 11.333 11.5771Q11.2695 11.4844 11.123 11.4062L6.00586 8.68164L6.00586 8.63281L11.123 5.88867Q11.2695 5.82031 11.333 5.72266Q11.3965 5.625 11.3965 5.49805Q11.3965 5.33203 11.2939 5.22949Q11.1914 5.12695 11.0156 5.12695Q10.9082 5.12695 10.7715 5.19531L5.27344 8.23242Q5 8.38867 5 8.66211Q5 8.80859 5.06836 8.91113Q5.13672 9.01367 5.27344 9.0918L10.7715 12.0996Q10.9082 12.168 11.0156 12.168Z" fill="#ffffff"/>
 </g>
</svg>
