<?xml version="1.0" encoding="UTF-8"?>
<!--Generator: Apple Native CoreSVG 175.5-->
<!DOCTYPE svg
PUBLIC "-//W3C//DTD SVG 1.1//EN"
       "http://www.w3.org/Graphics/SVG/1.1/DTD/svg11.dtd">
<svg version="1.1" xmlns="http://www.w3.org/2000/svg" xmlns:xlink="http://www.w3.org/1999/xlink" width="19.9219" height="19.9316">
 <g>
  <rect height="19.9316" opacity="0" width="19.9219" x="0" y="0"/>
  <path d="M9.96094 19.9219Q12.002 19.9219 13.8037 19.1406Q15.6055 18.3594 16.9824 16.9824Q18.3594 15.6055 19.1406 13.8037Q19.9219 12.002 19.9219 9.96094Q19.9219 7.91992 19.1406 6.11816Q18.3594 4.31641 16.9824 2.93945Q15.6055 1.5625 13.7988 0.78125Q11.9922 0 9.95117 0Q7.91016 0 6.1084 0.78125Q4.30664 1.5625 2.93457 2.93945Q1.5625 4.31641 0.78125 6.11816Q0 7.91992 0 9.96094Q0 12.002 0.78125 13.8037Q1.5625 15.6055 2.93945 16.9824Q4.31641 18.3594 6.11816 19.1406Q7.91992 19.9219 9.96094 19.9219ZM9.96094 18.2617Q8.23242 18.2617 6.72852 17.6172Q5.22461 16.9727 4.08691 15.835Q2.94922 14.6973 2.30957 13.1934Q1.66992 11.6895 1.66992 9.96094Q1.66992 8.23242 2.30957 6.72852Q2.94922 5.22461 4.08203 4.08203Q5.21484 2.93945 6.71875 2.2998Q8.22266 1.66016 9.95117 1.66016Q11.6797 1.66016 13.1885 2.2998Q14.6973 2.93945 15.835 4.08203Q16.9727 5.22461 17.6172 6.72852Q18.2617 8.23242 18.2617 9.96094Q18.2617 11.6895 17.6221 13.1934Q16.9824 14.6973 15.8398 15.835Q14.6973 16.9727 13.1934 17.6172Q11.6895 18.2617 9.96094 18.2617Z" fill="#007aff"/>
  <path d="M6.55273 7.13867Q6.55273 7.87109 6.75293 8.40332Q6.95312 8.93555 7.22656 9.50195Q7.5 10.0684 7.73438 10.8691Q7.96875 11.6699 8.04688 12.9297Q8.05664 13.0762 8.13477 13.1592Q8.21289 13.2422 8.34961 13.2422L11.5234 13.2422Q11.6699 13.2422 11.7529 13.1592Q11.8359 13.0762 11.8457 12.9297Q11.9238 11.6699 12.1582 10.874Q12.3926 10.0781 12.666 9.52637Q12.9395 8.97461 13.1396 8.44727Q13.3398 7.91992 13.3398 7.1875Q13.3398 6.30859 12.8857 5.60059Q12.4316 4.89258 11.6602 4.47266Q10.8887 4.05273 9.94141 4.05273Q8.99414 4.05273 8.22754 4.45801Q7.46094 4.86328 7.00684 5.56152Q6.55273 6.25977 6.55273 7.13867ZM8.4668 14.541L11.4355 14.541Q11.5918 14.541 11.709 14.4238Q11.8262 14.3066 11.8262 14.1406Q11.8262 13.9844 11.709 13.8672Q11.5918 13.75 11.4355 13.75L8.4668 13.75Q8.30078 13.75 8.18359 13.8672Q8.06641 13.9844 8.06641 14.1406Q8.06641 14.3066 8.18359 14.4238Q8.30078 14.541 8.4668 14.541ZM9.95117 15.8594Q10.4688 15.8594 10.8252 15.6396Q11.1816 15.4199 11.2305 15.0391L8.66211 15.0391Q8.70117 15.4199 9.05762 15.6396Q9.41406 15.8594 9.95117 15.8594Z" fill="#007aff"/>
 </g>
</svg>
