<?xml version="1.0" encoding="UTF-8"?>
<!--Generator: Apple Native CoreSVG 175-->
<!DOCTYPE svg
PUBLIC "-//W3C//DTD SVG 1.1//EN"
       "http://www.w3.org/Graphics/SVG/1.1/DTD/svg11.dtd">
<svg version="1.1" xmlns="http://www.w3.org/2000/svg" xmlns:xlink="http://www.w3.org/1999/xlink" width="17.6613" height="22.7637">
 <g>
  <rect height="22.7637" opacity="0" width="17.6613" x="0" y="0"/>
  <path d="M6.02539 17.2852L12.2949 17.2852Q12.3828 17.2852 12.4316 17.2168Q12.4805 17.1484 12.4609 17.041L12.4609 15.5176L11.7969 14.8438L11.7969 16.5723L6.46484 16.5723L6.46484 15.752Q6.46484 14.9121 6.09375 14.1553Q5.72266 13.3984 5.18066 12.6562Q4.63867 11.9141 4.09668 11.123Q3.55469 10.332 3.19336 9.41895Q2.83203 8.50586 2.83203 7.39258Q2.83203 6.82617 2.91016 6.31348Q2.98828 5.80078 3.14453 5.3418L2.48047 4.6875Q2.29492 5.22461 2.1875 5.83984Q2.08008 6.45508 2.08008 7.11914Q2.08008 8.47656 2.45117 9.49707Q2.82227 10.5176 3.37402 11.3232Q3.92578 12.1289 4.47266 12.8174Q5.01953 13.5059 5.39062 14.1943Q5.76172 14.8828 5.76172 15.6836L5.76172 16.9824Q5.76172 17.1191 5.83496 17.2021Q5.9082 17.2852 6.02539 17.2852ZM9.22852 0.703125Q11.1621 0.703125 12.6123 1.50391Q14.0625 2.30469 14.8682 3.75Q15.6738 5.19531 15.6738 7.13867Q15.6738 8.22266 15.3613 9.10645Q15.0488 9.99023 14.5801 10.7373Q14.1113 11.4844 13.623 12.168L14.1211 12.666Q14.6289 11.9727 15.1514 11.1914Q15.6738 10.4102 16.0254 9.41895Q16.377 8.42773 16.377 7.11914Q16.377 5.51758 15.8691 4.20898Q15.3613 2.90039 14.4141 1.95801Q13.4668 1.01562 12.1533 0.507812Q10.8398 0 9.22852 0Q7.48047 0 6.0791 0.600586Q4.67773 1.20117 3.73047 2.28516L4.25781 2.80273Q5.09766 1.79688 6.36719 1.25Q7.63672 0.703125 9.22852 0.703125ZM9.23828 21.6406Q10.1855 21.6406 10.8057 21.2354Q11.4258 20.8301 11.4941 20.166L6.98242 20.166Q7.04102 20.8301 7.66113 21.2354Q8.28125 21.6406 9.23828 21.6406ZM6.44531 19.4141L12.0312 19.4141Q12.3242 19.4141 12.5098 19.2139Q12.6953 19.0137 12.6953 18.7305Q12.6953 18.4277 12.5098 18.2324Q12.3242 18.0371 12.0312 18.0371L6.44531 18.0371Q6.15234 18.0371 5.96191 18.2324Q5.77148 18.4277 5.77148 18.7305Q5.77148 19.0137 5.96191 19.2139Q6.15234 19.4141 6.44531 19.4141ZM17.041 17.9297Q17.1484 18.0371 17.2949 18.0322Q17.4414 18.0273 17.5488 17.9297Q17.6562 17.832 17.6611 17.6758Q17.666 17.5195 17.5488 17.4219L0.625 0.478516Q0.527344 0.390625 0.371094 0.385742Q0.214844 0.380859 0.0976562 0.478516Q0 0.585938 0 0.737305Q0 0.888672 0.0976562 0.986328Z" fill="#007aff"/>
 </g>
</svg>
