<?xml version="1.0" encoding="UTF-8"?>
<!--Generator: Apple Native CoreSVG 175-->
<!DOCTYPE svg
PUBLIC "-//W3C//DTD SVG 1.1//EN"
       "http://www.w3.org/Graphics/SVG/1.1/DTD/svg11.dtd">
<svg version="1.1" xmlns="http://www.w3.org/2000/svg" xmlns:xlink="http://www.w3.org/1999/xlink" width="24.5129" height="12.7576">
 <g>
  <rect height="12.7576" opacity="0" width="24.5129" x="0" y="0"/>
  <path d="M0.388336 12.6384L3.90701 12.6384Q4.05746 12.6384 4.17564 12.5202Q4.29382 12.402 4.29382 12.2543Q4.29382 12.1094 4.17427 11.9948Q4.05472 11.8802 3.90701 11.8802L0.388336 11.8802Q0.236359 11.8802 0.118179 11.9948Q0 12.1094 0 12.2543Q0 12.3993 0.118179 12.5188Q0.236359 12.6384 0.388336 12.6384ZM6.61011 6.60873Q6.71371 6.49811 6.71021 6.34911Q6.7067 6.2001 6.59332 6.07971L4.11758 3.57193Q4.00711 3.46405 3.85178 3.46626Q3.69644 3.46848 3.57193 3.57895Q3.46558 3.68958 3.4726 3.84346Q3.47961 3.99734 3.58597 4.11758L6.06445 6.6185Q6.17233 6.72897 6.32408 6.72546Q6.47583 6.72195 6.61011 6.60873ZM12.2614 4.27429Q12.4091 4.27429 12.5223 4.161Q12.6355 4.0477 12.6355 3.90274L12.6355 0.377045Q12.6355 0.22934 12.5223 0.11467Q12.4091 0 12.2614 0Q12.1066 0 11.992 0.11467Q11.8773 0.22934 11.8773 0.377045L11.8773 3.90274Q11.8773 4.0477 11.992 4.161Q12.1066 4.27429 12.2614 4.27429ZM17.9054 6.60873Q18.0161 6.72897 18.1629 6.72897Q18.3098 6.72897 18.4274 6.60873L20.9297 4.11758Q21.0472 4.00436 21.0437 3.85185Q21.0402 3.69934 20.9297 3.57895Q20.8093 3.4613 20.6625 3.46268Q20.5156 3.46405 20.3979 3.5817L17.9054 6.07971Q17.7852 6.2001 17.7852 6.3456Q17.7852 6.49109 17.9054 6.60873ZM20.6059 12.6384L24.1273 12.6384Q24.2793 12.6384 24.3961 12.5188Q24.5129 12.3993 24.5129 12.2543Q24.5129 12.1094 24.3961 11.9948Q24.2793 11.8802 24.1273 11.8802L20.6059 11.8802Q20.4582 11.8802 20.34 11.9948Q20.2219 12.1094 20.2219 12.2543Q20.2219 12.402 20.34 12.5202Q20.4582 12.6384 20.6059 12.6384ZM8.33679 12.6411L16.1789 12.6411Q16.3266 12.6411 16.4426 12.523Q16.5585 12.4048 16.5585 12.2598Q16.5585 12.1121 16.4439 11.9939Q16.3293 11.8758 16.1789 11.8758L8.33679 11.8758Q8.18359 11.8758 8.06892 11.9939Q7.95425 12.1121 7.95425 12.2598Q7.95425 12.4048 8.0703 12.523Q8.18634 12.6411 8.33679 12.6411Z" fill="#007aff"/>
 </g>
</svg>
