<?xml version="1.0" encoding="UTF-8"?>
<!--Generator: Apple Native CoreSVG 175.5-->
<!DOCTYPE svg
PUBLIC "-//W3C//DTD SVG 1.1//EN"
       "http://www.w3.org/Graphics/SVG/1.1/DTD/svg11.dtd">
<svg version="1.1" xmlns="http://www.w3.org/2000/svg" xmlns:xlink="http://www.w3.org/1999/xlink" width="17.002" height="24.4043">
 <g>
  <rect height="24.4043" opacity="0" width="17.002" x="0" y="0"/>
  <path d="M0 20.2246Q0 21.1914 0.527344 21.7236Q1.05469 22.2559 2.02148 22.2559L5.37109 22.2559Q6.33789 22.2559 6.87012 21.7236Q7.40234 21.1914 7.40234 20.2148L7.40234 4.15039Q7.40234 3.17383 6.87012 2.6416Q6.33789 2.10938 5.37109 2.10938L2.02148 2.10938Q1.05469 2.10938 0.527344 2.63672Q0 3.16406 0 4.14062ZM1.54297 2.83203L2.83203 2.83203L2.83203 0.644531Q2.83203 0.371094 2.6416 0.185547Q2.45117 0 2.17773 0Q1.9043 0 1.72363 0.185547Q1.54297 0.371094 1.54297 0.644531ZM4.57031 2.83203L5.85938 2.83203L5.85938 0.644531Q5.85938 0.371094 5.67383 0.185547Q5.48828 0 5.21484 0Q4.94141 0 4.75586 0.185547Q4.57031 0.371094 4.57031 0.644531ZM3.70117 6.68945Q3.32031 6.68945 3.05664 6.4209Q2.79297 6.15234 2.79297 5.77148Q2.79297 5.39062 3.05664 5.12207Q3.32031 4.85352 3.70117 4.85352Q4.08203 4.85352 4.35059 5.12207Q4.61914 5.39062 4.61914 5.77148Q4.61914 6.15234 4.35059 6.4209Q4.08203 6.68945 3.70117 6.68945ZM3.70117 9.89258Q3.32031 9.89258 3.05664 9.62891Q2.79297 9.36523 2.79297 8.98438Q2.79297 8.60352 3.05664 8.33496Q3.32031 8.06641 3.70117 8.06641Q4.08203 8.06641 4.35059 8.33496Q4.61914 8.60352 4.61914 8.98438Q4.61914 9.36523 4.35059 9.62891Q4.08203 9.89258 3.70117 9.89258ZM3.70117 13.0957Q3.32031 13.0957 3.05664 12.832Q2.79297 12.5684 2.79297 12.1875Q2.79297 11.8066 3.05664 11.543Q3.32031 11.2793 3.70117 11.2793Q4.08203 11.2793 4.35059 11.543Q4.61914 11.8066 4.61914 12.1875Q4.61914 12.5684 4.35059 12.832Q4.08203 13.0957 3.70117 13.0957ZM3.70117 16.3184Q3.32031 16.3184 3.05664 16.0498Q2.79297 15.7812 2.79297 15.4004Q2.79297 15.0195 3.05664 14.751Q3.32031 14.4824 3.70117 14.4824Q4.08203 14.4824 4.35059 14.751Q4.61914 15.0195 4.61914 15.4004Q4.61914 15.7812 4.35059 16.0498Q4.08203 16.3184 3.70117 16.3184ZM3.70117 19.5215Q3.32031 19.5215 3.05664 19.2578Q2.79297 18.9941 2.79297 18.6035Q2.79297 18.2227 3.05664 17.959Q3.32031 17.6953 3.70117 17.6953Q4.08203 17.6953 4.35059 17.959Q4.61914 18.2227 4.61914 18.6035Q4.61914 18.9941 4.35059 19.2578Q4.08203 19.5215 3.70117 19.5215ZM9.58984 20.2539Q9.58984 21.2207 10.1172 21.7529Q10.6445 22.2852 11.6211 22.2852L14.9609 22.2852Q15.9375 22.2852 16.4697 21.7529Q17.002 21.2207 17.002 20.2441L17.002 4.17969Q17.002 3.20312 16.4697 2.6709Q15.9375 2.13867 14.9609 2.13867L11.6211 2.13867Q10.6445 2.13867 10.1172 2.66602Q9.58984 3.19336 9.58984 4.16992ZM11.1328 21.5625L11.1328 23.75Q11.1328 24.0234 11.3184 24.2041Q11.5039 24.3848 11.7773 24.3848Q12.041 24.3848 12.2314 24.1992Q12.4219 24.0137 12.4219 23.75L12.4219 21.5625ZM14.1699 21.5625L14.1699 23.75Q14.1699 24.0137 14.3555 24.1992Q14.541 24.3848 14.8047 24.3848Q15.0781 24.3848 15.2686 24.2041Q15.459 24.0234 15.459 23.75L15.459 21.5625ZM13.291 6.69922Q12.9102 6.69922 12.6465 6.43066Q12.3828 6.16211 12.3828 5.78125Q12.3828 5.40039 12.6465 5.13184Q12.9102 4.86328 13.291 4.86328Q13.6816 4.86328 13.9453 5.13184Q14.209 5.40039 14.209 5.78125Q14.209 6.16211 13.9453 6.43066Q13.6816 6.69922 13.291 6.69922ZM13.291 9.91211Q12.9102 9.91211 12.6465 9.64355Q12.3828 9.375 12.3828 8.99414Q12.3828 8.61328 12.6465 8.34473Q12.9102 8.07617 13.291 8.07617Q13.6816 8.07617 13.9453 8.34473Q14.209 8.61328 14.209 8.99414Q14.209 9.375 13.9453 9.64355Q13.6816 9.91211 13.291 9.91211ZM13.291 13.1152Q12.9102 13.1152 12.6465 12.8516Q12.3828 12.5879 12.3828 12.207Q12.3828 11.8262 12.6465 11.5576Q12.9102 11.2891 13.291 11.2891Q13.6816 11.2891 13.9453 11.5576Q14.209 11.8262 14.209 12.207Q14.209 12.5879 13.9453 12.8516Q13.6816 13.1152 13.291 13.1152ZM13.291 16.3281Q12.9102 16.3281 12.6465 16.0596Q12.3828 15.791 12.3828 15.4102Q12.3828 15.0293 12.6465 14.7656Q12.9102 14.502 13.291 14.502Q13.6816 14.502 13.9453 14.7656Q14.209 15.0293 14.209 15.4102Q14.209 15.791 13.9453 16.0596Q13.6816 16.3281 13.291 16.3281ZM13.291 19.541Q12.9102 19.541 12.6465 19.2725Q12.3828 19.0039 12.3828 18.623Q12.3828 18.2422 12.6465 17.9736Q12.9102 17.7051 13.291 17.7051Q13.6816 17.7051 13.9453 17.9736Q14.209 18.2422 14.209 18.623Q14.209 19.0039 13.9453 19.2725Q13.6816 19.541 13.291 19.541Z" fill="#007aff"/>
 </g>
</svg>
