<?xml version="1.0" encoding="UTF-8"?>
<!--Generator: Apple Native CoreSVG 175.5-->
<!DOCTYPE svg
PUBLIC "-//W3C//DTD SVG 1.1//EN"
       "http://www.w3.org/Graphics/SVG/1.1/DTD/svg11.dtd">
<svg version="1.1" xmlns="http://www.w3.org/2000/svg" xmlns:xlink="http://www.w3.org/1999/xlink" width="14.3164" height="21.6113">
 <g>
  <rect height="21.6113" opacity="0" width="14.3164" x="0" y="0"/>
  <path d="M3.02734 21.6016L11.2891 21.6016Q12.8027 21.6016 13.5596 20.835Q14.3164 20.0684 14.3164 18.5449L14.3164 3.06641Q14.3164 1.5332 13.5596 0.766602Q12.8027 0 11.2891 0L3.02734 0Q1.51367 0 0.756836 0.766602Q0 1.5332 0 3.06641L0 18.5449Q0 20.0684 0.756836 20.835Q1.51367 21.6016 3.02734 21.6016Z" fill="#007aff"/>
  <path d="M3.45703 9.25781Q2.95898 9.25781 2.74902 9.04785Q2.53906 8.83789 2.53906 8.34961L2.53906 3.52539Q2.53906 3.03711 2.74902 2.82715Q2.95898 2.61719 3.45703 2.61719L10.8105 2.61719Q11.3086 2.61719 11.5234 2.82715Q11.7383 3.03711 11.7383 3.52539L11.7383 8.34961Q11.7383 8.83789 11.5234 9.04785Q11.3086 9.25781 10.8105 9.25781Z" fill="#ffffff"/>
 </g>
</svg>
