<?xml version="1.0" encoding="UTF-8"?>
<!--Generator: Apple Native CoreSVG 175.5-->
<!DOCTYPE svg
PUBLIC "-//W3C//DTD SVG 1.1//EN"
       "http://www.w3.org/Graphics/SVG/1.1/DTD/svg11.dtd">
<svg version="1.1" xmlns="http://www.w3.org/2000/svg" xmlns:xlink="http://www.w3.org/1999/xlink" width="17.9785" height="17.998">
 <g>
  <rect height="17.998" opacity="0" width="17.9785" x="0" y="0"/>
  <path d="M3.06641 17.998L14.9121 17.998Q16.4453 17.998 17.2119 17.2412Q17.9785 16.4844 17.9785 14.9707L17.9785 3.04688Q17.9785 1.5332 17.2119 0.776367Q16.4453 0.0195312 14.9121 0.0195312L3.06641 0.0195312Q1.5332 0.0195312 0.766602 0.776367Q0 1.5332 0 3.04688L0 14.9707Q0 16.4844 0.766602 17.2412Q1.5332 17.998 3.06641 17.998ZM3.08594 16.4258Q2.35352 16.4258 1.96289 16.04Q1.57227 15.6543 1.57227 14.8926L1.57227 3.125Q1.57227 2.36328 1.96289 1.97754Q2.35352 1.5918 3.08594 1.5918L14.8926 1.5918Q15.6152 1.5918 16.0107 1.97754Q16.4062 2.36328 16.4062 3.125L16.4062 14.8926Q16.4062 15.6543 16.0107 16.04Q15.6152 16.4258 14.8926 16.4258Z" fill="#007aff"/>
  <path d="M6.38672 14.0918L11.5918 14.0918Q11.8945 14.0918 12.0996 13.8867Q12.3047 13.6816 12.3047 13.3789L12.3047 4.63867Q12.3047 4.31641 12.0996 4.11621Q11.8945 3.91602 11.5918 3.91602L6.38672 3.91602Q6.08398 3.91602 5.87891 4.11621Q5.67383 4.31641 5.67383 4.63867L5.67383 13.3789Q5.67383 13.6816 5.87891 13.8867Q6.08398 14.0918 6.38672 14.0918ZM7.09961 8.10547Q6.77734 8.10547 6.77734 7.76367L6.77734 5.35156Q6.77734 5.01953 7.09961 5.01953L10.8789 5.01953Q11.2012 5.01953 11.2012 5.35156L11.2012 7.76367Q11.2012 8.10547 10.8789 8.10547Z" fill="#007aff"/>
 </g>
</svg>
