<?xml version="1.0" encoding="UTF-8"?>
<!--Generator: Apple Native CoreSVG 175-->
<!DOCTYPE svg
PUBLIC "-//W3C//DTD SVG 1.1//EN"
       "http://www.w3.org/Graphics/SVG/1.1/DTD/svg11.dtd">
<svg version="1.1" xmlns="http://www.w3.org/2000/svg" xmlns:xlink="http://www.w3.org/1999/xlink" width="14.2969" height="22.7637">
 <g>
  <rect height="22.7637" opacity="0" width="14.2969" x="0" y="0"/>
  <path d="M3.94531 17.2852L10.3516 17.2852Q10.4688 17.2852 10.542 17.2021Q10.6152 17.1191 10.6152 16.9824L10.6152 15.6934Q10.6152 14.8926 10.9863 14.1992Q11.3574 13.5059 11.9043 12.8174Q12.4512 12.1289 13.0029 11.3232Q13.5547 10.5176 13.9258 9.49707Q14.2969 8.47656 14.2969 7.11914Q14.2969 5.52734 13.7891 4.21387Q13.2812 2.90039 12.334 1.95801Q11.3867 1.01562 10.0732 0.507812Q8.75977 0 7.14844 0Q5.53711 0 4.22363 0.507812Q2.91016 1.01562 1.96289 1.95801Q1.01562 2.90039 0.507812 4.21387Q0 5.52734 0 7.11914Q0 8.47656 0.371094 9.49707Q0.742188 10.5176 1.29395 11.3232Q1.8457 12.1289 2.39258 12.8174Q2.93945 13.5059 3.31055 14.1992Q3.68164 14.8926 3.68164 15.6934L3.68164 16.9824Q3.68164 17.1191 3.75488 17.2021Q3.82812 17.2852 3.94531 17.2852ZM4.38477 16.9824Q4.38477 16.7871 4.38477 16.5771Q4.38477 16.3672 4.38477 16.167Q4.38477 15.9668 4.38477 15.7617Q4.38477 14.8828 4.01367 14.1309Q3.64258 13.3789 3.09082 12.6367Q2.53906 11.8945 1.99219 11.084Q1.44531 10.2734 1.07422 9.31152Q0.703125 8.34961 0.703125 7.13867Q0.703125 5.20508 1.50391 3.75488Q2.30469 2.30469 3.75977 1.50391Q5.21484 0.703125 7.14844 0.703125Q9.08203 0.703125 10.5322 1.50391Q11.9824 2.30469 12.7881 3.75488Q13.5938 5.20508 13.5938 7.13867Q13.5938 8.34961 13.2178 9.31152Q12.8418 10.2734 12.2998 11.084Q11.7578 11.8945 11.2061 12.6367Q10.6543 13.3789 10.2832 14.1309Q9.91211 14.8828 9.91211 15.7617Q9.91211 16.0645 9.91211 16.3721Q9.91211 16.6797 9.91211 16.9824L10.3125 16.5723L3.98438 16.5723ZM7.1582 21.6406Q8.10547 21.6406 8.72559 21.2354Q9.3457 20.8301 9.41406 20.166L4.90234 20.166Q4.96094 20.8301 5.58105 21.2354Q6.20117 21.6406 7.1582 21.6406ZM4.36523 19.4141L9.95117 19.4141Q10.2441 19.4141 10.4297 19.2139Q10.6152 19.0137 10.6152 18.7305Q10.6152 18.4277 10.4297 18.2324Q10.2441 18.0371 9.95117 18.0371L4.36523 18.0371Q4.07227 18.0371 3.88184 18.2324Q3.69141 18.4277 3.69141 18.7305Q3.69141 19.0137 3.88184 19.2139Q4.07227 19.4141 4.36523 19.4141Z" fill="#007aff"/>
 </g>
</svg>
