<?xml version="1.0" encoding="UTF-8"?>
<!--Generator: Apple Native CoreSVG 175.5-->
<!DOCTYPE svg
PUBLIC "-//W3C//DTD SVG 1.1//EN"
       "http://www.w3.org/Graphics/SVG/1.1/DTD/svg11.dtd">
<svg version="1.1" xmlns="http://www.w3.org/2000/svg" xmlns:xlink="http://www.w3.org/1999/xlink" width="13.0664" height="23.3301">
 <g>
  <rect height="23.3301" opacity="0" width="13.0664" x="0" y="0"/>
  <path d="M0 6.01562Q0 7.14844 0.234375 8.0127Q0.46875 8.87695 0.830078 9.70703Q1.19141 10.5371 1.5918 11.5332Q1.99219 12.5293 2.33887 13.8916Q2.68555 15.2539 2.87109 17.207Q2.90039 17.4707 3.04688 17.627Q3.19336 17.7832 3.47656 17.7832L9.58984 17.7832Q9.87305 17.7832 10.0244 17.627Q10.1758 17.4707 10.2051 17.207Q10.3906 15.2539 10.7324 13.8916Q11.0742 12.5293 11.4795 11.5332Q11.8848 10.5371 12.2461 9.70703Q12.6074 8.87695 12.8369 8.0127Q13.0664 7.14844 13.0664 6.01562Q13.0664 4.75586 12.5684 3.66211Q12.0703 2.56836 11.1768 1.74316Q10.2832 0.917969 9.0918 0.458984Q7.90039 0 6.5332 0Q5.16602 0 3.97949 0.458984Q2.79297 0.917969 1.89941 1.74316Q1.00586 2.56836 0.50293 3.66211Q0 4.75586 0 6.01562ZM1.47461 6.01562Q1.47461 5.0293 1.875 4.19922Q2.27539 3.36914 2.97852 2.75879Q3.68164 2.14844 4.59473 1.81152Q5.50781 1.47461 6.5332 1.47461Q7.56836 1.47461 8.48145 1.81152Q9.39453 2.14844 10.0977 2.75879Q10.8008 3.36914 11.1963 4.19922Q11.5918 5.0293 11.5918 6.01562Q11.5918 6.85547 11.3965 7.51953Q11.2012 8.18359 10.8838 8.88672Q10.5664 9.58984 10.1953 10.5371Q9.82422 11.4844 9.47266 12.8711Q9.12109 14.2578 8.85742 16.3086L4.21875 16.3086Q3.95508 14.2578 3.59863 12.8711Q3.24219 11.4844 2.87109 10.5371Q2.5 9.58984 2.18262 8.88672Q1.86523 8.18359 1.66992 7.51953Q1.47461 6.85547 1.47461 6.01562ZM3.44727 19.8926L9.62891 19.8926Q9.86328 19.8926 10.0293 19.7266Q10.1953 19.5605 10.1953 19.3164Q10.1953 19.082 10.0293 18.916Q9.86328 18.75 9.62891 18.75L3.44727 18.75Q3.20312 18.75 3.03711 18.916Q2.87109 19.082 2.87109 19.3164Q2.87109 19.5605 3.03711 19.7266Q3.20312 19.8926 3.44727 19.8926ZM6.5332 22.7246Q7.66602 22.7246 8.50098 22.2119Q9.33594 21.6992 9.4043 20.8594L3.67188 20.8594Q3.7207 21.6992 4.55566 22.2119Q5.39062 22.7246 6.5332 22.7246Z" fill="#007aff"/>
 </g>
</svg>
