<?xml version="1.0" encoding="UTF-8"?>
<!--Generator: Apple Native CoreSVG 175.5-->
<!DOCTYPE svg
PUBLIC "-//W3C//DTD SVG 1.1//EN"
       "http://www.w3.org/Graphics/SVG/1.1/DTD/svg11.dtd">
<svg version="1.1" xmlns="http://www.w3.org/2000/svg" xmlns:xlink="http://www.w3.org/1999/xlink" width="27.6855" height="16.7285">
 <g>
  <rect height="16.7285" opacity="0" width="27.6855" x="0" y="0"/>
  <path d="M13.8281 16.709Q16.9141 16.709 19.458 16.0547Q22.002 15.4004 23.8428 14.248Q25.6836 13.0957 26.6846 11.582Q27.6855 10.0684 27.6855 8.35938Q27.6855 6.64062 26.6846 5.13184Q25.6836 3.62305 23.8428 2.46582Q22.002 1.30859 19.458 0.654297Q16.9141 0 13.8281 0Q10.7422 0 8.20312 0.654297Q5.66406 1.30859 3.82812 2.46582Q1.99219 3.62305 0.996094 5.13184Q0 6.64062 0 8.35938Q0 10.0684 0.996094 11.582Q1.99219 13.0957 3.82812 14.248Q5.66406 15.4004 8.20312 16.0547Q10.7422 16.709 13.8281 16.709ZM13.8281 13.7695Q11.875 13.7695 10.21 13.3887Q8.54492 13.0078 7.2998 12.3145Q6.05469 11.6211 5.36621 10.6787Q4.67773 9.73633 4.67773 8.62305Q4.67773 7.51953 5.36621 6.58203Q6.05469 5.64453 7.2998 4.95117Q8.54492 4.25781 10.21 3.87695Q11.875 3.49609 13.8281 3.49609Q15.791 3.49609 17.4609 3.87695Q19.1309 4.25781 20.3809 4.95117Q21.6309 5.64453 22.3242 6.58203Q23.0176 7.51953 23.0176 8.62305Q23.0176 9.73633 22.3193 10.6738Q21.6211 11.6113 20.376 12.3096Q19.1309 13.0078 17.4561 13.3887Q15.7812 13.7695 13.8281 13.7695ZM13.8184 9.21875Q15.3125 9.21875 16.6309 8.80371Q17.9492 8.38867 18.9307 7.66113Q19.9121 6.93359 20.4199 5.99609Q19.3457 5.27344 17.666 4.85352Q15.9863 4.43359 13.8281 4.43359Q11.6699 4.43359 9.97559 4.86328Q8.28125 5.29297 7.20703 6.03516Q7.72461 6.96289 8.71094 7.68066Q9.69727 8.39844 11.0107 8.80859Q12.3242 9.21875 13.8184 9.21875Z" fill="#007aff"/>
 </g>
</svg>
