<?xml version="1.0" encoding="UTF-8"?>
<!--Generator: Apple Native CoreSVG 175.5-->
<!DOCTYPE svg
PUBLIC "-//W3C//DTD SVG 1.1//EN"
       "http://www.w3.org/Graphics/SVG/1.1/DTD/svg11.dtd">
<svg version="1.1" xmlns="http://www.w3.org/2000/svg" xmlns:xlink="http://www.w3.org/1999/xlink" width="17.9785" height="17.998">
 <g>
  <rect height="17.998" opacity="0" width="17.9785" x="0" y="0"/>
  <path d="M3.06641 17.998L14.9121 17.998Q16.4453 17.998 17.2119 17.2412Q17.9785 16.4844 17.9785 14.9707L17.9785 3.04688Q17.9785 1.5332 17.2119 0.776367Q16.4453 0.0195312 14.9121 0.0195312L3.06641 0.0195312Q1.5332 0.0195312 0.766602 0.776367Q0 1.5332 0 3.04688L0 14.9707Q0 16.4844 0.766602 17.2412Q1.5332 17.998 3.06641 17.998Z" fill="#007aff"/>
  <path d="M6.30859 14.2578Q5.98633 14.2578 5.77637 14.0479Q5.56641 13.8379 5.56641 13.5156L5.56641 4.50195Q5.56641 4.16992 5.77637 3.95996Q5.98633 3.75 6.30859 3.75L11.6699 3.75Q11.9922 3.75 12.2021 3.95996Q12.4121 4.16992 12.4121 4.50195L12.4121 13.5156Q12.4121 13.8379 12.2021 14.0479Q11.9922 14.2578 11.6699 14.2578ZM7.04102 8.07617L10.9375 8.07617Q11.2695 8.07617 11.2695 7.72461L11.2695 5.23438Q11.2695 4.89258 10.9375 4.89258L7.04102 4.89258Q6.70898 4.89258 6.70898 5.23438L6.70898 7.72461Q6.70898 8.07617 7.04102 8.07617Z" fill="#ffffff"/>
 </g>
</svg>
