<?xml version="1.0" encoding="UTF-8"?>
<!--Generator: Apple Native CoreSVG 175-->
<!DOCTYPE svg
PUBLIC "-//W3C//DTD SVG 1.1//EN"
       "http://www.w3.org/Graphics/SVG/1.1/DTD/svg11.dtd">
<svg version="1.1" xmlns="http://www.w3.org/2000/svg" xmlns:xlink="http://www.w3.org/1999/xlink" width="19.1602" height="19.1504">
 <g>
  <rect height="19.1504" opacity="0" width="19.1602" x="0" y="0"/>
  <path d="M9.57031 19.1406Q11.5527 19.1406 13.2861 18.3984Q15.0195 17.6562 16.3379 16.333Q17.6562 15.0098 18.4082 13.2764Q19.1602 11.543 19.1602 9.57031Q19.1602 7.59766 18.4082 5.86426Q17.6562 4.13086 16.3379 2.80762Q15.0195 1.48438 13.2861 0.742188Q11.5527 0 9.57031 0Q7.59766 0 5.86426 0.742188Q4.13086 1.48438 2.81738 2.80762Q1.50391 4.13086 0.751953 5.86426Q0 7.59766 0 9.57031Q0 11.543 0.74707 13.2764Q1.49414 15.0098 2.8125 16.333Q4.13086 17.6562 5.86914 18.3984Q7.60742 19.1406 9.57031 19.1406ZM9.57031 18.3984Q7.74414 18.3984 6.14746 17.71Q4.55078 17.0215 3.33496 15.8105Q2.11914 14.5996 1.43555 12.998Q0.751953 11.3965 0.751953 9.57031Q0.751953 7.74414 1.43555 6.14258Q2.11914 4.54102 3.33496 3.3252Q4.55078 2.10938 6.14746 1.4209Q7.74414 0.732422 9.57031 0.732422Q11.4062 0.732422 13.0029 1.4209Q14.5996 2.10938 15.8154 3.3252Q17.0312 4.54102 17.7197 6.14258Q18.4082 7.74414 18.4082 9.57031Q18.4082 11.3965 17.7246 12.998Q17.041 14.5996 15.8252 15.8105Q14.6094 17.0215 13.0078 17.71Q11.4062 18.3984 9.57031 18.3984ZM4.05273 7.16797L15.1172 7.16797Q15.2637 7.16797 15.3662 7.0752Q15.4688 6.98242 15.4688 6.82617Q15.4688 6.66992 15.3662 6.57715Q15.2637 6.48438 15.1172 6.48438L4.05273 6.48438Q3.89648 6.48438 3.79395 6.57715Q3.69141 6.66992 3.69141 6.82617Q3.69141 6.98242 3.79395 7.0752Q3.89648 7.16797 4.05273 7.16797ZM5.46875 10.3711L13.6914 10.3711Q13.8379 10.3711 13.9453 10.2832Q14.0527 10.1953 14.0527 10.0391Q14.0527 9.88281 13.9453 9.79004Q13.8379 9.69727 13.6914 9.69727L5.46875 9.69727Q5.32227 9.69727 5.21484 9.79004Q5.10742 9.88281 5.10742 10.0391Q5.10742 10.1953 5.21484 10.2832Q5.32227 10.3711 5.46875 10.3711ZM6.95312 13.6133L12.2168 13.6133Q12.3633 13.6133 12.4658 13.5205Q12.5684 13.4277 12.5684 13.2812Q12.5684 13.1152 12.4658 13.0273Q12.3633 12.9395 12.2168 12.9395L6.95312 12.9395Q6.79688 12.9395 6.69434 13.0273Q6.5918 13.1152 6.5918 13.2812Q6.5918 13.4277 6.69434 13.5205Q6.79688 13.6133 6.95312 13.6133Z" fill="#007aff"/>
 </g>
</svg>
