<?xml version="1.0" encoding="UTF-8"?>
<!--Generator: Apple Native CoreSVG 175-->
<!DOCTYPE svg
PUBLIC "-//W3C//DTD SVG 1.1//EN"
       "http://www.w3.org/Graphics/SVG/1.1/DTD/svg11.dtd">
<svg version="1.1" xmlns="http://www.w3.org/2000/svg" xmlns:xlink="http://www.w3.org/1999/xlink" width="19.2355" height="10.3427">
 <g>
  <rect height="10.3427" opacity="0" width="19.2355" x="0" y="0"/>
  <path d="M5.15305 10.3232L14.0961 10.3232Q14.2453 10.3232 14.3518 10.218Q14.4583 10.1129 14.4583 9.96368Q14.4583 9.81445 14.3518 9.70802Q14.2453 9.60159 14.0961 9.60159L5.15305 9.60159Q5.00381 9.60159 4.89876 9.70802Q4.7937 9.81445 4.7937 9.96368Q4.7937 10.1129 4.89876 10.218Q5.00381 10.3232 5.15305 10.3232ZM2.76443 5.52582L16.4876 5.52582Q16.6341 5.52582 16.7405 5.42076Q16.8469 5.3157 16.8469 5.16647Q16.8469 5.01724 16.7405 4.91081Q16.6341 4.80438 16.4876 4.80438L2.76443 4.80438Q2.6152 4.80438 2.50877 4.91081Q2.40234 5.01724 2.40234 5.16647Q2.40234 5.3157 2.50877 5.42076Q2.6152 5.52582 2.76443 5.52582ZM0.359344 0.728607L18.8762 0.728607Q19.0254 0.728607 19.1305 0.62355Q19.2355 0.518494 19.2355 0.369263Q19.2355 0.213013 19.1305 0.106506Q19.0254 0 18.8762 0L0.359344 0Q0.21286 0 0.10643 0.106506Q0 0.213013 0 0.369263Q0 0.518494 0.10643 0.62355Q0.21286 0.728607 0.359344 0.728607Z" fill="#007aff"/>
 </g>
</svg>
