<?xml version="1.0" encoding="UTF-8"?>
<!--Generator: Apple Native CoreSVG 175-->
<!DOCTYPE svg
PUBLIC "-//W3C//DTD SVG 1.1//EN"
       "http://www.w3.org/Graphics/SVG/1.1/DTD/svg11.dtd">
<svg version="1.1" xmlns="http://www.w3.org/2000/svg" xmlns:xlink="http://www.w3.org/1999/xlink" width="14.2956" height="14.6282">
 <g>
  <rect height="14.6282" opacity="0" width="14.2956" x="0" y="0"/>
  <path d="M0.105546 14.1725Q0.213274 14.2776 0.361131 14.2776Q0.508989 14.2776 0.614122 14.1725L10.1849 4.63544L12.1629 6.61633Q12.2528 6.70346 12.3468 6.71048Q12.4408 6.7175 12.5202 6.65402Q12.5997 6.59054 12.6329 6.46466L14.2785 0.396697Q14.3161 0.272185 14.2711 0.170409Q14.2262 0.0686327 14.1231 0.0236956Q14.02-0.0212415 13.8981 0.0190417L7.8329 1.66897Q7.70702 1.70499 7.64217 1.7796Q7.57732 1.85422 7.58441 1.95164Q7.59151 2.04907 7.68825 2.1362L9.67189 4.12686L0.105546 13.6639Q-0.00660563 13.769 0.000413414 13.9204Q0.00743246 14.0718 0.105546 14.1725Z" fill="#ffffff"/>
 </g>
</svg>
