<?xml version="1.0" encoding="UTF-8"?>
<!--Generator: Apple Native CoreSVG 175.5-->
<!DOCTYPE svg
PUBLIC "-//W3C//DTD SVG 1.1//EN"
       "http://www.w3.org/Graphics/SVG/1.1/DTD/svg11.dtd">
<svg version="1.1" xmlns="http://www.w3.org/2000/svg" xmlns:xlink="http://www.w3.org/1999/xlink" width="19.7559" height="11.6504">
 <g>
  <rect height="11.6504" opacity="0" width="19.7559" x="0" y="0"/>
  <path d="M4.84375 11.6309L14.9609 11.6309Q15.293 11.6309 15.5225 11.4062Q15.752 11.1816 15.752 10.8496Q15.752 10.5176 15.5225 10.2881Q15.293 10.0586 14.9609 10.0586L4.84375 10.0586Q4.51172 10.0586 4.28711 10.2881Q4.0625 10.5176 4.0625 10.8496Q4.0625 11.1816 4.28711 11.4062Q4.51172 11.6309 4.84375 11.6309ZM2.8418 6.60156L16.9727 6.60156Q17.2949 6.60156 17.5244 6.37695Q17.7539 6.15234 17.7539 5.82031Q17.7539 5.48828 17.5244 5.25879Q17.2949 5.0293 16.9727 5.0293L2.8418 5.0293Q2.50977 5.0293 2.28027 5.25879Q2.05078 5.48828 2.05078 5.82031Q2.05078 6.15234 2.28027 6.37695Q2.50977 6.60156 2.8418 6.60156ZM0.78125 1.57227L18.9746 1.57227Q19.3066 1.57227 19.5312 1.34766Q19.7559 1.12305 19.7559 0.791016Q19.7559 0.458984 19.5312 0.229492Q19.3066 0 18.9746 0L0.78125 0Q0.458984 0 0.229492 0.229492Q0 0.458984 0 0.791016Q0 1.12305 0.229492 1.34766Q0.458984 1.57227 0.78125 1.57227Z" fill="#007aff"/>
 </g>
</svg>
