<?xml version="1.0" encoding="UTF-8"?>
<!--Generator: Apple Native CoreSVG 175-->
<!DOCTYPE svg
PUBLIC "-//W3C//DTD SVG 1.1//EN"
       "http://www.w3.org/Graphics/SVG/1.1/DTD/svg11.dtd">
<svg version="1.1" xmlns="http://www.w3.org/2000/svg" xmlns:xlink="http://www.w3.org/1999/xlink" width="19.1602" height="19.1504">
 <g>
  <rect height="19.1504" opacity="0" width="19.1602" x="0" y="0"/>
  <path d="M9.57031 19.1406Q11.5527 19.1406 13.2861 18.3984Q15.0195 17.6562 16.3379 16.333Q17.6562 15.0098 18.4082 13.2764Q19.1602 11.543 19.1602 9.57031Q19.1602 7.59766 18.4082 5.86426Q17.6562 4.13086 16.3379 2.80762Q15.0195 1.48438 13.2861 0.742188Q11.5527 0 9.57031 0Q7.59766 0 5.86426 0.742188Q4.13086 1.48438 2.81738 2.80762Q1.50391 4.13086 0.751953 5.86426Q0 7.59766 0 9.57031Q0 11.543 0.74707 13.2764Q1.49414 15.0098 2.8125 16.333Q4.13086 17.6562 5.86914 18.3984Q7.60742 19.1406 9.57031 19.1406ZM9.57031 18.3984Q7.74414 18.3984 6.14746 17.71Q4.55078 17.0215 3.33496 15.8105Q2.11914 14.5996 1.43555 12.998Q0.751953 11.3965 0.751953 9.57031Q0.751953 7.74414 1.43555 6.14258Q2.11914 4.54102 3.33496 3.3252Q4.55078 2.10938 6.14746 1.4209Q7.74414 0.732422 9.57031 0.732422Q11.4062 0.732422 13.0029 1.4209Q14.5996 2.10938 15.8154 3.3252Q17.0312 4.54102 17.7197 6.14258Q18.4082 7.74414 18.4082 9.57031Q18.4082 11.3965 17.7246 12.998Q17.041 14.5996 15.8252 15.8105Q14.6094 17.0215 13.0078 17.71Q11.4062 18.3984 9.57031 18.3984ZM4.87305 14.0332Q5.69336 14.8438 6.66504 14.7949Q7.63672 14.7461 8.51562 13.8672L10.4688 11.9238Q11.3574 11.0449 11.4062 10.0586Q11.4551 9.07227 10.6348 8.27148Q10.2832 7.92969 9.95605 7.74902Q9.62891 7.56836 9.28711 7.5293Q9.16016 7.61719 9.02832 7.76855Q8.89648 7.91992 8.83789 8.10547Q9.21875 8.10547 9.55078 8.24219Q9.88281 8.37891 10.1855 8.70117Q10.8105 9.30664 10.7812 10.0586Q10.752 10.8105 10.0488 11.4746L8.06641 13.457Q7.39258 14.1309 6.65527 14.1602Q5.91797 14.1895 5.3125 13.5938Q4.70703 12.9883 4.73145 12.2461Q4.75586 11.5039 5.43945 10.8398L7.04102 9.21875Q7.00195 9.0332 7.02637 8.78418Q7.05078 8.53516 7.16797 8.25195L5.0293 10.3906Q4.14062 11.2695 4.09668 12.2461Q4.05273 13.2227 4.87305 14.0332ZM13.877 5.03906Q13.0469 4.21875 12.0752 4.26758Q11.1035 4.31641 10.2246 5.19531L8.27148 7.13867Q7.38281 8.01758 7.33398 9.00391Q7.28516 9.99023 8.10547 10.8008Q8.45703 11.1426 8.78906 11.3232Q9.12109 11.5039 9.45312 11.5332Q9.58008 11.4453 9.71191 11.2939Q9.84375 11.1426 9.90234 10.957Q9.52148 10.957 9.18945 10.8203Q8.85742 10.6836 8.55469 10.3516Q7.92969 9.76562 7.96387 9.01367Q7.99805 8.26172 8.69141 7.58789L10.6738 5.61523Q11.3477 4.92188 12.085 4.89258Q12.8223 4.86328 13.4277 5.47852Q14.043 6.07422 14.0186 6.82129Q13.9941 7.56836 13.3008 8.22266L11.6992 9.84375Q11.7383 10.0293 11.7188 10.2783Q11.6992 10.5273 11.5723 10.8203L13.7109 8.68164Q14.5996 7.80273 14.6484 6.82129Q14.6973 5.83984 13.877 5.03906Z" fill="#0a84ff"/>
 </g>
</svg>
