<?xml version="1.0" encoding="UTF-8"?>
<!--Generator: Apple Native CoreSVG 175-->
<!DOCTYPE svg
PUBLIC "-//W3C//DTD SVG 1.1//EN"
       "http://www.w3.org/Graphics/SVG/1.1/DTD/svg11.dtd">
<svg version="1.1" xmlns="http://www.w3.org/2000/svg" xmlns:xlink="http://www.w3.org/1999/xlink" width="17.2852" height="17.3145">
 <g>
  <rect height="17.3145" opacity="0" width="17.2852" x="0" y="0"/>
  <path d="M2.62695 17.3145L14.6484 17.3145Q15.957 17.3145 16.6211 16.6455Q17.2852 15.9766 17.2852 14.6875L17.2852 2.65625Q17.2852 1.37695 16.6211 0.703125Q15.957 0.0292969 14.6484 0.0292969L2.62695 0.0292969Q1.33789 0.0292969 0.668945 0.693359Q0 1.35742 0 2.65625L0 14.6875Q0 15.9863 0.668945 16.6504Q1.33789 17.3145 2.62695 17.3145Z" fill="#ffffff"/>
  <path d="M5.39062 12.5586Q5.39062 12.4316 5.46387 12.3438Q5.53711 12.2559 5.67383 12.2168Q6.39648 12.0703 6.80176 11.5234Q7.20703 10.9766 7.2168 10.3125Q7.22656 10 7.17773 9.77539L5.9082 9.77539Q5.76172 9.77539 5.67383 9.6875Q5.58594 9.59961 5.58594 9.47266Q5.58594 9.33594 5.67383 9.24805Q5.76172 9.16016 5.9082 9.16016L7.07031 9.16016Q7.01172 8.90625 6.93848 8.65234Q6.86523 8.39844 6.79688 8.14453L5.9082 8.14453Q5.76172 8.14453 5.67383 8.05664Q5.58594 7.96875 5.58594 7.83203Q5.58594 7.70508 5.67383 7.61719Q5.76172 7.5293 5.9082 7.5293L6.67969 7.5293Q6.64062 7.37305 6.63086 7.22168Q6.62109 7.07031 6.62109 6.91406Q6.62109 5.75195 7.3291 5.02441Q8.03711 4.29688 9.46289 4.29688Q10.0195 4.29688 10.4443 4.41406Q10.8691 4.53125 11.1035 4.63867Q11.3379 4.75586 11.3379 4.95117Q11.3379 5.09766 11.2158 5.18066Q11.0938 5.26367 10.9277 5.21484Q10.6641 5.11719 10.3076 5.01953Q9.95117 4.92188 9.48242 4.92188Q8.35938 4.92188 7.82227 5.47852Q7.28516 6.03516 7.28516 6.88477Q7.28516 7.04102 7.2998 7.20703Q7.31445 7.37305 7.34375 7.5293L10.3516 7.5293Q10.498 7.5293 10.5859 7.61719Q10.6738 7.70508 10.6738 7.83203Q10.6738 7.96875 10.5859 8.05664Q10.498 8.14453 10.3516 8.14453L7.48047 8.14453Q7.54883 8.38867 7.62207 8.64258Q7.69531 8.89648 7.75391 9.16016L10.3516 9.16016Q10.498 9.16016 10.5859 9.24805Q10.6738 9.33594 10.6738 9.47266Q10.6738 9.59961 10.5859 9.6875Q10.498 9.77539 10.3516 9.77539L7.86133 9.77539Q7.87109 9.91211 7.87598 10.0488Q7.88086 10.1855 7.88086 10.3223Q7.86133 10.8789 7.59277 11.4111Q7.32422 11.9434 6.93359 12.2461L11.3965 12.2461Q11.5527 12.2461 11.6455 12.334Q11.7383 12.4219 11.7383 12.5684Q11.7383 12.7051 11.6455 12.7979Q11.5527 12.8906 11.3965 12.8906L5.72266 12.8906Q5.57617 12.8906 5.4834 12.7979Q5.39062 12.7051 5.39062 12.5586Z" fill="#ffffff"/>
 </g>
</svg>
