<?xml version="1.0" encoding="UTF-8"?>
<!--Generator: Apple Native CoreSVG 175-->
<!DOCTYPE svg
PUBLIC "-//W3C//DTD SVG 1.1//EN"
       "http://www.w3.org/Graphics/SVG/1.1/DTD/svg11.dtd">
<svg version="1.1" xmlns="http://www.w3.org/2000/svg" xmlns:xlink="http://www.w3.org/1999/xlink" width="15.779" height="20.6747">
 <g>
  <rect height="20.6747" opacity="0" width="15.779" x="0" y="0"/>
  <path d="M3.29697 4.96216Q3.65662 4.96216 3.90976 4.70901Q4.1629 4.45587 4.1629 4.09622Q4.1629 3.73215 3.90976 3.47763Q3.65662 3.22311 3.29697 3.22311Q2.93991 3.22311 2.68188 3.47763Q2.42386 3.73215 2.42386 4.09622Q2.42386 4.45312 2.68188 4.70764Q2.93991 4.96216 3.29697 4.96216ZM3.29697 8.13324Q3.65662 8.13324 3.90976 7.87521Q4.1629 7.61719 4.1629 7.26028Q4.1629 6.90048 3.90976 6.64871Q3.65662 6.39694 3.29697 6.39694Q2.93716 6.39694 2.68051 6.65009Q2.42386 6.90323 2.42386 7.26028Q2.42386 7.61719 2.68051 7.87521Q2.93716 8.13324 3.29697 8.13324ZM3.29697 11.3286Q3.65662 11.3286 3.90976 11.0754Q4.1629 10.8223 4.1629 10.4555Q4.1629 10.0958 3.90976 9.84268Q3.65662 9.58954 3.29697 9.58954Q2.93991 9.58954 2.68188 9.84406Q2.42386 10.0986 2.42386 10.4555Q2.42386 10.8195 2.68188 11.0741Q2.93991 11.3286 3.29697 11.3286ZM6.00861 4.42307L13.0309 4.42307Q13.1696 4.42307 13.2623 4.33029Q13.3551 4.23752 13.3551 4.09622Q13.3551 3.9505 13.2623 3.86124Q13.1696 3.77197 13.0309 3.77197L6.00861 3.77197Q5.86716 3.77197 5.77576 3.86124Q5.68436 3.9505 5.68436 4.09622Q5.68436 4.23752 5.77576 4.33029Q5.86716 4.42307 6.00861 4.42307ZM6.00861 7.58438L13.0309 7.58438Q13.1723 7.58438 13.2637 7.49298Q13.3551 7.40158 13.3551 7.26028Q13.3551 7.11884 13.2637 7.02744Q13.1723 6.93604 13.0309 6.93604L6.00861 6.93604Q5.86716 6.93604 5.77576 7.02744Q5.68436 7.11884 5.68436 7.26028Q5.68436 7.40158 5.77576 7.49298Q5.86716 7.58438 6.00861 7.58438ZM6.00861 10.7797L13.0309 10.7797Q13.1696 10.7797 13.2623 10.6918Q13.3551 10.6039 13.3551 10.4555Q13.3551 10.3142 13.2637 10.2228Q13.1723 10.1314 13.0309 10.1314L6.00861 10.1314Q5.86716 10.1314 5.77576 10.2228Q5.68436 10.3142 5.68436 10.4555Q5.68436 10.6039 5.77576 10.6918Q5.86716 10.7797 6.00861 10.7797ZM0 18.0399Q0 19.3411 0.665436 20.0079Q1.33087 20.6747 2.62665 20.6747L13.1523 20.6747Q14.4481 20.6747 15.1135 20.0079Q15.779 19.3411 15.779 18.0399L15.779 2.66296Q15.779 1.36459 15.1135 0.695038Q14.4481 0.0254822 13.1523 0.0254822L2.62665 0.0254822Q1.33087 0.0254822 0.665436 0.695038Q0 1.36459 0 2.66296ZM0.728607 18.0176L0.728607 2.68524Q0.728607 1.73492 1.21628 1.24443Q1.70395 0.753937 2.66251 0.753937L13.1165 0.753937Q14.075 0.753937 14.5627 1.24443Q15.0504 1.73492 15.0504 2.68524L15.0504 18.0176Q15.0504 18.968 14.5627 19.4571Q14.075 19.9461 13.1165 19.9461L2.66251 19.9461Q1.70395 19.9461 1.21628 19.4571Q0.728607 18.968 0.728607 18.0176Z" fill="#007aff"/>
 </g>
</svg>
