<?xml version="1.0" encoding="UTF-8"?>
<!--Generator: Apple Native CoreSVG 175.5-->
<!DOCTYPE svg
PUBLIC "-//W3C//DTD SVG 1.1//EN"
       "http://www.w3.org/Graphics/SVG/1.1/DTD/svg11.dtd">
<svg version="1.1" xmlns="http://www.w3.org/2000/svg" xmlns:xlink="http://www.w3.org/1999/xlink" width="16.4258" height="24.7949">
 <g>
  <rect height="24.7949" opacity="0" width="16.4258" x="0" y="0"/>
  <path d="M4.0918 10.6348Q4.43359 10.6348 4.67773 10.3906Q4.92188 10.1465 4.92188 9.80469Q4.92188 9.45312 4.67773 9.21387Q4.43359 8.97461 4.0918 8.97461Q3.75977 8.97461 3.51074 9.21875Q3.26172 9.46289 3.26172 9.80469Q3.26172 10.1367 3.51074 10.3857Q3.75977 10.6348 4.0918 10.6348ZM6.69922 10.4102L12.5586 10.4102Q12.8027 10.4102 12.9834 10.2295Q13.1641 10.0488 13.1641 9.80469Q13.1641 9.55078 12.9834 9.37012Q12.8027 9.18945 12.5586 9.18945L6.69922 9.18945Q6.44531 9.18945 6.26465 9.37012Q6.08398 9.55078 6.08398 9.80469Q6.08398 10.0488 6.26465 10.2295Q6.44531 10.4102 6.69922 10.4102ZM3.02734 23.6621L13.3984 23.6621Q14.9121 23.6621 15.6689 22.8955Q16.4258 22.1289 16.4258 20.5957L16.4258 5.79102Q16.4258 4.28711 15.6982 3.50586Q14.9707 2.72461 13.5059 2.72461L13.2715 2.72461Q13.2812 2.7832 13.2812 2.84668Q13.2812 2.91016 13.2812 2.96875L13.2812 3.84766Q13.2812 4.12109 13.2422 4.29688L13.4766 4.29688Q14.1602 4.29688 14.5068 4.70703Q14.8535 5.11719 14.8535 5.81055L14.8535 20.5762Q14.8535 21.3086 14.4678 21.6992Q14.082 22.0898 13.3203 22.0898L3.10547 22.0898Q2.34375 22.0898 1.95801 21.6992Q1.57227 21.3086 1.57227 20.5762L1.57227 5.81055Q1.57227 5.11719 1.91895 4.70703Q2.26562 4.29688 2.94922 4.29688L3.18359 4.29688Q3.14453 4.12109 3.14453 3.84766L3.14453 2.96875Q3.14453 2.91016 3.14453 2.84668Q3.14453 2.7832 3.1543 2.72461L2.91992 2.72461Q1.45508 2.72461 0.727539 3.50586Q0 4.28711 0 5.79102L0 20.5957Q0 22.1289 0.756836 22.8955Q1.51367 23.6621 3.02734 23.6621ZM5.19531 4.96094L11.2305 4.96094Q11.6602 4.96094 11.8994 4.70703Q12.1387 4.45312 12.1387 3.99414L12.1387 2.96875Q12.1387 2.50977 11.8994 2.25586Q11.6602 2.00195 11.2305 2.00195L10.332 2.00195Q10.2832 1.17188 9.67285 0.585938Q9.0625 0 8.21289 0Q7.36328 0 6.75293 0.585938Q6.14258 1.17188 6.09375 2.00195L5.19531 2.00195Q4.76562 2.00195 4.52637 2.25586Q4.28711 2.50977 4.28711 2.96875L4.28711 3.99414Q4.28711 4.45312 4.52637 4.70703Q4.76562 4.96094 5.19531 4.96094ZM8.21289 2.92969Q7.86133 2.92969 7.6123 2.67578Q7.36328 2.42188 7.36328 2.08008Q7.36328 1.71875 7.6123 1.46973Q7.86133 1.2207 8.21289 1.2207Q8.56445 1.2207 8.81348 1.46973Q9.0625 1.71875 9.0625 2.08008Q9.0625 2.42188 8.81348 2.67578Q8.56445 2.92969 8.21289 2.92969Z" fill="#5e5ce6"/>
  <path d="M4.0918 17.7539Q4.43359 17.7539 4.67773 17.5098Q4.92188 17.2656 4.92188 16.9238Q4.92188 16.5723 4.67773 16.333Q4.43359 16.0938 4.0918 16.0938Q3.75977 16.0938 3.51074 16.3379Q3.26172 16.582 3.26172 16.9238Q3.26172 17.2559 3.51074 17.5049Q3.75977 17.7539 4.0918 17.7539ZM6.69922 17.5293L12.5586 17.5293Q12.8027 17.5293 12.9834 17.3486Q13.1641 17.168 13.1641 16.9238Q13.1641 16.6699 12.9883 16.4941Q12.8125 16.3184 12.5586 16.3184L6.69922 16.3184Q6.43555 16.3184 6.25977 16.4941Q6.08398 16.6699 6.08398 16.9238Q6.08398 17.168 6.26465 17.3486Q6.44531 17.5293 6.69922 17.5293Z" fill="rgba(94,92,230,0.25)"/>
  <path d="M4.0918 14.0918Q4.43359 14.0918 4.67773 13.8525Q4.92188 13.6133 4.92188 13.2617Q4.92188 12.9199 4.67773 12.6807Q4.43359 12.4414 4.0918 12.4414Q3.75 12.4414 3.50586 12.6855Q3.26172 12.9297 3.26172 13.2617Q3.26172 13.6133 3.50586 13.8525Q3.75 14.0918 4.0918 14.0918ZM6.69922 13.877L12.5586 13.877Q12.8125 13.877 12.9883 13.6963Q13.1641 13.5156 13.1641 13.2617Q13.1641 13.0176 12.9883 12.8418Q12.8125 12.666 12.5586 12.666L6.69922 12.666Q6.43555 12.666 6.25977 12.8418Q6.08398 13.0176 6.08398 13.2617Q6.08398 13.5156 6.25977 13.6963Q6.43555 13.877 6.69922 13.877Z" fill="rgba(94,92,230,0.5)"/>
 </g>
</svg>
