<?xml version="1.0" encoding="UTF-8"?>
<!--Generator: Apple Native CoreSVG 175.5-->
<!DOCTYPE svg
PUBLIC "-//W3C//DTD SVG 1.1//EN"
       "http://www.w3.org/Graphics/SVG/1.1/DTD/svg11.dtd">
<svg version="1.1" xmlns="http://www.w3.org/2000/svg" xmlns:xlink="http://www.w3.org/1999/xlink" width="16.4258" height="24.7949">
 <g>
  <rect height="24.7949" opacity="0" width="16.4258" x="0" y="0"/>
  <path d="M3.90625 10.4102L12.5195 10.4102Q12.7734 10.4102 12.9541 10.2295Q13.1348 10.0488 13.1348 9.80469Q13.1348 9.55078 12.9541 9.37012Q12.7734 9.18945 12.5195 9.18945L3.90625 9.18945Q3.65234 9.18945 3.47168 9.37012Q3.29102 9.55078 3.29102 9.80469Q3.29102 10.0488 3.47168 10.2295Q3.65234 10.4102 3.90625 10.4102ZM3.90625 13.877L12.5195 13.877Q12.7832 13.877 12.959 13.6963Q13.1348 13.5156 13.1348 13.2617Q13.1348 13.0176 12.959 12.8418Q12.7832 12.666 12.5195 12.666L3.90625 12.666Q3.64258 12.666 3.4668 12.8418Q3.29102 13.0176 3.29102 13.2617Q3.29102 13.5156 3.4668 13.6963Q3.64258 13.877 3.90625 13.877ZM3.90625 17.5293L8.24219 17.5293Q8.48633 17.5293 8.66699 17.3486Q8.84766 17.168 8.84766 16.9238Q8.84766 16.6699 8.67188 16.4941Q8.49609 16.3184 8.24219 16.3184L3.90625 16.3184Q3.64258 16.3184 3.4668 16.4941Q3.29102 16.6699 3.29102 16.9238Q3.29102 17.168 3.47168 17.3486Q3.65234 17.5293 3.90625 17.5293ZM3.02734 23.6621L13.3984 23.6621Q14.9121 23.6621 15.6689 22.8955Q16.4258 22.1289 16.4258 20.5957L16.4258 5.79102Q16.4258 4.28711 15.6982 3.50586Q14.9707 2.72461 13.5059 2.72461L13.2715 2.72461Q13.2812 2.7832 13.2812 2.84668Q13.2812 2.91016 13.2812 2.96875L13.2812 3.84766Q13.2812 4.12109 13.2422 4.29688L13.4766 4.29688Q14.1602 4.29688 14.5068 4.70703Q14.8535 5.11719 14.8535 5.81055L14.8535 20.5762Q14.8535 21.3086 14.4678 21.6992Q14.082 22.0898 13.3203 22.0898L3.10547 22.0898Q2.34375 22.0898 1.95801 21.6992Q1.57227 21.3086 1.57227 20.5762L1.57227 5.81055Q1.57227 5.11719 1.91895 4.70703Q2.26562 4.29688 2.94922 4.29688L3.18359 4.29688Q3.14453 4.12109 3.14453 3.84766L3.14453 2.96875Q3.14453 2.91016 3.14453 2.84668Q3.14453 2.7832 3.1543 2.72461L2.91992 2.72461Q1.45508 2.72461 0.727539 3.50586Q0 4.28711 0 5.79102L0 20.5957Q0 22.1289 0.756836 22.8955Q1.51367 23.6621 3.02734 23.6621ZM5.19531 4.96094L11.2305 4.96094Q11.6602 4.96094 11.8994 4.70703Q12.1387 4.45312 12.1387 3.99414L12.1387 2.96875Q12.1387 2.50977 11.8994 2.25586Q11.6602 2.00195 11.2305 2.00195L10.332 2.00195Q10.2832 1.17188 9.67285 0.585938Q9.0625 0 8.21289 0Q7.36328 0 6.75293 0.585938Q6.14258 1.17188 6.09375 2.00195L5.19531 2.00195Q4.76562 2.00195 4.52637 2.25586Q4.28711 2.50977 4.28711 2.96875L4.28711 3.99414Q4.28711 4.45312 4.52637 4.70703Q4.76562 4.96094 5.19531 4.96094ZM8.21289 2.92969Q7.86133 2.92969 7.6123 2.67578Q7.36328 2.42188 7.36328 2.08008Q7.36328 1.71875 7.6123 1.46973Q7.86133 1.2207 8.21289 1.2207Q8.56445 1.2207 8.81348 1.46973Q9.0625 1.71875 9.0625 2.08008Q9.0625 2.42188 8.81348 2.67578Q8.56445 2.92969 8.21289 2.92969Z" fill="#007aff"/>
 </g>
</svg>
