<?xml version="1.0" encoding="UTF-8"?>
<!--Generator: Apple Native CoreSVG 175.5-->
<!DOCTYPE svg
PUBLIC "-//W3C//DTD SVG 1.1//EN"
       "http://www.w3.org/Graphics/SVG/1.1/DTD/svg11.dtd">
<svg version="1.1" xmlns="http://www.w3.org/2000/svg" xmlns:xlink="http://www.w3.org/1999/xlink" width="16.4258" height="20.9473">
 <g>
  <rect height="20.9473" opacity="0" width="16.4258" x="0" y="0"/>
  <path d="M0 17.8809Q0 19.4141 0.756836 20.1758Q1.51367 20.9375 3.02734 20.9375L13.3984 20.9375Q14.9121 20.9375 15.6689 20.1758Q16.4258 19.4141 16.4258 17.8809L16.4258 3.06641Q16.4258 1.54297 15.6689 0.771484Q14.9121 0 13.3984 0L3.02734 0Q1.51367 0 0.756836 0.771484Q0 1.54297 0 3.06641Z" fill="#007aff"/>
  <path d="M3.83789 5.2832Q3.45703 5.2832 3.17871 5.00977Q2.90039 4.73633 2.90039 4.3457Q2.90039 3.97461 3.17871 3.69141Q3.45703 3.4082 3.83789 3.4082Q4.21875 3.4082 4.49707 3.68652Q4.77539 3.96484 4.77539 4.3457Q4.77539 4.73633 4.49707 5.00977Q4.21875 5.2832 3.83789 5.2832ZM3.83789 8.36914Q3.44727 8.36914 3.17383 8.09082Q2.90039 7.8125 2.90039 7.43164Q2.90039 7.04102 3.17383 6.77246Q3.44727 6.50391 3.83789 6.50391Q4.21875 6.50391 4.49707 6.76758Q4.77539 7.03125 4.77539 7.43164Q4.77539 7.8125 4.49707 8.09082Q4.21875 8.36914 3.83789 8.36914ZM3.83789 11.5918Q3.45703 11.5918 3.17871 11.3135Q2.90039 11.0352 2.90039 10.6543Q2.90039 10.2734 3.17871 9.99512Q3.45703 9.7168 3.83789 9.7168Q4.21875 9.7168 4.49707 9.99023Q4.77539 10.2637 4.77539 10.6543Q4.77539 11.0352 4.49707 11.3135Q4.21875 11.5918 3.83789 11.5918ZM6.67969 4.99023Q6.41602 4.99023 6.23047 4.7998Q6.04492 4.60938 6.04492 4.3457Q6.04492 4.0918 6.23047 3.90625Q6.41602 3.7207 6.67969 3.7207L12.9004 3.7207Q13.1543 3.7207 13.3398 3.90625Q13.5254 4.0918 13.5254 4.3457Q13.5254 4.60938 13.3398 4.7998Q13.1543 4.99023 12.9004 4.99023ZM6.67969 8.05664Q6.40625 8.05664 6.22559 7.87598Q6.04492 7.69531 6.04492 7.43164Q6.04492 7.1582 6.22559 6.97754Q6.40625 6.79688 6.67969 6.79688L12.9004 6.79688Q13.1641 6.79688 13.3447 6.97754Q13.5254 7.1582 13.5254 7.43164Q13.5254 7.69531 13.3447 7.87598Q13.1641 8.05664 12.9004 8.05664ZM6.67969 11.2793Q6.41602 11.2793 6.23047 11.0938Q6.04492 10.9082 6.04492 10.6543Q6.04492 10.3906 6.22559 10.2051Q6.40625 10.0195 6.67969 10.0195L12.9004 10.0195Q13.1641 10.0195 13.3447 10.2051Q13.5254 10.3906 13.5254 10.6543Q13.5254 10.9082 13.3398 11.0938Q13.1543 11.2793 12.9004 11.2793Z" fill="#ffffff"/>
 </g>
</svg>
