<?xml version="1.0" encoding="UTF-8"?>
<!--Generator: Apple Native CoreSVG 175.5-->
<!DOCTYPE svg
PUBLIC "-//W3C//DTD SVG 1.1//EN"
       "http://www.w3.org/Graphics/SVG/1.1/DTD/svg11.dtd">
<svg version="1.1" xmlns="http://www.w3.org/2000/svg" xmlns:xlink="http://www.w3.org/1999/xlink" width="19.6777" height="16.8262">
 <g>
  <rect height="16.8262" opacity="0" width="19.6777" x="0" y="0"/>
  <path d="M6.00586 3.30078L18.8867 3.30078Q19.2188 3.30078 19.4482 3.07617Q19.6777 2.85156 19.6777 2.51953Q19.6777 2.1875 19.4482 1.95801Q19.2188 1.72852 18.8867 1.72852L6.00586 1.72852Q5.67383 1.72852 5.44434 1.95801Q5.21484 2.1875 5.21484 2.51953Q5.21484 2.85156 5.44434 3.07617Q5.67383 3.30078 6.00586 3.30078ZM6.00586 9.20898L18.8867 9.20898Q19.2188 9.20898 19.4482 8.97949Q19.6777 8.75 19.6777 8.41797Q19.6777 8.08594 19.4482 7.86133Q19.2188 7.63672 18.8867 7.63672L6.00586 7.63672Q5.67383 7.63672 5.44434 7.86133Q5.21484 8.08594 5.21484 8.41797Q5.21484 8.75 5.44434 8.97949Q5.67383 9.20898 6.00586 9.20898ZM6.00586 15.1074L18.8867 15.1074Q19.2188 15.1074 19.4482 14.8828Q19.6777 14.6582 19.6777 14.3262Q19.6777 13.9941 19.4482 13.7646Q19.2188 13.5352 18.8867 13.5352L6.00586 13.5352Q5.67383 13.5352 5.44434 13.7646Q5.21484 13.9941 5.21484 14.3262Q5.21484 14.6582 5.44434 14.8828Q5.67383 15.1074 6.00586 15.1074Z" fill="rgba(255,255,255,0.55)"/>
  <path d="M2.12891 4.48242Q2.41211 4.48242 2.58789 4.32129Q2.76367 4.16016 2.76367 3.82812L2.76367 0.673828Q2.76367 0.361328 2.56348 0.180664Q2.36328 0 2.04102 0Q1.78711 0 1.60645 0.078125Q1.42578 0.15625 1.24023 0.283203L0.546875 0.761719Q0.244141 0.966797 0.244141 1.23047Q0.244141 1.42578 0.371094 1.54297Q0.498047 1.66016 0.664062 1.66016Q0.761719 1.66016 0.830078 1.63574Q0.898438 1.61133 1.01562 1.52344L1.46484 1.2207L1.48438 1.2207L1.48438 3.82812Q1.48438 4.16016 1.66016 4.32129Q1.83594 4.48242 2.12891 4.48242ZM0.556641 10.3711L3.06641 10.3711Q3.27148 10.3711 3.40332 10.2441Q3.53516 10.1172 3.53516 9.91211Q3.53516 9.6875 3.40332 9.56055Q3.27148 9.43359 3.06641 9.43359L1.66992 9.43359L1.66992 9.4043L2.4707 8.75977Q2.96875 8.34961 3.18359 8.05176Q3.39844 7.75391 3.39844 7.32422Q3.39844 6.73828 2.93945 6.37695Q2.48047 6.01562 1.68945 6.01562Q0.986328 6.01562 0.532227 6.33789Q0.078125 6.66016 0.078125 7.12891Q0.078125 7.60742 0.615234 7.60742Q0.947266 7.60742 1.12305 7.31445Q1.32812 6.95312 1.70898 6.95312Q1.92383 6.95312 2.06055 7.08008Q2.19727 7.20703 2.19727 7.41211Q2.19727 7.58789 2.0752 7.76855Q1.95312 7.94922 1.57227 8.25195L0.292969 9.30664Q0.0195312 9.53125 0.0195312 9.85352Q0.0195312 10.0781 0.166016 10.2246Q0.3125 10.3711 0.556641 10.3711ZM1.70898 16.4551Q2.58789 16.4551 3.07129 16.0938Q3.55469 15.7324 3.55469 15.1172Q3.55469 14.7168 3.28613 14.4531Q3.01758 14.1895 2.50977 14.1504L2.50977 14.1211Q2.88086 14.0527 3.13477 13.8086Q3.38867 13.5645 3.38867 13.1348Q3.38867 12.5781 2.90527 12.2803Q2.42188 11.9824 1.69922 11.9824Q1.31836 11.9824 0.952148 12.0996Q0.585938 12.2168 0.34668 12.4414Q0.107422 12.666 0.107422 12.9883Q0.107422 13.1934 0.244141 13.3252Q0.380859 13.457 0.605469 13.457Q0.761719 13.457 0.854492 13.3984Q0.947266 13.3398 1.05469 13.2227Q1.2207 13.0371 1.37207 12.9688Q1.52344 12.9004 1.69922 12.9004Q1.92383 12.9004 2.0752 13.0078Q2.22656 13.1152 2.22656 13.3398Q2.22656 13.5449 2.06055 13.6475Q1.89453 13.75 1.5918 13.75L1.48438 13.75Q1.03516 13.75 1.03516 14.1699Q1.03516 14.5898 1.48438 14.5898L1.61133 14.5898Q2.28516 14.5898 2.28516 15.0391Q2.28516 15.2344 2.11914 15.3662Q1.95312 15.498 1.70898 15.498Q1.45508 15.498 1.26465 15.376Q1.07422 15.2539 0.9375 15.1172Q0.849609 15.0391 0.761719 14.9854Q0.673828 14.9316 0.537109 14.9316Q0.302734 14.9316 0.151367 15.0635Q0 15.1953 0 15.4199Q0 15.918 0.556641 16.1865Q1.11328 16.4551 1.70898 16.4551Z" fill="rgba(255,255,255,0.85)"/>
 </g>
</svg>
