<?xml version="1.0" encoding="UTF-8"?>
<!--Generator: Apple Native CoreSVG 175-->
<!DOCTYPE svg
PUBLIC "-//W3C//DTD SVG 1.1//EN"
       "http://www.w3.org/Graphics/SVG/1.1/DTD/svg11.dtd">
<svg version="1.1" xmlns="http://www.w3.org/2000/svg" xmlns:xlink="http://www.w3.org/1999/xlink" width="17.8336" height="17.8442">
 <g>
  <rect height="17.8442" opacity="0" width="17.8336" x="0" y="0"/>
  <path d="M2.08679 13.2848Q2.08679 12.9114 1.81778 12.6376Q1.54877 12.3637 1.16287 12.3637Q0.796509 12.3637 0.520554 12.6376Q0.244598 12.9114 0.244598 13.2848Q0.244598 13.661 0.520554 13.9321Q0.796509 14.2032 1.16287 14.2032Q1.54877 14.2032 1.81778 13.9321Q2.08679 13.661 2.08679 13.2848ZM2.08679 16.9231Q2.08679 16.554 1.81778 16.2766Q1.54877 15.9993 1.16287 15.9993Q0.796509 15.9993 0.520554 16.2766Q0.244598 16.554 0.244598 16.9231Q0.244598 17.3064 0.520554 17.5753Q0.796509 17.8442 1.16287 17.8442Q1.54877 17.8442 1.81778 17.5753Q2.08679 17.3064 2.08679 16.9231ZM17.686 13.2848Q17.686 13.1313 17.5768 13.0289Q17.4677 12.9266 17.3059 12.9266L3.85193 12.9266Q3.68744 12.9266 3.57964 13.0289Q3.47183 13.1313 3.47183 13.2848Q3.47183 13.4312 3.57964 13.535Q3.68744 13.6388 3.85193 13.6388L17.3059 13.6388Q17.4677 13.6388 17.5768 13.535Q17.686 13.4312 17.686 13.2848ZM17.686 16.9231Q17.686 16.7766 17.5768 16.6743Q17.4677 16.572 17.3059 16.572L3.85193 16.572Q3.68744 16.572 3.57964 16.6743Q3.47183 16.7766 3.47183 16.9231Q3.47183 17.0766 3.57964 17.1803Q3.68744 17.2841 3.85193 17.2841L17.3059 17.2841Q17.4677 17.2841 17.5768 17.1803Q17.686 17.0766 17.686 16.9231ZM2.50122 0.311737Q1.27426 0.311737 0.637131 0.959625Q0 1.60751 0 2.81525L0 7.49695Q0 8.7117 0.637131 9.35608Q1.27426 10.0005 2.50122 10.0005L15.3325 10.0005Q16.5524 10.0005 17.193 9.35608Q17.8336 8.7117 17.8336 7.49695L17.8336 2.81525Q17.8336 1.60751 17.193 0.959625Q16.5524 0.311737 15.3325 0.311737ZM0.728607 7.51053L0.728607 2.80167Q0.728607 1.91803 1.17096 1.45706Q1.61331 0.996094 2.50397 0.996094L15.3297 0.996094Q16.2204 0.996094 16.6628 1.45706Q17.1051 1.91803 17.1051 2.80167L17.1051 7.51053Q17.1051 8.40393 16.6628 8.86002Q16.2204 9.3161 15.3297 9.3161L2.50397 9.3161Q1.61331 9.3161 1.17096 8.86002Q0.728607 8.40393 0.728607 7.51053Z" fill="#000000"/>
 </g>
</svg>
