<?xml version="1.0" encoding="UTF-8"?>
<!--Generator: Apple Native CoreSVG 175.5-->
<!DOCTYPE svg
PUBLIC "-//W3C//DTD SVG 1.1//EN"
       "http://www.w3.org/Graphics/SVG/1.1/DTD/svg11.dtd">
<svg version="1.1" xmlns="http://www.w3.org/2000/svg" xmlns:xlink="http://www.w3.org/1999/xlink" width="24.4436" height="27.1973">
 <g>
  <rect height="27.1973" opacity="0" width="24.4436" x="0" y="0"/>
  <path d="M11.1719 0.0585938Q10.3418 0.0585938 9.6875 0.498047Q9.0332 0.9375 8.55469 1.64551Q8.07617 2.35352 7.76367 3.16895Q7.45117 3.98438 7.29492 4.74121Q7.13867 5.49805 7.13867 6.02539Q7.13867 6.92383 7.36816 7.45117Q7.59766 7.97852 7.90527 8.26172Q8.21289 8.54492 8.44238 8.68652Q8.67188 8.82812 8.67188 8.95508Q8.67188 9.07227 8.4082 9.25781L5.35156 11.2793L4.58008 10.3027Q4.44336 10.1172 4.44336 9.89258Q4.44336 9.66797 4.59961 9.49707Q4.75586 9.32617 5.07812 9.32617Q5.53711 9.32617 5.81543 9.05273Q6.09375 8.7793 6.09375 8.36914Q6.09375 7.95898 5.81055 7.67578Q5.52734 7.39258 5.11719 7.39258Q4.70703 7.39258 4.41895 7.67578Q4.13086 7.95898 4.13086 8.36914Q4.13086 8.42773 4.13574 8.47168Q4.14062 8.51562 4.15039 8.56445Q4.17969 8.83789 4.03809 8.94043Q3.89648 9.04297 3.7207 9.00391Q3.54492 8.96484 3.4668 8.82324Q3.38867 8.68164 3.54492 8.4668Q3.74023 8.20312 3.74023 7.88086Q3.74023 7.4707 3.45215 7.1875Q3.16406 6.9043 2.75391 6.9043Q2.35352 6.9043 2.06543 7.1875Q1.77734 7.4707 1.77734 7.88086Q1.77734 8.20312 1.95312 8.44238Q2.12891 8.68164 2.41211 8.80859Q2.63672 8.90625 2.65137 9.0625Q2.66602 9.21875 2.55371 9.3457Q2.44141 9.47266 2.28516 9.4873Q2.12891 9.50195 2.00195 9.32617Q1.69922 8.88672 1.17188 8.88672Q0.761719 8.88672 0.478516 9.16992Q0.195312 9.45312 0.195312 9.86328Q0.195312 10.2734 0.478516 10.5615Q0.761719 10.8496 1.17188 10.8496Q1.44531 10.8496 1.69922 10.6934Q2.03125 10.4883 2.31445 10.5225Q2.59766 10.5566 2.86133 10.8984L4.36523 12.8223Q4.64844 13.1836 5.07324 13.3154Q5.49805 13.4473 5.9082 13.2227L7.11914 12.5586L6.72852 12.4902Q6.52344 13.1543 6.41602 13.9746Q6.30859 14.7949 6.34766 15.791L6.85547 15.5371L5.71289 14.9121Q5.30273 14.6875 4.87793 14.8145Q4.45312 14.9414 4.16992 15.3125L2.67578 17.2363Q2.40234 17.5781 2.11914 17.6123Q1.83594 17.6465 1.50391 17.4414Q1.25977 17.2852 0.986328 17.2852Q0.576172 17.2852 0.288086 17.5732Q0 17.8613 0 18.2715Q0 18.6719 0.288086 18.96Q0.576172 19.248 0.986328 19.248Q1.50391 19.248 1.80664 18.7988Q1.93359 18.6328 2.08984 18.6475Q2.24609 18.6621 2.3584 18.7842Q2.4707 18.9062 2.45605 19.0625Q2.44141 19.2188 2.2168 19.3262Q1.93359 19.4531 1.75781 19.6924Q1.58203 19.9316 1.58203 20.2441Q1.58203 20.6543 1.87012 20.9424Q2.1582 21.2305 2.56836 21.2305Q2.96875 21.2305 3.25684 20.9424Q3.54492 20.6543 3.54492 20.2441Q3.54492 19.9316 3.35938 19.6582Q3.19336 19.4531 3.27637 19.3115Q3.35938 19.1699 3.53516 19.1309Q3.71094 19.0918 3.85254 19.1943Q3.99414 19.2969 3.95508 19.5703Q3.94531 19.6094 3.94043 19.6631Q3.93555 19.7168 3.93555 19.7656Q3.93555 20.1758 4.22363 20.459Q4.51172 20.7422 4.92188 20.7422Q5.33203 20.7422 5.61523 20.459Q5.89844 20.1758 5.89844 19.7656Q5.89844 19.3555 5.625 19.082Q5.35156 18.8086 4.88281 18.8086Q4.56055 18.8086 4.4043 18.6377Q4.24805 18.4668 4.24805 18.2373Q4.24805 18.0078 4.38477 17.832L5.16602 16.8555L8.55469 19.5703Q8.47656 21.1133 9.0918 22.4902Q9.70703 23.8672 10.874 24.9268Q12.041 25.9863 13.6182 26.5918Q15.1953 27.1973 17.041 27.1973Q18.7207 27.1973 19.9854 26.7432Q21.25 26.2891 22.1289 25.625Q23.0078 24.9609 23.5303 24.2969Q24.0527 23.6328 24.248 23.2129Q24.5312 22.5977 24.4043 22.1143Q24.2773 21.6309 23.8916 21.3574Q23.5059 21.084 22.998 21.1084Q22.4902 21.1328 22.0215 21.5332Q21.4062 22.0605 20.7227 22.3389Q20.0391 22.6172 19.3604 22.7148Q18.6816 22.8125 18.0762 22.8125Q17.4316 22.8125 16.7334 22.5781Q16.0352 22.3438 15.4248 21.8945Q14.8145 21.4453 14.4238 20.8105Q14.0332 20.1758 13.9844 19.3945L17.1582 16.8555L17.9297 17.832Q18.0762 18.0078 18.0762 18.2373Q18.0762 18.4668 17.9199 18.6377Q17.7637 18.8086 17.4414 18.8086Q16.9727 18.8086 16.6992 19.082Q16.4258 19.3555 16.4258 19.7656Q16.4258 20.1758 16.709 20.459Q16.9922 20.7422 17.4023 20.7422Q17.8125 20.7422 18.1006 20.459Q18.3887 20.1758 18.3887 19.7656Q18.3887 19.707 18.3838 19.6582Q18.3789 19.6094 18.3691 19.5605Q18.3398 19.2871 18.4814 19.1895Q18.623 19.0918 18.7988 19.1309Q18.9746 19.1699 19.0527 19.3115Q19.1309 19.4531 18.9648 19.6582Q18.7793 19.9316 18.7793 20.2441Q18.7793 20.6543 19.0625 20.9424Q19.3457 21.2305 19.7559 21.2305Q20.166 21.2305 20.4541 20.9424Q20.7422 20.6543 20.7422 20.2441Q20.7422 19.9316 20.5664 19.6924Q20.3906 19.4531 20.1074 19.3262Q19.8828 19.2188 19.8682 19.0625Q19.8535 18.9062 19.9658 18.7842Q20.0781 18.6621 20.2344 18.6475Q20.3906 18.6328 20.5176 18.7988Q20.8105 19.248 21.3379 19.248Q21.748 19.248 22.0361 18.96Q22.3242 18.6719 22.3242 18.2715Q22.3242 17.8613 22.0361 17.5732Q21.748 17.2852 21.3379 17.2852Q21.0645 17.2852 20.8105 17.4414Q20.4883 17.6465 20.2051 17.6123Q19.9219 17.5781 19.6484 17.2363L18.1543 15.3125Q17.8711 14.9414 17.4463 14.8145Q17.0215 14.6875 16.6113 14.9121L15.4785 15.5273L15.9863 15.7812Q16.0254 14.7949 15.918 13.9746Q15.8105 13.1543 15.6055 12.4902L15.2148 12.5586L16.4258 13.2227Q16.8359 13.4473 17.2607 13.3154Q17.6855 13.1836 17.9688 12.8223L19.4727 10.8984Q19.7363 10.5566 20.0195 10.5225Q20.3027 10.4883 20.6348 10.6934Q20.8887 10.8496 21.1621 10.8496Q21.5723 10.8496 21.8555 10.5615Q22.1387 10.2734 22.1387 9.86328Q22.1387 9.45312 21.8555 9.16992Q21.5723 8.88672 21.1621 8.88672Q20.6348 8.88672 20.332 9.32617Q20.2051 9.50195 20.0488 9.4873Q19.8926 9.47266 19.7803 9.3457Q19.668 9.21875 19.6826 9.0625Q19.6973 8.90625 19.9219 8.80859Q20.2051 8.68164 20.3809 8.44238Q20.5566 8.20312 20.5566 7.88086Q20.5566 7.4707 20.2686 7.1875Q19.9805 6.9043 19.5801 6.9043Q19.1699 6.9043 18.8818 7.1875Q18.5938 7.4707 18.5938 7.88086Q18.5938 8.20312 18.7891 8.4668Q18.9453 8.68164 18.8672 8.82324Q18.7891 8.96484 18.6133 9.00391Q18.4375 9.04297 18.2959 8.94531Q18.1543 8.84766 18.1836 8.57422Q18.1934 8.53516 18.1982 8.48145Q18.2031 8.42773 18.2031 8.36914Q18.2031 7.95898 17.915 7.67578Q17.627 7.39258 17.2168 7.39258Q16.8164 7.39258 16.5283 7.67578Q16.2402 7.95898 16.2402 8.36914Q16.2402 8.7793 16.5186 9.05273Q16.7969 9.32617 17.2559 9.32617Q17.5781 9.32617 17.7344 9.49707Q17.8906 9.66797 17.8906 9.89258Q17.8906 10.1172 17.7539 10.3027L16.9824 11.2793L13.9062 9.25781Q13.6328 9.07227 13.6328 8.95508Q13.6328 8.82812 13.8672 8.68164Q14.1016 8.53516 14.4141 8.25195Q14.7266 7.96875 14.9609 7.44141Q15.1953 6.91406 15.1953 6.02539Q15.1953 5.49805 15.0439 4.74121Q14.8926 3.98438 14.5752 3.16895Q14.2578 2.35352 13.7793 1.64551Q13.3008 0.9375 12.6514 0.498047Q12.002 0.0585938 11.1719 0.0585938ZM11.1719 1.55273Q11.7578 1.55273 12.2266 2.03613Q12.6953 2.51953 13.0225 3.24707Q13.3496 3.97461 13.5205 4.72656Q13.6914 5.47852 13.6914 6.02539Q13.6914 6.55273 13.54 6.88477Q13.3887 7.2168 13.1592 7.44629Q12.9297 7.67578 12.7051 7.87109Q12.4805 8.06641 12.3242 8.31543Q12.168 8.56445 12.168 8.94531Q12.168 9.26758 12.4219 9.65332Q12.6758 10.0391 13.0518 10.5469Q13.4277 11.0547 13.8037 11.7236Q14.1797 12.3926 14.4336 13.2715Q14.6875 14.1504 14.6875 15.2832Q14.6875 16.1035 14.4873 16.6602Q14.2871 17.2168 13.7695 17.71Q13.252 18.2031 12.2949 18.8281Q12.2559 20.127 12.7783 21.1377Q13.3008 22.1484 14.1943 22.8467Q15.0879 23.5449 16.1816 23.9062Q17.2754 24.2676 18.3691 24.2676Q18.8672 24.2676 19.585 24.1699Q20.3027 24.0723 21.0938 23.7744Q21.8848 23.4766 22.5879 22.8809Q22.6855 22.793 22.7637 22.8613Q22.8418 22.9297 22.7637 23.0664Q22.5195 23.4375 22.0557 23.8965Q21.5918 24.3555 20.8936 24.7803Q20.1953 25.2051 19.2383 25.4785Q18.2812 25.752 17.041 25.752Q15.3613 25.752 13.9795 25.21Q12.5977 24.668 11.6455 23.7158Q10.6934 22.7637 10.2783 21.5234Q9.86328 20.2832 10.127 18.8965Q9.12109 18.2617 8.58398 17.7588Q8.04688 17.2559 7.84668 16.6846Q7.64648 16.1133 7.64648 15.2832Q7.64648 14.1504 7.90039 13.2715Q8.1543 12.3926 8.53027 11.7236Q8.90625 11.0547 9.28223 10.5469Q9.6582 10.0391 9.91211 9.65332Q10.166 9.26758 10.166 8.94531Q10.166 8.56445 10.0098 8.31543Q9.85352 8.06641 9.62891 7.87109Q9.4043 7.67578 9.1748 7.44629Q8.94531 7.2168 8.79395 6.88477Q8.64258 6.55273 8.64258 6.02539Q8.64258 5.47852 8.81348 4.72656Q8.98438 3.97461 9.31152 3.24707Q9.63867 2.51953 10.1074 2.03613Q10.5762 1.55273 11.1719 1.55273Z" fill="#007aff"/>
 </g>
</svg>
