<?xml version="1.0" encoding="UTF-8"?>
<!--Generator: Apple Native CoreSVG 175-->
<!DOCTYPE svg
PUBLIC "-//W3C//DTD SVG 1.1//EN"
       "http://www.w3.org/Graphics/SVG/1.1/DTD/svg11.dtd">
<svg version="1.1" xmlns="http://www.w3.org/2000/svg" xmlns:xlink="http://www.w3.org/1999/xlink" width="18.1152" height="18.1543">
 <g>
  <rect height="18.1543" opacity="0" width="18.1152" x="0" y="0"/>
  <path d="M0.361328 5.69336Q0.732422 5.69336 0.732422 5.32227L0.732422 2.69531Q0.732422 1.73828 1.2207 1.25Q1.70898 0.761719 2.65625 0.761719L5.2832 0.761719Q5.66406 0.761719 5.66406 0.400391Q5.66406 0.0390625 5.2832 0.0390625L2.62695 0.0390625Q1.33789 0.0390625 0.668945 0.703125Q0 1.36719 0 2.66602L0 5.32227Q0 5.69336 0.361328 5.69336ZM17.7539 5.69336Q18.1152 5.69336 18.1152 5.32227L18.1152 2.66602Q18.1152 1.38672 17.4463 0.712891Q16.7773 0.0390625 15.4883 0.0390625L12.8223 0.0390625Q12.4512 0.0390625 12.4512 0.400391Q12.4512 0.761719 12.8223 0.761719L15.459 0.761719Q16.377 0.761719 16.8848 1.25Q17.3926 1.73828 17.3926 2.69531L17.3926 5.32227Q17.3926 5.69336 17.7539 5.69336ZM2.62695 18.1543L5.2832 18.1543Q5.66406 18.1543 5.66406 17.793Q5.66406 17.4316 5.2832 17.4316L2.65625 17.4316Q1.70898 17.4316 1.2207 16.9385Q0.732422 16.4453 0.732422 15.4883L0.732422 12.8711Q0.732422 12.4902 0.361328 12.4902Q0 12.4902 0 12.8711L0 15.5273Q0 16.8164 0.668945 17.4854Q1.33789 18.1543 2.62695 18.1543ZM12.8223 18.1543L15.4883 18.1543Q16.7773 18.1543 17.4463 17.4805Q18.1152 16.8066 18.1152 15.5273L18.1152 12.8711Q18.1152 12.4902 17.7539 12.4902Q17.3926 12.4902 17.3926 12.8711L17.3926 15.4883Q17.3926 16.4453 16.8848 16.9385Q16.377 17.4316 15.459 17.4316L12.8223 17.4316Q12.4512 17.4316 12.4512 17.793Q12.4512 18.1543 12.8223 18.1543ZM3.37891 9.90234L8.22266 9.91211L8.23242 14.7266Q8.23242 14.9902 8.36914 15.1465Q8.50586 15.3027 8.7207 15.3027Q9.07227 15.3027 9.24805 14.9023L13.877 5.0293Q13.9941 4.81445 13.9941 4.6582Q13.9941 4.44336 13.8477 4.30176Q13.7012 4.16016 13.4766 4.16016Q13.3301 4.16016 13.1055 4.25781L3.21289 8.89648Q3.01758 8.98438 2.91992 9.12109Q2.82227 9.25781 2.82227 9.41406Q2.82227 9.61914 2.96875 9.76074Q3.11523 9.90234 3.37891 9.90234ZM3.94531 9.26758L13.2324 4.91211L8.87695 14.1797L8.87695 9.63867Q8.87695 9.46289 8.77441 9.35547Q8.67188 9.24805 8.4668 9.24805Z" fill="#000000"/>
 </g>
</svg>
