<?xml version="1.0" encoding="UTF-8"?>
<!--Generator: Apple Native CoreSVG 175.5-->
<!DOCTYPE svg
PUBLIC "-//W3C//DTD SVG 1.1//EN"
       "http://www.w3.org/Graphics/SVG/1.1/DTD/svg11.dtd">
<svg version="1.1" xmlns="http://www.w3.org/2000/svg" xmlns:xlink="http://www.w3.org/1999/xlink" width="13.3398" height="25.2832">
 <g>
  <rect height="25.2832" opacity="0" width="13.3398" x="0" y="0"/>
  <path d="M1.17188 23.9453Q1.52344 23.9453 1.86035 23.7695Q2.19727 23.5938 2.49023 23.3203L6.40625 19.6094Q6.57227 19.4531 6.66992 19.4531Q6.76758 19.4531 6.93359 19.6094L10.8496 23.3203Q11.1328 23.5938 11.4746 23.7695Q11.8164 23.9453 12.168 23.9453Q12.666 23.9453 13.0029 23.5547Q13.3398 23.1641 13.3398 22.6758Q13.3398 22.3828 13.2324 22.0508Q13.125 21.7188 12.9785 21.3086L8.01758 8.50586Q7.76367 7.87109 7.42676 7.58301Q7.08984 7.29492 6.66992 7.29492Q6.25 7.29492 5.91309 7.58301Q5.57617 7.87109 5.32227 8.50586L0.361328 21.3086Q0.214844 21.7188 0.107422 22.0508Q0 22.3828 0 22.6758Q0 23.1641 0.336914 23.5547Q0.673828 23.9453 1.17188 23.9453ZM6.66992 5.95703Q7.02148 5.95703 7.23633 5.72754Q7.45117 5.49805 7.45117 5.10742L7.45117 0.839844Q7.45117 0.458984 7.23633 0.229492Q7.02148 0 6.66992 0Q6.31836 0 6.09863 0.229492Q5.87891 0.458984 5.87891 0.839844L5.87891 5.10742Q5.87891 5.49805 6.09863 5.72754Q6.31836 5.95703 6.66992 5.95703Z" fill="#0a84ff"/>
 </g>
</svg>
