<?xml version="1.0" encoding="UTF-8"?>
<!--Generator: Apple Native CoreSVG 175.5-->
<!DOCTYPE svg
PUBLIC "-//W3C//DTD SVG 1.1//EN"
       "http://www.w3.org/Graphics/SVG/1.1/DTD/svg11.dtd">
<svg version="1.1" xmlns="http://www.w3.org/2000/svg" xmlns:xlink="http://www.w3.org/1999/xlink" width="17.9785" height="17.998">
 <g>
  <rect height="17.998" opacity="0" width="17.9785" x="0" y="0"/>
  <path d="M3.06641 17.998L14.9121 17.998Q16.4453 17.998 17.2119 17.2412Q17.9785 16.4844 17.9785 14.9707L17.9785 3.04688Q17.9785 1.5332 17.2119 0.776367Q16.4453 0.0195312 14.9121 0.0195312L3.06641 0.0195312Q1.5332 0.0195312 0.766602 0.776367Q0 1.5332 0 3.04688L0 14.9707Q0 16.4844 0.766602 17.2412Q1.5332 17.998 3.06641 17.998Z" fill="#0a84ff"/>
  <path d="M3.69141 9.83398Q3.25195 9.83398 3.07129 9.58496Q2.89062 9.33594 2.96387 9.03809Q3.03711 8.74023 3.35938 8.58398L12.8711 4.0625Q13.2617 3.87695 13.5791 3.99902Q13.8965 4.12109 14.0186 4.43848Q14.1406 4.75586 13.9648 5.14648L9.49219 14.668Q9.33594 14.9902 9.0332 15.0684Q8.73047 15.1465 8.48145 14.9658Q8.23242 14.7852 8.23242 14.3262L8.23242 10.166Q8.23242 9.83398 7.91016 9.83398Z" fill="#ffffff"/>
 </g>
</svg>
