<?xml version="1.0" encoding="UTF-8"?>
<!--Generator: Apple Native CoreSVG 175-->
<!DOCTYPE svg
PUBLIC "-//W3C//DTD SVG 1.1//EN"
       "http://www.w3.org/Graphics/SVG/1.1/DTD/svg11.dtd">
<svg version="1.1" xmlns="http://www.w3.org/2000/svg" xmlns:xlink="http://www.w3.org/1999/xlink" width="18.3047" height="18.2874">
 <g>
  <rect height="18.2874" opacity="0" width="18.3047" x="0" y="0"/>
  <path d="M0.459131 7.99272Q0.231775 8.09389 0.12298 8.25952Q0.0141846 8.42516 0.00167237 8.60598Q-0.0108398 8.78679 0.0702606 8.94754Q0.151361 9.10829 0.311273 9.20732Q0.471185 9.30635 0.706781 9.3091L8.87359 9.32436Q8.94042 9.32436 8.97323 9.36068Q9.00604 9.39699 9.00604 9.45681L9.01855 17.572Q9.01855 17.827 9.12246 17.9905Q9.22637 18.154 9.39201 18.2275Q9.55764 18.301 9.74258 18.2843Q9.92751 18.2677 10.091 18.1542Q10.2545 18.0408 10.3514 17.8388L18.1798 1.21736Q18.3325 0.898151 18.2986 0.645084Q18.2646 0.392017 18.0947 0.241565Q17.9248 0.0911133 17.6675 0.0718109Q17.4103 0.0525086 17.1193 0.186786ZM1.05453 8.61544Q0.997156 8.61544 0.992273 8.57126Q0.98739 8.52709 1.03347 8.50756L17.3306 0.865344Q17.4286 0.817737 17.4833 0.867557Q17.538 0.917377 17.4904 1.01808L9.82314 17.2914Q9.79934 17.3419 9.75173 17.33Q9.70413 17.318 9.70413 17.2676L9.72473 9.06969Q9.72473 8.85286 9.60754 8.72515Q9.49035 8.59743 9.22866 8.59743Z" fill="#0a84ff"/>
 </g>
</svg>
