<?xml version="1.0" encoding="UTF-8"?>
<!--Generator: Apple Native CoreSVG 175-->
<!DOCTYPE svg
PUBLIC "-//W3C//DTD SVG 1.1//EN"
       "http://www.w3.org/Graphics/SVG/1.1/DTD/svg11.dtd">
<svg version="1.1" xmlns="http://www.w3.org/2000/svg" xmlns:xlink="http://www.w3.org/1999/xlink" width="22.1191" height="19.0332">
 <g>
  <rect height="19.0332" opacity="0" width="22.1191" x="0" y="0"/>
  <path d="M1.33789 15.8691L20.7812 15.8691Q21.3965 15.8691 21.7578 15.5029Q22.1191 15.1367 22.1191 14.5215L22.1191 1.9043Q22.1191 1.28906 21.7578 0.922852Q21.3965 0.556641 20.7812 0.556641L1.33789 0.556641Q0.732422 0.556641 0.366211 0.922852Q0 1.28906 0 1.9043L0 14.5215Q0 15.1367 0.366211 15.5029Q0.732422 15.8691 1.33789 15.8691ZM1.25 12.1094Q0.732422 12.1094 0.732422 11.582L0.732422 1.93359Q0.732422 1.64062 0.908203 1.46484Q1.08398 1.28906 1.37695 1.28906L20.7422 1.28906Q21.0449 1.28906 21.2207 1.46484Q21.3965 1.64062 21.3965 1.93359L21.3965 11.582Q21.3965 12.1094 20.8691 12.1094ZM8.19336 18.4961L13.9258 18.4961L13.9258 15.7422L8.19336 15.7422ZM7.98828 19.0332L14.1406 19.0332Q14.2871 19.0332 14.3945 18.9307Q14.502 18.8281 14.502 18.6621Q14.502 18.5059 14.3945 18.4033Q14.2871 18.3008 14.1406 18.3008L7.98828 18.3008Q7.83203 18.3008 7.72461 18.4033Q7.61719 18.5059 7.61719 18.6621Q7.61719 18.8281 7.72461 18.9307Q7.83203 19.0332 7.98828 19.0332ZM7.69531 9.16016Q7.69531 9.95117 8.44727 9.95117L11.7383 9.95117Q12.4902 9.95117 12.4902 9.16016L12.4902 6.61133Q12.4902 5.81055 11.7383 5.81055L8.44727 5.81055Q7.69531 5.81055 7.69531 6.61133ZM11.1426 6.05469L11.7871 6.05469L11.7871 5Q11.7871 4.36523 12.1143 3.99414Q12.4414 3.62305 13.0078 3.62305Q13.584 3.62305 13.916 3.99414Q14.248 4.36523 14.248 5L14.248 5.50781Q14.248 5.63477 14.3359 5.73242Q14.4238 5.83008 14.5605 5.83008Q14.6973 5.83008 14.79 5.73242Q14.8828 5.63477 14.8828 5.50781L14.8828 5Q14.8828 4.11133 14.3652 3.54492Q13.8477 2.97852 13.0078 2.97852Q12.1875 2.97852 11.665 3.54492Q11.1426 4.11133 11.1426 5.01953Z" fill="#007aff"/>
 </g>
</svg>
