<?xml version="1.0" encoding="UTF-8"?>
<!--Generator: Apple Native CoreSVG 175-->
<!DOCTYPE svg
PUBLIC "-//W3C//DTD SVG 1.1//EN"
       "http://www.w3.org/Graphics/SVG/1.1/DTD/svg11.dtd">
<svg version="1.1" xmlns="http://www.w3.org/2000/svg" xmlns:xlink="http://www.w3.org/1999/xlink" width="15.779" height="20.6747">
 <g>
  <rect height="20.6747" opacity="0" width="15.779" x="0" y="0"/>
  <path d="M4.96368 17.2408Q4.96368 18.1758 5.84732 18.1758L9.94415 18.1758Q10.8278 18.1758 10.8278 17.2408L10.8278 13.8969Q10.8278 12.9712 9.96994 12.9575L9.96994 11.8106Q9.96994 10.8055 9.39964 10.1936Q8.82935 9.58176 7.89215 9.58176Q6.96487 9.58176 6.39458 10.1936Q5.82428 10.8055 5.82428 11.8106L5.82428 12.9575Q4.96368 12.9712 4.96368 13.8969ZM6.32385 12.9547L6.32385 11.7931Q6.32385 11.0196 6.75606 10.5477Q7.18826 10.0758 7.89215 10.0758Q8.59879 10.0758 9.0332 10.5477Q9.46762 11.0196 9.46762 11.7931L9.46762 12.9547ZM2.62665 20.6747L13.1523 20.6747Q14.4481 20.6747 15.1135 20.0066Q15.779 19.3384 15.779 18.0399L15.779 8.49075Q15.779 8.09494 15.7281 7.81998Q15.6773 7.54501 15.544 7.32216Q15.4106 7.0993 15.1675 6.86066L8.9711 0.636749Q8.73367 0.396576 8.51219 0.266647Q8.29071 0.136719 8.01979 0.0811005Q7.74887 0.0254822 7.37076 0.0254822L2.62665 0.0254822Q1.34491 0.0254822 0.672455 0.695038Q0 1.36459 0 2.66296L0 18.0399Q0 19.3411 0.665436 20.0079Q1.33087 20.6747 2.62665 20.6747ZM2.65976 19.9461Q1.70395 19.9461 1.21628 19.4571Q0.728607 18.968 0.728607 18.0176L0.728607 2.68524Q0.728607 1.76575 1.21628 1.25984Q1.70395 0.753937 2.66251 0.753937L7.53555 0.753937L7.53555 6.90598Q7.53555 7.63412 7.8891 7.96654Q8.24265 8.29895 8.92151 8.29895L15.0504 8.29895L15.0504 18.0176Q15.0504 18.968 14.5627 19.4571Q14.075 19.9461 13.1165 19.9461ZM8.97781 7.59064Q8.57925 7.59064 8.40797 7.42149Q8.23669 7.25235 8.23669 6.84692L8.23669 0.923157L14.8813 7.59064Z" fill="#007aff"/>
 </g>
</svg>
