<?xml version="1.0" encoding="UTF-8"?>
<!--Generator: Apple Native CoreSVG 175-->
<!DOCTYPE svg
PUBLIC "-//W3C//DTD SVG 1.1//EN"
       "http://www.w3.org/Graphics/SVG/1.1/DTD/svg11.dtd">
<svg version="1.1" xmlns="http://www.w3.org/2000/svg" xmlns:xlink="http://www.w3.org/1999/xlink" width="22.666" height="17.2949">
 <g>
  <rect height="17.2949" opacity="0" width="22.666" x="0" y="0"/>
  <path d="M2.62695 17.2852L20.0195 17.2852Q21.3281 17.2852 21.9971 16.6113Q22.666 15.9375 22.666 14.6582L22.666 2.62695Q22.666 1.34766 21.9971 0.673828Q21.3281 0 20.0195 0L2.62695 0Q1.33789 0 0.668945 0.668945Q0 1.33789 0 2.62695L0 14.6582Q0 15.957 0.668945 16.6211Q1.33789 17.2852 2.62695 17.2852ZM2.65625 16.5625Q1.70898 16.5625 1.2207 16.0742Q0.732422 15.5859 0.732422 14.6191L0.732422 2.65625Q0.732422 1.69922 1.2207 1.21094Q1.70898 0.722656 2.65625 0.722656L20 0.722656Q20.9277 0.722656 21.4307 1.21094Q21.9336 1.69922 21.9336 2.65625L21.9336 14.6191Q21.9336 15.5859 21.4307 16.0742Q20.9277 16.5625 20 16.5625ZM7.77344 12.5684Q7.77344 13.7207 8.84766 13.7207L13.8281 13.7207Q14.9121 13.7207 14.9121 12.5684L14.9121 8.50586Q14.9121 7.38281 13.8574 7.36328L13.8574 5.97656Q13.8574 4.75586 13.1641 4.00879Q12.4707 3.26172 11.3379 3.26172Q10.2148 3.26172 9.5166 4.00879Q8.81836 4.75586 8.81836 5.97656L8.81836 7.36328Q7.77344 7.38281 7.77344 8.50586ZM9.43359 7.36328L9.43359 5.95703Q9.43359 5.00977 9.95605 4.43848Q10.4785 3.86719 11.3379 3.86719Q12.1973 3.86719 12.7246 4.43848Q13.252 5.00977 13.252 5.95703L13.252 7.36328Z" fill="#000000"/>
 </g>
</svg>
