<?xml version="1.0" encoding="UTF-8"?>
<!--Generator: Apple Native CoreSVG 175-->
<!DOCTYPE svg
PUBLIC "-//W3C//DTD SVG 1.1//EN"
       "http://www.w3.org/Graphics/SVG/1.1/DTD/svg11.dtd">
<svg version="1.1" xmlns="http://www.w3.org/2000/svg" xmlns:xlink="http://www.w3.org/1999/xlink" width="20.2637" height="20.1465">
 <g>
  <rect height="20.1465" opacity="0" width="20.2637" x="0" y="0"/>
  <path d="M2.60742 20.1367L17.6562 20.1367Q18.9355 20.1367 19.5996 19.4629Q20.2637 18.7891 20.2637 17.5293L20.2637 7.31445Q20.2637 6.05469 19.5996 5.38086Q18.9355 4.70703 17.6562 4.70703L2.60742 4.70703Q1.32812 4.70703 0.664062 5.37109Q0 6.03516 0 7.31445L0 17.5293Q0 18.8184 0.664062 19.4775Q1.32812 20.1367 2.60742 20.1367ZM2.09961 2.90039L18.1738 2.90039Q18.1445 2.60742 17.9736 2.41211Q17.8027 2.2168 17.4902 2.2168L2.7832 2.2168Q2.46094 2.2168 2.29004 2.41211Q2.11914 2.60742 2.09961 2.90039ZM3.94531 0.654297L16.3184 0.654297Q16.3184 0.371094 16.1426 0.185547Q15.9668 0 15.6543 0L4.60938 0Q4.30664 0 4.13086 0.185547Q3.95508 0.371094 3.94531 0.654297ZM6.54297 16.4062L6.54297 12.3145Q6.54297 11.1816 7.58789 11.1719L7.58789 9.77539Q7.58789 8.53516 8.29102 7.78809Q8.99414 7.04102 10.1367 7.04102Q11.2695 7.04102 11.9678 7.78809Q12.666 8.53516 12.666 9.77539L12.666 11.1719Q13.7305 11.1816 13.7305 12.3145L13.7305 16.4062Q13.7305 17.5586 12.6465 17.5586L7.62695 17.5586Q6.54297 17.5586 6.54297 16.4062ZM8.21289 11.1719L12.0508 11.1719L12.0508 9.74609Q12.0508 8.80859 11.5234 8.22754Q10.9961 7.64648 10.1367 7.64648Q9.27734 7.64648 8.74512 8.22754Q8.21289 8.80859 8.21289 9.74609Z" fill="#007aff"/>
 </g>
</svg>
