<?xml version="1.0" encoding="UTF-8"?>
<!--Generator: Apple Native CoreSVG 175-->
<!DOCTYPE svg
PUBLIC "-//W3C//DTD SVG 1.1//EN"
       "http://www.w3.org/Graphics/SVG/1.1/DTD/svg11.dtd">
<svg version="1.1" xmlns="http://www.w3.org/2000/svg" xmlns:xlink="http://www.w3.org/1999/xlink" width="20.5827" height="18.7894">
 <g>
  <rect height="18.7894" opacity="0" width="20.5827" x="0" y="0"/>
  <path d="M1.89926 18.6581L11.2383 18.6581Q12.1915 18.6581 12.6645 18.181Q13.1375 17.7039 13.1375 16.6504L13.1375 9.35226Q13.1375 8.30429 12.6645 7.82715Q12.1915 7.35001 11.2383 7.35001L1.89926 7.35001Q0.946045 7.35001 0.473022 7.82715Q0 8.30429 0 9.35226L0 16.6504Q0 17.7039 0.473022 18.181Q0.946045 18.6581 1.89926 18.6581ZM1.87347 17.9738Q1.27853 17.9738 1.00357 17.7045Q0.728607 17.4352 0.728607 16.6945L0.728607 9.31091Q0.728607 8.57025 1.00357 8.30231Q1.27853 8.03436 1.87347 8.03436L11.2668 8.03436Q11.8547 8.03436 12.1318 8.30231Q12.4089 8.57025 12.4089 9.31091L12.4089 16.6945Q12.4089 17.4352 12.1318 17.7045Q11.8547 17.9738 11.2668 17.9738ZM11.0379 7.67151L11.7593 7.67151L11.7593 5.12726Q11.7593 3.79135 12.2773 2.79465Q12.7953 1.79794 13.7109 1.24664Q14.6266 0.695343 15.8118 0.695343Q17.0012 0.695343 17.9147 1.24664Q18.8281 1.79794 19.3447 2.79465Q19.8613 3.79135 19.8613 5.12726L19.8613 7.2319Q19.8613 7.41409 19.9726 7.51778Q20.0839 7.62146 20.2261 7.62146Q20.3656 7.62146 20.4742 7.52045Q20.5827 7.41943 20.5827 7.2319L20.5827 5.1355Q20.5827 3.9624 20.2324 3.01788Q19.882 2.07336 19.2387 1.39816Q18.5953 0.722961 17.7242 0.361481Q16.853 0 15.8118 0Q14.7704 0 13.8979 0.361481Q13.0254 0.722961 12.382 1.39816Q11.7386 2.07336 11.3882 3.01788Q11.0379 3.9624 11.0379 5.1355Z" fill="#000000"/>
 </g>
</svg>
