<?xml version="1.0" encoding="UTF-8"?>
<!--Generator: Apple Native CoreSVG 175-->
<!DOCTYPE svg
PUBLIC "-//W3C//DTD SVG 1.1//EN"
       "http://www.w3.org/Graphics/SVG/1.1/DTD/svg11.dtd">
<svg version="1.1" xmlns="http://www.w3.org/2000/svg" xmlns:xlink="http://www.w3.org/1999/xlink" width="26.2988" height="14.7363">
 <g>
  <rect height="14.7363" opacity="0" width="26.2988" x="0" y="0"/>
  <path d="M0 14.0137Q0 14.3262 0.205078 14.5312Q0.410156 14.7363 0.712891 14.7363L25.5859 14.7363Q25.8984 14.7363 26.0986 14.5312Q26.2988 14.3262 26.2988 14.0137Q26.2988 13.7012 26.0986 13.4912Q25.8984 13.2812 25.5859 13.2812L23.457 13.2812L23.457 1.91406Q23.457 0.976562 22.9736 0.498047Q22.4902 0.0195312 21.5625 0.0195312L4.74609 0.0195312Q3.81836 0.0195312 3.33496 0.498047Q2.85156 0.976562 2.85156 1.91406L2.85156 13.2812L0.712891 13.2812Q0.410156 13.2812 0.205078 13.4912Q0 13.7012 0 14.0137ZM3.57422 13.2812L3.57422 2.03125Q3.57422 1.38672 3.89648 1.06934Q4.21875 0.751953 4.86328 0.751953L21.4453 0.751953Q22.0898 0.751953 22.4121 1.06934Q22.7344 1.38672 22.7344 2.03125L22.7344 13.2812ZM9.78516 9.47266Q9.78516 10.2637 10.5371 10.2637L13.8281 10.2637Q14.5801 10.2637 14.5801 9.47266L14.5801 6.92383Q14.5801 6.12305 13.8281 6.12305L10.5371 6.12305Q9.78516 6.12305 9.78516 6.92383ZM13.2324 6.36719L13.877 6.36719L13.877 5.3125Q13.877 4.67773 14.2041 4.30664Q14.5312 3.93555 15.0977 3.93555Q15.6738 3.93555 16.0059 4.30664Q16.3379 4.67773 16.3379 5.3125L16.3379 5.82031Q16.3379 5.94727 16.4258 6.04492Q16.5137 6.14258 16.6504 6.14258Q16.7871 6.14258 16.8799 6.04492Q16.9727 5.94727 16.9727 5.82031L16.9727 5.3125Q16.9727 4.42383 16.4551 3.85742Q15.9375 3.29102 15.0977 3.29102Q14.2773 3.29102 13.7549 3.85742Q13.2324 4.42383 13.2324 5.33203Z" fill="#000000"/>
 </g>
</svg>
