<?xml version="1.0" encoding="UTF-8"?>
<!--Generator: Apple Native CoreSVG 175-->
<!DOCTYPE svg
PUBLIC "-//W3C//DTD SVG 1.1//EN"
       "http://www.w3.org/Graphics/SVG/1.1/DTD/svg11.dtd">
<svg version="1.1" xmlns="http://www.w3.org/2000/svg" xmlns:xlink="http://www.w3.org/1999/xlink" width="20.2441" height="20.2637">
 <g>
  <rect height="20.2637" opacity="0" width="20.2441" x="0" y="0"/>
  <path d="M3.98438 10.4102Q4.81445 9.08203 5.61035 7.91992Q6.40625 6.75781 7.33398 5.63477Q7.37305 5.5957 7.33398 5.54688Q6.89453 5.11719 6.50879 4.76074Q6.12305 4.4043 5.78125 4.14062Q5.44922 3.87695 5.02441 3.5791Q4.59961 3.28125 4.15527 3.07129Q3.71094 2.86133 3.32031 2.86133Q3.0957 2.86133 3.01758 2.92969Q2.33398 3.59375 1.76758 4.42871Q1.20117 5.26367 0.810547 6.16211Q0 8.125 0 10.127Q0 13.4961 2.06055 16.25Q2.08008 16.2695 2.10449 16.2598Q2.12891 16.25 2.11914 16.2207Q2.08008 16.1133 2.06055 15.9473Q2.04102 15.7812 2.04102 15.6055Q2.04102 14.8242 2.29492 14.043Q2.65625 12.9785 3.06641 12.1045Q3.47656 11.2305 3.98438 10.4102ZM12.9102 5.63477Q13.8379 6.75781 14.6338 7.91992Q15.4297 9.08203 16.25 10.4102Q16.7676 11.2305 17.1777 12.1045Q17.5879 12.9785 17.9492 14.043Q18.2031 14.8242 18.2031 15.6055Q18.2031 15.7812 18.1836 15.9473Q18.1641 16.1133 18.125 16.2207Q18.1152 16.25 18.1396 16.2598Q18.1641 16.2695 18.1836 16.25Q20.2441 13.4961 20.2441 10.127Q20.2441 8.125 19.4336 6.16211Q19.043 5.26367 18.4766 4.42871Q17.9102 3.59375 17.2266 2.92969Q17.1484 2.86133 16.9238 2.86133Q16.5332 2.86133 16.0889 3.07129Q15.6445 3.28125 15.2197 3.5791Q14.7949 3.87695 14.4629 4.14062Q14.1211 4.4043 13.7305 4.76074Q13.3398 5.11719 12.9102 5.54688Q12.8711 5.5957 12.9102 5.63477ZM4.88281 1.46484Q4.85352 1.48438 4.8584 1.52344Q4.86328 1.5625 4.91211 1.55273Q5.24414 1.48438 5.58594 1.48438Q6.2207 1.48438 6.85059 1.64551Q7.48047 1.80664 8.22266 2.09961Q8.85742 2.34375 9.36523 2.60742Q9.59961 2.72461 9.77051 2.81738Q9.94141 2.91016 10.0488 2.96875Q10.1172 3.00781 10.1953 2.96875Q10.3027 2.91016 10.4736 2.81738Q10.6445 2.72461 10.8789 2.60742Q11.3867 2.34375 12.0117 2.09961Q12.7637 1.80664 13.3936 1.64551Q14.0234 1.48438 14.6582 1.48438Q15 1.48438 15.332 1.55273Q15.3809 1.5625 15.3857 1.52344Q15.3906 1.48438 15.3613 1.46484Q14.7754 1.12305 14.1748 0.859375Q13.5742 0.595703 12.9395 0.419922Q11.6504 0 10.1172 0Q8.59375 0 7.30469 0.419922Q6.66992 0.595703 6.06934 0.859375Q5.46875 1.12305 4.88281 1.46484ZM3.1543 16.9434Q3.1543 17.1777 3.24707 17.3828Q3.33984 17.5879 3.61328 17.8418Q4.77539 18.916 6.50391 19.5801Q8.23242 20.2441 10.1172 20.2441Q12.0117 20.2441 13.7402 19.5801Q15.4688 18.916 16.6309 17.8418Q16.8945 17.5879 16.9922 17.3828Q17.0898 17.1777 17.0898 16.9434Q17.0898 16.3672 16.7383 15.6738Q16.3965 14.8828 15.8057 14.0381Q15.2148 13.1934 14.6094 12.4707Q13.5742 11.2695 12.4658 10.1514Q11.3574 9.0332 10.2344 8.20312Q10.1465 8.14453 10.1172 8.14453Q10.0879 8.14453 10.0098 8.20312Q8.88672 9.0332 7.77832 10.1514Q6.66992 11.2695 5.63477 12.4707Q5.0293 13.1934 4.43848 14.0381Q3.84766 14.8828 3.50586 15.6738Q3.1543 16.3672 3.1543 16.9434Z" fill="#000000"/>
 </g>
</svg>
