<?xml version="1.0" encoding="UTF-8"?>
<!--Generator: Apple Native CoreSVG 175-->
<!DOCTYPE svg
PUBLIC "-//W3C//DTD SVG 1.1//EN"
       "http://www.w3.org/Graphics/SVG/1.1/DTD/svg11.dtd">
<svg version="1.1" xmlns="http://www.w3.org/2000/svg" xmlns:xlink="http://www.w3.org/1999/xlink" width="24.6323" height="19.0918">
 <g>
  <rect height="19.0918" opacity="0" width="24.6323" x="0" y="0"/>
  <path d="M9.23828 0Q10.0879 0.195312 11.1084 0.473633Q12.1289 0.751953 13.0908 1.04492Q14.0527 1.33789 14.7266 1.5625Q16.4258 2.12891 17.4316 2.86621Q18.4375 3.60352 18.8818 4.69727Q19.3262 5.79102 19.3262 7.42188Q19.3262 9.20898 18.5645 10.1367Q17.8027 11.0645 16.582 11.0645Q15.752 11.0645 14.7949 10.6152L14.7949 4.67773Q14.7949 4.16992 14.6777 3.75977Q14.5605 3.34961 14.0625 3.19336Q13.6523 3.06641 13.4473 3.36426Q13.2422 3.66211 13.2422 4.15039L13.2422 19.0625L9.23828 17.8027ZM13.9844 16.4746L13.9844 18.7598L22.168 15.8496Q23.9844 15.1953 24.4336 14.6094Q24.6582 14.3164 24.6289 13.9404Q24.5996 13.5645 24.1992 13.1836Q23.7988 12.8027 22.9102 12.4902Q21.543 12.0312 20.0342 11.8604Q18.5254 11.6895 17.2363 11.7969Q16.4453 11.8652 15.5615 12.0801Q14.6777 12.2949 13.9844 12.5293L13.9844 14.9902L18.291 13.4277Q18.8281 13.2324 19.5068 13.2129Q20.1855 13.1934 20.6543 13.3496Q21.1035 13.5059 21.0547 13.7305Q21.0059 13.9551 20.4297 14.1602ZM1.47461 16.0547Q2.83203 16.5332 4.56543 16.7969Q6.29883 17.0605 8.42773 16.6113L8.42773 14.541L6.5332 15.2344Q6.14258 15.3809 5.64453 15.4443Q5.14648 15.5078 4.70703 15.5029Q4.26758 15.498 4.05273 15.4199Q3.58398 15.2637 3.67188 14.9951Q3.75977 14.7266 4.38477 14.502L8.42773 13.0566L8.42773 10.7617L2.88086 12.7637Q2.32422 12.9785 1.74805 13.1885Q1.17188 13.3984 0.527344 13.8379Q-0.175781 14.3164 0.0585938 14.9756Q0.292969 15.6348 1.47461 16.0547Z" fill="#007aff"/>
 </g>
</svg>
