<?xml version="1.0" encoding="UTF-8"?>
<!--Generator: Apple Native CoreSVG 175-->
<!DOCTYPE svg
PUBLIC "-//W3C//DTD SVG 1.1//EN"
       "http://www.w3.org/Graphics/SVG/1.1/DTD/svg11.dtd">
<svg version="1.1" xmlns="http://www.w3.org/2000/svg" xmlns:xlink="http://www.w3.org/1999/xlink" width="22.7832" height="17.3145">
 <g>
  <rect height="17.3145" opacity="0" width="22.7832" x="0" y="0"/>
  <path d="M7.59766 0.0292969Q4.87305 0.0292969 3.20312 0.878906Q1.5332 1.72852 0.766602 3.40332Q0 5.07812 0 7.56836L0 14.6875Q0 15.9863 0.668945 16.6504Q1.33789 17.3145 2.62695 17.3145L20.1465 17.3145Q21.4453 17.3145 22.1143 16.6455Q22.7832 15.9766 22.7832 14.6875L22.7832 7.56836Q22.7832 5.07812 22.0215 3.40332Q21.2598 1.72852 19.585 0.878906Q17.9102 0.0292969 15.1855 0.0292969ZM6.45508 13.1348Q6.2793 13.1348 6.17676 13.0225Q6.07422 12.9102 6.07422 12.7344L6.07422 4.72656Q6.07422 4.55078 6.17188 4.44336Q6.26953 4.33594 6.45508 4.33594Q6.63086 4.33594 6.72852 4.44336Q6.82617 4.55078 6.82617 4.72656L6.82617 12.4609L11.1133 12.4609Q11.2695 12.4609 11.3623 12.5537Q11.4551 12.6465 11.4551 12.793Q11.4551 12.9492 11.3623 13.042Q11.2695 13.1348 11.1133 13.1348ZM14.8926 13.2031Q14.7168 13.2031 14.6143 13.0908Q14.5117 12.9785 14.5117 12.8027L14.5117 5.07812L11.8457 5.07812Q11.6992 5.07812 11.6016 4.98535Q11.5039 4.89258 11.5039 4.74609Q11.5039 4.58984 11.6016 4.50195Q11.6992 4.41406 11.8457 4.41406L18.0273 4.41406Q18.1738 4.41406 18.2715 4.50195Q18.3691 4.58984 18.3691 4.74609Q18.3691 4.89258 18.2715 4.98535Q18.1738 5.07812 18.0273 5.07812L15.2637 5.07812L15.2637 12.8027Q15.2637 12.9785 15.166 13.0908Q15.0684 13.2031 14.8926 13.2031Z" fill="#ffffff"/>
 </g>
</svg>
