<?xml version="1.0" encoding="UTF-8"?>
<!--Generator: Apple Native CoreSVG 175-->
<!DOCTYPE svg
PUBLIC "-//W3C//DTD SVG 1.1//EN"
       "http://www.w3.org/Graphics/SVG/1.1/DTD/svg11.dtd">
<svg version="1.1" xmlns="http://www.w3.org/2000/svg" xmlns:xlink="http://www.w3.org/1999/xlink" width="15.6372" height="21.2833">
 <g>
  <rect height="21.2833" opacity="0" width="15.6372" x="0" y="0"/>
  <path d="M0 19.2523Q0 19.7977 0.18631 20.0457Q0.37262 20.2937 0.804291 20.4379Q2.4086 20.9215 4.03183 21.094Q5.65506 21.2665 6.93085 21.2735Q7.93518 21.2665 9.01154 21.1765Q10.0879 21.0864 11.1258 20.9142Q12.1637 20.7419 13.058 20.4797Q13.9523 20.2176 14.5898 19.8805Q15.1875 19.552 15.4124 19.186Q15.6372 18.82 15.6372 18.179L15.6372 2.79495Q15.6372 1.30585 14.184 1.30585L13.1816 1.30585L13.1816 1.02768Q13.1816 0.445709 12.8934 0.222855Q12.6051 0 12.1785 0Q12.0383 0 11.8555 0.0361633Q11.6727 0.0723267 11.4867 0.127716Q9.10828 0.850372 6.64345 1.19217Q4.17862 1.53397 1.85074 1.53397L1.33667 1.53397Q0.679321 1.53397 0.339661 1.8779Q0 2.22183 0 2.8743ZM2.92542 8.14178L2.92542 4.841Q2.92542 4.58984 3.15979 4.59137Q4.76761 4.57504 6.43906 4.30473Q8.1105 4.03442 9.63089 3.58749Q9.71878 3.56247 9.83246 3.60779Q9.94614 3.65311 9.94614 3.82187L9.94614 7.10739Q9.94614 7.26105 9.80942 7.31964Q8.92227 7.67654 7.81639 7.91779Q6.71051 8.15903 5.51193 8.2711Q4.31335 8.38318 3.15979 8.36212Q2.92542 8.36212 2.92542 8.14178ZM2.41806 20.173Q3.84232 20.1552 5.30655 20.012Q6.77078 19.8688 8.14476 19.577Q9.51874 19.2851 10.6758 18.834Q11.8329 18.3829 12.6399 17.7419Q12.9605 17.495 13.0711 17.2522Q13.1816 17.0094 13.1816 16.5337L13.1816 2.03445L14.1937 2.03445Q14.9086 2.03445 14.9086 2.81601L14.9086 18.1137Q14.9086 18.5532 14.7646 18.7962Q14.6207 19.0392 14.222 19.236Q13.4027 19.6419 12.1854 19.9416Q10.968 20.2414 9.59396 20.4053Q8.21991 20.5692 6.93085 20.5762Q5.66833 20.5692 4.53438 20.4697Q3.40042 20.3703 2.41806 20.173Z" fill="#007aff"/>
 </g>
</svg>
