<?xml version="1.0" encoding="UTF-8"?>
<!--Generator: Apple Native CoreSVG 175-->
<!DOCTYPE svg
PUBLIC "-//W3C//DTD SVG 1.1//EN"
       "http://www.w3.org/Graphics/SVG/1.1/DTD/svg11.dtd">
<svg version="1.1" xmlns="http://www.w3.org/2000/svg" xmlns:xlink="http://www.w3.org/1999/xlink" width="18.4773" height="18.649">
 <g>
  <rect height="18.649" opacity="0" width="18.4773" x="0" y="0"/>
  <path d="M0 7.30087Q0 8.80676 0.570297 10.1265Q1.14059 11.4462 2.14455 12.4536Q3.1485 13.461 4.47174 14.0313Q5.79498 14.6016 7.30087 14.6016Q8.59848 14.6016 9.76837 14.1689Q10.9383 13.7361 11.8742 12.9681L17.3257 18.4435Q17.4101 18.5251 17.5322 18.5835Q17.6543 18.6418 17.7972 18.6418Q18.0098 18.6418 18.1618 18.5468Q18.3138 18.4517 18.3955 18.2935Q18.4773 18.1352 18.4773 17.9536Q18.4773 17.8247 18.426 17.7075Q18.3746 17.5903 18.2747 17.4902L12.8383 12.0317Q13.6606 11.0832 14.1311 9.86801Q14.6016 8.6528 14.6016 7.30087Q14.6016 5.79498 14.0313 4.47174Q13.461 3.1485 12.4535 2.14462Q11.4461 1.14075 10.1263 0.570374Q8.80661 0 7.30087 0Q5.79498 0 4.47174 0.570374Q3.1485 1.14075 2.14455 2.14462Q1.14059 3.1485 0.570297 4.47174Q0 5.79498 0 7.30087ZM0.748901 7.30087Q0.748901 5.94696 1.25771 4.7612Q1.76651 3.57544 2.67097 2.67097Q3.57544 1.76651 4.7612 1.2542Q5.94696 0.741882 7.30087 0.741882Q8.65463 0.741882 9.84039 1.2542Q11.0262 1.76651 11.9293 2.67097Q12.8325 3.57544 13.3426 4.7612Q13.8527 5.94696 13.8527 7.30087Q13.8527 8.64777 13.3426 9.83704Q12.8325 11.0263 11.9293 11.9259Q11.0262 12.8255 9.84039 13.3392Q8.65463 13.8528 7.30087 13.8528Q5.94696 13.8528 4.7612 13.3392Q3.57544 12.8255 2.67097 11.9259Q1.76651 11.0263 1.25771 9.83704Q0.748901 8.64777 0.748901 7.30087Z" fill="#000000"/>
 </g>
</svg>
