<?xml version="1.0" encoding="UTF-8"?>
<!--Generator: Apple Native CoreSVG 175-->
<!DOCTYPE svg
PUBLIC "-//W3C//DTD SVG 1.1//EN"
       "http://www.w3.org/Graphics/SVG/1.1/DTD/svg11.dtd">
<svg version="1.1" xmlns="http://www.w3.org/2000/svg" xmlns:xlink="http://www.w3.org/1999/xlink" width="13.2063" height="19.0927">
 <g>
  <rect height="19.0927" opacity="0" width="13.2063" x="0" y="0"/>
  <path d="M2.58835 19.0829L10.618 19.0829Q11.7824 19.0829 12.4944 18.41Q13.2063 17.7371 13.2063 16.6411L13.2063 2.44186Q13.2063 1.34583 12.4944 0.672913Q11.7824 0 10.618 0L2.58835 0Q1.42105 0 0.710526 0.672913Q0 1.34583 0 2.44186L0 16.6411Q0 17.7371 0.710526 18.41Q1.42105 19.0829 2.58835 19.0829ZM6.60583 15.507Q6.47583 15.507 6.3768 15.4094Q6.27777 15.3117 6.27777 15.1747L6.27777 13.2083Q6.27777 13.0711 6.3768 12.9735Q6.47583 12.8758 6.60583 12.8758Q6.74301 12.8758 6.84067 12.9735Q6.93832 13.0711 6.93832 13.2083L6.93832 15.1747Q6.93832 15.3117 6.84067 15.4094Q6.74301 15.507 6.60583 15.507ZM6.60583 10.9341Q5.61325 10.9341 4.74472 10.5605Q3.87619 10.1868 3.21815 9.52881Q2.56012 8.87085 2.18651 8.00087Q1.8129 7.13089 1.8129 6.14105Q1.8129 5.15121 2.18651 4.28482Q2.56012 3.41843 3.21815 2.75826Q3.87619 2.09808 4.74472 1.72798Q5.61325 1.35788 6.60583 1.35788Q7.59567 1.35788 8.46077 1.72798Q9.32587 2.09808 9.98734 2.75826Q10.6488 3.41843 11.0225 4.28482Q11.3962 5.15121 11.3962 6.14105Q11.3962 7.13089 11.0225 8.00087Q10.6488 8.87085 9.98734 9.52881Q9.32587 10.1868 8.46077 10.5605Q7.59567 10.9341 6.60583 10.9341ZM6.60583 10.2802Q7.74185 10.2802 8.68034 9.7184Q9.61884 9.15665 10.1805 8.21823Q10.7422 7.27982 10.7422 6.14105Q10.7422 5.00519 10.1805 4.0667Q9.61884 3.1282 8.68034 2.56996Q7.74185 2.01172 6.60583 2.01172Q5.46722 2.01172 4.52522 2.56996Q3.58322 3.1282 3.02505 4.0667Q2.46689 5.00519 2.46689 6.14105Q2.46689 7.28683 3.02505 8.22525Q3.58322 9.16367 4.52522 9.72191Q5.46722 10.2802 6.60583 10.2802Z" fill="#007aff"/>
 </g>
</svg>
