<?xml version="1.0" encoding="UTF-8"?>
<!--Generator: Apple Native CoreSVG 175-->
<!DOCTYPE svg
PUBLIC "-//W3C//DTD SVG 1.1//EN"
       "http://www.w3.org/Graphics/SVG/1.1/DTD/svg11.dtd">
<svg version="1.1" xmlns="http://www.w3.org/2000/svg" xmlns:xlink="http://www.w3.org/1999/xlink" width="13.2063" height="19.0927">
 <g>
  <rect height="19.0927" opacity="0" width="13.2063" x="0" y="0"/>
  <path d="M2.58835 19.0829L10.618 19.0829Q11.7824 19.0829 12.4944 18.41Q13.2063 17.7371 13.2063 16.6411L13.2063 2.44186Q13.2063 1.34583 12.4944 0.672913Q11.7824 0 10.618 0L2.58835 0Q1.42105 0 0.710526 0.672913Q0 1.34583 0 2.44186L0 16.6411Q0 17.7371 0.710526 18.41Q1.42105 19.0829 2.58835 19.0829ZM2.62894 18.3543Q1.75354 18.3543 1.24107 17.8719Q0.728607 17.3895 0.728607 16.584L0.728607 2.49191Q0.728607 1.6864 1.24107 1.2075Q1.75354 0.728607 2.62894 0.728607L10.5704 0.728607Q11.443 0.728607 11.9604 1.2075Q12.4777 1.6864 12.4777 2.49191L12.4777 16.584Q12.4777 17.3895 11.9604 17.8719Q11.443 18.3543 10.5704 18.3543ZM6.60583 15.6322Q6.74301 15.6322 6.84067 15.5331Q6.93832 15.4341 6.93832 15.2969L6.93832 13.3333Q6.93832 13.1961 6.84067 13.0971Q6.74301 12.998 6.60583 12.998Q6.47583 12.998 6.3768 13.0971Q6.27777 13.1961 6.27777 13.3333L6.27777 15.2969Q6.27777 15.4341 6.3768 15.5331Q6.47583 15.6322 6.60583 15.6322ZM6.60583 11.0426Q7.87857 11.0426 8.93288 10.4196Q9.98718 9.7966 10.6137 8.74229Q11.2402 7.68799 11.2402 6.41525Q11.2402 5.1329 10.6137 4.08211Q9.98718 3.03131 8.93288 2.40479Q7.87857 1.77826 6.60583 1.77826Q5.33051 1.77826 4.2762 2.40479Q3.22189 3.03131 2.59537 4.08211Q1.96884 5.1329 1.96884 6.41525Q1.96884 7.68799 2.59537 8.74229Q3.22189 9.7966 4.2762 10.4196Q5.33051 11.0426 6.60583 11.0426ZM6.60583 10.3886Q5.50781 10.3886 4.60175 9.85565Q3.69568 9.32266 3.15567 8.41667Q2.61566 7.51068 2.61566 6.41525Q2.61566 5.31296 3.15567 4.4104Q3.69568 3.50784 4.60175 2.96997Q5.50781 2.4321 6.60583 2.4321Q7.69852 2.4321 8.60451 2.97348Q9.5105 3.51486 10.0484 4.41742Q10.5862 5.31998 10.5862 6.41525Q10.5862 7.51068 10.0484 8.41316Q9.5105 9.31564 8.60451 9.85214Q7.69852 10.3886 6.60583 10.3886Z" fill="#ffffff"/>
 </g>
</svg>
