<?xml version="1.0" encoding="UTF-8"?>
<!--Generator: Apple Native CoreSVG 175.5-->
<!DOCTYPE svg
PUBLIC "-//W3C//DTD SVG 1.1//EN"
       "http://www.w3.org/Graphics/SVG/1.1/DTD/svg11.dtd">
<svg version="1.1" xmlns="http://www.w3.org/2000/svg" xmlns:xlink="http://www.w3.org/1999/xlink" width="17.9785" height="17.998">
 <g>
  <rect height="17.998" opacity="0" width="17.9785" x="0" y="0"/>
  <path d="M3.06641 17.998L14.9121 17.998Q16.4453 17.998 17.2119 17.2412Q17.9785 16.4844 17.9785 14.9707L17.9785 3.04688Q17.9785 1.5332 17.2119 0.776367Q16.4453 0.0195312 14.9121 0.0195312L3.06641 0.0195312Q1.5332 0.0195312 0.766602 0.776367Q0 1.5332 0 3.04688L0 14.9707Q0 16.4844 0.766602 17.2412Q1.5332 17.998 3.06641 17.998Z" fill="#007aff"/>
  <path d="M6.07422 13.6523Q5.77148 13.6523 5.58105 13.4717Q5.39062 13.291 5.39062 12.9785L5.39062 9.6875Q5.39062 7.70508 6.22559 6.5918Q7.06055 5.47852 8.4375 5.30273L8.4375 4.25781Q8.4375 3.99414 8.59375 3.85254Q8.75 3.71094 8.99414 3.71094Q9.20898 3.71094 9.375 3.85254Q9.54102 3.99414 9.54102 4.25781L9.54102 5.29297Q10.9277 5.46875 11.7676 6.58203Q12.6074 7.69531 12.6074 9.6875L12.6074 12.9785Q12.6074 13.291 12.4268 13.4717Q12.2461 13.6523 11.9434 13.6523Q11.6602 13.6523 11.4795 13.4717Q11.2988 13.291 11.2988 12.9785L11.2988 9.77539Q11.2988 8.34961 10.8252 7.54395Q10.3516 6.73828 9.54102 6.55273L9.54102 13.0957Q9.54102 13.3398 9.375 13.4961Q9.20898 13.6523 8.99414 13.6523Q8.75 13.6523 8.59375 13.4961Q8.4375 13.3398 8.4375 13.0957L8.4375 6.5625Q7.63672 6.76758 7.17773 7.56836Q6.71875 8.36914 6.71875 9.77539L6.71875 12.9785Q6.71875 13.291 6.53809 13.4717Q6.35742 13.6523 6.07422 13.6523Z" fill="#ffffff"/>
 </g>
</svg>
