<?xml version="1.0" encoding="UTF-8"?>
<!--Generator: Apple Native CoreSVG 175.5-->
<!DOCTYPE svg
PUBLIC "-//W3C//DTD SVG 1.1//EN"
       "http://www.w3.org/Graphics/SVG/1.1/DTD/svg11.dtd">
<svg version="1.1" xmlns="http://www.w3.org/2000/svg" xmlns:xlink="http://www.w3.org/1999/xlink" width="20.3125" height="19.2676">
 <g>
  <rect height="19.2676" opacity="0" width="20.3125" x="0" y="0"/>
  <path d="M1.10352 18.8867Q1.28906 18.8867 1.48438 18.8232Q1.67969 18.7598 1.91406 18.623L6.88477 15.9473L12.2852 18.9746Q12.8125 19.2676 13.3789 19.2676Q13.916 19.2676 14.3555 19.0137L19.4629 16.1133Q19.9023 15.8691 20.1074 15.5127Q20.3125 15.1562 20.3125 14.668L20.3125 1.51367Q20.3125 0.976562 20.0244 0.683594Q19.7363 0.390625 19.209 0.390625Q19.0234 0.390625 18.8281 0.454102Q18.6328 0.517578 18.3887 0.644531L13.2129 3.52539L7.91016 0.273438Q7.46094 0 6.92383 0Q6.37695 0 5.91797 0.273438L0.839844 3.16406Q0.410156 3.4082 0.205078 3.76465Q0 4.12109 0 4.61914L0 17.7539Q0 18.3008 0.288086 18.5938Q0.576172 18.8867 1.10352 18.8867ZM6.25 14.3945L1.8457 16.8164Q1.74805 16.8652 1.69922 16.8652Q1.57227 16.8652 1.57227 16.709L1.57227 5Q1.57227 4.82422 1.64551 4.69238Q1.71875 4.56055 1.89453 4.46289L5.89844 2.11914Q5.99609 2.07031 6.0791 2.02148Q6.16211 1.97266 6.25 1.92383ZM7.82227 14.5508L7.82227 2.12891Q7.90039 2.16797 7.97852 2.21191Q8.05664 2.25586 8.13477 2.30469L12.4902 4.96094L12.4902 17.168Q12.3828 17.1094 12.2754 17.0557Q12.168 17.002 12.0605 16.9434ZM14.0625 17.3438L14.0625 4.86328L18.4668 2.46094Q18.5645 2.41211 18.6035 2.41211Q18.6719 2.41211 18.7061 2.45117Q18.7402 2.49023 18.7402 2.56836L18.7402 14.2773Q18.7402 14.4531 18.667 14.5898Q18.5938 14.7266 18.418 14.8242L14.502 17.0996Q14.3945 17.168 14.2822 17.2266Q14.1699 17.2852 14.0625 17.3438Z" fill="#007aff"/>
 </g>
</svg>
