<?xml version="1.0" encoding="UTF-8"?>
<!--Generator: Apple Native CoreSVG 175-->
<!DOCTYPE svg
PUBLIC "-//W3C//DTD SVG 1.1//EN"
       "http://www.w3.org/Graphics/SVG/1.1/DTD/svg11.dtd">
<svg version="1.1" xmlns="http://www.w3.org/2000/svg" xmlns:xlink="http://www.w3.org/1999/xlink" width="19.1602" height="19.1504">
 <g>
  <rect height="19.1504" opacity="0" width="19.1602" x="0" y="0"/>
  <path d="M9.57031 19.1504Q11.5527 19.1504 13.2861 18.4082Q15.0195 17.666 16.3379 16.3428Q17.6562 15.0195 18.4082 13.2861Q19.1602 11.5527 19.1602 9.58008Q19.1602 7.60742 18.4082 5.87402Q17.6562 4.14062 16.3379 2.81738Q15.0195 1.49414 13.2861 0.751953Q11.5527 0.00976562 9.57031 0.00976562Q7.59766 0.00976562 5.86426 0.751953Q4.13086 1.49414 2.81738 2.81738Q1.50391 4.14062 0.751953 5.87402Q0 7.60742 0 9.58008Q0 11.5527 0.74707 13.2861Q1.49414 15.0195 2.8125 16.3428Q4.13086 17.666 5.86914 18.4082Q7.60742 19.1504 9.57031 19.1504ZM9.93164 7.5293L7.67578 5.26367Q7.79297 4.59961 8.33008 4.15527Q8.86719 3.71094 9.57031 3.71094Q10.0977 3.71094 10.5371 3.96973Q10.9766 4.22852 11.2402 4.66797Q11.5039 5.10742 11.5039 5.63477Q11.5039 6.33789 11.0498 6.87012Q10.5957 7.40234 9.93164 7.5293ZM8.4668 5.07812Q8.4668 5.33203 8.65234 5.51758Q8.83789 5.70312 9.0918 5.70312Q9.3457 5.70312 9.52637 5.51758Q9.70703 5.33203 9.70703 5.07812Q9.7168 4.82422 9.53125 4.63379Q9.3457 4.44336 9.0918 4.44336Q8.83789 4.44336 8.64746 4.63379Q8.45703 4.82422 8.4668 5.07812ZM9.24805 10.3613L9.90234 11.0156L9.90234 13.9746Q9.90234 14.502 9.85352 14.8633Q9.80469 15.2246 9.73633 15.415Q9.66797 15.6055 9.57031 15.6055Q9.47266 15.6055 9.39941 15.415Q9.32617 15.2246 9.28711 14.8584Q9.24805 14.4922 9.24805 13.9746ZM14.3066 14.7363L4.41406 4.83398Q4.33594 4.74609 4.32617 4.62891Q4.31641 4.51172 4.41406 4.41406Q4.50195 4.32617 4.62402 4.32617Q4.74609 4.32617 4.83398 4.41406L14.7266 14.3164Q14.8145 14.4043 14.8145 14.5215Q14.8145 14.6387 14.7266 14.7363Q14.6387 14.8242 14.5166 14.8242Q14.3945 14.8242 14.3066 14.7363Z" fill="#000000"/>
 </g>
</svg>
