<?xml version="1.0" encoding="UTF-8"?>
<!--Generator: Apple Native CoreSVG 175.5-->
<!DOCTYPE svg
PUBLIC "-//W3C//DTD SVG 1.1//EN"
       "http://www.w3.org/Graphics/SVG/1.1/DTD/svg11.dtd">
<svg version="1.1" xmlns="http://www.w3.org/2000/svg" xmlns:xlink="http://www.w3.org/1999/xlink" width="19.9219" height="19.9316">
 <g>
  <rect height="19.9316" opacity="0" width="19.9219" x="0" y="0"/>
  <path d="M9.96094 19.9316Q12.002 19.9316 13.8037 19.1504Q15.6055 18.3691 16.9824 16.9922Q18.3594 15.6152 19.1406 13.8135Q19.9219 12.0117 19.9219 9.9707Q19.9219 7.92969 19.1406 6.12793Q18.3594 4.32617 16.9824 2.94922Q15.6055 1.57227 13.7988 0.791016Q11.9922 0.00976562 9.95117 0.00976562Q7.91016 0.00976562 6.1084 0.791016Q4.30664 1.57227 2.93457 2.94922Q1.5625 4.32617 0.78125 6.12793Q0 7.92969 0 9.9707Q0 12.0117 0.78125 13.8135Q1.5625 15.6152 2.93945 16.9922Q4.31641 18.3691 6.11816 19.1504Q7.91992 19.9316 9.96094 19.9316Z" fill="#007aff"/>
  <path d="M10.6152 8.47656L7.8125 5.66406Q8.01758 4.98047 8.60352 4.53613Q9.18945 4.0918 9.94141 4.0918Q10.5566 4.0918 11.0693 4.39453Q11.582 4.69727 11.8848 5.20508Q12.1875 5.71289 12.1875 6.33789Q12.1875 7.08984 11.7432 7.67578Q11.2988 8.26172 10.6152 8.47656ZM8.66211 5.74219Q8.66211 6.02539 8.87695 6.24023Q9.0918 6.45508 9.36523 6.45508Q9.6582 6.45508 9.86816 6.24023Q10.0781 6.02539 10.0781 5.74219Q10.0781 5.45898 9.86816 5.24414Q9.6582 5.0293 9.36523 5.0293Q9.0918 5.0293 8.87207 5.24414Q8.65234 5.45898 8.66211 5.74219ZM9.26758 10.9668L10.6055 12.3047L10.6055 13.3398Q10.6055 14.0625 10.5322 14.6777Q10.459 15.293 10.3125 15.6641Q10.166 16.0352 9.94141 16.0352Q9.7168 16.0352 9.57031 15.6592Q9.42383 15.2832 9.3457 14.668Q9.26758 14.0527 9.26758 13.3398ZM14.502 15.1465L4.76562 5.41016Q4.63867 5.29297 4.63867 5.10742Q4.63867 4.92188 4.76562 4.78516Q4.90234 4.6582 5.08301 4.6582Q5.26367 4.6582 5.40039 4.78516L15.127 14.5215Q15.2637 14.6582 15.2637 14.834Q15.2637 15.0098 15.127 15.1465Q15 15.2734 14.8145 15.2734Q14.6289 15.2734 14.502 15.1465Z" fill="#ffffff"/>
 </g>
</svg>
