<?xml version="1.0" encoding="UTF-8"?>
<!--Generator: Apple Native CoreSVG 175.5-->
<!DOCTYPE svg
PUBLIC "-//W3C//DTD SVG 1.1//EN"
       "http://www.w3.org/Graphics/SVG/1.1/DTD/svg11.dtd">
<svg version="1.1" xmlns="http://www.w3.org/2000/svg" xmlns:xlink="http://www.w3.org/1999/xlink" width="17.9785" height="17.998">
 <g>
  <rect height="17.998" opacity="0" width="17.9785" x="0" y="0"/>
  <path d="M3.06641 17.998L14.9121 17.998Q16.4453 17.998 17.2119 17.2412Q17.9785 16.4844 17.9785 14.9707L17.9785 3.04688Q17.9785 1.5332 17.2119 0.776367Q16.4453 0.0195312 14.9121 0.0195312L3.06641 0.0195312Q1.5332 0.0195312 0.766602 0.776367Q0 1.5332 0 3.04688L0 14.9707Q0 16.4844 0.766602 17.2412Q1.5332 17.998 3.06641 17.998ZM3.08594 16.4258Q2.35352 16.4258 1.96289 16.04Q1.57227 15.6543 1.57227 14.8926L1.57227 3.125Q1.57227 2.36328 1.96289 1.97754Q2.35352 1.5918 3.08594 1.5918L14.8926 1.5918Q15.6152 1.5918 16.0107 1.97754Q16.4062 2.36328 16.4062 3.125L16.4062 14.8926Q16.4062 15.6543 16.0107 16.04Q15.6152 16.4258 14.8926 16.4258Z" fill="#ff453a"/>
  <path d="M6.76758 5.33203Q6.76758 6.07422 7.20703 6.65527Q7.64648 7.23633 8.32031 7.45117L8.32031 12.3535Q8.32031 13.0664 8.39355 13.6865Q8.4668 14.3066 8.61816 14.6826Q8.76953 15.0586 8.99414 15.0586Q9.21875 15.0586 9.36523 14.6826Q9.51172 14.3066 9.58496 13.6914Q9.6582 13.0762 9.6582 12.3535L9.6582 7.45117Q10.3418 7.24609 10.7812 6.66504Q11.2207 6.08398 11.2207 5.33203Q11.2207 4.7168 10.918 4.21387Q10.6152 3.71094 10.1123 3.4082Q9.60938 3.10547 8.99414 3.10547Q8.37891 3.10547 7.87598 3.4082Q7.37305 3.71094 7.07031 4.21387Q6.76758 4.7168 6.76758 5.33203ZM7.70508 4.76562Q7.70508 4.47266 7.91992 4.25781Q8.13477 4.04297 8.41797 4.04297Q8.71094 4.04297 8.9209 4.25781Q9.13086 4.47266 9.13086 4.76562Q9.13086 5.04883 8.9209 5.25879Q8.71094 5.46875 8.41797 5.46875Q8.13477 5.46875 7.9248 5.25879Q7.71484 5.04883 7.70508 4.76562Z" fill="#ff453a"/>
 </g>
</svg>
