<?xml version="1.0" encoding="UTF-8"?>
<!--Generator: Apple Native CoreSVG 175.5-->
<!DOCTYPE svg
PUBLIC "-//W3C//DTD SVG 1.1//EN"
       "http://www.w3.org/Graphics/SVG/1.1/DTD/svg11.dtd">
<svg version="1.1" xmlns="http://www.w3.org/2000/svg" xmlns:xlink="http://www.w3.org/1999/xlink" width="15.1319" height="21.4551">
 <g>
  <rect height="21.4551" opacity="0" width="15.1319" x="0" y="0"/>
  <path d="M4.25781 3.68164Q4.25781 4.54102 4.61426 5.27344Q4.9707 6.00586 5.5957 6.52344Q6.2207 7.04102 7.01172 7.23633L7.01172 8.42773L8.82812 10.2441L8.82812 7.23633Q9.61914 7.04102 10.2441 6.52344Q10.8691 6.00586 11.2305 5.27344Q11.5918 4.54102 11.5918 3.68164Q11.5918 2.66602 11.0986 1.83105Q10.6055 0.996094 9.77539 0.498047Q8.94531 0 7.91992 0Q6.9043 0 6.07422 0.498047Q5.24414 0.996094 4.75098 1.83105Q4.25781 2.66602 4.25781 3.68164ZM7.01172 16.2988Q7.01172 17.3828 7.09961 18.208Q7.1875 19.0332 7.32422 19.5996Q7.46094 20.166 7.61719 20.459Q7.77344 20.752 7.91992 20.752Q8.10547 20.752 8.31543 20.3027Q8.52539 19.8535 8.67188 18.999Q8.81836 18.1445 8.81836 16.9336L8.81836 15.5762L7.01172 13.7695ZM6.86523 3.87695Q6.36719 3.87695 5.99121 3.50098Q5.61523 3.125 5.61523 2.61719Q5.61523 2.10938 5.99121 1.73828Q6.36719 1.36719 6.86523 1.36719Q7.38281 1.36719 7.75391 1.73828Q8.125 2.10938 8.125 2.61719Q8.125 3.125 7.75391 3.50098Q7.38281 3.87695 6.86523 3.87695Z" fill="#007aff"/>
  <path d="M13.8477 18.9844Q14.0723 19.209 14.3848 19.209Q14.6973 19.209 14.9121 18.9844Q15.127 18.7695 15.1318 18.457Q15.1367 18.1445 14.9121 17.9199L1.28906 4.30664Q1.07422 4.0918 0.751953 4.0918Q0.429688 4.0918 0.214844 4.30664Q0 4.52148 0 4.83887Q0 5.15625 0.214844 5.37109Z" fill="#007aff"/>
 </g>
</svg>
