<?xml version="1.0" encoding="UTF-8"?>
<!--Generator: Apple Native CoreSVG 175-->
<!DOCTYPE svg
PUBLIC "-//W3C//DTD SVG 1.1//EN"
       "http://www.w3.org/Graphics/SVG/1.1/DTD/svg11.dtd">
<svg version="1.1" xmlns="http://www.w3.org/2000/svg" xmlns:xlink="http://www.w3.org/1999/xlink" width="12.7102" height="19.0918">
 <g>
  <rect height="19.0918" opacity="0" width="12.7102" x="0" y="0"/>
  <path d="M3.65234 2.79297Q3.65234 3.49609 3.96484 4.0918Q4.27734 4.6875 4.82422 5.07812Q5.37109 5.46875 6.05469 5.54688L6.05469 7.79297L6.80664 8.55469L6.80664 5.54688Q7.5 5.46875 8.04199 5.07812Q8.58398 4.6875 8.90137 4.0918Q9.21875 3.49609 9.21875 2.79297Q9.21875 2.02148 8.84277 1.38672Q8.4668 0.751953 7.83691 0.375977Q7.20703 0 6.42578 0Q5.66406 0 5.03418 0.375977Q4.4043 0.751953 4.02832 1.38672Q3.65234 2.02148 3.65234 2.79297ZM6.05469 16.9531Q6.05469 17.4512 6.08887 17.8271Q6.12305 18.2031 6.18164 18.4521Q6.24023 18.7012 6.30371 18.8281Q6.36719 18.9551 6.42578 18.9551Q6.51367 18.9551 6.60156 18.7451Q6.68945 18.5352 6.74805 18.1201Q6.80664 17.7051 6.80664 17.0898L6.80664 12.1387L6.05469 11.3867ZM5.55664 2.85156Q5.17578 2.85156 4.8877 2.57324Q4.59961 2.29492 4.59961 1.9043Q4.59961 1.51367 4.8877 1.23047Q5.17578 0.947266 5.55664 0.947266Q5.9375 0.947266 6.2207 1.23047Q6.50391 1.51367 6.50391 1.9043Q6.50391 2.29492 6.2207 2.57324Q5.9375 2.85156 5.55664 2.85156ZM12.0996 16.1426Q12.207 16.25 12.3535 16.25Q12.5 16.25 12.6172 16.1426Q12.7051 16.0449 12.71 15.8936Q12.7148 15.7422 12.6172 15.6348L0.625 3.64258Q0.527344 3.55469 0.371094 3.54492Q0.214844 3.53516 0.0976562 3.64258Q0 3.75 0 3.89648Q0 4.04297 0.0976562 4.15039Z" fill="#007aff"/>
 </g>
</svg>
