<?xml version="1.0" encoding="UTF-8"?>
<!--Generator: Apple Native CoreSVG 175.5-->
<!DOCTYPE svg
PUBLIC "-//W3C//DTD SVG 1.1//EN"
       "http://www.w3.org/Graphics/SVG/1.1/DTD/svg11.dtd">
<svg version="1.1" xmlns="http://www.w3.org/2000/svg" xmlns:xlink="http://www.w3.org/1999/xlink" width="19.9219" height="19.9316">
 <g>
  <rect height="19.9316" opacity="0" width="19.9219" x="0" y="0"/>
  <path d="M9.96094 19.9316Q12.002 19.9316 13.8037 19.1504Q15.6055 18.3691 16.9824 16.9922Q18.3594 15.6152 19.1406 13.8135Q19.9219 12.0117 19.9219 9.9707Q19.9219 7.92969 19.1406 6.12793Q18.3594 4.32617 16.9824 2.94922Q15.6055 1.57227 13.7988 0.791016Q11.9922 0.00976562 9.95117 0.00976562Q7.91016 0.00976562 6.1084 0.791016Q4.30664 1.57227 2.93457 2.94922Q1.5625 4.32617 0.78125 6.12793Q0 7.92969 0 9.9707Q0 12.0117 0.78125 13.8135Q1.5625 15.6152 2.93945 16.9922Q4.31641 18.3691 6.11816 19.1504Q7.91992 19.9316 9.96094 19.9316Z" fill="#ff453a"/>
  <path d="M7.65625 6.20117Q7.65625 5.56641 7.96875 5.04883Q8.28125 4.53125 8.80371 4.21875Q9.32617 3.90625 9.96094 3.90625Q10.5957 3.90625 11.1182 4.21875Q11.6406 4.53125 11.9531 5.04883Q12.2656 5.56641 12.2656 6.20117Q12.2656 6.98242 11.8066 7.57812Q11.3477 8.17383 10.6543 8.38867L10.6543 13.4277Q10.6543 14.1797 10.5762 14.8193Q10.498 15.459 10.3467 15.8447Q10.1953 16.2305 9.96094 16.2305Q9.72656 16.2305 9.57031 15.8398Q9.41406 15.4492 9.33594 14.8096Q9.25781 14.1699 9.25781 13.4277L9.25781 8.38867Q8.56445 8.16406 8.11035 7.56836Q7.65625 6.97266 7.65625 6.20117ZM8.63281 5.61523Q8.64258 5.9082 8.8623 6.12793Q9.08203 6.34766 9.36523 6.34766Q9.66797 6.34766 9.88281 6.12793Q10.0977 5.9082 10.0977 5.61523Q10.0977 5.32227 9.88281 5.09766Q9.66797 4.87305 9.36523 4.87305Q9.08203 4.87305 8.85742 5.09766Q8.63281 5.32227 8.63281 5.61523Z" fill="#ffffff"/>
 </g>
</svg>
