<?xml version="1.0" encoding="UTF-8"?>
<!--Generator: Apple Native CoreSVG 175-->
<!DOCTYPE svg
PUBLIC "-//W3C//DTD SVG 1.1//EN"
       "http://www.w3.org/Graphics/SVG/1.1/DTD/svg11.dtd">
<svg version="1.1" xmlns="http://www.w3.org/2000/svg" xmlns:xlink="http://www.w3.org/1999/xlink" width="5.56641" height="19.0918">
 <g>
  <rect height="19.0918" opacity="0" width="5.56641" x="0" y="0"/>
  <path d="M0 2.79297Q0 3.49609 0.3125 4.0918Q0.625 4.6875 1.17188 5.07812Q1.71875 5.46875 2.40234 5.54688L2.40234 16.9531Q2.40234 17.4512 2.43652 17.8271Q2.4707 18.2031 2.5293 18.4521Q2.58789 18.7012 2.65137 18.8281Q2.71484 18.9551 2.77344 18.9551Q2.8418 18.9551 2.91016 18.8281Q2.97852 18.7012 3.03223 18.4521Q3.08594 18.2031 3.12012 17.832Q3.1543 17.4609 3.1543 16.9531L3.1543 5.54688Q3.84766 5.46875 4.38965 5.07812Q4.93164 4.6875 5.24902 4.0918Q5.56641 3.49609 5.56641 2.79297Q5.56641 2.02148 5.19043 1.38672Q4.81445 0.751953 4.18457 0.375977Q3.55469 0 2.77344 0Q2.01172 0 1.38184 0.375977Q0.751953 0.751953 0.375977 1.38672Q0 2.02148 0 2.79297Z" fill="#ff3b30"/>
  <path d="M1.9043 2.85156Q1.52344 2.85156 1.23535 2.57324Q0.947266 2.29492 0.947266 1.9043Q0.947266 1.51367 1.23535 1.23047Q1.52344 0.947266 1.9043 0.947266Q2.28516 0.947266 2.56836 1.23047Q2.85156 1.51367 2.85156 1.9043Q2.85156 2.29492 2.56836 2.57324Q2.28516 2.85156 1.9043 2.85156Z" fill="#ffffff"/>
 </g>
</svg>
