<?xml version="1.0" encoding="UTF-8"?>
<!--Generator: Apple Native CoreSVG 175.5-->
<!DOCTYPE svg
PUBLIC "-//W3C//DTD SVG 1.1//EN"
       "http://www.w3.org/Graphics/SVG/1.1/DTD/svg11.dtd">
<svg version="1.1" xmlns="http://www.w3.org/2000/svg" xmlns:xlink="http://www.w3.org/1999/xlink" width="21.3796" height="21.6113">
 <g>
  <rect height="21.6113" opacity="0" width="21.3796" x="0" y="0"/>
  <path d="M1.86544 17.8906L3.72091 19.7461L4.82443 18.6328Q5.57638 17.8711 6.37716 17.4561Q7.17794 17.041 8.0129 16.7871Q8.84786 16.5332 9.69259 16.2646Q10.5373 15.9961 11.3674 15.5615Q12.1975 15.127 12.9885 14.3359L20.1662 7.1582Q20.9768 6.34766 21.2453 5.32227Q21.5139 4.29688 21.2453 3.27148Q20.9768 2.24609 20.1662 1.44531Q19.3654 0.634766 18.3401 0.366211Q17.3147 0.0976562 16.2893 0.366211Q15.2639 0.634766 14.4533 1.44531L7.2756 8.62305Q6.44552 9.45312 5.9963 10.293Q5.54708 11.1328 5.28829 11.9727Q5.0295 12.8125 4.78536 13.6279Q4.54122 14.4434 4.14083 15.2344Q3.74044 16.0254 2.98849 16.7773ZM5.98654 14.1797Q6.25021 13.4277 6.509 12.666Q6.76779 11.9043 7.18282 11.1475Q7.59786 10.3906 8.32052 9.66797L15.4983 2.49023Q16.0158 1.97266 16.6652 1.80176Q17.3147 1.63086 17.9641 1.80176Q18.6135 1.97266 19.1311 2.48047Q19.6389 2.99805 19.8098 3.64746Q19.9807 4.29688 19.8098 4.94629Q19.6389 5.5957 19.1213 6.11328L11.9436 13.291Q11.2209 14.0234 10.4787 14.4482Q9.73654 14.873 8.99435 15.1514Q8.25216 15.4297 7.51974 15.7129ZM0.439661 19.3164Q-0.00955785 19.7656 0.000207779 20.2637Q0.0099734 20.7617 0.439661 21.1816Q0.859583 21.6113 1.36251 21.6113Q1.86544 21.6113 2.3049 21.1719L2.81271 20.6738L0.937708 18.8184ZM10.6643 10.9766Q11.1037 11.416 11.7336 11.416Q12.3635 11.416 12.8127 10.9668L15.6838 8.07617Q16.1428 7.60742 16.1379 6.9873Q16.133 6.36719 15.6838 5.92773Q15.2346 5.46875 14.6096 5.47852Q13.9846 5.48828 13.5354 5.92773L10.6643 8.80859Q10.2151 9.24805 10.2102 9.8877Q10.2053 10.5273 10.6643 10.9766ZM11.2893 10.3418Q11.094 10.1465 11.094 9.89258Q11.094 9.63867 11.2893 9.43359L14.1604 6.55273Q14.3264 6.38672 14.5559 6.37207Q14.7854 6.35742 14.9709 6.50391Q15.2151 6.67969 15.2395 6.95801Q15.2639 7.23633 15.0588 7.45117L12.1975 10.332Q12.0022 10.5273 11.7336 10.5273Q11.4651 10.5273 11.2893 10.3418ZM8.60372 11.9043L9.70724 12.998Q9.90255 13.1836 10.132 13.1738Q10.3615 13.1641 10.5178 13.0078Q10.6838 12.8418 10.6984 12.6123Q10.7131 12.3828 10.5178 12.1875L9.41427 11.0938Q9.22872 10.918 8.99923 10.9229Q8.76974 10.9277 8.60372 11.0938Q8.44747 11.25 8.43282 11.4893Q8.41818 11.7285 8.60372 11.9043ZM13.9455 2.41211L19.1994 7.66602L19.9514 6.9043L14.6975 1.64062Z" fill="#007aff"/>
 </g>
</svg>
