<?xml version="1.0" encoding="UTF-8"?>
<!--Generator: Apple Native CoreSVG 175-->
<!DOCTYPE svg
PUBLIC "-//W3C//DTD SVG 1.1//EN"
       "http://www.w3.org/Graphics/SVG/1.1/DTD/svg11.dtd">
<svg version="1.1" xmlns="http://www.w3.org/2000/svg" xmlns:xlink="http://www.w3.org/1999/xlink" width="20.4927" height="20.4871">
 <g>
  <rect height="20.4871" opacity="0" width="20.4927" x="0" y="0"/>
  <path d="M0 10.3519Q0 11.9997 0.868149 12.8512Q1.7363 13.7027 3.41995 13.7027L7.18445 13.7027Q8.48877 13.8351 9.88503 14.1071Q11.2813 14.379 12.6383 14.8008Q13.9954 15.2226 15.1854 15.8107Q16.3754 16.3988 17.2646 17.1637L17.2646 16.3071Q16.3457 15.5449 15.1709 14.9777Q13.9961 14.4106 12.6615 14.0179Q11.3269 13.6253 9.9295 13.373Q8.5321 13.1207 7.16797 12.9813L3.41995 12.9813Q2.07001 12.9813 1.39931 12.3236Q0.728607 11.666 0.728607 10.3519L0.728607 8.56522Q0.728607 7.25113 1.39931 6.59706Q2.07001 5.94299 3.41995 5.94299L7.14767 5.94299Q8.51288 5.80353 9.91859 5.54977Q11.3243 5.29602 12.6595 4.89998Q13.9946 4.50394 15.1743 3.94028Q16.3539 3.37662 17.2646 2.61017L17.2646 1.75339Q16.3794 2.51831 15.186 3.10913Q13.9926 3.69995 12.6282 4.12537Q11.2637 4.55078 9.87015 4.81911Q8.47656 5.08743 7.19376 5.21439L3.41995 5.21439Q1.7363 5.21439 0.868149 6.06949Q0 6.92459 0 8.56522ZM8.50159 13.623L7.8215 13.623L8.66409 17.9805Q8.80814 18.7109 8.45131 19.1131Q8.09448 19.5152 7.58713 19.5152Q7.11609 19.5152 6.81877 19.2748Q6.52145 19.0344 6.27975 18.5031L3.99536 13.4726L3.22891 13.4726L5.57419 18.6305Q5.94925 19.4473 6.42128 19.8143Q6.89331 20.1813 7.59537 20.1813Q8.16483 20.1813 8.60352 19.9082Q9.04221 19.6352 9.24553 19.1119Q9.44885 18.5887 9.30389 17.8403ZM6.50742 5.63004L6.50742 13.3011L7.23602 13.3011L7.23602 5.63004ZM16.9844 17.1628Q16.9844 17.6871 17.2041 18.0833Q17.4239 18.4796 17.8166 18.6958Q18.2094 18.912 18.7407 18.912Q19.2676 18.912 19.659 18.6958Q20.0505 18.4796 20.2716 18.0833Q20.4927 17.6871 20.4927 17.1628L20.4927 1.75903Q20.4927 1.23199 20.2716 0.837097Q20.0505 0.4422 19.659 0.2211Q19.2676 0 18.7407 0Q18.2094 0 17.8166 0.2211Q17.4239 0.4422 17.2041 0.837097Q16.9844 1.23199 16.9844 1.75903ZM17.713 17.1628L17.713 1.75903Q17.713 1.28983 17.9936 1.00914Q18.2742 0.728455 18.7407 0.728455Q19.2 0.728455 19.482 1.00914Q19.7641 1.28983 19.7641 1.75903L19.7641 17.1628Q19.7641 17.6222 19.482 17.9064Q19.2 18.1906 18.7407 18.1906Q18.2742 18.1906 17.9936 17.9064Q17.713 17.6222 17.713 17.1628Z" fill="#ffffff"/>
 </g>
</svg>
