<?xml version="1.0" encoding="UTF-8"?>
<!--Generator: Apple Native CoreSVG 175.5-->
<!DOCTYPE svg
PUBLIC "-//W3C//DTD SVG 1.1//EN"
       "http://www.w3.org/Graphics/SVG/1.1/DTD/svg11.dtd">
<svg version="1.1" xmlns="http://www.w3.org/2000/svg" xmlns:xlink="http://www.w3.org/1999/xlink" width="20.9277" height="17.002">
 <g>
  <rect height="17.002" opacity="0" width="20.9277" x="0" y="0"/>
  <path d="M3.06641 15.0879L17.8613 15.0879Q19.3945 15.0879 20.1611 14.3311Q20.9277 13.5742 20.9277 12.0605L20.9277 4.96094Q20.9277 3.44727 20.1611 2.69043Q19.3945 1.93359 17.8613 1.93359L3.06641 1.93359Q1.5332 1.93359 0.766602 2.69043Q0 3.44727 0 4.96094L0 12.0605Q0 13.5742 0.766602 14.3311Q1.5332 15.0879 3.06641 15.0879ZM3.36914 2.57812L4.94141 2.57812L4.94141 0.800781Q4.94141 0.449219 4.72168 0.234375Q4.50195 0.0195312 4.15039 0.0195312Q3.79883 0.0195312 3.58398 0.234375Q3.36914 0.449219 3.36914 0.800781ZM6.52344 2.57812L8.0957 2.57812L8.0957 0.800781Q8.0957 0.449219 7.87598 0.234375Q7.65625 0.0195312 7.30469 0.0195312Q6.95312 0.0195312 6.73828 0.234375Q6.52344 0.449219 6.52344 0.800781ZM9.67773 2.57812L11.25 2.57812L11.25 0.800781Q11.25 0.449219 11.0303 0.234375Q10.8105 0.0195312 10.459 0.0195312Q10.1074 0.0195312 9.89258 0.234375Q9.67773 0.449219 9.67773 0.800781ZM12.832 2.57812L14.4043 2.57812L14.4043 0.800781Q14.4043 0.449219 14.1895 0.234375Q13.9746 0.0195312 13.623 0.0195312Q13.2715 0.0195312 13.0518 0.234375Q12.832 0.449219 12.832 0.800781ZM15.9863 2.57812L17.5586 2.57812L17.5586 0.800781Q17.5586 0.449219 17.3438 0.234375Q17.1289 0.0195312 16.7773 0.0195312Q16.4258 0.0195312 16.2061 0.234375Q15.9863 0.449219 15.9863 0.800781ZM3.36914 14.4629L3.36914 16.2109Q3.36914 16.5625 3.58398 16.7822Q3.79883 17.002 4.15039 17.002Q4.50195 17.002 4.72168 16.7822Q4.94141 16.5625 4.94141 16.2109L4.94141 14.4629ZM6.52344 14.4629L6.52344 16.2109Q6.52344 16.5625 6.73828 16.7822Q6.95312 17.002 7.30469 17.002Q7.65625 17.002 7.87598 16.7822Q8.0957 16.5625 8.0957 16.2109L8.0957 14.4629ZM9.67773 14.4629L9.67773 16.2109Q9.67773 16.5625 9.89258 16.7822Q10.1074 17.002 10.459 17.002Q10.8105 17.002 11.0303 16.7822Q11.25 16.5625 11.25 16.2109L11.25 14.4629ZM12.832 14.4629L12.832 16.2109Q12.832 16.5625 13.0518 16.7822Q13.2715 17.002 13.623 17.002Q13.9746 17.002 14.1895 16.7822Q14.4043 16.5625 14.4043 16.2109L14.4043 14.4629ZM15.9863 14.4629L15.9863 16.2109Q15.9863 16.5625 16.2061 16.7822Q16.4258 17.002 16.7773 17.002Q17.1289 17.002 17.3438 16.7822Q17.5586 16.5625 17.5586 16.2109L17.5586 14.4629Z" fill="#007aff"/>
 </g>
</svg>
