<?xml version="1.0" encoding="UTF-8"?>
<!--Generator: Apple Native CoreSVG 175-->
<!DOCTYPE svg
PUBLIC "-//W3C//DTD SVG 1.1//EN"
       "http://www.w3.org/Graphics/SVG/1.1/DTD/svg11.dtd">
<svg version="1.1" xmlns="http://www.w3.org/2000/svg" xmlns:xlink="http://www.w3.org/1999/xlink" width="15.2539" height="21.7187">
 <g>
  <rect height="21.7187" opacity="0" width="15.2539" x="0" y="0"/>
  <path d="M1.55746 19.763L12.3114 21.6549Q13.2051 21.8165 13.8654 21.5685Q14.5258 21.3205 14.8898 20.701Q15.2539 20.0814 15.2539 19.142L15.2539 7.0454Q15.2539 5.89825 14.6283 5.2908Q14.0027 4.68334 12.7176 4.45049L2.15668 2.58648Q1.4859 2.46929 1.00426 2.62379Q0.522614 2.77828 0.261307 3.17455Q0 3.57083 0 4.18957L0 17.9295Q0 18.7181 0.379486 19.173Q0.758972 19.628 1.55746 19.763ZM3.08319 7.4931Q2.93472 7.46807 2.85431 7.37881Q2.7739 7.28954 2.7739 7.15252Q2.7739 7.00878 2.88109 6.9054Q2.98828 6.80203 3.1781 6.83254L11.5399 8.29983Q11.8547 8.36071 11.8547 8.64041Q11.8547 8.78414 11.748 8.88668Q11.6414 8.98922 11.4418 8.9587ZM3.08319 11.1729Q2.93472 11.1479 2.85431 11.0586Q2.7739 10.9694 2.7739 10.8322Q2.7739 10.6912 2.88109 10.5879Q2.98828 10.4846 3.1781 10.5149L11.5399 11.9822Q11.8547 12.0376 11.8547 12.3201Q11.8547 12.4665 11.748 12.5726Q11.6414 12.6786 11.4418 12.6413ZM3.87192 2.01336L12.8676 3.58914Q13.7888 3.75759 14.4441 4.0997L14.4441 2.78256Q14.4441 1.54202 13.6433 0.978662Q12.8426 0.415308 11.4137 0.675928Z" fill="#007aff"/>
 </g>
</svg>
