<?xml version="1.0" encoding="UTF-8"?>
<!--Generator: Apple Native CoreSVG 175.5-->
<!DOCTYPE svg
PUBLIC "-//W3C//DTD SVG 1.1//EN"
       "http://www.w3.org/Graphics/SVG/1.1/DTD/svg11.dtd">
<svg version="1.1" xmlns="http://www.w3.org/2000/svg" xmlns:xlink="http://www.w3.org/1999/xlink" width="23.0273" height="17.9785">
 <g>
  <rect height="17.9785" opacity="0" width="23.0273" x="0" y="0"/>
  <path d="M1.04492 3.29102L1.04492 4.66797L21.9824 4.66797L21.9824 3.29102ZM3.06641 17.9785L19.9609 17.9785Q21.5039 17.9785 22.2656 17.2217Q23.0273 16.4648 23.0273 14.9609L23.0273 3.02734Q23.0273 1.52344 22.2656 0.761719Q21.5039 0 19.9609 0L3.06641 0Q1.5332 0 0.766602 0.756836Q0 1.51367 0 3.02734L0 14.9609Q0 16.4648 0.766602 17.2217Q1.5332 17.9785 3.06641 17.9785ZM3.08594 16.4062Q2.35352 16.4062 1.96289 16.0205Q1.57227 15.6348 1.57227 14.873L1.57227 3.11523Q1.57227 2.35352 1.96289 1.96289Q2.35352 1.57227 3.08594 1.57227L19.9414 1.57227Q20.6641 1.57227 21.0596 1.96289Q21.4551 2.35352 21.4551 3.11523L21.4551 14.873Q21.4551 15.6348 21.0596 16.0205Q20.6641 16.4062 19.9414 16.4062Z" fill="#007aff"/>
  <path d="M11.5234 14.3164Q11.8359 14.3164 12.0703 14.0918Q12.3047 13.8672 12.3047 13.5547L12.3047 10.332L12.2363 8.69141L13.0762 9.57031L14.3457 10.8398Q14.4629 10.957 14.5996 11.0156Q14.7363 11.0742 14.873 11.0742Q15.1855 11.0742 15.3906 10.8789Q15.5957 10.6836 15.5957 10.3809Q15.5957 10.2148 15.5322 10.083Q15.4688 9.95117 15.3418 9.84375L12.0898 6.81641Q11.7969 6.55273 11.5234 6.55273Q11.25 6.55273 10.957 6.81641L7.70508 9.84375Q7.58789 9.95117 7.51953 10.083Q7.45117 10.2148 7.45117 10.3809Q7.45117 10.6836 7.65137 10.8789Q7.85156 11.0742 8.16406 11.0742Q8.4668 11.0742 8.70117 10.8398L9.9707 9.57031L10.8105 8.69141L10.752 10.332L10.752 13.5547Q10.752 13.8672 10.9814 14.0918Q11.2109 14.3164 11.5234 14.3164Z" fill="#007aff"/>
 </g>
</svg>
