<?xml version="1.0" encoding="UTF-8"?>
<!--Generator: Apple Native CoreSVG 175-->
<!DOCTYPE svg
PUBLIC "-//W3C//DTD SVG 1.1//EN"
       "http://www.w3.org/Graphics/SVG/1.1/DTD/svg11.dtd">
<svg version="1.1" xmlns="http://www.w3.org/2000/svg" xmlns:xlink="http://www.w3.org/1999/xlink" width="19.1602" height="19.1504">
 <g>
  <rect height="19.1504" opacity="0" width="19.1602" x="0" y="0"/>
  <path d="M9.57031 19.1406Q11.5527 19.1406 13.2861 18.3984Q15.0195 17.6562 16.3379 16.333Q17.6562 15.0098 18.4082 13.2764Q19.1602 11.543 19.1602 9.57031Q19.1602 7.59766 18.4082 5.86426Q17.6562 4.13086 16.3379 2.80762Q15.0195 1.48438 13.2861 0.742188Q11.5527 0 9.57031 0Q7.59766 0 5.86426 0.742188Q4.13086 1.48438 2.81738 2.80762Q1.50391 4.13086 0.751953 5.86426Q0 7.59766 0 9.57031Q0 11.543 0.74707 13.2764Q1.49414 15.0098 2.8125 16.333Q4.13086 17.6562 5.86914 18.3984Q7.60742 19.1406 9.57031 19.1406ZM9.57031 18.3984Q7.74414 18.3984 6.14746 17.71Q4.55078 17.0215 3.33496 15.8105Q2.11914 14.5996 1.43555 12.998Q0.751953 11.3965 0.751953 9.57031Q0.751953 7.74414 1.43555 6.14258Q2.11914 4.54102 3.33496 3.3252Q4.55078 2.10938 6.14746 1.4209Q7.74414 0.732422 9.57031 0.732422Q11.4062 0.732422 13.0029 1.4209Q14.5996 2.10938 15.8154 3.3252Q17.0312 4.54102 17.7197 6.14258Q18.4082 7.74414 18.4082 9.57031Q18.4082 11.3965 17.7246 12.998Q17.041 14.5996 15.8252 15.8105Q14.6094 17.0215 13.0078 17.71Q11.4062 18.3984 9.57031 18.3984ZM13.8281 13.9062Q13.9258 13.9941 14.043 13.999Q14.1602 14.0039 14.248 13.9062Q14.3359 13.8086 14.3359 13.6914Q14.3359 13.5742 14.248 13.4863L5.75195 4.99023Q5.66406 4.90234 5.54688 4.90234Q5.42969 4.90234 5.3418 4.99023Q5.24414 5.07812 5.24902 5.19531Q5.25391 5.3125 5.3418 5.41016ZM11.4355 12.207Q10.6934 12.7344 9.57031 12.7344Q8.65234 12.7344 7.9834 12.3828Q7.31445 12.0312 6.95801 11.3867Q6.60156 10.7422 6.60156 9.88281L6.60156 8.85742Q6.60156 8.73047 6.50879 8.6377Q6.41602 8.54492 6.29883 8.54492Q6.17188 8.54492 6.08398 8.6377Q5.99609 8.73047 5.99609 8.85742L5.99609 9.88281Q5.99609 10.8301 6.40625 11.5771Q6.81641 12.3242 7.55371 12.7881Q8.29102 13.252 9.26758 13.3203L9.26758 14.9512L7.23633 14.9512Q7.10938 14.9512 7.02148 15.0439Q6.93359 15.1367 6.93359 15.2637Q6.93359 15.3906 7.02148 15.4785Q7.10938 15.5664 7.23633 15.5664L11.9043 15.5664Q12.0312 15.5664 12.1191 15.4785Q12.207 15.3906 12.207 15.2637Q12.207 15.1367 12.1191 15.0439Q12.0312 14.9512 11.9043 14.9512L9.87305 14.9512L9.87305 13.3203Q11.0059 13.2422 11.8359 12.6074ZM7.93945 8.70117L7.93945 9.69727Q7.93945 10.4395 8.38379 10.9521Q8.82812 11.4648 9.57031 11.4648Q10.0586 11.4648 10.4297 11.2012ZM11.2012 9.74609L11.2012 5.38086Q11.2012 4.62891 10.7568 4.12109Q10.3125 3.61328 9.57031 3.61328Q8.82812 3.61328 8.38379 4.12109Q7.93945 4.62891 7.93945 5.38086L7.93945 6.48438ZM12.832 11.377Q13.1641 10.6738 13.1641 9.88281L13.1641 8.85742Q13.1641 8.73047 13.0713 8.6377Q12.9785 8.54492 12.8516 8.54492Q12.7246 8.54492 12.6367 8.6377Q12.5488 8.73047 12.5488 8.85742L12.5488 9.88281Q12.5488 10.166 12.5049 10.4248Q12.4609 10.6836 12.3633 10.918Z" fill="#000000"/>
 </g>
</svg>
