<?xml version="1.0" encoding="UTF-8"?>
<!--Generator: Apple Native CoreSVG 175.5-->
<!DOCTYPE svg
PUBLIC "-//W3C//DTD SVG 1.1//EN"
       "http://www.w3.org/Graphics/SVG/1.1/DTD/svg11.dtd">
<svg version="1.1" xmlns="http://www.w3.org/2000/svg" xmlns:xlink="http://www.w3.org/1999/xlink" width="13.9746" height="22.0996">
 <g>
  <rect height="22.0996" opacity="0" width="13.9746" x="0" y="0"/>
  <path d="M0 10.2246Q0 12.1387 0.786133 13.623Q1.57227 15.1074 2.97852 16.001Q4.38477 16.8945 6.25 17.0508L6.25 19.3262L2.62695 19.3262Q2.31445 19.3262 2.09961 19.541Q1.88477 19.7559 1.88477 20.0684Q1.88477 20.3711 2.09961 20.5859Q2.31445 20.8008 2.62695 20.8008L11.3477 20.8008Q11.6602 20.8008 11.875 20.5859Q12.0898 20.3711 12.0898 20.0684Q12.0898 19.7559 11.875 19.541Q11.6602 19.3262 11.3477 19.3262L7.72461 19.3262L7.72461 17.0508Q9.58984 16.8945 10.9961 16.001Q12.4023 15.1074 13.1885 13.623Q13.9746 12.1387 13.9746 10.2246L13.9746 8.24219Q13.9746 7.93945 13.7598 7.72461Q13.5449 7.50977 13.2422 7.50977Q12.9297 7.50977 12.7148 7.72461Q12.5 7.93945 12.5 8.24219L12.5 10.166Q12.5 11.8262 11.8164 13.0762Q11.1328 14.3262 9.89746 15.0146Q8.66211 15.7031 6.99219 15.7031Q5.32227 15.7031 4.08203 15.0146Q2.8418 14.3262 2.1582 13.0762Q1.47461 11.8262 1.47461 10.166L1.47461 8.24219Q1.47461 7.93945 1.25977 7.72461Q1.04492 7.50977 0.732422 7.50977Q0.429688 7.50977 0.214844 7.72461Q0 7.93945 0 8.24219ZM6.99219 13.6035Q7.95898 13.6035 8.69629 13.1543Q9.43359 12.7051 9.83887 11.9092Q10.2441 11.1133 10.2441 10.0684L10.2441 3.53516Q10.2441 2.49023 9.83887 1.69434Q9.43359 0.898438 8.69629 0.449219Q7.95898 0 6.99219 0Q6.01562 0 5.2832 0.449219Q4.55078 0.898438 4.14062 1.69434Q3.73047 2.49023 3.73047 3.53516L3.73047 10.0684Q3.73047 11.1133 4.14062 11.9092Q4.55078 12.7051 5.2832 13.1543Q6.01562 13.6035 6.99219 13.6035Z" fill="#ff9f0a"/>
 </g>
</svg>
