<?xml version="1.0" encoding="UTF-8"?>
<!--Generator: Apple Native CoreSVG 175.5-->
<!DOCTYPE svg
PUBLIC "-//W3C//DTD SVG 1.1//EN"
       "http://www.w3.org/Graphics/SVG/1.1/DTD/svg11.dtd">
<svg version="1.1" xmlns="http://www.w3.org/2000/svg" xmlns:xlink="http://www.w3.org/1999/xlink" width="23.1738" height="15.1074">
 <g>
  <rect height="15.1074" opacity="0" width="23.1738" x="0" y="0"/>
  <path d="M2.29492 15.1074L20.8789 15.1074Q21.9141 15.1074 22.5439 14.4775Q23.1738 13.8477 23.1738 12.8125L23.1738 2.30469Q23.1738 1.26953 22.5439 0.639648Q21.9141 0.00976562 20.8789 0.00976562L2.29492 0.00976562Q1.25977 0.00976562 0.629883 0.639648Q0 1.26953 0 2.30469L0 12.8125Q0 13.8477 0.629883 14.4775Q1.25977 15.1074 2.29492 15.1074ZM2.31445 13.5352Q1.98242 13.5352 1.77734 13.3154Q1.57227 13.0957 1.57227 12.7441L1.57227 2.37305Q1.57227 2.02148 1.77734 1.80176Q1.98242 1.58203 2.31445 1.58203L20.8594 1.58203Q21.2012 1.58203 21.4014 1.80176Q21.6016 2.02148 21.6016 2.37305L21.6016 12.7441Q21.6016 13.0957 21.4014 13.3154Q21.2012 13.5352 20.8594 13.5352ZM3.64258 12.3828L13.252 12.3828Q13.6719 12.3828 13.9209 12.1338Q14.1699 11.8848 14.1699 11.4648L14.1699 3.65234Q14.1699 3.23242 13.9209 2.9834Q13.6719 2.73438 13.252 2.73438L3.64258 2.73438Q3.22266 2.73438 2.97363 2.9834Q2.72461 3.23242 2.72461 3.65234L2.72461 11.4648Q2.72461 11.8848 2.97363 12.1338Q3.22266 12.3828 3.64258 12.3828ZM4.07227 11.2988Q3.80859 11.2988 3.80859 11.0352L3.80859 4.08203Q3.80859 3.81836 4.07227 3.81836L12.8223 3.81836Q13.0859 3.81836 13.0859 4.08203L13.0859 11.0352Q13.0859 11.2988 12.8223 11.2988ZM15.4297 14.2676L16.5137 14.2676L16.5137 0.839844L15.4297 0.839844ZM16.0254 11.0254L22.4023 11.0254L22.4023 9.94141L16.0254 9.94141ZM17.6465 4.63867L20.4688 4.63867Q20.5469 4.63867 20.6006 4.58496Q20.6543 4.53125 20.6543 4.46289L20.6543 2.91992Q20.6543 2.8418 20.6006 2.78809Q20.5469 2.73438 20.4688 2.73438L17.6465 2.73438Q17.5781 2.73438 17.5195 2.78809Q17.4609 2.8418 17.4609 2.91992L17.4609 4.46289Q17.4609 4.53125 17.5195 4.58496Q17.5781 4.63867 17.6465 4.63867ZM17.959 6.26953L20.1562 6.26953Q20.3809 6.26953 20.5176 6.13281Q20.6543 5.99609 20.6543 5.78125Q20.6543 5.55664 20.5176 5.41992Q20.3809 5.2832 20.1562 5.2832L17.959 5.2832Q17.7344 5.2832 17.5977 5.41992Q17.4609 5.55664 17.4609 5.78125Q17.4609 5.99609 17.5977 6.13281Q17.7344 6.26953 17.959 6.26953ZM17.959 7.91992L20.1562 7.91992Q20.3809 7.91992 20.5176 7.7832Q20.6543 7.64648 20.6543 7.42188Q20.6543 7.20703 20.5176 7.07031Q20.3809 6.93359 20.1562 6.93359L17.959 6.93359Q17.7344 6.93359 17.5977 7.07031Q17.4609 7.20703 17.4609 7.42188Q17.4609 7.64648 17.5977 7.7832Q17.7344 7.91992 17.959 7.91992Z" fill="#007aff"/>
 </g>
</svg>
