<?xml version="1.0" encoding="UTF-8"?>
<!--Generator: Apple Native CoreSVG 175.5-->
<!DOCTYPE svg
PUBLIC "-//W3C//DTD SVG 1.1//EN"
       "http://www.w3.org/Graphics/SVG/1.1/DTD/svg11.dtd">
<svg version="1.1" xmlns="http://www.w3.org/2000/svg" xmlns:xlink="http://www.w3.org/1999/xlink" width="22.7637" height="14.7168">
 <g>
  <rect height="14.7168" opacity="0" width="22.7637" x="0" y="0"/>
  <path d="M1.96289 14.7168L15.4102 14.7168L15.4102 0.00976562L1.96289 0.00976562Q1.08398 0.00976562 0.541992 0.571289Q0 1.13281 0 2.05078L0 12.6758Q0 13.5938 0.541992 14.1553Q1.08398 14.7168 1.96289 14.7168ZM2.99805 12.3438Q2.55859 12.3438 2.30469 12.085Q2.05078 11.8262 2.05078 11.3965L2.05078 3.33008Q2.05078 2.90039 2.30469 2.6416Q2.55859 2.38281 2.99805 2.38281L12.7148 2.38281Q13.1445 2.38281 13.4033 2.6416Q13.6621 2.90039 13.6621 3.33008L13.6621 11.3965Q13.6621 11.8262 13.4033 12.085Q13.1445 12.3438 12.7148 12.3438ZM3.39844 11.2598L12.3047 11.2598Q12.5781 11.2598 12.5781 10.9961L12.5781 3.73047Q12.5781 3.4668 12.3047 3.4668L3.39844 3.4668Q3.13477 3.4668 3.13477 3.73047L3.13477 10.9961Q3.13477 11.2598 3.39844 11.2598ZM16.4941 10.1562L22.7637 10.1562L22.7637 2.05078Q22.7637 1.13281 22.2217 0.571289Q21.6797 0.00976562 20.8008 0.00976562L16.4941 0.00976562ZM18.1055 4.3457Q18.0273 4.3457 17.9688 4.29199Q17.9102 4.23828 17.9102 4.16016L17.9102 2.57812Q17.9102 2.5 17.9688 2.44141Q18.0273 2.38281 18.1055 2.38281L21.0059 2.38281Q21.084 2.38281 21.1426 2.44141Q21.2012 2.5 21.2012 2.57812L21.2012 4.16016Q21.2012 4.23828 21.1426 4.29199Q21.084 4.3457 21.0059 4.3457ZM18.4277 6.13281Q18.2031 6.13281 18.0566 5.99121Q17.9102 5.84961 17.9102 5.625Q17.9102 5.39062 18.0566 5.24902Q18.2031 5.10742 18.4277 5.10742L20.6836 5.10742Q20.918 5.10742 21.0596 5.24902Q21.2012 5.39062 21.2012 5.625Q21.2012 5.84961 21.0596 5.99121Q20.918 6.13281 20.6836 6.13281ZM18.4277 7.92969Q18.2031 7.92969 18.0566 7.78809Q17.9102 7.64648 17.9102 7.41211Q17.9102 7.1875 18.0566 7.05078Q18.2031 6.91406 18.4277 6.91406L20.6836 6.91406Q20.918 6.91406 21.0596 7.05078Q21.2012 7.1875 21.2012 7.41211Q21.2012 7.64648 21.0596 7.78809Q20.918 7.92969 20.6836 7.92969ZM16.4941 14.7168L20.8008 14.7168Q21.6797 14.7168 22.2217 14.1553Q22.7637 13.5938 22.7637 12.6758L22.7637 11.2402L16.4941 11.2402Z" fill="#007aff"/>
 </g>
</svg>
