<?xml version="1.0" encoding="UTF-8"?>
<!--Generator: Apple Native CoreSVG 175.5-->
<!DOCTYPE svg
PUBLIC "-//W3C//DTD SVG 1.1//EN"
       "http://www.w3.org/Graphics/SVG/1.1/DTD/svg11.dtd">
<svg version="1.1" xmlns="http://www.w3.org/2000/svg" xmlns:xlink="http://www.w3.org/1999/xlink" width="14.0137" height="22.8418">
 <g>
  <rect height="22.8418" opacity="0" width="14.0137" x="0" y="0"/>
  <path d="M0.869141 17.8516Q1.2793 17.8516 1.51855 17.5977Q1.75781 17.3438 1.75781 16.9531L1.75781 9.83398Q1.75781 8.97461 2.03613 8.26172Q2.31445 7.54883 2.83691 7.12891Q3.35938 6.70898 4.0918 6.70898Q5.12695 6.70898 5.625 7.42676Q6.12305 8.14453 6.12305 9.21875L6.12305 16.9531Q6.12305 17.3438 6.35742 17.5977Q6.5918 17.8516 6.99219 17.8516Q7.40234 17.8516 7.6416 17.5977Q7.88086 17.3438 7.88086 16.9531L7.88086 9.63867Q7.88086 8.39844 8.49121 7.55371Q9.10156 6.70898 10.1953 6.70898Q11.2891 6.70898 11.7725 7.44141Q12.2559 8.17383 12.2559 9.375L12.2559 16.9531Q12.2559 17.3438 12.4902 17.5977Q12.7246 17.8516 13.125 17.8516Q13.5352 17.8516 13.7744 17.5977Q14.0137 17.3438 14.0137 16.9531L14.0137 8.98438Q14.0137 7.85156 13.6182 6.9873Q13.2227 6.12305 12.4658 5.63965Q11.709 5.15625 10.6348 5.15625Q9.83398 5.15625 9.17969 5.4541Q8.52539 5.75195 8.08594 6.29883Q7.64648 6.8457 7.4707 7.57812L7.43164 7.57812Q7.19727 6.44531 6.46484 5.80078Q5.73242 5.15625 4.52148 5.15625Q3.41797 5.15625 2.69043 5.80078Q1.96289 6.44531 1.69922 7.5L1.66016 7.5L1.66016 6.08398Q1.66016 5.69336 1.4209 5.44922Q1.18164 5.20508 0.830078 5.20508Q0.458984 5.20508 0.229492 5.44922Q0 5.69336 0 6.08398L0 16.9531Q0 17.3438 0.234375 17.5977Q0.46875 17.8516 0.869141 17.8516ZM1.47461 22.8418Q1.73828 22.8418 1.87988 22.7051Q2.02148 22.5684 2.11914 22.334L10.9863 1.34766Q11.0742 1.16211 11.0742 0.966797Q11.0742 0.703125 10.9033 0.546875Q10.7324 0.390625 10.4688 0.390625Q10.2246 0.390625 10.0781 0.527344Q9.93164 0.664062 9.83398 0.898438L0.966797 21.8945Q0.878906 22.0703 0.878906 22.2754Q0.878906 22.5391 1.0498 22.6904Q1.2207 22.8418 1.47461 22.8418Z" fill="#007aff"/>
 </g>
</svg>
