<?xml version="1.0" encoding="UTF-8"?>
<!--Generator: Apple Native CoreSVG 175-->
<!DOCTYPE svg
PUBLIC "-//W3C//DTD SVG 1.1//EN"
       "http://www.w3.org/Graphics/SVG/1.1/DTD/svg11.dtd">
<svg version="1.1" xmlns="http://www.w3.org/2000/svg" xmlns:xlink="http://www.w3.org/1999/xlink" width="17.5485" height="18.4052">
 <g>
  <rect height="18.4052" opacity="0" width="17.5485" x="0" y="0"/>
  <path d="M0.341797 5.02396L5.5246 5.02396Q5.67001 5.02396 5.7682 4.92569Q5.86639 4.82742 5.86639 4.68475Q5.86639 4.54224 5.7682 4.4426Q5.67001 4.34296 5.5246 4.34296L0.341797 4.34296Q0.196533 4.34296 0.0982666 4.4426Q0 4.54224 0 4.68475Q0 4.82742 0.0982666 4.92569Q0.196533 5.02396 0.341797 5.02396ZM3.16406 18.3911Q3.28171 18.3911 3.36685 18.335Q3.452 18.279 3.54614 18.132L9.05075 9.36447L14.575 0.649719Q14.6306 0.559387 14.6569 0.488739Q14.6832 0.418091 14.6832 0.348816Q14.6832 0.203552 14.5795 0.101776Q14.4759 0 14.3207 0Q14.1864 0 14.1069 0.0603485Q14.0274 0.120697 13.9278 0.275879L8.41919 8.98865L2.90161 17.7359Q2.83905 17.8235 2.81487 17.8991Q2.79068 17.9747 2.79068 18.0536Q2.79068 18.2071 2.89711 18.2991Q3.00354 18.3911 3.16406 18.3911ZM11.682 14.4328Q11.682 14.5753 11.7838 14.6736Q11.8855 14.7719 12.0212 14.7719L14.2761 14.7719L14.2761 17.027Q14.2761 17.1695 14.3744 17.2678Q14.4727 17.366 14.6153 17.366Q14.7578 17.366 14.8575 17.2678Q14.9571 17.1695 14.9571 17.027L14.9571 14.7719L17.2067 14.7719Q17.3492 14.7719 17.4489 14.6736Q17.5485 14.5753 17.5485 14.4328Q17.5485 14.2876 17.4489 14.1893Q17.3492 14.091 17.2067 14.091L14.9571 14.091L14.9571 11.8414Q14.9571 11.6962 14.8575 11.5979Q14.7578 11.4996 14.6153 11.4996Q14.4699 11.4996 14.373 11.5979Q14.2761 11.6962 14.2761 11.8414L14.2761 14.091L12.0212 14.091Q11.8855 14.091 11.7838 14.1893Q11.682 14.2876 11.682 14.4328Z" fill="#007aff"/>
 </g>
</svg>
