<?xml version="1.0" encoding="UTF-8"?>
<!--Generator: Apple Native CoreSVG 175-->
<!DOCTYPE svg
PUBLIC "-//W3C//DTD SVG 1.1//EN"
       "http://www.w3.org/Graphics/SVG/1.1/DTD/svg11.dtd">
<svg version="1.1" xmlns="http://www.w3.org/2000/svg" xmlns:xlink="http://www.w3.org/1999/xlink" width="21.2112" height="21.211">
 <g>
  <rect height="21.211" opacity="0" width="21.2112" x="0" y="0"/>
  <path d="M0.922877 12.4658L8.75491 20.2881Q9.67288 21.2061 10.6201 21.2012Q11.5674 21.1963 12.4658 20.2979L20.2881 12.4561Q21.1963 11.5576 21.211 10.6055Q21.2256 9.65335 20.2979 8.73538L12.4854 0.922877Q11.5576-0.00485725 10.6153 2.55645e-05Q9.67288 0.00490838 8.75491 0.922877L0.913112 8.74514Q-0.00485698 9.66311 2.5835e-05 10.6006Q0.00490865 11.5381 0.922877 12.4658Z" fill="#ff3b30"/>
  <path d="M6.11819 10.9912Q5.95217 10.9912 5.8301 10.8887Q5.70803 10.7862 5.70803 10.6201Q5.70803 10.4444 5.82522 10.3369Q5.94241 10.2295 6.11819 10.2295L15.083 10.2295Q15.2686 10.2295 15.376 10.3369Q15.4834 10.4444 15.4834 10.6201Q15.4834 10.7862 15.3662 10.8887Q15.249 10.9912 15.083 10.9912Z" fill="#ffffff"/>
 </g>
</svg>
