<?xml version="1.0" encoding="UTF-8"?>
<!--Generator: Apple Native CoreSVG 175.5-->
<!DOCTYPE svg
PUBLIC "-//W3C//DTD SVG 1.1//EN"
       "http://www.w3.org/Graphics/SVG/1.1/DTD/svg11.dtd">
<svg version="1.1" xmlns="http://www.w3.org/2000/svg" xmlns:xlink="http://www.w3.org/1999/xlink" width="18.4766" height="18.4473">
 <g>
  <rect height="18.4473" opacity="0" width="18.4766" x="0" y="0"/>
  <path d="M0.693359 5.53711L6.04492 5.53711Q6.33789 5.53711 6.53809 5.33691Q6.73828 5.13672 6.73828 4.85352Q6.73828 4.57031 6.53809 4.36523Q6.33789 4.16016 6.04492 4.16016L0.693359 4.16016Q0.400391 4.16016 0.200195 4.36523Q0 4.57031 0 4.85352Q0 5.13672 0.200195 5.33691Q0.400391 5.53711 0.693359 5.53711ZM3.51562 18.4473Q3.75977 18.4473 3.92578 18.335Q4.0918 18.2227 4.27734 17.9492L10 9.46289L15.5664 1.24023Q15.6641 1.09375 15.708 0.966797Q15.752 0.839844 15.752 0.693359Q15.752 0.400391 15.5322 0.200195Q15.3125 0 15.0098 0Q14.7559 0 14.585 0.102539Q14.4141 0.205078 14.209 0.507812L8.62305 8.79883L2.92969 17.1875Q2.83203 17.3242 2.7832 17.4561Q2.73438 17.5879 2.73438 17.7441Q2.73438 18.0664 2.96387 18.2568Q3.19336 18.4473 3.51562 18.4473ZM11.7383 14.1797Q11.7383 14.4629 11.9385 14.6631Q12.1387 14.8633 12.4219 14.8633L14.4238 14.8633L14.4238 16.8652Q14.4238 17.1484 14.624 17.3486Q14.8242 17.5488 15.1074 17.5488Q15.3906 17.5488 15.5957 17.3486Q15.8008 17.1484 15.8008 16.8652L15.8008 14.8633L17.7832 14.8633Q18.0664 14.8633 18.2715 14.6631Q18.4766 14.4629 18.4766 14.1797Q18.4766 13.8867 18.2715 13.6865Q18.0664 13.4863 17.7832 13.4863L15.8008 13.4863L15.8008 11.5039Q15.8008 11.2109 15.5957 11.0107Q15.3906 10.8105 15.1074 10.8105Q14.8145 10.8105 14.6191 11.0107Q14.4238 11.2109 14.4238 11.5039L14.4238 13.4863L12.4219 13.4863Q12.1387 13.4863 11.9385 13.6865Q11.7383 13.8867 11.7383 14.1797Z" fill="#007aff"/>
 </g>
</svg>
