<?xml version="1.0" encoding="UTF-8"?>
<!--Generator: Apple Native CoreSVG 175-->
<!DOCTYPE svg
PUBLIC "-//W3C//DTD SVG 1.1//EN"
       "http://www.w3.org/Graphics/SVG/1.1/DTD/svg11.dtd">
<svg version="1.1" xmlns="http://www.w3.org/2000/svg" xmlns:xlink="http://www.w3.org/1999/xlink" width="19.1602" height="19.1504">
 <g>
  <rect height="19.1504" opacity="0" width="19.1602" x="0" y="0"/>
  <path d="M9.57031 19.1504Q11.5527 19.1504 13.2861 18.4082Q15.0195 17.666 16.3379 16.3428Q17.6562 15.0195 18.4082 13.2861Q19.1602 11.5527 19.1602 9.58008Q19.1602 7.60742 18.4082 5.87402Q17.6562 4.14062 16.3379 2.81738Q15.0195 1.49414 13.2861 0.751953Q11.5527 0.00976562 9.57031 0.00976562Q7.59766 0.00976562 5.86426 0.751953Q4.13086 1.49414 2.81738 2.81738Q1.50391 4.14062 0.751953 5.87402Q0 7.60742 0 9.58008Q0 11.5527 0.74707 13.2861Q1.49414 15.0195 2.8125 16.3428Q4.13086 17.666 5.86914 18.4082Q7.60742 19.1504 9.57031 19.1504Z" fill="#5856d6"/>
  <path d="M9.74609 15.3027Q8.56445 15.3027 7.54395 14.8779Q6.52344 14.4531 5.76172 13.6963Q5 12.9395 4.57031 11.9287Q4.14062 10.918 4.14062 9.74609Q4.14062 8.59375 4.55566 7.50488Q4.9707 6.41602 5.72754 5.59082Q6.48438 4.76562 7.5 4.42383Q7.54883 4.4043 7.58789 4.39453Q7.62695 4.38477 7.65625 4.38477Q7.77344 4.38477 7.84668 4.45801Q7.91992 4.53125 7.91992 4.63867Q7.91992 4.66797 7.91016 4.70703Q7.90039 4.74609 7.88086 4.79492Q7.73438 5.22461 7.6416 5.72266Q7.54883 6.2207 7.54883 6.85547Q7.54883 8.35938 8.19336 9.50684Q8.83789 10.6543 9.98047 11.2988Q11.123 11.9434 12.627 11.9434Q13.2227 11.9434 13.7744 11.8604Q14.3262 11.7773 14.6387 11.6309Q14.6875 11.6113 14.7461 11.6113Q14.8535 11.6113 14.9268 11.6895Q15 11.7676 15 11.875Q15 11.9043 15 11.9482Q15 11.9922 14.9805 12.0312Q14.6582 12.9688 13.8574 13.7061Q13.0566 14.4434 11.9775 14.873Q10.8984 15.3027 9.74609 15.3027Z" fill="#ffffff"/>
 </g>
</svg>
