<?xml version="1.0" encoding="UTF-8"?>
<!--Generator: Apple Native CoreSVG 175.5-->
<!DOCTYPE svg
PUBLIC "-//W3C//DTD SVG 1.1//EN"
       "http://www.w3.org/Graphics/SVG/1.1/DTD/svg11.dtd">
<svg version="1.1" xmlns="http://www.w3.org/2000/svg" xmlns:xlink="http://www.w3.org/1999/xlink" width="19.9219" height="19.9316">
 <g>
  <rect height="19.9316" opacity="0" width="19.9219" x="0" y="0"/>
  <path d="M19.9219 9.96094Q19.9219 7.91992 19.1406 6.11816Q18.3594 4.31641 16.9873 2.93945Q15.6152 1.5625 13.8135 0.78125Q12.0117 0 9.9707 0Q7.92969 0 6.12793 0.78125Q4.32617 1.5625 2.94434 2.93945Q1.5625 4.31641 0.78125 6.11816Q0 7.91992 0 9.96094Q0 12.002 0.78125 13.8037Q1.5625 15.6055 2.93945 16.9824Q4.31641 18.3594 6.11816 19.1406Q7.91992 19.9219 9.96094 19.9219Q12.002 19.9219 13.8037 19.1406Q15.6055 18.3594 16.9824 16.9824Q18.3594 15.6055 19.1406 13.8037Q19.9219 12.002 19.9219 9.96094ZM18.252 9.96094Q18.252 11.5625 17.6953 12.9785Q17.1387 14.3945 16.1426 15.5029Q15.1465 16.6113 13.8135 17.3145Q12.4805 18.0176 10.9277 18.1934Q9.55078 17.3633 8.58398 16.1426Q7.61719 14.9219 7.11426 13.3643Q6.61133 11.8066 6.61133 9.96094Q6.61133 8.125 7.11914 6.5625Q7.62695 5 8.59863 3.7793Q9.57031 2.55859 10.9766 1.72852Q12.5195 1.91406 13.8428 2.6123Q15.166 3.31055 16.1572 4.41895Q17.1484 5.52734 17.7002 6.94336Q18.252 8.35938 18.252 9.96094Z" fill="#007aff"/>
 </g>
</svg>
