<?xml version="1.0" encoding="UTF-8"?>
<!--Generator: Apple Native CoreSVG 175-->
<!DOCTYPE svg
PUBLIC "-//W3C//DTD SVG 1.1//EN"
       "http://www.w3.org/Graphics/SVG/1.1/DTD/svg11.dtd">
<svg version="1.1" xmlns="http://www.w3.org/2000/svg" xmlns:xlink="http://www.w3.org/1999/xlink" width="17.9013" height="21.9904">
 <g>
  <rect height="21.9904" opacity="0" width="17.9013" x="0" y="0"/>
  <path d="M7.96371 20.9439Q9.6962 20.9439 11.1649 20.4232Q12.6337 19.9025 13.7432 18.9197Q14.8528 17.9369 15.5 16.5356Q15.6755 16.1505 15.4865 15.9517Q15.3082 15.7524 14.9353 15.8887Q14.3369 16.116 13.647 16.2508Q12.9572 16.3857 12.072 16.3857Q9.80164 16.3857 8.13423 15.501Q6.46683 14.6164 5.56137 12.953Q4.65591 11.2895 4.65591 8.95279Q4.65591 8.20709 4.79187 7.42348Q4.92783 6.63986 5.24231 5.97748Q5.42862 5.58365 5.21957 5.36102Q4.99817 5.12863 4.52194 5.36026Q3.18954 6.04034 2.17056 7.16354Q1.15158 8.28674 0.57579 9.75143Q0 11.2161 0 12.9329Q0 14.6216 0.551987 16.0755Q1.10397 17.5294 2.1489 18.6222Q3.19382 19.715 4.66293 20.3294Q6.13205 20.9439 7.96371 20.9439ZM13.5036 3.81027L11.1533 3.81027L11.1533 3.76144L13.4918 0.742188Q13.5962 0.607452 13.6505 0.519943Q13.7048 0.432434 13.7048 0.326538Q13.7048 0.172272 13.5929 0.0861359Q13.481 0 13.3142 0L10.5618 0Q10.4286 0 10.3419 0.0839996Q10.2551 0.167999 10.2551 0.28717Q10.2551 0.409088 10.3419 0.496597Q10.4286 0.584106 10.5618 0.584106L12.8062 0.584106L12.8062 0.632935L10.4665 3.65631Q10.3621 3.78403 10.3127 3.87016Q10.2634 3.9563 10.2634 4.06769Q10.2634 4.22623 10.3725 4.3116Q10.4817 4.39697 10.6415 4.39697L13.5036 4.39697Q13.6368 4.39697 13.7235 4.31297Q13.8103 4.22897 13.8103 4.10431Q13.8103 3.98514 13.7235 3.89771Q13.6368 3.81027 13.5036 3.81027ZM17.6028 7.33246L15.6888 7.33246L15.6888 7.28638L17.5981 4.84375Q17.6997 4.71451 17.7492 4.62837Q17.7986 4.54224 17.7986 4.43634Q17.7986 4.2778 17.6894 4.19304Q17.5801 4.10828 17.4258 4.10828L15.1176 4.10828Q14.9899 4.10828 14.9059 4.19441Q14.8219 4.28055 14.8219 4.39697Q14.8219 4.52316 14.9059 4.60579Q14.9899 4.68842 15.1176 4.68842L16.9177 4.68842L16.9177 4.7345L15.0278 7.18124Q14.9263 7.30087 14.8782 7.38701Q14.8302 7.47314 14.8302 7.58438Q14.8302 7.73758 14.9366 7.82372Q15.043 7.90985 15.1973 7.90985L17.6028 7.90985Q17.7403 7.90985 17.8208 7.8286Q17.9013 7.74734 17.9013 7.62115Q17.9013 7.33246 17.6028 7.33246ZM13.6267 10.3841L12.0595 10.3841L12.0595 10.331L13.6192 8.34305Q13.7137 8.21381 13.7653 8.13034Q13.8168 8.04688 13.8168 7.94388Q13.8168 7.78519 13.709 7.70317Q13.6012 7.62115 13.4427 7.62115L11.4978 7.62115Q11.3657 7.62115 11.2865 7.70592Q11.2074 7.79068 11.2074 7.90161Q11.2074 8.0278 11.2865 8.10768Q11.3657 8.18756 11.4978 8.18756L12.9579 8.18756L12.9579 8.24066L11.4107 10.2258Q11.3091 10.3595 11.2589 10.4394Q11.2086 10.5193 11.2086 10.6277Q11.2086 10.7782 11.3159 10.863Q11.4232 10.9477 11.5747 10.9477L13.6267 10.9477Q13.7614 10.9477 13.8427 10.8643Q13.924 10.7809 13.924 10.6645Q13.924 10.3841 13.6267 10.3841Z" fill="#000000"/>
 </g>
</svg>
