<?xml version="1.0" encoding="UTF-8"?>
<!--Generator: Apple Native CoreSVG 175-->
<!DOCTYPE svg
PUBLIC "-//W3C//DTD SVG 1.1//EN"
       "http://www.w3.org/Graphics/SVG/1.1/DTD/svg11.dtd">
<svg version="1.1" xmlns="http://www.w3.org/2000/svg" xmlns:xlink="http://www.w3.org/1999/xlink" width="19.1266" height="22.5888">
 <g>
  <rect height="22.5888" opacity="0" width="19.1266" x="0" y="0"/>
  <path d="M1.09924 8.84415L18.0203 8.84415Q18.4085 8.84415 18.6411 8.66821Q18.8737 8.49228 18.947 8.22289Q19.0202 7.95349 18.9298 7.66388Q18.8394 7.37427 18.5648 7.14966L10.4778 0.393372Q10.0015 0 9.5562 0Q9.11087 0 8.62778 0.393372L0.554657 7.14966Q0.280151 7.37427 0.189667 7.66388Q0.0991821 7.95349 0.172424 8.22289Q0.245667 8.49228 0.478287 8.66821Q0.710907 8.84415 1.09924 8.84415ZM1.46652 8.16254Q1.18515 8.16254 1.1145 7.92328Q1.04385 7.68402 1.27197 7.48947L9.12231 0.903625Q9.33121 0.725098 9.5562 0.726471Q9.78119 0.727844 9.98047 0.903625L17.8476 7.48947Q18.0757 7.68402 18.005 7.92328Q17.9343 8.16254 17.653 8.16254ZM0.373077 11.6611L18.7605 11.6611Q18.9098 11.6611 19.0182 11.5513Q19.1266 11.4415 19.1266 11.2895Q19.1266 11.1375 19.0182 11.0229Q18.9098 10.9082 18.7605 10.9082L0.373077 10.9082Q0.223846 10.9082 0.111923 11.0229Q0 11.1375 0 11.2895Q0 11.4415 0.111923 11.5513Q0.223846 11.6611 0.373077 11.6611ZM1.09924 13.7279Q0.710907 13.7279 0.478287 13.9059Q0.245667 14.084 0.172424 14.3513Q0.0991821 14.6185 0.189667 14.9068Q0.280151 15.195 0.554657 15.4224L8.62778 22.1786Q9.11087 22.579 9.5562 22.579Q10.0015 22.579 10.4778 22.1786L18.5648 15.4224Q18.8394 15.195 18.9298 14.9068Q19.0202 14.6185 18.947 14.3513Q18.8737 14.084 18.6411 13.9059Q18.4085 13.7279 18.0203 13.7279ZM1.46652 14.4095L17.653 14.4095Q17.9343 14.4095 18.005 14.6523Q18.0757 14.895 17.8476 15.0896L9.98047 21.6754Q9.78119 21.8442 9.5562 21.8456Q9.33121 21.8469 9.12231 21.6754L1.27197 15.0896Q1.04385 14.895 1.1145 14.6523Q1.18515 14.4095 1.46652 14.4095Z" fill="#000000"/>
 </g>
</svg>
