<?xml version="1.0" encoding="UTF-8"?>
<!--Generator: Apple Native CoreSVG 175.5-->
<!DOCTYPE svg
PUBLIC "-//W3C//DTD SVG 1.1//EN"
       "http://www.w3.org/Graphics/SVG/1.1/DTD/svg11.dtd">
<svg version="1.1" xmlns="http://www.w3.org/2000/svg" xmlns:xlink="http://www.w3.org/1999/xlink" width="19.9219" height="19.9316">
 <g>
  <rect height="19.9316" opacity="0" width="19.9219" x="0" y="0"/>
  <path d="M9.96094 19.9219Q12.002 19.9219 13.8037 19.1406Q15.6055 18.3594 16.9824 16.9824Q18.3594 15.6055 19.1406 13.8037Q19.9219 12.002 19.9219 9.96094Q19.9219 7.91992 19.1406 6.11816Q18.3594 4.31641 16.9824 2.93945Q15.6055 1.5625 13.7988 0.78125Q11.9922 0 9.95117 0Q7.91016 0 6.1084 0.78125Q4.30664 1.5625 2.93457 2.93945Q1.5625 4.31641 0.78125 6.11816Q0 7.91992 0 9.96094Q0 12.002 0.78125 13.8037Q1.5625 15.6055 2.93945 16.9824Q4.31641 18.3594 6.11816 19.1406Q7.91992 19.9219 9.96094 19.9219ZM9.96094 18.2617Q8.23242 18.2617 6.72852 17.6172Q5.22461 16.9727 4.08691 15.835Q2.94922 14.6973 2.30957 13.1934Q1.66992 11.6895 1.66992 9.96094Q1.66992 8.23242 2.30957 6.72852Q2.94922 5.22461 4.08203 4.08203Q5.21484 2.93945 6.71875 2.2998Q8.22266 1.66016 9.95117 1.66016Q11.6797 1.66016 13.1885 2.2998Q14.6973 2.93945 15.835 4.08203Q16.9727 5.22461 17.6172 6.72852Q18.2617 8.23242 18.2617 9.96094Q18.2617 11.6895 17.6221 13.1934Q16.9824 14.6973 15.8398 15.835Q14.6973 16.9727 13.1934 17.6172Q11.6895 18.2617 9.96094 18.2617Z" fill="#007aff"/>
  <path d="M7.01172 14.4336Q7.35352 14.4336 7.55371 14.2285Q7.75391 14.0234 7.75391 13.6523L7.75391 7.96875L7.80273 7.96875L12.0703 13.9648Q12.2656 14.2383 12.4365 14.3359Q12.6074 14.4336 12.8418 14.4336Q13.2031 14.4336 13.4082 14.2236Q13.6133 14.0137 13.6133 13.623L13.6133 6.08398Q13.6133 5.71289 13.418 5.50781Q13.2227 5.30273 12.8809 5.30273Q12.5391 5.30273 12.3486 5.51758Q12.1582 5.73242 12.1582 6.08398L12.1582 11.875L12.0898 11.875L7.83203 5.77148Q7.64648 5.50781 7.46582 5.40527Q7.28516 5.30273 7.04102 5.30273Q6.68945 5.30273 6.48926 5.52734Q6.28906 5.75195 6.28906 6.12305L6.28906 13.6523Q6.28906 14.0137 6.47949 14.2236Q6.66992 14.4336 7.01172 14.4336Z" fill="#007aff"/>
 </g>
</svg>
