<?xml version="1.0" encoding="UTF-8"?>
<!--Generator: Apple Native CoreSVG 175-->
<!DOCTYPE svg
PUBLIC "-//W3C//DTD SVG 1.1//EN"
       "http://www.w3.org/Graphics/SVG/1.1/DTD/svg11.dtd">
<svg version="1.1" xmlns="http://www.w3.org/2000/svg" xmlns:xlink="http://www.w3.org/1999/xlink" width="17.2852" height="17.3145">
 <g>
  <rect height="17.3145" opacity="0" width="17.2852" x="0" y="0"/>
  <path d="M2.62695 17.3145L14.6484 17.3145Q15.957 17.3145 16.6211 16.6455Q17.2852 15.9766 17.2852 14.6875L17.2852 2.65625Q17.2852 1.37695 16.6211 0.703125Q15.957 0.0292969 14.6484 0.0292969L2.62695 0.0292969Q1.33789 0.0292969 0.668945 0.693359Q0 1.35742 0 2.65625L0 14.6875Q0 15.9863 0.668945 16.6504Q1.33789 17.3145 2.62695 17.3145Z" fill="#ffffff"/>
  <path d="M5.67383 13.0762Q5.50781 13.0762 5.41016 12.9736Q5.3125 12.8711 5.3125 12.6953L5.3125 4.73633Q5.3125 4.47266 5.43945 4.34082Q5.56641 4.20898 5.79102 4.20898Q5.9668 4.20898 6.0791 4.28223Q6.19141 4.35547 6.30859 4.52148L11.1914 11.8945L11.2402 11.8945L11.2402 4.58008Q11.2402 4.4043 11.3379 4.30664Q11.4355 4.20898 11.6016 4.20898Q11.7676 4.20898 11.8701 4.30664Q11.9727 4.4043 11.9727 4.58008L11.9727 12.5977Q11.9727 12.8223 11.8408 12.9492Q11.709 13.0762 11.4844 13.0762Q11.3281 13.0762 11.2158 13.0127Q11.1035 12.9492 10.9766 12.7637L6.08398 5.41016L6.04492 5.41016L6.04492 12.6953Q6.04492 12.8809 5.94238 12.9785Q5.83984 13.0762 5.67383 13.0762Z" fill="#ffffff"/>
 </g>
</svg>
