<?xml version="1.0" encoding="UTF-8"?>
<!--Generator: Apple Native CoreSVG 175-->
<!DOCTYPE svg
PUBLIC "-//W3C//DTD SVG 1.1//EN"
       "http://www.w3.org/Graphics/SVG/1.1/DTD/svg11.dtd">
<svg version="1.1" xmlns="http://www.w3.org/2000/svg" xmlns:xlink="http://www.w3.org/1999/xlink" width="17.2852" height="17.3145">
 <g>
  <rect height="17.3145" opacity="0" width="17.2852" x="0" y="0"/>
  <path d="M2.62695 17.3145L14.6484 17.3145Q15.957 17.3145 16.6211 16.6455Q17.2852 15.9766 17.2852 14.6875L17.2852 2.65625Q17.2852 1.37695 16.6211 0.703125Q15.957 0.0292969 14.6484 0.0292969L2.62695 0.0292969Q1.33789 0.0292969 0.668945 0.693359Q0 1.35742 0 2.65625L0 14.6875Q0 15.9863 0.668945 16.6504Q1.33789 17.3145 2.62695 17.3145ZM2.65625 16.5918Q1.70898 16.5918 1.2207 16.1035Q0.732422 15.6152 0.732422 14.6582L0.732422 2.69531Q0.732422 1.72852 1.2207 1.24512Q1.70898 0.761719 2.65625 0.761719L14.6289 0.761719Q15.5566 0.761719 16.0596 1.24512Q16.5625 1.72852 16.5625 2.69531L16.5625 14.6582Q16.5625 15.6152 16.0596 16.1035Q15.5566 16.5918 14.6289 16.5918ZM5.69336 13.0469Q5.86914 13.0469 5.96191 12.9492Q6.05469 12.8516 6.05469 12.6758L6.05469 5.41992L6.10352 5.41992L10.9668 12.7344Q11.0938 12.9199 11.2012 12.9834Q11.3086 13.0469 11.4746 13.0469Q11.6895 13.0469 11.8164 12.9199Q11.9434 12.793 11.9434 12.5684L11.9434 4.60938Q11.9434 4.43359 11.8506 4.33105Q11.7578 4.22852 11.582 4.22852Q11.416 4.22852 11.3232 4.33105Q11.2305 4.43359 11.2305 4.60938L11.2305 11.8848L11.1816 11.8848L6.32812 4.55078Q6.21094 4.375 6.09863 4.30176Q5.98633 4.22852 5.82031 4.22852Q5.5957 4.22852 5.46875 4.36523Q5.3418 4.50195 5.3418 4.76562L5.3418 12.6758Q5.3418 12.8418 5.43457 12.9443Q5.52734 13.0469 5.69336 13.0469Z" fill="#007aff"/>
 </g>
</svg>
