<?xml version="1.0" encoding="UTF-8"?>
<!--Generator: Apple Native CoreSVG 175-->
<!DOCTYPE svg
PUBLIC "-//W3C//DTD SVG 1.1//EN"
       "http://www.w3.org/Graphics/SVG/1.1/DTD/svg11.dtd">
<svg version="1.1" xmlns="http://www.w3.org/2000/svg" xmlns:xlink="http://www.w3.org/1999/xlink" width="17.2852" height="17.3145">
 <g>
  <rect height="17.3145" opacity="0" width="17.2852" x="0" y="0"/>
  <path d="M2.62695 17.3145L14.6484 17.3145Q15.957 17.3145 16.6211 16.6455Q17.2852 15.9766 17.2852 14.6875L17.2852 2.65625Q17.2852 1.37695 16.6211 0.703125Q15.957 0.0292969 14.6484 0.0292969L2.62695 0.0292969Q1.33789 0.0292969 0.668945 0.693359Q0 1.35742 0 2.65625L0 14.6875Q0 15.9863 0.668945 16.6504Q1.33789 17.3145 2.62695 17.3145Z" fill="#007aff"/>
  <path d="M5.19531 8.84766Q5.19531 8.7207 5.2832 8.63281Q5.37109 8.54492 5.51758 8.54492L5.9668 8.54492L5.9668 4.85352Q5.9668 4.66797 6.0791 4.55566Q6.19141 4.44336 6.36719 4.44336Q6.52344 4.44336 6.63086 4.5166Q6.73828 4.58984 6.80664 4.72656L8.88672 8.54492L10.6641 8.54492L10.6641 4.78516Q10.6641 4.62891 10.7617 4.53613Q10.8594 4.44336 10.9961 4.44336Q11.1426 4.44336 11.2402 4.53613Q11.3379 4.62891 11.3379 4.78516L11.3379 8.54492L11.7969 8.54492Q11.9434 8.54492 12.0264 8.62793Q12.1094 8.71094 12.1094 8.84766Q12.1094 8.96484 12.0264 9.05762Q11.9434 9.15039 11.7969 9.15039L11.3379 9.15039L11.3379 12.7246Q11.3379 12.9102 11.2256 13.0225Q11.1133 13.1348 10.9375 13.1348Q10.7812 13.1348 10.6787 13.0615Q10.5762 12.9883 10.498 12.8516L8.4668 9.14062L6.64062 9.14062L6.64062 12.793Q6.64062 12.959 6.54297 13.0518Q6.44531 13.1445 6.30859 13.1445Q6.17188 13.1445 6.06934 13.0518Q5.9668 12.959 5.9668 12.793L5.9668 9.14062L5.51758 9.14062Q5.37109 9.14062 5.2832 9.05762Q5.19531 8.97461 5.19531 8.84766ZM6.64062 8.54492L8.1543 8.54492L6.64062 5.77148ZM9.20898 9.15039L10.6641 11.8164L10.6641 9.15039Z" fill="#ffffff"/>
 </g>
</svg>
