<?xml version="1.0" encoding="UTF-8"?>
<!--Generator: Apple Native CoreSVG 175-->
<!DOCTYPE svg
PUBLIC "-//W3C//DTD SVG 1.1//EN"
       "http://www.w3.org/Graphics/SVG/1.1/DTD/svg11.dtd">
<svg version="1.1" xmlns="http://www.w3.org/2000/svg" xmlns:xlink="http://www.w3.org/1999/xlink" width="19.1602" height="19.1504">
 <g>
  <rect height="19.1504" opacity="0" width="19.1602" x="0" y="0"/>
  <path d="M9.57031 19.1406Q11.5527 19.1406 13.2861 18.3984Q15.0195 17.6562 16.3379 16.333Q17.6562 15.0098 18.4082 13.2764Q19.1602 11.543 19.1602 9.57031Q19.1602 7.59766 18.4082 5.86426Q17.6562 4.13086 16.3379 2.80762Q15.0195 1.48438 13.2861 0.742188Q11.5527 0 9.57031 0Q7.59766 0 5.86426 0.742188Q4.13086 1.48438 2.81738 2.80762Q1.50391 4.13086 0.751953 5.86426Q0 7.59766 0 9.57031Q0 11.543 0.74707 13.2764Q1.49414 15.0098 2.8125 16.333Q4.13086 17.6562 5.86914 18.3984Q7.60742 19.1406 9.57031 19.1406Z" fill="#000000"/>
  <path d="M6.12305 9.76562Q6.12305 9.63867 6.21094 9.55078Q6.29883 9.46289 6.44531 9.46289L6.89453 9.46289L6.89453 5.77148Q6.89453 5.58594 7.00684 5.47363Q7.11914 5.36133 7.29492 5.36133Q7.45117 5.36133 7.55859 5.43457Q7.66602 5.50781 7.73438 5.64453L9.81445 9.46289L11.5918 9.46289L11.5918 5.70312Q11.5918 5.54688 11.6895 5.4541Q11.7871 5.36133 11.9238 5.36133Q12.0703 5.36133 12.168 5.4541Q12.2656 5.54688 12.2656 5.70312L12.2656 9.46289L12.7246 9.46289Q12.8711 9.46289 12.9541 9.5459Q13.0371 9.62891 13.0371 9.76562Q13.0371 9.88281 12.9541 9.97559Q12.8711 10.0684 12.7246 10.0684L12.2656 10.0684L12.2656 13.6426Q12.2656 13.8281 12.1533 13.9404Q12.041 14.0527 11.8652 14.0527Q11.709 14.0527 11.6064 13.9795Q11.5039 13.9062 11.4258 13.7695L9.39453 10.0586L7.56836 10.0586L7.56836 13.7109Q7.56836 13.877 7.4707 13.9697Q7.37305 14.0625 7.23633 14.0625Q7.09961 14.0625 6.99707 13.9697Q6.89453 13.877 6.89453 13.7109L6.89453 10.0586L6.44531 10.0586Q6.29883 10.0586 6.21094 9.97559Q6.12305 9.89258 6.12305 9.76562ZM7.56836 9.46289L9.08203 9.46289L7.56836 6.68945ZM10.1367 10.0684L11.5918 12.7344L11.5918 10.0684Z" fill="#ffffff"/>
 </g>
</svg>
