<?xml version="1.0" encoding="UTF-8"?>
<!--Generator: Apple Native CoreSVG 175-->
<!DOCTYPE svg
PUBLIC "-//W3C//DTD SVG 1.1//EN"
       "http://www.w3.org/Graphics/SVG/1.1/DTD/svg11.dtd">
<svg version="1.1" xmlns="http://www.w3.org/2000/svg" xmlns:xlink="http://www.w3.org/1999/xlink" width="19.1554" height="19.1583">
 <g>
  <rect height="19.1583" opacity="0" width="19.1554" x="0" y="0"/>
  <path d="M1.05896 5.63751Q2.44568 6.74805 4.06425 7.52617Q5.68283 8.30429 7.47482 8.70766Q9.26682 9.11102 11.1578 9.08997Q13.1628 9.06616 15.0272 8.55209Q16.8915 8.03802 18.5349 7.1048L18.2945 6.48911Q16.7105 7.40433 14.9035 7.91153Q13.0965 8.41873 11.1508 8.44971Q8.37738 8.49457 5.85762 7.58209Q3.33786 6.66962 1.33163 5.02426ZM0.358582 10.7637Q2.25586 12.3357 4.46114 13.2729Q6.66641 14.2102 9.01741 14.4942Q11.3684 14.7781 13.7118 14.4048Q16.0551 14.0314 18.2242 12.9915L18.2933 12.2231Q16.1363 13.327 13.7801 13.7338Q11.4238 14.1406 9.05998 13.8531Q6.69617 13.5657 4.48639 12.5893Q2.27661 11.613 0.412445 9.94888ZM4.89304 17.4165L5.6778 17.7106Q5.44968 17.1126 5.29495 16.4911Q5.14023 15.8696 5.05753 15.2231Q4.52698 12.3976 5.00298 9.68086Q5.47897 6.96411 6.80672 4.58733Q8.13446 2.21054 10.1614 0.405884L9.39651 0.23407Q7.40311 2.10663 6.11603 4.5256Q4.82895 6.94458 4.37325 9.69238Q3.91754 12.4402 4.42429 15.3058Q4.48593 15.8449 4.60663 16.375Q4.72733 16.9051 4.89304 17.4165ZM11.3637 18.5379L11.9962 18.3238Q10.7344 16.4114 10.042 14.171Q9.34967 11.9305 9.34967 9.50272Q9.34967 7.09381 10.0259 4.88052Q10.7021 2.66724 11.9493 0.7724L11.3524 0.502777Q10.0813 2.46567 9.39186 4.75121Q8.70239 7.03674 8.70239 9.50272Q8.70239 11.9829 9.39537 14.2772Q10.0883 16.5715 11.3637 18.5379ZM17.2351 14.7997L17.5903 14.2738Q16.0199 13.3926 14.8271 12.0364Q13.6343 10.6801 12.933 8.98399Q12.2316 7.2879 12.1391 5.37384Q12.0871 4.24301 12.2664 3.14575Q12.4457 2.04849 12.838 1.04065L12.2226 0.845032Q11.8179 1.90552 11.6289 3.05145Q11.4398 4.19739 11.4989 5.40466Q11.5843 7.41455 12.3226 9.20494Q13.0609 10.9953 14.3219 12.4264Q15.5829 13.8574 17.2351 14.7997ZM5.18127 9.05716Q5.70084 9.05716 6.07834 8.67821Q6.45584 8.29926 6.45584 7.76993Q6.45584 7.24075 6.07834 6.86668Q5.70084 6.49261 5.18127 6.49261Q4.6492 6.49261 4.2717 6.86668Q3.8942 7.24075 3.8942 7.76993Q3.8942 8.29926 4.2717 8.67821Q4.6492 9.05716 5.18127 9.05716ZM12.6337 9.98718Q13.1152 9.98718 13.4633 9.63425Q13.8113 9.28131 13.8113 8.78983Q13.8113 8.30826 13.4633 7.9567Q13.1152 7.60513 12.6337 7.60513Q12.1324 7.60513 11.7844 7.9567Q11.4363 8.30826 11.4363 8.78983Q11.4363 9.28131 11.7844 9.63425Q12.1324 9.98718 12.6337 9.98718ZM9.94843 15.5684Q10.482 15.5684 10.849 15.2014Q11.216 14.8344 11.216 14.3051Q11.216 13.7758 10.849 13.4088Q10.482 13.0418 9.94843 13.0418Q9.41635 13.0418 9.04938 13.4088Q8.6824 13.7758 8.6824 14.3051Q8.6824 14.8344 9.04938 15.2014Q9.41635 15.5684 9.94843 15.5684ZM9.57428 19.1486Q11.552 19.1486 13.2834 18.4024Q15.0148 17.6562 16.3355 16.3356Q17.6562 15.015 18.4058 13.28Q19.1554 11.545 19.1554 9.57428Q19.1554 7.60361 18.4058 5.86861Q17.6562 4.13361 16.3355 2.81296Q15.0148 1.49231 13.282 0.746155Q11.5492 0 9.57153 0Q7.60086 0 5.86586 0.746155Q4.13086 1.49231 2.81502 2.81296Q1.49918 4.13361 0.749588 5.86861Q0 7.60361 0 9.57428Q0 11.545 0.746078 13.28Q1.49216 15.015 2.81288 16.3356Q4.13361 17.6562 5.86853 18.4024Q7.60345 19.1486 9.57428 19.1486ZM9.57428 18.4743Q7.73636 18.4743 6.12465 17.7815Q4.51294 17.0888 3.28636 15.8622Q2.05978 14.6356 1.36703 13.0239Q0.674286 11.4122 0.674286 9.57428Q0.674286 7.73636 1.36703 6.12465Q2.05978 4.51294 3.28499 3.28636Q4.51019 2.05978 6.12541 1.36703Q7.74063 0.674286 9.57153 0.674286Q11.4095 0.674286 13.0247 1.36703Q14.6399 2.05978 15.8643 3.28636Q17.0886 4.51294 17.785 6.12465Q18.4813 7.73636 18.4813 9.57428Q18.4813 11.4122 17.785 13.0239Q17.0886 14.6356 15.8621 15.8622Q14.6356 17.0888 13.0238 17.7815Q11.412 18.4743 9.57428 18.4743Z" fill="#007aff"/>
 </g>
</svg>
