<?xml version="1.0" encoding="UTF-8"?>
<!--Generator: Apple Native CoreSVG 175.5-->
<!DOCTYPE svg
PUBLIC "-//W3C//DTD SVG 1.1//EN"
       "http://www.w3.org/Graphics/SVG/1.1/DTD/svg11.dtd">
<svg version="1.1" xmlns="http://www.w3.org/2000/svg" xmlns:xlink="http://www.w3.org/1999/xlink" width="19.4629" height="17.998">
 <g>
  <rect height="17.998" opacity="0" width="19.4629" x="0" y="0"/>
  <path d="M3.06641 17.998L16.4062 17.998Q17.9395 17.998 18.7012 17.2412Q19.4629 16.4844 19.4629 14.9707L19.4629 3.04688Q19.4629 1.5332 18.7012 0.776367Q17.9395 0.0195312 16.4062 0.0195312L3.06641 0.0195312Q1.5332 0.0195312 0.766602 0.776367Q0 1.5332 0 3.04688L0 14.9707Q0 16.4844 0.766602 17.2412Q1.5332 17.998 3.06641 17.998ZM2.91992 16.4258Q2.27539 16.4258 1.92383 16.0791Q1.57227 15.7324 1.57227 15.0586L1.57227 5.84961Q1.57227 5.17578 1.92383 4.8291Q2.27539 4.48242 2.91992 4.48242L16.5332 4.48242Q17.1875 4.48242 17.5391 4.8291Q17.8906 5.17578 17.8906 5.84961L17.8906 15.0586Q17.8906 15.7324 17.5391 16.0791Q17.1875 16.4258 16.5332 16.4258Z" fill="#007aff"/>
 </g>
</svg>
