<?xml version="1.0" encoding="UTF-8"?>
<!--Generator: Apple Native CoreSVG 175-->
<!DOCTYPE svg
PUBLIC "-//W3C//DTD SVG 1.1//EN"
       "http://www.w3.org/Graphics/SVG/1.1/DTD/svg11.dtd">
<svg version="1.1" xmlns="http://www.w3.org/2000/svg" xmlns:xlink="http://www.w3.org/1999/xlink" width="17.3129" height="19.3958">
 <g>
  <rect height="19.3958" opacity="0" width="17.3129" x="0" y="0"/>
  <path d="M3.42224 19.3958Q3.75504 19.3958 3.83133 19.057L7.56088 0.768738Q7.57065 0.726929 7.58179 0.668564Q7.59293 0.610199 7.59293 0.561829Q7.59293 0.393066 7.49214 0.2948Q7.39136 0.196533 7.2226 0.196533Q7.04453 0.196533 6.94839 0.290451Q6.85226 0.384369 6.82617 0.543365L3.08243 18.8261Q3.06992 18.8902 3.06366 18.9416Q3.0574 18.9929 3.0574 19.0332Q3.0574 19.2117 3.15544 19.3037Q3.25348 19.3958 3.42224 19.3958ZM9.65042 19.3958Q9.98322 19.3958 10.0594 19.057L13.7918 0.768738Q13.8016 0.726929 13.8113 0.668564Q13.8211 0.610199 13.8211 0.561829Q13.8211 0.393066 13.7203 0.2948Q13.6195 0.196533 13.4535 0.196533Q13.2727 0.196533 13.1779 0.290451Q13.0832 0.384369 13.0569 0.543365L9.31061 18.8261Q9.30084 18.8902 9.29459 18.9416Q9.28833 18.9929 9.28833 19.0332Q9.28833 19.2117 9.38637 19.3037Q9.48441 19.3958 9.65042 19.3958ZM1.65009 6.48788L16.918 6.48788Q17.1004 6.48788 17.2066 6.38382Q17.3129 6.27975 17.3129 6.09726Q17.3129 5.94376 17.2168 5.84084Q17.1207 5.73792 16.9531 5.73792L1.6922 5.73792Q1.5097 5.73792 1.39999 5.84824Q1.29028 5.95856 1.29028 6.13678Q1.29028 6.30005 1.38985 6.39397Q1.48941 6.48788 1.65009 6.48788ZM0.359802 13.3434L15.6348 13.3434Q15.8171 13.3434 15.9269 13.2393Q16.0367 13.1352 16.0367 12.9527Q16.0367 12.7992 15.9371 12.6963Q15.8376 12.5934 15.6699 12.5934L0.401917 12.5934Q0.219574 12.5934 0.109787 12.7037Q0 12.814 0 12.9922Q0 13.1555 0.0982666 13.2494Q0.196533 13.3434 0.359802 13.3434Z" fill="#007aff"/>
 </g>
</svg>
