<?xml version="1.0" encoding="UTF-8"?>
<!--Generator: Apple Native CoreSVG 175-->
<!DOCTYPE svg
PUBLIC "-//W3C//DTD SVG 1.1//EN"
       "http://www.w3.org/Graphics/SVG/1.1/DTD/svg11.dtd">
<svg version="1.1" xmlns="http://www.w3.org/2000/svg" xmlns:xlink="http://www.w3.org/1999/xlink" width="18.9043" height="18.4738">
 <g>
  <rect height="18.4738" opacity="0" width="18.9043" x="0" y="0"/>
  <path d="M6.91711 18.4738L11.9872 18.4738Q12.8062 18.4738 13.297 18.3012Q13.7878 18.1285 14.1305 17.8233Q14.4731 17.518 14.8445 17.1199L18.1993 13.5574Q18.4793 13.2594 18.634 12.9989Q18.7888 12.7383 18.8465 12.4232Q18.9043 12.1082 18.9043 11.6409L18.9043 6.84067Q18.9043 6.37344 18.8465 6.05843Q18.7888 5.74341 18.634 5.48149Q18.4793 5.21957 18.1993 4.92416L14.8445 1.35468Q14.4731 0.960846 14.1305 0.656967Q13.7878 0.353088 13.297 0.179062Q12.8062 0.0050354 11.9872 0.0050354L6.91711 0.0050354Q6.09528 0.0050354 5.60936 0.179062Q5.12344 0.353088 4.78088 0.656967Q4.43832 0.960846 4.05975 1.35468L0.705109 4.92416Q0.424957 5.21957 0.270309 5.48149Q0.115662 5.74341 0.0578308 6.05843Q0 6.37344 0 6.84067L0 11.6409Q0 12.1082 0.0578308 12.4232Q0.115662 12.7383 0.270309 12.9989Q0.424957 13.2594 0.705109 13.5574L4.05975 17.1199Q4.43832 17.518 4.78088 17.8233Q5.12344 18.1285 5.60936 18.3012Q6.09528 18.4738 6.91711 18.4738Z" fill="#007aff"/>
 </g>
</svg>
