<?xml version="1.0" encoding="UTF-8"?>
<!--Generator: Apple Native CoreSVG 175-->
<!DOCTYPE svg
PUBLIC "-//W3C//DTD SVG 1.1//EN"
       "http://www.w3.org/Graphics/SVG/1.1/DTD/svg11.dtd">
<svg version="1.1" xmlns="http://www.w3.org/2000/svg" xmlns:xlink="http://www.w3.org/1999/xlink" width="18.9043" height="18.4857">
 <g>
  <rect height="18.4857" opacity="0" width="18.9043" x="0" y="0"/>
  <path d="M6.91711 18.4688L11.9872 18.4688Q12.8062 18.4688 13.297 18.2996Q13.7878 18.1305 14.1305 17.8252Q14.4731 17.52 14.8445 17.122L18.1993 13.5524Q18.4793 13.2571 18.634 12.9987Q18.7888 12.7403 18.8465 12.4218Q18.9043 12.1033 18.9043 11.636L18.9043 6.84265Q18.9043 6.37543 18.8465 6.0569Q18.7888 5.73837 18.634 5.47646Q18.4793 5.21454 18.1993 4.91928L14.8445 1.35666Q14.4731 0.955963 14.1305 0.652008Q13.7878 0.348053 13.297 0.174026Q12.8062 0 11.9872 0L6.91711 0Q6.09528 0 5.60936 0.174026Q5.12344 0.348053 4.78088 0.652008Q4.43832 0.955963 4.05975 1.35666L0.705109 4.91928Q0.424957 5.21454 0.270309 5.47646Q0.115662 5.73837 0.0578308 6.0569Q0 6.37543 0 6.84265L0 11.636Q0 12.1033 0.0578308 12.4218Q0.115662 12.7403 0.270309 12.9987Q0.424957 13.2571 0.705109 13.5524L4.05975 17.122Q4.43832 17.52 4.78088 17.8252Q5.12344 18.1305 5.60936 18.2996Q6.09528 18.4688 6.91711 18.4688ZM9.45435 0.70755L11.8747 0.70755Q12.5598 0.70755 12.9477 0.827866Q13.3356 0.948181 13.6304 1.20834Q13.9253 1.46851 14.3184 1.88095L17.6247 5.38834Q17.9387 5.71762 18.035 6.01646Q18.1313 6.31531 18.1313 6.88049L18.1313 11.5981Q18.1313 12.1634 18.035 12.4586Q17.9387 12.7539 17.6247 13.0904L14.3184 16.5977Q13.9253 17.0102 13.6304 17.2668Q13.3356 17.5235 12.9477 17.6473Q12.5598 17.7711 11.8747 17.7711L9.45435 17.7711Z" fill="#007aff"/>
 </g>
</svg>
