<?xml version="1.0" encoding="UTF-8"?>
<!--Generator: Apple Native CoreSVG 175.5-->
<!DOCTYPE svg
PUBLIC "-//W3C//DTD SVG 1.1//EN"
       "http://www.w3.org/Graphics/SVG/1.1/DTD/svg11.dtd">
<svg version="1.1" xmlns="http://www.w3.org/2000/svg" xmlns:xlink="http://www.w3.org/1999/xlink" width="23.0566" height="16.6895">
 <g>
  <rect height="16.6895" opacity="0" width="23.0566" x="0" y="0"/>
  <path d="M4.15039 12.2852Q4.15039 12.5684 4.35059 12.7734Q4.55078 12.9785 4.83398 12.9785L18.2227 12.9785Q18.5059 12.9785 18.7061 12.7734Q18.9062 12.5684 18.9062 12.2852Q18.9062 12.002 18.7061 11.8018Q18.5059 11.6016 18.2227 11.6016L4.83398 11.6016Q4.55078 11.6016 4.35059 11.8018Q4.15039 12.002 4.15039 12.2852ZM0 12.2852Q0 13.5254 0.595703 14.5264Q1.19141 15.5273 2.23633 16.1084Q3.28125 16.6895 4.63867 16.6895L18.418 16.6895Q19.7754 16.6895 20.8203 16.1084Q21.8652 15.5273 22.4609 14.5264Q23.0566 13.5254 23.0566 12.2852Q23.0566 11.7383 22.915 11.2402Q22.7734 10.7422 22.5879 10.2832L19.2969 2.38281Q18.8086 1.21094 17.8467 0.615234Q16.8848 0.0195312 15.5762 0.0195312L7.48047 0.0195312Q6.17188 0.0195312 5.20996 0.615234Q4.24805 1.21094 3.75977 2.38281L0.458984 10.2832Q0.273438 10.7422 0.136719 11.2402Q0 11.7383 0 12.2852ZM1.57227 12.2852Q1.57227 11.4844 1.95312 10.8398Q2.33398 10.1953 3.02734 9.82422Q3.7207 9.45312 4.63867 9.45312L18.418 9.45312Q19.3457 9.45312 20.0342 9.82422Q20.7227 10.1953 21.1035 10.8398Q21.4844 11.4844 21.4844 12.2852Q21.4844 13.1934 21.1035 13.8232Q20.7227 14.4531 20.0342 14.7852Q19.3457 15.1172 18.418 15.1172L4.63867 15.1172Q3.7207 15.1172 3.02734 14.7461Q2.33398 14.375 1.95312 13.7354Q1.57227 13.0957 1.57227 12.2852ZM3.1543 8.13477L5.2832 2.7832Q5.55664 2.08984 6.14258 1.73828Q6.72852 1.38672 7.55859 1.38672L15.498 1.38672Q16.3281 1.38672 16.9141 1.73828Q17.5 2.08984 17.7734 2.7832L19.9023 8.13477Q19.5605 8.00781 19.1895 7.94434Q18.8184 7.88086 18.418 7.88086L4.63867 7.88086Q4.23828 7.88086 3.86719 7.94434Q3.49609 8.00781 3.1543 8.13477Z" fill="#007aff"/>
 </g>
</svg>
