<?xml version="1.0" encoding="UTF-8"?>
<!--Generator: Apple Native CoreSVG 175-->
<!DOCTYPE svg
PUBLIC "-//W3C//DTD SVG 1.1//EN"
       "http://www.w3.org/Graphics/SVG/1.1/DTD/svg11.dtd">
<svg version="1.1" xmlns="http://www.w3.org/2000/svg" xmlns:xlink="http://www.w3.org/1999/xlink" width="19.1554" height="19.1583">
 <g>
  <rect height="19.1583" opacity="0" width="19.1554" x="0" y="0"/>
  <path d="M9.59106 14.1281Q10.8383 14.1281 11.8694 13.5107Q12.9004 12.8934 13.5129 11.8588Q14.1254 10.8243 14.1254 9.57428Q14.1254 8.32977 13.508 7.30362Q12.8906 6.27747 11.861 5.6649Q10.8313 5.05234 9.58679 5.05234Q8.34213 5.05234 7.30972 5.6649Q6.27731 6.27747 5.65857 7.30362Q5.03983 8.32977 5.03983 9.57428Q5.03983 10.8243 5.6572 11.8602Q6.27457 12.8961 7.30568 13.51Q8.33679 14.1238 9.59106 14.1281ZM9.59106 13.5188Q8.49762 13.5188 7.6033 12.989Q6.70898 12.4591 6.17561 11.5612Q5.64224 10.6633 5.64224 9.57428Q5.64224 8.50052 6.17561 7.6075Q6.70898 6.71448 7.60818 6.18462Q8.50739 5.65475 9.59106 5.65475Q10.6676 5.65475 11.5619 6.18462Q12.4562 6.71448 12.9897 7.60612Q13.5231 8.49777 13.5231 9.57428Q13.5231 10.6606 12.991 11.5562Q12.459 12.4519 11.5646 12.9854Q10.6703 13.5188 9.59106 13.5188ZM9.57703 11.8684Q10.2074 11.8684 10.7283 11.5567Q11.2492 11.245 11.5575 10.7241Q11.8657 10.2032 11.8657 9.57703Q11.8657 8.95355 11.5575 8.43758Q11.2492 7.9216 10.7283 7.61337Q10.2074 7.30515 9.57703 7.30515Q8.95081 7.30515 8.42987 7.61337Q7.90894 7.9216 7.59727 8.43758Q7.28561 8.95355 7.28561 9.57977Q7.28561 10.206 7.59727 10.7255Q7.90894 11.245 8.42987 11.5567Q8.95081 11.8684 9.57703 11.8684ZM9.57703 11.2485Q8.88519 11.2457 8.39668 10.7573Q7.90817 10.2689 7.90817 9.57703Q7.90817 8.89771 8.40019 8.41141Q8.89221 7.92511 9.57977 7.92511Q10.266 7.92511 10.7545 8.41003Q11.243 8.89496 11.243 9.57703Q11.243 10.2689 10.7581 10.76Q10.2731 11.2512 9.57703 11.2485ZM5.53055 10.7001L5.37613 10.1567L0.338745 11.2044L0.46875 11.7661ZM6.07315 12.0618L5.78476 11.5524L1.41846 14.2224L1.72928 14.709ZM9.0097 13.8058L8.45627 13.654L7.39731 18.7016L7.95898 18.8274ZM10.1442 5.38956L10.7016 5.54932L11.754 0.476685L11.1922 0.3508ZM13.0629 7.13867L13.3511 7.63138L17.7258 4.95041L17.4359 4.46915ZM13.6235 8.47549L13.7337 9.02466L18.8126 7.97379L18.6894 7.40936ZM9.57428 19.1486Q11.552 19.1486 13.2834 18.4024Q15.0148 17.6562 16.3355 16.3356Q17.6562 15.015 18.4058 13.28Q19.1554 11.545 19.1554 9.57428Q19.1554 7.60361 18.4058 5.86861Q17.6562 4.13361 16.3355 2.81296Q15.0148 1.49231 13.282 0.746155Q11.5492 0 9.57153 0Q7.60086 0 5.86586 0.746155Q4.13086 1.49231 2.81502 2.81296Q1.49918 4.13361 0.749588 5.86861Q0 7.60361 0 9.57428Q0 11.545 0.746078 13.28Q1.49216 15.015 2.81288 16.3356Q4.13361 17.6562 5.86853 18.4024Q7.60345 19.1486 9.57428 19.1486ZM9.57428 18.4024Q7.74734 18.4024 6.14853 17.7157Q4.54971 17.029 3.33466 15.8174Q2.1196 14.6059 1.43425 13.0035Q0.748901 11.4012 0.748901 9.57428Q0.748901 7.74734 1.43425 6.14502Q2.1196 4.54269 3.33328 3.32626Q4.54697 2.10983 6.14578 1.42448Q7.7446 0.739136 9.57153 0.739136Q11.4055 0.739136 13.0043 1.42448Q14.6031 2.10983 15.8195 3.32626Q17.036 4.54269 17.7227 6.14502Q18.4094 7.74734 18.4094 9.57428Q18.4094 11.4012 17.7241 13.0035Q17.0387 14.6059 15.8237 15.8174Q14.6086 17.029 13.0084 17.7157Q11.4082 18.4024 9.57428 18.4024Z" fill="#000000"/>
 </g>
</svg>
