<?xml version="1.0" encoding="UTF-8"?>
<!--Generator: Apple Native CoreSVG 175.5-->
<!DOCTYPE svg
PUBLIC "-//W3C//DTD SVG 1.1//EN"
       "http://www.w3.org/Graphics/SVG/1.1/DTD/svg11.dtd">
<svg version="1.1" xmlns="http://www.w3.org/2000/svg" xmlns:xlink="http://www.w3.org/1999/xlink" width="17.9883" height="23.3887">
 <g>
  <rect height="23.3887" opacity="0" width="17.9883" x="0" y="0"/>
  <path d="M9.00391 0Q7.00195 0 5.35156 0.854492Q3.70117 1.70898 2.50488 3.27148Q1.30859 4.83398 0.654297 6.97754Q0 9.12109 0 11.6895Q0 14.2578 0.654297 16.4014Q1.30859 18.5449 2.50488 20.1074Q3.70117 21.6699 5.35156 22.5244Q7.00195 23.3789 9.00391 23.3789Q10.9961 23.3789 12.6465 22.5244Q14.2969 21.6699 15.4932 20.1074Q16.6895 18.5449 17.3389 16.4014Q17.9883 14.2578 17.9883 11.6895Q17.9883 9.11133 17.3389 6.97266Q16.6895 4.83398 15.4932 3.27148Q14.2969 1.70898 12.6465 0.854492Q10.9961 0 9.00391 0ZM9.00391 1.57227Q10.6445 1.57227 12.0068 2.30957Q13.3691 3.04688 14.3555 4.39941Q15.3418 5.75195 15.8789 7.60742Q16.416 9.46289 16.416 11.6895Q16.416 13.916 15.8789 15.7666Q15.3418 17.6172 14.3555 18.9697Q13.3691 20.3223 12.0068 21.0645Q10.6445 21.8066 9.00391 21.8066Q7.35352 21.8066 5.99121 21.0645Q4.62891 20.3223 3.6377 18.9697Q2.64648 17.6172 2.10938 15.7666Q1.57227 13.916 1.57227 11.6895Q1.57227 9.46289 2.10938 7.6123Q2.64648 5.76172 3.6377 4.4043Q4.62891 3.04688 5.99121 2.30957Q7.35352 1.57227 9.00391 1.57227Z" fill="#007aff"/>
  <path d="M9.00391 2.99805Q7.68555 2.99805 6.58691 3.62305Q5.48828 4.24805 4.6875 5.40527Q3.88672 6.5625 3.44727 8.1543Q3.00781 9.74609 3.00781 11.6895Q3.00781 13.623 3.44727 15.2197Q3.88672 16.8164 4.6875 17.9688Q5.48828 19.1211 6.58691 19.751Q7.68555 20.3809 9.00391 20.3809Q10.3223 20.3809 11.4209 19.7559Q12.5195 19.1309 13.3203 17.9785Q14.1211 16.8262 14.5557 15.2295Q14.9902 13.6328 14.9902 11.6895Q14.9902 9.74609 14.5557 8.14941Q14.1211 6.55273 13.3203 5.40039Q12.5195 4.24805 11.4209 3.62305Q10.3223 2.99805 9.00391 2.99805Z" fill="#007aff"/>
 </g>
</svg>
