<?xml version="1.0" encoding="UTF-8"?>
<!--Generator: Apple Native CoreSVG 175.5-->
<!DOCTYPE svg
PUBLIC "-//W3C//DTD SVG 1.1//EN"
       "http://www.w3.org/Graphics/SVG/1.1/DTD/svg11.dtd">
<svg version="1.1" xmlns="http://www.w3.org/2000/svg" xmlns:xlink="http://www.w3.org/1999/xlink" width="25.1953" height="18.9746">
 <g>
  <rect height="18.9746" opacity="0" width="25.1953" x="0" y="0"/>
  <path d="M0 9.49219Q0 11.5723 0.922852 13.3057Q1.8457 15.0391 3.53027 16.3086Q5.21484 17.5781 7.52441 18.2764Q9.83398 18.9746 12.5977 18.9746Q15.3711 18.9746 17.6758 18.2764Q19.9805 17.5781 21.665 16.3086Q23.3496 15.0391 24.2725 13.3057Q25.1953 11.5723 25.1953 9.49219Q25.1953 7.42188 24.2725 5.68359Q23.3496 3.94531 21.665 2.6709Q19.9805 1.39648 17.6758 0.698242Q15.3711 0 12.5977 0Q9.83398 0 7.52441 0.698242Q5.21484 1.39648 3.53027 2.6709Q1.8457 3.94531 0.922852 5.68359Q0 7.42188 0 9.49219ZM1.57227 9.49219Q1.57227 7.76367 2.37793 6.31348Q3.18359 4.86328 4.66309 3.79883Q6.14258 2.73438 8.15918 2.15332Q10.1758 1.57227 12.5977 1.57227Q15.0195 1.57227 17.041 2.15332Q19.0625 2.73438 20.5371 3.79883Q22.0117 4.86328 22.8174 6.31348Q23.623 7.76367 23.623 9.49219Z" fill="#007aff"/>
 </g>
</svg>
