<?xml version="1.0" encoding="UTF-8"?>
<!--Generator: Apple Native CoreSVG 175-->
<!DOCTYPE svg
PUBLIC "-//W3C//DTD SVG 1.1//EN"
       "http://www.w3.org/Graphics/SVG/1.1/DTD/svg11.dtd">
<svg version="1.1" xmlns="http://www.w3.org/2000/svg" xmlns:xlink="http://www.w3.org/1999/xlink" width="19.1602" height="19.1504">
 <g>
  <rect height="19.1504" opacity="0" width="19.1602" x="0" y="0"/>
  <path d="M9.57031 19.1406Q11.5527 19.1406 13.2861 18.3984Q15.0195 17.6562 16.3379 16.333Q17.6562 15.0098 18.4082 13.2764Q19.1602 11.543 19.1602 9.57031Q19.1602 7.59766 18.4082 5.86426Q17.6562 4.13086 16.3379 2.80762Q15.0195 1.48438 13.2861 0.742188Q11.5527 0 9.57031 0Q7.59766 0 5.86426 0.742188Q4.13086 1.48438 2.81738 2.80762Q1.50391 4.13086 0.751953 5.86426Q0 7.59766 0 9.57031Q0 11.543 0.74707 13.2764Q1.49414 15.0098 2.8125 16.333Q4.13086 17.6562 5.86914 18.3984Q7.60742 19.1406 9.57031 19.1406ZM9.57031 18.3984Q7.74414 18.3984 6.14746 17.71Q4.55078 17.0215 3.33496 15.8105Q2.11914 14.5996 1.43555 12.998Q0.751953 11.3965 0.751953 9.57031Q0.751953 7.74414 1.43555 6.14258Q2.11914 4.54102 3.33496 3.3252Q4.55078 2.10938 6.14746 1.4209Q7.74414 0.732422 9.57031 0.732422Q11.4062 0.732422 13.0029 1.4209Q14.5996 2.10938 15.8154 3.3252Q17.0312 4.54102 17.7197 6.14258Q18.4082 7.74414 18.4082 9.57031Q18.4082 11.3965 17.7246 12.998Q17.041 14.5996 15.8252 15.8105Q14.6094 17.0215 13.0078 17.71Q11.4062 18.3984 9.57031 18.3984ZM7.4707 13.9648Q7.64648 13.9648 7.74414 13.8574Q7.8418 13.75 7.8418 13.5742L7.8418 10.6055L10.1758 10.6055Q11.3672 10.6055 12.1338 9.84863Q12.9004 9.0918 12.9004 7.91992Q12.9004 6.74805 12.1289 5.98633Q11.3574 5.22461 10.1758 5.22461L7.44141 5.22461Q7.27539 5.22461 7.1875 5.3418Q7.09961 5.45898 7.09961 5.625L7.09961 13.5742Q7.09961 13.7402 7.19727 13.8525Q7.29492 13.9648 7.4707 13.9648ZM7.8418 9.96094L7.8418 5.87891L10.1465 5.87891Q11.0254 5.87891 11.5918 6.4502Q12.1582 7.02148 12.1582 7.91992Q12.1582 8.80859 11.5918 9.38477Q11.0254 9.96094 10.1465 9.96094Z" fill="#000000"/>
 </g>
</svg>
