<?xml version="1.0" encoding="UTF-8"?>
<!--Generator: Apple Native CoreSVG 175.5-->
<!DOCTYPE svg
PUBLIC "-//W3C//DTD SVG 1.1//EN"
       "http://www.w3.org/Graphics/SVG/1.1/DTD/svg11.dtd">
<svg version="1.1" xmlns="http://www.w3.org/2000/svg" xmlns:xlink="http://www.w3.org/1999/xlink" width="20.6268" height="23.329">
 <g>
  <rect height="23.329" opacity="0" width="20.6268" x="0" y="0"/>
  <path d="M1.16344 22.0209Q1.92516 22.7924 2.79918 23.0512Q3.6732 23.31 4.54234 23.0659Q5.41148 22.8217 6.16344 22.0698Q6.61266 21.6206 7.05211 20.937Q7.49156 20.2534 7.9066 19.4917Q8.32164 18.7299 8.7025 18.017Q9.08336 17.3042 9.41539 16.7963L11.7787 19.1694Q12.3255 19.7163 12.9359 19.7211Q13.5462 19.726 14.0638 19.1987L14.9037 18.3588Q15.4408 17.812 15.431 17.2211Q15.4212 16.6303 14.8744 16.0834L7.1107 8.31001Q6.55406 7.76314 5.95348 7.75825Q5.35289 7.75337 4.82555 8.28071L3.9857 9.12056Q3.45836 9.6479 3.46324 10.2534Q3.46812 10.8588 4.015 11.4057L6.37828 13.769Q5.88023 14.101 5.16734 14.4819Q4.45445 14.8627 3.69273 15.2778Q2.93101 15.6928 2.2523 16.1323Q1.57359 16.5717 1.11461 17.0209Q0.362655 17.7729 0.118515 18.6469Q-0.125626 19.5209 0.133163 20.395Q0.391952 21.269 1.16344 22.0209ZM3.77086 20.7514Q3.26305 20.7514 2.91148 20.395Q2.55992 20.0385 2.55992 19.5405Q2.55992 19.0424 2.91148 18.6909Q3.26305 18.3393 3.77086 18.3393Q4.26891 18.3393 4.62047 18.6909Q4.97203 19.0424 4.97203 19.5405Q4.97203 20.0385 4.62047 20.395Q4.26891 20.7514 3.77086 20.7514ZM16.0365 15.6342L19.8255 11.8452Q20.6459 11.0346 20.6263 10.1167Q20.6068 9.19868 19.7767 8.34907L19.2787 7.84126Q18.8978 8.33931 18.2435 8.83247Q17.5892 9.32564 16.8714 9.69673Q16.1537 10.0678 15.5824 10.2143Q15.0111 10.3608 14.806 10.1459Q14.7377 10.0776 14.7377 9.9604Q14.7377 9.84321 14.8353 9.74556Q15.431 9.14985 15.8754 8.5395Q16.3197 7.92915 16.598 7.20161Q16.8763 6.47407 16.9642 5.53657L11.9447 0.507276Q11.4857 0.0482916 10.8705 0.00434624Q10.2552-0.0395991 9.71812 0.360792Q9.18101 0.761182 8.96617 1.64009Q8.65367 2.89009 8.36559 3.82271Q8.0775 4.75532 7.78453 5.4731Q7.49156 6.19087 7.18883 6.79634Z" fill="#007aff"/>
 </g>
</svg>
