<?xml version="1.0" encoding="UTF-8"?>
<!--Generator: Apple Native CoreSVG 175-->
<!DOCTYPE svg
PUBLIC "-//W3C//DTD SVG 1.1//EN"
       "http://www.w3.org/Graphics/SVG/1.1/DTD/svg11.dtd">
<svg version="1.1" xmlns="http://www.w3.org/2000/svg" xmlns:xlink="http://www.w3.org/1999/xlink" width="23.4525" height="15.0888">
 <g>
  <rect height="15.0888" opacity="0" width="23.4525" x="0" y="0"/>
  <path d="M1.05713 15.0888Q1.55899 15.0888 2.25311 14.8915Q2.94724 14.6942 3.86131 14.4036Q4.77539 14.113 5.94048 13.8237Q7.10556 13.5344 8.54576 13.3393Q9.98596 13.1442 11.7262 13.1442Q13.4595 13.1442 14.8962 13.3393Q16.3329 13.5344 17.5014 13.8237Q18.6699 14.113 19.5889 14.4022Q20.5078 14.6915 21.2077 14.8888Q21.9075 15.0861 22.4023 15.0861Q22.8825 15.0861 23.1675 14.8085Q23.4525 14.5309 23.4525 13.9453L23.4525 1.1911Q23.4525 0.602722 23.1675 0.321655Q22.8825 0.0405884 22.4023 0.0405884Q21.9075 0.0405884 21.2077 0.237885Q20.5078 0.435181 19.5889 0.725784Q18.6699 1.01639 17.5014 1.30569Q16.3329 1.595 14.8962 1.79359Q13.4595 1.99219 11.7262 1.99219Q10 1.99219 8.56331 1.79359Q7.12662 1.595 5.9594 1.30219Q4.79218 1.00937 3.86971 0.718765Q2.94724 0.428162 2.2496 0.230865Q1.55197 0.0335693 1.05713 0.0335693Q0.572662 0.0335693 0.286331 0.314636Q0 0.595703 0 1.17432L0 13.9481Q0 14.5267 0.286331 14.8077Q0.572662 15.0888 1.05713 15.0888ZM1.12854 14.3324Q0.728607 14.3324 0.728607 13.9087L0.728607 1.21368Q0.728607 0.789948 1.12854 0.789948Q1.64185 0.789948 2.53952 1.07857Q3.43719 1.36719 4.73953 1.74301Q6.04187 2.11884 7.78519 2.40753Q9.5285 2.69623 11.7262 2.69623Q13.9336 2.69623 15.6803 2.40967Q17.4271 2.12311 18.7362 1.74873Q20.0453 1.37436 20.9389 1.08429Q21.8324 0.79422 22.3337 0.79422Q22.7309 0.79422 22.7309 1.2207L22.7309 13.9087Q22.7309 14.3324 22.3337 14.3324Q21.8176 14.3324 20.92 14.0473Q20.0223 13.7622 18.7164 13.3864Q17.4106 13.0106 15.6721 12.7219Q13.9336 12.4333 11.7262 12.4333Q9.5047 12.4333 7.75452 12.7219Q6.00433 13.0106 4.70215 13.3864Q3.39996 13.7622 2.5148 14.0473Q1.62964 14.3324 1.12854 14.3324Z" fill="#007aff"/>
 </g>
</svg>
