<?xml version="1.0" encoding="UTF-8"?>
<!--Generator: Apple Native CoreSVG 175-->
<!DOCTYPE svg
PUBLIC "-//W3C//DTD SVG 1.1//EN"
       "http://www.w3.org/Graphics/SVG/1.1/DTD/svg11.dtd">
<svg version="1.1" xmlns="http://www.w3.org/2000/svg" xmlns:xlink="http://www.w3.org/1999/xlink" width="19.6294" height="20.7355">
 <g>
  <rect height="20.7355" opacity="0" width="19.6294" x="0" y="0"/>
  <path d="M11.8187 20.7355Q12.1704 20.7355 12.4282 20.4843Q12.686 20.2332 12.8751 19.7409L19.4965 2.39914Q19.5673 2.21207 19.5983 2.0562Q19.6294 1.90033 19.6294 1.7659Q19.6294 1.44913 19.4579 1.27769Q19.2863 1.10626 18.9696 1.10626Q18.8379 1.10626 18.6806 1.13731Q18.5234 1.16837 18.3363 1.23901L0.97702 7.8714Q0.502319 8.04962 0.25116 8.30742Q0 8.56522 0 8.91678Q0 9.31641 0.276184 9.5369Q0.552368 9.75739 1.12183 9.93011L7.51328 11.8832Q7.77115 11.9594 7.99301 11.9111Q8.21487 11.8628 8.39645 11.6895L18.7227 1.77811Q18.7965 1.71127 18.8674 1.70212Q18.9383 1.69296 18.9883 1.74728Q19.0453 1.79443 19.0312 1.86676Q19.0172 1.93909 18.9574 2.01279L9.04297 12.336Q8.87222 12.5191 8.82614 12.7396Q8.78006 12.9602 8.84644 13.2164L10.8 19.5961Q10.9726 20.1668 11.191 20.4511Q11.4095 20.7355 11.8187 20.7355Z" fill="#000000"/>
 </g>
</svg>
