<?xml version="1.0" encoding="UTF-8"?>
<!--Generator: Apple Native CoreSVG 175.5-->
<!DOCTYPE svg
PUBLIC "-//W3C//DTD SVG 1.1//EN"
       "http://www.w3.org/Graphics/SVG/1.1/DTD/svg11.dtd">
<svg version="1.1" xmlns="http://www.w3.org/2000/svg" xmlns:xlink="http://www.w3.org/1999/xlink" width="19.9219" height="19.9316">
 <g>
  <rect height="19.9316" opacity="0" width="19.9219" x="0" y="0"/>
  <path d="M9.96094 19.9219Q12.002 19.9219 13.8037 19.1406Q15.6055 18.3594 16.9824 16.9824Q18.3594 15.6055 19.1406 13.8037Q19.9219 12.002 19.9219 9.96094Q19.9219 7.91992 19.1406 6.11816Q18.3594 4.31641 16.9824 2.93945Q15.6055 1.5625 13.7988 0.78125Q11.9922 0 9.95117 0Q7.91016 0 6.1084 0.78125Q4.30664 1.5625 2.93457 2.93945Q1.5625 4.31641 0.78125 6.11816Q0 7.91992 0 9.96094Q0 12.002 0.78125 13.8037Q1.5625 15.6055 2.93945 16.9824Q4.31641 18.3594 6.11816 19.1406Q7.91992 19.9219 9.96094 19.9219ZM9.96094 18.2617Q8.23242 18.2617 6.72852 17.6172Q5.22461 16.9727 4.08691 15.835Q2.94922 14.6973 2.30957 13.1934Q1.66992 11.6895 1.66992 9.96094Q1.66992 8.23242 2.30957 6.72852Q2.94922 5.22461 4.08203 4.08203Q5.21484 2.93945 6.71875 2.2998Q8.22266 1.66016 9.95117 1.66016Q11.6797 1.66016 13.1885 2.2998Q14.6973 2.93945 15.835 4.08203Q16.9727 5.22461 17.6172 6.72852Q18.2617 8.23242 18.2617 9.96094Q18.2617 11.6895 17.6221 13.1934Q16.9824 14.6973 15.8398 15.835Q14.6973 16.9727 13.1934 17.6172Q11.6895 18.2617 9.96094 18.2617Z" fill="#007aff"/>
  <path d="M10.1465 16.123Q10.4395 16.123 10.6494 15.8936Q10.8594 15.6641 11.0059 15.2832L14.5898 5.92773Q14.7363 5.53711 14.7363 5.2832Q14.7363 5.01953 14.585 4.86816Q14.4336 4.7168 14.1797 4.7168Q13.916 4.7168 13.5254 4.87305L4.12109 8.4668Q3.78906 8.59375 3.55957 8.80371Q3.33008 9.01367 3.33008 9.30664Q3.33008 9.67773 3.5791 9.84375Q3.82812 10.0098 4.21875 10.1367L7.1875 11.0254Q7.45117 11.1035 7.62207 11.0889Q7.79297 11.0742 7.96875 10.918L13.9355 5.32227Q14.0234 5.22461 14.1406 5.3125Q14.248 5.40039 14.1406 5.51758L8.56445 11.5234Q8.30078 11.7969 8.4375 12.2949L9.30664 15.1758Q9.44336 15.5859 9.60449 15.8545Q9.76562 16.123 10.1465 16.123Z" fill="#007aff"/>
 </g>
</svg>
