<?xml version="1.0" encoding="UTF-8"?>
<!--Generator: Apple Native CoreSVG 175.5-->
<!DOCTYPE svg
PUBLIC "-//W3C//DTD SVG 1.1//EN"
       "http://www.w3.org/Graphics/SVG/1.1/DTD/svg11.dtd">
<svg version="1.1" xmlns="http://www.w3.org/2000/svg" xmlns:xlink="http://www.w3.org/1999/xlink" width="12.373" height="18.5645">
 <g>
  <rect height="18.5645" opacity="0" width="12.373" x="0" y="0"/>
  <path d="M1.20117 18.5645Q1.74805 18.5645 2.08008 18.2227Q2.41211 17.8809 2.41211 17.3242L2.41211 11.8066L6.39648 11.8066Q8.1543 11.8066 9.50195 11.0596Q10.8496 10.3125 11.6113 8.98438Q12.373 7.65625 12.373 5.92773Q12.373 4.18945 11.6162 2.86621Q10.8594 1.54297 9.51172 0.800781Q8.16406 0.0585938 6.40625 0.0585938L1.20117 0.0585938Q0.664062 0.0585938 0.332031 0.395508Q0 0.732422 0 1.29883L0 17.3242Q0 17.8906 0.332031 18.2275Q0.664062 18.5645 1.20117 18.5645ZM2.41211 9.58008L2.41211 2.26562L5.95703 2.26562Q7.20703 2.26562 8.0957 2.69531Q8.98438 3.125 9.44824 3.94043Q9.91211 4.75586 9.91211 5.92773Q9.91211 7.08008 9.44336 7.90039Q8.97461 8.7207 8.09082 9.15039Q7.20703 9.58008 5.95703 9.58008Z" fill="#007aff"/>
 </g>
</svg>
