<?xml version="1.0" encoding="UTF-8"?>
<!--Generator: Apple Native CoreSVG 175-->
<!DOCTYPE svg
PUBLIC "-//W3C//DTD SVG 1.1//EN"
       "http://www.w3.org/Graphics/SVG/1.1/DTD/svg11.dtd">
<svg version="1.1" xmlns="http://www.w3.org/2000/svg" xmlns:xlink="http://www.w3.org/1999/xlink" width="7.12662" height="15.1584">
 <g>
  <rect height="15.1584" opacity="0" width="7.12662" x="0" y="0"/>
  <path d="M0.373077 15.1584Q0.527802 15.1584 0.638351 15.0505Q0.748901 14.9426 0.748901 14.7906L0.748901 0.380096Q0.748901 0.225525 0.638351 0.117645Q0.527802 0.00976562 0.373077 0.00976562Q0.2211 0.00976562 0.11055 0.117645Q0 0.225525 0 0.380096L0 14.7906Q0 14.9426 0.11055 15.0505Q0.2211 15.1584 0.373077 15.1584ZM6.75079 15.1584Q6.90552 15.1584 7.01607 15.0505Q7.12662 14.9426 7.12662 14.7906L7.12662 0.380096Q7.12662 0.225525 7.01607 0.117645Q6.90552 0.00976562 6.75079 0.00976562Q6.59882 0.00976562 6.48827 0.117645Q6.37772 0.225525 6.37772 0.380096L6.37772 14.7906Q6.37772 14.9426 6.48827 15.0505Q6.59882 15.1584 6.75079 15.1584Z" fill="#000000"/>
 </g>
</svg>
