<?xml version="1.0" encoding="UTF-8"?>
<!--Generator: Apple Native CoreSVG 175.5-->
<!DOCTYPE svg
PUBLIC "-//W3C//DTD SVG 1.1//EN"
       "http://www.w3.org/Graphics/SVG/1.1/DTD/svg11.dtd">
<svg version="1.1" xmlns="http://www.w3.org/2000/svg" xmlns:xlink="http://www.w3.org/1999/xlink" width="11.9141" height="15.9082">
 <g>
  <rect height="15.9082" opacity="0" width="11.9141" x="0" y="0"/>
  <path d="M1.29883 15.9082L3.52539 15.9082Q4.16016 15.9082 4.49219 15.5762Q4.82422 15.2441 4.82422 14.5996L4.82422 1.29883Q4.82422 0.634766 4.49219 0.317383Q4.16016 0 3.52539 0L1.29883 0Q0.654297 0 0.327148 0.332031Q0 0.664062 0 1.29883L0 14.5996Q0 15.2441 0.327148 15.5762Q0.654297 15.9082 1.29883 15.9082ZM8.39844 15.9082L10.6152 15.9082Q11.2598 15.9082 11.5869 15.5762Q11.9141 15.2441 11.9141 14.5996L11.9141 1.29883Q11.9141 0.634766 11.5869 0.317383Q11.2598 0 10.6152 0L8.39844 0Q7.75391 0 7.42188 0.332031Q7.08984 0.664062 7.08984 1.29883L7.08984 14.5996Q7.08984 15.2441 7.42188 15.5762Q7.75391 15.9082 8.39844 15.9082Z" fill="#007aff"/>
 </g>
</svg>
