<?xml version="1.0" encoding="UTF-8"?>
<!--Generator: Apple Native CoreSVG 175-->
<!DOCTYPE svg
PUBLIC "-//W3C//DTD SVG 1.1//EN"
       "http://www.w3.org/Graphics/SVG/1.1/DTD/svg11.dtd">
<svg version="1.1" xmlns="http://www.w3.org/2000/svg" xmlns:xlink="http://www.w3.org/1999/xlink" width="20.6844" height="20.5777">
 <g>
  <rect height="20.5777" opacity="0" width="20.6844" x="0" y="0"/>
  <path d="M6.20789 20.5569Q6.94733 20.5569 7.51686 20.3754Q8.0864 20.1938 8.58368 19.9828Q9.03717 19.7902 9.44984 19.641Q9.86252 19.4917 10.329 19.4917Q10.7996 19.4917 11.2101 19.641Q11.6206 19.7902 12.0743 19.9828Q12.5688 20.1938 13.1383 20.3754Q13.7077 20.5569 14.4473 20.5569Q15.4387 20.5569 16.2258 20.1283Q17.0129 19.6996 17.4625 18.955Q17.9121 18.2104 17.9121 17.2707Q17.9121 16.3266 17.5723 15.6443Q17.2324 14.962 16.716 14.4624Q16.1996 13.9629 15.6903 13.5414Q15.2855 13.2104 14.9443 12.9083Q14.6031 12.6062 14.3938 12.2531Q14.2265 11.9757 14.0738 11.6431Q13.9211 11.3106 13.7718 10.952Q13.4496 10.2098 13.0414 9.46289Q12.6332 8.71597 11.9887 8.21541Q11.3441 7.71484 10.329 7.71484Q9.30389 7.71484 8.66287 8.21892Q8.02185 8.72299 7.61368 9.4664Q7.20551 10.2098 6.89301 10.9422Q6.74377 11.2894 6.60156 11.6101Q6.45935 11.9308 6.30203 12.1913Q6.08276 12.5613 5.73318 12.8824Q5.38361 13.2034 4.96765 13.5414Q4.44839 13.9629 3.93692 14.466Q3.42545 14.9692 3.08556 15.6479Q2.74567 16.3266 2.74567 17.2707Q2.74567 18.2104 3.19885 18.955Q3.65204 19.6996 4.43558 20.1283Q5.21912 20.5569 6.20789 20.5569ZM6.20789 19.8653Q5.00076 19.8653 4.21913 19.1324Q3.4375 18.3995 3.4375 17.2707Q3.4375 16.3269 3.81897 15.7078Q4.20044 15.0887 4.77036 14.6273Q5.34027 14.166 5.9182 13.6892Q6.49612 13.2124 6.88202 12.5536Q7.21405 11.9872 7.50237 11.2807Q7.79068 10.5742 8.13988 9.91852Q8.48907 9.26285 9.00665 8.83476Q9.52423 8.40668 10.329 8.40668Q11.1336 8.40668 11.6533 8.83476Q12.173 9.26285 12.5272 9.92554Q12.8813 10.5882 13.1731 11.3066Q13.4648 12.025 13.8179 12.6152Q14.1899 13.2574 14.7607 13.7152Q15.3316 14.173 15.8945 14.6343Q16.4574 15.0957 16.8388 15.7113Q17.2203 16.3269 17.2203 17.2707Q17.2203 18.3995 16.4373 19.1324Q15.6543 19.8653 14.4473 19.8653Q13.8409 19.8653 13.3369 19.706Q12.8328 19.5468 12.3644 19.3353Q11.8961 19.1238 11.4062 18.9632Q10.9164 18.8026 10.329 18.8026Q9.74838 18.8026 9.25369 18.9632Q8.759 19.1238 8.29063 19.3353Q7.82227 19.5468 7.31956 19.706Q6.81686 19.8653 6.20789 19.8653ZM0 9.18121Q0 10.778 0.654526 11.7529Q1.30905 12.7277 2.39929 12.7277Q3.48953 12.7277 4.15237 11.7529Q4.81522 10.778 4.81522 9.18121Q4.81522 7.58438 4.15237 6.60957Q3.48953 5.63477 2.39929 5.63477Q1.30905 5.63477 0.654526 6.60957Q0 7.58438 0 9.18121ZM0.682526 9.18121Q0.682526 7.8804 1.14868 7.09877Q1.61484 6.31714 2.39929 6.31714Q3.18359 6.31714 3.65822 7.10228Q4.13284 7.88742 4.13284 9.18121Q4.13284 10.475 3.65822 11.2601Q3.18359 12.0453 2.39929 12.0453Q1.61484 12.0453 1.14868 11.2637Q0.682526 10.482 0.682526 9.18121ZM4.74609 3.53668Q4.74609 5.14328 5.40413 6.11183Q6.06216 7.08038 7.1524 7.08038Q8.24265 7.08038 8.90198 6.10695Q9.56131 5.13351 9.56131 3.53668Q9.56131 1.93985 8.90686 0.969925Q8.25241 0 7.1524 0Q6.06216 0 5.40413 0.966415Q4.74609 1.93283 4.74609 3.53668ZM5.42862 3.53668Q5.42862 2.24289 5.89828 1.46263Q6.36795 0.682373 7.1524 0.682373Q7.93243 0.682373 8.40919 1.46751Q8.88596 2.25266 8.88596 3.53668Q8.88596 4.83047 8.40919 5.61424Q7.93243 6.39801 7.1524 6.39801Q6.36795 6.39801 5.89828 5.61775Q5.42862 4.83749 5.42862 3.53668ZM11.123 3.53668Q11.123 4.59808 11.422 5.39787Q11.721 6.19766 12.2626 6.63902Q12.8043 7.08038 13.5321 7.08038Q14.6223 7.08038 15.2768 6.11183Q15.9312 5.14328 15.9312 3.53668Q15.9312 1.93283 15.2768 0.966415Q14.6223 0 13.5321 0Q12.7972 0 12.2556 0.442734Q11.714 0.885468 11.4185 1.67557Q11.123 2.46567 11.123 3.53668ZM11.7984 3.53668Q11.7984 2.25266 12.2717 1.46751Q12.7449 0.682373 13.5321 0.682373Q14.3164 0.682373 14.7861 1.46263Q15.2559 2.24289 15.2559 3.53668Q15.2559 4.83749 14.7861 5.61775Q14.3164 6.39801 13.5321 6.39801Q12.7449 6.39801 12.2717 5.61424Q11.7984 4.83047 11.7984 3.53668ZM15.8691 9.18121Q15.8691 10.2426 16.1681 11.0424Q16.4671 11.8422 17.0087 12.2849Q17.5504 12.7277 18.2782 12.7277Q19.3684 12.7277 20.0264 11.7529Q20.6844 10.778 20.6844 9.18121Q20.6844 7.58438 20.0264 6.60957Q19.3684 5.63477 18.2782 5.63477Q17.5504 5.63477 17.0087 6.0775Q16.4671 6.52023 16.1681 7.3201Q15.8691 8.11996 15.8691 9.18121ZM16.5517 9.18121Q16.5517 7.88742 17.0262 7.10228Q17.5008 6.31714 18.2782 6.31714Q19.0652 6.31714 19.5336 7.09877Q20.002 7.8804 20.002 9.18121Q20.002 10.482 19.5336 11.2637Q19.0652 12.0453 18.2782 12.0453Q17.5008 12.0453 17.0262 11.2601Q16.5517 10.475 16.5517 9.18121Z" fill="#007aff"/>
 </g>
</svg>
