<?xml version="1.0" encoding="UTF-8"?>
<!--Generator: Apple Native CoreSVG 175-->
<!DOCTYPE svg
PUBLIC "-//W3C//DTD SVG 1.1//EN"
       "http://www.w3.org/Graphics/SVG/1.1/DTD/svg11.dtd">
<svg version="1.1" xmlns="http://www.w3.org/2000/svg" xmlns:xlink="http://www.w3.org/1999/xlink" width="20.5609" height="20.4175">
 <g>
  <rect height="20.4175" opacity="0" width="20.5609" x="0" y="0"/>
  <path d="M0 9.11591Q0 10.153 0.293579 10.9386Q0.587158 11.7242 1.11588 12.1642Q1.64459 12.6042 2.341 12.6042Q3.04016 12.6042 3.57239 12.1642Q4.10461 11.7242 4.39819 10.9386Q4.69177 10.153 4.69177 9.11591Q4.69177 8.08868 4.39819 7.30171Q4.10461 6.51474 3.57239 6.07475Q3.04016 5.63477 2.341 5.63477Q1.64459 5.63477 1.11588 6.07475Q0.587158 6.51474 0.293579 7.30171Q0 8.08868 0 9.11591ZM4.74335 3.47412Q4.74335 4.50851 5.0383 5.29541Q5.33325 6.08231 5.86197 6.51749Q6.39069 6.95267 7.0871 6.95267Q7.79343 6.95267 8.32207 6.51398Q8.85071 6.07529 9.14917 5.2919Q9.44763 4.50851 9.44763 3.47412Q9.44763 2.43713 9.15276 1.65504Q8.85788 0.872955 8.32565 0.436478Q7.79343 0 7.0871 0Q6.39069 0 5.86197 0.436478Q5.33325 0.872955 5.0383 1.65504Q4.74335 2.43713 4.74335 3.47412ZM11.123 3.47412Q11.123 4.50851 11.4166 5.2919Q11.7102 6.07529 12.2424 6.51398Q12.7747 6.95267 13.4738 6.95267Q14.1704 6.95267 14.699 6.51749Q15.2277 6.08231 15.5226 5.29541Q15.8176 4.50851 15.8176 3.47412Q15.8176 2.43713 15.5226 1.65504Q15.2277 0.872955 14.699 0.436478Q14.1704 0 13.4738 0Q12.7676 0 12.2389 0.436478Q11.7102 0.872955 11.4166 1.65504Q11.123 2.43713 11.123 3.47412ZM15.8691 9.11591Q15.8691 10.153 16.1641 10.9386Q16.459 11.7242 16.9899 12.1642Q17.5208 12.6042 18.2199 12.6042Q18.9165 12.6042 19.4451 12.1642Q19.9738 11.7242 20.2673 10.9386Q20.5609 10.153 20.5609 9.11591Q20.5609 8.08868 20.2673 7.30171Q19.9738 6.51474 19.4451 6.07475Q18.9165 5.63477 18.2199 5.63477Q17.5208 5.63477 16.9899 6.07475Q16.459 6.51474 16.1641 7.30171Q15.8691 8.08868 15.8691 9.11591ZM2.71179 17.1527Q2.71179 18.0898 3.1514 18.8234Q3.591 19.557 4.35295 19.981Q5.1149 20.405 6.09146 20.405Q6.82816 20.405 7.40234 20.2179Q7.97653 20.0308 8.49136 19.827Q8.94379 19.6382 9.36584 19.5013Q9.7879 19.3645 10.2734 19.3645Q10.759 19.3645 11.1797 19.5013Q11.6003 19.6382 12.0485 19.827Q12.5606 20.0308 13.1383 20.2179Q13.716 20.405 14.4527 20.405Q15.4292 20.405 16.1926 19.981Q16.9559 19.557 17.392 18.8234Q17.8281 18.0898 17.8281 17.1527Q17.8281 16.2355 17.4929 15.573Q17.1577 14.9104 16.6509 14.4169Q16.1441 13.9233 15.6375 13.5019Q15.2231 13.1726 14.8766 12.8595Q14.53 12.5464 14.3016 12.1785Q14.1331 11.8956 13.9736 11.563Q13.8141 11.2305 13.6649 10.8745Q13.3344 10.1297 12.9295 9.3869Q12.5246 8.6441 11.8992 8.14819Q11.2738 7.65228 10.2734 7.65228Q9.26605 7.65228 8.63716 8.1517Q8.00827 8.65112 7.60689 9.39041Q7.20551 10.1297 6.88904 10.8647Q6.73279 11.2065 6.5873 11.5286Q6.4418 11.8507 6.28326 12.1167Q6.04767 12.4988 5.68573 12.8322Q5.32379 13.1656 4.90936 13.5019Q4.39301 13.9304 3.88756 14.4239Q3.38211 14.9174 3.04695 15.58Q2.71179 16.2425 2.71179 17.1527Z" fill="#007aff"/>
 </g>
</svg>
