<?xml version="1.0" encoding="UTF-8"?>
<!--Generator: Apple Native CoreSVG 175.5-->
<!DOCTYPE svg
PUBLIC "-//W3C//DTD SVG 1.1//EN"
       "http://www.w3.org/Graphics/SVG/1.1/DTD/svg11.dtd">
<svg version="1.1" xmlns="http://www.w3.org/2000/svg" xmlns:xlink="http://www.w3.org/1999/xlink" width="23.4473" height="20.7324">
 <g>
  <rect height="20.7324" opacity="0" width="23.4473" x="0" y="0"/>
  <path d="M0.791016 20.7227Q1.11328 20.7227 1.34277 20.4932Q1.57227 20.2637 1.57227 19.9414L1.57227 0.78125Q1.57227 0.458984 1.34277 0.229492Q1.11328 0 0.791016 0Q0.458984 0 0.229492 0.229492Q0 0.458984 0 0.78125L0 19.9414Q0 20.2637 0.229492 20.4932Q0.458984 20.7227 0.791016 20.7227ZM22.666 20.7227Q22.9883 20.7227 23.2178 20.4932Q23.4473 20.2637 23.4473 19.9414L23.4473 0.78125Q23.4473 0.458984 23.2178 0.229492Q22.9883 0 22.666 0Q22.334 0 22.1045 0.229492Q21.875 0.458984 21.875 0.78125L21.875 19.9414Q21.875 20.2637 22.1045 20.4932Q22.334 20.7227 22.666 20.7227ZM20.0586 4.08203L22.666 4.08203L22.666 2.80273L20.0586 2.80273ZM20.0586 8.71094L22.666 8.71094L22.666 7.43164L20.0586 7.43164ZM20.0586 13.3301L22.666 13.3301L22.666 12.0508L20.0586 12.0508ZM20.0586 17.9492L22.666 17.9492L22.666 16.6699L20.0586 16.6699Z" fill="#007aff"/>
  <path d="M3.41797 5.33203L20.0293 5.33203Q20.3516 5.33203 20.542 5.14648Q20.7324 4.96094 20.7324 4.64844L20.7324 2.24609Q20.7324 1.93359 20.542 1.74316Q20.3516 1.55273 20.0293 1.55273L3.41797 1.55273Q3.0957 1.55273 2.90527 1.74316Q2.71484 1.93359 2.71484 2.24609L2.71484 4.64844Q2.71484 4.96094 2.90527 5.14648Q3.0957 5.33203 3.41797 5.33203ZM3.41797 9.96094L20.0293 9.96094Q20.3516 9.96094 20.542 9.77051Q20.7324 9.58008 20.7324 9.26758L20.7324 6.86523Q20.7324 6.55273 20.542 6.36719Q20.3516 6.18164 20.0293 6.18164L3.41797 6.18164Q3.0957 6.18164 2.90527 6.36719Q2.71484 6.55273 2.71484 6.86523L2.71484 9.26758Q2.71484 9.58008 2.90527 9.77051Q3.0957 9.96094 3.41797 9.96094ZM3.41797 14.5801L20.0293 14.5801Q20.3516 14.5801 20.542 14.3896Q20.7324 14.1992 20.7324 13.8867L20.7324 11.4844Q20.7324 11.1816 20.542 10.9912Q20.3516 10.8008 20.0293 10.8008L3.41797 10.8008Q3.0957 10.8008 2.90527 10.9912Q2.71484 11.1816 2.71484 11.4844L2.71484 13.8867Q2.71484 14.1992 2.90527 14.3896Q3.0957 14.5801 3.41797 14.5801ZM3.41797 19.1992L20.0293 19.1992Q20.3516 19.1992 20.542 19.0137Q20.7324 18.8281 20.7324 18.5156L20.7324 16.1133Q20.7324 15.8008 20.542 15.6104Q20.3516 15.4199 20.0293 15.4199L3.41797 15.4199Q3.0957 15.4199 2.90527 15.6104Q2.71484 15.8008 2.71484 16.1133L2.71484 18.5156Q2.71484 18.8281 2.90527 19.0137Q3.0957 19.1992 3.41797 19.1992Z" fill="#007aff"/>
 </g>
</svg>
