<?xml version="1.0" encoding="UTF-8"?>
<!--Generator: Apple Native CoreSVG 175.5-->
<!DOCTYPE svg
PUBLIC "-//W3C//DTD SVG 1.1//EN"
       "http://www.w3.org/Graphics/SVG/1.1/DTD/svg11.dtd">
<svg version="1.1" xmlns="http://www.w3.org/2000/svg" xmlns:xlink="http://www.w3.org/1999/xlink" width="20.1338" height="21.1853">
 <g>
  <rect height="21.1853" opacity="0" width="20.1338" x="0" y="0"/>
  <path d="M3.77949 16.9549Q4.79512 17.9706 5.91328 18.6542Q7.03145 19.3377 8.12031 19.7479Q9.20918 20.1581 10.1467 20.368Q11.0842 20.578 11.7287 20.6366Q12.1096 20.6756 12.3195 20.4901Q12.5295 20.3045 12.5588 20.0604Q12.5881 19.8065 12.4221 19.5672Q12.2561 19.328 11.8947 19.2792Q11.3088 19.201 10.4592 19.0057Q9.60957 18.8104 8.62324 18.4442Q7.63692 18.078 6.63594 17.4774Q5.63496 16.8768 4.75606 15.9881Q3.32051 14.5526 2.48067 12.829Q1.64082 11.1053 1.43574 9.33775Q1.23067 7.57017 1.69453 5.98326Q2.1584 4.39634 3.33028 3.22447Q4.27754 2.2772 5.49824 1.83287Q6.71895 1.38853 8.05684 1.37877Q9.39473 1.369 10.7229 1.72056Q12.051 2.07212 13.2131 2.69712L14.2287 1.7108Q12.8029 0.861187 11.2014 0.416851Q9.59981-0.0274847 7.99336 0.00181218Q6.38692 0.0311091 4.93184 0.577984Q3.47676 1.12486 2.35371 2.24791Q1.28926 3.31236 0.703322 4.70396Q0.117385 6.09556 0.0197285 7.66294Q-0.0779277 9.23033 0.307814 10.8563Q0.693557 12.4823 1.5627 14.0448Q2.43184 15.6073 3.77949 16.9549ZM7.33418 14.035Q8.29121 14.992 9.44356 15.6952Q10.5959 16.3983 11.8264 16.7938Q13.0568 17.1893 14.2727 17.2235Q15.4885 17.2577 16.5822 16.8719Q17.676 16.4862 18.5354 15.6268Q19.4143 14.7381 19.8049 13.5614Q20.1955 12.3846 20.1223 11.0321Q20.049 9.67955 19.5314 8.26353Q19.0139 6.84752 18.0666 5.49986L17.0705 6.49595Q18.0666 7.97056 18.5012 9.494Q18.9357 11.0174 18.7209 12.3602Q18.5061 13.703 17.5588 14.6502Q16.6994 15.5096 15.6008 15.7733Q14.5022 16.037 13.3107 15.8075Q12.1193 15.578 10.9621 14.9481Q9.80488 14.3182 8.82832 13.3905Z" fill="#007aff"/>
  <path d="M8.61348 12.5799L17.383 3.82017L15.9279 2.37486L7.16817 11.1249L6.36738 12.9901Q6.29903 13.1366 6.4211 13.2635Q6.54317 13.3905 6.69942 13.3319ZM18.0959 3.11705L18.8772 2.3358Q19.1604 2.05259 19.1652 1.69127Q19.1701 1.32994 18.8869 1.06627L18.633 0.83189Q18.3791 0.597515 18.0324 0.602398Q17.6857 0.607281 17.4221 0.870953L16.6506 1.66197Z" fill="#007aff"/>
 </g>
</svg>
