<?xml version="1.0" encoding="UTF-8"?>
<!--Generator: Apple Native CoreSVG 175.5-->
<!DOCTYPE svg
PUBLIC "-//W3C//DTD SVG 1.1//EN"
       "http://www.w3.org/Graphics/SVG/1.1/DTD/svg11.dtd">
<svg version="1.1" xmlns="http://www.w3.org/2000/svg" xmlns:xlink="http://www.w3.org/1999/xlink" width="17.0898" height="21.9824">
 <g>
  <rect height="21.9824" opacity="0" width="17.0898" x="0" y="0"/>
  <path d="M0 2.5L2.45117 2.5L2.45117 1.10352Q2.45117 0.576172 2.19238 0.288086Q1.93359 0 1.45508 0L0.976562 0Q0.507812 0 0.253906 0.292969Q0 0.585938 0 1.10352ZM0 19.4238L0.888672 21.6113Q0.966797 21.7871 1.17188 21.792Q1.37695 21.7969 1.45508 21.6211L2.45117 19.4238L2.45117 3.64258L0 3.64258ZM9.85352 21.8262L14.6973 21.8262Q15.7617 21.8262 16.4258 21.1621Q17.0898 20.498 17.0898 19.4336L17.0898 2.54883Q17.0898 1.48438 16.4258 0.810547Q15.7617 0.136719 14.6973 0.136719L9.85352 0.136719Q8.78906 0.136719 8.12988 0.805664Q7.4707 1.47461 7.4707 2.53906L7.4707 19.4238Q7.4707 20.498 8.12988 21.1621Q8.78906 21.8262 9.85352 21.8262ZM10.1172 20.4004Q9.56055 20.4004 9.22852 20.0732Q8.89648 19.7461 8.89648 19.209L8.89648 2.76367Q8.89648 2.22656 9.22852 1.89941Q9.56055 1.57227 10.1172 1.57227L14.4434 1.57227Q14.9902 1.57227 15.3223 1.89941Q15.6543 2.22656 15.6543 2.76367L15.6543 19.1992Q15.6543 19.7363 15.3223 20.0684Q14.9902 20.4004 14.4434 20.4004ZM16.1621 3.53516L16.1621 2.79297L11.4941 2.79297Q11.3477 2.79297 11.2402 2.89551Q11.1328 2.99805 11.1328 3.16406Q11.1328 3.31055 11.2354 3.42285Q11.3379 3.53516 11.4844 3.53516ZM16.1621 5.08789L16.1621 4.36523L13.0469 4.36523Q12.8906 4.36523 12.793 4.46777Q12.6953 4.57031 12.6953 4.73633Q12.6953 4.88281 12.7881 4.98535Q12.8809 5.08789 13.0371 5.08789ZM16.1621 6.66016L16.1621 5.9375L13.0469 5.9375Q12.8906 5.9375 12.793 6.04004Q12.6953 6.14258 12.6953 6.30859Q12.6953 6.45508 12.7881 6.55762Q12.8809 6.66016 13.0371 6.66016ZM16.1621 8.22266L16.1621 7.49023L13.0469 7.49023Q12.8906 7.49023 12.793 7.59277Q12.6953 7.69531 12.6953 7.85156Q12.6953 8.00781 12.7881 8.11523Q12.8809 8.22266 13.0371 8.22266ZM16.1621 9.78516L16.1621 9.05273L13.0469 9.05273Q12.8906 9.05273 12.793 9.15527Q12.6953 9.25781 12.6953 9.43359Q12.6953 9.57031 12.7881 9.67773Q12.8809 9.78516 13.0371 9.78516ZM16.1621 11.3379L16.1621 10.625L11.4941 10.625Q11.3477 10.625 11.2402 10.7227Q11.1328 10.8203 11.1328 10.9863Q11.1328 11.1426 11.2354 11.2402Q11.3379 11.3379 11.4844 11.3379ZM16.1621 12.9199L16.1621 12.1875L13.0469 12.1875Q12.8906 12.1875 12.793 12.29Q12.6953 12.3926 12.6953 12.5488Q12.6953 12.7051 12.7881 12.8125Q12.8809 12.9199 13.0371 12.9199ZM16.1621 14.4824L16.1621 13.7598L13.0469 13.7598Q12.8906 13.7598 12.793 13.8574Q12.6953 13.9551 12.6953 14.1211Q12.6953 14.2676 12.7881 14.375Q12.8809 14.4824 13.0371 14.4824ZM16.1621 16.0352L16.1621 15.3125L13.0469 15.3125Q12.8906 15.3125 12.793 15.415Q12.6953 15.5176 12.6953 15.6738Q12.6953 15.8203 12.7881 15.9277Q12.8809 16.0352 13.0371 16.0352ZM16.1621 17.5977L16.1621 16.875L13.0469 16.875Q12.8906 16.875 12.793 16.9727Q12.6953 17.0703 12.6953 17.2266Q12.6953 17.3926 12.7881 17.4951Q12.8809 17.5977 13.0371 17.5977ZM16.1621 19.1602L16.1621 18.4277L11.4941 18.4277Q11.3477 18.4277 11.2402 18.5303Q11.1328 18.6328 11.1328 18.7988Q11.1328 18.9453 11.2354 19.0527Q11.3379 19.1602 11.4844 19.1602Z" fill="#007aff"/>
 </g>
</svg>
