<?xml version="1.0" encoding="UTF-8"?>
<!--Generator: Apple Native CoreSVG 175-->
<!DOCTYPE svg
PUBLIC "-//W3C//DTD SVG 1.1//EN"
       "http://www.w3.org/Graphics/SVG/1.1/DTD/svg11.dtd">
<svg version="1.1" xmlns="http://www.w3.org/2000/svg" xmlns:xlink="http://www.w3.org/1999/xlink" width="16.4145" height="18.4301">
 <g>
  <rect height="18.4301" opacity="0" width="16.4145" x="0" y="0"/>
  <path d="M2.98523 8.56364Q4.37469 8.56364 5.16762 7.4174Q5.96054 6.27116 5.96054 4.32032Q5.96054 2.36948 5.16762 1.22729Q4.37469 0.0850908 2.98523 0.0850908Q1.59576 0.0850908 0.797882 1.22866Q0 2.37223 0 4.32032Q0 6.27116 0.796509 7.4174Q1.59302 8.56364 2.98523 8.56364ZM2.98523 7.92765Q1.91757 7.92765 1.31248 6.96108Q0.707397 5.99451 0.707397 4.32032Q0.707397 2.6684 1.31248 1.69337Q1.91757 0.718331 2.98523 0.718331Q4.04297 0.718331 4.64806 1.68848Q5.25314 2.65864 5.25314 4.32032Q5.25314 5.99451 4.64592 6.96108Q4.0387 7.92765 2.98523 7.92765ZM13.4392 18.345Q14.8285 18.345 15.6215 17.1987Q16.4145 16.0523 16.4145 14.1043Q16.4145 12.1536 15.6215 11.01Q14.8285 9.86643 13.4392 9.86643Q12.0497 9.86643 11.2518 11.01Q10.4539 12.1536 10.4539 14.1043Q10.4539 16.0551 11.254 17.2Q12.054 18.345 13.4392 18.345ZM13.4392 17.7117Q12.3785 17.7117 11.7699 16.7437Q11.1613 15.7757 11.1613 14.1043Q11.1613 12.4426 11.7699 11.4725Q12.3785 10.5024 13.4392 10.5024Q14.4969 10.5024 15.102 11.4676Q15.7071 12.4328 15.7071 14.1043Q15.7071 15.7757 15.1034 16.7437Q14.4997 17.7117 13.4392 17.7117ZM2.42264 18.3699Q2.54852 18.4419 2.70531 18.4176Q2.86209 18.3933 2.95593 18.2511L14.0649 0.59214Q14.1641 0.441841 14.1283 0.287728Q14.0926 0.133614 13.9738 0.0519792Q13.8536-0.0215681 13.7022 0.00894944Q13.5509 0.039467 13.4515 0.182747L2.33551 17.8352Q2.23358 17.9812 2.25822 18.1347Q2.28287 18.2882 2.42264 18.3699Z" fill="#ffffff"/>
 </g>
</svg>
