<?xml version="1.0" encoding="UTF-8"?>
<!--Generator: Apple Native CoreSVG 175.5-->
<!DOCTYPE svg
PUBLIC "-//W3C//DTD SVG 1.1//EN"
       "http://www.w3.org/Graphics/SVG/1.1/DTD/svg11.dtd">
<svg version="1.1" xmlns="http://www.w3.org/2000/svg" xmlns:xlink="http://www.w3.org/1999/xlink" width="17.8418" height="18.6582">
 <g>
  <rect height="18.6582" opacity="0" width="17.8418" x="0" y="0"/>
  <path d="M3.37891 9.09961Q4.95117 9.09961 5.84961 7.89355Q6.74805 6.6875 6.74805 4.61719Q6.74805 2.54688 5.84961 1.35547Q4.95117 0.164062 3.37891 0.164062Q1.80664 0.164062 0.90332 1.36035Q0 2.55664 0 4.61719Q0 6.6875 0.898438 7.89355Q1.79688 9.09961 3.37891 9.09961ZM3.37891 7.73242Q2.5293 7.73242 2.05078 6.91699Q1.57227 6.10156 1.57227 4.61719Q1.57227 3.16211 2.05078 2.3418Q2.5293 1.52148 3.37891 1.52148Q4.21875 1.52148 4.69727 2.33691Q5.17578 3.15234 5.17578 4.61719Q5.17578 6.10156 4.70215 6.91699Q4.22852 7.73242 3.37891 7.73242ZM14.4727 18.4941Q16.0449 18.4941 16.9434 17.2881Q17.8418 16.082 17.8418 14.0215Q17.8418 11.9512 16.9434 10.7549Q16.0449 9.55859 14.4727 9.55859Q12.9004 9.55859 11.9971 10.7549Q11.0938 11.9512 11.0938 14.0215Q11.0938 16.0918 11.9922 17.293Q12.8906 18.4941 14.4727 18.4941ZM14.4727 17.1367Q13.623 17.1367 13.1445 16.3164Q12.666 15.4961 12.666 14.0215Q12.666 12.5566 13.1445 11.7412Q13.623 10.9258 14.4727 10.9258Q15.3125 10.9258 15.791 11.7363Q16.2695 12.5469 16.2695 14.0215Q16.2695 15.4961 15.7959 16.3164Q15.3223 17.1367 14.4727 17.1367ZM2.67578 18.5332Q2.94922 18.6895 3.2959 18.6406Q3.64258 18.5918 3.87695 18.2598L15.3516 1.29688Q15.6055 0.935547 15.5029 0.598633Q15.4004 0.261719 15.127 0.0957031Q14.873-0.0410156 14.5459 0.0175781Q14.2188 0.0761719 13.9648 0.4375L2.49023 17.3516Q2.22656 17.7227 2.31445 18.0449Q2.40234 18.3672 2.67578 18.5332Z" fill="#007aff"/>
 </g>
</svg>
