<?xml version="1.0" encoding="UTF-8"?>
<!--Generator: Apple Native CoreSVG 175.5-->
<!DOCTYPE svg
PUBLIC "-//W3C//DTD SVG 1.1//EN"
       "http://www.w3.org/Graphics/SVG/1.1/DTD/svg11.dtd">
<svg version="1.1" xmlns="http://www.w3.org/2000/svg" xmlns:xlink="http://www.w3.org/1999/xlink" width="17.1777" height="20.9277">
 <g>
  <rect height="20.9277" opacity="0" width="17.1777" x="0" y="0"/>
  <path d="M8.58398 7.08008Q9.51172 7.08008 10.2637 6.60156Q11.0156 6.12305 11.4551 5.30762Q11.8945 4.49219 11.8945 3.48633Q11.8945 2.51953 11.4502 1.72852Q11.0059 0.9375 10.2588 0.46875Q9.51172 0 8.58398 0Q7.65625 0 6.90918 0.46875Q6.16211 0.9375 5.72266 1.7334Q5.2832 2.5293 5.2832 3.50586Q5.2832 4.51172 5.72266 5.31738Q6.16211 6.12305 6.90918 6.60156Q7.65625 7.08008 8.58398 7.08008ZM8.58398 5.70312Q8.05664 5.70312 7.63672 5.41992Q7.2168 5.13672 6.97754 4.64355Q6.73828 4.15039 6.73828 3.50586Q6.73828 2.89062 6.97754 2.40723Q7.2168 1.92383 7.63672 1.65039Q8.05664 1.37695 8.58398 1.37695Q9.11133 1.37695 9.53125 1.65039Q9.95117 1.92383 10.1953 2.40234Q10.4395 2.88086 10.4395 3.48633Q10.4395 4.13086 10.1953 4.62891Q9.95117 5.12695 9.53613 5.41504Q9.12109 5.70312 8.58398 5.70312ZM3.19336 14.1602L13.9746 14.1602Q14.5801 14.1602 14.917 13.8281Q15.2539 13.4961 15.2539 12.9395Q15.2539 12.1875 14.7949 11.3379Q14.3359 10.4883 13.4668 9.73145Q12.5977 8.97461 11.3672 8.50098Q10.1367 8.02734 8.58398 8.02734Q7.03125 8.02734 5.7959 8.50098Q4.56055 8.97461 3.69629 9.73145Q2.83203 10.4883 2.37305 11.3379Q1.91406 12.1875 1.91406 12.9395Q1.91406 13.4961 2.24609 13.8281Q2.57812 14.1602 3.19336 14.1602ZM3.66211 12.7832Q3.50586 12.7832 3.44238 12.7295Q3.37891 12.6758 3.38867 12.5684Q3.45703 12.1387 3.82812 11.5967Q4.19922 11.0547 4.85352 10.5518Q5.50781 10.0488 6.44531 9.72656Q7.38281 9.4043 8.58398 9.4043Q9.78516 9.4043 10.7178 9.72656Q11.6504 10.0488 12.3096 10.5518Q12.9688 11.0547 13.3398 11.5967Q13.7109 12.1387 13.7793 12.5684Q13.7891 12.6758 13.7207 12.7295Q13.6523 12.7832 13.5059 12.7832ZM0.78125 20.9277L16.3965 20.9277Q16.7188 20.9277 16.9482 20.6982Q17.1777 20.4688 17.1777 20.1465Q17.1777 19.8242 16.9482 19.5898Q16.7188 19.3555 16.3965 19.3555L15.791 19.3555L15.791 17.0801Q15.791 16.3086 15.4102 15.9033Q15.0293 15.498 14.209 15.498L2.96875 15.498Q2.14844 15.498 1.76758 15.9033Q1.38672 16.3086 1.38672 17.0801L1.38672 19.3555L0.78125 19.3555Q0.458984 19.3555 0.229492 19.5898Q0 19.8242 0 20.1465Q0 20.4688 0.229492 20.6982Q0.458984 20.9277 0.78125 20.9277ZM6.66992 18.8086Q6.42578 18.8086 6.26465 18.6426Q6.10352 18.4766 6.10352 18.2227Q6.10352 17.9785 6.26465 17.8174Q6.42578 17.6562 6.66992 17.6562L10.5273 17.6562Q10.7715 17.6562 10.9326 17.8174Q11.0938 17.9785 11.0938 18.2227Q11.0938 18.4766 10.9326 18.6426Q10.7715 18.8086 10.5273 18.8086Z" fill="#007aff"/>
 </g>
</svg>
