<?xml version="1.0" encoding="UTF-8"?>
<!--Generator: Apple Native CoreSVG 175-->
<!DOCTYPE svg
PUBLIC "-//W3C//DTD SVG 1.1//EN"
       "http://www.w3.org/Graphics/SVG/1.1/DTD/svg11.dtd">
<svg version="1.1" xmlns="http://www.w3.org/2000/svg" xmlns:xlink="http://www.w3.org/1999/xlink" width="23.418" height="17.5684">
 <g>
  <rect height="17.5684" opacity="0" width="23.418" x="0" y="0"/>
  <path d="M1.40625 17.5684L14.8242 17.5684Q15.459 17.5684 15.8447 17.2559Q16.2305 16.9434 16.2305 16.416Q16.2305 15.4883 15.6689 14.458Q15.1074 13.4277 14.0479 12.5244Q12.9883 11.6211 11.4893 11.0547Q9.99023 10.4883 8.11523 10.4883Q6.24023 10.4883 4.74121 11.0547Q3.24219 11.6211 2.18262 12.5244Q1.12305 13.4277 0.561523 14.458Q0 15.4883 0 16.416Q0 16.9434 0.385742 17.2559Q0.771484 17.5684 1.40625 17.5684ZM8.13477 8.74023Q9.20898 8.74023 10.0684 8.17871Q10.9277 7.61719 11.4355 6.66016Q11.9434 5.70312 11.9434 4.50195Q11.9434 3.36914 11.4307 2.42676Q10.918 1.48438 10.0537 0.922852Q9.18945 0.361328 8.13477 0.361328Q7.08984 0.361328 6.2207 0.927734Q5.35156 1.49414 4.83887 2.43652Q4.32617 3.37891 4.32617 4.50195Q4.32617 5.70312 4.83398 6.66016Q5.3418 7.61719 6.20605 8.17871Q7.07031 8.74023 8.13477 8.74023ZM16.0059 8.30078Q16.1719 8.30078 16.3184 8.16406L19.5117 4.96094L22.7148 8.16406Q22.8516 8.30078 23.0176 8.30078Q23.1836 8.30078 23.2959 8.19336Q23.4082 8.08594 23.4082 7.92969Q23.4082 7.76367 23.2812 7.63672L20.0586 4.41406L23.2812 1.19141Q23.418 1.06445 23.418 0.898438Q23.418 0.742188 23.3008 0.634766Q23.1836 0.527344 23.0176 0.527344Q22.8613 0.527344 22.7246 0.664062L19.5117 3.86719L16.3086 0.664062Q16.1719 0.527344 16.0059 0.527344Q15.8398 0.527344 15.7275 0.634766Q15.6152 0.742188 15.6152 0.898438Q15.6152 1.06445 15.7422 1.19141L18.9648 4.41406L15.7422 7.63672Q15.6152 7.76367 15.6152 7.92969Q15.6152 8.08594 15.7275 8.19336Q15.8398 8.30078 16.0059 8.30078Z" fill="#007aff"/>
 </g>
</svg>
