<?xml version="1.0" encoding="UTF-8"?>
<!--Generator: Apple Native CoreSVG 175.5-->
<!DOCTYPE svg
PUBLIC "-//W3C//DTD SVG 1.1//EN"
       "http://www.w3.org/Graphics/SVG/1.1/DTD/svg11.dtd">
<svg version="1.1" xmlns="http://www.w3.org/2000/svg" xmlns:xlink="http://www.w3.org/1999/xlink" width="23.0273" height="17.9785">
 <g>
  <rect height="17.9785" opacity="0" width="23.0273" x="0" y="0"/>
  <path d="M3.06641 17.9785L19.9609 17.9785Q21.5039 17.9785 22.2656 17.2217Q23.0273 16.4648 23.0273 14.9609L23.0273 3.02734Q23.0273 1.52344 22.2656 0.761719Q21.5039 0 19.9609 0L3.06641 0Q1.5332 0 0.766602 0.756836Q0 1.51367 0 3.02734L0 14.9609Q0 16.4648 0.766602 17.2217Q1.5332 17.9785 3.06641 17.9785ZM4.94141 16.5137Q5.22461 15.5859 5.83496 14.8047Q6.44531 14.0234 7.31445 13.4521Q8.18359 12.8809 9.25293 12.5635Q10.3223 12.2461 11.5234 12.2461Q12.7246 12.2461 13.7939 12.5635Q14.8633 12.8809 15.7373 13.4521Q16.6113 14.0234 17.2217 14.8047Q17.832 15.5859 18.1055 16.5137ZM11.5234 10.6152Q10.5957 10.6055 9.83887 10.127Q9.08203 9.64844 8.6377 8.82324Q8.19336 7.99805 8.18359 6.95312Q8.18359 5.97656 8.62793 5.16113Q9.07227 4.3457 9.83398 3.85742Q10.5957 3.36914 11.5234 3.36914Q12.4609 3.36914 13.2178 3.85742Q13.9746 4.3457 14.4189 5.16113Q14.8633 5.97656 14.8633 6.95312Q14.8633 7.99805 14.4189 8.83301Q13.9746 9.66797 13.2178 10.1465Q12.4609 10.625 11.5234 10.6152Z" fill="#007aff"/>
 </g>
</svg>
