<?xml version="1.0" encoding="UTF-8"?>
<!--Generator: Apple Native CoreSVG 175-->
<!DOCTYPE svg
PUBLIC "-//W3C//DTD SVG 1.1//EN"
       "http://www.w3.org/Graphics/SVG/1.1/DTD/svg11.dtd">
<svg version="1.1" xmlns="http://www.w3.org/2000/svg" xmlns:xlink="http://www.w3.org/1999/xlink" width="16.2317" height="17.5714">
 <g>
  <rect height="17.5714" opacity="0" width="16.2317" x="0" y="0"/>
  <path d="M1.40274 17.5714L14.8289 17.5714Q15.4625 17.5714 15.8471 17.2564Q16.2317 16.9414 16.2317 16.4203Q16.2317 15.4898 15.6709 14.4589Q15.1102 13.428 14.0514 12.5256Q12.9926 11.6231 11.4916 11.0588Q9.99069 10.4945 8.11447 10.4945Q6.241 10.4945 4.74007 11.0588Q3.23914 11.6231 2.17896 12.5256Q1.11877 13.428 0.559387 14.4589Q0 15.4898 0 16.4203Q0 16.9414 0.384598 17.2564Q0.769196 17.5714 1.40274 17.5714ZM8.13828 8.73947Q9.20425 8.73947 10.0648 8.17871Q10.9254 7.61795 11.4323 6.65894Q11.9391 5.69992 11.9391 4.50745Q11.9391 3.36945 11.4288 2.42783Q10.9184 1.48621 10.0543 0.925293Q9.19022 0.36438 8.13828 0.36438Q7.08633 0.36438 6.21872 0.92804Q5.3511 1.4917 4.83727 2.43469Q4.32343 3.37769 4.33044 4.50577Q4.33044 5.70267 4.83727 6.66031Q5.34409 7.61795 6.20819 8.17871Q7.0723 8.73947 8.13828 8.73947Z" fill="#007aff"/>
 </g>
</svg>
