<?xml version="1.0" encoding="UTF-8"?>
<!--Generator: Apple Native CoreSVG 175.5-->
<!DOCTYPE svg
PUBLIC "-//W3C//DTD SVG 1.1//EN"
       "http://www.w3.org/Graphics/SVG/1.1/DTD/svg11.dtd">
<svg version="1.1" xmlns="http://www.w3.org/2000/svg" xmlns:xlink="http://www.w3.org/1999/xlink" width="37.3438" height="18.4082">
 <g>
  <rect height="18.4082" opacity="0" width="37.3438" x="0" y="0"/>
  <path d="M12.5293 18.4082L24.8047 18.4082Q27.1973 18.4082 27.1973 16.8457Q27.1973 15.8887 26.6113 14.8047Q26.0254 13.7207 24.917 12.7588Q23.8086 11.7969 22.2314 11.1914Q20.6543 10.5859 18.6719 10.5859Q16.6797 10.5859 15.1025 11.1914Q13.5254 11.7969 12.417 12.7588Q11.3086 13.7207 10.7227 14.8047Q10.1367 15.8887 10.1367 16.8457Q10.1367 18.4082 12.5293 18.4082ZM12.0703 16.9336Q11.875 16.9336 11.792 16.875Q11.709 16.8164 11.709 16.6602Q11.709 16.0645 12.1631 15.2783Q12.6172 14.4922 13.5059 13.7598Q14.3945 13.0273 15.6934 12.5439Q16.9922 12.0605 18.6719 12.0605Q20.3516 12.0605 21.6455 12.5439Q22.9395 13.0273 23.8281 13.7598Q24.7168 14.4922 25.1709 15.2783Q25.625 16.0645 25.625 16.6602Q25.625 16.8164 25.542 16.875Q25.459 16.9336 25.2734 16.9336ZM18.6719 9.23828Q19.834 9.23828 20.791 8.61328Q21.748 7.98828 22.3193 6.94824Q22.8906 5.9082 22.8906 4.64844Q22.8906 3.39844 22.3242 2.3877Q21.7578 1.37695 20.8008 0.78125Q19.8438 0.185547 18.6719 0.185547Q17.5098 0.185547 16.5527 0.791016Q15.5957 1.39648 15.0244 2.41211Q14.4531 3.42773 14.4531 4.66797Q14.4531 5.91797 15.0244 6.95801Q15.5957 7.99805 16.5527 8.61816Q17.5098 9.23828 18.6719 9.23828ZM18.6719 7.76367Q17.959 7.76367 17.3584 7.34863Q16.7578 6.93359 16.3916 6.23047Q16.0254 5.52734 16.0254 4.66797Q16.0254 3.81836 16.3867 3.13965Q16.748 2.46094 17.3486 2.06055Q17.9492 1.66016 18.6719 1.66016Q19.4043 1.66016 20.0049 2.05078Q20.6055 2.44141 20.9619 3.12012Q21.3184 3.79883 21.3184 4.64844Q21.3184 5.50781 20.957 6.21582Q20.5957 6.92383 19.9951 7.34375Q19.3945 7.76367 18.6719 7.76367Z" fill="#007aff"/>
  <path d="M1.98242 18.4082L9.64844 18.4082Q9.29688 18.2129 9.07227 17.8125Q8.84766 17.4121 8.89648 16.9629L1.74805 16.9629Q1.5918 16.9629 1.52344 16.8994Q1.45508 16.8359 1.45508 16.6992Q1.45508 15.791 1.92871 14.9512Q2.40234 14.1113 3.23242 13.4473Q4.0625 12.7832 5.13672 12.3975Q6.21094 12.0117 7.41211 12.0117Q8.02734 12.0117 8.59863 12.1094Q9.16992 12.207 9.69238 12.3926Q10.2148 12.5781 10.6934 12.8613Q10.918 12.5684 11.1914 12.3096Q11.4648 12.0508 11.7969 11.8262Q11.1621 11.4062 10.4541 11.1279Q9.74609 10.8496 8.98438 10.708Q8.22266 10.5664 7.41211 10.5664Q5.87891 10.5664 4.53613 11.0742Q3.19336 11.582 2.17285 12.4609Q1.15234 13.3398 0.576172 14.4531Q0 15.5664 0 16.7871Q0 17.5977 0.498047 18.0029Q0.996094 18.4082 1.98242 18.4082ZM7.42188 9.45312Q8.42773 9.45312 9.25781 8.91113Q10.0879 8.36914 10.5859 7.45605Q11.084 6.54297 11.084 5.42969Q11.084 4.3457 10.5908 3.45703Q10.0977 2.56836 9.26758 2.04102Q8.4375 1.51367 7.42188 1.51367Q6.41602 1.51367 5.58105 2.0459Q4.74609 2.57812 4.24805 3.47656Q3.75 4.375 3.75977 5.44922Q3.75977 6.55273 4.25781 7.46094Q4.75586 8.36914 5.58594 8.91113Q6.41602 9.45312 7.42188 9.45312ZM7.42188 7.99805Q6.82617 7.99805 6.32324 7.65625Q5.82031 7.31445 5.51758 6.7334Q5.21484 6.15234 5.21484 5.44922Q5.21484 4.76562 5.5127 4.19922Q5.81055 3.63281 6.31348 3.30078Q6.81641 2.96875 7.42188 2.96875Q8.03711 2.96875 8.54004 3.2959Q9.04297 3.62305 9.34082 4.17969Q9.63867 4.73633 9.63867 5.42969Q9.63867 6.14258 9.33594 6.72852Q9.0332 7.31445 8.52539 7.65625Q8.01758 7.99805 7.42188 7.99805ZM35.3516 18.4082Q36.3477 18.4082 36.8457 18.0029Q37.3438 17.5977 37.3438 16.7871Q37.3438 15.5664 36.7676 14.4531Q36.1914 13.3398 35.1709 12.4609Q34.1504 11.582 32.8076 11.0742Q31.4648 10.5664 29.9316 10.5664Q29.1211 10.5664 28.3545 10.708Q27.5879 10.8496 26.8848 11.1279Q26.1816 11.4062 25.5469 11.8262Q25.8789 12.0508 26.1475 12.3096Q26.416 12.5684 26.6504 12.8613Q27.1289 12.5781 27.6514 12.3926Q28.1738 12.207 28.7451 12.1094Q29.3164 12.0117 29.9316 12.0117Q31.123 12.0117 32.1973 12.3975Q33.2715 12.7832 34.1016 13.4473Q34.9316 14.1113 35.4102 14.9512Q35.8887 15.791 35.8887 16.6992Q35.8887 16.8359 35.8154 16.8994Q35.7422 16.9629 35.5957 16.9629L28.4473 16.9629Q28.4961 17.4121 28.2666 17.8125Q28.0371 18.2129 27.6855 18.4082ZM29.9219 9.45312Q30.9277 9.45312 31.7578 8.91113Q32.5879 8.36914 33.0859 7.46094Q33.584 6.55273 33.584 5.44922Q33.584 4.375 33.0859 3.47656Q32.5879 2.57812 31.7578 2.0459Q30.9277 1.51367 29.9219 1.51367Q28.9062 1.51367 28.0762 2.04102Q27.2461 2.56836 26.7529 3.45703Q26.2598 4.3457 26.2598 5.42969Q26.2598 6.54297 26.7578 7.45605Q27.2559 8.36914 28.0859 8.91113Q28.916 9.45312 29.9219 9.45312ZM29.9219 7.99805Q29.3262 7.99805 28.8184 7.65625Q28.3105 7.31445 28.0078 6.72852Q27.7051 6.14258 27.7051 5.42969Q27.7051 4.73633 28.0029 4.17969Q28.3008 3.62305 28.8037 3.2959Q29.3066 2.96875 29.9219 2.96875Q30.5273 2.96875 31.0303 3.30078Q31.5332 3.63281 31.8311 4.19922Q32.1289 4.76562 32.1289 5.44922Q32.1289 6.15234 31.8262 6.7334Q31.5234 7.31445 31.0205 7.65625Q30.5176 7.99805 29.9219 7.99805Z" fill="#007aff"/>
 </g>
</svg>
