<?xml version="1.0" encoding="UTF-8"?>
<!--Generator: Apple Native CoreSVG 175.5-->
<!DOCTYPE svg
PUBLIC "-//W3C//DTD SVG 1.1//EN"
       "http://www.w3.org/Graphics/SVG/1.1/DTD/svg11.dtd">
<svg version="1.1" xmlns="http://www.w3.org/2000/svg" xmlns:xlink="http://www.w3.org/1999/xlink" width="17.5488" height="16.4941">
 <g>
  <rect height="16.4941" opacity="0" width="17.5488" x="0" y="0"/>
  <path d="M0 2.08008L0 14.3555Q0 15.5078 0.327148 15.9717Q0.654297 16.4355 1.29883 16.4355Q2.23633 16.4355 3.28125 15.8643Q4.32617 15.293 5.23926 14.2236Q6.15234 13.1543 6.72363 11.6357Q7.29492 10.1172 7.29492 8.22266Q7.29492 6.31836 6.72363 4.7998Q6.15234 3.28125 5.23926 2.21191Q4.32617 1.14258 3.28125 0.571289Q2.23633 0 1.29883 0Q0.654297 0 0.327148 0.463867Q0 0.927734 0 2.08008ZM9.04297 8.22266Q9.04297 9.26758 9.61426 10.1562Q10.1855 11.0449 11.1621 11.5869Q12.1387 12.1289 13.3594 12.1289Q14.5605 12.1289 15.5078 11.5869Q16.4551 11.0449 17.002 10.1562Q17.5488 9.26758 17.5488 8.22266Q17.5488 7.17773 16.9971 6.28906Q16.4453 5.40039 15.4883 4.8584Q14.5312 4.31641 13.3398 4.31641Q12.1289 4.31641 11.1572 4.8584Q10.1855 5.40039 9.61426 6.28906Q9.04297 7.17773 9.04297 8.22266Z" fill="#007aff"/>
 </g>
</svg>
