<?xml version="1.0" encoding="UTF-8"?>
<!--Generator: Apple Native CoreSVG 175-->
<!DOCTYPE svg
PUBLIC "-//W3C//DTD SVG 1.1//EN"
       "http://www.w3.org/Graphics/SVG/1.1/DTD/svg11.dtd">
<svg version="1.1" xmlns="http://www.w3.org/2000/svg" xmlns:xlink="http://www.w3.org/1999/xlink" width="20.3027" height="17.8809">
 <g>
  <rect height="17.8809" opacity="0" width="20.3027" x="0" y="0"/>
  <path d="M1.40625 17.7246L14.8242 17.7246Q15.459 17.7246 15.8447 17.4121Q16.2305 17.0996 16.2305 16.5723Q16.2305 15.6445 15.6689 14.6143Q15.1074 13.584 14.0479 12.6807Q12.9883 11.7773 11.4893 11.2109Q9.99023 10.6445 8.11523 10.6445Q6.24023 10.6445 4.74121 11.2109Q3.24219 11.7773 2.18262 12.6807Q1.12305 13.584 0.561523 14.6143Q0 15.6445 0 16.5723Q0 17.0996 0.385742 17.4121Q0.771484 17.7246 1.40625 17.7246ZM8.13477 8.89648Q9.20898 8.89648 10.0684 8.33496Q10.9277 7.77344 11.4355 6.81641Q11.9434 5.85938 11.9434 4.6582Q11.9434 3.52539 11.4307 2.58301Q10.918 1.64062 10.0537 1.0791Q9.18945 0.517578 8.13477 0.517578Q7.08984 0.517578 6.2207 1.08398Q5.35156 1.65039 4.83887 2.59277Q4.32617 3.53516 4.32617 4.6582Q4.32617 5.85938 4.83398 6.81641Q5.3418 7.77344 6.20605 8.33496Q7.07031 8.89648 8.13477 8.89648ZM17.4512 6.51367Q17.6172 6.51367 17.7148 6.41113Q17.8125 6.30859 17.8125 6.15234Q17.8125 6.07422 17.8125 5.99609Q17.8125 5.91797 17.8125 5.83008Q17.8125 5.37109 18.0469 5.04883Q18.2812 4.72656 18.8574 4.32617Q19.6191 3.80859 19.9609 3.31543Q20.3027 2.82227 20.3027 2.11914Q20.3027 1.50391 19.9609 1.02539Q19.6191 0.546875 19.0186 0.273438Q18.418 0 17.666 0Q16.5137 0 15.8154 0.571289Q15.1172 1.14258 15.0098 1.89453Q15 1.99219 14.9902 2.07031Q14.9805 2.14844 14.9805 2.26562Q14.9805 2.43164 15.083 2.5293Q15.1855 2.62695 15.3223 2.62695Q15.459 2.62695 15.5566 2.55371Q15.6543 2.48047 15.6836 2.35352L15.7227 2.2168Q15.752 1.81641 16.0059 1.46484Q16.2598 1.11328 16.6748 0.888672Q17.0898 0.664062 17.627 0.664062Q18.4961 0.664062 19.0088 1.08887Q19.5215 1.51367 19.5215 2.16797Q19.5215 2.67578 19.2334 3.05176Q18.9453 3.42773 18.2324 3.91602Q17.627 4.3457 17.3535 4.76562Q17.0801 5.18555 17.0801 5.79102Q17.0801 5.87891 17.0801 5.96191Q17.0801 6.04492 17.0801 6.13281Q17.0801 6.51367 17.4512 6.51367ZM17.4316 9.13086Q17.7344 9.13086 17.9395 8.9209Q18.1445 8.71094 18.1445 8.42773Q18.1445 8.13477 17.9395 7.92969Q17.7344 7.72461 17.4316 7.72461Q17.1387 7.72461 16.9287 7.92969Q16.7188 8.13477 16.7188 8.42773Q16.7188 8.71094 16.9287 8.9209Q17.1387 9.13086 17.4316 9.13086Z" fill="#000000"/>
 </g>
</svg>
