<?xml version="1.0" encoding="UTF-8"?>
<!--Generator: Apple Native CoreSVG 175-->
<!DOCTYPE svg
PUBLIC "-//W3C//DTD SVG 1.1//EN"
       "http://www.w3.org/Graphics/SVG/1.1/DTD/svg11.dtd">
<svg version="1.1" xmlns="http://www.w3.org/2000/svg" xmlns:xlink="http://www.w3.org/1999/xlink" width="38.6449" height="17.5714">
 <g>
  <rect height="17.5714" opacity="0" width="38.6449" x="0" y="0"/>
  <path d="M1.58798 17.5714L14.641 17.5714Q15.4305 17.5714 15.8311 17.3111Q16.2317 17.0508 16.2317 16.4203Q16.2317 15.4898 15.6709 14.4589Q15.1102 13.428 14.0514 12.5256Q12.9926 11.6231 11.4916 11.0588Q9.99069 10.4945 8.11447 10.4945Q6.241 10.4945 4.74007 11.0588Q3.23914 11.6231 2.17896 12.5256Q1.11877 13.428 0.559387 14.4589Q0 15.4898 0 16.4203Q0 17.0508 0.40062 17.3111Q0.801239 17.5714 1.58798 17.5714ZM8.13828 8.73947Q9.20425 8.73947 10.0648 8.17871Q10.9254 7.61795 11.4323 6.65894Q11.9391 5.69992 11.9391 4.50745Q11.9391 3.36945 11.4288 2.42783Q10.9184 1.48621 10.0543 0.925293Q9.19022 0.36438 8.13828 0.36438Q7.08633 0.36438 6.21872 0.92804Q5.3511 1.4917 4.83727 2.43469Q4.32343 3.37769 4.33044 4.50577Q4.33044 5.70267 4.83727 6.66031Q5.34409 7.61795 6.20819 8.17871Q7.0723 8.73947 8.13828 8.73947ZM19.3414 10.4945Q17.8946 10.4945 16.6721 10.8475Q15.4497 11.2004 14.4809 11.7831Q15.6688 12.7089 16.3757 13.9079Q17.0825 15.107 17.0825 16.4203Q17.0825 17.1117 16.7575 17.5714L25.8679 17.5714Q26.6547 17.5714 27.0553 17.3111Q27.4559 17.0508 27.4559 16.4203Q27.4559 15.4898 26.893 14.4589Q26.3301 13.428 25.2734 12.5256Q24.2168 11.6231 22.7158 11.0588Q21.2149 10.4945 19.3414 10.4945ZM19.3625 8.73947Q20.4312 8.73947 21.2918 8.17871Q22.1524 7.61795 22.6579 6.65894Q23.1633 5.69992 23.1633 4.50745Q23.1633 3.36945 22.6494 2.42783Q22.1355 1.48621 21.2714 0.925293Q20.4074 0.36438 19.3625 0.36438Q18.3133 0.36438 17.4443 0.92804Q16.5753 1.4917 16.0615 2.43469Q15.5476 3.37769 15.5574 4.50577Q15.5574 5.70267 16.0629 6.66031Q16.5683 7.61795 17.4324 8.17871Q18.2965 8.73947 19.3625 8.73947ZM30.5276 10.4945Q29.0976 10.4945 27.8751 10.8475Q26.6527 11.2004 25.6841 11.7734Q26.8887 12.6991 27.599 13.903Q28.3093 15.107 28.3093 16.4203Q28.3093 17.1117 27.9843 17.5714L37.0543 17.5714Q37.8508 17.5714 38.2478 17.3111Q38.6449 17.0508 38.6449 16.4203Q38.6449 15.4898 38.0842 14.4589Q37.5235 13.428 36.4647 12.5256Q35.4059 11.6231 33.9084 11.0588Q32.4109 10.4945 30.5276 10.4945ZM30.5516 8.73947Q31.6176 8.73947 32.4816 8.17871Q33.3456 7.61795 33.8525 6.65894Q34.3594 5.69992 34.3594 4.50745Q34.3594 3.36945 33.8455 2.42783Q33.3316 1.48621 32.4676 0.925293Q31.6035 0.36438 30.5516 0.36438Q29.4997 0.36438 28.632 0.92804Q27.7644 1.4917 27.2506 2.43469Q26.7368 3.37769 26.7508 4.50577Q26.7508 5.70267 27.2576 6.66031Q27.7644 7.61795 28.625 8.17871Q29.4855 8.73947 30.5516 8.73947Z" fill="#000000"/>
 </g>
</svg>
