<?xml version="1.0" encoding="UTF-8"?>
<!--Generator: Apple Native CoreSVG 175-->
<!DOCTYPE svg
PUBLIC "-//W3C//DTD SVG 1.1//EN"
       "http://www.w3.org/Graphics/SVG/1.1/DTD/svg11.dtd">
<svg version="1.1" xmlns="http://www.w3.org/2000/svg" xmlns:xlink="http://www.w3.org/1999/xlink" width="22.7894" height="17.8458">
 <g>
  <rect height="17.8458" opacity="0" width="22.7894" x="0" y="0"/>
  <path d="M0.207589 5.04532L2.45918 6.74957Q2.71476 6.9426 2.97881 6.84608Q3.24287 6.74957 3.24287 6.43448L3.24287 4.99847L5.83976 4.99847Q5.98625 4.99847 6.09481 4.89479Q6.20338 4.79111 6.20338 4.64462Q6.20338 4.49371 6.09481 4.38866Q5.98625 4.2836 5.83976 4.2836L3.24287 4.2836L3.24287 2.85583Q3.24287 2.53952 2.97958 2.44011Q2.71629 2.3407 2.45918 2.5351L0.207589 4.245Q0.00724156 4.39102 0.00022252 4.64165Q-0.00679652 4.89227 0.207589 5.04532ZM16.5897 4.64462Q16.5897 4.79111 16.6935 4.89479Q16.7973 4.99847 16.9508 4.99847L19.5476 4.99847L19.5476 6.43448Q19.5476 6.74957 19.8096 6.84608Q20.0715 6.9426 20.3242 6.74957L22.5828 5.04532Q22.7929 4.89227 22.7894 4.64165Q22.7859 4.39102 22.5828 4.245L20.3242 2.5351Q20.0741 2.3407 19.8109 2.44011Q19.5476 2.53952 19.5476 2.85583L19.5476 4.2836L16.9508 4.2836Q16.7973 4.2836 16.6935 4.38866Q16.5897 4.49371 16.5897 4.64462ZM4.86869 17.8458L17.9218 17.8458Q19.6561 17.8458 19.6561 16.5575Q19.6561 15.6145 19.0842 14.5586Q18.5123 13.5028 17.4356 12.5796Q16.3589 11.6563 14.8309 11.0754Q13.303 10.4945 11.3952 10.4945Q9.4831 10.4945 7.95867 11.0754Q6.43424 11.6563 5.35613 12.5796Q4.27802 13.5028 3.7075 14.5586Q3.13697 15.6145 3.13697 16.5575Q3.13697 17.8458 4.86869 17.8458ZM4.76554 17.1375Q4.24949 17.1375 4.05403 17.0016Q3.85856 16.8657 3.85856 16.5196Q3.85856 15.7059 4.36538 14.7826Q4.8722 13.8594 5.84876 13.0461Q6.82533 12.2328 8.2212 11.7178Q9.61707 11.2029 11.3952 11.2029Q13.1733 11.2029 14.5705 11.7178Q15.9678 12.2328 16.9395 13.0461Q17.9111 13.8594 18.4229 14.7826Q18.9347 15.7059 18.9347 16.5196Q18.9347 16.8657 18.7357 17.0016Q18.5366 17.1375 18.0178 17.1375ZM11.419 9.01642Q12.5249 9.01642 13.4186 8.43361Q14.3124 7.8508 14.8379 6.85997Q15.3635 5.86914 15.3635 4.64462Q15.3635 3.46481 14.8288 2.49275Q14.294 1.52069 13.3989 0.942612Q12.5037 0.364532 11.419 0.364532Q10.3272 0.364532 9.42642 0.948868Q8.52561 1.5332 7.99301 2.50313Q7.4604 3.47305 7.46742 4.64294Q7.47444 5.87189 8.00002 6.86272Q8.52561 7.85355 9.41589 8.43498Q10.3062 9.01642 11.419 9.01642ZM11.419 8.30826Q10.5163 8.30826 9.78423 7.82639Q9.05219 7.34451 8.62411 6.51482Q8.19602 5.68512 8.19602 4.64294Q8.18199 3.66684 8.61572 2.85454Q9.04945 2.04224 9.78851 1.55746Q10.5276 1.07269 11.419 1.07269Q12.3034 1.07269 13.0354 1.55472Q13.7675 2.03674 14.2048 2.84554Q14.6421 3.65433 14.6421 4.64462Q14.6421 5.67978 14.2104 6.51077Q13.7788 7.34177 13.0516 7.82501Q12.3244 8.30826 11.419 8.30826Z" fill="#007aff"/>
 </g>
</svg>
