<?xml version="1.0" encoding="UTF-8"?>
<!--Generator: Apple Native CoreSVG 175.5-->
<!DOCTYPE svg
PUBLIC "-//W3C//DTD SVG 1.1//EN"
       "http://www.w3.org/Graphics/SVG/1.1/DTD/svg11.dtd">
<svg version="1.1" xmlns="http://www.w3.org/2000/svg" xmlns:xlink="http://www.w3.org/1999/xlink" width="19.9219" height="19.9316">
 <g>
  <rect height="19.9316" opacity="0" width="19.9219" x="0" y="0"/>
  <path d="M9.96094 19.9219Q12.002 19.9219 13.8037 19.1406Q15.6055 18.3594 16.9824 16.9824Q18.3594 15.6055 19.1406 13.8037Q19.9219 12.002 19.9219 9.96094Q19.9219 7.91992 19.1406 6.11816Q18.3594 4.31641 16.9824 2.93945Q15.6055 1.5625 13.7988 0.78125Q11.9922 0 9.95117 0Q7.91016 0 6.1084 0.78125Q4.30664 1.5625 2.93457 2.93945Q1.5625 4.31641 0.78125 6.11816Q0 7.91992 0 9.96094Q0 12.002 0.78125 13.8037Q1.5625 15.6055 2.93945 16.9824Q4.31641 18.3594 6.11816 19.1406Q7.91992 19.9219 9.96094 19.9219ZM9.96094 18.2617Q8.23242 18.2617 6.72852 17.6172Q5.22461 16.9727 4.08691 15.835Q2.94922 14.6973 2.30957 13.1934Q1.66992 11.6895 1.66992 9.96094Q1.66992 8.23242 2.30957 6.72852Q2.94922 5.22461 4.08203 4.08203Q5.21484 2.93945 6.71875 2.2998Q8.22266 1.66016 9.95117 1.66016Q11.6797 1.66016 13.1885 2.2998Q14.6973 2.93945 15.835 4.08203Q16.9727 5.22461 17.6172 6.72852Q18.2617 8.23242 18.2617 9.96094Q18.2617 11.6895 17.6221 13.1934Q16.9824 14.6973 15.8398 15.835Q14.6973 16.9727 13.1934 17.6172Q11.6895 18.2617 9.96094 18.2617Z" fill="#007aff"/>
  <path d="M3.39844 8.96484Q3.39844 10.1758 4.16992 10.9473Q4.94141 11.7188 6.15234 11.7188L6.48438 11.7188Q6.43555 11.5234 6.4209 11.2109Q6.40625 10.8984 6.43555 10.6641L6.21094 10.6641Q5.45898 10.6641 4.98535 10.1953Q4.51172 9.72656 4.51172 8.96484Q4.51172 8.21289 4.98535 7.73438Q5.45898 7.25586 6.21094 7.25586L10.1465 7.25586Q10.8984 7.25586 11.3721 7.73438Q11.8457 8.21289 11.8457 8.96484Q11.8457 9.72656 11.3721 10.1953Q10.8984 10.6641 10.1465 10.6641L8.68164 10.6641Q8.59375 10.8887 8.6377 11.1963Q8.68164 11.5039 8.90625 11.7188L10.1953 11.7188Q11.4062 11.7188 12.1777 10.9473Q12.9492 10.1758 12.9492 8.96484Q12.9492 7.76367 12.1729 6.98242Q11.3965 6.20117 10.1953 6.20117L6.15234 6.20117Q4.94141 6.20117 4.16992 6.98242Q3.39844 7.76367 3.39844 8.96484ZM6.96289 11.0352Q6.96289 12.2461 7.73926 13.0225Q8.51562 13.7988 9.7168 13.7988L13.7598 13.7988Q14.9707 13.7988 15.7422 13.0225Q16.5137 12.2461 16.5137 11.0352Q16.5137 9.83398 15.7422 9.05762Q14.9707 8.28125 13.7598 8.28125L13.4277 8.28125Q13.4668 8.48633 13.4961 8.74023Q13.5254 8.99414 13.4766 9.33594L13.7012 9.33594Q14.4531 9.33594 14.9268 9.80957Q15.4004 10.2832 15.4004 11.0352Q15.4004 11.7871 14.9268 12.2656Q14.4531 12.7441 13.7012 12.7441L9.77539 12.7441Q9.01367 12.7441 8.54004 12.2656Q8.06641 11.7871 8.06641 11.0352Q8.06641 10.2832 8.54004 9.80957Q9.01367 9.33594 9.77539 9.33594L11.2305 9.33594Q11.3184 9.13086 11.2793 8.80371Q11.2402 8.47656 11.0156 8.28125L9.7168 8.28125Q8.51562 8.28125 7.73926 9.05762Q6.96289 9.83398 6.96289 11.0352Z" fill="#007aff"/>
 </g>
</svg>
