<?xml version="1.0" encoding="UTF-8"?>
<!--Generator: Apple Native CoreSVG 175-->
<!DOCTYPE svg
PUBLIC "-//W3C//DTD SVG 1.1//EN"
       "http://www.w3.org/Graphics/SVG/1.1/DTD/svg11.dtd">
<svg version="1.1" xmlns="http://www.w3.org/2000/svg" xmlns:xlink="http://www.w3.org/1999/xlink" width="20.2637" height="20.1465">
 <g>
  <rect height="20.1465" opacity="0" width="20.2637" x="0" y="0"/>
  <path d="M2.60742 20.1367L17.6562 20.1367Q18.9355 20.1367 19.5996 19.4629Q20.2637 18.7891 20.2637 17.5293L20.2637 7.31445Q20.2637 6.05469 19.5996 5.38086Q18.9355 4.70703 17.6562 4.70703L2.60742 4.70703Q1.32812 4.70703 0.664062 5.37109Q0 6.03516 0 7.31445L0 17.5293Q0 18.8184 0.664062 19.4775Q1.32812 20.1367 2.60742 20.1367ZM2.09961 2.90039L18.1738 2.90039Q18.1445 2.60742 17.9736 2.41211Q17.8027 2.2168 17.4902 2.2168L2.7832 2.2168Q2.46094 2.2168 2.29004 2.41211Q2.11914 2.60742 2.09961 2.90039ZM3.94531 0.654297L16.3184 0.654297Q16.3184 0.371094 16.1426 0.185547Q15.9668 0 15.6543 0L4.60938 0Q4.30664 0 4.13086 0.185547Q3.95508 0.371094 3.94531 0.654297ZM4.0625 19.4043Q4.24805 18.5938 4.78027 17.8662Q5.3125 17.1387 6.10352 16.5723Q6.89453 16.0059 7.87109 15.6836Q8.84766 15.3613 9.92188 15.3613Q11.0059 15.3613 11.9824 15.6836Q12.959 16.0059 13.75 16.5723Q14.541 17.1387 15.0684 17.8662Q15.5957 18.5938 15.791 19.4043ZM9.92188 13.9844Q9.13086 13.9844 8.48145 13.5742Q7.83203 13.1641 7.45605 12.4561Q7.08008 11.748 7.08008 10.8594Q7.08008 10.0195 7.45605 9.32129Q7.83203 8.62305 8.48145 8.20801Q9.13086 7.79297 9.92188 7.79297Q10.7227 7.79297 11.3721 8.20801Q12.0215 8.62305 12.3975 9.32129Q12.7734 10.0195 12.7734 10.8594Q12.7734 11.748 12.3975 12.4512Q12.0215 13.1543 11.3721 13.5693Q10.7227 13.9844 9.92188 13.9844Z" fill="#ffffff"/>
 </g>
</svg>
