<?xml version="1.0" encoding="UTF-8"?>
<!--Generator: Apple Native CoreSVG 175-->
<!DOCTYPE svg
PUBLIC "-//W3C//DTD SVG 1.1//EN"
       "http://www.w3.org/Graphics/SVG/1.1/DTD/svg11.dtd">
<svg version="1.1" xmlns="http://www.w3.org/2000/svg" xmlns:xlink="http://www.w3.org/1999/xlink" width="17.2852" height="17.3145">
 <g>
  <rect height="17.3145" opacity="0" width="17.2852" x="0" y="0"/>
  <path d="M2.62695 17.3145L14.6484 17.3145Q15.957 17.3145 16.6211 16.6455Q17.2852 15.9766 17.2852 14.6875L17.2852 2.65625Q17.2852 1.37695 16.6211 0.703125Q15.957 0.0292969 14.6484 0.0292969L2.62695 0.0292969Q1.33789 0.0292969 0.668945 0.693359Q0 1.35742 0 2.65625L0 14.6875Q0 15.9863 0.668945 16.6504Q1.33789 17.3145 2.62695 17.3145Z" fill="#ffffff"/>
  <path d="M5.49805 7.14844Q5.49805 7.02148 5.58105 6.93848Q5.66406 6.85547 5.80078 6.85547L6.34766 6.85547L6.34766 4.92188Q6.34766 4.76562 6.44043 4.67285Q6.5332 4.58008 6.67969 4.58008L8.78906 4.58008Q9.99023 4.58008 10.7178 5.19043Q11.4453 5.80078 11.543 6.85547L12.0801 6.85547Q12.373 6.85547 12.373 7.14844Q12.373 7.28516 12.2949 7.37305Q12.2168 7.46094 12.0801 7.46094L11.543 7.46094Q11.4551 8.52539 10.7275 9.15527Q10 9.78516 8.78906 9.78516L7.02148 9.78516L7.02148 12.8125Q7.02148 12.9785 6.92871 13.0664Q6.83594 13.1543 6.68945 13.1543Q6.5332 13.1543 6.44043 13.0664Q6.34766 12.9785 6.34766 12.8125L6.34766 7.46094L5.80078 7.46094Q5.66406 7.46094 5.58105 7.37305Q5.49805 7.28516 5.49805 7.14844ZM7.03125 9.15039L8.74023 9.15039Q9.66797 9.15039 10.2246 8.70117Q10.7812 8.25195 10.8691 7.46094L7.03125 7.46094ZM7.03125 6.85547L10.8691 6.85547Q10.7715 6.07422 10.2148 5.64453Q9.6582 5.21484 8.74023 5.21484L7.03125 5.21484Z" fill="#ffffff"/>
 </g>
</svg>
