<?xml version="1.0" encoding="UTF-8"?>
<!--Generator: Apple Native CoreSVG 175-->
<!DOCTYPE svg
PUBLIC "-//W3C//DTD SVG 1.1//EN"
       "http://www.w3.org/Graphics/SVG/1.1/DTD/svg11.dtd">
<svg version="1.1" xmlns="http://www.w3.org/2000/svg" xmlns:xlink="http://www.w3.org/1999/xlink" width="19.1602" height="19.1504">
 <g>
  <rect height="19.1504" opacity="0" width="19.1602" x="0" y="0"/>
  <path d="M9.57031 19.1406Q11.5527 19.1406 13.2861 18.3984Q15.0195 17.6562 16.3379 16.333Q17.6562 15.0098 18.4082 13.2764Q19.1602 11.543 19.1602 9.57031Q19.1602 7.59766 18.4082 5.86426Q17.6562 4.13086 16.3379 2.80762Q15.0195 1.48438 13.2861 0.742188Q11.5527 0 9.57031 0Q7.59766 0 5.86426 0.742188Q4.13086 1.48438 2.81738 2.80762Q1.50391 4.13086 0.751953 5.86426Q0 7.59766 0 9.57031Q0 11.543 0.74707 13.2764Q1.49414 15.0098 2.8125 16.333Q4.13086 17.6562 5.86914 18.3984Q7.60742 19.1406 9.57031 19.1406ZM9.57031 18.3984Q7.74414 18.3984 6.14746 17.71Q4.55078 17.0215 3.33496 15.8105Q2.11914 14.5996 1.43555 12.998Q0.751953 11.3965 0.751953 9.57031Q0.751953 7.74414 1.43555 6.14258Q2.11914 4.54102 3.33496 3.3252Q4.55078 2.10938 6.14746 1.4209Q7.74414 0.732422 9.57031 0.732422Q11.4062 0.732422 13.0029 1.4209Q14.5996 2.10938 15.8154 3.3252Q17.0312 4.54102 17.7197 6.14258Q18.4082 7.74414 18.4082 9.57031Q18.4082 11.3965 17.7246 12.998Q17.041 14.5996 15.8252 15.8105Q14.6094 17.0215 13.0078 17.71Q11.4062 18.3984 9.57031 18.3984ZM6.44531 8.08594Q6.44531 8.22266 6.52832 8.30078Q6.61133 8.37891 6.73828 8.37891L7.28516 8.37891L7.28516 13.7012Q7.28516 13.8672 7.38281 13.9551Q7.48047 14.043 7.62695 14.043Q7.77344 14.043 7.86621 13.9551Q7.95898 13.8672 7.95898 13.7012L7.95898 10.6934L9.70703 10.6934Q10.918 10.6934 11.6357 10.0684Q12.3535 9.44336 12.4414 8.37891L12.9688 8.37891Q13.1055 8.37891 13.1885 8.30078Q13.2715 8.22266 13.2715 8.08594Q13.2715 7.94922 13.1885 7.86621Q13.1055 7.7832 12.9688 7.7832L12.4512 7.7832Q12.3438 6.74805 11.6211 6.13281Q10.8984 5.51758 9.70703 5.51758L7.61719 5.51758Q7.28516 5.51758 7.28516 5.85938L7.28516 7.7832L6.73828 7.7832Q6.61133 7.7832 6.52832 7.86621Q6.44531 7.94922 6.44531 8.08594ZM7.95898 10.0684L7.95898 8.37891L11.7773 8.37891Q11.6992 9.16992 11.1475 9.61914Q10.5957 10.0684 9.66797 10.0684ZM7.95898 7.7832L7.95898 6.15234L9.66797 6.15234Q10.5762 6.15234 11.1279 6.58203Q11.6797 7.01172 11.7676 7.7832Z" fill="#007aff"/>
 </g>
</svg>
