<?xml version="1.0" encoding="UTF-8"?>
<!--Generator: Apple Native CoreSVG 175.5-->
<!DOCTYPE svg
PUBLIC "-//W3C//DTD SVG 1.1//EN"
       "http://www.w3.org/Graphics/SVG/1.1/DTD/svg11.dtd">
<svg version="1.1" xmlns="http://www.w3.org/2000/svg" xmlns:xlink="http://www.w3.org/1999/xlink" width="14.5215" height="18.1738">
 <g>
  <rect height="18.1738" opacity="0" width="14.5215" x="0" y="0"/>
  <path d="M1.94336 17.2461Q1.94336 17.627 2.2168 17.9004Q2.49023 18.1738 2.88086 18.1738Q3.26172 18.1738 3.53516 17.9004Q3.80859 17.627 3.80859 17.2461L3.80859 11.4551L7.32422 11.4551Q8.98438 11.4551 10.249 10.7568Q11.5137 10.0586 12.2217 8.81348Q12.9297 7.56836 12.9297 5.92773Q12.9297 4.29688 12.2559 3.06152Q11.582 1.82617 10.3467 1.13281Q9.11133 0.439453 7.42188 0.439453L2.88086 0.439453Q2.45117 0.439453 2.19727 0.703125Q1.94336 0.966797 1.94336 1.40625ZM3.80859 9.81445L3.80859 2.09961L6.96289 2.09961Q8.30078 2.09961 9.2041 2.54883Q10.1074 2.99805 10.5615 3.85254Q11.0156 4.70703 11.0156 5.92773Q11.0156 7.14844 10.5322 8.01758Q10.0488 8.88672 9.12598 9.35059Q8.20312 9.81445 6.88477 9.81445ZM0 4.62891Q0 4.89258 0.185547 5.07812Q0.371094 5.26367 0.634766 5.26367L13.877 5.26367Q14.1406 5.26367 14.3311 5.07812Q14.5215 4.89258 14.5215 4.62891Q14.5215 4.36523 14.3311 4.17969Q14.1406 3.99414 13.877 3.99414L0.634766 3.99414Q0.371094 3.99414 0.185547 4.17969Q0 4.36523 0 4.62891ZM0 7.73438Q0 7.99805 0.185547 8.18359Q0.371094 8.36914 0.634766 8.36914L13.877 8.36914Q14.1406 8.36914 14.3311 8.18359Q14.5215 7.99805 14.5215 7.73438Q14.5215 7.4707 14.3311 7.28516Q14.1406 7.09961 13.877 7.09961L0.634766 7.09961Q0.371094 7.09961 0.185547 7.28516Q0 7.4707 0 7.73438Z" fill="#007aff"/>
 </g>
</svg>
