<?xml version="1.0" encoding="UTF-8"?>
<!--Generator: Apple Native CoreSVG 175.5-->
<!DOCTYPE svg
PUBLIC "-//W3C//DTD SVG 1.1//EN"
       "http://www.w3.org/Graphics/SVG/1.1/DTD/svg11.dtd">
<svg version="1.1" xmlns="http://www.w3.org/2000/svg" xmlns:xlink="http://www.w3.org/1999/xlink" width="17.9785" height="17.998">
 <g>
  <rect height="17.998" opacity="0" width="17.9785" x="0" y="0"/>
  <path d="M3.06641 17.998L14.9121 17.998Q16.4453 17.998 17.2119 17.2412Q17.9785 16.4844 17.9785 14.9707L17.9785 3.04688Q17.9785 1.5332 17.2119 0.776367Q16.4453 0.0195312 14.9121 0.0195312L3.06641 0.0195312Q1.5332 0.0195312 0.766602 0.776367Q0 1.5332 0 3.04688L0 14.9707Q0 16.4844 0.766602 17.2412Q1.5332 17.998 3.06641 17.998ZM3.08594 16.4258Q2.35352 16.4258 1.96289 16.04Q1.57227 15.6543 1.57227 14.8926L1.57227 3.125Q1.57227 2.36328 1.96289 1.97754Q2.35352 1.5918 3.08594 1.5918L14.8926 1.5918Q15.6152 1.5918 16.0107 1.97754Q16.4062 2.36328 16.4062 3.125L16.4062 14.8926Q16.4062 15.6543 16.0107 16.04Q15.6152 16.4258 14.8926 16.4258Z" fill="#007aff"/>
  <path d="M5.41016 8.4375Q5.41016 8.63281 5.54688 8.77441Q5.68359 8.91602 5.88867 8.91602L6.48438 8.91602L6.48438 13.252Q6.48438 13.5352 6.66992 13.7109Q6.85547 13.8867 7.12891 13.8867Q7.41211 13.8867 7.58789 13.7109Q7.76367 13.5352 7.76367 13.252L7.76367 10.752L9.47266 10.752Q10.4688 10.752 11.2061 10.2539Q11.9434 9.75586 12.2656 8.91602L12.9199 8.91602Q13.1348 8.91602 13.2666 8.77441Q13.3984 8.63281 13.3984 8.4375Q13.3984 8.22266 13.2666 8.08594Q13.1348 7.94922 12.9199 7.94922L12.4805 7.94922Q12.4902 7.83203 12.4902 7.64648Q12.4902 7.56836 12.4902 7.49512Q12.4902 7.42188 12.4805 7.33398L12.9199 7.33398Q13.1348 7.33398 13.2666 7.19238Q13.3984 7.05078 13.3984 6.8457Q13.3984 6.63086 13.2666 6.49902Q13.1348 6.36719 12.9199 6.36719L12.2559 6.36719Q11.9336 5.53711 11.2012 5.04395Q10.4688 4.55078 9.47266 4.55078L7.10938 4.55078Q6.48438 4.55078 6.48438 5.20508L6.48438 6.36719L5.88867 6.36719Q5.68359 6.36719 5.54688 6.49902Q5.41016 6.63086 5.41016 6.8457Q5.41016 7.05078 5.54688 7.19238Q5.68359 7.33398 5.88867 7.33398L6.48438 7.33398L6.48438 7.94922L5.88867 7.94922Q5.68359 7.94922 5.54688 8.08594Q5.41016 8.22266 5.41016 8.4375ZM7.77344 9.58984L7.77344 8.91602L10.8398 8.91602Q10.3223 9.58984 9.26758 9.58984ZM7.77344 7.94922L7.77344 7.33398L11.2207 7.33398Q11.2305 7.45117 11.2305 7.64648Q11.2305 7.83203 11.2207 7.94922ZM7.77344 6.36719L7.77344 5.71289L9.26758 5.71289Q10.3223 5.71289 10.8301 6.36719Z" fill="#007aff"/>
 </g>
</svg>
