<?xml version="1.0" encoding="UTF-8"?>
<!--Generator: Apple Native CoreSVG 175.5-->
<!DOCTYPE svg
PUBLIC "-//W3C//DTD SVG 1.1//EN"
       "http://www.w3.org/Graphics/SVG/1.1/DTD/svg11.dtd">
<svg version="1.1" xmlns="http://www.w3.org/2000/svg" xmlns:xlink="http://www.w3.org/1999/xlink" width="19.9219" height="19.9316">
 <g>
  <rect height="19.9316" opacity="0" width="19.9219" x="0" y="0"/>
  <path d="M9.96094 19.9219Q12.002 19.9219 13.8037 19.1406Q15.6055 18.3594 16.9824 16.9824Q18.3594 15.6055 19.1406 13.8037Q19.9219 12.002 19.9219 9.96094Q19.9219 7.91992 19.1406 6.11816Q18.3594 4.31641 16.9824 2.93945Q15.6055 1.5625 13.7988 0.78125Q11.9922 0 9.95117 0Q7.91016 0 6.1084 0.78125Q4.30664 1.5625 2.93457 2.93945Q1.5625 4.31641 0.78125 6.11816Q0 7.91992 0 9.96094Q0 12.002 0.78125 13.8037Q1.5625 15.6055 2.93945 16.9824Q4.31641 18.3594 6.11816 19.1406Q7.91992 19.9219 9.96094 19.9219Z" fill="#007aff"/>
  <path d="M6.25977 9.39453Q6.25977 9.16992 6.40137 9.02832Q6.54297 8.88672 6.74805 8.88672L7.36328 8.88672L7.36328 8.25195L6.74805 8.25195Q6.54297 8.25195 6.40137 8.10547Q6.25977 7.95898 6.25977 7.74414Q6.25977 7.5293 6.40137 7.39258Q6.54297 7.25586 6.74805 7.25586L7.36328 7.25586L7.36328 6.05469Q7.36328 5.74219 7.53906 5.56152Q7.71484 5.38086 8.01758 5.38086L10.4492 5.38086Q11.4844 5.38086 12.2363 5.88867Q12.9883 6.39648 13.3301 7.25586L14.0137 7.25586Q14.502 7.25586 14.502 7.74414Q14.502 7.95898 14.3652 8.10547Q14.2285 8.25195 14.0137 8.25195L13.5547 8.25195Q13.5645 8.34961 13.5645 8.42285Q13.5645 8.49609 13.5645 8.57422Q13.5645 8.76953 13.5547 8.88672L14.0137 8.88672Q14.2285 8.88672 14.3652 9.02832Q14.502 9.16992 14.502 9.39453Q14.502 9.59961 14.3652 9.74121Q14.2285 9.88281 14.0137 9.88281L13.3398 9.88281Q12.998 10.752 12.2412 11.2695Q11.4844 11.7871 10.4492 11.7871L8.69141 11.7871L8.69141 14.3555Q8.69141 14.6484 8.51074 14.8291Q8.33008 15.0098 8.03711 15.0098Q7.75391 15.0098 7.55859 14.8291Q7.36328 14.6484 7.36328 14.3555L7.36328 9.88281L6.74805 9.88281Q6.54297 9.88281 6.40137 9.74121Q6.25977 9.59961 6.25977 9.39453ZM8.70117 10.5762L10.2441 10.5762Q11.3379 10.5762 11.8555 9.88281L8.70117 9.88281ZM8.70117 8.88672L12.2559 8.88672Q12.2656 8.80859 12.2656 8.73047Q12.2656 8.65234 12.2656 8.57422Q12.2656 8.36914 12.2559 8.25195L8.70117 8.25195ZM8.70117 7.25586L11.8457 7.25586Q11.5918 6.93359 11.1914 6.75781Q10.791 6.58203 10.2441 6.58203L8.70117 6.58203Z" fill="#ffffff"/>
 </g>
</svg>
