<?xml version="1.0" encoding="UTF-8"?>
<!--Generator: Apple Native CoreSVG 175-->
<!DOCTYPE svg
PUBLIC "-//W3C//DTD SVG 1.1//EN"
       "http://www.w3.org/Graphics/SVG/1.1/DTD/svg11.dtd">
<svg version="1.1" xmlns="http://www.w3.org/2000/svg" xmlns:xlink="http://www.w3.org/1999/xlink" width="18.9844" height="20.166">
 <g>
  <rect height="20.166" opacity="0" width="18.9844" x="0" y="0"/>
  <path d="M13.3203 19.0039Q14.3555 19.0039 15.2295 18.6719Q16.1035 18.3398 16.8457 17.5781Q16.8652 17.5488 16.8896 17.5244Q16.9141 17.5 16.9434 17.4805Q17.3828 17.0312 17.5928 16.5625Q17.8027 16.0938 17.8027 15.6641Q17.8027 15.2539 17.5879 14.8828Q17.373 14.5117 16.9336 14.2188L14.1211 12.3047Q13.5938 11.9336 12.9736 11.9238Q12.3535 11.9141 11.6895 12.5586L11.0352 13.1934Q10.8691 13.3594 10.6641 13.3936Q10.459 13.4277 10.2148 13.3008Q10.0098 13.1934 9.60449 12.8955Q9.19922 12.5977 8.70117 12.1777Q8.20312 11.7578 7.71484 11.2695Q7.1582 10.7227 6.78223 10.3076Q6.40625 9.89258 6.15234 9.53125Q5.89844 9.16992 5.69336 8.7793Q5.56641 8.53516 5.60547 8.33496Q5.64453 8.13477 5.81055 7.96875L6.44531 7.31445Q7.08984 6.65039 7.0752 6.02539Q7.06055 5.40039 6.69922 4.87305L4.77539 2.06055Q4.48242 1.63086 4.11621 1.4209Q3.75 1.21094 3.33984 1.20117Q2.42188 1.18164 1.52344 2.06055Q1.49414 2.08984 1.46973 2.10938Q1.44531 2.12891 1.42578 2.1582Q0.673828 2.88086 0.336914 3.75Q0 4.61914 0 5.625Q0 6.96289 0.581055 8.42773Q1.16211 9.89258 2.21191 11.3867Q3.26172 12.8809 4.69727 14.3066Q6.11328 15.7129 7.59766 16.7725Q9.08203 17.832 10.5322 18.418Q11.9824 19.0039 13.3203 19.0039ZM13.3203 18.2422Q12.0801 18.2422 10.7031 17.6807Q9.32617 17.1191 7.91992 16.1133Q6.51367 15.1074 5.21484 13.8086Q3.90625 12.4902 2.90039 11.0791Q1.89453 9.66797 1.32324 8.27637Q0.751953 6.88477 0.751953 5.63477Q0.761719 4.80469 1.0498 4.0625Q1.33789 3.32031 1.95312 2.72461Q1.98242 2.69531 2.00684 2.67578Q2.03125 2.65625 2.05078 2.62695Q2.39258 2.30469 2.70996 2.14844Q3.02734 1.99219 3.30078 1.99219Q3.79883 1.99219 4.15039 2.50977L6.04492 5.30273Q6.26953 5.63477 6.27441 6.00586Q6.2793 6.37695 5.87891 6.77734L5.14648 7.49023Q4.80469 7.83203 4.77051 8.27637Q4.73633 8.7207 4.96094 9.10156Q5.21484 9.55078 5.80566 10.2588Q6.39648 10.9668 7.19727 11.7773Q7.73438 12.3242 8.24219 12.7734Q8.75 13.2227 9.1748 13.5449Q9.59961 13.8672 9.89258 14.043Q10.2734 14.2578 10.7178 14.2285Q11.1621 14.1992 11.5137 13.8477L12.2266 13.125Q12.6172 12.7246 12.9932 12.7295Q13.3691 12.7344 13.6914 12.9492L16.4941 14.8438Q16.7578 15.0293 16.8848 15.2393Q17.0117 15.4492 17.0117 15.6934Q17.0117 16.2891 16.3574 16.9531Q16.3281 16.9824 16.3135 17.002Q16.2988 17.0215 16.2793 17.041Q15.6641 17.666 14.9219 17.9541Q14.1797 18.2422 13.3203 18.2422ZM10.0977 8.89648Q10.459 9.25781 10.9814 9.25781Q11.5039 9.25781 11.875 8.88672Q12.2363 8.52539 12.2363 8.00781Q12.2363 7.49023 11.875 7.12891Q11.5039 6.75781 10.9814 6.75781Q10.459 6.75781 10.0977 7.11914Q9.72656 7.49023 9.72656 8.00781Q9.72656 8.52539 10.0977 8.89648ZM11.0547 4.10156Q10.9473 4.19922 10.9473 4.35059Q10.9473 4.50195 11.0547 4.60938L14.3848 7.93945Q14.4922 8.04688 14.6436 8.04688Q14.7949 8.04688 14.8926 7.93945Q15 7.83203 15 7.68555Q15 7.53906 14.8926 7.43164L11.5723 4.10156Q11.4551 3.99414 11.3037 3.99414Q11.1523 3.99414 11.0547 4.10156ZM14.082 4.91211Q14.4434 5.27344 14.9658 5.26855Q15.4883 5.26367 15.8594 4.90234Q16.2207 4.53125 16.2207 4.01855Q16.2207 3.50586 15.8594 3.1543Q15.4883 2.77344 14.9658 2.77344Q14.4434 2.77344 14.082 3.14453Q13.7109 3.50586 13.7109 4.02344Q13.7109 4.54102 14.082 4.91211ZM15.0488 0.117188Q14.9414 0.224609 14.9414 0.371094Q14.9414 0.517578 15.0488 0.625L18.3691 3.95508Q18.4668 4.0625 18.623 4.0625Q18.7793 4.0625 18.877 3.95508Q18.9844 3.84766 18.9844 3.69629Q18.9844 3.54492 18.877 3.4375L15.5566 0.117188Q15.4492 0 15.2979 0Q15.1465 0 15.0488 0.117188Z" fill="#000000"/>
 </g>
</svg>
