<?xml version="1.0" encoding="UTF-8"?>
<!--Generator: Apple Native CoreSVG 175.5-->
<!DOCTYPE svg
PUBLIC "-//W3C//DTD SVG 1.1//EN"
       "http://www.w3.org/Graphics/SVG/1.1/DTD/svg11.dtd">
<svg version="1.1" xmlns="http://www.w3.org/2000/svg" xmlns:xlink="http://www.w3.org/1999/xlink" width="23.6328" height="9.87305">
 <g>
  <rect height="9.87305" opacity="0" width="23.6328" x="0" y="0"/>
  <path d="M0 7.76367Q0 8.33984 0.224609 8.81836Q0.449219 9.29688 0.874023 9.58496Q1.29883 9.87305 1.91406 9.87305Q2.08984 9.87305 2.36328 9.85352Q2.63672 9.83398 3.01758 9.76562L6.47461 9.24805Q7.53906 9.0918 7.91504 8.62305Q8.29102 8.1543 8.29102 7.23633Q8.29102 6.95312 8.2959 6.68457Q8.30078 6.41602 8.30078 6.14258Q8.30078 5.74219 8.66211 5.6543Q9.19922 5.53711 10.0391 5.47363Q10.8789 5.41016 11.8164 5.41016Q12.7539 5.41016 13.5938 5.47363Q14.4336 5.53711 14.9707 5.6543Q15.332 5.74219 15.332 6.14258Q15.3418 6.41602 15.3418 6.68457Q15.3418 6.95312 15.3418 7.23633Q15.3418 8.1543 15.7178 8.62305Q16.0938 9.0918 17.1582 9.24805L20.6152 9.76562Q20.9961 9.83398 21.2695 9.85352Q21.543 9.87305 21.7188 9.87305Q22.334 9.87305 22.7588 9.58496Q23.1836 9.29688 23.4082 8.81836Q23.6328 8.33984 23.6328 7.76367Q23.6328 7.55859 23.6328 7.3584Q23.6328 7.1582 23.6328 6.96289Q23.6328 5.5957 23.0566 4.50684Q22.4805 3.41797 21.416 2.60742Q20.3516 1.79688 18.8818 1.25488Q17.4121 0.712891 15.625 0.439453Q13.8379 0.166016 11.8164 0.166016Q9.79492 0.166016 8.00781 0.439453Q6.2207 0.712891 4.75098 1.25488Q3.28125 1.79688 2.2168 2.60742Q1.15234 3.41797 0.576172 4.50684Q0 5.5957 0 6.96289Q0 7.1582 0 7.3584Q0 7.55859 0 7.76367ZM1.58203 7.5293Q1.58203 7.41211 1.58203 7.28516Q1.58203 7.1582 1.58203 7.04102Q1.58203 5.85938 2.14355 4.96582Q2.70508 4.07227 3.69141 3.44238Q4.67773 2.8125 5.97656 2.41211Q7.27539 2.01172 8.76953 1.82617Q10.2637 1.64062 11.8164 1.64062Q13.3691 1.64062 14.8633 1.82617Q16.3574 2.01172 17.6562 2.41211Q18.9551 2.8125 19.9463 3.44238Q20.9375 4.07227 21.4941 4.96582Q22.0508 5.85938 22.0508 7.04102Q22.0508 7.1582 22.0508 7.28516Q22.0508 7.41211 22.0508 7.5293Q22.0508 7.76367 21.9727 7.96875Q21.8945 8.17383 21.7334 8.30078Q21.5723 8.42773 21.3281 8.42773Q21.2207 8.42773 21.0986 8.41309Q20.9766 8.39844 20.7715 8.35938L17.4902 7.74414Q17.2461 7.69531 17.085 7.54395Q16.9238 7.39258 16.9238 7.03125Q16.9238 6.72852 16.9238 6.4209Q16.9238 6.11328 16.9238 5.81055Q16.9238 5.08789 16.6846 4.75098Q16.4453 4.41406 16.0645 4.30664Q15.5957 4.16992 14.7412 4.0918Q13.8867 4.01367 12.8516 3.98438Q11.8164 3.95508 10.7812 3.98438Q9.74609 4.01367 8.8916 4.0918Q8.03711 4.16992 7.56836 4.30664Q7.1875 4.41406 6.94824 4.75098Q6.70898 5.08789 6.70898 5.81055Q6.70898 6.11328 6.70898 6.4209Q6.70898 6.72852 6.70898 7.03125Q6.70898 7.39258 6.54785 7.54395Q6.38672 7.69531 6.14258 7.74414L2.86133 8.35938Q2.65625 8.39844 2.53418 8.41309Q2.41211 8.42773 2.30469 8.42773Q2.06055 8.42773 1.89941 8.30078Q1.73828 8.17383 1.66016 7.96875Q1.58203 7.76367 1.58203 7.5293Z" fill="#ff453a"/>
 </g>
</svg>
