<?xml version="1.0" encoding="UTF-8"?>
<!--Generator: Apple Native CoreSVG 175-->
<!DOCTYPE svg
PUBLIC "-//W3C//DTD SVG 1.1//EN"
       "http://www.w3.org/Graphics/SVG/1.1/DTD/svg11.dtd">
<svg version="1.1" xmlns="http://www.w3.org/2000/svg" xmlns:xlink="http://www.w3.org/1999/xlink" width="22.2195" height="9.04327">
 <g>
  <rect height="9.04327" opacity="0" width="22.2195" x="0" y="0"/>
  <path d="M0 6.91986Q0 7.34848 0.140228 7.84103Q0.280457 8.33359 0.62439 8.68843Q0.968323 9.04327 1.58356 9.04327Q1.69617 9.04327 1.87469 9.02725Q2.05322 9.01123 2.46918 8.92883L5.67307 8.34808Q6.37192 8.22693 6.76193 7.81792Q7.15195 7.40891 7.16614 6.48392Q7.17316 6.22894 7.17804 5.97443Q7.18292 5.71991 7.18994 5.46051Q7.20398 5.08118 7.62146 4.93713Q8.22891 4.74258 9.15665 4.64745Q10.0844 4.55231 11.1098 4.55231Q12.1352 4.55231 13.0629 4.64745Q13.9906 4.74258 14.5981 4.93713Q15.0156 5.08118 15.0298 5.46051Q15.0395 5.71991 15.0395 5.97443Q15.0395 6.22894 15.0465 6.48392Q15.0606 7.40891 15.4541 7.81792Q15.8476 8.22693 16.5465 8.34808L19.7504 8.92883Q20.1665 9.01123 20.345 9.02725Q20.5235 9.04327 20.636 9.04327Q21.2512 9.04327 21.5952 8.68843Q21.9391 8.33359 22.0793 7.84103Q22.2195 7.34848 22.2195 6.91986Q22.2195 6.82022 22.2195 6.71852Q22.2195 6.61682 22.2195 6.51993Q22.2195 5.22293 21.6118 4.20792Q21.004 3.1929 19.9325 2.4527Q18.8609 1.71249 17.451 1.23024Q16.0411 0.747986 14.4228 0.513229Q12.8044 0.278473 11.1063 0.271454Q9.41528 0.278473 7.79694 0.513229Q6.17859 0.747986 4.76509 1.23024Q3.35159 1.71249 2.28012 2.4527Q1.20865 3.1929 0.604324 4.20792Q0 5.22293 0 6.51993Q0 6.61682 0 6.71852Q0 6.82022 0 6.91986ZM0.766449 6.86127Q0.766449 6.77933 0.766449 6.68747Q0.766449 6.59561 0.766449 6.51367Q0.766449 5.34607 1.34552 4.4455Q1.92459 3.54492 2.94258 2.8904Q3.96057 2.23587 5.28053 1.81442Q6.60049 1.39297 8.09464 1.1898Q9.58878 0.986633 11.1063 0.986633Q12.6309 0.986633 14.1251 1.1898Q15.6192 1.39297 16.9391 1.81442Q18.259 2.23587 19.2748 2.8904Q20.2907 3.54492 20.8719 4.4455Q21.4531 5.34607 21.4531 6.51367Q21.4531 6.59561 21.4531 6.68747Q21.4531 6.77933 21.4531 6.86127Q21.4531 7.07458 21.3891 7.41325Q21.3251 7.75192 21.1323 8.01598Q20.9395 8.28003 20.5476 8.28003Q20.4614 8.28003 20.3288 8.26538Q20.1961 8.25073 19.8715 8.19061L16.7097 7.58942Q16.3461 7.51251 16.076 7.24861Q15.806 6.98471 15.806 6.42654Q15.806 6.16592 15.806 5.90401Q15.806 5.64209 15.806 5.38864Q15.806 4.78546 15.5034 4.50836Q15.2008 4.23126 14.9254 4.15894Q14.5059 4.02222 13.7393 3.94058Q12.9727 3.85895 12.0395 3.82965Q11.1063 3.80035 10.1765 3.82965Q9.24683 3.85895 8.48022 3.94058Q7.71362 4.02222 7.29416 4.15894Q7.01874 4.23126 6.71623 4.50836Q6.41373 4.78546 6.41373 5.38864Q6.41373 5.64209 6.41373 5.90401Q6.41373 6.16592 6.41373 6.42654Q6.41373 6.98471 6.14357 7.24861Q5.87341 7.51251 5.50278 7.58942L2.34802 8.19061Q2.02347 8.25073 1.89087 8.26538Q1.75827 8.28003 1.66489 8.28003Q1.28006 8.28003 1.08734 8.01598Q0.894623 7.75192 0.830536 7.41325Q0.766449 7.07458 0.766449 6.86127Z" fill="#ff453a"/>
 </g>
</svg>
