<?xml version="1.0" encoding="UTF-8"?>
<!--Generator: Apple Native CoreSVG 175-->
<!DOCTYPE svg
PUBLIC "-//W3C//DTD SVG 1.1//EN"
       "http://www.w3.org/Graphics/SVG/1.1/DTD/svg11.dtd">
<svg version="1.1" xmlns="http://www.w3.org/2000/svg" xmlns:xlink="http://www.w3.org/1999/xlink" width="17.8809" height="18.0371">
 <g>
  <rect height="18.0371" opacity="0" width="17.8809" x="0" y="0"/>
  <path d="M4.6582 13.1836Q5.95703 14.4727 7.44141 15.5322Q8.92578 16.5918 10.4443 17.2217Q11.9629 17.8516 13.3594 17.8516Q14.3359 17.8516 15.1562 17.5098Q15.9766 17.168 16.6602 16.4648Q17.002 16.1035 17.2852 15.6201Q17.5684 15.1367 17.5684 14.6387Q17.5684 14.3262 17.417 14.0186Q17.2656 13.7109 16.9141 13.457L13.9355 11.377Q13.6816 11.2012 13.4326 11.1035Q13.1836 11.0059 12.9199 11.0059Q12.6172 11.0059 12.29 11.1621Q11.9629 11.3184 11.6211 11.6504L10.8887 12.3438Q10.7422 12.4902 10.5273 12.4902Q10.4395 12.4902 10.3467 12.4658Q10.2539 12.4414 10.1758 12.4121Q9.76562 12.1973 9.0332 11.6455Q8.30078 11.0938 7.51953 10.3125Q6.74805 9.54102 6.19141 8.81836Q5.63477 8.0957 5.44922 7.66602Q5.41016 7.57812 5.38574 7.49512Q5.36133 7.41211 5.36133 7.34375Q5.36133 7.14844 5.49805 7.01172L6.19141 6.24023Q6.52344 5.87891 6.67969 5.55176Q6.83594 5.22461 6.83594 4.91211Q6.83594 4.64844 6.7334 4.39453Q6.63086 4.14062 6.44531 3.88672L4.47266 1.06445Q4.20898 0.693359 3.85742 0.522461Q3.50586 0.351562 3.13477 0.351562Q2.19727 0.351562 1.31836 1.23047Q0.634766 1.91406 0.317383 2.73926Q0 3.56445 0 4.48242Q0 5.87891 0.620117 7.39746Q1.24023 8.91602 2.2998 10.4004Q3.35938 11.8848 4.6582 13.1836ZM17.5195 0Q17.373 0 17.2656 0.107422L12.3535 5.03906L10.8398 6.5918L10.8887 3.61328L10.8887 1.31836Q10.8887 1.17188 10.7959 1.07422Q10.7031 0.976562 10.5566 0.976562Q10.4102 0.966797 10.3076 1.06934Q10.2051 1.17188 10.2051 1.31836L10.2051 7.31445Q10.2051 7.49023 10.2979 7.57812Q10.3906 7.66602 10.5762 7.66602L16.6504 7.66602Q16.7871 7.66602 16.8945 7.56348Q17.002 7.46094 17.002 7.31445Q17.002 7.16797 16.8994 7.06543Q16.7969 6.96289 16.6504 6.96289L14.2578 6.96289L11.2793 7.03125L12.832 5.53711L17.7539 0.605469Q17.8809 0.478516 17.8809 0.332031Q17.8809 0.185547 17.7734 0.0927734Q17.666 0 17.5195 0Z" fill="#ffffff"/>
 </g>
</svg>
