<?xml version="1.0" encoding="UTF-8"?>
<!--Generator: Apple Native CoreSVG 175-->
<!DOCTYPE svg
PUBLIC "-//W3C//DTD SVG 1.1//EN"
       "http://www.w3.org/Graphics/SVG/1.1/DTD/svg11.dtd">
<svg version="1.1" xmlns="http://www.w3.org/2000/svg" xmlns:xlink="http://www.w3.org/1999/xlink" width="19.1602" height="19.1504">
 <g>
  <rect height="19.1504" opacity="0" width="19.1602" x="0" y="0"/>
  <path d="M9.57031 19.1504Q11.5527 19.1504 13.2861 18.4082Q15.0195 17.666 16.3379 16.3428Q17.6562 15.0195 18.4082 13.2861Q19.1602 11.5527 19.1602 9.58008Q19.1602 7.60742 18.4082 5.87402Q17.6562 4.14062 16.3379 2.81738Q15.0195 1.49414 13.2861 0.751953Q11.5527 0.00976562 9.57031 0.00976562Q7.59766 0.00976562 5.86426 0.751953Q4.13086 1.49414 2.81738 2.81738Q1.50391 4.14062 0.751953 5.87402Q0 7.60742 0 9.58008Q0 11.5527 0.74707 13.2861Q1.49414 15.0195 2.8125 16.3428Q4.13086 17.666 5.86914 18.4082Q7.60742 19.1504 9.57031 19.1504Z" fill="#ff453a"/>
  <path d="M2.95898 10.5078L2.95898 10.4102Q2.95898 9.44336 3.53027 8.73535Q4.10156 8.02734 5.06348 7.55371Q6.02539 7.08008 7.19727 6.85059Q8.36914 6.62109 9.58008 6.62109Q10.791 6.62109 11.9629 6.85059Q13.1348 7.08008 14.0918 7.55371Q15.0488 8.02734 15.625 8.73535Q16.2012 9.44336 16.2012 10.4102L16.2012 10.5078Q16.2012 10.752 16.1182 11.0352Q16.0352 11.3184 15.8105 11.5283Q15.5859 11.7383 15.166 11.7383Q14.7559 11.7383 14.2334 11.6846Q13.7109 11.6309 12.8809 11.3672Q12.5 11.25 12.2656 11.0303Q12.0312 10.8105 12.0215 10.2637L12.002 9.64844Q12.002 9.43359 11.748 9.33594Q11.4941 9.25781 10.9326 9.1748Q10.3711 9.0918 9.58008 9.0918Q8.78906 9.0918 8.22754 9.1748Q7.66602 9.25781 7.41211 9.33594Q7.14844 9.43359 7.14844 9.64844L7.13867 10.2637Q7.12891 10.8105 6.88965 11.0303Q6.65039 11.25 6.26953 11.3672Q5.44922 11.6309 4.92676 11.6846Q4.4043 11.7383 3.99414 11.7383Q3.57422 11.7383 3.34961 11.5283Q3.125 11.3184 3.04199 11.0352Q2.95898 10.752 2.95898 10.5078Z" fill="#ffffff"/>
 </g>
</svg>
