<?xml version="1.0" encoding="UTF-8"?>
<!--Generator: Apple Native CoreSVG 175.5-->
<!DOCTYPE svg
PUBLIC "-//W3C//DTD SVG 1.1//EN"
       "http://www.w3.org/Graphics/SVG/1.1/DTD/svg11.dtd">
<svg version="1.1" xmlns="http://www.w3.org/2000/svg" xmlns:xlink="http://www.w3.org/1999/xlink" width="19.9219" height="19.9316">
 <g>
  <rect height="19.9316" opacity="0" width="19.9219" x="0" y="0"/>
  <path d="M9.96094 19.9316Q12.002 19.9316 13.8037 19.1504Q15.6055 18.3691 16.9824 16.9922Q18.3594 15.6152 19.1406 13.8135Q19.9219 12.0117 19.9219 9.9707Q19.9219 7.92969 19.1406 6.12793Q18.3594 4.32617 16.9824 2.94922Q15.6055 1.57227 13.7988 0.791016Q11.9922 0.00976562 9.95117 0.00976562Q7.91016 0.00976562 6.1084 0.791016Q4.30664 1.57227 2.93457 2.94922Q1.5625 4.32617 0.78125 6.12793Q0 7.92969 0 9.9707Q0 12.0117 0.78125 13.8135Q1.5625 15.6152 2.93945 16.9922Q4.31641 18.3691 6.11816 19.1504Q7.91992 19.9316 9.96094 19.9316Z" fill="#ff453a"/>
  <path d="M3.10547 10.9473L3.10547 10.8398Q3.10547 9.83398 3.70117 9.08691Q4.29688 8.33984 5.29297 7.85156Q6.28906 7.36328 7.50488 7.12402Q8.7207 6.88477 9.96094 6.88477Q11.2012 6.88477 12.4219 7.12402Q13.6426 7.36328 14.6387 7.85156Q15.6348 8.33984 16.2305 9.08691Q16.8262 9.83398 16.8262 10.8398L16.8262 10.9473Q16.8262 11.3184 16.6992 11.6211Q16.5723 11.9238 16.3232 12.0996Q16.0742 12.2754 15.6836 12.2754Q15.2637 12.2754 14.7168 12.2217Q14.1699 12.168 13.3203 11.9043Q12.832 11.7578 12.6123 11.4893Q12.3926 11.2207 12.3828 10.6836L12.3633 10.0586Q12.3633 9.89258 12.1582 9.81445Q11.9043 9.73633 11.333 9.65332Q10.7617 9.57031 9.96094 9.57031Q9.16016 9.57031 8.58887 9.65332Q8.01758 9.73633 7.77344 9.81445Q7.55859 9.89258 7.55859 10.0586L7.54883 10.6836Q7.53906 11.2207 7.31445 11.4893Q7.08984 11.7578 6.60156 11.9043Q5.75195 12.168 5.20996 12.2217Q4.66797 12.2754 4.23828 12.2754Q3.85742 12.2754 3.6084 12.0996Q3.35938 11.9238 3.23242 11.6211Q3.10547 11.3184 3.10547 10.9473Z" fill="#ffffff"/>
 </g>
</svg>
