<?xml version="1.0" encoding="UTF-8"?>
<!--Generator: Apple Native CoreSVG 175.5-->
<!DOCTYPE svg
PUBLIC "-//W3C//DTD SVG 1.1//EN"
       "http://www.w3.org/Graphics/SVG/1.1/DTD/svg11.dtd">
<svg version="1.1" xmlns="http://www.w3.org/2000/svg" xmlns:xlink="http://www.w3.org/1999/xlink" width="18.5742" height="18.8379">
 <g>
  <rect height="18.8379" opacity="0" width="18.5742" x="0" y="0"/>
  <path d="M4.95117 13.8379Q6.36719 15.2441 7.92969 16.377Q9.49219 17.5098 11.0547 18.1738Q12.6172 18.8379 14.0137 18.8379Q14.9609 18.8379 15.7812 18.4961Q16.6016 18.1543 17.2656 17.4219Q17.6465 16.9922 17.876 16.499Q18.1055 16.0059 18.1055 15.5078Q18.1055 15.1367 17.9541 14.7998Q17.8027 14.4629 17.4512 14.2188L14.4629 12.0898Q14.1211 11.8555 13.8281 11.7383Q13.5352 11.6211 13.2715 11.6211Q12.9395 11.6211 12.627 11.8018Q12.3145 11.9824 11.9824 12.3145L11.2891 12.998Q11.1328 13.1543 10.918 13.1543Q10.8008 13.1543 10.6982 13.1152Q10.5957 13.0762 10.5176 13.0469Q10.0684 12.8027 9.35547 12.2021Q8.64258 11.6016 7.91992 10.8789Q7.20703 10.1562 6.60156 9.44336Q5.99609 8.73047 5.76172 8.28125Q5.72266 8.20312 5.68848 8.10059Q5.6543 7.99805 5.6543 7.89062Q5.6543 7.67578 5.80078 7.5293L6.48438 6.81641Q6.81641 6.48438 6.99707 6.17188Q7.17773 5.85938 7.17773 5.52734Q7.17773 5.26367 7.06055 4.9707Q6.94336 4.67773 6.69922 4.33594L4.59961 1.37695Q4.3457 1.02539 3.99414 0.864258Q3.64258 0.703125 3.25195 0.703125Q2.23633 0.703125 1.36719 1.55273Q0.654297 2.23633 0.327148 3.06152Q0 3.88672 0 4.82422Q0 6.23047 0.649414 7.77832Q1.29883 9.32617 2.42188 10.8789Q3.54492 12.4316 4.95117 13.8379Z" fill="#007aff"/>
  <path d="M17.8418 0.332031Q17.5488 0.332031 17.334 0.546875L13.1348 4.76562L11.6309 6.38672L11.7969 3.52539L11.7969 2.07031Q11.7969 1.78711 11.6064 1.58691Q11.416 1.38672 11.123 1.37695Q10.8301 1.35742 10.6152 1.5625Q10.4004 1.76758 10.4004 2.07031L10.4004 7.72461Q10.4004 8.11523 10.5908 8.31055Q10.7812 8.50586 11.1719 8.50586L16.8457 8.50586Q17.1484 8.50586 17.3535 8.29102Q17.5586 8.07617 17.5488 7.77344Q17.5293 7.48047 17.3291 7.29492Q17.1289 7.10938 16.8457 7.10938L15.3711 7.10938L12.5 7.26562L14.1406 5.77148L18.3398 1.55273Q18.5742 1.31836 18.5742 1.01562Q18.5742 0.722656 18.3643 0.527344Q18.1543 0.332031 17.8418 0.332031Z" fill="#007aff"/>
 </g>
</svg>
