<?xml version="1.0" encoding="UTF-8"?>
<!--Generator: Apple Native CoreSVG 175.5-->
<!DOCTYPE svg
PUBLIC "-//W3C//DTD SVG 1.1//EN"
       "http://www.w3.org/Graphics/SVG/1.1/DTD/svg11.dtd">
<svg version="1.1" xmlns="http://www.w3.org/2000/svg" xmlns:xlink="http://www.w3.org/1999/xlink" width="38.6914" height="13.9064">
 <g>
  <rect height="13.9064" opacity="0" width="38.6914" x="0" y="0"/>
  <path d="M7.87109 7.66122Q7.90039 8.24716 8.08594 8.75497Q8.27148 9.26278 8.61328 9.61434Q8.87695 9.86825 9.22363 10.0001Q9.57031 10.1319 9.99023 10.0636L13.6133 9.44833Q14.4141 9.32137 14.7852 8.95028Q15.0293 8.71591 15.1172 8.36434Q15.2051 8.01278 15.2051 7.54403L15.2148 6.56747Q15.2148 6.37216 15.3711 6.19637Q15.4395 6.10848 15.542 6.06454Q15.6445 6.02059 15.7227 6.00106Q16.2207 5.88387 17.1826 5.78622Q18.1445 5.68856 19.3457 5.68856Q20.5469 5.68856 21.5088 5.78622Q22.4707 5.88387 22.9688 6.00106Q23.0469 6.02059 23.1494 6.06454Q23.252 6.10848 23.3203 6.19637Q23.4863 6.37216 23.4863 6.56747L23.4863 7.54403Q23.4863 8.01278 23.5742 8.36434Q23.6621 8.71591 23.9062 8.95028Q24.2773 9.32137 25.0781 9.44833L28.7012 10.0636Q29.1211 10.1319 29.4678 10.0001Q29.8145 9.86825 30.0781 9.61434Q30.4297 9.26278 30.6104 8.75497Q30.791 8.24716 30.8203 7.66122Q30.8691 6.67489 30.5371 5.85458Q30.2051 5.03427 29.5312 4.3702Q28.5449 3.37411 26.9629 2.73934Q25.3809 2.10458 23.4229 1.79696Q21.4648 1.48934 19.3457 1.48934Q17.2266 1.48934 15.2734 1.79696Q13.3203 2.10458 11.7383 2.73934Q10.1562 3.37411 9.16016 4.3702Q8.49609 5.03427 8.15918 5.85458Q7.82227 6.67489 7.87109 7.66122Z" fill="#007aff"/>
  <path d="M3.91602 6.94833Q3.91602 8.02255 4.26758 9.00399Q4.61914 9.98544 5.25391 10.7765Q5.50781 11.1085 5.88379 11.1134Q6.25977 11.1182 6.50391 10.8448Q6.73828 10.5811 6.6748 10.2638Q6.61133 9.94637 6.37695 9.63387Q5.9375 9.087 5.72266 8.39852Q5.50781 7.71005 5.50781 6.94833Q5.50781 6.17684 5.72754 5.48837Q5.94727 4.79989 6.37695 4.26278Q6.61133 3.94052 6.6748 3.62802Q6.73828 3.31552 6.50391 3.05184Q6.25977 2.77841 5.88379 2.78329Q5.50781 2.78817 5.25391 3.1202Q4.61914 3.91122 4.26758 4.89266Q3.91602 5.87411 3.91602 6.94833ZM34.7852 6.94833Q34.7852 5.87411 34.4336 4.89266Q34.082 3.91122 33.4375 3.1202Q33.1836 2.78817 32.8076 2.78329Q32.4316 2.77841 32.1875 3.05184Q31.9531 3.31552 32.0166 3.62802Q32.0801 3.94052 32.3145 4.26278Q32.7539 4.80966 32.9736 5.49813Q33.1934 6.18661 33.1934 6.94833Q33.1934 7.71005 32.9736 8.39852Q32.7539 9.087 32.3145 9.63387Q32.0801 9.94637 32.0166 10.2638Q31.9531 10.5811 32.1875 10.8448Q32.4316 11.1182 32.8076 11.1134Q33.1836 11.1085 33.4375 10.7765Q34.082 9.98544 34.4336 9.00399Q34.7852 8.02255 34.7852 6.94833Z" fill="#007aff"/>
  <path d="M0 6.94833Q0 8.84286 0.65918 10.547Q1.31836 12.2511 2.53906 13.5792Q2.82227 13.8819 3.17871 13.8917Q3.53516 13.9015 3.76953 13.628Q4.00391 13.3643 3.9502 13.0421Q3.89648 12.7198 3.63281 12.4171Q2.64648 11.3233 2.11914 9.92196Q1.5918 8.52059 1.5918 6.94833Q1.5918 5.3663 2.11914 3.96981Q2.64648 2.57333 3.63281 1.47958Q3.89648 1.17684 3.9502 0.854578Q4.00391 0.532312 3.76953 0.26864Q3.53516-0.00479715 3.17871 8.56634e-05Q2.82227 0.00496848 2.53906 0.317468Q1.31836 1.63583 0.65918 3.34481Q0 5.0538 0 6.94833ZM38.6914 6.94833Q38.6914 5.0538 38.0322 3.34481Q37.373 1.63583 36.1621 0.317468Q35.8789 0.00496848 35.5176 8.56634e-05Q35.1562-0.00479715 34.9219 0.26864Q34.6875 0.532312 34.7412 0.854578Q34.7949 1.17684 35.0586 1.47958Q36.0449 2.57333 36.5723 3.96981Q37.0996 5.3663 37.0996 6.94833Q37.0996 8.52059 36.5723 9.92196Q36.0449 11.3233 35.0586 12.4171Q34.7949 12.7198 34.7412 13.0421Q34.6875 13.3643 34.9219 13.628Q35.1562 13.9015 35.5176 13.8917Q35.8789 13.8819 36.1621 13.5792Q37.373 12.2511 38.0322 10.547Q38.6914 8.84286 38.6914 6.94833Z" fill="#007aff"/>
 </g>
</svg>
