<?xml version="1.0" encoding="UTF-8"?>
<!--Generator: Apple Native CoreSVG 175.5-->
<!DOCTYPE svg
PUBLIC "-//W3C//DTD SVG 1.1//EN"
       "http://www.w3.org/Graphics/SVG/1.1/DTD/svg11.dtd">
<svg version="1.1" xmlns="http://www.w3.org/2000/svg" xmlns:xlink="http://www.w3.org/1999/xlink" width="20.6152" height="19.8535">
 <g>
  <rect height="19.8535" opacity="0" width="20.6152" x="0" y="0"/>
  <path d="M14.1992 19.502Q15.4785 19.502 16.377 19.1357Q17.2754 18.7695 18.0176 17.9297Q18.0762 17.8711 18.1299 17.8076Q18.1836 17.7441 18.2422 17.6855Q18.6816 17.1973 18.8916 16.7139Q19.1016 16.2305 19.1016 15.7715Q19.1016 15.2441 18.7891 14.751Q18.4766 14.2578 17.8223 13.8086L14.9805 11.8359Q14.3262 11.3867 13.5986 11.377Q12.8711 11.3672 12.2559 11.9727L11.5039 12.7246Q11.3379 12.8906 11.1865 12.9102Q11.0352 12.9297 10.8594 12.8223Q10.6055 12.6562 10.2002 12.3242Q9.79492 11.9922 9.35547 11.5967Q8.91602 11.2012 8.55469 10.8398Q8.17383 10.459 7.8125 10.0684Q7.45117 9.67773 7.1582 9.31152Q6.86523 8.94531 6.66992 8.63281Q6.57227 8.4668 6.5918 8.31543Q6.61133 8.16406 6.77734 7.99805L7.51953 7.24609Q8.13477 6.63086 8.125 5.90332Q8.11523 5.17578 7.66602 4.52148L5.68359 1.67969Q5.23438 1.02539 4.74609 0.717773Q4.25781 0.410156 3.73047 0.400391Q2.79297 0.380859 1.81641 1.25977Q1.74805 1.31836 1.68945 1.37207Q1.63086 1.42578 1.5625 1.47461Q0.732422 2.2168 0.366211 3.11523Q0 4.01367 0 5.2832Q0 6.67969 0.561523 8.24219Q1.12305 9.80469 2.21191 11.4307Q3.30078 13.0566 4.87305 14.6289Q6.43555 16.1914 8.05664 17.2803Q9.67773 18.3691 11.2402 18.9355Q12.8027 19.502 14.1992 19.502ZM14.209 17.998Q12.959 18.0273 11.5381 17.4512Q10.1172 16.875 8.68652 15.874Q7.25586 14.873 5.99609 13.6133Q4.72656 12.3438 3.69629 10.8838Q2.66602 9.42383 2.07031 7.97363Q1.47461 6.52344 1.49414 5.2832Q1.51367 4.47266 1.79688 3.79395Q2.08008 3.11523 2.65625 2.61719Q2.70508 2.56836 2.74902 2.53418Q2.79297 2.5 2.8418 2.46094Q3.05664 2.27539 3.28613 2.17285Q3.51562 2.07031 3.7207 2.07031Q4.18945 2.07031 4.45312 2.4707L6.34766 5.3125Q6.50391 5.54688 6.49902 5.79102Q6.49414 6.03516 6.26953 6.25977L5.41016 7.11914Q4.90234 7.61719 4.90234 8.19824Q4.90234 8.7793 5.27344 9.26758Q5.69336 9.83398 6.33789 10.5664Q6.98242 11.2988 7.53906 11.8555Q7.91992 12.2266 8.40332 12.6709Q8.88672 13.1152 9.37012 13.5303Q9.85352 13.9453 10.2246 14.2285Q10.7227 14.5898 11.2988 14.5947Q11.875 14.5996 12.3828 14.0918L13.2422 13.2324Q13.4668 12.998 13.7109 12.998Q13.9551 12.998 14.1797 13.1445L17.0215 15.0391Q17.2461 15.1855 17.3389 15.3711Q17.4316 15.5566 17.4316 15.7715Q17.4316 16.2109 17.0312 16.6602Q16.9922 16.709 16.958 16.7529Q16.9238 16.7969 16.8848 16.8457Q16.377 17.4219 15.6982 17.7051Q15.0195 17.9883 14.209 17.998Z" fill="#007aff"/>
  <path d="M10.8887 5.89844Q11.1328 5.89844 11.2939 5.74219Q11.4551 5.58594 11.4551 5.36133L11.4551 3.87695Q11.4551 3.64258 11.2939 3.48145Q11.1328 3.32031 10.8887 3.32031Q10.6641 3.32031 10.5078 3.48145Q10.3516 3.64258 10.3516 3.87695L10.3516 5.36133Q10.3516 5.58594 10.5078 5.74219Q10.6641 5.89844 10.8887 5.89844Z" fill="#007aff"/>
  <path d="M13.1934 7.53906Q13.4277 7.53906 13.584 7.38281Q13.7402 7.22656 13.7402 6.98242L13.7402 2.23633Q13.7402 2.01172 13.584 1.85059Q13.4277 1.68945 13.1934 1.68945Q12.959 1.68945 12.7979 1.85059Q12.6367 2.01172 12.6367 2.23633L12.6367 6.98242Q12.6367 7.22656 12.7979 7.38281Q12.959 7.53906 13.1934 7.53906Z" fill="#007aff"/>
  <path d="M15.4785 9.22852Q15.7129 9.22852 15.874 9.07227Q16.0352 8.91602 16.0352 8.68164L16.0352 0.566406Q16.0352 0.322266 15.874 0.161133Q15.7129 0 15.4785 0Q15.2539 0 15.0928 0.161133Q14.9316 0.322266 14.9316 0.566406L14.9316 8.68164Q14.9316 8.91602 15.0879 9.07227Q15.2441 9.22852 15.4785 9.22852Z" fill="#007aff"/>
  <path d="M17.7637 8.26172Q17.998 8.26172 18.1592 8.10059Q18.3203 7.93945 18.3203 7.70508L18.3203 1.51367Q18.3203 1.28906 18.1592 1.13281Q17.998 0.976562 17.7637 0.976562Q17.5391 0.976562 17.3779 1.13281Q17.2168 1.28906 17.2168 1.51367L17.2168 7.70508Q17.2168 7.93945 17.3779 8.10059Q17.5391 8.26172 17.7637 8.26172Z" fill="#007aff"/>
  <path d="M20.0586 6.41602Q20.3027 6.41602 20.459 6.25977Q20.6152 6.10352 20.6152 5.86914L20.6152 3.35938Q20.6152 3.125 20.459 2.96875Q20.3027 2.8125 20.0586 2.8125Q19.834 2.8125 19.6729 2.97363Q19.5117 3.13477 19.5117 3.35938L19.5117 5.86914Q19.5117 6.09375 19.6729 6.25488Q19.834 6.41602 20.0586 6.41602Z" fill="#007aff"/>
 </g>
</svg>
