<?xml version="1.0" encoding="UTF-8"?>
<!--Generator: Apple Native CoreSVG 175.5-->
<!DOCTYPE svg
PUBLIC "-//W3C//DTD SVG 1.1//EN"
       "http://www.w3.org/Graphics/SVG/1.1/DTD/svg11.dtd">
<svg version="1.1" xmlns="http://www.w3.org/2000/svg" xmlns:xlink="http://www.w3.org/1999/xlink" width="20.459" height="21.6504">
 <g>
  <rect height="21.6504" opacity="0" width="20.459" x="0" y="0"/>
  <path d="M3.20312 21.3477L17.2754 21.3477Q18.6523 21.3477 19.3652 20.6494Q20.0781 19.9512 20.0781 18.5742L20.0781 17.9004L15.2051 13.291Q14.9023 13.0078 14.5312 12.8662Q14.1602 12.7246 13.7793 12.7246Q13.3887 12.7246 13.042 12.8564Q12.6953 12.9883 12.3633 13.2812L8.11523 17.0312L6.41602 15.5176Q6.12305 15.2441 5.80566 15.1074Q5.48828 14.9707 5.14648 14.9707Q4.83398 14.9707 4.53613 15.1074Q4.23828 15.2441 3.93555 15.5078L0.390625 18.5742Q0.390625 19.9512 1.1084 20.6494Q1.82617 21.3477 3.20312 21.3477ZM7.35352 13.5254Q7.96875 13.5254 8.47656 13.2178Q8.98438 12.9102 9.28711 12.3975Q9.58984 11.8848 9.58984 11.2793Q9.58984 10.6738 9.28711 10.166Q8.98438 9.6582 8.47656 9.35547Q7.96875 9.05273 7.35352 9.05273Q6.73828 9.05273 6.23047 9.35547Q5.72266 9.6582 5.4248 10.166Q5.12695 10.6738 5.12695 11.2793Q5.12695 11.8848 5.4248 12.3975Q5.72266 12.9102 6.23047 13.2178Q6.73828 13.5254 7.35352 13.5254ZM3.06641 21.6211L17.3926 21.6211Q18.916 21.6211 19.6875 20.8594Q20.459 20.0977 20.459 18.5938L20.459 8.56445Q20.459 7.06055 19.6875 6.29883Q18.916 5.53711 17.3926 5.53711L3.06641 5.53711Q1.5332 5.53711 0.766602 6.29395Q0 7.05078 0 8.56445L0 18.5938Q0 20.1074 0.766602 20.8643Q1.5332 21.6211 3.06641 21.6211ZM3.08594 20.0488Q2.35352 20.0488 1.96289 19.6582Q1.57227 19.2676 1.57227 18.5059L1.57227 8.65234Q1.57227 7.89062 1.96289 7.5Q2.35352 7.10938 3.08594 7.10938L17.3633 7.10938Q18.0859 7.10938 18.4863 7.5Q18.8867 7.89062 18.8867 8.65234L18.8867 18.5059Q18.8867 19.2676 18.4863 19.6582Q18.0859 20.0488 17.3633 20.0488ZM2.06055 3.96484L18.4082 3.96484Q18.291 3.30078 17.9443 2.94434Q17.5977 2.58789 16.8652 2.58789L3.60352 2.58789Q2.87109 2.58789 2.51953 2.94434Q2.16797 3.30078 2.06055 3.96484ZM4.07227 1.25977L16.3965 1.25977Q16.3477 0.634766 15.9912 0.317383Q15.6348 0 14.9609 0L5.49805 0Q4.82422 0 4.46777 0.317383Q4.11133 0.634766 4.07227 1.25977Z" fill="#007aff"/>
 </g>
</svg>
