<?xml version="1.0" encoding="UTF-8"?>
<!--Generator: Apple Native CoreSVG 175.5-->
<!DOCTYPE svg
PUBLIC "-//W3C//DTD SVG 1.1//EN"
       "http://www.w3.org/Graphics/SVG/1.1/DTD/svg11.dtd">
<svg version="1.1" xmlns="http://www.w3.org/2000/svg" xmlns:xlink="http://www.w3.org/1999/xlink" width="23.0273" height="17.998">
 <g>
  <rect height="17.998" opacity="0" width="23.0273" x="0" y="0"/>
  <path d="M4.32617 9.53125L4.32617 0.0195312L7.56836 0.0195312L7.56836 9.53125Q7.56836 10.0684 7.29004 10.293Q7.01172 10.5176 6.66016 10.5176L6.40625 10.5176L6.40625 17.998L5.49805 17.998L5.49805 10.5176L5.24414 10.5176Q4.89258 10.5176 4.60938 10.293Q4.32617 10.0684 4.32617 9.53125ZM9.89258 9.53125L9.89258 0.0195312L13.1348 0.0195312L13.1348 9.53125Q13.1348 10.0684 12.8564 10.293Q12.5781 10.5176 12.2266 10.5176L11.9727 10.5176L11.9727 17.998L11.0645 17.998L11.0645 10.5176L10.8008 10.5176Q10.459 10.5176 10.1758 10.293Q9.89258 10.0684 9.89258 9.53125ZM15.459 9.53125L15.459 0.0195312L18.7012 0.0195312L18.7012 9.53125Q18.7012 10.0684 18.4229 10.293Q18.1445 10.5176 17.793 10.5176L17.5391 10.5176L17.5391 17.998L16.6309 17.998L16.6309 10.5176L16.3672 10.5176Q16.0156 10.5176 15.7373 10.293Q15.459 10.0684 15.459 9.53125ZM3.06641 17.9883L19.9609 17.9883Q21.5039 17.9883 22.2656 17.2314Q23.0273 16.4746 23.0273 14.9707L23.0273 3.03711Q23.0273 1.5332 22.2656 0.771484Q21.5039 0.00976562 19.9609 0.00976562L3.06641 0.00976562Q1.5332 0.00976562 0.766602 0.766602Q0 1.52344 0 3.03711L0 14.9707Q0 16.4746 0.766602 17.2314Q1.5332 17.9883 3.06641 17.9883Z" fill="#007aff"/>
 </g>
</svg>
