<?xml version="1.0" encoding="UTF-8"?>
<!--Generator: Apple Native CoreSVG 175-->
<!DOCTYPE svg
PUBLIC "-//W3C//DTD SVG 1.1//EN"
       "http://www.w3.org/Graphics/SVG/1.1/DTD/svg11.dtd">
<svg version="1.1" xmlns="http://www.w3.org/2000/svg" xmlns:xlink="http://www.w3.org/1999/xlink" width="22.6617" height="17.323">
 <g>
  <rect height="17.323" opacity="0" width="22.6617" x="0" y="0"/>
  <path d="M3.91129 9.45389L3.91129 0.0335693L7.15347 0.0335693L7.15347 9.45389Q7.15347 9.85031 6.95251 10.0152Q6.75156 10.1801 6.49139 10.1801L5.82977 10.1801L5.82977 17.323L5.2449 17.323L5.2449 10.1801L4.57626 10.1801Q4.32312 10.1801 4.1172 10.0152Q3.91129 9.85031 3.91129 9.45389ZM9.70978 9.45389L9.70978 0.0335693L12.952 0.0335693L12.952 9.45389Q12.952 9.85031 12.7475 10.0152Q12.543 10.1801 12.2899 10.1801L11.6211 10.1801L11.6211 17.323L11.0364 17.323L11.0364 10.1801L10.3719 10.1801Q10.1144 10.1801 9.91211 10.0152Q9.70978 9.85031 9.70978 9.45389ZM15.5083 9.45389L15.5083 0.0335693L18.7505 0.0335693L18.7505 9.45389Q18.7505 9.85031 18.5459 10.0152Q18.3414 10.1801 18.0812 10.1801L17.4196 10.1801L17.4196 17.323L16.8347 17.323L16.8347 10.1801L16.1703 10.1801Q15.9102 10.1801 15.7092 10.0152Q15.5083 9.85031 15.5083 9.45389ZM2.63046 17.2992L20.0243 17.2992Q21.3281 17.2992 21.9949 16.6267Q22.6617 15.9543 22.6617 14.6753L22.6617 2.63626Q22.6617 1.36444 21.9949 0.687103Q21.3281 0.00976562 20.0243 0.00976562L2.63046 0.00976562Q1.33636 0.00976562 0.668182 0.678711Q0 1.34766 0 2.63626L0 14.6753Q0 15.9683 0.668182 16.6338Q1.33636 17.2992 2.63046 17.2992Z" fill="#007aff"/>
 </g>
</svg>
