<?xml version="1.0" encoding="UTF-8"?>
<!--Generator: Apple Native CoreSVG 175-->
<!DOCTYPE svg
PUBLIC "-//W3C//DTD SVG 1.1//EN"
       "http://www.w3.org/Graphics/SVG/1.1/DTD/svg11.dtd">
<svg version="1.1" xmlns="http://www.w3.org/2000/svg" xmlns:xlink="http://www.w3.org/1999/xlink" width="19.1602" height="19.1504">
 <g>
  <rect height="19.1504" opacity="0" width="19.1602" x="0" y="0"/>
  <path d="M9.57031 19.1406Q11.5527 19.1406 13.2861 18.3984Q15.0195 17.6562 16.3379 16.333Q17.6562 15.0098 18.4082 13.2764Q19.1602 11.543 19.1602 9.57031Q19.1602 7.59766 18.4082 5.86426Q17.6562 4.13086 16.3379 2.80762Q15.0195 1.48438 13.2861 0.742188Q11.5527 0 9.57031 0Q7.59766 0 5.86426 0.742188Q4.13086 1.48438 2.81738 2.80762Q1.50391 4.13086 0.751953 5.86426Q0 7.59766 0 9.57031Q0 11.543 0.74707 13.2764Q1.49414 15.0098 2.8125 16.333Q4.13086 17.6562 5.86914 18.3984Q7.60742 19.1406 9.57031 19.1406ZM9.57031 18.3984Q7.74414 18.3984 6.14746 17.71Q4.55078 17.0215 3.33496 15.8105Q2.11914 14.5996 1.43555 12.998Q0.751953 11.3965 0.751953 9.57031Q0.751953 7.74414 1.43555 6.14258Q2.11914 4.54102 3.33496 3.3252Q4.55078 2.10938 6.14746 1.4209Q7.74414 0.732422 9.57031 0.732422Q11.4062 0.732422 13.0029 1.4209Q14.5996 2.10938 15.8154 3.3252Q17.0312 4.54102 17.7197 6.14258Q18.4082 7.74414 18.4082 9.57031Q18.4082 11.3965 17.7246 12.998Q17.041 14.5996 15.8252 15.8105Q14.6094 17.0215 13.0078 17.71Q11.4062 18.3984 9.57031 18.3984ZM9.74609 9.72656L12.7441 6.72852L10.9668 4.95117Q10.2734 4.25781 9.46289 4.25781Q8.65234 4.25781 7.96875 4.94141Q7.28516 5.61523 7.28516 6.43555Q7.28516 7.25586 7.96875 7.93945ZM10.1562 10.1172L11.9434 11.9238Q12.627 12.6172 13.4473 12.6123Q14.2676 12.6074 14.9609 11.9336Q15.6348 11.2598 15.6348 10.4395Q15.6348 9.61914 14.9512 8.92578L13.1445 7.11914ZM3.90625 11.7969L9.20898 11.7969Q9.16016 11.1523 8.79395 10.6104Q8.42773 10.0684 7.84668 9.74121Q7.26562 9.41406 6.5625 9.41406Q5.86914 9.41406 5.27832 9.74121Q4.6875 10.0684 4.32129 10.6104Q3.95508 11.1523 3.90625 11.7969ZM3.90625 12.3535Q3.95508 12.998 4.32129 13.54Q4.6875 14.082 5.27344 14.4092Q5.85938 14.7363 6.5625 14.7363Q7.26562 14.7363 7.84668 14.4092Q8.42773 14.082 8.79395 13.54Q9.16016 12.998 9.20898 12.3535Z" fill="#ffffff"/>
 </g>
</svg>
