<?xml version="1.0" encoding="UTF-8"?>
<!--Generator: Apple Native CoreSVG 175-->
<!DOCTYPE svg
PUBLIC "-//W3C//DTD SVG 1.1//EN"
       "http://www.w3.org/Graphics/SVG/1.1/DTD/svg11.dtd">
<svg version="1.1" xmlns="http://www.w3.org/2000/svg" xmlns:xlink="http://www.w3.org/1999/xlink" width="13.7808" height="22.7362">
 <g>
  <rect height="22.7362" opacity="0" width="13.7808" x="0" y="0"/>
  <path d="M6.89178 22.7362Q6.94458 22.7362 7.02637 22.6022Q7.10815 22.4683 7.18788 22.2364Q7.26761 22.0045 7.31956 21.7069Q7.37152 21.4093 7.37152 21.0776L7.37152 14.7952L6.41632 14.7952L6.41632 21.0776Q6.41632 21.4093 6.46828 21.7069Q6.52023 22.0045 6.59645 22.2364Q6.67267 22.4683 6.75446 22.6022Q6.83624 22.7362 6.89178 22.7362ZM1.04874 15.139L12.7321 15.139Q13.2133 15.139 13.4971 14.8861Q13.7808 14.6332 13.7808 14.212Q13.7808 13.1589 13.272 12.1884Q12.7632 11.218 11.8363 10.456Q10.9094 9.69406 9.65057 9.25011Q8.39172 8.80615 6.89178 8.80615Q5.39886 8.80615 4.13864 9.25011Q2.87842 9.69406 1.94931 10.456Q1.0202 11.218 0.510101 12.1884Q0 13.1589 0 14.212Q0 14.6332 0.28511 14.8861Q0.570221 15.139 1.04874 15.139ZM1.13007 14.4379Q0.738983 14.4379 0.748444 14.0332Q0.763245 13.1258 1.24763 12.31Q1.73203 11.4941 2.57301 10.8595Q3.414 10.2249 4.52126 9.86282Q5.62851 9.50073 6.89178 9.50073Q8.15231 9.50073 9.25957 9.86282Q10.3668 10.2249 11.2078 10.8595Q12.0488 11.4941 12.5332 12.31Q13.0176 13.1258 13.0324 14.0332Q13.0489 14.4379 12.6508 14.4379ZM1.52847 1.65466Q1.52847 1.95465 1.79413 2.33475Q2.04529 2.70187 2.48886 3.10928Q2.93243 3.51669 3.45093 3.90633Q3.96942 4.29596 4.44412 4.6077L4.12491 9.58115L4.84375 9.58115L5.19104 4.34921Q5.20081 4.20853 5.11871 4.15695Q4.66324 3.90182 4.18961 3.56667Q3.71597 3.23151 3.31245 2.88483Q2.90894 2.53815 2.66251 2.2493Q2.41608 1.96045 2.40784 1.80771Q2.39838 1.71005 2.44934 1.64932Q2.50031 1.58859 2.6207 1.58859L11.1671 1.58859Q11.2875 1.58859 11.3385 1.64932Q11.3895 1.71005 11.373 1.80771Q11.3647 1.96045 11.1197 2.2493Q10.8746 2.53815 10.4711 2.88483Q10.0676 3.23151 9.59259 3.56667Q9.11758 3.90182 8.66913 4.15695Q8.58002 4.20853 8.59955 4.34921L8.93707 9.58115L9.66293 9.58115L9.3367 4.6077Q9.8114 4.29596 10.3313 3.90633Q10.8511 3.51669 11.2968 3.10928Q11.7426 2.70187 11.9867 2.33475Q12.2551 1.95465 12.2551 1.65466Q12.2551 1.32492 12.0221 1.11282Q11.7891 0.900726 11.4008 0.900726L2.38281 0.900726Q1.99173 0.900726 1.7601 1.11282Q1.52847 1.32492 1.52847 1.65466Z" fill="#ff9f0a"/>
 </g>
</svg>
