<?xml version="1.0" encoding="UTF-8"?>
<!--Generator: Apple Native CoreSVG 175-->
<!DOCTYPE svg
PUBLIC "-//W3C//DTD SVG 1.1//EN"
       "http://www.w3.org/Graphics/SVG/1.1/DTD/svg11.dtd">
<svg version="1.1" xmlns="http://www.w3.org/2000/svg" xmlns:xlink="http://www.w3.org/1999/xlink" width="11.0301" height="19.3436">
 <g>
  <rect height="19.3436" opacity="0" width="11.0301" x="0" y="0"/>
  <path d="M3.03909 11.134Q3.03909 11.263 3.13095 11.3576L5.29968 13.5349Q5.40085 13.629 5.51285 13.629Q5.63202 13.629 5.73044 13.5349L7.89215 11.3576Q7.99377 11.263 7.99377 11.134Q7.99377 11.0051 7.91054 10.9268Q7.8273 10.8485 7.70828 10.8485Q7.58759 10.8458 7.46796 10.9555L6.33438 12.0821L5.79727 12.6434L5.8223 11.9559L5.8223 8.02078Q5.8223 7.87354 5.73555 7.78893Q5.6488 7.70432 5.51285 7.70432Q5.38406 7.70432 5.29594 7.78893Q5.20782 7.87354 5.20782 8.02078L5.20782 11.9559L5.2356 12.6434L4.69849 12.0821L3.56216 10.9555Q3.44269 10.8458 3.32184 10.8485Q3.20282 10.8485 3.12096 10.9268Q3.03909 11.0051 3.03909 11.134ZM2.86179 17.3692L8.16406 17.3692Q8.58292 17.3692 8.81859 17.1286Q9.05426 16.888 9.05426 16.4735L9.05426 15.4802Q9.05426 15.063 8.81859 14.8238Q8.58292 14.5845 8.16406 14.5845L2.86179 14.5845Q2.44736 14.5845 2.20947 14.8238Q1.97159 15.063 1.97159 15.4802L1.97159 16.4735Q1.97159 16.888 2.20947 17.1286Q2.44736 17.3692 2.86179 17.3692ZM0 16.9748Q0 18.1244 0.60936 18.7312Q1.21872 19.3381 2.38205 19.3381L8.64807 19.3381Q9.80713 19.3381 10.4186 18.7312Q11.0301 18.1244 11.0301 16.9748L11.0301 2.36343Q11.0301 1.21368 10.4186 0.606842Q9.80713 0 8.64807 0L2.38205 0Q1.21872 0 0.60936 0.606842Q0 1.21368 0 2.36343ZM0.728607 16.9247L0.728607 2.42035Q0.728607 1.53915 1.14502 1.13037Q1.56143 0.721588 2.44644 0.721588L8.58643 0.721588Q9.46884 0.721588 9.88525 1.13037Q10.3017 1.53915 10.3017 2.42035L10.3017 16.9247Q10.3017 17.7989 9.88525 18.2077Q9.46884 18.6165 8.58643 18.6165L2.44644 18.6165Q1.56143 18.6165 1.14502 18.2077Q0.728607 17.7989 0.728607 16.9247Z" fill="#000000"/>
 </g>
</svg>
