<?xml version="1.0" encoding="UTF-8"?>
<!--Generator: Apple Native CoreSVG 175.5-->
<!DOCTYPE svg
PUBLIC "-//W3C//DTD SVG 1.1//EN"
       "http://www.w3.org/Graphics/SVG/1.1/DTD/svg11.dtd">
<svg version="1.1" xmlns="http://www.w3.org/2000/svg" xmlns:xlink="http://www.w3.org/1999/xlink" width="16.3184" height="22.0215">
 <g>
  <rect height="22.0215" opacity="0" width="16.3184" x="0" y="0"/>
  <path d="M2.70508 22.002L13.6133 22.002Q14.8242 22.002 15.5713 21.2891Q16.3184 20.5762 16.3184 19.4238L16.3184 2.58789Q16.3184 1.42578 15.5713 0.712891Q14.8242 0 13.6133 0L2.70508 0Q1.49414 0 0.74707 0.712891Q0 1.42578 0 2.58789L0 19.4238Q0 20.5762 0.74707 21.2891Q1.49414 22.002 2.70508 22.002ZM2.90039 20.4297Q2.27539 20.4297 1.92383 20.0928Q1.57227 19.7559 1.57227 19.1602L1.57227 2.85156Q1.57227 2.24609 1.92383 1.90918Q2.27539 1.57227 2.90039 1.57227L13.418 1.57227Q14.043 1.57227 14.3945 1.90918Q14.7461 2.24609 14.7461 2.85156L14.7461 19.1602Q14.7461 19.7559 14.3945 20.0928Q14.043 20.4297 13.418 20.4297Z" fill="#007aff"/>
  <path d="M4.41406 8.99414L11.9141 8.99414Q12.3047 8.99414 12.5439 8.75488Q12.7832 8.51562 12.7832 8.10547L12.7832 5.99609Q12.7832 5.58594 12.5439 5.34668Q12.3047 5.10742 11.9141 5.10742L4.41406 5.10742Q4.02344 5.10742 3.78418 5.34668Q3.54492 5.58594 3.54492 5.99609L3.54492 8.10547Q3.54492 8.51562 3.78418 8.75488Q4.02344 8.99414 4.41406 8.99414ZM4.41406 16.875L11.9141 16.875Q12.3047 16.875 12.5439 16.6309Q12.7832 16.3867 12.7832 15.9863L12.7832 13.8672Q12.7832 13.4668 12.5439 13.2227Q12.3047 12.9785 11.9141 12.9785L4.41406 12.9785Q4.02344 12.9785 3.78418 13.2227Q3.54492 13.4668 3.54492 13.8672L3.54492 15.9863Q3.54492 16.3867 3.78418 16.6309Q4.02344 16.875 4.41406 16.875Z" fill="#007aff"/>
 </g>
</svg>
