<?xml version="1.0" encoding="UTF-8"?>
<!--Generator: Apple Native CoreSVG 175-->
<!DOCTYPE svg
PUBLIC "-//W3C//DTD SVG 1.1//EN"
       "http://www.w3.org/Graphics/SVG/1.1/DTD/svg11.dtd">
<svg version="1.1" xmlns="http://www.w3.org/2000/svg" xmlns:xlink="http://www.w3.org/1999/xlink" width="11.0301" height="19.3436">
 <g>
  <rect height="19.3436" opacity="0" width="11.0301" x="0" y="0"/>
  <path d="M2.86179 4.75357L8.16406 4.75357Q8.58292 4.75357 8.81859 4.51431Q9.05426 4.27505 9.05426 3.85788L9.05426 2.86453Q9.05426 2.4501 8.81859 2.20947Q8.58292 1.96884 8.16406 1.96884L2.86179 1.96884Q2.44736 1.96884 2.20947 2.20947Q1.97159 2.4501 1.97159 2.86453L1.97159 3.85788Q1.97159 4.27505 2.20947 4.51431Q2.44736 4.75357 2.86179 4.75357ZM0 16.9748Q0 18.1244 0.60936 18.7312Q1.21872 19.3381 2.38205 19.3381L8.64807 19.3381Q9.80713 19.3381 10.4186 18.7312Q11.0301 18.1244 11.0301 16.9748L11.0301 2.36343Q11.0301 1.21368 10.4186 0.606842Q9.80713 0 8.64807 0L2.38205 0Q1.21872 0 0.60936 0.606842Q0 1.21368 0 2.36343ZM0.728607 16.9247L0.728607 2.42035Q0.728607 1.53915 1.14502 1.13037Q1.56143 0.721588 2.44644 0.721588L8.58643 0.721588Q9.46884 0.721588 9.88525 1.13037Q10.3017 1.53915 10.3017 2.42035L10.3017 16.9247Q10.3017 17.7989 9.88525 18.2077Q9.46884 18.6165 8.58643 18.6165L2.44644 18.6165Q1.56143 18.6165 1.14502 18.2077Q0.728607 17.7989 0.728607 16.9247Z" fill="#007aff"/>
 </g>
</svg>
