<?xml version="1.0" encoding="UTF-8"?>
<!--Generator: Apple Native CoreSVG 175.5-->
<!DOCTYPE svg
PUBLIC "-//W3C//DTD SVG 1.1//EN"
       "http://www.w3.org/Graphics/SVG/1.1/DTD/svg11.dtd">
<svg version="1.1" xmlns="http://www.w3.org/2000/svg" xmlns:xlink="http://www.w3.org/1999/xlink" width="24.4141" height="20.1855">
 <g>
  <rect height="20.1855" opacity="0" width="24.4141" x="0" y="0"/>
  <path d="M2.50977 16.875L21.9043 16.875Q23.1641 16.875 23.7891 16.2646Q24.4141 15.6543 24.4141 14.3652L24.4141 3.17383Q24.4141 1.89453 23.7891 1.28418Q23.1641 0.673828 21.9043 0.673828L2.50977 0.673828Q1.25977 0.673828 0.629883 1.28418Q0 1.89453 0 3.17383L0 14.3652Q0 15.6543 0.629883 16.2646Q1.25977 16.875 2.50977 16.875ZM7.29492 20.1855L17.1191 20.1855Q17.4414 20.1855 17.6758 19.9561Q17.9102 19.7266 17.9102 19.3945Q17.9102 19.0723 17.6758 18.8379Q17.4414 18.6035 17.1191 18.6035L7.29492 18.6035Q6.97266 18.6035 6.73828 18.8379Q6.50391 19.0723 6.50391 19.3945Q6.50391 19.7266 6.73828 19.9561Q6.97266 20.1855 7.29492 20.1855Z" fill="#007aff"/>
  <path d="M8.92578 12.9102L8.92578 4.64844Q8.92578 4.24805 9.25781 4.12109Q9.58984 3.99414 9.90234 4.16992L16.6699 8.16406Q17.0312 8.37891 17.0361 8.7793Q17.041 9.17969 16.6797 9.39453L9.90234 13.3887Q9.58984 13.5645 9.25781 13.4375Q8.92578 13.3105 8.92578 12.9102Z" fill="#ffffff"/>
 </g>
</svg>
