<?xml version="1.0" encoding="UTF-8"?>
<!--Generator: Apple Native CoreSVG 175-->
<!DOCTYPE svg
PUBLIC "-//W3C//DTD SVG 1.1//EN"
       "http://www.w3.org/Graphics/SVG/1.1/DTD/svg11.dtd">
<svg version="1.1" xmlns="http://www.w3.org/2000/svg" xmlns:xlink="http://www.w3.org/1999/xlink" width="19.1602" height="19.1504">
 <g>
  <rect height="19.1504" opacity="0" width="19.1602" x="0" y="0"/>
  <path d="M9.57031 19.1406Q11.5527 19.1406 13.2861 18.3984Q15.0195 17.6562 16.3379 16.333Q17.6562 15.0098 18.4082 13.2764Q19.1602 11.543 19.1602 9.57031Q19.1602 7.59766 18.4082 5.86426Q17.6562 4.13086 16.3379 2.80762Q15.0195 1.48438 13.2861 0.742188Q11.5527 0 9.57031 0Q7.59766 0 5.86426 0.742188Q4.13086 1.48438 2.81738 2.80762Q1.50391 4.13086 0.751953 5.86426Q0 7.59766 0 9.57031Q0 11.543 0.74707 13.2764Q1.49414 15.0098 2.8125 16.333Q4.13086 17.6562 5.86914 18.3984Q7.60742 19.1406 9.57031 19.1406ZM9.57031 18.3984Q7.74414 18.3984 6.14746 17.71Q4.55078 17.0215 3.33496 15.8105Q2.11914 14.5996 1.43555 12.998Q0.751953 11.3965 0.751953 9.57031Q0.751953 7.74414 1.43555 6.14258Q2.11914 4.54102 3.33496 3.3252Q4.55078 2.10938 6.14746 1.4209Q7.74414 0.732422 9.57031 0.732422Q11.4062 0.732422 13.0029 1.4209Q14.5996 2.10938 15.8154 3.3252Q17.0312 4.54102 17.7197 6.14258Q18.4082 7.74414 18.4082 9.57031Q18.4082 11.3965 17.7246 12.998Q17.041 14.5996 15.8252 15.8105Q14.6094 17.0215 13.0078 17.71Q11.4062 18.3984 9.57031 18.3984ZM7.12891 14.0234L14.0723 14.0234Q14.6484 14.0234 14.9561 13.7207Q15.2637 13.418 15.2637 12.832L15.2637 8.07617Q15.2637 7.5 14.9561 7.19727Q14.6484 6.89453 14.0723 6.89453L7.12891 6.89453Q6.5332 6.89453 6.23535 7.19727Q5.9375 7.5 5.9375 8.07617L5.9375 12.832Q5.9375 13.418 6.23535 13.7207Q6.5332 14.0234 7.12891 14.0234ZM9.16992 12.3145L9.16992 8.66211Q9.16992 8.53516 9.28711 8.49121Q9.4043 8.44727 9.51172 8.50586L12.5586 10.3027Q12.666 10.3711 12.666 10.4932Q12.666 10.6152 12.5684 10.6738L9.51172 12.4805Q9.4043 12.5391 9.28711 12.4951Q9.16992 12.4512 9.16992 12.3145ZM5.55664 8.05664Q5.55664 7.29492 5.94238 6.89941Q6.32812 6.50391 7.08984 6.50391L13.1934 6.51367L13.1934 6.18164Q13.1934 5.5957 12.8955 5.29297Q12.5977 4.99023 12.0117 4.99023L5.05859 4.99023Q4.48242 4.99023 4.17969 5.28809Q3.87695 5.58594 3.87695 6.18164L3.87695 10.9277Q3.87695 11.5039 4.17969 11.8066Q4.48242 12.1094 5.05859 12.1094L5.55664 12.1094Z" fill="#000000"/>
 </g>
</svg>
