<?xml version="1.0" encoding="UTF-8"?>
<!--Generator: Apple Native CoreSVG 175-->
<!DOCTYPE svg
PUBLIC "-//W3C//DTD SVG 1.1//EN"
       "http://www.w3.org/Graphics/SVG/1.1/DTD/svg11.dtd">
<svg version="1.1" xmlns="http://www.w3.org/2000/svg" xmlns:xlink="http://www.w3.org/1999/xlink" width="22.666" height="17.2949">
 <g>
  <rect height="17.2949" opacity="0" width="22.666" x="0" y="0"/>
  <path d="M2.62695 17.2852L20.0195 17.2852Q21.3281 17.2852 21.9971 16.6113Q22.666 15.9375 22.666 14.6582L22.666 2.62695Q22.666 1.34766 21.9971 0.673828Q21.3281 0 20.0195 0L2.62695 0Q1.33789 0 0.668945 0.668945Q0 1.33789 0 2.62695L0 14.6582Q0 15.957 0.668945 16.6211Q1.33789 17.2852 2.62695 17.2852ZM2.65625 16.5625Q1.70898 16.5625 1.2207 16.0742Q0.732422 15.5859 0.732422 14.6191L0.732422 2.65625Q0.732422 1.69922 1.2207 1.21094Q1.70898 0.722656 2.65625 0.722656L20 0.722656Q20.9277 0.722656 21.4307 1.21094Q21.9336 1.69922 21.9336 2.65625L21.9336 14.6191Q21.9336 15.5859 21.4307 16.0742Q20.9277 16.5625 20 16.5625ZM9.44336 12.4609L15.0391 9.0918Q15.293 8.93555 15.2979 8.66211Q15.3027 8.38867 15.0391 8.23242L9.44336 4.81445Q9.18945 4.66797 8.94043 4.77539Q8.69141 4.88281 8.69141 5.14648L8.69141 12.1484Q8.69141 12.4121 8.93555 12.5146Q9.17969 12.6172 9.44336 12.4609Z" fill="#007aff"/>
 </g>
</svg>
