<?xml version="1.0" encoding="UTF-8"?>
<!--Generator: Apple Native CoreSVG 175.5-->
<!DOCTYPE svg
PUBLIC "-//W3C//DTD SVG 1.1//EN"
       "http://www.w3.org/Graphics/SVG/1.1/DTD/svg11.dtd">
<svg version="1.1" xmlns="http://www.w3.org/2000/svg" xmlns:xlink="http://www.w3.org/1999/xlink" width="24.2969" height="19.7949">
 <g>
  <rect height="19.7949" opacity="0" width="24.2969" x="0" y="0"/>
  <path d="M3.06641 15.2637L5.48828 15.2637L5.48828 13.6914L3.08594 13.6914Q2.35352 13.6914 1.96289 13.3057Q1.57227 12.9199 1.57227 12.1582L1.57227 3.11523Q1.57227 2.35352 1.96289 1.96289Q2.35352 1.57227 3.08594 1.57227L16.2695 1.57227Q16.9922 1.57227 17.3926 1.96289Q17.793 2.35352 17.793 3.11523L17.793 5.15625L19.3652 5.15625L19.3652 3.02734Q19.3652 1.52344 18.5938 0.761719Q17.8223 0 16.2988 0L3.06641 0Q1.5332 0 0.766602 0.756836Q0 1.51367 0 3.02734L0 12.2363Q0 13.75 0.766602 14.5068Q1.5332 15.2637 3.06641 15.2637Z" fill="#007aff"/>
  <path d="M7.89062 19.7852L21.2305 19.7852Q22.7539 19.7852 23.5254 19.0283Q24.2969 18.2715 24.2969 16.7578L24.2969 7.54883Q24.2969 6.04492 23.5254 5.2832Q22.7539 4.52148 21.2305 4.52148L7.89062 4.52148Q6.35742 4.52148 5.59082 5.27832Q4.82422 6.03516 4.82422 7.54883L4.82422 16.7578Q4.82422 18.2715 5.59082 19.0283Q6.35742 19.7852 7.89062 19.7852ZM7.91016 18.2129Q7.17773 18.2129 6.78711 17.8271Q6.39648 17.4414 6.39648 16.6797L6.39648 7.63672Q6.39648 6.875 6.78711 6.48438Q7.17773 6.09375 7.91016 6.09375L21.2012 6.09375Q21.9238 6.09375 22.3242 6.48438Q22.7246 6.875 22.7246 7.63672L22.7246 16.6797Q22.7246 17.4414 22.3242 17.8271Q21.9238 18.2129 21.2012 18.2129ZM10.0391 12.1582Q10.0391 12.5098 10.2734 12.7344Q10.5078 12.959 10.8789 12.959L13.75 12.959L13.75 15.8398Q13.75 16.2109 13.9746 16.4404Q14.1992 16.6699 14.5508 16.6699Q14.9219 16.6699 15.1514 16.4404Q15.3809 16.2109 15.3809 15.8398L15.3809 12.959L18.2617 12.959Q18.6328 12.959 18.8623 12.7344Q19.0918 12.5098 19.0918 12.1582Q19.0918 11.7871 18.8623 11.5576Q18.6328 11.3281 18.2617 11.3281L15.3809 11.3281L15.3809 8.45703Q15.3809 8.07617 15.1514 7.84668Q14.9219 7.61719 14.5508 7.61719Q14.1992 7.61719 13.9746 7.85156Q13.75 8.08594 13.75 8.45703L13.75 11.3281L10.8789 11.3281Q10.498 11.3281 10.2686 11.5576Q10.0391 11.7871 10.0391 12.1582Z" fill="#007aff"/>
 </g>
</svg>
