<?xml version="1.0" encoding="UTF-8"?>
<!--Generator: Apple Native CoreSVG 175.5-->
<!DOCTYPE svg
PUBLIC "-//W3C//DTD SVG 1.1//EN"
       "http://www.w3.org/Graphics/SVG/1.1/DTD/svg11.dtd">
<svg version="1.1" xmlns="http://www.w3.org/2000/svg" xmlns:xlink="http://www.w3.org/1999/xlink" width="24.2969" height="19.7949">
 <g>
  <rect height="19.7949" opacity="0" width="24.2969" x="0" y="0"/>
  <path d="M7.89062 19.7852L21.2305 19.7852Q22.7539 19.7852 23.5254 19.0283Q24.2969 18.2715 24.2969 16.7578L24.2969 7.54883Q24.2969 6.04492 23.5254 5.2832Q22.7539 4.52148 21.2305 4.52148L7.89062 4.52148Q6.35742 4.52148 5.59082 5.27832Q4.82422 6.03516 4.82422 7.54883L4.82422 16.7578Q4.82422 18.2715 5.59082 19.0283Q6.35742 19.7852 7.89062 19.7852ZM7.89062 3.19336L19.3652 3.19336L19.3652 3.02734Q19.3652 1.52344 18.5938 0.761719Q17.8223 0 16.2988 0L3.06641 0Q1.5332 0 0.766602 0.756836Q0 1.51367 0 3.02734L0 12.2363Q0 13.75 0.766602 14.5068Q1.5332 15.2637 3.06641 15.2637L3.48633 15.2637L3.48633 7.54883Q3.48633 6.17188 4.00879 5.19531Q4.53125 4.21875 5.5127 3.70605Q6.49414 3.19336 7.89062 3.19336Z" fill="#007aff"/>
  <path d="M9.79492 12.168Q9.79492 11.7871 10.0391 11.5479Q10.2832 11.3086 10.6641 11.3086L13.7207 11.3086L13.7207 8.25195Q13.7207 7.87109 13.9502 7.62695Q14.1797 7.38281 14.5508 7.38281Q14.9316 7.38281 15.1709 7.62695Q15.4102 7.87109 15.4102 8.25195L15.4102 11.3086L18.4766 11.3086Q18.8574 11.3086 19.0967 11.5479Q19.3359 11.7871 19.3359 12.168Q19.3359 12.5391 19.0918 12.7686Q18.8477 12.998 18.4766 12.998L15.4102 12.998L15.4102 16.0645Q15.4102 16.4453 15.1709 16.6846Q14.9316 16.9238 14.5508 16.9238Q14.1797 16.9238 13.9502 16.6846Q13.7207 16.4453 13.7207 16.0645L13.7207 12.998L10.6641 12.998Q10.2832 12.998 10.0391 12.7686Q9.79492 12.5391 9.79492 12.168Z" fill="#ffffff"/>
 </g>
</svg>
