<?xml version="1.0" encoding="UTF-8"?>
<!--Generator: Apple Native CoreSVG 175.5-->
<!DOCTYPE svg
PUBLIC "-//W3C//DTD SVG 1.1//EN"
       "http://www.w3.org/Graphics/SVG/1.1/DTD/svg11.dtd">
<svg version="1.1" xmlns="http://www.w3.org/2000/svg" xmlns:xlink="http://www.w3.org/1999/xlink" width="11.8262" height="16.3184">
 <g>
  <rect height="16.3184" opacity="0" width="11.8262" x="0" y="0"/>
  <path d="M0 5.71289Q0 6.06445 0.258789 6.32324Q0.517578 6.58203 0.869141 6.58203L5.03906 6.58203L5.03906 10.6055Q5.03906 10.957 5.29297 11.2061Q5.54688 11.4551 5.9082 11.4551Q6.26953 11.4551 6.52832 11.2061Q6.78711 10.957 6.78711 10.6055L6.78711 6.58203L10.957 6.58203Q11.3184 6.58203 11.5723 6.32324Q11.8262 6.06445 11.8262 5.71289Q11.8262 5.35156 11.5723 5.09277Q11.3184 4.83398 10.957 4.83398L6.78711 4.83398L6.78711 0.859375Q6.78711 0.507812 6.52832 0.253906Q6.26953 0 5.9082 0Q5.54688 0 5.29297 0.253906Q5.03906 0.507812 5.03906 0.859375L5.03906 4.83398L0.869141 4.83398Q0.517578 4.83398 0.258789 5.09277Q0 5.35156 0 5.71289ZM0 15.4395Q0 15.8008 0.258789 16.0596Q0.517578 16.3184 0.869141 16.3184L10.957 16.3184Q11.3086 16.3184 11.5674 16.0596Q11.8262 15.8008 11.8262 15.4395Q11.8262 15.0879 11.5674 14.8291Q11.3086 14.5703 10.957 14.5703L0.869141 14.5703Q0.517578 14.5703 0.258789 14.8291Q0 15.0879 0 15.4395Z" fill="#007aff"/>
 </g>
</svg>
