<?xml version="1.0" encoding="UTF-8"?>
<!--Generator: Apple Native CoreSVG 175.5-->
<!DOCTYPE svg
PUBLIC "-//W3C//DTD SVG 1.1//EN"
       "http://www.w3.org/Graphics/SVG/1.1/DTD/svg11.dtd">
<svg version="1.1" xmlns="http://www.w3.org/2000/svg" xmlns:xlink="http://www.w3.org/1999/xlink" width="22.1486" height="22.1584">
 <g>
  <rect height="22.1584" opacity="0" width="22.1486" x="0" y="0"/>
  <path d="M1.09384 13.2325L8.9161 21.0548Q10.0001 22.1388 11.0743 22.1485Q12.1485 22.1583 13.2227 21.0841L21.0841 13.213Q22.1583 12.1485 22.1485 11.0694Q22.1388 9.99032 21.0548 8.90634L13.2423 1.09384Q12.1583 0.0098536 11.0841 8.79786e-05Q10.0099-0.00967765 8.93563 1.06454L1.06454 8.92587Q-0.00967765 10.0099 8.79786e-05 11.0792Q0.0098536 12.1485 1.09384 13.2325Z" fill="#32d74b"/>
  <path d="M6.29892 11.0841Q6.29892 10.7032 6.54306 10.464Q6.7872 10.2247 7.16806 10.2247L10.2247 10.2247L10.2247 7.16806Q10.2247 6.7872 10.4542 6.54306Q10.6837 6.29892 11.0548 6.29892Q11.4356 6.29892 11.6749 6.54306Q11.9142 6.7872 11.9142 7.16806L11.9142 10.2247L14.9806 10.2247Q15.3614 10.2247 15.6007 10.464Q15.8399 10.7032 15.8399 11.0841Q15.8399 11.4552 15.5958 11.6847Q15.3517 11.9142 14.9806 11.9142L11.9142 11.9142L11.9142 14.9806Q11.9142 15.3614 11.6749 15.6007Q11.4356 15.8399 11.0548 15.8399Q10.6837 15.8399 10.4542 15.6007Q10.2247 15.3614 10.2247 14.9806L10.2247 11.9142L7.16806 11.9142Q6.7872 11.9142 6.54306 11.6847Q6.29892 11.4552 6.29892 11.0841Z" fill="#ffffff"/>
 </g>
</svg>
