<?xml version="1.0" encoding="UTF-8"?>
<!--Generator: Apple Native CoreSVG 175-->
<!DOCTYPE svg
PUBLIC "-//W3C//DTD SVG 1.1//EN"
       "http://www.w3.org/Graphics/SVG/1.1/DTD/svg11.dtd">
<svg version="1.1" xmlns="http://www.w3.org/2000/svg" xmlns:xlink="http://www.w3.org/1999/xlink" width="17.2852" height="17.3145">
 <g>
  <rect height="17.3145" opacity="0" width="17.2852" x="0" y="0"/>
  <path d="M0 5.11719L0.732422 5.11719L0.732422 2.69531Q0.732422 1.72852 1.2207 1.24512Q1.70898 0.761719 2.65625 0.761719L5.06836 0.761719L5.06836 0.0292969L2.62695 0.0292969Q1.33789 0.0292969 0.668945 0.693359Q0 1.35742 0 2.65625ZM5.94727 0.761719L11.3477 0.761719L11.3477 0.0292969L5.94727 0.0292969ZM16.5625 5.11719L17.2852 5.11719L17.2852 2.65625Q17.2852 1.37695 16.6211 0.703125Q15.957 0.0292969 14.6484 0.0292969L12.2168 0.0292969L12.2168 0.761719L14.6289 0.761719Q15.5566 0.761719 16.0596 1.24512Q16.5625 1.72852 16.5625 2.69531ZM16.5625 11.3672L17.2852 11.3672L17.2852 5.97656L16.5625 5.97656ZM12.2168 17.3145L14.6484 17.3145Q15.957 17.3145 16.6211 16.6455Q17.2852 15.9766 17.2852 14.6875L17.2852 12.2363L16.5625 12.2363L16.5625 14.6582Q16.5625 15.6152 16.0596 16.1035Q15.5566 16.5918 14.6289 16.5918L12.2168 16.5918ZM5.94727 17.3145L11.3477 17.3145L11.3477 16.5918L5.94727 16.5918ZM2.62695 17.3145L5.06836 17.3145L5.06836 16.5918L2.65625 16.5918Q1.70898 16.5918 1.2207 16.1035Q0.732422 15.6152 0.732422 14.6582L0.732422 12.2363L0 12.2363L0 14.6875Q0 15.9863 0.668945 16.6504Q1.33789 17.3145 2.62695 17.3145ZM0 11.3672L0.732422 11.3672L0.732422 5.97656L0 5.97656ZM4.33594 8.65234Q4.33594 8.79883 4.44824 8.90625Q4.56055 9.01367 4.7168 9.01367L8.28125 9.01367L8.28125 12.5684Q8.28125 12.7344 8.38867 12.8467Q8.49609 12.959 8.64258 12.959Q8.80859 12.959 8.9209 12.8516Q9.0332 12.7441 9.0332 12.5684L9.0332 9.01367L12.5977 9.01367Q12.7539 9.01367 12.8662 8.90625Q12.9785 8.79883 12.9785 8.65234Q12.9785 8.48633 12.8711 8.37402Q12.7637 8.26172 12.5977 8.26172L9.0332 8.26172L9.0332 4.70703Q9.0332 4.53125 8.9209 4.42871Q8.80859 4.32617 8.64258 4.32617Q8.49609 4.32617 8.38867 4.43359Q8.28125 4.54102 8.28125 4.70703L8.28125 8.26172L4.7168 8.26172Q4.55078 8.26172 4.44336 8.37402Q4.33594 8.48633 4.33594 8.65234Z" fill="#000000"/>
 </g>
</svg>
