<?xml version="1.0" encoding="UTF-8"?>
<!--Generator: Apple Native CoreSVG 175.5-->
<!DOCTYPE svg
PUBLIC "-//W3C//DTD SVG 1.1//EN"
       "http://www.w3.org/Graphics/SVG/1.1/DTD/svg11.dtd">
<svg version="1.1" xmlns="http://www.w3.org/2000/svg" xmlns:xlink="http://www.w3.org/1999/xlink" width="18.4766" height="18.4473">
 <g>
  <rect height="18.4473" opacity="0" width="18.4766" x="0" y="0"/>
  <path d="M0 4.90234Q0 5.18555 0.200195 5.38574Q0.400391 5.58594 0.693359 5.58594L2.67578 5.58594L2.67578 7.57812Q2.67578 7.87109 2.88086 8.06641Q3.08594 8.26172 3.35938 8.26172Q3.65234 8.26172 3.85254 8.06152Q4.05273 7.86133 4.05273 7.57812L4.05273 5.58594L6.04492 5.58594Q6.33789 5.58594 6.53809 5.38574Q6.73828 5.18555 6.73828 4.90234Q6.73828 4.60938 6.53809 4.40918Q6.33789 4.20898 6.04492 4.20898L4.05273 4.20898L4.05273 2.2168Q4.05273 1.92383 3.85254 1.72363Q3.65234 1.52344 3.35938 1.52344Q3.07617 1.52344 2.87598 1.72363Q2.67578 1.92383 2.67578 2.2168L2.67578 4.20898L0.693359 4.20898Q0.400391 4.20898 0.200195 4.40918Q0 4.60938 0 4.90234ZM9.91211 9.61914L15.5762 1.24023Q15.6738 1.09375 15.7178 0.966797Q15.7617 0.839844 15.7617 0.693359Q15.7617 0.400391 15.542 0.200195Q15.3223 0 15.0195 0Q14.7656 0 14.5947 0.102539Q14.4238 0.205078 14.2188 0.507812L8.61328 8.82812L2.93945 17.1875Q2.8418 17.3242 2.79297 17.4561Q2.74414 17.5879 2.74414 17.7441Q2.74414 18.0664 2.97363 18.2568Q3.20312 18.4473 3.52539 18.4473Q3.76953 18.4473 3.93555 18.335Q4.10156 18.2227 4.28711 17.9492ZM11.7383 14.2188Q11.7383 14.5117 11.9385 14.7119Q12.1387 14.9121 12.4219 14.9121L17.7832 14.9121Q18.0664 14.9121 18.2715 14.7119Q18.4766 14.5117 18.4766 14.2188Q18.4766 13.9355 18.2715 13.7354Q18.0664 13.5352 17.7832 13.5352L12.4219 13.5352Q12.1387 13.5352 11.9385 13.7354Q11.7383 13.9355 11.7383 14.2188Z" fill="#007aff"/>
 </g>
</svg>
