<?xml version="1.0" encoding="UTF-8"?>
<!--Generator: Apple Native CoreSVG 175.5-->
<!DOCTYPE svg
PUBLIC "-//W3C//DTD SVG 1.1//EN"
       "http://www.w3.org/Graphics/SVG/1.1/DTD/svg11.dtd">
<svg version="1.1" xmlns="http://www.w3.org/2000/svg" xmlns:xlink="http://www.w3.org/1999/xlink" width="16.1133" height="16.123">
 <g>
  <rect height="16.123" opacity="0" width="16.1133" x="0" y="0"/>
  <path d="M0 8.05664Q0 8.41797 0.258789 8.67188Q0.517578 8.92578 0.869141 8.92578L7.1875 8.92578L7.1875 15.2441Q7.1875 15.5957 7.44141 15.8545Q7.69531 16.1133 8.05664 16.1133Q8.41797 16.1133 8.67676 15.8545Q8.93555 15.5957 8.93555 15.2441L8.93555 8.92578L15.2441 8.92578Q15.5957 8.92578 15.8545 8.67188Q16.1133 8.41797 16.1133 8.05664Q16.1133 7.69531 15.8545 7.43652Q15.5957 7.17773 15.2441 7.17773L8.93555 7.17773L8.93555 0.869141Q8.93555 0.517578 8.67676 0.258789Q8.41797 0 8.05664 0Q7.69531 0 7.44141 0.258789Q7.1875 0.517578 7.1875 0.869141L7.1875 7.17773L0.869141 7.17773Q0.517578 7.17773 0.258789 7.43652Q0 7.69531 0 8.05664Z" fill="#32d74b"/>
 </g>
</svg>
