<?xml version="1.0" encoding="UTF-8"?>
<!--Generator: Apple Native CoreSVG 175-->
<!DOCTYPE svg
PUBLIC "-//W3C//DTD SVG 1.1//EN"
       "http://www.w3.org/Graphics/SVG/1.1/DTD/svg11.dtd">
<svg version="1.1" xmlns="http://www.w3.org/2000/svg" xmlns:xlink="http://www.w3.org/1999/xlink" width="23.4766" height="18.5645">
 <g>
  <rect height="18.5645" opacity="0" width="23.4766" x="0" y="0"/>
  <path d="M7.00195 18.5645L20.8398 18.5645Q22.1387 18.5645 22.8076 17.8906Q23.4766 17.2168 23.4766 15.9375L23.4766 6.54297Q23.4766 5.27344 22.8076 4.59473Q22.1387 3.91602 20.8398 3.91602L7.00195 3.91602Q5.69336 3.91602 5.02441 4.58496Q4.35547 5.25391 4.35547 6.54297L4.35547 15.9375Q4.35547 17.2266 5.02441 17.8955Q5.69336 18.5645 7.00195 18.5645ZM7.00195 3.05664L18.7012 3.05664L18.7012 2.64648Q18.7012 1.36719 18.0322 0.693359Q17.3633 0.0195312 16.0645 0.0195312L2.62695 0.0195312Q1.33789 0.0195312 0.668945 0.683594Q0 1.34766 0 2.64648L0 12.0312Q0 13.3203 0.668945 13.9893Q1.33789 14.6582 2.62695 14.6582L3.48633 14.6582L3.48633 6.54297Q3.48633 5.43945 3.90137 4.66309Q4.31641 3.88672 5.10254 3.47168Q5.88867 3.05664 7.00195 3.05664ZM9.56055 11.2402Q9.56055 11.0742 9.67285 10.9619Q9.78516 10.8496 9.95117 10.8496L13.5449 10.8496L13.5449 7.24609Q13.5449 7.08008 13.6523 6.96777Q13.7598 6.85547 13.916 6.85547Q14.082 6.85547 14.1992 6.96777Q14.3164 7.08008 14.3164 7.24609L14.3164 10.8496L17.9102 10.8496Q18.0859 10.8496 18.1934 10.9619Q18.3008 11.0742 18.3008 11.2402Q18.3008 11.3965 18.1885 11.5039Q18.0762 11.6113 17.9102 11.6113L14.3164 11.6113L14.3164 15.2051Q14.3164 15.3809 14.1992 15.4883Q14.082 15.5957 13.916 15.5957Q13.7598 15.5957 13.6523 15.4834Q13.5449 15.3711 13.5449 15.2051L13.5449 11.6113L9.95117 11.6113Q9.78516 11.6113 9.67285 11.5039Q9.56055 11.3965 9.56055 11.2402Z" fill="#000000"/>
 </g>
</svg>
