<?xml version="1.0" encoding="UTF-8"?>
<!--Generator: Apple Native CoreSVG 175.5-->
<!DOCTYPE svg
PUBLIC "-//W3C//DTD SVG 1.1//EN"
       "http://www.w3.org/Graphics/SVG/1.1/DTD/svg11.dtd">
<svg version="1.1" xmlns="http://www.w3.org/2000/svg" xmlns:xlink="http://www.w3.org/1999/xlink" width="17.8875" height="24.7168">
 <g>
  <rect height="24.7168" opacity="0" width="17.8875" x="0" y="0"/>
  <path d="M1.81331 8.17383L2.40901 6.85547Q2.03792 6.74805 1.79377 6.41602Q1.54963 6.08398 1.54963 5.6543Q1.54963 5.19531 1.8426 4.86328Q2.13557 4.53125 2.60432 4.40918Q3.07307 4.28711 3.60042 4.45312Q3.53206 3.95508 3.80061 3.58398Q4.06917 3.21289 4.52327 3.08594Q4.97737 2.95898 5.47542 3.20312Q5.25081 2.34375 5.67561 1.87988Q6.10042 1.41602 6.70588 1.41602Q7.30159 1.41602 7.7801 1.86523Q8.25862 2.31445 8.14143 3.18359Q8.45393 2.97852 8.87874 2.92969Q9.30354 2.88086 9.70881 2.96875Q10.1141 3.05664 10.3778 3.26172Q10.5633 2.82227 10.9393 2.57812Q11.3153 2.33398 11.7742 2.33398Q12.4383 2.33398 12.7703 2.80762Q13.1024 3.28125 13.0828 4.01367Q13.6883 3.91602 14.1571 4.05762Q14.6258 4.19922 14.8944 4.56543Q15.1629 4.93164 15.1629 5.49805Q15.1629 5.95703 14.8553 6.33301Q14.5477 6.70898 14.0985 6.8457L14.8895 8.07617Q15.6317 7.71484 16.0955 6.99707Q16.5594 6.2793 16.5594 5.40039Q16.5594 4.56055 16.2274 3.91602Q15.8953 3.27148 15.2996 2.89551Q14.7039 2.51953 13.9324 2.5Q13.6297 1.78711 13.0633 1.35254Q12.4969 0.917969 11.7059 0.917969Q11.2078 0.917969 10.7586 1.08887Q10.3094 1.25977 9.95784 1.58203Q9.77229 1.5332 9.5428 1.51855Q9.31331 1.50391 9.09846 1.55273Q8.7762 0.839844 8.13167 0.419922Q7.48713 0 6.70588 0Q5.67073 0 5.01643 0.532227Q4.36213 1.06445 4.23518 1.69922Q3.86409 1.66992 3.55159 1.85059Q3.23909 2.03125 3.05354 2.33887Q2.86799 2.64648 2.86799 2.97852Q2.12581 2.95898 1.50569 3.31543Q0.885572 3.67188 0.519361 4.28711Q0.15315 4.90234 0.15315 5.6543Q0.15315 6.50391 0.617017 7.1875Q1.08088 7.87109 1.81331 8.17383ZM4.50862 23.1348L10.6121 23.1348L10.5535 21.6797L7.47737 21.6797L6.36409 9.46289Q6.2762 8.51562 6.81819 7.93945Q7.36018 7.36328 8.35627 7.36328Q9.3426 7.36328 9.88948 7.93945Q10.4364 8.51562 10.3485 9.46289L9.41096 19.8047L10.9149 19.1406L11.784 9.52148Q11.8621 8.71094 12.3358 8.28613Q12.8094 7.86133 13.4637 7.86133Q13.991 7.86133 14.4403 8.11035Q14.8895 8.35938 15.1141 8.82812Q15.3387 9.29688 15.2117 9.95117L13.9031 16.7383L15.3582 16.8066L16.6375 10.0293Q16.8426 8.94531 16.4422 8.12988Q16.0418 7.31445 15.2459 6.86035Q14.45 6.40625 13.4637 6.40625Q12.7996 6.40625 12.2381 6.66504Q11.6766 6.92383 11.2664 7.39258Q10.8563 6.71875 10.0946 6.31348Q9.33284 5.9082 8.35627 5.9082Q7.37971 5.9082 6.61799 6.31348Q5.85627 6.71875 5.44612 7.39258Q5.03596 6.92383 4.46956 6.66504Q3.90315 6.40625 3.24885 6.40625Q2.26252 6.40625 1.46174 6.86035Q0.660962 7.31445 0.260572 8.12988Q-0.139819 8.94531 0.0750248 10.0293L2.13557 20.9375Q2.34065 21.9922 2.89729 22.5635Q3.45393 23.1348 4.50862 23.1348ZM4.55745 21.6797Q4.15706 21.6797 3.9178 21.4746Q3.67854 21.2695 3.61018 20.8691L1.50081 9.95117Q1.37385 9.29688 1.59846 8.82812Q1.82307 8.35938 2.26741 8.11035Q2.71174 7.86133 3.24885 7.86133Q3.90315 7.86133 4.37678 8.28613Q4.85042 8.71094 4.91877 9.52148L6.02229 21.6797ZM13.6883 24.6973Q14.4012 24.6973 15.0067 24.3262Q15.6121 23.9551 15.9246 23.3398Q16.7938 23.1348 17.3406 22.4365Q17.8875 21.7383 17.8875 20.8496Q17.8875 20.0488 17.4432 19.3994Q16.9989 18.75 16.325 18.4082Q16.2957 17.7051 15.9344 17.1777Q15.5731 16.6504 14.9871 16.3574Q14.4012 16.0645 13.6883 16.0645Q12.6336 16.0645 11.8768 16.6797Q11.1199 17.2949 11.0614 18.3105Q10.1824 18.5059 9.60139 19.2188Q9.02034 19.9316 9.02034 20.8398Q9.02034 21.5234 9.33772 22.0898Q9.6551 22.6562 10.202 23.0127Q10.7489 23.3691 11.4129 23.4277Q11.7547 23.9941 12.3651 24.3457Q12.9754 24.6973 13.6883 24.6973ZM13.6883 23.4375Q13.1219 23.4375 12.6873 23.0957Q12.2528 22.7539 12.2821 22.0898Q11.784 22.2461 11.325 22.1387Q10.866 22.0312 10.5682 21.6992Q10.2703 21.3672 10.2703 20.8398Q10.2703 20.0391 10.8465 19.6338Q11.4227 19.2285 12.3406 19.3848Q12.1746 18.9258 12.2772 18.4521Q12.3797 17.9785 12.7362 17.6514Q13.0926 17.3242 13.6883 17.3242Q14.2645 17.3242 14.6258 17.6416Q14.9871 17.959 15.1092 18.4473Q15.2313 18.9355 15.075 19.4531Q15.7586 19.375 16.1785 19.7803Q16.5985 20.1855 16.5985 20.8984Q16.5985 21.5234 16.1785 21.8701Q15.7586 22.2168 15.0262 22.1484Q15.0457 22.7148 14.6258 23.0762Q14.2059 23.4375 13.6883 23.4375Z" fill="#007aff"/>
 </g>
</svg>
