<?xml version="1.0" encoding="UTF-8"?>
<!--Generator: Apple Native CoreSVG 175-->
<!DOCTYPE svg
PUBLIC "-//W3C//DTD SVG 1.1//EN"
       "http://www.w3.org/Graphics/SVG/1.1/DTD/svg11.dtd">
<svg version="1.1" xmlns="http://www.w3.org/2000/svg" xmlns:xlink="http://www.w3.org/1999/xlink" width="19.1554" height="20.4034">
 <g>
  <rect height="20.4034" opacity="0" width="19.1554" x="0" y="0"/>
  <path d="M9.57428 19.7711Q11.552 19.7711 13.2834 19.025Q15.0148 18.2788 16.3355 16.9582Q17.6562 15.6375 18.4058 13.9025Q19.1554 12.1675 19.1554 10.1968Q19.1554 8.55499 18.6723 7.18277Q18.1891 5.81055 17.4145 4.73183Q16.6399 3.65311 15.7516 2.89215Q15.6313 2.78427 15.5068 2.77748Q15.3824 2.77069 15.2836 2.83081Q15.1848 2.89093 15.1344 2.99606Q15.0839 3.1012 15.1068 3.22426Q15.1297 3.34732 15.2499 3.45779Q16.718 4.68903 17.5623 6.42792Q18.4067 8.16681 18.4094 10.1968Q18.4094 12.0238 17.7241 13.6261Q17.0387 15.2284 15.8237 16.44Q14.6086 17.6515 13.0084 18.3382Q11.4082 19.025 9.57428 19.025Q7.74734 19.025 6.14853 18.3382Q4.54971 17.6515 3.33466 16.44Q2.1196 15.2284 1.43425 13.6261Q0.748901 12.0238 0.748901 10.1968Q0.751648 8.16406 1.59241 6.42868Q2.43317 4.6933 3.89847 3.45505Q4.02588 3.34457 4.04869 3.22151Q4.0715 3.09845 4.02245 2.99332Q3.97339 2.88818 3.87321 2.82806Q3.77304 2.76794 3.6451 2.77473Q3.51715 2.78152 3.39691 2.8894Q2.50854 3.64334 1.73393 4.72694Q0.95932 5.81055 0.47966 7.18277Q0 8.55499 0 10.1968Q0 12.1675 0.746078 13.9025Q1.49216 15.6375 2.81288 16.9582Q4.13361 18.2788 5.86853 19.025Q7.60345 19.7711 9.57428 19.7711ZM9.57428 10.0008Q9.729 10.0008 9.8362 9.89433Q9.94339 9.7879 9.94339 9.62769L9.94339 0.373077Q9.94339 0.21286 9.8362 0.10643Q9.729 0 9.57428 0Q9.41956 0 9.31717 0.10643Q9.21478 0.21286 9.21478 0.373077L9.21478 9.62769Q9.21478 9.7879 9.31717 9.89433Q9.41956 10.0008 9.57428 10.0008Z" fill="#000000"/>
 </g>
</svg>
