<?xml version="1.0" encoding="UTF-8"?>
<!--Generator: Apple Native CoreSVG 175.5-->
<!DOCTYPE svg
PUBLIC "-//W3C//DTD SVG 1.1//EN"
       "http://www.w3.org/Graphics/SVG/1.1/DTD/svg11.dtd">
<svg version="1.1" xmlns="http://www.w3.org/2000/svg" xmlns:xlink="http://www.w3.org/1999/xlink" width="10.8398" height="21.3184">
 <g>
  <rect height="21.3184" opacity="0" width="10.8398" x="0" y="0"/>
  <path d="M3.00781 21.3086L7.83203 21.3086Q9.31641 21.3086 10.0781 20.5566Q10.8398 19.8047 10.8398 18.3398L10.8398 2.97852Q10.8398 1.51367 10.0781 0.756836Q9.31641 0 7.83203 0L3.00781 0Q1.5332 0 0.766602 0.756836Q0 1.51367 0 2.97852L0 18.3398Q0 19.8047 0.766602 20.5566Q1.5332 21.3086 3.00781 21.3086Z" fill="#007aff"/>
  <path d="M5.42969 6.73828Q4.79492 6.73828 4.35059 6.29395Q3.90625 5.84961 3.90625 5.21484Q3.90625 4.59961 4.35059 4.16016Q4.79492 3.7207 5.42969 3.7207Q6.05469 3.7207 6.49902 4.16016Q6.94336 4.59961 6.94336 5.21484Q6.94336 5.84961 6.49902 6.29395Q6.05469 6.73828 5.42969 6.73828ZM5.42969 12.168Q4.79492 12.168 4.35059 11.7285Q3.90625 11.2891 3.90625 10.6543Q3.90625 10.0293 4.35059 9.58496Q4.79492 9.14062 5.42969 9.14062Q6.05469 9.14062 6.49902 9.58496Q6.94336 10.0293 6.94336 10.6543Q6.94336 11.2891 6.49902 11.7285Q6.05469 12.168 5.42969 12.168ZM5.42969 17.5977Q4.79492 17.5977 4.35059 17.1533Q3.90625 16.709 3.90625 16.084Q3.90625 15.459 4.35059 15.0195Q4.79492 14.5801 5.42969 14.5801Q6.05469 14.5801 6.49902 15.0195Q6.94336 15.459 6.94336 16.084Q6.94336 16.709 6.49902 17.1533Q6.05469 17.5977 5.42969 17.5977Z" fill="#ffffff"/>
 </g>
</svg>
