<?xml version="1.0" encoding="UTF-8"?>
<!--Generator: Apple Native CoreSVG 175.5-->
<!DOCTYPE svg
PUBLIC "-//W3C//DTD SVG 1.1//EN"
       "http://www.w3.org/Graphics/SVG/1.1/DTD/svg11.dtd">
<svg version="1.1" xmlns="http://www.w3.org/2000/svg" xmlns:xlink="http://www.w3.org/1999/xlink" width="17.9785" height="17.998">
 <g>
  <rect height="17.998" opacity="0" width="17.9785" x="0" y="0"/>
  <path d="M3.06641 17.998L14.9121 17.998Q16.4453 17.998 17.2119 17.2412Q17.9785 16.4844 17.9785 14.9707L17.9785 3.04688Q17.9785 1.5332 17.2119 0.776367Q16.4453 0.0195312 14.9121 0.0195312L3.06641 0.0195312Q1.5332 0.0195312 0.766602 0.776367Q0 1.5332 0 3.04688L0 14.9707Q0 16.4844 0.766602 17.2412Q1.5332 17.998 3.06641 17.998ZM3.08594 16.4258Q2.35352 16.4258 1.96289 16.04Q1.57227 15.6543 1.57227 14.8926L1.57227 3.125Q1.57227 2.36328 1.96289 1.97754Q2.35352 1.5918 3.08594 1.5918L14.8926 1.5918Q15.6152 1.5918 16.0107 1.97754Q16.4062 2.36328 16.4062 3.125L16.4062 14.8926Q16.4062 15.6543 16.0107 16.04Q15.6152 16.4258 14.8926 16.4258Z" fill="#007aff"/>
  <path d="M5.89844 13.4668L12.0801 13.4668Q12.5488 13.4668 12.8418 13.1738Q13.6621 12.4121 14.165 11.3135Q14.668 10.2148 14.668 9.00391Q14.668 7.79297 14.165 6.69434Q13.6621 5.5957 12.8418 4.84375Q12.5488 4.55078 12.0801 4.55078L5.89844 4.55078Q5.68359 4.55078 5.49316 4.61426Q5.30273 4.67773 5.14648 4.81445Q4.33594 5.57617 3.82324 6.67969Q3.31055 7.7832 3.31055 9.00391Q3.31055 10.2148 3.81836 11.3135Q4.32617 12.4121 5.13672 13.1738Q5.42969 13.4668 5.89844 13.4668ZM6.61133 11.2793Q6.37695 11.2793 6.2207 11.1182Q6.06445 10.957 6.06445 10.7227L6.06445 7.27539Q6.06445 7.04102 6.2207 6.88477Q6.37695 6.72852 6.61133 6.72852Q6.8457 6.72852 7.00684 6.88477Q7.16797 7.04102 7.16797 7.27539L7.16797 10.7227Q7.16797 10.957 7.00684 11.1182Q6.8457 11.2793 6.61133 11.2793ZM11.3672 11.2793Q11.1328 11.2793 10.9766 11.1182Q10.8203 10.957 10.8203 10.7227L10.8203 7.27539Q10.8203 7.04102 10.9766 6.88477Q11.1328 6.72852 11.3672 6.72852Q11.6016 6.72852 11.7578 6.88477Q11.9141 7.04102 11.9141 7.27539L11.9141 10.7227Q11.9141 10.957 11.7578 11.1182Q11.6016 11.2793 11.3672 11.2793Z" fill="#007aff"/>
 </g>
</svg>
