<?xml version="1.0" encoding="UTF-8"?>
<!--Generator: Apple Native CoreSVG 175.5-->
<!DOCTYPE svg
PUBLIC "-//W3C//DTD SVG 1.1//EN"
       "http://www.w3.org/Graphics/SVG/1.1/DTD/svg11.dtd">
<svg version="1.1" xmlns="http://www.w3.org/2000/svg" xmlns:xlink="http://www.w3.org/1999/xlink" width="17.9785" height="17.998">
 <g>
  <rect height="17.998" opacity="0" width="17.9785" x="0" y="0"/>
  <path d="M3.06641 17.998L14.9121 17.998Q16.4453 17.998 17.2119 17.2412Q17.9785 16.4844 17.9785 14.9707L17.9785 3.04688Q17.9785 1.5332 17.2119 0.776367Q16.4453 0.0195312 14.9121 0.0195312L3.06641 0.0195312Q1.5332 0.0195312 0.766602 0.776367Q0 1.5332 0 3.04688L0 14.9707Q0 16.4844 0.766602 17.2412Q1.5332 17.998 3.06641 17.998Z" fill="#007aff"/>
  <path d="M5.05859 13.7207Q4.64844 13.7207 4.37988 13.4521Q4.11133 13.1836 4.11133 12.7734L4.11133 5.21484Q4.11133 4.80469 4.37988 4.53613Q4.64844 4.26758 5.05859 4.26758L12.9199 4.26758Q13.3301 4.26758 13.5986 4.53613Q13.8672 4.80469 13.8672 5.21484L13.8672 12.7734Q13.8672 13.1836 13.5986 13.4521Q13.3301 13.7207 12.9199 13.7207ZM9.00391 7.96875Q9.42383 7.96875 9.72168 7.6709Q10.0195 7.37305 10.0195 6.94336Q10.0195 6.52344 9.72168 6.22559Q9.42383 5.92773 9.00391 5.92773Q8.57422 5.92773 8.27637 6.22559Q7.97852 6.52344 7.97852 6.94336Q7.97852 7.37305 8.27637 7.6709Q8.57422 7.96875 9.00391 7.96875ZM6.79688 12.0605Q7.22656 12.0605 7.52441 11.7627Q7.82227 11.4648 7.82227 11.0352Q7.82227 10.6152 7.52441 10.3174Q7.22656 10.0195 6.79688 10.0195Q6.37695 10.0195 6.0791 10.3174Q5.78125 10.6152 5.78125 11.0352Q5.78125 11.4648 6.0791 11.7627Q6.37695 12.0605 6.79688 12.0605ZM11.2012 12.0605Q11.6211 12.0605 11.9189 11.7627Q12.2168 11.4648 12.2168 11.0352Q12.2168 10.6152 11.9189 10.3174Q11.6211 10.0195 11.2012 10.0195Q10.7715 10.0195 10.4736 10.3174Q10.1758 10.6152 10.1758 11.0352Q10.1758 11.4648 10.4736 11.7627Q10.7715 12.0605 11.2012 12.0605Z" fill="#ffffff"/>
 </g>
</svg>
