<?xml version="1.0" encoding="UTF-8"?>
<!--Generator: Apple Native CoreSVG 175.5-->
<!DOCTYPE svg
PUBLIC "-//W3C//DTD SVG 1.1//EN"
       "http://www.w3.org/Graphics/SVG/1.1/DTD/svg11.dtd">
<svg version="1.1" xmlns="http://www.w3.org/2000/svg" xmlns:xlink="http://www.w3.org/1999/xlink" width="17.9785" height="17.998">
 <g>
  <rect height="17.998" opacity="0" width="17.9785" x="0" y="0"/>
  <path d="M3.06641 17.998L14.9121 17.998Q16.4453 17.998 17.2119 17.2412Q17.9785 16.4844 17.9785 14.9707L17.9785 3.04688Q17.9785 1.5332 17.2119 0.776367Q16.4453 0.0195312 14.9121 0.0195312L3.06641 0.0195312Q1.5332 0.0195312 0.766602 0.776367Q0 1.5332 0 3.04688L0 14.9707Q0 16.4844 0.766602 17.2412Q1.5332 17.998 3.06641 17.998Z" fill="#007aff"/>
  <path d="M5.05859 13.7207Q4.64844 13.7207 4.37988 13.4521Q4.11133 13.1836 4.11133 12.7734L4.11133 5.21484Q4.11133 4.80469 4.37988 4.53613Q4.64844 4.26758 5.05859 4.26758L12.9199 4.26758Q13.3301 4.26758 13.5986 4.53613Q13.8672 4.80469 13.8672 5.21484L13.8672 12.7734Q13.8672 13.1836 13.5986 13.4521Q13.3301 13.7207 12.9199 13.7207ZM9.00391 8.31055Q9.42383 8.31055 9.72168 8.0127Q10.0195 7.71484 10.0195 7.29492Q10.0195 6.875 9.72168 6.57715Q9.42383 6.2793 9.00391 6.2793Q8.57422 6.2793 8.27637 6.57715Q7.97852 6.875 7.97852 7.29492Q7.97852 7.71484 8.27637 8.0127Q8.57422 8.31055 9.00391 8.31055ZM6.79688 11.709Q7.22656 11.709 7.52441 11.4111Q7.82227 11.1133 7.82227 10.6934Q7.82227 10.2637 7.52441 9.96582Q7.22656 9.66797 6.79688 9.66797Q6.37695 9.66797 6.0791 9.96582Q5.78125 10.2637 5.78125 10.6934Q5.78125 11.1133 6.0791 11.4111Q6.37695 11.709 6.79688 11.709ZM11.2012 11.709Q11.6211 11.709 11.9189 11.4111Q12.2168 11.1133 12.2168 10.6934Q12.2168 10.2637 11.9189 9.96582Q11.6211 9.66797 11.2012 9.66797Q10.7715 9.66797 10.4736 9.96582Q10.1758 10.2637 10.1758 10.6934Q10.1758 11.1133 10.4736 11.4111Q10.7715 11.709 11.2012 11.709Z" fill="#ffffff"/>
 </g>
</svg>
