<?xml version="1.0" encoding="UTF-8"?>
<!--Generator: Apple Native CoreSVG 175.5-->
<!DOCTYPE svg
PUBLIC "-//W3C//DTD SVG 1.1//EN"
       "http://www.w3.org/Graphics/SVG/1.1/DTD/svg11.dtd">
<svg version="1.1" xmlns="http://www.w3.org/2000/svg" xmlns:xlink="http://www.w3.org/1999/xlink" width="26.2219" height="13.6816">
 <g>
  <rect height="13.6816" opacity="0" width="26.2219" x="0" y="0"/>
  <path d="M7.18386 0Q6.178 0 5.50417 0.405273Q4.83034 0.810547 4.10768 1.5625L0.748309 5.12695Q0.240497 5.6543 0.0793639 6.22559Q-0.0817689 6.79688 0.0842467 7.36816Q0.250262 7.93945 0.738544 8.4668L4.09792 12.0898Q4.75222 12.7832 5.49929 13.2227Q6.24636 13.6621 7.18386 13.6621L19.0393 13.6621Q19.9768 13.6621 20.7239 13.2227Q21.471 12.7832 22.1253 12.0898L25.4749 8.4668Q25.9729 7.93945 26.1389 7.36816Q26.3049 6.79688 26.1389 6.22559Q25.9729 5.6543 25.4749 5.12695L22.1155 1.5625Q21.3928 0.810547 20.719 0.405273Q20.0452 0 19.0393 0Z" fill="#007aff"/>
  <path d="M6.41237 5.04883Q7.13503 5.04883 7.65261 5.56152Q8.17018 6.07422 8.17018 6.79688Q8.17018 7.51953 7.65261 8.03711Q7.13503 8.55469 6.41237 8.55469Q5.69948 8.55469 5.18679 8.03711Q4.67409 7.51953 4.67409 6.79688Q4.67409 6.07422 5.18679 5.56152Q5.69948 5.04883 6.41237 5.04883ZM13.1214 6.83594Q13.8342 6.83594 14.3469 7.35352Q14.8596 7.87109 14.8596 8.59375Q14.8596 9.31641 14.3469 9.8291Q13.8342 10.3418 13.1214 10.3418Q12.3987 10.3418 11.886 9.8291Q11.3733 9.31641 11.3733 8.59375Q11.3733 7.87109 11.886 7.35352Q12.3987 6.83594 13.1214 6.83594ZM19.8206 5.04883Q20.5432 5.04883 21.0559 5.56152Q21.5686 6.07422 21.5686 6.79688Q21.5686 7.51953 21.0559 8.03711Q20.5432 8.55469 19.8206 8.55469Q19.0979 8.55469 18.5803 8.03711Q18.0628 7.51953 18.0628 6.79688Q18.0628 6.07422 18.5803 5.56152Q19.0979 5.04883 19.8206 5.04883Z" fill="#ffffff"/>
 </g>
</svg>
