<?xml version="1.0" encoding="UTF-8"?>
<!--Generator: Apple Native CoreSVG 175-->
<!DOCTYPE svg
PUBLIC "-//W3C//DTD SVG 1.1//EN"
       "http://www.w3.org/Graphics/SVG/1.1/DTD/svg11.dtd">
<svg version="1.1" xmlns="http://www.w3.org/2000/svg" xmlns:xlink="http://www.w3.org/1999/xlink" width="25.9294" height="17.4075">
 <g>
  <rect height="17.4075" opacity="0" width="25.9294" x="0" y="0"/>
  <path d="M0 10.8904Q0 11.6759 0.439072 12.0995Q0.878143 12.5232 1.68594 12.5232L5.31525 12.5232Q6.10947 12.5232 6.70609 12.69Q7.3027 12.8568 7.80312 13.2454Q8.30353 13.634 8.81561 14.3066Q9.95316 15.7677 11.6227 16.5681Q13.2922 17.3685 15.1692 17.3685L18.1442 17.3685Q18.8274 17.3685 19.2143 17.0005Q19.6013 16.6325 19.6013 15.9705L19.6013 1.29852Q19.6013 0.684052 19.1989 0.342026Q18.7965 0 18.1442 0L15.1692 0Q13.2922 0 11.6227 0.8004Q9.95316 1.6008 8.81561 3.06183Q8.30353 3.73444 7.80312 4.12308Q7.3027 4.51172 6.70609 4.68338Q6.10947 4.85504 5.31525 4.85504L1.68594 4.85504Q0.878143 4.85504 0.439072 5.27382Q0 5.6926 0 6.47812ZM0.70816 10.8395L0.70816 6.52893Q0.70816 5.55634 1.73004 5.55634L5.31525 5.55634Q6.66611 5.55634 7.57622 5.0985Q8.48633 4.64066 9.366 3.49182Q10.3941 2.15118 11.9213 1.42624Q13.4485 0.701294 15.1692 0.701294L17.9985 0.701294Q18.4219 0.701294 18.6575 0.924911Q18.893 1.14853 18.893 1.55075L18.893 15.8247Q18.893 16.2199 18.6575 16.4436Q18.4219 16.6672 17.9985 16.6672L15.1692 16.6672Q13.4485 16.6672 11.9213 15.9457Q10.3941 15.2243 9.366 13.8837Q8.48633 12.7446 7.57622 12.2797Q6.66611 11.8149 5.31525 11.8149L1.73004 11.8149Q0.70816 11.8149 0.70816 10.8395ZM19.2355 6.06995L24.8044 6.06995Q25.1144 6.06995 25.3703 5.91843Q25.6262 5.76691 25.7778 5.51239Q25.9294 5.25787 25.9294 4.94492Q25.9294 4.63913 25.7778 4.38461Q25.6262 4.1301 25.3703 3.97858Q25.1144 3.82706 24.8044 3.82706L19.2355 3.82706ZM19.2355 13.5414L24.8044 13.5414Q25.1144 13.5414 25.3703 13.3899Q25.6262 13.2384 25.7778 12.9839Q25.9294 12.7293 25.9294 12.4236Q25.9294 12.1133 25.7778 11.8575Q25.6262 11.6016 25.3703 11.45Q25.1144 11.2985 24.8044 11.2985L19.2355 11.2985Z" fill="#000000"/>
 </g>
</svg>
