<?xml version="1.0" encoding="UTF-8"?>
<!--Generator: Apple Native CoreSVG 175.5-->
<!DOCTYPE svg
PUBLIC "-//W3C//DTD SVG 1.1//EN"
       "http://www.w3.org/Graphics/SVG/1.1/DTD/svg11.dtd">
<svg version="1.1" xmlns="http://www.w3.org/2000/svg" xmlns:xlink="http://www.w3.org/1999/xlink" width="19.9219" height="21.0645">
 <g>
  <rect height="21.0645" opacity="0" width="19.9219" x="0" y="0"/>
  <path d="M9.96094 20.4883Q12.002 20.4883 13.8037 19.707Q15.6055 18.9258 16.9824 17.5488Q18.3594 16.1719 19.1406 14.3701Q19.9219 12.5684 19.9219 10.5273Q19.9219 9.0332 19.502 7.68555Q19.082 6.33789 18.3496 5.20996Q17.6172 4.08203 16.6797 3.22266Q16.4258 2.98828 16.1572 2.96387Q15.8887 2.93945 15.6738 3.06641Q15.459 3.19336 15.3418 3.41797Q15.2246 3.64258 15.2686 3.90625Q15.3125 4.16992 15.5664 4.41406Q16.8164 5.54688 17.5342 7.12402Q18.252 8.70117 18.2617 10.5273Q18.2617 12.2559 17.6221 13.7598Q16.9824 15.2637 15.8447 16.4014Q14.707 17.5391 13.1982 18.1836Q11.6895 18.8281 9.96094 18.8281Q8.23242 18.8281 6.72852 18.1836Q5.22461 17.5391 4.08691 16.4014Q2.94922 15.2637 2.30957 13.7598Q1.66992 12.2559 1.66992 10.5273Q1.67969 8.69141 2.39746 7.11426Q3.11523 5.53711 4.35547 4.4043Q4.60938 4.16016 4.65332 3.89648Q4.69727 3.63281 4.58496 3.4082Q4.47266 3.18359 4.25293 3.05664Q4.0332 2.92969 3.76465 2.9541Q3.49609 2.97852 3.24219 3.21289Q2.30469 4.07227 1.57227 5.20508Q0.839844 6.33789 0.419922 7.68555Q0 9.0332 0 10.5273Q0 12.5684 0.78125 14.3701Q1.5625 16.1719 2.93945 17.5488Q4.31641 18.9258 6.11816 19.707Q7.91992 20.4883 9.96094 20.4883ZM9.96094 10.4297Q10.3125 10.4297 10.5322 10.2002Q10.752 9.9707 10.752 9.59961L10.752 0.830078Q10.752 0.458984 10.5322 0.229492Q10.3125 0 9.96094 0Q9.60938 0 9.39453 0.229492Q9.17969 0.458984 9.17969 0.830078L9.17969 9.59961Q9.17969 9.9707 9.39453 10.2002Q9.60938 10.4297 9.96094 10.4297Z" fill="#007aff"/>
 </g>
</svg>
