<?xml version="1.0" encoding="UTF-8"?>
<!--Generator: Apple Native CoreSVG 175.5-->
<!DOCTYPE svg
PUBLIC "-//W3C//DTD SVG 1.1//EN"
       "http://www.w3.org/Graphics/SVG/1.1/DTD/svg11.dtd">
<svg version="1.1" xmlns="http://www.w3.org/2000/svg" xmlns:xlink="http://www.w3.org/1999/xlink" width="19.9219" height="19.9316">
 <g>
  <rect height="19.9316" opacity="0" width="19.9219" x="0" y="0"/>
  <path d="M9.96094 19.9219Q12.002 19.9219 13.8037 19.1406Q15.6055 18.3594 16.9824 16.9824Q18.3594 15.6055 19.1406 13.8037Q19.9219 12.002 19.9219 9.96094Q19.9219 7.91992 19.1406 6.11816Q18.3594 4.31641 16.9824 2.93945Q15.6055 1.5625 13.7988 0.78125Q11.9922 0 9.95117 0Q7.91016 0 6.1084 0.78125Q4.30664 1.5625 2.93457 2.93945Q1.5625 4.31641 0.78125 6.11816Q0 7.91992 0 9.96094Q0 12.002 0.78125 13.8037Q1.5625 15.6055 2.93945 16.9824Q4.31641 18.3594 6.11816 19.1406Q7.91992 19.9219 9.96094 19.9219Z" fill="#007aff"/>
  <path d="M9.9707 15.2344Q8.88672 15.2344 7.92969 14.8193Q6.97266 14.4043 6.24512 13.6719Q5.51758 12.9395 5.10254 11.9873Q4.6875 11.0352 4.6875 9.96094Q4.6875 8.86719 5.1416 7.8418Q5.5957 6.81641 6.41602 6.09375Q6.67969 5.84961 6.94824 5.87402Q7.2168 5.89844 7.40234 6.09863Q7.58789 6.29883 7.59766 6.57227Q7.60742 6.8457 7.34375 7.08984Q6.73828 7.64648 6.41602 8.38867Q6.09375 9.13086 6.09375 9.96094Q6.09375 11.0449 6.61133 11.9238Q7.12891 12.8027 8.00781 13.3252Q8.88672 13.8477 9.9707 13.8477Q11.0449 13.8477 11.9287 13.3252Q12.8125 12.8027 13.335 11.9238Q13.8574 11.0449 13.8574 9.96094Q13.8477 9.13086 13.5156 8.39355Q13.1836 7.65625 12.5879 7.09961Q12.3242 6.85547 12.334 6.58203Q12.3438 6.30859 12.5293 6.1084Q12.7148 5.9082 12.9883 5.87891Q13.2617 5.84961 13.5156 6.09375Q14.3359 6.82617 14.7949 7.85156Q15.2539 8.87695 15.2539 9.96094Q15.2539 11.0352 14.8389 11.9873Q14.4238 12.9395 13.6914 13.6719Q12.959 14.4043 12.002 14.8193Q11.0449 15.2344 9.9707 15.2344ZM9.9707 10.1855Q9.67773 10.1855 9.4873 9.99512Q9.29688 9.80469 9.29688 9.50195L9.29688 5.09766Q9.29688 4.79492 9.4873 4.59961Q9.67773 4.4043 9.9707 4.4043Q10.2637 4.4043 10.4492 4.59961Q10.6348 4.79492 10.6348 5.09766L10.6348 9.50195Q10.6348 9.80469 10.4492 9.99512Q10.2637 10.1855 9.9707 10.1855Z" fill="#ffffff"/>
 </g>
</svg>
