<?xml version="1.0" encoding="UTF-8"?>
<!--Generator: Apple Native CoreSVG 175.5-->
<!DOCTYPE svg
PUBLIC "-//W3C//DTD SVG 1.1//EN"
       "http://www.w3.org/Graphics/SVG/1.1/DTD/svg11.dtd">
<svg version="1.1" xmlns="http://www.w3.org/2000/svg" xmlns:xlink="http://www.w3.org/1999/xlink" width="17.9785" height="17.998">
 <g>
  <rect height="17.998" opacity="0" width="17.9785" x="0" y="0"/>
  <path d="M3.06641 17.998L14.9121 17.998Q16.4453 17.998 17.2119 17.2412Q17.9785 16.4844 17.9785 14.9707L17.9785 3.04688Q17.9785 1.5332 17.2119 0.776367Q16.4453 0.0195312 14.9121 0.0195312L3.06641 0.0195312Q1.5332 0.0195312 0.766602 0.776367Q0 1.5332 0 3.04688L0 14.9707Q0 16.4844 0.766602 17.2412Q1.5332 17.998 3.06641 17.998Z" fill="#007aff"/>
  <path d="M5.14648 13.7305Q4.73633 13.7305 4.46777 13.4619Q4.19922 13.1934 4.19922 12.7832L4.19922 5.22461Q4.19922 4.81445 4.46777 4.5459Q4.73633 4.27734 5.14648 4.27734L12.8906 4.27734Q13.3008 4.27734 13.5693 4.5459Q13.8379 4.81445 13.8379 5.22461L13.8379 12.7832Q13.8379 13.1934 13.5693 13.4619Q13.3008 13.7305 12.8906 13.7305ZM5.68359 8.50586L6.04492 8.85742Q6.16211 8.99414 6.31348 8.99414Q6.46484 8.99414 6.5918 8.85742L8.02734 7.43164Q8.16406 7.31445 8.16406 7.1582Q8.16406 7.00195 8.02734 6.86523L7.67578 6.51367Q7.40234 6.24023 7.12891 6.52344L5.68359 7.95898Q5.55664 8.08594 5.55664 8.23242Q5.55664 8.37891 5.68359 8.50586ZM11.9922 8.85742L12.3535 8.50586Q12.4805 8.37891 12.4805 8.23242Q12.4805 8.08594 12.3535 7.95898L10.9082 6.51367Q10.625 6.23047 10.3613 6.50391L10 6.86523Q9.70703 7.1582 10 7.43164L11.4453 8.85742Q11.5723 8.99414 11.7236 8.99414Q11.875 8.99414 11.9922 8.85742ZM8.75977 12.2656L9.26758 12.2656Q9.44336 12.2656 9.55566 12.1631Q9.66797 12.0605 9.66797 11.8848L9.66797 10.0977Q9.66797 9.92188 9.55078 9.80957Q9.43359 9.69727 9.26758 9.69727L8.75977 9.69727Q8.36914 9.69727 8.36914 10.0977L8.36914 11.8848Q8.36914 12.0605 8.48145 12.1631Q8.59375 12.2656 8.75977 12.2656Z" fill="#ffffff"/>
 </g>
</svg>
