<?xml version="1.0" encoding="UTF-8"?>
<!--Generator: Apple Native CoreSVG 175.5-->
<!DOCTYPE svg
PUBLIC "-//W3C//DTD SVG 1.1//EN"
       "http://www.w3.org/Graphics/SVG/1.1/DTD/svg11.dtd">
<svg version="1.1" xmlns="http://www.w3.org/2000/svg" xmlns:xlink="http://www.w3.org/1999/xlink" width="21.9434" height="21.3379">
 <g>
  <rect height="21.3379" opacity="0" width="21.9434" x="0" y="0"/>
  <path d="M5.44922 21.3379L16.4941 21.3379Q17.4219 21.3379 17.8906 20.8936Q18.3594 20.4492 18.3594 19.4824L18.3594 17.6074L19.0332 17.6074Q20.459 17.6074 21.2012 16.8896Q21.9434 16.1719 21.9434 14.7461L21.9434 6.79688Q21.9434 5.37109 21.2012 4.64844Q20.459 3.92578 19.0332 3.92578L2.90039 3.92578Q1.55273 3.92578 0.776367 4.64844Q0 5.37109 0 6.79688L0 14.7461Q0 16.1719 0.742188 16.8896Q1.48438 17.6074 2.90039 17.6074L3.58398 17.6074L3.58398 19.4824Q3.58398 20.4492 4.05273 20.8936Q4.52148 21.3379 5.44922 21.3379ZM5.9375 19.873Q5.54688 19.873 5.35156 19.6826Q5.15625 19.4922 5.15625 19.0918L5.15625 11.8359Q5.15625 11.4453 5.35156 11.2549Q5.54688 11.0645 5.9375 11.0645L16.0156 11.0645Q16.4062 11.0645 16.5967 11.2549Q16.7871 11.4453 16.7871 11.8359L16.7871 19.0918Q16.7871 19.4922 16.5967 19.6826Q16.4062 19.873 16.0156 19.873ZM3.86719 2.62695L18.0762 2.62695L18.0762 2.46094Q18.0762 1.73828 17.7295 1.27441Q17.3828 0.810547 16.7725 0.59082Q16.1621 0.371094 15.3711 0.371094L6.57227 0.371094Q5.82031 0.371094 5.20508 0.59082Q4.58984 0.810547 4.22852 1.27441Q3.86719 1.73828 3.86719 2.46094ZM7.58789 14.3945L14.375 14.3945Q14.6387 14.3945 14.8096 14.2188Q14.9805 14.043 14.9805 13.7793Q14.9805 13.5352 14.8096 13.3643Q14.6387 13.1934 14.375 13.1934L7.58789 13.1934Q7.31445 13.1934 7.14355 13.3643Q6.97266 13.5352 6.97266 13.7793Q6.97266 14.043 7.14355 14.2188Q7.31445 14.3945 7.58789 14.3945ZM7.58789 17.8027L14.375 17.8027Q14.6387 17.8027 14.8096 17.6318Q14.9805 17.4609 14.9805 17.207Q14.9805 16.9531 14.8096 16.7773Q14.6387 16.6016 14.375 16.6016L7.58789 16.6016Q7.31445 16.6016 7.14355 16.7773Q6.97266 16.9531 6.97266 17.207Q6.97266 17.4609 7.14355 17.6318Q7.31445 17.8027 7.58789 17.8027ZM15.7227 7.14844Q15.7227 6.65039 16.0986 6.27441Q16.4746 5.89844 16.9922 5.89844Q17.4902 5.89844 17.8662 6.27441Q18.2422 6.65039 18.2422 7.14844Q18.2422 7.67578 17.8662 8.03711Q17.4902 8.39844 16.9922 8.39844Q16.4746 8.4082 16.0986 8.04199Q15.7227 7.67578 15.7227 7.14844Z" fill="#007aff"/>
 </g>
</svg>
