<?xml version="1.0" encoding="UTF-8"?>
<!--Generator: Apple Native CoreSVG 175-->
<!DOCTYPE svg
PUBLIC "-//W3C//DTD SVG 1.1//EN"
       "http://www.w3.org/Graphics/SVG/1.1/DTD/svg11.dtd">
<svg version="1.1" xmlns="http://www.w3.org/2000/svg" xmlns:xlink="http://www.w3.org/1999/xlink" width="20.9961" height="20.2832">
 <g>
  <rect height="20.2832" opacity="0" width="20.9961" x="0" y="0"/>
  <path d="M2.45117 17.3145L4.17969 17.3145L4.17969 16.6113L2.45117 16.6113Q1.5625 16.6113 1.15234 16.2012Q0.742188 15.791 0.742188 14.9023L0.742188 5.67383Q0.742188 4.78516 1.15234 4.375Q1.5625 3.96484 2.45117 3.96484L18.5547 3.96484Q19.4434 3.96484 19.8486 4.375Q20.2539 4.78516 20.2539 5.67383L20.2539 14.9023Q20.2539 15.791 19.8486 16.2012Q19.4434 16.6113 18.5547 16.6113L16.7871 16.6113L16.7871 17.3145L18.5449 17.3145Q19.7656 17.3145 20.3809 16.709Q20.9961 16.1035 20.9961 14.8828L20.9961 5.69336Q20.9961 4.47266 20.3809 3.86719Q19.7656 3.26172 18.5449 3.26172L2.45117 3.26172Q1.24023 3.26172 0.620117 3.86719Q0 4.47266 0 5.69336L0 14.8828Q0 16.1035 0.615234 16.709Q1.23047 17.3145 2.45117 17.3145ZM5.81055 20.2832L15.1855 20.2832Q16.2207 20.2832 16.7188 19.7949Q17.2168 19.3066 17.2168 18.2617L17.2168 10.8203Q17.2168 9.76562 16.7188 9.27734Q16.2207 8.78906 15.1855 8.78906L5.81055 8.78906Q4.77539 8.78906 4.27734 9.27734Q3.7793 9.76562 3.7793 10.8203L3.7793 18.2617Q3.7793 19.3066 4.27734 19.7949Q4.77539 20.2832 5.81055 20.2832ZM5.92773 19.5801Q5.15625 19.5801 4.83887 19.2627Q4.52148 18.9453 4.52148 18.1738L4.52148 10.8984Q4.52148 10.1367 4.83887 9.81934Q5.15625 9.50195 5.92773 9.50195L15.0879 9.50195Q15.8398 9.50195 16.1572 9.81934Q16.4746 10.1367 16.4746 10.8984L16.4746 18.1738Q16.4746 18.9453 16.1572 19.2627Q15.8398 19.5801 15.0879 19.5801ZM3.76953 3.67188L4.50195 3.67188L4.50195 2.20703Q4.50195 1.39648 4.83887 1.05469Q5.17578 0.712891 5.98633 0.712891L15.0098 0.712891Q15.8203 0.712891 16.1621 1.05469Q16.5039 1.39648 16.5039 2.20703L16.5039 3.67188L17.2363 3.67188L17.2363 2.22656Q17.2363 1.07422 16.6895 0.546875Q16.1426 0.0195312 15.0098 0.0195312L5.98633 0.0195312Q4.87305 0.0195312 4.32129 0.546875Q3.76953 1.07422 3.76953 2.22656ZM7.01172 12.2363Q7.34375 12.2363 7.57324 12.0117Q7.80273 11.7871 7.80273 11.4551Q7.80273 11.1328 7.57324 10.9131Q7.34375 10.6934 7.01172 10.6934Q6.68945 10.6934 6.46484 10.9131Q6.24023 11.1328 6.24023 11.4551Q6.24023 11.7871 6.46484 12.0117Q6.68945 12.2363 7.01172 12.2363ZM7.01172 15.3125Q7.34375 15.3125 7.57324 15.0928Q7.80273 14.873 7.80273 14.541Q7.80273 14.209 7.57324 13.9844Q7.34375 13.7598 7.01172 13.7598Q6.68945 13.7598 6.46484 13.9844Q6.24023 14.209 6.24023 14.541Q6.24023 14.873 6.46484 15.0928Q6.68945 15.3125 7.01172 15.3125ZM7.01172 18.3887Q7.34375 18.3887 7.57324 18.1641Q7.80273 17.9395 7.80273 17.6172Q7.80273 17.2852 7.57324 17.0654Q7.34375 16.8457 7.01172 16.8457Q6.68945 16.8457 6.46484 17.0654Q6.24023 17.2852 6.24023 17.6172Q6.24023 17.9395 6.46484 18.1641Q6.68945 18.3887 7.01172 18.3887ZM14.0039 12.2363Q14.3359 12.2363 14.5605 12.0117Q14.7852 11.7871 14.7852 11.4551Q14.7852 11.1328 14.5605 10.9131Q14.3359 10.6934 14.0039 10.6934Q13.6816 10.6934 13.4521 10.9131Q13.2227 11.1328 13.2227 11.4551Q13.2227 11.7871 13.4521 12.0117Q13.6816 12.2363 14.0039 12.2363ZM14.0039 15.3125Q14.3359 15.3125 14.5605 15.0928Q14.7852 14.873 14.7852 14.541Q14.7852 14.209 14.5605 13.9844Q14.3359 13.7598 14.0039 13.7598Q13.6816 13.7598 13.4521 13.9844Q13.2227 14.209 13.2227 14.541Q13.2227 14.873 13.4521 15.0928Q13.6816 15.3125 14.0039 15.3125ZM14.0039 18.3887Q14.3359 18.3887 14.5605 18.1641Q14.7852 17.9395 14.7852 17.6172Q14.7852 17.2852 14.5605 17.0654Q14.3359 16.8457 14.0039 16.8457Q13.6816 16.8457 13.4521 17.0654Q13.2227 17.2852 13.2227 17.6172Q13.2227 17.9395 13.4521 18.1641Q13.6816 18.3887 14.0039 18.3887ZM15 6.46484Q15 6.95312 15.3369 7.26074Q15.6738 7.56836 16.1426 7.57812Q16.582 7.60742 16.9189 7.26562Q17.2559 6.92383 17.2559 6.46484Q17.2559 6.02539 16.9189 5.68359Q16.582 5.3418 16.1426 5.3418Q15.6738 5.3418 15.3369 5.68359Q15 6.02539 15 6.46484Z" fill="#ffffff"/>
 </g>
</svg>
