<?xml version="1.0" encoding="UTF-8"?>
<!--Generator: Apple Native CoreSVG 175.5-->
<!DOCTYPE svg
PUBLIC "-//W3C//DTD SVG 1.1//EN"
       "http://www.w3.org/Graphics/SVG/1.1/DTD/svg11.dtd">
<svg version="1.1" xmlns="http://www.w3.org/2000/svg" xmlns:xlink="http://www.w3.org/1999/xlink" width="22.0605" height="21.3574">
 <g>
  <rect height="21.3574" opacity="0" width="22.0605" x="0" y="0"/>
  <path d="M2.91016 18.457L4.84375 18.457L4.84375 16.9824L2.89062 16.9824Q2.23633 16.9824 1.90918 16.6504Q1.58203 16.3184 1.58203 15.6738L1.58203 6.37695Q1.58203 5.73242 1.90918 5.40039Q2.23633 5.06836 2.89062 5.06836L19.1797 5.06836Q19.8242 5.06836 20.1562 5.40039Q20.4883 5.73242 20.4883 6.37695L20.4883 15.6738Q20.4883 16.3184 20.1562 16.6504Q19.8242 16.9824 19.1797 16.9824L17.3535 16.9824L17.3535 18.457L19.1602 18.457Q20.5859 18.457 21.3232 17.7393Q22.0605 17.0215 22.0605 15.5957L22.0605 6.45508Q22.0605 5.0293 21.3232 4.31152Q20.5859 3.59375 19.1602 3.59375L2.91016 3.59375Q1.55273 3.59375 0.776367 4.31152Q0 5.0293 0 6.45508L0 15.5957Q0 17.0215 0.742188 17.7393Q1.48438 18.457 2.91016 18.457ZM5.80078 21.3574L16.2598 21.3574Q17.1875 21.3574 17.6562 20.9082Q18.125 20.459 18.125 19.4922L18.125 11.5234Q18.125 10.5469 17.6562 10.1025Q17.1875 9.6582 16.2598 9.6582L5.80078 9.6582Q4.91211 9.6582 4.42383 10.1025Q3.93555 10.5469 3.93555 11.5234L3.93555 19.4922Q3.93555 20.459 4.4043 20.9082Q4.87305 21.3574 5.80078 21.3574ZM6.28906 19.8828Q5.89844 19.8828 5.70312 19.6924Q5.50781 19.502 5.50781 19.1016L5.50781 11.9043Q5.50781 11.5137 5.70312 11.3232Q5.89844 11.1328 6.28906 11.1328L15.7812 11.1328Q16.1719 11.1328 16.3623 11.3232Q16.5527 11.5137 16.5527 11.9043L16.5527 19.1016Q16.5527 19.502 16.3623 19.6924Q16.1719 19.8828 15.7812 19.8828ZM3.86719 4.47266L5.38086 4.47266L5.38086 2.96875Q5.38086 2.35352 5.68848 2.05078Q5.99609 1.74805 6.61133 1.74805L15.4492 1.74805Q16.0645 1.74805 16.3721 2.05078Q16.6797 2.35352 16.6797 2.96875L16.6797 4.45312L18.1934 4.45312L18.1934 3.07617Q18.1934 1.65039 17.4951 0.986328Q16.7969 0.322266 15.4297 0.322266L6.63086 0.322266Q5.3418 0.322266 4.60449 0.986328Q3.86719 1.65039 3.86719 3.07617ZM7.91016 13.6914Q8.28125 13.6914 8.54004 13.4375Q8.79883 13.1836 8.79883 12.8125Q8.79883 12.4512 8.54004 12.1973Q8.28125 11.9434 7.91016 11.9434Q7.54883 11.9434 7.29004 12.1973Q7.03125 12.4512 7.03125 12.8125Q7.03125 13.1836 7.29004 13.4375Q7.54883 13.6914 7.91016 13.6914ZM7.91016 16.377Q8.28125 16.377 8.54004 16.1279Q8.79883 15.8789 8.79883 15.5078Q8.79883 15.1367 8.54004 14.8828Q8.28125 14.6289 7.91016 14.6289Q7.54883 14.6289 7.29004 14.8828Q7.03125 15.1367 7.03125 15.5078Q7.03125 15.8789 7.29004 16.1279Q7.54883 16.377 7.91016 16.377ZM7.91016 19.0723Q8.28125 19.0723 8.54004 18.8184Q8.79883 18.5645 8.79883 18.1934Q8.79883 17.832 8.54004 17.5781Q8.28125 17.3242 7.91016 17.3242Q7.54883 17.3242 7.29004 17.5781Q7.03125 17.832 7.03125 18.1934Q7.03125 18.5645 7.29004 18.8184Q7.54883 19.0723 7.91016 19.0723ZM14.1602 13.6914Q14.5215 13.6914 14.7803 13.4375Q15.0391 13.1836 15.0391 12.8125Q15.0391 12.4512 14.7803 12.1973Q14.5215 11.9434 14.1602 11.9434Q13.7988 11.9434 13.54 12.1973Q13.2812 12.4512 13.2812 12.8125Q13.2812 13.1836 13.54 13.4375Q13.7988 13.6914 14.1602 13.6914ZM14.1602 16.377Q14.5215 16.377 14.7803 16.1279Q15.0391 15.8789 15.0391 15.5078Q15.0391 15.1367 14.7803 14.8828Q14.5215 14.6289 14.1602 14.6289Q13.7988 14.6289 13.54 14.8828Q13.2812 15.1367 13.2812 15.5078Q13.2812 15.8789 13.54 16.1279Q13.7988 16.377 14.1602 16.377ZM14.1602 19.0723Q14.5215 19.0723 14.7803 18.8184Q15.0391 18.5645 15.0391 18.1934Q15.0391 17.832 14.7803 17.5781Q14.5215 17.3242 14.1602 17.3242Q13.7988 17.3242 13.54 17.5781Q13.2812 17.832 13.2812 18.1934Q13.2812 18.5645 13.54 18.8184Q13.7988 19.0723 14.1602 19.0723ZM15.7617 7.38281Q15.7617 7.90039 16.123 8.24707Q16.4844 8.59375 16.9922 8.59375Q17.4805 8.59375 17.8418 8.24219Q18.2031 7.89062 18.2031 7.38281Q18.2031 6.89453 17.8418 6.5332Q17.4805 6.17188 16.9922 6.17188Q16.4844 6.17188 16.123 6.5332Q15.7617 6.89453 15.7617 7.38281Z" fill="#007aff"/>
 </g>
</svg>
