<?xml version="1.0" encoding="UTF-8"?>
<!--Generator: Apple Native CoreSVG 175.5-->
<!DOCTYPE svg
PUBLIC "-//W3C//DTD SVG 1.1//EN"
       "http://www.w3.org/Graphics/SVG/1.1/DTD/svg11.dtd">
<svg version="1.1" xmlns="http://www.w3.org/2000/svg" xmlns:xlink="http://www.w3.org/1999/xlink" width="16.9629" height="17.9785">
 <g>
  <rect height="17.9785" opacity="0" width="16.9629" x="0" y="0"/>
  <path d="M0.888672 11.2695Q1.08398 11.2695 1.24023 11.2061Q1.39648 11.1426 1.52344 11.0156L9.08203 3.28125L7.88086 3.28125L15.4395 11.0156Q15.5566 11.1426 15.7227 11.2061Q15.8887 11.2695 16.0742 11.2695Q16.3281 11.2695 16.5332 11.1523Q16.7383 11.0352 16.8506 10.835Q16.9629 10.6348 16.9629 10.3809Q16.9629 10.1855 16.8945 10.0342Q16.8262 9.88281 16.6992 9.74609L9.14062 2.00195Q9.00391 1.86523 8.83789 1.79199Q8.67188 1.71875 8.48633 1.71875Q8.11523 1.71875 7.82227 2.00195L0.263672 9.74609Q0.136719 9.87305 0.0683594 10.0293Q0 10.1855 0 10.3809Q0 10.6348 0.117188 10.835Q0.234375 11.0352 0.43457 11.1523Q0.634766 11.2695 0.888672 11.2695ZM1.14258 1.74805L15.8008 1.74805Q16.1816 1.74805 16.4209 1.49902Q16.6602 1.25 16.6602 0.869141Q16.6602 0.488281 16.4209 0.244141Q16.1816 0 15.8008 0L1.14258 0Q0.771484 0 0.537109 0.244141Q0.302734 0.488281 0.302734 0.869141Q0.302734 1.25 0.537109 1.49902Q0.771484 1.74805 1.14258 1.74805Z" fill="#007aff"/>
 </g>
</svg>
