<?xml version="1.0" encoding="UTF-8"?>
<!--Generator: Apple Native CoreSVG 175-->
<!DOCTYPE svg
PUBLIC "-//W3C//DTD SVG 1.1//EN"
       "http://www.w3.org/Graphics/SVG/1.1/DTD/svg11.dtd">
<svg version="1.1" xmlns="http://www.w3.org/2000/svg" xmlns:xlink="http://www.w3.org/1999/xlink" width="19.1602" height="19.1504">
 <g>
  <rect height="19.1504" opacity="0" width="19.1602" x="0" y="0"/>
  <path d="M9.57031 19.1406Q11.5527 19.1406 13.2861 18.3984Q15.0195 17.6562 16.3379 16.333Q17.6562 15.0098 18.4082 13.2764Q19.1602 11.543 19.1602 9.57031Q19.1602 7.59766 18.4082 5.86426Q17.6562 4.13086 16.3379 2.80762Q15.0195 1.48438 13.2861 0.742188Q11.5527 0 9.57031 0Q7.59766 0 5.86426 0.742188Q4.13086 1.48438 2.81738 2.80762Q1.50391 4.13086 0.751953 5.86426Q0 7.59766 0 9.57031Q0 11.543 0.74707 13.2764Q1.49414 15.0098 2.8125 16.333Q4.13086 17.6562 5.86914 18.3984Q7.60742 19.1406 9.57031 19.1406ZM9.57031 18.3984Q7.74414 18.3984 6.14746 17.71Q4.55078 17.0215 3.33496 15.8105Q2.11914 14.5996 1.43555 12.998Q0.751953 11.3965 0.751953 9.57031Q0.751953 7.74414 1.43555 6.14258Q2.11914 4.54102 3.33496 3.3252Q4.55078 2.10938 6.14746 1.4209Q7.74414 0.732422 9.57031 0.732422Q11.4062 0.732422 13.0029 1.4209Q14.5996 2.10938 15.8154 3.3252Q17.0312 4.54102 17.7197 6.14258Q18.4082 7.74414 18.4082 9.57031Q18.4082 11.3965 17.7246 12.998Q17.041 14.5996 15.8252 15.8105Q14.6094 17.0215 13.0078 17.71Q11.4062 18.3984 9.57031 18.3984ZM5.55664 12.2461Q5.55664 12.373 5.66406 12.4902L7.62695 14.4434Q7.7832 14.5898 7.95898 14.5898Q8.14453 14.5898 8.29102 14.4434L10.2734 12.4805Q10.3711 12.3828 10.3711 12.2461Q10.3711 12.1191 10.2881 12.0264Q10.2051 11.9336 10.0684 11.9336Q10 11.9336 9.94629 11.9629Q9.89258 11.9922 9.83398 12.041L9.27734 12.6074L8.26172 13.6523L8.29102 11.7188L8.29102 7.85156Q8.29102 6.58203 8.91602 5.85449Q9.54102 5.12695 10.6348 5.12695Q11.6895 5.12695 12.334 5.80566Q12.9785 6.48438 12.9785 7.58789Q12.9688 8.64258 12.3486 9.28223Q11.7285 9.92188 10.7227 9.92188Q10.4199 9.92188 10.2783 9.8584Q10.1367 9.79492 10 9.79492Q9.87305 9.79492 9.79492 9.87305Q9.7168 9.95117 9.7168 10.0684Q9.7168 10.2344 9.82422 10.3223Q10.0879 10.5469 10.7129 10.5469Q12.0117 10.5469 12.8076 9.73633Q13.6035 8.92578 13.6035 7.58789Q13.6035 6.66016 13.2324 5.97168Q12.8613 5.2832 12.1924 4.89258Q11.5234 4.50195 10.6348 4.50195Q9.26758 4.50195 8.45703 5.40527Q7.64648 6.30859 7.64648 7.82227L7.64648 11.7285L7.67578 13.6523L6.66016 12.6172L6.10352 12.0508Q6.01562 11.9336 5.85938 11.9336Q5.74219 11.9336 5.64941 12.0264Q5.55664 12.1191 5.55664 12.2461Z" fill="#ffffff"/>
 </g>
</svg>
