<?xml version="1.0" encoding="UTF-8"?>
<!--Generator: Apple Native CoreSVG 175.5-->
<!DOCTYPE svg
PUBLIC "-//W3C//DTD SVG 1.1//EN"
       "http://www.w3.org/Graphics/SVG/1.1/DTD/svg11.dtd">
<svg version="1.1" xmlns="http://www.w3.org/2000/svg" xmlns:xlink="http://www.w3.org/1999/xlink" width="28.2812" height="18.8379">
 <g>
  <rect height="18.8379" opacity="0" width="28.2812" x="0" y="0"/>
  <path d="M0 9.4043Q0 10.4004 0.419922 11.0889Q0.839844 11.7773 1.51855 12.1338Q2.19727 12.4902 2.98828 12.4902Q3.48633 12.4902 3.89648 12.3486Q4.30664 12.207 4.74609 11.9336Q5.16602 11.6797 5.43457 11.7969Q5.70312 11.9141 5.70312 12.2754L5.70312 15.8887Q5.70312 17.334 6.4502 18.0664Q7.19727 18.7988 8.66211 18.7988L11.2695 18.7988Q11.6211 18.7988 11.7432 18.5352Q11.8652 18.2715 11.6113 17.8516Q11.3281 17.4023 11.1865 16.9971Q11.0449 16.5918 11.0449 16.0938Q11.0449 15.3027 11.4062 14.6191Q11.7676 13.9355 12.4561 13.5205Q13.1445 13.1055 14.1406 13.1055Q15.1367 13.1055 15.8252 13.5205Q16.5137 13.9355 16.8701 14.6191Q17.2266 15.3027 17.2266 16.0938Q17.2266 16.5918 17.0898 16.9971Q16.9531 17.4023 16.6699 17.8516Q16.416 18.2715 16.5381 18.5352Q16.6602 18.7988 17.0117 18.7988L19.6191 18.7988Q21.0742 18.7988 21.8262 18.0664Q22.5781 17.334 22.5781 15.8887L22.5781 12.2754Q22.5781 11.9141 22.8467 11.7969Q23.1152 11.6797 23.5254 11.9336Q23.9746 12.207 24.3848 12.3486Q24.7949 12.4902 25.2832 12.4902Q26.084 12.4902 26.7627 12.1338Q27.4414 11.7773 27.8613 11.0889Q28.2812 10.4004 28.2812 9.4043Q28.2812 8.39844 27.8613 7.70996Q27.4414 7.02148 26.7627 6.66504Q26.084 6.30859 25.2832 6.30859Q24.7949 6.30859 24.3848 6.4502Q23.9746 6.5918 23.5254 6.86523Q23.1152 7.11914 22.8467 7.00195Q22.5781 6.88477 22.5781 6.52344L22.5781 2.91016Q22.5781 1.47461 21.8262 0.737305Q21.0742 0 19.6191 0L17.0117 0Q16.6602 0 16.5381 0.268555Q16.416 0.537109 16.6699 0.957031Q16.9531 1.40625 17.0898 1.81152Q17.2266 2.2168 17.2266 2.71484Q17.2266 3.50586 16.8701 4.18457Q16.5137 4.86328 15.8252 5.2832Q15.1367 5.70312 14.1406 5.70312Q13.1445 5.70312 12.4561 5.2832Q11.7676 4.86328 11.4062 4.18457Q11.0449 3.50586 11.0449 2.71484Q11.0449 2.2168 11.1865 1.81152Q11.3281 1.40625 11.6113 0.957031Q11.8652 0.537109 11.7432 0.268555Q11.6211 0 11.2695 0L8.66211 0Q7.19727 0 6.4502 0.737305Q5.70312 1.47461 5.70312 2.91016L5.70312 6.52344Q5.70312 6.88477 5.43457 7.00195Q5.16602 7.11914 4.74609 6.86523Q4.30664 6.5918 3.89648 6.4502Q3.48633 6.30859 2.98828 6.30859Q2.19727 6.30859 1.51855 6.66504Q0.839844 7.02148 0.419922 7.70996Q0 8.39844 0 9.4043Z" fill="#007aff"/>
 </g>
</svg>
