<?xml version="1.0" encoding="UTF-8"?>
<!--Generator: Apple Native CoreSVG 175-->
<!DOCTYPE svg
PUBLIC "-//W3C//DTD SVG 1.1//EN"
       "http://www.w3.org/Graphics/SVG/1.1/DTD/svg11.dtd">
<svg version="1.1" xmlns="http://www.w3.org/2000/svg" xmlns:xlink="http://www.w3.org/1999/xlink" width="27.9765" height="18.0722">
 <g>
  <rect height="18.0722" opacity="0" width="27.9765" x="0" y="0"/>
  <path d="M8.30429 18.0331L11.6661 18.0331Q12.0958 18.0331 12.3621 17.7941Q12.6285 17.5551 12.6285 17.1738Q12.6285 16.9917 12.5486 16.8056Q12.4687 16.6196 12.2894 16.4066Q11.925 15.9706 11.7008 15.521Q11.4766 15.0714 11.4766 14.4519Q11.4766 13.3421 12.1414 12.6945Q12.8062 12.0468 13.9883 12.0468Q15.1703 12.0468 15.8386 12.6945Q16.507 13.3421 16.507 14.4519Q16.507 15.0714 16.2779 15.521Q16.0489 15.9706 15.6844 16.4066Q15.5078 16.6196 15.4279 16.8056Q15.3481 16.9917 15.3481 17.1738Q15.3481 17.5551 15.618 17.7941Q15.8879 18.0331 16.3176 18.0331L19.6695 18.0331Q20.7504 18.0331 21.3772 17.4175Q22.0039 16.8019 22.0039 15.7477L22.0039 11.6747Q22.0039 11.4871 22.1383 11.4045Q22.2726 11.3219 22.4559 11.4616Q22.7473 11.6624 23.075 11.8826Q23.4027 12.1027 23.8385 12.2531Q24.2743 12.4036 24.8785 12.4036Q25.7852 12.4036 26.4827 11.9994Q27.1802 11.5953 27.5784 10.8664Q27.9765 10.1375 27.9765 9.16321Q27.9765 8.19168 27.5784 7.46147Q27.1802 6.73126 26.4827 6.32851Q25.7852 5.92575 24.8785 5.92575Q24.2743 5.92575 23.8385 6.07613Q23.4027 6.2265 23.075 6.44661Q22.7473 6.66672 22.4559 6.86752Q22.2726 7.00729 22.1383 6.92116Q22.0039 6.83502 22.0039 6.64764L22.0039 2.28546Q22.0039 1.23398 21.3772 0.616989Q20.7504 0 19.6695 0L16.3176 0Q15.8879 0 15.618 0.239029Q15.3481 0.478058 15.3481 0.859375Q15.3481 1.04141 15.4279 1.22749Q15.5078 1.41357 15.6844 1.62659Q16.0489 2.06253 16.2779 2.51213Q16.507 2.96173 16.507 3.591Q16.507 4.646 15.8162 5.31616Q15.1254 5.98633 13.9883 5.98633Q12.8513 5.98633 12.1639 5.31616Q11.4766 4.646 11.4766 3.591Q11.4766 2.96173 11.7008 2.51213Q11.925 2.06253 12.2894 1.62659Q12.4687 1.41357 12.5486 1.22749Q12.6285 1.04141 12.6285 0.859375Q12.6285 0.478058 12.3621 0.239029Q12.0958 0 11.6661 0L8.30429 0Q7.22626 0 6.59943 0.616989Q5.9726 1.23398 5.9726 2.28546L5.9726 6.64764Q5.9726 6.83502 5.84175 6.92116Q5.71091 7.00729 5.52078 6.86752Q5.23636 6.66672 4.90509 6.44661Q4.57382 6.2265 4.14162 6.07613Q3.70941 5.92575 3.0954 5.92575Q2.19849 5.92575 1.49612 6.32851Q0.793762 6.73126 0.396881 7.46147Q0 8.19168 0 9.16321Q0 10.1375 0.396881 10.8664Q0.793762 11.5953 1.49612 11.9994Q2.19849 12.4036 3.0954 12.4036Q3.70941 12.4036 4.14162 12.2531Q4.57382 12.1027 4.90509 11.8826Q5.23636 11.6624 5.52078 11.4616Q5.71091 11.3219 5.84175 11.4045Q5.9726 11.4871 5.9726 11.6747L5.9726 15.7477Q5.9726 16.8019 6.59943 17.4175Q7.22626 18.0331 8.30429 18.0331ZM8.32657 17.3047Q7.58942 17.3047 7.14531 16.8738Q6.7012 16.4429 6.7012 15.7187L6.7012 11.4882Q6.7012 11.0558 6.46217 10.7858Q6.22314 10.5159 5.84183 10.5159Q5.65979 10.5159 5.47363 10.5994Q5.28748 10.6828 5.07462 10.8621Q4.63867 11.2265 4.1877 11.4521Q3.73672 11.6777 3.11722 11.6777Q2.05505 11.6777 1.38496 10.989Q0.714874 10.3003 0.714874 9.16321Q0.714874 8.02887 1.38496 7.33665Q2.05505 6.64444 3.11722 6.64444Q3.73672 6.64444 4.1877 6.87355Q4.63867 7.10266 5.07462 7.46017Q5.28748 7.64648 5.47363 7.72636Q5.65979 7.80624 5.84183 7.80624Q6.22314 7.80624 6.46217 7.53632Q6.7012 7.26639 6.7012 6.83395L6.7012 2.31445Q6.7012 1.59302 7.14531 1.16074Q7.58942 0.728455 8.32657 0.728455L11.4375 0.728455Q11.6739 0.728455 11.743 0.873566Q11.8121 1.01868 11.675 1.2117Q11.4796 1.49338 11.2615 1.81778Q11.0434 2.14218 10.8971 2.56973Q10.7507 2.99728 10.7507 3.6058Q10.7507 4.50272 11.1535 5.2037Q11.5562 5.90469 12.2865 6.30295Q13.0168 6.7012 13.9883 6.7012Q14.9597 6.7012 15.69 6.30295Q16.4203 5.90469 16.823 5.2037Q17.2258 4.50272 17.2258 3.6058Q17.2258 2.99728 17.0782 2.56973Q16.9305 2.14218 16.7172 1.81778Q16.5039 1.49338 16.3016 1.2117Q16.1646 1.01868 16.2323 0.873566Q16.3 0.728455 16.5392 0.728455L19.65 0.728455Q20.3871 0.728455 20.8347 1.16074Q21.2823 1.59302 21.2823 2.31445L21.2823 6.83395Q21.2823 7.26639 21.5179 7.53632Q21.7535 7.80624 22.1347 7.80624Q22.3167 7.80624 22.5029 7.72636Q22.6891 7.64648 22.9019 7.46017Q23.3379 7.10266 23.7875 6.87355Q24.2371 6.64444 24.8637 6.64444Q25.9215 6.64444 26.5916 7.33665Q27.2617 8.02887 27.2617 9.16321Q27.2617 10.3003 26.5916 10.989Q25.9215 11.6777 24.8637 11.6777Q24.2371 11.6777 23.7875 11.4521Q23.3379 11.2265 22.9019 10.8621Q22.6891 10.6828 22.5029 10.5994Q22.3167 10.5159 22.1347 10.5159Q21.7535 10.5159 21.5179 10.7858Q21.2823 11.0558 21.2823 11.4882L21.2823 15.7187Q21.2823 16.4429 20.8347 16.8738Q20.3871 17.3047 19.65 17.3047L16.5392 17.3047Q16.3 17.3047 16.2323 17.1596Q16.1646 17.0145 16.3016 16.8214Q16.5039 16.5425 16.7172 16.2167Q16.9305 15.891 17.0782 15.4634Q17.2258 15.0359 17.2258 14.4301Q17.2258 13.4926 16.8385 12.7951Q16.4513 12.0976 15.7245 11.7148Q14.9977 11.3319 13.9883 11.3319Q12.979 11.3319 12.2522 11.7148Q11.5254 12.0976 11.1381 12.7951Q10.7507 13.4926 10.7507 14.4301Q10.7507 15.0359 10.8971 15.4634Q11.0434 15.891 11.2615 16.2167Q11.4796 16.5425 11.675 16.8214Q11.8121 17.0145 11.743 17.1596Q11.6739 17.3047 11.4375 17.3047Z" fill="#007aff"/>
 </g>
</svg>
