<?xml version="1.0" encoding="UTF-8"?>
<!--Generator: Apple Native CoreSVG 175-->
<!DOCTYPE svg
PUBLIC "-//W3C//DTD SVG 1.1//EN"
       "http://www.w3.org/Graphics/SVG/1.1/DTD/svg11.dtd">
<svg version="1.1" xmlns="http://www.w3.org/2000/svg" xmlns:xlink="http://www.w3.org/1999/xlink" width="17.2852" height="17.3145">
 <g>
  <rect height="17.3145" opacity="0" width="17.2852" x="0" y="0"/>
  <path d="M2.62695 17.3145L14.6484 17.3145Q15.957 17.3145 16.6211 16.6455Q17.2852 15.9766 17.2852 14.6875L17.2852 2.65625Q17.2852 1.37695 16.6211 0.703125Q15.957 0.0292969 14.6484 0.0292969L2.62695 0.0292969Q1.33789 0.0292969 0.668945 0.693359Q0 1.35742 0 2.65625L0 14.6875Q0 15.9863 0.668945 16.6504Q1.33789 17.3145 2.62695 17.3145Z" fill="#ffffff"/>
  <path d="M8.64258 13.1445Q7.44141 13.1445 6.54785 12.5732Q5.6543 12.002 5.15625 10.9863Q4.6582 9.9707 4.6582 8.62305Q4.6582 7.28516 5.15625 6.27441Q5.6543 5.26367 6.54785 4.69727Q7.44141 4.13086 8.64258 4.13086Q9.83398 4.13086 10.7275 4.69727Q11.6211 5.26367 12.1191 6.27441Q12.6172 7.28516 12.6172 8.62305Q12.6172 9.92188 12.1484 10.918Q11.6797 11.9141 10.8496 12.4805L11.6309 13.5645Q11.748 13.7207 11.748 13.8379Q11.748 13.9648 11.665 14.0527Q11.582 14.1406 11.4453 14.1406Q11.3477 14.1406 11.2793 14.1016Q11.2109 14.0625 11.1328 13.9648L10.3027 12.8027Q9.55078 13.1445 8.64258 13.1445ZM8.64258 12.4805Q9.36523 12.4805 9.90234 12.2559L9.05273 11.0645Q8.94531 10.918 8.94531 10.8008Q8.94531 10.6738 9.0332 10.5908Q9.12109 10.5078 9.24805 10.5078Q9.42383 10.5078 9.54102 10.6641L10.4492 11.9141Q11.123 11.4258 11.4941 10.5713Q11.8652 9.7168 11.8652 8.62305Q11.8652 7.48047 11.46 6.61621Q11.0547 5.75195 10.3271 5.26855Q9.59961 4.78516 8.64258 4.78516Q7.67578 4.78516 6.95312 5.26855Q6.23047 5.75195 5.8252 6.61621Q5.41992 7.48047 5.41992 8.62305Q5.41992 9.78516 5.8252 10.6543Q6.23047 11.5234 6.95312 12.002Q7.67578 12.4805 8.64258 12.4805Z" fill="#ffffff"/>
 </g>
</svg>
