<?xml version="1.0" encoding="UTF-8"?>
<!--Generator: Apple Native CoreSVG 175.5-->
<!DOCTYPE svg
PUBLIC "-//W3C//DTD SVG 1.1//EN"
       "http://www.w3.org/Graphics/SVG/1.1/DTD/svg11.dtd">
<svg version="1.1" xmlns="http://www.w3.org/2000/svg" xmlns:xlink="http://www.w3.org/1999/xlink" width="17.9785" height="17.998">
 <g>
  <rect height="17.998" opacity="0" width="17.9785" x="0" y="0"/>
  <path d="M1.86523 8.20312L6.31836 8.20312Q7.24609 8.20312 7.71484 7.72949Q8.18359 7.25586 8.18359 6.28906L8.18359 1.92383Q8.18359 0.957031 7.71484 0.488281Q7.24609 0.0195312 6.31836 0.0195312L1.86523 0.0195312Q0.9375 0.0195312 0.46875 0.488281Q0 0.957031 0 1.92383L0 6.28906Q0 7.25586 0.46875 7.72949Q0.9375 8.20312 1.86523 8.20312ZM1.88477 6.82617Q1.63086 6.82617 1.50391 6.68945Q1.37695 6.55273 1.37695 6.28906L1.37695 1.92383Q1.37695 1.66016 1.50391 1.52832Q1.63086 1.39648 1.88477 1.39648L6.28906 1.39648Q6.54297 1.39648 6.6748 1.52832Q6.80664 1.66016 6.80664 1.92383L6.80664 6.28906Q6.80664 6.55273 6.6748 6.68945Q6.54297 6.82617 6.28906 6.82617ZM3.25195 5.13672L4.92188 5.13672Q5.11719 5.13672 5.11719 4.91211L5.11719 3.29102Q5.11719 3.07617 4.92188 3.07617L3.25195 3.07617Q3.05664 3.07617 3.05664 3.29102L3.05664 4.91211Q3.05664 5.13672 3.25195 5.13672ZM11.6699 8.20312L16.1133 8.20312Q17.041 8.20312 17.5098 7.72949Q17.9785 7.25586 17.9785 6.28906L17.9785 1.92383Q17.9785 0.957031 17.5098 0.488281Q17.041 0.0195312 16.1133 0.0195312L11.6699 0.0195312Q10.7324 0.0195312 10.2637 0.488281Q9.79492 0.957031 9.79492 1.92383L9.79492 6.28906Q9.79492 7.25586 10.2637 7.72949Q10.7324 8.20312 11.6699 8.20312ZM11.6895 6.82617Q11.4258 6.82617 11.2988 6.68945Q11.1719 6.55273 11.1719 6.28906L11.1719 1.92383Q11.1719 1.66016 11.2988 1.52832Q11.4258 1.39648 11.6895 1.39648L16.0938 1.39648Q16.3574 1.39648 16.4795 1.52832Q16.6016 1.66016 16.6016 1.92383L16.6016 6.28906Q16.6016 6.55273 16.4795 6.68945Q16.3574 6.82617 16.0938 6.82617ZM13.1055 5.13672L14.7754 5.13672Q14.9805 5.13672 14.9805 4.91211L14.9805 3.29102Q14.9805 3.07617 14.7754 3.07617L13.1055 3.07617Q12.9199 3.07617 12.9199 3.29102L12.9199 4.91211Q12.9199 5.13672 13.1055 5.13672ZM1.86523 17.998L6.31836 17.998Q7.24609 17.998 7.71484 17.5293Q8.18359 17.0605 8.18359 16.0938L8.18359 11.7188Q8.18359 10.7617 7.71484 10.2881Q7.24609 9.81445 6.31836 9.81445L1.86523 9.81445Q0.9375 9.81445 0.46875 10.2881Q0 10.7617 0 11.7188L0 16.0938Q0 17.0605 0.46875 17.5293Q0.9375 17.998 1.86523 17.998ZM1.88477 16.6211Q1.63086 16.6211 1.50391 16.4893Q1.37695 16.3574 1.37695 16.0938L1.37695 11.7285Q1.37695 11.4551 1.50391 11.3232Q1.63086 11.1914 1.88477 11.1914L6.28906 11.1914Q6.54297 11.1914 6.6748 11.3232Q6.80664 11.4551 6.80664 11.7285L6.80664 16.0938Q6.80664 16.3574 6.6748 16.4893Q6.54297 16.6211 6.28906 16.6211ZM3.25195 14.9414L4.92188 14.9414Q5.11719 14.9414 5.11719 14.707L5.11719 13.0957Q5.11719 12.8809 4.92188 12.8809L3.25195 12.8809Q3.05664 12.8809 3.05664 13.0957L3.05664 14.707Q3.05664 14.9414 3.25195 14.9414ZM10.459 12.3438L12.1289 12.3438Q12.3242 12.3438 12.3242 12.1191L12.3242 10.498Q12.3242 10.2832 12.1289 10.2832L10.459 10.2832Q10.2637 10.2832 10.2637 10.498L10.2637 12.1191Q10.2637 12.3438 10.459 12.3438ZM15.6445 12.3438L17.3145 12.3438Q17.5098 12.3438 17.5098 12.1191L17.5098 10.498Q17.5098 10.2832 17.3145 10.2832L15.6445 10.2832Q15.4492 10.2832 15.4492 10.498L15.4492 12.1191Q15.4492 12.3438 15.6445 12.3438ZM13.0762 14.9414L14.7461 14.9414Q14.9414 14.9414 14.9414 14.707L14.9414 13.0957Q14.9414 12.8809 14.7461 12.8809L13.0762 12.8809Q12.8809 12.8809 12.8809 13.0957L12.8809 14.707Q12.8809 14.9414 13.0762 14.9414ZM10.459 17.5293L12.1289 17.5293Q12.3242 17.5293 12.3242 17.3047L12.3242 15.6836Q12.3242 15.4688 12.1289 15.4688L10.459 15.4688Q10.2637 15.4688 10.2637 15.6836L10.2637 17.3047Q10.2637 17.5293 10.459 17.5293ZM15.6445 17.5293L17.3145 17.5293Q17.5098 17.5293 17.5098 17.3047L17.5098 15.6836Q17.5098 15.4688 17.3145 15.4688L15.6445 15.4688Q15.4492 15.4688 15.4492 15.6836L15.4492 17.3047Q15.4492 17.5293 15.6445 17.5293Z" fill="#007aff"/>
 </g>
</svg>
