<?xml version="1.0" encoding="UTF-8"?>
<!--Generator: Apple Native CoreSVG 175-->
<!DOCTYPE svg
PUBLIC "-//W3C//DTD SVG 1.1//EN"
       "http://www.w3.org/Graphics/SVG/1.1/DTD/svg11.dtd">
<svg version="1.1" xmlns="http://www.w3.org/2000/svg" xmlns:xlink="http://www.w3.org/1999/xlink" width="23.6621" height="15.7715">
 <g>
  <rect height="15.7715" opacity="0" width="23.6621" x="0" y="0"/>
  <path d="M3.31055 15.7617L14.1211 15.7617Q15.7227 15.7617 16.582 14.9072Q17.4414 14.0527 17.4414 12.4512L17.4414 3.30078Q17.4414 1.70898 16.582 0.854492Q15.7227 0 14.1211 0L3.31055 0Q1.72852 0 0.864258 0.854492Q0 1.70898 0 3.30078L0 12.4512Q0 14.0527 0.859375 14.9072Q1.71875 15.7617 3.31055 15.7617ZM3.47656 15.0781Q2.09961 15.0781 1.41113 14.3848Q0.722656 13.6914 0.722656 12.3047L0.722656 3.44727Q0.722656 2.06055 1.41113 1.37207Q2.09961 0.683594 3.47656 0.683594L13.9648 0.683594Q15.3418 0.683594 16.0303 1.37207Q16.7188 2.06055 16.7188 3.44727L16.7188 12.3047Q16.7188 13.6914 16.0303 14.3848Q15.3418 15.0781 13.9648 15.0781ZM17.2949 5.61523L17.2949 6.45508L21.9727 2.73438Q22.1484 2.60742 22.2852 2.51953Q22.4219 2.43164 22.5586 2.43164Q22.9492 2.43164 22.9492 2.95898L22.9492 12.8027Q22.9492 13.3203 22.5586 13.3203Q22.4219 13.3203 22.2852 13.2373Q22.1484 13.1543 21.9727 13.0273L17.2949 9.29688L17.2949 10.1465L21.5625 13.6035Q21.8359 13.8086 22.0898 13.9404Q22.3438 14.0723 22.6367 14.0723Q23.0957 14.0723 23.3789 13.7598Q23.6621 13.4473 23.6621 12.9004L23.6621 2.86133Q23.6621 2.31445 23.3789 2.00195Q23.0957 1.68945 22.6367 1.68945Q22.3438 1.68945 22.0898 1.81641Q21.8359 1.94336 21.5625 2.1582ZM8.56445 9.61914Q8.70117 9.61914 8.79395 9.53125Q8.88672 9.44336 8.88672 9.29688Q8.88672 9.21875 8.88672 9.15039Q8.88672 9.08203 8.88672 9.00391Q8.88672 8.58398 9.10156 8.29102Q9.31641 7.99805 9.83398 7.63672Q10.5273 7.16797 10.835 6.72852Q11.1426 6.28906 11.1426 5.64453Q11.1426 5.07812 10.8301 4.64355Q10.5176 4.20898 9.97559 3.96484Q9.43359 3.7207 8.75 3.7207Q7.71484 3.7207 7.08496 4.23828Q6.45508 4.75586 6.34766 5.43945Q6.32812 5.51758 6.31836 5.60547Q6.30859 5.69336 6.30859 5.78125Q6.30859 5.92773 6.40625 6.01074Q6.50391 6.09375 6.62109 6.09375Q6.79688 6.09375 6.875 6.00586Q6.95312 5.91797 7.00195 5.78125Q7.08984 5.17578 7.53906 4.75098Q7.98828 4.32617 8.71094 4.32617Q9.51172 4.32617 9.9707 4.70703Q10.4297 5.08789 10.4297 5.68359Q10.4297 6.14258 10.1709 6.48438Q9.91211 6.82617 9.26758 7.27539Q8.7207 7.66602 8.47656 8.04199Q8.23242 8.41797 8.23242 8.97461Q8.23242 9.05273 8.23242 9.12598Q8.23242 9.19922 8.23242 9.27734Q8.23242 9.61914 8.56445 9.61914ZM8.54492 12.002Q8.81836 12.002 9.00391 11.8066Q9.18945 11.6113 9.18945 11.3574Q9.18945 11.0938 8.99902 10.9082Q8.80859 10.7227 8.54492 10.7227Q8.28125 10.7227 8.08594 10.9082Q7.89062 11.0938 7.89062 11.3574Q7.89062 11.6113 8.08105 11.8066Q8.27148 12.002 8.54492 12.002Z" fill="#007aff"/>
 </g>
</svg>
