<?xml version="1.0" encoding="UTF-8"?>
<!--Generator: Apple Native CoreSVG 175.5-->
<!DOCTYPE svg
PUBLIC "-//W3C//DTD SVG 1.1//EN"
       "http://www.w3.org/Graphics/SVG/1.1/DTD/svg11.dtd">
<svg version="1.1" xmlns="http://www.w3.org/2000/svg" xmlns:xlink="http://www.w3.org/1999/xlink" width="19.9219" height="19.9316">
 <g>
  <rect height="19.9316" opacity="0" width="19.9219" x="0" y="0"/>
  <path d="M9.96094 19.9219Q12.002 19.9219 13.8037 19.1406Q15.6055 18.3594 16.9824 16.9824Q18.3594 15.6055 19.1406 13.8037Q19.9219 12.002 19.9219 9.96094Q19.9219 7.91992 19.1406 6.11816Q18.3594 4.31641 16.9824 2.93945Q15.6055 1.5625 13.7988 0.78125Q11.9922 0 9.95117 0Q7.91016 0 6.1084 0.78125Q4.30664 1.5625 2.93457 2.93945Q1.5625 4.31641 0.78125 6.11816Q0 7.91992 0 9.96094Q0 12.002 0.78125 13.8037Q1.5625 15.6055 2.93945 16.9824Q4.31641 18.3594 6.11816 19.1406Q7.91992 19.9219 9.96094 19.9219Z" fill="#ff9f0a"/>
  <path d="M9.76562 12.0508Q8.95508 12.0508 8.95508 11.25Q8.95508 11.2207 8.95508 11.1865Q8.95508 11.1523 8.95508 11.123Q8.95508 10.3711 9.31641 9.92188Q9.67773 9.47266 10.2148 9.0918Q10.8789 8.63281 11.2012 8.30566Q11.5234 7.97852 11.5234 7.46094Q11.5234 6.88477 11.1084 6.5332Q10.6934 6.18164 10.0098 6.18164Q9.67773 6.18164 9.39453 6.28906Q9.11133 6.39648 8.87695 6.60156Q8.64258 6.80664 8.45703 7.09961L8.28125 7.34375Q8.14453 7.51953 7.96875 7.63184Q7.79297 7.74414 7.53906 7.74414Q7.28516 7.74414 7.06055 7.56348Q6.83594 7.38281 6.83594 7.05078Q6.83594 6.92383 6.86035 6.79688Q6.88477 6.66992 6.92383 6.55273Q7.13867 5.84961 7.9541 5.33203Q8.76953 4.81445 10.0781 4.81445Q10.9375 4.81445 11.665 5.10742Q12.3926 5.40039 12.8418 5.97168Q13.291 6.54297 13.291 7.38281Q13.291 8.29102 12.8174 8.81836Q12.3438 9.3457 11.6113 9.82422Q11.084 10.166 10.8301 10.4736Q10.5762 10.7812 10.5762 11.2109Q10.5762 11.2305 10.5762 11.2646Q10.5762 11.2988 10.5762 11.3281Q10.5762 11.6309 10.3613 11.8408Q10.1465 12.0508 9.76562 12.0508ZM9.73633 15.0488Q9.30664 15.0488 8.97949 14.7461Q8.65234 14.4434 8.65234 14.0039Q8.65234 13.5742 8.97461 13.2617Q9.29688 12.9492 9.73633 12.9492Q10.1855 12.9492 10.5078 13.2568Q10.8301 13.5645 10.8301 14.0039Q10.8301 14.4434 10.5029 14.7461Q10.1758 15.0488 9.73633 15.0488Z" fill="#ffffff"/>
 </g>
</svg>
