<?xml version="1.0" encoding="UTF-8"?>
<!--Generator: Apple Native CoreSVG 175.5-->
<!DOCTYPE svg
PUBLIC "-//W3C//DTD SVG 1.1//EN"
       "http://www.w3.org/Graphics/SVG/1.1/DTD/svg11.dtd">
<svg version="1.1" xmlns="http://www.w3.org/2000/svg" xmlns:xlink="http://www.w3.org/1999/xlink" width="22.1486" height="22.1584">
 <g>
  <rect height="22.1584" opacity="0" width="22.1486" x="0" y="0"/>
  <path d="M1.09384 13.2325L8.9161 21.0548Q10.0001 22.1388 11.0743 22.1485Q12.1485 22.1583 13.2227 21.0841L21.0841 13.213Q22.1583 12.1485 22.1485 11.0694Q22.1388 9.99032 21.0548 8.90634L13.2423 1.09384Q12.1583 0.0098536 11.0841 8.79786e-05Q10.0099-0.00967765 8.93563 1.06454L1.06454 8.92587Q-0.00967765 10.0099 8.79786e-05 11.0792Q0.0098536 12.1485 1.09384 13.2325ZM2.22665 12.1485Q1.70907 11.6212 1.69931 11.0743Q1.68954 10.5274 2.23642 9.99032L9.99032 2.23642Q10.5274 1.69931 11.0743 1.69931Q11.6212 1.69931 12.1485 2.22665L19.922 10.0001Q20.4395 10.5177 20.4493 11.0694Q20.4591 11.6212 19.9122 12.1583L12.1583 19.9122Q11.6114 20.4493 11.0645 20.4493Q10.5177 20.4493 10.0001 19.9317Z" fill="#ff9f0a"/>
  <path d="M10.879 13.0958Q11.2403 13.0958 11.4503 12.8907Q11.6602 12.6856 11.6602 12.4024Q11.6602 12.3731 11.6602 12.339Q11.6602 12.3048 11.6602 12.2852Q11.6602 11.8751 11.9044 11.5772Q12.1485 11.2794 12.6661 10.9376Q13.3692 10.4688 13.8282 9.96103Q14.2872 9.45321 14.2872 8.57431Q14.2872 7.76376 13.8526 7.20712Q13.4181 6.65048 12.7149 6.36239Q12.0118 6.07431 11.1817 6.07431Q9.92196 6.07431 9.12606 6.587Q8.33017 7.0997 8.12509 7.77353Q8.08603 7.89071 8.06649 8.0079Q8.04696 8.12509 8.04696 8.25204Q8.04696 8.58407 8.26181 8.75497Q8.47665 8.92587 8.72079 8.92587Q8.96493 8.92587 9.13583 8.81845Q9.30673 8.71103 9.43368 8.53524L9.60946 8.30087Q9.78524 8.01767 10.0099 7.81747Q10.2345 7.61728 10.5128 7.50985Q10.7911 7.40243 11.1134 7.40243Q11.7872 7.40243 12.1876 7.74911Q12.588 8.09579 12.588 8.65243Q12.588 9.15048 12.2755 9.46786Q11.963 9.78524 11.3184 10.2345Q10.7911 10.5958 10.4444 11.0352Q10.0977 11.4747 10.0977 12.1974Q10.0977 12.2267 10.0977 12.2608Q10.0977 12.295 10.0977 12.3243Q10.0977 13.0958 10.879 13.0958ZM10.8497 16.0059Q11.2794 16.0059 11.5919 15.713Q11.9044 15.42 11.9044 14.9903Q11.9044 14.5606 11.5919 14.2677Q11.2794 13.9747 10.8497 13.9747Q10.42 13.9747 10.1124 14.2725Q9.80478 14.5704 9.80478 14.9903Q9.80478 15.4102 10.1173 15.7081Q10.4298 16.0059 10.8497 16.0059Z" fill="#ff9f0a"/>
 </g>
</svg>
