<?xml version="1.0" encoding="UTF-8"?>
<!--Generator: Apple Native CoreSVG 175.5-->
<!DOCTYPE svg
PUBLIC "-//W3C//DTD SVG 1.1//EN"
       "http://www.w3.org/Graphics/SVG/1.1/DTD/svg11.dtd">
<svg version="1.1" xmlns="http://www.w3.org/2000/svg" xmlns:xlink="http://www.w3.org/1999/xlink" width="17.9785" height="17.998">
 <g>
  <rect height="17.998" opacity="0" width="17.9785" x="0" y="0"/>
  <path d="M3.06641 17.998L14.9121 17.998Q16.4453 17.998 17.2119 17.2412Q17.9785 16.4844 17.9785 14.9707L17.9785 3.04688Q17.9785 1.5332 17.2119 0.776367Q16.4453 0.0195312 14.9121 0.0195312L3.06641 0.0195312Q1.5332 0.0195312 0.766602 0.776367Q0 1.5332 0 3.04688L0 14.9707Q0 16.4844 0.766602 17.2412Q1.5332 17.998 3.06641 17.998Z" fill="#ff9f0a"/>
  <path d="M8.79883 11.084Q7.98828 11.084 7.98828 10.2832Q7.98828 10.2539 7.98828 10.2197Q7.98828 10.1855 7.98828 10.1562Q7.98828 9.4043 8.34961 8.95508Q8.71094 8.50586 9.24805 8.125Q9.91211 7.66602 10.2344 7.33887Q10.5566 7.01172 10.5566 6.49414Q10.5566 5.91797 10.1416 5.56641Q9.72656 5.21484 9.04297 5.21484Q8.71094 5.21484 8.42773 5.32227Q8.14453 5.42969 7.91016 5.63477Q7.67578 5.83984 7.49023 6.13281L7.31445 6.37695Q7.17773 6.55273 7.00195 6.66504Q6.82617 6.77734 6.57227 6.77734Q6.31836 6.77734 6.09375 6.59668Q5.86914 6.41602 5.86914 6.08398Q5.86914 5.95703 5.89355 5.83008Q5.91797 5.70312 5.95703 5.58594Q6.17188 4.88281 6.9873 4.36523Q7.80273 3.84766 9.11133 3.84766Q9.9707 3.84766 10.6982 4.14062Q11.4258 4.43359 11.875 5.00488Q12.3242 5.57617 12.3242 6.41602Q12.3242 7.32422 11.8506 7.85156Q11.377 8.37891 10.6445 8.85742Q10.1172 9.19922 9.86328 9.50684Q9.60938 9.81445 9.60938 10.2441Q9.60938 10.2637 9.60938 10.2979Q9.60938 10.332 9.60938 10.3613Q9.60938 10.6641 9.39453 10.874Q9.17969 11.084 8.79883 11.084ZM8.76953 14.082Q8.33984 14.082 8.0127 13.7793Q7.68555 13.4766 7.68555 13.0371Q7.68555 12.6074 8.00781 12.2949Q8.33008 11.9824 8.76953 11.9824Q9.21875 11.9824 9.54102 12.29Q9.86328 12.5977 9.86328 13.0371Q9.86328 13.4766 9.53613 13.7793Q9.20898 14.082 8.76953 14.082Z" fill="#ffffff"/>
 </g>
</svg>
