<?xml version="1.0" encoding="UTF-8"?>
<!--Generator: Apple Native CoreSVG 175.5-->
<!DOCTYPE svg
PUBLIC "-//W3C//DTD SVG 1.1//EN"
       "http://www.w3.org/Graphics/SVG/1.1/DTD/svg11.dtd">
<svg version="1.1" xmlns="http://www.w3.org/2000/svg" xmlns:xlink="http://www.w3.org/1999/xlink" width="22.1486" height="22.1584">
 <g>
  <rect height="22.1584" opacity="0" width="22.1486" x="0" y="0"/>
  <path d="M1.09384 13.2325L8.9161 21.0548Q10.0001 22.1388 11.0743 22.1485Q12.1485 22.1583 13.2227 21.0841L21.0841 13.213Q22.1583 12.1485 22.1485 11.0694Q22.1388 9.99032 21.0548 8.90634L13.2423 1.09384Q12.1583 0.0098536 11.0841 8.79786e-05Q10.0099-0.00967765 8.93563 1.06454L1.06454 8.92587Q-0.00967765 10.0099 8.79786e-05 11.0792Q0.0098536 12.1485 1.09384 13.2325Z" fill="#ff9f0a"/>
  <path d="M10.8692 13.1642Q10.0587 13.1642 10.0587 12.3634Q10.0587 12.3341 10.0587 12.2999Q10.0587 12.2657 10.0587 12.2364Q10.0587 11.4845 10.42 11.0352Q10.7813 10.586 11.3184 10.2052Q11.9825 9.74618 12.3048 9.41903Q12.627 9.09188 12.627 8.57431Q12.627 7.99813 12.212 7.64657Q11.797 7.29501 11.1134 7.29501Q10.7813 7.29501 10.4981 7.40243Q10.2149 7.50985 9.98056 7.71493Q9.74618 7.92001 9.56063 8.21298L9.38485 8.45712Q9.24813 8.6329 9.07235 8.74521Q8.89657 8.85751 8.64267 8.85751Q8.38876 8.85751 8.16415 8.67685Q7.93954 8.49618 7.93954 8.16415Q7.93954 8.0372 7.96396 7.91024Q7.98837 7.78329 8.02743 7.6661Q8.24228 6.96298 9.05771 6.4454Q9.87313 5.92782 11.1817 5.92782Q12.0411 5.92782 12.7686 6.22079Q13.4962 6.51376 13.9454 7.08505Q14.3946 7.65634 14.3946 8.49618Q14.3946 9.40438 13.921 9.93173Q13.4474 10.4591 12.7149 10.9376Q12.1876 11.2794 11.9337 11.587Q11.6798 11.8946 11.6798 12.3243Q11.6798 12.3438 11.6798 12.378Q11.6798 12.4122 11.6798 12.4415Q11.6798 12.7442 11.4649 12.9542Q11.2501 13.1642 10.8692 13.1642ZM10.8399 16.1622Q10.4102 16.1622 10.0831 15.8595Q9.75595 15.5567 9.75595 15.1173Q9.75595 14.6876 10.0782 14.3751Q10.4005 14.0626 10.8399 14.0626Q11.2892 14.0626 11.6114 14.3702Q11.9337 14.6778 11.9337 15.1173Q11.9337 15.5567 11.6065 15.8595Q11.2794 16.1622 10.8399 16.1622Z" fill="#ffffff"/>
 </g>
</svg>
