<?xml version="1.0" encoding="UTF-8"?>
<!--Generator: Apple Native CoreSVG 175.5-->
<!DOCTYPE svg
PUBLIC "-//W3C//DTD SVG 1.1//EN"
       "http://www.w3.org/Graphics/SVG/1.1/DTD/svg11.dtd">
<svg version="1.1" xmlns="http://www.w3.org/2000/svg" xmlns:xlink="http://www.w3.org/1999/xlink" width="21.4941" height="13.5449">
 <g>
  <rect height="13.5449" opacity="0" width="21.4941" x="0" y="0"/>
  <path d="M0 4.70703Q0 6.00586 0.585938 7.06543Q1.17188 8.125 2.16797 8.75Q3.16406 9.375 4.4043 9.375Q5.27344 9.375 6.07422 9.0332Q6.875 8.69141 7.48047 8.01758L7.74414 8.01758Q7.5293 8.71094 7.11426 9.33594Q6.69922 9.96094 6.12305 10.4834Q5.54688 11.0059 4.83887 11.4062Q4.13086 11.8066 3.33008 12.041Q3.0957 12.1191 2.9248 12.1875Q2.75391 12.2559 2.65625 12.3438Q2.53906 12.4316 2.48047 12.5586Q2.42188 12.6855 2.42188 12.8516Q2.42188 13.1543 2.62695 13.3496Q2.83203 13.5449 3.17383 13.5449Q3.41797 13.5449 3.62305 13.4961Q3.82812 13.4473 4.15039 13.3496Q5.15625 13.0176 6.0498 12.4561Q6.94336 11.8945 7.64648 11.1523Q8.62305 10.127 9.19434 8.76953Q9.76562 7.41211 9.76562 5.79102Q9.76562 3.96484 9.07227 2.6709Q8.37891 1.37695 7.23145 0.693359Q6.08398 0.00976562 4.7168 0.00976562Q3.36914 0.00976562 2.30469 0.634766Q1.24023 1.25977 0.620117 2.31934Q0 3.37891 0 4.70703ZM11.7285 4.70703Q11.7285 6.00586 12.3145 7.06543Q12.9004 8.125 13.8965 8.75Q14.8926 9.375 16.1328 9.375Q17.002 9.375 17.7979 9.0332Q18.5938 8.69141 19.209 8.01758L19.4629 8.01758Q19.2578 8.71094 18.8428 9.33594Q18.4277 9.96094 17.8516 10.4834Q17.2754 11.0059 16.5625 11.4062Q15.8496 11.8066 15.0488 12.041Q14.8145 12.1191 14.6484 12.1875Q14.4824 12.2559 14.3848 12.3438Q14.2676 12.4316 14.2041 12.5586Q14.1406 12.6855 14.1406 12.8516Q14.1406 13.1543 14.3555 13.3496Q14.5703 13.5449 14.9121 13.5449Q15.1367 13.5449 15.3467 13.4961Q15.5566 13.4473 15.8691 13.3496Q16.875 13.0176 17.7686 12.4561Q18.6621 11.8945 19.3555 11.1523Q20.3516 10.127 20.9229 8.76953Q21.4941 7.41211 21.4941 5.79102Q21.4941 3.96484 20.8008 2.6709Q20.1074 1.37695 18.96 0.693359Q17.8125 0.00976562 16.4453 0.00976562Q15.0977 0.00976562 14.0332 0.634766Q12.9688 1.25977 12.3486 2.31934Q11.7285 3.37891 11.7285 4.70703Z" fill="#007aff"/>
 </g>
</svg>
