<?xml version="1.0" encoding="UTF-8"?>
<!--Generator: Apple Native CoreSVG 175-->
<!DOCTYPE svg
PUBLIC "-//W3C//DTD SVG 1.1//EN"
       "http://www.w3.org/Graphics/SVG/1.1/DTD/svg11.dtd">
<svg version="1.1" xmlns="http://www.w3.org/2000/svg" xmlns:xlink="http://www.w3.org/1999/xlink" width="19.1602" height="19.1504">
 <g>
  <rect height="19.1504" opacity="0" width="19.1602" x="0" y="0"/>
  <path d="M9.57031 19.1406Q11.5527 19.1406 13.2861 18.3984Q15.0195 17.6562 16.3379 16.333Q17.6562 15.0098 18.4082 13.2764Q19.1602 11.543 19.1602 9.57031Q19.1602 7.59766 18.4082 5.86426Q17.6562 4.13086 16.3379 2.80762Q15.0195 1.48438 13.2861 0.742188Q11.5527 0 9.57031 0Q7.59766 0 5.86426 0.742188Q4.13086 1.48438 2.81738 2.80762Q1.50391 4.13086 0.751953 5.86426Q0 7.59766 0 9.57031Q0 11.543 0.74707 13.2764Q1.49414 15.0098 2.8125 16.333Q4.13086 17.6562 5.86914 18.3984Q7.60742 19.1406 9.57031 19.1406Z" fill="#000000"/>
  <path d="M7.10938 13.9941Q6.94336 13.9941 6.84082 13.8867Q6.73828 13.7793 6.73828 13.5938L6.73828 5.61523Q6.73828 5.42969 6.82617 5.3125Q6.91406 5.19531 7.08984 5.19531L9.80469 5.19531Q11.0352 5.19531 11.7969 5.91309Q12.5586 6.63086 12.5586 7.79297Q12.5586 8.74023 12.0166 9.41406Q11.4746 10.0879 10.5664 10.2832L12.373 13.3398Q12.4902 13.5352 12.4902 13.6719Q12.4902 13.8184 12.4023 13.9062Q12.3145 13.9941 12.1582 13.9941Q12.0215 13.9941 11.9336 13.9355Q11.8457 13.877 11.7676 13.7207L9.81445 10.3711L7.49023 10.3711L7.49023 13.5938Q7.49023 13.7695 7.3877 13.8818Q7.28516 13.9941 7.10938 13.9941ZM7.49023 9.73633L9.77539 9.73633Q10.6934 9.73633 11.25 9.2041Q11.8066 8.67188 11.8066 7.80273Q11.8066 6.91406 11.2451 6.38184Q10.6836 5.84961 9.78516 5.84961L7.49023 5.84961Z" fill="#ffffff"/>
 </g>
</svg>
