<?xml version="1.0" encoding="UTF-8"?>
<!--Generator: Apple Native CoreSVG 175.5-->
<!DOCTYPE svg
PUBLIC "-//W3C//DTD SVG 1.1//EN"
       "http://www.w3.org/Graphics/SVG/1.1/DTD/svg11.dtd">
<svg version="1.1" xmlns="http://www.w3.org/2000/svg" xmlns:xlink="http://www.w3.org/1999/xlink" width="27.2901" height="24.7949">
 <g>
  <rect height="24.7949" opacity="0" width="27.2901" x="0" y="0"/>
  <path d="M14.8975 0Q12.8468 0 10.9962 0.620117Q9.14559 1.24023 7.59774 2.37793Q6.04989 3.51562 4.90731 5.05859Q3.76473 6.60156 3.1495 8.4375Q3.56942 8.37891 3.96981 8.48633Q4.3702 8.59375 4.6827 8.84766Q5.22958 7.25586 6.22567 5.92773Q7.22177 4.59961 8.56454 3.61816Q9.90731 2.63672 11.5138 2.10449Q13.1202 1.57227 14.8975 1.57227Q17.1339 1.57227 19.0968 2.41211Q21.0597 3.25195 22.5489 4.74121Q24.0382 6.23047 24.878 8.18848Q25.7179 10.1465 25.7179 12.3926Q25.7179 14.6289 24.878 16.5918Q24.0382 18.5547 22.5489 20.0439Q21.0597 21.5332 19.0968 22.373Q17.1339 23.2129 14.8975 23.2129Q13.13 23.2129 11.5235 22.6807Q9.91708 22.1484 8.5743 21.1719Q7.23153 20.1953 6.23544 18.8672Q5.23934 17.5391 4.6827 15.957Q4.37997 16.2109 3.97958 16.3184Q3.57919 16.4258 3.15927 16.3672Q3.78427 18.2031 4.92196 19.7412Q6.05966 21.2793 7.60751 22.4121Q9.15536 23.5449 11.0059 24.165Q12.8565 24.7852 14.8975 24.7852Q16.9483 24.7852 18.8087 24.1602Q20.669 23.5352 22.2169 22.3975Q23.7647 21.2598 24.9024 19.7119Q26.0401 18.1641 26.6651 16.3037Q27.2901 14.4434 27.2901 12.3926Q27.2901 10.3418 26.6651 8.48145Q26.0401 6.62109 24.9024 5.07324Q23.7647 3.52539 22.2169 2.3877Q20.669 1.25 18.8087 0.625Q16.9483 0 14.8975 0Z" fill="#007aff"/>
  <path d="M14.8975 20.9668Q16.6749 20.9668 18.2276 20.3027Q19.7804 19.6387 20.962 18.457Q22.1436 17.2754 22.8126 15.7227Q23.4815 14.1699 23.4815 12.3926Q23.4815 10.6152 22.8126 9.05762Q22.1436 7.5 20.962 6.32324Q19.7804 5.14648 18.2276 4.47754Q16.6749 3.80859 14.8975 3.80859Q13.1202 3.80859 11.5675 4.47754Q10.0147 5.14648 8.83309 6.32324Q7.65145 7.5 6.98251 9.05762Q6.31356 10.6152 6.31356 12.3926Q6.31356 14.1699 6.98251 15.7227Q7.65145 17.2754 8.83309 18.457Q10.0147 19.6387 11.5675 20.3027Q13.1202 20.9668 14.8975 20.9668ZM14.8975 19.3945Q13.4425 19.3945 12.1729 18.8525Q10.9034 18.3105 9.94149 17.3486Q8.97958 16.3867 8.4327 15.1123Q7.88583 13.8379 7.88583 12.3926Q7.88583 10.9375 8.4327 9.66797Q8.97958 8.39844 9.94149 7.43652Q10.9034 6.47461 12.1729 5.92773Q13.4425 5.38086 14.8975 5.38086Q16.3526 5.38086 17.6222 5.92773Q18.8917 6.47461 19.8536 7.43652Q20.8155 8.39844 21.3624 9.66797Q21.9093 10.9375 21.9093 12.3926Q21.9093 13.8379 21.3624 15.1123Q20.8155 16.3867 19.8536 17.3486Q18.8917 18.3105 17.6222 18.8525Q16.3526 19.3945 14.8975 19.3945ZM2.88583 9.93164L0.26864 11.8848Q-0.00479715 12.0801 8.56634e-05 12.3975Q0.00496848 12.7148 0.26864 12.9102L2.88583 14.8633Q3.27645 15.1562 3.67684 15.0146Q4.07723 14.873 4.07723 14.3555L4.07723 10.4395Q4.07723 9.94141 3.68173 9.78516Q3.28622 9.62891 2.88583 9.93164ZM12.5323 16.6425Q12.8942 16.6425 13.0843 16.4245Q13.2745 16.2065 13.2745 15.8169L13.2745 13.5068L15.0094 13.5068L16.6144 16.1508Q16.7814 16.4199 16.9438 16.5312Q17.1061 16.6425 17.3566 16.6425Q17.6535 16.6425 17.839 16.4663Q18.0246 16.29 18.0246 16.0117Q18.0246 15.7426 17.8576 15.4736L16.466 13.2934Q17.2824 13.0243 17.7741 12.3471Q18.2658 11.6698 18.2658 10.807Q18.2658 9.55456 17.4355 8.81701Q16.6051 8.07945 15.1857 8.07945L12.5231 8.07945Q12.1705 8.07945 11.985 8.31138Q11.7994 8.54332 11.7994 8.91442L11.7994 15.8169Q11.7994 16.188 11.985 16.4152Q12.1705 16.6425 12.5323 16.6425ZM13.2745 12.4213L13.2745 9.2113L15.0094 9.2113Q15.8073 9.2113 16.299 9.63806Q16.7907 10.0648 16.7907 10.8441Q16.7907 11.6049 16.3036 12.0131Q15.8166 12.4213 14.9723 12.4213Z" fill="#007aff"/>
 </g>
</svg>
