<?xml version="1.0" encoding="UTF-8"?>
<!--Generator: Apple Native CoreSVG 175.5-->
<!DOCTYPE svg
PUBLIC "-//W3C//DTD SVG 1.1//EN"
       "http://www.w3.org/Graphics/SVG/1.1/DTD/svg11.dtd">
<svg version="1.1" xmlns="http://www.w3.org/2000/svg" xmlns:xlink="http://www.w3.org/1999/xlink" width="27.2901" height="24.7949">
 <g>
  <rect height="24.7949" opacity="0" width="27.2901" x="0" y="0"/>
  <path d="M12.3926 0Q10.3418 0 8.48145 0.625Q6.62109 1.25 5.07324 2.3877Q3.52539 3.52539 2.3877 5.07324Q1.25 6.62109 0.625 8.48145Q0 10.3418 0 12.3926Q0 14.4434 0.625 16.3037Q1.25 18.1641 2.3877 19.7119Q3.52539 21.2598 5.07324 22.3975Q6.62109 23.5352 8.48145 24.1602Q10.3418 24.7852 12.3926 24.7852Q14.4336 24.7852 16.2842 24.165Q18.1348 23.5449 19.6826 22.4121Q21.2305 21.2793 22.3682 19.7412Q23.5059 18.2031 24.1309 16.3672Q23.7109 16.4258 23.3105 16.3184Q22.9102 16.2109 22.6074 15.957Q22.0508 17.5391 21.0547 18.8672Q20.0586 20.1953 18.7158 21.1719Q17.373 22.1484 15.7666 22.6807Q14.1602 23.2129 12.3926 23.2129Q10.1562 23.2129 8.19336 22.373Q6.23047 21.5332 4.74121 20.0439Q3.25195 18.5547 2.41211 16.5918Q1.57227 14.6289 1.57227 12.3926Q1.57227 10.1465 2.41211 8.18848Q3.25195 6.23047 4.74121 4.74121Q6.23047 3.25195 8.19336 2.41211Q10.1562 1.57227 12.3926 1.57227Q14.1699 1.57227 15.7764 2.10449Q17.3828 2.63672 18.7256 3.61816Q20.0684 4.59961 21.0645 5.92773Q22.0605 7.25586 22.6074 8.84766Q22.9199 8.59375 23.3203 8.48633Q23.7207 8.37891 24.1406 8.4375Q23.5254 6.60156 22.3828 5.05859Q21.2402 3.51562 19.6924 2.37793Q18.1445 1.24023 16.2939 0.620117Q14.4434 0 12.3926 0Z" fill="#007aff"/>
  <path d="M12.3926 20.9668Q14.1699 20.9668 15.7227 20.3027Q17.2754 19.6387 18.457 18.457Q19.6387 17.2754 20.3076 15.7227Q20.9766 14.1699 20.9766 12.3926Q20.9766 10.6152 20.3076 9.05762Q19.6387 7.5 18.457 6.32324Q17.2754 5.14648 15.7227 4.47754Q14.1699 3.80859 12.3926 3.80859Q10.6152 3.80859 9.0625 4.47754Q7.50977 5.14648 6.32812 6.32324Q5.14648 7.5 4.47754 9.05762Q3.80859 10.6152 3.80859 12.3926Q3.80859 14.1699 4.47754 15.7227Q5.14648 17.2754 6.32812 18.457Q7.50977 19.6387 9.0625 20.3027Q10.6152 20.9668 12.3926 20.9668ZM24.4043 9.93164Q24.0039 9.62891 23.6084 9.78516Q23.2129 9.94141 23.2129 10.4395L23.2129 14.3555Q23.2129 14.873 23.6133 15.0146Q24.0137 15.1562 24.4043 14.8633L27.0215 12.9102Q27.2852 12.7148 27.29 12.3975Q27.2949 12.0801 27.0215 11.8848ZM9.9385 16.7817Q9.5674 16.7817 9.37721 16.5451Q9.18702 16.3086 9.18702 15.9189L9.18702 8.81237Q9.18702 8.42271 9.37721 8.1815Q9.5674 7.94029 9.92922 7.94029L12.6846 7.94029Q14.1412 7.94029 14.9994 8.70568Q15.8575 9.47107 15.8575 10.7606Q15.8575 11.6513 15.3565 12.3471Q14.8556 13.0429 14.0113 13.3212L15.44 15.5664Q15.607 15.8447 15.607 16.123Q15.607 16.4106 15.4168 16.5962Q15.2267 16.7817 14.9205 16.7817Q14.6607 16.7817 14.4937 16.6657Q14.3267 16.5498 14.1505 16.2714L12.4991 13.5439L10.7085 13.5439L10.7085 15.9189Q10.7085 16.3178 10.5137 16.5498Q10.3189 16.7817 9.9385 16.7817ZM10.7085 12.4213L12.462 12.4213Q13.3248 12.4213 13.8304 11.9992Q14.336 11.5771 14.336 10.7977Q14.336 9.99061 13.8258 9.55456Q13.3155 9.11852 12.4991 9.11852L10.7085 9.11852Z" fill="#007aff"/>
 </g>
</svg>
