<?xml version="1.0" encoding="UTF-8"?>
<!--Generator: Apple Native CoreSVG 175.5-->
<!DOCTYPE svg
PUBLIC "-//W3C//DTD SVG 1.1//EN"
       "http://www.w3.org/Graphics/SVG/1.1/DTD/svg11.dtd">
<svg version="1.1" xmlns="http://www.w3.org/2000/svg" xmlns:xlink="http://www.w3.org/1999/xlink" width="19.9805" height="25.2441">
 <g>
  <rect height="25.2441" opacity="0" width="19.9805" x="0" y="0"/>
  <path d="M9.99023 17.7441Q12.334 17.7441 14.1846 17.2559Q16.0352 16.7676 17.3291 15.8984Q18.623 15.0293 19.3018 13.8916Q19.9805 12.7539 19.9805 11.4453Q19.9805 10.1465 19.3018 9.00391Q18.623 7.86133 17.3242 6.99707Q16.0254 6.13281 14.1748 5.64453Q12.3242 5.15625 9.98047 5.15625Q7.64648 5.15625 5.7959 5.64453Q3.94531 6.13281 2.65137 6.99707Q1.35742 7.86133 0.678711 9.00391Q0 10.1465 0 11.4453Q0 12.7539 0.678711 13.8916Q1.35742 15.0293 2.65137 15.8984Q3.94531 16.7676 5.7959 17.2559Q7.64648 17.7441 9.99023 17.7441ZM9.99023 22.1777Q11.7676 22.1777 12.7686 21.3867Q13.7695 20.5957 13.7695 19.1895L13.7695 18.7012Q12.8809 18.877 11.9385 18.9746Q10.9961 19.0723 9.99023 19.0723Q8.99414 19.0723 8.04688 18.9746Q7.09961 18.877 6.2207 18.7012L6.2207 19.1895Q6.2207 20.5957 7.2168 21.3867Q8.21289 22.1777 9.99023 22.1777Z" fill="#007aff"/>
  <path d="M8.38867 14.4531Q7.7832 14.4531 7.7832 13.7793L7.7832 9.02344Q7.7832 8.33008 8.38867 8.33008L10.2246 8.33008Q11.2305 8.33008 11.8359 8.87207Q12.4414 9.41406 12.4414 10.3223Q12.4414 10.918 12.124 11.3867Q11.8066 11.8555 11.2598 12.0801L12.168 13.4961Q12.2363 13.6035 12.2705 13.7061Q12.3047 13.8086 12.3047 13.9258Q12.3047 14.1699 12.1338 14.3213Q11.9629 14.4727 11.7285 14.4727Q11.5332 14.4727 11.4014 14.3799Q11.2695 14.2871 11.1426 14.082L10.0391 12.2852L9.01367 12.2852L9.01367 13.7793Q9.01367 14.082 8.84277 14.2676Q8.67188 14.4531 8.38867 14.4531ZM9.01367 11.3281L10.0781 11.3281Q10.625 11.3281 10.918 11.0693Q11.2109 10.8105 11.2109 10.3418Q11.2109 9.87305 10.918 9.59961Q10.625 9.32617 10.0977 9.32617L9.01367 9.32617Z" fill="#ffffff"/>
  <path d="M7.59766 1.19141L9.55078 3.80859Q9.74609 4.08203 10.0635 4.08203Q10.3809 4.08203 10.5762 3.80859L12.5293 1.19141Q12.8223 0.800781 12.6807 0.400391Q12.5391 0 12.0215 0L8.10547 0Q7.60742 0 7.45117 0.395508Q7.29492 0.791016 7.59766 1.19141Z" fill="#007aff"/>
 </g>
</svg>
