<?xml version="1.0" encoding="UTF-8"?>
<!--Generator: Apple Native CoreSVG 175-->
<!DOCTYPE svg
PUBLIC "-//W3C//DTD SVG 1.1//EN"
       "http://www.w3.org/Graphics/SVG/1.1/DTD/svg11.dtd">
<svg version="1.1" xmlns="http://www.w3.org/2000/svg" xmlns:xlink="http://www.w3.org/1999/xlink" width="19.3848" height="22.666">
 <g>
  <rect height="22.666" opacity="0" width="19.3848" x="0" y="0"/>
  <path d="M9.6875 16.4941Q11.9629 16.4941 13.7549 16.0156Q15.5469 15.5371 16.8018 14.6973Q18.0566 13.8574 18.7207 12.7539Q19.3848 11.6504 19.3848 10.3809Q19.3848 9.12109 18.7207 8.0127Q18.0566 6.9043 16.8018 6.06445Q15.5469 5.22461 13.75 4.75098Q11.9531 4.27734 9.67773 4.27734Q7.41211 4.27734 5.62012 4.75098Q3.82812 5.22461 2.57324 6.06445Q1.31836 6.9043 0.65918 8.0127Q0 9.12109 0 10.3809Q0 11.6504 0.65918 12.7539Q1.31836 13.8574 2.57324 14.6973Q3.82812 15.5371 5.625 16.0156Q7.42188 16.4941 9.6875 16.4941ZM9.6875 20.1758Q11.416 20.1758 12.3828 19.4873Q13.3496 18.7988 13.3496 17.5879L13.3496 17.002Q12.5098 17.1777 11.5967 17.2705Q10.6836 17.3633 9.6875 17.3633Q8.71094 17.3633 7.79297 17.2705Q6.875 17.1777 6.03516 17.002L6.03516 17.5879Q6.03516 18.7988 7.00195 19.4873Q7.96875 20.1758 9.6875 20.1758ZM8.03711 13.3203Q7.72461 13.3203 7.72461 12.9883L7.72461 7.60742Q7.72461 7.25586 8.02734 7.25586L9.85352 7.25586Q10.7031 7.25586 11.2402 7.75879Q11.7773 8.26172 11.7773 9.07227Q11.7773 9.70703 11.4209 10.166Q11.0645 10.625 10.459 10.791L11.6406 12.7734Q11.6895 12.8516 11.7139 12.9053Q11.7383 12.959 11.7383 13.0371Q11.7383 13.1641 11.6504 13.2422Q11.5625 13.3203 11.4355 13.3203Q11.3379 13.3203 11.2646 13.2666Q11.1914 13.2129 11.123 13.1055L9.82422 10.8789L8.36914 10.8789L8.36914 12.9883Q8.36914 13.1348 8.27148 13.2275Q8.17383 13.3203 8.03711 13.3203ZM8.36914 10.3027L9.84375 10.3027Q10.4297 10.3027 10.7812 9.9707Q11.1328 9.63867 11.1328 9.07227Q11.1328 8.51562 10.7812 8.17383Q10.4297 7.83203 9.84375 7.83203L8.36914 7.83203ZM7.59766 0.78125L9.29688 3.03711Q9.45312 3.25195 9.70703 3.24707Q9.96094 3.24219 10.1074 3.03711L11.8066 0.78125Q12.002 0.527344 11.9043 0.263672Q11.8066 0 11.4941 0L7.91016 0Q7.59766 0 7.5 0.263672Q7.40234 0.527344 7.59766 0.78125Z" fill="#007aff"/>
 </g>
</svg>
