<?xml version="1.0" encoding="UTF-8"?>
<!--Generator: Apple Native CoreSVG 175.5-->
<!DOCTYPE svg
PUBLIC "-//W3C//DTD SVG 1.1//EN"
       "http://www.w3.org/Graphics/SVG/1.1/DTD/svg11.dtd">
<svg version="1.1" xmlns="http://www.w3.org/2000/svg" xmlns:xlink="http://www.w3.org/1999/xlink" width="23.6133" height="17.998">
 <g>
  <rect height="17.998" opacity="0" width="23.6133" x="0" y="0"/>
  <path d="M8.39844 17.998L15.2246 17.998Q18.125 17.998 19.9854 17.1045Q21.8457 16.2109 22.7295 14.4043Q23.6133 12.5977 23.6133 9.85352L23.6133 3.04688Q23.6133 1.5332 22.8467 0.776367Q22.0801 0.0195312 20.5469 0.0195312L3.06641 0.0195312Q1.5332 0.0195312 0.766602 0.776367Q0 1.5332 0 3.04688L0 9.85352Q0 12.5977 0.888672 14.4043Q1.77734 16.2109 3.63281 17.1045Q5.48828 17.998 8.39844 17.998Z" fill="#007aff"/>
  <path d="M6.40625 13.6426Q6.01562 13.6426 5.81055 13.3936Q5.60547 13.1445 5.60547 12.7344L5.60547 5.25391Q5.60547 4.84375 5.80566 4.58984Q6.00586 4.33594 6.39648 4.33594L9.28711 4.33594Q10.8301 4.33594 11.7334 5.1416Q12.6367 5.94727 12.6367 7.30469Q12.6367 8.24219 12.1045 8.97461Q11.5723 9.70703 10.6836 10L12.1875 12.3633Q12.3828 12.6465 12.3828 12.9492Q12.3828 13.252 12.1729 13.4473Q11.9629 13.6426 11.6406 13.6426Q11.377 13.6426 11.1963 13.5205Q11.0156 13.3984 10.8301 13.1055L9.0918 10.2344L7.22656 10.2344L7.22656 12.7344Q7.22656 13.1543 7.0166 13.3984Q6.80664 13.6426 6.40625 13.6426ZM7.22656 9.05273L9.05273 9.05273Q9.9707 9.05273 10.5029 8.6084Q11.0352 8.16406 11.0352 7.34375Q11.0352 6.49414 10.498 6.03516Q9.96094 5.57617 9.0918 5.57617L7.22656 5.57617ZM17.2559 13.75Q16.8848 13.75 16.6699 13.5107Q16.4551 13.2715 16.4551 12.8418L16.4551 5.99609L16.3867 5.99609L15.0977 6.85547Q14.9219 6.97266 14.8145 7.00195Q14.707 7.03125 14.5996 7.03125Q14.3555 7.03125 14.1943 6.85059Q14.0332 6.66992 14.0332 6.43555Q14.0332 6.24023 14.1016 6.11328Q14.1699 5.98633 14.3457 5.85938L16.1426 4.62891Q16.4746 4.4043 16.709 4.32129Q16.9434 4.23828 17.2168 4.23828Q17.627 4.23828 17.8516 4.47266Q18.0762 4.70703 18.0762 5.14648L18.0762 12.8418Q18.0762 13.2715 17.8613 13.5107Q17.6465 13.75 17.2559 13.75Z" fill="#ffffff"/>
 </g>
</svg>
