<?xml version="1.0" encoding="UTF-8"?>
<!--Generator: Apple Native CoreSVG 175-->
<!DOCTYPE svg
PUBLIC "-//W3C//DTD SVG 1.1//EN"
       "http://www.w3.org/Graphics/SVG/1.1/DTD/svg11.dtd">
<svg version="1.1" xmlns="http://www.w3.org/2000/svg" xmlns:xlink="http://www.w3.org/1999/xlink" width="22.6617" height="25.9232">
 <g>
  <rect height="25.9232" opacity="0" width="22.6617" x="0" y="0"/>
  <path d="M18.291 10.3516Q18.8527 10.3418 19.2492 9.95515Q19.6457 9.56849 19.6457 9.01368Q19.6457 8.45903 19.2492 8.06253Q18.8527 7.66603 18.291 7.65626Q17.7266 7.6465 17.3301 8.05276Q16.9336 8.45903 16.9336 9.01368Q16.9336 9.56849 17.3301 9.96492Q17.7266 10.3613 18.291 10.3516ZM18.291 14.2888Q18.8527 14.2888 19.2492 13.8874Q19.6457 13.486 19.6457 12.9314Q19.6457 12.367 19.2492 11.9753Q18.8527 11.5837 18.291 11.5837Q17.7266 11.5837 17.3301 11.9753Q16.9336 12.367 16.9336 12.9314Q16.9336 13.486 17.3301 13.8874Q17.7266 14.2888 18.291 14.2888ZM9.04297 8.74971Q9.32892 8.74971 9.52698 8.54188Q9.72504 8.33406 9.72504 8.03559Q9.72504 7.76368 9.52698 7.56082Q9.32892 7.35795 9.04297 7.35795Q8.77106 7.35795 8.5717 7.56082Q8.37234 7.76368 8.37234 8.03559Q8.37234 8.33406 8.5717 8.54188Q8.77106 8.74971 9.04297 8.74971ZM11.5044 9.39103Q11.7929 9.39103 11.9875 9.18679Q12.182 8.98256 12.182 8.71064Q12.182 8.41493 11.9875 8.2155Q11.7929 8.01606 11.5044 8.01606Q11.2254 8.01606 11.0358 8.2155Q10.8461 8.41493 10.8461 8.71064Q10.8461 8.98256 11.0358 9.18679Q11.2254 9.39103 11.5044 9.39103ZM13.3937 11.0591Q13.6726 11.0591 13.8805 10.8611Q14.0883 10.663 14.0883 10.3771Q14.0883 10.0954 13.8805 9.88618Q13.6726 9.67698 13.3937 9.67698Q13.1148 9.67698 12.9238 9.88618Q12.7328 10.0954 12.7328 10.3771Q12.7328 10.663 12.9238 10.8611Q13.1148 11.0591 13.3937 11.0591ZM13.9879 13.438Q14.2598 13.438 14.4579 13.2385Q14.6559 13.0391 14.6559 12.7602Q14.6559 12.4716 14.4579 12.2736Q14.2598 12.0755 13.9879 12.0755Q13.6992 12.0755 13.5011 12.2736Q13.3031 12.4716 13.3031 12.7602Q13.3031 13.0391 13.5011 13.2385Q13.6992 13.438 13.9879 13.438ZM13.3937 15.8336Q13.6726 15.8336 13.8805 15.6294Q14.0883 15.4251 14.0883 15.1364Q14.0883 14.8547 13.8805 14.6567Q13.6726 14.4586 13.3937 14.4586Q13.1148 14.4586 12.9238 14.6567Q12.7328 14.8547 12.7328 15.1364Q12.7328 15.4251 12.9238 15.6294Q13.1148 15.8336 13.3937 15.8336ZM11.5044 17.7078Q11.7929 17.7078 11.9875 17.5085Q12.182 17.3091 12.182 17.0134Q12.182 16.7415 11.9875 16.5372Q11.7929 16.3329 11.5044 16.3329Q11.2254 16.3329 11.0358 16.5372Q10.8461 16.7415 10.8461 17.0134Q10.8461 17.3091 11.0358 17.5085Q11.2254 17.7078 11.5044 17.7078ZM9.04297 18.5767Q9.32892 18.5767 9.52698 18.3737Q9.72504 18.1708 9.72504 17.8919Q9.72504 17.5961 9.52698 17.3905Q9.32892 17.1848 9.04297 17.1848Q8.77106 17.1848 8.5717 17.3905Q8.37234 17.5961 8.37234 17.8919Q8.37234 18.1708 8.5717 18.3737Q8.77106 18.5767 9.04297 18.5767ZM6.586 17.7078Q6.86493 17.7078 7.05452 17.5085Q7.24411 17.3091 7.24411 17.0134Q7.24411 16.7415 7.05452 16.5372Q6.86493 16.3329 6.586 16.3329Q6.2973 16.3329 6.10275 16.5372Q5.9082 16.7415 5.9082 17.0134Q5.9082 17.3091 6.10275 17.5085Q6.2973 17.7078 6.586 17.7078ZM4.69925 15.8336Q4.97818 15.8336 5.16777 15.6294Q5.35736 15.4251 5.35736 15.1364Q5.35736 14.8547 5.16777 14.6567Q4.97818 14.4586 4.69925 14.4586Q4.41757 14.4586 4.20975 14.6567Q4.00192 14.8547 4.00192 15.1364Q4.00192 15.4251 4.20975 15.6294Q4.41757 15.8336 4.69925 15.8336ZM4.10507 13.438Q4.39102 13.438 4.58908 13.2385Q4.78714 13.0391 4.78714 12.7602Q4.78714 12.4716 4.58908 12.2736Q4.39102 12.0755 4.10507 12.0755Q3.83316 12.0755 3.6338 12.2736Q3.43445 12.4716 3.43445 12.7602Q3.43445 13.0391 3.6338 13.2385Q3.83316 13.438 4.10507 13.438ZM4.69925 11.0591Q4.97818 11.0591 5.16777 10.8611Q5.35736 10.663 5.35736 10.3771Q5.35736 10.0954 5.16777 9.88618Q4.97818 9.67698 4.69925 9.67698Q4.41757 9.67698 4.20975 9.88618Q4.00192 10.0954 4.00192 10.3771Q4.00192 10.663 4.20975 10.8611Q4.41757 11.0591 4.69925 11.0591ZM6.586 9.39103Q6.86493 9.39103 7.05452 9.18679Q7.24411 8.98256 7.24411 8.71064Q7.24411 8.41493 7.05452 8.2155Q6.86493 8.01606 6.586 8.01606Q6.2973 8.01606 6.10275 8.2155Q5.9082 8.41493 5.9082 8.71064Q5.9082 8.98256 6.10275 9.18679Q6.2973 9.39103 6.586 9.39103ZM9.04297 11.2653Q9.32892 11.2653 9.52698 11.0658Q9.72504 10.8664 9.72504 10.5876Q9.72504 10.2989 9.52698 10.0946Q9.32892 9.8903 9.04297 9.8903Q8.77106 9.8903 8.5717 10.0946Q8.37234 10.2989 8.37234 10.5876Q8.37234 10.8664 8.5717 11.0658Q8.77106 11.2653 9.04297 11.2653ZM11.3649 12.2701Q11.6438 12.2701 11.8383 12.0671Q12.0328 11.8642 12.0328 11.5852Q12.0328 11.3133 11.8383 11.1104Q11.6438 10.9075 11.3649 10.9075Q11.086 10.9075 10.8817 11.1104Q10.6773 11.3133 10.6773 11.5852Q10.6773 11.8642 10.8817 12.0671Q11.086 12.2701 11.3649 12.2701ZM11.3649 15.013Q11.6438 15.013 11.8383 14.8114Q12.0328 14.6098 12.0328 14.3379Q12.0328 14.0395 11.8383 13.8401Q11.6438 13.6408 11.3649 13.6408Q11.086 13.6408 10.8817 13.8401Q10.6773 14.0395 10.6773 14.3379Q10.6773 14.6098 10.8817 14.8114Q11.086 15.013 11.3649 15.013ZM9.04297 16.0442Q9.32892 16.0442 9.52698 15.835Q9.72504 15.6258 9.72504 15.347Q9.72504 15.061 9.52698 14.8616Q9.32892 14.6622 9.04297 14.6622Q8.77106 14.6622 8.5717 14.8616Q8.37234 15.061 8.37234 15.347Q8.37234 15.6258 8.5717 15.835Q8.77106 16.0442 9.04297 16.0442ZM6.72546 15.013Q7.00424 15.013 7.20856 14.8114Q7.41287 14.6098 7.41287 14.3379Q7.41287 14.0395 7.20856 13.8401Q7.00424 13.6408 6.72546 13.6408Q6.44653 13.6408 6.25198 13.8401Q6.05743 14.0395 6.05743 14.3379Q6.05743 14.6098 6.25198 14.8114Q6.44653 15.013 6.72546 15.013ZM6.72546 12.2701Q7.00424 12.2701 7.20856 12.0671Q7.41287 11.8642 7.41287 11.5852Q7.41287 11.3133 7.20856 11.1104Q7.00424 10.9075 6.72546 10.9075Q6.44653 10.9075 6.25198 11.1104Q6.05743 11.3133 6.05743 11.5852Q6.05743 11.8642 6.25198 12.0671Q6.44653 12.2701 6.72546 12.2701ZM9.04297 13.6485Q9.32892 13.6485 9.52698 13.4491Q9.72504 13.2497 9.72504 12.9637Q9.72504 12.6848 9.52698 12.4854Q9.32892 12.2859 9.04297 12.2859Q8.77106 12.2859 8.5717 12.4854Q8.37234 12.6848 8.37234 12.9637Q8.37234 13.2497 8.5717 13.4491Q8.77106 13.6485 9.04297 13.6485ZM18.6945 5.06227L18.92 4.36692L5.54184 0.0200004Q5.39368-0.0285226 5.25894 0.040676Q5.12421 0.109875 5.07584 0.260631Q5.03433 0.394604 5.10345 0.529339Q5.17258 0.664074 5.3093 0.715343ZM2.63046 21.5993L20.0243 21.5993Q21.3281 21.5993 21.9949 20.9268Q22.6617 20.2544 22.6617 18.9754L22.6617 6.93635Q22.6617 5.66453 21.9949 4.98719Q21.3281 4.30986 20.0243 4.30986L2.63046 4.30986Q1.33636 4.30986 0.668182 4.9788Q0 5.64775 0 6.93635L0 18.9754Q0 20.2684 0.668182 20.9338Q1.33636 21.5993 2.63046 21.5993ZM2.65701 20.8778Q1.7067 20.8778 1.21765 20.3866Q0.728607 19.8953 0.728607 18.9368L0.728607 6.97511Q0.728607 6.01655 1.21765 5.52743Q1.7067 5.03831 2.65701 5.03831L20.0047 5.03831Q20.9242 5.03831 21.4287 5.52743Q21.9331 6.01655 21.9331 6.97511L21.9331 18.9368Q21.9331 19.8953 21.4287 20.3866Q20.9242 20.8778 20.0047 20.8778Z" fill="#000000"/>
 </g>
</svg>
