<?xml version="1.0" encoding="UTF-8"?>
<!--Generator: Apple Native CoreSVG 175-->
<!DOCTYPE svg
PUBLIC "-//W3C//DTD SVG 1.1//EN"
       "http://www.w3.org/Graphics/SVG/1.1/DTD/svg11.dtd">
<svg version="1.1" xmlns="http://www.w3.org/2000/svg" xmlns:xlink="http://www.w3.org/1999/xlink" width="22.7832" height="17.3145">
 <g>
  <rect height="17.3145" opacity="0" width="22.7832" x="0" y="0"/>
  <path d="M7.59766 17.3145L15.1855 17.3145Q17.9102 17.3145 19.585 16.4697Q21.2598 15.625 22.0215 13.9453Q22.7832 12.2656 22.7832 9.77539L22.7832 2.65625Q22.7832 1.37695 22.1143 0.703125Q21.4453 0.0292969 20.1465 0.0292969L2.62695 0.0292969Q1.33789 0.0292969 0.668945 0.693359Q0 1.35742 0 2.65625L0 9.77539Q0 12.2656 0.766602 13.9453Q1.5332 15.625 3.20312 16.4697Q4.87305 17.3145 7.59766 17.3145ZM7.60742 16.582Q5.12695 16.582 3.6084 15.8203Q2.08984 15.0586 1.41113 13.5449Q0.732422 12.0312 0.732422 9.77539L0.732422 2.69531Q0.732422 0.761719 2.65625 0.761719L20.127 0.761719Q21.0449 0.761719 21.5479 1.24512Q22.0508 1.72852 22.0508 2.69531L22.0508 9.77539Q22.0508 12.0312 21.3721 13.5449Q20.6934 15.0586 19.1748 15.8203Q17.6562 16.582 15.1758 16.582ZM5.2832 13.1641Q5.45898 13.1641 5.55664 13.0566Q5.6543 12.9492 5.6543 12.7734L5.6543 9.57031L7.96875 9.57031L9.90234 12.9004Q9.99023 13.0469 10.0732 13.1055Q10.1562 13.1641 10.293 13.1641Q10.4395 13.1641 10.5322 13.0762Q10.625 12.9883 10.625 12.8418Q10.625 12.7051 10.5078 12.5195L8.70117 9.48242Q9.61914 9.28711 10.1562 8.61816Q10.6934 7.94922 10.6934 7.00195Q10.6934 5.84961 9.93652 5.13672Q9.17969 4.42383 7.95898 4.42383L5.26367 4.42383Q5.08789 4.42383 5 4.54102Q4.91211 4.6582 4.91211 4.84375L4.91211 12.7734Q4.91211 12.9492 5.01465 13.0566Q5.11719 13.1641 5.2832 13.1641ZM5.6543 8.93555L5.6543 5.07812L7.93945 5.07812Q8.83789 5.07812 9.39941 5.60547Q9.96094 6.13281 9.96094 7.00195Q9.96094 7.88086 9.39941 8.4082Q8.83789 8.93555 7.92969 8.93555ZM12.9297 13.1445L15.8008 13.1445Q17.207 13.1445 18.0225 12.5Q18.8379 11.8555 18.8379 10.7227Q18.8379 9.84375 18.3057 9.25781Q17.7734 8.67188 16.8848 8.55469L16.8848 8.50586Q17.5195 8.35938 17.9199 7.8125Q18.3203 7.26562 18.3203 6.5332Q18.3203 5.57617 17.6025 4.97559Q16.8848 4.375 15.7617 4.375L12.9297 4.375Q12.5488 4.375 12.5488 4.78516L12.5488 12.7344Q12.5488 13.1445 12.9297 13.1445ZM13.2812 8.32031L13.2812 5.00977L15.625 5.00977Q16.5527 5.00977 17.0654 5.44434Q17.5781 5.87891 17.5781 6.66016Q17.5781 7.39258 16.9873 7.85645Q16.3965 8.32031 15.4688 8.32031ZM13.2812 12.5098L13.2812 8.94531L15.9375 8.94531Q16.9238 8.94531 17.4951 9.42383Q18.0664 9.90234 18.0664 10.7324Q18.0664 12.5098 15.4785 12.5098Z" fill="#007aff"/>
 </g>
</svg>
