<?xml version="1.0" encoding="UTF-8"?>
<!--Generator: Apple Native CoreSVG 175-->
<!DOCTYPE svg
PUBLIC "-//W3C//DTD SVG 1.1//EN"
       "http://www.w3.org/Graphics/SVG/1.1/DTD/svg11.dtd">
<svg version="1.1" xmlns="http://www.w3.org/2000/svg" xmlns:xlink="http://www.w3.org/1999/xlink" width="28.3301" height="12.2943">
 <g>
  <rect height="12.2943" opacity="0" width="28.3301" x="0" y="0"/>
  <path d="M0 6.14227Q0 7.41852 0.479126 8.52867Q0.958252 9.63882 1.80061 10.4861Q2.64297 11.3333 3.75801 11.8089Q4.87305 12.2844 6.14227 12.2844L22.188 12.2844Q23.4641 12.2844 24.5791 11.8053Q25.6941 11.3263 26.5366 10.4826Q27.379 9.63882 27.8545 8.52509Q28.3301 7.41135 28.3301 6.14227Q28.3301 4.86603 27.8545 3.75099Q27.379 2.63596 26.5331 1.79359Q25.6871 0.951233 24.5721 0.475616Q23.457 0 22.188 0Q20.9187 0 19.8051 0.475616Q18.6914 0.951233 17.8442 1.7971Q16.9969 2.64297 16.5213 3.75809Q16.0457 4.8732 16.0457 6.14227Q16.0457 7.29065 16.4584 8.3342Q16.871 9.37775 17.623 10.2051Q18.3749 11.0324 19.4031 11.5356L8.93402 11.5356Q9.95514 11.0324 10.7071 10.2051Q11.459 9.37775 11.8717 8.3342Q12.2844 7.29065 12.2844 6.14227Q12.2844 4.86603 11.8088 3.75099Q11.3332 2.63596 10.4859 1.79359Q9.63867 0.951233 8.52501 0.475616Q7.41135 0 6.14227 0Q4.86603 0 3.7545 0.475616Q2.64297 0.951233 1.7971 1.7971Q0.951233 2.64297 0.475616 3.75809Q0 4.8732 0 6.14227ZM0.748901 6.13953Q0.748901 5.02243 1.16783 4.04625Q1.58676 3.07007 2.32971 2.32712Q3.07266 1.58417 4.05022 1.16165Q5.02777 0.739136 6.14487 0.739136Q7.25937 0.739136 8.23692 1.16165Q9.21448 1.58417 9.95392 2.32712Q10.6934 3.07007 11.1109 4.04625Q11.5285 5.02243 11.5285 6.13953Q11.5285 7.25677 11.1109 8.23288Q10.6934 9.20898 9.95392 9.95338Q9.21448 10.6978 8.23692 11.1167Q7.25937 11.5356 6.14487 11.5356Q5.02777 11.5356 4.05022 11.1167Q3.07266 10.6978 2.32971 9.95338Q1.58676 9.20898 1.16783 8.23288Q0.748901 7.25677 0.748901 6.13953ZM16.8016 6.13953Q16.8016 5.02243 17.2192 4.04625Q17.6367 3.07007 18.3775 2.32712Q19.1183 1.58417 20.0945 1.16165Q21.0707 0.739136 22.1852 0.739136Q23.3023 0.739136 24.2834 1.16165Q25.2644 1.58417 26.0039 2.32712Q26.7433 3.07007 27.1658 4.04625Q27.5883 5.02243 27.5883 6.13953Q27.5883 7.25677 27.1658 8.23288Q26.7433 9.20898 26.0039 9.95338Q25.2644 10.6978 24.2834 11.1167Q23.3023 11.5356 22.1852 11.5356Q21.0707 11.5356 20.0945 11.1167Q19.1183 10.6978 18.3775 9.95338Q17.6367 9.20898 17.2192 8.23288Q16.8016 7.25677 16.8016 6.13953Z" fill="#ffffff"/>
 </g>
</svg>
