<?xml version="1.0" encoding="UTF-8"?>
<!--Generator: Apple Native CoreSVG 175-->
<!DOCTYPE svg
PUBLIC "-//W3C//DTD SVG 1.1//EN"
       "http://www.w3.org/Graphics/SVG/1.1/DTD/svg11.dtd">
<svg version="1.1" xmlns="http://www.w3.org/2000/svg" xmlns:xlink="http://www.w3.org/1999/xlink" width="19.1602" height="19.1504">
 <g>
  <rect height="19.1504" opacity="0" width="19.1602" x="0" y="0"/>
  <path d="M9.57031 19.1406Q11.5527 19.1406 13.2861 18.3984Q15.0195 17.6562 16.3379 16.333Q17.6562 15.0098 18.4082 13.2764Q19.1602 11.543 19.1602 9.57031Q19.1602 7.59766 18.4082 5.86426Q17.6562 4.13086 16.3379 2.80762Q15.0195 1.48438 13.2861 0.742188Q11.5527 0 9.57031 0Q7.59766 0 5.86426 0.742188Q4.13086 1.48438 2.81738 2.80762Q1.50391 4.13086 0.751953 5.86426Q0 7.59766 0 9.57031Q0 11.543 0.74707 13.2764Q1.49414 15.0098 2.8125 16.333Q4.13086 17.6562 5.86914 18.3984Q7.60742 19.1406 9.57031 19.1406Z" fill="#000000"/>
  <path d="M9.58008 13.2812Q8.54492 13.2812 7.69531 12.7783Q6.8457 12.2754 6.34277 11.4258Q5.83984 10.5762 5.83984 9.54102Q5.83984 8.50586 6.34277 7.66113Q6.8457 6.81641 7.69531 6.31348Q8.54492 5.81055 9.58008 5.81055Q10.6152 5.81055 11.46 6.31348Q12.3047 6.81641 12.8125 7.66113Q13.3203 8.50586 13.3203 9.54102Q13.3203 10.5762 12.8125 11.4258Q12.3047 12.2754 11.46 12.7783Q10.6152 13.2812 9.58008 13.2812Z" fill="#ffffff"/>
 </g>
</svg>
