<?xml version="1.0" encoding="UTF-8"?>
<!--Generator: Apple Native CoreSVG 175-->
<!DOCTYPE svg
PUBLIC "-//W3C//DTD SVG 1.1//EN"
       "http://www.w3.org/Graphics/SVG/1.1/DTD/svg11.dtd">
<svg version="1.1" xmlns="http://www.w3.org/2000/svg" xmlns:xlink="http://www.w3.org/1999/xlink" width="15.779" height="20.6747">
 <g>
  <rect height="20.6747" opacity="0" width="15.779" x="0" y="0"/>
  <path d="M8.2489 20.181L8.2489 0.485687L7.53006 0.485687L7.53006 20.181ZM0 18.0399Q0 19.3411 0.665436 20.0079Q1.33087 20.6747 2.62665 20.6747L13.1523 20.6747Q14.4481 20.6747 15.1135 20.0079Q15.779 19.3411 15.779 18.0399L15.779 2.66296Q15.779 1.36459 15.1135 0.695038Q14.4481 0.0254822 13.1523 0.0254822L2.62665 0.0254822Q1.33087 0.0254822 0.665436 0.695038Q0 1.36459 0 2.66296ZM0.728607 18.0176L0.728607 2.68524Q0.728607 1.73492 1.21628 1.24443Q1.70395 0.753937 2.66251 0.753937L13.1165 0.753937Q14.075 0.753937 14.5627 1.24443Q15.0504 1.73492 15.0504 2.68524L15.0504 18.0176Q15.0504 18.968 14.5627 19.4571Q14.075 19.9461 13.1165 19.9461L2.66251 19.9461Q1.70395 19.9461 1.21628 19.4571Q0.728607 18.968 0.728607 18.0176Z" fill="#000000"/>
 </g>
</svg>
