<?xml version="1.0" encoding="UTF-8"?>
<!--Generator: Apple Native CoreSVG 175.5-->
<!DOCTYPE svg
PUBLIC "-//W3C//DTD SVG 1.1//EN"
       "http://www.w3.org/Graphics/SVG/1.1/DTD/svg11.dtd">
<svg version="1.1" xmlns="http://www.w3.org/2000/svg" xmlns:xlink="http://www.w3.org/1999/xlink" width="18.4766" height="24.248">
 <g>
  <rect height="24.248" opacity="0" width="18.4766" x="0" y="0"/>
  <path d="M3.06641 18.5156L15.4102 18.5156Q16.9531 18.5156 17.7148 17.7539Q18.4766 16.9922 18.4766 15.4883L18.4766 8.75977Q18.4766 7.24609 17.7148 6.48926Q16.9531 5.73242 15.4102 5.73242L3.06641 5.73242Q1.5332 5.73242 0.766602 6.48926Q0 7.24609 0 8.75977L0 15.4883Q0 17.002 0.766602 17.7588Q1.5332 18.5156 3.06641 18.5156ZM3.08594 16.9434Q2.35352 16.9434 1.96289 16.5527Q1.57227 16.1621 1.57227 15.4102L1.57227 8.83789Q1.57227 8.07617 1.96289 7.69043Q2.35352 7.30469 3.08594 7.30469L15.3906 7.30469Q16.1133 7.30469 16.5088 7.69043Q16.9043 8.07617 16.9043 8.83789L16.9043 15.4102Q16.9043 16.1621 16.5088 16.5527Q16.1133 16.9434 15.3906 16.9434Z" fill="#007aff"/>
  <path d="M7.30469 0Q6.73828 0 6.58203 0.405273Q6.42578 0.810547 6.74805 1.2793L8.59375 4.00391Q8.83789 4.35547 9.26758 4.36035Q9.69727 4.36523 9.94141 4.00391L11.7578 1.2793Q12.0605 0.830078 11.9092 0.415039Q11.7578 0 11.2012 0ZM7.30469 24.248L11.2012 24.248Q11.7578 24.248 11.9092 23.833Q12.0605 23.418 11.7578 22.9688L9.94141 20.2441Q9.69727 19.873 9.26758 19.8779Q8.83789 19.8828 8.59375 20.2441L6.74805 22.9688Q6.42578 23.4375 6.58203 23.8428Q6.73828 24.248 7.30469 24.248Z" fill="#007aff"/>
 </g>
</svg>
