<?xml version="1.0" encoding="UTF-8"?>
<!--Generator: Apple Native CoreSVG 175-->
<!DOCTYPE svg
PUBLIC "-//W3C//DTD SVG 1.1//EN"
       "http://www.w3.org/Graphics/SVG/1.1/DTD/svg11.dtd">
<svg version="1.1" xmlns="http://www.w3.org/2000/svg" xmlns:xlink="http://www.w3.org/1999/xlink" width="20.6508" height="22.5919">
 <g>
  <rect height="22.5919" opacity="0" width="20.6508" x="0" y="0"/>
  <path d="M2.61597 17.4156L5.48599 17.4156L5.48599 16.7075L2.62421 16.7075Q1.79413 16.7075 1.25862 16.1749Q0.723114 15.6422 0.723114 14.8427L0.723114 7.50198Q0.723114 6.6954 1.25862 6.16768Q1.79413 5.63995 2.62421 5.63995L5.48599 5.63995L5.48599 4.93164L2.61597 4.93164Q1.48666 4.93164 0.743332 5.62325Q0 6.31485 0 7.3703L0 14.977Q0 16.0297 0.743332 16.7226Q1.48666 17.4156 2.61597 17.4156ZM18.0278 17.4156Q19.1641 17.4156 19.9075 16.7226Q20.6508 16.0297 20.6508 14.977L20.6508 7.3703Q20.6508 6.31485 19.9075 5.62325Q19.1641 4.93164 18.0278 4.93164L15.1649 4.93164L15.1649 5.63995L18.0266 5.63995Q18.8567 5.63995 19.3922 6.16768Q19.9278 6.6954 19.9278 7.50198L19.9278 14.8427Q19.9278 15.6422 19.3922 16.1749Q18.8567 16.7075 18.0266 16.7075L15.1649 16.7075L15.1649 17.4156ZM10.3255 22.3445Q10.4582 22.3445 10.5894 22.2215L14.0031 18.8779Q14.088 18.7915 14.1515 18.711Q14.2149 18.6305 14.2149 18.5138Q14.2149 18.3586 14.1167 18.2666Q14.0184 18.1746 13.8536 18.1746Q13.7054 18.1746 13.5977 18.2797L12.4969 19.3832L10.6516 21.2578L10.6821 19.2262L10.6821 15.3004Q10.6821 15.1497 10.5756 15.0446Q10.4692 14.9394 10.3255 14.9394Q10.1746 14.9394 10.0668 15.0446Q9.95895 15.1497 9.95895 15.3004L9.95895 19.2262L9.99924 21.2578L8.14697 19.3832L7.05322 18.2797Q6.99921 18.2286 6.93283 18.2016Q6.86646 18.1746 6.79306 18.1746Q6.63513 18.1746 6.53557 18.2666Q6.436 18.3586 6.436 18.5138Q6.436 18.6305 6.49948 18.711Q6.56296 18.7915 6.64764 18.8779L10.0543 22.2215Q10.1262 22.2836 10.1864 22.3141Q10.2466 22.3445 10.3255 22.3445ZM10.3255 7.39807Q10.4692 7.39807 10.5756 7.29301Q10.6821 7.18796 10.6821 7.04681L10.6821 3.11844L10.6516 1.07971L12.4969 2.95425L13.5977 4.06479Q13.6488 4.11606 13.7131 4.14436Q13.7773 4.17267 13.8509 4.17267Q14.0157 4.17267 14.1153 4.07578Q14.2149 3.97888 14.2149 3.83087Q14.2149 3.71414 14.1515 3.63152Q14.088 3.54889 14.0031 3.4668L10.5894 0.123138Q10.4582 0 10.3255 0Q10.1855 0 10.0543 0.123138L6.64764 3.4668Q6.56296 3.54889 6.49948 3.63152Q6.436 3.71414 6.436 3.83087Q6.436 3.97888 6.53419 4.07578Q6.63239 4.17267 6.79031 4.17267Q6.94534 4.17267 7.05322 4.06479L8.14697 2.95425L9.99924 1.07971L9.95895 3.11844L9.95895 7.04681Q9.95895 7.18796 10.0668 7.29301Q10.1746 7.39807 10.3255 7.39807Z" fill="#ffffff"/>
 </g>
</svg>
