<?xml version="1.0" encoding="UTF-8"?>
<!--Generator: Apple Native CoreSVG 175-->
<!DOCTYPE svg
PUBLIC "-//W3C//DTD SVG 1.1//EN"
       "http://www.w3.org/Graphics/SVG/1.1/DTD/svg11.dtd">
<svg version="1.1" xmlns="http://www.w3.org/2000/svg" xmlns:xlink="http://www.w3.org/1999/xlink" width="23.4766" height="18.5645">
 <g>
  <rect height="18.5645" opacity="0" width="23.4766" x="0" y="0"/>
  <path d="M2.62695 14.6582L4.6875 14.6582L4.6875 13.9355L2.65625 13.9355Q1.70898 13.9355 1.2207 13.4424Q0.732422 12.9492 0.732422 12.002L0.732422 2.68555Q0.732422 1.72852 1.2207 1.23535Q1.70898 0.742188 2.65625 0.742188L16.0352 0.742188Q16.9531 0.742188 17.4658 1.23535Q17.9785 1.72852 17.9785 2.68555L17.9785 4.22852L18.7012 4.22852L18.7012 2.64648Q18.7012 1.36719 18.0322 0.693359Q17.3633 0.0195312 16.0645 0.0195312L2.62695 0.0195312Q1.33789 0.0195312 0.668945 0.683594Q0 1.34766 0 2.64648L0 12.0312Q0 13.3203 0.668945 13.9893Q1.33789 14.6582 2.62695 14.6582ZM7.00195 18.5645L20.8398 18.5645Q22.1387 18.5645 22.8076 17.8906Q23.4766 17.2168 23.4766 15.9375L23.4766 6.54297Q23.4766 5.27344 22.8076 4.59473Q22.1387 3.91602 20.8398 3.91602L7.00195 3.91602Q5.69336 3.91602 5.02441 4.58496Q4.35547 5.25391 4.35547 6.54297L4.35547 15.9375Q4.35547 17.2266 5.02441 17.8955Q5.69336 18.5645 7.00195 18.5645ZM7.02148 17.832Q6.06445 17.832 5.57617 17.3486Q5.08789 16.8652 5.08789 15.8984L5.08789 6.58203Q5.08789 5.63477 5.57617 5.1416Q6.06445 4.64844 7.02148 4.64844L20.8203 4.64844Q21.7383 4.64844 22.2461 5.1416Q22.7539 5.63477 22.7539 6.58203L22.7539 15.8984Q22.7539 16.8652 22.2461 17.3486Q21.7383 17.832 20.8203 17.832ZM7.16797 16.9629L20.6836 16.9629Q21.2793 16.9629 21.5869 16.6602Q21.8945 16.3574 21.8945 15.752L21.8945 6.72852Q21.8945 6.13281 21.5869 5.8252Q21.2793 5.51758 20.6836 5.51758L7.16797 5.51758Q6.57227 5.51758 6.26953 5.8252Q5.9668 6.13281 5.9668 6.72852L5.9668 15.752Q5.9668 16.3574 6.26953 16.6602Q6.57227 16.9629 7.16797 16.9629Z" fill="#000000"/>
 </g>
</svg>
