<?xml version="1.0" encoding="UTF-8"?>
<!--Generator: Apple Native CoreSVG 175-->
<!DOCTYPE svg
PUBLIC "-//W3C//DTD SVG 1.1//EN"
       "http://www.w3.org/Graphics/SVG/1.1/DTD/svg11.dtd">
<svg version="1.1" xmlns="http://www.w3.org/2000/svg" xmlns:xlink="http://www.w3.org/1999/xlink" width="23.8878" height="20.2027">
 <g>
  <rect height="20.2027" opacity="0" width="23.8878" x="0" y="0"/>
  <path d="M1.69434 14.6866Q1.91865 15.9601 2.69204 16.5002Q3.46543 17.0403 4.74015 16.8117L5.27604 16.7191L5.27604 15.9781L4.64356 16.0886Q3.71003 16.2578 3.13988 15.8609Q2.56974 15.4641 2.39792 14.525L0.783392 5.35862Q0.611578 4.40983 1.01121 3.84319Q1.41083 3.27656 2.35138 3.10749L15.5338 0.787084Q16.4366 0.634802 17.0186 1.0197Q17.6006 1.40461 17.7725 2.36057L18.2733 5.14606L19.0002 5.14606L18.4804 2.19883Q18.2518 0.932348 17.4806 0.387457Q16.7093-0.157435 15.4303 0.0639703L2.19636 2.40116Q0.917364 2.62531 0.380254 3.39878Q-0.156855 4.17225 0.0647027 5.44575ZM7.40693 19.3843L21.2601 19.3843Q22.5514 19.3843 23.2196 18.7084Q23.8878 18.0324 23.8878 16.7578L23.8878 7.36606Q23.8878 6.09409 23.2196 5.41675Q22.5514 4.73942 21.2601 4.73942L7.40693 4.73942Q6.11008 4.73942 5.44327 5.40836Q4.77646 6.07731 4.77646 7.36606L4.77646 16.7578Q4.77646 18.0465 5.44327 18.7154Q6.11008 19.3843 7.40693 19.3843ZM7.43348 18.6559Q6.48316 18.6559 5.99404 18.1681Q5.50492 17.6804 5.50492 16.7218L5.50492 7.40467Q5.50492 6.45313 5.99404 5.96058Q6.48316 5.46802 7.43348 5.46802L21.2308 5.46802Q22.1503 5.46802 22.6582 5.96058Q23.1662 6.45313 23.1662 7.40467L23.1662 16.7218Q23.1662 17.6804 22.6582 18.1681Q22.1503 18.6559 21.2308 18.6559Z" fill="#000000"/>
 </g>
</svg>
