<?xml version="1.0" encoding="UTF-8"?>
<!--Generator: Apple Native CoreSVG 175-->
<!DOCTYPE svg
PUBLIC "-//W3C//DTD SVG 1.1//EN"
       "http://www.w3.org/Graphics/SVG/1.1/DTD/svg11.dtd">
<svg version="1.1" xmlns="http://www.w3.org/2000/svg" xmlns:xlink="http://www.w3.org/1999/xlink" width="19.1602" height="19.1504">
 <g>
  <rect height="19.1504" opacity="0" width="19.1602" x="0" y="0"/>
  <path d="M9.57031 19.1406Q11.5527 19.1406 13.2861 18.3984Q15.0195 17.6562 16.3379 16.333Q17.6562 15.0098 18.4082 13.2764Q19.1602 11.543 19.1602 9.57031Q19.1602 7.59766 18.4082 5.86426Q17.6562 4.13086 16.3379 2.80762Q15.0195 1.48438 13.2861 0.742188Q11.5527 0 9.57031 0Q7.59766 0 5.86426 0.742188Q4.13086 1.48438 2.81738 2.80762Q1.50391 4.13086 0.751953 5.86426Q0 7.59766 0 9.57031Q0 11.543 0.74707 13.2764Q1.49414 15.0098 2.8125 16.333Q4.13086 17.6562 5.86914 18.3984Q7.60742 19.1406 9.57031 19.1406Z" fill="#000000"/>
  <path d="M7.12891 14.0527Q6.5332 14.0527 6.23047 13.75Q5.92773 13.4473 5.92773 12.8613L5.92773 8.06641Q5.92773 7.49023 6.23047 7.18262Q6.5332 6.875 7.12891 6.875L14.1113 6.875Q14.6973 6.875 15.0049 7.18262Q15.3125 7.49023 15.3125 8.06641L15.3125 12.8613Q15.3125 13.4473 15.0049 13.75Q14.6973 14.0527 14.1113 14.0527ZM5.53711 8.04688L5.53711 12.1289L5.03906 12.1289Q4.45312 12.1289 4.15039 11.8213Q3.84766 11.5137 3.84766 10.9375L3.84766 6.15234Q3.84766 5.56641 4.15039 5.26367Q4.45312 4.96094 5.03906 4.96094L12.0312 4.96094Q12.627 4.96094 12.9248 5.26855Q13.2227 5.57617 13.2227 6.15234L13.2227 6.49414L7.08008 6.48438Q6.31836 6.48438 5.92773 6.88477Q5.53711 7.28516 5.53711 8.04688Z" fill="#ffffff"/>
 </g>
</svg>
