<?xml version="1.0" encoding="UTF-8"?>
<!--Generator: Apple Native CoreSVG 175-->
<!DOCTYPE svg
PUBLIC "-//W3C//DTD SVG 1.1//EN"
       "http://www.w3.org/Graphics/SVG/1.1/DTD/svg11.dtd">
<svg version="1.1" xmlns="http://www.w3.org/2000/svg" xmlns:xlink="http://www.w3.org/1999/xlink" width="22.6617" height="17.3035">
 <g>
  <rect height="17.3035" opacity="0" width="22.6617" x="0" y="0"/>
  <path d="M5.76843 13.5176L16.8933 13.5176Q17.4995 13.5176 17.7853 13.2353Q18.0711 12.953 18.0711 12.3413L18.0711 4.95773Q18.0711 4.34601 17.7853 4.05891Q17.4995 3.77182 16.8933 3.77182L5.76843 3.77182Q5.15503 3.77182 4.87282 4.05891Q4.59061 4.34601 4.59061 4.95773L4.59061 12.3413Q4.59061 12.953 4.87282 13.2353Q5.15503 13.5176 5.76843 13.5176ZM2.63046 17.2894L20.0243 17.2894Q21.3281 17.2894 21.9949 16.617Q22.6617 15.9445 22.6617 14.6655L22.6617 2.6265Q22.6617 1.35468 21.9949 0.677338Q21.3281 0 20.0243 0L2.63046 0Q1.33636 0 0.668182 0.668945Q0 1.33789 0 2.6265L0 14.6655Q0 15.9586 0.668182 16.624Q1.33636 17.2894 2.63046 17.2894ZM2.65701 16.568Q1.7067 16.568 1.21765 16.0767Q0.728607 15.5855 0.728607 14.6269L0.728607 2.66525Q0.728607 1.7067 1.21765 1.21758Q1.7067 0.728455 2.65701 0.728455L20.0047 0.728455Q20.9242 0.728455 21.4287 1.21758Q21.9331 1.7067 21.9331 2.66525L21.9331 14.6269Q21.9331 15.5855 21.4287 16.0767Q20.9242 16.568 20.0047 16.568Z" fill="#ffffff"/>
 </g>
</svg>
