<?xml version="1.0" encoding="UTF-8"?>
<!--Generator: Apple Native CoreSVG 175-->
<!DOCTYPE svg
PUBLIC "-//W3C//DTD SVG 1.1//EN"
       "http://www.w3.org/Graphics/SVG/1.1/DTD/svg11.dtd">
<svg version="1.1" xmlns="http://www.w3.org/2000/svg" xmlns:xlink="http://www.w3.org/1999/xlink" width="26.9099" height="17.1765">
 <g>
  <rect height="17.1765" opacity="0" width="26.9099" x="0" y="0"/>
  <path d="M2.25388 17.1431L20.9059 17.1431Q21.9664 17.1431 22.5631 16.5484Q23.1598 15.9537 23.1598 14.9002L23.1598 7.12556L22.4384 7.85417L22.4384 14.908Q22.4384 15.6542 22.036 16.0529Q21.6336 16.4517 20.8876 16.4517L2.27234 16.4517Q1.52618 16.4517 1.1274 16.0529Q0.728607 15.6542 0.728607 14.908L0.728607 7.24351Q0.728607 5.69276 2.27234 5.69276L17.7403 5.69276L18.4204 5.01542L2.25388 5.01542Q1.19339 5.01542 0.596695 5.60525Q0 6.19508 0 7.25831L0 14.9002Q0 15.9537 0.596695 16.5484Q1.19339 17.1431 2.25388 17.1431ZM4.69345 12.1861Q5.15701 12.1861 5.47928 11.8604Q5.80154 11.5346 5.80154 11.0639Q5.80154 10.6072 5.47928 10.2814Q5.15701 9.95561 4.69345 9.95561Q4.22272 9.95561 3.89343 10.2814Q3.56415 10.6072 3.56415 11.0639Q3.56415 11.5346 3.89343 11.8604Q4.22272 12.1861 4.69345 12.1861ZM8.52966 12.1861Q8.99338 12.1861 9.31915 11.8604Q9.64493 11.5346 9.64493 11.0639Q9.64493 10.6072 9.31915 10.2814Q8.99338 9.95561 8.52966 9.95561Q8.0661 9.95561 7.74033 10.2814Q7.41455 10.6072 7.41455 11.0639Q7.41455 11.5346 7.74033 11.8604Q8.0661 12.1861 8.52966 12.1861ZM12.373 12.1861Q12.8297 12.1861 13.1625 11.8604Q13.4953 11.5346 13.4953 11.0639Q13.4953 10.6072 13.1625 10.2814Q12.8297 9.95561 12.373 9.95561Q11.9025 9.95561 11.5766 10.2814Q11.2508 10.6072 11.2508 11.0639Q11.2508 11.5346 11.5766 11.8604Q11.9025 12.1861 12.373 12.1861ZM15.5388 11.5083L17.2426 10.6154L25.4103 2.47163L24.427 1.47981L16.265 9.62358L15.3485 11.3083Q15.2942 11.4072 15.3727 11.4849Q15.4512 11.5627 15.5388 11.5083ZM26.0063 1.87287L26.6403 1.24314Q26.9012 0.986491 26.9096 0.747234Q26.918 0.507976 26.6782 0.268108L26.6055 0.188457Q26.3992-0.0178421 26.1424 0.00168919Q25.8856 0.0212204 25.6555 0.244304L25.0215 0.868541Z" fill="#007aff"/>
 </g>
</svg>
