<?xml version="1.0" encoding="UTF-8"?>
<!--Generator: Apple Native CoreSVG 175.5-->
<!DOCTYPE svg
PUBLIC "-//W3C//DTD SVG 1.1//EN"
       "http://www.w3.org/Graphics/SVG/1.1/DTD/svg11.dtd">
<svg version="1.1" xmlns="http://www.w3.org/2000/svg" xmlns:xlink="http://www.w3.org/1999/xlink" width="23.6133" height="17.998">
 <g>
  <rect height="17.998" opacity="0" width="23.6133" x="0" y="0"/>
  <path d="M8.39844 0.0195312Q5.48828 0.0195312 3.63281 0.913086Q1.77734 1.80664 0.888672 3.61328Q0 5.41992 0 8.1543L0 14.9707Q0 16.4844 0.766602 17.2412Q1.5332 17.998 3.06641 17.998L20.5469 17.998Q22.0801 17.998 22.8467 17.2412Q23.6133 16.4844 23.6133 14.9707L23.6133 8.1543Q23.6133 5.41992 22.7295 3.61328Q21.8457 1.80664 19.9854 0.913086Q18.125 0.0195312 15.2246 0.0195312ZM8.39844 1.61133L15.2148 1.61133Q17.5879 1.61133 19.0967 2.30957Q20.6055 3.00781 21.3232 4.44336Q22.041 5.87891 22.041 8.06641L22.041 14.8926Q22.041 15.6543 21.6455 16.04Q21.25 16.4258 20.5273 16.4258L3.08594 16.4258Q1.57227 16.4258 1.57227 14.8926L1.57227 8.06641Q1.57227 5.87891 2.29004 4.44336Q3.00781 3.00781 4.5166 2.30957Q6.02539 1.61133 8.39844 1.61133Z" fill="#007aff"/>
 </g>
</svg>
