<?xml version="1.0" encoding="UTF-8"?>
<!--Generator: Apple Native CoreSVG 175.5-->
<!DOCTYPE svg
PUBLIC "-//W3C//DTD SVG 1.1//EN"
       "http://www.w3.org/Graphics/SVG/1.1/DTD/svg11.dtd">
<svg version="1.1" xmlns="http://www.w3.org/2000/svg" xmlns:xlink="http://www.w3.org/1999/xlink" width="19.7852" height="24.3066">
 <g>
  <rect height="24.3066" opacity="0" width="19.7852" x="0" y="0"/>
  <path d="M3.18359 7.89062Q3.18359 6.50391 3.70117 5.51758Q4.21875 4.53125 5.19043 4.01367Q6.16211 3.49609 7.54883 3.49609L15.2637 3.49609L15.2637 3.06641Q15.2637 1.5332 14.5068 0.766602Q13.75 0 12.2363 0L3.02734 0Q1.51367 0 0.756836 0.766602Q0 1.5332 0 3.06641L0 16.2988Q0 17.832 0.756836 18.5986Q1.51367 19.3652 3.02734 19.3652L3.18359 19.3652Z" fill="#007aff"/>
  <path d="M19.7852 7.89062Q19.7852 6.35742 19.0283 5.59082Q18.2715 4.82422 16.7578 4.82422L7.54883 4.82422Q6.03516 4.82422 5.27832 5.59082Q4.52148 6.35742 4.52148 7.89062L4.52148 21.2305Q4.52148 22.7637 5.27832 23.5303Q6.03516 24.2969 7.54883 24.2969L16.7578 24.2969Q18.2617 24.2969 19.0234 23.5303Q19.7852 22.7637 19.7852 21.2305Z" fill="#007aff"/>
 </g>
</svg>
