<?xml version="1.0" encoding="UTF-8"?>
<!--Generator: Apple Native CoreSVG 175.5-->
<!DOCTYPE svg
PUBLIC "-//W3C//DTD SVG 1.1//EN"
       "http://www.w3.org/Graphics/SVG/1.1/DTD/svg11.dtd">
<svg version="1.1" xmlns="http://www.w3.org/2000/svg" xmlns:xlink="http://www.w3.org/1999/xlink" width="23.0273" height="17.9785">
 <g>
  <rect height="17.9785" opacity="0" width="23.0273" x="0" y="0"/>
  <path d="M3.06641 17.9785L19.9609 17.9785Q21.5039 17.9785 22.2656 17.2217Q23.0273 16.4648 23.0273 14.9609L23.0273 3.02734Q23.0273 1.52344 22.2656 0.761719Q21.5039 0 19.9609 0L3.06641 0Q1.5332 0 0.766602 0.756836Q0 1.51367 0 3.02734L0 14.9609Q0 16.4648 0.766602 17.2217Q1.5332 17.9785 3.06641 17.9785ZM3.08594 16.4062Q2.35352 16.4062 1.96289 16.0205Q1.57227 15.6348 1.57227 14.873L1.57227 3.11523Q1.57227 2.35352 1.96289 1.96289Q2.35352 1.57227 3.08594 1.57227L19.9414 1.57227Q20.6641 1.57227 21.0596 1.96289Q21.4551 2.35352 21.4551 3.11523L21.4551 14.873Q21.4551 15.6348 21.0596 16.0205Q20.6641 16.4062 19.9414 16.4062Z" fill="#007aff"/>
  <path d="M12.373 15.0781L19.2676 15.0781Q19.7266 15.0781 19.9268 14.873Q20.127 14.668 20.127 14.1992L20.127 9.86328Q20.127 9.39453 19.9268 9.18945Q19.7266 8.98438 19.2676 8.98438L12.373 8.98438Q11.9141 8.98438 11.7139 9.18945Q11.5137 9.39453 11.5137 9.86328L11.5137 14.1992Q11.5137 14.668 11.7139 14.873Q11.9141 15.0781 12.373 15.0781Z" fill="#007aff"/>
 </g>
</svg>
