<?xml version="1.0" encoding="UTF-8"?>
<!--Generator: Apple Native CoreSVG 175.5-->
<!DOCTYPE svg
PUBLIC "-//W3C//DTD SVG 1.1//EN"
       "http://www.w3.org/Graphics/SVG/1.1/DTD/svg11.dtd">
<svg version="1.1" xmlns="http://www.w3.org/2000/svg" xmlns:xlink="http://www.w3.org/1999/xlink" width="23.0273" height="18.2129">
 <g>
  <rect height="18.2129" opacity="0" width="23.0273" x="0" y="0"/>
  <path d="M3.06641 18.2129L19.9609 18.2129Q21.5039 18.2129 22.2656 17.4561Q23.0273 16.6992 23.0273 15.1855L23.0273 3.26172Q23.0273 1.74805 22.2656 0.991211Q21.5039 0.234375 19.9609 0.234375L3.06641 0.234375Q1.5332 0.234375 0.766602 0.991211Q0 1.74805 0 3.26172L0 15.1855Q0 16.6992 0.766602 17.4561Q1.5332 18.2129 3.06641 18.2129ZM3.08594 16.6406Q2.35352 16.6406 1.96289 16.25Q1.57227 15.8594 1.57227 15.1074L1.57227 3.33984Q1.57227 2.57812 1.96289 2.19238Q2.35352 1.80664 3.08594 1.80664L19.9414 1.80664Q20.6641 1.80664 21.0596 2.19238Q21.4551 2.57812 21.4551 3.33984L21.4551 15.1074Q21.4551 15.8594 21.0596 16.25Q20.6641 16.6406 19.9414 16.6406Z" fill="#007aff"/>
  <path d="M3.75977 9.10156L10.6543 9.10156Q11.1133 9.10156 11.3135 8.89648Q11.5137 8.69141 11.5137 8.22266L11.5137 3.90625Q11.5137 3.4375 11.3135 3.23242Q11.1133 3.02734 10.6543 3.02734L3.75977 3.02734Q3.30078 3.02734 3.10547 3.23242Q2.91016 3.4375 2.91016 3.90625L2.91016 8.22266Q2.91016 8.69141 3.10547 8.89648Q3.30078 9.10156 3.75977 9.10156Z" fill="#007aff"/>
 </g>
</svg>
