<?xml version="1.0" encoding="UTF-8"?>
<!--Generator: Apple Native CoreSVG 175-->
<!DOCTYPE svg
PUBLIC "-//W3C//DTD SVG 1.1//EN"
       "http://www.w3.org/Graphics/SVG/1.1/DTD/svg11.dtd">
<svg version="1.1" xmlns="http://www.w3.org/2000/svg" xmlns:xlink="http://www.w3.org/1999/xlink" width="21.9906" height="18.3136">
 <g>
  <rect height="18.3136" opacity="0" width="21.9906" x="0" y="0"/>
  <path d="M5.36728 2.66556L5.36728 15.6761Q5.36728 16.9774 6.04111 17.6455Q6.71494 18.3136 7.99377 18.3136L14.0016 18.3136Q15.2734 18.3136 15.946 17.6455Q16.6185 16.9774 16.6185 15.6761L16.6185 2.66556Q16.6185 1.36169 15.9531 0.694885Q15.2876 0.0280762 14.0016 0.0280762L7.99377 0.0280762Q6.69815 0.0280762 6.03271 0.694885Q5.36728 1.36169 5.36728 2.66556ZM6.09573 2.68509Q6.09573 1.73477 6.58478 1.24573Q7.07382 0.756683 8.03253 0.756683L13.963 0.756683Q14.9146 0.756683 15.4057 1.24573Q15.8969 1.73477 15.8969 2.68509L15.8969 15.6566Q15.8969 16.5761 15.4057 17.0806Q14.9146 17.5851 13.963 17.5851L8.03253 17.5851Q7.07382 17.5851 6.58478 17.0806Q6.09573 16.5761 6.09573 15.6566ZM19.254 11.4113L21.6693 9.79446Q21.9954 9.57138 21.9905 9.19312Q21.9856 8.81485 21.6693 8.59177L19.254 6.94992Q18.8416 6.66992 18.482 6.81343Q18.1224 6.95694 18.1224 7.46017L18.1224 10.9137Q18.1224 11.3972 18.4882 11.5381Q18.8541 11.6789 19.254 11.4113ZM2.73438 11.4113Q3.13446 11.6789 3.5038 11.5381Q3.87314 11.3972 3.87314 10.9137L3.87314 7.46017Q3.87314 6.95694 3.51357 6.81343Q3.15399 6.66992 2.73438 6.94992L0.326233 8.59177Q0 8.81485 0 9.19312Q0 9.57138 0.326233 9.79446Z" fill="#007aff"/>
 </g>
</svg>
