<?xml version="1.0" encoding="UTF-8"?>
<!--Generator: Apple Native CoreSVG 175-->
<!DOCTYPE svg
PUBLIC "-//W3C//DTD SVG 1.1//EN"
       "http://www.w3.org/Graphics/SVG/1.1/DTD/svg11.dtd">
<svg version="1.1" xmlns="http://www.w3.org/2000/svg" xmlns:xlink="http://www.w3.org/1999/xlink" width="21.0297" height="17.323">
 <g>
  <rect height="17.323" opacity="0" width="21.0297" x="0" y="0"/>
  <path d="M1.3942 7.80228L8.2399 7.80228Q8.92151 7.80228 9.27773 7.46574Q9.63394 7.12921 9.63394 6.3945L9.63394 1.4386Q9.63394 0.703888 9.27773 0.368729Q8.92151 0.0335693 8.2399 0.0335693L1.3942 0.0335693Q0.712585 0.0335693 0.356293 0.368729Q0 0.703888 0 1.4386L0 6.3945Q0 7.12921 0.356293 7.46574Q0.712585 7.80228 1.3942 7.80228ZM12.7899 7.80228L19.6286 7.80228Q20.3102 7.80228 20.6699 7.46574Q21.0297 7.12921 21.0297 6.3945L21.0297 1.4386Q21.0297 0.703888 20.6699 0.368729Q20.3102 0.0335693 19.6286 0.0335693L12.7899 0.0335693Q12.1082 0.0335693 11.7519 0.368729Q11.3957 0.703888 11.3957 1.4386L11.3957 6.3945Q11.3957 7.12921 11.7519 7.46574Q12.1082 7.80228 12.7899 7.80228ZM1.3942 17.323L8.2399 17.323Q8.92151 17.323 9.27773 16.9878Q9.63394 16.6527 9.63394 15.918L9.63394 10.9593Q9.63394 10.2274 9.27773 9.89082Q8.92151 9.55429 8.2399 9.55429L1.3942 9.55429Q0.712585 9.55429 0.356293 9.89082Q0 10.2274 0 10.9593L0 15.918Q0 16.6527 0.356293 16.9878Q0.712585 17.323 1.3942 17.323ZM12.7899 17.323L19.6286 17.323Q20.3102 17.323 20.6699 16.9878Q21.0297 16.6527 21.0297 15.918L21.0297 10.9593Q21.0297 10.2274 20.6699 9.89082Q20.3102 9.55429 19.6286 9.55429L12.7899 9.55429Q12.1082 9.55429 11.7519 9.89082Q11.3957 10.2274 11.3957 10.9593L11.3957 15.918Q11.3957 16.6527 11.7519 16.9878Q12.1082 17.323 12.7899 17.323Z" fill="#ffffff"/>
 </g>
</svg>
