<?xml version="1.0" encoding="UTF-8"?>
<!--Generator: Apple Native CoreSVG 175.5-->
<!DOCTYPE svg
PUBLIC "-//W3C//DTD SVG 1.1//EN"
       "http://www.w3.org/Graphics/SVG/1.1/DTD/svg11.dtd">
<svg version="1.1" xmlns="http://www.w3.org/2000/svg" xmlns:xlink="http://www.w3.org/1999/xlink" width="23.0273" height="17.9785">
 <g>
  <rect height="17.9785" opacity="0" width="23.0273" x="0" y="0"/>
  <path d="M3.06641 17.9785L19.9609 17.9785Q21.5039 17.9785 22.2656 17.2217Q23.0273 16.4648 23.0273 14.9609L23.0273 3.02734Q23.0273 1.52344 22.2656 0.761719Q21.5039 0 19.9609 0L3.06641 0Q1.5332 0 0.766602 0.756836Q0 1.51367 0 3.02734L0 14.9609Q0 16.4648 0.766602 17.2217Q1.5332 17.9785 3.06641 17.9785ZM3.08594 16.4062Q2.35352 16.4062 1.96289 16.0205Q1.57227 15.6348 1.57227 14.873L1.57227 3.11523Q1.57227 2.35352 1.96289 1.96289Q2.35352 1.57227 3.08594 1.57227L19.9414 1.57227Q20.6641 1.57227 21.0596 1.96289Q21.4551 2.35352 21.4551 3.11523L21.4551 14.873Q21.4551 15.6348 21.0596 16.0205Q20.6641 16.4062 19.9414 16.4062Z" fill="#007aff"/>
  <path d="M3.75977 15.0781L10.6738 15.0781Q11.1328 15.0781 11.333 14.873Q11.5332 14.668 11.5332 14.1992L11.5332 3.78906Q11.5332 3.32031 11.333 3.11523Q11.1328 2.91016 10.6738 2.91016L3.75977 2.91016Q3.30078 2.91016 3.10547 3.11523Q2.91016 3.32031 2.91016 3.78906L2.91016 14.1992Q2.91016 14.668 3.10547 14.873Q3.30078 15.0781 3.75977 15.0781ZM19.7266 8.98438Q19.7266 8.7207 19.5312 8.52539Q19.3359 8.33008 19.082 8.33008L16.3477 8.33008L14.9023 8.37891L15.7129 7.60742L16.7676 6.57227Q16.9629 6.38672 16.9629 6.11328Q16.9629 5.84961 16.7969 5.67871Q16.6309 5.50781 16.377 5.50781Q16.2305 5.50781 16.1182 5.56641Q16.0059 5.625 15.9082 5.73242L13.3203 8.50586Q13.0957 8.74023 13.0957 8.98438Q13.0957 9.22852 13.3203 9.46289L15.9082 12.2363Q16.0059 12.3535 16.1182 12.4121Q16.2305 12.4707 16.377 12.4707Q16.6309 12.4707 16.7969 12.2998Q16.9629 12.1289 16.9629 11.8652Q16.9629 11.582 16.7676 11.4062L15.7129 10.3613L14.9023 9.58984L16.3477 9.64844L19.082 9.64844Q19.3359 9.64844 19.5264 9.44824Q19.7168 9.24805 19.7266 8.98438Z" fill="#007aff"/>
 </g>
</svg>
