<?xml version="1.0" encoding="UTF-8"?>
<!--Generator: Apple Native CoreSVG 175-->
<!DOCTYPE svg
PUBLIC "-//W3C//DTD SVG 1.1//EN"
       "http://www.w3.org/Graphics/SVG/1.1/DTD/svg11.dtd">
<svg version="1.1" xmlns="http://www.w3.org/2000/svg" xmlns:xlink="http://www.w3.org/1999/xlink" width="19.1602" height="19.1504">
 <g>
  <rect height="19.1504" opacity="0" width="19.1602" x="0" y="0"/>
  <path d="M9.57031 19.1406Q11.5527 19.1406 13.2861 18.3984Q15.0195 17.6562 16.3379 16.333Q17.6562 15.0098 18.4082 13.2764Q19.1602 11.543 19.1602 9.57031Q19.1602 7.59766 18.4082 5.86426Q17.6562 4.13086 16.3379 2.80762Q15.0195 1.48438 13.2861 0.742188Q11.5527 0 9.57031 0Q7.59766 0 5.86426 0.742188Q4.13086 1.48438 2.81738 2.80762Q1.50391 4.13086 0.751953 5.86426Q0 7.59766 0 9.57031Q0 11.543 0.74707 13.2764Q1.49414 15.0098 2.8125 16.333Q4.13086 17.6562 5.86914 18.3984Q7.60742 19.1406 9.57031 19.1406ZM9.57031 18.3984Q7.74414 18.3984 6.14746 17.71Q4.55078 17.0215 3.33496 15.8105Q2.11914 14.5996 1.43555 12.998Q0.751953 11.3965 0.751953 9.57031Q0.751953 7.74414 1.43555 6.14258Q2.11914 4.54102 3.33496 3.3252Q4.55078 2.10938 6.14746 1.4209Q7.74414 0.732422 9.57031 0.732422Q11.4062 0.732422 13.0029 1.4209Q14.5996 2.10938 15.8154 3.3252Q17.0312 4.54102 17.7197 6.14258Q18.4082 7.74414 18.4082 9.57031Q18.4082 11.3965 17.7246 12.998Q17.041 14.5996 15.8252 15.8105Q14.6094 17.0215 13.0078 17.71Q11.4062 18.3984 9.57031 18.3984ZM14.5898 14.8828Q14.6777 14.9707 14.7998 14.9756Q14.9219 14.9805 15.0098 14.8828Q15.0977 14.7852 15.0977 14.668Q15.0977 14.5508 15.0098 14.4629L4.75586 4.19922Q4.6582 4.11133 4.53613 4.11133Q4.41406 4.11133 4.33594 4.19922Q4.23828 4.28711 4.24316 4.4043Q4.24805 4.52148 4.33594 4.60938ZM7.14844 14.043L13.0566 14.043L6.25977 7.24609Q5.95703 7.5293 5.95703 8.0957L5.95703 12.8613Q5.95703 13.4375 6.25977 13.7402Q6.5625 14.043 7.14844 14.043ZM14.9121 13.6719Q15.0879 13.5352 15.1855 13.3105Q15.2832 13.0859 15.2832 12.7734L15.2832 8.0957Q15.2832 7.51953 14.9805 7.2168Q14.6777 6.91406 14.0918 6.91406L8.16406 6.91406ZM3.89648 10.9473Q3.89648 11.5234 4.19922 11.8311Q4.50195 12.1387 5.08789 12.1387L5.57617 12.1387L5.57617 8.07617Q5.57617 7.31445 5.95703 6.94336L4.27734 5.25391Q3.89648 5.53711 3.89648 6.20117ZM7.77344 6.52344L13.2227 6.5332L13.2227 6.20117Q13.2227 5.61523 12.9248 5.3125Q12.627 5.00977 12.0312 5.00977L6.25977 5.00977Z" fill="#000000"/>
 </g>
</svg>
