<?xml version="1.0" encoding="UTF-8"?>
<!--Generator: Apple Native CoreSVG 175.5-->
<!DOCTYPE svg
PUBLIC "-//W3C//DTD SVG 1.1//EN"
       "http://www.w3.org/Graphics/SVG/1.1/DTD/svg11.dtd">
<svg version="1.1" xmlns="http://www.w3.org/2000/svg" xmlns:xlink="http://www.w3.org/1999/xlink" width="16.4258" height="20.9473">
 <g>
  <rect height="20.9473" opacity="0" width="16.4258" x="0" y="0"/>
  <path d="M0 17.8809Q0 19.4141 0.756836 20.1758Q1.51367 20.9375 3.02734 20.9375L13.3984 20.9375Q14.9121 20.9375 15.6689 20.1758Q16.4258 19.4141 16.4258 17.8809L16.4258 3.06641Q16.4258 1.54297 15.6689 0.771484Q14.9121 0 13.3984 0L3.02734 0Q1.51367 0 0.756836 0.771484Q0 1.54297 0 3.06641ZM1.57227 17.8516L1.57227 3.0957Q1.57227 2.36328 1.95801 1.96777Q2.34375 1.57227 3.10547 1.57227L13.3203 1.57227Q14.082 1.57227 14.4678 1.96777Q14.8535 2.36328 14.8535 3.0957L14.8535 17.8516Q14.8535 18.584 14.4678 18.9746Q14.082 19.3652 13.3203 19.3652L3.10547 19.3652Q2.34375 19.3652 1.95801 18.9746Q1.57227 18.584 1.57227 17.8516Z" fill="#007aff"/>
  <path d="M4.41406 5.57617L4.41406 15.3711Q4.41406 15.8789 4.64355 16.1084Q4.87305 16.3379 5.40039 16.3379L11.0254 16.3379Q11.5527 16.3379 11.7822 16.1084Q12.0117 15.8789 12.0117 15.3711L12.0117 5.57617Q12.0117 5.06836 11.7822 4.83887Q11.5527 4.60938 11.0254 4.60938L5.40039 4.60938Q4.87305 4.60938 4.64355 4.83887Q4.41406 5.06836 4.41406 5.57617Z" fill="#007aff"/>
 </g>
</svg>
