<?xml version="1.0" encoding="UTF-8"?>
<!--Generator: Apple Native CoreSVG 175-->
<!DOCTYPE svg
PUBLIC "-//W3C//DTD SVG 1.1//EN"
       "http://www.w3.org/Graphics/SVG/1.1/DTD/svg11.dtd">
<svg version="1.1" xmlns="http://www.w3.org/2000/svg" xmlns:xlink="http://www.w3.org/1999/xlink" width="21.5199" height="20.6747">
 <g>
  <rect height="20.6747" opacity="0" width="21.5199" x="0" y="0"/>
  <path d="M2.62665 20.6747L13.1523 20.6747Q14.4481 20.6747 15.1135 20.0079Q15.779 19.3411 15.779 18.0399L15.779 13.1149L15.0504 13.1149L15.0504 18.0176Q15.0504 18.968 14.5627 19.4571Q14.075 19.9461 13.1165 19.9461L2.66251 19.9461Q1.70395 19.9461 1.21628 19.4571Q0.728607 18.968 0.728607 18.0176L0.728607 2.68524Q0.728607 1.73492 1.21628 1.24443Q1.70395 0.753937 2.66251 0.753937L13.1165 0.753937Q14.075 0.753937 14.5627 1.24443Q15.0504 1.73492 15.0504 2.68524L15.0504 7.57111L15.779 7.57111L15.779 2.66296Q15.779 1.36459 15.1135 0.695038Q14.4481 0.0254822 13.1523 0.0254822L2.62665 0.0254822Q1.33087 0.0254822 0.665436 0.695038Q0 1.36459 0 2.66296L0 18.0399Q0 19.3411 0.665436 20.0079Q1.33087 20.6747 2.62665 20.6747ZM7.9364 10.6891L19.0906 10.6891L20.45 10.6657L19.2786 11.8219L17.3688 13.7184Q17.2469 13.8321 17.2469 13.9716Q17.2469 14.1055 17.3459 14.2052Q17.4449 14.3048 17.5789 14.3048Q17.7075 14.3048 17.8152 14.1997L21.4067 10.5896Q21.4688 10.5273 21.4944 10.4645Q21.5199 10.4016 21.5199 10.3325Q21.5199 10.2634 21.4944 10.2004Q21.4688 10.1375 21.4067 10.0754L17.8152 6.45828Q17.7075 6.3504 17.5789 6.3504Q17.4449 6.3504 17.3459 6.44165Q17.2469 6.5329 17.2469 6.67389Q17.2469 6.82312 17.3688 6.9368L19.2786 8.82904L20.457 9.99222L19.0906 9.96613L7.9364 9.96613Q7.78839 9.96613 7.68326 10.0739Q7.57812 10.1817 7.57812 10.3325Q7.57812 10.4762 7.68326 10.5827Q7.78839 10.6891 7.9364 10.6891Z" fill="#000000"/>
 </g>
</svg>
