<?xml version="1.0" encoding="UTF-8"?>
<!--Generator: Apple Native CoreSVG 175-->
<!DOCTYPE svg
PUBLIC "-//W3C//DTD SVG 1.1//EN"
       "http://www.w3.org/Graphics/SVG/1.1/DTD/svg11.dtd">
<svg version="1.1" xmlns="http://www.w3.org/2000/svg" xmlns:xlink="http://www.w3.org/1999/xlink" width="23.4813" height="18.566">
 <g>
  <rect height="18.566" opacity="0" width="23.4813" x="0" y="0"/>
  <path d="M2.63046 14.6562L4.68674 14.6562L4.68674 13.9348L2.65701 13.9348Q1.7067 13.9348 1.21765 13.4435Q0.728607 12.9523 0.728607 12.0007L0.728607 2.68356Q0.728607 1.72501 1.21765 1.23596Q1.7067 0.746918 2.65701 0.746918L16.0374 0.746918Q16.9571 0.746918 17.4664 1.23596Q17.9758 1.72501 17.9758 2.68356L17.9758 4.22531L18.7044 4.22531L18.7044 2.64496Q18.7044 1.36597 18.0348 0.692139Q17.3653 0.0183105 16.0667 0.0183105L2.63046 0.0183105Q1.33636 0.0183105 0.668182 0.683746Q0 1.34918 0 2.64496L0 12.0297Q0 13.3253 0.668182 13.9908Q1.33636 14.6562 2.63046 14.6562ZM6.99768 18.566L20.8438 18.566Q22.1422 18.566 22.8117 17.89Q23.4813 17.2141 23.4813 15.9395L23.4813 6.5477Q23.4813 5.27573 22.8117 4.59839Q22.1422 3.92105 20.8438 3.92105L6.99768 3.92105Q5.69656 3.92105 5.02838 4.59Q4.3602 5.25894 4.3602 6.5477L4.3602 15.9395Q4.3602 17.2281 5.02838 17.897Q5.69656 18.566 6.99768 18.566ZM7.01721 17.8375Q6.06689 17.8375 5.57777 17.3498Q5.08865 16.862 5.08865 15.9035L5.08865 6.5863Q5.08865 5.63477 5.57777 5.14221Q6.06689 4.64966 7.01721 4.64966L20.8215 4.64966Q21.741 4.64966 22.2469 5.14221Q22.7527 5.63477 22.7527 6.5863L22.7527 15.9035Q22.7527 16.862 22.2469 17.3498Q21.741 17.8375 20.8215 17.8375Z" fill="#000000"/>
 </g>
</svg>
