<?xml version="1.0" encoding="UTF-8"?>
<!--Generator: Apple Native CoreSVG 175.5-->
<!DOCTYPE svg
PUBLIC "-//W3C//DTD SVG 1.1//EN"
       "http://www.w3.org/Graphics/SVG/1.1/DTD/svg11.dtd">
<svg version="1.1" xmlns="http://www.w3.org/2000/svg" xmlns:xlink="http://www.w3.org/1999/xlink" width="20.8496" height="17.4316">
 <g>
  <rect height="17.4316" opacity="0" width="20.8496" x="0" y="0"/>
  <path d="M0.830078 9.07227Q1.18164 9.07227 1.4209 8.83301Q1.66016 8.59375 1.66016 8.24219L1.66016 7.31445Q1.66016 6.05469 2.45117 5.29785Q3.24219 4.54102 4.57031 4.54102L12.1875 4.54102L12.1875 6.83594Q12.1875 7.12891 12.3535 7.29004Q12.5195 7.45117 12.8223 7.45117Q12.959 7.45117 13.0859 7.40234Q13.2129 7.35352 13.3203 7.26562L17.0117 4.20898Q17.2461 4.01367 17.2559 3.75Q17.2656 3.48633 17.0117 3.28125L13.3203 0.214844Q13.2129 0.126953 13.0859 0.0830078Q12.959 0.0390625 12.8223 0.0390625Q12.5195 0.0390625 12.3535 0.195312Q12.1875 0.351562 12.1875 0.654297L12.1875 2.91992L4.72656 2.91992Q3.29102 2.91992 2.23145 3.4375Q1.17188 3.95508 0.585938 4.91211Q0 5.86914 0 7.19727L0 8.24219Q0 8.59375 0.234375 8.83301Q0.46875 9.07227 0.830078 9.07227ZM20.0195 8.37891Q19.6582 8.37891 19.4238 8.61328Q19.1895 8.84766 19.1895 9.20898L19.1895 10.1367Q19.1895 11.3965 18.3984 12.1484Q17.6074 12.9004 16.2695 12.9004L8.65234 12.9004L8.65234 10.6348Q8.65234 10.332 8.49121 10.1758Q8.33008 10.0195 8.02734 10.0195Q7.89062 10.0195 7.75879 10.0635Q7.62695 10.1074 7.51953 10.1953L3.82812 13.252Q3.59375 13.457 3.58887 13.7207Q3.58398 13.9844 3.82812 14.1797L7.51953 17.2461Q7.62695 17.334 7.75879 17.3828Q7.89062 17.4316 8.02734 17.4316Q8.33008 17.4316 8.49121 17.2705Q8.65234 17.1094 8.65234 16.8164L8.65234 14.5312L16.1133 14.5312Q17.5488 14.5312 18.6133 14.0137Q19.6777 13.4961 20.2637 12.5342Q20.8496 11.5723 20.8496 10.2539L20.8496 9.20898Q20.8496 8.84766 20.6104 8.61328Q20.3711 8.37891 20.0195 8.37891Z" fill="#007aff"/>
 </g>
</svg>
