<?xml version="1.0" encoding="UTF-8"?>
<!--Generator: Apple Native CoreSVG 175-->
<!DOCTYPE svg
PUBLIC "-//W3C//DTD SVG 1.1//EN"
       "http://www.w3.org/Graphics/SVG/1.1/DTD/svg11.dtd">
<svg version="1.1" xmlns="http://www.w3.org/2000/svg" xmlns:xlink="http://www.w3.org/1999/xlink" width="19.1602" height="19.1504">
 <g>
  <rect height="19.1504" opacity="0" width="19.1602" x="0" y="0"/>
  <path d="M9.57031 19.1406Q11.5527 19.1406 13.2861 18.3984Q15.0195 17.6562 16.3379 16.333Q17.6562 15.0098 18.4082 13.2764Q19.1602 11.543 19.1602 9.57031Q19.1602 7.59766 18.4082 5.86426Q17.6562 4.13086 16.3379 2.80762Q15.0195 1.48438 13.2861 0.742188Q11.5527 0 9.57031 0Q7.59766 0 5.86426 0.742188Q4.13086 1.48438 2.81738 2.80762Q1.50391 4.13086 0.751953 5.86426Q0 7.59766 0 9.57031Q0 11.543 0.74707 13.2764Q1.49414 15.0098 2.8125 16.333Q4.13086 17.6562 5.86914 18.3984Q7.60742 19.1406 9.57031 19.1406ZM9.57031 18.3984Q7.74414 18.3984 6.14746 17.71Q4.55078 17.0215 3.33496 15.8105Q2.11914 14.5996 1.43555 12.998Q0.751953 11.3965 0.751953 9.57031Q0.751953 7.74414 1.43555 6.14258Q2.11914 4.54102 3.33496 3.3252Q4.55078 2.10938 6.14746 1.4209Q7.74414 0.732422 9.57031 0.732422Q11.4062 0.732422 13.0029 1.4209Q14.5996 2.10938 15.8154 3.3252Q17.0312 4.54102 17.7197 6.14258Q18.4082 7.74414 18.4082 9.57031Q18.4082 11.3965 17.7246 12.998Q17.041 14.5996 15.8252 15.8105Q14.6094 17.0215 13.0078 17.71Q11.4062 18.3984 9.57031 18.3984ZM3.96484 8.89648L3.96484 9.32617Q3.96484 9.48242 4.07227 9.58984Q4.17969 9.69727 4.32617 9.69727Q4.48242 9.69727 4.58984 9.58984Q4.69727 9.48242 4.69727 9.32617L4.69727 8.91602Q4.69727 8.0957 5.21484 7.58789Q5.73242 7.08008 6.57227 7.08008L10.4688 7.08008L10.4688 8.42773Q10.4688 8.56445 10.5469 8.64746Q10.625 8.73047 10.752 8.73047Q10.8887 8.73047 11.0156 8.62305L13.1543 6.98242Q13.3008 6.86523 13.3008 6.68457Q13.3008 6.50391 13.1543 6.38672L11.0156 4.74609Q10.8887 4.64844 10.752 4.64844Q10.625 4.64844 10.5469 4.72656Q10.4688 4.80469 10.4688 4.94141L10.4688 6.38672L6.60156 6.38672Q5.41016 6.38672 4.6875 7.0752Q3.96484 7.76367 3.96484 8.89648ZM15.2539 10.2832L15.2539 9.85352Q15.2539 9.70703 15.1465 9.59961Q15.0391 9.49219 14.8926 9.49219Q14.7363 9.49219 14.6289 9.59961Q14.5215 9.70703 14.5215 9.85352L14.5215 10.2734Q14.5215 11.0938 14.0039 11.6016Q13.4863 12.1094 12.6367 12.1094L8.75977 12.1094L8.75977 10.7617Q8.75977 10.6152 8.67676 10.5371Q8.59375 10.459 8.4668 10.459Q8.33008 10.459 8.19336 10.5664L6.06445 12.207Q5.91797 12.3242 5.91797 12.5049Q5.91797 12.6855 6.06445 12.8027L8.19336 14.4434Q8.33008 14.541 8.4668 14.541Q8.59375 14.541 8.67676 14.4629Q8.75977 14.3848 8.75977 14.248L8.75977 12.8027L12.6172 12.8027Q13.8086 12.8027 14.5312 12.1143Q15.2539 11.4258 15.2539 10.2832Z" fill="#007aff"/>
 </g>
</svg>
