<?xml version="1.0" encoding="UTF-8"?>
<!--Generator: Apple Native CoreSVG 175-->
<!DOCTYPE svg
PUBLIC "-//W3C//DTD SVG 1.1//EN"
       "http://www.w3.org/Graphics/SVG/1.1/DTD/svg11.dtd">
<svg version="1.1" xmlns="http://www.w3.org/2000/svg" xmlns:xlink="http://www.w3.org/1999/xlink" width="19.818" height="18.2864">
 <g>
  <rect height="18.2864" opacity="0" width="19.818" x="0" y="0"/>
  <path d="M13.4856 17.1774Q13.636 17.1774 13.7547 17.0615L19.6938 11.1032Q19.7559 11.0411 19.7869 10.9735Q19.818 10.9059 19.818 10.8286Q19.818 10.7414 19.7869 10.6738Q19.7559 10.6062 19.6938 10.5469L13.7547 4.58878Q13.636 4.47708 13.4856 4.47708Q13.3128 4.47708 13.2085 4.58405Q13.1042 4.69101 13.1042 4.84421Q13.1042 4.92706 13.1313 4.99969Q13.1583 5.07233 13.2051 5.11917L16.6504 8.5524L18.8402 10.648L18.9078 10.5013L16.5555 10.4587L2.52655 10.4587Q1.6777 10.4587 1.2088 9.97917Q0.739899 9.49966 0.739899 8.56537L0.739899 2.5267Q0.739899 1.66809 1.20392 1.20399Q1.66794 0.739899 2.52655 0.739899L9.19769 0.739899Q9.366 0.739899 9.46602 0.633621Q9.56604 0.527344 9.56604 0.370026Q9.56604 0.212555 9.46251 0.106277Q9.35898 0 9.19067 0L2.52655 0Q1.28159 0 0.640793 0.640869Q0 1.28174 0 2.5267L0 8.56537Q0 9.87396 0.640793 10.5363Q1.28159 11.1986 2.52655 11.1986L16.5555 11.1986L18.9078 11.1462L18.8402 11.0063L16.6504 13.1047L13.2051 16.5309Q13.1583 16.5778 13.1313 16.6504Q13.1042 16.723 13.1042 16.8102Q13.1042 16.9591 13.2085 17.0683Q13.3128 17.1774 13.4856 17.1774Z" fill="#000000"/>
 </g>
</svg>
