<?xml version="1.0" encoding="UTF-8"?>
<!--Generator: Apple Native CoreSVG 175-->
<!DOCTYPE svg
PUBLIC "-//W3C//DTD SVG 1.1//EN"
       "http://www.w3.org/Graphics/SVG/1.1/DTD/svg11.dtd">
<svg version="1.1" xmlns="http://www.w3.org/2000/svg" xmlns:xlink="http://www.w3.org/1999/xlink" width="14.043" height="18.8184">
 <g>
  <rect height="18.8184" opacity="0" width="14.043" x="0" y="0"/>
  <path d="M7.02148 18.7988Q7.28516 18.7988 7.45605 18.623Q7.62695 18.4473 7.86133 18.1348L13.7793 10.1074Q13.916 9.92188 13.9795 9.75098Q14.043 9.58008 14.043 9.4043Q14.043 9.22852 13.9795 9.05762Q13.916 8.88672 13.7793 8.70117L7.86133 0.664062Q7.62695 0.361328 7.45605 0.180664Q7.28516 0 7.02148 0Q6.75781 0 6.58691 0.180664Q6.41602 0.361328 6.19141 0.664062L0.263672 8.70117Q0.126953 8.88672 0.0634766 9.05762Q0 9.22852 0 9.4043Q0 9.58008 0.0634766 9.75098Q0.126953 9.92188 0.263672 10.1074L6.19141 18.1348Q6.41602 18.4473 6.58691 18.623Q6.75781 18.7988 7.02148 18.7988Z" fill="#000000"/>
 </g>
</svg>
