<?xml version="1.0" encoding="UTF-8"?>
<!--Generator: Apple Native CoreSVG 175-->
<!DOCTYPE svg
PUBLIC "-//W3C//DTD SVG 1.1//EN"
       "http://www.w3.org/Graphics/SVG/1.1/DTD/svg11.dtd">
<svg version="1.1" xmlns="http://www.w3.org/2000/svg" xmlns:xlink="http://www.w3.org/1999/xlink" width="19.1554" height="19.1583">
 <g>
  <rect height="19.1583" opacity="0" width="19.1554" x="0" y="0"/>
  <path d="M5.93628 10.1357Q5.93628 11.7805 6.32225 13.3817Q6.70822 14.9829 7.44003 16.3982Q8.17184 17.8134 9.22073 18.925L9.90982 18.7012Q8.88245 17.6379 8.15567 16.2634Q7.42889 14.8888 7.04552 13.3239Q6.66214 11.759 6.66214 10.1357Q6.66214 8.22891 7.04689 6.43715Q7.43164 4.64539 8.16193 3.11768Q8.89221 1.58997 9.90982 0.454407L9.18991 0.268402Q8.15628 1.42578 7.43011 2.99065Q6.70395 4.55551 6.32011 6.37794Q5.93628 8.20038 5.93628 10.1357ZM8.94852 12.9501Q10.8809 12.9501 12.7033 12.5663Q14.5258 12.1825 16.0906 11.4563Q17.6555 10.7301 18.8129 9.6965L18.6298 8.97659Q17.4942 10.0012 15.9664 10.728Q14.4386 11.4548 12.6469 11.8395Q10.8551 12.2243 8.94852 12.2243Q7.32224 12.2243 5.75745 11.8409Q4.19266 11.4575 2.81799 10.7307Q1.44333 10.004 0.380096 8.97659L0.166016 9.66568Q1.26801 10.7146 2.68326 11.4464Q4.09851 12.1782 5.69969 12.5642Q7.30087 12.9501 8.94852 12.9501ZM9.57428 19.1486Q11.552 19.1486 13.2834 18.4024Q15.0148 17.6562 16.3355 16.3356Q17.6562 15.015 18.4058 13.28Q19.1554 11.545 19.1554 9.57428Q19.1554 7.60361 18.4058 5.86861Q17.6562 4.13361 16.3355 2.81296Q15.0148 1.49231 13.282 0.746155Q11.5492 0 9.57153 0Q7.60086 0 5.86586 0.746155Q4.13086 1.49231 2.81502 2.81296Q1.49918 4.13361 0.749588 5.86861Q0 7.60361 0 9.57428Q0 11.545 0.746078 13.28Q1.49216 15.015 2.81288 16.3356Q4.13361 17.6562 5.86853 18.4024Q7.60345 19.1486 9.57428 19.1486ZM9.57428 18.4024Q7.74734 18.4024 6.14853 17.7157Q4.54971 17.029 3.33466 15.8174Q2.1196 14.6059 1.43425 13.0035Q0.748901 11.4012 0.748901 9.57428Q0.748901 7.74734 1.43425 6.14502Q2.1196 4.54269 3.33328 3.32626Q4.54697 2.10983 6.14578 1.42448Q7.7446 0.739136 9.57153 0.739136Q11.4055 0.739136 13.0043 1.42448Q14.6031 2.10983 15.8195 3.32626Q17.036 4.54269 17.7227 6.14502Q18.4094 7.74734 18.4094 9.57428Q18.4094 11.4012 17.7241 13.0035Q17.0387 14.6059 15.8237 15.8174Q14.6086 17.029 13.0084 17.7157Q11.4082 18.4024 9.57428 18.4024Z" fill="#007aff"/>
 </g>
</svg>
