<?xml version="1.0" encoding="UTF-8"?>
<!--Generator: Apple Native CoreSVG 175-->
<!DOCTYPE svg
PUBLIC "-//W3C//DTD SVG 1.1//EN"
       "http://www.w3.org/Graphics/SVG/1.1/DTD/svg11.dtd">
<svg version="1.1" xmlns="http://www.w3.org/2000/svg" xmlns:xlink="http://www.w3.org/1999/xlink" width="18.4848" height="23.8788">
 <g>
  <rect height="23.8788" opacity="0" width="18.4848" x="0" y="0"/>
  <path d="M6.59256 20.6009L16.5024 20.6009Q17.4879 20.6009 17.9864 20.1052Q18.4848 19.6095 18.4848 18.6115L18.4848 8.78449Q18.4848 7.79343 17.9864 7.29775Q17.4879 6.80207 16.5024 6.80207L6.59256 6.80207Q5.60272 6.80207 5.10292 7.29775Q4.60312 7.79343 4.60312 8.78449L4.60312 18.6115Q4.60312 19.6095 5.10292 20.1052Q5.60272 20.6009 6.59256 20.6009ZM6.62888 19.8724Q5.97626 19.8724 5.65399 19.5564Q5.33173 19.2404 5.33173 18.5919L5.33173 8.81379Q5.33173 8.15568 5.65399 7.84318Q5.97626 7.53068 6.62888 7.53068L16.4661 7.53068Q17.1144 7.53068 17.4388 7.84318Q17.7632 8.15568 17.7632 8.81379L17.7632 18.5919Q17.7632 19.2404 17.4388 19.5564Q17.1144 19.8724 16.4661 19.8724ZM0.324249 8.611Q0.458527 8.611 0.554886 8.51472Q0.651245 8.41843 0.651245 8.2869L0.651245 6.59272Q0.651245 5.46342 1.15906 4.53606Q1.66687 3.60871 2.64008 3.0597Q3.61328 2.51069 5.00824 2.51069L5.16556 2.51069L5.16556 3.94822Q5.16556 4.27155 5.41595 4.35853Q5.66635 4.4455 5.92896 4.25523L8.34763 2.59187Q8.61801 2.4025 8.61801 2.19567Q8.61801 1.98884 8.34763 1.79658L5.92896 0.130622Q5.66635-0.0596547 5.41595 0.0272441Q5.16556 0.114143 5.16556 0.433357L5.16556 1.87714L5.00549 1.87714Q3.48663 1.87714 2.36305 2.47361Q1.23947 3.07008 0.619736 4.12827Q0 5.18647 0 6.56892L0 8.2869Q0 8.41843 0.096283 8.51472Q0.192566 8.611 0.324249 8.611Z" fill="#007aff"/>
 </g>
</svg>
