<?xml version="1.0" encoding="UTF-8"?>
<!--Generator: Apple Native CoreSVG 175.5-->
<!DOCTYPE svg
PUBLIC "-//W3C//DTD SVG 1.1//EN"
       "http://www.w3.org/Graphics/SVG/1.1/DTD/svg11.dtd">
<svg version="1.1" xmlns="http://www.w3.org/2000/svg" xmlns:xlink="http://www.w3.org/1999/xlink" width="13.6426" height="18.2129">
 <g>
  <rect height="18.2129" opacity="0" width="13.6426" x="0" y="0"/>
  <path d="M0 10.6055Q0 10.8691 0.185547 11.0547Q0.371094 11.2402 0.634766 11.2402L2.65625 11.2402L2.65625 17.2754Q2.65625 17.666 2.92969 17.9395Q3.20312 18.2129 3.58398 18.2129Q3.97461 18.2129 4.24805 17.9395Q4.52148 17.666 4.52148 17.2754L4.52148 11.2402L8.11523 11.2402Q9.80469 11.2402 11.0449 10.5469Q12.2852 9.85352 12.9639 8.64258Q13.6426 7.43164 13.6426 5.85938Q13.6426 4.29688 12.9688 3.07617Q12.2949 1.85547 11.0596 1.15723Q9.82422 0.458984 8.13477 0.458984L3.58398 0.458984Q3.16406 0.458984 2.91016 0.722656Q2.65625 0.986328 2.65625 1.42578L2.65625 9.9707L0.634766 9.9707Q0.371094 9.9707 0.185547 10.1562Q0 10.3418 0 10.6055ZM4.52148 9.61914L4.52148 2.11914L7.67578 2.11914Q9.6875 2.11914 10.708 3.12988Q11.7285 4.14062 11.7285 5.85938Q11.7285 7.58789 10.7031 8.60352Q9.67773 9.61914 7.67578 9.61914ZM0 14.3848Q0 14.6484 0.185547 14.8389Q0.371094 15.0293 0.634766 15.0293L9.26758 15.0293Q9.53125 15.0293 9.7168 14.8389Q9.90234 14.6484 9.90234 14.3848Q9.90234 14.1309 9.7168 13.9404Q9.53125 13.75 9.26758 13.75L0.634766 13.75Q0.371094 13.75 0.185547 13.9404Q0 14.1309 0 14.3848Z" fill="#007aff"/>
 </g>
</svg>
