<?xml version="1.0" encoding="UTF-8"?>
<!--Generator: Apple Native CoreSVG 175-->
<!DOCTYPE svg
PUBLIC "-//W3C//DTD SVG 1.1//EN"
       "http://www.w3.org/Graphics/SVG/1.1/DTD/svg11.dtd">
<svg version="1.1" xmlns="http://www.w3.org/2000/svg" xmlns:xlink="http://www.w3.org/1999/xlink" width="17.2852" height="17.3145">
 <g>
  <rect height="17.3145" opacity="0" width="17.2852" x="0" y="0"/>
  <path d="M2.62695 17.3145L14.6484 17.3145Q15.957 17.3145 16.6211 16.6455Q17.2852 15.9766 17.2852 14.6875L17.2852 2.65625Q17.2852 1.37695 16.6211 0.703125Q15.957 0.0292969 14.6484 0.0292969L2.62695 0.0292969Q1.33789 0.0292969 0.668945 0.693359Q0 1.35742 0 2.65625L0 14.6875Q0 15.9863 0.668945 16.6504Q1.33789 17.3145 2.62695 17.3145ZM2.65625 16.5918Q1.70898 16.5918 1.2207 16.1035Q0.732422 15.6152 0.732422 14.6582L0.732422 2.69531Q0.732422 1.72852 1.2207 1.24512Q1.70898 0.761719 2.65625 0.761719L14.6289 0.761719Q15.5566 0.761719 16.0596 1.24512Q16.5625 1.72852 16.5625 2.69531L16.5625 14.6582Q16.5625 15.6152 16.0596 16.1035Q15.5566 16.5918 14.6289 16.5918ZM6.98242 13.0957Q7.12891 13.0957 7.22168 13.0029Q7.31445 12.9102 7.31445 12.7539L7.31445 11.2598L9.61914 11.2598Q9.74609 11.2598 9.8291 11.1768Q9.91211 11.0938 9.91211 10.9668Q9.91211 10.8301 9.8291 10.752Q9.74609 10.6738 9.61914 10.6738L7.31445 10.6738L7.31445 9.58984L9.13086 9.58984Q10.4102 9.58984 11.1328 8.88672Q11.8555 8.18359 11.8555 7.02148Q11.8555 5.85938 11.1328 5.15625Q10.4102 4.45312 9.13086 4.45312L6.99219 4.45312Q6.66016 4.45312 6.66016 4.79492L6.66016 9.00391L5.73242 9.00391Q5.5957 9.00391 5.51758 9.08691Q5.43945 9.16992 5.43945 9.30664Q5.43945 9.43359 5.51758 9.5166Q5.5957 9.59961 5.73242 9.59961L6.66016 9.59961L6.66016 10.6738L5.74219 10.6738Q5.60547 10.6738 5.52734 10.752Q5.44922 10.8301 5.44922 10.9668Q5.44922 11.0938 5.52734 11.1768Q5.60547 11.2598 5.74219 11.2598L6.66016 11.2598L6.66016 12.7637Q6.66016 12.9297 6.75781 13.0127Q6.85547 13.0957 6.98242 13.0957ZM7.31445 8.96484L7.31445 5.07812L9.08203 5.07812Q10.0879 5.07812 10.6396 5.60059Q11.1914 6.12305 11.1914 7.03125Q11.1914 7.91992 10.6348 8.44727Q10.0781 8.97461 9.08203 8.97461Z" fill="#000000"/>
 </g>
</svg>
