<?xml version="1.0" encoding="UTF-8"?>
<!--Generator: Apple Native CoreSVG 175.5-->
<!DOCTYPE svg
PUBLIC "-//W3C//DTD SVG 1.1//EN"
       "http://www.w3.org/Graphics/SVG/1.1/DTD/svg11.dtd">
<svg version="1.1" xmlns="http://www.w3.org/2000/svg" xmlns:xlink="http://www.w3.org/1999/xlink" width="23.8867" height="10.5957">
 <g>
  <rect height="10.5957" opacity="0" width="23.8867" x="0" y="0"/>
  <path d="M23.8867 2.63672Q23.8867 1.33789 23.2178 0.673828Q22.5488 0.00976562 21.2305 0.00976562L2.63672 0.00976562Q1.32812 0.00976562 0.664062 0.673828Q0 1.33789 0 2.63672L0 7.96875Q0 9.26758 0.668945 9.93164Q1.33789 10.5957 2.64648 10.5957L21.2402 10.5957Q22.5586 10.5957 23.2227 9.93164Q23.8867 9.26758 23.8867 7.96875ZM22.3047 2.91992L22.3047 7.68555Q22.3047 8.33984 21.9629 8.68164Q21.6211 9.02344 20.9863 9.02344L2.88086 9.02344Q2.25586 9.02344 1.91406 8.68164Q1.57227 8.33984 1.57227 7.68555L1.57227 2.91992Q1.57227 2.25586 1.91406 1.91895Q2.25586 1.58203 2.89062 1.58203L20.9961 1.58203Q21.6211 1.58203 21.9629 1.91895Q22.3047 2.25586 22.3047 2.91992ZM3.73047 1.03516L2.93945 1.03516L2.93945 6.18164Q2.93945 6.34766 3.05664 6.45996Q3.17383 6.57227 3.33984 6.57227Q3.51562 6.57227 3.62305 6.45508Q3.73047 6.33789 3.73047 6.17188ZM5.45898 1.03516L4.66797 1.03516L4.66797 4.46289Q4.66797 4.63867 4.78516 4.74609Q4.90234 4.85352 5.05859 4.85352Q5.24414 4.85352 5.35156 4.74121Q5.45898 4.62891 5.45898 4.45312ZM7.17773 1.03516L6.37695 1.03516L6.37695 4.46289Q6.37695 4.63867 6.49414 4.74609Q6.61133 4.85352 6.77734 4.85352Q6.95312 4.85352 7.06543 4.74121Q7.17773 4.62891 7.17773 4.45312ZM8.88672 1.03516L8.0957 1.03516L8.0957 4.46289Q8.0957 4.63867 8.21289 4.74609Q8.33008 4.85352 8.49609 4.85352Q8.67188 4.85352 8.7793 4.74121Q8.88672 4.62891 8.88672 4.45312ZM10.6152 1.03516L9.82422 1.03516L9.82422 4.46289Q9.82422 4.63867 9.94141 4.74609Q10.0586 4.85352 10.2148 4.85352Q10.4004 4.85352 10.5078 4.74121Q10.6152 4.62891 10.6152 4.45312ZM12.3438 1.03516L11.5527 1.03516L11.5527 6.18164Q11.5527 6.34766 11.6699 6.45996Q11.7871 6.57227 11.9434 6.57227Q12.1289 6.57227 12.2363 6.45508Q12.3438 6.33789 12.3438 6.17188ZM14.0625 1.03516L13.2715 1.03516L13.2715 4.46289Q13.2715 4.63867 13.3838 4.74609Q13.4961 4.85352 13.6621 4.85352Q13.8379 4.85352 13.9502 4.74121Q14.0625 4.62891 14.0625 4.45312ZM15.7812 1.03516L14.9902 1.03516L14.9902 4.46289Q14.9902 4.63867 15.1074 4.74609Q15.2246 4.85352 15.3906 4.85352Q15.5664 4.85352 15.6738 4.74121Q15.7812 4.62891 15.7812 4.45312ZM17.5 1.03516L16.709 1.03516L16.709 4.46289Q16.709 4.63867 16.8262 4.74609Q16.9434 4.85352 17.0996 4.85352Q17.2852 4.85352 17.3926 4.74121Q17.5 4.62891 17.5 4.45312ZM19.2285 1.03516L18.4375 1.03516L18.4375 4.46289Q18.4375 4.63867 18.5498 4.74609Q18.6621 4.85352 18.8281 4.85352Q19.0039 4.85352 19.1162 4.74121Q19.2285 4.62891 19.2285 4.45312ZM20.9473 1.03516L20.1562 1.03516L20.1562 6.18164Q20.1562 6.34766 20.2734 6.45996Q20.3906 6.57227 20.5566 6.57227Q20.7324 6.57227 20.8398 6.45508Q20.9473 6.33789 20.9473 6.17188Z" fill="#007aff"/>
 </g>
</svg>
