<?xml version="1.0" encoding="UTF-8"?>
<!--Generator: Apple Native CoreSVG 175-->
<!DOCTYPE svg
PUBLIC "-//W3C//DTD SVG 1.1//EN"
       "http://www.w3.org/Graphics/SVG/1.1/DTD/svg11.dtd">
<svg version="1.1" xmlns="http://www.w3.org/2000/svg" xmlns:xlink="http://www.w3.org/1999/xlink" width="22.8391" height="9.43726">
 <g>
  <rect height="9.43726" opacity="0" width="22.8391" x="0" y="0"/>
  <path d="M22.8391 2.34573Q22.8391 1.22971 22.2242 0.614853Q21.6093 0 20.495 0L2.35123 0Q1.23245 0 0.616226 0.61348Q0 1.22696 0 2.34573L0 7.08725Q0 8.20328 0.617599 8.81813Q1.2352 9.43298 2.34695 9.43298L20.495 9.43298Q21.6093 9.43298 22.2242 8.81813Q22.8391 8.20328 22.8391 7.08725ZM2.82578 0.939178L2.82303 5.77148Q2.82303 5.9024 2.74727 5.98305Q2.67151 6.06369 2.54486 6.06369Q2.42111 6.06644 2.34261 5.98579Q2.2641 5.90515 2.2641 5.77423L2.2641 0.939178ZM4.60083 0.939178L4.6051 4.08096Q4.6051 4.21448 4.52583 4.29382Q4.44656 4.37317 4.31717 4.37592Q4.19617 4.37866 4.11758 4.29794Q4.039 4.21722 4.039 4.08371L4.039 0.939178ZM6.38275 0.939178L6.38016 4.08096Q6.38016 4.21448 6.30295 4.29382Q6.22574 4.37317 6.09924 4.37592Q5.97534 4.37866 5.89821 4.29794Q5.82108 4.21722 5.82108 4.08371L5.82108 0.939178ZM8.15231 0.939178L8.14957 4.08096Q8.14957 4.21448 8.07381 4.29382Q7.99805 4.37317 7.87155 4.37592Q7.74765 4.37866 7.66914 4.29794Q7.59064 4.21722 7.59064 4.08371L7.59064 0.939178ZM9.92737 0.939178L9.92462 4.08096Q9.92462 4.21448 9.84886 4.29382Q9.7731 4.37317 9.64371 4.37592Q9.52271 4.37866 9.4442 4.29794Q9.36569 4.21722 9.36569 4.08371L9.36569 0.939178ZM11.7137 0.939178L11.711 5.77148Q11.711 5.9024 11.6352 5.98305Q11.5594 6.06369 11.4301 6.06369Q11.3091 6.06644 11.2305 5.98579Q11.152 5.90515 11.152 5.77423L11.152 0.939178ZM13.4888 0.939178L13.486 4.08096Q13.486 4.21448 13.4088 4.29382Q13.3316 4.37317 13.2051 4.37592Q13.0812 4.37866 13.0041 4.29794Q12.9269 4.21722 12.9269 4.08371L12.9269 0.939178ZM15.2679 0.939178L15.2652 4.08096Q15.2652 4.21448 15.1859 4.29382Q15.1067 4.37317 14.9872 4.37592Q14.8633 4.37866 14.7813 4.29794Q14.6992 4.21722 14.6992 4.08371L14.6992 0.939178ZM17.0403 0.939178L17.0375 4.08096Q17.0375 4.21448 16.9617 4.29382Q16.886 4.37317 16.7567 4.37592Q16.6356 4.37866 16.5571 4.29794Q16.4786 4.21722 16.4786 4.08371L16.4786 0.939178ZM18.8153 0.939178L18.8126 4.08096Q18.8126 4.21448 18.7354 4.29382Q18.6583 4.37317 18.5316 4.37592Q18.4079 4.37866 18.3307 4.29794Q18.2535 4.21722 18.2535 4.08371L18.2535 0.939178ZM20.5779 0.939178L20.5751 5.77148Q20.5751 5.9024 20.4993 5.98305Q20.4234 6.06369 20.2969 6.06369Q20.173 6.06644 20.0945 5.98579Q20.016 5.90515 20.016 5.77423L20.016 0.939178Z" fill="#000000"/>
 </g>
</svg>
