<?xml version="1.0" encoding="UTF-8"?>
<!--Generator: Apple Native CoreSVG 175-->
<!DOCTYPE svg
PUBLIC "-//W3C//DTD SVG 1.1//EN"
       "http://www.w3.org/Graphics/SVG/1.1/DTD/svg11.dtd">
<svg version="1.1" xmlns="http://www.w3.org/2000/svg" xmlns:xlink="http://www.w3.org/1999/xlink" width="19.1602" height="19.1504">
 <g>
  <rect height="19.1504" opacity="0" width="19.1602" x="0" y="0"/>
  <path d="M9.57031 19.1406Q11.5527 19.1406 13.2861 18.3984Q15.0195 17.6562 16.3379 16.333Q17.6562 15.0098 18.4082 13.2764Q19.1602 11.543 19.1602 9.57031Q19.1602 7.59766 18.4082 5.86426Q17.6562 4.13086 16.3379 2.80762Q15.0195 1.48438 13.2861 0.742188Q11.5527 0 9.57031 0Q7.59766 0 5.86426 0.742188Q4.13086 1.48438 2.81738 2.80762Q1.50391 4.13086 0.751953 5.86426Q0 7.59766 0 9.57031Q0 11.543 0.74707 13.2764Q1.49414 15.0098 2.8125 16.333Q4.13086 17.6562 5.86914 18.3984Q7.60742 19.1406 9.57031 19.1406ZM9.57031 18.3984Q7.74414 18.3984 6.14746 17.71Q4.55078 17.0215 3.33496 15.8105Q2.11914 14.5996 1.43555 12.998Q0.751953 11.3965 0.751953 9.57031Q0.751953 7.74414 1.43555 6.14258Q2.11914 4.54102 3.33496 3.3252Q4.55078 2.10938 6.14746 1.4209Q7.74414 0.732422 9.57031 0.732422Q11.4062 0.732422 13.0029 1.4209Q14.5996 2.10938 15.8154 3.3252Q17.0312 4.54102 17.7197 6.14258Q18.4082 7.74414 18.4082 9.57031Q18.4082 11.3965 17.7246 12.998Q17.041 14.5996 15.8252 15.8105Q14.6094 17.0215 13.0078 17.71Q11.4062 18.3984 9.57031 18.3984ZM9.52148 14.0332Q10.9961 14.0332 11.8848 13.3496Q12.7734 12.666 12.7734 11.5332Q12.7734 10.6934 12.207 10.1904Q11.6406 9.6875 10.3613 9.33594L9.0332 8.98438Q8.14453 8.74023 7.76367 8.40332Q7.38281 8.06641 7.38281 7.5293Q7.38281 7.03125 7.68555 6.62598Q7.98828 6.2207 8.49609 5.98145Q9.00391 5.74219 9.61914 5.74219Q10.5176 5.74219 11.1279 6.16211Q11.7383 6.58203 11.8848 7.29492Q11.9238 7.45117 12.0166 7.53418Q12.1094 7.61719 12.2559 7.61719Q12.4219 7.61719 12.5146 7.52441Q12.6074 7.43164 12.6074 7.25586Q12.6074 7.10938 12.5488 6.92383Q12.3535 6.09375 11.5674 5.58594Q10.7812 5.07812 9.63867 5.07812Q8.31055 5.07812 7.46582 5.76172Q6.62109 6.44531 6.62109 7.50977Q6.62109 8.33984 7.12891 8.84277Q7.63672 9.3457 8.71094 9.61914L10.0879 9.99023Q11.1426 10.2637 11.582 10.625Q12.0215 10.9863 12.0215 11.5918Q12.0215 12.0801 11.6895 12.4854Q11.3574 12.8906 10.8105 13.1299Q10.2637 13.3691 9.60938 13.3691Q8.65234 13.3691 7.96387 12.9199Q7.27539 12.4707 7.12891 11.748Q7.02148 11.416 6.75781 11.416Q6.5918 11.416 6.49414 11.5137Q6.39648 11.6113 6.39648 11.7871Q6.39648 11.9238 6.45508 12.1191Q6.66016 12.9492 7.5 13.4912Q8.33984 14.0332 9.52148 14.0332Z" fill="#ffffff"/>
 </g>
</svg>
