<?xml version="1.0" encoding="UTF-8"?>
<!--Generator: Apple Native CoreSVG 175-->
<!DOCTYPE svg
PUBLIC "-//W3C//DTD SVG 1.1//EN"
       "http://www.w3.org/Graphics/SVG/1.1/DTD/svg11.dtd">
<svg version="1.1" xmlns="http://www.w3.org/2000/svg" xmlns:xlink="http://www.w3.org/1999/xlink" width="19.1602" height="19.1504">
 <g>
  <rect height="19.1504" opacity="0" width="19.1602" x="0" y="0"/>
  <path d="M9.57031 19.1406Q11.5527 19.1406 13.2861 18.3984Q15.0195 17.6562 16.3379 16.333Q17.6562 15.0098 18.4082 13.2764Q19.1602 11.543 19.1602 9.57031Q19.1602 7.59766 18.4082 5.86426Q17.6562 4.13086 16.3379 2.80762Q15.0195 1.48438 13.2861 0.742188Q11.5527 0 9.57031 0Q7.59766 0 5.86426 0.742188Q4.13086 1.48438 2.81738 2.80762Q1.50391 4.13086 0.751953 5.86426Q0 7.59766 0 9.57031Q0 11.543 0.74707 13.2764Q1.49414 15.0098 2.8125 16.333Q4.13086 17.6562 5.86914 18.3984Q7.60742 19.1406 9.57031 19.1406ZM5.06836 14.6191Q4.82422 14.7461 4.6582 14.6973Q4.49219 14.6484 4.44824 14.4775Q4.4043 14.3066 4.52148 14.082L7.57812 8.14453Q7.70508 7.91992 7.83203 7.79297Q7.95898 7.66602 8.13477 7.57812L14.0723 4.53125Q14.3164 4.39453 14.4873 4.44336Q14.6582 4.49219 14.6973 4.66309Q14.7363 4.83398 14.6191 5.06836L11.5723 11.0156Q11.377 11.377 11.0059 11.5625ZM9.57031 10.7812Q10.0781 10.7812 10.4297 10.4297Q10.7812 10.0781 10.7812 9.58008Q10.7812 9.08203 10.4297 8.73047Q10.0781 8.37891 9.57031 8.37891Q9.08203 8.37891 8.72559 8.73047Q8.36914 9.08203 8.36914 9.58008Q8.36914 10.0781 8.72559 10.4297Q9.08203 10.7812 9.57031 10.7812Z" fill="#000000"/>
 </g>
</svg>
