<?xml version="1.0" encoding="UTF-8"?>
<!--Generator: Apple Native CoreSVG 175-->
<!DOCTYPE svg
PUBLIC "-//W3C//DTD SVG 1.1//EN"
       "http://www.w3.org/Graphics/SVG/1.1/DTD/svg11.dtd">
<svg version="1.1" xmlns="http://www.w3.org/2000/svg" xmlns:xlink="http://www.w3.org/1999/xlink" width="22.0605" height="16.4941">
 <g>
  <rect height="16.4941" opacity="0" width="22.0605" x="0" y="0"/>
  <path d="M0 13.8672Q0 15.1562 0.668945 15.8252Q1.33789 16.4941 2.62695 16.4941L19.4141 16.4941Q20.7129 16.4941 21.3867 15.8203Q22.0605 15.1465 22.0605 13.8672L22.0605 11.1328Q22.0605 10.7422 21.9824 10.4639Q21.9043 10.1855 21.6602 9.92188L17.5391 5.56641Q17.1289 5.12695 16.7871 4.84863Q16.4453 4.57031 16.04 4.43848Q15.6348 4.30664 15 4.30664L6.70898 4.30664Q6.02539 4.30664 5.58105 4.60449Q5.13672 4.90234 4.51172 5.56641L0.400391 9.92188Q0.15625 10.1855 0.078125 10.4639Q0 10.7422 0 11.1328ZM0.732422 13.8281L0.732422 11.4062L21.3281 11.4062L21.3281 13.8281Q21.3281 14.7852 20.8203 15.2783Q20.3125 15.7715 19.3945 15.7715L2.65625 15.7715Q1.70898 15.7715 1.2207 15.2783Q0.732422 14.7852 0.732422 13.8281ZM0.986328 10.3516L5.18555 5.85938Q5.58594 5.42969 5.96191 5.21973Q6.33789 5.00977 6.93359 5.00977L15.127 5.00977Q15.7129 5.00977 16.0889 5.21484Q16.4648 5.41992 16.8652 5.85938L21.0742 10.3516Q21.1621 10.459 21.1182 10.5664Q21.0742 10.6738 20.9277 10.6738L1.13281 10.6738Q0.986328 10.6738 0.942383 10.5664Q0.898438 10.459 0.986328 10.3516ZM1.71875 0.830078L4.54102 3.78906Q4.95117 4.22852 5.25879 4.4873Q5.56641 4.74609 5.89844 4.8584Q6.23047 4.9707 6.67969 4.9707L15.0684 4.9707Q15.6738 4.9707 16.0693 4.8584Q16.4648 4.74609 16.7871 4.4873Q17.1094 4.22852 17.5293 3.78906L20.3418 0.830078Q20.459 0.712891 20.4834 0.571289Q20.5078 0.429688 20.4541 0.302734Q20.4004 0.175781 20.2881 0.0927734Q20.1758 0.00976562 20 0.00976562L2.06055 0.00976562Q1.88477 0.00976562 1.77246 0.0927734Q1.66016 0.175781 1.60645 0.302734Q1.55273 0.429688 1.57715 0.571289Q1.60156 0.712891 1.71875 0.830078ZM2.49023 0.683594L19.5703 0.683594L16.8164 3.57422Q16.4551 3.96484 16.0986 4.13574Q15.7422 4.30664 15.1758 4.30664L6.89453 4.30664Q6.31836 4.30664 5.96191 4.13574Q5.60547 3.96484 5.24414 3.57422ZM5.14648 9.05273Q5.18555 9.16016 5.29785 9.21387Q5.41016 9.26758 5.52734 9.22852L10.293 7.49023Q10.4102 7.45117 10.4639 7.34375Q10.5176 7.23633 10.4688 7.11914Q10.4297 7.00195 10.3223 6.95312Q10.2148 6.9043 10.0977 6.94336L5.32227 8.68164Q5.21484 8.73047 5.16602 8.83301Q5.11719 8.93555 5.14648 9.05273ZM5.37109 7.45117Q5.41016 7.57812 5.52246 7.62695Q5.63477 7.67578 5.74219 7.63672L9.10156 6.41602Q9.22852 6.36719 9.27734 6.25977Q9.32617 6.15234 9.27734 6.03516Q9.23828 5.91797 9.13086 5.86914Q9.02344 5.82031 8.91602 5.85938L5.54688 7.08984Q5.42969 7.13867 5.37598 7.24121Q5.32227 7.34375 5.37109 7.45117ZM15.9766 13.584Q15.9766 13.7207 16.0742 13.8037Q16.1719 13.8867 16.2988 13.8867L18.9258 13.8867Q19.0527 13.8867 19.1406 13.7988Q19.2285 13.7109 19.2285 13.5742Q19.2285 13.4473 19.1406 13.3643Q19.0527 13.2812 18.9258 13.2812L16.2891 13.2812Q16.1523 13.2812 16.0645 13.3691Q15.9766 13.457 15.9766 13.584Z" fill="#007aff"/>
 </g>
</svg>
