<?xml version="1.0" encoding="UTF-8"?>
<!--Generator: Apple Native CoreSVG 175-->
<!DOCTYPE svg
PUBLIC "-//W3C//DTD SVG 1.1//EN"
       "http://www.w3.org/Graphics/SVG/1.1/DTD/svg11.dtd">
<svg version="1.1" xmlns="http://www.w3.org/2000/svg" xmlns:xlink="http://www.w3.org/1999/xlink" width="24.343" height="19.3097">
 <g>
  <rect height="19.3097" opacity="0" width="24.343" x="0" y="0"/>
  <path d="M3.31375 19.3097Q4.22546 19.3097 4.97543 18.8636Q5.7254 18.4175 6.175 17.6675Q6.6246 16.9176 6.6246 16.0059Q6.6246 15.0844 6.175 14.3343Q5.7254 13.5843 4.97543 13.1382Q4.22546 12.6921 3.31375 12.6921Q2.39929 12.6921 1.64574 13.1382Q0.892181 13.5843 0.446091 14.3343Q0 15.0844 0 16.0059Q0 16.9176 0.446091 17.6675Q0.892181 18.4175 1.64574 18.8636Q2.39929 19.3097 3.31375 19.3097ZM3.31375 18.6382Q2.57782 18.6382 1.98151 18.2848Q1.38519 17.9315 1.02837 17.3318Q0.671539 16.732 0.671539 16.0059Q0.671539 15.2699 1.02837 14.6715Q1.38519 14.073 1.98151 13.7183Q2.57782 13.3636 3.31375 13.3636Q4.03992 13.3636 4.63966 13.7183Q5.23941 14.073 5.59624 14.6715Q5.95306 15.2699 5.95306 16.0059Q5.95306 16.732 5.59486 17.3318Q5.23666 17.9315 4.63829 18.2848Q4.03992 18.6382 3.31375 18.6382ZM3.31375 16.8062Q3.64227 16.8062 3.88168 16.5703Q4.12109 16.3344 4.12109 16.0059Q4.12109 15.6676 3.88298 15.4316Q3.64487 15.1956 3.31375 15.1956Q2.97272 15.1956 2.73949 15.4302Q2.50626 15.6648 2.50351 16.0059Q2.50076 16.3344 2.73537 16.5703Q2.96997 16.8062 3.31375 16.8062ZM21.0294 19.3097Q21.9481 19.3097 22.6994 18.8636Q23.4508 18.4175 23.8969 17.6675Q24.343 16.9176 24.343 16.0059Q24.343 15.0844 23.8969 14.3343Q23.4508 13.5843 22.6994 13.1382Q21.9481 12.6921 21.0294 12.6921Q20.1176 12.6921 19.3676 13.1382Q18.6176 13.5843 18.1701 14.3343Q17.7226 15.0844 17.7226 16.0059Q17.7226 16.9176 18.1701 17.6675Q18.6176 18.4175 19.3676 18.8636Q20.1176 19.3097 21.0294 19.3097ZM21.0294 18.6382Q20.3032 18.6382 19.7034 18.2848Q19.1035 17.9315 18.7489 17.3318Q18.3942 16.732 18.3942 16.0059Q18.3942 15.2699 18.7489 14.6715Q19.1035 14.073 19.7034 13.7183Q20.3032 13.3636 21.0294 13.3636Q21.7625 13.3636 22.3588 13.7183Q22.955 14.073 23.3132 14.6715Q23.6714 15.2699 23.6714 16.0059Q23.6714 16.732 23.3132 17.3318Q22.955 17.9315 22.3588 18.2848Q21.7625 18.6382 21.0294 18.6382ZM21.0294 16.8062Q21.3676 16.8062 21.6035 16.5703Q21.8394 16.3344 21.8394 16.0059Q21.8394 15.6676 21.6035 15.4316Q21.3676 15.1956 21.0294 15.1956Q20.6981 15.1956 20.46 15.4302Q20.2219 15.6648 20.2191 16.0059Q20.2261 16.3344 20.4607 16.5703Q20.6953 16.8062 21.0294 16.8062ZM3.37463 16.3515L14.0125 16.3515Q14.1473 16.3515 14.236 16.3251Q14.3246 16.2988 14.4 16.2428Q14.4754 16.1867 14.5668 16.0898L19.6301 10.4102L19.3555 9.64844L14.1136 15.5472Q14.0453 15.6085 14.0119 15.6294Q13.9786 15.6503 13.9047 15.6503L3.37463 15.6503ZM13.5637 0.367889Q13.5637 0.509033 13.666 0.611343Q13.7683 0.713654 13.9192 0.713654L16.7227 0.713654Q16.8707 0.713654 16.9043 0.832367L20.6769 16.0655L21.3519 15.8942L17.4687 0.422211Q17.4188 0.222168 17.2752 0.11734Q17.1317 0.0125122 16.8765 0.0125122L13.9192 0.0125122Q13.7683 0.0125122 13.666 0.114822Q13.5637 0.217133 13.5637 0.367889Z" fill="#007aff"/>
 </g>
</svg>
