<?xml version="1.0" encoding="UTF-8"?>
<!--Generator: Apple Native CoreSVG 175.5-->
<!DOCTYPE svg
PUBLIC "-//W3C//DTD SVG 1.1//EN"
       "http://www.w3.org/Graphics/SVG/1.1/DTD/svg11.dtd">
<svg version="1.1" xmlns="http://www.w3.org/2000/svg" xmlns:xlink="http://www.w3.org/1999/xlink" width="24.0502" height="24.155">
 <g>
  <rect height="24.155" opacity="0" width="24.0502" x="0" y="0"/>
  <path d="M8.723 9.79722Q8.37144 10.1585 8.36656 10.5882Q8.36167 11.0179 8.723 11.3793L12.805 15.471Q13.1664 15.8324 13.596 15.8177Q14.0257 15.8031 14.3871 15.4418L15.4515 14.3675Q15.1781 13.9671 15.2171 13.4984Q15.2562 13.0296 15.6078 12.6781Q15.9691 12.3265 16.433 12.2875Q16.8968 12.2484 17.2972 12.5316L22.9808 6.83824Q24.0453 5.76402 24.0501 4.67515Q24.055 3.58628 23.0296 2.55113L21.6234 1.15464Q20.5882 0.119485 19.4896 0.129251Q18.391 0.139017 17.3265 1.1937L11.6429 6.8773Q11.9261 7.26792 11.8919 7.74156Q11.8578 8.21519 11.4964 8.57652Q11.1449 8.91831 10.6761 8.95249Q10.2074 8.98667 9.79722 8.723ZM14.2015 7.7562L18.8695 3.0687Q18.9769 2.95152 19.1527 2.96128Q19.3285 2.97105 19.4554 3.0687Q19.5824 3.17613 19.5677 3.34702Q19.5531 3.51792 19.4457 3.62534L14.7582 8.31284Q14.6312 8.43003 14.475 8.42515Q14.3187 8.42027 14.221 8.32261Q14.0941 8.19566 14.0892 8.03452Q14.0843 7.87339 14.2015 7.7562ZM15.8812 9.40659L20.5394 4.75816Q20.6664 4.64097 20.8324 4.63609Q20.9984 4.6312 21.1058 4.75816Q21.2132 4.87534 21.2132 5.03648Q21.2132 5.19761 21.1058 5.30503L16.4378 9.99253Q16.3207 10.1195 16.1546 10.1097Q15.9886 10.1 15.8812 9.99253Q15.7445 9.85581 15.7445 9.70445Q15.7445 9.55308 15.8812 9.40659ZM1.93589 18.85L0.139017 22.141Q0.021829 22.3656 0.00229779 22.5414Q-0.0172335 22.7171 0.129251 22.8636L1.28159 24.0257Q1.43784 24.1722 1.61363 24.1527Q1.78941 24.1332 2.00425 24.0257L5.3148 22.2191Q5.55894 22.0824 5.70542 21.8529Q5.85191 21.6234 5.86167 21.4085L5.9105 20.3441L10.8617 15.3929L8.77183 13.2933L3.81089 18.2445L2.76597 18.3031Q2.53159 18.3031 2.3021 18.4496Q2.07261 18.596 1.93589 18.85Z" fill="#007aff"/>
 </g>
</svg>
