<?xml version="1.0" encoding="UTF-8"?>
<!--Generator: Apple Native CoreSVG 175-->
<!DOCTYPE svg
PUBLIC "-//W3C//DTD SVG 1.1//EN"
       "http://www.w3.org/Graphics/SVG/1.1/DTD/svg11.dtd">
<svg version="1.1" xmlns="http://www.w3.org/2000/svg" xmlns:xlink="http://www.w3.org/1999/xlink" width="23.111" height="23.3085">
 <g>
  <rect height="23.3085" opacity="0" width="23.111" x="0" y="0"/>
  <path d="M8.38408 9.85904Q7.99743 10.2486 8.00658 10.717Q8.01574 11.1853 8.40514 11.5677L11.763 14.9423Q12.1455 15.3318 12.6103 15.3241Q13.0751 15.3165 13.4646 14.9341L14.5431 13.8669Q14.2908 13.4174 14.351 12.9767Q14.4112 12.536 14.7838 12.1564Q15.1451 11.7908 15.5878 11.7341Q16.0306 11.6774 16.4732 11.9326L22.3256 6.07745Q23.1369 5.27041 23.1101 4.29759Q23.0833 3.32477 22.2267 2.47241L20.8485 1.104Q19.9962 0.258664 19.0241 0.22273Q18.0521 0.186795 17.2407 1.00253L11.3954 6.84771Q11.6435 7.29464 11.5917 7.74012Q11.5399 8.1856 11.1575 8.54693Q10.7849 8.90994 10.3478 8.96869Q9.91073 9.02743 9.4583 8.78482ZM13.7852 7.74081L18.2634 3.25717Q18.3427 3.17508 18.4623 3.18133Q18.5818 3.18759 18.6595 3.25717Q18.7514 3.33636 18.7472 3.45805Q18.7431 3.57974 18.6638 3.65909L14.1803 8.14273Q14.1025 8.21765 13.9849 8.21978Q13.8673 8.22192 13.7907 8.14547Q13.706 8.05362 13.7047 7.93818Q13.7033 7.82275 13.7852 7.74081ZM15.1907 9.13806L19.6661 4.6654Q19.751 4.58331 19.8678 4.58194Q19.9846 4.58056 20.0638 4.6654Q20.1431 4.74734 20.1431 4.86277Q20.1431 4.97821 20.0638 5.05755L15.5858 9.53418Q15.5037 9.62588 15.3939 9.62314Q15.2841 9.62039 15.1907 9.53418Q15.1033 9.46063 15.1033 9.34443Q15.1033 9.22824 15.1907 9.13806ZM2.27202 18.1314L0.109547 21.3098Q0.013417 21.4572 0.000904763 21.6049Q-0.0116074 21.7525 0.148915 21.913L1.39968 23.1665Q1.55593 23.32 1.70714 23.3075Q1.85836 23.295 1.99584 23.2088L5.18691 21.0366Q5.36773 20.9139 5.46851 20.7511Q5.56929 20.5884 5.5931 20.4158L5.74035 19.3161L10.3259 14.7306L8.58764 12.9895L3.9923 17.5611L2.89809 17.7251Q2.72002 17.7463 2.55736 17.847Q2.3947 17.9477 2.27202 18.1314Z" fill="#000000"/>
 </g>
</svg>
