<?xml version="1.0" encoding="UTF-8"?>
<!--Generator: Apple Native CoreSVG 175.5-->
<!DOCTYPE svg
PUBLIC "-//W3C//DTD SVG 1.1//EN"
       "http://www.w3.org/Graphics/SVG/1.1/DTD/svg11.dtd">
<svg version="1.1" xmlns="http://www.w3.org/2000/svg" xmlns:xlink="http://www.w3.org/1999/xlink" width="20.8301" height="20.752">
 <g>
  <rect height="20.752" opacity="0" width="20.8301" x="0" y="0"/>
  <path d="M0 4.72656Q0 5.16602 0.273438 5.42969Q0.546875 5.69336 0.996094 5.69336L3.53516 5.69336L3.53516 17.6758Q3.53516 19.209 4.29688 19.9756Q5.05859 20.7422 6.5918 20.7422L17.7539 20.7422Q18.6816 20.7422 19.375 20.3467Q20.0684 19.9512 20.4492 19.2334Q20.8301 18.5156 20.8301 17.5488L20.8301 14.8926Q20.8301 14.4531 20.5615 14.1895Q20.293 13.9258 19.834 13.9258L19.0234 13.9258L19.0234 3.06641Q19.0234 1.5332 18.2666 0.766602Q17.5098 0 15.9961 0L2.55859 0Q1.41602 0 0.708008 0.722656Q0 1.44531 0 2.66602ZM5.10742 17.6855L5.10742 2.66602Q5.10742 2.36328 5.07812 2.08984Q5.04883 1.81641 4.99023 1.57227L15.9082 1.57227Q16.6699 1.57227 17.0605 1.96289Q17.4512 2.35352 17.4512 3.08594L17.4512 13.9258L9.0625 13.9258Q8.60352 13.9258 8.33008 14.1895Q8.05664 14.4531 8.05664 14.8926L8.05664 17.6855Q8.05664 18.3496 7.6416 18.7598Q7.22656 19.1699 6.5918 19.1699Q5.9375 19.1699 5.52246 18.75Q5.10742 18.3301 5.10742 17.6855ZM1.57227 4.12109L1.57227 2.66602Q1.57227 2.1582 1.85059 1.86523Q2.12891 1.57227 2.55859 1.57227Q2.99805 1.57227 3.2666 1.86523Q3.53516 2.1582 3.53516 2.66602L3.53516 4.12109ZM9.24805 19.1699Q9.62891 18.4961 9.62891 17.5781L9.62891 15.498L19.2578 15.498L19.2578 17.5488Q19.2578 18.2715 18.8428 18.7207Q18.4277 19.1699 17.7539 19.1699ZM7.91992 9.11133L11.4258 9.11133Q11.6895 9.11133 11.8604 8.94043Q12.0312 8.76953 12.0312 8.52539Q12.0312 8.26172 11.8604 8.08594Q11.6895 7.91016 11.4258 7.91016L7.91992 7.91016Q7.65625 7.91016 7.48047 8.08594Q7.30469 8.26172 7.30469 8.52539Q7.30469 8.76953 7.48047 8.94043Q7.65625 9.11133 7.91992 9.11133ZM7.91992 5.70312L14.6387 5.70312Q14.9023 5.70312 15.0732 5.52734Q15.2441 5.35156 15.2441 5.09766Q15.2441 4.84375 15.0732 4.67285Q14.9023 4.50195 14.6387 4.50195L7.91992 4.50195Q7.65625 4.50195 7.48047 4.67285Q7.30469 4.84375 7.30469 5.09766Q7.30469 5.35156 7.48047 5.52734Q7.65625 5.70312 7.91992 5.70312Z" fill="#007aff"/>
 </g>
</svg>
