<?xml version="1.0" encoding="UTF-8"?>
<!--Generator: Apple Native CoreSVG 175-->
<!DOCTYPE svg
PUBLIC "-//W3C//DTD SVG 1.1//EN"
       "http://www.w3.org/Graphics/SVG/1.1/DTD/svg11.dtd">
<svg version="1.1" xmlns="http://www.w3.org/2000/svg" xmlns:xlink="http://www.w3.org/1999/xlink" width="15.7812" height="20.6738">
 <g>
  <rect height="20.6738" opacity="0" width="15.7812" x="0" y="0"/>
  <path d="M2.62695 20.6738L13.1543 20.6738Q14.4434 20.6738 15.1123 20.0098Q15.7812 19.3457 15.7812 18.0469L15.7812 2.66602Q15.7812 1.36719 15.1074 0.698242Q14.4336 0.0292969 13.1543 0.0292969L6.83594 0.0292969Q6.38672 0.0292969 5.99609 0.19043Q5.60547 0.351562 5.3418 0.625L0.556641 5.38086Q0.273438 5.66406 0.136719 6.02539Q0 6.38672 0 6.86523L0 18.0469Q0 19.3359 0.664062 20.0049Q1.32812 20.6738 2.62695 20.6738ZM2.66602 19.9512Q1.69922 19.9512 1.21582 19.4629Q0.732422 18.9746 0.732422 18.0176L0.732422 6.88477Q0.732422 6.55273 0.830078 6.28906Q0.927734 6.02539 1.13281 5.83008L5.82031 1.14258Q6.18164 0.751953 6.83594 0.751953L13.1152 0.751953Q14.0723 0.751953 14.5605 1.25977Q15.0488 1.76758 15.0488 2.68555L15.0488 18.0176Q15.0488 18.9746 14.5605 19.4629Q14.0723 19.9512 13.1152 19.9512ZM6.77734 3.06641L6.77734 6.78711Q6.77734 6.93359 6.87012 7.02637Q6.96289 7.11914 7.10938 7.11914Q7.24609 7.11914 7.33887 7.02637Q7.43164 6.93359 7.43164 6.78711L7.43164 3.06641Q7.43164 2.91992 7.33887 2.82715Q7.24609 2.73438 7.10938 2.73438Q6.96289 2.73438 6.87012 2.82227Q6.77734 2.91016 6.77734 3.06641ZM8.57422 3.06641L8.57422 6.78711Q8.57422 6.93359 8.66699 7.02637Q8.75977 7.11914 8.90625 7.11914Q9.04297 7.11914 9.13574 7.02637Q9.22852 6.93359 9.22852 6.78711L9.22852 3.06641Q9.22852 2.91016 9.14062 2.82227Q9.05273 2.73438 8.90625 2.73438Q8.75977 2.73438 8.66699 2.82227Q8.57422 2.91016 8.57422 3.06641ZM10.3809 3.06641L10.3809 6.78711Q10.3809 6.93359 10.4736 7.02637Q10.5664 7.11914 10.7031 7.11914Q10.8398 7.11914 10.9326 7.02148Q11.0254 6.92383 11.0254 6.78711L11.0254 3.06641Q11.0254 2.91992 10.9326 2.82715Q10.8398 2.73438 10.7031 2.73438Q10.5566 2.73438 10.4688 2.82227Q10.3809 2.91016 10.3809 3.06641ZM12.1777 3.06641L12.1777 6.78711Q12.1777 6.92383 12.2705 7.02148Q12.3633 7.11914 12.5 7.11914Q12.6465 7.11914 12.7393 7.02148Q12.832 6.92383 12.832 6.78711L12.832 3.06641Q12.832 2.91992 12.7393 2.82715Q12.6465 2.73438 12.5 2.73438Q12.3633 2.73438 12.2705 2.82227Q12.1777 2.91016 12.1777 3.06641Z" fill="#000000"/>
 </g>
</svg>
