<?xml version="1.0" encoding="UTF-8"?>
<!--Generator: Apple Native CoreSVG 175-->
<!DOCTYPE svg
PUBLIC "-//W3C//DTD SVG 1.1//EN"
       "http://www.w3.org/Graphics/SVG/1.1/DTD/svg11.dtd">
<svg version="1.1" xmlns="http://www.w3.org/2000/svg" xmlns:xlink="http://www.w3.org/1999/xlink" width="21.3495" height="21.3843">
 <g>
  <rect height="21.3843" opacity="0" width="21.3495" x="0" y="0"/>
  <path d="M4.57108 18.676L7.02072 18.676Q7.37 18.676 7.60742 18.9162L9.35043 20.6494Q10.0531 21.3591 10.6754 21.3577Q11.2976 21.3564 11.9977 20.6494L13.7407 18.9162Q13.9809 18.676 14.3301 18.676L16.7841 18.676Q17.7902 18.676 18.2289 18.2387Q18.6676 17.8014 18.6676 16.7923L18.6676 14.3384Q18.6676 14.0033 18.9078 13.756L20.641 12.0061Q21.3509 11.306 21.3495 10.6873Q21.3481 10.0685 20.641 9.35868L18.9078 7.61582Q18.6676 7.36145 18.6676 7.03614L18.6676 4.57947Q18.6676 3.5759 18.2268 3.13233Q17.7859 2.68875 16.7841 2.68875L14.3301 2.68875Q13.9809 2.68875 13.7407 2.45133L11.9977 0.7251Q11.2906-0.0013707 10.6718 2.59112e-06Q10.0531 0.00137588 9.34341 0.7251L7.60742 2.45133Q7.37 2.68875 7.02072 2.68875L4.57108 2.68875Q3.56491 2.68875 3.12271 3.12958Q2.68051 3.57041 2.68051 4.57947L2.68051 7.03614Q2.68051 7.36145 2.44293 7.61582L0.709839 9.35868Q0 10.0685 0 10.6873Q0 11.306 0.709839 12.0061L2.44293 13.756Q2.68051 14.0033 2.68051 14.3384L2.68051 16.7923Q2.68051 17.7986 3.12271 18.2373Q3.56491 18.676 4.57108 18.676Z" fill="#007aff"/>
 </g>
</svg>
