<?xml version="1.0" encoding="UTF-8"?>
<!--Generator: Apple Native CoreSVG 175-->
<!DOCTYPE svg
PUBLIC "-//W3C//DTD SVG 1.1//EN"
       "http://www.w3.org/Graphics/SVG/1.1/DTD/svg11.dtd">
<svg version="1.1" xmlns="http://www.w3.org/2000/svg" xmlns:xlink="http://www.w3.org/1999/xlink" width="22.6617" height="17.3035">
 <g>
  <rect height="17.3035" opacity="0" width="22.6617" x="0" y="0"/>
  <path d="M18.3269 4.34341Q18.7715 4.33365 19.099 4.01314Q19.4266 3.69263 19.4266 3.24097Q19.4266 2.78946 19.099 2.45918Q18.7715 2.12891 18.3269 2.12891Q17.8851 2.12891 17.5527 2.45918Q17.2203 2.78946 17.2203 3.24097Q17.2203 3.69263 17.5527 4.0229Q17.8851 4.35318 18.3269 4.34341ZM18.3269 9.75357Q18.7715 9.7438 19.099 9.42329Q19.4266 9.10278 19.4266 8.65112Q19.4266 8.19962 19.099 7.86934Q18.7715 7.53906 18.3269 7.53906Q17.8851 7.53906 17.5527 7.86934Q17.2203 8.19962 17.2203 8.65112Q17.2203 9.10278 17.5527 9.43306Q17.8851 9.76334 18.3269 9.75357ZM18.3269 15.1637Q18.7715 15.154 19.099 14.8335Q19.4266 14.5129 19.4266 14.0613Q19.4266 13.6098 19.099 13.2795Q18.7715 12.9492 18.3269 12.9492Q17.8851 12.9492 17.5527 13.2795Q17.2203 13.6098 17.2203 14.0613Q17.2203 14.5129 17.5527 14.8432Q17.8851 15.1735 18.3269 15.1637ZM22.3042 6.26205L22.3042 5.56091L0.46402 5.56091L0.46402 6.26205ZM22.3042 11.7761L22.3042 11.075L0.46402 11.075L0.46402 11.7761ZM2.63046 17.2894L20.0243 17.2894Q21.3281 17.2894 21.9949 16.617Q22.6617 15.9445 22.6617 14.6655L22.6617 2.6265Q22.6617 1.35468 21.9949 0.677338Q21.3281 0 20.0243 0L2.63046 0Q1.33636 0 0.668182 0.668945Q0 1.33789 0 2.6265L0 14.6655Q0 15.9586 0.668182 16.624Q1.33636 17.2894 2.63046 17.2894ZM2.65701 16.568Q1.7067 16.568 1.21765 16.0767Q0.728607 15.5855 0.728607 14.6269L0.728607 2.66525Q0.728607 1.7067 1.21765 1.21758Q1.7067 0.728455 2.65701 0.728455L20.0047 0.728455Q20.9242 0.728455 21.4287 1.21758Q21.9331 1.7067 21.9331 2.66525L21.9331 14.6269Q21.9331 15.5855 21.4287 16.0767Q20.9242 16.568 20.0047 16.568Z" fill="#ffffff"/>
 </g>
</svg>
