<?xml version="1.0" encoding="UTF-8"?>
<!--Generator: Apple Native CoreSVG 175.5-->
<!DOCTYPE svg
PUBLIC "-//W3C//DTD SVG 1.1//EN"
       "http://www.w3.org/Graphics/SVG/1.1/DTD/svg11.dtd">
<svg version="1.1" xmlns="http://www.w3.org/2000/svg" xmlns:xlink="http://www.w3.org/1999/xlink" width="23.0273" height="17.9785">
 <g>
  <rect height="17.9785" opacity="0" width="23.0273" x="0" y="0"/>
  <path d="M18.0176 4.81445Q18.5254 4.80469 18.8916 4.43848Q19.2578 4.07227 19.2578 3.56445Q19.2578 3.05664 18.8916 2.68066Q18.5254 2.30469 18.0176 2.30469Q17.5195 2.30469 17.1484 2.68066Q16.7773 3.05664 16.7773 3.56445Q16.7773 4.07227 17.1484 4.44824Q17.5195 4.82422 18.0176 4.81445ZM18.0176 10.2246Q18.5254 10.2148 18.8916 9.84863Q19.2578 9.48242 19.2578 8.97461Q19.2578 8.4668 18.8916 8.09082Q18.5254 7.71484 18.0176 7.71484Q17.5195 7.71484 17.1484 8.09082Q16.7773 8.4668 16.7773 8.97461Q16.7773 9.48242 17.1484 9.8584Q17.5195 10.2344 18.0176 10.2246ZM18.0176 15.6348Q18.5254 15.625 18.8916 15.2588Q19.2578 14.8926 19.2578 14.3848Q19.2578 13.877 18.8916 13.501Q18.5254 13.125 18.0176 13.125Q17.5195 13.125 17.1484 13.501Q16.7773 13.877 16.7773 14.3848Q16.7773 14.8926 17.1484 15.2686Q17.5195 15.6445 18.0176 15.6348ZM22.1777 7.02148L22.1777 5.54688L0.878906 5.54688L0.878906 7.02148ZM22.1777 12.4512L22.1777 10.9766L0.878906 10.9766L0.878906 12.4512ZM3.06641 17.9785L19.9609 17.9785Q21.5039 17.9785 22.2656 17.2217Q23.0273 16.4648 23.0273 14.9609L23.0273 3.02734Q23.0273 1.52344 22.2656 0.761719Q21.5039 0 19.9609 0L3.06641 0Q1.5332 0 0.766602 0.756836Q0 1.51367 0 3.02734L0 14.9609Q0 16.4648 0.766602 17.2217Q1.5332 17.9785 3.06641 17.9785ZM3.08594 16.4062Q2.35352 16.4062 1.96289 16.0205Q1.57227 15.6348 1.57227 14.873L1.57227 3.11523Q1.57227 2.35352 1.96289 1.96289Q2.35352 1.57227 3.08594 1.57227L19.9414 1.57227Q20.6641 1.57227 21.0596 1.96289Q21.4551 2.35352 21.4551 3.11523L21.4551 14.873Q21.4551 15.6348 21.0596 16.0205Q20.6641 16.4062 19.9414 16.4062Z" fill="#007aff"/>
 </g>
</svg>
