<?xml version="1.0" encoding="UTF-8"?>
<!--Generator: Apple Native CoreSVG 175-->
<!DOCTYPE svg
PUBLIC "-//W3C//DTD SVG 1.1//EN"
       "http://www.w3.org/Graphics/SVG/1.1/DTD/svg11.dtd">
<svg version="1.1" xmlns="http://www.w3.org/2000/svg" xmlns:xlink="http://www.w3.org/1999/xlink" width="12.4063" height="15.6854">
 <g>
  <rect height="15.6854" opacity="0" width="12.4063" x="0" y="0"/>
  <path d="M0 15.1235L1.87744 15.63Q2.39151 15.7648 2.69386 15.5718Q2.99622 15.3789 2.99622 14.9194L2.99622 10.4575L9.04877 10.4575L9.04877 7.97181L0.411682 7.97181L0.411682 14.7284Q0.411682 14.9136 0.306854 15.0185Q0.202026 15.1235 0 15.1235ZM0.411682 7.27174L2.99622 7.27174L2.99622 2.14372Q2.99622 1.73158 2.78915 1.48767Q2.58209 1.24375 2.18201 1.13389L0.234833 0.614482Q0.298004 0.661326 0.354843 0.735713Q0.411682 0.8101 0.411682 0.961314ZM9.4101 15.1235L11.2875 15.63Q11.8016 15.7648 12.104 15.5718Q12.4063 15.3789 12.4063 14.9194L12.4063 2.14372Q12.4063 1.73158 12.2014 1.48629Q11.9965 1.24101 11.5895 1.13114L9.64493 0.614482Q9.70825 0.661326 9.76509 0.735713Q9.82193 0.8101 9.82193 0.961314L9.82193 14.7284Q9.82193 14.9136 9.71703 15.0185Q9.61212 15.1235 9.4101 15.1235Z" fill="rgba(255,255,255,0.85)"/>
 </g>
</svg>
