<?xml version="1.0" encoding="UTF-8"?>
<!--Generator: Apple Native CoreSVG 175-->
<!DOCTYPE svg
PUBLIC "-//W3C//DTD SVG 1.1//EN"
       "http://www.w3.org/Graphics/SVG/1.1/DTD/svg11.dtd">
<svg version="1.1" xmlns="http://www.w3.org/2000/svg" xmlns:xlink="http://www.w3.org/1999/xlink" width="19.1602" height="19.1504">
 <g>
  <rect height="19.1504" opacity="0" width="19.1602" x="0" y="0"/>
  <path d="M9.57031 19.1406Q11.5527 19.1406 13.2861 18.3984Q15.0195 17.6562 16.3379 16.333Q17.6562 15.0098 18.4082 13.2764Q19.1602 11.543 19.1602 9.57031Q19.1602 7.59766 18.4082 5.86426Q17.6562 4.13086 16.3379 2.80762Q15.0195 1.48438 13.2861 0.742188Q11.5527 0 9.57031 0Q7.59766 0 5.86426 0.742188Q4.13086 1.48438 2.81738 2.80762Q1.50391 4.13086 0.751953 5.86426Q0 7.59766 0 9.57031Q0 11.543 0.74707 13.2764Q1.49414 15.0098 2.8125 16.333Q4.13086 17.6562 5.86914 18.3984Q7.60742 19.1406 9.57031 19.1406Z" fill="#ffffff"/>
  <path d="M6.45508 13.7402L6.45508 5.85938Q6.45508 5.69336 6.55762 5.5957Q6.66016 5.49805 6.81641 5.49805L8.75977 5.49805Q9.76562 5.49805 10.2148 5.97656Q10.6641 6.45508 10.6641 7.57812L10.6641 11.4062Q10.6641 11.5625 10.5713 11.6504Q10.4785 11.7383 10.332 11.7383Q10.1855 11.7383 10.0977 11.6504Q10.0098 11.5625 10.0098 11.4062L10.0098 7.64648Q10.0098 6.80664 9.70215 6.47949Q9.39453 6.15234 8.67188 6.15234L7.09961 6.15234L7.09961 13.7402Q7.09961 13.8965 7.0166 13.9844Q6.93359 14.0723 6.78711 14.0723Q6.64062 14.0723 6.54785 13.9844Q6.45508 13.8965 6.45508 13.7402ZM8.24219 13.6426L8.24219 8.04688Q8.24219 7.89062 8.33496 7.79785Q8.42773 7.70508 8.56445 7.70508Q8.71094 7.70508 8.79883 7.79785Q8.88672 7.89062 8.88672 8.04688L8.88672 13.3398L10.1855 13.3398Q10.9863 13.3398 11.3965 13.0029Q11.8066 12.666 11.8066 11.7285L11.8066 5.81055Q11.8066 5.64453 11.8945 5.55664Q11.9824 5.46875 12.1289 5.46875Q12.2754 5.46875 12.3633 5.55664Q12.4512 5.64453 12.4512 5.81055L12.4512 11.7188Q12.4512 12.9395 11.9092 13.4717Q11.3672 14.0039 10.2344 14.0039L8.60352 14.0039Q8.4375 14.0039 8.33984 13.9062Q8.24219 13.8086 8.24219 13.6426Z" fill="#ffffff"/>
 </g>
</svg>
