<?xml version="1.0" encoding="UTF-8"?>
<!--Generator: Apple Native CoreSVG 175.5-->
<!DOCTYPE svg
PUBLIC "-//W3C//DTD SVG 1.1//EN"
       "http://www.w3.org/Graphics/SVG/1.1/DTD/svg11.dtd">
<svg version="1.1" xmlns="http://www.w3.org/2000/svg" xmlns:xlink="http://www.w3.org/1999/xlink" width="19.7461" height="19.7754">
 <g>
  <rect height="19.7754" opacity="0" width="19.7461" x="0" y="0"/>
  <path d="M2.37305 5.14648L2.37305 11.6895Q2.37305 13.0078 2.75879 13.9795Q3.14453 14.9512 3.99902 15.7861Q4.85352 16.6211 6.26465 17.5098Q7.67578 18.3984 9.7168 19.5605Q9.90234 19.6582 10.0732 19.7021Q10.2441 19.7461 10.3613 19.7461Q10.4785 19.7461 10.6494 19.7021Q10.8203 19.6582 11.0059 19.5605Q12.1191 18.9746 13.0322 18.457Q13.9453 17.9395 14.6777 17.4707ZM17.5293 14.873Q17.9688 14.1992 18.1592 13.4229Q18.3496 12.6465 18.3496 11.6895L18.3496 4.32617Q18.3496 3.57422 18.0322 3.24219Q17.7148 2.91016 17.0996 2.65625Q16.7578 2.50977 16.1621 2.28516Q15.5664 2.06055 14.8486 1.79688Q14.1309 1.5332 13.4131 1.26953Q12.6953 1.00586 12.1045 0.795898Q11.5137 0.585938 11.1719 0.46875Q10.9766 0.410156 10.7715 0.371094Q10.5664 0.332031 10.3613 0.332031Q10.1562 0.332031 9.95605 0.371094Q9.75586 0.410156 9.56055 0.46875Q9.11133 0.625 8.31055 0.908203Q7.50977 1.19141 6.58691 1.5332Q5.66406 1.875 4.84375 2.17773Z" fill="#007aff"/>
  <path d="M18.457 19.5508Q18.6816 19.7754 18.9941 19.7754Q19.3066 19.7754 19.5215 19.5508Q19.7461 19.3359 19.7461 19.0234Q19.7461 18.7109 19.5215 18.4863L1.28906 0.263672Q1.06445 0.0390625 0.751953 0.0390625Q0.439453 0.0390625 0.214844 0.263672Q0 0.46875 0 0.791016Q0 1.11328 0.214844 1.32812Z" fill="#007aff"/>
 </g>
</svg>
