<?xml version="1.0" encoding="UTF-8"?>
<!--Generator: Apple Native CoreSVG 175.5-->
<!DOCTYPE svg
PUBLIC "-//W3C//DTD SVG 1.1//EN"
       "http://www.w3.org/Graphics/SVG/1.1/DTD/svg11.dtd">
<svg version="1.1" xmlns="http://www.w3.org/2000/svg" xmlns:xlink="http://www.w3.org/1999/xlink" width="16.2305" height="20.2441">
 <g>
  <rect height="20.2441" opacity="0" width="16.2305" x="0" y="0"/>
  <path d="M16.2305 12.0508L16.2305 4.58008Q16.2305 3.80859 15.9082 3.47168Q15.5859 3.13477 14.9609 2.88086Q14.6191 2.73438 14.0137 2.5Q13.4082 2.26562 12.6807 1.99219Q11.9531 1.71875 11.2207 1.4502Q10.4883 1.18164 9.88281 0.97168Q9.27734 0.761719 8.93555 0.664062Q8.74023 0.615234 8.53027 0.566406Q8.32031 0.517578 8.11523 0.517578Q7.91016 0.517578 7.70508 0.561523Q7.5 0.605469 7.30469 0.664062Q6.95312 0.78125 6.34766 0.996094Q5.74219 1.21094 5.01465 1.47461Q4.28711 1.73828 3.55469 2.00684Q2.82227 2.27539 2.2168 2.50488Q1.61133 2.73438 1.26953 2.88086Q0.654297 3.14453 0.327148 3.47656Q0 3.80859 0 4.58008L0 12.0508Q0 13.3887 0.390625 14.3799Q0.78125 15.3711 1.65039 16.2207Q2.51953 17.0703 3.9502 17.9736Q5.38086 18.877 7.46094 20.0488Q7.64648 20.1465 7.82227 20.1953Q7.99805 20.2441 8.11523 20.2441Q8.23242 20.2441 8.4082 20.1953Q8.58398 20.1465 8.76953 20.0488Q10.8496 18.877 12.2803 17.9688Q13.7109 17.0605 14.5801 16.2109Q15.4492 15.3613 15.8398 14.375Q16.2305 13.3887 16.2305 12.0508ZM7.91016 18.4375Q7.82227 18.4082 7.72461 18.3594Q7.62695 18.3105 7.50977 18.2422Q5.82031 17.2168 4.67285 16.4746Q3.52539 15.7324 2.8418 15.0684Q2.1582 14.4043 1.85547 13.6133Q1.55273 12.8223 1.55273 11.6895L1.55273 4.88281Q1.55273 4.63867 1.61621 4.51172Q1.67969 4.38477 1.88477 4.31641Q2.33398 4.16016 2.9248 3.9502Q3.51562 3.74023 4.16992 3.50586Q4.82422 3.27148 5.47363 3.03223Q6.12305 2.79297 6.7041 2.57324Q7.28516 2.35352 7.72461 2.17773Q7.7832 2.14844 7.82715 2.13867Q7.87109 2.12891 7.91016 2.11914Z" fill="#007aff"/>
 </g>
</svg>
