<?xml version="1.0" encoding="UTF-8"?>
<!--Generator: Apple Native CoreSVG 175-->
<!DOCTYPE svg
PUBLIC "-//W3C//DTD SVG 1.1//EN"
       "http://www.w3.org/Graphics/SVG/1.1/DTD/svg11.dtd">
<svg version="1.1" xmlns="http://www.w3.org/2000/svg" xmlns:xlink="http://www.w3.org/1999/xlink" width="20.7597" height="17.8021">
 <g>
  <rect height="17.8021" opacity="0" width="20.7597" x="0" y="0"/>
  <path d="M6.94183 17.5626L13.8179 17.5626Q14.5129 17.5626 14.927 17.1487Q15.341 16.7349 15.341 16.0493L15.341 11.0767L19.9036 11.0767Q20.2812 11.0767 20.5205 10.8663Q20.7597 10.656 20.7597 10.3102Q20.7597 10.1021 20.6584 9.92004Q20.5571 9.73801 20.3778 9.55872L11.4137 0.574646Q11.0602 0.218506 10.8327 0.109253Q10.6052 0 10.3786 0Q10.1547 0 9.92363 0.109253Q9.69254 0.218506 9.34616 0.574646L0.38208 9.55872Q0.197296 9.7435 0.0986481 9.92279Q0 10.1021 0 10.3102Q0 10.656 0.237885 10.8663Q0.475769 11.0767 0.846558 11.0767L5.4187 11.0767L5.4187 16.0493Q5.4187 16.7349 5.83282 17.1487Q6.24695 17.5626 6.94183 17.5626ZM6.97159 16.8504Q6.61377 16.8504 6.38519 16.6268Q6.15662 16.4032 6.15662 16.0384L6.15662 10.6372Q6.15662 10.3685 5.89066 10.3685L1.11877 10.3685Q0.884857 10.3685 0.884857 10.206Q0.884857 10.0911 0.999603 9.9762L9.87106 1.09039Q10.0423 0.919189 10.1543 0.857468Q10.2664 0.795746 10.3786 0.795746Q10.4933 0.795746 10.6055 0.857468Q10.7176 0.919189 10.8859 1.09039L19.7504 9.9762Q19.8723 10.0911 19.8723 10.206Q19.8723 10.3685 19.6382 10.3685L14.8691 10.3685Q14.6031 10.3685 14.6031 10.6372L14.6031 16.0384Q14.6031 16.4005 14.3732 16.6254Q14.1434 16.8504 13.7813 16.8504Z" fill="#007aff"/>
 </g>
</svg>
