<?xml version="1.0" encoding="UTF-8"?>
<!--Generator: Apple Native CoreSVG 175.5-->
<!DOCTYPE svg
PUBLIC "-//W3C//DTD SVG 1.1//EN"
       "http://www.w3.org/Graphics/SVG/1.1/DTD/svg11.dtd">
<svg version="1.1" xmlns="http://www.w3.org/2000/svg" xmlns:xlink="http://www.w3.org/1999/xlink" width="28.3691" height="21.4941">
 <g>
  <rect height="21.4941" opacity="0" width="28.3691" x="0" y="0"/>
  <path d="M8.65234 13.7109L8.65234 14.4824Q8.65234 15.5273 9.00391 16.0254Q9.35547 16.5234 10.0195 16.9043L17.7051 21.2598Q18.1152 21.4941 18.5107 21.4941Q18.9062 21.4941 19.3262 21.2598L27.002 16.9043Q27.6758 16.5234 28.0225 16.0254Q28.3691 15.5273 28.3691 14.4824L28.3691 6.74805Q28.3691 5.98633 28.0811 5.4834Q27.793 4.98047 27.1777 4.62891L20.2637 0.703125Q19.3848 0.195312 18.5156 0.195312Q17.6465 0.195312 16.7578 0.703125L9.85352 4.62891Q9.22852 4.98047 8.94043 5.4834Q8.65234 5.98633 8.65234 6.74805L8.65234 10L10.1367 10L10.1367 7.06055L17.7441 11.4062L17.7441 19.5117L10.8984 15.6152Q10.4688 15.3809 10.3027 15.1074Q10.1367 14.834 10.1367 14.4336L10.1367 13.7109ZM26.1328 15.6152L19.2773 19.5117L19.2773 11.4062L26.8848 7.06055L26.8848 14.4336Q26.8848 14.834 26.7188 15.1074Q26.5527 15.3809 26.1328 15.6152ZM18.5156 10.0391L10.9766 5.77148L13.9941 4.04297L21.5332 8.33008ZM23.1055 7.44141L15.5371 3.16406L17.4121 2.09961Q18.5254 1.46484 19.6191 2.09961L26.0547 5.77148Z" fill="#007aff"/>
  <path d="M12.3535 11.8555Q12.3535 11.4746 12.1094 11.2305Q11.8652 10.9863 11.4941 10.9863L4.93164 10.9863L1.92383 11.084L1.92383 11.6309L4.58984 9.20898L5.9375 8.01758Q6.10352 7.88086 6.16211 7.70508Q6.2207 7.5293 6.2207 7.35352Q6.2207 6.99219 5.97168 6.75293Q5.72266 6.51367 5.36133 6.51367Q5.01953 6.51367 4.73633 6.77734L0.302734 11.2012Q0 11.4844 0 11.8555Q0 12.2266 0.302734 12.5098L4.70703 16.9043Q4.87305 17.0605 5.03418 17.1289Q5.19531 17.1973 5.36133 17.1973Q5.72266 17.1973 5.97168 16.958Q6.2207 16.7188 6.2207 16.3574Q6.2207 16.1816 6.16211 16.0059Q6.10352 15.8301 5.9375 15.6934L4.58984 14.502L1.92383 12.0801L1.92383 12.627L4.93164 12.7246L11.4941 12.7246Q11.8652 12.7246 12.1094 12.4805Q12.3535 12.2363 12.3535 11.8555Z" fill="#007aff"/>
 </g>
</svg>
