<?xml version="1.0" encoding="UTF-8"?>
<!--Generator: Apple Native CoreSVG 175.5-->
<!DOCTYPE svg
PUBLIC "-//W3C//DTD SVG 1.1//EN"
       "http://www.w3.org/Graphics/SVG/1.1/DTD/svg11.dtd">
<svg version="1.1" xmlns="http://www.w3.org/2000/svg" xmlns:xlink="http://www.w3.org/1999/xlink" width="19.7168" height="21.4941">
 <g>
  <rect height="21.4941" opacity="0" width="19.7168" x="0" y="0"/>
  <path d="M1.36719 16.9043L9.05273 21.2598Q9.46289 21.4941 9.8584 21.4941Q10.2539 21.4941 10.6738 21.2598L18.3496 16.9043Q19.0234 16.5137 19.3701 16.0205Q19.7168 15.5273 19.7168 14.4824L19.7168 6.74805Q19.7168 5.98633 19.4287 5.48828Q19.1406 4.99023 18.5254 4.62891L11.6113 0.703125Q10.7324 0.195312 9.86328 0.195312Q8.99414 0.195312 8.10547 0.703125L1.20117 4.62891Q0.576172 4.99023 0.288086 5.48828Q0 5.98633 0 6.74805L0 14.4824Q0 15.5273 0.351562 16.0205Q0.703125 16.5137 1.36719 16.9043ZM2.24609 15.6152Q1.81641 15.3711 1.65039 15.1025Q1.48438 14.834 1.48438 14.4336L1.48438 7.06055L9.0918 11.4062L9.0918 19.5117ZM17.4805 15.6152L10.625 19.5117L10.625 11.4062L18.2324 7.06055L18.2324 14.4336Q18.2324 14.834 18.0664 15.1025Q17.9004 15.3711 17.4805 15.6152ZM9.86328 10.0391L2.32422 5.77148L5.3418 4.04297L12.8809 8.33008ZM14.4531 7.44141L6.88477 3.16406L8.75977 2.09961Q9.87305 1.46484 10.9668 2.09961L17.4023 5.77148Z" fill="#007aff"/>
 </g>
</svg>
