<?xml version="1.0" encoding="UTF-8"?>
<!--Generator: Apple Native CoreSVG 175.5-->
<!DOCTYPE svg
PUBLIC "-//W3C//DTD SVG 1.1//EN"
       "http://www.w3.org/Graphics/SVG/1.1/DTD/svg11.dtd">
<svg version="1.1" xmlns="http://www.w3.org/2000/svg" xmlns:xlink="http://www.w3.org/1999/xlink" width="18.0989" height="22.7637">
 <g>
  <rect height="22.7637" opacity="0" width="18.0989" x="0" y="0"/>
  <path d="M4.0332 0Q3.24219 0 2.51465 0.532227Q1.78711 1.06445 1.2207 1.91895Q0.654297 2.77344 0.327148 3.76953Q0 4.76562 0 5.70312Q0 6.29883 0.141602 7.21191Q0.283203 8.125 0.576172 9.15527Q0.869141 10.1855 1.33789 11.123L6.73828 11.123Q7.20703 10.1855 7.5 9.15527Q7.79297 8.125 7.93457 7.21191Q8.07617 6.29883 8.07617 5.70312Q8.07617 4.76562 7.74902 3.76953Q7.42188 2.77344 6.85059 1.91895Q6.2793 1.06445 5.55664 0.532227Q4.83398 0 4.0332 0ZM4.04297 16.8652Q4.80469 16.8652 5.32715 16.3965Q5.84961 15.9277 6.11816 15.1025Q6.38672 14.2773 6.38672 13.2031Q6.38672 13.0469 6.37207 12.8418Q6.35742 12.6367 6.32812 12.4609L1.75781 12.4609Q1.72852 12.6367 1.71387 12.8418Q1.69922 13.0469 1.69922 13.2031Q1.69922 14.8145 2.2998 15.8398Q2.90039 16.8652 4.04297 16.8652ZM15.8984 6.41602Q15.1562 6.14258 14.292 6.39648Q13.4277 6.65039 12.6025 7.25586Q11.7773 7.86133 11.1279 8.68652Q10.4785 9.51172 10.1562 10.3906Q9.95117 10.9473 9.77051 11.8555Q9.58984 12.7637 9.5166 13.833Q9.44336 14.9023 9.55078 15.9473L14.6289 17.793Q15.3906 17.0605 16.0205 16.1963Q16.6504 15.332 17.0947 14.5264Q17.5391 13.7207 17.7441 13.1445Q18.0664 12.2754 18.0957 11.2256Q18.125 10.1758 17.8857 9.17969Q17.6465 8.18359 17.1484 7.43652Q16.6504 6.68945 15.8984 6.41602ZM10.1367 22.2656Q11.2109 22.6562 12.1289 21.8945Q13.0469 21.1328 13.5938 19.6289Q13.6523 19.4824 13.7061 19.2822Q13.7598 19.082 13.7988 18.9062L9.50195 17.334Q9.41406 17.4902 9.32617 17.6807Q9.23828 17.8711 9.18945 18.0176Q8.64258 19.5312 8.85254 20.6982Q9.0625 21.8652 10.1367 22.2656Z" fill="#007aff"/>
 </g>
</svg>
