<?xml version="1.0" encoding="UTF-8"?>
<!--Generator: Apple Native CoreSVG 175-->
<!DOCTYPE svg
PUBLIC "-//W3C//DTD SVG 1.1//EN"
       "http://www.w3.org/Graphics/SVG/1.1/DTD/svg11.dtd">
<svg version="1.1" xmlns="http://www.w3.org/2000/svg" xmlns:xlink="http://www.w3.org/1999/xlink" width="22.666" height="17.3145">
 <g>
  <rect height="17.3145" opacity="0" width="22.666" x="0" y="0"/>
  <path d="M2.62695 17.3145L20.0195 17.3145Q21.3281 17.3145 21.9971 16.6455Q22.666 15.9766 22.666 14.6875L22.666 2.65625Q22.666 1.37695 21.9971 0.703125Q21.3281 0.0292969 20.0195 0.0292969L2.62695 0.0292969Q1.33789 0.0292969 0.668945 0.693359Q0 1.35742 0 2.65625L0 14.6875Q0 15.9863 0.668945 16.6504Q1.33789 17.3145 2.62695 17.3145ZM2.65625 16.5918Q1.70898 16.5918 1.2207 16.1035Q0.732422 15.6152 0.732422 14.6582L0.732422 2.69531Q0.732422 1.72852 1.2207 1.24512Q1.70898 0.761719 2.65625 0.761719L20 0.761719Q20.9277 0.761719 21.4307 1.24512Q21.9336 1.72852 21.9336 2.69531L21.9336 14.6582Q21.9336 15.6152 21.4307 16.1035Q20.9277 16.5918 20 16.5918ZM7.04102 16.748L7.75391 16.748L7.75391 0.507812L7.04102 0.507812ZM5.18555 4.4043Q5.3125 4.4043 5.41016 4.31152Q5.50781 4.21875 5.50781 4.10156Q5.50781 3.96484 5.41016 3.87695Q5.3125 3.78906 5.18555 3.78906L2.59766 3.78906Q2.46094 3.78906 2.36816 3.87695Q2.27539 3.96484 2.27539 4.10156Q2.27539 4.21875 2.36816 4.31152Q2.46094 4.4043 2.59766 4.4043ZM5.18555 7.07031Q5.3125 7.07031 5.41016 6.97754Q5.50781 6.88477 5.50781 6.75781Q5.50781 6.63086 5.41016 6.53809Q5.3125 6.44531 5.18555 6.44531L2.59766 6.44531Q2.46094 6.44531 2.36816 6.53809Q2.27539 6.63086 2.27539 6.75781Q2.27539 6.88477 2.36816 6.97754Q2.46094 7.07031 2.59766 7.07031ZM5.18555 9.7168Q5.3125 9.7168 5.41016 9.62402Q5.50781 9.53125 5.50781 9.4043Q5.50781 9.27734 5.41016 9.18457Q5.3125 9.0918 5.18555 9.0918L2.59766 9.0918Q2.46094 9.0918 2.36816 9.18457Q2.27539 9.27734 2.27539 9.4043Q2.27539 9.53125 2.36816 9.62402Q2.46094 9.7168 2.59766 9.7168Z" fill="#007aff"/>
 </g>
</svg>
