<?xml version="1.0" encoding="UTF-8"?>
<!--Generator: Apple Native CoreSVG 175.5-->
<!DOCTYPE svg
PUBLIC "-//W3C//DTD SVG 1.1//EN"
       "http://www.w3.org/Graphics/SVG/1.1/DTD/svg11.dtd">
<svg version="1.1" xmlns="http://www.w3.org/2000/svg" xmlns:xlink="http://www.w3.org/1999/xlink" width="23.0273" height="17.998">
 <g>
  <rect height="17.998" opacity="0" width="23.0273" x="0" y="0"/>
  <path d="M3.06641 17.998L19.9609 17.998Q21.5039 17.998 22.2656 17.2412Q23.0273 16.4844 23.0273 14.9707L23.0273 3.04688Q23.0273 1.5332 22.2656 0.776367Q21.5039 0.0195312 19.9609 0.0195312L3.06641 0.0195312Q1.5332 0.0195312 0.766602 0.776367Q0 1.5332 0 3.04688L0 14.9707Q0 16.4844 0.766602 17.2412Q1.5332 17.998 3.06641 17.998ZM3.08594 16.4258Q2.35352 16.4258 1.96289 16.04Q1.57227 15.6543 1.57227 14.8926L1.57227 3.125Q1.57227 2.36328 1.96289 1.97754Q2.35352 1.5918 3.08594 1.5918L19.9414 1.5918Q20.6641 1.5918 21.0596 1.97754Q21.4551 2.36328 21.4551 3.125L21.4551 14.8926Q21.4551 15.6543 21.0596 16.04Q20.6641 16.4258 19.9414 16.4258ZM14.082 16.7285L15.6152 16.7285L15.6152 1.29883L14.082 1.29883ZM19.4629 6.25977Q19.9121 6.25977 19.9121 5.82031L19.9121 3.99414Q19.9121 3.54492 19.4629 3.54492L17.6172 3.54492Q17.1777 3.54492 17.1777 3.99414L17.1777 5.82031Q17.1777 6.01562 17.3047 6.1377Q17.4316 6.25977 17.6172 6.25977ZM19.4629 10.3613Q19.6582 10.3613 19.7852 10.2344Q19.9121 10.1074 19.9121 9.92188L19.9121 8.07617Q19.9121 7.89062 19.79 7.75879Q19.668 7.62695 19.4629 7.62695L17.6172 7.62695Q17.4219 7.62695 17.2998 7.75879Q17.1777 7.89062 17.1777 8.07617L17.1777 9.92188Q17.1777 10.1074 17.3047 10.2344Q17.4316 10.3613 17.6172 10.3613ZM19.4629 14.4434Q19.9121 14.4434 19.9121 14.0039L19.9121 12.1777Q19.9121 11.7285 19.4629 11.7285L17.6172 11.7285Q17.1777 11.7285 17.1777 12.1777L17.1777 14.0039Q17.1777 14.1992 17.3047 14.3213Q17.4316 14.4434 17.6172 14.4434Z" fill="#007aff"/>
 </g>
</svg>
