<?xml version="1.0" encoding="UTF-8"?>
<!--Generator: Apple Native CoreSVG 175.5-->
<!DOCTYPE svg
PUBLIC "-//W3C//DTD SVG 1.1//EN"
       "http://www.w3.org/Graphics/SVG/1.1/DTD/svg11.dtd">
<svg version="1.1" xmlns="http://www.w3.org/2000/svg" xmlns:xlink="http://www.w3.org/1999/xlink" width="23.0273" height="17.998">
 <g>
  <rect height="17.998" opacity="0" width="23.0273" x="0" y="0"/>
  <path d="M3.06641 17.998L19.9609 17.998Q21.5039 17.998 22.2656 17.2412Q23.0273 16.4844 23.0273 14.9707L23.0273 3.04688Q23.0273 1.5332 22.2656 0.776367Q21.5039 0.0195312 19.9609 0.0195312L3.06641 0.0195312Q1.5332 0.0195312 0.766602 0.776367Q0 1.5332 0 3.04688L0 14.9707Q0 16.4844 0.766602 17.2412Q1.5332 17.998 3.06641 17.998ZM3.08594 16.4258Q2.35352 16.4258 1.96289 16.04Q1.57227 15.6543 1.57227 14.8926L1.57227 3.125Q1.57227 2.36328 1.96289 1.97754Q2.35352 1.5918 3.08594 1.5918L19.9414 1.5918Q20.6641 1.5918 21.0596 1.97754Q21.4551 2.36328 21.4551 3.125L21.4551 14.8926Q21.4551 15.6543 21.0596 16.04Q20.6641 16.4258 19.9414 16.4258ZM14.082 16.7285L15.6152 16.7285L15.6152 1.29883L14.082 1.29883ZM17.4902 5.21484L19.5801 5.21484Q19.8047 5.21484 19.9707 5.04395Q20.1367 4.87305 20.1367 4.66797Q20.1367 4.44336 19.9707 4.28223Q19.8047 4.12109 19.5801 4.12109L17.4902 4.12109Q17.2656 4.12109 17.0996 4.28223Q16.9336 4.44336 16.9336 4.66797Q16.9336 4.87305 17.0996 5.04395Q17.2656 5.21484 17.4902 5.21484ZM17.4902 7.74414L19.5801 7.74414Q19.8047 7.74414 19.9707 7.57812Q20.1367 7.41211 20.1367 7.1875Q20.1367 6.97266 19.9707 6.81152Q19.8047 6.65039 19.5801 6.65039L17.4902 6.65039Q17.2656 6.65039 17.0996 6.81152Q16.9336 6.97266 16.9336 7.1875Q16.9336 7.41211 17.0996 7.57812Q17.2656 7.74414 17.4902 7.74414ZM17.4902 10.2637L19.5801 10.2637Q19.8047 10.2637 19.9707 10.1025Q20.1367 9.94141 20.1367 9.72656Q20.1367 9.50195 19.9707 9.34082Q19.8047 9.17969 19.5801 9.17969L17.4902 9.17969Q17.2656 9.17969 17.0996 9.34082Q16.9336 9.50195 16.9336 9.72656Q16.9336 9.94141 17.0996 10.1025Q17.2656 10.2637 17.4902 10.2637Z" fill="#007aff"/>
 </g>
</svg>
