<?xml version="1.0" encoding="UTF-8"?>
<!--Generator: Apple Native CoreSVG 175.5-->
<!DOCTYPE svg
PUBLIC "-//W3C//DTD SVG 1.1//EN"
       "http://www.w3.org/Graphics/SVG/1.1/DTD/svg11.dtd">
<svg version="1.1" xmlns="http://www.w3.org/2000/svg" xmlns:xlink="http://www.w3.org/1999/xlink" width="20.0099" height="21.3574">
 <g>
  <rect height="21.3574" opacity="0" width="20.0099" x="0" y="0"/>
  <path d="M2.07031 12.4512L14.8145 12.4316Q15.4785 12.4316 15.8545 12.2461Q16.2305 12.0605 16.6016 11.6992L19.209 9.20898Q20 8.45703 20.0098 7.70508Q20.0195 6.95312 19.1992 6.16211L16.6016 3.68164Q16.2305 3.32031 15.8545 3.12988Q15.4785 2.93945 14.8242 2.93945L2.07031 2.93945Q1.07422 2.93945 0.537109 3.4668Q0 3.99414 0 4.9707L0 10.4102Q0 11.3965 0.537109 11.9238Q1.07422 12.4512 2.07031 12.4512ZM2.10938 10.8691Q1.88477 10.8691 1.74805 10.7324Q1.61133 10.5957 1.61133 10.3613L1.61133 5.01953Q1.61133 4.78516 1.74805 4.64844Q1.88477 4.51172 2.10938 4.51172L14.7754 4.51172Q15.0586 4.51172 15.1953 4.5752Q15.332 4.63867 15.4785 4.76562L18.1543 7.30469Q18.3496 7.4707 18.3496 7.68066Q18.3496 7.89062 18.1543 8.06641L15.4688 10.6152Q15.332 10.7422 15.1953 10.8057Q15.0586 10.8691 14.7656 10.8691ZM8.24219 4.16992L9.81445 4.16992L9.81445 0.791016Q9.81445 0.46875 9.58008 0.234375Q9.3457 0 9.02344 0Q8.70117 0 8.47168 0.234375Q8.24219 0.46875 8.24219 0.791016ZM8.24219 11.8945L8.24219 20.5078L9.81445 20.5078L9.81445 11.8945ZM4.48242 19.7754Q4.48242 20.0977 4.7168 20.3271Q4.95117 20.5566 5.27344 20.5566L12.793 20.5566Q13.1152 20.5566 13.3496 20.3271Q13.584 20.0977 13.584 19.7754Q13.584 19.4531 13.3496 19.2188Q13.1152 18.9844 12.793 18.9844L5.27344 18.9844Q4.95117 18.9844 4.7168 19.2188Q4.48242 19.4531 4.48242 19.7754Z" fill="#007aff"/>
 </g>
</svg>
