<?xml version="1.0" encoding="UTF-8"?>
<!--Generator: Apple Native CoreSVG 175-->
<!DOCTYPE svg
PUBLIC "-//W3C//DTD SVG 1.1//EN"
       "http://www.w3.org/Graphics/SVG/1.1/DTD/svg11.dtd">
<svg version="1.1" xmlns="http://www.w3.org/2000/svg" xmlns:xlink="http://www.w3.org/1999/xlink" width="18.4138" height="19.5856">
 <g>
  <rect height="19.5856" opacity="0" width="18.4138" x="0" y="0"/>
  <path d="M8.16483 3.15048L8.88641 3.15048L8.88641 0.362091Q8.88641 0.215607 8.77861 0.107803Q8.67081 0 8.52417 0Q8.37769 0 8.27126 0.107803Q8.16483 0.215607 8.16483 0.362091ZM1.64841 10.7637L13.8794 10.7512Q14.4028 10.7512 14.7295 10.6043Q15.0563 10.4575 15.3571 10.1805L17.7957 7.94342Q18.4039 7.38831 18.4137 6.73828Q18.4235 6.08826 17.7859 5.5011L15.3571 3.27377Q15.0563 2.99683 14.7295 2.8521Q14.4028 2.70737 13.8821 2.70737L1.64841 2.70737Q0.870361 2.70737 0.435181 3.13278Q0 3.5582 0 4.31686L0 9.14459Q0 9.90585 0.435181 10.3348Q0.870361 10.7637 1.64841 10.7637ZM8.16483 10.4391L8.16483 19.0384L8.88641 19.0384L8.88641 10.4391ZM4.71451 18.8895Q4.71451 19.0359 4.82231 19.1424Q4.93011 19.2488 5.0766 19.2488L11.9844 19.2488Q12.1379 19.2488 12.2422 19.1424Q12.3465 19.0359 12.3465 18.8895Q12.3465 18.736 12.2422 18.6282Q12.1379 18.5204 11.9844 18.5204L5.0766 18.5204Q4.93011 18.5204 4.82231 18.6282Q4.71451 18.736 4.71451 18.8895Z" fill="#007aff"/>
 </g>
</svg>
