<?xml version="1.0" encoding="UTF-8"?>
<!--Generator: Apple Native CoreSVG 175-->
<!DOCTYPE svg
PUBLIC "-//W3C//DTD SVG 1.1//EN"
       "http://www.w3.org/Graphics/SVG/1.1/DTD/svg11.dtd">
<svg version="1.1" xmlns="http://www.w3.org/2000/svg" xmlns:xlink="http://www.w3.org/1999/xlink" width="15.7812" height="20.6738">
 <g>
  <rect height="20.6738" opacity="0" width="15.7812" x="0" y="0"/>
  <path d="M0 18.0469Q0 19.3457 0.664062 20.0098Q1.32812 20.6738 2.62695 20.6738L13.1543 20.6738Q14.4434 20.6738 15.1123 20.0049Q15.7812 19.3359 15.7812 18.0469L15.7812 6.86523Q15.7812 6.38672 15.6445 6.02539Q15.5078 5.66406 15.2246 5.38086L10.4395 0.625Q10.1758 0.351562 9.78516 0.19043Q9.39453 0.0292969 8.94531 0.0292969L2.62695 0.0292969Q1.34766 0.0292969 0.673828 0.698242Q0 1.36719 0 2.66602ZM0.732422 18.0176L0.732422 2.68555Q0.732422 1.76758 1.21582 1.25977Q1.69922 0.751953 2.66602 0.751953L8.94531 0.751953Q9.59961 0.751953 9.96094 1.14258L14.6484 5.83008Q14.8535 6.02539 14.9512 6.28906Q15.0488 6.55273 15.0488 6.88477L15.0488 18.0176Q15.0488 18.9746 14.5605 19.4629Q14.0723 19.9512 13.1152 19.9512L2.65625 19.9512Q1.69922 19.9512 1.21582 19.4629Q0.732422 18.9746 0.732422 18.0176ZM3.24219 16.1621Q3.24219 16.9336 3.64746 17.3389Q4.05273 17.7441 4.82422 17.7441L6.2207 17.7441L6.2207 12.627Q6.2207 12.4902 6.07422 12.4902L3.24219 12.4902ZM3.24219 11.8652L6.30859 11.8652Q6.57227 11.8652 6.70898 12.002Q6.8457 12.1387 6.8457 12.4023L6.8457 17.7441L8.85742 17.7441L8.85742 9.14062L4.82422 9.14062Q4.05273 9.14062 3.64746 9.5459Q3.24219 9.95117 3.24219 10.7324ZM9.47266 17.7441L10.9668 17.7441Q11.7383 17.7441 12.1436 17.3389Q12.5488 16.9336 12.5488 16.1621L12.5488 10.7324Q12.5488 9.95117 12.1436 9.5459Q11.7383 9.14062 10.9668 9.14062L9.47266 9.14062Z" fill="#000000"/>
 </g>
</svg>
