<?xml version="1.0" encoding="UTF-8"?>
<!--Generator: Apple Native CoreSVG 175-->
<!DOCTYPE svg
PUBLIC "-//W3C//DTD SVG 1.1//EN"
       "http://www.w3.org/Graphics/SVG/1.1/DTD/svg11.dtd">
<svg version="1.1" xmlns="http://www.w3.org/2000/svg" xmlns:xlink="http://www.w3.org/1999/xlink" width="18.4961" height="20.0879">
 <g>
  <rect height="20.0879" opacity="0" width="18.4961" x="0" y="0"/>
  <path d="M7.00195 20L16.1621 20Q17.3047 20 17.9004 19.3994Q18.4961 18.7988 18.4961 17.6562L18.4961 7.93945Q18.4961 7.50977 18.374 7.18262Q18.252 6.85547 17.998 6.60156L13.8379 2.4707Q13.584 2.23633 13.2373 2.08496Q12.8906 1.93359 12.5098 1.93359L7.00195 1.93359Q5.85938 1.93359 5.26367 2.53418Q4.66797 3.13477 4.66797 4.28711L4.66797 17.6562Q4.66797 18.7988 5.26367 19.3994Q5.85938 20 7.00195 20ZM7.03125 19.2773Q6.21094 19.2773 5.80078 18.8672Q5.39062 18.457 5.39062 17.6465L5.39062 4.29688Q5.39062 3.49609 5.81055 3.08105Q6.23047 2.66602 7.03125 2.66602L12.5098 2.66602Q13.0371 2.66602 13.3496 2.97852L17.4316 7.06055Q17.5977 7.2168 17.6807 7.43652Q17.7637 7.65625 17.7637 7.93945L17.7637 17.6465Q17.7637 18.457 17.3584 18.8672Q16.9531 19.2773 16.1328 19.2773ZM4.9707 17.1289L4.9707 16.4062L2.35352 16.4062Q1.5332 16.4062 1.13281 15.9961Q0.732422 15.5859 0.732422 14.7852L0.732422 2.35352Q0.732422 1.5625 1.14258 1.14258Q1.55273 0.722656 2.36328 0.722656L7.83203 0.722656Q8.08594 0.722656 8.30566 0.805664Q8.52539 0.888672 8.68164 1.04492L9.96094 2.32422L10.9473 2.32422L9.16016 0.537109Q8.91602 0.292969 8.56445 0.146484Q8.21289 0 7.83203 0L2.32422 0Q1.19141 0 0.595703 0.600586Q0 1.20117 0 2.34375L0 14.7852Q0 15.9375 0.595703 16.5332Q1.19141 17.1289 2.32422 17.1289ZM7.40234 16.123Q7.40234 16.8164 7.76367 17.1777Q8.125 17.5391 8.79883 17.5391L9.95117 17.5391L9.95117 13.0273Q9.95117 12.8906 9.81445 12.8906L7.40234 12.8906ZM7.40234 12.2852L10.0391 12.2852Q10.293 12.2852 10.4248 12.4219Q10.5566 12.5586 10.5566 12.8223L10.5566 17.5391L12.4316 17.5391L12.4316 9.78516L8.79883 9.78516Q8.125 9.78516 7.76367 10.1416Q7.40234 10.498 7.40234 11.1914ZM13.0273 17.5391L14.2578 17.5391Q14.9414 17.5391 15.2979 17.1777Q15.6543 16.8164 15.6543 16.123L15.6543 11.1914Q15.6543 10.498 15.2979 10.1416Q14.9414 9.78516 14.2578 9.78516L13.0273 9.78516ZM4.67773 14.668L4.67773 10.6445L2.83203 10.6445L2.83203 13.2617Q2.83203 13.9453 3.19336 14.3066Q3.55469 14.668 4.22852 14.668ZM4.67773 10.0488L4.67773 7.5293L4.22852 7.5293Q3.55469 7.5293 3.19336 7.89551Q2.83203 8.26172 2.83203 8.94531L2.83203 10.0488Z" fill="#000000"/>
 </g>
</svg>
