<?xml version="1.0" encoding="UTF-8"?>
<!--Generator: Apple Native CoreSVG 175-->
<!DOCTYPE svg
PUBLIC "-//W3C//DTD SVG 1.1//EN"
       "http://www.w3.org/Graphics/SVG/1.1/DTD/svg11.dtd">
<svg version="1.1" xmlns="http://www.w3.org/2000/svg" xmlns:xlink="http://www.w3.org/1999/xlink" width="17.2313" height="16.5457">
 <g>
  <rect height="16.5457" opacity="0" width="17.2313" x="0" y="0"/>
  <path d="M0 10.9512Q0 11.4972 0.271683 11.9521Q0.543365 12.4071 0.99823 12.6788Q1.45309 12.9504 1.99921 12.9504Q2.54532 12.9504 3.00018 12.6788Q3.45505 12.4071 3.7281 11.9521Q4.00116 11.4972 4.00116 10.9512Q4.00116 10.3981 3.7281 9.94667Q3.45505 9.49524 3.00018 9.22356Q2.54532 8.95187 1.99921 8.95187Q1.45309 8.95187 0.99823 9.22356Q0.543365 9.49524 0.271683 9.94667Q0 10.3981 0 10.9512ZM0.723114 10.9512Q0.723114 10.4164 1.09871 10.0457Q1.4743 9.67499 2.00897 9.67499Q2.54379 9.67499 2.91451 10.0457Q3.28522 10.4164 3.28522 10.9512Q3.28522 11.4886 2.91451 11.8545Q2.54379 12.2203 2.00897 12.2203Q1.4743 12.2203 1.09871 11.8545Q0.723114 11.4886 0.723114 10.9512ZM2.00897 0Q1.85974 0 1.75331 0.10643Q1.64688 0.21286 1.64688 0.362091L1.64688 9.35623L2.37549 9.35623L2.37549 0.362091Q2.37549 0.21286 2.26898 0.10643Q2.16248 0 2.00897 0ZM2.00897 16.414Q2.16248 16.414 2.26898 16.309Q2.37549 16.2039 2.37549 16.0559L2.37549 12.5449L1.64688 12.5449L1.64688 16.0559Q1.64688 16.2039 1.75331 16.309Q1.85974 16.414 2.00897 16.414ZM6.60309 4.84955Q6.60309 5.40268 6.87614 5.85411Q7.1492 6.30554 7.60056 6.57722Q8.05191 6.84891 8.60504 6.84891Q9.15115 6.84891 9.60609 6.57722Q10.061 6.30554 10.3327 5.85411Q10.6044 5.40268 10.6044 4.84955Q10.6044 4.30359 10.3327 3.84865Q10.061 3.39371 9.60609 3.12202Q9.15115 2.85034 8.60504 2.85034Q8.05191 2.85034 7.60056 3.12202Q7.1492 3.39371 6.87614 3.84865Q6.60309 4.30359 6.60309 4.84955ZM7.32895 4.84955Q7.32895 4.31488 7.70317 3.94768Q8.07739 3.58047 8.61206 3.58047Q9.14963 3.58047 9.51897 3.94768Q9.88831 4.31488 9.88831 4.84955Q9.88831 5.38712 9.51897 5.75645Q9.14963 6.12579 8.61206 6.12579Q8.07739 6.12579 7.70317 5.75645Q7.32895 5.38712 7.32895 4.84955ZM8.61206 0Q8.46283 0 8.35777 0.105057Q8.25272 0.210114 8.25272 0.358124L8.25272 3.27545L8.9743 3.27545L8.9743 0.358124Q8.9743 0.210114 8.8678 0.105057Q8.76129 0 8.61206 0ZM8.61206 16.414Q8.76129 16.414 8.8678 16.3076Q8.9743 16.2012 8.9743 16.0519L8.9743 6.43051L8.25272 6.43051L8.25272 16.0519Q8.25272 16.2012 8.35777 16.3076Q8.46283 16.414 8.61206 16.414ZM13.2329 10.9512Q13.2329 11.4972 13.5046 11.9521Q13.7762 12.4071 14.2311 12.6788Q14.686 12.9504 15.2321 12.9504Q15.7852 12.9504 16.2401 12.6788Q16.6949 12.4071 16.9631 11.9521Q17.2313 11.4972 17.2313 10.9512Q17.2313 10.3981 16.9631 9.94667Q16.6949 9.49524 16.2401 9.22356Q15.7852 8.95187 15.2321 8.95187Q14.686 8.95187 14.2311 9.22356Q13.7762 9.49524 13.5046 9.94667Q13.2329 10.3981 13.2329 10.9512ZM13.9629 10.9512Q13.9629 10.4164 14.3371 10.0457Q14.7113 9.67499 15.2461 9.67499Q15.7835 9.67499 16.1494 10.0457Q16.5152 10.4164 16.5152 10.9512Q16.5152 11.4886 16.1494 11.8545Q15.7835 12.2203 15.2461 12.2203Q14.7113 12.2203 14.3371 11.8545Q13.9629 11.4886 13.9629 10.9512ZM15.218 0Q15.0618 0 14.9553 0.10643Q14.8488 0.21286 14.8488 0.362091L14.8488 9.2926L15.5774 9.2926L15.5774 0.362091Q15.5774 0.21286 15.471 0.10643Q15.3645 0 15.218 0ZM15.218 16.414Q15.3645 16.414 15.471 16.309Q15.5774 16.2039 15.5774 16.0559L15.5774 12.5769L14.8488 12.5769L14.8488 16.0559Q14.8488 16.2039 14.9553 16.309Q15.0618 16.414 15.218 16.414Z" fill="#007aff"/>
 </g>
</svg>
