<?xml version="1.0" encoding="UTF-8"?>
<!--Generator: Apple Native CoreSVG 175.5-->
<!DOCTYPE svg
PUBLIC "-//W3C//DTD SVG 1.1//EN"
       "http://www.w3.org/Graphics/SVG/1.1/DTD/svg11.dtd">
<svg version="1.1" xmlns="http://www.w3.org/2000/svg" xmlns:xlink="http://www.w3.org/1999/xlink" width="19.6777" height="16.6504">
 <g>
  <rect height="16.6504" opacity="0" width="19.6777" x="0" y="0"/>
  <path d="M13.3398 16.6504Q13.9844 16.6504 14.5166 16.333Q15.0488 16.0156 15.3662 15.4834Q15.6836 14.9512 15.6836 14.3066Q15.6836 13.6621 15.3662 13.1299Q15.0488 12.5977 14.5166 12.2803Q13.9844 11.9629 13.3398 11.9629Q12.6953 11.9629 12.1631 12.2803Q11.6309 12.5977 11.3086 13.1299Q10.9863 13.6621 10.9863 14.3066Q10.9863 14.9512 11.3086 15.4834Q11.6309 16.0156 12.1631 16.333Q12.6953 16.6504 13.3398 16.6504ZM13.3398 15.4492Q12.8613 15.4492 12.5293 15.1172Q12.1973 14.7852 12.1973 14.3066Q12.1973 13.8184 12.5293 13.4912Q12.8613 13.1641 13.3398 13.1641Q13.8184 13.1641 14.1504 13.4912Q14.4824 13.8184 14.4824 14.3066Q14.4824 14.7852 14.1504 15.1172Q13.8184 15.4492 13.3398 15.4492ZM11.7871 13.5156L0.78125 13.5156Q0.458984 13.5156 0.229492 13.7451Q0 13.9746 0 14.3066Q0 14.6289 0.229492 14.8584Q0.458984 15.0879 0.78125 15.0879L11.7871 15.0879ZM18.9258 13.5156L15.0391 13.5156L15.0391 15.0879L18.9258 15.0879Q19.2285 15.0879 19.4531 14.8584Q19.6777 14.6289 19.6777 14.3066Q19.6777 13.9746 19.4531 13.7451Q19.2285 13.5156 18.9258 13.5156ZM6.44531 10.6934Q7.08984 10.6934 7.62207 10.3711Q8.1543 10.0488 8.47168 9.5166Q8.78906 8.98438 8.78906 8.33984Q8.78906 7.69531 8.47168 7.16309Q8.1543 6.63086 7.62207 6.31348Q7.08984 5.99609 6.44531 5.99609Q5.80078 5.99609 5.26855 6.31348Q4.73633 6.63086 4.41895 7.16309Q4.10156 7.69531 4.10156 8.33984Q4.10156 8.98438 4.41895 9.5166Q4.73633 10.0488 5.26855 10.3711Q5.80078 10.6934 6.44531 10.6934ZM6.44531 9.48242Q5.9668 9.48242 5.63477 9.15039Q5.30273 8.81836 5.30273 8.33984Q5.30273 7.85156 5.63477 7.52441Q5.9668 7.19727 6.44531 7.19727Q6.93359 7.19727 7.26074 7.52441Q7.58789 7.85156 7.58789 8.33984Q7.58789 8.81836 7.26074 9.15039Q6.93359 9.48242 6.44531 9.48242ZM0.742188 7.54883Q0.449219 7.54883 0.224609 7.77832Q0 8.00781 0 8.33984Q0 8.67188 0.224609 8.89648Q0.449219 9.12109 0.742188 9.12109L4.76562 9.12109L4.76562 7.54883ZM18.8867 7.54883L7.99805 7.54883L7.99805 9.12109L18.8867 9.12109Q19.2188 9.12109 19.4482 8.89648Q19.6777 8.67188 19.6777 8.33984Q19.6777 8.00781 19.4482 7.77832Q19.2188 7.54883 18.8867 7.54883ZM13.3398 4.7168Q13.9844 4.7168 14.5166 4.39941Q15.0488 4.08203 15.3662 3.5498Q15.6836 3.01758 15.6836 2.37305Q15.6836 1.72852 15.3662 1.19629Q15.0488 0.664062 14.5166 0.341797Q13.9844 0.0195312 13.3398 0.0195312Q12.6953 0.0195312 12.1631 0.341797Q11.6309 0.664062 11.3086 1.19629Q10.9863 1.72852 10.9863 2.37305Q10.9863 3.01758 11.3086 3.5498Q11.6309 4.08203 12.1631 4.39941Q12.6953 4.7168 13.3398 4.7168ZM13.3398 3.51562Q12.8613 3.51562 12.5293 3.17871Q12.1973 2.8418 12.1973 2.36328Q12.1973 1.88477 12.5293 1.55273Q12.8613 1.2207 13.3398 1.2207Q13.8184 1.2207 14.1504 1.55273Q14.4824 1.88477 14.4824 2.36328Q14.4824 2.8418 14.1504 3.17871Q13.8184 3.51562 13.3398 3.51562ZM11.8359 1.5918L0.78125 1.5918Q0.458984 1.5918 0.229492 1.82129Q0 2.05078 0 2.37305Q0 2.70508 0.229492 2.93457Q0.458984 3.16406 0.78125 3.16406L11.8359 3.16406ZM18.9258 1.5918L14.9023 1.5918L14.9023 3.16406L18.9258 3.16406Q19.2285 3.16406 19.4531 2.93457Q19.6777 2.70508 19.6777 2.37305Q19.6777 2.05078 19.4531 1.82129Q19.2285 1.5918 18.9258 1.5918Z" fill="#007aff"/>
 </g>
</svg>
