<?xml version="1.0" encoding="UTF-8"?>
<!--Generator: Apple Native CoreSVG 175-->
<!DOCTYPE svg
PUBLIC "-//W3C//DTD SVG 1.1//EN"
       "http://www.w3.org/Graphics/SVG/1.1/DTD/svg11.dtd">
<svg version="1.1" xmlns="http://www.w3.org/2000/svg" xmlns:xlink="http://www.w3.org/1999/xlink" width="18.9043" height="16.0458">
 <g>
  <rect height="16.0458" opacity="0" width="18.9043" x="0" y="0"/>
  <path d="M13.3398 16.0458Q13.886 16.0458 14.3408 15.7777Q14.7957 15.5095 15.0674 15.0546Q15.3391 14.5996 15.3391 14.0465Q15.3391 13.5005 15.0674 13.0456Q14.7957 12.5906 14.3408 12.319Q13.886 12.0473 13.3398 12.0473Q12.7867 12.0473 12.3354 12.319Q11.884 12.5906 11.6109 13.0456Q11.3379 13.5005 11.3379 14.0465Q11.3379 14.5996 11.6109 15.0546Q11.884 15.5095 12.3354 15.7777Q12.7867 16.0458 13.3398 16.0458ZM13.3398 15.3227Q12.805 15.3227 12.4344 14.9485Q12.0638 14.5743 12.0638 14.0395Q12.0638 13.502 12.4344 13.1327Q12.805 12.7634 13.3398 12.7634Q13.8747 12.7634 14.2418 13.1327Q14.6089 13.502 14.6089 14.0395Q14.6089 14.5743 14.2418 14.9485Q13.8747 15.3227 13.3398 15.3227ZM11.745 13.6774L0.359344 13.6774Q0.21286 13.6774 0.10643 13.7838Q0 13.8902 0 14.0395Q0 14.1859 0.10643 14.2924Q0.21286 14.399 0.359344 14.399L11.745 14.399ZM18.5461 13.6774L14.9336 13.6774L14.9336 14.399L18.5461 14.399Q18.6942 14.399 18.7992 14.2924Q18.9043 14.1859 18.9043 14.0395Q18.9043 13.8902 18.7992 13.7838Q18.6942 13.6774 18.5461 13.6774ZM5.99533 10.0746Q6.54144 10.0746 6.99631 9.80164Q7.45117 9.52866 7.72285 9.07372Q7.99454 8.61877 7.99454 8.07266Q7.99454 7.51953 7.72285 7.06467Q7.45117 6.6098 6.99631 6.34163Q6.54144 6.07346 5.99533 6.07346Q5.4422 6.07346 4.98734 6.34163Q4.53247 6.6098 4.2643 7.06467Q3.99612 7.51953 3.99612 8.07266Q3.99612 8.61877 4.2643 9.07372Q4.53247 9.52866 4.98734 9.80164Q5.4422 10.0746 5.99533 10.0746ZM5.99533 9.34189Q5.45349 9.34189 5.08636 8.96767Q4.71924 8.59344 4.71924 8.05862Q4.71924 7.52121 5.08636 7.15538Q5.45349 6.78955 5.99533 6.78955Q6.5329 6.78955 6.89865 7.15538Q7.2644 7.52121 7.2644 8.05862Q7.2644 8.59344 6.89865 8.96767Q6.5329 9.34189 5.99533 9.34189ZM0.35553 7.69653Q0.210114 7.69653 0.105057 7.80296Q0 7.90939 0 8.05862Q0 8.21487 0.105057 8.32001Q0.210114 8.42514 0.35553 8.42514L4.42108 8.42514L4.42108 7.69653ZM18.5422 7.69653L7.56912 7.69653L7.56912 8.42514L18.5422 8.42514Q18.6914 8.42514 18.7978 8.32001Q18.9043 8.21487 18.9043 8.05862Q18.9043 7.90939 18.7978 7.80296Q18.6914 7.69653 18.5422 7.69653ZM13.3398 4.06296Q13.886 4.06296 14.3408 3.79128Q14.7957 3.51959 15.0674 3.06473Q15.3391 2.60986 15.3391 2.06375Q15.3391 1.51062 15.0674 1.05576Q14.7957 0.600891 14.3408 0.331345Q13.886 0.0617981 13.3398 0.0617981Q12.7867 0.0617981 12.3354 0.331345Q11.884 0.600891 11.6109 1.05576Q11.3379 1.51062 11.3379 2.06375Q11.3379 2.60986 11.6109 3.06473Q11.884 3.51959 12.3354 3.79128Q12.7867 4.06296 13.3398 4.06296ZM13.3398 3.33282Q12.805 3.33282 12.4344 2.95723Q12.0638 2.58163 12.0638 2.04697Q12.0638 1.51215 12.4344 1.14494Q12.805 0.77774 13.3398 0.77774Q13.8747 0.77774 14.2418 1.14494Q14.6089 1.51215 14.6089 2.04697Q14.6089 2.58163 14.2418 2.95723Q13.8747 3.33282 13.3398 3.33282ZM11.6812 1.71844L0.359344 1.71844Q0.21286 1.71844 0.10643 1.82487Q0 1.9313 0 2.07779Q0 2.23404 0.10643 2.34047Q0.21286 2.4469 0.359344 2.4469L11.6812 2.4469ZM18.5461 1.71844L14.9657 1.71844L14.9657 2.4469L18.5461 2.4469Q18.6942 2.4469 18.7992 2.34047Q18.9043 2.23404 18.9043 2.07779Q18.9043 1.9313 18.7992 1.82487Q18.6942 1.71844 18.5461 1.71844Z" fill="#007aff"/>
 </g>
</svg>
