<?xml version="1.0" encoding="UTF-8"?>
<!--Generator: Apple Native CoreSVG 175.5-->
<!DOCTYPE svg
PUBLIC "-//W3C//DTD SVG 1.1//EN"
       "http://www.w3.org/Graphics/SVG/1.1/DTD/svg11.dtd">
<svg version="1.1" xmlns="http://www.w3.org/2000/svg" xmlns:xlink="http://www.w3.org/1999/xlink" width="28.2665" height="21.6895">
 <g>
  <rect height="21.6895" opacity="0" width="28.2665" x="0" y="0"/>
  <path d="M3.06641 19.8438L16.4062 19.8438Q15.9766 19.4824 15.7812 19.0869Q15.5859 18.6914 15.4883 18.2715L3.08594 18.2715Q2.36328 18.2715 1.96777 17.8857Q1.57227 17.5 1.57227 16.7383L1.57227 4.9707Q1.57227 4.20898 1.96777 3.82324Q2.36328 3.4375 3.08594 3.4375L19.9414 3.4375Q20.6738 3.4375 21.0645 3.82324Q21.4551 4.20898 21.4551 4.9707L21.4551 10.4785Q21.8457 10.4297 22.2266 10.4297Q22.6074 10.4297 23.0273 10.4785L23.0273 4.89258Q23.0273 3.37891 22.2656 2.62207Q21.5039 1.86523 19.9609 1.86523L3.06641 1.86523Q1.5332 1.86523 0.766602 2.62207Q0 3.37891 0 4.89258L0 16.8164Q0 18.3301 0.766602 19.0869Q1.5332 19.8438 3.06641 19.8438ZM13.0957 6.35742L4.0332 6.35742Q3.76953 6.35742 3.5791 6.54297Q3.38867 6.72852 3.38867 7.00195Q3.38867 7.26562 3.5791 7.45117Q3.76953 7.63672 4.0332 7.63672L13.0957 7.63672ZM14.3555 8.92578Q15.1465 8.92578 15.7178 8.35449Q16.2891 7.7832 16.2891 6.99219Q16.2891 6.19141 15.7178 5.625Q15.1465 5.05859 14.3555 5.05859Q13.5547 5.05859 12.9883 5.62988Q12.4219 6.20117 12.4219 6.99219Q12.4219 7.7832 12.9883 8.35449Q13.5547 8.92578 14.3555 8.92578ZM14.3555 7.94922Q13.9453 7.94922 13.6768 7.6709Q13.4082 7.39258 13.4082 6.99219Q13.4082 6.58203 13.6768 6.31348Q13.9453 6.04492 14.3555 6.04492Q14.7656 6.04492 15.0391 6.31836Q15.3125 6.5918 15.3125 6.99219Q15.3125 7.39258 15.0391 7.6709Q14.7656 7.94922 14.3555 7.94922ZM19.0332 6.35742L15.6543 6.35742L15.6543 7.63672L19.0332 7.63672Q19.2676 7.63672 19.4531 7.45117Q19.6387 7.26562 19.6387 7.00195Q19.6387 6.72852 19.4531 6.54297Q19.2676 6.35742 19.0332 6.35742ZM4.00391 11.1816Q3.75977 11.1816 3.57422 11.3721Q3.38867 11.5625 3.38867 11.8262Q3.38867 12.0898 3.57422 12.2754Q3.75977 12.4609 4.00391 12.4609L7.30469 12.4609L7.30469 11.1816ZM8.70117 13.75Q9.50195 13.75 10.0684 13.1836Q10.6348 12.6172 10.6348 11.8262Q10.6348 11.0352 10.0684 10.459Q9.50195 9.88281 8.70117 9.88281Q7.90039 9.88281 7.33887 10.459Q6.77734 11.0352 6.77734 11.8262Q6.77734 12.6172 7.33887 13.1836Q7.90039 13.75 8.70117 13.75ZM8.70117 12.7734Q8.30078 12.7734 8.02734 12.5Q7.75391 12.2266 7.75391 11.8262Q7.75391 11.4062 8.02734 11.1377Q8.30078 10.8691 8.70117 10.8691Q9.11133 10.8691 9.38477 11.1377Q9.6582 11.4062 9.6582 11.8262Q9.6582 12.2168 9.38477 12.4951Q9.11133 12.7734 8.70117 12.7734ZM9.99023 12.4609L17.666 12.4609Q18.0176 12.0801 18.4229 11.7578Q18.8281 11.4355 19.2871 11.1816L9.99023 11.1816Z" fill="#007aff"/>
  <path d="M25.166 19.043Q24.6582 19.6973 23.8965 20.0879Q23.1348 20.4785 22.2461 20.4785Q21.2207 20.4785 20.3711 19.9658Q19.5215 19.4531 19.0088 18.6035Q18.4961 17.7539 18.4961 16.7285L17.2852 16.7285Q17.2852 17.7441 17.6758 18.6426Q18.0664 19.541 18.75 20.2246Q19.4336 20.9082 20.332 21.2988Q21.2305 21.6895 22.2461 21.6895Q23.3984 21.6895 24.3945 21.1914Q25.3906 20.6934 26.0645 19.8633Q26.2793 19.6094 26.2451 19.3652Q26.2109 19.1211 26.0254 18.9648Q25.8398 18.8086 25.6006 18.8086Q25.3613 18.8086 25.166 19.043ZM17.5586 15.5859L16.377 17.1582Q16.1426 17.4609 16.2744 17.7197Q16.4062 17.9785 16.7871 17.9785L19.2773 17.9785Q19.6582 17.9785 19.7998 17.7051Q19.9414 17.4316 19.6973 17.1582L18.418 15.5859Q18.2129 15.3516 17.9834 15.3467Q17.7539 15.3418 17.5586 15.5859ZM19.3262 14.4141Q19.834 13.7598 20.6006 13.3691Q21.3672 12.9785 22.2461 12.9785Q23.2715 12.9785 24.126 13.4863Q24.9805 13.9941 25.4883 14.8486Q25.9961 15.7031 25.9961 16.7285L27.207 16.7285Q27.207 15.7031 26.8213 14.8096Q26.4355 13.916 25.752 13.2275Q25.0684 12.5391 24.1699 12.1533Q23.2715 11.7676 22.2461 11.7676Q21.0938 11.7676 20.0977 12.2656Q19.1016 12.7637 18.4277 13.5938Q18.2129 13.8477 18.252 14.0918Q18.291 14.3359 18.4717 14.4922Q18.6523 14.6484 18.8916 14.6484Q19.1309 14.6484 19.3262 14.4141ZM26.9336 17.8711L28.125 16.2988Q28.3496 15.9961 28.2178 15.7373Q28.0859 15.4785 27.7051 15.4785L25.2246 15.4785Q24.8438 15.4785 24.7021 15.7471Q24.5605 16.0156 24.7949 16.2988L26.084 17.8711Q26.2793 18.1055 26.5137 18.1104Q26.748 18.1152 26.9336 17.8711Z" fill="#007aff"/>
 </g>
</svg>
