<?xml version="1.0" encoding="UTF-8"?>
<!--Generator: Apple Native CoreSVG 175.5-->
<!DOCTYPE svg
PUBLIC "-//W3C//DTD SVG 1.1//EN"
       "http://www.w3.org/Graphics/SVG/1.1/DTD/svg11.dtd">
<svg version="1.1" xmlns="http://www.w3.org/2000/svg" xmlns:xlink="http://www.w3.org/1999/xlink" width="22.0215" height="22.041">
 <g>
  <rect height="22.041" opacity="0" width="22.0215" x="0" y="0"/>
  <path d="M11.0059 0.0195312Q10.7129 0.0195312 10.5127 0.224609Q10.3125 0.429688 10.3125 0.722656L10.3125 4.18945Q10.3125 4.48242 10.5127 4.6875Q10.7129 4.89258 11.0059 4.89258Q11.3086 4.89258 11.5088 4.6875Q11.709 4.48242 11.709 4.18945L11.709 0.722656Q11.709 0.429688 11.5088 0.224609Q11.3086 0.0195312 11.0059 0.0195312Z" fill="#007aff"/>
  <path d="M16.5234 1.49414Q16.2598 1.34766 15.9863 1.4209Q15.7129 1.49414 15.5566 1.74805L13.8281 4.76562Q13.6816 5.01953 13.75 5.29297Q13.8184 5.56641 14.082 5.72266Q14.3457 5.85938 14.6143 5.78613Q14.8828 5.71289 15.0391 5.45898L16.7773 2.45117Q16.9141 2.19727 16.8457 1.91895Q16.7773 1.64062 16.5234 1.49414Z" fill="#007aff"/>
  <path d="M20.5566 5.52734Q20.4102 5.26367 20.127 5.19531Q19.8438 5.12695 19.5898 5.26367L16.582 7.00195Q16.3281 7.14844 16.25 7.42676Q16.1719 7.70508 16.3379 7.96875Q16.4844 8.22266 16.7529 8.29102Q17.0215 8.35938 17.2754 8.22266L20.293 6.48438Q20.5469 6.32812 20.625 6.05469Q20.7031 5.78125 20.5566 5.52734Z" fill="#007aff"/>
  <path d="M22.0215 11.0254Q22.0215 10.7324 21.8213 10.5322Q21.6211 10.332 21.3184 10.332L17.8516 10.332Q17.5586 10.332 17.3535 10.5322Q17.1484 10.7324 17.1484 11.0254Q17.1484 11.3281 17.3535 11.5283Q17.5586 11.7285 17.8516 11.7285L21.3184 11.7285Q21.6211 11.7285 21.8213 11.5283Q22.0215 11.3281 22.0215 11.0254Z" fill="#007aff"/>
  <path d="M20.5469 16.5332Q20.7031 16.2793 20.625 16.0059Q20.5469 15.7324 20.293 15.5762L17.2754 13.8379Q17.0215 13.7012 16.748 13.7695Q16.4746 13.8379 16.3281 14.0918Q16.1816 14.3555 16.2549 14.6289Q16.3281 14.9023 16.582 15.0586L19.5898 16.7969Q19.8438 16.9336 20.1221 16.8652Q20.4004 16.7969 20.5469 16.5332Z" fill="#007aff"/>
  <path d="M16.5137 20.5664Q16.7773 20.4199 16.8457 20.1416Q16.9141 19.8633 16.7773 19.6094L15.0391 16.6016Q14.8926 16.3477 14.6191 16.2695Q14.3457 16.1914 14.082 16.3379Q13.8184 16.4941 13.75 16.7676Q13.6816 17.041 13.8281 17.2949L15.5566 20.3027Q15.7129 20.5566 15.9863 20.6348Q16.2598 20.7129 16.5137 20.5664Z" fill="#007aff"/>
  <path d="M11.0059 22.041Q11.3086 22.041 11.5088 21.8359Q11.709 21.6309 11.709 21.3379L11.709 17.8711Q11.709 17.5781 11.5088 17.373Q11.3086 17.168 11.0059 17.168Q10.7129 17.168 10.5127 17.373Q10.3125 17.5781 10.3125 17.8711L10.3125 21.3379Q10.3125 21.6309 10.5127 21.8359Q10.7129 22.041 11.0059 22.041Z" fill="#007aff"/>
  <path d="M5.50781 20.5664Q5.77148 20.7129 6.04004 20.6348Q6.30859 20.5566 6.46484 20.3027L8.20312 17.2949Q8.33984 17.041 8.27148 16.7676Q8.20312 16.4941 7.94922 16.3477Q7.68555 16.2012 7.41211 16.2744Q7.13867 16.3477 6.98242 16.6016L5.25391 19.6094Q5.10742 19.8633 5.17578 20.1416Q5.24414 20.4199 5.50781 20.5664Z" fill="#007aff"/>
  <path d="M1.48438 16.5332Q1.62109 16.7969 1.89941 16.8652Q2.17773 16.9336 2.43164 16.7969L5.43945 15.0586Q5.69336 14.9023 5.77148 14.6289Q5.84961 14.3555 5.70312 14.1016Q5.54688 13.8379 5.27344 13.7695Q5 13.7012 4.74609 13.8379L1.73828 15.5762Q1.48438 15.7324 1.40625 16.0059Q1.32812 16.2793 1.48438 16.5332Z" fill="#007aff"/>
  <path d="M0 11.0254Q0 11.3281 0.205078 11.5283Q0.410156 11.7285 0.703125 11.7285L4.16992 11.7285Q4.47266 11.7285 4.67285 11.5283Q4.87305 11.3281 4.87305 11.0254Q4.87305 10.7324 4.67285 10.5322Q4.47266 10.332 4.16992 10.332L0.703125 10.332Q0.410156 10.332 0.205078 10.5322Q0 10.7324 0 11.0254Z" fill="#007aff"/>
  <path d="M1.48438 5.51758Q1.32812 5.78125 1.40625 6.05469Q1.48438 6.32812 1.73828 6.48438L4.74609 8.22266Q5 8.35938 5.27344 8.29102Q5.54688 8.22266 5.70312 7.96875Q5.84961 7.70508 5.77148 7.43164Q5.69336 7.1582 5.43945 7.00195L2.43164 5.26367Q2.17773 5.12695 1.89941 5.19531Q1.62109 5.26367 1.48438 5.51758Z" fill="#007aff"/>
  <path d="M5.50781 1.48438Q5.24414 1.63086 5.17578 1.91406Q5.10742 2.19727 5.25391 2.45117L6.98242 5.45898Q7.13867 5.71289 7.41211 5.79102Q7.68555 5.86914 7.93945 5.71289Q8.20312 5.56641 8.27148 5.29297Q8.33984 5.01953 8.20312 4.76562L6.46484 1.74805Q6.30859 1.49414 6.04004 1.41602Q5.77148 1.33789 5.50781 1.48438Z" fill="#007aff"/>
 </g>
</svg>
