<?xml version="1.0" encoding="UTF-8"?>
<!--Generator: Apple Native CoreSVG 175-->
<!DOCTYPE svg
PUBLIC "-//W3C//DTD SVG 1.1//EN"
       "http://www.w3.org/Graphics/SVG/1.1/DTD/svg11.dtd">
<svg version="1.1" xmlns="http://www.w3.org/2000/svg" xmlns:xlink="http://www.w3.org/1999/xlink" width="19.1602" height="19.1504">
 <g>
  <rect height="19.1504" opacity="0" width="19.1602" x="0" y="0"/>
  <path d="M9.57031 19.1406Q11.5527 19.1406 13.2861 18.3984Q15.0195 17.6562 16.3379 16.333Q17.6562 15.0098 18.4082 13.2764Q19.1602 11.543 19.1602 9.57031Q19.1602 7.59766 18.4082 5.86426Q17.6562 4.13086 16.3379 2.80762Q15.0195 1.48438 13.2861 0.742188Q11.5527 0 9.57031 0Q7.59766 0 5.86426 0.742188Q4.13086 1.48438 2.81738 2.80762Q1.50391 4.13086 0.751953 5.86426Q0 7.59766 0 9.57031Q0 11.543 0.74707 13.2764Q1.49414 15.0098 2.8125 16.333Q4.13086 17.6562 5.86914 18.3984Q7.60742 19.1406 9.57031 19.1406Z" fill="#ffffff"/>
  <path d="M9.57031 12.7832Q8.68164 12.7832 7.94922 12.3438Q7.2168 11.9043 6.77734 11.1768Q6.33789 10.4492 6.33789 9.55078Q6.33789 8.66211 6.77734 7.93945Q7.2168 7.2168 7.94922 6.77734Q8.68164 6.33789 9.57031 6.33789Q10.459 6.33789 11.1865 6.77734Q11.9141 7.2168 12.3535 7.93945Q12.793 8.66211 12.793 9.55078Q12.793 10.4492 12.3535 11.1768Q11.9141 11.9043 11.1865 12.3438Q10.459 12.7832 9.57031 12.7832ZM9.57031 12.0605Q10.2637 12.0605 10.8301 11.7236Q11.3965 11.3867 11.7334 10.8154Q12.0703 10.2441 12.0703 9.55078Q12.0703 8.86719 11.7334 8.30078Q11.3965 7.73438 10.8301 7.39746Q10.2637 7.06055 9.57031 7.06055Q8.88672 7.06055 8.31543 7.39746Q7.74414 7.73438 7.40723 8.30078Q7.07031 8.86719 7.07031 9.55078Q7.07031 10.2441 7.40723 10.8154Q7.74414 11.3867 8.31055 11.7236Q8.87695 12.0605 9.57031 12.0605Z" fill="#ffffff"/>
 </g>
</svg>
