<?xml version="1.0" encoding="UTF-8"?>
<!--Generator: Apple Native CoreSVG 175.5-->
<!DOCTYPE svg
PUBLIC "-//W3C//DTD SVG 1.1//EN"
       "http://www.w3.org/Graphics/SVG/1.1/DTD/svg11.dtd">
<svg version="1.1" xmlns="http://www.w3.org/2000/svg" xmlns:xlink="http://www.w3.org/1999/xlink" width="23.7598" height="18.0371">
 <g>
  <rect height="18.0371" opacity="0" width="23.7598" x="0" y="0"/>
  <path d="M7.50977 17.0312L19.6484 17.0312Q20.8691 17.0312 21.7969 16.5039Q22.7246 15.9766 23.2422 15.083Q23.7598 14.1895 23.7598 13.0859Q23.7598 12.1289 23.3398 11.3135Q22.9199 10.498 22.1973 9.94141Q21.4746 9.38477 20.5664 9.19922Q20.4883 8.00781 19.873 7.02637Q19.2578 6.04492 18.2568 5.46387Q17.2559 4.88281 16.0449 4.88281Q14.8535 4.88281 13.8574 5.42969Q12.8613 5.97656 12.2363 6.91406Q11.6211 6.70898 10.9961 6.70898Q10.0586 6.70898 9.27246 7.12402Q8.48633 7.53906 7.96387 8.26172Q7.44141 8.98438 7.30469 9.90234Q6.32812 9.93164 5.54199 10.4199Q4.75586 10.9082 4.29199 11.7041Q3.82812 12.5 3.82812 13.457Q3.82812 14.4531 4.28711 15.2637Q4.74609 16.0742 5.57617 16.5527Q6.40625 17.0312 7.50977 17.0312ZM2.87109 11.9434Q3.13477 11.0352 3.63281 10.3564Q4.13086 9.67773 4.8291 9.24805Q5.52734 8.81836 6.39648 8.65234Q6.75781 7.51953 7.4707 6.77246Q8.18359 6.02539 9.13086 5.6543Q10.0781 5.2832 11.1621 5.2832Q11.3379 5.2832 11.5088 5.30273Q11.6797 5.32227 11.8359 5.3418Q12.4805 4.4043 13.4473 3.94531Q14.4141 3.48633 15.6641 3.48633Q15.4102 2.82227 14.6729 2.31934Q13.9355 1.81641 12.7637 1.81641Q12.4219 1.81641 12.124 1.875Q11.8262 1.93359 11.5234 2.03125Q10.8789 1.09375 9.89746 0.546875Q8.91602 0 7.74414 0Q6.54297 0 5.53223 0.581055Q4.52148 1.16211 3.8916 2.13867Q3.26172 3.11523 3.19336 4.30664Q2.27539 4.50195 1.55273 5.06348Q0.830078 5.625 0.415039 6.43555Q0 7.24609 0 8.20312Q0 9.49219 0.751953 10.5127Q1.50391 11.5332 2.87109 11.9434Z" fill="#ffffff"/>
 </g>
</svg>
