<?xml version="1.0" encoding="UTF-8"?>
<!--Generator: Apple Native CoreSVG 175.5-->
<!DOCTYPE svg
PUBLIC "-//W3C//DTD SVG 1.1//EN"
       "http://www.w3.org/Graphics/SVG/1.1/DTD/svg11.dtd">
<svg version="1.1" xmlns="http://www.w3.org/2000/svg" xmlns:xlink="http://www.w3.org/1999/xlink" width="19.9219" height="19.9316">
 <g>
  <rect height="19.9316" opacity="0" width="19.9219" x="0" y="0"/>
  <path d="M9.96094 19.9219Q12.002 19.9219 13.8037 19.1406Q15.6055 18.3594 16.9824 16.9824Q18.3594 15.6055 19.1406 13.8037Q19.9219 12.002 19.9219 9.96094Q19.9219 7.91992 19.1406 6.11816Q18.3594 4.31641 16.9824 2.93945Q15.6055 1.5625 13.7988 0.78125Q11.9922 0 9.95117 0Q7.91016 0 6.1084 0.78125Q4.30664 1.5625 2.93457 2.93945Q1.5625 4.31641 0.78125 6.11816Q0 7.91992 0 9.96094Q0 12.002 0.78125 13.8037Q1.5625 15.6055 2.93945 16.9824Q4.31641 18.3594 6.11816 19.1406Q7.91992 19.9219 9.96094 19.9219ZM9.96094 18.2617Q8.23242 18.2617 6.72852 17.6172Q5.22461 16.9727 4.08691 15.835Q2.94922 14.6973 2.30957 13.1934Q1.66992 11.6895 1.66992 9.96094Q1.66992 8.23242 2.30957 6.72852Q2.94922 5.22461 4.08203 4.08203Q5.21484 2.93945 6.71875 2.2998Q8.22266 1.66016 9.95117 1.66016Q11.6797 1.66016 13.1885 2.2998Q14.6973 2.93945 15.835 4.08203Q16.9727 5.22461 17.6172 6.72852Q18.2617 8.23242 18.2617 9.96094Q18.2617 11.6895 17.6221 13.1934Q16.9824 14.6973 15.8398 15.835Q14.6973 16.9727 13.1934 17.6172Q11.6895 18.2617 9.96094 18.2617Z" fill="#007aff"/>
  <path d="M9.94141 16.0645Q10.1758 16.0645 10.3271 15.9131Q10.4785 15.7617 10.4785 15.5078L10.4785 14.4336L11.3184 14.9121Q11.5332 15.0293 11.7334 14.9854Q11.9336 14.9414 12.0508 14.7461Q12.1582 14.5605 12.0947 14.3604Q12.0312 14.1602 11.8262 14.0332L10.4785 13.2812L10.4785 12.5977L10.3711 10.7129L11.9727 11.7383L12.5488 12.0801L12.5391 13.6328Q12.5391 13.8672 12.6758 14.0234Q12.8125 14.1797 13.0273 14.1797Q13.2617 14.1797 13.3984 14.0283Q13.5352 13.877 13.5352 13.6328L13.5449 12.6367L14.4824 13.1934Q14.6875 13.3203 14.8926 13.2715Q15.0977 13.2227 15.2246 13.0176Q15.3418 12.8027 15.2832 12.5977Q15.2246 12.3926 15.0098 12.2656L14.0723 11.7285L14.9121 11.2402Q15.1172 11.1133 15.1855 10.9229Q15.2539 10.7324 15.1465 10.5371Q15.0293 10.3418 14.8193 10.2979Q14.6094 10.2539 14.4043 10.3711L13.0762 11.1523L12.4902 10.8008L10.791 9.96094L12.4902 9.11133L13.0762 8.75977L14.4043 9.55078Q14.6094 9.6582 14.8242 9.61914Q15.0391 9.58008 15.1465 9.39453Q15.2539 9.18945 15.1855 8.99902Q15.1172 8.80859 14.9121 8.67188L14.0723 8.18359L15.0098 7.65625Q15.2246 7.5293 15.2832 7.32422Q15.3418 7.11914 15.2246 6.9043Q15.1074 6.69922 14.8975 6.65039Q14.6875 6.60156 14.4824 6.71875L13.5449 7.26562L13.5352 6.28906Q13.5352 6.04492 13.3984 5.88867Q13.2617 5.73242 13.0371 5.73242Q12.8125 5.73242 12.6758 5.89355Q12.5391 6.05469 12.5391 6.28906L12.5488 7.83203L11.9727 8.17383L10.3711 9.19922L10.4785 7.32422L10.4785 6.64062L11.8262 5.88867Q12.0312 5.76172 12.0947 5.55664Q12.1582 5.35156 12.0508 5.17578Q11.9336 4.98047 11.7334 4.93164Q11.5332 4.88281 11.3184 5.00977L10.4785 5.48828L10.4785 4.41406Q10.4785 4.16016 10.3271 4.00879Q10.1758 3.85742 9.94141 3.85742Q9.7168 3.85742 9.56543 4.01367Q9.41406 4.16992 9.41406 4.41406L9.41406 5.49805L8.56445 5.00977Q8.33984 4.89258 8.14453 4.93652Q7.94922 4.98047 7.83203 5.17578Q7.72461 5.36133 7.79297 5.56152Q7.86133 5.76172 8.05664 5.87891L9.41406 6.64062L9.41406 7.32422L9.52148 9.19922L7.92969 8.18359L7.33398 7.83203L7.34375 6.28906Q7.34375 6.05469 7.20703 5.89355Q7.07031 5.73242 6.85547 5.73242Q6.62109 5.73242 6.48926 5.88379Q6.35742 6.03516 6.35742 6.28906L6.34766 7.26562L5.40039 6.71875Q5.19531 6.60156 4.98535 6.65527Q4.77539 6.70898 4.6582 6.9043Q4.54102 7.11914 4.59961 7.32422Q4.6582 7.5293 4.87305 7.65625L5.81055 8.18359L4.9707 8.67188Q4.75586 8.80859 4.69238 8.99902Q4.62891 9.18945 4.73633 9.39453Q4.84375 9.58008 5.05859 9.62402Q5.27344 9.66797 5.47852 9.55078L6.80664 8.76953L7.39258 9.11133L9.0918 9.96094L7.39258 10.8008L6.80664 11.1523L5.47852 10.3711Q5.27344 10.2539 5.05859 10.2979Q4.84375 10.3418 4.74609 10.5176Q4.63867 10.7227 4.69727 10.918Q4.75586 11.1133 4.9707 11.2402L5.81055 11.7285L4.87305 12.2656Q4.6582 12.3926 4.59961 12.5977Q4.54102 12.8027 4.6582 13.0176Q4.78516 13.2227 4.99023 13.2715Q5.19531 13.3203 5.40039 13.1934L6.34766 12.6562L6.35742 13.6328Q6.35742 13.877 6.48926 14.0283Q6.62109 14.1797 6.85547 14.1797Q7.07031 14.1797 7.20703 14.0234Q7.34375 13.8672 7.34375 13.6328L7.33398 12.0801L7.92969 11.7383L9.52148 10.7129L9.41406 12.5977L9.41406 13.2812L8.05664 14.0332Q7.86133 14.1602 7.79297 14.3604Q7.72461 14.5605 7.83203 14.7461Q7.94922 14.9414 8.14453 14.9805Q8.33984 15.0195 8.56445 14.9121L9.41406 14.4238L9.41406 15.5078Q9.41406 15.752 9.56543 15.9082Q9.7168 16.0645 9.94141 16.0645Z" fill="#007aff"/>
 </g>
</svg>
