<?xml version="1.0" encoding="UTF-8"?>
<!--Generator: Apple Native CoreSVG 175.5-->
<!DOCTYPE svg
PUBLIC "-//W3C//DTD SVG 1.1//EN"
       "http://www.w3.org/Graphics/SVG/1.1/DTD/svg11.dtd">
<svg version="1.1" xmlns="http://www.w3.org/2000/svg" xmlns:xlink="http://www.w3.org/1999/xlink" width="19.9219" height="19.9316">
 <g>
  <rect height="19.9316" opacity="0" width="19.9219" x="0" y="0"/>
  <path d="M9.96094 19.9219Q12.002 19.9219 13.8037 19.1406Q15.6055 18.3594 16.9824 16.9824Q18.3594 15.6055 19.1406 13.8037Q19.9219 12.002 19.9219 9.96094Q19.9219 7.91992 19.1406 6.11816Q18.3594 4.31641 16.9824 2.93945Q15.6055 1.5625 13.7988 0.78125Q11.9922 0 9.95117 0Q7.91016 0 6.1084 0.78125Q4.30664 1.5625 2.93457 2.93945Q1.5625 4.31641 0.78125 6.11816Q0 7.91992 0 9.96094Q0 12.002 0.78125 13.8037Q1.5625 15.6055 2.93457 16.9824Q4.30664 18.3594 6.1084 19.1406Q7.91016 19.9219 9.96094 19.9219ZM7.54883 18.2422Q6.04492 17.8027 4.79492 16.8604Q3.54492 15.918 2.71484 14.6289L6.01562 14.5801L7.38281 12.832L6.33789 9.60938L3.79883 8.58398L1.30859 9.99023Q1.31836 8.41797 1.84082 7.02637Q2.36328 5.63477 3.27148 4.52148L4.19922 7.57812L6.66016 8.57422L9.4043 6.46484L9.4043 3.89648L6.92383 1.88477Q7.62695 1.61133 8.39355 1.46973Q9.16016 1.32812 9.95117 1.32812Q11.5234 1.32812 12.9785 1.88477L10.5078 3.89648L10.5078 6.46484L13.252 8.57422L15.7031 7.57812L16.6309 4.52148Q17.5488 5.63477 18.0664 7.02637Q18.584 8.41797 18.5938 9.99023L16.1035 8.58398L13.5645 9.60938L12.5195 12.832L13.8867 14.5801L17.1875 14.6289Q16.3574 15.918 15.1074 16.8604Q13.8574 17.8027 12.3535 18.2422L13.0469 15.2539L11.7969 13.6621L8.10547 13.6621L6.86523 15.2539Z" fill="#007aff"/>
 </g>
</svg>
