<?xml version="1.0" encoding="UTF-8"?>
<!--Generator: Apple Native CoreSVG 175.5-->
<!DOCTYPE svg
PUBLIC "-//W3C//DTD SVG 1.1//EN"
       "http://www.w3.org/Graphics/SVG/1.1/DTD/svg11.dtd">
<svg version="1.1" xmlns="http://www.w3.org/2000/svg" xmlns:xlink="http://www.w3.org/1999/xlink" width="19.9219" height="19.9316">
 <g>
  <rect height="19.9316" opacity="0" width="19.9219" x="0" y="0"/>
  <path d="M9.96094 6.04492L6.15234 8.97461L7.67578 13.6621L12.2461 13.6621L13.7695 8.97461ZM13.3887 1.5625L9.95117 0.439453L6.50391 1.5625L9.95117 4.33594ZM9.42383 0.771484L9.42383 7.23633L10.5078 7.23633L10.5078 0.771484ZM16.7773 4.02344L15.498 8.25195L19.3457 10.4102L18.6426 6.35742ZM19.0039 7.41211L18.5938 6.41602L12.5977 8.83789L13.0078 9.84375ZM12.207 18.877L15.4688 17.4609L17.6953 14.6387L13.2031 14.5703ZM15.8203 17.0605L11.8457 11.9531L10.9766 12.6172L14.9609 17.7148ZM7.70508 18.8379L6.70898 14.5312L2.2168 14.5996L4.44336 17.4219ZM4.0918 17.0215L4.95117 17.6758L8.93555 12.5781L8.06641 11.9141ZM3.14453 4.02344L1.2793 6.35742L0.576172 10.4102L4.42383 8.25195ZM0.917969 7.41211L6.91406 9.84375L7.32422 8.83789L1.32812 6.41602ZM9.96094 19.9219Q12.002 19.9219 13.8037 19.1406Q15.6055 18.3594 16.9824 16.9824Q18.3594 15.6055 19.1406 13.8037Q19.9219 12.002 19.9219 9.96094Q19.9219 7.91992 19.1406 6.11816Q18.3594 4.31641 16.9824 2.93945Q15.6055 1.5625 13.7988 0.78125Q11.9922 0 9.95117 0Q7.91016 0 6.1084 0.78125Q4.30664 1.5625 2.93457 2.93945Q1.5625 4.31641 0.78125 6.11816Q0 7.91992 0 9.96094Q0 12.002 0.78125 13.8037Q1.5625 15.6055 2.93945 16.9824Q4.31641 18.3594 6.11816 19.1406Q7.91992 19.9219 9.96094 19.9219ZM9.96094 18.5938Q8.19336 18.5938 6.63086 17.915Q5.06836 17.2363 3.87695 16.0449Q2.68555 14.8535 2.00684 13.291Q1.32812 11.7285 1.32812 9.96094Q1.32812 8.19336 2.00684 6.63086Q2.68555 5.06836 3.87207 3.87695Q5.05859 2.68555 6.62109 2.00684Q8.18359 1.32812 9.95117 1.32812Q11.7188 1.32812 13.2812 2.00684Q14.8438 2.68555 16.04 3.87695Q17.2363 5.06836 17.915 6.63086Q18.5938 8.19336 18.5938 9.96094Q18.5938 11.7285 17.915 13.291Q17.2363 14.8535 16.0449 16.0449Q14.8535 17.2363 13.291 17.915Q11.7285 18.5938 9.96094 18.5938Z" fill="#007aff"/>
 </g>
</svg>
