<?xml version="1.0" encoding="UTF-8"?>
<!--Generator: Apple Native CoreSVG 175.5-->
<!DOCTYPE svg
PUBLIC "-//W3C//DTD SVG 1.1//EN"
       "http://www.w3.org/Graphics/SVG/1.1/DTD/svg11.dtd">
<svg version="1.1" xmlns="http://www.w3.org/2000/svg" xmlns:xlink="http://www.w3.org/1999/xlink" width="30.2051" height="17.1582">
 <g>
  <rect height="17.1582" opacity="0" width="30.2051" x="0" y="0"/>
  <path d="M2.97852 5.74219L4.62891 5.74219L4.62891 2.44141Q4.62891 2.08008 4.84863 1.86035Q5.06836 1.64062 5.41016 1.64062L13.4961 1.64062Q13.8477 1.64062 14.0625 1.86035Q14.2773 2.08008 14.2773 2.44141L14.2773 10.1953L15.9277 10.1953L15.9277 2.43164Q15.9277 1.32812 15.2783 0.664062Q14.6289 0 13.5742 0L5.3418 0Q4.27734 0 3.62793 0.664062Q2.97852 1.32812 2.97852 2.43164ZM27.4414 5.74219L27.4414 2.43164Q27.4414 1.32812 26.792 0.664062Q26.1426 0 25.0781 0L16.6309 0Q15.5762 0 14.9268 0.664062Q14.2773 1.32812 14.2773 2.43164L14.2773 10.1953L15.9277 10.1953L15.9277 2.44141Q15.9277 2.08008 16.1426 1.86035Q16.3574 1.64062 16.709 1.64062L25.0098 1.64062Q25.3613 1.64062 25.5762 1.86035Q25.791 2.08008 25.791 2.44141L25.791 5.74219ZM0 12.8125Q0 13.8672 0.639648 14.5068Q1.2793 15.1465 2.31445 15.1465L27.8906 15.1465Q28.9355 15.1465 29.5703 14.5068Q30.2051 13.8672 30.2051 12.8125L30.2051 6.875Q30.2051 5.82031 29.5703 5.18066Q28.9355 4.54102 27.8906 4.54102L26.543 4.54102Q25.5078 4.54102 24.873 5.18066Q24.2383 5.82031 24.2383 6.875L24.2383 9.21875L5.97656 9.21875L5.97656 6.875Q5.97656 5.82031 5.33691 5.18066Q4.69727 4.54102 3.66211 4.54102L2.31445 4.54102Q1.2793 4.54102 0.639648 5.18066Q0 5.82031 0 6.875ZM1.66016 12.793L1.66016 6.89453Q1.66016 6.57227 1.86035 6.37695Q2.06055 6.18164 2.39258 6.18164L3.57422 6.18164Q3.90625 6.18164 4.11133 6.37695Q4.31641 6.57227 4.31641 6.89453L4.31641 10.8594L25.8887 10.8594L25.8887 6.89453Q25.8887 6.57227 26.0938 6.37695Q26.2988 6.18164 26.6309 6.18164L27.8125 6.18164Q28.1445 6.18164 28.3496 6.37695Q28.5547 6.57227 28.5547 6.89453L28.5547 12.793Q28.5547 13.1152 28.3496 13.3105Q28.1445 13.5059 27.8125 13.5059L2.39258 13.5059Q2.06055 13.5059 1.86035 13.3105Q1.66016 13.1152 1.66016 12.793ZM3.55469 17.1387L4.16016 17.1387Q4.55078 17.1387 4.79004 16.9043Q5.0293 16.6699 5.0293 16.2793L5.0293 14.209L2.68555 14.209L2.68555 16.2793Q2.68555 16.6699 2.9248 16.9043Q3.16406 17.1387 3.55469 17.1387ZM26.0449 17.1387L26.6504 17.1387Q27.041 17.1387 27.2803 16.9043Q27.5195 16.6699 27.5195 16.2793L27.5195 14.209L25.1758 14.209L25.1758 16.2793Q25.1758 16.6699 25.415 16.9043Q25.6543 17.1387 26.0449 17.1387Z" fill="#007aff"/>
 </g>
</svg>
