<?xml version="1.0" encoding="UTF-8"?>
<!--Generator: Apple Native CoreSVG 175-->
<!DOCTYPE svg
PUBLIC "-//W3C//DTD SVG 1.1//EN"
       "http://www.w3.org/Graphics/SVG/1.1/DTD/svg11.dtd">
<svg version="1.1" xmlns="http://www.w3.org/2000/svg" xmlns:xlink="http://www.w3.org/1999/xlink" width="19.0234" height="18.9856">
 <g>
  <rect height="18.9856" opacity="0" width="19.0234" x="0" y="0"/>
  <path d="M9.51172 18.9758Q9.73587 18.9758 9.88907 18.8409Q10.0423 18.7059 10.0629 18.4833Q10.2747 16.3191 10.5415 14.8807Q10.8083 13.4422 11.2998 12.5596Q11.7914 11.6769 12.6678 11.1903Q13.5442 10.7036 14.9652 10.4507Q16.3863 10.1978 18.5226 10.011Q18.7383 9.99573 18.8808 9.84825Q19.0234 9.70078 19.0234 9.48792Q19.0234 9.27505 18.8808 9.12407Q18.7383 8.97308 18.5226 8.9621Q16.3863 8.77106 14.9652 8.52165Q13.5442 8.27225 12.6678 7.78557Q11.7914 7.29889 11.2998 6.41624Q10.8083 5.5336 10.5415 4.09378Q10.2747 2.65396 10.0629 0.489807Q10.0423 0.260162 9.88907 0.130081Q9.73587 0 9.51172 0Q9.30161 0 9.14497 0.130081Q8.98834 0.260162 8.96057 0.489807Q8.74176 2.65396 8.47847 4.09378Q8.21518 5.5336 7.72224 6.41624Q7.22931 7.29889 6.35292 7.78557Q5.47653 8.27225 4.05685 8.52165Q2.63718 8.77106 0.500793 8.9621Q0.28244 8.97308 0.14122 9.12407Q0 9.27505 0 9.48792Q0 9.70078 0.14122 9.84123Q0.28244 9.98169 0.500793 10.011Q2.26837 10.2258 3.53241 10.4369Q4.79645 10.648 5.65895 10.9715Q6.52145 11.295 7.07672 11.8362Q7.63199 12.3773 7.97577 13.2377Q8.31955 14.0981 8.53828 15.3816Q8.75702 16.6652 8.96057 18.4833Q8.98834 18.7059 9.14497 18.8409Q9.30161 18.9758 9.51172 18.9758Z" fill="#ffcc00"/>
 </g>
</svg>
