<?xml version="1.0" encoding="UTF-8"?>
<!--Generator: Apple Native CoreSVG 175-->
<!DOCTYPE svg
PUBLIC "-//W3C//DTD SVG 1.1//EN"
       "http://www.w3.org/Graphics/SVG/1.1/DTD/svg11.dtd">
<svg version="1.1" xmlns="http://www.w3.org/2000/svg" xmlns:xlink="http://www.w3.org/1999/xlink" width="19.1602" height="19.1504">
 <g>
  <rect height="19.1504" opacity="0" width="19.1602" x="0" y="0"/>
  <path d="M9.57031 19.1504Q11.5527 19.1504 13.2861 18.4082Q15.0195 17.666 16.3379 16.3428Q17.6562 15.0195 18.4082 13.2861Q19.1602 11.5527 19.1602 9.58008Q19.1602 7.60742 18.4082 5.87402Q17.6562 4.14062 16.3379 2.81738Q15.0195 1.49414 13.2861 0.751953Q11.5527 0.00976562 9.57031 0.00976562Q7.59766 0.00976562 5.86426 0.751953Q4.13086 1.49414 2.81738 2.81738Q1.50391 4.14062 0.751953 5.87402Q0 7.60742 0 9.58008Q0 11.5527 0.74707 13.2861Q1.49414 15.0195 2.8125 16.3428Q4.13086 17.666 5.86914 18.4082Q7.60742 19.1504 9.57031 19.1504Z" fill="#000000"/>
  <path d="M6.60156 11.4746Q6.25 11.4746 6.00586 11.2305Q5.76172 10.9863 5.76172 10.6055L5.76172 8.57422Q5.76172 8.27148 5.96191 8.04688Q6.16211 7.82227 6.43555 7.80273L6.72852 7.80273L11.6406 12.6758L11.6113 13.6914Q11.582 14.0234 11.2891 14.0234Q11.1621 14.0234 11.0596 13.96Q10.957 13.8965 10.8594 13.8086L8.4668 11.543Q8.37891 11.4746 8.27148 11.4746ZM8.62305 7.5L10.8594 5.33203Q10.957 5.24414 11.0596 5.18555Q11.1621 5.12695 11.2891 5.12695Q11.4648 5.12695 11.5576 5.24414Q11.6504 5.36133 11.6504 5.52734L11.6504 10.5273ZM14.541 14.9707L4.16992 4.58984Q4.0918 4.50195 4.08203 4.37988Q4.07227 4.25781 4.16992 4.16016Q4.25781 4.07227 4.38477 4.07227Q4.51172 4.07227 4.59961 4.16016L14.9707 14.541Q15.0586 14.6289 15.0586 14.7461Q15.0586 14.8633 14.9707 14.9707Q14.8828 15.0586 14.7559 15.0537Q14.6289 15.0488 14.541 14.9707Z" fill="#ffffff"/>
 </g>
</svg>
