<?xml version="1.0" encoding="UTF-8"?>
<!--Generator: Apple Native CoreSVG 175-->
<!DOCTYPE svg
PUBLIC "-//W3C//DTD SVG 1.1//EN"
       "http://www.w3.org/Graphics/SVG/1.1/DTD/svg11.dtd">
<svg version="1.1" xmlns="http://www.w3.org/2000/svg" xmlns:xlink="http://www.w3.org/1999/xlink" width="10.8784" height="16.387">
 <g>
  <rect height="16.387" opacity="0" width="10.8784" x="0" y="0"/>
  <path d="M10.1968 16.3828Q10.5234 16.3828 10.7009 16.1652Q10.8784 15.9476 10.8784 15.6406L10.8784 0.751495Q10.8784 0.441742 10.6995 0.220871Q10.5206 0 10.1913 0Q9.96216 0 9.77303 0.103455Q9.58389 0.206909 9.40277 0.385437L4.99649 4.64325Q4.86359 4.77341 4.6257 4.77341L1.56998 4.77341Q0.885925 4.77341 0.442963 5.22049Q0 5.66757 0 6.36368L0 10.116Q0 10.8078 0.442963 11.2535Q0.885925 11.6992 1.56998 11.6992L4.6257 11.6992Q4.85657 11.6992 4.99649 11.8362L9.40277 16.0066Q9.57306 16.1742 9.77028 16.2785Q9.9675 16.3828 10.1968 16.3828Z" fill="#ffffff"/>
 </g>
</svg>
