<?xml version="1.0" encoding="UTF-8"?>
<!--Generator: Apple Native CoreSVG 175.5-->
<!DOCTYPE svg
PUBLIC "-//W3C//DTD SVG 1.1//EN"
       "http://www.w3.org/Graphics/SVG/1.1/DTD/svg11.dtd">
<svg version="1.1" xmlns="http://www.w3.org/2000/svg" xmlns:xlink="http://www.w3.org/1999/xlink" width="21.5234" height="21.4551">
 <g>
  <rect height="21.4551" opacity="0" width="21.5234" x="0" y="0"/>
  <path d="M6.00586 21.4551Q6.36719 21.4551 6.66992 21.2598Q6.97266 21.0645 7.41211 20.6738L10.7812 17.6758L17.0508 17.6758Q18.5059 17.6758 19.502 17.1533Q20.498 16.6309 21.0107 15.6348Q21.5234 14.6387 21.5234 13.2031L21.5234 5.72266Q21.5234 4.28711 21.0107 3.29102Q20.498 2.29492 19.502 1.77246Q18.5059 1.25 17.0508 1.25L4.47266 1.25Q3.01758 1.25 2.02148 1.77246Q1.02539 2.29492 0.512695 3.29102Q0 4.28711 0 5.72266L0 13.2031Q0 14.6387 0.512695 15.6348Q1.02539 16.6309 2.02148 17.1533Q3.01758 17.6758 4.47266 17.6758L4.94141 17.6758L4.94141 20.2148Q4.94141 20.7812 5.21973 21.1182Q5.49805 21.4551 6.00586 21.4551ZM6.40625 19.668L6.40625 16.8359Q6.40625 16.4355 6.24023 16.2695Q6.07422 16.1035 5.67383 16.1035L4.47266 16.1035Q2.98828 16.1035 2.28027 15.3662Q1.57227 14.6289 1.57227 13.1934L1.57227 5.72266Q1.57227 4.29688 2.28027 3.55957Q2.98828 2.82227 4.47266 2.82227L17.0508 2.82227Q18.5254 2.82227 19.2383 3.55957Q19.9512 4.29688 19.9512 5.72266L19.9512 13.1934Q19.9512 14.6289 19.2383 15.3662Q18.5254 16.1035 17.0508 16.1035L10.7227 16.1035Q10.3125 16.1035 10.0586 16.1914Q9.80469 16.2793 9.53125 16.5625Z" fill="#007aff"/>
  <path d="M10.4492 13.8672Q10.6934 13.8672 10.8496 13.7061Q11.0059 13.5449 11.0059 13.3105L11.0059 5.6543Q11.0059 5.41016 10.8496 5.23926Q10.6934 5.06836 10.4395 5.06836Q10.2637 5.06836 10.127 5.15137Q9.99023 5.23438 9.79492 5.41016L7.66602 7.41211Q7.62695 7.45117 7.54883 7.45117L6.10352 7.45117Q5.60547 7.45117 5.33691 7.72461Q5.06836 7.99805 5.06836 8.53516L5.06836 10.4004Q5.06836 10.9375 5.33691 11.2109Q5.60547 11.4844 6.10352 11.4844L7.54883 11.4844Q7.61719 11.4844 7.66602 11.5332L9.79492 13.5547Q9.9707 13.7207 10.1221 13.7939Q10.2734 13.8672 10.4492 13.8672Z" fill="#007aff"/>
  <path d="M12.666 11.6602Q12.832 11.7871 13.0322 11.748Q13.2324 11.709 13.3691 11.5332Q13.6719 11.1523 13.833 10.6055Q13.9941 10.0586 13.9941 9.46289Q13.9941 8.87695 13.8281 8.33008Q13.6621 7.7832 13.3691 7.39258Q13.2422 7.2168 13.0371 7.17773Q12.832 7.13867 12.666 7.25586Q12.4805 7.40234 12.4512 7.60742Q12.4219 7.8125 12.5586 8.00781Q12.9785 8.55469 12.9785 9.46289Q12.9785 10.3125 12.5488 10.918Q12.2656 11.3574 12.666 11.6602Z" fill="#007aff"/>
  <path d="M14.3945 12.959Q14.5801 13.0664 14.7754 13.0322Q14.9707 12.998 15.0977 12.832Q15.5859 12.1289 15.8594 11.2646Q16.1328 10.4004 16.1328 9.46289Q16.1328 8.54492 15.8691 7.67578Q15.6055 6.80664 15.0977 6.09375Q14.9707 5.91797 14.7705 5.87402Q14.5703 5.83008 14.3945 5.95703Q14.2188 6.08398 14.1943 6.28906Q14.1699 6.49414 14.2969 6.68945Q15.127 7.83203 15.127 9.46289Q15.127 10.2344 14.9121 10.9668Q14.6973 11.6992 14.2969 12.2266Q14.1602 12.4219 14.1846 12.6318Q14.209 12.8418 14.3945 12.959Z" fill="#007aff"/>
 </g>
</svg>
