<?xml version="1.0" encoding="UTF-8"?>
<!--Generator: Apple Native CoreSVG 175-->
<!DOCTYPE svg
PUBLIC "-//W3C//DTD SVG 1.1//EN"
       "http://www.w3.org/Graphics/SVG/1.1/DTD/svg11.dtd">
<svg version="1.1" xmlns="http://www.w3.org/2000/svg" xmlns:xlink="http://www.w3.org/1999/xlink" width="10.9192" height="16.4011">
 <g>
  <rect height="16.4011" opacity="0" width="10.9192" x="0" y="0"/>
  <path d="M1.35941 11.7062L4.37729 11.7062Q4.59137 11.7062 4.74533 11.8433L9.43085 16.0136Q9.60663 16.1784 9.80255 16.2841Q9.99847 16.3898 10.2234 16.3898Q10.5544 16.3898 10.7368 16.1722Q10.9192 15.9546 10.9192 15.6476L10.9192 0.758514Q10.9192 0.448761 10.7354 0.22438Q10.5516 0 10.2179 0Q9.99298 0 9.80881 0.11322Q9.62463 0.22644 9.43085 0.392456L4.74533 4.65027Q4.61517 4.76639 4.37729 4.76639L1.35941 4.76639Q0.665588 4.76639 0.332794 5.11734Q0 5.46829 0 6.17416L0 10.3223Q0 11.0324 0.336304 11.3693Q0.672607 11.7062 1.35941 11.7062ZM1.37848 11.0257Q1.00662 11.0257 0.860748 10.8742Q0.714874 10.7227 0.714874 10.3506L0.714874 6.14563Q0.714874 5.77377 0.860748 5.61729Q1.00662 5.46082 1.37848 5.46082L4.45435 5.46082Q4.67499 5.46082 4.84177 5.41557Q5.00854 5.37033 5.18158 5.19989L9.79874 0.984802Q9.85901 0.931549 9.91211 0.890961Q9.96521 0.850372 10.0421 0.850372Q10.2043 0.850372 10.2043 1.02219L10.2043 15.3436Q10.2043 15.5324 10.0491 15.5324Q9.94995 15.5324 9.8085 15.412L5.18158 11.2866Q5.01556 11.1331 4.84528 11.0794Q4.67499 11.0257 4.45435 11.0257Z" fill="#ffffff"/>
 </g>
</svg>
