<?xml version="1.0" encoding="UTF-8"?>
<!--Generator: Apple Native CoreSVG 175.5-->
<!DOCTYPE svg
PUBLIC "-//W3C//DTD SVG 1.1//EN"
       "http://www.w3.org/Graphics/SVG/1.1/DTD/svg11.dtd">
<svg version="1.1" xmlns="http://www.w3.org/2000/svg" xmlns:xlink="http://www.w3.org/1999/xlink" width="17.9785" height="17.998">
 <g>
  <rect height="17.998" opacity="0" width="17.9785" x="0" y="0"/>
  <path d="M0 5.16602L1.57227 5.16602L1.57227 3.125Q1.57227 2.36328 1.96289 1.97754Q2.35352 1.5918 3.08594 1.5918L5.10742 1.5918L5.10742 0.0195312L3.06641 0.0195312Q1.5332 0.0195312 0.766602 0.776367Q0 1.5332 0 3.04688ZM6.44531 1.5918L11.5332 1.5918L11.5332 0.0195312L6.44531 0.0195312ZM16.4062 5.16602L17.9785 5.16602L17.9785 3.04688Q17.9785 1.5332 17.2119 0.776367Q16.4453 0.0195312 14.9121 0.0195312L12.8711 0.0195312L12.8711 1.5918L14.8926 1.5918Q15.6152 1.5918 16.0107 1.97754Q16.4062 2.36328 16.4062 3.125ZM16.4062 11.5137L17.9785 11.5137L17.9785 6.50391L16.4062 6.50391ZM12.8711 17.998L14.9121 17.998Q16.4453 17.998 17.2119 17.2412Q17.9785 16.4844 17.9785 14.9707L17.9785 12.8516L16.4062 12.8516L16.4062 14.8926Q16.4062 15.6543 16.0107 16.04Q15.6152 16.4258 14.8926 16.4258L12.8711 16.4258ZM6.44531 17.998L11.5332 17.998L11.5332 16.4258L6.44531 16.4258ZM3.06641 17.998L5.10742 17.998L5.10742 16.4258L3.08594 16.4258Q2.35352 16.4258 1.96289 16.04Q1.57227 15.6543 1.57227 14.8926L1.57227 12.8516L0 12.8516L0 14.9707Q0 16.4844 0.766602 17.2412Q1.5332 17.998 3.06641 17.998ZM0 11.5137L1.57227 11.5137L1.57227 6.50391L0 6.50391Z" fill="#007aff"/>
  <path d="M3.83789 15.0781L14.1504 15.0781Q14.6094 15.0781 14.8438 14.8389Q15.0781 14.5996 15.0781 14.1309L15.0781 3.85742Q15.0781 3.38867 14.8438 3.14941Q14.6094 2.91016 14.1504 2.91016L3.83789 2.91016Q3.37891 2.91016 3.14453 3.14941Q2.91016 3.38867 2.91016 3.85742L2.91016 14.1309Q2.91016 14.5996 3.14453 14.8389Q3.37891 15.0781 3.83789 15.0781Z" fill="#007aff"/>
 </g>
</svg>
