<?xml version="1.0" encoding="UTF-8"?>
<!--Generator: Apple Native CoreSVG 175-->
<!DOCTYPE svg
PUBLIC "-//W3C//DTD SVG 1.1//EN"
       "http://www.w3.org/Graphics/SVG/1.1/DTD/svg11.dtd">
<svg version="1.1" xmlns="http://www.w3.org/2000/svg" xmlns:xlink="http://www.w3.org/1999/xlink" width="20.1224" height="18.6154">
 <g>
  <rect height="18.6154" opacity="0" width="20.1224" x="0" y="0"/>
  <path d="M0.33905 0.708313L19.7832 0.708313Q19.9243 0.708313 20.0233 0.6073Q20.1224 0.506287 20.1224 0.352783Q20.1224 0.206299 20.0233 0.103149Q19.9243 0 19.7832 0L0.33905 0Q0.198059 0 0.0990295 0.103149Q0 0.206299 0 0.352783Q0 0.506287 0.0990295 0.6073Q0.198059 0.708313 0.33905 0.708313ZM1.40503 8.39035L4.11758 8.39035Q4.78836 8.39035 5.14259 8.0571Q5.49683 7.72385 5.49683 6.99738L5.49683 4.30237Q5.49683 3.57864 5.14259 3.24539Q4.78836 2.91214 4.11758 2.91214L1.40503 2.91214Q0.731659 2.91214 0.378723 3.24539Q0.0257874 3.57864 0.0257874 4.30237L0.0257874 6.99738Q0.0257874 7.72385 0.378723 8.0571Q0.731659 8.39035 1.40503 8.39035ZM8.6824 8.39035L11.395 8.39035Q12.0726 8.39035 12.4234 8.0571Q12.7742 7.72385 12.7742 6.99738L12.7742 4.30237Q12.7742 3.57864 12.4234 3.24539Q12.0726 2.91214 11.395 2.91214L8.6824 2.91214Q8.00903 2.91214 7.6561 3.24539Q7.30316 3.57864 7.30316 4.30237L7.30316 6.99738Q7.30316 7.72385 7.6561 8.0571Q8.00903 8.39035 8.6824 8.39035ZM15.9668 8.39035L18.6766 8.39035Q19.35 8.39035 19.7029 8.0571Q20.0558 7.72385 20.0558 6.99738L20.0558 4.30237Q20.0558 3.57864 19.7029 3.24539Q19.35 2.91214 18.6766 2.91214L15.9668 2.91214Q15.2864 2.91214 14.9356 3.24539Q14.5848 3.57864 14.5848 4.30237L14.5848 6.99738Q14.5848 7.72385 14.9356 8.0571Q15.2864 8.39035 15.9668 8.39035ZM0.33905 10.9209L19.7832 10.9209Q19.9243 10.9209 20.0233 10.8212Q20.1224 10.7216 20.1224 10.5681Q20.1224 10.4216 20.0233 10.3206Q19.9243 10.2196 19.7832 10.2196L0.33905 10.2196Q0.198059 10.2196 0.0990295 10.3206Q0 10.4216 0 10.5681Q0 10.7216 0.0990295 10.8212Q0.198059 10.9209 0.33905 10.9209ZM1.45004 18.6029L4.15543 18.6029Q4.83597 18.6029 5.1889 18.2697Q5.54184 17.9364 5.54184 17.2127L5.54184 14.5149Q5.54184 13.7912 5.1889 13.4615Q4.83597 13.1317 4.15543 13.1317L1.45004 13.1317Q0.772247 13.1317 0.417938 13.4615Q0.0636292 13.7912 0.0636292 14.5149L0.0636292 17.2127Q0.0636292 17.9364 0.417938 18.2697Q0.772247 18.6029 1.45004 18.6029ZM8.72742 18.6029L11.4398 18.6029Q12.1106 18.6029 12.4649 18.2697Q12.8192 17.9364 12.8192 17.2127L12.8192 14.5149Q12.8192 13.7912 12.4649 13.4615Q12.1106 13.1317 11.4398 13.1317L8.72742 13.1317Q8.04688 13.1317 7.69745 13.4615Q7.34802 13.7912 7.34802 14.5149L7.34802 17.2127Q7.34802 17.9364 7.69745 18.2697Q8.04688 18.6029 8.72742 18.6029ZM16.0048 18.6029L18.7144 18.6029Q19.395 18.6029 19.7458 18.2697Q20.0966 17.9364 20.0966 17.2127L20.0966 14.5149Q20.0966 13.7912 19.7458 13.4615Q19.395 13.1317 18.7144 13.1317L16.0048 13.1317Q15.3313 13.1317 14.9783 13.4615Q14.6254 13.7912 14.6254 14.5149L14.6254 17.2127Q14.6254 17.9364 14.9783 18.2697Q15.3313 18.6029 16.0048 18.6029Z" fill="#000000"/>
 </g>
</svg>
