<?xml version="1.0" encoding="UTF-8"?>
<!--Generator: Apple Native CoreSVG 175.5-->
<!DOCTYPE svg
PUBLIC "-//W3C//DTD SVG 1.1//EN"
       "http://www.w3.org/Graphics/SVG/1.1/DTD/svg11.dtd">
<svg version="1.1" xmlns="http://www.w3.org/2000/svg" xmlns:xlink="http://www.w3.org/1999/xlink" width="19.1504" height="18.7988">
 <g>
  <rect height="18.7988" opacity="0" width="19.1504" x="0" y="0"/>
  <path d="M1.68945 5.53711L3.84766 5.53711Q4.64844 5.53711 5.09277 5.08789Q5.53711 4.63867 5.53711 3.80859L5.53711 1.72852Q5.53711 0.908203 5.09277 0.454102Q4.64844 0 3.84766 0L1.68945 0Q0.888672 0 0.444336 0.454102Q0 0.908203 0 1.72852L0 3.80859Q0 4.63867 0.444336 5.08789Q0.888672 5.53711 1.68945 5.53711ZM8.48633 5.53711L10.6543 5.53711Q11.4551 5.53711 11.8945 5.08789Q12.334 4.63867 12.334 3.80859L12.334 1.72852Q12.334 0.908203 11.8945 0.454102Q11.4551 0 10.6543 0L8.48633 0Q7.68555 0 7.24609 0.454102Q6.80664 0.908203 6.80664 1.72852L6.80664 3.80859Q6.80664 4.63867 7.24609 5.08789Q7.68555 5.53711 8.48633 5.53711ZM15.3027 5.53711L17.4609 5.53711Q18.2617 5.53711 18.7061 5.08789Q19.1504 4.63867 19.1504 3.80859L19.1504 1.72852Q19.1504 0.908203 18.7061 0.454102Q18.2617 0 17.4609 0L15.3027 0Q14.502 0 14.0576 0.454102Q13.6133 0.908203 13.6133 1.72852L13.6133 3.80859Q13.6133 4.63867 14.0576 5.08789Q14.502 5.53711 15.3027 5.53711ZM1.68945 12.1484L3.84766 12.1484Q4.64844 12.1484 5.09277 11.6992Q5.53711 11.25 5.53711 10.4297L5.53711 8.33984Q5.53711 7.50977 5.09277 7.06055Q4.64844 6.61133 3.84766 6.61133L1.68945 6.61133Q0.888672 6.61133 0.444336 7.06055Q0 7.50977 0 8.33984L0 10.4297Q0 11.25 0.444336 11.6992Q0.888672 12.1484 1.68945 12.1484ZM8.48633 12.1484L10.6543 12.1484Q11.4551 12.1484 11.8945 11.6992Q12.334 11.25 12.334 10.4297L12.334 8.33984Q12.334 7.50977 11.8945 7.06055Q11.4551 6.61133 10.6543 6.61133L8.48633 6.61133Q7.68555 6.61133 7.24609 7.06055Q6.80664 7.50977 6.80664 8.33984L6.80664 10.4297Q6.80664 11.25 7.24609 11.6992Q7.68555 12.1484 8.48633 12.1484ZM15.3027 12.1484L17.4609 12.1484Q18.2617 12.1484 18.7061 11.6992Q19.1504 11.25 19.1504 10.4297L19.1504 8.33984Q19.1504 7.50977 18.7061 7.06055Q18.2617 6.61133 17.4609 6.61133L15.3027 6.61133Q14.502 6.61133 14.0576 7.06055Q13.6133 7.50977 13.6133 8.33984L13.6133 10.4297Q13.6133 11.25 14.0576 11.6992Q14.502 12.1484 15.3027 12.1484ZM1.68945 18.7598L3.84766 18.7598Q4.64844 18.7598 5.09277 18.3105Q5.53711 17.8613 5.53711 17.0312L5.53711 14.9512Q5.53711 14.1211 5.09277 13.6719Q4.64844 13.2227 3.84766 13.2227L1.68945 13.2227Q0.888672 13.2227 0.444336 13.6719Q0 14.1211 0 14.9512L0 17.0312Q0 17.8613 0.444336 18.3105Q0.888672 18.7598 1.68945 18.7598ZM8.48633 18.7598L10.6543 18.7598Q11.4551 18.7598 11.8945 18.3105Q12.334 17.8613 12.334 17.0312L12.334 14.9512Q12.334 14.1211 11.8945 13.6719Q11.4551 13.2227 10.6543 13.2227L8.48633 13.2227Q7.68555 13.2227 7.24609 13.6719Q6.80664 14.1211 6.80664 14.9512L6.80664 17.0312Q6.80664 17.8613 7.24609 18.3105Q7.68555 18.7598 8.48633 18.7598ZM15.3027 18.7598L17.4609 18.7598Q18.2617 18.7598 18.7061 18.3105Q19.1504 17.8613 19.1504 17.0312L19.1504 14.9512Q19.1504 14.1211 18.7061 13.6719Q18.2617 13.2227 17.4609 13.2227L15.3027 13.2227Q14.502 13.2227 14.0576 13.6719Q13.6133 14.1211 13.6133 14.9512L13.6133 17.0312Q13.6133 17.8613 14.0576 18.3105Q14.502 18.7598 15.3027 18.7598Z" fill="#007aff"/>
 </g>
</svg>
