<?xml version="1.0" encoding="UTF-8"?>
<!--Generator: Apple Native CoreSVG 175-->
<!DOCTYPE svg
PUBLIC "-//W3C//DTD SVG 1.1//EN"
       "http://www.w3.org/Graphics/SVG/1.1/DTD/svg11.dtd">
<svg version="1.1" xmlns="http://www.w3.org/2000/svg" xmlns:xlink="http://www.w3.org/1999/xlink" width="19.4403" height="19.4528">
 <g>
  <rect height="19.4528" opacity="0" width="19.4403" x="0" y="0"/>
  <path d="M1.85776 3.72543Q2.36328 3.72543 2.78458 3.47404Q3.20587 3.22266 3.45589 2.80136Q3.7059 2.38007 3.7059 1.86768Q3.7059 1.35513 3.45589 0.933838Q3.20587 0.512543 2.78458 0.261154Q2.36328 0.00976562 1.85776 0.00976562Q1.34537 0.00976562 0.922699 0.261154Q0.500031 0.512543 0.250015 0.933838Q0 1.35513 0 1.86768Q0 2.38007 0.250015 2.80136Q0.500031 3.22266 0.922699 3.47404Q1.34537 3.72543 1.85776 3.72543ZM1.85776 2.22977L17.5851 2.22977L17.5851 1.50818L1.85776 1.50818ZM17.5851 3.72543Q18.0977 3.72543 18.519 3.47404Q18.9403 3.22266 19.1903 2.80136Q19.4403 2.38007 19.4403 1.86768Q19.4403 1.35513 19.1903 0.933838Q18.9403 0.512543 18.519 0.261154Q18.0977 0.00976562 17.5851 0.00976562Q17.0728 0.00976562 16.6501 0.261154Q16.2274 0.512543 15.9774 0.933838Q15.7274 1.35513 15.7274 1.86768Q15.7274 2.38007 15.9774 2.80136Q16.2274 3.22266 16.6501 3.47404Q17.0728 3.72543 17.5851 3.72543ZM17.2231 17.5949L17.9446 17.5949L17.9446 1.86768L17.2231 1.86768ZM17.5851 19.4528Q18.0977 19.4528 18.519 19.2014Q18.9403 18.95 19.1903 18.5287Q19.4403 18.1075 19.4403 17.5949Q19.4403 17.0895 19.1903 16.6682Q18.9403 16.2469 18.519 15.9956Q18.0977 15.7442 17.5851 15.7442Q17.0728 15.7442 16.6501 15.9956Q16.2274 16.2469 15.9774 16.6682Q15.7274 17.0895 15.7274 17.5949Q15.7274 18.1075 15.9774 18.5287Q16.2274 18.95 16.6501 19.2014Q17.0728 19.4528 17.5851 19.4528ZM1.85776 17.9642L17.5851 17.9642L17.5851 17.2356L1.85776 17.2356ZM1.85776 19.4528Q2.36328 19.4528 2.78458 19.2014Q3.20587 18.95 3.45589 18.5287Q3.7059 18.1075 3.7059 17.5949Q3.7059 17.0895 3.45589 16.6682Q3.20587 16.2469 2.78458 15.9956Q2.36328 15.7442 1.85776 15.7442Q1.34537 15.7442 0.922699 15.9956Q0.500031 16.2469 0.250015 16.6682Q0 17.0895 0 17.5949Q0 18.1075 0.250015 18.5287Q0.500031 18.95 0.922699 19.2014Q1.34537 19.4528 1.85776 19.4528ZM1.48865 17.5949L2.21725 17.5949L2.21725 1.86768L1.48865 1.86768ZM8.22693 14.9579L13.7001 14.9579Q14.3184 14.9579 14.6407 14.637Q14.9629 14.3161 14.9629 13.6949L14.9629 8.24768Q14.9629 7.63641 14.6147 7.31552Q14.2665 6.99463 13.6005 6.99463L8.22693 6.99463Q7.61566 6.99463 7.2934 7.31552Q6.97113 7.63641 6.97113 8.24768L6.97113 13.6949Q6.97113 14.3161 7.2934 14.637Q7.61566 14.9579 8.22693 14.9579ZM8.32932 14.2973Q7.63168 14.2973 7.63168 13.5953L7.63168 8.35007Q7.63168 7.65518 8.32932 7.65518L13.4981 7.65518Q14.3024 7.65518 14.3024 8.35007L14.3024 13.5953Q14.3024 14.2973 13.5977 14.2973ZM5.77072 12.4919L7.29019 12.4919L7.29019 11.8312L5.87311 11.8312Q5.16846 11.8312 5.16846 11.1336L5.16846 5.89111Q5.16846 5.18646 5.87311 5.18646L11.1415 5.18646Q11.8391 5.18646 11.8391 5.89111L11.8391 7.36496L12.4997 7.36496L12.4997 5.78873Q12.4997 5.17029 12.1774 4.84802Q11.8552 4.52576 11.241 4.52576L5.77072 4.52576Q5.15244 4.52576 4.83017 4.84802Q4.5079 5.17029 4.5079 5.78873L4.5079 11.236Q4.5079 11.85 4.83017 12.1709Q5.15244 12.4919 5.77072 12.4919Z" fill="#000000"/>
 </g>
</svg>
