<?xml version="1.0" encoding="UTF-8"?>
<!--Generator: Apple Native CoreSVG 175.5-->
<!DOCTYPE svg
PUBLIC "-//W3C//DTD SVG 1.1//EN"
       "http://www.w3.org/Graphics/SVG/1.1/DTD/svg11.dtd">
<svg version="1.1" xmlns="http://www.w3.org/2000/svg" xmlns:xlink="http://www.w3.org/1999/xlink" width="17.9785" height="17.998">
 <g>
  <rect height="17.998" opacity="0" width="17.9785" x="0" y="0"/>
  <path d="M1.86523 8.20312L6.31836 8.20312Q7.24609 8.20312 7.71484 7.72949Q8.18359 7.25586 8.18359 6.28906L8.18359 1.92383Q8.18359 0.957031 7.71484 0.488281Q7.24609 0.0195312 6.31836 0.0195312L1.86523 0.0195312Q0.9375 0.0195312 0.46875 0.488281Q0 0.957031 0 1.92383L0 6.28906Q0 7.25586 0.46875 7.72949Q0.9375 8.20312 1.86523 8.20312ZM11.6699 8.20312L16.1133 8.20312Q17.041 8.20312 17.5098 7.72949Q17.9785 7.25586 17.9785 6.28906L17.9785 1.92383Q17.9785 0.957031 17.5098 0.488281Q17.041 0.0195312 16.1133 0.0195312L11.6699 0.0195312Q10.7324 0.0195312 10.2637 0.488281Q9.79492 0.957031 9.79492 1.92383L9.79492 6.28906Q9.79492 7.25586 10.2637 7.72949Q10.7324 8.20312 11.6699 8.20312ZM1.86523 17.998L6.31836 17.998Q7.24609 17.998 7.71484 17.5293Q8.18359 17.0605 8.18359 16.0938L8.18359 11.7188Q8.18359 10.7617 7.71484 10.2881Q7.24609 9.81445 6.31836 9.81445L1.86523 9.81445Q0.9375 9.81445 0.46875 10.2881Q0 10.7617 0 11.7188L0 16.0938Q0 17.0605 0.46875 17.5293Q0.9375 17.998 1.86523 17.998ZM11.6699 17.998L16.1133 17.998Q17.041 17.998 17.5098 17.5293Q17.9785 17.0605 17.9785 16.0938L17.9785 11.7188Q17.9785 10.7617 17.5098 10.2881Q17.041 9.81445 16.1133 9.81445L11.6699 9.81445Q10.7324 9.81445 10.2637 10.2881Q9.79492 10.7617 9.79492 11.7188L9.79492 16.0938Q9.79492 17.0605 10.2637 17.5293Q10.7324 17.998 11.6699 17.998Z" fill="#007aff"/>
 </g>
</svg>
