<?xml version="1.0" encoding="UTF-8"?>
<!--Generator: Apple Native CoreSVG 175.5-->
<!DOCTYPE svg
PUBLIC "-//W3C//DTD SVG 1.1//EN"
       "http://www.w3.org/Graphics/SVG/1.1/DTD/svg11.dtd">
<svg version="1.1" xmlns="http://www.w3.org/2000/svg" xmlns:xlink="http://www.w3.org/1999/xlink" width="19.9219" height="19.9316">
 <g>
  <rect height="19.9316" opacity="0" width="19.9219" x="0" y="0"/>
  <path d="M9.96094 19.9219Q12.002 19.9219 13.8037 19.1406Q15.6055 18.3594 16.9824 16.9824Q18.3594 15.6055 19.1406 13.8037Q19.9219 12.002 19.9219 9.96094Q19.9219 7.91992 19.1406 6.11816Q18.3594 4.31641 16.9824 2.93945Q15.6055 1.5625 13.7988 0.78125Q11.9922 0 9.95117 0Q7.91016 0 6.1084 0.78125Q4.30664 1.5625 2.93457 2.93945Q1.5625 4.31641 0.78125 6.11816Q0 7.91992 0 9.96094Q0 12.002 0.78125 13.8037Q1.5625 15.6055 2.93945 16.9824Q4.31641 18.3594 6.11816 19.1406Q7.91992 19.9219 9.96094 19.9219ZM9.96094 18.2617Q8.23242 18.2617 6.72852 17.6172Q5.22461 16.9727 4.08691 15.835Q2.94922 14.6973 2.30957 13.1934Q1.66992 11.6895 1.66992 9.96094Q1.66992 8.23242 2.30957 6.72852Q2.94922 5.22461 4.08203 4.08203Q5.21484 2.93945 6.71875 2.2998Q8.22266 1.66016 9.95117 1.66016Q11.6797 1.66016 13.1885 2.2998Q14.6973 2.93945 15.835 4.08203Q16.9727 5.22461 17.6172 6.72852Q18.2617 8.23242 18.2617 9.96094Q18.2617 11.6895 17.6221 13.1934Q16.9824 14.6973 15.8398 15.835Q14.6973 16.9727 13.1934 17.6172Q11.6895 18.2617 9.96094 18.2617Z" fill="#007aff"/>
  <path d="M6.97266 14.6094L12.7637 14.6094Q13.4668 14.6094 13.8672 14.1943Q14.2676 13.7793 14.2676 12.9785L14.2676 7.89062L13.2617 8.90625L13.2617 12.9297Q13.2617 13.2617 13.1152 13.4277Q12.9688 13.5938 12.7539 13.5938L6.99219 13.5938Q6.66992 13.5938 6.50391 13.4277Q6.33789 13.2617 6.33789 12.9297L6.33789 7.33398Q6.33789 6.99219 6.50391 6.82617Q6.66992 6.66016 6.99219 6.66016L11.0742 6.66016L12.0898 5.64453L6.97266 5.64453Q6.16211 5.64453 5.74219 6.06445Q5.32227 6.48438 5.32227 7.29492L5.32227 12.9785Q5.32227 13.7793 5.74219 14.1943Q6.16211 14.6094 6.97266 14.6094ZM8.81836 11.3965L9.80469 10.9863L14.2871 6.50391L13.4375 5.67383L8.96484 10.1562L8.52539 11.084Q8.44727 11.2305 8.56445 11.3428Q8.68164 11.4551 8.81836 11.3965ZM14.707 6.08398L15.127 5.625Q15.2734 5.45898 15.2783 5.25879Q15.2832 5.05859 15.1367 4.91211L15.0098 4.80469Q14.8633 4.64844 14.6582 4.6582Q14.4531 4.66797 14.2871 4.82422L13.877 5.23438Z" fill="#007aff"/>
 </g>
</svg>
