<?xml version="1.0" encoding="UTF-8"?>
<!--Generator: Apple Native CoreSVG 175.5-->
<!DOCTYPE svg
PUBLIC "-//W3C//DTD SVG 1.1//EN"
       "http://www.w3.org/Graphics/SVG/1.1/DTD/svg11.dtd">
<svg version="1.1" xmlns="http://www.w3.org/2000/svg" xmlns:xlink="http://www.w3.org/1999/xlink" width="19.2676" height="22.2732">
 <g>
  <rect height="22.2732" opacity="0" width="19.2676" x="0" y="0"/>
  <path d="M14.5898 15.7509L16.9141 17.0888Q17.5977 17.4891 18.1299 17.4501Q18.6621 17.411 18.9648 16.9716Q19.2676 16.5321 19.2676 15.7118L19.2676 6.86415Q19.2676 6.35634 19.1504 5.98036Q19.0332 5.60438 18.7695 5.31141Q18.5059 5.01845 18.0664 4.76454L10.2441 0.243056Q9.75586-0.0303819 9.24805 0.00379774Q8.74023 0.0379774 8.39355 0.38954Q8.04688 0.741102 8.04688 1.43446L8.04688 4.5204L9.63867 5.31141L9.63867 1.97157Q9.63867 1.90321 9.6875 1.86903Q9.73633 1.83485 9.80469 1.88368L17.2461 6.18056Q17.4805 6.31727 17.5781 6.46376Q17.6758 6.61024 17.6758 6.92274L17.6758 15.4774Q17.6758 15.5458 17.6367 15.5702Q17.5977 15.5946 17.5293 15.5556L14.5898 13.8563Z" fill="#007aff"/>
  <path d="M10.3613 17.8016L13.0176 19.3446Q13.7109 19.7352 14.2432 19.6962Q14.7754 19.6571 15.0732 19.2177Q15.3711 18.7782 15.3711 17.9677L15.3711 9.11024Q15.3711 8.60243 15.2539 8.22645Q15.1367 7.85048 14.873 7.55751Q14.6094 7.26454 14.1699 7.01063L6.34766 2.49891Q5.86914 2.21571 5.36133 2.24989Q4.85352 2.28407 4.50195 2.63563Q4.15039 2.9872 4.15039 3.68056L4.15039 7.0497L5.74219 7.87977L5.74219 4.21766Q5.74219 4.14931 5.79102 4.12001Q5.83984 4.09071 5.9082 4.12977L13.3496 8.42665Q13.584 8.56337 13.6816 8.70985Q13.7793 8.85634 13.7793 9.16884L13.7793 17.7235Q13.7793 17.7919 13.7402 17.8163Q13.7012 17.8407 13.6328 17.8016L10.3613 15.9169Z" fill="#007aff"/>
  <path d="M11.2207 11.5516Q11.2207 11.0536 11.1035 10.6776Q10.9863 10.3016 10.7227 10.0087Q10.459 9.71571 10.0195 9.46181L2.19727 4.94032Q1.70898 4.66688 1.20117 4.69618Q0.693359 4.72548 0.34668 5.08192Q0 5.43837 0 6.12196L0 15.2235Q0 15.7411 0.107422 16.122Q0.214844 16.5028 0.478516 16.7958Q0.742188 17.0888 1.2207 17.3622L8.86719 21.786Q9.55078 22.1766 10.083 22.1425Q10.6152 22.1083 10.918 21.6688Q11.2207 21.2294 11.2207 20.4091ZM9.19922 10.8681Q9.43359 11.0048 9.53125 11.1513Q9.62891 11.2977 9.62891 11.6102L9.62891 20.1649Q9.62891 20.2431 9.58984 20.2626Q9.55078 20.2821 9.48242 20.2528L2.01172 15.9364Q1.75781 15.7899 1.6748 15.6386Q1.5918 15.4872 1.5918 15.1942L1.5918 6.65907Q1.5918 6.59071 1.64062 6.56141Q1.68945 6.53212 1.75781 6.57118Z" fill="#007aff"/>
 </g>
</svg>
