<?xml version="1.0" encoding="UTF-8"?>
<!--Generator: Apple Native CoreSVG 175.5-->
<!DOCTYPE svg
PUBLIC "-//W3C//DTD SVG 1.1//EN"
       "http://www.w3.org/Graphics/SVG/1.1/DTD/svg11.dtd">
<svg version="1.1" xmlns="http://www.w3.org/2000/svg" xmlns:xlink="http://www.w3.org/1999/xlink" width="19.9609" height="22.1191">
 <g>
  <rect height="22.1191" opacity="0" width="19.9609" x="0" y="0"/>
  <path d="M15.0098 14.2188L17.8418 15.8398Q17.9199 15.8789 17.9199 15.9277Q17.9199 15.9863 17.8418 16.0254L10.4102 20.2832Q10.166 20.4199 9.98047 20.4199Q9.78516 20.4199 9.54102 20.2832L2.10938 16.0254Q2.04102 15.9863 2.04102 15.9277Q2.04102 15.8789 2.10938 15.8398L5.17578 14.0918L3.53516 13.1641L1.09375 14.5801Q0.507812 14.9316 0.253906 15.2295Q0 15.5273 0 15.9277Q0 16.3379 0.253906 16.6357Q0.507812 16.9336 1.09375 17.2852L8.74023 21.7188Q9.0918 21.9238 9.38477 22.0215Q9.67773 22.1191 9.98047 22.1191Q10.2734 22.1191 10.5713 22.0215Q10.8691 21.9238 11.2207 21.7188L18.8574 17.2852Q19.4531 16.9336 19.707 16.6357Q19.9609 16.3379 19.9609 15.9277Q19.9609 15.5273 19.707 15.2295Q19.4531 14.9316 18.8574 14.5801L16.5332 13.2227Z" fill="#007aff"/>
  <path d="M14.7949 9.59961L17.8418 11.3379Q17.9199 11.377 17.9199 11.4355Q17.9199 11.4941 17.8418 11.5332L10.4102 15.7812Q10.166 15.918 9.98047 15.918Q9.78516 15.918 9.54102 15.7812L2.10938 11.5332Q2.04102 11.4941 2.04102 11.4355Q2.04102 11.377 2.10938 11.3379L5.40039 9.45312L3.83789 8.49609L1.09375 10.0781Q0.507812 10.4297 0.253906 10.7324Q0 11.0352 0 11.4355Q0 11.8359 0.253906 12.1387Q0.507812 12.4414 1.09375 12.7832L8.74023 17.2266Q9.0918 17.4316 9.38477 17.5293Q9.67773 17.627 9.98047 17.627Q10.2734 17.627 10.5713 17.5293Q10.8691 17.4316 11.2207 17.2266L18.8574 12.7832Q19.4531 12.4414 19.707 12.1387Q19.9609 11.8359 19.9609 11.4355Q19.9609 11.0352 19.707 10.7324Q19.4531 10.4297 18.8574 10.0781L16.3086 8.59375Z" fill="#007aff"/>
  <path d="M9.98047 12.8125Q10.2734 12.8125 10.5713 12.7148Q10.8691 12.6172 11.2207 12.4121L18.8574 7.97852Q19.4531 7.62695 19.707 7.3291Q19.9609 7.03125 19.9609 6.62109Q19.9609 6.2207 19.707 5.92285Q19.4531 5.625 18.8574 5.27344L11.2207 0.839844Q10.8691 0.634766 10.5713 0.537109Q10.2734 0.439453 9.98047 0.439453Q9.67773 0.439453 9.38477 0.537109Q9.0918 0.634766 8.74023 0.839844L1.09375 5.27344Q0.507812 5.625 0.253906 5.92285Q0 6.2207 0 6.62109Q0 7.03125 0.253906 7.3291Q0.507812 7.62695 1.09375 7.97852L8.74023 12.4121Q9.0918 12.6172 9.38477 12.7148Q9.67773 12.8125 9.98047 12.8125ZM9.98047 11.1133Q9.78516 11.1133 9.54102 10.9766L2.10938 6.71875Q2.04102 6.67969 2.04102 6.62109Q2.04102 6.57227 2.10938 6.5332L9.54102 2.27539Q9.78516 2.13867 9.98047 2.13867Q10.166 2.13867 10.4102 2.27539L17.8418 6.5332Q17.9199 6.57227 17.9199 6.62109Q17.9199 6.67969 17.8418 6.71875L10.4102 10.9766Q10.166 11.1133 9.98047 11.1133Z" fill="#007aff"/>
 </g>
</svg>
