<?xml version="1.0" encoding="UTF-8"?>
<!--Generator: Apple Native CoreSVG 175.5-->
<!DOCTYPE svg
PUBLIC "-//W3C//DTD SVG 1.1//EN"
       "http://www.w3.org/Graphics/SVG/1.1/DTD/svg11.dtd">
<svg version="1.1" xmlns="http://www.w3.org/2000/svg" xmlns:xlink="http://www.w3.org/1999/xlink" width="18.1348" height="18.1543">
 <g>
  <rect height="18.1543" opacity="0" width="18.1348" x="0" y="0"/>
  <path d="M2.95898 1.77734Q3.33008 1.77734 3.58887 1.51855Q3.84766 1.25977 3.84766 0.908203Q3.84766 0.537109 3.58887 0.27832Q3.33008 0.0195312 2.95898 0.0195312Q2.60742 0.0195312 2.34863 0.27832Q2.08984 0.537109 2.08984 0.908203Q2.08984 1.25977 2.34863 1.51855Q2.60742 1.77734 2.95898 1.77734ZM6.01562 1.77734Q6.37695 1.77734 6.64062 1.51855Q6.9043 1.25977 6.9043 0.908203Q6.9043 0.537109 6.64062 0.27832Q6.37695 0.0195312 6.01562 0.0195312Q5.6543 0.0195312 5.39551 0.27832Q5.13672 0.537109 5.13672 0.908203Q5.13672 1.25977 5.39551 1.51855Q5.6543 1.77734 6.01562 1.77734ZM9.07227 1.77734Q9.43359 1.77734 9.69238 1.51855Q9.95117 1.25977 9.95117 0.908203Q9.95117 0.537109 9.69238 0.27832Q9.43359 0.0195312 9.07227 0.0195312Q8.70117 0.0195312 8.44238 0.27832Q8.18359 0.537109 8.18359 0.908203Q8.18359 1.25977 8.44238 1.51855Q8.70117 1.77734 9.07227 1.77734ZM12.1191 1.77734Q12.4805 1.77734 12.7393 1.51855Q12.998 1.25977 12.998 0.908203Q12.998 0.537109 12.7393 0.27832Q12.4805 0.0195312 12.1191 0.0195312Q11.748 0.0195312 11.4893 0.27832Q11.2305 0.537109 11.2305 0.908203Q11.2305 1.25977 11.4941 1.51855Q11.7578 1.77734 12.1191 1.77734ZM15.166 1.77734Q15.5273 1.77734 15.7861 1.51855Q16.0449 1.25977 16.0449 0.908203Q16.0449 0.537109 15.7861 0.27832Q15.5273 0.0195312 15.166 0.0195312Q14.7949 0.0195312 14.5361 0.27832Q14.2773 0.537109 14.2773 0.908203Q14.2773 1.25977 14.541 1.51855Q14.8047 1.77734 15.166 1.77734ZM17.2559 3.86719Q17.6172 3.86719 17.876 3.60352Q18.1348 3.33984 18.1348 2.97852Q18.1348 2.61719 17.876 2.3584Q17.6172 2.09961 17.2559 2.09961Q16.8945 2.09961 16.6357 2.3584Q16.377 2.61719 16.377 2.97852Q16.377 3.33984 16.6357 3.60352Q16.8945 3.86719 17.2559 3.86719ZM17.2559 6.91406Q17.6172 6.91406 17.876 6.65039Q18.1348 6.38672 18.1348 6.02539Q18.1348 5.66406 17.876 5.40527Q17.6172 5.14648 17.2559 5.14648Q16.8945 5.14648 16.6357 5.40527Q16.377 5.66406 16.377 6.02539Q16.377 6.38672 16.6357 6.65039Q16.8945 6.91406 17.2559 6.91406ZM17.2559 9.96094Q17.6172 9.96094 17.876 9.70215Q18.1348 9.44336 18.1348 9.08203Q18.1348 8.71094 17.876 8.45215Q17.6172 8.19336 17.2559 8.19336Q16.8945 8.19336 16.6357 8.45703Q16.377 8.7207 16.377 9.08203Q16.377 9.44336 16.6357 9.70215Q16.8945 9.96094 17.2559 9.96094ZM17.2559 13.0176Q17.6172 13.0176 17.876 12.7588Q18.1348 12.5 18.1348 12.1387Q18.1348 11.7773 17.876 11.5137Q17.6172 11.25 17.2559 11.25Q16.8945 11.25 16.6357 11.5137Q16.377 11.7773 16.377 12.1387Q16.377 12.5 16.6357 12.7588Q16.8945 13.0176 17.2559 13.0176ZM17.2559 16.0645Q17.6172 16.0645 17.876 15.8057Q18.1348 15.5469 18.1348 15.1855Q18.1348 14.8242 17.876 14.5605Q17.6172 14.2969 17.2559 14.2969Q16.8945 14.2969 16.6357 14.5605Q16.377 14.8242 16.377 15.1855Q16.377 15.5469 16.6357 15.8057Q16.8945 16.0645 17.2559 16.0645ZM15.166 18.1543Q15.5273 18.1543 15.7861 17.8955Q16.0449 17.6367 16.0449 17.2852Q16.0449 16.9141 15.7861 16.6553Q15.5273 16.3965 15.166 16.3965Q14.7949 16.3965 14.5361 16.6553Q14.2773 16.9141 14.2773 17.2852Q14.2773 17.6367 14.541 17.8955Q14.8047 18.1543 15.166 18.1543ZM12.1191 18.1543Q12.4805 18.1543 12.7393 17.8955Q12.998 17.6367 12.998 17.2852Q12.998 16.9141 12.7393 16.6553Q12.4805 16.3965 12.1191 16.3965Q11.748 16.3965 11.4893 16.6553Q11.2305 16.9141 11.2305 17.2852Q11.2305 17.6367 11.4941 17.8955Q11.7578 18.1543 12.1191 18.1543ZM9.07227 18.1543Q9.43359 18.1543 9.69238 17.8955Q9.95117 17.6367 9.95117 17.2852Q9.95117 16.9141 9.69238 16.6553Q9.43359 16.3965 9.07227 16.3965Q8.70117 16.3965 8.44238 16.6553Q8.18359 16.9141 8.18359 17.2852Q8.18359 17.6367 8.44238 17.8955Q8.70117 18.1543 9.07227 18.1543ZM6.01562 18.1543Q6.37695 18.1543 6.64062 17.8955Q6.9043 17.6367 6.9043 17.2852Q6.9043 16.9141 6.64062 16.6553Q6.37695 16.3965 6.01562 16.3965Q5.6543 16.3965 5.39551 16.6553Q5.13672 16.9141 5.13672 17.2852Q5.13672 17.6367 5.39551 17.8955Q5.6543 18.1543 6.01562 18.1543ZM2.95898 18.1543Q3.33008 18.1543 3.58887 17.8955Q3.84766 17.6367 3.84766 17.2852Q3.84766 16.9141 3.58887 16.6553Q3.33008 16.3965 2.95898 16.3965Q2.60742 16.3965 2.34863 16.6553Q2.08984 16.9141 2.08984 17.2852Q2.08984 17.6367 2.34863 17.8955Q2.60742 18.1543 2.95898 18.1543ZM0.878906 16.0645Q1.24023 16.0645 1.49902 15.8057Q1.75781 15.5469 1.75781 15.1855Q1.75781 14.8242 1.49902 14.5605Q1.24023 14.2969 0.878906 14.2969Q0.517578 14.2969 0.258789 14.5605Q0 14.8242 0 15.1855Q0 15.5469 0.258789 15.8057Q0.517578 16.0645 0.878906 16.0645ZM0.878906 13.0176Q1.24023 13.0176 1.49902 12.7588Q1.75781 12.5 1.75781 12.1387Q1.75781 11.7773 1.49902 11.5137Q1.24023 11.25 0.878906 11.25Q0.517578 11.25 0.258789 11.5137Q0 11.7773 0 12.1387Q0 12.5 0.258789 12.7588Q0.517578 13.0176 0.878906 13.0176ZM0.878906 9.96094Q1.24023 9.96094 1.49902 9.70215Q1.75781 9.44336 1.75781 9.08203Q1.75781 8.71094 1.49902 8.45215Q1.24023 8.19336 0.878906 8.19336Q0.517578 8.19336 0.258789 8.45703Q0 8.7207 0 9.08203Q0 9.44336 0.258789 9.70215Q0.517578 9.96094 0.878906 9.96094ZM0.878906 6.91406Q1.24023 6.91406 1.49902 6.65039Q1.75781 6.38672 1.75781 6.02539Q1.75781 5.66406 1.49902 5.40527Q1.24023 5.14648 0.878906 5.14648Q0.517578 5.14648 0.258789 5.40527Q0 5.66406 0 6.02539Q0 6.38672 0.258789 6.65039Q0.517578 6.91406 0.878906 6.91406ZM0.878906 3.86719Q1.24023 3.86719 1.49902 3.60352Q1.75781 3.33984 1.75781 2.97852Q1.75781 2.61719 1.49902 2.3584Q1.24023 2.09961 0.878906 2.09961Q0.517578 2.09961 0.258789 2.3584Q0 2.61719 0 2.97852Q0 3.33984 0.258789 3.60352Q0.517578 3.86719 0.878906 3.86719Z" fill="#007aff"/>
 </g>
</svg>
