<?xml version="1.0" encoding="UTF-8"?>
<!--Generator: Apple Native CoreSVG 175.5-->
<!DOCTYPE svg
PUBLIC "-//W3C//DTD SVG 1.1//EN"
       "http://www.w3.org/Graphics/SVG/1.1/DTD/svg11.dtd">
<svg version="1.1" xmlns="http://www.w3.org/2000/svg" xmlns:xlink="http://www.w3.org/1999/xlink" width="22.207" height="26.5527">
 <g>
  <rect height="26.5527" opacity="0" width="22.207" x="0" y="0"/>
  <path d="M0 19.0039Q0 20.5176 0.766602 21.2744Q1.5332 22.0312 3.06641 22.0312L14.2676 22.0312Q15.8008 22.0312 16.5674 21.2744Q17.334 20.5176 17.334 19.0039L17.334 9.46289Q17.334 7.94922 16.5674 7.19238Q15.8008 6.43555 14.2676 6.43555L9.44336 6.43555L9.44336 1.70898Q9.44336 1.40625 9.21387 1.18164Q8.98438 0.957031 8.67188 0.957031Q8.34961 0.957031 8.12012 1.18164Q7.89062 1.40625 7.89062 1.70898L7.89062 6.43555L3.06641 6.43555Q1.5332 6.43555 0.766602 7.19238Q0 7.94922 0 9.46289ZM8.67188 15.7422Q8.51562 15.7422 8.38379 15.6836Q8.25195 15.625 8.10547 15.4785L4.80469 12.2949Q4.57031 12.0605 4.57031 11.7773Q4.57031 11.4844 4.77051 11.2891Q4.9707 11.0938 5.27344 11.0938Q5.60547 11.0938 5.81055 11.3281L7.4707 13.0859L7.94922 13.6035L7.89062 12.1387L7.89062 7.10938Q7.89062 6.78711 8.10547 6.58203Q8.32031 6.37695 8.67188 6.37695Q9.01367 6.37695 9.22852 6.58203Q9.44336 6.78711 9.44336 7.10938L9.44336 12.1387L9.38477 13.5938L9.86328 13.0859L11.5234 11.3281Q11.7285 11.0938 12.0508 11.0938Q12.3535 11.0938 12.5586 11.2891Q12.7637 11.4844 12.7637 11.7773Q12.7637 12.0605 12.5293 12.2949L9.22852 15.4785Q9.08203 15.625 8.9502 15.6836Q8.81836 15.7422 8.67188 15.7422ZM8.76953 26.5527L19.1406 26.5527Q20.6738 26.5527 21.4404 25.7959Q22.207 25.0391 22.207 23.5254L22.207 13.7891Q22.207 12.2754 21.4404 11.5186Q20.6738 10.7617 19.1406 10.7617L18.6621 10.7617L18.6621 19.1504Q18.6621 20.5371 18.1836 21.4746Q17.7051 22.4121 16.7578 22.8906Q15.8105 23.3691 14.4141 23.3691L5.70312 23.3691L5.70312 23.4668Q5.70312 25 6.4502 25.7764Q7.19727 26.5527 8.76953 26.5527Z" fill="#007aff"/>
 </g>
</svg>
