<?xml version="1.0" encoding="UTF-8"?>
<!--Generator: Apple Native CoreSVG 175.5-->
<!DOCTYPE svg
PUBLIC "-//W3C//DTD SVG 1.1//EN"
       "http://www.w3.org/Graphics/SVG/1.1/DTD/svg11.dtd">
<svg version="1.1" xmlns="http://www.w3.org/2000/svg" xmlns:xlink="http://www.w3.org/1999/xlink" width="17.9785" height="17.998">
 <g>
  <rect height="17.998" opacity="0" width="17.9785" x="0" y="0"/>
  <path d="M3.06641 17.998L14.9121 17.998Q16.4453 17.998 17.2119 17.2412Q17.9785 16.4844 17.9785 14.9707L17.9785 3.04688Q17.9785 1.5332 17.2119 0.776367Q16.4453 0.0195312 14.9121 0.0195312L3.06641 0.0195312Q1.5332 0.0195312 0.766602 0.776367Q0 1.5332 0 3.04688L0 14.9707Q0 16.4844 0.766602 17.2412Q1.5332 17.998 3.06641 17.998ZM3.08594 16.4258Q2.35352 16.4258 1.96289 16.04Q1.57227 15.6543 1.57227 14.8926L1.57227 3.125Q1.57227 2.36328 1.96289 1.97754Q2.35352 1.5918 3.08594 1.5918L14.8926 1.5918Q15.6152 1.5918 16.0107 1.97754Q16.4062 2.36328 16.4062 3.125L16.4062 14.8926Q16.4062 15.6543 16.0107 16.04Q15.6152 16.4258 14.8926 16.4258Z" fill="#007aff"/>
  <path d="M3.04688 5.38086Q3.04688 5.69336 3.23242 5.87891Q3.41797 6.06445 3.73047 6.06445L5.36133 6.06445Q5.68359 6.06445 5.86426 5.87891Q6.04492 5.69336 6.04492 5.38086L6.04492 3.74023Q6.04492 3.42773 5.86426 3.24219Q5.68359 3.05664 5.36133 3.05664L3.73047 3.05664Q3.41797 3.05664 3.23242 3.24219Q3.04688 3.42773 3.04688 3.74023ZM7.5 5.38086Q7.5 5.69336 7.68555 5.87891Q7.87109 6.06445 8.18359 6.06445L9.81445 6.06445Q10.1367 6.06445 10.3223 5.87891Q10.5078 5.69336 10.5078 5.38086L10.5078 3.74023Q10.5078 3.42773 10.3223 3.24219Q10.1367 3.05664 9.81445 3.05664L8.18359 3.05664Q7.87109 3.05664 7.68555 3.24219Q7.5 3.42773 7.5 3.74023ZM11.9434 5.38086Q11.9434 5.69336 12.1289 5.87891Q12.3145 6.06445 12.627 6.06445L14.2578 6.06445Q14.5801 6.06445 14.7607 5.87891Q14.9414 5.69336 14.9414 5.38086L14.9414 3.74023Q14.9414 3.42773 14.7607 3.24219Q14.5801 3.05664 14.2578 3.05664L12.627 3.05664Q12.3145 3.05664 12.1289 3.24219Q11.9434 3.42773 11.9434 3.74023ZM3.04688 9.82422Q3.04688 10.1367 3.23242 10.3223Q3.41797 10.5078 3.73047 10.5078L5.36133 10.5078Q5.68359 10.5078 5.86426 10.3223Q6.04492 10.1367 6.04492 9.82422L6.04492 8.18359Q6.04492 7.87109 5.86426 7.68555Q5.68359 7.5 5.36133 7.5L3.73047 7.5Q3.41797 7.5 3.23242 7.68555Q3.04688 7.87109 3.04688 8.18359ZM7.5 9.82422Q7.5 10.1367 7.68555 10.3223Q7.87109 10.5078 8.18359 10.5078L9.81445 10.5078Q10.1367 10.5078 10.3223 10.3223Q10.5078 10.1367 10.5078 9.82422L10.5078 8.18359Q10.5078 7.87109 10.3223 7.68555Q10.1367 7.5 9.81445 7.5L8.18359 7.5Q7.87109 7.5 7.68555 7.68555Q7.5 7.87109 7.5 8.18359ZM11.9434 9.82422Q11.9434 10.1367 12.1289 10.3223Q12.3145 10.5078 12.627 10.5078L14.2578 10.5078Q14.5801 10.5078 14.7607 10.3223Q14.9414 10.1367 14.9414 9.82422L14.9414 8.18359Q14.9414 7.87109 14.7607 7.68555Q14.5801 7.5 14.2578 7.5L12.627 7.5Q12.3145 7.5 12.1289 7.68555Q11.9434 7.87109 11.9434 8.18359ZM3.04688 14.2676Q3.04688 14.5801 3.23242 14.7656Q3.41797 14.9512 3.73047 14.9512L5.36133 14.9512Q5.68359 14.9512 5.86426 14.7656Q6.04492 14.5801 6.04492 14.2676L6.04492 12.627Q6.04492 12.3145 5.86426 12.1289Q5.68359 11.9434 5.36133 11.9434L3.73047 11.9434Q3.41797 11.9434 3.23242 12.1289Q3.04688 12.3145 3.04688 12.627ZM7.5 14.2676Q7.5 14.5801 7.68555 14.7656Q7.87109 14.9512 8.18359 14.9512L9.81445 14.9512Q10.1367 14.9512 10.3223 14.7656Q10.5078 14.5801 10.5078 14.2676L10.5078 12.627Q10.5078 12.3145 10.3223 12.1289Q10.1367 11.9434 9.81445 11.9434L8.18359 11.9434Q7.87109 11.9434 7.68555 12.1289Q7.5 12.3145 7.5 12.627ZM11.9434 14.2676Q11.9434 14.5801 12.1289 14.7656Q12.3145 14.9512 12.627 14.9512L14.2578 14.9512Q14.5801 14.9512 14.7607 14.7656Q14.9414 14.5801 14.9414 14.2676L14.9414 12.627Q14.9414 12.3145 14.7607 12.1289Q14.5801 11.9434 14.2578 11.9434L12.627 11.9434Q12.3145 11.9434 12.1289 12.1289Q11.9434 12.3145 11.9434 12.627Z" fill="#007aff"/>
 </g>
</svg>
