<?xml version="1.0" encoding="UTF-8"?>
<!--Generator: Apple Native CoreSVG 175-->
<!DOCTYPE svg
PUBLIC "-//W3C//DTD SVG 1.1//EN"
       "http://www.w3.org/Graphics/SVG/1.1/DTD/svg11.dtd">
<svg version="1.1" xmlns="http://www.w3.org/2000/svg" xmlns:xlink="http://www.w3.org/1999/xlink" width="18.418" height="21.2984">
 <g>
  <rect height="21.2984" opacity="0" width="18.418" x="0" y="0"/>
  <path d="M8.25195 10.9568L8.25195 20.2537Q8.25195 20.7518 8.45703 21.0106Q8.66211 21.2693 8.99414 21.284Q9.32617 21.2986 9.70703 21.074L17.6855 16.4647Q17.9883 16.2889 18.1445 16.1326Q18.3008 15.9764 18.3594 15.7664Q18.418 15.5564 18.418 15.2537L18.418 5.80059Q18.418 5.4295 18.2129 5.2Q18.0078 4.97051 17.6904 4.93145Q17.373 4.89239 17.002 5.10723L8.97461 9.7459Q8.70117 9.91192 8.54004 10.0731Q8.37891 10.2342 8.31543 10.4441Q8.25195 10.6541 8.25195 10.9568ZM9.29688 10.4197L17.2949 5.79082Q17.4414 5.70293 17.5635 5.76641Q17.6855 5.82989 17.6855 6.00567L17.6855 15.2439Q17.6855 15.4783 17.6172 15.5857Q17.5488 15.6932 17.3633 15.8006L9.29688 20.4588Q9.15039 20.5369 9.0625 20.4832Q8.97461 20.4295 8.97461 20.2928L8.97461 10.9666Q8.97461 10.7518 9.04297 10.6395Q9.11133 10.5272 9.29688 10.4197ZM8.64258 16.7479L8.64258 15.8982L5.03906 17.9686Q4.87305 18.0662 4.79004 18.0076Q4.70703 17.949 4.70703 17.8025L4.70703 8.4959Q4.70703 8.27129 4.77539 8.15899Q4.84375 8.04668 5.0293 7.93926L13.0273 3.30059Q13.1641 3.22246 13.291 3.28594Q13.418 3.34942 13.418 3.5252L13.418 7.52911L14.1504 7.13848L14.1504 3.32012Q14.1504 2.93926 13.9453 2.71465Q13.7402 2.49004 13.418 2.45098Q13.0957 2.41192 12.7344 2.62676L4.70703 7.26543Q4.42383 7.42168 4.26758 7.5877Q4.11133 7.75371 4.04785 7.95879Q3.98438 8.16387 3.98438 8.47637L3.98438 17.7732Q3.98438 18.2713 4.18457 18.5252Q4.38477 18.7791 4.7168 18.7938Q5.04883 18.8084 5.43945 18.5936ZM4.36523 14.4725L4.36523 13.6131L1.05469 15.5369Q0.908203 15.6248 0.81543 15.5662Q0.722656 15.5076 0.722656 15.3611L0.722656 6.04473Q0.722656 5.82989 0.795898 5.71758Q0.869141 5.60528 1.04492 5.49786L9.05273 0.859184Q9.18945 0.781059 9.31641 0.839652Q9.44336 0.898246 9.44336 1.09356L9.44336 4.97051L10.166 4.59942L10.166 0.878715Q10.166 0.507621 9.96582 0.273246Q9.76562 0.038871 9.44336 0.00469133Q9.12109-0.0294884 8.75 0.185355L0.722656 4.82403Q0.449219 4.99004 0.288086 5.14629Q0.126953 5.30254 0.0634766 5.51739Q0 5.73223 0 6.03496L0 15.3318Q0 15.8299 0.205078 16.0838Q0.410156 16.3377 0.742188 16.3523Q1.07422 16.367 1.46484 16.1522Z" fill="#000000"/>
 </g>
</svg>
