<?xml version="1.0" encoding="UTF-8"?>
<!--Generator: Apple Native CoreSVG 175-->
<!DOCTYPE svg
PUBLIC "-//W3C//DTD SVG 1.1//EN"
       "http://www.w3.org/Graphics/SVG/1.1/DTD/svg11.dtd">
<svg version="1.1" xmlns="http://www.w3.org/2000/svg" xmlns:xlink="http://www.w3.org/1999/xlink" width="18.5481" height="21.5732">
 <g>
  <rect height="21.5732" opacity="0" width="18.5481" x="0" y="0"/>
  <path d="M9.07074 21.3466Q9.36325 21.3466 9.81873 21.0912L17.8195 16.4856Q18.1282 16.3063 18.2842 16.1553Q18.4402 16.0043 18.4942 15.7922Q18.5481 15.5801 18.5481 15.2161L18.5481 5.97473Q18.5481 5.44037 18.3627 5.16472Q18.1773 4.88907 17.8343 4.88907Q17.5165 4.88907 17.1001 5.13214L9.1008 9.74579Q8.80356 9.92081 8.64258 10.0767Q8.4816 10.2325 8.42422 10.4482Q8.36685 10.6638 8.36685 11.0153L8.36685 20.2567Q8.36685 20.7829 8.54591 21.0648Q8.72498 21.3466 9.07074 21.3466ZM4.67026 18.8443Q4.75937 18.8443 4.8317 18.8036L4.8317 8.48801Q4.8317 8.34885 4.86099 8.25554Q4.89029 8.16223 4.95789 8.09113Q5.02548 8.02002 5.14221 7.95319L14.0614 2.81296Q14.0527 2.64389 13.9143 2.50832Q13.7758 2.37274 13.5712 2.37274Q13.3661 2.37274 13.1403 2.50168L4.80621 7.30988Q4.48944 7.49191 4.34082 7.62802Q4.1922 7.76413 4.14841 7.96143Q4.10461 8.15872 4.10461 8.51578L4.10461 18.1242Q4.10461 18.4399 4.25911 18.6421Q4.4136 18.8443 4.67026 18.8443ZM0.569916 16.4688Q0.652008 16.4688 0.724182 16.4282L0.724182 6.11252Q0.724182 5.979 0.757065 5.88425Q0.789948 5.78949 0.858841 5.71358Q0.927734 5.63766 1.0321 5.57785L9.95117 0.440369Q9.93835 0.254364 9.78798 0.127182Q9.6376 0 9.4664 0Q9.36249 0 9.25934 0.0305176Q9.15619 0.0610352 9.0329 0.131683L0.698853 4.93713Q0.38208 5.12192 0.234756 5.25673Q0.0874329 5.39154 0.0437164 5.58739Q0 5.78323 0 6.15005L0 15.7489Q0 16.0434 0.134201 16.2561Q0.268402 16.4688 0.569916 16.4688Z" fill="#000000"/>
 </g>
</svg>
