<?xml version="1.0" encoding="UTF-8"?>
<!--Generator: Apple Native CoreSVG 175.5-->
<!DOCTYPE svg
PUBLIC "-//W3C//DTD SVG 1.1//EN"
       "http://www.w3.org/Graphics/SVG/1.1/DTD/svg11.dtd">
<svg version="1.1" xmlns="http://www.w3.org/2000/svg" xmlns:xlink="http://www.w3.org/1999/xlink" width="17.9785" height="17.9785">
 <g>
  <rect height="17.9785" opacity="0" width="17.9785" x="0" y="0"/>
  <path d="M0.869141 1.72852Q1.2207 1.72852 1.47461 1.47461Q1.72852 1.2207 1.72852 0.859375Q1.72852 0.507812 1.47461 0.253906Q1.2207 0 0.869141 0Q0.507812 0 0.253906 0.253906Q0 0.507812 0 0.859375Q0 1.2207 0.253906 1.47461Q0.507812 1.72852 0.869141 1.72852ZM3.57422 1.72852Q3.93555 1.72852 4.18945 1.47461Q4.44336 1.2207 4.44336 0.859375Q4.44336 0.507812 4.18945 0.253906Q3.93555 0 3.57422 0Q3.21289 0 2.96387 0.253906Q2.71484 0.507812 2.71484 0.859375Q2.71484 1.2207 2.96387 1.47461Q3.21289 1.72852 3.57422 1.72852ZM6.2793 1.72852Q6.64062 1.72852 6.89453 1.47461Q7.14844 1.2207 7.14844 0.859375Q7.14844 0.507812 6.89453 0.253906Q6.64062 0 6.2793 0Q5.92773 0 5.67383 0.253906Q5.41992 0.507812 5.41992 0.859375Q5.41992 1.2207 5.67383 1.47461Q5.92773 1.72852 6.2793 1.72852ZM8.99414 1.72852Q9.3457 1.72852 9.59961 1.47461Q9.85352 1.2207 9.85352 0.859375Q9.85352 0.507812 9.59961 0.253906Q9.3457 0 8.99414 0Q8.63281 0 8.37891 0.253906Q8.125 0.507812 8.125 0.859375Q8.125 1.2207 8.37891 1.47461Q8.63281 1.72852 8.99414 1.72852ZM11.6992 1.72852Q12.0605 1.72852 12.3145 1.47461Q12.5684 1.2207 12.5684 0.859375Q12.5684 0.507812 12.3145 0.253906Q12.0605 0 11.6992 0Q11.3379 0 11.0889 0.253906Q10.8398 0.507812 10.8398 0.859375Q10.8398 1.2207 11.0889 1.47461Q11.3379 1.72852 11.6992 1.72852ZM14.4043 1.72852Q14.7656 1.72852 15.0195 1.47461Q15.2734 1.2207 15.2734 0.859375Q15.2734 0.507812 15.0195 0.253906Q14.7656 0 14.4043 0Q14.043 0 13.7939 0.253906Q13.5449 0.507812 13.5449 0.859375Q13.5449 1.2207 13.7939 1.47461Q14.043 1.72852 14.4043 1.72852ZM17.1191 1.72852Q17.4707 1.72852 17.7246 1.47461Q17.9785 1.2207 17.9785 0.859375Q17.9785 0.507812 17.7246 0.253906Q17.4707 0 17.1191 0Q16.7578 0 16.5039 0.253906Q16.25 0.507812 16.25 0.859375Q16.25 1.2207 16.5039 1.47461Q16.7578 1.72852 17.1191 1.72852ZM17.1191 4.43359Q17.4707 4.43359 17.7246 4.18457Q17.9785 3.93555 17.9785 3.57422Q17.9785 3.21289 17.7246 2.95898Q17.4707 2.70508 17.1191 2.70508Q16.7578 2.70508 16.5039 2.95898Q16.25 3.21289 16.25 3.57422Q16.25 3.93555 16.5039 4.18457Q16.7578 4.43359 17.1191 4.43359ZM17.1191 7.13867Q17.4707 7.13867 17.7246 6.88965Q17.9785 6.64062 17.9785 6.2793Q17.9785 5.91797 17.7246 5.66406Q17.4707 5.41016 17.1191 5.41016Q16.7578 5.41016 16.5039 5.66406Q16.25 5.91797 16.25 6.2793Q16.25 6.64062 16.5039 6.88965Q16.7578 7.13867 17.1191 7.13867ZM17.1191 9.85352Q17.4707 9.85352 17.7246 9.59961Q17.9785 9.3457 17.9785 8.98438Q17.9785 8.63281 17.7246 8.37891Q17.4707 8.125 17.1191 8.125Q16.7578 8.125 16.5039 8.37891Q16.25 8.63281 16.25 8.98438Q16.25 9.3457 16.5039 9.59961Q16.7578 9.85352 17.1191 9.85352ZM17.1191 12.5586Q17.4707 12.5586 17.7246 12.3047Q17.9785 12.0508 17.9785 11.6992Q17.9785 11.3379 17.7246 11.084Q17.4707 10.8301 17.1191 10.8301Q16.7578 10.8301 16.5039 11.084Q16.25 11.3379 16.25 11.6992Q16.25 12.0508 16.5039 12.3047Q16.7578 12.5586 17.1191 12.5586ZM17.1191 15.2637Q17.4707 15.2637 17.7246 15.0146Q17.9785 14.7656 17.9785 14.4043Q17.9785 14.043 17.7246 13.7891Q17.4707 13.5352 17.1191 13.5352Q16.7578 13.5352 16.5039 13.7891Q16.25 14.043 16.25 14.4043Q16.25 14.7656 16.5039 15.0146Q16.7578 15.2637 17.1191 15.2637ZM17.1191 17.9785Q17.4707 17.9785 17.7246 17.7246Q17.9785 17.4707 17.9785 17.1094Q17.9785 16.7578 17.7246 16.5039Q17.4707 16.25 17.1191 16.25Q16.7578 16.25 16.5039 16.5039Q16.25 16.7578 16.25 17.1094Q16.25 17.4707 16.5039 17.7246Q16.7578 17.9785 17.1191 17.9785ZM14.4043 17.9785Q14.7656 17.9785 15.0195 17.7246Q15.2734 17.4707 15.2734 17.1094Q15.2734 16.7578 15.0195 16.5039Q14.7656 16.25 14.4043 16.25Q14.043 16.25 13.7939 16.5039Q13.5449 16.7578 13.5449 17.1094Q13.5449 17.4707 13.7939 17.7246Q14.043 17.9785 14.4043 17.9785ZM11.6992 17.9785Q12.0605 17.9785 12.3145 17.7246Q12.5684 17.4707 12.5684 17.1094Q12.5684 16.7578 12.3145 16.5039Q12.0605 16.25 11.6992 16.25Q11.3379 16.25 11.0889 16.5039Q10.8398 16.7578 10.8398 17.1094Q10.8398 17.4707 11.0889 17.7246Q11.3379 17.9785 11.6992 17.9785ZM8.99414 17.9785Q9.3457 17.9785 9.59961 17.7246Q9.85352 17.4707 9.85352 17.1094Q9.85352 16.7578 9.59961 16.5039Q9.3457 16.25 8.99414 16.25Q8.63281 16.25 8.37891 16.5039Q8.125 16.7578 8.125 17.1094Q8.125 17.4707 8.37891 17.7246Q8.63281 17.9785 8.99414 17.9785ZM6.2793 17.9785Q6.64062 17.9785 6.89453 17.7246Q7.14844 17.4707 7.14844 17.1094Q7.14844 16.7578 6.89453 16.5039Q6.64062 16.25 6.2793 16.25Q5.92773 16.25 5.67383 16.5039Q5.41992 16.7578 5.41992 17.1094Q5.41992 17.4707 5.67383 17.7246Q5.92773 17.9785 6.2793 17.9785ZM3.57422 17.9785Q3.93555 17.9785 4.18945 17.7246Q4.44336 17.4707 4.44336 17.1094Q4.44336 16.7578 4.18945 16.5039Q3.93555 16.25 3.57422 16.25Q3.21289 16.25 2.96387 16.5039Q2.71484 16.7578 2.71484 17.1094Q2.71484 17.4707 2.96387 17.7246Q3.21289 17.9785 3.57422 17.9785ZM0.869141 17.9785Q1.2207 17.9785 1.47461 17.7246Q1.72852 17.4707 1.72852 17.1094Q1.72852 16.7578 1.47461 16.5039Q1.2207 16.25 0.869141 16.25Q0.507812 16.25 0.253906 16.5039Q0 16.7578 0 17.1094Q0 17.4707 0.253906 17.7246Q0.507812 17.9785 0.869141 17.9785ZM0.869141 15.2637Q1.2207 15.2637 1.47461 15.0146Q1.72852 14.7656 1.72852 14.4043Q1.72852 14.043 1.47461 13.7891Q1.2207 13.5352 0.869141 13.5352Q0.507812 13.5352 0.253906 13.7891Q0 14.043 0 14.4043Q0 14.7656 0.253906 15.0146Q0.507812 15.2637 0.869141 15.2637ZM0.869141 12.5586Q1.2207 12.5586 1.47461 12.3047Q1.72852 12.0508 1.72852 11.6992Q1.72852 11.3379 1.47461 11.084Q1.2207 10.8301 0.869141 10.8301Q0.507812 10.8301 0.253906 11.084Q0 11.3379 0 11.6992Q0 12.0508 0.253906 12.3047Q0.507812 12.5586 0.869141 12.5586ZM0.869141 9.85352Q1.2207 9.85352 1.47461 9.59961Q1.72852 9.3457 1.72852 8.98438Q1.72852 8.63281 1.47461 8.37891Q1.2207 8.125 0.869141 8.125Q0.507812 8.125 0.253906 8.37891Q0 8.63281 0 8.98438Q0 9.3457 0.253906 9.59961Q0.507812 9.85352 0.869141 9.85352ZM0.869141 7.13867Q1.2207 7.13867 1.47461 6.88965Q1.72852 6.64062 1.72852 6.2793Q1.72852 5.91797 1.47461 5.66406Q1.2207 5.41016 0.869141 5.41016Q0.507812 5.41016 0.253906 5.66406Q0 5.91797 0 6.2793Q0 6.64062 0.253906 6.88965Q0.507812 7.13867 0.869141 7.13867ZM0.869141 4.43359Q1.2207 4.43359 1.47461 4.18457Q1.72852 3.93555 1.72852 3.57422Q1.72852 3.21289 1.47461 2.95898Q1.2207 2.70508 0.869141 2.70508Q0.507812 2.70508 0.253906 2.95898Q0 3.21289 0 3.57422Q0 3.93555 0.253906 4.18457Q0.507812 4.43359 0.869141 4.43359ZM8.99414 4.43359Q9.3457 4.43359 9.59961 4.18457Q9.85352 3.93555 9.85352 3.57422Q9.85352 3.21289 9.59961 2.95898Q9.3457 2.70508 8.99414 2.70508Q8.63281 2.70508 8.37891 2.95898Q8.125 3.21289 8.125 3.57422Q8.125 3.93555 8.37891 4.18457Q8.63281 4.43359 8.99414 4.43359ZM8.99414 7.13867Q9.3457 7.13867 9.59961 6.88965Q9.85352 6.64062 9.85352 6.2793Q9.85352 5.91797 9.59961 5.66406Q9.3457 5.41016 8.99414 5.41016Q8.63281 5.41016 8.37891 5.66406Q8.125 5.91797 8.125 6.2793Q8.125 6.64062 8.37891 6.88965Q8.63281 7.13867 8.99414 7.13867ZM8.99414 9.85352Q9.3457 9.85352 9.59961 9.59961Q9.85352 9.3457 9.85352 8.98438Q9.85352 8.63281 9.59961 8.37891Q9.3457 8.125 8.99414 8.125Q8.63281 8.125 8.37891 8.37891Q8.125 8.63281 8.125 8.98438Q8.125 9.3457 8.37891 9.59961Q8.63281 9.85352 8.99414 9.85352ZM8.99414 12.5586Q9.3457 12.5586 9.59961 12.3047Q9.85352 12.0508 9.85352 11.6992Q9.85352 11.3379 9.59961 11.084Q9.3457 10.8301 8.99414 10.8301Q8.63281 10.8301 8.37891 11.084Q8.125 11.3379 8.125 11.6992Q8.125 12.0508 8.37891 12.3047Q8.63281 12.5586 8.99414 12.5586ZM8.99414 15.2637Q9.3457 15.2637 9.59961 15.0146Q9.85352 14.7656 9.85352 14.4043Q9.85352 14.043 9.59961 13.7891Q9.3457 13.5352 8.99414 13.5352Q8.63281 13.5352 8.37891 13.7891Q8.125 14.043 8.125 14.4043Q8.125 14.7656 8.37891 15.0146Q8.63281 15.2637 8.99414 15.2637ZM3.57422 9.85352Q3.93555 9.85352 4.18945 9.59961Q4.44336 9.3457 4.44336 8.98438Q4.44336 8.63281 4.18945 8.37891Q3.93555 8.125 3.57422 8.125Q3.21289 8.125 2.96387 8.37891Q2.71484 8.63281 2.71484 8.98438Q2.71484 9.3457 2.96387 9.59961Q3.21289 9.85352 3.57422 9.85352ZM6.2793 9.85352Q6.64062 9.85352 6.89453 9.59961Q7.14844 9.3457 7.14844 8.98438Q7.14844 8.63281 6.89453 8.37891Q6.64062 8.125 6.2793 8.125Q5.92773 8.125 5.67383 8.37891Q5.41992 8.63281 5.41992 8.98438Q5.41992 9.3457 5.67383 9.59961Q5.92773 9.85352 6.2793 9.85352ZM11.6992 9.85352Q12.0605 9.85352 12.3145 9.59961Q12.5684 9.3457 12.5684 8.98438Q12.5684 8.63281 12.3145 8.37891Q12.0605 8.125 11.6992 8.125Q11.3379 8.125 11.0889 8.37891Q10.8398 8.63281 10.8398 8.98438Q10.8398 9.3457 11.0889 9.59961Q11.3379 9.85352 11.6992 9.85352ZM14.4043 9.85352Q14.7656 9.85352 15.0195 9.59961Q15.2734 9.3457 15.2734 8.98438Q15.2734 8.63281 15.0195 8.37891Q14.7656 8.125 14.4043 8.125Q14.043 8.125 13.7939 8.37891Q13.5449 8.63281 13.5449 8.98438Q13.5449 9.3457 13.7939 9.59961Q14.043 9.85352 14.4043 9.85352Z" fill="#007aff"/>
 </g>
</svg>
