<?xml version="1.0" encoding="UTF-8"?>
<!--Generator: Apple Native CoreSVG 175.5-->
<!DOCTYPE svg
PUBLIC "-//W3C//DTD SVG 1.1//EN"
       "http://www.w3.org/Graphics/SVG/1.1/DTD/svg11.dtd">
<svg version="1.1" xmlns="http://www.w3.org/2000/svg" xmlns:xlink="http://www.w3.org/1999/xlink" width="17.9785" height="18.2129">
 <g>
  <rect height="18.2129" opacity="0" width="17.9785" x="0" y="0"/>
  <path d="M0 14.9121Q0 16.4551 0.756836 17.2168Q1.51367 17.9785 3.02734 17.9785L14.9512 17.9785Q16.4648 17.9785 17.2217 17.2168Q17.9785 16.4551 17.9785 14.9121L17.9785 3.06641Q17.9785 1.54297 17.2217 0.771484Q16.4648 0 14.9512 0L3.02734 0Q1.51367 0 0.756836 0.771484Q0 1.54297 0 3.06641ZM1.57227 14.8926L1.57227 8.99414L16.4062 8.99414L16.4062 14.8926Q16.4062 15.6152 16.0205 16.0107Q15.6348 16.4062 14.873 16.4062L3.10547 16.4062Q2.34375 16.4062 1.95801 16.0107Q1.57227 15.6152 1.57227 14.8926Z" fill="#007aff"/>
 </g>
</svg>
