<?xml version="1.0" encoding="UTF-8"?>
<!--Generator: Apple Native CoreSVG 175-->
<!DOCTYPE svg
PUBLIC "-//W3C//DTD SVG 1.1//EN"
       "http://www.w3.org/Graphics/SVG/1.1/DTD/svg11.dtd">
<svg version="1.1" xmlns="http://www.w3.org/2000/svg" xmlns:xlink="http://www.w3.org/1999/xlink" width="17.2852" height="17.3145">
 <g>
  <rect height="17.3145" opacity="0" width="17.2852" x="0" y="0"/>
  <path d="M0.517578 8.31055L0.517578 9.04297L16.875 9.04297L16.875 8.31055ZM0 2.65625L0 14.6777Q0 15.9863 0.668945 16.6504Q1.33789 17.3145 2.62695 17.3145L14.6582 17.3145Q15.9375 17.3145 16.6113 16.6504Q17.2852 15.9863 17.2852 14.6777L17.2852 2.65625Q17.2852 1.36719 16.6211 0.698242Q15.957 0.0292969 14.6582 0.0292969L2.62695 0.0292969Q1.32812 0.0292969 0.664062 0.698242Q0 1.36719 0 2.65625ZM0.722656 2.68555Q0.722656 1.73828 1.21094 1.25Q1.69922 0.761719 2.65625 0.761719L14.6191 0.761719Q15.5859 0.761719 16.0693 1.25Q16.5527 1.73828 16.5527 2.68555L16.5527 14.6582Q16.5527 15.5859 16.0693 16.0889Q15.5859 16.5918 14.6191 16.5918L2.65625 16.5918Q1.69922 16.5918 1.21094 16.0889Q0.722656 15.5859 0.722656 14.6582Z" fill="#007aff"/>
 </g>
</svg>
