<?xml version="1.0" encoding="UTF-8"?>
<!--Generator: Apple Native CoreSVG 175-->
<!DOCTYPE svg
PUBLIC "-//W3C//DTD SVG 1.1//EN"
       "http://www.w3.org/Graphics/SVG/1.1/DTD/svg11.dtd">
<svg version="1.1" xmlns="http://www.w3.org/2000/svg" xmlns:xlink="http://www.w3.org/1999/xlink" width="18.4169" height="21.291">
 <g>
  <rect height="21.291" opacity="0" width="18.4169" x="0" y="0"/>
  <path d="M8.25073 10.9551L8.25073 20.2485Q8.25073 20.7523 8.45505 21.009Q8.65936 21.2656 8.99124 21.2787Q9.32312 21.2919 9.7113 21.07L17.6883 16.4562Q17.984 16.2883 18.1422 16.129Q18.3005 15.9696 18.3587 15.7609Q18.4169 15.5523 18.4169 15.2527L18.4169 5.79259Q18.4169 5.42531 18.2143 5.19544Q18.0118 4.96556 17.6903 4.92925Q17.3688 4.89293 17 5.10305L8.97385 9.74416Q8.69888 9.90667 8.53928 10.0696Q8.37967 10.2324 8.3152 10.4397Q8.25073 10.6469 8.25073 10.9551ZM9.29489 10.4191L17.2989 5.78481Q17.4402 5.70348 17.5615 5.76444Q17.6828 5.8254 17.6828 6.00621L17.6828 15.2445Q17.6828 15.4741 17.6138 15.5798Q17.5449 15.6855 17.364 15.7969L9.30008 20.4508Q9.14734 20.5362 9.06258 20.4816Q8.97781 20.427 8.97781 20.2855L8.97781 10.9644Q8.97781 10.7433 9.04381 10.6355Q9.1098 10.5277 9.29489 10.4191ZM8.64609 16.7411L8.64609 15.8898L5.03708 17.9644Q4.87732 18.0597 4.79256 18.0002Q4.70779 17.9406 4.70779 17.8019L4.70779 8.4879Q4.70779 8.2668 4.77386 8.15549Q4.83994 8.04418 5.02502 7.93553L13.0289 3.30114Q13.1676 3.21996 13.2938 3.28084Q13.42 3.34172 13.42 3.52269L13.42 7.52217L14.1469 7.13506L14.1469 3.31594Q14.1469 2.93904 13.9443 2.71054Q13.7418 2.48204 13.4203 2.44435Q13.0989 2.40667 12.7301 2.61953L4.70398 7.26476Q4.42612 7.42025 4.26796 7.58313Q4.1098 7.74602 4.04533 7.95331Q3.98087 8.1606 3.98087 8.47142L3.98087 17.7648Q3.98087 18.266 4.18518 18.5227Q4.3895 18.7793 4.7213 18.7938Q5.0531 18.8082 5.44144 18.5863ZM4.36844 14.4652L4.36844 13.6113L1.05621 15.5285Q0.903473 15.6168 0.815201 15.5607Q0.726929 15.5047 0.726929 15.3589L0.726929 6.04497Q0.726929 5.82387 0.796509 5.71248Q0.866089 5.60109 1.04416 5.4926L9.048 0.858203Q9.18671 0.77428 9.3129 0.836536Q9.43909 0.898792 9.43909 1.08678L9.43909 4.96801L10.166 4.59874L10.166 0.873004Q10.166 0.503131 9.96704 0.271045Q9.76807 0.0389589 9.44305 0.00477918Q9.11804-0.0294005 8.74924 0.180866L0.723114 4.82183Q0.445251 4.98433 0.287094 5.14371Q0.128937 5.30309 0.0644684 5.51381Q0 5.72454 0 6.02849L0 15.3261Q0 15.8231 0.204315 16.0798Q0.40863 16.3364 0.740433 16.3508Q1.07224 16.3653 1.46057 16.1477Z" fill="#007aff"/>
 </g>
</svg>
