<?xml version="1.0" encoding="UTF-8"?>
<!--Generator: Apple Native CoreSVG 175-->
<!DOCTYPE svg
PUBLIC "-//W3C//DTD SVG 1.1//EN"
       "http://www.w3.org/Graphics/SVG/1.1/DTD/svg11.dtd">
<svg version="1.1" xmlns="http://www.w3.org/2000/svg" xmlns:xlink="http://www.w3.org/1999/xlink" width="19.1602" height="19.1504">
 <g>
  <rect height="19.1504" opacity="0" width="19.1602" x="0" y="0"/>
  <path d="M9.57031 19.1504Q11.5527 19.1504 13.2861 18.4082Q15.0195 17.666 16.3379 16.3428Q17.6562 15.0195 18.4082 13.2861Q19.1602 11.5527 19.1602 9.58008Q19.1602 7.60742 18.4082 5.87402Q17.6562 4.14062 16.3379 2.81738Q15.0195 1.49414 13.2861 0.751953Q11.5527 0.00976562 9.57031 0.00976562Q7.59766 0.00976562 5.86426 0.751953Q4.13086 1.49414 2.81738 2.81738Q1.50391 4.14062 0.751953 5.87402Q0 7.60742 0 9.58008Q0 11.5527 0.74707 13.2861Q1.49414 15.0195 2.8125 16.3428Q4.13086 17.666 5.86914 18.4082Q7.60742 19.1504 9.57031 19.1504Z" fill="#000000"/>
  <path d="M5.2832 7.13867L5.3125 7.08008Q5.51758 6.67969 5.71777 6.63086Q5.91797 6.58203 6.28906 6.80664L8.80859 8.25195L8.80859 5.35156Q8.80859 4.94141 8.95996 4.79492Q9.11133 4.64844 9.54102 4.64844L9.60938 4.64844Q10.0391 4.64844 10.1904 4.79492Q10.3418 4.94141 10.3418 5.35156L10.3418 8.25195L12.8516 6.80664Q13.252 6.58203 13.4473 6.63574Q13.6426 6.68945 13.8281 7.08008L13.8672 7.13867Q14.0527 7.50977 13.999 7.71484Q13.9453 7.91992 13.5938 8.11523L10.9961 9.52148L13.6035 11.0352Q13.9453 11.2402 13.999 11.4355Q14.0527 11.6309 13.8477 12.0117L13.8281 12.0508Q13.6328 12.4512 13.4375 12.5049Q13.2422 12.5586 12.8613 12.3242L10.3418 10.8789L10.3418 13.7793Q10.3418 14.1992 10.1904 14.3457Q10.0391 14.4922 9.60938 14.4922L9.54102 14.4922Q9.11133 14.4922 8.95996 14.3457Q8.80859 14.1992 8.80859 13.7793L8.80859 10.8789L6.28906 12.3242Q5.9082 12.5586 5.71289 12.5Q5.51758 12.4414 5.3125 12.0508L5.29297 12.0117Q5.08789 11.6309 5.1416 11.4307Q5.19531 11.2305 5.54688 11.0352L8.1543 9.52148L5.56641 8.11523Q5.20508 7.91992 5.14648 7.71973Q5.08789 7.51953 5.2832 7.13867Z" fill="#ffffff"/>
 </g>
</svg>
