<?xml version="1.0" encoding="UTF-8"?>
<!--Generator: Apple Native CoreSVG 175-->
<!DOCTYPE svg
PUBLIC "-//W3C//DTD SVG 1.1//EN"
       "http://www.w3.org/Graphics/SVG/1.1/DTD/svg11.dtd">
<svg version="1.1" xmlns="http://www.w3.org/2000/svg" xmlns:xlink="http://www.w3.org/1999/xlink" width="20.7359" height="21.0645">
 <g>
  <rect height="21.0645" opacity="0" width="20.7359" x="0" y="0"/>
  <path d="M3.98222 19.682Q4.15144 19.8039 4.36354 19.7764Q4.57564 19.7488 4.84907 19.5531L10.3667 15.5153L15.887 19.5531Q16.1604 19.7488 16.3725 19.7764Q16.5846 19.8039 16.7537 19.682Q16.9229 19.5558 16.9688 19.3472Q17.0148 19.1386 16.9064 18.8011L14.774 12.3122L20.3193 8.30902Q20.6026 8.10623 20.6869 7.90855Q20.7713 7.71088 20.7104 7.51831Q20.6494 7.32849 20.4623 7.21596Q20.2753 7.10342 19.9197 7.10617L13.0943 7.12418L11.0034 0.626984Q10.8908 0.286713 10.7313 0.143356Q10.5717 0 10.3667 0Q10.1643 0 10.0047 0.143356Q9.84511 0.286713 9.73265 0.626984L7.64158 7.12418L0.816176 7.10617Q0.460799 7.10342 0.27365 7.21596Q0.0865007 7.32849 0.0256181 7.51831Q-0.035417 7.71088 0.0489641 7.90855Q0.133345 8.10623 0.416548 8.30902L5.9619 12.3122L3.82948 18.8011Q3.7213 19.1386 3.76723 19.3472Q3.81315 19.5558 3.98222 19.682Z" fill="#ffd60a"/>
 </g>
</svg>
