<?xml version="1.0" encoding="UTF-8"?>
<!--Generator: Apple Native CoreSVG 175.5-->
<!DOCTYPE svg
PUBLIC "-//W3C//DTD SVG 1.1//EN"
       "http://www.w3.org/Graphics/SVG/1.1/DTD/svg11.dtd">
<svg version="1.1" xmlns="http://www.w3.org/2000/svg" xmlns:xlink="http://www.w3.org/1999/xlink" width="20.6641" height="20.4785">
 <g>
  <rect height="20.4785" opacity="0" width="20.6641" x="0" y="0"/>
  <path d="M7.80273 20.4785L17.6074 20.4785Q19.1309 20.4785 19.8975 19.7168Q20.6641 18.9551 20.6641 17.4512L20.6641 7.56836Q20.6641 6.06445 19.8975 5.30273Q19.1309 4.54102 17.6074 4.54102L7.80273 4.54102Q6.26953 4.54102 5.50293 5.29785Q4.73633 6.05469 4.73633 7.56836L4.73633 17.4512Q4.73633 18.9648 5.50293 19.7217Q6.26953 20.4785 7.80273 20.4785ZM0 12.9297Q0 14.4434 0.766602 15.2002Q1.5332 15.957 3.06641 15.957L3.39844 15.957L3.39844 7.56836Q3.39844 6.19141 3.9209 5.21484Q4.44336 4.23828 5.42969 3.72559Q6.41602 3.21289 7.80273 3.21289L15.9277 3.21289L15.9277 3.04688Q15.9277 1.54297 15.1611 0.78125Q14.3945 0.0195312 12.8711 0.0195312L3.06641 0.0195312Q1.5332 0.0195312 0.766602 0.776367Q0 1.5332 0 3.04688Z" fill="#007aff"/>
  <path d="M10.2861 16.8864Q10.0399 17.0751 9.81418 17.0341Q9.58848 16.9931 9.47769 16.7879Q9.3669 16.5827 9.46538 16.2955L10.4256 13.4313L7.97171 11.6832Q7.74192 11.5108 7.70909 11.2769Q7.67626 11.043 7.82399 10.8666Q7.97171 10.6901 8.29178 10.6983L11.3037 10.723L12.2147 7.84231Q12.305 7.55507 12.5102 7.46069Q12.7153 7.36631 12.9205 7.46069Q13.1257 7.55507 13.216 7.84231L14.1351 10.723L17.1471 10.6983Q17.4672 10.6901 17.6149 10.8707Q17.7626 11.0512 17.7298 11.2851Q17.697 11.519 17.4672 11.675L15.0133 13.4313L15.9735 16.2955Q16.072 16.5827 15.9612 16.7879Q15.8504 16.9931 15.6247 17.0341Q15.399 17.0751 15.1446 16.8864L12.7153 15.1137Z" fill="#ffffff"/>
 </g>
</svg>
