<?xml version="1.0" encoding="UTF-8"?>
<!--Generator: Apple Native CoreSVG 175.5-->
<!DOCTYPE svg
PUBLIC "-//W3C//DTD SVG 1.1//EN"
       "http://www.w3.org/Graphics/SVG/1.1/DTD/svg11.dtd">
<svg version="1.1" xmlns="http://www.w3.org/2000/svg" xmlns:xlink="http://www.w3.org/1999/xlink" width="21.6855" height="22.1191">
 <g>
  <rect height="22.1191" opacity="0" width="21.6855" x="0" y="0"/>
  <path d="M8.43555 5.21484L16.0039 12.7637L20.9453 9.20898Q21.4043 8.88672 21.5801 8.54492Q21.7559 8.20312 21.6387 7.8418Q21.5215 7.49023 21.1797 7.31445Q20.8379 7.13867 20.2715 7.14844L13.875 7.1875L11.9316 1.08398Q11.7559 0.546875 11.4873 0.273438Q11.2188 0 10.8379 0Q10.4668 0 10.1982 0.273438Q9.92969 0.546875 9.75391 1.08398ZM4.93945 7.16797L1.41406 7.14844Q0.847656 7.13867 0.505859 7.31445Q0.164062 7.49023 0.046875 7.8418Q-0.0703125 8.20312 0.105469 8.54492Q0.28125 8.88672 0.740234 9.20898L5.95508 12.959L3.91406 19.0332Q3.72852 19.5605 3.79199 19.9414Q3.85547 20.3223 4.1582 20.5469Q4.46094 20.7812 4.8418 20.708Q5.22266 20.6348 5.67188 20.3125L10.8379 16.5137L16.0137 20.3125Q16.4629 20.6348 16.8438 20.708Q17.2246 20.7812 17.5273 20.5469Q17.6055 20.4883 17.6543 20.415Q17.7031 20.3418 17.7227 20.2197Q17.7422 20.0977 17.7227 19.9023Z" fill="#007aff"/>
  <path d="M19.2852 19.8145Q19.5098 20.0293 19.8223 20.0293Q20.1348 20.0293 20.3496 19.8145Q20.5645 19.5898 20.5693 19.2773Q20.5742 18.9648 20.3496 18.75L4.53906 2.98828Q4.31445 2.76367 4.00195 2.76367Q3.68945 2.76367 3.46484 2.98828Q3.25 3.20312 3.25 3.52051Q3.25 3.83789 3.46484 4.05273Z" fill="#007aff"/>
 </g>
</svg>
