<?xml version="1.0" encoding="UTF-8"?>
<!--Generator: Apple Native CoreSVG 175.5-->
<!DOCTYPE svg
PUBLIC "-//W3C//DTD SVG 1.1//EN"
       "http://www.w3.org/Graphics/SVG/1.1/DTD/svg11.dtd">
<svg version="1.1" xmlns="http://www.w3.org/2000/svg" xmlns:xlink="http://www.w3.org/1999/xlink" width="20.6641" height="20.4785">
 <g>
  <rect height="20.4785" opacity="0" width="20.6641" x="0" y="0"/>
  <path d="M3.06641 15.957L5.53711 15.957L5.53711 14.3848L3.08594 14.3848Q2.35352 14.3848 1.96289 13.9941Q1.57227 13.6035 1.57227 12.8418L1.57227 3.13477Q1.57227 2.37305 1.96289 1.98242Q2.35352 1.5918 3.08594 1.5918L12.8418 1.5918Q13.5645 1.5918 13.96 1.98242Q14.3555 2.37305 14.3555 3.13477L14.3555 5.27344L15.9277 5.27344L15.9277 3.04688Q15.9277 1.54297 15.1611 0.78125Q14.3945 0.0195312 12.8711 0.0195312L3.06641 0.0195312Q1.5332 0.0195312 0.766602 0.776367Q0 1.5332 0 3.04688L0 12.9297Q0 14.4434 0.766602 15.2002Q1.5332 15.957 3.06641 15.957Z" fill="#007aff"/>
  <path d="M7.80273 20.4785L17.6074 20.4785Q19.1309 20.4785 19.8975 19.7168Q20.6641 18.9551 20.6641 17.4512L20.6641 7.56836Q20.6641 6.06445 19.8975 5.30273Q19.1309 4.54102 17.6074 4.54102L7.80273 4.54102Q6.26953 4.54102 5.50293 5.29785Q4.73633 6.05469 4.73633 7.56836L4.73633 17.4512Q4.73633 18.9648 5.50293 19.7217Q6.26953 20.4785 7.80273 20.4785ZM7.82227 18.9062Q7.08984 18.9062 6.69922 18.5156Q6.30859 18.125 6.30859 17.3633L6.30859 7.65625Q6.30859 6.89453 6.69922 6.50391Q7.08984 6.11328 7.82227 6.11328L17.5781 6.11328Q18.3008 6.11328 18.6963 6.50391Q19.0918 6.89453 19.0918 7.65625L19.0918 17.3633Q19.0918 18.125 18.6963 18.5156Q18.3008 18.9062 17.5781 18.9062ZM10.3505 16.7371L12.7059 15.0136L15.0613 16.7371Q15.3075 16.9177 15.525 16.8766Q15.7425 16.8356 15.8492 16.6386Q15.9558 16.4416 15.8656 16.1626L14.93 13.3805L17.31 11.6816Q17.5316 11.5257 17.5644 11.3Q17.5972 11.0743 17.4536 10.9019Q17.31 10.7296 17.0063 10.7378L14.0847 10.7624L13.1901 7.96386Q13.108 7.69303 12.907 7.60275Q12.7059 7.51247 12.5089 7.60275Q12.312 7.69303 12.2217 7.96386L11.3353 10.7624L8.41365 10.7378Q8.10999 10.7296 7.96637 10.9019Q7.82275 11.0743 7.85557 11.3Q7.8884 11.5257 8.10999 11.6898L10.49 13.3805L9.55441 16.1626Q9.46414 16.4416 9.57083 16.6386Q9.67752 16.8356 9.895 16.8766Q10.1125 16.9177 10.3505 16.7371Z" fill="#007aff"/>
 </g>
</svg>
