<?xml version="1.0" encoding="UTF-8"?>
<!--Generator: Apple Native CoreSVG 175-->
<!DOCTYPE svg
PUBLIC "-//W3C//DTD SVG 1.1//EN"
       "http://www.w3.org/Graphics/SVG/1.1/DTD/svg11.dtd">
<svg version="1.1" xmlns="http://www.w3.org/2000/svg" xmlns:xlink="http://www.w3.org/1999/xlink" width="17.2852" height="17.3145">
 <g>
  <rect height="17.3145" opacity="0" width="17.2852" x="0" y="0"/>
  <path d="M2.62695 17.3145L14.6484 17.3145Q15.957 17.3145 16.6211 16.6455Q17.2852 15.9766 17.2852 14.6875L17.2852 2.65625Q17.2852 1.37695 16.6211 0.703125Q15.957 0.0292969 14.6484 0.0292969L2.62695 0.0292969Q1.33789 0.0292969 0.668945 0.693359Q0 1.35742 0 2.65625L0 14.6875Q0 15.9863 0.668945 16.6504Q1.33789 17.3145 2.62695 17.3145ZM2.65625 16.5918Q1.70898 16.5918 1.2207 16.1035Q0.732422 15.6152 0.732422 14.6582L0.732422 2.69531Q0.732422 1.72852 1.2207 1.24512Q1.70898 0.761719 2.65625 0.761719L14.6289 0.761719Q15.5566 0.761719 16.0596 1.24512Q16.5625 1.72852 16.5625 2.69531L16.5625 14.6582Q16.5625 15.6152 16.0596 16.1035Q15.5566 16.5918 14.6289 16.5918ZM5.64453 13.6328L8.64258 11.4355L11.6602 13.6328Q11.8164 13.75 11.9678 13.7207Q12.1191 13.6914 12.1973 13.5645Q12.2754 13.4375 12.207 13.2227L11.0449 9.6875L14.0723 7.51953Q14.1992 7.43164 14.2188 7.27539Q14.2383 7.11914 14.1455 6.99219Q14.0527 6.86523 13.8477 6.86523L10.127 6.86523L8.98438 3.32031Q8.92578 3.14453 8.78418 3.08594Q8.64258 3.02734 8.50586 3.08594Q8.36914 3.14453 8.31055 3.32031L7.16797 6.86523L3.44727 6.86523Q3.25195 6.86523 3.1543 6.98242Q3.05664 7.09961 3.07129 7.26074Q3.08594 7.42188 3.23242 7.5293L6.25977 9.6875L5.09766 13.2227Q5.03906 13.4375 5.1123 13.5645Q5.18555 13.6914 5.33203 13.7207Q5.47852 13.75 5.64453 13.6328Z" fill="#ffd60a"/>
 </g>
</svg>
