<?xml version="1.0" encoding="UTF-8"?>
<!--Generator: Apple Native CoreSVG 175-->
<!DOCTYPE svg
PUBLIC "-//W3C//DTD SVG 1.1//EN"
       "http://www.w3.org/Graphics/SVG/1.1/DTD/svg11.dtd">
<svg version="1.1" xmlns="http://www.w3.org/2000/svg" xmlns:xlink="http://www.w3.org/1999/xlink" width="24.4919" height="19.7418">
 <g>
  <rect height="19.7418" opacity="0" width="24.4919" x="0" y="0"/>
  <path d="M0 3.43048Q0 4.64569 0.388489 5.95955Q0.776978 7.27341 1.44569 8.51387Q2.11441 9.75433 2.97287 10.7484Q3.83133 11.7426 4.77737 12.3316Q5.72342 12.9207 6.64764 12.9207L6.94214 12.9207Q7.86636 12.9207 8.81248 12.3316Q9.75861 11.7426 10.6135 10.7484Q11.4684 9.75433 12.1407 8.51387Q12.813 7.27341 13.2014 5.95955Q13.5899 4.64569 13.5899 3.43048Q13.5899 1.98517 12.9268 1.28792Q12.2636 0.590668 10.8965 0.590668L10.2832 0.590668L10.2832 1.31912L11.1293 1.31912Q12.0473 1.31912 12.4543 1.87187Q12.8613 2.42462 12.8613 3.41095Q12.8613 4.53552 12.5066 5.75562Q12.1519 6.97571 11.5356 8.12065Q10.9192 9.26559 10.1346 10.1849Q9.34998 11.1043 8.49236 11.6483Q7.63474 12.1922 6.79489 12.1922Q5.95779 12.1922 5.0988 11.6483Q4.23981 11.1043 3.45528 10.1849Q2.67075 9.26559 2.05566 8.12065Q1.44058 6.97571 1.08459 5.75562Q0.728607 4.53552 0.728607 3.41095Q0.728607 2.42462 1.13701 1.87187Q1.54541 1.31912 2.46063 1.31912L3.30673 1.31912L3.30673 0.590668L2.69333 0.590668Q1.32614 0.590668 0.663071 1.28792Q0 1.98517 0 3.43048ZM10.7231 19.7125Q12.1935 19.7125 13.1491 19.0305Q14.1048 18.3485 14.6709 16.8649Q15.2371 15.3813 15.5559 12.9633Q15.77 11.3617 16.1458 10.3482Q16.5216 9.33472 17.1022 8.85719Q17.6828 8.37967 18.4985 8.37967Q19.2793 8.37967 19.8402 8.90823Q20.4012 9.4368 20.7307 10.5247Q21.0602 11.6125 21.1566 13.2837L21.8852 13.2837Q21.7598 11.3649 21.3446 10.1188Q20.9294 8.87268 20.2233 8.26546Q19.5172 7.65823 18.4985 7.65823Q17.4434 7.65823 16.7309 8.19145Q16.0184 8.72467 15.5695 9.84283Q15.1207 10.961 14.8567 12.7031Q14.6281 14.202 14.353 15.3687Q14.0778 16.5355 13.6432 17.3424Q13.2086 18.1493 12.5027 18.5667Q11.7969 18.9841 10.7028 18.9841Q8.91403 18.9841 8.02444 17.3983Q7.13486 15.8125 7.14188 12.6657L6.41327 12.6657Q6.40625 16.3098 7.52792 18.0112Q8.6496 19.7125 10.7231 19.7125Z" fill="#5e5ce6"/>
  <path d="M3.97507 1.88049Q4.36249 1.88049 4.6389 1.60416Q4.91531 1.32782 4.91531 0.940247Q4.91531 0.552673 4.6389 0.276337Q4.36249 0 3.97507 0Q3.58749 0 3.31253 0.276337Q3.03757 0.552673 3.03757 0.940247Q3.03757 1.32782 3.31253 1.60416Q3.58749 1.88049 3.97507 1.88049ZM9.60938 1.88049Q9.99695 1.88049 10.2733 1.60416Q10.5496 1.32782 10.5496 0.940247Q10.5496 0.552673 10.2733 0.276337Q9.99695 0 9.60938 0Q9.2218 0 8.94547 0.276337Q8.66913 0.552673 8.66913 0.940247Q8.66913 1.32782 8.94547 1.60416Q9.2218 1.88049 9.60938 1.88049ZM21.5141 18.8496Q22.3357 18.8496 23.0128 18.4451Q23.6899 18.0406 24.0909 17.3621Q24.4919 16.6837 24.4919 15.8524Q24.4919 15.0308 24.0909 14.3537Q23.6899 13.6766 23.0128 13.2756Q22.3357 12.8746 21.5141 12.8719Q20.6828 12.8719 20.0043 13.2729Q19.3259 13.6739 18.9214 14.3523Q18.5168 15.0308 18.5168 15.8524Q18.5168 16.6837 18.9214 17.3621Q19.3259 18.0406 20.0043 18.4451Q20.6828 18.8496 21.5141 18.8496ZM21.5141 18.1618Q20.8739 18.1618 20.3497 17.8549Q19.8254 17.5481 19.5137 17.0225Q19.202 16.4969 19.202 15.8524Q19.202 15.2191 19.5137 14.6949Q19.8254 14.1707 20.3497 13.8639Q20.8739 13.5571 21.5141 13.5571Q22.1516 13.5571 22.6723 13.8639Q23.1931 14.1707 23.5034 14.6949Q23.8138 15.2191 23.8138 15.8524Q23.8138 16.4969 23.5034 17.0225Q23.1931 17.5481 22.6723 17.8549Q22.1516 18.1618 21.5141 18.1618Z" fill="#98989d"/>
 </g>
</svg>
