<?xml version="1.0" encoding="UTF-8"?>
<!--Generator: Apple Native CoreSVG 175.5-->
<!DOCTYPE svg
PUBLIC "-//W3C//DTD SVG 1.1//EN"
       "http://www.w3.org/Graphics/SVG/1.1/DTD/svg11.dtd">
<svg version="1.1" xmlns="http://www.w3.org/2000/svg" xmlns:xlink="http://www.w3.org/1999/xlink" width="19.9219" height="23.877">
 <g>
  <rect height="23.877" opacity="0" width="19.9219" x="0" y="0"/>
  <path d="M9.96094 21.8945Q12.002 21.8945 13.8037 21.1133Q15.6055 20.332 16.9824 18.9551Q18.3594 17.5781 19.1406 15.7764Q19.9219 13.9746 19.9219 11.9336Q19.9219 9.89258 19.1406 8.09082Q18.3594 6.28906 16.9824 4.91211Q15.6055 3.53516 13.7988 2.75391Q11.9922 1.97266 9.95117 1.97266Q7.91016 1.97266 6.1084 2.75391Q4.30664 3.53516 2.93457 4.91211Q1.5625 6.28906 0.78125 8.09082Q0 9.89258 0 11.9336Q0 13.9746 0.78125 15.7764Q1.5625 17.5781 2.93945 18.9551Q4.31641 20.332 6.11816 21.1133Q7.91992 21.8945 9.96094 21.8945ZM9.96094 20.2344Q8.23242 20.2344 6.72852 19.5898Q5.22461 18.9453 4.08691 17.8076Q2.94922 16.6699 2.30957 15.166Q1.66992 13.6621 1.66992 11.9336Q1.66992 10.2051 2.30957 8.70117Q2.94922 7.19727 4.08203 6.05469Q5.21484 4.91211 6.71875 4.27246Q8.22266 3.63281 9.95117 3.63281Q11.6797 3.63281 13.1836 4.27246Q14.6875 4.91211 15.8301 6.05469Q16.9727 7.19727 17.6172 8.70117Q18.2617 10.2051 18.2617 11.9336Q18.2617 13.6621 17.6221 15.166Q16.9824 16.6699 15.8447 17.8076Q14.707 18.9453 13.1982 19.5898Q11.6895 20.2344 9.96094 20.2344ZM8.90625 2.57812L10.9961 2.57812L10.9961 1.07422Q10.9961 0.634766 10.6934 0.317383Q10.3906 0 9.95117 0Q9.52148 0 9.21387 0.317383Q8.90625 0.634766 8.90625 1.07422ZM16.0449 4.6875L17.5 6.18164L18.5742 5.08789Q18.9258 4.73633 18.9258 4.29688Q18.9258 3.88672 18.6377 3.59863Q18.3496 3.31055 17.9199 3.31055Q17.4512 3.31055 17.1191 3.63281Z" fill="#ff9f0a"/>
  <path d="M9.96094 13.5156Q10.6152 13.5156 11.0742 13.0566Q11.5332 12.5977 11.5332 11.9434Q11.5332 11.4746 11.2891 11.0986Q11.0449 10.7227 10.6348 10.5273L10.6348 5.67383Q10.6348 5.39062 10.4395 5.19531Q10.2441 5 9.95117 5Q9.66797 5 9.47266 5.19531Q9.27734 5.39062 9.27734 5.67383L9.27734 10.5176Q8.87695 10.7324 8.63281 11.1084Q8.38867 11.4844 8.38867 11.9434Q8.38867 12.5879 8.84277 13.0518Q9.29688 13.5156 9.96094 13.5156Z" fill="rgba(255,255,255,0.85)"/>
 </g>
</svg>
