<?xml version="1.0" encoding="UTF-8"?>
<!--Generator: Apple Native CoreSVG 175-->
<!DOCTYPE svg
PUBLIC "-//W3C//DTD SVG 1.1//EN"
       "http://www.w3.org/Graphics/SVG/1.1/DTD/svg11.dtd">
<svg version="1.1" xmlns="http://www.w3.org/2000/svg" xmlns:xlink="http://www.w3.org/1999/xlink" width="15.0786" height="15.098">
 <g>
  <rect height="15.098" opacity="0" width="15.0786" x="0" y="0"/>
  <path d="M0 13.3308Q0 14.1566 0.465012 14.6189Q0.930023 15.0812 1.75858 15.0812L13.32 15.0812Q14.1512 15.0812 14.6149 14.6189Q15.0786 14.1566 15.0786 13.3308L15.0786 1.75735Q15.0786 0.928802 14.6149 0.464401Q14.1512 0 13.32 0L1.75858 0Q0.930023 0 0.465012 0.464401Q0 0.928802 0 1.75735ZM0.728607 13.2339L0.728607 1.85425Q0.728607 1.32065 1.02333 1.02455Q1.31805 0.728455 1.84891 0.728455L13.2297 0.728455Q13.7633 0.728455 14.0601 1.02455Q14.357 1.32065 14.357 1.85425L14.357 13.2339Q14.357 13.7605 14.0601 14.0601Q13.7633 14.3597 13.2297 14.3597L1.84891 14.3597Q1.31805 14.3597 1.02333 14.0601Q0.728607 13.7605 0.728607 13.2339Z" fill="#ffffff"/>
 </g>
</svg>
