<?xml version="1.0" encoding="UTF-8"?>
<!--Generator: Apple Native CoreSVG 175.5-->
<!DOCTYPE svg
PUBLIC "-//W3C//DTD SVG 1.1//EN"
       "http://www.w3.org/Graphics/SVG/1.1/DTD/svg11.dtd">
<svg version="1.1" xmlns="http://www.w3.org/2000/svg" xmlns:xlink="http://www.w3.org/1999/xlink" width="18.7793" height="19.1699">
 <g>
  <rect height="19.1699" opacity="0" width="18.7793" x="0" y="0"/>
  <path d="M0 5.12695L18.7793 5.12695L18.7793 2.04102Q18.7793 1.12305 18.2373 0.561523Q17.6953 0 16.8066 0L1.96289 0Q1.08398 0 0.541992 0.561523Q0 1.12305 0 2.04102ZM4.00391 3.7793Q3.58398 3.7793 3.28613 3.49121Q2.98828 3.20312 2.98828 2.79297Q2.98828 2.37305 3.28613 2.08496Q3.58398 1.79688 4.00391 1.79688Q4.4043 1.79688 4.70215 2.08496Q5 2.37305 5 2.79297Q5 3.20312 4.70215 3.49121Q4.4043 3.7793 4.00391 3.7793ZM7.58789 3.7793Q7.17773 3.7793 6.875 3.49121Q6.57227 3.20312 6.57227 2.79297Q6.57227 2.37305 6.875 2.08496Q7.17773 1.79688 7.58789 1.79688Q7.99805 1.79688 8.29102 2.08496Q8.58398 2.37305 8.58398 2.79297Q8.58398 3.20312 8.29102 3.49121Q7.99805 3.7793 7.58789 3.7793ZM11.1621 3.7793Q10.752 3.7793 10.4541 3.49121Q10.1562 3.20312 10.1562 2.79297Q10.1562 2.37305 10.4541 2.08496Q10.752 1.79688 11.1621 1.79688Q11.5723 1.79688 11.8701 2.08496Q12.168 2.37305 12.168 2.79297Q12.168 3.20312 11.8701 3.49121Q11.5723 3.7793 11.1621 3.7793ZM14.7461 3.7793Q14.3457 3.7793 14.0479 3.49121Q13.75 3.20312 13.75 2.79297Q13.75 2.37305 14.0479 2.08496Q14.3457 1.79688 14.7461 1.79688Q15.166 1.79688 15.4639 2.08496Q15.7617 2.37305 15.7617 2.79297Q15.7617 3.20312 15.4639 3.49121Q15.166 3.7793 14.7461 3.7793ZM1.96289 17.4121L16.8066 17.4121Q17.6953 17.4121 18.2373 16.8555Q18.7793 16.2988 18.7793 15.3711L18.7793 6.21094L0 6.21094L0 15.3711Q0 16.2988 0.541992 16.8555Q1.08398 17.4121 1.96289 17.4121ZM3.4375 14.9902Q3.01758 14.9902 2.75879 14.7363Q2.5 14.4824 2.5 14.0527L2.5 8.86719Q2.5 8.4375 2.75879 8.17871Q3.01758 7.91992 3.4375 7.91992L15.3418 7.91992Q15.7715 7.91992 16.0303 8.17871Q16.2891 8.4375 16.2891 8.86719L16.2891 14.0527Q16.2891 14.4824 16.0303 14.7363Q15.7715 14.9902 15.3418 14.9902ZM3.83789 13.9062L14.9512 13.9062Q15.2051 13.9062 15.2051 13.6426L15.2051 9.27734Q15.2051 9.00391 14.9512 9.00391L3.83789 9.00391Q3.58398 9.00391 3.58398 9.27734L3.58398 13.6426Q3.58398 13.9062 3.83789 13.9062ZM2.79297 19.1699Q3.14453 19.1699 3.35938 18.9551Q3.57422 18.7402 3.57422 18.3887L3.57422 16.4355L2.00195 16.4355L2.00195 18.3887Q2.00195 18.7402 2.22168 18.9551Q2.44141 19.1699 2.79297 19.1699ZM15.9863 19.1699Q16.3379 19.1699 16.5527 18.9551Q16.7676 18.7402 16.7676 18.3887L16.7676 16.4355L15.1953 16.4355L15.1953 18.3887Q15.1953 18.7402 15.415 18.9551Q15.6348 19.1699 15.9863 19.1699Z" fill="#007aff"/>
 </g>
</svg>
