<?xml version="1.0" encoding="UTF-8"?>
<!--Generator: Apple Native CoreSVG 175-->
<!DOCTYPE svg
PUBLIC "-//W3C//DTD SVG 1.1//EN"
       "http://www.w3.org/Graphics/SVG/1.1/DTD/svg11.dtd">
<svg version="1.1" xmlns="http://www.w3.org/2000/svg" xmlns:xlink="http://www.w3.org/1999/xlink" width="23.2704" height="22.1115">
 <g>
  <rect height="22.1115" opacity="0" width="23.2704" x="0" y="0"/>
  <path d="M0.376129 17.0795L18.0684 17.0795Q19.1992 17.0795 19.7327 16.5488Q20.2661 16.0181 20.2661 14.8857L20.2661 4.93958Q20.2661 3.43918 21.761 3.43918L22.9039 3.43918Q23.0476 3.43918 23.159 3.32787Q23.2704 3.21655 23.2704 3.07709Q23.2704 2.94037 23.159 2.82898Q23.0476 2.71759 22.9039 2.71759L21.7352 2.71759Q20.6042 2.71759 20.0709 3.24829Q19.5375 3.77899 19.5375 4.90433L19.5375 14.8505Q19.5375 16.3509 18.0496 16.3509L0.376129 16.3509Q0.236664 16.3509 0.118332 16.4454Q0 16.5399 0 16.7102Q0 16.8877 0.118332 16.9836Q0.236664 17.0795 0.376129 17.0795ZM3.86841 22.1017Q4.25125 22.1017 4.57703 21.9054Q4.9028 21.7091 5.09911 21.3834Q5.29541 21.0576 5.29541 20.6747Q5.29541 20.2892 5.09911 19.962Q4.9028 19.6349 4.57703 19.4386Q4.25125 19.2422 3.86841 19.2422Q3.48282 19.2422 3.16055 19.4386Q2.83829 19.6349 2.64198 19.962Q2.44568 20.2892 2.44568 20.6747Q2.44568 21.0576 2.64198 21.3834Q2.83829 21.7091 3.16055 21.9054Q3.48282 22.1017 3.86841 22.1017ZM14.3372 22.1017Q14.72 22.1017 15.0471 21.9054Q15.3743 21.7091 15.5692 21.3834Q15.7642 21.0576 15.7642 20.6747Q15.7642 20.2892 15.5692 19.962Q15.3743 19.6349 15.0471 19.4386Q14.72 19.2422 14.3372 19.2422Q13.9543 19.2422 13.6307 19.4386Q13.307 19.6349 13.1121 19.962Q12.9172 20.2892 12.9172 20.6747Q12.9172 21.0576 13.1121 21.3834Q13.307 21.7091 13.6307 21.9054Q13.9543 22.1017 14.3372 22.1017ZM0.0167847 12.6212Q0.0167847 14.4888 1.91986 14.4888L15.7492 14.4888Q17.655 14.4888 17.655 12.6212L17.655 4.71954Q17.655 2.85202 15.7492 2.85202L1.91986 2.85202Q0.0167847 2.85202 0.0167847 4.71954ZM3.13522 14.4888L3.13522 2.85202L3.78632 2.85202L3.78632 14.4888ZM13.8828 14.4888L13.8828 2.85202L14.534 2.85202L14.534 14.4888ZM4.81949 3.02002L5.50049 3.02002L5.50049 1.75903Q5.50049 0.668793 6.69724 0.668793L10.9578 0.668793Q12.1645 0.668793 12.1645 1.75903L12.1645 3.01453L12.8523 3.01453L12.8523 1.77658Q12.8523 0 10.9355 0L6.72653 0Q5.79178 0 5.30563 0.451813Q4.81949 0.903625 4.81949 1.77658Z" fill="#ffffff"/>
 </g>
</svg>
