<?xml version="1.0" encoding="UTF-8"?>
<!--Generator: Apple Native CoreSVG 175-->
<!DOCTYPE svg
PUBLIC "-//W3C//DTD SVG 1.1//EN"
       "http://www.w3.org/Graphics/SVG/1.1/DTD/svg11.dtd">
<svg version="1.1" xmlns="http://www.w3.org/2000/svg" xmlns:xlink="http://www.w3.org/1999/xlink" width="14.045" height="18.8144">
 <g>
  <rect height="18.8144" opacity="0" width="14.045" x="0" y="0"/>
  <path d="M7.02118 18.7976Q7.2879 18.7976 7.45941 18.6191Q7.63092 18.4406 7.85828 18.13L13.7798 10.1077Q13.9188 9.91867 13.9819 9.75075Q14.045 9.58282 14.045 9.40231Q14.045 9.2218 13.9819 9.05251Q13.9188 8.88321 13.7798 8.6969L7.85828 0.664825Q7.63092 0.357056 7.45941 0.178528Q7.2879 0 7.02118 0Q6.7543 0 6.58417 0.178528Q6.41403 0.357056 6.18668 0.664825L0.265198 8.6969Q0.123444 8.88321 0.0617218 9.05251Q0 9.2218 0 9.40231Q0 9.58282 0.0617218 9.75075Q0.123444 9.91867 0.265198 10.1077L6.18668 18.13Q6.41403 18.4406 6.58417 18.6191Q6.7543 18.7976 7.02118 18.7976ZM7.02118 17.9042Q6.9426 17.9042 6.89362 17.8482Q6.84464 17.7922 6.79688 17.7277L0.885162 9.68002Q0.787506 9.55307 0.787506 9.40231Q0.787506 9.25156 0.885162 9.11758L6.79688 1.07422Q6.84464 1.00983 6.89362 0.955124Q6.9426 0.900421 7.02118 0.900421Q7.10236 0.900421 7.15004 0.955124Q7.19772 1.00983 7.25235 1.07422L13.1598 9.11758Q13.2645 9.25156 13.2645 9.40231Q13.2645 9.55307 13.1598 9.68002L7.25235 17.7277Q7.19772 17.7922 7.15004 17.8482Q7.10236 17.9042 7.02118 17.9042Z" fill="#ff453a"/>
 </g>
</svg>
