<?xml version="1.0" encoding="UTF-8"?>
<!--Generator: Apple Native CoreSVG 175-->
<!DOCTYPE svg
PUBLIC "-//W3C//DTD SVG 1.1//EN"
       "http://www.w3.org/Graphics/SVG/1.1/DTD/svg11.dtd">
<svg version="1.1" xmlns="http://www.w3.org/2000/svg" xmlns:xlink="http://www.w3.org/1999/xlink" width="17.6559" height="17.8348">
 <g>
  <rect height="17.8348" opacity="0" width="17.6559" x="0" y="0"/>
  <path d="M0 10.4082Q0 11.5843 0.500412 12.4797Q1.00082 13.3751 1.89537 13.8776Q2.78992 14.38 3.95905 14.38Q5.02701 14.38 5.89729 13.9568Q6.76758 13.5336 7.2113 12.7376L7.30896 12.7376Q7.23862 13.261 7.00348 13.7251Q6.76834 14.1891 6.43631 14.6051Q6.10428 15.0211 5.73929 15.3899Q5.3743 15.7587 5.03983 16.0817Q4.8114 16.3058 4.75494 16.5559Q4.69849 16.8059 4.78691 17.0322Q4.87534 17.2586 5.09003 17.4001Q5.30472 17.5415 5.62546 17.5415L12.0305 17.5415Q12.3442 17.5415 12.561 17.4001Q12.7777 17.2586 12.8676 17.0322Q12.9575 16.8059 12.8975 16.5559Q12.8375 16.3058 12.616 16.0817Q12.2789 15.7587 11.9152 15.3899Q11.5515 15.0211 11.2195 14.6051Q10.8875 14.1891 10.6523 13.7251Q10.4172 13.261 10.3398 12.7376L10.4445 12.7376Q10.8884 13.5336 11.7587 13.9568Q12.6289 14.38 13.6942 14.38Q14.866 14.38 15.7571 13.8776Q16.6481 13.3751 17.152 12.4797Q17.6559 11.5843 17.6559 10.4082Q17.6559 9.2926 17.121 8.3744Q16.586 7.45621 15.6828 6.9133Q14.7797 6.37039 13.6809 6.37039Q13.0704 6.37039 12.4287 6.57249Q11.7871 6.7746 11.257 7.21832Q12.2215 6.39877 12.5266 5.541Q12.8317 4.68323 12.8317 4.00513Q12.8317 2.89642 12.2899 1.98647Q11.748 1.07651 10.8402 0.538254Q9.9324 0 8.8266 0Q7.72339 0 6.81206 0.538254Q5.90073 1.07651 5.36247 1.98647Q4.82422 2.89642 4.82422 4.00513Q4.82422 4.68323 5.12581 5.541Q5.4274 6.39877 6.39175 7.21832Q5.86884 6.7746 5.22369 6.57249Q4.57855 6.37039 3.97507 6.37039Q2.86911 6.37039 1.96953 6.9133Q1.06995 7.45621 0.534973 8.3744Q0 9.2926 0 10.4082Z" fill="rgba(255,255,255,0.85)"/>
 </g>
</svg>
