<?xml version="1.0" encoding="UTF-8"?>
<!--Generator: Apple Native CoreSVG 175-->
<!DOCTYPE svg
PUBLIC "-//W3C//DTD SVG 1.1//EN"
       "http://www.w3.org/Graphics/SVG/1.1/DTD/svg11.dtd">
<svg version="1.1" xmlns="http://www.w3.org/2000/svg" xmlns:xlink="http://www.w3.org/1999/xlink" width="18.5547" height="17.2754">
 <g>
  <rect height="17.2754" opacity="0" width="18.5547" x="0" y="0"/>
  <path d="M9.27734 17.2754Q9.38477 17.2754 9.50684 17.2266Q9.62891 17.1777 9.72656 17.1094Q12.3242 15.4004 14.3115 13.5547Q16.2988 11.709 17.4268 9.77539Q18.5547 7.8418 18.5547 5.86914Q18.5547 4.66797 18.1689 3.66699Q17.7832 2.66602 17.085 1.92871Q16.3867 1.19141 15.4492 0.791016Q14.5117 0.390625 13.4082 0.390625Q12.1191 0.390625 10.9863 1.08887Q9.85352 1.78711 9.27734 2.96875Q8.69141 1.79688 7.56836 1.09375Q6.44531 0.390625 5.14648 0.390625Q4.04297 0.390625 3.10547 0.791016Q2.16797 1.19141 1.46973 1.92871Q0.771484 2.66602 0.385742 3.66699Q0 4.66797 0 5.86914Q0 7.8418 1.12793 9.77539Q2.25586 11.709 4.24805 13.5547Q6.24023 15.4004 8.81836 17.1094Q8.91602 17.1777 9.04297 17.2266Q9.16992 17.2754 9.27734 17.2754Z" fill="#ff3b30"/>
 </g>
</svg>
