<?xml version="1.0" encoding="UTF-8"?>
<!--Generator: Apple Native CoreSVG 175.5-->
<!DOCTYPE svg
PUBLIC "-//W3C//DTD SVG 1.1//EN"
       "http://www.w3.org/Graphics/SVG/1.1/DTD/svg11.dtd">
<svg version="1.1" xmlns="http://www.w3.org/2000/svg" xmlns:xlink="http://www.w3.org/1999/xlink" width="15.2051" height="20.0098">
 <g>
  <rect height="20.0098" opacity="0" width="15.2051" x="0" y="0"/>
  <path d="M7.59766 20Q7.99805 20 8.27148 19.7266Q8.54492 19.4531 8.95508 18.8965L14.7852 11.1133Q14.9805 10.8398 15.0928 10.5664Q15.2051 10.293 15.2051 10Q15.2051 9.70703 15.0928 9.42871Q14.9805 9.15039 14.7852 8.88672L8.95508 1.09375Q8.54492 0.546875 8.27148 0.273438Q7.99805 0 7.59766 0Q7.19727 0 6.92871 0.273438Q6.66016 0.546875 6.25 1.09375L0.419922 8.88672Q0.214844 9.15039 0.107422 9.42871Q0 9.70703 0 10Q0 10.293 0.107422 10.5664Q0.214844 10.8398 0.419922 11.1133L6.25 18.8965Q6.66016 19.4531 6.92871 19.7266Q7.19727 20 7.59766 20Z" fill="#ff453a"/>
 </g>
</svg>
