<?xml version="1.0" encoding="UTF-8"?>
<!--Generator: Apple Native CoreSVG 175-->
<!DOCTYPE svg
PUBLIC "-//W3C//DTD SVG 1.1//EN"
       "http://www.w3.org/Graphics/SVG/1.1/DTD/svg11.dtd">
<svg version="1.1" xmlns="http://www.w3.org/2000/svg" xmlns:xlink="http://www.w3.org/1999/xlink" width="19.1602" height="19.1504">
 <g>
  <rect height="19.1504" opacity="0" width="19.1602" x="0" y="0"/>
  <path d="M9.57031 19.1406Q11.5527 19.1406 13.2861 18.3984Q15.0195 17.6562 16.3379 16.333Q17.6562 15.0098 18.4082 13.2764Q19.1602 11.543 19.1602 9.57031Q19.1602 7.59766 18.4082 5.86426Q17.6562 4.13086 16.3379 2.80762Q15.0195 1.48438 13.2861 0.742188Q11.5527 0 9.57031 0Q7.59766 0 5.86426 0.742188Q4.13086 1.48438 2.81738 2.80762Q1.50391 4.13086 0.751953 5.86426Q0 7.59766 0 9.57031Q0 11.543 0.74707 13.2764Q1.49414 15.0098 2.8125 16.333Q4.13086 17.6562 5.86914 18.3984Q7.60742 19.1406 9.57031 19.1406ZM9.57031 18.3984Q7.74414 18.3984 6.14746 17.71Q4.55078 17.0215 3.33496 15.8105Q2.11914 14.5996 1.43555 12.998Q0.751953 11.3965 0.751953 9.57031Q0.751953 7.74414 1.43555 6.14258Q2.11914 4.54102 3.33496 3.3252Q4.55078 2.10938 6.14746 1.4209Q7.74414 0.732422 9.57031 0.732422Q11.4062 0.732422 13.0029 1.4209Q14.5996 2.10938 15.8154 3.3252Q17.0312 4.54102 17.7197 6.14258Q18.4082 7.74414 18.4082 9.57031Q18.4082 11.3965 17.7246 12.998Q17.041 14.5996 15.8252 15.8105Q14.6094 17.0215 13.0078 17.71Q11.4062 18.3984 9.57031 18.3984ZM9.57031 12.3535Q10.332 12.3535 10.9668 11.9727Q11.6016 11.5918 11.9873 10.957Q12.373 10.3223 12.373 9.55078Q12.373 8.7793 11.9873 8.14453Q11.6016 7.50977 10.9668 7.12402Q10.332 6.73828 9.57031 6.73828Q8.79883 6.73828 8.15918 7.12402Q7.51953 7.50977 7.13379 8.14453Q6.74805 8.7793 6.74805 9.55078Q6.74805 10.3223 7.13379 10.957Q7.51953 11.5918 8.15918 11.9727Q8.79883 12.3535 9.57031 12.3535ZM9.58008 3.28125Q9.45312 3.28125 9.35547 3.37891Q9.25781 3.47656 9.25781 3.60352L9.25781 4.95117Q9.25781 5.07812 9.35547 5.1709Q9.45312 5.26367 9.58008 5.26367Q9.69727 5.26367 9.7998 5.1709Q9.90234 5.07812 9.90234 4.95117L9.90234 3.60352Q9.90234 3.47656 9.7998 3.37891Q9.69727 3.28125 9.58008 3.28125ZM14.0039 5.12695Q13.9062 5.03906 13.7744 5.03418Q13.6426 5.0293 13.5449 5.12695L12.5977 6.08398Q12.5195 6.17188 12.5098 6.30371Q12.5 6.43555 12.5977 6.52344Q12.6953 6.62109 12.8271 6.61621Q12.959 6.61133 13.0469 6.52344L14.0039 5.58594Q14.0918 5.48828 14.0918 5.35156Q14.0918 5.21484 14.0039 5.12695ZM15.8398 9.55078Q15.8398 9.42383 15.7422 9.32617Q15.6445 9.22852 15.5273 9.22852L14.1699 9.22852Q14.043 9.22852 13.9502 9.32617Q13.8574 9.42383 13.8574 9.55078Q13.8574 9.66797 13.9502 9.77051Q14.043 9.87305 14.1699 9.87305L15.5273 9.87305Q15.6445 9.87305 15.7422 9.77539Q15.8398 9.67773 15.8398 9.55078ZM14.0039 13.9746Q14.0918 13.877 14.0918 13.7451Q14.0918 13.6133 14.0039 13.5156L13.0469 12.5781Q12.959 12.4805 12.8271 12.4805Q12.6953 12.4805 12.5977 12.5781Q12.5098 12.6758 12.5146 12.8027Q12.5195 12.9297 12.5977 13.0176L13.5449 13.9746Q13.6426 14.0723 13.7744 14.0674Q13.9062 14.0625 14.0039 13.9746ZM9.58008 15.8203Q9.69727 15.8203 9.7998 15.7227Q9.90234 15.625 9.90234 15.4883L9.90234 14.1406Q9.90234 14.0234 9.7998 13.9307Q9.69727 13.8379 9.58008 13.8379Q9.45312 13.8379 9.35547 13.9307Q9.25781 14.0234 9.25781 14.1406L9.25781 15.4883Q9.25781 15.625 9.35547 15.7227Q9.45312 15.8203 9.58008 15.8203ZM5.13672 13.9648Q5.23438 14.0625 5.37109 14.0674Q5.50781 14.0723 5.5957 13.9746L6.55273 13.0273Q6.64062 12.9395 6.64062 12.8076Q6.64062 12.6758 6.55273 12.5781Q6.45508 12.4805 6.32324 12.4805Q6.19141 12.4805 6.10352 12.5781L5.13672 13.5156Q5.04883 13.6133 5.05371 13.7451Q5.05859 13.877 5.13672 13.9648ZM3.31055 9.55078Q3.31055 9.67773 3.4082 9.77539Q3.50586 9.87305 3.63281 9.87305L4.98047 9.87305Q5.09766 9.87305 5.19531 9.77051Q5.29297 9.66797 5.29297 9.55078Q5.29297 9.42383 5.19531 9.32617Q5.09766 9.22852 4.98047 9.22852L3.63281 9.22852Q3.50586 9.22852 3.4082 9.32617Q3.31055 9.42383 3.31055 9.55078ZM5.15625 5.12695Q5.06836 5.21484 5.06348 5.35156Q5.05859 5.48828 5.15625 5.58594L6.10352 6.52344Q6.19141 6.62109 6.32324 6.61621Q6.45508 6.61133 6.55273 6.52344Q6.64062 6.43555 6.64062 6.30859Q6.64062 6.18164 6.55273 6.08398L5.60547 5.12695Q5.51758 5.0293 5.38086 5.03418Q5.24414 5.03906 5.15625 5.12695Z" fill="#007aff"/>
 </g>
</svg>
