<?xml version="1.0" encoding="UTF-8"?>
<!--Generator: Apple Native CoreSVG 175.5-->
<!DOCTYPE svg
PUBLIC "-//W3C//DTD SVG 1.1//EN"
       "http://www.w3.org/Graphics/SVG/1.1/DTD/svg11.dtd">
<svg version="1.1" xmlns="http://www.w3.org/2000/svg" xmlns:xlink="http://www.w3.org/1999/xlink" width="21.914" height="22.5488">
 <g>
  <rect height="22.5488" opacity="0" width="21.914" x="0" y="0"/>
  <path d="M2.77344 22.5391L6.46484 22.5391Q7.79297 22.5391 8.47168 21.875Q9.15039 21.2109 9.15039 19.9023L9.15039 2.62695Q9.15039 1.32812 8.47168 0.664062Q7.79297 0 6.46484 0L2.77344 0Q1.40625 0 0.703125 0.664062Q0 1.32812 0 2.62695L0 19.9023Q0 21.2109 0.703125 21.875Q1.40625 22.5391 2.77344 22.5391ZM2.79297 20.9668Q2.26562 20.9668 1.91895 20.6445Q1.57227 20.3223 1.57227 19.8242L1.57227 2.70508Q1.57227 2.2168 1.91895 1.89453Q2.26562 1.57227 2.79297 1.57227L6.44531 1.57227Q6.93359 1.57227 7.25586 1.89453Q7.57812 2.2168 7.57812 2.70508L7.57812 19.8242Q7.57812 20.3223 7.25586 20.6445Q6.93359 20.9668 6.44531 20.9668ZM0.810547 8.56445L8.33984 8.56445L8.33984 6.99219L0.810547 6.99219ZM0.810547 15.5469L8.33984 15.5469L8.33984 13.9746L0.810547 13.9746ZM8.27148 4.07227L8.7207 6.42578L10.5664 3.23242Q10.8105 2.8125 11.2744 2.70508Q11.7383 2.59766 12.1973 2.86133L15.3613 4.6875Q15.7812 4.93164 15.8936 5.37109Q16.0059 5.81055 15.7617 6.24023L7.42188 20.6836L8.78906 21.4648L17.1582 6.95312Q17.8125 5.83008 17.5586 4.91699Q17.3047 4.00391 16.1621 3.34961L12.959 1.49414Q11.7773 0.810547 10.8398 1.03027Q9.90234 1.25 9.24805 2.38281ZM8.80859 8.97461L13.5059 11.6895L14.2871 10.332L8.80859 7.16797ZM8.56445 16.8945L10.0098 17.7441L10.8008 16.377L8.56445 15.0879ZM16.4258 6.5918L15.7129 8.73047L16.6309 8.20312Q17.0508 7.95898 17.5098 8.0957Q17.9688 8.23242 18.2324 8.69141L20.0586 11.8457Q20.293 12.2754 20.1758 12.7197Q20.0586 13.1641 19.6387 13.3984L10.0879 18.9062L8.61328 21.5723L20.4883 14.7266Q21.6113 14.0723 21.8506 13.1494Q22.0898 12.2266 21.4258 11.084L19.5801 7.89062Q19.0137 6.9043 18.2666 6.54297Q17.5195 6.18164 16.6504 6.48438ZM12.959 13.5352L14.9512 16.9824L16.3086 16.2012L13.8672 11.9629Z" fill="#007aff"/>
 </g>
</svg>
