<?xml version="1.0" encoding="UTF-8"?>
<!--Generator: Apple Native CoreSVG 175-->
<!DOCTYPE svg
PUBLIC "-//W3C//DTD SVG 1.1//EN"
       "http://www.w3.org/Graphics/SVG/1.1/DTD/svg11.dtd">
<svg version="1.1" xmlns="http://www.w3.org/2000/svg" xmlns:xlink="http://www.w3.org/1999/xlink" width="17.2852" height="17.3145">
 <g>
  <rect height="17.3145" opacity="0" width="17.2852" x="0" y="0"/>
  <path d="M2.62695 17.3145L14.6484 17.3145Q15.957 17.3145 16.6211 16.6455Q17.2852 15.9766 17.2852 14.6875L17.2852 2.65625Q17.2852 1.37695 16.6211 0.703125Q15.957 0.0292969 14.6484 0.0292969L2.62695 0.0292969Q1.33789 0.0292969 0.668945 0.693359Q0 1.35742 0 2.65625L0 14.6875Q0 15.9863 0.668945 16.6504Q1.33789 17.3145 2.62695 17.3145Z" fill="#ffffff"/>
  <path d="M8.59375 13.0859Q8.41797 13.0859 8.31543 12.9736Q8.21289 12.8613 8.21289 12.6855L8.21289 4.96094L5.54688 4.96094Q5.40039 4.96094 5.30273 4.86816Q5.20508 4.77539 5.20508 4.62891Q5.20508 4.47266 5.30273 4.37988Q5.40039 4.28711 5.54688 4.28711L11.7285 4.28711Q11.875 4.28711 11.9678 4.37988Q12.0605 4.47266 12.0605 4.62891Q12.0605 4.77539 11.9678 4.86816Q11.875 4.96094 11.7285 4.96094L8.96484 4.96094L8.96484 12.6855Q8.96484 12.8711 8.8623 12.9785Q8.75977 13.0859 8.59375 13.0859Z" fill="#ffffff"/>
 </g>
</svg>
