<?xml version="1.0" encoding="UTF-8"?>
<!--Generator: Apple Native CoreSVG 175-->
<!DOCTYPE svg
PUBLIC "-//W3C//DTD SVG 1.1//EN"
       "http://www.w3.org/Graphics/SVG/1.1/DTD/svg11.dtd">
<svg version="1.1" xmlns="http://www.w3.org/2000/svg" xmlns:xlink="http://www.w3.org/1999/xlink" width="19.1602" height="19.1504">
 <g>
  <rect height="19.1504" opacity="0" width="19.1602" x="0" y="0"/>
  <path d="M9.57031 19.1406Q11.5527 19.1406 13.2861 18.3984Q15.0195 17.6562 16.3379 16.333Q17.6562 15.0098 18.4082 13.2764Q19.1602 11.543 19.1602 9.57031Q19.1602 7.59766 18.4082 5.86426Q17.6562 4.13086 16.3379 2.80762Q15.0195 1.48438 13.2861 0.742188Q11.5527 0 9.57031 0Q7.59766 0 5.86426 0.742188Q4.13086 1.48438 2.81738 2.80762Q1.50391 4.13086 0.751953 5.86426Q0 7.59766 0 9.57031Q0 11.543 0.74707 13.2764Q1.49414 15.0098 2.8125 16.333Q4.13086 17.6562 5.86914 18.3984Q7.60742 19.1406 9.57031 19.1406ZM9.57031 18.3984Q7.74414 18.3984 6.14746 17.71Q4.55078 17.0215 3.33496 15.8105Q2.11914 14.5996 1.43555 12.998Q0.751953 11.3965 0.751953 9.57031Q0.751953 7.74414 1.43555 6.14258Q2.11914 4.54102 3.33496 3.3252Q4.55078 2.10938 6.14746 1.4209Q7.74414 0.732422 9.57031 0.732422Q11.4062 0.732422 13.0029 1.4209Q14.5996 2.10938 15.8154 3.3252Q17.0312 4.54102 17.7197 6.14258Q18.4082 7.74414 18.4082 9.57031Q18.4082 11.3965 17.7246 12.998Q17.041 14.5996 15.8252 15.8105Q14.6094 17.0215 13.0078 17.71Q11.4062 18.3984 9.57031 18.3984ZM7.99805 14.7168Q8.28125 15 8.58398 15.0098Q8.88672 15.0195 9.19922 14.7168L14.2383 9.70703Q14.4727 9.47266 14.6094 9.25781Q14.7461 9.04297 14.7461 8.67188L14.7461 6.74805Q14.7461 6.45508 14.6631 6.27441Q14.5801 6.09375 14.3848 5.89844L13.4668 5.00977Q13.2715 4.82422 13.0908 4.72656Q12.9102 4.62891 12.6074 4.62891L10.6641 4.62891Q10.3125 4.62891 10.0977 4.76074Q9.88281 4.89258 9.63867 5.12695L4.64844 10.1562Q4.3457 10.459 4.3457 10.7568Q4.3457 11.0547 4.62891 11.3477ZM11.6309 7.72461Q11.4551 7.55859 11.4551 7.31934Q11.4551 7.08008 11.6309 6.89453Q11.7871 6.72852 12.0361 6.72852Q12.2852 6.72852 12.4512 6.89453Q12.627 7.05078 12.6221 7.29492Q12.6172 7.53906 12.4414 7.72461Q12.2852 7.89062 12.041 7.88574Q11.7969 7.88086 11.6309 7.72461Z" fill="#007aff"/>
 </g>
</svg>
