<?xml version="1.0" encoding="UTF-8"?>
<!--Generator: Apple Native CoreSVG 175.5-->
<!DOCTYPE svg
PUBLIC "-//W3C//DTD SVG 1.1//EN"
       "http://www.w3.org/Graphics/SVG/1.1/DTD/svg11.dtd">
<svg version="1.1" xmlns="http://www.w3.org/2000/svg" xmlns:xlink="http://www.w3.org/1999/xlink" width="24.6055" height="22.7441">
 <g>
  <rect height="22.7441" opacity="0" width="24.6055" x="0" y="0"/>
  <path d="M2.97852 21.0547L13.6133 21.0547Q13.6035 20.9863 13.5986 20.918Q13.5938 20.8496 13.584 20.7812L12.5684 10.1465Q12.5 9.49219 12.7588 8.95508Q13.0176 8.41797 13.5205 8.0957Q14.0234 7.77344 14.6777 7.77344L17.3242 7.77344Q17.3242 7.32422 17.2363 7.05078Q17.1484 6.77734 16.9238 6.47461L15.0586 4.00391L15.0586 2.14844Q15.0586 1.11328 14.4678 0.556641Q13.877 0 12.7734 0L4.55078 0Q3.44727 0 2.85645 0.556641Q2.26562 1.11328 2.26562 2.14844L2.26562 4.00391L0.410156 6.47461Q0.166016 6.79688 0.0830078 7.08496Q0 7.37305 0 7.88086L0 18.1152Q0 19.5801 0.74707 20.3174Q1.49414 21.0547 2.97852 21.0547ZM6.01562 3.81836Q5.76172 3.81836 5.57617 3.63281Q5.39062 3.44727 5.39062 3.18359Q5.39062 2.91992 5.57617 2.72949Q5.76172 2.53906 6.01562 2.53906L11.2793 2.53906Q11.5332 2.53906 11.7188 2.72949Q11.9043 2.91992 11.9043 3.18359Q11.9043 3.44727 11.7188 3.63281Q11.5332 3.81836 11.2793 3.81836Z" fill="#007aff"/>
  <path d="M16.9824 22.7148L21.5039 22.7148Q22.4707 22.7148 22.9688 22.2119Q23.4668 21.709 23.5742 20.6543L24.5996 10.0195Q24.6387 9.60938 24.4189 9.36035Q24.1992 9.11133 23.7988 9.11133L14.6777 9.11133Q14.2871 9.11133 14.0674 9.36523Q13.8477 9.61914 13.8867 10.0195L14.9121 20.6543Q15.0098 21.709 15.5078 22.2119Q16.0059 22.7148 16.9824 22.7148ZM18.6035 9.60938L19.9512 9.60938L20.0098 8.69141Q20.0391 8.32031 20.1611 8.08594Q20.2832 7.85156 20.5566 7.65625L23.8184 5.3125Q24.1016 5.11719 24.1211 4.84863Q24.1406 4.58008 23.9795 4.36523Q23.8184 4.15039 23.5498 4.08691Q23.2812 4.02344 22.9883 4.23828L19.8438 6.51367Q19.2773 6.92383 19.0137 7.40723Q18.75 7.89062 18.6816 8.61328Z" fill="#007aff"/>
 </g>
</svg>
