<?xml version="1.0" encoding="UTF-8"?>
<!--Generator: Apple Native CoreSVG 175.5-->
<!DOCTYPE svg
PUBLIC "-//W3C//DTD SVG 1.1//EN"
       "http://www.w3.org/Graphics/SVG/1.1/DTD/svg11.dtd">
<svg version="1.1" xmlns="http://www.w3.org/2000/svg" xmlns:xlink="http://www.w3.org/1999/xlink" width="29.3066" height="20.166">
 <g>
  <rect height="20.166" opacity="0" width="29.3066" x="0" y="0"/>
  <path d="M5.95703 20.166L23.3398 20.166Q23.9551 20.166 24.2725 19.8486Q24.5898 19.5312 24.6289 19.0674Q24.668 18.6035 24.4336 18.1348L19.541 8.32031L27.666 19.6777Q27.8516 19.9414 28.0664 20.0391Q28.2812 20.1367 28.4961 20.1367Q28.8086 20.1367 29.0576 19.9414Q29.3066 19.7461 29.3066 19.3164L29.3066 16.3965Q29.3066 16.123 29.1113 15.9277Q28.916 15.7324 28.6426 15.7324Q28.3789 15.7324 28.1836 15.9277Q27.9883 16.123 27.9883 16.3965L27.9883 17.8906L15.8301 0.908203Q15.5176 0.458984 15.083 0.3125Q14.6484 0.166016 14.2188 0.317383Q13.7891 0.46875 13.4668 0.908203L1.31836 17.8906L1.31836 16.3965Q1.31836 16.123 1.12305 15.9277Q0.927734 15.7324 0.664062 15.7324Q0.390625 15.7324 0.195312 15.9277Q0 16.123 0 16.3965L0 19.3164Q0 19.7461 0.249023 19.9414Q0.498047 20.1367 0.810547 20.1367Q1.02539 20.1367 1.24023 20.0391Q1.45508 19.9414 1.64062 19.6777L9.76562 8.32031L4.87305 18.1348Q4.63867 18.6035 4.67773 19.0674Q4.7168 19.5312 5.03418 19.8486Q5.35156 20.166 5.95703 20.166ZM6.63086 18.6719Q6.52344 18.6719 6.49414 18.5986Q6.46484 18.5254 6.51367 18.4375L14.5215 2.16797Q14.5703 2.07031 14.6533 2.0752Q14.7363 2.08008 14.7852 2.16797L22.793 18.4375Q22.832 18.5254 22.8027 18.5986Q22.7734 18.6719 22.6758 18.6719ZM9.79492 18.8867L13.0664 18.8867L14.6484 11.9629L16.2305 18.8867L19.502 18.8867L15.2441 9.91211Q15.1465 9.70703 14.9854 9.60449Q14.8242 9.50195 14.6484 9.50195Q14.4727 9.50195 14.3115 9.60449Q14.1504 9.70703 14.043 9.91211Z" fill="#007aff"/>
 </g>
</svg>
