<?xml version="1.0" encoding="UTF-8"?>
<!--Generator: Apple Native CoreSVG 175-->
<!DOCTYPE svg
PUBLIC "-//W3C//DTD SVG 1.1//EN"
       "http://www.w3.org/Graphics/SVG/1.1/DTD/svg11.dtd">
<svg version="1.1" xmlns="http://www.w3.org/2000/svg" xmlns:xlink="http://www.w3.org/1999/xlink" width="22.6617" height="17.3035">
 <g>
  <rect height="17.3035" opacity="0" width="22.6617" x="0" y="0"/>
  <path d="M3.85468 7.12692Q3.69812 7.21558 3.67172 7.35619Q3.64532 7.4968 3.7188 7.61597Q3.79227 7.73514 3.92662 7.77672Q4.06097 7.8183 4.22577 7.72156L7.1579 5.87936Q7.31445 5.78796 7.36229 5.625Q7.41013 5.46204 7.35603 5.30266Q7.30194 5.14328 7.1579 5.04761L4.22577 3.21243Q4.06097 3.11554 3.92174 3.15369Q3.7825 3.19183 3.7104 3.30742Q3.63831 3.423 3.6647 3.56583Q3.6911 3.70865 3.85468 3.80707L6.60202 5.46204ZM7.69455 7.9718Q7.69455 8.11325 7.78732 8.2074Q7.8801 8.30154 8.02429 8.30154L11.738 8.30154Q11.882 8.30154 11.9748 8.2074Q12.0676 8.11325 12.0676 7.9718Q12.0676 7.82776 11.9748 7.73361Q11.882 7.63947 11.738 7.63947L8.02429 7.63947Q7.8801 7.63947 7.78732 7.73361Q7.69455 7.82776 7.69455 7.9718ZM2.63046 17.2894L20.0243 17.2894Q21.3281 17.2894 21.9949 16.617Q22.6617 15.9445 22.6617 14.6655L22.6617 2.6265Q22.6617 1.35468 21.9949 0.677338Q21.3281 0 20.0243 0L2.63046 0Q1.33636 0 0.668182 0.668945Q0 1.33789 0 2.6265L0 14.6655Q0 15.9586 0.668182 16.624Q1.33636 17.2894 2.63046 17.2894ZM2.65701 16.568Q1.7067 16.568 1.21765 16.0767Q0.728607 15.5855 0.728607 14.6269L0.728607 2.66525Q0.728607 1.7067 1.21765 1.21758Q1.7067 0.728455 2.65701 0.728455L20.0047 0.728455Q20.9242 0.728455 21.4287 1.21758Q21.9331 1.7067 21.9331 2.66525L21.9331 14.6269Q21.9331 15.5855 21.4287 16.0767Q20.9242 16.568 20.0047 16.568Z" fill="#007aff"/>
 </g>
</svg>
