<?xml version="1.0" encoding="UTF-8"?>
<!--Generator: Apple Native CoreSVG 175-->
<!DOCTYPE svg
PUBLIC "-//W3C//DTD SVG 1.1//EN"
       "http://www.w3.org/Graphics/SVG/1.1/DTD/svg11.dtd">
<svg version="1.1" xmlns="http://www.w3.org/2000/svg" xmlns:xlink="http://www.w3.org/1999/xlink" width="18.9062" height="16.1035">
 <g>
  <rect height="16.1035" opacity="0" width="18.9062" x="0" y="0"/>
  <path d="M11.6309 0.703125L18.5449 0.703125Q18.7012 0.703125 18.8037 0.605469Q18.9062 0.507812 18.9062 0.351562Q18.9062 0.205078 18.8037 0.102539Q18.7012 0 18.5449 0L11.6309 0Q11.4746 0 11.377 0.102539Q11.2793 0.205078 11.2793 0.351562Q11.2793 0.507812 11.377 0.605469Q11.4746 0.703125 11.6309 0.703125ZM11.6309 5.83984L18.5449 5.83984Q18.7012 5.83984 18.8037 5.7373Q18.9062 5.63477 18.9062 5.47852Q18.9062 5.33203 18.8037 5.23438Q18.7012 5.13672 18.5449 5.13672L11.6309 5.13672Q11.4746 5.13672 11.377 5.23438Q11.2793 5.33203 11.2793 5.47852Q11.2793 5.63477 11.377 5.7373Q11.4746 5.83984 11.6309 5.83984ZM0.351562 10.9668L18.5449 10.9668Q18.7012 10.9668 18.8037 10.8691Q18.9062 10.7715 18.9062 10.6152Q18.9062 10.459 18.8037 10.3613Q18.7012 10.2637 18.5449 10.2637L0.351562 10.2637Q0.195312 10.2637 0.0976562 10.3613Q0 10.459 0 10.6152Q0 10.7715 0.0976562 10.8691Q0.195312 10.9668 0.351562 10.9668ZM0.351562 16.0938L18.5449 16.0938Q18.7012 16.0938 18.8037 15.9961Q18.9062 15.8984 18.9062 15.752Q18.9062 15.5957 18.8037 15.4932Q18.7012 15.3906 18.5449 15.3906L0.351562 15.3906Q0.195312 15.3906 0.0976562 15.4932Q0 15.5957 0 15.752Q0 15.8984 0.0976562 15.9961Q0.195312 16.0938 0.351562 16.0938ZM0.00976562 7.08984Q0.00976562 7.35352 0.166016 7.52441Q0.322266 7.69531 0.595703 7.69531Q0.859375 7.69531 1.01562 7.52441Q1.17188 7.35352 1.17188 7.08984L1.17188 3.75Q1.17188 3.60352 1.31836 3.60352L4.96094 3.60352L4.96094 4.80469Q4.96094 5.08789 5.13184 5.25391Q5.30273 5.41992 5.55176 5.4248Q5.80078 5.42969 6.03516 5.25391L8.29102 3.52539Q8.57422 3.31055 8.57422 2.97363Q8.57422 2.63672 8.29102 2.42188L6.03516 0.693359Q5.80078 0.507812 5.55176 0.522461Q5.30273 0.537109 5.13184 0.703125Q4.96094 0.869141 4.96094 1.15234L4.96094 2.44141L0.986328 2.44141Q0.576172 2.44141 0.292969 2.70996Q0.00976562 2.97852 0.00976562 3.39844Z" fill="#007aff"/>
 </g>
</svg>
