<?xml version="1.0" encoding="UTF-8"?>
<!--Generator: Apple Native CoreSVG 175-->
<!DOCTYPE svg
PUBLIC "-//W3C//DTD SVG 1.1//EN"
       "http://www.w3.org/Graphics/SVG/1.1/DTD/svg11.dtd">
<svg version="1.1" xmlns="http://www.w3.org/2000/svg" xmlns:xlink="http://www.w3.org/1999/xlink" width="28.9532" height="19.9121">
 <g>
  <rect height="19.9121" opacity="0" width="28.9532" x="0" y="0"/>
  <path d="M0.872345 19.9028Q1.1058 19.9028 1.29921 19.7874Q1.49261 19.6719 1.61156 19.475Q1.7305 19.2781 1.7305 19.0472Q1.7305 18.6926 1.47522 18.4422Q1.21994 18.1918 0.872345 18.1918Q0.520325 18.1918 0.265045 18.4422Q0.00976562 18.6926 0.00976562 19.0472Q0.00976562 19.3993 0.265045 19.651Q0.520325 19.9028 0.872345 19.9028ZM5.41092 19.9028Q5.65155 19.9028 5.84496 19.7874Q6.03836 19.6719 6.15379 19.475Q6.26923 19.2781 6.26923 19.0472Q6.26923 18.6926 6.01746 18.4422Q5.76569 18.1918 5.41092 18.1918Q5.05905 18.1918 4.80728 18.4422Q4.55551 18.6926 4.55551 19.0472Q4.55551 19.3993 4.80728 19.651Q5.05905 19.9028 5.41092 19.9028ZM9.93988 19.9028Q10.1778 19.9028 10.3725 19.7874Q10.5672 19.6719 10.6847 19.475Q10.8023 19.2781 10.8023 19.0472Q10.8023 18.6926 10.5484 18.4422Q10.2945 18.1918 9.93988 18.1918Q9.59213 18.1918 9.33823 18.4422Q9.08432 18.6926 9.08432 19.0472Q9.08432 19.3993 9.33823 19.651Q9.59213 19.9028 9.93988 19.9028ZM14.4829 19.9028Q14.7208 19.9028 14.9155 19.7874Q15.1102 19.6719 15.2242 19.475Q15.3383 19.2781 15.3383 19.0472Q15.3383 18.6926 15.0879 18.4422Q14.8375 18.1918 14.4829 18.1918Q14.1281 18.1918 13.8777 18.4422Q13.6273 18.6926 13.6273 19.0472Q13.6273 19.3993 13.8777 19.651Q14.1281 19.9028 14.4829 19.9028ZM19.0259 19.9028Q19.2638 19.9028 19.4585 19.7874Q19.6532 19.6719 19.7672 19.475Q19.8813 19.2781 19.8813 19.0472Q19.8813 18.6926 19.6309 18.4422Q19.3805 18.1918 19.0259 18.1918Q18.6739 18.1918 18.4221 18.4422Q18.1703 18.6926 18.1703 19.0472Q18.1703 19.3993 18.4221 19.651Q18.6739 19.9028 19.0259 19.9028ZM23.5547 19.9028Q23.7926 19.9028 23.9874 19.7874Q24.1821 19.6719 24.2997 19.475Q24.4173 19.2781 24.4173 19.0472Q24.4173 18.6926 24.1634 18.4422Q23.9095 18.1918 23.5547 18.1918Q23.2001 18.1918 22.9497 18.4422Q22.6993 18.6926 22.6993 19.0472Q22.6993 19.3993 22.9497 19.651Q23.2001 19.9028 23.5547 19.9028ZM28.0977 19.9028Q28.3356 19.9028 28.5303 19.7874Q28.725 19.6719 28.8391 19.475Q28.9532 19.2781 28.9532 19.0472Q28.9532 18.6926 28.7029 18.4422Q28.4525 18.1918 28.0977 18.1918Q27.7431 18.1918 27.4927 18.4422Q27.2423 18.6926 27.2423 19.0472Q27.2423 19.3993 27.4927 19.651Q27.7431 19.9028 28.0977 19.9028Z" fill="#ff453a"/>
  <path d="M3.37814 14.379Q4.25659 14.379 5.03159 14.0793Q5.80658 13.7796 6.37535 13.2406Q6.94412 12.7016 7.19498 11.9922L7.21008 11.9922L7.21008 13.9999Q7.21008 14.1714 7.3082 14.2765Q7.40631 14.3816 7.56531 14.3816Q7.72964 14.3816 7.8299 14.2751Q7.93015 14.1687 7.93015 13.9961L7.93015 7.32727Q7.93015 6.26556 7.49107 5.4808Q7.052 4.69604 6.22955 4.27124Q5.4071 3.84644 4.26361 3.84644Q2.81647 3.84644 1.84616 4.4664Q0.875854 5.08636 0.505066 6.18271Q0.462189 6.33316 0.42038 6.49002Q0.378571 6.64688 0.378571 6.76086Q0.378571 6.90735 0.483017 6.99722Q0.587463 7.0871 0.731201 7.0871Q0.860138 7.0871 0.943146 7.01897Q1.02615 6.95084 1.06339 6.82999Q1.33987 5.73715 2.15042 5.11528Q2.96097 4.49341 4.24301 4.49341Q5.63599 4.49341 6.41487 5.28458Q7.19376 6.07574 7.19376 7.37961L7.19376 8.30811L3.62152 8.55423Q1.82495 8.67294 0.912476 9.43779Q0 10.2026 0 11.4801Q0 12.3445 0.428925 12.9971Q0.857849 13.6496 1.62285 14.0143Q2.38785 14.379 3.37814 14.379ZM3.48328 13.7386Q2.29568 13.7386 1.51794 13.0991Q0.740204 12.4597 0.740204 11.441Q0.740204 10.4965 1.48361 9.89006Q2.22702 9.2836 3.72818 9.16595L7.19376 8.90045L7.19376 10.453Q7.19376 11.3441 6.68869 12.0908Q6.18362 12.8375 5.34264 13.288Q4.50165 13.7386 3.48328 13.7386ZM10.5281 14.379Q10.6828 14.379 10.7858 14.2809Q10.8887 14.1827 10.8887 13.9989L10.8887 11.3789L10.9039 11.3789Q11.291 12.7629 12.3475 13.5815Q13.4039 14.4 14.7879 14.4Q16.0625 14.4 17.0361 13.7254Q18.0098 13.0508 18.5616 11.861Q19.1133 10.6711 19.1133 9.11057Q19.1133 7.55432 18.5616 6.36795Q18.0098 5.18158 17.0361 4.51401Q16.0625 3.84644 14.7864 3.84644Q13.3797 3.84644 12.3338 4.6685Q11.288 5.49057 10.9302 6.83945L10.8954 6.83945L10.8954 0.386658Q10.8954 0.211334 10.7925 0.105667Q10.6895 0 10.5251 0Q10.3578 0 10.2619 0.105667Q10.166 0.211334 10.166 0.386658L10.166 13.9989Q10.166 14.1785 10.2662 14.2787Q10.3664 14.379 10.5281 14.379ZM14.6797 13.7433Q13.5692 13.7433 12.7276 13.1587Q11.886 12.5742 11.4117 11.5343Q10.9375 10.4945 10.9375 9.13162Q10.9375 7.77145 11.4131 6.72462Q11.8887 5.6778 12.7338 5.08965Q13.5789 4.5015 14.6797 4.5015Q15.7817 4.5015 16.6122 5.07988Q17.4426 5.65826 17.8995 6.69456Q18.3563 7.73087 18.3563 9.11057Q18.3563 10.5 17.8946 11.5434Q17.4329 12.5867 16.6059 13.165Q15.779 13.7433 14.6797 13.7433ZM24.9173 14.4Q25.8601 14.4 26.667 14.0672Q27.4739 13.7344 28.0512 13.1301Q28.6285 12.5258 28.8837 11.7062Q28.9087 11.6286 28.9261 11.543Q28.9435 11.4574 28.9435 11.3712Q28.9435 11.2415 28.8593 11.1481Q28.775 11.0547 28.6243 11.0547Q28.4843 11.0547 28.4119 11.124Q28.3395 11.1934 28.286 11.3469Q27.9332 12.5031 27.0252 13.1232Q26.1172 13.7433 24.92 13.7433Q23.14 13.7433 22.121 12.4995Q21.102 11.2558 21.102 9.1246Q21.102 6.98471 22.1364 5.74181Q23.1708 4.4989 24.8778 4.4989Q26.0684 4.4989 26.9756 5.11765Q27.8828 5.73639 28.2384 6.89804Q28.2988 7.04605 28.3699 7.11678Q28.441 7.1875 28.5809 7.1875Q28.7247 7.1875 28.8123 7.099Q28.9 7.0105 28.9 6.87103Q28.9 6.79718 28.8827 6.71791Q28.8654 6.63864 28.8528 6.59027Q28.6157 5.77072 28.0362 5.15038Q27.4567 4.53003 26.6373 4.18823Q25.818 3.84644 24.8738 3.84644Q23.4821 3.84644 22.4684 4.49783Q21.4548 5.14923 20.9048 6.34392Q20.3548 7.5386 20.3548 9.14413Q20.3548 10.7497 20.9132 11.9311Q21.4716 13.1125 22.4971 13.7563Q23.5226 14.4 24.9173 14.4Z" fill="#000000"/>
 </g>
</svg>
