<?xml version="1.0" encoding="UTF-8"?>
<!--Generator: Apple Native CoreSVG 175-->
<!DOCTYPE svg
PUBLIC "-//W3C//DTD SVG 1.1//EN"
       "http://www.w3.org/Graphics/SVG/1.1/DTD/svg11.dtd">
<svg version="1.1" xmlns="http://www.w3.org/2000/svg" xmlns:xlink="http://www.w3.org/1999/xlink" width="22.2871" height="14.4012">
 <g>
  <rect height="14.4012" opacity="0" width="22.2871" x="0" y="0"/>
  <path d="M17.5008 14.2953Q18.9688 14.2953 20.0323 13.5237Q21.0957 12.7521 21.507 11.3809L21.5585 11.3809L21.5585 13.9558Q21.5585 14.1328 21.6553 14.2365Q21.752 14.3402 21.925 14.3402Q22.0938 14.3402 22.1905 14.2352Q22.2871 14.1301 22.2871 13.9531L22.2871 3.6055Q22.2871 3.42422 22.1905 3.31505Q22.0938 3.20587 21.925 3.20587Q21.752 3.20587 21.6553 3.31505Q21.5585 3.42422 21.5585 3.6055L21.5585 6.22696L21.507 6.22696Q21.2492 5.31845 20.6635 4.64111Q20.0777 3.96378 19.2599 3.59459Q18.4422 3.2254 17.5008 3.2254Q16.1375 3.2254 15.1112 3.91953Q14.0848 4.61365 13.5049 5.86174Q12.925 7.10983 12.925 8.74771Q12.925 10.4094 13.5049 11.6561Q14.0848 12.9028 15.1112 13.5991Q16.1375 14.2953 17.5008 14.2953ZM17.5961 13.643Q16.4238 13.643 15.5379 13.0303Q14.6519 12.4176 14.1586 11.3174Q13.6653 10.2173 13.6653 8.74771Q13.6653 7.28241 14.1586 6.18927Q14.6519 5.09613 15.5379 4.487Q16.4238 3.87787 17.5961 3.87787Q18.7753 3.87787 19.664 4.50729Q20.5527 5.13672 21.0523 6.25374Q21.552 7.37076 21.552 8.82355Q21.552 10.2762 21.0607 11.3574Q20.5695 12.4387 19.6809 13.0408Q18.7923 13.643 17.5961 13.643ZM0.370331 14.3817Q0.536041 14.3817 0.624313 14.3071Q0.712585 14.2325 0.778961 14.0543L2.53082 9.49615L9.0097 9.49615L10.7547 14.0543Q10.8211 14.2325 10.9129 14.3071Q11.0046 14.3817 11.1606 14.3817Q11.3332 14.3817 11.4361 14.2863Q11.539 14.191 11.539 14.0239Q11.539 13.9117 11.4879 13.7778L6.27502 0.364075Q6.20468 0.196075 6.08475 0.0980377Q5.96481 0 5.77026 0Q5.39642 0 5.26398 0.361328L0.0511169 13.7805Q0 13.9145 0 14.0266Q0 14.1937 0.100174 14.2877Q0.200348 14.3817 0.370331 14.3817ZM2.77039 8.81332L5.74799 1.06689L5.78979 1.06689L8.76755 8.81332Z" fill="#007aff"/>
 </g>
</svg>
