<?xml version="1.0" encoding="UTF-8"?>
<!--Generator: Apple Native CoreSVG 175.5-->
<!DOCTYPE svg
PUBLIC "-//W3C//DTD SVG 1.1//EN"
       "http://www.w3.org/Graphics/SVG/1.1/DTD/svg11.dtd">
<svg version="1.1" xmlns="http://www.w3.org/2000/svg" xmlns:xlink="http://www.w3.org/1999/xlink" width="22.2461" height="14.4434">
 <g>
  <rect height="14.4434" opacity="0" width="22.2461" x="0" y="0"/>
  <path d="M11.2109 14.4238Q11.6016 14.4238 11.8164 14.2578Q12.0312 14.0918 12.168 13.6816L13.4277 10.2344L19.1895 10.2344L20.4492 13.6816Q20.5859 14.0918 20.8008 14.2578Q21.0156 14.4238 21.3965 14.4238Q21.7871 14.4238 22.0166 14.209Q22.2461 13.9941 22.2461 13.623Q22.2461 13.3984 22.1387 13.0957L17.5586 0.898438Q17.3828 0.449219 17.0801 0.224609Q16.7773 0 16.3086 0Q15.4004 0 15.0781 0.888672L10.498 13.1055Q10.3906 13.4082 10.3906 13.6328Q10.3906 14.0039 10.6104 14.2139Q10.8301 14.4238 11.2109 14.4238ZM13.9062 8.75L16.2793 2.17773L16.3281 2.17773L18.7012 8.75ZM0.810547 14.3945Q1.11328 14.3945 1.31348 14.2334Q1.51367 14.0723 1.63086 13.7109L2.44141 11.3184L6.25977 11.3184L7.07031 13.7109Q7.1875 14.082 7.39258 14.2383Q7.59766 14.3945 7.90039 14.3945Q8.27148 14.3945 8.49609 14.1895Q8.7207 13.9844 8.7207 13.6523Q8.7207 13.5059 8.68652 13.3643Q8.65234 13.2227 8.59375 13.0664L5.55664 5Q5.39062 4.55078 5.08301 4.32129Q4.77539 4.0918 4.3457 4.0918Q3.92578 4.0918 3.62305 4.31152Q3.32031 4.53125 3.14453 5L0.107422 13.0664Q0.0488281 13.2031 0.0244141 13.3545Q0 13.5059 0 13.6523Q0 13.9941 0.219727 14.1943Q0.439453 14.3945 0.810547 14.3945ZM2.87109 10.0488L4.23828 5.97656L4.46289 5.97656L5.83008 10.0488Z" fill="#007aff"/>
 </g>
</svg>
