<?xml version="1.0" encoding="UTF-8"?>
<!--Generator: Apple Native CoreSVG 175-->
<!DOCTYPE svg
PUBLIC "-//W3C//DTD SVG 1.1//EN"
       "http://www.w3.org/Graphics/SVG/1.1/DTD/svg11.dtd">
<svg version="1.1" xmlns="http://www.w3.org/2000/svg" xmlns:xlink="http://www.w3.org/1999/xlink" width="18.4766" height="18.6426">
 <g>
  <rect height="18.6426" opacity="0" width="18.4766" x="0" y="0"/>
  <path d="M0 7.29492Q0 8.79883 0.571289 10.1221Q1.14258 11.4453 2.14355 12.4512Q3.14453 13.457 4.46777 14.0283Q5.79102 14.5996 7.30469 14.5996Q8.59375 14.5996 9.76562 14.165Q10.9375 13.7305 11.875 12.9688L17.3242 18.4375Q17.4121 18.5254 17.5342 18.584Q17.6562 18.6426 17.793 18.6426Q18.0078 18.6426 18.1592 18.5449Q18.3105 18.4473 18.3936 18.291Q18.4766 18.1348 18.4766 17.9492Q18.4766 17.8223 18.4277 17.7051Q18.3789 17.5879 18.2715 17.4902L12.8418 12.0312Q13.6621 11.084 14.1309 9.86816Q14.5996 8.65234 14.5996 7.29492Q14.5996 5.79102 14.0283 4.46777Q13.457 3.14453 12.4512 2.13867Q11.4453 1.13281 10.127 0.566406Q8.80859 0 7.30469 0Q5.79102 0 4.46777 0.566406Q3.14453 1.13281 2.14355 2.13867Q1.14258 3.14453 0.571289 4.46777Q0 5.79102 0 7.29492ZM0.751953 7.29492Q0.751953 5.94727 1.25977 4.76074Q1.76758 3.57422 2.6709 2.6709Q3.57422 1.76758 4.76074 1.25488Q5.94727 0.742188 7.30469 0.742188Q8.65234 0.742188 9.83887 1.25488Q11.0254 1.76758 11.9287 2.6709Q12.832 3.57422 13.3447 4.76074Q13.8574 5.94727 13.8574 7.29492Q13.8574 8.64258 13.3447 9.83398Q12.832 11.0254 11.9287 11.9238Q11.0254 12.8223 9.83887 13.335Q8.65234 13.8477 7.30469 13.8477Q5.94727 13.8477 4.76074 13.335Q3.57422 12.8223 2.6709 11.9238Q1.76758 11.0254 1.25977 9.83398Q0.751953 8.64258 0.751953 7.29492ZM4.11133 6.46484L10.6055 6.46484Q10.752 6.46484 10.8496 6.3623Q10.9473 6.25977 10.9473 6.12305Q10.9473 5.98633 10.8496 5.88379Q10.752 5.78125 10.6055 5.78125L4.11133 5.78125Q3.96484 5.78125 3.86719 5.88379Q3.76953 5.98633 3.76953 6.12305Q3.76953 6.25977 3.86719 6.3623Q3.96484 6.46484 4.11133 6.46484ZM4.11133 8.78906L8.7793 8.78906Q8.91602 8.78906 9.01367 8.68652Q9.11133 8.58398 9.11133 8.44727Q9.11133 8.30078 9.01367 8.19824Q8.91602 8.0957 8.7793 8.0957L4.11133 8.0957Q3.96484 8.0957 3.86719 8.19824Q3.76953 8.30078 3.76953 8.44727Q3.76953 8.58398 3.86719 8.68652Q3.96484 8.78906 4.11133 8.78906Z" fill="#007aff"/>
 </g>
</svg>
