<?xml version="1.0" encoding="UTF-8"?>
<!--Generator: Apple Native CoreSVG 175.5-->
<!DOCTYPE svg
PUBLIC "-//W3C//DTD SVG 1.1//EN"
       "http://www.w3.org/Graphics/SVG/1.1/DTD/svg11.dtd">
<svg version="1.1" xmlns="http://www.w3.org/2000/svg" xmlns:xlink="http://www.w3.org/1999/xlink" width="19.6777" height="16.8848">
 <g>
  <rect height="16.8848" opacity="0" width="19.6777" x="0" y="0"/>
  <path d="M0.732422 1.47461L18.9258 1.47461Q19.2383 1.47461 19.458 1.25977Q19.6777 1.04492 19.6777 0.732422Q19.6777 0.429688 19.458 0.214844Q19.2383 0 18.9258 0L0.732422 0Q0.429688 0 0.214844 0.214844Q0 0.429688 0 0.732422Q0 1.04492 0.214844 1.25977Q0.429688 1.47461 0.732422 1.47461ZM0.732422 6.5918L18.9258 6.5918Q19.2383 6.5918 19.458 6.37695Q19.6777 6.16211 19.6777 5.84961Q19.6777 5.53711 19.458 5.32715Q19.2383 5.11719 18.9258 5.11719L0.732422 5.11719Q0.429688 5.11719 0.214844 5.32715Q0 5.53711 0 5.84961Q0 6.16211 0.214844 6.37695Q0.429688 6.5918 0.732422 6.5918ZM0.732422 11.709L18.9258 11.709Q19.2383 11.709 19.458 11.4941Q19.6777 11.2793 19.6777 10.9668Q19.6777 10.6543 19.458 10.4443Q19.2383 10.2344 18.9258 10.2344L0.732422 10.2344Q0.429688 10.2344 0.214844 10.4443Q0 10.6543 0 10.9668Q0 11.2793 0.214844 11.4941Q0.429688 11.709 0.732422 11.709ZM0.732422 16.8164L18.9258 16.8164Q19.2383 16.8164 19.458 16.6064Q19.6777 16.3965 19.6777 16.084Q19.6777 15.7715 19.458 15.5566Q19.2383 15.3418 18.9258 15.3418L0.732422 15.3418Q0.429688 15.3418 0.214844 15.5566Q0 15.7715 0 16.084Q0 16.3965 0.214844 16.6064Q0.429688 16.8164 0.732422 16.8164Z" fill="#007aff"/>
 </g>
</svg>
