<?xml version="1.0" encoding="UTF-8"?>
<!--Generator: Apple Native CoreSVG 175.5-->
<!DOCTYPE svg
PUBLIC "-//W3C//DTD SVG 1.1//EN"
       "http://www.w3.org/Graphics/SVG/1.1/DTD/svg11.dtd">
<svg version="1.1" xmlns="http://www.w3.org/2000/svg" xmlns:xlink="http://www.w3.org/1999/xlink" width="22.3828" height="14.5605">
 <g>
  <rect height="14.5605" opacity="0" width="22.3828" x="0" y="0"/>
  <path d="M17.2363 14.5508Q17.9883 14.5508 18.6816 14.292Q19.375 14.0332 19.9121 13.5645Q20.4492 13.0957 20.752 12.4609L20.791 12.4609L20.791 13.75Q20.791 14.1211 21.0156 14.3408Q21.2402 14.5605 21.582 14.5605Q21.9336 14.5605 22.1582 14.3359Q22.3828 14.1113 22.3828 13.7109L22.3828 7.19727Q22.3828 6.13281 21.8896 5.34668Q21.3965 4.56055 20.4883 4.12598Q19.5801 3.69141 18.3398 3.69141Q16.9629 3.69141 15.8984 4.25293Q14.834 4.81445 14.4141 5.76172Q14.3262 5.9375 14.2773 6.11328Q14.2285 6.28906 14.2285 6.44531Q14.2285 6.76758 14.4385 6.96289Q14.6484 7.1582 14.9707 7.1582Q15.1953 7.1582 15.3711 7.06543Q15.5469 6.97266 15.6543 6.76758Q16.0645 5.91797 16.7041 5.5127Q17.3438 5.10742 18.3008 5.10742Q19.4434 5.10742 20.0879 5.70312Q20.7324 6.29883 20.7324 7.32422L20.7324 8.16406L17.5781 8.33984Q15.7227 8.4375 14.7266 9.25293Q13.7305 10.0684 13.7305 11.4355Q13.7305 12.373 14.1748 13.0713Q14.6191 13.7695 15.4102 14.1602Q16.2012 14.5508 17.2363 14.5508ZM17.6367 13.1934Q16.6406 13.1934 16.0303 12.6953Q15.4199 12.1973 15.4199 11.3965Q15.4199 10.6152 16.0254 10.1318Q16.6309 9.64844 17.7832 9.57031L20.7324 9.38477L20.7324 10.4199Q20.7324 11.2012 20.3174 11.8262Q19.9023 12.4512 19.1992 12.8223Q18.4961 13.1934 17.6367 13.1934ZM0.820312 14.4824Q1.21094 14.4824 1.42578 14.3164Q1.64062 14.1504 1.77734 13.7402L3.03711 10.293L8.79883 10.293L10.0586 13.7402Q10.1953 14.1504 10.4102 14.3164Q10.625 14.4824 11.0059 14.4824Q11.3965 14.4824 11.626 14.2676Q11.8555 14.0527 11.8555 13.6816Q11.8555 13.457 11.748 13.1543L7.16797 0.957031Q6.99219 0.507812 6.68945 0.283203Q6.38672 0.0585938 5.91797 0.0585938Q5.00977 0.0585938 4.6875 0.947266L0.107422 13.1641Q0 13.4668 0 13.6914Q0 14.0625 0.219727 14.2725Q0.439453 14.4824 0.820312 14.4824ZM3.51562 8.80859L5.88867 2.23633L5.9375 2.23633L8.31055 8.80859Z" fill="#007aff"/>
 </g>
</svg>
