<?xml version="1.0" encoding="UTF-8"?>
<!--Generator: Apple Native CoreSVG 175.5-->
<!DOCTYPE svg
PUBLIC "-//W3C//DTD SVG 1.1//EN"
       "http://www.w3.org/Graphics/SVG/1.1/DTD/svg11.dtd">
<svg version="1.1" xmlns="http://www.w3.org/2000/svg" xmlns:xlink="http://www.w3.org/1999/xlink" width="19.6777" height="16.8848">
 <g>
  <rect height="16.8848" opacity="0" width="19.6777" x="0" y="0"/>
  <path d="M0.732422 1.47461L18.9258 1.47461Q19.2383 1.47461 19.458 1.25977Q19.6777 1.04492 19.6777 0.732422Q19.6777 0.429688 19.458 0.214844Q19.2383 0 18.9258 0L0.732422 0Q0.429688 0 0.214844 0.214844Q0 0.429688 0 0.732422Q0 1.04492 0.214844 1.25977Q0.429688 1.47461 0.732422 1.47461ZM4.3457 6.5918L15.3223 6.5918Q15.6348 6.5918 15.8496 6.37695Q16.0645 6.16211 16.0645 5.84961Q16.0645 5.53711 15.8496 5.32715Q15.6348 5.11719 15.3223 5.11719L4.3457 5.11719Q4.0332 5.11719 3.81836 5.32715Q3.60352 5.53711 3.60352 5.84961Q3.60352 6.16211 3.81836 6.37695Q4.0332 6.5918 4.3457 6.5918ZM0.732422 11.709L18.9258 11.709Q19.2383 11.709 19.458 11.4941Q19.6777 11.2793 19.6777 10.9668Q19.6777 10.6543 19.458 10.4443Q19.2383 10.2344 18.9258 10.2344L0.732422 10.2344Q0.429688 10.2344 0.214844 10.4443Q0 10.6543 0 10.9668Q0 11.2793 0.214844 11.4941Q0.429688 11.709 0.732422 11.709ZM4.3457 16.8164L15.3223 16.8164Q15.6348 16.8164 15.8496 16.6064Q16.0645 16.3965 16.0645 16.084Q16.0645 15.7715 15.8496 15.5566Q15.6348 15.3418 15.3223 15.3418L4.3457 15.3418Q4.0332 15.3418 3.81836 15.5566Q3.60352 15.7715 3.60352 16.084Q3.60352 16.3965 3.81836 16.6064Q4.0332 16.8164 4.3457 16.8164Z" fill="#007aff"/>
 </g>
</svg>
