<?xml version="1.0" encoding="UTF-8"?>
<!--Generator: Apple Native CoreSVG 175-->
<!DOCTYPE svg
PUBLIC "-//W3C//DTD SVG 1.1//EN"
       "http://www.w3.org/Graphics/SVG/1.1/DTD/svg11.dtd">
<svg version="1.1" xmlns="http://www.w3.org/2000/svg" xmlns:xlink="http://www.w3.org/1999/xlink" width="18.9043" height="16.0974">
 <g>
  <rect height="16.0974" opacity="0" width="18.9043" x="0" y="0"/>
  <path d="M0.352783 0.701294L18.5461 0.701294Q18.7039 0.701294 18.8041 0.602417Q18.9043 0.50354 18.9043 0.345764Q18.9043 0.197754 18.8041 0.098877Q18.7039 0 18.5461 0L0.352783 0Q0.197601 0 0.0988007 0.098877Q0 0.197754 0 0.345764Q0 0.50354 0.0988007 0.602417Q0.197601 0.701294 0.352783 0.701294ZM0.352783 5.83252L18.5461 5.83252Q18.7039 5.83252 18.8041 5.73372Q18.9043 5.63492 18.9043 5.47699Q18.9043 5.32623 18.8041 5.22881Q18.7039 5.13138 18.5461 5.13138L0.352783 5.13138Q0.197601 5.13138 0.0988007 5.22881Q0 5.32623 0 5.47699Q0 5.63492 0.0988007 5.73372Q0.197601 5.83252 0.352783 5.83252ZM0.352783 10.9637L18.5461 10.9637Q18.7039 10.9637 18.8041 10.8649Q18.9043 10.7661 18.9043 10.6152Q18.9043 10.4575 18.8041 10.36Q18.7039 10.2626 18.5461 10.2626L0.352783 10.2626Q0.197601 10.2626 0.0988007 10.36Q0 10.4575 0 10.6152Q0 10.7661 0.0988007 10.8649Q0.197601 10.9637 0.352783 10.9637ZM0.352783 16.0922L18.5461 16.0922Q18.7039 16.0922 18.8041 15.9948Q18.9043 15.8974 18.9043 15.7466Q18.9043 15.5887 18.8041 15.4899Q18.7039 15.3911 18.5461 15.3911L0.352783 15.3911Q0.197601 15.3911 0.0988007 15.4899Q0 15.5887 0 15.7466Q0 15.8974 0.0988007 15.9948Q0.197601 16.0922 0.352783 16.0922Z" fill="#007aff"/>
 </g>
</svg>
