<?xml version="1.0" encoding="UTF-8"?>
<!--Generator: Apple Native CoreSVG 175.5-->
<!DOCTYPE svg
PUBLIC "-//W3C//DTD SVG 1.1//EN"
       "http://www.w3.org/Graphics/SVG/1.1/DTD/svg11.dtd">
<svg version="1.1" xmlns="http://www.w3.org/2000/svg" xmlns:xlink="http://www.w3.org/1999/xlink" width="19.6777" height="16.8848">
 <g>
  <rect height="16.8848" opacity="0" width="19.6777" x="0" y="0"/>
  <path d="M0.732422 1.47461L18.9258 1.47461Q19.2383 1.47461 19.458 1.25977Q19.6777 1.04492 19.6777 0.732422Q19.6777 0.429688 19.458 0.214844Q19.2383 0 18.9258 0L0.732422 0Q0.429688 0 0.214844 0.214844Q0 0.429688 0 0.732422Q0 1.04492 0.214844 1.25977Q0.429688 1.47461 0.732422 1.47461ZM0.732422 11.709L18.9258 11.709Q19.2383 11.709 19.458 11.4941Q19.6777 11.2793 19.6777 10.9668Q19.6777 10.6543 19.458 10.4443Q19.2383 10.2344 18.9258 10.2344L0.732422 10.2344Q0.429688 10.2344 0.214844 10.4443Q0 10.6543 0 10.9668Q0 11.2793 0.214844 11.4941Q0.429688 11.709 0.732422 11.709ZM7.94922 6.5918L18.9258 6.5918Q19.2383 6.5918 19.458 6.37695Q19.6777 6.16211 19.6777 5.84961Q19.6777 5.53711 19.458 5.32715Q19.2383 5.11719 18.9258 5.11719L7.94922 5.11719Q7.63672 5.11719 7.42188 5.32715Q7.20703 5.53711 7.20703 5.84961Q7.20703 6.16211 7.42188 6.37695Q7.63672 6.5918 7.94922 6.5918ZM7.94922 16.8164L18.9258 16.8164Q19.2383 16.8164 19.458 16.6064Q19.6777 16.3965 19.6777 16.084Q19.6777 15.7715 19.458 15.5566Q19.2383 15.3418 18.9258 15.3418L7.94922 15.3418Q7.63672 15.3418 7.42188 15.5566Q7.20703 15.7715 7.20703 16.084Q7.20703 16.3965 7.42188 16.6064Q7.63672 16.8164 7.94922 16.8164Z" fill="#007aff"/>
 </g>
</svg>
