<?xml version="1.0" encoding="UTF-8"?>
<!--Generator: Apple Native CoreSVG 175-->
<!DOCTYPE svg
PUBLIC "-//W3C//DTD SVG 1.1//EN"
       "http://www.w3.org/Graphics/SVG/1.1/DTD/svg11.dtd">
<svg version="1.1" xmlns="http://www.w3.org/2000/svg" xmlns:xlink="http://www.w3.org/1999/xlink" width="31.6341" height="21.7807">
 <g>
  <rect height="21.7807" opacity="0" width="31.6341" x="0" y="0"/>
  <path d="M11.2988 18.2691Q13.5844 17.65 14.9692 16.3056Q16.3539 14.9613 16.7674 13.0271Q17.1809 11.0929 16.5352 8.70699L14.6642 1.77966Q14.3564 0.646081 13.6266 0.234551Q12.8969-0.176979 11.7438 0.133538L1.8129 2.77926Q0.671089 3.08703 0.246284 3.80694Q-0.178521 4.52685 0.129402 5.67996L1.9809 12.6215Q2.60987 15.0046 3.9325 16.4716Q5.25513 17.9386 7.13074 18.4085Q9.00635 18.8785 11.2988 18.2691ZM11.0899 17.546Q9.04221 18.082 7.35963 17.6521Q5.67704 17.2222 4.48991 15.8913Q3.30277 14.5604 2.72355 12.4195L0.864875 5.49014Q0.64698 4.66708 0.920036 4.19016Q1.19309 3.71325 2.02042 3.48544L11.9376 0.830102Q12.7509 0.612053 13.234 0.896248Q13.7172 1.18044 13.9395 2.01052L15.7813 8.9258Q16.3564 11.0765 15.9934 12.8177Q15.6305 14.5589 14.3924 15.7726Q13.1543 16.9863 11.0899 17.546ZM10.4923 15.2136Q12.1126 14.7629 13.0614 13.5967Q14.0102 12.4304 14.0239 10.8487Q14.0196 10.562 13.8333 10.466Q13.647 10.3699 13.4117 10.5367Q12.2188 11.4015 11.2069 11.7603Q10.195 12.119 9.68995 12.2557Q9.17786 12.3854 8.13035 12.5878Q7.08283 12.7902 5.60639 12.6378Q5.3212 12.603 5.20653 12.7741Q5.09187 12.9453 5.24064 13.2031Q6.04035 14.5629 7.44424 15.0955Q8.84812 15.6281 10.4923 15.2136ZM5.59739 8.7961Q6.06843 8.67342 6.37192 8.80526Q6.67542 8.9371 6.88599 8.8785Q6.99311 8.85348 7.06925 8.67495Q7.14539 8.49642 7.07703 8.23977Q6.92078 7.62774 6.34484 7.29647Q5.7689 6.9652 5.14542 7.13946Q4.51218 7.29845 4.18168 7.87028Q3.85117 8.4421 4.02268 9.05154Q4.10081 9.31796 4.2579 9.43217Q4.41499 9.54638 4.52195 9.52151Q4.73679 9.46719 4.92234 9.20351Q5.10789 8.93984 5.59739 8.7961ZM11.5122 7.20965Q11.9974 7.0801 12.2939 7.21194Q12.5903 7.34377 12.8079 7.29495Q12.9079 7.26016 12.9889 7.08163Q13.0699 6.9031 12.9918 6.63943Q12.8427 6.02023 12.2681 5.69033Q11.6934 5.36044 11.07 5.54171Q10.4341 5.69796 10.1036 6.27474Q9.77311 6.85152 9.94462 7.46523Q10.0157 7.68938 10.1657 7.82259Q10.3157 7.9558 10.4509 7.91399Q10.6613 7.85265 10.8456 7.59249Q11.0298 7.33233 11.5122 7.20965ZM20.3392 20.8519Q22.6289 21.4656 24.5032 20.9992Q26.3774 20.5327 27.7023 19.0657Q29.0271 17.5987 29.6587 15.2156L31.5086 8.27685Q31.8095 7.12222 31.389 6.40093Q30.9685 5.67965 29.8196 5.36913L19.8915 2.71792Q18.7314 2.41717 18.0079 2.83007Q17.2844 3.24297 16.9809 4.3793L15.9833 8.04018L16.4012 9.46841L17.7055 4.59765Q17.9306 3.76055 18.4075 3.4791Q18.8844 3.19766 19.7047 3.42257L29.6219 6.08233Q30.4422 6.30038 30.7153 6.78355Q30.9883 7.26672 30.7774 8.09252L28.9188 15.0051Q28.3466 17.1628 27.1559 18.4888Q25.9653 19.8148 24.2841 20.2468Q22.6029 20.6789 20.5426 20.1358Q18.3626 19.5346 17.0835 18.1866Q15.8045 16.8386 15.5821 14.8897L14.922 15.8184Q15.3731 17.6758 16.7567 18.966Q18.1403 20.2562 20.3392 20.8519ZM19.9844 10.7785Q20.4654 10.9108 20.9093 10.6642Q21.3532 10.4175 21.4856 9.92693Q21.604 9.42919 21.3525 8.99233Q21.1009 8.55547 20.6075 8.41326Q20.1267 8.28783 19.6841 8.54426Q19.2415 8.80068 19.1063 9.28439Q18.9809 9.78899 19.2339 10.221Q19.4869 10.6531 19.9844 10.7785ZM25.7169 12.3047Q26.2076 12.4343 26.6431 12.1827Q27.0786 11.9312 27.211 11.4476Q27.3364 10.9569 27.0849 10.5179Q26.8334 10.0789 26.3426 9.95348Q25.8521 9.82104 25.4165 10.0712Q24.9809 10.3214 24.8653 10.8051Q24.7231 11.3027 24.9747 11.7431Q25.2263 12.1836 25.7169 12.3047ZM21.5212 16.2488Q22.4371 16.4917 23.2514 16.9294Q24.0657 17.3671 24.7641 17.9804Q24.9657 18.1667 25.1497 18.0735Q25.3337 17.9804 25.3282 17.7022Q25.3215 16.2796 24.4602 15.2322Q23.5989 14.1847 22.1574 13.8234Q20.695 13.4426 19.4367 13.9222Q18.1783 14.4019 17.4638 15.5983Q17.3219 15.8335 17.4386 16.012Q17.5552 16.1905 17.8192 16.1379Q18.6693 15.9651 19.6478 15.9876Q20.6262 16.0102 21.5212 16.2488Z" fill="#ffffff"/>
 </g>
</svg>
