<?xml version="1.0" encoding="UTF-8"?>
<!--Generator: Apple Native CoreSVG 175.5-->
<!DOCTYPE svg
PUBLIC "-//W3C//DTD SVG 1.1//EN"
       "http://www.w3.org/Graphics/SVG/1.1/DTD/svg11.dtd">
<svg version="1.1" xmlns="http://www.w3.org/2000/svg" xmlns:xlink="http://www.w3.org/1999/xlink" width="19.9219" height="19.9316">
 <g>
  <rect height="19.9316" opacity="0" width="19.9219" x="0" y="0"/>
  <path d="M9.96094 19.9316Q12.002 19.9316 13.8037 19.1504Q15.6055 18.3691 16.9824 16.9922Q18.3594 15.6152 19.1406 13.8135Q19.9219 12.0117 19.9219 9.9707Q19.9219 7.92969 19.1406 6.12793Q18.3594 4.32617 16.9824 2.94922Q15.6055 1.57227 13.7988 0.791016Q11.9922 0.00976562 9.95117 0.00976562Q7.91016 0.00976562 6.1084 0.791016Q4.30664 1.57227 2.93457 2.94922Q1.5625 4.32617 0.78125 6.12793Q0 7.92969 0 9.9707Q0 12.0117 0.78125 13.8135Q1.5625 15.6152 2.93945 16.9922Q4.31641 18.3691 6.11816 19.1504Q7.91992 19.9316 9.96094 19.9316Z" fill="#007aff"/>
  <path d="M8.71094 13.6133Q7.10938 14.0332 5.96191 13.3398Q4.81445 12.6465 4.375 10.9863L3.57422 7.95898Q3.24219 6.70898 4.48242 6.38672L8.76953 5.24414Q10.0098 4.93164 10.3418 6.14258L11.1523 9.16016Q11.6113 10.8301 10.957 12.002Q10.3027 13.1738 8.71094 13.6133ZM8.29102 12.0605Q8.98438 11.8848 9.39941 11.3916Q9.81445 10.8984 9.83398 10.2539Q9.85352 10.127 9.76562 10.0781Q9.67773 10.0293 9.56055 10.1074Q9.19922 10.3516 8.76465 10.5371Q8.33008 10.7227 7.95898 10.8203Q7.59766 10.918 7.12891 10.9766Q6.66016 11.0352 6.2207 10.9961Q6.09375 10.9961 6.04004 11.0742Q5.98633 11.1523 6.05469 11.2598Q6.40625 11.8066 7.0166 12.0215Q7.62695 12.2363 8.29102 12.0605ZM6.12305 9.23828Q6.33789 9.16016 6.47461 9.22852Q6.61133 9.29688 6.72852 9.26758Q6.86523 9.21875 6.79688 9.00391Q6.70898 8.74023 6.46484 8.59375Q6.2207 8.44727 5.9375 8.52539Q5.66406 8.58398 5.50781 8.83789Q5.35156 9.0918 5.43945 9.38477Q5.50781 9.58008 5.61523 9.56055Q5.73242 9.54102 5.80566 9.42383Q5.87891 9.30664 6.12305 9.23828ZM8.75977 8.52539Q8.98438 8.44727 9.11621 8.52051Q9.24805 8.59375 9.375 8.55469Q9.41406 8.53516 9.43848 8.4668Q9.46289 8.39844 9.42383 8.30078Q9.36523 8.01758 9.11133 7.87598Q8.85742 7.73438 8.57422 7.80273Q8.30078 7.86133 8.14941 8.125Q7.99805 8.38867 8.06641 8.66211Q8.16406 8.86719 8.25195 8.82812Q8.35938 8.81836 8.44238 8.70117Q8.52539 8.58398 8.75977 8.52539ZM15.6836 7.50977Q16.9434 7.83203 16.5918 9.07227L15.791 12.0898Q15.3418 13.75 14.1943 14.4482Q13.0469 15.1465 11.4551 14.7266Q10.5273 14.4727 9.92188 13.9551Q11.0547 13.3691 11.5918 12.3633Q11.6992 12.373 11.8164 12.3975Q11.9336 12.4219 12.0312 12.4512Q12.3828 12.5488 12.6807 12.71Q12.9785 12.8711 13.3008 13.1641Q13.3887 13.2617 13.4863 13.2178Q13.584 13.1738 13.584 13.0371Q13.5645 12.5195 13.2031 12.1191Q12.8418 11.7188 12.2754 11.582Q12.1973 11.5625 12.1094 11.5479Q12.0215 11.5332 11.9434 11.5234Q12.2656 10.332 11.8848 8.96484L11.1621 6.30859Q11.2207 6.31836 11.2793 6.32812Q11.3379 6.33789 11.3965 6.35742ZM13.8672 10.791Q14.0918 10.8594 14.2871 10.7422Q14.4824 10.625 14.5508 10.4004Q14.6094 10.1758 14.4971 9.97559Q14.3848 9.77539 14.1602 9.72656Q13.9355 9.66797 13.7354 9.77539Q13.5352 9.88281 13.4863 10.1074Q13.418 10.332 13.5352 10.5371Q13.6523 10.7422 13.8672 10.791Z" fill="#ffffff"/>
 </g>
</svg>
