<?xml version="1.0" encoding="UTF-8"?>
<!--Generator: Apple Native CoreSVG 175.5-->
<!DOCTYPE svg
PUBLIC "-//W3C//DTD SVG 1.1//EN"
       "http://www.w3.org/Graphics/SVG/1.1/DTD/svg11.dtd">
<svg version="1.1" xmlns="http://www.w3.org/2000/svg" xmlns:xlink="http://www.w3.org/1999/xlink" width="19.8535" height="25.6934">
 <g>
  <rect height="25.6934" opacity="0" width="19.8535" x="0" y="0"/>
  <path d="M9.76562 14.9707Q11.1035 14.9707 12.2021 14.3164Q13.3008 13.6621 13.9453 12.5635Q14.5898 11.4648 14.5898 10.127Q14.5898 8.7793 13.9453 7.68066Q13.3008 6.58203 12.2021 5.93262Q11.1035 5.2832 9.76562 5.2832Q9.10156 5.2832 8.48145 5.46387Q7.86133 5.64453 7.30469 5.97656L8.08594 7.19727Q8.45703 6.97266 8.88672 6.8457Q9.31641 6.71875 9.76562 6.71875Q10.7227 6.71875 11.4893 7.16797Q12.2559 7.61719 12.71 8.39355Q13.1641 9.16992 13.1641 10.127Q13.1641 11.084 12.71 11.8555Q12.2559 12.627 11.4893 13.0811Q10.7227 13.5352 9.76562 13.5352Q9.17969 13.5352 8.6377 13.3398Q8.0957 13.1445 7.64648 12.793L7.64648 14.4727Q8.13477 14.7168 8.66699 14.8438Q9.19922 14.9707 9.76562 14.9707ZM9.76562 3.73047Q10.0977 3.73047 10.3369 3.49121Q10.5762 3.25195 10.5762 2.91992L10.5762 0.810547Q10.5762 0.478516 10.3369 0.239258Q10.0977 0 9.76562 0Q9.43359 0 9.19434 0.239258Q8.95508 0.478516 8.95508 0.810547L8.95508 2.91992Q8.95508 3.25195 9.19434 3.49121Q9.43359 3.73047 9.76562 3.73047ZM14.2773 5.61523Q14.502 5.84961 14.8438 5.85449Q15.1855 5.85938 15.4297 5.61523L16.9141 4.12109Q17.1582 3.88672 17.1533 3.5498Q17.1484 3.21289 16.9141 2.97852Q16.6895 2.74414 16.3525 2.73926Q16.0156 2.73438 15.7812 2.97852L14.2773 4.48242Q14.043 4.7168 14.0479 5.04883Q14.0527 5.38086 14.2773 5.61523ZM16.9434 10.9375L19.0527 10.9375Q19.3848 10.9375 19.6191 10.6982Q19.8535 10.459 19.8535 10.127Q19.8535 9.79492 19.6191 9.55566Q19.3848 9.31641 19.0527 9.31641L16.9434 9.31641Q16.6211 9.31641 16.377 9.55566Q16.1328 9.79492 16.1328 10.127Q16.1328 10.459 16.377 10.6982Q16.6211 10.9375 16.9434 10.9375ZM15.7812 17.2949Q16.0156 17.5293 16.3525 17.5244Q16.6895 17.5195 16.9141 17.2852Q17.1484 17.0508 17.1533 16.7139Q17.1582 16.377 16.9141 16.1523L15.4102 14.6484Q15.1758 14.4238 14.8438 14.4238Q14.5117 14.4238 14.2773 14.6484Q14.043 14.8828 14.043 15.2246Q14.043 15.5664 14.2773 15.8008Z" fill="#007aff"/>
  <path d="M5.11719 25.1562Q6.17188 25.1562 7.09473 24.7607Q8.01758 24.3652 8.71582 23.6621Q9.41406 22.959 9.80957 22.0361Q10.2051 21.1133 10.2051 20.0586Q10.2051 18.9453 9.75586 17.9785Q9.30664 17.0117 8.42773 16.2207Q8.27148 16.0742 8.22266 15.957Q8.17383 15.8398 8.17383 15.625L8.18359 6.79688Q8.18359 5.81055 7.79785 5.05859Q7.41211 4.30664 6.71875 3.88672Q6.02539 3.4668 5.11719 3.4668Q4.19922 3.4668 3.50098 3.88672Q2.80273 4.30664 2.41211 5.05859Q2.02148 5.81055 2.02148 6.79688L2.03125 15.625Q2.03125 15.8398 1.98242 15.957Q1.93359 16.0742 1.77734 16.2207Q0.908203 17.0117 0.454102 17.9785Q0 18.9453 0 20.0586Q0 21.1133 0.395508 22.0361Q0.791016 22.959 1.49414 23.6621Q2.19727 24.3652 3.125 24.7607Q4.05273 25.1562 5.11719 25.1562ZM5.11719 23.7402Q4.0918 23.7402 3.25684 23.2422Q2.42188 22.7441 1.92871 21.9092Q1.43555 21.0742 1.43555 20.0586Q1.43555 19.1406 1.85547 18.3496Q2.27539 17.5586 3.04688 17.041Q3.27148 16.8848 3.36914 16.7188Q3.4668 16.5527 3.4668 16.25L3.4668 6.85547Q3.4668 5.97656 3.92578 5.43457Q4.38477 4.89258 5.11719 4.89258Q5.83008 4.89258 6.28906 5.43457Q6.74805 5.97656 6.74805 6.85547L6.74805 16.25Q6.74805 16.5527 6.84082 16.7188Q6.93359 16.8848 7.16797 17.041Q7.93945 17.5586 8.35938 18.3496Q8.7793 19.1406 8.7793 20.0586Q8.7793 21.0742 8.28125 21.9092Q7.7832 22.7441 6.95312 23.2422Q6.12305 23.7402 5.11719 23.7402Z" fill="#007aff"/>
  <path d="M5.10742 22.4219Q5.76172 22.4219 6.29395 22.0996Q6.82617 21.7773 7.14844 21.2402Q7.4707 20.7031 7.4707 20.0488Q7.4707 19.3652 7.11914 18.8232Q6.76758 18.2812 6.20117 17.9785Q5.9668 17.8418 5.87402 17.7051Q5.78125 17.5684 5.78125 17.207L5.78125 7.68555Q5.78125 7.33398 5.58594 7.12402Q5.39062 6.91406 5.10742 6.91406Q4.82422 6.91406 4.62891 7.12402Q4.43359 7.33398 4.43359 7.68555L4.43359 17.207Q4.43359 17.5684 4.34082 17.7051Q4.24805 17.8418 4.01367 17.9785Q3.44727 18.2812 3.0957 18.8232Q2.74414 19.3652 2.74414 20.0488Q2.74414 20.7031 3.06152 21.2451Q3.37891 21.7871 3.91602 22.1045Q4.45312 22.4219 5.10742 22.4219Z" fill="#007aff"/>
 </g>
</svg>
