<?xml version="1.0" encoding="UTF-8"?>
<!--Generator: Apple Native CoreSVG 175.5-->
<!DOCTYPE svg
PUBLIC "-//W3C//DTD SVG 1.1//EN"
       "http://www.w3.org/Graphics/SVG/1.1/DTD/svg11.dtd">
<svg version="1.1" xmlns="http://www.w3.org/2000/svg" xmlns:xlink="http://www.w3.org/1999/xlink" width="24.1504" height="16.9238">
 <g>
  <rect height="16.9238" opacity="0" width="24.1504" x="0" y="0"/>
  <path d="M0 12.959Q0 13.3008 0.136719 13.5205Q0.273438 13.7402 0.566406 13.877Q1.38672 14.2773 1.90918 14.8193Q2.43164 15.3613 2.92969 16.3574Q3.24219 16.9043 3.83789 16.9043L20.3125 16.9043Q20.9082 16.9043 21.2109 16.3574Q21.7188 15.3613 22.2412 14.8193Q22.7637 14.2773 23.584 13.877Q23.877 13.7402 24.0137 13.5205Q24.1504 13.3008 24.1504 12.959L24.1504 3.95508Q24.1504 3.61328 24.0137 3.39355Q23.877 3.17383 23.584 3.03711Q22.7637 2.62695 22.2412 2.08496Q21.7188 1.54297 21.2109 0.556641Q20.9082 0 20.3125 0L3.83789 0Q3.24219 0 2.92969 0.556641Q2.43164 1.54297 1.90918 2.08496Q1.38672 2.62695 0.566406 3.03711Q0.273438 3.17383 0.136719 3.39355Q0 3.61328 0 3.95508ZM4.01367 12.9102L4.01367 4.00391Q4.01367 3.60352 4.25781 3.35938Q4.50195 3.11523 4.90234 3.11523L19.2383 3.11523Q19.6387 3.11523 19.8828 3.35938Q20.127 3.60352 20.127 4.00391L20.127 12.9102Q20.127 13.3203 19.8828 13.5596Q19.6387 13.7988 19.2383 13.7988L4.90234 13.7988Q4.50195 13.7988 4.25781 13.5596Q4.01367 13.3203 4.01367 12.9102ZM5.25391 6.2793L6.5625 6.2793L6.5625 4.33594L5.46875 4.33594Q5.25391 4.33594 5.25391 4.56055ZM5.25391 9.42383L6.5625 9.42383L6.5625 7.5L5.25391 7.5ZM5.25391 12.3535Q5.25391 12.5781 5.46875 12.5781L6.5625 12.5781L6.5625 10.6445L5.25391 10.6445ZM17.5879 6.2793L18.8965 6.2793L18.8965 4.56055Q18.8965 4.33594 18.6816 4.33594L17.5879 4.33594ZM17.5879 9.42383L18.8965 9.42383L18.8965 7.5L17.5879 7.5ZM17.5879 12.5781L18.6816 12.5781Q18.8965 12.5781 18.8965 12.3535L18.8965 10.6445L17.5879 10.6445ZM7.79297 12.5781L16.3574 12.5781L16.3574 4.33594L7.79297 4.33594Z" fill="#007aff"/>
 </g>
</svg>
