<?xml version="1.0" encoding="UTF-8"?>
<!--Generator: Apple Native CoreSVG 175.5-->
<!DOCTYPE svg
PUBLIC "-//W3C//DTD SVG 1.1//EN"
       "http://www.w3.org/Graphics/SVG/1.1/DTD/svg11.dtd">
<svg version="1.1" xmlns="http://www.w3.org/2000/svg" xmlns:xlink="http://www.w3.org/1999/xlink" width="19.9219" height="19.9316">
 <g>
  <rect height="19.9316" opacity="0" width="19.9219" x="0" y="0"/>
  <path d="M9.96094 19.9219Q12.002 19.9219 13.8037 19.1406Q15.6055 18.3594 16.9824 16.9824Q18.3594 15.6055 19.1406 13.8037Q19.9219 12.002 19.9219 9.96094Q19.9219 7.91992 19.1406 6.11816Q18.3594 4.31641 16.9824 2.93945Q15.6055 1.5625 13.7988 0.78125Q11.9922 0 9.95117 0Q7.91016 0 6.1084 0.78125Q4.30664 1.5625 2.93457 2.93945Q1.5625 4.31641 0.78125 6.11816Q0 7.91992 0 9.96094Q0 12.002 0.78125 13.8037Q1.5625 15.6055 2.93945 16.9824Q4.31641 18.3594 6.11816 19.1406Q7.91992 19.9219 9.96094 19.9219ZM9.96094 18.2617Q8.23242 18.2617 6.72852 17.6172Q5.22461 16.9727 4.08691 15.835Q2.94922 14.6973 2.30957 13.1934Q1.66992 11.6895 1.66992 9.96094Q1.66992 8.23242 2.30957 6.72852Q2.94922 5.22461 4.08203 4.08203Q5.21484 2.93945 6.71875 2.2998Q8.22266 1.66016 9.95117 1.66016Q11.6797 1.66016 13.1885 2.2998Q14.6973 2.93945 15.835 4.08203Q16.9727 5.22461 17.6172 6.72852Q18.2617 8.23242 18.2617 9.96094Q18.2617 11.6895 17.6221 13.1934Q16.9824 14.6973 15.8398 15.835Q14.6973 16.9727 13.1934 17.6172Q11.6895 18.2617 9.96094 18.2617Z" fill="#007aff"/>
  <path d="M9.96094 15.5078Q11.1035 15.5078 12.1094 15.0732Q13.1152 14.6387 13.877 13.8721Q14.6387 13.1055 15.0732 12.1045Q15.5078 11.1035 15.5078 9.96094Q15.5078 8.81836 15.0732 7.81738Q14.6387 6.81641 13.877 6.0498Q13.1152 5.2832 12.1094 4.84863Q11.1035 4.41406 9.9707 4.41406Q9.66797 4.41406 9.51172 4.58984Q9.35547 4.76562 9.35547 5.03906L9.35547 6.58203Q9.35547 6.82617 9.5166 7.00684Q9.67773 7.1875 9.94141 7.1875Q10.2051 7.1875 10.3662 7.00684Q10.5273 6.82617 10.5273 6.58203L10.5273 5.73242Q11.582 5.85938 12.417 6.44531Q13.252 7.03125 13.7354 7.94434Q14.2188 8.85742 14.2188 9.96094Q14.2188 11.1621 13.6572 12.1289Q13.0957 13.0957 12.1289 13.6621Q11.1621 14.2285 9.96094 14.2285Q8.75977 14.2285 7.79297 13.6621Q6.82617 13.0957 6.25977 12.1289Q5.69336 11.1621 5.69336 9.96094Q5.69336 9.15039 5.9668 8.45703Q6.24023 7.76367 6.71875 7.19727Q6.875 7.00195 6.87988 6.75293Q6.88477 6.50391 6.69922 6.30859Q6.50391 6.10352 6.23047 6.12305Q5.95703 6.14258 5.75195 6.37695Q5.12695 7.09961 4.77051 8.02246Q4.41406 8.94531 4.41406 9.96094Q4.41406 11.1035 4.84863 12.1045Q5.2832 13.1055 6.0498 13.8721Q6.81641 14.6387 7.82227 15.0732Q8.82812 15.5078 9.96094 15.5078ZM10.8887 10.8008Q11.2402 10.4297 11.1865 9.98535Q11.1328 9.54102 10.7031 9.24805L8.1543 7.53906Q7.87109 7.35352 7.65625 7.55859Q7.44141 7.76367 7.62695 8.05664L9.3457 10.6055Q9.62891 11.0352 10.0781 11.0938Q10.5273 11.1523 10.8887 10.8008Z" fill="#007aff"/>
 </g>
</svg>
