<?xml version="1.0" encoding="UTF-8"?>
<!--Generator: Apple Native CoreSVG 175-->
<!DOCTYPE svg
PUBLIC "-//W3C//DTD SVG 1.1//EN"
       "http://www.w3.org/Graphics/SVG/1.1/DTD/svg11.dtd">
<svg version="1.1" xmlns="http://www.w3.org/2000/svg" xmlns:xlink="http://www.w3.org/1999/xlink" width="32.2566" height="18.6526">
 <g>
  <rect height="18.6526" opacity="0" width="32.2566" x="0" y="0"/>
  <path d="M11.5099 17.0926Q13.0101 17.0926 14.1429 16.85Q15.2757 16.6074 16.1703 16.247Q17.0648 15.8867 17.8482 15.5264Q18.6316 15.166 19.4171 14.922Q20.2026 14.678 21.1195 14.678Q22.166 14.678 22.8683 14.4556Q23.5707 14.2332 24.1151 13.9055Q24.6594 13.5777 25.2122 13.25Q25.7649 12.9222 26.4905 12.6997Q27.216 12.4773 28.2941 12.4773Q29.4508 12.4773 30.3432 12.1886Q31.2355 11.9 31.7461 11.3177Q32.2566 10.7355 32.2566 9.84131Q32.2566 8.30582 31.6932 7.10075Q31.1298 5.89569 30.1379 5.19936Q29.1461 4.50302 27.8571 4.50302Q26.6597 4.50302 25.8396 5.0087Q25.0195 5.51437 24.4912 6.33705Q23.9629 7.15973 23.6235 8.09448Q23.2457 9.10538 22.7246 9.83414Q22.2035 10.5629 21.2848 10.9203L20.4868 9.44992Q19.2117 7.09518 17.9586 5.67337Q16.7055 4.25156 15.2734 3.61366Q13.8414 2.97577 12.0332 2.97577Q10.4765 2.97577 9.24278 3.35228Q8.00903 3.72879 6.94962 4.59778Q5.8902 5.46677 4.88258 6.92986Q3.87497 8.39294 2.76794 10.5757Q2.38129 11.3437 1.9088 11.873Q1.43631 12.4023 0.999374 12.7652Q0.562439 13.1281 0.281219 13.392Q0 13.6559 0 13.8815Q0 14.2621 0.228348 14.4701Q0.456696 14.678 0.906219 14.678Q1.26678 14.678 1.74942 14.678Q2.23206 14.678 2.75116 14.678Q3.85544 14.678 4.71039 14.922Q5.56534 15.166 6.3073 15.5264Q7.04926 15.8867 7.80647 16.247Q8.56369 16.6074 9.4545 16.85Q10.3453 17.0926 11.5099 17.0926ZM11.5099 16.3765Q10.4036 16.3765 9.54735 16.1291Q8.6911 15.8817 7.95044 15.5177Q7.20978 15.1538 6.46706 14.7886Q5.72433 14.4234 4.85535 14.1795Q3.98636 13.9355 2.85126 13.9355Q2.39304 13.9355 1.9059 13.9369Q1.41876 13.9383 0.85907 13.9394L0.837097 13.8167Q1.15509 13.5757 1.56837 13.2445Q1.98166 12.9132 2.45064 12.3542Q2.91962 11.7952 3.38394 10.8649Q4.43481 8.78662 5.37544 7.40364Q6.31607 6.02066 7.29515 5.20508Q8.27423 4.3895 9.42093 4.04411Q10.5676 3.69873 12.0332 3.69873Q13.5765 3.69873 14.7607 4.1851Q15.945 4.67148 16.8563 5.52124Q17.7676 6.371 18.5022 7.4691Q19.2368 8.5672 19.8808 9.79065Q20.1453 10.2977 20.557 11.007Q20.9688 11.7163 21.506 12.4599Q22.0433 13.2034 22.684 13.8089Q22.2757 13.9003 21.9177 13.9179Q21.5598 13.9355 21.2082 13.9355Q20.173 13.9355 19.3168 14.1795Q18.4605 14.4234 17.6482 14.7886Q16.8359 15.1538 15.9492 15.5177Q15.0624 15.8817 13.9851 16.1291Q12.9079 16.3765 11.5099 16.3765ZM23.3871 13.569Q22.8934 13.1886 22.4139 12.5923Q21.9344 11.996 21.6396 11.4734Q22.3708 11.2148 22.8175 10.8321Q23.2642 10.4495 23.5907 9.85832Q23.9172 9.26712 24.2726 8.38089Q24.5844 7.55783 25.0308 6.82732Q25.4773 6.0968 26.159 5.64354Q26.8407 5.19028 27.8571 5.19028Q28.9536 5.19028 29.7932 5.8152Q30.6328 6.44012 31.1107 7.49565Q31.5886 8.55118 31.5886 9.83902Q31.5886 10.4906 31.1441 10.9251Q30.6996 11.3597 29.9652 11.5818Q29.2308 11.8039 28.3551 11.8039Q27.2824 11.8039 26.5025 12.0045Q25.7227 12.205 25.1596 12.5047Q24.5966 12.8043 24.17 13.0951Q23.7434 13.3859 23.3871 13.569ZM28.5094 9.03122Q28.8074 9.03122 29.0205 8.81813Q29.2336 8.60504 29.2336 8.30704Q29.2336 8.00888 29.0205 7.79579Q28.8074 7.5827 28.5094 7.5827Q28.2114 7.5827 27.9969 7.79579Q27.7824 8.00888 27.7824 8.30704Q27.7824 8.60504 27.9969 8.81813Q28.2114 9.03122 28.5094 9.03122ZM11.8317 10.2184Q13.3051 10.2184 14.5754 9.86732Q15.8458 9.5163 16.9481 8.89114Q18.0504 8.26599 19.0199 7.43973L18.6278 6.96869Q17.2446 8.16589 15.6047 8.87161Q13.9648 9.57733 11.8317 9.57733Q9.69147 9.57733 8.09303 8.87085Q6.4946 8.16437 5.13519 6.96869L4.76685 7.50854Q5.55389 8.21396 6.57692 8.8308Q7.59995 9.44763 8.89977 9.83299Q10.1996 10.2184 11.8317 10.2184ZM6.42349 15.273Q7.03445 14.5288 7.46941 13.8443Q7.90436 13.1598 8.20358 12.4926Q8.50281 11.8254 8.6911 11.1463Q8.87939 10.4672 8.98987 9.73831L8.42468 9.44717Q8.31253 10.1866 8.10532 10.913Q7.8981 11.6394 7.58209 12.3361Q7.26608 13.0328 6.83189 13.6935Q6.39771 14.3542 5.82886 14.9777ZM17.3538 15.2113L18.0339 14.9609Q17.3895 14.2644 16.9398 13.6212Q16.4902 12.9781 16.2016 12.3277Q15.9129 11.6772 15.7471 10.9712Q15.5812 10.2652 15.5043 9.44717L14.8352 9.51096Q14.9164 10.3719 15.0949 11.1183Q15.2734 11.8648 15.5727 12.5439Q15.8719 13.223 16.3131 13.8781Q16.7543 14.5332 17.3538 15.2113ZM2.77969 18.5559Q3.59024 18.5559 4.44435 18.2229Q5.29846 17.8899 6.07719 17.2652Q6.85593 16.6406 7.42188 15.7672L6.78207 15.4402Q6.23871 16.2148 5.55351 16.7595Q4.86832 17.3042 4.14551 17.5922Q3.4227 17.8801 2.76413 17.8801Q2.01401 17.8801 1.61659 17.6848Q1.21918 17.4895 1.21918 17.0042Q1.21918 16.6 1.54785 16.3371Q1.87653 16.0742 2.88589 15.8601Q3.16833 15.8015 3.49998 15.6949Q3.83163 15.5882 4.15916 15.4552Q4.48669 15.3223 4.74899 15.1859Q5.01129 15.0496 5.14801 14.9344L4.91013 14.4727Q4.33167 14.805 3.72032 15.0181Q3.10898 15.2312 2.47299 15.3909Q1.81717 15.5499 1.38397 15.7675Q0.950775 15.9851 0.737076 16.2926Q0.523376 16.6 0.523376 17.0406Q0.523376 17.7422 1.13022 18.149Q1.73706 18.5559 2.77969 18.5559ZM21.1191 18.6526Q22.1617 18.6526 22.7686 18.2458Q23.3754 17.8391 23.3754 17.1472Q23.3754 16.6862 23.1483 16.3657Q22.9211 16.0452 22.4649 15.8298Q22.0087 15.6145 21.3269 15.4652Q20.7031 15.33 20.1223 15.1141Q19.5415 14.8981 18.9886 14.5793L18.7508 15.0383Q18.8847 15.1562 19.147 15.2926Q19.4093 15.4289 19.7334 15.5584Q20.0574 15.6879 20.3939 15.7945Q20.7304 15.9012 21.0129 15.9668Q22.0195 16.1879 22.3496 16.4437Q22.6797 16.6995 22.6797 17.1109Q22.6797 17.596 22.2823 17.79Q21.8848 17.984 21.1348 17.984Q20.4692 17.984 19.7498 17.6974Q19.0305 17.4109 18.3453 16.8661Q17.6602 16.3214 17.1169 15.5469L16.4742 15.8739Q17.0348 16.7418 17.8135 17.3664Q18.5922 17.991 19.449 18.3218Q20.3058 18.6526 21.1191 18.6526Z" fill="#007aff"/>
 </g>
</svg>
