<?xml version="1.0" encoding="UTF-8"?>
<!--Generator: Apple Native CoreSVG 175.5-->
<!DOCTYPE svg
PUBLIC "-//W3C//DTD SVG 1.1//EN"
       "http://www.w3.org/Graphics/SVG/1.1/DTD/svg11.dtd">
<svg version="1.1" xmlns="http://www.w3.org/2000/svg" xmlns:xlink="http://www.w3.org/1999/xlink" width="32.1777" height="19.3652">
 <g>
  <rect height="19.3652" opacity="0" width="32.1777" x="0" y="0"/>
  <path d="M11.7578 9.51172Q13.7793 9.50195 15.4541 8.78906Q17.1289 8.07617 18.457 6.62109Q17.5586 5.47852 16.582 4.73145Q15.6055 3.98438 14.4482 3.61816Q13.291 3.25195 11.8262 3.25195Q10.3711 3.24219 9.21387 3.5791Q8.05664 3.91602 7.06543 4.66797Q6.07422 5.41992 5.12695 6.66016Q6.47461 8.11523 8.17383 8.81348Q9.87305 9.51172 11.7578 9.51172ZM5.41992 15.4395Q6.15234 14.7363 6.7627 13.8184Q7.37305 12.9004 7.76855 11.9287Q8.16406 10.957 8.26172 10.0977Q7.27539 9.73633 6.19629 9.08203Q5.11719 8.42773 4.41406 7.66602Q4.0625 8.19336 3.71094 8.7793Q3.35938 9.36523 3.03711 10.0098Q2.57812 10.918 2.10449 11.5332Q1.63086 12.1484 1.19629 12.5635Q0.761719 12.9785 0.429688 13.291Q0.234375 13.4766 0.117188 13.6963Q0 13.916 0 14.1992Q0 14.6289 0.439453 14.8535Q0.878906 15.0781 1.66992 15.0781L2.8418 15.0781Q3.67188 15.0781 4.27246 15.1758Q4.87305 15.2734 5.41992 15.4395ZM11.7383 17.6855Q12.8516 17.6855 13.7695 17.3633Q14.6875 17.041 15.4492 16.6113Q16.2109 16.1816 16.8652 15.8594Q16.123 15.1562 15.5664 14.2578Q15.0098 13.3594 14.6729 12.3779Q14.3359 11.3965 14.2676 10.4297Q13.0664 10.7617 11.7871 10.7617Q11.1523 10.7715 10.5371 10.6885Q9.92188 10.6055 9.32617 10.4492Q9.24805 11.3477 8.91113 12.3291Q8.57422 13.3105 8.0127 14.2383Q7.45117 15.166 6.69922 15.9082Q7.33398 16.1523 8.07129 16.5771Q8.80859 17.002 9.71191 17.3438Q10.6152 17.6855 11.7383 17.6855ZM18.0078 15.3906Q18.6719 15.2344 19.3164 15.1416Q19.9609 15.0488 20.8203 15.0488Q21.5234 15.0488 22.1533 14.9463Q22.7832 14.8438 23.1152 14.6484Q22.793 14.2285 22.3877 13.5352Q21.9824 12.8418 21.5332 12.0068Q21.084 11.1719 20.6445 10.332Q20.2051 9.49219 19.8096 8.76465Q19.4141 8.03711 19.1113 7.56836Q18.6035 8.08594 17.9395 8.5791Q17.2754 9.07227 16.5967 9.46289Q15.918 9.85352 15.3516 10.0684Q15.4395 10.9473 15.7812 11.8848Q16.123 12.8223 16.6846 13.7256Q17.2461 14.6289 18.0078 15.3906Z" fill="#007aff"/>
  <path d="M2.73438 19.3457Q4.01367 19.3457 5.19531 18.8281Q6.37695 18.3105 6.99219 17.4512Q6.26953 16.9727 5.40039 16.5918Q4.53125 16.2109 3.67188 16.1719Q3.28125 16.2793 2.85645 16.3232Q2.43164 16.3672 1.98242 16.4551Q1.35742 16.5723 0.869141 16.8652Q0.380859 17.1582 0.380859 17.7637Q0.380859 18.5254 1.05957 18.9355Q1.73828 19.3457 2.73438 19.3457ZM20.4102 19.3652Q21.4062 19.3652 22.085 18.96Q22.7637 18.5547 22.7637 17.7832Q22.7637 17.3828 22.5391 17.0508Q22.3145 16.7188 21.9482 16.5137Q21.582 16.3086 21.1621 16.2793Q20.7031 16.2598 20.3174 16.2451Q19.9316 16.2305 19.4727 16.2012Q18.9062 16.2305 18.3301 16.416Q17.7539 16.6016 17.2021 16.8799Q16.6504 17.1582 16.1523 17.4707Q16.5625 18.0469 17.2412 18.4717Q17.9199 18.8965 18.7402 19.1309Q19.5605 19.3652 20.4102 19.3652ZM24.082 14.2188Q24.7754 13.9062 25.2979 13.5742Q25.8203 13.2422 26.4258 13.0176Q27.0312 12.793 27.9688 12.793Q29.2383 12.793 30.1855 12.5049Q31.1328 12.2168 31.6553 11.6846Q32.1777 11.1523 32.1777 10.4297Q32.1777 8.76953 31.626 7.50977Q31.0742 6.25 30.0781 5.54199Q29.082 4.83398 27.7539 4.83398Q26.6016 4.83398 25.7422 5.26855Q24.8828 5.70312 24.3066 6.51367Q23.7305 7.32422 23.457 8.42773Q23.252 9.19922 23.0127 9.67773Q22.7734 10.1562 22.5195 10.4492Q22.2656 10.7422 22.0117 10.957Q22.3633 11.4648 22.9248 12.4023Q23.4863 13.3398 24.082 14.2188ZM27.9883 9.45312Q27.6367 9.45312 27.3926 9.20898Q27.1484 8.96484 27.1484 8.61328Q27.1484 8.27148 27.3926 8.02734Q27.6367 7.7832 27.9883 7.7832Q28.3203 7.7832 28.5693 8.02734Q28.8184 8.27148 28.8184 8.61328Q28.8184 8.96484 28.5693 9.20898Q28.3203 9.45312 27.9883 9.45312Z" fill="#007aff"/>
 </g>
</svg>
