<?xml version="1.0" encoding="UTF-8"?>
<!--Generator: Apple Native CoreSVG 175.5-->
<!DOCTYPE svg
PUBLIC "-//W3C//DTD SVG 1.1//EN"
       "http://www.w3.org/Graphics/SVG/1.1/DTD/svg11.dtd">
<svg version="1.1" xmlns="http://www.w3.org/2000/svg" xmlns:xlink="http://www.w3.org/1999/xlink" width="27.7637" height="17.2168">
 <g>
  <rect height="17.2168" opacity="0" width="27.7637" x="0" y="0"/>
  <path d="M13.8867 17.2168Q16.1914 17.2168 18.2764 16.7871Q20.3613 16.3574 22.0898 15.5713Q23.8184 14.7852 25.0928 13.7109Q26.3672 12.6367 27.0654 11.3428Q27.7637 10.0488 27.7637 8.60352Q27.7637 7.1582 27.0654 5.86914Q26.3672 4.58008 25.0928 3.50586Q23.8184 2.43164 22.085 1.64551Q20.3516 0.859375 18.2715 0.429688Q16.1914 0 13.8867 0Q11.582 0 9.49707 0.429688Q7.41211 0.859375 5.67871 1.64551Q3.94531 2.43164 2.6709 3.50586Q1.39648 4.58008 0.698242 5.86914Q0 7.1582 0 8.60352Q0 10.0488 0.698242 11.3428Q1.39648 12.6367 2.66602 13.7109Q3.93555 14.7852 5.67383 15.5713Q7.41211 16.3574 9.49219 16.7871Q11.5723 17.2168 13.8867 17.2168ZM13.8867 15.6445Q11.3477 15.6445 9.11621 15.0879Q6.88477 14.5312 5.19043 13.5596Q3.49609 12.5879 2.53418 11.3135Q1.57227 10.0391 1.57227 8.60352Q1.57227 7.16797 2.53418 5.89844Q3.49609 4.62891 5.19043 3.65723Q6.88477 2.68555 9.11621 2.12891Q11.3477 1.57227 13.8867 1.57227Q16.416 1.57227 18.6475 2.12891Q20.8789 2.68555 22.5732 3.65723Q24.2676 4.62891 25.2295 5.89844Q26.1914 7.16797 26.1914 8.60352Q26.1914 10.0391 25.2295 11.3135Q24.2676 12.5879 22.5732 13.5596Q20.8789 14.5312 18.6523 15.0879Q16.4258 15.6445 13.8867 15.6445ZM20.4395 8.66211Q19.1895 7.50977 17.4756 6.87988Q15.7617 6.25 13.8867 6.25Q12.002 6.25 10.2881 6.87988Q8.57422 7.50977 7.33398 8.66211L8.4668 9.76562Q9.50195 8.82812 10.9082 8.3252Q12.3145 7.82227 13.8867 7.82227Q15.459 7.82227 16.8652 8.3252Q18.2715 8.82812 19.3066 9.76562ZM6.00586 8.07617Q6.44531 8.92578 7.53906 9.53125Q8.63281 10.1367 10.249 10.459Q11.8652 10.7812 13.8867 10.7812Q15.8984 10.7812 17.5195 10.459Q19.1406 10.1367 20.2344 9.53125Q21.3281 8.92578 21.7676 8.07617Q21.9629 7.67578 21.7969 7.43652Q21.6309 7.19727 21.3428 7.16309Q21.0547 7.12891 20.8691 7.33398Q20.4102 7.87109 19.6582 8.23242Q18.9062 8.59375 17.9541 8.80859Q17.002 9.02344 15.9619 9.11621Q14.9219 9.20898 13.8867 9.20898Q12.8906 9.20898 11.8506 9.11621Q10.8105 9.02344 9.85352 8.81348Q8.89648 8.60352 8.12988 8.24219Q7.36328 7.88086 6.9043 7.33398Q6.71875 7.12891 6.42578 7.16309Q6.13281 7.19727 5.97168 7.43652Q5.81055 7.67578 6.00586 8.07617Z" fill="#007aff"/>
 </g>
</svg>
