<?xml version="1.0" encoding="UTF-8"?>
<!--Generator: Apple Native CoreSVG 175-->
<!DOCTYPE svg
PUBLIC "-//W3C//DTD SVG 1.1//EN"
       "http://www.w3.org/Graphics/SVG/1.1/DTD/svg11.dtd">
<svg version="1.1" xmlns="http://www.w3.org/2000/svg" xmlns:xlink="http://www.w3.org/1999/xlink" width="25.7817" height="14.7668">
 <g>
  <rect height="14.7668" opacity="0" width="25.7817" x="0" y="0"/>
  <path d="M0 12.2989Q0 13.5118 0.630264 14.1393Q1.26053 14.7668 2.47894 14.7668L21.5179 14.7668Q22.8931 14.7668 23.844 14.2215Q24.7949 13.6761 25.2883 12.7936Q25.7817 11.911 25.7817 10.9032Q25.7817 10.0255 25.4452 9.14673Q25.1086 8.26797 24.3332 7.50504L19.8891 3.09723Q18.9841 2.202 18.2024 1.60507Q17.4208 1.00815 16.6489 0.654678Q15.8769 0.301208 15.0109 0.150604Q14.1449 0 13.0711 0L2.47894 0Q1.26053 0 0.630264 0.627518Q0 1.25504 0 2.46796ZM9.85397 7.58286L9.85397 3.46878Q9.85397 2.66052 10.6551 2.66052L13.9426 2.66052Q14.7977 2.66052 15.5092 2.733Q16.2207 2.80548 16.8422 2.98889Q17.4637 3.1723 18.036 3.52188Q18.6082 3.87146 19.175 4.43832L22.0258 7.27936Q22.2441 7.49069 22.2588 7.7446Q22.2734 7.9985 22.121 8.18016Q21.9687 8.36182 21.6859 8.36182L10.6551 8.36182Q10.2649 8.36182 10.0594 8.15979Q9.85397 7.95776 9.85397 7.58286Z" fill="#007aff"/>
 </g>
</svg>
