<?xml version="1.0" encoding="UTF-8"?>
<!--Generator: Apple Native CoreSVG 175-->
<!DOCTYPE svg
PUBLIC "-//W3C//DTD SVG 1.1//EN"
       "http://www.w3.org/Graphics/SVG/1.1/DTD/svg11.dtd">
<svg version="1.1" xmlns="http://www.w3.org/2000/svg" xmlns:xlink="http://www.w3.org/1999/xlink" width="23.2066" height="14.7668">
 <g>
  <rect height="14.7668" opacity="0" width="23.2066" x="0" y="0"/>
  <path d="M0 12.2989Q0 14.7668 2.47894 14.7668L20.7277 14.7668Q23.2066 14.7668 23.2066 12.2989L23.2066 2.46796Q23.2066 0 20.7277 0L4.84222 0Q3.68362 0 3.12149 0.552902Q2.55936 1.1058 2.26288 1.98563L0.317993 7.91687Q0.15625 8.40347 0.078125 8.92281Q0 9.44214 0 10.4051ZM8.78174 7.52182L8.78174 3.52966Q8.78174 2.72858 9.58282 2.72858L18.6821 2.72858Q19.4902 2.72858 19.4902 3.52966L19.4902 7.52182Q19.4902 7.88986 19.2847 8.09532Q19.0793 8.30078 18.6821 8.30078L9.58282 8.30078Q9.1954 8.30078 8.98857 8.09532Q8.78174 7.88986 8.78174 7.52182ZM2.42737 8.30078Q2.05948 8.30078 1.93367 8.0529Q1.80786 7.80502 1.90353 7.49847L3.27652 3.32626Q3.35587 3.07434 3.5553 2.90146Q3.75473 2.72858 4.25125 2.72858L5.82153 2.72858Q6.62964 2.72858 6.62964 3.52966L6.62964 7.52182Q6.62964 7.88986 6.42281 8.09532Q6.21597 8.30078 5.82153 8.30078Z" fill="#ffffff"/>
 </g>
</svg>
