<?xml version="1.0" encoding="UTF-8"?>
<!--Generator: Apple Native CoreSVG 175.5-->
<!DOCTYPE svg
PUBLIC "-//W3C//DTD SVG 1.1//EN"
       "http://www.w3.org/Graphics/SVG/1.1/DTD/svg11.dtd">
<svg version="1.1" xmlns="http://www.w3.org/2000/svg" xmlns:xlink="http://www.w3.org/1999/xlink" width="17.7344" height="24.6191">
 <g>
  <rect height="24.6191" opacity="0" width="17.7344" x="0" y="0"/>
  <path d="M3.60352 20.625L14.1309 20.625Q15.2539 20.625 16.0645 20.1514Q16.875 19.6777 17.3047 18.833Q17.7344 17.9883 17.7344 16.8945L17.7344 10.9277Q17.7344 9.61914 17.6318 8.3252Q17.5293 7.03125 17.3535 5.87891Q17.1777 4.72656 16.9531 3.83789Q16.709 2.80273 16.167 2.02148Q15.625 1.24023 14.8389 0.771484Q14.0527 0.302734 13.0859 0.195312Q12.6074 0.146484 11.4355 0.0732422Q10.2637 0 8.86719 0Q7.31445 0 6.2207 0.0732422Q5.12695 0.146484 4.64844 0.195312Q3.67188 0.302734 2.88574 0.771484Q2.09961 1.24023 1.5625 2.02148Q1.02539 2.80273 0.78125 3.83789Q0.556641 4.72656 0.380859 5.85938Q0.205078 6.99219 0.102539 8.26172Q0 9.53125 0 10.8398L0 16.8945Q0 17.9883 0.429688 18.833Q0.859375 19.6777 1.66504 20.1514Q2.4707 20.625 3.60352 20.625ZM3.80859 19.3457Q2.93945 19.3457 2.37793 19.0332Q1.81641 18.7207 1.54785 18.1641Q1.2793 17.6074 1.2793 16.8945L1.2793 10.8398Q1.2793 9.89258 1.33789 8.95996Q1.39648 8.02734 1.49902 7.16309Q1.60156 6.29883 1.7334 5.52734Q1.86523 4.75586 2.02148 4.12109Q2.20703 3.34961 2.59277 2.7832Q2.97852 2.2168 3.53027 1.87988Q4.08203 1.54297 4.77539 1.47461Q5.27344 1.41602 6.32812 1.34766Q7.38281 1.2793 8.86719 1.2793Q10.1953 1.2793 11.3232 1.34766Q12.4512 1.41602 12.9492 1.47461Q13.6426 1.54297 14.1992 1.87988Q14.7559 2.2168 15.1416 2.7832Q15.5273 3.34961 15.7129 4.12109Q15.8594 4.75586 15.9961 5.53711Q16.1328 6.31836 16.2354 7.20703Q16.3379 8.0957 16.3965 9.03809Q16.4551 9.98047 16.4551 10.9277L16.4551 16.8945Q16.4551 17.6074 16.1865 18.1641Q15.918 18.7207 15.3564 19.0332Q14.7949 19.3457 13.916 19.3457ZM6.36719 3.84766L11.3574 3.84766Q11.6309 3.84766 11.7969 3.68164Q11.9629 3.51562 11.9629 3.24219Q11.9629 2.97852 11.7969 2.81738Q11.6309 2.65625 11.3574 2.65625L6.36719 2.65625Q6.09375 2.65625 5.93262 2.81738Q5.77148 2.97852 5.77148 3.24219Q5.77148 3.51562 5.93262 3.68164Q6.09375 3.84766 6.36719 3.84766ZM8.86719 13.7695Q10.7031 13.7598 12.085 13.6914Q13.4668 13.623 14.2578 13.5254Q14.6973 13.4668 14.8828 13.1982Q15.0684 12.9297 15.0684 12.5195L15.0684 10.2734Q15.0684 9.28711 15.0098 8.44727Q14.9512 7.60742 14.8633 6.98242Q14.7754 6.35742 14.6973 6.01562Q14.6191 5.69336 14.4189 5.47852Q14.2188 5.26367 13.8867 5.22461Q13.3496 5.15625 12.7197 5.1123Q12.0898 5.06836 11.1719 5.03906Q10.2539 5.00977 8.86719 5.00977Q7.4707 5.00977 6.55273 5.03906Q5.63477 5.06836 5 5.1123Q4.36523 5.15625 3.80859 5.22461Q3.49609 5.26367 3.30078 5.47852Q3.10547 5.69336 3.02734 6.01562Q2.94922 6.35742 2.86133 6.98242Q2.77344 7.60742 2.71484 8.44727Q2.65625 9.28711 2.65625 10.2734L2.65625 12.5195Q2.65625 12.9297 2.8418 13.1982Q3.02734 13.4668 3.4668 13.5254Q4.25781 13.623 5.63965 13.6914Q7.02148 13.7598 8.86719 13.7695ZM4.32617 17.8223Q4.90234 17.8223 5.28809 17.4414Q5.67383 17.0605 5.67383 16.4746Q5.67383 15.8984 5.29297 15.5225Q4.91211 15.1465 4.32617 15.1465Q3.75 15.1465 3.37402 15.5225Q2.99805 15.8984 2.99805 16.4746Q2.99805 17.0605 3.37402 17.4414Q3.75 17.8223 4.32617 17.8223ZM13.3887 17.832Q13.9551 17.832 14.3457 17.4414Q14.7363 17.0508 14.7363 16.4746Q14.7363 15.9082 14.3506 15.5225Q13.9648 15.1367 13.3887 15.1367Q12.8125 15.1367 12.4219 15.5225Q12.0312 15.9082 12.0312 16.4746Q12.0312 17.0508 12.4219 17.4414Q12.8125 17.832 13.3887 17.832ZM2.13867 24.5117L2.68555 24.5117Q3.04688 24.5117 3.25195 24.1797L6.02539 19.707L4.16016 19.707L1.69922 23.6621Q1.57227 23.8672 1.59668 24.0625Q1.62109 24.2578 1.7627 24.3848Q1.9043 24.5117 2.13867 24.5117ZM2.99805 23.2812L14.7656 23.2812L14.7656 21.8164L2.99805 21.8164ZM15.0879 24.5117L15.6348 24.5117Q15.8594 24.5117 15.9961 24.3799Q16.1328 24.248 16.1523 24.0576Q16.1719 23.8672 16.0449 23.6621L13.6035 19.707L11.7383 19.707L14.5117 24.1797Q14.7168 24.5117 15.0879 24.5117Z" fill="#007aff"/>
 </g>
</svg>
