<?xml version="1.0" encoding="UTF-8"?>
<!--Generator: Apple Native CoreSVG 175.5-->
<!DOCTYPE svg
PUBLIC "-//W3C//DTD SVG 1.1//EN"
       "http://www.w3.org/Graphics/SVG/1.1/DTD/svg11.dtd">
<svg version="1.1" xmlns="http://www.w3.org/2000/svg" xmlns:xlink="http://www.w3.org/1999/xlink" width="23.623" height="17.3382">
 <g>
  <rect height="17.3382" opacity="0" width="23.623" x="0" y="0"/>
  <path d="M6.48438 15.2755L17.1387 17.1408Q18.0762 17.3068 18.7402 16.9943Q19.4043 16.6818 19.7607 15.9689Q20.1172 15.256 20.1172 14.2111L20.1172 3.00015Q20.1172 1.89663 19.7754 1.18374Q19.4336 0.47085 18.7744 0.182764Q18.1152-0.105322 17.1387 0.0606939L6.48438 1.93569Q5.0293 2.1896 4.26758 2.91226Q3.50586 3.63491 3.50586 4.86538L3.50586 12.3361Q3.50586 13.5568 4.26758 14.2843Q5.0293 15.0119 6.48438 15.2755ZM6.40625 13.8009Q5.71289 13.6837 5.34668 13.3273Q4.98047 12.9709 4.98047 12.3556L4.98047 4.84585Q4.98047 4.23062 5.34668 3.87417Q5.71289 3.51773 6.40625 3.40054L17.2168 1.5353Q17.9102 1.41812 18.2764 1.79409Q18.6426 2.17007 18.6426 2.98062L18.6426 14.2306Q18.6426 15.0021 18.2666 15.3927Q17.8906 15.7834 17.2168 15.6759ZM0.78125 9.33804L22.8418 9.33804Q23.2129 9.33804 23.418 9.13784Q23.623 8.93765 23.623 8.60562Q23.623 8.25405 23.418 8.05874Q23.2129 7.86343 22.8418 7.86343L0.78125 7.86343Q0.419922 7.86343 0.209961 8.05874Q0 8.25405 0 8.60562Q0 8.93765 0.209961 9.13784Q0.419922 9.33804 0.78125 9.33804Z" fill="#007aff"/>
 </g>
</svg>
