<?xml version="1.0" encoding="UTF-8"?>
<!--Generator: Apple Native CoreSVG 175.5-->
<!DOCTYPE svg
PUBLIC "-//W3C//DTD SVG 1.1//EN"
       "http://www.w3.org/Graphics/SVG/1.1/DTD/svg11.dtd">
<svg version="1.1" xmlns="http://www.w3.org/2000/svg" xmlns:xlink="http://www.w3.org/1999/xlink" width="19.9219" height="19.9316">
 <g>
  <rect height="19.9316" opacity="0" width="19.9219" x="0" y="0"/>
  <path d="M9.96094 19.9316Q12.002 19.9316 13.8037 19.1504Q15.6055 18.3691 16.9824 16.9922Q18.3594 15.6152 19.1406 13.8135Q19.9219 12.0117 19.9219 9.9707Q19.9219 7.92969 19.1406 6.12793Q18.3594 4.32617 16.9824 2.94922Q15.6055 1.57227 13.7988 0.791016Q11.9922 0.00976562 9.95117 0.00976562Q7.91016 0.00976562 6.1084 0.791016Q4.30664 1.57227 2.93457 2.94922Q1.5625 4.32617 0.78125 6.12793Q0 7.92969 0 9.9707Q0 12.0117 0.78125 13.8135Q1.5625 15.6152 2.93945 16.9922Q4.31641 18.3691 6.11816 19.1504Q7.91992 19.9316 9.96094 19.9316Z" fill="#ff453a"/>
  <path d="M7.36328 15.9082Q6.85547 15.9082 6.5625 15.6348Q6.26953 15.3613 6.25 14.8438L5.9082 6.88477L5.08789 6.88477Q4.90234 6.88477 4.78027 6.7627Q4.6582 6.64062 4.6582 6.46484Q4.6582 6.2793 4.78027 6.15234Q4.90234 6.02539 5.08789 6.02539L7.50977 6.02539L7.50977 5.21484Q7.50977 4.58984 7.89062 4.21875Q8.27148 3.84766 8.93555 3.84766L10.9668 3.84766Q11.6309 3.84766 12.0215 4.21875Q12.4121 4.58984 12.4121 5.21484L12.4121 6.02539L14.8145 6.02539Q15 6.02539 15.1318 6.15234Q15.2637 6.2793 15.2539 6.46484Q15.2441 6.64062 15.1221 6.7627Q15 6.88477 14.8145 6.88477L14.0234 6.88477L13.6816 14.8438Q13.6719 15.3613 13.3691 15.6348Q13.0664 15.9082 12.5684 15.9082ZM8.23242 14.3457Q8.39844 14.3457 8.49121 14.248Q8.58398 14.1504 8.58398 14.0039L8.38867 8.125Q8.37891 7.77344 8.02734 7.77344Q7.65625 7.77344 7.65625 8.125L7.86133 14.0039Q7.86133 14.3457 8.23242 14.3457ZM9.94141 14.3457Q10.3223 14.3457 10.3223 14.0039L10.3223 8.125Q10.3223 7.77344 9.94141 7.77344Q9.58008 7.77344 9.58008 8.125L9.58008 14.0039Q9.58008 14.3457 9.94141 14.3457ZM11.6602 14.3457Q12.0312 14.3457 12.0312 14.0039L12.2363 8.125Q12.2363 7.77344 11.875 7.77344Q11.5137 7.77344 11.5039 8.125L11.3086 14.0039Q11.3086 14.1504 11.4014 14.248Q11.4941 14.3457 11.6602 14.3457ZM8.53516 6.02539L11.3672 6.02539L11.3672 5.26367Q11.3672 5.06836 11.2402 4.95117Q11.1133 4.83398 10.9082 4.83398L8.98438 4.83398Q8.78906 4.83398 8.66211 4.95117Q8.53516 5.06836 8.53516 5.26367Z" fill="#ffffff"/>
 </g>
</svg>
