<?xml version="1.0" encoding="UTF-8"?>
<!--Generator: Apple Native CoreSVG 175-->
<!DOCTYPE svg
PUBLIC "-//W3C//DTD SVG 1.1//EN"
       "http://www.w3.org/Graphics/SVG/1.1/DTD/svg11.dtd">
<svg version="1.1" xmlns="http://www.w3.org/2000/svg" xmlns:xlink="http://www.w3.org/1999/xlink" width="17.2852" height="17.3145">
 <g>
  <rect height="17.3145" opacity="0" width="17.2852" x="0" y="0"/>
  <path d="M2.62695 17.3145L14.6484 17.3145Q15.957 17.3145 16.6211 16.6455Q17.2852 15.9766 17.2852 14.6875L17.2852 2.65625Q17.2852 1.37695 16.6211 0.703125Q15.957 0.0292969 14.6484 0.0292969L2.62695 0.0292969Q1.33789 0.0292969 0.668945 0.693359Q0 1.35742 0 2.65625L0 14.6875Q0 15.9863 0.668945 16.6504Q1.33789 17.3145 2.62695 17.3145Z" fill="#ff453a"/>
  <path d="M6.2207 14.4141Q5.78125 14.4141 5.4834 14.1357Q5.18555 13.8574 5.16602 13.4277L4.78516 5.86914L6.41602 7.49023L6.75781 12.6465Q6.76758 12.9004 7.01172 12.9004Q7.13867 12.9004 7.19727 12.8271Q7.25586 12.7539 7.25586 12.6367L7.00195 8.07617L8.34961 9.43359L8.34961 12.6367Q8.34961 12.8906 8.62305 12.8906Q8.89648 12.8906 8.89648 12.6367L8.89648 9.99023L10.0781 11.1719L10 12.6367Q9.98047 12.9004 10.2441 12.9004Q10.4688 12.9004 10.498 12.666L10.5664 11.6602L12.1875 13.2715L12.1777 13.5352Q12.1289 13.9062 11.8359 14.1602Q11.543 14.4141 11.1426 14.4141ZM13.0469 13.4375L3.80859 4.18945Q3.7207 4.10156 3.71094 3.98438Q3.70117 3.86719 3.80859 3.76953Q3.88672 3.68164 4.00879 3.68164Q4.13086 3.68164 4.21875 3.76953L13.457 13.0176Q13.5449 13.1055 13.5449 13.2275Q13.5449 13.3496 13.457 13.4375Q13.3691 13.5352 13.252 13.5303Q13.1348 13.5254 13.0469 13.4375ZM12.3145 11.1816L10.6836 9.55078L10.8789 6.61133Q10.8984 6.34766 10.6055 6.34766Q10.3418 6.34766 10.3223 6.5918L10.1758 9.04297L8.89648 7.76367L8.89648 6.60156Q8.89648 6.34766 8.62305 6.34766Q8.4082 6.34766 8.39844 6.5332L8.39844 7.25586L5.64453 4.50195L6.42578 4.50195Q6.42578 4.29688 6.42578 4.0918Q6.42578 3.88672 6.42578 3.68164Q6.42578 3.20312 6.75781 2.88574Q7.08984 2.56836 7.62695 2.56836L9.7168 2.56836Q10.2637 2.56836 10.6006 2.88574Q10.9375 3.20312 10.9375 3.68164L10.9375 4.59961L13.5352 4.59961Q13.6523 4.59961 13.7402 4.68262Q13.8281 4.76562 13.8281 4.87305Q13.8184 4.99023 13.7354 5.06836Q13.6523 5.14648 13.5352 5.14648L12.627 5.14648ZM6.99219 4.59961L10.293 4.59961L10.293 3.7207Q10.293 3.4668 10.1172 3.31543Q9.94141 3.16406 9.6582 3.16406L7.61719 3.16406Q7.33398 3.16406 7.16309 3.31543Q6.99219 3.4668 6.99219 3.7207Z" fill="#ffffff"/>
 </g>
</svg>
