<?xml version="1.0" encoding="UTF-8"?>
<!--Generator: Apple Native CoreSVG 175-->
<!DOCTYPE svg
PUBLIC "-//W3C//DTD SVG 1.1//EN"
       "http://www.w3.org/Graphics/SVG/1.1/DTD/svg11.dtd">
<svg version="1.1" xmlns="http://www.w3.org/2000/svg" xmlns:xlink="http://www.w3.org/1999/xlink" width="22.6617" height="23.0331">
 <g>
  <rect height="23.0331" opacity="0" width="22.6617" x="0" y="0"/>
  <path d="M2.63046 14.0016L20.0243 14.0016Q21.3281 14.0016 21.9949 13.3297Q22.6617 12.6578 22.6617 11.4062L22.6617 6.1351Q22.6617 5.84763 22.6381 5.63667Q22.6144 5.42572 22.5359 5.25368Q22.4574 5.08163 22.2949 4.92462L18.627 1.23825Q18.1699 0.782471 17.7455 0.509796Q17.3212 0.237122 16.8368 0.118561Q16.3524 0 15.7141 0L6.94763 0Q6.30936 0 5.82283 0.118561Q5.3363 0.237122 4.91539 0.509796Q4.49448 0.782471 4.03748 1.23825L0.366821 4.92462Q0.204315 5.08163 0.125809 5.25368Q0.0473022 5.42572 0.0236511 5.63667Q0 5.84763 0 6.1351L0 11.4062Q0 12.6816 0.668182 13.3416Q1.33636 14.0016 2.63046 14.0016ZM11.3309 8.87726Q10.5672 8.87726 9.96796 8.51654Q9.36874 8.15582 9.02016 7.53922Q8.67157 6.92261 8.67157 6.16638L8.67157 6.09924Q8.67157 5.88791 8.55629 5.75272Q8.44101 5.61752 8.21487 5.61752L1.17004 5.61752Q0.968018 5.61752 0.914688 5.5072Q0.861359 5.39688 1.03165 5.2179L4.59183 1.62537Q5.17456 1.0437 5.69038 0.850372Q6.20621 0.657043 6.9278 0.657043L15.7339 0.657043Q16.4583 0.657043 16.9727 0.850372Q17.487 1.0437 18.0629 1.62537L21.6301 5.2179Q21.8059 5.40237 21.7498 5.50995Q21.6937 5.61752 21.4874 5.61752L14.4469 5.61752Q14.2137 5.61752 14.1033 5.75272Q13.9929 5.88791 13.9929 6.09924L13.9929 6.16638Q13.9929 6.92261 13.643 7.53922Q13.293 8.15582 12.6903 8.51654Q12.0876 8.87726 11.3309 8.87726ZM2.65701 13.3043Q1.7067 13.3043 1.21765 12.8152Q0.728607 12.3262 0.728607 11.3676L0.728607 6.29379L7.93945 6.29379Q7.97226 7.26532 8.43361 8.00064Q8.89496 8.73596 9.65141 9.14749Q10.4079 9.55902 11.3309 9.55902Q12.2566 9.55902 13.0131 9.14398Q13.7695 8.72894 14.2295 7.99004Q14.6895 7.25113 14.7153 6.29379L21.9331 6.29379L21.9331 11.3676Q21.9331 12.3262 21.4287 12.8152Q20.9242 13.3043 20.0047 13.3043ZM2.63046 21.6341L20.0243 21.6341Q21.3254 21.6341 21.9936 20.9602Q22.6617 20.2863 22.6617 19.0074L22.6617 13.9453Q22.6617 13.7703 22.5881 13.6302Q22.5145 13.4901 22.3805 13.4077Q22.2466 13.3253 22.066 13.3253L14.4469 13.3253Q14.2137 13.3253 14.1033 13.4605Q13.9929 13.5957 13.9929 13.8071L13.9929 13.8742Q13.9929 14.6304 13.643 15.247Q13.293 15.8636 12.6903 16.2244Q12.0876 16.5851 11.3309 16.5851Q10.5672 16.5851 9.96796 16.2244Q9.36874 15.8636 9.02016 15.247Q8.67157 14.6304 8.67157 13.8742L8.67157 13.8071Q8.67157 13.5957 8.55629 13.4605Q8.44101 13.3253 8.21487 13.3253L0.595703 13.3253Q0.415192 13.3253 0.282593 13.4077Q0.149994 13.4901 0.0749969 13.6302Q0 13.7703 0 13.9453L0 19.0074Q0 20.3032 0.668182 20.9686Q1.33636 21.6341 2.63046 21.6341ZM2.65701 20.9125Q1.7067 20.9125 1.21765 20.4199Q0.728607 19.9274 0.728607 18.9688L0.728607 14.0016L7.93945 14.0016Q7.97226 14.973 8.43361 15.7084Q8.89496 16.4438 9.65141 16.8553Q10.4079 17.2668 11.3309 17.2668Q12.2566 17.2668 13.0131 16.8518Q13.7695 16.4368 14.2295 15.6979Q14.6895 14.959 14.7153 14.0016L21.9331 14.0016L21.9331 18.9688Q21.9331 19.9274 21.4287 20.4199Q20.9242 20.9125 20.0047 20.9125Z" fill="#007aff"/>
 </g>
</svg>
