<?xml version="1.0" encoding="UTF-8"?>
<!--Generator: Apple Native CoreSVG 175-->
<!DOCTYPE svg
PUBLIC "-//W3C//DTD SVG 1.1//EN"
       "http://www.w3.org/Graphics/SVG/1.1/DTD/svg11.dtd">
<svg version="1.1" xmlns="http://www.w3.org/2000/svg" xmlns:xlink="http://www.w3.org/1999/xlink" width="22.6617" height="23.0331">
 <g>
  <rect height="23.0331" opacity="0" width="22.6617" x="0" y="0"/>
  <path d="M2.63046 13.1075L20.0243 13.1075Q21.3281 13.1075 21.9949 12.4418Q22.6617 11.7761 22.6617 10.5121L22.6617 6.1351Q22.6617 5.84763 22.6381 5.63667Q22.6144 5.42572 22.5359 5.25368Q22.4574 5.08163 22.2949 4.92462L18.627 1.23825Q18.1699 0.782471 17.7455 0.509796Q17.3212 0.237122 16.8368 0.118561Q16.3524 0 15.7141 0L6.94763 0Q6.30936 0 5.82283 0.118561Q5.3363 0.237122 4.91539 0.509796Q4.49448 0.782471 4.03748 1.23825L0.366821 4.92462Q0.204315 5.08163 0.125809 5.25368Q0.0473022 5.42572 0.0236511 5.63667Q0 5.84763 0 6.1351L0 10.5121Q0 11.7874 0.668182 12.4474Q1.33636 13.1075 2.63046 13.1075ZM11.3309 8.87726Q10.5672 8.87726 9.96796 8.51654Q9.36874 8.15582 9.02016 7.53922Q8.67157 6.92261 8.67157 6.16638L8.67157 6.09924Q8.67157 5.88791 8.55629 5.75272Q8.44101 5.61752 8.21487 5.61752L1.17004 5.61752Q0.968018 5.61752 0.914688 5.5072Q0.861359 5.39688 1.03165 5.2179L4.59183 1.62537Q5.17456 1.0437 5.69038 0.850372Q6.20621 0.657043 6.9278 0.657043L15.7339 0.657043Q16.4583 0.657043 16.9727 0.850372Q17.487 1.0437 18.0629 1.62537L21.6301 5.2179Q21.8059 5.40237 21.7498 5.50995Q21.6937 5.61752 21.4874 5.61752L14.4469 5.61752Q14.2137 5.61752 14.1033 5.75272Q13.9929 5.88791 13.9929 6.09924L13.9929 6.16638Q13.9929 6.92261 13.643 7.53922Q13.293 8.15582 12.6903 8.51654Q12.0876 8.87726 11.3309 8.87726ZM2.63046 21.6341L20.0243 21.6341Q21.3254 21.6341 21.9936 20.9602Q22.6617 20.2863 22.6617 19.0074L22.6617 14.6121Q22.6617 14.3469 22.4992 14.1695Q22.3367 13.9922 22.066 13.9922L14.4469 13.9922Q14.2137 13.9922 14.1033 14.126Q13.9929 14.2598 13.9929 14.4711L13.9929 14.5383Q13.9929 15.2945 13.643 15.9125Q13.293 16.5305 12.6903 16.8912Q12.0876 17.2519 11.3309 17.2519Q10.5672 17.2519 9.96796 16.8912Q9.36874 16.5305 9.02016 15.9125Q8.67157 15.2945 8.67157 14.5383L8.67157 14.4711Q8.67157 14.2598 8.55629 14.126Q8.44101 13.9922 8.21487 13.9922L0.595703 13.9922Q0.325012 13.9922 0.162506 14.1695Q0 14.3469 0 14.6121L0 19.0074Q0 20.3032 0.668182 20.9686Q1.33636 21.6341 2.63046 21.6341Z" fill="#ffffff"/>
 </g>
</svg>
