<?xml version="1.0" encoding="UTF-8"?>
<!--Generator: Apple Native CoreSVG 175-->
<!DOCTYPE svg
PUBLIC "-//W3C//DTD SVG 1.1//EN"
       "http://www.w3.org/Graphics/SVG/1.1/DTD/svg11.dtd">
<svg version="1.1" xmlns="http://www.w3.org/2000/svg" xmlns:xlink="http://www.w3.org/1999/xlink" width="22.6617" height="23.5529">
 <g>
  <rect height="23.5529" opacity="0" width="22.6617" x="0" y="0"/>
  <path d="M2.63046 21.7368L20.0243 21.7368Q21.3281 21.7368 21.9949 21.0594Q22.6617 20.3821 22.6617 19.1103L22.6617 13.8391Q22.6617 13.4142 22.5846 13.1676Q22.5075 12.9211 22.2949 12.6515L18.2712 7.4469Q17.8583 6.92001 17.5116 6.63834Q17.1649 6.35666 16.7325 6.25023Q16.3 6.1438 15.6277 6.1438L14.3449 6.1438L14.3449 6.80359L15.7449 6.80359Q16.3594 6.80359 16.7676 6.99226Q17.1758 7.18094 17.5438 7.64771L21.6469 12.9367Q21.7894 13.1277 21.7521 13.2348Q21.7148 13.3418 21.5112 13.3418L14.4875 13.3418Q14.2531 13.3418 14.1386 13.4789Q14.0242 13.616 14.0242 13.8329L14.0242 13.9Q14.0242 14.6645 13.6701 15.2872Q13.316 15.9099 12.7072 16.2761Q12.0984 16.6423 11.3309 16.6423Q10.5634 16.6423 9.95453 16.2761Q9.3457 15.9099 8.993 15.2872Q8.64029 14.6645 8.64029 13.9L8.64029 13.8329Q8.64029 13.616 8.52448 13.4789Q8.40866 13.3418 8.17429 13.3418L1.15585 13.3418Q0.94696 13.3418 0.908813 13.2343Q0.870667 13.1267 1.01059 12.9367L5.11246 7.65594Q5.48599 7.18643 5.89554 6.99501Q6.30508 6.80359 6.91681 6.80359L8.34061 6.80359L8.34061 6.1438L7.02698 6.1438Q6.36169 6.1438 5.92575 6.25023Q5.48981 6.35666 5.14313 6.63971Q4.79645 6.92276 4.38782 7.45514L0.366821 12.6515Q0.157013 12.9211 0.0785065 13.1676Q0 13.4142 0 13.8391L0 19.1103Q0 20.3989 0.668182 21.0678Q1.33636 21.7368 2.63046 21.7368ZM11.3309 13.9445Q11.4746 13.9445 11.5824 13.8395Q11.6902 13.7344 11.6902 13.5907L11.6902 2.43637L11.6641 1.07269L12.8203 2.24152L14.7168 4.16092Q14.8305 4.27582 14.9727 4.27582Q15.1067 4.27582 15.2049 4.17892Q15.3032 4.08203 15.3032 3.94379Q15.3032 3.81531 15.1981 3.70743L11.588 0.116119Q11.5257 0.0540161 11.4629 0.0270081Q11.4 0 11.3309 0Q11.2617 0 11.1988 0.0270081Q11.1359 0.0540161 11.0738 0.116119L7.45667 3.70743Q7.35153 3.81531 7.35153 3.94379Q7.35153 4.08203 7.44141 4.17892Q7.53128 4.27582 7.67227 4.27582Q7.82425 4.27582 7.93793 4.16092L9.82742 2.24152L10.9906 1.06293L10.9673 2.43637L10.9673 13.5907Q10.9673 13.7344 11.0737 13.8395Q11.1801 13.9445 11.3309 13.9445Z" fill="#000000"/>
 </g>
</svg>
