<?xml version="1.0" encoding="UTF-8"?>
<!--Generator: Apple Native CoreSVG 175-->
<!DOCTYPE svg
PUBLIC "-//W3C//DTD SVG 1.1//EN"
       "http://www.w3.org/Graphics/SVG/1.1/DTD/svg11.dtd">
<svg version="1.1" xmlns="http://www.w3.org/2000/svg" xmlns:xlink="http://www.w3.org/1999/xlink" width="19.9348" height="18.269">
 <g>
  <rect height="18.269" opacity="0" width="19.9348" x="0" y="0"/>
  <path d="M2.32269 18.1683L17.6262 18.1683Q18.3156 18.1683 18.8332 17.8422Q19.3507 17.516 19.6428 16.983Q19.9348 16.4499 19.9348 15.8386Q19.9348 15.5487 19.8666 15.2562Q19.7984 14.9637 19.6367 14.6793L11.9669 1.16318Q11.6422 0.587769 11.1015 0.293884Q10.5609 0 9.97574 0Q9.39774 0 8.84514 0.293884Q8.29254 0.587769 7.96799 1.16318L0.290985 14.7031Q0 15.2226 0 15.8386Q0 16.4499 0.291977 16.983Q0.583954 17.516 1.10855 17.8422Q1.63315 18.1683 2.32269 18.1683ZM2.33246 17.4367Q1.62781 17.4367 1.19362 16.9537Q0.75943 16.4706 0.75943 15.8386Q0.75943 15.6526 0.799255 15.4485Q0.839081 15.2444 0.942535 15.0276L8.60275 1.51169Q8.82507 1.11603 9.19418 0.924377Q9.56329 0.732727 9.97574 0.732727Q10.3786 0.732727 10.7393 0.920868Q11.1 1.10901 11.3293 1.51169L18.9726 15.0304Q19.1922 15.4164 19.1922 15.8386Q19.1922 16.4706 18.7518 16.9537Q18.3113 17.4367 17.6137 17.4367Z" fill="#007aff"/>
 </g>
</svg>
