<?xml version="1.0" encoding="UTF-8"?>
<!--Generator: Apple Native CoreSVG 175-->
<!DOCTYPE svg
PUBLIC "-//W3C//DTD SVG 1.1//EN"
       "http://www.w3.org/Graphics/SVG/1.1/DTD/svg11.dtd">
<svg version="1.1" xmlns="http://www.w3.org/2000/svg" xmlns:xlink="http://www.w3.org/1999/xlink" width="19.9348" height="18.269">
 <g>
  <rect height="18.269" opacity="0" width="19.9348" x="0" y="0"/>
  <path d="M0 15.8386Q0 16.4499 0.291977 16.983Q0.583954 17.516 1.10504 17.8422Q1.62613 18.1683 2.30865 18.1683L17.6192 18.1683Q18.3015 18.1683 18.8261 17.8422Q19.3507 17.516 19.6428 16.983Q19.9348 16.4499 19.9348 15.8386Q19.9348 15.2226 19.6437 14.7031L11.9669 1.16318Q11.6422 0.587769 11.0931 0.293884Q10.5441 0 9.95895 0Q9.37378 0 8.83316 0.293884Q8.29254 0.587769 7.96799 1.16318L0.305023 14.6793Q0.143433 14.9637 0.0717163 15.2562Q0 15.5487 0 15.8386ZM9.95895 17.4367L9.95895 0.732727Q10.3716 0.732727 10.742 0.924377Q11.1125 1.11603 11.3321 1.51169L18.9922 15.0276Q19.0984 15.2444 19.1404 15.4485Q19.1824 15.6526 19.1824 15.8386Q19.1824 16.4706 18.7447 16.9537Q18.307 17.4367 17.6024 17.4367Z" fill="#000000"/>
 </g>
</svg>
