<?xml version="1.0" encoding="UTF-8"?>
<!--Generator: Apple Native CoreSVG 175-->
<!DOCTYPE svg
PUBLIC "-//W3C//DTD SVG 1.1//EN"
       "http://www.w3.org/Graphics/SVG/1.1/DTD/svg11.dtd">
<svg version="1.1" xmlns="http://www.w3.org/2000/svg" xmlns:xlink="http://www.w3.org/1999/xlink" width="19.8683" height="18.2584">
 <g>
  <rect height="18.2584" opacity="0" width="19.8683" x="0" y="0"/>
  <path d="M2.25632 18.163L17.6262 18.163Q18.2953 18.163 18.8008 17.8456Q19.3063 17.5282 19.5873 17.0108Q19.8683 16.4934 19.8683 15.8997Q19.8683 15.611 19.8008 15.3286Q19.7333 15.0462 19.577 14.7771L11.8773 1.13373Q11.5665 0.57312 11.0379 0.28656Q10.5093 0 9.93912 0Q9.37576 0 8.83888 0.28656Q8.302 0.57312 7.99103 1.13373L0.28717 14.8009Q0 15.3094 0 15.8997Q0 16.4934 0.28595 17.0108Q0.571899 17.5282 1.07948 17.8456Q1.58707 18.163 2.25632 18.163Z" fill="#000000"/>
 </g>
</svg>
