<?xml version="1.0" encoding="UTF-8"?>
<!--Generator: Apple Native CoreSVG 175-->
<!DOCTYPE svg
PUBLIC "-//W3C//DTD SVG 1.1//EN"
       "http://www.w3.org/Graphics/SVG/1.1/DTD/svg11.dtd">
<svg version="1.1" xmlns="http://www.w3.org/2000/svg" xmlns:xlink="http://www.w3.org/1999/xlink" width="19.9316" height="18.2715">
 <g>
  <rect height="18.2715" opacity="0" width="19.9316" x="0" y="0"/>
  <path d="M2.32422 18.1738L17.627 18.1738Q18.3203 18.1738 18.8379 17.8467Q19.3555 17.5195 19.6436 16.9873Q19.9316 16.4551 19.9316 15.8398Q19.9316 15.5469 19.8633 15.2539Q19.7949 14.9609 19.6387 14.6777L11.9629 1.16211Q11.6406 0.585938 11.0986 0.292969Q10.5566 0 9.98047 0Q9.39453 0 8.84277 0.292969Q8.29102 0.585938 7.96875 1.16211L0.292969 14.707Q0 15.2246 0 15.8398Q0 16.4551 0.292969 16.9873Q0.585938 17.5195 1.1084 17.8467Q1.63086 18.1738 2.32422 18.1738ZM2.33398 17.4414Q1.63086 17.4414 1.19629 16.958Q0.761719 16.4746 0.761719 15.8398Q0.761719 15.6543 0.800781 15.4492Q0.839844 15.2441 0.947266 15.0293L8.60352 1.51367Q8.82812 1.11328 9.19434 0.922852Q9.56055 0.732422 9.98047 0.732422Q10.3809 0.732422 10.7422 0.922852Q11.1035 1.11328 11.3281 1.51367L18.9746 15.0293Q19.1895 15.4199 19.1895 15.8398Q19.1895 16.4746 18.75 16.958Q18.3105 17.4414 17.6172 17.4414ZM2.60742 16.5723L17.334 16.5723Q17.6562 16.5723 17.8955 16.3672Q18.1348 16.1621 18.1982 15.8545Q18.2617 15.5469 18.0762 15.2246L10.7129 2.1875Q10.5469 1.89453 10.249 1.80664Q9.95117 1.71875 9.66309 1.81641Q9.375 1.91406 9.20898 2.1875L1.85547 15.1953Q1.61133 15.7129 1.85059 16.1426Q2.08984 16.5723 2.60742 16.5723Z" fill="#000000"/>
 </g>
</svg>
