<?xml version="1.0" encoding="UTF-8"?>
<!--Generator: Apple Native CoreSVG 175-->
<!DOCTYPE svg
PUBLIC "-//W3C//DTD SVG 1.1//EN"
       "http://www.w3.org/Graphics/SVG/1.1/DTD/svg11.dtd">
<svg version="1.1" xmlns="http://www.w3.org/2000/svg" xmlns:xlink="http://www.w3.org/1999/xlink" width="19.9348" height="18.269">
 <g>
  <rect height="18.269" opacity="0" width="19.9348" x="0" y="0"/>
  <path d="M0 15.8386Q0 16.4499 0.291977 16.983Q0.583954 17.516 1.10504 17.8422Q1.62613 18.1683 2.30865 18.1683L17.6192 18.1683Q18.3015 18.1683 18.8261 17.8422Q19.3507 17.516 19.6428 16.983Q19.9348 16.4499 19.9348 15.8386Q19.9348 15.2226 19.6437 14.7031L11.9669 1.16318Q11.6422 0.587769 11.0931 0.293884Q10.5441 0 9.95895 0Q9.37378 0 8.83316 0.293884Q8.29254 0.587769 7.96799 1.16318L0.305023 14.6793Q0.143433 14.9637 0.0717163 15.2562Q0 15.5487 0 15.8386ZM0.745392 15.8386Q0.745392 15.4164 0.962067 15.0304L8.6055 1.51169Q8.83484 1.10901 9.19556 0.920868Q9.55627 0.732727 9.95895 0.732727L9.95895 17.4367L2.32117 17.4367Q1.62354 17.4367 1.18446 16.9537Q0.745392 16.4706 0.745392 15.8386Z" fill="#007aff"/>
 </g>
</svg>
