<?xml version="1.0" encoding="UTF-8"?>
<!--Generator: Apple Native CoreSVG 175.5-->
<!DOCTYPE svg
PUBLIC "-//W3C//DTD SVG 1.1//EN"
       "http://www.w3.org/Graphics/SVG/1.1/DTD/svg11.dtd">
<svg version="1.1" xmlns="http://www.w3.org/2000/svg" xmlns:xlink="http://www.w3.org/1999/xlink" width="12.4414" height="20.3809">
 <g>
  <rect height="20.3809" opacity="0" width="12.4414" x="0" y="0"/>
  <path d="M0 19.6289Q0 19.9316 0.214844 20.1514Q0.429688 20.3711 0.751953 20.3711Q2.94922 20.3711 4.84863 19.6582Q6.74805 18.9453 8.17383 17.6074Q9.59961 16.2695 10.4004 14.3896Q11.2012 12.5098 11.2012 10.1855Q11.2012 9.16016 10.8105 8.25684Q10.4199 7.35352 9.73145 6.66504Q9.04297 5.97656 8.14453 5.58594Q7.24609 5.19531 6.2207 5.19531Q5.46875 5.19531 4.79004 5.42969Q4.11133 5.66406 3.56445 6.08398Q4.0918 5 4.91211 4.14551Q5.73242 3.29102 6.78711 2.69531Q7.8418 2.09961 9.08203 1.78711Q10.3223 1.47461 11.6895 1.47461Q12.0117 1.47461 12.2266 1.25488Q12.4414 1.03516 12.4414 0.732422Q12.4414 0.429688 12.2266 0.214844Q12.0117 0 11.6895 0Q9.49219 0 7.59277 0.712891Q5.69336 1.42578 4.26758 2.76367Q2.8418 4.10156 2.0459 5.98145Q1.25 7.86133 1.25 10.1855Q1.25 11.2109 1.64062 12.1094Q2.03125 13.0078 2.71484 13.6963Q3.39844 14.3848 4.30176 14.7754Q5.20508 15.166 6.2207 15.166Q6.97266 15.166 7.65137 14.9316Q8.33008 14.6973 8.87695 14.2871Q8.34961 15.3711 7.52441 16.2256Q6.69922 17.0801 5.64453 17.6758Q4.58984 18.2715 3.35449 18.584Q2.11914 18.8965 0.751953 18.8965Q0.429688 18.8965 0.214844 19.1113Q0 19.3262 0 19.6289ZM2.73438 10.1855Q2.73438 9.22852 3.20801 8.4375Q3.68164 7.64648 4.47266 7.16797Q5.26367 6.68945 6.2207 6.68945Q7.17773 6.68945 7.96875 7.16797Q8.75977 7.64648 9.23828 8.4375Q9.7168 9.22852 9.7168 10.1855Q9.7168 11.1426 9.23828 11.9336Q8.75977 12.7246 7.96875 13.1982Q7.17773 13.6719 6.2207 13.6719Q5.26367 13.6719 4.47266 13.1982Q3.68164 12.7246 3.20801 11.9336Q2.73438 11.1426 2.73438 10.1855ZM4.80469 10.1855Q4.80469 10.7715 5.21973 11.1865Q5.63477 11.6016 6.2207 11.6016Q6.80664 11.6016 7.22168 11.1816Q7.63672 10.7617 7.63672 10.1855Q7.63672 9.59961 7.22168 9.18457Q6.80664 8.76953 6.2207 8.76953Q5.63477 8.76953 5.21973 9.18457Q4.80469 9.59961 4.80469 10.1855Z" fill="#ffffff"/>
 </g>
</svg>
