<?xml version="1.0" encoding="UTF-8"?>
<!--Generator: Apple Native CoreSVG 175-->
<!DOCTYPE svg
PUBLIC "-//W3C//DTD SVG 1.1//EN"
       "http://www.w3.org/Graphics/SVG/1.1/DTD/svg11.dtd">
<svg version="1.1" xmlns="http://www.w3.org/2000/svg" xmlns:xlink="http://www.w3.org/1999/xlink" width="19.1602" height="19.1504">
 <g>
  <rect height="19.1504" opacity="0" width="19.1602" x="0" y="0"/>
  <path d="M9.57031 19.1406Q11.5527 19.1406 13.2861 18.3984Q15.0195 17.6562 16.3379 16.333Q17.6562 15.0098 18.4082 13.2764Q19.1602 11.543 19.1602 9.57031Q19.1602 7.59766 18.4082 5.86426Q17.6562 4.13086 16.3379 2.80762Q15.0195 1.48438 13.2861 0.742188Q11.5527 0 9.57031 0Q7.59766 0 5.86426 0.742188Q4.13086 1.48438 2.81738 2.80762Q1.50391 4.13086 0.751953 5.86426Q0 7.59766 0 9.57031Q0 11.543 0.74707 13.2764Q1.49414 15.0098 2.8125 16.333Q4.13086 17.6562 5.86914 18.3984Q7.60742 19.1406 9.57031 19.1406Z" fill="#ffffff"/>
  <path d="M9.58008 14.0625Q8.59375 14.0625 7.82715 13.6816Q7.06055 13.3008 6.62109 12.6025Q6.18164 11.9043 6.18164 10.9473L6.18164 5.51758Q6.18164 5.33203 6.28418 5.22949Q6.38672 5.12695 6.5625 5.12695Q6.72852 5.12695 6.83105 5.22949Q6.93359 5.33203 6.93359 5.51758L6.93359 10.9082Q6.93359 12.0312 7.69043 12.7148Q8.44727 13.3984 9.58008 13.3984Q10.7129 13.3984 11.4697 12.7148Q12.2266 12.0312 12.2266 10.9082L12.2266 5.51758Q12.2266 5.33203 12.3291 5.22949Q12.4316 5.12695 12.5977 5.12695Q12.7734 5.12695 12.876 5.22949Q12.9785 5.33203 12.9785 5.51758L12.9785 10.9473Q12.9785 11.9043 12.5391 12.6025Q12.0996 13.3008 11.3281 13.6816Q10.5566 14.0625 9.58008 14.0625Z" fill="#ffffff"/>
 </g>
</svg>
