<?xml version="1.0" encoding="UTF-8"?>
<!--Generator: Apple Native CoreSVG 175-->
<!DOCTYPE svg
PUBLIC "-//W3C//DTD SVG 1.1//EN"
       "http://www.w3.org/Graphics/SVG/1.1/DTD/svg11.dtd">
<svg version="1.1" xmlns="http://www.w3.org/2000/svg" xmlns:xlink="http://www.w3.org/1999/xlink" width="19.1602" height="19.1504">
 <g>
  <rect height="19.1504" opacity="0" width="19.1602" x="0" y="0"/>
  <path d="M9.57031 19.1406Q11.5527 19.1406 13.2861 18.3984Q15.0195 17.6562 16.3379 16.333Q17.6562 15.0098 18.4082 13.2764Q19.1602 11.543 19.1602 9.57031Q19.1602 7.59766 18.4082 5.86426Q17.6562 4.13086 16.3379 2.80762Q15.0195 1.48438 13.2861 0.742188Q11.5527 0 9.57031 0Q7.59766 0 5.86426 0.742188Q4.13086 1.48438 2.81738 2.80762Q1.50391 4.13086 0.751953 5.86426Q0 7.59766 0 9.57031Q0 11.543 0.74707 13.2764Q1.49414 15.0098 2.8125 16.333Q4.13086 17.6562 5.86914 18.3984Q7.60742 19.1406 9.57031 19.1406Z" fill="#ffffff"/>
  <path d="M9.57031 14.0234Q9.32617 14.0234 9.18945 13.9111Q9.05273 13.7988 8.95508 13.5742L5.94727 5.70312Q5.9082 5.57617 5.9082 5.47852Q5.9082 5.32227 6.01074 5.22461Q6.11328 5.12695 6.28906 5.12695Q6.44531 5.12695 6.5332 5.2002Q6.62109 5.27344 6.68945 5.44922L9.54102 13.1055L9.59961 13.1055L12.4414 5.44922Q12.5098 5.27344 12.6025 5.2002Q12.6953 5.12695 12.8418 5.12695Q13.0176 5.12695 13.1201 5.22461Q13.2227 5.32227 13.2227 5.47852Q13.2227 5.52734 13.208 5.58105Q13.1934 5.63477 13.1836 5.70312L10.1758 13.5742Q10.0977 13.7793 9.95605 13.9014Q9.81445 14.0234 9.57031 14.0234Z" fill="#ffffff"/>
 </g>
</svg>
