<?xml version="1.0" encoding="UTF-8"?>
<!--Generator: Apple Native CoreSVG 175.5-->
<!DOCTYPE svg
PUBLIC "-//W3C//DTD SVG 1.1//EN"
       "http://www.w3.org/Graphics/SVG/1.1/DTD/svg11.dtd">
<svg version="1.1" xmlns="http://www.w3.org/2000/svg" xmlns:xlink="http://www.w3.org/1999/xlink" width="17.9785" height="17.998">
 <g>
  <rect height="17.998" opacity="0" width="17.9785" x="0" y="0"/>
  <path d="M3.06641 17.998L14.9121 17.998Q16.4453 17.998 17.2119 17.2412Q17.9785 16.4844 17.9785 14.9707L17.9785 3.04688Q17.9785 1.5332 17.2119 0.776367Q16.4453 0.0195312 14.9121 0.0195312L3.06641 0.0195312Q1.5332 0.0195312 0.766602 0.776367Q0 1.5332 0 3.04688L0 14.9707Q0 16.4844 0.766602 17.2412Q1.5332 17.998 3.06641 17.998ZM3.08594 16.4258Q2.35352 16.4258 1.96289 16.04Q1.57227 15.6543 1.57227 14.8926L1.57227 3.125Q1.57227 2.36328 1.96289 1.97754Q2.35352 1.5918 3.08594 1.5918L14.8926 1.5918Q15.6152 1.5918 16.0107 1.97754Q16.4062 2.36328 16.4062 3.125L16.4062 14.8926Q16.4062 15.6543 16.0107 16.04Q15.6152 16.4258 14.8926 16.4258Z" fill="#007aff"/>
  <path d="M8.99414 13.5645Q9.42383 13.5645 9.69727 13.3398Q9.9707 13.1152 10.1465 12.6367L12.8809 5.49805Q12.959 5.27344 12.959 5.08789Q12.959 4.75586 12.7344 4.55078Q12.5098 4.3457 12.168 4.3457Q11.8457 4.3457 11.6504 4.50684Q11.4551 4.66797 11.3379 5.00977L9.02344 11.6992L8.95508 11.6992L6.64062 5.00977Q6.52344 4.6582 6.32812 4.50195Q6.13281 4.3457 5.81055 4.3457Q5.46875 4.3457 5.24414 4.55566Q5.01953 4.76562 5.01953 5.08789Q5.01953 5.27344 5.09766 5.49805L7.8418 12.6465Q8.02734 13.1445 8.29102 13.3545Q8.55469 13.5645 8.99414 13.5645Z" fill="#007aff"/>
 </g>
</svg>
