<?xml version="1.0" encoding="UTF-8"?>
<!--Generator: Apple Native CoreSVG 175-->
<!DOCTYPE svg
PUBLIC "-//W3C//DTD SVG 1.1//EN"
       "http://www.w3.org/Graphics/SVG/1.1/DTD/svg11.dtd">
<svg version="1.1" xmlns="http://www.w3.org/2000/svg" xmlns:xlink="http://www.w3.org/1999/xlink" width="27.7637" height="22.0605">
 <g>
  <rect height="22.0605" opacity="0" width="27.7637" x="0" y="0"/>
  <path d="M10.0586 18.9062L18.2227 18.9062Q19.8242 18.9062 20.6836 18.0518Q21.543 17.1973 21.543 15.5957L21.543 13.418L25.6641 16.748Q25.9375 16.9531 26.1914 17.085Q26.4453 17.2168 26.7383 17.2168Q27.1973 17.2168 27.4805 16.9043Q27.7637 16.5918 27.7637 16.0449L27.7637 6.00586Q27.7637 5.45898 27.4805 5.14648Q27.1973 4.83398 26.7383 4.83398Q26.4453 4.83398 26.1914 4.96094Q25.9375 5.08789 25.6641 5.30273L21.543 8.62305L21.543 6.44531Q21.543 4.85352 20.6836 3.99902Q19.8242 3.14453 18.2227 3.14453L7.41211 3.14453Q5.83008 3.14453 4.96582 3.99902Q4.10156 4.85352 4.10156 6.44531L4.10156 11.6016Q4.17969 11.582 4.27246 11.5674Q4.36523 11.5527 4.47266 11.5527Q4.56055 11.5527 4.65332 11.5625Q4.74609 11.5723 4.82422 11.5918L4.82422 6.5918Q4.82422 5.20508 5.5127 4.5166Q6.20117 3.82812 7.57812 3.82812L18.0664 3.82812Q19.4434 3.82812 20.1318 4.5166Q20.8203 5.20508 20.8203 6.5918L20.8203 15.4492Q20.8203 16.8359 20.1318 17.5293Q19.4434 18.2227 18.0664 18.2227L10.0586 18.2227ZM21.543 12.5781L21.543 9.47266L26.0742 5.87891Q26.25 5.75195 26.3867 5.66406Q26.5234 5.57617 26.6602 5.57617Q27.0508 5.57617 27.0508 6.10352L27.0508 15.9473Q27.0508 16.4648 26.6602 16.4648Q26.5234 16.4648 26.3867 16.3818Q26.25 16.2988 26.0742 16.1719ZM0.341797 18.8672Q0.488281 18.8672 0.59082 18.7646Q0.693359 18.6621 0.693359 18.5254L0.693359 16.2207Q0.693359 16.0645 0.59082 15.9668Q0.488281 15.8691 0.341797 15.8691Q0.195312 15.8691 0.0976562 15.9668Q0 16.0645 0 16.2207L0 18.5254Q0 18.6621 0.0976562 18.7646Q0.195312 18.8672 0.341797 18.8672ZM2.41211 20.4297Q2.55859 20.4297 2.65137 20.332Q2.74414 20.2344 2.74414 20.0781L2.74414 14.6387Q2.74414 14.502 2.65137 14.3994Q2.55859 14.2969 2.41211 14.2969Q2.26562 14.2969 2.16797 14.3994Q2.07031 14.502 2.07031 14.6387L2.07031 20.0781Q2.07031 20.2344 2.16797 20.332Q2.26562 20.4297 2.41211 20.4297ZM4.47266 22.0605Q4.61914 22.0605 4.7168 21.9629Q4.81445 21.8652 4.81445 21.7285L4.81445 13.0273Q4.81445 12.8809 4.7168 12.7783Q4.61914 12.6758 4.47266 12.6758Q4.33594 12.6758 4.2334 12.7783Q4.13086 12.8809 4.13086 13.0273L4.13086 21.7285Q4.13086 21.8652 4.22852 21.9629Q4.32617 22.0605 4.47266 22.0605ZM6.54297 21.0156Q6.67969 21.0156 6.78223 20.9131Q6.88477 20.8105 6.88477 20.6738L6.88477 14.0625Q6.88477 13.916 6.78223 13.8184Q6.67969 13.7207 6.54297 13.7207Q6.39648 13.7207 6.29883 13.8184Q6.20117 13.916 6.20117 14.0625L6.20117 20.6738Q6.20117 20.8105 6.29883 20.9131Q6.39648 21.0156 6.54297 21.0156ZM8.61328 19.4238Q8.75977 19.4238 8.85742 19.3262Q8.95508 19.2285 8.95508 19.082L8.95508 15.6445Q8.95508 15.5078 8.85742 15.4053Q8.75977 15.3027 8.61328 15.3027Q8.4668 15.3027 8.36914 15.4053Q8.27148 15.5078 8.27148 15.6445L8.27148 19.082Q8.27148 19.2285 8.36914 19.3262Q8.4668 19.4238 8.61328 19.4238Z" fill="#007aff"/>
 </g>
</svg>
