<?xml version="1.0" encoding="UTF-8"?>
<!--Generator: Apple Native CoreSVG 175-->
<!DOCTYPE svg
PUBLIC "-//W3C//DTD SVG 1.1//EN"
       "http://www.w3.org/Graphics/SVG/1.1/DTD/svg11.dtd">
<svg version="1.1" xmlns="http://www.w3.org/2000/svg" xmlns:xlink="http://www.w3.org/1999/xlink" width="27.7441" height="22.0605">
 <g>
  <rect height="22.0605" opacity="0" width="27.7441" x="0" y="0"/>
  <path d="M22.207 13.8965L25.7129 16.7383Q25.9766 16.9434 26.2256 17.0703Q26.4746 17.1973 26.748 17.1973Q27.1973 17.1973 27.4707 16.8945Q27.7441 16.5918 27.7441 16.0645L27.7441 6.00586Q27.7441 5.47852 27.4707 5.18066Q27.1973 4.88281 26.748 4.88281Q26.4746 4.88281 26.2256 5.00488Q25.9766 5.12695 25.7129 5.33203L22.207 8.14453ZM18.1836 3.17383L7.29492 3.17383Q5.78125 3.17383 4.95117 3.98926Q4.12109 4.80469 4.12109 6.33789L4.12109 11.6113Q4.18945 11.582 4.28223 11.5674Q4.375 11.5527 4.47266 11.5527Q5.00977 11.5527 5.40527 11.9141Q5.80078 12.2754 5.84961 12.793Q6.17188 12.5977 6.52344 12.5977Q7.11914 12.5977 7.53418 12.998Q7.94922 13.3984 7.97852 13.9746Q7.98828 14.0723 7.98828 14.1748Q7.98828 14.2773 7.98828 14.375Q8.125 14.2871 8.27148 14.2334Q8.41797 14.1797 8.59375 14.1797Q9.00391 14.1797 9.33594 14.3799Q9.66797 14.5801 9.86328 14.9121Q10.0586 15.2441 10.0586 15.6445L10.0586 18.8965L18.1641 18.8965Q19.6973 18.8965 20.5176 18.0811Q21.3379 17.2656 21.3379 15.7324L21.3379 6.33789Q21.3379 4.80469 20.5273 3.98926Q19.7168 3.17383 18.1836 3.17383ZM0.341797 18.8672Q0.488281 18.8672 0.59082 18.7646Q0.693359 18.6621 0.693359 18.5254L0.693359 16.2207Q0.693359 16.0645 0.59082 15.9668Q0.488281 15.8691 0.341797 15.8691Q0.195312 15.8691 0.0976562 15.9668Q0 16.0645 0 16.2207L0 18.5254Q0 18.6621 0.0976562 18.7646Q0.195312 18.8672 0.341797 18.8672ZM2.41211 20.4297Q2.55859 20.4297 2.65137 20.332Q2.74414 20.2344 2.74414 20.0781L2.74414 14.6387Q2.74414 14.502 2.65137 14.3994Q2.55859 14.2969 2.41211 14.2969Q2.26562 14.2969 2.16797 14.3994Q2.07031 14.502 2.07031 14.6387L2.07031 20.0781Q2.07031 20.2344 2.16797 20.332Q2.26562 20.4297 2.41211 20.4297ZM4.47266 22.0605Q4.61914 22.0605 4.7168 21.9629Q4.81445 21.8652 4.81445 21.7285L4.81445 13.0273Q4.81445 12.8809 4.7168 12.7783Q4.61914 12.6758 4.47266 12.6758Q4.33594 12.6758 4.2334 12.7783Q4.13086 12.8809 4.13086 13.0273L4.13086 21.7285Q4.13086 21.8652 4.22852 21.9629Q4.32617 22.0605 4.47266 22.0605ZM6.54297 21.0156Q6.67969 21.0156 6.78223 20.9131Q6.88477 20.8105 6.88477 20.6738L6.88477 14.0625Q6.88477 13.916 6.78223 13.8184Q6.67969 13.7207 6.54297 13.7207Q6.39648 13.7207 6.29883 13.8184Q6.20117 13.916 6.20117 14.0625L6.20117 20.6738Q6.20117 20.8105 6.29883 20.9131Q6.39648 21.0156 6.54297 21.0156ZM8.61328 19.4238Q8.75977 19.4238 8.85742 19.3262Q8.95508 19.2285 8.95508 19.082L8.95508 15.6445Q8.95508 15.5078 8.85742 15.4053Q8.75977 15.3027 8.61328 15.3027Q8.4668 15.3027 8.36914 15.4053Q8.27148 15.5078 8.27148 15.6445L8.27148 19.082Q8.27148 19.2285 8.36914 19.3262Q8.4668 19.4238 8.61328 19.4238Z" fill="#000000"/>
 </g>
</svg>
