<?xml version="1.0" encoding="UTF-8"?>
<!--Generator: Apple Native CoreSVG 175-->
<!DOCTYPE svg
PUBLIC "-//W3C//DTD SVG 1.1//EN"
       "http://www.w3.org/Graphics/SVG/1.1/DTD/svg11.dtd">
<svg version="1.1" xmlns="http://www.w3.org/2000/svg" xmlns:xlink="http://www.w3.org/1999/xlink" width="17.2852" height="17.3145">
 <g>
  <rect height="17.3145" opacity="0" width="17.2852" x="0" y="0"/>
  <path d="M2.62695 17.3145L14.6484 17.3145Q15.957 17.3145 16.6211 16.6455Q17.2852 15.9766 17.2852 14.6875L17.2852 2.65625Q17.2852 1.37695 16.6211 0.703125Q15.957 0.0292969 14.6484 0.0292969L2.62695 0.0292969Q1.33789 0.0292969 0.668945 0.693359Q0 1.35742 0 2.65625L0 14.6875Q0 15.9863 0.668945 16.6504Q1.33789 17.3145 2.62695 17.3145Z" fill="#000000"/>
  <path d="M6.14258 13.1055Q5.69336 13.1055 5.58594 12.6465L3.58398 4.69727Q3.56445 4.6582 3.56445 4.62402Q3.56445 4.58984 3.56445 4.56055Q3.56445 4.4043 3.66211 4.30664Q3.75977 4.20898 3.93555 4.20898Q4.0918 4.20898 4.17969 4.29199Q4.26758 4.375 4.30664 4.55078L6.13281 12.0215L6.18164 12.0215L8.19336 4.59961Q8.28125 4.26758 8.65234 4.26758Q9.00391 4.26758 9.10156 4.59961L11.1035 12.0215L11.1621 12.0215L12.9883 4.55078Q13.0371 4.375 13.125 4.29199Q13.2129 4.20898 13.3691 4.20898Q13.5352 4.20898 13.6377 4.30664Q13.7402 4.4043 13.7402 4.56055Q13.7402 4.58984 13.7354 4.62402Q13.7305 4.6582 13.7109 4.69727L11.709 12.6465Q11.5918 13.1055 11.1523 13.1055Q10.7031 13.1055 10.5957 12.6562L8.67188 5.42969L8.61328 5.42969L6.69922 12.6562Q6.5918 13.1055 6.14258 13.1055Z" fill="#ffffff"/>
 </g>
</svg>
