<?xml version="1.0" encoding="UTF-8"?>
<!--Generator: Apple Native CoreSVG 175-->
<!DOCTYPE svg
PUBLIC "-//W3C//DTD SVG 1.1//EN"
       "http://www.w3.org/Graphics/SVG/1.1/DTD/svg11.dtd">
<svg version="1.1" xmlns="http://www.w3.org/2000/svg" xmlns:xlink="http://www.w3.org/1999/xlink" width="19.1554" height="19.1583">
 <g>
  <rect height="19.1583" opacity="0" width="19.1554" x="0" y="0"/>
  <path d="M0 9.57428Q0 11.545 0.746078 13.28Q1.49216 15.015 2.81288 16.3356Q4.13361 17.6562 5.86853 18.4024Q7.60345 19.1486 9.57428 19.1486Q11.552 19.1486 13.2834 18.4024Q15.0148 17.6562 16.3355 16.3356Q17.6562 15.015 18.4058 13.28Q19.1554 11.545 19.1554 9.57428Q19.1554 7.60361 18.4058 5.86861Q17.6562 4.13361 16.3355 2.81296Q15.0148 1.49231 13.282 0.746155Q11.5492 0 9.57153 0Q7.60086 0 5.86586 0.746155Q4.13086 1.49231 2.81502 2.81296Q1.49918 4.13361 0.749588 5.86861Q0 7.60361 0 9.57428ZM0.748901 9.57428Q0.748901 8.55286 0.970535 7.59636Q1.19217 6.63986 1.60904 5.77942L17.5493 5.77942Q17.959 6.63986 18.1842 7.59636Q18.4094 8.55286 18.4094 9.57428Q18.4094 11.4012 17.7241 13.0035Q17.0387 14.6059 15.8237 15.8174Q14.6086 17.029 13.0084 17.7157Q11.4082 18.4024 9.57428 18.4024Q7.74734 18.4024 6.14853 17.7157Q4.54971 17.029 3.33466 15.8174Q2.1196 14.6059 1.43425 13.0035Q0.748901 11.4012 0.748901 9.57428ZM1.97861 5.07812Q2.74612 3.78372 3.90549 2.80754Q5.06485 1.83136 6.51192 1.28525Q7.95898 0.739136 9.57153 0.739136Q11.1911 0.739136 12.6381 1.28525Q14.0851 1.83136 15.2459 2.80754Q16.4067 3.78372 17.1672 5.07812Z" fill="#000000"/>
 </g>
</svg>
