<?xml version="1.0" encoding="UTF-8"?>
<!--Generator: Apple Native CoreSVG 175.5-->
<!DOCTYPE svg
PUBLIC "-//W3C//DTD SVG 1.1//EN"
       "http://www.w3.org/Graphics/SVG/1.1/DTD/svg11.dtd">
<svg version="1.1" xmlns="http://www.w3.org/2000/svg" xmlns:xlink="http://www.w3.org/1999/xlink" width="16.4258" height="20.9473">
 <g>
  <rect height="20.9473" opacity="0" width="16.4258" x="0" y="0"/>
  <path d="M3.02734 20.9375L13.3984 20.9375Q14.9121 20.9375 15.6689 20.1709Q16.4258 19.4043 16.4258 17.8809L16.4258 3.06641Q16.4258 1.5332 15.6689 0.766602Q14.9121 0 13.3984 0L10.918 0Q10.6641 0 10.5127 0.161133Q10.3613 0.322266 10.3613 0.585938Q10.3613 0.615234 10.3613 0.654297Q10.3613 0.693359 10.3613 0.722656Q10.3613 1.66992 9.77051 2.21191Q9.17969 2.75391 8.21289 2.75391Q7.24609 2.75391 6.65527 2.21191Q6.06445 1.66992 6.06445 0.722656Q6.06445 0.693359 6.06445 0.654297Q6.06445 0.615234 6.06445 0.585938Q6.06445 0.322266 5.91309 0.161133Q5.76172 0 5.50781 0L3.02734 0Q1.51367 0 0.756836 0.766602Q0 1.5332 0 3.06641L0 17.8809Q0 19.4043 0.756836 20.1709Q1.51367 20.9375 3.02734 20.9375ZM4.51172 7.27539Q4.24805 7.27539 4.07715 7.09961Q3.90625 6.92383 3.90625 6.66016Q3.90625 6.40625 4.07715 6.23535Q4.24805 6.06445 4.51172 6.06445L11.9238 6.06445Q12.1777 6.06445 12.3486 6.23535Q12.5195 6.40625 12.5195 6.66016Q12.5195 6.92383 12.3486 7.09961Q12.1777 7.27539 11.9238 7.27539ZM4.51172 10.7422Q4.24805 10.7422 4.07715 10.5713Q3.90625 10.4004 3.90625 10.1465Q3.90625 9.89258 4.07715 9.7168Q4.24805 9.54102 4.51172 9.54102L8.01758 9.54102Q8.28125 9.54102 8.45215 9.7168Q8.62305 9.89258 8.62305 10.1465Q8.62305 10.4004 8.45215 10.5713Q8.28125 10.7422 8.01758 10.7422Z" fill="#007aff"/>
 </g>
</svg>
