<?xml version="1.0" encoding="UTF-8"?>
<!--Generator: Apple Native CoreSVG 175.5-->
<!DOCTYPE svg
PUBLIC "-//W3C//DTD SVG 1.1//EN"
       "http://www.w3.org/Graphics/SVG/1.1/DTD/svg11.dtd">
<svg version="1.1" xmlns="http://www.w3.org/2000/svg" xmlns:xlink="http://www.w3.org/1999/xlink" width="21.255" height="19.6191">
 <g>
  <rect height="19.6191" opacity="0" width="21.255" x="0" y="0"/>
  <path d="M19.4434 19.2578Q19.7559 19.5703 20.21 19.5703Q20.6641 19.5703 20.957 19.2578Q21.2598 18.9355 21.2549 18.501Q21.25 18.0664 20.957 17.7539L11.6699 8.4375Q11.3672 8.125 10.9131 8.125Q10.459 8.125 10.166 8.4375Q9.86328 8.75977 9.86328 9.19922Q9.86328 9.63867 10.166 9.95117ZM13.7695 12.5488L10.9082 9.67773Q10.7715 9.55078 10.7471 9.40918Q10.7227 9.26758 10.8496 9.14062Q10.957 9.02344 11.1035 9.04785Q11.25 9.07227 11.3867 9.20898L14.2578 12.0801Z" fill="#007aff"/>
  <path d="M7.41211 19.4141Q7.70508 19.4141 7.73438 19.1016Q7.86133 18.125 7.99316 17.5684Q8.125 17.0117 8.41309 16.7285Q8.70117 16.4453 9.26758 16.2988Q9.83398 16.1523 10.8301 15.9961Q11.1719 15.9375 11.1719 15.6641Q11.1719 15.3906 10.8691 15.332Q9.87305 15.1465 9.29688 14.9951Q8.7207 14.8438 8.42285 14.5703Q8.125 14.2969 7.99316 13.75Q7.86133 13.2031 7.73438 12.2266Q7.70508 11.9141 7.41211 11.9141Q7.11914 11.9141 7.08008 12.2168Q6.95312 13.2129 6.81641 13.7744Q6.67969 14.3359 6.3916 14.624Q6.10352 14.9121 5.52734 15.0537Q4.95117 15.1953 3.94531 15.332Q3.81836 15.3516 3.73047 15.4395Q3.64258 15.5273 3.64258 15.6641Q3.64258 15.9375 3.94531 15.9961Q4.95117 16.1816 5.52734 16.3379Q6.10352 16.4941 6.3916 16.7725Q6.67969 17.0508 6.81152 17.5977Q6.94336 18.1445 7.08008 19.1211Q7.08984 19.248 7.18262 19.3311Q7.27539 19.4141 7.41211 19.4141ZM2.77344 10.9082Q2.96875 10.9082 3.00781 10.6836Q3.13477 9.99023 3.24219 9.58496Q3.34961 9.17969 3.55469 8.95996Q3.75977 8.74023 4.16992 8.62305Q4.58008 8.50586 5.32227 8.37891Q5.54688 8.33984 5.54688 8.13477Q5.54688 7.92969 5.32227 7.89062Q4.58008 7.76367 4.16992 7.6416Q3.75977 7.51953 3.55469 7.30469Q3.34961 7.08984 3.24219 6.68457Q3.13477 6.2793 3.00781 5.57617Q2.96875 5.36133 2.77344 5.36133Q2.56836 5.36133 2.5293 5.57617Q2.40234 6.2793 2.29492 6.68457Q2.1875 7.08984 1.98242 7.30469Q1.77734 7.51953 1.36719 7.6416Q0.957031 7.76367 0.224609 7.89062Q0 7.92969 0 8.13477Q0 8.33984 0.224609 8.37891Q0.957031 8.50586 1.36719 8.62305Q1.77734 8.74023 1.98242 8.95996Q2.1875 9.17969 2.29492 9.58496Q2.40234 9.99023 2.5293 10.6836Q2.54883 10.7812 2.60742 10.8447Q2.66602 10.9082 2.77344 10.9082ZM8.125 4.6582Q8.28125 4.6582 8.32031 4.48242Q8.44727 3.89648 8.54004 3.55957Q8.63281 3.22266 8.80371 3.04199Q8.97461 2.86133 9.31641 2.75879Q9.6582 2.65625 10.2637 2.5293Q10.4492 2.5 10.4492 2.33398Q10.4492 2.16797 10.2637 2.12891Q9.6582 2.00195 9.31641 1.89941Q8.97461 1.79688 8.80371 1.61621Q8.63281 1.43555 8.54004 1.10352Q8.44727 0.771484 8.32031 0.185547Q8.28125 0 8.125 0Q7.95898 0 7.91992 0.185547Q7.80273 0.771484 7.70508 1.10352Q7.60742 1.43555 7.43652 1.61621Q7.26562 1.79688 6.92871 1.89941Q6.5918 2.00195 5.97656 2.12891Q5.79102 2.16797 5.79102 2.33398Q5.79102 2.5 5.97656 2.5293Q6.5918 2.65625 6.92871 2.75879Q7.26562 2.86133 7.43652 3.04199Q7.60742 3.22266 7.70508 3.55957Q7.80273 3.89648 7.91992 4.48242Q7.95898 4.6582 8.125 4.6582ZM16.1914 8.10547Q16.3867 8.10547 16.4258 7.89062Q16.5527 7.1875 16.6602 6.78223Q16.7676 6.37695 16.9727 6.16211Q17.1777 5.94727 17.5928 5.8252Q18.0078 5.70312 18.7402 5.57617Q18.9648 5.53711 18.9648 5.33203Q18.9648 5.12695 18.7402 5.08789Q18.0078 4.96094 17.5928 4.84375Q17.1777 4.72656 16.9727 4.50684Q16.7676 4.28711 16.6602 3.88184Q16.5527 3.47656 16.4258 2.7832Q16.3867 2.55859 16.1914 2.55859Q15.9863 2.55859 15.9473 2.7832Q15.8203 3.47656 15.7129 3.88184Q15.6055 4.28711 15.4004 4.50684Q15.1953 4.72656 14.7852 4.84375Q14.375 4.96094 13.6426 5.08789Q13.5449 5.10742 13.4814 5.1709Q13.418 5.23438 13.418 5.33203Q13.418 5.53711 13.6426 5.57617Q14.375 5.70312 14.7852 5.8252Q15.1953 5.94727 15.4004 6.16211Q15.6055 6.37695 15.7129 6.78223Q15.8203 7.1875 15.9473 7.89062Q15.9863 8.10547 16.1914 8.10547Z" fill="#007aff"/>
 </g>
</svg>
