<?xml version="1.0" encoding="UTF-8"?>
<!--Generator: Apple Native CoreSVG 175.5-->
<!DOCTYPE svg
PUBLIC "-//W3C//DTD SVG 1.1//EN"
       "http://www.w3.org/Graphics/SVG/1.1/DTD/svg11.dtd">
<svg version="1.1" xmlns="http://www.w3.org/2000/svg" xmlns:xlink="http://www.w3.org/1999/xlink" width="19.1394" height="20.7324">
 <g>
  <rect height="20.7324" opacity="0" width="19.1394" x="0" y="0"/>
  <path d="M2.26562 20.5078L9.72656 20.5078Q9.6875 20.4297 9.64355 20.3467Q9.59961 20.2637 9.56055 20.166L9.10156 18.9355L2.33398 18.9355Q1.99219 18.9355 1.78223 18.7256Q1.57227 18.5156 1.57227 18.1641L1.57227 2.35352Q1.57227 2.00195 1.78223 1.78711Q1.99219 1.57227 2.33398 1.57227L14.6094 1.57227Q14.9512 1.57227 15.1611 1.78711Q15.3711 2.00195 15.3711 2.35352L15.3711 12.6562Q15.7715 12.5586 16.1816 12.5635Q16.5918 12.5684 16.9434 12.6855L16.9434 2.33398Q16.9434 1.28906 16.3232 0.644531Q15.7031 0 14.6875 0L2.26562 0Q1.25 0 0.625 0.644531Q0 1.28906 0 2.33398L0 18.1836Q0 19.2285 0.625 19.8682Q1.25 20.5078 2.26562 20.5078ZM3.68164 4.19922Q4.04297 4.19922 4.29199 3.94531Q4.54102 3.69141 4.54102 3.33008Q4.54102 2.97852 4.29199 2.72461Q4.04297 2.4707 3.68164 2.4707Q3.33008 2.4707 3.07617 2.72461Q2.82227 2.97852 2.82227 3.33008Q2.82227 3.69141 3.07617 3.94531Q3.33008 4.19922 3.68164 4.19922ZM6.17188 4.19922Q6.5332 4.19922 6.78223 3.94531Q7.03125 3.69141 7.03125 3.33008Q7.03125 2.97852 6.78223 2.72461Q6.5332 2.4707 6.17188 2.4707Q5.82031 2.4707 5.57129 2.72461Q5.32227 2.97852 5.32227 3.33008Q5.32227 3.69141 5.57129 3.94531Q5.82031 4.19922 6.17188 4.19922ZM11.2793 3.82812L13.6133 3.82812Q13.8281 3.82812 13.9648 3.69141Q14.1016 3.55469 14.1016 3.33008Q14.1016 3.11523 13.9648 2.97852Q13.8281 2.8418 13.6133 2.8418L11.2793 2.8418Q11.0645 2.8418 10.9277 2.97852Q10.791 3.11523 10.791 3.33008Q10.791 3.55469 10.9277 3.69141Q11.0645 3.82812 11.2793 3.82812ZM0.859375 6.37695L16.0742 6.37695L16.0742 5.09766L0.859375 5.09766ZM3.35938 12.6562Q3.35938 13.7109 3.75488 14.6387Q4.15039 15.5664 4.85352 16.2695Q5.55664 16.9727 6.48438 17.3682Q7.41211 17.7637 8.47656 17.7637Q8.52539 17.7637 8.56934 17.7637Q8.61328 17.7637 8.66211 17.7637Q8.56445 17.5 8.47656 17.2363Q8.38867 16.9727 8.29102 16.709Q8.28125 16.709 8.25684 16.709Q8.23242 16.709 8.21289 16.709Q7.57812 16.709 6.91406 16.4209Q6.25 16.1328 5.68359 15.5908Q5.11719 15.0488 4.76562 14.3066Q4.41406 13.5645 4.41406 12.6562Q4.41406 11.5332 4.96094 10.6104Q5.50781 9.6875 6.42578 9.14062Q7.34375 8.59375 8.47656 8.59375Q9.58984 8.59375 10.5127 9.14062Q11.4355 9.6875 11.9824 10.6006Q12.5293 11.5137 12.5293 12.6172Q12.5293 12.6562 12.5293 12.6953Q12.5293 12.7344 12.5195 12.7734Q12.8223 12.8418 13.0957 12.9541Q13.3691 13.0664 13.5645 13.1641Q13.5742 13.0371 13.5791 12.9102Q13.584 12.7832 13.584 12.6562Q13.584 11.2402 12.8955 10.083Q12.207 8.92578 11.0449 8.23242Q9.88281 7.53906 8.47656 7.53906Q7.06055 7.53906 5.89844 8.23242Q4.73633 8.92578 4.04785 10.083Q3.35938 11.2402 3.35938 12.6562Z" fill="#007aff"/>
  <path d="M13.8574 15.3516Q14.4141 15.3516 14.7461 15.166Q15.0781 14.9805 15.3711 14.7998Q15.6641 14.6191 16.0938 14.6191Q16.4746 14.6191 16.748 14.7705Q17.0215 14.9219 17.3291 15.0928Q17.6367 15.2637 18.1348 15.3223L18.2031 14.4336Q17.8418 14.3652 17.5391 14.1895Q17.2363 14.0137 16.9043 13.8574Q16.5723 13.7012 16.0938 13.7012Q15.5469 13.7012 15.1904 13.8818Q14.834 14.0625 14.5361 14.248Q14.2383 14.4336 13.8574 14.4336Q13.4668 14.4336 13.1689 14.248Q12.8711 14.0625 12.5195 13.8818Q12.168 13.7012 11.6113 13.7012Q11.1426 13.7012 10.8057 13.8574Q10.4688 14.0137 10.1709 14.1895Q9.87305 14.3652 9.50195 14.4336L9.57031 15.3223Q10.0684 15.2637 10.3809 15.0928Q10.6934 14.9219 10.9619 14.7705Q11.2305 14.6191 11.6113 14.6191Q12.0508 14.6191 12.3389 14.7998Q12.627 14.9805 12.9639 15.166Q13.3008 15.3516 13.8574 15.3516ZM11.7285 20.5273L15.9766 20.5273Q16.3477 20.5273 16.6504 20.3223Q16.9531 20.1172 17.0996 19.7266L19.082 14.3848Q19.1992 14.0625 19.0771 13.8281Q18.9551 13.5938 18.7305 13.5156Q18.5059 13.4277 18.252 13.5205Q17.998 13.6133 17.8809 13.9355L15.9961 18.9844Q15.9473 19.1211 15.8594 19.1846Q15.7715 19.248 15.6543 19.248L12.0508 19.248Q11.9336 19.248 11.8457 19.1846Q11.7578 19.1211 11.709 18.9844L9.82422 13.9355Q9.70703 13.6133 9.45801 13.5205Q9.20898 13.4277 8.98438 13.5156Q8.75977 13.5938 8.6377 13.8281Q8.51562 14.0625 8.63281 14.3848L10.6152 19.7266Q10.752 20.1172 11.0547 20.3223Q11.3574 20.5273 11.7285 20.5273Z" fill="#007aff"/>
 </g>
</svg>
