<?xml version="1.0" encoding="UTF-8"?>
<!--Generator: Apple Native CoreSVG 175.5-->
<!DOCTYPE svg
PUBLIC "-//W3C//DTD SVG 1.1//EN"
       "http://www.w3.org/Graphics/SVG/1.1/DTD/svg11.dtd">
<svg version="1.1" xmlns="http://www.w3.org/2000/svg" xmlns:xlink="http://www.w3.org/1999/xlink" width="20.5273" height="17.9103">
 <g>
  <rect height="17.9103" opacity="0" width="20.5273" x="0" y="0"/>
  <path d="M10.2637 4.51667Q11.0645 4.51667 11.626 4.31648Q12.1875 4.11628 12.6025 3.81843Q13.0176 3.52058 13.3643 3.22761Q13.7109 2.93464 14.0723 2.73444Q14.4336 2.53425 14.9023 2.53425Q15.3711 2.53425 15.7275 2.73444Q16.084 2.93464 16.4258 3.22761Q16.7676 3.52058 17.2021 3.81843Q17.6367 4.11628 18.252 4.31648Q18.8672 4.51667 19.7852 4.51667L19.834 4.51667Q20.1172 4.51667 20.3223 4.31648Q20.5273 4.11628 20.5273 3.82331Q20.5273 3.54011 20.3223 3.33991Q20.1172 3.13972 19.834 3.13972L19.7852 3.13972Q18.9941 3.13972 18.4766 2.85651Q17.959 2.57331 17.4121 2.18269Q16.9336 1.83112 16.3232 1.49421Q15.7129 1.1573 14.9023 1.1573Q14.0625 1.1573 13.4424 1.51374Q12.8223 1.87019 12.3438 2.23151Q11.8359 2.61237 11.377 2.87605Q10.918 3.13972 10.2637 3.13972Q9.60938 3.13972 9.14551 2.87605Q8.68164 2.61237 8.18359 2.23151Q7.70508 1.87019 7.08496 1.51374Q6.46484 1.1573 5.625 1.1573Q4.81445 1.1573 4.2041 1.49421Q3.59375 1.83112 3.11523 2.18269Q2.55859 2.57331 2.04102 2.85651Q1.52344 3.13972 0.742188 3.13972L0.693359 3.13972Q0.400391 3.13972 0.200195 3.33991Q0 3.54011 0 3.82331Q0 4.11628 0.200195 4.31648Q0.400391 4.51667 0.693359 4.51667L0.742188 4.51667Q1.65039 4.51667 2.27051 4.31648Q2.89062 4.11628 3.32031 3.81843Q3.75 3.52058 4.0918 3.22761Q4.43359 2.93464 4.79004 2.73444Q5.14648 2.53425 5.625 2.53425Q6.09375 2.53425 6.45508 2.73444Q6.81641 2.93464 7.16309 3.22761Q7.50977 3.52058 7.9248 3.81843Q8.33984 4.11628 8.90137 4.31648Q9.46289 4.51667 10.2637 4.51667Z" fill="#007aff"/>
  <path d="M5.625 8.628Q6.01562 8.628 6.31836 8.7696Q6.62109 8.9112 6.9043 9.13093Q7.1875 9.35065 7.49023 9.58991Q7.79297 9.82917 8.16406 10.0342L8.16406 9.29206Q8.16406 9.03815 8.16406 8.78425Q8.16406 8.53034 8.16406 8.27644Q8.01758 8.21784 7.89551 8.12507Q7.77344 8.0323 7.63672 7.9444Q7.22656 7.67097 6.7334 7.46101Q6.24023 7.25105 5.625 7.25105Q4.81445 7.25105 4.2041 7.59284Q3.59375 7.93464 3.11523 8.27644Q2.55859 8.66706 2.04102 8.95026Q1.52344 9.23347 0.742188 9.23347L0.693359 9.23347Q0.400391 9.23347 0.200195 9.43366Q0 9.63386 0 9.92683Q0 10.21 0.200195 10.4102Q0.400391 10.6104 0.693359 10.6104L0.742188 10.6104Q1.65039 10.6104 2.27051 10.4102Q2.89062 10.21 3.32031 9.91706Q3.75 9.62409 4.0918 9.32624Q4.43359 9.02839 4.79004 8.82819Q5.14648 8.628 5.625 8.628ZM14.9023 8.628Q15.3711 8.628 15.7275 8.82819Q16.084 9.02839 16.4258 9.32624Q16.7676 9.62409 17.2021 9.91706Q17.6367 10.21 18.252 10.4102Q18.8672 10.6104 19.7852 10.6104L19.834 10.6104Q20.1172 10.6104 20.3223 10.4102Q20.5273 10.21 20.5273 9.92683Q20.5273 9.63386 20.3223 9.43366Q20.1172 9.23347 19.834 9.23347L19.7852 9.23347Q18.9941 9.23347 18.4766 8.95026Q17.959 8.66706 17.4121 8.27644Q16.9336 7.93464 16.3232 7.59284Q15.7129 7.25105 14.9023 7.25105Q14.2773 7.25105 13.7891 7.46101Q13.3008 7.67097 12.8906 7.9444Q12.7539 8.0323 12.627 8.12507Q12.5 8.21784 12.3633 8.27644Q12.3633 8.53034 12.3633 8.78425Q12.3633 9.03815 12.3633 9.29206L12.3633 10.0342Q12.7344 9.82917 13.0371 9.58503Q13.3398 9.34089 13.6182 9.12605Q13.8965 8.9112 14.2041 8.7696Q14.5117 8.628 14.9023 8.628Z" fill="#007aff"/>
  <path d="M7.68555 13.2178Q7.37305 13.2178 7.19238 13.3839Q7.01172 13.5499 6.99707 13.7989Q6.98242 14.0479 7.16797 14.2823L9.67773 17.5733Q9.95117 17.9151 10.2588 17.9102Q10.5664 17.9053 10.8301 17.5733L13.3398 14.2725Q13.5156 14.0479 13.501 13.7989Q13.4863 13.5499 13.3105 13.3839Q13.1348 13.2178 12.8223 13.2178ZM9.48242 14.1749L11.0352 14.1749L11.0352 7.17292Q11.0352 6.87019 10.8008 6.64558Q10.5664 6.42097 10.2539 6.42097Q9.94141 6.42097 9.71191 6.64558Q9.48242 6.87019 9.48242 7.17292Z" fill="#007aff"/>
 </g>
</svg>
