<?xml version="1.0" encoding="UTF-8"?>
<!--Generator: Apple Native CoreSVG 175.5-->
<!DOCTYPE svg
PUBLIC "-//W3C//DTD SVG 1.1//EN"
       "http://www.w3.org/Graphics/SVG/1.1/DTD/svg11.dtd">
<svg version="1.1" xmlns="http://www.w3.org/2000/svg" xmlns:xlink="http://www.w3.org/1999/xlink" width="23.9551" height="22.6855">
 <g>
  <rect height="22.6855" opacity="0" width="23.9551" x="0" y="0"/>
  <path d="M0.703125 13.2324L3.56445 13.2324Q3.75977 13.2324 3.92578 13.1201Q4.0918 13.0078 4.14062 12.793L4.59961 10.7617L4.25781 10.7617L5.80078 17.9102Q5.84961 18.125 6.02051 18.2373Q6.19141 18.3496 6.40137 18.3496Q6.61133 18.3496 6.77246 18.2373Q6.93359 18.125 6.97266 17.9004L8.16406 10.0684L9.56055 22.1484Q9.59961 22.4121 9.77051 22.5488Q9.94141 22.6855 10.1611 22.6855Q10.3809 22.6855 10.5518 22.5488Q10.7227 22.4121 10.7422 22.1484L12.0215 7.74414L13.3105 22.1387Q13.3301 22.4121 13.501 22.5488Q13.6719 22.6855 13.8916 22.6855Q14.1113 22.6855 14.2822 22.5488Q14.4531 22.4121 14.4922 22.1387L15.8887 10.0684L17.0801 17.9102Q17.1191 18.1348 17.2852 18.2422Q17.4512 18.3496 17.6562 18.3496Q17.8613 18.3496 18.0322 18.2422Q18.2031 18.1348 18.252 17.9102L19.7852 10.8105L19.4141 10.8203L19.9121 12.793Q19.9805 13.0371 20.1367 13.1348Q20.293 13.2324 20.4883 13.2324L23.2617 13.2324Q23.5547 13.2324 23.7549 13.0322Q23.9551 12.832 23.9551 12.5488Q23.9551 12.2656 23.7549 12.0605Q23.5547 11.8555 23.2617 11.8555L20.918 11.8555L20.1367 8.82812Q20.0684 8.58398 19.9023 8.46191Q19.7363 8.33984 19.541 8.33984Q19.3457 8.33984 19.1846 8.46191Q19.0234 8.58398 18.9648 8.82812L17.7637 14.5312L16.3867 5.53711Q16.3477 5.27344 16.1719 5.1416Q15.9961 5.00977 15.7861 5.00977Q15.5762 5.00977 15.4053 5.14648Q15.2344 5.2832 15.2051 5.54688L13.9746 16.2207L12.627 0.986328Q12.6074 0.712891 12.4268 0.576172Q12.2461 0.439453 12.0264 0.439453Q11.8066 0.439453 11.626 0.576172Q11.4453 0.712891 11.4258 0.986328L10.0781 16.2207L8.84766 5.54688Q8.81836 5.27344 8.64746 5.13672Q8.47656 5 8.2666 5Q8.05664 5 7.88086 5.13672Q7.70508 5.27344 7.66602 5.53711L6.28906 14.5312L5.08789 8.82812Q5.0293 8.60352 4.86816 8.49121Q4.70703 8.37891 4.51172 8.37891Q4.31641 8.37891 4.14551 8.49121Q3.97461 8.60352 3.91602 8.82812L3.13477 11.8555L0.703125 11.8555Q0.400391 11.8555 0.200195 12.0605Q0 12.2656 0 12.5488Q0 12.832 0.200195 13.0322Q0.400391 13.2324 0.703125 13.2324Z" fill="#007aff"/>
 </g>
</svg>
