<?xml version="1.0" encoding="UTF-8"?>
<!--Generator: Apple Native CoreSVG 175.5-->
<!DOCTYPE svg
PUBLIC "-//W3C//DTD SVG 1.1//EN"
       "http://www.w3.org/Graphics/SVG/1.1/DTD/svg11.dtd">
<svg version="1.1" xmlns="http://www.w3.org/2000/svg" xmlns:xlink="http://www.w3.org/1999/xlink" width="23.0273" height="17.9785">
 <g>
  <rect height="17.9785" opacity="0" width="23.0273" x="0" y="0"/>
  <path d="M0 9.85352L0 8.59375L3.52539 8.59375L5.27344 4.31641Q5.39062 4.0332 5.64453 3.94043Q5.89844 3.84766 6.14258 3.93555Q6.38672 4.02344 6.47461 4.28711L8.74023 11.1621L9.47266 9.12109Q9.56055 8.86719 9.72656 8.73047Q9.89258 8.59375 10.1953 8.59375L12.4902 8.59375L14.248 4.31641Q14.3652 4.0332 14.6191 3.94043Q14.873 3.84766 15.1172 3.93555Q15.3613 4.02344 15.4395 4.28711L17.7148 11.1621L18.4375 9.12109Q18.5352 8.86719 18.7012 8.73047Q18.8672 8.59375 19.1602 8.59375L23.0273 8.59375L23.0273 9.85352L19.5117 9.85352L18.3301 13.5742Q18.2422 13.8477 17.9834 13.9453Q17.7246 14.043 17.4658 13.9551Q17.207 13.8672 17.1191 13.6035L14.8535 6.32812L13.5645 9.32617Q13.457 9.58008 13.3008 9.7168Q13.1445 9.85352 12.8418 9.85352L10.5371 9.85352L9.35547 13.5742Q9.26758 13.8477 9.00879 13.9453Q8.75 14.043 8.49121 13.9551Q8.23242 13.8672 8.1543 13.6035L5.87891 6.32812L4.64844 9.32617Q4.54102 9.58008 4.35547 9.7168Q4.16992 9.85352 3.73047 9.85352ZM3.06641 17.9785L19.9609 17.9785Q21.5039 17.9785 22.2656 17.2217Q23.0273 16.4648 23.0273 14.9609L23.0273 3.02734Q23.0273 1.52344 22.2656 0.761719Q21.5039 0 19.9609 0L3.06641 0Q1.5332 0 0.766602 0.756836Q0 1.51367 0 3.02734L0 14.9609Q0 16.4648 0.766602 17.2217Q1.5332 17.9785 3.06641 17.9785Z" fill="#007aff"/>
 </g>
</svg>
