<?xml version="1.0" encoding="UTF-8"?>
<!--Generator: Apple Native CoreSVG 175.5-->
<!DOCTYPE svg
PUBLIC "-//W3C//DTD SVG 1.1//EN"
       "http://www.w3.org/Graphics/SVG/1.1/DTD/svg11.dtd">
<svg version="1.1" xmlns="http://www.w3.org/2000/svg" xmlns:xlink="http://www.w3.org/1999/xlink" width="15.6934" height="19.6973">
 <g>
  <rect height="19.6973" opacity="0" width="15.6934" x="0" y="0"/>
  <path d="M7.85156 15.7129Q9.47266 15.7129 10.8936 15.1025Q12.3145 14.4922 13.3936 13.4131Q14.4727 12.334 15.083 10.9082Q15.6934 9.48242 15.6934 7.85156Q15.6934 6.23047 15.083 4.80469Q14.4727 3.37891 13.3936 2.2998Q12.3145 1.2207 10.8936 0.610352Q9.47266 0 7.85156 0Q6.23047 0 4.80469 0.610352Q3.37891 1.2207 2.2998 2.2998Q1.2207 3.37891 0.610352 4.80469Q0 6.23047 0 7.85156Q0 9.48242 0.610352 10.9082Q1.2207 12.334 2.2998 13.4131Q3.37891 14.4922 4.80469 15.1025Q6.23047 15.7129 7.85156 15.7129ZM7.07031 18.8965L8.64258 18.8965L8.64258 14.9902L7.07031 14.9902ZM4.43359 19.6777L11.2695 19.6777Q11.5918 19.6777 11.8213 19.4482Q12.0508 19.2188 12.0508 18.8965Q12.0508 18.5742 11.8213 18.3398Q11.5918 18.1055 11.2695 18.1055L4.44336 18.1055Q4.12109 18.1055 3.88672 18.3398Q3.65234 18.5742 3.65234 18.8965Q3.65234 19.2188 3.88184 19.4482Q4.11133 19.6777 4.43359 19.6777Z" fill="#007aff"/>
  <path d="M7.85156 12.5586Q6.54297 12.5586 5.47852 11.9287Q4.41406 11.2988 3.78418 10.2344Q3.1543 9.16992 3.1543 7.85156Q3.1543 6.54297 3.78418 5.47852Q4.41406 4.41406 5.47852 3.78418Q6.54297 3.1543 7.85156 3.1543Q9.16016 3.1543 10.2246 3.78418Q11.2891 4.41406 11.9141 5.47852Q12.5391 6.54297 12.5391 7.85156Q12.5391 9.16992 11.9141 10.2344Q11.2891 11.2988 10.2246 11.9287Q9.16016 12.5586 7.85156 12.5586ZM7.85156 10.0391Q8.76953 10.0391 9.39941 9.4043Q10.0293 8.76953 10.0293 7.85156Q10.0293 6.93359 9.39941 6.29883Q8.76953 5.66406 7.85156 5.66406Q6.93359 5.66406 6.29883 6.29883Q5.66406 6.93359 5.66406 7.85156Q5.66406 8.76953 6.29883 9.4043Q6.93359 10.0391 7.85156 10.0391Z" fill="#ffffff"/>
 </g>
</svg>
