<?xml version="1.0" encoding="UTF-8"?>
<!--Generator: Apple Native CoreSVG 175-->
<!DOCTYPE svg
PUBLIC "-//W3C//DTD SVG 1.1//EN"
       "http://www.w3.org/Graphics/SVG/1.1/DTD/svg11.dtd">
<svg version="1.1" xmlns="http://www.w3.org/2000/svg" xmlns:xlink="http://www.w3.org/1999/xlink" width="21.9787" height="18.3716">
 <g>
  <rect height="18.3716" opacity="0" width="21.9787" x="0" y="0"/>
  <path d="M10.9864 16.7575Q11.2981 16.7575 11.5626 16.5981Q11.8271 16.4388 11.9803 16.1792Q12.1334 15.9196 12.1334 15.6079Q12.1334 15.2892 11.9803 15.0295Q11.8271 14.7699 11.5626 14.6119Q11.2981 14.4539 10.9864 14.4539Q10.6746 14.4539 10.4116 14.607Q10.1485 14.7601 9.99403 15.0246Q9.83953 15.2892 9.83953 15.6079Q9.83953 15.9196 9.99403 16.1792Q10.1485 16.4388 10.4116 16.5981Q10.6746 16.7575 10.9864 16.7575ZM10.9891 13.2036Q11.1661 13.2036 11.2767 13.0922Q11.3872 12.9808 11.39 12.7957Q11.3927 11.5598 11.3955 10.3211Q11.3982 9.08249 11.401 7.84164Q11.4037 6.6008 11.4015 5.36217Q11.3993 4.12354 11.402 2.8862Q11.4048 1.64886 11.4075 0.410156Q11.4075 0.222321 11.2903 0.11116Q11.1731 0 10.9864 0Q10.7998 0 10.6826 0.11116Q10.5654 0.222321 10.5654 0.410156Q10.568 1.64886 10.5672 2.8862Q10.5665 4.12354 10.5692 5.36217Q10.572 6.6008 10.5761 7.84164Q10.5802 9.08249 10.5829 10.3211Q10.5857 11.5598 10.5884 12.7957Q10.5912 12.9808 10.6968 13.0922Q10.8025 13.2036 10.9891 13.2036ZM9.26763 1.38321Q7.41018 1.60583 5.6809 2.23831Q3.95162 2.87079 2.50982 3.83484Q1.06802 4.79889 0.0899281 6.00861Q-0.00772819 6.11877 0.000664142 6.24908Q0.00905648 6.37939 0.105187 6.48788L1.28408 7.67227Q1.40249 7.79068 1.54585 7.78931Q1.6892 7.78793 1.80486 7.66251Q3.30404 6.0965 5.20635 5.13855Q7.10867 4.1806 9.2716 3.91602ZM12.6883 1.38596L12.6803 3.91174Q14.8643 4.17084 16.7792 5.121Q18.6942 6.07117 20.1735 7.66525Q20.2892 7.78793 20.4298 7.78656Q20.5704 7.78519 20.6888 7.66678L21.8677 6.48788Q21.9736 6.37939 21.9785 6.24908Q21.9834 6.11877 21.883 6.00861Q20.895 4.80865 19.4524 3.84323Q18.0098 2.87781 16.2771 2.24052Q14.5443 1.60324 12.6883 1.38596ZM12.6775 7.13211L12.6693 9.74106Q13.6696 9.99191 14.5648 10.5134Q15.46 11.0349 16.1095 11.7305Q16.2392 11.8629 16.3749 11.8651Q16.5107 11.8672 16.6318 11.756L17.981 10.4164Q18.0771 10.3177 18.0869 10.1944Q18.0967 10.0711 18.0033 9.96796Q17.1575 8.90869 15.7438 8.15613Q14.3302 7.40356 12.6775 7.13211ZM9.27984 7.13211Q7.63403 7.41333 6.23228 8.16177Q4.83053 8.91022 3.97237 9.96796Q3.87899 10.0711 3.88738 10.1944Q3.89578 10.3177 3.99465 10.4164L5.34658 11.7613Q5.46774 11.8727 5.60758 11.8651Q5.74743 11.8575 5.8727 11.7195Q6.5267 11.0239 7.41338 10.5087Q8.30007 9.99344 9.28793 9.74258Z" fill="#000000"/>
 </g>
</svg>
