<?xml version="1.0" encoding="UTF-8"?>
<!--Generator: Apple Native CoreSVG 175.5-->
<!DOCTYPE svg
PUBLIC "-//W3C//DTD SVG 1.1//EN"
       "http://www.w3.org/Graphics/SVG/1.1/DTD/svg11.dtd">
<svg version="1.1" xmlns="http://www.w3.org/2000/svg" xmlns:xlink="http://www.w3.org/1999/xlink" width="22.3238" height="19.3457">
 <g>
  <rect height="19.3457" opacity="0" width="22.3238" x="0" y="0"/>
  <path d="M0.3456 10.5273Q-0.0547903 11.2207 0.00868627 11.8701Q0.0721628 12.5195 0.521382 12.9736Q0.9706 13.4277 1.73232 13.5352L2.02529 13.5449L1.05849 17.0312Q0.863178 17.7246 1.01943 18.2471Q1.17568 18.7695 1.62978 19.0576Q2.08388 19.3457 2.79677 19.3457L16.0292 19.3457Q16.703 19.3457 17.1718 18.9746Q17.6405 18.6035 17.8261 17.9492L22.1913 2.77344Q22.4159 1.99219 22.2597 1.36719Q22.1034 0.742188 21.6005 0.380859Q21.0976 0.0195312 20.2772 0.0195312L7.70888 0.0195312Q7.06435 0.0195312 6.68349 0.185547Q6.30263 0.351562 6.03896 0.688477Q5.77529 1.02539 5.48232 1.5332ZM1.85927 10.9473L3.86123 7.4707L10.0038 7.4707L7.42568 11.9922L2.45498 11.9922Q1.91787 11.9922 1.75673 11.7041Q1.5956 11.416 1.85927 10.9473ZM4.74013 5.94727L6.96669 2.06055Q7.12294 1.79688 7.28896 1.69434Q7.45498 1.5918 7.73818 1.5918L13.3729 1.5918L10.8925 5.94727ZM9.21279 11.9922L11.7909 7.4707L17.7479 7.4707L15.4237 11.5332Q15.2772 11.7969 15.1063 11.8945Q14.9354 11.9922 14.6425 11.9922ZM12.6698 5.94727L15.1405 1.5918L19.9354 1.5918Q20.4628 1.5918 20.6239 1.88965Q20.7851 2.1875 20.5214 2.64648L18.6366 5.94727ZM2.62099 17.168L3.62685 13.5645L14.6718 13.5645Q15.3261 13.5645 15.7069 13.3984Q16.0878 13.2324 16.3466 12.9004Q16.6054 12.5684 16.8983 12.0605L18.9882 8.36914L16.4394 17.1484Q16.2538 17.7637 15.6776 17.7637L3.09951 17.7637Q2.79677 17.7637 2.66982 17.6123Q2.54287 17.4609 2.62099 17.168ZM15.58 18.7891L16.9862 18.0762L14.6815 12.5781L13.2558 13.2422Z" fill="#007aff"/>
 </g>
</svg>
