<?xml version="1.0" encoding="UTF-8"?>
<!--Generator: Apple Native CoreSVG 175.5-->
<!DOCTYPE svg
PUBLIC "-//W3C//DTD SVG 1.1//EN"
       "http://www.w3.org/Graphics/SVG/1.1/DTD/svg11.dtd">
<svg version="1.1" xmlns="http://www.w3.org/2000/svg" xmlns:xlink="http://www.w3.org/1999/xlink" width="16.709" height="20.7324">
 <g>
  <rect height="20.7324" opacity="0" width="16.709" x="0" y="0"/>
  <path d="M0 18.7305Q0 19.6191 0.561523 20.1709Q1.12305 20.7227 2.04102 20.7227L14.668 20.7227Q15.5859 20.7227 16.1475 20.1709Q16.709 19.6191 16.709 18.7305L16.709 1.99219Q16.709 1.09375 16.1475 0.546875Q15.5859 0 14.668 0L2.04102 0Q1.12305 0 0.561523 0.546875Q0 1.09375 0 1.99219ZM1.57227 18.6328L1.57227 2.08984Q1.57227 1.57227 2.07031 1.57227L14.6387 1.57227Q15.1367 1.57227 15.1367 2.08984L15.1367 18.6328Q15.1367 19.1504 14.6387 19.1504L2.07031 19.1504Q1.57227 19.1504 1.57227 18.6328Z" fill="#007aff"/>
  <path d="M3.04688 6.04492L13.6719 6.04492Q14.0039 6.04492 14.0039 5.72266L14.0039 3.03711Q14.0039 2.70508 13.6719 2.70508L3.04688 2.70508Q2.71484 2.70508 2.71484 3.03711L2.71484 5.72266Q2.71484 6.04492 3.04688 6.04492ZM6.875 4.84375Q6.66016 4.84375 6.52832 4.7168Q6.39648 4.58984 6.39648 4.375Q6.39648 4.16992 6.52832 4.03809Q6.66016 3.90625 6.875 3.90625L9.84375 3.90625Q10.0488 3.90625 10.1807 4.03809Q10.3125 4.16992 10.3125 4.375Q10.3125 4.58984 10.1807 4.7168Q10.0488 4.84375 9.84375 4.84375Z" fill="#007aff"/>
 </g>
</svg>
