<?xml version="1.0" encoding="UTF-8"?>
<!--Generator: Apple Native CoreSVG 175.5-->
<!DOCTYPE svg
PUBLIC "-//W3C//DTD SVG 1.1//EN"
       "http://www.w3.org/Graphics/SVG/1.1/DTD/svg11.dtd">
<svg version="1.1" xmlns="http://www.w3.org/2000/svg" xmlns:xlink="http://www.w3.org/1999/xlink" width="19.9219" height="19.9316">
 <g>
  <rect height="19.9316" opacity="0" width="19.9219" x="0" y="0"/>
  <path d="M9.96094 19.9219Q12.002 19.9219 13.8037 19.1406Q15.6055 18.3594 16.9824 16.9824Q18.3594 15.6055 19.1406 13.8037Q19.9219 12.002 19.9219 9.96094Q19.9219 7.91992 19.1406 6.11816Q18.3594 4.31641 16.9824 2.93945Q15.6055 1.5625 13.7988 0.78125Q11.9922 0 9.95117 0Q7.91016 0 6.1084 0.78125Q4.30664 1.5625 2.93457 2.93945Q1.5625 4.31641 0.78125 6.11816Q0 7.91992 0 9.96094Q0 12.002 0.78125 13.8037Q1.5625 15.6055 2.93945 16.9824Q4.31641 18.3594 6.11816 19.1406Q7.91992 19.9219 9.96094 19.9219Z" fill="#007aff"/>
  <path d="M5.625 9.76562Q5.625 9.55078 5.7666 9.40918Q5.9082 9.26758 6.12305 9.26758L6.57227 9.26758L6.08398 6.12305Q6.06445 6.04492 6.0498 5.97168Q6.03516 5.89844 6.03516 5.81055Q6.03516 5.53711 6.2207 5.38086Q6.40625 5.22461 6.68945 5.22461Q6.92383 5.22461 7.10938 5.36133Q7.29492 5.49805 7.32422 5.76172L7.76367 9.26758L8.61328 9.26758L9.18945 5.88867Q9.23828 5.56641 9.44824 5.39551Q9.6582 5.22461 9.94141 5.22461Q10.2246 5.22461 10.4443 5.39551Q10.6641 5.56641 10.7129 5.87891L11.2793 9.25781L12.168 9.25781L12.6172 5.75195Q12.6465 5.48828 12.832 5.35156Q13.0176 5.21484 13.252 5.21484Q13.5254 5.21484 13.7012 5.36621Q13.877 5.51758 13.877 5.78125Q13.877 5.86914 13.8672 5.93262Q13.8574 5.99609 13.8477 6.07422L13.3496 9.25781L13.7793 9.25781Q14.0039 9.25781 14.1406 9.39941Q14.2773 9.54102 14.2773 9.75586Q14.2773 9.96094 14.1406 10.1123Q14.0039 10.2637 13.7793 10.2637L13.1836 10.2637L12.5488 14.3359Q12.5 14.6387 12.2998 14.7998Q12.0996 14.9609 11.8262 14.9609Q11.5527 14.9609 11.3525 14.8047Q11.1523 14.6484 11.1035 14.3457L10.4004 10.2637L9.50195 10.2637L8.82812 14.3457Q8.7793 14.6582 8.5791 14.8096Q8.37891 14.9609 8.10547 14.9609Q7.83203 14.9609 7.63184 14.7998Q7.43164 14.6387 7.38281 14.3359L6.73828 10.2734L6.12305 10.2734Q5.9082 10.2734 5.7666 10.1221Q5.625 9.9707 5.625 9.76562ZM7.89062 10.2539L8.13477 12.6172L8.47656 10.2539ZM9.67773 9.26758L10.2539 9.26758L9.96094 7.29492ZM11.4355 10.2539L11.7969 12.6758L12.0605 10.2539Z" fill="#ffffff"/>
 </g>
</svg>
