<?xml version="1.0" encoding="UTF-8"?>
<!--Generator: Apple Native CoreSVG 175-->
<!DOCTYPE svg
PUBLIC "-//W3C//DTD SVG 1.1//EN"
       "http://www.w3.org/Graphics/SVG/1.1/DTD/svg11.dtd">
<svg version="1.1" xmlns="http://www.w3.org/2000/svg" xmlns:xlink="http://www.w3.org/1999/xlink" width="17.2852" height="17.3145">
 <g>
  <rect height="17.3145" opacity="0" width="17.2852" x="0" y="0"/>
  <path d="M2.62695 17.3145L14.6484 17.3145Q15.957 17.3145 16.6211 16.6455Q17.2852 15.9766 17.2852 14.6875L17.2852 2.65625Q17.2852 1.37695 16.6211 0.703125Q15.957 0.0292969 14.6484 0.0292969L2.62695 0.0292969Q1.33789 0.0292969 0.668945 0.693359Q0 1.35742 0 2.65625L0 14.6875Q0 15.9863 0.668945 16.6504Q1.33789 17.3145 2.62695 17.3145ZM2.65625 16.5918Q1.70898 16.5918 1.2207 16.1035Q0.732422 15.6152 0.732422 14.6582L0.732422 2.69531Q0.732422 1.72852 1.2207 1.24512Q1.70898 0.761719 2.65625 0.761719L14.6289 0.761719Q15.5566 0.761719 16.0596 1.24512Q16.5625 1.72852 16.5625 2.69531L16.5625 14.6582Q16.5625 15.6152 16.0596 16.1035Q15.5566 16.5918 14.6289 16.5918ZM5.05859 8.59375Q5.05859 8.71094 5.1416 8.80371Q5.22461 8.89648 5.37109 8.89648L5.86914 8.89648L6.46484 12.793Q6.48438 12.9297 6.57715 13.0127Q6.66992 13.0957 6.80664 13.0957Q6.94336 13.0957 7.03125 13.0225Q7.11914 12.9492 7.14844 12.8223L8.00781 8.88672L9.29688 8.88672L10.1562 12.8125Q10.1855 12.9395 10.2734 13.0176Q10.3613 13.0957 10.5078 13.0957Q10.625 13.0957 10.7275 13.0225Q10.8301 12.9492 10.8496 12.8027L11.4453 8.88672L11.9434 8.88672Q12.0801 8.88672 12.1631 8.80371Q12.2461 8.7207 12.2461 8.59375Q12.2461 8.4668 12.1631 8.37891Q12.0801 8.29102 11.9434 8.29102L11.5332 8.29102L12.041 4.93164Q12.0508 4.87305 12.0508 4.84375Q12.0508 4.81445 12.0508 4.78516Q12.0508 4.64844 11.9629 4.56543Q11.875 4.48242 11.7383 4.48242Q11.6113 4.48242 11.5137 4.55566Q11.416 4.62891 11.3965 4.79492L10.8984 8.29102L9.78516 8.29102L9.01367 4.78516Q8.98438 4.64844 8.88672 4.5752Q8.78906 4.50195 8.65234 4.50195Q8.52539 4.50195 8.42773 4.5752Q8.33008 4.64844 8.30078 4.79492L7.5293 8.30078L6.41602 8.30078L5.91797 4.78516Q5.89844 4.64844 5.80566 4.56543Q5.71289 4.48242 5.57617 4.48242Q5.42969 4.48242 5.33691 4.56543Q5.24414 4.64844 5.24414 4.78516Q5.24414 4.82422 5.25879 4.87793Q5.27344 4.93164 5.2832 4.99023L5.79102 8.30078L5.37109 8.30078Q5.22461 8.30078 5.1416 8.38379Q5.05859 8.4668 5.05859 8.59375ZM6.49414 8.88672L7.41211 8.88672L6.8457 11.4648ZM8.14453 8.30078L8.64258 5.9375L9.16016 8.30078ZM9.90234 8.88672L10.8203 8.88672L10.4688 11.4746Z" fill="#000000"/>
 </g>
</svg>
