<?xml version="1.0" encoding="UTF-8"?>
<!--Generator: Apple Native CoreSVG 175.5-->
<!DOCTYPE svg
PUBLIC "-//W3C//DTD SVG 1.1//EN"
       "http://www.w3.org/Graphics/SVG/1.1/DTD/svg11.dtd">
<svg version="1.1" xmlns="http://www.w3.org/2000/svg" xmlns:xlink="http://www.w3.org/1999/xlink" width="19.9219" height="19.9316">
 <g>
  <rect height="19.9316" opacity="0" width="19.9219" x="0" y="0"/>
  <path d="M9.96094 19.9219Q12.002 19.9219 13.8037 19.1406Q15.6055 18.3594 16.9824 16.9824Q18.3594 15.6055 19.1406 13.8037Q19.9219 12.002 19.9219 9.96094Q19.9219 7.91992 19.1406 6.11816Q18.3594 4.31641 16.9824 2.93945Q15.6055 1.5625 13.7988 0.78125Q11.9922 0 9.95117 0Q7.91016 0 6.1084 0.78125Q4.30664 1.5625 2.93457 2.93945Q1.5625 4.31641 0.78125 6.11816Q0 7.91992 0 9.96094Q0 12.002 0.78125 13.8037Q1.5625 15.6055 2.93945 16.9824Q4.31641 18.3594 6.11816 19.1406Q7.91992 19.9219 9.96094 19.9219ZM9.96094 18.2617Q8.23242 18.2617 6.72852 17.6172Q5.22461 16.9727 4.08691 15.835Q2.94922 14.6973 2.30957 13.1934Q1.66992 11.6895 1.66992 9.96094Q1.66992 8.23242 2.30957 6.72852Q2.94922 5.22461 4.08203 4.08203Q5.21484 2.93945 6.71875 2.2998Q8.22266 1.66016 9.95117 1.66016Q11.6797 1.66016 13.1885 2.2998Q14.6973 2.93945 15.835 4.08203Q16.9727 5.22461 17.6172 6.72852Q18.2617 8.23242 18.2617 9.96094Q18.2617 11.6895 17.6221 13.1934Q16.9824 14.6973 15.8398 15.835Q14.6973 16.9727 13.1934 17.6172Q11.6895 18.2617 9.96094 18.2617Z" fill="#007aff"/>
  <path d="M5.75195 9.77539Q5.75195 9.98047 5.88867 10.1221Q6.02539 10.2637 6.23047 10.2637L6.82617 10.2637L7.45117 14.209Q7.5 14.4922 7.69531 14.6484Q7.89062 14.8047 8.1543 14.8047Q8.41797 14.8047 8.6084 14.6582Q8.79883 14.5117 8.84766 14.2188L9.50195 10.2539L10.3809 10.2539L11.0645 14.2188Q11.1133 14.5117 11.3037 14.6582Q11.4941 14.8047 11.7578 14.8047Q12.0215 14.8047 12.2168 14.6533Q12.4121 14.502 12.4609 14.209L13.0762 10.2539L13.6523 10.2539Q13.8672 10.2539 13.999 10.1123Q14.1309 9.9707 14.1309 9.76562Q14.1309 9.56055 13.999 9.42383Q13.8672 9.28711 13.6523 9.28711L13.2324 9.28711L13.7109 6.20117Q13.7207 6.12305 13.7305 6.05957Q13.7402 5.99609 13.7402 5.91797Q13.7402 5.66406 13.5693 5.51758Q13.3984 5.37109 13.1445 5.37109Q12.9199 5.37109 12.7393 5.49805Q12.5586 5.625 12.5293 5.88867L12.0898 9.28711L11.2305 9.28711L10.6738 6.00586Q10.625 5.70312 10.415 5.54199Q10.2051 5.38086 9.93164 5.38086Q9.6582 5.38086 9.45801 5.54199Q9.25781 5.70312 9.20898 6.01562L8.64258 9.29688L7.82227 9.29688L7.39258 5.89844Q7.36328 5.64453 7.1875 5.5127Q7.01172 5.38086 6.77734 5.38086Q6.50391 5.38086 6.32812 5.53223Q6.15234 5.68359 6.15234 5.9375Q6.15234 6.02539 6.16699 6.09863Q6.18164 6.17188 6.19141 6.24023L6.66992 9.29688L6.23047 9.29688Q6.02539 9.29688 5.88867 9.43359Q5.75195 9.57031 5.75195 9.77539ZM7.93945 10.2441L8.51562 10.2441L8.18359 12.5391ZM9.67773 9.29688L9.95117 7.38281L10.2344 9.29688ZM11.377 10.2441L11.9922 10.2441L11.7285 12.5977Z" fill="#007aff"/>
 </g>
</svg>
