<?xml version="1.0" encoding="UTF-8"?>
<!--Generator: Apple Native CoreSVG 175-->
<!DOCTYPE svg
PUBLIC "-//W3C//DTD SVG 1.1//EN"
       "http://www.w3.org/Graphics/SVG/1.1/DTD/svg11.dtd">
<svg version="1.1" xmlns="http://www.w3.org/2000/svg" xmlns:xlink="http://www.w3.org/1999/xlink" width="22.0655" height="22.7044">
 <g>
  <rect height="22.7044" opacity="0" width="22.0655" x="0" y="0"/>
  <path d="M7.16819 13.2746L7.64869 12.7926L1.21619 6.35904Q0.681832 5.81492 0.706475 5.14498Q0.731118 4.47504 1.31477 3.87461L2.62138 2.55121Q3.20213 1.96055 3.8832 1.93735Q4.56428 1.91416 5.11268 2.46256L11.9166 9.24265L12.394 8.78122L5.6179 1.99137Q4.83146 1.20508 3.89434 1.24239Q2.95722 1.2797 2.1482 2.09574L0.849374 3.38755Q0.0290611 4.21763 0.000984941 5.14986Q-0.0270912 6.0821 0.745156 6.85434ZM6.82868 9.72345Q6.90803 9.8028 7.02422 9.79571Q7.14042 9.78861 7.21977 9.70942Q7.29911 9.63007 7.2956 9.51876Q7.29209 9.40745 7.21275 9.3281L3.36356 5.47892Q3.28697 5.41208 3.17291 5.40369Q3.05885 5.3953 2.96546 5.47892Q2.9029 5.54682 2.89451 5.66797Q2.88612 5.78913 2.96546 5.86558ZM8.07914 8.46872Q8.16551 8.54807 8.27956 8.54319Q8.39362 8.5383 8.47007 8.46872Q8.54942 8.37 8.54942 8.26075Q8.54942 8.15149 8.47282 8.06803L4.6096 4.22144Q4.53025 4.14225 4.41757 4.14362Q4.30488 4.14499 4.22828 4.22144Q4.14909 4.30353 4.15046 4.41347Q4.15183 4.52341 4.22828 4.60276ZM19.9725 22.5562L21.3058 21.2231Q21.441 21.0851 21.4403 20.9252Q21.4397 20.7653 21.3283 20.6039L19.1959 17.5923Q18.9553 17.2586 18.5799 17.1874L17.5675 17.0367L12.7256 12.216L12.2533 12.7125L17.3174 17.75L18.4885 17.9356L20.6983 20.859L19.6056 21.9445L16.6921 19.7277L16.4896 18.5708L11.4393 13.5388L10.9853 14.0396L15.7764 18.8278L15.9412 19.8191Q15.9705 20.0196 16.067 20.1739Q16.1636 20.3282 16.3459 20.4536L19.3394 22.5872Q19.5245 22.7152 19.6796 22.7033Q19.8347 22.6914 19.9725 22.5562ZM1.19392 21.5656Q1.96632 22.3211 2.86254 22.574Q3.75877 22.8269 4.65156 22.5768Q5.54435 22.3266 6.30409 21.5782Q6.82716 21.0551 7.1553 20.51Q7.48344 19.9648 7.79479 19.3228Q8.10615 18.6808 8.55987 17.8574Q9.01359 17.0339 9.77096 15.9592Q10.5283 14.8844 11.7495 13.4807Q12.9707 12.077 14.8229 10.2598L14.3389 9.76603Q12.4261 11.6931 11.1688 13.1548Q9.91157 14.6165 9.14069 15.7049Q8.36982 16.7933 7.91786 17.5984Q7.46589 18.4036 7.17468 19.0109Q6.88346 19.6183 6.58485 20.1166Q6.28623 20.6149 5.80726 21.0938Q4.89127 22.0056 3.76098 22.0069Q2.63068 22.0082 1.68968 21.0769Q0.751412 20.1261 0.751412 18.9973Q0.751412 17.8684 1.66038 16.9523Q2.1421 16.4735 2.6403 16.1749Q3.1385 15.8763 3.74732 15.585Q4.35615 15.2938 5.15983 14.8419Q5.96351 14.3899 7.05337 13.6189Q8.14323 12.848 9.60357 11.5908Q11.0639 10.3337 12.9909 8.42066L12.4999 7.9368Q10.6826 9.78907 9.27894 11.0102Q7.87528 12.2312 6.80045 12.9873Q5.72562 13.7434 4.90218 14.1971Q4.07874 14.6508 3.43673 14.9635Q2.79472 15.2761 2.2496 15.6029Q1.70448 15.9297 1.1814 16.4527Q0.433114 17.2152 0.18287 18.1066Q-0.0673744 18.9981 0.18554 19.8957Q0.438454 20.7934 1.19392 21.5656ZM3.72413 20.1606Q4.17289 20.1606 4.48715 19.8464Q4.8014 19.5321 4.8014 19.0692Q4.8014 18.6204 4.48715 18.3004Q4.17289 17.9804 3.72413 17.9804Q3.26118 17.9804 2.94128 18.3004Q2.62138 18.6204 2.62138 19.0692Q2.62138 19.5321 2.94128 19.8464Q3.26118 20.1606 3.72413 20.1606ZM13.3283 9.42148Q14.0838 10.1699 15.0254 10.5504Q15.967 10.9309 16.9659 10.9342Q17.9647 10.9376 18.9022 10.568Q19.8397 10.1985 20.5869 9.45124Q21.3744 8.66373 21.7426 7.65902Q22.1108 6.6543 22.0591 5.58771Q22.0074 4.52112 21.5217 3.5528L21.0314 4.05985Q21.3924 4.87848 21.4096 5.76502Q21.4268 6.65156 21.1043 7.48728Q20.7819 8.323 20.1189 8.986Q19.2467 9.84842 18.1059 10.134Q16.9651 10.4196 15.8223 10.1211Q14.6795 9.82264 13.7963 8.94922Q12.9201 8.07306 12.6253 6.92675Q12.3304 5.78043 12.6137 4.64182Q12.8971 3.50321 13.7694 2.63361Q14.7686 1.64148 16.1176 1.41237Q17.4667 1.18326 18.6944 1.7309L19.2014 1.22385Q18.2358 0.738317 17.1706 0.683004Q16.1053 0.627691 15.0984 0.999395Q14.0916 1.3711 13.3042 2.16135Q12.5568 2.90583 12.186 3.84684Q11.8151 4.78785 11.817 5.78531Q11.8189 6.78278 12.1994 7.7244Q12.5799 8.66602 13.3283 9.42148ZM16.3366 5.22654L17.5217 6.41611Q18.0335 6.92072 18.5663 6.91294Q19.099 6.90516 19.6026 6.40864L21.6956 4.31299L21.2369 3.85706L19.1819 5.90662Q18.5667 6.5246 17.9725 5.92768L16.8374 4.78983Q16.235 4.18482 16.8447 3.57508L18.9053 1.52002L18.4455 1.06135L16.3511 3.15867Q15.8463 3.66053 15.8412 4.19336Q15.8361 4.7262 16.3366 5.22654Z" fill="#ffffff"/>
 </g>
</svg>
