<?xml version="1.0" encoding="UTF-8"?>
<!--Generator: Apple Native CoreSVG 175-->
<!DOCTYPE svg
PUBLIC "-//W3C//DTD SVG 1.1//EN"
       "http://www.w3.org/Graphics/SVG/1.1/DTD/svg11.dtd">
<svg version="1.1" xmlns="http://www.w3.org/2000/svg" xmlns:xlink="http://www.w3.org/1999/xlink" width="17.2852" height="17.3145">
 <g>
  <rect height="17.3145" opacity="0" width="17.2852" x="0" y="0"/>
  <path d="M2.62695 17.3145L14.6484 17.3145Q15.957 17.3145 16.6211 16.6455Q17.2852 15.9766 17.2852 14.6875L17.2852 2.65625Q17.2852 1.37695 16.6211 0.703125Q15.957 0.0292969 14.6484 0.0292969L2.62695 0.0292969Q1.33789 0.0292969 0.668945 0.693359Q0 1.35742 0 2.65625L0 14.6875Q0 15.9863 0.668945 16.6504Q1.33789 17.3145 2.62695 17.3145ZM2.65625 16.5918Q1.70898 16.5918 1.2207 16.1035Q0.732422 15.6152 0.732422 14.6582L0.732422 2.69531Q0.732422 1.72852 1.2207 1.24512Q1.70898 0.761719 2.65625 0.761719L14.6289 0.761719Q15.5566 0.761719 16.0596 1.24512Q16.5625 1.72852 16.5625 2.69531L16.5625 14.6582Q16.5625 15.6152 16.0596 16.1035Q15.5566 16.5918 14.6289 16.5918ZM5.84961 13.0469Q5.9668 13.0469 6.04004 12.9932Q6.11328 12.9395 6.19141 12.8418L8.60352 9.22852L8.65234 9.22852L11.0449 12.8418Q11.1133 12.9395 11.1914 12.9932Q11.2695 13.0469 11.3965 13.0469Q11.543 13.0469 11.6455 12.9492Q11.748 12.8516 11.748 12.7051Q11.748 12.5879 11.6602 12.4512L9.07227 8.64258L11.6895 4.80469Q11.7773 4.66797 11.7773 4.56055Q11.7773 4.42383 11.6748 4.32617Q11.5723 4.22852 11.4258 4.22852Q11.3086 4.22852 11.2305 4.28223Q11.1523 4.33594 11.084 4.44336L8.69141 8.05664L8.63281 8.05664L6.25 4.44336Q6.18164 4.33594 6.10352 4.28223Q6.02539 4.22852 5.89844 4.22852Q5.75195 4.22852 5.64941 4.33105Q5.54688 4.43359 5.54688 4.58008Q5.54688 4.69727 5.64453 4.84375L8.20312 8.63281L5.58594 12.4805Q5.49805 12.6172 5.49805 12.7246Q5.49805 12.8613 5.5957 12.9541Q5.69336 13.0469 5.84961 13.0469Z" fill="#000000"/>
 </g>
</svg>
