<?xml version="1.0" encoding="UTF-8"?>
<!--Generator: Apple Native CoreSVG 175-->
<!DOCTYPE svg
PUBLIC "-//W3C//DTD SVG 1.1//EN"
       "http://www.w3.org/Graphics/SVG/1.1/DTD/svg11.dtd">
<svg version="1.1" xmlns="http://www.w3.org/2000/svg" xmlns:xlink="http://www.w3.org/1999/xlink" width="17.2852" height="17.3145">
 <g>
  <rect height="17.3145" opacity="0" width="17.2852" x="0" y="0"/>
  <path d="M2.62695 17.3145L14.6484 17.3145Q15.957 17.3145 16.6211 16.6455Q17.2852 15.9766 17.2852 14.6875L17.2852 2.65625Q17.2852 1.37695 16.6211 0.703125Q15.957 0.0292969 14.6484 0.0292969L2.62695 0.0292969Q1.33789 0.0292969 0.668945 0.693359Q0 1.35742 0 2.65625L0 14.6875Q0 15.9863 0.668945 16.6504Q1.33789 17.3145 2.62695 17.3145Z" fill="#ffffff"/>
  <path d="M5.83984 13.0762Q5.67383 13.0762 5.57617 12.9834Q5.47852 12.8906 5.47852 12.7539Q5.47852 12.6367 5.56641 12.5098L8.20312 8.63281L5.625 4.82422Q5.52734 4.67773 5.52734 4.56055Q5.52734 4.4043 5.63477 4.30664Q5.74219 4.20898 5.88867 4.20898Q6.01562 4.20898 6.09375 4.25781Q6.17188 4.30664 6.24023 4.41406L8.64258 8.04688L8.69141 8.04688L11.1133 4.42383Q11.1719 4.30664 11.2549 4.25781Q11.3379 4.20898 11.4453 4.20898Q11.6016 4.20898 11.7041 4.30176Q11.8066 4.39453 11.8066 4.53125Q11.8066 4.64844 11.709 4.78516L9.08203 8.64258L11.6797 12.4707Q11.7676 12.6074 11.7676 12.7246Q11.7676 12.8809 11.6699 12.9785Q11.5723 13.0762 11.416 13.0762Q11.2988 13.0762 11.2158 13.0273Q11.1328 12.9785 11.0645 12.8613L8.65234 9.23828L8.60352 9.23828L6.18164 12.8613Q6.10352 12.9785 6.03027 13.0273Q5.95703 13.0762 5.83984 13.0762Z" fill="#ffffff"/>
 </g>
</svg>
