<?xml version="1.0" encoding="UTF-8"?>
<!--Generator: Apple Native CoreSVG 175-->
<!DOCTYPE svg
PUBLIC "-//W3C//DTD SVG 1.1//EN"
       "http://www.w3.org/Graphics/SVG/1.1/DTD/svg11.dtd">
<svg version="1.1" xmlns="http://www.w3.org/2000/svg" xmlns:xlink="http://www.w3.org/1999/xlink" width="21.2112" height="21.211">
 <g>
  <rect height="21.211" opacity="0" width="21.2112" x="0" y="0"/>
  <path d="M0.922877 12.4658L8.75491 20.2881Q9.67288 21.2061 10.6201 21.2012Q11.5674 21.1963 12.4658 20.2979L20.2881 12.4561Q21.1963 11.5576 21.211 10.6055Q21.2256 9.65335 20.2979 8.73538L12.4854 0.922877Q11.5576-0.00485725 10.6153 2.55645e-05Q9.67288 0.00490838 8.75491 0.922877L0.913112 8.74514Q-0.00485698 9.66311 2.5835e-05 10.6006Q0.00490865 11.5381 0.922877 12.4658ZM7.29006 14.292Q7.13381 14.292 7.01663 14.1846Q6.89944 14.0772 6.89944 13.9209Q6.89944 13.7451 7.02639 13.6182L10.0342 10.6104L7.02639 7.60256Q6.89944 7.47561 6.89944 7.29983Q6.89944 7.14358 7.01663 7.03616Q7.13381 6.92874 7.29006 6.92874Q7.45608 6.92874 7.60256 7.06546L10.6006 10.0537L13.5987 7.06546Q13.7354 6.92874 13.9014 6.92874Q14.0576 6.92874 14.1748 7.03616Q14.292 7.14358 14.292 7.29983Q14.292 7.46585 14.1651 7.60256L11.1475 10.6104L14.1651 13.6182Q14.292 13.7451 14.292 13.9209Q14.292 14.0772 14.1748 14.1846Q14.0576 14.292 13.8916 14.292Q13.7256 14.292 13.5791 14.1553L10.6006 11.167L7.60256 14.1553Q7.46585 14.292 7.29006 14.292Z" fill="#007aff"/>
 </g>
</svg>
