<?xml version="1.0" encoding="UTF-8"?>
<!--Generator: Apple Native CoreSVG 175-->
<!DOCTYPE svg
PUBLIC "-//W3C//DTD SVG 1.1//EN"
       "http://www.w3.org/Graphics/SVG/1.1/DTD/svg11.dtd">
<svg version="1.1" xmlns="http://www.w3.org/2000/svg" xmlns:xlink="http://www.w3.org/1999/xlink" width="22.666" height="17.2949">
 <g>
  <rect height="17.2949" opacity="0" width="22.666" x="0" y="0"/>
  <path d="M2.62695 17.2852L20.0195 17.2852Q21.3281 17.2852 21.9971 16.6113Q22.666 15.9375 22.666 14.6582L22.666 2.62695Q22.666 1.34766 21.9971 0.673828Q21.3281 0 20.0195 0L2.62695 0Q1.33789 0 0.668945 0.668945Q0 1.33789 0 2.62695L0 14.6582Q0 15.957 0.668945 16.6211Q1.33789 17.2852 2.62695 17.2852ZM2.65625 16.5625Q1.70898 16.5625 1.2207 16.0742Q0.732422 15.5859 0.732422 14.6191L0.732422 2.65625Q0.732422 1.69922 1.2207 1.21094Q1.70898 0.722656 2.65625 0.722656L20 0.722656Q20.9277 0.722656 21.4307 1.21094Q21.9336 1.69922 21.9336 2.65625L21.9336 14.6191Q21.9336 15.5859 21.4307 16.0742Q20.9277 16.5625 20 16.5625ZM7.83203 12.5391Q7.99805 12.5391 8.14453 12.4023L11.3379 9.19922L14.541 12.4023Q14.6777 12.5391 14.8438 12.5391Q15.0098 12.5391 15.1221 12.4316Q15.2344 12.3242 15.2344 12.168Q15.2344 12.002 15.1074 11.875L11.8848 8.65234L15.1074 5.42969Q15.2441 5.30273 15.2441 5.13672Q15.2441 4.98047 15.127 4.87305Q15.0098 4.76562 14.8438 4.76562Q14.6875 4.76562 14.5508 4.90234L11.3379 8.10547L8.13477 4.90234Q7.99805 4.76562 7.83203 4.76562Q7.66602 4.76562 7.55371 4.87305Q7.44141 4.98047 7.44141 5.13672Q7.44141 5.30273 7.56836 5.42969L10.791 8.65234L7.56836 11.875Q7.44141 12.002 7.44141 12.168Q7.44141 12.3242 7.55371 12.4316Q7.66602 12.5391 7.83203 12.5391Z" fill="#007aff"/>
 </g>
</svg>
