<?xml version="1.0" encoding="UTF-8"?>
<!--Generator: Apple Native CoreSVG 175-->
<!DOCTYPE svg
PUBLIC "-//W3C//DTD SVG 1.1//EN"
       "http://www.w3.org/Graphics/SVG/1.1/DTD/svg11.dtd">
<svg version="1.1" xmlns="http://www.w3.org/2000/svg" xmlns:xlink="http://www.w3.org/1999/xlink" width="17.0898" height="17.1191">
 <g>
  <rect height="17.1191" opacity="0" width="17.0898" x="0" y="0"/>
  <path d="M16.0742 1.06445Q15.4883 0.478516 14.6191 0.258789Q13.75 0.0390625 12.3145 0.0390625L4.66797 0.0390625Q3.33984 0.0390625 2.47559 0.263672Q1.61133 0.488281 1.02539 1.07422Q0.439453 1.66016 0.219727 2.51465Q0 3.36914 0 4.70703L0 12.334Q0 13.7793 0.214844 14.6436Q0.429688 15.5078 1.01562 16.084Q1.61133 16.6699 2.48047 16.8945Q3.34961 17.1191 4.77539 17.1191L12.3145 17.1191Q13.75 17.1191 14.624 16.8945Q15.498 16.6699 16.0742 16.084Q16.6699 15.498 16.8799 14.6387Q17.0898 13.7793 17.0898 12.334L17.0898 4.81445Q17.0898 3.37891 16.8799 2.50977Q16.6699 1.64062 16.0742 1.06445ZM16.377 4.56055L16.377 12.5879Q16.377 13.6133 16.1768 14.3457Q15.9766 15.0781 15.5273 15.5371Q15.0781 15.9961 14.3311 16.1963Q13.584 16.3965 12.5781 16.3965L4.53125 16.3965Q3.51562 16.3965 2.76855 16.1914Q2.02148 15.9863 1.5625 15.5371Q1.10352 15.0781 0.917969 14.3457Q0.732422 13.6133 0.732422 12.5879L0.732422 4.6582Q0.732422 3.58398 0.917969 2.81738Q1.10352 2.05078 1.55273 1.60156Q2.01172 1.14258 2.7832 0.952148Q3.55469 0.761719 4.62891 0.761719L12.5781 0.761719Q13.584 0.761719 14.3311 0.961914Q15.0781 1.16211 15.5273 1.61133Q15.9863 2.07031 16.1816 2.80762Q16.377 3.54492 16.377 4.56055ZM5.04883 12.4512Q5.21484 12.4512 5.36133 12.3145L8.55469 9.11133L11.7578 12.3145Q11.8945 12.4512 12.0605 12.4512Q12.2266 12.4512 12.3389 12.3438Q12.4512 12.2363 12.4512 12.0801Q12.4512 11.9141 12.3242 11.7871L9.10156 8.56445L12.3242 5.3418Q12.4609 5.21484 12.4609 5.04883Q12.4609 4.89258 12.3438 4.78516Q12.2266 4.67773 12.0605 4.67773Q11.9043 4.67773 11.7676 4.81445L8.55469 8.01758L5.35156 4.81445Q5.21484 4.67773 5.04883 4.67773Q4.88281 4.67773 4.77051 4.78516Q4.6582 4.89258 4.6582 5.04883Q4.6582 5.21484 4.78516 5.3418L8.00781 8.56445L4.78516 11.7871Q4.6582 11.9141 4.6582 12.0801Q4.6582 12.2363 4.77051 12.3438Q4.88281 12.4512 5.04883 12.4512Z" fill="#007aff"/>
 </g>
</svg>
