<?xml version="1.0" encoding="UTF-8"?>
<!--Generator: Apple Native CoreSVG 175.5-->
<!DOCTYPE svg
PUBLIC "-//W3C//DTD SVG 1.1//EN"
       "http://www.w3.org/Graphics/SVG/1.1/DTD/svg11.dtd">
<svg version="1.1" xmlns="http://www.w3.org/2000/svg" xmlns:xlink="http://www.w3.org/1999/xlink" width="15.9766" height="19.7168">
 <g>
  <rect height="19.7168" opacity="0" width="15.9766" x="0" y="0"/>
  <path d="M7.98828 19.7168Q8.10547 19.7168 8.27637 19.6729Q8.44727 19.6289 8.63281 19.5312Q10.7227 18.4375 12.1338 17.5586Q13.5449 16.6797 14.3896 15.8203Q15.2344 14.9609 15.6055 13.9697Q15.9766 12.9785 15.9766 11.6602L15.9766 4.29688Q15.9766 3.54492 15.6592 3.21289Q15.3418 2.88086 14.7266 2.62695Q14.3848 2.48047 13.7891 2.25586Q13.1934 2.03125 12.4756 1.76758Q11.7578 1.50391 11.04 1.24023Q10.3223 0.976562 9.73145 0.766602Q9.14062 0.556641 8.79883 0.439453Q8.60352 0.380859 8.39844 0.341797Q8.19336 0.302734 7.98828 0.302734Q7.7832 0.302734 7.58301 0.341797Q7.38281 0.380859 7.1875 0.439453Q6.8457 0.556641 6.25 0.766602Q5.6543 0.976562 4.93652 1.23535Q4.21875 1.49414 3.50098 1.7627Q2.7832 2.03125 2.1875 2.26074Q1.5918 2.49023 1.25 2.62695Q0.644531 2.87109 0.322266 3.20801Q0 3.54492 0 4.29688L0 11.6602Q0 12.9785 0.385742 13.9502Q0.771484 14.9219 1.62598 15.7568Q2.48047 16.5918 3.8916 17.4805Q5.30273 18.3691 7.34375 19.5312Q7.5293 19.6289 7.7002 19.6729Q7.87109 19.7168 7.98828 19.7168Z" fill="#007aff"/>
  <path d="M4.70703 13.75Q4.375 13.75 4.14062 13.5107Q3.90625 13.2715 3.90625 12.9395Q3.90625 12.6074 4.14062 12.373L6.85547 9.6582L4.14062 6.95312Q3.90625 6.70898 3.90625 6.38672Q3.90625 6.04492 4.14062 5.81543Q4.375 5.58594 4.70703 5.58594Q5.0293 5.58594 5.27344 5.81055L7.99805 8.52539L10.7422 5.80078Q10.9766 5.56641 11.2988 5.56641Q11.6309 5.56641 11.8652 5.80078Q12.0996 6.03516 12.0996 6.36719Q12.0996 6.69922 11.8652 6.94336L9.14062 9.6582L11.8555 12.3633Q12.0898 12.5781 12.0898 12.9395Q12.0898 13.2715 11.8555 13.5107Q11.6211 13.75 11.2793 13.75Q10.9277 13.75 10.7031 13.5156L7.99805 10.8008L5.30273 13.5156Q5.05859 13.75 4.70703 13.75Z" fill="#ffffff"/>
 </g>
</svg>
