<?xml version="1.0" encoding="UTF-8"?>
<!--Generator: Apple Native CoreSVG 175-->
<!DOCTYPE svg
PUBLIC "-//W3C//DTD SVG 1.1//EN"
       "http://www.w3.org/Graphics/SVG/1.1/DTD/svg11.dtd">
<svg version="1.1" xmlns="http://www.w3.org/2000/svg" xmlns:xlink="http://www.w3.org/1999/xlink" width="19.1602" height="19.209">
 <g>
  <rect height="19.209" opacity="0" width="19.1602" x="0" y="0"/>
  <path d="M9.57031 19.209Q11.5527 19.209 13.2861 18.4668Q15.0195 17.7246 16.3379 16.4014Q17.6562 15.0781 18.4082 13.3447Q19.1602 11.6113 19.1602 9.63867Q19.1602 7.66602 18.4082 5.93262Q17.6562 4.19922 16.3379 2.87598Q15.0195 1.55273 13.2861 0.810547Q11.5527 0.0683594 9.57031 0.0683594Q7.59766 0.0683594 5.86426 0.810547Q4.13086 1.55273 2.81738 2.87598Q1.50391 4.19922 0.751953 5.93262Q0 7.66602 0 9.63867Q0 11.6113 0.74707 13.3447Q1.49414 15.0781 2.8125 16.4014Q4.13086 17.7246 5.86914 18.4668Q7.60742 19.209 9.57031 19.209ZM9.57031 18.4668Q7.74414 18.4668 6.14746 17.7783Q4.55078 17.0898 3.33496 15.8789Q2.11914 14.668 1.43555 13.0664Q0.751953 11.4648 0.751953 9.63867Q0.751953 7.8125 1.43555 6.21094Q2.11914 4.60938 3.33496 3.39355Q4.55078 2.17773 6.14746 1.48926Q7.74414 0.800781 9.57031 0.800781Q11.4062 0.800781 13.0029 1.48926Q14.5996 2.17773 15.8154 3.39355Q17.0312 4.60938 17.7197 6.21094Q18.4082 7.8125 18.4082 9.63867Q18.4082 11.4648 17.7246 13.0664Q17.041 14.668 15.8252 15.8789Q14.6094 17.0898 13.0078 17.7783Q11.4062 18.4668 9.57031 18.4668ZM6.9043 14.7852L12.2363 14.7852Q12.9297 14.7852 13.2666 14.4189Q13.6035 14.0527 13.7109 13.3887L14.4531 8.33984L4.69727 8.33984L5.43945 13.3887Q5.53711 14.0625 5.87891 14.4238Q6.2207 14.7852 6.9043 14.7852ZM8.00781 13.2324Q7.87109 13.2324 7.78809 13.1445Q7.70508 13.0566 7.70508 12.9395Q7.70508 12.8223 7.79297 12.7344L9.15039 11.3672L7.79297 10Q7.70508 9.91211 7.70508 9.78516Q7.70508 9.66797 7.78809 9.58496Q7.87109 9.50195 8.00781 9.50195Q8.125 9.50195 8.21289 9.58984L9.57031 10.9473L10.9375 9.58984Q11.0254 9.50195 11.1523 9.50195Q11.2695 9.50195 11.3574 9.58008Q11.4453 9.6582 11.4453 9.78516Q11.4453 9.91211 11.3574 10L9.99023 11.3672L11.3574 12.7344Q11.4453 12.8223 11.4453 12.9395Q11.4453 13.0566 11.3525 13.1445Q11.2598 13.2324 11.1523 13.2324Q11.084 13.2324 11.0254 13.208Q10.9668 13.1836 10.9375 13.1543L9.57031 11.7773L8.21289 13.1543Q8.13477 13.2324 8.00781 13.2324ZM4.08203 7.7832L15.0684 7.7832Q15.4297 7.7832 15.625 7.56836Q15.8203 7.35352 15.8203 7.00195L15.8203 6.25Q15.8203 5.9082 15.625 5.69336Q15.4297 5.47852 15.0684 5.47852L4.08203 5.47852Q3.7207 5.47852 3.52539 5.69336Q3.33008 5.9082 3.33008 6.25L3.33008 7.00195Q3.33008 7.35352 3.52539 7.56836Q3.7207 7.7832 4.08203 7.7832Z" fill="#ffffff"/>
 </g>
</svg>
