<?xml version="1.0" encoding="UTF-8"?>
<!--Generator: Apple Native CoreSVG 175-->
<!DOCTYPE svg
PUBLIC "-//W3C//DTD SVG 1.1//EN"
       "http://www.w3.org/Graphics/SVG/1.1/DTD/svg11.dtd">
<svg version="1.1" xmlns="http://www.w3.org/2000/svg" xmlns:xlink="http://www.w3.org/1999/xlink" width="17.2852" height="17.3145">
 <g>
  <rect height="17.3145" opacity="0" width="17.2852" x="0" y="0"/>
  <path d="M2.62695 17.3145L14.6484 17.3145Q15.957 17.3145 16.6211 16.6455Q17.2852 15.9766 17.2852 14.6875L17.2852 2.65625Q17.2852 1.37695 16.6211 0.703125Q15.957 0.0292969 14.6484 0.0292969L2.62695 0.0292969Q1.33789 0.0292969 0.668945 0.693359Q0 1.35742 0 2.65625L0 14.6875Q0 15.9863 0.668945 16.6504Q1.33789 17.3145 2.62695 17.3145ZM2.65625 16.5918Q1.70898 16.5918 1.2207 16.1035Q0.732422 15.6152 0.732422 14.6582L0.732422 2.69531Q0.732422 1.72852 1.2207 1.24512Q1.70898 0.761719 2.65625 0.761719L14.6289 0.761719Q15.5566 0.761719 16.0596 1.24512Q16.5625 1.72852 16.5625 2.69531L16.5625 14.6582Q16.5625 15.6152 16.0596 16.1035Q15.5566 16.5918 14.6289 16.5918ZM8.64258 13.0469Q8.81836 13.0469 8.9209 12.9443Q9.02344 12.8418 9.02344 12.6562L9.02344 9.26758L12.0508 4.79492Q12.1387 4.6875 12.1387 4.57031Q12.1387 4.43359 12.041 4.33105Q11.9434 4.22852 11.7871 4.22852Q11.6797 4.22852 11.5967 4.28223Q11.5137 4.33594 11.4453 4.44336L8.67188 8.49609L8.62305 8.49609L5.85938 4.44336Q5.79102 4.32617 5.70801 4.27734Q5.625 4.22852 5.50781 4.22852Q5.35156 4.22852 5.25391 4.33105Q5.15625 4.43359 5.15625 4.56055Q5.15625 4.6875 5.23438 4.79492L8.27148 9.26758L8.27148 12.6562Q8.27148 12.832 8.37402 12.9395Q8.47656 13.0469 8.64258 13.0469Z" fill="#007aff"/>
 </g>
</svg>
