<?xml version="1.0" encoding="UTF-8"?>
<!--Generator: Apple Native CoreSVG 175-->
<!DOCTYPE svg
PUBLIC "-//W3C//DTD SVG 1.1//EN"
       "http://www.w3.org/Graphics/SVG/1.1/DTD/svg11.dtd">
<svg version="1.1" xmlns="http://www.w3.org/2000/svg" xmlns:xlink="http://www.w3.org/1999/xlink" width="19.1602" height="19.1504">
 <g>
  <rect height="19.1504" opacity="0" width="19.1602" x="0" y="0"/>
  <path d="M9.57031 19.1406Q11.5527 19.1406 13.2861 18.3984Q15.0195 17.6562 16.3379 16.333Q17.6562 15.0098 18.4082 13.2764Q19.1602 11.543 19.1602 9.57031Q19.1602 7.59766 18.4082 5.86426Q17.6562 4.13086 16.3379 2.80762Q15.0195 1.48438 13.2861 0.742188Q11.5527 0 9.57031 0Q7.59766 0 5.86426 0.742188Q4.13086 1.48438 2.81738 2.80762Q1.50391 4.13086 0.751953 5.86426Q0 7.59766 0 9.57031Q0 11.543 0.74707 13.2764Q1.49414 15.0098 2.8125 16.333Q4.13086 17.6562 5.86914 18.3984Q7.60742 19.1406 9.57031 19.1406Z" fill="#ffffff"/>
  <path d="M9.58984 14.1699Q9.44336 14.1699 9.3457 14.0771Q9.24805 13.9844 9.24805 13.8184L9.24805 11.9727L7.48047 11.9727Q7.34375 11.9727 7.26562 11.8799Q7.1875 11.7871 7.1875 11.6602Q7.1875 11.5332 7.27051 11.4453Q7.35352 11.3574 7.48047 11.3574L9.24805 11.3574L9.24805 10.5371L7.48047 10.5371Q7.34375 10.5371 7.26562 10.4492Q7.1875 10.3613 7.1875 10.2344Q7.1875 10.1172 7.27051 10.0244Q7.35352 9.93164 7.48047 9.93164L8.92578 9.93164L6.44531 6.08398Q6.41602 6.03516 6.3916 5.98145Q6.36719 5.92773 6.36719 5.84961Q6.36719 5.71289 6.46484 5.625Q6.5625 5.53711 6.69922 5.53711Q6.79688 5.53711 6.87012 5.58105Q6.94336 5.625 7.01172 5.72266L9.57031 9.75586L12.1387 5.72266Q12.207 5.61523 12.2803 5.57617Q12.3535 5.53711 12.4512 5.53711Q12.5977 5.53711 12.6904 5.63477Q12.7832 5.73242 12.7832 5.85938Q12.7832 5.97656 12.7051 6.08398L10.2148 9.93164L11.8555 9.93164Q11.9824 9.93164 12.0654 10.0244Q12.1484 10.1172 12.1484 10.2344Q12.1484 10.3613 12.0654 10.4492Q11.9824 10.5371 11.8555 10.5371L9.92188 10.5371L9.92188 11.3574L11.8555 11.3574Q11.9824 11.3574 12.0654 11.4453Q12.1484 11.5332 12.1484 11.6602Q12.1484 11.7871 12.0654 11.8799Q11.9824 11.9727 11.8555 11.9727L9.92188 11.9727L9.92188 13.8184Q9.92188 13.9844 9.8291 14.0771Q9.73633 14.1699 9.58984 14.1699Z" fill="#ffffff"/>
 </g>
</svg>
