<?xml version="1.0" encoding="UTF-8"?>
<!--Generator: Apple Native CoreSVG 175.5-->
<!DOCTYPE svg
PUBLIC "-//W3C//DTD SVG 1.1//EN"
       "http://www.w3.org/Graphics/SVG/1.1/DTD/svg11.dtd">
<svg version="1.1" xmlns="http://www.w3.org/2000/svg" xmlns:xlink="http://www.w3.org/1999/xlink" width="13.3984" height="18.0957">
 <g>
  <rect height="18.0957" opacity="0" width="13.3984" x="0" y="0"/>
  <path d="M6.69922 18.0859Q7.10938 18.0859 7.36328 17.8223Q7.61719 17.5586 7.61719 17.1387L7.61719 10.4395L13.2031 1.43555Q13.3984 1.12305 13.3984 0.820312Q13.3984 0.46875 13.1396 0.234375Q12.8809 0 12.4902 0Q12.2266 0 12.0215 0.112305Q11.8164 0.224609 11.6699 0.488281L6.73828 8.75L6.66992 8.75L1.73828 0.488281Q1.58203 0.224609 1.37695 0.112305Q1.17188 0 0.908203 0Q0.527344 0 0.263672 0.234375Q0 0.46875 0 0.820312Q0 1.12305 0.195312 1.43555L5.79102 10.4395L5.79102 17.1387Q5.79102 17.5586 6.04492 17.8223Q6.29883 18.0859 6.69922 18.0859ZM2.01172 10.6641L11.4746 10.6641Q11.7578 10.6641 11.9238 10.4834Q12.0898 10.3027 12.0898 10.0293Q12.0898 9.75586 11.9238 9.5752Q11.7578 9.39453 11.4746 9.39453L2.01172 9.39453Q1.72852 9.39453 1.5625 9.5752Q1.39648 9.75586 1.39648 10.0293Q1.39648 10.293 1.5625 10.4785Q1.72852 10.6641 2.01172 10.6641ZM2.01172 14.0137L11.4746 14.0137Q11.7578 14.0137 11.9238 13.8281Q12.0898 13.6426 12.0898 13.3789Q12.0898 13.1055 11.9238 12.9199Q11.7578 12.7344 11.4746 12.7344L2.01172 12.7344Q1.72852 12.7344 1.5625 12.9199Q1.39648 13.1055 1.39648 13.3789Q1.39648 13.6426 1.5625 13.8281Q1.72852 14.0137 2.01172 14.0137Z" fill="#007aff"/>
 </g>
</svg>
