<?xml version="1.0" encoding="UTF-8"?>
<!--Generator: Apple Native CoreSVG 175-->
<!DOCTYPE svg
PUBLIC "-//W3C//DTD SVG 1.1//EN"
       "http://www.w3.org/Graphics/SVG/1.1/DTD/svg11.dtd">
<svg version="1.1" xmlns="http://www.w3.org/2000/svg" xmlns:xlink="http://www.w3.org/1999/xlink" width="17.2852" height="17.3145">
 <g>
  <rect height="17.3145" opacity="0" width="17.2852" x="0" y="0"/>
  <path d="M2.62695 17.3145L14.6484 17.3145Q15.957 17.3145 16.6211 16.6455Q17.2852 15.9766 17.2852 14.6875L17.2852 2.65625Q17.2852 1.37695 16.6211 0.703125Q15.957 0.0292969 14.6484 0.0292969L2.62695 0.0292969Q1.33789 0.0292969 0.668945 0.693359Q0 1.35742 0 2.65625L0 14.6875Q0 15.9863 0.668945 16.6504Q1.33789 17.3145 2.62695 17.3145Z" fill="#ffffff"/>
  <path d="M5.50781 12.7734Q4.54102 12.7734 3.90625 12.3096Q3.27148 11.8457 3.04688 11.1914Q3.02734 11.123 3.0127 11.0645Q2.99805 11.0059 2.99805 10.9473Q2.99805 10.8008 3.08594 10.7178Q3.17383 10.6348 3.30078 10.6348Q3.42773 10.6348 3.50098 10.7129Q3.57422 10.791 3.62305 10.9082Q3.79883 11.4648 4.33594 11.8018Q4.87305 12.1387 5.56641 12.1387Q6.43555 12.1387 7.00684 11.5723Q7.57812 11.0059 7.57812 10.1172Q7.57812 9.24805 7.03613 8.68652Q6.49414 8.125 5.63477 8.125Q5.16602 8.125 4.75586 8.32031Q4.3457 8.51562 3.92578 8.96484Q3.82812 9.07227 3.74023 9.11133Q3.65234 9.15039 3.52539 9.15039Q3.34961 9.15039 3.24219 9.0332Q3.13477 8.91602 3.14453 8.71094L3.4375 5.09766Q3.44727 4.89258 3.57422 4.77051Q3.70117 4.64844 3.90625 4.64844L7.57812 4.64844Q7.70508 4.64844 7.79297 4.73145Q7.88086 4.81445 7.88086 4.95117Q7.88086 5.07812 7.78809 5.16602Q7.69531 5.25391 7.57812 5.25391L4.0332 5.25391L3.78906 8.4375L3.80859 8.4375Q4.11133 8.00781 4.62891 7.76367Q5.14648 7.51953 5.70312 7.51953Q6.81641 7.51953 7.5293 8.25195Q8.24219 8.98438 8.24219 10.0977Q8.24219 11.3086 7.48047 12.041Q6.71875 12.7734 5.50781 12.7734ZM12.3145 12.7734Q11.4844 12.7734 10.8594 12.2559Q10.2344 11.7383 9.88281 10.8154Q9.53125 9.89258 9.53125 8.66211Q9.53125 7.43164 9.88281 6.50391Q10.2344 5.57617 10.8594 5.06348Q11.4844 4.55078 12.3145 4.55078Q13.1348 4.55078 13.7646 5.06348Q14.3945 5.57617 14.7461 6.50391Q15.0977 7.43164 15.0977 8.66211Q15.0977 9.89258 14.7461 10.8154Q14.3945 11.7383 13.7646 12.2559Q13.1348 12.7734 12.3145 12.7734ZM12.3145 12.1191Q13.252 12.1191 13.833 11.167Q14.4141 10.2148 14.4141 8.66211Q14.4141 7.10938 13.8281 6.15723Q13.2422 5.20508 12.3145 5.20508Q11.377 5.20508 10.7959 6.15723Q10.2148 7.10938 10.2148 8.66211Q10.2148 10.2148 10.7959 11.167Q11.377 12.1191 12.3145 12.1191Z" fill="#ffffff"/>
 </g>
</svg>
