<?xml version="1.0" encoding="UTF-8"?>
<!--Generator: Apple Native CoreSVG 175-->
<!DOCTYPE svg
PUBLIC "-//W3C//DTD SVG 1.1//EN"
       "http://www.w3.org/Graphics/SVG/1.1/DTD/svg11.dtd">
<svg version="1.1" xmlns="http://www.w3.org/2000/svg" xmlns:xlink="http://www.w3.org/1999/xlink" width="17.2852" height="17.3145">
 <g>
  <rect height="17.3145" opacity="0" width="17.2852" x="0" y="0"/>
  <path d="M2.62695 17.3145L14.6484 17.3145Q15.957 17.3145 16.6211 16.6455Q17.2852 15.9766 17.2852 14.6875L17.2852 2.65625Q17.2852 1.37695 16.6211 0.703125Q15.957 0.0292969 14.6484 0.0292969L2.62695 0.0292969Q1.33789 0.0292969 0.668945 0.693359Q0 1.35742 0 2.65625L0 14.6875Q0 15.9863 0.668945 16.6504Q1.33789 17.3145 2.62695 17.3145ZM2.65625 16.5918Q1.70898 16.5918 1.2207 16.1035Q0.732422 15.6152 0.732422 14.6582L0.732422 2.69531Q0.732422 1.72852 1.2207 1.24512Q1.70898 0.761719 2.65625 0.761719L14.6289 0.761719Q15.5566 0.761719 16.0596 1.24512Q16.5625 1.72852 16.5625 2.69531L16.5625 14.6582Q16.5625 15.6152 16.0596 16.1035Q15.5566 16.5918 14.6289 16.5918ZM3.33984 12.5879L7.5293 12.5879Q7.67578 12.5879 7.75391 12.4951Q7.83203 12.4023 7.83203 12.2656Q7.83203 12.1289 7.75391 12.041Q7.67578 11.9531 7.5293 11.9531L3.95508 11.9531L3.95508 11.9238L6.34766 9.13086Q6.99219 8.37891 7.2998 7.82715Q7.60742 7.27539 7.60742 6.68945Q7.60742 5.72266 6.95312 5.14648Q6.29883 4.57031 5.23438 4.57031Q4.33594 4.57031 3.64258 5.07812Q2.94922 5.58594 2.80273 6.36719Q2.79297 6.44531 2.7832 6.50879Q2.77344 6.57227 2.77344 6.64062Q2.77344 6.78711 2.86133 6.88477Q2.94922 6.98242 3.0957 6.98242Q3.24219 6.98242 3.32031 6.89941Q3.39844 6.81641 3.42773 6.66992Q3.50586 6.02539 4.00391 5.61523Q4.50195 5.20508 5.25391 5.20508Q6.02539 5.20508 6.47949 5.61035Q6.93359 6.01562 6.93359 6.69922Q6.93359 7.17773 6.69434 7.6123Q6.45508 8.04688 5.98633 8.59375L3.0957 11.9336Q2.98828 12.0605 2.98828 12.2461Q2.98828 12.4121 3.08594 12.5Q3.18359 12.5879 3.33984 12.5879ZM11.8652 12.7344Q13.0762 12.7344 13.8281 12.0068Q14.5801 11.2793 14.5801 10.0781Q14.5801 8.97461 13.877 8.24707Q13.1738 7.51953 12.0703 7.51953Q11.5137 7.51953 11.001 7.76367Q10.4883 8.00781 10.1758 8.42773L10.1562 8.42773L10.4004 5.26367L13.9258 5.26367Q14.0527 5.26367 14.1406 5.17578Q14.2285 5.08789 14.2285 4.96094Q14.2285 4.83398 14.1406 4.74609Q14.0527 4.6582 13.9258 4.6582L10.2734 4.6582Q10.0684 4.6582 9.94629 4.78516Q9.82422 4.91211 9.81445 5.11719L9.52148 8.70117Q9.51172 8.89648 9.61914 9.01367Q9.72656 9.13086 9.90234 9.13086Q10.0195 9.13086 10.1074 9.09668Q10.1953 9.0625 10.293 8.95508Q10.7129 8.50586 11.1182 8.31055Q11.5234 8.11523 12.002 8.11523Q12.8516 8.11523 13.3936 8.67188Q13.9355 9.22852 13.9355 10.0879Q13.9355 10.9766 13.3643 11.543Q12.793 12.1094 11.9336 12.1094Q11.2305 12.1094 10.6982 11.7676Q10.166 11.4258 10 10.8887Q9.95117 10.7617 9.87305 10.6885Q9.79492 10.6152 9.67773 10.6152Q9.55078 10.6152 9.46289 10.6982Q9.375 10.7812 9.375 10.918Q9.375 10.9766 9.38965 11.0352Q9.4043 11.0938 9.42383 11.1621Q9.64844 11.8262 10.2832 12.2803Q10.918 12.7344 11.8652 12.7344Z" fill="#ffffff"/>
 </g>
</svg>
