<?xml version="1.0" encoding="UTF-8"?>
<!--Generator: Apple Native CoreSVG 175-->
<!DOCTYPE svg
PUBLIC "-//W3C//DTD SVG 1.1//EN"
       "http://www.w3.org/Graphics/SVG/1.1/DTD/svg11.dtd">
<svg version="1.1" xmlns="http://www.w3.org/2000/svg" xmlns:xlink="http://www.w3.org/1999/xlink" width="19.1602" height="19.1504">
 <g>
  <rect height="19.1504" opacity="0" width="19.1602" x="0" y="0"/>
  <path d="M9.57031 19.1406Q11.5527 19.1406 13.2861 18.3984Q15.0195 17.6562 16.3379 16.333Q17.6562 15.0098 18.4082 13.2764Q19.1602 11.543 19.1602 9.57031Q19.1602 7.59766 18.4082 5.86426Q17.6562 4.13086 16.3379 2.80762Q15.0195 1.48438 13.2861 0.742188Q11.5527 0 9.57031 0Q7.59766 0 5.86426 0.742188Q4.13086 1.48438 2.81738 2.80762Q1.50391 4.13086 0.751953 5.86426Q0 7.59766 0 9.57031Q0 11.543 0.74707 13.2764Q1.49414 15.0098 2.8125 16.333Q4.13086 17.6562 5.86914 18.3984Q7.60742 19.1406 9.57031 19.1406ZM9.57031 18.3984Q7.74414 18.3984 6.14746 17.71Q4.55078 17.0215 3.33496 15.8105Q2.11914 14.5996 1.43555 12.998Q0.751953 11.3965 0.751953 9.57031Q0.751953 7.74414 1.43555 6.14258Q2.11914 4.54102 3.33496 3.3252Q4.55078 2.10938 6.14746 1.4209Q7.74414 0.732422 9.57031 0.732422Q11.4062 0.732422 13.0029 1.4209Q14.5996 2.10938 15.8154 3.3252Q17.0312 4.54102 17.7197 6.14258Q18.4082 7.74414 18.4082 9.57031Q18.4082 11.3965 17.7246 12.998Q17.041 14.5996 15.8252 15.8105Q14.6094 17.0215 13.0078 17.71Q11.4062 18.3984 9.57031 18.3984ZM9.54102 14.043Q10.8887 14.043 11.7285 13.2373Q12.5684 12.4316 12.5684 11.123Q12.5684 9.89258 11.7773 9.11133Q10.9863 8.33008 9.74609 8.33008Q9.14062 8.33008 8.56934 8.59375Q7.99805 8.85742 7.64648 9.31641L7.59766 9.31641L7.88086 5.88867L11.9434 5.88867Q12.0801 5.88867 12.168 5.7959Q12.2559 5.70312 12.2559 5.56641Q12.2559 5.42969 12.168 5.33691Q12.0801 5.24414 11.9434 5.24414L7.75391 5.24414Q7.51953 5.24414 7.38281 5.37109Q7.24609 5.49805 7.22656 5.73242L6.91406 9.62891Q6.9043 9.83398 7.0166 9.95605Q7.12891 10.0781 7.32422 10.0781Q7.4707 10.0781 7.55859 10.0391Q7.64648 10 7.76367 9.88281Q8.24219 9.375 8.68164 9.16992Q9.12109 8.96484 9.67773 8.96484Q10.6348 8.96484 11.2354 9.56543Q11.8359 10.166 11.8359 11.1328Q11.8359 12.1094 11.1963 12.749Q10.5566 13.3887 9.59961 13.3887Q8.80859 13.3887 8.20312 13.0078Q7.59766 12.627 7.43164 12.0117Q7.38281 11.875 7.29492 11.8018Q7.20703 11.7285 7.07031 11.7285Q6.92383 11.7285 6.83594 11.8213Q6.74805 11.9141 6.74805 12.0605Q6.74805 12.1484 6.79688 12.2852Q7.00195 13.0566 7.73438 13.5498Q8.4668 14.043 9.54102 14.043Z" fill="#ffffff"/>
 </g>
</svg>
