<?xml version="1.0" encoding="UTF-8"?>
<!--Generator: Apple Native CoreSVG 175-->
<!DOCTYPE svg
PUBLIC "-//W3C//DTD SVG 1.1//EN"
       "http://www.w3.org/Graphics/SVG/1.1/DTD/svg11.dtd">
<svg version="1.1" xmlns="http://www.w3.org/2000/svg" xmlns:xlink="http://www.w3.org/1999/xlink" width="19.1602" height="19.1504">
 <g>
  <rect height="19.1504" opacity="0" width="19.1602" x="0" y="0"/>
  <path d="M9.57031 19.1406Q11.5527 19.1406 13.2861 18.3984Q15.0195 17.6562 16.3379 16.333Q17.6562 15.0098 18.4082 13.2764Q19.1602 11.543 19.1602 9.57031Q19.1602 7.59766 18.4082 5.86426Q17.6562 4.13086 16.3379 2.80762Q15.0195 1.48438 13.2861 0.742188Q11.5527 0 9.57031 0Q7.59766 0 5.86426 0.742188Q4.13086 1.48438 2.81738 2.80762Q1.50391 4.13086 0.751953 5.86426Q0 7.59766 0 9.57031Q0 11.543 0.74707 13.2764Q1.49414 15.0098 2.8125 16.333Q4.13086 17.6562 5.86914 18.3984Q7.60742 19.1406 9.57031 19.1406Z" fill="#ffffff"/>
  <path d="M6.34766 13.6816Q5.51758 13.6816 4.89258 13.1641Q4.26758 12.6465 3.91602 11.7236Q3.56445 10.8008 3.56445 9.57031Q3.56445 8.33984 3.91602 7.41211Q4.26758 6.48438 4.89258 5.97168Q5.51758 5.45898 6.34766 5.45898Q7.17773 5.45898 7.80273 5.97168Q8.42773 6.48438 8.7793 7.41211Q9.13086 8.33984 9.13086 9.57031Q9.13086 10.8008 8.7793 11.7236Q8.42773 12.6465 7.80273 13.1641Q7.17773 13.6816 6.34766 13.6816ZM6.34766 13.0273Q7.28516 13.0273 7.86133 12.0752Q8.4375 11.123 8.4375 9.57031Q8.4375 8.01758 7.86133 7.06543Q7.28516 6.11328 6.34766 6.11328Q5.41992 6.11328 4.83398 7.06543Q4.24805 8.01758 4.24805 9.57031Q4.24805 11.123 4.83398 12.0752Q5.41992 13.0273 6.34766 13.0273ZM13.0078 13.6816Q11.7871 13.6816 11.0059 13.0322Q10.2246 12.3828 10.2246 11.3574Q10.2246 10.625 10.6982 10.0684Q11.1719 9.51172 11.9043 9.36523L11.9043 9.31641Q11.2793 9.13086 10.8984 8.64746Q10.5176 8.16406 10.5176 7.54883Q10.5176 6.62109 11.2256 6.04004Q11.9336 5.45898 13.0176 5.45898Q14.082 5.45898 14.7852 6.04004Q15.4883 6.62109 15.4883 7.54883Q15.4883 8.16406 15.1074 8.65723Q14.7266 9.15039 14.1113 9.31641L14.1113 9.36523Q14.8535 9.51172 15.3223 10.0732Q15.791 10.6348 15.791 11.3574Q15.791 12.373 15 13.0273Q14.209 13.6816 13.0078 13.6816ZM13.0176 13.0859Q13.9453 13.0859 14.5459 12.5928Q15.1465 12.0996 15.1465 11.3477Q15.1465 10.6055 14.5459 10.127Q13.9453 9.64844 13.0176 9.64844Q12.0801 9.64844 11.4746 10.127Q10.8691 10.6055 10.8691 11.3477Q10.8691 12.0996 11.4746 12.5928Q12.0801 13.0859 13.0176 13.0859ZM13.0176 9.07227Q13.7988 9.07227 14.3018 8.64258Q14.8047 8.21289 14.8047 7.55859Q14.8047 6.89453 14.3066 6.47461Q13.8086 6.05469 13.0176 6.05469Q12.207 6.05469 11.709 6.47461Q11.2109 6.89453 11.2109 7.55859Q11.2109 8.21289 11.7139 8.64258Q12.2168 9.07227 13.0176 9.07227Z" fill="#ffffff"/>
 </g>
</svg>
