<?xml version="1.0" encoding="UTF-8"?>
<!--Generator: Apple Native CoreSVG 175-->
<!DOCTYPE svg
PUBLIC "-//W3C//DTD SVG 1.1//EN"
       "http://www.w3.org/Graphics/SVG/1.1/DTD/svg11.dtd">
<svg version="1.1" xmlns="http://www.w3.org/2000/svg" xmlns:xlink="http://www.w3.org/1999/xlink" width="17.2852" height="17.3145">
 <g>
  <rect height="17.3145" opacity="0" width="17.2852" x="0" y="0"/>
  <path d="M2.62695 17.3145L14.6484 17.3145Q15.957 17.3145 16.6211 16.6455Q17.2852 15.9766 17.2852 14.6875L17.2852 2.65625Q17.2852 1.37695 16.6211 0.703125Q15.957 0.0292969 14.6484 0.0292969L2.62695 0.0292969Q1.33789 0.0292969 0.668945 0.693359Q0 1.35742 0 2.65625L0 14.6875Q0 15.9863 0.668945 16.6504Q1.33789 17.3145 2.62695 17.3145ZM2.65625 16.5918Q1.70898 16.5918 1.2207 16.1035Q0.732422 15.6152 0.732422 14.6582L0.732422 2.69531Q0.732422 1.72852 1.2207 1.24512Q1.70898 0.761719 2.65625 0.761719L14.6289 0.761719Q15.5566 0.761719 16.0596 1.24512Q16.5625 1.72852 16.5625 2.69531L16.5625 14.6582Q16.5625 15.6152 16.0596 16.1035Q15.5566 16.5918 14.6289 16.5918ZM8.64258 13.125Q9.56055 13.125 10.2637 12.5635Q10.9668 12.002 11.3525 10.9961Q11.7383 9.99023 11.7383 8.65234Q11.7383 7.31445 11.3525 6.30859Q10.9668 5.30273 10.2637 4.74121Q9.56055 4.17969 8.64258 4.17969Q7.72461 4.17969 7.02637 4.74121Q6.32812 5.30273 5.9375 6.30859Q5.54688 7.31445 5.54688 8.65234Q5.54688 9.99023 5.9375 10.9961Q6.32812 12.002 7.02637 12.5635Q7.72461 13.125 8.64258 13.125ZM8.64258 12.4609Q7.58789 12.4609 6.93359 11.4062Q6.2793 10.3516 6.2793 8.65234Q6.2793 6.95312 6.93359 5.89844Q7.58789 4.84375 8.64258 4.84375Q9.69727 4.84375 10.3564 5.89844Q11.0156 6.95312 11.0156 8.65234Q11.0156 10.3516 10.3564 11.4062Q9.69727 12.4609 8.64258 12.4609Z" fill="#ffffff"/>
 </g>
</svg>
