<?xml version="1.0" encoding="UTF-8"?>
<!--Generator: Apple Native CoreSVG 175-->
<!DOCTYPE svg
PUBLIC "-//W3C//DTD SVG 1.1//EN"
       "http://www.w3.org/Graphics/SVG/1.1/DTD/svg11.dtd">
<svg version="1.1" xmlns="http://www.w3.org/2000/svg" xmlns:xlink="http://www.w3.org/1999/xlink" width="17.2852" height="17.3145">
 <g>
  <rect height="17.3145" opacity="0" width="17.2852" x="0" y="0"/>
  <path d="M2.62695 17.3145L14.6484 17.3145Q15.957 17.3145 16.6211 16.6455Q17.2852 15.9766 17.2852 14.6875L17.2852 2.65625Q17.2852 1.37695 16.6211 0.703125Q15.957 0.0292969 14.6484 0.0292969L2.62695 0.0292969Q1.33789 0.0292969 0.668945 0.693359Q0 1.35742 0 2.65625L0 14.6875Q0 15.9863 0.668945 16.6504Q1.33789 17.3145 2.62695 17.3145ZM2.65625 16.5918Q1.70898 16.5918 1.2207 16.1035Q0.732422 15.6152 0.732422 14.6582L0.732422 2.69531Q0.732422 1.72852 1.2207 1.24512Q1.70898 0.761719 2.65625 0.761719L14.6289 0.761719Q15.5566 0.761719 16.0596 1.24512Q16.5625 1.72852 16.5625 2.69531L16.5625 14.6582Q16.5625 15.6152 16.0596 16.1035Q15.5566 16.5918 14.6289 16.5918ZM6.5625 12.6758Q6.71875 12.6758 6.80176 12.5879Q6.88477 12.5 6.88477 12.3535L6.88477 10.7227L7.86133 10.7227Q8.16406 10.7227 8.16406 10.4297Q8.16406 10.293 8.07617 10.2002Q7.98828 10.1074 7.86133 10.1074L6.88477 10.1074L6.88477 5.06836Q6.88477 4.83398 6.73828 4.70215Q6.5918 4.57031 6.36719 4.57031Q6.14258 4.57031 5.98633 4.6582Q5.83008 4.74609 5.68359 4.9707Q5.39062 5.41992 4.96094 6.07422Q4.53125 6.72852 4.06738 7.44141Q3.60352 8.1543 3.18848 8.79395Q2.77344 9.43359 2.5 9.85352Q2.44141 9.95117 2.41211 10.0537Q2.38281 10.1562 2.38281 10.2539Q2.38281 10.4883 2.52441 10.6055Q2.66602 10.7227 2.91016 10.7227L6.24023 10.7227L6.24023 12.3535Q6.24023 12.5 6.32812 12.5879Q6.41602 12.6758 6.5625 12.6758ZM6.24023 10.1074L3.10547 10.1074L3.10547 10.0879Q3.26172 9.80469 3.56934 9.32617Q3.87695 8.84766 4.24805 8.27637Q4.61914 7.70508 4.99512 7.13379Q5.37109 6.5625 5.69336 6.0791Q6.01562 5.5957 6.20117 5.30273L6.24023 5.30273ZM12.0117 12.7344Q13.2129 12.7344 13.9551 12.0068Q14.6973 11.2793 14.6973 10.0781Q14.6973 8.96484 13.9697 8.26172Q13.2422 7.55859 12.168 7.55859Q11.377 7.55859 10.752 7.9541Q10.127 8.34961 9.86328 8.97461L9.84375 8.97461Q9.84375 8.95508 9.84375 8.93555Q9.84375 8.91602 9.84375 8.88672Q9.84375 7.14844 10.459 6.17676Q11.0742 5.20508 12.1484 5.20508Q12.7148 5.20508 13.1592 5.46875Q13.6035 5.73242 13.8281 6.18164Q13.8867 6.2793 13.9551 6.33789Q14.0234 6.39648 14.1309 6.39648Q14.2676 6.39648 14.3408 6.30859Q14.4141 6.2207 14.4141 6.09375Q14.4141 6.00586 14.375 5.9082Q14.2871 5.625 13.9941 5.3125Q13.7012 5 13.2373 4.78516Q12.7734 4.57031 12.1582 4.57031Q10.7715 4.57031 10 5.70312Q9.22852 6.83594 9.22852 8.90625Q9.22852 9.64844 9.33594 10.2783Q9.44336 10.9082 9.67773 11.377Q10 12.041 10.5762 12.3877Q11.1523 12.7344 12.0117 12.7344ZM12.0117 12.1191Q11.123 12.1191 10.5518 11.5527Q9.98047 10.9863 9.98047 10.0977Q9.98047 9.24805 10.5518 8.70117Q11.123 8.1543 12.0215 8.1543Q12.9102 8.1543 13.4766 8.69141Q14.043 9.22852 14.043 10.1172Q14.043 11.0352 13.4814 11.5771Q12.9199 12.1191 12.0117 12.1191Z" fill="#ffffff"/>
 </g>
</svg>
