<?xml version="1.0" encoding="UTF-8"?>
<!--Generator: Apple Native CoreSVG 175-->
<!DOCTYPE svg
PUBLIC "-//W3C//DTD SVG 1.1//EN"
       "http://www.w3.org/Graphics/SVG/1.1/DTD/svg11.dtd">
<svg version="1.1" xmlns="http://www.w3.org/2000/svg" xmlns:xlink="http://www.w3.org/1999/xlink" width="19.1602" height="19.1504">
 <g>
  <rect height="19.1504" opacity="0" width="19.1602" x="0" y="0"/>
  <path d="M9.57031 19.1406Q11.5527 19.1406 13.2861 18.3984Q15.0195 17.6562 16.3379 16.333Q17.6562 15.0098 18.4082 13.2764Q19.1602 11.543 19.1602 9.57031Q19.1602 7.59766 18.4082 5.86426Q17.6562 4.13086 16.3379 2.80762Q15.0195 1.48438 13.2861 0.742188Q11.5527 0 9.57031 0Q7.59766 0 5.86426 0.742188Q4.13086 1.48438 2.81738 2.80762Q1.50391 4.13086 0.751953 5.86426Q0 7.59766 0 9.57031Q0 11.543 0.74707 13.2764Q1.49414 15.0098 2.8125 16.333Q4.13086 17.6562 5.86914 18.3984Q7.60742 19.1406 9.57031 19.1406Z" fill="#ffffff"/>
  <path d="M6.20117 13.6523Q5.26367 13.6523 4.58496 13.1738Q3.90625 12.6953 3.69141 12.041Q3.67188 11.9824 3.65723 11.9189Q3.64258 11.8555 3.64258 11.7676Q3.64258 11.6309 3.73047 11.5332Q3.81836 11.4355 3.96484 11.4355Q4.20898 11.4355 4.30664 11.7285Q4.50195 12.3242 5.02441 12.6709Q5.54688 13.0176 6.20117 13.0176Q7.09961 13.0176 7.64648 12.5537Q8.19336 12.0898 8.19336 11.3574Q8.19336 10.6641 7.66113 10.2051Q7.12891 9.74609 6.30859 9.74609L5.51758 9.74609Q5.37109 9.74609 5.28809 9.6582Q5.20508 9.57031 5.20508 9.43359Q5.20508 9.28711 5.29297 9.19922Q5.38086 9.11133 5.51758 9.11133L6.24023 9.11133Q6.97266 9.11133 7.44629 8.66699Q7.91992 8.22266 7.91992 7.56836Q7.91992 6.92383 7.44629 6.52344Q6.97266 6.12305 6.20117 6.12305Q5.49805 6.12305 5.03906 6.47461Q4.58008 6.82617 4.46289 7.41211Q4.42383 7.56836 4.3457 7.6416Q4.26758 7.71484 4.14062 7.71484Q3.96484 7.71484 3.88672 7.61719Q3.80859 7.51953 3.80859 7.36328Q3.80859 7.2168 3.83789 7.08008Q4.01367 6.35742 4.68262 5.92285Q5.35156 5.48828 6.21094 5.48828Q7.25586 5.48828 7.92969 6.0498Q8.60352 6.61133 8.60352 7.49023Q8.60352 8.17383 8.15918 8.7207Q7.71484 9.26758 7.07031 9.38477L7.07031 9.4043Q7.83203 9.48242 8.35449 10.0439Q8.87695 10.6055 8.87695 11.3672Q8.87695 12.3633 8.12012 13.0078Q7.36328 13.6523 6.20117 13.6523ZM12.7344 13.6523Q11.9531 13.6523 11.377 13.2861Q10.8008 12.9199 10.5762 12.5391Q10.4395 12.2852 10.4395 12.1094Q10.4395 11.9727 10.5176 11.8848Q10.5957 11.7969 10.7227 11.7969Q10.9375 11.7969 11.0645 12.0703Q11.2695 12.5 11.7188 12.7686Q12.168 13.0371 12.7344 13.0371Q13.457 13.0371 13.9795 12.6074Q14.502 12.1777 14.7754 11.3379Q15.0488 10.498 15.0488 9.24805L15.0195 9.24805Q14.7266 9.94141 14.1309 10.3271Q13.5352 10.7129 12.6758 10.7129Q11.9629 10.7129 11.4014 10.3809Q10.8398 10.0488 10.5078 9.46289Q10.1758 8.87695 10.1758 8.13477Q10.1758 6.97266 10.9326 6.23047Q11.6895 5.48828 12.8613 5.48828Q14.1211 5.48828 14.8877 6.3916Q15.6543 7.29492 15.6543 9.11133Q15.6543 11.4062 14.9072 12.5293Q14.1602 13.6523 12.7344 13.6523ZM12.8516 10.127Q13.7402 10.127 14.3213 9.55078Q14.9023 8.97461 14.9023 8.11523Q14.9023 7.24609 14.3164 6.66992Q13.7305 6.09375 12.8711 6.09375Q11.9824 6.09375 11.4111 6.65527Q10.8398 7.2168 10.8398 8.0957Q10.8398 8.97461 11.4014 9.55078Q11.9629 10.127 12.8516 10.127Z" fill="#ffffff"/>
 </g>
</svg>
