<?xml version="1.0" encoding="UTF-8"?>
<!--Generator: Apple Native CoreSVG 175-->
<!DOCTYPE svg
PUBLIC "-//W3C//DTD SVG 1.1//EN"
       "http://www.w3.org/Graphics/SVG/1.1/DTD/svg11.dtd">
<svg version="1.1" xmlns="http://www.w3.org/2000/svg" xmlns:xlink="http://www.w3.org/1999/xlink" width="19.1602" height="19.1504">
 <g>
  <rect height="19.1504" opacity="0" width="19.1602" x="0" y="0"/>
  <path d="M9.57031 19.1406Q11.5527 19.1406 13.2861 18.3984Q15.0195 17.6562 16.3379 16.333Q17.6562 15.0098 18.4082 13.2764Q19.1602 11.543 19.1602 9.57031Q19.1602 7.59766 18.4082 5.86426Q17.6562 4.13086 16.3379 2.80762Q15.0195 1.48438 13.2861 0.742188Q11.5527 0 9.57031 0Q7.59766 0 5.86426 0.742188Q4.13086 1.48438 2.81738 2.80762Q1.50391 4.13086 0.751953 5.86426Q0 7.59766 0 9.57031Q0 11.543 0.74707 13.2764Q1.49414 15.0098 2.8125 16.333Q4.13086 17.6562 5.86914 18.3984Q7.60742 19.1406 9.57031 19.1406Z" fill="#ffffff"/>
  <path d="M9.55078 14.0723Q8.45703 14.0723 7.72461 13.5742Q6.99219 13.0762 6.77734 12.3047Q6.72852 12.168 6.72852 12.0703Q6.72852 11.9238 6.82129 11.8359Q6.91406 11.748 7.06055 11.748Q7.1875 11.748 7.27539 11.8164Q7.36328 11.8848 7.41211 12.0312Q7.58789 12.6367 8.19824 13.0225Q8.80859 13.4082 9.59961 13.4082Q10.5664 13.4082 11.2061 12.7686Q11.8457 12.1289 11.8457 11.1426Q11.8457 10.166 11.2451 9.56055Q10.6445 8.95508 9.66797 8.95508Q9.12109 8.95508 8.67676 9.16504Q8.23242 9.375 7.76367 9.89258Q7.64648 10 7.54883 10.0439Q7.45117 10.0879 7.31445 10.0879Q7.10938 10.0879 6.99707 9.96094Q6.88477 9.83398 6.89453 9.62891L7.2168 5.71289Q7.23633 5.47852 7.37305 5.34668Q7.50977 5.21484 7.75391 5.21484L11.9629 5.21484Q12.1094 5.21484 12.1973 5.30762Q12.2852 5.40039 12.2852 5.53711Q12.2852 5.68359 12.1924 5.77637Q12.0996 5.86914 11.9629 5.86914L7.87109 5.86914L7.58789 9.31641L7.64648 9.31641Q7.98828 8.85742 8.56445 8.58887Q9.14062 8.32031 9.75586 8.32031Q10.9961 8.32031 11.792 9.10645Q12.5879 9.89258 12.5879 11.123Q12.5879 12.4512 11.748 13.2617Q10.9082 14.0723 9.55078 14.0723Z" fill="#ffffff"/>
 </g>
</svg>
