<?xml version="1.0" encoding="UTF-8"?>
<!--Generator: Apple Native CoreSVG 175-->
<!DOCTYPE svg
PUBLIC "-//W3C//DTD SVG 1.1//EN"
       "http://www.w3.org/Graphics/SVG/1.1/DTD/svg11.dtd">
<svg version="1.1" xmlns="http://www.w3.org/2000/svg" xmlns:xlink="http://www.w3.org/1999/xlink" width="19.1602" height="19.1504">
 <g>
  <rect height="19.1504" opacity="0" width="19.1602" x="0" y="0"/>
  <path d="M9.57031 19.1406Q11.5527 19.1406 13.2861 18.3984Q15.0195 17.6562 16.3379 16.333Q17.6562 15.0098 18.4082 13.2764Q19.1602 11.543 19.1602 9.57031Q19.1602 7.59766 18.4082 5.86426Q17.6562 4.13086 16.3379 2.80762Q15.0195 1.48438 13.2861 0.742188Q11.5527 0 9.57031 0Q7.59766 0 5.86426 0.742188Q4.13086 1.48438 2.81738 2.80762Q1.50391 4.13086 0.751953 5.86426Q0 7.59766 0 9.57031Q0 11.543 0.74707 13.2764Q1.49414 15.0098 2.8125 16.333Q4.13086 17.6562 5.86914 18.3984Q7.60742 19.1406 9.57031 19.1406Z" fill="#ffffff"/>
  <path d="M6.77734 13.6035Q6.64062 13.6035 6.54785 13.5156Q6.45508 13.4277 6.45508 13.2715L6.45508 6.35742L6.40625 6.35742L4.76562 7.45117Q4.70703 7.49023 4.66309 7.5Q4.61914 7.50977 4.57031 7.50977Q4.44336 7.50977 4.35059 7.41699Q4.25781 7.32422 4.25781 7.19727Q4.25781 7.00195 4.43359 6.89453L6.30859 5.66406Q6.43555 5.58594 6.52344 5.55176Q6.61133 5.51758 6.73828 5.51758Q6.9043 5.51758 7.00684 5.61523Q7.10938 5.71289 7.10938 5.88867L7.10938 13.2715Q7.10938 13.4277 7.02148 13.5156Q6.93359 13.6035 6.77734 13.6035ZM11.9922 13.6816Q11.1621 13.6816 10.5322 13.1641Q9.90234 12.6465 9.55566 11.7236Q9.20898 10.8008 9.20898 9.57031Q9.20898 8.33984 9.55566 7.41211Q9.90234 6.48438 10.5322 5.97168Q11.1621 5.45898 11.9922 5.45898Q12.8125 5.45898 13.4375 5.97168Q14.0625 6.48438 14.4141 7.41211Q14.7656 8.33984 14.7656 9.57031Q14.7656 10.8008 14.4141 11.7236Q14.0625 12.6465 13.4375 13.1641Q12.8125 13.6816 11.9922 13.6816ZM11.9922 13.0273Q12.9199 13.0273 13.5059 12.0752Q14.0918 11.123 14.0918 9.57031Q14.0918 8.01758 13.5059 7.06543Q12.9199 6.11328 11.9922 6.11328Q11.0547 6.11328 10.4736 7.06543Q9.89258 8.01758 9.89258 9.57031Q9.89258 11.123 10.4736 12.0752Q11.0547 13.0273 11.9922 13.0273Z" fill="#ffffff"/>
 </g>
</svg>
