<?xml version="1.0" encoding="UTF-8"?>
<!--Generator: Apple Native CoreSVG 175-->
<!DOCTYPE svg
PUBLIC "-//W3C//DTD SVG 1.1//EN"
       "http://www.w3.org/Graphics/SVG/1.1/DTD/svg11.dtd">
<svg version="1.1" xmlns="http://www.w3.org/2000/svg" xmlns:xlink="http://www.w3.org/1999/xlink" width="17.2852" height="17.3145">
 <g>
  <rect height="17.3145" opacity="0" width="17.2852" x="0" y="0"/>
  <path d="M2.62695 17.3145L14.6484 17.3145Q15.957 17.3145 16.6211 16.6455Q17.2852 15.9766 17.2852 14.6875L17.2852 2.65625Q17.2852 1.37695 16.6211 0.703125Q15.957 0.0292969 14.6484 0.0292969L2.62695 0.0292969Q1.33789 0.0292969 0.668945 0.693359Q0 1.35742 0 2.65625L0 14.6875Q0 15.9863 0.668945 16.6504Q1.33789 17.3145 2.62695 17.3145Z" fill="#ffffff"/>
  <path d="M4.16992 12.6172Q4.00391 12.6172 3.90625 12.5244Q3.80859 12.4316 3.80859 12.2656Q3.80859 12.168 3.83301 12.0947Q3.85742 12.0215 3.92578 11.9531L6.82617 8.59375Q7.29492 8.03711 7.53906 7.60254Q7.7832 7.16797 7.7832 6.68945Q7.7832 6.00586 7.32422 5.59082Q6.86523 5.17578 6.08398 5.17578Q5.33203 5.17578 4.83398 5.59082Q4.33594 6.00586 4.25781 6.66016Q4.22852 6.80664 4.14551 6.88965Q4.0625 6.97266 3.92578 6.97266Q3.76953 6.97266 3.68164 6.875Q3.59375 6.77734 3.59375 6.63086Q3.59375 6.55273 3.60352 6.49414Q3.61328 6.43555 3.62305 6.34766Q3.76953 5.56641 4.46289 5.05371Q5.15625 4.54102 6.07422 4.54102Q7.14844 4.54102 7.80273 5.12207Q8.45703 5.70312 8.45703 6.66992Q8.45703 7.27539 8.1543 7.82715Q7.85156 8.37891 7.19727 9.13086L4.78516 11.9434L4.78516 11.9727L8.37891 11.9727Q8.52539 11.9727 8.6084 12.0605Q8.69141 12.1484 8.69141 12.2949Q8.69141 12.4316 8.6084 12.5244Q8.52539 12.6172 8.37891 12.6172ZM12.7246 12.6855Q12.3926 12.6855 12.3926 12.3535L12.3926 5.44922L12.3535 5.44922L10.7129 6.5332Q10.6445 6.57227 10.6055 6.58203Q10.5664 6.5918 10.5078 6.5918Q10.3809 6.5918 10.2881 6.49902Q10.1953 6.40625 10.1953 6.2793Q10.1953 6.09375 10.3711 5.97656L12.2559 4.74609Q12.373 4.66797 12.4609 4.63379Q12.5488 4.59961 12.6758 4.59961Q12.8418 4.59961 12.9492 4.69727Q13.0566 4.79492 13.0566 4.9707L13.0566 12.3535Q13.0566 12.6855 12.7246 12.6855Z" fill="#ffffff"/>
 </g>
</svg>
