<?xml version="1.0" encoding="UTF-8"?>
<!--Generator: Apple Native CoreSVG 175-->
<!DOCTYPE svg
PUBLIC "-//W3C//DTD SVG 1.1//EN"
       "http://www.w3.org/Graphics/SVG/1.1/DTD/svg11.dtd">
<svg version="1.1" xmlns="http://www.w3.org/2000/svg" xmlns:xlink="http://www.w3.org/1999/xlink" width="19.1602" height="19.1504">
 <g>
  <rect height="19.1504" opacity="0" width="19.1602" x="0" y="0"/>
  <path d="M9.57031 19.1406Q11.5527 19.1406 13.2861 18.3984Q15.0195 17.6562 16.3379 16.333Q17.6562 15.0098 18.4082 13.2764Q19.1602 11.543 19.1602 9.57031Q19.1602 7.59766 18.4082 5.86426Q17.6562 4.13086 16.3379 2.80762Q15.0195 1.48438 13.2861 0.742188Q11.5527 0 9.57031 0Q7.59766 0 5.86426 0.742188Q4.13086 1.48438 2.81738 2.80762Q1.50391 4.13086 0.751953 5.86426Q0 7.59766 0 9.57031Q0 11.543 0.74707 13.2764Q1.49414 15.0098 2.8125 16.333Q4.13086 17.6562 5.86914 18.3984Q7.60742 19.1406 9.57031 19.1406Z" fill="#ffffff"/>
  <path d="M6.31836 13.6816Q5.48828 13.6816 4.86328 13.1641Q4.23828 12.6465 3.88672 11.7236Q3.53516 10.8008 3.53516 9.57031Q3.53516 8.33984 3.88672 7.41211Q4.23828 6.48438 4.86328 5.97168Q5.48828 5.45898 6.31836 5.45898Q7.14844 5.45898 7.77344 5.97168Q8.39844 6.48438 8.75 7.41211Q9.10156 8.33984 9.10156 9.57031Q9.10156 10.8008 8.75 11.7236Q8.39844 12.6465 7.77344 13.1641Q7.14844 13.6816 6.31836 13.6816ZM6.31836 13.0273Q7.25586 13.0273 7.83203 12.0752Q8.4082 11.123 8.4082 9.57031Q8.4082 8.01758 7.83203 7.06543Q7.25586 6.11328 6.31836 6.11328Q5.39062 6.11328 4.80469 7.06543Q4.21875 8.01758 4.21875 9.57031Q4.21875 11.123 4.80469 12.0752Q5.39062 13.0273 6.31836 13.0273ZM12.7734 13.6816Q11.9922 13.6816 11.4062 13.3154Q10.8203 12.9492 10.6055 12.5586Q10.5469 12.4512 10.5029 12.3389Q10.459 12.2266 10.459 12.1191Q10.459 11.9824 10.5371 11.8945Q10.6152 11.8066 10.752 11.8066Q10.957 11.8066 11.0938 12.0898Q11.3086 12.5195 11.7627 12.7881Q12.2168 13.0566 12.7734 13.0566Q13.5059 13.0566 14.0283 12.627Q14.5508 12.1973 14.8242 11.3525Q15.0977 10.5078 15.0977 9.24805L15.0781 9.24805Q14.7754 9.94141 14.1797 10.332Q13.584 10.7227 12.7246 10.7227Q12.002 10.7227 11.4355 10.3809Q10.8691 10.0391 10.5371 9.45801Q10.2051 8.87695 10.2051 8.13477Q10.2051 6.95312 10.9668 6.20605Q11.7285 5.45898 12.9004 5.45898Q14.1699 5.45898 14.9463 6.36719Q15.7227 7.27539 15.7227 9.10156Q15.7227 11.416 14.9658 12.5488Q14.209 13.6816 12.7734 13.6816ZM12.9004 10.127Q13.7891 10.127 14.3701 9.55078Q14.9512 8.97461 14.9512 8.10547Q14.9512 7.22656 14.3652 6.65039Q13.7793 6.07422 12.9199 6.07422Q12.0312 6.07422 11.4502 6.63574Q10.8691 7.19727 10.8691 8.08594Q10.8691 8.96484 11.4355 9.5459Q12.002 10.127 12.9004 10.127Z" fill="#ffffff"/>
 </g>
</svg>
