<?xml version="1.0" encoding="UTF-8"?>
<!--Generator: Apple Native CoreSVG 175-->
<!DOCTYPE svg
PUBLIC "-//W3C//DTD SVG 1.1//EN"
       "http://www.w3.org/Graphics/SVG/1.1/DTD/svg11.dtd">
<svg version="1.1" xmlns="http://www.w3.org/2000/svg" xmlns:xlink="http://www.w3.org/1999/xlink" width="19.1602" height="19.1504">
 <g>
  <rect height="19.1504" opacity="0" width="19.1602" x="0" y="0"/>
  <path d="M9.57031 19.1406Q11.5527 19.1406 13.2861 18.3984Q15.0195 17.6562 16.3379 16.333Q17.6562 15.0098 18.4082 13.2764Q19.1602 11.543 19.1602 9.57031Q19.1602 7.59766 18.4082 5.86426Q17.6562 4.13086 16.3379 2.80762Q15.0195 1.48438 13.2861 0.742188Q11.5527 0 9.57031 0Q7.59766 0 5.86426 0.742188Q4.13086 1.48438 2.81738 2.80762Q1.50391 4.13086 0.751953 5.86426Q0 7.59766 0 9.57031Q0 11.543 0.74707 13.2764Q1.49414 15.0098 2.8125 16.333Q4.13086 17.6562 5.86914 18.3984Q7.60742 19.1406 9.57031 19.1406Z" fill="#ffffff"/>
  <path d="M4.36523 13.5352Q4.19922 13.5352 4.10156 13.4424Q4.00391 13.3496 4.00391 13.1836Q4.00391 13.0859 4.02832 13.0127Q4.05273 12.9395 4.12109 12.8711L7.02148 9.50195Q7.49023 8.95508 7.73438 8.52051Q7.97852 8.08594 7.97852 7.60742Q7.97852 6.92383 7.51953 6.50879Q7.06055 6.09375 6.2793 6.09375Q5.52734 6.09375 5.0293 6.50879Q4.53125 6.92383 4.45312 7.57812Q4.42383 7.72461 4.34082 7.80762Q4.25781 7.89062 4.12109 7.89062Q3.96484 7.89062 3.87695 7.79297Q3.78906 7.69531 3.78906 7.54883Q3.78906 7.4707 3.79883 7.41211Q3.80859 7.35352 3.81836 7.26562Q3.96484 6.48438 4.6582 5.97168Q5.35156 5.45898 6.26953 5.45898Q7.34375 5.45898 7.99805 6.04004Q8.65234 6.62109 8.65234 7.58789Q8.65234 8.19336 8.34473 8.74512Q8.03711 9.29688 7.39258 10.0488L4.98047 12.8516L4.98047 12.8906L8.57422 12.8906Q8.7207 12.8906 8.80371 12.9785Q8.88672 13.0664 8.88672 13.2129Q8.88672 13.3496 8.80371 13.4424Q8.7207 13.5352 8.57422 13.5352ZM12.8418 13.6816Q11.6211 13.6816 10.8398 13.0322Q10.0586 12.3828 10.0586 11.3574Q10.0586 10.625 10.5273 10.0684Q10.9961 9.51172 11.7383 9.36523L11.7383 9.31641Q11.1133 9.13086 10.7373 8.64746Q10.3613 8.16406 10.3613 7.54883Q10.3613 6.62109 11.0596 6.04004Q11.7578 5.45898 12.8418 5.45898Q13.916 5.45898 14.6191 6.04004Q15.3223 6.62109 15.3223 7.54883Q15.3223 8.16406 14.9414 8.65723Q14.5605 9.15039 13.9453 9.31641L13.9453 9.36523Q14.6777 9.51172 15.1514 10.0732Q15.625 10.6348 15.625 11.3574Q15.625 12.373 14.834 13.0273Q14.043 13.6816 12.8418 13.6816ZM12.8418 13.0859Q13.7793 13.0859 14.3799 12.5928Q14.9805 12.0996 14.9805 11.3477Q14.9805 10.6055 14.3799 10.127Q13.7793 9.64844 12.8418 9.64844Q11.9043 9.64844 11.3037 10.127Q10.7031 10.6055 10.7031 11.3477Q10.7031 12.0996 11.3037 12.5928Q11.9043 13.0859 12.8418 13.0859ZM12.8418 9.07227Q13.6328 9.07227 14.1357 8.64258Q14.6387 8.21289 14.6387 7.55859Q14.6387 6.89453 14.1406 6.47461Q13.6426 6.05469 12.8418 6.05469Q12.041 6.05469 11.5381 6.47461Q11.0352 6.89453 11.0352 7.55859Q11.0352 8.21289 11.543 8.64258Q12.0508 9.07227 12.8418 9.07227Z" fill="#ffffff"/>
 </g>
</svg>
