<?xml version="1.0" encoding="UTF-8"?>
<!--Generator: Apple Native CoreSVG 175-->
<!DOCTYPE svg
PUBLIC "-//W3C//DTD SVG 1.1//EN"
       "http://www.w3.org/Graphics/SVG/1.1/DTD/svg11.dtd">
<svg version="1.1" xmlns="http://www.w3.org/2000/svg" xmlns:xlink="http://www.w3.org/1999/xlink" width="17.2852" height="17.3145">
 <g>
  <rect height="17.3145" opacity="0" width="17.2852" x="0" y="0"/>
  <path d="M2.62695 17.3145L14.6484 17.3145Q15.957 17.3145 16.6211 16.6455Q17.2852 15.9766 17.2852 14.6875L17.2852 2.65625Q17.2852 1.37695 16.6211 0.703125Q15.957 0.0292969 14.6484 0.0292969L2.62695 0.0292969Q1.33789 0.0292969 0.668945 0.693359Q0 1.35742 0 2.65625L0 14.6875Q0 15.9863 0.668945 16.6504Q1.33789 17.3145 2.62695 17.3145Z" fill="#ffffff"/>
  <path d="M5.41992 12.7637Q4.58984 12.7637 3.96484 12.2461Q3.33984 11.7285 2.98828 10.8057Q2.63672 9.88281 2.63672 8.65234Q2.63672 7.42188 2.98828 6.49414Q3.33984 5.56641 3.96484 5.05371Q4.58984 4.54102 5.41992 4.54102Q6.25 4.54102 6.875 5.05371Q7.5 5.56641 7.85156 6.49414Q8.20312 7.42188 8.20312 8.65234Q8.20312 9.88281 7.85156 10.8057Q7.5 11.7285 6.875 12.2461Q6.25 12.7637 5.41992 12.7637ZM5.41992 12.1094Q6.35742 12.1094 6.93359 11.1572Q7.50977 10.2051 7.50977 8.65234Q7.50977 7.09961 6.93359 6.14746Q6.35742 5.19531 5.41992 5.19531Q4.49219 5.19531 3.90625 6.14746Q3.32031 7.09961 3.32031 8.65234Q3.32031 10.2051 3.90625 11.1572Q4.49219 12.1094 5.41992 12.1094ZM12.0801 12.7637Q10.8594 12.7637 10.0781 12.1143Q9.29688 11.4648 9.29688 10.4395Q9.29688 9.70703 9.77051 9.15039Q10.2441 8.59375 10.9766 8.44727L10.9766 8.39844Q10.3516 8.21289 9.9707 7.72949Q9.58984 7.24609 9.58984 6.63086Q9.58984 5.70312 10.2979 5.12207Q11.0059 4.54102 12.0898 4.54102Q13.1543 4.54102 13.8574 5.12207Q14.5605 5.70312 14.5605 6.63086Q14.5605 7.24609 14.1797 7.73926Q13.7988 8.23242 13.1836 8.39844L13.1836 8.44727Q13.9258 8.59375 14.3945 9.15527Q14.8633 9.7168 14.8633 10.4395Q14.8633 11.4551 14.0723 12.1094Q13.2812 12.7637 12.0801 12.7637ZM12.0898 12.168Q13.0176 12.168 13.6182 11.6748Q14.2188 11.1816 14.2188 10.4297Q14.2188 9.6875 13.6182 9.20898Q13.0176 8.73047 12.0898 8.73047Q11.1523 8.73047 10.5469 9.20898Q9.94141 9.6875 9.94141 10.4297Q9.94141 11.1816 10.5469 11.6748Q11.1523 12.168 12.0898 12.168ZM12.0898 8.1543Q12.8711 8.1543 13.374 7.72461Q13.877 7.29492 13.877 6.64062Q13.877 5.97656 13.3789 5.55664Q12.8809 5.13672 12.0898 5.13672Q11.2793 5.13672 10.7812 5.55664Q10.2832 5.97656 10.2832 6.64062Q10.2832 7.29492 10.7861 7.72461Q11.2891 8.1543 12.0898 8.1543Z" fill="#ffffff"/>
 </g>
</svg>
