<?xml version="1.0" encoding="UTF-8"?>
<!--Generator: Apple Native CoreSVG 175-->
<!DOCTYPE svg
PUBLIC "-//W3C//DTD SVG 1.1//EN"
       "http://www.w3.org/Graphics/SVG/1.1/DTD/svg11.dtd">
<svg version="1.1" xmlns="http://www.w3.org/2000/svg" xmlns:xlink="http://www.w3.org/1999/xlink" width="19.1602" height="19.1504">
 <g>
  <rect height="19.1504" opacity="0" width="19.1602" x="0" y="0"/>
  <path d="M9.57031 19.1406Q11.5527 19.1406 13.2861 18.3984Q15.0195 17.6562 16.3379 16.333Q17.6562 15.0098 18.4082 13.2764Q19.1602 11.543 19.1602 9.57031Q19.1602 7.59766 18.4082 5.86426Q17.6562 4.13086 16.3379 2.80762Q15.0195 1.48438 13.2861 0.742188Q11.5527 0 9.57031 0Q7.59766 0 5.86426 0.742188Q4.13086 1.48438 2.81738 2.80762Q1.50391 4.13086 0.751953 5.86426Q0 7.59766 0 9.57031Q0 11.543 0.74707 13.2764Q1.49414 15.0098 2.8125 16.333Q4.13086 17.6562 5.86914 18.3984Q7.60742 19.1406 9.57031 19.1406Z" fill="#ffffff"/>
  <path d="M4.56055 13.5352Q4.39453 13.5352 4.29688 13.4424Q4.19922 13.3496 4.19922 13.1836Q4.19922 12.998 4.31641 12.8711L7.2168 9.50195Q7.68555 8.95508 7.92969 8.52051Q8.17383 8.08594 8.17383 7.60742Q8.17383 6.92383 7.71484 6.50879Q7.25586 6.09375 6.47461 6.09375Q5.72266 6.09375 5.22461 6.50879Q4.72656 6.92383 4.64844 7.57812Q4.61914 7.72461 4.53613 7.80762Q4.45312 7.89062 4.31641 7.89062Q4.16016 7.89062 4.07227 7.79297Q3.98438 7.69531 3.98438 7.54883Q3.98438 7.4707 3.99414 7.41211Q4.00391 7.35352 4.01367 7.26562Q4.16016 6.48438 4.85352 5.97168Q5.54688 5.45898 6.46484 5.45898Q7.53906 5.45898 8.19336 6.04004Q8.84766 6.62109 8.84766 7.58789Q8.84766 8.19336 8.54004 8.74512Q8.23242 9.29688 7.58789 10.0488L5.17578 12.8516L5.17578 12.8906L8.76953 12.8906Q8.91602 12.8906 8.99902 12.9785Q9.08203 13.0664 9.08203 13.2129Q9.08203 13.3496 8.99902 13.4424Q8.91602 13.5352 8.76953 13.5352ZM14.209 13.6328Q14.0723 13.6328 13.9795 13.5352Q13.8867 13.4375 13.8867 13.291L13.8867 11.6699L10.5273 11.6699Q10.293 11.6699 10.1514 11.543Q10.0098 11.416 10.0098 11.1816Q10.0098 11.084 10.0391 10.9766Q10.0684 10.8691 10.1172 10.7715Q10.4004 10.3516 10.8203 9.70703Q11.2402 9.0625 11.7041 8.34473Q12.168 7.62695 12.5977 6.97266Q13.0273 6.31836 13.3203 5.86914Q13.4668 5.63477 13.6279 5.54688Q13.7891 5.45898 14.0039 5.45898Q14.248 5.45898 14.3896 5.5957Q14.5312 5.73242 14.5312 5.9668L14.5312 11.0352L15.5176 11.0352Q15.6543 11.0352 15.7373 11.1279Q15.8203 11.2207 15.8203 11.3574Q15.8203 11.4941 15.7422 11.582Q15.6641 11.6699 15.5176 11.6699L14.5312 11.6699L14.5312 13.291Q14.5312 13.4375 14.4531 13.5352Q14.375 13.6328 14.209 13.6328ZM13.8867 11.0352L13.8867 6.20117L13.8574 6.20117Q13.6621 6.50391 13.3398 6.9873Q13.0176 7.4707 12.6367 8.05176Q12.2559 8.63281 11.8848 9.19922Q11.5137 9.76562 11.2109 10.249Q10.9082 10.7324 10.7324 11.0156L10.7324 11.0352Z" fill="#ffffff"/>
 </g>
</svg>
