<?xml version="1.0" encoding="UTF-8"?>
<!--Generator: Apple Native CoreSVG 175-->
<!DOCTYPE svg
PUBLIC "-//W3C//DTD SVG 1.1//EN"
       "http://www.w3.org/Graphics/SVG/1.1/DTD/svg11.dtd">
<svg version="1.1" xmlns="http://www.w3.org/2000/svg" xmlns:xlink="http://www.w3.org/1999/xlink" width="17.2852" height="17.3145">
 <g>
  <rect height="17.3145" opacity="0" width="17.2852" x="0" y="0"/>
  <path d="M2.62695 17.3145L14.6484 17.3145Q15.957 17.3145 16.6211 16.6455Q17.2852 15.9766 17.2852 14.6875L17.2852 2.65625Q17.2852 1.37695 16.6211 0.703125Q15.957 0.0292969 14.6484 0.0292969L2.62695 0.0292969Q1.33789 0.0292969 0.668945 0.693359Q0 1.35742 0 2.65625L0 14.6875Q0 15.9863 0.668945 16.6504Q1.33789 17.3145 2.62695 17.3145ZM2.65625 16.5918Q1.70898 16.5918 1.2207 16.1035Q0.732422 15.6152 0.732422 14.6582L0.732422 2.69531Q0.732422 1.72852 1.2207 1.24512Q1.70898 0.761719 2.65625 0.761719L14.6289 0.761719Q15.5566 0.761719 16.0596 1.24512Q16.5625 1.72852 16.5625 2.69531L16.5625 14.6582Q16.5625 15.6152 16.0596 16.1035Q15.5566 16.5918 14.6289 16.5918ZM5.76172 12.7344Q6.92383 12.7344 7.67578 12.0898Q8.42773 11.4453 8.42773 10.4492Q8.42773 9.6875 7.91016 9.12598Q7.39258 8.56445 6.63086 8.48633L6.63086 8.4668Q7.28516 8.34961 7.72461 7.80273Q8.16406 7.25586 8.16406 6.57227Q8.16406 5.69336 7.48535 5.13184Q6.80664 4.57031 5.77148 4.57031Q4.91211 4.57031 4.24316 5.00488Q3.57422 5.43945 3.39844 6.16211Q3.36914 6.29883 3.36914 6.44531Q3.36914 6.60156 3.45215 6.69922Q3.53516 6.79688 3.70117 6.79688Q3.82812 6.79688 3.90625 6.72363Q3.98438 6.65039 4.02344 6.49414Q4.14062 5.9082 4.59961 5.55664Q5.05859 5.20508 5.76172 5.20508Q6.5332 5.20508 7.01172 5.60547Q7.49023 6.00586 7.49023 6.65039Q7.49023 7.30469 7.01172 7.74902Q6.5332 8.19336 5.80078 8.19336L5.07812 8.19336Q4.94141 8.19336 4.85352 8.28125Q4.76562 8.36914 4.76562 8.51562Q4.76562 8.65234 4.84863 8.74023Q4.93164 8.82812 5.07812 8.82812L5.86914 8.82812Q6.68945 8.82812 7.22168 9.28711Q7.75391 9.74609 7.75391 10.4395Q7.75391 11.1719 7.20703 11.6357Q6.66016 12.0996 5.77148 12.0996Q5.10742 12.0996 4.58008 11.7529Q4.05273 11.4062 3.85742 10.8105Q3.75977 10.5176 3.53516 10.5176Q3.38867 10.5176 3.2959 10.6152Q3.20312 10.7129 3.20312 10.8496Q3.20312 10.9375 3.21777 11.001Q3.23242 11.0645 3.25195 11.123Q3.45703 11.7773 4.14062 12.2559Q4.82422 12.7344 5.76172 12.7344ZM10.7812 12.666Q10.8984 12.666 10.9766 12.6074Q11.0547 12.5488 11.123 12.4219L14.5508 5.50781Q14.6094 5.37109 14.6338 5.29297Q14.6582 5.21484 14.6582 5.12695Q14.6582 4.91211 14.5068 4.78516Q14.3555 4.6582 14.1211 4.6582L9.85352 4.6582Q9.69727 4.6582 9.60938 4.74121Q9.52148 4.82422 9.52148 4.9707Q9.52148 5.10742 9.60938 5.19531Q9.69727 5.2832 9.85352 5.2832L13.9355 5.2832L13.9355 5.32227L10.4883 12.1094Q10.4297 12.207 10.4297 12.334Q10.4297 12.4609 10.5225 12.5635Q10.6152 12.666 10.7812 12.666Z" fill="#ffffff"/>
 </g>
</svg>
