<?xml version="1.0" encoding="UTF-8"?>
<!--Generator: Apple Native CoreSVG 175-->
<!DOCTYPE svg
PUBLIC "-//W3C//DTD SVG 1.1//EN"
       "http://www.w3.org/Graphics/SVG/1.1/DTD/svg11.dtd">
<svg version="1.1" xmlns="http://www.w3.org/2000/svg" xmlns:xlink="http://www.w3.org/1999/xlink" width="17.2852" height="17.3145">
 <g>
  <rect height="17.3145" opacity="0" width="17.2852" x="0" y="0"/>
  <path d="M2.62695 17.3145L14.6484 17.3145Q15.957 17.3145 16.6211 16.6455Q17.2852 15.9766 17.2852 14.6875L17.2852 2.65625Q17.2852 1.37695 16.6211 0.703125Q15.957 0.0292969 14.6484 0.0292969L2.62695 0.0292969Q1.33789 0.0292969 0.668945 0.693359Q0 1.35742 0 2.65625L0 14.6875Q0 15.9863 0.668945 16.6504Q1.33789 17.3145 2.62695 17.3145ZM2.65625 16.5918Q1.70898 16.5918 1.2207 16.1035Q0.732422 15.6152 0.732422 14.6582L0.732422 2.69531Q0.732422 1.72852 1.2207 1.24512Q1.70898 0.761719 2.65625 0.761719L14.6289 0.761719Q15.5566 0.761719 16.0596 1.24512Q16.5625 1.72852 16.5625 2.69531L16.5625 14.6582Q16.5625 15.6152 16.0596 16.1035Q15.5566 16.5918 14.6289 16.5918ZM5.67383 12.6562Q6.00586 12.6562 6.00586 12.334L6.00586 4.99023Q6.00586 4.82422 5.89844 4.72656Q5.79102 4.62891 5.63477 4.62891Q5.51758 4.62891 5.4248 4.66309Q5.33203 4.69727 5.22461 4.76562L3.33984 5.99609Q3.17383 6.10352 3.17383 6.28906Q3.17383 6.41602 3.26172 6.50879Q3.34961 6.60156 3.47656 6.60156Q3.53516 6.60156 3.57422 6.59668Q3.61328 6.5918 3.67188 6.54297L5.3125 5.45898L5.35156 5.45898L5.35156 12.334Q5.35156 12.6562 5.67383 12.6562ZM11.0742 12.7344Q12.2754 12.7344 13.0566 12.085Q13.8379 11.4355 13.8379 10.4199Q13.8379 9.70703 13.374 9.15039Q12.9102 8.59375 12.1777 8.44727L12.1777 8.39844Q12.793 8.22266 13.1738 7.73438Q13.5547 7.24609 13.5547 6.64062Q13.5547 5.72266 12.8516 5.14648Q12.1484 4.57031 11.084 4.57031Q10.0098 4.57031 9.31152 5.14648Q8.61328 5.72266 8.61328 6.64062Q8.61328 7.24609 8.98926 7.72461Q9.36523 8.20312 9.99023 8.39844L9.99023 8.44727Q9.24805 8.59375 8.78418 9.15039Q8.32031 9.70703 8.32031 10.4199Q8.32031 11.4453 9.09668 12.0898Q9.87305 12.7344 11.0742 12.7344ZM11.0742 12.1484Q10.1562 12.1484 9.55566 11.6602Q8.95508 11.1719 8.95508 10.4102Q8.95508 9.6875 9.55566 9.20898Q10.1562 8.73047 11.0742 8.73047Q12.0117 8.73047 12.6074 9.20898Q13.2031 9.6875 13.2031 10.4102Q13.2031 11.1719 12.6074 11.6602Q12.0117 12.1484 11.0742 12.1484ZM11.084 8.16406Q10.293 8.16406 9.79004 7.73438Q9.28711 7.30469 9.28711 6.66016Q9.28711 5.99609 9.78516 5.57617Q10.2832 5.15625 11.084 5.15625Q11.875 5.15625 12.373 5.57617Q12.8711 5.99609 12.8711 6.66016Q12.8711 7.30469 12.3682 7.73438Q11.8652 8.16406 11.084 8.16406Z" fill="#ffffff"/>
 </g>
</svg>
