<?xml version="1.0" encoding="UTF-8"?>
<!--Generator: Apple Native CoreSVG 175-->
<!DOCTYPE svg
PUBLIC "-//W3C//DTD SVG 1.1//EN"
       "http://www.w3.org/Graphics/SVG/1.1/DTD/svg11.dtd">
<svg version="1.1" xmlns="http://www.w3.org/2000/svg" xmlns:xlink="http://www.w3.org/1999/xlink" width="19.1602" height="19.1504">
 <g>
  <rect height="19.1504" opacity="0" width="19.1602" x="0" y="0"/>
  <path d="M9.57031 19.1406Q11.5527 19.1406 13.2861 18.3984Q15.0195 17.6562 16.3379 16.333Q17.6562 15.0098 18.4082 13.2764Q19.1602 11.543 19.1602 9.57031Q19.1602 7.59766 18.4082 5.86426Q17.6562 4.13086 16.3379 2.80762Q15.0195 1.48438 13.2861 0.742188Q11.5527 0 9.57031 0Q7.59766 0 5.86426 0.742188Q4.13086 1.48438 2.81738 2.80762Q1.50391 4.13086 0.751953 5.86426Q0 7.59766 0 9.57031Q0 11.543 0.74707 13.2764Q1.49414 15.0098 2.8125 16.333Q4.13086 17.6562 5.86914 18.3984Q7.60742 19.1406 9.57031 19.1406Z" fill="#ffffff"/>
  <path d="M6.81641 13.6035Q6.67969 13.6035 6.58691 13.5156Q6.49414 13.4277 6.49414 13.2715L6.49414 6.36719L6.45508 6.36719L4.80469 7.45117Q4.74609 7.49023 4.70215 7.5Q4.6582 7.50977 4.60938 7.50977Q4.48242 7.50977 4.38965 7.41699Q4.29688 7.32422 4.29688 7.19727Q4.29688 7.01172 4.47266 6.89453L6.35742 5.66406Q6.47461 5.58594 6.5625 5.55176Q6.65039 5.51758 6.77734 5.51758Q6.93359 5.51758 7.04102 5.61523Q7.14844 5.71289 7.14844 5.88867L7.14844 13.2715Q7.14844 13.6035 6.81641 13.6035ZM9.96094 13.5352Q9.80469 13.5352 9.70215 13.4424Q9.59961 13.3496 9.59961 13.1836Q9.59961 13.0078 9.7168 12.8711L12.6172 9.51172Q13.0859 8.95508 13.3301 8.52051Q13.5742 8.08594 13.5742 7.60742Q13.5742 6.92383 13.1201 6.50879Q12.666 6.09375 11.875 6.09375Q11.123 6.09375 10.625 6.50879Q10.127 6.92383 10.0586 7.57812Q10.0195 7.72461 9.94141 7.80762Q9.86328 7.89062 9.7168 7.89062Q9.56055 7.89062 9.47754 7.79297Q9.39453 7.69531 9.39453 7.54883Q9.39453 7.4707 9.39941 7.41211Q9.4043 7.35352 9.41406 7.26562Q9.57031 6.48438 10.2637 5.97168Q10.957 5.45898 11.8652 5.45898Q12.9492 5.45898 13.6035 6.04004Q14.2578 6.62109 14.2578 7.58789Q14.2578 8.19336 13.9502 8.74512Q13.6426 9.29688 12.9883 10.0488L10.5859 12.8613L10.5859 12.8906L14.1797 12.8906Q14.3164 12.8906 14.3994 12.9785Q14.4824 13.0664 14.4824 13.2129Q14.4824 13.3496 14.3994 13.4424Q14.3164 13.5352 14.1797 13.5352Z" fill="#ffffff"/>
 </g>
</svg>
