<?xml version="1.0" encoding="UTF-8"?>
<!--Generator: Apple Native CoreSVG 175-->
<!DOCTYPE svg
PUBLIC "-//W3C//DTD SVG 1.1//EN"
       "http://www.w3.org/Graphics/SVG/1.1/DTD/svg11.dtd">
<svg version="1.1" xmlns="http://www.w3.org/2000/svg" xmlns:xlink="http://www.w3.org/1999/xlink" width="17.2852" height="17.3145">
 <g>
  <rect height="17.3145" opacity="0" width="17.2852" x="0" y="0"/>
  <path d="M2.62695 17.3145L14.6484 17.3145Q15.957 17.3145 16.6211 16.6455Q17.2852 15.9766 17.2852 14.6875L17.2852 2.65625Q17.2852 1.37695 16.6211 0.703125Q15.957 0.0292969 14.6484 0.0292969L2.62695 0.0292969Q1.33789 0.0292969 0.668945 0.693359Q0 1.35742 0 2.65625L0 14.6875Q0 15.9863 0.668945 16.6504Q1.33789 17.3145 2.62695 17.3145Z" fill="#ffffff"/>
  <path d="M5.71289 12.7637Q4.88281 12.7637 4.25781 12.2461Q3.63281 11.7285 3.28125 10.8057Q2.92969 9.88281 2.92969 8.65234Q2.92969 7.42188 3.28125 6.49414Q3.63281 5.56641 4.25781 5.05371Q4.88281 4.54102 5.71289 4.54102Q6.54297 4.54102 7.16797 5.05371Q7.79297 5.56641 8.14453 6.49414Q8.49609 7.42188 8.49609 8.65234Q8.49609 9.88281 8.14453 10.8057Q7.79297 11.7285 7.16797 12.2461Q6.54297 12.7637 5.71289 12.7637ZM5.71289 12.1094Q6.65039 12.1094 7.22656 11.1572Q7.80273 10.2051 7.80273 8.65234Q7.80273 7.09961 7.22168 6.14746Q6.64062 5.19531 5.71289 5.19531Q4.77539 5.19531 4.19434 6.14746Q3.61328 7.09961 3.61328 8.65234Q3.61328 10.2051 4.19434 11.1572Q4.77539 12.1094 5.71289 12.1094ZM10.7324 12.6953Q10.5664 12.6953 10.4736 12.5928Q10.3809 12.4902 10.3809 12.3535Q10.3809 12.2266 10.4395 12.1289L13.8965 5.3125L13.8965 5.26367L9.80469 5.26367Q9.64844 5.26367 9.55566 5.17578Q9.46289 5.08789 9.46289 4.95117Q9.46289 4.80469 9.55566 4.7168Q9.64844 4.62891 9.80469 4.62891L14.082 4.62891Q14.3262 4.62891 14.4775 4.76074Q14.6289 4.89258 14.6289 5.09766Q14.6289 5.19531 14.6045 5.27344Q14.5801 5.35156 14.5215 5.48828L11.0742 12.4414Q11.0059 12.5781 10.9277 12.6367Q10.8496 12.6953 10.7324 12.6953Z" fill="#ffffff"/>
 </g>
</svg>
