<?xml version="1.0" encoding="UTF-8"?>
<!--Generator: Apple Native CoreSVG 175-->
<!DOCTYPE svg
PUBLIC "-//W3C//DTD SVG 1.1//EN"
       "http://www.w3.org/Graphics/SVG/1.1/DTD/svg11.dtd">
<svg version="1.1" xmlns="http://www.w3.org/2000/svg" xmlns:xlink="http://www.w3.org/1999/xlink" width="19.1602" height="19.1504">
 <g>
  <rect height="19.1504" opacity="0" width="19.1602" x="0" y="0"/>
  <path d="M9.57031 19.1406Q11.5527 19.1406 13.2861 18.3984Q15.0195 17.6562 16.3379 16.333Q17.6562 15.0098 18.4082 13.2764Q19.1602 11.543 19.1602 9.57031Q19.1602 7.59766 18.4082 5.86426Q17.6562 4.13086 16.3379 2.80762Q15.0195 1.48438 13.2861 0.742188Q11.5527 0 9.57031 0Q7.59766 0 5.86426 0.742188Q4.13086 1.48438 2.81738 2.80762Q1.50391 4.13086 0.751953 5.86426Q0 7.59766 0 9.57031Q0 11.543 0.74707 13.2764Q1.49414 15.0098 2.8125 16.333Q4.13086 17.6562 5.86914 18.3984Q7.60742 19.1406 9.57031 19.1406Z" fill="#ffffff"/>
  <path d="M4.4043 13.5352Q4.23828 13.5352 4.14062 13.4424Q4.04297 13.3496 4.04297 13.1836Q4.04297 13.0859 4.06738 13.0127Q4.0918 12.9395 4.16016 12.8711L7.06055 9.50195Q7.5293 8.95508 7.77344 8.52051Q8.01758 8.08594 8.01758 7.60742Q8.01758 6.92383 7.55859 6.50879Q7.09961 6.09375 6.31836 6.09375Q5.56641 6.09375 5.06836 6.50879Q4.57031 6.92383 4.49219 7.57812Q4.46289 7.72461 4.37988 7.80762Q4.29688 7.89062 4.16016 7.89062Q4.00391 7.89062 3.91602 7.79297Q3.82812 7.69531 3.82812 7.54883Q3.82812 7.4707 3.83789 7.41211Q3.84766 7.35352 3.85742 7.26562Q4.00391 6.48438 4.69727 5.97168Q5.39062 5.45898 6.30859 5.45898Q7.38281 5.45898 8.03711 6.04004Q8.69141 6.62109 8.69141 7.58789Q8.69141 8.19336 8.38379 8.74512Q8.07617 9.29688 7.43164 10.0488L5.01953 12.8516L5.01953 12.8906L8.61328 12.8906Q8.75977 12.8906 8.84277 12.9785Q8.92578 13.0664 8.92578 13.2129Q8.92578 13.3496 8.84277 13.4424Q8.75977 13.5352 8.61328 13.5352ZM12.7734 13.6816Q11.9824 13.6816 11.4014 13.3154Q10.8203 12.9492 10.6055 12.5586Q10.5566 12.4512 10.5078 12.3389Q10.459 12.2266 10.459 12.1191Q10.459 11.9824 10.542 11.8945Q10.625 11.8066 10.752 11.8066Q10.9668 11.8066 11.1035 12.0898Q11.3086 12.5195 11.7578 12.7881Q12.207 13.0566 12.7734 13.0566Q13.5059 13.0566 14.0283 12.627Q14.5508 12.1973 14.8242 11.3525Q15.0977 10.5078 15.0977 9.24805L15.0684 9.24805Q14.7852 9.94141 14.1846 10.332Q13.584 10.7227 12.7148 10.7227Q12.002 10.7227 11.4355 10.3809Q10.8691 10.0391 10.5371 9.45801Q10.2051 8.87695 10.2051 8.13477Q10.2051 6.95312 10.9619 6.20605Q11.7188 5.45898 12.9004 5.45898Q14.1797 5.45898 14.9512 6.36719Q15.7227 7.27539 15.7227 9.10156Q15.7227 11.416 14.9658 12.5488Q14.209 13.6816 12.7734 13.6816ZM12.8906 10.127Q13.7793 10.127 14.3701 9.55078Q14.9609 8.97461 14.9609 8.10547Q14.9609 7.22656 14.3701 6.65039Q13.7793 6.07422 12.9199 6.07422Q12.0215 6.07422 11.4453 6.63574Q10.8691 7.19727 10.8691 8.08594Q10.8691 8.96484 11.4355 9.5459Q12.002 10.127 12.8906 10.127Z" fill="#ffffff"/>
 </g>
</svg>
