<?xml version="1.0" encoding="UTF-8"?>
<!--Generator: Apple Native CoreSVG 175-->
<!DOCTYPE svg
PUBLIC "-//W3C//DTD SVG 1.1//EN"
       "http://www.w3.org/Graphics/SVG/1.1/DTD/svg11.dtd">
<svg version="1.1" xmlns="http://www.w3.org/2000/svg" xmlns:xlink="http://www.w3.org/1999/xlink" width="17.2852" height="17.3145">
 <g>
  <rect height="17.3145" opacity="0" width="17.2852" x="0" y="0"/>
  <path d="M2.62695 17.3145L14.6484 17.3145Q15.957 17.3145 16.6211 16.6455Q17.2852 15.9766 17.2852 14.6875L17.2852 2.65625Q17.2852 1.37695 16.6211 0.703125Q15.957 0.0292969 14.6484 0.0292969L2.62695 0.0292969Q1.33789 0.0292969 0.668945 0.693359Q0 1.35742 0 2.65625L0 14.6875Q0 15.9863 0.668945 16.6504Q1.33789 17.3145 2.62695 17.3145ZM2.65625 16.5918Q1.70898 16.5918 1.2207 16.1035Q0.732422 15.6152 0.732422 14.6582L0.732422 2.69531Q0.732422 1.72852 1.2207 1.24512Q1.70898 0.761719 2.65625 0.761719L14.6289 0.761719Q15.5566 0.761719 16.0596 1.24512Q16.5625 1.72852 16.5625 2.69531L16.5625 14.6582Q16.5625 15.6152 16.0596 16.1035Q15.5566 16.5918 14.6289 16.5918ZM8.69141 13.125Q10.0195 13.125 10.8545 12.417Q11.6895 11.709 11.6895 10.625Q11.6895 9.80469 11.1035 9.18945Q10.5176 8.57422 9.64844 8.49609L9.64844 8.44727Q10.4004 8.31055 10.8887 7.71484Q11.377 7.11914 11.377 6.36719Q11.377 5.41016 10.6152 4.79492Q9.85352 4.17969 8.69141 4.17969Q7.69531 4.17969 6.93848 4.66797Q6.18164 5.15625 6.06445 5.9375Q6.05469 6.01562 6.04492 6.08398Q6.03516 6.15234 6.03516 6.23047Q6.03516 6.38672 6.12793 6.47949Q6.2207 6.57227 6.37695 6.57227Q6.67969 6.57227 6.72852 6.26953Q6.83594 5.625 7.37305 5.22461Q7.91016 4.82422 8.69141 4.82422Q9.57031 4.82422 10.1025 5.27344Q10.6348 5.72266 10.6348 6.45508Q10.6348 7.17773 10.0879 7.67578Q9.54102 8.17383 8.73047 8.17383L7.92969 8.17383Q7.79297 8.17383 7.7002 8.2666Q7.60742 8.35938 7.60742 8.50586Q7.60742 8.65234 7.7002 8.74023Q7.79297 8.82812 7.92969 8.82812L8.80859 8.82812Q9.72656 8.82812 10.3369 9.34082Q10.9473 9.85352 10.9473 10.6152Q10.9473 11.4453 10.3223 11.958Q9.69727 12.4707 8.69141 12.4707Q7.87109 12.4707 7.28516 12.0654Q6.69922 11.6602 6.54297 11.0254Q6.46484 10.7227 6.19141 10.7227Q6.03516 10.7227 5.9375 10.8252Q5.83984 10.9277 5.83984 11.084Q5.83984 11.2109 5.87891 11.3672Q6.10352 12.1484 6.87988 12.6367Q7.65625 13.125 8.69141 13.125Z" fill="#ffffff"/>
 </g>
</svg>
