<?xml version="1.0" encoding="UTF-8"?>
<!--Generator: Apple Native CoreSVG 175-->
<!DOCTYPE svg
PUBLIC "-//W3C//DTD SVG 1.1//EN"
       "http://www.w3.org/Graphics/SVG/1.1/DTD/svg11.dtd">
<svg version="1.1" xmlns="http://www.w3.org/2000/svg" xmlns:xlink="http://www.w3.org/1999/xlink" width="19.1602" height="19.1504">
 <g>
  <rect height="19.1504" opacity="0" width="19.1602" x="0" y="0"/>
  <path d="M9.57031 19.1406Q11.5527 19.1406 13.2861 18.3984Q15.0195 17.6562 16.3379 16.333Q17.6562 15.0098 18.4082 13.2764Q19.1602 11.543 19.1602 9.57031Q19.1602 7.59766 18.4082 5.86426Q17.6562 4.13086 16.3379 2.80762Q15.0195 1.48438 13.2861 0.742188Q11.5527 0 9.57031 0Q7.59766 0 5.86426 0.742188Q4.13086 1.48438 2.81738 2.80762Q1.50391 4.13086 0.751953 5.86426Q0 7.59766 0 9.57031Q0 11.543 0.74707 13.2764Q1.49414 15.0098 2.8125 16.333Q4.13086 17.6562 5.86914 18.3984Q7.60742 19.1406 9.57031 19.1406Z" fill="#ffffff"/>
  <path d="M6.43555 13.6816Q5.60547 13.6816 4.98047 13.1641Q4.35547 12.6465 4.00391 11.7236Q3.65234 10.8008 3.65234 9.57031Q3.65234 8.33984 4.00391 7.41211Q4.35547 6.48438 4.98047 5.97168Q5.60547 5.45898 6.43555 5.45898Q7.26562 5.45898 7.89062 5.97168Q8.51562 6.48438 8.86719 7.41211Q9.21875 8.33984 9.21875 9.57031Q9.21875 10.8008 8.86719 11.7236Q8.51562 12.6465 7.89062 13.1641Q7.26562 13.6816 6.43555 13.6816ZM6.43555 13.0273Q7.37305 13.0273 7.94922 12.0752Q8.52539 11.123 8.52539 9.57031Q8.52539 8.01758 7.94922 7.06543Q7.37305 6.11328 6.43555 6.11328Q5.49805 6.11328 4.91699 7.06543Q4.33594 8.01758 4.33594 9.57031Q4.33594 11.123 4.91699 12.0752Q5.49805 13.0273 6.43555 13.0273ZM11.0938 13.5352Q10.9375 13.5352 10.8398 13.4424Q10.7422 13.3496 10.7422 13.1836Q10.7422 13.0859 10.7666 13.0127Q10.791 12.9395 10.8594 12.8711L13.7598 9.50195Q14.2188 8.95508 14.4678 8.52051Q14.7168 8.08594 14.7168 7.60742Q14.7168 6.92383 14.2578 6.50879Q13.7988 6.09375 13.0176 6.09375Q12.2656 6.09375 11.7676 6.50879Q11.2695 6.92383 11.1914 7.57812Q11.1621 7.72461 11.0791 7.80762Q10.9961 7.89062 10.8496 7.89062Q10.7031 7.89062 10.6152 7.79297Q10.5273 7.69531 10.5273 7.54883Q10.5273 7.4707 10.5322 7.41211Q10.5371 7.35352 10.5566 7.26562Q10.7031 6.48438 11.3965 5.97168Q12.0898 5.45898 13.0078 5.45898Q14.082 5.45898 14.7363 6.04004Q15.3906 6.62109 15.3906 7.58789Q15.3906 8.19336 15.083 8.74512Q14.7754 9.29688 14.1309 10.0488L11.7188 12.8516L11.7188 12.8906L15.3125 12.8906Q15.459 12.8906 15.5469 12.9785Q15.6348 13.0664 15.6348 13.2129Q15.6348 13.3496 15.5469 13.4424Q15.459 13.5352 15.3125 13.5352Z" fill="#ffffff"/>
 </g>
</svg>
