<?xml version="1.0" encoding="UTF-8"?>
<!--Generator: Apple Native CoreSVG 175-->
<!DOCTYPE svg
PUBLIC "-//W3C//DTD SVG 1.1//EN"
       "http://www.w3.org/Graphics/SVG/1.1/DTD/svg11.dtd">
<svg version="1.1" xmlns="http://www.w3.org/2000/svg" xmlns:xlink="http://www.w3.org/1999/xlink" width="19.1602" height="19.1504">
 <g>
  <rect height="19.1504" opacity="0" width="19.1602" x="0" y="0"/>
  <path d="M9.57031 19.1406Q11.5527 19.1406 13.2861 18.3984Q15.0195 17.6562 16.3379 16.333Q17.6562 15.0098 18.4082 13.2764Q19.1602 11.543 19.1602 9.57031Q19.1602 7.59766 18.4082 5.86426Q17.6562 4.13086 16.3379 2.80762Q15.0195 1.48438 13.2861 0.742188Q11.5527 0 9.57031 0Q7.59766 0 5.86426 0.742188Q4.13086 1.48438 2.81738 2.80762Q1.50391 4.13086 0.751953 5.86426Q0 7.59766 0 9.57031Q0 11.543 0.74707 13.2764Q1.49414 15.0098 2.8125 16.333Q4.13086 17.6562 5.86914 18.3984Q7.60742 19.1406 9.57031 19.1406ZM9.57031 18.3984Q7.74414 18.3984 6.14746 17.71Q4.55078 17.0215 3.33496 15.8105Q2.11914 14.5996 1.43555 12.998Q0.751953 11.3965 0.751953 9.57031Q0.751953 7.74414 1.43555 6.14258Q2.11914 4.54102 3.33496 3.3252Q4.55078 2.10938 6.14746 1.4209Q7.74414 0.732422 9.57031 0.732422Q11.4062 0.732422 13.0029 1.4209Q14.5996 2.10938 15.8154 3.3252Q17.0312 4.54102 17.7197 6.14258Q18.4082 7.74414 18.4082 9.57031Q18.4082 11.3965 17.7246 12.998Q17.041 14.5996 15.8252 15.8105Q14.6094 17.0215 13.0078 17.71Q11.4062 18.3984 9.57031 18.3984ZM6.34766 13.6523Q7.16797 13.6523 7.79297 13.1396Q8.41797 12.627 8.76465 11.709Q9.11133 10.791 9.11133 9.57031Q9.11133 8.34961 8.76465 7.42676Q8.41797 6.50391 7.79297 5.99609Q7.16797 5.48828 6.34766 5.48828Q5.52734 5.48828 4.90234 5.99609Q4.27734 6.50391 3.93066 7.42676Q3.58398 8.34961 3.58398 9.57031Q3.58398 10.791 3.93066 11.709Q4.27734 12.627 4.90234 13.1396Q5.52734 13.6523 6.34766 13.6523ZM6.34766 13.0078Q5.41992 13.0078 4.83887 12.0605Q4.25781 11.1133 4.25781 9.57031Q4.25781 8.02734 4.83887 7.08008Q5.41992 6.13281 6.34766 6.13281Q7.27539 6.13281 7.85645 7.08008Q8.4375 8.02734 8.4375 9.57031Q8.4375 11.1133 7.85645 12.0605Q7.27539 13.0078 6.34766 13.0078ZM14.4727 13.5938Q14.6289 13.5938 14.7119 13.5059Q14.7949 13.418 14.7949 13.2715L14.7949 11.6406L15.7715 11.6406Q16.0742 11.6406 16.0742 11.3477Q16.0742 11.2109 15.9912 11.1182Q15.9082 11.0254 15.7715 11.0254L14.7949 11.0254L14.7949 5.98633Q14.7949 5.75195 14.6484 5.62012Q14.502 5.48828 14.2773 5.48828Q14.0527 5.48828 13.8965 5.57617Q13.7402 5.66406 13.5938 5.88867Q13.3008 6.33789 12.8711 6.99219Q12.4414 7.64648 11.9775 8.35938Q11.5137 9.07227 11.0986 9.71191Q10.6836 10.3516 10.4102 10.7715Q10.3516 10.8691 10.3223 10.9717Q10.293 11.0742 10.293 11.1719Q10.293 11.4062 10.4346 11.5234Q10.5762 11.6406 10.8203 11.6406L14.1504 11.6406L14.1504 13.2715Q14.1504 13.418 14.2383 13.5059Q14.3262 13.5938 14.4727 13.5938ZM14.1504 11.0254L11.0156 11.0254L11.0156 11.0059Q11.1816 10.7227 11.4844 10.2441Q11.7871 9.76562 12.1582 9.19434Q12.5293 8.62305 12.9053 8.05176Q13.2812 7.48047 13.6035 6.99707Q13.9258 6.51367 14.1211 6.2207L14.1504 6.2207Z" fill="#ffffff"/>
 </g>
</svg>
