<?xml version="1.0" encoding="UTF-8"?>
<!--Generator: Apple Native CoreSVG 175-->
<!DOCTYPE svg
PUBLIC "-//W3C//DTD SVG 1.1//EN"
       "http://www.w3.org/Graphics/SVG/1.1/DTD/svg11.dtd">
<svg version="1.1" xmlns="http://www.w3.org/2000/svg" xmlns:xlink="http://www.w3.org/1999/xlink" width="17.2852" height="17.3145">
 <g>
  <rect height="17.3145" opacity="0" width="17.2852" x="0" y="0"/>
  <path d="M2.62695 17.3145L14.6484 17.3145Q15.957 17.3145 16.6211 16.6455Q17.2852 15.9766 17.2852 14.6875L17.2852 2.65625Q17.2852 1.37695 16.6211 0.703125Q15.957 0.0292969 14.6484 0.0292969L2.62695 0.0292969Q1.33789 0.0292969 0.668945 0.693359Q0 1.35742 0 2.65625L0 14.6875Q0 15.9863 0.668945 16.6504Q1.33789 17.3145 2.62695 17.3145ZM2.65625 16.5918Q1.70898 16.5918 1.2207 16.1035Q0.732422 15.6152 0.732422 14.6582L0.732422 2.69531Q0.732422 1.72852 1.2207 1.24512Q1.70898 0.761719 2.65625 0.761719L14.6289 0.761719Q15.5566 0.761719 16.0596 1.24512Q16.5625 1.72852 16.5625 2.69531L16.5625 14.6582Q16.5625 15.6152 16.0596 16.1035Q15.5566 16.5918 14.6289 16.5918ZM5.43945 12.7344Q6.25977 12.7344 6.88477 12.2217Q7.50977 11.709 7.85645 10.791Q8.20312 9.87305 8.20312 8.65234Q8.20312 7.43164 7.85645 6.50879Q7.50977 5.58594 6.88477 5.07812Q6.25977 4.57031 5.43945 4.57031Q4.61914 4.57031 3.99414 5.07812Q3.36914 5.58594 3.02246 6.50879Q2.67578 7.43164 2.67578 8.65234Q2.67578 9.87305 3.02246 10.791Q3.36914 11.709 3.99414 12.2217Q4.61914 12.7344 5.43945 12.7344ZM5.43945 12.0898Q4.51172 12.0898 3.93066 11.1426Q3.34961 10.1953 3.34961 8.65234Q3.34961 7.10938 3.93066 6.16211Q4.51172 5.21484 5.43945 5.21484Q6.36719 5.21484 6.94824 6.16211Q7.5293 7.10938 7.5293 8.65234Q7.5293 10.1953 6.94824 11.1426Q6.36719 12.0898 5.43945 12.0898ZM12.0605 12.7344Q13.252 12.7344 14.0332 12.085Q14.8145 11.4355 14.8145 10.4199Q14.8145 9.70703 14.3506 9.15039Q13.8867 8.59375 13.1445 8.44727L13.1445 8.39844Q13.7695 8.22266 14.1455 7.73438Q14.5215 7.24609 14.5215 6.64062Q14.5215 5.72266 13.8232 5.14648Q13.125 4.57031 12.0605 4.57031Q10.9863 4.57031 10.2881 5.14648Q9.58984 5.72266 9.58984 6.64062Q9.58984 7.24609 9.96094 7.72461Q10.332 8.20312 10.9668 8.39844L10.9668 8.44727Q10.2246 8.59375 9.76074 9.15039Q9.29688 9.70703 9.29688 10.4199Q9.29688 11.4453 10.0732 12.0898Q10.8496 12.7344 12.0605 12.7344ZM12.0605 12.1484Q11.1328 12.1484 10.5322 11.6602Q9.93164 11.1719 9.93164 10.4102Q9.93164 9.6875 10.5322 9.20898Q11.1328 8.73047 12.0605 8.73047Q12.9883 8.73047 13.584 9.20898Q14.1797 9.6875 14.1797 10.4102Q14.1797 11.1719 13.584 11.6602Q12.9883 12.1484 12.0605 12.1484ZM12.0605 8.16406Q11.2695 8.16406 10.7666 7.73438Q10.2637 7.30469 10.2637 6.66016Q10.2637 5.99609 10.7617 5.57617Q11.2598 5.15625 12.0605 5.15625Q12.8516 5.15625 13.3496 5.57617Q13.8477 5.99609 13.8477 6.66016Q13.8477 7.30469 13.3447 7.73438Q12.8418 8.16406 12.0605 8.16406Z" fill="#ffffff"/>
 </g>
</svg>
