<?xml version="1.0" encoding="UTF-8"?>
<!--Generator: Apple Native CoreSVG 175-->
<!DOCTYPE svg
PUBLIC "-//W3C//DTD SVG 1.1//EN"
       "http://www.w3.org/Graphics/SVG/1.1/DTD/svg11.dtd">
<svg version="1.1" xmlns="http://www.w3.org/2000/svg" xmlns:xlink="http://www.w3.org/1999/xlink" width="19.1602" height="19.1504">
 <g>
  <rect height="19.1504" opacity="0" width="19.1602" x="0" y="0"/>
  <path d="M9.57031 19.1406Q11.5527 19.1406 13.2861 18.3984Q15.0195 17.6562 16.3379 16.333Q17.6562 15.0098 18.4082 13.2764Q19.1602 11.543 19.1602 9.57031Q19.1602 7.59766 18.4082 5.86426Q17.6562 4.13086 16.3379 2.80762Q15.0195 1.48438 13.2861 0.742188Q11.5527 0 9.57031 0Q7.59766 0 5.86426 0.742188Q4.13086 1.48438 2.81738 2.80762Q1.50391 4.13086 0.751953 5.86426Q0 7.59766 0 9.57031Q0 11.543 0.74707 13.2764Q1.49414 15.0098 2.8125 16.333Q4.13086 17.6562 5.86914 18.3984Q7.60742 19.1406 9.57031 19.1406Z" fill="#ffffff"/>
  <path d="M6.50391 13.6035Q6.36719 13.6035 6.27441 13.5156Q6.18164 13.4277 6.18164 13.2715L6.18164 6.35742L6.14258 6.35742L4.49219 7.45117Q4.43359 7.49023 4.38965 7.5Q4.3457 7.50977 4.29688 7.50977Q4.16992 7.50977 4.07715 7.41699Q3.98438 7.32422 3.98438 7.19727Q3.98438 7.01172 4.16016 6.89453L6.04492 5.66406Q6.16211 5.58594 6.25 5.55176Q6.33789 5.51758 6.46484 5.51758Q6.62109 5.51758 6.72852 5.61523Q6.83594 5.71289 6.83594 5.88867L6.83594 13.2715Q6.83594 13.6035 6.50391 13.6035ZM11.9141 13.6816Q11.1328 13.6816 10.5469 13.3154Q9.96094 12.9492 9.74609 12.5586Q9.69727 12.4512 9.65332 12.3389Q9.60938 12.2266 9.60938 12.1191Q9.60938 11.9824 9.6875 11.8945Q9.76562 11.8066 9.89258 11.8066Q10.1074 11.8066 10.2441 12.0898Q10.4492 12.5195 10.9033 12.7881Q11.3574 13.0566 11.9238 13.0566Q12.6562 13.0566 13.1738 12.627Q13.6914 12.1973 13.9648 11.3525Q14.2383 10.5078 14.2383 9.24805L14.209 9.24805Q13.916 9.94141 13.3203 10.332Q12.7246 10.7227 11.8652 10.7227Q11.1426 10.7227 10.5762 10.3809Q10.0098 10.0391 9.67773 9.45801Q9.3457 8.87695 9.3457 8.13477Q9.3457 6.95312 10.1074 6.20605Q10.8691 5.45898 12.041 5.45898Q13.3203 5.45898 14.0918 6.36719Q14.8633 7.27539 14.8633 9.10156Q14.8633 11.416 14.1064 12.5488Q13.3496 13.6816 11.9141 13.6816ZM12.041 10.127Q12.9297 10.127 13.5107 9.55078Q14.0918 8.97461 14.0918 8.10547Q14.0918 7.22656 13.5059 6.65039Q12.9199 6.07422 12.0605 6.07422Q11.1719 6.07422 10.5908 6.63574Q10.0098 7.19727 10.0098 8.08594Q10.0098 8.96484 10.5762 9.5459Q11.1426 10.127 12.041 10.127Z" fill="#ffffff"/>
 </g>
</svg>
