<?xml version="1.0" encoding="UTF-8"?>
<!--Generator: Apple Native CoreSVG 175-->
<!DOCTYPE svg
PUBLIC "-//W3C//DTD SVG 1.1//EN"
       "http://www.w3.org/Graphics/SVG/1.1/DTD/svg11.dtd">
<svg version="1.1" xmlns="http://www.w3.org/2000/svg" xmlns:xlink="http://www.w3.org/1999/xlink" width="19.1602" height="19.1504">
 <g>
  <rect height="19.1504" opacity="0" width="19.1602" x="0" y="0"/>
  <path d="M9.57031 19.1406Q11.5527 19.1406 13.2861 18.3984Q15.0195 17.6562 16.3379 16.333Q17.6562 15.0098 18.4082 13.2764Q19.1602 11.543 19.1602 9.57031Q19.1602 7.59766 18.4082 5.86426Q17.6562 4.13086 16.3379 2.80762Q15.0195 1.48438 13.2861 0.742188Q11.5527 0 9.57031 0Q7.59766 0 5.86426 0.742188Q4.13086 1.48438 2.81738 2.80762Q1.50391 4.13086 0.751953 5.86426Q0 7.59766 0 9.57031Q0 11.543 0.74707 13.2764Q1.49414 15.0098 2.8125 16.333Q4.13086 17.6562 5.86914 18.3984Q7.60742 19.1406 9.57031 19.1406ZM9.57031 18.3984Q7.74414 18.3984 6.14746 17.71Q4.55078 17.0215 3.33496 15.8105Q2.11914 14.5996 1.43555 12.998Q0.751953 11.3965 0.751953 9.57031Q0.751953 7.74414 1.43555 6.14258Q2.11914 4.54102 3.33496 3.3252Q4.55078 2.10938 6.14746 1.4209Q7.74414 0.732422 9.57031 0.732422Q11.4062 0.732422 13.0029 1.4209Q14.5996 2.10938 15.8154 3.3252Q17.0312 4.54102 17.7197 6.14258Q18.4082 7.74414 18.4082 9.57031Q18.4082 11.3965 17.7246 12.998Q17.041 14.5996 15.8252 15.8105Q14.6094 17.0215 13.0078 17.71Q11.4062 18.3984 9.57031 18.3984ZM6.58203 13.5742Q6.91406 13.5742 6.91406 13.252L6.91406 5.9082Q6.91406 5.74219 6.80664 5.64453Q6.69922 5.54688 6.54297 5.54688Q6.42578 5.54688 6.33301 5.58105Q6.24023 5.61523 6.13281 5.68359L4.24805 6.91406Q4.08203 7.02148 4.08203 7.20703Q4.08203 7.33398 4.16992 7.42676Q4.25781 7.51953 4.38477 7.51953Q4.44336 7.51953 4.48242 7.51465Q4.52148 7.50977 4.58008 7.46094L6.2207 6.37695L6.25977 6.37695L6.25977 13.252Q6.25977 13.5742 6.58203 13.5742ZM12.0117 13.6523Q13.2129 13.6523 13.9502 12.9248Q14.6875 12.1973 14.6875 10.9961Q14.6875 9.88281 13.9648 9.17969Q13.2422 8.47656 12.1582 8.47656Q11.377 8.47656 10.752 8.87207Q10.127 9.26758 9.86328 9.89258L9.84375 9.89258Q9.84375 9.87305 9.84375 9.85352Q9.84375 9.83398 9.84375 9.80469Q9.84375 8.06641 10.459 7.09473Q11.0742 6.12305 12.1484 6.12305Q12.7051 6.12305 13.1543 6.38672Q13.6035 6.65039 13.8281 7.09961Q13.8867 7.19727 13.9502 7.25586Q14.0137 7.31445 14.1309 7.31445Q14.2676 7.31445 14.3408 7.22656Q14.4141 7.13867 14.4141 7.01172Q14.4141 6.92383 14.375 6.82617Q14.2871 6.54297 13.9941 6.23047Q13.7012 5.91797 13.2373 5.70312Q12.7734 5.48828 12.1582 5.48828Q10.7715 5.48828 10 6.62109Q9.22852 7.75391 9.22852 9.82422Q9.22852 10.5664 9.33594 11.1963Q9.44336 11.8262 9.67773 12.2949Q10 12.959 10.5762 13.3057Q11.1523 13.6523 12.0117 13.6523ZM12.0117 13.0371Q11.123 13.0371 10.5518 12.4707Q9.98047 11.9043 9.98047 11.0156Q9.98047 10.166 10.5518 9.61914Q11.123 9.07227 12.0215 9.07227Q12.9102 9.07227 13.4717 9.60938Q14.0332 10.1465 14.0332 11.0352Q14.0332 11.9531 13.4766 12.4951Q12.9199 13.0371 12.0117 13.0371Z" fill="#ffffff"/>
 </g>
</svg>
