<?xml version="1.0" encoding="UTF-8"?>
<!--Generator: Apple Native CoreSVG 175-->
<!DOCTYPE svg
PUBLIC "-//W3C//DTD SVG 1.1//EN"
       "http://www.w3.org/Graphics/SVG/1.1/DTD/svg11.dtd">
<svg version="1.1" xmlns="http://www.w3.org/2000/svg" xmlns:xlink="http://www.w3.org/1999/xlink" width="17.2852" height="17.3145">
 <g>
  <rect height="17.3145" opacity="0" width="17.2852" x="0" y="0"/>
  <path d="M2.62695 17.3145L14.6484 17.3145Q15.957 17.3145 16.6211 16.6455Q17.2852 15.9766 17.2852 14.6875L17.2852 2.65625Q17.2852 1.37695 16.6211 0.703125Q15.957 0.0292969 14.6484 0.0292969L2.62695 0.0292969Q1.33789 0.0292969 0.668945 0.693359Q0 1.35742 0 2.65625L0 14.6875Q0 15.9863 0.668945 16.6504Q1.33789 17.3145 2.62695 17.3145ZM2.65625 16.5918Q1.70898 16.5918 1.2207 16.1035Q0.732422 15.6152 0.732422 14.6582L0.732422 2.69531Q0.732422 1.72852 1.2207 1.24512Q1.70898 0.761719 2.65625 0.761719L14.6289 0.761719Q15.5566 0.761719 16.0596 1.24512Q16.5625 1.72852 16.5625 2.69531L16.5625 14.6582Q16.5625 15.6152 16.0596 16.1035Q15.5566 16.5918 14.6289 16.5918ZM6.62109 12.6758Q6.77734 12.6758 6.86035 12.5879Q6.94336 12.5 6.94336 12.3535L6.94336 10.7227L7.91992 10.7227Q8.22266 10.7227 8.22266 10.4297Q8.22266 10.293 8.13477 10.2002Q8.04688 10.1074 7.91992 10.1074L6.94336 10.1074L6.94336 5.06836Q6.94336 4.83398 6.79688 4.70215Q6.65039 4.57031 6.42578 4.57031Q6.20117 4.57031 6.04492 4.6582Q5.88867 4.74609 5.74219 4.9707Q5.44922 5.41992 5.01953 6.07422Q4.58984 6.72852 4.12598 7.44141Q3.66211 8.1543 3.24707 8.79395Q2.83203 9.43359 2.55859 9.85352Q2.5 9.95117 2.4707 10.0537Q2.44141 10.1562 2.44141 10.2539Q2.44141 10.4883 2.58301 10.6055Q2.72461 10.7227 2.96875 10.7227L6.29883 10.7227L6.29883 12.3535Q6.29883 12.5 6.38672 12.5879Q6.47461 12.6758 6.62109 12.6758ZM6.29883 10.1074L3.16406 10.1074L3.16406 10.0879Q3.32031 9.80469 3.62793 9.32617Q3.93555 8.84766 4.30664 8.27637Q4.67773 7.70508 5.05371 7.13379Q5.42969 6.5625 5.75195 6.0791Q6.07422 5.5957 6.25977 5.30273L6.29883 5.30273ZM9.91211 12.5879L14.1016 12.5879Q14.248 12.5879 14.3311 12.4951Q14.4141 12.4023 14.4141 12.2656Q14.4141 12.1289 14.3311 12.041Q14.248 11.9531 14.1016 11.9531L10.5273 11.9531L10.5273 11.9238L12.9199 9.13086Q13.5645 8.37891 13.8721 7.82715Q14.1797 7.27539 14.1797 6.68945Q14.1797 5.72266 13.5254 5.14648Q12.8711 4.57031 11.8066 4.57031Q10.9082 4.57031 10.2148 5.07812Q9.52148 5.58594 9.375 6.36719Q9.36523 6.44531 9.35547 6.50879Q9.3457 6.57227 9.3457 6.64062Q9.3457 6.78711 9.43359 6.88477Q9.52148 6.98242 9.66797 6.98242Q9.81445 6.98242 9.89258 6.89941Q9.9707 6.81641 10 6.66992Q10.0781 6.02539 10.5762 5.61523Q11.0742 5.20508 11.8262 5.20508Q12.5977 5.20508 13.0518 5.61035Q13.5059 6.01562 13.5059 6.69922Q13.5059 7.17773 13.2666 7.6123Q13.0273 8.04688 12.5586 8.59375L9.67773 11.9336Q9.56055 12.0605 9.56055 12.2461Q9.56055 12.4121 9.6582 12.5Q9.75586 12.5879 9.91211 12.5879Z" fill="#ffffff"/>
 </g>
</svg>
