<?xml version="1.0" encoding="UTF-8"?>
<!--Generator: Apple Native CoreSVG 175-->
<!DOCTYPE svg
PUBLIC "-//W3C//DTD SVG 1.1//EN"
       "http://www.w3.org/Graphics/SVG/1.1/DTD/svg11.dtd">
<svg version="1.1" xmlns="http://www.w3.org/2000/svg" xmlns:xlink="http://www.w3.org/1999/xlink" width="19.1602" height="19.1504">
 <g>
  <rect height="19.1504" opacity="0" width="19.1602" x="0" y="0"/>
  <path d="M9.57031 19.1406Q11.5527 19.1406 13.2861 18.3984Q15.0195 17.6562 16.3379 16.333Q17.6562 15.0098 18.4082 13.2764Q19.1602 11.543 19.1602 9.57031Q19.1602 7.59766 18.4082 5.86426Q17.6562 4.13086 16.3379 2.80762Q15.0195 1.48438 13.2861 0.742188Q11.5527 0 9.57031 0Q7.59766 0 5.86426 0.742188Q4.13086 1.48438 2.81738 2.80762Q1.50391 4.13086 0.751953 5.86426Q0 7.59766 0 9.57031Q0 11.543 0.74707 13.2764Q1.49414 15.0098 2.8125 16.333Q4.13086 17.6562 5.86914 18.3984Q7.60742 19.1406 9.57031 19.1406Z" fill="#ffffff"/>
  <path d="M7.05078 13.6816Q6.10352 13.6816 5.41504 13.1982Q4.72656 12.7148 4.52148 12.0605Q4.50195 11.9922 4.4873 11.9336Q4.47266 11.875 4.47266 11.7871Q4.47266 11.6406 4.56543 11.5381Q4.6582 11.4355 4.80469 11.4355Q5.03906 11.4355 5.14648 11.7383Q5.3418 12.3438 5.86426 12.6904Q6.38672 13.0371 7.05078 13.0371Q7.94922 13.0371 8.50098 12.5684Q9.05273 12.0996 9.05273 11.3672Q9.05273 10.6738 8.51562 10.2148Q7.97852 9.75586 7.1582 9.75586L6.35742 9.75586Q6.21094 9.75586 6.12793 9.66309Q6.04492 9.57031 6.04492 9.43359Q6.04492 9.28711 6.13281 9.19922Q6.2207 9.11133 6.35742 9.11133L7.08984 9.11133Q7.82227 9.11133 8.30078 8.66211Q8.7793 8.21289 8.7793 7.55859Q8.7793 6.9043 8.30566 6.49902Q7.83203 6.09375 7.05078 6.09375Q6.33789 6.09375 5.87402 6.45508Q5.41016 6.81641 5.30273 7.40234Q5.26367 7.55859 5.18066 7.63184Q5.09766 7.70508 4.98047 7.70508Q4.79492 7.70508 4.7168 7.60254Q4.63867 7.5 4.63867 7.34375Q4.63867 7.19727 4.66797 7.07031Q4.84375 6.33789 5.51758 5.89844Q6.19141 5.45898 7.06055 5.45898Q8.10547 5.45898 8.78418 6.02539Q9.46289 6.5918 9.46289 7.48047Q9.46289 8.16406 9.02344 8.71582Q8.58398 9.26758 7.91992 9.38477L7.91992 9.4043Q8.70117 9.48242 9.21875 10.0488Q9.73633 10.6152 9.73633 11.377Q9.73633 12.3828 8.97949 13.0322Q8.22266 13.6816 7.05078 13.6816ZM13.7695 13.6035Q13.6328 13.6035 13.54 13.5156Q13.4473 13.4277 13.4473 13.2715L13.4473 6.35742L13.3984 6.35742L11.7578 7.45117Q11.6895 7.49023 11.6504 7.5Q11.6113 7.50977 11.5527 7.50977Q11.4258 7.50977 11.333 7.41699Q11.2402 7.32422 11.2402 7.19727Q11.2402 7.01172 11.416 6.89453L13.3008 5.66406Q13.418 5.58594 13.5107 5.55176Q13.6035 5.51758 13.7305 5.51758Q13.8965 5.51758 13.999 5.61523Q14.1016 5.71289 14.1016 5.88867L14.1016 13.2715Q14.1016 13.6035 13.7695 13.6035Z" fill="#ffffff"/>
 </g>
</svg>
