<?xml version="1.0" encoding="UTF-8"?>
<!--Generator: Apple Native CoreSVG 175-->
<!DOCTYPE svg
PUBLIC "-//W3C//DTD SVG 1.1//EN"
       "http://www.w3.org/Graphics/SVG/1.1/DTD/svg11.dtd">
<svg version="1.1" xmlns="http://www.w3.org/2000/svg" xmlns:xlink="http://www.w3.org/1999/xlink" width="17.2852" height="17.3145">
 <g>
  <rect height="17.3145" opacity="0" width="17.2852" x="0" y="0"/>
  <path d="M2.62695 17.3145L14.6484 17.3145Q15.957 17.3145 16.6211 16.6455Q17.2852 15.9766 17.2852 14.6875L17.2852 2.65625Q17.2852 1.37695 16.6211 0.703125Q15.957 0.0292969 14.6484 0.0292969L2.62695 0.0292969Q1.33789 0.0292969 0.668945 0.693359Q0 1.35742 0 2.65625L0 14.6875Q0 15.9863 0.668945 16.6504Q1.33789 17.3145 2.62695 17.3145Z" fill="#ffffff"/>
  <path d="M6.48438 13.0078Q6.29883 13.0078 6.19629 12.9102Q6.09375 12.8125 6.09375 12.6465Q6.09375 12.5488 6.12793 12.4756Q6.16211 12.4023 6.23047 12.3145L9.59961 8.59375Q10.1367 8.01758 10.4102 7.52441Q10.6836 7.03125 10.6836 6.49414Q10.6836 5.72266 10.166 5.26855Q9.64844 4.81445 8.7793 4.81445Q7.91016 4.81445 7.35352 5.28809Q6.79688 5.76172 6.70898 6.46484Q6.67969 6.60156 6.5918 6.68457Q6.50391 6.76758 6.34766 6.76758Q6.18164 6.76758 6.08887 6.66992Q5.99609 6.57227 5.99609 6.41602Q5.99609 6.34766 6.00586 6.27441Q6.01562 6.20117 6.02539 6.12305Q6.17188 5.26367 6.95801 4.70703Q7.74414 4.15039 8.75977 4.15039Q9.96094 4.15039 10.6836 4.79004Q11.4062 5.42969 11.4062 6.47461Q11.4062 7.12891 11.0742 7.72949Q10.7422 8.33008 10 9.16016L7.16797 12.2852L7.16797 12.334L11.4746 12.334Q11.6211 12.334 11.7139 12.4268Q11.8066 12.5195 11.8066 12.6758Q11.8066 12.8223 11.7139 12.915Q11.6211 13.0078 11.4746 13.0078Z" fill="#ffffff"/>
 </g>
</svg>
