<?xml version="1.0" encoding="UTF-8"?>
<!--Generator: Apple Native CoreSVG 175.5-->
<!DOCTYPE svg
PUBLIC "-//W3C//DTD SVG 1.1//EN"
       "http://www.w3.org/Graphics/SVG/1.1/DTD/svg11.dtd">
<svg version="1.1" xmlns="http://www.w3.org/2000/svg" xmlns:xlink="http://www.w3.org/1999/xlink" width="16.5332" height="21.3574">
 <g>
  <rect height="21.3574" opacity="0" width="16.5332" x="0" y="0"/>
  <path d="M3.83789 21.3574L7.79297 21.3574Q8.10547 21.3574 8.27637 21.1914Q8.44727 21.0254 8.44727 20.7422Q8.44727 20.4492 8.27637 20.293Q8.10547 20.1367 7.79297 20.1367L4.69727 20.1367L4.69727 20.0977L7.93945 16.1523Q8.17383 15.8594 8.26172 15.6641Q8.34961 15.4688 8.34961 15.2539Q8.34961 14.9023 8.125 14.7119Q7.90039 14.5215 7.50977 14.5215L3.59375 14.5215Q3.28125 14.5215 3.11035 14.6826Q2.93945 14.8438 2.93945 15.127Q2.93945 15.4199 3.11035 15.5811Q3.28125 15.7422 3.59375 15.7422L6.72852 15.7422L6.72852 15.7715L3.33984 19.873Q3.1543 20.0879 3.09082 20.2441Q3.02734 20.4004 3.02734 20.6055Q3.02734 20.9375 3.24707 21.1475Q3.4668 21.3574 3.83789 21.3574ZM10.8887 15.9277L15.8203 15.9277Q16.1621 15.9277 16.3477 15.7568Q16.5332 15.5859 16.5332 15.2637Q16.5332 14.9609 16.3477 14.79Q16.1621 14.6191 15.8203 14.6191L11.8066 14.6191L11.8066 14.5801L15.9863 9.54102Q16.2402 9.23828 16.333 9.04297Q16.4258 8.84766 16.4258 8.64258Q16.4258 8.25195 16.1768 8.02246Q15.9277 7.79297 15.459 7.79297L10.6543 7.79297Q10.3223 7.79297 10.1367 7.96387Q9.95117 8.13477 9.95117 8.44727Q9.95117 8.75977 10.1367 8.93066Q10.3223 9.10156 10.6543 9.10156L14.6582 9.10156L14.6582 9.14062L10.3613 14.3359Q10.0098 14.7461 10.0098 15.1172Q10.0098 15.4785 10.249 15.7031Q10.4883 15.9277 10.8887 15.9277ZM0.966797 10.6738L7.17773 10.6738Q7.5293 10.6738 7.71973 10.4932Q7.91016 10.3125 7.91016 9.99023Q7.91016 9.66797 7.71973 9.49219Q7.5293 9.31641 7.17773 9.31641L1.96289 9.31641L1.96289 9.27734L7.43164 2.68555Q7.66602 2.40234 7.74414 2.20703Q7.82227 2.01172 7.82227 1.79688Q7.82227 1.39648 7.55859 1.16211Q7.29492 0.927734 6.80664 0.927734L0.732422 0.927734Q0.380859 0.927734 0.19043 1.10352Q0 1.2793 0 1.60156Q0 1.92383 0.19043 2.10449Q0.380859 2.28516 0.732422 2.28516L5.94727 2.28516L5.94727 2.32422L0.351562 9.08203Q0.175781 9.27734 0.12207 9.44336Q0.0683594 9.60938 0.0683594 9.82422Q0.0683594 10.2051 0.3125 10.4395Q0.556641 10.6738 0.966797 10.6738Z" fill="#007aff"/>
 </g>
</svg>
