<?xml version="1.0" encoding="UTF-8"?>
<!--Generator: Apple Native CoreSVG 175-->
<!DOCTYPE svg
PUBLIC "-//W3C//DTD SVG 1.1//EN"
       "http://www.w3.org/Graphics/SVG/1.1/DTD/svg11.dtd">
<svg version="1.1" xmlns="http://www.w3.org/2000/svg" xmlns:xlink="http://www.w3.org/1999/xlink" width="17.2852" height="17.3145">
 <g>
  <rect height="17.3145" opacity="0" width="17.2852" x="0" y="0"/>
  <path d="M2.62695 17.3145L14.6484 17.3145Q15.957 17.3145 16.6211 16.6455Q17.2852 15.9766 17.2852 14.6875L17.2852 2.65625Q17.2852 1.37695 16.6211 0.703125Q15.957 0.0292969 14.6484 0.0292969L2.62695 0.0292969Q1.33789 0.0292969 0.668945 0.693359Q0 1.35742 0 2.65625L0 14.6875Q0 15.9863 0.668945 16.6504Q1.33789 17.3145 2.62695 17.3145Z" fill="#ffffff"/>
  <path d="M3.63281 12.6172Q3.4668 12.6172 3.36914 12.5244Q3.27148 12.4316 3.27148 12.2656Q3.27148 12.0801 3.38867 11.9531L6.28906 8.58398Q6.75781 8.03711 7.00195 7.60254Q7.24609 7.16797 7.24609 6.68945Q7.24609 6.00586 6.78711 5.59082Q6.32812 5.17578 5.54688 5.17578Q4.79492 5.17578 4.29688 5.59082Q3.79883 6.00586 3.7207 6.66016Q3.69141 6.80664 3.6084 6.88965Q3.52539 6.97266 3.38867 6.97266Q3.23242 6.97266 3.14453 6.875Q3.05664 6.77734 3.05664 6.63086Q3.05664 6.55273 3.06641 6.49414Q3.07617 6.43555 3.08594 6.34766Q3.23242 5.56641 3.92578 5.05371Q4.61914 4.54102 5.53711 4.54102Q6.61133 4.54102 7.26562 5.12207Q7.91992 5.70312 7.91992 6.66992Q7.91992 7.27539 7.6123 7.82715Q7.30469 8.37891 6.66016 9.13086L4.24805 11.9336L4.24805 11.9727L7.8418 11.9727Q7.98828 11.9727 8.07129 12.0605Q8.1543 12.1484 8.1543 12.2949Q8.1543 12.4316 8.07129 12.5244Q7.98828 12.6172 7.8418 12.6172ZM13.2812 12.7148Q13.1445 12.7148 13.0518 12.6172Q12.959 12.5195 12.959 12.373L12.959 10.752L9.59961 10.752Q9.36523 10.752 9.22363 10.625Q9.08203 10.498 9.08203 10.2637Q9.08203 10.166 9.11133 10.0586Q9.14062 9.95117 9.18945 9.85352Q9.47266 9.43359 9.89258 8.78906Q10.3125 8.14453 10.7764 7.42676Q11.2402 6.70898 11.6699 6.05469Q12.0996 5.40039 12.3926 4.95117Q12.5391 4.7168 12.7002 4.62891Q12.8613 4.54102 13.0762 4.54102Q13.3203 4.54102 13.4619 4.67773Q13.6035 4.81445 13.6035 5.04883L13.6035 10.1172L14.5898 10.1172Q14.7266 10.1172 14.8096 10.21Q14.8926 10.3027 14.8926 10.4395Q14.8926 10.5762 14.8145 10.6641Q14.7363 10.752 14.5898 10.752L13.6035 10.752L13.6035 12.373Q13.6035 12.5195 13.5254 12.6172Q13.4473 12.7148 13.2812 12.7148ZM12.959 10.1172L12.959 5.2832L12.9297 5.2832Q12.7344 5.58594 12.4121 6.06934Q12.0898 6.55273 11.709 7.13379Q11.3281 7.71484 10.957 8.28125Q10.5859 8.84766 10.2832 9.33105Q9.98047 9.81445 9.80469 10.0977L9.80469 10.1172Z" fill="#ffffff"/>
 </g>
</svg>
