<?xml version="1.0" encoding="UTF-8"?>
<!--Generator: Apple Native CoreSVG 175-->
<!DOCTYPE svg
PUBLIC "-//W3C//DTD SVG 1.1//EN"
       "http://www.w3.org/Graphics/SVG/1.1/DTD/svg11.dtd">
<svg version="1.1" xmlns="http://www.w3.org/2000/svg" xmlns:xlink="http://www.w3.org/1999/xlink" width="19.1602" height="19.1504">
 <g>
  <rect height="19.1504" opacity="0" width="19.1602" x="0" y="0"/>
  <path d="M9.57031 19.1406Q11.5527 19.1406 13.2861 18.3984Q15.0195 17.6562 16.3379 16.333Q17.6562 15.0098 18.4082 13.2764Q19.1602 11.543 19.1602 9.57031Q19.1602 7.59766 18.4082 5.86426Q17.6562 4.13086 16.3379 2.80762Q15.0195 1.48438 13.2861 0.742188Q11.5527 0 9.57031 0Q7.59766 0 5.86426 0.742188Q4.13086 1.48438 2.81738 2.80762Q1.50391 4.13086 0.751953 5.86426Q0 7.59766 0 9.57031Q0 11.543 0.74707 13.2764Q1.49414 15.0098 2.8125 16.333Q4.13086 17.6562 5.86914 18.3984Q7.60742 19.1406 9.57031 19.1406Z" fill="#ffffff"/>
  <path d="M9.57031 14.0723Q8.19336 14.0723 7.31934 13.3594Q6.44531 12.6465 6.44531 11.5234Q6.44531 10.7422 6.97754 10.127Q7.50977 9.51172 8.33008 9.3457L8.33008 9.29688Q7.64648 9.0918 7.22168 8.55469Q6.79688 8.01758 6.79688 7.35352Q6.79688 6.34766 7.57812 5.70801Q8.35938 5.06836 9.57031 5.06836Q10.7812 5.06836 11.5674 5.70801Q12.3535 6.34766 12.3535 7.35352Q12.3535 8.01758 11.9287 8.55957Q11.5039 9.10156 10.8203 9.29688L10.8203 9.3457Q11.6309 9.51172 12.168 10.127Q12.7051 10.7422 12.7051 11.5234Q12.7051 12.6367 11.8213 13.3545Q10.9375 14.0723 9.57031 14.0723ZM9.58008 13.457Q10.625 13.457 11.3037 12.9053Q11.9824 12.3535 11.9824 11.5137Q11.9824 10.7031 11.3086 10.1709Q10.6348 9.63867 9.58008 9.63867Q8.52539 9.63867 7.84668 10.1709Q7.16797 10.7031 7.16797 11.5137Q7.16797 12.3535 7.84668 12.9053Q8.52539 13.457 9.58008 13.457ZM9.57031 9.04297Q10.459 9.04297 11.0352 8.57422Q11.6113 8.10547 11.6113 7.37305Q11.6113 6.63086 11.0449 6.15723Q10.4785 5.68359 9.57031 5.68359Q8.66211 5.68359 8.0957 6.15723Q7.5293 6.63086 7.5293 7.37305Q7.5293 8.10547 8.10547 8.57422Q8.68164 9.04297 9.57031 9.04297Z" fill="#ffffff"/>
 </g>
</svg>
