<?xml version="1.0" encoding="UTF-8"?>
<!--Generator: Apple Native CoreSVG 175-->
<!DOCTYPE svg
PUBLIC "-//W3C//DTD SVG 1.1//EN"
       "http://www.w3.org/Graphics/SVG/1.1/DTD/svg11.dtd">
<svg version="1.1" xmlns="http://www.w3.org/2000/svg" xmlns:xlink="http://www.w3.org/1999/xlink" width="17.2852" height="17.3145">
 <g>
  <rect height="17.3145" opacity="0" width="17.2852" x="0" y="0"/>
  <path d="M2.62695 17.3145L14.6484 17.3145Q15.957 17.3145 16.6211 16.6455Q17.2852 15.9766 17.2852 14.6875L17.2852 2.65625Q17.2852 1.37695 16.6211 0.703125Q15.957 0.0292969 14.6484 0.0292969L2.62695 0.0292969Q1.33789 0.0292969 0.668945 0.693359Q0 1.35742 0 2.65625L0 14.6875Q0 15.9863 0.668945 16.6504Q1.33789 17.3145 2.62695 17.3145Z" fill="#ffffff"/>
  <path d="M5.89844 12.6855Q5.76172 12.6855 5.66895 12.5977Q5.57617 12.5098 5.57617 12.3535L5.57617 5.43945L5.53711 5.43945L3.88672 6.5332Q3.82812 6.57227 3.78418 6.58203Q3.74023 6.5918 3.69141 6.5918Q3.56445 6.5918 3.47168 6.49902Q3.37891 6.40625 3.37891 6.2793Q3.37891 6.09375 3.55469 5.97656L5.43945 4.74609Q5.55664 4.66797 5.64453 4.63379Q5.73242 4.59961 5.85938 4.59961Q6.01562 4.59961 6.12793 4.69727Q6.24023 4.79492 6.24023 4.9707L6.24023 12.3535Q6.24023 12.5098 6.15234 12.5977Q6.06445 12.6855 5.89844 12.6855ZM12.2949 12.7148Q12.1582 12.7148 12.0654 12.6172Q11.9727 12.5195 11.9727 12.373L11.9727 10.752L8.61328 10.752Q8.37891 10.752 8.2373 10.625Q8.0957 10.498 8.0957 10.2637Q8.0957 10.166 8.12012 10.0586Q8.14453 9.95117 8.20312 9.85352Q8.47656 9.43359 8.89648 8.78906Q9.31641 8.14453 9.78027 7.42676Q10.2441 6.70898 10.6738 6.05469Q11.1035 5.40039 11.3965 4.95117Q11.5527 4.7168 11.709 4.62891Q11.8652 4.54102 12.0898 4.54102Q12.334 4.54102 12.4756 4.67773Q12.6172 4.81445 12.6172 5.04883L12.6172 10.1172L13.6035 10.1172Q13.7402 10.1172 13.8232 10.21Q13.9062 10.3027 13.9062 10.4395Q13.9062 10.5762 13.8281 10.6641Q13.75 10.752 13.6035 10.752L12.6172 10.752L12.6172 12.373Q12.6172 12.5195 12.5342 12.6172Q12.4512 12.7148 12.2949 12.7148ZM11.9727 10.1172L11.9727 5.2832L11.9336 5.2832Q11.748 5.58594 11.4209 6.06934Q11.0938 6.55273 10.7178 7.13379Q10.3418 7.71484 9.96582 8.28125Q9.58984 8.84766 9.28711 9.33105Q8.98438 9.81445 8.81836 10.0977L8.81836 10.1172Z" fill="#ffffff"/>
 </g>
</svg>
