<?xml version="1.0" encoding="UTF-8"?>
<!--Generator: Apple Native CoreSVG 175-->
<!DOCTYPE svg
PUBLIC "-//W3C//DTD SVG 1.1//EN"
       "http://www.w3.org/Graphics/SVG/1.1/DTD/svg11.dtd">
<svg version="1.1" xmlns="http://www.w3.org/2000/svg" xmlns:xlink="http://www.w3.org/1999/xlink" width="19.1602" height="19.1504">
 <g>
  <rect height="19.1504" opacity="0" width="19.1602" x="0" y="0"/>
  <path d="M9.57031 19.1406Q11.5527 19.1406 13.2861 18.3984Q15.0195 17.6562 16.3379 16.333Q17.6562 15.0098 18.4082 13.2764Q19.1602 11.543 19.1602 9.57031Q19.1602 7.59766 18.4082 5.86426Q17.6562 4.13086 16.3379 2.80762Q15.0195 1.48438 13.2861 0.742188Q11.5527 0 9.57031 0Q7.59766 0 5.86426 0.742188Q4.13086 1.48438 2.81738 2.80762Q1.50391 4.13086 0.751953 5.86426Q0 7.59766 0 9.57031Q0 11.543 0.74707 13.2764Q1.49414 15.0098 2.8125 16.333Q4.13086 17.6562 5.86914 18.3984Q7.60742 19.1406 9.57031 19.1406ZM9.57031 18.3984Q7.74414 18.3984 6.14746 17.71Q4.55078 17.0215 3.33496 15.8105Q2.11914 14.5996 1.43555 12.998Q0.751953 11.3965 0.751953 9.57031Q0.751953 7.74414 1.43555 6.14258Q2.11914 4.54102 3.33496 3.3252Q4.55078 2.10938 6.14746 1.4209Q7.74414 0.732422 9.57031 0.732422Q11.4062 0.732422 13.0029 1.4209Q14.5996 2.10938 15.8154 3.3252Q17.0312 4.54102 17.7197 6.14258Q18.4082 7.74414 18.4082 9.57031Q18.4082 11.3965 17.7246 12.998Q17.041 14.5996 15.8252 15.8105Q14.6094 17.0215 13.0078 17.71Q11.4062 18.3984 9.57031 18.3984ZM6.78711 13.5742Q7.11914 13.5742 7.11914 13.252L7.11914 5.9082Q7.11914 5.74219 7.01172 5.64453Q6.9043 5.54688 6.74805 5.54688Q6.63086 5.54688 6.53809 5.58105Q6.44531 5.61523 6.33789 5.68359L4.45312 6.91406Q4.28711 7.02148 4.28711 7.20703Q4.28711 7.33398 4.375 7.42676Q4.46289 7.51953 4.58984 7.51953Q4.64844 7.51953 4.6875 7.51465Q4.72656 7.50977 4.78516 7.46094L6.42578 6.37695L6.46484 6.37695L6.46484 13.252Q6.46484 13.5742 6.78711 13.5742ZM11.9629 13.6523Q12.7832 13.6523 13.4082 13.1396Q14.0332 12.627 14.3799 11.709Q14.7266 10.791 14.7266 9.57031Q14.7266 8.34961 14.3799 7.42676Q14.0332 6.50391 13.4082 5.99609Q12.7832 5.48828 11.9629 5.48828Q11.1426 5.48828 10.5225 5.99609Q9.90234 6.50391 9.55078 7.42676Q9.19922 8.34961 9.19922 9.57031Q9.19922 10.791 9.55078 11.709Q9.90234 12.627 10.5225 13.1396Q11.1426 13.6523 11.9629 13.6523ZM11.9629 13.0078Q11.0352 13.0078 10.4541 12.0605Q9.87305 11.1133 9.87305 9.57031Q9.87305 8.02734 10.4541 7.08008Q11.0352 6.13281 11.9629 6.13281Q12.8906 6.13281 13.4717 7.08008Q14.0527 8.02734 14.0527 9.57031Q14.0527 11.1133 13.4717 12.0605Q12.8906 13.0078 11.9629 13.0078Z" fill="#ffffff"/>
 </g>
</svg>
