<?xml version="1.0" encoding="UTF-8"?>
<!--Generator: Apple Native CoreSVG 175-->
<!DOCTYPE svg
PUBLIC "-//W3C//DTD SVG 1.1//EN"
       "http://www.w3.org/Graphics/SVG/1.1/DTD/svg11.dtd">
<svg version="1.1" xmlns="http://www.w3.org/2000/svg" xmlns:xlink="http://www.w3.org/1999/xlink" width="17.2852" height="17.3145">
 <g>
  <rect height="17.3145" opacity="0" width="17.2852" x="0" y="0"/>
  <path d="M2.62695 17.3145L14.6484 17.3145Q15.957 17.3145 16.6211 16.6455Q17.2852 15.9766 17.2852 14.6875L17.2852 2.65625Q17.2852 1.37695 16.6211 0.703125Q15.957 0.0292969 14.6484 0.0292969L2.62695 0.0292969Q1.33789 0.0292969 0.668945 0.693359Q0 1.35742 0 2.65625L0 14.6875Q0 15.9863 0.668945 16.6504Q1.33789 17.3145 2.62695 17.3145Z" fill="#ffffff"/>
  <path d="M6.13281 12.7637Q5.18555 12.7637 4.49707 12.2803Q3.80859 11.7969 3.60352 11.1426Q3.58398 11.0742 3.56934 11.0156Q3.55469 10.957 3.55469 10.8691Q3.55469 10.7227 3.64746 10.6201Q3.74023 10.5176 3.88672 10.5176Q4.12109 10.5176 4.22852 10.8203Q4.42383 11.4258 4.94629 11.7725Q5.46875 12.1191 6.13281 12.1191Q7.03125 12.1191 7.58301 11.6504Q8.13477 11.1816 8.13477 10.4492Q8.13477 9.75586 7.59766 9.29688Q7.06055 8.83789 6.24023 8.83789L5.43945 8.83789Q5.29297 8.83789 5.20996 8.74512Q5.12695 8.65234 5.12695 8.51562Q5.12695 8.36914 5.21484 8.28125Q5.30273 8.19336 5.43945 8.19336L6.17188 8.19336Q6.9043 8.19336 7.38281 7.74414Q7.86133 7.29492 7.86133 6.64062Q7.86133 5.98633 7.3877 5.58105Q6.91406 5.17578 6.13281 5.17578Q5.41992 5.17578 4.95605 5.53711Q4.49219 5.89844 4.38477 6.48438Q4.3457 6.64062 4.2627 6.71387Q4.17969 6.78711 4.0625 6.78711Q3.87695 6.78711 3.79883 6.68457Q3.7207 6.58203 3.7207 6.42578Q3.7207 6.2793 3.75 6.15234Q3.92578 5.41992 4.59961 4.98047Q5.27344 4.54102 6.14258 4.54102Q7.1875 4.54102 7.86621 5.10742Q8.54492 5.67383 8.54492 6.5625Q8.54492 7.24609 8.10547 7.79785Q7.66602 8.34961 7.00195 8.4668L7.00195 8.48633Q7.7832 8.56445 8.30078 9.13086Q8.81836 9.69727 8.81836 10.459Q8.81836 11.4648 8.06152 12.1143Q7.30469 12.7637 6.13281 12.7637ZM12.8516 12.6855Q12.7148 12.6855 12.6221 12.5977Q12.5293 12.5098 12.5293 12.3535L12.5293 5.43945L12.4805 5.43945L10.8398 6.5332Q10.7715 6.57227 10.7324 6.58203Q10.6934 6.5918 10.6348 6.5918Q10.5078 6.5918 10.415 6.49902Q10.3223 6.40625 10.3223 6.2793Q10.3223 6.09375 10.498 5.97656L12.3828 4.74609Q12.5 4.66797 12.5928 4.63379Q12.6855 4.59961 12.8125 4.59961Q12.9785 4.59961 13.0811 4.69727Q13.1836 4.79492 13.1836 4.9707L13.1836 12.3535Q13.1836 12.6855 12.8516 12.6855Z" fill="#ffffff"/>
 </g>
</svg>
