<?xml version="1.0" encoding="UTF-8"?>
<!--Generator: Apple Native CoreSVG 175-->
<!DOCTYPE svg
PUBLIC "-//W3C//DTD SVG 1.1//EN"
       "http://www.w3.org/Graphics/SVG/1.1/DTD/svg11.dtd">
<svg version="1.1" xmlns="http://www.w3.org/2000/svg" xmlns:xlink="http://www.w3.org/1999/xlink" width="17.2852" height="17.3145">
 <g>
  <rect height="17.3145" opacity="0" width="17.2852" x="0" y="0"/>
  <path d="M2.62695 17.3145L14.6484 17.3145Q15.957 17.3145 16.6211 16.6455Q17.2852 15.9766 17.2852 14.6875L17.2852 2.65625Q17.2852 1.37695 16.6211 0.703125Q15.957 0.0292969 14.6484 0.0292969L2.62695 0.0292969Q1.33789 0.0292969 0.668945 0.693359Q0 1.35742 0 2.65625L0 14.6875Q0 15.9863 0.668945 16.6504Q1.33789 17.3145 2.62695 17.3145ZM2.65625 16.5918Q1.70898 16.5918 1.2207 16.1035Q0.732422 15.6152 0.732422 14.6582L0.732422 2.69531Q0.732422 1.72852 1.2207 1.24512Q1.70898 0.761719 2.65625 0.761719L14.6289 0.761719Q15.5566 0.761719 16.0596 1.24512Q16.5625 1.72852 16.5625 2.69531L16.5625 14.6582Q16.5625 15.6152 16.0596 16.1035Q15.5566 16.5918 14.6289 16.5918ZM5.48828 12.7344Q6.65039 12.7344 7.40234 12.0898Q8.1543 11.4453 8.1543 10.4492Q8.1543 9.6875 7.63672 9.12598Q7.11914 8.56445 6.35742 8.48633L6.35742 8.4668Q7.01172 8.34961 7.45117 7.80273Q7.89062 7.25586 7.89062 6.57227Q7.89062 5.69336 7.21191 5.13184Q6.5332 4.57031 5.49805 4.57031Q4.63867 4.57031 3.96973 5.00488Q3.30078 5.43945 3.125 6.16211Q3.0957 6.29883 3.0957 6.44531Q3.0957 6.60156 3.17871 6.69922Q3.26172 6.79688 3.42773 6.79688Q3.55469 6.79688 3.63281 6.72363Q3.71094 6.65039 3.75 6.49414Q3.86719 5.9082 4.32617 5.55664Q4.78516 5.20508 5.48828 5.20508Q6.25977 5.20508 6.73828 5.60547Q7.2168 6.00586 7.2168 6.65039Q7.2168 7.30469 6.73828 7.74902Q6.25977 8.19336 5.52734 8.19336L4.80469 8.19336Q4.66797 8.19336 4.58008 8.28125Q4.49219 8.36914 4.49219 8.51562Q4.49219 8.65234 4.5752 8.74023Q4.6582 8.82812 4.80469 8.82812L5.5957 8.82812Q6.41602 8.82812 6.94824 9.28711Q7.48047 9.74609 7.48047 10.4395Q7.48047 11.1719 6.93359 11.6357Q6.38672 12.0996 5.49805 12.0996Q4.83398 12.0996 4.30664 11.7529Q3.7793 11.4062 3.58398 10.8105Q3.48633 10.5176 3.26172 10.5176Q3.11523 10.5176 3.02246 10.6152Q2.92969 10.7129 2.92969 10.8496Q2.92969 10.9375 2.94434 11.001Q2.95898 11.0645 2.97852 11.123Q3.18359 11.7773 3.86719 12.2559Q4.55078 12.7344 5.48828 12.7344ZM13.4863 12.6758Q13.6426 12.6758 13.7256 12.5879Q13.8086 12.5 13.8086 12.3535L13.8086 10.7227L14.7852 10.7227Q15.0879 10.7227 15.0879 10.4297Q15.0879 10.293 15 10.2002Q14.9121 10.1074 14.7852 10.1074L13.8086 10.1074L13.8086 5.06836Q13.8086 4.83398 13.6621 4.70215Q13.5156 4.57031 13.291 4.57031Q13.0664 4.57031 12.9102 4.6582Q12.7539 4.74609 12.6074 4.9707Q12.3145 5.41992 11.8848 6.07422Q11.4551 6.72852 10.9912 7.44141Q10.5273 8.1543 10.1123 8.79395Q9.69727 9.43359 9.42383 9.85352Q9.36523 9.95117 9.33594 10.0537Q9.30664 10.1562 9.30664 10.2539Q9.30664 10.4883 9.44824 10.6055Q9.58984 10.7227 9.83398 10.7227L13.1641 10.7227L13.1641 12.3535Q13.1641 12.5 13.252 12.5879Q13.3398 12.6758 13.4863 12.6758ZM13.1641 10.1074L10.0293 10.1074L10.0293 10.0879Q10.1855 9.80469 10.4932 9.32617Q10.8008 8.84766 11.1719 8.27637Q11.543 7.70508 11.9189 7.13379Q12.2949 6.5625 12.6172 6.0791Q12.9395 5.5957 13.1348 5.30273L13.1641 5.30273Z" fill="#ffffff"/>
 </g>
</svg>
