<?xml version="1.0" encoding="UTF-8"?>
<!--Generator: Apple Native CoreSVG 175-->
<!DOCTYPE svg
PUBLIC "-//W3C//DTD SVG 1.1//EN"
       "http://www.w3.org/Graphics/SVG/1.1/DTD/svg11.dtd">
<svg version="1.1" xmlns="http://www.w3.org/2000/svg" xmlns:xlink="http://www.w3.org/1999/xlink" width="19.1602" height="19.1504">
 <g>
  <rect height="19.1504" opacity="0" width="19.1602" x="0" y="0"/>
  <path d="M9.57031 19.1406Q11.5527 19.1406 13.2861 18.3984Q15.0195 17.6562 16.3379 16.333Q17.6562 15.0098 18.4082 13.2764Q19.1602 11.543 19.1602 9.57031Q19.1602 7.59766 18.4082 5.86426Q17.6562 4.13086 16.3379 2.80762Q15.0195 1.48438 13.2861 0.742188Q11.5527 0 9.57031 0Q7.59766 0 5.86426 0.742188Q4.13086 1.48438 2.81738 2.80762Q1.50391 4.13086 0.751953 5.86426Q0 7.59766 0 9.57031Q0 11.543 0.74707 13.2764Q1.49414 15.0098 2.8125 16.333Q4.13086 17.6562 5.86914 18.3984Q7.60742 19.1406 9.57031 19.1406Z" fill="#ffffff"/>
  <path d="M7.53906 13.6328Q7.39258 13.6328 7.30469 13.5352Q7.2168 13.4375 7.2168 13.291L7.2168 11.6699L3.85742 11.6699Q3.62305 11.6699 3.47656 11.543Q3.33008 11.416 3.33008 11.1816Q3.33008 11.084 3.35938 10.9766Q3.38867 10.8691 3.44727 10.7715Q3.7207 10.3516 4.14062 9.70703Q4.56055 9.0625 5.02441 8.34473Q5.48828 7.62695 5.91797 6.97266Q6.34766 6.31836 6.65039 5.86914Q6.79688 5.63477 6.95312 5.54688Q7.10938 5.45898 7.34375 5.45898Q7.56836 5.45898 7.71484 5.5957Q7.86133 5.73242 7.86133 5.9668L7.86133 11.0352L8.83789 11.0352Q8.97461 11.0352 9.0625 11.1279Q9.15039 11.2207 9.15039 11.3574Q9.15039 11.6699 8.83789 11.6699L7.86133 11.6699L7.86133 13.291Q7.86133 13.4375 7.77832 13.5352Q7.69531 13.6328 7.53906 13.6328ZM7.2168 11.0352L7.2168 6.20117L7.17773 6.20117Q6.98242 6.50391 6.66016 6.9873Q6.33789 7.4707 5.95703 8.05176Q5.57617 8.63281 5.20508 9.19922Q4.83398 9.76562 4.53125 10.249Q4.22852 10.7324 4.0625 11.0156L4.0625 11.0352ZM12.9297 13.6816Q12.1484 13.6816 11.5674 13.3154Q10.9863 12.9492 10.7617 12.5586Q10.7031 12.4512 10.6641 12.3389Q10.625 12.2266 10.625 12.1191Q10.625 11.9824 10.708 11.8945Q10.791 11.8066 10.918 11.8066Q11.123 11.8066 11.2695 12.0898Q11.4746 12.5195 11.9238 12.7881Q12.373 13.0566 12.9395 13.0566Q13.6719 13.0566 14.1895 12.627Q14.707 12.1973 14.9854 11.3525Q15.2637 10.5078 15.2539 9.24805L15.2344 9.24805Q14.9512 9.94141 14.3457 10.332Q13.7402 10.7227 12.8809 10.7227Q12.168 10.7227 11.5967 10.3809Q11.0254 10.0391 10.6982 9.45801Q10.3711 8.87695 10.3711 8.13477Q10.3711 6.95312 11.1279 6.20605Q11.8848 5.45898 13.0664 5.45898Q14.3359 5.45898 15.1123 6.36719Q15.8887 7.27539 15.8887 9.10156Q15.8887 11.416 15.1318 12.5488Q14.375 13.6816 12.9297 13.6816ZM13.0566 10.127Q13.9453 10.127 14.5312 9.55078Q15.1172 8.97461 15.1172 8.10547Q15.1172 7.22656 14.5312 6.65039Q13.9453 6.07422 13.0762 6.07422Q12.1875 6.07422 11.6113 6.63574Q11.0352 7.19727 11.0352 8.08594Q11.0352 8.96484 11.6016 9.5459Q12.168 10.127 13.0566 10.127Z" fill="#ffffff"/>
 </g>
</svg>
