<?xml version="1.0" encoding="UTF-8"?>
<!--Generator: Apple Native CoreSVG 175-->
<!DOCTYPE svg
PUBLIC "-//W3C//DTD SVG 1.1//EN"
       "http://www.w3.org/Graphics/SVG/1.1/DTD/svg11.dtd">
<svg version="1.1" xmlns="http://www.w3.org/2000/svg" xmlns:xlink="http://www.w3.org/1999/xlink" width="17.2852" height="17.3145">
 <g>
  <rect height="17.3145" opacity="0" width="17.2852" x="0" y="0"/>
  <path d="M2.62695 17.3145L14.6484 17.3145Q15.957 17.3145 16.6211 16.6455Q17.2852 15.9766 17.2852 14.6875L17.2852 2.65625Q17.2852 1.37695 16.6211 0.703125Q15.957 0.0292969 14.6484 0.0292969L2.62695 0.0292969Q1.33789 0.0292969 0.668945 0.693359Q0 1.35742 0 2.65625L0 14.6875Q0 15.9863 0.668945 16.6504Q1.33789 17.3145 2.62695 17.3145Z" fill="#ffffff"/>
  <path d="M3.65234 12.6172Q3.48633 12.6172 3.38867 12.5244Q3.29102 12.4316 3.29102 12.2656Q3.29102 12.0898 3.4082 11.9531L6.30859 8.59375Q6.77734 8.03711 7.02148 7.60254Q7.26562 7.16797 7.26562 6.68945Q7.26562 6.00586 6.80664 5.59082Q6.34766 5.17578 5.56641 5.17578Q4.81445 5.17578 4.31641 5.59082Q3.81836 6.00586 3.74023 6.66016Q3.71094 6.80664 3.62793 6.88965Q3.54492 6.97266 3.4082 6.97266Q3.25195 6.97266 3.16406 6.875Q3.07617 6.77734 3.07617 6.63086Q3.07617 6.55273 3.08594 6.49414Q3.0957 6.43555 3.10547 6.34766Q3.25195 5.56641 3.94531 5.05371Q4.63867 4.54102 5.55664 4.54102Q6.63086 4.54102 7.28516 5.12207Q7.93945 5.70312 7.93945 6.66992Q7.93945 7.27539 7.63672 7.82715Q7.33398 8.37891 6.67969 9.13086L4.26758 11.9434L4.26758 11.9727L7.86133 11.9727Q8.00781 11.9727 8.09082 12.0605Q8.17383 12.1484 8.17383 12.2949Q8.17383 12.4316 8.09082 12.5244Q8.00781 12.6172 7.86133 12.6172ZM10.1758 12.6172Q10.0195 12.6172 9.91699 12.5244Q9.81445 12.4316 9.81445 12.2656Q9.81445 12.168 9.83887 12.0947Q9.86328 12.0215 9.93164 11.9531L12.832 8.59375Q13.291 8.03711 13.54 7.60254Q13.7891 7.16797 13.7891 6.68945Q13.7891 6.00586 13.3301 5.59082Q12.8711 5.17578 12.0898 5.17578Q11.3477 5.17578 10.8447 5.59082Q10.3418 6.00586 10.2637 6.66016Q10.2344 6.80664 10.1562 6.88965Q10.0781 6.97266 9.93164 6.97266Q9.77539 6.97266 9.6875 6.875Q9.59961 6.77734 9.59961 6.63086Q9.59961 6.55273 9.60938 6.49414Q9.61914 6.43555 9.62891 6.34766Q9.77539 5.56641 10.4736 5.05371Q11.1719 4.54102 12.0801 4.54102Q13.1641 4.54102 13.8184 5.12207Q14.4727 5.70312 14.4727 6.66992Q14.4727 7.27539 14.165 7.82715Q13.8574 8.37891 13.2031 9.13086L10.791 11.9434L10.791 11.9727L14.3848 11.9727Q14.5312 11.9727 14.6143 12.0605Q14.6973 12.1484 14.6973 12.2949Q14.6973 12.4316 14.6143 12.5244Q14.5312 12.6172 14.3848 12.6172Z" fill="#ffffff"/>
 </g>
</svg>
