<?xml version="1.0" encoding="UTF-8"?>
<!--Generator: Apple Native CoreSVG 175-->
<!DOCTYPE svg
PUBLIC "-//W3C//DTD SVG 1.1//EN"
       "http://www.w3.org/Graphics/SVG/1.1/DTD/svg11.dtd">
<svg version="1.1" xmlns="http://www.w3.org/2000/svg" xmlns:xlink="http://www.w3.org/1999/xlink" width="17.2852" height="17.3145">
 <g>
  <rect height="17.3145" opacity="0" width="17.2852" x="0" y="0"/>
  <path d="M2.62695 17.3145L14.6484 17.3145Q15.957 17.3145 16.6211 16.6455Q17.2852 15.9766 17.2852 14.6875L17.2852 2.65625Q17.2852 1.37695 16.6211 0.703125Q15.957 0.0292969 14.6484 0.0292969L2.62695 0.0292969Q1.33789 0.0292969 0.668945 0.693359Q0 1.35742 0 2.65625L0 14.6875Q0 15.9863 0.668945 16.6504Q1.33789 17.3145 2.62695 17.3145Z" fill="#ffffff"/>
  <path d="M5.6543 12.6855Q5.51758 12.6855 5.4248 12.5977Q5.33203 12.5098 5.33203 12.3535L5.33203 5.43945L5.29297 5.43945L3.64258 6.5332Q3.58398 6.57227 3.54004 6.58203Q3.49609 6.5918 3.44727 6.5918Q3.32031 6.5918 3.22754 6.49902Q3.13477 6.40625 3.13477 6.2793Q3.13477 6.09375 3.31055 5.97656L5.19531 4.74609Q5.3125 4.66797 5.40039 4.63379Q5.48828 4.59961 5.61523 4.59961Q5.77148 4.59961 5.88379 4.69727Q5.99609 4.79492 5.99609 4.9707L5.99609 12.3535Q5.99609 12.5098 5.9082 12.5977Q5.82031 12.6855 5.6543 12.6855ZM11.084 12.7637Q9.88281 12.7637 9.09668 12.1143Q8.31055 11.4648 8.31055 10.4395Q8.31055 9.70703 8.7793 9.15039Q9.24805 8.59375 10 8.44727L10 8.39844Q9.36523 8.21289 8.98926 7.72949Q8.61328 7.24609 8.61328 6.63086Q8.61328 5.70312 9.31641 5.12207Q10.0195 4.54102 11.0938 4.54102Q12.168 4.54102 12.8711 5.12207Q13.5742 5.70312 13.5742 6.63086Q13.5742 7.24609 13.1982 7.73926Q12.8223 8.23242 12.1973 8.39844L12.1973 8.44727Q12.9395 8.59375 13.4082 9.15527Q13.877 9.7168 13.877 10.4395Q13.877 11.4551 13.0859 12.1094Q12.2949 12.7637 11.084 12.7637ZM11.0938 12.168Q12.0312 12.168 12.6318 11.6748Q13.2324 11.1816 13.2324 10.4297Q13.2324 9.6875 12.6318 9.20898Q12.0312 8.73047 11.0938 8.73047Q10.166 8.73047 9.56543 9.20898Q8.96484 9.6875 8.96484 10.4297Q8.96484 11.1816 9.56543 11.6748Q10.166 12.168 11.0938 12.168ZM11.0938 8.1543Q11.8945 8.1543 12.3926 7.72461Q12.8906 7.29492 12.8906 6.64062Q12.8906 5.97656 12.3975 5.55664Q11.9043 5.13672 11.0938 5.13672Q10.293 5.13672 9.79492 5.55664Q9.29688 5.97656 9.29688 6.64062Q9.29688 7.29492 9.79492 7.72461Q10.293 8.1543 11.0938 8.1543Z" fill="#ffffff"/>
 </g>
</svg>
