<?xml version="1.0" encoding="UTF-8"?>
<!--Generator: Apple Native CoreSVG 175-->
<!DOCTYPE svg
PUBLIC "-//W3C//DTD SVG 1.1//EN"
       "http://www.w3.org/Graphics/SVG/1.1/DTD/svg11.dtd">
<svg version="1.1" xmlns="http://www.w3.org/2000/svg" xmlns:xlink="http://www.w3.org/1999/xlink" width="17.2852" height="17.3145">
 <g>
  <rect height="17.3145" opacity="0" width="17.2852" x="0" y="0"/>
  <path d="M2.62695 17.3145L14.6484 17.3145Q15.957 17.3145 16.6211 16.6455Q17.2852 15.9766 17.2852 14.6875L17.2852 2.65625Q17.2852 1.37695 16.6211 0.703125Q15.957 0.0292969 14.6484 0.0292969L2.62695 0.0292969Q1.33789 0.0292969 0.668945 0.693359Q0 1.35742 0 2.65625L0 14.6875Q0 15.9863 0.668945 16.6504Q1.33789 17.3145 2.62695 17.3145Z" fill="#ffffff"/>
  <path d="M6.61133 12.7148Q6.46484 12.7148 6.37207 12.6172Q6.2793 12.5195 6.2793 12.373L6.2793 10.752L2.92969 10.752Q2.69531 10.752 2.54883 10.625Q2.40234 10.498 2.40234 10.2637Q2.40234 10.166 2.43652 10.0586Q2.4707 9.95117 2.51953 9.85352Q2.79297 9.43359 3.21289 8.78906Q3.63281 8.14453 4.09668 7.42676Q4.56055 6.70898 4.99023 6.05469Q5.41992 5.40039 5.72266 4.95117Q5.86914 4.7168 6.02539 4.62891Q6.18164 4.54102 6.40625 4.54102Q6.64062 4.54102 6.78711 4.67773Q6.93359 4.81445 6.93359 5.04883L6.93359 10.1172L7.91992 10.1172Q8.04688 10.1172 8.13477 10.21Q8.22266 10.3027 8.22266 10.4395Q8.22266 10.5762 8.13965 10.6641Q8.05664 10.752 7.91992 10.752L6.93359 10.752L6.93359 12.373Q6.93359 12.5195 6.85059 12.6172Q6.76758 12.7148 6.61133 12.7148ZM6.2793 10.1172L6.2793 5.2832L6.25 5.2832Q6.05469 5.58594 5.73242 6.06934Q5.41016 6.55273 5.0293 7.13379Q4.64844 7.71484 4.27734 8.28125Q3.90625 8.84766 3.60352 9.33105Q3.30078 9.81445 3.13477 10.0977L3.13477 10.1172ZM9.93164 12.6172Q9.76562 12.6172 9.66797 12.5244Q9.57031 12.4316 9.57031 12.2656Q9.57031 12.0898 9.6875 11.9531L12.5879 8.58398Q13.0566 8.03711 13.3008 7.60254Q13.5449 7.16797 13.5449 6.68945Q13.5449 6.00586 13.0859 5.59082Q12.627 5.17578 11.8457 5.17578Q11.0938 5.17578 10.5957 5.59082Q10.0977 6.00586 10.0195 6.66016Q9.99023 6.80664 9.90723 6.88965Q9.82422 6.97266 9.6875 6.97266Q9.53125 6.97266 9.44336 6.875Q9.35547 6.77734 9.35547 6.63086Q9.35547 6.55273 9.36523 6.49414Q9.375 6.43555 9.38477 6.34766Q9.53125 5.56641 10.2246 5.05371Q10.918 4.54102 11.8359 4.54102Q12.9102 4.54102 13.5645 5.12207Q14.2188 5.70312 14.2188 6.66992Q14.2188 7.27539 13.9111 7.82715Q13.6035 8.37891 12.959 9.13086L10.5469 11.9336L10.5469 11.9727L14.1406 11.9727Q14.2871 11.9727 14.3701 12.0605Q14.4531 12.1484 14.4531 12.2949Q14.4531 12.4316 14.3701 12.5244Q14.2871 12.6172 14.1406 12.6172Z" fill="#ffffff"/>
 </g>
</svg>
