<?xml version="1.0" encoding="UTF-8"?>
<!--Generator: Apple Native CoreSVG 175-->
<!DOCTYPE svg
PUBLIC "-//W3C//DTD SVG 1.1//EN"
       "http://www.w3.org/Graphics/SVG/1.1/DTD/svg11.dtd">
<svg version="1.1" xmlns="http://www.w3.org/2000/svg" xmlns:xlink="http://www.w3.org/1999/xlink" width="19.1602" height="19.1504">
 <g>
  <rect height="19.1504" opacity="0" width="19.1602" x="0" y="0"/>
  <path d="M9.57031 19.1406Q11.5527 19.1406 13.2861 18.3984Q15.0195 17.6562 16.3379 16.333Q17.6562 15.0098 18.4082 13.2764Q19.1602 11.543 19.1602 9.57031Q19.1602 7.59766 18.4082 5.86426Q17.6562 4.13086 16.3379 2.80762Q15.0195 1.48438 13.2861 0.742188Q11.5527 0 9.57031 0Q7.59766 0 5.86426 0.742188Q4.13086 1.48438 2.81738 2.80762Q1.50391 4.13086 0.751953 5.86426Q0 7.59766 0 9.57031Q0 11.543 0.74707 13.2764Q1.49414 15.0098 2.8125 16.333Q4.13086 17.6562 5.86914 18.3984Q7.60742 19.1406 9.57031 19.1406Z" fill="#ffffff"/>
  <path d="M4.53125 13.5352Q4.36523 13.5352 4.26758 13.4424Q4.16992 13.3496 4.16992 13.1836Q4.16992 12.998 4.28711 12.8711L7.1875 9.50195Q7.65625 8.95508 7.90039 8.52051Q8.14453 8.08594 8.14453 7.60742Q8.14453 6.92383 7.68555 6.50879Q7.22656 6.09375 6.44531 6.09375Q5.70312 6.09375 5.2002 6.50879Q4.69727 6.92383 4.61914 7.57812Q4.58984 7.72461 4.50684 7.80762Q4.42383 7.89062 4.28711 7.89062Q4.13086 7.89062 4.04297 7.79297Q3.95508 7.69531 3.95508 7.54883Q3.95508 7.4707 3.96484 7.41211Q3.97461 7.35352 3.98438 7.26562Q4.13086 6.48438 4.82422 5.97168Q5.51758 5.45898 6.43555 5.45898Q7.50977 5.45898 8.16895 6.04004Q8.82812 6.62109 8.82812 7.58789Q8.82812 8.19336 8.52051 8.74512Q8.21289 9.29688 7.55859 10.0488L5.14648 12.8516L5.14648 12.8906L8.74023 12.8906Q8.88672 12.8906 8.96973 12.9785Q9.05273 13.0664 9.05273 13.2129Q9.05273 13.3496 8.96973 13.4424Q8.88672 13.5352 8.74023 13.5352ZM12.9004 13.6816Q12.0703 13.6816 11.4453 13.1641Q10.8203 12.6465 10.4688 11.7236Q10.1172 10.8008 10.1172 9.57031Q10.1172 8.33984 10.4688 7.41211Q10.8203 6.48438 11.4453 5.97168Q12.0703 5.45898 12.9004 5.45898Q13.7207 5.45898 14.3457 5.97168Q14.9707 6.48438 15.3223 7.41211Q15.6738 8.33984 15.6738 9.57031Q15.6738 10.8008 15.3223 11.7236Q14.9707 12.6465 14.3457 13.1641Q13.7207 13.6816 12.9004 13.6816ZM12.9004 13.0273Q13.8379 13.0273 14.4189 12.0752Q15 11.123 15 9.57031Q15 8.01758 14.4141 7.06543Q13.8281 6.11328 12.9004 6.11328Q11.9629 6.11328 11.3818 7.06543Q10.8008 8.01758 10.8008 9.57031Q10.8008 11.123 11.3818 12.0752Q11.9629 13.0273 12.9004 13.0273Z" fill="#ffffff"/>
 </g>
</svg>
