<?xml version="1.0" encoding="UTF-8"?>
<!--Generator: Apple Native CoreSVG 175-->
<!DOCTYPE svg
PUBLIC "-//W3C//DTD SVG 1.1//EN"
       "http://www.w3.org/Graphics/SVG/1.1/DTD/svg11.dtd">
<svg version="1.1" xmlns="http://www.w3.org/2000/svg" xmlns:xlink="http://www.w3.org/1999/xlink" width="19.1602" height="19.1504">
 <g>
  <rect height="19.1504" opacity="0" width="19.1602" x="0" y="0"/>
  <path d="M9.57031 19.1406Q11.5527 19.1406 13.2861 18.3984Q15.0195 17.6562 16.3379 16.333Q17.6562 15.0098 18.4082 13.2764Q19.1602 11.543 19.1602 9.57031Q19.1602 7.59766 18.4082 5.86426Q17.6562 4.13086 16.3379 2.80762Q15.0195 1.48438 13.2861 0.742188Q11.5527 0 9.57031 0Q7.59766 0 5.86426 0.742188Q4.13086 1.48438 2.81738 2.80762Q1.50391 4.13086 0.751953 5.86426Q0 7.59766 0 9.57031Q0 11.543 0.74707 13.2764Q1.49414 15.0098 2.8125 16.333Q4.13086 17.6562 5.86914 18.3984Q7.60742 19.1406 9.57031 19.1406Z" fill="#ffffff"/>
  <path d="M7.65625 13.6328Q7.50977 13.6328 7.41699 13.5352Q7.32422 13.4375 7.32422 13.291L7.32422 11.6699L3.97461 11.6699Q3.74023 11.6699 3.59375 11.543Q3.44727 11.416 3.44727 11.1816Q3.44727 11.084 3.47656 10.9766Q3.50586 10.8691 3.56445 10.7715Q3.83789 10.3516 4.25781 9.70703Q4.67773 9.0625 5.1416 8.34473Q5.60547 7.62695 6.03516 6.97266Q6.46484 6.31836 6.76758 5.86914Q6.91406 5.63477 7.07031 5.54688Q7.22656 5.45898 7.46094 5.45898Q7.68555 5.45898 7.83203 5.5957Q7.97852 5.73242 7.97852 5.9668L7.97852 11.0352L8.95508 11.0352Q9.0918 11.0352 9.17969 11.1279Q9.26758 11.2207 9.26758 11.3574Q9.26758 11.4941 9.18457 11.582Q9.10156 11.6699 8.95508 11.6699L7.97852 11.6699L7.97852 13.291Q7.97852 13.4375 7.89551 13.5352Q7.8125 13.6328 7.65625 13.6328ZM7.32422 11.0352L7.32422 6.20117L7.29492 6.20117Q7.09961 6.50391 6.77734 6.9873Q6.45508 7.4707 6.07422 8.05176Q5.69336 8.63281 5.32227 9.19922Q4.95117 9.76562 4.64844 10.249Q4.3457 10.7324 4.17969 11.0156L4.17969 11.0352ZM12.8711 13.6816Q11.9043 13.6816 11.2695 13.2178Q10.6348 12.7539 10.4199 12.0996Q10.3906 12.0312 10.376 11.9727Q10.3613 11.9141 10.3613 11.8555Q10.3613 11.709 10.4492 11.626Q10.5371 11.543 10.6641 11.543Q10.791 11.543 10.8643 11.6211Q10.9375 11.6992 10.9961 11.8164Q11.1621 12.373 11.6992 12.71Q12.2363 13.0469 12.9395 13.0469Q13.7988 13.0469 14.3701 12.4805Q14.9414 11.9141 14.9414 11.0254Q14.9414 10.1562 14.3994 9.59473Q13.8574 9.0332 13.0078 9.0332Q12.5293 9.0332 12.1191 9.22852Q11.709 9.42383 11.2891 9.87305Q11.1914 9.98047 11.1035 10.0195Q11.0156 10.0586 10.8887 10.0586Q10.7129 10.0586 10.6104 9.94141Q10.5078 9.82422 10.5078 9.61914L10.8008 6.00586Q10.8301 5.55664 11.2695 5.55664L14.9414 5.55664Q15.0684 5.55664 15.1562 5.63965Q15.2441 5.72266 15.2441 5.85938Q15.2441 5.98633 15.1562 6.07422Q15.0684 6.16211 14.9414 6.16211L11.3965 6.16211L11.1523 9.3457L11.1719 9.3457Q11.4844 8.91602 12.002 8.67188Q12.5195 8.42773 13.0664 8.42773Q14.1895 8.42773 14.8975 9.16016Q15.6055 9.89258 15.6055 11.0059Q15.6055 12.2168 14.8438 12.9492Q14.082 13.6816 12.8711 13.6816Z" fill="#ffffff"/>
 </g>
</svg>
