<?xml version="1.0" encoding="UTF-8"?>
<!--Generator: Apple Native CoreSVG 175-->
<!DOCTYPE svg
PUBLIC "-//W3C//DTD SVG 1.1//EN"
       "http://www.w3.org/Graphics/SVG/1.1/DTD/svg11.dtd">
<svg version="1.1" xmlns="http://www.w3.org/2000/svg" xmlns:xlink="http://www.w3.org/1999/xlink" width="19.1602" height="19.1504">
 <g>
  <rect height="19.1504" opacity="0" width="19.1602" x="0" y="0"/>
  <path d="M9.57031 19.1406Q11.5527 19.1406 13.2861 18.3984Q15.0195 17.6562 16.3379 16.333Q17.6562 15.0098 18.4082 13.2764Q19.1602 11.543 19.1602 9.57031Q19.1602 7.59766 18.4082 5.86426Q17.6562 4.13086 16.3379 2.80762Q15.0195 1.48438 13.2861 0.742188Q11.5527 0 9.57031 0Q7.59766 0 5.86426 0.742188Q4.13086 1.48438 2.81738 2.80762Q1.50391 4.13086 0.751953 5.86426Q0 7.59766 0 9.57031Q0 11.543 0.74707 13.2764Q1.49414 15.0098 2.8125 16.333Q4.13086 17.6562 5.86914 18.3984Q7.60742 19.1406 9.57031 19.1406Z" fill="#ffffff"/>
  <path d="M10.7324 13.9746Q10.5566 13.9746 10.459 13.8721Q10.3613 13.7695 10.3613 13.5938L10.3613 11.875L6.58203 11.875Q6.29883 11.875 6.14746 11.7334Q5.99609 11.5918 5.99609 11.3477Q5.99609 11.2402 6.03516 11.1328Q6.07422 11.0254 6.13281 10.918Q6.42578 10.4395 6.88965 9.73145Q7.35352 9.02344 7.87598 8.23242Q8.39844 7.44141 8.8916 6.72852Q9.38477 6.01562 9.72656 5.51758Q9.88281 5.26367 10.0586 5.16602Q10.2344 5.06836 10.4785 5.06836Q10.7617 5.06836 10.9277 5.21973Q11.0938 5.37109 11.0938 5.61523L11.0938 11.1914L12.2168 11.1914Q12.373 11.1914 12.4658 11.2891Q12.5586 11.3867 12.5586 11.543Q12.5586 11.6895 12.4658 11.7822Q12.373 11.875 12.2168 11.875L11.0938 11.875L11.0938 13.5938Q11.0938 13.7695 10.9961 13.8721Q10.8984 13.9746 10.7324 13.9746ZM10.3613 11.1914L10.3613 5.82031L10.3125 5.82031Q10.0879 6.15234 9.72656 6.68945Q9.36523 7.22656 8.93555 7.86133Q8.50586 8.49609 8.08594 9.13086Q7.66602 9.76562 7.31934 10.2979Q6.97266 10.8301 6.78711 11.1426L6.78711 11.1914Z" fill="#ffffff"/>
 </g>
</svg>
