<?xml version="1.0" encoding="UTF-8"?>
<!--Generator: Apple Native CoreSVG 175-->
<!DOCTYPE svg
PUBLIC "-//W3C//DTD SVG 1.1//EN"
       "http://www.w3.org/Graphics/SVG/1.1/DTD/svg11.dtd">
<svg version="1.1" xmlns="http://www.w3.org/2000/svg" xmlns:xlink="http://www.w3.org/1999/xlink" width="19.1602" height="19.1504">
 <g>
  <rect height="19.1504" opacity="0" width="19.1602" x="0" y="0"/>
  <path d="M9.57031 19.1406Q11.5527 19.1406 13.2861 18.3984Q15.0195 17.6562 16.3379 16.333Q17.6562 15.0098 18.4082 13.2764Q19.1602 11.543 19.1602 9.57031Q19.1602 7.59766 18.4082 5.86426Q17.6562 4.13086 16.3379 2.80762Q15.0195 1.48438 13.2861 0.742188Q11.5527 0 9.57031 0Q7.59766 0 5.86426 0.742188Q4.13086 1.48438 2.81738 2.80762Q1.50391 4.13086 0.751953 5.86426Q0 7.59766 0 9.57031Q0 11.543 0.74707 13.2764Q1.49414 15.0098 2.8125 16.333Q4.13086 17.6562 5.86914 18.3984Q7.60742 19.1406 9.57031 19.1406Z" fill="#ffffff"/>
  <path d="M5.10742 13.5352Q4.94141 13.5352 4.84375 13.4424Q4.74609 13.3496 4.74609 13.1836Q4.74609 13.0859 4.77051 13.0127Q4.79492 12.9395 4.86328 12.8711L7.76367 9.51172Q8.23242 8.95508 8.47656 8.52051Q8.7207 8.08594 8.7207 7.60742Q8.7207 6.92383 8.26172 6.50879Q7.80273 6.09375 7.02148 6.09375Q6.26953 6.09375 5.77148 6.50879Q5.27344 6.92383 5.19531 7.57812Q5.16602 7.72461 5.08301 7.80762Q5 7.89062 4.86328 7.89062Q4.70703 7.89062 4.61914 7.79297Q4.53125 7.69531 4.53125 7.54883Q4.53125 7.4707 4.54102 7.41211Q4.55078 7.35352 4.56055 7.26562Q4.70703 6.48438 5.40039 5.97168Q6.09375 5.45898 7.01172 5.45898Q8.08594 5.45898 8.74023 6.04004Q9.39453 6.62109 9.39453 7.58789Q9.39453 8.19336 9.0918 8.74512Q8.78906 9.29688 8.13477 10.0488L5.72266 12.8613L5.72266 12.8906L9.31641 12.8906Q9.46289 12.8906 9.5459 12.9785Q9.62891 13.0664 9.62891 13.2129Q9.62891 13.3496 9.5459 13.4424Q9.46289 13.5352 9.31641 13.5352ZM13.6621 13.6035Q13.3301 13.6035 13.3301 13.2715L13.3301 6.36719L13.291 6.36719L11.6504 7.45117Q11.582 7.49023 11.543 7.5Q11.5039 7.50977 11.4453 7.50977Q11.3184 7.50977 11.2256 7.41699Q11.1328 7.32422 11.1328 7.19727Q11.1328 7.01172 11.3086 6.89453L13.1934 5.66406Q13.3105 5.58594 13.3984 5.55176Q13.4863 5.51758 13.6133 5.51758Q13.7793 5.51758 13.8867 5.61523Q13.9941 5.71289 13.9941 5.88867L13.9941 13.2715Q13.9941 13.6035 13.6621 13.6035Z" fill="#ffffff"/>
 </g>
</svg>
