<?xml version="1.0" encoding="UTF-8"?>
<!--Generator: Apple Native CoreSVG 175-->
<!DOCTYPE svg
PUBLIC "-//W3C//DTD SVG 1.1//EN"
       "http://www.w3.org/Graphics/SVG/1.1/DTD/svg11.dtd">
<svg version="1.1" xmlns="http://www.w3.org/2000/svg" xmlns:xlink="http://www.w3.org/1999/xlink" width="17.2852" height="17.3145">
 <g>
  <rect height="17.3145" opacity="0" width="17.2852" x="0" y="0"/>
  <path d="M2.62695 17.3145L14.6484 17.3145Q15.957 17.3145 16.6211 16.6455Q17.2852 15.9766 17.2852 14.6875L17.2852 2.65625Q17.2852 1.37695 16.6211 0.703125Q15.957 0.0292969 14.6484 0.0292969L2.62695 0.0292969Q1.33789 0.0292969 0.668945 0.693359Q0 1.35742 0 2.65625L0 14.6875Q0 15.9863 0.668945 16.6504Q1.33789 17.3145 2.62695 17.3145ZM2.65625 16.5918Q1.70898 16.5918 1.2207 16.1035Q0.732422 15.6152 0.732422 14.6582L0.732422 2.69531Q0.732422 1.72852 1.2207 1.24512Q1.70898 0.761719 2.65625 0.761719L14.6289 0.761719Q15.5566 0.761719 16.0596 1.24512Q16.5625 1.72852 16.5625 2.69531L16.5625 14.6582Q16.5625 15.6152 16.0596 16.1035Q15.5566 16.5918 14.6289 16.5918ZM5.24414 12.7344Q6.06445 12.7344 6.68945 12.2217Q7.31445 11.709 7.66113 10.791Q8.00781 9.87305 8.00781 8.65234Q8.00781 7.43164 7.66113 6.50879Q7.31445 5.58594 6.68945 5.07812Q6.06445 4.57031 5.24414 4.57031Q4.42383 4.57031 3.79883 5.07812Q3.17383 5.58594 2.82715 6.50879Q2.48047 7.43164 2.48047 8.65234Q2.48047 9.87305 2.82715 10.791Q3.17383 11.709 3.79883 12.2217Q4.42383 12.7344 5.24414 12.7344ZM5.24414 12.0898Q4.31641 12.0898 3.73535 11.1426Q3.1543 10.1953 3.1543 8.65234Q3.1543 7.10938 3.73535 6.16211Q4.31641 5.21484 5.24414 5.21484Q6.17188 5.21484 6.75293 6.16211Q7.33398 7.10938 7.33398 8.65234Q7.33398 10.1953 6.75293 11.1426Q6.17188 12.0898 5.24414 12.0898ZM12.0508 12.7344Q12.8613 12.7344 13.4863 12.2217Q14.1113 11.709 14.4629 10.791Q14.8145 9.87305 14.8145 8.65234Q14.8145 7.43164 14.4629 6.50879Q14.1113 5.58594 13.4863 5.07812Q12.8613 4.57031 12.0508 4.57031Q11.2207 4.57031 10.5957 5.07812Q9.9707 5.58594 9.62402 6.50879Q9.27734 7.43164 9.27734 8.65234Q9.27734 9.87305 9.62402 10.791Q9.9707 11.709 10.5957 12.2217Q11.2207 12.7344 12.0508 12.7344ZM12.0508 12.0898Q11.1133 12.0898 10.5371 11.1426Q9.96094 10.1953 9.96094 8.65234Q9.96094 7.10938 10.5371 6.16211Q11.1133 5.21484 12.0508 5.21484Q12.9688 5.21484 13.5547 6.16211Q14.1406 7.10938 14.1406 8.65234Q14.1406 10.1953 13.5596 11.1426Q12.9785 12.0898 12.0508 12.0898Z" fill="#ffffff"/>
 </g>
</svg>
