<?xml version="1.0" encoding="UTF-8"?>
<!--Generator: Apple Native CoreSVG 175-->
<!DOCTYPE svg
PUBLIC "-//W3C//DTD SVG 1.1//EN"
       "http://www.w3.org/Graphics/SVG/1.1/DTD/svg11.dtd">
<svg version="1.1" xmlns="http://www.w3.org/2000/svg" xmlns:xlink="http://www.w3.org/1999/xlink" width="14.9579" height="18.4763">
 <g>
  <rect height="18.4763" opacity="0" width="14.9579" x="0" y="0"/>
  <path d="M7.47543 9.58679Q7.80273 9.59106 8.03535 9.35844Q8.26797 9.12582 8.26797 8.80676Q8.26797 8.47931 8.03535 8.24669Q7.80273 8.01407 7.47543 8.01407Q7.15515 8.01407 6.92253 8.24669Q6.68991 8.47931 6.68991 8.80676Q6.68991 9.13132 6.92253 9.36043Q7.15515 9.58954 7.47543 9.58679ZM4.45786 18.4665L10.493 18.4665Q12.7301 18.4665 13.844 17.3561Q14.9579 16.2457 14.9579 14.0086L14.9579 4.45786Q14.9579 2.22076 13.844 1.11038Q12.7301 0 10.493 0L4.45786 0Q2.22778 0 1.11389 1.11038Q0 2.22076 0 4.45786L0 14.0086Q0 16.2457 1.11389 17.3561Q2.22778 18.4665 4.45786 18.4665ZM4.45786 17.7449Q2.54105 17.7449 1.63483 16.8352Q0.728607 15.9254 0.728607 14.0086L0.728607 4.45786Q0.728607 2.54105 1.63483 1.63132Q2.54105 0.721588 4.45786 0.721588L10.493 0.721588Q12.4098 0.721588 13.3195 1.63132Q14.2293 2.54105 14.2293 4.45786L14.2293 14.0086Q14.2293 15.9254 13.3195 16.8352Q12.4098 17.7449 10.493 17.7449ZM0.362091 5.84305L14.5958 5.84305L14.5958 5.24338L0.362091 5.24338ZM4.8407 6.47888L10.1172 6.47888Q10.5196 6.47888 10.7848 6.21643Q11.05 5.95398 11.05 5.54184Q11.05 5.1297 10.7848 4.87076Q10.5196 4.61182 10.1172 4.61182L4.8407 4.61182Q4.45786 4.61182 4.18282 4.87076Q3.90778 5.1297 3.90778 5.54184Q3.90778 5.95398 4.18282 6.21643Q4.45786 6.47888 4.8407 6.47888Z" fill="rgba(0,0,0,0.85)"/>
 </g>
</svg>
