<?xml version="1.0" encoding="UTF-8"?>
<!--Generator: Apple Native CoreSVG 175-->
<!DOCTYPE svg
PUBLIC "-//W3C//DTD SVG 1.1//EN"
       "http://www.w3.org/Graphics/SVG/1.1/DTD/svg11.dtd">
<svg version="1.1" xmlns="http://www.w3.org/2000/svg" xmlns:xlink="http://www.w3.org/1999/xlink" width="7.63674" height="17.6044">
 <g>
  <rect height="17.6044" opacity="0" width="7.63674" x="0" y="0"/>
  <path d="M3.76879 7.10434Q4.5563 7.08481 5.23486 6.83029Q5.91342 6.57578 6.45755 6.12991Q7.00167 5.68405 7.39306 5.10117Q7.63674 4.71954 7.63674 4.23477L7.63674 2.86957Q7.63674 2.39334 7.39306 2.01019Q6.99893 1.42456 6.4548 0.97168Q5.91067 0.518799 5.23348 0.259399Q4.5563 0 3.76879 0Q2.73165 0 1.87792 0.48439Q1.0242 0.968781 0.514857 1.77094Q0.00551864 2.57309 2.54772e-05 3.5376Q-0.0027211 4.26636 0.290629 4.91524Q0.583979 5.56412 1.10316 6.05614Q1.62234 6.54816 2.30807 6.82762Q2.9938 7.10709 3.76879 7.10434ZM6.14062 4.83292Q5.99185 4.83292 5.89518 4.73618Q5.79852 4.63943 5.79852 4.48364L5.79852 2.59689Q5.79852 2.45087 5.89518 2.35275Q5.99185 2.25464 6.14062 2.25464Q6.2868 2.25464 6.37995 2.35275Q6.47311 2.45087 6.47311 2.59689L6.47311 4.48364Q6.47311 4.63943 6.37995 4.73618Q6.2868 4.83292 6.14062 4.83292ZM3.11602 14.8445L3.11602 7.84653Q2.49499 7.76688 1.92897 7.53075Q1.36294 7.29462 0.88946 6.92978L0.88946 14.8445ZM2.40512 17.5681Q2.74615 17.5681 2.93109 17.4046Q3.11602 17.2411 3.11602 16.9308L3.11602 15.6383L0.88946 15.6383L0.88946 16.9308Q0.88946 17.2411 1.07447 17.4046Q1.25949 17.5681 1.61715 17.5681Z" fill="rgba(0,0,0,0.85)"/>
 </g>
</svg>
