<?xml version="1.0" encoding="UTF-8"?>
<!--Generator: Apple Native CoreSVG 175-->
<!DOCTYPE svg
PUBLIC "-//W3C//DTD SVG 1.1//EN"
       "http://www.w3.org/Graphics/SVG/1.1/DTD/svg11.dtd">
<svg version="1.1" xmlns="http://www.w3.org/2000/svg" xmlns:xlink="http://www.w3.org/1999/xlink" width="11.5179" height="16.1102">
 <g>
  <rect height="16.1102" opacity="0" width="11.5179" x="0" y="0"/>
  <path d="M8.01254 0.000915149Q7.16568-0.0158695 6.30005 0.275192Q5.43442 0.566253 4.67857 1.16425Q3.92273 1.76224 3.41019 2.67364Q3.31558 2.82135 3.23082 2.98912Q3.14606 3.15689 3.06564 3.35144Q4.0387 3.50174 4.82346 4.05212Q5.60822 4.60251 6.07307 5.43045Q6.53793 6.25839 6.53793 7.21893Q6.53793 7.95029 6.29303 8.56857Q7.02072 8.45291 7.53792 8.28949Q8.05511 8.12607 8.50357 7.90497Q9.81293 7.25372 10.6654 6.13365Q11.5179 5.01358 11.5179 3.49792Q11.5179 2.45178 11.0715 1.67267Q10.625 0.893554 9.83475 0.455703Q9.04449 0.0178524 8.01254 0.000915149ZM8.48206 3.51547Q8.37784 3.60031 8.22823 3.59268Q8.07861 3.58505 7.98248 3.4639Q7.89062 3.35693 7.90878 3.2122Q7.92694 3.06747 8.04108 2.9686L9.30084 1.90536Q9.4191 1.80649 9.56032 1.819Q9.70154 1.83151 9.7934 1.9455Q9.88525 2.05688 9.879 2.20863Q9.87274 2.36038 9.75861 2.45224ZM3.2312 9.72763Q3.96912 9.72763 4.53903 9.42917Q5.10895 9.13071 5.42854 8.57117Q5.74814 8.01163 5.74814 7.21893Q5.74814 6.41861 5.31395 5.70358Q4.87976 4.98856 4.12697 4.53773Q3.37418 4.08691 2.43042 4.08691Q1.70624 4.08691 1.15784 4.41833Q0.609436 4.74976 0.304718 5.30861Q0 5.86746 0 6.55212Q0 7.45224 0.448608 8.1694Q0.897217 8.88657 1.63185 9.3071Q2.36649 9.72763 3.2312 9.72763ZM2.8273 8.55255Q2.63641 8.71002 2.30865 8.53989Q1.9809 8.36975 1.60736 7.89444Q1.22696 7.42599 1.11252 7.09068Q0.998077 6.75537 1.18912 6.60065Q1.38275 6.44318 1.69861 6.61407Q2.01447 6.78497 2.39761 7.23495Q2.77969 7.72293 2.892 8.06038Q3.0043 8.39783 2.8273 8.55255ZM6.64139 16.1093L7.41013 16.1093Q7.77496 16.1093 7.95349 15.9452Q8.13202 15.7811 8.13202 15.4584L8.13202 8.97369Q7.62665 9.17023 7.06688 9.33289Q6.50711 9.49554 5.91415 9.62173L5.91415 15.4584Q5.91415 15.7811 6.10107 15.9452Q6.28799 16.1093 6.64139 16.1093Z" fill="rgba(0,0,0,0.85)"/>
 </g>
</svg>
