<?xml version="1.0" encoding="UTF-8"?>
<!--Generator: Apple Native CoreSVG 175-->
<!DOCTYPE svg
PUBLIC "-//W3C//DTD SVG 1.1//EN"
       "http://www.w3.org/Graphics/SVG/1.1/DTD/svg11.dtd">
<svg version="1.1" xmlns="http://www.w3.org/2000/svg" xmlns:xlink="http://www.w3.org/1999/xlink" width="17.879" height="19.2941">
 <g>
  <rect height="19.2941" opacity="0" width="17.879" x="0" y="0"/>
  <path d="M0 14.8039Q0 15.4289 0.350571 15.8862Q0.701141 16.3434 1.23512 16.542Q1.7691 16.7406 2.32697 16.573Q2.08557 16.2871 1.91917 16.0383Q1.75278 15.7895 1.75278 15.5399Q1.75278 15.2844 1.88812 15.0851Q2.02347 14.8859 2.23793 14.7644Q2.45239 14.6429 2.69531 14.6429Q2.93472 14.6429 3.07854 14.7231Q3.22235 14.8032 3.34595 14.9557Q3.46954 15.1082 3.66058 15.327Q3.68988 15.2 3.70804 15.0717Q3.7262 14.9434 3.7262 14.8039L3.7262 4.47067Q3.7262 4.21249 3.66058 3.95737Q3.39569 4.25278 3.22502 4.44572Q3.05435 4.63867 2.69806 4.63867Q2.45239 4.63867 2.23793 4.51859Q2.02347 4.3985 1.88812 4.19434Q1.75278 3.99017 1.75278 3.74451Q1.75278 3.50464 1.90506 3.26149Q2.05734 3.01834 2.32697 2.70432Q1.77612 2.54379 1.24214 2.73888Q0.70816 2.93396 0.35408 3.39119Q0 3.84842 0 4.47067ZM1.87424 9.2691Q1.3324 9.2691 0.95993 8.90503Q0.587463 8.54095 0.587463 8.00903Q0.587463 7.46719 0.95993 7.09961Q1.3324 6.73203 1.87424 6.73203Q2.39655 6.73203 2.76764 7.10449Q3.13873 7.47696 3.13873 8.00903Q3.13873 8.53394 2.76764 8.90152Q2.39655 9.2691 1.87424 9.2691ZM1.87424 8.79303Q2.20352 8.79303 2.43301 8.56705Q2.66251 8.34106 2.66251 8.00903Q2.66251 7.66022 2.43301 7.43423Q2.20352 7.20825 1.87424 7.20825Q1.52267 7.20825 1.29318 7.43423Q1.06369 7.66022 1.06369 8.00903Q1.06369 8.34106 1.29318 8.56705Q1.52267 8.79303 1.87424 8.79303ZM9.13086 19.2773Q10.9407 19.2773 12.5246 18.5307Q14.1086 17.784 15.312 16.4572Q16.5154 15.1305 17.1972 13.3826Q17.879 11.6348 17.879 9.64218Q17.879 7.63977 17.1972 5.89333Q16.5154 4.14688 15.312 2.82364Q14.1086 1.5004 12.5246 0.750198Q10.9407 0 9.13086 0Q7.17026 0 5.40878 0.914993Q3.64731 1.82999 2.40738 3.47229Q2.30392 3.59924 2.30392 3.74298Q2.30392 3.88672 2.41447 3.98849Q2.52502 4.09027 2.67303 4.09027Q2.86957 4.09027 3.004 3.90854Q4.13437 2.41058 5.73593 1.57303Q7.33749 0.735474 9.13086 0.735474Q10.7915 0.735474 12.2434 1.42693Q13.6954 2.11838 14.7963 3.34282Q15.8972 4.56726 16.5189 6.18164Q17.1407 7.79602 17.1407 9.64218Q17.1407 11.4883 16.5189 13.1027Q15.8972 14.7171 14.7963 15.9415Q13.6954 17.166 12.2434 17.8539Q10.7915 18.5417 9.13086 18.5417Q7.33749 18.5417 5.73593 17.7077Q4.13437 16.8738 3.004 15.3688Q2.86957 15.1941 2.67303 15.1941Q2.52502 15.1941 2.41447 15.2888Q2.30392 15.3836 2.30392 15.5344Q2.30392 15.6851 2.40738 15.8121Q3.64731 17.4474 5.40878 18.3624Q7.17026 19.2773 9.13086 19.2773Z" fill="rgba(0,0,0,0.85)"/>
 </g>
</svg>
