<?xml version="1.0" encoding="UTF-8"?>
<!--Generator: Apple Native CoreSVG 175-->
<!DOCTYPE svg
PUBLIC "-//W3C//DTD SVG 1.1//EN"
       "http://www.w3.org/Graphics/SVG/1.1/DTD/svg11.dtd">
<svg version="1.1" xmlns="http://www.w3.org/2000/svg" xmlns:xlink="http://www.w3.org/1999/xlink" width="23.4602" height="16.6428">
 <g>
  <rect height="16.6428" opacity="0" width="23.4602" x="0" y="0"/>
  <path d="M0 8.32352Q0 9.94583 0.516815 11.3505Q1.03363 12.7551 2.02423 13.8542Q3.01483 14.9533 4.43909 15.6432Q5.5098 16.1673 6.9313 16.405Q8.35281 16.6428 10.35 16.6428L13.1172 16.6428Q15.1074 16.6428 16.5289 16.405Q17.9504 16.1673 19.0211 15.6432Q20.4454 14.9533 21.436 13.8542Q22.4266 12.7551 22.9434 11.3505Q23.4602 9.94583 23.4602 8.32352Q23.4602 6.86569 22.9364 5.52719Q22.4126 4.18869 21.4206 3.11623Q20.4286 2.04376 19.0211 1.36093Q17.9504 0.836792 16.5289 0.59906Q15.1074 0.361328 13.1172 0.361328L10.35 0.361328Q8.35281 0.361328 6.9313 0.59906Q5.5098 0.836792 4.43909 1.36093Q3.03162 2.04376 2.03964 3.11623Q1.04767 4.18869 0.523834 5.52719Q0 6.86569 0 8.32352ZM0.735626 8.32352Q0.735626 6.67816 1.4389 5.26749Q2.14218 3.85681 3.40782 2.85912Q4.67346 1.86142 6.35742 1.45676Q7.97745 1.08292 10.35 1.08292L13.1172 1.08292Q15.0102 1.08292 16.3649 1.31454Q17.7196 1.54617 18.7032 2.02469Q19.9492 2.62466 20.8492 3.58681Q21.7493 4.54895 22.2369 5.76439Q22.7246 6.97983 22.7246 8.32352Q22.7246 10.4153 21.8336 12.0374Q20.9425 13.6595 19.3121 14.6439Q17.6817 15.6282 15.4747 15.804Q14.9474 15.8626 14.3573 15.8919Q13.7672 15.9212 13.1172 15.9212L10.35 15.9212Q8.45001 15.9212 7.09534 15.6931Q5.74066 15.4649 4.75708 14.9794Q3.4816 14.3697 2.58163 13.3831Q1.68167 12.3965 1.20865 11.1149Q0.735626 9.83322 0.735626 8.32352ZM1.41296 4.82239L22.057 4.82239L22.057 4.2157L1.41296 4.2157ZM11.7363 11.6684Q12.5215 11.6684 13.0864 11.1169Q13.6513 10.5653 13.6513 9.8024Q13.6513 9.28101 13.3884 8.83957Q13.1255 8.39813 12.6889 8.13522Q12.2523 7.87231 11.7363 7.87231Q11.4548 7.87231 11.1932 7.95181Q10.9317 8.03131 10.7016 8.20984L10.7016 6.69815L9.83124 7.07474L9.83124 9.8024Q9.83124 10.5779 10.3815 11.1231Q10.9317 11.6684 11.7363 11.6684ZM11.7363 10.822Q11.3083 10.822 11.0049 10.52Q10.7016 10.218 10.7016 9.8024Q10.7016 9.38141 11.0098 9.07318Q11.3181 8.76495 11.7363 8.76495Q12.1617 8.76495 12.4651 9.07448Q12.7684 9.384 12.7684 9.8024Q12.7684 10.218 12.4651 10.52Q12.1617 10.822 11.7363 10.822Z" fill="rgba(0,0,0,0.85)"/>
 </g>
</svg>
