<?xml version="1.0" encoding="UTF-8"?>
<!--Generator: Apple Native CoreSVG 175-->
<!DOCTYPE svg
PUBLIC "-//W3C//DTD SVG 1.1//EN"
       "http://www.w3.org/Graphics/SVG/1.1/DTD/svg11.dtd">
<svg version="1.1" xmlns="http://www.w3.org/2000/svg" xmlns:xlink="http://www.w3.org/1999/xlink" width="30.0185" height="15.7285">
 <g>
  <rect height="15.7285" opacity="0" width="30.0185" x="0" y="0"/>
  <path d="M0 7.85934Q0 10.4848 1.24176 12.2285Q2.48352 13.9722 4.71771 14.8405Q6.9519 15.7089 9.92615 15.7089L20.0992 15.7089Q23.0637 15.7089 25.2992 14.8405Q27.5348 13.9722 28.7766 12.2285Q30.0185 10.4848 30.0185 7.85934Q30.0185 5.2269 28.7766 3.48175Q27.5348 1.7366 25.2992 0.868301Q23.0637 0 20.0992 0L9.92615 0Q6.9519 0 4.71771 0.868301Q2.48352 1.7366 1.24176 3.48175Q0 5.2269 0 7.85934ZM0.728607 7.85934Q0.728607 5.45776 1.88324 3.87436Q3.03787 2.29095 5.11032 1.5097Q7.18277 0.728455 9.92615 0.728455L20.0992 0.728455Q22.8398 0.728455 24.9101 1.5097Q26.9804 2.29095 28.1387 3.87436Q29.2969 5.45776 29.2969 7.85934Q29.2969 10.2609 28.1387 11.8408Q26.9804 13.4207 24.9101 14.2041Q22.8398 14.9875 20.0992 14.9875L9.92615 14.9875Q7.18277 14.9875 5.11032 14.2041Q3.03787 13.4207 1.88324 11.8408Q0.728607 10.2609 0.728607 7.85934ZM0.378876 7.65976L29.6465 7.65976L29.6465 7.06009L0.378876 7.06009ZM8.13477 8.29132L21.881 8.29132Q22.2859 8.29132 22.5547 8.03238Q22.8235 7.77344 22.8235 7.3613Q22.8235 6.94916 22.5547 6.68533Q22.2859 6.42151 21.881 6.42151L8.13477 6.42151Q7.74216 6.42151 7.47208 6.68533Q7.202 6.94916 7.202 7.3613Q7.202 7.77344 7.47208 8.03238Q7.74216 8.29132 8.13477 8.29132ZM15.0078 11.4433Q15.4179 11.4433 15.7109 11.1455Q16.0039 10.8476 16.0039 10.4668Q16.0039 10.0566 15.7109 9.76364Q15.4179 9.47067 15.0078 9.47067Q14.5976 9.47067 14.3047 9.76364Q14.0117 10.0566 14.0117 10.4668Q14.0117 10.8672 14.3047 11.1601Q14.5976 11.4531 15.0078 11.4433Z" fill="rgba(0,0,0,0.85)"/>
 </g>
</svg>
