<?xml version="1.0" encoding="UTF-8"?>
<!--Generator: Apple Native CoreSVG 175-->
<!DOCTYPE svg
PUBLIC "-//W3C//DTD SVG 1.1//EN"
       "http://www.w3.org/Graphics/SVG/1.1/DTD/svg11.dtd">
<svg version="1.1" xmlns="http://www.w3.org/2000/svg" xmlns:xlink="http://www.w3.org/1999/xlink" width="24.2255" height="22.4026">
 <g>
  <rect height="22.4026" opacity="0" width="24.2255" x="0" y="0"/>
  <path d="M1.88751 16.5878L6.51138 16.5878Q6.35513 16.1081 6.28418 15.7142Q6.21323 15.3203 6.12381 14.6359Q5.16571 14.559 4.39651 14.0463Q3.62732 13.5336 3.17482 12.7238Q2.72232 11.9141 2.72232 10.9293Q2.72232 9.91089 3.22174 9.06967Q3.72116 8.22845 4.56589 7.72552Q5.41061 7.2226 6.436 7.2226Q6.96091 7.2226 7.46719 7.37144Q7.97348 7.52029 8.38242 7.7887Q8.95279 7.21558 9.63867 6.77711Q10.3246 6.33865 11.133 6.0273Q11.9414 5.71594 12.8735 5.52917L12.8735 1.88583Q12.8735 1.01868 12.362 0.509338Q11.8504 0 10.9789 0L1.88751 0Q1.0231 0 0.511551 0.509338Q0 1.01868 0 1.88583L0 14.7018Q0 15.5692 0.511551 16.0785Q1.0231 16.5878 1.88751 16.5878ZM6.43326 5.97183Q5.67078 5.96481 5.1075 5.42046Q4.54422 4.8761 4.54422 4.08554Q4.54422 3.30887 5.09911 2.76108Q5.65399 2.21329 6.43326 2.21329Q7.21954 2.21329 7.77092 2.76108Q8.3223 3.30887 8.3223 4.08554Q8.3223 4.8761 7.76253 5.42046Q7.20276 5.96481 6.43326 5.97183ZM6.43326 5.36667Q6.96838 5.36667 7.34138 4.99229Q7.71439 4.61792 7.71439 4.08554Q7.71439 3.55743 7.34138 3.18924Q6.96838 2.82104 6.43326 2.82104Q5.90515 2.82104 5.52856 3.18924Q5.15198 3.55743 5.15198 4.08554Q5.15198 4.61792 5.52856 4.99229Q5.90515 5.36667 6.43326 5.36667ZM4.62189 10.9265Q4.62189 11.6219 5.05447 12.1203Q5.48706 12.6187 6.14182 12.7141Q6.23672 11.7613 6.50993 10.9017Q6.78314 10.0421 7.23206 9.30389Q6.88171 9.12216 6.436 9.12216Q5.68054 9.12216 5.15121 9.65149Q4.62189 10.1808 4.62189 10.9265ZM15.602 8.68622Q16.9141 8.68622 17.8706 8.53485Q18.8271 8.38348 19.3522 8.1015Q19.8773 7.81952 19.8773 7.42691Q19.8773 7.0343 19.3522 6.75095Q18.8271 6.46759 17.8706 6.31401Q16.9141 6.16043 15.602 6.16043Q14.2871 6.16043 13.3307 6.31401Q12.3743 6.46759 11.8491 6.75095Q11.3239 7.0343 11.3239 7.42691Q11.3239 7.81952 11.8491 8.1015Q12.3743 8.38348 13.3307 8.53485Q14.2871 8.68622 15.602 8.68622ZM15.602 21.7812Q17.361 21.7812 18.4303 21.6122Q19.4997 21.4433 20.168 21.0974Q20.8363 20.7515 21.3965 20.2402Q22.6978 19.0422 23.4616 17.3502Q24.2255 15.6581 24.2255 13.7328Q24.2255 11.889 23.5104 10.3691Q22.7954 8.84918 21.4227 7.77023Q21.2419 7.60818 21.0534 7.63023Q20.8649 7.65228 20.7812 7.81677Q20.5278 8.34564 19.9165 8.72826Q19.3051 9.11087 18.2487 9.32396Q17.1922 9.53705 15.602 9.53705Q14.0118 9.53705 12.954 9.32396Q11.8962 9.11087 11.2849 8.72826Q10.6735 8.34564 10.4199 7.81677Q10.3391 7.65228 10.1492 7.63023Q9.95941 7.60818 9.77859 7.77023Q8.40591 8.84918 7.69791 10.3691Q6.9899 11.889 6.9899 13.7328Q6.9899 15.6581 7.74673 17.3502Q8.50357 19.0422 9.80469 20.2402Q10.3648 20.7515 11.0346 21.0974Q11.7044 21.4433 12.7737 21.6122Q13.8431 21.7812 15.602 21.7812Z" fill="rgba(0,0,0,0.85)"/>
 </g>
</svg>
