<?xml version="1.0" encoding="UTF-8"?>
<!--Generator: Apple Native CoreSVG 175-->
<!DOCTYPE svg
PUBLIC "-//W3C//DTD SVG 1.1//EN"
       "http://www.w3.org/Graphics/SVG/1.1/DTD/svg11.dtd">
<svg version="1.1" xmlns="http://www.w3.org/2000/svg" xmlns:xlink="http://www.w3.org/1999/xlink" width="21.2012" height="21.2598">
 <g>
  <rect height="21.2598" opacity="0" width="21.2012" x="0" y="0"/>
  <path d="M10.5957 18.2031Q12.1582 18.2031 13.5303 17.6221Q14.9023 17.041 15.9424 16.0059Q16.9824 14.9707 17.5684 13.5986Q18.1543 12.2266 18.1543 10.6445Q18.1543 9.08203 17.5684 7.71484Q16.9824 6.34766 15.9424 5.30762Q14.9023 4.26758 13.5352 3.68164Q12.168 3.0957 10.5957 3.0957Q9.02344 3.0957 7.65137 3.68164Q6.2793 4.26758 5.24414 5.30762Q4.20898 6.34766 3.62793 7.71484Q3.04688 9.08203 3.04688 10.6445Q3.04688 12.2266 3.62793 13.5986Q4.20898 14.9707 5.24414 16.0059Q6.2793 17.041 7.65137 17.6221Q9.02344 18.2031 10.5957 18.2031ZM10.5957 17.5781Q9.15039 17.5781 7.89062 17.0459Q6.63086 16.5137 5.68359 15.5615Q4.73633 14.6094 4.2041 13.3545Q3.67188 12.0996 3.67188 10.6445Q3.67188 9.20898 4.20898 7.9541Q4.74609 6.69922 5.69824 5.74707Q6.65039 4.79492 7.90527 4.25781Q9.16016 3.7207 10.5957 3.7207Q12.0312 3.7207 13.2861 4.25781Q14.541 4.79492 15.4932 5.75195Q16.4453 6.70898 16.9873 7.96387Q17.5293 9.21875 17.5293 10.6445Q17.5293 12.0898 16.9922 13.3447Q16.4551 14.5996 15.5029 15.5518Q14.5508 16.5039 13.2959 17.041Q12.041 17.5781 10.5957 17.5781ZM10.6055 0.898438Q10.7715 0.898438 10.8936 0.776367Q11.0156 0.654297 11.0156 0.478516Q11.0156 0.302734 10.8936 0.175781Q10.7715 0.0488281 10.6055 0.0488281Q10.4395 0.0488281 10.3076 0.175781Q10.1758 0.302734 10.1758 0.478516Q10.1758 0.654297 10.3076 0.776367Q10.4395 0.898438 10.6055 0.898438ZM12.373 1.05469Q12.5488 1.05469 12.6807 0.927734Q12.8125 0.800781 12.8125 0.634766Q12.8125 0.46875 12.6807 0.341797Q12.5488 0.214844 12.373 0.214844Q12.207 0.214844 12.085 0.341797Q11.9629 0.46875 11.9629 0.634766Q11.9629 0.800781 12.085 0.927734Q12.207 1.05469 12.373 1.05469ZM14.0918 1.51367Q14.2578 1.51367 14.3848 1.38672Q14.5117 1.25977 14.5117 1.10352Q14.5117 0.927734 14.3848 0.800781Q14.2578 0.673828 14.0918 0.673828Q13.916 0.673828 13.7939 0.800781Q13.6719 0.927734 13.6719 1.10352Q13.6719 1.25977 13.7939 1.38672Q13.916 1.51367 14.0918 1.51367ZM15.7031 2.26562Q15.8691 2.26562 15.9961 2.14355Q16.123 2.02148 16.123 1.8457Q16.123 1.66992 15.9961 1.54785Q15.8691 1.42578 15.7031 1.42578Q15.5371 1.42578 15.4102 1.54785Q15.2832 1.66992 15.2832 1.8457Q15.2832 2.02148 15.4102 2.14355Q15.5371 2.26562 15.7031 2.26562ZM17.1582 3.28125Q17.334 3.28125 17.4609 3.1543Q17.5879 3.02734 17.5879 2.86133Q17.5879 2.69531 17.4609 2.56836Q17.334 2.44141 17.1582 2.44141Q16.9824 2.44141 16.8604 2.56836Q16.7383 2.69531 16.7383 2.86133Q16.7383 3.02734 16.8604 3.1543Q16.9824 3.28125 17.1582 3.28125ZM18.418 4.54102Q18.5938 4.54102 18.7207 4.41895Q18.8477 4.29688 18.8477 4.13086Q18.8477 3.94531 18.7207 3.81836Q18.5938 3.69141 18.418 3.69141Q18.252 3.69141 18.125 3.81836Q17.998 3.94531 17.998 4.13086Q17.998 4.29688 18.125 4.41895Q18.252 4.54102 18.418 4.54102ZM19.4238 5.98633Q19.5898 5.98633 19.7168 5.85938Q19.8438 5.73242 19.8438 5.56641Q19.8438 5.40039 19.7168 5.27344Q19.5898 5.14648 19.4238 5.14648Q19.2578 5.14648 19.1309 5.27344Q19.0039 5.40039 19.0039 5.56641Q19.0039 5.73242 19.1309 5.85938Q19.2578 5.98633 19.4238 5.98633ZM20.1758 7.61719Q20.3418 7.61719 20.4688 7.49023Q20.5957 7.36328 20.5957 7.1875Q20.5957 7.01172 20.4688 6.88477Q20.3418 6.75781 20.1758 6.75781Q20 6.75781 19.8779 6.88477Q19.7559 7.01172 19.7559 7.1875Q19.7559 7.36328 19.8779 7.49023Q20 7.61719 20.1758 7.61719ZM20.6348 9.31641Q20.8008 9.31641 20.9277 9.18945Q21.0547 9.0625 21.0547 8.88672Q21.0547 8.7207 20.9277 8.59375Q20.8008 8.4668 20.6348 8.4668Q20.459 8.4668 20.332 8.59375Q20.2051 8.7207 20.2051 8.88672Q20.2051 9.0625 20.332 9.18945Q20.459 9.31641 20.6348 9.31641ZM20.7812 11.084Q20.9473 11.084 21.0742 10.957Q21.2012 10.8301 21.2012 10.6641Q21.2012 10.4883 21.0742 10.3613Q20.9473 10.2344 20.7812 10.2344Q20.6055 10.2344 20.4785 10.3613Q20.3516 10.4883 20.3516 10.6641Q20.3516 10.8301 20.4785 10.957Q20.6055 11.084 20.7812 11.084ZM20.6348 12.8418Q20.8008 12.8418 20.9277 12.7148Q21.0547 12.5879 21.0547 12.4219Q21.0547 12.2559 20.9277 12.1289Q20.8008 12.002 20.6348 12.002Q20.459 12.002 20.332 12.1289Q20.2051 12.2559 20.2051 12.4219Q20.2051 12.5879 20.332 12.7148Q20.459 12.8418 20.6348 12.8418ZM20.1758 14.541Q20.3418 14.541 20.4688 14.4189Q20.5957 14.2969 20.5957 14.1211Q20.5957 13.9551 20.4688 13.8281Q20.3418 13.7012 20.1758 13.7012Q20 13.7012 19.8779 13.8281Q19.7559 13.9551 19.7559 14.1211Q19.7559 14.2969 19.8779 14.4189Q20 14.541 20.1758 14.541ZM19.4238 16.1621Q19.5898 16.1621 19.7168 16.0352Q19.8438 15.9082 19.8438 15.7422Q19.8438 15.5664 19.7168 15.4395Q19.5898 15.3125 19.4238 15.3125Q19.2578 15.3125 19.1309 15.4395Q19.0039 15.5664 19.0039 15.7422Q19.0039 15.9082 19.1309 16.0352Q19.2578 16.1621 19.4238 16.1621ZM18.418 17.6172Q18.5938 17.6172 18.7207 17.4902Q18.8477 17.3633 18.8477 17.1973Q18.8477 17.0215 18.7207 16.8994Q18.5938 16.7773 18.418 16.7773Q18.252 16.7773 18.125 16.8994Q17.998 17.0215 17.998 17.1973Q17.998 17.3633 18.125 17.4902Q18.252 17.6172 18.418 17.6172ZM17.1582 18.877Q17.334 18.877 17.4609 18.75Q17.5879 18.623 17.5879 18.4375Q17.5879 18.2715 17.4609 18.1494Q17.334 18.0273 17.1582 18.0273Q16.9824 18.0273 16.8604 18.1494Q16.7383 18.2715 16.7383 18.4375Q16.7383 18.623 16.8604 18.75Q16.9824 18.877 17.1582 18.877ZM15.7031 19.8926Q15.8691 19.8926 15.9961 19.7656Q16.123 19.6387 16.123 19.4727Q16.123 19.2969 15.9961 19.1748Q15.8691 19.0527 15.7031 19.0527Q15.5371 19.0527 15.4102 19.1748Q15.2832 19.2969 15.2832 19.4727Q15.2832 19.6387 15.4102 19.7656Q15.5371 19.8926 15.7031 19.8926ZM14.0918 20.6445Q14.2578 20.6445 14.3848 20.5176Q14.5117 20.3906 14.5117 20.2246Q14.5117 20.0488 14.3848 19.9268Q14.2578 19.8047 14.0918 19.8047Q13.916 19.8047 13.7939 19.9268Q13.6719 20.0488 13.6719 20.2246Q13.6719 20.3906 13.7939 20.5176Q13.916 20.6445 14.0918 20.6445ZM12.373 21.1035Q12.5488 21.1035 12.6807 20.9717Q12.8125 20.8398 12.8125 20.6738Q12.8125 20.5078 12.6807 20.3809Q12.5488 20.2539 12.373 20.2539Q12.207 20.2539 12.085 20.3809Q11.9629 20.5078 11.9629 20.6738Q11.9629 20.8398 12.085 20.9717Q12.207 21.1035 12.373 21.1035ZM10.6055 21.2598Q10.7715 21.2598 10.8936 21.1328Q11.0156 21.0059 11.0156 20.8398Q11.0156 20.6641 10.8936 20.542Q10.7715 20.4199 10.6055 20.4199Q10.4395 20.4199 10.3076 20.542Q10.1758 20.6641 10.1758 20.8398Q10.1758 21.0059 10.3076 21.1328Q10.4395 21.2598 10.6055 21.2598ZM8.82812 21.1035Q8.99414 21.1035 9.11621 20.9717Q9.23828 20.8398 9.23828 20.6738Q9.23828 20.5078 9.11621 20.3809Q8.99414 20.2539 8.82812 20.2539Q8.66211 20.2539 8.53027 20.3809Q8.39844 20.5078 8.39844 20.6738Q8.39844 20.8398 8.53027 20.9717Q8.66211 21.1035 8.82812 21.1035ZM7.10938 20.6445Q7.28516 20.6445 7.40723 20.5176Q7.5293 20.3906 7.5293 20.2246Q7.5293 20.0488 7.40723 19.9268Q7.28516 19.8047 7.10938 19.8047Q6.94336 19.8047 6.81641 19.9268Q6.68945 20.0488 6.68945 20.2246Q6.68945 20.3906 6.81641 20.5176Q6.94336 20.6445 7.10938 20.6445ZM5.49805 19.8926Q5.67383 19.8926 5.80078 19.7656Q5.92773 19.6387 5.92773 19.4727Q5.92773 19.2969 5.80078 19.1748Q5.67383 19.0527 5.49805 19.0527Q5.33203 19.0527 5.20508 19.1748Q5.07812 19.2969 5.07812 19.4727Q5.07812 19.6387 5.20508 19.7656Q5.33203 19.8926 5.49805 19.8926ZM4.04297 18.877Q4.21875 18.877 4.34082 18.75Q4.46289 18.623 4.46289 18.4375Q4.46289 18.2715 4.34082 18.1494Q4.21875 18.0273 4.04297 18.0273Q3.87695 18.0273 3.75 18.1494Q3.62305 18.2715 3.62305 18.4375Q3.62305 18.623 3.75 18.75Q3.87695 18.877 4.04297 18.877ZM2.77344 17.6172Q2.94922 17.6172 3.07617 17.4902Q3.20312 17.3633 3.20312 17.1973Q3.20312 17.0215 3.07617 16.8994Q2.94922 16.7773 2.77344 16.7773Q2.60742 16.7773 2.48047 16.8994Q2.35352 17.0215 2.35352 17.1973Q2.35352 17.3633 2.48047 17.4902Q2.60742 17.6172 2.77344 17.6172ZM1.76758 16.1621Q1.94336 16.1621 2.07031 16.0352Q2.19727 15.9082 2.19727 15.7422Q2.19727 15.5664 2.07031 15.4395Q1.94336 15.3125 1.76758 15.3125Q1.61133 15.3125 1.48438 15.4395Q1.35742 15.5664 1.35742 15.7422Q1.35742 15.9082 1.48438 16.0352Q1.61133 16.1621 1.76758 16.1621ZM1.02539 14.541Q1.20117 14.541 1.32324 14.4189Q1.44531 14.2969 1.44531 14.1211Q1.44531 13.9551 1.32324 13.8281Q1.20117 13.7012 1.02539 13.7012Q0.859375 13.7012 0.732422 13.8281Q0.605469 13.9551 0.605469 14.1211Q0.605469 14.2969 0.732422 14.4189Q0.859375 14.541 1.02539 14.541ZM0.566406 12.8418Q0.742188 12.8418 0.869141 12.7148Q0.996094 12.5879 0.996094 12.4219Q0.996094 12.2559 0.869141 12.1289Q0.742188 12.002 0.566406 12.002Q0.400391 12.002 0.273438 12.1289Q0.146484 12.2559 0.146484 12.4219Q0.146484 12.5879 0.273438 12.7148Q0.400391 12.8418 0.566406 12.8418ZM0.419922 11.084Q0.595703 11.084 0.717773 10.957Q0.839844 10.8301 0.839844 10.6641Q0.839844 10.4883 0.717773 10.3613Q0.595703 10.2344 0.419922 10.2344Q0.253906 10.2344 0.126953 10.3613Q0 10.4883 0 10.6641Q0 10.8301 0.126953 10.957Q0.253906 11.084 0.419922 11.084ZM0.566406 9.31641Q0.742188 9.31641 0.869141 9.18945Q0.996094 9.0625 0.996094 8.88672Q0.996094 8.7207 0.869141 8.59375Q0.742188 8.4668 0.566406 8.4668Q0.400391 8.4668 0.273438 8.59375Q0.146484 8.7207 0.146484 8.88672Q0.146484 9.0625 0.273438 9.18945Q0.400391 9.31641 0.566406 9.31641ZM1.02539 7.61719Q1.20117 7.61719 1.32324 7.49023Q1.44531 7.36328 1.44531 7.1875Q1.44531 7.01172 1.32324 6.88477Q1.20117 6.75781 1.02539 6.75781Q0.859375 6.75781 0.732422 6.88477Q0.605469 7.01172 0.605469 7.1875Q0.605469 7.36328 0.732422 7.49023Q0.859375 7.61719 1.02539 7.61719ZM1.76758 5.98633Q1.94336 5.98633 2.07031 5.85938Q2.19727 5.73242 2.19727 5.56641Q2.19727 5.40039 2.07031 5.27344Q1.94336 5.14648 1.76758 5.14648Q1.61133 5.14648 1.48438 5.27344Q1.35742 5.40039 1.35742 5.56641Q1.35742 5.73242 1.48438 5.85938Q1.61133 5.98633 1.76758 5.98633ZM2.77344 4.54102Q2.94922 4.54102 3.07617 4.41895Q3.20312 4.29688 3.20312 4.13086Q3.20312 3.94531 3.07617 3.81836Q2.94922 3.69141 2.77344 3.69141Q2.60742 3.69141 2.48047 3.81836Q2.35352 3.94531 2.35352 4.13086Q2.35352 4.29688 2.48047 4.41895Q2.60742 4.54102 2.77344 4.54102ZM4.04297 3.28125Q4.21875 3.28125 4.34082 3.1543Q4.46289 3.02734 4.46289 2.86133Q4.46289 2.69531 4.34082 2.56836Q4.21875 2.44141 4.04297 2.44141Q3.87695 2.44141 3.75 2.56836Q3.62305 2.69531 3.62305 2.86133Q3.62305 3.02734 3.75 3.1543Q3.87695 3.28125 4.04297 3.28125ZM5.49805 2.26562Q5.67383 2.26562 5.80078 2.14355Q5.92773 2.02148 5.92773 1.8457Q5.92773 1.66992 5.80078 1.54785Q5.67383 1.42578 5.49805 1.42578Q5.33203 1.42578 5.20508 1.54785Q5.07812 1.66992 5.07812 1.8457Q5.07812 2.02148 5.20508 2.14355Q5.33203 2.26562 5.49805 2.26562ZM7.10938 1.51367Q7.28516 1.51367 7.40723 1.38672Q7.5293 1.25977 7.5293 1.10352Q7.5293 0.927734 7.40723 0.800781Q7.28516 0.673828 7.10938 0.673828Q6.94336 0.673828 6.81641 0.800781Q6.68945 0.927734 6.68945 1.10352Q6.68945 1.25977 6.81641 1.38672Q6.94336 1.51367 7.10938 1.51367ZM8.82812 1.05469Q8.99414 1.05469 9.11621 0.927734Q9.23828 0.800781 9.23828 0.634766Q9.23828 0.46875 9.11621 0.341797Q8.99414 0.214844 8.82812 0.214844Q8.66211 0.214844 8.53027 0.341797Q8.39844 0.46875 8.39844 0.634766Q8.39844 0.800781 8.53027 0.927734Q8.66211 1.05469 8.82812 1.05469ZM10.6055 14.2383Q11.5918 14.2383 12.4072 13.7598Q13.2227 13.2812 13.7012 12.4658Q14.1797 11.6504 14.1797 10.6543Q14.1797 9.66797 13.6963 8.85742Q13.2129 8.04688 12.4023 7.56348Q11.5918 7.08008 10.6055 7.08008Q9.60938 7.08008 8.79883 7.55859Q7.98828 8.03711 7.50488 8.85254Q7.02148 9.66797 7.02148 10.6543Q7.02148 11.6504 7.5 12.4658Q7.97852 13.2812 8.79395 13.7598Q9.60938 14.2383 10.6055 14.2383ZM10.6055 13.2227Q9.88281 13.2227 9.30176 12.8809Q8.7207 12.5391 8.37891 11.958Q8.03711 11.377 8.03711 10.6543Q8.03711 9.94141 8.38379 9.36035Q8.73047 8.7793 9.31152 8.4375Q9.89258 8.0957 10.6055 8.0957Q11.3184 8.0957 11.8994 8.44238Q12.4805 8.78906 12.8223 9.36523Q13.1641 9.94141 13.1641 10.6543Q13.1641 11.377 12.8223 11.958Q12.4805 12.5391 11.8994 12.8809Q11.3184 13.2227 10.6055 13.2227Z" fill="rgba(0,0,0,0.85)"/>
 </g>
</svg>
