<?xml version="1.0" encoding="UTF-8"?>
<!--Generator: Apple Native CoreSVG 175-->
<!DOCTYPE svg
PUBLIC "-//W3C//DTD SVG 1.1//EN"
       "http://www.w3.org/Graphics/SVG/1.1/DTD/svg11.dtd">
<svg version="1.1" xmlns="http://www.w3.org/2000/svg" xmlns:xlink="http://www.w3.org/1999/xlink" width="23.2031" height="16.8262">
 <g>
  <rect height="16.8262" opacity="0" width="23.2031" x="0" y="0"/>
  <path d="M18.3789 15.7422Q19.4043 15.7422 20.2783 15.415Q21.1523 15.0879 21.8066 14.5068Q22.4609 13.9258 22.832 13.1445Q23.2031 12.3633 23.2031 11.4551Q23.2031 10.498 22.8613 9.65332Q22.5195 8.80859 21.8604 8.16895Q21.2012 7.5293 20.2148 7.2168Q20.2734 5.66406 19.7949 4.3457Q19.3164 3.02734 18.4229 2.05078Q17.5293 1.07422 16.3232 0.537109Q15.1172 0 13.7109 0Q12.373 0 11.333 0.449219Q10.293 0.898438 9.53125 1.64551Q8.76953 2.39258 8.28125 3.29102Q7.44141 2.93945 6.5918 3.06641Q5.74219 3.19336 5.03418 3.70605Q4.32617 4.21875 3.90137 5.00977Q3.47656 5.80078 3.49609 6.78711Q2.45117 6.86523 1.66504 7.42676Q0.878906 7.98828 0.439453 8.90137Q0 9.81445 0 10.957Q0 11.9531 0.400391 12.8223Q0.800781 13.6914 1.52344 14.3457Q2.24609 15 3.21777 15.3613Q4.18945 15.7227 5.33203 15.7227ZM8.47656 11.875L8.47656 8.32031Q8.47656 7.31445 9.39453 7.31445L9.39453 6.09375Q9.39453 5.0293 10.0098 4.375Q10.625 3.7207 11.6016 3.7207Q12.5977 3.7207 13.208 4.375Q13.8184 5.0293 13.8184 6.09375L13.8184 7.31445Q14.7363 7.31445 14.7363 8.32031L14.7363 11.875Q14.7363 12.8711 13.7891 12.8711L9.41406 12.8711Q8.47656 12.8711 8.47656 11.875ZM9.93164 7.30469L13.2812 7.30469L13.2812 6.06445Q13.2812 5.24414 12.8174 4.74609Q12.3535 4.24805 11.6016 4.24805Q10.8594 4.24805 10.3955 4.74609Q9.93164 5.24414 9.93164 6.06445Z" fill="rgba(0,0,0,0.85)"/>
 </g>
</svg>
